<?xml version="1.0" encoding="UTF-8"?>
<svg id="Who_is_at_risk" data-name="Who is at risk" xmlns="http://www.w3.org/2000/svg" viewBox="0 0 32 32">
  <defs>
    <style>
      .cls-1 {
        fill: #f2f2f2;
      }

      .cls-2 {
        fill: #fff;
      }

      .cls-3 {
        fill: #9c9b9b;
      }

      .cls-4 {
        fill: #83b7da;
      }

      .cls-5 {
        fill: #78a8c8;
      }

      .cls-6 {
        opacity: .9;
      }
    </style>
  </defs>
  <g id="ic_artificial_insemination_technicians_rendering_plants_workers" data-name="ic_artificial insemination technicians +rendering plants workers">
    <path class="cls-2" d="m6.79,18.76h0s-2.14-2.86.55-4.74c0,0-.74-5.22,3.59-7.44,3.91-1.78,8.73-.19,9.04,2.04,0,0,6.65.83,7.26,1.78,1.12,2.04,2.87,5.47,1.11,6.93s-13.88,5.91-13.88,5.91c0,0-1.29,1.74-2.14,2.94s-3.74,1.76-3.54-.19c0,0-3.71,1.46-4.72.49-.52-.5-1.91-2.14-1.22-4.38s2.23-2.76,3.95-3.35Z"/>
    <g>
      <g class="cls-6">
        <path class="cls-4" d="m8.83,23.2l.45,1.1-3.63,1.49c-.28.11-.59-.02-.7-.29h0c-.11-.28.02-.59.29-.7l3.59-1.59Z"/>
        <path class="cls-4" d="m12.82,23.34l-.21.28-.35.46-.41.54-.39.51-.29.38-.11.15c-.18.24-.52.28-.76.1s-.28-.52-.1-.76l.83-1.54s2.41-.92,2.45-.89"/>
        <path class="cls-4" d="m8.31,21.93l.47,1.15-4.23,1.66c-.32.13-.67.01-.78-.26h0c-.11-.28.05-.61.37-.74l4.17-1.81Z"/>
        <path class="cls-4" d="m7.78,20.64l.47,1.14-3.66,1.42c-.28.11-.59-.02-.7-.29h0c-.11-.28.02-.59.29-.7l3.59-1.57Z"/>
        <path class="cls-4" d="m7.28,19.43l.44,1.07-2.86,1.1c-.22.09-.48-.06-.6-.34h0c-.11-.28-.03-.57.19-.66l2.84-1.17Z"/>
        <path class="cls-4" d="m11.59,17.63c.36-.2.72-.42,1.12-.56.18-.06.37-.12.53-.24.13-.1.23-.23.36-.32.22-.16.51-.2.77-.29.59-.18,1.07-.59,1.59-.91.62-.38,1.29-.65,1.97-.91.22-.08.45-.17.64-.31.12-.1.22-.22.35-.31.13-.09.28-.15.43-.21.51-.2,1.02-.39,1.54-.59.34-.13.68-.26,1.04-.28.23-.01.47.02.69-.04.57-.14.94-.8,1.52-.82.23,0,.47.09.69.02.47-.16.53-.98,1.03-.98.23,0,.42.22.49.44s.07.46.12.69c.15.59.68,1.02.86,1.6.16.52.01,1.09.18,1.6.14.41.47.76.53,1.19.01.12,0,.25-.06.35-.05.09-.14.15-.23.19-.45.21-.99.07-1.47.22-.29.09-.53.29-.79.44-.33.18-.7.29-1.07.32-.19.01-.4,0-.55.13-.12.09-.17.24-.28.35-.24.23-.67.14-.95.33-.11.07-.18.17-.28.25-.26.21-.63.21-.95.28-.88.19-1.58.93-2.48,1.01-.07.26-.35.42-.61.46s-.55.02-.81.09c-.37.1-.67.36-.99.57-.46.31-.98.52-1.5.7-.53.19-1.1.3-1.62.52-1.36.57-2.72,1.12-4.09,1.68,0,0-2-4.87-2-4.87l.85-.35c.83-.34,1.68-.78,2.54-1.04.32-.1.62-.25.91-.42Z"/>
        <path class="cls-4" d="m22.08,15.42c-.34-.02-.69-.02-1.03-.11-.15-.04-.31-.09-.47-.07-.13.01-.27.08-.4.09-.23.02-.44-.09-.66-.16-.49-.15-1.01-.05-1.52-.05-.6,0-1.2-.12-1.78-.26-.19-.05-.39-.09-.58-.06-.13.02-.25.07-.38.08-.13.01-.26-.02-.39-.05-.44-.1-.88-.2-1.33-.3-.29-.07-.58-.13-.84-.3-.16-.11-.31-.26-.49-.32-.45-.17-1.03.19-1.43-.09-.16-.11-.28-.32-.46-.37-.39-.11-.84.56-1.17.3-.16-.12-.18-.4-.12-.63s.18-.43.25-.65c.19-.58.03-1.22.19-1.81.14-.52.52-.93.65-1.45.11-.42.05-.89.22-1.29.05-.11.12-.21.21-.26.08-.04.17-.05.25-.04.41.05.71.46,1.1.57.24.07.5.03.75.04.31.01.62.11.88.29.14.09.28.2.44.18.12-.02.23-.12.36-.15.28-.07.52.23.8.21.11,0,.21-.05.31-.07.28-.04.53.15.78.26.69.3,1.52.04,2.17.43.17-.19.44-.17.64-.07s.38.26.59.34c.3.11.63.04.95.03.46-.02.92.07,1.36.19.45.12.89.32,1.35.4,1.2.22,1.35.38,2.55.61.77-.44,3.21,4.68,2.12,5.88-.17.19-2.58-.72-2.83-.77-.73-.14-1.52-.21-2.23-.44-.26-.09-.54-.11-.82-.12Z"/>
      </g>
      <path class="cls-5" d="m17.65,15.16c.33.15.66.26.99.36.43.14.86.28,1.24.3.4.02.71-.08,1.09-.08.03,0,.07,0,.1,0,.13.03.25.05.37.06.23.01.44,0,.64-.02.35-.03.7-.06,1.1,0,.52.08,1.1.34,1.6.36.08,0,.16,0,.24.02.15.03.32.11.48.14.14.03.27.03.39.02.08,0,.17,0,.21-.05.16-.15-.42-.38-.59-.45-.34-.14-.67-.24-1-.34-.43-.13-.87-.25-1.25-.26-.4-.01-.71.1-1.09.11-.08,0-.18,0-.26-.01-.07-.01-.13-.03-.19-.03-.23-.02-.44,0-.64,0-.35.02-.7.04-1.1-.03-.52-.1-1.09-.36-1.59-.41-.08,0-.16,0-.24-.02-.15-.03-.32-.11-.47-.15-.14-.04-.26-.04-.39-.04-.08,0-.17,0-.21.04-.17.14.41.39.58.46Z"/>
    </g>
    <g>
      <g>
        <path class="cls-2" d="m20.24,13.53c-.03.09.06.18-.24.68-.53.87-1.84,1.32-2.02,1.4-.64.26-1.32.42-2.01.51-.72.1-1.46.09-2.18.07-.61-.02-1.22-.04-1.82-.16s-1.16-.26-1.73-.42c-1.51-.45-1.53-1.14-1.53-1.14,0,0-.01-.09-.03-.24-.03-.34-.08-.98-.03-1.64.06-.96.32-1.85.92-2.89.32-.56.75-1.06,1.23-1.49.79-.7,1.82-1.17,2.89-1.21.66-.02,1.33.07,1.98.16,1.08.16,2.35.38,3.1,1.26.22.26.35.55.5.85.17.32.31.64.43.98.25.67.4,1.38.46,2.09.03.4.06.8.07,1.2,0,0,.65.45.66.88.02.57-.5.98-.92,1.27-.58.39-1.25.68-1.85,1.06-.9.56-1.78,1.14-2.69,1.68-1.15.68-2.56.63-3.84.45-1.16-.16-2.31-.42-3.34-1-.11-.06-.22-.13-.33-.2-.44-.29-.84-.73-.84-1.29,0-.53.34-.98.7-1.35.14-.15.3-.29.45-.43.14-.12.28-.28.44-.38"/>
        <path class="cls-2" d="m16.43,7.28c-.34.19-1.2.66-1.54.84-.71.37-1.31.8-1.52,1.61-.05.19-.07.38-.07.57h-.01c-.02-.1-.03-.19-.03-.29.03-1.06.71-1.54,1.59-1.96.33-.17,1.22-.61,1.57-.79,0,0,0,.01,0,.01h0Z"/>
        <path class="cls-2" d="m15.35,7.12c-.34.19-1.2.66-1.54.84-.71.37-1.31.8-1.52,1.61-.05.19-.07.38-.07.57h-.01c-.02-.1-.03-.19-.03-.29.03-1.06.71-1.54,1.59-1.96.33-.17,1.22-.61,1.57-.79,0,0,0,.01,0,.01h0Z"/>
        <path class="cls-2" d="m8.69,14.31c-.03.6.56.94,1.04,1.14.51.21,1.04.38,1.58.49,1.35.29,2.74.31,4.12.2,1.37-.08,2.74-.48,3.89-1.25.45-.3.87-.74.9-1.31-.02.57-.43,1.03-.88,1.33-.92.62-1.98,1.03-3.07,1.19-1.1.15-2.21.19-3.31.12-1.1-.08-2.2-.31-3.22-.75-.48-.21-1.07-.57-1.03-1.17h0Z"/>
      </g>
      <g>
        <path class="cls-1" d="m20,13.51c-.03.08.06.18-.23.65-.51.83-1.77,1.28-1.95,1.35-.62.25-1.27.4-1.93.49-.69.1-1.4.08-2.1.06-.59-.02-1.17-.04-1.75-.15s-1.12-.25-1.67-.41c-1.46-.43-1.47-1.1-1.47-1.1,0,0-.01-.09-.03-.24-.03-.33-.07-.95-.03-1.58.06-.92.31-1.78.89-2.78.31-.54.72-1.02,1.19-1.44.76-.68,1.76-1.13,2.78-1.17.64-.02,1.28.07,1.91.16,1.04.15,2.26.36,2.98,1.21.21.25.33.53.48.82.16.31.3.62.42.95.24.65.39,1.33.44,2.01.03.38.06.77.07,1.15,0,0,.62.44.64.85.02.55-.48.94-.89,1.22-.56.38-1.21.66-1.79,1.02-.86.54-1.71,1.1-2.59,1.62-1.11.65-2.47.61-3.7.44-1.12-.16-2.22-.4-3.22-.97-.11-.06-.21-.12-.31-.19-.43-.28-.81-.7-.81-1.25,0-.51.33-.94.67-1.3.14-.14.28-.28.43-.41.13-.12.27-.27.42-.36"/>
        <path class="cls-3" d="m16.34,7.49c-.33.18-1.16.64-1.48.81-.68.35-1.26.77-1.46,1.55-.05.18-.07.36-.06.55h-.01c-.02-.09-.02-.19-.03-.28.03-1.02.69-1.48,1.53-1.89.32-.16,1.18-.59,1.51-.76,0,0,0,0,0,0h0Z"/>
        <path class="cls-3" d="m15.29,7.34c-.33.18-1.16.64-1.48.81-.68.35-1.26.77-1.46,1.55-.05.18-.07.36-.06.55h-.01c-.02-.09-.02-.19-.03-.28.03-1.02.69-1.48,1.53-1.89.32-.16,1.18-.59,1.51-.76,0,0,0,0,0,0h0Z"/>
        <path class="cls-3" d="m8.88,14.26c-.03.57.54.9,1,1.1.49.21,1,.36,1.52.47,1.3.28,2.64.29,3.96.19,1.32-.08,2.64-.47,3.74-1.21.44-.29.84-.72.87-1.26-.02.55-.42.99-.85,1.29-.88.6-1.9.99-2.96,1.15-1.06.15-2.13.18-3.19.11-1.06-.07-2.12-.3-3.1-.72-.46-.21-1.03-.55-.99-1.12h0Z"/>
      </g>
    </g>
  </g>
</svg>