<?xml version="1.0" encoding="UTF-8"?>
<svg id="Livello_2" data-name="Livello 2" xmlns="http://www.w3.org/2000/svg" viewBox="0 0 12.61 26.39">
  <defs>
    <style>
      .cls-1, .cls-2, .cls-3, .cls-4, .cls-5, .cls-6, .cls-7, .cls-8, .cls-9, .cls-10, .cls-11, .cls-12, .cls-13, .cls-14, .cls-15 {
        stroke-width: 0px;
      }

      .cls-2 {
        fill: #633e2a;
      }

      .cls-3 {
        fill: #613d2e;
      }

      .cls-4 {
        fill: #796255;
      }

      .cls-5 {
        fill: #261711;
      }

      .cls-6 {
        fill: #4f2618;
      }

      .cls-7 {
        fill: #49311a;
      }

      .cls-8 {
        fill: #724830;
      }

      .cls-9 {
        fill: #302018;
      }

      .cls-10 {
        fill: #371b14;
      }

      .cls-11 {
        fill: #c56767;
      }

      .cls-12 {
        fill: #968370;
      }

      .cls-13 {
        fill: #855637;
      }

      .cls-14 {
        fill: #fff;
      }

      .cls-15 {
        fill: #fcdbcd;
      }
    </style>
  </defs>
  <g id="Where_is_found" data-name="Where is found">
    <g>
      <g>
        <path class="cls-14" d="m11.18,23.73l.02-.11h0c.17-.82.09-1.16-.32-2.17-.43-1.06-.53-2.45-.22-3.24.35-.89.19-2.18-.41-3.36-.39-.76-.54-1.13-.85-2-.02-.07-.06-.21-.12-.38,0-.03.02-.06.03-.09.02-.11,0-.2-.02-.29l.1.03-.22-.34c-.04-.06-.09-.12-.14-.19-.05-.07-.11-.15-.17-.24-.06-.17-.09-.33-.12-.49-.02-.68.24-1.55.4-2.03.02-.06.03-.13.05-.2.06-.09.08-.17.09-.19h-.04s.01-.06.02-.09c.03-.05.04-.09.04-.09h0s0,0,0,0l-.03-.02c.05-.43-.02-.84-.18-1.15.38-.1,1.27-.43,1.38-1.35.09-.79.25-1.28.47-1.5l.09-.13-.04-.09c-.05-.13-.23-.13-.29-.13-.11,0-.24.02-.41.06h0c-.23.06-.6.18-1.08.45-.25.14-.41.28-.53.41-.07-.49-.23-1.02-.57-1.58-.44-.71-.61-1.25-.75-1.68-.2-.63-.34-1.05-1.14-1.31-.35-.11-.71-.18-1.09-.22h0s-.06-.01-.06-.01c0,0-.01,0-.02,0l-.29-.03h.01c-.08.01-.17,0-.26,0C3.91,0,3.39.11,3.14.27c-.11.06-1.05.57-1.08,1.19-.02.47-.09,1.01-.46,1.45-.26.32-.47,1.25-.51,2.17,0,0,0,0,0,0-.03.06-.02.12,0,.19,0,.38.02.75.09,1.06.2.85.09,1.34-.03,1.87l-.07.32c-.07.36.03.65.14.95.11.29.21.59.19,1.02-.07,1.37.02,2.3.29,2.76.28.5.63,1.27.36,2.28-.28,1.04-.2,1.73,0,2.44l.03.1c.18.65.43,1.54.14,2.71-.09.37-.18.7-.26.99-.2.73-.34,1.26-.33,1.68.02.44-.04.86-.08,1.11l-.02.16s0,.11.03.18c-.01.19-.05.63-.11.82-.05.16-.03.32.06.44.06.08.16.13.28.16l-.02.05.22-.02s0,0,.01,0c.03,0,.08,0,.08,0h0c.09-.02.16-.04.26-.07.02,0,.05,0,.08.01.05.01.12.03.14.04.07.02.13.04.2.04.13,0,.26-.07.44-.22l.12-.1c.25-.21.29-.28.4-.77.01-.05.01-.09.02-.13.06,0,.13,0,.2,0s.14,0,.2.01h.04c.07,0,.14-.03.2-.08.1-.1.14-.27.16-.43l.03.03-.02-.34s0,0,0,0v-.05s0,0,0,0c0-.12-.02-.48,0-.87.02-.34-.16-.96-.35-1.61-.1-.33-.19-.66-.26-.95-.07-.29-.03-.97.04-1.74.04-.15.08-.3.12-.43l.04-.11c.21-.61.44-1.3.2-2.16.03-.17.05-.3.06-.35.09-.38-.11-1.12-.48-1.81-.28-.52.11-1.22.18-1.34.24.32.43.68.48.91.08.37.33.41.43.41.19,0,.41-.11.63-.32.16.12.31.75.11,1.21-.02.05-.05.11-.08.16h0s-.19.4-.19.4c-.33.7-.6,1.48-.27,2.49.46,1.4.55,2.44.29,3.18l-.05.14c-.28.79-.52,1.47-.45,2.1.05.4-.07.72-.16.96,0,.01,0,.02,0,.03l-.16.05.14.03c-.02.06-.04.13-.05.18,0,0,0,0,0,.01,0,.01-.05.3,0,.64.03.2.06.38.34.38l.4-.02c.2,0,.34.05.48.1.09.03.19.06.3.08,0,0,.01,0,.02,0h.1c.08,0,.15,0,.23-.03.45-.13.38-.42.31-.68-.02-.08-.04-.16-.06-.26,0,0,0,0,0,0,0-.02,0-.04-.01-.06-.04-.19-.11-.48-.02-.86.17-.74.04-1.77-.07-2.56-.06-.45-.06-1.02.01-1.6h0c.06-.49.16-.93.3-1.31.38-1.04.42-1.52.35-2.33-.05-.58.03-.94.11-1.32.03-.13.06-.26.08-.41.02-.13.05-.27.08-.41.02-.1.06-.27.1-.42.01,0,.03,0,.04,0,.06.16.12.32.16.45.04.17.07.34.07.53,0,.81.21,1.44.52,2.32.08.23.18.44.27.64.27.59.53,1.15.5,2.26,0,.12,0,.23-.01.35l-.02.25c-.04.4-.09.72-.13,1-.08.49-.14.88-.07,1.37.06.41.02.77-.02,1.06-.01.13-.02.24-.02.34v.03s-.06.61,0,1.01c.05.33.3.53.66.53.13,0,.26-.02.4-.07.07-.02.14-.04.25-.04,0,0,.01,0,.02,0,.06,0,.12.01.17.02.07.01.14.02.21.02.14,0,.26-.04.38-.11.41-.26.05-1.2-.09-1.52,0-.13,0-.29.05-.5Z"/>
        <path class="cls-14" d="m11.48,14.96s-.11-.08-.18-.08l-.12.03-.04.04c-.1.09-.11.24-.02.34.03.03.69.77.22,1.6-.07.12-.03.26.09.33l.08.03h.04c.09,0,.17-.05.21-.12.61-1.08-.19-2.05-.29-2.17Z"/>
        <path class="cls-14" d="m12.38,15.54c-.04-.08-.12-.12-.21-.12h-.08s-.03.03-.03.03l-.1.09-.02.06v.13s.02.05.02.05c0,0,.48.92-.17,1.61-.09.1-.09.25,0,.34l.11.07h.06l.13-.03.04-.04c.7-.73.48-1.71.24-2.17Z"/>
        <path class="cls-14" d="m1.46,20.85v-.06l-.03-.13-.04-.04s-.11-.07-.17-.07l-.13.03-.04.04c-.89.91-.3,2.11-.27,2.17.04.08.12.13.21.13h.08s.03-.03.03-.03c.12-.06.16-.21.1-.33-.02-.04-.47-.93.19-1.6l.07-.11Z"/>
        <path class="cls-14" d="m1.09,20.38c.11-.07.15-.22.08-.33-.04-.07-.12-.11-.2-.11h-.09s-.03.04-.03.04c-1.12.69-.79,2.03-.79,2.04.03.11.12.18.23.18h.06c.06-.02.12-.06.15-.12l.04-.12v-.06c-.04-.1-.23-1.03.56-1.51Z"/>
      </g>
      <g>
        <path class="cls-2" d="m11.04,23.7s-.49-.24-.46-.51c.02-.27-.66-.78-.63-1.27.02-.47-.4-1.26-.43-1.31.02-.19.03-.39.04-.62.05-1.54-.46-2.07-.78-2.95-.32-.88-.52-1.49-.52-2.27s-.44-1.49-.44-1.49c0,0-.2.76-.29,1.32-.1.56-.27.95-.19,1.76.07.81.02,1.27-.34,2.27-.16.42-.25.89-.31,1.35,0-.07-.05-1.18-.45-1.27-.41-.1-.85-.56-.48-.37.38.2.48.37.89.15.41-.22.19-1.46-.34-1.71-.54-.25-.66-1.02-.66-1.02h0c.1-.21.2-.4.27-.57.22-.52.06-1.22-.16-1.38,0,0,1.01-7.62.53-8.27-.48-.65-.28-1.47-.11-1.89.17-.41-.07-1.12-.42-1.47-.35-.34-.6-.59-.43-.98.17-.38-.25-1-.28-1.03.36.04.75.11,1.13.23,1.24.39.71,1.15,1.81,2.93,1.1,1.78.24,3.2.81,4.15.56.95-.74,2.03-.06,3.94.76,2.12.83,2.4,1.39,3.5.56,1.1.75,2.37.41,3.25-.34.88-.19,2.32.22,3.34.41,1.03.49,1.32.29,2.2Z"/>
        <path class="cls-7" d="m5.96,12.11l-.12.98s.65.19.87.51.88.6.89.55.2-.86.2-.86c0,0,.39.84.41,1.16s.45-.48.63-.85.4-.69.4-.69c0,0-.37-1.33-.76-1.49s-2.54.69-2.54.69Z"/>
        <path class="cls-4" d="m4.18,25.03c-.18-.03-.53,0-.53,0-.18-.12-.19-.4-.16-.64.04.02.08.02.12,0,.55-.27.82-.03.82-.03.01.33-.06.7-.25.67Z"/>
        <path class="cls-12" d="m3.6,25.27c-.12.55-.15.5-.48.79-.33.29-.38.17-.63.11,0,0-.06-.17,0-.55.06-.38.13-.8.13-.8,0,0-.14-.51-.41-.07,0,0,0,.44,0,.66,0,.22-.21.82-.21.82-.29.02-.48-.18-.39-.45.09-.27.12-.9.12-.9.14-.71,1.88-.49,1.88-.49,0,0,.12.33,0,.88Z"/>
        <path class="cls-4" d="m2.49,25.62c-.06.38,0,.55,0,.55-.26-.06-.21.04-.5.06,0,0,.22-.6.21-.82,0-.22,0-.66,0-.66.27-.44.41.07.41.07,0,0-.06.42-.13.8Z"/>
        <path class="cls-12" d="m10.44,25.68c-.09,0-.19,0-.31.05-.43.15-.82.05-.88-.34-.06-.39,0-.98,0-.98l.58-.05-.48.27s.02.18.29.21.73-.06.79.2c.06.26,0,.65,0,.65Z"/>
        <path class="cls-4" d="m11.14,25.63c-.25.16-.45.06-.7.05,0,0,.06-.39,0-.65-.06-.26-.53-.17-.79-.2s-.29-.21-.29-.21l.48-.27,1.14-.1s.51,1.15.16,1.37Z"/>
        <path class="cls-7" d="m4.42,24.36s-.27-.24-.82.03c-.05.02-.09.02-.12,0-.41-.2-.32-2.73-.26-4.84.07-2.29-.39-5.44-.76-6.85-.37-1.4.73-2.83.56-2.09-.2.92.05,1.48.47,1.67.31.14.51.52.5.55,0,0-.53.85-.19,1.48.34.64.55,1.37.47,1.71-.08.34-.66,4.03-.47,4.86.2.83.63,2.03.61,2.51-.02.49,0,.94,0,.94Z"/>
        <path class="cls-12" d="m6.62,25.88c-.1.03-.19.04-.27.02,0,0-.31-.09-.38-.26-.06-.17-.56-.12-.6-.34-.04-.22.19-.58.19-.62l-.32-.07c.52-.17,1.46.14,1.52.49.08.44.26.66-.15.78Z"/>
        <path class="cls-13" d="m4.74,13.8c-.1-.46-.73-1.39-1.24-1.68-.51-.29-.34-1.39-.44-.93-.1.46.02.88.17,1.53.15.65.15,1.98.76,3.15.61,1.17.27,2,0,2.78-.27.78-.41,1.76-.46,2.68-.05.93.27,1.37.2,2.03-.07.66-.1.66-.15,1.29-.05.63-.49.29-.78.24-.29-.06-.19-.29-.58-.14s-.54.22-.52,0c.02-.22.12-.73.1-1.29-.02-.56.27-1.37.58-2.64.32-1.27.02-2.2-.17-2.88-.19-.68-.27-1.34,0-2.37.27-1.02-.05-1.83-.37-2.39-.32-.56-.32-1.78-.27-2.68.05-.9-.46-1.29-.34-1.95.13-.66.34-1.2.09-2.25-.24-1.05.02-2.85.39-3.29.37-.44.46-.98.49-1.54.02-.56,1-1.07,1-1.07.3-.2,1.02-.31,1.85-.23h0s.44.65.28,1.03c-.17.39.07.64.43.98.35.34.59,1.05.42,1.47-.17.41-.36,1.24.11,1.89.48.65-.53,8.27-.53,8.27-.07-.05-.14-.05-.21.02-.29.29-.71.44-.81-.02Z"/>
        <path class="cls-13" d="m10.87,24.75c-.36.02-.51-.29-.9-.22-.39.07-.37.22-.61.1-.24-.12.07-.81-.05-1.68-.1-.75.11-1.25.21-2.34.03.05.45.84.43,1.31-.02.49.66,1,.63,1.27-.02.27.46.51.46.51-.2.88.19,1.03-.17,1.05Z"/>
        <path class="cls-3" d="m1.66,7.18s-.07,1.41.12,1.72,1.15-.01,1.39.41.61,1.61,1.02,1.83-.98.22-1.17-.51-1.88-.66-1.37-3.44Z"/>
        <path class="cls-8" d="m9.04,11.86c-.13-.04-.17.02-.4.05-.24.04-.53-.12-.89-.1-.35.02-.34.33-.34.33,0,.26.16.33.22.36.06.03.42.15.34.28-.08.13-.27.27-.04.47.23.2.22.34.22.34-.36.14-.87.13-1.02-.17-.12-.25-.32-.47-.56-.65h0c-.26-.23-.25-.76-.25-1.14s.49-.93.1-1.52c-.4-.58-1.05-.35-1.1-.62-.05-.27-.42-.77-.27-1.39.16-.62.06-.84-.11-1.21-.17-.35.32-.91.37-.97,0,0,0,0,0,0,.63-.45,1.25-.44,1.83-.39,0,0,.68.27.72.96.05.7.24,1.57.43,1.81.19.24.09,1.14,0,1.42-.09.28.12,1.25.44,1.69,0,0,0,0,0,0,.09.17.22.3.31.44Z"/>
        <path class="cls-6" d="m2.24,6.71s0,0-.01-.01c-.02-.01-.03-.03-.05-.04h0s-.07-.08-.11-.11c-.31-.32-.55-.68-.65-.91-.15-.36-.33-.5-.09-.55h0s1.54.1,2,.82c.46.71.38.81.69,1.03.3.21-1.3.18-1.79-.22Z"/>
        <path class="cls-10" d="m10.84,4.16c-.17.17-.39.54-.51,1.59-.12,1.05-1.44,1.27-1.44,1.27-.17-.17-.41-.35-.1-.43,0,0,.51-.18.69-.99.18-.81.4-1.35.84-1.49,0,0,0,0,0,0,.4-.1.61-.05.5.05Z"/>
        <path class="cls-6" d="m5.2,8.31s.2.24.48.35.26.44.24.57-.46.13-.51-.15.07-.38.07-.38c0,0-.18-.16-.27-.38Z"/>
        <path class="cls-1" d="m5.68,8.65s-.2.21-.06.43.31,0,.31,0c0,0,.09-.31-.25-.43Z"/>
        <path class="cls-5" d="m9.16,12.36c-.1.57-.46.78-.73,1.07-.06.07-.16.13-.27.17h0s.01-.15-.22-.34c-.23-.2-.05-.34.04-.47.09-.13-.28-.26-.34-.28-.06-.03-.23-.1-.22-.36,0,0-.02-.31.34-.33.35-.02.65.13.89.1.24-.04.28-.09.4-.05.09.14.15.29.11.5Z"/>
        <path class="cls-3" d="m6.54,5.76s.29.59.13.9-.87.31-.73.6.53.59.56.93.15.68.53.82.53.81.68.7.15-.33,0-.82-.32-.63-.3-1.45-.11-1.54-.33-1.68-.69-.38-.55,0Z"/>
        <path class="cls-3" d="m6.57,12.78c-.14-.1-.29-.19-.44-.25-.41-.17-1.2-.95-1.22-1.37s-.44-.85-.37-1.42c.07-.56-.07-1.83-.1-2-.02-.17-.12-.54-1-.49-.42.02-.84-.22-1.2-.54.49.39,2.09.43,1.79.22-.31-.22-.24-.31-.69-1.03-.46-.71-2-.82-2-.82.11-.02.32-.03.67-.03,1.1,0,1.59.46,2.05.9.46.44.99.17.99.17.09-.08.17-.15.26-.21-.05.06-.54.62-.37.97.18.37.27.59.11,1.21-.16.62.21,1.12.27,1.39.05.27.7.04,1.1.62.4.59-.1,1.14-.1,1.52s0,.91.25,1.14Z"/>
        <path class="cls-4" d="m6.35,25.9c-.25-.03-.45-.19-.84-.18-.51.01-.52.09-.57-.24-.05-.33,0-.6,0-.6.05-.14.17-.22.32-.27l.32.07s-.23.4-.19.62c.04.22.53.17.6.34.06.17.38.26.38.26Z"/>
        <path class="cls-13" d="m6.23,18.7c.4.09.45,1.2.45,1.27h0c-.07.62-.07,1.21-.01,1.63.1.73.25,1.78.07,2.51-.17.73.17,1.12,0,1.2-.17.07-.51-.41-1-.51-.49-.1-.81.27-.81.07s.32-.66.24-1.29c-.07-.63.2-1.34.49-2.17.29-.83.15-1.93-.29-3.27-.33-1-.03-1.77.26-2.38,0,0,.13.77.66,1.02.54.24.76,1.49.34,1.71-.41.22-.51.05-.89-.15-.38-.19.06.27.48.37Z"/>
        <path class="cls-1" d="m7.52,12.08s-.01.27.27.43-.29,0-.37-.14.06-.46.1-.28Z"/>
        <path class="cls-3" d="m10.33,4.11c-.44.14-.66.68-.84,1.49-.18.81-.69.99-.69.99-.31.07-.07.26.1.43.29.41.34,1.15.12,1.78-.22.64-.46,1.54-.41,2.2.01.17.06.31.13.43-.32-.44-.52-1.41-.44-1.69.09-.28.19-1.18,0-1.42-.19-.24-.38-1.12-.43-1.81-.04-.69-.72-.96-.72-.96.26.02.52.06.76.06.88.02.32-.46,1.37-1.05.42-.23.78-.37,1.05-.44Z"/>
        <path class="cls-9" d="m8.79,8.69s.1.03.09.34c-.01.3-.24.33-.34.21.12.07.34-.17.27-.35-.06-.17-.12-.24-.12-.24.17-.06.47-.42.47-.42-.08.22-.38.46-.38.46Z"/>
        <path class="cls-1" d="m8.54,9.24c-.1-.12-.01-.53.15-.59,0,0,.06.07.12.24.06.18-.16.41-.27.35Z"/>
        <path class="cls-1" d="m8.51,8.95s.02-.24.23-.36.33-.24.43-.36c0,0-.07.17-.22.31l-.11.11s.23-.05.3-.23c0,0-.05.2-.2.26,0,0-.09.03-.07.12,0,0-.04-.13-.14-.11s-.21.25-.21.25Z"/>
        <path class="cls-1" d="m5.9,8.84s-.04-.16-.32-.25-.41-.36-.41-.36c0,0,.02.15.16.3l.1.12s-.13-.03-.18-.12c0,0,.04.07.1.12s.41.03.54.18Z"/>
        <circle class="cls-15" cx="5.6" cy="8.8" r=".04"/>
        <circle class="cls-15" cx="8.77" cy="8.8" r=".04"/>
        <path class="cls-11" d="m11.55,17.11s-.03,0-.05-.01c-.05-.03-.06-.09-.04-.14.52-.91-.21-1.73-.24-1.77-.04-.04-.03-.1,0-.14s.1-.03.14,0c0,0,.86.96.27,2-.02.03-.05.05-.09.05Z"/>
        <path class="cls-11" d="m11.96,17.65s-.05,0-.07-.03c-.04-.04-.04-.1,0-.14.73-.76.2-1.76.19-1.77-.03-.05,0-.11.04-.14.05-.02.11,0,.14.04,0,.01.6,1.14-.22,2.01-.02.02-.05.03-.07.03Z"/>
        <path class="cls-11" d="m.98,22.78s-.07-.02-.09-.05c0-.01-.59-1.15.25-2,.04-.04.1-.04.14,0,.04.04.04.1,0,.14-.73.75-.24,1.73-.21,1.77.03.05,0,.11-.04.14-.02,0-.03.01-.05.01Z"/>
        <path class="cls-11" d="m.28,22.05s-.09-.03-.1-.08c0-.01-.3-1.25.72-1.88.05-.03.11-.01.14.03.03.05.01.11-.03.14-.89.55-.64,1.62-.63,1.67.01.05-.02.11-.07.12,0,0-.02,0-.02,0Z"/>
      </g>
    </g>
  </g>
</svg>