<?xml version="1.0" encoding="UTF-8"?>
<svg id="Where_is_found" data-name="Where is found" xmlns="http://www.w3.org/2000/svg" viewBox="0 0 32 32">
  <defs>
    <style>
      .cls-1 {
        fill: #fff;
      }

      .cls-2 {
        fill: #e8e8e8;
      }

      .cls-3 {
        fill: #848484;
      }

      .cls-4 {
        fill: #e0ca8d;
      }

      .cls-5 {
        fill: #212121;
      }

      .cls-6 {
        fill: #464646;
      }

      .cls-7 {
        fill: #343434;
      }
    </style>
  </defs>
  <g id="ic_cow">
    <path id="Tracciato_67-2" data-name="Tracciato 67-2" class="cls-1" d="m2.14,13.41s.86-.61,1.44-1.35.39-.93.86-1.63c-.08-.02-1.14-.49,0-1.75s.86-.91.86-.91c0,0-.53,1.53-.31,2.03,0,0,1.2-.71,2.41-.57.07-.05-.39-1.34-.39-1.34l.93.92s.52.48.48,1.13l1,1.2,3.87,1.2,6.2,1s1.49.24,3.55.11,2.26-.11,3.73,0,3.45.1,3.73,2.32.47,4.5.47,4.5c0,0,.72-.33.55,1.6s-.88,1.26-.88,1.26c0,0-.86.35-.16-3.21,0,0,.54-4.5-1.55-5.74,0,0,.62.59.37,2.02s-.48,2.32-.69,4.69.9,1.33.34,2.46c0,0,.12.18-2.11.39-1.87.17-3.32.7-5.44.02-.33-.51-.33-.41-.36-.63l-4.53.22s-.18.42-2.03.39-3.14-.36-5.19-.39c-1.12-.02-1.76-1.07-1.49-1.64.22-.55.45-.45,2.44-.29-1.71-2.12-2.87-5.57-2.87-5.57,0,0-.74.43-1.57.36s-3.51-.42-3.75-.49-.71-.19-.84-.75.01-1.01.07-1.07.23-.08.37-.17.48-.32.48-.32Z"/>
    <path id="Tracciato_71" data-name="Tracciato 71" class="cls-6" d="m7.5,9.67c.21-.22-.31-1.48-.31-1.48l.75.83s.52.53.29,1.19c-.1.34-1.18.19-.72-.53Z"/>
    <path id="Tracciato_70" data-name="Tracciato 70" class="cls-6" d="m4.51,10.35c-.21-.05-.8-.59-.18-1.29.32-.38.73-.9.73-.9,0,0-.49,1.24-.16,1.75-.07.06-.13.13-.19.19-.1.11-.2.25-.2.25Z"/>
    <path id="Tracciato_69" data-name="Tracciato 69" class="cls-3" d="m2.25,13.58c.06-.05.32-.06.72.15.38.19.92.65.74,2.03-.33-.01-1.7-.25-1.7-.25,0,0-.61-.26-.62-.56s-.08-.86.13-.95c.21-.04.66-.36.72-.42Z"/>
    <path id="Tracciato_72" data-name="Tracciato 72" class="cls-5" d="m2.23,14.62c-.2-.1-.22-.38.22-.4,0,0,.27.24.22.37s-.24.13-.43.03Z"/>
    <path id="Tracciato_74" data-name="Tracciato 74" class="cls-2" d="m21.06,23.04c-.13-.16.18-.33.26-.44.58-.41.52-.44,1.09-.57.95-.15,1-.23,2.05-.18-.36-.19-1.45-.68-1.29-2.72s1.34-3.09.89-1.78.34,3.18.98,4.22c.27.44.19.29.19.29,0,0,.4.74-1.1.68-.65-.04-1.31.02-1.94.19-.66.18-.98.2-1.13.33Z"/>
    <path id="Tracciato_78" data-name="Tracciato 78" class="cls-2" d="m16.54,22.71c.1-.13-.16-.29-.23-.41-.65-.53-2.25-1.15-3.09-1.26-2.87-.44-1.75-1.56-3.08-3.01s-2.51-2.16-2.51-2.16c0,0,1.25,2.77,1.79,3.71.39.65.81,1.28,1.27,1.89.47.15.96.24,1.45.26.76.02,2.3.21,2.96.45.66.24,1.27.41,1.44.53Z"/>
    <path id="Tracciato_75" data-name="Tracciato 75" class="cls-4" d="m21.31,23.3c.07.06.19.29.25.34s.49.2.94.22c0,0-.12-.99-.15-1.02,0,0-.37.09-.65.16-.15.03-.29.08-.43.15-.01.06,0,.12.04.16Z"/>
    <path id="Tracciato_77" data-name="Tracciato 77" class="cls-4" d="m16.31,23.11c-.1.13-.25.17-.34.21s-.6.16-1.13.15c0,0,.24-1.07.28-1.1,0,0,.43.14.76.24.17.05.34.12.5.2.02.1,0,.21-.06.3Z"/>
    <path id="Tracciato_79" data-name="Tracciato 79" class="cls-7" d="m29.07,16.63c-.27,1.18-.54,3.13-.54,3.57,0,0-.06.58-.86.3-.21-.06-.47.5-.84.24-.39-.27-.59-1.11-.16-1.45.78-.61.47-1.42.36-1.53s-.06-.14-.6,0c-.2.06-.43-.27-.4-.78.18-.65-.27-.86.12-1.12s.87-.38,1.49-.37c.34,0,.45.3,1.01.39s.41.75.41.75Z"/>
    <path id="Tracciato_80" data-name="Tracciato 80" class="cls-7" d="m13.17,12.68c1.23.18,3.15.53,3.15.53,0,0,.58,0,.29.88-.06.23.51.51.24.91-.28.42-1.13.64-1.48.17-.62-.85-.98-.29-1.1-.17s0,.41.14.99c.06.22-.64.66-1.34.55-.61-.11-1.14-.48-1.46-1.01-.26-.42-.25-.8-.13-1.42.12-.62.3-.49.4-1.1.02-.15-.49-.99,0-.82s1.28.49,1.28.49Z"/>
    <path id="Tracciato_83" data-name="Tracciato 83" class="cls-7" d="m9.65,13.38c.58.09-.2,1.52-.3,1.63s.06,1.05-.57.95c-.63-.11-.92-.39-.92-.39,0,0,.47-.4.58-.96.07-.34.07-.7,0-1.04,0,0-.24-.93.2-.78s.43.5,1.01.59Z"/>
    <path id="Tracciato_84" data-name="Tracciato 84" class="cls-7" d="m7.09,11.41c.5.3-.75,1.33-.89,1.4s-1.01-.23-.69-.71c.19-.29.32-.62.39-.96,0,0,.13-.95.48-.65.35.31.21.62.72.93Z"/>
    <path id="Tracciato_82" data-name="Tracciato 82" class="cls-7" d="m22.75,18.05c-.33,1.16.4,2.12-.95,2.53-1.35.41-.87-.35-1.4-.43s-.58.34-.79-.04c-.22-.39.31-.76.19-1.5s.45-1.48.79-2.12c.35-.64-.1-1.56.54-1.57.63,0,.57.23,1,.53.43.3,1.03-.11,1.15.6.12.71-.21.83-.53,2Z"/>
    <path id="Tracciato_81" data-name="Tracciato 81" class="cls-7" d="m12.6,18.64c-.36-.58.1-.81.69-.98s.83.28,1.42.06c.59-.22.85-.83.85-.83,0,0,.22-.38,1.03.32.22.17.72-.04,1.05.37.34.43.26,1.12-.36,1.07-1.12-.09-.67.48-.58.62s.43.24,1.09.48c.25.09.46.81.09,1.2s-1.06.45-1.59.37-.93-.3-1.54-.74-.83-.38-1-.9c-.18-.52-.78-.47-1.14-1.05Z"/>
    <path id="Tracciato_85" data-name="Tracciato 85" class="cls-1" d="m6.49,11.48c.12.09.11.3.02.41s-.23.2-.35.11-.09-.31,0-.43.21-.19.33-.1Z"/>
    <path id="Tracciato_86" data-name="Tracciato 86" d="m6.29,11.65c.05.06.06.14,0,.2-.05.06-.12.1-.17.05s-.05-.15,0-.21.11-.09.17-.05Z"/>
  </g>
</svg>