<?xml version="1.0" encoding="UTF-8"?>
<svg id="Livello_2" data-name="Livello 2" xmlns="http://www.w3.org/2000/svg" viewBox="0 0 21.46 22.8">
  <defs>
    <style>
      .cls-1 {
        fill: #fff;
      }

      .cls-2 {
        fill: #b63a3e;
      }

      .cls-3 {
        fill: #d99998;
      }

      .cls-4 {
        fill: #bf5557;
      }

      .cls-5 {
        fill: #ca8d8d;
      }

      .cls-6 {
        fill: #c5686a;
      }

      .cls-7 {
        fill: #5c7a8c;
      }

      .cls-8 {
        fill: #83b7da;
      }

      .cls-9 {
        fill: #78a8c8;
      }
    </style>
  </defs>
  <g id="Complications">
    <g id="ic_Endocarditis">
      <g id="heart">
        <path class="cls-1" d="m4.31,14.54s-2.91-2.43-2.7-4,.37-1.96-.81-3.02-.9-1.94-.21-2.86c.45-.6.54-2.02,1.54-1.17.84.69,1.2.94,1.09.35s-1.1-1.46.66-2.15c1.77-.73,1.86-.79,2.38.38s1.12,1.26,1.03.36c-.12-1.16-.9-1.75.48-2.19s2.78-.46,2.22,1.58.41.82.41.82c0,0,1.05-1.46,1.77-.43.35.5.05.96,1.46,1.19.34.05.8.26,1.21-.39s1.34-.58,2.17-.18c.93.47,1.01,1.03,1.43,1.3.38.24.77-.05,1.58.68.81.81,1.01,1.89-.09,2.54-1.17.89-1.31,1.05-1.31,1.05,0,0,.22.7.41,1.12s.47.61,1.32,1.71,1.1,2.93,1.1,3.97c0,1.54-1.34,7.18-4.45,7.5-2.67.21-4.15.23-6.2-.93-3.29-1.85-5.68-4.73-6.5-7.23Z"/>
        <path class="cls-7" d="m15.85,6.47c.52-.77,1.32-1.74,1.58-2.06.05-.06.09-.15.09-.23-.04-.78-1.15-1.15-1.84-1.02-.52.1-1.42,1.77-1.88,2.97,0,0,.83.07,1.25.15s.8.18.8.18Z"/>
        <path class="cls-7" d="m18.07,8.08c.81-.62,1.68-1.4,1.96-1.66.06-.05.08-.14.07-.21-.24-1.25-1.09-1.35-1.45-1.33-.1,0-.19.03-.27.08-.98.52-1.52,1.19-1.82,1.74,0,0,.56.31.88.62s.64.76.64.76Z"/>
        <path class="cls-8" d="m4.15,13.05s-1.91-1.73-1.65-2.78c.26-1.05.64-1.41-1.45-3.59,0,0-.64-.63-.18-1.24s.45-1.12.72-1.32c.27-.21.53.56,1.64,1.14,1.11.59,1.34.03.79-1.41,0,0-.97-1.13-.18-1.46.79-.33,1.43-1.11,1.95.07s1.8,1.94,2.09.65c.3-1.29-.64-2.04-.1-2.29.54-.25,2.29-.71,1.6.87-.5,1.14-.07,2.08.13,2.43.05.09.02.19-.07.25-1.47.93-1.94,1.73-2.07,2.32-.04.19-.13.68-.48,1.2-.28.42-.57.62-.84.83-.21.17-1.46,1.19-1.86,2.52-.11.36-.22.98-.04,1.82Z"/>
        <path class="cls-3" d="m12.26,6.26c-.2-.05-.42-.07-.64-.07h0c-.18-.45,1.65-1.83,1.65-1.83.7-.61-.91-.49-1.2-.71-.29-.22-.26-.93-.6-.81s-.85,1.41-1.97,2.22c-1.11.81-1.55,1.87-1.55,1.87-.15,1.17-1.17,2.11-1.44,2.25-.27.15-.82.66-1.5,1.96-.68,1.3.4,3.2.4,3.2,1.74,4.61,6.77,7.64,9.61,7.1,1.34-.25,4.28-3.64,5.19-4.79.08-.28.1-.36.1-.36.33-1.16-.03-3.61-.73-4.72s-.99-1.18-1.16-1.68c-1.36-3.98-3.69-2.98-6.16-3.64Z"/>
        <path class="cls-5" d="m20.31,16.3s-.99,3.88-2.28,4.81c-1.12.9-3.49.65-4.73.54-1.96-.32-4.02-1.9-5.46-3.51-1.45-1.61-1.88-2.35-2.42-3.79,0,0-1.4-2.81.09-3.02s2.57,2.13,3.47,2.87c.82.99,2.01,1.91,3.9,1.83,1.89-.08,2.77-.85,4.63-.74,1.29.03,2.81,1.01,2.81,1.01Z"/>
        <path class="cls-9" d="m7.37,6.67c-.04.19-.13.68-.48,1.2-.28.42-.57.62-.84.83-.21.17-1.46,1.19-1.86,2.52-.11.36-.22.98-.04,1.82,0,0-1.91-1.73-1.65-2.78.26-1.05.85-1.63,2.32-2.19.65-.25,1.11-.69,1.44-1.28s1.24-.72,1.11-.13Z"/>
      </g>
      <g>
        <circle class="cls-6" cx="17.21" cy="10.76" r="3.69"/>
        <circle class="cls-4" cx="17.21" cy="10.76" r="2.69"/>
        <circle class="cls-2" cx="17.21" cy="10.76" r="1.67"/>
      </g>
    </g>
  </g>
</svg>