<svg xmlns="http://www.w3.org/2000/svg" xmlns:xlink="http://www.w3.org/1999/xlink" width="342.417" height="783.404" viewBox="0 0 342.417 783.404">
  <defs>
    <filter id="Ellisse_9" x="69.729" y="0" width="202.958" height="202.958" filterUnits="userSpaceOnUse">
      <feOffset dy="3" input="SourceAlpha"/>
      <feGaussianBlur stdDeviation="3" result="blur"/>
      <feFlood flood-opacity="0.161"/>
      <feComposite operator="in" in2="blur"/>
      <feComposite in="SourceGraphic"/>
    </filter>
    <filter id="Tracciato_15" x="0" y="209.382" width="342.417" height="574.022" filterUnits="userSpaceOnUse">
      <feOffset dy="3" input="SourceAlpha"/>
      <feGaussianBlur stdDeviation="3" result="blur-2"/>
      <feFlood flood-opacity="0.161"/>
      <feComposite operator="in" in2="blur-2"/>
      <feComposite in="SourceGraphic"/>
    </filter>
  </defs>
  <g id="man" transform="translate(9 6)">
    <g id="Raggruppa_10" data-name="Raggruppa 10" transform="translate(0)">
      <g transform="matrix(1, 0, 0, 1, -9, -6)" filter="url(#Ellisse_9)">
        <circle id="Ellisse_9-2" data-name="Ellisse 9" cx="92.479" cy="92.479" r="92.479" transform="translate(78.73 6)" fill="#fff"/>
      </g>
      <g transform="matrix(1, 0, 0, 1, -9, -6)" filter="url(#Tracciato_15)">
        <path id="Tracciato_15-2" data-name="Tracciato 15" d="M38.624,0H285.793a38.624,38.624,0,0,1,38.624,38.624v216.31a38.624,38.624,0,0,1-38.624,38.624H271.084V556.022H54.541V293.536H38.624A38.624,38.624,0,0,1,0,254.933V38.624A38.624,38.624,0,0,1,38.624,0Z" transform="translate(9 215.38)" fill="#fff"/>
      </g>
    </g>
  </g>
</svg>
