<?xml version="1.0" encoding="UTF-8"?>
<svg id="Symptoms" xmlns="http://www.w3.org/2000/svg" viewBox="0 0 32 32">
  <defs>
    <style>
      .cls-1 {
        fill: #fff;
      }

      .cls-2 {
        fill: #b53a3d;
      }

      .cls-3 {
        fill: #d99898;
      }

      .cls-4 {
        fill: #c46769;
      }

      .cls-5 {
        fill: #bf5456;
      }

      .cls-6 {
        fill: #c98d8d;
      }
    </style>
  </defs>
  <g id="ic_mastits">
    <path class="cls-1" d="m3.58,9.99c0,3.05,2.8,11.2,8.64,11.38,0,0-.04,4.41,1.26,5.48s2.54-.2,2.63-.46,0-1.01,0-1.01c0,0,.58.75,1.46.36s.97-2.37.97-2.37v-1.39s.42-.32.45.49.16,4.86,1.98,5.09,1.38-1.6,1.38-1.6c0,0,.56,1.26,1.31.9s1.17-1.63,1.23-2.41.19-3.32.19-3.32c0,0,1.03-1.04,2.3-1.36s5.01-3.13,2.9-10.62c-.42-1.26-9.02-4.7-16.8-3.73-2.98,1.62-9.9,4.3-9.9,4.59Z"/>
    <path class="cls-3" d="m5.18,10.68s6.5-2.77,8.59-4.13c0,0,8.42-.93,15.43,3.01,1.1,6.49-.57,8.47-3.02,9.58-.62.28-1.86,1.49-2.55,1.64s-1.65-.15-1.86-.13c0,0,.45,5.8-.28,6.16s-1.6-1.59-1.64-3.15-.08-2.97-.08-2.97c0,0-2.62.41-4.38.09,0,0,.15,4.57.02,4.93s-.89,1.08-1.58-.09-.48-4.99-.48-4.99c-5.18-.16-6.93-2.53-8.19-9.95Z"/>
    <path class="cls-3" d="m22.48,20.65s.35.08.81.08c.33,0,.77-.14.91-.25.32-.24-.16,4.64-.16,4.64,0,0-1.17,1.7-1.51-1.02s-.05-3.45-.05-3.45Z"/>
    <path class="cls-3" d="m15.94,20.72s.16,2.88.25,3.28,1.17,1.7,1.51-1.02c.13-1.02.17-2.29.17-2.29,0,0-.48.05-.96.06s-.96-.03-.96-.03Z"/>
    <path class="cls-6" d="m5.18,10.68s6.5-2.77,8.59-4.13c0,0,8.42-.93,15.43,3.01.35,3.01-4.63,4.53-7.34,4.22s-4.61-2.56-7.02-3.24-5.34,1.09-6.39,1.13-3.08.15-3.28-.99Z"/>
    <circle class="cls-4" cx="6.9" cy="16.46" r="5.79"/>
    <circle class="cls-5" cx="6.9" cy="16.46" r="4.21"/>
    <circle class="cls-2" cx="6.9" cy="16.46" r="2.61"/>
  </g>
</svg>