<?xml version="1.0" encoding="UTF-8"?>
<svg id="Where_is_found" data-name="Where is found" xmlns="http://www.w3.org/2000/svg" viewBox="0 0 32 32">
  <defs>
    <style>
      .cls-1 {
        fill: #fff;
      }

      .cls-2 {
        fill: #303031;
      }

      .cls-3 {
        fill: #d99998;
      }

      .cls-4 {
        fill: #9c6040;
      }
    </style>
  </defs>
  <g id="ic_Oozing_skin_lesions_fistulous_withers" data-name="ic_Oozing skin lesions “fistulous withers">
    <g>
      <path class="cls-1" d="m11.92,9.84c-.14-.01-.35.01-.57.06.18-.04.38-.09.56-.12.01.03.01.05.01.05Z"/>
      <path class="cls-1" d="m11.24,22.71C3.1,19.16,2.39,14.76,2.51,12.71c-.09-.04-.14-.12-.16-.23-.27-1.42,1.1-4.4,1.1-4.4,2.35,1.27,3.26.92,5.74.73,2.18-.17,2.63.74,2.72.98-.18.03-.38.08-.56.12.23-.05.43-.08.57-.06,0,0,0-.02-.01-.05,3.84-.74,6.57,1.48,9.19,3.44,2.74,2.05,7.29,3.78,8.11,3.76,4.28-.08-5.43,11.36-17.97,5.73Z"/>
      <path class="cls-1" d="m11.92,9.84c-.14-.01-.35.01-.57.06.18-.04.38-.09.56-.12.01.03.01.05.01.05Z"/>
    </g>
    <path class="cls-4" d="m27.83,17.41c-.76.01-4.98-1.59-7.52-3.51s-5.2-4.08-9.03-3.09c-3.84.99-7.58.8-7.58.8,0,0-2.63,5.53,8.08,10.22,10.71,4.7,20.02-4.51,16.05-4.43Z"/>
    <path class="cls-2" d="m3.95,9.12s-.93,2.25-.68,3.57,7.08-2.04,8.53-1.93c0,0-.22-1.14-2.53-.96s-3.14.5-5.32-.68Z"/>
  </g>
  <path class="cls-3" d="m16.92,11.85c-1.43-.81-3.09-1.33-4.84-.92s-.5,2.16,1.45,2.44,4-1.17,3.39-1.52Z"/>
</svg>