<?xml version="1.0" encoding="UTF-8"?>
<svg id="Where_is_found" data-name="Where is found" xmlns="http://www.w3.org/2000/svg" viewBox="0 0 32 32">
  <defs>
    <style>
      .cls-1 {
        fill: #ebbba9;
      }

      .cls-2 {
        fill: #fbd7c9;
      }

      .cls-3 {
        fill: #b5b5b5;
      }

      .cls-4 {
        fill: #d9a491;
      }

      .cls-5 {
        fill: #404040;
      }
    </style>
  </defs>
  <g id="ic_swine">
    <g>
      <path class="cls-2" d="m31.56,9.04s-.09-.2-.19-1.19c-.1-.99-.3-1.12-.55-1.09-.25.03-.27.31-.27.31-1.22.49-2.61-.21-2.61-.21,0,0-.43-.42-.66-.45-.23-.03-.61-.23-.8-.53-.45-.75-1.76-.83-1.76-.83-.44-.7-1.36-.8-1.36-.67,0,.14.02.2,0,.39-.02.19-.1.44-.1.44-.76-.29-.97-.14-1.22-.21-.26-.07.2,1.19.2,1.19-1.22,1.02-3.73,2.57-4.93,2.59-1.2.02-2.48.5-3.67.7-1.2.2-2.22-.06-2.22-.06,0,0-1.25-.47-2.13-.58-3.48-.46-5.42,1.78-5.42,1.78l-.42.36s-.43.21-.77.23-.65-.05-.65-.05l-.5-.19c.39.89,1.53.88,1.53.88-1.44,3.01-.12,4.08.08,4.89.21.8.01,1.34.01,1.34,0,0-.42,1.16-1,1.64-.58.47-.34.97-.34.97l.5,2.74s.12.88-.01,1.1c-.13.22.01.34.01.34,0,0-.08.36,0,.47.13.32.66.63.66.63.04.23.34.58.6.74.26.15,1.11.18,1.58.11.47-.07.15-.34.15-.34l-.61-.79c.25.04-.01-.31-.01-.31,0,0-.11.05-.44-1.53-.33-1.58.27-2.26.27-2.26,0,.07.93-.57,1.48-1.33.55-.76.83-1.28.83-1.28,0,0,.5.6.85.87.35.27.49.45,2.43.95,2.36.63,4.48.15,5.38-.37s1.59-.64,1.59-.64c0,0,.99-.23,1.47-.59.51.71.78,1.54.78,1.54.45,1.92,1.64,3.24,1.64,3.24.12,1.25.66,1.67.67,1.55.01-.12.15-.34.15-.34,0,0-.05.54.86.94.91.41,1.65-.1,1.68-.22s-.64-.71-.64-.71c.01-.18-.03-.24-.18-.37-.83-.7-1.15-1.78-1.19-2.27-.03-.49-.08-1.83-.08-1.83,0,0-.26-1.79.76-2.57,1.02-.78,1.81-2.3,1.81-2.3,0,0,.9-.21,1.34-1.01.44-.8.66-.82,1.54-1.32.88-.49,1.84-1.57,2.46-2.58.61-1.01,1.19-1.64,1.19-1.64.32,0,.2-.27.2-.27Z"/>
      <path class="cls-3" d="m14.05,26.56s-.02.17-.05.3-.16.25-.16.25"/>
      <path class="cls-1" d="m26.26,6.76s.09.48.05.65c0,0,.26,0,.37.12s-.17.22-.21.21-.23.61-.9.3c-.11-.05,0-.2,0-.2,0,0,.49-.53.54-.89s.15-.19.15-.19Z"/>
      <path class="cls-4" d="m26.48,7.77s.18-.01.23-.14c0-.03.2.18.2.18,0,0-.12-.04-.2-.04s-.2.09-.27.07c-.03,0,.01-.07.03-.07Z"/>
      <path class="cls-1" d="m30.55,7.12s0-.32.24-.35c.23-.05.38.09.46.39.09.32.17,1.11.17,1.11,0,0,.08.62.14.77s-.03.22-.03.22c0,0-.08.06-.16.06s-.15-.02-.16-.03-.12.1-.41-.85c-.17-.49-.24-1.32-.24-1.32Z"/>
      <path class="cls-1" d="m22.41,6.08s-.11-.34-.2-.57c-.05-.12-.05-.12-.09-.25s0-.09.09-.09.23-.07,1.05.15c.27.04.58,0,.86.11.83.34.95,1.31.7,1.97s-.39.79-.39.79c0,0,.16.66-.22.73s-1.41-.03-1.63-1.2,0-1.22-.16-1.65Z"/>
      <path class="cls-1" d="m23.54,4.47c-.06,0,0,.16-.02.34-.01.14-.02.29-.06.37,0,0,.55-.18,1.07-.15,0,0-.33-.46-.99-.56Z"/>
      <path class="cls-5" d="m26.28,7.15s-.11.35.02.47c.03.03.14-.18.13-.22s-.09-.11-.09-.17-.02-.13-.06-.09Z"/>
      <path class="cls-4" d="m28.17,10.24s2.77-1.08,2.91-1.05c0,0,.02.12.27.12,0,0-.15.2-.32.19-.05,0-.32-.02-.66.09-.74.26-2.01.62-2.22.64Z"/>
      <path class="cls-2" d="m19.22,20.97c.03.21-.55.71-.58,1.3,0,0-.24,1.32.12,2.17.13.32.22.57.1.64,0,0,.5.54.48.64s-1.08.47-1.57.16-.51-.92-.51-.92l-.11.3-.09.25s-.27-.24-.45-1.16c0,0-.1-.61.16-1.4,0,0-.01-2.87.2-2.94,1-.15,1.56-.52,1.56-.52,0,0,.55.86.68,1.46Z"/>
      <path class="cls-2" d="m7.75,20.09s-.06.65-.23,1.18.05.92.05.92c0,0,1.03,1.47,1.51,1.79s.38.6.38.6l1.19.88s.49.31.02.44-1.51.15-1.51.15c0,0-.34.09-.7-.3s-.54-.58-.54-.58c0,0,.1.35.07.43s-.41.23-.85-.69-.81-1-.81-1c0,0-.55-.61-.66-.87s-.63-.63-.63-.63c0,0-.4-.46-.43-.72,0,0,.56-.22,1.23-.94.35-.4,1.06-1.43,1.06-1.43,0,0,.17.25.4.42s.44.34.44.34Z"/>
      <path class="cls-2" d="m2,10.42s-.08-1.07.72-.89.38.96.38.96c0,0-.55.85-1.66-.49-.39-.49-.47-.49-.63-.43s-.21.39.37,1,1.26.66,1.95.44.69-1.08.69-1.08c0,0-.03-1.12-1.18-.97s-1.07,1.01-1.07,1.01l.44.47Z"/>
      <path class="cls-1" d="m6.92,18.82s.65-.15.9-.49.24-.43.67-1c0,0,1.58,2.05,4.06,2.24s4.55-.17,5.39-1.19c.67-1,.69-1.19.69-1.19,0,0-.24,1.53-.11,1.83.06.14-.38.35-.89.5-.57.17-1.23.29-1.56.49-1.14.6-3.39,1.77-7.54.2-.69-.24-1.61-1.37-1.61-1.37Z"/>
      <path class="cls-1" d="m3.08,25.89s-.52-.29-.67-.61c-.05-.11-.02-.38-.02-.38,0,0,.52.04.62,0,0,0,.08.38.29.46s.6.27,1.3.32l.68.88s.1.13-.34.15-.74.07-1.16-.11c-.28-.12-.57-.38-.71-.71Z"/>
      <path class="cls-1" d="m8.58,25.67s.23.25.62.25.93-.09,1.18-.14.27-.16.17-.25-1.1-.85-1.18-.87-.41-.06-.75.04-.7.23-.7.23l.65.74Z"/>
      <path class="cls-1" d="m7.79,24.94s.14.58.06.58-.25-.05-.41-.37-.27-.4-.17-.39.3-.09.52.18Z"/>
      <path class="cls-1" d="m16.73,24.29s.12-.09.14-.12.06-.1.11-.05.08.2.26.36c.03.03.15.23-.02.41-.1.1-.17.44-.17.44,0,0-.37-.69-.31-1.03Z"/>
      <path class="cls-1" d="m17.37,24.68s0,.18.02.33c.02.13.08.28.1.35.05.15.19.44.6.52s1.18-.14,1.12-.23c-.09-.14-.37-.43-.4-.54,0,0-.13.1-.45.1s-.98-.53-.98-.53Z"/>
      <path class="cls-1" d="m21.17,24.2s.55.51.58.83c0,0-.16.18-.16.25s-.07-.04-.07-.04c0,0-.25-.46-.35-1.05Z"/>
      <path class="cls-1" d="m23.57,25.24s-.77.22-1.43-.12c-.23-.11-.15.1-.15.1,0,0,.09.5.61.68s.57.16.76.16.52-.04.66-.18c.1-.08,0-.16,0-.16l-.46-.48Z"/>
    </g>
  </g>
</svg>