<?xml version="1.0" encoding="UTF-8"?>
<svg id="Who_is_at_risk" data-name="Who is at risk" xmlns="http://www.w3.org/2000/svg" viewBox="0 0 32 32">
  <defs>
    <style>
      .cls-1 {
        fill: #eae4d8;
      }

      .cls-2 {
        fill: #996753;
      }

      .cls-3 {
        fill: #7d5444;
      }

      .cls-4 {
        fill: #33302f;
      }

      .cls-5 {
        fill: #8f6455;
      }

      .cls-6 {
        fill: #c7b9ab;
      }

      .cls-7 {
        fill: #dcd0c2;
      }

      .cls-8 {
        fill: #161211;
      }

      .cls-9 {
        fill: #442b25;
      }

      .cls-10 {
        fill: #725044;
      }

      .cls-11 {
        fill: #634136;
      }

      .cls-12 {
        fill: #5b5452;
      }

      .cls-13 {
        fill: #2d0c00;
      }

      .cls-14 {
        fill: #775043;
      }

      .cls-15 {
        fill: #525252;
      }
    </style>
  </defs>
  <g id="ic_sheep_goat">
    <g>
      <path class="cls-10" d="m16.57,2.11c-4.08-2.67-5.42,2.05-5.42,2.05,2.3-3.72,4.86-1.24,4.86-1.24.16-.31.35-.58.57-.81Z"/>
      <path class="cls-5" d="m15.81,3.9s-3.84-1.08-4.69,3.76c0,0-.94-5.76,4.91-4.66-.15.28-.21.58-.22.91Z"/>
      <path class="cls-14" d="m15.33,16.83s1.57-.69,1.84-1.32c0,0-.1,1.56-.24,1.82,0,0,0,1.87-.12,2.14-.14,1.6-.03,1.73-.03,1.73,0,0,.19.7.69,1.22s.63.86.46.94-.75.29-1.26.15-.46-.82-.46-.82l-.27-.53s-.07-1.6.02-2.3-.6-1.53-.62-3.04Z"/>
      <path class="cls-14" d="m5.84,17.24s.81-.07,1.63.27c0,0-.41.63-.77.92,0,0,.02,1.34.06,1.44s.32,1,.3,1.29.86,1.25.86,1.25c0,0,.66.62.48.88s-1.21.24-1.26.23-.33-.49-.23-.63c0,0-.5-.32-.63-.54s-.25-1.52-.19-1.74-.95-1.58-.82-2.1.28-1.03.57-1.27Z"/>
      <path class="cls-2" d="m16.03,2.99c.17-.32.36-.6.56-.81,0,0,.34-.51.88-.42,0,0-.28.08-.42.26,0,0,.38-.33.96-.26,0,0-.36.07-.47.21,0,0,.66-.42,1,.08,0,0-.05-.05-.18-.01,0,0,.36.05.36.42s2.02.7,2.02.7c0,0,1.07.05,1.3,1.15-.11.52-.69.76-.69.76,0,0-1.35,1.5-.73,3.01,0,0-.48-.21-.55-.88,0,0,.03.41.17.63,0,0-.61-.18-.53-.76,0,0-.07.29.04.54s-.61-.11-.5-1.14c.06-.56-.17.38-.03.7s-.54-.22-.47-1.44c0,0-.26-.08-.42.1,0,0-.54.73-.16,3.23s.55,4.22-1.03,6.21c-1.18,1.49-2.95,1.9-3.75,2.02-.24.03-.43.24-.42.49l.04,1.41s.11.53-.32,1.09c0,0-.28,1.71-.13,2.59.01.07.04.13.09.19.16.22.55.8.45,1.03-.13.3-.96.14-.96.14,0,0-.74-.08-.79-.51s.13-.85.13-.85c0,0,.29-3.24.25-3.6-.04-.29-.38-.82-.45-1.45-.03-.24-.22-.42-.46-.42-.8-.02-2.54-.08-4.11-.3-.29-.04-.62,0-.9.06-.37.08-.54.64-.74.96-.27.43-.5.63-1.02,1.14-.25.25-.47.61-.76.81s-.51.4-.74,1.2c-.29,1-.36,1.23-.31,1.42.01.04.03.07.05.11l.43.72s.53,1.09-.5.96-1.09-1.02-.83-2.05c.2-.78.12-.57.27-1.25.12-.53.1-.76.18-1.32,0-.06.21-.36.25-.41.22-.29,1-1.31,1.07-1.84.05-.37-.13-1.37-.29-2.11-.13-.64-.09-1.29.11-1.91,0,0,0-.01,0-.02.08-.23-.03-.48-.25-.58-.4-.18-.95-.61-1.06-1.62,0,0,.41.38,1.24.34.52-.02.85-.08,1.02-.13.09-.02.17-.07.23-.14.35-.39,1.75-1.85,3.35-1.76,1.85.1,3.36.34,3.36.34,0,0,2.33.38,2.92-1.68s1.16-3.02,1.16-3.02c0,0,0-.94.89-1.28v-.15c0-.33.06-.64.22-.91"/>
      <path class="cls-3" d="m5.62,17.25c.1-.15.33-.36.54-.64,0,0,.43-.57.43-.85,0,0,.11.53.49.83s2.17.44,2.17.44c.15.02.31.04.46.05.14,0,.28.01.42,0s.28-.01.41-.08c.03-.01.06-.03.08-.05.08-.06.17-.11.23-.2.06-.1.1-.21.14-.32.02-.05.03-.11.05-.16.03-.07.06-.14.1-.2s.08-.12.14-.16c0,0-.15.26-.2.51-.02.1-.03.19-.06.29s-.06.19-.07.29c0,.11.02.21.05.31.03.09.06.18.13.25-.04-.05-.1-.09-.16-.12-.08-.04-.18-.03-.27-.03-.06,0-.13-.01-.2,0-.04,0-.08,0-.11,0-.09,0-.15,0-.23,0-.1,0-.12,0-.21,0-.04,0-.08,0-.12,0-.05,0-.1,0-.15,0-.02,0-.07,0-.09,0-.09,0-.18-.01-.26-.02-.09,0-.17,0-.26-.01-.14,0-.24-.02-.38-.03-.08,0-.18-.01-.27-.02s-.2-.02-.29-.02-.19-.02-.28-.03c-.13-.01-.27-.03-.4-.04-.08,0-.12-.01-.2-.02-.06,0-.1-.01-.15-.02-.05,0-.06,0-.11-.01-.02,0-.1-.01-.12-.02-.03,0-.06-.01-.09-.01-.05,0-.08-.02-.15-.02-.04,0-.1,0-.15,0-.09,0-.31.02-.4.03-.05,0-.21,0-.34.07l-.12.06Z"/>
      <path class="cls-2" d="m21.34,5.07s-1.35,1.5-.73,3.01c0,0-.48-.21-.55-.88,0,0,.03.41.17.63,0,0-.61-.18-.53-.76,0,0-.07.29.04.54s-.61-.11-.5-1.14c.06-.56-.17.38-.03.7s-.54-.22-.47-1.44c0,0-.26-.08-.42.1-.12.27-3.33.23-3.4-.51,0,0,0-.94.89-1.28v-.15c0-.33.06-.64.22-.91"/>
      <path class="cls-2" d="m16.03,2.99c.17-.32.36-.6.56-.81,0,0,.34-.51.88-.42,0,0-.28.08-.42.26,0,0,.38-.33.96-.26,0,0-.36.07-.47.21,0,0,.66-.42,1,.08,0,0-.05-.05-.18-.01,0,0,.36.05.36.42s2.02.7,2.02.7"/>
      <path class="cls-2" d="m21.34,5.07s-1.35,1.5-.73,3.01c0,0-.48-.21-.55-.88,0,0,.03.41.17.63,0,0-.61-.18-.53-.76,0,0-.07.29.04.54s-.61-.11-.5-1.14c.06-.56-.17.38-.03.7s-.54-.22-.47-1.44c0,0-.26-.08-.42.1-.12.27-3.33.23-3.4-.51,0,0,0-.94.89-1.28,0,0,1.16.86,2.5.98.52.04,0,0,1.19.18.33.05.56.09,1.26-.04"/>
      <path class="cls-4" d="m18.3,3.11c-.29-.21-.23-.15-.33-.21h0c0,.16-.17.29-.39.29-.2,0-.34-.14-.38-.27,0-.02.01-.07.03-.09.03-.03.06-.05.07-.06.03-.03.06-.04.07-.06.13-.09.26-.07.39-.01.04.03.09.04.12.07.07.04.06.06.14.11.09.07.25.16.28.24Z"/>
      <ellipse class="cls-9" cx="17.6" cy="2.91" rx=".24" ry=".18"/>
      <rect class="cls-8" x="17.45" y="2.87" width=".34" height=".09" rx=".04" ry=".04"/>
      <path class="cls-9" d="m20.96,4.85c.03.05.06.1.1.14.09.08.24.1.36.06s.22-.12.31-.22c.14-.14.26-.31.31-.5,0-.02.03-.11.02-.13-.01-.02-.06.04-.08.04-.27-.05-.55-.05-.83-.07-.14-.01-.27-.03-.41-.06-.04,0-.05,0-.04.03,0,.03.02.07.02.1.02.06.04.13.06.19.05.14.11.28.18.42Z"/>
      <path class="cls-11" d="m21.49,3.43c-.17-.12-.29-.18-.34-.16-.06.02-.1.08-.13.14-.05.1-.1.19-.15.28-.05.1-.08.21-.14.31-.02.03-.04.08-.01.11.01.02.03.02.05.03.36.12.76.05,1.13.13.03,0,.05.01.08,0s.06-.02.07-.04c.02-.03,0-.06-.02-.09-.01-.04-.02-.08-.04-.12-.03-.08-.08-.16-.13-.23-.1-.14-.24-.27-.38-.37Z"/>
      <path class="cls-12" d="m1.24,23.42s.02.23.19.24.44.05.44.05l.33.06s.19.06.27.06.1.02.18.01.1,0,.1,0c.01,0,.02,0,.04,0,.03,0,.04.04.05.07.03.08.04.18.01.26-.02.06-.05.11-.08.15-.05.06-.11.12-.19.14s-.16.04-.25.03c-.1,0-.33-.03-.42-.05s-.35-.05-.43-.09-.16-.08-.19-.15-.06-.02-.06-.38c0-.34,0-.42,0-.42Z"/>
      <path class="cls-12" d="m6.91,23.11s.03.09.19.05.41-.07.41-.07l.31-.04s.18,0,.26-.03.09-.01.17-.04.09-.02.09-.02c0,0,.04-.01.07.03s.03.04.05.08.02.1,0,.12c-.01.03-.02.06-.05.1s-.07.07-.11.09-.15.07-.24.09-.31.06-.39.07-.33.05-.41.05-.14-.02-.17-.05-.03,0-.11-.23-.06-.21-.06-.21Z"/>
      <path class="cls-12" d="m11.34,23.6s.02.13.22.14.49.04.49.04l.37.05s.21.04.3.05.11.01.2,0,.11,0,.11,0c0,0,.05-.02.07.03s.03.04.03.08,0,.06-.02.14c-.03.07-.05.08-.1.11s-.1.05-.15.07-.19.03-.3.03-.37-.03-.47-.03-.39-.04-.48-.06-.18-.06-.21-.11-.03-.02-.06-.27,0-.26,0-.26Z"/>
      <path class="cls-12" d="m16.28,23.16s.05.12.23.09.46-.06.46-.06l.35-.03s.2,0,.29-.02.11-.01.19-.03.1-.02.1-.02c0,0,.05-.03.08.01.03.04.05.06.06.11,0,.03,0,.07,0,.1-.01.05-.05.1-.09.14-.11.09-.26.14-.4.16-.1.02-.35.05-.44.06s-.37.04-.46.03-.18-.02-.21-.06-.03,0-.11-.24-.05-.25-.05-.25Z"/>
      <path class="cls-3" d="m15.83,3.66c-.04.41.21.8.54,1.04.37.27.79.38,1.19.59.23.12.64.39.71.62-.04.06-1.25-.54-1.75-.87-.26-.17-.74-.67-.7-.98"/>
      <path class="cls-13" d="m21.68,3.93s-.04-.02-.06-.04-.02-.04,0-.06c0-.01.25.11.27.13.06.08-.17-.01-.2-.03Z"/>
    </g>
    <g>
      <path class="cls-15" d="m28.66,24.89s-.1.22.03.33c.96.81.32,1.9.32,1.9l.07,2.4s-.57.31-.57.44-.08.38-.16.52-1,.06-1.09.05.06-.14.06-.14h-.39s-.12-.05-.08-.24.97-.82,1.11-1.02,0-1.31-.06-1.58-.94-2.6-.94-2.6l1.7-.07Z"/>
      <path class="cls-1" d="m28.66,24.92s.66,0,.68-1.13-.54-1.39.15-3.04c.26-.46-.13-1.42-.13-1.42,0,0,.39.21.7-.15s.77-3.43-1.44-4.33-3.99-.79-7.58-.99-5.71.59-6.53,1.08-2.81,1.58-3.88,2.09-1.3,3.52-1.58,3.65-.28.44-.59,1.6-.52,1.96.8,1.86c0,0,.43,1.56.88,2.15s.53,1.29.53,1.29c0,0,.59.39.97,0l.32-.03s.28-.13.31-.33.33-2.15.64-2.32c0,0,.16-.27.84-.72.45-.41.45-.74.79-.74,0,0-.14.99.63,1.43l.04.24,1.13.76s.53.16,1-.15l1.58-.78s1.05-.44,1.62-1.91c0,0,1.6-.11,2.16.04,0,0,.37,1.02,1.43,1.47,0,0-.09.73.14.88l1.49-.03c0-.13.37-.34.41-.43,0,0,.55.04.78.04l1.7-.07Z"/>
      <path class="cls-15" d="m25.78,25.49c0,.65-.7,1.67-.94,2.03s-.23,1.08-.21,1.38-.28.28-.47.34-.13.59-.13.59c0,0-.47.38-.98.42s-.24-.13-.24-.13c-.36,0-.39-.1-.39-.1.15-.8,1.1-1.29,1.1-1.29,0,0,.94-2.9.78-3.19,0,0,0-.02,0-.02l1.46-.03Z"/>
      <path class="cls-15" d="m18.91,24.93c-.15.39-.17,1.57-.08,1.82s.03.74-.11,1.1c-.14.36-.06,1.02.18,1.39.24.37-.2.39-.3.38s-.19.06-.1.14c.09.08.14.49.07.64-.07.14-.94.33-1.03.3-.1-.03-.09-.23-.09-.23,0,0-.59.29-.5-.08.09-.37.51-.73.72-1.1.21-.37-.05-1.36-.05-1.36,0,0-.44-.46-.3-1.23s0-.98,0-.98l1.58-.78Z"/>
      <path class="cls-15" d="m16.35,26.06c.11.76-.1,1.18-.1,1.18,0,0-.3.57.07,1s.21.41.14.51-.04.24-.04.24c.17-.02.45.11.57.31s-.23.91-.3,1.02-.16-.04-.16-.04c0,.09-.37.37-.37.37-.38-.43-.47-1.8-.58-2.2s-.54-.88-.63-1.62c-.06-.5.18-1.17.27-1.53l1.13.76Z"/>
      <path class="cls-15" d="m10.58,23.73h-.47s-.14.16-.34.25-.4.13-.4.13c0,0,.26,1.32.69,1.89.39.51.6,1.03.64,1.27.01.08.05.25.05.25,0,0,.29.15.51.12.32-.05.35-.16.35-.16l.35-.02s.15-.07.21-.22c.14-.4.24-1.98.66-2.38,0,0-.35-.03-.54-.11-.25.13-.56.91-.56.91,0,0-.23.14-.34,0s.13-.57-.5-.9-.31-1.03-.31-1.03Z"/>
      <path class="cls-7" d="m10.8,23.63c.17-.4.22-1.24.55-1.22s.98,1.1.98,1.1c0,0,.32.48-.13,1.07-.4.52-.53.94-.53.94,0,0-.08.04-.11.05-.12.02-.1-.12-.1-.22,0-.18.07-.27-.26-.54-.13-.1-.31-.18-.4-.28s-.31-.39,0-.9Z"/>
      <path class="cls-6" d="m26.14,24.79s-.63-.63-.56-1.38c0,0,.08-.58-.28-.61-.63-.04-1.68-.14-2.43.2-.1.05.51,1.1,1.4,1.44,0,0-.08.59.08.85l1.33-.03s.03-.13.1-.18.14-.09.36-.3Z"/>
      <path class="cls-7" d="m20.58,22.8s-.34-1.41-1.03-1.68c0,0,1.33.37,2.33.32s.91-.72,2.02-.44c.06.9.61,1.12,1.52,1.7,0,0-1.51-.33-2.63.18-.49-.14-2.21-.09-2.21-.09Z"/>
      <path class="cls-6" d="m14.66,23.37s.37,0,.45-.06.39-.15.52.14.4.83.69,1.06.33.84.84,1.08c0,0-.42.24-.7.13s-1.08-.67-1.08-.67l-.05-.24s-.84-.48-.67-1.44Z"/>
      <path class="cls-1" d="m10.4,24.65s.17.28.2.34.12.31-.04.41-.35.05-.39,0-.14-.21-.04-.37.27-.38.27-.38Z"/>
      <path class="cls-15" d="m10.33,24.97s-.1.12-.09.2.09.12.09.12c0,0,.06-.15.07-.16s-.07-.16-.07-.16Z"/>
      <path class="cls-7" d="m13.16,19c.14.02,1.64,2.01,1.4,3.08,0,0,.21-.47-.07-1.38s-.88-1.62-1.06-1.74-.35-.07-.35-.06c.03.03.07.1.07.1Z"/>
      <path class="cls-7" d="m29.35,19.33c-.13-.05-1.09-2.36-.58-3.33,0,0-.32.4-.28,1.35s.44,1.79.58,1.95.32.16.32.14c-.02-.04-.04-.11-.04-.11Z"/>
      <path d="m11.61,27.46v-.4s-.02-.4-.02-.4c0,0,.03.2.05.4.01.16.02.33.01.38,0,.02-.04.02-.04.02Z"/>
    </g>
  </g>
</svg>