<?xml version="1.0" encoding="UTF-8"?>
<svg id="Livello_1" data-name="Livello 1" xmlns="http://www.w3.org/2000/svg" version="1.1" viewBox="0 0 830.2 1565.4">
  <defs>
    <style>
      .cls-1 {
        fill: #4a9684;
      }

      .cls-1, .cls-2, .cls-3 {
        stroke-width: 0px;
      }

      .cls-2 {
        fill: #5cbfa3;
      }

      .cls-3 {
        fill: #4da290;
      }
    </style>
  </defs>
  <path class="cls-3" d="M671.6,152c-32-30.8-65.4-48.6-98.3-57,0,0-.2,0-.3,0l-.2.5-3.6,18.4c33.4,10.2,66.3,29.9,91.9,62.7,58.5,75.1,45.4,166.5,45.4,166.5l-53.8,311.2-134,674.4c12.1-3,20.7-5.7,24.7-7,25.7-127.6,68.4-342.4,68.4-342.4l114.7-592.3s28.1-155.1-54.9-235Z"/>
  <g>
    <path class="cls-1" d="M327.5,1337.6c.1,0,.3,0,.4,0,3.4.7,6.9,1.2,10.3,1.8-4.4-1.6-7.7-3.9-9.9-5.8l-.8,3.9Z"/>
    <path class="cls-1" d="M671.9,338c-.1-3.4,5.1-9.5,16.9-13.5,8.4-2.9,15.5-1.2,18.8,0,.3-16.6-1-42.7-9-71.9-2.5,5.9-9.7,11.9-15.5,14.5-9.7,4.4-18.1,2.4-19.3-.8-1.2-3.1,1.8-10.6,11.6-18.2,9.5-7.4,19.5-6,20.1-5.9-6.7-20.7-17-42.5-32.6-63.1-6.5,1.4-16.6-3-22-7.7-8-6.9-9.8-15.4-7.5-17.8.8-.8,2.3-1.4,4.4-1.6-3.9-3.5-8-6.7-12.1-9.8-1.5,8.2-17.3,9.1-26.2,6.4-10.2-3.1-15.2-10.1-14.1-13.3,1.1-3.1,8-6.6,19.9-6.1-11.8-6.5-24.1-11.6-36.4-15.3l-1.4,7.1c7.7,2.5,11.8,7.4,11.8,7.4,2.8,8.7-6.5,11.9-15.7,12l-6,30.4c5.9-1.4,13.7-.5,18.9,1.5,9.9,3.8,14.4,11.2,13.1,14.3-1.4,3.1-8.8,6.2-21.1,4.6-6.1-.8-10.6-3.3-13.7-5.6l-13.5,68.2c.2,0,.4,0,.7.1,10.4,2.3,16,8.9,15.1,12.1-.9,3.2-7.6,7.3-19.7,7.7l-3.7,19c6.1-1.2,14.1-.3,19.4,1.7,10.5,4,15.3,11.9,13.9,15.1-1.5,3.3-9.3,6.6-22.4,4.9-6.1-.8-10.8-3.2-14-5.5l-5.3,26.9c3.7-6.5,17.8-8,26.2-6.1,11,2.4,16.9,9.4,16,12.9-.9,3.5-8.2,7.9-21.4,8.2-13.2.2-20.9-7.7-20.9-7.7-.4-1-.6-1.9-.7-2.8l-4.6,23.4c5.9-.8,12.9.2,17.8,2,10.5,4,15.3,11.9,13.9,15.1-1.5,3.3-9.3,6.6-22.4,4.9-5.3-.7-9.5-2.6-12.6-4.6l-4.7,23.6c5.4-4.5,16.9-5.4,24.2-3.8,11,2.4,16.9,9.4,16,12.9-.9,3.5-8.2,7.9-21.4,8.2-11.9.2-19.3-6.2-20.7-7.5l-3,15.2c6.2-1.3,14.2-.4,19.6,1.7,10.5,4,15.3,11.9,13.9,15.1-1.5,3.3-9.3,6.6-22.4,4.9-6.3-.8-11-3.3-14.2-5.7l-5.5,27.8c3-7.1,17.8-8.9,26.6-7,11,2.4,16.9,9.4,16,12.9-.9,3.5-8.2,7.9-21.4,8.2-13.2.2-20.9-7.7-20.9-7.7-.6-1.4-.8-2.6-.8-3.8l-4.6,23.4c6.2-1.4,14.5-.5,19.9,1.6,10.5,4,15.3,11.9,13.9,15.1-1.5,3.3-9.3,6.6-22.4,4.9-6.4-.9-11.2-3.4-14.5-5.9l-9.9,50.2c5.2-.2,10.9.7,15.1,2.3,10.5,4,15.3,11.9,13.9,15.1-1.5,3.3-9.3,6.6-22.4,4.9-4.1-.5-7.5-1.8-10.3-3.2l-4,20.3c6-2.8,15-3.2,21.2-1.9,11,2.4,16.9,9.4,16,12.9-.9,3.5-8.2,7.9-21.4,8.2-8.8.2-15.1-3.3-18.4-5.6l-4,20.4c5.3-.3,11.2.6,15.5,2.2,10.5,4,15.3,11.9,13.9,15.1s-9.3,6.6-22.4,4.9c-4.2-.6-7.8-1.9-10.6-3.4l-4.1,20.7c5.9-3,15.3-3.5,21.6-2.1,11,2.4,16.9,9.4,16,12.9-.9,3.5-8.2,7.9-21.4,8.2-9.1.2-15.6-3.5-18.7-5.9l-4.5,22.7c5.4-4.8,18.3-4.1,25.9-1.2,10.5,4,15.3,11.9,13.9,15.1-1.5,3.3-9.3,6.6-22.4,4.9-11.2-1.5-17.5-8.2-19.1-10.2l-11.8,59.9c4.6-5.8,18.8-5.3,26.9-2.2,10.5,4,15.3,11.9,13.9,15.1-1.5,3.3-9.3,6.6-22.4,4.9-13.1-1.7-19.5-10.7-19.5-10.7,0-.2,0-.4-.1-.5l-13,65.9c4.2-6.4,18.9-5.9,27.3-2.7,10.5,4,15.3,11.9,13.9,15.1-1.5,3.3-9.3,6.6-22.4,4.9-13.1-1.7-19.5-10.7-19.5-10.7-.1-.4-.2-.9-.2-1.3l-13.3,67.2c3.5-7.2,19-6.8,27.7-3.5,10.5,4,15.3,11.9,13.9,15.1-1.5,3.3-9.3,6.6-22.4,4.9-13.1-1.7-19.5-10.7-19.5-10.7-.2-.8-.3-1.5-.3-2.3l-12.3,62.1c3.9-6.8,19-6.3,27.5-3,10.5,4,15.3,11.9,13.9,15.1-1.5,3.3-9.3,6.6-22.4,4.9-13.1-1.7-19.5-10.7-19.5-10.7-.2-.6-.2-1.2-.3-1.8l-12.1,61.3c4.2-6.4,18.9-5.9,27.3-2.7,10.5,4,15.3,11.9,13.9,15.1-1.5,3.3-9.3,6.6-22.4,4.9-13.1-1.7-19.5-10.7-19.5-10.7-.1-.4-.2-.9-.2-1.3l-11.9,60.5c4.4-6.1,18.9-5.5,27.1-2.4,10.5,4,15.3,11.9,13.9,15.1-1.5,3.3-9.3,6.6-22.4,4.9-13.1-1.7-19.5-10.7-19.5-10.7,0-.3-.1-.6-.2-.9l-11.8,59.9c4.6-5.9,18.8-5.3,26.9-2.2,10.5,4,15.3,11.9,13.9,15.1-1.5,3.3-9.3,6.6-22.4,4.9-13.1-1.7-19.5-10.7-19.5-10.7,0-.2,0-.4-.1-.5l-10.9,55.4c6.3-2.5,16.2-1.6,22.5.8,10.5,4,15.3,11.9,13.9,15.1-1.5,3.3-9.3,6.6-22.4,4.9-8-1.1-13.5-4.8-16.6-7.6l-10.7,54.4c6.3-2.3,16-1.4,22.1,1,10.5,4,15.3,11.9,13.9,15.1-1.1,2.5-6.1,5.1-14.4,5.3,10.3,1.2,20.5,2,30.5,2.3-2.9-2.7-4.3-4.9-4.3-4.9-2.2-13.3,18.5-11.9,28.7-7,6.8,3.2,10.9,8,12.4,11.7,31.3-1.5,59.5-6.1,81.2-10.8-3.3-1.5-6.5-3.4-8.8-5.4-8-6.9-9.8-15.4-7.5-17.8s10.4-2.9,21.4,2.8c7.7,4,11.4,10.1,13,13.4l6.6-33.2c-4.3,4.7-13,8.1-19.3,8.7-10.6,1-17.9-3.6-18.1-7-.1-3.4,5.1-9.5,16.9-13.5s21,.9,21,.9c.6.7,1,1.3,1.3,1.9l3.2-16.3c-5.6,4.8-18.9-.5-25.4-6-8-6.9-9.8-15.4-7.5-17.8s10.4-2.9,21.4,2.8c7.7,4,11.4,10,12.9,13.3l6.6-33c-4.3,4.7-13,8-19.3,8.6-10.6,1-17.9-3.6-18.1-7-.1-3.4,5.1-9.5,16.9-13.5s21,.9,21,.9c.5.6.9,1.2,1.3,1.9l3.2-16.1c-5.6,4.7-18.8-.5-25.3-6.1-8-6.9-9.8-15.4-7.5-17.8,2.3-2.4,10.4-2.9,21.4,2.8,7.6,3.9,11.3,9.9,12.9,13.2l6.5-32.9c-4.4,4.6-13,7.9-19.2,8.5-10.6,1-17.9-3.6-18.1-7-.1-3.4,5.1-9.5,16.9-13.5,11.8-4,21,.9,21,.9.5.6.9,1.2,1.2,1.8l3.2-16c-5.7,4.6-18.8-.6-25.2-6.2-8-6.9-9.8-15.4-7.5-17.8,2.3-2.4,10.4-2.9,21.4,2.8,7.5,3.9,11.3,9.8,12.9,13.1l6.5-32.7c-4.4,4.6-12.9,7.9-19.1,8.5-10.6,1-17.9-3.6-18.1-7-.1-3.4,5.1-9.5,16.9-13.5s21,.9,21,.9c.5.6.9,1.1,1.2,1.7l3.2-15.9c-5.7,4.5-18.7-.7-25.2-6.2-8-6.9-9.8-15.4-7.5-17.8s10.4-2.9,21.4,2.8c7.5,3.9,11.2,9.7,12.8,13.1l6.5-32.6c-4.4,4.5-12.9,7.8-19.1,8.4-10.6,1-17.9-3.6-18.1-7-.1-3.4,5.1-9.5,16.9-13.5,11.8-4,21,.9,21,.9.5.5.8,1.1,1.1,1.6l3.1-15.8c-5.7,4.4-18.7-.8-25.1-6.3-8-6.9-9.8-15.4-7.5-17.8s10.4-2.9,21.4,2.8c7.4,3.8,11.1,9.6,12.8,13l6.4-32.4c-4.4,4.5-12.9,7.7-19,8.3-10.6,1-17.9-3.6-18.1-7-.1-3.4,5.1-9.5,16.9-13.5,11.8-4,21,.9,21,.9.4.5.8,1,1.1,1.6l4.3-21.7c-5.5,5.1-19-.3-25.5-5.9-8-6.9-9.8-15.4-7.5-17.8s10.4-2.9,21.4,2.8c7.8,4,11.5,10.3,13,13.5l6.6-33.4c-4.3,4.8-13.1,8.2-19.5,8.8-10.6,1-17.9-3.6-18.1-7-.1-3.4,5.1-9.5,16.9-13.5,11.8-4,21,.9,21,.9.6.7,1,1.4,1.4,2.1l4.5-22.8c-5.1,5.9-19.2.4-26-5.4-8-6.9-9.8-15.4-7.5-17.8,2.3-2.4,10.4-2.9,21.4,2.8,8.3,4.3,12,11,13.3,14.1l6.9-34.6c-4,5.1-13.3,8.8-19.9,9.4-10.6,1-17.9-3.6-18.1-7-.1-3.4,5.1-9.5,16.9-13.5,11.8-4,21,.9,21,.9.7.9,1.3,1.8,1.6,2.6l3.8-18.9c-5.3,5.5-19.1,0-25.8-5.7-8-6.9-9.8-15.4-7.5-17.8s10.4-2.9,21.4,2.8c8.1,4.2,11.8,10.6,13.2,13.8l6.8-34c-4.2,4.9-13.2,8.5-19.7,9.1-10.6,1-17.9-3.6-18.1-7-.1-3.4,5.1-9.5,16.9-13.5s21,.9,21,.9c.7.8,1.1,1.6,1.5,2.3l17.5-88,19.3-111.8c-3,6-13.7,10.5-21.1,11.2-10.6,1-17.9-3.6-18.1-7-.1-3.4,5.1-9.5,16.9-13.5,11.8-4,21,.9,21,.9,1.2,1.4,1.8,2.8,2,4.1l4.2-24.4c-5.2,5.7-19.2.2-25.9-5.5-8-6.9-9.8-15.4-7.5-17.8s10.4-2.9,21.4,2.8c8,4.1,11.7,10.5,13.1,13.7l5.6-32.7c-4.5,4.3-12.6,7.3-18.5,7.9-10.6,1-17.9-3.6-18.1-7-.1-3.4,5.1-9.5,16.9-13.5,11.8-4,21,.9,21,.9.2.3.4.5.6.8l2.5-14.7c-6.1,3.4-18.2-1.6-24.3-6.8-8-6.9-9.8-15.4-7.5-17.8s10.4-2.9,21.4,2.8c6.5,3.4,10.2,8.2,12.1,11.6l4.6-26.4c-4.7,3.6-11.7,6-17,6.5-10.6,1-17.9-3.6-18.1-7-.1-3.4,5.1-9.5,16.9-13.5,10.1-3.4,18.3-.3,20.4.6l3.7-21.2c-5.9,3.9-18.5-1.2-24.7-6.5-8-6.9-9.8-15.4-7.5-17.8,2.3-2.4,10.4-2.9,21.4,2.8,6.9,3.5,10.5,8.7,12.4,12.2l4.4-25.2s.2-1.6.5-4.7c-4.7,3.6-11.7,6.1-17,6.6-10.6,1-17.9-3.6-18.1-7ZM649.7,213.2c-3.9-4.1-5.3-8-5.3-8,.4-12.7,19.3-7.6,27.8-1.3,7.6,5.6,10.3,12.8,9.3,16.2,0,.4.1.7,0,1.1-.5,3.3-6.8,8.4-19.1,10.2-12.3,1.8-20.5-4.7-20.5-4.7-3.6-6.3,1-10.8,7.7-13.4ZM653.7,267.8c4.2,12-15.3,14.1-25.5,11.2-10.2-2.8-15.4-9.8-14.4-13,1.1-3.2,8.2-7,20.6-6.6,12.4.5,19.3,8.3,19.3,8.3ZM601.2,334.3c11,2.4,16.9,9.4,16,12.9-.9,3.5-8.2,7.9-21.4,8.2-13.2.2-20.9-7.7-20.9-7.7-5.1-12.5,15.4-15.8,26.4-13.4ZM603.7,305.6c10.2,4.8,14.3,13,12.6,16.2-1.7,3.1-9.8,5.8-22.7,3.1-12.9-2.8-18.6-12.2-18.6-12.2-2.2-13.3,18.5-11.9,28.7-7ZM624.3,182.9c9.6,4.6,13.5,12.3,11.9,15.2-1.6,3-9.3,5.5-21.4,2.9-12.2-2.6-17.5-11.5-17.5-11.5-2.1-12.5,17.5-11.2,27.1-6.6ZM622,209.9c10.4,2.3,16,8.9,15.1,12.1-.9,3.3-7.8,7.5-20.2,7.7-12.4.2-19.7-7.2-19.7-7.2-4.8-11.8,14.5-14.9,24.9-12.6ZM550.4,217.9c-4.8-11.8,14.5-14.9,24.9-12.6,10.4,2.3,16,8.9,15.1,12.1s-7.8,7.5-20.2,7.7-19.7-7.2-19.7-7.2ZM566.9,271.9c-3.2-7.7,4-11.7,12.3-12.9-8.7-2.9-13-9-13-9-3-12.4,16.6-12.4,26.5-8.6,9.9,3.9,14.4,11.3,13,14.3-.9,2-4.3,3.9-9.9,4.7,7.7,2.9,11.8,8.2,11,11-.9,3.3-7.8,7.5-20.2,7.7-12.4.2-19.7-7.2-19.7-7.2ZM588.1,376.8c10.2,4.8,14.3,13,12.6,16.2-1.7,3.1-9.8,5.8-22.7,3.1-12.9-2.8-18.6-12.2-18.6-12.2-2.2-13.3,18.5-11.9,28.7-7ZM585.6,405.4c11,2.4,16.9,9.4,16,12.9-.9,3.5-8.2,7.9-21.4,8.2-13.2.2-20.9-7.7-20.9-7.7-5.1-12.5,15.4-15.8,26.4-13.4ZM624.1,552.8c-.5,3.5-7.2,8.9-20.3,10.8-13.1,1.9-21.7-5-21.7-5-3.8-6.7,1.1-11.5,8.1-14.2-4.1-4.3-5.6-8.5-5.6-8.5.4-13.5,20.5-8.1,29.5-1.4,8,6,10.9,13.6,9.9,17.1,0,.4.1.8,0,1.1ZM576.9,442.4c10.2,4.8,14.3,13,12.6,16.2-1.7,3.1-9.8,5.8-22.7,3.1-12.9-2.8-18.6-12.2-18.6-12.2-2.2-13.3,18.5-11.9,28.7-7ZM574.5,471.1c11,2.4,16.9,9.4,16,12.9-.9,3.5-8.2,7.9-21.4,8.2-13.2.2-20.9-7.7-20.9-7.7-5.1-12.5,15.4-15.8,26.4-13.4ZM563.4,512.2c10.2,4.8,14.3,13,12.6,16.2-1.7,3.1-9.8,5.8-22.7,3.1-12.9-2.8-18.6-12.2-18.6-12.2-2.2-13.3,18.5-11.9,28.7-7ZM560.9,540.9c11,2.4,16.9,9.4,16,12.9-.9,3.5-8.2,7.9-21.4,8.2-13.2.2-20.9-7.7-20.9-7.7-5.1-12.5,15.4-15.8,26.4-13.4ZM545.5,578.9c10.2,4.8,14.3,13,12.6,16.2-1.7,3.1-9.8,5.8-22.7,3.1-12.9-2.8-18.6-12.2-18.6-12.2-2.2-13.3,18.5-11.9,28.7-7ZM559,620.4c-.9,3.5-8.2,7.9-21.4,8.2-13.2.2-20.9-7.7-20.9-7.7-5.1-12.5,15.4-15.8,26.4-13.4,11,2.4,16.9,9.4,16,12.9ZM505.9,557.1c-13.2.2-20.9-7.7-20.9-7.7-5.1-12.5,15.4-15.8,26.4-13.4,11,2.4,16.9,9.4,16,12.9-.9,3.5-8.2,7.9-21.4,8.2ZM531.4,652.2c10.2,4.8,14.3,13,12.6,16.2-1.7,3.1-9.8,5.8-22.7,3.1-12.9-2.8-18.6-12.2-18.6-12.2-2.2-13.3,18.5-11.9,28.7-7ZM529,680.8c11,2.4,16.9,9.4,16,12.9-.9,3.5-8.2,7.9-21.4,8.2-13.2.2-20.9-7.7-20.9-7.7-5.1-12.5,15.4-15.8,26.4-13.4ZM527,724.1c10.2,4.8,14.3,13,12.6,16.2-1.7,3.1-9.8,5.8-22.7,3.1-12.9-2.8-18.6-12.2-18.6-12.2-2.2-13.3,18.5-11.9,28.7-7ZM524.6,752.7c11,2.4,16.9,9.4,16,12.9-.9,3.5-8.2,7.9-21.4,8.2s-20.9-7.7-20.9-7.7c-5.1-12.5,15.4-15.8,26.4-13.4ZM425.9,1249.3c-13.2.2-20.9-7.7-20.9-7.7-5.1-12.5,15.4-15.8,26.4-13.4,11,2.4,16.9,9.4,16,12.9-.9,3.5-8.2,7.9-21.4,8.2ZM433.3,1281.8c-1.7,3.1-9.8,5.8-22.7,3.1-12.9-2.8-18.6-12.2-18.6-12.2-2.2-13.3,18.5-11.9,28.7-7,10.2,4.8,14.3,13,12.6,16.2ZM433.8,1199.6c10.2,4.8,14.3,13,12.6,16.2-1.7,3.1-9.8,5.8-22.7,3.1-12.9-2.8-18.6-12.2-18.6-12.2-2.2-13.3,18.5-11.9,28.7-7ZM439.1,1183.2c-13.2.2-20.9-7.7-20.9-7.7-5.1-12.5,15.4-15.8,26.4-13.4,11,2.4,16.9,9.4,16,12.9-.9,3.5-8.2,7.9-21.4,8.2ZM447,1133.5c10.2,4.8,14.3,13,12.6,16.2-1.7,3.1-9.8,5.8-22.7,3.1-12.9-2.8-18.6-12.2-18.6-12.2-2.2-13.3,18.5-11.9,28.7-7ZM452.3,1117.1c-13.2.2-20.9-7.7-20.9-7.7-5.1-12.5,15.4-15.8,26.4-13.4,11,2.4,16.9,9.4,16,12.9-.9,3.5-8.2,7.9-21.4,8.2ZM460.2,1067.4c10.2,4.8,14.3,13,12.6,16.2-1.7,3.1-9.8,5.8-22.7,3.1s-18.6-12.2-18.6-12.2c-2.2-13.3,18.5-11.9,28.7-7ZM465.5,1051c-13.2.2-20.9-7.7-20.9-7.7-5.1-12.5,15.4-15.8,26.4-13.4,11,2.4,16.9,9.4,16,12.9-.9,3.5-8.2,7.9-21.4,8.2ZM473.4,1001.3c10.2,4.8,14.3,13,12.6,16.2-1.7,3.1-9.8,5.8-22.7,3.1-12.9-2.8-18.6-12.2-18.6-12.2-2.2-13.3,18.5-11.9,28.7-7ZM478.7,984.9c-13.2.2-20.9-7.7-20.9-7.7-5.1-12.5,15.4-15.8,26.4-13.4,11,2.4,16.9,9.4,16,12.9-.9,3.5-8.2,7.9-21.4,8.2ZM486.6,935.2c10.2,4.8,14.3,13,12.6,16.2-1.7,3.1-9.8,5.8-22.7,3.1s-18.6-12.2-18.6-12.2c-2.2-13.3,18.5-11.9,28.7-7ZM492.6,913.2c-13.2.2-20.9-7.7-20.9-7.7-5.1-12.5,15.4-15.8,26.4-13.4,11,2.4,16.9,9.4,16,12.9-.9,3.5-8.2,7.9-21.4,8.2ZM500.5,863.5c10.2,4.8,14.3,13,12.6,16.2-1.7,3.1-9.8,5.8-22.7,3.1-12.9-2.8-18.6-12.2-18.6-12.2-2.2-13.3,18.5-11.9,28.7-7ZM506.5,841.3c-13.2.2-20.9-7.7-20.9-7.7-5.1-12.5,15.4-15.8,26.4-13.4,11,2.4,16.9,9.4,16,12.9-.9,3.5-8.2,7.9-21.4,8.2ZM514.4,791.6c10.2,4.8,14.3,13,12.6,16.2-1.7,3.1-9.8,5.8-22.7,3.1-12.9-2.8-18.6-12.2-18.6-12.2-2.2-13.3,18.5-11.9,28.7-7ZM469.5,768.9c-13.2.2-20.9-7.7-20.9-7.7-5.1-12.5,15.4-15.8,26.4-13.4,11,2.4,16.9,9.4,16,12.9-.9,3.5-8.2,7.9-21.4,8.2ZM456.9,836.5c-13.2.2-20.9-7.7-20.9-7.7-5.1-12.5,15.4-15.8,26.4-13.4,11,2.4,16.9,9.4,16,12.9-.9,3.5-8.2,7.9-21.4,8.2ZM443,908.4c-13.2.2-20.9-7.7-20.9-7.7-5.1-12.5,15.4-15.8,26.4-13.4,11,2.4,16.9,9.4,16,12.9-.9,3.5-8.2,7.9-21.4,8.2ZM429.1,980.1c-13.2.2-20.9-7.7-20.9-7.7-5.1-12.5,15.4-15.8,26.4-13.4,11,2.4,16.9,9.4,16,12.9-.9,3.5-8.2,7.9-21.4,8.2ZM415.9,1046.1c-13.2.2-20.9-7.7-20.9-7.7-5.1-12.5,15.4-15.8,26.4-13.4,11,2.4,16.9,9.4,16,12.9-.9,3.5-8.2,7.9-21.4,8.2ZM402.7,1112.2c-13.2.2-20.9-7.7-20.9-7.7-5.1-12.5,15.4-15.8,26.4-13.4,11,2.4,16.9,9.4,16,12.9-.9,3.5-8.2,7.9-21.4,8.2ZM389.5,1178.3c-13.2.2-20.9-7.7-20.9-7.7-5.1-12.5,15.4-15.8,26.4-13.4,11,2.4,16.9,9.4,16,12.9-.9,3.5-8.2,7.9-21.4,8.2ZM376.3,1244.4c-13.2.2-20.9-7.7-20.9-7.7-5.1-12.5,15.4-15.8,26.4-13.4,11,2.4,16.9,9.4,16,12.9s-8.2,7.9-21.4,8.2ZM384.6,1302.4c-.9,3.5-8.2,7.9-21.4,8.2-13.2.2-20.9-7.7-20.9-7.7-5.1-12.5,15.4-15.8,26.4-13.4,11,2.4,16.9,9.4,16,12.9ZM434.2,1307.2c-.9,3.5-8.2,7.9-21.4,8.2-13.2.2-20.9-7.7-20.9-7.7-5.1-12.5,15.4-15.8,26.4-13.4,11,2.4,16.9,9.4,16,12.9ZM481.4,1306.2c-.5,3.5-7.2,8.9-20.3,10.8-13.1,1.9-21.7-5-21.7-5-3.8-6.7,1.1-11.5,8.1-14.2-4.1-4.3-5.6-8.5-5.6-8.5.4-13.5,20.5-8.1,29.5-1.4,8,6,10.9,13.6,9.9,17.1,0,.4.1.8,0,1.1ZM494.6,1240.1c-.5,3.5-7.2,8.9-20.3,10.8-13.1,1.9-21.7-5-21.7-5-3.8-6.7,1.1-11.5,8.1-14.2-4.1-4.3-5.6-8.5-5.6-8.5.4-13.5,20.5-8.1,29.5-1.4,8,6,10.9,13.6,9.9,17.1,0,.4.1.8,0,1.1ZM507.8,1174.1c-.5,3.5-7.2,8.9-20.3,10.8-13.1,1.9-21.7-5-21.7-5-3.8-6.7,1.1-11.5,8.1-14.2-4.1-4.3-5.6-8.5-5.6-8.5.4-13.5,20.5-8.1,29.5-1.4,8,6,10.9,13.6,9.9,17.1,0,.4.1.8,0,1.1ZM521,1108c-.5,3.5-7.2,8.9-20.3,10.8-13.1,1.9-21.7-5-21.7-5-3.8-6.7,1.1-11.5,8.1-14.2-4.1-4.3-5.6-8.5-5.6-8.5.4-13.5,20.5-8.1,29.5-1.4,8,6,10.9,13.6,9.9,17.1,0,.4.1.8,0,1.1ZM534.2,1041.9c-.5,3.5-7.2,8.9-20.3,10.8-13.1,1.9-21.7-5-21.7-5-3.8-6.7,1.1-11.5,8.1-14.2-4.1-4.3-5.6-8.5-5.6-8.5.4-13.5,20.5-8.1,29.5-1.4,8,6,10.9,13.6,9.9,17.1,0,.4.1.8,0,1.1ZM547.4,975.8c-.5,3.5-7.2,8.9-20.3,10.8-13.1,1.9-21.7-5-21.7-5-3.8-6.7,1.1-11.5,8.1-14.2-4.1-4.3-5.6-8.5-5.6-8.5.4-13.5,20.5-8.1,29.5-1.4,8,6,10.9,13.6,9.9,17.1,0,.4.1.8,0,1.1ZM561.2,904.1c-.5,3.5-7.2,8.9-20.3,10.8-13.1,1.9-21.7-5-21.7-5-3.8-6.7,1.1-11.5,8.1-14.2-4.1-4.3-5.6-8.5-5.6-8.5.4-13.5,20.5-8.1,29.5-1.4,8,6,10.9,13.6,9.9,17.1,0,.4.1.8,0,1.1ZM575.2,832.2c-.5,3.5-7.2,8.9-20.3,10.8-13.1,1.9-21.7-5-21.7-5-3.8-6.7,1.1-11.5,8.1-14.2-4.1-4.3-5.6-8.5-5.6-8.5.4-13.5,20.5-8.1,29.5-1.4,8,6,10.9,13.6,9.9,17.1,0,.4.1.8,0,1.1ZM587.7,764.6c-.5,3.5-7.2,8.9-20.3,10.8-13.1,1.9-21.7-5-21.7-5-3.8-6.7,1.1-11.5,8.1-14.2-4.1-4.3-5.6-8.5-5.6-8.5.4-13.5,20.5-8.1,29.5-1.4,8,6,10.9,13.6,9.9,17.1,0,.4.1.8,0,1.1ZM592.1,691.6c0,.4.1.8,0,1.1-.5,3.5-7.2,8.9-20.3,10.8-13.1,1.9-21.7-5-21.7-5-3.8-6.7,1.1-11.5,8.1-14.2-4.1-4.3-5.6-8.5-5.6-8.5.4-13.5,20.5-8.1,29.5-1.4,8,6,10.9,13.6,9.9,17.1ZM586,630.2c-13.1,1.9-21.7-5-21.7-5-4.7-8.2,3.7-13.6,13.1-15.6-2.3-3.1-3.2-5.6-3.2-5.6.4-13.5,20.5-8.1,29.5-1.4,9.1,6.7,11.6,15.5,9.3,18.3-1.3,1.5-4.4,2.5-9.1,2.3-3,2.8-9,5.8-17.9,7.1ZM607.8,718.4c-8-6.9-9.8-15.4-7.5-17.8,2.3-2.4,10.4-2.9,21.4,2.8,11.1,5.7,13.9,15.7,13.9,15.7-1.3,12.6-19.8,6.2-27.9-.7ZM622,692.3c-10.6,1-17.9-3.6-18.1-7-.1-3.4,5.1-9.5,16.9-13.5,11.8-4,21,.9,21,.9,8.2,9.7-9.2,18.6-19.8,19.6ZM622.5,645.3c-8-6.9-9.8-15.4-7.5-17.8s10.4-2.9,21.4,2.8c11.1,5.7,13.9,15.7,13.9,15.7-1.3,12.6-19.8,6.2-27.9-.7ZM636.7,619.2c-10.6,1-17.9-3.6-18.1-7-.1-3.4,5.1-9.5,16.9-13.5,11.8-4,21,.9,21,.9,8.2,9.7-9.2,18.6-19.8,19.6ZM650.6,564.8c11.1,5.7,13.9,15.7,13.9,15.7-1.3,12.6-19.8,6.2-27.9-.7-8-6.9-9.8-15.4-7.5-17.8s10.4-2.9,21.4,2.8ZM637.6,483c-.5,3.5-7.2,8.9-20.3,10.8-13.1,1.9-21.7-5-21.7-5-3.8-6.7,1.1-11.5,8.1-14.2-4.1-4.3-5.6-8.5-5.6-8.5.4-13.5,20.5-8.1,29.5-1.4,8,6,10.9,13.6,9.9,17.1,0,.4.1.8,0,1.1ZM648.8,417.4c-.5,3.5-7.2,8.9-20.3,10.8-13.1,1.9-21.7-5-21.7-5-3.8-6.7,1.1-11.5,8.1-14.2-4.1-4.3-5.6-8.5-5.6-8.5.4-13.5,20.5-8.1,29.5-1.4,8,6,10.9,13.6,9.9,17.1,0,.4.1.8,0,1.1ZM664.4,346.2c-.5,3.5-7.2,8.9-20.3,10.8-13.1,1.9-21.7-5-21.7-5-3.8-6.7,1.1-11.5,8.1-14.2-4.1-4.3-5.6-8.5-5.6-8.5.4-13.5,20.5-8.1,29.5-1.4,8,6,10.9,13.6,9.9,17.1,0,.4.1.8,0,1.1ZM663.2,279.1c2.3-2.4,10.4-2.9,21.4,2.8,11.1,5.7,13.9,15.7,13.9,15.7-1.3,12.6-19.8,6.2-27.9-.7-8-6.9-9.8-15.4-7.5-17.8Z"/>
    <path class="cls-2" d="M528,833.1c.9-3.5-5-10.5-16-12.9-11-2.4-31.5.9-26.4,13.4,0,0,7.7,7.9,20.9,7.7,13.2-.2,20.5-4.7,21.4-8.2Z"/>
    <path class="cls-2" d="M478.4,828.3c.9-3.5-5-10.5-16-12.9-11-2.4-31.5.9-26.4,13.4,0,0,7.7,7.9,20.9,7.7s20.5-4.7,21.4-8.2Z"/>
    <path class="cls-2" d="M485.7,798.6s5.7,9.5,18.6,12.2c12.9,2.8,21,0,22.7-3.1,1.7-3.1-2.5-11.3-12.6-16.2-10.2-4.8-30.9-6.3-28.7,7Z"/>
    <path class="cls-2" d="M455.5,800.2c13.1,1.7,21-1.6,22.4-4.9,1.5-3.3-3.3-11.1-13.9-15.1-8.1-3.1-22.2-3.7-26.9,2.2l-1.3,6.6c0,.2,0,.3.1.5,0,0,6.4,9,19.5,10.7Z"/>
    <path class="cls-2" d="M565.2,813.9c-9.1-6.7-29.1-12.1-29.5,1.4,0,0,1.5,4.1,5.6,8.5,5.2-2,11.6-2.8,16.4-2.4,10.1.9,16.6,6.1,17.4,9.7,1-3.6-1.8-11.2-9.9-17.1Z"/>
    <path class="cls-2" d="M551.6,830.9c-4.5-1.9-7.8-4.6-10.3-7.1-7,2.7-11.9,7.5-8.1,14.2,0,0,8.6,6.9,21.7,5,13.1-1.9,19.8-7.2,20.3-10.8,0-.3,0-.7,0-1.1-.1.5-.3.8-.6,1.2-2.3,2.8-10.8,3.8-22.9-1.3Z"/>
    <path class="cls-2" d="M557.7,821.4c-4.8-.4-11.2.4-16.4,2.4,2.4,2.6,5.8,5.2,10.3,7.1,12.1,5.2,20.6,4.1,22.9,1.3.3-.3.4-.7.6-1.2-.8-3.6-7.3-8.7-17.4-9.7Z"/>
    <path class="cls-2" d="M519.1,773.8c13.2-.2,20.5-4.7,21.4-8.2.9-3.5-5-10.5-16-12.9-11-2.4-31.5.9-26.4,13.4,0,0,7.7,7.9,20.9,7.7Z"/>
    <path class="cls-2" d="M490.9,760.8c.9-3.5-5-10.5-16-12.9-11-2.4-31.5.9-26.4,13.4,0,0,7.7,7.9,20.9,7.7,13.2-.2,20.5-4.7,21.4-8.2Z"/>
    <path class="cls-2" d="M516.9,743.3c12.9,2.8,21,0,22.7-3.1,1.7-3.1-2.5-11.3-12.6-16.2-10.2-4.8-30.9-6.3-28.7,7,0,0,5.7,9.5,18.6,12.2Z"/>
    <path class="cls-2" d="M468.1,732.7c13.1,1.7,21-1.6,22.4-4.9,1.5-3.3-3.3-11.1-13.9-15.1-7.6-2.9-20.5-3.6-25.9,1.2l-1.7,8.7c1.6,2,7.9,8.7,19.1,10.2Z"/>
    <path class="cls-2" d="M577.8,746.4c-9.1-6.7-29.1-12.1-29.5,1.4,0,0,1.5,4.1,5.6,8.5,5.2-2,11.6-2.8,16.4-2.4,10.1.9,16.6,6.1,17.4,9.7,1-3.6-1.8-11.2-9.9-17.1Z"/>
    <path class="cls-2" d="M564.2,763.3c-4.5-1.9-7.8-4.6-10.3-7.1-7,2.7-11.9,7.5-8.1,14.2,0,0,8.6,6.9,21.7,5,13.1-1.9,19.8-7.2,20.3-10.8,0-.4,0-.7,0-1.1-.1.5-.3.8-.6,1.2-2.3,2.8-10.8,3.8-22.9-1.3Z"/>
    <path class="cls-2" d="M570.3,753.8c-4.8-.4-11.2.4-16.4,2.4,2.4,2.6,5.8,5.2,10.3,7.1,12.1,5.2,20.6,4.1,22.9,1.3.3-.3.4-.7.6-1.2-.8-3.6-7.3-8.7-17.4-9.7Z"/>
    <path class="cls-2" d="M523.5,701.9c13.2-.2,20.5-4.7,21.4-8.2.9-3.5-5-10.5-16-12.9-11-2.4-31.5.9-26.4,13.4,0,0,7.7,7.9,20.9,7.7Z"/>
    <path class="cls-2" d="M495.3,688.9c.9-3.5-5-10.5-16-12.9-6.3-1.4-15.7-.9-21.6,2.1l-2.6,13.1c3.2,2.3,9.6,6,18.7,5.9,13.2-.2,20.5-4.7,21.4-8.2Z"/>
    <path class="cls-2" d="M521.3,671.4c12.9,2.8,21,0,22.7-3.1,1.7-3.1-2.5-11.3-12.6-16.2-10.2-4.8-30.9-6.3-28.7,7,0,0,5.7,9.5,18.6,12.2Z"/>
    <path class="cls-2" d="M494.9,655.9c1.5-3.3-3.3-11.1-13.9-15.1-4.2-1.6-10.1-2.6-15.5-2.2l-3.7,18.8c2.8,1.5,6.4,2.9,10.6,3.4,13.1,1.7,21-1.6,22.4-4.9Z"/>
    <path class="cls-2" d="M582.2,674.5c-9.1-6.7-29.1-12.1-29.5,1.4,0,0,1.5,4.1,5.6,8.5,5.2-2,11.6-2.8,16.4-2.4,10.1.9,16.6,6.1,17.4,9.7,1-3.6-1.8-11.2-9.9-17.1Z"/>
    <path class="cls-2" d="M568.6,691.4c-4.5-1.9-7.8-4.6-10.3-7.1-7,2.7-11.9,7.5-8.1,14.2,0,0,8.6,6.9,21.7,5,13.1-1.9,19.8-7.2,20.3-10.8,0-.3,0-.7,0-1.1-.1.5-.3.8-.6,1.2-2.3,2.8-10.8,3.8-22.9-1.3Z"/>
    <path class="cls-2" d="M574.7,681.9c-4.8-.4-11.2.4-16.4,2.4,2.4,2.6,5.8,5.2,10.3,7.1,12.1,5.2,20.6,4.1,22.9,1.3.3-.3.4-.7.6-1.2-.8-3.6-7.3-8.7-17.4-9.7Z"/>
    <path class="cls-2" d="M543,607.5c-11-2.4-31.5.9-26.4,13.4,0,0,7.7,7.9,20.9,7.7,13.2-.2,20.5-4.7,21.4-8.2.9-3.5-5-10.5-16-12.9Z"/>
    <path class="cls-2" d="M509.4,615.6c.9-3.5-5-10.5-16-12.9-6.1-1.3-15.2-.9-21.2,1.9l-2.7,13.5c3.3,2.3,9.6,5.8,18.4,5.6,13.2-.2,20.5-4.7,21.4-8.2Z"/>
    <path class="cls-2" d="M516.8,585.9s5.7,9.5,18.6,12.2c12.9,2.8,21,0,22.7-3.1,1.7-3.1-2.5-11.3-12.6-16.2-10.2-4.8-30.9-6.3-28.7,7Z"/>
    <path class="cls-2" d="M509,582.6c1.5-3.3-3.3-11.1-13.9-15.1-4.1-1.6-9.8-2.5-15.1-2.3l-3.8,19c2.8,1.4,6.2,2.7,10.3,3.2,13.1,1.7,21-1.6,22.4-4.9Z"/>
    <path class="cls-2" d="M588.8,608.7c11.2,1,18,7.2,17.5,10.8-.2,1.1-.9,2.4-2.3,3.7,4.6.3,7.8-.7,9.1-2.3,2.3-2.8-.2-11.6-9.3-18.3-9.1-6.7-29.1-12.1-29.5,1.4,0,0,.9,2.4,3.2,5.6,4-.9,8.1-1.2,11.4-.9Z"/>
    <path class="cls-2" d="M590,619.6c-6.3-2.7-10.3-6.7-12.7-10-9.3,2.1-17.7,7.4-13.1,15.6,0,0,8.6,6.9,21.7,5,9-1.3,14.9-4.2,17.9-7.1-3.7-.2-8.4-1.3-13.8-3.6Z"/>
    <path class="cls-2" d="M590,619.6c5.4,2.3,10.1,3.4,13.8,3.6,1.4-1.3,2.2-2.6,2.3-3.7.5-3.5-6.2-9.8-17.5-10.8-3.3-.3-7.5,0-11.4.9,2.4,3.3,6.5,7.3,12.7,10Z"/>
    <path class="cls-2" d="M555.5,561.9c13.2-.2,20.5-4.7,21.4-8.2.9-3.5-5-10.5-16-12.9-11-2.4-31.5.9-26.4,13.4,0,0,7.7,7.9,20.9,7.7Z"/>
    <path class="cls-2" d="M527.3,548.9c.9-3.5-5-10.5-16-12.9-11-2.4-31.5.9-26.4,13.4,0,0,7.7,7.9,20.9,7.7,13.2-.2,20.5-4.7,21.4-8.2Z"/>
    <path class="cls-2" d="M553.3,531.5c12.9,2.8,21,0,22.7-3.1,1.7-3.1-2.5-11.3-12.6-16.2-10.2-4.8-30.9-6.3-28.7,7,0,0,5.7,9.5,18.6,12.2Z"/>
    <path class="cls-2" d="M526.9,516c1.5-3.3-3.3-11.1-13.9-15.1-5.5-2.1-13.7-3-19.9-1.6l-3.1,15.7c3.2,2.4,8.1,5,14.5,5.9,13.1,1.7,21-1.6,22.4-4.9Z"/>
    <path class="cls-2" d="M614.2,534.6c-9.1-6.7-29.1-12.1-29.5,1.4,0,0,1.5,4.1,5.6,8.5,5.2-2,11.6-2.8,16.4-2.4,10.1.9,16.6,6.1,17.4,9.7,1-3.6-1.8-11.2-9.9-17.1Z"/>
    <path class="cls-2" d="M600.6,551.5c-4.5-1.9-7.8-4.6-10.3-7.1-7,2.7-11.9,7.5-8.1,14.2,0,0,8.6,6.9,21.7,5,13.1-1.9,19.8-7.2,20.3-10.8,0-.3,0-.7,0-1.1-.1.5-.3.8-.6,1.2-2.3,2.8-10.8,3.8-22.9-1.3Z"/>
    <path class="cls-2" d="M606.7,542c-4.8-.4-11.2.4-16.4,2.4,2.4,2.6,5.8,5.2,10.3,7.1,12.1,5.2,20.6,4.1,22.9,1.3.3-.3.4-.7.6-1.2-.8-3.6-7.3-8.7-17.4-9.7Z"/>
    <path class="cls-2" d="M569,492.2c13.2-.2,20.5-4.7,21.4-8.2.9-3.5-5-10.5-16-12.9-11-2.4-31.5.9-26.4,13.4,0,0,7.7,7.9,20.9,7.7Z"/>
    <path class="cls-2" d="M498.5,479.6s7.7,7.9,20.9,7.7c13.2-.2,20.5-4.7,21.4-8.2.9-3.5-5-10.5-16-12.9-8.8-1.9-23.7-.2-26.6,7l-.5,2.7c0,1.1.2,2.4.8,3.8Z"/>
    <path class="cls-2" d="M566.8,461.7c12.9,2.8,21,0,22.7-3.1,1.7-3.1-2.5-11.3-12.6-16.2-10.2-4.8-30.9-6.3-28.7,7,0,0,5.7,9.5,18.6,12.2Z"/>
    <path class="cls-2" d="M540.4,446.2c1.5-3.3-3.3-11.1-13.9-15.1-5.4-2.1-13.5-3-19.6-1.7l-3.2,16c3.2,2.4,8,4.9,14.2,5.7,13.1,1.7,21-1.6,22.4-4.9Z"/>
    <path class="cls-2" d="M627.7,464.8c-9.1-6.7-29.1-12.1-29.5,1.4,0,0,1.5,4.1,5.6,8.5,5.2-2,11.6-2.8,16.4-2.4,10.1.9,16.6,6.1,17.4,9.7,1-3.6-1.8-11.2-9.9-17.1Z"/>
    <path class="cls-2" d="M614.1,481.7c-4.5-1.9-7.8-4.6-10.3-7.1-7,2.7-11.9,7.5-8.1,14.2,0,0,8.6,6.9,21.7,5,13.1-1.9,19.8-7.2,20.3-10.8,0-.4,0-.7,0-1.1-.1.5-.3.8-.6,1.2-2.3,2.8-10.8,3.8-22.9-1.3Z"/>
    <path class="cls-2" d="M620.2,472.2c-4.8-.4-11.2.4-16.4,2.4,2.4,2.6,5.8,5.2,10.3,7.1,12.1,5.2,20.6,4.1,22.9,1.3.3-.3.4-.7.6-1.2-.8-3.6-7.3-8.7-17.4-9.7Z"/>
    <path class="cls-2" d="M580.1,426.5c13.2-.2,20.5-4.7,21.4-8.2.9-3.5-5-10.5-16-12.9-11-2.4-31.5.9-26.4,13.4,0,0,7.7,7.9,20.9,7.7Z"/>
    <path class="cls-2" d="M552,413.5c.9-3.5-5-10.5-16-12.9-7.3-1.6-18.8-.7-24.2,3.8l-1.9,9.8c1.3,1.2,8.7,7.7,20.7,7.5,13.2-.2,20.5-4.7,21.4-8.2Z"/>
    <path class="cls-2" d="M577.9,396c12.9,2.8,21,0,22.7-3.1,1.7-3.1-2.5-11.3-12.6-16.2-10.2-4.8-30.9-6.3-28.7,7,0,0,5.7,9.5,18.6,12.2Z"/>
    <path class="cls-2" d="M551.5,380.6c1.5-3.3-3.3-11.1-13.9-15.1-4.9-1.9-11.9-2.8-17.8-2l-3.4,17.4c3.1,2,7.3,3.9,12.6,4.6,13.1,1.7,21-1.6,22.4-4.9Z"/>
    <path class="cls-2" d="M638.8,399.1c-9.1-6.7-29.1-12.1-29.5,1.4,0,0,1.5,4.1,5.6,8.5,5.2-2,11.6-2.8,16.4-2.4,10.1.9,16.6,6.1,17.4,9.7,1-3.6-1.8-11.2-9.9-17.1Z"/>
    <path class="cls-2" d="M625.2,416.1c-4.5-1.9-7.8-4.6-10.3-7.1-7,2.7-11.9,7.5-8.1,14.2,0,0,8.6,6.9,21.7,5,13.1-1.9,19.8-7.2,20.3-10.8,0-.4,0-.7,0-1.1-.1.5-.3.8-.6,1.2-2.3,2.8-10.8,3.8-22.9-1.3Z"/>
    <path class="cls-2" d="M631.3,406.6c-4.8-.4-11.2.4-16.4,2.4,2.4,2.6,5.8,5.2,10.3,7.1,12.1,5.2,20.6,4.1,22.9,1.3.3-.3.4-.7.6-1.2-.8-3.6-7.3-8.7-17.4-9.7Z"/>
    <path class="cls-2" d="M574.9,347.6s7.7,7.9,20.9,7.7c13.2-.2,20.5-4.7,21.4-8.2.9-3.5-5-10.5-16-12.9-11-2.4-31.5.9-26.4,13.4Z"/>
    <path class="cls-2" d="M546.2,350.5c13.2-.2,20.5-4.7,21.4-8.2.9-3.5-5-10.5-16-12.9-8.5-1.9-22.5-.3-26.2,6.1l-.9,4.4c.1.9.3,1.8.7,2.8,0,0,7.7,7.9,20.9,7.7Z"/>
    <path class="cls-2" d="M593.6,324.9c12.9,2.8,21,0,22.7-3.1,1.7-3.1-2.5-11.3-12.6-16.2-10.2-4.8-30.9-6.3-28.7,7,0,0,5.7,9.5,18.6,12.2Z"/>
    <path class="cls-2" d="M567.2,309.4c1.5-3.3-3.3-11.1-13.9-15.1-5.3-2-13.3-3-19.4-1.7l-3.2,16.2c3.2,2.3,7.9,4.7,14,5.5,13.1,1.7,21-1.6,22.4-4.9Z"/>
    <path class="cls-2" d="M654.5,327.9c-9.1-6.7-29.1-12.1-29.5,1.4,0,0,1.5,4.1,5.6,8.5,5.2-2,11.6-2.8,16.4-2.4,10.1.9,16.6,6.1,17.4,9.7,1-3.6-1.8-11.2-9.9-17.1Z"/>
    <path class="cls-2" d="M640.9,344.9c-4.5-1.9-7.8-4.6-10.3-7.1-7,2.7-11.9,7.5-8.1,14.2,0,0,8.6,6.9,21.7,5,13.1-1.9,19.8-7.2,20.3-10.8,0-.4,0-.7,0-1.1-.1.5-.3.8-.6,1.2-2.3,2.8-10.8,3.8-22.9-1.3Z"/>
    <path class="cls-2" d="M647,335.4c-4.8-.4-11.2.4-16.4,2.4,2.4,2.6,5.8,5.2,10.3,7.1,12.1,5.2,20.6,4.1,22.9,1.3.3-.3.4-.7.6-1.2-.8-3.6-7.3-8.7-17.4-9.7Z"/>
    <path class="cls-2" d="M616.9,229.8c12.4-.2,19.3-4.4,20.2-7.7.9-3.3-4.7-9.9-15.1-12.1-10.4-2.3-29.7.8-24.9,12.6,0,0,7.3,7.5,19.7,7.2Z"/>
    <path class="cls-2" d="M606.8,271.5c.8-2.8-3.3-8.1-11-11-3.1.4-6.9.4-11.3-.2-1.9-.3-3.7-.7-5.3-1.3-8.3,1.2-15.4,5.2-12.3,12.9,0,0,7.3,7.5,19.7,7.2,12.4-.2,19.3-4.4,20.2-7.7Z"/>
    <path class="cls-2" d="M557.3,265.9c.9-3.3-4.7-9.9-15.1-12.1-.2,0-.4,0-.7-.1l-3.9,20c12.1-.3,18.8-4.5,19.7-7.7Z"/>
    <path class="cls-2" d="M591.7,259.3c1.4.3,2.8.7,4,1.2,5.6-.7,9-2.7,9.9-4.7,1.4-3.1-3.1-10.5-13-14.3-9.9-3.9-29.5-3.8-26.5,8.6,0,0,4.3,6,13,9,4.4-.6,9-.5,12.6.3Z"/>
    <path class="cls-2" d="M595.8,260.5c-1.3-.5-2.6-.9-4-1.2-3.6-.8-8.2-.9-12.6-.3,1.6.5,3.4,1,5.3,1.3,4.4.6,8.2.6,11.3.2Z"/>
    <path class="cls-2" d="M599.1,806.7c-11.8,4-17,10.1-16.9,13.5.1,3.4,7.5,8,18.1,7,6.6-.6,15.9-4.3,19.9-9.4l1.5-7.6c-.3-.9-.9-1.7-1.6-2.6,0,0-9.2-4.9-21-.9Z"/>
    <path class="cls-2" d="M600,838.2c-11.1-5.7-19.1-5.3-21.4-2.8-2.3,2.4-.6,10.9,7.5,17.8,6.8,5.8,20.9,11.3,26,5.4l1.3-6.3c-1.3-3.1-5-9.8-13.3-14.1Z"/>
    <path class="cls-2" d="M514,905c.9-3.5-5-10.5-16-12.9-11-2.4-31.5.9-26.4,13.4,0,0,7.7,7.9,20.9,7.7s20.5-4.7,21.4-8.2Z"/>
    <path class="cls-2" d="M464.4,900.2c.9-3.5-5-10.5-16-12.9-11-2.4-31.5.9-26.4,13.4,0,0,7.7,7.9,20.9,7.7,13.2-.2,20.5-4.7,21.4-8.2Z"/>
    <path class="cls-2" d="M490.4,882.7c12.9,2.8,21,0,22.7-3.1,1.7-3.1-2.5-11.3-12.6-16.2s-30.9-6.3-28.7,7c0,0,5.7,9.5,18.6,12.2Z"/>
    <path class="cls-2" d="M441.6,872.1c13.1,1.7,21-1.6,22.4-4.9,1.5-3.3-3.3-11.1-13.9-15.1-8.3-3.2-23.1-3.7-27.3,2.7l-1,5.3c0,.4.1.8.2,1.3,0,0,6.4,9,19.5,10.7Z"/>
    <path class="cls-2" d="M551.3,885.8c-9.1-6.7-29.1-12.1-29.5,1.4,0,0,1.5,4.1,5.6,8.5,5.2-2,11.6-2.8,16.4-2.4,10.1.9,16.6,6.1,17.4,9.7,1-3.6-1.8-11.2-9.9-17.1Z"/>
    <path class="cls-2" d="M537.7,902.8c-4.5-1.9-7.8-4.6-10.3-7.1-7,2.7-11.9,7.5-8.1,14.2,0,0,8.6,6.9,21.7,5,13.1-1.9,19.8-7.2,20.3-10.8,0-.4,0-.7,0-1.1-.1.5-.3.8-.6,1.2-2.3,2.8-10.8,3.8-22.9-1.3Z"/>
    <path class="cls-2" d="M543.8,893.3c-4.8-.4-11.2.4-16.4,2.4,2.4,2.6,5.8,5.2,10.3,7.1,12.1,5.2,20.6,4.1,22.9,1.3.3-.3.4-.7.6-1.2-.8-3.6-7.3-8.7-17.4-9.7Z"/>
    <path class="cls-2" d="M585.2,878.6c-11.8,4-17,10.1-16.9,13.5.1,3.4,7.5,8,18.1,7,6.4-.6,15.2-4.1,19.5-8.8l1.7-8.7c-.3-.7-.8-1.4-1.4-2.1,0,0-9.2-4.9-21-.9Z"/>
    <path class="cls-2" d="M586.1,910.1c-11.1-5.7-19.1-5.3-21.4-2.8s-.6,10.9,7.5,17.8c6.6,5.6,20,11,25.5,5.9l1.5-7.4c-1.5-3.3-5.2-9.5-13-13.5Z"/>
    <path class="cls-2" d="M500.2,976.7c.9-3.5-5-10.5-16-12.9-11-2.4-31.5.9-26.4,13.4,0,0,7.7,7.9,20.9,7.7s20.5-4.7,21.4-8.2Z"/>
    <path class="cls-2" d="M450.6,971.9c.9-3.5-5-10.5-16-12.9-11-2.4-31.5.9-26.4,13.4,0,0,7.7,7.9,20.9,7.7,13.2-.2,20.5-4.7,21.4-8.2Z"/>
    <path class="cls-2" d="M476.5,954.4c12.9,2.8,21,0,22.7-3.1,1.7-3.1-2.5-11.3-12.6-16.2-10.2-4.8-30.9-6.3-28.7,7,0,0,5.7,9.5,18.6,12.2Z"/>
    <path class="cls-2" d="M427.7,943.8c13.1,1.7,21-1.6,22.4-4.9,1.5-3.3-3.3-11.1-13.9-15.1-8.7-3.3-24.2-3.8-27.7,3.5l-.7,3.5c0,.7.1,1.5.3,2.3,0,0,6.4,9,19.5,10.7Z"/>
    <path class="cls-2" d="M537.4,957.5c-9.1-6.7-29.1-12.1-29.5,1.4,0,0,1.5,4.1,5.6,8.5,5.2-2,11.6-2.8,16.4-2.4,10.1.9,16.6,6.1,17.4,9.7,1-3.6-1.8-11.2-9.9-17.1Z"/>
    <path class="cls-2" d="M523.8,974.5c-4.5-1.9-7.8-4.6-10.3-7.1-7,2.7-11.9,7.5-8.1,14.2,0,0,8.6,6.9,21.7,5,13.1-1.9,19.8-7.2,20.3-10.8,0-.3,0-.7,0-1.1-.1.5-.3.8-.6,1.2-2.3,2.8-10.8,3.8-22.9-1.3Z"/>
    <path class="cls-2" d="M529.9,965c-4.8-.4-11.2.4-16.4,2.4,2.4,2.6,5.8,5.2,10.3,7.1,12.1,5.2,20.6,4.1,22.9,1.3.3-.3.4-.7.6-1.2-.8-3.6-7.3-8.7-17.4-9.7Z"/>
    <path class="cls-2" d="M571.3,950.3c-11.8,4-17,10.1-16.9,13.5.1,3.4,7.5,8,18.1,7,6.1-.6,14.6-3.8,19-8.3l1.9-9.7c-.3-.5-.7-1-1.1-1.6,0,0-9.2-4.9-21-.9Z"/>
    <path class="cls-2" d="M572.2,981.8c-11.1-5.7-19.1-5.3-21.4-2.8s-.6,10.9,7.5,17.8c6.4,5.5,19.4,10.7,25.1,6.3l1.6-8.3c-1.6-3.4-5.4-9.1-12.8-13Z"/>
    <path class="cls-2" d="M487,1042.8c.9-3.5-5-10.5-16-12.9-11-2.4-31.5.9-26.4,13.4,0,0,7.7,7.9,20.9,7.7,13.2-.2,20.5-4.7,21.4-8.2Z"/>
    <path class="cls-2" d="M437.4,1038c.9-3.5-5-10.5-16-12.9-11-2.4-31.5.9-26.4,13.4,0,0,7.7,7.9,20.9,7.7,13.2-.2,20.5-4.7,21.4-8.2Z"/>
    <path class="cls-2" d="M463.3,1020.5c12.9,2.8,21,0,22.7-3.1,1.7-3.1-2.5-11.3-12.6-16.2-10.2-4.8-30.9-6.3-28.7,7,0,0,5.7,9.5,18.6,12.2Z"/>
    <path class="cls-2" d="M414.5,1009.9c13.1,1.7,21-1.6,22.4-4.9,1.5-3.3-3.3-11.1-13.9-15.1-8.5-3.2-23.6-3.7-27.5,3l-.9,4.5c0,.6.1,1.1.3,1.8,0,0,6.4,9,19.5,10.7Z"/>
    <path class="cls-2" d="M524.2,1023.6c-9.1-6.7-29.1-12.1-29.5,1.4,0,0,1.5,4.1,5.6,8.5,5.2-2,11.6-2.8,16.4-2.4,10.1.9,16.6,6.1,17.4,9.7,1-3.6-1.8-11.2-9.9-17.1Z"/>
    <path class="cls-2" d="M510.6,1040.6c-4.5-1.9-7.8-4.6-10.3-7.1-7,2.7-11.9,7.5-8.1,14.2,0,0,8.6,6.9,21.7,5,13.1-1.9,19.8-7.2,20.3-10.8,0-.4,0-.7,0-1.1-.1.5-.3.8-.6,1.2-2.3,2.8-10.8,3.8-22.9-1.3Z"/>
    <path class="cls-2" d="M516.7,1031.1c-4.8-.4-11.2.4-16.4,2.4,2.4,2.6,5.8,5.2,10.3,7.1,12.1,5.2,20.6,4.1,22.9,1.3.3-.3.4-.7.6-1.2-.8-3.6-7.3-8.7-17.4-9.7Z"/>
    <path class="cls-2" d="M558.1,1016.4c-11.8,4-17,10.1-16.9,13.5.1,3.4,7.5,8,18.1,7,6.2-.6,14.7-3.9,19.1-8.4l1.9-9.6c-.3-.5-.7-1.1-1.1-1.6,0,0-9.2-4.9-21-.9Z"/>
    <path class="cls-2" d="M559,1047.9c-11.1-5.7-19.1-5.3-21.4-2.8s-.6,10.9,7.5,17.8c6.4,5.5,19.5,10.7,25.2,6.2l1.6-8.2c-1.6-3.4-5.3-9.2-12.8-13.1Z"/>
    <path class="cls-2" d="M473.8,1108.9c.9-3.5-5-10.5-16-12.9-11-2.4-31.5.9-26.4,13.4,0,0,7.7,7.9,20.9,7.7s20.5-4.7,21.4-8.2Z"/>
    <path class="cls-2" d="M424.2,1104.1c.9-3.5-5-10.5-16-12.9-11-2.4-31.5.9-26.4,13.4,0,0,7.7,7.9,20.9,7.7,13.2-.2,20.5-4.7,21.4-8.2Z"/>
    <path class="cls-2" d="M450.1,1086.6c12.9,2.8,21,0,22.7-3.1,1.7-3.1-2.5-11.3-12.6-16.2-10.2-4.8-30.9-6.3-28.7,7,0,0,5.7,9.5,18.6,12.2Z"/>
    <path class="cls-2" d="M401.3,1076c13.1,1.7,21-1.6,22.4-4.9,1.5-3.3-3.3-11.1-13.9-15.1-8.3-3.2-23.1-3.7-27.3,2.7l-1,5.3c0,.4.1.8.2,1.3,0,0,6.4,9,19.5,10.7Z"/>
    <path class="cls-2" d="M511,1089.7c-9.1-6.7-29.1-12.1-29.5,1.4,0,0,1.5,4.1,5.6,8.5,5.2-2,11.6-2.8,16.4-2.4,10.1.9,16.6,6.1,17.4,9.7,1-3.6-1.8-11.2-9.9-17.1Z"/>
    <path class="cls-2" d="M497.4,1106.6c-4.5-1.9-7.8-4.6-10.3-7.1-7,2.7-11.9,7.5-8.1,14.2,0,0,8.6,6.9,21.7,5,13.1-1.9,19.8-7.2,20.3-10.8,0-.4,0-.7,0-1.1-.1.5-.3.8-.6,1.2-2.3,2.8-10.8,3.8-22.9-1.3Z"/>
    <path class="cls-2" d="M503.5,1097.2c-4.8-.4-11.2.4-16.4,2.4,2.4,2.6,5.8,5.2,10.3,7.1,12.1,5.2,20.6,4.1,22.9,1.3.3-.3.4-.7.6-1.2-.8-3.6-7.3-8.7-17.4-9.7Z"/>
    <path class="cls-2" d="M544.9,1082.5c-11.8,4-17,10.1-16.9,13.5.1,3.4,7.5,8,18.1,7,6.2-.6,14.8-3.9,19.1-8.5l1.9-9.4c-.3-.6-.7-1.1-1.2-1.7,0,0-9.2-4.9-21-.9Z"/>
    <path class="cls-2" d="M545.8,1114c-11.1-5.7-19.1-5.3-21.4-2.8-2.3,2.4-.6,10.9,7.5,17.8,6.4,5.5,19.6,10.8,25.2,6.2l1.6-8c-1.6-3.4-5.3-9.3-12.9-13.1Z"/>
    <path class="cls-2" d="M460.6,1175c.9-3.5-5-10.5-16-12.9-11-2.4-31.5.9-26.4,13.4,0,0,7.7,7.9,20.9,7.7,13.2-.2,20.5-4.7,21.4-8.2Z"/>
    <path class="cls-2" d="M411,1170.2c.9-3.5-5-10.5-16-12.9-11-2.4-31.5.9-26.4,13.4,0,0,7.7,7.9,20.9,7.7s20.5-4.7,21.4-8.2Z"/>
    <path class="cls-2" d="M436.9,1152.7c12.9,2.8,21,0,22.7-3.1,1.7-3.1-2.5-11.3-12.6-16.2-10.2-4.8-30.9-6.3-28.7,7,0,0,5.7,9.5,18.6,12.2Z"/>
    <path class="cls-2" d="M388.1,1142.1c13.1,1.7,21-1.6,22.4-4.9,1.5-3.3-3.3-11.1-13.9-15.1-8.2-3.1-22.6-3.7-27.1,2.4l-1.2,6c0,.3,0,.6.2.9,0,0,6.4,9,19.5,10.7Z"/>
    <path class="cls-2" d="M497.8,1155.8c-9.1-6.7-29.1-12.1-29.5,1.4,0,0,1.5,4.1,5.6,8.5,5.2-2,11.6-2.8,16.4-2.4,10.1.9,16.6,6.1,17.4,9.7,1-3.6-1.8-11.2-9.9-17.1Z"/>
    <path class="cls-2" d="M484.2,1172.7c-4.5-1.9-7.8-4.6-10.3-7.1-7,2.7-11.9,7.5-8.1,14.2,0,0,8.6,6.9,21.7,5,13.1-1.9,19.8-7.2,20.3-10.8,0-.4,0-.7,0-1.1-.1.5-.3.8-.6,1.2-2.3,2.8-10.8,3.8-22.9-1.3Z"/>
    <path class="cls-2" d="M490.3,1163.3c-4.8-.4-11.2.4-16.4,2.4,2.4,2.6,5.8,5.2,10.3,7.1,12.1,5.2,20.6,4.1,22.9,1.3.3-.3.4-.7.6-1.2-.8-3.6-7.3-8.7-17.4-9.7Z"/>
    <path class="cls-2" d="M531.7,1148.6c-11.8,4-17,10.1-16.9,13.5.1,3.4,7.5,8,18.1,7,6.2-.6,14.9-3.9,19.2-8.5l1.8-9.3c-.3-.6-.7-1.2-1.2-1.8,0,0-9.2-4.9-21-.9Z"/>
    <path class="cls-2" d="M532.6,1180.1c-11.1-5.7-19.1-5.3-21.4-2.8-2.3,2.4-.6,10.9,7.5,17.8,6.5,5.6,19.7,10.8,25.3,6.1l1.6-7.9c-1.6-3.3-5.3-9.3-12.9-13.2Z"/>
    <path class="cls-2" d="M447.4,1241.1c.9-3.5-5-10.5-16-12.9-11-2.4-31.5.9-26.4,13.4,0,0,7.7,7.9,20.9,7.7,13.2-.2,20.5-4.7,21.4-8.2Z"/>
    <path class="cls-2" d="M397.8,1236.3c.9-3.5-5-10.5-16-12.9-11-2.4-31.5.9-26.4,13.4,0,0,7.7,7.9,20.9,7.7,13.2-.2,20.5-4.7,21.4-8.2Z"/>
    <path class="cls-2" d="M423.7,1218.8c12.9,2.8,21,0,22.7-3.1,1.7-3.1-2.5-11.3-12.6-16.2s-30.9-6.3-28.7,7c0,0,5.7,9.5,18.6,12.2Z"/>
    <path class="cls-2" d="M374.9,1208.2c13.1,1.7,21-1.6,22.4-4.9,1.5-3.3-3.3-11.1-13.9-15.1-8.1-3.1-22.2-3.7-26.9,2.2l-1.3,6.6c0,.2,0,.3.1.5,0,0,6.4,9,19.5,10.7Z"/>
    <path class="cls-2" d="M484.6,1221.9c-9.1-6.7-29.1-12.1-29.5,1.4,0,0,1.5,4.1,5.6,8.5,5.2-2,11.6-2.8,16.4-2.4,10.1.9,16.6,6.1,17.4,9.7,1-3.6-1.8-11.2-9.9-17.1Z"/>
    <path class="cls-2" d="M471,1238.8c-4.5-1.9-7.8-4.6-10.3-7.1-7,2.7-11.9,7.5-8.1,14.2,0,0,8.6,6.9,21.7,5,13.1-1.9,19.8-7.2,20.3-10.8,0-.3,0-.7,0-1.1-.1.5-.3.8-.6,1.2-2.3,2.8-10.8,3.8-22.9-1.3Z"/>
    <path class="cls-2" d="M477.1,1229.4c-4.8-.4-11.2.4-16.4,2.4,2.4,2.6,5.8,5.2,10.3,7.1,12.1,5.2,20.6,4.1,22.9,1.3.3-.3.4-.7.6-1.2-.8-3.6-7.3-8.7-17.4-9.7Z"/>
    <path class="cls-2" d="M518.5,1214.7c-11.8,4-17,10.1-16.9,13.5.1,3.4,7.5,8,18.1,7,6.3-.6,14.9-4,19.3-8.6l1.8-9.1c-.3-.6-.7-1.2-1.3-1.9,0,0-9.2-4.9-21-.9Z"/>
    <path class="cls-2" d="M519.4,1246.2c-11.1-5.7-19.1-5.3-21.4-2.8s-.6,10.9,7.5,17.8c6.5,5.6,19.8,10.9,25.4,6l1.5-7.7c-1.6-3.3-5.3-9.4-12.9-13.3Z"/>
    <path class="cls-2" d="M418.2,1294.3c-11-2.4-31.5.9-26.4,13.4,0,0,7.7,7.9,20.9,7.7,13.2-.2,20.5-4.7,21.4-8.2.9-3.5-5-10.5-16-12.9Z"/>
    <path class="cls-2" d="M368.6,1289.5c-11-2.4-31.5.9-26.4,13.4,0,0,7.7,7.9,20.9,7.7,13.2-.2,20.5-4.7,21.4-8.2.9-3.5-5-10.5-16-12.9Z"/>
    <path class="cls-2" d="M391.9,1272.7s5.7,9.5,18.6,12.2c12.9,2.8,21,0,22.7-3.1,1.7-3.1-2.5-11.3-12.6-16.2-10.2-4.8-30.9-6.3-28.7,7Z"/>
    <path class="cls-2" d="M380.7,1268.3c1.5-3.3-3.3-11.1-13.9-15.1-6.3-2.4-16.2-3.3-22.5-.8l-2.6,13.2c3.1,2.8,8.6,6.5,16.6,7.6,13.1,1.7,21-1.6,22.4-4.9Z"/>
    <path class="cls-2" d="M471.4,1288c-9.1-6.7-29.1-12.1-29.5,1.4,0,0,1.5,4.1,5.6,8.5,5.2-2,11.6-2.8,16.4-2.4,10.1.9,16.6,6.1,17.4,9.7,1-3.6-1.8-11.2-9.9-17.1Z"/>
    <path class="cls-2" d="M457.8,1304.9c-4.5-1.9-7.8-4.6-10.3-7.1-7,2.7-11.9,7.5-8.1,14.2,0,0,8.6,6.9,21.7,5,13.1-1.9,19.8-7.2,20.3-10.8,0-.4,0-.7,0-1.1-.1.5-.3.8-.6,1.2-2.3,2.8-10.8,3.8-22.9-1.3Z"/>
    <path class="cls-2" d="M463.9,1295.4c-4.8-.4-11.2.4-16.4,2.4,2.4,2.6,5.8,5.2,10.3,7.1,12.1,5.2,20.6,4.1,22.9,1.3.3-.3.4-.7.6-1.2-.8-3.6-7.3-8.7-17.4-9.7Z"/>
    <path class="cls-2" d="M505.3,1280.7c-11.8,4-17,10.1-16.9,13.5.1,3.4,7.5,8,18.1,7,6.3-.6,15-4,19.3-8.7l1.8-9c-.3-.6-.8-1.3-1.3-1.9,0,0-9.2-4.9-21-.9Z"/>
    <path class="cls-2" d="M506.2,1312.3c-11.1-5.7-19.1-5.3-21.4-2.8s-.6,10.9,7.5,17.8c2.3,2,5.4,3.9,8.8,5.4,6.5-1.4,12.4-2.8,17.6-4.1l.6-2.9c-1.5-3.3-5.2-9.4-13-13.4Z"/>
    <path class="cls-2" d="M407.5,1331.7c-10.2-4.8-30.9-6.3-28.7,7,0,0,1.4,2.3,4.3,4.9,12.6.5,24.9.3,36.8-.3-1.5-3.7-5.6-8.5-12.4-11.7Z"/>
    <path class="cls-2" d="M367,1336.1c1.5-3.3-3.3-11.1-13.9-15.1-6.2-2.4-15.8-3.3-22.1-1l-2.7,13.7c2.2,1.9,5.5,4.2,9.9,5.8,4.8.8,9.6,1.4,14.3,2,8.3-.2,13.3-2.8,14.4-5.3Z"/>
    <path class="cls-2" d="M612.7,739.1c-11.8,4-17,10.1-16.9,13.5.1,3.4,7.5,8,18.1,7,6.5-.6,15.5-4.2,19.7-9.1l1.6-8.2c-.3-.8-.8-1.6-1.5-2.3,0,0-9.2-4.9-21-.9Z"/>
    <path class="cls-2" d="M613.6,770.6c-11.1-5.7-19.1-5.3-21.4-2.8s-.6,10.9,7.5,17.8c6.7,5.7,20.4,11.1,25.8,5.7l1.4-6.9c-1.4-3.2-5.1-9.7-13.2-13.8Z"/>
    <path class="cls-2" d="M620.8,671.8c-11.8,4-17,10.1-16.9,13.5.1,3.4,7.5,8,18.1,7,10.6-1,28-9.9,19.8-19.6,0,0-9.2-4.9-21-.9Z"/>
    <path class="cls-2" d="M621.8,703.4c-11.1-5.7-19.1-5.3-21.4-2.8-2.3,2.4-.6,10.9,7.5,17.8,8,6.9,26.5,13.4,27.9.7,0,0-2.8-10-13.9-15.7Z"/>
    <path class="cls-2" d="M635.5,598.7c-11.8,4-17,10.1-16.9,13.5.1,3.4,7.5,8,18.1,7,10.6-1,28-9.9,19.8-19.6,0,0-9.2-4.9-21-.9Z"/>
    <path class="cls-2" d="M636.4,630.3c-11.1-5.7-19.1-5.3-21.4-2.8s-.6,10.9,7.5,17.8c8,6.9,26.5,13.4,27.9.7,0,0-2.8-10-13.9-15.7Z"/>
    <path class="cls-2" d="M672.7,538.2l-.7,4.3c.7-1.4,1-2.8.7-4.3Z"/>
    <path class="cls-2" d="M649.7,533.2c-11.8,4-17,10.1-16.9,13.5.1,3.4,7.5,8,18.1,7,7.4-.7,18.1-5.2,21.1-11.2l.7-4.3c-.2-1.3-.8-2.7-2-4.1,0,0-9.2-4.9-21-.9Z"/>
    <path class="cls-2" d="M636.7,579.8c8,6.9,26.5,13.4,27.9.7,0,0-2.8-10-13.9-15.7-11.1-5.7-19.1-5.3-21.4-2.8s-.6,10.9,7.5,17.8Z"/>
    <path class="cls-2" d="M664.1,461.7c-11.8,4-17,10.1-16.9,13.5.1,3.4,7.5,8,18.1,7,5.9-.6,14-3.6,18.5-7.9l1.9-10.9c-.2-.3-.4-.5-.6-.8,0,0-9.2-4.9-21-.9Z"/>
    <path class="cls-2" d="M678.9,509s-.2-.8-.8-2l-1.2,6.8c1-1.1,1.7-2.7,2-4.8Z"/>
    <path class="cls-2" d="M665,493.3c-11.1-5.7-19.1-5.3-21.4-2.8s-.6,10.9,7.5,17.8c6.7,5.8,20.7,11.2,25.9,5.5l1.2-6.8c-1.4-3.2-5.1-9.6-13.1-13.7Z"/>
    <path class="cls-2" d="M676.4,398.2c-11.8,4-17,10.1-16.9,13.5.1,3.4,7.5,8,18.1,7,5.3-.5,12.3-3,17-6.5l2.3-13.3c-2.1-1-10.3-4.1-20.4-.6Z"/>
    <path class="cls-2" d="M677.9,426.9c-11.1-5.7-19.1-5.3-21.4-2.8s-.6,10.9,7.5,17.8c6.1,5.3,18.2,10.2,24.3,6.8l1.8-10.2c-1.9-3.4-5.6-8.3-12.1-11.6Z"/>
    <path class="cls-2" d="M688.8,324.5c-11.8,4-17,10.1-16.9,13.5.1,3.4,7.5,8,18.1,7,5.3-.5,12.3-3,17-6.6.3-3.2.6-7.9.7-13.9-3.4-1.2-10.4-2.9-18.8,0Z"/>
    <path class="cls-2" d="M675.5,248.1c-9.9,7.6-12.9,15.1-11.6,18.2,1.2,3.1,9.6,5.1,19.3.8,5.8-2.6,13-8.7,15.5-14.5-.9-3.4-2-6.9-3.1-10.4-.6,0-10.6-1.4-20.1,5.9Z"/>
    <path class="cls-2" d="M689.7,356.1c-11.1-5.7-19.1-5.3-21.4-2.8-2.3,2.4-.6,10.9,7.5,17.8,6.3,5.4,18.8,10.5,24.7,6.5l1.6-9.4c-1.8-3.4-5.5-8.6-12.4-12.2Z"/>
    <path class="cls-2" d="M698.6,297.6s-2.8-10-13.9-15.7c-11.1-5.7-19.1-5.3-21.4-2.8-2.3,2.4-.6,10.9,7.5,17.8,8,6.9,26.5,13.4,27.9.7Z"/>
    <path class="cls-2" d="M641.1,171.4c5.4,4.7,15.5,9.1,22,7.7-.6-.8-1.3-1.7-1.9-2.5-7.2-9.2-14.9-17.4-23.1-24.6-2.1.2-3.6.8-4.4,1.6-2.3,2.4-.6,10.9,7.5,17.8Z"/>
    <path class="cls-2" d="M585.7,135.2c-1.1,3.2,3.9,10.2,14.1,13.3,8.8,2.7,24.7,1.8,26.2-6.4-6.6-4.9-13.4-9.2-20.3-13-11.9-.5-18.8,3-19.9,6.1Z"/>
    <path class="cls-2" d="M579.6,128.3s-4.1-4.9-11.8-7.4l-3.8,19.4c9.2,0,18.5-3.3,15.7-12Z"/>
    <path class="cls-2" d="M613.8,266.1c-1.1,3.2,4.1,10.1,14.4,13,10.2,2.8,29.7.8,25.5-11.2,0,0-6.8-7.9-19.3-8.3-12.4-.5-19.5,3.4-20.6,6.6Z"/>
    <path class="cls-2" d="M590.3,217.5c.9-3.3-4.7-9.9-15.1-12.1-10.4-2.3-29.7.8-24.9,12.6,0,0,7.3,7.5,19.7,7.2s19.3-4.4,20.2-7.7Z"/>
    <path class="cls-2" d="M614.8,201c12.2,2.6,19.8,0,21.4-2.9,1.6-3-2.3-10.7-11.9-15.2-9.6-4.6-29.1-5.9-27.1,6.6,0,0,5.4,8.9,17.5,11.5Z"/>
    <path class="cls-2" d="M589.9,186.5c1.4-3.1-3.2-10.5-13.1-14.3-5.2-2-13-2.9-18.9-1.5l-2.9,14.8c3.1,2.3,7.6,4.8,13.7,5.6,12.3,1.6,19.8-1.5,21.1-4.6Z"/>
    <path class="cls-2" d="M665.1,211c9.5.9,15.6,5.7,16.4,9.1,1-3.4-1.7-10.5-9.3-16.2-8.5-6.3-27.4-11.4-27.8,1.3,0,0,1.4,3.9,5.3,8,4.9-1.9,10.9-2.6,15.4-2.2Z"/>
    <path class="cls-2" d="M662.5,231.3c12.3-1.8,18.6-6.8,19.1-10.2,0-.3,0-.7,0-1.1-.1.4-.3.8-.5,1.1-2.2,2.6-10.2,3.6-21.6-1.3-4.2-1.8-7.4-4.3-9.7-6.7-6.6,2.5-11.2,7-7.7,13.4,0,0,8.1,6.5,20.5,4.7Z"/>
    <path class="cls-2" d="M659.4,219.9c11.4,4.9,19.4,3.9,21.6,1.3.2-.3.4-.7.5-1.1-.8-3.4-6.8-8.2-16.4-9.1-4.5-.4-10.5.4-15.4,2.2,2.3,2.4,5.5,4.9,9.7,6.7Z"/>
  </g>
</svg>