<?xml version="1.0" encoding="UTF-8"?>
<svg id="Livello_1" data-name="Livello 1" xmlns="http://www.w3.org/2000/svg" version="1.1" viewBox="0 0 830.2 1565.4">
  <defs>
    <style>
      .cls-1 {
        fill: #56b79e;
      }

      .cls-1, .cls-2 {
        stroke-width: 0px;
      }

      .cls-2 {
        fill: #4da290;
      }
    </style>
  </defs>
  <a href="index.html">
    <path class="cls-2" d="M80.9,1363c-4.5-2.7-12.5-3.8-23.6-5.2-18-2.2-33.2-3.5-39-8.2-5.8-4.7-14.6-11-17.3-3.4-2.7,7.6,1.7,17.3,21.9,25,20.3,7.7,37.9,10.7,48.9,9.5,0,0,5.7-.9,9.7-3.8-.6-4.3-.8-8.7-.6-13.9Z"/>
    <path class="cls-2" d="M58.4,1330.8c-16.4-1.9-22.8-3.3-29-7.8-6.2-4.5-15.8-11.3-20-8.8-4.3,2.5-3.6,10.2-2.4,12.5,1.2,2.3,24.4,18.1,38.2,21.6,11,2.8,25.8,4.7,36.9,2.5.6-5,1.6-10.6,2.8-17.1-6.8-1.3-16.3-1.8-26.4-3Z"/>
    <path class="cls-2" d="M87.4,1300c-15.2-2.1-37.2-4.9-48.9-9.5-11.6-4.7-22-8.9-25.9-5-4,3.9,1,17,16.1,22.9,0,0,21,9,35.9,9.8,7.8.4,16.5.9,23.4.4.9-4.2,2.2-10.2,3.8-17.7-1.3-.3-2.7-.6-4.3-.8Z"/>
    <path class="cls-2" d="M93.2,1270.2c-15.2-2.1-37.2-4.9-48.9-9.5-11.6-4.7-22-8.9-25.9-5-3.2,3.2-.5,12.6,8.9,19.1.8.5,5.9,3.5,11.4,5.6,9.4,3.7,21.9,7.2,31.6,8,8,.6,17,1.1,24,.4,1.2-5.4,2.4-11.3,3.8-17.7-1.4-.3-3-.7-4.9-.9Z"/>
    <path class="cls-2" d="M99.1,1240c-15.2-2.1-37.2-4.9-48.9-9.5-11.6-4.7-22-8.9-25.9-5-3.2,3.2-.5,12.6,8.9,19.1.8.5,5.9,3.5,11.4,5.6,9.4,3.7,21.9,7.2,31.6,8,8.2.6,17.5,1.1,24.6.4,1.2-5.6,2.4-11.4,3.7-17.5-1.5-.4-3.3-.8-5.4-1Z"/>
    <path class="cls-2" d="M104.9,1209.9c-15.2-2.1-37.2-4.9-48.9-9.5-11.6-4.7-22-8.9-25.9-5-3.2,3.2-.5,12.6,8.9,19.1.8.5,5.9,3.5,11.4,5.6,9.4,3.7,21.9,7.2,31.6,8,8.4.6,18,1.1,25.1.3,1.2-5.6,2.4-11.4,3.6-17.3-1.7-.5-3.6-.9-5.9-1.2Z"/>
    <path class="cls-2" d="M110.7,1179.8c-15.2-2.1-37.2-4.9-48.9-9.5-11.6-4.7-22-8.9-25.9-5-3.2,3.2-.5,12.6,8.9,19.1.8.5,5.9,3.5,11.4,5.6,9.4,3.7,21.9,7.2,31.6,8,8.7.6,18.5,1.1,25.7.2,1.2-5.6,2.4-11.3,3.6-17.1-1.8-.5-3.9-1-6.4-1.3Z"/>
    <path class="cls-2" d="M116.6,1149.6c-15.2-2.1-37.2-4.9-48.9-9.5-11.6-4.7-22-8.9-25.9-5-3.2,3.2-.5,12.6,8.9,19.1.8.5,5.9,3.5,11.4,5.6,9.4,3.7,21.9,7.2,31.6,8,8.9.7,19,1.2,26.2.2,1.2-5.6,2.4-11.2,3.5-16.9-1.8-.6-4.1-1.1-6.9-1.5Z"/>
    <path class="cls-2" d="M122.4,1119.5c-15.2-2.1-37.2-4.9-48.9-9.5-11.6-4.7-22-8.9-25.9-5-3.2,3.2-.5,12.6,8.9,19.1.8.5,5.9,3.5,11.4,5.6,9.4,3.7,21.9,7.2,31.6,8,9.1.7,19.4,1.2,26.7.1,1.2-5.6,2.3-11.1,3.5-16.6-1.9-.7-4.3-1.2-7.3-1.6Z"/>
    <path class="cls-2" d="M128.2,1089.4c-15.2-2.1-37.2-4.9-48.9-9.5-11.6-4.7-22-8.9-25.9-5-3.2,3.2-.5,12.6,8.9,19.1.8.5,5.9,3.5,11.4,5.6,9.4,3.7,21.9,7.2,31.6,8,9.3.7,19.9,1.2,27.3,0,1.2-5.5,2.3-11,3.4-16.4-2-.7-4.6-1.3-7.8-1.8Z"/>
    <path class="cls-2" d="M134.1,1059.2c-15.2-2.1-37.2-4.9-48.9-9.5-11.6-4.7-22-8.9-25.9-5-3.2,3.2-.5,12.6,8.9,19.1.8.5,5.9,3.5,11.4,5.6,9.4,3.7,21.9,7.2,31.6,8,9.5.7,20.5,1.2,27.8,0,1.2-5.5,2.3-10.9,3.4-16.1-2.1-.8-4.8-1.5-8.3-2Z"/>
    <path class="cls-2" d="M139.9,1029.1c-15.2-2.1-37.2-4.9-48.9-9.5-11.6-4.7-22-8.9-25.9-5-3.2,3.2-.5,12.6,8.9,19.1.8.5,5.9,3.5,11.4,5.6,9.4,3.7,21.9,7.2,31.6,8,9.8.7,21,1.3,28.3-.2,1.2-5.5,2.3-10.8,3.3-15.8-2.1-.9-5-1.6-8.7-2.1Z"/>
    <path class="cls-2" d="M145.7,999c-15.2-2.1-37.2-4.9-48.9-9.5-11.6-4.7-22-8.9-25.9-5-3.2,3.2-.5,12.6,8.9,19.1.8.5,5.9,3.5,11.4,5.6,9.4,3.7,21.9,7.2,31.6,8,10,.7,21.5,1.3,28.8-.3,1.2-5.6,2.3-10.8,3.3-15.5-2.2-1-5.1-1.8-9.2-2.3Z"/>
    <path class="cls-2" d="M151.6,968.9c-15.2-2.1-37.2-4.9-48.9-9.5-11.6-4.7-22-8.9-25.9-5-3.2,3.2-.5,12.6,8.9,19.1.8.5,5.9,3.5,11.4,5.6,9.4,3.7,21.9,7.2,31.6,8,10.2.8,22.1,1.3,29.3-.4,1.6-7.4,2.7-12.7,3.2-15.2-2.2-1.1-5.3-2-9.6-2.5Z"/>
    <path class="cls-2" d="M157.4,938.7c-15.2-2.1-37.2-4.9-48.9-9.5-11.6-4.7-22-8.9-25.9-5-3.2,3.2-.5,12.6,8.9,19.1.8.5,5.9,3.5,11.4,5.6,9.4,3.7,21.9,7.2,31.6,8,10.4.8,22.5,1.3,29.7-.5l3-15c-2.2-1.1-5.4-2-9.8-2.7Z"/>
    <path class="cls-2" d="M163.2,908.6c-15.2-2.1-37.2-4.9-48.9-9.5-11.6-4.7-22-8.9-25.9-5-3.2,3.2-.5,12.6,8.9,19.1.8.5,5.9,3.5,11.4,5.6,9.4,3.7,21.9,7.2,31.6,8,10.5.8,22.7,1.4,29.9-.5l3-14.9c-2.2-1.2-5.4-2.1-10-2.7Z"/>
    <path class="cls-2" d="M169.1,878.5c-15.2-2.1-37.2-4.9-48.9-9.5-11.6-4.7-22-8.9-25.9-5-3.2,3.2-.5,12.6,8.9,19.1.8.5,5.9,3.5,11.4,5.6,9.4,3.7,21.9,7.2,31.6,8,10.6.8,23,1.4,30.1-.6l2.9-14.7c-2.2-1.2-5.5-2.2-10.2-2.8Z"/>
    <path class="cls-2" d="M174.9,848.3c-15.2-2.1-37.2-4.9-48.9-9.5-11.6-4.7-22-8.9-25.9-5-3.2,3.2-.5,12.6,8.9,19.1.8.5,5.9,3.5,11.4,5.6,9.4,3.7,21.9,7.2,31.6,8,10.7.8,23.2,1.4,30.3-.6l2.9-14.6c-2.2-1.3-5.5-2.3-10.4-2.9Z"/>
    <path class="cls-2" d="M180.7,818.2c-15.2-2.1-37.2-4.9-48.9-9.5-11.6-4.7-22-8.9-25.9-5-3.2,3.2-.5,12.6,8.9,19.1.8.5,5.9,3.5,11.4,5.6,9.4,3.7,21.9,7.2,31.6,8,10.8.8,23.5,1.4,30.6-.7l2.9-14.4c-2.2-1.3-5.6-2.4-10.5-3.1Z"/>
    <path class="cls-2" d="M186.6,788.1c-15.2-2.1-37.2-4.9-48.9-9.5-11.6-4.7-22-8.9-25.9-5-3.2,3.2-.5,12.6,8.9,19.1.8.5,5.9,3.5,11.4,5.6,9.4,3.7,21.9,7.2,31.6,8,10.9.8,23.7,1.4,30.8-.8l2.8-14.2c-2.2-1.4-5.6-2.5-10.7-3.2Z"/>
    <path class="cls-2" d="M192.4,757.9c-15.2-2.1-37.2-4.9-48.9-9.5-11.6-4.7-22-8.9-25.9-5-3.2,3.2-.5,12.6,8.9,19.1.8.5,5.9,3.5,11.4,5.6,9.4,3.7,21.9,7.2,31.6,8,11,.8,24,1.4,31-.8l2.8-14c-2.2-1.4-5.7-2.5-10.9-3.3Z"/>
    <path class="cls-2" d="M198.2,727.8c-15.2-2.1-37.2-4.9-48.9-9.5-11.6-4.7-22-8.9-25.9-5-3.2,3.2-.5,12.6,8.9,19.1.8.5,5.9,3.5,11.4,5.6,9.4,3.7,21.9,7.2,31.6,8,11.2.8,24.3,1.4,31.2-.9l2.8-13.8c-2.2-1.5-5.7-2.7-11.1-3.4Z"/>
    <path class="cls-2" d="M204.1,697.7c-15.2-2.1-37.2-4.9-48.9-9.5-11.6-4.7-22-8.9-25.9-5-3.2,3.2-.5,12.6,8.9,19.1.8.5,5.9,3.5,11.4,5.6,9.4,3.7,21.9,7.2,31.6,8,11.3.8,24.5,1.4,31.4-1l2.7-13.6c-2.2-1.5-5.7-2.8-11.3-3.5Z"/>
    <path class="cls-2" d="M209.9,667.5c-15.2-2.1-37.2-4.9-48.9-9.5-11.6-4.7-22-8.9-25.9-5-3.2,3.2-.5,12.6,8.9,19.1.8.5,5.9,3.5,11.4,5.6,9.4,3.7,21.9,7.2,31.6,8,11.4.8,24.8,1.5,31.6-1.1l2.7-13.4c-2.1-1.6-5.8-2.9-11.4-3.6Z"/>
    <path class="cls-2" d="M215.7,637.4c-15.2-2.1-37.2-4.9-48.9-9.5-11.6-4.7-22-8.9-25.9-5-3.2,3.2-.5,12.6,8.9,19.1.8.5,5.9,3.5,11.4,5.6,9.4,3.7,21.9,7.2,31.6,8,11.5.8,25.1,1.5,31.9-1.2l2.6-13.2c-2.1-1.7-5.8-3-11.6-3.8Z"/>
    <path class="cls-2" d="M221.6,607.3c-15.2-2.1-37.2-4.9-48.9-9.5-11.6-4.7-22-8.9-25.9-5-3.2,3.2-.5,12.6,8.9,19.1.8.5,5.9,3.5,11.4,5.6,9.4,3.7,21.9,7.2,31.6,8,11.7.9,25.4,1.5,32.1-1.2l2.6-13c-2.1-1.7-5.8-3.1-11.8-3.9Z"/>
    <path class="cls-2" d="M227.4,577.1c-15.2-2.1-37.2-4.9-48.9-9.5-11.6-4.7-22-8.9-25.9-5-3.2,3.2-.5,12.6,8.9,19.1.8.5,5.9,3.5,11.4,5.6,9.4,3.7,21.9,7.2,31.6,8,11.8.9,25.7,1.5,32.3-1.3l2.6-12.7c-2.1-1.8-5.8-3.2-12-4.1Z"/>
    <path class="cls-2" d="M233.2,547c-15.2-2.1-37.2-4.9-48.9-9.5-11.6-4.7-22-8.9-25.9-5-3.2,3.2-.5,12.6,8.9,19.1.8.5,5.9,3.5,11.4,5.6,9.4,3.7,21.9,7.2,31.6,8,11.9.9,26,1.5,32.5-1.4l2.5-12.5c-2-1.9-5.8-3.3-12.1-4.2Z"/>
    <path class="cls-2" d="M239.1,516.9c-15.2-2.1-37.2-4.9-48.9-9.5-11.6-4.7-22-8.9-25.9-5-3.2,3.2-.5,12.6,8.9,19.1.8.5,5.9,3.5,11.4,5.6,9.4,3.7,21.9,7.2,31.6,8,12.1.9,26.4,1.5,32.8-1.5l2.4-12.2c-2-1.9-5.8-3.5-12.3-4.4Z"/>
    <path class="cls-2" d="M244.9,486.7c-15.2-2.1-37.2-4.9-48.9-9.5-11.6-4.7-22-8.9-25.9-5-3.2,3.2-.5,12.6,8.9,19.1.8.5,5.9,3.5,11.4,5.6,9.4,3.7,21.9,7.2,31.6,8,12.4.9,27.1,1.6,33.2-1.8.7-3,1.6-6.9,2.6-11.3-1.8-2.3-5.6-4-12.9-5Z"/>
    <path class="cls-2" d="M250.7,456.6c-15.2-2.1-37.2-4.9-48.9-9.5-11.6-4.7-22-8.9-25.9-5-3.2,3.2-.5,12.6,8.9,19.1.8.5,5.9,3.5,11.4,5.6,9.4,3.7,21.9,7.2,31.6,8,13.3,1,29.2,1.7,34.4-2.6.7-3,1.4-6.1,2.1-9.3-1.3-2.8-5.1-5.1-13.6-6.3Z"/>
    <path class="cls-2" d="M262.6,427.6c-15.2-2.1-37.2-4.9-48.9-9.5-11.6-4.7-22-8.9-25.9-5-3.2,3.2-.5,12.6,8.9,19.1.8.5,5.9,3.5,11.4,5.6,9.4,3.7,21.9,7.2,31.6,8,9.9.7,21.3,1.3,28.6-.2,1.2-5.1,2.4-10.2,3.6-15.5-2.2-1-5.2-1.8-9.3-2.4Z"/>
    <path class="cls-2" d="M268.4,397.5c-15.2-2.1-37.2-4.9-48.9-9.5-11.6-4.7-22-8.9-25.9-5-3.2,3.2-.5,12.6,8.9,19.1.8.5,5.9,3.5,11.4,5.6,9.4,3.7,21.9,7.2,31.6,8,10.5.8,22.6,1.4,29.8-.5,1.1-4.9,2.3-9.8,3.4-14.7-2.2-1.3-5.5-2.3-10.4-2.9Z"/>
    <path class="cls-2" d="M274.2,367.4c-15.2-2.1-37.2-4.9-48.9-9.5-11.6-4.7-22-8.9-25.9-5-3.2,3.2-.5,12.6,8.9,19.1.8.5,5.9,3.5,11.4,5.6,9.4,3.7,21.9,7.2,31.6,8,11.1.8,24.2,1.4,31.1-.9,1.1-4.6,2.2-9.2,3.2-13.6-2.1-1.6-5.8-2.9-11.5-3.7Z"/>
    <path class="cls-2" d="M285.7,335.5c-15.2-2.1-37.2-4.9-48.9-9.5-11.6-4.7-22-8.9-25.9-5-3.2,3.2-.5,12.6,8.9,19.1.8.5,5.9,3.5,11.4,5.6,9.4,3.7,21.9,7.2,31.6,8,9.2.7,19.7,1.2,27,0,1.4-5.8,2.7-11.3,4-16.3-2-.8-4.7-1.4-8.1-1.9Z"/>
    <path class="cls-2" d="M302.3,305.8c-2.2-1.2-5.5-2.2-10.2-2.9-15.2-2.1-37.2-4.9-48.9-9.5-11.6-4.7-22-8.9-25.9-5-3.2,3.2-.5,12.6,8.9,19.1.8.5,5.9,3.5,11.4,5.6,9.4,3.7,21.9,7.2,31.6,8,10.1.7,21.7,1.3,29-.3.2-.6.3-1.3.5-1.9,1-3.7,2.2-8.1,3.6-13.1Z"/>
    <path class="cls-2" d="M300.5,273.6c-15.2-2.1-37.2-4.9-48.9-9.5-11.6-4.7-22-8.9-25.9-5-3.2,3.2-.5,12.6,8.9,19.1.8.5,5.9,3.5,11.4,5.6,9.4,3.7,21.9,7.2,31.6,8,10,.7,21.6,1.3,28.9-.3,1.4-4.6,3-9.5,4.8-14.6-2.2-1.4-5.6-2.5-10.8-3.2Z"/>
    <path class="cls-2" d="M310.7,245.6c-14.7-4.4-36.1-10.5-46.9-16.9-10.8-6.4-20.4-12.2-24.9-8.9-3.7,2.7-2.4,12.4,5.9,20.3.7.6,5.3,4.3,10.4,7.3,8.7,5.1,20.6,10.5,30,12.7,10.7,2.5,23.3,5,30.6,3.9,1.6-4.4,3.3-8.9,5.1-13.5-2-1.7-5.2-3.4-10.3-4.9Z"/>
    <path class="cls-2" d="M321.7,216.6c-14.4-5.4-35.3-13-45.6-20.1-10.3-7.1-19.5-13.6-24.2-10.6-3.9,2.4-3.2,12.2,4.5,20.6.6.7,5,4.7,9.9,8,8.3,5.7,19.8,11.9,29.1,14.7,11.4,3.5,24.9,7.2,31.9,5.8,1.7-3.9,3.4-7.8,5.2-11.8-1.6-2.2-4.9-4.5-10.8-6.7Z"/>
    <path class="cls-2" d="M335.6,193.5c-13.6-7.1-33.4-17.1-42.8-25.5-9.4-8.3-17.7-15.8-22.7-13.5-4.1,1.9-4.7,11.7,2,21,.5.8,4.4,5.3,8.8,9.1,7.6,6.6,18.2,14.2,27.1,18.1,10.2,4.5,22.4,9.5,29.7,9.7,2.1-4.3,4.3-8.6,6.6-12.9-1.7-1.9-4.4-3.9-8.7-6.1Z"/>
    <path class="cls-2" d="M352.1,165.3c-13-8.2-31.8-19.9-40.5-29-8.6-9.1-16.3-17.3-21.5-15.4-4.3,1.6-5.7,11.3.2,21.1.5.8,3.9,5.6,8,9.9,7,7.3,16.9,15.7,25.5,20.4,10,5.5,21.8,11.6,29.1,12.2,2.5-4.1,5-8.1,7.6-11.9-1.4-2.1-4.1-4.5-8.4-7.2Z"/>
    <path class="cls-2" d="M373.7,143.9c-11.9-9.7-26.7-20.4-34.3-30.5-7.5-10-17.9-25.9-23.3-24.8-6,1.1-9.4,15-4.7,25.4.4.8,3.2,6,6.8,10.7,6.1,8,17.3,20.5,25.2,26.1,8.4,5.9,17.1,11.2,23.5,12.6,3.7-5.1,7.6-10,11.7-14.6-1.1-1.5-2.7-3.2-4.9-5Z"/>
    <path class="cls-2" d="M399.2,128.7c-.9-1.6-2.2-3.3-4.1-5.2-10.7-11-24.3-23.3-30.6-34.1-6.3-10.8-14.8-27.7-20.4-27.3-6.1.4-11,13.8-7.6,24.7.3.9,2.5,6.4,5.5,11.4,5.1,8.6,14.9,22.3,22.1,28.8,7.2,6.5,14.8,12.4,20.9,14.8,4.5-4.7,9.2-9.1,14.1-13.1Z"/>
    <path class="cls-2" d="M417,105c-9.9-11.7-22.5-25-28.1-36.2-5.6-11.2-12.8-28.7-18.4-28.7-6.1,0-12,13-9.3,24.1.2.9,2.1,6.5,4.7,11.8,4.5,9,13.2,23.3,20,30.3,7,7.3,14.6,14,20.6,16.6,4.9-3.6,10-6.8,15.2-9.8-.5-2.2-2-4.9-4.7-8.2Z"/>
    <path class="cls-1" d="M503,1447.4c6.1,15.2,27.4,29.1,30.1,32.4.8,1,13.2,10.2,14.9,12.6,6.7,9.4,10.6,11,15.7,11.2,9,.3,6-14.2,2.9-22-4.6-11.4-34.1-38.8-40.6-43.8-2.3-1.7-6.4-3.1-10.7-3.4-2.9,4-6.8,8.2-12.2,13Z"/>
    <path class="cls-1" d="M469.1,1470.6c5.7,14.3,20.5,28.3,22.3,31.6.6,1.1,11.3,12.3,12.5,14.9,5,10.4,8.5,12.7,13.5,13.7,8.8,1.9,8.4-13,6.6-21.2-2.6-12-27-44.1-32.5-50.1-.5-.6-1.2-1.1-2-1.7-1.4,1-2.9,2.1-4.5,3.2-5.1,3.6-10.5,6.7-16,9.5Z"/>
    <path class="cls-2" d="M448.4,101.8c.5-2.3,0-5.2-1.9-8.8-7-13.6-19.2-25.1-24-41.3-3.5-12-6-30.8-11.4-32.1-2.6-.6-15,2.2-17.5,25-1.8,17.1,13.9,37.3,17.5,43,6.1,9.4,12.4,18.5,18,21.9,2.9-1.4,5.8-2.7,8.9-3.8,3.5-1.4,7-2.6,10.4-3.8Z"/>
    <path class="cls-2" d="M481.1,83.2c-4.9-14.6-15.1-27.7-17.4-44.5-1.7-12.4-3.9-30.3-9.1-32.4-2.5-1-15.1-.1-21,22.1-4.4,16.6,8,39,10.8,45.1,4.7,10.5,9.8,20.8,14.9,24.7,7.5-2.2,14.8-4,21.7-5.4,1.3-2.4,1.5-5.5.1-9.7Z"/>
    <path class="cls-2" d="M513.8,82.4c-1.1-14.7-7.7-29.4-5.7-45.5,1.5-12,3.8-29.1-.7-32.3-2.2-1.5-14.6-3.7-25.9,15.5-8.4,14.4-2,38.2-.8,44.6,1.9,11,4.3,21.8,8.3,26.6,8.6-1.4,16.6-2.3,24.1-2.7.7-1.6,1-3.7.8-6.2Z"/>
    <path class="cls-2" d="M549.9,80c.8-14.7-3.9-30.1.1-45.9,3-11.7,7.5-28.4,3.5-32.1-2-1.8-14-5.6-27.7,12.1-10.2,13.2-6.8,37.7-6.5,44.1.6,13.5,1.9,26.8,7.3,30.1,6.8,0,13,.5,18.5,1.1,2.6-1.5,4.5-4.3,4.8-9.3Z"/>
    <path class="cls-2" d="M579.4,96.4c2.4-1.3,4.2-3.8,5-8.2,2.7-14.5,0-30.4,6-45.5,4.5-11.2,11-27.2,7.5-31.4-1.7-2-13.2-7.3-29,8.5-11.8,11.8-11.5,36.5-12.1,42.9-.9,11.6-1.4,23.2,1.7,28.7,2.7.5,5,1.1,7,1.6,4.6,1,9.2,2.1,13.8,3.4Z"/>
    <path class="cls-2" d="M616.1,100.5c5.8-13.6,6.6-29.6,15.8-43.1,6.8-9.9,16.8-24.1,14.2-29-1.2-2.3-11.3-10-30.1,1.9-14.1,8.9-19.3,33-21.2,39.2-4,13-7.5,26-3.3,30.8,5.8,2.1,11.6,4.5,17.3,7.2,2.8-.6,5.4-2.7,7.3-7Z"/>
    <path class="cls-2" d="M645,119.6c7.7-12.6,10.8-28.4,21.9-40.4,8.2-8.9,20.1-21.4,18.2-26.6-.9-2.5-9.7-11.6-30.1-2.5-15.2,6.8-23.9,29.9-26.6,35.8-5,10.4-9.5,20.9-8.7,27.2,6.5,3.5,13,7.5,19.5,11.9,2.1-.8,4.1-2.4,5.9-5.4Z"/>
    <path class="cls-2" d="M670.3,138.9c10.6-10.3,14.4-25.5,28.1-34.3,10.1-6.5,27.2-17.1,26.7-22.6-.2-2.6-5.8-11.6-27.8-7.9-16.4,2.8-30.6,23-34.7,28-9.2,11-17.8,22.3-14.5,28.2.3.6.7,1.2,1.1,1.9,4.3,3.3,8.6,6.8,12.8,10.5,2.5.1,5.3-.9,8.3-3.8Z"/>
    <path class="cls-2" d="M685.1,166.2c2.7.9,6,.4,9.8-2.4,11.9-8.7,17.8-23.2,32.5-30.1,10.9-5.1,29.3-13.2,29.6-18.7.1-2.6-4.2-12.3-26.4-11.6-16.7.5-33.4,18.6-38.2,22.9-10.7,9.6-20.8,19.7-18.3,25.9.3.8.7,1.8,1.2,2.9,3.5,3.6,6.7,7.3,9.8,11.1Z"/>
    <path class="cls-2" d="M710.8,194.8c13-6.9,21-20.4,36.6-25,11.6-3.4,30.9-8.8,32-14.1.5-2.6-2.3-12.8-24.5-15.4-16.6-2-35.8,13.5-41.2,17.1-9.6,6.4-18.8,13.1-21.4,18.8,4.5,6.6,8.5,13.4,12.1,20.4,1.8,0,3.9-.5,6.3-1.8Z"/>
    <path class="cls-2" d="M725.8,226.1c13.7-5.5,23-18.1,39-21.1,11.9-2.2,31.7-5.6,33.3-10.8.8-2.5-1-12.9-22.7-17.8-16.3-3.6-37,9.8-42.7,12.8-10.6,5.6-20.8,11.5-23.5,17.2,2.9,6.6,5.5,13.4,7.7,20.2,2.3,1,5.2,1.1,9-.5Z"/>
    <path class="cls-2" d="M735.9,256.8c14.2-3.8,25-15.2,41.2-16.3,12-.8,32.1-1.7,34.4-6.7,1.1-2.4.6-13-20.4-20.4-15.7-5.6-37.9,5.2-44,7.5-13.4,5.1-26.5,10.8-26.4,17.5,0,.3,0,.6,0,1,1.2,4.7,2.4,9.3,3.3,14,2.2,3.2,5.8,5,11.9,3.4Z"/>
    <path class="cls-2" d="M737.9,285.3c9.4-2.8,24.8-7.7,37.9-8.1,20.2-.6,42.5,7.9,45.5,1.1,3-6.8.4-18.2-9.6-24-3.9-2.3-12-5.3-26.7-4.5-22.8,1.4-50.3,10-52.4,11.4-2.6,1.7-4.6,4.4-5.8,7.4.8,5.3,1.6,10.7,2.1,15.9,2,1.5,5,2,9,.8Z"/>
    <path class="cls-2" d="M732.8,322.7c3.6-.1,37.1-13.2,56.4-10.8,19.3,2.3,33.9,12.8,35.9,3.1,2.7-12.9-5.1-19.9-19.1-25.2-21.3-7.9-48.9-4.2-54-2.7-4.5,1.3-16.7,4.5-21.7,12.8.5,7.7.7,15.1.8,22.2.6.4,1.1.6,1.7.6Z"/>
    <path class="cls-2" d="M738.1,352.7c6.4-2,17.9-7.5,30.7-7.4,15.4.1,30.4,3.3,40.9,6.2,6.9,1.9,23.9,10.7,18.7-9.2-3-11.7-15.1-16.9-35.3-22.2-20.2-5.3-48.3,3.3-53.6,5.2-3.5,1.3-6.6,5-8.6,9.4-.1,6-.4,11.6-.7,16.7,1.5,1.8,4.1,2.4,7.9,1.2Z"/>
    <path class="cls-2" d="M732.3,384.2c10.4,1,24.8-1.6,41.9.7,18.5,2.5,34.3,11.9,43.6,11.4,3.7-.2,5.4-4.4,5.9-7.2,1.7-10-4.8-18.2-14.4-23.4-9.6-5.2-16.5-8.5-35.4-11.3-18.6-2.8-41.5,2.3-44.3,7.6-.8,9-1.7,15.8-2.3,19.8,1,1.3,2.7,2.2,5.1,2.4Z"/>
    <path class="cls-2" d="M726.9,413.5c8.4-.3,33.1.5,41.3,1.6,0,0,14.5,1.4,23.1,4.5,8.6,3.1,21.7,13,25.6,4.3,3.9-8.7,3.4-16.3-18.8-25.3-22.2-9-55.8-10.9-60.3-10.7-5.1.2-10.4,1-12.6,4.5l-3.4,17.5c.7,2.3,2.3,3.8,5.1,3.7Z"/>
    <path class="cls-2" d="M724.2,441.2c2.4,1.3,9.9,3,15.3,2.7,5.4-.4,28.5,2.7,39,5.9,10.5,3.2,22.5,9.1,28.7,8.9,6.2-.2,9.8-10.4-3.4-22.9-13.2-12.6-42.6-13.3-48.1-13.8-5.5-.5-22.6-3-27.5-1.4-4.5,1.4-7.9.5-8.4.3l-3.3,16.8c.9-.6,5.4,2.3,7.7,3.5Z"/>
    <path class="cls-2" d="M717.9,473.8c2.4,1.3,9.9,3,15.3,2.7,5.4-.4,28.5,2.7,39,5.9,10.5,3.2,22.5,9.1,28.7,8.9,6.2-.2,9.8-10.4-3.4-22.9s-42.6-13.3-48.1-13.8c-5.5-.5-22.6-3-27.5-1.4-4.6,1.4-7.9.5-8.4.3l-3.3,16.8c.9-.7,5.4,2.3,7.7,3.5Z"/>
    <path class="cls-2" d="M711.5,506.4c2.4,1.3,9.9,3,15.3,2.7,5.4-.4,28.5,2.7,39,5.9,10.5,3.2,22.5,9.1,28.7,8.9,6.2-.2,9.8-10.4-3.4-22.9-13.2-12.6-42.6-13.3-48.1-13.8-5.5-.5-22.6-3-27.5-1.4-4.6,1.4-8,.5-8.4.3l-3.3,16.8c.9-.7,5.4,2.3,7.7,3.5Z"/>
    <path class="cls-2" d="M705.2,539.1c2.4,1.3,9.9,3,15.3,2.7,5.4-.4,28.5,2.7,39,5.9,10.5,3.2,22.5,9.1,28.7,8.9s9.8-10.4-3.4-22.9c-13.2-12.6-42.6-13.3-48.1-13.8-5.5-.5-22.6-3-27.5-1.4-4.6,1.4-8,.5-8.5.3l-3.3,16.9c.9-.7,5.4,2.3,7.7,3.5Z"/>
    <path class="cls-2" d="M698.9,571.7c2.4,1.3,9.9,3,15.3,2.7,5.4-.4,28.5,2.7,39,5.9,10.5,3.2,22.5,9.1,28.7,8.9,6.2-.2,9.8-10.4-3.4-22.9-13.2-12.6-42.6-13.3-48.1-13.8-5.5-.5-22.6-3-27.5-1.4-4.6,1.4-8,.5-8.5.3l-3.3,16.9c.9-.7,5.4,2.2,7.7,3.5Z"/>
    <path class="cls-2" d="M692.6,604.4c2.4,1.3,9.9,3,15.3,2.7,5.4-.4,28.5,2.7,39,5.9,10.5,3.2,22.5,9.1,28.7,8.9,6.2-.2,9.8-10.4-3.4-22.9-13.2-12.6-42.6-13.3-48.1-13.8-5.5-.5-22.6-3-27.5-1.4-4.6,1.4-8,.5-8.5.3l-3.3,16.9c.9-.7,5.4,2.2,7.7,3.5Z"/>
    <path class="cls-2" d="M686.3,637c2.4,1.3,9.9,3,15.3,2.7,5.4-.4,28.5,2.7,39,5.9,10.5,3.2,22.5,9.1,28.7,8.9,6.2-.2,9.8-10.4-3.4-22.9-13.2-12.6-42.6-13.3-48.1-13.8-5.5-.5-22.6-3-27.5-1.4-4.6,1.4-8,.5-8.5.3l-3.3,16.9c.9-.7,5.4,2.2,7.7,3.5Z"/>
    <path class="cls-2" d="M679.9,669.6c2.4,1.3,9.9,3,15.3,2.7,5.4-.4,28.5,2.7,39,5.9,10.5,3.2,22.5,9.1,28.7,8.9,6.2-.2,9.8-10.4-3.4-22.9s-42.6-13.3-48.1-13.8c-5.5-.5-22.6-3-27.5-1.4-4.6,1.5-8,.5-8.5.3l-3.3,16.9c.8-.8,5.4,2.2,7.7,3.5Z"/>
    <path class="cls-2" d="M673.6,702.3c2.4,1.3,9.9,3,15.3,2.7,5.4-.4,28.5,2.7,39,5.9,10.5,3.2,22.5,9.1,28.7,8.9,6.2-.2,9.8-10.4-3.4-22.9-13.2-12.6-42.6-13.3-48.1-13.8-5.5-.5-22.6-3-27.5-1.4-4.6,1.5-8.1.4-8.5.3l-3.3,16.9c.8-.8,5.4,2.2,7.7,3.5Z"/>
    <path class="cls-2" d="M667.3,734.9c2.4,1.3,9.9,3,15.3,2.7,5.4-.4,28.5,2.7,39,5.9,10.5,3.2,22.5,9.1,28.7,8.9,6.2-.2,9.8-10.4-3.4-22.9-13.2-12.6-42.6-13.3-48.1-13.8-5.5-.5-22.6-3-27.5-1.4-4.7,1.5-8.1.4-8.5.3l-3.3,16.9c.8-.8,5.4,2.2,7.7,3.5Z"/>
    <path class="cls-2" d="M661,767.6c2.4,1.3,9.9,3,15.3,2.7,5.4-.4,28.5,2.7,39,5.9,10.5,3.2,22.5,9.1,28.7,8.9,6.2-.2,9.8-10.4-3.4-22.9-13.2-12.6-42.6-13.3-48.1-13.8-5.5-.5-22.6-3-27.5-1.4-4.7,1.5-8.2.4-8.5.3l-3.3,16.9c.8-.8,5.4,2.2,7.8,3.5Z"/>
    <path class="cls-2" d="M654.7,800.2c2.4,1.3,9.9,3,15.3,2.7,5.4-.4,28.5,2.7,39,5.9,10.5,3.2,22.5,9.1,28.7,8.9,6.2-.2,9.8-10.4-3.4-22.9-13.2-12.6-42.6-13.3-48.1-13.8-5.5-.5-22.6-3-27.5-1.4-4.7,1.5-8.2.4-8.5.3l-3.3,16.9c.8-.8,5.4,2.2,7.8,3.5Z"/>
    <path class="cls-2" d="M648.3,832.8c2.4,1.3,9.9,3,15.3,2.7,5.4-.4,28.5,2.7,39,5.9,10.5,3.2,22.5,9.1,28.7,8.9,6.2-.2,9.8-10.4-3.4-22.9-13.2-12.6-42.6-13.3-48.1-13.8s-22.6-3-27.5-1.4c-4.8,1.5-8.3.4-8.5.3l-3.3,16.9c.8-.8,5.4,2.2,7.8,3.5Z"/>
    <path class="cls-2" d="M642,865.5c2.4,1.3,9.9,3,15.3,2.7,5.4-.4,28.5,2.7,39,5.9,10.5,3.2,22.5,9.1,28.7,8.9,6.2-.2,9.8-10.4-3.4-22.9-13.2-12.6-42.6-13.3-48.1-13.8s-22.6-3-27.5-1.4c-4.8,1.5-8.3.4-8.5.3l-3.3,16.9c.8-.9,5.4,2.2,7.8,3.5Z"/>
    <path class="cls-2" d="M635.7,898.1c2.4,1.3,9.9,3,15.3,2.7,5.4-.4,28.5,2.7,39,5.9,10.5,3.2,22.5,9.1,28.7,8.9,6.2-.2,9.8-10.4-3.4-22.9-13.2-12.6-42.6-13.3-48.1-13.8-5.5-.5-22.6-3-27.5-1.4-4.8,1.5-8.4.4-8.5.3l-3.3,16.9c.7-.9,5.4,2.2,7.8,3.5Z"/>
    <path class="cls-2" d="M629.4,930.8c2.4,1.3,9.9,3,15.3,2.7,5.4-.4,28.5,2.7,39,5.9,10.5,3.2,22.5,9.1,28.7,8.9,6.2-.2,9.8-10.4-3.4-22.9-13.2-12.6-42.6-13.3-48.1-13.8-5.5-.5-22.6-3-27.5-1.4-4.9,1.5-8.4.3-8.5.3l-3.3,16.9c.7-.9,5.4,2.2,7.8,3.5Z"/>
    <path class="cls-2" d="M623.1,963.4c2.4,1.3,9.9,3,15.3,2.7,5.4-.4,28.5,2.7,39,5.9,10.5,3.2,22.5,9.1,28.7,8.9,6.2-.2,9.8-10.4-3.4-22.9-13.2-12.6-42.6-13.3-48.1-13.8-5.5-.5-22.6-3-27.5-1.4-4.9,1.5-8.5.3-8.5.3l-3.3,16.9c.7-.9,5.4,2.2,7.8,3.5Z"/>
    <path class="cls-2" d="M608.8,992.7c0,0,0,0,.1-.1.7-.9,5.4,2.2,7.8,3.5,2.4,1.3,9.9,3,15.3,2.7,5.4-.4,28.5,2.7,39,5.9,10.5,3.2,22.5,9.1,28.7,8.9,6.2-.2,9.8-10.4-3.4-22.9-13.2-12.6-42.6-13.3-48.1-13.8-5.5-.5-22.6-3-27.5-1.4-4.9,1.6-8.5.3-8.5.3h0s0,0,0,0c0,0-1.2,6.2-3.4,17.1Z"/>
    <path class="cls-2" d="M602.6,1025.2c.7-.9,5.4,2.2,7.8,3.5,2.4,1.3,9.9,3,15.3,2.7,5.4-.4,28.5,2.7,39,5.9,10.5,3.2,22.5,9.1,28.7,8.9,6.2-.2,9.8-10.4-3.4-22.9-13.2-12.6-42.6-13.3-48.1-13.8-5.5-.5-22.6-3-27.5-1.4-4.9,1.6-8.5.3-8.5.3,0,0,0,0-.1-.2-1.1,5.3-2.2,11.2-3.5,17.5.1-.1.2-.3.4-.4Z"/>
    <path class="cls-2" d="M596.3,1057.9c.7-.9,5.4,2.2,7.8,3.5,2.4,1.3,9.9,3,15.3,2.7,5.4-.4,28.5,2.7,39,5.9,10.5,3.2,22.5,9.1,28.7,8.9,6.2-.2,9.8-10.4-3.4-22.9-13.2-12.6-42.6-13.3-48.1-13.8s-22.6-3-27.5-1.4c-4.9,1.6-8.5.3-8.5.3,0,0-.1-.2-.3-.3-1.1,5.7-2.3,11.7-3.6,18,.2-.2.4-.4.6-.7Z"/>
    <path class="cls-2" d="M590,1090.5c.7-.9,5.4,2.2,7.8,3.5s9.9,3,15.3,2.7c5.4-.4,28.5,2.7,39,5.9,10.5,3.2,22.5,9.1,28.7,8.9,6.2-.2,9.8-10.4-3.4-22.9-13.2-12.6-42.6-13.3-48.1-13.8-5.5-.5-22.6-3-27.5-1.4-4.9,1.6-8.5.3-8.5.3,0,0-.2-.3-.5-.5-1.2,5.9-2.4,12.1-3.7,18.3.3-.2.5-.5.8-.9Z"/>
    <path class="cls-2" d="M583.7,1123.2c.7-.9,5.4,2.2,7.8,3.5,2.4,1.3,9.9,3,15.3,2.7,5.4-.4,28.5,2.7,39,5.9,10.5,3.2,22.5,9.1,28.7,8.9,6.2-.2,9.8-10.4-3.4-22.9-13.2-12.6-42.6-13.3-48.1-13.8-5.5-.5-22.6-3-27.5-1.4-4.9,1.6-8.5.3-8.5.3,0,0-.2-.4-.6-.6-1.2,6.1-2.5,12.3-3.7,18.7.3-.2.7-.6,1.1-1.1Z"/>
    <path class="cls-2" d="M577.4,1155.8c.7-.9,5.4,2.2,7.8,3.5,2.4,1.3,9.9,3,15.3,2.7,5.4-.4,28.5,2.7,39,5.9,10.5,3.2,22.5,9.1,28.7,8.9,6.2-.2,9.8-10.4-3.4-22.9-13.2-12.6-42.6-13.3-48.1-13.8-5.5-.5-22.6-3-27.5-1.4-4.9,1.6-8.5.3-8.5.3,0,0-.3-.5-.8-.7-1.2,6.3-2.5,12.6-3.8,18.9.4-.2.8-.6,1.3-1.3Z"/>
    <path class="cls-2" d="M571.1,1188.4c.7-.9,5.4,2.2,7.8,3.5,2.4,1.3,9.9,3,15.3,2.7,5.4-.4,28.5,2.7,39,5.9,10.5,3.2,22.5,9.1,28.7,8.9,6.2-.2,9.8-10.4-3.4-22.9-13.2-12.6-42.6-13.3-48.1-13.8-5.5-.5-22.6-3-27.5-1.4-4.9,1.6-8.5.3-8.5.3,0,0-.4-.6-1-.8-1.3,6.4-2.5,12.7-3.8,19.1.4-.2.9-.6,1.5-1.4Z"/>
    <path class="cls-2" d="M564.7,1221.1c.7-.9,5.4,2.2,7.8,3.5,2.4,1.3,9.9,3,15.3,2.7,5.4-.4,28.5,2.7,39,5.9,10.5,3.2,22.5,9.1,28.7,8.9,6.2-.2,9.8-10.4-3.4-22.9-13.2-12.6-42.6-13.3-48.1-13.8-5.5-.5-22.6-3-27.5-1.4-4.9,1.6-8.5.3-8.5.3,0,0-.5-.7-1.2-.8-1.3,6.4-2.6,12.9-3.9,19.3.4-.1,1-.5,1.8-1.5Z"/>
    <path class="cls-2" d="M558.4,1253.7c.7-.9,5.4,2.2,7.8,3.5,2.4,1.3,9.9,3,15.3,2.7,5.4-.4,28.5,2.7,39,5.9,10.5,3.2,22.5,9.1,28.7,8.9,6.2-.2,9.8-10.4-3.4-22.9-13.2-12.6-42.6-13.3-48.1-13.8-5.5-.5-22.6-3-27.5-1.4-4.9,1.6-8.5.3-8.5.3,0,0-.6-.9-1.4-.9-1.3,6.5-2.6,13-3.9,19.3.5,0,1.1-.4,2-1.5Z"/>
    <path class="cls-2" d="M556.1,1289.7c2.4,1.3,9.9,3,15.3,2.7,5.4-.4,28.5,2.7,39,5.9,10.5,3.2,22.5,9.1,28.7,8.9,6.2-.2,9.8-10.4-3.4-22.9-13.2-12.6-42.6-13.3-48.1-13.8-5.5-.5-22.6-3-27.5-1.4-2.7.9-5,.9-6.6.7-1.1,5.7-2.3,11.3-3.4,16.8,1.8.7,4.4,2.4,5.9,3.2Z"/>
    <path class="cls-2" d="M549.9,1321.7c2.4,1.3,9.9,3,15.3,2.7,5.4-.4,28.5,2.7,39,5.9,10.5,3.2,22.5,9.1,28.7,8.9s9.8-10.4-3.4-22.9c-13.2-12.6-42.6-13.3-48.1-13.8-5.5-.5-22.6-3-27.5-1.4-2.9.9-5.3.9-6.8.7-1.1,5.7-2.3,11.3-3.4,16.7,1.8.7,4.5,2.4,6.1,3.3Z"/>
    <path class="cls-1" d="M543.4,1354.3c2.4,1.3,9.9,3,15.3,2.7,5.4-.4,28.5,2.7,39,5.9,10.5,3.2,22.5,9.1,28.7,8.9,6.2-.2,9.8-10.4-3.4-22.9-13.2-12.6-42.6-13.3-48.1-13.8-5.5-.5-22.6-3-27.5-1.4-2.9.9-5.3.9-6.8.7-1.2,5.8-2.3,11.4-3.4,16.7,1.8.7,4.6,2.4,6.2,3.3Z"/>
    <path class="cls-1" d="M536.5,1386.8c2.4,1.3,9.9,3,15.3,2.7,5.4-.4,28.5,2.7,39,5.9,10.5,3.2,22.5,9.1,28.7,8.9,6.2-.2,9.8-10.4-3.4-22.9-13.2-12.6-42.6-13.3-48.1-13.8-5.5-.5-22.6-3-27.5-1.4-2.7.8-5,.9-6.5.7-1.3,6.2-2.4,11.8-3.4,16.8,1.8.8,4.3,2.4,5.9,3.2Z"/>
    <path class="cls-1" d="M524.8,1410.9c1.4.5,4.5,3.6,6.2,5.1,2,1.8,9,5.1,14.3,5.9,5.3.8,27.2,8.9,36.8,14.3,9.6,5.4,20,13.8,26,14.9,6.1,1.2,11.8-8,1.7-23.1-10.1-15.2-38.7-22.2-43.9-23.9-5.2-1.7-21.4-7.8-26.5-7.4-5.2.4-10.4-5.2-10.4-5.2,0,0,0,0,0,0-1.8,8.8-3,14.5-3.5,16.4-.2,1.1-.5,2.1-.7,3.1Z"/>
    <path class="cls-1" d="M440.2,1519.4c.6,1.1,11.2,12.3,12.5,15,4.9,10.4,8.5,12.7,13.5,13.8,8.8,1.9,8.4-13,6.6-21.1-2.2-10.4-20.6-35.6-29.2-46.3-8.6,2.6-17.4,4.6-26.1,6,5.4,14.6,20.8,29.3,22.7,32.7Z"/>
    <path class="cls-1" d="M363,1489.9c0,.3,0,.6-.1.9-1.3,13.7,6.1,28,5,40.7-1,12.6-10.5,24.9,0,29.4,0,0,14.5,0,20.2-15,5.7-15.1,5.2-42.8,5.1-48.1,0-2.1-.5-5.1-1.5-8.2-10,.6-19.7.6-28.8.3Z"/>
    <path class="cls-1" d="M313.3,1486c-1.5,6.4.6,30.2-1,41.1-1.5,10.9-8.9,15.8-8.7,23.1.3,7.3-2.2,18.5,10.2,13.4.9-.4,15.4-10.4,22.3-31.9,3.9-12,6.5-29.6,8.1-42.9-12.4-1.1-22.9-2.7-30.6-4-.1.4-.3.8-.4,1.3Z"/>
    <path class="cls-1" d="M256.4,1513.8c-2.5,4.1-5.4,6.5-9.2,10-3.7,3.5-16.5,23.6-1.6,21.4,0,0,25.9-6.4,32.5-24.4,4.2-11.3,8.1-28.8,9.9-41-5.8-1.1-13.5-2.5-22.9-4.4-2.1,8.1-6.4,34.4-8.8,38.3Z"/>
    <path class="cls-1" d="M211.8,1502.2c-2.5,4.1-5.4,6.5-9.2,10-3.7,3.5-16.5,23.6-1.6,21.4,0,0,25.9-6.4,32.5-24.4,3.9-10.6,7.6-26.6,9.6-38.6-7.1-1.6-14.8-3.4-22.8-5.3-2.2,9.4-6.2,33.1-8.4,36.9Z"/>
    <path class="cls-1" d="M175.7,1470.6c-.4,3.3-4.7,15.8-7.9,19.1-3.1,3.3-19.3,13.3-20.3,17.2-1,4-4.9,9.4,13.2,9.5,0,0,20.4-3,37.1-27.7,6.8-9.9,10.6-18.8,12.7-25.9-9.2-2.3-18.9-4.9-28.9-7.6-2.9,4.7-5.2,10.1-5.8,15.3Z"/>
    <path class="cls-1" d="M166.7,1451.1c-2.2-.6-4.4-1.3-6.6-2.1-4.2-1.4-8.3-2.8-12.2-4.2-2.9,9.5-6,19.7-8.4,22.8-4,5.4-22.1,21.5-24,28.7-1.8,7.2,0,12.6,8,10.3,0,0,27.1-19,36-32.7,3.8-5.9,7.9-14,11-21.7,0,0,0,0,0,0-1.3-.4-2.6-.8-3.9-1.1Z"/>
    <path class="cls-1" d="M98.8,1466.5c-5.4,6.1-32.9,33.8-8.6,24.8,0,0,13.4-4.5,27.6-26,6.2-9.4,10.7-19,13.3-27.2-7.4-3.4-13.9-6.9-19.6-10.7-3.8,12.2-8.5,34.2-12.8,39.1Z"/>
    <path class="cls-1" d="M96.7,1414.5c-.8.9-1.7,1.9-2.6,3-9.8,12.2-24.4,28.9-27.2,30.7-2.8,1.8-13.9,7.2-15.4,10.7s2.7,7.6,11.6,9.4c2.7.5,27.2-11,41.1-30.9,2.8-4,5-7.5,6.7-10.4-5.7-3.9-10.4-8-14.2-12.4Z"/>
    <path class="cls-1" d="M82.7,1383.2c-2.8,1.7-6,4-9.4,7.2-12.7,11.8-31.8,23.9-40.9,23.4-9.1-.5-19.1,10.1-11.2,14.6,7.9,4.5,15.7,5.5,29.6,2.8,7.7-1.5,18.6-6.3,26.7-10.3,5.4-2.6,8.5-5.4,15.2-11.7-2.3-3.5-4.2-7.2-5.5-11.1-1.9-5.4-3.4-10.2-4.4-14.9Z"/>
  </a>
</svg>