<?xml version="1.0" encoding="UTF-8" standalone="no"?>
<svg
   id="Livello_1"
   viewBox="0 0 1356.63 1619.85"
   version="1.1"
   sodipodi:docname="rabies_genetic_material.svg"
   inkscape:version="1.3 (0e150ed, 2023-07-21)"
   xmlns:inkscape="http://www.inkscape.org/namespaces/inkscape"
   xmlns:sodipodi="http://sodipodi.sourceforge.net/DTD/sodipodi-0.dtd"
   xmlns="http://www.w3.org/2000/svg"
   xmlns:svg="http://www.w3.org/2000/svg">
  <sodipodi:namedview
     id="namedview158"
     pagecolor="#ffffff"
     bordercolor="#000000"
     borderopacity="0.25"
     inkscape:showpageshadow="2"
     inkscape:pageopacity="0.0"
     inkscape:pagecheckerboard="0"
     inkscape:deskcolor="#d1d1d1"
     inkscape:zoom="0.49017274"
     inkscape:cx="412.09962"
     inkscape:cy="515.12452"
     inkscape:window-width="2464"
     inkscape:window-height="1662"
     inkscape:window-x="899"
     inkscape:window-y="25"
     inkscape:window-maximized="0"
     inkscape:current-layer="g158" />
  <defs
     id="defs1">
    <style
       id="style1">.cls-1{clip-path:url(#clippath);}.cls-2,.cls-3,.cls-4{fill:none;}.cls-2,.cls-5,.cls-6,.cls-7,.cls-8{stroke-width:0px;}.cls-3{opacity:.8;stroke:#fff;stroke-width:4.3px;}.cls-3,.cls-4{stroke-miterlimit:10;}.cls-4{stroke:#222221;stroke-width:3.77px;}.cls-5{fill:#635089;}.cls-6{fill:#e9d777;}.cls-7{fill:#fff;opacity:.49;}.cls-8{fill:#4da290;}</style>
    <clipPath
       id="clippath">
      <rect
         class="cls-2"
         x="922.87"
         y="474.53"
         width="416.13"
         height="416.13"
         id="rect1" />
    </clipPath>
  </defs>
  <rect
     class="cls-8"
     x="923.35"
     y="470.23"
     width="416.13"
     height="416.13"
     id="rect2" />
  <polygon
     class="cls-7"
     points="923.35 470.23 476.22 797.65 477.31 889.5 923.35 887.5 923.35 470.23"
     id="polygon2" />
  <path
     style="color:#000000;fill:#ffffff;stroke-miterlimit:10;-inkscape-stroke:none;opacity:0.8"
     d="m 472.74023,791.86914 v 2.15039 99.17969 H 574.07031 V 791.86914 Z m 4.29883,4.30078 h 92.73047 v 92.73047 h -92.73047 z"
     id="rect3" />
  <g
     class="cls-1"
     clip-path="url(#clippath)"
     id="g158">
    <ellipse
       class="cls-5"
       cx="1064.57"
       cy="855.64"
       rx="15.26"
       ry="14.13"
       transform="translate(145.68 1866.13) rotate(-86.51)"
       id="ellipse3" />
    <ellipse
       class="cls-5"
       cx="968.48"
       cy="834.98"
       rx="15.26"
       ry="14.13"
       transform="translate(76.06 1750.81) rotate(-86.51)"
       id="ellipse4" />
    <ellipse
       class="cls-5"
       cx="1162.92"
       cy="853.26"
       rx="15.26"
       ry="14.13"
       transform="translate(240.41 1962.05) rotate(-86.51)"
       id="ellipse5" />
    <path
       class="cls-7"
       d="M1189.97,863.06c-7.58-1.95-12.2-10.17-10.33-18.37,1.87-8.2,9.54-13.27,17.12-11.32,7.58,1.95,12.2,10.17,10.33,18.37-1.87,8.2-9.54,13.27-17.12,11.32Z"
       id="path5" />
    <path
       class="cls-6"
       d="M1299.91,826.31c-5.83,2.11-12.52-2.66-14.94-10.65-2.42-7.99.36-16.17,6.19-18.28,5.83-2.11,12.52,2.66,14.94,10.65,2.42,7.99-.36,16.17-6.19,18.28Z"
       id="path6" />
    <ellipse
       class="cls-6"
       cx="1311.6"
       cy="777.16"
       rx="14.56"
       ry="6.11"
       transform="translate(314.46 1930.41) rotate(-79.8)"
       id="ellipse6" />
    <ellipse
       class="cls-7"
       cx="1321.75"
       cy="791.66"
       rx="6.11"
       ry="14.55"
       transform="translate(-67.65 125.85) rotate(-5.32)"
       id="ellipse7" />
    <ellipse
       class="cls-5"
       cx="1310.46"
       cy="803.52"
       rx="6.13"
       ry="14.52"
       transform="translate(-117.24 233.76) rotate(-9.76)"
       id="ellipse8" />
    <path
       class="cls-6"
       d="M1217.49,855.53c-7.58-1.95-12.2-10.17-10.33-18.37,1.87-8.2,9.54-13.27,17.12-11.32,7.58,1.95,12.2,10.17,10.33,18.37-1.87,8.2-9.54,13.27-17.12,11.32Z"
       id="path8" />
    <path
       class="cls-5"
       d="M1243.53,849.82c-7.58-1.95-12.2-10.17-10.33-18.37,1.87-8.2,9.54-13.27,17.12-11.32,7.58,1.95,12.2,10.17,10.33,18.37-1.87,8.2-9.54,13.27-17.12,11.32Z"
       id="path9" />
    <path
       class="cls-7"
       d="M1270.35,840.2c-7.13-1.83-11.42-9.8-9.59-17.8,1.83-8,9.09-13,16.21-11.17,7.13,1.83,11.42,9.8,9.59,17.8-1.83,8-9.09,13-16.21,11.17Z"
       id="path10" />
    <ellipse
       class="cls-7"
       cx="1094.61"
       cy="857.47"
       rx="15.26"
       ry="14.13"
       transform="translate(172.05 1897.82) rotate(-86.51)"
       id="ellipse10" />
    <ellipse
       class="cls-7"
       cx="1000.06"
       cy="843.32"
       rx="15.26"
       ry="14.13"
       transform="translate(97.39 1790.16) rotate(-86.51)"
       id="ellipse11" />
    <ellipse
       class="cls-7"
       cx="901.04"
       cy="819.73"
       rx="15.26"
       ry="14.13"
       transform="translate(27.96 1669.17) rotate(-86.51)"
       id="ellipse12" />
    <ellipse
       class="cls-6"
       cx="1128.81"
       cy="858.35"
       rx="15.26"
       ry="14.13"
       transform="translate(203.3 1932.78) rotate(-86.51)"
       id="ellipse13" />
    <ellipse
       class="cls-6"
       cx="1030.69"
       cy="850.24"
       rx="15.26"
       ry="14.13"
       transform="translate(119.25 1827.23) rotate(-86.51)"
       id="ellipse14" />
    <ellipse
       class="cls-6"
       cx="935.27"
       cy="828.06"
       rx="15.26"
       ry="14.13"
       transform="translate(51.78 1711.16) rotate(-86.51)"
       id="ellipse15" />
    <ellipse
       class="cls-5"
       cx="1068.36"
       cy="739.46"
       rx="7.64"
       ry="7.07"
       transform="translate(265.21 1760.8) rotate(-86.51)"
       id="ellipse16" />
    <ellipse
       class="cls-5"
       cx="1020.72"
       cy="738.55"
       rx="7.64"
       ry="7.07"
       transform="translate(221.37 1712.38) rotate(-86.51)"
       id="ellipse17" />
    <ellipse
       class="cls-5"
       cx="972.39"
       cy="743.31"
       rx="7.64"
       ry="7.07"
       transform="translate(171.23 1668.62) rotate(-86.51)"
       id="ellipse18" />
    <ellipse
       class="cls-5"
       cx="925.71"
       cy="749.08"
       rx="7.64"
       ry="7.07"
       transform="translate(121.64 1627.45) rotate(-86.51)"
       id="ellipse19" />
    <ellipse
       class="cls-5"
       cx="1114.83"
       cy="742.29"
       rx="7.64"
       ry="7.07"
       transform="translate(306.02 1809.85) rotate(-86.51)"
       id="ellipse20" />
    <ellipse
       class="cls-7"
       cx="1083.11"
       cy="740.36"
       rx="7.64"
       ry="7.07"
       transform="translate(278.16 1776.37) rotate(-86.51)"
       id="ellipse21" />
    <ellipse
       class="cls-7"
       cx="1035.61"
       cy="739.46"
       rx="7.64"
       ry="7.07"
       transform="translate(234.45 1728.1) rotate(-86.51)"
       id="ellipse22" />
    <ellipse
       class="cls-7"
       cx="988.76"
       cy="742.29"
       rx="7.64"
       ry="7.07"
       transform="translate(187.63 1684.01) rotate(-86.51)"
       id="ellipse23" />
    <ellipse
       class="cls-7"
       cx="941.26"
       cy="747.99"
       rx="7.64"
       ry="7.07"
       transform="translate(137.33 1641.95) rotate(-86.51)"
       id="ellipse24" />
    <ellipse
       class="cls-6"
       cx="1098.97"
       cy="741.32"
       rx="7.64"
       ry="7.07"
       transform="translate(292.09 1793.11) rotate(-86.51)"
       id="ellipse25" />
    <ellipse
       class="cls-6"
       cx="1050.97"
       cy="739.46"
       rx="7.64"
       ry="7.07"
       transform="translate(248.88 1743.44) rotate(-86.51)"
       id="ellipse26" />
    <ellipse
       class="cls-6"
       cx="1004.62"
       cy="740.36"
       rx="7.64"
       ry="7.07"
       transform="translate(204.45 1698.02) rotate(-86.51)"
       id="ellipse27" />
    <ellipse
       class="cls-6"
       cx="957.94"
       cy="744.9"
       rx="7.64"
       ry="7.07"
       transform="translate(156.08 1655.7) rotate(-86.51)"
       id="ellipse28" />
    <ellipse
       class="cls-6"
       cx="907.72"
       cy="752.32"
       rx="7.64"
       ry="7.07"
       transform="translate(101.5 1612.53) rotate(-86.51)"
       id="ellipse29" />
    <ellipse
       class="cls-5"
       cx="1163.29"
       cy="745.25"
       rx="7.64"
       ry="7.07"
       transform="translate(348.58 1860.99) rotate(-86.51)"
       id="ellipse30" />
    <ellipse
       class="cls-7"
       cx="1131.57"
       cy="743.31"
       rx="7.64"
       ry="7.07"
       transform="translate(320.72 1827.51) rotate(-86.51)"
       id="ellipse31" />
    <ellipse
       class="cls-6"
       cx="1147.43"
       cy="744.28"
       rx="7.64"
       ry="7.07"
       transform="translate(334.65 1844.25) rotate(-86.51)"
       id="ellipse32" />
    <ellipse
       class="cls-5"
       cx="1207.28"
       cy="749.87"
       rx="10.02"
       ry="6.47"
       transform="translate(385.26 1909.24) rotate(-86.51)"
       id="ellipse33" />
    <ellipse
       class="cls-7"
       cx="1221.86"
       cy="751.47"
       rx="10.02"
       ry="6.47"
       transform="translate(397.37 1925.3) rotate(-86.51)"
       id="ellipse34" />
    <ellipse
       class="cls-7"
       cx="1179.25"
       cy="746.22"
       rx="7.64"
       ry="7.07"
       transform="translate(362.59 1877.84) rotate(-86.51)"
       id="ellipse35" />
    <ellipse
       class="cls-6"
       cx="1193.55"
       cy="749.04"
       rx="9.22"
       ry="6.38"
       transform="translate(373.21 1894.75) rotate(-86.51)"
       id="ellipse36" />
    <ellipse
       class="cls-5"
       cx="1253.96"
       cy="756.09"
       rx="12.64"
       ry="7.57"
       transform="translate(295.4 1863.01) rotate(-80.2)"
       id="ellipse37" />
    <ellipse
       class="cls-7"
       cx="1270.91"
       cy="760.32"
       rx="12.64"
       ry="7.57"
       transform="translate(305.3 1883.21) rotate(-80.2)"
       id="ellipse38" />
    <ellipse
       class="cls-5"
       cx="1301.5"
       cy="770.06"
       rx="13.55"
       ry="6.56"
       transform="translate(315.25 1916.44) rotate(-79.91)"
       id="ellipse39" />
    <ellipse
       class="cls-6"
       cx="1237.38"
       cy="752.69"
       rx="11.63"
       ry="7.47"
       transform="translate(288.08 1846.54) rotate(-80.36)"
       id="ellipse40" />
    <ellipse
       class="cls-6"
       cx="1286.55"
       cy="765.46"
       rx="12.92"
       ry="7.47"
       transform="translate(311.9 1901.76) rotate(-80.13)"
       id="ellipse41" />
    <path
       style="color:#000000;fill:#222221;stroke-miterlimit:10;-inkscape-stroke:none"
       d="m 1055.5996,737.56445 c -91.34366,0 -157.1953,13.36914 -157.1953,13.36914 l 0.75,3.69336 c 0,0 65.46916,-13.29101 156.4453,-13.29101 79.7204,0 127.9147,6.94139 155.375,9.51172 27.9218,2.60942 54.0316,7.6043 73.6777,13.75781 9.8231,3.07675 18.0313,6.44943 23.9942,9.89844 5.9628,3.449 9.5547,7.02384 10.5371,9.94726 1,2.97593 0.1669,6.27137 -3.2949,10.36524 -3.4618,4.09386 -9.5299,8.69866 -18.2696,13.5332 -17.4793,9.66908 -45.594,20.32529 -84.9921,31.22266 -44.7587,12.37879 -99.3273,18.66979 -161.9512,12.79101 -82.01048,-7.69813 -155.12307,-37.02344 -155.12307,-37.02344 l -1.40429,3.5 c 0,0 73.4864,29.51549 156.17576,37.27735 63.076,5.92121 118.1074,-0.40897 163.3086,-12.91016 39.5618,-10.94261 67.8624,-21.63019 85.8106,-31.55859 8.974,-4.9642 15.3713,-9.72192 19.3242,-14.39649 3.9528,-4.67456 5.4833,-9.55289 3.9883,-14.00195 -1.5127,-4.50157 -5.8874,-8.34534 -12.2227,-12.00977 -6.3353,-3.66442 -14.7545,-7.10043 -24.7539,-10.23242 -19.9988,-6.26398 -46.305,-11.28348 -74.4531,-13.91406 -27.2397,-2.54967 -75.7871,-9.5293 -155.7266,-9.5293 z"
       id="path41" />
    <ellipse
       class="cls-5"
       cx="1060.84"
       cy="776"
       rx="15.26"
       ry="14.13"
       transform="translate(221.66 1787.61) rotate(-86.51)"
       id="ellipse42" />
    <ellipse
       class="cls-5"
       cx="964.75"
       cy="755.34"
       rx="15.26"
       ry="14.13"
       transform="translate(152.04 1672.29) rotate(-86.51)"
       id="ellipse43" />
    <ellipse
       class="cls-5"
       cx="1159.18"
       cy="773.62"
       rx="15.26"
       ry="14.13"
       transform="translate(316.39 1883.53) rotate(-86.51)"
       id="ellipse44" />
    <path
       class="cls-7"
       d="M1186.24,783.42c-7.58-1.95-12.2-10.17-10.33-18.37,1.87-8.2,9.54-13.27,17.12-11.32,7.58,1.95,12.2,10.17,10.33,18.37-1.87,8.2-9.54,13.27-17.12,11.32Z"
       id="path44" />
    <path
       class="cls-6"
       d="M1296.17,746.68c-5.83,2.11-12.52-2.66-14.94-10.65-2.42-7.99.36-16.17,6.19-18.28,5.83-2.11,12.52,2.66,14.94,10.65s-.36,16.17-6.19,18.28Z"
       id="path45" />
    <ellipse
       class="cls-6"
       cx="1307.86"
       cy="697.53"
       rx="14.56"
       ry="6.11"
       transform="translate(389.76 1861.2) rotate(-79.8)"
       id="ellipse45" />
    <ellipse
       class="cls-7"
       cx="1318.02"
       cy="712.03"
       rx="6.11"
       ry="14.55"
       transform="translate(-60.29 125.16) rotate(-5.32)"
       id="ellipse46" />
    <ellipse
       class="cls-5"
       cx="1306.73"
       cy="723.88"
       rx="6.13"
       ry="14.52"
       transform="translate(-103.79 231.97) rotate(-9.76)"
       id="ellipse47" />
    <path
       class="cls-6"
       d="M1213.76,775.9c-7.58-1.95-12.2-10.17-10.33-18.37,1.87-8.2,9.54-13.27,17.12-11.32,7.58,1.95,12.2,10.17,10.33,18.37-1.87,8.2-9.54,13.27-17.12,11.32Z"
       id="path47" />
    <path
       class="cls-5"
       d="M1239.8,770.19c-7.58-1.95-12.2-10.17-10.33-18.37,1.87-8.2,9.54-13.27,17.12-11.32,7.58,1.95,12.2,10.17,10.33,18.37-1.87,8.2-9.54,13.27-17.12,11.32Z"
       id="path48" />
    <path
       class="cls-7"
       d="M1266.61,760.56c-7.13-1.83-11.42-9.8-9.59-17.8,1.83-8,9.09-13,16.21-11.17,7.13,1.83,11.42,9.8,9.59,17.8-1.83,8-9.09,13-16.21,11.17Z"
       id="path49" />
    <ellipse
       class="cls-7"
       cx="1090.87"
       cy="777.84"
       rx="15.26"
       ry="14.13"
       transform="translate(248.04 1819.31) rotate(-86.51)"
       id="ellipse49" />
    <ellipse
       class="cls-7"
       cx="996.32"
       cy="763.68"
       rx="15.26"
       ry="14.13"
       transform="translate(173.38 1711.64) rotate(-86.51)"
       id="ellipse50" />
    <ellipse
       class="cls-7"
       cx="897.3"
       cy="740.09"
       rx="15.26"
       ry="14.13"
       transform="translate(103.94 1590.65) rotate(-86.51)"
       id="ellipse51" />
    <ellipse
       class="cls-6"
       cx="1125.07"
       cy="778.71"
       rx="15.26"
       ry="14.13"
       transform="translate(279.28 1854.27) rotate(-86.51)"
       id="ellipse52" />
    <ellipse
       class="cls-6"
       cx="1026.95"
       cy="770.6"
       rx="15.26"
       ry="14.13"
       transform="translate(195.23 1748.71) rotate(-86.51)"
       id="ellipse53" />
    <ellipse
       class="cls-6"
       cx="931.53"
       cy="748.43"
       rx="15.26"
       ry="14.13"
       transform="translate(127.76 1632.65) rotate(-86.51)"
       id="ellipse54" />
    <ellipse
       class="cls-5"
       cx="1064.63"
       cy="659.82"
       rx="7.64"
       ry="7.07"
       transform="translate(341.19 1682.28) rotate(-86.51)"
       id="ellipse55" />
    <ellipse
       class="cls-5"
       cx="1016.98"
       cy="658.91"
       rx="7.64"
       ry="7.07"
       transform="translate(297.35 1633.87) rotate(-86.51)"
       id="ellipse56" />
    <ellipse
       class="cls-5"
       cx="968.65"
       cy="663.67"
       rx="7.64"
       ry="7.07"
       transform="translate(247.21 1590.11) rotate(-86.51)"
       id="ellipse57" />
    <ellipse
       class="cls-5"
       cx="921.97"
       cy="669.44"
       rx="7.64"
       ry="7.07"
       transform="translate(197.62 1548.93) rotate(-86.51)"
       id="ellipse58" />
    <ellipse
       class="cls-5"
       cx="1111.1"
       cy="662.65"
       rx="7.64"
       ry="7.07"
       transform="translate(382 1731.33) rotate(-86.51)"
       id="ellipse59" />
    <ellipse
       class="cls-7"
       cx="1079.38"
       cy="660.72"
       rx="7.64"
       ry="7.07"
       transform="translate(354.15 1697.85) rotate(-86.51)"
       id="ellipse60" />
    <ellipse
       class="cls-7"
       cx="1031.87"
       cy="659.82"
       rx="7.64"
       ry="7.07"
       transform="translate(310.43 1649.59) rotate(-86.51)"
       id="ellipse61" />
    <ellipse
       class="cls-7"
       cx="985.03"
       cy="662.65"
       rx="7.64"
       ry="7.07"
       transform="translate(263.61 1605.49) rotate(-86.51)"
       id="ellipse62" />
    <ellipse
       class="cls-7"
       cx="937.52"
       cy="668.36"
       rx="7.64"
       ry="7.07"
       transform="translate(213.31 1563.43) rotate(-86.51)"
       id="ellipse63" />
    <ellipse
       class="cls-6"
       cx="1095.24"
       cy="661.69"
       rx="7.64"
       ry="7.07"
       transform="translate(368.07 1714.59) rotate(-86.51)"
       id="ellipse64" />
    <ellipse
       class="cls-6"
       cx="1047.24"
       cy="659.82"
       rx="7.64"
       ry="7.07"
       transform="translate(324.86 1664.93) rotate(-86.51)"
       id="ellipse65" />
    <ellipse
       class="cls-6"
       cx="1000.89"
       cy="660.72"
       rx="7.64"
       ry="7.07"
       transform="translate(280.44 1619.51) rotate(-86.51)"
       id="ellipse66" />
    <ellipse
       class="cls-6"
       cx="954.21"
       cy="665.26"
       rx="7.64"
       ry="7.07"
       transform="translate(232.06 1577.18) rotate(-86.51)"
       id="ellipse67" />
    <ellipse
       class="cls-6"
       cx="903.98"
       cy="672.68"
       rx="7.64"
       ry="7.07"
       transform="translate(177.49 1534.02) rotate(-86.51)"
       id="ellipse68" />
    <ellipse
       class="cls-5"
       cx="1159.56"
       cy="665.61"
       rx="7.64"
       ry="7.07"
       transform="translate(424.56 1782.48) rotate(-86.51)"
       id="ellipse69" />
    <ellipse
       class="cls-7"
       cx="1127.84"
       cy="663.67"
       rx="7.64"
       ry="7.07"
       transform="translate(396.7 1749) rotate(-86.51)"
       id="ellipse70" />
    <ellipse
       class="cls-6"
       cx="1143.7"
       cy="664.64"
       rx="7.64"
       ry="7.07"
       transform="translate(410.63 1765.74) rotate(-86.51)"
       id="ellipse71" />
    <ellipse
       class="cls-5"
       cx="1203.54"
       cy="670.24"
       rx="10.02"
       ry="6.47"
       transform="translate(461.25 1830.72) rotate(-86.51)"
       id="ellipse72" />
    <ellipse
       class="cls-7"
       cx="1218.13"
       cy="671.83"
       rx="10.02"
       ry="6.47"
       transform="translate(473.35 1846.78) rotate(-86.51)"
       id="ellipse73" />
    <ellipse
       class="cls-7"
       cx="1175.52"
       cy="666.58"
       rx="7.64"
       ry="7.07"
       transform="translate(438.58 1799.32) rotate(-86.51)"
       id="ellipse74" />
    <ellipse
       class="cls-6"
       cx="1189.81"
       cy="669.4"
       rx="9.22"
       ry="6.38"
       transform="translate(449.19 1816.23) rotate(-86.51)"
       id="ellipse75" />
    <ellipse
       class="cls-5"
       cx="1250.23"
       cy="676.46"
       rx="12.64"
       ry="7.57"
       transform="translate(370.78 1793.25) rotate(-80.2)"
       id="ellipse76" />
    <ellipse
       class="cls-7"
       cx="1267.17"
       cy="680.68"
       rx="12.64"
       ry="7.57"
       transform="translate(380.67 1813.45) rotate(-80.2)"
       id="ellipse77" />
    <ellipse
       class="cls-5"
       cx="1297.77"
       cy="690.42"
       rx="13.55"
       ry="6.56"
       transform="translate(390.57 1847.08) rotate(-79.91)"
       id="ellipse78" />
    <ellipse
       class="cls-6"
       cx="1233.65"
       cy="673.06"
       rx="11.63"
       ry="7.47"
       transform="translate(363.49 1776.56) rotate(-80.36)"
       id="ellipse79" />
    <ellipse
       class="cls-6"
       cx="1282.81"
       cy="685.82"
       rx="12.92"
       ry="7.47"
       transform="translate(387.26 1832.1) rotate(-80.13)"
       id="ellipse80" />
    <path
       style="color:#000000;fill:#222221;stroke-miterlimit:10;-inkscape-stroke:none"
       d="m 1051.8691,657.92578 c -91.34363,0 -157.19332,13.36719 -157.19332,13.36719 l 0.75,3.69531 c 0,0 65.46721,-13.29297 156.44332,-13.29297 79.7204,0 127.9148,6.9414 155.375,9.51172 27.9218,2.60942 54.0317,7.60431 73.6778,13.75781 9.823,3.07676 18.0313,6.44944 23.9941,9.89844 5.9629,3.449 9.5548,7.02384 10.5371,9.94727 1,2.97593 0.1689,6.27332 -3.2929,10.36718 -3.4619,4.09387 -9.5319,8.69671 -18.2715,13.53125 -17.4794,9.66909 -45.5921,20.32725 -84.9903,31.22461 -44.7586,12.37879 -99.3292,18.66784 -161.9531,12.78907 -82.01045,-7.69813 -155.12303,-37.02149 -155.12303,-37.02149 l -1.4043,3.49805 c 0,0 73.4864,29.51549 156.17583,37.27734 63.0759,5.92122 118.1073,-0.40897 163.3085,-12.91015 39.5618,-10.94262 67.8625,-21.6302 85.8106,-31.5586 8.9741,-4.9642 15.3733,-9.72191 19.3262,-14.39648 3.9528,-4.67457 5.4832,-9.55289 3.9882,-14.00196 -1.5126,-4.50156 -5.8873,-8.34533 -12.2226,-12.00976 -6.3353,-3.66443 -14.7565,-7.10043 -24.7559,-10.23242 -19.9988,-6.26399 -46.3049,-11.28349 -74.4531,-13.91407 -27.2397,-2.54967 -75.7871,-9.52734 -155.7266,-9.52734 z"
       id="path80" />
    <ellipse
       class="cls-5"
       cx="1060.84"
       cy="688.06"
       rx="15.26"
       ry="14.13"
       transform="translate(309.45 1705.02) rotate(-86.51)"
       id="ellipse81" />
    <ellipse
       class="cls-5"
       cx="964.75"
       cy="667.4"
       rx="15.26"
       ry="14.13"
       transform="translate(239.83 1589.7) rotate(-86.51)"
       id="ellipse82" />
    <ellipse
       class="cls-5"
       cx="1159.18"
       cy="685.67"
       rx="15.26"
       ry="14.13"
       transform="translate(404.18 1800.94) rotate(-86.51)"
       id="ellipse83" />
    <path
       class="cls-7"
       d="M1186.24,695.47c-7.58-1.95-12.2-10.17-10.33-18.37,1.87-8.2,9.54-13.27,17.12-11.32,7.58,1.95,12.2,10.17,10.33,18.37-1.87,8.2-9.54,13.27-17.12,11.32Z"
       id="path83" />
    <path
       class="cls-6"
       d="M1296.17,658.73c-5.83,2.11-12.52-2.66-14.94-10.65-2.42-7.99.36-16.17,6.19-18.28,5.83-2.11,12.52,2.66,14.94,10.65,2.42,7.99-.36,16.17-6.19,18.28Z"
       id="path84" />
    <ellipse
       class="cls-6"
       cx="1307.86"
       cy="609.58"
       rx="14.56"
       ry="6.11"
       transform="translate(476.32 1788.83) rotate(-79.8)"
       id="ellipse84" />
    <ellipse
       class="cls-7"
       cx="1318.02"
       cy="624.08"
       rx="6.11"
       ry="14.55"
       transform="translate(-52.14 124.78) rotate(-5.32)"
       id="ellipse85" />
    <ellipse
       class="cls-5"
       cx="1306.73"
       cy="635.93"
       rx="6.13"
       ry="14.52"
       transform="translate(-88.88 230.7) rotate(-9.76)"
       id="ellipse86" />
    <path
       class="cls-6"
       d="M1213.76,687.95c-7.58-1.95-12.2-10.17-10.33-18.37,1.87-8.2,9.54-13.27,17.12-11.32,7.58,1.95,12.2,10.17,10.33,18.37-1.87,8.2-9.54,13.27-17.12,11.32Z"
       id="path86" />
    <path
       class="cls-5"
       d="M1239.8,682.24c-7.58-1.95-12.2-10.17-10.33-18.37,1.87-8.2,9.54-13.27,17.12-11.32,7.58,1.95,12.2,10.17,10.33,18.37-1.87,8.2-9.54,13.27-17.12,11.32Z"
       id="path87" />
    <path
       class="cls-7"
       d="M1266.61,672.62c-7.13-1.83-11.42-9.8-9.59-17.8,1.83-8,9.09-13,16.21-11.17s11.42,9.8,9.59,17.8c-1.83,8-9.09,13-16.21,11.17Z"
       id="path88" />
    <ellipse
       class="cls-7"
       cx="1090.87"
       cy="689.89"
       rx="15.26"
       ry="14.13"
       transform="translate(335.82 1736.72) rotate(-86.51)"
       id="ellipse88" />
    <ellipse
       class="cls-7"
       cx="996.32"
       cy="675.73"
       rx="15.26"
       ry="14.13"
       transform="translate(261.16 1629.05) rotate(-86.51)"
       id="ellipse89" />
    <ellipse
       class="cls-7"
       cx="897.3"
       cy="652.14"
       rx="15.26"
       ry="14.13"
       transform="translate(191.72 1508.06) rotate(-86.51)"
       id="ellipse90" />
    <ellipse
       class="cls-6"
       cx="1125.07"
       cy="690.76"
       rx="15.26"
       ry="14.13"
       transform="translate(367.07 1771.68) rotate(-86.51)"
       id="ellipse91" />
    <ellipse
       class="cls-6"
       cx="1026.95"
       cy="682.65"
       rx="15.26"
       ry="14.13"
       transform="translate(283.02 1666.12) rotate(-86.51)"
       id="ellipse92" />
    <ellipse
       class="cls-6"
       cx="931.53"
       cy="660.48"
       rx="15.26"
       ry="14.13"
       transform="translate(215.55 1550.05) rotate(-86.51)"
       id="ellipse93" />
    <ellipse
       class="cls-5"
       cx="1064.63"
       cy="571.87"
       rx="7.64"
       ry="7.07"
       transform="translate(428.98 1599.69) rotate(-86.51)"
       id="ellipse94" />
    <ellipse
       class="cls-5"
       cx="1016.98"
       cy="570.96"
       rx="7.64"
       ry="7.07"
       transform="translate(385.14 1551.28) rotate(-86.51)"
       id="ellipse95" />
    <ellipse
       class="cls-5"
       cx="968.65"
       cy="575.73"
       rx="7.64"
       ry="7.07"
       transform="translate(335 1507.51) rotate(-86.51)"
       id="ellipse96" />
    <ellipse
       class="cls-5"
       cx="921.97"
       cy="581.5"
       rx="7.64"
       ry="7.07"
       transform="translate(285.4 1466.34) rotate(-86.51)"
       id="ellipse97" />
    <ellipse
       class="cls-5"
       cx="1111.1"
       cy="574.7"
       rx="7.64"
       ry="7.07"
       transform="translate(469.79 1648.74) rotate(-86.51)"
       id="ellipse98" />
    <ellipse
       class="cls-7"
       cx="1079.38"
       cy="572.77"
       rx="7.64"
       ry="7.07"
       transform="translate(441.93 1615.26) rotate(-86.51)"
       id="ellipse99" />
    <ellipse
       class="cls-7"
       cx="1031.87"
       cy="571.87"
       rx="7.64"
       ry="7.07"
       transform="translate(398.22 1567) rotate(-86.51)"
       id="ellipse100" />
    <ellipse
       class="cls-7"
       cx="985.03"
       cy="574.7"
       rx="7.64"
       ry="7.07"
       transform="translate(351.4 1522.9) rotate(-86.51)"
       id="ellipse101" />
    <ellipse
       class="cls-7"
       cx="937.52"
       cy="580.41"
       rx="7.64"
       ry="7.07"
       transform="translate(301.09 1480.84) rotate(-86.51)"
       id="ellipse102" />
    <ellipse
       class="cls-6"
       cx="1095.24"
       cy="573.74"
       rx="7.64"
       ry="7.07"
       transform="translate(455.86 1632) rotate(-86.51)"
       id="ellipse103" />
    <ellipse
       class="cls-6"
       cx="1047.24"
       cy="571.87"
       rx="7.64"
       ry="7.07"
       transform="translate(412.65 1582.33) rotate(-86.51)"
       id="ellipse104" />
    <ellipse
       class="cls-6"
       cx="1000.89"
       cy="572.77"
       rx="7.64"
       ry="7.07"
       transform="translate(368.22 1536.91) rotate(-86.51)"
       id="ellipse105" />
    <ellipse
       class="cls-6"
       cx="954.21"
       cy="577.31"
       rx="7.64"
       ry="7.07"
       transform="translate(319.85 1494.59) rotate(-86.51)"
       id="ellipse106" />
    <ellipse
       class="cls-6"
       cx="903.98"
       cy="584.74"
       rx="7.64"
       ry="7.07"
       transform="translate(265.27 1451.42) rotate(-86.51)"
       id="ellipse107" />
    <ellipse
       class="cls-5"
       cx="1159.56"
       cy="577.66"
       rx="7.64"
       ry="7.07"
       transform="translate(512.35 1699.88) rotate(-86.51)"
       id="ellipse108" />
    <ellipse
       class="cls-7"
       cx="1127.84"
       cy="575.73"
       rx="7.64"
       ry="7.07"
       transform="translate(484.49 1666.41) rotate(-86.51)"
       id="ellipse109" />
    <ellipse
       class="cls-6"
       cx="1143.7"
       cy="576.69"
       rx="7.64"
       ry="7.07"
       transform="translate(498.42 1683.15) rotate(-86.51)"
       id="ellipse110" />
    <ellipse
       class="cls-5"
       cx="1203.54"
       cy="582.29"
       rx="10.02"
       ry="6.47"
       transform="translate(549.03 1748.13) rotate(-86.51)"
       id="ellipse111" />
    <ellipse
       class="cls-7"
       cx="1218.13"
       cy="583.88"
       rx="10.02"
       ry="6.47"
       transform="translate(561.14 1764.19) rotate(-86.51)"
       id="ellipse112" />
    <ellipse
       class="cls-7"
       cx="1175.52"
       cy="578.64"
       rx="7.64"
       ry="7.07"
       transform="translate(526.36 1716.73) rotate(-86.51)"
       id="ellipse113" />
    <ellipse
       class="cls-6"
       cx="1189.81"
       cy="581.45"
       rx="9.22"
       ry="6.38"
       transform="translate(536.98 1733.64) rotate(-86.51)"
       id="ellipse114" />
    <ellipse
       class="cls-5"
       cx="1250.23"
       cy="588.51"
       rx="12.64"
       ry="7.57"
       transform="translate(457.44 1720.27) rotate(-80.2)"
       id="ellipse115" />
    <ellipse
       class="cls-7"
       cx="1267.17"
       cy="592.73"
       rx="12.64"
       ry="7.57"
       transform="translate(467.34 1740.48) rotate(-80.2)"
       id="ellipse116" />
    <ellipse
       class="cls-5"
       cx="1297.77"
       cy="602.47"
       rx="13.55"
       ry="6.56"
       transform="translate(477.16 1774.55) rotate(-79.91)"
       id="ellipse117" />
    <ellipse
       class="cls-6"
       cx="1233.65"
       cy="585.11"
       rx="11.63"
       ry="7.47"
       transform="translate(450.19 1703.34) rotate(-80.36)"
       id="ellipse118" />
    <ellipse
       class="cls-6"
       cx="1282.81"
       cy="597.87"
       rx="12.92"
       ry="7.47"
       transform="translate(473.91 1759.22) rotate(-80.13)"
       id="ellipse119" />
    <path
       style="color:#000000;fill:#222221;stroke-miterlimit:10;-inkscape-stroke:none"
       d="m 1051.8691,569.97461 c -91.34363,0 -157.19332,13.36719 -157.19332,13.36719 l 0.75,3.69531 c 0,0 65.46721,-13.29297 156.44332,-13.29297 79.7204,0 127.9148,6.9414 155.375,9.51172 27.9218,2.60942 54.0317,7.60626 73.6778,13.75976 9.823,3.07676 18.0313,6.44944 23.9941,9.89844 5.9629,3.449 9.5548,7.02385 10.5371,9.94727 1,2.97593 0.1689,6.27137 -3.2929,10.36523 -3.4619,4.09386 -9.5319,8.69866 -18.2715,13.53321 -17.4794,9.66908 -45.5921,20.32529 -84.9903,31.22265 -44.7586,12.37879 -99.3292,18.66979 -161.9531,12.79102 C 964.93485,677.07531 891.82227,647.75 891.82227,647.75 l -1.4043,3.5 c 0,0 73.4864,29.51549 156.17583,37.27734 63.0759,5.92122 118.1073,-0.40897 163.3085,-12.91015 39.5618,-10.94262 67.8625,-21.6302 85.8106,-31.5586 8.9741,-4.9642 15.3733,-9.72191 19.3262,-14.39648 3.9528,-4.67457 5.4832,-9.55289 3.9882,-14.00195 -1.5126,-4.50157 -5.8873,-8.34534 -12.2226,-12.00977 -6.3353,-3.66443 -14.7565,-7.10043 -24.7559,-10.23242 -19.9988,-6.26398 -46.3049,-11.28349 -74.4531,-13.91406 -27.2397,-2.54968 -75.7871,-9.5293 -155.7266,-9.5293 z"
       id="path119" />
    <ellipse
       class="cls-5"
       cx="1060.84"
       cy="602.06"
       rx="15.26"
       ry="14.13"
       transform="translate(395.28 1624.26) rotate(-86.51)"
       id="ellipse120" />
    <ellipse
       class="cls-5"
       cx="964.75"
       cy="581.4"
       rx="15.26"
       ry="14.13"
       transform="translate(325.66 1508.95) rotate(-86.51)"
       id="ellipse121" />
    <ellipse
       class="cls-5"
       cx="1159.18"
       cy="599.68"
       rx="15.26"
       ry="14.13"
       transform="translate(490.01 1720.18) rotate(-86.51)"
       id="ellipse122" />
    <path
       class="cls-7"
       d="M1186.24,609.48c-7.58-1.95-12.2-10.17-10.33-18.37,1.87-8.2,9.54-13.27,17.12-11.32,7.58,1.95,12.2,10.17,10.33,18.37-1.87,8.2-9.54,13.27-17.12,11.32Z"
       id="path122" />
    <path
       class="cls-6"
       d="M1296.17,572.74c-5.83,2.11-12.52-2.66-14.94-10.65-2.42-7.99.36-16.17,6.19-18.28,5.83-2.11,12.52,2.66,14.94,10.65,2.42,7.99-.36,16.17-6.19,18.28Z"
       id="path123" />
    <ellipse
       class="cls-6"
       cx="1307.86"
       cy="523.59"
       rx="14.56"
       ry="6.11"
       transform="translate(560.95 1718.06) rotate(-79.8)"
       id="ellipse123" />
    <ellipse
       class="cls-7"
       cx="1318.02"
       cy="538.09"
       rx="6.11"
       ry="14.55"
       transform="translate(-44.18 124.41) rotate(-5.32)"
       id="ellipse124" />
    <ellipse
       class="cls-5"
       cx="1306.73"
       cy="549.94"
       rx="6.13"
       ry="14.52"
       transform="translate(-74.31 229.46) rotate(-9.76)"
       id="ellipse125" />
    <path
       class="cls-6"
       d="M1213.76,601.96c-7.58-1.95-12.2-10.17-10.33-18.37,1.87-8.2,9.54-13.27,17.12-11.32,7.58,1.95,12.2,10.17,10.33,18.37-1.87,8.2-9.54,13.27-17.12,11.32Z"
       id="path125" />
    <path
       class="cls-5"
       d="M1239.8,596.24c-7.58-1.95-12.2-10.17-10.33-18.37,1.87-8.2,9.54-13.27,17.12-11.32,7.58,1.95,12.2,10.17,10.33,18.37-1.87,8.2-9.54,13.27-17.12,11.32Z"
       id="path126" />
    <path
       class="cls-7"
       d="M1266.61,586.62c-7.13-1.83-11.42-9.8-9.59-17.8,1.83-8,9.09-13,16.21-11.17,7.13,1.83,11.42,9.8,9.59,17.8-1.83,8-9.09,13-16.21,11.17Z"
       id="path127" />
    <ellipse
       class="cls-7"
       cx="1090.87"
       cy="603.9"
       rx="15.26"
       ry="14.13"
       transform="translate(421.66 1655.96) rotate(-86.51)"
       id="ellipse127" />
    <ellipse
       class="cls-7"
       cx="996.32"
       cy="589.74"
       rx="15.26"
       ry="14.13"
       transform="translate(346.99 1548.3) rotate(-86.51)"
       id="ellipse128" />
    <ellipse
       class="cls-7"
       cx="897.3"
       cy="566.15"
       rx="15.26"
       ry="14.13"
       transform="translate(277.56 1427.3) rotate(-86.51)"
       id="ellipse129" />
    <ellipse
       class="cls-6"
       cx="1125.07"
       cy="604.77"
       rx="15.26"
       ry="14.13"
       transform="translate(452.9 1690.92) rotate(-86.51)"
       id="ellipse130" />
    <ellipse
       class="cls-6"
       cx="1026.95"
       cy="596.66"
       rx="15.26"
       ry="14.13"
       transform="translate(368.85 1585.37) rotate(-86.51)"
       id="ellipse131" />
    <ellipse
       class="cls-6"
       cx="931.53"
       cy="574.49"
       rx="15.26"
       ry="14.13"
       transform="translate(301.38 1469.3) rotate(-86.51)"
       id="ellipse132" />
    <ellipse
       class="cls-5"
       cx="1064.63"
       cy="485.88"
       rx="7.64"
       ry="7.07"
       transform="translate(514.81 1518.94) rotate(-86.51)"
       id="ellipse133" />
    <ellipse
       class="cls-5"
       cx="1016.98"
       cy="484.97"
       rx="7.64"
       ry="7.07"
       transform="translate(470.97 1470.52) rotate(-86.51)"
       id="ellipse134" />
    <ellipse
       class="cls-5"
       cx="968.65"
       cy="489.73"
       rx="7.64"
       ry="7.07"
       transform="translate(420.83 1426.76) rotate(-86.51)"
       id="ellipse135" />
    <ellipse
       class="cls-5"
       cx="921.97"
       cy="495.5"
       rx="7.64"
       ry="7.07"
       transform="translate(371.24 1385.59) rotate(-86.51)"
       id="ellipse136" />
    <ellipse
       class="cls-5"
       cx="1111.1"
       cy="488.71"
       rx="7.64"
       ry="7.07"
       transform="translate(555.62 1567.98) rotate(-86.51)"
       id="ellipse137" />
    <ellipse
       class="cls-7"
       cx="1079.38"
       cy="486.78"
       rx="7.64"
       ry="7.07"
       transform="translate(527.76 1534.5) rotate(-86.51)"
       id="ellipse138" />
    <ellipse
       class="cls-7"
       cx="1031.87"
       cy="485.88"
       rx="7.64"
       ry="7.07"
       transform="translate(484.05 1486.24) rotate(-86.51)"
       id="ellipse139" />
    <ellipse
       class="cls-7"
       cx="985.03"
       cy="488.71"
       rx="7.64"
       ry="7.07"
       transform="translate(437.23 1442.15) rotate(-86.51)"
       id="ellipse140" />
    <ellipse
       class="cls-7"
       cx="937.52"
       cy="494.41"
       rx="7.64"
       ry="7.07"
       transform="translate(386.93 1400.09) rotate(-86.51)"
       id="ellipse141" />
    <ellipse
       class="cls-6"
       cx="1095.24"
       cy="487.74"
       rx="7.64"
       ry="7.07"
       transform="translate(541.69 1551.24) rotate(-86.51)"
       id="ellipse142" />
    <ellipse
       class="cls-6"
       cx="1047.24"
       cy="485.88"
       rx="7.64"
       ry="7.07"
       transform="translate(498.48 1501.58) rotate(-86.51)"
       id="ellipse143" />
    <ellipse
       class="cls-6"
       cx="1000.89"
       cy="486.78"
       rx="7.64"
       ry="7.07"
       transform="translate(454.06 1456.16) rotate(-86.51)"
       id="ellipse144" />
    <ellipse
       class="cls-6"
       cx="954.21"
       cy="491.32"
       rx="7.64"
       ry="7.07"
       transform="translate(405.68 1413.83) rotate(-86.51)"
       id="ellipse145" />
    <ellipse
       class="cls-6"
       cx="903.98"
       cy="498.74"
       rx="7.64"
       ry="7.07"
       transform="translate(351.11 1370.67) rotate(-86.51)"
       id="ellipse146" />
    <ellipse
       class="cls-5"
       cx="1159.56"
       cy="491.67"
       rx="7.64"
       ry="7.07"
       transform="translate(598.18 1619.13) rotate(-86.51)"
       id="ellipse147" />
    <ellipse
       class="cls-7"
       cx="1127.84"
       cy="489.73"
       rx="7.64"
       ry="7.07"
       transform="translate(570.32 1585.65) rotate(-86.51)"
       id="ellipse148" />
    <ellipse
       class="cls-6"
       cx="1143.7"
       cy="490.7"
       rx="7.64"
       ry="7.07"
       transform="translate(584.25 1602.39) rotate(-86.51)"
       id="ellipse149" />
    <ellipse
       class="cls-5"
       cx="1203.54"
       cy="496.29"
       rx="10.02"
       ry="6.47"
       transform="translate(634.86 1667.37) rotate(-86.51)"
       id="ellipse150" />
    <ellipse
       class="cls-7"
       cx="1218.13"
       cy="497.89"
       rx="10.02"
       ry="6.47"
       transform="translate(646.97 1683.43) rotate(-86.51)"
       id="ellipse151" />
    <ellipse
       class="cls-7"
       cx="1175.52"
       cy="492.64"
       rx="7.64"
       ry="7.07"
       transform="translate(612.19 1635.98) rotate(-86.51)"
       id="ellipse152" />
    <ellipse
       class="cls-6"
       cx="1189.81"
       cy="495.46"
       rx="9.22"
       ry="6.38"
       transform="translate(622.81 1652.88) rotate(-86.51)"
       id="ellipse153" />
    <ellipse
       class="cls-5"
       cx="1250.23"
       cy="502.51"
       rx="12.64"
       ry="7.57"
       transform="translate(542.18 1648.92) rotate(-80.2)"
       id="ellipse154" />
    <ellipse
       class="cls-7"
       cx="1267.17"
       cy="506.74"
       rx="12.64"
       ry="7.57"
       transform="translate(552.07 1669.13) rotate(-80.2)"
       id="ellipse155" />
    <ellipse
       class="cls-5"
       cx="1297.77"
       cy="516.48"
       rx="13.55"
       ry="6.56"
       transform="translate(561.82 1703.63) rotate(-79.91)"
       id="ellipse156" />
    <ellipse
       class="cls-6"
       cx="1233.65"
       cy="499.12"
       rx="11.63"
       ry="7.47"
       transform="translate(534.97 1631.75) rotate(-80.36)"
       id="ellipse157" />
    <ellipse
       class="cls-6"
       cx="1282.81"
       cy="511.88"
       rx="12.92"
       ry="7.47"
       transform="translate(558.63 1687.97) rotate(-80.13)"
       id="ellipse158" />
    <path
       style="color:#000000;fill:#222221;stroke-miterlimit:10;-inkscape-stroke:none"
       d="m 1051.8691,483.98437 c -91.34363,0 -157.19332,13.36915 -157.19332,13.36915 l 0.75,3.69335 c 0,0 65.46721,-13.29101 156.44332,-13.29101 79.7204,0 127.9148,6.9414 155.375,9.51172 27.9218,2.60942 54.0317,7.60431 73.6778,13.75781 9.823,3.07675 18.0313,6.44944 23.9941,9.89844 5.9629,3.449 9.5548,7.02384 10.5371,9.94726 1,2.97594 0.1689,6.27138 -3.2929,10.36524 -3.4619,4.09386 -9.5319,8.69866 -18.2715,13.5332 -17.4794,9.66908 -45.5921,20.32725 -84.9903,31.22461 -44.7586,12.37879 -99.3292,18.66784 -161.9531,12.78906 -82.01045,-7.69813 -155.12303,-37.02343 -155.12303,-37.02343 l -1.4043,3.5 c 0,0 73.4864,29.51548 156.17583,37.27734 63.0759,5.92121 118.1073,-0.40897 163.3085,-12.91016 39.5618,-10.94261 67.8625,-21.63019 85.8106,-31.55859 8.9741,-4.9642 15.3733,-9.72192 19.3262,-14.39649 3.9528,-4.67456 5.4832,-9.55289 3.9882,-14.00195 -1.5126,-4.50157 -5.8873,-8.34534 -12.2226,-12.00976 -6.3353,-3.66443 -14.7565,-7.10043 -24.7559,-10.23243 -19.9988,-6.26398 -46.3049,-11.28348 -74.4531,-13.91406 -27.2397,-2.54967 -75.7871,-9.5293 -155.7266,-9.5293 z"
       id="path158" />
  </g>
  <rect
     class="cls-2"
     width="1356.63"
     height="1619.85"
     id="rect158" />
</svg>
