<?xml version="1.0" encoding="UTF-8"?><svg id="Livello_1" xmlns="http://www.w3.org/2000/svg" viewBox="0 0 1356.63 1619.85"><defs><style>.cls-1{fill:none;}.cls-1,.cls-2{stroke-width:0px;}.cls-2{fill:#4a9684;}</style></defs><path class="cls-2" d="M437.9,192.01s-5.48,8.47-12.96,6.98c-7.48-1.5-6.98-6.48-5.98-9.97s5.48-23.43,5.48-23.43c0,0,1-13.96,1-18.44s-.06-16.45,2.71-22.93c2.77-6.48,6.76-15.45,6.76-15.45,0,0,1.5-16.95,2.99-22.93,1.5-5.98,2.99-5.48,1.99-11.46-1-5.98-13.46-9.97-18.94-19.44-5.48-9.47-2.99-25.92,11.96-28.41,14.95-2.49,14.95,1.99,14.95,1.99,0,0,8.47-4.24,12.86-.51,5.02,4.26,5.08,3.5,5.08,3.5,0,0,28.41-.37,21.43,17.94-7.66,20.11-28.91,20.93-28.91,20.93,0,0,1,13.96-2.49,16.45-3.49,2.49-1.68,13.46-2.83,19.94-1.16,6.48,1.34,16.45-3.15,22.43-4.49,5.98-2.99,13.96-5.48,18.44-2.49,4.49-3.49,17.45-2.99,19.94.5,2.49,1.7,19.25-3.49,24.42Z"/><path class="cls-2" d="M362.78,191.25s-1.34,10-8.74,11.84c-7.4,1.84-9.08-2.88-9.66-6.46s-5.03-23.53-5.03-23.53c0,0-5.05-13.05-6.97-17.11s-7.07-14.85-7.33-21.89c-.26-7.04-.48-16.86-.48-16.86,0,0-5.88-15.97-7.08-22.01-1.2-6.05.37-6.23-3.09-11.22s-16.42-3.28-25.42-9.5-13.76-22.17-1.3-30.8c12.46-8.63,14.37-4.58,14.37-4.58,0,0,5.86-7.45,11.42-5.95,6.36,1.72,6.09,1,6.09,1,0,0,25.54-12.46,27.04,7.09,1.65,21.46-17.22,31.27-17.22,31.27,0,0,6.86,12.2,4.76,15.94s4.22,12.89,5.94,19.24c1.72,6.35,8.23,14.31,6.72,21.63-1.51,7.32,3.25,13.9,2.91,19.02-.34,5.12,4.29,17.27,5.8,19.31,1.51,2.04,9.75,16.68,7.26,23.58Z"/><path class="cls-2" d="M294.34,224.34s2.71,9.72-3.36,14.33c-6.07,4.61-9.48.93-11.43-2.13-1.95-3.06-13.91-19.63-13.91-19.63,0,0-9.79-9.99-13.15-12.97-3.36-2.97-12.36-10.85-15.38-17.22-3.02-6.37-7.09-15.3-7.09-15.3,0,0-11.7-12.35-15.19-17.43-3.49-5.08-2.13-5.87-7.27-9.09-5.14-3.22-16.38,3.47-27.11,1.31s-21.39-14.93-13.35-27.78c8.04-12.85,11.4-9.88,11.4-9.88,0,0,2.44-9.15,8.14-9.97,6.52-.93,5.99-1.49,5.99-1.49,0,0,22.48-19.35,31.57-1.99,9.99,19.06-7.41,33.35-7.41,33.35,0,0,11.11,8.5,10.67,12.76-.45,4.26,8.97,10.17,13.06,15.33,4.09,5.16,13.21,9.9,14.71,17.22,1.51,7.32,8.47,11.49,10.18,16.33,1.71,4.84,10.75,14.17,12.95,15.45s15.55,11.48,15.98,18.8Z"/><path class="cls-2" d="M228.53,287.31s5.67,8.35,1.39,14.65c-4.28,6.31-8.68,3.91-11.51,1.63-2.83-2.28-19.45-14.16-19.45-14.16,0,0-12.47-6.35-16.6-8.09-4.13-1.74-15.18-6.34-20.07-11.41-4.89-5.07-11.61-12.24-11.61-12.24,0,0-15.03-7.97-19.96-11.67-4.93-3.7-3.89-4.89-9.79-6.29-5.9-1.41-14.42,8.52-25.27,9.89-10.86,1.37-25.04-7.32-21.52-22.07,3.52-14.75,7.65-13,7.65-13,0,0-.61-9.45,4.53-12.05,5.88-2.97,5.2-3.32,5.2-3.32,0,0,15.12-25.52,29.29-11.96,15.55,14.88,3.62,33.97,3.62,33.97,0,0,13.25,4.51,14.18,8.69.94,4.18,11.75,6.78,17.27,10.36,5.52,3.58,15.67,5.16,19.44,11.62,3.77,6.46,11.69,8.18,14.86,12.22,3.16,4.04,14.72,10,17.21,10.51,2.49.51,18.4,5.92,21.14,12.71Z"/><path class="cls-2" d="M204.18,346.59s8.7,5.12,7.51,12.66c-1.18,7.53-6.18,7.24-9.71,6.39-3.53-.85-23.64-4.5-23.64-4.5,0,0-13.99-.41-18.47-.22s-16.43.75-23.02-1.75c-6.59-2.5-15.72-6.11-15.72-6.11,0,0-16.99-.79-23.03-2.03-6.04-1.24-5.6-2.76-11.54-1.51-5.93,1.25-9.4,13.86-18.63,19.74-9.23,5.87-25.77,4.07-28.89-10.76-3.12-14.84,1.37-15.02,1.37-15.02,0,0-4.59-8.29-1.04-12.83,4.05-5.19,3.28-5.22,3.28-5.22,0,0,2.78-29.53,21.37-23.33,20.41,6.81,17.78,29.17,17.78,29.17,0,0,13.9-1.58,16.54,1.8s13.52,1.11,20.04,2,16.38-2.02,22.54,2.21c6.16,4.23,14.07,2.4,18.66,4.71,4.59,2.3,17.58,2.76,20.04,2.15,2.47-.6,19.16-2.51,24.55,2.46Z"/><path class="cls-2" d="M198.85,453.76s9.16,4.23,8.74,11.84c-.42,7.61-5.43,7.82-9.02,7.33-3.59-.49-23.97-2.11-23.97-2.11,0,0-13.96.99-18.4,1.62-4.44.63-16.27,2.39-23.08.56-6.81-1.83-16.25-4.5-16.25-4.5,0,0-16.99.92-23.12.28-6.13-.63-5.85-2.18-11.63-.35-5.78,1.83-7.96,14.73-16.56,21.5-8.6,6.77-25.23,6.63-29.82-7.82-4.58-14.45-.14-15.08-.14-15.08,0,0-5.39-7.79-2.32-12.66,3.51-5.57,2.74-5.52,2.74-5.52,0,0-.19-29.66,18.93-25.35,20.99,4.74,20.61,27.24,20.61,27.24,0,0,13.67-2.96,16.64.14,2.96,3.1,13.56-.25,20.14-.02,6.58.23,16.09-3.65,22.65-.06s14.24.98,19.03,2.82c4.79,1.83,17.76.98,20.16.14,2.4-.85,18.82-4.41,24.67,0Z"/><path class="cls-2" d="M202,569.35s9.16,4.23,8.74,11.84c-.42,7.61-5.43,7.82-9.02,7.33-3.59-.49-23.97-2.11-23.97-2.11,0,0-13.96.99-18.4,1.62-4.44.63-16.27,2.39-23.08.56-6.81-1.83-16.25-4.5-16.25-4.5,0,0-16.99.92-23.12.28s-5.85-2.18-11.63-.35c-5.78,1.83-7.96,14.73-16.56,21.5-8.6,6.77-25.23,6.63-29.82-7.82-4.58-14.45-.14-15.08-.14-15.08,0,0-5.39-7.79-2.32-12.66,3.51-5.57,2.74-5.52,2.74-5.52,0,0-.19-29.66,18.93-25.35,20.99,4.74,20.61,27.24,20.61,27.24,0,0,13.67-2.96,16.64.14,2.96,3.1,13.56-.25,20.14-.02,6.58.23,16.09-3.65,22.65-.06,6.56,3.59,14.24.98,19.03,2.82,4.79,1.83,17.76.98,20.16.14,2.4-.85,18.82-4.41,24.67,0Z"/><path class="cls-2" d="M202.14,696.05s9.16,4.23,8.74,11.84c-.42,7.61-5.43,7.82-9.02,7.33-3.59-.49-23.97-2.11-23.97-2.11,0,0-13.96.99-18.4,1.62-4.44.63-16.27,2.39-23.08.56-6.81-1.83-16.25-4.5-16.25-4.5,0,0-16.99.92-23.12.28s-5.85-2.18-11.63-.35c-5.78,1.83-7.96,14.73-16.56,21.5-8.6,6.77-25.23,6.63-29.82-7.82-4.58-14.45-.14-15.08-.14-15.08,0,0-5.39-7.79-2.32-12.66,3.51-5.57,2.74-5.52,2.74-5.52,0,0-.19-29.66,18.93-25.35,20.99,4.74,20.61,27.24,20.61,27.24,0,0,13.67-2.96,16.64.14,2.96,3.1,13.56-.25,20.14-.02,6.58.23,16.09-3.65,22.65-.06,6.56,3.59,14.24.98,19.03,2.82,4.79,1.83,17.76.98,20.16.14,2.4-.85,18.82-4.41,24.67,0Z"/><path class="cls-2" d="M203.25,810.71s9.16,4.23,8.74,11.84c-.42,7.61-5.43,7.82-9.02,7.33-3.59-.49-23.97-2.11-23.97-2.11,0,0-13.96.99-18.4,1.62-4.44.63-16.27,2.39-23.08.56-6.81-1.83-16.25-4.5-16.25-4.5,0,0-16.99.92-23.12.28-6.13-.63-5.85-2.18-11.63-.35-5.78,1.83-7.96,14.73-16.56,21.5-8.6,6.77-25.23,6.63-29.82-7.82-4.58-14.45-.14-15.08-.14-15.08,0,0-5.39-7.79-2.32-12.66,3.51-5.57,2.74-5.52,2.74-5.52,0,0-.19-29.66,18.93-25.35,20.99,4.74,20.61,27.24,20.61,27.24,0,0,13.67-2.96,16.64.14,2.96,3.1,13.56-.25,20.14-.02,6.58.23,16.09-3.65,22.65-.06,6.56,3.59,14.24.98,19.03,2.82,4.79,1.83,17.76.98,20.16.14,2.4-.85,18.82-4.41,24.67,0Z"/><path class="cls-2" d="M202,920.21s9.16,4.23,8.74,11.84c-.42,7.61-5.43,7.82-9.02,7.33-3.59-.49-23.97-2.11-23.97-2.11,0,0-13.96.99-18.4,1.62-4.44.63-16.27,2.39-23.08.56-6.81-1.83-16.25-4.5-16.25-4.5,0,0-16.99.92-23.12.28s-5.85-2.18-11.63-.35c-5.78,1.83-7.96,14.73-16.56,21.5-8.6,6.77-25.23,6.63-29.82-7.82-4.58-14.45-.14-15.08-.14-15.08,0,0-5.39-7.79-2.32-12.66,3.51-5.57,2.74-5.52,2.74-5.52,0,0-.19-29.66,18.93-25.35,20.99,4.74,20.61,27.24,20.61,27.24,0,0,13.67-2.96,16.64.14,2.96,3.1,13.56-.25,20.14-.02,6.58.23,16.09-3.65,22.65-.06,6.56,3.59,14.24.98,19.03,2.82,4.79,1.83,17.76.98,20.16.14,2.4-.85,18.82-4.41,24.67,0Z"/><path class="cls-2" d="M203.58,1044.11s7.52,3.17,7.1,10.78c-.42,7.61-8.55,7.28-12.15,6.79-3.59-.49-18.47-2.76-18.47-2.76,0,0-13.96.99-18.4,1.62-4.44.63-16.27,2.39-23.08.56-6.81-1.83-16.25-4.5-16.25-4.5,0,0-16.99.92-23.12.28-6.13-.63-5.85-2.18-11.63-.35-5.78,1.83-7.96,14.73-16.56,21.5-8.6,6.77-25.23,6.63-29.82-7.82-4.58-14.45-.14-15.08-.14-15.08,0,0-5.39-7.79-2.32-12.66,3.51-5.57,2.74-5.52,2.74-5.52,0,0-.19-29.66,18.93-25.35,20.99,4.74,20.61,27.24,20.61,27.24,0,0,13.67-2.96,16.64.14,2.96,3.1,13.56-.25,20.14-.02,6.58.23,16.09-3.65,22.65-.06s14.24.98,19.03,2.82c4.79,1.83,17.76.98,20.16.14,2.4-.85,18.09-2.16,23.94,2.25Z"/><path class="cls-2" d="M204.99,1162.95s9.16,4.23,8.74,11.84c-.42,7.61-5.43,7.82-9.02,7.33-3.59-.49-23.97-2.11-23.97-2.11,0,0-13.96.99-18.4,1.62-4.44.63-16.27,2.39-23.08.56-6.81-1.83-16.25-4.5-16.25-4.5,0,0-16.99.92-23.12.28-6.13-.63-5.85-2.18-11.63-.35-5.78,1.83-7.96,14.73-16.56,21.5-8.6,6.77-25.23,6.63-29.82-7.82-4.58-14.45-.14-15.08-.14-15.08,0,0-5.39-7.79-2.32-12.66,3.51-5.57,2.74-5.52,2.74-5.52,0,0-.19-29.66,18.93-25.35,20.99,4.74,20.61,27.24,20.61,27.24,0,0,13.67-2.96,16.64.14,2.96,3.1,13.56-.25,20.14-.02,6.58.23,16.09-3.65,22.65-.06,6.56,3.59,14.24.98,19.03,2.82,4.79,1.83,17.76.98,20.16.14,2.4-.85,18.82-4.41,24.67,0Z"/><path class="cls-2" d="M204.99,1286.06s9.16,4.23,8.74,11.84c-.42,7.61-5.43,7.82-9.02,7.33-3.59-.49-23.97-2.11-23.97-2.11,0,0-13.96.99-18.4,1.62-4.44.63-16.27,2.39-23.08.56-6.81-1.83-16.25-4.5-16.25-4.5,0,0-16.99.92-23.12.28-6.13-.63-5.85-2.18-11.63-.35-5.78,1.83-7.69,15.1-16.56,21.5-14.1,10.18-30.53,6.63-35.12-7.82-4.58-14.45-.14-15.08-.14-15.08,0,0-5.39-7.79-2.32-12.66,3.51-5.57,2.74-5.52,2.74-5.52,0,0,5.11-29.66,24.23-25.35,20.99,4.74,20.61,27.24,20.61,27.24,0,0,13.67-2.96,16.64.14,2.96,3.1,13.56-.25,20.14-.02,6.58.23,16.09-3.65,22.65-.06,6.56,3.59,14.24.98,19.03,2.82s17.76.98,20.16.14c2.4-.85,18.82-4.41,24.67,0Z"/><path class="cls-2" d="M210.62,1373.77s9.97,1.56,11.65,9c1.67,7.44-3.08,9.01-6.67,9.52-3.59.51-29.63,8.65-29.63,8.65,0,0-13.16,4.77-17.25,6.59-4.1,1.82-15,6.75-22.05,6.85-7.05.1-16.87.11-16.87.11,0,0-16.09,5.53-22.16,6.59-6.07,1.07-6.23-.5-11.28,2.84-5.06,3.34-3.63,16.35-10.05,25.21-6.42,8.86-27.94,11.1-36.29-1.55-8.36-12.65-4.26-14.47-4.26-14.47,0,0-7.32-6.02-5.7-11.54,1.85-6.32,1.13-6.06,1.13-6.06,0,0-.63-30.15,18.91-31.74,24.42-1.99,25.12,24.93,25.12,24.93,0,0,12.34-6.59,16.04-4.41,3.7,2.17,12.98-3.94,19.37-5.52s14.48-7.91,21.77-6.25c7.29,1.67,13.97-2.94,19.08-2.49,5.11.45,17.36-3.91,19.43-5.38,2.07-1.47,22.89-13.52,29.73-10.88Z"/><path class="cls-2" d="M226.08,1404.84s9-4.56,14.71.5c5.71,5.06,2.77,9.11.15,11.62-2.62,2.51-18.98,24.34-18.98,24.34,0,0-7.89,11.56-10.15,15.43-2.26,3.88-8.23,14.24-13.89,18.44-5.66,4.2-13.62,9.94-13.62,9.94,0,0-9.83,13.89-14.13,18.3-4.3,4.41-5.34,3.23-7.5,8.9-2.15,5.67,11.34,13.52,11.31,24.47s-16.55,24.32-30.72,18.94c-14.17-5.38-11.91-9.25-11.91-9.25,0,0-13.82,2.28-15.73-3.16-2.19-6.21-2.63-5.58-2.63-5.58,0,0-18.13-24.1-3.2-36.81,18.65-15.89,34.95,5.55,34.95,5.55,0,0,6.17-12.56,10.44-12.96,4.27-.4,8.23-10.78,12.49-15.8s7.13-14.88,14.02-17.79c6.89-2.91,9.61-10.55,14.02-13.17,4.41-2.62,11.8-13.31,12.62-15.72.82-2.4,10.67-24.35,17.76-26.2Z"/><path class="cls-2" d="M295.55,1424.28s6.96-7.31,14.03-4.45c7.07,2.86,5.65,7.66,4.02,10.91-1.63,3.24-9.76,29.28-9.76,29.28,0,0-3.57,13.53-4.41,17.94-.83,4.41-3,16.17-6.92,22.02-3.93,5.85-9.51,13.93-9.51,13.93,0,0-4.62,16.37-7.2,21.97-2.58,5.6-3.96,4.83-4.09,10.89-.13,6.06,15.21,8.96,18.83,19.28,3.63,10.32-7.47,28.45-22.62,28.12-15.16-.33-14.32-4.74-14.32-4.74,0,0-12.26,6.76-15.88,2.28-4.14-5.12-4.34-4.38-4.34-4.38,0,0-25.14-16.65-15.32-33.62,12.27-21.21,34.8-6.45,34.8-6.45,0,0,1.61-13.9,5.51-15.7,3.89-1.8,4.15-12.91,6.49-19.06s1.74-16.41,7.26-21.45c5.52-5.04,5.53-13.16,8.81-17.1,3.28-3.94,6.67-16.49,6.64-19.03-.03-2.54,1.92-26.51,7.98-30.63Z"/><path class="cls-2" d="M495.33,209.45s-2.51,7.23,4.06,11.09c6.57,3.87,14.03-4.11,15.61-7.38,1.58-3.27,7.97-14.44,7.97-14.44,0,0,8.56-11.07,11.54-14.42,2.99-3.34,11.01-12.22,13.26-18.9,2.25-6.68,5.25-16.03,5.25-16.03,0,0,10.18-13.63,13.05-19.09s1.42-6.08,6.15-9.88c4.73-3.8,16.68,1.53,27.08-1.87,10.4-3.41,19.5-17.33,10.01-29.16-9.49-11.82-12.48-8.48-12.48-8.48,0,0-3.5-8.81-9.25-8.95-6.58-.16-6.12-.78-6.12-.78,0,0-24.59-16.59-31.59,1.72-7.69,20.1,11.26,32.25,11.26,32.25,0,0-10.04,9.74-9.1,13.93.94,4.18-7.72,11.15-11.17,16.75-3.46,5.6-11.96,11.37-12.6,18.82-.64,7.45-7.07,12.4-8.2,17.4-1.13,5.01-9.02,15.33-11.05,16.86-2.03,1.53-14.1,13.22-13.67,20.54Z"/><path class="cls-2" d="M561.28,259.34s-4.7,7.15-1.66,11.47c4.38,6.24,13.19,2.75,15.78.2,2.59-2.54,15.52-12.49,15.52-12.49,0,0,11.78-7.55,15.72-9.7,3.94-2.15,14.47-7.81,18.84-13.35,4.36-5.53,10.34-13.33,10.34-13.33,0,0,14.17-9.42,18.7-13.59,4.54-4.17,3.38-5.25,9.11-7.23,5.73-1.99,15.19,7.05,26.13,7.34s24.19-9.77,19.23-24.09c-4.96-14.32-8.9-12.18-8.9-12.18,0,0-.33-9.47-5.71-11.54-6.14-2.37-5.5-2.79-5.5-2.79,0,0-17.58-23.89-30.33-9-14,16.35-.24,34.16-.24,34.16,0,0-12.73,5.8-13.25,10.06-.52,4.26-11.02,7.91-16.15,12.02-5.14,4.11-15.08,6.69-18.19,13.49-3.11,6.8-10.83,9.3-13.57,13.64-2.75,4.33-13.65,11.41-16.08,12.16-2.43.75-17.72,7.71-19.78,14.75Z"/><path class="cls-2" d="M607.68,360.53s-7.68,6.55-5.22,13.76c2.46,7.22,7.34,6.07,10.67,4.62,3.33-1.45,22.5-8.51,22.5-8.51,0,0,13.7-2.82,18.15-3.41,4.45-.59,16.31-2.1,22.37-5.7,6.06-3.6,14.43-8.73,14.43-8.73,0,0,16.6-3.71,22.34-5.97,5.73-2.27,5.04-3.68,11.1-3.48,6.06.2,11.65,12.03,21.76,16.23,10.11,4.19,26.09-.44,26.59-15.59.51-15.15-3.94-14.56-3.94-14.56,0,0,3.09-8.96-1.19-12.82-4.88-4.41-4.13-4.58-4.13-4.58,0,0-7.83-28.61-25.08-19.29-18.93,10.23-12.48,31.8-12.48,31.8,0,0-13.97.84-15.98,4.63-2.01,3.79-13.12,3.43-19.39,5.42-6.27,2-16.48.83-21.82,6.07s-13.44,4.8-17.56,7.86c-4.12,3.06-16.84,5.75-19.37,5.58-2.54-.17-19.31.84-23.75,6.66Z"/><path class="cls-2" d="M610.73,453.41s-5.04,1.21-4.62,8.82c.42,7.61,8.74,5.15,12.34,4.66,3.59-.49,19.08.09,19.08.09,0,0,13.96.99,18.4,1.62,4.44.63,16.27,2.39,23.08.56,6.81-1.83,16.25-4.5,16.25-4.5,0,0,16.99.92,23.12.28s5.85-2.18,11.63-.35c5.78,1.83,7.96,14.73,16.56,21.5,8.6,6.77,25.23,6.63,29.82-7.82,4.58-14.45.14-15.08.14-15.08,0,0,5.39-7.79,2.32-12.66-3.51-5.57-2.74-5.52-2.74-5.52,0,0,.19-29.66-18.93-25.35-20.99,4.74-20.61,27.24-20.61,27.24,0,0-13.67-2.96-16.64.14-2.96,3.1-13.56-.25-20.14-.02-6.58.23-16.09-3.65-22.65-.06-6.56,3.59-14.24.98-19.03,2.82-4.79,1.83-17.76.98-20.16.14-2.4-.85-21.38-.92-27.23,3.49Z"/><path class="cls-2" d="M613.29,564.85s-9.16,4.23-8.74,11.84c.42,7.61,5.43,7.82,9.02,7.33,3.59-.49,23.97-2.11,23.97-2.11,0,0,13.96.99,18.4,1.62,4.44.63,16.27,2.39,23.08.56,6.81-1.83,16.25-4.5,16.25-4.5,0,0,16.99.92,23.12.28,6.13-.63,5.85-2.18,11.63-.35,5.78,1.83,7.96,14.73,16.56,21.5,8.6,6.77,25.23,6.63,29.82-7.82,4.58-14.45.14-15.08.14-15.08,0,0,5.39-7.79,2.32-12.66-3.51-5.57-2.74-5.52-2.74-5.52,0,0,.19-29.66-18.93-25.35-20.99,4.74-20.61,27.24-20.61,27.24,0,0-13.67-2.96-16.64.14-2.96,3.1-13.56-.25-20.14-.02-6.58.23-16.09-3.65-22.65-.06-6.56,3.59-14.24.98-19.03,2.82-4.79,1.83-17.76.98-20.16.14-2.4-.85-18.82-4.41-24.67,0Z"/><path class="cls-2" d="M618.83,686.71s-8.46,4.14-8.04,11.75c.42,7.61,6.88,6.74,10.48,6.25,3.59-.49,19.26-1.62,19.26-1.62,0,0,13.96.99,18.4,1.62,4.44.63,16.27,2.39,23.08.56,6.81-1.83,16.25-4.5,16.25-4.5,0,0,16.99.92,23.12.28,6.13-.63,5.85-2.18,11.63-.35,5.78,1.83,7.96,14.73,16.56,21.5,8.6,6.77,25.23,6.63,29.82-7.82,4.58-14.45.14-15.08.14-15.08,0,0,5.39-7.79,2.32-12.66-3.51-5.57-2.74-5.52-2.74-5.52,0,0,.19-29.66-18.93-25.35-20.99,4.74-20.61,27.24-20.61,27.24,0,0-13.67-2.96-16.64.14-2.96,3.1-13.56-.25-20.14-.02-6.58.23-16.09-3.65-22.65-.06-6.56,3.59-14.24.98-19.03,2.82-4.79,1.83-17.76.98-20.16.14s-16.27-3.73-22.13.68Z"/><path class="cls-2" d="M609.67,813.97c.42,7.61,7.81,11.55,11.4,11.06,3.59-.49,30.42-2.42,34.86-1.78,4.44.63,16.27,2.39,23.08.56,6.81-1.83,16.25-4.5,16.25-4.5,0,0,16.99.92,23.12.28,6.13-.63,5.85-2.18,11.63-.35s7.96,14.73,16.56,21.5c8.6,6.77,25.23,6.63,29.82-7.82,4.58-14.45.14-15.08.14-15.08,0,0,5.39-7.79,2.32-12.66-3.51-5.57-2.74-5.52-2.74-5.52,0,0,.19-29.66-18.93-25.35-20.99,4.74-20.61,27.24-20.61,27.24,0,0-13.67-2.96-16.64.14-2.96,3.1-13.56-.25-20.14-.02-6.58.23-16.09-3.65-22.65-.06-6.56,3.59-14.24.98-19.03,2.82-4.79,1.83-17.74.93-20.16.14-15.21-4.97-28.72,1.79-28.29,9.4Z"/><path class="cls-2" d="M615.7,940.91s-9.76,5.16-9.34,12.77c.42,7.61,6.5,10.03,10.09,9.54,3.59-.49,17.34-4.02,17.34-4.02,0,0,13.96.99,18.4,1.62,4.44.63,16.27,2.39,23.08.56,6.81-1.83,16.25-4.5,16.25-4.5,0,0,16.99.92,23.12.28s5.85-2.18,11.63-.35c5.78,1.83,7.96,14.73,16.56,21.5,8.6,6.77,25.23,6.63,29.82-7.82,4.58-14.45.14-15.08.14-15.08,0,0,5.39-7.79,2.32-12.66-3.51-5.57-2.74-5.52-2.74-5.52,0,0,.19-29.66-18.93-25.35-20.99,4.74-20.61,27.24-20.61,27.24,0,0-13.67-2.96-16.64.14-2.96,3.1-13.56-.25-20.14-.02-6.58.23-16.09-3.65-22.65-.06-6.56,3.59-14.24.98-19.03,2.82-4.79,1.83-17.76.98-20.16.14-2.4-.85-12.66-5.64-18.52-1.23Z"/><path class="cls-2" d="M607.97,1054.27s-9.16,4.23-8.74,11.84c.42,7.61,5.43,7.82,9.02,7.33,3.59-.49,23.97-2.11,23.97-2.11,0,0,13.96.99,18.4,1.62,4.44.63,16.27,2.39,23.08.56,6.81-1.83,16.25-4.5,16.25-4.5,0,0,16.99.92,23.12.28s5.85-2.18,11.63-.35c5.78,1.83,7.96,14.73,16.56,21.5s25.23,6.63,29.82-7.82c4.58-14.45.14-15.08.14-15.08,0,0,5.39-7.79,2.32-12.66-3.51-5.57-2.74-5.52-2.74-5.52,0,0,.19-29.66-18.93-25.35-20.99,4.74-20.61,27.24-20.61,27.24,0,0-13.67-2.96-16.64.14s-13.56-.25-20.14-.02c-6.58.23-16.09-3.65-22.65-.06-6.56,3.59-14.24.98-19.03,2.82-4.79,1.83-17.76.98-20.16.14s-18.82-4.41-24.67,0Z"/><path class="cls-2" d="M611.81,1166.08s-9.16,4.23-8.74,11.84c.42,7.61,5.43,7.82,9.02,7.33,3.59-.49,23.97-2.11,23.97-2.11,0,0,13.96.99,18.4,1.62,4.44.63,16.27,2.39,23.08.56,6.81-1.83,16.25-4.5,16.25-4.5,0,0,16.99.92,23.12.28s5.85-2.18,11.63-.35c5.78,1.83,7.96,14.73,16.56,21.5,8.6,6.77,25.23,6.63,29.82-7.82,4.58-14.45.14-15.08.14-15.08,0,0,5.39-7.79,2.32-12.66-3.51-5.57-2.74-5.52-2.74-5.52,0,0,.19-29.66-18.93-25.35-20.99,4.74-20.61,27.24-20.61,27.24,0,0-13.67-2.96-16.64.14-2.96,3.1-13.56-.25-20.14-.02-6.58.23-16.09-3.65-22.65-.06-6.56,3.59-14.24.98-19.03,2.82-4.79,1.83-17.76.98-20.16.14-2.4-.85-18.82-4.41-24.67,0Z"/><path class="cls-2" d="M610.52,1272.3s-9.16,4.23-8.74,11.84c.42,7.61,5.43,7.82,9.02,7.33,3.59-.49,23.97-2.11,23.97-2.11,0,0,13.96.99,18.4,1.62,4.44.63,16.27,2.39,23.08.56,6.81-1.83,16.25-4.5,16.25-4.5,0,0,16.99.92,23.12.28s5.85-2.18,11.63-.35c5.78,1.83,7.69,15.1,16.56,21.5,14.1,10.18,30.53,6.63,35.12-7.82,4.58-14.45.14-15.08.14-15.08,0,0,5.39-7.79,2.32-12.66-3.51-5.57-2.74-5.52-2.74-5.52,0,0-5.11-29.66-24.23-25.35-20.99,4.74-20.61,27.24-20.61,27.24,0,0-13.67-2.96-16.64.14-2.96,3.1-13.56-.25-20.14-.02-6.58.23-16.09-3.65-22.65-.06-6.56,3.59-14.24.98-19.03,2.82-4.79,1.83-17.76.98-20.16.14-2.4-.85-18.82-4.41-24.67,0Z"/><path class="cls-2" d="M604.08,1359.62s-9.85,2.2-11.04,9.73c-1.19,7.53,3.66,8.79,7.27,9.07s30.12,6.72,30.12,6.72c0,0,13.44,3.91,17.64,5.46,4.21,1.56,15.4,5.77,22.44,5.41,7.04-.35,16.84-.98,16.84-.98,0,0,16.41,4.48,22.54,5.15,6.13.67,6.18-.9,11.44,2.11,5.26,3.01,4.68,16.08,11.66,24.51,6.98,8.43,28.59,9.28,36.12-3.88,7.53-13.16,3.32-14.72,3.32-14.72,0,0,6.91-6.48,4.94-11.89-2.26-6.19-1.52-5.98-1.52-5.98,0,0-1.32-30.12-20.92-30.45-24.5-.41-23.46,26.5-23.46,26.5,0,0-12.74-5.78-16.29-3.37-3.55,2.41-13.2-3.1-19.68-4.26-6.48-1.16-14.96-6.96-22.13-4.83-7.17,2.13-14.13-2.04-19.2-1.26-5.07.78-17.57-2.78-19.74-4.11s-23.71-12.01-30.37-8.94Z"/><path class="cls-2" d="M597.18,1395.36s-9-4.56-14.71.5c-5.71,5.06-2.77,9.11-.15,11.62,2.62,2.51,18.98,24.34,18.98,24.34,0,0,7.89,11.56,10.15,15.43,2.26,3.88,8.23,14.24,13.89,18.44,5.66,4.2,13.62,9.94,13.62,9.94,0,0,9.83,13.89,14.13,18.3,4.3,4.41,5.34,3.23,7.5,8.9,2.15,5.67-11.34,13.52-11.31,24.47.03,10.94,16.55,24.32,30.72,18.94,14.17-5.38,11.91-9.25,11.91-9.25,0,0,13.82,2.28,15.73-3.16,2.19-6.21,2.63-5.58,2.63-5.58,0,0,18.13-24.1,3.2-36.81-18.65-15.89-34.95,5.55-34.95,5.55,0,0-6.17-12.56-10.44-12.96s-8.23-10.78-12.49-15.8c-4.26-5.02-7.13-14.88-14.02-17.79-6.89-2.91-9.61-10.55-14.02-13.17-4.41-2.62-11.8-13.31-12.62-15.72-.82-2.4-10.67-24.35-17.76-26.2Z"/><path class="cls-2" d="M527.72,1419.78s-6.96-7.31-14.03-4.45c-7.07,2.86-5.65,7.66-4.02,10.91,1.63,3.24,9.76,29.28,9.76,29.28,0,0,3.57,13.53,4.41,17.94.83,4.41,3,16.17,6.92,22.02,3.93,5.85,9.51,13.93,9.51,13.93,0,0,4.62,16.37,7.2,21.97,2.58,5.6,3.96,4.83,4.09,10.89.13,6.06-15.21,8.96-18.83,19.28-3.63,10.32,7.47,28.45,22.62,28.12,15.16-.33,14.32-4.74,14.32-4.74,0,0,12.26,6.76,15.88,2.28,4.14-5.12,4.34-4.38,4.34-4.38,0,0,25.14-16.65,15.32-33.62-12.27-21.21-34.8-6.45-34.8-6.45,0,0-1.61-13.9-5.51-15.7-3.89-1.8-4.15-12.91-6.49-19.06-2.34-6.15-1.74-16.41-7.26-21.45-5.52-5.04-5.53-13.16-8.81-17.1-3.28-3.94-6.67-16.49-6.64-19.03s-1.92-26.51-7.98-30.63Z"/><path class="cls-2" d="M396.17,1436.46s3.91-9.3,11.53-9.14c7.62.16,8.01,5.15,7.64,8.76s1.29,30.84,1.29,30.84c0,0,1.47,13.91,2.26,18.33.79,4.42,2.95,16.18,1.36,23.05-1.59,6.87-3.94,16.4-3.94,16.4,0,0,1.5,16.95,1.08,23.1-.42,6.15-1.98,5.92.05,11.64,2.03,5.71,17.4,2.97,24.46,11.33,7.06,8.36,3.13,29.25-11.15,34.33-14.28,5.08-15.07.66-15.07.66,0,0-9.06,10.68-14.03,7.78-5.69-3.32-5.62-2.55-5.62-2.55,0,0-29.41-6.63-26.27-25.98,3.93-24.19,30.23-18.4,30.23-18.4,0,0-3.43-13.56-.43-16.63,3-3.07-.71-13.54-.71-20.12s-4.2-15.96-.84-22.63c3.37-6.68.49-14.26,2.16-19.12,1.67-4.85.37-17.79-.56-20.15-.93-2.37-7.63-25.47-3.42-31.47Z"/><path class="cls-2" d="M666.07,1383.13c-.13-41.2-3.18-1009.29-4.02-1037-.54-17.94-8.09-81.33-82.36-143.68-73.72-61.9-133.68-69.05-172.37-69.05-43,0-109.21,8.12-187.46,78.36-72.06,64.68-76.3,137.44-76.46,140.76v1037.74l.02.5c.31,3.22,3.26,31.76,12.73,42.97,27.38,32.39,92.57,51.23,108.53,54.5,31.82,6.53,84.67,13.99,159.89,13.99,5.61,0,11.35-.04,17.21-.13,88.52-1.31,129.89-21.85,160.1-36.85,4.68-2.32,9.06-4.5,13.3-6.44,54.66-24.94,50.9-75.6,50.87-75.67ZM610.8,1449.16c-4.34,1.98-8.83,4.21-13.62,6.59-29.3,14.55-69.43,34.47-155.55,35.74-83.45,1.24-141.14-6.74-174.82-13.65-22.54-4.62-79.67-23.87-102.57-50.96-6.16-7.29-9.46-28.85-10.25-36.89V352.77c.03-.71,4.34-71.56,72.94-133.14,75.55-67.81,139.13-75.65,180.38-75.65,37.04,0,94.49,6.9,165.56,66.57,70.9,59.53,78.07,119.07,78.58,135.89.84,27.57,3.98,1026.63,4.03,1037.14.14,1.78,2.98,43.82-44.7,65.57Z"/><rect class="cls-1" width="1356.63" height="1619.85"/></svg>