<?xml version="1.0" encoding="UTF-8"?><svg id="Complications" xmlns="http://www.w3.org/2000/svg" viewBox="0 0 32 32"><defs><style>.cls-1{fill:#dedede;}.cls-1,.cls-2,.cls-3,.cls-4,.cls-5,.cls-6,.cls-7,.cls-8,.cls-9,.cls-10,.cls-11,.cls-12,.cls-13,.cls-14,.cls-15,.cls-16,.cls-17,.cls-18,.cls-19,.cls-20,.cls-21,.cls-22,.cls-23,.cls-24,.cls-25,.cls-26,.cls-27,.cls-28,.cls-29,.cls-30,.cls-31,.cls-32,.cls-33,.cls-34,.cls-35,.cls-36,.cls-37{stroke-width:0px;}.cls-2{fill:#b7b2b6;}.cls-3{fill:#ac9585;}.cls-4{fill:#530b18;}.cls-5{fill:#0c0d0c;}.cls-6{fill:none;}.cls-7{fill:#848284;}.cls-8{fill:#294384;}.cls-9{fill:#b29971;}.cls-10{fill:#dcdce0;}.cls-11{fill:#38393b;}.cls-12{fill:#cfd1dd;}.cls-13{fill:#2b2b2c;}.cls-14{fill:#b2ab94;}.cls-15{fill:#f1efe5;}.cls-16{fill:#b9bac1;}.cls-17{fill:#c1bba5;}.cls-18{fill:#917b6f;}.cls-19{fill:#720616;}.cls-20{fill:#430d19;}.cls-21{fill:#cbad7d;}.cls-22{fill:#7d0615;}.cls-23{fill:#787978;}.cls-24{fill:#8a0019;}.cls-25{fill:#e9e4d2;}.cls-26{fill:#640c1a;}.cls-27{fill:#b2afa0;}.cls-28{fill:#333332;}.cls-29{fill:#8e8b80;}.cls-30{fill:#4a0916;}.cls-31{fill:#6f716f;}.cls-32{fill:#37599e;}.cls-33{fill:#893643;}.cls-34{fill:#c7ac99;}.cls-35{fill:#fff;}.cls-36{fill:#525252;}.cls-37{fill:#a6a6aa;}</style></defs><rect class="cls-6" y="0" width="32" height="32"/><path class="cls-35" d="M25,17.11l-.54-.33c-.54-.33.05-1.65,0-2.42-.05-.77-.4-.89-.4-.89,0,0,.03-1.68.04-2.18,0-.5-.3-.54-.3-.54l-4.26-2.99s0-.48-.36-.94c0,0,0,0,0-.01,0,0-.02-.02-.03-.03-.12-.15-.28-.29-.49-.41-.81-.47-1.36-.26-1.36-.26l-5.52-3.8L8.2,0c-.8-.11-.7.67-.7.67l-.26,8.63v3.55h.02s.11,18.41.11,18.41c0,.19.1.36.25.46.09.05.19.08.29.08.08,0,.16-.02.23-.05l8.67-4.16v1.76s-.03.04-.05.07c-.32,0-.72,0-1.17.24-.02,0-.03.02-.05.03-.19.03-.4.09-.61.2-.3.16-.72.69-.66,1.14.06.47.49.73.84.81.04,0,.08,0,.12.01,1.22,0,2.61-.01,2.78,0,.15.01.29.02.44.02.14,0,.27,0,.41-.02.16-.01.52-.05.8-.25.31-.04.85-.16.99-.71.02-.07.07-.3.02-3.91.02-.5.07-1.32.11-2.15.13-.03.25-.08.35-.15.32-.22.43-.31.24-4.65l.05.03s.4,0,.8-.2.28-.45.28-.45l.76-.25c.76-.25,1.22-1.04,1.55-1.43.33-.39.16-.62.16-.62Z"/><polygon class="cls-23" points="7.8 12.01 7.92 31.27 19.92 25.5 19.5 12.51 7.8 12.01"/><polygon class="cls-31" points="7.82 10.03 7.8 10.4 23.24 13.19 23.24 12.98 7.82 10.03"/><polygon class="cls-31" points="7.8 9.49 7.79 9.84 23.26 12.8 23.28 12.66 7.8 9.49"/><polygon class="cls-31" points="8.06 .54 8.04 1.14 23.55 11.52 23.56 11.24 8.06 .54"/><path class="cls-25" d="M15.21,16.21s-.08.46-.08.8.54.67.59.68c.05.01.17.12.07.1-.1-.01-.74-.6-.74-.6,0,0-.07.12,0,.23.07.12.22.31.12.48-.1.17-.16.18-.17-.01-.01-.2-.13-.5-.13-.5,0,0,.12.57.1.7-.01.13-.21.35-.21.35,0,0,.07-.52.04-.56-.03-.04-.05.48-.13.55-.08.07-.18.07-.18.07,0,0,.09-.48.09-.68s0-.83,0-.83l.1-.47-.1-.17.22-.13s.01-.13.42-.03Z"/><path class="cls-25" d="M23.62,15.55s.15.85.28,1.17.75.41.8.4c.05,0,.2.04.1.07-.1.03-.92-.27-.92-.27,0,0-.02.13.09.22.11.08.32.21.29.4-.03.2-.08.23-.16.05-.09-.18-.31-.41-.31-.41,0,0,.33.49.36.61.04.13-.06.41-.06.41,0,0-.14-.51-.18-.53-.04-.03.14.47.09.56-.05.09-.14.13-.14.13,0,0-.1-.48-.17-.66s-.31-.77-.31-.77l-.09-.47-.16-.12.16-.21s-.08-.53.33-.59Z"/><path class="cls-9" d="M12.5,10.9v-.14s.04-.15.06-.22c.02-.07,0-.23.03-.28.02-.05-.04-.36-.08-.41-.04-.06-.05-.22-.05-.22,0,0-.1-.37-.12-.45-.02-.08-.04-.22-.07-.26-.03-.05-.03-.27-.03-.27,0,0,.18-.04.2.1.02.14.11.3.15.27.04-.03.11-.26.11-.26,0,0,.16.1.11.17-.05.07.02.35.02.35l.24-.07s-.03.13-.1.18c-.08.05-.16.18-.19.26-.03.08,0,.38.02.5,0,.11.11.26.12.35,0,.08.04.2.06.31.02.11-.02.06-.11.03-.09-.03-.15-.11-.21-.05-.06.07-.17.11-.17.11Z"/><path class="cls-21" d="M12.23,11.2s-.03-.2-.03-.27.01-.25.01-.25l-.08-.11-.05-.5.04-.24s.22-.19.27-.21c.05-.02.25-.15.25-.15,0,0-.17-.06-.26-.03-.08.03-.26.09-.26.09,0,0,.02-.35.02-.39s-.05-.12-.05-.12c0,0-.17-.16-.2-.21-.02-.04-.06-.44-.06-.44,0,0-.09-.01-.12.05-.03.06.02.53.03.63.01.09-.08.14-.16.08-.08-.06-.28-.17-.36-.19-.08-.01-.26.02-.22.05.04.03.38.14.56.25.17.1.09.17.13.27.04.09.1.19.1.19,0,0,.09.42.09.61s.03.39-.01.5c-.04.11-.04.19-.04.19,0,0,.16.08.22.2.05.11.19.01.19.01Z"/><path class="cls-9" d="M13.88,10.67v-.13s.02-.14.04-.2c.01-.06,0-.21.01-.25.01-.04-.05-.32-.09-.37-.04-.05-.05-.19-.05-.19,0,0-.11-.33-.13-.4-.02-.08-.04-.19-.07-.23-.03-.04-.04-.24-.04-.24,0,0,.16-.04.18.08.02.13.11.27.15.24.03-.03.09-.24.09-.24,0,0,.15.09.11.15-.04.06.03.31.03.31l.22-.07s-.02.12-.09.17c-.07.05-.14.17-.16.24-.02.08.03.35.04.45.01.1.11.23.12.31.01.08.04.18.06.28.02.1-.01.05-.1.03-.09-.02-.14-.09-.19-.03-.05.06-.15.11-.15.11Z"/><path class="cls-21" d="M13.65,10.95s-.04-.17-.04-.24c0-.06,0-.22,0-.22l-.08-.1-.07-.45.03-.21s.19-.18.23-.2c.05-.02.22-.15.22-.15,0,0-.16-.05-.23-.02-.07.03-.23.09-.23.09,0,0,0-.32,0-.35,0-.04-.05-.11-.05-.11,0,0-.16-.14-.18-.18-.02-.04-.07-.4-.07-.4,0,0-.08,0-.11.05-.03.06.04.48.05.56.01.08-.07.13-.14.08-.08-.05-.26-.15-.33-.15-.07,0-.23.03-.19.06.04.03.35.11.51.2.16.09.09.15.13.24.04.08.1.16.1.16,0,0,.1.38.11.54,0,.17.04.35.01.45-.03.1-.03.17-.03.17,0,0,.15.07.2.17.05.1.17,0,.17,0Z"/><path class="cls-25" d="M14.54,11.53s-.05-.24-.1-.34c-.06-.1-.01-.26-.04-.31-.03-.05-.08-.22-.08-.22,0,0-.05-.04-.13-.06-.08-.02-.09-.09-.16-.06-.07.03-.11.12-.15.14-.04.02-.04.06-.06.13-.02.07.03.12.02.16,0,.04.08.05.06.08-.02.03-.03.04-.06.08-.03.04-.03,0-.06.17-.03.17-.05-.14-.06-.25-.01-.11-.02-.21-.04-.23-.03-.02-.09.14-.15.1-.05-.04-.11-.12-.16-.13-.05,0-.04-.06-.09,0-.05.06-.04.03-.06.12-.02.09.03.18.03.26,0,.08-.07.25-.11.36-.04.11,0,.33-.07.39-.07.06-.21.13-.19.36.03.23.09.45.09.52,0,.07.02.17.02.17,0,0,.06-.07.13-.04.07.03-.06.46-.18.63-.12.17-.2.94-.21,1.12-.01.18.09.3.09.3,0,0,.06-.47.23-.54.17-.07.35.18.35.18l.13.02s-.3-.22-.14-.23c.16,0,.41.16.43.22.02.05.4.48.47.6.07.13.09.39.09.46,0,.06.04.41.01.44-.03.03.11.04.11.04,0,0-.26-1.03-.12-1.35.15-.32.24-.45.28-.48.04-.02.46-.55.55-.68.09-.13.22-.56.2-.6-.02-.04-.16-.81-.25-.98-.09-.17-.22-.26-.3-.24-.09.01-.3-.28-.3-.28Z"/><path class="cls-25" d="M13.87,15.45s.14.26.03.37c-.11.11-.13.22-.16.34-.03.12-.05.3-.12.35-.07.06-.16.18-.16.18,0,0,.09.09.19.18.02.02.04.02.04.04,0,.02-.03.06-.03.09,0,0,.04,0,.04.02,0,.02-.04.05-.02.07.02.02.04,0,.07,0,.04.01.06.02.03.04-.05.04-.08.07-.09.14,0,.07-.02.3-.02.3,0,0,.1.04.08.09-.02.05,0,.06,0,.06l.19-.02.31-.27.08-.1s-.04-.19.02-.23c.05-.03.11-.04.1-.05,0-.02-.09-.03-.07-.05.04-.03.09-.02.11-.04.03-.06-.02-.09-.02-.09,0,0,.06-.03.06-.08,0-.05.19-.26.19-.26l.12-.06c-.05-.02-.29,0-.35-.05-.03-.03.19-.15.18-.17-.01-.03-.15.08-.17.05-.02-.04.16-.24.14-.24-.04,0-.23-.34-.23-.45,0-.11.05-.39-.02-.39-.06,0-.22-.19-.22-.19,0,0-.05-.17-.11-.2-.06-.02-.25-.35-.44-.39-.19-.05-.36-.04-.36-.04,0,0,.29.13.18.2-.11.07-.13-.26-.32-.24l-.19.02s.13.02.12.19c0,.17-.11.1-.16.09-.05-.01-.09,0-.09,0l.09.21s-.11-.09-.18-.08c-.08,0-.16.03-.07.14.09.1.39.25.15.22-.24-.03-.3.04-.3.04,0,0,.34.25.32.29-.02.04-.01-.03-.21-.04-.19-.02-.38,0-.2.12.18.11.43.23.4.3-.03.07-.34-.1-.42-.1-.09,0-.21.02-.21.02,0,0-.05.1.07.18.12.09.3.27.15.22-.15-.05-.26-.31-.15-.05.1.26.26.4.26.4,0,0-.35-.13-.43-.19-.08-.06-.28-.19-.28-.19,0,0-.06.11,0,.17.07.06.27.11.31.19.04.08.33.2.24.2-.09,0-.56-.24-.73-.31-.17-.07-.34-.52-.4-.33-.05.19.04.35.04.35,0,0-.36-.3-.35-.22,0,.08.13.25.18.37.06.12.03.2.24.27.21.07.27.16.27.16,0,0-.44-.43-.61-.55-.17-.13-.38-.07-.46-.04-.07.03-.04.14,0,.19.04.05-.18-.15-.22-.11-.04.04,0,.13.1.21.09.08,0,.13-.03.15-.04.02-.2,0,.15.13.35.12.54.2.64.2.1,0-.4.03-.56-.01l-.15-.05s.13.25.48.28c.36.04.69.02,1.06-.2.37-.22.68-.33.82-.35.14-.02.13.05.34,0,.21-.05.34-.11.34-.11,0,0,.21-.13.19-.25-.02-.12.14-.45.14-.45,0,0,.09-.19.1-.23.01-.04.15-.06.06-.15-.09-.09-.15-.19-.15-.19Z"/><path class="cls-33" d="M13.75,17.76s.03-.02.03-.04c0-.02.02-.04.05-.05.03,0,.08-.03.11-.05.03-.03.05-.04.11-.09.06-.05.1-.07.13-.09.03-.02.06-.06.08-.08.02-.02.04-.04.04-.04,0,0,.07.02.12.05.04.03.08.06.05.08-.03.02-.08,0-.05.03.03.04.1.04.07.06-.03.02-.12,0-.14,0-.02.02.11.06.08.08-.02.02-.14-.04-.14,0,0,.03.14.07.1.09-.04.02-.19-.05-.19-.02,0,.03.13.05.09.08-.04.03-.16-.01-.16-.01,0,0,.06.01.05.06-.01.04-.12,0-.14-.01-.01-.01.07.07.05.11-.02.04-.15-.05-.15-.05,0,0,.01.06-.01.07-.02.01-.05-.03-.06-.04-.02,0-.03.01-.05.03-.02.01-.02,0-.03-.07,0-.08-.05-.1-.05-.1Z"/><path class="cls-33" d="M13.63,17.52s.02-.03.02-.04c0-.01-.03-.13-.03-.14,0-.01,0-.08,0-.08,0,0-.04-.04-.05-.05,0-.01,0,.04-.01.07,0,.03,0,.07,0,.09,0,.02,0,.04,0,.08,0,.04,0,.05,0,.06,0,0,.02.02.04.02.02,0,.03,0,.03,0Z"/><path class="cls-5" d="M13.81,17.58l.07-.03v-.06s-.01.01-.01.03c0,.01-.05.06-.05.06Z"/><path class="cls-21" d="M13.62,17.52l-.02.07s-.05.12-.07.14c-.02.02.02.04.04.04.02,0,.07.01.1,0,.03,0,.1-.02.1-.02,0,0,0-.06,0-.08-.01-.02-.02-.07-.03-.08,0-.02-.11-.07-.11-.07Z"/><path class="cls-27" d="M14.17,11.77s.27.24.32.33c.05.08.27.29.25.35-.02.07,0,.39,0,.39l.14-.18s.12-.28-.04-.39c-.16-.1-.21-.4-.28-.42-.07-.02-.27-.27-.34-.28-.07-.02-.25-.31-.25-.31l-.07-.22-.12.25.39.48Z"/><path class="cls-29" d="M13.14,11.52s.4.44.55.64c.15.2.5.39.5.64s.17,1.01.02,1.21c-.14.2-1.21,1.39-1.29,1.56-.07.17-.18.45-.18.45l-.2-.43s.79-1.63.92-1.81c.13-.18.13-1.2.13-1.2l-.21-.36-.24-.19-.17-.4.16-.11Z"/><path class="cls-15" d="M13.18,11.88s-.04-.27-.09-.38c-.06-.11,0-.29-.03-.35-.03-.06-.08-.25-.08-.25,0,0-.06-.05-.14-.08-.08-.03-.09-.1-.17-.08-.08.03-.13.13-.18.15-.05.02-.05.07-.07.14-.03.08.03.13.02.18,0,.05.08.06.07.09-.02.04-.04.05-.08.08-.04.04-.03,0-.08.19-.05.19-.05-.16-.06-.28,0-.12,0-.23-.04-.25-.03-.02-.11.15-.17.1-.06-.05-.11-.14-.17-.15-.06,0-.04-.07-.1-.01-.06.06-.04.03-.07.13-.03.09.02.2.02.29s-.09.27-.14.39c-.05.12-.02.37-.1.43-.08.07-.24.13-.23.38.02.25.08.51.08.58s0,.19,0,.19c0,0,.07-.08.14-.04.08.04-.09.51-.23.69-.14.18-.27,1.03-.29,1.23-.02.2.08.33.08.33,0,0,.1-.51.29-.58.19-.07.38.21.38.21l.14.02s-.32-.26-.14-.26.44.2.46.26c.02.06.42.55.49.69.07.14.08.44.07.51-.01.07.02.45-.01.49-.04.04.12.05.12.05,0,0-.24-1.15-.06-1.5.18-.35.29-.49.33-.51.05-.02.54-.58.64-.73.11-.14.27-.61.25-.65-.02-.05-.13-.9-.23-1.1-.1-.19-.23-.3-.32-.29-.1.01-.32-.33-.32-.33Z"/><path class="cls-17" d="M12.18,16.19s.15.3.01.42c-.13.12-.16.24-.21.37-.04.13-.07.33-.16.39-.09.06-.19.19-.19.19,0,0,.1.1.21.21.03.03.05.02.05.04,0,.02-.04.07-.04.09,0,0,.05,0,.05.02,0,.03-.04.05-.02.07.02.02.04,0,.08,0,.04.02.07.02.04.04-.06.04-.1.07-.12.15-.01.07-.04.33-.04.33,0,0,.12.05.09.1-.03.06,0,.06,0,.06h.22s.38-.3.38-.3l.1-.1s-.04-.21.04-.26c.06-.04.13-.04.13-.05,0-.02-.11-.04-.08-.06.04-.03.11-.02.13-.04.04-.06-.02-.1-.02-.1,0,0,.07-.03.07-.09s.24-.28.24-.28l.15-.06c-.06-.02-.33-.02-.4-.08-.04-.03.22-.15.21-.18-.01-.03-.18.08-.2.04-.02-.05.21-.26.18-.26-.04,0-.33-.46-.31-.58.01-.12.15-.28.07-.28s-.24-.21-.24-.21c0,0-.04-.28-.12-.31-.07-.03-.27-.4-.49-.46-.22-.06-.42-.06-.42-.06,0,0,.33.16.2.24-.14.08-.14-.3-.36-.28h-.22s.15.04.13.24c-.01.19-.13.1-.19.09-.06-.01-.11,0-.11,0l.09.23s-.12-.1-.21-.1-.19.03-.09.15c.1.12.44.3.16.25-.28-.04-.36.03-.36.03,0,0,.39.3.36.34-.03.04-.01-.03-.24-.06-.22-.03-.44-.01-.24.12.21.13.49.28.44.36-.04.07-.39-.13-.49-.13s-.25.01-.25.01c0,0-.06.1.07.21.13.1.34.31.16.25-.18-.06-.28-.36-.18-.06.1.3.28.46.28.46,0,0-.4-.16-.49-.24-.09-.07-.31-.22-.31-.22,0,0-.07.12,0,.19.07.07.31.13.36.22.04.09.37.24.27.24s-.64-.3-.83-.39c-.19-.09-.37-.59-.44-.39-.07.21.03.39.03.39,0,0-.4-.36-.4-.27s.13.28.19.42c.06.13.03.22.27.31.24.09.31.19.31.19,0,0-.52-.1-.71-.25-.19-.15-.42-.49-.5-.46-.09.03-.06.15-.01.21.04.06-.21-.18-.25-.13-.04.04,0,.15.1.24.1.09,0,.15-.04.16-.04.01-.24,0,.16.15.4.15.62.25.74.25s-.47.01-.65-.04l-.18-.06s.13.28.55.34c.42.06.8.06,1.25-.16.44-.22.82-.33.98-.34.16-.01.15.06.4.01.25-.04.4-.1.4-.1,0,0,.25-.13.24-.27-.01-.13.19-.49.19-.49,0,0,.12-.21.13-.25.01-.04.18-.06.07-.16-.1-.1-.16-.22-.16-.22Z"/><path class="cls-33" d="M11.98,18.75s.03-.02.04-.04c0-.02.02-.04.06-.05.03,0,.09-.02.13-.05.04-.03.06-.04.13-.09.07-.05.11-.07.15-.09.04-.02.07-.07.09-.08.02-.02.04-.04.04-.04,0,0,.08.02.13.06.04.04.09.07.06.09-.03.02-.09,0-.06.04.03.04.11.05.08.07-.03.02-.13-.01-.15,0-.02.02.11.07.09.1s-.16-.05-.16-.02c0,.03.15.09.11.11-.04.02-.21-.06-.21-.03,0,.03.14.06.09.09-.05.03-.17-.02-.17-.02,0,0,.06.02.05.07-.01.05-.14,0-.15-.02-.02-.02.08.08.05.12-.03.04-.16-.06-.16-.06,0,0,.01.07-.01.08-.03.01-.05-.04-.07-.04-.02,0-.03.01-.06.03-.03.01-.03,0-.03-.08s-.04-.11-.04-.11Z"/><path class="cls-33" d="M11.86,18.48s.02-.03.02-.04-.03-.15-.02-.16c0-.01.01-.08.01-.08,0,0-.05-.04-.05-.06,0-.01,0,.04-.01.07,0,.03,0,.07-.01.1,0,.02,0,.04,0,.08s0,.06,0,.07c0,0,.02.02.04.02.02,0,.03,0,.03,0Z"/><path class="cls-5" d="M12.06,18.55l.08-.03v-.07s0,.01-.01.03c0,.01-.06.06-.06.06Z"/><path class="cls-21" d="M11.85,18.48l-.03.07s-.06.13-.08.15c-.02.02.02.04.04.05.02,0,.07.02.11,0,.03,0,.11-.01.11-.01,0,0,0-.07,0-.09-.01-.02-.02-.08-.03-.1,0-.02-.12-.08-.12-.08Z"/><path class="cls-29" d="M11.69,17.61s.19-.19.3-.29c.11-.1.15-.31.16-.43,0-.12.07-.28.07-.3s.05-.28.05-.28c0,0-.03.39-.02.48,0,.09.04.11.01.18-.03.07.01.18-.07.27-.08.09-.03.09-.12.16-.09.07-.2.2-.23.24-.03.04-.02.09-.02.09l-.13-.13Z"/><path class="cls-27" d="M12.77,12.13s.29.29.33.38c.05.1.29.33.26.4-.02.07-.02.43-.02.43l.17-.19s.14-.31-.02-.43c-.17-.12-.21-.45-.29-.48-.07-.02-.29-.31-.36-.33-.07-.02-.26-.36-.26-.36l-.07-.25-.15.27.41.55Z"/><path class="cls-9" d="M16.21,11.3v-.1s.03-.11.04-.16c.01-.05,0-.17.02-.2.01-.03-.03-.26-.05-.3-.03-.04-.03-.16-.03-.16,0,0-.07-.27-.09-.33-.01-.06-.03-.16-.05-.19-.02-.03-.02-.2-.02-.2,0,0,.13-.03.14.07.01.1.08.22.11.2.03-.02.08-.19.08-.19,0,0,.12.07.08.12-.03.05.01.25.01.25l.18-.05s-.02.1-.07.13c-.05.03-.12.13-.14.19-.02.06,0,.28.01.36,0,.08.08.19.09.25,0,.06.03.14.04.22.01.08-.01.04-.08.02-.07-.02-.11-.08-.15-.03-.04.05-.12.08-.12.08Z"/><path class="cls-21" d="M16.02,11.52s-.02-.14-.02-.19,0-.18,0-.18l-.06-.08-.04-.37.03-.17s.16-.13.19-.15c.04-.01.18-.11.18-.11,0,0-.13-.04-.19-.02-.06.02-.19.07-.19.07,0,0,.01-.25.01-.28s-.04-.09-.04-.09c0,0-.13-.12-.14-.15-.01-.03-.04-.32-.04-.32,0,0-.07,0-.09.04-.02.04.01.39.02.45,0,.07-.06.1-.12.06-.06-.04-.2-.13-.26-.13-.06,0-.19.01-.16.04.03.02.28.1.4.18.13.07.07.13.1.19.03.07.07.13.07.13,0,0,.07.31.07.44s.02.28,0,.37c-.03.08-.03.13-.03.13,0,0,.12.06.16.14.04.08.13,0,.13,0Z"/><path class="cls-9" d="M17.22,11.14v-.09s.02-.1.03-.14c.01-.04,0-.15,0-.18.01-.03-.04-.23-.06-.27-.03-.04-.04-.14-.04-.14,0,0-.08-.24-.09-.29-.01-.05-.03-.14-.05-.17-.02-.03-.03-.18-.03-.18,0,0,.12-.03.13.06.02.09.08.19.11.17.02-.02.07-.18.07-.18,0,0,.11.06.08.11-.03.04.02.23.02.23l.16-.05s-.01.09-.06.12c-.05.03-.1.12-.11.18-.02.06.02.25.03.32,0,.07.08.17.09.22,0,.05.03.13.05.2.02.07-.01.04-.07.02-.06-.02-.1-.07-.14-.02s-.11.08-.11.08Z"/><path class="cls-21" d="M17.05,11.34s-.03-.13-.03-.17c0-.05,0-.16,0-.16l-.06-.07-.05-.33.02-.16s.14-.13.17-.14c.03-.01.16-.11.16-.11,0,0-.12-.03-.17-.01-.05.02-.16.07-.16.07,0,0,0-.23,0-.26,0-.03-.04-.08-.04-.08,0,0-.12-.1-.13-.13-.01-.03-.05-.29-.05-.29,0,0-.06,0-.08.04-.02.04.03.35.04.41,0,.06-.05.1-.1.06-.06-.04-.19-.11-.24-.11-.05,0-.17.02-.14.04.03.02.25.08.37.14.12.06.07.11.1.17.03.06.07.12.07.12,0,0,.07.27.08.39,0,.12.03.25,0,.33-.02.08-.02.12-.02.12,0,0,.11.05.15.12.04.07.12,0,.12,0Z"/><path class="cls-25" d="M17.69,11.76s-.03-.18-.07-.25c-.04-.07,0-.19-.03-.23-.02-.04-.06-.16-.06-.16,0,0-.04-.03-.09-.04-.06-.02-.06-.06-.11-.04-.05.02-.08.09-.11.1-.03.01-.03.04-.04.09-.02.05.02.08.02.12,0,.03.06.03.05.06-.01.03-.02.03-.05.06-.02.03-.02,0-.04.12-.02.12-.04-.1-.05-.18-.01-.08-.01-.15-.03-.16-.02-.01-.07.1-.11.07-.04-.03-.08-.09-.11-.09-.04,0-.03-.05-.06,0-.04.04-.03.02-.04.08-.02.06.02.13.02.19,0,.06-.05.18-.08.26-.03.08,0,.24-.05.29-.05.05-.16.09-.14.26.02.16.06.33.07.38,0,.05.01.12.01.12,0,0,.04-.05.09-.03.05.02-.05.33-.13.45-.09.12-.14.68-.15.81,0,.13.06.21.06.21,0,0,.05-.34.17-.39.12-.05.26.13.26.13h.09s-.22-.15-.1-.16c.12,0,.29.12.31.16.02.04.29.34.34.44.05.09.07.28.06.33,0,.05.03.29,0,.32-.02.02.08.03.08.03,0,0-.19-.75-.09-.98.11-.23.17-.33.2-.34.03-.02.33-.4.4-.49.07-.1.16-.4.14-.44-.02-.03-.11-.59-.18-.71-.07-.12-.16-.19-.22-.18-.06.01-.22-.21-.22-.21Z"/><path class="cls-25" d="M17.17,14.6s.11.19.02.27c-.08.08-.1.16-.12.25-.02.09-.04.22-.09.26-.06.04-.12.13-.12.13,0,0,.07.06.14.13.02.02.03.01.03.03,0,.02-.03.05-.03.06,0,0,.03,0,.03.01,0,.02-.03.04-.01.05.01.01.03,0,.05,0,.03,0,.05.01.02.03-.04.03-.06.05-.07.1,0,.05-.02.22-.02.22,0,0,.08.03.06.07-.02.04,0,.04,0,.04h.15s.24-.21.24-.21l.06-.07s-.03-.14.02-.17c.04-.03.08-.03.08-.03,0-.01-.07-.02-.06-.03.03-.02.07-.01.08-.03.03-.04-.01-.06-.01-.06,0,0,.04-.02.04-.06,0-.04.15-.19.15-.19l.09-.04s-.22,0-.26-.04c-.02-.02.14-.11.13-.12,0-.02-.12.06-.13.03-.01-.03.13-.18.11-.17-.03,0-.23-.29-.22-.37,0-.08.09-.19.04-.19-.05,0-.16-.13-.16-.13,0,0-.04-.18-.09-.2-.05-.02-.19-.25-.33-.28-.14-.03-.27-.03-.27-.03,0,0,.22.09.14.15-.09.05-.1-.19-.24-.17l-.14.02s.1.01.09.14c0,.13-.08.07-.12.06-.04,0-.07,0-.07,0l.07.15s-.08-.06-.14-.06c-.06,0-.12.03-.05.1.07.07.3.18.11.16-.19-.02-.23.03-.23.03,0,0,.26.18.24.21-.02.03-.01-.02-.16-.03-.15-.01-.29,0-.15.08.14.08.33.17.3.22-.03.05-.26-.08-.32-.07-.07,0-.16.02-.16.02,0,0-.04.07.05.13.09.06.23.19.11.16-.12-.03-.19-.22-.12-.03.08.19.2.29.2.29,0,0-.27-.09-.33-.14-.06-.05-.21-.14-.21-.14,0,0-.04.08,0,.13.05.05.21.08.24.13.03.06.25.14.18.15-.07,0-.43-.17-.55-.23-.13-.05-.26-.38-.3-.24-.04.14.03.25.03.25,0,0-.27-.22-.27-.16,0,.06.1.18.14.26.04.09.03.14.18.19.16.05.21.12.21.12,0,0-.34-.05-.47-.14-.13-.09-.29-.31-.34-.28-.06.02-.03.1,0,.14.03.04-.14-.11-.17-.08-.03.03,0,.1.08.15.07.05,0,.1-.02.11-.03.01-.15,0,.11.09.27.08.41.15.49.14.08,0-.31.02-.43,0l-.12-.03s.1.18.37.21c.27.03.52.01.81-.15.28-.16.52-.24.63-.25.11-.01.1.03.26,0,.16-.04.26-.08.26-.08,0,0,.16-.09.15-.18-.01-.09.11-.33.11-.33,0,0,.07-.14.08-.17,0-.03.11-.04.04-.11-.07-.06-.11-.14-.11-.14Z"/><path class="cls-33" d="M17.12,16.28s.02-.01.02-.03c0-.02.01-.03.04-.03.02,0,.06-.02.08-.04.02-.02.04-.03.08-.06.04-.04.07-.05.09-.07.02-.02.05-.05.06-.06.01-.01.03-.03.03-.03,0,0,.05.01.08.03.03.02.06.04.04.05-.02.01-.06,0-.04.03.02.03.07.03.05.05-.02.01-.08,0-.1,0-.01.01.08.05.06.06-.01.02-.1-.03-.1,0,0,.02.1.05.07.07-.03.01-.14-.03-.14-.01,0,.02.09.04.06.06-.03.02-.11,0-.11,0,0,0,.04,0,.03.04,0,.03-.09,0-.1,0-.01,0,.05.05.04.08-.02.03-.11-.03-.11-.03,0,0,0,.04,0,.05-.02,0-.03-.02-.05-.03-.01,0-.02.01-.04.02-.02.01-.02,0-.02-.05,0-.06-.03-.07-.03-.07Z"/><path class="cls-33" d="M17.04,16.1s.01-.02.01-.03c0,0-.02-.09-.02-.1,0,0,0-.05,0-.05,0,0-.03-.03-.03-.04,0,0,0,.03,0,.05,0,.02,0,.05,0,.06,0,.01,0,.03,0,.05,0,.03,0,.04,0,.04,0,0,.01.01.03.01.01,0,.02,0,.02,0Z"/><path class="cls-5" d="M17.17,16.14l.05-.02v-.04s0,.01-.01.02c0,0-.04.04-.04.04Z"/><path class="cls-21" d="M17.03,16.1l-.02.05s-.04.09-.05.1c-.01.02.01.03.03.03.02,0,.05,0,.07,0,.02,0,.07-.01.07-.01,0,0,0-.05,0-.06-.01-.01-.02-.05-.02-.06,0-.01-.08-.05-.08-.05Z"/><path class="cls-27" d="M17.43,11.93s.2.18.23.24c.03.06.2.21.18.26-.01.05,0,.28,0,.28l.1-.13s.08-.21-.03-.28c-.11-.07-.15-.29-.2-.3-.05-.01-.2-.19-.24-.21-.05-.01-.18-.22-.18-.22l-.05-.16-.09.18.28.34Z"/><path class="cls-29" d="M16.68,11.75s.29.32.4.46c.11.15.36.28.36.47s.12.73.02.88c-.1.15-.88,1.01-.93,1.13-.05.12-.13.33-.13.33l-.15-.31s.57-1.18.66-1.31c.09-.13.09-.87.09-.87l-.16-.26-.17-.14-.12-.29.12-.08Z"/><path class="cls-25" d="M16.71,12.02s-.03-.2-.07-.28c-.04-.08,0-.21-.02-.25-.02-.04-.05-.18-.05-.18,0,0-.04-.03-.1-.05-.06-.02-.07-.07-.12-.05-.05.02-.1.1-.13.11-.03.01-.03.05-.05.1-.02.05.02.1.01.13,0,.03.06.04.05.07-.01.03-.03.03-.05.06-.03.03-.02,0-.05.14-.03.14-.03-.12-.04-.2,0-.09,0-.17-.03-.18-.02-.01-.08.11-.12.07-.04-.03-.08-.1-.12-.11-.04,0-.03-.05-.07,0-.04.04-.03.02-.05.09-.02.07.01.14.01.21s-.07.2-.1.29c-.03.09-.01.27-.07.31-.06.05-.18.1-.16.28.01.18.05.37.05.42s0,.14,0,.14c0,0,.05-.05.1-.03.05.03-.07.37-.17.5-.1.13-.19.74-.21.89-.02.15.06.24.06.24,0,0,.07-.37.21-.42.14-.05.28.16.28.16l.1.02s-.23-.19-.1-.19.32.15.34.19c.02.04.3.4.35.5.05.1.06.32.05.37,0,.05.02.33,0,.35-.03.03.09.03.09.03,0,0-.17-.84-.04-1.09.13-.25.21-.35.24-.37.03-.02.39-.42.47-.53.08-.1.2-.44.18-.47-.02-.03-.09-.66-.16-.79-.07-.14-.16-.22-.23-.21-.07,0-.23-.24-.23-.24Z"/><path class="cls-14" d="M15.98,15.14s.11.21.01.3c-.1.09-.12.17-.15.27-.03.1-.05.24-.12.28-.06.04-.14.14-.14.14,0,0,.08.08.15.15.02.02.04.02.03.03,0,.02-.03.05-.03.07,0,0,.03,0,.04.02,0,.02-.03.04-.02.05.02.01.03,0,.06,0,.03.01.05.01.03.03-.04.03-.07.05-.08.11-.01.05-.03.24-.03.24,0,0,.08.03.06.08-.02.04,0,.05,0,.05h.16s.28-.22.28-.22l.07-.08s-.03-.15.03-.19c.05-.03.09-.03.09-.03,0-.02-.08-.03-.06-.04.03-.02.08-.01.09-.03.03-.04-.01-.07-.01-.07,0,0,.05-.02.05-.06s.17-.2.17-.2l.11-.04s-.24-.01-.29-.06c-.03-.02.16-.11.16-.13,0-.02-.13.06-.14.03-.01-.03.15-.19.13-.19-.03,0-.24-.33-.23-.42.01-.09.11-.2.05-.2s-.17-.15-.17-.15c0,0-.03-.2-.09-.23-.05-.02-.2-.29-.35-.33-.16-.04-.3-.04-.3-.04,0,0,.24.12.14.17-.1.05-.1-.21-.26-.2h-.16s.11.03.1.17c-.01.14-.1.08-.14.06-.04-.01-.08,0-.08,0l.07.17s-.09-.08-.15-.08-.14.02-.06.11c.08.09.32.21.12.18-.2-.03-.26.02-.26.02,0,0,.28.21.26.25-.02.03-.01-.02-.17-.04-.16-.02-.32-.01-.17.09.15.1.35.2.32.26-.03.05-.28-.1-.35-.1s-.18.01-.18.01c0,0-.04.08.05.15.1.08.25.23.12.18-.13-.04-.2-.26-.13-.04.08.21.2.33.2.33,0,0-.29-.12-.35-.17s-.23-.16-.23-.16c0,0-.05.09,0,.14.05.05.23.1.26.16.03.06.27.17.19.17s-.46-.21-.6-.28c-.14-.06-.27-.43-.32-.28-.05.15.02.28.02.28,0,0-.29-.26-.29-.19s.1.2.14.3c.04.1.02.16.19.23.17.06.23.14.23.14,0,0-.38-.08-.52-.18-.14-.11-.3-.35-.37-.33-.06.02-.04.11-.01.15.03.04-.15-.13-.18-.1-.03.03,0,.11.08.17.08.06,0,.11-.03.12-.03.01-.17,0,.12.11.29.11.45.18.54.18s-.34.01-.47-.03l-.13-.04s.1.2.4.25c.3.04.58.04.9-.12.32-.16.59-.24.71-.25.12-.01.11.04.29.01.18-.03.29-.08.29-.08,0,0,.18-.1.17-.19-.01-.1.14-.35.14-.35,0,0,.09-.15.1-.18.01-.03.13-.04.05-.12-.08-.08-.12-.16-.12-.16Z"/><path class="cls-33" d="M15.84,16.99s.02-.02.03-.03c0-.02.02-.03.04-.03.02,0,.06-.02.09-.04.03-.02.05-.03.1-.07.05-.04.08-.05.11-.07.03-.02.05-.05.07-.06.01-.01.03-.03.03-.03,0,0,.06.02.09.04.03.03.06.05.04.06-.02.02-.06,0-.05.03.02.03.08.04.06.05-.02.02-.09-.01-.11,0-.02.01.08.05.06.07-.02.02-.11-.03-.11-.01,0,.02.11.06.08.08-.03.02-.15-.05-.16-.02,0,.02.1.05.07.07-.03.02-.13-.02-.13-.02,0,0,.05.01.03.05-.01.03-.1,0-.11-.02-.01-.01.06.06.04.09-.02.03-.12-.04-.12-.04,0,0,0,.05-.01.06-.02,0-.04-.03-.05-.03-.01,0-.02.01-.04.02-.02.01-.02,0-.02-.06s-.03-.08-.03-.08Z"/><path class="cls-33" d="M15.75,16.79s.02-.02.02-.03-.02-.11-.02-.11c0,0,0-.06,0-.06,0,0-.03-.03-.04-.04,0-.01,0,.03-.01.05,0,.02,0,.05,0,.07,0,.02,0,.03,0,.06s0,.04,0,.05c0,0,.01.02.03.02.02,0,.02,0,.02,0Z"/><path class="cls-5" d="M15.9,16.85l.06-.02v-.05s0,.01-.01.02c0,.01-.05.05-.05.05Z"/><path class="cls-21" d="M15.74,16.79l-.02.05s-.05.09-.06.11c-.02.02.02.03.03.03.02,0,.05.01.08,0,.02,0,.08-.01.08-.01,0,0,0-.05,0-.06-.01-.01-.02-.06-.02-.07,0-.01-.09-.06-.09-.06Z"/><path class="cls-29" d="M15.63,16.16s.14-.14.22-.21c.08-.07.11-.22.12-.31,0-.08.05-.2.05-.22s.04-.2.04-.2c0,0-.02.28-.02.35,0,.07.03.08,0,.13-.02.05,0,.13-.05.2-.06.07-.02.07-.08.12-.06.05-.15.15-.17.18-.02.03-.01.06-.01.06l-.1-.09Z"/><path class="cls-27" d="M16.41,12.2s.21.21.24.28c.03.07.21.24.19.29-.02.05-.02.31-.02.31l.12-.14s.1-.22-.02-.31c-.12-.09-.16-.33-.21-.35-.05-.02-.21-.22-.26-.24-.05-.02-.19-.26-.19-.26l-.05-.18-.11.2.3.4Z"/><path class="cls-25" d="M19.07,14.94s-.04.26-.04.44.3.37.33.38c.03,0,.09.07.04.06-.06,0-.42-.34-.42-.34,0,0-.04.07,0,.13.04.07.12.17.07.27-.06.09-.09.1-.09,0,0-.11-.07-.28-.07-.28,0,0,.07.32.06.39,0,.07-.12.2-.12.2,0,0,.04-.29.02-.31-.01-.02-.03.27-.07.31-.04.04-.1.04-.1.04,0,0,.05-.27.05-.38s0-.46,0-.46l.05-.26-.06-.09.12-.07s0-.07.23-.01Z"/><path class="cls-9" d="M18.7,11.87v-.08s.02-.08.03-.12c.01-.04,0-.13.02-.16.01-.03-.02-.2-.04-.23-.02-.03-.03-.12-.03-.12,0,0-.06-.2-.07-.25-.01-.05-.02-.12-.04-.15-.02-.03-.02-.15-.02-.15,0,0,.1-.02.11.06.01.08.06.17.08.15.02-.02.06-.15.06-.15,0,0,.09.06.06.09-.03.04.01.19.01.19l.14-.04s-.02.07-.06.1c-.04.03-.09.1-.1.15-.02.05,0,.21.01.28,0,.06.06.15.07.19,0,.05.02.11.03.17.01.06-.01.03-.06.02-.05-.02-.08-.06-.11-.03-.03.04-.09.06-.09.06Z"/><path class="cls-21" d="M18.55,12.03s-.02-.11-.02-.15,0-.14,0-.14l-.05-.06-.03-.28.02-.13s.12-.1.15-.11c.03-.01.14-.09.14-.09,0,0-.1-.03-.14-.02-.05.02-.14.05-.14.05,0,0,.01-.19.01-.22s-.03-.07-.03-.07c0,0-.1-.09-.11-.11-.01-.02-.03-.25-.03-.25,0,0-.05,0-.07.03-.02.03.01.3.02.35,0,.05-.05.08-.09.05-.05-.03-.15-.1-.2-.1-.05,0-.14.01-.12.03.02.02.21.08.31.14.1.06.05.1.07.15.02.05.06.1.06.1,0,0,.05.23.05.34s.02.22,0,.28c-.02.06-.02.1-.02.1,0,0,.09.05.12.11.03.06.1,0,.1,0Z"/><path class="cls-9" d="M19.47,11.74v-.07s.01-.08.02-.11c0-.03,0-.12,0-.14,0-.02-.03-.18-.05-.21-.02-.03-.03-.11-.03-.11,0,0-.06-.18-.07-.22-.01-.04-.02-.11-.04-.13-.02-.02-.02-.14-.02-.14,0,0,.09-.02.1.05.01.07.06.15.08.13.02-.01.05-.13.05-.13,0,0,.08.05.06.08-.02.03.02.17.02.17l.12-.04s-.01.07-.05.09c-.04.03-.08.09-.09.14-.01.04.01.19.02.25,0,.06.06.13.07.17,0,.04.02.1.04.15.01.06,0,.03-.06.02-.05-.01-.08-.05-.1-.02-.03.03-.08.06-.08.06Z"/><path class="cls-21" d="M19.34,11.9s-.02-.1-.02-.13c0-.04,0-.12,0-.12l-.04-.05-.04-.25v-.12s.12-.1.14-.11c.03-.01.12-.08.12-.08,0,0-.09-.03-.13,0-.04.02-.13.05-.13.05,0,0,0-.18,0-.2,0-.02-.03-.06-.03-.06,0,0-.09-.08-.1-.1-.01-.02-.04-.22-.04-.22,0,0-.05,0-.06.03-.01.03.02.27.03.31,0,.05-.04.07-.08.05-.04-.03-.14-.08-.18-.08-.04,0-.13.02-.11.03.02.01.19.06.28.11.09.05.05.09.07.13.02.05.06.09.06.09,0,0,.06.21.06.3,0,.09.02.19,0,.25-.02.06-.02.09-.02.09,0,0,.08.04.11.09s.09,0,.09,0Z"/><path class="cls-25" d="M19.84,12.22s-.03-.14-.06-.19c-.03-.06,0-.15-.02-.17-.02-.03-.04-.13-.04-.13,0,0-.03-.02-.07-.03-.04-.01-.05-.05-.09-.03-.04.02-.06.07-.09.08-.02.01-.02.03-.03.07-.01.04.02.07.01.09,0,.02.04.03.04.05,0,.02-.02.02-.04.04-.02.02-.01,0-.03.1-.02.1-.03-.08-.04-.14,0-.06-.01-.12-.02-.13-.01,0-.05.08-.08.06-.03-.02-.06-.07-.09-.07-.03,0-.02-.04-.05,0-.03.03-.02.02-.03.06-.01.05.01.1.02.15,0,.05-.04.14-.06.2-.02.06,0,.18-.04.22-.04.03-.12.07-.1.2.02.13.05.25.05.29,0,.04,0,.09,0,.09,0,0,.03-.04.07-.02.04.02-.03.26-.1.35-.07.09-.11.52-.12.62,0,.1.05.16.05.16,0,0,.04-.26.13-.3.09-.04.2.1.2.1h.07s-.17-.11-.08-.12c.09,0,.23.09.24.12.01.03.22.26.26.33.04.07.05.22.05.25,0,.04.02.23,0,.24-.02.02.06.02.06.02,0,0-.15-.57-.07-.75.08-.18.13-.25.15-.26.02-.01.25-.3.3-.38.05-.07.12-.31.11-.33-.01-.02-.09-.45-.14-.54-.05-.09-.12-.14-.17-.14-.05,0-.17-.16-.17-.16Z"/><path class="cls-25" d="M19.44,14.4s.08.15.02.21c-.06.06-.08.12-.1.19-.02.07-.03.17-.07.2-.04.03-.09.1-.09.1,0,0,.05.05.11.1.01.01.03.01.02.02,0,.01-.02.04-.02.05,0,0,.02,0,.03.01,0,.01-.02.03-.01.04.01,0,.02,0,.04,0,.02,0,.03,0,.02.02-.03.02-.05.04-.05.08,0,.04-.01.17-.01.17,0,0,.06.02.05.05-.01.03,0,.03,0,.03h.11s.18-.16.18-.16l.05-.05s-.03-.1.01-.13c.03-.02.06-.02.06-.03,0-.01-.05-.02-.04-.03.02-.02.05-.01.06-.02.02-.03-.01-.05-.01-.05,0,0,.03-.02.03-.04,0-.03.11-.15.11-.15l.07-.03s-.17,0-.2-.03c-.02-.01.11-.08.1-.09,0-.02-.09.04-.1.03-.01-.02.1-.13.08-.13-.02,0-.18-.22-.17-.28,0-.06.07-.14.03-.14-.04,0-.12-.1-.12-.1,0,0-.03-.14-.07-.15-.04-.01-.14-.19-.26-.22-.11-.03-.21-.02-.21-.02,0,0,.17.07.1.11s-.08-.14-.19-.13h-.11s.08.02.07.12c0,.1-.06.06-.09.05-.03,0-.06,0-.06,0l.05.11s-.06-.05-.11-.05c-.04,0-.1.02-.04.08.05.06.23.14.09.12-.14-.02-.18.02-.18.02,0,0,.2.14.19.16-.01.02,0-.01-.12-.02-.11,0-.22,0-.12.07.11.06.25.13.23.17-.02.04-.2-.06-.25-.06-.05,0-.13.01-.13.01,0,0-.03.05.04.1.07.05.18.15.09.12-.09-.03-.15-.17-.09-.03.06.15.15.22.15.22,0,0-.2-.07-.25-.11-.05-.04-.16-.1-.16-.1,0,0-.03.06,0,.1.04.04.16.06.18.1.02.04.19.11.14.11-.05,0-.33-.13-.42-.17-.1-.04-.2-.29-.23-.18-.03.11.02.19.02.19,0,0-.21-.17-.21-.12,0,.04.07.14.11.2.03.07.02.11.14.15.12.04.16.09.16.09,0,0-.26-.04-.36-.11-.1-.07-.22-.24-.26-.22-.04.02-.03.08,0,.1.02.03-.11-.08-.13-.06-.02.02,0,.07.06.12.05.04,0,.07-.02.08-.02,0-.12,0,.09.07.2.06.32.11.38.11.06,0-.24.02-.33,0l-.09-.03s.07.14.28.16c.21.02.4.01.62-.11.22-.12.4-.18.48-.19.08-.01.08.03.2,0,.13-.03.2-.06.2-.06,0,0,.12-.07.11-.14-.01-.07.08-.25.08-.25,0,0,.05-.11.06-.13,0-.02.09-.03.03-.08-.05-.05-.09-.11-.09-.11Z"/><path class="cls-33" d="M19.4,15.68s.02-.01.02-.02c0-.01.01-.02.03-.03.02,0,.04-.01.06-.03.02-.01.03-.02.06-.05.03-.03.06-.04.07-.05.02-.01.04-.03.04-.04,0,0,.02-.02.02-.02,0,0,.04,0,.06.03.02.02.04.03.03.04-.01.01-.04,0-.03.02.01.02.06.02.04.04-.02.01-.06,0-.08,0-.01,0,.06.03.05.05-.01.01-.08-.02-.08,0,0,.01.08.04.06.05-.02.01-.11-.03-.11-.01,0,.01.07.03.05.04-.02.02-.09,0-.09,0,0,0,.03,0,.03.03,0,.02-.07,0-.08,0,0,0,.04.04.03.06-.01.02-.08-.03-.08-.03,0,0,0,.03,0,.04-.01,0-.03-.02-.04-.02,0,0-.01,0-.03.02-.01,0-.01,0-.02-.04,0-.04-.03-.06-.03-.06Z"/><path class="cls-33" d="M19.33,15.55s0-.02,0-.02c0,0-.02-.07-.02-.08,0,0,0-.04,0-.04,0,0-.02-.02-.03-.03,0,0,0,.02,0,.04,0,.02,0,.04,0,.05,0,.01,0,.02,0,.04,0,.02,0,.03,0,.03,0,0,0,0,.02.01.01,0,.02,0,.02,0Z"/><path class="cls-5" d="M19.43,15.58l.04-.02v-.03s0,0,0,.02c0,0-.03.03-.03.03Z"/><path class="cls-21" d="M19.33,15.55v.04s-.04.07-.05.08c0,.01.01.02.02.02.01,0,.04,0,.05,0,.02,0,.06-.01.06-.01,0,0,0-.03,0-.04,0,0-.01-.04-.02-.05,0,0-.06-.04-.06-.04Z"/><path class="cls-27" d="M19.63,12.35s.15.14.18.18c.03.05.15.16.14.2-.01.04,0,.22,0,.22l.08-.1s.06-.16-.02-.21c-.09-.06-.12-.22-.15-.23-.04-.01-.15-.15-.19-.16-.04-.01-.14-.17-.14-.17l-.04-.12-.07.14.22.26Z"/><path class="cls-29" d="M19.06,12.21s.22.24.31.35c.09.11.28.22.28.36s.09.56.01.68c-.08.11-.68.77-.71.87s-.1.25-.1.25l-.11-.24s.44-.91.51-1.01c.07-.1.07-.67.07-.67l-.12-.2-.13-.11-.09-.22.09-.06Z"/><path class="cls-25" d="M19.08,12.42s-.02-.15-.05-.21c-.03-.06,0-.16-.02-.19-.02-.03-.04-.14-.04-.14,0,0-.03-.03-.08-.04-.05-.02-.05-.06-.09-.04-.04.02-.07.07-.1.08-.03.01-.03.04-.04.08-.02.04.02.07.01.1,0,.03.05.03.04.05-.01.02-.02.03-.04.05-.02.02-.02,0-.04.1-.03.1-.03-.09-.03-.16,0-.07,0-.13-.02-.14-.02-.01-.06.08-.09.06-.03-.03-.06-.08-.09-.08-.03,0-.02-.04-.05,0-.03.03-.02.02-.04.07-.02.05.01.11.01.16s-.05.15-.08.22c-.03.07-.01.2-.06.24-.05.04-.14.07-.13.21.01.14.04.28.04.32s0,.1,0,.1c0,0,.04-.04.08-.02.04.02-.05.28-.13.38-.08.1-.15.57-.16.68-.01.11.05.19.05.19,0,0,.05-.28.16-.32.11-.04.21.12.21.12h.08s-.18-.13-.08-.13.24.11.26.15c.01.03.23.3.27.38.04.08.05.24.04.28,0,.04.01.25,0,.27-.02.02.07.03.07.03,0,0-.13-.64-.03-.83.1-.19.16-.27.19-.28.03-.01.3-.32.36-.4.06-.08.15-.34.14-.36-.01-.03-.07-.5-.13-.61-.05-.11-.13-.17-.18-.16-.05,0-.18-.18-.18-.18Z"/><path class="cls-14" d="M18.53,14.81s.08.16,0,.23c-.07.07-.09.13-.12.21-.02.07-.04.18-.09.21-.05.03-.11.11-.11.11,0,0,.06.06.12.12.01.01.03.01.03.03,0,.01-.02.04-.02.05,0,0,.03,0,.03.01,0,.01-.02.03-.01.04.01,0,.02,0,.04,0,.03,0,.04.01.02.02-.03.02-.06.04-.06.08,0,.04-.02.19-.02.19,0,0,.06.03.05.06-.02.03,0,.03,0,.03h.12s.21-.17.21-.17l.05-.06s-.02-.12.02-.14c.04-.02.07-.02.07-.03,0-.01-.06-.02-.05-.03.02-.02.06,0,.07-.02.02-.03,0-.05,0-.05,0,0,.04-.02.04-.05s.13-.16.13-.16l.08-.03s-.19,0-.22-.04c-.02-.02.12-.09.12-.1,0-.02-.1.04-.11.02-.01-.03.11-.14.1-.14-.02,0-.18-.26-.17-.32s.08-.16.04-.16-.13-.12-.13-.12c0,0-.02-.16-.07-.17-.04-.02-.15-.22-.27-.26-.12-.03-.23-.03-.23-.03,0,0,.18.09.11.13-.08.04-.08-.16-.2-.16h-.12s.08.02.07.13c0,.11-.07.06-.11.05-.03,0-.06,0-.06,0l.05.13s-.07-.06-.12-.06-.11.02-.05.08c.06.07.25.16.09.14-.16-.02-.2.02-.2.02,0,0,.21.16.2.19-.02.02,0-.02-.13-.03-.12-.02-.25,0-.13.07.12.07.27.16.25.2-.02.04-.21-.07-.27-.07s-.14,0-.14,0c0,0-.03.06.04.12.07.06.19.17.09.14-.1-.03-.16-.2-.1-.03.06.16.16.26.16.26,0,0-.22-.09-.27-.13-.05-.04-.17-.12-.17-.12,0,0-.04.07,0,.11.04.04.17.07.2.12.02.05.21.13.15.13s-.35-.16-.46-.21c-.11-.05-.21-.33-.25-.21-.04.12.02.21.02.21,0,0-.22-.2-.22-.15s.07.16.11.23c.03.07.02.12.15.17.13.05.17.11.17.11,0,0-.29-.06-.4-.14-.11-.08-.23-.27-.28-.26-.05.02-.03.08,0,.12.02.03-.12-.1-.14-.07-.02.02,0,.08.06.13.06.05,0,.08-.02.09-.02,0-.13,0,.09.08.22.08.35.14.41.14s-.26,0-.36-.02l-.1-.03s.07.16.31.19c.23.03.45.03.69-.09.25-.12.45-.18.54-.19.09,0,.08.03.22,0,.14-.02.22-.06.22-.06,0,0,.14-.07.13-.15,0-.07.11-.27.11-.27,0,0,.07-.12.07-.14,0-.02.1-.03.04-.09-.06-.06-.09-.12-.09-.12Z"/><path class="cls-33" d="M18.41,16.23s.02-.01.02-.02c0-.01.01-.02.03-.03.02,0,.05-.01.07-.03.02-.01.03-.02.07-.05.04-.03.06-.04.08-.05.02-.01.04-.04.05-.05.01,0,.02-.02.02-.02,0,0,.04.01.07.03.02.02.05.04.03.05-.02.01-.05,0-.03.02.02.02.06.03.04.04-.02.01-.07,0-.08,0-.01,0,.06.04.05.05-.01.01-.09-.03-.09,0,0,.02.08.05.06.06-.02.01-.12-.03-.12-.02,0,.02.08.03.05.05-.03.02-.1-.01-.1-.01,0,0,.04,0,.03.04,0,.03-.08,0-.08-.01,0,0,.04.04.03.07-.01.02-.09-.03-.09-.03,0,0,0,.04,0,.04-.02,0-.03-.02-.04-.02,0,0-.02,0-.03.02-.01,0-.01,0-.01-.04s-.02-.06-.02-.06Z"/><path class="cls-33" d="M18.35,16.08s.01-.02.01-.02-.02-.08-.01-.09c0,0,0-.05,0-.05,0,0-.03-.02-.03-.03,0,0,0,.02,0,.04,0,.02,0,.04,0,.05,0,.01,0,.02,0,.05s0,.03,0,.04c0,0,.01.01.02.01.01,0,.02,0,.02,0Z"/><path class="cls-5" d="M18.46,16.12h.04s0-.05,0-.05c0,0-.01,0-.01.02,0,0-.03.03-.03.03Z"/><path class="cls-21" d="M18.34,16.08l-.02.04s-.03.07-.05.08c-.01.01.01.02.02.03.01,0,.04.01.06,0,.02,0,.06,0,.06,0,0,0,0-.04,0-.05,0,0-.01-.04-.01-.05,0,0-.07-.05-.07-.05Z"/><path class="cls-29" d="M18.25,15.6s.11-.11.17-.16c.06-.06.09-.17.09-.24,0-.06.04-.15.04-.17s.03-.15.03-.15c0,0-.02.22-.01.27,0,.05.02.06,0,.1-.02.04,0,.1-.04.15-.05.05-.02.05-.06.09-.05.04-.11.11-.13.14-.02.02,0,.05,0,.05l-.07-.07Z"/><path class="cls-27" d="M18.85,12.55s.16.16.19.21c.03.05.16.19.15.23-.01.04-.01.24-.01.24l.09-.11s.08-.17-.01-.24c-.09-.07-.12-.25-.16-.26-.04-.01-.16-.17-.2-.19-.04-.01-.15-.2-.15-.2l-.04-.14-.08.15.23.3Z"/><path class="cls-25" d="M22.3,17.5s-.06.36-.06.62.42.52.46.53c.04.01.13.09.05.08-.08-.01-.58-.47-.58-.47,0,0-.05.09,0,.18.05.09.17.25.09.38-.08.13-.12.14-.13-.01-.01-.15-.1-.39-.1-.39,0,0,.09.45.08.55-.01.1-.16.28-.16.28,0,0,.05-.41.03-.44-.02-.03-.04.38-.1.43-.06.05-.14.05-.14.05,0,0,.07-.38.07-.53s0-.65,0-.65l.08-.37-.08-.13.17-.1s.01-.1.33-.02Z"/><path class="cls-9" d="M21.79,13.18v-.11s.03-.12.04-.17c.01-.05,0-.18.02-.22.01-.04-.03-.28-.06-.32-.03-.04-.04-.17-.04-.17,0,0-.08-.29-.1-.35-.01-.07-.03-.17-.05-.21-.02-.04-.02-.21-.02-.21,0,0,.14-.03.15.08.01.11.09.23.12.21.03-.02.09-.21.09-.21,0,0,.12.08.09.13-.04.05.01.27.01.27l.19-.05s-.02.1-.08.14c-.06.04-.12.14-.15.21-.02.07,0,.3.01.39,0,.09.09.21.1.27,0,.07.03.15.04.24.01.09-.01.04-.09.02-.07-.02-.12-.09-.16-.04-.04.05-.13.09-.13.09Z"/><path class="cls-21" d="M21.58,13.42s-.02-.15-.02-.21,0-.19,0-.19l-.06-.09-.04-.39.03-.18s.17-.14.21-.16c.04-.02.19-.12.19-.12,0,0-.14-.05-.2-.02-.06.02-.2.07-.2.07,0,0,.02-.27.02-.31s-.04-.1-.04-.1c0,0-.14-.13-.15-.16-.02-.03-.05-.35-.05-.35,0,0-.07,0-.1.04-.02.05.02.42.02.49,0,.07-.06.11-.13.06-.06-.05-.22-.14-.28-.14-.06,0-.2.02-.17.04.03.02.3.11.43.19.14.08.07.14.1.21.03.07.08.14.08.14,0,0,.07.33.07.47s.02.31,0,.39c-.03.09-.03.14-.03.14,0,0,.13.06.17.15.04.09.14,0,.14,0Z"/><path class="cls-9" d="M22.87,13v-.1s.02-.11.03-.15c.01-.05,0-.17.01-.2.01-.03-.04-.25-.07-.29-.03-.04-.04-.15-.04-.15,0,0-.09-.25-.1-.31-.02-.06-.03-.15-.06-.18-.02-.03-.03-.19-.03-.19,0,0,.12-.03.14.07.02.1.09.21.11.19.03-.02.07-.19.07-.19,0,0,.12.07.08.12-.03.05.02.24.02.24l.17-.05s-.02.09-.07.13c-.05.04-.11.13-.12.19-.02.06.02.27.03.35.01.08.09.18.1.24,0,.06.03.14.05.22.02.08-.01.04-.08.02-.07-.02-.11-.07-.15-.03-.04.05-.12.08-.12.08Z"/><path class="cls-21" d="M22.69,13.22s-.03-.14-.03-.19c0-.05,0-.17,0-.17l-.06-.08-.05-.35.02-.17s.15-.14.18-.15c.04-.02.17-.12.17-.12,0,0-.13-.04-.18-.01-.06.02-.18.07-.18.07,0,0,0-.25,0-.28,0-.03-.04-.09-.04-.09,0,0-.13-.11-.14-.14-.02-.03-.06-.31-.06-.31,0,0-.07,0-.08.04-.02.04.03.38.04.44.01.06-.05.1-.11.06-.06-.04-.2-.11-.26-.12-.06,0-.18.02-.15.04.03.02.27.09.4.16.13.07.07.12.1.18.03.06.08.13.08.13,0,0,.08.29.09.42,0,.13.03.27,0,.35-.03.08-.02.13-.02.13,0,0,.12.05.16.13.04.08.13,0,.13,0Z"/><path class="cls-25" d="M23.38,13.68s-.04-.19-.08-.27c-.04-.08,0-.2-.03-.24-.02-.04-.06-.18-.06-.18,0,0-.04-.03-.1-.05-.06-.02-.07-.07-.12-.05-.05.02-.09.1-.12.11-.03.01-.03.05-.05.1-.02.05.02.09.02.12,0,.03.06.04.05.06-.01.03-.02.03-.05.06-.03.03-.02,0-.05.13-.03.13-.04-.11-.05-.2-.01-.09-.01-.16-.03-.18-.02-.01-.07.11-.12.08-.04-.03-.08-.1-.12-.1-.04,0-.03-.05-.07,0-.04.04-.03.02-.05.09-.02.07.02.14.02.2,0,.07-.06.19-.09.28-.03.09,0,.26-.06.31-.06.05-.17.1-.15.28.02.18.07.35.07.41,0,.05.01.13.01.13,0,0,.04-.06.1-.03.05.02-.05.36-.14.49-.09.13-.16.73-.16.87-.01.14.07.23.07.23,0,0,.05-.36.18-.42.13-.06.28.14.28.14h.1s-.23-.16-.11-.17c.13,0,.32.13.34.17.02.04.31.37.37.47.06.1.07.31.07.36,0,.05.03.32,0,.34-.02.03.09.03.09.03,0,0-.21-.8-.09-1.05.11-.25.18-.35.22-.37.03-.02.36-.43.43-.53.07-.1.17-.44.15-.47-.02-.03-.12-.63-.2-.76-.07-.13-.17-.2-.24-.19-.07.01-.24-.22-.24-.22Z"/><path class="cls-25" d="M22.82,16.74s.11.2.02.29c-.09.09-.11.17-.13.27-.03.1-.04.23-.1.28-.06.04-.13.14-.13.14,0,0,.08.07.15.14.02.02.04.01.03.03,0,.02-.03.05-.03.07,0,0,.03,0,.04.02,0,.02-.03.04-.01.05.02.01.03,0,.06,0,.03,0,.05.01.03.03-.04.03-.07.05-.08.11,0,.05-.02.24-.02.24,0,0,.08.03.06.07-.02.04,0,.04,0,.04l.16-.02.26-.21.07-.08s-.04-.15.02-.18c.04-.03.09-.03.09-.04,0-.02-.08-.03-.06-.04.03-.02.08-.01.09-.03.03-.05-.02-.07-.02-.07,0,0,.05-.02.05-.06,0-.04.16-.21.16-.21l.1-.05s-.24,0-.29-.04c-.03-.02.15-.12.14-.13-.01-.02-.13.06-.14.04-.01-.03.14-.19.12-.19-.03,0-.25-.31-.24-.4,0-.08.09-.2.04-.2-.05,0-.17-.14-.17-.14,0,0-.04-.2-.09-.22-.05-.02-.2-.27-.36-.31-.16-.04-.29-.03-.29-.03,0,0,.24.1.15.16-.09.06-.11-.2-.26-.19l-.16.02s.11.02.1.15c0,.14-.09.08-.13.07-.04,0-.08,0-.08,0l.07.16s-.09-.07-.15-.07c-.06,0-.13.03-.06.11.08.08.32.19.12.17-.2-.02-.25.03-.25.03,0,0,.28.2.26.23-.02.03-.01-.02-.17-.03-.16-.01-.31,0-.16.09.15.09.35.18.33.24-.03.05-.28-.08-.35-.08-.07,0-.18.02-.18.02,0,0-.04.07.06.14.1.07.25.21.12.17-.13-.04-.21-.24-.13-.04.08.21.21.31.21.31,0,0-.29-.1-.35-.15-.07-.05-.23-.15-.23-.15,0,0-.05.09,0,.14.05.05.22.08.26.14.03.06.27.15.2.16-.07,0-.46-.19-.6-.24-.14-.06-.28-.41-.33-.26-.05.15.03.27.03.27,0,0-.29-.24-.29-.17,0,.06.1.19.15.29.05.09.03.16.2.21.17.05.23.13.23.13,0,0-.37-.06-.51-.15-.14-.1-.31-.33-.37-.31-.06.02-.04.11,0,.15.03.04-.15-.12-.18-.09-.03.03,0,.1.08.16.08.06,0,.1-.03.12-.03.01-.17,0,.12.1.29.09.45.16.53.15.08,0-.33.03-.46,0l-.13-.04s.1.19.4.22c.29.03.57.01.87-.16.31-.17.56-.26.68-.27.11-.02.11.04.28,0,.18-.04.28-.09.28-.09,0,0,.17-.1.16-.2-.01-.09.12-.35.12-.35,0,0,.08-.15.09-.18,0-.03.12-.05.05-.12-.08-.07-.12-.15-.12-.15Z"/><path class="cls-33" d="M22.77,18.55s.02-.02.03-.03c0-.02.02-.03.04-.04.02,0,.06-.02.09-.04.03-.02.04-.03.09-.07.05-.04.08-.05.1-.07.02-.02.05-.05.06-.06.01-.01.03-.03.03-.03,0,0,.06.01.09.04.03.02.06.04.04.06-.02.02-.06,0-.04.03.02.03.08.03.06.05-.02.02-.09,0-.11,0-.02.01.08.05.07.07-.02.02-.11-.03-.11,0,0,.02.11.06.08.07-.03.02-.15-.04-.15-.02,0,.02.1.04.07.06-.03.02-.12,0-.12,0,0,0,.04.01.04.04,0,.03-.1,0-.11,0-.01,0,.06.05.04.08-.02.03-.12-.04-.12-.04,0,0,.01.05,0,.06-.02,0-.04-.02-.05-.03-.01,0-.02.01-.04.02-.02.01-.02,0-.02-.06,0-.06-.04-.08-.04-.08Z"/><path class="cls-33" d="M22.67,18.36s.01-.02.01-.03c0,0-.03-.1-.02-.11,0,0,0-.06,0-.06,0,0-.03-.03-.04-.04,0-.01,0,.03,0,.05,0,.02,0,.05,0,.07,0,.02,0,.03,0,.06,0,.03,0,.04,0,.05,0,0,.01.01.03.02.01,0,.02,0,.02,0Z"/><path class="cls-5" d="M22.82,18.4l.05-.02v-.05s0,.01-.01.02c0,.01-.04.05-.04.05Z"/><path class="cls-21" d="M22.66,18.36l-.02.05s-.04.09-.05.11c-.01.02.02.03.03.03.02,0,.05.01.08,0,.02,0,.08-.01.08-.01,0,0,0-.05,0-.06-.01-.01-.02-.05-.02-.07,0-.01-.09-.05-.09-.05Z"/><path class="cls-27" d="M23.1,13.86s.21.19.25.26c.04.07.21.22.2.28-.01.05,0,.3,0,.3l.11-.14s.09-.22-.03-.3c-.12-.08-.17-.31-.22-.33-.05-.01-.21-.21-.26-.22-.05-.01-.2-.24-.2-.24l-.06-.17-.1.2.31.37Z"/><path class="cls-29" d="M22.29,13.67s.31.34.43.5c.12.16.39.31.39.5s.13.79.02.95c-.11.16-.95,1.09-1,1.22-.06.13-.14.35-.14.35l-.16-.33s.61-1.27.72-1.41c.1-.14.1-.94.1-.94l-.17-.28-.19-.15-.13-.32.13-.09Z"/><path class="cls-25" d="M22.32,13.95s-.03-.21-.07-.3c-.04-.09,0-.23-.02-.27-.02-.04-.06-.2-.06-.2,0,0-.04-.04-.11-.06-.07-.02-.07-.08-.13-.06-.06.02-.1.1-.14.12-.04.01-.04.05-.06.11-.02.06.02.1.01.14,0,.04.07.04.05.07-.01.03-.03.04-.06.07-.03.03-.02,0-.06.15-.04.15-.04-.12-.04-.22,0-.1,0-.18-.03-.2-.02-.01-.09.12-.13.08-.04-.04-.09-.11-.13-.12-.04,0-.03-.06-.08-.01-.05.05-.03.02-.06.1-.02.07.01.15.01.23s-.07.21-.11.31c-.04.1-.01.29-.08.34-.07.05-.19.1-.18.3.01.2.06.4.06.45s0,.15,0,.15c0,0,.05-.06.11-.03.06.03-.07.4-.18.54-.11.14-.21.8-.23.96-.02.16.07.26.07.26,0,0,.07-.4.22-.46.15-.06.3.17.3.17l.11.02s-.25-.2-.11-.2.34.16.36.2c.02.05.33.43.38.54.06.11.07.34.06.4,0,.06.02.35,0,.38-.03.03.09.04.09.04,0,0-.19-.9-.05-1.17.14-.27.22-.38.26-.4.04-.02.42-.46.5-.57.08-.11.21-.47.2-.51-.02-.04-.1-.71-.18-.86-.07-.15-.18-.23-.25-.22-.07,0-.25-.26-.25-.26Z"/><path class="cls-14" d="M21.54,17.32s.12.23.01.32c-.1.09-.13.19-.16.29-.03.1-.06.25-.13.3-.07.05-.15.15-.15.15,0,0,.08.08.16.16.02.02.04.02.04.04,0,.02-.03.05-.04.07,0,0,.04,0,.04.02,0,.02-.03.04-.02.06.02.01.04,0,.06,0,.04.01.05.02.03.04-.05.03-.08.06-.09.11-.01.06-.03.26-.03.26,0,0,.09.04.07.08-.02.05,0,.05,0,.05h.17s.3-.23.3-.23l.08-.08s-.03-.16.03-.2c.05-.03.1-.03.1-.04,0-.02-.08-.03-.07-.04.03-.02.09-.01.1-.03.03-.05-.01-.08-.01-.08,0,0,.05-.02.05-.07s.19-.22.19-.22l.12-.05s-.26-.01-.31-.06c-.03-.02.18-.12.17-.14-.01-.03-.14.06-.16.03-.02-.04.16-.2.14-.2-.03,0-.26-.36-.25-.45.01-.09.12-.22.06-.22s-.19-.16-.19-.16c0,0-.03-.22-.09-.24-.06-.02-.21-.31-.38-.36-.17-.05-.32-.05-.32-.05,0,0,.26.13.15.18-.11.06-.11-.23-.28-.22h-.17s.12.03.1.19c-.01.15-.1.08-.15.07-.05-.01-.09,0-.09,0l.07.18s-.09-.08-.16-.08-.15.02-.07.12c.08.09.35.23.13.2-.22-.03-.28.02-.28.02,0,0,.3.23.28.27-.02.03-.01-.02-.19-.05-.17-.02-.35-.01-.19.09.16.1.38.22.35.28-.03.06-.3-.1-.38-.1s-.2.01-.2.01c0,0-.05.08.06.16.1.08.27.24.13.2-.14-.05-.22-.28-.14-.05.08.23.22.36.22.36,0,0-.31-.13-.38-.19-.07-.06-.24-.17-.24-.17,0,0-.06.09,0,.15.06.06.24.1.28.17.03.07.29.19.21.19s-.5-.23-.65-.3c-.15-.07-.29-.46-.35-.3-.06.16.02.3.02.3,0,0-.31-.28-.31-.21s.1.22.15.32c.05.1.02.17.21.24.19.07.24.15.24.15,0,0-.41-.08-.56-.2-.15-.12-.32-.38-.39-.36-.07.02-.05.12-.01.16.03.05-.16-.14-.2-.1-.03.03,0,.12.08.19.08.07,0,.12-.03.13-.04.01-.19,0,.13.12.31.12.49.2.58.2s-.37.01-.51-.03l-.14-.05s.1.22.43.27c.32.05.63.05.97-.13.35-.17.64-.25.76-.27.13-.01.12.05.31.01.2-.03.31-.08.31-.08,0,0,.2-.1.19-.21-.01-.1.15-.38.15-.38,0,0,.09-.16.1-.2.01-.03.14-.05.06-.13-.08-.08-.13-.17-.13-.17Z"/><path class="cls-33" d="M21.38,19.32s.03-.02.03-.03c0-.02.02-.03.04-.04.03,0,.07-.02.1-.04.03-.02.05-.03.1-.07.05-.04.09-.05.12-.07.03-.02.06-.05.07-.07.01-.01.03-.03.03-.03,0,0,.06.02.1.04.04.03.07.05.04.07-.02.02-.07,0-.05.03.02.03.09.04.06.06-.03.02-.1-.01-.12,0-.02.01.09.06.07.08-.02.02-.12-.04-.12-.01,0,.02.12.07.08.08-.03.02-.17-.05-.17-.03,0,.02.11.05.07.07-.04.02-.14-.02-.14-.02,0,0,.05.01.04.05-.01.04-.11,0-.12-.02-.01-.01.06.06.04.09-.02.03-.13-.05-.13-.05,0,0,0,.05-.01.06-.02,0-.04-.03-.05-.03-.01,0-.02.01-.04.02-.02.01-.02,0-.02-.06s-.04-.09-.04-.09Z"/><path class="cls-33" d="M21.29,19.11s.02-.02.02-.03-.02-.11-.02-.12c0,0,.01-.07.01-.07,0,0-.04-.04-.04-.05,0-.01,0,.03-.01.06,0,.02,0,.06,0,.07,0,.02,0,.03,0,.07s0,.05,0,.05c0,0,.01.02.03.02.02,0,.03,0,.03,0Z"/><path class="cls-5" d="M21.44,19.16l.06-.02v-.05s0,.01-.01.02c0,.01-.05.05-.05.05Z"/><path class="cls-21" d="M21.28,19.11l-.02.06s-.05.1-.07.12c-.02.02.02.03.03.04.02,0,.06.01.08,0,.03,0,.09-.01.09-.01,0,0,0-.05,0-.07-.01-.01-.02-.06-.02-.07,0-.01-.09-.07-.09-.07Z"/><path class="cls-29" d="M21.15,18.43s.15-.15.24-.23c.09-.08.12-.24.13-.33,0-.09.05-.22.05-.23s.04-.22.04-.22c0,0-.02.3-.02.38,0,.07.03.08,0,.14-.02.06,0,.14-.06.21-.06.07-.02.07-.09.13-.07.05-.16.16-.18.19-.02.03-.01.07-.01.07l-.1-.1Z"/><path class="cls-27" d="M22,14.15s.22.22.26.3c.04.07.22.26.2.32-.02.06-.02.33-.02.33l.13-.15s.11-.24-.02-.33c-.13-.09-.17-.35-.22-.37-.06-.02-.22-.24-.28-.26-.06-.02-.2-.28-.2-.28l-.05-.19-.12.21.32.43Z"/><path class="cls-31" d="M9.51,9.74s-.06,0-.06,0c-1.16-.25-1.2-.3-1.22-.32-.04-.04-.06-.05-.06-.05-.02-.01-.03-.03-.04-.05s0-.04,0-.06c0,0,.07-.1.17-.19.06-.05.08-.14.08-.16,0-.26-.15-4.34-.14-4.56,0-.1.04-.17.1-.22.07-.06.15-.04.16-.04,0,0,.02,0,.02,0,.42.24,1.06.61,1.15.65.16.06.19.32.19.38l.12,4.17s0,.03,0,.04c-.04.07-.16.31-.27.36-.07.03-.15.04-.21.04ZM8.32,9.3c.08.04.65.17,1.15.28.02,0,.12,0,.18-.02.04-.02.13-.15.19-.27l-.12-4.15c0-.09-.04-.22-.09-.24-.12-.05-1-.55-1.16-.65,0,0-.02,0-.03.01-.02.02-.03.05-.04.1-.01.17.09,3.05.14,4.55,0,0,0,0,0,.01,0,.02-.02.17-.14.27-.04.03-.07.07-.1.1,0,0,.01.01.02.02Z"/><path class="cls-31" d="M9.94,5.87s-.02,0-.03,0l-1.76-.77s-.06-.06-.04-.1c.02-.04.06-.06.1-.04l1.76.77s.06.06.04.1c-.01.03-.04.05-.07.05Z"/><path class="cls-31" d="M9.13,6.75s-.08-.03-.08-.08l-.03-2.26s.03-.08.08-.08h0s.08.03.08.08l.03,2.26s-.03.08-.08.08h0Z"/><path class="cls-31" d="M9.36,9.78s-.04,0-.05-.02c-.03-.03-.03-.08,0-.11.11-.12.24-.27.25-.32.01-.08-.03-1.06-.07-1.66l-.38-.89c-.13.19-.29.43-.32.5-.02.09-.01.91.01,1.63,0,0,0,.02,0,.02,0,.02-.07.24-.18.35l-.04.04s-.08.08-.2.19c-.03.03-.08.02-.11,0-.03-.03-.02-.08,0-.11.12-.1.15-.13.19-.18l.04-.04c.07-.07.12-.21.14-.28-.01-.38-.05-1.54,0-1.67.05-.14.38-.6.42-.65.02-.02.04-.03.07-.03.03,0,.05.02.06.05l.43,1.02s0,.02,0,.03c.03.49.08,1.64.06,1.72-.02.09-.21.3-.29.38-.01.02-.04.02-.06.02Z"/><path class="cls-31" d="M8.62,2.35c.02.12.1.27.1.27l.28.28s-.07,1.24,0,1.4c.08.16.13.09.24.07.11-.02.07-.19.07-.19v-1.16s.13.06.27.03c.14-.03.22-.11.29-.24.08-.13.04-.89.03-.97-.01-.08-.11-.34-.26-.42-.15-.08-.32-.02-.3,0,.02.02.14.05.18.43.01.1-.04.64-.08.68-.04.04-.16.08-.3.01-.09-.05-.21-.14-.26-.47-.02-.12,0-.27,0-.27l-.28-.21s-.01.62.01.74Z"/><path class="cls-31" d="M9.59,1.38s-.08-.09-.2-.08c-.12,0-.15.09-.14.2.01.11.05.47.07.49.02.02.06.05.06.05v.13s-.33-.11-.38-.24c-.04-.13-.05-.2-.09-.34-.04-.14-.06-.53.18-.55.24-.02.38.11.44.19.05.08.11.13.06.14Z"/><path class="cls-31" d="M8.83,4.41s-.07-.03-.07-.06c0-.05-.07-.46.17-.51.04,0,.08.02.09.06,0,.04-.02.08-.06.09-.07.02-.08.21-.05.34,0,.04-.02.08-.06.09,0,0,0,0-.01,0Z"/><path class="cls-31" d="M9.41,4.7s0,0,0,0c-.04,0-.07-.04-.07-.08,0-.14,0-.39-.03-.47-.03-.09-.06-.11-.06-.12-.03-.02-.04-.07-.02-.1.02-.04.07-.04.11-.02.02.01.07.06.11.19.05.13.04.48.04.52,0,.04-.04.07-.08.07Z"/><path class="cls-31" d="M11.23,10.18s-.05,0-.05,0c-.7-.15-1.06-.25-1.1-.28-.03-.03-.06-.05-.06-.05-.01,0-.02-.02-.02-.03,0-.01,0-.03,0-.04,0,0,.06-.09.15-.17.07-.06.08-.16.08-.16,0-.15-.14-3.94-.13-4.14,0-.08.03-.14.08-.18.06-.05.12-.03.13-.03,0,0,.01,0,.02,0,.26.15.96.55,1.05.59.14.05.16.3.16.32l.11,3.79s0,.02,0,.02c-.02.04-.14.27-.23.32-.06.03-.13.04-.18.04ZM10.11,9.79s.02.02.04.03c.05.03.57.15,1.05.25.03,0,.12,0,.18-.02.05-.02.13-.16.18-.26l-.11-3.77c0-.07-.03-.21-.09-.24-.11-.04-.95-.53-1.05-.59,0,0-.03,0-.05.02-.02.02-.04.06-.04.11-.01.19.13,4.09.13,4.13,0,.01-.02.15-.12.24-.04.04-.08.08-.1.11Z"/><path class="cls-31" d="M11.62,6.67s-.01,0-.02,0l-1.6-.7s-.04-.04-.03-.06c.01-.02.04-.04.06-.03l1.6.7s.04.04.03.06c0,.02-.03.03-.05.03Z"/><path class="cls-31" d="M10.89,7.47s-.05-.02-.05-.05l-.03-2.06s.02-.05.05-.05c.02,0,.05.02.05.05l.03,2.06s-.02.05-.05.05c0,0,0,0,0,0Z"/><path class="cls-31" d="M11.1,10.22s-.02,0-.03-.01c-.02-.02-.02-.05,0-.07.1-.11.22-.25.23-.29.01-.07-.03-.97-.06-1.52l-.36-.84c-.13.18-.29.41-.31.48-.03.08,0,.96,0,1.49,0,0,0,.01,0,.02,0,0-.06.21-.16.31l-.03.03s-.07.08-.18.17c-.02.02-.05.02-.07,0-.02-.02-.02-.05,0-.07.11-.09.14-.12.18-.16l.03-.04c.07-.07.12-.23.13-.26,0-.25-.04-1.4,0-1.52.04-.12.34-.54.38-.58.01-.01.03-.02.05-.02.02,0,.03.01.04.03l.39.93s0,.01,0,.02c.02.35.08,1.48.06,1.56-.02.08-.2.28-.26.34,0,.01-.02.02-.04.02Z"/><path class="cls-31" d="M10.4,3.49c.02.11.08.19.08.19l.29.31s-.06,1.12,0,1.27c.07.15.12.08.21.06.1-.02.07-.17.07-.17v-1.05s.12.06.25.03c.13-.03.2-.1.26-.21.07-.12.04-.81.03-.88,0-.07-.1-.31-.24-.38-.14-.07-.26,0-.26,0,0,0,.11.06.15.4.01.09-.03.58-.07.62-.04.04-.15.08-.27.01-.08-.05-.19-.13-.24-.42-.02-.11,0-.31,0-.31l-.28-.09s0,.53,0,.64Z"/><path class="cls-31" d="M11.3,2.62s-.07-.11-.17-.1c-.11,0-.15.11-.14.2,0,.1.07.38.08.4.02.02.03.04.03.04v.1s-.34-.24-.34-.24c0,0-.05-.09-.08-.21-.04-.12-.05-.48.16-.5.21-.02.35.1.4.17.05.07.06.13.06.13Z"/><path class="cls-31" d="M10.62,5.34s-.04-.02-.05-.04c0-.04-.06-.4.14-.44.03,0,.05,0,.06.04,0,.03,0,.05-.04.06-.09.02-.08.23-.06.33,0,.03-.01.05-.04.06,0,0,0,0,0,0Z"/><path class="cls-31" d="M11.14,5.61s0,0,0,0c-.03,0-.05-.02-.05-.05,0-.09,0-.35-.03-.43-.03-.09-.06-.11-.06-.11-.02-.02-.03-.04-.01-.07s.05-.03.07-.01c.01,0,.05.04.09.16.04.12.03.43.03.47,0,.03-.02.05-.05.05Z"/><path class="cls-31" d="M12.56,10.52s-.05,0-.05,0c-.64-.14-.97-.23-1.01-.26-.03-.03-.05-.04-.05-.04-.01,0-.02-.02-.02-.03s0-.03,0-.04c0,0,.06-.08.14-.15.06-.05.07-.15.07-.15,0-.14-.13-3.61-.12-3.79,0-.08.03-.13.07-.17.05-.04.11-.03.12-.03,0,0,0,0,.01,0,.24.14.88.51.96.54.13.05.14.27.15.3l.1,3.47s0,.01,0,.02c-.02.04-.13.25-.21.29-.05.03-.12.03-.17.03ZM11.54,10.16s.02.02.03.03c.04.02.53.14.96.23.02,0,.11,0,.16-.02.04-.02.12-.15.17-.24l-.1-3.46c0-.06-.03-.2-.09-.22-.1-.04-.87-.49-.97-.54,0,0-.03,0-.04.01-.02.02-.04.05-.04.1-.01.18.11,3.75.12,3.79,0,.01-.02.14-.11.22-.04.03-.07.07-.09.1Z"/><path class="cls-31" d="M12.92,7.3s-.01,0-.02,0l-1.47-.64s-.03-.04-.02-.06c0-.02.04-.03.06-.02l1.47.64s.03.04.02.06c0,.02-.02.03-.04.03Z"/><path class="cls-31" d="M12.25,8.04s-.04-.02-.04-.04l-.02-1.88s.02-.05.04-.05h0s.04.02.04.04l.02,1.88s-.02.05-.04.05h0Z"/><path class="cls-31" d="M12.44,10.55s-.02,0-.03-.01c-.02-.02-.02-.05,0-.06.1-.1.2-.23.21-.27.01-.06-.03-.88-.05-1.39l-.33-.77c-.12.16-.26.38-.28.44-.02.07,0,.88,0,1.36,0,0,0,0,0,.01,0,0-.06.2-.15.29l-.03.03s-.07.07-.17.15c-.02.02-.05.01-.06,0-.02-.02-.01-.05,0-.06.1-.08.12-.11.16-.15l.03-.03c.07-.07.11-.21.12-.24,0-.23-.04-1.28,0-1.39.04-.11.31-.49.34-.53,0-.01.02-.02.04-.02.02,0,.03.01.04.03l.36.85s0,0,0,.02c.02.32.07,1.36.05,1.43-.02.08-.19.26-.24.31,0,0-.02.01-.03.01Z"/><path class="cls-31" d="M11.8,4.39c.02.1.07.17.07.17l.26.29s-.06,1.03,0,1.16c.06.13.11.07.2.06.09-.02.06-.15.06-.15v-.96s.11.05.23.03c.12-.03.18-.09.24-.2s.03-.74.03-.8c0-.06-.09-.28-.22-.35-.13-.06-.23,0-.23,0,0,0,.1.05.13.37,0,.08-.03.53-.07.57-.04.04-.14.07-.25.01-.08-.04-.18-.12-.22-.39-.02-.1,0-.29,0-.29l-.26-.08s0,.49,0,.58Z"/><path class="cls-31" d="M12.63,3.59s-.06-.1-.16-.09c-.1,0-.13.1-.13.19,0,.09.06.35.07.36.01.02.03.03.03.03v.09s-.31-.22-.31-.22c0,0-.04-.08-.08-.19-.03-.11-.05-.44.15-.45.2-.02.32.09.36.16.05.07.05.12.05.12Z"/><path class="cls-31" d="M12,6.09s-.04-.02-.04-.04c0-.04-.06-.36.13-.41.02,0,.05,0,.05.03,0,.02,0,.05-.03.05-.08.02-.08.21-.06.3,0,.02-.01.05-.04.05,0,0,0,0,0,0Z"/><path class="cls-31" d="M12.48,6.33s0,0,0,0c-.02,0-.04-.02-.04-.05,0-.08,0-.32-.02-.4-.03-.08-.05-.1-.05-.1-.02-.01-.02-.04-.01-.06.01-.02.04-.03.06-.01.01,0,.05.04.08.15.04.11.03.4.03.43,0,.02-.02.04-.04.04Z"/><path class="cls-31" d="M13.67,10.8s-.04,0-.05,0c-.59-.13-.9-.21-.93-.24-.03-.03-.05-.04-.05-.04-.01,0-.02-.02-.02-.03,0-.01,0-.02,0-.03,0,0,.05-.08.13-.14.06-.05.07-.14.07-.14,0-.13-.12-3.35-.11-3.52,0-.07.03-.12.07-.15.05-.04.11-.03.11-.03,0,0,0,0,.01,0,.22.13.82.47.89.5.12.04.13.25.13.28l.1,3.22s0,.01,0,.02c-.02.04-.12.23-.2.27-.05.03-.11.03-.16.03ZM12.72,10.47s.02.02.03.03c.04.02.49.13.89.22.02,0,.1,0,.15-.02.04-.02.11-.14.16-.22l-.1-3.21c0-.06-.03-.18-.08-.2-.09-.04-.81-.45-.9-.5,0,0-.03,0-.04.01-.02.02-.03.05-.04.09-.01.16.11,3.48.11,3.52,0,.01-.02.13-.1.2-.04.03-.07.07-.09.09Z"/><path class="cls-31" d="M14,7.81s-.01,0-.02,0l-1.36-.59s-.03-.03-.02-.05c0-.02.03-.03.05-.02l1.36.59s.03.03.02.05c0,.02-.02.03-.04.03Z"/><path class="cls-31" d="M13.38,8.5s-.04-.02-.04-.04l-.02-1.75s.02-.04.04-.04h0s.04.02.04.04l.02,1.75s-.02.04-.04.04h0Z"/><path class="cls-31" d="M13.56,10.83s-.02,0-.03-.01c-.02-.02-.02-.04,0-.06.09-.09.19-.22.2-.25,0-.06-.03-.82-.05-1.29l-.3-.72c-.11.15-.24.35-.26.41-.02.07,0,.81,0,1.27,0,0,0,0,0,.01,0,0-.05.18-.14.27l-.03.03s-.06.06-.16.14c-.02.01-.04.01-.06,0-.01-.02-.01-.04,0-.06.09-.08.12-.1.15-.14l.03-.03c.06-.06.1-.19.11-.22,0-.21-.04-1.19,0-1.29.03-.1.29-.45.32-.49,0-.01.02-.02.04-.02.01,0,.03.01.03.03l.34.79s0,0,0,.01c.02.29.07,1.26.05,1.33-.02.07-.17.24-.22.29,0,0-.02.01-.03.01Z"/><path class="cls-31" d="M12.97,5.11c.02.09.07.16.07.16l.25.27s-.05.96,0,1.08c.06.13.1.07.18.05.08-.02.06-.14.06-.14v-.89s.1.05.21.02c.11-.03.17-.08.22-.18.06-.1.03-.69.02-.75,0-.06-.09-.26-.2-.32-.12-.06-.22,0-.22,0,0,0,.09.05.12.34,0,.08-.03.49-.06.53-.03.03-.13.07-.23,0-.07-.04-.16-.11-.2-.36-.01-.09,0-.27,0-.27l-.24-.08s0,.45,0,.54Z"/><path class="cls-31" d="M13.73,4.37s-.06-.09-.15-.09c-.09,0-.12.09-.12.17,0,.08.06.32.07.34.01.02.03.03.03.03v.09s-.29-.2-.29-.2c0,0-.04-.07-.07-.18-.03-.11-.04-.41.14-.42.18-.02.3.08.34.15.04.06.05.11.05.11Z"/><path class="cls-31" d="M13.15,6.69s-.04-.01-.04-.03c0-.03-.05-.34.12-.38.02,0,.04,0,.05.03,0,.02,0,.04-.03.05-.08.02-.07.2-.05.28,0,.02-.01.04-.03.05,0,0,0,0,0,0Z"/><path class="cls-31" d="M13.59,6.91s0,0,0,0c-.02,0-.04-.02-.04-.04,0-.08,0-.3-.02-.37-.03-.08-.05-.1-.05-.1-.02-.01-.02-.04-.01-.06.01-.02.04-.02.06-.01,0,0,.04.03.08.14.04.1.03.37.03.4,0,.02-.02.04-.04.04Z"/><path class="cls-31" d="M14.83,11.16s-.04,0-.04,0c-.55-.12-.83-.19-.86-.22-.03-.03-.05-.04-.05-.04,0,0-.02-.01-.02-.02s0-.02,0-.03c0,0,.05-.07.12-.13.05-.04.06-.13.06-.13,0-.12-.11-3.08-.1-3.24,0-.07.03-.11.06-.14.05-.04.1-.03.1-.03,0,0,0,0,.01,0,.2.12.75.43.82.46.11.04.12.23.12.25l.09,2.97s0,.01,0,.02c-.02.04-.11.21-.18.25-.05.02-.1.03-.14.03ZM13.95,10.86s.02.02.03.03c.04.02.45.12.82.2.02,0,.09,0,.14-.02.04-.02.1-.13.14-.21l-.09-2.95c0-.05-.03-.17-.07-.19-.09-.03-.74-.41-.83-.46,0,0-.02,0-.04.01-.02.01-.03.04-.03.09-.01.15.1,3.2.1,3.24,0,.01-.01.12-.09.19-.03.03-.06.06-.08.08Z"/><path class="cls-31" d="M15.14,8.41s-.01,0-.02,0l-1.25-.55s-.03-.03-.02-.05c0-.02.03-.03.05-.02l1.25.55s.03.03.02.05c0,.01-.02.02-.04.02Z"/><path class="cls-31" d="M14.56,9.04s-.04-.02-.04-.04l-.02-1.61s.02-.04.04-.04h0s.04.02.04.04l.02,1.61s-.02.04-.04.04h0Z"/><path class="cls-31" d="M14.73,11.19s-.02,0-.03-.01c-.02-.01-.02-.04,0-.05.08-.09.17-.2.18-.23,0-.05-.02-.76-.05-1.19l-.28-.66c-.1.14-.22.32-.24.38-.02.06,0,.75,0,1.17,0,0,0,0,0,.01,0,0-.05.17-.13.24l-.03.03s-.06.06-.14.13c-.02.01-.04.01-.05,0-.01-.02-.01-.04,0-.05.08-.07.11-.1.14-.13l.03-.03c.06-.06.1-.18.1-.21,0-.2-.03-1.09,0-1.19.03-.09.27-.42.29-.46,0-.01.02-.02.04-.02.01,0,.03.01.03.02l.31.73s0,0,0,.01c.01.27.06,1.16.04,1.22-.02.07-.16.22-.2.26,0,0-.02.01-.03.01Z"/><path class="cls-31" d="M14.18,5.92c.02.08.06.15.06.15l.23.24s-.05.88,0,1c.05.12.09.06.17.05.08-.02.05-.13.05-.13v-.82s.09.05.19.02c.1-.02.15-.08.21-.17.05-.09.03-.63.02-.69,0-.05-.08-.24-.19-.3-.11-.05-.2,0-.2,0,0,0,.08.04.11.31,0,.07-.03.45-.06.48-.03.03-.12.06-.21,0-.07-.04-.15-.1-.19-.33-.01-.08,0-.25,0-.25l-.22-.07s0,.41,0,.5Z"/><path class="cls-31" d="M14.89,5.24s-.05-.09-.13-.08c-.08,0-.11.09-.11.16,0,.08.05.3.06.31.01.01.03.03.03.03v.08s-.27-.18-.27-.18c0,0-.04-.07-.07-.17-.03-.1-.04-.37.13-.39.17-.01.27.08.31.14.04.06.05.1.05.1Z"/><path class="cls-31" d="M14.35,7.37s-.03-.01-.04-.03c0-.03-.05-.31.11-.35.02,0,.04,0,.05.03,0,.02,0,.04-.03.05-.07.02-.06.18-.05.26,0,.02-.01.04-.03.04,0,0,0,0,0,0Z"/><path class="cls-31" d="M14.76,7.58s0,0,0,0c-.02,0-.04-.02-.04-.04,0-.07,0-.27-.02-.34-.02-.07-.04-.09-.04-.09-.02-.01-.02-.03,0-.05.01-.02.04-.02.05,0,.01,0,.04.03.07.12.03.09.03.34.02.37,0,.02-.02.04-.04.04Z"/><path class="cls-31" d="M15.88,11.37s-.04,0-.04,0c-.5-.11-.76-.18-.79-.2-.03-.03-.04-.03-.04-.03,0,0-.02-.01-.02-.02s0-.02,0-.03c0,0,.04-.07.11-.12.05-.04.06-.12.06-.12,0-.11-.1-2.83-.09-2.97,0-.06.02-.1.06-.13.04-.03.09-.02.09-.02,0,0,0,0,.01,0,.19.11.69.4.75.42.1.04.11.21.11.23l.08,2.72s0,.01,0,.02c-.02.03-.1.19-.17.23-.04.02-.1.03-.13.03ZM15.08,11.09s.02.01.03.02c.03.02.41.11.75.18.02,0,.09,0,.13-.02.03-.02.1-.12.13-.19l-.08-2.71s-.02-.15-.07-.17c-.08-.03-.68-.38-.76-.42,0,0-.02,0-.03.01-.02.01-.03.04-.03.08,0,.14.09,2.94.09,2.97,0,0-.01.11-.08.17-.03.03-.06.06-.07.08Z"/><path class="cls-31" d="M16.16,8.85s0,0-.01,0l-1.15-.5s-.03-.03-.02-.05c0-.02.03-.03.05-.02l1.15.5s.03.03.02.05c0,.01-.02.02-.03.02Z"/><path class="cls-31" d="M15.64,9.42s-.04-.02-.04-.03l-.02-1.48s.02-.04.03-.04h0s.04.02.04.03l.02,1.48s-.02.04-.03.04h0Z"/><path class="cls-31" d="M15.79,11.39s-.02,0-.02,0c-.01-.01-.01-.04,0-.05.08-.08.16-.18.17-.21,0-.05-.02-.69-.04-1.09l-.26-.61c-.09.13-.21.3-.22.35-.02.06,0,.69,0,1.07,0,0,0,0,0,.01,0,0-.04.15-.12.22l-.02.02s-.05.05-.13.12c-.01.01-.04.01-.05,0-.01-.01-.01-.04,0-.05.08-.06.1-.09.13-.12l.03-.03c.05-.05.09-.16.1-.19,0-.18-.03-1,0-1.09.03-.09.24-.38.27-.42,0-.01.02-.02.03-.01.01,0,.02,0,.03.02l.28.67s0,0,0,.01c.01.25.06,1.06.04,1.12-.02.06-.15.2-.19.24,0,0-.02.01-.03.01Z"/><path class="cls-31" d="M15.29,6.56c.01.08.06.13.06.13l.21.22s-.05.81,0,.91c.05.11.08.06.15.04.07-.01.05-.12.05-.12v-.76s.09.04.18.02c.09-.02.14-.07.19-.15.05-.08.03-.58.02-.63,0-.05-.07-.22-.17-.27-.1-.05-.18,0-.18,0,0,0,.08.04.11.29,0,.06-.02.42-.05.44-.03.03-.11.05-.19,0-.06-.03-.14-.09-.17-.3-.01-.08,0-.23,0-.23l-.2-.06s0,.38,0,.46Z"/><path class="cls-31" d="M15.93,5.93s-.05-.08-.12-.07c-.08,0-.1.08-.1.15,0,.07.05.27.06.29.01.01.02.03.02.03v.07s-.25-.17-.25-.17c0,0-.03-.06-.06-.15-.03-.09-.04-.34.12-.36.15-.01.25.07.29.12.04.05.04.09.04.09Z"/><path class="cls-31" d="M15.44,7.89s-.03-.01-.03-.03c0-.03-.05-.28.1-.32.02,0,.04,0,.04.03s0,.04-.03.04c-.06.02-.06.17-.05.24,0,.02,0,.04-.03.04,0,0,0,0,0,0Z"/><path class="cls-31" d="M15.82,8.09s0,0,0,0c-.02,0-.03-.02-.03-.04,0-.07,0-.25-.02-.31-.02-.06-.04-.08-.04-.08-.02-.01-.02-.03,0-.05s.03-.02.05,0c0,0,.04.03.07.11.03.08.02.31.02.34,0,.02-.02.03-.04.03Z"/><path class="cls-31" d="M16.83,11.57s-.03,0-.04,0c-.46-.1-.7-.16-.73-.19-.02-.02-.04-.03-.04-.03,0,0-.01-.01-.02-.02,0,0,0-.02,0-.03,0,0,.04-.06.1-.11.04-.04.05-.11.05-.11,0-.1-.09-2.61-.08-2.74,0-.06.02-.1.05-.12.04-.03.08-.02.09-.02,0,0,0,0,0,0,.17.1.63.37.69.39.09.03.1.2.1.21l.07,2.51s0,.01,0,.02c-.01.03-.09.18-.15.21-.04.02-.09.02-.12.02ZM16.09,11.32s.01.01.02.02c.03.02.38.1.69.17.02,0,.08,0,.12-.02.03-.02.09-.11.12-.17l-.07-2.5s-.02-.14-.06-.16c-.07-.03-.63-.35-.7-.39,0,0-.02,0-.03.01-.02.01-.03.04-.03.07,0,.13.08,2.71.08,2.73,0,0-.01.1-.08.16-.03.02-.05.05-.07.07Z"/><path class="cls-31" d="M17.09,9.25s0,0-.01,0l-1.06-.46s-.02-.03-.02-.04c0-.02.03-.02.04-.02l1.06.46s.02.03.02.04c0,.01-.02.02-.03.02Z"/><path class="cls-31" d="M16.6,9.78s-.03-.01-.03-.03l-.02-1.36s.01-.03.03-.03c.02,0,.03.01.03.03l.02,1.36s-.01.03-.03.03h0Z"/><path class="cls-31" d="M16.75,11.6s-.02,0-.02,0c-.01-.01-.01-.03,0-.05.07-.07.15-.17.15-.2,0-.05-.02-.64-.04-1.01l-.24-.56c-.08.12-.19.27-.21.32-.02.05,0,.63,0,.99,0,0,0,0,0,.01,0,0-.04.14-.11.21l-.02.02s-.05.05-.12.11c-.01.01-.03.01-.05,0-.01-.01-.01-.03,0-.05.07-.06.09-.08.12-.11l.02-.02s.08-.14.09-.17c0-.17-.03-.92,0-1,.03-.08.23-.35.25-.39,0,0,.02-.01.03-.01.01,0,.02,0,.03.02l.26.62s0,0,0,.01c.01.23.05.98.04,1.03-.01.06-.13.19-.17.22,0,0-.01.01-.02.01Z"/><path class="cls-31" d="M16.29,7.14c.01.07.05.12.05.12l.19.21s-.04.74,0,.84c.05.1.08.05.14.04.07-.01.04-.11.04-.11v-.7s.08.04.16.02c.08-.02.13-.06.17-.14.05-.08.03-.54.02-.58,0-.05-.07-.2-.16-.25-.09-.05-.17,0-.17,0,0,0,.07.04.1.26,0,.06-.02.38-.05.41-.03.03-.1.05-.18,0-.06-.03-.13-.09-.16-.28-.01-.07,0-.21,0-.21l-.19-.06s0,.35,0,.42Z"/><path class="cls-31" d="M16.88,6.57s-.04-.07-.11-.07c-.07,0-.1.07-.09.14,0,.06.04.25.05.26.01.01.02.02.02.02v.07s-.23-.16-.23-.16c0,0-.03-.06-.06-.14-.02-.08-.03-.32.11-.33.14-.01.23.07.26.11.03.05.04.09.04.09Z"/><path class="cls-31" d="M16.43,8.37s-.03-.01-.03-.03c0-.03-.04-.26.09-.29.02,0,.04,0,.04.02,0,.02,0,.03-.02.04-.06.01-.05.15-.04.22,0,.02,0,.03-.03.04,0,0,0,0,0,0Z"/><path class="cls-31" d="M16.77,8.55h0s-.03-.02-.03-.03c0-.06,0-.23-.02-.29-.02-.06-.04-.07-.04-.07-.01,0-.02-.03,0-.04,0-.01.03-.02.05,0,0,0,.03.03.06.11.03.08.02.29.02.31,0,.02-.01.03-.03.03Z"/><path class="cls-31" d="M18.05,11.84s-.03,0-.03,0c-.4-.09-.61-.14-.63-.16-.02-.02-.03-.03-.03-.03,0,0-.01-.01-.01-.02,0,0,0-.02,0-.02,0,0,.03-.05.09-.09.04-.03.05-.09.05-.09,0-.09-.08-2.25-.07-2.36,0-.05.02-.08.05-.1.03-.03.07-.02.08-.02,0,0,0,0,0,0,.15.09.55.32.6.34.08.03.09.17.09.19l.06,2.16s0,0,0,.01c-.01.03-.08.15-.13.18-.03.02-.08.02-.1.02ZM17.41,11.62s.01.01.02.02c.03.01.33.09.6.15.02,0,.07,0,.1-.01.03-.01.08-.09.1-.15l-.06-2.16s-.02-.12-.05-.14c-.06-.02-.54-.3-.6-.34,0,0-.02,0-.03,0-.01.01-.02.03-.02.06,0,.11.07,2.34.07,2.36,0,0-.01.09-.07.14-.02.02-.05.04-.06.06Z"/><path class="cls-31" d="M18.27,9.84s0,0-.01,0l-.92-.4s-.02-.02-.01-.04c0-.01.02-.02.04-.01l.92.4s.02.02.01.04c0,.01-.01.02-.03.02Z"/><path class="cls-31" d="M17.85,10.3s-.03-.01-.03-.03v-1.17s0-.03.01-.03c.02,0,.03.01.03.03v1.17s0,.03-.01.03h0Z"/><path class="cls-31" d="M17.97,11.86s-.01,0-.02,0c-.01-.01-.01-.03,0-.04.06-.06.13-.15.13-.17,0-.04-.02-.55-.03-.87l-.2-.48c-.07.1-.16.24-.18.28-.01.05,0,.55,0,.85,0,0,0,0,0,0,0,0-.04.12-.09.18l-.02.02s-.04.04-.1.1c-.01,0-.03,0-.04,0-.01-.01,0-.03,0-.04.06-.05.08-.07.1-.09l.02-.02s.07-.13.08-.15c0-.14-.02-.8,0-.87.02-.07.19-.31.21-.33,0,0,.02-.01.03-.01.01,0,.02,0,.02.02l.23.53s0,0,0,0c.01.2.04.85.03.89-.01.05-.12.16-.15.19,0,0-.01,0-.02,0Z"/><path class="cls-31" d="M17.57,8.02c.01.06.04.11.04.11l.16.18s-.04.64,0,.73c.04.08.07.05.12.04.06-.01.04-.1.04-.1v-.6s.07.03.14.02c.07-.02.11-.05.15-.12.04-.07.02-.46.02-.5,0-.04-.06-.18-.14-.22-.08-.04-.15,0-.15,0,0,0,.06.03.08.23,0,.05-.02.33-.04.35-.02.02-.08.04-.15,0-.05-.03-.11-.07-.14-.24,0-.06,0-.18,0-.18l-.16-.05s0,.3,0,.36Z"/><path class="cls-31" d="M18.09,7.52s-.04-.06-.1-.06c-.06,0-.08.06-.08.12,0,.05.04.22.05.23,0,.01.02.02.02.02v.06s-.2-.13-.2-.13c0,0-.03-.05-.05-.12-.02-.07-.03-.27.09-.28.12-.01.2.06.23.1.03.04.03.07.03.07Z"/><path class="cls-31" d="M17.7,9.08s-.03,0-.03-.02c0-.02-.04-.23.08-.25.02,0,.03,0,.03.02,0,.02,0,.03-.02.03-.05.01-.05.13-.04.19,0,.02,0,.03-.02.03,0,0,0,0,0,0Z"/><path class="cls-31" d="M18,9.23h0s-.03-.01-.03-.03c0-.05,0-.2-.01-.25-.02-.05-.03-.06-.03-.06-.01,0-.02-.03,0-.04,0-.01.03-.02.04,0,0,0,.03.02.05.09.02.07.02.25.02.27,0,.02-.01.03-.03.03Z"/><path class="cls-31" d="M19.18,12.13s-.03,0-.03,0c-.35-.08-.54-.13-.56-.14-.02-.02-.03-.02-.03-.02,0,0-.01,0-.01-.02,0,0,0-.01,0-.02,0,0,.03-.05.08-.08.03-.03.04-.08.04-.08,0-.08-.07-2.01-.06-2.11,0-.04.02-.07.04-.09.03-.02.06-.02.07-.02,0,0,0,0,0,0,.13.08.49.28.53.3.07.03.08.15.08.17l.06,1.93s0,0,0,.01c-.01.02-.07.14-.12.16-.03.02-.07.02-.09.02ZM18.61,11.93s.01,0,.02.02c.02.01.29.08.53.13.01,0,.06,0,.09-.01.02-.01.07-.08.09-.13l-.06-1.92s-.02-.11-.05-.12c-.06-.02-.48-.27-.54-.3,0,0-.02,0-.02,0-.01,0-.02.03-.02.06,0,.1.06,2.08.06,2.1,0,0,0,.08-.06.12-.02.02-.04.04-.05.05Z"/><path class="cls-31" d="M19.38,10.34s0,0,0,0l-.82-.36s-.02-.02-.01-.03c0-.01.02-.02.03-.01l.82.36s.02.02.01.03c0,0-.01.01-.02.01Z"/><path class="cls-31" d="M19.01,10.75s-.02-.01-.02-.02v-1.05s0-.03.01-.03c.02,0,.03.01.03.02v1.05s0,.03-.01.03h0Z"/><path class="cls-31" d="M19.12,12.14s-.01,0-.02,0c-.01,0-.01-.03,0-.04.05-.06.11-.13.12-.15,0-.03-.02-.49-.03-.77l-.18-.43c-.06.09-.15.21-.16.25-.01.04,0,.49,0,.76,0,0,0,0,0,0,0,0-.03.11-.08.16l-.02.02s-.04.04-.09.09c-.01,0-.03,0-.04,0,0-.01,0-.03,0-.04.05-.05.07-.06.09-.08l.02-.02s.06-.1.07-.13c0-.13-.02-.71,0-.77.02-.06.17-.27.19-.3,0,0,.01-.01.02-.01,0,0,.02,0,.02.02l.2.47s0,0,0,0c0,.18.04.75.03.79-.01.04-.1.14-.13.17,0,0-.01,0-.02,0Z"/><path class="cls-31" d="M18.76,8.72c0,.05.04.09.04.09l.15.16s-.03.57,0,.65c.04.07.06.04.11.03.05-.01.03-.09.03-.09v-.54s.06.03.13.01c.07-.02.1-.05.13-.11.03-.06.02-.41.01-.45,0-.04-.05-.16-.12-.19-.07-.04-.13,0-.13,0,0,0,.05.03.07.2,0,.05-.02.3-.04.32-.02.02-.08.04-.14,0-.04-.02-.1-.07-.12-.22,0-.06,0-.16,0-.16l-.15-.05s0,.27,0,.32Z"/><path class="cls-31" d="M19.22,8.27s-.03-.06-.09-.05c-.05,0-.07.06-.07.1,0,.05.03.19.04.2,0,0,.02.02.02.02v.05s-.17-.12-.17-.12c0,0-.02-.04-.04-.11-.02-.06-.03-.24.08-.25.11,0,.18.05.2.09.03.04.03.07.03.07Z"/><path class="cls-31" d="M18.87,9.66s-.02,0-.02-.02c0-.02-.03-.2.07-.23.01,0,.03,0,.03.02,0,.01,0,.03-.02.03-.05.01-.04.12-.03.17,0,.01,0,.03-.02.03,0,0,0,0,0,0Z"/><path class="cls-31" d="M19.14,9.8h0s-.02-.01-.02-.03c0-.05,0-.18-.01-.22-.02-.05-.03-.06-.03-.06-.01,0-.01-.02,0-.03,0-.01.02-.01.04,0,0,0,.03.02.05.08.02.06.02.22.02.24,0,.01-.01.02-.02.02Z"/><path class="cls-31" d="M20.53,12.42s-.02,0-.02,0c-.32-.07-.49-.11-.5-.13-.02-.02-.03-.02-.03-.02,0,0,0,0-.01-.01,0,0,0-.01,0-.02,0,0,.03-.04.07-.08.03-.03.04-.07.04-.08,0-.07-.06-1.8-.06-1.89,0-.04.02-.07.04-.08.03-.02.06-.02.06-.01,0,0,0,0,0,0,.12.07.44.25.48.27.06.02.07.14.07.15l.05,1.73s0,0,0,.01c-.01.02-.06.12-.11.14-.03.01-.06.02-.08.02ZM20.01,12.24s.01,0,.02.01c.02.01.26.07.48.12.01,0,.06,0,.08-.01.02-.01.06-.07.08-.12l-.05-1.72s-.01-.1-.04-.11c-.05-.02-.43-.24-.48-.27,0,0-.01,0-.02,0-.01,0-.02.03-.02.05,0,.09.06,1.87.06,1.89,0,0,0,.07-.05.11-.02.02-.04.04-.05.05Z"/><path class="cls-31" d="M20.7,10.82s0,0,0,0l-.73-.32s-.02-.02-.01-.03c0-.01.02-.02.03-.01l.73.32s.02.02.01.03c0,0-.01.01-.02.01Z"/><path class="cls-31" d="M20.37,11.18s-.02,0-.02-.02v-.94s0-.02.01-.02h0s.02,0,.02.02v.94s0,.02-.01.02h0Z"/><path class="cls-31" d="M20.35,12.29s-.01,0-.02,0c0,0,0-.02,0-.03.05-.05.1-.12.11-.13,0-.03-.01-.44-.03-.69l-.16-.38c-.06.08-.13.19-.14.22-.01.04,0,.44,0,.68,0,0,0,0,0,0,0,0-.03.1-.07.14h-.01s-.03.05-.08.09c0,0-.02,0-.03,0s0-.02,0-.03c.05-.04.06-.06.08-.08v-.02s.07-.09.08-.12c0-.11-.02-.64,0-.69.02-.05.16-.24.17-.27,0,0,.01-.01.02,0,0,0,.01,0,.02.01l.18.42s0,0,0,0c0,.16.03.68.03.71,0,.04-.09.13-.12.15,0,0-.01,0-.02,0Z"/><path class="cls-31" d="M20.14,9.38s.04.09.04.09l.13.14s-.03.51,0,.58c.03.07.05.04.1.03.04,0,.03-.08.03-.08v-.48s.05.03.11.01c.06-.01.09-.04.12-.1.03-.05.02-.37.01-.4,0-.03-.05-.14-.11-.17-.06-.03-.12,0-.12,0,0,0,.05.03.07.18,0,.04-.02.26-.03.28-.02.02-.07.04-.12,0-.04-.02-.09-.06-.11-.19,0-.05,0-.14,0-.14l-.13-.04s0,.24,0,.29Z"/><path class="cls-31" d="M20.45,8.9s-.03-.05-.08-.05c-.05,0-.07.05-.06.09,0,.04.03.17.04.18,0,0,.02.02.02.02v.05s-.16-.11-.16-.11c0,0-.02-.04-.04-.1-.02-.06-.02-.22.07-.23.1,0,.16.05.18.08.02.03.03.06.03.06Z"/><path class="cls-31" d="M20.25,10.21s-.02,0-.02-.02c0-.02-.03-.18.06-.2.01,0,.02,0,.03.02s0,.02-.02.03c-.04,0-.04.11-.03.15,0,.01,0,.02-.02.03,0,0,0,0,0,0Z"/><path class="cls-31" d="M20.48,10.34h0s-.02-.01-.02-.02c0-.04,0-.16-.01-.2-.01-.04-.03-.05-.03-.05-.01,0-.01-.02,0-.03,0-.01.02-.01.03,0,0,0,.02.02.04.07.02.05.01.2.01.21,0,.01-.01.02-.02.02Z"/><path class="cls-31" d="M21.9,13.74s-.03,0-.03,0c-.35-.08-.54-.13-.56-.14-.02-.02-.03-.02-.03-.02,0,0-.01,0-.01-.02s0-.01,0-.02c0,0,.03-.05.08-.08.03-.03.04-.08.04-.08,0-.08-.07-2-.06-2.1,0-.04.02-.07.04-.09.03-.02.06-.02.07-.02,0,0,0,0,0,0,.13.08.49.28.53.3.07.03.08.15.08.17l.06,1.93s0,0,0,.01c-.01.02-.07.14-.12.16-.03.02-.07.02-.09.02ZM21.33,13.54s.01,0,.02.02c.02.01.29.08.53.13.01,0,.06,0,.09-.01.02-.01.07-.08.09-.13l-.06-1.92s-.02-.11-.05-.12c-.06-.02-.48-.27-.54-.3,0,0-.02,0-.02,0-.01,0-.02.03-.02.06,0,.1.06,2.08.06,2.1,0,0,0,.08-.06.12-.02.02-.04.04-.05.05Z"/><path class="cls-31" d="M22.1,11.95s0,0,0,0l-.82-.36s-.02-.02-.01-.03c0-.01.02-.02.03-.01l.82.36s.02.02.01.03c0,0-.01.02-.02.02Z"/><path class="cls-31" d="M21.72,12.36s-.02-.01-.02-.02v-1.05s0-.03.01-.03h0s.02.01.02.02v1.05s0,.03-.01.03h0Z"/><path class="cls-31" d="M21.83,13.76s-.01,0-.02,0c-.01,0-.01-.03,0-.04.05-.06.11-.13.12-.15,0-.03-.02-.49-.03-.77l-.18-.43c-.06.09-.15.21-.16.25-.01.04,0,.49,0,.76,0,0,0,0,0,0,0,0-.03.11-.08.16l-.02.02s-.04.04-.09.09c-.01,0-.03,0-.04,0,0-.01,0-.03,0-.04.05-.05.07-.06.09-.08l.02-.02s.06-.1.07-.13c0-.13-.02-.71,0-.77.02-.06.17-.27.19-.3,0,0,.01-.01.02-.01,0,0,.02,0,.02.02l.2.47s0,0,0,0c0,.18.04.75.03.79-.01.04-.1.14-.13.17,0,0-.01,0-.02,0Z"/><path class="cls-31" d="M21.48,10.33c0,.05.04.09.04.09l.15.16s-.03.57,0,.65c.04.08.06.04.11.03.05-.01.03-.09.03-.09v-.54s.06.03.13.01c.06-.02.1-.05.13-.11.03-.06.02-.41.01-.45,0-.04-.05-.16-.12-.19-.07-.04-.13,0-.13,0,0,0,.05.03.07.2,0,.05-.02.3-.04.31-.02.02-.07.04-.14,0-.04-.02-.1-.07-.12-.22,0-.06,0-.16,0-.16l-.14-.05s0,.27,0,.32Z"/><path class="cls-31" d="M21.94,9.89s-.03-.06-.09-.05c-.05,0-.07.06-.07.1,0,.05.03.19.04.2,0,0,.02.02.02.02v.05s-.17-.12-.17-.12c0,0-.02-.04-.04-.11-.02-.06-.03-.24.08-.25.11,0,.18.05.2.09.03.04.03.07.03.07Z"/><path class="cls-31" d="M21.59,11.28s-.02,0-.02-.02c0-.02-.03-.2.07-.23.01,0,.03,0,.03.02,0,.01,0,.03-.02.03-.05.01-.04.12-.03.17,0,.01,0,.03-.02.03,0,0,0,0,0,0Z"/><path class="cls-31" d="M21.85,11.41h0s-.02-.01-.02-.03c0-.05,0-.18-.01-.22-.02-.05-.03-.06-.03-.06-.01,0-.01-.02,0-.03,0-.01.02-.01.04,0,0,0,.03.02.05.08.02.06.02.22.02.24,0,.01-.01.02-.02.02Z"/><path class="cls-31" d="M22.98,13.91s-.02,0-.02,0c-.29-.06-.44-.1-.45-.12-.01-.01-.02-.02-.02-.02,0,0,0,0-.01-.01,0,0,0-.01,0-.02,0,0,.03-.04.06-.07.03-.02.03-.07.03-.07,0-.06-.06-1.62-.05-1.7,0-.03.01-.06.03-.07.02-.02.05-.01.05-.01,0,0,0,0,0,0,.11.06.39.23.43.24.06.02.06.12.07.13l.05,1.56s0,0,0,0c0,.02-.06.11-.1.13-.02.01-.06.01-.08.01ZM22.52,13.75s0,0,.01.01c.02.01.24.06.43.1.01,0,.05,0,.07,0,.02,0,.05-.07.08-.11l-.05-1.55s-.01-.09-.04-.1c-.05-.02-.38-.21-.43-.24,0,0-.01,0-.02,0,0,0-.02.02-.02.05,0,.08.05,1.68.05,1.7,0,0,0,.06-.05.1-.02.01-.03.03-.04.04Z"/><path class="cls-31" d="M23.14,12.47s0,0,0,0l-.66-.29s-.01-.02-.01-.03c0-.01.02-.01.03-.01l.66.29s.01.02.01.03c0,0-.01.01-.02.01Z"/><path class="cls-31" d="M22.84,12.8s-.02,0-.02-.02v-.84s0-.02,0-.02h0s.02,0,.02.02v.84s0,.02,0,.02h0Z"/><path class="cls-31" d="M22.93,13.93s0,0-.01,0c0,0,0-.02,0-.03.04-.05.09-.1.1-.12,0-.03-.01-.4-.02-.63l-.15-.35c-.05.07-.12.17-.13.2-.01.03,0,.39,0,.61,0,0,0,0,0,0,0,0-.03.09-.07.13h-.01s-.03.04-.08.08c0,0-.02,0-.03,0,0,0,0-.02,0-.03.04-.04.06-.05.07-.07h.01s.05-.1.05-.12c0-.1-.02-.57,0-.62.02-.05.14-.22.15-.24,0,0,.01,0,.02,0,0,0,.01,0,.02.01l.16.38s0,0,0,0c0,.14.03.61.02.64,0,.03-.08.12-.11.14,0,0,0,0-.01,0Z"/><path class="cls-31" d="M22.64,11.16s.03.08.03.08l.12.13s-.03.46,0,.52c.03.06.05.03.09.03.04,0,.03-.07.03-.07v-.43s.05.02.1.01c.05-.01.08-.04.11-.09.03-.05.02-.33.01-.36,0-.03-.04-.13-.1-.16-.06-.03-.1,0-.1,0,0,0,.04.02.06.16,0,.04-.01.24-.03.25-.02.02-.06.03-.11,0-.03-.02-.08-.05-.1-.17,0-.04,0-.13,0-.13l-.12-.04s0,.22,0,.26Z"/><path class="cls-31" d="M23.01,10.8s-.03-.04-.07-.04c-.04,0-.06.04-.06.08,0,.04.03.16.03.16,0,0,.01.02.01.02v.04s-.14-.1-.14-.1c0,0-.02-.04-.03-.09-.02-.05-.02-.2.07-.2.09,0,.14.04.16.07.02.03.02.05.02.05Z"/><path class="cls-31" d="M22.73,11.92s-.02,0-.02-.02c0-.02-.03-.16.06-.18.01,0,.02,0,.02.01,0,.01,0,.02-.01.02-.04,0-.03.1-.03.14,0,.01,0,.02-.02.02,0,0,0,0,0,0Z"/><path class="cls-31" d="M22.95,12.03h0s-.02,0-.02-.02c0-.04,0-.14-.01-.18-.01-.04-.02-.05-.02-.05,0,0-.01-.02,0-.03,0,0,.02-.01.03,0,0,0,.02.02.04.07.02.05.01.18.01.19,0,.01,0,.02-.02.02Z"/><path class="cls-31" d="M9.71,2.02s.07-.06.07-.12-.03-.12-.07-.12-.07.06-.07.12.03.12.07.12Z"/><path class="cls-31" d="M11.42,3.21s.06-.05.06-.11-.03-.11-.06-.11-.06.05-.06.11.03.11.06.11Z"/><path class="cls-31" d="M12.74,4.15s.06-.05.06-.1-.03-.1-.06-.1-.06.05-.06.1.03.1.06.1Z"/><path class="cls-31" d="M13.79,4.76s.05-.04.05-.1-.02-.1-.05-.1-.05.04-.05.1.02.1.05.1Z"/><path class="cls-31" d="M14.95,5.6s.05-.04.05-.09-.02-.09-.05-.09-.05.04-.05.09.02.09.05.09Z"/><path class="cls-31" d="M15.99,6.27s.05-.04.05-.08-.02-.08-.05-.08-.05.04-.05.08.02.08.05.08Z"/><path class="cls-31" d="M16.93,6.88s.04-.03.04-.07-.02-.07-.04-.07-.04.03-.04.07.02.07.04.07Z"/><path class="cls-31" d="M18.14,7.79s.04-.03.04-.06-.02-.06-.04-.06-.04.03-.04.06.02.06.04.06Z"/><path class="cls-31" d="M19.26,8.52s.03-.03.03-.06-.01-.06-.03-.06-.03.03-.03.06.01.06.03.06Z"/><path class="cls-31" d="M20.25,9.12s.03-.02.03-.05-.01-.05-.03-.05-.03.02-.03.05.01.05.03.05Z"/><path class="cls-31" d="M21.84,10.33s.02-.02.02-.04,0-.04-.02-.04-.02.02-.02.04,0,.04.02.04Z"/><path class="cls-31" d="M9.81,2.71c0,.19-.1.35-.22.35s-.22-.15-.22-.35.1-.35.22-.35.22.16.22.35Z"/><path class="cls-11" d="M20.33,23.33s-.21,4.03-.21,4.13-.86.27-.86.27l.21-3.35.85-1.05Z"/><path class="cls-13" d="M20.14,26.39s-.73-.06-.99-.05-1.12,0-1.12,0l-.12,2.43c-.28.42-.26.46-.54.75-.53.56-1.31.39-1.84.67-.33.18-.54.4-.52.56.03.26.9.32.9.32,0,0,2.58-.02,2.83,0,.25.02.51-.13.77-.15.26-.02.58-.07.65-.32s-.01-4.22-.01-4.22Z"/><path class="cls-16" d="M16.58,8.35s-.1.09-.43.07-.48-.21-.5-.28-.1-.16.06-.2.68.04.68.04h.19v.37Z"/><path class="cls-37" d="M15.85,7.94h-.2s.36.14.55.15.35.24.35.24v-.41l-.7.02Z"/><path class="cls-10" d="M16.16,22.93l-.13,1.25s1.01.27,2.22.22,2.29.05,2.59-.15-.17-6.98-.1-6.98.22-.59.22-.59l-.93-2.32-1.67-.18-1.52,4.54-.68,4.22Z"/><path class="cls-2" d="M18.84,14.79s.56.78.59.97.44,1.56.35,1.5-.39-.24-.47-.42-.62-1.78-.62-1.78l.14-.27Z"/><path class="cls-2" d="M19.73,14.58s.86,2.53.74,2.62-.16-.17-.2-.27-.54-2.35-.54-2.35Z"/><path class="cls-2" d="M18.41,16.02s.36,1.24.29,1.39-.42,1.99-.46,2.22c-.25,1.45-.85,4.01-.37.27.01-.11.54-3.89.54-3.89Z"/><path class="cls-19" d="M16.71,14.19s-.26,1.74-.26,1.8-.41,2.92-.41,2.92c0,0-.08,2.19-.1,3.25l-.03,1.06s1.17.26,1.51,0,.45-3.41.74-5.35c.04-.24.68-2.9.68-2.9l.24-1-.42-.2-1.95.44Z"/><path class="cls-3" d="M17.14,12.84s-.08.15-.06.21.36.2.58.22.65.15.76.19.27.18.27.18l.14-.31-1.18-.74s-.24.18-.35.19-.17.06-.17.06Z"/><path class="cls-18" d="M17.42,12.77s0,.1.33.18.88.43.88.43l-.02-.26-1-.52-.19.18Z"/><path class="cls-10" d="M16.93,12.59l.39-.67s-.06-.28,0-.49c.04-.14.01-.43.02-.46s.32-.58.41-.66.33-.26.33-.26c0,0,.28-.24.37-.28s.22-.05.22-.05c0,0,.16-.18.29-.27s.27-.1.33-.08.17.06.21.11.23.22.26.24.06.05.07.09.27.33.35.45.55.98.55,1.03,0,.45,0,.51-.1.39-.07.55.07.47.04.52-.13.76-.16.82-.25.6-.25.6l-.62.06-.98-.71s.03-.14-.07-.26-.16-.26-.39-.37l-.6-.29s-.32-.2-.49-.21-.21.12-.21.08Z"/><path class="cls-34" d="M16.51,8.06s0,.2.03.27.04.07.05.13-.06.4-.05.48.03.08.08.09.16,0,.18,0,.08.11.09.14,0,.11.02.12c.05.04.12-.01.12-.01,0,0-.09.05-.09.07.01.08.06.09.07.1s.03.05.02.09,0,.1,0,.16.02.12.08.16.23.05.32.03.17-.07.18-.08.03-.06.08-.06.18.09.21.11.1.11.1.11c0,0,.04.06.04.09v.04s.2-.2.2-.2c0,0,.23-.33.32-.45s.32-.35.35-.35.12,0,.12,0c0,0-.14-.3-.16-.39s-.01-.13-.01-.13c0,0-.21-.04-.22-.06s-.11-.29-.11-.29l-.07-.28s-.15-.2-.31-.2-.52-.05-.52-.05l-.26-.04s-.32.14-.37.17-.47.15-.47.15v.09Z"/><path class="cls-3" d="M18.04,7.98s0-.02.06-.06.14-.05.18-.02.05.13.05.18-.04.26-.08.27-.05.02-.05,0,.05-.08.06-.11.03-.13,0-.19-.03-.12-.07-.12-.11,0-.09.02,0,.07-.02.06-.06-.03-.06-.03Z"/><path class="cls-3" d="M18.04,8.04s.05.04.09.05.09.06.1.09-.03.07-.04.07-.12.01-.13.02,0,.06-.01.06-.04.02-.04,0,.02-.04.02-.06-.04-.06-.03-.08,0-.04.01-.03.07.04.1.05.08.01.08-.02-.01-.05-.04-.06-.08,0-.09-.02-.02-.08-.02-.08Z"/><path class="cls-3" d="M17.96,8.47s0,.09.05.11.14-.02.15-.03c.06-.05.14-.15.14-.15,0,0-.06.15-.08.18s-.04.05-.09.05-.11,0-.14-.02-.04-.14-.04-.14Z"/><path class="cls-28" d="M18.41,7.89s.11.54.15.62.18.09.24.1.07.04.07,0,.01-.42.01-.42l-.07-.16-.39-.15Z"/><path class="cls-28" d="M17.29,7.69s.28.19.34.46c.02.08,0,.18-.02.29-.01.05-.08.29-.12.33s-.29.24-.32.26-.28.02-.31.03,0,.04,0,.08.05.06.09.04.2-.09.22-.05.05.2,0,.27c-.03.04-.07.14-.14.15-.05.01,0,.16,0,.16,0,0-.05.17.12.2.28.04.4-.03.43-.06s.12-.09.12-.09c0,0,.28-.65.3-.69s.08-.13.04-.21-.15-.23-.18-.35c-.05-.22-.06-.38-.04-.44s.07-.18.1-.2c.08-.07.23-.1.23-.1l-.5-.16-.37.1Z"/><path class="cls-28" d="M16.61,8.33s-.05-.08.05-.16.21-.09.22-.08-.09.03-.14.07-.13.16-.13.16Z"/><path class="cls-28" d="M16.8,8.39l.02-.04s.15-.04.16-.04,0,.02-.02.05-.07.09-.07.09v-.04l-.04-.03h-.05Z"/><path class="cls-28" d="M16.68,8.98s.03-.03.08-.04.1,0,.09,0-.09.03-.1.04-.08.03-.07,0Z"/><path class="cls-12" d="M16.46,7.69l.34-.87s0-.1.14-.12.78-.04,1.03-.01.73.4.78.47.12.28.14.32.04.13.06.16.03.2,0,.26-.02.16-.02.2-.04.1-.04.1c0,0-.23-.17-.45-.29-.07-.04-.14-.07-.2-.09-.29-.09-.95-.13-.95-.13h-.83Z"/><path class="cls-3" d="M17.93,8.06s.04-.1.07-.15.09-.13.09-.13l-.12.07s-.02.01-.02.06-.03.15-.03.15Z"/><path class="cls-3" d="M18.31,8.4s.12-.23.12-.45c0-.05.01.06.01.06,0,0-.05.27-.09.35s-.06.1-.06.1l.02-.06Z"/><path class="cls-16" d="M18.24,7.76s.04-.02.09,0,.14.17.14.17l-.04-.02-.09-.03-.1-.11Z"/><path class="cls-34" d="M18.08,7.8s.06-.06.13-.07.16.06.19.12c.04.07.02.13.02.13,0,0-.05-.09-.14-.12s-.19-.02-.19-.02l-.02-.05Z"/><path class="cls-16" d="M17.37,7.63s.76,0,.98.02.57.24.57.24c0,0-.01.11,0,.14s-.05.06-.05.06c0,0-.43-.36-.62-.36s-.88-.1-.88-.1Z"/><path class="cls-16" d="M18.8,7.35s-.01.11-.19.08-.4,0-.33.03.56.07.56.07l-.04-.18Z"/><path class="cls-1" d="M17.29,7.69s-.44.3-.78.32-.86-.06-.86-.06l.81-.26h.83Z"/><path class="cls-3" d="M16.98,9.29s.06-.03.08-.03.03,0,.02.01-.1.03-.1.03v-.02Z"/><path class="cls-22" d="M18.13,10s.53-.74.65-.85.25-.17.25-.11.12.25.12.25l.06.08s-.15,0-.26.09-.3.22-.32.26-.06.05-.13.06-.38.23-.38.23Z"/><path class="cls-2" d="M17.7,10.84s-.07-.06-.03-.17.14-.37.11-.33-.22.41-.25.45-.14.19-.14.21.15.14.16.16.06.08.06.08c0,0,0-.33.09-.4Z"/><path class="cls-2" d="M17.37,11.8s-.09-.21-.03-.28.15-.06.16-.03-.14.31-.14.31Z"/><path class="cls-2" d="M17.76,11.04s-.04-.09.09-.26.3-.41.3-.39-.4.65-.4.65Z"/><path class="cls-2" d="M17.72,10.78s.19-.24.26-.3.41-.39.56-.39.32-.04.32,0-.04.1-.02.09.06-.09.1-.09.08.02.08,0,0-.22.03-.26.1-.12.15-.16.13-.26.1-.22-.33.21-.32.22.14-.05.13,0-.11.13-.11.17-.04.18-.05.19-.26.04-.34.03-.2.02-.22.03-.32.24-.33.26-.33.43-.33.43Z"/><path class="cls-2" d="M18.64,9.75s.14,0,.17-.03.33-.27.37-.28.03-.03.06-.03-.03-.03-.08,0-.3.13-.31.14-.2.13-.2.2Z"/><path class="cls-2" d="M19.38,10.04l.18.36-.44-.3s.01.05.12.12.33.25.34.27.08.32.08.34.02.13.03.14.16.28.16.28c0,0,.11.31.11.33s.08-.27.05-.49-.21-.7-.24-.73-.42-.39-.39-.33Z"/><path class="cls-2" d="M19.59,11.17s.05-.07.07-.06.07.17.08.18.04.26.05.29-.13.31-.16.34-.27.57-.27.55.22-.58.23-.73,0-.58,0-.58Z"/><path class="cls-2" d="M19.32,12.64s.44.24.49.34.03.3.02.36-.09.16-.13.08-.33-.46-.36-.49-.11-.08-.11-.08c0,0,.07-.17.08-.21Z"/><path class="cls-7" d="M18.89,13.69s.2-.37.27-.46.2-.37.2-.4.13-.63.13-.63c0,0-.25.56-.25.6s-.23.39-.25.45-.13.16-.17.26-.05.17-.05.17l.12.02Z"/><path class="cls-2" d="M19.08,13.62s.09-.09.16-.03.23.13.3.14.22-.06.24-.06-.09.17-.09.21-.02.1-.05.08-.31-.07-.33-.08-.23-.26-.23-.26Z"/><path class="cls-2" d="M19.83,13.91s.11-.22.14-.27.11-.38.13-.41.17-.31.18-.27-.24.84-.2.86.29-.67.32-.69.06-.02.05.11.03.39-.01.49-.18.29-.25.36-.14.22-.19.22-.25-.22-.27-.23.1-.17.1-.17Z"/><path class="cls-30" d="M17.78,14.34s.26.07.33.04.2-.16.25-.21.26-.36.26-.36l.03-.06s.09-.11.12-.08.1-.03.12.02.04.11.03.13-.09.23-.13.16-.03-.15-.07-.14-.23.52-.27.57-.16.24-.2.26-.2.05-.23.05-.21,0-.22-.03-.25.04-.25.03.1-.05.15-.09.07-.29.07-.29Z"/><path class="cls-19" d="M20.34,14.96s.28.18.37.29.3.37.32.39.04.17.04.19,0,.17-.03.17-.25-.02-.26.03.11.35.12.39.09.29.05.25-.49-1.24-.49-1.24l-.12-.48Z"/><path class="cls-24" d="M20.47,15.43l-.43-.69.14-.13s.02-.02.04.02.19.36.22.45.08.41.08.41l-.04-.06Z"/><path class="cls-20" d="M20.06,14.79s-.03-.03.04-.08.07-.09.07-.09l-.11-.03-.06.1.06.09Z"/><path class="cls-19" d="M18.94,14.34l.17-.49s.38.15.43.16.3.14.35.22.08.09.11.07.16-.19.16-.19c0,0,.05.04.07.06s.07.06.06.1-.02.15-.02.16-.11.17-.11.17c-.05,0-.07-.07-.07-.07,0,0-.02.14-.1.15s-.14,0-.16,0-.21-.15-.24-.16-.65-.19-.65-.19Z"/><path class="cls-4" d="M19.75,14.19s.13.23.15.3.02.13.06.15.1-.1.08-.15-.09-.11-.12-.14-.17-.16-.17-.16Z"/><path class="cls-4" d="M20.03,14.35s.06.11.06.16-.04.13,0,.12.11-.16.1-.17-.04.02-.06,0-.1-.1-.1-.1Z"/><path class="cls-26" d="M16.77,14.88s.24-.38.34-.39.42.05.41.11-.28.12-.37.16-.44.22-.38.12Z"/><path class="cls-26" d="M17.08,15.49s.18-.55.63-.54.56.11.53.15-1.23.54-1.16.38Z"/><path class="cls-2" d="M17.24,12.8s-.35-.17-.31-.21.11-.1.21-.08.41.14.41.14c0,0-.1.1-.14.12s-.18.03-.18.03Z"/><path class="cls-2" d="M17.96,12.57s.74-1.66.77-1.53-.44,1.1-.49,1.22-.09.4,0,.44.1.17.03.14-.32-.26-.32-.26Z"/><path class="cls-34" d="M15.27,13.36s.07-.24.11-.29.11-.08.11-.08c0,0,.72,0,.82-.03s.55-.08.62-.09.31-.07.31-.07c0,0,.42.35.63.39s.83.38.83.38c0,0-.04.18-.08.24s-.3.5-.42.54-.42-.01-.42-.01l-.26-.04-1.42-.79-.83-.15Z"/><path class="cls-3" d="M15.39,13.14s.82.43.9.47c1.04.46.98.24,1.06.25s.28-.07.27,0,0,.1.04.15.27.22.2.27-.81.02-.86,0-1.18-.31-1.2-.3-.41-.12-.41-.12c0,0-.14-.39-.12-.5s.12-.21.12-.21Z"/><path class="cls-32" d="M15.49,12.99s-.46-.03-.5-.06-.1-.06-.14-.06-.06.02-.08-.07-.25-.44-.48-.61-.37-.34-.44-.33-.17-.04-.17.05,0,.17.06.24.32.35.27.36-.24-.07-.28-.08-.35-.22-.4-.22-.15.02-.1.08.21.16.24.21-.02.06.01.15.07.18.1.23.25.28.32.38.3.18.38.21.45.16.54.2.41.15.41.15c0,0,.13.08.15.03s-.21-.41-.05-.64l.16-.23Z"/><path class="cls-8" d="M14.08,12.46s.22-.15.14-.14-.2.06-.19.05.13-.13.1-.12-.14.03-.15.02.11-.11.04-.12-.16.03-.17.02.05-.04.04-.08-.14-.08-.16-.1-.05-.03-.03.04.26.36.27.38.12.06.12.06Z"/><path class="cls-8" d="M13.96,12.51s-.03.02-.07.03-.16.05-.18.07-.05.05-.07.03-.25-.21-.25-.21c0,0-.15-.09-.15-.13s-.04-.17-.01-.15.32.2.4.22.29.16.34.15Z"/><path class="cls-8" d="M13.71,12.79s.14.11.17.16.18.1.21.1.26.06.27.04.23-.21.24-.18-.16.15-.16.16.15-.07.18-.08-.03.08-.06.14.06.01.12.02.06.03.03.06.08,0,.09.05-.07.06-.05.07.19-.29.17-.14-.25.27-.18.23.53-.37.43-.25-.33.34-.27.31.25-.32.27-.18.07,0,.08.06.06.36.09.43.11.07.03.07-.29-.05-.33-.07-.47-.17-.53-.2-.1-.07-.17-.09-.28-.07-.32-.09-.28-.31-.3-.33-.02-.03-.02-.1-.05-.15,0-.18Z"/><path class="cls-36" d="M17.49,24.39s.02-.01.06,1.45c0,.42.14,1.88.14,1.88h1.58l.21-3.35-1.99.02Z"/><path class="cls-2" d="M18.27,24.38s.84-5.29,1.04-4.88-.03,2.71-.08,3.04.03,1.82.03,1.82l-1,.02Z"/><path class="cls-11" d="M19.48,26.62s-.73-.06-.99-.05-1.12,0-1.12,0v2.7c-.04.38-.39.75-.78.83-.34.06-.74,0-1.27.28-.17.09-.47.25-.49.58-.03.37.71.37.71.37,0,0,2.3-.04,2.54-.02.25.02.5.02.75,0,.26-.02.58-.07.65-.32s0-4.38,0-4.38Z"/></svg>