<?xml version="1.0" encoding="UTF-8"?><svg id="Complications" xmlns="http://www.w3.org/2000/svg" viewBox="0 0 32 32"><defs><style>.cls-1{fill:#c9c9c9;}.cls-1,.cls-2,.cls-3,.cls-4,.cls-5,.cls-6,.cls-7,.cls-8,.cls-9,.cls-10,.cls-11,.cls-12,.cls-13,.cls-14,.cls-15,.cls-16,.cls-17,.cls-18,.cls-19,.cls-20,.cls-21,.cls-22,.cls-23{stroke-width:0px;}.cls-2{fill:none;}.cls-3{fill:#4c4c4a;}.cls-4{fill:#d2f0fd;}.cls-5{fill:#efd2c1;}.cls-6{fill:#9a9b9c;}.cls-7{fill:#181512;}.cls-8{fill:#5c6374;}.cls-9{fill:#3c2d28;}.cls-10{fill:#8d645e;}.cls-11{fill:#bfbfbd;}.cls-12{fill:#9a938a;}.cls-13{fill:#30241d;}.cls-14{fill:#75777c;}.cls-15{fill:#bbbabc;}.cls-16{fill:#929599;}.cls-17{fill:#aba6a1;}.cls-18{fill:#fff;}.cls-19{fill:#45495a;}.cls-20{fill:#9c6f68;}.cls-21{fill:#e4c2af;}.cls-22{fill:#ac6667;}.cls-23{fill:#c29e8d;}</style></defs><rect class="cls-2" width="32" height="32"/><path class="cls-18" d="M3.77,32l.23-.95s0-.03.01-.06c.4-1.84,1.4-2.62,2.05-3.14.25-.2.49-.39.54-.52.14-.39-.3-1.53-.55-2.21-.19-.51-.37-.99-.47-1.4-.25-1.08-.08-2.87-.03-3.38-.09-.52-.52-2.97-.52-4.71,0-1.62.77-2.94,2.29-3.91.26-.16.56-.37.92-.62,0-.18.05-.38.16-.58.13-.23.4-.53.94-.64.09-.02.3-.12.46-.2.06-.03.13-.06.19-.09-.49-.44-.65-1.04-.48-1.68v-.02s0,0,0,0c.05-.17.12-.34.22-.51.51-.9.43-1.38.34-1.88-.02-.14-.05-.27-.06-.4-.09-.93.17-1.54.95-2.24.15-.13.28-.4.43-.68.29-.57.66-1.28,1.5-1.58.26-.09.38-.17.51-.26.2-.14.48-.33.95-.33.18,0,.37.03.61.08.2.05.38.07.6.07.12,0,.24,0,.36-.01.13,0,.26-.01.39-.01.3,0,.56.03.82.11.18.05.34.13.48.23.52.11.78.45.93.64.11.14.15.19.25.24.62.28.84.81.98,1.16.11.27.16.38.28.45.98.63,1.1,1.74,1.11,1.86.07.47.16.53.28.62.37.25.74.57.81,1.53.07.9-.26,1.48-.62,1.84,0,.07.01.14.01.21v.18c0,.18,0,.43.02.49,0,0,0,0,.02.02.25-.05.48-.07.7-.07.12,0,.24,0,.36.02.09.01.18.03.26.05h.24l.09.09s.06.02.09.03h.16l.24.23c.61.6.64,1.12.54,1.46v.05l-.07.14s0,.02-.01.03c.2.13.45.3.7.56.15.16.32.4.36.75.55.61,1.12,1.65,1.23,3.37.05.82.09,1.56.11,2.16.36.19.61.53.74.99.08.32.03.62-.13.86.13.22.23.49.23.8,0,.19-.03.34-.08.45.12.38.04.76-.13,1.06.07.23.07.49-.01.74l-.02.08c-.16.48-.46.78-.84.86-.03.63-.04,1.18-.04,1.6,0,.99-.11,1.81-.34,2.44-.31,1.57-1.34,2.12-1.84,2.38l-.07.04c-.09.05-.19.09-.28.12,0,.02.25,1.01.25,1.01H3.77Z"/><path class="cls-18" d="M3.9,14.9l-.1-.02c-.16-.05-.29-.19-.32-.36-.15-.94.03-2.73,1.65-3.6l.06-.03.16-.02c.17,0,.33.1.41.25.06.11.07.23.03.35-.04.12-.12.22-.23.27-1.48.79-1.19,2.54-1.17,2.61.04.25-.12.49-.37.54h-.08s-.04,0-.04,0Z"/><path class="cls-22" d="M3.89,14.61c-.06-.02-.11-.07-.12-.14,0-.02-.39-2.28,1.51-3.3.09-.04.2-.02.24.07.05.09.01.2-.07.24-1.66.89-1.33,2.83-1.32,2.92.02.1-.05.19-.15.21-.03,0-.06,0-.09,0Z"/><path class="cls-18" d="M3.07,13.26l-.08-.02c-.2-.06-.33-.26-.32-.47,0-.01.15-2.51,2.47-3.1h.03s.08-.01.08-.01c.21,0,.4.14.45.34.07.25-.08.5-.33.57-1.59.4-1.76,2.07-1.77,2.26-.01.24-.21.43-.46.43h-.07Z"/><path class="cls-22" d="M3.08,12.97c-.08-.02-.13-.1-.13-.18,0-.02.17-2.31,2.25-2.84.1-.02.19.04.22.13.02.1-.03.19-.13.22-1.83.47-1.98,2.43-1.98,2.51,0,.1-.09.17-.19.17-.01,0-.03,0-.04,0Z"/><path class="cls-18" d="M27.99,25.17c-.15,0-.3-.08-.38-.2-.15-.21-.09-.5.12-.65,1.37-.96.87-2.66.85-2.74-.07-.24.06-.5.3-.58h.04s.09-.02.09-.02c.26.04.39.16.45.32,0,.03.71,2.43-1.21,3.78-.08.06-.17.08-.27.08Z"/><path class="cls-22" d="M29.05,21.27c.06.01.12.06.14.12,0,.02.66,2.22-1.1,3.45-.08.05-.19.04-.25-.04-.06-.08-.04-.19.04-.25,1.54-1.08.99-2.97.96-3.05-.03-.09.02-.2.12-.23.03,0,.06,0,.09,0Z"/><path class="cls-18" d="M28.23,26.35c-.19,0-.36-.12-.43-.29-.05-.12-.04-.24,0-.36.05-.11.14-.2.26-.25,1.53-.59,1.5-2.27,1.49-2.46,0-.12.03-.24.12-.33.08-.09.2-.15.32-.16h.03s.07,0,.07,0c.21.04.37.22.38.43,0,.01.12,2.52-2.08,3.37l-.05.02h-.12Z"/><path class="cls-22" d="M30.05,22.8c.08.01.14.08.15.16,0,.02.11,2.31-1.9,3.09-.09.03-.2-.01-.23-.1-.04-.09,0-.2.1-.23,1.76-.68,1.67-2.65,1.67-2.73,0-.1.07-.18.17-.19.01,0,.03,0,.04,0Z"/><path class="cls-23" d="M11.82,7.9s-.47-.13-.13.46.58.99.52,1.28.3.16.43-.08-.39-1.98-.39-1.98l-.43.33Z"/><path class="cls-8" d="M22.91,31.23h-14.7c.56-.7,1.14-1.35,1.6-1.74.06-.05.12-.1.17-.14.01,0,.02-.01.03-.02,1.31-.91,6.99.31,9.1.5,1.14.1,2.14-.1,2.96.59.42.36.7.42.84.81Z"/><path class="cls-17" d="M22.31,30.61s-.49-.17-1.23-.32c-.74-.15-3.77-.35-4.98-.44-1.21-.09-2.86-.59-5.39-.5-.31,0-.61.06-.91.14-1.04.29-2,.97-2.8,1.74h-2.27s0-.03.01-.06c.55-2.51,2.24-2.65,2.57-3.6.34-.96-.75-2.92-1-4.04-.26-1.12,0-3.25,0-3.25l3.16.98.57.18.41.13.26.08.11.03.13.04.26.08.49.15,5,1.56,1.25,1.08,1.11.95,1.99,1.72.65,2.05.3.64.28.63Z"/><path class="cls-11" d="M16.39,25.88s1.3.88,1.93,1.4,1.69.97,2.91,1.73,1.89,1.55,2.55,1.19,2.03-.97,1.46-4.17c-.57-3.2-4.93-3.29-4.93-3.29l-3.92,3.14Z"/><path class="cls-17" d="M20.35,25.15c.09-.03,1.27-.11,1.76-.34s.8-.64,1.53-.59,1.24,1.05,1.24,1.05c0,0-.17-.95-.52-1.29s.25-.7.52-.65.82.48.82.48l.07-1.34s-2.2-.31-3.05.27-2.36,2.41-2.36,2.41Z"/><path class="cls-11" d="M24.16,13.06s1.47.68,1.64,3.4c.17,2.72.11,3.65.11,3.65,0,0-.3,4.11-.3,5.91s-.4,2.49-.58,2.74.83-1.76-.24-3.08-1.89-2.01-1.89-2.01l-.93-4.52s.16-1.43.66-2.44.27-2.19.27-2.19l1.26-1.46Z"/><path class="cls-12" d="M9.42,13.85l3.11,7.22s2.49,1.05,4.71.84,3.58-1.83,3.58-1.83c0,0,.26,1.84.25.46,0-1.38-.64.24,0,0s1.72-.8,1.41,0-.48-1.25,0,0c.48,1.25,1.08-2.42,1.35-2.64s-1.16.3-1.44.47.13-1.29.87-1.79,1.19-1.69,1.19-1.69c0,0-.59.94-1.19,1.32s.36-1.3.7-1.81-3.24-1.16-3.24-1.16l-11.33.61Z"/><path class="cls-12" d="M20.83,20.08s.27-.15.68-.42.72-.69,1.78-.44.46,2.31.32,2.8,1.02-.75,1.02-.75c0,0,.92.81-.15,1.92-1.07,1.11-.83.41-1.98,1.06s-1.66-4.17-1.66-4.17Z"/><path class="cls-1" d="M24.68,22.84s.49-.39.24-1.94-1.45-2.58-2.43-2.1-.99.86-.99.86c0,0,.68-.75,1.62,0s-.36,2.82-.36,2.82c0,0,.88-1.72.24-2.43s-1.41-.24-2.51.16-1.84.49-1.84.49c0,0-4.64.72-5.74.21s-2.46.67-2.74,1.84-.57,3.66,2.74,3.51,3.64.09,5.09-.33,2.1-.76,3.08-.94,3.28-2.06,3.39-2.75.41.26.21.61Z"/><path class="cls-12" d="M9.9,13.99s-1.19-.76-2.28-.43-1.46,1.55-1.4,2.71.11,4.01.11,4.01c0,0,.79,1.04,1.45,2.13s2.05,3.68,2.94,3.83,2.2,0,2.2,0c0,0-1.46.03-1.45-.58s.07-1.17-.26-1.69.32-2.24,1.19-2.53-.66-.33-1.41.64-.26-1,1.55-1.01-1.09-1.07-1.82-3.72-.41-3.14-.82-3.36Z"/><path class="cls-1" d="M9.9,13.99s1.49,3.1,1.82,4.06,1.62,2.72,2,2.97l-.46.13s-1.87-.52-2.85,1.08c-.97,1.59,0-.99.57-1.27s-1.05.21-1.39,1.09-.15-1.19.21-2.1-.35-3.88-.13-4.68.22-1.29.22-1.29Z"/><path class="cls-14" d="M16.02,18.82s1.52,1.39,1.98,1.47,1.81,0,2.49-.73,1.07-2.35,1.01-2.96,1-.15,1.78-1.25,1.66-1.98,1.14-2.52-1.16-.62-.99-1.03-8.33,3.07-8.33,3.07c0,0-1.83.92-1.85,1.47s2.76,2.49,2.76,2.49Z"/><path class="cls-14" d="M19.36,8.22s1.52-.07,1.52.79-.09,1.27,1.05,1.65-3.62,1.73-4.77,1.62,2.2-4.06,2.2-4.06Z"/><path class="cls-14" d="M9.27,11.3s-.82.6-1.53,1.05-1.94,1.4-1.94,3.27.52,4.67.52,4.67c0,0,.34-1.32.27-2.14s-.39-4.34,1.32-4.29,3.38,1.28,4.29,2.31,2.6,1.19,2.6,1.19c0,0-1.41-.11-1.46-2.01s-2.94-5.09-4.08-4.04Z"/><path class="cls-16" d="M23.6,11.38s-.42,1.22-.99,1.51-.32.89-1.11,1.67-4.41,1.48-6.05.75-1.3-2.53-1.3-2.53c0,0,3.03.05,4.65-.78s4.71-1.73,4.8-.62Z"/><path class="cls-5" d="M15.9,2.79s.64-.11,1.31.09,1.35.73,1.69,1.43.4,1.52.56,1.93.24,1.2.14,1.96.02,2.01-.52,2.81-.82,1.07-1.5,1.25-1.41-1.54-1.41-1.54c0,0-1.47-6.23-1.47-6.28s-.03-1.41,1.22-1.66Z"/><path class="cls-21" d="M15.9,2.79s-1.47.24-2.1,1.06-.73,1.73-1.11,2.4-.62,1.67-.38,2.42.79,2.04,1.13,2.39,1.73.84,2.16,1.11,1.99.2,2.22,0-.08-1.19-.58-1.26-.03-.24.43-.26.43-.32.06-.4-.03-.11-.68-.09-.59-1.09-.17-1.11.47-.02.52-.17-.29-.27-.2-.53.23-.53,0-.7-.35-.9-.36-1.26-.03-1.13-.09-1.4-.43-.33-.64-.29-1.05-.73-.91-1.09.71-.82.71-.82Z"/><path class="cls-9" d="M13.76,6.01s.54-.59.93-.74,1-.17,1.22-.24.21.2.18.33-.47.17-.81.2-.66,0-.93.11-.78.52-.6.33Z"/><path class="cls-9" d="M17.38,4.9s-.16.04-.14.25.19.23.43.21.78-.17,1.06,0,.33.24.36.32.03-.16-.29-.39-.39-.28-.91-.38c0,0-.43-.07-.52-.01Z"/><path class="cls-23" d="M16.22,5.25s.13-.39-.12-.64.13-.02.18.08.14.2.12.38-.14.33-.23.31c-.04,0,.04-.13.04-.13Z"/><path class="cls-9" d="M16.43,8.34s.09-.22.27-.25.22.1.14.16-.23.03-.32.09-.17,0-.09,0Z"/><path class="cls-9" d="M17.61,8.05s-.14-.03-.16.08.15.11.22.18.1-.04.07-.13-.13-.13-.13-.13Z"/><path class="cls-9" d="M15.8,9.6s-.19,0-.24.14.07.11.24.03.36-.23.83-.3-.83.14-.83.14Z"/><path class="cls-9" d="M18.25,9.44s.07-.03.12-.01.02.06,0,.07-.06-.03-.11,0-.01-.04,0-.04Z"/><path class="cls-20" d="M18.26,9.44s-.48-.04-.81,0-.53-.05-.88,0-.84.37-.84.37c0,0,.33.11.63.13s.91.13,1.25,0,.5-.24.58-.36.19-.12.08-.13Z"/><path class="cls-10" d="M15.8,9.6s.65-.36.83-.49.27-.03.57-.07.34-.04.67.17.56.19.39.23-.46,0-.73.05-.63-.05-.9-.02-.6.16-.83.14Z"/><path class="cls-13" d="M17.24,3.01s.89.29,1.27.91.59,1.72.79,2.09.32,1.87.29,2.19.32.16.53-.15.26.11,0,.43-.48.36-.48.36c0,0,.79-.24.66-1s.42-1.59-.13-2.14.35.12.58.62.68.24.59,1.11-.94,1.22-.94,1.22c0,0,1.2-.24,1.09-1.63s-.85-.49-1.09-2.14c0,0-.07-.84-.76-1.28s-.49-1.25-1.16-1.55-.53-.93-1.32-.84-1.36,1.75-1.36,1.75c0,0,.39-.06.61-.18s.21.17.83.22Z"/><path class="cls-7" d="M15.45,3.02s-1.34.38-1.73,1.32-.55,2.16-.9,2.63-.39,1.69-.24,2.13-.35-.12-.5-.52-.18-.97-.68-.88-.58,1.02-.11,1.78,1.05.91,1.05.91c0,0-.99.05-1.47-1.51s.58-1.78.58-1.78c0,0-.71.05-1.05.97s.61,1.35,1.13,1.36c0,0-1.87-.31-1.09-1.69s.44-2.1.38-2.74.06-1.02.7-1.6.75-1.78,1.67-2.1.73-.7,1.64-.49,1.43-.06,2.13.14.34,1.01.31,1.46-.92.55-.92.55c0,0,.53-.21.55-.73s-.06.67-1.43.78Z"/><path class="cls-23" d="M15.9,8.08s-.12.26.12.42.57-.04.76-.07.39-.02.39-.02c0,0,.03.13.08.2s-.13-.15-.57-.07-.97.23-.78-.47Z"/><path class="cls-21" d="M17.16,8.42s.2.02.33.08.46.11.59-.08,0-.34,0-.34c0,0,.18.26.02.43s-.49.12-.62.12-.14.03-.25-.01-.08-.2-.08-.2Z"/><path class="cls-3" d="M9.04,11.34s-.21-.59.46-.73,1.73-1.09,2.19-.22,2.17,1.52,2.46,2.38,1.12.73,1.3,1.67,1.44,1.05,2,1.98-2.76.64-3.43-.21-.28.96.79,1.12c0,0-1.09.11-1.69-1.3s-2.08-2.9-2.71-3.56-1.21-.57-1.37-1.14Z"/><path class="cls-14" d="M11.47,10.23s.61-.34.75-.6.51.1.87.76.78.85,1.29,1.07,1.53.83,2.36.81,1.92-.19,2.84-.78,2.48-1.49,3.71-.9c0,0-.76-.58-2.86.58-2.1,1.16-3.19,2.42-4.87,2.39s-1.17-.84-2.51-1.61-1.58-1.72-1.58-1.72Z"/><path class="cls-6" d="M14.53,13.35s.92.84,2.83.34,3.58-1.96,4.81-1.91,1.93-.37,1.1-1.18c0,0-.92-.92-4.48,1.41s-5.54-.11-5.54-.11c0,0,.69,1.14,1.27,1.46Z"/><path class="cls-3" d="M15.11,14.38s.58.91,2.56.64,2.82-1.03,2.82-1.03c0,0-1.26,1.94-4.54,1.41-3.28-.52-1.6-1.78-.84-1.03Z"/><path class="cls-3" d="M16.92,15.85s.91.34,1.3.77,2.86-.38,2.86-.38c0,0-1.75,1.09-2.69.81s-1.47-.06-1.47-.06v-1.13Z"/><path class="cls-3" d="M14.81,17.34s2.01.03,2.79,0-.73.64-1.88.49.86.94,2.09.88,2.02-.49,2.02-.49c0,0-1.77,1.06-3.42.7-1.66-.36-3.5-2.21-3.5-2.21,0,0,.83.46,1.9.62Z"/><path class="cls-21" d="M7.34,17.09s-.25-.02-.16-.26.33-.72.47-.98.75-.51,1.07-.68.49.02,1.24.16,1,.1,1.44.35,1.73.87,2.16,1.32,1.3,1.24,1.3,1.24c0,0-1,1.48-1.07,1.82s-.94,0-1.92-.79-1.52-.84-1.77-.82-.65-.15-.97.06-.6.31-.76.49-.23.23-.47.15-.13-.25-.13-.25c0,0-.05.24-.39.1s-.05-.56-.05-.56c0,0-.26-.01-.24-.29s.07-.83.23-1.07Z"/><path class="cls-23" d="M7.34,17.09s.49-.52.65-.77.4-.41,1.03-.38,1.57,0,1.57,0c0,0-1.01-.02-1.47-.08s-.84,0-1.08.27-.7.97-.7.97Z"/><path class="cls-23" d="M7.35,18.45s.32-.71.51-.96.48-.68,1.05-.7,1.27,0,1.27,0c0,0-1.04-.12-1.52-.07s-.43,0-.7.37-.62,1.36-.62,1.36Z"/><path class="cls-23" d="M7.78,18.91s.4-.64.67-.91.38-.37.96-.41,1-.09,1-.09c0,0-1.01-.05-1.32,0s-.42.05-.76.44-.56.97-.56.97Z"/><path class="cls-23" d="M10.72,18.57s.99.11,1.34.44,1.7.93,1.94.56.35-.54.35-.54c0,0-.54.97-.57,1.17s-.78.02-1.56-.66c0,0-.81-.63-1.5-.97Z"/><path class="cls-23" d="M24.89,22.24s-.04.32-.21.6-.21.35-.21.35c0,0,.74-.17.98,0s.6.5.81.48.3-.42.3-.42c0,0-1.09-1.15-1.68-1.01Z"/><path class="cls-21" d="M26.4,22.62s-.07.06.11.21c.18.15.07.58-.13.69-.2.1-.36-.42-.65-.65-.3-.23-.88-.17-.84-.64.05-.47-.14-1.62-.58-2.23-.44-.61-1.06-1.49-1.81-1.21,0,0,.2-.57.69-.82.48-.25.99-.63,1.21-.89.2-.22.47-.06.47.42v.02h0c-.04.45-.3.57-.59.92-.28.35-.82.43-.68.43h.35s.45.06.71.18c.26.12.84.12,1.32.1.47-.01.63.34.69.58.06.25-.1.38-.37.43,0,0-.41,0-.92.08-.51.09.41-.03.65.05.18.06.31.15.36.19.16.16.36.44.36.72,0,.36-.21.15-.06.63.15.48-.29.77-.29.77Z"/><path class="cls-15" d="M14.86,18.25s.31-.51.54-.33,1.86,1.63,2.28,1.88.98.89.98.89c0,0-.8.39-1.73.46s-2.57-.09-2.57-.09l-.23-1.16.73-1.64Z"/><path class="cls-12" d="M13.26,21.15s.92-2.17,1.59-2.9-.39.71-.51,1.45.29.14.76-.28.91-.6.91-.6c0,0-.62.64-.72,1.1s.4.27.72.71.9.52.9.52c0,0-3.01.27-3.66,0Z"/><path class="cls-19" d="M11.14,31.23h-4.6c.06-.07.13-.15.21-.22,1.27-1.25,2.49-1.59,3.23-1.67.45-.05.73,0,.73,0,0,0-1.49,1.06.43,1.88Z"/><path class="cls-23" d="M25.77,21.27s.85.25.98-.05c0,0,.04.15-.03.24s-.07.24-.05.32-.06-.11-.21-.2-.54-.17-.69-.22-.18-.17,0-.09Z"/><path class="cls-23" d="M26.39,20.5c-.05-.04-.18-.13-.36-.19-.24-.08-1.16.04-.65-.05.51-.09.92-.08.92-.08-.27.05-.2.08-.03.21.04.03.08.06.12.11Z"/><path class="cls-23" d="M24.86,17.54c0,.06,0,.12-.02.19-.08.62-.81,1.1-.89,1.15,0,0,0,0,0,0h-.35c-.15,0,.39-.08.68-.43.28-.35.55-.48.59-.92Z"/><path class="cls-7" d="M15.94,6.16s-.67-.05-.9.13-.71.37-.97.35-.02-.03.24-.17.96-.55,1.63-.31Z"/><path class="cls-7" d="M17.67,6.17s.47-.11.72,0,.44.13.44.13l.2.09s-.43-.69-1.37-.22Z"/><path class="cls-4" d="M13.37,5.17c.03.08.1.13.11.14.03,0,.07-.03.1-.06.19-.18.27-.74.27-.74.02-.14-.11-.04-.16.12-.02.07-.09.14-.16.2.01,0,0,.02-.02.06,0,0-.17.19-.14.28Z"/><path class="cls-18" d="M13.49,5.31s-.09-.06-.11-.14c-.03-.09.14-.28.14-.28.03-.03.04-.05.02-.06-.09.07-.2.15-.25.23-.08.13.05.29.2.24Z"/><path class="cls-4" d="M17.83,4.25c-.02.07-.09.12-.11.13-.03,0-.06-.03-.1-.06-.18-.17-.25-.7-.25-.7-.02-.13.11-.04.15.12.02.07.08.13.15.19-.01,0,0,.02.02.05,0,0,.16.18.13.26Z"/><path class="cls-18" d="M17.72,4.39s.08-.06.11-.13c.03-.08-.13-.26-.13-.26-.03-.03-.04-.05-.02-.05.09.07.19.14.24.22.08.12-.04.27-.19.23Z"/><path class="cls-4" d="M14.09,8.09c.06.06.15.07.16.08.03-.02.05-.05.07-.1.09-.24-.09-.78-.09-.78-.04-.13-.12.01-.09.18.01.08-.02.16-.06.25.01,0,.02.02,0,.06,0,0-.07.25,0,.31Z"/><path class="cls-18" d="M14.25,8.17s-.11-.02-.16-.08c-.06-.06,0-.31,0-.31.01-.04.01-.06,0-.06-.05.11-.11.22-.12.32-.02.15.17.24.29.13Z"/><path class="cls-4" d="M12.78,10c.06.06.15.07.16.08.03-.02.05-.05.07-.1.09-.24-.09-.78-.09-.78-.04-.13-.12.01-.09.18.01.08-.02.16-.06.25.01,0,.02.02,0,.06,0,0-.07.25,0,.31Z"/><path class="cls-18" d="M12.95,10.08s-.11-.02-.16-.08c-.06-.06,0-.31,0-.31.01-.04.01-.06,0-.06-.05.11-.11.22-.12.32-.02.15.17.24.29.13Z"/><path class="cls-4" d="M14.14,11.63c.06.06.15.07.16.08.03-.02.05-.05.07-.1.09-.24-.09-.78-.09-.78-.04-.13-.12.01-.09.18.01.08-.02.16-.06.25.01,0,.02.02,0,.06,0,0-.07.25,0,.31Z"/><path class="cls-18" d="M14.3,11.71s-.11-.02-.16-.08c-.06-.06,0-.31,0-.31.01-.04.01-.06,0-.06-.05.11-.11.22-.12.32-.02.15.17.24.29.13Z"/></svg>