<?xml version="1.0" encoding="UTF-8"?>
<svg id="Livello_1" data-name="Livello 1" xmlns="http://www.w3.org/2000/svg" version="1.1" viewBox="0 0 76.5 76.5">
  <defs>
    <style>
      .cls-1 {
        fill: #4b4b49;
      }

      .cls-1, .cls-2, .cls-3, .cls-4, .cls-5, .cls-6, .cls-7, .cls-8, .cls-9, .cls-10, .cls-11, .cls-12, .cls-13, .cls-14, .cls-15, .cls-16, .cls-17, .cls-18, .cls-19, .cls-20, .cls-21, .cls-22, .cls-23 {
        stroke-width: 0px;
      }

      .cls-2 {
        fill: none;
      }

      .cls-3 {
        fill: #120d0a;
      }

      .cls-4 {
        fill: #9d645d;
      }

      .cls-5 {
        fill: #586375;
      }

      .cls-6 {
        fill: #cbcbcb;
      }

      .cls-7 {
        fill: #f2c4b1;
      }

      .cls-8 {
        fill: #301f16;
      }

      .cls-9 {
        fill: #d1a08f;
      }

      .cls-10 {
        fill: #bebcbf;
      }

      .cls-11 {
        fill: #afa9a3;
      }

      .cls-12 {
        fill: #c2c1bf;
      }

      .cls-13 {
        fill: #fbd4c3;
      }

      .cls-14 {
        fill: #9c9d9f;
      }

      .cls-15 {
        fill: #ad7068;
      }

      .cls-16 {
        fill: #94979c;
      }

      .cls-17 {
        fill: #c36667;
      }

      .cls-18 {
        fill: #3e2923;
      }

      .cls-19 {
        fill: #c7f1ff;
      }

      .cls-20 {
        fill: #75787d;
      }

      .cls-21 {
        fill: #9f958c;
      }

      .cls-22 {
        fill: #fff;
      }

      .cls-23 {
        fill: #41485a;
      }
    </style>
  </defs>
  <rect class="cls-2" x="13.1" y="9.3" width="54.4" height="54.4"/>
  <g>
    <path class="cls-22" d="M17,67.2l.4-1.8s0,0,0-.1c.7-3.4,2.6-4.8,3.8-5.8.5-.4.9-.7,1-1,.3-.7-.5-2.8-1-4.1-.4-.9-.7-1.8-.9-2.6-.5-2-.2-5.3,0-6.2-.2-1-1-5.5-1-8.7s1.4-5.4,4.2-7.2c.5-.3,1-.7,1.7-1.1,0-.3,0-.7.3-1.1.2-.4.7-1,1.7-1.2.2,0,.6-.2.9-.4.1,0,.2-.1.4-.2-.9-.8-1.2-1.9-.9-3.1h0s0,0,0,0c0-.3.2-.6.4-.9.9-1.7.8-2.5.6-3.5,0-.3,0-.5-.1-.7-.2-1.7.3-2.8,1.8-4.1.3-.2.5-.7.8-1.2.5-1.1,1.2-2.4,2.8-2.9.5-.2.7-.3.9-.5.4-.3.9-.6,1.7-.6s.7,0,1.1.1c.4,0,.7.1,1.1.1s.4,0,.7,0c.2,0,.5,0,.7,0,.6,0,1,0,1.5.2.3,0,.6.2.9.4,1,.2,1.4.8,1.7,1.2.2.3.3.4.5.4,1.1.5,1.5,1.5,1.8,2.1.2.5.3.7.5.8,1.8,1.2,2,3.2,2,3.4.1.9.3,1,.5,1.1.7.5,1.4,1.1,1.5,2.8.1,1.7-.5,2.7-1.1,3.4,0,.1,0,.3,0,.4v.3c0,.3,0,.8,0,.9,0,0,0,0,0,0,.5,0,.9-.1,1.3-.1s.4,0,.7,0c.2,0,.3,0,.5,0h.4l.2.2c0,0,.1,0,.2,0h.3l.4.4c1.1,1.1,1.2,2.1,1,2.7h0c0,0-.1.3-.1.3,0,0,0,0,0,0,.4.2.8.6,1.3,1,.3.3.6.7.7,1.4,1,1.1,2.1,3,2.3,6.2,0,1.5.2,2.9.2,4,.7.3,1.1,1,1.4,1.8.1.6,0,1.1-.2,1.6.2.4.4.9.4,1.5s0,.6-.1.8c.2.7,0,1.4-.2,1.9.1.4.1.9,0,1.4h0c-.3,1-.9,1.6-1.5,1.7,0,1.2,0,2.2,0,2.9,0,1.8-.2,3.3-.6,4.5-.6,2.9-2.5,3.9-3.4,4.4h-.1c-.2.2-.3.2-.5.3,0,0,.5,1.9.5,1.9H17Z"/>
    <path class="cls-22" d="M15.4,32h-.1c-.2,0-.4-.3-.4-.5-.2-1.2,0-3.5,2.1-4.6h0s.2,0,.2,0c.2,0,.4.1.5.3,0,.1,0,.3,0,.4,0,.2-.1.3-.3.4-1.9,1-1.5,3.2-1.5,3.3,0,.3-.2.6-.5.7h-.1s0,0,0,0Z"/>
    <path class="cls-17" d="M15.4,31.6c0,0-.1,0-.2-.2,0,0-.5-2.9,1.9-4.2.1,0,.3,0,.3,0,0,.1,0,.2,0,.3-2.1,1.1-1.7,3.6-1.7,3.7,0,.1,0,.2-.2.3,0,0,0,0-.1,0Z"/>
    <path class="cls-22" d="M14.3,29.9h0c-.3-.1-.4-.4-.4-.6,0,0,.2-3.2,3.1-4h0s.1,0,.1,0c.3,0,.5.2.6.4,0,.3-.1.6-.4.7-2,.5-2.2,2.6-2.3,2.9,0,.3-.3.5-.6.5h0Z"/>
    <path class="cls-17" d="M14.4,29.5c0,0-.2-.1-.2-.2,0,0,.2-2.9,2.9-3.6.1,0,.2,0,.3.2,0,.1,0,.2-.2.3-2.3.6-2.5,3.1-2.5,3.2,0,.1-.1.2-.2.2,0,0,0,0,0,0Z"/>
    <path class="cls-22" d="M62.4,57.1c-.2,0-.4,0-.5-.3-.2-.3-.1-.6.1-.8,1.7-1.2,1.1-3.4,1.1-3.5,0-.3,0-.6.4-.7h0s.1,0,.1,0c.3,0,.5.2.6.4,0,0,.9,3.1-1.5,4.8-.1,0-.2.1-.3.1Z"/>
    <path class="cls-17" d="M63.8,52.1c0,0,.2,0,.2.2,0,0,.8,2.8-1.4,4.4-.1,0-.2,0-.3,0,0-.1,0-.2,0-.3,2-1.4,1.3-3.8,1.2-3.9,0-.1,0-.2.2-.3,0,0,0,0,.1,0Z"/>
    <path class="cls-22" d="M62.8,58.6c-.2,0-.5-.1-.6-.4,0-.1,0-.3,0-.5,0-.1.2-.3.3-.3,2-.8,1.9-2.9,1.9-3.1,0-.1,0-.3.1-.4.1-.1.3-.2.4-.2h0s0,0,0,0c.3,0,.5.3.5.5,0,0,.2,3.2-2.7,4.3h0s-.1,0-.1,0Z"/>
    <path class="cls-17" d="M65.1,54.1c.1,0,.2.1.2.2,0,0,.1,3-2.4,3.9-.1,0-.3,0-.3-.1,0-.1,0-.3.1-.3,2.2-.9,2.1-3.4,2.1-3.5,0-.1,0-.2.2-.2,0,0,0,0,0,0Z"/>
    <g>
      <path class="cls-9" d="M31.8,22.9s-.9-.2-.2.8,1.1,1.8,1,2.4.6.3.8-.2-.7-3.7-.7-3.7l-.8.6Z"/>
      <path class="cls-5" d="M52.2,65.8h-27.1c1-1.3,2.1-2.5,2.9-3.2.1,0,.2-.2.3-.3,0,0,0,0,0,0,2.4-1.7,12.9.6,16.7.9,2.1.2,3.9-.2,5.4,1.1s1.3.8,1.5,1.5Z"/>
      <path class="cls-11" d="M51.1,64.7s-.9-.3-2.3-.6c-1.4-.3-6.9-.6-9.2-.8-2.2-.2-5.3-1.1-9.9-.9-.6,0-1.1.1-1.7.3-1.9.5-3.7,1.8-5.1,3.2h-4.2s0,0,0-.1c1-4.6,4.1-4.9,4.7-6.6.6-1.8-1.4-5.4-1.8-7.4-.5-2.1,0-6,0-6l5.8,1.8,1.1.3.8.2.5.2h.2c0,0,.2.1.2.1l.5.2.9.3,9.2,2.9,2.3,2,2,1.8,3.7,3.2,1.2,3.8.6,1.2.5,1.2Z"/>
      <path class="cls-12" d="M40.2,56s2.4,1.6,3.5,2.6,3.1,1.8,5.4,3.2c2.2,1.4,3.5,2.9,4.7,2.2s3.7-1.8,2.7-7.7c-1-5.9-9.1-6.1-9.1-6.1l-7.2,5.8Z"/>
      <path class="cls-11" d="M47.5,54.6c.2,0,2.3-.2,3.2-.6s1.5-1.2,2.8-1.1,2.3,1.9,2.3,1.9c0,0-.3-1.7-1-2.4s.5-1.3,1-1.2,1.5.9,1.5.9v-2.5c.1,0-3.9-.6-5.5.5s-4.3,4.4-4.3,4.4Z"/>
      <path class="cls-12" d="M54.5,32.4s2.7,1.3,3,6.3c.3,5,.2,6.7.2,6.7,0,0-.5,7.6-.5,10.9s-.7,4.6-1.1,5,1.5-3.2-.5-5.7c-2-2.4-3.5-3.7-3.5-3.7l-1.7-8.3s.3-2.6,1.2-4.5.5-4,.5-4l2.3-2.7Z"/>
      <path class="cls-21" d="M27.4,33.8l5.7,13.3s4.6,1.9,8.7,1.5,6.6-3.4,6.6-3.4c0,0,.5,3.4.5.8s-1.2.4,0,0,3.2-1.5,2.6,0-.9-2.3,0,0c.9,2.3,2-4.4,2.5-4.9s-2.1.6-2.6.9.2-2.4,1.6-3.3,2.2-3.1,2.2-3.1c0,0-1.1,1.7-2.2,2.4s.7-2.4,1.3-3.3-6-2.1-6-2.1l-20.8,1.1Z"/>
      <path class="cls-21" d="M48.4,45.3s.5-.3,1.2-.8,1.3-1.3,3.3-.8.8,4.3.6,5.1,1.9-1.4,1.9-1.4c0,0,1.7,1.5-.3,3.5s-1.5.8-3.6,1.9-3.1-7.7-3.1-7.7Z"/>
      <path class="cls-6" d="M55.5,50.4s.9-.7.4-3.6-2.7-4.8-4.5-3.9-1.8,1.6-1.8,1.6c0,0,1.3-1.4,3,0s-.7,5.2-.7,5.2c0,0,1.6-3.2.4-4.5s-2.6-.4-4.6.3-3.4.9-3.4.9c0,0-8.5,1.3-10.6.4s-4.5,1.2-5,3.4-1.1,6.7,5,6.5,6.7.2,9.4-.6,3.9-1.4,5.7-1.7,6-3.8,6.2-5.1.8.5.4,1.1Z"/>
      <path class="cls-21" d="M28.3,34.1s-2.2-1.4-4.2-.8-2.7,2.9-2.6,5,.2,7.4.2,7.4c0,0,1.5,1.9,2.7,3.9s3.8,6.8,5.4,7.1,4,0,4,0c0,0-2.7,0-2.7-1.1s.1-2.1-.5-3.1.6-4.1,2.2-4.7-1.2-.6-2.6,1.2-.5-1.8,2.9-1.9c3.3,0-2-2-3.3-6.9s-.8-5.8-1.5-6.2Z"/>
      <path class="cls-6" d="M28.3,34.1s2.7,5.7,3.4,7.5,3,5,3.7,5.5l-.8.2s-3.4-.9-5.2,2,0-1.8,1-2.3-1.9.4-2.6,2-.3-2.2.4-3.9-.6-7.1-.2-8.6.4-2.4.4-2.4Z"/>
      <path class="cls-20" d="M39.5,43s2.8,2.6,3.6,2.7,3.3,0,4.6-1.3,2-4.3,1.9-5.4,1.8-.3,3.3-2.3,3.1-3.6,2.1-4.6-2.1-1.1-1.8-1.9-15.3,5.6-15.3,5.6c0,0-3.4,1.7-3.4,2.7s5.1,4.6,5.1,4.6Z"/>
      <path class="cls-20" d="M45.7,23.5s2.8-.1,2.8,1.5-.2,2.3,1.9,3-6.7,3.2-8.8,3,4-7.5,4-7.5Z"/>
      <path class="cls-20" d="M27.1,29.1s-1.5,1.1-2.8,1.9-3.6,2.6-3.6,6,1,8.6,1,8.6c0,0,.6-2.4.5-3.9s-.7-8,2.4-7.9,6.2,2.4,7.9,4.2,4.8,2.2,4.8,2.2c0,0-2.6-.2-2.7-3.7s-5.4-9.4-7.5-7.4Z"/>
      <path class="cls-16" d="M53.5,29.3s-.8,2.2-1.8,2.8-.6,1.6-2,3.1-8.1,2.7-11.1,1.4-2.4-4.7-2.4-4.7c0,0,5.6,0,8.6-1.4s8.7-3.2,8.8-1.1Z"/>
      <path class="cls-13" d="M39.3,13.5s1.2-.2,2.4.2,2.5,1.3,3.1,2.6.7,2.8,1,3.6.4,2.2.3,3.6,0,3.7-1,5.2-1.5,2-2.8,2.3-2.6-2.8-2.6-2.8c0,0-2.7-11.5-2.7-11.6s0-2.6,2.2-3Z"/>
      <path class="cls-7" d="M39.3,13.5s-2.7.4-3.9,2-1.3,3.2-2,4.4-1.1,3.1-.7,4.4,1.5,3.7,2.1,4.4,3.2,1.5,4,2,3.7.4,4.1,0-.1-2.2-1.1-2.3,0-.4.8-.5.8-.6.1-.7,0-.2-1.3-.2-1.1-2-.3-2,.9,0,1-.3-.5-.5-.4-1,.4-1,0-1.3-.6-1.7-.7-2.3,0-2.1-.2-2.6-.8-.6-1.2-.5-1.9-1.3-1.7-2,1.3-1.5,1.3-1.5Z"/>
      <path class="cls-18" d="M35.4,19.4s1-1.1,1.7-1.4,1.8-.3,2.3-.4.4.4.3.6-.9.3-1.5.4-1.2,0-1.7.2-1.4,1-1.1.6Z"/>
      <path class="cls-18" d="M42,17.4s-.3,0-.3.5.3.4.8.4,1.4-.3,1.9,0,.6.4.7.6,0-.3-.5-.7-.7-.5-1.7-.7c0,0-.8-.1-1,0Z"/>
      <path class="cls-9" d="M39.9,18s.2-.7-.2-1.2.2,0,.3.1.3.4.2.7-.3.6-.4.6,0-.2,0-.2Z"/>
      <path class="cls-18" d="M40.3,23.7s.2-.4.5-.5.4.2.3.3-.4,0-.6.2-.3,0-.2,0Z"/>
      <path class="cls-18" d="M42.5,23.2s-.3,0-.3.1.3.2.4.3.2,0,.1-.2-.2-.2-.2-.2Z"/>
      <path class="cls-18" d="M39.1,26s-.3,0-.4.3.1.2.4,0,.7-.4,1.5-.6-1.5.3-1.5.3Z"/>
      <path class="cls-18" d="M43.6,25.7s.1,0,.2,0,0,.1,0,.1-.1,0-.2,0,0,0,0,0Z"/>
      <path class="cls-15" d="M43.7,25.7s-.9,0-1.5,0-1,0-1.6,0-1.6.7-1.6.7c0,0,.6.2,1.2.2s1.7.2,2.3,0,.9-.4,1.1-.7.3-.2.1-.2Z"/>
      <path class="cls-4" d="M39.1,26s1.2-.7,1.5-.9.5,0,1-.1.6,0,1.2.3,1,.3.7.4-.9,0-1.3,0-1.2,0-1.6,0-1.1.3-1.5.3Z"/>
      <path class="cls-8" d="M41.8,13.9s1.6.5,2.3,1.7,1.1,3.2,1.5,3.8.6,3.4.5,4,.6.3,1-.3.5.2,0,.8-.9.7-.9.7c0,0,1.5-.4,1.2-1.8s.8-2.9-.2-3.9.6.2,1.1,1.1,1.3.4,1.1,2-1.7,2.2-1.7,2.2c0,0,2.2-.4,2-3s-1.6-.9-2-3.9c0,0-.1-1.5-1.4-2.4s-.9-2.3-2.1-2.9-1-1.7-2.4-1.5-2.5,3.2-2.5,3.2c0,0,.7-.1,1.1-.3s.4.3,1.5.4Z"/>
      <path class="cls-3" d="M38.5,13.9s-2.5.7-3.2,2.4-1,4-1.7,4.8-.7,3.1-.4,3.9-.6-.2-.9-1-.3-1.8-1.3-1.6-1.1,1.9-.2,3.3,1.9,1.7,1.9,1.7c0,0-1.8,0-2.7-2.8s1.1-3.3,1.1-3.3c0,0-1.3,0-1.9,1.8s1.1,2.5,2.1,2.5c0,0-3.4-.6-2-3.1s.8-3.9.7-5,.1-1.9,1.3-2.9,1.4-3.3,3.1-3.9,1.3-1.3,3-.9,2.6-.1,3.9.3.6,1.9.6,2.7-1.7,1-1.7,1c0,0,1-.4,1-1.3s-.1,1.2-2.6,1.4Z"/>
      <path class="cls-9" d="M39.3,23.2s-.2.5.2.8,1.1,0,1.4-.1.7,0,.7,0c0,0,0,.2.1.4s-.2-.3-1-.1-1.8.4-1.4-.9Z"/>
      <path class="cls-7" d="M41.6,23.8s.4,0,.6.1.9.2,1.1-.1,0-.6,0-.6c0,0,.3.5,0,.8s-.9.2-1.1.2-.3,0-.5,0-.1-.4-.1-.4Z"/>
      <path class="cls-1" d="M26.7,29.2s-.4-1.1.8-1.3,3.2-2,4-.4,4,2.8,4.5,4.4,2.1,1.3,2.4,3.1,2.6,1.9,3.7,3.7-5.1,1.2-6.3-.4-.5,1.8,1.5,2.1c0,0-2,.2-3.1-2.4s-3.8-5.3-5-6.5-2.2-1-2.5-2.1Z"/>
      <path class="cls-20" d="M31.2,27.2s1.1-.6,1.4-1.1.9.2,1.6,1.4,1.4,1.6,2.4,2,2.8,1.5,4.4,1.5,3.5-.3,5.2-1.4,4.6-2.7,6.8-1.7c0,0-1.4-1.1-5.3,1.1s-5.9,4.4-9,4.4-2.2-1.5-4.6-3-2.9-3.2-2.9-3.2Z"/>
      <path class="cls-14" d="M36.8,32.9s1.7,1.5,5.2.6,6.6-3.6,8.9-3.5,3.6-.7,2-2.2c0,0-1.7-1.7-8.2,2.6-6.5,4.3-10.2-.2-10.2-.2,0,0,1.3,2.1,2.3,2.7Z"/>
      <path class="cls-1" d="M37.9,34.8s1.1,1.7,4.7,1.2,5.2-1.9,5.2-1.9c0,0-2.3,3.6-8.4,2.6-6-1-2.9-3.3-1.5-1.9Z"/>
      <path class="cls-1" d="M41.2,37.5s1.7.6,2.4,1.4,5.3-.7,5.3-.7c0,0-3.2,2-4.9,1.5s-2.7-.1-2.7-.1v-2.1Z"/>
      <path class="cls-1" d="M37.3,40.3s3.7,0,5.1,0-1.3,1.2-3.5.9,1.6,1.7,3.8,1.6,3.7-.9,3.7-.9c0,0-3.3,2-6.3,1.3s-6.4-4.1-6.4-4.1c0,0,1.5.9,3.5,1.1Z"/>
      <path class="cls-7" d="M23.6,39.8s-.5,0-.3-.5.6-1.3.9-1.8,1.4-.9,2-1.2.9,0,2.3.3,1.8.2,2.6.6,3.2,1.6,4,2.4,2.4,2.3,2.4,2.3c0,0-1.8,2.7-2,3.3s-1.7,0-3.5-1.4-2.8-1.6-3.3-1.5-1.2-.3-1.8.1-1.1.6-1.4.9-.4.4-.9.3-.2-.5-.2-.5c0,0,0,.4-.7.2s0-1,0-1c0,0-.5,0-.4-.5s.1-1.5.4-2Z"/>
      <path class="cls-9" d="M23.6,39.8s.9-1,1.2-1.4.7-.8,1.9-.7,2.9,0,2.9,0c0,0-1.9,0-2.7-.2s-1.6,0-2,.5-1.3,1.8-1.3,1.8Z"/>
      <path class="cls-9" d="M23.6,42.3s.6-1.3.9-1.8.9-1.3,1.9-1.3,2.3,0,2.3,0c0,0-1.9-.2-2.8-.1s-.8,0-1.3.7-1.1,2.5-1.1,2.5Z"/>
      <path class="cls-9" d="M24.4,43.1s.7-1.2,1.2-1.7.7-.7,1.8-.8,1.8-.2,1.8-.2c0,0-1.9,0-2.4,0s-.8,0-1.4.8-1,1.8-1,1.8Z"/>
      <path class="cls-9" d="M29.8,42.5s1.8.2,2.5.8,3.1,1.7,3.6,1,.6-1,.6-1c0,0-1,1.8-1,2.2s-1.4,0-2.9-1.2c0,0-1.5-1.2-2.8-1.8Z"/>
      <path class="cls-9" d="M55.8,49.3s0,.6-.4,1.1-.4.7-.4.7c0,0,1.4-.3,1.8,0s1.1.9,1.5.9.6-.8.6-.8c0,0-2-2.1-3.1-1.9Z"/>
      <path class="cls-7" d="M58.6,50s-.1.1.2.4c.3.3.1,1.1-.2,1.3-.4.2-.7-.8-1.2-1.2-.5-.4-1.6-.3-1.5-1.2,0-.9-.3-3-1.1-4.1-.8-1.1-2-2.7-3.3-2.2,0,0,.4-1.1,1.3-1.5.9-.5,1.8-1.2,2.2-1.6.4-.4.9-.1.9.8h0c0,.9-.6,1.1-1.1,1.7-.5.6-1.5.8-1.2.8h.6s.8.1,1.3.3c.5.2,1.6.2,2.4.2.9,0,1.2.6,1.3,1.1.1.5-.2.7-.7.8,0,0-.8,0-1.7.1-.9.2.8,0,1.2,0,.3.1.6.3.7.4.3.3.7.8.7,1.3s-.4.3-.1,1.2c.3.9-.5,1.4-.5,1.4Z"/>
      <path class="cls-10" d="M37.4,41.9s.6-.9,1-.6,3.4,3,4.2,3.5,1.8,1.6,1.8,1.6c0,0-1.5.7-3.2.8s-4.7-.2-4.7-.2l-.4-2.1,1.3-3Z"/>
      <path class="cls-21" d="M34.5,47.3s1.7-4,2.9-5.3-.7,1.3-.9,2.7.5.3,1.4-.5,1.7-1.1,1.7-1.1c0,0-1.1,1.2-1.3,2s.7.5,1.3,1.3,1.7,1,1.7,1c0,0-5.5.5-6.7,0Z"/>
      <path class="cls-23" d="M30.6,65.8h-8.5c.1-.1.2-.3.4-.4,2.3-2.3,4.6-2.9,6-3.1.8,0,1.3,0,1.3,0,0,0-2.7,1.9.8,3.5Z"/>
      <path class="cls-9" d="M57.5,47.5s1.6.5,1.8,0c0,0,0,.3,0,.4s-.1.4,0,.6-.1-.2-.4-.4-1-.3-1.3-.4-.3-.3,0-.2Z"/>
      <path class="cls-9" d="M58.6,46.1c0,0-.3-.2-.7-.4-.4-.1-2.1,0-1.2,0,.9-.2,1.7-.1,1.7-.1-.5,0-.4.1,0,.4,0,0,.1.1.2.2Z"/>
      <path class="cls-9" d="M55.8,40.6c0,.1,0,.2,0,.4-.2,1.1-1.5,2-1.6,2.1,0,0,0,0,0,0h-.6c-.3,0,.7-.1,1.2-.8.5-.6,1-.9,1.1-1.7Z"/>
      <path class="cls-3" d="M39.4,19.7s-1.2,0-1.7.2-1.3.7-1.8.6,0,0,.4-.3,1.8-1,3-.6Z"/>
      <path class="cls-3" d="M42.6,19.7s.9-.2,1.3,0,.8.2.8.2l.4.2s-.8-1.3-2.5-.4Z"/>
      <g>
        <path class="cls-19" d="M34.7,17.8c0,.1.2.2.2.3,0,0,.1,0,.2-.1.3-.3.5-1.4.5-1.4,0-.3-.2,0-.3.2,0,.1-.2.3-.3.4,0,0,0,0,0,.1,0,0-.3.4-.3.5Z"/>
        <path class="cls-22" d="M34.9,18.1s-.2-.1-.2-.3c0-.2.3-.5.3-.5,0,0,0,0,0-.1-.2.1-.4.3-.5.4-.1.2,0,.5.4.4Z"/>
      </g>
      <g>
        <path class="cls-19" d="M42.9,16.2c0,.1-.2.2-.2.2,0,0-.1,0-.2-.1-.3-.3-.5-1.3-.5-1.3,0-.2.2,0,.3.2,0,.1.2.2.3.3,0,0,0,0,0,0,0,0,.3.3.2.5Z"/>
        <path class="cls-22" d="M42.7,16.4s.2-.1.2-.2c0-.1-.2-.5-.2-.5,0,0,0,0,0,0,.2.1.3.3.4.4.1.2,0,.5-.3.4Z"/>
      </g>
      <g>
        <path class="cls-19" d="M36,23.2c.1.1.3.1.3.1,0,0,0-.1.1-.2.2-.4-.2-1.4-.2-1.4,0-.2-.2,0-.2.3,0,.1,0,.3-.1.5,0,0,0,0,0,.1,0,0-.1.5,0,.6Z"/>
        <path class="cls-22" d="M36.3,23.4s-.2,0-.3-.1c-.1-.1,0-.6,0-.6,0,0,0-.1,0-.1,0,.2-.2.4-.2.6,0,.3.3.4.5.2Z"/>
      </g>
      <g>
        <path class="cls-19" d="M33.6,26.7c.1.1.3.1.3.1,0,0,0-.1.1-.2.2-.4-.2-1.4-.2-1.4,0-.2-.2,0-.2.3,0,.1,0,.3-.1.5,0,0,0,0,0,.1,0,0-.1.5,0,.6Z"/>
        <path class="cls-22" d="M33.9,26.9s-.2,0-.3-.1c-.1-.1,0-.6,0-.6,0,0,0-.1,0-.1,0,.2-.2.4-.2.6,0,.3.3.4.5.2Z"/>
      </g>
      <g>
        <path class="cls-19" d="M36.1,29.8c.1.1.3.1.3.1,0,0,0-.1.1-.2.2-.4-.2-1.4-.2-1.4,0-.2-.2,0-.2.3,0,.1,0,.3-.1.5,0,0,0,0,0,.1,0,0-.1.5,0,.6Z"/>
        <path class="cls-22" d="M36.4,29.9s-.2,0-.3-.1c-.1-.1,0-.6,0-.6,0,0,0-.1,0-.1,0,.2-.2.4-.2.6,0,.3.3.4.5.2Z"/>
      </g>
    </g>
  </g>
</svg>