<?xml version="1.0" encoding="UTF-8"?><svg id="Complications" xmlns="http://www.w3.org/2000/svg" viewBox="0 0 32 32"><defs><style>.cls-1{fill:#ccbcb0;}.cls-1,.cls-2,.cls-3,.cls-4,.cls-5,.cls-6,.cls-7,.cls-8,.cls-9,.cls-10,.cls-11,.cls-12,.cls-13{stroke-width:0px;}.cls-2,.cls-14{fill:none;}.cls-3{fill:#d7cabc;}.cls-4{fill:#3c3c3b;}.cls-5{fill:#f7d6cd;}.cls-6{fill:#f8f2e6;}.cls-7{fill:#e5d8c8;}.cls-8{fill:#fb6767;}.cls-14{stroke:#fff;stroke-linecap:round;stroke-linejoin:round;stroke-width:.5px;}.cls-9{fill:#261b1c;}.cls-10{fill:#efe8da;}.cls-11{fill:#c1b6ab;}.cls-12{fill:#e2ddba;}.cls-13{fill:#e3d3c0;}</style></defs><rect class="cls-2" width="32" height="32"/><path class="cls-14" d="M11.89,21.64c-1.14-.99-.38-2.41-.38-2.41.08-.13.02-.24-.03-.24-.22-.03-.25.14-.35.34,0,0-.67,1.56.61,2.66.06.05.23.15.31.08.19-.17-.15-.4-.15-.4h0Z"/><path class="cls-14" d="M11.4,22.39c-1.25-.84-.96-2.28-.94-2.4.03-.18,0-.26-.13-.29-.12-.03-.21.19-.24.34,0,0-.39,1.81,1.1,2.63.14.11.28.08.34,0,.08-.12-.11-.27-.11-.27h0Z"/><path class="cls-14" d="M20.96,20.14c-1.46-.37-1.45-1.97-1.45-1.97.02-.16-.09-.23-.14-.21-.21.08-.16.24-.16.46,0,0,.11,1.69,1.75,2.08.07,0,.27.03.31-.08.09-.23-.32-.29-.32-.29h0Z"/><path class="cls-14" d="M20.87,21.02c-1.49-.19-1.89-1.6-1.92-1.71-.06-.17-.11-.24-.25-.21-.12.04-.1.26-.06.41,0,0,.47,1.8,2.17,1.85.18.03.29-.07.29-.16,0-.15-.23-.2-.23-.2h0Z"/><path class="cls-14" d="M28.8,16.46c-.07-.04-.24-.11-.32-.03-.16.2.21.38.21.38,1.28.8.76,2.33.76,2.33-.07.14.02.24.08.24.22,0,.23-.18.29-.39,0,0,.41-1.64-1.02-2.52h0Z"/><path class="cls-14" d="M29.22,15.69c-.16-.08-.29-.03-.33.06-.06.14.16.25.16.25,1.36.64,1.3,2.09,1.3,2.22,0,.18.03.26.18.27.12,0,.18-.22.19-.38,0,0,.1-1.86-1.49-2.43h0Z"/><path class="cls-8" d="M11.43,18.94c.06,0,.12.12.03.24,0,0-.75,1.43.38,2.41,0,0,.34.23.15.4s-.25-.03-.31-.08c-1.28-1.1-.61-2.66-.61-2.66.09-.2.14-.37.35-.34h0Z"/><path class="cls-8" d="M10.29,19.66c.14.03.16.11.13.29s-.3,1.55.94,2.4c0,0,.2.15.11.27s-.2.11-.34,0c-1.49-.82-1.1-2.63-1.1-2.63.03-.16.12-.37.24-.34h0Z"/><path class="cls-8" d="M19.33,17.92s.16.05.14.21c0,0-.02,1.61,1.45,1.97,0,0,.4.06.32.29s-.24.09-.31.08c-1.63-.39-1.75-2.08-1.75-2.08,0-.22-.05-.39.16-.46h0Z"/><path class="cls-8" d="M18.64,19.07c.14-.04.19.03.25.21s.43,1.52,1.92,1.71c0,0,.24.05.23.2s-.12.19-.29.16c-1.7-.05-2.17-1.85-2.17-1.85-.04-.15-.06-.38.06-.41h0Z"/><path class="cls-8" d="M29.48,19.33c-.06,0-.14-.09-.08-.24,0,0,.52-1.53-.76-2.33,0,0-.38-.18-.21-.38s.25,0,.32.03c1.44.88,1.02,2.52,1.02,2.52-.07.21-.08.38-.29.39h0Z"/><path class="cls-8" d="M30.49,18.45c-.14,0-.17-.08-.18-.27s.06-1.58-1.3-2.22c0,0-.22-.11-.16-.25s.17-.14.33-.06c1.61.57,1.49,2.43,1.49,2.43,0,.16-.06.38-.19.38h0Z"/><path class="cls-10" d="M12.18,14.42c.82,1.87.59,1.53.77,2.91.21,1.63-.46,2.86-.38,3.37s-.19,1.74.02,2.76,0,.97,0,.97l-1.01,1.53s-.33.28,0,.38.74-.41.84-.25-.08.41.25.41.84-.25,1.17-.36.54-.64.49-.95,0-.51.18-.61.31-.25.25-.41-.79-2.98-.64-3.5c.15-.51,1.25-2.73,1.25-2.73l.15-4.24h-1.87l-1.48.71h0Z"/><path class="cls-3" d="M12.43,15.23s-.1.26.07.31c.17.05.15.35.21.33s.05.08.15.1-.03.09.05.13.45.03.57,0,.19.16.34.08.19-.03.25,0,.33.05.38.05c.29-.02.39-.18.52-.08.23.21.2.06.2.06,0,0,.15.43.15.35s-.35-1.62-.35-1.62l-.67-.08-.72-.28-.86.43-.27.22v.02Z"/><path class="cls-10" d="M24.53,19.65c-.05-.46-1.55-3.42-1.55-3.42l.52-2.86h-4.7s.1,2.61,1.23,4.35,2.4,1.63,2.66,2.3-.05,1.28,0,1.79c.05.46-.2,2.1-.65,3.1-.06.11-.23.29-.34.36h0s0,0-.02.02c-.04.04-.08.09-.13.18-.26.36-.49.79-.57,1.29,0,0,.05.21.66.19,0,0-.45.32.41.24.86-.08,1.54-.69,1.54-.69,0,0,.08-.85.21-1.25.17-.57.32-1.54.41-1.77.25-.61.37-3.32.32-3.78v-.03Z"/><path class="cls-7" d="M17.92,14.78s.56.43.71.3,3.13.14,3.66,1.1c.32.58,1.48,1.13,1.82,1.58.12.16.16-.46.16-.46l-.87-2.95-1.17-1.16-3.44-.23-.87,1.82h0Z"/><path class="cls-6" d="M29.52,23.64c-.05-1.53-1.17-5.42-1.59-5.98s-1.43-1.13-1.48-1.79,0-.19,0-.29c.02-.09.05-.17.1-.19.08-.04.27-.23.29-.33.03-.1-.22-.23-.21-.28h0c.02-.06.25-.22.29-.44.04-.22-.08-.23-.06-.26h0s.18-.2.2-.3c.03-.1-.06-.15,0-.21.05-.05,0-.1.04-.21s-.03-.17-.03-.22.07-.15.05-.23-.04-.19-.03-.27c0-.09.05-.15.09-.29s-.09-.35-.09-.38c0-.03.07-.09.06-.17s-.07-.16-.07-.2.04-.09.07-.15c.02-.05-.04-.09-.08-.17v-.09c0-.1.07-.23.08-.28.03-.07-.13-.33-.14-.39,0-.07.05-.15.05-.24s-.06-.19-.09-.29-.02-.29,0-.31c0-.03,0-.13,0-.23s-.03-.18-.12-.25.03-.1,0-.22c0-.11-.12-.13-.13-.15,0-.02-.11-.08-.05-.12.06-.05,0-.08-.03-.09-.03,0-.06-.12-.03-.17.03-.06-.02-.05-.07-.14s-.14-.2-.16-.23c-.02-.03-.02-.22-.04-.29s-.23-.07-.23-.11c0-.05,0-.11,0-.18s-.2-.14-.21-.16c0-.02-.1-.17-.08-.24,0-.08-.04-.09-.11-.15s-.11-.11-.11-.19.04-.12-.03-.3c-.07-.18-.23-.08-.25-.13s0-.05-.12-.14-.1-.07-.13-.1c-.03-.03,0-.11-.03-.14-.02-.03-.11-.03-.1-.07,0-.04-.04-.08-.05-.13-.02-.05-.05-.03-.07-.04-.02,0-.09-.03-.09-.08s0-.08-.06-.16c-.05-.08-.08.05-.11.02-.04-.04-.05-.05-.07-.13s-.14-.07-.18-.1c-.03-.03,0-.09-.04-.13-.03-.05-.16-.04-.18-.06s-.02-.02-.05-.13c-.03-.11-.24-.14-.28-.14s-.04-.12-.09-.17-.12.02-.16,0-.08-.14-.16-.19c-.08-.05-.1.04-.11.03-.02,0-.06-.03-.08-.08-.03-.06-.17-.05-.2-.06-.03-.02,0-.03,0-.08s-.14-.05-.23-.05-.16-.08-.23-.13c-.06-.06-.14,0-.19,0-.04-.02,0-.06-.07-.08-.06-.02-.14,0-.17,0s-.04-.1-.19-.11c-.14-.02-.04.06-.08.04-.04,0-.06-.04-.08-.06-.03-.02-.09.02-.11-.02-.02-.04,0-.04-.03-.08-.04-.04-.16.04-.23.05h-.04s0-.05-.02-.06c0-.02-.11,0-.14,0s-.08-.07-.14-.09-.26.06-.26.06c0,0-.11-.08-.17-.06-.06.03-.13.02-.15,0-.03-.02-.09-.04-.15-.06-.06-.02-.12.06-.17.06s0,0-.14-.1-.26-.03-.38.05c-.11.08-.54.08-.75.06-.22-.03-.04.07-.14.12-.11.06-.15.03-.2-.02s-.14-.05-.26,0,.11.14.05.16-.18.06-.21.05c-.03-.02-.16,0-.24.05s-.07.08-.23.22c-.15.13-.15.05-.4.06-.24,0-.08.08-.21.16s-.07.04-.2,0c-.13-.03-.09,0-.14,0s-.11.05-.21.14-.15.04-.24,0c-.09-.03-.08,0-.15.05s-.21.04-.26,0-.1-.05-.18-.05-.05.16-.15.17-.11-.08-.21-.05-.33.14-.41.09c-.09-.05-.14-.03-.3.05s-.08.08-.32.18c-.23.1-.23.11-.32.16s-.08.23-.12.25-.23,0-.33.19-.05.22-.2.25-.14.03-.21.08c-.06.06.08.08.06.2s-.08-.05-.18,0,.05.2,0,.25-.1,0-.08-.07c.02-.06-.1-.07-.1-.07,0,0-.03.23-.04.34-.04,0-.11.02-.25.07-.36.13-.04.39-.16.55-.11.16-.17.23-.38.26-.22.04-.07.37-.17.5-.09.13-.24.09-.38.14s-.08.5-.23.59,0,.14-.38.15c-.38,0,.03.23.09.39-.06.08-.09.14-.13.19-.09.03-.23.04-.38.03-.34-.03.11.26,0,.36,0,0,0,0-.02,0,0,0-.02,0-.02.02h0c-.11.08-.27.16-.45.04-.22-.14-.15.37-.15.37h-.09c-.09,0-.12.13-.16.15h0s-.2.04-.29.05c-.09,0-.06.14-.13.18h0c-.08.04-.18,0-.18,0,0,0-.21,0-.27.17-.02.04-.04.06-.07.08-.02,0-.05.02-.07.03-.08.02-.15,0-.18,0-.05,0-.07-.04-.14,0-.07.05-.22.08-.27.12-.06.04-.18-.05-.23-.05s-.05.14-.12.15c-.08,0-.12,0-.15-.06-.04-.07-.23.09-.32.05s-.18,0-.24.04-.1.07-.11.07-.07-.1-.23-.11c-.17,0-.15.1-.23.12-.08.02-.04-.07-.15-.05s-.18.15-.27.17c-.09.02-.08-.14-.19-.15-.1,0-.05.11-.1.21h0s-.08.02-.13.02c-.08-.02-.18-.06-.23-.07-.08,0-.14.05-.15.09s-.38.08-.41.08c-.05,0-.13.12-.21.06-.07-.07,0,0-.05-.06s-.16.23-.23.27-.22.05-.29.08c-.07.03-.09.23-.09.23,0,0-.11.11-.21.13-.1.02-.11.23-.14.26s-.13.05-.18.1-.02.17-.04.21-.13.04-.19.08c-.06.05.07.12.04.16-.02.04-.04.07-.15.1-.11.04-.09.34-.09.34,0,0-.08.25-.22.3s.05.46,0,.53,0,.46,0,.46c0,0,0,.17-.12.17s.12.41.12.41c0,0,.04.17-.09.31-.13.14.22.36.23.43.02.08-.11.23-.13.28s.29.3.29.3c.13.43-.18,2.06-.23,3.29-.03.6.16.81.42.93s.63.19.81.19c.36,0,.98-.59,1.02-.74s1.17-.43,1.84-.69c.6-.23,1.45-1.47,2.06-2.58h0c.05-.08.21-.08.33-.21.12-.12-.02-.33,0-.37,0,0,.02-.02.03-.03.03-.03.08-.05.21-.05.18,0,.17-.21.28-.34.11-.13.13.02.25,0,.13-.02.17-.14.33-.21.17-.07.14,0,.28,0s.08-.13.25-.19c.18-.07.24.05.43.08s.22-.22.38-.23c.17-.03.29-.22.39-.25s.45-.03.54.04.37-.14.42-.24.2-.1.36-.07c.17.04.28-.08.36-.15.05,0,.14.15.2.15.29-.13.15.17.38.07.21-.09,0-.18.35-.09.35.08.19.18.23.24.22.35.15.74.3,1.36.14.6.64,2.3.12,3.24s.1,1.77.1,1.77c.38.78.62,3.02.54,4.13-.02.28-.44.78-.44.78-.31.39-.62.66-.71,1.04-.15.62.85.13.85.13,0,0,0,.33.15.39.39.16,1.6-.28,1.76-.51.19-.26.25-.98.1-1.11,0,0,.4-.83.39-1.05-.09-1.76-.92-3.32-.98-3.89-.05-.56.62-2.69.62-3.26s.49-2.31.79-3.46c.03-.02.06-.04.07-.05.07-.04.05-.13.04-.23s.03-.08.08-.15c.05-.07.02-.31.04-.38,0,0,.02-.08.04-.08.02.04.02.14.03.17.03.05,0,.11.1.1.11,0,.13-.02.2,0,.07.02.07.08.16.12.03,0,.28-.07.33-.05.1.05-.08.23.16.19s.14-.1.23-.08.08.09.1.13c.08.15.07.12.19.09s.14-.24.22-.19.17.26.35.13c.05-.03.36.15.3-.12.02,0,.16.16.25.08.1,0,.1-.08.15,0,.13.2.24.14.34.11s.18.02.24.09c.07.07,0-.17.09-.09s.14-.08.23.09c.09.19.22-.1.16-.05s.1.29.05.35c-.05.05-.04.13,0,.21,0,.03.04.04.08.04.05.51.23,1,.61,1.45.51.61,1.15,1.45,1.74,1.74,1.55.74,1.62,1.69,2.13,3.12.22.62.38,1.15.56,2.2s.19,1.63-.02,2.05c-.11.23-.59.69-.92,1.1-.02-.02-.04-.03-.04-.03-.44.37-.84.7-.86.87-.08.38.15.45.15.45l.75.02s-.3.24-.11.26c.19.02,1.94.19,2.11-.09.16-.27.3-.71.31-.98.21-.2.36-.45.46-.84.24-.91.13-1.48.08-3.01v.03Z"/><path class="cls-7" d="M18.27,15.21s.08,0,.18-.08.04-.09.21.11.13.13.28.12.21-.24.32-.17.21.16.38.18.24-.02.4,0,.24-.19.34.02c.08.21.18.26.28.21s.24.02.3.02.12.1.23.08.32.06.37.1.15.11.29.07.17.12.29.08.23-.08.21-.16-.28-.69-.28-.69l-1.76-.42-1.39-.12h-.45s-.16.47-.2.63v.02Z"/><path class="cls-3" d="M3.62,16.95s.24-.08.32-.14l.08-.07s.12-.06.18.03c.05.08.3.07.35.06s-.03.04.08-.03.14-.12.2-.1.12.02.12.02v.04s.08.04.65,0c.05,0,.51-.42.47-.36-.1.21-.32.36-.44.54-.18.25-.16.51-.17.92,0,.22-.61-.15-.94-.46-.19-.18-.64-.21-.65-.22-.03-.02-.06,0-.08-.07s-.15-.15-.15-.15h0Z"/><path class="cls-11" d="M6.72,16.82s.44.39.54.74c.04.15.02.28.1.66s-.13.15-.14.21c-.03.26-.05.47.03.44.17-.07.68-.83.8-.95s.25-.74.18-.87-.28.06-.42.02-.23-.19-.27-.14c-.07.08-.1.21-.26.1s-.55-.21-.55-.21h0Z"/><path class="cls-7" d="M6.55,14.34s-.17-.31-.2-.72.07-.12.09-.25,0-.37,0-.4c.03-.16-.03-.25.1-.36.27-.22.54-.26.72-.39.2-.15.29-.35.45,0,.09.21.28-.11.69-.29s.27.23.55.1.1-.52.38-.69.33.2.52.15.13-.21.28-.29.54-.12.57-.1c.12.11-.15.83.08.61s-.41.66-.24.76.13.25.12.32c-.03.2-.1.46.08.5s.38-.08.49,0,.16.11.38.18.15-.12.31-.1.07.32.13.33c.16.03.17.23.34.23s.08.49-.09.17c-.25-.46.63.9-.11.32-.23-.18-.29-.23-.42-.58-.1-.27-.45-.13-.63-.08s-.61-.18-.82-.06c-.15.09-.4.47-.4.44,0-.11,0,0-.23.08-.27.1-.25.54-.35.46-.54-.49-1.27.17-1.27.17l-1.5-.51h-.04Z"/><path class="cls-1" d="M8.06,14.86s.29-.18.45-.26.43-.16.52-.23.11-.24.24-.25.26-.04.22.06-.37.33-.42.42-.13.24-.28.26-.11.12-.26.16-.41-.13-.67-.02-.97-.04-.97-.04l1.18-.11h0Z"/><path class="cls-3" d="M6.38,13.75s.22.34.11.43-.06.35-.05.37.08.18.08.31-.06.18.04.24.1-.08.17-.03.22,0,.22-.02c.02-.1.39-.08.42-.16s-.49-.1-.54-.4-.09-.35-.1-.38-.35-.35-.35-.35h0Z"/><path class="cls-6" d="M6.72,12.97s.21-.31.44-.31.57.04,1.07-.08.62-.16,1.41-.59c.79-.42.89-.47.75,0s-.35,1.43-.81,1.99-.89.78-1.54.87-1.26.1-1.33,0-.38-1.2,0-1.89h0Z"/><path class="cls-5" d="M7.67,14.69s.69-.46.97-.67c.53-.4.47-.34,1.22-1.36.1-.13.31-.51.27-.28s-.07.21-.24.73-.5.83-.71.99-.3.24-.66.41c-.36.17-.84.17-.84.17h0Z"/><polygon class="cls-12" points="5.16 17.19 5.03 17.05 5.12 16.88 5.6 16.86 5.93 16.58 5.99 16.72 5.79 17.09 5.38 17.27 5.16 17.19"/><path class="cls-4" d="M5.07,17.69s-.07-.14-.05-.2.05-.28.05-.28c0,0,0-.05,0-.09v-.05s.14.1.26.1.35-.06.43-.14c.08-.08.11-.14.14-.23s.02-.23.02-.23c0,0,.03-.17.08-.08.07.08.05.35-.02.52s-.29.26-.41.3-.21,0-.26.08-.12.15-.14.23c-.02.08-.07.13-.1.08Z"/><path class="cls-9" d="M5.14,16.92s.09.18.31.12c.16-.04.27-.06.38-.24.03-.05.18-.32.18-.32,0,0-.46.23-.54.26s-.34.18-.34.18h0Z"/><path class="cls-4" d="M4.93,16.62s-.14.36,0,.42c.14.08.12.12.14.08,0-.05-.14-.5-.14-.5Z"/><path class="cls-11" d="M4.96,16.71l.09.38s0-.16.04-.12.07.07.07.07c0,0,0-.09.03-.08s.12.02.12.02c0,0-.04-.08,0-.08s.08.06.08.06c0,0,.03-.13.08-.09.06.03.08-.03.08-.03,0,0,.04-.11.07-.08s.06,0,.06,0c0,0,.06-.13.08-.11s.08-.03.08-.03l.07-.06.05-.06v-.07s-.42.26-.58.31-.4.12-.41-.02h0Z"/><path class="cls-3" d="M18.6,13.03s-.07.22-.1.23c-.05.02-.13.15-.12.23,0,.08.04.19,0,.23s-.24,0-.29.08c-.05.07-.08.18-.16.25-.08.08-.3.16-.35.21s-.11.26-.14.34c-.03.07-.08-.02-.21.1-.13.13-.46.28-.47.3s-.54-.2-.45-.09.42.23.61.13c.2-.09.21-.14.34-.19.13-.05.38-.13.38-.22s.06-.33.26-.4c.2-.08.24-.07.25-.16,0-.09-.1-.23.04-.24.14,0,.32,0,.33-.08s-.09-.19-.06-.27.12-.08.15-.17.08-.35-.02-.27h0Z"/><path class="cls-3" d="M22.66,11.95s-.24-.09-.3.05c-.06.14-.12.16-.17.17-.06,0-.23.09-.23.12s.2-.02.24-.04.18,0,.23-.06.05-.12.08-.16c.04-.04.29.08.23,0l-.08-.08Z"/><path class="cls-3" d="M23.08,11.29s.1-.14.21-.21.16-.13.2-.2c.03-.06.13-.24.36-.29.23-.04.23-.09.25-.13s.02-.2.13-.23.34-.23.34-.12-.18.15-.23.21c-.07.06-.09.11-.12.21-.02.09-.19.15-.23.18s-.26.02-.32.13c-.06.1-.07.16-.12.22-.06.06-.16.06-.2.11-.04.06-.23.27-.27.26-.05-.02,0-.13,0-.13h0Z"/><path class="cls-3" d="M23.98,11.25s.11-.25.23-.27.17-.04.2-.1c.03-.06.04-.27.12-.32.08-.05.27-.13.32-.16s.17-.17.18-.19.04-.54.08-.55.05.03.14-.11.18-.17.18-.3v-.27s.15.23.13.34c-.02.09-.11.26-.12.31s-.15.04-.21.11c-.06.08-.09.2-.09.38s0,.28-.13.36c-.12.08-.17.18-.29.21s-.18.03-.19.16c0,.13-.02.19-.09.23s-.2,0-.23.08-.22.11-.22.11h0Z"/><path class="cls-3" d="M26.47,8.88s-.02.18.03.23c.06.05.11.19.11.23,0,.03-.12.04-.14.09s-.03.23-.02.28c.02.06.1.17.03.2-.08.04-.12.05-.11.1.02.06.04.33.08.35.08.02.09-.04.08-.1,0-.08,0-.21,0-.23s.11-.13.09-.17-.04-.1-.06-.24.19-.16.15-.26-.11-.22-.14-.24c-.03-.04-.12-.21-.12-.21v-.02Z"/><path class="cls-3" d="M23.48,5.25s.22-.02.26.07c.05.08.04.17.1.19.07.02.15.03.21.06s.08.14.08.14c.07.06.08.04.12.08.04.04.03.1.08.11s.29.09.33.06-.03-.15-.08-.15-.16,0-.23-.08-.07-.18-.11-.18-.17-.05-.24-.08c-.07-.03-.11-.09-.16-.17s-.03-.17-.11-.13-.29,0-.25.09h0Z"/><path class="cls-3" d="M23.27,6.03s.22-.02.26.07c.05.08.04.17.1.19.07.02.15.03.21.06.06.03.08.14.08.14.07.06.08.04.12.08s.03.1.08.11c.06,0,.29.09.33.06s-.03-.15-.08-.15-.16,0-.23-.08-.07-.18-.11-.18-.17-.05-.24-.08c-.07-.03-.11-.09-.16-.17s-.03-.17-.11-.13-.29,0-.25.09h0Z"/><path class="cls-3" d="M25.15,6.81s.17.74.12.83c-.05.08-.1.12-.1.19s.09.28.05.33-.1.11-.12.13-.11,0-.09.09c.02.08,0,.22.08.21.08,0,0-.23.11-.28.09-.06.12-.06.15-.13.02-.08.05-.12,0-.22-.04-.09.06-.27.07-.34s-.02-.24-.05-.33c-.02-.05-.06-.3-.11-.41-.05-.09-.09-.06-.09-.06h0Z"/><path class="cls-3" d="M23.68,6.81s.17.74.12.83c-.05.08-.1.12-.1.19s.09.28.05.33-.1.11-.12.13-.11,0-.09.09c.02.08,0,.22.08.21.08,0,0-.23.11-.28.09-.06.12-.06.15-.13.02-.08.05-.12,0-.22-.04-.09.06-.27.07-.34s-.02-.24-.05-.33c-.02-.05-.06-.3-.11-.41-.05-.09-.09-.06-.09-.06h0Z"/><path class="cls-3" d="M27.18,10.9s-.21.1-.2.22.05.34-.03.36c-.08.02-.44.03-.45.18,0,.15.08.26-.04.37-.13.1-.26-.05-.31.1s-.08.19-.14.36c-.08.17-.03.23-.22.23s-.48.34-.41.4c.07.07.42-.26.52-.27s.14.02.2-.11c.06-.12.1-.48.22-.52s.15.02.27-.07.05-.26.12-.42c.08-.15.26-.14.36-.16s.08-.06.07-.22c-.02-.16.07-.46.07-.46h-.02Z"/><path class="cls-3" d="M23.51,12.1s-.07-.11-.2.03c-.12.14-.31.23-.33.23s-.11.02-.21.03c-.1.02-.31.05-.29.1s.23.05.31.03.27-.03.33-.05.1-.17.21-.22.2-.03.2-.03l-.02-.13h0Z"/><path class="cls-3" d="M20.01,13.7s-.28.1-.3.05.02-.16-.09-.15-.48,0-.42.06.14.09.23.09.2.12.2.12c0,0,.11.07.19.02s.2-.2.2-.2h0Z"/><path class="cls-3" d="M20.13,12.59s-.24.04-.33-.12c-.08-.16-.21-.22-.26-.23s-.13-.25-.18-.23.09.34.16.38c.06.05.14.03.2.16.06.13.23.24.24.23s.02.12.23.07c.21-.07.29.03.29.05s.09-.1-.03-.18-.28.08-.3-.14h-.02Z"/><path class="cls-3" d="M18.87,12.58s-.2-.2-.23-.21-.28,0-.25-.07.06.15.12.15.14-.06.18.04.38.15.2.08h0Z"/><path class="cls-3" d="M17.83,11.78s-.2-.2-.23-.21-.28,0-.25-.07.06.15.12.15.14-.06.18.04.38.15.2.08h0Z"/><path class="cls-3" d="M13.39,14.59s-.2-.2-.23-.21-.28,0-.25-.07.06.15.12.15.14-.06.18.04.38.15.2.08h0Z"/><path class="cls-3" d="M10.88,14.76s-.2-.2-.23-.21-.28,0-.25-.07.06.15.12.15.14-.06.18.04.38.15.2.08h0Z"/><path class="cls-3" d="M8.21,16.6s-.2-.2-.23-.21-.28,0-.25-.07c.03-.06.06.15.12.15s.14-.06.18.04.38.15.2.08h0Z"/><path class="cls-3" d="M3.7,14.16s-.2-.2-.23-.21-.28,0-.25-.07.06.15.12.15.14-.06.18.04.38.15.2.08h0Z"/><path class="cls-3" d="M25.19,9s-.2-.2-.23-.21-.28,0-.25-.07c.03-.06.06.15.12.15s.14-.06.18.04.38.15.2.08h0Z"/><path class="cls-3" d="M20.95,12.84s.25.27.38.31.19.08.3.08c.11,0,.24,0,.26-.04s-.04-.11.08-.13.18.06.25.11.21,0,.23-.07.12-.23.21-.24.39,0,.4-.06,0-.09.16-.21c.16-.1.22-.14.27-.13s-.05.15-.08.17-.24.27-.35.32-.29.02-.34.06c-.06.05-.22.17-.23.23-.03.07-.21.21-.29.12-.08-.08-.13-.11-.19-.07s-.31.04-.36.04-.1-.03-.19-.03-.3-.13-.37-.2-.14-.29-.14-.29h-.02Z"/><path class="cls-3" d="M24.07,11.87s-.28-.07-.28.04-.11.29-.11.29c0,0,.19,0,.21-.03s-.06-.09,0-.15.21-.14.21-.14h0Z"/><path class="cls-3" d="M21.66,13.86s-.31.05-.46,0c-.15-.04-.44-.23-.51-.36s-.3-.2-.34-.16c-.05.03-.31-.18-.31-.18,0,0-.11-.1-.15-.03-.04.08.22.25.27.29s.21-.02.34.09c.13.11.31.25.37.33.06.08.21.14.29.18s.5-.18.5-.18h0Z"/><path class="cls-3" d="M22.02,14.06s.19-.06.25-.09.16-.2.26-.22.79-.13.83-.12c.04.02.12.09.17.08s.16-.02.14-.08c0-.07-.08-.18,0-.26.08-.08.06-.19.2-.16s.32-.05.37-.08.12-.29.12-.29c0,0,.23-.03.17.05-.05.08-.2.38-.36.41-.15.05-.32,0-.35.09s.04.34-.13.42c-.17.08-.26.04-.37,0-.11-.04-.33,0-.49,0-.15,0-.37.02-.43.13-.07.11-.05.14-.17.18-.12.03-.25.08-.23-.07h0Z"/><path class="cls-3" d="M23.15,14.28s-.13.17-.24.2-.14-.02-.26-.05-.75,0-.86.02c-.11.03-.31.07-.23.13s.24.03.44-.02.46-.1.56-.03c.1.08.27.14.38.11s.23-.37.23-.37h0Z"/><path class="cls-3" d="M25.21,17.8s-.27.04-.28-.05c0-.08-.13-.08-.19-.11s-.32-.08-.34-.11-.13-.08-.18-.08-.25-.06-.27-.11c-.02-.06-.04-.08-.12-.12-.08-.04-.12-.1-.23-.17-.09-.07-.11-.1-.16-.09s-.32-.05-.32,0,.17.12.29.16.17.06.23.13c.05.08.2.21.28.23s.25.09.27.12.16.02.16.02c0,0,.03-.05.14.07s.31.1.35.12.11.1.15.09.09-.04.15-.02.08-.08.08-.08h0Z"/><path class="cls-3" d="M16.89,16s-.27.04-.28-.05c0-.08-.13-.08-.19-.11s-.32-.08-.34-.11-.13-.08-.18-.08-.25-.06-.27-.11c-.02-.06-.04-.08-.12-.12-.08-.04-.12-.1-.23-.17-.09-.07-.11-.1-.16-.09s-.32-.05-.32,0,.17.12.29.16.17.06.23.13c.05.08.2.21.28.23s.25.09.27.12.16.02.16.02c0,0,.03-.05.14.07s.31.1.35.12.11.1.15.09.09-.04.15-.02.08-.08.08-.08h0Z"/><path class="cls-3" d="M25.65,17.61s.22-.22.26-.14.08.07.21,0c.13-.06.25-.13.25-.13,0,0-.09-.32-.2-.35-.1-.04.04-.54.06-.59s.12-.38.12-.38l-.06-.41.14-.35s.02.04.02.11-.08.28-.05.33c.03.05.04.45.02.54s-.06.24-.08.34-.03.15-.04.27.18.43.17.5c-.02.06-.08.11-.13.17-.07.06-.29.1-.36.11s-.08-.05-.13-.02-.21.14-.2,0l-.02-.02Z"/><path class="cls-3" d="M24.6,9.24s-.12-.13-.16.07c-.04.2-.05.27-.07.32s-.08.16-.18.1-.28-.08-.28-.08c-.07.14-.16.21-.14.23s-.08,0,0,.08.18-.18.23-.15.34.02.36,0,.13-.08.13-.08c0,0,.06-.18.06-.21s0-.18,0-.18l.06-.1h0Z"/><path class="cls-3" d="M23.7,14.66s.17-.2.23-.23.39-.09.39-.09c0,0,.04-.17.04-.21s-.14-.23,0-.3.47-.22.47-.28.07-.24.07-.29c0-.04.06-.23.12-.29s.12-.17.19-.2c.07-.04.18-.1.18-.15s.08-.38.12-.27c.03.11-.27.63-.34.65-.06.03-.17.43-.19.53s-.15.2-.23.25c-.08.06-.27.11-.26.2,0,.08.02.27,0,.32-.02.04-.15.25-.23.23s-.11.03-.18.05-.18.08-.21.12-.28.09-.17-.03h0Z"/><path class="cls-3" d="M24.69,14.79s-.27.03-.34.18c-.07.15-.15.22-.19.24-.04.04-.18.15-.2.18-.02.03-.02.06-.19.09-.17.04-.18,0-.21.07s.09.08.14.07.19.02.23-.04.08-.05.17-.18.21-.16.23-.19.08-.06.1-.16c.02-.09-.03-.15.04-.16s.19-.12.19-.12v.02Z"/><path class="cls-3" d="M25.18,14.85s-.21.08-.27.22-.1.26-.09.35-.16.37-.21.42-.33.15-.34.25c-.02.1-.04.11-.18.21s-.24.16-.29.19c-.05.02-.34.03-.31.11s.2.08.23.06.35-.07.38-.11.04-.19.15-.22c.11-.03.18-.08.21-.16s-.03-.12.11-.18.2-.07.25-.19c.06-.12.11-.25.11-.29s-.05-.15.02-.23c.06-.08,0-.1.09-.2.08-.09.15-.22.15-.22h0Z"/><path class="cls-3" d="M26,14.9s-.06.17-.08.32-.05.24-.1.3c-.07.06-.22.25-.17.34.05.09.04.28,0,.35-.03.07-.06.14-.14.18s-.44.15-.45.21c0,.06-.08.24-.1.31-.02.07-.17.12-.17.14s.1.11.15.04c.05-.07.17-.25.22-.36s.31-.21.32-.21.26-.08.28-.17.04-.16.05-.26c0-.1-.08-.23.03-.39s.11-.04.19-.29c.08-.25.09-.63-.03-.49h0Z"/><path class="cls-3" d="M18.31,14.2s-.06.17-.08.32-.05.24-.1.3c-.07.06-.22.25-.17.34.05.09.04.28,0,.35-.03.07-.06.14-.14.18s-.44.15-.45.21c0,.06-.08.24-.1.31-.02.07-.17.12-.17.14s.1.11.15.04c.05-.07.17-.25.22-.36s.31-.21.32-.21.26-.08.28-.17.04-.16.05-.26c0-.1-.08-.23.03-.39s.11-.04.19-.29.09-.63-.03-.49h0Z"/><path class="cls-3" d="M26.67,12.3s-.12-.02-.12.11c0,.12,0,.96.02,1.02.02.07.07.27.11.32s.13.31.11.34c-.02.03-.07.14-.02.17s.2-.13.15-.19-.1-.36-.12-.44c0-.08-.04-.19-.04-.19,0,0-.06-.07-.08-.38s0-.49.02-.55-.04-.21-.04-.21h0Z"/><path class="cls-3" d="M25.01,14.51s.16-.08.26-.17,0-.08.1-.14c.11-.06.39.02.33-.16-.07-.17.03-.35.07-.38s.12-.2.13-.24c0-.04-.04-.13.04-.15s.14-.24.17-.23.08.25.05.31c-.04.06-.08.06-.15.15-.07.1-.17.16-.17.23v.41c0,.08-.09.13-.18.14s-.17.04-.21.09-.23.13-.23.13c0,0-.18.1-.25.12-.08.02.05-.13.05-.13h0Z"/><path class="cls-3" d="M24.63,12.4s.27-.11.35-.18.23-.24.28-.28c.04-.04.11-.18.12-.23,0-.04.04-.4.1-.41s.23-.04.31-.17.08-.28.08-.28l.08-.08s-.11-.12-.09-.21c.03-.08.08-.29.06-.29s-.16-.2-.18-.08c-.02.12.02.42.04.51s-.06.3-.1.33c-.05.04-.28.2-.31.25s-.16.2-.15.31c0,.1-.04.18-.06.26-.02.08-.17.22-.23.24s-.44.2-.29.29h0Z"/><path class="cls-3" d="M16.22,11.73s-.15.15-.27.16-.14-.04-.25-.08-.74-.11-.85-.1-.31.03-.25.09c.07.07.23.07.44.04.2-.02.47-.04.56.06s.24.17.35.16.28-.33.28-.33h0Z"/><path class="cls-3" d="M12.7,11.5s-.15.15-.27.16-.14-.04-.25-.08-.74-.11-.85-.1c-.11,0-.31.03-.25.09.07.07.23.07.44.04s.47-.04.56.06.24.17.35.16.28-.33.28-.33h0Z"/><path class="cls-3" d="M10.74,10.74s-.15.15-.27.16-.14-.04-.25-.08-.74-.11-.85-.1-.31.03-.25.09c.07.07.23.07.44.04.2-.02.47-.04.56.06s.24.17.35.16.28-.33.28-.33h0Z"/><path class="cls-3" d="M12.9,10.97s.45.24.54.49c.08.24.2.46.34.53s.25,0,.33.08c.07.08.14.19.16.21.03.02.33-.08.42,0s.13.13.16.18c.04.05.19.08.29.11.1.04.26.16.26.16,0,0,.08-.06.14,0s.23-.02.26,0c.05.02.19-.13.2-.16s.09-.19.14-.18-.03.23-.09.29-.19.2-.24.23c-.06.05-.23.08-.41,0s-.47-.14-.52-.31c-.05-.16-.32-.13-.48-.23-.16-.1-.42,0-.51-.14s-.35-.25-.49-.35-.17-.33-.24-.43c-.08-.1-.12-.16-.2-.22s-.08-.27-.08-.27l.03.02Z"/><path class="cls-3" d="M11.69,12.38s.45.24.54.49c.08.24.2.46.34.53s.25,0,.33.08c.07.08.14.19.16.21.03.02.33-.08.42,0s.13.13.16.18c.04.05.19.08.29.11.1.04.26.16.26.16,0,0,.08-.06.14,0s.23-.02.26,0,.19-.13.2-.16.09-.19.14-.18-.03.23-.09.29-.19.2-.24.23c-.06.05-.23.08-.41,0s-.47-.14-.52-.31c-.05-.16-.32-.13-.48-.23s-.42,0-.51-.14-.35-.25-.49-.35-.17-.33-.24-.43c-.08-.1-.12-.16-.2-.22s-.08-.27-.08-.27l.03.02Z"/><path class="cls-3" d="M14.43,13.37s-.27,0-.27-.08-.12-.09-.17-.13c-.06-.05-.3-.12-.32-.16s-.11-.09-.16-.11-.24-.09-.25-.15c-.02-.06-.03-.08-.1-.13-.08-.05-.11-.12-.2-.2-.08-.08-.09-.11-.15-.11s-.31-.09-.31-.04.15.15.26.2c.11.05.16.08.21.16.04.08.17.23.24.27.08.05.23.13.25.16s.15.04.15.04c0,0,.03-.05.13.08.09.13.29.15.33.17.03.02.09.11.13.11s.1-.02.15,0,.08-.07.08-.07h0Z"/><path class="cls-3" d="M12.24,15s-.27,0-.27-.08-.12-.09-.17-.13c-.06-.05-.3-.12-.32-.16s-.11-.09-.16-.11-.24-.09-.25-.15c-.02-.06-.03-.08-.1-.13-.08-.05-.11-.12-.2-.2-.08-.08-.09-.11-.15-.11s-.31-.09-.31-.04.15.15.26.2c.11.05.16.08.21.16.04.08.17.23.24.27.08.05.23.13.25.16s.15.04.15.04c0,0,.03-.05.13.08.09.13.29.15.33.17.03.02.09.11.13.11s.1-.02.15,0,.08-.07.08-.07h0Z"/><path class="cls-3" d="M17.78,12.59s-.22.06-.3.17c-.08.11-.14.24-.14.33s-.21.35-.26.38c-.06.05-.35.1-.38.21s-.05.1-.2.18-.26.12-.31.14-.34-.02-.32.07c.02.08.18.1.22.08s.36-.02.38-.06.07-.18.18-.2c.12-.02.19-.06.23-.12s0-.12.13-.16c.14-.04.21-.04.27-.15s.15-.23.16-.27c0-.04-.02-.16.05-.23s.02-.1.12-.18.18-.2.18-.2h0Z"/><path class="cls-3" d="M5.58,12.21s-.05-.45.11-.38.04.2.04.2c0,0,.05.05.09,0,.05-.04.08-.18.16-.09s.1.03.1.07c-.04.18.02.08.02.08,0,0,.1,0,.12-.03s.06.08.15.08.06-.05.09-.06c.05,0,.12.06.18.07l.12.02.04-.16-.13-.07s-.05.1-.16.07-.05-.1-.12-.11-.09.06-.09.06l-.21-.04s-.21-.21-.26-.17c-.05.04,0,.08-.05.04s-.09-.18-.19-.17c-.09,0-.09.08-.08.11s-.23.08-.2.12.14,0,.18.03c.1.07.09.33.09.33h0Z"/><path class="cls-3" d="M3.76,13.19s.02-.24.15-.21.16.24.16.24c0,0,.08-.25.2-.13.12.13.22.12.22.12,0,0-.02-.05.12-.05s.1.04.2.04h.09l.08-.08-.05-.21s-.04.19-.12.16-.28-.02-.28-.02h-.17s-.18-.17-.22-.13,0,.08-.04.05-.08-.16-.16-.14-.19.1-.19.14v.2h0Z"/><path class="cls-3" d="M6.56,16.01s.02-.24.15-.21.16.24.16.24c0,0,.08-.25.2-.13.12.13.22.12.22.12,0,0-.02-.05.12-.05s.1.04.2.04h.09l.08-.08-.05-.21s-.04.19-.12.16-.28-.02-.28-.02h-.17s-.18-.17-.22-.13,0,.08-.04.05-.08-.16-.16-.14-.19.1-.19.14v.2h0Z"/><path class="cls-3" d="M8.26,16.03s.02-.24.15-.21.16.24.16.24c0,0,.08-.25.2-.13s.22.12.22.12c0,0-.02-.05.12-.05s.1.04.2.04h.09l.08-.08-.05-.21s-.04.19-.12.16-.28-.02-.28-.02h-.17s-.18-.17-.22-.13,0,.08-.04.05-.08-.16-.16-.14-.19.1-.19.14v.2h0Z"/><path class="cls-11" d="M3.56,16.46s-.09.21,0,.23.12.08.12.08l.05.14-.16.13s.15-.08.04-.2c-.11-.12-.16-.18-.15-.23.04-.18.12-.16.12-.16h0Z"/><path class="cls-11" d="M3.1,16.36c.07.08.07.12.13.15s0,.08-.03.18-.08.12-.08.12c0,0-.08-.08-.02-.1.07-.03.03-.16.03-.16,0,0-.1-.25-.04-.18h0Z"/><path class="cls-11" d="M3.95,15.88s-.02.23-.02.29-.08.08-.07.13c.02.07.12.14.15.15.1.04.17.07.18.11s0,.13,0,.16-.05.15-.05.15l-.19-.06s.16,0,.12-.09c-.03-.09-.06-.13-.12-.18-.07-.05-.22-.31-.21-.38s.08-.07.12-.13.07-.17.07-.17h0Z"/><path class="cls-13" d="M2.83,16.72s.02.14.13.21,0-.35.18-.12c.18.23.08.24.25.24s.08-.24.23-.09c0,0,.04.09,0,.13s-.09.09-.17.08-.31-.11-.33-.16-.04.08-.08.04-.06-.05-.09-.06-.09-.05-.09-.05l-.03-.23h0Z"/><path class="cls-3" d="M4.67,15.89c.08.16.46.08.59,0s.2.02.22.08-.17.17-.17.17h-.37c-.18,0-.09.26-.18,0l-.08-.25h0Z"/><path class="cls-3" d="M4.16,16.88s-.07,1.74-.18,1.99c-.1.25-.36,1.24-.36,1.24,0,0,.62-.88.73-1.1.51-.95.7-1.31.7-1.31l-.9-.82Z"/><path class="cls-3" d="M2.54,14.23s.32.31.4.34.37,0,.45.02.22.05.28.15.12.3.21.41.25.15.32.19c.07.04.17.19.21.25.04.07.13.15.15.18s-.1-.15-.16-.28c-.07-.13-.08-.24-.19-.3-.12-.06-.26-.15-.3-.23s-.06-.37-.2-.41-.39-.11-.46-.12c-.07,0-.14.08-.29.02-.15-.06-.41-.23-.41-.23h0Z"/><path class="cls-3" d="M5.85,15.74s-.18-.13-.21-.1-.26,0-.31-.07c-.05-.06-.14-.14-.14-.19,0-.06-.11-.07-.16-.11s-.08-.09,0-.1c.08,0,.14.06.22.08.08.02.22.05.22.08,0,.04-.03.11.02.18.05.07.21.07.23.05s.19,0,.22.09.05.19-.08.1h0Z"/><path class="cls-3" d="M10.52,15.51s-.18-.13-.21-.1-.26,0-.31-.07c-.05-.06-.14-.14-.14-.19,0-.06-.11-.07-.16-.11s-.08-.09,0-.1c.08,0,.14.06.22.08.08.02.22.05.22.08,0,.04-.03.11.02.18s.21.07.23.05.19,0,.22.09c.03.08.05.19-.08.1h0Z"/><path class="cls-3" d="M7.9,11.87s-.18-.13-.21-.1-.26,0-.31-.07c-.05-.06-.14-.14-.14-.19,0-.06-.11-.07-.16-.11s-.08-.09,0-.1.14.06.22.08.22.05.22.08c0,.04-.03.11.02.18s.21.07.23.05.19,0,.22.09c.03.08.05.19-.08.1h0Z"/><path class="cls-3" d="M3.61,15.65s-.18-.13-.21-.1-.26,0-.31-.07c-.05-.06-.14-.14-.14-.19,0-.06-.11-.07-.16-.11s-.08-.09,0-.1c.08,0,.14.06.22.08s.22.05.22.08c0,.04-.03.11.02.18s.21.07.23.05.19,0,.22.09c.03.08.05.19-.08.1h0Z"/><path class="cls-3" d="M5.6,14.07s.23.16.32.22.16.1.15.15c-.02.05-.12.05-.09.13s.06.22.08.2.23.09.22.05-.2-.16-.18-.22.1-.14.09-.2-.04-.12-.11-.16c-.08-.03-.47-.19-.47-.19v.02Z"/><path class="cls-3" d="M4.45,14.37s.13.21.16.18.08-.09.15-.06.14.06.16.04.18.07.23.06.11-.08.08-.11-.06-.09-.09-.07-.23-.06-.24-.03-.11-.02-.14,0-.09.05-.13.04-.16-.05-.16-.05h0Z"/><path class="cls-3" d="M4.09,12.4s-.17-.07-.26-.06c-.09,0-.1.03-.26.12s-.29.17-.28.11c0-.06.09-.16.23-.24s.23-.23.33-.17.27.05.3.02.13-.15.22-.16.29-.16.38-.1.15.02.16.08c0,.08-.15.07-.22.04s-.21-.02-.23.03-.05.13-.17.12c-.12,0-.04.11-.07.12s-.12.08-.12.08h0Z"/><path class="cls-3" d="M3.18,13.41s.16.07.23.04c.08-.03.2,0,.26.04.06.03.34.16.34.23s-.16.03-.26-.07-.19-.09-.24-.09-.09-.02-.14-.02-.12-.04-.14-.02-.03,0-.11-.02.07-.09.07-.09h0Z"/><path class="cls-3" d="M5.07,13.52s-.23-.06-.37-.02-.36.02-.38,0c0-.02-.11.02-.15.03-.04,0-.08.03-.06.08.02.06.04.02.11.02h.38c.08,0,.1-.02.22,0,.12,0,.23-.02.3.02.08.05.16.05.2.06.04,0,.06-.05.11,0s.15.12.21.12c.07,0,.14.05.21.02s.08-.11.02-.1c-.07,0-.2-.06-.32-.1-.12-.05-.49-.09-.49-.09h0Z"/><path class="cls-3" d="M5.29,12.48s-.23-.06-.37-.02-.36.02-.38,0c0-.02-.11.02-.15.03-.04,0-.08.03-.06.08s.04.02.11.02h.38c.08,0,.1-.02.22,0s.23-.02.3.02c.08.05.16.05.2.06s.06-.05.11,0c.06.04.15.12.21.12.07,0,.14.05.21.02s.08-.11.02-.1c-.07,0-.2-.06-.32-.1s-.49-.09-.49-.09h0Z"/><path class="cls-3" d="M14.57,6.88s0-.2-.07-.26,0-.2-.03-.23-.08-.13-.09-.19.03-.08-.04-.15-.27-.27-.26-.33c0-.06,0-.08-.02-.12s-.03-.17.02-.07c.05.09.12.24.13.32s.1.09.16.12c.07.03.09-.02.09.09,0,.1-.02.22.03.26s.08.04.08.11c0,.08-.05.17,0,.21s.1.08.06.16l-.06.08v-.02Z"/><path class="cls-3" d="M15.47,7.73s-.28.23-.31.31c-.02.08.03.28.03.32s0,.23,0,.27.11.17.11.2.07.13.1.12.04-.1,0-.12-.03-.1-.08-.19c-.06-.08-.08-.19-.08-.27,0-.08-.02-.23,0-.29.02-.07.09-.14.15-.17.06-.04.06-.17.06-.17h.02Z"/><path class="cls-3" d="M8.01,10.96s.03.37.08.43c.07.07.25.14.28.16.03.02.19.12.23.14s.21,0,.23.02.14.02.16-.02-.07-.09-.09-.08-.1-.04-.21-.04-.2-.05-.27-.08c-.08-.04-.21-.11-.24-.17-.04-.06-.07-.15-.06-.23,0-.07-.11-.14-.11-.14h0Z"/><path class="cls-3" d="M12.44,9.55s-.28.23-.31.31c-.02.08.03.28.03.32s0,.23,0,.27.11.17.11.2.07.13.1.12.04-.1,0-.12-.03-.1-.08-.19-.08-.19-.08-.27c0-.08-.02-.23,0-.29.02-.07.09-.14.15-.17.06-.04.06-.17.06-.17h.02Z"/><path class="cls-3" d="M15.08,6.68s.13.16.16.23.04.22.07.26-.04.11,0,.15c.04.04.12.08.12.04s0-.11,0-.19-.1-.16-.12-.25.07-.1-.05-.19-.2-.19-.22-.18.05.13.05.13h0Z"/><path class="cls-3" d="M16.62,8.49s0-.29-.08-.35c-.08-.07-.19-.31-.22-.38-.04-.07-.12-.21-.17-.23s-.19-.25-.22-.31c-.03-.07-.08-.09-.1-.13s-.07-.13-.07-.13c0,0,.1-.03.15.05s.15.34.22.4.15.17.19.21.08.15.11.18c.03.04.04.04.08.11s.05.1.08.15.07,0,.08.08c.02.08.08.06.06.21-.04.15-.04.27-.11.14h0Z"/><path class="cls-3" d="M16.2,6.62s-.23-.23-.31-.33c-.07-.08-.18-.19-.21-.22s-.21-.06-.26-.08-.07-.08-.11-.11-.13-.08-.08-.1.12-.06.2.05c.08.11.14.1.2.12.06.02.17,0,.21.08.04.07.11.24.15.26s.17.12.17.12c.05.06.13.05.12.13,0,.08-.08.08-.08.08h0Z"/><path class="cls-3" d="M12.65,9.24s-.32-.11-.41-.17c-.1-.05-.24-.09-.27-.11s-.21.04-.27.04-.09-.06-.15-.06-.15-.02-.12-.06.08-.1.2-.04c.11.07.18.03.23.03s.16-.07.22-.02c.06.05.21.18.24.18s.21.04.21.04c.07.04.14,0,.17.07.03.08-.04.09-.04.09h0Z"/><path class="cls-3" d="M14.91,5.4s-.23.05-.32,0-.11-.12-.12-.13c-.04-.02-.24-.09-.24-.09,0,0-.18-.04-.14-.03s.07-.09.16-.07.17.07.22.12.12.07.16.1.12.04.16.03.13-.03.21-.02.28.02.28.02c0,0,.13.02.06.04-.1.04-.38.03-.42.02h0Z"/><path class="cls-3" d="M18.22,5.56s-.44,0-.5-.04-.11-.08-.14-.12-.06-.05-.18-.11-.26-.08-.3-.08-.13.04-.16,0,0-.07-.05-.11-.06-.08-.1-.08-.12-.08-.15-.08-.08-.04-.12-.06-.08-.03-.08-.03c0,0-.11.03-.21-.02-.08-.04-.1-.11-.02-.1.08,0,.32.05.4.08.08.04.24-.03.32.1.08.13.03.2.06.21s.15,0,.22.02c.06.02.13.06.17.08s.27.1.28.12.08.07.11.08.12.02.16,0,.41.13.26.13h.02Z"/><path class="cls-3" d="M15.62,5.3s.5.21.58.23.3.06.33.14-.06.08-.11.05c-.06-.04-.25-.1-.36-.15s-.12-.08-.2-.08-.11.03-.2-.02c-.08-.05-.17-.08-.17-.09h0l-.07-.11.19.06h0Z"/><path class="cls-3" d="M17.22,7.52c-.02.08.06.49.03.6-.02.11-.02.23.05.32s.19.23.16.37c-.03.14-.02.25-.08.33s-.13.23-.13.32.1.37.13.49c.03.12.17.27.21.33s.08.2.08.34c0,.14-.03.25,0,.26s.15-.14.14-.26-.05-.43-.13-.51c-.08-.08-.22-.37-.23-.4s-.03-.31,0-.37c.02-.07.24-.62.2-.69s-.23-.03-.25-.38-.08-.7-.09-.77l-.05.03h0Z"/><path class="cls-3" d="M17.46,6.82c.11.16.23.15.28.27.06.12.33.59.31.76-.02.16,0,.44.02.46.03.02.05.22.08.28s.13.27.13.2.04-.11-.05-.31c-.09-.2-.14-.28-.08-.48s0-.23,0-.23c0,0-.15-.36-.2-.49s-.38-.57-.4-.56-.14.06-.1.1h0Z"/><path class="cls-3" d="M12.92,7.46c.11.16.23.15.28.27s.33.59.31.76c-.02.16,0,.44.02.46.03.02.05.22.08.28s.13.27.13.2.04-.11-.05-.31c-.09-.2-.14-.28-.08-.48s0-.23,0-.23c0,0-.15-.36-.2-.49s-.38-.57-.4-.56-.14.06-.1.1h0Z"/><path class="cls-3" d="M15.79,8.68c0,.08.11.48.17.54s.31.19.36.23.1.34.16.45.11.13.2.16c.08.03.23.14.21.22s-.19.04-.27-.08c-.09-.12-.25-.23-.27-.29s-.08-.23-.14-.33-.13-.16-.21-.21-.2-.15-.21-.22c0-.08-.07-.08-.08-.22s.08-.26.08-.26h0Z"/><path class="cls-3" d="M10.98,9.24c0,.08.11.48.17.54s.31.19.36.23.1.34.16.45.11.13.2.16c.08.03.23.14.21.22-.02.08-.19.04-.27-.08-.09-.12-.25-.23-.27-.29s-.08-.23-.14-.33-.13-.16-.21-.21-.2-.15-.21-.22c0-.08-.07-.08-.08-.22,0-.14.08-.26.08-.26h0Z"/><path class="cls-3" d="M14.2,9.45c0,.08.11.48.17.54.07.07.31.19.36.23s.1.34.16.45c.07.11.11.13.2.16.08.03.23.14.21.22s-.19.04-.27-.08c-.09-.12-.25-.23-.27-.29-.02-.08-.08-.23-.14-.33s-.13-.16-.21-.21c-.08-.04-.2-.15-.21-.22,0-.08-.07-.08-.08-.22,0-.14.08-.26.08-.26h0Z"/><path class="cls-3" d="M13.1,6.31c0,.08.11.48.17.54.07.07.31.19.36.23s.1.34.16.45c.07.11.11.13.2.16s.23.14.21.22c-.02.08-.19.04-.27-.08-.09-.12-.25-.23-.27-.29s-.08-.23-.14-.33-.13-.16-.21-.21c-.08-.04-.2-.15-.21-.22,0-.08-.07-.08-.08-.22,0-.14.08-.26.08-.26h0Z"/><path class="cls-3" d="M13.1,9.64c0,.08.11.48.17.54.07.07.31.19.36.23s.1.34.16.45c.07.11.11.13.2.16.08.03.23.14.21.22-.02.08-.19.04-.27-.08-.09-.12-.25-.23-.27-.29s-.08-.23-.14-.33-.13-.16-.21-.21c-.08-.04-.2-.15-.21-.22,0-.08-.07-.08-.08-.22,0-.14.08-.26.08-.26h0Z"/><path class="cls-3" d="M15.18,9.93s.16.26.23.3c.08.04.32.05.38.18.08.13.17.31.29.38s.47.15.49.21.18.13.21.25-.14.12-.21,0-.21-.34-.31-.31-.29,0-.37-.08-.17-.18-.23-.28c-.05-.1-.13-.14-.19-.18s-.17-.11-.24-.18c-.08-.07-.16-.24-.08-.3h.02Z"/><path class="cls-3" d="M21.23,6.03s-.02-.2-.16-.23-.23-.11-.23-.15,0-.18-.07-.23-.16-.21-.22-.26c-.06-.06-.04-.19,0-.16s.13.18.18.22.28.32.27.36,0-.04,0,.03c0,.07-.04.07.03.09s.2,0,.23.08.07.25.07.26.07.16.11.22.19.08.11.12-.29-.34-.29-.34h-.02Z"/><path class="cls-3" d="M22.86,5.21s-.02-.2-.16-.23c-.14-.04-.23-.11-.23-.15s0-.18-.07-.23-.16-.21-.22-.26-.04-.19,0-.16.13.18.18.22c.05.04.28.32.27.36,0,.03,0-.04,0,.03,0,.07-.04.07.03.09s.2,0,.23.08c.03.08.07.25.07.26s.07.16.11.22.19.08.11.12-.29-.34-.29-.34h-.02Z"/><path class="cls-3" d="M21.6,7.16s-.02-.2-.16-.23-.23-.11-.23-.15,0-.18-.07-.23-.16-.21-.22-.26c-.06-.06-.04-.19,0-.16s.13.18.18.22.28.32.27.36,0-.04,0,.03-.04.07.03.09.2,0,.23.08c.03.07.07.25.07.26s.07.16.11.22c.06.06.19.08.11.12-.08.04-.29-.34-.29-.34h-.02Z"/><path class="cls-3" d="M20.84,7.81s.05-.19-.07-.27c-.12-.08-.18-.19-.17-.23s.06-.17.02-.23c-.04-.07-.08-.25-.11-.32-.03-.07.03-.19.06-.15s.06.22.08.26c.03.05.15.4.13.43s0-.04-.02.02c-.03.06-.06.05,0,.09.05.05.18.08.18.15s-.04.26-.03.27,0,.18.03.24.14.14.06.15-.15-.42-.15-.42h0Z"/><path class="cls-3" d="M19.9,6.18s-.12-.33-.33-.38c-.21-.04-.27-.1-.38-.16s-.24-.22-.3-.22-.19-.05-.11.06.05.08.15.16c.1.08.38.23.39.24s.28-.06.32.04.03.17.08.23.16.03.16.03h0Z"/><path class="cls-3" d="M21.07,4.76s-.12-.33-.33-.38c-.21-.04-.27-.1-.38-.16s-.24-.22-.3-.22-.19-.05-.11.06.05.08.15.16c.1.08.38.23.39.24s.28-.06.32.04.03.17.08.23.16.03.16.03h0Z"/><path class="cls-3" d="M19.6,4.76s-.12-.33-.33-.38c-.21-.04-.27-.1-.38-.16-.1-.06-.24-.22-.3-.22s-.19-.05-.11.06c.08.09.05.08.15.16.1.08.38.23.39.24s.28-.06.32.04.03.17.08.23c.06.06.16.03.16.03h0Z"/><path class="cls-3" d="M19.08,6.65s.14.08.19.11c.08.06.09.11.12.2.05.12.08.44.1.51.03.07.08.54.1.66s.05.46.05.52.05.29.06.15.03-.42,0-.53-.13-.69-.11-.73-.06-.47-.08-.55c0-.04-.04-.14-.14-.23-.14-.11-.37-.18-.29-.09h0Z"/><path class="cls-3" d="M18.95,7.4s-.17-.19-.19-.08c-.02.11.07.09.09.26s.19,1.15.09,1.34-.21.31-.25.42.03.26,0,.35c-.03.08,0,.22,0,.27.02.06.16.1.16.16,0,.07.05-.15,0-.19s-.13-.14-.11-.28c.02-.13.07-.27.11-.38.04-.11.13-.35.15-.4.02-.06-.08-1.47-.08-1.47h0Z"/><path class="cls-3" d="M21.13,3.98s-.24-.08-.21.03c.04.1.1.05.22.18.1.13.73.9.75,1.12s-.03.38,0,.5.16.22.17.3.1.19.15.23.19,0,.22.07-.04-.15-.08-.17c-.05,0-.19-.06-.23-.19s-.08-.27-.09-.39-.06-.37-.07-.43c0-.07-.8-1.25-.8-1.25l-.02.02Z"/><path class="cls-3" d="M19.27,10.24s-.11-.08-.11.08.04.28.06.38c.02.09.11.6.06.71-.06.11-.13.21-.18.24-.04.04-.18.07-.18.12s.08.23.04.29-.12.12-.1.17.17-.08.18-.14c0-.07-.02-.16.04-.24s.17-.23.22-.31.09-.4.09-.53-.13-.43-.13-.5.02-.27.02-.27h0Z"/><path class="cls-3" d="M18.61,11.33s-.09-.24-.17-.29-.09-.23-.11-.24-.03-.38-.08-.32-.05.51-.03.55c0,.04.14.19.19.24s.13.27.15.4c.02.13,0,.42.05.38.04-.04.09-.16.08-.23-.02-.07-.08-.51-.08-.51Z"/><path class="cls-3" d="M19.69,11.74s.14-.23.16-.29.04-.5,0-.57c-.04-.08-.08-.33-.08-.36s.06-.12.09-.16.13-.24.13-.27.08-.23,0-.23-.12.33-.14.35-.17.2-.17.25.02.4.05.49.07.36.05.42-.34.43-.1.37h0Z"/><path class="cls-3" d="M20.38,10.95s.23-.43.23-.55-.08-.33-.12-.37-.03-.33-.04-.38c0-.05,0-.21.04-.23.03-.03.15-.18.15-.22s.05-.16.08-.12.07.2,0,.25c-.07.06-.19.27-.19.32s.07.46.08.47.08.29.08.38c0,.08-.19.36-.19.36,0,0-.14.2-.13.08h0Z"/><path class="cls-3" d="M20.46,8.71s-.04-.17-.1-.23-.08-.2-.08-.2c0,0-.07-.2,0-.18s.11.21.12.23.11.14.11.19c0,.04-.05.19-.05.19h0Z"/><path class="cls-3" d="M21.13,9.09s0,.29-.07.34c-.06.06-.05.48-.04.57s0,.17.05.23.05.54.03.58-.03.14-.08.19c-.05.05-.1.12-.12.23-.03.11-.07.44-.07.47s.02.25,0,.33-.14.33-.2.38.09,0,.14-.05.16-.3.16-.36v-.48c0-.11.04-.36.1-.44.07-.08.17-.43.17-.67s-.16-.4-.1-.65c.06-.24.09-.68.03-.7v.03Z"/><path class="cls-3" d="M21.88,9.23s.13-.17.05-.26-.08-.23-.11-.25-.05-.21,0-.22.11-.19.1-.23c0-.04,0-.2.05-.15.06.05.04.23,0,.29-.04.07-.09.23-.07.26s.13.33.14.38c0,.05-.04.23-.06.27s-.07.13-.09.19-.05.15-.09.18-.09.06-.1.03.18-.22.18-.34c0-.1.02-.15.02-.15h0Z"/><path class="cls-3" d="M23.96,9.55s.13-.17.05-.26-.08-.23-.11-.25-.05-.21,0-.22.11-.19.1-.23c0-.04,0-.2.05-.15s.04.23,0,.29-.09.23-.07.26.13.33.14.38c0,.05-.04.23-.06.27s-.07.13-.09.19c-.04.06-.05.15-.09.18s-.09.06-.1.03.18-.22.18-.34c0-.1.02-.15.02-.15h0Z"/><path class="cls-3" d="M21.76,10.3s0-.37-.05-.25c-.04.1-.04.3-.04.42s-.11.34-.14.38-.12.12-.13.2,0,.55,0,.59-.1.3-.13.37-.09.2-.13.24c-.03.05-.2.18-.16.19s-.08.11.08,0,.28-.24.31-.37.14-.41.14-.44-.16-.38,0-.54c.14-.16.21-.31.22-.37s.06-.43.06-.43h0Z"/><path class="cls-3" d="M21.98,11.8s.13-.19.21-.23.25-.13.3-.34c.04-.21.05-.28.05-.36s-.02-.33-.07-.36c-.04-.03-.16-.08-.18-.16s-.08-.23-.07-.37c0-.13.09-.4.1-.3s0,.52.04.56.21.18.23.26c.02.08,0,.5,0,.55s-.08.38-.11.43-.19.16-.26.21-.23.27-.23.31-.03-.02,0-.21h0Z"/><path class="cls-3" d="M22.96,10.98s-.12-.41,0-.44.23-.2.23-.23-.03-.26,0-.32.08-.39.08-.43c0-.04-.04-.34,0-.33s.06.44.05.55,0,.43,0,.53c0,.09-.04.3-.1.3s-.07-.02-.1.05c-.04.08-.12.45-.15.34h0Z"/><path class="cls-3" d="M22.63,8.22s-.28-.21-.34-.23-.07-.11-.1-.15c-.05-.03-.17-.07-.16-.03s.13.09.16.16.06.22.14.23.21.08.24.09.14.08.16.13c.03.06.11.14.14.15s.06.08.08.02-.07-.15-.09-.17-.23-.21-.23-.21Z"/><path class="cls-3" d="M22.86,7.84s-.06-.25-.19-.31-.17-.19-.19-.22-.13-.26,0-.2.05-.02.11.2.21.22.26.28,0,.24,0,.24Z"/><path class="cls-3" d="M26.15,8.8s-.06-.25-.19-.31-.17-.19-.19-.22-.13-.26,0-.2.05-.02.11.2.21.22.26.28,0,.24,0,.24Z"/><path class="cls-3" d="M17.99,4.65s-.1-.16-.21-.11-.45-.23-.5-.17.38.28.38.28c0,0,.11-.08.23.02.11.1.28.54.33.46.06-.08-.06-.22-.06-.22l-.17-.26h0Z"/><path class="cls-3" d="M18.33,6.63c.08.07,0-.28-.15-.38-.32-.21-.5-.54-.56-.49s.27.38.27.38l.28.18s.08.24.16.31h0Z"/><path class="cls-3" d="M12.71,8.04s-.06-.23-.14-.14c-.08.08-.5-.08-.53-.02-.03.07.44.16.44.16h.23Z"/><path class="cls-3" d="M10.79,10.41s-.06-.23-.14-.14c-.08.08-.5-.08-.53-.02-.03.07.44.16.44.16h.23Z"/><path class="cls-3" d="M11.69,12.11s-.06-.23-.14-.14c-.08.08-.5-.08-.53-.02-.03.07.44.16.44.16h.23Z"/><path class="cls-5" d="M3.12,20.97s0,.08.42.15c.42.08.42,0,.42,0-.19-.34.05-.69,0-.69s-.26-.02-.26-.02c0,0-.26.45-.43.5-.16.06-.15.06-.15.06h0Z"/><path class="cls-4" d="M3.12,20.97s.38.08.43.03-.16-.1-.08-.21.17-.14.22-.16.17-.2.23-.21.05.1.06,0,.02-.38-.14-.33c-.16.05-.16.39-.33.57s0,0-.21.15c-.07.05-.16.15-.16.15h0Z"/><path class="cls-7" d="M16.26,21.92c.12.27-.36,2.69-.41,2.41s-.05-1.04-.12-1.53-.21-.6-.21-.88.54-.49.74,0Z"/><path class="cls-7" d="M26.97,19.55c.38.73.4,1.76.4,1.76,0,.69-.57-.88-.92-1.63s-.28-.39-.14-.41.51,0,.66.28h0Z"/><path class="cls-7" d="M15.53,27.74s.46-.49.36-.49-.44.31-.44.31l-.15.27.23-.09h0Z"/><path class="cls-7" d="M21.63,26.92s.16-.49.3-.65-.02-.22-.08-.13-.38.7-.38.7l.17.07h0Z"/><path class="cls-7" d="M26.49,28.22s.64-.48.64-.37-.46.45-.46.45l-.18-.08h0Z"/><path class="cls-7" d="M12.18,26.05s.43-.53.41-.39-.19.44-.19.44l-.23-.05Z"/><path class="cls-6" d="M25.93,7.33s.16-.11.24-.05.12.13.2.22.32.1.36.12c.15.08.14.18.2.28.07.12.09.17.09.17,0,0-.07.14,0,.14s.18.13.18.13c0,0,.05.18,0,.2s.03.18.05.26.03.2.09.27.06.28.12.34-.05.25-.05.25c0,0,.06.14.06.23s-.06.13-.06.13c0,0,.11.19,0,.25s-.15.22-.21.28-.17-.04-.17-.04l-.35-1.71-.5-.97-.25-.51Z"/><path class="cls-3" d="M26.5,8.07s-.05.17.07.23.17.12.16.17-.12.25-.04.23.12.01.11.06.07.21.07.21c0,0,.04.1.07.14s.03.04.04.11.07-.02.07-.06-.07-.14-.08-.19,0-.16-.03-.17-.04-.13-.07-.14-.13.05-.09-.04.07-.17.05-.19-.09-.09-.11-.13-.07-.11-.07-.14-.13-.1-.13-.1Z"/></svg>