<?xml version="1.0" encoding="UTF-8"?>
<svg id="Livello_1" data-name="Livello 1" xmlns="http://www.w3.org/2000/svg" version="1.1" viewBox="0 0 306 267.9">
  <defs>
    <style>
      .cls-1 {
        fill: #ccbcb0;
      }

      .cls-1, .cls-2, .cls-3, .cls-4, .cls-5, .cls-6, .cls-7, .cls-8, .cls-9, .cls-10, .cls-11, .cls-12 {
        stroke-width: 0px;
      }

      .cls-2 {
        fill: #d7cabc;
      }

      .cls-3 {
        fill: #3c3c3b;
      }

      .cls-4 {
        fill: #f7d6cd;
      }

      .cls-5 {
        fill: #f8f2e6;
      }

      .cls-6 {
        fill: #e5d8c8;
      }

      .cls-7 {
        fill: #fb6767;
      }

      .cls-13 {
        fill: none;
        stroke: #fff;
        stroke-linecap: round;
        stroke-linejoin: round;
        stroke-width: 5.3px;
      }

      .cls-8 {
        fill: #261b1c;
      }

      .cls-9 {
        fill: #efe8da;
      }

      .cls-10 {
        fill: #c1b6ab;
      }

      .cls-11 {
        fill: #e2ddba;
      }

      .cls-12 {
        fill: #e3d3c0;
      }
    </style>
  </defs>
  <g>
    <path class="cls-13" d="M101.3,193.4c-12.1-10.5-4.1-25.7-4.1-25.7.9-1.4.2-2.6-.3-2.6-2.3-.3-2.7,1.5-3.7,3.6,0,0-7.1,16.6,6.5,28.3.6.5,2.4,1.6,3.3.8,2-1.8-1.6-4.3-1.6-4.3Z"/>
    <path class="cls-13" d="M96.1,201.4c-13.3-9-10.2-24.3-10-25.6.3-1.9.1-2.8-1.4-3.1-1.3-.3-2.2,2-2.6,3.6,0,0-4.2,19.3,11.7,28,1.5,1.2,3,.8,3.6,0,.8-1.3-1.2-2.9-1.2-2.9Z"/>
    <path class="cls-13" d="M198,177.4c-15.6-3.9-15.4-21-15.4-21,.2-1.7-1-2.4-1.5-2.2-2.2.8-1.7,2.6-1.7,4.9,0,0,1.2,18,18.6,22.2.7.1,2.9.3,3.3-.8,1-2.5-3.4-3.1-3.4-3.1Z"/>
    <path class="cls-13" d="M197,186.8c-15.9-2-20.1-17-20.5-18.2-.6-1.8-1.2-2.6-2.7-2.2-1.3.4-1.1,2.8-.6,4.4,0,0,5,19.2,23.1,19.7,1.9.3,3.1-.7,3.1-1.7.1-1.6-2.4-2.1-2.4-2.1Z"/>
    <path class="cls-13" d="M281.5,138.2c-.7-.4-2.6-1.2-3.4-.3-1.7,2.1,2.2,4,2.2,4,13.6,8.5,8.1,24.8,8.1,24.8-.7,1.5.2,2.6.8,2.6,2.3,0,2.4-1.9,3.1-4.2,0,0,4.4-17.5-10.9-26.9Z"/>
    <path class="cls-13" d="M286,130c-1.7-.9-3.1-.3-3.5.6-.6,1.5,1.7,2.7,1.7,2.7,14.5,6.8,13.9,22.3,13.9,23.7,0,1.9.3,2.8,1.9,2.9,1.3,0,1.9-2.3,2-4,0,0,1.1-19.8-15.9-25.9Z"/>
  </g>
  <path class="cls-7" d="M96.4,164.6c.6,0,1.3,1.3.3,2.6,0,0-8,15.2,4.1,25.7,0,0,3.6,2.5,1.6,4.3s-2.7-.3-3.3-.8c-13.6-11.7-6.5-28.3-6.5-28.3,1-2.1,1.5-3.9,3.7-3.6Z"/>
  <path class="cls-7" d="M84.3,172.3c1.5.3,1.7,1.2,1.4,3.1s-3.2,16.5,10,25.6c0,0,2.1,1.6,1.2,2.9s-2.1,1.2-3.6,0c-15.9-8.7-11.7-28-11.7-28,.3-1.7,1.3-3.9,2.6-3.6Z"/>
  <path class="cls-7" d="M180.6,153.7c.5-.2,1.7.5,1.5,2.2,0,0-.2,17.2,15.4,21,0,0,4.3.6,3.4,3.1s-2.6,1-3.3.8c-17.4-4.2-18.6-22.2-18.6-22.2,0-2.3-.5-4.2,1.7-4.9Z"/>
  <path class="cls-7" d="M173.3,166c1.5-.4,2,.3,2.7,2.2s4.6,16.2,20.5,18.2c0,0,2.6.5,2.4,2.1s-1.3,2-3.1,1.7c-18.1-.5-23.1-19.7-23.1-19.7-.4-1.6-.6-4.1.6-4.4Z"/>
  <path class="cls-7" d="M288.8,168.8c-.6,0-1.5-1-.8-2.6,0,0,5.5-16.3-8.1-24.8,0,0-4-1.9-2.2-4s2.7-.1,3.4.3c15.3,9.4,10.9,26.9,10.9,26.9-.7,2.2-.8,4.1-3.1,4.2Z"/>
  <path class="cls-7" d="M299.5,159.4c-1.5,0-1.8-.9-1.9-2.9s.6-16.8-13.9-23.7c0,0-2.3-1.2-1.7-2.7s1.8-1.5,3.5-.6c17.1,6.1,15.9,25.9,15.9,25.9,0,1.7-.6,4.1-2,4Z"/>
  <g>
    <path class="cls-9" d="M104.4,116.4c8.7,19.9,6.3,16.3,8.2,31,2.2,17.4-4.9,30.5-4.1,35.9.8,5.4-2,18.5.2,29.4,2.2,10.9,0,10.3,0,10.3l-10.8,16.3s-3.5,3,0,4.1c3.5,1.1,7.9-4.4,9-2.7s-.8,4.4,2.7,4.4,9-2.7,12.5-3.8c3.5-1.1,5.7-6.8,5.2-10.1s0-5.4,1.9-6.5,3.3-2.7,2.7-4.4-8.4-31.8-6.8-37.3c1.6-5.4,13.3-29.1,13.3-29.1l1.6-45.2h-19.9l-15.8,7.6Z"/>
    <path class="cls-2" d="M107.1,125.1s-1.1,2.8.7,3.3,1.6,3.7,2.2,3.5.5.8,1.6,1.1-.3,1,.5,1.4,4.8.3,6.1,0,2,1.7,3.6.8,2-.3,2.7,0,3.5.5,4,.5c3.1-.2,4.2-1.9,5.5-.8,2.5,2.2,2.1.6,2.1.6,0,0,1.6,4.6,1.6,3.7s-3.7-17.3-3.7-17.3l-7.1-.9-7.7-3-9.2,4.6-2.9,2.3Z"/>
    <path class="cls-9" d="M236,172.2c-.5-4.9-16.5-36.4-16.5-36.4l5.5-30.5h-50.1s1.1,27.8,13.1,46.3c12,18.5,25.6,17.4,28.3,24.5,2.7,7.1-.5,13.6,0,19.1.5,4.9-2.1,22.4-6.9,33-.6,1.2-2.5,3.1-3.6,3.8,0,0,0-.1,0-.1,0,0-.1.2-.2.3-.4.4-.9,1-1.4,1.9-2.8,3.8-5.2,8.4-6.1,13.7,0,0,.5,2.2,7,2,0,0-4.8,3.4,4.4,2.6,9.2-.8,16.4-7.4,16.4-7.4,0,0,.8-9.1,2.2-13.3,1.8-6.1,3.4-16.4,4.4-18.9,2.7-6.5,3.9-35.4,3.4-40.3Z"/>
    <path class="cls-6" d="M165.6,120.3s6,4.6,7.6,3.2,33.3,1.5,39,11.7c3.4,6.2,15.8,12,19.4,16.8,1.3,1.7,1.7-4.9,1.7-4.9l-9.3-31.4-12.5-12.4-36.7-2.5-9.3,19.4Z"/>
    <path class="cls-5" d="M289.2,214.7c-.5-16.3-12.5-57.7-16.9-63.7-4.4-6-15.2-12-15.8-19.1s0-2,.1-3.1c.2-1,.5-1.8,1.1-2,.8-.4,2.9-2.4,3.1-3.5.3-1.1-2.3-2.4-2.2-3,0,0,0,0,0,0,.2-.6,2.7-2.3,3.1-4.7.4-2.3-.8-2.5-.6-2.8h0c.1-.3,1.9-2.1,2.1-3.2.3-1.1-.6-1.6-.1-2.2.5-.5-.1-1.1.4-2.2.5-1.1-.3-1.8-.3-2.3,0-.5.7-1.6.5-2.5-.2-.9-.4-2-.3-2.9,0-1,.5-1.6,1-3.1s-1-3.7-1-4.1c0-.3.7-1,.6-1.8-.1-.8-.7-1.7-.7-2.1,0-.4.4-1,.7-1.6.2-.5-.4-1-.8-1.8,0,0,0-.2,0-.3,0-.2,0-.5,0-.7.1-1.1.7-2.4.9-3,.3-.7-1.4-3.5-1.5-4.2,0-.7.5-1.6.5-2.6s-.6-2-1-3.1-.2-3.1,0-3.3c.1-.3,0-1.4,0-2.4s-.3-1.9-1.3-2.7c-1-.8.3-1.1.1-2.3-.1-1.2-1.3-1.4-1.4-1.6,0-.2-1.2-.8-.5-1.3.6-.5,0-.8-.3-1-.3-.1-.6-1.3-.3-1.8.3-.6-.2-.5-.7-1.5s-1.5-2.1-1.7-2.4c-.2-.3-.2-2.3-.4-3.1-.2-.8-2.4-.7-2.5-1.2,0-.5.1-1.2,0-1.9s-2.1-1.5-2.2-1.7c-.1-.2-1.1-1.8-.9-2.6.1-.8-.4-1-1.2-1.6-.8-.6-1.2-1.2-1.2-2,0-.8.4-1.3-.3-3.2-.7-1.9-2.4-.9-2.7-1.4s0-.5-1.3-1.5c-1.3-1-1.1-.7-1.4-1.1-.3-.3,0-1.2-.3-1.5-.2-.3-1.2-.3-1.1-.7,0-.4-.4-.9-.5-1.4-.2-.5-.5-.3-.7-.4-.2,0-1-.3-1-.8,0-.5-.1-.9-.6-1.7-.5-.8-.9.5-1.2.2-.4-.4-.5-.5-.7-1.4s-1.5-.7-1.9-1.1c-.3-.3,0-1-.4-1.4-.3-.5-1.7-.4-1.9-.6-.2-.2-.2-.2-.5-1.4-.3-1.2-2.6-1.5-3-1.5s-.4-1.3-1-1.8c-.6-.5-1.3.2-1.7,0-.4-.2-.8-1.5-1.7-2-.8-.5-1.1.4-1.2.3-.2,0-.6-.3-.9-.9-.3-.6-1.8-.5-2.1-.6-.3-.2,0-.3,0-.8,0-.5-1.5-.5-2.5-.5s-1.7-.8-2.4-1.4c-.6-.6-1.5.1-2,0-.4-.2,0-.6-.7-.8-.6-.2-1.5,0-1.8,0-.3,0-.4-1.1-2-1.2-1.5-.2-.4.6-.9.4-.4-.1-.6-.4-.8-.6-.3-.2-1,.2-1.2-.2-.2-.4.1-.4-.3-.8-.4-.4-1.7.4-2.5.5,0,0,0,0,0,0-.1,0-.3,0-.4,0-.2-.2-.1-.5-.2-.6-.1-.2-1.2,0-1.5,0s-.9-.7-1.5-1c-.6-.3-2.8.6-2.8.6,0,0-1.2-.9-1.8-.6-.6.3-1.4.2-1.6,0-.3-.2-1-.4-1.6-.6-.6-.2-1.3.6-1.8.6-.5,0,0,0-1.5-1.1s-2.8-.3-4,.5c-1.2.8-5.7.9-8,.6-2.3-.3-.4.7-1.5,1.3-1.2.6-1.6.3-2.1-.2s-1.5-.5-2.8,0c-1.3.5,1.2,1.5.5,1.7s-1.9.6-2.2.5c-.3-.2-1.7,0-2.6.5s-.7.9-2.4,2.3c-1.6,1.4-1.6.5-4.3.6-2.6,0-.8.8-2.2,1.7-1.4.9-.7.4-2.1.1-1.4-.3-1,0-1.5,0s-1.2.5-2.2,1.5c-1,1-1.6.4-2.6,0-1-.3-.8,0-1.6.5-.8.5-2.2.4-2.8,0-.6-.4-1.1-.5-1.9-.5s-.5,1.7-1.6,1.8-1.2-.9-2.2-.5c-1,.4-3.5,1.5-4.4,1-1-.5-1.5-.3-3.2.5s-.8.8-3.4,1.9c-2.5,1.1-2.4,1.2-3.4,1.7-1,.5-.9,2.4-1.3,2.7s-2.4-.1-3.5,2c-1.1,2.1-.5,2.3-2.1,2.7s-1.5.3-2.2.9c-.6.6.9.9.6,2.1-.3,1.2-.8-.5-1.9,0-1.1.5.5,2.1,0,2.7s-1.1,0-.9-.7c.2-.6-1.1-.7-1.1-.7,0,0-.3,2.4-.4,3.6-.4,0-1.2.2-2.7.7-3.8,1.4-.4,4.2-1.7,5.9-1.2,1.7-1.8,2.5-4.1,2.8-2.3.4-.7,3.9-1.8,5.3-1,1.4-2.6,1-4,1.5-1.4.5-.8,5.3-2.4,6.3s0,1.5-4.1,1.6c-4,.1.3,2.4,1,4.2-.6.8-1,1.5-1.4,2-1,.3-2.4.4-4,.3-3.6-.3,1.2,2.8,0,3.8,0,0-.1,0-.2.1,0,0-.2.1-.2.2,0,0,0,0-.1,0-1.2.9-2.9,1.7-4.8.4-2.3-1.5-1.6,3.9-1.6,3.9,0,0,0,0,0,0,0,0,0,0-1,0-1,0-1.3,1.4-1.7,1.6,0,0,0,0,0,0-.4.2-2.1.4-3.1.5-1,0-.6,1.5-1.4,1.9,0,0,0,0,0,0-.8.4-1.9-.1-1.9-.1,0,0-2.2,0-2.9,1.8-.2.4-.4.6-.7.8-.2.1-.5.2-.7.3-.8.2-1.6,0-1.9,0-.5,0-.7-.4-1.5,0-.7.5-2.3.9-2.9,1.3-.6.4-1.9-.5-2.5-.5-.6,0-.5,1.5-1.3,1.6-.8,0-1.3.1-1.6-.6-.4-.7-2.4,1-3.4.5s-1.9,0-2.6.4-1.1.7-1.2.7c-.1,0-.7-1.1-2.5-1.2-1.8,0-1.6,1.1-2.5,1.3-.8.2-.4-.7-1.6-.5s-1.9,1.6-2.9,1.8c-1,.2-.9-1.5-2-1.6-1.1,0-.5,1.2-1.1,2.2,0,0,0,0,0,0-.5,0-.9.2-1.4.2-.9-.2-1.9-.6-2.5-.7-.9,0-1.5.5-1.6,1s-4,.8-4.4.8c-.5,0-1.4,1.3-2.2.6-.7-.7,0,0-.5-.6-.5-.6-1.7,2.5-2.4,2.9s-2.3.5-3.1.8c-.7.3-1,2.5-1,2.5,0,0-1.2,1.2-2.2,1.4-1.1.2-1.2,2.5-1.5,2.8s-1.4.5-1.9,1.1c-.5.6-.2,1.8-.4,2.2s-1.4.4-2,.8c-.6.5.7,1.3.4,1.7-.2.4-.4.7-1.6,1.1-1.2.4-1,3.6-1,3.6,0,0-.8,2.7-2.3,3.2s.5,4.9,0,5.6,0,4.9,0,4.9c0,0,0,1.8-1.3,1.8-1.3,0,1.3,4.4,1.3,4.4,0,0,.4,1.8-1,3.3-1.4,1.5,2.3,3.8,2.4,4.6.2.8-1.2,2.4-1.4,3s3.1,3.2,3.1,3.2c1.4,4.6-1.9,22-2.4,35.1-.3,6.4,1.7,8.6,4.5,9.9s6.7,2,8.6,2c3.8,0,10.4-6.3,10.9-7.9s12.5-4.6,19.6-7.3c6.4-2.5,15.5-15.7,22-27.5,0,0,0,0,0,0,.5-.9,2.2-.8,3.5-2.2,1.3-1.3-.2-3.5,0-3.9,0-.1.2-.2.3-.3.3-.3.8-.5,2.2-.5,1.9,0,1.8-2.2,3-3.6,1.2-1.4,1.4.2,2.7,0,1.4-.2,1.8-1.5,3.5-2.2,1.8-.7,1.5.1,3,0,1.5-.1.8-1.4,2.7-2,1.9-.7,2.6.5,4.6.9,2,.4,2.3-2.3,4.1-2.5,1.8-.3,3.1-2.3,4.2-2.7s4.8-.3,5.8.4,3.9-1.5,4.5-2.6,2.1-1.1,3.8-.7c1.8.4,3-.9,3.8-1.6.5,0,1.5,1.6,2.1,1.6,3.1-1.4,1.6,1.8,4,.7,2.2-1,0-1.9,3.7-1s2,1.9,2.5,2.6c2.3,3.7,1.6,7.9,3.2,14.5,1.5,6.4,6.8,24.5,1.3,34.5s1.1,18.9,1.1,18.9c4,8.3,6.6,32.2,5.8,44-.2,3-4.7,8.3-4.7,8.3-3.3,4.2-6.6,7-7.6,11.1-1.6,6.6,9.1,1.4,9.1,1.4,0,0-.1,3.5,1.6,4.2,4.2,1.7,17-3,18.7-5.4,2-2.8,2.7-10.4,1.1-11.8,0,0,4.3-8.8,4.2-11.2-1-18.7-9.8-35.4-10.4-41.4-.5-6,6.6-28.7,6.6-34.7s5.2-24.6,8.4-36.9c.3-.2.6-.4.7-.5.7-.4.5-1.4.4-2.4s.3-.8.8-1.6c.5-.7.2-3.3.4-4,0,0,.2-.9.4-.8.2.4.2,1.5.3,1.8.3.5,0,1.2,1.1,1.1,1.2,0,1.4-.2,2.1,0,.7.2.7.9,1.7,1.3.3.1,3-.7,3.5-.5,1.1.5-.9,2.5,1.7,2s1.5-1.1,2.4-.9.9,1,1.1,1.4c.9,1.6.7,1.3,2,1,1.3-.3,1.5-2.6,2.3-2,.8.6,1.8,2.8,3.7,1.4.5-.3,3.8,1.6,3.2-1.3.2,0,1.7,1.7,2.7.8,1.1.1,1.1-.8,1.6,0,1.4,2.1,2.6,1.5,3.6,1.2,1-.3,1.9.2,2.6,1,.7.7,0-1.8,1-1s1.5-.9,2.5,1c1,2,2.3-1.1,1.7-.5s1.1,3.1.5,3.7c-.5.5-.4,1.4-.1,2.2,0,.3.4.4.8.4.5,5.4,2.5,10.7,6.5,15.5,5.4,6.5,12.3,15.5,18.5,18.5,16.5,7.9,17.3,18,22.7,33.2,2.3,6.6,4,12.2,6,23.4s2,17.4-.2,21.8c-1.2,2.4-6.3,7.4-9.8,11.7-.2-.2-.4-.3-.4-.3-4.7,3.9-8.9,7.5-9.2,9.3-.8,4,1.6,4.8,1.6,4.8l8,.2s-3.2,2.6-1.2,2.8c2,.2,20.7,2,22.5-1,1.7-2.9,3.2-7.6,3.3-10.4,2.2-2.1,3.8-4.8,4.9-8.9,2.6-9.7,1.4-15.8.8-32.1Z"/>
    <path class="cls-6" d="M169.3,124.9s.8,0,1.9-.8.4-1,2.2,1.2,1.4,1.4,3,1.3,2.2-2.6,3.4-1.8,2.2,1.7,4.1,1.9,2.6-.2,4.3-.1,2.6-2,3.6.2c.9,2.2,1.9,2.8,3,2.2s2.6.2,3.2.2,1.3,1.1,2.4.9,3.4.6,3.9,1.1,1.6,1.2,3.1.7,1.8,1.3,3.1.9,2.4-.9,2.2-1.7-3-7.3-3-7.3l-18.7-4.5-14.8-1.3h-4.8c0,0-1.7,5-2.1,6.7Z"/>
    <path class="cls-2" d="M13.2,143.4s2.6-.8,3.4-1.5l.8-.7s1.3-.6,1.9.3c.5.9,3.2.7,3.7.6s-.3.4.8-.3,1.5-1.3,2.1-1.1,1.3.2,1.3.2v.4c-.1,0,.9.4,6.9-.1.5,0,5.4-4.5,5-3.8-1.1,2.2-3.4,3.8-4.7,5.7-1.9,2.7-1.7,5.4-1.8,9.8,0,2.3-6.5-1.6-10-4.9-2-1.9-6.8-2.2-6.9-2.3-.3-.2-.6,0-.9-.7s-1.6-1.6-1.6-1.6Z"/>
    <path class="cls-10" d="M46.3,142s4.7,4.2,5.7,7.9c.4,1.6.2,3,1.1,7s-1.4,1.6-1.5,2.2c-.3,2.8-.5,5,.3,4.7,1.8-.7,7.2-8.8,8.5-10.1,1.3-1.3,2.7-7.9,1.9-9.3s-3,.6-4.5.2-2.5-2-2.9-1.5c-.7.9-1.1,2.2-2.8,1.1s-5.9-2.2-5.9-2.2Z"/>
    <path class="cls-6" d="M44.5,115.6s-1.8-3.3-2.1-7.7.7-1.3,1-2.7,0-3.9,0-4.3c.3-1.7-.3-2.7,1.1-3.8,2.9-2.3,5.8-2.8,7.7-4.2,2.1-1.6,3.1-3.7,4.8,0,1,2.2,3-1.2,7.3-3.1s2.9,2.4,5.9,1.1,1.1-5.5,4.1-7.3,3.5,2.1,5.5,1.6,1.4-2.2,3-3.1,5.8-1.3,6.1-1.1c1.3,1.2-1.6,8.8.9,6.5s-4.4,7-2.6,8.1,1.4,2.7,1.3,3.4c-.3,2.1-1.1,4.9.8,5.3s4.1-.8,5.2,0,1.7,1.2,4.1,1.9,1.6-1.3,3.3-1.1.7,3.4,1.4,3.5c1.7.3,1.8,2.4,3.6,2.5s.9,5.2-1,1.8c-2.7-4.9,6.7,9.6-1.2,3.4-2.4-1.9-3.1-2.5-4.5-6.2-1.1-2.9-4.8-1.4-6.7-.9s-6.5-1.9-8.7-.6c-1.6,1-4.3,5-4.3,4.7,0-1.2,0,0-2.4.9-2.9,1.1-2.7,5.8-3.7,4.9-5.7-5.2-13.5,1.8-13.5,1.8l-16-5.4Z"/>
    <path class="cls-1" d="M60.5,121.1s3.1-1.9,4.8-2.8,4.6-1.7,5.5-2.4,1.2-2.6,2.6-2.7,2.8-.4,2.3.6-3.9,3.5-4.5,4.5-1.4,2.6-3,2.8-1.2,1.3-2.8,1.7-4.4-1.4-7.1-.2-10.3-.4-10.3-.4l12.6-1.2Z"/>
    <path class="cls-2" d="M42.6,109.3s2.3,3.6,1.2,4.6-.6,3.7-.5,3.9.8,1.9.8,3.3-.6,1.9.4,2.6,1.1-.9,1.8-.3,2.3,0,2.3-.2c.2-1.1,4.2-.8,4.5-1.7s-5.2-1.1-5.8-4.3-1-3.7-1.1-4.1-3.7-3.7-3.7-3.7Z"/>
    <path class="cls-5" d="M46.3,101s2.2-3.3,4.7-3.3,6.1.4,11.4-.9,6.6-1.7,15-6.3c8.4-4.5,9.5-5,8,0-1.5,5-3.7,15.2-8.6,21.2s-9.5,8.3-16.4,9.3-13.4,1.1-14.2,0-4-12.8,0-20.1Z"/>
    <path class="cls-4" d="M56.4,119.3s7.4-4.9,10.3-7.1c5.6-4.3,5-3.6,13-14.5,1.1-1.4,3.3-5.4,2.9-3s-.7,2.2-2.6,7.8-5.3,8.8-7.6,10.6-3.2,2.6-7,4.4c-3.8,1.8-8.9,1.8-8.9,1.8Z"/>
    <polygon class="cls-11" points="29.7 145.9 28.3 144.5 29.2 142.6 34.3 142.4 37.8 139.4 38.5 140.9 36.4 144.9 32 146.8 29.7 145.9"/>
    <path class="cls-3" d="M28.7,151.3s-.7-1.5-.5-2.1c.2-.6.5-3,.5-3,0,0-.1-.5,0-1v-.5c.1,0,1.5,1.1,2.8,1.1,1.3,0,3.7-.6,4.6-1.5.9-.9,1.2-1.5,1.5-2.5.3-1,.2-2.4.2-2.4,0,0,.3-1.8.9-.9.7.9.5,3.7-.2,5.5-.7,1.8-3.1,2.8-4.4,3.2s-2.2,0-2.8.8-1.3,1.6-1.5,2.4c-.2.8-.7,1.4-1.1.9Z"/>
    <path class="cls-8" d="M29.4,143.1s1,1.9,3.3,1.3c1.7-.4,2.9-.6,4-2.6.3-.5,1.9-3.4,1.9-3.4,0,0-4.9,2.4-5.7,2.8s-3.6,1.9-3.6,1.9Z"/>
    <path class="cls-3" d="M27.2,139.9s-1.5,3.8,0,4.5c1.5.8,1.3,1.3,1.5.8.1-.5-1.5-5.3-1.5-5.3Z"/>
    <path class="cls-10" d="M27.5,140.8l1,4.1s.1-1.7.4-1.3.7.7.7.7c0,0-.1-1,.3-.9s1.3.2,1.3.2c0,0-.4-.9,0-.9.4,0,.8.6.8.6,0,0,.3-1.4.9-1,.6.3.9-.3.9-.3,0,0,.4-1.2.7-.9s.6,0,.6,0c0,0,.6-1.4.9-1.2s.9-.3.9-.3l.7-.6.5-.6v-.7c0,0-4.5,2.8-6.2,3.3s-4.3,1.3-4.4-.2Z"/>
    <path class="cls-2" d="M172.8,101.6s-.7,2.3-1.1,2.5c-.5.2-1.4,1.6-1.3,2.4,0,.8.4,2,.1,2.5s-2.6.1-3.1.9c-.5.7-.8,1.9-1.7,2.7-.9.8-3.2,1.7-3.7,2.2s-1.2,2.8-1.5,3.6c-.3.7-.8-.2-2.2,1.1-1.4,1.4-4.9,3-5,3.2s-5.8-2.1-4.8-1c1,1.1,4.5,2.4,6.5,1.4,2.1-1,2.2-1.5,3.6-2,1.4-.5,4.1-1.4,4.1-2.3s.6-3.5,2.8-4.3c2.1-.8,2.6-.7,2.7-1.7,0-1-1.1-2.4.4-2.6,1.5-.1,3.4,0,3.5-.9.1-.9-1-2-.6-2.9.4-.9,1.3-.8,1.6-1.8s.8-3.7-.2-2.9Z"/>
    <path class="cls-2" d="M216.1,90.1s-2.6-1-3.2.5c-.6,1.5-1.3,1.7-1.8,1.8-.6,0-2.4,1-2.5,1.3s2.1-.2,2.6-.4,1.9-.1,2.5-.6c.6-.5.5-1.3.8-1.7.4-.4,3.1.9,2.4,0l-.8-.9Z"/>
    <path class="cls-2" d="M220.6,83.1s1.1-1.5,2.2-2.2,1.7-1.4,2.1-2.1c.3-.6,1.4-2.6,3.8-3.1,2.4-.4,2.5-1,2.7-1.4s.2-2.1,1.4-2.4,3.6-2.4,3.6-1.3-1.9,1.6-2.5,2.2c-.7.6-1,1.2-1.3,2.2-.2,1-2,1.6-2.4,1.9s-2.8.2-3.4,1.4c-.6,1.1-.7,1.7-1.3,2.3-.6.6-1.7.6-2.1,1.2-.4.6-2.4,2.9-2.9,2.8-.5-.2.1-1.4.1-1.4Z"/>
    <path class="cls-2" d="M230.2,82.7s1.2-2.7,2.4-2.9,1.8-.4,2.1-1.1c.3-.6.4-2.9,1.3-3.4.9-.5,2.9-1.4,3.4-1.7s1.8-1.8,1.9-2,.4-5.8.9-5.9.5.3,1.5-1.2c1-1.5,1.9-1.8,1.9-3.2s0-2.9,0-2.9c0,0,1.6,2.5,1.4,3.6-.2,1-1.2,2.8-1.3,3.3s-1.6.4-2.2,1.2c-.6.8-1,2.1-1,4,0,1.9,0,3-1.4,3.8-1.3.9-1.8,1.9-3.1,2.2s-1.9.3-2,1.7c-.1,1.4-.2,2-1,2.4-.8.4-2.1.1-2.5.8s-2.3,1.2-2.3,1.2Z"/>
    <path class="cls-2" d="M256.7,57.4s-.2,1.9.3,2.4c.6.5,1.2,2,1.2,2.4,0,.3-1.3.4-1.5,1s-.3,2.4-.2,3c.2.6,1.1,1.8.3,2.1-.8.4-1.3.5-1.2,1.1.2.6.4,3.5.9,3.7.9.2,1-.4.9-1.1,0-.8-.1-2.2,0-2.4s1.2-1.4,1-1.8-.4-1.1-.6-2.6c-.2-1.5,2-1.7,1.6-2.8-.4-1.1-1.2-2.3-1.5-2.6-.3-.4-1.3-2.2-1.3-2.2Z"/>
    <path class="cls-2" d="M224.8,18.7s2.3-.2,2.8.7c.5.9.4,1.8,1.1,2,.7.2,1.6.3,2.2.6s.8,1.5.8,1.5c.7.6.9.4,1.3.8.4.4.3,1.1.9,1.2s3.1,1,3.5.6c.4-.4-.3-1.6-.9-1.6-.6,0-1.7,0-2.4-.8-.7-.8-.7-1.9-1.2-1.9-.5,0-1.8-.5-2.6-.9-.7-.3-1.2-1-1.7-1.8s-.3-1.8-1.2-1.4c-.9.4-3.1,0-2.7,1Z"/>
    <path class="cls-2" d="M222.6,27.1s2.3-.2,2.8.7c.5.9.4,1.8,1.1,2,.7.2,1.6.3,2.2.6.6.3.8,1.5.8,1.5.7.6.9.4,1.3.8s.3,1.1.9,1.2c.6,0,3.1,1,3.5.6.4-.4-.3-1.6-.9-1.6-.6,0-1.7,0-2.4-.8-.7-.8-.7-1.9-1.2-1.9-.5,0-1.8-.5-2.6-.9-.7-.3-1.2-1-1.7-1.8-.5-.8-.3-1.8-1.2-1.4s-3.1,0-2.7,1Z"/>
    <path class="cls-2" d="M242.6,35.4s1.8,7.9,1.3,8.8c-.5.9-1.1,1.3-1.1,2s1,3,.5,3.5-1.1,1.2-1.3,1.4-1.2,0-1,1c.2.9,0,2.3.8,2.2.9,0,.1-2.5,1.2-3,1-.6,1.3-.6,1.6-1.4.2-.8.5-1.3,0-2.3-.4-1,.6-2.9.7-3.6s-.2-2.6-.5-3.5c-.2-.5-.6-3.2-1.2-4.4-.5-1-1-.6-1-.6Z"/>
    <path class="cls-2" d="M227,35.4s1.8,7.9,1.3,8.8c-.5.9-1.1,1.3-1.1,2,0,.7,1,3,.5,3.5s-1.1,1.2-1.3,1.4-1.2,0-1,1c.2.9,0,2.3.8,2.2.9,0,.1-2.5,1.2-3,1-.6,1.3-.6,1.6-1.4.2-.8.5-1.3,0-2.3-.4-1,.6-2.9.7-3.6s-.2-2.6-.5-3.5c-.2-.5-.6-3.2-1.2-4.4-.5-1-1-.6-1-.6Z"/>
    <path class="cls-2" d="M264.2,78.9s-2.2,1.1-2.1,2.3.5,3.6-.3,3.8c-.8.2-4.7.3-4.8,1.9-.1,1.6.9,2.8-.4,3.9-1.4,1.1-2.8-.5-3.3,1.1-.5,1.6-.8,2-1.5,3.8-.8,1.8-.3,2.5-2.3,2.5s-5.1,3.6-4.4,4.3c.7.7,4.5-2.8,5.5-2.9s1.5.2,2.1-1.2c.6-1.3,1.1-5.1,2.3-5.5s1.6.2,2.9-.7.5-2.8,1.3-4.5c.8-1.6,2.8-1.5,3.8-1.7,1-.2.9-.6.7-2.3-.2-1.7.7-4.9.7-4.9Z"/>
    <path class="cls-2" d="M225.1,91.7s-.7-1.2-2.1.3c-1.3,1.5-3.3,2.4-3.5,2.4s-1.2.2-2.2.3c-1.1.2-3.3.5-3.1,1.1.2.6,2.5.5,3.3.3s2.9-.3,3.5-.5,1.1-1.8,2.2-2.3,2.1-.3,2.1-.3l-.2-1.4Z"/>
    <path class="cls-2" d="M187.9,108.8s-3,1.1-3.2.5c-.2-.6.2-1.7-1-1.6s-5.1.1-4.5.6,1.5,1,2.5,1c1,0,2.1,1.3,2.1,1.3,0,0,1.2.7,2,.2.8-.5,2.1-2.1,2.1-2.1Z"/>
    <path class="cls-2" d="M189.1,96.9s-2.6.4-3.5-1.3c-.9-1.7-2.2-2.3-2.8-2.4s-1.4-2.7-1.9-2.4,1,3.6,1.7,4.1c.6.5,1.5.3,2.1,1.7.6,1.4,2.5,2.6,2.6,2.5s.2,1.3,2.4.7c2.2-.7,3.1.3,3.1.5s1-1.1-.3-1.9c-1.3-.8-3,.9-3.2-1.5Z"/>
    <path class="cls-2" d="M175.7,96.8s-2.1-2.1-2.5-2.2-3-.1-2.7-.7c.3-.6.6,1.6,1.3,1.6s1.5-.6,1.9.4c.4,1,4.1,1.6,2.1.8Z"/>
    <path class="cls-2" d="M164.6,88.3s-2.1-2.1-2.5-2.2-3-.1-2.7-.7c.3-.6.6,1.6,1.3,1.6s1.5-.6,1.9.4c.4,1,4.1,1.6,2.1.8Z"/>
    <path class="cls-2" d="M117.3,118.3s-2.1-2.1-2.5-2.2-3-.1-2.7-.7c.3-.6.6,1.6,1.3,1.6s1.5-.6,1.9.4c.4,1,4.1,1.6,2.1.8Z"/>
    <path class="cls-2" d="M90.6,120.1s-2.1-2.1-2.5-2.2-3-.1-2.7-.7c.3-.6.6,1.6,1.3,1.6s1.5-.6,1.9.4c.4,1,4.1,1.6,2.1.8Z"/>
    <path class="cls-2" d="M62.1,139.7s-2.1-2.1-2.5-2.2-3-.1-2.7-.7c.3-.6.6,1.6,1.3,1.6s1.5-.6,1.9.4c.4,1,4.1,1.6,2.1.8Z"/>
    <path class="cls-2" d="M14.1,113.7s-2.1-2.1-2.5-2.2-3-.1-2.7-.7c.3-.6.6,1.6,1.3,1.6s1.5-.6,1.9.4c.4,1,4.1,1.6,2.1.8Z"/>
    <path class="cls-2" d="M243,58.7s-2.1-2.1-2.5-2.2-3-.1-2.7-.7c.3-.6.6,1.6,1.3,1.6s1.5-.6,1.9.4,4.1,1.6,2.1.8Z"/>
    <path class="cls-2" d="M197.9,99.6s2.7,2.9,4.1,3.3,2,.8,3.2.9c1.2,0,2.6.1,2.8-.4.2-.5-.4-1.2.8-1.4s1.9.6,2.7,1.2c.8.6,2.2,0,2.5-.7.3-.7,1.3-2.4,2.2-2.6s4.2,0,4.3-.6,0-1,1.7-2.2c1.7-1.1,2.3-1.5,2.9-1.4s-.5,1.6-.9,1.8-2.6,2.9-3.7,3.4-3.1.2-3.6.6c-.6.5-2.3,1.8-2.5,2.5-.3.7-2.2,2.2-3.1,1.3-.9-.9-1.4-1.2-2-.7s-3.3.4-3.8.4c-.5,0-1.1-.3-2-.3-.9,0-3.2-1.4-3.9-2.1s-1.5-3.1-1.5-3.1Z"/>
    <path class="cls-2" d="M231.1,89.3s-3-.7-3,.4c0,1.1-1.2,3.1-1.2,3.1,0,0,2-.1,2.2-.3s-.6-1-.1-1.6,2.2-1.5,2.2-1.5Z"/>
    <path class="cls-2" d="M205.4,110.5s-3.3.5-4.9,0c-1.6-.4-4.7-2.5-5.4-3.8-.7-1.3-3.2-2.1-3.6-1.7-.5.3-3.3-1.9-3.3-1.9,0,0-1.2-1.1-1.6-.3-.4.8,2.3,2.7,2.9,3.1s2.2-.2,3.6,1c1.4,1.2,3.3,2.7,3.9,3.5.6.8,2.2,1.5,3.1,1.9s5.3-1.9,5.3-1.9Z"/>
    <path class="cls-2" d="M209.3,112.6s2-.6,2.7-1c.7-.4,1.7-2.1,2.8-2.3s8.4-1.4,8.8-1.3c.4.2,1.3,1,1.8.9s1.7-.2,1.5-.9c-.1-.7-.8-1.9,0-2.8.9-.9.6-2,2.1-1.7s3.4-.5,3.9-.9,1.3-3.1,1.3-3.1c0,0,2.4-.3,1.8.5-.5.8-2.1,4-3.8,4.4-1.6.5-3.4,0-3.7,1s.4,3.6-1.4,4.5c-1.8.9-2.8.4-3.9,0-1.2-.4-3.5,0-5.2,0-1.6.1-3.9.2-4.6,1.4-.7,1.2-.5,1.5-1.8,1.9-1.3.3-2.7.8-2.4-.7Z"/>
    <path class="cls-2" d="M221.3,114.9s-1.4,1.8-2.6,2.1-1.5-.2-2.8-.5c-1.3-.3-8,0-9.2.2-1.2.3-3.3.7-2.5,1.4s2.6.3,4.7-.2,4.9-1.1,6-.3c1.1.8,2.9,1.5,4,1.2,1.1-.3,2.5-3.9,2.5-3.9Z"/>
    <path class="cls-2" d="M243.3,152.5s-2.9.4-3-.5c0-.9-1.4-.8-2-1.2s-3.4-.8-3.6-1.2-1.4-.8-1.9-.9-2.7-.6-2.9-1.2c-.2-.6-.4-.8-1.3-1.3-.8-.4-1.3-1.1-2.4-1.8-1-.7-1.2-1.1-1.7-1s-3.4-.5-3.4,0,1.8,1.3,3.1,1.7,1.8.6,2.4,1.4c.5.8,2.1,2.2,3,2.5s2.7,1,2.9,1.3,1.7.2,1.7.2c0,0,.3-.5,1.5.7,1.2,1.2,3.3,1.1,3.7,1.3s1.2,1.1,1.6,1,1-.4,1.6-.2.8-.9.8-.9Z"/>
    <path class="cls-2" d="M154.6,133.3s-2.9.4-3-.5c0-.9-1.4-.8-2-1.2s-3.4-.8-3.6-1.2-1.4-.8-1.9-.9-2.7-.6-2.9-1.2c-.2-.6-.4-.8-1.3-1.3-.8-.4-1.3-1.1-2.4-1.8-1-.7-1.2-1.1-1.7-1s-3.4-.5-3.4,0,1.8,1.3,3.1,1.7,1.8.6,2.4,1.4c.5.8,2.1,2.2,3,2.5s2.7,1,2.9,1.3,1.7.2,1.7.2c0,0,.3-.5,1.5.7,1.2,1.2,3.3,1.1,3.7,1.3s1.2,1.1,1.6,1,1-.4,1.6-.2.8-.9.8-.9Z"/>
    <path class="cls-2" d="M248,150.4s2.3-2.3,2.8-1.5c.5.8.8.7,2.2.1,1.4-.6,2.7-1.4,2.7-1.4,0,0-1-3.4-2.1-3.7-1.1-.4.4-5.8.6-6.3s1.3-4,1.3-4l-.6-4.4,1.5-3.7s.2.4.2,1.2c0,.8-.8,3-.5,3.5s.4,4.8.2,5.8-.6,2.6-.8,3.6c-.2,1-.3,1.6-.4,2.9s1.9,4.6,1.8,5.3c-.2.6-.8,1.2-1.4,1.8-.7.6-3.1,1.1-3.8,1.2s-.9-.5-1.4-.2-2.2,1.5-2.1,0Z"/>
    <path class="cls-2" d="M236.8,61.3s-1.3-1.4-1.7.7c-.4,2.1-.5,2.9-.7,3.4s-.9,1.7-1.9,1.1c-1-.6-3-.8-3-.8-.7,1.5-1.7,2.2-1.5,2.4s-.9,0,.1.8,1.9-1.9,2.5-1.6,3.6.2,3.8.1,1.4-.8,1.4-.8c0,0,.6-1.9.6-2.2s-.1-1.9-.1-1.9l.6-1.1Z"/>
    <path class="cls-2" d="M227.2,119s1.8-2.1,2.4-2.4,4.2-1,4.2-1c0,0,.4-1.8.4-2.2,0-.4-1.5-2.5,0-3.2s5-2.3,5-3c0-.7.7-2.6.7-3.1,0-.4.6-2.5,1.3-3.1.7-.6,1.3-1.8,2-2.1.7-.4,1.9-1.1,1.9-1.6s.9-4.1,1.3-2.9c.3,1.2-2.9,6.7-3.6,6.9-.6.3-1.8,4.6-2,5.6-.2,1-1.6,2.1-2.4,2.7-.8.6-2.9,1.2-2.8,2.1.1.8.2,2.9,0,3.4-.2.4-1.6,2.7-2.4,2.5s-1.2.3-1.9.5c-.7.2-1.9.8-2.2,1.3s-3,1-1.8-.3Z"/>
    <path class="cls-2" d="M237.7,120.4s-2.9.3-3.6,1.9c-.7,1.6-1.6,2.3-2,2.6-.4.4-1.9,1.6-2.1,1.9-.2.3-.2.6-2,1-1.8.4-1.9,0-2.2.7s1,.8,1.5.7,2,.2,2.5-.4.8-.5,1.8-1.9c1-1.4,2.2-1.7,2.5-2s.9-.6,1.1-1.7c.2-1-.3-1.6.4-1.7s2-1.3,2-1.3Z"/>
    <path class="cls-2" d="M242.9,121s-2.2.9-2.9,2.3-1.1,2.8-1,3.7-1.7,3.9-2.2,4.5c-.5.6-3.5,1.6-3.6,2.7-.2,1.1-.4,1.2-1.9,2.2-1.5,1-2.6,1.7-3.1,2-.5.2-3.6.3-3.3,1.2.3.9,2.1.8,2.4.6s3.7-.7,4-1.2c.3-.5.4-2,1.6-2.3,1.2-.3,1.9-.9,2.2-1.7s-.3-1.3,1.2-1.9,2.1-.7,2.7-2c.6-1.3,1.2-2.7,1.2-3.1s-.5-1.6.2-2.5c.6-.9,0-1.1,1-2.1.9-1,1.6-2.3,1.6-2.3Z"/>
    <path class="cls-2" d="M251.7,121.5s-.6,1.8-.8,3.4c-.2,1.6-.5,2.6-1.1,3.2-.7.6-2.3,2.7-1.8,3.6.5,1,.4,3,.1,3.7-.3.7-.6,1.5-1.5,1.9s-4.7,1.6-4.8,2.2c0,.6-.9,2.6-1.1,3.3-.2.7-1.8,1.3-1.8,1.5s1.1,1.2,1.6.4c.5-.7,1.8-2.7,2.3-3.8.5-1.1,3.3-2.2,3.4-2.2s2.8-.8,3-1.8c.2-1,.4-1.7.5-2.8,0-1.1-.8-2.5.3-4.2,1.1-1.7,1.2-.4,2-3.1.8-2.7,1-6.7-.3-5.2Z"/>
    <path class="cls-2" d="M169.8,114.1s-.6,1.8-.8,3.4c-.2,1.6-.5,2.6-1.1,3.2-.7.6-2.3,2.7-1.8,3.6.5,1,.4,3,.1,3.7-.3.7-.6,1.5-1.5,1.9s-4.7,1.6-4.8,2.2c0,.6-.9,2.6-1.1,3.3-.2.7-1.8,1.3-1.8,1.5s1.1,1.2,1.6.4c.5-.7,1.8-2.7,2.3-3.8.5-1.1,3.3-2.2,3.4-2.2s2.8-.8,3-1.8c.2-1,.4-1.7.5-2.8,0-1.1-.8-2.5.3-4.2,1.1-1.7,1.2-.4,2-3.1.8-2.7,1-6.7-.3-5.2Z"/>
    <path class="cls-2" d="M258.8,93.8s-1.3-.2-1.3,1.2c0,1.3,0,10.2.2,10.9.2.7.7,2.9,1.2,3.4s1.4,3.3,1.2,3.6c-.2.3-.7,1.5-.2,1.8.5.3,2.1-1.4,1.6-2-.5-.6-1.1-3.8-1.3-4.7-.1-.9-.4-2-.4-2,0,0-.6-.7-.9-4-.3-3.3.1-5.2.2-5.9s-.4-2.2-.4-2.2Z"/>
    <path class="cls-2" d="M241.1,117.4s1.7-.9,2.8-1.8c1.1-.9-.1-.9,1.1-1.5,1.2-.6,4.2.2,3.5-1.7-.7-1.8.3-3.7.7-4s1.3-2.1,1.4-2.6c.1-.4-.4-1.4.4-1.6s1.5-2.6,1.8-2.4.9,2.7.5,3.3c-.4.6-.9.6-1.6,1.6-.7,1.1-1.8,1.7-1.8,2.5,0,.8,0,3.6,0,4.4,0,.8-1,1.4-1.9,1.5s-1.8.4-2.2,1-2.4,1.4-2.4,1.4c0,0-1.9,1.1-2.7,1.3-.8.2.5-1.4.5-1.4Z"/>
    <path class="cls-2" d="M237.1,94.9s2.9-1.2,3.7-1.9,2.5-2.6,3-3c.4-.4,1.2-1.9,1.3-2.4.1-.4.4-4.3,1.1-4.4s2.5-.4,3.3-1.8c.8-1.4.8-3,.8-3l.9-.9s-1.2-1.3-1-2.2c.3-.9.9-3.1.6-3.1s-1.7-2.1-1.9-.8c-.2,1.3.2,4.5.4,5.4s-.6,3.2-1.1,3.5c-.5.4-3,2.1-3.3,2.7s-1.7,2.1-1.6,3.3c0,1.1-.4,1.9-.6,2.8-.2.8-1.8,2.3-2.4,2.6s-4.7,2.1-3.1,3.1Z"/>
    <path class="cls-2" d="M147.5,87.8s-1.6,1.6-2.9,1.7-1.5-.4-2.7-.9c-1.2-.5-7.9-1.2-9.1-1.1s-3.3.3-2.7,1c.7.7,2.5.7,4.7.4,2.1-.2,5-.4,6,.6,1,1,2.6,1.8,3.7,1.7s3-3.5,3-3.5Z"/>
    <path class="cls-2" d="M110,85.3s-1.6,1.6-2.9,1.7-1.5-.4-2.7-.9c-1.2-.5-7.9-1.2-9.1-1.1-1.2,0-3.3.3-2.7,1,.7.7,2.5.7,4.7.4s5-.4,6,.6c1,1,2.6,1.8,3.7,1.7s3-3.5,3-3.5Z"/>
    <path class="cls-2" d="M89.1,77.2s-1.6,1.6-2.9,1.7-1.5-.4-2.7-.9c-1.2-.5-7.9-1.2-9.1-1.1s-3.3.3-2.7,1c.7.7,2.5.7,4.7.4,2.1-.2,5-.4,6,.6,1,1,2.6,1.8,3.7,1.7s3-3.5,3-3.5Z"/>
    <path class="cls-2" d="M112.1,79.7s4.8,2.6,5.7,5.2c.9,2.6,2.1,4.9,3.6,5.6,1.5.7,2.7-.1,3.5.8.7.9,1.5,2,1.7,2.2.3.2,3.5-.9,4.5,0,1,.9,1.4,1.4,1.7,1.9.4.5,2,.9,3.1,1.2,1.1.4,2.8,1.7,2.8,1.7,0,0,.8-.6,1.5,0,.7.6,2.4-.2,2.8,0,.5.2,2-1.4,2.1-1.7s1-2,1.5-1.9-.3,2.4-1,3.1-2,2.1-2.6,2.5c-.6.5-2.5.8-4.4,0-1.9-.8-5-1.5-5.5-3.3-.5-1.7-3.4-1.4-5.1-2.5-1.7-1.1-4.5-.1-5.4-1.5s-3.7-2.7-5.2-3.7c-1.5-1-1.8-3.5-2.6-4.6-.8-1.1-1.3-1.7-2.1-2.3s-.9-2.9-.9-2.9Z"/>
    <path class="cls-2" d="M99.2,94.7s4.8,2.6,5.7,5.2c.9,2.6,2.1,4.9,3.6,5.6,1.5.7,2.7-.1,3.5.8.7.9,1.5,2,1.7,2.2.3.2,3.5-.9,4.5,0,1,.9,1.4,1.4,1.7,1.9.4.5,2,.9,3.1,1.2,1.1.4,2.8,1.7,2.8,1.7,0,0,.8-.6,1.5,0,.7.6,2.4-.2,2.8,0s2-1.4,2.1-1.7,1-2,1.5-1.9-.3,2.4-1,3.1c-.7.7-2,2.1-2.6,2.5-.6.5-2.5.8-4.4,0-1.9-.8-5-1.5-5.5-3.3-.5-1.7-3.4-1.4-5.1-2.5-1.7-1.1-4.5-.1-5.4-1.5s-3.7-2.7-5.2-3.7c-1.5-1-1.8-3.5-2.6-4.6-.8-1.1-1.3-1.7-2.1-2.3s-.9-2.9-.9-2.9Z"/>
    <path class="cls-2" d="M128.4,105.2s-2.9,0-2.9-.9c0-.9-1.3-1-1.8-1.4-.6-.5-3.2-1.3-3.4-1.7s-1.2-1-1.7-1.2-2.6-1-2.7-1.6c-.2-.6-.3-.9-1.1-1.4-.8-.5-1.2-1.3-2.1-2.1-.9-.8-1-1.2-1.6-1.2s-3.3-1-3.3-.4,1.6,1.6,2.8,2.1c1.2.5,1.7.8,2.2,1.7.4.9,1.8,2.4,2.6,2.9.8.5,2.5,1.4,2.7,1.7s1.6.4,1.6.4c0,0,.3-.5,1.4.9,1,1.4,3.1,1.6,3.5,1.8.3.2,1,1.2,1.4,1.2s1.1-.2,1.6,0,.9-.7.9-.7Z"/>
    <path class="cls-2" d="M105.1,122.6s-2.9,0-2.9-.9c0-.9-1.3-1-1.8-1.4-.6-.5-3.2-1.3-3.4-1.7s-1.2-1-1.7-1.2-2.6-1-2.7-1.6c-.2-.6-.3-.9-1.1-1.4-.8-.5-1.2-1.3-2.1-2.1-.9-.8-1-1.2-1.6-1.2s-3.3-1-3.3-.4,1.6,1.6,2.8,2.1c1.2.5,1.7.8,2.2,1.7.4.9,1.8,2.4,2.6,2.9.8.5,2.5,1.4,2.7,1.7s1.6.4,1.6.4c0,0,.3-.5,1.4.9,1,1.4,3.1,1.6,3.5,1.8.3.2,1,1.2,1.4,1.2s1.1-.2,1.6,0,.9-.7.9-.7Z"/>
    <path class="cls-2" d="M164.1,96.9s-2.3.6-3.2,1.8c-.9,1.2-1.5,2.6-1.5,3.5,0,.9-2.2,3.7-2.8,4.1-.6.5-3.7,1.1-4,2.2-.3,1.1-.5,1.1-2.1,1.9-1.6.8-2.8,1.3-3.3,1.5-.5.2-3.6-.2-3.4.7.2.9,1.9,1.1,2.3.9s3.8-.2,4.1-.6.7-1.9,1.9-2.1c1.3-.2,2-.6,2.4-1.3s0-1.3,1.4-1.7c1.5-.4,2.2-.4,2.9-1.6.7-1.2,1.6-2.5,1.7-2.9,0-.4-.2-1.7.5-2.5.7-.8.2-1.1,1.3-1.9,1.1-.8,1.9-2.1,1.9-2.1Z"/>
    <path class="cls-2" d="M34.1,92.9s-.5-4.8,1.2-4.1.4,2.1.4,2.1c0,0,.5.5,1,0,.5-.4.9-1.9,1.7-1s1.1.3,1.1.7c-.4,1.9.2.9.2.9,0,0,1.1,0,1.3-.3.2-.3.6.8,1.6.9s.6-.5,1-.6c.5-.1,1.3.6,1.9.7l1.3.2.4-1.7-1.4-.7s-.5,1.1-1.7.7-.5-1.1-1.3-1.2-1,.6-1,.6l-2.2-.4s-2.2-2.2-2.8-1.8c-.5.4,0,.8-.5.4s-1-1.9-2-1.8c-1,0-1,.8-.9,1.2s-2.4.8-2.1,1.3,1.5,0,1.9.3c1.1.7,1,3.5,1,3.5Z"/>
    <path class="cls-2" d="M14.7,103.3s.2-2.6,1.6-2.2,1.7,2.6,1.7,2.6c0,0,.9-2.7,2.1-1.4,1.3,1.4,2.3,1.3,2.3,1.3,0,0-.2-.5,1.3-.5,1.5,0,1.1.4,2.1.4h1s.8-.8.8-.8l-.5-2.2s-.4,2-1.3,1.7-3-.2-3-.2h-1.8s-1.9-1.8-2.3-1.4,0,.8-.4.5-.9-1.7-1.7-1.5-2,1.1-2,1.5c0,.4,0,2.1,0,2.1Z"/>
    <path class="cls-2" d="M44.6,133.4s.2-2.6,1.6-2.2,1.7,2.6,1.7,2.6c0,0,.9-2.7,2.1-1.4,1.3,1.4,2.3,1.3,2.3,1.3,0,0-.2-.5,1.3-.5,1.5,0,1.1.4,2.1.4h1s.8-.8.8-.8l-.5-2.2s-.4,2-1.3,1.7-3-.2-3-.2h-1.8s-1.9-1.8-2.3-1.4,0,.8-.4.5-.9-1.7-1.7-1.5-2,1.1-2,1.5c0,.4,0,2.1,0,2.1Z"/>
    <path class="cls-2" d="M62.7,133.6s.2-2.6,1.6-2.2,1.7,2.6,1.7,2.6c0,0,.9-2.7,2.1-1.4s2.3,1.3,2.3,1.3c0,0-.2-.5,1.3-.5,1.5,0,1.1.4,2.1.4h1s.8-.8.8-.8l-.5-2.2s-.4,2-1.3,1.7-3-.2-3-.2h-1.8s-1.9-1.8-2.3-1.4,0,.8-.4.5-.9-1.7-1.7-1.5-2,1.1-2,1.5c0,.4,0,2.1,0,2.1Z"/>
    <path class="cls-10" d="M12.6,138.2s-1,2.2-.1,2.4,1.3.9,1.3.9l.5,1.5-1.7,1.4s1.6-.8.4-2.1c-1.2-1.3-1.7-1.9-1.6-2.4.4-1.9,1.3-1.7,1.3-1.7Z"/>
    <path class="cls-10" d="M7.7,137.1c.7.8.7,1.3,1.4,1.6s.1.9-.3,1.9-.8,1.3-.8,1.3c0,0-.9-.8-.2-1.1s.3-1.7.3-1.7c0,0-1.1-2.7-.4-1.9Z"/>
    <path class="cls-10" d="M16.8,132s-.2,2.4-.2,3.1-.8.8-.7,1.4c.2.7,1.3,1.5,1.6,1.6,1.1.4,1.8.7,1.9,1.2s0,1.4,0,1.7-.5,1.6-.5,1.6l-2-.6s1.7,0,1.3-1c-.3-1-.6-1.4-1.3-1.9-.7-.5-2.3-3.3-2.2-4s.8-.7,1.3-1.4c.5-.7.7-1.8.7-1.8Z"/>
    <path class="cls-12" d="M4.8,140.9s.2,1.5,1.4,2.2,0-3.7,1.9-1.3.9,2.6,2.7,2.6.8-2.6,2.4-1c0,0,.4,1,0,1.4s-1,1-1.8.8-3.3-1.2-3.5-1.7-.4.8-.8.4-.6-.5-1-.6-1-.5-1-.5l-.3-2.4Z"/>
    <path class="cls-2" d="M24.4,132.1c.9,1.7,4.9.8,6.3,0s2.1.2,2.3.9-1.8,1.8-1.8,1.8c0,0-2,0-3.9,0s-1,2.8-1.9,0l-.9-2.7Z"/>
    <path class="cls-2" d="M19,142.6s-.7,18.5-1.9,21.2c-1.1,2.7-3.8,13.2-3.8,13.2,0,0,6.6-9.4,7.8-11.7,5.4-10.1,7.5-14,7.5-14l-9.6-8.7Z"/>
    <path class="cls-2" d="M1.7,114.4s3.4,3.3,4.3,3.6,3.9,0,4.8.2,2.3.5,3,1.6,1.3,3.2,2.2,4.4,2.7,1.6,3.4,2c.7.4,1.8,2,2.2,2.7.4.7,1.4,1.6,1.6,1.9s-1.1-1.6-1.7-3c-.7-1.4-.8-2.6-2-3.2-1.3-.6-2.8-1.6-3.2-2.4s-.6-3.9-2.1-4.4c-1.5-.5-4.2-1.2-4.9-1.3-.7,0-1.5.8-3.1.2-1.6-.6-4.4-2.4-4.4-2.4Z"/>
    <path class="cls-2" d="M37,130.5c-.4-.3-1.9-1.4-2.2-1.1s-2.8,0-3.3-.7c-.5-.6-1.5-1.5-1.5-2,0-.6-1.2-.7-1.7-1.2s-.9-1,0-1.1c.8-.1,1.5.6,2.3.8.8.2,2.3.5,2.3.8,0,.4-.3,1.2.2,1.9s2.2.7,2.5.5,2,.1,2.3,1,.5,2-.8,1.1Z"/>
    <path class="cls-2" d="M86.8,128.1c-.4-.3-1.9-1.4-2.2-1.1s-2.8,0-3.3-.7c-.5-.6-1.5-1.5-1.5-2,0-.6-1.2-.7-1.7-1.2s-.9-1,0-1.1c.8-.1,1.5.6,2.3.8.8.2,2.3.5,2.3.8,0,.4-.3,1.2.2,1.9s2.2.7,2.5.5,2,.1,2.3,1c.3.8.5,2-.8,1.1Z"/>
    <path class="cls-2" d="M58.8,89.3c-.4-.3-1.9-1.4-2.2-1.1s-2.8,0-3.3-.7c-.5-.6-1.5-1.5-1.5-2,0-.6-1.2-.7-1.7-1.2s-.9-1,0-1.1,1.5.6,2.3.8,2.3.5,2.3.8c0,.4-.3,1.2.2,1.9s2.2.7,2.5.5,2,.1,2.3,1c.3.8.5,2-.8,1.1Z"/>
    <path class="cls-2" d="M13.1,129.5c-.4-.3-1.9-1.4-2.2-1.1s-2.8,0-3.3-.7c-.5-.6-1.5-1.5-1.5-2,0-.6-1.2-.7-1.7-1.2s-.9-1,0-1.1c.8-.1,1.5.6,2.3.8s2.3.5,2.3.8c0,.4-.3,1.2.2,1.9s2.2.7,2.5.5,2,.1,2.3,1,.5,2-.8,1.1Z"/>
    <path class="cls-2" d="M34.3,112.7s2.4,1.7,3.4,2.3,1.7,1.1,1.6,1.6c-.2.5-1.3.5-1,1.4.3.9.6,2.3.9,2.1s2.5,1,2.3.5-2.1-1.7-1.9-2.3,1.1-1.5,1-2.1-.4-1.3-1.2-1.7c-.8-.3-5-2-5-2Z"/>
    <path class="cls-2" d="M22.1,115.9s1.4,2.2,1.7,1.9.9-1,1.6-.6c.7.4,1.5.6,1.7.4s1.9.7,2.4.6,1.2-.9.8-1.2-.6-1-1-.7c-.4.3-2.4-.6-2.6-.3s-1.2-.2-1.5.1-1,.5-1.4.4c-.4-.1-1.7-.5-1.7-.5Z"/>
    <path class="cls-2" d="M18.3,94.9s-1.8-.7-2.8-.6c-1,0-1.1.3-2.8,1.3-1.7,1-3.1,1.8-3,1.2.1-.6,1-1.7,2.5-2.6s2.5-2.5,3.5-1.8c1,.7,2.9.5,3.2.2s1.4-1.6,2.3-1.7c.9-.1,3.1-1.7,4-1.1.9.6,1.6.2,1.7.9,0,.8-1.6.7-2.3.4s-2.2-.2-2.5.3-.5,1.4-1.8,1.3c-1.3,0-.4,1.2-.7,1.3s-1.3.8-1.3.8Z"/>
    <path class="cls-2" d="M8.6,105.7s1.7.7,2.5.4c.9-.3,2.1,0,2.8.4.6.3,3.6,1.7,3.6,2.5,0,.8-1.7.3-2.8-.7-1.1-1-2-1-2.6-1-.6,0-1-.2-1.5-.2s-1.3-.4-1.5-.2-.3,0-1.2-.2.7-1,.7-1Z"/>
    <path class="cls-2" d="M28.7,106.9s-2.5-.6-3.9-.2-3.8.2-4,0c-.1-.2-1.2.2-1.6.3-.4,0-.8.3-.6.8.2.6.4.2,1.2.2.9,0,3.2,0,4,0s1.1-.2,2.3,0c1.3.1,2.4-.2,3.2.2.8.5,1.7.5,2.1.6.4,0,.6-.5,1.2-.1s1.6,1.3,2.2,1.3c.7,0,1.5.5,2.2.2s.9-1.2.2-1.1c-.7,0-2.1-.6-3.4-1.1-1.3-.5-5.2-1-5.2-1Z"/>
    <path class="cls-2" d="M31,95.8s-2.5-.6-3.9-.2c-1.4.4-3.8.2-4,0-.1-.2-1.2.2-1.6.3-.4,0-.8.3-.6.8s.4.2,1.2.2c.9,0,3.2,0,4,0,.8,0,1.1-.2,2.3,0s2.4-.2,3.2.2c.8.5,1.7.5,2.1.6s.6-.5,1.2-.1c.6.4,1.6,1.3,2.2,1.3.7,0,1.5.5,2.2.2s.9-1.2.2-1.1c-.7,0-2.1-.6-3.4-1.1s-5.2-1-5.2-1Z"/>
    <path class="cls-2" d="M129.9,36.1s-.1-2.1-.7-2.8,0-2.1-.3-2.4-.9-1.4-1-2,.3-.9-.4-1.6-2.9-2.9-2.8-3.5c0-.6.1-.9-.2-1.3s-.3-1.8.2-.7c.5,1,1.3,2.6,1.4,3.4s1.1,1,1.7,1.3c.7.3,1-.2,1,1,0,1.1-.2,2.3.3,2.8.5.5.9.4.8,1.2-.1.9-.5,1.8,0,2.2s1.1.9.6,1.7l-.6.9Z"/>
    <path class="cls-2" d="M139.5,45.2s-3,2.4-3.3,3.3c-.2.9.3,3,.3,3.4,0,.4,0,2.4.1,2.9.1.5,1.2,1.8,1.2,2.1,0,.3.7,1.4,1.1,1.3s.4-1.1,0-1.3-.3-1.1-.9-2c-.6-.9-.8-2-.9-2.9,0-.9-.2-2.5,0-3.1.2-.7,1-1.5,1.6-1.8.6-.4.6-1.8.6-1.8Z"/>
    <path class="cls-2" d="M60,79.6s.3,3.9.9,4.6c.7.7,2.7,1.5,3,1.7.3.2,2,1.3,2.5,1.5.5.2,2.2,0,2.4.2s1.5.2,1.7-.2-.7-1-1-.8-1.1-.4-2.2-.4c-1.1,0-2.1-.5-2.9-.9-.8-.4-2.2-1.2-2.6-1.8-.4-.6-.7-1.6-.6-2.4,0-.7-1.2-1.5-1.2-1.5Z"/>
    <path class="cls-2" d="M107.2,64.6s-3,2.4-3.3,3.3c-.2.9.3,3,.3,3.4,0,.4,0,2.4.1,2.9.1.5,1.2,1.8,1.2,2.1s.7,1.4,1.1,1.3.4-1.1,0-1.3-.3-1.1-.9-2c-.6-.9-.8-2-.9-2.9,0-.9-.2-2.5,0-3.1.2-.7,1-1.5,1.6-1.8.6-.4.6-1.8.6-1.8Z"/>
    <path class="cls-2" d="M135.3,34s1.4,1.7,1.7,2.4c.3.7.4,2.3.7,2.8s-.4,1.2,0,1.6c.4.4,1.3.9,1.3.4,0-.5.1-1.2,0-2-.1-.8-1.1-1.7-1.3-2.7-.2-1,.7-1.1-.5-2-1.2-.9-2.1-2-2.3-1.9s.5,1.4.5,1.4Z"/>
    <path class="cls-2" d="M151.7,53.3s0-3.1-.9-3.7c-.9-.7-2-3.3-2.3-4-.4-.7-1.3-2.2-1.8-2.5-.5-.3-2-2.7-2.3-3.3-.3-.7-.8-1-1.1-1.4-.3-.4-.7-1.4-.7-1.4,0,0,1.1-.3,1.6.5.5.8,1.6,3.6,2.3,4.3s1.6,1.8,2,2.2c.4.4.9,1.6,1.2,1.9.3.4.4.4.9,1.2s.5,1.1.9,1.6c.4.5.7,0,.9.8.2.9.9.6.6,2.2-.4,1.6-.4,2.9-1.2,1.5Z"/>
    <path class="cls-2" d="M147.3,33.3s-2.5-2.5-3.3-3.5c-.7-.9-1.9-2-2.2-2.3-.3-.3-2.2-.6-2.8-.8s-.7-.9-1.2-1.2-1.4-.9-.9-1.1,1.3-.6,2.1.5c.8,1.2,1.5,1.1,2.1,1.3.6.2,1.8,0,2.2.8.4.7,1.2,2.6,1.6,2.8s1.8,1.3,1.8,1.3c.5.6,1.4.5,1.3,1.4,0,.9-.8.8-.8.8Z"/>
    <path class="cls-2" d="M109.4,61.3s-3.4-1.2-4.4-1.8c-1.1-.5-2.6-1-2.9-1.2s-2.2.4-2.9.4-1-.6-1.6-.6-1.6-.2-1.3-.6.9-1.1,2.1-.4c1.2.7,1.9.3,2.5.3.6,0,1.7-.7,2.3-.2.6.5,2.2,1.9,2.6,1.9s2.2.4,2.2.4c.7.4,1.5-.1,1.8.7.3.9-.4,1-.4,1Z"/>
    <path class="cls-2" d="M133.5,20.3c-.4,0-2.4.5-3.4,0-1-.5-1.2-1.3-1.3-1.4-.4-.2-2.6-1-2.6-1,0,0-1.9-.4-1.5-.3s.7-1,1.7-.7,1.8.7,2.3,1.3,1.3.7,1.7,1.1c.4.4,1.3.4,1.7.3s1.4-.3,2.2-.2,3,.2,3,.2c0,0,1.4.2.6.4-1.1.4-4.1.3-4.5.2Z"/>
    <path class="cls-2" d="M168.8,22s-4.7,0-5.3-.4-1.2-.9-1.5-1.3-.6-.5-1.9-1.2-2.8-.9-3.2-.8-1.4.4-1.7-.1,0-.7-.5-1.2-.6-.8-1.1-.9-1.3-.8-1.6-.8-.9-.4-1.3-.6-.8-.3-.8-.3c0,0-1.2.3-2.2-.2-.9-.4-1.1-1.2-.2-1.1.9.1,3.4.5,4.3.8.9.4,2.6-.3,3.4,1.1s.3,2.1.6,2.2,1.6,0,2.3.2c.6.2,1.4.6,1.8.8s2.9,1.1,3,1.3.8.7,1.2.9,1.3.2,1.7.1,4.4,1.4,2.8,1.4Z"/>
    <path class="cls-2" d="M141.1,19.3s5.3,2.2,6.2,2.4,3.2.6,3.5,1.5c.3.9-.6.9-1.2.5-.6-.4-2.7-1.1-3.8-1.6-1.1-.5-1.3-.9-2.1-.9s-1.2.3-2.1-.2c-.9-.5-1.8-.9-1.8-1h0s-.7-1.2-.7-1.2l2,.6Z"/>
    <path class="cls-2" d="M158.1,42.9c-.2.9.6,5.2.3,6.4-.2,1.2-.2,2.4.5,3.4.7,1,2,2.5,1.7,3.9-.3,1.5-.2,2.7-.8,3.5-.6.8-1.4,2.4-1.4,3.4,0,1,1.1,3.9,1.4,5.2.3,1.3,1.8,2.9,2.2,3.5s.9,2.1.8,3.6c-.1,1.5-.3,2.7,0,2.8s1.6-1.5,1.5-2.8-.5-4.6-1.4-5.4c-.9-.9-2.3-3.9-2.5-4.3-.2-.4-.3-3.3-.1-3.9.2-.7,2.6-6.6,2.1-7.3-.5-.7-2.5-.3-2.7-4-.2-3.7-.9-7.5-1-8.2l-.5.3Z"/>
    <path class="cls-2" d="M160.7,35.5c1.2,1.7,2.4,1.6,3,2.9.6,1.3,3.5,6.3,3.3,8.1-.2,1.7,0,4.7.2,4.9.3.2.5,2.3.9,3,.4.7,1.4,2.9,1.4,2.1,0-.8.4-1.2-.5-3.3-1-2.1-1.5-3-.9-5.1.6-2.1,0-2.5,0-2.5,0,0-1.6-3.8-2.1-5.2-.5-1.4-4-6.1-4.3-6s-1.5.6-1.1,1.1Z"/>
    <path class="cls-2" d="M112.3,42.3c1.2,1.7,2.4,1.6,3,2.9s3.5,6.3,3.3,8.1c-.2,1.7,0,4.7.2,4.9.3.2.5,2.3.9,3s1.4,2.9,1.4,2.1.4-1.2-.5-3.3c-1-2.1-1.5-3-.9-5.1s0-2.5,0-2.5c0,0-1.6-3.8-2.1-5.2-.5-1.4-4-6.1-4.3-6s-1.5.6-1.1,1.1Z"/>
    <path class="cls-2" d="M142.9,55.3c.1.8,1.2,5.1,1.8,5.8s3.3,2,3.8,2.5,1.1,3.6,1.7,4.8,1.2,1.4,2.1,1.7c.9.3,2.4,1.5,2.2,2.3s-2,.4-2.9-.9c-1-1.3-2.7-2.4-2.9-3.1s-.8-2.4-1.5-3.5c-.7-1.1-1.4-1.7-2.2-2.2s-2.1-1.6-2.2-2.3c-.1-.8-.7-.8-.8-2.3-.1-1.5.8-2.8.8-2.8Z"/>
    <path class="cls-2" d="M91.7,61.2c.1.8,1.2,5.1,1.8,5.8s3.3,2,3.8,2.5,1.1,3.6,1.7,4.8,1.2,1.4,2.1,1.7c.9.3,2.4,1.5,2.2,2.3-.2.8-2,.4-2.9-.9-1-1.3-2.7-2.4-2.9-3.1s-.8-2.4-1.5-3.5c-.7-1.1-1.4-1.7-2.2-2.2s-2.1-1.6-2.2-2.3c-.1-.8-.7-.8-.8-2.3-.1-1.5.8-2.8.8-2.8Z"/>
    <path class="cls-2" d="M126,63.5c.1.8,1.2,5.1,1.8,5.8.7.7,3.3,2,3.8,2.5.5.5,1.1,3.6,1.7,4.8.7,1.2,1.2,1.4,2.1,1.7.9.3,2.4,1.5,2.2,2.3-.2.8-2,.4-2.9-.9-1-1.3-2.7-2.4-2.9-3.1-.2-.8-.8-2.4-1.5-3.5-.7-1.1-1.4-1.7-2.2-2.2-.8-.4-2.1-1.6-2.2-2.3-.1-.8-.7-.8-.8-2.3-.1-1.5.8-2.8.8-2.8Z"/>
    <path class="cls-2" d="M114.2,30c.1.8,1.2,5.1,1.8,5.8.7.7,3.3,2,3.8,2.5.5.5,1.1,3.6,1.7,4.8.7,1.2,1.2,1.4,2.1,1.7.9.3,2.4,1.5,2.2,2.3-.2.8-2,.4-2.9-.9-1-1.3-2.7-2.4-2.9-3.1s-.8-2.4-1.5-3.5c-.7-1.1-1.4-1.7-2.2-2.2-.8-.4-2.1-1.6-2.2-2.3-.1-.8-.7-.8-.8-2.3-.1-1.5.8-2.8.8-2.8Z"/>
    <path class="cls-2" d="M114.2,65.5c.1.8,1.2,5.1,1.8,5.8.7.7,3.3,2,3.8,2.5.5.5,1.1,3.6,1.7,4.8.7,1.2,1.2,1.4,2.1,1.7.9.3,2.4,1.5,2.2,2.3-.2.8-2,.4-2.9-.9-1-1.3-2.7-2.4-2.9-3.1s-.8-2.4-1.5-3.5c-.7-1.1-1.4-1.7-2.2-2.2-.8-.4-2.1-1.6-2.2-2.3-.1-.8-.7-.8-.8-2.3-.1-1.5.8-2.8.8-2.8Z"/>
    <path class="cls-2" d="M136.4,68.6s1.7,2.8,2.4,3.2c.8.4,3.4.5,4.1,1.9.8,1.4,1.8,3.3,3.1,4.1s5,1.6,5.2,2.2,1.9,1.4,2.2,2.7-1.5,1.3-2.2,0c-.7-1.3-2.2-3.6-3.3-3.3s-3.1,0-3.9-.9-1.8-1.9-2.4-3c-.5-1.1-1.4-1.5-2-1.9s-1.8-1.2-2.6-1.9c-.8-.7-1.7-2.6-.8-3.2Z"/>
    <path class="cls-2" d="M200.9,27s-.2-2.1-1.7-2.4-2.5-1.2-2.5-1.6c0-.4,0-1.9-.7-2.4s-1.7-2.2-2.3-2.8c-.6-.6-.4-2,0-1.7s1.4,1.9,1.9,2.3,3,3.4,2.9,3.8,0-.4-.1.3c0,.7-.4.7.3,1s2.1,0,2.4.8.7,2.7.7,2.8.7,1.7,1.2,2.3,2,.9,1.2,1.3c-.8.4-3.1-3.6-3.1-3.6Z"/>
    <path class="cls-2" d="M218.2,18.3s-.2-2.1-1.7-2.4c-1.5-.4-2.5-1.2-2.5-1.6,0-.4,0-1.9-.7-2.4-.7-.5-1.7-2.2-2.3-2.8-.6-.6-.4-2,0-1.7s1.4,1.9,1.9,2.3c.5.4,3,3.4,2.9,3.8-.1.3,0-.4-.1.3,0,.7-.4.7.3,1s2.1,0,2.4.8.7,2.7.7,2.8.7,1.7,1.2,2.3,2,.9,1.2,1.3c-.8.4-3.1-3.6-3.1-3.6Z"/>
    <path class="cls-2" d="M204.8,39.1s-.2-2.1-1.7-2.4-2.5-1.2-2.5-1.6,0-1.9-.7-2.4c-.7-.5-1.7-2.2-2.3-2.8-.6-.6-.4-2,0-1.7s1.4,1.9,1.9,2.3c.5.4,3,3.4,2.9,3.8s0-.4-.1.3-.4.7.3,1,2.1,0,2.4.8c.3.7.7,2.7.7,2.8s.7,1.7,1.2,2.3c.6.6,2,.9,1.2,1.3-.8.4-3.1-3.6-3.1-3.6Z"/>
    <path class="cls-2" d="M196.7,46s.5-2-.7-2.9c-1.3-.9-1.9-2-1.8-2.4s.6-1.8.2-2.5c-.4-.7-.8-2.7-1.2-3.4-.3-.7.3-2,.6-1.6.3.4.6,2.3.9,2.8.3.5,1.6,4.3,1.4,4.6s0-.4-.2.2c-.3.6-.6.5,0,1,.5.5,1.9.8,1.9,1.6,0,.8-.4,2.8-.3,2.9s0,1.9.3,2.6,1.5,1.5.6,1.6-1.6-4.5-1.6-4.5Z"/>
    <path class="cls-2" d="M186.7,28.6s-1.3-3.5-3.5-4c-2.2-.4-2.9-1.1-4-1.7s-2.6-2.3-3.2-2.3-2-.5-1.2.6.5.8,1.6,1.7c1.1.9,4,2.5,4.2,2.6s3-.6,3.4.4c.4,1,.3,1.8.9,2.4s1.7.3,1.7.3Z"/>
    <path class="cls-2" d="M199.1,13.5s-1.3-3.5-3.5-4c-2.2-.4-2.9-1.1-4-1.7s-2.6-2.3-3.2-2.3-2-.5-1.2.6.5.8,1.6,1.7c1.1.9,4,2.5,4.2,2.6s3-.6,3.4.4c.4,1,.3,1.8.9,2.4s1.7.3,1.7.3Z"/>
    <path class="cls-2" d="M183.5,13.5s-1.3-3.5-3.5-4c-2.2-.4-2.9-1.1-4-1.7-1.1-.6-2.6-2.3-3.2-2.3s-2-.5-1.2.6c.8,1,.5.8,1.6,1.7,1.1.9,4,2.5,4.2,2.6s3-.6,3.4.4c.4,1,.3,1.8.9,2.4.6.6,1.7.3,1.7.3Z"/>
    <path class="cls-2" d="M178,33.7c.4.5,1.5.8,2,1.2.8.6,1,1.2,1.3,2.1.5,1.3.9,4.7,1.1,5.4.3.7.8,5.8,1.1,7,.3,1.2.5,4.9.5,5.5,0,.6.5,3.1.6,1.6.1-1.5.3-4.5,0-5.6-.3-1.1-1.4-7.4-1.2-7.8s-.6-5-.9-5.9c-.1-.4-.4-1.5-1.5-2.4-1.5-1.2-3.9-1.9-3.1-1Z"/>
    <path class="cls-2" d="M176.6,41.6s-1.8-2-2-.9c-.2,1.2.7,1,1,2.8.3,1.8,2,12.2,1,14.3s-2.2,3.3-2.7,4.5c-.5,1.2.3,2.8,0,3.7-.3.8,0,2.3.1,2.9.2.6,1.7,1.1,1.7,1.7,0,.7.5-1.6.1-2s-1.4-1.5-1.2-3c.2-1.4.7-2.9,1.2-4.1.4-1.2,1.4-3.7,1.6-4.3.2-.6-.8-15.7-.8-15.7Z"/>
    <path class="cls-2" d="M199.8,5.2s-2.6-.9-2.2.3c.4,1.1,1.1.5,2.3,1.9,1.1,1.4,7.8,9.6,8,11.9.2,2.3-.3,4-.1,5.3.2,1.3,1.7,2.3,1.8,3.2s1.1,2,1.6,2.4c.5.4,2,.1,2.3.7s-.4-1.6-.8-1.8c-.5-.1-2-.6-2.5-2s-.8-2.9-1-4.2c-.2-1.3-.6-3.9-.7-4.6-.1-.7-8.5-13.3-8.5-13.3Z"/>
    <path class="cls-2" d="M180,71.9s-1.2-.8-1.2.8.4,3,.6,4c.2,1,1.2,6.4.6,7.6-.6,1.2-1.4,2.2-1.9,2.6-.4.4-1.9.7-1.9,1.3s.8,2.5.4,3.1-1.3,1.3-1.1,1.8,1.8-.8,1.9-1.5c0-.7-.2-1.7.4-2.6s1.8-2.5,2.3-3.3c.5-.8,1-4.3,1-5.6,0-1.3-1.4-4.6-1.4-5.3,0-.7.2-2.9.2-2.9Z"/>
    <path class="cls-2" d="M172.9,83.5s-1-2.6-1.8-3.1-1-2.5-1.2-2.6-.3-4.1-.8-3.4c-.5.7-.5,5.4-.3,5.9.1.4,1.5,2,2,2.6.5.6,1.4,2.9,1.6,4.3.2,1.4,0,4.5.5,4.1.4-.4,1-1.7.8-2.4-.2-.7-.8-5.4-.8-5.4Z"/>
    <path class="cls-2" d="M184.4,87.9s1.5-2.4,1.7-3.1.4-5.3,0-6.1c-.4-.8-.8-3.5-.8-3.8s.6-1.3,1-1.7,1.4-2.6,1.4-2.9.9-2.5,0-2.4-1.3,3.5-1.5,3.7-1.8,2.1-1.8,2.7.2,4.3.5,5.2.7,3.8.5,4.5-3.6,4.6-1.1,3.9Z"/>
    <path class="cls-2" d="M191.8,79.5s2.5-4.6,2.5-5.9-.9-3.5-1.3-3.9-.3-3.5-.4-4c0-.5.1-2.2.4-2.5.3-.3,1.6-1.9,1.6-2.3,0-.4.5-1.7.8-1.3.3.4.7,2.1,0,2.7-.7.6-2,2.9-2,3.4,0,.5.7,4.9.9,5s.9,3.1.8,4c-.1.9-2,3.8-2,3.8,0,0-1.5,2.1-1.4.9Z"/>
    <path class="cls-2" d="M192.7,55.6s-.4-1.8-1.1-2.4-.9-2.1-.9-2.1c0,0-.7-2.1,0-1.9s1.2,2.2,1.3,2.5,1.2,1.5,1.2,2c0,.4-.5,2-.5,2Z"/>
    <path class="cls-2" d="M199.8,59.6s-.1,3.1-.7,3.6c-.6.6-.5,5.1-.4,6.1.1,1,.1,1.8.5,2.4.4.6.5,5.7.3,6.2s-.3,1.5-.9,2c-.5.5-1.1,1.3-1.3,2.5-.3,1.2-.7,4.7-.7,5s.2,2.7,0,3.5c-.2.8-1.5,3.5-2.1,4-.6.5,1-.1,1.5-.5s1.7-3.2,1.7-3.8c0-.5,0-3.9,0-5.1,0-1.2.4-3.8,1.1-4.7.7-.9,1.8-4.6,1.8-7.1,0-2.5-1.7-4.3-1.1-6.9.6-2.6,1-7.2.3-7.5Z"/>
    <path class="cls-2" d="M207.8,61.1s1.4-1.8.5-2.8-.9-2.5-1.2-2.7-.5-2.2,0-2.3,1.2-2,1.1-2.4c0-.4,0-2.1.5-1.6.6.5.4,2.5,0,3.1-.4.7-1,2.5-.7,2.8s1.4,3.5,1.5,4.1c.1.5-.4,2.5-.6,2.9s-.7,1.4-1,2-.5,1.6-1,1.9-1,.6-1.1.3,1.9-2.3,1.9-3.6c0-1.1.2-1.6.2-1.6Z"/>
    <path class="cls-2" d="M229.9,64.6s1.4-1.8.5-2.8-.9-2.5-1.2-2.7-.5-2.2,0-2.3,1.2-2,1.1-2.4c0-.4,0-2.1.5-1.6s.4,2.5,0,3.1-1,2.5-.7,2.8,1.4,3.5,1.5,4.1c.1.5-.4,2.5-.6,2.9s-.7,1.4-1,2c-.4.6-.5,1.6-1,1.9s-1,.6-1.1.3,1.9-2.3,1.9-3.6c0-1.1.2-1.6.2-1.6Z"/>
    <path class="cls-2" d="M206.5,72.5s-.1-3.9-.5-2.7c-.4,1.1-.4,3.2-.4,4.5,0,1.3-1.2,3.6-1.5,4s-1.3,1.3-1.4,2.1,0,5.9,0,6.3-1.1,3.2-1.4,3.9-1,2.1-1.4,2.6c-.3.5-2.1,1.9-1.7,2s-.9,1.2.8,0c1.7-1.2,3-2.6,3.3-3.9.3-1.3,1.5-4.4,1.5-4.7,0-.3-1.7-4-.1-5.7,1.5-1.7,2.2-3.3,2.3-3.9s.6-4.6.6-4.6Z"/>
    <path class="cls-2" d="M208.8,88.5s1.4-2,2.2-2.5c.8-.5,2.7-1.4,3.2-3.6.4-2.2.5-3,.5-3.8,0-.8-.2-3.5-.7-3.8-.4-.3-1.7-.8-1.9-1.7s-.9-2.5-.7-3.9c.1-1.4,1-4.3,1.1-3.2s-.1,5.5.4,6c.5.5,2.2,1.9,2.5,2.8.2.9-.1,5.3,0,5.9.1.6-.8,4-1.2,4.6s-2,1.7-2.8,2.2c-.8.5-2.5,2.9-2.5,3.3,0,.4-.3-.2,0-2.2Z"/>
    <path class="cls-2" d="M219.3,79.8s-1.3-4.4,0-4.7,2.5-2.1,2.5-2.5c0-.4-.3-2.8,0-3.4.3-.6.9-4.2.8-4.6-.1-.4-.4-3.6,0-3.5s.6,4.7.5,5.9.1,4.6,0,5.6c0,1-.4,3.2-1.1,3.2s-.7-.2-1.1.5c-.4.8-1.3,4.8-1.6,3.6Z"/>
    <path class="cls-2" d="M215.8,50.4s-3-2.2-3.6-2.4-.7-1.2-1.1-1.6c-.5-.3-1.8-.7-1.7-.3s1.4,1,1.7,1.7c.3.7.6,2.3,1.5,2.4s2.2.8,2.6,1,1.5.8,1.7,1.4c.3.6,1.2,1.5,1.5,1.6s.6.9.8.2c.2-.7-.7-1.6-1-1.8s-2.4-2.2-2.4-2.2Z"/>
    <path class="cls-2" d="M218.2,46.3s-.6-2.7-2-3.3c-1.4-.6-1.8-2-2-2.3-.2-.3-1.4-2.8,0-2.1,1.4.7.5-.2,1.2,2.1.7,2.3,2.2,2.3,2.8,3s0,2.6,0,2.6Z"/>
    <path class="cls-2" d="M253.3,56.6s-.6-2.7-2-3.3c-1.4-.6-1.8-2-2-2.3-.2-.3-1.4-2.8,0-2.1,1.4.7.5-.2,1.2,2.1.7,2.3,2.2,2.3,2.8,3,.6.7,0,2.6,0,2.6Z"/>
    <path class="cls-2" d="M166.3,12.4s-1.1-1.7-2.2-1.2-4.8-2.4-5.3-1.8c-.5.6,4,3,4,3,0,0,1.2-.9,2.4.2,1.2,1.1,3,5.8,3.5,4.9.6-.9-.6-2.3-.6-2.3l-1.8-2.8Z"/>
    <path class="cls-2" d="M170,33.4c.9.7.1-3-1.6-4.1-3.4-2.2-5.3-5.7-6-5.2s2.9,4.1,2.9,4.1l3,1.9s.9,2.6,1.7,3.3Z"/>
    <path class="cls-2" d="M110.1,48.5s-.6-2.4-1.5-1.5c-.9.8-5.3-.9-5.6-.2-.3.7,4.7,1.7,4.7,1.7h2.4Z"/>
    <path class="cls-2" d="M89.6,73.7s-.6-2.4-1.5-1.5c-.9.8-5.3-.9-5.6-.2-.3.7,4.7,1.7,4.7,1.7h2.4Z"/>
    <path class="cls-2" d="M99.2,91.8s-.6-2.4-1.5-1.5c-.9.8-5.3-.9-5.6-.2-.3.7,4.7,1.7,4.7,1.7h2.4Z"/>
    <path class="cls-4" d="M7.9,186.2s0,.8,4.5,1.6,4.5,0,4.5,0c-2-3.6.5-7.4,0-7.4s-2.8-.2-2.8-.2c0,0-2.8,4.8-4.6,5.3-1.7.6-1.6.6-1.6.6Z"/>
    <path class="cls-3" d="M7.9,186.2s4.1.8,4.6.3-1.7-1.1-.9-2.2,1.8-1.5,2.3-1.7,1.8-2.1,2.4-2.2.5,1.1.6,0c.1-1.1.2-4-1.5-3.5-1.7.5-1.7,4.2-3.5,6.1s0,0-2.2,1.6c-.7.5-1.7,1.6-1.7,1.6Z"/>
    <path class="cls-6" d="M147.9,196.3c1.3,2.9-3.8,28.7-4.4,25.7s-.5-11.1-1.3-16.3-2.2-6.4-2.2-9.4,5.7-5.2,7.9,0Z"/>
    <path class="cls-6" d="M262,171.1c4.1,7.8,4.3,18.7,4.3,18.7,0,7.4-6.1-9.4-9.8-17.4s-3-4.2-1.5-4.4,5.4,0,7,3Z"/>
    <path class="cls-6" d="M140.1,258.3s4.9-5.2,3.8-5.2-4.7,3.3-4.7,3.3l-1.6,2.9,2.4-1Z"/>
    <path class="cls-6" d="M205.1,249.6s1.7-5.2,3.2-6.9-.2-2.3-.9-1.4-4.1,7.5-4.1,7.5l1.8.7Z"/>
    <path class="cls-6" d="M256.9,263.5s6.8-5.1,6.8-3.9-4.9,4.8-4.9,4.8l-1.9-.8Z"/>
    <path class="cls-6" d="M104.4,240.3s4.6-5.6,4.4-4.2-2,4.7-2,4.7l-2.4-.5Z"/>
  </g>
</svg>