<?xml version="1.0" encoding="UTF-8"?>
<svg id="Livello_1" data-name="Livello 1" xmlns="http://www.w3.org/2000/svg" version="1.1" viewBox="0 0 56.7 56.7">
  <defs>
    <style>
      .cls-1 {
        fill: #b5ced7;
      }

      .cls-1, .cls-2, .cls-3, .cls-4, .cls-5, .cls-6, .cls-7, .cls-8, .cls-9, .cls-10, .cls-11, .cls-12, .cls-13, .cls-14, .cls-15, .cls-16, .cls-17, .cls-18, .cls-19, .cls-20, .cls-21, .cls-22, .cls-23, .cls-24, .cls-25, .cls-26, .cls-27, .cls-28, .cls-29, .cls-30 {
        stroke-width: 0px;
      }

      .cls-2 {
        fill: #d93939;
      }

      .cls-3, .cls-31 {
        fill: #5c5c5c;
      }

      .cls-4 {
        fill: #466074;
      }

      .cls-5 {
        fill: #399998;
      }

      .cls-6 {
        fill: #c7a496;
      }

      .cls-7 {
        fill: #a8d7ca;
      }

      .cls-8 {
        fill: #a2b5c0;
      }

      .cls-9 {
        fill: #333;
      }

      .cls-10 {
        fill: #ea5959;
      }

      .cls-11 {
        fill: #c8dfe8;
      }

      .cls-12 {
        fill: #554541;
      }

      .cls-13 {
        fill: #db2829;
      }

      .cls-31 {
        stroke: #333;
        stroke-miterlimit: 10;
        stroke-width: .6px;
      }

      .cls-14 {
        fill: #cc944c;
      }

      .cls-15 {
        fill: #e0dedc;
      }

      .cls-16 {
        fill: #e6e5e8;
      }

      .cls-17 {
        fill: #f0c7b5;
      }

      .cls-18 {
        fill: #c0dbe3;
      }

      .cls-19 {
        fill: #e52221;
      }

      .cls-20 {
        fill: #b5b5b5;
      }

      .cls-21 {
        fill: #c0e4f3;
      }

      .cls-22 {
        fill: #372d2a;
      }

      .cls-23 {
        fill: #95a6b0;
      }

      .cls-24 {
        fill: #28201f;
      }

      .cls-25 {
        fill: #d1ddeb;
      }

      .cls-32 {
        opacity: .8;
      }

      .cls-26 {
        fill: #e8f3fc;
      }

      .cls-27 {
        fill: #b6b6b7;
      }

      .cls-28 {
        fill: #584a44;
      }

      .cls-29 {
        opacity: .4;
      }

      .cls-29, .cls-30 {
        fill: #fff;
      }

      .cls-33 {
        fill: none;
        stroke: #fff;
        stroke-linecap: round;
        stroke-linejoin: round;
        stroke-width: 1.5px;
      }
    </style>
  </defs>
  <g>
    <path class="cls-33" d="M20.9,52.3h0c0-.2-.3-.4-.8-.5-.9-.1-1.5-.2-1.5-.2l-1.1-.2v-11.8c0,0,.2-2.3.2-2.3v-1.3c0-.2.2-.4.3-.6.5-1.2-1-11.4-1-11.4v-2c.1,0,.1,0,.1,0v-.2s.2-3.3.2-3.3c2.1-.2,5.4-.5,5.7-.6.4-.2,1.2-.7,1.5-1.8.3-1.1.3-4.2.3-4.2,0,0,0-.3-.3-.6v-.7c0,0,0,0,0-.1l.5-1.4v-1.2c-.1,0-.6-.8-.6-.8l-.7-.2h0c0-.1-.3-.2-.3-.2,0-.1-.1-.2-.1-.2h0s0,0,0,0h0c0-.1-.6-1.8-.6-1.8h0s0,0,0,0h0s0-.2,0-.2l.4-.4-.2-.9h-.3c0-.1,0-.3,0-.3l-.7-.3-.8.2-.3.2-1.3.9c0,0-.1,0-.1,0l-.6.2c-.3,0-.5,0-.6,0,0,0-1.4.5-2.4,1,0,0,0-.2,0-.2,0-.4-.5-1.1-.8-1.4-.3-.3-.7-.6-1.1-.7-.4-.1-1.1-.1-1.5,0-.4,0-.4,0-1,.2-.5.2-.9.3-1.4.7-.6.4-.9,1.1-1,1.3,0,.3-.2,1.1-.2,1.5,0,.4.2.9.3,1.3,0,.2.3.7.5,1.1-.6.4-1.5,1.2-1.9,1.3-.5.2-.6.2-1.4.5-1,.3-1.2,1.4-1,2.1,0,.1,0,.2.1.4h0s1,2.5,1,2.5c0,0,1.3,5,1.3,6,0,1-.7,4.8-.7,4.8,0,0-.3,7.1,0,7.9,0,.3.3.6.6.9,0,1,0,1.9,0,2.3,0,1.2-.8,4.7-.8,6.5,0,1.8.2,8.3.2,8.8s0,.2.2.3c0,0,0,0,0,0-.2.6-.2,1.4,0,1.7,0,0-.1-.1,0,.2.1.3.6.4,1,.3.3-.1.7-.4,1-.9.3-.5.4-.5.6-.7.2-.2.7-.3,1.1-.5.4-.2,1.3-1.2,1.4-1.6.2-.4-.2-.8-.2-.8,0,0,0,0,0,0,0,0,0,0,0,0h0c0,0-.2-.1-.3-.1-.7,0-.8.2-1.2.2l.4-10.4.7-2.2v-1.1c.4,0,.6.1.6.1,0,0,.2,0,.5.1.2.7.3,1.3.3,1.7,0,1.1-.3,4.5-.4,6.1,0,1.6.3,7.6.4,7.8,0,0,0,0,.1.1l-.2.5s0,.4,0,.7c0,.3,0,.7.3.8.6.2,1,.3,1.6.2s1-.4,1-.4l2-.2s1.7-.2,2.1-.7c.2-.3.3-.7.4-.9,0,0,0,0,0,0,0-.1,0-.3,0-.4h0ZM23.7,8.4h0v-.2h.2s-.1.2-.1.2ZM22.7,7.6h0s0,0,0,0h0s0,0,0,0ZM24,7.7l-.2-.2h-.1s0-.1,0-.1h0s.2,0,.2,0v.2ZM21,5l.7-.3.6.2h.1s.6,1.6.6,1.6h.1c0,.1,0,.1,0,.1h0s0,0,0,.2h-.4c0,0-.2.3-.2.3v.4s0,0-.1.2c-.1.4,0,.6,0,.6l.2.5v.2s0,.2,0,.2h0s0,0,0,0c0,0,0,0,0,0h-.1s-.1,0-.3.2c-.1.1-.3.2-.4.5,0,.2,0,.3,0,.3h0s0,.2,0,.5c.1.3.4.5.4.5,0,0,0,0,0,0,0,0,0,.1,0,.2-.1.6-1,3.2-1,3.2h-4.4c0,0-.5,0-.5,0h0s-1.8-1.4-1.8-1.4l-.5-.5c.2,0,.3,0,.3,0,.1,0,0-.8-.2-1,0,0-.3-.1-.5-.1v-.9c0-.3.2-.6.2-.6,0,0,.7.1.9,0,.1,0,.4-.9.6-1.5,1.1-.6,4-2.3,4.2-2.4.1-.2.1-.4.1-.7l.5-.3s0,0,0,0h.8Z"/>
    <path class="cls-33" d="M52.6,49.9c-.5,0-4.9,0-4.9,0l-2.7-5.5c1-.5,1.6-1.4,1.8-2.5,5-4.6,7-11.7,5.5-18.8-1.7-8.1-4.4-9.8-5.2-10.5s-5.5-1.9-5.5-1.9l1.3-4.8s.3-1-2.6-1.8c-2.7-.7-3.4.3-3.4.3l-4.8,18.2,5.7,1.5.2-.8s2.8.7,6.5,2c3.6,1.3,3.8,5,2.3,9-1.5,4-5.5,2.8-5.5,2.8l-1.7-.4-.6,2.4-1.6-.4-2.1,8.2c1.8,0,2.8-.5,2.8-.5l-.2,3.6h-15.1c-.4,0-1,.6-1,1v3.2h31.2v-3.5c0-.5-.2-.7-.7-.8Z"/>
    <rect class="cls-33" x="28.7" y="25.4" width="4.2" height="18.2" transform="translate(-10.3 55.8) rotate(-75.6)"/>
    <rect class="cls-33" x="32.7" y="34.7" width="1.7" height="7.6" transform="translate(-12 61.5) rotate(-75.6)"/>
    <rect class="cls-33" x="32.2" y="18.2" width="2.9" height="12.7" transform="translate(1.5 51.1) rotate(-75.6)"/>
    <path class="cls-33" d="M29.3,28.6c.7.2,1.2,0,1.2,0l.8-3.1-2.1-.5-.8,3.1s.3.3,1,.5Z"/>
    <path class="cls-33" d="M32.5,29c.5.1.7,0,.7,0l.7-2.7-1.4-.3-.7,2.7s.2.2.6.3Z"/>
    <path class="cls-33" d="M35.3,31c.9.2,1.6.2,1.6.2l1-3.9-2.9-.7-1,3.9s.4.3,1.3.6Z"/>
  </g>
  <g>
    <g>
      <path class="cls-12" d="M17.1,51.7l1.4.2,1.9.8.4-.4s0,.9-.4,1.4c-.4.5-2.1.7-2.1.7l-2,.2s-.4.2-1,.4c-.6.1-1.1,0-1.6-.2-.6-.2-.2-1.1-.2-1.1v-.2s1.9-1.9,1.9-1.9l1.8.2Z"/>
      <path class="cls-12" d="M10.5,50.9h.3c0,0,1.6-.4,1.6-.4,0,0,.4.4.3.8-.2.4-1.1,1.4-1.4,1.6-.4.2-.9.3-1.1.5-.2.2-.3.3-.6.7-.3.5-.7.7-1,.9-.3.2-.8,0-1-.3-.1-.3,0-.2,0-.2l.6-2.4,2.4-1.3Z"/>
      <path class="cls-24" d="M15.4,51.3l1.8.2,1.4.2s.6,0,1.5.2c.9.1.9.6.8.9-.1.3-.4.8-.8,1.1-.7.3-.8.3-1.6.4-.9,0-1.7,0-2,.2-.3.1-.3,0-1,.4-.7.3-1.2,0-1.6-.2-.4-.2-.3-1.3-.3-1.3l.4-1,1.7-.9Z"/>
      <path class="cls-24" d="M8.1,52l1.8-1.4s.3,0,.8,0,.6-.2,1.3-.2c.7,0,.4,1,.4,1,0,0-.8,1-1.2,1.3-.4.3-.9.2-1.1.4-.2.3-.4.4-.6.8-.2.4-.7.6-.9.7-.2.1-.9.2-1-.1-.2-.3-.2-1.1,0-1.7.2-.6.6-.8.6-.8Z"/>
      <path class="cls-22" d="M7.6,30.7l1.9-6.2,3.2.7v7.6s-.7,5.1-.7,5.1l-.7,2.2-.5,10.9s0,.7-.4,1.1c-.3.4-.9.7-1.4.8-.5,0-1.6,0-1.6-.4s-.2-6.9-.2-8.8c0-1.8.7-5.3.8-6.5,0-1.2-.3-6.6-.3-6.6Z"/>
      <path class="cls-22" d="M17.7,37.4l-.3,2.3v11.9c0,0-.2.8-.8,1.1-.6.3-1.4.6-2,.5-.5-.1-1.2-.3-1.3-.6-.1-.2-.5-6.2-.4-7.8,0-1.6.5-5,.4-6.1,0-1.1-1.3-5.4-1.3-5.4l-.9-2.8,6.4,1.1.2,5.8Z"/>
      <path class="cls-30" d="M6.5,10.6c.8-.2.9-.3,1.4-.5.5-.2,2.3-1.7,2.3-1.7l1.1,3.5-4.7,2.8s-1-1.4-1.2-2.1c-.2-.6,0-1.8,1-2.1Z"/>
      <path class="cls-15" d="M10.3,9.3v1.8c0,0-1.2.7-1.2.7,0,0-1.5,0-1.2-.4.4-.4,1-.6,1.4-.9.5-.4,1-1.2,1-1.2Z"/>
      <polygon class="cls-6" points="23 3.1 23.3 4 22.7 4.5 22.1 4.4 21.9 3.4 22.7 3 23 3.1"/>
      <polygon class="cls-6" points="22.2 3 22.5 3.3 22.6 3.7 22.4 4.3 22 4.3 21.4 3.8 21.3 3.2 21.8 3 22.2 3"/>
      <polygon class="cls-17" points="22 2.5 22.7 2.8 23 3.5 22.9 4.2 22.8 4.6 22.5 4.5 22.4 4 22.5 3.5 22 3.2 21.4 3.5 21 2.9 21.3 2.7 22 2.5"/>
      <g>
        <g>
          <polygon class="cls-26" points="22.6 4.5 22.7 4.5 22.7 4.6 22.6 4.7 22.5 4.7 22.4 4.7 22.4 4.6 22.4 4.6 22.6 4.5"/>
          <polygon class="cls-1" points="23.2 6.4 23.3 6.5 23.2 6.5 23.1 6.4 22.5 4.7 22.6 4.7 23.2 6.4"/>
          <polygon class="cls-8" points="23.1 6.4 23.2 6.5 23.1 6.5 23 6.4 22.4 4.7 22.5 4.7 23.1 6.4"/>
          <polygon class="cls-11" points="23.3 6.3 23.3 6.4 23.3 6.5 23.2 6.4 22.6 4.7 22.7 4.6 23.3 6.3"/>
          <polygon class="cls-8" points="22.6 4.6 22.7 4.5 22.7 4.7 22.7 4.8 22.5 4.8 22.4 4.8 22.4 4.7 22.5 4.7 22.6 4.6"/>
        </g>
        <g class="cls-32">
          <polygon class="cls-10" points="22.8 5.3 22.9 5.3 23 5.4 22.9 5.5 22.8 5.5 22.7 5.5 22.7 5.4 22.7 5.3 22.8 5.3"/>
          <polygon class="cls-19" points="22.8 5.5 22.9 5.5 23 5.4 23.3 6.3 23.3 6.4 23.2 6.5 23.2 6.5 23.1 6.5 23 6.4 22.7 5.5 22.8 5.5"/>
        </g>
        <polygon class="cls-14" points="22.5 4.8 22.4 4.8 22.3 4.6 22.5 4.7 22.5 4.8"/>
        <polygon class="cls-5" points="22.1 3.9 22.1 3.7 22.1 3.7 22.2 3.6 22.3 3.6 22.4 3.7 22.4 3.8 22.6 4.4 22.7 4.4 22.7 4.5 22.8 4.6 22.7 4.7 22.5 4.8 22.5 4.7 22.3 4.6 22.3 4.6 22.3 4.5 22.1 3.9 22.1 3.9"/>
      </g>
      <polygon class="cls-17" points="21 2.9 22 3.9 22.5 4.3 22.6 4.6 22.6 4.8 22.3 4.9 21.7 4.7 21 5 20.2 5 19.6 4.2 19.6 3.9 21 2.9"/>
      <path class="cls-5" d="M19.9,4c.2.2.3.4.3.6,0,.3,0,.5,0,.5l-1.4.8-.7-1.5,1.4-.6s.2,0,.4,0Z"/>
      <path class="cls-30" d="M18.3,4.1c.1,0,.6,0,.9.2.3.2.5.5.5.9,0,.4,0,.7-.1.9-.2.2-4.5,2.6-4.5,2.6l-1.2-.9.9-2.3s3.4-1.4,3.6-1.4Z"/>
      <path class="cls-17" d="M10.6,7.9l2.5-.4,1.8,1.4-.9,1.1s-.2.3-.2.6v1.3h-1.6s-1.3-.4-1.3-.4l-.9-.9.2-1.2.4-1.5Z"/>
      <path class="cls-30" d="M9.5,10.9l.8.4.9.5,2.2.2.7.6.5.5,1.8,1.4.8,4-.3,5.6s1.6,10.2,1,11.4c-.5,1.2-1,1.2-1,1.2,0,0-.6.4-1.9.6-1.3.1-2.6-.3-2.6-.3,0,0-2.5-.7-2.7-1.1-.2-.4-.1-3.8-.1-3.8,0,0,.1-2.2,0-1.8,0,.1-.3.9-.3,1.7-.1,1.5-.1,3.5-.3,3.6-.2.2-1.7-.6-1.9-1.4-.2-.8,0-7.9,0-7.9,0,0,.6-3.8.7-4.8,0-1-1.3-6-1.3-6l-1-2.5,2.3-1.6,1.5-.5Z"/>
      <path class="cls-15" d="M17.3,18.6v.6s-.2,3-.2,3c0,0-.4-2-.5-2.6-.1-.6-.9-.8-.9-.8l.9-.6.7.4Z"/>
      <polygon class="cls-6" points="24.1 7.8 24 8.2 23.5 8.1 23.5 7.5 23.8 7.6 24.1 7.8"/>
      <polygon class="cls-17" points="24.4 7.1 24.8 7.9 24.1 8.1 24 7.9 24 7.5 23.6 7.4 23.6 6.9 24.4 7.1"/>
      <g>
        <g>
          <polygon class="cls-23" points="23.2 11.4 23.5 11.3 23.8 11.3 23.5 11.4 23.2 11.5 22.8 11.4 22.6 11.3 22.8 11.3 23.2 11.4"/>
          <path class="cls-8" d="M21.9,10.1l.4.2.4.5h1s.4-.5.4-.5h.3c0,0,0,.3,0,.3l-.3.5-.2.2h-.6c0,.1-.5,0-.6,0-.1,0-.2-.2-.2-.2,0,0-.3-.2-.4-.5-.1-.3,0-.5,0-.5Z"/>
          <path class="cls-18" d="M21.9,9.8c0-.3.2-.4.4-.5.1-.1.3-.1.3-.1h0c0,.1,0,.4,0,.4l.3.3h.6s.3-.3.3-.3v-.3s0-.1,0-.1l.2.2.3.5v.4c0,0-.3.5-.3.5l-.9.2-.9-.2-.4-.5s0-.1,0-.4Z"/>
          <polygon class="cls-25" points="22.8 9.1 22.8 9.2 22.8 9.3 23.1 9.4 23.3 9.4 23.5 9.3 23.6 9.2 23.5 9.1 23.8 9.1 24 9.5 23.8 9.8 23.2 10 22.6 9.8 22.3 9.5 22.6 9.1 22.8 9.1"/>
          <polygon class="cls-21" points="23 9 23 9.1 23 9.2 23.1 9.2 23.3 9.2 23.4 9.2 23.4 9.1 23.4 9 23.5 9.1 23.7 9.3 23.5 9.5 23.2 9.5 22.8 9.5 22.7 9.3 22.8 9.1 23 9"/>
        </g>
        <g>
          <polygon class="cls-11" points="23.5 9.5 23.2 9.5 23.2 7.7 23.5 7.6 23.5 9.5"/>
          <polygon class="cls-18" points="23.7 9.3 23.5 9.5 23.5 7.6 23.7 7.4 23.7 9.3"/>
          <polygon class="cls-1" points="23.2 9.5 22.8 9.5 22.8 7.6 23.2 7.7 23.2 9.5"/>
          <polygon class="cls-8" points="22.8 9.5 22.7 9.3 22.7 7.4 22.8 7.6 22.8 9.5"/>
          <polygon class="cls-26" points="23.2 7.1 23.5 7.2 23.7 7.4 23.5 7.6 23.2 7.7 22.8 7.6 22.7 7.4 22.8 7.2 23.2 7.1"/>
          <polygon class="cls-8" points="23.2 7.6 23.5 7.5 23.7 7.4 23.7 7.6 23.5 7.8 23.2 7.9 22.8 7.8 22.7 7.6 22.7 7.4 22.8 7.5 23.2 7.6"/>
        </g>
        <g class="cls-32">
          <polygon class="cls-23" points="23.2 11.3 23.5 11.2 23.7 11.2 23.5 11.3 23.2 11.3 22.9 11.3 22.6 11.2 22.9 11.2 23.2 11.3"/>
          <polygon class="cls-10" points="23.6 11 23.9 11 23.7 11.2 23.2 11.3 22.6 11.2 22.5 11 22.7 11 23.6 11"/>
          <polygon class="cls-10" points="22.7 10.7 23.6 10.7 24 10.3 24.3 10.3 24.2 10.6 23.9 11 23.2 11.2 22.5 11 22.2 10.6 22.1 10.3 22.4 10.3 22.7 10.7"/>
          <polygon class="cls-10" points="22.4 9.9 22.8 10.3 23.5 10.3 24 9.9 24.2 9.9 24.3 10.3 23.9 10.7 23.2 10.9 22.4 10.7 22.1 10.3 22.2 9.9 22.4 9.9"/>
          <path class="cls-2" d="M23.2,9.3l.7.2.3.4-.3.4s-.5.1-.7.2c-.2,0-.5,0-.7-.2-.3-.2-.3-.4-.3-.4l.3-.4.7-.2Z"/>
          <polygon class="cls-29" points="23.2 9.8 23.3 9.9 23.3 9.9 23.2 10 23.1 10 23 9.9 23 9.9 23.1 9.8 23.2 9.8"/>
          <polygon class="cls-29" points="23.8 9.7 23.9 9.7 23.9 9.8 23.8 9.8 23.7 9.8 23.6 9.8 23.6 9.7 23.7 9.7 23.8 9.7"/>
          <polygon class="cls-29" points="23.5 9.5 23.5 9.5 23.5 9.6 23.5 9.6 23.4 9.6 23.3 9.6 23.3 9.5 23.4 9.5 23.5 9.5"/>
          <polygon class="cls-29" points="23.6 10 23.8 10 23.8 10.1 23.6 10.2 23.5 10.2 23.4 10.1 23.4 10 23.5 10 23.6 10"/>
        </g>
        <path class="cls-8" d="M22.7,9.3s0,0,0,0c0,0,0,0,0,0,0,0,.1,0,.2,0,0,0,.1,0,.2,0,0,0,0,0,.1,0,0,0,0,0,.1,0,0,0,0,0-.1,0,0,0,0,0-.1,0h0s0,0,0,0c0,0-.1,0-.2,0,0,0-.1,0-.2,0h0s0,0,0,0c0,0,0,0,0-.1,0,0,0,0,0-.1h0c0,0,0-.1,0-.2,0,0,0,0,0,.1Z"/>
        <g>
          <polygon class="cls-11" points="23.6 7.7 23.2 7.8 23.2 7.4 23.6 7.3 23.6 7.7"/>
          <polygon class="cls-18" points="23.8 7.5 23.6 7.7 23.6 7.3 23.8 7.1 23.8 7.5"/>
          <polygon class="cls-1" points="23.2 7.8 22.8 7.7 22.8 7.3 23.2 7.4 23.2 7.8"/>
          <polygon class="cls-8" points="22.8 7.7 22.6 7.5 22.6 7.1 22.8 7.3 22.8 7.7"/>
          <polygon class="cls-30" points="23.2 6.7 23.6 6.8 23.8 7.1 23.6 7.3 23.2 7.4 22.8 7.3 22.6 7.1 22.8 6.8 23.2 6.7"/>
          <polygon class="cls-1" points="23.2 6.8 23.5 6.9 23.6 7.1 23.5 7.2 23.2 7.3 22.9 7.2 22.7 7.1 22.9 6.9 23.2 6.8"/>
        </g>
      </g>
      <path class="cls-17" d="M15.6,5.9s.1.5,0,.7c0,.2-.2.4-.2.4,0,0,.1.6.1.8,0,.2-.5,2-.7,2.2-.2.2-1,0-1,0l-.3-.8-.8-.9.8-2.8,2,.3Z"/>
      <path class="cls-28" d="M10.1,3.6c.6-.4.9-.5,1.4-.7.5-.2.6-.2,1-.2.4,0,1.2,0,1.5,0,.4.1.8.4,1.1.7.3.3.8,1,.8,1.4,0,.4,0,.8-.2,1-.1.2-.9,1-.9,1.1v.9l-.2.2s-.1-.5-.2-.4c-.1,0-.3.1-.4.3-.1.1-.3.7-.3.7,0,0,0,.5,0,.7,0,.1-.6.7-.9.8-.3,0-.7.1-1,.1-.3,0-.9,0-1.1-.1-.2,0-.6-.6-.7-.7,0-.1-.6-1.2-.7-1.5-.1-.3-.2-.8-.3-1.3,0-.4,0-1.3.2-1.5,0-.3.4-.9,1-1.3Z"/>
      <path class="cls-17" d="M23,8.2l.3.2h.3s.3-.5.3-.5h.8s.1,1.2.1,1.2l-.6,1.6-1.2-.2v-.2c-.1,0-.2-.4-.2-.4v-.3c-.1,0-.3-.9-.3-.9l-.2-.5s0-.1,0-.6c.1-.4.2,0,.2,0l.4.6Z"/>
      <path class="cls-5" d="M23.4,10c.3,0,.5,0,.7.1.2.2.4.5.4.5v1c0,0-1.6-.4-1.6-.4v-.9c.1,0,.2-.3.6-.3Z"/>
      <path class="cls-30" d="M15.2,14.2l1.7.5h4.4c0,0,.9-2.7,1-3.3.1-.6.7-.7.7-.7,0,0,.5-.2,1,0,.4.3.7,1.1.7,1.1,0,0,0,3.1-.3,4.2-.3,1.1-1.1,1.6-1.5,1.8-.4.2-7.3.8-7.3.8l-1.3-.6-.6-1.3v-1.6c.1,0,1.6-1,1.6-1Z"/>
      <path class="cls-7" d="M10.2,10.6s.5.6,1.2.7c.7.1.4,0,1.2.1.8,0,1.5,0,1.6.2.2.2.3.9.2,1-.1,0-1.6,0-2,0-.4,0-1.1-.2-1.6-.4-.5-.2-.9-.5-1.1-.7-.2-.2-.3-.6-.3-.6l.5-.7.3.5Z"/>
      <path class="cls-13" d="M23.4,7c0,.2-.2.2-.2.2,0,0-.1,0-.2-.1,0-.1.2-.5.2-.5,0,0,.2.3.2.5Z"/>
    </g>
    <g>
      <path class="cls-16" d="M22.1,54.1v-3.2c0-.4.6-1,1-1h15.1l.2-3.6s-1,.6-2.8.5l2.1-8.2,1.6.4.6-2.4,1.7.4s4,1.2,5.5-2.8c1.5-4,1.4-7.7-2.3-9-3.6-1.3-6.5-2-6.5-2l-.2.8-5.7-1.5,4.8-18.2s.7-1,3.4-.3c2.9.8,2.6,1.8,2.6,1.8l-1.3,4.8s4.7,1.3,5.5,1.9,3.5,2.4,5.2,10.5c1.7,8.1-1.1,16.1-7.7,20.5l3.1,6.3s4.4,0,4.9,0,.7.3.7.8v3.5h-31.2Z"/>
      <rect class="cls-4" x="21.7" y="32.4" width="18.2" height="4.2" transform="translate(9.5 -6.6) rotate(14.4)"/>
      <rect class="cls-3" x="29.8" y="37.6" width="7.6" height="1.7" transform="translate(10.6 -7.1) rotate(14.4)"/>
      <path class="cls-4" d="M42.6,11.1l-.5,2s-.6.4-1,1.4c-.4,1,0,1.9,0,1.9l-1.9,6.9-.9-.3,3.3-12.2.9.3Z"/>
      <rect class="cls-3" x="27.3" y="23.1" width="12.7" height="2.9" transform="translate(7.1 -7.6) rotate(14.4)"/>
      <path class="cls-20" d="M30.5,28.7s-.5,0-1.2,0-1-.5-1-.5l.8-3.1,2.1.5-.8,3.1Z"/>
      <path class="cls-20" d="M33.2,29s-.3,0-.7,0-.6-.3-.6-.3l.7-2.7,1.4.3-.7,2.7Z"/>
      <path class="cls-20" d="M36.9,31.2s-.6,0-1.6-.2-1.3-.6-1.3-.6l1-3.9,2.9.7-1,3.9Z"/>
      <path class="cls-27" d="M38.4,46l.5-4.6s-.2,0-.3.6-.5,2.8-.8,3.5-1.8.8-2,1.1c0,0,.7,0,1.5-.2s1.2-.5,1.2-.5Z"/>
      <path class="cls-27" d="M47.4,49.9l-2.3-4.7s-.3,0-.1.6,1,2.2.7,2.9-2.3.8-3.4.9c-1.3,0-.5.3-.5.3h5.6Z"/>
      <path class="cls-27" d="M39.4,23.3s5.7,1.7,6.7,2.5c-.7-.6-4.3-2.4-4.7-2.7s-1-.9-.6-2.3,0-2.6,0-2.6l-1.4,5.2Z"/>
      <path class="cls-20" d="M40.2,4.4l-4.9,18.4,2.4.6,4.8-17.8s-.3-.8-2.3-1.3Z"/>
      <g>
        <path class="cls-3" d="M43.7,17.8c-1.3,0-2.4-1.1-2.4-2.4s1.1-2.4,2.4-2.4,2.4,1.1,2.4,2.4-1.1,2.4-2.4,2.4Z"/>
        <path class="cls-9" d="M43.7,13.2c1.2,0,2.2,1,2.2,2.2s-1,2.2-2.2,2.2-2.2-1-2.2-2.2,1-2.2,2.2-2.2M43.7,12.7c-1.4,0-2.6,1.2-2.6,2.6s1.2,2.6,2.6,2.6,2.6-1.2,2.6-2.6-1.2-2.6-2.6-2.6h0Z"/>
      </g>
      <circle class="cls-31" cx="43.3" cy="41.3" r="3.5"/>
    </g>
  </g>
</svg>