<?xml version="1.0" encoding="UTF-8"?><svg id="Complications" xmlns="http://www.w3.org/2000/svg" viewBox="0 0 32 32"><defs><style>.cls-1{fill:#d88470;}.cls-1,.cls-2,.cls-3,.cls-4,.cls-5,.cls-6,.cls-7,.cls-8,.cls-9,.cls-10{stroke-width:0px;}.cls-2{fill:none;}.cls-3{fill:#dfdfe1;}.cls-4{fill:#c3c4c9;}.cls-5{fill:#48403d;}.cls-6{fill:#eed1c0;}.cls-7{fill:#69796f;}.cls-8{fill:#f1f1f3;}.cls-9{fill:#fff;}.cls-10{fill:#e4c2af;}</style></defs><rect class="cls-2" width="32" height="32"/><path class="cls-9" d="M20.68,23.76c-1.14,0-2.48-.02-4.1-.07-6.22-.2-9.33-.34-10.11-.46-.69-.1-.98-.43-1.1-.7-.16-.35-.09-.68-.01-.88.04-.63.19-1.63.31-2.39-1.25-.04-3.16-.46-3.78-.6-.39.14-.68.2-.92.2-.42,0-.65-.19-.77-.34-.28-.36-.18-.79-.14-.93.01-.06.04-.16.07-.26l.06-.18.14-.13c.11-.1,1.18-.99,3.42-.99.1,0,.2,0,.3,0,.44-.12.88-.2,1.31-.24-.46-.42-.73-.85-.75-1.85-.03-1.76.83-3.35,2.19-4.06.2-.13,1.03-.62,2.06-.62.68,0,1.3.21,1.84.62l.07.05.02.02s.08.04.2.04c.04,0,.09,0,.15-.01l.22-.04c.2-.04.34-.06.48-.06.31,0,.71.13.88.74.02.07.05.07.09.08.23.06.44.21.56.42.12.04.25.12.36.26.19.23.32.62.39,1.03.03-.1.07-.21.11-.33.06-.2.21-.61.38-.98-.14-.24-.22-.52-.23-.8-.02-.93.71-1.68,1.62-1.7h0c.46,0,.88.18,1.18.5.11.09.21.22.28.37.07.12.1.23.12.31.17.51.19,1.23.06,2.17.38.01.75.05,1.12.12-.17-.86-.3-2.04.08-2.75.18-.34.45-.57.8-.67.16-.05.33-.07.52-.07.4,0,.83.11,1.19.22.26-.55.72-.99,1.4-.99.16,0,.33.02.49.08,1.57.44,1.59,2.01,1.6,2.68v.21c.02.44.04,1.05-.37,1.48-.17.17-.47.38-.99.38-.05,0-.11,0-.17,0,.3.47.56,1.01.73,1.6,0,0,0,.02.01.03l.05.05.03.23c0,.06.02.11.03.17.02.09.03.17.05.27.04.38-.01.84-.29,1.34.69-.1,1.33-.16,1.94-.16.72,0,1.38.09,2.01.26.48-.04.92-.05,1.3-.05.67,0,2.37,0,2.58,1.08.16.28.39.8.22,1.28-.11.31-.35.53-.68.63-.09.03-.18.04-.28.04h0c-.33,0-.75-.14-1.36-.37-.28.04-.52.1-.73.16-.47.15-1.74.28-2.93.36.07.36.13.78.17,1.17.07.17.51,1.4-.08,2.24-.31.45-.93.82-5.37.82Z"/><path class="cls-6" d="M23.11,11.94c-1.12-.22-1.83-.64-1.92-.69.19.15,1.73,1.46,2.2,3.24.02.03.03.05.03.08,0,.02,0,.03.02.05.02.15.06.28.08.43.01.15,0,.3-.03.44-.7.52-3.76,1.62-6.22,1.38-2.46-.23-5.5.37-5.92-.18-.42-.56-.81-1.11-1.91-.71-1.07.39-3.3-.44-3.41-.49h0c-.48-.4-.74-.62-.76-1.57-.03-1.57.76-2.91,1.86-3.47,0,0,1.69-1.16,3.16-.04,0,0,.26.33.93.23.68-.11.75-.18.85.16.1.32.31.5.6.56,0,0,.18.05.12.3,0,0,.02.18.27.09.27-.1.54,1.02.41,1.76,0,0,.07.14.12.24h0c.3-.21.61-.4,1-.58,0,0,.11-.41.27-.86.16-.47.37-1,.55-1.27-.21-.18-.34-.45-.35-.75,0-.55.42-1,.96-1.01.29,0,.54.12.71.32.05.03.1.1.14.18.03.05.05.12.07.18.14.42.21,1.19-.1,2.66t-.01.03c.15-.02.3-.04.43-.04.88-.01,1.67.12,2.38.36.01-.01.03-.01.03-.03-.04-.12-1.01-3.31.15-3.65.72-.2,1.96.42,1.96.42,0,0,.14-1.5,1.26-1.17,1.14.32,1.11,1.5,1.12,2.12.01.64.15,1.51-1.03,1.28Z"/><path class="cls-10" d="M23.49,15.5c-.58,2.74-9.03,4.54-12.02,2.37-.73-.55-1.31-1.72-1.49-1.2-.11.31-1.52.29-2.38-.15-.01,0-.02-.02-.02-.02-.18-.08-.32-.18-.47-.23-.02,0-.02-.01-.04-.03-.03-.01-.09-.05-.12-.07-.12-.06-.22-.13-.32-.19-.05-.03-.1-.05-.14-.08-.03,0-.05-.02-.07-.05h-.01c-.14-.14-.27-.25-.38-.34.12.05,2.34.88,3.41.49,1.1-.4,1.49.16,1.91.71.42.55,3.45-.05,5.92.18,2.46.24,5.52-.86,6.22-1.38Z"/><path class="cls-8" d="M.76,17.52s1.58-1.4,5.18-.55,9.67,2.22,15.42,1.09c5.75-1.13,9.71-1.44,9.71-.4s-.55.59-2.06.27-9.64,1.19-9.64,1.19l-15.48-1.5s-3.82.66-3.13-.09Z"/><path class="cls-4" d="M6.02,21.81s-.38.62.55.76,5.64.31,10.03.45,8.49.14,8.9-.45,0-1.63,0-1.63l-19.49.86Z"/><path class="cls-3" d="M6.51,18.31s-.45,2.53-.48,3.49,10.1.66,14.32.73,5.09.14,5.16-.93-.48-3.29-.48-3.29H6.51Z"/><path class="cls-4" d="M1.85,17.96s2.62.63,4,.63,10.07.52,13.53.52,8.47-.3,9.31-.57,1.73-.26,1.73-.26c0,0-3.98-2.17-7.51-.67-3.53,1.5-11.45.3-12.91,0s-4.37-2.01-8.15.35Z"/><path class="cls-3" d="M.76,17.52s.03.45,1.14,0,3.63-1.7,6.23-.76,7.3,1.88,11.52,1.04,6.33-1.43,8.65-.53,2.46,1.15,2.77.39c0,0,.59.86,0,1.04s-3.88-1.79-6.5-1.14-5.88,1.54-9.86,1.15-5.61-1.05-7.06-1.39-2.73-.75-4.98.3-2.08.46-1.9-.09Z"/><rect class="cls-4" x="13.09" y="17.72" width="2.18" height="6.18" rx=".83" ry=".83" transform="translate(34.98 6.63) rotate(90)"/><rect class="cls-1" x="11.35" y="19.98" width="5.66" height="1.66" rx=".78" ry=".78"/><circle class="cls-7" cx="19.13" cy="20.73" r=".44"/><circle class="cls-7" cx="20.92" cy="20.73" r=".44"/><circle class="cls-7" cx="22.59" cy="20.73" r=".44"/><path class="cls-3" d="M13.12,20.5h.14v.54h.33v.12h-.47v-.66Z"/><path class="cls-3" d="M13.98,21.18c-.09,0-.17-.03-.22-.08-.07-.06-.1-.15-.1-.27s.03-.21.1-.27c.05-.05.12-.08.22-.08s.17.03.22.08c.07.06.1.15.1.27s-.03.21-.1.27c-.05.05-.12.08-.22.08ZM14.11,21s.05-.1.05-.17-.02-.13-.05-.17-.08-.06-.13-.06-.1.02-.13.06-.05.1-.05.17.02.13.05.17.08.06.13.06.1-.02.13-.06Z"/><path class="cls-3" d="M15.04,20.5h.14l-.19.66h-.13l-.08-.39-.02-.13-.02.13-.08.39h-.13l-.19-.66h.15l.09.38.02.11.02-.1.07-.38h.15l.08.38.02.11.02-.1.09-.38Z"/><path class="cls-5" d="M10.3,10.69s.18.53-.16.82c0,0,.5-.33.16-.82Z"/></svg>