<?xml version="1.0" encoding="UTF-8"?>
<svg id="Livello_1" data-name="Livello 1" xmlns="http://www.w3.org/2000/svg" version="1.1" viewBox="0 0 76.5 76.5">
  <defs>
    <style>
      .cls-1 {
        fill: #f2c4b1;
      }

      .cls-1, .cls-2, .cls-3, .cls-4, .cls-5, .cls-6, .cls-7, .cls-8, .cls-9 {
        stroke-width: 0px;
      }

      .cls-2 {
        fill: #e1e1e3;
      }

      .cls-3 {
        fill: #c5c6cb;
      }

      .cls-4 {
        fill: #493e3a;
      }

      .cls-5 {
        fill: #627a6f;
      }

      .cls-6 {
        fill: #fad3c2;
      }

      .cls-7 {
        fill: #f28670;
      }

      .cls-8 {
        fill: #f2f2f4;
      }

      .cls-9 {
        fill: #fff;
      }
    </style>
  </defs>
  <path class="cls-9" d="M48.2,57.5c-2.4,0-5.2,0-8.7-.2-13.2-.4-19.8-.7-21.4-1-1.5-.2-2.1-.9-2.3-1.5-.3-.7-.2-1.4,0-1.9,0-1.3.4-3.4.7-5.1-2.6,0-6.7-1-8-1.3-.8.3-1.4.4-2,.4-.9,0-1.4-.4-1.6-.7-.6-.8-.4-1.7-.3-2,0-.1,0-.3.1-.5v-.4c.1,0,.4-.3.4-.3.2-.2,2.5-2.1,7.3-2.1s.4,0,.6,0c.9-.2,1.9-.4,2.8-.5-1-.9-1.6-1.8-1.6-3.9,0-3.7,1.7-7.1,4.6-8.6.4-.3,2.2-1.3,4.4-1.3s2.8.4,3.9,1.3h.1c0,.1,0,.2,0,.2,0,0,.2,0,.4,0s.2,0,.3,0h.5c.4-.2.7-.2,1-.2.7,0,1.5.3,1.9,1.6,0,.1.1.2.2.2.5.1.9.4,1.2.9.2,0,.5.3.8.6.4.5.7,1.3.8,2.2,0-.2.1-.5.2-.7.1-.4.4-1.3.8-2.1-.3-.5-.5-1.1-.5-1.7,0-2,1.5-3.6,3.4-3.6h0c1,0,1.9.4,2.5,1.1.2.2.4.5.6.8.1.2.2.5.3.7.4,1.1.4,2.6.1,4.6.8,0,1.6.1,2.4.2-.4-1.8-.6-4.3.2-5.8.4-.7,1-1.2,1.7-1.4.3,0,.7-.1,1.1-.1.9,0,1.8.2,2.5.5.5-1.2,1.5-2.1,3-2.1s.7,0,1,.2c3.3.9,3.4,4.3,3.4,5.7v.4c0,.9,0,2.2-.8,3.1-.4.4-1,.8-2.1.8s-.2,0-.4,0c.6,1,1.2,2.1,1.5,3.4,0,0,0,0,0,0h.1c0,.1,0,.6,0,.6,0,.1,0,.2,0,.4,0,.2,0,.4,0,.6,0,.8,0,1.8-.6,2.8,1.5-.2,2.8-.3,4.1-.3s2.9.2,4.3.6c1,0,1.9-.1,2.7-.1,1.4,0,5,0,5.5,2.3.3.6.8,1.7.5,2.7-.2.6-.7,1.1-1.4,1.3-.2,0-.4,0-.6,0h0c-.7,0-1.6-.3-2.9-.8-.6,0-1.1.2-1.5.3-1,.3-3.7.6-6.2.8.1.8.3,1.6.4,2.5.1.4,1.1,3-.2,4.7-.7.9-2,1.7-11.4,1.7Z"/>
  <g>
    <path class="cls-6" d="M53.3,32.5c-2.4-.5-3.9-1.4-4.1-1.5.4.3,3.7,3.1,4.7,6.9,0,0,0,.1,0,.2s0,0,0,.1c0,.3.1.6.2.9,0,.3,0,.6,0,.9-1.5,1.1-8,3.4-13.2,2.9-5.2-.5-11.6.8-12.5-.4-.9-1.2-1.7-2.4-4-1.5-2.3.8-7-.9-7.2-1h0c-1-.8-1.6-1.3-1.6-3.3,0-3.3,1.6-6.2,3.9-7.4,0,0,3.6-2.5,6.7,0,0,0,.5.7,2,.5,1.5-.2,1.6-.4,1.8.3.2.7.7,1.1,1.3,1.2,0,0,.4,0,.3.6,0,0,0,.4.6.2.6-.2,1.1,2.2.9,3.7,0,0,.2.3.3.5h0c.6-.4,1.3-.8,2.1-1.2,0,0,.2-.9.6-1.8.3-1,.8-2.1,1.2-2.7-.4-.4-.7-.9-.8-1.6,0-1.2.9-2.1,2-2.1.6,0,1.1.3,1.5.7.1,0,.2.2.3.4,0,.1.1.2.2.4.3.9.4,2.5-.2,5.6t0,0c.3,0,.6,0,.9,0,1.9,0,3.5.3,5,.8,0,0,0,0,0,0,0-.2-2.1-7,.3-7.7,1.5-.4,4.1.9,4.1.9,0,0,.3-3.2,2.7-2.5,2.4.7,2.3,3.2,2.4,4.5,0,1.4.3,3.2-2.2,2.7Z"/>
    <path class="cls-1" d="M54.1,40c-1.2,5.8-19.1,9.6-25.5,5-1.6-1.2-2.8-3.6-3.2-2.5-.2.7-3.2.6-5-.3,0,0,0,0,0,0-.4-.2-.7-.4-1-.5,0,0,0,0,0,0,0,0-.2,0-.2-.1-.2-.1-.5-.3-.7-.4-.1,0-.2,0-.3-.2,0,0-.1,0-.1-.1h0c-.3-.3-.6-.5-.8-.7.2.1,5,1.9,7.2,1,2.3-.9,3.2.3,4,1.5.9,1.2,7.3-.1,12.5.4,5.2.5,11.7-1.8,13.2-2.9Z"/>
    <path class="cls-8" d="M6,44.3s3.3-3,11-1.2c7.6,1.8,20.5,4.7,32.7,2.3,12.2-2.4,20.6-3.1,20.6-.9s-1.2,1.3-4.4.6-20.4,2.5-20.4,2.5l-32.8-3.2s-8.1,1.4-6.6-.2Z"/>
    <path class="cls-3" d="M17.1,53.4s-.8,1.3,1.2,1.6,11.9.7,21.3,1,18,.3,18.8-1,0-3.4,0-3.4l-41.3,1.8Z"/>
    <path class="cls-2" d="M18.2,46s-1,5.3-1,7.4c0,2.1,21.4,1.4,30.3,1.5s10.8.3,10.9-2c.1-2.3-1-7-1-7H18.2Z"/>
    <path class="cls-3" d="M8.3,45.3s5.5,1.3,8.5,1.3,21.3,1.1,28.7,1.1,17.9-.6,19.7-1.2,3.7-.5,3.7-.5c0,0-8.4-4.6-15.9-1.4-7.5,3.2-24.3.6-27.3,0-3.1-.6-9.3-4.2-17.3.7Z"/>
    <path class="cls-2" d="M6,44.3s0,1,2.4,0,7.7-3.6,13.2-1.6c5.5,2,15.5,4,24.4,2.2s13.4-3,18.3-1.1,5.2,2.4,5.9.8c0,0,1.2,1.8,0,2.2s-8.2-3.8-13.8-2.4-12.5,3.3-20.9,2.4c-8.4-.8-11.9-2.2-15-3s-5.8-1.6-10.6.6c-4.8,2.2-4.4,1-4-.2Z"/>
    <rect class="cls-3" x="32.1" y="44.7" width="4.6" height="13.1" rx=".8" ry=".8" transform="translate(85.7 16.9) rotate(90)"/>
    <rect class="cls-7" x="28.4" y="49.5" width="12" height="3.5" rx=".8" ry=".8"/>
    <circle class="cls-5" cx="44.9" cy="51.1" r=".9"/>
    <circle class="cls-5" cx="48.7" cy="51.1" r=".9"/>
    <circle class="cls-5" cx="52.2" cy="51.1" r=".9"/>
    <g>
      <path class="cls-2" d="M32.2,50.6h.3v1.1h.7v.3h-1v-1.4Z"/>
      <path class="cls-2" d="M34,52.1c-.2,0-.4,0-.5-.2-.1-.1-.2-.3-.2-.6s0-.4.2-.6c.1-.1.3-.2.5-.2s.4,0,.5.2c.1.1.2.3.2.6s0,.4-.2.6c-.1.1-.3.2-.5.2ZM34.3,51.7c0,0,.1-.2.1-.4s0-.3-.1-.4-.2-.1-.3-.1-.2,0-.3.1-.1.2-.1.4,0,.3.1.4.2.1.3.1.2,0,.3-.1Z"/>
      <path class="cls-2" d="M36.2,50.6h.3l-.4,1.4h-.3l-.2-.8v-.3s0,.3,0,.3l-.2.8h-.3l-.4-1.4h.3l.2.8v.2s0-.2,0-.2l.2-.8h.3l.2.8v.2s0-.2,0-.2l.2-.8Z"/>
    </g>
    <path class="cls-4" d="M26.2,29.9s.4,1.1-.3,1.7c0,0,1.1-.7.3-1.7Z"/>
  </g>
</svg>