<?xml version="1.0" encoding="UTF-8"?><svg id="Complications" xmlns="http://www.w3.org/2000/svg" viewBox="0 0 32 32"><defs><style>.cls-1{fill:#ae6368;}.cls-1,.cls-2,.cls-3,.cls-4,.cls-5,.cls-6,.cls-7,.cls-8,.cls-9,.cls-10,.cls-11,.cls-12,.cls-13,.cls-14,.cls-15,.cls-16,.cls-17,.cls-18,.cls-19,.cls-20{stroke-width:0px;}.cls-2{fill:#463030;}.cls-3{fill:none;}.cls-4{fill:#34221a;}.cls-5{fill:#a65557;}.cls-5,.cls-16,.cls-17{opacity:.7;}.cls-6{fill:#e1e9f5;}.cls-7{fill:#efd2c1;}.cls-8{fill:#c1d6e8;}.cls-9{fill:#a8bfd3;}.cls-10{fill:#849fb4;}.cls-11{fill:#161110;}.cls-12{fill:#19120c;}.cls-13{fill:#493836;}.cls-14{fill:#cea695;}.cls-15{fill:#2c2222;}.cls-16{fill:#9c3c3f;}.cls-17{fill:#ad676a;}.cls-18{fill:#fff;}.cls-19{fill:#e4c2af;}.cls-20{fill:#c98791;}</style></defs><rect class="cls-3" width="32" height="32"/><path class="cls-18" d="M26.12,31.97c-.94,0-1.78-.49-2.51-1l-13.42-.04h-6.16s-.4-.02-.4-.02h-.27c-.09.04-.19.06-.29.06h-1.83c-.27,0-.52-.12-.69-.34-.17-.21-.23-.49-.16-.75,0,0,.68-2.82,1.1-4.73.63-2.83,1.64-4.46,3.09-4.97.57-.21,1.3-.33,2.08-.46.78-.13,1.65-.28,2.25-.51.2-.59.36-1.26.46-1.71-.92-.8-.86-1.65-.77-2.01.29-1.37.46-2.69.46-3.59,0-1.45.16-2.25.61-2.9.1-.51.3-1.32.69-2.5.65-1.94,1.42-3.08,1.72-3.47.01-.01.08-.1.1-.13.42-.57.87-1.01,1.32-1.31,1.55-1.02,2.7-1.58,4.31-1.58.13,0,.26,0,.39.01.82.04,1.33.1,1.7.14.26.03.44.05.64.05,0,0,.19,0,.2,0,.52,0,1,.19,1.34.54.05.05.09.1.13.15.04,0,.07.01.09.02,1.72.14,3.28,1.59,4.2,3.9.01.03.04.12.04.13.55,1.42.87,3.16.94,5.18.16,5.08,1.01,7.85,1.18,8.35.06.19.06.39,0,.57.65,1.86,1.33,2.95,1.34,2.96.19.31.18.7-.03.99-.06.08-.12.14-.19.19.03.04.06.07.09.1.68.64,2.31,2.89,1.6,4.46-.54,1.22-2.78,3.54-4.53,4.1-.26.08-.53.13-.81.13h0Z"/><path class="cls-2" d="M12.87,16.76l-1.4,6.48,1.19.51,2.15-3.67s-1.36-5.01-1.94-3.32Z"/><path class="cls-8" d="M2.53,30.04s.05-6.05,1.1-7.23,3.6-1.43,3.6-1.43l1.75.6s.5,3.25,3.1,4c2.6.75,9.29-3.52,9.29-3.52l3.07,7.63-21.91-.05Z"/><path class="cls-14" d="M13.35,19.32s-.37,2.55-1.28,3.14-2.45.81-1.34,2.28,8.35-1.43,8.35-1.43c0,0,.57-.2.64-1.07s.63-6.48.63-6.48l-7,3.56Z"/><path class="cls-19" d="M12.95,17.18s.45,2.22.57,3.19.22,1.86-1.44,2.76-1.34,1.61-1.34,1.61c0,0,.28,1.22,2.45,1.11,2.17-.11,3.57-1,4.36-1.61s1.54-.93,1.54-.93c0,0-1.37,0-2.01.29s-.1-1.28.4-2.07,1.72-1.72,1.97-3.41,2.17-4.37,2.17-4.37l-1.59-1.41-7.06,4.85Z"/><path class="cls-6" d="M10.73,24.74s.69.97,2.14.89,2.48-.24,3.28-.72c.8-.48,2.34-1.85,3.47-1.8s-1.59,1.61-2.55,2.96-4.63,4.03-4.63,4.03h-2.44s1.76-.27,3.18-1.34,2.35-2.2,2.89-2.66-2.1.91-2.89,1.02-.03.7-.61.71-1.12-1.61-2.57-2.48-2.17-2.07-2.05-3.11-1.47,1.62-1.49,3.11c-.02,1.49-.27-1.27-.27-2.48s-1.37-.62-1.34.56.05,2.66-.38,3.87c-.43,1.21-.43,2.79-.43,2.79h-.4s.08-1.1.43-2.58c.35-1.48.38-2.85.21-3.76s-1.18.18-1.21,1.88,0,4.47,0,4.47h-1.83s.67-2.83,1.1-4.75,1.18-3.85,2.53-4.34,4.09-.53,5.13-1.41.73,5.13.73,5.13Z"/><path class="cls-11" d="M12.87,3.43s-.92,1.08-1.68,3.34-.78,3.16-.78,3.16l2.26-1.65,1.77-5.33s-.41-.66-1.58.5Z"/><path class="cls-7" d="M20.04,14.12c-.86.67-1.75,2.23-2.53,3.14-.78.91-2.1.62-3.28.48-.44-.05-.83-.03-1.22,0-.67.03-1.32.04-2.19-.37-.18-.08-.34-.17-.47-.25-.91-.56-.97-1.11-.9-1.44.08-.38.48-2.28.48-3.79s.19-2.1.59-2.58.59-.51.83-1.34c.21-.72.06-.96.27-1.23l.58.2s-.04-.1-.13-.34c-.1-.26.37-.34.6-1.56.22-1.22,1.38-1.94,2.02-1.97.31-.02.03-.14-.43-.12.66-.3,1.29-.4,1.29-.4,3.52-.78,5.24-.56,5.24-.56,0,0-.94,4.38-.11,6.93.83,2.55.22,4.54-.65,5.21Z"/><path class="cls-13" d="M13.52,7.8s.05.66.77,1,1.58.29,2.33.72.84.45.61.14-.57-.62-1.02-.83-1.02-.25-1.43-.46-1.2-.88-1.25-.57Z"/><path class="cls-13" d="M11.49,7.25s.29.23.61.47.47.24.45,0-.09-.55-.34-.78-.45-.34-.45-.34c0,0-.35.17-.27.65Z"/><path class="cls-12" d="M14.27,9.87s.41.74.98.96,1.04.04,1.51.23c0,0-.5-.11-.93-.07s-1.16-.08-1.56-1.12Z"/><path class="cls-12" d="M12.49,8.91s-.89-.02-1.1-.22-.17-.29-.17-.29c0,0-.07.2.08.35s.62.23,1.19.17Z"/><path class="cls-19" d="M15.07,9.46s.52.91,1.16,1.13.85.23.85.23c0,0-1.21.17-2-1.36Z"/><path class="cls-19" d="M12.68,8.27s-.09-.52.18-.79.2-.69.39-.89.45-.23.45-.23c0,0-.39.14-.47.47s-.04.59-.28.75-.27.69-.27.69Z"/><path class="cls-19" d="M13.11,8.18s0-.42.23-.7.17-.56.35-.67-.03-.02-.12.33-.26.41-.31.63-.11.79-.15.41Z"/><path class="cls-19" d="M12.69,11.77s.27.54.04.83-.86.27-1.05.07-.65-.37-.65-.37c0,0,.46.2.58.37s.45.31.92.15.4-.67.16-1.04Z"/><path class="cls-4" d="M11.15,12.12s.55.02.8.21.07.25-.11.2-.42-.3-.64-.32-.05-.09-.05-.09Z"/><path class="cls-19" d="M13.01,12.02s.71.59.72,1.11.37.99.23,1.59-.26.74-.26.74c0,0,.31-1.02.16-1.41-.18-.46-.06-.4-.23-1.14-.09-.4-.61-.9-.61-.9Z"/><path class="cls-1" d="M11.39,14.78s.76,0,1.22-.06.41-.01.11-.24-2.4-1.14-2.4-1.14c0,0-.11.47,0,.72s.65.68,1.08.72Z"/><path class="cls-20" d="M10.73,13.84s-.52-.38-.58-.69-.03-.44-.03-.44c0,0,.38-.07.49.1s.25.4.54.46.46.03.8.43.92.93.92.93c0,0-1.32-.29-2.15-.79Z"/><path class="cls-20" d="M10.16,13.2s-.26.48-.13.94.88.67,1.46.63-.39-.03-.6-.3.38.02.78.04-.65-.25-.99-.53-.29-.77-.51-.79Z"/><path class="cls-15" d="M13.01,17.74c-.67.03-1.32.04-2.19-.37-.18-.08-.34-.17-.47-.25,0,0-.26,1.39-.65,2.5-.39,1.11-2.15,2.72-2.83,4.59-.68,1.86-2.4,2.69-2.4,2.69,1.36-.36,2.4-1.97,2.94-3.15.52-1.15,1.39-2.02,1.44-2.07-.06.07-.95,1.2-1.44,2.93-.5,1.79-1.72,3.05-1,3.37.72.32,1.15-.14,1.22.32.07.47-.29.64.32.64s.93-.86.91-.5c-.02.35.33.9.35.93,0-.03-.17-.65.24-2.26.41-1.65,2.88-2.9,3.01-4.19.07-.75.12-1.91.13-2.57.09.8.57,1.81.61,1.92-.66-1.68-.17-4.52-.17-4.52ZM12.56,20.34c-.01-.12-.02-.23-.01-.33.02-.35.02-.14.01.33Z"/><path class="cls-19" d="M19.73,22.24s.29-2.51,0-3.32.07-2.87.48-3.63l.41-.75s2.3.99,2.95,2.15.87,3.27.87,3.27c0,0-3.1-.52-4.71,2.29Z"/><path class="cls-15" d="M18.46,11.98c.07.11.15.23.24.35-.02-.02-.12-.14-.24-.35Z"/><path class="cls-15" d="M26.37,18.25s-1.2-.33-1.49-4.91c-.24-3.88-2-6.03-2.53-6.59.39.43,1.4,1.73,1.49,3.84.11,2.61.59,4.04.59,4.04,0,0-1.64-1.32-2.41-2.75-.76-1.42-1.03-2.52-1.09-4.34,0,0-.32,2.8.66,4.58.98,1.77,1.89,2.47,2.27,3.35.38.87-.08-.23-1.29-.93-.56-.32-1.35-.52-2.06-.94-.83-.48-1.55-1.26-1.7-2.88-.03-.86-.52-2.82-.52-2.82,0,0-.01.19-.08.73-.04.3-.09.7-.17,1.24-.14.96.16,1.7.4,2.1-.89-1.42-.38-2.32-.33-3.77,0-.15,0-.31,0-.48-.06-1.63-.42-2.85-1.06-3.54,0,0,0,0,0,0-.1-.1-.2-.2-.31-.28-.84-.61.31-.86.31-.86,2.27-2.03,5.09-1.27,5.09-1.27,1.25.07,2.63,1.12,3.52,3.36.05.17.63,2.19.53,5.01-.11,2.94-.22,4.98.59,6.78-.06-.09-1.12-1.68-.99-3.72.13-2.1-.38-6.23-1.96-7.94.1.14,1.79,2.6,1.61,7.28-.19,4.82.91,5.71.91,5.71Z"/><path class="cls-15" d="M27.51,22.02l-2.64-.68s-.12-.38-.29-.92l2.93,1.6Z"/><path class="cls-9" d="M19.78,25.02s-.13-.64-.59-.94.08-1.68.59-2.4,1.34-1.61,2.55-1.85,1.75-.35,2.63,0,1.96.92,2.9,1.64c.94.73.68,1.77,1.39,2.45s1.84,2.5,1.41,3.47-2.5,3.14-4,3.63-2.96-1.26-4.11-1.8-1.37-1.02-1.64-1.85-1.1-1.24-1.13-2.34Z"/><path class="cls-10" d="M21.31,21.9s2.1-1.97,4.25-1.82,2.91,2.15,2.91,2.15c0,0-1.61-2-3.58-1.49-1.97.51-3.24,1.1-3.81,1.72s-.26-.15.24-.56Z"/><path class="cls-10" d="M20.67,26.86s.4-2.54,2.19-3.43c0,0-1.83.92-1.78,4.4,0,0-.25-.73-.41-.97Z"/><path class="cls-11" d="M29.26,22.46l-1.74-.45-2.93-1.6c-.09-.27-.19-.58-.29-.9,0,0,0,0,0,0-.3-.91-.64-1.92-.85-2.4-.36-.84-1.95-1.83-2.94-2.67-.16-.14-.3-.27-.42-.4-.02-.02-.04-.04-.05-.06-.82-.92-1.18-2.41-1.21-3.27.02.21.05.4.09.58,0,.03.01.07.02.1,0,.03.01.06.02.09,0,.04.02.08.03.12,0,.03.02.06.03.1,0,.03.02.06.03.08,0,.02.02.04.02.07,0,.03.02.05.03.08,0,.03.02.05.03.08.01.04.03.07.04.1.02.03.03.07.05.1.09.19.2.36.31.51.01.02.03.04.04.06.04.05.09.11.13.16.02.02.04.04.06.06.02.03.05.05.08.08.02.02.04.03.05.05.09.08.17.15.27.22.07.06.15.11.22.16,0,0,.02.01.03.02.02.02.05.03.08.05.02,0,.03.02.05.03.71.42,1.5.61,2.06.94,1.21.7,1.67,1.8,1.29.93-.38-.87-1.29-1.57-2.27-3.35-.98-1.77-.66-4.58-.66-4.58.05,1.82.32,2.91,1.09,4.34.77,1.42,2.41,2.75,2.41,2.75,0,0-.49-1.43-.59-4.04-.09-2.1-1.1-3.41-1.49-3.84.53.56,2.28,2.71,2.53,6.59.29,4.58,1.49,4.91,1.49,4.91,0,0-1.1-.89-.91-5.71.18-4.68-1.51-7.14-1.61-7.28,1.58,1.71,2.09,5.84,1.96,7.94-.13,2.04.93,3.63.99,3.72-.8-1.8-.7-3.84-.59-6.78.1-2.78-.46-4.78-.53-5,.5,1.27.85,2.93.91,5,.18,5.54,1.17,8.42,1.23,8.61-.78-1.71-1.37-7.69-1.37-7.69,0,0-.11,2.38.67,5.84.78,3.47,2.12,5.56,2.12,5.56Z"/><path class="cls-14" d="M24.3,19.52c-.04-.07-1.38-2.19-2.41-2.69-1.05-.51-1.05-1.32-1.53-.65-.48.67-.63,2.74-.63,2.74-.63-1.43.31-3.55.79-4.47.98.84,2.57,1.83,2.94,2.67.21.48.55,1.49.85,2.4Z"/><path class="cls-14" d="M17.69,8.79c.34-2.19-.59-4.53-.62-4.61.64.69,1,1.9,1.06,3.54,0,.17,0,.33,0,.48-.12-.44-.22-.5-.37.93-.26,2.49.65,3.86.7,3.93-.52-.59-1.12-2.04-.77-4.26Z"/><path class="cls-14" d="M20.09,14.05c-.35.37-.71.73-.71.73,0,0-.25-.21-.55-.79-.3-.58-.06-3.85-.37-4.53-.09-.2-.17-.53-.23-.83.06-.53.08-.73.08-.73,0,0,.5,1.96.52,2.82.03.86.39,2.35,1.21,3.27.02.02.03.04.05.06Z"/><circle class="cls-17" cx="20.67" cy="14.27" r="2.29"/><circle class="cls-5" cx="20.67" cy="14.27" r="1.67"/><circle class="cls-16" cx="20.67" cy="14.27" r="1.03"/><path class="cls-14" d="M10.36,12.12s-.39-.21-.21-.76c0,0-.16.52.42.76s-.09.11-.21,0Z"/><path class="cls-14" d="M14.69,3.07c-.65.03-1.8.75-2.02,1.97-.22,1.22-.69,1.3-.6,1.56.09.24.13.33.13.34l-.58-.2s.08-.09.13-.14c.4-.35.67-1.32,1.21-2.53.24-.53.77-.89,1.29-1.13.46-.02.75.11.43.12Z"/><path class="cls-15" d="M17.07,2.8s-.25.38-1.38.35-2.23-.51-3.36,1.48.08-1.26,1.66-2.31,2.58-1.5,4.17-1.42,1.93.21,2.53.19.93.37.92.6-2.48-.12-4.54,1.12Z"/><circle class="cls-17" cx="24.46" cy="18.67" r="2.72"/><circle class="cls-5" cx="24.46" cy="18.67" r="1.98"/><circle class="cls-16" cx="24.46" cy="18.67" r="1.23"/></svg>