<?xml version="1.0" encoding="UTF-8"?>
<svg id="Livello_1" data-name="Livello 1" xmlns="http://www.w3.org/2000/svg" version="1.1" viewBox="0 0 76.5 76.5">
  <defs>
    <style>
      .cls-1 {
        fill: #dda997;
      }

      .cls-1, .cls-2, .cls-3, .cls-4, .cls-5, .cls-6, .cls-7, .cls-8, .cls-9, .cls-10, .cls-11, .cls-12, .cls-13, .cls-14, .cls-15, .cls-16, .cls-17, .cls-18, .cls-19 {
        stroke-width: 0px;
      }

      .cls-2 {
        fill: #79a1b7;
      }

      .cls-3 {
        fill: #bbd8ea;
      }

      .cls-4 {
        fill: #df8994;
      }

      .cls-5 {
        fill: #b5393d;
      }

      .cls-5, .cls-6, .cls-17 {
        opacity: .7;
      }

      .cls-6 {
        fill: #c4676a;
      }

      .cls-7 {
        fill: #4d3533;
      }

      .cls-8 {
        fill: #f2c4b1;
      }

      .cls-9 {
        fill: #150a04;
      }

      .cls-10 {
        fill: #a1c1d6;
      }

      .cls-11 {
        fill: #fbd4c3;
      }

      .cls-12 {
        fill: #c66368;
      }

      .cls-13 {
        fill: #4c2c2c;
      }

      .cls-14 {
        fill: #dfebf7;
      }

      .cls-15 {
        fill: #110907;
      }

      .cls-16 {
        fill: #fff;
      }

      .cls-17 {
        fill: #be5456;
      }

      .cls-18 {
        fill: #2c1c1c;
      }

      .cls-19 {
        fill: #371c13;
      }
    </style>
  </defs>
  <path class="cls-16" d="M53.8,64.4c-1.5,0-2.9-.8-4-1.6h-21.6c0,0-9.9,0-9.9,0h-.6s-.4,0-.4,0c-.1,0-.3,0-.5,0h-3c-.4,0-.8-.2-1.1-.5-.3-.3-.4-.8-.3-1.2,0,0,1.1-4.5,1.8-7.6,1-4.6,2.6-7.2,5-8,.9-.3,2.1-.5,3.3-.7,1.3-.2,2.7-.5,3.6-.8.3-.9.6-2,.7-2.8-1.5-1.3-1.4-2.7-1.2-3.2.5-2.2.7-4.3.7-5.8,0-2.3.3-3.6,1-4.7.2-.8.5-2.1,1.1-4,1-3.1,2.3-5,2.8-5.6,0,0,.1-.2.2-.2.7-.9,1.4-1.6,2.1-2.1,2.5-1.7,4.3-2.5,6.9-2.5s.4,0,.6,0c1.3,0,2.1.2,2.7.2.4,0,.7,0,1,0,0,0,.3,0,.3,0,.8,0,1.6.3,2.2.9,0,0,.1.2.2.2,0,0,.1,0,.1,0,2.8.2,5.3,2.6,6.8,6.3,0,0,0,.2,0,.2.9,2.3,1.4,5.1,1.5,8.3.3,8.2,1.6,12.6,1.9,13.4.1.3,0,.6,0,.9,1,3,2.1,4.7,2.2,4.8.3.5.3,1.1,0,1.6,0,.1-.2.2-.3.3,0,0,0,.1.1.2,1.1,1,3.7,4.6,2.6,7.2-.9,2-4.5,5.7-7.3,6.6-.4.1-.9.2-1.3.2h0Z"/>
  <g>
    <path class="cls-13" d="M32.5,39.9l-2.3,10.4,1.9.8,3.5-5.9s-2.2-8.1-3.1-5.3Z"/>
    <path class="cls-3" d="M15.8,61.3s0-9.7,1.8-11.6c1.7-1.9,5.8-2.3,5.8-2.3l2.8,1s.8,5.2,5,6.4c4.2,1.2,15-5.7,15-5.7l5,12.3H15.8Z"/>
    <path class="cls-1" d="M33.3,44s-.6,4.1-2.1,5.1-3.9,1.3-2.2,3.7,13.4-2.3,13.4-2.3c0,0,.9-.3,1-1.7s1-10.4,1-10.4l-11.3,5.7Z"/>
    <path class="cls-8" d="M32.6,40.6s.7,3.6.9,5.1.4,3-2.3,4.4-2.2,2.6-2.2,2.6c0,0,.4,2,3.9,1.8,3.5-.2,5.7-1.6,7-2.6,1.3-1,2.5-1.5,2.5-1.5,0,0-2.2,0-3.2.5s-.2-2.1.6-3.3,2.8-2.8,3.2-5.5,3.5-7,3.5-7l-2.6-2.3-11.4,7.8Z"/>
    <path class="cls-14" d="M29,52.7s1.1,1.6,3.4,1.4,4-.4,5.3-1.2,3.8-3,5.6-2.9-2.6,2.6-4.1,4.8c-1.6,2.2-7.5,6.5-7.5,6.5h-3.9s2.8-.4,5.1-2.2,3.8-3.5,4.7-4.3-3.4,1.5-4.7,1.6,0,1.1-1,1.2-1.8-2.6-4.1-4-3.5-3.3-3.3-5-2.4,2.6-2.4,5c0,2.4-.4-2-.4-4s-2.2-1-2.2.9,0,4.3-.6,6.2c-.7,1.9-.7,4.5-.7,4.5h-.6s.1-1.8.7-4.2c.6-2.4.6-4.6.3-6.1s-1.9.3-1.9,3c0,2.7,0,7.2,0,7.2h-2.9s1.1-4.6,1.8-7.6c.7-3.1,1.9-6.2,4.1-7s6.6-.9,8.3-2.3c1.7-1.4,1.2,8.3,1.2,8.3Z"/>
    <path class="cls-15" d="M32.5,18.4s-1.5,1.7-2.7,5.4c-1.2,3.6-1.3,5.1-1.3,5.1l3.6-2.7,2.8-8.6s-.7-1.1-2.5.8Z"/>
    <path class="cls-11" d="M44,35.7c-1.4,1.1-2.8,3.6-4.1,5.1-1.3,1.5-3.4,1-5.3.8-.7,0-1.3,0-2,0-1.1,0-2.1,0-3.5-.6-.3-.1-.5-.3-.8-.4-1.5-.9-1.6-1.8-1.4-2.3.1-.6.8-3.7.8-6.1s.3-3.4,1-4.2,1-.8,1.3-2.2c.3-1.2,0-1.5.4-2l.9.3s0-.2-.2-.5c-.2-.4.6-.5,1-2.5.4-2,2.2-3.1,3.3-3.2.5,0,0-.2-.7-.2,1.1-.5,2.1-.6,2.1-.6,5.7-1.3,8.4-.9,8.4-.9,0,0-1.5,7.1-.2,11.2,1.3,4.1.3,7.3-1,8.4Z"/>
    <path class="cls-7" d="M33.5,25.5s0,1.1,1.2,1.6,2.5.5,3.7,1.2,1.4.7,1,.2-.9-1-1.6-1.3-1.6-.4-2.3-.7-1.9-1.4-2-.9Z"/>
    <path class="cls-7" d="M30.3,24.6s.5.4,1,.8.7.4.7,0-.1-.9-.5-1.3-.7-.5-.7-.5c0,0-.6.3-.4,1Z"/>
    <path class="cls-9" d="M34.7,28.8s.7,1.2,1.6,1.5,1.7,0,2.4.4c0,0-.8-.2-1.5-.1s-1.9-.1-2.5-1.8Z"/>
    <path class="cls-9" d="M31.9,27.3s-1.4,0-1.8-.4-.3-.5-.3-.5c0,0-.1.3.1.6s1,.4,1.9.3Z"/>
    <path class="cls-8" d="M36,28.1s.8,1.5,1.9,1.8,1.4.4,1.4.4c0,0-1.9.3-3.2-2.2Z"/>
    <path class="cls-8" d="M32.2,26.2c0,0-.1-.8.3-1.3s.3-1.1.6-1.4.7-.4.7-.4c0,0-.6.2-.7.7s0,1-.4,1.2-.4,1.1-.4,1.1Z"/>
    <path class="cls-8" d="M32.9,26.1s0-.7.4-1.1.3-.9.6-1.1,0,0-.2.5-.4.7-.5,1-.2,1.3-.2.7Z"/>
    <path class="cls-8" d="M32.2,31.9s.4.9,0,1.3-1.4.4-1.7.1-1-.6-1-.6c0,0,.7.3.9.6s.7.5,1.5.2.6-1.1.3-1.7Z"/>
    <path class="cls-19" d="M29.7,32.4s.9,0,1.3.3.1.4-.2.3-.7-.5-1-.5,0-.1,0-.1Z"/>
    <path class="cls-8" d="M32.7,32.3s1.1,1,1.2,1.8.6,1.6.4,2.6-.4,1.2-.4,1.2c0,0,.5-1.6.3-2.3s-.1-.6-.4-1.8-1-1.4-1-1.4Z"/>
    <path class="cls-12" d="M30.1,36.7s1.2,0,2,0,.7,0,.2-.4-3.9-1.8-3.9-1.8c0,0-.2.8,0,1.2s1,1.1,1.7,1.2Z"/>
    <path class="cls-4" d="M29,35.2s-.8-.6-.9-1.1,0-.7,0-.7c0,0,.6-.1.8.2s.4.6.9.7.7,0,1.3.7,1.5,1.5,1.5,1.5c0,0-2.1-.5-3.5-1.3Z"/>
    <path class="cls-4" d="M28.1,34.2s-.4.8-.2,1.5,1.4,1.1,2.3,1-.6,0-1-.5.6,0,1.3,0-1.1-.4-1.6-.9-.5-1.2-.8-1.3Z"/>
    <path class="cls-18" d="M32.7,41.5c-1.1,0-2.1,0-3.5-.6-.3-.1-.5-.3-.8-.4,0,0-.4,2.2-1,4-.6,1.8-3.5,4.4-4.6,7.4-1.1,3-3.9,4.3-3.9,4.3,2.2-.6,3.9-3.2,4.7-5.1.8-1.8,2.2-3.3,2.3-3.3,0,.1-1.5,1.9-2.3,4.7-.8,2.9-2.8,4.9-1.6,5.4,1.2.5,1.8-.2,2,.5.1.7-.5,1,.5,1s1.5-1.4,1.5-.8c0,.6.5,1.4.6,1.5,0,0-.3-1.1.4-3.6.7-2.7,4.6-4.7,4.8-6.7.1-1.2.2-3.1.2-4.1.2,1.3.9,2.9,1,3.1-1.1-2.7-.3-7.3-.3-7.3ZM32,45.7c0-.2,0-.4,0-.5,0-.6,0-.2,0,.5Z"/>
    <path class="cls-8" d="M43.5,48.7s.5-4,0-5.3c-.5-1.3.1-4.6.8-5.8l.7-1.2s3.7,1.6,4.7,3.5c1,1.9,1.4,5.3,1.4,5.3,0,0-5-.8-7.6,3.7Z"/>
    <path class="cls-18" d="M41.5,32.2c.1.2.2.4.4.6,0,0-.2-.2-.4-.6Z"/>
    <path class="cls-18" d="M54.2,42.3s-1.9-.5-2.4-7.9c-.4-6.2-3.2-9.7-4.1-10.6.6.7,2.3,2.8,2.4,6.2.2,4.2,1,6.5,1,6.5,0,0-2.6-2.1-3.9-4.4-1.2-2.3-1.7-4.1-1.8-7,0,0-.5,4.5,1.1,7.4,1.6,2.9,3,4,3.7,5.4.6,1.4-.1-.4-2.1-1.5-.9-.5-2.2-.8-3.3-1.5-1.3-.8-2.5-2-2.7-4.6,0-1.4-.8-4.5-.8-4.5,0,0,0,.3-.1,1.2,0,.5-.1,1.1-.3,2-.2,1.5.3,2.7.6,3.4-1.4-2.3-.6-3.7-.5-6.1,0-.2,0-.5,0-.8,0-2.6-.7-4.6-1.7-5.7,0,0,0,0,0,0-.2-.2-.3-.3-.5-.4-1.3-1,.5-1.4.5-1.4,3.7-3.3,8.2-2,8.2-2,2,.1,4.2,1.8,5.7,5.4,0,.3,1,3.5.9,8.1-.2,4.7-.3,8,.9,10.9-.1-.1-1.8-2.7-1.6-6,.2-3.4-.6-10-3.2-12.8.2.2,2.9,4.2,2.6,11.7-.3,7.8,1.5,9.2,1.5,9.2Z"/>
    <path class="cls-18" d="M56.1,48.4l-4.2-1.1s-.2-.6-.5-1.5l4.7,2.6Z"/>
    <path class="cls-10" d="M43.6,53.2s-.2-1-1-1.5.1-2.7,1-3.9,2.2-2.6,4.1-3,2.8-.6,4.2,0,3.2,1.5,4.7,2.6,1.1,2.9,2.2,3.9,3,4,2.3,5.6-4,5.1-6.4,5.8-4.8-2-6.6-2.9-2.2-1.6-2.6-3-1.8-2-1.8-3.8Z"/>
    <path class="cls-2" d="M46.1,48.2s3.4-3.2,6.8-2.9c3.5.2,4.7,3.5,4.7,3.5,0,0-2.6-3.2-5.8-2.4-3.2.8-5.2,1.8-6.1,2.8s-.4-.2.4-.9Z"/>
    <path class="cls-2" d="M45,56.2s.6-4.1,3.5-5.5c0,0-2.9,1.5-2.9,7.1,0,0-.4-1.2-.7-1.6Z"/>
    <path class="cls-15" d="M58.9,49.1l-2.8-.7-4.7-2.6c-.1-.4-.3-.9-.5-1.5,0,0,0,0,0,0-.5-1.5-1-3.1-1.4-3.9-.6-1.3-3.1-2.9-4.7-4.3-.3-.2-.5-.4-.7-.6,0,0,0,0,0,0-1.3-1.5-1.9-3.9-1.9-5.3,0,.3,0,.6.1.9,0,0,0,.1,0,.2,0,0,0,0,0,.1,0,0,0,.1,0,.2,0,0,0,.1,0,.2,0,0,0,0,0,.1,0,0,0,0,0,.1,0,0,0,0,0,.1,0,0,0,0,0,.1,0,0,0,.1,0,.2,0,0,0,.1,0,.2.1.3.3.6.5.8,0,0,0,0,0,0,0,0,.1.2.2.3,0,0,0,0,0,0,0,0,0,0,.1.1,0,0,0,0,0,0,.1.1.3.2.4.4.1,0,.2.2.4.2,0,0,0,0,0,0,0,0,0,0,.1,0,0,0,0,0,0,0,1.1.7,2.4,1,3.3,1.5,1.9,1.1,2.7,2.9,2.1,1.5-.6-1.4-2.1-2.5-3.7-5.4-1.6-2.9-1.1-7.4-1.1-7.4,0,2.9.5,4.7,1.8,7,1.2,2.3,3.9,4.4,3.9,4.4,0,0-.8-2.3-1-6.5-.1-3.4-1.8-5.5-2.4-6.2.9.9,3.7,4.4,4.1,10.6.5,7.4,2.4,7.9,2.4,7.9,0,0-1.8-1.4-1.5-9.2.3-7.5-2.4-11.5-2.6-11.7,2.5,2.8,3.4,9.4,3.2,12.8-.2,3.3,1.5,5.8,1.6,6-1.3-2.9-1.1-6.2-.9-10.9.2-4.5-.7-7.7-.9-8.1.8,2,1.4,4.7,1.5,8.1.3,8.9,1.9,13.6,2,13.9-1.3-2.7-2.2-12.4-2.2-12.4,0,0-.2,3.8,1.1,9.4,1.3,5.6,3.4,9,3.4,9Z"/>
    <path class="cls-1" d="M50.9,44.3c0-.1-2.2-3.5-3.9-4.3-1.7-.8-1.7-2.1-2.5-1-.8,1.1-1,4.4-1,4.4-1-2.3.5-5.7,1.3-7.2,1.6,1.4,4.1,3,4.7,4.3.3.8.9,2.4,1.4,3.9Z"/>
    <path class="cls-1" d="M40.3,27.1c.6-3.5-1-7.3-1-7.4,1,1.1,1.6,3.1,1.7,5.7,0,.3,0,.5,0,.8-.2-.7-.4-.8-.6,1.5-.4,4,1,6.2,1.1,6.3-.8-1-1.8-3.3-1.2-6.9Z"/>
    <path class="cls-1" d="M44.1,35.5c-.6.6-1.1,1.2-1.1,1.2,0,0-.4-.3-.9-1.3-.5-.9,0-6.2-.6-7.3-.1-.3-.3-.9-.4-1.3.1-.9.1-1.2.1-1.2,0,0,.8,3.2.8,4.5,0,1.4.6,3.8,1.9,5.3,0,0,0,0,0,0Z"/>
    <g>
      <circle class="cls-6" cx="45" cy="35.9" r="3.7"/>
      <circle class="cls-17" cx="45" cy="35.9" r="2.7"/>
      <circle class="cls-5" cx="45" cy="35.9" r="1.7"/>
    </g>
    <path class="cls-1" d="M28.4,32.4s-.6-.3-.3-1.2c0,0-.3.8.7,1.2s-.1.2-.3,0Z"/>
    <path class="cls-1" d="M35.4,17.8c-1,0-2.9,1.2-3.3,3.2-.4,2-1.1,2.1-1,2.5.1.4.2.5.2.5l-.9-.3c0,0,.1-.1.2-.2.6-.6,1.1-2.1,1.9-4.1.4-.9,1.2-1.4,2.1-1.8.7,0,1.2.2.7.2Z"/>
    <path class="cls-18" d="M39.2,17.4s-.4.6-2.2.6-3.6-.8-5.4,2.4.1-2,2.7-3.7c2.6-1.7,4.2-2.4,6.7-2.3s3.1.3,4.1.3,1.5.6,1.5,1-4-.2-7.3,1.8Z"/>
    <g>
      <circle class="cls-6" cx="51.2" cy="43" r="4.4"/>
      <circle class="cls-17" cx="51.2" cy="43" r="3.2"/>
      <circle class="cls-5" cx="51.2" cy="43" r="2"/>
    </g>
  </g>
</svg>