<?xml version="1.0" encoding="UTF-8"?><svg id="Complications" xmlns="http://www.w3.org/2000/svg" viewBox="0 0 32 32"><defs><style>.cls-1{fill:#c79696;}.cls-1,.cls-2,.cls-3{stroke-width:0px;}.cls-2{fill:none;}.cls-3{fill:#fff;}</style></defs><rect class="cls-2" width="32" height="32"/><path class="cls-3" d="M25.82,12.61v-3.3h-7.83c-.84,0-1.59.13-2.22.4-.62.26-1.15.66-1.57,1.16v-.19c0-.65-.52-1.18-1.18-1.18h-6.65c-.65,0-1.53.52-1.53,1.18v8.98c0,.47.28.9.71,1.08.4.18.88.32,1.48.45.6.13,1.31.2,2.16.2.76,0,1.45-.1,2.05-.28.65-.2,1.24-.51,1.75-.94.31-.27.58-.58.79-.92.09.14.18.28.28.42.44.58,1,1.02,1.69,1.32.64.27,1.4.41,2.25.41s1.63-.13,2.26-.41c.68-.28,1.24-.72,1.67-1.29.4-.53.69-1.19.88-1.98.04-.18.11-.54.11-.54l3.08.04-.02-2.39h2.21v-2.22h-2.36Z"/><path class="cls-1" d="M12.07,14.53c-.29-.18-.64-.31-1.05-.41-.4-.1-.86-.15-1.38-.15-.15,0-.33,0-.52,0-.2,0-.36,0-.49.02v-1.53h4.38v-1.78h-6.66v5.27h.28c.26-.06.56-.12.91-.2.35-.06.7-.1,1.08-.1.26,0,.55.02.86.06.32.04.59.13.82.28.15.1.28.22.38.38.1.16.15.35.15.56,0,.28-.04.49-.11.62s-.18.27-.32.39c-.18.16-.43.27-.73.33-.31.06-.6.09-.85.09-.44,0-.87-.07-1.32-.22s-.85-.34-1.23-.57h-.27v2.06c.33.14.75.27,1.26.38s1.15.18,1.9.18c.64,0,1.21-.08,1.72-.23s.94-.39,1.32-.7c.35-.29.61-.66.79-1.08s.28-.87.28-1.35c0-.58-.11-1.05-.32-1.43-.21-.38-.51-.68-.89-.92v.03Z"/><path class="cls-1" d="M25.16,13.11v-2.34h-1.22v2.34h-2.35c-.14-.52-.34-.99-.61-1.36-.31-.42-.71-.74-1.19-.94-.49-.21-1.08-.32-1.8-.32s-1.28.1-1.77.31c-.5.2-.9.52-1.21.92-.31.42-.53.92-.68,1.52s-.21,1.31-.21,2.12.07,1.48.2,2.1c.14.61.36,1.12.68,1.53.3.41.7.72,1.2.93s1.09.31,1.79.31,1.31-.11,1.8-.31c.49-.2.88-.52,1.19-.92.3-.4.52-.91.67-1.53.14-.62.21-1.32.21-2.12,0-.37-.02-.73-.05-1.06h2.13v2.34h1.22v-2.34h2.36v-1.19h-2.36,0ZM19.09,17.78c-.22.49-.6.74-1.1.74s-.87-.25-1.1-.74c-.22-.49-.34-1.29-.34-2.4s.11-1.95.33-2.43.59-.72,1.1-.72.88.24,1.1.72.33,1.29.33,2.42-.12,1.92-.34,2.42h.02Z"/></svg>