<?xml version="1.0" encoding="UTF-8"?><svg id="Livello_1" xmlns="http://www.w3.org/2000/svg" viewBox="0 0 26.27 13.61"><defs><style>.cls-1{fill:#c79696;}.cls-1,.cls-2{stroke-width:0px;}.cls-2{fill:#fff;}</style></defs><path class="cls-2" d="M23.61,3.71s0-3.71,0-3.71h-8.81c-.95,0-1.79.15-2.5.45-.7.29-1.29.74-1.77,1.31v-.21c0-.73-.59-1.33-1.33-1.33H1.72C.99.22,0,.81,0,1.55v10.1c0,.53.31,1.01.8,1.22.45.2.99.36,1.66.51.68.15,1.47.23,2.43.23.85,0,1.63-.11,2.31-.32.73-.22,1.39-.57,1.97-1.06.35-.3.65-.65.89-1.03.1.16.2.32.31.47.49.65,1.12,1.15,1.9,1.48.72.3,1.57.46,2.53.46s1.83-.15,2.54-.46c.76-.32,1.39-.81,1.88-1.45.45-.6.78-1.34.99-2.23.04-.2.12-.61.12-.61l3.47.04-.02-2.69h2.49v-2.5h-2.65Z"/><path class="cls-1" d="M8.15,5.87c-.33-.2-.72-.35-1.18-.46-.45-.11-.97-.17-1.55-.17-.17,0-.37,0-.59.01-.22,0-.41.01-.55.02v-1.72h4.93V1.55H1.72v5.93h.31c.29-.07.63-.14,1.02-.22.39-.07.79-.11,1.22-.11.29,0,.62.02.97.07.36.05.66.15.92.31.17.11.32.25.43.43.11.18.17.39.17.63,0,.32-.04.55-.12.7-.08.15-.2.3-.36.44-.2.18-.48.3-.82.37-.35.07-.67.1-.96.1-.49,0-.98-.08-1.48-.25s-.96-.38-1.38-.64h-.3v2.32c.37.16.84.3,1.42.43s1.29.2,2.14.2c.72,0,1.36-.09,1.93-.26s1.06-.44,1.49-.79c.39-.33.69-.74.89-1.21s.31-.98.31-1.52c0-.65-.12-1.18-.36-1.61-.24-.43-.57-.77-1-1.03Z"/><path class="cls-1" d="M22.87,4.27V1.64h-1.37v2.63h-2.64c-.16-.59-.38-1.11-.69-1.53-.35-.47-.8-.83-1.34-1.06-.55-.24-1.22-.36-2.03-.36s-1.44.11-1.99.35c-.56.23-1.01.58-1.36,1.04-.35.47-.6,1.04-.76,1.71-.16.67-.24,1.47-.24,2.38s.08,1.67.23,2.36c.16.69.41,1.26.76,1.72.34.46.79.81,1.35,1.05.56.24,1.23.35,2.01.35s1.47-.12,2.02-.35c.55-.23.99-.58,1.34-1.04.34-.45.59-1.02.75-1.72.16-.7.24-1.49.24-2.38,0-.42-.02-.82-.06-1.19h2.4v2.63h1.37v-2.63h2.66v-1.34h-2.66ZM16.04,9.52c-.25.55-.67.83-1.24.83s-.98-.28-1.24-.83c-.25-.55-.38-1.45-.38-2.7s.12-2.19.37-2.73c.25-.54.66-.81,1.24-.81s.99.27,1.24.81c.25.54.37,1.45.37,2.72s-.13,2.16-.38,2.72Z"/></svg>