<?xml version="1.0" encoding="UTF-8"?><svg id="Who_is_at_risk" xmlns="http://www.w3.org/2000/svg" viewBox="0 0 32 32"><defs><style>.cls-1{fill:#fff;}.cls-2{fill:#dbdbdb;}</style></defs><g id="ic_pregnant"><path class="cls-1" d="M11.39,4.13s4.38,3.59,9.87,.29l10,17.73s-7.41,6.9-18.04,5.54c0,0-6.67-.95-12-5.83L11.39,4.13Z"/><path class="cls-2" d="M26.4,17.06c0,1.18-.54,2.2-1.34,2.88h0s-.06,.06-.15,.13c-.03,.01-.04,.03-.07,.06-.19,.15-.49,.37-.91,.6-.01,.03-.03,.04-.06,.04-.15,.1-.33,.21-.51,.31-.01,.01-.01,.03-.03,.03-.13,.04-.25,.13-.42,.21,0,0,0,.01-.01,.01-.12,.06-.24,.12-.37,.19-.13,.06-.27,.13-.42,.19t-.03,.01c-1.01,.47-2.22,.93-3.65,1.24-.09,.03-.19,.06-.28,.07h-.06c-.49,.1-1.01,.19-1.57,.25h-.01c-.09,.01-.19,.03-.3,.03-1.07,.12-2.25,.12-3.49,0-.09-.01-.16-.01-.25-.03-.01,0-.04,0-.06-.01-1.13-.15-2.22-.52-3.19-1.12h-.01c-.52-.32-1.01-.71-1.45-1.17-.07-.06-.15-.13-.21-.21-.07-.07-.15-.13-.21-.21-.07-.1-.13-.21-.21-.31-.06-.07-.12-.16-.18-.25-.1-.16-.19-.34-.27-.52-.06-.13-.12-.25-.16-.38-.03-.06-.06-.12-.07-.18-.01-.03-.01-.09-.03-.13-.13-.47-.24-.97-.24-1.49,0-2.79,2.22-5.05,4.97-5.05,0,0,1.33-.16,6.74,1.31,.36,.1,.73,.13,1.1,.07,0,0,1.67-.32,3.22-.32,.81,0,1.57,.09,2.07,.34,1.25,.56,2.13,1.86,2.13,3.38Z"/><path class="cls-1" d="M24.84,18.23c0,1.04-.4,1.98-1.03,2.58h-.01s-.03,.06-.06,.06c-.03,.03-.07,.04-.12,.07-.09,.06-.18,.12-.28,.18-.03,.01-.07,.04-.1,.06-.01,.01-.01,.03-.03,.03-.13,.04-.25,.13-.42,.21,0,0,0,.01-.01,.01-.12,.06-.24,.12-.37,.19-.13,.06-.27,.13-.42,.19t-.03,.01c-.22,.1-.46,.21-.7,.31-.69,.28-1.46,.57-2.31,.78-.21,.06-.42,.12-.64,.16-.09,.03-.19,.06-.28,.07h-.01s-.01,.01-.03,.01h-.01c-.49,.09-1.01,.18-1.57,.24h-.01c-.09,.01-.19,.03-.3,.03-1.07,.12-2.25,.12-3.49,0-.09-.01-.16-.01-.25-.03,0,.01-.01,.01-.03,.03-.03-.01-.03-.03-.03-.04-1.13-.15-2.22-.52-3.19-1.13h-.01c-.04-.1-.07-.19-.12-.28-.15-.37-.25-.79-.3-1.24-.04-.42-.01-.82,.04-1.21,.01-.13,.04-.25,.06-.39,.01-.01,.01-.03,.01-.04,0-.03,.01-.04,.03-.07,.39-1.58,1.73-2.77,1.89-2.91-.07,.04-.7,.43-1.68,.64-1.04,.22-.94-.55-.94-1.12s-.04-1.6,.95-1.89c.98-.31,1.13,1.01,1.13,1.01,0,0,1.09-.57,1.73-.4,1.03,.28,.22,3.13,.19,3.24,0,.01,.01,.01,.03,.03,.63-.22,1.33-.36,2.1-.36,.12,0,.25,.01,.39,.03t-.01-.03c-.3-1.3-.25-1.98-.13-2.36,.01-.06,.03-.12,.06-.16,.03-.07,.07-.13,.12-.16,.15-.18,.37-.3,.63-.3,.48,0,.86,.39,.86,.88,0,.27-.12,.51-.3,.67,.16,.24,.36,.7,.51,1.12,.15,.4,.25,.76,.25,.76,.34,.15,.63,.31,.89,.51h0l.1-.22c-.13-.66,.09-1.66,.33-1.57,.22,.07,.24-.09,.24-.09-.06-.22,.1-.27,.1-.27,.25-.06,.43-.22,.52-.51,.07-.3,.13-.24,.75-.15,.6,.07,.82-.22,.82-.22,1.28-1.01,2.8-.01,2.8-.01,.98,.48,1.7,1.66,1.7,3.04Z"/><path class="cls-2" d="M21.25,22.15c-.69,.28-1.46,.57-2.31,.78,.04-.03,.09-.07,.12-.12,.21-.21,.43-.51,.58-.95,0,0,.61,.24,1.46,.3h.01s.09,.01,.13,0Z"/></g></svg>