<?xml version="1.0" encoding="UTF-8"?><svg id="Complications" xmlns="http://www.w3.org/2000/svg" viewBox="0 0 32 32"><defs><style>.cls-1,.cls-2{fill:#fff;}.cls-3{fill:#fed4c2;}.cls-4{fill:#78cadb;}.cls-2{opacity:.4;}</style></defs><g id="ic_premature"><rect class="cls-4" x="1.79" y="19.51" width="28.92" height="3.63" rx=".74" ry=".74"/><path class="cls-3" d="M26.48,15.39c.09,1.06-.27,1.15-.85,1.81v.02s-.04,.05-.07,.05c-.03,.03-.07,.05-.11,.09-.09,.07-.17,.14-.27,.21-.03,.02-.07,.05-.1,.07-.01,.02-.01,.03-.03,.03-.13,.06-.25,.16-.41,.25,0,0,0,.02-.01,.02-.73,.48-2,.63-2.13,.36-.21-.44-.61,.66-1.22,1.22H10.53c-.14-.32-.26-.68-.33-1.06-.08-.42-.06,.07-.03-.33,0-.14,.02-.26,.03-.4,.01-.02,.01-.03,.01-.05,0-.03,.01-.05,.02-.08,.26-1.64,1.52-2.97,1.67-3.12-.07,.05-.68,.5-1.66,.8-1.04,.32-1-.48-1.05-1.06s-.18-1.62,.81-2.01c.97-.4,1.24,.93,1.24,.93,0,0,1.06-.67,1.72-.56,1.07,.2,.5,3.16,.48,3.27,0,.02,.02,.01,.03,.03,.62-.28,1.32-.48,2.11-.55,.12-.01,.26,0,.4,0t-.02-.03c-.42-1.29-.43-1.99-.34-2.38,.01-.06,.02-.12,.05-.17,.02-.08,.06-.14,.11-.18,.14-.19,.35-.34,.61-.36,.49-.04,.91,.32,.96,.82,.02,.27-.08,.53-.25,.71,.19,.23,.42,.68,.61,1.09,.19,.4,.32,.75,.32,.75,.36,.12,.66,.26,.95,.44v-.02l.09-.22c-.19-.66-.05-1.69,.2-1.62,.23,.06,.23-.11,.23-.11-.08-.22,.08-.28,.08-.28,.25-.08,.42-.26,.49-.56,.05-.31,.12-.25,.75-.22,.61,.02,.81-.3,.81-.3,1.22-1.14,2.85-.26,2.85-.26,1.04,.4,1.87,1.54,1.99,2.95Z"/><path class="cls-2" d="M27.58,5.84H4.91c-1.07,0-1.93,.88-1.93,1.96v11.71H29.51V7.8c0-1.08-.86-1.96-1.93-1.96ZM13.85,14.09c0,1.02-.74,1.85-1.65,1.85H7.58c-.91,0-1.65-.83-1.65-1.85v-2.01c0-1.02,.74-1.85,1.65-1.85h4.63c.91,0,1.65,.83,1.65,1.85v2.01Zm13.03,0c0,1.02-.74,1.85-1.65,1.85h-4.63c-.91,0-1.65-.83-1.65-1.85v-2.01c0-1.02,.74-1.85,1.65-1.85h4.63c.91,0,1.65,.83,1.65,1.85v2.01Z"/><path class="cls-1" d="M12.14,10.23c.94,0,1.71,.77,1.71,1.71v2.29c0,.94-.77,1.71-1.71,1.71H7.63c-.94,0-1.71-.77-1.71-1.71v-2.29c0-.94,.77-1.71,1.71-1.71h4.51m0-.5H7.63c-1.22,0-2.21,.99-2.21,2.21v2.29c0,1.22,.99,2.21,2.21,2.21h4.51c1.22,0,2.21-.99,2.21-2.21v-2.29c0-1.22-.99-2.21-2.21-2.21h0Z"/><path class="cls-1" d="M25.18,10.23c.94,0,1.71,.77,1.71,1.71v2.29c0,.94-.77,1.71-1.71,1.71h-4.51c-.94,0-1.71-.77-1.71-1.71v-2.29c0-.94,.77-1.71,1.71-1.71h4.51m0-.5h-4.51c-1.22,0-2.21,.99-2.21,2.21v2.29c0,1.22,.99,2.21,2.21,2.21h4.51c1.22,0,2.21-.99,2.21-2.21v-2.29c0-1.22-.99-2.21-2.21-2.21h0Z"/><path class="cls-1" d="M27.59,5.84c1.07,0,1.93,.87,1.93,1.96v11.7h.37c.45,0,.82,.4,.82,.9v1.85c0,.49-.37,.89-.82,.89H2.62c-.46,0-.83-.4-.83-.89v-1.85c0-.5,.37-.9,.83-.9h.37V7.8c0-1.08,.86-1.96,1.93-1.96H27.59m0-1H4.92c-1.62,0-2.93,1.33-2.93,2.96v10.82c-.7,.27-1.2,.97-1.2,1.78v1.85c0,1.04,.82,1.89,1.83,1.89H29.89c1,0,1.82-.85,1.82-1.89v-1.85c0-.82-.5-1.51-1.19-1.78V7.8c0-1.63-1.31-2.96-2.93-2.96h0Z"/></g></svg>