<?xml version="1.0" encoding="UTF-8"?><svg id="Complications" xmlns="http://www.w3.org/2000/svg" viewBox="0 0 32 32"><defs><style>.cls-1{fill:none;}.cls-1,.cls-2,.cls-3,.cls-4{stroke-width:0px;}.cls-2{fill:#b46a4b;}.cls-3{fill:#eed1c0;}.cls-4{fill:#fff;}</style></defs><rect class="cls-1" width="32" height="32"/><path class="cls-4" d="M20.51,30.26c-5.63,0-15.74-7.25-16.7-13.28-.11-.78-.04-1.59.01-2.24,0-.06.01-.13.02-.19-1.19-.49-2.45-2.18-2.96-3.49l-.2-.45-.14-.47-.07-.33-.08-.29c-.07-.24-.12-.46-.17-.68-.01-.03-.02-.07-.04-.12-.08-.19-.11-.4-.08-.61-.01-.27-.04-.5-.06-.72-.13-1.37-.11-2.3,1.3-3.76,1.57-1.63,3.66-2.57,5.74-2.57.66,0,1.29.09,1.88.28.62.14,4.26,1.09,4.76,4.77l.02.15v.06c.01.06.09.23.38.45l.33.23c.6.42,1.61,1.12.83,2.49-.05.11-.03.15.02.22.21.35.27.78.16,1.18.07.14.11.3.13.47.06.6-.29,1.35-.77,2.03.16-.08.34-.17.53-.26.4-.2,1.05-.51,1.67-.73.13-.47.37-.91.71-1.26.55-.57,1.29-.89,2.07-.89.74,0,1.43.28,1.96.79.55.53.85,1.27.83,2.05.02.25-.02.51-.11.77-.06.24-.17.42-.24.55-.4.82-1.25,1.72-2.57,2.7.45.47.86.98,1.23,1.5,1.04-1.58,2.57-3.37,4.19-3.37.37,0,.73.09,1.06.27.85.48,1.48,1.46,1.89,2.28.35-.13.74-.22,1.15-.22.96,0,1.77.5,2.26,1.42,1.38,2.43-.51,4.38-1.31,5.21l-.27.28c-.53.56-1.25,1.34-2.29,1.34-.67,0-1.29-.32-1.83-.96-.21.94-.54,1.92-1.06,2.85,0,.01,0,.02-.01.03v.13s-.24.32-.24.32c-.06.08-.12.17-.18.25-.08.12-.17.25-.26.37-.56.68-1.59,1.46-3.49,1.46Z"/><path class="cls-3" d="M2.18,4.43c-1.41,1.47-.99,2.03-.92,3.71v.04c-.02.06-.02.1.02.14,0,.08.04.16.07.27.05.2.09.41.16.63.02.06.04.16.07.22,0,.04-.02.06,0,.08.13.24.17.53.3.86,0,0-.02.02,0,.04.5,1.59,2.2,3.34,2.72,3.09.84-.4.12,1.72.34,3.28,1.05,6.63,14.86,15.28,18.13,11.29.16-.21.28-.42.44-.62,0-.04.02-.06.04-.08.04-.04.04-.08.06-.14,1.59-2.74,1.32-6.23,1.27-6.64.04.16.4,1.55,1.5,3.18,1.16,1.72,2.06.5,2.83-.3s2.22-2.18,1.22-3.95c-.96-1.77-2.96-.11-2.96-.11,0,0-.76-2.27-1.88-2.9-1.83-.99-4.55,4.09-4.65,4.28-.02.02-.04,0-.08,0-.58-1.16-1.38-2.3-2.47-3.34-.17-.16-.38-.32-.58-.48t.06-.02c2.17-1.42,3.04-2.44,3.37-3.13.06-.1.12-.21.14-.31.06-.14.08-.29.05-.39.03-.45-.12-.92-.48-1.26-.67-.64-1.74-.62-2.4.07-.36.38-.52.87-.49,1.34-.55.11-1.45.5-2.22.88-.75.36-1.38.72-1.38.72-.68-.25-1.3-.41-1.94-.5l.02-.02c.06-.19.14-.43.14-.43,1.08-.74,2.11-2.44,1.66-2.64-.41-.2-.21-.45-.21-.45.39-.23.22-.52.22-.52-.28-.43-.3-.9-.05-1.42.3-.52.13-.52-.84-1.22-.94-.7-.85-1.42-.85-1.42-.43-3.16-3.91-3.81-3.91-3.81-2.03-.66-4.62.03-6.5,1.97Z"/><path class="cls-2" d="M12.48,19.83l.15.23-.15,1.06-2.28-2.3c-.47-.47-.45-1.23.04-1.68h.01c.4-.37.97-.42,1.42-.13l.8.52-.47.72.47.37.45.35-.45.21-.32.15.32.49Z"/><path class="cls-2" d="M15.02,18.83l-2.17,2.3.15-1.06-.15-.23-.32-.49.32-.15.45-.21-.45-.35-.47-.37.47-.72.66-.47c.2-.14.43-.21.67-.21.29,0,.56.1.79.31.47.44.5,1.19.05,1.66Z"/></svg>