<?xml version="1.0" encoding="UTF-8"?>
<svg id="Livello_1" data-name="Livello 1" xmlns="http://www.w3.org/2000/svg" version="1.1" viewBox="0 0 76.5 76.5">
  <defs>
    <style>
      .cls-1 {
        fill: #fad3c2;
      }

      .cls-1, .cls-2, .cls-3 {
        stroke-width: 0px;
      }

      .cls-2 {
        fill: #cc6a48;
      }

      .cls-3 {
        fill: #fff;
      }
    </style>
  </defs>
  <g>
    <path class="cls-3" d="M47.2,62.5c-9.4,0-26.1-12-27.7-22-.2-1.3,0-2.6,0-3.7,0-.1,0-.2,0-.3-2-.8-4.1-3.6-4.9-5.8l-.3-.7-.2-.8v-.6c-.1,0-.3-.5-.3-.5-.1-.4-.2-.8-.3-1.1,0,0,0-.1,0-.2-.1-.3-.2-.7-.1-1,0-.5,0-.8,0-1.2-.2-2.3-.2-3.8,2.2-6.3,2.6-2.7,6.1-4.3,9.5-4.3s2.1.2,3.1.5c1,.2,7.1,1.8,7.9,7.9v.2s0,0,0,0c0,.1.2.4.6.7l.5.4c1,.7,2.7,1.9,1.4,4.1,0,.2,0,.2,0,.4.3.6.4,1.3.3,2,.1.2.2.5.2.8,0,1-.5,2.2-1.3,3.4.3-.1.6-.3.9-.4.7-.3,1.7-.8,2.8-1.2.2-.8.6-1.5,1.2-2.1.9-1,2.1-1.5,3.4-1.5s2.4.5,3.3,1.3c.9.9,1.4,2.1,1.4,3.4,0,.4,0,.9-.2,1.3-.1.4-.3.7-.4.9-.7,1.4-2.1,2.9-4.3,4.5.7.8,1.4,1.6,2,2.5,1.7-2.6,4.3-5.6,7-5.6s1.2.2,1.8.4c1.4.8,2.5,2.4,3.1,3.8.6-.2,1.2-.4,1.9-.4,1.6,0,2.9.8,3.8,2.4,2.3,4-.8,7.3-2.2,8.6l-.4.5c-.9.9-2.1,2.2-3.8,2.2s-2.1-.5-3-1.6c-.3,1.6-.9,3.2-1.8,4.7,0,0,0,0,0,0v.2s-.4.5-.4.5c-.1.1-.2.3-.3.4-.1.2-.3.4-.4.6-.9,1.1-2.6,2.4-5.8,2.4Z"/>
    <path class="cls-1" d="M16.7,19.6c-2.3,2.4-1.6,3.4-1.5,6.2h0c0,.2,0,.2,0,.3,0,.1,0,.3.1.4,0,.3.1.7.3,1.1,0,.1,0,.3.1.4,0,0,0,.1,0,.1.2.4.3.9.5,1.4,0,0,0,0,0,0,.8,2.6,3.7,5.5,4.5,5.1,1.4-.7.2,2.9.6,5.5,1.7,11,24.7,25.4,30.1,18.8.3-.3.5-.7.7-1,0,0,0-.1,0-.1,0,0,0-.1,0-.2,2.6-4.6,2.2-10.3,2.1-11,0,.3.7,2.6,2.5,5.3,1.9,2.9,3.4.8,4.7-.5s3.7-3.6,2-6.6c-1.6-2.9-4.9-.2-4.9-.2,0,0-1.3-3.8-3.1-4.8-3-1.6-7.5,6.8-7.7,7.1,0,0,0,0-.1,0-1-1.9-2.3-3.8-4.1-5.6-.3-.3-.6-.5-1-.8q0,0,.1,0c3.6-2.4,5-4.1,5.6-5.2,0-.2.2-.3.2-.5,0-.2.1-.5,0-.7,0-.8-.2-1.5-.8-2.1-1.1-1.1-2.9-1-4,.1s-.9,1.4-.8,2.2c-.9.2-2.4.8-3.7,1.5-1.3.6-2.3,1.2-2.3,1.2-1.1-.4-2.2-.7-3.2-.8h0c0-.3.2-.8.2-.8,1.8-1.2,3.5-4.1,2.7-4.4-.7-.3-.4-.7-.4-.7.6-.4.4-.9.4-.9-.5-.7-.5-1.5,0-2.4.5-.9.2-.9-1.4-2-1.6-1.2-1.4-2.4-1.4-2.4-.7-5.2-6.5-6.3-6.5-6.3-3.4-1.1-7.7,0-10.8,3.3Z"/>
  </g>
  <g>
    <path class="cls-2" d="M33.9,45.2l.2.4-.2,1.8-3.8-3.8c-.8-.8-.7-2,0-2.8h0c.7-.6,1.6-.7,2.4-.2l1.3.9-.8,1.2.8.6.8.6-.8.4-.5.2.5.8Z"/>
    <path class="cls-2" d="M38.1,43.5l-3.6,3.8.2-1.8-.2-.4-.5-.8.5-.2.8-.4-.8-.6-.8-.6.8-1.2,1.1-.8c.3-.2.7-.3,1.1-.3s.9.2,1.3.5c.8.7.8,2,0,2.8Z"/>
  </g>
</svg>