<?xml version="1.0" encoding="UTF-8"?><svg id="Complications" xmlns="http://www.w3.org/2000/svg" viewBox="0 0 32.06 32"><defs><style>.cls-1{fill:#7b7b7b;}.cls-1,.cls-2,.cls-3,.cls-4,.cls-5,.cls-6,.cls-7,.cls-8,.cls-9,.cls-10,.cls-11,.cls-12,.cls-13,.cls-14,.cls-15,.cls-16,.cls-17,.cls-18,.cls-19,.cls-20,.cls-21,.cls-22,.cls-23,.cls-24,.cls-25,.cls-26,.cls-27,.cls-28{stroke-width:0px;}.cls-2{fill:#b58779;}.cls-3{fill:#d88470;}.cls-4{fill:#bababa;}.cls-5{fill:#9dabb9;}.cls-6{fill:none;}.cls-7,.cls-16,.cls-27{opacity:.7;}.cls-7,.cls-26{fill:#fff;}.cls-8{fill:#9ba6b6;}.cls-9{fill:#a2bad5;}.cls-10{fill:#faefed;}.cls-11{fill:#6f6f6f;}.cls-12{fill:#856b5f;}.cls-13,.cls-24{fill:#bbcde0;}.cls-14{fill:#342723;}.cls-15{fill:#575757;}.cls-16{fill:#c6d3db;}.cls-17{fill:#c0657d;}.cls-18{fill:#e5f2ff;}.cls-19,.cls-24{opacity:.8;}.cls-19,.cls-25{fill:#97b0cb;}.cls-20{fill:#b5c4d4;}.cls-21{fill:#8f8f8f;}.cls-22{fill:#d0e2f2;}.cls-23{fill:#d3ad9d;}.cls-27{fill:#d9d9d9;}.cls-28{fill:#e4c2af;}</style></defs><rect class="cls-6" x=".06" width="32" height="32"/><path class="cls-26" d="M28,26.25s-.1,0-.14,0c-.49-.03-4.81-.32-5.4-.79-.62-.5-.79-1.56-.63-3.9,0-.1.01-.21.02-.31l-.57.06c-.66.61-1.55.95-2.47.95-.64,0-1.25-.16-1.79-.46l-1.94.22c-.66.64-1.57,1.01-2.53,1.01-.67,0-1.31-.17-1.87-.5l-1.54.17c-.06,0-.12.01-.18.01-.48,0-.93-.22-1.22-.58l-4.99-1.61-1.11.07s-.07,0-.11,0c-.42,0-.83-.18-1.13-.48-.29-.3-.44-.7-.42-1.12.04-.79.67-1.42,1.48-1.45l6.47-.29,5.94-.47.44.18,3.77-.17h.06c.33,0,.64.12.87.33.63-.08,1.14-.16,1.49-.24.24-.06.5-.1.76-.13.06-.01.14-.02.23-.03.15-.02.32-.03.49-.03,0-.13,0-.25,0-.35-.1,0-.2,0-.33,0-.54,0-1.15.01-1.8.04-.18,0-.34.01-.5.01-1.21,0-1.89-.18-2.15-.27l-.09-.03-.11-.04c-.36-.11-.84-.25-1.36-.39-1.23-.34-2.07-.57-2.47-.8-.2-.12-.37-.28-.5-.47-.31-.04-.84-.1-1.18-.12-.21,0-.42-.02-.62-.03-.31-.01-.6-.02-.81-.04h-.08c-1.28-.1-1.61-.17-1.79-.25-.29-.15-.48-.43-.48-.72-.04-.07-.06-.13-.08-.19-.07-.24-.02-.51.13-.72.06-.08.14-.16.26-.23,0-.07.02-.14.05-.22.06-.16.21-.4.57-.5,0-.1.02-.2.05-.29.11-.27.37-.45.64-.45h.04c.12,0,.81.07.81.07.06,0,.47.05.76.1l.93-.04,5.61-.26h.05c.12,0,.24.02.36.05l1.17.33c.09,0,.24-.01.4-.01.14,0,.29,0,.41.02.33.03,1.13.16,1.49.61.09.12.39.43.67.69.08.02.14.04.2.07.12-.05.24-.08.37-.08.02,0,.04,0,.06,0,.22-.16.7-.49,1.15-.77,0-.01,0-.03,0-.03l-.02-.06c-.05-.12-.12-.33-.07-.57-.14-.17-.24-.35-.26-.48v-.04s0-.04,0-.04c0,0,0-.03,0-.06,0-.02,0-.03,0-.04-.31-.28-.24-.65-.21-.78v-.03s0-.03,0-.04c-.03-.16-.09-.45.11-.7.06-.07.13-.13.21-.17-.21-.14-.38-.4-.44-.8-.05-.32-.21-1.31.7-1.9l.19-.13c.41-.27.83-.56,1.63-.8.46-.14,1.05-.23,1.56-.23,1.44,0,1.9.64,2.05,1.03.08.2.15.38.21.55.24.6.43,1.08.4,1.66-.02.4-.2,1.04-.42,1.59.14.23.15.49.16.64,0,.05,0,.11.01.15.06.16.08.32.08.46.17.12.36.31.49.59.03.07.18.32.32.55.94,1.56,1.44,2.52,1.37,3.11-.02.18-.05.32-.06.44l-.03.16h0c-.04.25-.03.38.08.74.03.1.13.4.13,1.4.01,1.09-.09,2.68-.27,3.31-.03.11-.06.23-.09.36,0,0-.04.19-.05.22-.02.13-.04.2-.04.2-.04.21-.09.48-.15.74-.17.87-.34,1.76-.51,2.23-.35,1.02-1.95,1.59-2.93,1.59h0Z"/><path class="cls-24" d="M10.11,11.37l7.45-.35c.09,0,.18,0,.27.03l2.69.77-6.86.55-3.55-1Z"/><path class="cls-19" d="M20.52,11.82l.22.38c.05.08,0,.18-.1.19l-6.99.66v-.67l6.86-.55Z"/><path class="cls-8" d="M19.86,12.09s-.42-.24-.58-.4.1-.32.16-.18.37.24.42.3.31.04.31.04c0,0-.19-.18-.36-.23l-.74-.21s.49-.03.82,0,.93.15,1.13.41.96.98.96.98l-1.01.25s-.88-.53-1.11-.95Z"/><polygon class="cls-24" points="9.93 12.04 10.11 11.37 13.66 12.37 13.66 13.04 9.93 12.04"/><path class="cls-9" d="M20.97,13.04s.07-.19.58-.31.45-.01.74.11.82.27.82.27c0,0-1.71.21-2.14-.08Z"/><path class="cls-11" d="M1.5,18.05c-.53.02-.95.44-.98.95-.03.6.48,1.09,1.1,1.05l17.3-1.14.04-.79c.02-.47-.36-.86-.83-.84l-16.63.75ZM18.46,18.46l-16.87,1.11s-.04,0-.07,0c-.3-.01-.53-.26-.51-.54.01-.27.23-.48.51-.49l16.97-.77-.03.69Z"/><path class="cls-21" d="M18.5,17.76l-.03.69-16.87,1.11s-.04,0-.07,0c-.3-.01-.53-.26-.51-.54.01-.27.23-.48.51-.49l16.97-.77Z"/><polygon class="cls-4" points="8.23 21.05 30.6 18.8 27.83 17.92 1.31 18.8 8.23 21.05"/><polygon class="cls-1" points="28.92 18.8 28.87 19.49 15.23 20.96 10.26 21.5 8.23 21.72 1.31 19.49 1.31 18.8 8.23 21.05 9.83 20.88 15.48 20.26 28.92 18.8"/><polygon class="cls-16" points="5.93 17.92 6.14 19.07 13.51 18.48 13.8 17.29 5.93 17.92"/><polygon class="cls-16" points="13.8 17.29 16.67 18.46 15.69 19.67 13.51 18.48 13.8 17.29"/><path class="cls-15" d="M15.23,20.96c-.49.91-1.5,1.53-2.67,1.53-.92,0-1.75-.39-2.29-.99l4.97-.54Z"/><path class="cls-15" d="M21.49,20.2c-.49.91-1.5,1.53-2.67,1.53-.92,0-1.75-.39-2.29-.99l4.97-.54Z"/><path class="cls-15" d="M27.38,19.49c-.49.91-1.5,1.53-2.67,1.53-.92,0-1.75-.39-2.29-.99l4.97-.54Z"/><path class="cls-3" d="M15.69,19.67s0,0,0,0c-.07.16-.23.28-.44.31-.65.1-2.56.1-3.39.15-.82.05-3.17-.43-3.68-.64-.16-.07-.23-.13-.23-.18v-.65s2.67-.14,4.88-.17c.24,0,.47,0,.69,0,1.17,0,2.09.04,2.2.18.3.38,0,.95-.02,1.01Z"/><path class="cls-26" d="M13.51,18.48c-.22,0-.45,0-.69,0,.23-.01.46-.01.69,0Z"/><path class="cls-17" d="M8.44,18.44s1.94-.16,3.02-.41,2.27-.29,3.41,0,1.02,1.21.36,1.31-2.56.1-3.39.15-3.17-.43-3.68-.64-.07-.37.27-.4Z"/><path class="cls-10" d="M13.1,18.2s-.48-.12-.45.12-.6.29-.45.48,1.34.13,2,.19,1.01-.18.8-.41-1.32-.19-1.9-.38Z"/><path class="cls-10" d="M9.56,19.19s.34.04.54-.19.48-.45.94-.42c0,0-.53.01-.76.32s-.25.38-.25.38l-.46-.09Z"/><path class="cls-10" d="M12.28,17.89s.13.24-.11.4-.57.25-.57.25c0,0,.62-.11.76-.39l.14-.28s-.07,0-.23.02Z"/><path class="cls-3" d="M24.28,18.79s0,0,0,0c-.06.14-.2.24-.38.27-.56.08-2.21.08-2.92.13-.71.04-2.73-.37-3.17-.55-.14-.06-.19-.11-.2-.15v-.56s2.3-.12,4.2-.15c.2,0,.4,0,.59,0,1.01,0,1.8.04,1.89.15.26.33,0,.82-.02.87Z"/><path class="cls-26" d="M22.41,17.77c-.19,0-.39,0-.59,0,.2-.01.39-.01.59,0Z"/><path class="cls-17" d="M18.04,17.73s1.67-.14,2.6-.35,1.96-.25,2.94,0,.88,1.04.31,1.13-2.21.08-2.92.13-2.73-.37-3.17-.55-.06-.32.23-.34Z"/><path class="cls-10" d="M22.05,17.53s-.42-.11-.39.11-.51.25-.39.41,1.15.11,1.72.16.87-.15.69-.35-1.14-.16-1.64-.33Z"/><path class="cls-10" d="M19.01,18.38s.3.04.46-.17.42-.39.81-.36c0,0-.45.01-.65.27s-.22.33-.22.33l-.4-.08Z"/><path class="cls-10" d="M21.35,17.26s.12.21-.1.34-.49.21-.49.21c0,0,.53-.1.66-.34l.12-.24s-.06,0-.2.02Z"/><path class="cls-11" d="M8.87,20.17c-.53.05-.93.48-.93,1,0,.6.54,1.07,1.15,1l17.23-1.97v-1.66l-17.45,1.64ZM25.83,19.76l-16.8,1.93s-.04,0-.07,0c-.3,0-.54-.23-.54-.52,0-.27.21-.49.49-.52l16.92-1.59v.7Z"/><path class="cls-21" d="M25.83,19.07v.7l-16.8,1.93s-.04,0-.07,0c-.3,0-.54-.23-.54-.52,0-.27.21-.49.49-.52l16.92-1.59Z"/><polygon class="cls-7" points="5.93 17.92 10.28 18.9 9.93 20.06 6.14 19.07 5.93 17.92"/><polygon class="cls-7" points="10.28 18.9 16.67 18.46 15.69 19.67 9.93 20.06 10.28 18.9"/><path class="cls-8" d="M13.61,12.44s-.14-.12-.36-.1-.55-.43-.68-.73-.17-.27-.18-.46,0-.23-.04-.3-.3,0-.37.26.06.64.06.64c0,0-.76-.31-.97-.38s-.88-.14-.88-.14c0,0-.69-.06-.8-.06s-.29.19-.08.4,1.01.29,1.17.35.29.09.29.09c0,0-1.24-.1-1.56-.14s-.54.02-.61.21.03.29.56.31,1.41.15,1.41.15c0,0-1.57-.05-2-.04s-.43.31-.4.42.94.17,1.19.17,1.03.04,1.03.04c0,0-1.91-.05-2.05,0s-.08.26.11.35,1.34.18,1.68.2.86.04,1.41.06,1.5.16,1.5.16l.55-1.46Z"/><path class="cls-28" d="M24.61,6.75s-.53,1.01-.47,1.24.27.21.12.5-.26.44-.23.65.89,1.45.89,1.45c0,0,2.85-.66,2.92-.66s.6-1.13.6-1.13l-3.82-2.04Z"/><path class="cls-12" d="M24.42,7.04s-.54.14-.34.67c0,0-.03-.35.09-.25s.17.5.54.52,1.58.46,1.72.65.44.35.58.27.08-.4.48-.39.69.5.47.82-.34.33-.28.54.08.33.08.33l.59-.15s.08-.6.3-1.15.33-.8.34-1.31.15-.28.19-.12,0,.31,0,.31c0,0,.18-.31-.05-.67s-.3-.42-.3-.65-.01-.85-.44-1.06c0,0,.21.22.11.35s-.76-.54-1.67-.52-1.35.28-1.67.51-.64.64-1.12.88-.12.92-.04,1.19c0,0-.33-.59,0-.89,0,0-.26.65-.08.96,0,0-.04-.84.48-.84Z"/><path class="cls-5" d="M22.92,12.68s.81-.6,1.44-.95,1.19-.77,2.54-.28,1.21,2.59.94,4.04-2.08,3.16-3.58,2.1-1.18-2.92-1.18-2.92l-.17-1.98Z"/><path class="cls-18" d="M31.1,21.41s.02-.08.02-.12c0,.04-.02.08-.02.12Z"/><path class="cls-18" d="M31.51,17.59c0,1.15-.11,2.65-.25,3.17-.03.11-.06.24-.1.39,0,0-1.1,1.02-3.14,1.07,0,0,1.65.41,3.06-.67-.2.97-.45,2.35-.64,2.94-.27.77-1.73,1.28-2.55,1.23-.82-.05-4.71-.37-5.1-.68-.39-.32-.6-1.06-.44-3.46.17-2.39.2-5.76.2-5.76l1.44.1v.04s.1.75,1.13,1.16c1.03.4,1.43-.03,1.96-.74.53-.71,1.09-2.42.73-3.21-.36-.79-.87-1.97-2.57-1.67h0c-.51.04-.88.23-.88.23,0,0,.06-.29,0-.5-.06-.21-.22-.45.17-.54.13-.03.25-.06.39-.09.26-.06.54-.13.93-.22.17-.04.36-.09.57-.14.52-.13,1.1-.27,1.43-.31.46-.05.65-.56,1.01-.46.36.11.22.59.32.84.1.25,0,.57,0,.57,0,0,.39.1.58.51.2.42,1.73,2.68,1.65,3.39-.02.17-.04.32-.06.44,0,0-.14.22-.46.52-.33.29-.84.67-1.6.95-1.51.58-1.85.63-.98.61.87-.01,2.28-.58,2.62-.59.34-.02.16.58.08.96-.08.39-1.4,1.52-2.55,1.84-1.15.32.55.16,1.45-.35.88-.5,1.58-1.5,1.62-1.56Z"/><path class="cls-20" d="M26.47,13.55s-.11-1.77-1.23-1.74-1.47.48-1.47.48c0,0,.9-.48,1.47-.05s-.43.19-.95.12-1.17.22-1.37.31-.25-.1-.62.17-.74-.15-.91.07-.65-.22-1.04.05-.46-.02-.99.1-1.5-.42-2.9-.38-2.3-.8-2.98-.2-.6,1.57,0,1.91,2.83.85,3.85,1.19,3.48-.36,4.58-.19.77-.44,1.58-.51,1.73-.05,2.29-.41-1.3.27-1.99-.07,1.97-.39,2.26-.34.44-.51.44-.51Z"/><path class="cls-9" d="M17.32,15.58s.76.34,2.54.27,2.68-.02,2.68-.02c0,0,2.23.29,2.98.03s1.7-2.43.63-3.46.07.37-.49.64-3.07.05-4.06.7-4.28,1.84-4.28,1.84Z"/><path class="cls-22" d="M31.51,17.59c-.04.06-.74,1.06-1.62,1.56-.9.52-2.6.68-1.45.35,1.14-.32,2.47-1.45,2.55-1.84.08-.39.26-.98-.08-.97-.34.02-1.74.58-2.61.6-.87.02-.53-.03.98-.61,1.51-.58,2.06-1.47,2.06-1.47-.06.37-.1.57.07,1.12.07.24.11.71.11,1.26Z"/><path class="cls-22" d="M31.16,21.15s-.02.1-.03.15c0,.04-.02.08-.02.12-.02.08-.03.14-.03.14-1.41,1.08-3.05.66-3.05.66,2.04-.05,3.14-1.07,3.14-1.07Z"/><path class="cls-22" d="M27.09,16.38c-.53.71-.94,1.15-1.97.74-1.03-.4-1.14-1.16-1.14-1.16v-.04s.31.02.31.02c0,0,.24,1.02,1.23,1.09.99.07,1.74-1.48,2.01-2.54.27-1.06-.02-2.2-1.06-2.76-.43-.23-.86-.27-1.22-.24,1.7-.3,2.21.88,2.57,1.67.36.79-.2,2.5-.73,3.21Z"/><path class="cls-12" d="M24.14,7.92s-.03.07.04.16.42,0,.65.08.28.12.32.15-.01-.12-.14-.16-.26-.12-.41-.15-.44-.15-.47-.07Z"/><path class="cls-14" d="M24.89,8.46s-.33.02-.48-.06c0,0-.04,0-.01.05s.12.06.25.06.24-.04.24-.04Z"/><path class="cls-2" d="M27.3,8.98s0-.19.06-.26.43-.05.49.23-.19.61-.4.65-.09-.16.03-.28-.05-.12-.13-.18-.05-.17-.05-.17Z"/><path class="cls-23" d="M27.54,9.8c-.21.09-.45.17-.77.17s-.35.11-.36.15c0,.03,0,.08,0,.12-.21.05-.41.1-.57.14-.39.09-.67.16-.93.22l-.1-.15,1.63-1.25s.07.45.1.67c0,0,.32.06.51.02.2-.03.67-.22.71-.25.04-.03,0,.09-.22.17Z"/><path class="cls-13" d="M26.43,9.06s-2.31-.23-2.53-.23c-.2,0-.11.24-.09.4.47-.13,1.27.1.74.03-.55-.07-.73.09-.73.09,0,0,0,0,0,0-.02.14-.08.27.07.38.02.02.04.03.06.05.36-.2.9-.2.9-.2.5-.02.69.02.69.02,0,0-.21,0-.52.04-.31.04-.98.48-.98.48,0,.02,0,.04,0,.06.02.12.37.49.5.49s.92-.4,1.44-.49c.52-.09.56-.28.47-1.14ZM25.1,9.46c-.46-.02-.84.05-.88.05.49-.17,1.37-.03.88-.05ZM24.29,10.22s.41-.27.95-.3c-.05,0-.51.09-.95.3Z"/><path class="cls-25" d="M24.55,9.26c-.55-.07-.73.09-.73.09,0,0,0,0,0,0,0-.02,0-.05,0-.07,0-.02,0-.03,0-.05.47-.13,1.27.1.74.03Z"/><path class="cls-25" d="M25.52,9.61s-.21,0-.52.04c-.31.04-.98.48-.98.48,0-.1,0-.24-.08-.35.36-.2.9-.2.9-.2.5-.02.69.02.69.02Z"/><path class="cls-25" d="M25.1,9.46c-.46-.02-.84.05-.88.05.49-.17,1.37-.03.88-.05Z"/><path class="cls-25" d="M25.24,9.92c-.05,0-.51.09-.95.3.02-.02.41-.27.95-.3Z"/><path class="cls-26" d="M26.33,9.12s.48-.19.63-.31.25-.2.25-.2l-.08.11s-.13.18-.38.29-.41.19-.41.19v-.08Z"/><path class="cls-26" d="M26.37,9.86s.27,0,.49,0,.79-.15.91-.27.23-.31.23-.31c0,0-.11.34-.38.45s-.5.2-.85.19-.44.06-.4-.06Z"/><path class="cls-27" d="M24.14,7.99s-.37.11-.47-.5,0-1.08.47-1.39.84-.61,1.69-.87,2.63-.42,2.97.48.61,1.39.58,2-.58,2.27-1.13,2.48-.67.08-.81-.18-.23-.44-.62-.91-.39-.71-1.03-.81-1.1-.25-1.38-.27l-.27-.03Z"/></svg>