<?xml version="1.0" encoding="UTF-8"?>
<svg xmlns="http://www.w3.org/2000/svg" version="1.1" viewBox="0 0 150.6 92">
  <defs>
    <style>
      .cls-1 {
        mix-blend-mode: multiply;
      }

      .cls-1, .cls-2, .cls-3, .cls-4, .cls-5, .cls-6, .cls-7 {
        stroke-width: 0px;
      }

      .cls-1, .cls-6 {
        fill: #d6c9c3;
      }

      .cls-2 {
        fill: #6d574f;
      }

      .cls-3 {
        fill: #ac8f80;
      }

      .cls-4 {
        fill: #866f62;
      }

      .cls-8 {
        isolation: isolate;
      }

      .cls-5 {
        fill: #cf847c;
      }

      .cls-7 {
        fill: #6c5a52;
      }
    </style>
  </defs>
  <g class="cls-8">
    <g id="Livello_1" data-name="Livello 1">
      <g>
        <path class="cls-2" d="M138.2,9.3l.6-3.9,1.3-3.1s.2-1.7-.7-1.5-3.8,2.3-3.8,2.3l-4.4,4.6,6.9,1.7Z"/>
        <polygon class="cls-4" points="95.9 57.7 93.6 66.2 91.7 73.4 91 78.9 91.9 82.9 95.1 83.8 96.5 85.9 96.5 88 93.1 88.7 87.9 88.3 87.2 85.9 85.2 82 85.9 79.4 86.6 71 87.5 57.5 88.6 49.1 95.2 50.3 95.9 57.7"/>
        <polygon class="cls-2" points="86.2 82.1 87.3 84 87.8 86.3 88.4 85.7 87.8 81.5 86.2 82.1"/>
        <polygon class="cls-3" points="87.5 57.5 88.6 49.1 95.2 50.3 95.9 57.7 93.6 66.2 92.1 71.9 91.7 66.7 89.8 60.4 87.4 59.7 87.5 57.5"/>
        <polygon class="cls-2" points="90.9 85.8 91 85.4 91.9 85.7 93.4 87.1 93.9 88.5 93.3 88.7 93.1 88 92.5 86.7 90.9 85.8"/>
        <polygon class="cls-2" points="95.7 86.6 96.1 88.1 95.6 88.2 95.4 87.2 94.8 86 93.8 85 94.7 85.1 95.7 86.6"/>
        <polygon class="cls-1" points="86.6 71 87.5 57.5 88.6 49.1 90.8 49.5 88.9 61.9 87.7 70.4 87.2 78 85.4 82.3 85.2 82 85.9 79.4 86.6 71"/>
        <polygon class="cls-3" points="29.3 23.1 23.9 23.3 15.6 28.2 5.4 42.2 .9 52.9 .2 60.3 2.3 65.4 5.3 65.4 14.6 56.1 19.6 39.9 23.7 31.3 26.8 28.7 29.3 23.1"/>
        <path class="cls-6" d="M2.8,58.6c2,.3,3.9-2.5,3.9-2.5l4.3-4.1,3.2-6.2,4.9-9.9,3.7-7.1,4.7-1.5-.6,1.4-3.2,2.6-4,8.6s-3.3,14.4-5.1,16.1-7.6,7.5-9.3,9.3-3,0-3,0c0,0-1.6-3.2-2.1-5.1s.3-2.7.3-2.7c.3-.2.6-.3.6-.3,0,0-.3,1,1.7,1.3Z"/>
        <path class="cls-4" d="M2.6,49l2.9-6.7s8.5-12,10.2-14,8.2-4.9,8.2-4.9h.9s-6.1,4.1-6.1,4.1l-5.4,7.1-3.9,7.8s-2.9,4.3-4.3,5.8-2.4.9-2.4.9Z"/>
        <polygon class="cls-4" points="57.2 46.8 54.7 56.1 50 63.8 45.9 69.2 45.8 71.9 49.3 79.1 51 82 52.1 83.1 55.8 84.3 58.4 87.8 57.7 88.5 51.6 88.2 48.1 87.3 47.4 83.3 42.4 77.1 38.6 71.9 37.4 69.2 37.7 66.8 40.3 63.4 40.2 52.4 45.6 44.3 57.2 46.8"/>
        <polygon class="cls-3" points="40.3 63.4 40.2 52.4 45.6 44.3 57.2 46.8 54.7 56.1 50.6 62.8 48.1 60.5 43.8 59.6 41.8 63.6 38.7 68.4 39.7 73.4 38.6 71.9 37.4 69.2 37.7 66.8 40.3 63.4"/>
        <path class="cls-1" d="M38.6,71.9l-1.2-2.6.4-2.5,2.6-3.3-.2-11,.8-1.1c1.2.9,2.3,1.9,2.3,1.9,0,.4-.4,9.2-.4,9.2l-1.8,5.4v4.6s3.3,5.2,3.3,5.2l3.3,4.7.8,2.6-.7.9-.4-2.5-4.9-6.1-3.9-5.3Z"/>
        <polygon class="cls-3" points="150.3 30.1 146.1 25 144.2 21.5 144 18.5 142.6 14 138.9 8.9 134.7 7 125.6 7.5 120 10 116.4 11 100.7 12.1 95.6 10.8 92.2 10.5 87 12.9 73.7 14.3 58 13.6 48.2 12.2 38.8 14 27.5 21.7 24.4 32.6 23 45.9 24.7 58 23.5 62.9 20.5 66.4 19.1 67.7 19.8 74.8 22.6 85.5 24 87.1 25.3 90.6 29.3 92 31 91.9 31.6 90.6 34.2 91.1 35.8 89.9 33.3 86.1 28.9 85.2 27.7 83.1 25.3 70.8 31.2 66.6 35.8 61.7 44.7 52.9 48.9 47.5 53.3 48.2 67.9 50.3 84 51.7 93.1 52.2 95.4 60.6 97.2 70.5 98 76.9 97.5 80.3 97.5 81.9 100.3 85.7 101.7 90.1 102.8 91 109.8 91 111.5 90.4 110.8 88 107 85.4 104 78.3 103.8 72.4 106.6 53.4 108.2 49.8 114.2 45.9 119.8 39.1 121.9 38.4 124.5 40.6 127.7 38.4 132.6 31.9 136.1 30.6 141.2 33.6 143.8 34.7 147.7 33.8 150.6 32.1 150.3 30.1"/>
        <path class="cls-6" d="M19.2,68.2l3.1-.2,2.6-2.3,3.7-4.4s3-5.2,4.7-7.4,6.5-4.6,5.3-3.7,8.9-9.3,8.9-9.3c0,0,1.1-4.1,2.5-5.8s3.3-.9,3.3-.9l4,3.2,5.1.9,10.2,1.6,7.9.2,8.2-1.1,5.4-.7,2.1,1.9-1.4,5.6-1.8,3.7-.2,2.6-8.9-.5-16.1-1.4-14.6-2.1-4.4-.7-4.2,5.4-8.9,8.8-4.6,4.9-6,4.2,2.5,12.3,1.2,2.1,4.4.9,2.5,3.9-1.6,1.2-2.6-.5-.5,1.2-1.8.2-4-1.4-1.2-3.5-1.4-1.6-2.8-10.7-.6-6.6Z"/>
        <polygon class="cls-6" points="108.2 50.3 108 50.9 107.9 46.7 109.8 42 109.3 36.2 111.5 30.9 113.6 29.8 114.7 32.6 117.5 37.7 117.4 42.3 114.2 46.3 108.2 50.3"/>
        <polygon class="cls-6" points="125.7 37.8 126.3 33.6 129.1 30.1 131.4 27.3 130.7 25.4 127.1 22.8 127.1 20 134 19.6 136.6 23.5 138.9 24 142.9 26.1 144.3 25.4 146.3 25.3 150.3 30.1 150.6 32.1 147.7 33.8 143.8 34.7 141.2 33.6 136.1 30.6 132.6 31.9 127.7 38.4 125.5 39.9 125.7 37.8"/>
        <path class="cls-4" d="M106.1,42.4l1.6-4s-.7-5.4-.7-6-.5-5.3-.5-5.3l-.2-7.7-3-4.4,1.4,6.3-1.6,8.2-1.4,5.3,1.4,3.9,3,3.7Z"/>
        <path class="cls-4" d="M140.6,18.7l1.7,2.4c-.4.1-2.2-1.7-2.2-1.7l.5-.7Z"/>
        <polygon class="cls-2" points="141.3 18.1 140.5 19.1 140.3 19.9 139.3 19.1 138.5 17.5 139.9 17.9 141.3 18.1"/>
        <polygon class="cls-3" points="140.3 18.3 140 18.9 139.7 18.6 139.8 18.2 140.3 18.3"/>
        <polygon class="cls-2" points="150.6 32.1 148.3 33.4 148.6 31.7 147.7 31.2 147.8 30.2 148.9 30 149.3 28.9 150.3 30.1 150.6 32.1"/>
        <polygon class="cls-2" points="139.9 31.1 143.4 33.3 145.9 34.2 145.2 34.4 143 33.4 141.3 32.3 138.6 30.7 136.6 30 136.4 29.5 137.4 29.4 139.9 31.1"/>
        <polygon class="cls-4" points="141 15.7 140.1 13.1 136.6 10 134.4 9.6 134.9 12.5 132.8 15 127.8 16.5 127.7 18.6 129.7 17.9 133.8 16.7 135.5 17.1 137.1 15.7 141 15.7"/>
        <polygon class="cls-4" points="129 26.5 127.7 29 126.1 28.9 127.8 26.6 128.2 25.4 129 26.5"/>
        <polygon class="cls-4" points="126.5 26.7 122.8 29.2 120.3 32.5 118.4 33.2 117.3 32.8 119.7 31 121.5 26.9 127.1 24.1 126.5 26.7"/>
        <polygon class="cls-4" points="125.2 32.4 124.6 35.8 122.1 35.7 120.2 36.3 119.6 35.7 121.7 34.4 123 31 125.1 29.2 126.5 29.8 125.2 32.4"/>
        <polygon class="cls-4" points="118.2 35.2 117.3 34.2 120.2 33.3 120.3 34 118.2 35.2"/>
        <path class="cls-4" d="M41.7,14.9c-2.1.7-6.3,3.5-7.9,4.9s-2.6,4.5-2.6,5.3-.1,6.3,0,7.1.9,1.8.4,3.2-5,6.3-5,6.3l-.3,2.9-.8,5.1-1.6,2.6-.9-6.4,1.4-13.3s2.2-9.3,3.2-10.9,9-6.7,11.2-7.7,7.7-1.7,9.5-1.8,7.9,1.3,9.8,1.4,12.8.4,16.3.3,12.6-1,12.6-1c0,0,4.1-2.2,5.3-2.5s3.3.4,3.3.4c0,0,4.2.9,5.9,1s14.5-.8,14.5-.8l-.7,1s-4.1.9-4.5.8c-.4-.1-7,.5-7,.5l-5.3,2.1-6.3.9s-4.3-1.2-5.1-.7-.7,2.4-.7,2.4v2.2c-.1,0-2,.8-2,.8l-3.3-2.6s-2.6-1.4-4.6-1.6l-11.4-.9s-8.5-.3-6.7-.3-7.1-.9-7.1-.9c0,0-7.6-.5-9.7.1Z"/>
        <polygon class="cls-7" points="98.8 82.3 100.2 84 101.7 84.7 101.8 84.2 99.9 82.4 99.1 80.6 98.8 82.3"/>
        <path class="cls-7" d="M108.5,89.1l-2.5-1.1v-.5c.1,0,2.9,1.1,2.9,1.1l.7,2.4h-.9c0-.7-.2-1.9-.2-1.9Z"/>
        <polygon class="cls-7" points="109.2 87.6 110.6 88.8 111 90.6 110.6 90.7 110.4 89.1 109.1 87.8 109.2 87.6"/>
        <polygon class="cls-4" points="99.3 44.4 99.2 50.6 101.9 54.4 104 55.2 105 53.6 102.5 50.8 100.6 45.6 99.3 44.4"/>
        <polygon class="cls-6" points="91.5 47 93.8 47 94.8 52.9 96.9 62 98.8 71.2 98.9 76.2 97.9 77.9 98 76.9 97.2 70.5 95.4 60.6 93.1 52.2 90.1 52 89.7 50.3 91.5 47"/>
        <polygon class="cls-4" points="22.6 69 21.6 72.1 21.7 75.9 20.7 71.6 21 69 22.6 69"/>
        <polygon class="cls-4" points="19.8 74.8 19.2 68.2 20.5 68.1 19.8 69.3 20.5 74.6 21.8 79.5 23.6 84 25.4 86.9 26 90.9 25.3 90.6 24 87.1 22.6 85.5 19.8 74.8"/>
        <path class="cls-4" d="M32,87l2.1,2.5.4,1.5-.3.2h-.3c-.2-.7-.5-1.7-.5-1.7l-2.3-2.5-.9-.3v-.4c0,0,1.8.8,1.8.8Z"/>
        <path class="cls-4" d="M28.7,87.4l1.8,1.8,1,1.7-.4,1h0c-.2-.8-.5-1.9-.5-1.9l-1.8-1.9v-.6Z"/>
        <polygon class="cls-4" points="121.8 12.1 119.6 10.1 120 10 124 8.2 124.4 12 125.2 14.6 123.5 16.1 121.8 12.1"/>
        <path class="cls-1" d="M134.7,7l4.2,1.9,3.7,5.1,1.4,4.6.2,3,1.9,3.5,4.2,5.1.4,1.9-.4.2-.6-2-1.4-1.8-3.1-3.1-1.8-3.2v-2.5c0,0-1.1-4.1-1.1-4.4s-2.3-4.1-2.3-4.1l-2.4-2.1-2.5-1.4-2.3-.4v-.2c0,0,1.8-.1,1.8-.1Z"/>
        <polygon class="cls-5" points="126.6 13.7 129.5 12.9 131.2 12.4 132.8 11 134.2 10.9 134.8 9.7 133.2 5 132.7 .7 131.9 0 128.5 4.3 126.5 9.9 126.6 13.7"/>
        <polygon class="cls-1" points="130.8 5 132.1 7.8 132.9 11 132.8 11 131.2 12.4 129.5 12.9 129.5 12.9 128.6 11.4 128.5 8.1 130.4 3.5 130.8 5"/>
        <path class="cls-2" d="M131.9,0c.9-.3.8.7.8.7l.5,4.2,1.6,4.7-.6,1.2h-.1s-.3-2.3-.3-2.3l-.8-2.5-.5-4-.8.5-1.7,3.2-.4,3.2.8,2.1,1,1.1h-.1c0,.1-1.6.6-1.6.6l-2.9.8v-3.9c0,0,1.9-5.6,1.9-5.6,0,0,2.4-3.9,3.3-4.2Z"/>
        <polygon class="cls-1" points="53.3 48.2 48.9 47.5 44.7 52.9 35.8 61.7 31.8 65.9 34.4 61.2 42.3 51.7 46.5 45.4 51.2 43.5 61.2 46.4 83 47.8 91.5 47.5 94.9 47.7 94.2 50.8 93.9 54.9 93.1 52.2 84 51.7 67.9 50.3 53.3 48.2"/>
      </g>
    </g>
  </g>
</svg>