<?xml version="1.0" encoding="UTF-8"?><svg id="Livello_1" xmlns="http://www.w3.org/2000/svg" viewBox="0 0 56.56 38.13"><defs><style>.cls-1{fill:#fff;stroke-width:0px;}</style></defs><path class="cls-1" d="M30.69,12.58s-.41.64-.98.53c-.57-.11-.53-.49-.45-.75s.41-1.77.41-1.77c0,0,.08-1.06.08-1.4s0-1.24.21-1.74.51-1.17.51-1.17c0,0,.11-1.28.23-1.74.11-.45.23-.41.15-.87-.08-.45-1.02-.75-1.43-1.47s-.23-1.96.91-2.15c1.13-.19,1.13.15,1.13.15,0,0,.64-.32.97-.04.38.32.38.26.38.26,0,0,2.15-.03,1.62,1.36-.58,1.52-2.19,1.58-2.19,1.58,0,0,.08,1.06-.19,1.24-.26.19-.13,1.02-.21,1.51-.09.49.1,1.24-.24,1.7-.34.45-.23,1.06-.41,1.4-.19.34-.26,1.32-.23,1.51s.13,1.46-.26,1.85h0Z"/><path class="cls-1" d="M25.01,12.52s-.1.76-.66.9-.69-.22-.73-.49-.38-1.78-.38-1.78c0,0-.38-.99-.53-1.29s-.53-1.12-.55-1.66c-.02-.53-.04-1.28-.04-1.28,0,0-.44-1.21-.54-1.67-.09-.46.03-.47-.23-.85s-1.24-.25-1.92-.72-1.04-1.68-.1-2.33c.94-.65,1.09-.35,1.09-.35,0,0,.44-.56.86-.45.48.13.46.08.46.08,0,0,1.93-.94,2.05.54.12,1.62-1.3,2.37-1.3,2.37,0,0,.52.92.36,1.21s.32.98.45,1.46.62,1.08.51,1.64c-.11.55.25,1.05.22,1.44-.03.39.32,1.31.44,1.46.11.15.74,1.26.55,1.78h0Z"/><path class="cls-1" d="M19.83,15.03s.21.74-.25,1.08c-.46.35-.72.07-.86-.16-.15-.23-1.05-1.49-1.05-1.49,0,0-.74-.76-1-.98-.25-.22-.94-.82-1.16-1.3s-.54-1.16-.54-1.16c0,0-.89-.93-1.15-1.32-.26-.38-.16-.44-.55-.69s-1.24.26-2.05.1-1.62-1.13-1.01-2.1c.61-.97.86-.75.86-.75,0,0,.18-.69.62-.75.49-.07.45-.11.45-.11,0,0,1.7-1.46,2.39-.15.76,1.44-.56,2.52-.56,2.52,0,0,.84.64.81.97-.03.32.68.77.99,1.16s1,.75,1.11,1.3c.11.55.64.87.77,1.24s.81,1.07.98,1.17,1.18.87,1.21,1.42h0Z"/><path class="cls-1" d="M14.85,19.79s.43.63.11,1.11c-.32.48-.66.3-.87.12-.21-.17-1.47-1.07-1.47-1.07,0,0-.94-.48-1.26-.61s-1.15-.48-1.52-.86c-.37-.38-.88-.93-.88-.93,0,0-1.14-.6-1.51-.88-.37-.28-.29-.37-.74-.48-.45-.11-1.09.64-1.91.75-.82.1-1.89-.55-1.63-1.67.27-1.12.58-.98.58-.98,0,0-.05-.72.34-.91.44-.22.39-.25.39-.25,0,0,1.14-1.93,2.22-.91,1.18,1.13.27,2.57.27,2.57,0,0,1,.34,1.07.66.07.32.89.51,1.31.78s1.19.39,1.47.88c.29.49.88.62,1.12.92.24.31,1.11.76,1.3.8s1.39.45,1.6.96h0Z"/><path class="cls-1" d="M13,24.28s.66.39.57.96c-.09.57-.47.55-.73.48-.27-.06-1.79-.34-1.79-.34,0,0-1.06-.03-1.4-.02s-1.24.06-1.74-.13-1.19-.46-1.19-.46c0,0-1.29-.06-1.74-.15s-.42-.21-.87-.11c-.45.09-.71,1.05-1.41,1.49-.7.44-1.95.31-2.19-.81-.24-1.12.1-1.14.1-1.14,0,0-.35-.63-.08-.97.31-.39.25-.4.25-.4,0,0,.21-2.23,1.62-1.77,1.54.52,1.35,2.21,1.35,2.21,0,0,1.05-.12,1.25.14s1.02.08,1.52.15,1.24-.15,1.71.17c.47.32,1.06.18,1.41.36.35.17,1.33.21,1.52.16.19-.05,1.45-.19,1.86.19h0Z"/><path class="cls-1" d="M12.6,32.39s.69.32.66.9-.41.59-.68.55c-.27-.04-1.81-.16-1.81-.16,0,0-1.06.07-1.39.12-.34.05-1.23.18-1.75.04-.52-.14-1.23-.34-1.23-.34,0,0-1.29.07-1.75.02-.46-.05-.44-.16-.88-.03s-.6,1.11-1.25,1.63-1.91.5-2.26-.59c-.35-1.09-.01-1.14-.01-1.14,0,0-.41-.59-.18-.96.27-.42.21-.42.21-.42,0,0-.01-2.24,1.43-1.92,1.59.36,1.56,2.06,1.56,2.06,0,0,1.03-.22,1.26.01.22.23,1.03-.02,1.52,0s1.22-.28,1.71,0,1.08.07,1.44.21c.36.14,1.34.07,1.53.01.18-.06,1.42-.33,1.87,0h0Z"/><path class="cls-1" d="M35.04,13.9s-.19.55.31.84c.5.29,1.06-.31,1.18-.56s.6-1.09.6-1.09c0,0,.65-.84.87-1.09.23-.25.83-.92,1-1.43s.4-1.21.4-1.21c0,0,.77-1.03.99-1.44s.11-.46.47-.75c.36-.29,1.26.12,2.05-.14.79-.26,1.48-1.31.76-2.21-.72-.89-.94-.64-.94-.64,0,0-.26-.67-.7-.68-.5-.01-.46-.06-.46-.06,0,0-1.86-1.26-2.39.13-.58,1.52.85,2.44.85,2.44,0,0-.76.74-.69,1.05.07.32-.58.84-.85,1.27-.26.42-.91.86-.95,1.42-.05.56-.53.94-.62,1.32-.09.38-.68,1.16-.84,1.28s-1.07,1-1.03,1.55h0Z"/><path class="cls-1" d="M40.03,17.67s-.36.54-.13.87c.33.47,1,.21,1.19.02.2-.19,1.17-.95,1.17-.95,0,0,.89-.57,1.19-.73.3-.16,1.09-.59,1.43-1.01.33-.42.78-1.01.78-1.01,0,0,1.07-.71,1.42-1.03.34-.32.26-.4.69-.55.43-.15,1.15.53,1.98.56s1.83-.74,1.46-1.82-.67-.92-.67-.92c0,0-.02-.72-.43-.87-.46-.18-.42-.21-.42-.21,0,0-1.33-1.81-2.3-.68-1.06,1.24-.02,2.58-.02,2.58,0,0-.96.44-1,.76s-.83.6-1.22.91c-.39.31-1.14.51-1.38,1.02s-.82.7-1.03,1.03c-.21.33-1.03.86-1.22.92s-1.34.58-1.5,1.12h0Z"/><path class="cls-1" d="M43.54,25.33s-.58.5-.39,1.04c.19.55.56.46.81.35.25-.11,1.7-.64,1.7-.64,0,0,1.04-.21,1.37-.26s1.23-.16,1.69-.43,1.09-.66,1.09-.66c0,0,1.26-.28,1.69-.45.43-.17.38-.28.84-.26.46.02.88.91,1.65,1.23.77.32,1.97-.03,2.01-1.18.04-1.15-.3-1.1-.3-1.1,0,0,.23-.68-.09-.97-.37-.33-.31-.35-.31-.35,0,0-.59-2.16-1.9-1.46-1.43.77-.94,2.41-.94,2.41,0,0-1.06.06-1.21.35s-.99.26-1.47.41c-.47.15-1.25.06-1.65.46s-1.02.36-1.33.59-1.27.44-1.47.42c-.19-.01-1.46.06-1.8.5h0Z"/><path class="cls-1" d="M43.77,32.36s-.38.09-.35.67c.03.58.66.39.93.35.27-.04,1.44,0,1.44,0,0,0,1.06.07,1.39.12s1.23.18,1.75.04c.52-.14,1.23-.34,1.23-.34,0,0,1.29.07,1.75.02s.44-.16.88-.03.6,1.11,1.25,1.63,1.91.5,2.26-.59c.35-1.09.01-1.14.01-1.14,0,0,.41-.59.18-.96-.27-.42-.21-.42-.21-.42,0,0,.01-2.24-1.43-1.92-1.59.36-1.56,2.06-1.56,2.06,0,0-1.03-.22-1.26.01-.22.23-1.03-.02-1.52,0s-1.22-.28-1.71,0-1.08.07-1.44.21c-.36.14-1.34.07-1.53.01-.18-.06-1.62-.07-2.06.26h0Z"/><path class="cls-1" d="M9.21,24.74c0-.05.33-5.41,5.52-10.07,5.72-5.13,10.53-5.72,13.65-5.72,2.8,0,7.15.52,12.53,5.04,5.37,4.5,5.91,9.01,5.95,10.28.02.54.04,6.02.08,13.86h.8c-.03-7.85-.06-13.34-.08-13.89-.04-1.36-.61-6.15-6.23-10.87-5.58-4.68-10.12-5.23-13.04-5.23-3.25,0-8.26.61-14.19,5.93-5.45,4.89-5.77,10.4-5.79,10.65v13.4h.8v-13.39Z"/></svg>