<?xml version="1.0" encoding="UTF-8"?>
<svg id="Livello_1" data-name="Livello 1" xmlns="http://www.w3.org/2000/svg" xmlns:xlink="http://www.w3.org/1999/xlink" version="1.1" viewBox="0 0 376 227">
  <defs>
    <style>
      .cls-1 {
        filter: url(#drop-shadow-4);
      }

      .cls-2 {
        filter: url(#drop-shadow-2);
      }

      .cls-3 {
        filter: url(#drop-shadow-3);
      }

      .cls-4 {
        filter: url(#drop-shadow-1);
      }

      .cls-4, .cls-5 {
        fill: #fff;
        stroke-width: 0px;
      }
    </style>
    <filter id="drop-shadow-1" filterUnits="userSpaceOnUse">
      <feOffset dx=".6" dy=".6"/>
      <feGaussianBlur result="blur" stdDeviation="4.3"/>
      <feFlood flood-color="#8c8b8b" flood-opacity=".3"/>
      <feComposite in2="blur" operator="in"/>
      <feComposite in="SourceGraphic"/>
    </filter>
    <filter id="drop-shadow-2" filterUnits="userSpaceOnUse">
      <feOffset dx=".6" dy=".6"/>
      <feGaussianBlur result="blur-2" stdDeviation="4.3"/>
      <feFlood flood-color="#8c8b8b" flood-opacity=".3"/>
      <feComposite in2="blur-2" operator="in"/>
      <feComposite in="SourceGraphic"/>
    </filter>
    <filter id="drop-shadow-3" filterUnits="userSpaceOnUse">
      <feOffset dx="0" dy="-2.8"/>
      <feGaussianBlur result="blur-3" stdDeviation="5.7"/>
      <feFlood flood-color="#858585" flood-opacity=".2"/>
      <feComposite in2="blur-3" operator="in"/>
      <feComposite in="SourceGraphic"/>
    </filter>
    <filter id="drop-shadow-4" filterUnits="userSpaceOnUse">
      <feOffset dx=".6" dy=".6"/>
      <feGaussianBlur result="blur-4" stdDeviation="4.3"/>
      <feFlood flood-color="#8c8b8b" flood-opacity=".3"/>
      <feComposite in2="blur-4" operator="in"/>
      <feComposite in="SourceGraphic"/>
    </filter>
  </defs>
  <path class="cls-4" d="M222.9,98.1c.2,0,.3-.1.5-.2,0,0-26.1,4.5-46.2-6-2.9-1.5-5.6-3.3-8.2-5.5,0,0,0,0,0,0h0s5.1-1.2,5.4-2.2c.1-.4.6-.5,1.2-.5,1.1,0,2.5.6,3.1,1.4h.1c.1.2.3.3.4.2.8.1.3-5.6-3.9-6.4,0,0-1.4-2.3-5.7-2.2-4.3,0-9.1-1.8-9.1-1.8-.4-.4-.9-.5-1.4-.5-3,.1-6.1-1.1-8.1-3.4-3.1-3.4-24.9-28.9-31.5-35s-8.8-18.1-9.1-29.3c0,0,0,0,0,.2,0,0,0-.1,0-.2,0,0-7,12.4-3.7,28.2-.3-.2-1-1-1.5-1-.3,0-.6.2-.8.9-.8,3.7,0,11.6,5.1,19.4-.4-.3-1.1-.9-1.7-.9-.5,0-1,.2-1.1,1.3-.2,1.7,0,6.1,5.8,13.4,5.7,7.2,19.8,13.9,20.2,14.1-1.6-.1-21.3-1.7-28.2-6.5,0,0-.2,0-.2,0-1.7-.3-8,9.7-.8,20.7,5.6,8.6,13.4,12.2,20.5,12.4,2.4,0,4.7-.2,6.8-.8,8.5-2.3,8.9-9.2,8.9-9.2.2,0,.9,0,1.7,0,1.6,0,4-.1,5.1-.8.5.3,7.7,5,19.8,6.6,1.6.2,3.1.4,4.4.5,1.2.1,2.2.2,3.2.2-.2,0-.3.1-.1.2,0,.1,1.1.3,3.7.6,6,.6,11.8.2,15.9-.3-.5.1-.7.3-.3.3,0,.1.9.2,3.1,0,8.5-.3,17.1-3.7,27.4-8.1,0,0-.3,0-.7.1Z"/>
  <g class="cls-2">
    <path class="cls-5" d="M167.1,195.4s0,0,0,0l-2.1,3.2s0,0,0,0h0s.6-.7.8-1c.2-.2,1.4-2.2,1.4-2.2h0Z"/>
    <path class="cls-5" d="M166.2,195.4s0,0,0,0l-2.7,2.6s0,0,0,0h0c.2-.2.5-.4.6-.5.3-.2,2.1-2.1,2.1-2.1h0Z"/>
    <path class="cls-5" d="M157,183.7s0,0,0,0c0,0,0,0,0,0,0,0,0,0,0,0,0,0,0,0,0,0,0,0,0,0,0,0,0,0,0,0,0,0,0,0,0,0,0,0,0,0,0,0,0,0,0,0,0,0,0,0,0,0,0,0,.1.1,0,0,0,0,0,0,0,0,0,0,0,0Z"/>
    <path class="cls-5" d="M163.5,198c-.3.3-.7.6-.7.6h0s0,0,0,0l.7-.6s0,0,0,0h0Z"/>
    <path class="cls-5" d="M169.5,194.2s0,0,0,0c0-.3,0-1.6-.1-1.8-.1-.2-.3-.9-.4-1.2-.1-.3-.9-1.8-1-2,0-.2-.6-.8-.6-.8l-.3-.6s0,0,0,0h0s.1.4,0,.4c0,0,0,0,0,0-.2-.1-.5-.9-.5-.9,0,0,0,0,0,0,0,0,0,0,0,0,0,0,0,.2,0,.2,0,0,0,0,0,0-.2,0-.7-.8-.7-.8v-.5c-.1,0-.1,0-.1,0h0s0,.2,0,.3c0,0,0,0,0,0-.2,0-.6-.8-.6-.8,0,0,0,0,0,0,0,0,0,0,0,0,0,0,0,.4-.2.3-.2,0-.7-.7-.7-.7,0,0,0,0,0,0,0,0,0,0,0,0,0,0,0,.2-.1.2-.2,0-.6-.3-.7-.4-.1,0-.7-.3-.7-.3,0,0,0,0,0,0,0,0,0,0,0,0,0,0,.3.2,0,.3,0,0,0,0,0,0-.2,0-1.1-.4-1.1-.4,0,0,0,0,0,0,0,0,0,0,0,0,0,0,.1.2,0,.2,0,0,0,0,0,0,0,0,0,0-.4,0-.5,0-1.5,0-1.6,0s-.3-.2-.8-.4c-.4-.1-.6-.2-.6-.2,0,0,0,0,0,0s0,0,0,0c-.1,0-.7-.4-.7-.5,0,0-.1-.1-.2-.2,0,0,0,0,0,0,0,0,0,0,0,0,0,0,0,0,0,0,0,0,0,0,0,0,0,0,0,0,0,0,0,0,0,0,0,0,0,0,0,0,0,0h0c-.3,0-1.2-.9-1.2-.9,0,0,0,0,0,0h0s0,0-.1,0c-.4,0-1.3-.6-1.3-.6,0,0-.8,0-1-.3-.3-.2-.4-.2-.4-.2,0,0,0,0,0,0,0,0,0,0,0,0,0,0,.1.2,0,.2-.1,0-1-.2-1.3-.2,0,0,0,0,0,0,0,0,0,0,0,0-.2,0-.6-.1-.6-.1,0,0,0,0,0,0h0c-.1,0-.4,0-.8,0,0,0-.1,0-.2,0,0,0,0,0,0,0-.6,0-1.1,0-1.1,0h0s0,0,0,0c0,0,.3,0,.3.2s-1.8.2-1.9.2c0,0-.2.1-.2.1,0,0,0,0,0,0,0,0,0,0,0,0,0,0,.3-.2.4-.1,0,0,0,0,0,0,0,.2-.5.3-.5.3s-1.2,0-1.2,0h-.4c0,.1.6.2.5.2s-.8.3-.9.3-1.2.3-1.2.4,0,.2-.2.3-1.4.6-1.4.6c0,0,0,0,0,0h0s.2,0,.3,0c0,0,.1,0,0,0,0,0,0,.3-.2.4s-1.2.6-1.2.6c0,0,0,0,0,0,0,0,0,0,0,0,0,0,.3-.1.5-.1,0,0,0,0,.1,0,0,.1-1.3,1-1.5,1.3-.2.2-.5.6-.5.6,0,0,0,0,0,0,0,0,0,0,0,0,0,0,.3-.2.5-.2,0,0,0,0,0,0,.1.1-.1.5-.3.6-.1.1-.7.8-.7.8,0,0,0,0,0,0h0s.5-.2.6-.2c0,0,0,0,0,0,0,.1,0,.3-.1.4-.2.1-.7,1.1-.7,1.1,0,0,0,0,0,0,0,0,0,0,0,0,0,0,.2-.2.4-.2,0,0,0,0,.1,0,0,.2,0,.7-.1.8,0,0-.5.7-.5.7,0,0,0,0,0,0,0,0,0,0,0,0,0,0,.6-.6.8-.7,0,0,0,0,0,0,.1.2,0,.5-.2.6s-.7,1.2-.7,1.4,0,.3,0,.3c0,0,0,0,0,0,0,0,0,0,0,0,0,0,.5-.5.6-.5,0,0,0,0,0,0,0,.2-.2.5-.3.7s-.5,1.2-.5,1.2c0,0,0,0,0,0,0,0,0,0,0,0,0,0,.2-.4.3-.3,0,0,0,0,0,0,0,.3-.4,1.1-.4,1.1h0s0,0,0,0c0,0,.4-.2.6-.3,0,0,0,0,0,0,0,0-.6,1.3-.6,1.3,0,0,0,0,0,0,0,0,0,0,0,0,0,0,.8-1.2.9-1.1,0,0,0,0,0,.1,0,.5-.4,1-.4,1.1s-.4.5-.4.5c0,0,0,0,0,0,0,0,0,0,0,0,0,0,.2,0,.3,0,0,0,.1,0,0,.2,0,0-1.3,0-2.4,0,0,0,0,0,0,0-.2,0-.3,0-.4,0-.2,0-.4,0-.6,0-.7,0-3.8-.5-5.2-1.9-1.7-1.6-2.4-2.3-.6-4,0,0,1.4-1.1,2.9-1.5,1.5-.5,2.4-.8,2.3-1,0-.2-.4-.5-.9-.6,0,0-.1,0-.2,0-.6,0-3,.3-3.7.8-.7.5-2.4,2.3-2.6,3-.1.7-.2,1.7.3,2.7s2.2,2.6,3.4,3c1.2.4,3.9,1,4.4,1h2.9c0,.1,0,.1,0,.1h0s0,0,.2-.1h.3c0-.2,0-.2.1-.2,0,0,0,0,0,0,0,0,0,0,0,0,0,0,0,0,0,0,0,0,0,0,0,0,0,0,0,0,0,0,0,0,0,0,0,0,0,0,0,0,0,0,0,0,0,0,0,0,0,0,0,0,0,0,0,0,0,0,0,0,0,0,0,0,0,0,0,.3-.1.2-.2.3s0,0,0,0c0,0,.3,0,.7,0,0,0,.1,0,.2,0,.6,0,.6.2.6.2,0,0,0,0,0,0,0,0,0,0,0,0,0,0,.2-.2.4-.2,0,0,0,0,0,0,.1.1-.2.3-.2.3,0,0,1.3.1,1.4.3,0,.1.6.4.5.4s1,0,1.3.1c0,0,0,0,.2,0,.4,0,1.3-.2,1.3-.2,0,0,.1,0,0,.2-.1.1-1.2.5-1.2.5,0,0,0,0,0,0h0s1.8-.1,2.2-.2c.3,0,.7-.2.8-.2,0,0,0,0,0,0,0,0,0,0,0,0,0,0,0,0,0,0-.2.2-.9.5-.9.5,0,0,0,0,0,0h0s1.2-.2,1.5-.3c.3-.1.5-.2.6-.2,0,0,0,0,0,0,0,.2-.1.3-.1.3,0,0,0,0,0,0h0s.2,0,.5-.2c0,.1.1.2.2.3,0,0,0,0,0,0,0,0,0,0,0,0,0,0,0,0,0,0,0,0,0,0,0,0,0,0,0,0,0,0,0,0,0,0,0,0,0,0,0,0,0,0,0,0,0,0,0,0,.3,0,.7,0,1.1,0,.2,0,.5,0,.6,0,.4-.1,1-.1,1.6-.2,0,0,1,.1,1.2.2.2,0,.4,0,.6,0,0,0,.1,0,.2,0,.2,0,.6,0,.8,0,0,0,.2,0,.2,0,.2,0,.3.1.3.1h0s0,0,0,0c0,0,0,0,0,0,0,0,.2,0,.3,0,0,0,0,0,0,0,0,0,0,0,0-.1,0,0-.3-.4-.3-.4h0s0,0,0,0h0s0-.4,0-.4c.3,0,.6.3.6.3,0,0,0,0,.2,0,0,0,.1,0,.1,0,0,0-.2-.2-.2-.2-.2-.2-.2-.4-.2-.4v-.5s-.3-.6-.6-.6c0,0-.1,0-.2,0-.4,0-1.1,0-1.5,0-.3,0-.4,0-.5,0,0,0,0,0,0,0,0,0,0,0,0,0,0,0,0,0,0,0,0,0,0,0,0,0,0,0,0,0,0,0,0,0,0,0,0,0,0,0,0,0,0,0,0,0,0,0,.1,0,0,0,0,0,0,0,0,0,0,0,0,0,0,0,0,0,0,0,0,0,.7-.6.8-.6,0,0,0,0,0,0,0,.1,0,.1.2.1.1,0,.2,0,.2,0,0,0,.1,0,.2,0,0,0,0,0,0,0,0,0,0,0,0,0,0,0,0,0,0,0,0,0,0,0,0,0,0,0,0,0,0,0,0,0,0,0,0,0,0,0,0,0,0,0,0,0,0,0,0,0,0,0,0,0,0,0,0,0-.2,0-.2,0,0,0,0,0,0,0,0,0,0,0,0,0,0,0,.3,0,.5-.1,0,0,0,0,0,0,0,0,0,0,0,0,0,0,0,0,0,0,0,0,0,0,0,0,0,0,0,0,0,0,0,0,0,0,0,0,0,0,0,0,0,0,0,0,0,0,0,0,0,0,0,0,0,0,0,0,0,0,0,0,0,0,0,0,0,0,0,0,0,0,0,0,0,0,0,0,0,0,0,0,0,0,0,0,0,0,0,0,0,0,0,0,0,0,0,0,0,0,0,0,0,0,0,.2.2.2.2.2h0s.9,0,1.2,0c.2,0,.3,0,.4,0,0,0,.2,0,.2,0,0,.2-.2.4-.2.4,0,0,0,0,0,0,0,0,0,0,0,0,0,0,1-.5,1.2-.5,0,0,0,0,0,0,.1,0,.1.4.1.4h0s0,0,0,0c0,0,.7-.7.9-.7,0,0,0,0,0,0,0,0,0,0,0,0,0,0,0,0,0,.1,0,0,0,0,0,0,0,0,0,0,0,0,0,0,.4.2.6.2,0,0,0,0,0,0,.2,0,.4-.1.7-.1.3,0,.7,0,.9.1,0,0,0,0,0,0,.2,0,.7,0,.8,0,.1,0,0-.3,0-.3,0,0,.2,0,.3-.1s-.2-.2-.2-.2v-.3c0,0,0-.1,0-.2,0,0-.1-.2-.3-.2,0,0,0,0,0,0,0,0,0,0,0,0,0,0,0,0,0,0,0,0,0,0,0,0,0,0,0,0,0,0,0,0,0,0,0,0,0,0,0,0,0,0,0,0,0,0,0,0,0,0,0,0,0,0,0,0,0,0,0,0,0,0,0,0,0,0,0,0,0,0,0,0,0,0,0,0,0,0,0,0,0,0,0,0,0,0,0,0,0,0,0,0,0,0,0,0,0,0,0,0,0,0,0,0,0,0,0,0,0,0,0,0,0,0,0,0,0,0-.1,0,0,0,0,0,0,0-.2,0-.4,0-.4,0,.2-.2.5-.4.6-.4,0,0,0,0,0,0,0,0,0,0,0,0,0,0,0,0,0,0,0,0,0,0,0,0,0,0,0,0,0,0,0,0,0,0,0,0,.1,0,.5-.2.5-.2,0,0,0,0,0,0,0,0,0,0,0,0,0,0,0,0,0,0,0,0,0,0,0,0,0,0,0,0,0,0,0,0,0,0,0,0h.1c0,0,0,0,0,0h0s.6-.3.6-.3c0,0,.3-.1.4-.1,0,0,0,0,0,0,0,.1-.2.3-.2.3,0,0,0,0,0,0h0s0,0,0,0c0,0,0,0,0,0,0,0,0,0,0,0,0,0,0,0,0,0,0,0,0,0,0,0h0s0,0,0,0c0,0,0,0,0,0,0,0,0,0,0,0h0s0,0,0,0c0,0,0,0,0,0,0,0,0,0,0,0,0,0,0,0,0,0,0,0,0,0,0,0,0,0,0,0,0,0,0,0,0,0,0,0,0,0,0,0,0,0,0,0,0,0,0,0,0,0,.4-.1.6-.1.2,0,.3,0,.3,0,0,0,.8.1,1,.1h0s0,0,0,0c0,0,0,0,0,0,0,0,0,0,0,0s0,0,0,0c0,0,0,0,0,0,0,0,0,0,0,0,0,0,.1,0,.2,0,0,0,0,0,0,0,0,0,0,0,0,0,0,0,0,0,0,0,0,0,.1,0,.2,0,0,0,0,0,0,0l-1.4,2.8s0,0,0,0h0s.3-.5.8-1.3c0-.1.1-.2.2-.3,0,0,0,0,0,0,.2-.4.4-.8.5-1.1,0,0,0,0,0,0,0,0,0,0,0,0,0,0,0,0,0,0,0,0,.1-.2.2-.3v1.9c0,0,0,0,0,0h0s0-.7,0-1.2c0,0,0,0,0,0,0,0,0-.1,0-.2,0,0,0,0,0,0,0,0,0,0,0-.1,0,0,0,0,0,0,0,0,0,0,0,0,0,0,0,0,0,0,0,0,0,0,0,0,0,0,0,0,0,0,0,0,0,0,.1-.1l.5,1.4s0,0,0,0h0s0-.2,0-.5c0,0,0,0,0-.1,0,0,0,0,0,0,0,0,0,0,0-.1,0,0,0,0,0,0-.1-.2-.3-.5-.4-.6,0,0,0,0,0,0,0,0,0,0,0,0,0,0,0,0,0,0,0,0,0,0,0,0,0,0,0,0,0,0,0,0,0,0,0,0,0,0,0,0,0,0,0,0,0,0,.1,0,0,0,0,0,0,0,0,0,0,0,0,0,0,0,0,0,0,0,0,0,0,0,0,0,0,0,0,0,0,0,0,0,0,0,0,0,0,0,0,0,0,0,0,0,0,0,.1,0,0,0,0,0,0,0,0,0,0,0,0,0,0,0,0,0,0,0,0,0,0,0,0,0,.1,0,.1-.2.2-.3,0,0,0,0,0,0,0,0,0,0,0,0ZM156.4,199.9h0c0,0,0,0,0,0h.1Z"/>
  </g>
  <g class="cls-3">
    <path class="cls-5" d="M161.4,135.7s0,0,0,0c0-.1,0-.2,0-.2,0,0,0,0,0,0,0,0,0-.2,0-.3,0,0,0,0,0-.1-.2-.9-.4-2.5-.5-2.9,0,0,0-.1,0-.2,0-.2-.1-1.1-.2-2.2-.1-1.2-.3-2.1-.5-2.8,0,0,0,0,0,0,0,0,0,0,0,0,0-.2-.1-.3-.2-.5,0,0,0,0,0,0-.5-1.2-1.1-1.4-1.8-1.3,0,0,0,0,0,0,0,0,0,0,0,0-.9,0-1.1,1-1.1,1.4-5.6,2.2-12-1-12-1,0,0-2-1.9-3-2-1-.1-2.8-1-3.7-2.4-2.1-3.4-8.1-3.8-8.1-3.8-2-3.2-6.2-3.7-6.2-3.1,0,.7,0,.9,0,1.8,0,.8-.4,2-.4,2-3.5-1.3-4.4-.6-5.6-1-1.2-.3.9,5.5.9,5.5-5.6,4.7-17.1,11.8-22.6,11.9-5.5.1-11.4,2.3-16.8,3.2-5.5.9-10.2-.3-10.2-.3,0,0-5.7-2.1-9.8-2.7-15.9-2.1-24.9,8.2-24.9,8.2l-1.9,1.6s-2,1-3.5,1.1c-1.5,0-3-.2-3-.2l-2.3-.9c1.8,4.1,7,4.1,7,4.1-6.6,13.8-.6,18.7.4,22.4,1,3.7,0,6.1,0,6.1,0,0-1.9,5.3-4.6,7.5-2.7,2.2-1.6,4.4-1.6,4.4l2.3,12.6s.6,4,0,5c-.6,1,0,1.6,0,1.6,0,0-.4,1.7,0,2.2.6,1.5,3,2.9,3,2.9.2,1.1,1.6,2.7,2.8,3.4,1.2.7,5.1.8,7.2.5,2.2-.3.7-1.6.7-1.6l-2.8-3.6c1.2.2,0-1.4,0-1.4,0,0-.5.3-2-7-1.5-7.2,1.3-10.4,1.3-10.4,0,.3,4.3-2.6,6.8-6.1,2.5-3.5,3.8-5.9,3.8-5.9,0,0,2.3,2.7,3.9,4,1.6,1.3,2.3,2.1,11.1,4.4,10.8,2.9,20.5.7,24.7-1.7,4.1-2.4,7.3-2.9,7.3-2.9,0,0,4.5-1,6.7-2.7,2.3,3.3,3.6,7,3.6,7,2.1,8.8,7.5,14.9,7.5,14.9.5,5.7,3,7.6,3.1,7.1,0-.5.7-1.6.7-1.6,0,0-.2,2.5,3.9,4.3,4.2,1.9,7.5-.5,7.7-1,.2-.6-2.9-3.2-2.9-3.2,0-.8-.1-1.1-.8-1.7-3.8-3.2-5.3-8.2-5.4-10.4-.2-2.3-.4-8.4-.4-8.4,0,0-1.2-8.2,3.5-11.8,4.7-3.6,8.3-10.6,8.3-10.6,0,0,4.1-1,6.1-4.6,2-3.7,3-3.8,7-6,4-2.3,8.5-7.2,11.3-11.8,2.3-3.7,4.4-6.3,5.1-7.2.2-.2.3-.3.3-.3h0c1,0,1.1-.6,1-1Z"/>
    <path class="cls-5" d="M102.7,206c-1.7-3.9-.6-9.9-.6-9.9.1-2.7,2.8-5,2.6-6-.6-2.8-3.1-6.7-3.1-6.7,0,0-2.6,1.7-7.2,2.4-1,.3-.9,13.5-.9,13.5-1.2,3.6-.7,6.4-.7,6.4.8,4.2,2,5.3,2,5.3l.4-1.1.5-1.4s0,2.8,2.3,4.2,7.2-.3,7.2-.7-2.2-2.9-2.2-2.9c.5-.3.1-1.5-.5-2.9Z"/>
    <path class="cls-5" d="M65.5,210.7l-5.4-4s.5-1.3-1.8-2.8c-2.2-1.5-6.9-8.2-6.9-8.2,0,0-1.1-1.8-.3-4.2.8-2.4,1.1-5.4,1.1-5.4,0,0-1-.8-2-1.6-1-.8-1.8-1.9-1.8-1.9,0,0-3.3,4.8-4.9,6.6-3.1,3.3-5.6,4.3-5.6,4.3.2,1.2,2,3.3,2,3.3,0,0,2.4,1.7,2.9,2.9.5,1.2,3,4,3,4,0,0,1.7.4,3.7,4.6,2,4.2,3.7,3.5,3.9,3.2s-.3-2-.3-2c0,0,.8.9,2.5,2.7,1.7,1.8,3.2,1.4,3.2,1.4,0,0,4.8-.1,6.9-.7,2.2-.6-.1-2-.1-2Z"/>
    <path class="cls-5" d="M30.9,144.4c3.2-1,3.2-5,3.2-5,0,0-.1-5.1-5.4-4.4-5.3.7-4.9,4.6-4.9,4.6l2,2.1s-.3-4.9,3.3-4.1c3.6.8,1.7,4.4,1.7,4.4,0,0-2.5,3.9-7.6-2.2-1.8-2.2-2.1-2.3-2.9-2-.8.3-1,1.8,1.7,4.6,2.7,2.8,5.8,3,9,2Z"/>
  </g>
  <g class="cls-1">
    <path class="cls-5" d="M322.5,115.6c.1,0,.2.1.4.2,0,0,0,0,0,0,.3.2-.3-.2-.4-.2Z"/>
    <path class="cls-5" d="M362.6,180.9h0c0-.2,0-.5,0-.7,0-.3,0-.6-.1-.8,0,0-.1.2-.1.3,0-.3-.8-.5-1-.1-.3-.1-.4,0-.6.1-.2,0-.4,0-.6.1-.1,0-.2,0-.3,0-.2,0-.4.1-.6,0-.7-.1-1.3-.6-1.9-1,0-.1-.1-.3-.2-.4,0,0,0,0,0,0,0-.2,0-.5,0-.7.4.3.7.5,1,.9-1.1-1.4-3.4-3.3-3.7-5.2,0-.1-.2-.2-.3-.3,0-.2-.1-.3-.2-.4-.6-1.4-1.4-2.9-2.4-4.4-.2-.6-.5-1.2-.6-1.6,0,0,0,.2.1.2-.6-1.6-.6-.6-.7-2.2l-.7-.2c-.1-.3-.3-.7-.4-1.1l-.2-1.5c0,.6,0,1,0,1.2,0-.1-.1-.2-.2-.3,0,0,0,0,0-.1,0,0,0,0,0,0-.1-.2-.3-.4-.5-.6,0,0,0,0,0,.1-.2-.3-.5-.7-.7-1,.4.4.8.9,1.1,1.4-.5-1.2-.9-2.5-1.7-3.6.3.7.2,1.5.4,2.2-.3-1.2-1-2.5-1.8-3.5,0-.2-.2-.4-.3-.6.2.3.4.7.6,1-.1-.8-.4-1.8-.6-2.6.2.3.4.8.6,1-.4-.7-.7-1.5-1-2.4,0,0,0,0,0-.1,0,0,0,.1,0,.2,0-.6-.2-1.1-.3-1.7,0-.3,0-.6-.1-.9,0,.1,0,.2,0,.4-.1-.5-.2-1-.2-1.5.2.4.3.8.3,1.2.2-1-.2-2.1-.2-3.2,0,.1,0,.3,0,.4.2-1.1.2-2.5,0-3.6,0,.1,0,.2,0,.3.1-.5,0-1.1,0-1.6,0,0,0,0,0,0,.4-1.3,0-2.8-.2-4.1,0,.3,0,.5,0,.8,0,0,0,0,0,0,0-.8,0-1.5-.2-2.3.1-.9,0-2-.3-2.9-.2-.9-.8-1.8-1-2.7,0,.1,0,.3,0,.4-.4-.9-1.1-2.6-1.4-3.4-.3-.6-.9-1.6-1.6-2.5-.1-.2-.2-.4-.4-.6-.3-.9-1-1.8-1.8-2.4-.1-.2-.3-.4-.4-.6.7-2.7.8-9.8-1-9.6-3.5.4-5.9,2-7.1,3.2-.4-.3-.7-.6-1-.9-.7-.1-1.2-.7-1.9-.9.3.5.5,1,.8,1.4-.4-.2-.8-.4-1.2-.5-.3-.2-.7-.4-.9-.6,0,0,0,.2.1.2-.3-.2-.7-.3-1.1-.4,0,0,0,0,.1.1-.3-.2-.6-.5-.9-.7.6.6,1.4,1,2.1,1.4,0,.2.2.5.3.6-1-.2-1.9-.8-2.8-1.4-.4-.2-.8-.3-1.2-.5-1.4-1.2-6.4-5.3-10.1-7.5-4.4-2.5-14.1-8.1-16.5-9-1.6-.6-6.1-.9-12.2-1.1-.8-.3-4.8-1.6-4.6-1.4.1.2.9,1.1.7,1.3-.2,0-.4,0-.6,0-.9-.2-2.7-1-2.9-1s0,.6,0,.9c-.2,0-.4,0-.5,0-.8-.3-2.1-.8-2.1-.8,0,0,.5.4.5.8-.4,0-.8,0-1.2,0-11.4-.4-13.4,2.8-15,3.9-1,.4-2,.8-3.1,1.3-2.3.8-4.8,1.5-4.8,1.5,0,0-25.7,2.4-29,2.8-3.2.4-5.8,1.8-6.3,2.5-.3.4-1.8,1.5-3.8,2.9-1.4.4-3.5,1-3.8,1.1-.3,0,.5.2.8.2.4,0,.7-.2.5.2-.2.4-3.3,1.2-3.3,1.2,0,0-.5.5.2.4.7,0,.9-.1.8,0,0,0,0,0,0,0l-2.1.8c.2,0,.5,0,.7,0-3.8,2.2-6.2,4.1-9.1,5-3,1-3.9,3.1-3.9,3.1v1.2c-.4.4-.7.7-.8,1.2,0,0-4.8,8.2-6.8,10.6-2.1,2.4-3.7,4.7-4.5,5.3s-1.9.8-3.5,2.2c-1.6,1.4-1.2,2.2-1.4,3.6s0,2.9-1.4,2.9-2.7-.5-4.3,0c-1.6.6-3.6,2.6-4.4,3.5-.8.8-3,5.3-1.5,5.1,0,0,.9-.9,1.5-1.8.6-.8,2-2.2,3.2-1.9,1.2.4,2.8,1.2,4.3,1.3s3.5-.5,4.5-2.7.3-5.6,1.4-6.9c1.1-1.3,6.9-7.5,6.9-7.5l3-3.5c0,.1,0,.3,0,.4,0,1.5,0,8.4.5,10.5.5,2.1.5,5.2,1.8,7.9,1.3,2.6,1.6,5.5,1.4,6.6-.2.9-.3,7.6-.4,9.3-.2.6-.4,1.2-.6,1.6-.1.3-.2.5-.2.5-.7,1.7-5.7,3.7-6.1,5-.7.1-.5,1.4-.3,2.4-.2,3.2-.4,8.2-.2,8.7.1.4-.7,3.5-1.3,5.6-.3.4-.6.9-.8,1.4.2-.2.3-.3.5-.5-.1.4-.2.8-.3,1,0,.2-.1.4-.2.7,0,.2-.2.4-.3.6,0,0,0-.1.1-.2-.6,1.6-1.6,3.5-1.5,5.2,0,0,0-.2.1-.3,0,.4-.2.9-.3,1.3,0,.2,0,.4-.1.6-.6.6-1.2,1.1-1.5,1.4-.3.3-2.1,3.3-.5,2.9.4,0,1-1.2,1.5-1.4,0,0,.4,0,1.1,0,0,.1,0,.2,0,.3,0-.1.1-.3.2-.4,0,0,.1,0,.2,0-.1.9-.3,2.3.1,3,0-.1.1-.3.2-.4.2,1.5.8,2.9,1,4.3,0-.3.1-.7.1-1,0,.7,0,1.3,0,1.6,0,1-1.1,2.2,4.3,2.8q5.5.5,7.6,0c2.2-.5,2-5.9.1-6.6-5.8-1.9-5.6-5.7-4.8-10.2s3.6-8.3,4.8-11.3c1.3-3,3.3-4.9,4-5.6.2-.3,1-.9,1.8-1.7.7-.3,1.6-.7,2.2-1.1,1.5-1,7.4-4.7,9.1-6.6.8-.9,2.5-1.9,4.5-2.8-.3,2.1-.6,4.1-1,5.3-.6,1.4-1.2,2.4-1.5,3.3-.9,1.6-1.6,2.6-1.3,3.1.4.8,5.5,5.7,6.5,8.4.7,1.9,3.9,8,5.9,12-.3.9-.7,1.9-.8,2.8,0,.8.7,3.4,1.7,3.5.2-.3.5-.7.5-1,0-.4-.4-.6-.2-1.1,0-.2.2-.8.3-1.3.1.3.3.5.3.7.6,1.4,4.4,7.8,6.4,8.2,8.2,1.5,13.3.8,13.3-.5,0-1.4-1-4.6-3.1-5.2-1-.3-3.9.6-6.2-2.6-1.3-1.8-2.1-4.2-2.7-5.6-1.3-2.5-5-15.3-4.9-16.8,0-.3,0-.6.1-1,2.1-2.7,5.2-7,6.7-9.4.7,0,1.3.1,1.7.3,1.1.4,3,1.7,4.8,1.2,1.1-.3,5.3-1.1,8.6-1.8.3.6.7.9,1.8.4,1.1-.5,1.7,0,1.8.2.1.2.8-1.4.8-1.4,1.9-.2,3.8-.6,5.6-.9.3.3.7.6,1.1.9-.2-.4-.4-.7-.7-1,2.5-.5,4.9-1,6.6-.5.5,1.4,1.2,2.7,1.5,4-.2,0-.4.1-.6.1,0,1.5,1.7,2.7,1.3,4.2-.2,0-.7-.2-.9-.3.9.9,2,1.7,1.9,3-.2-.1-.4-.3-.5-.4.4,1.4,2.7,3.7,3.9,1.9,0,0,0,0,0,0,.3,1,.7,1.9,1,2.8,2,5.3,4.8,16.5,4.9,18.6,0,.4.1.8.2,1.3-.5.5-1,.9-1.3,1.2-.3.3-2.1,3.3-.5,2.9.4,0,1-1.2,1.5-1.4.3-.1.8-.2,1.1-.2.7,1.9,1.6,3.7,2,4.4.6,1.3,0,2.8,2.1,4.3,3.5,2.3,11.6,1.2,11.7,1,0-.1,2.2-3.2.8-4.6-1.4-1.3-5.7-2.4-6.3-3.2-1.3-1.5-2.8-6.6-2.8-12.4,0-5.8.2-9.1,0-10.4-.1-.7-.1-3.9,0-6.6.3.4.5.9.5.9,0,0,0-.2.1-.6l8.4,5.8c1.4,1.3,2.9,3.3,4.2,5,0,1.5-.7,3.5-.7,4.4,0,.4.3,3.9,1.3,2.7.3-.3.1-1.5.4-2,.3-.5.8-.8,1.2-1.1,0,1.2,1.5,4.1-.4,5.1-1.9,1-3.3,1.7-3.7,3.2-.4,1.5-.9,5.1,0,6.9.5.9,1.4.4,2.2,0,.8-.4,4.5-2.7,5.6-3.7,1.1-.9,1.9-2.7,2.6-3.9.7-1.2.6-5.5-.2-8.5,0,0-2.4-9.5-3-12.3-.5-2.2-.8-3.9-.7-4.2.4-.7,2.6.6,4.9,1.2.7.2,1.4.4,2.1.5,0,0,0,0-.1.1.4,0,1,.2,1.5.2-.3.6-.5,1.4-.8,2,1-.3,2.1-.4,3.2-.2-.3.6-.5,1.4-.8,2,1-.9,2.4-1.4,3.8-1.5-.6.8-.7,1.7.3,2-.2.5,0,.9,0,1.3,1.2-.5,2.3-1.3,3.6-1.6-.3.8-.7,1.6-.9,2.4.1.1.5.4.5.4.7-.4,2-.8,3.1-.8-.1.3-.2.5,0,.3,0,0,0,0,.2-.2,0,0,0,0,0,0-.2.2-.4.6-.7.8.4-.2.8-.4,1.4-.5.5.2,1.1.5,1.7.7-.2.5-.3,1,0,.7,0-.1.3-.3.5-.6.5.1,1,.2,1.5.3,0,0,0,0,0,0,.2,0,.4,0,.6,0,.4,0,.8,0,1.3.1-.1.2-.2.3-.3.3-.3.2-1.1,2.4-.6,1.7.2-.2.8-1,1.6-2,0,0,.2,0,.2,0-.1.4-.2.9-.4,1.2,0,0,.6-.2.7-.3.1.2,0,.5.3.6.5-.1.9-.3,1.4-.5-.1.3-.1.4.1.2,0,0,.2-.2.3-.3.5-.1,1-.1,1.5,0,0,.2-.1.4-.2.6,1.6.7,3.4-.2,5,.2-.2.3-.2.9-.4,1.2,1.4.2,2.5-.8,3.5-1.7,1.5.3,2.7,0,3.8-.3.2.2.4.5.7.7,1.3,1,3.2,1.9,4.9,1,2.2-1.2.7-2.9,1.5-4.6,1.3-2.6,6.9-3.6,6.4-7.3ZM356.9,178.8c0,0,.1.1.2.2.1.1.2.3.3.4,0,0-.2-.1-.4-.2,0-.1,0-.3,0-.4ZM343.8,155.1c0,0,0,.2.1.3,0,0,0-.2-.1-.3,0,0,0,0,0,0ZM290,176.6c-.1,0-.2,0-.3,0,0-.2.2-.2.3,0ZM356.7,179.5c-.1,0-.2,0-.3,0,0-.3-.2-.6-.3-.9.2.1.4.3.6.5,0,0,0,0-.1,0,0,.1,0,.3.1.4ZM349.6,164.3h-.4c0-.3-.1-.4-.1-.6,0,0,.3.5.2,0,0,0,0,0,0,0h0c0,.1.1.3.2.5Z"/>
    <path class="cls-5" d="M354.4,172.9c0,.1,0,.3,0,.5,0,0,0,0,0,.1,0-.2-.1-.4-.1-.6Z"/>
    <path class="cls-5" d="M354.5,173.5c.1.4.3.8.4.9,0-.3-.2-.6-.4-.9Z"/>
  </g>
</svg>