<?xml version="1.0" encoding="utf-8"?>
<!-- Generator: Adobe Illustrator 27.9.0, SVG Export Plug-In . SVG Version: 6.00 Build 0)  -->
<svg version="1.1" id="Who_is_at_risk" xmlns="http://www.w3.org/2000/svg" xmlns:xlink="http://www.w3.org/1999/xlink" x="0px"
	 y="0px" viewBox="0 0 32 32" style="enable-background:new 0 0 32 32;" xml:space="preserve">
<style type="text/css">
	.st0{fill:#FFFFFF;stroke:#FFFFFF;stroke-width:0.3859;stroke-miterlimit:10;}
	.st1{opacity:0.9;}
	.st2{fill:#83B7DA;}
	.st3{fill:#78A8C8;}
	.st4{fill:#FFFFFF;}
	.st5{fill:#F2F2F2;}
	.st6{fill:#9C9B9B;}
</style>
<g id="ic_artificial_insemination_technicians_rendering_plants_workers">
	<path class="st0" d="M5.9,19L5.9,19c0,0-2.4-3.2,0.6-5.2c0,0-0.8-5.8,4-8.2c4.3-2,9.6-0.2,10,2.2c0,0,7.3,0.9,8,2
		c1.2,2.2,3.2,6,1.2,7.6c-1.9,1.6-15.3,6.5-15.3,6.5s-1.4,1.9-2.4,3.2C11,28.5,7.8,29.1,8.1,27c0,0-4.1,1.6-5.2,0.5
		c-0.6-0.6-2.1-2.4-1.3-4.8S4,19.6,5.9,19L5.9,19z"/>
	<g>
		<g class="st1">
			<path class="st2" d="M8.3,23.8L8.8,25l-4.2,1.7c-0.3,0.1-0.7,0-0.8-0.3l0,0c-0.1-0.3,0-0.7,0.3-0.8l4-1.8L8.3,23.8z"/>
			<path class="st2" d="M12.5,24l-0.2,0.3l-0.4,0.5l-0.5,0.6L11,26l-0.3,0.4l-0.1,0.2c-0.2,0.3-0.6,0.3-0.8,0.1
				c-0.3-0.2-0.3-0.6-0.1-0.8l0.9-1.7c0,0,2.7-1,2.7-1"/>
			<path class="st2" d="M7.7,22.4l0.5,1.3l-4.8,1.9c-0.4,0.1-0.7,0-0.9-0.3l0,0c-0.1-0.3,0.1-0.7,0.4-0.8L7.7,22.4z"/>
			<path class="st2" d="M7.1,21l0.5,1.3l-4.2,1.6c-0.3,0.1-0.7,0-0.8-0.3l0,0c-0.1-0.3,0-0.7,0.3-0.8l4-1.7L7.1,21z"/>
			<path class="st2" d="M6.5,19.7L7,20.9l-3.3,1.3c-0.2,0.1-0.5-0.1-0.7-0.4l0,0c-0.1-0.3,0-0.6,0.2-0.7l3.1-1.3L6.5,19.7z"/>
			<path class="st2" d="M11.2,17.7c0.4-0.2,0.8-0.5,1.2-0.6c0.2-0.1,0.4-0.1,0.6-0.3c0.1-0.1,0.3-0.3,0.4-0.4
				c0.2-0.2,0.6-0.2,0.8-0.3c0.7-0.2,1.2-0.7,1.8-1c0.7-0.4,1.4-0.7,2.2-1c0.2-0.1,0.5-0.2,0.7-0.3c0.1-0.1,0.2-0.2,0.4-0.3
				c0.1-0.1,0.3-0.2,0.5-0.2c0.6-0.2,1.1-0.4,1.7-0.7c0.4-0.1,0.7-0.3,1.1-0.3c0.3,0,0.5,0,0.8,0c0.6-0.2,1-0.9,1.7-0.9
				c0.3,0,0.5,0.1,0.8,0c0.5-0.2,0.6-1.1,1.1-1.1c0.3,0,0.5,0.2,0.5,0.5c0.1,0.2,0.1,0.5,0.1,0.8c0.2,0.7,0.7,1.1,0.9,1.8
				c0.2,0.6,0,1.2,0.2,1.8c0.2,0.5,0.5,0.8,0.6,1.3c0,0.1,0,0.3-0.1,0.4c-0.1,0.1-0.2,0.2-0.3,0.2c-0.5,0.2-1.1,0.1-1.6,0.2
				c-0.3,0.1-0.6,0.3-0.9,0.5c-0.4,0.2-0.8,0.3-1.2,0.4c-0.2,0-0.4,0-0.6,0.1c-0.1,0.1-0.2,0.3-0.3,0.4c-0.3,0.3-0.7,0.2-1,0.4
				c-0.1,0.1-0.2,0.2-0.3,0.3c-0.3,0.2-0.7,0.2-1,0.3c-1,0.2-1.7,1-2.7,1.1c-0.1,0.3-0.4,0.5-0.7,0.5s-0.6,0-0.9,0.1
				c-0.4,0.1-0.7,0.4-1.1,0.6c-0.5,0.3-1.1,0.6-1.7,0.8c-0.6,0.2-1.2,0.3-1.8,0.6c-1.5,0.6-3,1.2-4.5,1.9l-2.2-5.4l0.9-0.4
				c0.9-0.4,1.9-0.9,2.8-1.1C10.5,18.1,10.9,17.9,11.2,17.7L11.2,17.7z"/>
			<path class="st2" d="M22.7,15.3c-0.4,0-0.8,0-1.1-0.1c-0.2,0-0.3-0.1-0.5-0.1c-0.1,0-0.3,0.1-0.4,0.1c-0.3,0-0.5-0.1-0.7-0.2
				c-0.5-0.2-1.1-0.1-1.7-0.1c-0.7,0-1.3-0.1-2-0.3c-0.2-0.1-0.4-0.1-0.6-0.1c-0.1,0-0.3,0.1-0.4,0.1s-0.3,0-0.4-0.1
				c-0.5-0.1-1-0.2-1.5-0.3c-0.3-0.1-0.6-0.1-0.9-0.3c-0.2-0.1-0.3-0.3-0.5-0.4c-0.5-0.2-1.1,0.2-1.6-0.1c-0.2-0.1-0.3-0.4-0.5-0.4
				c-0.4-0.1-0.9,0.6-1.3,0.3c-0.2-0.1-0.2-0.4-0.1-0.7c0.1-0.3,0.2-0.5,0.3-0.7c0.2-0.6-0.5-1.4-0.3-2c0.2-0.6,0.4-1,0.5-1.5
				C8.9,8,9.3,7.7,9.5,7.2C9.6,7.1,9.9,6.8,10,6.8c0.1,0,0.2-0.1,0.3,0c0.5,0.1,1.1,0.1,1.5,0.2C12.1,7,12,7.4,12.3,7.4
				c0.3,0,0.7,0.1,1,0.3c0.2,0.1,0.3,0.2,0.5,0.2c0.1,0,0.3-0.1,0.4-0.2C14.5,7.7,14.7,8,15.1,8c0.1,0,0.2-0.1,0.3-0.1
				c0.3,0,0.6,0.2,0.9,0.3c0.8,0.3,1.7,0,2.4,0.5c0.2-0.2,0.3-0.5,0.6-0.4c0.2,0.1,1,0.5,1.2,0.6C20.7,9,20.7,9,21.1,9
				c0.5,0,1,0.1,1.5,0.2c0.5,0.1,1,0.4,1.5,0.4c1.3,0.2,1.5,0.4,2.8,0.7c0.8-0.5,3.5,5.2,2.3,6.5C29,17,26.3,16,26.1,15.9
				c-0.8-0.2-1.7-0.2-2.5-0.5C23.3,15.3,23,15.3,22.7,15.3L22.7,15.3z"/>
		</g>
		<path class="st3" d="M17.8,15c0.4,0.2,0.7,0.3,1.1,0.4c0.5,0.2,0.9,0.3,1.4,0.3c0.4,0,0.8-0.1,1.2-0.1c0,0,0.1,0,0.1,0
			c0.1,0,0.3,0.1,0.4,0.1c0.3,0,0.5,0,0.7,0c0.4,0,0.8-0.1,1.2,0c0.6,0.1,1.2,0.4,1.8,0.4c0.1,0,0.2,0,0.3,0c0.2,0,0.4,0.1,0.5,0.2
			c0.2,0,0.3,0,0.4,0c0.1,0,0.2,0,0.2-0.1c0.2-0.2-0.5-0.4-0.7-0.5c-0.4-0.2-0.7-0.3-1.1-0.4c-0.5-0.1-1-0.3-1.4-0.3
			c-0.4,0-0.8,0.1-1.2,0.1c-0.1,0-0.2,0-0.3,0c-0.1,0-0.1,0-0.2,0c-0.3,0-0.5,0-0.7,0c-0.4,0-0.8,0-1.2,0c-0.6-0.1-1.2-0.4-1.8-0.5
			c-0.1,0-0.2,0-0.3,0c-0.2,0-0.4-0.1-0.5-0.2c-0.2,0-0.3,0-0.4,0c-0.1,0-0.2,0-0.2,0C17,14.6,17.7,14.9,17.8,15L17.8,15z"/>
	</g>
	<g>
		<g>
			<path class="st4" d="M20.7,13.2c0,0.1,0.1,0.2-0.3,0.7c-0.6,1-2,1.5-2.2,1.5c-0.7,0.3-1.5,0.5-2.2,0.6c-0.8,0.1-1.6,0.1-2.4,0.1
				c-0.7,0-1.3,0-2-0.2c-0.7-0.1-1.3-0.3-1.9-0.5C8,15,8,14.3,8,14.3s0-0.1,0-0.3c0-0.4-0.1-1.1,0-1.8c0.1-1.1,0.4-2,1-3.2
				c0.4-0.6,0.8-1.2,1.4-1.6c0.9-0.8,2-1.3,3.2-1.3c0.7,0,1.5,0.1,2.2,0.2c1.2,0.2,2.6,0.4,3.4,1.4c0.2,0.3,0.4,0.6,0.6,0.9
				c0.2,0.4,0.3,0.7,0.5,1.1c0.3,0.7,0.4,1.5,0.5,2.3C20.6,12.4,20.7,12.8,20.7,13.2c0,0,0.7,0.5,0.7,1c0,0.6-0.6,1.1-1,1.4
				c-0.6,0.4-1.4,0.7-2,1.2c-1,0.6-2,1.3-3,1.9c-1.3,0.7-2.8,0.7-4.2,0.5c-1.3-0.2-2.5-0.5-3.7-1.1c-0.1-0.1-0.2-0.1-0.4-0.2
				c-0.5-0.3-0.9-0.8-0.9-1.4c0-0.6,0.4-1.1,0.8-1.5c0.2-0.2,0.3-0.3,0.5-0.5c0.2-0.1,0.3-0.3,0.5-0.4"/>
			<path class="st4" d="M16.5,6.3c-0.4,0.2-1.3,0.7-1.7,0.9C14,7.7,13.3,8.1,13.1,9C13.1,9.2,13,9.5,13,9.7h0c0-0.1,0-0.2,0-0.3
				c0-1.2,0.8-1.7,1.8-2.2C15.1,7,16.1,6.5,16.5,6.3L16.5,6.3L16.5,6.3L16.5,6.3z"/>
			<path class="st4" d="M15.3,6.2c-0.4,0.2-1.3,0.7-1.7,0.9c-0.8,0.4-1.4,0.9-1.7,1.8c-0.1,0.2-0.1,0.4-0.1,0.6h0c0-0.1,0-0.2,0-0.3
				c0-1.2,0.8-1.7,1.8-2.2C13.9,6.8,14.9,6.3,15.3,6.2L15.3,6.2L15.3,6.2L15.3,6.2z"/>
			<path class="st4" d="M8,14.1c0,0.7,0.6,1,1.1,1.3c0.6,0.2,1.1,0.4,1.7,0.5c1.5,0.3,3,0.3,4.5,0.2c1.5-0.1,3-0.5,4.3-1.4
				c0.5-0.3,1-0.8,1-1.4c0,0.6-0.5,1.1-1,1.5c-1,0.7-2.2,1.1-3.4,1.3c-1.2,0.2-2.4,0.2-3.6,0.1c-1.2-0.1-2.4-0.3-3.5-0.8
				C8.6,15.1,7.9,14.7,8,14.1L8,14.1L8,14.1z"/>
		</g>
		<g>
			<path class="st5" d="M20.4,13.2c0,0.1,0.1,0.2-0.3,0.7c-0.6,0.9-2,1.4-2.1,1.5c-0.7,0.3-1.4,0.4-2.1,0.5
				c-0.8,0.1-1.5,0.1-2.3,0.1c-0.7,0-1.3,0-1.9-0.2c-0.6-0.1-1.2-0.3-1.8-0.5c-1.6-0.5-1.6-1.2-1.6-1.2s0-0.1,0-0.3
				c0-0.4-0.1-1,0-1.7c0.1-1,0.3-2,1-3.1C9.4,8.5,9.9,8,10.4,7.5c0.8-0.7,1.9-1.2,3.1-1.3c0.7,0,1.4,0.1,2.1,0.2
				c1.1,0.2,2.5,0.4,3.3,1.3c0.2,0.3,0.4,0.6,0.5,0.9c0.2,0.3,0.3,0.7,0.5,1c0.3,0.7,0.4,1.5,0.5,2.2C20.4,12.3,20.4,12.8,20.4,13.2
				c0,0,0.7,0.5,0.7,0.9c0,0.6-0.5,1-1,1.3c-0.6,0.4-1.3,0.7-2,1.1c-0.9,0.6-1.9,1.2-2.9,1.8c-1.2,0.7-2.7,0.7-4.1,0.5
				c-1.2-0.2-2.4-0.4-3.5-1.1c-0.1-0.1-0.2-0.1-0.3-0.2c-0.5-0.3-0.9-0.8-0.9-1.4c0-0.6,0.4-1,0.7-1.4c0.2-0.2,0.3-0.3,0.5-0.5
				C7.8,14.2,8,14,8.1,13.9"/>
			<path class="st6" d="M16.4,6.6c-0.4,0.2-1.3,0.7-1.6,0.9c-0.7,0.4-1.4,0.8-1.6,1.7c-0.1,0.2-0.1,0.4-0.1,0.6h0c0-0.1,0-0.2,0-0.3
				c0-1.1,0.8-1.6,1.7-2.1C15.1,7.2,16,6.7,16.4,6.6L16.4,6.6L16.4,6.6L16.4,6.6z"/>
			<path class="st6" d="M15.2,6.4c-0.4,0.2-1.3,0.7-1.6,0.9C12.8,7.7,12.2,8.1,12,9c-0.1,0.2-0.1,0.4-0.1,0.6h0c0-0.1,0-0.2,0-0.3
				c0-1.1,0.8-1.6,1.7-2.1C13.9,7,14.9,6.6,15.2,6.4L15.2,6.4L15.2,6.4L15.2,6.4z"/>
			<path class="st6" d="M8.2,14c0,0.6,0.6,1,1.1,1.2c0.5,0.2,1.1,0.4,1.7,0.5c1.4,0.3,2.9,0.3,4.4,0.2c1.5-0.1,2.9-0.5,4.1-1.3
				c0.5-0.3,0.9-0.8,1-1.4c0,0.6-0.5,1.1-0.9,1.4c-1,0.7-2.1,1.1-3.3,1.3c-1.2,0.2-2.3,0.2-3.5,0.1c-1.2-0.1-2.3-0.3-3.4-0.8
				C8.7,15,8.1,14.7,8.2,14C8.2,14,8.2,14,8.2,14z"/>
		</g>
	</g>
</g>
</svg>
