<?xml version="1.0" encoding="utf-8"?>
<!-- Generator: Adobe Illustrator 27.9.0, SVG Export Plug-In . SVG Version: 6.00 Build 0)  -->
<svg version="1.1" id="Livello_2_00000172431067682652287050000005926433094853258685_"
	 xmlns="http://www.w3.org/2000/svg" xmlns:xlink="http://www.w3.org/1999/xlink" x="0px" y="0px" viewBox="0 0 15.7 24.1"
	 style="enable-background:new 0 0 15.7 24.1;" xml:space="preserve">
<style type="text/css">
	.st0{fill:#FFFFFF;}
	.st1{fill:#FFFFFF;stroke:#FFFFFF;stroke-width:0.8;stroke-miterlimit:10;}
	.st2{fill:#3F3F3F;}
	.st3{fill:#C5686A;}
	.st4{fill:#333333;}
	.st5{fill:#FFFFFF;stroke:#FFFFFF;stroke-width:0.25;stroke-linecap:round;stroke-linejoin:round;stroke-miterlimit:10;}
	.st6{fill:#D2D3D2;}
	.st7{fill:#E1E1E1;}
	.st8{fill:#6E6E6E;}
	.st9{fill:#2A2C2E;}
	.st10{fill:#DFCB8B;}
	.st11{fill:#FFFFFF;stroke:#FFFFFF;stroke-width:0.6404;stroke-linecap:round;stroke-linejoin:round;stroke-miterlimit:10;}
	.st12{fill:#BF5557;}
	.st13{fill:#6E6E6D;}
</style>
<path class="st0" d="M14.2,10.1l1.2,2.6c0,0,0.1,0.2-0.2,0.4c-0.3,0.2-1.1,0.6-1,0.8c0,0.1,0.4,1.2,0.7,1.9c0,0.1,0.2,0.4,0.2,0.6
	c0.1,0.1,0.2,0.1,0.3,0.5c0.1,0.5-0.5,1-1,1.1c-0.5,0.1-0.7-0.1-0.8-0.4c-0.1-0.2-0.9-2.6-0.9-2.6l0.6-3.3L14.2,10.1z"/>
<path class="st1" d="M14.4,3.9l-0.3-0.4c-0.1-0.1-0.1-0.1-0.2-0.1c-0.1,0-0.1,0-0.2,0.1c-0.2,0.2-0.5,0.4-0.7,0.8c0,0,0,0.1,0,0.1
	c0-1.2-0.5-2.9-2.1-3.3c-0.2,0-0.4-0.1-0.6-0.1c-2,0-3,2.3-3.1,2.4C5.9,8.2,4.4,8.5,4.4,8.5c-0.1,0-0.2,0.1-0.2,0.2L4,9.5l0,0
	C3.9,9.2,3.7,8.9,3.6,8.7C3.4,8.2,3.3,7.9,3.3,7.5c0-0.4,0.3-0.8,0.7-1C4.5,6.2,5,6.1,5.6,6c0.1,0,0.1-0.1,0.2-0.1
	c0-0.1,0.1-0.1,0-0.2L5.7,5.2C5.6,5.1,5.5,5,5.4,5c0,0,0,0-0.1,0C4.7,5.1,4.1,5.3,3.5,5.6C2.8,6.1,2.3,6.8,2.3,7.5
	c0,0.6,0.2,1.1,0.4,1.6C2.8,9.3,2.9,9.5,3,9.8c0.1,0.4,0.1,0.8,0,1.2c-0.1,0.2-0.2,0.4-0.3,0.6c-0.1,0.2-0.3,0.5-0.4,0.8
	c-0.1,0.3-0.1,0.6,0.1,0.9c0.1,0.1,0.2,0.3,0.4,0.4l-2,6.8c0,0.1,0,0.1,0,0.2c0,0.1,0.1,0.1,0.2,0.1c0,0,3.1,0.9,4.9,1.6
	c1.3,0.6,3,0.6,4,0.6h0c0.5,0,0.8,0,0.8,0c0.1,0,0.2-0.1,0.2-0.1c0.7-1.1,1.5-5.7,2-9.4c0.3,0,0.5-0.2,0.7-0.3
	c0.1-0.1,0.2-0.3,0.3-0.5c0.1-0.3,0-0.5-0.1-0.6c0,0,0-0.1,0-0.1c0-0.1,0-0.3,0-0.4c0-0.2,0.1-0.5,0.1-0.7c0-0.3,0.1-0.5,0.1-0.8
	c0.1-0.6,0.1-1.2,0-1.7c0-0.3-0.1-0.5-0.1-0.8c-0.1-0.5-0.1-0.9-0.1-1.4c0-0.6,0.2-1.1,0.3-1.3c0.1-0.2,0.2-0.3,0.4-0.5
	c0.1,0,0.1-0.1,0.1-0.2C14.4,4,14.4,3.9,14.4,3.9z M11.8,4.3L8.4,3.5c0.3-0.6,1-1.7,2-1.7c0.1,0,0.2,0,0.3,0
	C11.9,2.1,11.8,3.6,11.8,4.3z M12.8,8.4c0,0.5,0,1,0,1.5c0,0,0,0.1,0,0.1c-0.3-1.2-0.3-2.6-0.2-3.5c0,0.4,0.1,0.8,0.1,1.2
	C12.8,7.9,12.8,8.1,12.8,8.4z"/>
<path class="st2" d="M13.9,3.7c-0.2,0.2-0.4,0.3-0.6,0.7c-0.2,0.4-0.3,1-0.3,1.6c0,0.5,0.1,1,0.1,1.5c0,0.3,0.1,0.5,0.1,0.8
	c0,0.5,0,1.1,0,1.6c0,0.3-0.1,0.5-0.1,0.7c0,0.2-0.1,0.5-0.1,0.7c0,0.1,0,0.4,0,0.6c0,0.1,0,0.2,0.1,0.2c0,0.1,0.1,0.2,0,0.2
	c0,0,0,0.1-0.1,0.1c-0.1,0.1-0.2,0.2-0.4,0.2c0.2-1.2,0.3-2,0.3-2c-1.1-2.7-0.1-5.9-0.1-5.9s0.3-2.9-1.9-3.4
	C8.6,0.9,7.4,3.5,7.4,3.5c-1.4,5-3,5.3-3,5.3L3.2,13C3.1,13,3,12.9,3,12.9c0-0.1-0.1-0.2,0-0.3c0.1-0.2,0.2-0.4,0.3-0.6
	c0.1-0.2,0.3-0.5,0.4-0.7c0.2-0.5,0.2-1.1,0-1.6C3.6,9.3,3.5,9,3.4,8.8C3.2,8.3,3,7.9,3,7.5c0-0.5,0.4-1,0.9-1.3
	C4.4,6,4.9,5.8,5.5,5.7L5.4,5.2C4.8,5.4,4.2,5.5,3.6,5.9C3,6.3,2.6,6.9,2.5,7.5c0,0.5,0.2,1,0.4,1.5c0.1,0.2,0.2,0.5,0.3,0.7
	c0.1,0.4,0.1,0.9,0,1.4c-0.1,0.2-0.2,0.4-0.3,0.6c-0.1,0.2-0.3,0.5-0.4,0.7c-0.1,0.2-0.1,0.5,0,0.7c0.1,0.2,0.3,0.3,0.5,0.4l-2.1,7
	c0,0,3.1,0.9,4.9,1.6c1.9,0.8,4.6,0.6,4.6,0.6c0.8-1.1,1.6-6.4,2-9.5c0.3,0,0.5-0.1,0.8-0.3c0.1-0.1,0.2-0.2,0.2-0.3
	c0-0.2,0-0.3-0.1-0.5c0,0,0-0.1,0-0.1c0-0.1,0-0.3,0-0.5c0-0.3,0.1-0.5,0.1-0.7c0-0.2,0.1-0.5,0.1-0.8c0.1-0.5,0.1-1.1,0-1.6
	c0-0.3-0.1-0.5-0.1-0.8c-0.1-0.5-0.1-0.9-0.1-1.4c0-0.7,0.2-1.2,0.3-1.5c0.1-0.3,0.3-0.4,0.5-0.6C14.1,4.1,13.9,3.7,13.9,3.7z
	 M6.1,21.2c-0.1,0.2-0.4,0.3-0.6,0.2c-1.6-0.7-4-1.2-3.9-1.4c0.1-0.2,0.1-0.3,2.6,0.1c2,0.3,3.5-1,3.8-1.3
	C7.2,19.6,6.5,20.7,6.1,21.2z M9.1,15.9l-1.8,0l-1.5-0.8l0.4-2.6c0,0,1.6,0.9,3.6,0.9L9.1,15.9z M12,4.6l-4-1c0,0,1-2.6,2.8-2.2
	S12,4.6,12,4.6z"/>
<path class="st2" d="M8,18.7c-0.7,0.8-1.5,1.9-1.9,2.5c-0.1,0.2-0.4,0.3-0.6,0.2c-1.6-0.7-4-1.2-3.9-1.4c0.1-0.2,0.1-0.3,2.6,0.1
	C6.1,20.4,7.6,19,8,18.7z"/>
<path class="st2" d="M9.9,13.4l-0.8,2.5l-1.8,0l-1.5-0.8l0.4-2.6C6.2,12.5,7.8,13.4,9.9,13.4z"/>
<path class="st3" d="M9.9,13.4l-0.8,2.5l-1.8,0l-1.5-0.8l0.4-2.6C6.2,12.5,7.8,13.4,9.9,13.4z"/>
<path class="st4" d="M8,18.7c-0.7,0.8-1.5,1.9-1.9,2.5c-0.1,0.2-0.4,0.3-0.6,0.2c-1.6-0.7-4-1.2-3.9-1.4c0.1-0.2,0.1-0.3,2.6,0.1
	C6.1,20.4,7.6,19,8,18.7z"/>
<path class="st5" d="M10.8,10L10.8,10l0.1,0.2c0,0,0.7,1.4,0.8,1.5l0.1,0.2l0.7,1.3c0.1,0.1,0.1,0.2,0.2,0.3
	c0.1,0.1,0.1,0.3,0.2,0.4l0.7,2.2l0.4,1.3c0,0.1,0.1,0.2,0.2,0.2c0,0,0,0,0,0c0,0,0,0,0,0l0,0c0,0,0.1,0,0.1,0l0,0l0.1,0
	c0,0,0,0,0,0l0.1,0c0,0,0,0,0.1,0c0,0,0,0,0,0c0,0,0,0,0,0c0,0,0,0,0,0c0,0,0.2-0.1,0.2-0.1c0,0,0.1-0.1,0.1-0.1c0,0,0,0,0,0
	c0,0,0.1-0.1,0.1-0.1c0,0,0,0,0-0.1c0,0,0,0,0,0c0,0,0-0.1,0-0.1c0,0,0,0,0-0.1c0-0.2-0.1-0.3-0.2-0.3c0,0,0-0.1-0.1-0.1
	c0-0.1-0.4-0.9-0.5-1.5L14,14.3c0-0.2-0.1-0.4-0.1-0.4l0-0.2c0,0,0.1-0.2,0.1-0.2l0,0c0,0,0,0,0.1-0.1l0,0l0,0c0,0,0,0,0.1,0l0,0
	l0.4-0.2c0,0,0.4-0.3,0.4-0.3c0,0,0,0,0,0c0,0,0,0,0,0c0,0,0,0,0,0c0,0,0,0,0,0c0,0,0,0,0,0c0,0,0.1-0.1,0-0.1
	c-0.1-0.1-1.2-2.8-1.6-3.6c0,0,0-0.1-0.1-0.1c0,0,0-0.1,0-0.1c0,0,0,0,0,0c0,0,0,0,0,0c0-0.1-0.1-0.1-0.1-0.1c0,0,0,0,0,0
	c0,0-0.1,0-0.1,0c0,0,0,0-0.1,0c0,0,0,0,0,0c0,0,0,0,0,0c0,0-0.1,0-0.1,0c0,0-0.1,0-0.1,0c0,0,0,0,0,0c0,0,0,0,0,0c0,0,0,0,0,0
	c-0.1,0-0.2,0.1-0.3,0.1l-0.1,0.1c-0.3,0.1-1.3,0.8-1.4,0.9l0,0C10.7,9.8,10.7,9.9,10.8,10L10.8,10"/>
<path class="st6" d="M10.8,9.8c0,0,1.1-0.7,1.4-0.9c0.2-0.1,0.7-0.5,0.9,0c0.2,0.5,1.7,3.8,1.7,3.8s-1.2,0.8-1.2,0.9
	c0,0.1,0.1,0.4,0.1,0.4s0.6,1.6,0.6,1.8c0.1,0.2,0.3,0.8,0.3,0.8c0.1,0.1,0.3,0.2,0.2,0.4c0,0.1-0.4,0.3-0.5,0.4c0,0-0.1,0-0.1,0
	l-0.1,0c0,0-0.1,0-0.1-0.1c0,0,0-0.1,0-0.1c0,0,0-0.1,0-0.1c0-0.1,0-0.1-0.1-0.2c0-0.1,0-0.1-0.1-0.2c0-0.1,0-0.2-0.1-0.2
	c0-0.1-0.1-0.2-0.1-0.2c0-0.1-0.1-0.2-0.1-0.3c0-0.1-0.1-0.2-0.1-0.3c0-0.1-0.1-0.2-0.1-0.3c0-0.1-0.1-0.2-0.1-0.3
	c0-0.1-0.1-0.2-0.1-0.3c0-0.1-0.1-0.2-0.1-0.3c0-0.1-0.1-0.2-0.1-0.3c0-0.1-0.1-0.2-0.1-0.3c0-0.1-0.1-0.2-0.1-0.2
	c-0.1-0.1-0.1-0.3-0.2-0.4c-0.1-0.1-0.1-0.2-0.2-0.3c0-0.1-0.1-0.2-0.2-0.3c0-0.1-0.1-0.1-0.1-0.2c0,0,0,0,0,0
	c0-0.1-0.1-0.2-0.1-0.2c0-0.1-0.1-0.2-0.1-0.3c0-0.1-0.1-0.2-0.1-0.3c0-0.1-0.1-0.2-0.1-0.2c0-0.1-0.7-1.4-0.8-1.5
	c0-0.1-0.1-0.1-0.1-0.2C10.9,9.9,10.9,9.9,10.8,9.8C10.8,9.9,10.8,9.8,10.8,9.8z"/>
<path class="st7" d="M12.6,8.8c0,0,0.2,0.1,0.3,0.4c0.1,0.3,1.7,3.8,1.7,3.8l0.3-0.2l-1.6-3.6c0,0-0.2-0.5-0.4-0.5
	C12.7,8.7,12.6,8.8,12.6,8.8z"/>
<path class="st8" d="M14.6,12.9l-0.9,0.6c0,0-0.1,0-0.1,0.2c0,0.1,0.1,0.3,0.1,0.3s0.3,0.9,0.5,1.4s0.4,1,0.4,1l0,0.1c0,0,0,0,0,0
	l0,0c0,0,0,0,0,0.1c0,0,0,0,0,0c0,0,0.1,0.1,0.1,0.1c0,0,0,0,0.1,0.1c0,0,0.1,0.1,0.1,0.2s-0.1,0.2-0.1,0.2s0.1-0.1,0.1-0.2
	c0-0.2-0.1-0.2-0.1-0.2s-0.1-0.1-0.1-0.1c-0.1-0.1-0.6-1.5-0.6-1.5l-0.3-0.8c0,0-0.1-0.3-0.1-0.4c0,0,0-0.1,0-0.1c0,0,0-0.1,0-0.1
	c0,0,0,0,0-0.1c0,0,0,0,0,0c0,0,0,0,0,0c0,0,0,0,0,0c0,0,0,0,0,0c0,0,0,0,0,0c0,0,0,0,0-0.1l0,0c0,0,0.1,0,0.1-0.1
	c0,0,0.1,0,0.1-0.1l0.1-0.1l0.2-0.1c0,0,0,0,0.1,0l0.3-0.2l0.2-0.1l0,0C14.9,12.8,14.6,12.9,14.6,12.9z"/>
<path class="st9" d="M13.6,13.7c0,0-0.5,0.1-0.6,0.3l1.1,3.5c0,0,0.1,0.1,0.1,0.1l0,0l0.1,0c0,0,0,0,0.1,0c0,0,0.1,0,0.1,0
	c0,0,0.1,0,0.1,0c0,0,0.1,0,0.1,0c0,0,0.1,0,0.1,0c0,0,0,0,0,0c0.1-0.1,0.2-0.1,0.1-0.3c0-0.1,0-0.1-0.2-0.2
	c-0.1-0.1-0.2-0.5-0.2-0.5C13.8,14.6,13.6,13.8,13.6,13.7z"/>
<circle class="st10" cx="13.3" cy="14.4" r="0.1"/>
<path class="st11" d="M6.6,2.6C6.6,2.5,6.7,2.5,6.6,2.6L6.4,1.9c0-0.4-0.5-1.1-1-1.4C5.2,0.5,5.1,0.4,4.8,0.5
	C3.9,0.5,2.1,1.3,1.1,2.4C1,2.5,0.9,2.7,0.9,2.9c0,0.3,0.3,0.7,0.5,0.9c0,0,0,0-0.1,0C1.1,3.9,0.7,4.5,0.7,4.6
	c-0.1,0.2-0.3,0.8-0.1,1c0,0,0.1,0.1,0.1,0.1c0,0,0,0,0,0c0.1,0,0.1-0.1,0.1-0.1c0,0,0,0,0,0c0,0.1,0,0.2,0.1,0.2c0,0,0.1,0,0.1,0
	c0,0,0,0,0,0c0.1,0,0.1-0.1,0.1-0.1c0-0.2,0-0.8,0.1-1c0.1-0.1,0.2-0.5,0.3-0.7l0.1,0.4c0,0,0,0,0,0c0,0,0,0,0,0c0,0,0,0,0,0
	c0,0,0,0,0,0c0,0,0,0,0.1,0c0,0,0,0,0,0c0,0,1.4-0.5,1.7-0.5C4,4,5.1,3.6,6.4,2.8c0.1-0.1,0.2-0.1,0.2-0.1c0,0,0,0,0,0c0,0,0,0,0,0
	c0,0,0,0,0,0C6.6,2.7,6.6,2.6,6.6,2.6C6.7,2.6,6.6,2.6,6.6,2.6z"/>
<path class="st0" d="M6.5,2.5L6.3,2l0,0c0,0,0,0,0,0c0.1-0.3-0.5-1-1-1.3c-0.2-0.1-0.9,0-1.6,0.2c-1,0.4-2,1-2.6,1.6
	C1.1,2.6,1,2.7,1,2.9c0,0.4,0.4,0.8,0.5,0.9c0,0,0,0,0,0c0,0-0.1,0-0.2,0.1C1.1,4,0.8,4.6,0.8,4.7c0,0-0.3,0.7-0.2,0.9c0,0,0,0,0,0
	c0,0,0,0,0,0c0,0,0,0,0,0c0,0,0.1-0.7,0.3-1c0,0,0.1-0.1,0.1-0.1C1,4.6,1,4.8,1,4.8c0,0-0.2,0.8,0,1c0,0,0,0,0,0l0,0c0,0,0,0,0,0
	c0,0,0-0.7,0.1-1.1C1.3,4.4,1.5,4,1.6,3.9l0.2,0.5l0,0c0,0,0,0,0,0c0,0,0,0,0,0c0,0,0,0,0,0c0,0,1.4-0.5,1.8-0.5
	c0.1,0,0.3-0.1,0.5-0.1C4.4,3.7,5.3,3.3,6.5,2.5C6.5,2.6,6.5,2.6,6.5,2.5C6.5,2.5,6.5,2.5,6.5,2.5L6.5,2.5C6.5,2.5,6.5,2.5,6.5,2.5
	C6.5,2.5,6.5,2.5,6.5,2.5z"/>
<path class="st2" d="M1.7,3.8c0,0-0.9-0.8-0.5-1.4c1.2-1.3,3.6-2.1,4.1-1.8s1,0.9,1,1.3C5.9,2.6,1.7,3.8,1.7,3.8z"/>
<path class="st12" d="M1.8,4.4c0,0,1.4-0.5,1.8-0.5C4,3.8,5.2,3.4,6.5,2.6L1.8,4.4C1.9,4.4,1.8,4.4,1.8,4.4z"/>
<path class="st3" d="M1.8,4.4c0,0,0.9-0.4,1.9-0.6c1.1-0.2,2.7-1.3,2.7-1.3L6.3,1.9c0,0-1.6,0.9-2.8,1.2S1.9,3.6,1.7,3.8
	C1.7,3.8,1.8,4.4,1.8,4.4z"/>
<path class="st13" d="M4.7,2.5c0,0,0.4-0.2,0.8-0.4s0.3-0.7,0.3-0.7s0,0.2-0.4,0.5C5,2.2,4.7,2.5,4.7,2.5z"/>
<path class="st13" d="M1.3,3.2c0,0,0.3,0.4,0.4,0.4c0,0,0-0.1,0.1-0.1s0.4-0.3,0.9-0.3c0,0-0.7,0-0.9,0.1C1.7,3.5,1.3,3.2,1.3,3.2z"
	/>
<path class="st3" d="M1.7,3.8c0,0,0-0.1-0.2,0.1C1.2,4.1,1,4.8,1,4.8S0.8,5.6,1,5.8c0,0,0-0.7,0.1-1.1S1.5,3.9,1.7,3.8z"/>
<path class="st3" d="M1.6,3.8c0,0,0-0.1-0.2,0.1C1.2,4,0.8,4.7,0.8,4.7S0.5,5.4,0.7,5.6c0,0,0.1-0.7,0.3-1S1.5,3.8,1.6,3.8z"/>
<path class="st0" d="M8.7,3c0,0,0.9-1.1,1.5-1.1c0.6,0,1,0.3,1.1,0.5C11.5,2.6,11.6,4,11.6,4l-3-0.6L8.7,3z"/>
<path class="st0" d="M3.4,7.8c0,0,0.2-0.8,0.5-1c0.3-0.2,2-0.6,2-0.6L5.7,6.6l-1,1.6L4,8.6L3.6,8.4L3.4,7.8z"/>
</svg>
