<?xml version="1.0" encoding="UTF-8"?><svg id="Who_is_at_risk" xmlns="http://www.w3.org/2000/svg" viewBox="0 0 32 32"><defs><style>.cls-1{fill:#fff;}.cls-2{fill:#cab099;stroke:#fff;stroke-miterlimit:10;stroke-width:.5px;}</style></defs><g id="ic_children"><path class="cls-2" d="M24.2,21.82c-.34,0-.67,.05-1,.13-.05-1.72-.78-3.43-1.92-4.79,.35-.18,.69-.37,1-.58,2.14-1.43,3.41-3.62,2.89-6.25-.13-.68-.38-1.36-.73-2.02,1.45-.63,2.32-2.13,2.01-3.67-.35-1.78-2.5-3.65-4.37-3.28-1.17,.23-2.07,1.15-2.48,2.25-1.66-.83-3.48-1.21-5.21-.86-.81,.16-1.58,.44-2.32,.84-.77-1.2-2.24-2.03-3.66-1.75-1.87,.37-3.14,2.91-2.79,4.69,.19,.98,.83,1.76,1.67,2.19-.55,1.33-.75,2.75-.48,4.1,.39,1.96,1.64,3.37,3.33,4.3-1.18,1.34-1.94,3.03-1.94,4.76,0,.12,.01,.24,.02,.35-.59-.26-1.22-.42-1.87-.42-2.34,0-3.88,1.94-3.88,4.35s1.6,4.51,3.95,4.51c.83,0,1.64-.27,2.34-.72,1.12-.03,2.61-.89,2.61-.89,1.91,.82,3.42-.9,3.42-.9,0,0,.6,.05,.9,.05,.12,0,.23,0,.34-.01,0,0,1.5,1.73,3.41,.91,0,0,1.29,.74,2.37,.88,.69,.43,1.48,.69,2.29,.69,2.34,0,3.95-2.09,3.95-4.51s-1.53-4.35-3.88-4.35Z"/><path class="cls-1" d="M20.39,14.94c-.16-1.76-2.65-3.65-4.68-3.47s-4,1.8-3.85,3.56c.07,.82,.6,1.51,1.34,2.01-.4,.63-1.98,3.46,.58,6.18,0,0,1.96,2.08,1.21,3.95h.84s-.55-1.3,2.2-3.96c2.64-2.55,1.65-5.01,1.15-6.26,.77-.48,1.27-1.15,1.2-2.02Z"/><path d="M17.42,12.58c-.14,.38-.78,1.04-1.36,1.05s-1.45-.63-1.46-1.04,.7-.65,1.28-.66,1.67,.28,1.54,.65Z"/><ellipse cx="13.39" cy="10.45" rx=".77" ry="1.16" transform="translate(-.06 .07) rotate(-.31)"/><ellipse cx="18.67" cy="10.4" rx=".77" ry="1.16" transform="translate(-1.38 3) rotate(-8.85)"/><circle class="cls-1" cx="13.46" cy="10.21" r=".35"/><circle class="cls-1" cx="18.6" cy="10.01" r=".35"/><ellipse class="cls-1" cx="4.31" cy="26.37" rx=".68" ry=".85" transform="translate(-18.29 12.12) rotate(-48.48)"/><ellipse class="cls-1" cx="5.32" cy="24.79" rx=".68" ry=".85" transform="translate(-9.49 4.21) rotate(-23.63)"/><ellipse class="cls-1" cx="7.13" cy="24.27" rx=".68" ry=".85" transform="translate(-3.65 1.39) rotate(-8.86)"/><ellipse class="cls-1" cx="8.71" cy="25.26" rx=".85" ry=".68" transform="translate(-17.9 27.75) rotate(-76.32)"/><ellipse class="cls-1" cx="21.87" cy="25.1" rx=".68" ry=".85" transform="translate(-6.72 8.05) rotate(-18.12)"/><ellipse class="cls-1" cx="23.54" cy="24.24" rx=".85" ry=".68" transform="translate(-3.29 44.78) rotate(-83.27)"/><ellipse class="cls-1" cx="25.36" cy="24.7" rx=".85" ry=".68" transform="translate(-6.91 39.25) rotate(-68.5)"/><ellipse class="cls-1" cx="26.22" cy="26.36" rx=".85" ry=".68" transform="translate(-10.95 26.89) rotate(-45.96)"/><path class="cls-1" d="M8.25,26.77c-.66-.45-1.38-.58-1.84-.39-.49,.14-.94,.65-1.11,1.34-.22,.9,.13,1.77,.78,1.92,.51,.12,.73-.61,1.37-.82,.77-.26,1.46,.33,1.74-.09,.34-.51-.08-1.39-.94-1.97Z"/><path class="cls-1" d="M22.35,26.77c.66-.45,1.38-.58,1.84-.39,.49,.14,.94,.65,1.11,1.34,.22,.9-.13,1.77-.78,1.92-.51,.12-.73-.61-1.37-.82-.77-.26-1.46,.33-1.74-.09-.34-.51,.08-1.39,.94-1.97Z"/><g><path class="cls-1" d="M10.91,4.29c-1.21,.84-2.25,1.95-2.98,3.19-.37-.37-.65-.85-.76-1.42-.26-1.33,.44-2.6,1.57-2.82,.85-.17,1.68,.28,2.17,1.05Z"/><path class="cls-1" d="M25.02,4.88c.22,1.11-.24,2.17-1.05,2.62-.77-1.18-1.83-2.25-3.04-3.08,.21-.78,.78-1.4,1.54-1.55,1.14-.23,2.28,.68,2.55,2.01Z"/></g></g></svg>