<?xml version="1.0" encoding="UTF-8"?><svg id="Who_is_at_risk" xmlns="http://www.w3.org/2000/svg" viewBox="0 0 32 32"><defs><style>.cls-1{fill:#664e3d;}.cls-2{fill:#8c6b53;stroke-miterlimit:10;}.cls-2,.cls-3,.cls-4{stroke:#fff;stroke-width:.25px;}.cls-3{fill:#ddbf7c;}.cls-3,.cls-4{stroke-linejoin:round;}.cls-4{fill:#4c4c4c;}</style></defs><g id="ic_elderly"><path class="cls-2" d="M18.81,10.32l2.36-3.12s1.14-1.56,3.06-1.32c1.92,.23,3.47,3.21,3.98,3.43,.62,.27,3.66-1.1,1.38-3.17-1.89-1.71-6.43-2.03-6.43-2.03,0,0-1.42-.18-3.41-1.79-.37-.29-.94,.34-.94,.34,0,0-1.26,.77-.11,1.54,1.69,1.13,.78,2.96-1.54,5.41,.18,0,.54,.04,.93,.22,.38,.16,.6,.38,.69,.5h.02Z"/><path class="cls-4" d="M4.47,28.82c2.39-3.05,14.12-18.26,14.12-18.26,0,0-.4-.6-1.57-.76L2.94,28.09c.22,.04,.5,.13,.81,.28,.33,.15,.56,.33,.72,.46h0Z"/><path class="cls-3" d="M4.33,29.02c-.22,.28-.36,.46-.4,.51-.53,.63-.92,.69-1.55,.37s-.05-.98-.05-.98l.48-.63c.22,.05,.49,.14,.77,.27,.34,.15,.59,.33,.76,.47h0Z"/><path class="cls-1" d="M18.59,9.86s2.95-3.85,2.92-4.43,.71-.53,.93-.48,1.55,.52,2.19,.9c-.17-.03-.39-.05-.65-.05-.06,0-.69,0-1.26,.18-.71,.22-1.1,.65-1.32,.91-1.15,1.34-2.06,2.48-2.57,3.15-.03-.04-.08-.07-.12-.12-.03-.02-.07-.05-.1-.07Z"/></g></svg>