<?xml version="1.0" encoding="utf-8"?>
<!-- Generator: Adobe Illustrator 27.9.0, SVG Export Plug-In . SVG Version: 6.00 Build 0)  -->
<svg version="1.1" id="Livello_1" xmlns="http://www.w3.org/2000/svg" xmlns:xlink="http://www.w3.org/1999/xlink" x="0px" y="0px"
	 viewBox="0 0 80.4 167.4" style="enable-background:new 0 0 80.4 167.4;" xml:space="preserve">
<style type="text/css">
	.st0{fill:#FFFFFF;}
	.st1{fill:#D99898;}
</style>
<g id="ic_fever" transform="matrix(1, 0.017, -0.017, 1, 2.907, -0.258)">
	<circle id="Ellisse_7" class="st0" cx="34.8" cy="130.7" r="32"/>
	<path id="Rettangolo_3" class="st0" d="M21,4.5L43.4,4c3.7-0.1,6.8,2.9,6.8,6.6l0,0l2,95.1c0,0.6-0.4,1-1,1l-34.8,0.8l0,0l-2-96
		C14.4,7.6,17.3,4.6,21,4.5z"/>
	<circle id="Ellisse_8" class="st1" cx="34.8" cy="130.7" r="25.3"/>
	<path id="Rettangolo_4" class="st0" d="M77.2,95.4L77.2,95.4c0,1.3-1,2.5-2.4,2.6l0,0l-19.7,0.3l0,0L55,93.3l0,0l19.7-0.4
		C76,92.9,77.2,93.9,77.2,95.4L77.2,95.4z"/>
	<path id="Rettangolo_7" class="st0" d="M76.8,75.9L76.8,75.9c0,1.3-1,2.5-2.4,2.6l0,0l-19.7,0.4l0,0l-0.1-4.9l0,0l19.6-0.5
		C75.5,73.4,76.7,74.5,76.8,75.9L76.8,75.9z"/>
	<path id="Rettangolo_5" class="st0" d="M72.6,85.7L72.6,85.7c0,1.3-1,2.5-2.4,2.6l0,0l-15.3,0.3l0,0l-0.1-4.9l0,0l15.3-0.3
		C71.5,83.2,72.6,84.3,72.6,85.7L72.6,85.7z"/>
	<path id="Rettangolo_6" class="st0" d="M72.2,66.2L72.2,66.2c0,1.3-1,2.5-2.4,2.6l0,0L54.5,69l0,0l-0.1-4.9l0,0l15.3-0.3
		C71.1,63.8,72.1,64.9,72.2,66.2L72.2,66.2z"/>
	<path id="Tracciato_7" class="st1" d="M21.1,62.1c0,0,4-1.6,12.5-1C42,61.6,45.7,59,45.7,59l1.5,69.8l-24.7,0.5L21.1,62.1z"/>
</g>
</svg>
