<?xml version="1.0" encoding="utf-8"?>
<!-- Generator: Adobe Illustrator 27.9.0, SVG Export Plug-In . SVG Version: 6.00 Build 0)  -->
<svg version="1.1" id="Livello_2_00000118356054328041620170000012327246694856920215_"
	 xmlns="http://www.w3.org/2000/svg" xmlns:xlink="http://www.w3.org/1999/xlink" x="0px" y="0px" viewBox="0 0 19.2 23.7"
	 style="enable-background:new 0 0 19.2 23.7;" xml:space="preserve">
<style type="text/css">
	.st0{fill:#C5686A;}
	.st1{fill:#FFFFFF;}
	.st2{opacity:0.51;enable-background:new    ;}
	.st3{fill:#F08384;}
	.st4{fill:#D18C8C;}
	.st5{fill:#AE3F17;}
	.st6{fill:none;stroke:#FFFFFF;stroke-width:0.4885;stroke-linecap:round;stroke-linejoin:round;stroke-miterlimit:10;}
	.st7{fill:#CA8D8D;}
</style>
<g id="Complications">
	<g id="ic_Gastro-intestinal_problems">
		<g>
			<g id="Tracciato_28-2">
				<path class="st0" d="M14.3,12c0-0.1,0-0.2,0.2-0.4c0,0,0,0,0-0.1c-0.4,0.1-1.4,0.4-1.6,0.4h-0.1l0-0.1l0-0.1l0.1-0.1
					c0.4-0.2,1.8-0.9,2.1-0.9l0,0c0.1,0,0.2,0,0.3,0.1c0.1,0.1,0,0.3,0,0.3l0,0c0.5-0.2,1.6-0.5,2.1-0.5c0.4,0,0.5,0.2,0.5,0.4
					c0,0.2-0.1,0.4-0.3,0.4c-0.3,0.1-3.1,0.7-3.1,0.7L14.3,12L14.3,12L14.3,12z"/>
				<path class="st1" d="M17.3,10.7L17.3,10.7c0.5,0,0.5,0.5,0.2,0.6c-0.3,0.1-3.1,0.7-3.1,0.7l0,0c0,0-0.1,0,0.1-0.4
					c0.2-0.2,0.2-0.3,0.1-0.3c0,0,0,0,0,0s-1.5,0.5-1.7,0.5c0,0,0,0,0,0c0.4-0.2,1.7-0.9,2.1-0.9c0,0,0,0,0,0c0.3,0,0.1,0.3,0.1,0.3
					L15,11.4C15,11.4,16.8,10.7,17.3,10.7 M17.3,10.5c-0.4,0-1.3,0.3-1.9,0.5c0-0.1,0-0.1,0-0.2c0-0.1-0.1-0.2-0.3-0.2
					c-0.4,0-1.9,0.8-2.2,0.9c-0.1,0.1-0.2,0.2-0.1,0.3l0,0.1h0.2c0.2,0,0.8-0.2,1.3-0.3c-0.1,0.1-0.1,0.3-0.1,0.4l0.1,0.1l0.2,0
					c0,0,2.9-0.6,3.2-0.7c0.2,0,0.4-0.3,0.3-0.5C17.9,10.8,17.7,10.6,17.3,10.5L17.3,10.5L17.3,10.5z"/>
			</g>
			<g id="Tracciato_29-2">
				<path class="st0" d="M12.8,9.3L12.8,9.3l0-0.2c0.1-0.4,0.6-1.9,0.9-2.1c0.1-0.1,0.1-0.1,0.2-0.1c0.1,0,0.2,0.2,0.2,0.3v0
					c0.3-0.6,1-2,1.3-2.3c0.1-0.1,0.2-0.1,0.2-0.1c0.1,0,0.2,0,0.3,0.2c0.1,0.2,0.1,0.6,0,0.8c-0.2,0.2-1.8,2.6-1.8,2.6l0,0H14
					c-0.1,0-0.2-0.2-0.2-0.4c0,0,0-0.1,0-0.1C13,9.3,12.9,9.3,12.8,9.3L12.8,9.3L12.8,9.3z"/>
				<path class="st1" d="M15.6,4.8c0.3,0,0.3,0.6,0.2,0.8C15.7,5.9,14,8.3,14,8.3s0,0,0,0c0,0-0.1,0-0.1-0.4c0-0.2-0.1-0.3-0.1-0.3
					c0,0,0,0,0,0s-0.8,1.5-0.9,1.5c0,0,0,0,0-0.1c0.1-0.4,0.6-1.9,0.9-2.1C13.7,7,13.8,7,13.8,7C13.9,7,14,7.2,14,7.2L14,7.4
					c0,0,1-2.2,1.4-2.5C15.5,4.8,15.6,4.8,15.6,4.8 M15.6,4.6c-0.1,0-0.2,0-0.3,0.1c-0.3,0.3-0.9,1.5-1.2,2.1
					c-0.1-0.1-0.1-0.1-0.3-0.1c-0.1,0-0.2,0-0.3,0.1c-0.3,0.3-0.8,1.8-0.9,2.2c0,0,0,0.1,0,0.2l0.1,0.1h0.1c0.1,0,0.2,0,0.9-1.2
					c0,0.2,0.1,0.3,0.3,0.3h0.1l0.1-0.1c0,0,1.7-2.4,1.8-2.7c0.1-0.2,0.1-0.7,0-0.9C15.8,4.7,15.7,4.6,15.6,4.6L15.6,4.6L15.6,4.6z"
					/>
			</g>
			<g id="Tracciato_30-2">
				<path class="st0" d="M13.1,10.6L13.1,10.6L13,10.4l0.1-0.1c0.3-0.4,1.7-1.9,2.1-2c0.1,0,0.1,0,0.2,0c0.1,0,0.2,0,0.2,0.1
					c0.1,0.1,0.1,0.3,0,0.3l0,0.1c0.6-0.5,2.2-1.9,2.8-2.1c0.1,0,0.1,0,0.2,0c0.1,0,0.3,0.1,0.3,0.2c0.1,0.3-0.1,0.9-0.4,1
					c-0.3,0.2-3.4,2.1-3.4,2.1h0l-0.1,0c0-0.1-0.1-0.2,0-0.6c0-0.1,0-0.1,0-0.2C14.2,9.9,13.3,10.6,13.1,10.6L13.1,10.6L13.1,10.6z"
					/>
				<path class="st1" d="M18.6,6.7c0.4,0,0.2,0.9-0.1,1.1C18.2,8,15,10,15,10s0,0,0,0c0,0-0.1,0,0-0.5c0.1-0.3,0.1-0.4,0-0.4
					c0,0-0.1,0-0.1,0s-1.7,1.3-1.8,1.3c0,0,0,0,0-0.1c0.4-0.5,1.7-1.8,2.1-2c0.1,0,0.1,0,0.2,0c0.2,0,0.1,0.3,0.1,0.3L15.5,9
					c0,0,2.3-2,2.9-2.2C18.5,6.7,18.5,6.7,18.6,6.7 M18.6,6.5c-0.1,0-0.1,0-0.2,0c-0.5,0.2-1.9,1.3-2.6,1.9c0-0.1,0-0.2-0.1-0.2
					c-0.1-0.1-0.2-0.1-0.3-0.1c-0.1,0-0.1,0-0.2,0c-0.4,0.2-1.8,1.6-2.1,2.1c0,0-0.1,0.2-0.1,0.3l0,0.1h0.1c0.1,0,0.2,0,1.6-1.1
					c-0.1,0.3-0.1,0.4,0,0.5l0.1,0.1l0.1,0c0,0,0.1,0,0.1,0c0,0,3.2-2,3.5-2.2c0.3-0.2,0.5-0.8,0.4-1.1C19,6.7,18.8,6.5,18.6,6.5
					L18.6,6.5L18.6,6.5z"/>
			</g>
			<g>
				<path class="st0" d="M8.6,20.4c-1.6,0-5.8-1.7-7.1-3.9c-1.4-2.3,0.3-5.2,0.3-5.3l0,0l0,0c0,0,0.5-0.2,1-0.2s3.3,0.9,3.6,1
					c0,0,2.4-0.6,3.8-0.6c0.5,0,0.8,0.1,1,0.3c0.6,0.7,0.7,4.6,0.7,5.1C11.8,16.8,10.2,20.4,8.6,20.4L8.6,20.4L8.6,20.4z"/>
				<path class="st1" d="M2.9,11.1c0.5,0,3.5,1,3.5,1s2.5-0.6,3.9-0.6c0.4,0,0.7,0.1,0.8,0.2c0.6,0.6,0.6,5,0.6,5s-1.6,3.6-3.1,3.7
					c0,0,0,0-0.1,0c-1.5,0-5.6-1.6-7-3.8c-1.4-2.2,0.3-5.2,0.3-5.2S2.4,11.1,2.9,11.1 M2.9,10.7c-0.5,0-1.1,0.2-1.1,0.3l-0.1,0
					l-0.1,0.1c-0.1,0.1-1.8,3.2-0.3,5.5c1.4,2.3,5.6,3.9,7.3,3.9h0.1c1.6,0,3.2-3.5,3.4-3.9l0-0.1v-0.1c0-1-0.1-4.5-0.7-5.2
					c-0.2-0.2-0.5-0.3-1.1-0.3c-1.3,0-3.4,0.5-3.8,0.6C5.7,11.5,3.3,10.7,2.9,10.7L2.9,10.7L2.9,10.7z"/>
			</g>
			<g>
				<path class="st2" d="M6.2,17.2c-0.1,0.4-0.5,0.8-1.1,0.9l0,0c0,0,0,0,0,0s0,0,0,0C5.7,18,6.1,17.6,6.2,17.2
					c0-0.4-0.2-0.8-0.6-1.1c-0.5-0.3-1.1-0.3-1.7,0c0,0,0,0,0,0c0,0,0,0,0,0c0.6-0.4,1.2-0.4,1.7,0C6.1,16.4,6.3,16.8,6.2,17.2
					L6.2,17.2z"/>
				<path class="st1" d="M7,18.2c0.5-0.6,0.6-1.2,0.5-1.8c-0.2-0.6-0.7-1-1.6-1.4l-0.6-1.4l-1.2,1.1c0,0-0.5,0.3-0.6,0.3
					c0,0,0,0-0.1,0c-0.4,0.2-1.7,0.8-1.6,1.3c0,0.1,0,0.2,0.1,0.3c0,0.2,0.1,0.4,0.3,0.6c0,0.1,0.1,0.1,0.2,0.1l-0.3,1.1h0
					c0,0,1.4,0.4,1.3,0.9c0,0.2,0,0.4,0.2,0.6c0.2,0.2,0.5,0.3,0.8,0.3c0.1,0,0.5,0,0.7-0.3c0-0.1,0.1-0.1,0.1-0.2
					c0.1-0.2,0.2-0.3,0.4-0.4c0,0,0.1,0,0.1,0c0.5,0,0.5,1,0.5,1v0.1l0-0.1c0,0,0.7-0.7,0.8-1C7.3,19.3,7,18.3,7,18.2
					C7,18.2,7,18.2,7,18.2L7,18.2z M7,19.5c-0.1,0.2-0.6,0.8-0.8,0.9c0-0.2,0-1-0.5-1c0,0,0,0,0,0c0,0-0.1,0-0.1,0
					c-0.2,0.1-0.3,0.2-0.4,0.4c0,0.1-0.1,0.1-0.1,0.2c-0.2,0.3-0.5,0.3-0.7,0.3c-0.2,0-0.5-0.1-0.7-0.3c-0.1-0.2-0.2-0.3-0.1-0.5
					c0.1-0.5-1.1-0.9-1.4-0.9l0-0.2c0.3,0.2,0.7,0.3,1.1,0.3c0.2,0,0.4,0,0.6-0.1c0.2-0.1,0.4-0.2,0.4-0.3c0,0,0,0,0,0c0,0,0,0,0,0
					c-0.1,0.1-0.2,0.2-0.4,0.3c-0.6,0.2-1.2,0.1-1.7-0.2l0.2-0.8c0.2,0.1,0.5,0.2,0.9,0.2c0,0,0.4,0,0.6-0.2c0,0,0.1,0,0.1-0.1
					c0.2-0.1,0.4-0.3,0.6-0.2c0.1,0,0.2,0.2,0.3,0.5c0,0,0,0,0,0c0,0,0,0,0,0c-0.1-0.3-0.2-0.5-0.3-0.6c-0.2-0.1-0.5,0.1-0.7,0.2
					c0,0-0.1,0-0.1,0.1c-0.3,0.2-0.6,0.2-0.6,0.2c-0.6,0-0.9-0.1-1.1-0.3c-0.1-0.2-0.2-0.4-0.2-0.6c0-0.1,0-0.2-0.1-0.3
					c-0.1-0.3,0.4-0.8,1.5-1.3c0,0,0.1,0,0.1,0c0.2-0.1,0.7-0.3,0.7-0.4l1.1-1l0.5,1.3h0c0.9,0.3,1.4,0.8,1.5,1.3
					c0.1,0.5,0,1.1-0.5,1.7c0,0,0,0,0,0c-0.2-0.3-0.5-0.4-0.8-0.4c0,0,0,0,0,0c0,0,0,0,0,0c0.3,0,0.6,0.2,0.8,0.5
					C7,18.5,7.2,19.3,7,19.5L7,19.5z"/>
				<path class="st3" d="M6.2,17.8C6.2,17.8,6.2,17.8,6.2,17.8C6.2,17.8,6.2,17.7,6.2,17.8c0.3-0.1,0.6,0.1,0.8,0.4c0,0,0,0,0,0
					c0.5-0.6,0.6-1.2,0.5-1.7c-0.2-0.5-0.7-1-1.5-1.3h0l-0.5-1.3l-1.1,1c0,0-0.5,0.3-0.7,0.4c0,0,0,0-0.1,0
					c-1.1,0.5-1.6,0.9-1.5,1.3C2,16.5,2,16.7,2,16.7c0,0.2,0.1,0.4,0.2,0.6c0.2,0.2,0.6,0.3,1.1,0.3c0,0,0.4,0,0.6-0.2
					c0,0,0.1,0,0.1-0.1c0.2-0.1,0.5-0.3,0.7-0.2c0.2,0.1,0.3,0.2,0.3,0.6c0,0,0,0,0,0c0,0,0,0,0,0c-0.1-0.3-0.2-0.5-0.3-0.5
					c-0.2-0.1-0.4,0.1-0.6,0.2c0,0-0.1,0-0.1,0.1c-0.3,0.2-0.6,0.2-0.6,0.2c-0.4,0-0.7-0.1-0.9-0.2l-0.2,0.8
					c0.5,0.3,1.2,0.4,1.7,0.2c0.2-0.1,0.3-0.2,0.4-0.3c0,0,0,0,0,0c0,0,0,0,0,0c-0.1,0.1-0.2,0.2-0.4,0.3c-0.2,0.1-0.4,0.1-0.6,0.1
					c-0.4,0-0.8-0.1-1.1-0.3l0,0.2c0.2,0.1,1.5,0.4,1.4,0.9c0,0.2,0,0.4,0.1,0.5c0.2,0.2,0.5,0.3,0.7,0.3c0.1,0,0.5,0,0.7-0.3
					c0-0.1,0.1-0.1,0.1-0.2c0.1-0.2,0.2-0.3,0.4-0.4c0,0,0.1,0,0.1,0c0,0,0,0,0,0c0.5,0,0.5,0.8,0.5,1c0.2-0.2,0.7-0.7,0.8-0.9
					c0.1-0.2,0-1-0.1-1.3C6.8,18,6.5,17.8,6.2,17.8L6.2,17.8z"/>
				<path class="st1" d="M6.2,17.2c-0.1,0.4-0.5,0.8-1.1,0.9l0,0c0,0,0,0,0,0s0,0,0,0C5.7,18,6.1,17.6,6.2,17.2
					c0-0.4-0.2-0.8-0.6-1.1c-0.5-0.3-1.1-0.3-1.7,0c0,0,0,0,0,0c0,0,0,0,0,0c0.6-0.4,1.2-0.4,1.7,0C6.1,16.4,6.3,16.8,6.2,17.2
					L6.2,17.2z"/>
			</g>
			<g id="Tracciato_26">
				<path class="st4" d="M5.9,11.7c-0.9-1-1.4-2-1.3-2.9c0-0.6,0.3-1,0.5-1.2C4.9,7.2,4.8,6.5,5.4,5.9c0.5-0.6,1.2-0.8,1.8-1
					C7.5,4.8,7.8,4.7,8,4.6c0.4-0.2,0.6-2,0.5-3.6V0.8l1.6-0.2l0,1.5c0.4-0.2,0.8-0.4,1.2-0.4c0.8,0,1.5,0.5,1.9,1.4
					c0.5,1.1,0.4,3.1-1.4,4.8C10.7,9,9.5,9.6,8.4,9.6c-1.1,0-1.8-0.5-2.2-0.8c-0.3,0.7,0.5,1.5,1.4,2.3l0.6,0.5L5.9,11.7L5.9,11.7
					L5.9,11.7z"/>
				<path class="st1" d="M9.9,0.8l0,1.7c0.5-0.4,1-0.6,1.4-0.6c1.9,0,2.9,3.3,0.3,5.8C10.4,9,9.3,9.3,8.4,9.3C7,9.3,6.1,8.4,6.1,8.4
					c-0.8,1.1,0.6,2.3,1.5,3l-1.5,0.1C3.8,9,5.4,7.7,5.4,7.7S4.9,6.8,5.6,6.1s1.8-0.9,2.5-1.3S8.8,1,8.8,1L9.9,0.8 M10.4,0.3
					L9.8,0.4L8.7,0.5L8.3,0.6V1c0,1.6-0.2,3.1-0.4,3.4C7.7,4.5,7.4,4.6,7.1,4.6C6.5,4.9,5.8,5.1,5.2,5.7C4.6,6.4,4.7,7.1,4.8,7.6
					C4.6,7.9,4.4,8.3,4.4,8.9c-0.1,0.9,0.4,2,1.4,3l0.2,0.2l0.2,0L7.6,12l1.2-0.1l-0.8-0.8L7.7,11C7,10.4,6.4,9.8,6.4,9.3
					c0.5,0.3,1.1,0.6,2,0.6c1.2,0,2.4-0.6,3.6-1.7c1.8-1.8,1.9-3.8,1.4-5c-0.4-1-1.2-1.6-2.1-1.6c-0.3,0-0.6,0.1-0.9,0.2l0-0.9
					L10.4,0.3L10.4,0.3L10.4,0.3z"/>
			</g>
			<g>
				<path class="st3" d="M11,15.1c-0.1,0.2-0.2,0.6-0.7,0.7c-0.4,0.1-0.6,0-0.8,0c-0.1,0-0.2-0.1-0.2-0.2c0-0.1,0-0.2-0.1-0.3H9.3
					v0.3c-1,0.1-1.6,1-1.7,1.3c0-0.4-0.2-0.7-0.5-1c-0.2-0.2-0.4-0.4-0.5-0.4c0.5-0.2,0.8-0.5,0.8-0.5c0,0,0,0,0,0c0,0,0,0,0,0
					c0,0,0,0-0.1,0.1c-0.1,0.1-0.3,0.2-0.5,0.3c-0.2,0.1-0.4,0.1-0.7,0.1c-0.4,0-0.8-0.2-1.1-0.6c0.1-0.1,0.2-0.2,0.2-0.4l0,0
					l-0.3,0.4c-0.4,0.4-0.8,0.5-1.1,0.5c-0.5,0-1.1-0.2-1.3-0.6c-0.3-0.6-0.3-1.1-0.3-1.1l0.1-1.1h1.4l2.1,0.1l0.8,0.5l0,0
					c0,0,1.3,0.2,1.8,0.8c0.2,0.2,0.2,0.5,0.2,0.8L8.3,15l0,0c0,0,1.3-1,2.1-0.8c0.3,0.1,0.5,0.3,0.6,0.6C11.1,14.9,11.1,15,11,15.1
					L11,15.1z"/>
				<path class="st1" d="M11.1,14.8c-0.1-0.4-0.3-0.6-0.6-0.7c-0.7-0.2-1.6,0.4-1.9,0.7c0-0.3,0-0.6-0.2-0.8
					c-0.5-0.7-1.7-0.8-1.8-0.8l-0.8-0.5l-2.1-0.1H2.2l-0.1,1.1c0,0-0.1,0.5,0.3,1.1c0.2,0.4,0.8,0.6,1.4,0.6c0.3,0,0.8-0.1,1.2-0.5
					c0.3,0.4,0.7,0.6,1.1,0.6c0.2,0,0.4,0,0.5-0.1c0.1,0.1,1,0.7,1,1.6v0.2L7.5,17c0,0,0.5-1.3,1.8-1.4h0c0,0.1,0.1,0.2,0.2,0.2
					c0.2,0.1,0.4,0.1,0.8,0c0.5-0.1,0.7-0.5,0.7-0.7C11.1,15,11.1,14.9,11.1,14.8L11.1,14.8z M11.1,15.1c-0.1,0.2-0.2,0.6-0.7,0.7
					c-0.4,0.1-0.6,0-0.8,0c-0.1,0-0.2-0.1-0.2-0.2c0-0.1,0-0.2-0.1-0.3H9.3v0.3c-1,0.1-1.6,1-1.7,1.3c0-0.4-0.2-0.7-0.5-1
					c-0.2-0.2-0.4-0.4-0.5-0.4c0.5-0.2,0.8-0.5,0.8-0.5c0,0,0,0,0,0c0,0,0,0,0,0c0,0,0,0-0.1,0.1c-0.1,0.1-0.3,0.2-0.5,0.3
					c-0.2,0.1-0.4,0.1-0.7,0.1c-0.4,0-0.8-0.2-1.1-0.6c0.1-0.1,0.2-0.2,0.2-0.4l0,0l-0.3,0.4c-0.4,0.4-0.8,0.5-1.1,0.5
					c-0.5,0-1.1-0.2-1.3-0.6c-0.3-0.6-0.3-1.1-0.3-1.1l0.1-1.1h1.4l2.1,0.1l0.8,0.5l0,0c0,0,1.3,0.2,1.8,0.8
					c0.2,0.2,0.2,0.5,0.2,0.8L8.3,15l0,0c0,0,1.3-1,2.1-0.8c0.3,0.1,0.5,0.3,0.6,0.6C11.1,14.9,11.1,15,11.1,15.1L11.1,15.1z"/>
			</g>
			<g>
				<path class="st3" d="M11.4,13.3c-0.3,0.5-0.7,0.8-1.1,0.8c-0.9,0-1.8-1.2-1.8-1.2l0,0l0,0c-0.5,0.9-1.1,1.4-1.6,1.4c0,0,0,0,0,0
					c-0.9,0-1.7-1.2-1.7-1.2l0,0l0,0c-0.7,0.6-1.3,0.9-1.8,0.7c-0.7-0.2-1-1-1.1-1.4l-0.4-1.5L3,10.8l1.7,0.6l2.6,0.5l0,0l2.9-0.8
					c0.1,0,1.1,0.1,1.4,0.7C11.8,12.1,11.8,12.6,11.4,13.3L11.4,13.3z"/>
				<path class="st1" d="M11.7,11.7C11.3,11,10.3,11,10.2,11l0,0l-2.9,0.8l-2.6-0.5L3,10.7L1.8,11l0.4,1.5c0.1,0.4,0.4,1.2,1.1,1.4
					c0.5,0.2,1.1-0.1,1.8-0.7c0.1,0.1,0.2,0.3,0.5,0.6c0.4,0.4,0.8,0.6,1.2,0.6c0,0,0,0,0,0c0.6,0,1.2-0.5,1.7-1.4
					c0.1,0.1,0.3,0.3,0.5,0.6c0.3,0.3,0.8,0.6,1.3,0.6c0.4,0,0.8-0.3,1.1-0.9C11.8,12.7,11.9,12.1,11.7,11.7L11.7,11.7z M10.3,14.1
					c-0.9,0-1.8-1.2-1.8-1.2l0,0l0,0c-0.5,0.9-1.1,1.4-1.6,1.4c0,0,0,0,0,0c-0.9,0-1.7-1.2-1.7-1.2l0,0l0,0
					c-0.7,0.6-1.3,0.9-1.8,0.7c-0.7-0.2-1-1-1.1-1.4l-0.4-1.5L3,10.8l1.7,0.6l2.6,0.5l0,0l2.9-0.8c0.1,0,1.1,0.1,1.4,0.7
					c0.2,0.4,0.1,0.9-0.2,1.5C11.1,13.8,10.7,14.1,10.3,14.1L10.3,14.1z"/>
			</g>
			<g>
				<path class="st5" d="M10.5,17.7L10.5,17.7c-0.1-0.3-0.2-0.5-0.4-0.7s-0.5-0.2-0.7-0.2c-0.3,0-0.5,0.2-0.7,0.4l0,0l0,0
					c-0.1-0.3-0.1-0.7,0.2-0.9l0,0c-0.2,0.2-0.3,0.5-0.2,0.8c0.2-0.2,0.4-0.3,0.7-0.4c0.3,0,0.6,0,0.8,0.2
					C10.3,17.2,10.5,17.5,10.5,17.7L10.5,17.7z"/>
				<path class="st1" d="M10.9,16.2c0,0-0.1-0.2-0.4-0.4c-0.2-0.2-0.7-0.4-1.3-0.3c-1.2,0-1.6,1.2-1.6,1.2c0,0-0.4,1.3,0.5,1.8
					c0.1,0.1,0.2,0.1,0.3,0.1c0,0-0.1,0-0.2,0c-0.1,0-0.4-0.1-0.4-0.1c-0.1,0-0.3,0-0.4,0c-0.3,0.1-0.5,0.4-0.6,0.7
					c-0.1,0.6,0.6,1,0.6,1.1l0,0l2.6-0.4h0v0c0,0,0.6-0.8,1.2-1.9C11.7,17,10.9,16.3,10.9,16.2L10.9,16.2z M11.1,18
					c-0.5,1-1.1,1.7-1.2,1.8l-2.6,0.4c-0.1,0-0.7-0.4-0.6-1c0-0.3,0.3-0.5,0.5-0.6c0.1,0,0.2,0,0.2,0c0,0,0.1,0,0.1,0
					c0,0,0.3,0.1,0.4,0.1c0.1,0,0.2,0,0.2,0c0,0,0.1,0,0.2,0c0.1,0,0.3,0,0.4,0c0.3-0.2,0.3-0.6,0.3-0.8H9.2c0,0.2,0,0.6-0.3,0.7
					c-0.2,0.1-0.4,0.1-0.7-0.1c-0.9-0.6-0.5-1.8-0.5-1.8c0,0,0.5-1.2,1.6-1.2c0.6,0,1,0.2,1.2,0.3c0.3,0.2,0.4,0.3,0.4,0.3l0,0
					C10.8,16.2,11.7,17,11.1,18L11.1,18z"/>
				<path class="st3" d="M10.8,16.2L10.8,16.2c0,0-0.1-0.2-0.4-0.4c-0.2-0.2-0.6-0.3-1.2-0.3c-1.1,0-1.6,1.2-1.6,1.2
					S7.3,18,8.1,18.5c0.3,0.2,0.6,0.2,0.7,0.1c0.2-0.1,0.3-0.5,0.3-0.7h0.1c0,0.2-0.1,0.6-0.3,0.8c-0.1,0.1-0.2,0.1-0.4,0
					c0,0-0.1,0-0.2,0c0,0-0.1,0-0.2,0c-0.1,0-0.4-0.1-0.4-0.1c0,0-0.1,0-0.1,0c-0.1,0-0.2,0-0.2,0C7,18.7,6.8,19,6.8,19.2
					c-0.1,0.6,0.5,0.9,0.6,1l2.6-0.4c0.1-0.1,0.7-0.8,1.2-1.8C11.7,17,10.8,16.3,10.8,16.2L10.8,16.2z"/>
				<path class="st1" d="M10.5,17.7L10.5,17.7c-0.1-0.3-0.2-0.5-0.4-0.7s-0.5-0.2-0.7-0.2c-0.3,0-0.5,0.2-0.7,0.4l0,0l0,0
					c-0.1-0.3-0.1-0.7,0.2-0.9l0,0c-0.2,0.2-0.3,0.5-0.2,0.8c0.2-0.2,0.4-0.3,0.7-0.4c0.3,0,0.6,0,0.8,0.2
					C10.3,17.2,10.5,17.5,10.5,17.7L10.5,17.7z"/>
			</g>
			<g>
				<path class="st1" d="M12.7,16.2c0.2-0.2,0.3-0.5,0.3-0.8c0-0.4-0.3-0.7-0.4-0.8c0.4-0.4,0.6-0.7,0.5-1c-0.1-0.5-0.6-0.8-0.7-0.8
					c0.2-0.3,0.3-0.6,0.2-0.9c-0.1-0.4-0.4-0.5-0.4-0.6c0-0.7-0.2-1.1-0.5-1.3c-0.5-0.3-1.2,0.2-1.3,0.2C9.7,9.9,9.2,10.5,9,10.6
					c-0.8-0.5-1.5,0.2-1.6,0.4c-0.2-0.2-0.3-0.3-0.5-0.3c-0.3,0-0.6,0.2-0.7,0.2c-0.2-0.3-0.4-0.5-0.6-0.5c-0.3,0-0.6,0.2-0.7,0.3
					c-0.1-0.4-0.2-0.6-0.5-0.7c-0.5-0.3-1.1,0-1.2,0l0,0C2.8,9.7,2.4,9.6,2.1,9.7c-0.6,0.3-0.7,1-0.8,1.2c-0.4,0.1-0.7,0.3-0.7,0.5
					c-0.1,0.4,0.2,0.8,0.3,0.9c-0.3,0.2-0.4,0.4-0.5,0.6c0,0.4,0.2,0.8,0.3,0.9c-0.3,0.1-0.4,0.3-0.5,0.5c-0.1,0.3,0.2,0.6,0.3,0.7
					c-0.3,0.4-0.4,0.7-0.3,1c0.1,0.4,0.4,0.6,0.6,0.6c-0.3,0.2-0.4,0.5-0.4,0.8c0,0.4,0.4,0.7,0.5,0.8c-0.2,0.6,0,1,0.3,1.2
					c0.2,0.2,0.4,0.3,0.5,0.3c0,0.4,0.1,0.7,0.3,0.9c0.4,0.3,0.9,0.1,1,0.1L3.9,21l-0.4-0.9c0.1-0.2,0.2-0.5,0.1-0.7
					c-0.2-0.4-0.7-0.7-0.8-0.8c0.1-0.2,0-0.4-0.1-0.6c-0.1-0.1-0.2-0.2-0.3-0.2C2.7,17,2.2,16.6,2,16.5c0.2-0.2,0.3-0.4,0.4-0.6
					c0-0.4-0.3-0.7-0.4-0.8c0.2-0.1,0.3-0.2,0.4-0.4c0.1-0.3-0.1-0.6-0.2-0.7c0.6-0.3,0.3-1.2,0.2-1.4c0.3-0.2,0.5-0.3,0.6-0.5
					c0.1-0.2-0.1-0.4-0.2-0.7c0,0,0,0,0-0.1c0.2,0.2,0.4,0.3,0.5,0.2c0,0,0.1-0.1,0.1-0.1c0.1,0.2,0.2,0.3,0.3,0.4
					c0.3,0.2,0.8,0,0.9,0c0.1,0.3,0.2,0.5,0.5,0.6c0.5,0.2,1.1,0,1.2,0c0.3,0.3,0.6,0.4,0.9,0.4c0.5,0,0.8-0.4,0.9-0.5
					c0.5,0.3,0.9,0.3,1.2,0.1c0.3-0.2,0.4-0.5,0.5-0.6c0.1,0.1,0.5,0.4,0.8,0.4c0.2,0,0.3-0.1,0.4-0.3c0,0.5,0.4,0.9,0.5,1
					c-0.2,0.2-0.3,0.4-0.3,0.6c0,0.4,0.3,0.8,0.3,0.9C11.1,14.8,11,15,11,15.3c0,0.5,0.3,0.8,0.4,0.9c-0.8,0.6-0.3,1.4-0.2,1.6
					c-0.4,0.1-0.6,0.5-0.6,0.7c0,0.2,0,0.4,0,0.5c-0.1-0.1-0.2-0.1-0.4,0c-0.2,0.1-0.4,0.4-0.4,0.5C9,19,8.4,19.8,8.2,20
					c-0.3-0.4-0.6-0.5-0.9-0.5c-0.6,0.1-0.9,0.8-1,0.8c-0.1,0.1-1,0.7-0.4,1.7c0,0,0.2,0.3,0.4,0.4c0,0.1-0.1,0.2,0,0.5
					c0.2,0.3,0.4,0.4,0.4,0.4h0h0c0,0,0.6-0.8,0.8-1.2c0.1-0.1,0.1-0.2,0.1-0.3c0-0.1,0-0.2,0-0.3c0.3-0.1,0.6-0.4,0.6-0.5
					c0.3,0.4,0.6,0.7,0.9,0.7h0c0.6,0,1-0.6,1.1-0.7c0.4,0.1,0.7,0,1-0.2c0.4-0.3,0.3-0.9,0.3-1.1c0.4-0.1,0.7-0.2,0.8-0.5
					c0.2-0.4,0-1-0.1-1.2c0.4-0.1,0.7-0.3,0.8-0.6C13.4,16.9,12.9,16.3,12.7,16.2L12.7,16.2z M13.1,17.5c-0.1,0.3-0.3,0.5-0.8,0.6h0
					l0,0c0,0,0.3,0.7,0.1,1.1c-0.1,0.3-0.4,0.4-0.8,0.5h0v0c0,0,0.1,0.7-0.3,1.1c-0.2,0.2-0.5,0.2-0.9,0.1h0l0,0c0,0-0.5,0.7-1,0.7
					h0c-0.3,0-0.6-0.2-0.9-0.7l0,0l0,0c0,0-0.3,0.4-0.7,0.5c-0.3,0.1-0.6,0-0.8-0.2c0,0,0,0,0,0c0,0,0,0,0,0
					c0.3,0.3,0.6,0.4,0.9,0.3c0,0.1,0,0.2,0,0.3c0,0.1-0.1,0.2-0.1,0.3c-0.2,0.4-0.7,1-0.8,1.2c-0.1,0-0.2-0.1-0.3-0.4
					c-0.1-0.3,0-0.4,0-0.4l0,0l0,0C6.2,22.3,6,22,6,22c-0.6-1.1,0.3-1.6,0.4-1.7l0,0v0c0,0,0.4-0.8,0.9-0.8c0.3,0,0.6,0.1,0.9,0.5
					l0,0l0,0c0,0,0.2-0.3,0.5-0.4c0.4-0.2,0.7-0.3,1.1,0l0,0v0c0,0,0.2-0.4,0.4-0.5c0.1,0,0.2,0,0.4,0.1l0.1,0l0-0.1
					c0,0-0.1-0.3,0-0.5c0-0.4,0.3-0.6,0.6-0.7h0l0,0c0,0-0.2-0.2-0.2-0.6c-0.1-0.4,0.1-0.8,0.4-1l0,0l0,0c0,0-0.4-0.4-0.4-0.9
					c0-0.3,0.1-0.5,0.4-0.7l0,0l0,0c0,0-0.4-0.4-0.3-0.9c0-0.2,0.1-0.4,0.3-0.6l0,0l0,0c0,0-0.6-0.5-0.5-1.1c0,0,0,0,0,0l0.1-0.2
					c0,0,0,0,0,0c0.1-0.2,0.2-0.4,0.5-0.5c0,0,0,0,0,0c0,0,0,0,0,0c-0.3,0.2-0.5,0.5-0.5,0.8v0c-0.1,0.2-0.3,0.3-0.4,0.3
					c-0.4,0-0.8-0.4-0.8-0.4l0,0v0.1c0,0-0.1,0.4-0.5,0.6c-0.3,0.1-0.7,0.1-1.2-0.2h0h0c0,0-0.4,0.4-0.9,0.5c-0.3,0-0.6-0.1-0.8-0.4
					h0h0c0,0-0.7,0.3-1.1,0c-0.2-0.1-0.4-0.3-0.4-0.6v0l0,0c0,0-0.5,0.2-0.9,0c-0.2-0.1-0.3-0.3-0.3-0.5l0,0c0,0,0,0,0,0v0h0
					c0,0,0,0,0,0l0,0c0,0,0,0.1-0.1,0.2c-0.1,0-0.2,0-0.5-0.3c0,0,0,0-0.1,0c0,0,0,0,0,0.1c0,0.1,0.1,0.1,0.1,0.2
					c0.2,0.3,0.3,0.5,0.2,0.7c0,0.2-0.2,0.3-0.6,0.5h0l0,0c0,0,0.4,1-0.2,1.4l0,0l0,0c0,0,0.3,0.3,0.2,0.6c0,0.2-0.2,0.3-0.4,0.4
					l0,0l0,0c0,0,0.4,0.4,0.4,0.8c0,0.2-0.1,0.4-0.4,0.6l0,0l0,0c0,0,0.7,0.5,0.3,1.3v0l0,0c0,0,0.6,0.4,0.4,0.8v0l0,0
					c0,0,0.6,0.3,0.8,0.7c0.1,0.2,0,0.4-0.1,0.7l0,0l0.4,0.8L3,20.6l0,0c0,0-0.6,0.2-1-0.1c-0.2-0.2-0.3-0.4-0.3-0.8v0h0
					c0,0-1-0.3-0.7-1.5v0l0,0c0,0-0.5-0.3-0.5-0.8c0-0.3,0.1-0.5,0.4-0.8l0,0l0,0c0,0-0.5-0.2-0.6-0.6c-0.1-0.3,0-0.6,0.3-1l0,0l0,0
					c0,0-0.4-0.3-0.3-0.7c0-0.2,0.2-0.3,0.5-0.4l0,0l0,0c0,0-0.4-0.4-0.4-0.8c0-0.2,0.2-0.4,0.5-0.6l0,0l0,0c0,0-0.4-0.5-0.3-0.9
					C0.7,11.2,1,11,1.4,11h0v0c0,0,0.2-0.9,0.7-1.2C2.4,9.6,2.8,9.7,3.2,10l0,0h0c0,0,0.7-0.3,1.2,0c0.2,0.1,0.4,0.4,0.5,0.8v0.1
					l0,0c0,0,0.3-0.4,0.7-0.3c0.2,0,0.4,0.2,0.6,0.5l0,0l0,0c0,0,0.3-0.3,0.7-0.3c0.2,0,0.4,0.1,0.5,0.3l0,0l0,0
					c0,0,0.2-0.2,0.5-0.4c0.4-0.2,0.8-0.2,1.1,0h0h0c0,0,0.5-0.7,1.3-0.4h0h0c0,0,0.8-0.5,1.3-0.2c0.3,0.2,0.5,0.6,0.5,1.3v0h0
					c0,0,0.3,0.2,0.4,0.6c0.1,0.3,0,0.6-0.2,0.9l0,0l0,0c0,0,0.6,0.3,0.7,0.8c0,0.3-0.1,0.7-0.5,1l0,0l0,0c0,0,0.4,0.3,0.4,0.8
					c0,0.3-0.1,0.5-0.3,0.7l0,0l0,0C12.7,16.2,13.3,16.9,13.1,17.5L13.1,17.5z"/>
				<path class="st6" d="M13.1,17.5c-0.1,0.3-0.3,0.5-0.8,0.6h0l0,0c0,0,0.3,0.7,0.1,1.1c-0.1,0.3-0.4,0.4-0.8,0.5h0v0
					c0,0,0.1,0.7-0.3,1.1c-0.2,0.2-0.5,0.2-0.9,0.1h0l0,0c0,0-0.5,0.7-1,0.7h0c-0.3,0-0.6-0.2-0.9-0.7l0,0l0,0c0,0-0.3,0.4-0.7,0.5
					c-0.3,0.1-0.6,0-0.8-0.2c0,0,0,0,0,0c0,0,0,0,0,0c0.3,0.3,0.6,0.4,0.9,0.3c0,0.1,0,0.2,0,0.3c0,0.1-0.1,0.2-0.1,0.3
					c-0.2,0.4-0.7,1-0.8,1.2c-0.1,0-0.2-0.1-0.3-0.4c-0.1-0.3,0-0.4,0-0.4l0,0l0,0C6.2,22.3,6,22,6,22c-0.6-1.1,0.3-1.6,0.4-1.7l0,0
					v0c0,0,0.4-0.8,0.9-0.8c0.3,0,0.6,0.1,0.9,0.5l0,0l0,0c0,0,0.2-0.3,0.5-0.4c0.4-0.2,0.7-0.3,1.1,0l0,0v0c0,0,0.2-0.4,0.4-0.5
					c0.1,0,0.2,0,0.4,0.1l0.1,0l0-0.1c0,0-0.1-0.3,0-0.5c0-0.4,0.3-0.6,0.6-0.7h0l0,0c0,0-0.2-0.2-0.2-0.6c-0.1-0.4,0.1-0.8,0.4-1
					l0,0l0,0c0,0-0.4-0.4-0.4-0.9c0-0.3,0.1-0.5,0.4-0.7l0,0l0,0c0,0-0.4-0.4-0.3-0.9c0-0.2,0.1-0.4,0.3-0.6l0,0l0,0
					c0,0-0.6-0.5-0.5-1.1c0,0,0,0,0,0l0.1-0.2c0,0,0,0,0,0c0.1-0.2,0.2-0.4,0.5-0.5c0,0,0,0,0,0c0,0,0,0,0,0
					c-0.3,0.2-0.5,0.5-0.5,0.8v0c-0.1,0.2-0.3,0.3-0.4,0.3c-0.4,0-0.8-0.4-0.8-0.4l0,0v0.1c0,0-0.1,0.4-0.5,0.6
					c-0.3,0.1-0.7,0.1-1.2-0.2h0h0c0,0-0.4,0.4-0.9,0.5c-0.3,0-0.6-0.1-0.8-0.4h0h0c0,0-0.7,0.3-1.1,0c-0.2-0.1-0.4-0.3-0.4-0.6v0
					l0,0c0,0-0.5,0.2-0.9,0c-0.2-0.1-0.3-0.3-0.3-0.5l0,0c0,0,0,0,0,0v0h0c0,0,0,0,0,0l0,0c0,0,0,0.1-0.1,0.2c-0.1,0-0.2,0-0.5-0.3
					c0,0,0,0-0.1,0c0,0,0,0,0,0.1c0,0.1,0.1,0.1,0.1,0.2c0.2,0.3,0.3,0.5,0.2,0.7c0,0.2-0.2,0.3-0.6,0.5h0l0,0c0,0,0.4,1-0.2,1.4
					l0,0l0,0c0,0,0.3,0.3,0.2,0.6c0,0.2-0.2,0.3-0.4,0.4l0,0l0,0c0,0,0.4,0.4,0.4,0.8c0,0.2-0.1,0.4-0.4,0.6l0,0l0,0
					c0,0,0.7,0.5,0.3,1.3v0l0,0c0,0,0.6,0.4,0.4,0.8v0l0,0c0,0,0.6,0.3,0.8,0.7c0.1,0.2,0,0.4-0.1,0.7l0,0l0.4,0.8L3,20.6l0,0
					c0,0-0.6,0.2-1-0.1c-0.2-0.2-0.3-0.4-0.3-0.8v0h0c0,0-1-0.3-0.7-1.5v0l0,0c0,0-0.5-0.3-0.5-0.8c0-0.3,0.1-0.5,0.4-0.8l0,0l0,0
					c0,0-0.5-0.2-0.6-0.6c-0.1-0.3,0-0.6,0.3-1l0,0l0,0c0,0-0.4-0.3-0.3-0.7c0-0.2,0.2-0.3,0.5-0.4l0,0l0,0c0,0-0.4-0.4-0.4-0.8
					c0-0.2,0.2-0.4,0.5-0.6l0,0l0,0c0,0-0.4-0.5-0.3-0.9C0.7,11.2,1,11,1.4,11h0v0c0,0,0.2-0.9,0.7-1.2C2.4,9.6,2.8,9.7,3.2,10l0,0
					h0c0,0,0.7-0.3,1.2,0c0.2,0.1,0.4,0.4,0.5,0.8v0.1l0,0c0,0,0.3-0.4,0.7-0.3c0.2,0,0.4,0.2,0.6,0.5l0,0l0,0c0,0,0.3-0.3,0.7-0.3
					c0.2,0,0.4,0.1,0.5,0.3l0,0l0,0c0,0,0.2-0.2,0.5-0.4c0.4-0.2,0.8-0.2,1.1,0h0h0c0,0,0.5-0.7,1.3-0.4h0h0c0,0,0.8-0.5,1.3-0.2
					c0.3,0.2,0.5,0.6,0.5,1.3v0h0c0,0,0.3,0.2,0.4,0.6c0.1,0.3,0,0.6-0.2,0.9l0,0l0,0c0,0,0.6,0.3,0.7,0.8c0,0.3-0.1,0.7-0.5,1l0,0
					l0,0c0,0,0.4,0.3,0.4,0.8c0,0.3-0.1,0.5-0.3,0.7l0,0l0,0C12.7,16.2,13.3,16.9,13.1,17.5L13.1,17.5z"/>
				<path class="st7" d="M13.1,17.5c-0.1,0.3-0.3,0.5-0.8,0.6h0l0,0c0,0,0.3,0.7,0.1,1.1c-0.1,0.3-0.4,0.4-0.8,0.5h0v0
					c0,0,0.1,0.7-0.3,1.1c-0.2,0.2-0.5,0.2-0.9,0.1h0l0,0c0,0-0.5,0.7-1,0.7h0c-0.3,0-0.6-0.2-0.9-0.7l0,0l0,0c0,0-0.3,0.4-0.7,0.5
					c-0.3,0.1-0.6,0-0.8-0.2c0,0,0,0,0,0c0,0,0,0,0,0c0.3,0.3,0.6,0.4,0.9,0.3c0,0.1,0,0.2,0,0.3c0,0.1-0.1,0.2-0.1,0.3
					c-0.2,0.4-0.7,1-0.8,1.2c-0.1,0-0.2-0.1-0.3-0.4c-0.1-0.3,0-0.4,0-0.4l0,0l0,0C6.2,22.3,6,22,6,22c-0.6-1.1,0.3-1.6,0.4-1.7l0,0
					v0c0,0,0.4-0.8,0.9-0.8c0.3,0,0.6,0.1,0.9,0.5l0,0l0,0c0,0,0.2-0.3,0.5-0.4c0.4-0.2,0.7-0.3,1.1,0l0,0v0c0,0,0.2-0.4,0.4-0.5
					c0.1,0,0.2,0,0.4,0.1l0.1,0l0-0.1c0,0-0.1-0.3,0-0.5c0-0.4,0.3-0.6,0.6-0.7h0l0,0c0,0-0.2-0.2-0.2-0.6c-0.1-0.4,0.1-0.8,0.4-1
					l0,0l0,0c0,0-0.4-0.4-0.4-0.9c0-0.3,0.1-0.5,0.4-0.7l0,0l0,0c0,0-0.4-0.4-0.3-0.9c0-0.2,0.1-0.4,0.3-0.6l0,0l0,0
					c0,0-0.6-0.5-0.5-1.1c0,0,0,0,0,0l0.1-0.2c0,0,0,0,0,0c0.1-0.2,0.2-0.4,0.5-0.5c0,0,0,0,0,0c0,0,0,0,0,0
					c-0.3,0.2-0.5,0.5-0.5,0.8v0c-0.1,0.2-0.3,0.3-0.4,0.3c-0.4,0-0.8-0.4-0.8-0.4l0,0v0.1c0,0-0.1,0.4-0.5,0.6
					c-0.3,0.1-0.7,0.1-1.2-0.2h0h0c0,0-0.4,0.4-0.9,0.5c-0.3,0-0.6-0.1-0.8-0.4h0h0c0,0-0.7,0.3-1.1,0c-0.2-0.1-0.4-0.3-0.4-0.6v0
					l0,0c0,0-0.5,0.2-0.9,0c-0.2-0.1-0.3-0.3-0.3-0.5l0,0c0,0,0,0,0,0v0h0c0,0,0,0,0,0l0,0c0,0,0,0.1-0.1,0.2c-0.1,0-0.2,0-0.5-0.3
					c0,0,0,0-0.1,0c0,0,0,0,0,0.1c0,0.1,0.1,0.1,0.1,0.2c0.2,0.3,0.3,0.5,0.2,0.7c0,0.2-0.2,0.3-0.6,0.5h0l0,0c0,0,0.4,1-0.2,1.4
					l0,0l0,0c0,0,0.3,0.3,0.2,0.6c0,0.2-0.2,0.3-0.4,0.4l0,0l0,0c0,0,0.4,0.4,0.4,0.8c0,0.2-0.1,0.4-0.4,0.6l0,0l0,0
					c0,0,0.7,0.5,0.3,1.3v0l0,0c0,0,0.6,0.4,0.4,0.8v0l0,0c0,0,0.6,0.3,0.8,0.7c0.1,0.2,0,0.4-0.1,0.7l0,0l0.4,0.8L3,20.6l0,0
					c0,0-0.6,0.2-1-0.1c-0.2-0.2-0.3-0.4-0.3-0.8v0h0c0,0-1-0.3-0.7-1.5v0l0,0c0,0-0.5-0.3-0.5-0.8c0-0.3,0.1-0.5,0.4-0.8l0,0l0,0
					c0,0-0.5-0.2-0.6-0.6c-0.1-0.3,0-0.6,0.3-1l0,0l0,0c0,0-0.4-0.3-0.3-0.7c0-0.2,0.2-0.3,0.5-0.4l0,0l0,0c0,0-0.4-0.4-0.4-0.8
					c0-0.2,0.2-0.4,0.5-0.6l0,0l0,0c0,0-0.4-0.5-0.3-0.9C0.7,11.2,1,11,1.4,11h0v0c0,0,0.2-0.9,0.7-1.2C2.4,9.6,2.8,9.7,3.2,10l0,0
					h0c0,0,0.7-0.3,1.2,0c0.2,0.1,0.4,0.4,0.5,0.8v0.1l0,0c0,0,0.3-0.4,0.7-0.3c0.2,0,0.4,0.2,0.6,0.5l0,0l0,0c0,0,0.3-0.3,0.7-0.3
					c0.2,0,0.4,0.1,0.5,0.3l0,0l0,0c0,0,0.2-0.2,0.5-0.4c0.4-0.2,0.8-0.2,1.1,0h0h0c0,0,0.5-0.7,1.3-0.4h0h0c0,0,0.8-0.5,1.3-0.2
					c0.3,0.2,0.5,0.6,0.5,1.3v0h0c0,0,0.3,0.2,0.4,0.6c0.1,0.3,0,0.6-0.2,0.9l0,0l0,0c0,0,0.6,0.3,0.7,0.8c0,0.3-0.1,0.7-0.5,1l0,0
					l0,0c0,0,0.4,0.3,0.4,0.8c0,0.3-0.1,0.5-0.3,0.7l0,0l0,0C12.7,16.2,13.3,16.9,13.1,17.5L13.1,17.5z"/>
			</g>
		</g>
	</g>
</g>
</svg>
