<?xml version="1.0" encoding="UTF-8"?>
<svg id="Who_is_at_risk" data-name="Who is at risk" xmlns="http://www.w3.org/2000/svg" viewBox="0 0 32 32">
  <defs>
    <style>
      .cls-1 {
        fill: #fff;
      }

      .cls-2 {
        fill: #f2bf56;
      }

      .cls-3 {
        fill: #cab19a;
      }

      .cls-4 {
        fill: #3f3e44;
      }

      .cls-5 {
        fill: #9a9999;
      }
    </style>
  </defs>
  <path class="cls-1" d="m4.8,15.01s.07-.1.08-.16c.06-1.06.81-11.15,7.09-13.36,3.5-1.23,6.32-.3,8.32,2.7.95,1.43,1.07,3.64,1.3,4.18.06.13.21.19.34.12,1.12-.57,5.88-2.88,7.75-1.47,2.12,1.6,3.89,11.73-2.95,15.75-2.43,1.42-5.8,1.34-7.54-.15-1.18-1.01-1.97-2.33-2.31-3.21-.18-.48-1.17-.56-1.58.79-.9,2.95-2.15,8.34-6.83,9.06-6.23.97-12.44-6.02-3.65-14.25Z"/>
  <g>
    <path class="cls-3" d="m20.72,16.83c-.25-.17-.48-.38-.64-.62-.29-.43-.32-.97-.26-1.47.09-.73.63-1.53.68-1.62.89-1.32,2.05-2.15,2.21-2.27.87-.64,2.35-1.55,4.49-2.18.13-.04.4-.08.49.05.19.28-.37.7-.54.85-.99.87-1.76,1.97-2.26,3.18-.16.38-.3.77-.47,1.15-.21.47-.35.97-.51,1.46-.28.86-.86,1.57-1.76,1.81-.52.14-.99-.04-1.43-.33Z"/>
    <path class="cls-3" d="m24.65,19.25c.26.15.55.26.84.29.52.06,1.01-.15,1.43-.43.61-.41,1.09-1.25,1.14-1.34.78-1.39,1-2.8,1.03-2.99.17-1.06.32-2.8-.08-4.99-.02-.13-.11-.39-.26-.42-.33-.05-.46.65-.51.86-.33,1.27-.96,2.46-1.82,3.46-.27.31-.55.61-.81.93-.32.4-.71.75-1.07,1.11-.64.63-1.01,1.48-.82,2.39.11.53.48.87.94,1.13Z"/>
    <path class="cls-3" d="m18.74,19.13c-.06-.22-.05-.46.06-.69.15-.32.44-.54.77-.63,1.05-.28,1.78.09,1.62.54-.16.45-.25.66-.25.66-.08.19-.07.4-.12.6s-.16.4-.29.57c-.19.23-.44.32-.71.18-.46-.24-.95-.71-1.08-1.23Z"/>
    <path class="cls-3" d="m23.5,22.05c.22-.05.43-.16.59-.36.22-.27.28-.63.21-.97-.22-1.07-.89-1.54-1.22-1.2s-.47.52-.47.52c-.13.16-.33.24-.48.38s-.29.32-.37.52c-.12.27-.09.54.16.71.42.3,1.06.53,1.59.41Z"/>
  </g>
  <path class="cls-4" d="m5.73,17.03c.63-.85,1.16-1.71,1.45-2.56,0,0,4.69-10.87,8.5-9.1s-1.82,12.04-1.82,12.04c-.61.83-1.06,1.87-1.38,3.08,0,0-3.26,1.42-5.17.26s-1.59-3.71-1.59-3.71Z"/>
  <path class="cls-5" d="m19.62,7.41l.02.6h0c0,.09-.02.18-.08.25.04.08.06.16.05.24-.02.1-.13.5-.21.55-.02.01-.06.06-.08.1.03.03.04.05.06.08.06.09.07.19.04.29l-.16.57c-.02.07-.05.13-.11.18.01.06,0,.13-.02.19l-.18.46c-.03.07-.08.15-.14.2,0,.07,0,.14-.04.21-.04.08-.25.41-.33.44,0,0,0,0-.02.01,0,0-.03.02-.05.03.01,0,.01.03.02.05.03.1.02.2-.03.28l-.27.49c-.03.06-.07.1-.13.14,0,.04-.02.08-.03.12-.08.16-.17.3-.27.45-.04.05-.09.11-.16.14,0,.07-.02.13-.06.19-.06.07-.28.33-.39.36,0,0-.04.01-.06.01h0s0,.03.01.05c.02.09,0,.19-.06.27l-.21.29s-.03.02-.04.03c-.06.06-.12.13-.2.16,0,.08-.03.15-.08.22l-.33.41s-.09.08-.13.1c0,.05-.03.1-.07.14-.06.07-.29.29-.4.33,0,0-.04.01-.07.02v.04c.02.09-.02.19-.09.27l-.27.3s-.02.02-.03.02c-.05.05-.1.1-.17.12-.02.07-.04.13-.09.18-.07.07-.28.27-.41.31,0,.01-.22.06-.26.08-.09.04-.18.05-.22.02l-.96-1.02h-.01s-.06-.09-.06-.09h0s0-.07,0-.1c-.01-.03-.02-.06-.02-.1,0-.02-.01-.03,0-.04l-.2-.02-.43-.51c-.09-.09-.08-.23-.04-.34,0-.02-.01-.04,0-.05l-.46-.81c-.07-.11-.08-.42-.02-.52l.19-.38c.04-.09.18-.27.28-.31,0,0,.13-.04.17-.05.08-.02.16-.05.21-.01.05.05.17.19.29.35.01.02.02.04.04.07.12.16.24.35.34.49.02-.02.04-.05.05-.06h0s0-.01,0-.01l-.78-1.1c-.08-.11-.12-.4-.06-.52l.37-.77c.06-.07.16-.16.26-.2.02-.01.05-.01.07-.01.12,0,.27,0,.34.1l.77,1.1s.01,0,.01.02c.02.03.04.07.07.12.03-.03.08-.05.12-.08-.04-.02-.08-.05-.12-.08l.29-.22-.31.19-.97-1.38c-.08-.11-.11-.43-.04-.56l.29-.62c.05-.08.2-.25.32-.29,0,0,.03-.01.04-.01.12,0,.31-.08.38.02l1.03,1.49s.05.1.06.18c.02-.01.04-.01.07-.01-.07-.1-.08-.23-.03-.33,0-.02,0-.03.02-.05-.08,0-.16-.01-.21-.07-.01,0-1.08-1.54-1.08-1.54-.08-.11-.11-.42-.04-.55l.24-.5c.04-.1.19-.29.31-.33t.02-.01c.12-.02.3-.11.38-.02l.43.57s.05.07.12.16l.53.76v.02s.02.04.02.04c0,0,.04-.02.06-.03,0,0,0,0,0-.02.03-.01.06-.02.09-.04,0,0,.02-.01.02-.01-.07-.09-.09-.19-.07-.31.02-.07.06-.15.12-.22-.03.03-.08.05-.11.07,0,0,0,.01-.02.01t-.02.01c-.13.03-.28.05-.36-.05l.27-.24-.28.23-.9-1.28c-.08-.11-.1-.39-.04-.51l.2-.43c.04-.09.2-.29.31-.33,0,0,.15-.06.19-.07h0s.05-.01.05-.01c-.03-.03-.05-.07-.08-.12,0,0-.01,0-.02,0-.11,0-.2-.06-.27-.15-.01,0-.04,0-.04-.02-.03.02-.07.03-.11.05,0,0,0,0,0,.01,0,0,0,.01-.02.01-.04.01-.08.01-.12,0h0c.12.13.21.26.17.34l-.36.75c-.04.09-.19.22-.27.26-.03,0-1.74.22-1.74.22-.12,0-.29-.03-.37-.13-.02-.02-.04-.05-.06-.08,0,.02-.03.03-.04.05-.05.04-.1.08-.15.1-.03,0-.07.01-.1.02.01,0,0,.03,0,.04.01.03.01.05.01.07,0,.03.01.06.02.09h0s1.53-.2,1.53-.2l.27-.02c.06,0,.13-.02.14-.02.11.01.23.09.28.18.06.11.07.23.03.33l-.33.7c-.04.09-.22.26-.31.3-.03.01-1.92.24-1.92.24-.12.02-.3-.03-.39-.12t-.01,0c-.03.09-.13.22-.22.27.02,0,1.09-.13,1.66-.2.21-.02.36-.04.36-.04.13,0,.25.04.33.15.08.1.09.23.04.36l-.43.9c-.03.09-.19.23-.28.27-.03.01-1.86.22-1.86.22-.11-.01-.28-.08-.33-.17-.01-.02-.03-.04-.03-.06,0,0-.02,0-.03.01,0,0-.02.01-.04.02h-.07s0,.02.01.03c.04.04.04.07.08.12.04.06.11.11.11.15l1.63-.19c.11,0,.23.04.31.12.08.09.1.21.08.33,0,0-.15.36-.16.37l-.26.55c-.04.08-.2.23-.28.26-.03.01-1.53.19-1.53.19-.04,0-.09-.02-.15-.05-.02.05-.04.1-.07.15l1.21-.14c.12-.02.23.04.31.12.08.09.1.2.08.33l-.15.36c-.04.09-.32.51-.42.55-.02,0-1.16.18-1.16.18h0s-.04-.03-.06-.04c0,.01-.02.01-.02.02-.05.14-.15.31-.29.35-.02.01-.76,0-.76,0-.07,0-.18-.02-.29-.06,0,.01-.03.01-.06.02v.02s-.04,0-.04,0c0,0-.02.01-.02.01l-1.41-.08c-.1-.01-.34-.31-.34-.41.01-.1.11-.47.19-.52.03-.02.07-.07.1-.14-.07-.07-.17-.15-.15-.22l.09-.53c.02-.06.03-.11.07-.15-.01-.06-.02-.11-.01-.17l.08-.38h0c.02-.06.06-.1.1-.17.03-.05.03-.11.07-.13-.04-.06-.08-.12-.07-.16l.09-.38c.02-.08.07-.19.13-.26-.01-.06-.03-.12-.01-.18,0,0,.08-.34.08-.35.02-.08.1-.23.17-.29-.03-.08-.04-.17-.02-.25l.16-.51c.03-.05.05-.1.09-.15,0-.04,0-.09.01-.13,0,0,.12-.34.12-.35.03-.08.12-.22.19-.28-.01-.06-.02-.13,0-.19.04-.17.11-.32.19-.48.03-.08.11-.18.2-.22-.03-.06-.05-.13-.02-.17l.25-.51c.03-.06.06-.1.11-.14,0-.06.01-.12.05-.18.03-.05.12-.17.22-.28.04-.04.06-.05.08-.09.05-.05.09-.11.13-.14h0c-.03-.11,0-.21.04-.28.12-.18.23-.34.36-.51.04-.05.09-.1.16-.12,0-.04.02-.09.05-.13.08-.14.2-.24.3-.36.06-.05.17-.14.27-.17,0-.01.03-.01.04-.01.01-.1.06-.19.12-.25.26-.23.39-.34.57-.45,0-.01.03-.02.05-.02h0s.07-.01.08-.02c.04-.08.09-.16.17-.19,0,0,.62-.35.64-.35.03-.01.06-.01.09-.02.05,0,.1,0,.15.02.02-.06.05-.1.1-.13l.53-.17c.1-.02.3-.03.38.03,0,0,.02-.01.03-.02.04-.05.09-.1.16-.12l.77-.05c.09,0,.18.02.25.08.02-.01.05-.02.07-.03.05-.01.12-.02.17-.01.1.01.51.13.56.22h.02s.06.06.11.1c0-.01.03-.02.05-.03,0-.01,0-.02.02-.02.03-.02.05-.03.08-.03.06-.02.13-.03.2-.01.29.07.56.15.83.32.06.04.11.09.13.15.1,0,.19.02.27.07l.55.42c.07.06.13.14.14.24.04,0,.08.02.12.05.18.12.47.5.55.67.03.06.04.12.04.17.08.03.15.09.19.17.11.21.21.42.31.65.03.08.04.17.02.25.06.05.1.11.12.18,0,0,.01,0,.01,0,0,0,.11.49.11.5.03.1.02.28-.04.37h0c.07.07.12.17.12.27Z"/>
  <path class="cls-5" d="m12.73,20.64c.06.09.07.19.05.29-.02.09-.15.44-.25.49-.02.01-.05.04-.08.07.06.09.12.19.09.28l-.14.52c-.03.07-.06.13-.11.18,0,.05,0,.11-.02.16l-.2.51c-.02.06-.05.11-.11.16.01.06,0,.13-.03.18-.04.09-.24.42-.34.45h0s-.05.03-.07.04c.01.03.02.05.03.08.03.1.01.2-.04.29l-.3.48c-.04.07-.09.12-.17.15,0,.08-.03.15-.08.22l-.4.49c-.05.06-.1.1-.16.12-.02,0-.04.01-.06.01-.02.06-.04.11-.09.17-.21.22-.41.39-.62.5-.02.01-.04.02-.06.02-.05.02-.1.03-.15.02-.03.05-.05.09-.1.14-.14.12-.53.28-.7.34-.02,0-.13.04-.15.04-.08.01-.16,0-.23-.04-.04.05-.08.1-.14.12,0,0-.04.01-.04.01-.2.06-.67.1-.9.08-.09-.01-.16-.05-.22-.11-.03.02-.06.03-.09.05-.04.01-.07.01-.11.02-.25,0-.73-.12-.94-.25-.03-.02-.06-.05-.08-.07-.08.01-.16,0-.23-.04l.16-.32-.32.25c-.15-.07-.32-.15-.47-.25-.05-.05-.1-.09-.13-.16-.07,0-.14-.02-.2-.06-.21-.14-.43-.3-.62-.52-.05-.07-.08-.15-.08-.23-.08,0-.15-.05-.21-.11-.18-.2-.31-.41-.43-.62-.05-.09-.07-.24-.04-.33,0,0,0-.02,0-.03t-.02,0c-.08-.03-.16-.11-.18-.2-.1-.24-.16-.51-.2-.81-.01-.08.01-.16.05-.22-.06-.08-.11-.17-.11-.26l.04-.69c0-.09.03-.17.09-.23-.02-.06-.03-.12-.02-.18.02-.2.07-.39.12-.59.03-.07.07-.16.14-.23-.02-.08-.03-.16,0-.23l.21-.56c.03-.06.06-.11.12-.16,0-.06,0-.13.03-.18.04-.07.13-.19.23-.31.03-.03.04-.05.07-.08.04-.04.06-.08.1-.12,0,0-.01-.02-.01-.03-.03-.1-.01-.2.03-.28.05-.08.27-.38.37-.4,0,0,.02-.01.04-.02,0,0,.03-.01.04-.02-.01,0-.01-.03-.01-.05-.03-.1,0-.2.05-.28l.32-.44c.03-.05.07-.08.12-.12,0-.04.02-.09.05-.13.11-.17.22-.31.35-.45.05-.06.11-.11.19-.13.03-.01.05-.01.08-.01.1,0,.21,0,.29.07l1.07,1.02s0,.02.01.03l.03.03h0s.71.7.71.7c.04.04.08.1.1.15h.04c.12.01.23.08.28.18l-.07.6.68-.22s.06-.02.06.04c.02.15.09.57.1.64.04-.03.74-.34.76-.34.11,0,.21.05.28.13.01,0,.02.03.03.04h.02s0,0,.02,0l1.06.16h0s.09.01.09.01l1.45.29c.1.01.19.08.24.16Z"/>
  <ellipse class="cls-2" cx="9.92" cy="16.96" rx=".5" ry="1.19" transform="translate(-9.65 18.71) rotate(-64.8)"/>
</svg>