<?xml version="1.0" encoding="UTF-8"?><svg id="Who_is_at_risk" xmlns="http://www.w3.org/2000/svg" viewBox="0 0 32 32"><defs><style>.cls-1{fill:#fff;}.cls-2{fill:#d99898;}.cls-3{fill:#c98c8c;}.cls-4{fill:#5b798c;}.cls-5{fill:#77a8c7;}.cls-6{fill:#82b7d9;}</style></defs><g id="ic_heart"><path class="cls-1" d="M7.87,20.48s-3.92-3.28-3.64-5.38,.49-2.64-1.09-4.07-1.21-2.61-.28-3.85c.61-.8,.72-2.72,2.07-1.58,1.13,.94,1.62,1.27,1.47,.48s-1.48-1.96,.89-2.89c2.38-.99,2.51-1.06,3.21,.51s1.51,1.69,1.39,.49c-.16-1.56-1.21-2.36,.65-2.95s3.75-.63,2.99,2.13,.56,1.11,.56,1.11c0,0,1.41-1.97,2.38-.58,.48,.68,.06,1.3,1.97,1.6,.46,.07,1.08,.36,1.63-.52s1.8-.78,2.92-.25c1.25,.63,1.36,1.39,1.93,1.75,.51,.33,1.04-.06,2.12,.92,1.09,1.1,1.36,2.55-.12,3.41-1.58,1.2-1.76,1.41-1.76,1.41,0,0,.96,1.73,1.15,3.25,.54,3.65,.33,10.41-4.14,14.89-1.57,1.27-5.5,.61-8.27-.94-4.43-2.49-6.93-5.56-8.03-8.93Z"/><path class="cls-4" d="M23.41,9.62c.71-1.04,1.78-2.35,2.13-2.77,.07-.09,.12-.2,.11-.31-.05-1.05-1.55-1.54-2.48-1.37-.7,.13-1.92,2.39-2.54,4,0,0,1.12,.1,1.69,.2s1.08,.25,1.08,.25Z"/><path class="cls-4" d="M26.39,11.78c1.09-.83,2.27-1.89,2.64-2.24,.08-.07,.11-.18,.09-.29-.33-1.69-1.47-1.82-1.95-1.79-.13,0-.25,.04-.37,.1-1.32,.7-2.04,1.6-2.45,2.34,0,0,.76,.41,1.18,.84s.86,1.03,.86,1.03Z"/><path class="cls-6" d="M7.65,18.48s-2.58-2.33-2.22-3.75c.35-1.42,.86-1.9-1.95-4.83,0,0-.86-.85-.25-1.67s.6-1.51,.97-1.78c.36-.28,.71,.75,2.21,1.54,1.49,.79,1.81,.04,1.07-1.9,0,0-1.31-1.53-.25-1.97,1.07-.44,1.93-1.5,2.63,.1s2.42,2.61,2.82,.87c.4-1.74-.86-2.75-.14-3.08,.73-.33,3.09-.95,2.16,1.17-.67,1.53-.1,2.8,.18,3.27,.07,.12,.02,.26-.09,.33-1.98,1.25-2.61,2.33-2.79,3.12-.06,.26-.17,.92-.64,1.62-.38,.56-.77,.83-1.13,1.12-.28,.22-1.97,1.6-2.51,3.4-.15,.49-.3,1.32-.05,2.46Z"/><path class="cls-2" d="M18.57,9.33c-.27-.07-.56-.09-.87-.09h0c-.24-.6,2.22-2.46,2.22-2.46,.94-.83-1.23-.66-1.62-.96-.39-.3-.35-1.25-.8-1.09s-1.15,1.9-2.65,2.99c-1.5,1.09-2.09,2.51-2.09,2.51-.2,1.58-1.57,2.84-1.94,3.04-.36,.2-1.11,.88-2.02,2.63-.91,1.75,.54,4.31,.54,4.31,2.34,6.22,9.12,10.29,12.95,9.57,3.41-.65,6.41-10.2,4.57-15.56-1.83-5.35-4.97-4.02-8.29-4.9Z"/><path class="cls-3" d="M26.8,22.84s-1.33,4.89-3.07,6.15c-1.51,1.21-2.1,.89-3.76,.74s-5.41-2.22-7.36-4.39-2.53-3.17-3.26-5.11c0,0-1.89-3.79,.12-4.06s3.46,2.87,4.67,3.87c1.11,1.34,2.71,2.57,5.25,2.46,2.54-.11,3.73-1.14,6.23-1,1.73,.03,1.18,1.35,1.18,1.35Z"/><path class="cls-5" d="M11.98,9.89c-.06,.26-.17,.92-.64,1.62-.38,.56-.77,.83-1.13,1.12-.28,.22-1.97,1.6-2.51,3.4-.15,.49-.3,1.32-.05,2.46,0,0-2.58-2.33-2.22-3.75,.35-1.42,1.15-2.19,3.12-2.95,.87-.34,1.5-.94,1.94-1.72s1.67-.97,1.49-.18Z"/></g></svg>