<?xml version="1.0" encoding="utf-8"?>
<!-- Generator: Adobe Illustrator 27.9.0, SVG Export Plug-In . SVG Version: 6.00 Build 0)  -->
<svg version="1.1" id="Where_is_found" xmlns="http://www.w3.org/2000/svg" xmlns:xlink="http://www.w3.org/1999/xlink" x="0px"
	 y="0px" viewBox="0 0 32 32" style="enable-background:new 0 0 32 32;" xml:space="preserve">
<style type="text/css">
	.st0{fill:#FFFFFF;}
	.st1{fill:#FFFFFF;stroke:#FFFFFF;stroke-width:0.5386;stroke-linecap:round;stroke-linejoin:round;stroke-miterlimit:10;}
	.st2{fill:#9C6040;}
	.st3{fill:#303031;}
	.st4{fill:#D99998;}
</style>
<g id="ic_Oozing_skin_lesions_fistulous_withers">
	<g>
		<path class="st0" d="M11.3,9.2c-0.2,0-0.4,0-0.6,0.1C10.9,9.2,11.1,9.2,11.3,9.2C11.3,9.2,11.3,9.2,11.3,9.2L11.3,9.2z"/>
		<path class="st1" d="M10.6,23.1c-5.2-2.3-8.9-5-9.7-9.8c-0.4-2.6,1.3-5.9,1.3-5.9c2.5,1.4,3.5,1,6.2,0.8c2.3-0.2,2.8,0.8,2.9,1.1
			c-0.2,0-0.4,0.1-0.6,0.1c0.2-0.1,0.5-0.1,0.6-0.1c0,0,0,0,0-0.1c4.1-0.8,7.1,1.6,9.9,3.7c3,2.2,7.9,4.1,8.7,4.1
			C34.6,16.8,24.1,29.1,10.6,23.1L10.6,23.1z"/>
		<path class="st0" d="M11.3,9.2c-0.2,0-0.4,0-0.6,0.1C10.9,9.2,11.1,9.2,11.3,9.2C11.3,9.2,11.3,9.2,11.3,9.2L11.3,9.2z"/>
	</g>
	<path class="st2" d="M28.5,17.4c-0.8,0-5.4-1.7-8.1-3.8s-5.6-4.4-9.7-3.3c-4.1,1.1-8.2,0.9-8.2,0.9s-2.8,6,8.7,11
		C22.7,27.2,32.7,17.3,28.5,17.4L28.5,17.4z"/>
	<path class="st3" d="M2.7,8.4c0,0-1,2.4-0.7,3.8s7.6-2.2,9.2-2.1c0,0-0.2-1.2-2.7-1C6,9.3,5.1,9.7,2.7,8.4z"/>
</g>
<path class="st4" d="M16.7,11.4c-1.5-0.9-3.3-1.4-5.2-1S11,12.7,13.1,13C15.2,13.3,17.4,11.7,16.7,11.4z"/>
</svg>
