<?xml version="1.0" encoding="UTF-8"?>
<svg id="Livello_1" data-name="Livello 1" xmlns="http://www.w3.org/2000/svg" version="1.1" viewBox="0 0 70.3 63.3">
  <defs>
    <style>
      .cls-1 {
        fill: none;
        stroke: #5c5c5c;
        stroke-dasharray: 0 0 0 0 0 0 1.7 1.2;
        stroke-miterlimit: 10;
        stroke-width: .3px;
      }

      .cls-2 {
        fill: #fff;
        stroke-width: 0px;
      }
    </style>
  </defs>
  <g>
    <path class="cls-2" d="M63.8,20.9l-1,.4s-.6.1-1.3.1c-.7,0-1.6-.5-1.6-.5l-.9-.7s-4-4.6-11.2-3.7c-1.8.2-4.4,1.2-4.4,1.2,0,0-2.1.5-4.6.1-2.5-.4-5.1-1.4-7.6-1.5-2.5,0-7.7-3.2-10.2-5.4,0,0,1-2.6.4-2.5-.5.2-1-.2-2.5.4,0,0-.2-.5-.2-.9,0-.4,0-.5,0-.8,0-.3-1.9,0-2.8,1.4,0,0-2.7.2-3.6,1.7-.4.6-1.2,1-1.6,1.1-.5,0-1.4.9-1.4.9,0,0-2.9,1.4-5.4.4,0-.2-.1-.6-.5-.6,0,0,0,0,0,0,0,0,0,0,0,0-.3,0-.6,0-.8.6,0,0,0,0,0,0,0,0,0,.1,0,.2,0,0,0,0,0,0,0,0,0,0,0,0,0,.3-.2.7-.2,1.3,0,.5-.1.9-.1,1,0,0,0,0,0,0,0,.2-.1.8-.2,1.2,0,.1,0,.2,0,.3,0,0,0,0,0,0,0,0,0,0,0,0,0,0,0,0,0,0,0,0,0,0,0,0,0,.2,0,.4.4.4,0,0,0,0,0,0,0,0,0,0,.1.1.3.4,1.3,1.6,2.3,3.2,1.3,2.1,3.3,4.3,5.1,5.3,1.8,1,2.3,1.1,3.2,2.7.9,1.7,2.8,2.1,2.8,2.1,0,0,1.6,3.2,3.7,4.8,2.1,1.6,1.6,5.3,1.6,5.3,0,0,0,2.8-.2,3.8,0,1-.7,3.2-2.5,4.7-.3.3-.4.4-.4.8,0,0-1.4,1.2-1.3,1.5,0,.3,1.6,1.3,3.5.5,1.9-.8,1.8-2,1.8-2,0,0,.3.5.3.7,0,.2,1.2-.6,1.4-3.2,0,0,2.4-2.7,3.4-6.7,0,.4,1.4,1.9,1.4,3.2,0,0,.5,2.7-.3,4.5-.3.7-.5,1.2-.2,1.3,0,0-1,1.1-1,1.3,0,.2,2.2,1,3.3.3,1-.6,1.1-1.9,1.1-1.9l.2.6.2.5s.6-.5.9-2.4c0,0,.2-1.3-.3-2.9,0,0,.3-6,0-6.4.3,0,.6.2.8.3.3.1.6.2.9.4.3.2.7.4,1.1.6.3.1.6.3.9.4,2.6,1.1,6.3,1.6,12.3-.4.7-.2,1.1-.4,1.5-.5,0,0,0,0,0,0,.1,0,.3-.1.4-.2,0,0,.1,0,.2,0h0s.8,1.3,1.2,2.4c.4,1.1-.1,1.9-.1,1.9,0,0-2.1,3-3.1,3.7-1,.7-.8,1.2-.8,1.2l-2.5,1.8s-1,.6,0,.9,3.1.3,3.1.3c0,0,.7.2,1.5-.6.7-.8,1.1-1.2,1.1-1.2,0,0-.2.7-.1.9,0,.2.8.5,1.7-1.4.9-1.9,1.7-2.1,1.7-2.1,0,0,1.1-1.3,1.4-1.8.2-.5,1.3-1.3,1.3-1.3,0,0,.8-1,.9-1.5,0,0-.4-.3-1.3-1.3.8.7,1.5,1.2,1.5,1.1,0,0,1.2,1.4.6,4.7-.7,3.3-.9,3.2-.9,3.2,0,0-.5.7,0,.6l-1.3,1.6s-.7.6.3.7c1,.1,2.7,0,3.3-.2.5-.3,1.2-1,1.2-1.5,0,0,1.1-.6,1.4-1.3.2-.2,0-1,0-1,0,0,.3-.2,0-.7-.3-.5,0-2.3,0-2.3l1-5.7s.5-1-.7-2c-1.2-1-2.1-3.4-2.1-3.4,0,0-.4-1.1,0-2.8.4-1.7,3.1-3.9.2-10.1,0,0,2.4,0,3.2-1.8ZM28,38.8c.2-.3.3-.6.5-.9,0,0-.3.4-.5.9Z"/>
    <path class="cls-2" d="M65.3,18c-.3-.1-.5-.1-1.3.9-2.3,2.8-3.4,1-3.4,1,0,0-.9-1.6.8-2,1.6-.4,1.5,1.9,1.5,1.9l.9-1s.2-1.8-2.2-2.1c-2.4-.3-2.5,2-2.5,2,0,0,0,1.8,1.4,2.2,1.4.4,2.8.3,4-.9,1.2-1.3,1.1-1.9.8-2.1Z"/>
  </g>
  <path class="cls-1" d="M4.7,14.6s3.1.6,4.6,0,5.6-4,7.4-3.5c5.4,1.5,6.5,6.1,12,6.9s10.8,1.8,14.9,1.7,7.9-1.9,11.8.5,5.3,5.5,4.7,8.8-1.8,7.8-.7,9,2.4,2.9,2.5,4.8-.4,6.5-.9,6.9-2.9,2.7-2.5,2,1.8-8.5.8-9.8-3.2-2.6-3.3-1.9-.1,2.9-1.1,4.5-3.7,3.5-3.9,4.6-3.5,1.3-2.7.7,4.8-5.3,4.7-7-.4-4.8-1.7-5.3-4.1,2.4-9.7,2.3-7.9-2.7-7.9-2.7c0,0-2.7-1.7-2.2-.3.9,2.5,0,9.2-.2,10.1s-.8,2.8-1.4,2.4.6-2.1-.2-4.6-2.6-6.2-3.1-6.4.1,2.7-1.4,5.6-3.2,5.2-3.2,5.2l-2,.8s1.9-3.3,2.7-7.4.5-6.5-.3-8.2c0,0-4.2-4.6-7.9-7.7s-3.9-1.6-4.8-2.4c-3.6-3.1-4.8-5.9-5.2-6.6s.4-3,.4-3Z"/>
</svg>