<?xml version="1.0" encoding="UTF-8"?>
<svg id="Livello_1" data-name="Livello 1" xmlns="http://www.w3.org/2000/svg" version="1.1" viewBox="0 0 189 191.7">
  <defs>
    <style>
      .cls-1 {
        fill: #ecd1c3;
      }

      .cls-1, .cls-2, .cls-3, .cls-4, .cls-5, .cls-6, .cls-7, .cls-8, .cls-9 {
        stroke-width: 0px;
      }

      .cls-2 {
        fill: #de6767;
      }

      .cls-3 {
        fill: #000;
      }

      .cls-4 {
        fill: #f6d9ce;
      }

      .cls-5 {
        fill: #d9b5a3;
      }

      .cls-6 {
        fill: #dc9a8f;
      }

      .cls-10 {
        fill: none;
        stroke-linecap: round;
        stroke-linejoin: bevel;
        stroke-width: 5.1px;
      }

      .cls-10, .cls-11, .cls-12 {
        stroke: #fff;
      }

      .cls-11 {
        stroke-width: .8px;
      }

      .cls-11, .cls-12 {
        fill: #fff;
        stroke-miterlimit: 10;
      }

      .cls-7 {
        fill: #967368;
      }

      .cls-8 {
        fill: #e5b5a3;
      }

      .cls-9 {
        fill: #c9a99b;
      }

      .cls-12 {
        stroke-width: .9px;
      }
    </style>
  </defs>
  <g>
    <path class="cls-10" d="M161.5,118.7c-2.5,2.5-.8,4.2-.8,4.2,5.9,6.7.8,15.1.8,15.1,0,.8-.8,2.5.8,3.4,1.7.8,2.5-.8,2.5-.8,0-.8,6.7-11.7-.8-20.9,0,0-.8-1.7-2.5-.8Z"/>
    <path class="cls-10" d="M168.2,116.2s-.7-.3-1.7-.4c0,0,0,0,0,0-.5,0-1,0-1.6.4-1.7,1.7,0,3.4,0,3.4,6.7,5,4.2,14.2,3.4,15.1,0,0-.8,2.5,1.7,3.4,1.7.8,2.5-.8,3.4-1.7,0,0,4.2-12.6-5-20.1Z"/>
    <path class="cls-10" d="M44.6,120.8c-1.9-.7-2.6,1.3-2.6,1.3.1.9-5.6,13.7,3.8,22.7,0,0,1.1,1.7,2.9.6,2.4-3.1.3-4.7.3-4.7-7.3-6.5-3-16.3-3-16.3-.1-.9.6-2.9-1.4-3.5Z"/>
    <path class="cls-10" d="M43.6,149.1s0,0,0,0c.5,0,1.1-.2,1.7-.6,1.6-2.1-.5-3.6-.5-3.6-8-4.5-6.5-14.9-5.8-15.9,0,0,.6-2.9-2.3-3.4-1.9-.7-2.6,1.3-3.4,2.3,0,0-2.8,14.3,8.3,21.2,0,0,.8.3,1.9.2Z"/>
    <path class="cls-10" d="M177.9,33.3c3.7-3.9,3.4-6,2.4-6.4-1.1-.4-1.5-.4-4.1,2.8-7.1,8.6-10.7,3.1-10.7,3.1,0,0-2.7-5,2.4-6.2,5.1-1.1,4.6,5.8,4.6,5.8l2.8-3s.6-5.5-6.9-6.5c-7.5-1-7.6,6.2-7.6,6.2,0,0,0,2.2,1.1,4.2-11.4-10.3-27.9-14.1-37.5-10.8-6.5,2.2-12.9,4.6-19.1,6.9-.2-1.2-.3-2.3-.4-3.5-.6-5.8.6-8,.1-10-.6-2.6-7.1.6-11.2,2.3-5,2.2-7.7,3.4-7.7,3.4-5.2,4.2-5.2,11.4-8.1,14.5-2.8,3.1-4.7.2-15.6,2.4-15.4,3.1-15.9,5.6-18.4,4.2-4.3-2.3-7.6-6.8-13.3-7.6s-19.6.2-19.9,2.6c-.3,2.4,4.1,7.1,5.1,11,5.4,20.9,11.4,20.7,12.9,21.4.9.4,6.7,1.1,9.8,3.8,0,0,0,.3.1.8-.8,5.8-1.7,14.7-.7,21.2,2.8,18.3,5.9,17.6,8,20.8,2.1,3.2,6.7,7.1,6.7,15.9s-6.2,24.2-6.4,25.2c-.6,2.8-2,3.3-2.2,3.7-9.5,25.8,10.9,15.5,14.2,9.8,0,0,4.7-13,6.2-15.9,1.5-2.9,5.6-18,3.9-23.5s-.1-10.5-.1-10.5c8.1,3.9,12.8,1.2,13.6,2.7,0,0-1.9,14.5-2,16.4,0,2,3.6,21.4,3.6,21.4,0,0-6.3,12.6-.2,17.6,1.6,1.3,5.5,1.8,8.5,2.5,12.3,2.8,2.5-22.9,2.5-22.9,0,0-.8-6.7-.8-12.7,0-5.9,1.9-13.9,4.7-19.4,2.8-5.5,4.1-3.7,8-6.5.8-.6,1.8-.9,3.1-1.1.5,5.7-2,11.8-3,13-1.2,1.3-1.2,9.6-2.2,11.5-1.1,1.8-8.8,18.9-5.1,20.5,3.7,1.6,2.9,3.3,7,2.2,4.1-1.1,7.3-9.2,8.1-12.6.8-3.4,4.2-27.5,6.9-30.9,2.3-2.9,3.9-5.5,3.5-7.9,4-1.6,9-3.9,15.2-7.2,0,4.2.5,8.5,1.4,12.2,1.7,6.8-.2,20.4-1.7,25.9s-3.6,8.2-3.6,8.2c0,0-7.1,8.3-7.5,10.1,0,.3,0,.6.1.8-.6,1.4-.8,2.5-.1,3,2.8,2.1,14.8.1,17.1-3.8,1.7-3,12.6-25.5,11.4-39.1-1.1-12.8,2.2-18.1,4.3-26.5,0-.4.2-.8.3-1.2,5.9-5.6,11.5-15.7,12.9-34.2.7-8.8-1.6-16.2-5.5-22.3,2.3-.6,5.4-1.9,6.9-5.3l-3.2,1.2s-2,.5-4.2.3c-.9,0-1.8-.3-2.6-.6-.3-.4-.7-.8-1.1-1.2.3.2.6.3.9.4,4.5,1.4,8.8,1.1,12.6-2.8Z"/>
  </g>
  <path class="cls-5" d="M103.8,108.4s3.7,3.3,5,9.4-1.6,13.4-2.8,14.7-1.2,9.6-2.2,11.5-8.8,18.9-5.1,20.5,2.9,3.3,7,2.2,7.3-9.2,8.1-12.6,4.2-27.5,6.9-30.9,4.5-6.4,3.2-9c-1.3-2.6-4-11.2-4-11.2l-16.1,5.4Z"/>
  <path class="cls-1" d="M39.6,68.7s-3.3,16.6-1.7,27.2c2.8,18.3,5.9,17.6,8,20.8s6.7,7.1,6.7,15.9-6.2,24.2-6.4,25.2c-.6,2.8-2,3.3-2.2,3.7-9.5,25.8,10.9,15.5,14.2,9.8,0,0,4.7-13,6.2-15.9s5.6-18,3.9-23.5-.1-10.5-.1-10.5c8.1,3.9,12.8,1.2,13.6,2.7,0,0-1.9,14.5-2,16.4s3.6,21.4,3.6,21.4c0,0-6.3,12.6-.2,17.6s5.5,1.8,8.5,2.5c12.3,2.8,2.5-22.9,2.5-22.9,0,0-.8-6.7-.8-12.7s1.9-13.9,4.7-19.4,4.1-3.7,8-6.5,9.8,1.2,39.9-16.2c0,0,24.9.8,28.1-41,2.4-31.9-33.5-46.6-49.7-41-33.3,11.5-66.4,25.9-66.4,25.9l-18.3,20.3Z"/>
  <path class="cls-5" d="M38.5,73.8s2.7,16.9,12.6,24c9.9,7.1,20.7,5.4,28.7,3.7,16.4-3.4,22.4-25,19.3-35.7-9.8-33.2-11.2-9-8.3-4.6l-52.3,12.6Z"/>
  <g>
    <g>
      <path class="cls-1" d="M96.7,66.4c4.6,14.6-4,28-21.9,32.7-14.9,3.9-28.9-1.5-32.2-14.4s0,0-2.3-8.2c-1.4-4.9-10.4-5.8-11.6-6.4s-7.5-.5-12.9-21.4-5.4-8.6-5.1-11,14.3-3.5,19.9-2.6,9,5.3,13.3,7.6,3.1-1.1,18.4-4.2c11-2.2,12.8.7,15.6-2.4,2.8-3.1,2.9-10.3,8.1-14.5,0,0,2.7-1.2,7.7-3.4,4-1.7,10.6-4.9,11.2-2.3s-.7,4.2-.1,10,2.7,16.5,2.8,17.6c.3,2.5-4.9,9.4-10.6,13-2,1.2-2.3,3.8-.4,9.9Z"/>
      <path class="cls-5" d="M78.9,57.7c-.4-1.5.9-7.5,2.8-7.5s4.6,3.9,5.3,5.4,1.2,5.8-.8,5.8-6.9-2.2-7.3-3.7Z"/>
      <path class="cls-5" d="M56.6,63.4c-.4-1.5-4.4-6.1-6.1-5.2s-2.1,5.6-2,7.3c0,1.7,1.8,5.6,3.5,4.7s5-5.3,4.6-6.8Z"/>
      <path class="cls-3" d="M81.9,57.4s-.4-1.6.6-2,1.3-.5,1.7-.4h.4c0,.1-.2.8,0,1.3s.5,1.3-.4,1.6-1.7.5-1.7.5l-.5-.9Z"/>
      <path class="cls-3" d="M52.9,64.3s-.4-1.6-1.5-1.5-1.4.1-1.7.4l-.3.3s.6.5.6,1.1.2,1.4,1.1,1.2,1.7-.5,1.7-.5v-1.1Z"/>
      <path class="cls-5" d="M58,85.6c0-.5,0-8.3,4-12.5,4-4.2,5.7-4,8.7-3.6s8.9,5,11,6.9,3,9.4-.8,12.1-6.9,1.3-8.2,2.1-1.1,1.6-3.9,1.7c-2.8.1-9.1,1-10.7-6.8Z"/>
      <path class="cls-9" d="M65,79.9s-.5-1.2-1.4-.5-3.5,3-3.4,5,1.8,3,3.3,2.1,2-2.7,2-3.7,0-1.2-.5-2.9Z"/>
      <path class="cls-7" d="M64.9,83.7c1-.7.4-1.5.3-2s-.5-2.3-.9-1.7-.9,1.4-1,1.8.3,2.7,1.5,1.9Z"/>
      <path class="cls-9" d="M73.6,81.1s-2-3.5,0-4.1,4.5,1.9,5.1,2.7,1.9,2.3.3,3.3-3.8.5-5.4-2Z"/>
      <path class="cls-7" d="M72.9,78.3s.6,1.5,1.3,1.9,2,1.4,2.4.6-.4-1.9-1.2-2.2-3-1.4-2.4-.3Z"/>
    </g>
    <path class="cls-8" d="M17.9,46.6s-1.6-2.8-3-4.7c-.7-1-.7-.9-1.3-2.1-.6-1.1,0-.8.7-1s1.9-1,9.8-.7c2.5-.2,5.2-1.2,8-.7,8.2,1.4,11.1,10,10.2,16.4-1,6.4-2,7.9-2,7.9,0,0,2.7,5.6-.5,7-3.3,1.4-12.8,2.5-17.1-7.6-4.3-10.1-2.5-11-4.7-14.6Z"/>
    <path class="cls-8" d="M102.9,25.1s0-3.2.3-5.6c.1-1.2.1-1.2.1-2.5,0-1.3-.3-.7-1-.5s-2.2,0-8.9,4.2c-2.3,1.1-5.2,1.5-7.3,3.3-6.5,5.2-4.9,14.1-.9,19.3,3.9,5.1,5.6,5.9,5.6,5.9,0,0,.3,6.2,3.9,5.9,3.5-.4,12.4-4,11.2-14.9-1.1-10.9-3.2-10.8-3-15Z"/>
  </g>
  <path class="cls-1" d="M140.9,86.9s-3.3,20.4-.1,33.3-.2,20.4-1.7,25.9-3.6,8.2-3.6,8.2c0,0-10,12-7.5,13.9,2.8,2.1,14.8.1,17.1-3.8s12.6-25.5,11.4-39.1,2.2-18.1,4.3-26.5c2.1-8.4,4.8-18.6,4.8-18.6l-24.6,6.7Z"/>
  <path class="cls-11" d="M160.6,122.9c5.9,6.7.8,15.1.8,15.1,0,.8-.8,2.5.8,3.4,1.7.8,2.5-.8,2.5-.8,0-.8,6.7-11.7-.8-20.9,0,0-.8-1.7-2.5-.8-2.5,2.5-.8,4.2-.8,4.2Z"/>
  <path class="cls-11" d="M164.8,119.6c6.7,5,4.2,14.2,3.4,15.1,0,0-.8,2.5,1.7,3.4,1.7.8,2.5-.8,3.4-1.7,0,0,4.2-12.6-5-20.1,0,0-1.7-.8-3.4,0-1.7,1.7,0,3.4,0,3.4Z"/>
  <path class="cls-2" d="M162.3,140.5s-.8-.8,0-1.7c0,0,5.9-9.2-.8-16.8v-1.7h1.7c7.5,8.4.8,19.3.8,19.3,0,.8-.8,1.7-1.7.8Z"/>
  <path class="cls-2" d="M170.7,136.3c-.8,0-.8-.8-.8-1.7s3.4-10.1-4.2-16.8c0,0-.8-.8,0-1.7,0,0,.8-.8,1.7,0,9.2,6.7,5,18.4,5,18.4,0,.8-.8,1.7-1.7,1.7Z"/>
  <path class="cls-12" d="M48.9,140.6c-7.3-6.5-3-16.3-3-16.3-.1-.9.6-2.9-1.4-3.5-1.9-.7-2.6,1.3-2.6,1.3.1.9-5.6,13.7,3.8,22.7,0,0,1.1,1.7,2.9.6,2.4-3.1.3-4.7.3-4.7Z"/>
  <path class="cls-12" d="M44.8,144.9c-8-4.5-6.5-14.9-5.8-15.9,0,0,.6-2.9-2.3-3.4-1.9-.7-2.6,1.3-3.4,2.3,0,0-2.8,14.3,8.3,21.2,0,0,1.9.7,3.6-.5,1.6-2.1-.5-3.6-.5-3.6Z"/>
  <path class="cls-2" d="M44.6,121.7s1,.8.2,1.8c0,0-5.1,10.8,3.3,18.1l.2,1.8-1.8.2c-9.4-8.1-3.6-20.8-3.6-20.8-.1-.9.7-1.9,1.7-1.1Z"/>
  <path class="cls-2" d="M36.1,127.5c.9-.1,1,.8,1.1,1.7s-2.2,11.4,6.9,17.6c0,0,1,.8.2,1.8,0,0-.8,1-1.8.2-11-6-8-19.3-8-19.3-.1-.9.7-1.9,1.6-2.1Z"/>
  <path class="cls-6" d="M42.5,169s.7-9.4,4.5-6.9c5.5,3.5,8.8.1,9.3,2.8s.7,5.3,0,7.2-6.4,4.8-11.1,4.8c-2.2,0-3.8-1.5-2.8-7.9Z"/>
  <path class="cls-6" d="M95.5,173.3s.7-6.6-3.8-6.2-6.5-2.4-7.1.3-3.7,7.1-2.9,9,6.4,4.8,11.1,4.8,3.8-1.5,2.8-7.9Z"/>
  <path class="cls-1" d="M125.5,22.2c22.4-3,34.9,11.4,34.9,11.4l2.7,2.3s2.8,1.3,5,1.5c2.2.1,4.2-.3,4.2-.3l3.2-1.2c-2.5,5.7-9.9,5.7-9.9,5.7,9.2,19.4,2.5,37.2-4.8,46.4"/>
  <path class="cls-1" d="M172.5,32.4s.5-6.9-4.6-5.8c-5.1,1.1-2.4,6.2-2.4,6.2,0,0,3.6,5.5,10.7-3.1,2.5-3.1,3-3.2,4.1-2.8,1.1.4,1.4,2.5-2.4,6.4-3.7,3.9-8.1,4.2-12.6,2.8-4.5-1.4-4.5-7-4.5-7,0,0,.2-7.2,7.6-6.2,7.5,1,6.9,6.5,6.9,6.5l-2.8,3Z"/>
  <path class="cls-4" d="M150.1,38.2s7.9,10.3,6.1,21.5c-1.5,9.8-6,16.1-6,16.1,0,0,.8-20.5-8.2-36-6-10.3-21.2-9.4-19.3-10.8,2.9-2.2,16.6-6.1,27.4,9.2Z"/>
  <path class="cls-6" d="M100.2,155s-1.4,1.1-1.4,3.1,0,4.2,1.1,5.2,4.6,2.4,7.7,0,3.8-6.9,1.4-6.5c-4.4.6-8.9-1.7-8.9-1.7Z"/>
  <path class="cls-6" d="M135.6,154.4s-7.1,8.3-7.5,10.1,2.8,1.5,5.9,1.9,7.5,1.2,9.1-3.8,3.2-4.8,2.8-6.9-10.3-1.3-10.3-1.3Z"/>
</svg>