<?xml version="1.0" encoding="UTF-8"?>
<svg id="Livello_1" data-name="Livello 1" xmlns="http://www.w3.org/2000/svg" version="1.1" viewBox="0 0 917.7 910.1">
  <defs>
    <style>
      .cls-1 {
        fill: #6bceb2;
      }

      .cls-1, .cls-2, .cls-3, .cls-4 {
        stroke-width: 0px;
      }

      .cls-2 {
        fill: #56b79e;
      }

      .cls-3 {
        fill: #449380;
      }

      .cls-4 {
        fill: #4da290;
      }
    </style>
  </defs>
  <path class="cls-4" d="M643.2,162.9l-1.3-.8c-30.4-21.8-77.3-31.3-128.4-31.3-77.3,0-164.2,21.8-217.7,55.8-100.4,63.7-131.8,158.2-132.1,159.2l-.4,1.1c-42.1,89-34.6,242.9,50.8,336.2,85.2,93,165.3,104.4,267,92.7,105.6-12.2,204.3-81.6,263.9-185.7,49.4-86.2,53.9-188.6,13.4-304.5-27.6-78.9-114.3-122.2-115.2-122.6Z"/>
  <path class="cls-4" d="M252.6,743.8l-66,100.5c8.9,6.2,18.1,11.9,27.6,17.3l55.3-105.9c-5.6-3.7-11.3-7.6-16.9-11.9Z"/>
  <path class="cls-4" d="M278.6,761.3l-55.1,105.5c9.5,5,19.4,9.5,29.6,13.7l45.7-108.3c-6.8-3.3-13.5-6.9-20.2-10.9Z"/>
  <path class="cls-4" d="M188.1,262.4l-91.4-64.5c-7.7,10-14.7,19.9-21.2,29.5l102.2,50c3.2-4.9,6.6-9.9,10.4-15Z"/>
  <path class="cls-2" d="M637.8,138.1l57.1-99c-8.5-3.8-17.3-7.4-26.3-10.8l-48.1,102.1c6.2,2.3,12,4.9,17.4,7.7Z"/>
  <path class="cls-2" d="M332.2,146.8l-57.4-94.1c-7.7,3.6-15.2,7.4-22.5,11.4l58.6,92.7c6.9-3.5,14-6.9,21.2-10Z"/>
  <path class="cls-1" d="M610.1,127l48.3-102.4c-9.8-3.4-19.8-6.4-30.2-9.2l-34.5,106.9c5.7,1.4,11.1,2.9,16.4,4.6Z"/>
  <path class="cls-4" d="M126.9,399l-121.6-4.9c-1.5,9.7-2.9,19.5-3.7,29.5h121.3c1.1-8.4,2.4-16.6,4-24.6Z"/>
  <path class="cls-4" d="M229.5,724.7l-77.4,92.6c8.2,7.3,16.7,14.3,25.7,20.8l66.4-101c-4.9-3.9-9.7-8.1-14.6-12.4Z"/>
  <path class="cls-4" d="M308.5,776.8l-45.5,107.8c9.1,3.5,18.4,6.7,28,9.4l37-109.8c-6.5-2.2-13-4.6-19.5-7.4Z"/>
  <path class="cls-2" d="M696.2,175.2l72.6-92.5c-7.7-5.9-15.9-11.6-24.5-17.1l-65.6,96.9c5.4,3.6,11.3,7.9,17.6,12.7Z"/>
  <path class="cls-4" d="M395.7,797.3l-10.6,111.4c10.5.6,20.8.9,30.9,1.1l-4.4-111.8c-5.4-.1-10.7-.4-15.9-.7Z"/>
  <path class="cls-4" d="M207.6,238.1l-86.7-69.2c-6.1,6.9-12,13.8-17.5,20.7l91.2,64.4c4.1-5.2,8.3-10.5,13-15.9Z"/>
  <path class="cls-1" d="M494.9,112.9V0c-7.3.2-14.8.6-22.3,1.1l6,112.5c5.5-.3,10.9-.5,16.2-.7Z"/>
  <path class="cls-4" d="M133.2,374.4l-121-13.9c-1.9,7.5-3.6,15.2-5.1,23l122.4,4.9c1.1-4.7,2.3-9.4,3.7-14Z"/>
  <path class="cls-4" d="M338.2,787.4l-36.8,109.3c10.9,2.8,22.2,5.2,33.7,7l18.1-112.5c-5-1.1-10-2.4-15-3.8Z"/>
  <path class="cls-2" d="M652,146.6c2.2,1.1,8.7,4.5,17.6,10l65.5-96.7c-9.7-5.8-19.9-11.2-30.5-16.4l-57.6,100c1.7,1,3.5,2,5.1,3.1Z"/>
  <path class="cls-4" d="M363.6,793.4l-18,112c8.7,1.2,17.6,2.1,26.7,2.7.7,0,1.4,0,2.1.1l10.6-111.8c-7.2-.7-14.3-1.7-21.4-3Z"/>
  <path class="cls-1" d="M468,114.4l-6-112.5c-8.9.8-17.9,1.8-26.9,3.1l12.5,111.6c6.9-.9,13.7-1.6,20.5-2.2Z"/>
  <path class="cls-4" d="M144,344.7l-112.7-37.7c-9.4,20.9-13.4,33.9-13.4,33.9-1,3-1.8,6.1-2.6,9.1l121.3,13.9c2.3-6.7,4.7-13.1,7.5-19.2Z"/>
  <path class="cls-1" d="M528.4,113.3l7.1-112.5c-9.8-.6-19.8-.8-30-.8v112.8c7.8,0,15.4.2,22.9.5Z"/>
  <path class="cls-4" d="M130.2,557.4l-109,48.1c3.2,10.8,6.9,21.4,10.8,32l104.3-57.5c-2.3-7.5-4.4-15.1-6.2-22.7Z"/>
  <path class="cls-4" d="M202.4,697.8l-76.1,94.7c5.7,6.1,11.7,12,17.8,17.7l77.6-92.8c-6.4-6.1-12.9-12.6-19.3-19.6Z"/>
  <path class="cls-4" d="M120,468.5L.3,477.7c.4,11.5,1.1,23,2.3,34.7l117.7-28.5c-.2-5.1-.4-10.3-.4-15.4Z"/>
  <path class="cls-4" d="M120.8,494.8l-116.9,28.2c1.3,10,2.8,20,4.7,30l113.8-39.8c-.7-6.2-1.2-12.4-1.6-18.5Z"/>
  <path class="cls-4" d="M155.9,316.1l-106.9-44.9c-5.1,9.4-9.5,18.1-13.3,26l112.1,37.5c1.6-4.2,4.2-10.5,8-18.6Z"/>
  <path class="cls-4" d="M123.9,524.1l-113.2,39.6c2.2,10.5,4.8,20.9,7.6,31.4l109.5-48.3c-1.5-7.5-2.8-15.1-3.9-22.6Z"/>
  <path class="cls-4" d="M139.6,590.5l-103.8,57.1c3.6,9.1,7.5,18.1,11.6,27.1l99.1-65.6c-2.5-6.1-4.8-12.4-7-18.6Z"/>
  <path class="cls-1" d="M583.3,119.9l34.5-107c-9.4-2.3-19.1-4.3-29-6l-24,109.9c6.3.9,12.5,1.9,18.5,3.1Z"/>
  <path class="cls-4" d="M150.9,619.1l-98.8,65.3c5,10.1,10.2,20.2,16,30l92.6-75.2c-3.5-6.6-6.8-13.2-9.8-20Z"/>
  <path class="cls-4" d="M184.2,676.2l-84.8,84.5c6.2,8.1,12.8,16,19.7,23.7l76.2-94.9c-3.8-4.4-7.6-8.7-11.1-13.3Z"/>
  <path class="cls-4" d="M422.4,798.2l4.4,111.9c9.5,0,18.7,0,27.7-.4l-8.9-112.3c-7.8.4-15.6.8-23.1.8Z"/>
  <path class="cls-1" d="M554.2,115.3l24.1-110.2c-10.5-1.6-21.2-2.8-32.1-3.7l-7.1,112.4c5.1.4,10.1.9,15.1,1.4Z"/>
  <path class="cls-4" d="M172,286.5l-102.4-50.1c-5.6,8.8-10.7,17.2-15.3,25.3l106.4,44.7c3.2-6.1,6.9-12.8,11.3-20Z"/>
  <path class="cls-4" d="M166.1,648.6l-92.3,75c6,9.8,12.3,19.3,19.1,28.6l85.1-84.9c-4.2-6.1-8.2-12.3-11.9-18.7Z"/>
  <path class="cls-2" d="M720.4,196.3l80.5-85.3c-1.2-1.2-2.4-2.5-3.6-3.7-6.3-6.1-13-12.1-20.2-18l-72.6,92.6c5.3,4.4,10.6,9.2,16,14.4Z"/>
  <path class="cls-2" d="M761,599.3c-3.1,5.5-6.5,10.8-9.8,16.1l90,51c4.1-7,8.2-14.2,12.2-21.5l-90.5-49.2c-.7,1.2-1.2,2.4-1.9,3.6Z"/>
  <path class="cls-4" d="M252.2,195.1l-77.3-78.7c-7,5.8-13.7,11.7-20.2,17.7l80.1,75.8c5.5-5,11.3-10,17.3-14.9Z"/>
  <path class="cls-1" d="M411.9,122.4l-29.3-107.4c-9.4,2.3-19,4.9-28.5,7.8l42,103.3c5.3-1.3,10.5-2.5,15.8-3.6Z"/>
  <path class="cls-4" d="M732.8,642.3l86.3,60.2c5.6-8.7,11.1-17.7,16.6-26.9l-90.3-51.2c-4.1,6.1-8.2,12.1-12.6,17.9Z"/>
  <path class="cls-1" d="M436.8,118l-12.4-111.4c-10.3,1.7-20.8,3.7-31.3,6l29.4,107.8c4.8-.9,9.5-1.7,14.3-2.5Z"/>
  <path class="cls-2" d="M768,586.3l90.6,49.3c3.7-6.8,7.5-13.7,11.2-20.7,1.9-3.5,3.5-7.1,5.3-10.6l-101.1-30.3c-1.9,4.2-3.9,8.3-6,12.4Z"/>
  <path class="cls-4" d="M227.2,217.4l-80.2-75.9c-6.6,6.4-13,12.8-19,19.3l86.8,69.3c3.9-4.2,8.1-8.5,12.4-12.7Z"/>
  <path class="cls-4" d="M713.4,666.4l83.2,69.1c5.6-7.8,11.2-15.8,16.6-24l-86.9-60.7c-4.2,5.3-8.5,10.6-12.9,15.6Z"/>
  <path class="cls-2" d="M285.8,170.9c5.1-3.2,10.4-6.1,15.7-9l-58.6-92.7c-8.8,5-17.2,10.3-25.4,15.7l66.5,87.3c.6-.4,1.2-.8,1.8-1.2Z"/>
  <path class="cls-4" d="M689.3,692.2l85.1,72c5.4-6.5,10.6-13.2,15.8-20l-83.8-69.6c-5.5,6.1-11.3,12-17.1,17.6Z"/>
  <path class="cls-2" d="M275.1,178.2l-66.5-87.3c-8.8,6.1-17.2,12.4-25.3,18.8l77.5,78.9c4.6-3.5,9.4-6.9,14.3-10.3Z"/>
  <path class="cls-2" d="M797,504.6l110.6,7.4c2.1-9.3,3.9-18.5,5.3-27.8l-111.9-3.4c-1.1,8-2.4,16-4,23.8Z"/>
  <path class="cls-2" d="M803.8,451c-.3,6.4-.8,12.7-1.4,19l111.9,3.4c1.3-10.7,2.3-21.3,2.8-31.9l-113.3,9.5Z"/>
  <path class="cls-2" d="M356.8,137.3c-13.9-32.2-30.9-71.3-43.9-100.7-3.7,1.4-7.4,2.7-11.1,4.2-5.9,2.3-11.6,4.8-17.3,7.4l57.8,94.7c4.8-1.9,9.6-3.8,14.5-5.6Z"/>
  <path class="cls-2" d="M778.5,564.1l101.4,30.4c5-10.9,9.5-21.8,13.4-32.7l-107-18c-2.4,6.9-4.9,13.7-7.7,20.4Z"/>
  <path class="cls-2" d="M789.5,533.4l107.2,18.1c3.2-9.6,6.1-19.3,8.5-29l-110.6-7.4c-1.5,6.2-3.2,12.3-5,18.3Z"/>
  <path class="cls-2" d="M385.6,128.6l-41.8-102.8c-6.9,2.2-13.8,4.5-20.7,7,9.8,22.1,23.8,54.4,44,101.3,6.1-1.9,12.3-3.8,18.5-5.5Z"/>
  <path class="cls-3" d="M485.1,793.9l13.9,112.9c10.2-1,20.1-2.3,29.8-3.8l-26.1-111.8c-5.8,1-11.7,1.9-17.5,2.6Z"/>
  <path class="cls-2" d="M761.1,247.7l90.7-68.9c-5.5-9.3-11.2-18.2-17-26.6l-85.8,76.8c4.3,5.9,8.4,12.1,12.1,18.6Z"/>
  <path class="cls-2" d="M775.8,279.4c.2.5.3,1,.5,1.5l95.4-64.3c-4.6-9.8-9.5-19.3-14.5-28.4l-90.9,69.1c3.6,7.1,6.9,14.4,9.6,22.1Z"/>
  <path class="cls-3" d="M513.1,789.1l26.2,112.3c10.7-1.9,21.1-4.1,31.1-6.6l-41-109.5c-5.4,1.5-10.9,2.7-16.3,3.9Z"/>
  <path class="cls-3" d="M539.7,782.3l41.1,109.8c9.6-2.6,19-5.6,28-8.8l-50.6-107.2c-6.1,2.3-12.3,4.3-18.5,6.2Z"/>
  <path class="cls-2" d="M785.5,310.1l102.1-55.5c-3.6-9.6-7.4-19-11.4-28.1l-96.4,65c2,6.2,3.9,12.4,5.7,18.6Z"/>
  <path class="cls-4" d="M456.2,796.7l8.9,112.6c7.9-.4,15.6-.8,23.1-1.5l-13.8-112.8c-6.1.6-12.2,1.2-18.2,1.7Z"/>
  <path class="cls-4" d="M669.1,710.6l79.4,82.5c6.5-6.7,12.9-13.6,19.1-20.8l-86.1-72.8c-4.1,3.8-8.2,7.5-12.4,11Z"/>
  <path class="cls-2" d="M742.5,220.5l86-77c-6.6-8.9-13.4-17.2-20.2-24.7l-80.3,85.1c5,5.2,9.8,10.8,14.5,16.7Z"/>
  <path class="cls-4" d="M121.8,434.2H.9c-.7,10.8-1.1,21.7-.9,32.8l120.3-9.3c.3-7.9.8-15.8,1.5-23.5Z"/>
  <path class="cls-4" d="M644.6,729.8l76.1,89.2c6.9-5.9,13.7-12,20.2-18.3l-80.1-83.3c-5.3,4.3-10.7,8.4-16.2,12.4Z"/>
  <path class="cls-2" d="M803.1,405.4l113.2-20.1c-.9-11.2-2.1-22.2-3.7-33.1l-111.1,35.6c.7,5.9,1.2,11.8,1.6,17.6Z"/>
  <path class="cls-3" d="M568.3,772.2l50.6,107.3c9.7-3.7,19-7.8,28-12.2l-67.4-100c-3.7,1.7-7.5,3.3-11.3,4.8Z"/>
  <path class="cls-4" d="M618.8,746.9l70,96.3c8.1-5.5,15.9-11.3,23.6-17.4l-76.6-89.9c-5.6,3.8-11.2,7.5-17,10.9Z"/>
  <path class="cls-2" d="M804.1,440.3l113.5-9.5c.3-11.7,0-23.3-.5-34.8l-113.3,20.2c.4,8.1.5,16.2.3,24.2Z"/>
  <path class="cls-2" d="M800,377l110.9-35.5c-1.9-11.3-4.3-22.3-6.9-33.2l-107.8,46c1.5,7.6,2.7,15.2,3.8,22.7Z"/>
  <path class="cls-2" d="M794,343.6l107.2-45.8c-3-11.2-6.4-22.2-10.1-33l-102.7,55.8c2.1,7.7,3.9,15.3,5.6,22.9Z"/>
  <path class="cls-3" d="M589.3,762.8l67.1,99.6c8-4.2,15.8-8.7,23.3-13.4l-70.3-96.7c-6.6,3.7-13.3,7.3-20.1,10.5Z"/>
</svg>