<?xml version="1.0" encoding="UTF-8"?>
<svg id="Livello_2" data-name="Livello 2" xmlns="http://www.w3.org/2000/svg" version="1.1" viewBox="0 0 388.1 337.3">
  <defs>
    <style>
      .cls-1 {
        fill: #56b79e;
        stroke-width: 0px;
      }
    </style>
  </defs>
  <path class="cls-1" d="M356.5,246.4C308.9,122.2,316.3,5.6,316.3,5.6c0,0-27.4,88.6-62.6,169.6-28.5,65.6-57.6,131.1-70.3,151.5,3.8-30.4,20.9-100,47.1-177C253,83.4,294.2,0,294.2,0c0,0-63.1,61.4-147.5,112.1C77.6,153.7,0,175,0,175c0,0,23,57.1,86.2,106.5,44.9,35.2,89.6,55.8,167.3,55.8s134.6-24,134.6-24c0,0-14.4-22-31.6-66.9Z"/>
</svg>