<?xml version="1.0" encoding="utf-8"?>
<!-- Generator: Adobe Illustrator 26.3.1, SVG Export Plug-In . SVG Version: 6.00 Build 0)  -->
<svg version="1.1" id="Livello_1" xmlns="http://www.w3.org/2000/svg" xmlns:xlink="http://www.w3.org/1999/xlink" x="0px" y="0px"
	 viewBox="0 0 71.4 81.1" style="enable-background:new 0 0 71.4 81.1;" xml:space="preserve">
<style type="text/css">
	.st0{fill:#FFFFFF;}
	.st1{fill:#1F6A99;}
</style>
<g id="ic_salinity" transform="translate(-1417.102 -339.982)">
	<g transform="matrix(1, 0, 0, 1, 1417.1, 339.98)">
		<path id="Tracciato_48-2" class="st0" d="M9,6h53.4l-3.2,8.1l3.2,48.6c0,3.6-2.9,6.5-6.5,6.5H15.5c-3.6,0-6.5-2.9-6.5-6.5
			l3.7-48.6L9,6z"/>
	</g>
	<path id="Tracciato_49" class="st1" d="M1459.7,377.8c7.1-0.4,13.4-7.4,13.4-7.4l1.8,28.7c0.1,3-2.3,5.6-5.3,5.7h-33.4
		c-3-0.1-5.4-2.7-5.3-5.7l1.7-23.7c3.6-2.5,7.9-3.7,12.3-3.5C1451.5,372.6,1452.6,378.2,1459.7,377.8z"/>
	<path id="Poligono_1" class="st0" d="M1467.2,391.3l3.5,7h-7L1467.2,391.3z"/>
	<path id="Poligono_7" class="st0" d="M1446,385.7l4,6h-8L1446,385.7z"/>
	<path id="Poligono_4" class="st0" d="M1460.1,384.7l4,6h-8L1460.1,384.7z"/>
	<path id="Poligono_9" class="st0" d="M1450.7,394.6l4,7h-8L1450.7,394.6z"/>
	<path id="Poligono_3" class="st0" d="M1452.6,387.9l-4-6h8L1452.6,387.9z"/>
	<path id="Poligono_11" class="st0" d="M1467.2,388.8l-3.5-6h7L1467.2,388.8z"/>
	<path id="Poligono_10" class="st0" d="M1439.4,387.9l-4-6h8L1439.4,387.9z"/>
	<path id="Poligono_8" class="st0" d="M1441.3,399.6l-4-6h8L1441.3,399.6z"/>
	<path id="Poligono_5" class="st0" d="M1458.2,400.6l-4-7h8L1458.2,400.6z"/>
</g>
</svg>
