<?xml version="1.0" encoding="utf-8"?>
<!-- Generator: Adobe Illustrator 28.0.0, SVG Export Plug-In . SVG Version: 6.00 Build 0)  -->
<svg version="1.1" id="Livello_1" xmlns="http://www.w3.org/2000/svg" xmlns:xlink="http://www.w3.org/1999/xlink" x="0px" y="0px"
	 viewBox="0 0 230 176" style="enable-background:new 0 0 230 176;" xml:space="preserve">
<style type="text/css">
	.st0{fill:#FFFFFF;}
</style>
<g id="bW4HzG_00000058546819142744024770000013490526786548866996_">
	<g>
		<path class="st0" d="M112.76,82.48c1.54,0.71,1.48,9.26-0.23,9.78c-0.4,0.12-8.49-0.24-17.91,0.81
			c-23.85,2.66-54.33,7.28-68.21,9.22c-6.33,1.16-9-1.55-9.46-4.51c-0.48-3.12,1.25-7.25,13.44-8.1c27.4-2.91,42.11-4.63,62.6-6.44
			C98.43,82.95,112.29,82.26,112.76,82.48z"/>
		<path class="st0" d="M111.52,100.6c-0.58,1.85-1.43,3.5-2.19,4.66c-2.19,3.35-5.56,3.51-9.88,3.83
			c-13.7,1.01-26.66,3.79-40.28,5.53c-24.28,3.11-32.62,5.18-43.33,5.99c-7.91,0.46-9.46-2.08-9.94-5.19
			c-0.47-3.06,2.16-6.43,6.54-6.77c12.63-1.13,18.96-1.62,43.88-4.82c10.28-1.32,49.94-6.38,53.84-5.96
			C112.13,98.09,111.84,99.57,111.52,100.6z"/>
		<path class="st0" d="M116.66,61.3c-3.63,1.21-6.94,2.34-10.27,3.4c-0.46,0.14-1.21,0.08-1.54-0.21
			c-5.41-4.74-10.55-9.74-13.35-16.56c-3.1-7.55-2.64-14.83,2.79-21.17c5.61-6.55,12.97-8.71,21.36-7.06
			c6.62,1.31,11.45,5.29,14.95,10.93c4.45,7.19,6.8,15.16,8.22,23.41c0.64,3.7,0.84,7.48,1.24,11.3c-3.37-1.01-6.65-1.92-9.87-3.03
			c-0.47-0.16-0.77-1.26-0.88-1.96c-1.08-7.1-2.53-14.11-5.7-20.6c-1.14-2.33-2.59-4.61-4.34-6.5c-2.8-3.02-6.47-4.13-10.59-3.39
			c-6.72,1.2-10.08,7.09-7.71,13.48c1.51,4.09,4.36,7.22,7.42,10.17C111.1,56.12,113.88,58.68,116.66,61.3z"/>
		<path class="st0" d="M173.98,95.67c0.4-1.25,1.07-2.57,1.68-4.77c0.76-2.78,0.55-4.47,0.63-5.33c11.74,2.8,20.78,9.56,34.92,6.69
			c2.67-0.54,6.7-2.86,9.07-0.94c1.64,1.44,2.42,3.85,1.39,5.75c-0.68,1.26-3.39,3.27-4.65,3.95c-13.55,5.46-21.6,1.71-30.45-0.51
			C181.07,98.94,177.77,97.29,173.98,95.67z"/>
		<path class="st0" d="M134.56,86.65c5.82,1.73,5.97,1.75,5.24,7.43c-0.97,7.62-4.29,22.75-7.49,35.92
			c-1.61,6.63,1,13.08,1.65,18.35c0.3,2.46,0.88,7.07-2.47,8.26c-3.39,1.2-6.79-2.6-8.07-5.63c-3.09-7.18-6-17.56,2.36-33.29
			c0.24-0.45,3.1-5.89,3.87-7.49c3.48-7.16,4.89-14.88,4.79-23C134.44,87.06,134.5,86.92,134.56,86.65z"/>
		<path class="st0" d="M99.21,75.58c9.85-7.8,20.32-10.87,32.1-7.2c5.28,1.64,10.33,4,15.47,6.07c1.9,0.76,3.7,1.84,5.65,2.35
			c2.45,0.63,3.25,2.12,3.15,4.4c-0.08,1.74-0.1,3.49-0.32,5.22c-0.22,1.66-1.13,2.41-2.89,1.67c-2.96-1.25-5.95-2.41-8.91-3.64
			c-3.5-1.46-6.94-3.07-10.48-4.44c-4.04-1.57-8.25-2.1-12.63-2.25c-5.3-0.18-10.58-1.15-15.87-1.75
			C102.9,75.82,101.31,75.75,99.21,75.58z"/>
		<path class="st0" d="M143.76,108.32c0.38-3.3,0.76-6.19,1.03-9.09c0.1-1.13,0.5-1.63,1.68-1.79c1.8-0.25,3.6-0.65,5.34-1.15
			c10.97-3.17,12.02-16.31,5.79-22.64c-3.09-3.15-6.87-4.85-11.22-6c1.28-0.4,2.53-0.95,3.84-1.16c11.91-1.94,21.98,7.13,21.36,19.2
			c-0.5,9.86-7.03,17.81-17.28,20.79c-2.58,0.75-5.29,1.07-7.94,1.56C145.6,108.17,144.8,108.21,143.76,108.32z"/>
		<path class="st0" d="M92.67,114.52c0.85-0.07,7-0.48,10.41-1.17c5.47-1.1,9.5-4.32,11.96-9.39c2.77-5.72,3.82-11.76,3.34-18.09
			c-0.05-0.65-0.14-1.3-0.22-2.1c3.34-0.96,6.55-0.52,9.72,0.34c0.43,0.12,0.91,0.93,0.94,1.44c0.58,11.02-1.63,21.27-9.08,29.79
			c-6.9,7.88-16.6,8.63-24.86,2.17C93.97,116.82,90.98,114.65,92.67,114.52z"/>
	</g>
</g>
</svg>
