<?xml version="1.0" encoding="UTF-8"?><svg id="Complications" xmlns="http://www.w3.org/2000/svg" viewBox="0 0 32 32"><defs><style>.cls-1{fill:#fff;}.cls-2{fill:#d99898;}.cls-3{fill:#c46769;}</style></defs><g id="ic_meningits"><path class="cls-1" d="M30.89,18.86c0-1.57-.67-2.93-1.66-3.65-.09-1.73-1.46-3.1-3.18-3.21-.79-1.31-2.21-2.2-3.85-2.2-.36,0-.71,.05-1.04,.13-.61-.31-1.29-.5-2.03-.5-1.12,0-2.14,.43-2.93,1.11-.3-.06-.6-.1-.92-.1-1.6,0-2.99,.89-3.73,2.19-.1-.02-.21-.03-.31-.03-.97,0-1.78,.7-1.95,1.63-1.33,.79-2.22,2.17-2.22,3.74,0,2.34,2.48,4.51,5,4.71,.72,1.25,1.96,2.15,3.43,2.4,.62,.21,1.37,.33,2.19,.33,.57,0,1.11-.06,1.6-.17,.02,.02,2.03-1.07,1.99-.4-.04,.7,.36,1.96,.8,2.02,.43,.1,.87,.17,1.33,.17,2.61,0,4.71-1.02,5.13-3.15,1.2-.05,2.19-.73,2.3-1.68,.06-.45-.1-.89-.4-1.26,.27-.62,.44-1.32,.44-2.08Z"/><g><path class="cls-2" d="M22.49,29.08c-.25,0-.54-.13-.73-.33-.16-.17-.24-.37-.22-.57,.03-.41-1.41-2.54-1.9-3.22-.45,.09-.92,.13-1.39,.13-.75,0-1.48-.11-2.11-.32-1.34-.22-2.53-1.03-3.25-2.23-2.49-.26-4.73-2.42-4.73-4.58,0-1.46,.78-2.8,2.08-3.62,.22-.93,1.05-1.59,2.01-1.59,.06,0,.12,0,.17,.01,.77-1.25,2.12-2.01,3.58-2.01,.25,0,.52,.03,.79,.08,.79-.65,1.78-1.01,2.78-1.01,.65,0,1.29,.15,1.91,.46,.34-.08,.65-.11,.94-.11,1.51,0,2.89,.77,3.71,2.06,1.62,.16,2.9,1.45,3.04,3.07,.96,.75,1.55,2.08,1.55,3.5,0,.66-.13,1.3-.38,1.9,.27,.39,.38,.81,.33,1.23-.11,.94-1,1.64-2.18,1.75-.46,1.84-2.29,2.93-4.95,2.93-.3,0-.61-.03-.94-.09,.15,.71,.28,1.25,.39,1.63,.09,.32,.07,.57-.06,.74-.1,.14-.26,.21-.46,.21Z"/><path class="cls-1" d="M19.58,10.03c.68,0,1.31,.18,1.88,.47,.31-.07,.63-.12,.97-.12,1.53,0,2.85,.83,3.58,2.05,1.6,.1,2.87,1.37,2.96,2.98,.92,.67,1.54,1.93,1.54,3.39,0,.71-.16,1.36-.41,1.93,.27,.35,.42,.75,.37,1.17-.11,.88-1.02,1.51-2.14,1.56-.4,1.98-2.35,2.92-4.77,2.92-.43,0-.84-.06-1.23-.16,.14,.68,.31,1.46,.47,1.98,.14,.48-.05,.67-.3,.67-.32,0-.75-.3-.73-.67,.04-.62-2.02-3.47-2.03-3.49-.45,.1-.95,.16-1.48,.16-.76,0-1.46-.12-2.04-.31-1.37-.23-2.52-1.07-3.19-2.23-2.34-.19-4.64-2.2-4.64-4.37,0-1.46,.82-2.74,2.06-3.48,.16-.86,.91-1.51,1.81-1.51,.1,0,.19,.01,.29,.03,.69-1.21,1.97-2.03,3.46-2.03,.29,0,.58,.04,.85,.1,.73-.63,1.67-1.03,2.72-1.03m0-.45c-1.02,0-2.02,.35-2.84,1-.25-.04-.49-.06-.73-.06-1.48,0-2.87,.76-3.69,2h-.06c-1.04,0-1.93,.69-2.21,1.68-1.33,.86-2.12,2.25-2.12,3.76,0,2.24,2.27,4.47,4.82,4.8,.76,1.19,1.96,2,3.35,2.24,.64,.21,1.38,.32,2.15,.32,.44,0,.87-.04,1.29-.11,.61,.85,1.74,2.59,1.78,2.98-.02,.25,.08,.51,.28,.72,.23,.25,.58,.4,.89,.4,.27,0,.49-.11,.64-.3,.18-.24,.21-.55,.09-.94-.09-.31-.2-.74-.32-1.29,.23,.03,.44,.04,.65,.04,2.69,0,4.58-1.1,5.13-2.95,1.21-.16,2.1-.92,2.22-1.93,.05-.44-.05-.88-.3-1.28,.23-.6,.35-1.23,.35-1.87,0-1.48-.58-2.81-1.56-3.62-.19-1.65-1.48-2.96-3.13-3.17-.86-1.3-2.28-2.07-3.84-2.07-.29,0-.59,.03-.91,.1-.63-.3-1.28-.44-1.94-.44h0Z"/></g><path class="cls-1" d="M12.59,12.74c.25,.52,.39,1.31,.16,1.78-.02-.02,0,.08,.04,.17,.09,.18,.22,.38,.34,.6-.4-.14-.83-.33-.85-.85,.16-.59,.08-1.07,.31-1.69h0Z"/><path class="cls-1" d="M17.22,10.71c-.17,.69-.54,1.4-.71,2.04-.06,.68,.11,1.44,.14,2.15-.41-.68-.69-1.39-.63-2.22,.22-.8,.66-1.39,1.2-1.98h0Z"/><path class="cls-1" d="M16.48,12.09c.1,.77-1.06,1.41-1.51,.65,.66-.02,.91-.32,1.51-.65h0Z"/><path class="cls-1" d="M20.36,14.28c-1.54-1.28,.17-3.17,1.28-4.08l.31,.37c-1.11,.93-.34,1.35,.66,1.65-.52-.02-1.08-.02-1.45-.48-.36-.56,.1-1.15,.49-1.53l.31,.37c-.97,.96-2.6,2.26-1.59,3.71h0Z"/><path class="cls-1" d="M25.8,12.09c.74,.92,.08,1.9-.93,2.22l-.3-.14c-.15-.13-.72-.21-1.04-.2-.44,0-.89,.04-1.33,.1,.43-.14,.86-.26,1.31-.34,.52-.05,1.1-.24,1.52,.24,0,0-.31-.14-.29-.14,.92-.11,1.57-.83,1.07-1.74h0Z"/><path class="cls-1" d="M24.8,14.07c.64,.28,1.2,1.36,.54,1.87-.06-.7-.49-1.13-.54-1.87h0Z"/><path class="cls-1" d="M29.26,15.61c-.5,.31-.78,.26-1.19,.62-.3-.68,.76-1.12,1.19-.62h0Z"/><path class="cls-1" d="M12.52,22.16c0-2.9,2.19-4.36,4.93-3.46,.42,.16,.64,.31,.97,.21,.33-.07,.69-.22,1.04-.37l-.12,.15c.4-1.31,1.27-2.23,2.69-1.64l1.1,.29-1.13-.13c-1.41-.36-1.9,.43-2.25,1.69-.78,.39-1.62,.75-2.46,.26-2.55-.83-4.31,.35-4.76,2.99h0Z"/><path class="cls-1" d="M13.88,19.25c-.73-.13-1.16-.75-1.83-.99,.7-.49,1.58,.33,1.83,.99h0Z"/><path class="cls-1" d="M15.54,18.69c-.46-.53-.69-1.17-.69-1.86,.02-.21,.02-.52,.26-.65,.09,.85,.55,1.6,.43,2.51h0Z"/><path class="cls-1" d="M18.98,18.74c-.35-.47-.66-.67-.84-1.2-.04-.19-.02-.43,.14-.55,.04,.18,.13,.29,.21,.39,.36,.33,.7,.84,.49,1.35h0Z"/><path class="cls-1" d="M18.61,21.59c.6-1.28,2.62-1.09,3.7-1.04,1.4-.02,1.84-.75,2.98-1.23,.43-.1,.84-.03,1.21,.07h-.07c.89-.25,.74-1.47,.65-2.21,.33,.85,.57,2.24-.62,2.59-.36-.06-.74-.11-1.05-.01-.61,.24-1.21,.94-1.93,1.08-1.53,.56-3.66-.68-4.86,.75h0Z"/><path class="cls-1" d="M26.17,21.81c.79-.06,1.39-.1,1.99-.67,.55-.46,1.7-1.02,2.18-.18-.71-.44-1.32,.17-1.87,.57-.6,.58-1.55,.65-2.29,.28h0Z"/><path class="cls-1" d="M28.66,20.9c.08-.71,0-1,.03-1.71,.65,.32,.69,1.45-.03,1.71h0Z"/><path class="cls-1" d="M23.44,20.67c.64-.13,1.08,.73,.68,1.21-.32-.4-.47-.8-.68-1.21h0Z"/><path class="cls-1" d="M21.71,20.51c-.62-.4-1.22-1.66-.13-1.81-.08,.18-.16,.33-.17,.45,.08,.41,.38,.88,.3,1.36h0Z"/><path class="cls-1" d="M21.71,16.99c-.1-.36,.13-.79,.54-.79-.01,0-.06,.08,0,.04,.05-.06,.09-.18,.16-.32,.22,.16,.34,.51,.06,.72-.44,.15-.18,.02-.76,.36h0Z"/><g id="Tracciato_28-2"><path class="cls-3" d="M11.79,10.91l-.11-.09c-.45-.44-1.96-2.19-2.11-2.71-.05-.16-.04-.28,.02-.36,.04-.05,.11-.1,.24-.1,.1,0,.18,.03,.19,.03l.17,.05c-.4-.6-1.45-2.21-1.61-2.87-.09-.35,0-.56,.09-.68,.1-.13,.25-.2,.41-.2,.18,0,.35,.1,.43,.26,.19,.38,2.09,4.28,2.09,4.28l.03,.05-.04,.1s-.09,.07-.17,.07c-.11,0-.27-.04-.5-.14-.1-.04-.18-.07-.23-.09,1.34,2.16,1.28,2.27,1.25,2.33l-.03,.05h-.11Z"/><path class="cls-1" d="M9.09,4.09c.14,0,.27,.07,.34,.2,.19,.38,2.09,4.28,2.09,4.28,0,0,.03,.08-.1,.08-.08,0-.22-.03-.46-.13-.23-.09-.35-.12-.4-.12-.1,0,0,.09,0,.09,0,0,1.43,2.32,1.28,2.32-.01,0-.04-.02-.08-.06-.49-.49-1.95-2.19-2.08-2.66-.08-.28,.05-.34,.17-.34,.08,0,.16,.03,.16,.03l.44,.13s-1.55-2.28-1.75-3.06c-.13-.51,.15-.76,.41-.76m0-.2c-.19,0-.37,.09-.49,.24-.1,.13-.21,.38-.11,.77,.15,.6,1.01,1.96,1.48,2.67-.04,0-.08-.01-.13-.01-.18,0-.27,.08-.32,.14-.08,.11-.1,.26-.04,.45,.16,.54,1.67,2.29,2.13,2.75,.06,.06,.12,.12,.22,.12h.12l.07-.11c.06-.11,.12-.21-1.09-2.17,.22,.09,.37,.12,.49,.12,.14,0,.22-.06,.26-.12l.06-.09-.03-.15s-1.9-3.92-2.1-4.31c-.1-.19-.29-.31-.52-.31h0Z"/></g><g id="Tracciato_29-2"><path class="cls-3" d="M8.06,11.99c-.63,0-2.93-.21-3.4-.48-.16-.09-.24-.2-.23-.32,0-.19,.23-.3,.26-.31l.15-.08c-.85-.17-3.35-.69-3.93-1.06-.26-.16-.27-.33-.24-.45,.1-.34,.7-.56,1.06-.56,.08,0,.15,0,.2,.03,.41,.14,4.48,1.63,4.48,1.63l.07,.02,.03,.12c0,.13-.16,.25-.53,.39-.1,.04-.18,.07-.23,.1,2.54,.64,2.53,.75,2.52,.85v.09l-.19,.02h0Z"/><path class="cls-1" d="M1.73,8.83c.06,0,.12,0,.17,.02,.4,.14,4.48,1.63,4.48,1.63,0,0,.2,.1-.44,.36-.64,.26-.31,.26-.31,.26,0,0,3.1,.79,2.44,.79h0c-.69,0-2.92-.23-3.35-.47s.02-.45,.02-.45l.4-.21s-3.49-.67-4.18-1.1c-.61-.38,.28-.83,.77-.83m0-.2h0c-.4,0-1.05,.25-1.16,.63-.04,.12-.05,.36,.28,.56,.54,.34,2.68,.81,3.7,1.02-.09,.06-.21,.18-.22,.34,0,.16,.09,.29,.28,.41,.49,.28,2.79,.49,3.45,.49,.23,0,.29-.11,.3-.19,.02-.19,.04-.29-2.3-.89,.38-.16,.54-.29,.54-.46,0-.12-.07-.2-.14-.24-.02,0-4.09-1.5-4.5-1.64-.07-.02-.15-.04-.24-.04h0Z"/></g><g id="Tracciato_30-2"><path class="cls-3" d="M9.79,11.05s-.08-.01-.15-.04c-.73-.33-3.29-1.74-3.69-2.29-.13-.18-.17-.33-.11-.46,.1-.2,.41-.21,.44-.21l.29-.02c-.83-.58-3.59-2.55-4.09-3.29-.14-.21-.17-.39-.09-.55,.1-.2,.39-.31,.79-.31,.33,0,.76,.08,.96,.27,.4,.37,4.37,4.19,4.37,4.19l.05,.05-.02,.14c-.06,.12-.25,.18-.63,.18h-.36c-.25,0-.31,.02-.31,.02,2.74,2.03,2.69,2.17,2.66,2.24l-.02,.07h-.09Z"/><path class="cls-1" d="M3.18,3.98c.35,0,.73,.09,.89,.25,.4,.37,4.37,4.19,4.37,4.19,0,0,.16,.19-.53,.19-.05,0-.1,0-.16,0-.07,0-.14,0-.19,0-.62,0-.3,.15-.3,.15,0,0,2.81,2.2,2.54,2.2-.02,0-.06-.01-.11-.04-.8-.36-3.28-1.76-3.65-2.26s.25-.51,.25-.51l.58-.04s-3.72-2.57-4.3-3.42c-.34-.5,.11-.7,.61-.7m0-.2c-.26,0-.71,.05-.88,.36-.07,.13-.11,.35,.1,.65,.47,.69,2.86,2.42,3.88,3.15h-.01c-.06,0-.4,.02-.52,.27-.08,.16-.04,.35,.12,.56,.41,.56,3,1.99,3.73,2.32,.08,.04,.14,.05,.19,.05h.14l.06-.14c.05-.15,.1-.28-2.35-2.2,.03,0,.06,0,.09,0,.06,0,.12,0,.17,0,.43,0,.65-.07,.72-.23,.05-.11,.01-.23-.04-.29-.05-.05-3.99-3.84-4.39-4.21-.24-.22-.7-.3-1.03-.3h0Z"/></g></g></svg>