<?xml version="1.0" encoding="UTF-8"?><svg id="Livello_2" xmlns="http://www.w3.org/2000/svg" viewBox="0 0 30.2328443478 22.9192926011"><defs><style>.cls-1{fill:#67534f;}.cls-2{fill:#fff;}.cls-3{fill:#442c25;}.cls-4{fill:#181818;}.cls-5{fill:#3f3b3a;}.cls-6{fill:#6e5b56;}.cls-7{fill:#352f2e;}.cls-8{fill:#4c3933;}.cls-9{fill:#61514c;}.cls-10{fill:#4c3f3c;}.cls-11{fill:#765e57;}.cls-12{fill:#76615d;}.cls-13{fill:#614943;}.cls-14{fill:#786a67;}</style></defs><g id="Where_is_found"><g id="ic_Wild_boar"><path class="cls-1" d="m17.9776268106,16.5646531391c.0312505627.2323627204-.5513968534.7731988882-.5807554357,1.4279529384,0,0-.2412848712,1.4465770378.1256974087,2.3728144746.1321136208.3513314415.2201893679.6228148282.1027550384.7026628831,0,0,.4990959007.5908756062.4844166095.7026628831s-1.0862675485.5110275513-1.5853634492.1756657208-.5160678651-1.0038324319-.5160678651-1.0038324319l-.1155346024.3323452007-.0953390589.2742509863s-.2733226455-.2657844274-.4494741398-1.2665467154c0,0-.1006826679-.6677802426.1635445737-1.5301392355,0,0-.0141324737-3.1467914378.2055100767-3.2258614177,1.0025773559-.166877554,1.5725761383-.5661178285,1.5725761383-.5661178285,0,0,.5578130655.9422070477.688034706,1.6041425421Z"/><path class="cls-1" d="m6.4214362066,15.5950056573s-.056562492.7157516724-.2334047766,1.2929122009.0552632139,1.010030925.0552632139,1.010030925c0,0,1.0389484216,1.6112398089,1.5252647041,1.9599409615s.3868424974.6613297723.3868424974.6613297723l1.1936854206.9619342142s.4973689252.336676975.0221052856.4809671071-1.5252647041.1683384875-1.5252647041.1683384875c0,0-.3426319263.0961934214-.7073691381-.3246527973s-.5415794964-.6372814169-.5415794964-.6372814169c0,0,.099473785.3847736857.0663158567.4689429294s-.408947783.2525077312-.8510534943-.7575231937-.8178955659-1.0942001687-.8178955659-1.0942001687c0,0-.5526321392-.67335395-.663158567-.9499100366s-.6300006386-.6853781276-.6300006386-.6853781276c0,0-.3978951402-.5050154625-.4310530685-.7935957268,0,0,.5599299227-.2406405863,1.2369042932-1.0342363131.3536845691-.4328703964,1.0684797015-1.5697188203,1.0684797015-1.5697188203,0,0,.1732156361.2714833866.3992767205.4647156795s.4466417561.3773843236.4466417561.3773843236Z"/><path class="cls-12" d="m6.5600195312,16.4910548411c-.0200195312-.0100097656-.0400390625-.0100097656-.0599975586-.0200195312,0,.0300292969.0399780273.0300292969.0599975586.0200195312ZM1.6808355871,7.6942482354c-.0599336296.085866413-.1136591281.1779373823-.1564982668.2734878351-.5389523897,1.2021050469-.5111999751,2.1811138813-.4343373203,2.8632699424h0c.1.97.6,1.53.72,1.99.21.8.01,1.34.01,1.34,0,0-.42,1.16-1,1.63-.58.48-.34.97-.34.97l.51,2.74s.12.88-.01,1.1c-.14.22.01.34.01.34,0,0-.08.36,0,.47.13.32.66.63.66.63.04.23.34.58.6.73.26.16,1.11.18,1.58.11.47-.06.15-.34.15-.34l-.61-.79c.25.05-.01-.31-.01-.31-.02,0-.13-.05-.44-1.52-.33-1.58.27-2.26.27-2.26.01.06.93-.57,1.49-1.33.39-.54.64-.95.75-1.14.03.07.08.12.14.17-.07.01-.15.01-.22.02.14.11.29.23.44.34-.07,0-.13-.01-.2-.02.24.07.47.2.65.37-.05.01-.11.01-.17.02.15.09.29.19.44.28.03.02.06.05.06.09,0,.01,0,.02-.01.03.35.11.7.23,1.05.33-.05.02-.1.04-.14.07.25.09.52.17.78.24-.07.01-.14.05-.19.11l.87.12c-.09.05-.17.1-.26.15.45.01.89-.04,1.33-.15-.07.05-.13.11-.2.16.31.02.62-.04.91-.16-.08.06-.15.11-.23.17.39-.04.78-.11,1.16-.21-.07.04-.15.09-.22.14.35-.05.69-.13,1.03-.24-.09.08-.17.16-.26.25.48-.13.95-.28,1.42-.46-.11.06-.21.11-.32.17.35-.09.68-.26.96-.48-.04.05-.08.11-.12.17.27-.03.53-.16.72-.36l-.06.18c.27-.13.5-.33.67-.58-.03.06-.05.11-.07.17.39-.14.75-.35,1.07-.62-.03.1-.06.2-.09.29.28-.14.45-.41.7-.56.26-.16.39.26.51.48.16.29.34.62.42.95.45,1.92,1.63,3.24,1.63,3.24.12,1.24.67,1.66.68,1.55.01-.12.15-.34.15-.34,0,0-.05.54.86.94.9.41,1.64-.1,1.68-.22.04-.13-.63-.71-.63-.71.01-.18-.03-.24-.18-.37-.83-.71-1.15-1.78-1.19-2.27-.03-.5-.07-1.84-.07-1.84,0,0-.27-1.79.75-2.57,1.03-.77,1.82-2.3,1.82-2.3,0,0,.9-.21,1.33-1.01.44-.8.66-.82,1.54-1.32.88-.49,1.84-1.57,2.46-2.58.61-1,1.18-1.63,1.18-1.63.32,0,.2-.27.2-.27,0,0-.09-.2-.18-1.19-.1-.99-.3-1.12-.55-1.09-.26.04-.28.31-.28.31-1.22.49-2.61-.21-2.61-.21,0,0-.43-.41-.65-.44-.23-.03-.61-.23-.8-.54-.34-.55-1.15-.81-1.76-.83-.22-.34-.76-.86-1.12-.45-.12.14-.18.31-.33.41-.22.17-.53.11-.79.11.03.19-.4.19-.54.22.08.11.04.26-.07.34-.11.07-.25.06-.38.06.07.04.13.09.18.15-.05.02-.1.03-.14.05.09.03.17.08.24.14-.16.01-.32.02-.48.02.06.08.12.17.17.25-.18.02-.36.05-.54.07.06.06.11.11.17.16-.32.11-.64.18-.97.23.08.04.15.09.22.13-.15.05-.31.11-.46.16.1.05.19.09.28.13-.2.07-.4.11-.61.1.01.06.03.12.04.18l-.6.12c.04.03.09.07.14.1l-.33.03c.04.05.07.1.1.14-.26-.01-.53.02-.79.09.08.06.15.11.23.16-.12.04-.26.06-.39.07.04.02.06.06.06.11-.21.03-.42.04-.62.02.01.04.03.08.05.11-.39-.04-.79-.04-1.18,0,.04.06.09.11.13.17-.2.06-.41.09-.62.09.03.04.06.08.09.11-.19-.04-.39.01-.54.11-.18.01-.36.02-.54.02-.09.19-.33.3-.53.24,0,.11-.15.15-.27.16-.27.04-.52.19-.8.21-.27.01-.56,0-.83-.02-.29-.01-.65-.02-.93-.13,0,0-1.25-.46-2.13-.58-3.47-.46-5.42,1.78-5.42,1.78l-.39.34h-.01l-.02.02c-.0643822872.1083114537-.299362842.447276591-.4291644129.6332422225Z"/><path class="cls-6" d="m17.0403065576,15.4116248085c-.0191040039-.0093994141-.0376586914-.0245361328-.0305786133-.0511474609.0221555385-.0833731836.0339963435-.1828593239-.0005482725-.264645966-.0431281241-.102108659-.3318508244-.0261714072-.4242342086.0030918999-.2334158492.0739366687-.403943156.2205806366-.6614542797.244492486l.0968171097-.1474121593c-.3953773794.4325711514-1.0242887703.5406688635-1.6043774704.6239645605l.1079980363-.0889088166-1.1187483718.138933444.1516900982-.1468773129c-.3094567776.03474597-.6189135556.0694919401-.9283703335.1042379102-.0594754766.0066779424-.1232416338.0125890359-.1759222472-.0158130791s-.0825882446-.1057562076-.0421221714-.1498518319c-.4056147093-.0006723773-.8112131777-.0111617071-1.2163205117-.0314557477.0197951416-.0300377097.0395902839-.0600754188.0593854261-.0901131279-1.0669869002.095338707-2.1433848458.0850495935-3.2083542918-.0306681387l.1052988473-.132381677c-.277651691-.0225984105-.5558064751-.0390154248-.8341887923-.0492347789l.0975134664-.1954192003c-.4190196366.0087386153-.839281957-.0446106597-1.2428277793-.1577680213-.1720349489-.0482399225-.4573167749-.1383698939-.6202417702-.0174938313-.1440472662.1068704426-.1350872538.3098489005-.0040662141.4191925288-.0700073242.0100097656-.1499633789.0100097656-.2199707031.0200195312.1399536133.1098632812.2899780273.2299804688.4400024414.33984375-.0700073242,0-.1300048828-.0100097656-.200012207-.0198974609.2399902344.0699462891.4699707031.1999511719.6499633789.3699951172-.049987793.0100097656-.1099853516.0100097656-.1699829102.0200195312.1500244141.0899658203.2899780273.1899414062.4400024414.2800292969.0300292969.0200195312.0599975586.0499267578.0599975586.08984375,0,.0100097656,0,.0200195312-.0100097656.0300292969.3500366211.1101074219.700012207.2299804688,1.049987793.330078125-.049987793.0200195312-.0999755859.0400390625-.1399536133.0700683594.25.08984375.5199584961.169921875.7799682617.2399902344-.0700073242.0100097656-.1400146484.0499267578-.1900024414.1098632812.2900390625.0400390625.5800170898.080078125.8699951172.1201171875-.0899658203.0499267578-.1699829102.0998535156-.2599487305.1499023438.4499511719.0100097656.8899536133-.0400390625,1.3299560547-.1499023438-.0700073242.0499267578-.1300048828.1098632812-.200012207.1599121094.3099975586.0200195312.6200561523-.0400390625.9100341797-.1599121094-.0800170898.0599365234-.1500244141.1098632812-.2299804688.169921875.3899536133-.0400390625.7799682617-.1099853516,1.1599731445-.2099609375-.0700073242.0400390625-.1500244141.0899658203-.2199707031.1398925781.3499755859-.0499267578.6899414062-.1298828125,1.0299682617-.2399902344-.0900268555.080078125-.1699829102.16015625-.2600097656.25.4800415039-.1298828125.950012207-.2799072266,1.4199829102-.4599609375-.1099853516.0600585938-.2099609375.1101074219-.3199462891.1700439453.3499755859-.0899658203.6799926758-.2600097656.9599609375-.4799804688-.0399780273.0499267578-.0799560547.1099853516-.1199951172.1700439453.2700195312-.0300292969.5300292969-.16015625.7200317383-.3601074219-.0200195312.0600585938-.0400390625.1201171875-.0599975586.1800537109.2699584961-.1300048828.5-.3299560547.6699829102-.5799560547-.0300292969.0599365234-.049987793.1098632812-.0700073242.169921875.3900146484-.1398925781.75-.3499755859,1.0700073242-.6199951172-.0300292969.0999755859-.0599975586.2000732422-.0900268555.2900390625.2774047852-.138671875.4475097656-.4039306641.6936645508-.5546875Z"/><path class="cls-11" d="m30.191347218,5.1210250687s-.0900268555-.200012207-.1799926758-1.1900024414c-.1000366211-.9899902344-.299987793-1.1199951172-.549987793-1.0900268555-.2600097656.0400390625-.2800292969.3099975586-.2800292969.3099975586-1.2199707031.4900512695-2.6099853516-.2099609375-2.6099853516-.2099609375,0,0-.4299926758-.4100341797-.6500244141-.4400024414-.2299804688-.0300292969-.6099853516-.2300415039-.799987793-.5400390625-.3400268555-.549987793-1.1500244141-.8099975586-1.7600097656-.8299560547-.2199707031-.3400268555-.7600097656-.8600463867-1.1199951172-.450012207-.1199951172.1400146484-.1799926758.3099975586-.3300170898.4099731445-.2199707031.1700439453-.5299682617.1100463867-.7899780273.1100463867.0300292969.1900024414-.4000244141.1900024414-.5399780273.2199707031.0799560547.1099853516.0399780273.2600097656-.0700073242.3400268555-.1099853516.0699462891-.25.0599975586-.3800048828.0599975586.0700073242.0399780273.1300048828.0899658203.1799926758.1499633789-.049987793.0200195312-.0999755859.0300292969-.1400146484.049987793.0900268555.0300292969.1699829102.0800170898.2399902344.1400146484-.1599731445.0100097656-.3200073242.0200195312-.4799804688.0200195312.0599975586.0800170898.1199951172.1699829102.1699829102.25-.1799926758.0200195312-.3599853516.049987793-.5399780273.0700073242.0599975586.0599975586.1099853516.1099853516.1699829102.1599731445-.3200073242.1099853516-.6400146484.1799926758-.9699707031.2300415039.0799560547.0399780273.1499633789.0899658203.2199707031.1299438477-.1499633789.0500488281-.3099975586.1100463867-.4599609375.1600341797.0999755859.049987793.1900024414.0899658203.2799682617.1300048828-.200012207.0700073242-.3999633789.1099853516-.6099853516.0999755859.0100097656.0599975586.0299682617.1199951172.0399780273.1799926758-.200012207.0400390625-.3999633789.0800170898-.5999755859.1199951172.0399780273.0300292969.0899658203.0700073242.1400146484.1000366211-.1100463867.0100097656-.2200317383.0199584961-.3300170898.0299682617.0399780273.0500488281.0700073242.1000366211.0999755859.1400146484-.2598878859-.0100050735-.5297151775.0199913875-.7896123816.0899284339.0345641182-.0093010325.1846726922.1347343308.2171703699.160620438-.6559214304.1097540348-1.2561434994.3973807719-1.9367275892.4560212155.9615256054.4771564842,2.0011145762.9677176692,3.0625257623.8076674135-.177862788.1279214336-.3557255761.255842867-.5335883642.3837643003.5192474318.050594367,1.0499626381-.0204991088,1.5375870207-.2059718719-.1925851354.1686827098-.3851702714.3373654181-.5777554075.5060481265.4629867538.0435210042.9371129677-.0377683958,1.3591603212-.2330293569-.0852819786.1996942708-.1705639572.3993885413-.2558459359.5990828119.4399909164.0711505343.8994951981.0173149087,1.3111243109-.1536116211-.0890796194.3079570805-.2112653205.606326215-.363772978.888308761.4982478015.1086455462,1.0213005295.1018365503,1.5165513174-.0197421616-.1400727159.3354007158-.3146400682.6563839336-.5200568768.9562471349.4814669064-.1454915822.9515928249-.3284962413,1.4047128882-.5468088-.0829354331.1994807938-.1658708676.3989615868-.2488063022.5984423797.5071335483.044183548,1.0224446467-.0073789728,1.5107693709-.1511690194-.1823886645.1754265557-.336765614.3799158383-.4555180563.6033838653.2224686341.0184998469.4507130102-.0421375959.6346666922-.1686112299-.0491061529.3390683201-.2336748319.6565922062-.5040051414.8670684617.4622243766.0882935239.9510913646.0314631531,1.3807350488-.1605092299-.0394231198.3635745844-.2224315088.7096218316-.500748526.9468564374.1803233439-.0008335872.3593915602-.0723327203.4906980698-.1959279478-.1359430481.1598823926-.1865475424.3883857879-.1308203629.5907157017.3073610761-.1473798976.588749642-.3487344081.8274330913-.5920901296-.0343009396.1558705767-.0686019412.3117411203-.1029029427.467611664.3003001285-.2451590907.5535525748-.5477394595.7419958381-.8865200304-.0269176199.1317936919-.0538352383.2635873849-.0807528568.395381078.4004338647-.1692806093.7432400232-.4717053072.9611260887-.847908533-.0615756505.1436722384-.0887968485.3019323938-.078763809.4579215311.325512-.2572496105.5440954366-.6458089711.5949366452-1.0575741903.038709193.1839977933.0774183612.3679955849.1161275294.5519933766-.0294383496-.474961816.0128625543-.9543061079.1250264833-1.4167718863.052075909.1872116486.1041518159.3744232986.1562277229.5616349487-.0431257373-.1550353156.4711061846-.8642021059.5553620876-1.0319925193.1898969911-.3781680983.3704573721-.7619346188.5348546696-1.1519254244.1216834206-.2886629888.1832694825-.4433539655.3956410162-.6399205137.1094412869-.1012965138.4199310996-.0080862872.2952695997-.2885989655Z"/><path class="cls-10" d="m24.908148577,2.8426146c.0013501748.0068432467.0940901288.4782973536.0505122558.6453458667,0,0,.262995604-.0073054334.3655819633.1240853716.0835304463.1069843268-.0781439074.172789123-.1541333262.2031238857-.0499077188.0199230212-.0773969678.0137843435-.1105735495.0693981139-.0506004443.0848213214-.0549721061.18388327-.1185323435.2667573064-.0017116168-.0143621131-.0034232331-.028724226-.0051348494-.0430863389-.0255178353.0673906574-.0722017398.1265902294-.1317858029.1671167661-.0011925477-.014556181-.0023850832-.029112352-.0035776187-.043668523-.028827259.0263743349-.0576544834.0527486748-.0864817078.0791230146-.0144765497-.0189825401-.0195869651-.0447754284-.01344207-.0678437514-.0235278352.0246151029-.0470556646.049230209-.0705834939.0738453151-.0063217714-.0199243347-.0172023563-.0383872888-.0315699124-.0535700832-.030505071.0279278011-.0650937496.0513878884-.1023231396.0694016043-.0058197411-.028093767-.011639482-.0561875343-.0174592228-.0842813015l-.0925604831.0680649849-.0449115109-.0904163414c-.0289826622.0370887078-.0679017027.0663375045-.1115878142.0838615034.0027040275-.0183190337.0000538843-.0373961488-.0075410587-.0542844798-.0210430797.0167113755-.0447396411.0300743805-.069928445.0394341641-.0060327406-.0287346826-.0120654807-.0574693644-.0180982207-.0862040462-.02430152.0276420141-.056176795.0485581483-.0912075859.0598492181.0055688753-.0017949509.0671049173-.2066433345.0954815148-.2349732522.059759534-.0596612289.1390462301-.0784540917.1315673364-.1849845299l.0298054503.0686062076c.0526664896-.07245787.0859793917-.1588488111.0955947199-.2479074857.0075060191.0333825844.0150120382.0667651688.0225180576.1001477531.0543718806-.0531000807.0958554067-.1193059126.1199241269-.1913934774.0089134813.0308492963.0178269625.0616985927.0267404487.0925478904.0386952894-.0621410688.0618206937-.1338953779.0666929293-.2069371412.0073402093.0720030674.0146804185.1440061347.0220206283.2160092022.0604040941-.1951365549.0911519814-.3994237618.0908640065-.603695264-.018825068.0402500437-.0376501359.0805000873-.0564752042.1207501308.0390154401-.1018859281.0796318789-.2033132801.1170893164-.3057803716.0105886783-.0289659714.0824825539-.1547885028.1035146053-.0484419116Z"/><path class="cls-7" d="m25.1316190709,3.8441652715s.1847326587-.0146322898.2304585643-.1390067531c.0091451811-.0274355434.203023021.1847326587.203023021.1847326587,0,0-.1243744633-.0438968694-.2011939847-.0420678332s-.1973288056.0872514712-.2668321821.0707901452c-.0261851369-.0065166691.0142693049-.0717952532.0345445815-.0744482176Z"/><path class="cls-14" d="m29.2012246715,3.1985154841s-.004998136-.3226898276.2430490452-.3479066087c.2288423009-.0508232883.3751651989.0936705735.4613911074.3865116495.093892989.3188800721.1658633189,1.1103037495.1658633189,1.1103037495,0,0,.077794603.6175883498.1402390428.7688741052s-.0337514341.2183313645-.0337514341.2183313645c0,0-.0812492186.055205122-.1637844782.0560240692s-.151038382-.0210437514-.1583259482-.0254162912-.1184257658.0961551875-.4099284141-.8512284197c-.1734198269-.4924273171-.2447522397-1.3154936183-.2447522397-1.3154936183Z"/><path class="cls-13" d="m21.6436600143,4.6309798069c-.1932610674-.1847203013-.3512049183-.4512372545-.4234920679-.8299683588-.222170744-1.1640100851-.0076143819-1.2215777552-.1603264566-1.6469899632,0,0-.1063984667-.3352280456-.2040518539-.5684301643-.0488237135-.1165939426-.0499176261-.1158529534-.0912756656-.249589468s.0081974108-.0870960909.0912756656-.0856385776.228829579-.0655880959,1.0494095341.1538676724c.2672603603.0404477334.5822742716-.0035529458.8599328127.1084847111.8307825478.3352280456.9473836072,1.3117619176.6996063561,1.9676428764s-.3935285753.7870571506-.3935285753.7870571506c0,0,.1603236298.6558693948-.2186169642.7287546934-.3120063413.0600111954-.6642314235-.0145591798-.939039214-.1670617973-.142101048-.0788579601-.2945438749-.1710633711-.3886746051-.3040704286-.1319452528-.1864391127-.2648236334-.3660314569-.4258584365-.5291451138.0319392492.0208453312.0601484588.047387791.0828979785.0779999264-.1312702027-.3075600371-.2637877072-.6145877109-.3975481534-.9210729232l.0861689668.0715534653c.0053943125-.1513594686-.0212197611-.3037839611-.0775873747-.4443594905.0466698455.0855240235.1172446444.1578395788.2016063474.2065790508-.0487259198-.216671164-.1267412237-.4267358735-.231257891-.6226870788.0102343222.0302540225.037673264.0540107568.0690804981.0598101429-.0001579768-.1138162035-.0264117867-.2275184153-.0761696676-.3298820146.0462323501.0782754395.1049816043.1491401665.1733329231.2090782333.0060422551-.1002345868-.0108070353-.2017814461-.0488973535-.29469328.0007542292-.1599068677-.0520092127-.3196065817-.1478797818-.4475894291.0977954536.0914931802.2112294525.1662276274.3338904592.2199791874-.0782687706-.1128750582-.156537541-.2257501168-.2348063115-.3386251754-.0607974021-.0876787538-.1221759441-.1764422144-.1603576239-.2760717643.0265745345.0466648963.071051388.0828327099.1221545142.0993338831.0146616724-.0530844552.0050949388-.1123602009-.0255223074-.1581369227.076058312.0913000371.1777625878.1610016184.29035624.1989915263.0241642209-.0417754147.0146465558-.1000182172-.0215588943-.1319284098.0445748216.0658358536.1038555161.1216552068.1722509342.1621933596.0299706628-.0366210818.0502786393-.081079441.0583362486-.1277101084.1262860334.1176598307.2684497169.2182560957.4214223545.2982021411l.0411041458-.1269902845c.1150838593.1048444039.2556939627.1814675351.4061820371.221342128.0212231731-.0384852805.0257736859-.0858053012.0122734684-.127629744.0594950974.0357056108.1215654048.067119267.1855691752.0939161815l.0563123418-.1152317968c.0325367276.0488134768.0731020742.1025675244.1315914564.1070826469s.1078803853-.0849484471.0564306422-.1131320966c.086008017.0638156117.1630394908.1397112839.2281255685.2247619381l.065328192-.2337922773c.0813781818.116015986.1397935318.2480724532.1708932219.3863291953.0501479761-.0657949229.0907935711-.1388207567.1202863276-.2161122096.0854674683.1589494836.1295880297.3399059258.1268725312.520356064.0305856744-.0651930868.0611713401-.1303861745.0917570059-.1955792622.036377612.1304842803.0518106771.2667837378.0455292281.4020982636"/><path class="cls-13" d="m22.1361152695.5550857902l-.0876449553-.0983671075c.0101828987.1085559482.0203657974.2171118964.0305486955.325667845l-.0354434594-.0374000616c.0355256688.098573294.0710513376.1971465879.1065770057.2957198831-.0359026821-.0002811321-.0715337908-.0141973219-.0981235183-.0383234076.0037875766.1027014134.0037127032.2357753428.1181488897.245823165.0680482562.0059748302.176541266-.0476918212.2439193122-.0625656951.1727592309-.0381370367.3483912972-.0663436289.5252516915-.0752410215.106959092-.0053808374.1961850499.0119353803.2696062243-.078237676-.0123599014.0151903219-.0293650768.0265615853-.0436846352.0392500126-.0079731848-.0398441094-.037753175-.2300863471-.007162403-.2606771191-.0352496458.0305137174-.0704992915.0610274348-.1057489378.0915411522-.0026672752-.1002177928-.0225480216-.1999551637-.0585108389-.2935361239-.0108779716.046026348-.0339397846.0891152669-.066203661.1236955705-.0559164375-.0823142773-.0833156331-.1836162893-.0765144262-.2828938383-.0098313781.0564832066-.0196627561.1129664132-.0294941502.169449623-.0441501491-.146105716-.1118573646-.2850652847-.1997101772-.4098771392.0513865016.0609835717.0119915152.1529559683-.0286438676.221573271-.0661574028-.086744896-.1196712152-.1831166703-.1583292966-.2851315304l-.0309545387.0878043635c-.0642814658-.0663092728-.1142289849-.1464447985-.1454504824-.233359956l-.0288468755.1734903204c-.0508358292-.0448821847-.0923793168-.1002426276-.1212650272-.1615965824.0701760949.1038395655.1000532516.2341851091.082110078.3582229348-.0448569156-.0277892884-.0831522293-.0660950133-.1109293232-.1109594812.030799319.0952552895.0497851053.1943237093.0564986768.2959285987Z"/><path class="cls-4" d="m24.9348400237,3.2278725716s-.1120605646.3546913896.0215702398.4721458334c.0325797078.0286358484.1423218813-.1798742812.1313476639-.2155404876s-.0939467816-.1069986192-.0949855917-.1701003689-.0246667156-.1340027614-.057932312-.0865049769Z"/><path class="cls-3" d="m26.8253066152,6.3151932115c-.027345803.0022172273,2.7663867521-1.0764553016,2.9145386864-1.0490197583,0,0,.022893491.1245027791.2743859719.1244803601,0,0-.1454083799.2048136437-.3155087488.191095872-.0534441442-.0043100116-.3182269032-.0233810143-.6563083883.0942314353-.7379538076.2567208168-2.0082552479.6222781228-2.2171075212.6392120909Z"/><path class="cls-5" d="m1.7321972702,21.9681159844s-.5171536167-.2905877692-.6719008297-.6064995258c-.0515824043-.1070023692-.0194493957-.382212227-.0194493957-.382212227,0,0,.5209822838.0356674564.6241470925,0,0,0,.0825318469.3770559676.2940197047.4585815822s.5950268675.2670039584,1.2965475665.3179574675l.6793602336.8849578269s.1035964127.1306278697-.3355384215.1503151814-.7402524469.0681973053-1.1588208441-.1082661112c-.2836818327-.1195968585-.5698623093-.3816435029-.7083651064-.7148341941Z"/><path class="cls-5" d="m7.2592269589,21.712988746s.2321898785.2693447192.6254705278.2693447192.9316904736-.099232265,1.1857878755-.1488483974.2669411436-.1754714146.1761840707-.2687208364-1.1042110537-.9270089586-1.1848840074-.948949999-.4134488877-.0603378612-.7512668813.0383968208-.709338703.2507435353-.709338703.2507435353l.6580471177.8080341576Z"/><path class="cls-5" d="m6.4611005042,20.9155866168s.1433369959.6379217034.06515318.6379217034-.2475820839-.0567041514-.4137226928-.4004730693-.2736433559-.435913164-.1726559269-.4323691545.3029622869-.0956882555.5212254398.1949205205Z"/><path class="cls-5" d="m15.4686033172,20.2062216627s.1189045535-.0939162508.1384505074-.1346723596.06515318-.1045482792.1091315765-.0531601419.0830703045.2144125725.2622415494.3969290599c.0309477605.0336680899.1514811434.2539597381-.0212504649.4453362491-.104245088.1080922886-.1759135859.4784412775-.1759135859.4784412775,0,0-.3728212953-.7553520377-.3126595825-1.1328740849Z"/><path class="cls-5" d="m16.1172158147,20.6240918384s-.0067943911.1930143249.0183175011.3588309581c.0221290576.1461206425.0760359238.3068025863.0985441847.382753022.0480504702.1621384329.1867686111.4800790637.5994092558.5705855236s1.1923031935-.1523924069,1.1268757236-.2507875782c-.0865214255-.155671111-.369379932-.4706335913-.4059851504-.5864818599,0,0-.1285278189.1144440055-.451319291.1072034887s-.9858422238-.5821035543-.9858422238-.5821035543Z"/><path class="cls-5" d="m19.8165320186,20.2764495431s.5506413245.5056762562.5846438036.8320864092c0,0-.1649617371.1770912766-.1649617371.2498685136s-.0679254212-.0363886185-.0679254212-.0363886185c0,0-.2459264132-.4568287812-.3517566453-1.0455663043Z"/><path class="cls-5" d="m22.2230326541,21.3195899395s-.766586896.2183317109-1.4312856602-.1212953949c-.2280353425-.1115917633-.1455544739.0951884564-.1455544739.0951884564,0,0,.0873326844.4967330709.6113287905.6811020712s.574940172.1643747499.7568832644.1649617371.5239961061-.0436663422.6646987642-.1795171845c.1018881317-.0800549607.0048518158-.1601099213.0048518158-.1601099213l-.4609225007-.4803297639Z"/><path class="cls-2" d="m27.6448576421,4.9151884343c.0205188159.1848475811.0307209703.3864342976.0035648118.5764197683-.0310001798.2168783836-.138567804.3669783573-.2202797943.5614654713-.0076473173.0182018006-.014905022.0388524987-.0075033096.0571555489.0112399374.0277942475.0476444424.0330673435.0776132302.0339206023.1595680841.0045431533.334008118-.0011545647.4561203268-.1039700004.2750386086-.2315756439.1966999534-.7985078984.1372511937-1.1061097077-.0964054404-.4988257999-.3809622642-1.2499120419-.9781346466-1.2872050333.2141800393.3177743305.3969380924.6066401793.4840136387.9882134861.0210759909.0923577716.0369004947.1859335259.0473545492.2801098646Z"/><path class="cls-8" d="m21.788646393,3.2824623476l.0930533026.0496393734c-.0879569726-.2433627898.0442424227-.553073534-.1196206769-.7533502453l.076244935.103334878-.045479737-.2151778296.0654375625.0481724877c-.0291131495-.1266046532-.0857408814-.2468080098-.164824345-.3498716769l.1414381845.2144035807c.020172452-.0952705483.0149864997-.1957903298-.0148830314-.2884791442.0551570943.1143477189.1248730079.2216631533.2069314913.3185347754.0488840106-.0212095176.0888001055-.0622834501.1086035444-.1117537841.0356737982.0702491755.0770012467.1376263464.1234512573.2012656666.0105752041.014488706.0233712598.0299660702.0411767452.0321391268.0211265266.0025783234.0391629785-.0146256656.0520955622-.0315290839.0432398549-.0565163873.0690367381-.126191663.0730269866-.1972399864.045107221.122701875.1200661162.2343096169.2165870376.3224806107.0288541823-.0207718289.0314093777-.061995532.0312377221-.0975483553.1841433394.1954623625.245375249.4978678372.1517747452.749568553-.0072611645.019526006-.0186243451.0414568872-.0391971935.0447351979-.0173742643.0027685347-.0333219405-.0092932736-.0464180166-.021041544-.0917645168-.0823205241-.1639771444-.186293478-.2090730377-.301026886-.065993184.1175130217-.0258383745.2637009858.0157454396.3919008198l-.2405938704-.1644346121c-.0022654537.0972709172.0299406061.1949989636.089592551.2718651401-.0475982384.0052482616-.0969672461-.023772592-.115532445-.0679140684-.0228153236.0571161298-.0459371335.1156139831-.0484172742.1770683578-.0024661504.061107718.0193094534.1178690599.0642689175.1594815046-.2376163243-.0042254337-.453058026-.2704313257-.506626357-.4852228566Z"/><path class="cls-11" d="m28.4880861378,7.4975923778c-.1620068348.4577992165-.420529144.8811881022-.7537531657,1.2344416776.0620624458-.0373084758.0804391106-.1312545197.0370088345-.1891982916-.1769670436.198274284-.3539340833.3965485719-.5309011231.5948228598.0234066582-.050834245.031663466-.1085308762.0234538012-.1638896471-.0870914188.2792946176-.2819333357.5234783899-.5349280865.6703935176.0313741045-.0721311287.0388894086-.1544070125.0211027849-.2310286164-.2073150099.2846257102-.4657750162.5318825513-.7593023094.7263897046.0446749845-.0844692864.0673767017-.1804411037.065280435-.2759739266-.1614971822.3424339222-.3956310127.6503986218-.6824037361.8975903193.0406910992-.1026598284.0533869496-.2162594516.0363631693-.3253694755-.1423888704.2655314191-.3292749997.5071324213-.5505053403.7116774268.064690669-.0419238726.070960773-.1493423127.0115870763-.1985079291-.2268840965.4499373519-.563518398.8440396754-.9724576181,1.1384692627.021889699-.1493225282.0206293836-.3020160321-.0037221504-.4509568886-.0838567429-.5128915144.1765273856-1.0257082962.2850050286-1.5339624254.0938639135-.4397840175.1943730582-.8946640958.4627554573-1.2554844154.1685204367-.2265633013.394325327-.4031119718.6210103513-.5714686167.2515738319-.1868412093.5078529791-.3672447538.7640992272-.5476245383.1928952973-.1357851584.3887919587-.2731539596.6107930753-.3529142762.3505083285-.1259302669.7350122436-.0982018347,1.1062970898-.0688405869.2677236434.02117162.5018355705.0737102157.7432171987.1914348656Z"/><path class="cls-9" d="m.97,7.6310060129c.17-.14.37-.27.58-.37.19-.11.39-.18.5899999962-.22.0832100635,0-.0665568291.3022256555-.077783382.32043756-.0745950271.1210093171-.1532366847.2395219994-.2357633188.355267694-.0072825399-.027583751-.014565091-.0551675165-.0218476422-.0827512821-.0920502096.1141306734-.1525324328.2534618842-.1730477148.3986451086-.004065277-.0157006327-.0081305575-.0314012672-.012195838-.0471019017-.1300872926.2379231823.0030970558.5392249482-.0647873613.8017546619-.0373831298-.0582503234-.0658934218-.12218356-.084246712-.1889200216-.0731195236.2369670142-.1462390385.4739340274-.2193585535.7109010405l-.024077912-.0463078195c-.0096480617.2100153837.1309142111.4148504402.0834546036.6196604311-.0340634381-.0428590119-.0612997523-.0911325518-.0803714377-.1424500303.0323580734.2184030394.0126761772.4443396557-.0569591663.6538577971-.0440442518-.0398200443-.0766265639-.0921768652-.0928987285-.1492798296.0303379784.1747645705-.0083872279.360570678-.1060145994.508665054-.0004805183-.038011923-.0009610343-.0760238455-.0014415502-.1140357679.0354406625.1568180067.0053736846.3273837862-.0815516881.4626313647.0125471257-.0265234037.0250942513-.053046808.0376413736-.0795702028-.0449610106.1263914875-.0599425767.2552784584-.0933548467.383651313-.034129696.1311292676-.100938103.2611779697-.1553955218.3849448306-.05-.04-.09-.11-.09-.17-.1.34-.25.74-.59.83.23-.29.4-.63.48-.99-.03.04-.05.07-.08.11.06-.15.05-.32-.04-.45-.08.05-.15.1-.23.15.2-.16.26-.45.15-.68-.08.08-.17.15-.26.23.11-.28.21-.55.31-.82-.1.09-.19.2-.25.32.07-.23.14-.45.22-.68-.07.09-.16.16-.27.19.11-.24.25-.46.42-.66-.08.09-.19.16-.31.19.21-.19.38-.41.53-.65-.05.03-.13-.01-.15-.07-.01-.08.05-.15.11-.21.06-.05.13-.1.16-.18-.05.01-.1.01-.15.02.13-.15.27-.3.41-.45-.11.03-.22.05-.32.08.05-.06.09-.11.15-.17.02-.03.05-.07.08-.1"/></g></g></svg>