<?xml version="1.0" encoding="UTF-8"?>
<svg id="Livello_1" data-name="Livello 1" xmlns="http://www.w3.org/2000/svg" version="1.1" viewBox="0 0 1086.2 1327.7">
  <defs>
    <style>
      .cls-1 {
        fill: #30917a;
      }

      .cls-1, .cls-2, .cls-3, .cls-4, .cls-5, .cls-6 {
        stroke-width: 0px;
      }

      .cls-2 {
        fill: #2c7c67;
      }

      .cls-3 {
        fill: #4db295;
      }

      .cls-4 {
        fill: #90ddc3;
      }

      .cls-5 {
        fill: #53c19f;
      }

      .cls-6 {
        fill: #4da290;
      }
    </style>
  </defs>
  <ellipse class="cls-6" cx="542.5" cy="663.5" rx="541.7" ry="662.9"/>
  <ellipse class="cls-4" cx="542.5" cy="346.2" rx="386.8" ry="313.2"/>
  <ellipse class="cls-4" cx="542.5" cy="975.4" rx="386.8" ry="318.6"/>
  <path class="cls-3" d="M369.4,547.9c-28.8-34.1-81.4-98.2-92.6-169.7-14.9-95.3-11.9-192,23.8-224.7,35.7-32.7,72.2,15.6,75.2,70,3.4,62.4,7.6,103.9,18.9,177.4,9,58.6,61.5,150.4,66,166.8,3.5,12.8,9.1,28.4-25.9,23-9.6-1.5-41.2-14-65.5-42.7Z"/>
  <g>
    <path class="cls-1" d="M328.9,239.9c10.8-.3,21.6,9.6,27.2,33.9,7.2,30.9-3.7,45.9-18.7,48.9-14.3,2.9-34.6-7.6-38.6-34.8-5.4-36.5,18.3-47.6,30.1-48Z"/>
    <path class="cls-2" d="M352.8,312.8s-2.7,4.6-8.4,7.4c-8.1,4-21.2,5.6-30.4-4.6-12.9-14.2-18.5-26.6-14-47.5,4.5-20.8,22.3-30.5,29-28.3,6.7,2.2-18.8,8.7-11.9,44.1,2.4,12.3,6,19.9,14.1,26.6,8.2,6.7,21.6,2.2,21.6,2.2Z"/>
  </g>
  <path class="cls-3" d="M670.8,551.9c32.5-30.7,81.3-95.1,100.3-164.8,25.4-93,33.2-189.5,1.3-226-31.9-36.5-75.2,7.2-82.5,61.2-9.5,71-10.3,108.5-29.7,180.2-15.5,57.2-28.3,113.3-49,144-7.5,11-45.7,42.1-10.3,40.6,9.7-.4,42.5-9.4,69.8-35.1Z"/>
  <g>
    <path class="cls-1" d="M734.7,243.7c-10.7-1.5-22.5,7.1-30.8,30.6-10.6,29.9-1.4,46,13.1,50.7,13.9,4.5,35.2-3.7,42.2-30.3,9.4-35.7-12.9-49.4-24.5-51Z"/>
    <path class="cls-2" d="M703,313.5s2.1,4.9,7.5,8.3c7.6,4.9,20.4,7.9,30.7-1.2,14.4-12.7,21.4-24.4,19.2-45.6-2.1-21.2-18.8-32.8-25.7-31.3-6.9,1.5,17.7,10.8,6.9,45.2-3.8,11.9-8.1,19.1-17,24.8-8.9,5.7-21.7-.2-21.7-.2Z"/>
  </g>
  <path class="cls-3" d="M308.1,852.3c35.4,27.2,90.5,86.3,116.5,153.8,34.7,90,52.3,185.1,24.3,224.7-28,39.6-75.6.4-88.3-52.5-16.7-69.7-21.2-106.9-47.8-176.3-21.2-55.3-39.7-109.9-63.3-138.2-8.5-10.2-49.7-37.3-14.4-39.3,9.7-.6,43.2,5,73,27.9Z"/>
  <g>
    <path class="cls-1" d="M403,1152.4c-10.5,2.6-23.1-4.8-33.8-27.3-13.5-28.7-6.1-45.6,7.9-51.7,13.4-5.8,35.4.1,45.1,25.8,13,34.6-7.8,50.4-19.2,53.3Z"/>
    <path class="cls-2" d="M364.3,1086.1s1.6-5.1,6.6-9c7.1-5.6,19.5-9.9,30.7-2,15.6,11.1,23.7,22.1,23.8,43.4,0,21.3-15.4,34.5-22.4,33.8-7-.8,16.6-12.5,2.3-45.6-5-11.5-10-18.2-19.4-23-9.4-4.8-21.6,2.4-21.6,2.4Z"/>
  </g>
  <path class="cls-3" d="M434.6,446s-18.6-67-18.6-154-3-148.8,40.9-174.1c43.9-25.3,55.8,35,61,50.6,5.2,15.6,17.1,110.1,12.7,168.2-4.5,58-6,148.1-6.7,174.1-.7,26-1.5,81.1-14.1,77.4-12.7-3.7-58.1-58.2-75.2-142.1Z"/>
  <g>
    <path class="cls-1" d="M482.1,205c10.7,1.7,19.5,13.4,20.6,38.3,1.4,31.7-12.1,44.4-27.3,44.6-14.6.2-32.6-13.8-31.6-41.3,1.4-36.9,26.7-43.5,38.4-41.7Z"/>
    <path class="cls-2" d="M492.1,281s-3.5,4-9.6,5.7c-8.7,2.4-21.8,1.6-29.1-10.1-10.1-16.3-13.3-29.6-5.1-49.2,8.2-19.7,27.6-25.9,33.7-22.5,6.2,3.4-20.1,5.1-19.8,41.2.1,12.5,2.2,20.6,9,28.7,6.8,8.1,20.8,6.2,20.8,6.2Z"/>
  </g>
  <path class="cls-5" d="M439.1,1095.1s-18.6-67-18.6-154-3-148.8,40.9-174.1c43.9-25.3,55.8,35,61,50.6,5.2,15.6,17.1,110.1,12.7,168.2-4.5,58-6,148.1-6.7,174.1-.7,26-1.5,81.1-14.1,77.4-12.7-3.7-58.1-58.2-75.2-142.1Z"/>
  <g>
    <path class="cls-1" d="M486.6,854.1c10.7,1.7,19.5,13.4,20.6,38.3,1.4,31.7-12.1,44.4-27.3,44.6-14.6.2-32.6-13.8-31.6-41.3,1.4-36.9,26.7-43.5,38.4-41.7Z"/>
    <path class="cls-2" d="M496.6,930.1s-3.5,4-9.6,5.7c-8.7,2.4-21.8,1.6-29.1-10.1-10.1-16.3-13.3-29.6-5.1-49.2,8.2-19.7,27.6-25.9,33.7-22.5,6.2,3.4-20.1,5.1-19.8,41.2.1,12.5,2.2,20.6,9,28.7,6.8,8.1,20.8,6.2,20.8,6.2Z"/>
  </g>
  <path class="cls-3" d="M548.6,1064.8s-4-69.4,14.4-154.5c18.4-85.1,28.6-146.1,76.9-161.5,48.3-15.4,47.1,46,48.9,62.4,1.8,16.4-6.6,111.3-23.3,167.1-16.7,55.8-37.2,143.5-43.4,168.8-6.2,25.3-18.6,79-30.2,72.6-11.6-6.3-44.5-69.2-43.4-154.8Z"/>
  <g>
    <path class="cls-1" d="M646.1,839.3c10.1,3.9,16.2,17.2,12,41.8-5.4,31.2-21.2,40.9-36.2,37.8-14.3-2.9-29-20.4-22.1-47,9.2-35.8,35.3-36.8,46.3-32.6Z"/>
    <path class="cls-2" d="M639.7,915.7s-4.2,3.2-10.6,3.6c-9.1.5-21.7-3.1-26.3-16-6.4-18.1-6.7-31.7,5.5-49.2,12.2-17.5,32.4-19.5,37.7-14.8,5.3,4.7-20.7.7-28.1,36.1-2.5,12.3-2.2,20.6,2.7,30,4.9,9.3,19,10.4,19,10.4Z"/>
  </g>
  <path class="cls-3" d="M665.3,275.5s0,63.4-15.3,128.7c-13.3,56.6-33.2,155.8-77.2,175.1-46.4,20.4-44.1-32.8-46-49.2-1.9-16.4,5.8-111.3,22.1-167.2,16.3-55.9,36.2-143.7,42.2-169.1,6.1-25.3,18.1-79.1,29.7-72.9,11.6,6.2,45,68.9,44.4,154.5Z"/>
  <g>
    <path class="cls-1" d="M596.5,430.4c9.4,3.3,15.4,15.3,12.3,38-4,28.9-18.2,38.2-32.1,35.8-13.2-2.2-27.2-17.9-21.7-42.5,7.4-33.1,31.3-34.9,41.5-31.3Z"/>
    <path class="cls-2" d="M593,500.8s-3.8,3.1-9.6,3.6c-8.3.8-20-2.2-24.6-13.9-6.4-16.4-7.1-28.9,3.5-45.3,10.7-16.4,29.2-18.9,34.2-14.7,5,4.1-19,1.3-24.7,34-2,11.3-1.4,19,3.4,27.4,4.8,8.4,17.8,9,17.8,9Z"/>
  </g>
  <path class="cls-5" d="M813.1,885.1c1.4,44.6-9.4,124.7-45.1,187.6-47.6,83.8-110.1,157.7-158.5,161.1-48.3,3.4-48.2-58.2-15.3-101.5,43.3-57,69.2-84.1,106.1-148.7,29.4-51.5,59.9-100.3,66.8-136.6,2.5-13.1-2.7-62.1,21.3-36.1,6.6,7.1,23.5,36.6,24.7,74.1Z"/>
  <g>
    <path class="cls-1" d="M641.1,1148.7c-8.6-6.5-10.9-20.9-.3-43.5,13.6-28.6,31.4-33.6,45-26.7,13,6.6,22.4,27.5,8.6,51.2-18.5,32-44,25.9-53.4,18.9Z"/>
    <path class="cls-2" d="M667.8,1076.7s4.9-2,11.2-.6c8.9,1.9,20,8.8,21,22.5,1.3,19.2-2.1,32.4-18.5,45.9-16.5,13.5-36.5,10-40.3,4.1-3.9-5.9,20.2,4.9,36.8-27.1,5.8-11.1,7.7-19.3,5.5-29.6-2.2-10.3-15.5-15.2-15.5-15.2Z"/>
  </g>
</svg>