<?xml version="1.0" encoding="UTF-8"?>
<svg id="Livello_1" data-name="Livello 1" xmlns="http://www.w3.org/2000/svg" version="1.1" viewBox="0 0 681.3 1373.4">
  <defs>
    <style>
      .cls-1 {
        fill: #44a083;
      }

      .cls-1, .cls-2, .cls-3, .cls-4, .cls-5, .cls-6 {
        stroke-width: 0px;
      }

      .cls-2 {
        fill: #30917a;
      }

      .cls-3 {
        fill: #2c7c67;
      }

      .cls-4 {
        fill: #4db295;
      }

      .cls-5 {
        fill: #90ddc3;
      }

      .cls-6 {
        fill: #4da290;
      }
    </style>
  </defs>
  <path class="cls-6" d="M17.5,1003.7s-29.1-144.3-6.3-283.6c22.8-139.3,84.8-405.2,136.7-526.7C199.8,71.8,275.8,7.2,292.2,4.7l16.5-2.5s53.2-16.5,97.5,27.9c44.3,44.3,119,198.8,141.8,270.9,22.8,72.2,130.4,365.9,129.2,497.6-1.3,131.7-43.1,373.5-136.8,477.3-93.7,103.8-200,92.4-239.3,93.7-18.6.6-81.5-16.7-138-77.2-62.4-66.9-119-182.3-145.6-288.7Z"/>
  <path class="cls-5" d="M199.8,1277.1s7.6,7.6,46.8,15.2c39.2,7.6,114,7.6,170.9,0,57-7.6,68.9,1.9,110.2-51.9,35.8-46.6,87.4-170.9,100-257,12.7-86.1,15.2-249.7,0-309.2-15.2-59.5-77.2-293.5-97.5-346.7-20.3-53.2-105.1-255.8-144.3-282.3-39.2-26.6-78.5-17.7-95-7.6-16.5,10.1-58.2,49.4-108.9,157-50.6,107.6-107.6,324.1-121.5,387.4,0,0-36.7,170.9-35.5,273.5,1.3,102.6,36.7,193.7,60.8,257,24.1,63.3,67.1,149.4,114,164.6Z"/>
  <g>
    <path class="cls-4" d="M135.1,744.4s30.7-48.7,34.4-58.3c3.7-9.6,17.2-8.9,22.1-8.2,4.9.7,40.5-19.2,76.8-20.6,36.2-1.4,79.8,8.2,91.5,6.2,11.7-2.1,43.6-1.4,49.1,3.4,5.5,4.8,11.7,16.5,16,17.2,4.3.7,20.3-6.9,28.3-5.5,8,1.4,24.2,24.4,39.8,12.6,15.5-11.9,39,2.5,48.7,9.4,9.7,6.9,15.8,33.5,25.6,43.9,9.8,10.4,22.3,22.6,27.2,59.7,4.9,37.1-23.3,75.5-25.8,89.2s-3.7,42.3-1.2,57.5c2.5,15.2-11,44.9-25.7,61.3-14.7,16.3-39.8,54-61.2,80.1-12.8,15.6-67.2,11.1-74,13.9-6.8,2.7-35.6,59-113,24.7-14.9-6.6-21-19.2-44.9-27.4-23.9-8.2-30-11-39.8-28.8-9.8-17.8-27-6.5-34.4-6.7-7.4-.2-28.3-39.4-28.3-53.7s-3.7-38.4-17.2-49.4c-13.5-11-61.4-76.9-38.1-95.5,23.3-18.6,19.6-51.6,17.2-63.7-2.5-12.1,1.3-41.8,27.1-61.1Z"/>
    <path class="cls-1" d="M241.9,997.6c13.5,9.6,30.7,20.6,36.8,12.4,6.1-8.2-9.8-30.2,0-30.2s16,19.7,18.4,25.1c2.5,5.4-39.3,29.8-11.1,42.2,28.3,12.4,29.5-6.9,41.8,4.1,12.3,11,11,5.9,28.2.2,17.2-5.7,35.6-22.2,45.4-27.7s3.7-15.8,11.1-34c7.4-18.2,22.1-26.4,16-34.7-6.1-8.2-74.8,6.9-81.6,0-6.8-6.9-9.3-20.6-32.6-19.2-23.3,1.4-39.3-13.9-51.6,0-7.2,8.1-19.9,10.9-29.5,19.3-6.8,6-4.9,32.9,8.6,42.5Z"/>
    <path class="cls-2" d="M170.3,787.6s10.6-17.4,18-25.6c7.4-8.2,9.8-30.2,17.2-34.8,7.4-4.6,4.1,2.7,14.7,4.6,10.6,1.8,29.5,7.1,34.4-6.1,4.9-13.2,21.3-36,34.4-19.6,13.1,16.5,25.4,20.1,37.7,17.4,12.3-2.7,36.8-20.1,45.9-11,9,9.1,14.7-4.6,30.3,0,15.6,4.6,59,14.6,68,20.1,9,5.5,27.8,26.5,20.5,34.8-3.4,3.8-6,20.7-11.7,22.9-6.5,2.5-16.2-10.2-22.7-14.6-12.3-8.2-11.5,18.3-6.6,23.8,4.9,5.5,15.6,18.3,8.2,25.6-7.4,7.3-45.9,25.6-40.1,41.2,5.7,15.6-15.6,24.7-22.1,32-6.6,7.3-10.6,20.1-17.2,19.2-6.6-.9-36.8,17.4-24.6,16.5,12.3-.9,55.7-10.1,60.6-4.6,4.9,5.5.8,12.8-14.7,16.5-15.6,3.7-5.7,12.8-5.7,12.8,0,0,13.9,1.8-16.4,15.6-30.3,13.7-33.5,18.3-46.7,13.7-13.1-4.6-10.7-25.6-26.2-29.3-15.6-3.7-37.7-3.7-38.5-8.2-.8-4.6-7.4-11.9.8-22.9,8.2-11,19-44-12.9-51.3-31.9-7.3-25.2-17.3-31.8-36.5-6.6-19.2,3.8-25.6-17.5-25.6s-42.6,6.4-42.6-3.7,7.4-22.9,7.4-22.9Z"/>
    <path class="cls-2" d="M451.8,858.9s3.3-24.7,14-15.1c10.6,9.6,13.1,13.7,29,15.1,16,1.4,24.6-12.7,28.3-17.3,3.7-4.6-36.2-12.9-39.9-19.7-3.7-6.9,13.6-22.1,21.5-22.6,21.5-1.4,27-35,45.4-13,18.4,22,4.9,43.9,11.1,49.4,6.1,5.5,4.9-9.6,6.1,5.5,1.2,15.1-25.8,29.8-25.8,41s-34.4,30.4-41.8,22.1c-7.4-8.2-16-33.3-22.1-22.1s-12.3,22.1-17.2,15.3c-4.9-6.9-29.5-10-23.3-15.3,6.1-5.3,14.7-23.1,14.7-23.1Z"/>
    <path class="cls-3" d="M476.3,923.4s8.6-9.6,12.3,0c3.7,9.6,3.7,24.7,0,28.8-3.7,4.1-22.4,11-22.9,5.5-.4-5.5-12.7-10.5-6.6-18.3,6.1-7.8,17.2-16,17.2-16Z"/>
    <path class="cls-3" d="M183,876.3s33.3,20.9,44.8,6.7c11.5-14.2,18.3-2.2,19.3,3.1,1,5.4,18.4,40.8,15.8,49.6-2.6,8.9-24-9.9-33.8,4.9-9.8,14.8-20.8,10.9-25.6,4-4.8-6.9-9.9-27.1-12.8-32.6-7.7-14.7-7.7-35.9-7.7-35.9Z"/>
    <path class="cls-3" d="M266.4,804.5s0-37.3,57.3-19.1c16.5,5.2,22.3-12,23.3-6.7.2,1.3,19.5-7.3,18.6,0-.4,3.1,13.6,15.2,9.3,21.5-2.8,4.1-11.4-4.7-17.8-2.6-6.7,2.1-11,15.1-10.1,16.5,3,4.3,19.3,7,20.9,12.1,2.3,7-16.3,9.3-11.6,18.9,2.9,6-11.6,24.9-20.9,23.6-3.6-.5-7.7-29.7-10.4-25.6-9.8,14.8-20.8,10.9-25.6,4-4.8-6.9,0-25.7-2.8-31.1-7.7-14.7-30.2-11.5-30.2-11.5Z"/>
    <path class="cls-1" d="M109.3,869.2s0-11.6,7.4-13c7.4-1.4,9.8-16.5,14.7-19.2,4.9-2.7,16-1.4,19.7,0,3.7,1.4,23.3,10,28.3,15.3,4.9,5.3,17.2,47,25.8,50.1,8.6,3.2-4.9,23.8,0,33.4,4.9,9.6,20.6,63.1,2.9,68.6-17.7,5.5-28.7-52.2-28.7-65.9s-7-41.2-16.4-50.8c-9.4-9.6-5.7,18-9.4,32.3-3.7,14.3-23.3,14.5-28.3,0-4.9-14.5-23.3-1.6-23.3-17.7s7.4-33.3,7.4-33.3Z"/>
    <path class="cls-1" d="M203.9,1038.8s13.5-15.1,17.2-8.9c3.7,6.2,5.5,9.6,4.9,15.8-.6,6.2,3.1,28.1-4.9,20.6-8-7.5-17.2-27.4-17.2-27.4Z"/>
    <path class="cls-1" d="M230.9,1016.2s26.4-2.7,30.7,4.1c4.3,6.9,4.9,17.8,7.4,21.3,2.5,3.4,14.7,17.8,8,16.1-6.8-1.7-26.4-2.3-28.9-9.5-2.5-7.2,4.9-8-6.8-11.4-11.7-3.4-30.1-15-20.3-17.8l9.8-2.7Z"/>
    <path class="cls-1" d="M417,1008.6s1.2-15.8,6.8-18.9c5.5-3.1,14.1-1.7,16,0,1.8,1.7,3.1,7.2,5.5,11.3,2.5,4.1,6.1,11.7,0,11-6.1-.7-14.7-22-17.8-12-3.1,10-10.4,8.6-10.4,8.6Z"/>
    <path class="cls-1" d="M501.9,763.8s-1.6-22,2.6-22.6c4.2-.7,10.9-2.1,12.8-6.2,1.8-4.1,1.8-13.7,6.1-8.2,4.3,5.5,7.4,15.5,8.6,17.7,1.2,2.2,2.5,13.8-2.5,15.5-4.9,1.8-21.5-9.2-20.9-3,.6,6.2-6.8,6.9-6.8,6.9Z"/>
  </g>
</svg>