<?xml version="1.0" encoding="UTF-8"?>
<svg id="Livello_1" data-name="Livello 1" xmlns="http://www.w3.org/2000/svg" version="1.1" viewBox="0 0 1086.2 1327.7">
  <defs>
    <style>
      .cls-1, .cls-2, .cls-3, .cls-4, .cls-5, .cls-6, .cls-7 {
        stroke-width: 0px;
      }

      .cls-1, .cls-8 {
        fill: #30917a;
      }

      .cls-2 {
        fill: #6bceb2;
      }

      .cls-3 {
        fill: #2b826b;
      }

      .cls-8 {
        stroke: #30917a;
      }

      .cls-8, .cls-9 {
        stroke-miterlimit: 10;
        stroke-width: 10.1px;
      }

      .cls-4 {
        fill: #56b79e;
      }

      .cls-5 {
        fill: #4db295;
      }

      .cls-6 {
        fill: #7bdbbd;
      }

      .cls-7 {
        fill: #4da290;
      }

      .cls-9 {
        fill: #2c7c67;
        stroke: #2c7c67;
      }
    </style>
  </defs>
  <ellipse class="cls-7" cx="543.4" cy="664.4" rx="542.8" ry="664.2"/>
  <circle class="cls-5" cx="535" cy="212" r="14.3"/>
  <circle class="cls-5" cx="495" cy="180.5" r="14.3"/>
  <circle class="cls-5" cx="500.7" cy="247.9" r="14.3"/>
  <circle class="cls-5" cx="561.7" cy="251.7" r="14.3"/>
  <circle class="cls-5" cx="529.1" cy="288.1" r="14.3"/>
  <g>
    <circle class="cls-4" cx="463.6" cy="148" r="14.3"/>
    <circle class="cls-4" cx="467.2" cy="214.9" r="14.3"/>
    <circle class="cls-4" cx="463.6" cy="282.6" r="14.3"/>
    <circle class="cls-4" cx="427.9" cy="247.9" r="14.3"/>
    <circle class="cls-4" cx="413.6" cy="203.6" r="14.3"/>
    <circle class="cls-4" cx="429.3" cy="175.8" r="14.3"/>
    <circle class="cls-4" cx="463.4" cy="333" r="14.3"/>
    <circle class="cls-4" cx="427.9" cy="352.8" r="14.3"/>
    <circle class="cls-4" cx="400.1" cy="291.8" r="14.3"/>
    <circle class="cls-4" cx="672.5" cy="433.3" r="14.3"/>
    <circle class="cls-4" cx="672.5" cy="523.3" r="14.3"/>
    <circle class="cls-4" cx="682.2" cy="478" r="14.3"/>
    <circle class="cls-4" cx="327" cy="312.2" r="14.3"/>
    <circle class="cls-4" cx="346.6" cy="246.2" r="14.3"/>
    <circle class="cls-4" cx="266.7" cy="241.7" r="14.3"/>
    <circle class="cls-4" cx="300.7" cy="190.6" r="14.3"/>
    <circle class="cls-4" cx="265.3" cy="203.6" r="14.3"/>
    <circle class="cls-4" cx="229.2" cy="214.9" r="14.3"/>
    <circle class="cls-4" cx="193.9" cy="240.6" r="14.3"/>
    <circle class="cls-4" cx="167.5" cy="288.1" r="14.3"/>
    <circle class="cls-4" cx="292.4" cy="360.6" r="14.3"/>
    <circle class="cls-4" cx="265.3" cy="338.3" r="14.3"/>
    <circle class="cls-4" cx="235.5" cy="351.7" r="14.3"/>
    <circle class="cls-4" cx="201.9" cy="374.9" r="14.3"/>
    <circle class="cls-4" cx="193.9" cy="336.4" r="14.3"/>
    <circle class="cls-4" cx="167.5" cy="360.6" r="14.3"/>
    <circle class="cls-4" cx="365.6" cy="449.4" r="14.3"/>
    <circle class="cls-4" cx="324.5" cy="385.3" r="14.3"/>
    <circle class="cls-4" cx="365.6" cy="393.9" r="14.3"/>
    <circle class="cls-4" cx="235.5" cy="397.4" r="14.3"/>
    <circle class="cls-4" cx="342.3" cy="119.5" r="14.3"/>
    <circle class="cls-4" cx="376.3" cy="137.1" r="14.3"/>
    <circle class="cls-4" cx="346.2" cy="163.6" r="14.3"/>
  </g>
  <circle class="cls-5" cx="519.2" cy="333" r="14.3"/>
  <circle class="cls-5" cx="519.2" cy="385.3" r="14.3"/>
  <circle class="cls-5" cx="245.3" cy="449.4" r="14.3"/>
  <circle class="cls-5" cx="179" cy="563.1" r="14.3"/>
  <circle class="cls-5" cx="216.7" cy="608.9" r="14.3"/>
  <circle class="cls-5" cx="55.4" cy="867.8" r="14.3"/>
  <circle class="cls-5" cx="165.7" cy="944.7" r="14.3"/>
  <circle class="cls-5" cx="132.7" cy="973.3" r="14.3"/>
  <circle class="cls-5" cx="204.8" cy="981.4" r="14.3"/>
  <circle class="cls-5" cx="262.8" cy="964.5" r="14.3"/>
  <circle class="cls-5" cx="335.3" cy="964.3" r="14.3"/>
  <circle class="cls-5" cx="299.3" cy="1045.7" r="14.3"/>
  <circle class="cls-5" cx="248.5" cy="760.2" r="14.3"/>
  <circle class="cls-5" cx="231.6" cy="802.6" r="14.3"/>
  <circle class="cls-5" cx="277.1" cy="797.6" r="14.3"/>
  <circle class="cls-5" cx="275.6" cy="881" r="14.3"/>
  <circle class="cls-5" cx="349.1" cy="908.9" r="14.3"/>
  <circle class="cls-5" cx="776.5" cy="713.3" r="14.3"/>
  <circle class="cls-5" cx="748.2" cy="759.1" r="14.3"/>
  <circle class="cls-5" cx="806.7" cy="743.9" r="14.3"/>
  <circle class="cls-5" cx="737.9" cy="816.3" r="14.3"/>
  <circle class="cls-5" cx="835.2" cy="774.1" r="14.3"/>
  <circle class="cls-5" cx="813.1" cy="819.7" r="14.3"/>
  <circle class="cls-5" cx="186.3" cy="1117.7" r="14.3"/>
  <circle class="cls-5" cx="301.1" cy="1124.1" r="14.3"/>
  <circle class="cls-5" cx="234.2" cy="1179" r="14.3"/>
  <circle class="cls-5" cx="271.9" cy="1076.6" r="14.3"/>
  <circle class="cls-5" cx="396" cy="1085.3" r="14.3"/>
  <circle class="cls-5" cx="379.2" cy="1204.6" r="14.3"/>
  <circle class="cls-5" cx="439.6" cy="1207.5" r="14.3"/>
  <circle class="cls-5" cx="319.6" cy="1160.5" r="14.3"/>
  <circle class="cls-5" cx="383.2" cy="939.9" r="14.3"/>
  <circle class="cls-5" cx="571.3" cy="1091" r="14.3"/>
  <circle class="cls-5" cx="627.5" cy="1140.2" r="14.3"/>
  <circle class="cls-5" cx="691.3" cy="1112.9" r="14.3"/>
  <circle class="cls-5" cx="666.9" cy="1056.8" r="14.3"/>
  <circle class="cls-5" cx="681.2" cy="1154.9" r="14.3"/>
  <circle class="cls-5" cx="605.1" cy="1171.4" r="14.3"/>
  <circle class="cls-5" cx="585" cy="1207.5" r="14.3"/>
  <circle class="cls-5" cx="25.9" cy="731.6" r="14.3"/>
  <circle class="cls-5" cx="138.6" cy="393.9" r="14.3"/>
  <circle class="cls-5" cx="181.8" cy="447.3" r="14.3"/>
  <circle class="cls-5" cx="204.8" cy="479.1" r="14.3"/>
  <circle class="cls-5" cx="486.4" cy="439.2" r="14.3"/>
  <circle class="cls-5" cx="486.4" cy="479.1" r="14.3"/>
  <circle class="cls-5" cx="523.6" cy="425.2" r="14.3"/>
  <circle class="cls-5" cx="532.5" cy="496.9" r="14.3"/>
  <circle class="cls-5" cx="549.3" cy="449.4" r="14.3"/>
  <circle class="cls-5" cx="677" cy="358.5" r="14.3"/>
  <circle class="cls-5" cx="892.9" cy="293.7" r="14.3"/>
  <circle class="cls-5" cx="970.7" cy="336.4" r="14.3"/>
  <circle class="cls-5" cx="997.2" cy="364.1" r="14.3"/>
  <circle class="cls-5" cx="988.5" cy="404.1" r="14.3"/>
  <circle class="cls-5" cx="874.6" cy="558.6" r="14.3"/>
  <circle class="cls-5" cx="888.9" cy="485.9" r="14.3"/>
  <circle class="cls-5" cx="869.6" cy="246.9" r="14.3"/>
  <circle class="cls-5" cx="756.6" cy="94" r="14.3"/>
  <circle class="cls-5" cx="702.6" cy="56.8" r="14.3"/>
  <circle class="cls-5" cx="652" cy="42.6" r="14.3"/>
  <circle class="cls-5" cx="608.3" cy="58.9" r="14.3"/>
  <circle class="cls-5" cx="543.4" cy="104" r="14.3"/>
  <circle class="cls-5" cx="579.7" cy="122.9" r="14.3"/>
  <circle class="cls-5" cx="463.4" cy="75.3" r="14.3"/>
  <circle class="cls-5" cx="666.3" cy="223.4" r="14.3"/>
  <circle class="cls-5" cx="434.2" cy="449.4" r="14.3"/>
  <circle class="cls-5" cx="576" cy="411.7" r="14.3"/>
  <circle class="cls-5" cx="630.9" cy="433.3" r="14.3"/>
  <circle class="cls-5" cx="380.8" cy="344.2" r="14.3"/>
  <g>
    <circle class="cls-8" cx="213.5" cy="302.4" r="14.3"/>
    <circle class="cls-8" cx="93.8" cy="344.2" r="14.3"/>
    <circle class="cls-1" cx="125.7" cy="279.4" r="14.3"/>
    <circle class="cls-1" cx="153.2" cy="240.6" r="14.3"/>
    <circle class="cls-1" cx="181.8" cy="212" r="14.3"/>
    <circle class="cls-1" cx="213.5" cy="169.2" r="14.3"/>
    <circle class="cls-1" cx="281" cy="133.7" r="14.3"/>
    <circle class="cls-1" cx="245.3" cy="135.9" r="14.3"/>
    <circle class="cls-1" cx="300.7" cy="99.3" r="14.3"/>
    <circle class="cls-1" cx="327" cy="80.4" r="14.3"/>
    <circle class="cls-1" cx="365.6" cy="66.1" r="14.3"/>
    <circle class="cls-8" cx="78.5" cy="379.6" r="14.3"/>
    <circle class="cls-1" cx="64.2" cy="419" r="14.3"/>
    <circle class="cls-1" cx="93.8" cy="466.4" r="14.3"/>
    <circle class="cls-1" cx="39.1" cy="475.8" r="14.3"/>
    <circle class="cls-1" cx="29.8" cy="537" r="14.3"/>
    <circle class="cls-1" cx="106.3" cy="419" r="14.3"/>
    <circle class="cls-1" cx="138.6" cy="459.8" r="14.3"/>
  </g>
  <g>
    <g>
      <g>
        <circle class="cls-8" cx="314.1" cy="563.7" r="14.3"/>
        <circle class="cls-8" cx="349.1" cy="543" r="14.3"/>
        <circle class="cls-9" cx="385" cy="520.3" r="14.3"/>
        <circle class="cls-9" cx="443.5" cy="490.1" r="14.3"/>
        <circle class="cls-9" cx="437" cy="530.5" r="14.3"/>
        <circle class="cls-9" cx="469.6" cy="556.7" r="14.3"/>
        <circle class="cls-9" cx="491.9" cy="515.3" r="14.3"/>
      </g>
      <g>
        <circle class="cls-9" cx="288.9" cy="677.6" r="14.3"/>
        <circle class="cls-9" cx="321.3" cy="650.6" r="14.3"/>
        <circle class="cls-9" cx="330.2" cy="605.8" r="14.3"/>
        <circle class="cls-9" cx="389.6" cy="572.9" r="14.3"/>
        <circle class="cls-9" cx="400.9" cy="607.7" r="14.3"/>
        <circle class="cls-9" cx="426.9" cy="634.2" r="14.3"/>
        <circle class="cls-8" cx="434.7" cy="580.6" r="14.3"/>
      </g>
    </g>
    <g>
      <g>
        <circle class="cls-9" cx="486.4" cy="784.7" r="14.3"/>
        <circle class="cls-1" cx="728" cy="1230" r="14.3"/>
        <circle class="cls-1" cx="706.6" cy="1266.9" r="14.3"/>
        <circle class="cls-1" cx="756.6" cy="1243.8" r="14.3"/>
        <circle class="cls-9" cx="468.1" cy="819.7" r="14.3"/>
        <circle class="cls-8" cx="439.6" cy="838.8" r="14.3"/>
        <circle class="cls-8" cx="450.8" cy="890.5" r="14.3"/>
        <circle class="cls-8" cx="475.6" cy="859.3" r="14.3"/>
        <circle class="cls-1" cx="474.1" cy="948.6" r="14.3"/>
        <circle class="cls-8" cx="426.9" cy="1045.7" r="14.3"/>
        <circle class="cls-8" cx="314.1" cy="1004.6" r="14.3"/>
        <circle class="cls-1" cx="488" cy="1062.3" r="14.3"/>
        <circle class="cls-1" cx="517.5" cy="1117.7" r="14.3"/>
        <circle class="cls-8" cx="392.7" cy="896.6" r="14.3"/>
        <circle class="cls-8" cx="385" cy="850.9" r="14.3"/>
        <circle class="cls-8" cx="361.6" cy="822.2" r="14.3"/>
        <circle class="cls-9" cx="346.4" cy="854.9" r="14.3"/>
      </g>
      <g>
        <circle class="cls-8" cx="497.8" cy="675" r="14.3"/>
        <circle class="cls-9" cx="481" cy="713.3" r="14.3"/>
        <circle class="cls-9" cx="443" cy="703.6" r="14.3"/>
        <circle class="cls-9" cx="452.2" cy="745.9" r="14.3"/>
        <circle class="cls-9" cx="427" cy="797.6" r="14.3"/>
        <circle class="cls-9" cx="408.4" cy="766" r="14.3"/>
        <circle class="cls-9" cx="365.7" cy="738.3" r="14.3"/>
        <circle class="cls-9" cx="372.9" cy="781.6" r="14.3"/>
      </g>
    </g>
    <circle class="cls-9" cx="517" cy="850.2" r="14.3"/>
    <circle class="cls-9" cx="439.6" cy="1085.3" r="14.3"/>
    <circle class="cls-9" cx="275.6" cy="1004.6" r="14.3"/>
    <circle class="cls-9" cx="514.3" cy="751" r="14.3"/>
    <circle class="cls-8" cx="524.8" cy="811.9" r="14.3"/>
    <circle class="cls-9" cx="416.7" cy="865.6" r="14.3"/>
    <circle class="cls-1" cx="539.1" cy="731.6" r="14.3"/>
    <circle class="cls-8" cx="534.3" cy="694.1" r="14.3"/>
    <circle class="cls-9" cx="360.2" cy="623.2" r="14.3"/>
    <circle class="cls-1" cx="379.2" cy="1014.7" r="14.3"/>
    <circle class="cls-1" cx="427" cy="975.5" r="14.3"/>
    <circle class="cls-1" cx="426.7" cy="930.4" r="14.3"/>
    <circle class="cls-1" cx="532.5" cy="930.9" r="14.3"/>
    <circle class="cls-1" cx="496.8" cy="1022" r="14.3"/>
    <circle class="cls-8" cx="350.3" cy="1062.3" r="14.3"/>
    <circle class="cls-1" cx="543.4" cy="981.4" r="14.3"/>
    <circle class="cls-1" cx="552.8" cy="1056.8" r="14.3"/>
    <circle class="cls-1" cx="613.2" cy="1062.3" r="14.3"/>
    <circle class="cls-1" cx="645.2" cy="1098.9" r="14.3"/>
    <circle class="cls-1" cx="613.2" cy="951.1" r="14.3"/>
    <circle class="cls-1" cx="659.9" cy="915.4" r="14.3"/>
    <circle class="cls-1" cx="649.4" cy="981.4" r="14.3"/>
    <circle class="cls-1" cx="602.9" cy="1014.7" r="14.3"/>
    <circle class="cls-1" cx="883.8" cy="1081.6" r="14.3"/>
    <circle class="cls-1" cx="933.8" cy="1000.4" r="14.3"/>
    <circle class="cls-3" cx="975.3" cy="965.4" r="14.3"/>
    <circle class="cls-1" cx="989.6" cy="915.4" r="14.3"/>
    <circle class="cls-1" cx="1025.8" cy="877" r="14.3"/>
    <circle class="cls-1" cx="1025.8" cy="819.7" r="14.3"/>
    <circle class="cls-1" cx="1045.5" cy="479.1" r="14.3"/>
    <circle class="cls-1" cx="1056.5" cy="530" r="14.3"/>
    <circle class="cls-1" cx="1056.5" cy="581.6" r="14.3"/>
    <circle class="cls-1" cx="1019.4" cy="589.6" r="14.3"/>
    <circle class="cls-1" cx="1056.5" cy="637.5" r="14.3"/>
    <circle class="cls-1" cx="1019.4" cy="666.8" r="14.3"/>
    <circle class="cls-1" cx="1056.5" cy="700.4" r="14.3"/>
    <circle class="cls-1" cx="1045.5" cy="750.2" r="14.3"/>
    <circle class="cls-1" cx="1025.8" cy="714.7" r="14.3"/>
    <circle class="cls-1" cx="1016.7" cy="534.5" r="14.3"/>
    <circle class="cls-1" cx="783.8" cy="791.8" r="14.3"/>
    <circle class="cls-1" cx="821" cy="856" r="14.3"/>
    <circle class="cls-3" cx="973.6" cy="1018.9" r="14.3"/>
    <circle class="cls-1" cx="913.5" cy="1040.8" r="14.3"/>
    <circle class="cls-3" cx="951" cy="1052.5" r="14.3"/>
    <circle class="cls-3" cx="927.8" cy="1091" r="14.3"/>
    <path class="cls-3" d="M853.9,1181.8c3.3,7.2.2,15.7-7,19-7.2,3.3-15.7.2-19-7-3.3-7.2-.2-15.7,7-19,7.2-3.3,15.7-.2,19,7Z"/>
    <path class="cls-3" d="M882.5,1153.2c3.3,7.2.2,15.7-7,19-7.2,3.3-15.7.2-19-7-3.3-7.2-.2-15.7,7-19,7.2-3.3,15.7-.2,19,7Z"/>
    <circle class="cls-1" cx="776.5" cy="865.6" r="14.3"/>
    <circle class="cls-1" cx="713.8" cy="850.9" r="14.3"/>
    <circle class="cls-1" cx="737.9" cy="900.9" r="14.3"/>
    <circle class="cls-1" cx="776.5" cy="930.9" r="14.3"/>
    <circle class="cls-1" cx="798.1" cy="965.4" r="14.3"/>
    <circle class="cls-1" cx="685" cy="1014.7" r="14.3"/>
    <circle class="cls-1" cx="705.6" cy="1071" r="14.3"/>
    <circle class="cls-1" cx="747.4" cy="1098.9" r="14.3"/>
    <circle class="cls-1" cx="815.3" cy="1110.2" r="14.3"/>
    <circle class="cls-1" cx="863.6" cy="1112.9" r="14.3"/>
    <circle class="cls-1" cx="833.6" cy="1153.7" r="14.3"/>
    <circle class="cls-1" cx="788.4" cy="1154.9" r="14.3"/>
    <circle class="cls-1" cx="747.4" cy="1140.6" r="14.3"/>
    <circle class="cls-1" cx="762.2" cy="1210.7" r="14.3"/>
    <circle class="cls-1" cx="802.3" cy="1198.5" r="14.3"/>
    <circle class="cls-1" cx="713.4" cy="1187.8" r="14.3"/>
    <circle class="cls-1" cx="425.4" cy="1238.6" r="14.3"/>
    <circle class="cls-1" cx="659.9" cy="1187.8" r="14.3"/>
    <circle class="cls-1" cx="813.4" cy="1000.4" r="14.3"/>
    <circle class="cls-1" cx="747.4" cy="965.4" r="14.3"/>
    <circle class="cls-1" cx="821" cy="1071" r="14.3"/>
    <circle class="cls-1" cx="772.9" cy="1062.4" r="14.3"/>
    <circle class="cls-1" cx="850.1" cy="1030.6" r="14.3"/>
    <circle class="cls-1" cx="677" cy="1217.4" r="14.3"/>
    <circle class="cls-1" cx="747.4" cy="1014.7" r="14.3"/>
    <circle class="cls-1" cx="577.9" cy="1140.6" r="14.3"/>
    <circle class="cls-1" cx="617.2" cy="1238.6" r="14.3"/>
    <circle class="cls-1" cx="674.2" cy="1252.8" r="14.3"/>
    <circle class="cls-1" cx="666.9" cy="1286" r="14.3"/>
    <circle class="cls-1" cx="607.8" cy="1298.8" r="14.3"/>
    <circle class="cls-1" cx="539.1" cy="1217.4" r="14.3"/>
    <circle class="cls-1" cx="477.9" cy="1210.7" r="14.3"/>
    <circle class="cls-1" cx="481" cy="1252.6" r="14.3"/>
    <circle class="cls-1" cx="458.8" cy="1286" r="14.3"/>
    <circle class="cls-1" cx="420.4" cy="1284.7" r="14.3"/>
    <circle class="cls-1" cx="583" cy="1266.9" r="14.3"/>
    <circle class="cls-1" cx="554.1" cy="1299.9" r="14.3"/>
    <circle class="cls-1" cx="497.2" cy="1299.9" r="14.3"/>
    <circle class="cls-1" cx="512.5" cy="1175.7" r="14.3"/>
    <circle class="cls-1" cx="524.3" cy="1258.7" r="14.3"/>
    <circle class="cls-1" cx="477.9" cy="1154.9" r="14.3"/>
    <circle class="cls-1" cx="439.6" cy="1134.5" r="14.3"/>
    <circle class="cls-8" cx="301.1" cy="915.4" r="14.3"/>
    <circle class="cls-1" cx="252.8" cy="835.3" r="14.3"/>
    <circle class="cls-1" cx="242.4" cy="889.3" r="14.3"/>
    <circle class="cls-8" cx="301.1" cy="835.3" r="14.3"/>
    <circle class="cls-1" cx="543.4" cy="646.6" r="14.3"/>
    <circle class="cls-1" cx="571.3" cy="684.7" r="14.3"/>
    <circle class="cls-8" cx="396" cy="813.9" r="14.3"/>
    <circle class="cls-9" cx="506.2" cy="623.2" r="14.3"/>
    <circle class="cls-8" cx="456.7" cy="662.4" r="14.3"/>
    <circle class="cls-9" cx="330.2" cy="738.3" r="14.3"/>
    <circle class="cls-9" cx="296" cy="710.2" r="14.3"/>
    <circle class="cls-9" cx="398.9" cy="657.1" r="14.3"/>
    <circle class="cls-9" cx="365.6" cy="666.8" r="14.3"/>
    <circle class="cls-9" cx="398.9" cy="707.8" r="14.3"/>
    <circle class="cls-9" cx="343.4" cy="699" r="14.3"/>
    <circle class="cls-8" cx="328.3" cy="779.5" r="14.3"/>
    <circle class="cls-9" cx="294.1" cy="758.2" r="14.3"/>
    <circle class="cls-9" cx="513.9" cy="566.5" r="14.3"/>
    <circle class="cls-8" cx="543.4" cy="534.6" r="14.3"/>
    <circle class="cls-8" cx="541.7" cy="592.5" r="14.3"/>
    <circle class="cls-1" cx="591" cy="580.6" r="14.3"/>
    <circle class="cls-8" cx="463.6" cy="608.9" r="14.3"/>
    <circle class="cls-8" cx="257.7" cy="711.3" r="14.3"/>
    <g>
      <circle class="cls-1" cx="631.3" cy="608.9" r="14.3"/>
      <circle class="cls-1" cx="602.7" cy="483.1" r="14.3"/>
      <circle class="cls-1" cx="617" cy="369" r="14.3"/>
      <circle class="cls-1" cx="292.4" cy="439.2" r="14.3"/>
      <circle class="cls-8" cx="271.4" cy="628.6" r="14.3"/>
      <circle class="cls-9" cx="276.6" cy="590.2" r="14.3"/>
      <circle class="cls-1" cx="125.7" cy="508.4" r="14.3"/>
      <circle class="cls-1" cx="125.7" cy="561.9" r="14.3"/>
      <circle class="cls-1" cx="145.6" cy="600.7" r="14.3"/>
      <circle class="cls-1" cx="179" cy="646.6" r="14.3"/>
      <circle class="cls-1" cx="79" cy="552.8" r="14.3"/>
      <circle class="cls-1" cx="25.9" cy="583.5" r="14.3"/>
      <circle class="cls-1" cx="69.4" cy="604" r="14.3"/>
      <circle class="cls-1" cx="69.4" cy="662.8" r="14.3"/>
      <circle class="cls-1" cx="69.4" cy="508.4" r="14.3"/>
      <circle class="cls-1" cx="325.9" cy="490.1" r="14.3"/>
      <circle class="cls-1" cx="413.6" cy="408.2" r="14.3"/>
      <circle class="cls-1" cx="463.6" cy="397.4" r="14.3"/>
      <circle class="cls-8" cx="241.6" cy="272.1" r="14.3"/>
      <circle class="cls-9" cx="273.5" cy="294.8" r="14.3"/>
      <circle class="cls-9" cx="259.5" cy="172" r="14.3"/>
      <circle class="cls-1" cx="133.7" cy="354" r="14.3"/>
      <circle class="cls-1" cx="133.7" cy="316.7" r="14.3"/>
      <circle class="cls-1" cx="325.9" cy="154.9" r="14.3"/>
      <circle class="cls-1" cx="351.3" cy="192.7" r="14.3"/>
      <circle class="cls-1" cx="308.4" cy="226.3" r="14.3"/>
      <circle class="cls-1" cx="380.8" cy="233.6" r="14.3"/>
      <circle class="cls-1" cx="419" cy="127.9" r="14.3"/>
      <circle class="cls-1" cx="427.9" cy="85" r="14.3"/>
      <circle class="cls-1" cx="400.1" cy="104" r="14.3"/>
      <circle class="cls-8" cx="699.1" cy="643.3" r="14.3"/>
      <circle class="cls-8" cx="747.4" cy="623.2" r="14.3"/>
      <circle class="cls-8" cx="794.7" cy="595.7" r="14.3"/>
      <circle class="cls-1" cx="599.3" cy="530.5" r="14.3"/>
      <circle class="cls-1" cx="640" cy="491.7" r="14.3"/>
      <circle class="cls-1" cx="666.9" cy="572.9" r="14.3"/>
      <circle class="cls-1" cx="802.7" cy="487" r="14.3"/>
      <circle class="cls-1" cx="776.5" cy="439.5" r="14.3"/>
      <circle class="cls-1" cx="936.7" cy="312.2" r="14.3"/>
      <circle class="cls-1" cx="951" cy="369" r="14.3"/>
      <circle class="cls-2" cx="747.4" cy="301.7" r="14.3"/>
      <circle class="cls-2" cx="709.1" cy="243.1" r="14.3"/>
      <circle class="cls-2" cx="756.6" cy="241.7" r="14.3"/>
      <circle class="cls-2" cx="803" cy="316" r="14.3"/>
      <circle class="cls-2" cx="747.4" cy="203.6" r="14.3"/>
      <circle class="cls-2" cx="795.2" cy="261.2" r="14.3"/>
      <circle class="cls-2" cx="803" cy="209.1" r="14.3"/>
      <circle class="cls-6" cx="835.2" cy="240.6" r="14.3"/>
      <circle class="cls-6" cx="840.9" cy="200.9" r="14.3"/>
      <circle class="cls-6" cx="795.2" cy="119.5" r="14.3"/>
      <circle class="cls-6" cx="715.6" cy="127.7" r="14.3"/>
      <circle class="cls-6" cx="878.6" cy="209.1" r="14.3"/>
      <circle class="cls-6" cx="817.4" cy="160.4" r="14.3"/>
      <circle class="cls-6" cx="855.2" cy="160.5" r="14.3"/>
      <circle class="cls-6" cx="702.6" cy="198.6" r="14.3"/>
      <circle class="cls-6" cx="625.7" cy="121.6" r="14.3"/>
      <circle class="cls-6" cx="762.2" cy="133.7" r="14.3"/>
      <circle class="cls-6" cx="672.5" cy="127.9" r="14.3"/>
      <circle class="cls-2" cx="846" cy="287.4" r="14.3"/>
      <circle class="cls-2" cx="883.8" cy="333" r="14.3"/>
      <circle class="cls-2" cx="908.1" cy="364.1" r="14.3"/>
      <circle class="cls-2" cx="840.9" cy="344.2" r="14.3"/>
      <circle class="cls-2" cx="869.6" cy="383.2" r="14.3"/>
      <circle class="cls-2" cx="913.5" cy="404.1" r="14.3"/>
      <circle class="cls-2" cx="756.6" cy="359.6" r="14.3"/>
      <circle class="cls-2" cx="713.7" cy="332.5" r="14.3"/>
      <circle class="cls-2" cx="723.4" cy="404.1" r="14.3"/>
      <circle class="cls-2" cx="927.8" cy="485.9" r="14.3"/>
      <circle class="cls-2" cx="956.4" cy="425.2" r="14.3"/>
      <circle class="cls-2" cx="1011.5" cy="447.3" r="14.3"/>
      <circle class="cls-2" cx="975.3" cy="483.1" r="14.3"/>
      <circle class="cls-2" cx="973.6" cy="530" r="14.3"/>
      <circle class="cls-2" cx="965.3" cy="580.6" r="14.3"/>
      <circle class="cls-2" cx="987.9" cy="629" r="14.3"/>
      <circle class="cls-2" cx="55.4" cy="781.6" r="14.3"/>
      <circle class="cls-2" cx="74.6" cy="915.4" r="14.3"/>
      <circle class="cls-2" cx="118.4" cy="930.9" r="14.3"/>
      <circle class="cls-2" cx="80.3" cy="810.2" r="14.3"/>
      <circle class="cls-2" cx="104.1" cy="714.7" r="14.3"/>
      <circle class="cls-2" cx="74.6" cy="743.9" r="14.3"/>
      <circle class="cls-2" cx="35.8" cy="629" r="14.3"/>
      <circle class="cls-2" cx="25.9" cy="681.1" r="14.3"/>
      <circle class="cls-2" cx="111.6" cy="777.2" r="14.3"/>
      <circle class="cls-2" cx="147" cy="710.8" r="14.3"/>
      <circle class="cls-2" cx="154.5" cy="780.8" r="14.3"/>
      <circle class="cls-2" cx="242.4" cy="496.9" r="14.3"/>
      <circle class="cls-2" cx="207.1" cy="525.1" r="14.3"/>
      <circle class="cls-2" cx="256.7" cy="537" r="14.3"/>
      <circle class="cls-2" cx="299.3" cy="528.1" r="14.3"/>
      <circle class="cls-2" cx="280.8" cy="485.9" r="14.3"/>
      <circle class="cls-2" cx="365.6" cy="485.9" r="14.3"/>
      <circle class="cls-2" cx="329.4" cy="425.2" r="14.3"/>
      <circle class="cls-2" cx="125.9" cy="827.2" r="14.3"/>
      <circle class="cls-2" cx="202.4" cy="764.5" r="14.3"/>
      <circle class="cls-2" cx="190.3" cy="807.1" r="14.3"/>
      <circle class="cls-2" cx="159" cy="853.1" r="14.3"/>
      <circle class="cls-2" cx="192.8" cy="841.5" r="14.3"/>
      <circle class="cls-2" cx="181.8" cy="890.5" r="14.3"/>
      <circle class="cls-2" cx="224.2" cy="923.2" r="14.3"/>
      <circle class="cls-2" cx="183.1" cy="729" r="14.3"/>
      <circle class="cls-2" cx="125.7" cy="650.6" r="14.3"/>
      <circle class="cls-2" cx="108.9" cy="608.9" r="14.3"/>
      <circle class="cls-2" cx="94.6" cy="859.3" r="14.3"/>
      <circle class="cls-2" cx="94.6" cy="964.5" r="14.3"/>
      <circle class="cls-2" cx="125.9" cy="1018.9" r="14.3"/>
      <circle class="cls-2" cx="313.6" cy="1085.3" r="14.3"/>
      <circle class="cls-2" cx="352.7" cy="1125.9" r="14.3"/>
      <circle class="cls-2" cx="342.8" cy="1191.5" r="14.3"/>
      <circle class="cls-2" cx="416.7" cy="1179.4" r="14.3"/>
      <circle class="cls-2" cx="248.5" cy="1036.3" r="14.3"/>
      <circle class="cls-2" cx="178.5" cy="1022" r="14.3"/>
      <circle class="cls-2" cx="219.1" cy="1146.2" r="14.3"/>
      <circle class="cls-2" cx="190.5" cy="1076.7" r="14.3"/>
      <circle class="cls-2" cx="209.9" cy="1050.6" r="14.3"/>
      <circle class="cls-2" cx="234.2" cy="1091" r="14.3"/>
      <circle class="cls-2" cx="262.8" cy="1134.5" r="14.3"/>
      <circle class="cls-2" cx="271.9" cy="1187.8" r="14.3"/>
      <circle class="cls-2" cx="305.3" cy="1218.9" r="14.3"/>
      <circle class="cls-2" cx="396" cy="1144.9" r="14.3"/>
      <circle class="cls-2" cx="350.3" cy="1238.3" r="14.3"/>
      <circle class="cls-2" cx="383.2" cy="1266.9" r="14.3"/>
      <circle class="cls-2" cx="147" cy="1062.4" r="14.3"/>
      <circle class="cls-2" cx="168.8" cy="984.9" r="14.3"/>
      <circle class="cls-2" cx="118.4" cy="889.3" r="14.3"/>
      <circle class="cls-2" cx="46" cy="824.5" r="14.3"/>
      <circle class="cls-2" cx="922.4" cy="537" r="14.3"/>
      <circle class="cls-2" cx="902.2" cy="447.3" r="14.3"/>
      <circle class="cls-2" cx="858" cy="433.3" r="14.3"/>
      <circle class="cls-2" cx="815.3" cy="368" r="14.3"/>
      <circle class="cls-2" cx="821" cy="404.1" r="14.3"/>
      <circle class="cls-2" cx="824.8" cy="449.4" r="14.3"/>
      <circle class="cls-2" cx="776.5" cy="408.2" r="14.3"/>
      <circle class="cls-2" cx="770.9" cy="180.5" r="14.3"/>
      <circle class="cls-2" cx="719.3" cy="160.4" r="14.3"/>
      <circle class="cls-1" cx="860.3" cy="504.4" r="14.3"/>
      <circle class="cls-1" cx="864.4" cy="623.2" r="14.3"/>
      <circle class="cls-1" cx="826.2" cy="557.1" r="14.3"/>
      <circle class="cls-1" cx="729.8" cy="504.4" r="14.3"/>
      <circle class="cls-1" cx="728" cy="542.4" r="14.3"/>
      <circle class="cls-1" cx="705" cy="580.6" r="14.3"/>
      <circle class="cls-1" cx="649.4" cy="643.3" r="14.3"/>
      <circle class="cls-9" cx="588.2" cy="629" r="14.3"/>
      <circle class="cls-9" cx="610" cy="684.7" r="14.3"/>
      <circle class="cls-9" cx="573.9" cy="726.4" r="14.3"/>
      <circle class="cls-1" cx="631.5" cy="762.9" r="14.3"/>
      <circle class="cls-1" cx="557" cy="835.3" r="14.3"/>
      <circle class="cls-1" cx="552.8" cy="896" r="14.3"/>
      <circle class="cls-8" cx="764.7" cy="553.5" r="14.3"/>
      <circle class="cls-9" cx="725.4" cy="459.6" r="14.3"/>
      <circle class="cls-9" cx="916.4" cy="830.6" r="14.3"/>
      <circle class="cls-9" cx="855.2" cy="819.7" r="14.3"/>
      <circle class="cls-9" cx="769.7" cy="506" r="14.3"/>
      <circle class="cls-1" cx="912.4" cy="261.2" r="14.3"/>
      <circle class="cls-1" cx="945" cy="273.1" r="14.3"/>
      <circle class="cls-1" cx="919.4" cy="223.4" r="14.3"/>
      <circle class="cls-1" cx="713.4" cy="94" r="14.3"/>
      <circle class="cls-1" cx="652.6" cy="78.5" r="14.3"/>
      <circle class="cls-1" cx="524.8" cy="135.9" r="14.3"/>
      <circle class="cls-1" cx="576.5" cy="166.2" r="14.3"/>
      <circle class="cls-1" cx="652" cy="183.2" r="14.3"/>
      <circle class="cls-1" cx="613.2" cy="212.9" r="14.3"/>
      <circle class="cls-1" cx="630.9" cy="258.5" r="14.3"/>
      <circle class="cls-1" cx="661.2" cy="275.5" r="14.3"/>
      <circle class="cls-1" cx="642.6" cy="312.2" r="14.3"/>
      <circle class="cls-1" cx="709.1" cy="279.4" r="14.3"/>
      <circle class="cls-1" cx="605.1" cy="287.4" r="14.3"/>
      <circle class="cls-1" cx="578.7" cy="330.3" r="14.3"/>
      <circle class="cls-1" cx="547.1" cy="45.9" r="14.3"/>
      <circle class="cls-1" cx="576" cy="85" r="14.3"/>
      <circle class="cls-1" cx="500.7" cy="92.8" r="14.3"/>
      <circle class="cls-1" cx="492.2" cy="45.9" r="14.3"/>
      <circle class="cls-1" cx="408.4" cy="56.8" r="14.3"/>
      <circle class="cls-1" cx="448.4" cy="31.7" r="14.3"/>
      <circle class="cls-1" cx="594" cy="22.6" r="14.3"/>
      <circle class="cls-1" cx="519.2" cy="17.4" r="14.3"/>
      <circle class="cls-1" cx="243.3" cy="657.1" r="14.3"/>
      <circle class="cls-1" cx="204.8" cy="684.7" r="14.3"/>
      <circle class="cls-1" cx="699.3" cy="749.1" r="14.3"/>
      <circle class="cls-1" cx="630.9" cy="838.8" r="14.3"/>
      <circle class="cls-1" cx="590.8" cy="797.6" r="14.3"/>
      <circle class="cls-1" cx="599.3" cy="886.6" r="14.3"/>
      <circle class="cls-8" cx="776.5" cy="664.4" r="14.3"/>
      <circle class="cls-8" cx="723.4" cy="691.7" r="14.3"/>
      <circle class="cls-8" cx="831.7" cy="908.9" r="14.3"/>
      <circle class="cls-8" cx="874.6" cy="896" r="14.3"/>
      <circle class="cls-8" cx="826.6" cy="956.5" r="14.3"/>
      <circle class="cls-1" cx="835.2" cy="692.7" r="14.3"/>
      <circle class="cls-1" cx="860.3" cy="734.8" r="14.3"/>
      <circle class="cls-1" cx="874.6" cy="844.4" r="14.3"/>
      <circle class="cls-1" cx="887.9" cy="788.4" r="14.3"/>
      <circle class="cls-1" cx="927.8" cy="745.9" r="14.3"/>
      <circle class="cls-1" cx="936.7" cy="788.4" r="14.3"/>
      <circle class="cls-1" cx="975.3" cy="830.6" r="14.3"/>
      <circle class="cls-1" cx="922.4" cy="872.3" r="14.3"/>
      <circle class="cls-1" cx="975.3" cy="689.3" r="14.3"/>
      <circle class="cls-1" cx="989.6" cy="734.8" r="14.3"/>
      <circle class="cls-1" cx="908.1" cy="699" r="14.3"/>
      <circle class="cls-1" cx="942.1" cy="643.3" r="14.3"/>
      <circle class="cls-1" cx="908.1" cy="600.2" r="14.3"/>
      <circle class="cls-1" cx="883.8" cy="944.7" r="14.3"/>
      <circle class="cls-1" cx="873.6" cy="995.7" r="14.3"/>
      <circle class="cls-1" cx="942.1" cy="925.6" r="14.3"/>
      <circle class="cls-1" cx="702.6" cy="944.7" r="14.3"/>
      <circle class="cls-1" cx="576.5" cy="757.7" r="14.3"/>
      <circle class="cls-1" cx="691.3" cy="811.9" r="14.3"/>
      <circle class="cls-1" cx="659.9" cy="684.7" r="14.3"/>
    </g>
  </g>
</svg>