<?xml version="1.0" encoding="UTF-8"?>
<svg id="Livello_1" data-name="Livello 1" xmlns="http://www.w3.org/2000/svg" version="1.1" viewBox="0 0 1086.2 1327.7">
  <defs>
    <style>
      .cls-1 {
        fill: #44a083;
      }

      .cls-1, .cls-2, .cls-3, .cls-4, .cls-5, .cls-6, .cls-7, .cls-8 {
        stroke-width: 0px;
      }

      .cls-2 {
        fill: #30917a;
      }

      .cls-3 {
        fill: #63ceaa;
      }

      .cls-4 {
        fill: #2c7c67;
      }

      .cls-5 {
        fill: #4db295;
      }

      .cls-6 {
        fill: #90ddc3;
      }

      .cls-7 {
        fill: #53c19f;
      }

      .cls-8 {
        fill: #4da290;
      }
    </style>
  </defs>
  <ellipse class="cls-8" cx="542.9" cy="664.5" rx="541.1" ry="662.2"/>
  <ellipse class="cls-6" cx="542.9" cy="664.5" rx="505.5" ry="618.6"/>
  <g>
    <path class="cls-5" d="M507.7,79.9c-41.2,2.4-114.1,19.1-169,57.2-73.2,50.8-136.1,114.6-135.2,159.4.9,44.8,57.6,39.6,94.8,5.6,48.9-44.7,71.7-70.8,128.1-110.1,44.9-31.4,87.4-63.5,120.2-72.9,11.8-3.4,57.4-2.7,31.4-22.6-7.1-5.5-35.7-18.6-70.3-16.6Z"/>
    <path class="cls-2" d="M279.3,260.3c6.7,7.4,20.2,8.3,40-3.4,25.2-14.9,28.3-31.8,20.8-43.7-7.2-11.4-27.2-18.3-47.9-3.6-27.9,19.7-20.2,42.6-12.9,50.7Z"/>
    <path class="cls-4" d="M343.3,229.7s1.4-4.7-.4-10.3c-2.5-8-9.8-17.7-22.5-17.4-17.8.4-29.6,4.6-40.7,20.9-11.1,16.3-6.2,34.4-.4,37.5,5.8,3.1-6.2-18.2,21.9-36.1,9.8-6.2,17.1-8.7,26.8-7.5,9.7,1.2,15.3,13,15.3,13Z"/>
  </g>
  <g>
    <path class="cls-5" d="M954.2,640.4c17.4-37.4,37.4-109.4,29.9-175.9-9.9-88.6-36.2-174.1-76-194.6-39.8-20.5-62.2,31.9-50,80.7,16.1,64.3,28.2,96.7,36,165,6.2,54.4,14.4,107,7.1,140.4-2.6,12-24.9,51.8,5,38.4,8.2-3.7,33.3-22.5,48-54Z"/>
    <path class="cls-2" d="M903.9,353.8c-9.7,2.3-16.9,13.8-16,36.8,1.1,29.3,14.5,40,28.6,39.1,13.5-.9,29-15.2,26-40.4-4.1-33.9-27.9-38-38.5-35.5Z"/>
    <path class="cls-4" d="M900.4,424.7s3.5,3.5,9.3,4.6c8.2,1.6,20.2-.2,26-11.5,8.1-15.8,10-28.3,1-45.8-9.1-17.5-27.3-21.8-32.8-18.2-5.4,3.6,18.9,3.2,21.4,36.5.9,11.5-.5,19.2-6.1,27.1-5.7,8-18.7,7.3-18.7,7.3Z"/>
  </g>
  <path class="cls-5" d="M332.9,934s43.3-24.4,93.8-39c43.8-12.7,119.2-37.2,149.3-14.7,31.8,23.9-5.5,42.7-15.9,50.3-10.4,7.6-78.3,38.9-122.7,49.3-44.4,10.4-112.1,30.6-131.8,36.2-19.6,5.6-61,18.1-61.2,7.7-.2-10.3,29.7-57.2,88.5-89.8Z"/>
  <g>
    <path class="cls-2" d="M465.1,921.4c-1.4-7.7,4.5-16.4,21.2-23,21.2-8.4,33.1-2.2,36.8,8.1,3.6,9.9-1.7,25.5-20.7,31.2-25.5,7.7-35.9-8-37.4-16.3Z"/>
    <path class="cls-4" d="M514.5,896.7s3.6,1.4,6.2,5.2c3.7,5.4,6.2,14.5,0,22.2-8.7,10.7-17,16-32.3,15-15.3-1-24.1-12.7-23.2-17.7.9-5,8.2,12.5,32.7,3.8,8.5-3,13.5-6.3,17.4-12.9,3.9-6.5-.7-15.6-.7-15.6Z"/>
  </g>
  <g>
    <path class="cls-5" d="M498.4,957.7c-2.4-41.2-18.9-114.1-57-169-50.7-73.3-114.4-136.2-159.2-135.4-44.8.8-39.6,57.6-5.8,94.8,44.6,49,70.7,71.8,109.9,128.2,31.3,45,63.4,87.4,72.8,120.3,3.4,11.8,2.7,57.4,22.6,31.5,5.5-7.1,18.7-35.6,16.6-70.3Z"/>
    <path class="cls-2" d="M318.3,729.2c-7.4,6.7-8.4,20.2,3.3,40,14.9,25.3,31.7,28.4,43.7,20.8,11.4-7.2,18.3-27.1,3.7-47.9-19.7-27.9-42.6-20.3-50.7-13Z"/>
    <path class="cls-4" d="M348.9,793.2s4.7,1.4,10.3-.4c8-2.5,17.7-9.8,17.5-22.5-.4-17.8-4.6-29.6-20.9-40.7-16.3-11.1-34.4-6.2-37.5-.4-3.1,5.8,18.2-6.2,36.1,22,6.2,9.8,8.7,17.1,7.5,26.8-1.2,9.7-13,15.3-13,15.3Z"/>
  </g>
  <g>
    <path class="cls-1" d="M510.4,218.9c-37.2-14-107.9-27.9-171.2-15.9-84.4,16-164.7,47.5-181.5,87.3-16.8,39.8,35.2,57.4,81.2,42.1,60.6-20.1,90.9-34.2,155.9-46.7,51.8-10,101.8-21.7,134.4-17.1,11.7,1.7,51.6,20.1,36.5-7.6-4.1-7.6-24.1-30.4-55.4-42.1Z"/>
    <g>
      <path class="cls-2" d="M238.7,288.2c3,9.1,14.5,15.3,36.6,12.7,28.1-3.2,37.4-16.9,35.4-30.3-1.9-12.9-16.7-26.8-40.7-22-32.3,6.4-34.5,29.6-31.3,39.6Z"/>
      <path class="cls-4" d="M307,286.3s3.1-3.6,3.7-9.2c.9-8-1.7-19.4-13-24.2-15.8-6.6-27.9-7.6-44,2.4-16.1,10-18.9,27.9-15,32.8,3.9,5,1.7-18.4,33.5-23.2,11-1.7,18.5-1,26.5,3.9,8.1,4.9,8.3,17.4,8.3,17.4Z"/>
    </g>
  </g>
  <g>
    <path class="cls-5" d="M595.4,768.1s62.2-16.1,142.7-14.7c80.5,1.4,137.6-.3,160.3,40.7,22.7,41-33.2,51-47.8,55.6-14.5,4.6-102.1,14-155.7,9-53.6-5.1-136.8-7.9-160.9-9-24.1-1.1-75-2.7-71.3-14.3,3.6-11.6,54.7-52.8,132.6-67.2Z"/>
    <path class="cls-2" d="M817.4,815.9c-1.7,9.8-12.7,17.8-35.7,18.4-29.3.8-40.9-11.9-40.8-26,0-13.5,13.3-29.9,38.7-28.5,34.1,1.9,39.8,25.4,37.9,36.1Z"/>
    <path class="cls-4" d="M747,823.9s-3.7-3.3-5.2-9c-2.1-8.1-1.1-20.2,9.8-26.7,15.3-9.1,27.6-11.8,45.6-3.9,18,7.9,23.5,25.9,20.2,31.5-3.3,5.7-4.4-18.7-37.8-19-11.6-.1-19.1,1.7-26.7,7.9-7.6,6.2-6,19.1-6,19.1Z"/>
  </g>
  <g>
    <path class="cls-5" d="M469,577.4s-61.2-19.5-128.6-63.6c-67.4-44.1-116.7-73.1-114-119.8,2.7-46.8,55.3-25.5,70-21.6,14.7,3.9,93.9,42.5,136.5,75.4,42.6,32.8,111.6,79.6,131.3,93.4,19.8,13.8,62,42.2,52.7,50.1-9.3,7.9-74.5,15.5-148-13.8Z"/>
    <path class="cls-2" d="M306.5,418.6c6.7-7.4,20.2-8.3,40,3.5,25.2,15,28.2,31.8,20.7,43.8-7.2,11.4-27.2,18.2-47.9,3.5-27.8-19.8-20.1-42.7-12.8-50.8Z"/>
    <path class="cls-4" d="M370.4,449.4s1.4,4.7-.4,10.3c-2.5,8-9.8,17.7-22.5,17.4-17.8-.5-29.6-4.7-40.7-21-11.1-16.3-6.1-34.4-.3-37.5,5.8-3-6.2,18.2,21.8,36.2,9.7,6.3,17.1,8.7,26.8,7.6,9.7-1.2,15.3-13,15.3-13Z"/>
  </g>
  <g>
    <path class="cls-1" d="M626.8,1168.8c37.4-13.6,100.1-48.9,140.4-99.2,53.7-67.1,94.2-143.2,81.1-184.3-13.1-41.1-64.1-20.7-89.1,20.8-32.9,54.7-46.8,85.1-88.1,136.9-32.9,41.3-63.3,82.6-91,100.4-10,6.4-52.2,18.3-22.8,29.5,8.1,3.1,38.1,7.4,69.5-4Z"/>
    <g>
      <path class="cls-2" d="M788.2,939.5c-8.2-5-20.9-2.1-36.1,14.1-19.2,20.7-17.4,37.1-7.2,46.1,9.8,8.6,30.1,9.4,45.3-9.8,20.3-25.9,7-44.9-2-50.4Z"/>
      <path class="cls-4" d="M737.5,985.3s0,4.7,3.2,9.4c4.5,6.7,13.9,13.7,25.6,9.9,16.3-5.3,26.1-12.4,31.9-30.5,5.8-18.1-3.8-33.5-9.9-34.7-6.2-1.2,10.7,15.1-10.3,39.4-7.3,8.4-13.4,12.7-22.7,14.3-9.3,1.6-17.7-7.8-17.7-7.8Z"/>
    </g>
  </g>
  <g>
    <path class="cls-1" d="M802.9,662.8c24.3-31.5,58.4-94.9,65.6-158.9,9.5-85.4,3.1-171.4-30-199.1-33.1-27.7-65.2,16.7-64.2,65.2,1.4,63.8,5.9,96.9-1.2,162.8-5.7,52.5-9.3,103.7-23.3,133.5-5,10.7-34.4,43.4-3.5,37.2,8.5-1.7,36.1-14.1,56.6-40.6Z"/>
    <g>
      <path class="cls-2" d="M816.7,382.7c-9.6.1-18.9,9.4-22.9,31.2-5.2,27.8,5.1,40.7,18.5,42.8,12.8,2,30.5-8.1,33-32.5,3.4-32.7-18.2-41.7-28.6-41.5Z"/>
      <path class="cls-4" d="M798.4,448.6s2.5,4,7.7,6.3c7.4,3.2,19.1,4.1,26.9-5.3,11-13.1,15.4-24.4,10.6-42.8-4.8-18.4-21.1-26.3-26.9-24-5.9,2.2,17.1,7,12.3,38.8-1.7,11-4.5,17.9-11.5,24.2-7,6.3-19.1,2.8-19.1,2.8Z"/>
    </g>
  </g>
  <g>
    <path class="cls-1" d="M760.3,856c37-14.5,98.8-51.5,137.8-102.8,52-68.4,90.6-145.5,76.4-186.3-14.2-40.8-64.6-19.1-88.5,23.1-31.5,55.5-44.6,86.2-84.6,139.1-31.8,42.1-61.1,84.2-88.4,102.6-9.8,6.6-51.8,19.6-22.1,30.1,8.2,2.9,38.2,6.4,69.4-5.8Z"/>
    <g>
      <path class="cls-2" d="M915.8,622.6c-8.3-4.8-21-1.6-35.7,15-18.7,21.2-16.5,37.5-6,46.2,10,8.3,30.4,8.7,45-10.9,19.7-26.4,5.8-45.1-3.3-50.3Z"/>
      <path class="cls-4" d="M866.3,669.7s.1,4.7,3.4,9.4c4.7,6.6,14.3,13.3,25.8,9.3,16.1-5.7,25.8-13.1,31.1-31.3,5.3-18.2-4.6-33.4-10.8-34.5-6.2-1.1,11.1,14.8-9.3,39.6-7.1,8.6-13.1,13.1-22.3,14.9-9.3,1.8-17.9-7.4-17.9-7.4Z"/>
    </g>
  </g>
  <g>
    <path class="cls-1" d="M584.2,472.4c-19.5-34.7-64.7-90.7-120.9-122.2-75-42-156.7-69.5-195.1-49.8-38.4,19.7-9.9,66.6,35.1,84.5,59.3,23.5,91.6,32.2,149.4,64.5,46.1,25.7,91.9,48.9,113.9,73.3,7.9,8.8,26.6,48.5,32.9,17.7,1.7-8.5,1.1-38.8-15.3-67.9Z"/>
    <g>
      <path class="cls-2" d="M331.5,350.7c-3.6,8.9,1.3,21,19.8,33.3,23.6,15.6,39.5,11.1,46.6-.4,6.8-11,4.4-31.3-17.1-43-28.8-15.8-45.5.5-49.4,10.2Z"/>
      <path class="cls-4" d="M385.1,393.2s4.7-.8,8.8-4.7c5.9-5.6,11.2-16,5.6-26.8-7.8-15.2-16.5-23.7-35.3-26.5-18.8-2.7-32.4,9.2-32.6,15.5-.2,6.3,13.1-13,40.5,3.7,9.5,5.8,14.8,11.1,17.8,20.1,3.1,8.9-4.8,18.7-4.8,18.7Z"/>
    </g>
  </g>
  <g>
    <path class="cls-5" d="M579,164.3s64.3.4,141.7,22.5c77.4,22,133.1,35,144.5,80.5,11.4,45.5-45.2,40.8-60.5,41.5-15.2.7-102.3-12.7-152.8-31.3-50.5-18.7-130.2-42.8-153.2-50.1-23-7.3-71.8-21.9-65.2-32.2,6.5-10.3,66.5-37,145.4-30.8Z"/>
    <path class="cls-2" d="M781.3,267.6c-4.2,9.1-16.8,13.9-39.3,8.6-28.5-6.8-36.4-22-32.8-35.6,3.5-13,20.6-25.5,44.7-17.6,32.5,10.6,31.9,34.8,27.3,44.7Z"/>
    <path class="cls-4" d="M711.1,257.2s-2.7-4.1-2.7-10c0-8.4,4.1-19.8,16.3-23.3,17.1-4.8,29.7-4.3,45.1,8,15.4,12.3,16,31.1,11.4,35.7-4.6,4.6.5-19.2-31.6-28-11.2-3.1-18.9-3.3-27.8.7-8.9,4-10.7,16.9-10.7,16.9Z"/>
  </g>
  <g>
    <path class="cls-7" d="M709.5,309.2c-41.3-1.4-114.5-16.1-170.4-52.7-74.5-48.9-139-110.9-139.3-155.7-.3-44.8,56.6-41.1,94.6-8.1,50.1,43.4,73.5,68.9,130.9,106.7,45.7,30.2,89,61.2,122.1,69.7,11.9,3.1,57.4,1.2,32,21.8-7,5.7-35.2,19.5-69.9,18.4Z"/>
    <path class="cls-2" d="M476.5,134.8c6.5-7.6,20-8.9,40.1,2.3,25.6,14.2,29.2,31,21.9,43.1-6.9,11.6-26.7,19-47.8,4.9-28.4-19-21.3-42.1-14.3-50.4Z"/>
    <path class="cls-4" d="M541.3,163.8s1.5,4.7-.1,10.3c-2.3,8.1-9.3,18-22,18-17.8,0-29.7-3.8-41.3-19.8-11.5-16-7.1-34.2-1.4-37.4,5.7-3.2-5.7,18.3,22.9,35.5,9.9,6,17.3,8.2,27,6.8,9.7-1.5,14.9-13.4,14.9-13.4Z"/>
  </g>
  <g>
    <path class="cls-7" d="M873.4,226.8c-22.8-34.4-73.6-89.2-134.1-117.6-80.7-37.9-167.3-60.4-205.6-37.2-38.3,23.2-5.4,69.7,42.6,84.9,63.1,20,97.2,26.6,159.4,55.7,49.6,23.2,98.7,43.8,123.3,67.5,8.9,8.5,31.1,48.3,35.3,15.9,1.2-8.9-1.8-40.2-20.9-69.2Z"/>
    <path class="cls-2" d="M602.9,119.5c-3.1,9.5,2.9,21.7,23,33,25.5,14.4,41.7,8.6,48.2-3.9,6.3-11.9,2.2-32.7-20.8-43.3-31-14.3-47,3.9-50.4,14.2Z"/>
    <path class="cls-4" d="M661.5,159.6s4.8-1.2,8.7-5.5c5.7-6.2,10.4-17.4,3.8-28.2-9.2-15.2-18.8-23.3-38.5-24.8-19.7-1.4-32.9,11.9-32.6,18.4.2,6.5,12.6-14.4,42.2.9,10.3,5.3,16.1,10.4,19.9,19.4,3.8,9-3.6,19.7-3.6,19.7Z"/>
  </g>
  <g>
    <g>
      <path class="cls-5" d="M659.9,1042.1s-38.6,51.4-102.5,100.4c-63.8,49-107.5,86-150.7,68.1-43.3-17.9-5.8-60.6,2.7-73.2,8.5-12.6,71.1-74.6,116.2-104,45.1-29.4,111.9-79,131.5-93.2,19.5-14.1,60.3-44.6,64.7-33.2,4.4,11.4-9.9,75.4-61.9,135.2Z"/>
      <path class="cls-2" d="M456.4,1143c-4.8-8.8-1.1-21.8,16.5-36.6,22.4-18.9,39.4-16.2,48.1-5.1,8.4,10.6,8.2,31.7-12.5,46.4-27.9,19.7-46.9,4.9-52.1-4.7Z"/>
      <path class="cls-4" d="M506.6,1092.8s4.9.3,9.6,3.8c6.7,5,13.5,15.1,9,27-6.3,16.6-14.2,26.4-33.2,31.5-19,5-34.5-5.6-35.5-12.1-1-6.5,15.1,11.9,41.4-8.7,9.1-7.1,13.9-13.2,16-22.8,2.1-9.6-7.2-18.7-7.2-18.7Z"/>
    </g>
    <g>
      <path class="cls-7" d="M378.6,1045.7c25.7-32.3,81.1-82.4,143.9-105.4,83.7-30.7,171.9-45.5,208.1-19.1,36.2,26.5-.7,69.9-49.8,80.8-64.7,14.4-99.1,18-163.7,41.6-51.5,18.8-102.2,35-128.7,56.5-9.6,7.7-35.2,45.4-36.6,12.7-.4-9,5.3-39.9,26.9-67.1Z"/>
      <path class="cls-2" d="M657.5,962.4c2.2,9.7-4.8,21.3-25.8,30.8-26.7,12.1-42.3,4.9-47.7-8.1-5.2-12.4.6-32.8,24.5-41.3,32.1-11.5,46.5,8,49,18.6Z"/>
      <path class="cls-4" d="M595.7,997.2s-4.7-1.6-8.2-6.3c-5.1-6.7-8.9-18.2-1.4-28.4,10.5-14.3,20.8-21.6,40.5-21.3,19.7.3,31.7,14.7,30.9,21.2-.8,6.5-11.3-15.5-42.2-2.8-10.7,4.4-16.9,9-21.5,17.6-4.6,8.6,1.9,20,1.9,20Z"/>
    </g>
    <g>
      <path class="cls-7" d="M417.1,1251.8c39.9,10.7,114.2,17.9,178.4-.9,85.5-25.1,165.3-65.7,178.6-108.5,13.3-42.8-42.2-55.7-88.1-35.3-60.5,26.9-90.4,44.5-156.3,64-52.5,15.6-103,32.6-137.1,31.2s-55.3-15.5-37,11.5c5,7.4,28,28.9,61.5,37.9Z"/>
      <path class="cls-2" d="M690.8,1152.8c-4-9.1-16.5-14.3-39.1-9.4-28.7,6.2-36.9,21.2-33.5,34.9,3.2,13.1,20,26,44.3,18.6,32.7-9.9,32.6-34.1,28.3-44Z"/>
      <path class="cls-4" d="M620.4,1161.6s-2.8,4-2.9,9.9c-.1,8.4,3.7,19.9,15.8,23.6,17,5.2,29.6,5,45.2-7,15.7-11.9,16.7-30.7,12.2-35.4-4.5-4.7.1,19.2-32.2,27.3-11.2,2.8-19,2.9-27.8-1.4-8.8-4.2-10.4-17.2-10.4-17.2Z"/>
    </g>
  </g>
  <g>
    <path class="cls-5" d="M746.3,1157.5c37.4-13.6,100.1-49,140.3-99.3,53.6-67.1,94.1-143.2,81-184.4-13.1-41.1-64.1-20.7-89.1,20.9-32.9,54.7-46.7,85.1-88,136.9-32.9,41.3-63.2,82.7-90.9,100.4-10,6.4-52.2,18.3-22.8,29.6,8.1,3.1,38.1,7.4,69.5-4.1Z"/>
    <g>
      <path class="cls-2" d="M907.6,928c-8.2-5-20.9-2.1-36,14.1-19.2,20.7-17.4,37.1-7.2,46.1,9.8,8.6,30.1,9.4,45.2-9.8,20.3-25.9,6.9-44.9-2-50.4Z"/>
      <path class="cls-4" d="M856.9,973.9s0,4.7,3.2,9.4c4.5,6.7,13.9,13.7,25.6,9.9,16.3-5.3,26.1-12.4,31.9-30.5,5.8-18.1-3.8-33.5-9.9-34.7-6.2-1.2,10.7,15.1-10.3,39.4-7.3,8.4-13.4,12.7-22.7,14.3-9.3,1.6-17.7-7.8-17.7-7.8Z"/>
    </g>
  </g>
  <g>
    <path class="cls-1" d="M353.1,1149.1c-33.7-21.2-87.4-69.1-116.1-126.8-38.2-76.9-61.6-159.9-40.1-197.3,21.6-37.4,67-6.6,82.6,39.3,20.5,60.4,27.6,93.1,57,152.5,23.4,47.3,44.2,94.2,67.6,117.4,8.4,8.4,47.2,29,16,33.7-8.6,1.3-38.8-.9-67.1-18.7Z"/>
    <g>
      <path class="cls-2" d="M244.1,890.7c9.1-3.2,20.9,2.4,32.2,21.5,14.4,24.3,9.2,40-2.8,46.6-11.4,6.3-31.4,2.8-42.1-19.2-14.4-29.6,2.8-45.4,12.7-48.8Z"/>
      <path class="cls-4" d="M283.9,946.3s-1,4.6-5.1,8.5c-5.8,5.6-16.5,10.4-27.1,4.3-14.8-8.6-22.9-17.7-24.7-36.6-1.8-18.9,10.8-31.9,17.1-31.8,6.3,0-13.7,12.5,1.7,40.7,5.3,9.8,10.4,15.3,19.1,18.8,8.8,3.5,18.9-3.9,18.9-3.9Z"/>
    </g>
  </g>
  <g>
    <path class="cls-5" d="M238.8,1112.6c-33.6-21.2-87.4-69.2-116-126.9-38.2-77-61.5-160-39.9-197.4,21.6-37.4,67-6.6,82.6,39.3,20.5,60.4,27.6,93.1,56.9,152.5,23.3,47.4,44.2,94.2,67.5,117.5,8.4,8.4,47.2,29,16,33.7-8.6,1.3-38.8-.9-67-18.7Z"/>
    <g>
      <path class="cls-2" d="M130,854.2c9.1-3.2,20.9,2.4,32.2,21.5,14.4,24.3,9.1,40-2.8,46.6-11.4,6.3-31.4,2.8-42.1-19.2-14.4-29.6,2.8-45.4,12.7-48.8Z"/>
      <path class="cls-4" d="M169.7,909.8s-1,4.6-5.1,8.5c-5.8,5.6-16.5,10.4-27.1,4.3-14.8-8.6-22.9-17.7-24.6-36.6-1.8-18.9,10.8-31.9,17.1-31.8,6.3.1-13.7,12.5,1.7,40.7,5.3,9.8,10.4,15.3,19.1,18.8,8.8,3.5,18.9-3.9,18.9-3.9Z"/>
    </g>
  </g>
  <g>
    <path class="cls-1" d="M172.2,779.8c-13.8-37.3-27.3-108.1-14.8-171.3,16.6-84.3,48.5-164.4,88.4-180.9,39.9-16.5,57.2,35.6,41.6,81.5-20.5,60.4-34.7,90.7-47.7,155.6-10.3,51.8-22.3,101.7-17.9,134.3,1.6,11.8,19.8,51.7-7.8,36.5-7.6-4.2-30.2-24.3-41.8-55.7Z"/>
    <g>
      <path class="cls-2" d="M243.1,508.5c9.1,3,15.2,14.6,12.5,36.7-3.4,28-17.1,37.3-30.5,35.3-12.8-1.9-26.7-16.9-21.7-40.9,6.6-32.2,29.8-34.3,39.8-31Z"/>
      <path class="cls-4" d="M240.9,576.9s-3.6,3-9.3,3.6c-8,.9-19.4-1.8-24.1-13.1-6.5-15.8-7.4-27.9,2.7-44,10.1-16.1,28-18.7,32.9-14.8,4.9,3.9-18.4,1.6-23.4,33.3-1.7,11-1.1,18.5,3.7,26.6,4.8,8.1,17.4,8.4,17.4,8.4Z"/>
    </g>
  </g>
  <g>
    <path class="cls-5" d="M103.7,681.3c-13.8-37.3-27.2-108.1-14.7-171.3,16.6-84.3,48.6-164.4,88.5-180.9,39.9-16.5,57.2,35.6,41.6,81.5-20.5,60.4-34.8,90.6-47.8,155.6-10.3,51.8-22.3,101.7-18,134.3,1.6,11.8,19.7,51.7-7.9,36.5-7.6-4.2-30.2-24.3-41.8-55.7Z"/>
    <g>
      <path class="cls-2" d="M174.8,410c9.1,3,15.2,14.6,12.5,36.7-3.4,28-17.1,37.3-30.6,35.2-12.8-1.9-26.7-16.9-21.7-40.9,6.6-32.2,29.9-34.3,39.8-31Z"/>
      <path class="cls-4" d="M172.5,478.3s-3.6,3-9.3,3.6c-8,.9-19.4-1.8-24.1-13.1s-7.4-27.9,2.7-44c10.1-16.1,28-18.7,32.9-14.8,4.9,3.9-18.4,1.6-23.4,33.3-1.7,11-1.1,18.5,3.7,26.6,4.8,8.1,17.4,8.5,17.4,8.5Z"/>
    </g>
  </g>
  <g>
    <path class="cls-1" d="M734.5,590.5c-36.4-16.1-106.1-33.9-170-25.5-85.2,11.3-167.1,38.2-186.1,76.9-19,38.8,31.9,59.3,78.7,46.6,61.6-16.7,92.6-29,158.3-37.9,52.3-7.1,102.9-15.9,135.1-9.5,11.6,2.3,50.4,23,36.9-5.5-3.7-7.8-22.4-31.7-53-45.2Z"/>
    <g>
      <path class="cls-2" d="M459.2,644.4c2.4,9.3,13.6,16,35.8,14.8,28.2-1.6,38.3-14.7,37.1-28.3-1.1-12.9-15.2-27.7-39.4-24.2-32.6,4.6-36.1,27.6-33.4,37.8Z"/>
      <path class="cls-4" d="M527.6,646.4s3.3-3.4,4.2-9c1.4-8-.6-19.5-11.6-24.8-15.4-7.5-27.4-9.1-44.1,0-16.7,9.1-20.5,26.8-16.9,31.9,3.6,5.2,2.7-18.3,34.7-21.3,11.1-1,18.5,0,26.3,5.4,7.8,5.3,7.3,17.9,7.3,17.9Z"/>
    </g>
  </g>
  <g>
    <path class="cls-5" d="M494.1,659.4s62.2-16.1,142.7-14.7c80.5,1.4,137.6-.3,160.3,40.7,22.7,41-33.2,51-47.8,55.6-14.5,4.6-102.1,14-155.7,9-53.6-5.1-136.8-7.9-160.9-9s-75-2.7-71.3-14.3c3.6-11.6,54.7-52.8,132.6-67.2Z"/>
    <path class="cls-2" d="M716.1,707.2c-1.7,9.8-12.7,17.8-35.7,18.4-29.3.8-40.9-11.9-40.8-26,0-13.5,13.3-29.9,38.7-28.5,34.1,1.9,39.8,25.4,37.9,36.1Z"/>
    <path class="cls-4" d="M645.7,715.2s-3.7-3.3-5.2-9c-2.1-8.1-1.1-20.2,9.8-26.7s27.6-11.8,45.6-3.9c18,7.9,23.5,25.9,20.2,31.5-3.3,5.7-4.4-18.7-37.8-19-11.6-.1-19.1,1.7-26.7,7.9-7.6,6.2-6,19.1-6,19.1Z"/>
  </g>
  <g>
    <path class="cls-7" d="M719.6,858.3c-40.2,9.3-114.8,13.9-178.3-7.2-84.6-28.1-162.9-71.5-174.7-114.7-11.8-43.2,44.1-54.2,89.3-32.2,59.5,29,88.8,47.6,153.9,69.5,52,17.4,101.7,36.3,135.9,36,12.3,0,55.8-13.6,36.5,12.8-5.3,7.3-29,27.9-62.8,35.7Z"/>
    <path class="cls-2" d="M449.6,749.7c4.3-9,17-13.7,39.4-8.1,28.4,7.2,36.1,22.5,32.3,36.1-3.7,13-20.9,25.2-44.9,17-32.3-11-31.4-35.2-26.7-45Z"/>
    <path class="cls-4" d="M519.6,761s2.7,4.1,2.5,10c-.2,8.4-4.4,19.8-16.6,23.1-17.1,4.6-29.7,3.9-45-8.6-15.2-12.5-15.6-31.3-11-35.8,4.7-4.6-.8,19.2,31.2,28.5,11.1,3.2,18.9,3.5,27.8-.4,9-3.9,11-16.8,11-16.8Z"/>
  </g>
  <g>
    <path class="cls-5" d="M525.7,696.6c-25.4-30.6-79.9-77.7-140.8-98.6-81.3-27.9-166.6-40.3-200.9-14.1-34.3,26.2,2.1,67.3,49.7,76.8,62.6,12.5,95.9,15.3,158.6,36.7,50,17,99.2,31.6,125.2,51.8,9.4,7.3,34.9,43,35.5,11.5.2-8.6-5.9-38.3-27.2-64.1Z"/>
    <g>
      <path class="cls-2" d="M255.4,622.1c-2,9.4,5,20.4,25.5,29.2,26,11.1,40.8,3.9,45.8-8.8,4.8-12.1-1.3-31.5-24.5-39.3-31.2-10.4-44.6,8.6-46.8,18.9Z"/>
      <path class="cls-4" d="M315.6,654.4s4.4-1.6,7.8-6.2c4.8-6.5,8.2-17.7.7-27.4-10.4-13.6-20.5-20.4-39.5-19.7-19,.7-30.2,14.8-29.3,21.1.9,6.2,10.6-15.2,40.6-3.6,10.4,4,16.5,8.3,21.1,16.5,4.6,8.2-1.4,19.3-1.4,19.3Z"/>
    </g>
  </g>
  <g>
    <path class="cls-5" d="M671.1,869.2c-36.4-16.1-106.2-33.9-170-25.4-85.2,11.3-167.1,38.3-186,77.1-19,38.8,32,59.3,78.7,46.6,61.6-16.7,92.6-29.1,158.3-38,52.3-7.1,102.9-16,135.1-9.6,11.6,2.3,50.4,22.9,36.9-5.6-3.7-7.8-22.4-31.7-53-45.2Z"/>
    <g>
      <path class="cls-2" d="M396,923.3c2.5,9.3,13.6,16,35.8,14.7,28.2-1.7,38.3-14.7,37.1-28.3-1.1-12.9-15.2-27.7-39.5-24.2-32.6,4.6-36.1,27.7-33.4,37.8Z"/>
      <path class="cls-4" d="M464.3,925.2s3.3-3.4,4.2-9c1.4-8-.6-19.5-11.6-24.8-15.4-7.5-27.4-9.1-44.1,0-16.7,9.1-20.4,26.8-16.8,31.9,3.6,5.2,2.7-18.3,34.7-21.3,11.1-1,18.5,0,26.3,5.4,7.8,5.3,7.4,17.9,7.4,17.9Z"/>
    </g>
  </g>
  <g>
    <path class="cls-5" d="M872,489.9c-30.4-25.7-92.2-62.6-155.9-72.5-84.9-13.3-171.1-10.6-200.3,21.2-29.2,31.8,13.9,65.9,62.3,67,63.8,1.4,97.1-1.7,162.5,8.4,52.2,8,103.2,13.8,132.3,29.1,10.5,5.5,41.8,36.3,37,5.1-1.3-8.5-12.5-36.7-38-58.3Z"/>
    <g>
      <path class="cls-2" d="M592.8,463.9c-.3,9.6,8.5,19.2,30.2,24.3,27.5,6.4,40.9-3.3,43.6-16.6,2.6-12.7-6.8-30.8-31-34.4-32.5-4.8-42.5,16.3-42.8,26.8Z"/>
      <path class="cls-4" d="M657.8,485.1s4.1-2.4,6.6-7.5c3.6-7.3,5-18.9-4.1-27.1-12.7-11.5-23.7-16.5-42.3-12.5-18.6,4-27.2,19.9-25.2,25.9,2,6,7.8-16.8,39.3-10.6,11,2.1,17.7,5.3,23.7,12.6,6,7.3,2,19.2,2,19.2Z"/>
    </g>
  </g>
  <g>
    <path class="cls-7" d="M672.8,330.5s-56.6-5.9-126.9,5.9c-70.3,11.8-120.5,17.8-135,56.7-14.5,38.9,35.8,40.3,49.1,42.4,13.3,2.1,91.2-1.2,137.5-12.6,46.2-11.5,118.7-24.9,139.6-29.1,20.9-4.1,65.3-12.2,60.5-21.9-4.7-9.7-54.9-39-124.9-41.3Z"/>
    <g>
      <path class="cls-2" d="M484.7,401.6c2.8,8.4,13.5,13.9,33.7,11.4,25.8-3.2,34.2-15.8,32.3-28.1-1.8-11.8-15.6-24.4-37.6-19.9-29.6,6.2-31.5,27.5-28.4,36.6Z"/>
      <path class="cls-4" d="M547.5,399.3s2.8-3.3,3.3-8.5c.8-7.4-1.7-17.8-12.1-22.1-14.6-5.9-25.7-6.7-40.4,2.6-14.8,9.3-17.2,25.8-13.5,30.3,3.6,4.5,1.4-16.9,30.5-21.6,10.1-1.6,17-1,24.4,3.4,7.5,4.4,7.8,16,7.8,16Z"/>
    </g>
  </g>
  <g>
    <path class="cls-7" d="M375.5,509.2s-53.3-19.8-124.3-25.8c-71-6-121.2-12.7-144.8,21.4-23.7,34.1,24.7,47.9,37.1,53.3,12.4,5.3,88.6,21.6,136.3,21.9,47.6.4,121.2,5.4,142.5,6.6s66.3,4.4,64.1-6.2c-2.2-10.6-43.4-51.4-110.7-71.1Z"/>
    <g>
      <path class="cls-2" d="M175.6,531.3c.6,8.8,9.6,16.8,29.8,19.4,25.7,3.3,37.1-6.8,38.3-19.2,1.2-11.9-9-27.6-31.5-28.6-30.2-1.4-37.3,18.8-36.6,28.4Z"/>
      <path class="cls-4" d="M237,544.7s3.5-2.5,5.3-7.4c2.6-7,2.8-17.7-6.2-24.4-12.6-9.4-23.2-12.9-39.8-7.5-16.6,5.3-23,20.7-20.6,26,2.4,5.3,5.6-16,35-13.3,10.2,1,16.7,3.2,22.8,9.3,6.1,6.1,3.6,17.4,3.6,17.4Z"/>
    </g>
  </g>
  <g>
    <path class="cls-3" d="M846,619.1c-24.5-33.2-78.2-85.2-140.1-110.5-82.5-33.7-193.5-31.5-230.6-6.3-37.1,25.2,21.6,49.8,70.2,62.4,64.1,16.6,98.4,21.5,162.1,47.3,50.8,20.6,100.9,38.6,126.7,61,9.3,8.1,33.6,46.6,36.1,14,.7-9-3.8-40-24.5-68Z"/>
    <path class="cls-2" d="M569.9,528.2c-2,9.8,5.2,21.2,26.4,30.3,27,11.5,42.4,4,47.5-9.1,4.9-12.5-1.3-32.7-25.4-40.8-32.4-10.8-46.3,9-48.5,19.6Z"/>
    <path class="cls-4" d="M632.4,561.6s4.6-1.7,8.1-6.4c4.9-6.8,8.5-18.4.7-28.4-10.8-14.1-21.3-21.1-41-20.4-19.7.7-31.4,15.4-30.4,21.9,1,6.5,11-15.7,42.1-3.7,10.8,4.2,17.1,8.6,21.9,17.2,4.8,8.5-1.4,20-1.4,20Z"/>
  </g>
  <g>
    <path class="cls-3" d="M622.9,321.3c-24.5-33.2-78.2-85.2-140.1-110.5-82.5-33.7-193.5-31.5-230.6-6.3-37.1,25.2,21.6,49.8,70.2,62.4,64.1,16.6,98.4,21.5,162.1,47.3,50.8,20.6,100.9,38.6,126.7,61,9.3,8.1,33.6,46.6,36.1,14,.7-9-3.8-40-24.5-68Z"/>
    <path class="cls-2" d="M346.8,230.4c-2,9.8,5.2,21.2,26.4,30.3,27,11.5,42.4,4,47.5-9.1,4.9-12.5-1.3-32.7-25.4-40.8-32.4-10.8-46.3,9-48.5,19.6Z"/>
    <path class="cls-4" d="M409.3,263.8s4.6-1.7,8.1-6.4c4.9-6.8,8.5-18.4.7-28.4-10.8-14.1-21.3-21.1-41-20.4-19.7.7-31.4,15.4-30.4,21.9,1,6.5,11-15.7,42.1-3.7,10.8,4.2,17.1,8.6,21.9,17.2,4.8,8.5-1.4,20-1.4,20Z"/>
  </g>
  <g>
    <path class="cls-3" d="M552.3,1213.2c-40.4,8.6-115,12-178.1-10.1-84.1-29.5-165.8-104.7-176.9-148.1-11.1-43.4,49.1-23,94-.2,59,30,88,49.1,152.8,72,51.7,18.3,101.1,37.9,135.3,38.3,12.3.1,56-12.6,36.3,13.4-5.4,7.2-29.4,27.4-63.4,34.7Z"/>
    <path class="cls-2" d="M285.3,1098.2c5-8.7,18-12.4,39.8-5.1,27.8,9.2,34.4,25.1,29.6,38.3-4.6,12.7-22.7,23.6-46.1,13.7-31.4-13.4-28.7-37.4-23.3-46.9Z"/>
    <path class="cls-4" d="M354.3,1114.6s2.3,4.3,1.8,10.2c-.8,8.3-5.8,19.4-18.3,21.8-17.4,3.3-29.9,1.7-44.2-11.8-14.3-13.6-13.3-32.3-8.3-36.5,5-4.2-2.2,19.1,29.1,30.7,10.9,4,18.5,4.9,27.8,1.7,9.2-3.2,12.2-15.9,12.2-15.9Z"/>
  </g>
  <g>
    <path class="cls-3" d="M426.7,902.9c-40.4,8.6-115,12-178.1-10.1-84.1-29.5-165.8-104.7-176.9-148.1-11.1-43.4,49.1-23,94-.2,59,30,88,49.1,152.8,72,51.7,18.3,101.1,37.9,135.3,38.3,12.3.1,56-12.6,36.3,13.4-5.4,7.2-29.4,27.4-63.4,34.7Z"/>
    <path class="cls-2" d="M159.6,788c5-8.7,18-12.4,39.8-5.1,27.8,9.2,34.4,25.1,29.6,38.3-4.6,12.7-22.7,23.6-46.1,13.7-31.4-13.4-28.7-37.4-23.3-46.9Z"/>
    <path class="cls-4" d="M228.7,804.4s2.3,4.3,1.8,10.2c-.8,8.3-5.8,19.4-18.3,21.8-17.4,3.3-29.9,1.7-44.2-11.8-14.3-13.6-13.3-32.3-8.3-36.5,5-4.2-2.2,19.1,29.1,30.7,10.9,4,18.5,4.9,27.8,1.7,9.2-3.2,12.2-15.9,12.2-15.9Z"/>
  </g>
  <g>
    <path class="cls-3" d="M1012.1,545.7c11.9,39.5,21.5,113.6,4.7,178.3-22.4,86.3-90.5,173.9-132.9,188.6-42.3,14.6-27-47.1-8-93.6,25-61.3,41.6-91.7,59.1-158.2,13.9-53,29.4-103.9,26.9-138-.9-12.3-17.3-54.8,10.4-37.3,7.6,4.8,29.8,27,39.8,60.3Z"/>
    <path class="cls-2" d="M919.8,821.3c-9-4.2-13.9-16.9-8.4-39.3,6.9-28.5,22.1-36.4,35.7-32.6,13,3.6,25.4,20.7,17.5,44.8-10.7,32.4-34.9,31.8-44.8,27.2Z"/>
    <path class="cls-4" d="M930.4,751.2s4.1-2.7,10-2.6c8.4,0,19.8,4.2,23.2,16.4,4.8,17.1,4.2,29.7-8.1,45-12.3,15.4-31.1,15.9-35.7,11.3-4.6-4.6,19.2.6,28.2-31.5,3.1-11.2,3.3-18.9-.6-27.8-4-8.9-16.9-10.8-16.9-10.8Z"/>
  </g>
</svg>