<?xml version="1.0" encoding="UTF-8"?>
<svg id="Livello_1" data-name="Livello 1" xmlns="http://www.w3.org/2000/svg" version="1.1" viewBox="0 0 62.4 62.4">
  <defs>
    <style>
      .cls-1 {
        fill: #d7ad9b;
      }

      .cls-1, .cls-2, .cls-3, .cls-4, .cls-5, .cls-6, .cls-7, .cls-8 {
        stroke-width: 0px;
      }

      .cls-2 {
        fill: #d9dde3;
      }

      .cls-9 {
        stroke-width: 1.3px;
      }

      .cls-9, .cls-10, .cls-11 {
        fill: #fff;
        stroke: #fff;
        stroke-linecap: round;
        stroke-linejoin: round;
      }

      .cls-3 {
        fill: #ebbfac;
      }

      .cls-4 {
        fill: #fbd7c9;
      }

      .cls-5 {
        fill: #c5686a;
      }

      .cls-5, .cls-7, .cls-8 {
        isolation: isolate;
        opacity: .5;
      }

      .cls-6 {
        fill: #e9f0f4;
      }

      .cls-10 {
        stroke-width: 1.5px;
      }

      .cls-11 {
        stroke-width: 1.3px;
      }

      .cls-7 {
        fill: #b63a3e;
      }

      .cls-8 {
        fill: #bf5557;
      }
    </style>
  </defs>
  <path class="cls-10" d="M55.8,10.2c-3.6-5.9-7-7.6-9.7-8-2.6-.4-5.6-1.2-7.1-1.2-.2,0-1.8,3-4.6,4.8-4.5,2.3-9.5,1.3-12.1-1.1-1.6-1.5-2.3-3.2-2.3-3.3,0,0,0-.1,0-.2l-5.8.9c-.7,0-1.3.3-2,.6h0s0,0,0,0h-.1c0,0,0,0,0,0-2.1,1.1-4.4,3.7-7,9.8-1.1,2.5-3.4,8.5-3.3,8.9,0,.3,2.9,1.7,5.8,2.9,3.2,1.2,5.3,2.4,5.5,1.6.1-.4.6-1.3.8-1.9.2,3.1.8,11.7,1.2,15.3.2,1.6.1,3.4,0,5.3-.4-.7-.8-1.3-1.1-1.5-.1-.1-.2-.2-.3-.2h0c-.2,0-.8.5-1.4,1.1-.6.6-1.2,1.5-1.6,2.3-.2.5-.3,1-.2,1.4,0,.7.7,1.9,1.9,3.1.5.5,1,.9,1.7,1.4.1,0,.3.2.4.3-.1,1.2-.2,2.3-.3,3.2,0,.5,0,1.5.2,1.8.3.3.9.4,1.9.6.9.2,2.8.7,5.2,1,.1.1.2.2.2.2,0,0,.4.7,1.9,1.1,1.5.4,2.1.6,2.1.6,0,0,.2,0,.5,0,.2,0,.4,0,.7,0,.3,0,.6,0,.7-.2.2-.3.4-.8-.5-1.3,1.6.1,3.3.2,5.1.1,13.9-.4,12.9-.4,16.1-1.2,1-.3,1.7-.5,1.9-.7.4-.4,0-1.8,0-3.7-.1-1.9-.3-3.6-.4-5.2.6-.8,1.1-1.5,1.3-1.6,2.3-1.3,3.8-3,4.5-4.2.2-.4.3-.8.4-1.1.3-1-.8-2.7-1.9-3.9-.6-.7-1.2-1.2-1.5-1.2-.2,0-.5.3-.7.7-.3.4-.6,1-1.1,1.6-.3.4-.8.8-1.3,1.1-.3.2-.6.3-.9.4-.3-1.4-.5-2.3-.5-2.5,0-.8.5-14.9.8-15.5.3-.6,1.7,2.2,2.3,2.7.3.3,2.9-.9,5.4-2.9,2.2-1.8,4.3-4.3,4.3-4.5,0-.5-1.3-2.1-4.9-8Z"/>
  <g>
    <path class="cls-6" d="M48.8,23c.3-.6,1.7,2.2,2.3,2.7s2.9-.9,5.4-2.9c2.2-1.8,4.3-4.3,4.3-4.5,0-.5-1.3-2.1-4.9-8-3.6-5.9-7-7.6-9.7-8-2.6-.4-5.6-1.2-7.1-1.2-.2,0-1.8,3-4.6,4.8-4.5,2.3-9.5,1.3-12.1-1.1s-2.3-3.2-2.3-3.3c0,0,0-.1,0-.2l-5.8.9c-2.7.3-5.6,2.2-9.3,10.5s-3.4,8.5-3.3,8.9,2.9,1.7,5.8,2.9,5.3,2.4,5.5,1.6.6-1.4.8-2,0-1.4,0-1.1c0,.5.8,12.1,1.2,16.5s-.5,12-.7,16.3,0,1.5.2,1.8.9.4,1.9.6c2,.5,8.5,2,15.9,1.8,13.9-.4,12.9-.4,16.1-1.2,1-.3,1.7-.5,1.9-.7.4-.4,0-1.8,0-3.7-.5-9.1-2.1-15.1-2.1-16s.5-14.9.8-15.5Z"/>
    <path class="cls-2" d="M48.3,2.9s-.4,1.8,0,4.6c0,0-1.2-3.5-.3-4.8l.4.2h0Z"/>
    <path class="cls-2" d="M12.5,2.7s-.6,1.4-.4,4.1c0,0-.8-2.8,0-4.1h.2c0,0,.2,0,.2,0Z"/>
    <g>
      <g>
        <circle class="cls-5" cx="32" cy="48.4" r="10.5"/>
        <circle class="cls-8" cx="32" cy="48.4" r="7.6"/>
        <circle class="cls-7" cx="32" cy="48.4" r="4.8"/>
      </g>
      <path class="cls-11" d="M52.5,37.2c-.5,0-.9,1.2-1.8,2.3s-2.8,1.9-3.5,1.5c-.7-.4-2.4-.6-2.8-.8s-1.5-.5-1.9-.2c-.4.3-2.8,1.2-2.8,1.2,0,0-.9.1-1.5.6-.5.4-1.1.7-1.1.7,0,0-1.8.3-1.6,1.4s3.1.6,3.7.2c.3-.2,1.1-.4,1.7-.6.2,0,.5.2.5.3,0,.2.2.8.2,1.2,0,0,0,0,0,.1,0,0,0,.1,0,.2-.3.3-1.8.9-2.1,1.2-.4.2-1.7.5-2.4.7-.6.2-3,.7-3.1.7s-1.3.5-1.1,1.4c0,.2.3.3.6.4-.2,0-.3.1-.4.2-1,1.1-.4,1.6,0,1.7.4.1,2.4-.2,2.6-.1s1.8.4,2.5,0,3.1-.6,3.1-.6c0,0-1.7.5-2.1.5-.4,0-3,.7-3.4.7-.5,0-1,0-1.4.9-.4.9,2,.9,2,.9,0,0,1.9-.2,2.7-.2s3-1,3.6-1.4c.6-.4.8-.2.8-.2,0,0-1.1.5-1.9,1.4-.8.2-2,.8-3.1,1.3-.2,0-.2.2-.3.2h0s0,0,0,0c-.6.4-.4.9-.2,1.2.2.4,2,0,2,0,0,0,.6-.2,2.2-.6s2-1.2,2-1.2c0,0,1.3-1.5,2-1.7.2,0,1.4-.6,1.9-1.4,1.3-1.5,2.5-3.4,3-3.8,3.1-1.8,4.8-4.1,4.9-5.3.5-1.7-2.7-5-3.3-5ZM38.3,48.8c-1,.2-2.1.5-2.3.6.2,0,.7-.3,1.2-.4.5-.1,2.9-.4,3.1-.5.2,0,.3,0,.3,0-.6.2-1.4.1-2.3.3Z"/>
      <g>
        <path class="cls-1" d="M40.8,43.4s.6.1.7.4.3,1.3,0,1.5.5-.1.5-.1l.4-2h-1c.2,0-.6.3-.6.3Z"/>
        <path class="cls-4" d="M55.8,42.2c-.1,1.3-1.8,3.5-4.9,5.3-.4.3-1.6,2.3-3,3.8-.6.7-1.7,1.3-1.9,1.4-.6.2-2,1.7-2,1.7,0,0-.4.7-2,1.2s-2.2.6-2.2.6c0,0-1.8.3-2,0s-.5-.9.6-1.4c1.1-.5,2.2-1.1,3.1-1.3.8-.9,1.9-1.4,1.9-1.4,0,0-.2-.2-.8.2s-2.8,1.4-3.6,1.4-2.7.2-2.7.2c0,0-2.4,0-2-.9s.9-1,1.4-.9,3-.5,3.5-.7,2-.6,2-.6c0,0-2.3.4-3.1.6s-2.2,0-2.5,0-2.3.3-2.6.1-1-.6,0-1.7c.4-.3,2.4-.5,2.9-.4.2,0,1.3-.3,2.3-.6,1-.2,2-.1,2.5-.4,0,0,0,.1-.6,0-.2,0-2.6.3-3.1.5s-1,.4-1.2.4-3,.7-3.2-.1c-.2-.8.9-1.3,1.1-1.4s2.5-.6,3.1-.7,2-.4,2.4-.7,1.9-.9,2.1-1.2,0-1.1.5-1.7c0,0,0-.2-.1-.3s-2,.4-2.7.8-3.6.9-3.7-.2,1.6-1.4,1.6-1.4c0,0,.5-.3,1.1-.7s1.5-.6,1.5-.6c0,0,2.4-.8,2.8-1.2s1.6,0,1.9.2,2,.4,2.8.8,2.6-.3,3.5-1.5c.9-1.2,1.3-2.3,1.8-2.3.7,0,3.8,3.4,3.3,5h0Z"/>
        <path class="cls-3" d="M41.4,50.9h1.1c.4-.2,1.7-1.4,1.7-1.4,0,0-1.1,1.4-1.6,1.4q-.2,0-1.1,0Z"/>
        <path class="cls-3" d="M40.8,48.8s1.3.3,2.4,0c.5-.1.7-.9,1.5-1.7s.9-.7.9-.7c0,0-1.1.5-1.7,1.3s-.7.8-1.4.9c-.8,0-1.6,0-1.6,0h0Z"/>
        <path class="cls-3" d="M41.3,43.4s.6-.1,1-.3.6-.2.6,0,0,0-.4.6-.5,1-.9,1.5c0,0,0-.2.2-.6s0-.3,0-.5,0-.5.1-.6-.2-.2-.6-.1Z"/>
        <path class="cls-1" d="M38.1,55s1.1-.3,1.4-.4,1.8-.8,2-.8c0,0,.5-.4,1-.8,0-.1.5-.3,1-.4h0c0-.1,0-.5,0-.5,0,0-.5.3-1.1.7-.4.3-.8.7-.8.7,0,0-.6.3-1,.3l-2.5,1.2h0Z"/>
        <path class="cls-1" d="M36.2,52.2c.4,0,1.9-.2,2.4-.3s2.7-1,2.8-1.1-.1,0-.4,0c-.4.1-.9.2-1.3.3s-1,.2-1.8.4c-.5.1-.9.2-1.3.3s-.7.1-.7.1c0,0,.2.2.3.2Z"/>
      </g>
      <path class="cls-9" d="M10.3,47.8c.1,1.2,1.7,3.4,4.7,5.1.4.3,1.6,2.2,2.9,3.6.6.7,1.7,1.3,1.8,1.3.6.2,1.9,1.6,1.9,1.6,0,0,.4.7,1.9,1.1s2.1.6,2.1.6c0,0,1.7.3,1.9,0,.2-.3.3-.7-.2-1.1h0s0,0,0,0c-.1,0-.2-.1-.3-.2-1-.5-2.2-1.1-2.9-1.3-.8-.8-1.9-1.3-1.9-1.3,0,0,.2-.2.8.2.6.3,2.7,1.3,3.5,1.3s2.6.2,2.6.2c0,0,2.3,0,1.9-.9-.4-.9-.9-.9-1.4-.9-.5,0-2.9-.6-3.3-.7-.4,0-2-.5-2-.5,0,0,2.2.4,2.9.6s2.1,0,2.4,0,2.2.3,2.5.1c.4-.1,1-.6,0-1.6,0,0-.2-.1-.4-.2.3,0,.6-.1.6-.4.2-.8-.9-1.3-1-1.3s-2.4-.6-3-.7c-.6-.2-2-.4-2.3-.6-.3-.2-1.7-.8-2-1.1,0,0,0,0,0-.1,0,0,0,0,0-.1,0-.4,0-.9.2-1.1,0-.2.3-.3.5-.3.6.2,1.3.4,1.6.6.6.3,3.5.9,3.6-.2s-1.6-1.4-1.6-1.4c0,0-.5-.2-1-.7-.5-.4-1.4-.5-1.4-.5,0,0-2.3-.8-2.7-1.1-.4-.3-1.5,0-1.8.1s-2,.4-2.6.8c-.7.4-2.5-.3-3.4-1.4s-1.3-2.2-1.7-2.2c-.6,0-3.7,3.2-3.2,4.8ZM25,53.7c0,0,.2,0,.3,0,.2,0,2.5.3,3,.4.4.1,1,.4,1.1.4-.2,0-1.2-.3-2.2-.5-.9-.2-1.7-.2-2.2-.3Z"/>
      <g>
        <path class="cls-4" d="M10.3,47.8c-.4-1.6,2.6-4.8,3.2-4.8.5,0,.9,1.1,1.7,2.2s2.7,1.8,3.4,1.4,2.3-.5,2.6-.8,1.4-.5,1.8-.1,2.7,1.1,2.7,1.1c0,0,.9.1,1.4.5s1,.7,1,.7c0,0,1.7.3,1.6,1.4s-3,.6-3.6.2-2.7-1-2.8-.9,0,.3,0,.3c.4.5.4,1.4.6,1.7s1.7.9,2.1,1.2,1.7.5,2.3.6,2.8.7,3,.7,1.2.5,1,1.3-2.8.1-3,.1-.7-.3-1.1-.4-2.8-.4-3-.4c-.5,0-.5,0-.5,0,.5.2,1.4.2,2.4.4,1,.2,2,.5,2.2.5.5,0,2.4,0,2.8.4,1,1,.4,1.5,0,1.6s-2.3-.2-2.5-.1-1.7.3-2.4,0-2.9-.6-2.9-.6c0,0,1.7.5,2,.5s2.8.7,3.3.7,1,0,1.4.9-1.9.9-1.9.9c0,0-1.8-.2-2.6-.2s-2.9-1-3.5-1.3-.8-.2-.8-.2c0,0,1,.5,1.9,1.3.8.2,1.9.8,2.9,1.3s.8,1,.6,1.3-1.9,0-1.9,0c0,0-.6-.2-2.1-.6-1.5-.4-1.9-1.1-1.9-1.1,0,0-1.3-1.4-1.9-1.6-.2,0-1.3-.6-1.9-1.3-1.3-1.4-2.4-3.3-2.9-3.6-3-1.7-4.6-3.9-4.7-5.1h0Z"/>
        <path class="cls-3" d="M23.1,56.1c-.5,0-1.6-1.4-1.6-1.4,0,0,1.2,1.1,1.6,1.2h1.1q-.9.2-1.1.2Z"/>
        <path class="cls-3" d="M24.7,54s-.8,0-1.5,0q-.7,0-1.4-.9c-.6-.8-1.7-1.3-1.7-1.3,0,0,.1,0,.8.6s1,1.5,1.4,1.6c1.1.3,2.3,0,2.3,0h0Z"/>
        <path class="cls-3" d="M23.5,49.1s0,.1.1.4c0,.1,0,.5.1.6,0,.2.1.6.1.6-.4-.5-.8-1-1.2-1.5l-.6-.7s.7-.1,1.1.1c.3.2.6.3.6.3-.2,0-.2.4-.3.3Z"/>
        <path class="cls-1" d="M27.2,59.9l-2.3-1.1c-.5-.2-.9-.3-.9-.3,0,0-.4-.4-.8-.7-.5-.3-1-.6-1-.6,0,0,0,0,0,.1s0,.3,0,.4.8.2,1,.4.8.7.9.7,1.7.6,1.9.8,1.3.4,1.3.4h-.1Z"/>
        <path class="cls-1" d="M29.6,57.3s-1.2-.3-2.2-.5c-.4,0-1.2-.2-1.6-.4s-1-.2-1.2-.3c-.2,0-.4,0-.4,0,0,0,2.4.9,2.8,1.1s2.3.3,2.3.3h.3Z"/>
        <path class="cls-1" d="M23.9,48.7c-.4-.2-1.2-.2-.9,0s.4,1.3.6,1.8.9.6.5.3-.1-1.2,0-1.5.7-.4.7-.4c0,0-.5-.1-.9-.3Z"/>
      </g>
    </g>
    <path class="cls-2" d="M13,15.3s0,1.4,0,3.2.7,4.4.7,4.4c0,0-2.7-2.4-2.3-2.5,0,0,.3-.3.5,0s1,1.3,1,.9-.7-2.3-.5-2,.5,1,.5.7,0-4.4.2-4.7Z"/>
    <path class="cls-2" d="M49.7,15.3s0,1.4,0,3.2c0,1.9-.9,4.4-.9,4.4,0,0,2.8-2.3,2.4-2.4,0,0-.3-.4-.5,0s-1,1.2-1,.8.8-2.3.5-2-.5,1-.5.7.3-4.4,0-4.7Z"/>
    <path class="cls-2" d="M26.8,32.3s3.5-1.9,6-1.7,7.3,0,6.6.7-6.1-.6-7.5,0-5.1,1.1-5.1,1.1Z"/>
  </g>
</svg>