<?xml version="1.0" encoding="utf-8"?>
<!-- Generator: Adobe Illustrator 26.3.1, SVG Export Plug-In . SVG Version: 6.00 Build 0)  -->
<svg version="1.1" id="Livello_1" xmlns="http://www.w3.org/2000/svg" xmlns:xlink="http://www.w3.org/1999/xlink" x="0px" y="0px"
	 viewBox="0 0 170 158.2" style="enable-background:new 0 0 170 158.2;" xml:space="preserve">
<style type="text/css">
	.st0{fill:#FFFFFF;}
	.st1{fill:#DBDBDB;}
</style>
<g id="Raggruppa_20" transform="translate(-1619.547 -633.181)">
	<g transform="matrix(1, 0, 0, 1, 1619.55, 633.18)">
		<path id="Tracciato_33-2" class="st0" d="M9,28C8.9,22.8,22.7,6,76.8,6s63.1,19.1,63.2,22s-5.3,25.3-5.3,50.9s5.3,51.5,5.3,51.5
			s-7.1,15.2-64.9,15.8S9,130.4,9,130.4s6.4-27.3,6.4-52.9S9.1,33.2,9,28z"/>
	</g>
	<path id="Tracciato_34" class="st1" d="M1689.9,681.7c-48.2,0.3-56.5-13.8-56.5-13.8s5.5,22.2,5.5,45.7c0,23.4-4.9,47.2-4.9,47.2
		s5.6,12.5,55.3,13.6c1.2,0,3.9-0.3,3.9-2.5c0,0,0.5-76,0.5-82.2C1693.8,683.6,1694.1,681.7,1689.9,681.7z"/>
	<ellipse id="Ellisse_17" class="st1" cx="1694.5" cy="658.5" rx="23.5" ry="6.5"/>
	<g transform="matrix(1, 0, 0, 1, 1619.55, 633.18)">
		<path id="Tracciato_37-2" class="st0" d="M140.4,42.5l20.6,4.8c-11.3,19.4-8.2,61.2-2.1,82.5h-16.6c-2.8-14.1-4.5-28.4-5-42.8
			C136.8,65.2,140.4,42.5,140.4,42.5z"/>
	</g>
</g>
</svg>
