<?xml version="1.0" encoding="utf-8"?>
<!-- Generator: Adobe Illustrator 27.9.0, SVG Export Plug-In . SVG Version: 6.00 Build 0)  -->
<svg version="1.1" id="Livello_2_00000120527504369553085160000004693973915959664533_"
	 xmlns="http://www.w3.org/2000/svg" xmlns:xlink="http://www.w3.org/1999/xlink" x="0px" y="0px" viewBox="0 0 24.2 21.5"
	 style="enable-background:new 0 0 24.2 21.5;" xml:space="preserve">
<style type="text/css">
	.st0{fill:#8A6248;}
	.st1{fill:#A97753;}
	.st2{fill:#6E4A35;}
	.st3{fill:#DBAA7F;}
	.st4{fill:#1D1D1B;}
	.st5{fill:#3E2515;}
	.st6{fill:#927056;}
	.st7{fill:#9B6D50;}
	.st8{fill:#C99366;}
	.st9{fill:#DDAA7A;}
	.st10{fill:#191819;}
	.st11{fill:#B67F5D;}
</style>
<g id="Where_is_found">
	<g id="ic_camel">
		<path class="st0" d="M7.2,12.8c0,0-0.9,2.2-1.5,2.7C5.1,16.1,5,16.3,5,16.3s0,0.1,0,0.5c0.1,0.4,0.4,1.6,0.4,1.6s0.5,1.1,0.8,1.3
			s0.8,0.5,0.7,0.8l-0.1,0.3H5c0,0-0.1-1.7-0.4-2.1c-0.2-0.4-1.1-2.2-1.1-2.2s-0.3-0.3,0.1-1S4,13.9,4,13.9l-0.2-3.3L7,11.8
			L7.2,12.8z"/>
		<path class="st1" d="M15.4,13.8c0,0-0.2,1-0.3,1.2s-0.4,0.3-0.4,0.3l-0.4,2.3c0,0-0.2,1.1-0.1,1.5s0.3,0.8,0.4,0.9
			c0.1,0.1,0.5,0.3,0.5,0.7h-1.7c0,0,0-0.7,0.1-1.1c0-0.4,0.2-2,0.1-2.3c0-0.4-0.2-0.6-0.3-1c0-0.4,0.1-1.3-0.1-1.4S13,14.6,13,14.4
			s0-1.5,0-1.5l0.2-1.7c0,0,0.5-0.2,0.6,0.5c0,0.6,0.2,2.1,0.6,2.4C14.8,14.3,15.3,14.1,15.4,13.8z"/>
		<path class="st2" d="M20,1.9c0,0-0.4-0.8-1-0.6s-1.6,0.9-1.6,2s0.1,3.1,0.1,3.5c0,0.4,0,1-0.6,0.8c-0.7-0.2-0.4-0.4-0.4-0.4l-1-2
			c-0.1-0.4-0.3-0.8-0.4-1.2c-0.3-0.7-0.6-1.4-0.9-2.1c-0.1-0.1-0.2-0.3-0.3-0.4s-0.2-0.2-0.4-0.3c-0.3-0.2-0.6-0.3-1-0.3
			c-0.6,0-1.1,0.1-1.5,0.5c-0.2,0.3-0.3,0.6-0.4,0.9c-0.1,0.2-0.1,0.4-0.1,0.6c0,0-0.3,1-0.5,1S9.6,4,9.6,4S9.1,2.9,8.9,2.5
			c0-0.3-0.2-0.6-0.3-0.8C8.4,1.4,8.2,1.2,8,1C7.6,0.8,7.1,0.7,6.7,0.8C6.4,0.9,6.1,1.1,5.9,1.3C5.6,1.5,5.5,1.8,5.4,2.1
			C4.9,3.4,4.7,4.4,4.7,4.4L4.2,5.3l12.1,2.3l0.3,0.1c0,0,0.9,0.9,1.4,0c0.4-0.9,0.2-3.5,0.2-3.5s-0.1-1.3,0.4-1.9
			C19.1,1.7,20,1.9,20,1.9z"/>
		<path class="st1" d="M21,2.1c0,0-1.8-0.6-2.5,0.2c-0.1,0.2-0.2,0.4-0.3,0.6c-0.2,1.7-0.1,2.6-0.1,2.6s0,2-0.2,2.2
			c-0.3,0.2-0.5,0.4-0.9,0.2c-0.5-0.2-2-3.7-2-3.7s-1.1-2.3-1.8-2.6c-0.7-0.2-1.4-0.1-1.7,0.2S10.8,3.5,10,3.7c0,0-0.5,0.2-1.2-1.2
			S7,1.3,7,1.3s-1.1,0-1.6,1.5C4.9,4.2,4.5,4.9,4.5,4.9S3.7,6,3.5,6.2S2.1,7.5,1.9,7.8C1.8,8.1,1.2,8.5,1,11.4c0,0,0.8-1.2,0.9-1.3
			v3.6c0,0,0,0.4-0.1,0.5s-0.3,0.5-0.3,0.5s0,0.1,0,0.2c0,0.1,0.2,2.5,0.2,2.8c0,0.3,0,1.6,0,1.6v0.5v0.4c0,0,0,0.4,0.1,0.4h1.9
			c0,0-0.1-0.4-0.2-0.5c-0.1,0-0.2-0.1-0.2-0.1l-0.5-0.8c0,0-0.2-0.2-0.2-1s0-2,0-2s0-0.6,0.6-1.1c0.6-0.4,1.6-1.6,1.9-3.6
			c0,0,2,1.7,3.7,1.8s3.1,0.1,4.2-0.4l0.1,1.5c0,0,0,0.5,0.3,0.7v1.1c0,0,0,0.3,0.2,0.7c0.2,0.4-0.1,2.8-0.1,2.8s-0.1,0.3-0.1,0.4
			s0,0.6,0,0.6l0,0h1.4h0.3c0,0,0-0.2-0.1-0.3c-0.1-0.1-0.5-0.5-0.5-0.5s-0.3-0.2-0.3-1s0.1-1.7,0.1-1.7l0.2-0.9c0,0,0.1-0.5,0.1-1
			c0,0,0.3-0.1,0.4-0.2c0,0,0.1,0.2,0.3,0.1v1.1c0,0,0,0.3,0.1,0.6c0.1,0.2,0.4,0.6,0.4,0.7s0.1,1,0.1,1l0.1,2.2h0.5h1.2
			c0,0,0.1-0.2,0-0.3c-0.1-0.1-0.4-0.4-0.6-0.6s-0.3-0.7-0.4-1.1s-0.1-1.5-0.1-1.5v-1.6c0,0,0-0.4,0.1-0.5c0.1,0,0.3-0.4,0.3-1.2
			s0-1.4,0-1.4c0,0.1,1,0.3,1.1,0.3c1.1,0.1,2.1-0.5,2.5-1.5c0.3-0.6,0.4-1.2,0.4-1.9c0-0.8-0.1-1.5-0.2-2.2c-0.1-0.5-0.1-1-0.1-1.5
			c0-0.4,0.1-1,0.4-1.4c0.2-0.2,0.2-0.2,0.3-0.4c0-0.1,0-0.2,0-0.2s0.3-0.2,0.6-0.3s0.5-0.1,0.5,0s0.2,0.1,0.2,0.1
			c0.1,0,0.4,0,0.4-0.2s-0.2-0.3-0.2-0.3s0.6-0.2,0.2-0.6C22.6,2.2,22.5,2.1,22,2C21.5,2,21.2,2.1,21,2.1z"/>
		<path class="st3" d="M23,3.2c0,0,0.4,0.4-0.1,0.5c0,0-0.2,0.1-0.4-0.1c0,0-0.5-0.1-1,0.2S21,4.1,20.8,4.1s-0.5-0.2-0.5-0.2
			s0-0.2-0.7-0.6S19,2.5,19,2.5s0-0.7,0.7-0.6c0,0,0.3,0,0.7,0C20.6,1.9,20.9,2,21,2c0.2,0,1,0,1,0s0.6,0,0.8,0.2s0.6,0.5,0.6,0.5
			S23.5,3,23,3.2z"/>
		<path class="st1" d="M21.1,4c0,0-0.6,0.2-1-0.3L20,3.6l-2,4l-2.1,3.9c0,0,1.8,1.4,2.5,1c0.7-0.3,2.2-2.9,2.2-2.9l-0.1-2.7V5.3
			C20.5,5.2,21.1,4,21.1,4z"/>
		<path class="st4" d="M20.1,2.6c0,0-0.2-0.1-0.5,0h-0.1l0,0c0,0,0.2,0.1,0.3,0.1C19.9,2.7,20,2.7,20.1,2.6
			C20.2,2.6,20.1,2.6,20.1,2.6z"/>
		<path class="st5" d="M22,2.9c0.3,0.2,0.7,0.4,1,0.3C22.6,3.3,22.3,3,22,2.9L22,2.9z"/>
		<path class="st6" d="M23,2.5C23,2.5,23.1,2.6,23,2.5c-0.2,0-0.6,0-0.7-0.1s-0.1-0.1,0-0.1s0.4,0,0.4,0l0.1,0.1L23,2.5"/>
		<path class="st7" d="M2.8,6.9c0,0-0.9,1.7-0.8,3.3c0,0-0.7,0.9-0.8,1.2C1.1,11.6,1,11.5,1,11.5c0-0.6,0.1-1.2,0.2-1.9
			c0.1-0.5,0.2-0.9,0.4-1.3c0.2-0.4,0.5-0.8,0.8-1.1C2.6,7,2.7,7,2.8,6.9z"/>
		<path class="st8" d="M20,3.6c0,0,1.3,0.2,1.9-0.2c0.1-0.1,0.2-0.2,0.4-0.2c0.1,0,0.1,0,0.2,0.1s0.1,0.1,0.2,0.1s0.1,0.1,0.2,0.1
			s0.2,0,0.3,0l0,0c0.1-0.1,0-0.3,0-0.3s0.1,0.2,0,0.3s-0.3,0.1-0.5,0c0,0-0.1,0-0.1-0.1l0,0c-0.1,0-0.4,0-0.5,0
			c-0.2,0-0.5,0.2-0.6,0.3S21,4,20.7,3.9s-0.4-0.2-0.5-0.3C20,3.6,20,3.6,20,3.6z"/>
		<path class="st7" d="M17.8,1.8c-0.2,0-0.5,0-0.7,0.1c-0.1,0-0.2,0-0.2,0h-0.1c0.2,0.2,0.4,0.4,0.5,0.5c0.1,0.1,0.2,0.1,0.3,0.1
			c0.1,0,0.2,0.1,0.4,0.1c0.1,0,0.2,0,0.2,0c0.2-0.1,0.3-0.4,0.3-0.4c0-0.1-0.1-0.2-0.2-0.2C18.1,1.9,18,1.9,17.8,1.8
			C17.9,1.8,17.8,1.8,17.8,1.8z"/>
		<path class="st9" d="M18.3,2.3C18.3,2.2,18.2,2.2,18.3,2.3c-0.1-0.1-0.1-0.1-0.1-0.2C18.1,2.1,18,2,18,2c-0.1,0-0.2,0-0.3,0
			c-0.1,0-0.2,0-0.3,0c-0.1,0-0.1,0-0.2,0S17.1,2,17,2l0,0c0,0,0,0,0.1,0c0.1,0.1,0.1,0.1,0.2,0.2c0.1,0,0.1,0.1,0.2,0.1
			c0.2,0.1,0.3,0.1,0.5,0.1h0.1C18.1,2.4,18.1,2.4,18.3,2.3C18.2,2.4,18.3,2.4,18.3,2.3L18.3,2.3z"/>
		<path class="st0" d="M15,15.1c0,0,0.5-0.5,0.7-1.5s0.2-1.6,0.2-1.6s0.8,0.4,1.1,0.6c0,0,0,2.1-0.3,2.5v0.1c0,0,0,0,0,0.1v0.2v0.7
			v0.7v0.7v0.7v0.4c0,0,0.1,0.4,0.1,0.6c0.1,0.2,0.2,0.4,0.3,0.5c0.1,0.1,0.4,0.4,0.4,0.4l-1.2,0.4h-0.4v-1.1v-1l-0.1-0.9
			c0,0,0-0.2-0.1-0.3c-0.2-0.2-0.4-0.6-0.4-0.8c-0.1-0.2-0.1-0.4-0.1-0.7c0-0.2,0-0.5,0-0.7C15.3,15.2,15.2,15.3,15,15.1z"/>
		<path class="st10" d="M6.9,20.7c0,0,0.3-0.5-0.2-0.8S5,20.6,5.1,20.6L6.9,20.7z"/>
		<path class="st11" d="M1.6,15c0-0.1,0-0.1,0.1-0.2c0.1-0.1,0.4-0.3,0.6,0.4c0,0,0.3,2.6,0.4,3c0.1,0.4,0.2,0.8,0.4,1.1
			c0.3,0.3,0.7,1.1,0.6,1.1c0,0-0.4-0.3-0.6-0.2c-0.2,0-0.8,0.1-1.1,0.2c-0.3,0-0.2,0.2-0.2,0.2c0-0.1,0-0.2-0.1-0.3
			c0-0.1,0-0.2,0-0.3v-0.1c0-0.2,0-0.3,0-0.5c0-0.1,0-0.3,0-0.4s0-0.1,0-0.2c0,0,0-1.2,0-1.5s0-0.5-0.1-0.8c0-0.1-0.1-0.5-0.1-0.9
			C1.5,15.4,1.5,15.2,1.6,15z"/>
		<path class="st7" d="M15.6,13.1l0.4-1.6c0,0,2.6,0.6,3.2-2.1s0.3-3,0.4-3.7s0.4-0.9,0.4-1s0.3-0.8,0-1s-0.7-0.5-0.7-0.5
			s-0.5-0.4-0.4-0.8s0.4-0.5,0.4-0.5s-0.7,0-0.9,0.3c-0.1,0.1-0.2,0.2-0.2,0.3c-0.1,0.3-0.2,0.6-0.2,1c0,0.6,0,1.9,0,1.9v1.2
			c0,0.2,0,0.4-0.1,0.6c0,0.1-0.1,0.3-0.2,0.4s-0.2,0.2-0.3,0.2c-0.2,0.1-0.4,0-0.6-0.1s-0.3-0.3-0.4-0.5s-0.2-0.4-0.3-0.6
			C15.4,5,14.9,4,14.9,4s-1.1-2.7-2.5-2.6s-1.8,1.7-1.8,1.7S9.9,4.5,8.9,3C8.5,2.4,8,1.3,7.1,1.3C6.6,1.3,6.3,1.5,6,1.8
			C5.6,2.1,5.4,2.6,5.3,3.1C5,4,4.6,4.7,4.5,4.9C4.3,5,3.6,6,3.5,6.1S2.4,7.2,2.4,7.2v0.1v0.1c0,0.1,0,0.1,0,0.2s0,0.1,0.1,0.2
			c0,0.1,0,0.1,0.1,0.2c0.1,0.2,0.1,0.4,0.3,0.6C3,8.8,3.2,8.9,3.3,9.1l0,0C3.6,9.4,4,9.6,4.4,9.8s0.9,0.5,1.3,0.7
			c0.5,0.3,1,0.5,1.5,0.7c0.3,0.1,0.7,0.2,1.1,0.2c0.7,0.1,1.3,0.1,2,0c2.7-0.3,3.5-0.6,3.5,0s0.2,1.9,0.4,2.2s0.3,0.5,0.7,0.5
			s0.6-0.6,0.6-0.6L15.6,13.1z"/>
		<path class="st11" d="M15.1,20.4L15.1,20.4c-0.1-0.2-0.2-0.3-0.3-0.3c-0.1-0.1-0.3-0.2-0.3-0.3c-0.1-0.1-0.3-0.7-0.3-1.2
			s0.1-0.9,0.1-1v-0.1c0-0.3-0.2-1.3-0.5-1.4c-0.3-0.1-0.5,0-0.5,0s0,0.5,0.1,0.7s0.2,0.5,0.2,0.8S13.5,19,13.5,19l-0.1,0.9V20
			c0,0.1-0.1,0.3-0.1,0.4v0.3c0,0.2-0.1,0.2,0.2,0.2h1.6c0,0,0-0.1,0-0.2C15.1,20.5,15.1,20.4,15.1,20.4z"/>
		<path class="st10" d="M14.8,20.2L14.8,20.2c-0.1,0-0.2,0-0.3,0c-0.2,0-0.5,0.1-0.7,0.2c-0.1,0-0.4,0.1-0.5,0.1
			c-0.1,0.1-0.1,0.1-0.1,0.2H15v-0.2c0,0,0-0.1-0.1-0.1l-0.1-0.1C14.9,20.3,14.9,20.2,14.8,20.2z"/>
		<path class="st10" d="M3.3,20.2L3.3,20.2c-0.1,0-0.2,0-0.3,0c-0.2,0-0.5,0.1-0.7,0.2c-0.1,0-0.4,0.1-0.5,0.1
			c-0.1,0.1-0.1,0.1-0.1,0.2h1.9v-0.2c0,0,0-0.1-0.1-0.1l-0.1-0.1C3.4,20.3,3.4,20.2,3.3,20.2z"/>
		<path class="st10" d="M17.4,20.2L17.4,20.2c-0.1,0-0.2,0-0.3,0c-0.2,0-0.5,0.1-0.7,0.2c-0.1,0-0.4,0.1-0.5,0.1
			c0.1,0.1,0.1,0.1,0.1,0.2h1.8v-0.2c0,0,0-0.1-0.1-0.1l-0.1-0.1C17.5,20.3,17.5,20.2,17.4,20.2z"/>
		<path class="st2" d="M1.1,12.5C1,12.3,0.9,12.2,0.9,12c0-0.1,0-0.1,0-0.2c0-0.1,0-0.1,0-0.2c0-0.1,0-0.1,0.1-0.2
			c0.1-0.1,0.2-0.1,0.2,0c0,0,0,0,0,0.1v0.1c0,0.1,0,0.1,0,0.2l0,0c0,0.1-0.1,0.3-0.2,0.4C1.1,12.3,1.1,12.4,1.1,12.5z"/>
	</g>
</g>
</svg>
