<?xml version="1.0" encoding="utf-8"?>
<!-- Generator: Adobe Illustrator 27.9.0, SVG Export Plug-In . SVG Version: 6.00 Build 0)  -->
<svg version="1.1" id="Where_is_found" xmlns="http://www.w3.org/2000/svg" xmlns:xlink="http://www.w3.org/1999/xlink" x="0px"
	 y="0px" viewBox="0 0 32 32" style="enable-background:new 0 0 32 32;" xml:space="preserve">
<style type="text/css">
	.st0{fill:#FFFFFF;stroke:#FFFFFF;stroke-width:0.25;stroke-linecap:round;stroke-linejoin:round;stroke-miterlimit:10;}
	.st1{fill:#464646;}
	.st2{fill:#848484;}
	.st3{fill:#212121;}
	.st4{fill:#E8E8E8;}
	.st5{fill:#E0CA8D;}
	.st6{fill:#343434;}
	.st7{fill:#FFFFFF;}
</style>
<path id="Tracciato_67-2" class="st0" d="M1.6,13.4c0,0,0.9-0.6,1.5-1.4c0.6-0.7,0.4-0.9,0.9-1.7c-0.1,0-1.2-0.5,0-1.8
	s0.9-0.9,0.9-0.9S4.3,9.2,4.5,9.7c0,0,1.2-0.7,2.4-0.6c0.1,0-0.4-1.3-0.4-1.3l0.9,0.9c0,0,0.5,0.5,0.5,1.1l1,1.2l3.9,1.2l6.3,1
	c0,0,1.5,0.2,3.6,0.1c2.1-0.1,2.3-0.1,3.8,0s3.5,0.1,3.8,2.4s0.5,4.6,0.5,4.6s0.7-0.3,0.6,1.6s-0.9,1.3-0.9,1.3s-0.9,0.4-0.2-3.3
	c0,0,0.5-4.6-1.6-5.8c0,0,0.6,0.6,0.4,2c-0.3,1.4-0.5,2.4-0.7,4.8s0.9,1.3,0.3,2.5c0,0,0.1,0.2-2.1,0.4c-1.9,0.2-3.4,0.7-5.5,0
	c-0.3-0.5-0.3-0.4-0.4-0.6l-4.6,0.2c0,0-0.2,0.4-2.1,0.4s-3.2-0.4-5.3-0.4c-1.1,0-1.8-1.1-1.5-1.7c0.2-0.6,0.5-0.5,2.5-0.3
	c-1.7-2.1-2.9-5.6-2.9-5.6s-0.7,0.4-1.6,0.4s-3.6-0.4-3.8-0.5s-0.7-0.2-0.9-0.8s0-1,0.1-1.1s0.2-0.1,0.4-0.2S1.6,13.4,1.6,13.4
	L1.6,13.4z"/>
<path id="Tracciato_71" class="st1" d="M7,9.6c0.2-0.2-0.3-1.5-0.3-1.5l0.8,0.8c0,0,0.5,0.5,0.3,1.2C7.7,10.5,6.6,10.3,7,9.6L7,9.6z
	"/>
<path id="Tracciato_70" class="st1" d="M4,10.3C3.8,10.2,3.2,9.7,3.8,9c0.3-0.4,0.7-0.9,0.7-0.9S4.1,9.3,4.4,9.8
	C4.3,9.9,4.3,10,4.2,10C4.1,10.1,4,10.3,4,10.3z"/>
<path id="Tracciato_69" class="st2" d="M1.7,13.5c0.1-0.1,0.3-0.1,0.7,0.2c0.4,0.2,0.9,0.7,0.7,2.1c-0.3,0-1.7-0.3-1.7-0.3
	s-0.6-0.3-0.6-0.6s-0.1-0.9,0.1-1C1.2,13.9,1.6,13.6,1.7,13.5L1.7,13.5z"/>
<path id="Tracciato_72" class="st3" d="M1.7,14.6c-0.2-0.1-0.2-0.4,0.2-0.4c0,0,0.3,0.2,0.2,0.4C2.1,14.7,1.9,14.7,1.7,14.6
	L1.7,14.6z"/>
<path id="Tracciato_74" class="st4" d="M20.8,23.1C20.6,23,21,22.8,21,22.7c0.6-0.4,0.5-0.4,1.1-0.6c1-0.2,1-0.2,2.1-0.2
	c-0.4-0.2-1.5-0.7-1.3-2.8s1.4-3.1,0.9-1.8s0.3,3.2,1,4.3c0.3,0.4,0.2,0.3,0.2,0.3s0.4,0.7-1.1,0.7c-0.7,0-1.3,0-2,0.2
	C21.2,23,20.9,23,20.8,23.1L20.8,23.1z"/>
<path id="Tracciato_78" class="st4" d="M16.2,22.8c0.1-0.1-0.2-0.3-0.2-0.4c-0.7-0.5-2.3-1.2-3.1-1.3c-2.9-0.4-1.8-1.6-3.1-3
	c-1.3-1.5-2.5-2.2-2.5-2.2s1.3,2.8,1.8,3.8c0.4,0.7,0.8,1.3,1.3,1.9c0.5,0.2,1,0.2,1.5,0.3c0.8,0,2.3,0.2,3,0.5
	C15.4,22.5,16,22.7,16.2,22.8z"/>
<path id="Tracciato_75" class="st5" d="M21,23.4c0.1,0.1,0.2,0.3,0.3,0.3s0.5,0.2,1,0.2c0,0-0.1-1-0.2-1c0,0-0.4,0.1-0.7,0.2
	C21.2,23.1,21.1,23.2,21,23.4C21,23.3,21,23.4,21,23.4L21,23.4z"/>
<path id="Tracciato_77" class="st5" d="M16,23.2c-0.1,0.1-0.3,0.2-0.3,0.2c-0.1,0-0.6,0.2-1.1,0.2c0,0,0.2-1.1,0.3-1.1
	c0,0,0.4,0.1,0.8,0.2c0.2,0.1,0.3,0.1,0.5,0.2C16,23,16,23.1,16,23.2L16,23.2z"/>
<path id="Tracciato_79" class="st6" d="M28.9,16.6c-0.3,1.2-0.5,3.2-0.5,3.6c0,0-0.1,0.6-0.9,0.3c-0.2-0.1-0.5,0.5-0.9,0.2
	s-0.6-1.1-0.2-1.5c0.8-0.6,0.5-1.4,0.4-1.6s-0.1-0.1-0.6,0c-0.2,0.1-0.4-0.3-0.4-0.8c0.2-0.7-0.3-0.9,0.1-1.1
	c0.4-0.3,0.9-0.4,1.5-0.4c0.3,0,0.5,0.3,1,0.4C29,16,28.9,16.6,28.9,16.6L28.9,16.6z"/>
<path id="Tracciato_80" class="st6" d="M12.8,12.6c1.2,0.2,3.2,0.5,3.2,0.5s0.6,0,0.3,0.9c-0.1,0.2,0.5,0.5,0.2,0.9
	s-1.1,0.6-1.5,0.2c-0.6-0.9-1-0.3-1.1-0.2s0,0.4,0.1,1c0.1,0.2-0.6,0.7-1.4,0.6c-0.6-0.1-1.2-0.5-1.5-1c-0.3-0.4-0.3-0.8-0.1-1.4
	s0.3-0.5,0.4-1.1c0-0.2-0.5-1,0-0.8C12,12.3,12.8,12.6,12.8,12.6L12.8,12.6z"/>
<path id="Tracciato_83" class="st6" d="M9.2,13.3C9.8,13.4,9,14.9,8.9,15s0.1,1.1-0.6,1c-0.6-0.1-0.9-0.4-0.9-0.4s0.5-0.4,0.6-1
	c0.1-0.3,0.1-0.7,0-1.1c0,0-0.2-0.9,0.2-0.8S8.6,13.3,9.2,13.3z"/>
<path id="Tracciato_84" class="st6" d="M6.6,11.4c0.5,0.3-0.8,1.3-0.9,1.4c-0.1,0.1-1-0.2-0.7-0.7c0.2-0.3,0.3-0.6,0.4-1
	c0,0,0.1-1,0.5-0.7S6.1,11,6.6,11.4L6.6,11.4z"/>
<path id="Tracciato_82" class="st6" d="M22.5,18.1c-0.3,1.2,0.4,2.1-1,2.6c-1.4,0.4-0.9-0.4-1.4-0.4c-0.5-0.1-0.6,0.3-0.8,0
	c-0.2-0.4,0.3-0.8,0.2-1.5c-0.1-0.7,0.5-1.5,0.8-2.1c0.4-0.6-0.1-1.6,0.5-1.6s0.6,0.2,1,0.5s1-0.1,1.2,0.6
	C23.1,16.8,22.8,16.9,22.5,18.1z"/>
<path id="Tracciato_81" class="st6" d="M12.2,18.7c-0.4-0.6,0.1-0.8,0.7-1s0.8,0.3,1.4,0.1s0.9-0.8,0.9-0.8s0.2-0.4,1,0.3
	c0.2,0.2,0.7,0,1.1,0.4c0.3,0.4,0.3,1.1-0.4,1.1c-1.1-0.1-0.7,0.5-0.6,0.6s0.4,0.2,1.1,0.5c0.3,0.1,0.5,0.8,0.1,1.2
	c-0.4,0.4-1.1,0.5-1.6,0.4s-0.9-0.3-1.6-0.7c-0.6-0.4-0.8-0.4-1-0.9C13.2,19.2,12.6,19.3,12.2,18.7L12.2,18.7z"/>
<path id="Tracciato_85" class="st7" d="M6,11.4c0.1,0.1,0.1,0.3,0,0.4c-0.1,0.1-0.2,0.2-0.4,0.1c-0.1-0.1-0.1-0.3,0-0.4
	S5.9,11.3,6,11.4L6,11.4z"/>
<path id="Tracciato_86" d="M5.8,11.6c0.1,0.1,0.1,0.1,0,0.2c-0.1,0.1-0.1,0.1-0.2,0.1c-0.1-0.1-0.1-0.2,0-0.2
	C5.7,11.6,5.7,11.5,5.8,11.6L5.8,11.6z"/>
</svg>
