<?xml version="1.0" encoding="utf-8"?>
<!-- Generator: Adobe Illustrator 27.9.0, SVG Export Plug-In . SVG Version: 6.00 Build 0)  -->
<svg version="1.1" id="Who_is_at_risk" xmlns="http://www.w3.org/2000/svg" xmlns:xlink="http://www.w3.org/1999/xlink" x="0px"
	 y="0px" viewBox="0 0 32 32" style="enable-background:new 0 0 32 32;" xml:space="preserve">
<style type="text/css">
	.st0{fill:#FFFFFF;}
	.st1{fill:#CAB19A;}
	.st2{fill:#3F3E44;}
	.st3{fill:#9A9999;}
	.st4{fill:#F2BF56;}
</style>
<path class="st0" d="M5.1,15c0,0,0.1-0.1,0.1-0.2c0.1-1,0.8-10.9,6.9-13c3.4-1.2,6.2-0.3,8.1,2.6c0.9,1.4,1,3.5,1.3,4.1
	c0.1,0.1,0.2,0.2,0.3,0.1c1.1-0.6,5.7-2.8,7.6-1.4c2.1,1.6,3.8,11.4-2.9,15.4c-2.7,1.6-6.2,1-7.9-0.5c-1.2-1-1.7-2.4-2.1-3.3
	c-0.2-0.5-1.1-0.5-1.5,0.8c-0.9,2.9-1.8,8.6-6.3,9.3C2.6,29.9-3.5,23,5.1,15L5.1,15z"/>
<g>
	<path class="st1" d="M20.7,16.8c-0.2-0.2-0.5-0.4-0.6-0.6c-0.3-0.4-0.3-1-0.3-1.5c0.1-0.7,0.6-1.5,0.7-1.6c0.9-1.3,2-2.1,2.2-2.3
		c0.9-0.6,2.4-1.6,4.5-2.2c0.1,0,0.4-0.1,0.5,0.1c0.2,0.3-0.4,0.7-0.5,0.9c-1,0.9-1.8,2-2.3,3.2c-0.2,0.4-0.3,0.8-0.5,1.1
		c-0.2,0.5-0.4,1-0.5,1.5c-0.3,0.9-0.9,1.6-1.8,1.8C21.6,17.3,21.2,17.1,20.7,16.8L20.7,16.8z"/>
	<path class="st1" d="M24.6,19.2c0.3,0.1,0.5,0.3,0.8,0.3c0.5,0.1,1-0.1,1.4-0.4c0.6-0.4,1.1-1.2,1.1-1.3c0.8-1.4,1-2.8,1-3
		c0.2-1.1,0.3-2.8-0.1-5c0-0.1-0.1-0.4-0.3-0.4c-0.3-0.1-0.5,0.6-0.5,0.9c-0.3,1.3-1,2.5-1.8,3.5c-0.3,0.3-0.5,0.6-0.8,0.9
		c-0.3,0.4-0.7,0.8-1.1,1.1c-0.6,0.6-1,1.5-0.8,2.4C23.8,18.6,24.2,19,24.6,19.2L24.6,19.2z"/>
	<path class="st1" d="M18.7,19.1c-0.1-0.2,0-0.5,0.1-0.7c0.1-0.3,0.4-0.5,0.8-0.6c1-0.3,1.8,0.1,1.6,0.5S20.9,19,20.9,19
		c-0.1,0.2-0.1,0.4-0.1,0.6s-0.2,0.4-0.3,0.6c-0.2,0.2-0.4,0.3-0.7,0.2C19.4,20.1,18.9,19.6,18.7,19.1z"/>
	<path class="st1" d="M23.5,22c0.2,0,0.4-0.2,0.6-0.4c0.2-0.3,0.3-0.6,0.2-1c-0.2-1.1-0.9-1.5-1.2-1.2S22.6,20,22.6,20
		c-0.1,0.2-0.3,0.2-0.5,0.4s-0.3,0.3-0.4,0.5c-0.1,0.3-0.1,0.5,0.2,0.7C22.3,21.9,23,22.2,23.5,22L23.5,22z"/>
</g>
<path class="st2" d="M5.7,17c0.6-0.9,1.2-1.7,1.5-2.6c0,0,4.7-10.9,8.5-9.1s-1.8,12-1.8,12c-0.6,0.8-1.1,1.9-1.4,3.1
	c0,0-3.3,1.4-5.2,0.3S5.7,17,5.7,17L5.7,17z"/>
<path class="st3" d="M19.6,7.4l0,0.6l0,0c0,0.1,0,0.2-0.1,0.2c0,0.1,0.1,0.2,0,0.2c0,0.1-0.1,0.5-0.2,0.6c0,0-0.1,0.1-0.1,0.1
	c0,0,0,0.1,0.1,0.1c0.1,0.1,0.1,0.2,0,0.3l-0.2,0.6c0,0.1,0,0.1-0.1,0.2c0,0.1,0,0.1,0,0.2L19,10.9c0,0.1-0.1,0.1-0.1,0.2
	c0,0.1,0,0.1,0,0.2c0,0.1-0.2,0.4-0.3,0.4c0,0,0,0,0,0c0,0,0,0,0,0c0,0,0,0,0,0.1c0,0.1,0,0.2,0,0.3l-0.3,0.5c0,0.1-0.1,0.1-0.1,0.1
	c0,0,0,0.1,0,0.1c-0.1,0.2-0.2,0.3-0.3,0.4c0,0.1-0.1,0.1-0.2,0.1c0,0.1,0,0.1-0.1,0.2c-0.1,0.1-0.3,0.3-0.4,0.4c0,0,0,0-0.1,0l0,0
	c0,0,0,0,0,0.1c0,0.1,0,0.2-0.1,0.3l-0.2,0.3c0,0,0,0,0,0c-0.1,0.1-0.1,0.1-0.2,0.2c0,0.1,0,0.1-0.1,0.2l-0.3,0.4
	c0,0-0.1,0.1-0.1,0.1c0,0.1,0,0.1-0.1,0.1c-0.1,0.1-0.3,0.3-0.4,0.3c0,0,0,0-0.1,0v0c0,0.1,0,0.2-0.1,0.3l-0.3,0.3c0,0,0,0,0,0
	c-0.1,0-0.1,0.1-0.2,0.1c0,0.1,0,0.1-0.1,0.2c-0.1,0.1-0.3,0.3-0.4,0.3c0,0-0.2,0.1-0.3,0.1c-0.1,0-0.2,0-0.2,0l-1-1h0l-0.1-0.1l0,0
	c0,0,0-0.1,0-0.1c0,0,0-0.1,0-0.1c0,0,0,0,0,0l-0.2,0l-0.4-0.5c-0.1-0.1-0.1-0.2,0-0.3c0,0,0,0,0-0.1l-0.5-0.8
	c-0.1-0.1-0.1-0.4,0-0.5l0.2-0.4c0-0.1,0.2-0.3,0.3-0.3c0,0,0.1,0,0.2-0.1c0.1,0,0.2-0.1,0.2,0c0.1,0.1,0.2,0.2,0.3,0.4
	c0,0,0,0,0,0.1c0.1,0.2,0.2,0.4,0.3,0.5c0,0,0-0.1,0.1-0.1l0,0v0l-0.8-1.1c-0.1-0.1-0.1-0.4-0.1-0.5l0.4-0.8
	c0.1-0.1,0.2-0.2,0.3-0.2c0,0,0.1,0,0.1,0c0.1,0,0.3,0,0.3,0.1l0.8,1.1c0,0,0,0,0,0c0,0,0,0.1,0.1,0.1c0,0,0.1-0.1,0.1-0.1
	c0,0-0.1-0.1-0.1-0.1l0.3-0.2l-0.3,0.2l-1-1.4c-0.1-0.1-0.1-0.4,0-0.6l0.3-0.6c0.1-0.1,0.2-0.2,0.3-0.3c0,0,0,0,0,0
	c0.1,0,0.3-0.1,0.4,0l1,1.5c0,0,0.1,0.1,0.1,0.2c0,0,0,0,0.1,0c-0.1-0.1-0.1-0.2,0-0.3c0,0,0,0,0-0.1c-0.1,0-0.2,0-0.2-0.1
	c0,0-1.1-1.5-1.1-1.5c-0.1-0.1-0.1-0.4,0-0.6l0.2-0.5c0-0.1,0.2-0.3,0.3-0.3c0.1,0,0.1,0,0,0c0.1,0,0.3-0.1,0.4,0l0.4,0.6
	c0,0,0.1,0.1,0.1,0.2l0.5,0.8v0l0,0c0,0,0,0,0.1,0c0,0,0,0,0,0c0,0,0.1,0,0.1,0l0,0c-0.1-0.1-0.1-0.2-0.1-0.3c0-0.1,0.1-0.1,0.1-0.2
	c0,0-0.1,0.1-0.1,0.1c0,0,0,0,0,0c0,0,0,0,0,0c-0.1,0-0.3,0.1-0.4-0.1l0.3-0.2l-0.3,0.2L15,7.5c-0.1-0.1-0.1-0.4,0-0.5l0.2-0.4
	c0-0.1,0.2-0.3,0.3-0.3c0,0,0.1-0.1,0.2-0.1l0,0l0.1,0c0,0-0.1-0.1-0.1-0.1c0,0,0,0,0,0c-0.1,0-0.2-0.1-0.3-0.2c0,0,0,0,0,0
	c0,0-0.1,0-0.1,0.1c0,0,0,0,0,0c0,0,0,0,0,0c0,0-0.1,0-0.1,0l0,0c0.1,0.1,0.2,0.3,0.2,0.3L14.8,7c0,0.1-0.2,0.2-0.3,0.3
	c0,0-1.7,0.2-1.7,0.2c-0.1,0-0.3,0-0.4-0.1c0,0,0-0.1-0.1-0.1c0,0,0,0,0,0.1c-0.1,0-0.1,0.1-0.1,0.1c0,0-0.1,0-0.1,0c0,0,0,0,0,0
	c0,0,0,0.1,0,0.1c0,0,0,0.1,0,0.1l0,0l1.5-0.2l0.3,0c0.1,0,0.1,0,0.1,0c0.1,0,0.2,0.1,0.3,0.2c0.1,0.1,0.1,0.2,0,0.3L14,8.7
	c0,0.1-0.2,0.3-0.3,0.3c0,0-1.9,0.2-1.9,0.2c-0.1,0-0.3,0-0.4-0.1c-0.1-0.1-0.1-0.1,0,0c0,0.1-0.1,0.2-0.2,0.3c0,0,1.1-0.1,1.7-0.2
	c0.2,0,0.4,0,0.4,0c0.1,0,0.2,0,0.3,0.1c0.1,0.1,0.1,0.2,0,0.4l-0.4,0.9c0,0.1-0.2,0.2-0.3,0.3c0,0-1.9,0.2-1.9,0.2
	c-0.1,0-0.3-0.1-0.3-0.2c0,0,0,0,0-0.1c0,0,0,0,0,0c0,0,0,0,0,0h-0.1c0,0,0,0,0,0c0,0,0,0.1,0.1,0.1c0,0.1,0.1,0.1,0.1,0.1l1.6-0.2
	c0.1,0,0.2,0,0.3,0.1c0.1,0.1,0.1,0.2,0.1,0.3c0,0-0.1,0.4-0.2,0.4l-0.3,0.6c0,0.1-0.2,0.2-0.3,0.3c0,0-1.5,0.2-1.5,0.2
	c0,0-0.1,0-0.1-0.1c0,0.1,0,0.1-0.1,0.1l1.2-0.1c0.1,0,0.2,0,0.3,0.1c0.1,0.1,0.1,0.2,0.1,0.3l-0.1,0.4c0,0.1-0.3,0.5-0.4,0.6
	c0,0-1.2,0.2-1.2,0.2l0,0c0,0,0,0-0.1,0c0,0,0,0,0,0c-0.1,0.1-0.1,0.3-0.3,0.4c0,0-0.8,0-0.8,0c-0.1,0-0.2,0-0.3-0.1c0,0,0,0-0.1,0
	v0h0l0,0l-1.4-0.1c-0.1,0-0.3-0.3-0.3-0.4C6.9,14,7,13.6,7,13.5c0,0,0.1-0.1,0.1-0.1C7.1,13.3,7,13.3,7,13.2l0.1-0.5
	c0-0.1,0-0.1,0.1-0.1c0-0.1,0-0.1,0-0.2L7.2,12l0,0c0-0.1,0.1-0.1,0.1-0.2c0-0.1,0-0.1,0.1-0.1c0-0.1-0.1-0.1-0.1-0.2l0.1-0.4
	c0-0.1,0.1-0.2,0.1-0.3c0-0.1,0-0.1,0-0.2c0,0,0.1-0.3,0.1-0.4c0-0.1,0.1-0.2,0.2-0.3c0-0.1,0-0.2,0-0.2l0.2-0.5C8,9.2,8,9.2,8,9.1
	C8,9.1,8,9,8,9c0,0,0.1-0.3,0.1-0.4c0-0.1,0.1-0.2,0.2-0.3c0-0.1,0-0.1,0-0.2c0-0.2,0.1-0.3,0.2-0.5c0-0.1,0.1-0.2,0.2-0.2
	c0-0.1-0.1-0.1,0-0.2L9,6.8C9,6.7,9,6.7,9.1,6.7c0-0.1,0-0.1,0.1-0.2c0-0.1,0.1-0.2,0.2-0.3c0,0,0.1-0.1,0.1-0.1
	C9.5,6.1,9.5,6,9.5,6l0,0c0-0.1,0-0.2,0-0.3c0.1-0.2,0.2-0.3,0.4-0.5c0-0.1,0.1-0.1,0.2-0.1c0,0,0-0.1,0.1-0.1
	c0.1-0.1,0.2-0.2,0.3-0.4c0.1-0.1,0.2-0.1,0.3-0.2c0,0,0,0,0,0c0-0.1,0.1-0.2,0.1-0.2c0.3-0.2,0.4-0.3,0.6-0.5c0,0,0,0,0.1,0l0,0
	c0,0,0.1,0,0.1,0c0-0.1,0.1-0.2,0.2-0.2c0,0,0.6-0.3,0.6-0.3c0,0,0.1,0,0.1,0c0.1,0,0.1,0,0.1,0C12.7,3,12.7,3,12.7,3l0.5-0.2
	c0.1,0,0.3,0,0.4,0c0,0,0,0,0,0c0,0,0.1-0.1,0.2-0.1l0.8,0c0.1,0,0.2,0,0.2,0.1c0,0,0.1,0,0.1,0c0.1,0,0.1,0,0.2,0
	c0.1,0,0.5,0.1,0.6,0.2h0c0,0,0.1,0.1,0.1,0.1c0,0,0,0,0.1,0c0,0,0,0,0,0c0,0,0.1,0,0.1,0c0.1,0,0.1,0,0.2,0C16.4,3,16.7,3.1,17,3.2
	c0.1,0,0.1,0.1,0.1,0.2c0.1,0,0.2,0,0.3,0.1l0.5,0.4C18,3.9,18,4,18.1,4.1c0,0,0.1,0,0.1,0.1c0.2,0.1,0.5,0.5,0.5,0.7
	c0,0.1,0,0.1,0,0.2c0.1,0,0.1,0.1,0.2,0.2c0.1,0.2,0.2,0.4,0.3,0.7c0,0.1,0,0.2,0,0.2c0.1,0.1,0.1,0.1,0.1,0.2h0
	c0,0,0.1,0.5,0.1,0.5c0,0.1,0,0.3,0,0.4l0,0C19.6,7.2,19.6,7.3,19.6,7.4L19.6,7.4z"/>
<path class="st3" d="M12.7,20.6c0.1,0.1,0.1,0.2,0.1,0.3c0,0.1-0.1,0.4-0.2,0.5c0,0-0.1,0-0.1,0.1c0.1,0.1,0.1,0.2,0.1,0.3l-0.1,0.5
	c0,0.1-0.1,0.1-0.1,0.2c0,0,0,0.1,0,0.2l-0.2,0.5c0,0.1-0.1,0.1-0.1,0.2c0,0.1,0,0.1,0,0.2c0,0.1-0.2,0.4-0.3,0.5l0,0
	c0,0-0.1,0-0.1,0c0,0,0,0,0,0.1c0,0.1,0,0.2,0,0.3l-0.3,0.5c0,0.1-0.1,0.1-0.2,0.1c0,0.1,0,0.1-0.1,0.2l-0.4,0.5
	c-0.1,0.1-0.1,0.1-0.2,0.1c0,0,0,0-0.1,0c0,0.1,0,0.1-0.1,0.2c-0.2,0.2-0.4,0.4-0.6,0.5c0,0,0,0-0.1,0c-0.1,0-0.1,0-0.1,0
	c0,0-0.1,0.1-0.1,0.1c-0.1,0.1-0.5,0.3-0.7,0.3c0,0-0.1,0-0.1,0c-0.1,0-0.2,0-0.2,0c0,0-0.1,0.1-0.1,0.1l0,0
	c-0.2,0.1-0.7,0.1-0.9,0.1c-0.1,0-0.2,0-0.2-0.1c0,0-0.1,0-0.1,0c0,0-0.1,0-0.1,0c-0.2,0-0.7-0.1-0.9-0.2c0,0-0.1,0-0.1-0.1
	c-0.1,0-0.2,0-0.2,0l0.2-0.3l-0.3,0.2c-0.2-0.1-0.3-0.1-0.5-0.2c-0.1,0-0.1-0.1-0.1-0.2c-0.1,0-0.1,0-0.2-0.1
	c-0.2-0.1-0.4-0.3-0.6-0.5c0-0.1-0.1-0.1-0.1-0.2c-0.1,0-0.2,0-0.2-0.1c-0.2-0.2-0.3-0.4-0.4-0.6c0-0.1-0.1-0.2,0-0.3c0,0,0,0,0,0
	c0,0,0,0,0,0c-0.1,0-0.2-0.1-0.2-0.2c-0.1-0.2-0.2-0.5-0.2-0.8c0-0.1,0-0.2,0-0.2c-0.1-0.1-0.1-0.2-0.1-0.3l0-0.7
	c0-0.1,0-0.2,0.1-0.2c0-0.1,0-0.1,0-0.2c0-0.2,0.1-0.4,0.1-0.6C3,21.2,3,21.1,3.1,21c0-0.1,0-0.2,0-0.2l0.2-0.6
	c0-0.1,0.1-0.1,0.1-0.2c0-0.1,0-0.1,0-0.2c0-0.1,0.1-0.2,0.2-0.3c0,0,0,0,0.1-0.1c0,0,0.1-0.1,0.1-0.1c0,0,0,0,0,0
	c0-0.1,0-0.2,0-0.3c0-0.1,0.3-0.4,0.4-0.4c0,0,0,0,0,0c0,0,0,0,0,0c0,0,0,0,0,0c0-0.1,0-0.2,0.1-0.3l0.3-0.4c0,0,0.1-0.1,0.1-0.1
	c0,0,0-0.1,0.1-0.1c0.1-0.2,0.2-0.3,0.3-0.5C5.2,17.1,5.3,17,5.4,17c0,0,0.1,0,0.1,0c0.1,0,0.2,0,0.3,0.1l1.1,1c0,0,0,0,0,0l0,0l0,0
	l0.7,0.7c0,0,0.1,0.1,0.1,0.1h0c0.1,0,0.2,0.1,0.3,0.2l-0.1,0.6l0.7-0.2c0,0,0.1,0,0.1,0c0,0.1,0.1,0.6,0.1,0.6c0,0,0.7-0.3,0.8-0.3
	c0.1,0,0.2,0,0.3,0.1c0,0,0,0,0,0h0c0,0,0,0,0,0l1.1,0.2l0,0l0.1,0l1.4,0.3C12.6,20.6,12.6,20.6,12.7,20.6L12.7,20.6z"/>
<ellipse transform="matrix(0.4258 -0.9048 0.9048 0.4258 -9.6456 18.7116)" class="st4" cx="9.9" cy="17" rx="0.5" ry="1.2"/>
</svg>
