<?xml version="1.0" encoding="UTF-8"?>
<svg id="Symptoms" xmlns="http://www.w3.org/2000/svg" viewBox="0 0 32.06 32">
  <defs>
    <style>
      .cls-1 {
        stroke-dasharray: 0 0 1.08 .76;
      }

      .cls-1, .cls-2, .cls-3, .cls-4, .cls-5, .cls-6, .cls-7, .cls-8, .cls-9, .cls-10 {
        fill: none;
        stroke: #5c5c5c;
        stroke-miterlimit: 10;
        stroke-width: .2px;
      }

      .cls-2 {
        stroke-dasharray: 0 0 1.13 .79;
      }

      .cls-3 {
        stroke-dasharray: 0 0 1.02 .71;
      }

      .cls-11 {
        fill: #fff;
      }

      .cls-4 {
        stroke-dasharray: 0 0 .97 .68;
      }

      .cls-5 {
        stroke-dasharray: 0 0 1.04 .73;
      }

      .cls-6 {
        stroke-dasharray: 0 0 1.01 .71;
      }

      .cls-7 {
        stroke-dasharray: 0 0 .99 .69;
      }

      .cls-9 {
        stroke-dasharray: 0 0 .93 .65;
      }

      .cls-10 {
        stroke-dasharray: 0 0 .89 .62;
      }
    </style>
  </defs>
  <g id="ic_infertiliy">
    <path class="cls-11" d="m23.2,27.9c-1.05-.19-2.9-.09-3.06-1.33-.08-.61.66-1.45,1.35-2.68s1.29-2.57,1.23-2.99c-.12-.83-1.54-2.17-1.54-2.17,0,0-.31.15-1.61.28s-1.73.17-2.36.35-1.76,4.65-1.86,5.19-.37,1.92-.76,2.93c-.18.46-.54.66-1.01.82-1.5.49-3.02.19-3.02.19,0,0-.16-.52.1-.85,0,0-.36.2-1.14.26s-1.55-.64-1.6-1.07.81-2.47,1.16-4.41.1-2.76.19-4.05c0,0-1.28-1.75-1.77-2.76s-1.09-2.85-1.09-2.85c0,0-3.15.83-4.69-.24-.98-.5-1.12-1.72-1.04-2.26.13-.9.79-1.53,1.46-2.16.57-.53,1.17-1.46,1.67-2.12s.89-.92,1.18-1.29c.46-.59.23-2.16.42-2.28s2.27,1.12,2.27,1.12c0,0,.33.06.73.09.24.02.75.09.75.09,0,0,2.05-.75,2.64-.42,0,0,.85,1.24.1,2.35,0,0,.69.65,1.51.45s3.31-.46,4.85,0,5.48.06,5.48.06c0,0,4.28-.24,6.07,1.98s.93,3.12.4,6.85c-.12,1.68.8,3.26,1.05,4.68s-.8,2.38-1.06,4.02-.17,3.35-.61,3.96c-.31.44-1.07,1.13-1.86,1.17s-2.22-.13-2.47-.41-2.05-.5-2.05-.5Z"/>
    <g>
      <path class="cls-8" d="m7.02,10.96c.15-.06.3-.12.46-.19,0,0,.06.17.18.46"/>
      <path class="cls-6" d="m7.93,11.88c.63,1.5,1.85,4.16,3.11,5.51,0,0,.09,6.28-1.61,8.86,0,0-.21.22.26.22.29,0,.62-.09.86-.18"/>
      <path class="cls-8" d="m10.86,26.12c.08-.13.05-.5.05-.5,0,0,.29.03.42-.23"/>
      <path class="cls-2" d="m11.44,24.62c.07-.73.19-1.9.59-2.92.3-.79.63-1.63.86-2.24"/>
      <path class="cls-8" d="m13.02,19.09c.11-.29.18-.46.18-.46,0,0,.01.18.02.49"/>
      <path class="cls-4" d="m13.22,19.79c-.02,1.57-.23,4.45-1.29,6.87-.09.25-.14.36.19.44.33.08,1.01-.1,1.01-.1,0,0,.17-.04.25-.41.08-.36.25-.32.25-.32,0,0,.11,0,.12-.39s-.09-.47.35-2.19c.41-1.58.8-2.47,1.67-5.31"/>
      <path class="cls-8" d="m15.86,18.05c.05-.15.09-.31.14-.48,0,0,.23-.07.48-.15"/>
      <path class="cls-5" d="m17.16,17.17c.35-.09,1.3-.13,1.3-.13,0,0,1.75-.16,3-.63.33-.1.42-.03.64.42.21.45,1.11,1.84,1.49,2.29.38.45.94,1.11,0,3.45-.94,2.34-1.79,3.16-1.79,3.59s1.13.26,1.13.26c0,0,.16-.02.32-.17"/>
      <path class="cls-8" d="m23.44,25.94c.05-.13.08-.29.07-.49,0,0,.08-.04.2.06.05.04.14-.03.22-.14"/>
      <path class="cls-10" d="m24.14,24.8c0-.27.08-.75.48-1.34.57-.83,1.44-2.86,1.44-2.86,0,0,.39-.26.26-1.04"/>
      <path class="cls-8" d="m26.24,19.26c-.04-.14-.1-.3-.18-.47l.33.38"/>
      <path class="cls-3" d="m26.86,19.7l.73.84s.52.4.12,2.46c-.4,2.05-.71,2.79-1.3,3.71-.59.92.33.92.33.92,0,0,.6.16.98-.42"/>
      <path class="cls-8" d="m27.88,26.88c.05-.14.09-.3.12-.49,0,0,.23.01.35-.31"/>
      <path class="cls-7" d="m28.43,25.4c.04-.92.21-2.85.96-4.32.83-1.63.21-1.87.21-1.87,0,0-.74-.94-.93-2.69-.19-1.75.15-3.49.15-3.49l.39-1.79s-.12-2.21-2.29-3.04c-2.17-.83-3.73-.52-3.73-.52,0,0-2.95.36-4.67-.06s-4.49,0-4.49,0c0,0-1.35.41-3.19-.54"/>
      <path class="cls-8" d="m10.52,6.9c-.14-.08-.28-.17-.42-.27,0,0,.12-.18.25-.43"/>
      <path class="cls-1" d="m10.63,5.5c.06-.25.04-.46-.13-.57-.21-.13-.53-.1-.83-.04"/>
      <path class="cls-8" d="m9.31,5c-.27.09-.46.19-.46.19,0,0-.19-.1-.46-.19"/>
      <path class="cls-8" d="m7.79,4.85c-.17-.03-.35-.03-.5,0l-.41-.29"/>
      <path class="cls-8" d="m6.82,4.51l-.41-.29v.94s-.15.11-.38.33"/>
      <path class="cls-9" d="m5.6,5.97c-.29.34-.61.79-.93,1.37-.83,1.51-1.94,2.12-1.94,2.12,0,0-1.11.97-.12,1.65.4.28.44.42.85.37s.34-.24.78-.15c.37.07,1.03.24,2.47-.26"/>
    </g>
    <path class="cls-11" d="m29.58,22.98c-.25,1.57-.09,2.52-.17,3.01s-.18.57-.6,1.16"/>
  </g>
</svg>