<?xml version="1.0" encoding="UTF-8"?>
<svg id="Livello_1" data-name="Livello 1" xmlns="http://www.w3.org/2000/svg" version="1.1" viewBox="0 0 40 63">
  <defs>
    <style>
      .cls-1 {
        fill: #c99d97;
      }

      .cls-1, .cls-2, .cls-3, .cls-4, .cls-5, .cls-6, .cls-7, .cls-8, .cls-9, .cls-10, .cls-11, .cls-12, .cls-13, .cls-14, .cls-15, .cls-16, .cls-17, .cls-18, .cls-19, .cls-20 {
        stroke-width: 0px;
      }

      .cls-2 {
        fill: #e28a7f;
      }

      .cls-3 {
        fill: #7e5239;
      }

      .cls-4 {
        fill: #b2a8a7;
      }

      .cls-5 {
        fill: #6b412c;
      }

      .cls-6 {
        fill: #895940;
      }

      .cls-7 {
        fill: #000;
      }

      .cls-8 {
        fill: #cf7553;
      }

      .cls-9 {
        fill: #e0b7af;
      }

      .cls-10 {
        fill: #be5456;
      }

      .cls-10, .cls-12, .cls-14 {
        isolation: isolate;
        opacity: .7;
      }

      .cls-11 {
        fill: #2b0500;
      }

      .cls-12 {
        fill: #c4676a;
      }

      .cls-13 {
        fill: #90817c;
      }

      .cls-14 {
        fill: #b5393d;
      }

      .cls-15 {
        fill: #d8d3d0;
      }

      .cls-16 {
        fill: #cea19b;
      }

      .cls-17 {
        fill: #fff;
      }

      .cls-18 {
        fill: #efc6bb;
      }

      .cls-19 {
        fill: #af9fa0;
      }

      .cls-20 {
        fill: #7c6f67;
      }
    </style>
  </defs>
  <path class="cls-17" d="M5.8,62.5l.4-1.8c.2-1,.2-2.4,0-2.9-.6-1-1.2-1.9-1.3-3s-.3-2.4-.6-3.7v-.2c-.1-.4-.3-.8-.4-1.2v-.3h0c-.9-2.8-3.7-13.7-3.1-20.9-.1-.9-.1-1.9,0-2.9.6-3,4.1-5.3,7-6.9,1.4-.8,3.3-4.8,5.1-8.3.9-1.7,1.7-3.5,2.6-5.1C18.1.7,21.4,0,23.2,0s1.6.1,2.1.4c.6.3,2.3,1.1,3.3,1.6s1.1.6,1.5,1h0c.3.3.5.5.7.8l.5.7c.5.7,1,1.4,1.2,2,0,.2,0,.4.2.6.4.8,1.1,2.3.2,3.7v.8c-.2,1.2-.4,2-.6,2.6,0,.5,0,.9-.4,1.2l-.5.7h0c0,.5-.2.8-.4,1.1,0,.4-.2.7-.3,1,0,.7,0,1.5-.6,2-.4.5-1.1.8-1.8.8s0,0-.2,0c0,.2-.2.3-.3.4,0,.1,0,.2-.2.3,0,.1-.2.3-.4.4-.4.8-1,1.8-1.9,2.1,1.9,1.2,3.6,2.3,4.7,2.7,3.7,1.4,6.1,4.7,5.8,7.9,0,.5,0,.9-.2,1.3v.7h0c0,0,0,.4,0,.4-.3.7-.7,1.5-1.2,2.1.4.2.7.5.8.8.2,0,.4.2.6.4.6.5.8,1.2.6,1.9,0,0,0,.2,0,.4.9,1,1.8,2.3,2.5,3.7,1.1,2.2,1.9,7.4,1,8.8,0,.2-.2.3-.4.4-.2,1.2-.6,2.1-1,2.8-1,1.6-2.2,2.6-3.6,3.2l-.5,1.2H5.6l.2-.4Z"/>
  <g>
    <path class="cls-9" d="M33.7,56c1.8-.4,3.6-1.2,4.3-1.4,0,.9-.4,2-.9,2.7-.7,1.1-2.3,3.1-4.8,2.8h0c-.4-.2-2.5-1.3-2.6-2.1-.2-.9,1.8-1.4,4-2Z"/>
    <path class="cls-1" d="M38.1,53.4c0,.3,0,.7,0,1.2-.7.3-2.5,1-4.3,1.4-2.2.6-4.2,1-4,2,.2.8,2.2,1.9,2.6,2.1-.2,0-.4,0-.6,0-2.8-.7-5.8-3.7-5.8-3.7,0,0,3.8-1.3,7.1-2.2l5.1-.7h0Z"/>
    <path class="cls-7" d="M33.6,60.1l-.3.9H14.5l3.9-3.9,8.2-.6s3.3,3,7.1,3.7h-.1Z"/>
    <path class="cls-9" d="M38.1,53v.4h0l-5.1.7c2.7-.8,5.1-1.4,5.1-1.1Z"/>
    <path class="cls-19" d="M32.3,39.2s1.5-1.8,1.8-3-5.8,0-7.2,1.5-2.8,2.5-2.8,2.5l8.2-1.1h0Z"/>
    <path class="cls-15" d="M35.9,54.6s2-.5,2.5-.4.2-5-1-7.4-2.9-4.4-4.2-4.9-6.7,3.5-6.7,3.5l1.9,9.6,7.4-.4h0Z"/>
    <path class="cls-19" d="M17.6,57.6c.2,0,1.5.2,3.8,0s7.6-1.3,9.3-1.7,4.9-1.2,6.1-1.6,0-.8-3.6-.6-1.6-3.2-3.2-4.8-1.6-3.3-1.6-3.7,1.8-.2,2.8-.8,1.9-1.8,1.9-1.8h-9.4l-5.3,4.8-.8,10.1h0Z"/>
    <path class="cls-9" d="M17.1,27.6l-2.5,3.6s0,2.3.2,2.8,1.5-.3,1.9-1.1,1-2,1.1-3.1-.3-3.4-.8-2.2h0Z"/>
    <path class="cls-18" d="M29,28.4h-.5s-4.5-.4-6.6-.6c-2.1-.2-4.4-3.1-4.5-1.7,0,1.3-.6,1.5-1.7,2.3-1.1.8-1.2-1.5-1.3-2.4,0-.9,1.4-1.7,2.6-3.2,1.2-1.5-.3-2.8,0-3.7.3-.9,1-3.2,1.2-1.3.2,1.9,2.8,3.6,2.8,3.6l-.4,1s3.3,3.2,5.3,4.3c2.1,1,3.1,1.7,3.1,1.7Z"/>
    <path class="cls-9" d="M28.5,28.5c-2.2.4-10.5,1.8-10.5,1.3s-.7-2-1.3-.9c-.6,1-2.5,2.4-2.5,2.4v-2.3c0-2.1-3.3-7.2-3.3-7.2l4.4-1.8,3-5.5c2-1.6,3.2,6,3.2,6l-.5,1.1s-2.6-1.7-2.8-3.6-.9.3-1.2,1.3c-.3.9,1.2,2.2,0,3.7s-2.7,2.3-2.6,3.2c0,.9.2,3.2,1.3,2.4,1.1-.8,1.5-1,1.7-2.3s2.4,1.6,4.5,1.7c2.1.2,6.6.6,6.6.6h0Z"/>
    <path class="cls-16" d="M16.6,28.8s-.6,1.5-1.1,2.2-.8.9-.7,1.9.7.8,1.5,0c.8-.8,1.6-3.2,1.6-3.2,0,0,.2,3.3-3.1,5.4,0,0-.5-.4-.7-4v-1c0-.4,1.6-.8,2.1-1.5s.6-.4.4.2Z"/>
    <path class="cls-19" d="M14.7,34.6s1.8-.8,2.7-3.3,6.6-1.7,8.3,1c1.6,2.7.8,6.5-.9,7.6s-7.6,2.2-8.7,2.3-1.4-7.7-1.4-7.7h0Z"/>
    <path class="cls-13" d="M5.7,50.6h0c-.1-.5-.3-1-.4-1.5h0c-1.3-3.4-6-22.9-.7-26.1,2.7-1.6,4.3-1.9,5.2-1.8-1.5.3-3.1,1-1.7,2.4,0,0,1.8,2.3,3.2,5.1.1.3.3.5.3.6-.5-.7-2-3.2-3.6-4-2.3-1.1,1.7,1.7,2.7,5.1,1,3.4-1,2.4-3.7,1.6-2.7-.8,4.5,2.8,4.7,4,.2,1.3-3.6.2-5.3.3-1.7.2,3.5,1.2,4.3,2.6.8,1.4-3.8,2.3-5,3.3-1.2,1.1,2.6-.8,4.3-.4,1.6.4-2.4,3.3-3,6h0v.2c-.4,2.7,2.9-4,4.3-4.8.4-.3.7-.5.9-.8h0c.5-.7.5-1.5.5-2.7-.1-1.8-.1-2.9,0-4.1.1-1.2-.8-4.6-.9-4.8,0,0,1.4,1.5,1.9,5.8.5,4.4.7,5.8.7,5.8l.5-7.7c0,1,.2,1.9.4,2.5.3,1,.7,2.8,1.4,4.8,0,.2,0,.3.2.5.5,1.2,1,2.6,1.8,3.9.2.3.3.6.4,1,.2.5.3,1.1.3,1.8h0c-.2,0-.3,0-.4,0h0c-1.7.7-5.1,1.5-7.3,1.8-2.2.3-3.4,1.3-4.5,1.1h-.1c-.3,0-.4,0-.3,0-.5-.3-.8-.8-1.1-1.4h0Z"/>
    <path class="cls-13" d="M17.9,61H7.6s.7-3.1-.5-4.4c-.6-.7-.8-1.8-1-3.1.6.2,1.6.4,2.8,0,2.1-.8,3.2-1.5,5.9-1.6,2.6,0,4.4-1.4,4.5-1.5,0,4.3-1.5,10.7-1.5,10.7h.1Z"/>
    <path class="cls-18" d="M31.5,11.1c-.3,2.3-.6,2.6-1.2,3.5,0,0,0,.1,0,.2h-.3s-.7.3-.8.6c0,.3,0,2.3,0,2.3,0,0,0,1.1-.2,1.4s-.7.4-1,.2c-.3-.1-.3-.5-.6-.2-.2.3-.8.7-1.1,1.4-.3.7-1.1,2.5-1.8,2.3-.8-.2-1.8-.2-3.7-2-1.9-1.7-2.2-2.9-2-4.6l.2-1.7s-1,.2-1.1-.8-.2-3.2.5-4,1.7.3,1.8.8c0,.4,3-1.1,5.4-1.4,1.8-.3,2.8-.7,3.7-1,.3,0,.7-.1,1-.2,0,0,1,.7,1.2,2.2h0v1.1h0Z"/>
    <path class="cls-16" d="M19.8,11.1s-.2-1-1-1-.6,2.6-.5,3.2.8.5.9-.2-.7-.6-.5-1.2,1.1.2,1-.8h0Z"/>
    <path class="cls-15" d="M12.3,22.3s3.2,3,4,4.1,2,3.5.5,6.4.9,1.3,2.6-.7,3.3-.7,4.7.9.5,5.5-1.1,6.6,1.7.7,3.9-.9,3.1-2.3,4.6-1.5,2.5,0,2.8-2.7-1.9-5.3-4.8-6.4-9-5.7-9-5.7c0,0,2.7,3.8,5.9,4.8,0,0,1.5.5-2.4,1s-4.7-.2-6.2-1-2.6-4-5.5-4.9Z"/>
    <path class="cls-9" d="M25.9,39.7s1.8-1.3,2.6-2,1.6-1.1,1.8-.8.5,1,1.1,1.3.9.9.9,1.2,0,.7,1,.9.3,1,.3,1c0,0,.8-.2,1.1,0s.3.6-.7.9-1.8,1-2.8,1.4-3.7.3-3.7.3c0,0,.7-3-1.6-4.2Z"/>
    <path class="cls-4" d="M14.9,34.5l-.5,7.7s-.2-1.4-.7-5.8c-.5-4.2-1.8-5.7-1.9-5.8,0,.2,1,3.6.9,4.8-.1,1.3-.1,2.3,0,4.1s0,2.7-1.4,3.6c-1.4.9-4.7,7.6-4.3,4.8.4-2.7,4.7-5.8,3.1-6.2s-5.5,1.4-4.3.4c1.2-1.1,5.8-2,5-3.3-.8-1.4-6-2.4-4.3-2.6,1.7-.2,5.4.9,5.3-.3-.2-1.2-7.4-4.8-4.7-4,2.7.8,4.7,1.8,3.7-1.6-1-3.4-5-6.2-2.7-5.1,1.6.7,3.2,3.4,3.6,4,0,0-.2-.3-.4-.7-1.5-2.8-3.2-5.1-3.2-5.1-1.4-1.4.2-2.1,1.7-2.4.9.1,1.2.6,1.2.6,0,0,3.8,2.9,3.8,6.2s0,4.7.2,6.7h0Z"/>
    <path class="cls-6" d="M28.9,3.7s-1.9-1.8-4.2-2.2-4.9-1.1-7.9,4.3-5.8,12.6-8.3,14-5.8,3.6-6.3,5.9.4,3.9.4,3.9c0,0-.8-2.9.5-4.8s3.2-2.9,5.1-2.6-2.8-.8-5,3.2c0,0,2.4-2.9,6.2-2.7s5.4,1.1,6.8,0c1.4-1.1,2.7-6.8,2.9-8.2s-1.6-2.8.8-6.3,8.9-4.5,8.9-4.5h.1Z"/>
    <path class="cls-5" d="M31.6,10.1h0c-.2-1.5-1.2-2.2-1.2-2.2-.3,0-.7,0-1,.2l-.7-.6-1.5-3.7s.7-.8,1.4-.3,2.3,2.3,2.6,3.3c.3,1,1.4,2.3.4,3.4h0Z"/>
    <path class="cls-20" d="M25.9,45.4c-.7,1.1-1.8,2.8-2.8,2.8s-2.5.5-3.4.9c0,0-.2,0-.3,0-.2,0-.3,0-.4,0h0s-2.8-.9-4.7-.9-1,0-1.3.3h0c-1.1,1-4.4,3.6-5.8,3.4h-.1s-.2,0-.3,0c-.5-.3-.8-.8-1.1-1.4h0c-.3-.7-.4-1.4-.4-1.5h0c.6,0,1.2-.5,1.8-1.2h0c.8-.9,1.5-2.1,2-2.8.9-1.3,3-2.5,3.2-2.6h4.7c2.8,0,5.9-.3,6.4-.9.8-1.2.8-1.4,1.7-1.1.9.3,1.7,3.9,1,5h-.2Z"/>
    <path class="cls-4" d="M27.4,46.4c-.7,1.3-1.2,2.7-1.8,2.8s-1.2-1-2.5-1.1,1.6-.7,2.3-3.3-.9-4.1-.9-4.1c0,0,1.2,3.9-.9,5.6-1.8,1.4-2.7,2-3.9,2.6,0,0-.2,0-.3,0,0,0-.2,0-.4.2h0c-1.7.7-5.1,1.5-7.3,1.8-2.2.3-3.4,1.3-4.5,1.1h-.1c-.3,0-.4,0-.3,0,.3,0,1.7-.2,2.6-1.6.2-.3.4-.7.6-1.1,1.1-2.2,2.2-5.7,2.2-7,0,0,1.2-.5,1.6-.2s1.5-.3,2.9-.3,8.9-2.3,8.9-2.3c0,0,1.1-.4,1.9.7.8,1,.7,4.8,0,6.1h-.1Z"/>
    <path class="cls-20" d="M19.4,50.3c0,0-1.9,1.3-4.5,1.5-2.7.2-3.8.9-5.9,1.6-1.2.4-2.2.3-2.8,0-.1-.8-.2-1.8-.5-2.8h0c.2.5.6,1.1,1.1,1.3h.3q0,0,.1,0c1.1.2,2.3-.8,4.5-1.1,2.3-.3,5.7-1.1,7.3-1.8h0s.2,0,.4,0v1.2h0Z"/>
    <path class="cls-3" d="M30.3,8.6c-.4.7-3.6,2.2-6.7,2.4,0,0-1.5.7-2.2,1.8-.7,1.1-.9,3-2.1,3,0,0,1.1-.6,1.1-1.9s0-3.3,0-3.3c0,0-.6-1-1.2-1.2,0,0,1.9-4.5,3.6-5.6,1.7-1.1,4.1-1.3,4.6-.2,0,0,1.5,1.8,2.3,2.8.9,1,1.1,1.2.6,2.1h.1Z"/>
    <path class="cls-3" d="M25.1,12.8s1.8.2,2.8.5,1.3.3,1.5.1,0,.6-.6.9-1.7-.7-2-.8-1.4-.4-1.9-.4-.6-.4.2-.3Z"/>
    <path class="cls-11" d="M27.8,15s-.9.3-1.9-.2-.2.4.6.4,1.4-.2,1.4-.2h0Z"/>
    <path class="cls-9" d="M26.7,18.5s-.6-.1-.5-.6.6-.7.9-.6c0,0-.6.1-.6.6s.3.6.3.6h-.1Z"/>
    <path class="cls-2" d="M26.6,20.3s0,.5-.4.5-1.6-1.4-2.2-1.5-.2-.3-.2-.3c0,0,1.2,0,1.8.3s1,.9,1,.9h0Z"/>
    <path class="cls-8" d="M27,19.8s-.4,0-.4-.2-2.2-.6-2.8-.5.7.2,1.2.4.9.7,1.2.7.3.1.5.1c.3,0,.3-.5.3-.5Z"/>
    <path class="cls-9" d="M30.2,14.7c-.5.8-.5.9-.5,1.3s0,1.2-.4,1.6c0,0-.2-2,0-2.3,0-.3.8-.6.8-.6h.3,0Z"/>
    <path class="cls-11" d="M29.3,15.5s.5.3.6.3,0,.2,0,.2-.5-.5-.5-.5Z"/>
    <path class="cls-3" d="M30.6,13.9s-.6.5-.6.7.5.2.5.2c0,0,.4-.5.5-.6s0-.5-.3-.3h-.1Z"/>
    <g>
      <circle class="cls-12" cx="32" cy="48.8" r="3.3"/>
      <circle class="cls-10" cx="32" cy="48.8" r="2.4"/>
      <circle class="cls-14" cx="32" cy="48.8" r="1.5"/>
    </g>
  </g>
</svg>