<?xml version="1.0" encoding="UTF-8"?>
<svg id="Livello_1" data-name="Livello 1" xmlns="http://www.w3.org/2000/svg" version="1.1" viewBox="0 0 46.9 61.8">
  <defs>
    <style>
      .cls-1 {
        fill: #e28a7f;
      }

      .cls-1, .cls-2, .cls-3, .cls-4, .cls-5, .cls-6, .cls-7, .cls-8, .cls-9, .cls-10, .cls-11, .cls-12, .cls-13, .cls-14, .cls-15, .cls-16, .cls-17, .cls-18, .cls-19, .cls-20, .cls-21, .cls-22, .cls-23, .cls-24, .cls-25 {
        stroke-width: 0px;
      }

      .cls-2 {
        fill: #855344;
      }

      .cls-26 {
        fill: none;
        stroke: #cea19b;
        stroke-miterlimit: 10;
        stroke-width: .2px;
      }

      .cls-3 {
        fill: #402f25;
      }

      .cls-4 {
        fill: #925f54;
      }

      .cls-5 {
        fill: #a5a5a5;
      }

      .cls-6 {
        fill: #d1d1d1;
      }

      .cls-7 {
        fill: #cf7553;
      }

      .cls-8 {
        fill: #392821;
      }

      .cls-9 {
        fill: #e0b7af;
      }

      .cls-10 {
        fill: #564136;
      }

      .cls-11 {
        fill: #e8a8a0;
      }

      .cls-12 {
        fill: #bcbcbc;
      }

      .cls-13 {
        fill: #e0e1e6;
      }

      .cls-14 {
        fill: #be5456;
      }

      .cls-14, .cls-17, .cls-19 {
        isolation: isolate;
        opacity: .7;
      }

      .cls-15 {
        fill: #ffc6bb;
      }

      .cls-16 {
        fill: #d6cfd6;
      }

      .cls-17 {
        fill: #c4676a;
      }

      .cls-18 {
        fill: #f7b2ad;
      }

      .cls-19 {
        fill: #b5393d;
      }

      .cls-20 {
        fill: #e5bbb3;
      }

      .cls-21 {
        fill: #503e32;
      }

      .cls-22 {
        fill: #dbafa9;
      }

      .cls-23 {
        fill: #cea19b;
      }

      .cls-24 {
        fill: #fff;
      }

      .cls-25 {
        fill: #efc6bb;
      }
    </style>
  </defs>
  <path class="cls-24" d="M15.2,61.8v-1.5c.2-.6,0-1.5,0-1.7-.5-.6-.7-1.2-.5-2-.5-.6-.8-1.4-1-2.3-.2-.7-.4-1.5-.9-2.1-.8-1.2-.9-1.8-1.1-2.5,0-.2,0-.4-.2-.8-.4-.9-3-4.5-4.5-5.8-1.4-1.2-2.1-3.4-2.8-5.4-.3-.8-.5-1.5-.7-2-.4-.9-.7-1.8-.8-2.7l-1.2-2.2c.3-.2.3-.3.3-.3,0,0-.1-.5-.2-.7-.1-.3-.2-.7-.3-1.1-.2-1.2.5-2.2,1.2-3-.3-.5-.5-1-.5-1.5s0-1.3.2-2l-2.2-.3c.1-2.3,1.7-3.3,3-4.1.2-.1.4-.3.6-.4-.4-.5-.8-1.3-.9-2.2,0-1.2.3-1.9.7-2.4v-.6c0-.7.3-1.3.7-1.8.2-1.4,1-2,2-2.7.2-.1.4-.3.7-.5.7-.5,1-.9,1.4-1.7.5-.7,1-1.6,2.1-2.7,1.6-1.7,4.1-2.8,6.7-2.8s2.1.2,2.9.5c1.8.7,3.6,1.2,4.1,1.3h.9c0,.1.5.1.5.1,1.1.2,2,.8,2.7,1.7.8.2,1.6.6,2.2,1.2,1.4,1.3,2.2,3.5,2,5.4,0,1,0,3.3.8,6,0,0,.2,0,.3-.1,1.3-.7,3-1,4.9-1s1.3,0,1.9.1c1.4.1,2.7.7,3.7,1.7.4.4.8.9,1.1,1.4.8,1.4.8,3.6.8,4.9,0,.1.3.3.5.5.8.9.8,2,0,3.2,0,.2-.2.3-.3.5h0c.8,1,.6,2,.5,2.4v.2c0,.6,0,1.7-.3,2.5,0,1.6.8,11.2.4,15.9-.5,5.1-4.5,12.4-4.7,12.7l-.4.7H15.2Z"/>
  <g>
    <path class="cls-5" d="M36.1,28.5s1.9-.8,3.4-.8,0,1.7,0,1.7l-3.4-.9Z"/>
    <path class="cls-23" d="M29.1,30.8c-.2.5-1.9,2.3-5,2.2-2.2,0-3.3-1.2-4.3-2.3,0,0,0-.5.7-.9s4.8,2.2,4.4,1.5c-.3-.7-1.2-1.3-3.5-2.5s-1.8-2-1.7-2.8-.7-.5-2.3-1.4c-1.6-.9-3.1-4.2-3.1-4.3l6.6,4.1h0l-.2.6h0c-.3.6-.2,2.6,1.6,2.7,1.7,0,3.8,3,5.7,2.9.3,0,.5,0,.8,0,0,0,0,.2,0,.2h.2Z"/>
    <path class="cls-9" d="M20.6,29.8c-.7.4-.7.9-.7.9-.4-.4-.7-.9-1-1.2-.6-.6-2.4-1.9-4-2.9.5,0,.9,0,1.2-.2,1.3-.7-1.4-2.6-1.6-6h0c0,.1,1.5,3.4,3.1,4.3,1.6.9,2.4.6,2.3,1.4,0,.8-.6,1.7,1.7,2.8,2.3,1.2,3.2,1.8,3.5,2.5s-3.7-1.9-4.4-1.5h0Z"/>
    <path class="cls-16" d="M7.5,25.7s-2.4.8-3.2,3.2-.5,4.6.4,6.5,1.6,5.5,3.2,6.9,4.4,5.1,4.9,6.3,0,1.3,1.1,3,1.1,3.7,1.9,4.4-.4,1,.3,1.8.6,2.7.6,2.7h11.8l-2.9-8.6s4.4-19.3,3.5-21.1c0,0-3.3,2.4-6.2,1.2s-2.1-2.6-5-4.7-10.4-1.6-10.4-1.6Z"/>
    <path class="cls-5" d="M39,35.3c-1.3,1.6-3.9,4.8-4.5,5.6s-3.2,3.2-4.2,4.1h0c-.3.3-.7.6-1.1.9l-.2.2h0c0,0-.2.2-.3.3-.3.3-.6.6-.6.8,0,0-.6-1.3-1.8-2.6,0,0,.5-1,.4-3.1,0-2,1.7-6.7,1.7-6.7h0c1.5,0,2.9-.3,4.2-.4,1.6-.2,1.7,0,2.9-1.1.2,0,.3-.3.5-.5l4-.2c0,.7,0,1.6-.9,2.7h-.1Z"/>
    <path class="cls-10" d="M26.8,5c.2,0,1.4-.2,2.7,1s1.7,2.9,1.5,4.2,0,3.9.8,6.7c.7,2.8,0,5-1.7,5.6,0,0,2.3-1.4,1.5-4.1s-2.4-4.4-2.5-6.2-1.6-4.8-2.8-4.9.4-2.2.4-2.2h0Z"/>
    <path class="cls-26" d="M14.5,20.3c.2,3.4,2.9,5.3,1.6,6-.3.2-.7.2-1.2.2-1.5-1-2.7-1.8-2.7-1.8l2.3-4.5h0Z"/>
    <path class="cls-3" d="M29.9,24.7c.2-.6,0-1,0-1.2,0,.1,0,.5-.3,1.1-.4-.1-.7-.2-.8-.2,0,0,.4.1.7.3-.2.3-.4.7-.7,1.1-1.3,1.7-3.9.8-3.4-.2.5-1.1,1.7-1.3,1.6-3.7v-.5c.7-.2,1.8-.7,2.7-1.8,1.8-2.1.3-5.3-.2-8-.4-2.7-2.1-3.6-2.1-3.6l-4.9,9.8s-1.2,4.8-1.7,6.7c0,.3,0,.5-.2.6h0c-.3.6-.2,2.6,1.6,2.7,1.7,0,3.8,3,5.7,2.9.3,0,.5,0,.8,0,1.4-.4,2.2-1.7,2.5-3.5.2-1.3-.7-2-1.5-2.3h.1ZM29.3,19.4c-.2.7-1.2,1.3-2,1.6.4-1.9,2.2-2.7,2-1.6ZM30.8,26.5c-.5,1.2-3.9,1.6-2.2,0,.7-.6,1-1.2,1.2-1.8.6.4,1.2,1,.9,1.6h0Z"/>
    <path class="cls-25" d="M27,6.9s1.4.8,1.2,2.3.4,3-.2,3.8-.8,1.3-.7,2.4.4,1.8-.2,2.5c0,0,0,.8-.6,1.2s-.7.3-.9.6-.7,1.9-1.1,2.9.5,2.3-2.4,2.3-4.6-2-7-3.9,1.2-7.1,1.8-8.4,7.4-6.2,10.2-5.6h0Z"/>
    <path class="cls-21" d="M21.4,12.4c0,0,3.2.4,4,.1s.3,1,0,1.1-2.4-.4-3.8-.3,0-.9,0-.9h-.1Z"/>
    <path class="cls-21" d="M26.6,13.3s.4-.7.8-.9.7-.3.7-.3c0,0,.3.4-.3.8s-1.6.7-1.3.4h0Z"/>
    <path class="cls-21" d="M26,14.7s1.1.3,1.3-.1,0,.5-.4.5-.9-.2-.9-.2c0,0,0-.2,0-.2Z"/>
    <path class="cls-21" d="M23.5,14.8s-.2.5-1.4.5-1.5-.4-1.5-.4c0,0,.4.6,1.5.6s1.4-.6,1.4-.6h0Z"/>
    <path class="cls-23" d="M23.6,17.4s-.3.2-.2.6.4.7.8.7.7.1,1.1.3.2.3.6.2c0,0-.4,0-.5.4s-.3-.6-.9-.6-1.8-.7-.9-1.6Z"/>
    <path class="cls-15" d="M44.3,23.7h0c0,.4-1.3,1.9-1.9,2-.6,0-.2-.8-.2-.8,0,0,.7-2.8.2-3.1-.5-.3-1.6.7-2.5,1.6s-1.1.7-.5,1.1.5,1.5.2,2.2c-.3.7-1.4,1.1-1.8,1.2-.4,0-1.1.4-1.5,0s0-1,0-1.1c-.5.2-.9,1.5-1.5,1.7-.6.3-1.4.3-1.6-.4-.2-.7-.8-.9-1.4-.5-.5.3-1,0-1,0l-.4.6s0,0,0-.3c0-.4-.2-.7-.4-.9-.3-.2-.2-.3,0-.5,0-.2.8-.7.2-1s-.8-1.2.3-1.5.8-1,.8-2.5.4-2.7,3.2-4.2c2-1,4.6-.9,6-.8,1.1.1,2.1.6,2.9,1.3.3.3.6.6.8,1,.6,1.1.7,3.1.5,4.7l-.3.2Z"/>
    <path class="cls-2" d="M31,21.6s.4-.3.9,0,.9.9,1,1,0,.3-.4-.2-1.2-.4-1.5-.4-.2-.4,0-.4Z"/>
    <path class="cls-21" d="M32.4,23.7s-.7-.6-1.2-.8-.4-.5-.4-.5c0,0,.2.3.6.5s1,.8,1,.8Z"/>
    <path class="cls-18" d="M44.3,23.7c0,.7-.2,1.4-.4,1.8-.5,1.2-2.5,2.6-4.6,2.7-2.1,0-2.7,0-4.4,1.4-1.7,1.3-3.9.4-4,.3,0,0-.2-.5-.2-1s-.2-.4-.4-.5l.4-.6s.5.2,1,0c.5-.3,1.2,0,1.4.5.2.7,1,.7,1.6.4s1-1.5,1.5-1.7c0,0-.3.7,0,1.1.4.4,1.1,0,1.5,0s1.5-.6,1.8-1.2c.3-.7.4-1.8-.2-2.2-.6-.4-.3-.2.5-1.1.9-.9,2-1.8,2.5-1.6.5.3-.2,3.1-.2,3.1,0,0-.3.8.2.8s1.8-1.6,1.9-2h0v-.2Z"/>
    <path class="cls-11" d="M37.7,25.3s-.3-.6.3-.7,1.4.3,1.4.7-.2.4-.3.9-.2,1.1-.9,1.2.2,0,.6-.6,0-1.2-.4-1.5,0,.4,0,.8,0,.9-.3.8-.5-.3-.9,0-.9,0-.5-.4.5,0,.5-.6.5,0,.5-.6Z"/>
    <path class="cls-4" d="M29.5,26.6s.6.4.9.8.2.2.2.6,0,.4-.2.6-.4,0-.4-.4,0-.5-.2-.7-.5-.5-.4-.8c0,0,0,0,.2,0h0Z"/>
    <path class="cls-15" d="M26.2,29.9s.8.7,2.1.8,5.2-1.4,5.2-1.4h4.3v.7l-3.4,3.5s-1.4,1-4.1,1-3.8-2-4.3-3,.2-1.7.2-1.7h0Z"/>
    <path class="cls-18" d="M39.2,29s-2,2.5-3.3,3.9l-.5.5c-1.2,1.1-1.3.9-2.9,1.1-1.3.2-2.7.4-4.2.4h-1.1c-2,0-2.4-1.1-3.5-2.5s-1.1-3.2-1.5-3.8c-.5-.6-.2-1.1.2-1.5.5-.3,2.3.2,3.1.7s.8,1.9.8,1.9c.8.6.4,2.3,1.8,3.3.8.5,1.8.9,2.8,1,.8,0,1.6,0,2.1,0,.4,0,1.1-.6,1.7-1.1,1.3-1,2.5-2.3,1.9-2.7-.9-.6-3.5-.7-3.5.4s2.5,1.8.9,1.7c-1.6,0-2.5-1.6-4-1.5-1.4,0-3.1-.4-1.8-.3,1.3,0,2.1-.9,4.7-1.8,2.7-.9,6.3,0,6.3,0v.3Z"/>
    <path class="cls-6" d="M38.7,37.4c-1.6,2-6,5.7-8.3,7.7,1-.9,3.6-3.3,4.2-4.1.6-.8,3.1-4.1,4.5-5.6,1-1.1,1.1-2.1.9-2.8,0,1.1-2.1,3.1-3.7,4.5-1.6,1.4-2.9,4-3.4,3.7s-.2-1.1,1.2-2.7c1.4-1.5,1.1-2.1,1.5-3.7.3-1.6,2-4.4,2.1-4.6h0c.5-.6,1.2-.7,1.7-.8h.5s.2,1.5.8,3h0c.6,1.5,0,2.8-2,5.5h0Z"/>
    <path class="cls-25" d="M45.1,26.1c-.5.8-1.1,1.3-.4,2.1.8.8,0,1.3.2,2,0,.3,0,1.2-.3,2.2-.3,1.4-.8,3.1-1.4,4-1,1.7-2,3.4-3.1,7.4s-5.3,10.1-6.7,11.3c-1.2,1.1-1.8,2.1-1.9,2.3h0c-2.2,1.5-3.2-.5-3.2-.5l.6-2.2.7-6s9.8-12.5,10.8-13.6c.5-.5.4-1.5,0-2.7-.3-1.3-.7-2.7-.8-3.7,0-1.9,1.4-4.2,1.7-5.3.3-1.2.6-1.8,1.1-1.7.4,0,.4.5.4,1.1s-.6,2-.7,2.7c0,.7,0,1.5,0,1.3s0-.8.3-1,1-.7,1.2-1,.5-1.1.6-1.2c0,0,.7.7.9.9.2.2.5.7,0,1.5h0Z"/>
    <path class="cls-20" d="M42.6,31.9v.6c-.4,2.1-2.5,6-4.6,9.3-2.4,3.6-7.1,7.4-6.3,10.2.8,2.7,0,4.3-1.1,4.4-1.1,0-2.3.8-1.3,1.2-1.4,0-2.4-2.3-5.2-5-2.8-2.8-7.9-8-10.5-11.6s-2.8-7.6-2.8-7.6c2.4-1.4,7.5-1.4,7.5-1.4l.9,3.3s.7,1.6,2.2,3.2c1.5,1.6,3.7,4.8,4.9,6.2s1.8,2.6,1.8,2.6c0-.2.3-.5.6-.8l.3-.3h0s0,0,.2-.2c.4-.3.8-.6,1.1-.9h0c1-.9,3.6-3.3,4.2-4.1.6-.8,3.1-4.1,4.5-5.6.9-1,1.1-2,.9-2.7v-.2h0c0-.3-.2-.5-.3-.7-.4-.6-.4-1.6-.3-2.7h0v-.8c.2-1.4.8-2.2,1-2.9.3-.7.4-1.5.9-2.7s1.3-.7,1.3-.7c-.5.3-.4,1.5-.8,2.2-.4.7,0,2.8-.8,2.7-.7,0-.6,1-.8,2.6s.8,2.3,1,2.1.8-.8.6-1.5,0-1.9.3-1c.2,1,.6,1.1.6,2.9h0Z"/>
    <path class="cls-13" d="M19.1,35.3s1.8-1.9,1-5.2-7.1-6.5-10.8-5.2-2.5,1.1-1,2.8.5,3.6,1.5,4.3,1,1.4,1,1.4c0,0,3.1-.7,5.1,0s3.3,1.9,3.3,1.9h-.1Z"/>
    <path class="cls-3" d="M24.1,3.3c-.2,0-2.4-.5-4.7-1.4s-6-.4-8.1,1.9-2.1,3.4-3.7,4.6-2.1,1.3-2.1,2.6c0,0,.2-1.3,1.4-1.2s-2.1,1-2.1,2.4.7,1.8.7,1.8c0,0-.8-1.3,0-2.1s1.2.2.3.8-1.9,1-1.8,2.4,1.2,2,1.2,2c0,0-1.1-2-.4-2.5s2.9,1,1,2.9-4.4,2.1-4.4,4.6c0,0,.2-1.8,1.9-2.3,1.7-.5,0,2.6.1,4.2.1,1.6,2,2.4,2,2.4,0,0-2.6-1.8-1.5-3.4s2,.4,1.5,1.5-3,2.5-2.8,3.9,1.2,2.3-.4,3.5c0,0,1.8-.5,1.3-2.6s3.3-3.9,5.1-3.8,5.8,2.4,8,.6.8-5.1,0-6.2.9-3.1,1-4.1.8-2,2.3-2.4,4.3-10.3,4.3-10.3v.2Z"/>
    <path class="cls-8" d="M27.4,5.2c0,.3,0,2.6-1.4,3.9s-2.9,5.2-6.1,5.3-7-.9-8.4.9-.7-.4.6-1.5,5-1,6.5-5.7,7-6.6,8.7-3h0Z"/>
    <path class="cls-12" d="M39,35.3c-1.3,1.6-3.9,4.8-4.5,5.6s-3.2,3.2-4.2,4.1h0c-.5.4-.9.8-1.2,1l-.2.2h0s0-1.3.7-2.4c.8-1,1.6-3,1.7-4.7,0-1.7,1-2.6,1.8-3.3s3.2-4.6,4.2-5.9c0,0,.2-.2.2-.3,0,.2-1.8,3.1-2.1,4.6-.4,1.6,0,2.2-1.5,3.7-1.4,1.5-1.7,2.4-1.2,2.7s1.8-2.3,3.4-3.7c1.6-1.4,3.6-3.4,3.7-4.5.2.7,0,1.7-.9,2.8h0Z"/>
    <path class="cls-12" d="M45.1,48.3c-.5,4.9-4.5,12.2-4.5,12.2h-12s-1.5-1.6-1.9-3.2c1.1.8,2,1.3,2.7,1.3,0,0,1.6.5,2.2-1h0c0-.2.7-1.3,1.9-2.3,1.4-1.2,5.5-7.3,6.7-11.3,1.1-4,2.1-5.7,3.1-7.4.6-1,1.1-2.7,1.4-4,0,0,.8,10.9.4,15.8h0Z"/>
    <g>
      <circle class="cls-17" cx="38.8" cy="21" r="2.3"/>
      <circle class="cls-14" cx="38.8" cy="21" r="1.7"/>
      <circle class="cls-19" cx="38.8" cy="21" r="1"/>
    </g>
    <path class="cls-22" d="M31.5,57.5h0c-.7,1.4-2.2,1-2.2,1-.6,0-1.6-.5-2.7-1.3-4.7-3.3-12.6-12-14.9-14.2-2.8-2.7-4-4.7-3.4-6.9.7-2.2,2.5-2.7,2.5-2.7,0,0,.2,4,2.8,7.6,2.6,3.6,7.7,8.8,10.5,11.6s3.8,4.9,5.2,5c1,.4,2.9-1.4,2.3,0h0Z"/>
    <path class="cls-1" d="M24.9,21.2s.3.5-.3.7-2.3-1.1-3-.9-.3-.3-.3-.3c0,0,1.4-.4,2.1-.3s1.5.7,1.5.7h0Z"/>
    <path class="cls-7" d="M25.3,20.4s-.4.1-.6-.1-2.6,0-3.3.4.9,0,1.4,0,1.2.5,1.6.4.4,0,.6,0c.3-.1.2-.7.2-.7h0Z"/>
    <path class="cls-23" d="M26,13s.2-.5,0-1,.2-.1.2.1,0,1-.3,1.2,0,0,0-.3h0Z"/>
  </g>
</svg>