<?xml version="1.0" encoding="UTF-8"?>
<svg id="Livello_1" data-name="Livello 1" xmlns="http://www.w3.org/2000/svg" version="1.1" viewBox="0 0 56.7 36.4">
  <defs>
    <style>
      .cls-1 {
        fill: #83b7da;
      }

      .cls-1, .cls-2, .cls-3, .cls-4, .cls-5, .cls-6, .cls-7, .cls-8, .cls-9 {
        stroke-width: 0px;
      }

      .cls-2 {
        fill: #d99998;
      }

      .cls-3 {
        fill: #78a8c8;
      }

      .cls-4 {
        fill: #c98c8c;
      }

      .cls-5 {
        fill: #b37c7c;
      }

      .cls-6 {
        fill: #5c7a8c;
      }

      .cls-7 {
        fill: #d99898;
      }

      .cls-8 {
        fill: #fff;
      }

      .cls-9 {
        fill: #ca8d8d;
      }
    </style>
  </defs>
  <g id="ic_pneumonia" data-name="ic pneumonia">
    <path class="cls-8" d="M19,0s-.4,2.2-.4,4.6.1,3.8.3,4.7c.3,2,.1,2.2-.5,2.8,0,0,.7,1.4.5,2,0,0,.5-.4.7-.5s.4-.5,1.1-.1l.7.4s0-.7.4-1.8c0,0-1.4-.5-1.3-4.9V.3h-.8c-.4,0-.7-.1-.7-.1h.1Z"/>
    <g>
      <path class="cls-7" d="M4.7,35.6c-2,0-2.4-1.3-2.4-1.3h0s-1.3-2-1.8-7.6C0,21,2.9,13.7,3.1,13.4c.3-.5,5-12.5,9.5-12s1.6.3,2.2.9c2.4,2.4,2.2,8.5,2.2,8.8,2.1,6.6,2.2,11.7.7,15.2,0,.9-.1,5.4-1.4,6.4-1.2.7-3.7,1.4-5.8,1.4s-.9,0-1.3-.1c-1.4.8-2.2,1.2-3.3,1.4h-1.2Z"/>
      <path class="cls-8" d="M12.5,1.8c4.3,0,4.1,9.5,4.1,9.5,2.4,7.8,2,12.5.7,15.2,0,.3,0,5.3-1.3,6.2-1.2.7-3.7,1.3-5.6,1.3s-1.1,0-1.4-.1c-1.4.8-2.4,1.2-3.3,1.4h-1.1c-1.8,0-2.1-1.2-2.1-1.2,0,0-1.3-1.8-1.8-7.5C0,21,3.2,13.5,3.2,13.5c0,0,5-11.7,9.2-11.7M12.5,1.2C7.9,1.2,3.2,12.1,2.7,13.3c0,.3-3.2,7.8-2.6,13.4.5,5.1,1.6,7.4,2,7.8.1.4.8,1.4,2.8,1.4s.8,0,1.1,0c1.1-.3,1.8-.7,3.3-1.3h1.3c2,0,4.6-.7,5.9-1.4h0c1.3-1.1,1.6-5.3,1.6-6.6,1.6-3.5,1.4-8.7-.7-15.4,0-.9,0-6.6-2.4-8.9-.7-.7-1.4-1.1-2.4-1.1h0Z"/>
    </g>
    <path class="cls-4" d="M16.6,11.3s.1-2.5-.5-5.1c-.5-2.2-1.4-3.4-2-3.8-1.2-.8-.8,2-.8,2,0,0,.5,4.6,3.4,7h-.1Z"/>
    <g>
      <path class="cls-7" d="M10.6,34.2h-1.4l.4-.3c4.6-2.6,6.3-4.7,7.2-5.6.5-.7.5-.8.5-.8l.3-.8v.8c.3.8,0,2.9-.5,4.2-.4,1.4-.7,1.4-3,2.1h-.3c-1.3.4-2.4.5-3,.5h-.1Z"/>
      <path class="cls-8" d="M17.3,27.2c0,.8-.1,2.8-.7,4.2-.5,1.4-.5,1.3-3.2,2.1s-2.4.5-3,.5h-1.1c4.3-2.5,6.2-4.5,7.2-5.6.5-.7.7-.9.7-.9M17.4,25.4l-.4,1.8s0,.3-.5.8c-.8.9-2.6,3-7.1,5.6l-.8.4h.8c0,.1.4.3,1.2.3s1.7,0,3.2-.5h.3c2.4-.8,2.6-.8,3.2-2.4.4-1.4.8-3.4.7-4.3l-.3-1.8h-.1Z"/>
    </g>
    <g>
      <g>
        <path class="cls-7" d="M35.3,36h-1.1c-.9-.3-1.8-.7-3.3-1.4-.4,0-.8.1-1.3.1-2.1,0-4.6-.7-5.8-1.3-1.3-1.1-1.6-5.4-1.4-6.4-1.6-3.5-1.3-8.7.7-15.4,0-.1-.1-6.3,2.2-8.7.7-.7,1.3-.9,2.2-.9,4.5,0,9.3,11.4,9.5,12,.1.3,3.2,7.6,2.6,13.3-.5,5.6-1.8,7.6-1.8,7.6h0s-.4,1.3-2.4,1.3h-.1Z"/>
        <path class="cls-8" d="M27.4,2.2c4.3,0,9.2,11.7,9.2,11.7,0,0,3.2,7.5,2.6,13.1s-1.8,7.5-1.8,7.5c0,0-.3,1.2-2.1,1.2s-.7,0-1.1,0c-.9-.3-1.8-.7-3.3-1.4-.4,0-.9.1-1.4.1-2,0-4.5-.7-5.6-1.3-1.2-.9-1.4-5.8-1.3-6.2-1.3-2.8-1.7-7.4.7-15.2,0,0-.3-9.5,4.1-9.5M27.4,1.6c-.9,0-1.7.4-2.4,1.1-2.2,2.4-2.4,8-2.4,8.9-2.1,6.7-2.2,11.8-.7,15.4,0,1.3.3,5.5,1.6,6.6h0c1.3.8,4.1,1.4,5.9,1.4s.9,0,1.3,0c1.3.8,2.2,1.2,3.3,1.3h1.2c2,0,2.5-1.2,2.8-1.4.3-.4,1.4-2.5,2-7.8.5-5.8-2.5-13.1-2.6-13.4-.5-1.2-5.3-12.1-9.9-12.1h-.1Z"/>
      </g>
      <g>
        <path class="cls-7" d="M30.1,34.7c-.7,0-2.1,0-3.8-.5h-.3c-2.4-.8-2.5-.8-3-2.2-.4-1.3-1.1-4.1-.9-5,0,0,0-.1.1-.1h.1s.5.9,1.1,1.6c1.1,1.2,2.9,3.4,7.2,5.9h0c0,.3,0,.1-.1.3h-.7.3Z"/>
        <path class="cls-8" d="M22.3,26.9s.5.9,1.2,1.6c1.1,1.2,2.9,3.4,7.4,5.9h-.7c-.8,0-2.1,0-3.8-.5-2.6-.8-2.8-.8-3.2-2.1s-1.1-4.1-.9-4.9M22.3,26.7h0c-.1,0-.3.1-.3.3,0,.9.4,3.7.9,5,.5,1.4.8,1.6,3.2,2.2h.3c1.7.5,3,.7,3.9.7s.7,0,.7,0c.1,0,.3,0,.3-.3s0-.3-.1-.4c-4.3-2.5-6.2-4.7-7.2-5.9-.5-.7-1.1-1.4-1.1-1.6,0,0-.1-.1-.3-.1h-.3Z"/>
      </g>
    </g>
    <path class="cls-4" d="M23.3,11.6s-.1-2.5.5-5.1c.5-2.2,1.4-3.4,2-3.8,1.2-.8.8,2,.8,2,0,0-.5,4.6-3.4,7h.1Z"/>
    <path class="cls-4" d="M12.1,31.7c1.7-1.2,3.2-2.5,4.1-3.4,1.3-1.4,2.4-4.1,2.2-8.4,0-2.4-15.4-5.4-15.8-4.1-.5,1.7-1.3,4.2-1.7,6.8,0,0,1.8,3.4,4.9,5.8,3.8,3,6.3,3.3,6.3,3.3h0Z"/>
    <path class="cls-5" d="M.8,22.6c-.1,1.3-.3,2.8-.1,4.1.5,5.6,1.8,7.5,1.8,7.5,0,0,.4,1.6,3.2,1.1,1.6-.3,4.1-1.8,6.4-3.5,0,0-3-.7-6.3-3.3S1,22.6,1,22.6h-.1Z"/>
  </g>
  <g id="heart">
    <path class="cls-8" d="M35.7,26.3s-3.6-3-3.3-4.9c.3-1.9.5-2.4-1-3.7s-1.1-2.4-.3-3.5c.6-.7.7-2.5,1.9-1.4,1,.8,1.5,1.2,1.3.4s-1.3-1.8.8-2.6c2.2-.9,2.3-1,2.9.5.6,1.4,1.4,1.5,1.3.4-.1-1.4-1.1-2.1.6-2.7,1.7-.5,3.4-.6,2.7,1.9-.7,2.5.5,1,.5,1,0,0,1.3-1.8,2.2-.5.4.6,0,1.2,1.8,1.5.4,0,1,.3,1.5-.5s1.6-.7,2.7-.2c1.1.6,1.2,1.3,1.8,1.6.5.3.9,0,1.9.8,1,1,1.2,2.3-.1,3.1-1.4,1.1-1.6,1.3-1.6,1.3,0,0,.3.9.5,1.4s.6.7,1.6,2.1,1.3,3.6,1.3,4.9c0,1.9-1.6,8.8-5.5,9.2-3.3.3-5.1.3-7.6-1.1-4-2.3-7-5.8-8-8.9h0Z"/>
    <path class="cls-6" d="M50,16.4c.7-1,1.7-2.2,2-2.6,0,0,.1-.2.1-.3,0-1-1.5-1.5-2.3-1.3-.7.1-1.8,2.2-2.4,3.8,0,0,1,0,1.6.2s1,.2,1,.2h0Z"/>
    <path class="cls-6" d="M52.8,18.4c1-.8,2.1-1.8,2.5-2.1,0,0,.1-.2,0-.3-.3-1.6-1.4-1.7-1.8-1.7-.1,0-.2,0-.3.1-1.2.7-1.9,1.5-2.3,2.2,0,0,.7.4,1.1.8s.8,1,.8,1h0Z"/>
    <path class="cls-1" d="M35.2,24.7s-2.4-2.2-2.1-3.5c.3-1.3.8-1.8-1.8-4.5,0,0-.8-.8-.2-1.6s.6-1.4.9-1.7c.3-.3.7.7,2.1,1.4,1.4.7,1.7,0,1-1.8,0,0-1.2-1.4-.2-1.8,1-.4,1.8-1.4,2.5,0,.7,1.5,2.3,2.5,2.6.8.4-1.6-.8-2.6-.1-2.9.7-.3,2.9-.9,2,1.1-.6,1.4,0,2.6.2,3.1,0,.1,0,.2,0,.3-1.9,1.2-2.5,2.2-2.6,2.9,0,.2-.2.9-.6,1.5-.4.5-.7.8-1.1,1-.3.2-1.8,1.5-2.4,3.2-.1.5-.3,1.2,0,2.3h0Z"/>
    <path class="cls-2" d="M45.4,16.1c-.3,0-.5,0-.8,0h0c-.2-.6,2.1-2.3,2.1-2.3.9-.8-1.2-.6-1.5-.9s-.3-1.2-.8-1-1.1,1.8-2.5,2.8c-1.4,1-2,2.4-2,2.4-.2,1.5-1.5,2.7-1.8,2.8-.3.2-1,.8-1.9,2.5s.5,4,.5,4c2.2,5.8,8.6,9.7,12.1,9,1.7-.3,5.4-4.6,6.6-6.1.1-.4.1-.5.1-.5.4-1.5,0-4.6-.9-6s-1.3-1.5-1.5-2.1c-1.7-5-4.7-3.8-7.8-4.6h0Z"/>
    <path class="cls-9" d="M55.6,28.8s-1.3,4.9-2.9,6.1c-1.4,1.1-4.4.8-6,.7-2.5-.4-5.1-2.4-6.9-4.4-1.8-2-2.4-3-3.1-4.8,0,0-1.8-3.6.1-3.8s3.2,2.7,4.4,3.6c1,1.3,2.5,2.4,4.9,2.3,2.4-.1,3.5-1.1,5.9-.9,1.6,0,3.6,1.3,3.6,1.3h0Z"/>
    <path class="cls-3" d="M39.2,16.6c0,.2-.2.9-.6,1.5-.4.5-.7.8-1.1,1-.3.2-1.8,1.5-2.4,3.2-.1.5-.3,1.2,0,2.3,0,0-2.4-2.2-2.1-3.5.3-1.3,1.1-2.1,2.9-2.8.8-.3,1.4-.9,1.8-1.6s1.6-.9,1.4-.2h0Z"/>
  </g>
</svg>