<?xml version="1.0" encoding="UTF-8"?>
<svg id="Livello_1" data-name="Livello 1" xmlns="http://www.w3.org/2000/svg" version="1.1" viewBox="0 0 67.4 57.6">
  <defs>
    <style>
      .cls-1 {
        fill: #352c2c;
      }

      .cls-1, .cls-2, .cls-3, .cls-4, .cls-5, .cls-6, .cls-7, .cls-8, .cls-9, .cls-10, .cls-11, .cls-12, .cls-13, .cls-14, .cls-15, .cls-16, .cls-17, .cls-18, .cls-19, .cls-20, .cls-21, .cls-22, .cls-23, .cls-24, .cls-25, .cls-26, .cls-27, .cls-28, .cls-29, .cls-30, .cls-31, .cls-32, .cls-33, .cls-34 {
        stroke-width: 0px;
      }

      .cls-2 {
        fill: #c19f9f;
      }

      .cls-3 {
        fill: #546086;
      }

      .cls-4 {
        fill: none;
      }

      .cls-5 {
        fill: #ff903e;
      }

      .cls-6 {
        fill: #f99;
      }

      .cls-7 {
        fill: #7d8ab6;
      }

      .cls-8 {
        fill: #f2d3d3;
      }

      .cls-9 {
        fill: #8886f7;
      }

      .cls-10 {
        fill: #c76c6c;
      }

      .cls-11 {
        fill: #f2cfcd;
      }

      .cls-12 {
        fill: #725c3d;
      }

      .cls-13 {
        fill: #ebb868;
      }

      .cls-14 {
        fill: #d3acab;
      }

      .cls-15 {
        fill: #8583f2;
      }

      .cls-16 {
        fill: #e2b5b5;
      }

      .cls-17 {
        fill: #635239;
      }

      .cls-18 {
        fill: #000;
      }

      .cls-19 {
        fill: #ff6161;
      }

      .cls-20 {
        fill: #ea7432;
      }

      .cls-21 {
        fill: #a5562f;
      }

      .cls-22 {
        fill: #878787;
      }

      .cls-23 {
        fill: #a5a3ff;
      }

      .cls-24 {
        fill: #ba6435;
      }

      .cls-25 {
        fill: #ca4e00;
      }

      .cls-26 {
        fill: #a1755a;
      }

      .cls-27 {
        fill: #b7bcd2;
      }

      .cls-28 {
        fill: #82735a;
      }

      .cls-35 {
        isolation: isolate;
      }

      .cls-29 {
        fill: #9b481f;
      }

      .cls-36 {
        opacity: .3;
      }

      .cls-36, .cls-37 {
        mix-blend-mode: multiply;
      }

      .cls-30 {
        fill: #fff;
      }

      .cls-37 {
        opacity: .2;
      }

      .cls-31 {
        fill: #d38d8c;
      }

      .cls-32 {
        fill: #3e4d64;
      }

      .cls-33 {
        fill: #ffcc54;
      }

      .cls-34 {
        fill: #ffe675;
      }
    </style>
  </defs>
  <g class="cls-35">
    <g id="Livello_1-2" data-name="Livello 1">
      <path class="cls-30" d="M2.3,57.6c-.8,0-1.5-.4-1.9-1.1-.5-.8-.5-1.9,0-2.7,0-.2.3-.4.4-.6,0-.4,0-.9.2-1.3,0-.4,0-.9.3-1.4h0v-.2h0c0-1,.3-1.5.7-1.7v-.6h.7c.3-.3.7-.5,1.4-.5s1,0,1.5-.2l1.8-1.1v-.6c0-.4.4-1.1,1.4-1.5.1,0,.2,0,.4-.3.3-.3.7-.6,1.3-.9.1,0,.2-.2.3-.3,1.1-1,2-1,2.5-1,.2,0,.3-.2.5-.3l-.4-.5c-.1-.2-3.3-4.7-.8-8.1.5-.8,1-1.5,1.4-2.2,1-1.7,1.9-3.1,3.6-3.9.5-.2,1.4-1.4,2.1-2.4,1.2-1.7,2.4-3.4,4.1-4.1,2.2-1,4.7-3.3,5.7-4.6,1.5-1.9,4.2-2.4,4.5-2.4h0c0-.3.2-.5.3-.8.3-.6.5-1.2.8-1.8.3-.9.7-1.7,1.3-2.9,1.5-2.6,4-3.5,5.4-3.8.4,0,.9-.1,1.4-.1,1.9,0,4.5.6,5.6,1.8.2.2,1.1.6,1.6.9,1.1.5,2.2,1,2.7,1.8.8,1.1.9,2.2,1,2.4h0c0,.1.2.3.3.4,1.3,1.7.8,5.4.2,6.3-.3.5-1,1.1-2.1,1.7l-.3-.5v.4h-.8c-.2.2-.3.4-.3.5,0,.2-.3.4-.4.5h0v.2l-.7.4c-.3.4-.8.7-1.5.8,0,.2-.2.4-.2.5-.2.6-.6,1-1.1,1.2-.2.4-.5.6-.8.7-.2.2-.4.3-.6.4-.2.3-.4.5-.8.6-.3,0-.5.2-.8.2-.2,0-.5.3-.9.4v.2h3.4l.5,2.3c.6-.6,1.4-.9,2.2-.9s1.2.2,1.6.5c.5-.3,1.1-.5,1.7-.5s1.1.2,1.6.4h0c.5-.3,1-.4,1.6-.4s1.2.2,1.6.5c.5-.3,1.1-.5,1.7-.5s1.3.2,1.8.6h0l.3.4c.2,0,.3.3.4.6l.6-2.9h4.7l-3.3,21h-6.1l.6-2.5h-3c-.2,0-.4,0-.6,0h-.5c-.2,0-.4,0-.6,0h-1.5c0,.3,0,1.2-1.1,1.5l.2,1h-6.1l-.2-1c-.5-.2-.9-.5-1.4-1h0c-.4,0-.8-.2-1.1-.5,0,0-.3.2-.4.3-1.5,1.3-3.6,3-5.6,3.6-.4.2-1.8.8-3.3.8s-.8,0-1.2-.2c-.6-.2-1.1-.5-1.6-.9h-1.3c-.5,0-1.1,0-1.5,0-.7,0-1.4-.2-1.9-.3-.1,0-.3.2-.4.3-.6.4-1.2.8-1.8,1.1-1.2.7-2.1,1.3-2.4,1.9-.7,1.7-2.7,2.6-3.5,2.6h-1.1v-.4c-.3,0-.4-.2-.6-.4-.4-.4-.6-1-.6-1.6-1.6.9-4,2.3-7.4,4.1h-.2c-.9.6-2.1,1-2.5,1.1-2.3,1.5-3,1.6-3.3,1.6h0,.5ZM60.1,38.9v-.4h-.9l.2.4h.7ZM50.8,38.9l.2-.4h-.9v.4h.7ZM57,37.5s0-.2,0-.3c0,0,0,.2,0,.3,0,0,.2,0,.2,0ZM57,33.7c.2-.6.8-1.1,1.5-1.1,0,0-.2,0-.3-.2-.5.3-1.1.5-1.6.5s-.2,0-.3,0c.3.2.5.5.6.8h0ZM61.2,32.6h.2v-.2s0,0-.2,0h0ZM51.9,32.6c0,0-.2,0-.3-.2,0,0-.2,0-.3.2h.6ZM55.2,32.6s-.2,0-.3-.2c0,0-.2,0-.3.2h.6Z"/>
      <g>
        <g>
          <path class="cls-21" d="M34.6,14.2s1.1.8,1.6,1.6-.5.9-.5.9c0,0-1.6-2.1-1.1-2.5Z"/>
          <path class="cls-14" d="M44.6,42.4s1,1.7,1.6,1.7h4.4c1.3,0,.5-.6,0-.6s-2.6-.4-2.6-.4l-1.9-2.6-1.6,1.8h0Z"/>
          <path class="cls-29" d="M40.4,35c0,0,3.3,7.5,3.6,7.9s2.9-2.1,3.3-2.3-1.2-2.4-3.5-6.6-4.1-.4-3.5,1h.1Z"/>
          <path class="cls-2" d="M32.4,46s-2.5.4-4.1.2-3.1-.4-3.1-.4l4-3.5,1.9-.3,1.3,4.1h0Z"/>
          <path class="cls-3" d="M31.1,41.9s-.9,0-.4-2,2.3-3.9,4.9-4.1,6.9,1.6,6.9,1.6l-.2,1.4-10.8,4-.4-1h0Z"/>
          <path class="cls-11" d="M14.1,47.1h.3c-1,.6-2.2,1.3-3,1.9-1.3,1-2.1,2.8-2.3,1.5s-2.7-2.1-2.9-2.1h0l1.9-1.1h0c.2,0,1.6-.5,2.8-.6.7,0,2,.2,3.1.5h.1Z"/>
          <path class="cls-11" d="M15.7,46.5s-.2,0-.4.2h-.2c-2.3-.9-5.6,0-5.6,0,2.2-1.4,5.1-.5,5.9,0,.2,0,.3,0,.3,0h0Z"/>
          <path class="cls-16" d="M16.1,48c.3.5-.4,1.3-.5,1.4h0c-2.4,1.5-7.2,4-8,4.4-1,.5-2.5.9-2.5.9,0,0-2.1,1.4-2.8,1.5-.6,0-1.2-.9-.7-1.8s.8-.9.8-.9c0,0-.4-.7,0-1.2s0-.7.3-1.5,0-1.2.5-1.4.4-.8,1.1-.8,2-.2,2-.2h0c.1,0,2.2.5,2.8.9.4.3,3.1-1.1,5-2.2h.3c.8.2,1.5.5,1.7.7v.2Z"/>
          <path class="cls-16" d="M17.1,48.2c-.3-.6-.8-1.1-1.8-1.5h-.2c.1,0,.3-.2.4-.2.4-.2.6-.4.6-.4,0,0,1.7,1.2,1,2.3v-.2Z"/>
          <path class="cls-32" d="M29.4,42.7s1.8-1.1,2.1-2.1.4-3,2.2-3.9,3.4-.6,3.4-.6c0,0-2.7.2-3.8,2s0,1.8,1.2.7,3.8-2.1,6.3-1.5-3.1-.5-5.3,1.4-4,2.8-4,2.8c0,0,1.6,1.3,1.8,2.8s.4,2.7,2.7,2.3,5.3-3.2,6.8-4.4,1.3-3.2,1.2-4.5-2.1-1.6-4.2-1.9-5.3-.8-5.3-.8c0,0-9.9-1.2-12.4-.4s7.4,8,7.4,8h-.1Z"/>
          <path class="cls-7" d="M27.8,34.9c-3.1-.6-5.8.3-3.9,0h1.4c1.3.2,2,.7.5.5-1.9-.3-2.9.7-3.5,1.6-.7.9-1.3,1.2-3.2,2-.9.4-1.7,1-2.1,1.5-.4.4-.7.8-.7.9h0l-1.2-1.8c-.7-1.8,2-6.2,5.5-6.5s10.4,2.3,7.2,1.7Z"/>
          <path class="cls-3" d="M30.4,41.5c-.7,1-3.1,3.3-5.4,4.9-2.3,1.5-4.1,2.2-4.7,3.7-.6,1.5-3.1,2-2,1.5,1.1-.6.6-2.4.7-3.9s-.5-2.3-1.5-2.9c-.9-.6-2.7-.2-4.1-.6-1.4-.4-2.9.6-2.9.6l1.5-1.5c1-1,1.7-.4,2.1-.7s1.9-1.1,1.9-1.1h0s.4-.4.7-.9c.5-.5,1.2-1.1,2.1-1.5,1.9-.8,2.5-1.1,3.2-2s1.6-1.8,3.5-1.6c1.4.2.7-.3-.5-.5,3.4.3,5.7,3.7,4.3,2.7-1.4-1-4.3-.7-1.8,0s3.3,2.7,2.6,3.7h.3Z"/>
          <path class="cls-27" d="M18.3,51.6s-1.2.6-1-.9c0-.6.1-1.3,0-1.9,0-.2,0-.4-.2-.6-.3-.6-.8-1.1-1.8-1.5h-.2c-2.3-.9-5.6,0-5.6,0h-.2c-.3-.3-.7-.9.2-1.2,1.1-.4,1.1-1.5,3.3-1.5s5.6-.4,6.8,1.9.9,4.8-1.3,5.9h0Z"/>
          <path class="cls-8" d="M1.9,54.8s-.2.3,0,.8.5.3.8.2.5-.2.4-.7-.4-.5-.6-.5-.6.2-.6.2Z"/>
          <path class="cls-8" d="M2.4,52.6s0,.3,0,.5.3,0,.4,0,0-.2,0-.4-.4-.2-.5,0h0Z"/>
          <path class="cls-8" d="M2.8,51.1s0,.2,0,.4.2,0,.3.2,0-.2,0-.4-.3-.3-.3-.2Z"/>
          <path class="cls-8" d="M3.2,49.7s0,.2,0,.4.2,0,.3.2,0-.2,0-.4-.3-.3-.3-.2Z"/>
          <path class="cls-2" d="M2.5,53.5s1.6-.4,2.3-.6-1.5.4-2.3.6Z"/>
          <path class="cls-2" d="M2.4,52.3s.7-.3,1.2-.4-.6,0-.8,0-.2,0-.2,0c0,0,0,.4,0,.5h0Z"/>
          <path class="cls-2" d="M2.7,50.7s.7-.2,1.2-.3-.7,0-.8,0-.3,0-.3,0c0,0,0,.3,0,.4Z"/>
          <path class="cls-2" d="M3.4,49.3s.9-.2,1.2-.2-.7,0-.9,0,0,0-.3.2Z"/>
          <path class="cls-16" d="M15,46.6c-.3.2-.6.3-.9.5-1.1-.3-2.4-.5-3.1-.5-1.3,0-2.7.5-2.8.6l1.3-.8s3.2-.8,5.6,0h-.1Z"/>
          <path class="cls-2" d="M17.1,48.2c0,0-.2.3-.4.4-.3.2-.6.4-1.1.7,0,0,.8-.8.5-1.4-.1-.2-.8-.5-1.7-.7h-.3c.3-.2.7-.4.9-.5h.2c1,.5,1.5,1,1.8,1.5h.1Z"/>
          <path class="cls-7" d="M36.4,46.5s-2,1.1-3.6.6-1.5-2.3-2.2-3.5-1.1-1.2-.5-1.7,1.5-1.2,2.1-.4,1.7,2.5,2.5,3.4,1.7,1.6,1.7,1.6Z"/>
          <path class="cls-21" d="M39.7,21.7s2.1,2.2,2.5,2.9.4,2.4,0,2.9,1.6,1.8,1.9,2.7,1.1,4.7,1.5,6.2,2.8,3.7,2.8,3.7l-2.5,1.5s.3-.6.7-1-.7-.5-1.9-.9-.9-3.2-1.3-4.2-5.7-6.8-5.7-6.8l1.6-6.8.5-.2h0Z"/>
          <path class="cls-25" d="M42.8,29.3s.8.5.8,1.5-.2,3.3-.8,3.9-1.5,1.4-2.9.4-1.1-2.1-.9-3.7,2.3-2.8,3.8-2.2h0Z"/>
          <path class="cls-14" d="M37.4,13.2l-1.9,3s1.2,1.5,1.7,2.5.5,1,1,2.1,1.3,1.5,1.3,1.5l1.3-1.2-.5-7.3-2.8-.6h0Z"/>
          <path class="cls-11" d="M51.1,17.4c0,.2-.3.3-.4.5-.6.8-.7,1.3-1.6,1.5-.9.1-1.2.7-1.2.7,0,0-.4.8-.5,1.2-.2.4-.7.5-.7.5l-.2.4c-.2.4-.8,0-1.2.5s-.7.5-1.1.8c-.4.3-.8.9-2.3,0s-2.7-3.6-2.9-4.6.3-3,.3-3c-.5,0-.8-.2-1-.7h0v-.6c0-1,0-1.7.6-2.7.8-1,1.7-1.4,2.2-.9.5.4.2,1.4,0,1.8h0c-.5,1.4-.4,1.7,0,1.1s2.6-1.5,3.8-1.6c1.2-.2,2-.9,1.9,0-.2.9-1.9,1.5-1.9,1.5,0,0,1.6-.3,2.2-1.1.6-.8,2.2-1,1.8-.2s-1.7.6-1.7.6c1.2.2,2.4-.6,2.4-.6-.3.8-.2,1.6-.2,1.6,0-.9.6-1.5.7-1.6,0,0-.3.4-.4,1.5,0,1.4.3,2.2.4,2.3v-1c0-.8.6-1.2.5.4,0,.7.2,1.4.4,1.8h0Z"/>
          <path class="cls-11" d="M51.2,17.2c0-.2,0-.4-.2-.5-.2-.6.3-2.4.5-1.4.2.9-.3,1.8-.4,2h.1Z"/>
          <path class="cls-26" d="M46.1,14.9s1,.4,1.6.8.9.9,1,1.3.5-.2.5-.5-1.4-1.6-2.2-1.6-1.5-.3-.8,0h0Z"/>
          <path class="cls-26" d="M49.7,19.1s0-.5-.3-.8.3-.5.5-.3.3.9-.2,1.1Z"/>
          <path class="cls-1" d="M45.5,16.2s.8,1.2,1.7,1.3,0,.3-.3.2-1.4-1.5-1.4-1.5Z"/>
          <path class="cls-1" d="M48.2,19.3s.6.4,1,.3-.5.2-.7.1-.3-.4-.3-.4Z"/>
          <path class="cls-14" d="M45.8,20.5s-.4-.1-.4-.7.4-.6.4-.6c0,0-.5.7,0,1.2h0Z"/>
          <path class="cls-14" d="M40.3,12.9s.5-1,.2-1.4-1,.2-1.4.8-.6.3-.5,1.3,0,1.4.8,1.5.9-.8.5-1-.8-.4-.6-.7.7.3,1-.3v-.2Z"/>
          <path class="cls-26" d="M53.8,16.2c-.3.5-1.5,1.2-1.7,1.3,0,0,1-.6,1-1.3s-1.2.8-1.9,1h0c.8-.9,1.7-2.3.7-3.9-1.3-2.1-5-4.1-6.2-4.3-1.2-.3-4.7,3.8-4.7,3.8h0c0-.3.4-1.4,0-1.8-.5-.5-1.5,0-2.2.9-.8,1-.7,1.7-.6,2.7v.6c-.4-.3-.7-.6-.8-.9-.3-.6-.5,1.1-.2,1.4,0,0-.5,0-.4-.6,0-.6-.8,0-.7.4,0,0-.8-1.2,0-2.8.8-1.7,1.1-2.8,2.1-4.6,1-1.8,2.8-2.8,4.4-3.1,1.6-.4,4.7.3,5.6,1.3.9,1,3.6,1.5,4.2,2.5.6.9.7,1.7.7,1.8,0-.2-.5-1.4-1.1-1.5-.6-.2.8,1.4,1.6,2.6.9,1.2.5,4.1.2,4.7v-.2Z"/>
          <path class="cls-4" d="M39.2,15.8s-.5-.3-1-.7h0v-.6c0-1,0-1.7.6-2.7.8-1,1.7-1.4,2.2-.9.5.4,0,1.6,0,1.9.4-1.3-1.8,3.1-1.8,3.1h0Z"/>
          <path class="cls-4" d="M51.2,17.2h0s0,.1,0,.1c.2.5.5.7.5.8,0,0-.2-.5-.4-.9Z"/>
          <path class="cls-26" d="M51.9,13.3c-1.3-2.1-5-4.1-6.2-4.3-1.2-.3-4.7,3.8-4.7,3.8-.5,1.4-.4,1.7,0,1.1s2.6-1.5,3.8-1.6c1.2-.2,2-.9,1.9,0-.2.9-1.9,1.5-1.9,1.5,0,0,1.6-.3,2.2-1.1.6-.8,2.2-1,1.8-.2s-1.7.6-1.7.6c1.2.2,2.4-.6,2.4-.6-.3.8-.2,1.6-.2,1.6,0-.9.6-1.5.7-1.6,0,0-.3.4-.4,1.5,0,1.4.3,2.2.4,2.3v-1c0-.8.6-1.2.5.4,0,.7.2,1.4.4,1.8h0c.8-1,1.7-2.4.7-4v-.2ZM51.2,17.2c0-.2,0-.4-.2-.5-.2-.6.3-2.4.5-1.4.2.9-.3,1.8-.4,2h.1Z"/>
          <path class="cls-1" d="M43.5,21.2s0,.2,0,.5,1.3,1.2,1.3,1.2c0,0,.4-.4.4-.5s-.7-.8-1.1-1-.7-.4-.8-.3h0Z"/>
          <path class="cls-31" d="M43.7,21.1s1.6.5,1.8.5,0,.3.4.5,0,.5-.3.5-.5,0-.6-.5-2.1-1.2-1.2-1h-.1Z"/>
          <path class="cls-31" d="M43.5,21.4s.2.9.4,1.4.6.6,1,.4.2-.5-.2-.9-.6-.5-.8-.7-.6-.6-.4-.3h0Z"/>
          <path class="cls-24" d="M19,34.5s3.8-1.2,7.6,0,6.1,2.1,6.1,2.1c0,0,3-1.8,4.2-4.4s2.7-6.7,2.8-7.9-.3-1.9-.3-1.9c0,0-.8-1-1.9-2.8s-16.6,7.8-16.6,7.8c0,0-3.3.8-3.9,2.2s1.9,5,1.9,5h.1Z"/>
          <path class="cls-5" d="M34.6,14.2s.7,1.4,1.6,2.5,1.5,2.3,2,4.2-1.4,4-1.4,4c0,0,0-3.8-.8-5s-2.5-.2-3.5.8-5.1,3.6-4.6,6c.5,2.4,1,3.1,1.8,4s-4-2.9-7.8-2.8-4.3,1.5-4.3,1.8.7-1.5,3.5-1.5,6.8,1.9,6.8,1.9c0,0-2.6,0-3.6,1.2s1.7-.9,3.1-.8c1.4.1,1.6,1.7,1.7,2.4s-5.6.3-8.8,1.2-5.4,4-5.2,5.7c0,0-2.7-3.9-.8-6.5s2.6-4.8,4.5-5.6,3.7-5.4,6.1-6.5,5-3.5,6.2-5,3.6-1.9,3.6-1.9h0Z"/>
          <path class="cls-11" d="M50.4,28.8v1s-.7,0-1.2,1c-.2.4-.5.9-.9,1.4,0,0-2.4,1-4.7,1.1h-3.9c0,.5.2,1,.4,1.4h0s-.2-.2-.4-.5-.4-.9-.4-1.6c0-1.4.6-2.5.6-2.5h.6c1.3.2,4.4.5,4.9.6.7,0,1.6-.2,2.2-.8.7-.6,1.1-1.3,1.6-1.3s1.2,0,1.2,0h.1Z"/>
          <path class="cls-20" d="M42.5,34.9c0,0,.2,0,.2,0h0c-.3.5-1.1,1.4-2.1,1.1-1.3-.4-2.6-1.5-4.2-1.3-1.6.2-4.8-.2-5.2-1.2-.4-.9,1.1-2.7,1.3-2.9-.2.2-1.8,1.6-1.8,3.2,0,0-2.4-2.5-3.1-5-.7-2.5-1-3,1.2-5.2,2.2-2.2,4.2-3.9,5.1-4.5s2.5-.1,2.8,1.5c.3,1.6,0,4.4,0,4.4,0,0-.3,1.5-.3,2s-1.5.8-1.6.8c.2,0,1.5-.2,2,.2.5.3,1.8,1.1,3.3,1.2,1.5,0,1.8-.7,2.8.2,0,0-1.4-.5-2.3.9,0,0,0,.2-.2.3-.4,1-.6,1.9-.6,2.7s.2,1,.4,1.4c0,0,.2.2.3.3h0c.7.4,1.6,0,2-.2v.2Z"/>
          <path class="cls-14" d="M48.3,32.2h0c-.4.6-1,1.2-1.6,1.4-1,.3-5.8.9-6.7,1.1-.2-.4-.4-.8-.4-1.4h3.9c2.3,0,4.7-1.1,4.7-1.1h0Z"/>
          <g>
            <path class="cls-22" d="M64.6,30h-18s0,0,0,0,0,0,0,0h18s0,0,0,0,0,0,0,0Z"/>
            <path class="cls-22" d="M64.6,35.4h-18s0,0,0,0,0,0,0,0h18s0,0,0,0,0,0,0,0Z"/>
            <path class="cls-22" d="M63.3,40.6h-16s0,0,0,0,0,0,0,0h16s0,0,0,0,0,0,0,0Z"/>
            <polygon class="cls-12" points="50.1 44.9 47 44.9 45.8 37.4 44.1 26.7 46.1 26.7 49.1 40.4 49.5 42.1 50.1 44.9"/>
            <path class="cls-17" d="M49.5,42.1l-.2,2.8h-2.3l-1.2-7.5c.4,1,1,1.9,1.6,2.3.8.5,1.3.6,1.7.6,0,0,.4,1.8.4,1.8Z"/>
            <polygon class="cls-28" points="50.1 44.9 48.7 44.9 45.1 26.7 46.1 26.7 50.1 44.9"/>
            <polygon class="cls-12" points="66.2 26.7 64.4 38.3 63.3 44.9 60.2 44.9 64.2 26.7 66.2 26.7"/>
            <path class="cls-17" d="M64.1,36.9c0,.5.2,1,.3,1.3l-1.1,6.7h-2.8l3.7-18.2h1.1c-.2,1-1.5,8.4-1.3,10.2h.1Z"/>
            <polygon class="cls-28" points="60.2 44.9 61.6 44.9 65.2 26.7 64.2 26.7 60.2 44.9"/>
            <g>
              <circle class="cls-15" cx="50" cy="29.8" r="1.7"/>
              <g class="cls-36">
                <path class="cls-9" d="M51.7,29.8c0,.9-.8,1.7-1.7,1.7s-1.7-.8-1.7-1.7,0,0,0,0c.3.4.8.7,1.3.7.8,0,1.5-.7,1.5-1.5s0-.3,0-.5c.4.3.6.8.6,1.3Z"/>
              </g>
              <path class="cls-23" d="M49.8,29.4c.2-.3,0-.6,0-.8-.2-.2-.6,0-.8.2-.2.3,0,.6,0,.8.2.2.6,0,.8-.2Z"/>
              <path class="cls-23" d="M49.9,30.1v-.3s-.2,0-.3,0v.3s.2,0,.3,0Z"/>
            </g>
            <g>
              <circle class="cls-15" cx="53.3" cy="29.8" r="1.7"/>
              <g class="cls-36">
                <path class="cls-9" d="M54.9,29.8c0,.9-.8,1.7-1.7,1.7s-1.7-.8-1.7-1.7,0,0,0,0c.3.4.8.7,1.3.7.8,0,1.5-.7,1.5-1.5s0-.3,0-.5c.4.3.6.8.6,1.3Z"/>
              </g>
              <ellipse class="cls-23" cx="52.6" cy="29.1" rx=".6" ry=".5" transform="translate(0 58.3) rotate(-58)"/>
              <path class="cls-23" d="M53.2,30.1v-.3s-.2,0-.3,0v.3s.2,0,.3,0Z"/>
            </g>
            <g>
              <circle class="cls-15" cx="56.6" cy="29.8" r="1.7"/>
              <g class="cls-36">
                <path class="cls-9" d="M58.2,29.8c0,.9-.8,1.7-1.7,1.7s-1.7-.8-1.7-1.7,0,0,0,0c.3.4.8.7,1.3.7.8,0,1.5-.7,1.5-1.5s0-.3,0-.5c.4.3.6.8.6,1.3Z"/>
              </g>
              <path class="cls-23" d="M56.3,29.4c.2-.3,0-.6,0-.8-.2-.2-.6,0-.8.2-.2.3,0,.6,0,.8.2.2.6,0,.8-.2Z"/>
              <path class="cls-23" d="M56.5,30.1v-.3s-.2,0-.3,0v.3s.2,0,.3,0Z"/>
            </g>
            <g>
              <circle class="cls-15" cx="59.9" cy="29.8" r="1.7"/>
              <g class="cls-36">
                <path class="cls-9" d="M61.5,29.8c0,.9-.8,1.7-1.7,1.7s-1.7-.8-1.7-1.7,0,0,0,0c.3.4.8.7,1.3.7.8,0,1.5-.7,1.5-1.5s0-.3,0-.5c.4.3.6.8.6,1.3Z"/>
              </g>
              <path class="cls-23" d="M59.6,29.4c.2-.3,0-.6,0-.8-.2-.2-.6,0-.8.2s0,.6,0,.8c.2.2.6,0,.8-.2Z"/>
              <path class="cls-23" d="M59.8,30.1v-.3s-.2,0-.3,0v.3s.2,0,.3,0Z"/>
            </g>
            <g>
              <rect class="cls-19" x="49.1" y="34" width="3.1" height="3.1" rx=".3" ry=".3"/>
              <g class="cls-37">
                <path class="cls-10" d="M52.1,34.3v2.5c0,.2,0,.3-.3.3h-2.5c-.2,0-.3,0-.3-.3h0c.4,0,1.5,0,2-.7.4-.7.5-1.6.5-2.1h.3c.2,0,.3,0,.3.3Z"/>
              </g>
              <ellipse class="cls-6" cx="49.8" cy="34.8" rx=".4" ry=".6"/>
            </g>
            <g>
              <rect class="cls-19" x="52.5" y="34" width="3.1" height="3.1" rx=".3" ry=".3"/>
              <g class="cls-37">
                <path class="cls-10" d="M55.6,34.3v2.5c0,.2,0,.3-.3.3h-2.5c-.2,0-.3,0-.3-.3h0c.4,0,1.5,0,2-.7.4-.7.5-1.6.5-2.1h.3c.2,0,.3,0,.3.3Z"/>
              </g>
              <ellipse class="cls-6" cx="53.2" cy="34.8" rx=".4" ry=".6"/>
            </g>
            <g>
              <rect class="cls-19" x="58.3" y="34" width="3.1" height="3.1" rx=".3" ry=".3"/>
              <g class="cls-37">
                <path class="cls-10" d="M61.3,34.3v2.5c0,.2,0,.3-.3.3h-2.5c-.2,0-.3,0-.3-.3h0c.4,0,1.5,0,2-.7.4-.7.5-1.6.5-2.1h.3c.2,0,.3,0,.3.3Z"/>
              </g>
              <ellipse class="cls-6" cx="59" cy="34.8" rx=".4" ry=".6"/>
            </g>
            <g>
              <path class="cls-33" d="M54.2,42.4h-3.7v-.3c0,0,1.7-2.8,1.7-2.8h.2l1.8,3.1v.2-.2Z"/>
              <g class="cls-36">
                <path class="cls-13" d="M54.2,42.4h-3.7v-.4h0c.3,0,1.7,0,2.1-.3.4-.4,0-2-.4-2.5h.2l1.8,3.1v.2h0Z"/>
              </g>
              <path class="cls-34" d="M52.4,40.3c0-.2,0-.4,0-.5,0,0-.3,0-.4.3,0,.2,0,.4,0,.5,0,0,.3,0,.4-.3Z"/>
            </g>
            <g>
              <path class="cls-33" d="M59.6,42.4h-3.7v-.3c0,0,1.7-2.8,1.7-2.8h.2l1.8,3.1v.2-.2Z"/>
              <g class="cls-36">
                <path class="cls-13" d="M59.6,42.4h-3.7v-.4h0c.3,0,1.7,0,2.1-.3.4-.4,0-2-.4-2.5h.2l1.8,3.1v.2h0Z"/>
              </g>
              <path class="cls-34" d="M57.8,40.3c0-.2,0-.4,0-.5,0,0-.3,0-.4.3,0,.2,0,.4,0,.5,0,0,.3,0,.4-.3Z"/>
            </g>
            <g>
              <path class="cls-33" d="M57,39.1l-1.8,3.1h-.2l-.8-1.4h0l-1-1.7v-.2h3.6s0,0,0,.2h.2Z"/>
              <g class="cls-36">
                <path class="cls-13" d="M57,39.1l-1.8,3.1h-.2l-.8-1.4c.2,0,.6.3,1.1,0,.7-.4,1.2-1.3,1.1-1.6,0,0-.3-.2-.7-.3h1.2s0,0,0,.2h.1Z"/>
              </g>
              <path class="cls-34" d="M54.4,39.7c.2,0,.4,0,.4-.2s-.2-.2-.4-.2-.4,0-.4.2.2.2.4.2Z"/>
            </g>
          </g>
        </g>
        <ellipse class="cls-30" cx="21.2" cy="5.7" rx="8.4" ry="5.8"/>
        <g>
          <path class="cls-30" d="M20.5,8.7h-.3c-.2,0-.4,0-.6-.2-.2-.1-.3-.3-.3-.6s0-.5.3-.7h-.1v-.5c-.1-.5,0-1.1.4-1.6.3-.4.4-.6.4-.8s0-.3-.4-.3h-.3c0,0-.2,0-.2.1l-.4.3-.6-1.1.2-.2c.1-.1.3-.2.5-.3s.5-.2.8-.2c.6,0,1,.2,1.2.3.3.2.5.6.5,1,0,.6-.2,1.1-.6,1.6-.2.3-.3.6-.3.9v.6h-.1c.2.1.4.4.4.7s-.2.7-.5.8v.2Z"/>
          <path class="cls-18" d="M19.8,6.9v-.2c-.1-.4,0-.9.3-1.3.3-.4.5-.7.4-1.1s-.3-.6-.8-.6-.6.1-.7.3l-.2-.5c.2-.2.6-.4,1-.4.9,0,1.3.4,1.3,1s-.2.9-.5,1.4c-.3.4-.4.8-.3,1.1v.2h-.6.1ZM19.7,8c0-.3.1-.5.4-.5s.5.2.5.4-.1.5-.4.5-.5-.2-.5-.4Z"/>
          <path class="cls-30" d="M23,8.5h-.3c-.5,0-.8-.3-.9-.8,0-.3,0-.6.3-.7h-.2l-.5-4.3h1.5c0-.1.3,4.2.3,4.2h-.2c.2.1.4.4.4.7s-.2.7-.5.8h.1Z"/>
          <path class="cls-18" d="M22.3,7.8c0-.3.1-.5.4-.5s.5.2.5.4-.1.5-.4.5-.5-.2-.5-.4ZM22.4,6.7l-.4-3.6h.7l.2,3.5h-.5Z"/>
        </g>
        <ellipse class="cls-30" cx="27.3" cy="11.6" rx="1.5" ry=".9"/>
        <ellipse class="cls-30" cx="30.4" cy="12.4" rx=".9" ry=".4"/>
      </g>
    </g>
  </g>
</svg>