<?xml version="1.0" encoding="UTF-8"?><svg id="Livello_1" xmlns="http://www.w3.org/2000/svg" viewBox="0 0 27.83 13.38"><defs><style>.cls-1{fill:#85a5c3;}.cls-1,.cls-2,.cls-3{stroke-width:0px;}.cls-2{fill:#91b5d6;}.cls-3{fill:#657889;}</style></defs><path class="cls-1" d="M16.95,13.36L.42,10.96c-.42-.06-.57-.59-.25-.86L12.97.42c.38-.32.89-.47,1.38-.4l13.17,1.48c.29.04.41.39.21.6l-9.04,10.66c-.45.47-1.1.69-1.75.61Z"/><polygon class="cls-2" points="16.99 11.9 2.57 9.91 14.34 .71 26.53 1.85 16.99 11.9"/><path class="cls-1" d="M24.14.77l-1.09.95c-.06.06-.13.08-.22.07l-5.81-.53s-.07-.06-.03-.09l1.36-.91s.11-.05.16-.04l5.61.49s.05.04.02.07Z"/><path class="cls-3" d="M23.44.44l.25.19-.38.27c-.05.05-.11.08-.18.07l-4.71-.31s-.06-.05-.03-.08l.15-.47s4.92.3,4.9.33Z"/><polygon class="cls-1" points="21.03 2.97 14.16 2.2 14.79 1.71 21.69 2.42 21.03 2.97"/><polygon class="cls-1" points="20.08 3.88 13.21 3.1 13.84 2.61 20.74 3.33 20.08 3.88"/><polygon class="cls-1" points="18.95 4.78 12.08 4.01 12.71 3.52 19.61 4.23 18.95 4.78"/></svg>