<?xml version="1.0" encoding="UTF-8"?><svg id="Livello_1" xmlns="http://www.w3.org/2000/svg" viewBox="0 0 26.75 20.14"><defs><style>.cls-1{opacity:.4;}.cls-1,.cls-2,.cls-3,.cls-4,.cls-5,.cls-6,.cls-7,.cls-8,.cls-9,.cls-10,.cls-11,.cls-12,.cls-13,.cls-14,.cls-15,.cls-16,.cls-17,.cls-18,.cls-19,.cls-20{stroke-width:0px;}.cls-1,.cls-16{fill:#4e6a89;}.cls-2{fill:#acb8c6;}.cls-3{fill:#8898af;}.cls-4{fill:#060606;}.cls-5{fill:#223154;}.cls-6{fill:#bfc9df;}.cls-7{fill:#98add1;}.cls-8{fill:#91a8c8;}.cls-9{fill:#c6ced8;}.cls-10{fill:#283337;}.cls-11{fill:#2e333e;}.cls-12{fill:#273c51;}.cls-13{fill:#1a2543;}.cls-14{fill:#91a9cc;}.cls-15{fill:#6e8aad;}.cls-17{fill:#e1eafd;}.cls-18{fill:#bfd2e7;}.cls-19{fill:#919246;opacity:.5;}.cls-20{fill:#b0bdd1;}</style></defs><path class="cls-15" d="M13.77,11.29s2.2,1.07,2.56,1.63,2.14,7.22,2.14,7.22l-4.41-.04-3.45-8.98s2.43-.2,3.15.17Z"/><path class="cls-15" d="M7.99,12.28l-3.47.11-.54,3.55,2.14,3.6,5.83.57h.89s-1-5.12-1.94-6.06c-.94-.94-2.91-1.77-2.91-1.77Z"/><path class="cls-10" d="M13.47,16.01c-.07-.04-.98-2.46-.98-2.46,0,0,.16-.2.3-.22s1.24,2.86,1.24,2.86l-.56-.18Z"/><path class="cls-8" d="M23.18,11.55c0,.54-.44.98-.98.98-.11,0-.21-.02-.31-.05.3-.23.56-.44.76-.6l-.03-.03s-.34.26-.79.61c-.35-.15-.6-.5-.6-.9,0-.54.44-.98.98-.98s.98.43.98.98Z"/><path class="cls-16" d="M14.03,9.08s-.25.16-.42.1-2.87.52-2.82.61.74,1.55.74,1.55l1.56.37s.78-.72,1-1.48-.07-1.15-.07-1.15Z"/><path class="cls-20" d="M13.98,3.51s.41,1.95,0,2.58-.37,1.01-.62,1.74-.82,1.41-2.1,1.72-1.96-.64-2.13-1.31-.54-2.24.45-3.65c.99-1.42,3.79-2.24,4.4-1.07Z"/><path class="cls-12" d="M9.34,6.53s.1-1.11.79-1.66,1.1-1.03,1.65-1.17,1.12-.13,1.32-.54.21.54.51.8.16,1.07.16,1.07c0,0,.2-.61-.12-1.07,0,0-.11-.11-.14-.28s-.03-.01.19.15.29.57.18.74-.26.28-.26.28c0,0,.24-.15.31-.34s.14.15.09.3-.15,1.16-.21,1.38-.33.91-.36,1.25.45-.31.6-.78.32-1.79.32-1.79c0,0,.16-1.23-.22-1.61s-1.36-.88-2.38-.21-1.85.8-2.2,1.51-.44,1.06-.24,1.95Z"/><path class="cls-12" d="M11.35,11.86s.33-.22.43-.16.1.19.36.1.45.18.45.18c0,0,.49-.38.78-.87s-.15.15-.38.19-.47.09-.72,0,.11-1,.42-1.01-.1-.08-.29.11,0-.27.29-.31-.38-.18-.57.33-.27.68-.42.7-.36.74-.36.74Z"/><path class="cls-4" d="M10.6,5.57s.51-.14.88,0,1.14.38,1.08.51-.15.21-.32.14-1.58-.55-1.78-.56.14-.09.14-.09Z"/><path class="cls-4" d="M13.18,6.35s.1-.27.45-.26.45-.22.45-.22c0,0,.07.32-.05.39s-.41.1-.63.1-.31.14-.22,0Z"/><path class="cls-4" d="M10.75,6.28s.29.36.66.41.5-.08.5-.08c0,0-.14.18-.58.13s-.58-.46-.58-.46Z"/><path class="cls-4" d="M13.1,6.88s.26.16.52.1.26-.1.26-.1c0,0-.13.17-.39.18s-.39-.18-.39-.18Z"/><path class="cls-2" d="M14.35,5.52c-.07.41-.15.7-.17.77,0-.08.04-.41.08-.81.04-.51.08-1.12.04-1.47-.08-.66-.97-.77-1.56-.81-.59-.05-1.04.13-2.01.81-.28.2-.51.43-.7.65-.45.54-.64,1.04-.64,1.04h0s-.07-.18-.14-.39c0,.21-.04.43-.08.68-.1-.07-.13-.11-.15-.13,0,.02.05.11.13.24-.07.48-.16,1.07-.16,1.84-.01,2.04,1.85,1.95,1.85,1.95l3.22,10.22h-1.82s-.53-3.59-1.09-4.64c-.56-1.05-.99.33-1.91,1.5s-2.07.31-2.07-.56.43-1.84.23-2.68c-.21-.84-.77-.05-1.43-.38-.66-.33,0,.21.49,1.89.48,1.68.81,2.68.61,3.14-.2.46-.84-.56-1.66-2.07-.16-.3-.37-.51-.6-.67-.93-.65-2.13-.26-1.19.19,1.17.56,2.37,2.7,2.37,2.7,0,0,.3.74.84.48.54-.26.99-.1,1.33-.43s1.1-.46,1.56-.97c.46-.51,1.53,0,1.53,0,0,0-.08.48.33,1.15.41.66.36,1.35.36,1.35H2.56s-.46-.3-.97-.48c-.51-.18-1.1-.82-1.28-1.43-.18-.61,1.2-2.99,1.2-4.16s.48-1.56.48-1.56c0,0,4.37-3.52,4.8-4,.43-.49.58-2.51.81-3.4.23-.9.51-4.67,2.33-4.97,1.81-.3,1.78.1,3.11.54,1.33.43,1.17,1.23,1.4,2.54.13.77.02,1.69-.1,2.33Z"/><path class="cls-9" d="M10.85,9.89c-.25.05-.55.05-.86-.04-1.07-.3-1.3-1.04-1.2-2.22.1-1.17.41-1.99.05-2.65-.35-.66-.08.28-.23.87-.15.59-.99,1.35-.43,2.47.56,1.12.66,2.55.66,2.55,0,0-.23-1.5-.81-2.17-.59-.66-.64-.87-.54-1.79.1-.92-.53,1.5-.23,3.12.31,1.63.94,3.23.51,4.23-.43.99-.05-2.27-.87-3.93-.81-1.66-1.3-.43-1.84.02-.54.46-2.91,2.12-3.19,2.58-.28.46.99,1.48,1.76,1.81.54.23.88.39,1.19.89.13.2.24.46.37.8.43,1.18.79,1.43.81,2.1.03.66-.54-1.15-1.38-1.3-.84-.15-2.19-.2-2.68-.15-.48.05-1.2.92-1.3,1.2-.1.28.69-1.25,2.43-.94,1.73.3,1.84.28,2.17,1.07.33.79-1.35.25-2.4,1-.65.47-.3.64.04.71.08.01.15.02.21.03l-.53-.03-2.37-.12s.2-.36,0-1.41c-.21-1.04-.33-2.01.09-2.93.42-.92-.01-1.02.47-1.89.48-.87,1.3-1.5,1.81-2.01.51-.51,1.91-1.12,2.75-2.42.84-1.3,1.58-1.15,1.71-2.55.13-1.41.13-3.12.46-4.24.34-1.12,1.43-2.37,2.45-2.43,1.02-.05,1.94.31,2.22,1.58.04.2.07.31.09.36-.07-.21-.51-1.37-1.38-1.59-1.24-.3-.94.59-.46.46.48-.13.92-.1.92.28s-.02.79.15.97c.18.18-1.02.97-1.1,1.25-.08.28-.46-.97-.1-1.58.35-.61-.56-.28-.59.81-.02.91-.03,1.51-.1,1.92-.01.08-.03.16-.05.22-.04.12-.09.46-.14.89-.01.13-.03.28-.04.43,0,.07,0,.15-.01.22-.07,1.03-.04,2.22.32,2.49,0,0,.92.92,1.61.72.49-.15.18.22-.42.34Z"/><path class="cls-6" d="M9.65,8.83s-.38-.67-.18-1.25.4,0,.67.13-.53-.48-.36-1.03.69-.04.92.27.02.57-.17.82-.41.5-.42.8-.45.25-.45.25Z"/><path class="cls-1" d="M14.04,7.01c-.25.51-.23.67-.78.54-.41-.1-.32-.41-.27-.69h0c.25-.6,0-.58,0-.58-.44-.08-.2.24-.94.67-.57.34-1.36,0-1.36,0-.69-.39-1.1-.65-1.34-.83,0-.15.02-.3.04-.43h0s.18-.5.64-1.03c.75.13,2.23.4,2.75.51s1.13.19,1.48.31c-.04.46-.09.82-.09.82,0,0,.09-.32.17-.79.08.04.13.07.16.12.14.22-.21.86-.47,1.37Z"/><path class="cls-19" d="M14.35,5.52c-.09.47-.17.79-.17.79,0,0,.04-.37.09-.82.03,0,.06.02.09.04Z"/><path class="cls-16" d="M12.99,6.85c.02-.1.04-.2.02-.29-.06-.31-.42.14-.76.41-.34.27-.79.48-1.84.09-.51-.19-.86-.48-1.07-.73,0-.07,0-.15.01-.22.24.17.66.44,1.34.83,0,0,.78.34,1.36,0,.74-.43.5-.75.94-.67,0,0,.25-.02,0,.57Z"/><path class="cls-16" d="M13.69,5.45s.64.06.74.26-.31.78-.37.97-.02-.02.11-.37.27-.5.05-.63-.54-.15-.81-.23.29,0,.29,0Z"/><path class="cls-12" d="M13.38,9.86c-.5.02-1.17-.11-1.55.1-.38.21-.99-.13-1.53-.4-.54-.27-.86-.36-.86-.36,0,0,0-.31.42-.55.31-.18,1.28-.87,1.92-1.34h0s.53.72.71,1.12c.17.41-.02.77.55.77h.57c.23.4.27.65-.23.67Z"/><path class="cls-10" d="M13.61,9.19h-.57c-.57,0-.38-.36-.55-.77-.17-.41-.71-1.12-.71-1.12h0c.22-.16.4-.3.49-.37.36-.29.71.02.78.52.08.5.33,1.34.56,1.74Z"/><path class="cls-12" d="M8.54,9.75s.53-.5.9-.56,1.68.07,2.17,1.22-.74,1.87-.74,1.87c0,0,.81-1.13-.16-2.06-.97-.93-2.16-.47-2.16-.47Z"/><path class="cls-5" d="M10.09,12.5c-1.01-.02-1.86-1.14-1.92-1.72-.08-.73.37-1.02.37-1.02,0,0,.51,0,.77.07,0,0,1.38.24,1.71,1.09.34.85-.09,1.48-.94,1.58Z"/><path class="cls-13" d="M10.87,12.28c-.26.16-.53.22-.78.22.85-.11,1.28-.74.94-1.58-.34-.85-1.71-1.09-1.71-1.09-.27-.06-.77-.07-.77-.07.62-.33,1.57-.05,1.95.16.38.21,1.69,1.57.37,2.36Z"/><path class="cls-12" d="M13.97,9.19s-.03,1.2-.6,1.94-.78.87-.78.87c0,0,.2.32.69.29s1.11-.98,1.35-1.79.12-1.14,0-1.25-.7-.29-.66-.05Z"/><path class="cls-13" d="M13.28,12.28s.42.1.87-.48.72-1.48.74-1.95-.26-.61-.26-.61c0,0,.2,1.71-1.35,3.04Z"/><path class="cls-11" d="M9.57,7.3l.68,1.15.48-.31s-.93-1.44-1.16-1.59,0,.75,0,.75Z"/><path class="cls-12" d="M9.34,6.21v.61l.23.48s.07-.31.08-.55-.06-.07-.31-.55Z"/><circle class="cls-16" cx="8.82" cy="10.39" r=".06"/><circle class="cls-16" cx="9.4" cy="10.33" r=".06"/><circle class="cls-16" cx="8.88" cy="11.02" r=".06"/><circle class="cls-16" cx="9.77" cy="10.96" r=".06"/><circle class="cls-16" cx="10.46" cy="10.82" r=".06"/><circle class="cls-16" cx="9.5" cy="11.54" r=".06"/><circle class="cls-16" cx="8.94" cy="11.6" r=".06"/><circle class="cls-16" cx="9.99" cy="11.99" r=".06"/><circle class="cls-16" cx="10.4" cy="11.54" r=".06"/><path class="cls-3" d="M14.42,15.57s.17-.1.47.22.51.74.55.89-.1.18-.1.18c0,0,.17.18.11.37s-.26.4-.26.4c0,0-.16.29-.29.27s-.46.48-.61.51-.6.29-.6.29l-.67-1.51,1.41-1.62Z"/><path class="cls-20" d="M11.26,17.61s.24-.08.58-.54.61-1.07,1.02-1.12.53-.4,1.13-.38.53-.07.52.16-.05.38-.05.38c0,0,.18-.1.34,0s0,.18.04.36-.12.31-.12.31c0,0,.17.02.16.24s-.37.5-.59.55-.66.02-.82-.04.15.15.3.15.29.07.32.25-.3.61-.41.77-.82.83-1.15.92-.8.27-.8.27c0,0-.94-1.76-.46-2.28Z"/><path class="cls-3" d="M13.49,16.27s.5-.05.66-.07.3-.08.3-.08c0,0-.37.09-.43.07s-.54.07-.54.07Z"/><path class="cls-3" d="M13.61,16.89c.07-.01.7-.08.81-.08s.31-.03.31-.03c0,0,.22-.08.34.05s-.18-.02-.46,0-1.15.08-.99.05Z"/><path class="cls-16" d="M13.5,18.93l9.4-7.25s.03-.02.05-.01l3.57.48c.06,0,.08.09.03.12l-8.61,5.96s-.02,0-.03.01l-4.36.81c-.07.01-.11-.08-.05-.12Z"/><path class="cls-8" d="M22.65,11.87c-.19.16-.45.37-.76.6t0,0s-.04-.01-.06-.02c.46-.35.79-.61.79-.61l.03.03Z"/><path class="cls-17" d="M21.89,12.47c-.18.14-.38.3-.58.45h0c-1.13.84-2.53,1.8-3.2,2-.99.3-1,.83-1.38,1.28-.37.44-1.96,1.66-1.96,1.66l-.05-.13s.13-.1.32-.25c.52-.42,1.52-1.24,1.73-1.67.3-.59.5-.81,1.45-1.12.94-.31.73-.37,1.5-.77.32-.16.86-.54,1.39-.93.26-.19.51-.38.73-.54.02,0,.04.01.06.02Z"/><path class="cls-7" d="M21.17,17.01l-2.69.84,4.57-3.21s-.99,1.86-1.88,2.37Z"/><path class="cls-18" d="M22.05,10.57s1.2-.08,1.1,1.22-.71,2.32-.62,2.92-.82,2.08-1.36,2.3c0,0,2.5-1.72,3.53-2.36s1.18-.74,1.45-1.31.9-1.22.42-2.11c0,0-.25-.22-.69-.24s-3.25-.41-3.84-.41Z"/><path class="cls-14" d="M21.3,12.92l-6.12,4.71-.42.23s1.59-1.22,1.96-1.66c.37-.44.39-.97,1.38-1.27.66-.2,2.07-1.16,3.2-2Z"/></svg>