<?xml version="1.0" encoding="UTF-8"?><svg id="Complications" xmlns="http://www.w3.org/2000/svg" viewBox="0 0 32 32"><defs><style>.cls-1{fill:#7796af;}.cls-1,.cls-2,.cls-3,.cls-4,.cls-5,.cls-6,.cls-7,.cls-8,.cls-9{stroke-width:0px;}.cls-2{fill:none;}.cls-3{fill:#38609f;}.cls-4{fill:#3c6277;}.cls-5{fill:#85a5c3;}.cls-6{fill:#6083a7;}.cls-7{fill:#9fc6e2;}.cls-8{fill:#91b5d6;}.cls-9{fill:#425760;}</style></defs><rect class="cls-2" width="32" height="32"/><path class="cls-8" d="M31.28,15.74h0l-.06.27-3.38,14.02h-6.02c.26-.27.5-.58.66-.93.18-.37.27-.79.18-1.24-.32-1.73-1.88-4.22-1.94-6.23-.05-2.01-.42-3.88-.42-3.88-1.86-.12-3.94-.44-4.85-.91-.54-.28-1.07-.65-1.2-1.06h0v-.05h17.02,0Z"/><path class="cls-8" d="M27.82,30.03c0,.51-2.31.93-5.17.93-.69,0-1.34-.02-1.94-.06,0,0,.56-.32,1.08-.87.26-.27.5-.58.66-.93h.18c2.86,0,5.17.42,5.17.93h.01Z"/><path class="cls-7" d="M31.28,15.74h0c0,.09-.02.18-.06.27-.25.54-1.12.95-1.43,1.04-.56.17-.5.75-.95,1.7s-2.15,5.75-2.15,5.75c0,0,.17-1.23-.22-2.71-.39-1.48.84-.95,1.15-1.79.31-.84.9-1.65-.22-2.04-1.11-.4-3.04-.21-5.14-.16-.57.01-1.24,0-1.94-.04-1.86-.12-3.94-.44-4.85-.91-.54-.28-1.07-.65-1.2-1.06h0v-.05h-.01c-.02-.11-.02-.21.02-.33.17-.44.9-.88,2.63-1.26,3.94-.87,6.7-.56,6.7-.56,3.89.05,6.46,1.01,6.46,1.01.92.39,1.23.78,1.22,1.15h.01Z"/><path class="cls-6" d="M23.49,13.81c-.36-.02-.73-.02-1.09,0-1.48.06-5.42.29-6.86.98-1.79.87-.54,2.26,3.27,2.52,3.8.25,7.29-.03,8.91.5s.89-.36,1.65-.84,4.92-2.53-5.87-3.16h0Z"/><path class="cls-9" d="M14.25,15.49s-.31-.36-.31-.87.15.21.31.27.41.07.41.07c0,0-.33.27-.41.52Z"/><path class="cls-9" d="M30.42,14.75s-.02-.21-.07-.37c-.07-.2-.17-.37-.17-.28,0,.13.04.27.04.33,0,.07-.02.16-.04.21l.24.11Z"/><path class="cls-5" d="M22.47,29.1c-.17.35-.42.66-.66.93-.52.55-1.08.87-1.08.87-1.89-.14-3.23-.47-3.23-.87l-3.23-14.24c.13.41.66.78,1.2,1.06.91.47,2.99.79,4.85.91,0,0,.36,1.86.42,3.88.05,2.01,1.62,4.5,1.94,6.23.09.45,0,.87-.18,1.24h-.01Z"/><ellipse class="cls-7" cx="29.43" cy="15.28" rx=".1" ry=".26"/><ellipse class="cls-3" cx="15.22" cy="15.36" rx=".1" ry=".26"/><path class="cls-4" d="M15.21,15.23s.31.35.21-1.03,1.51-6.97,5.28-7.62,5.19.09,6.47,1.57c1.27,1.49,1.82,3.46,1.86,5.39s0,1.53,0,1.53c0,0,.09.35.4.06v.27s-.42.19-.55-.13c-.15-.36.34-2.87-.88-5.45,0,0-1.16-3.04-4.51-3.29-3.35-.25-5.36,1.2-6.41,3.24-1.05,2.06-1.5,3.12-1.49,3.92s.27,1.75-.4,1.76v-.22h.01Z"/><path class="cls-5" d="M16.39,25.95s-1.53-2.08-2.24-4.54-2.49-6.03-2.71-6.33-.54-.91-.98-.64c-.45.27-.2.82-.15.96s.94,1.8,1.1,2.32c.07.21-.13.21-.13.21,0,0-.02.18-.2-.37s-1.81-3.31-2.36-3.69-.91-.09-.91-.09c0,0-.36.17-.16.69s1.67,2.61,1.67,2.61c0,0,.45.59.35.87s-.43-.11-.43-.11c0,0-.55-1.05-1.12-1.94-.43-.65-.91-1.18-.98-1.28-.18-.26-.52-.59-.91-.34s-.35.62-.31.72,1.75,2.66,2.08,3.24.13.61.13.61c0,0-.29.25-.71-.57-.42-.81-1.42-2.99-2.13-2.64s-.22,1.21-.22,1.21c0,0,.6,1.87,2.52,3.97,1.26,1.62.33,1.23.33,1.23,0,0-.88-.27-1.57-1.83-.22-.6-.58-.56-.84-.41s-.35.37-.24.66,1,2.36,2.76,4.13c1.86,1.73,3.02,3.64,3.14,4.09.45.18,4.24-.87,5.24-2.74h-.01Z"/><path class="cls-1" d="M16.19,25.97s-.7.95-2.01,1.65c-1.33.7-2.88.93-2.88.93,0,0,.7-1,2.21-1.8,1.51-.81,2.69-.77,2.69-.77h0Z"/><path class="cls-8" d="M9.27,24.32s.93-2.57.91-5.29c-.02-2.72.73-6.88.86-7.26s.28-1.08.8-.94.45.78.44.93-.43,2.11-.43,2.7c-.01.25.19.18.19.18,0,0,.07.18.1-.44s.85-3.91,1.28-4.46c.44-.56.9-.35.9-.35,0,0,.43.06.37.64s-.91,3.16-.91,3.16c0,0-.28.74-.1.98s.4-.24.4-.24c0,0,.24-1.23.56-2.3.24-.79.58-1.47.62-1.61.11-.32.35-.76.82-.62s.55.52.54.63-.97,3.22-1.13,3.92c-.16.7.05.66.05.66,0,0,.36.16.55-.79s.55-3.46,1.37-3.33.59,1.17.59,1.17c0,0-.04,2.09-1.37,4.8-.8,2.02.03,1.35.03,1.35,0,0,.81-.54,1.05-2.33.05-.67.42-.74.73-.67s.47.28.44.61-.3,2.7-1.57,5.03c-1.37,2.32-1.98,4.6-1.96,5.1-.41.32-4.57.4-6.15-1.22h.02Z"/><path class="cls-5" d="M9.48,24.28s1,.76,2.55,1.07c1.55.31,3.2.07,3.2.07,0,0-1.01-.8-2.79-1.17s-2.97.02-2.97.02h.01Z"/></svg>