<?xml version="1.0" encoding="UTF-8"?><svg id="Livello_1" xmlns="http://www.w3.org/2000/svg" viewBox="0 0 24.65 23.42"><defs><style>.cls-1{fill:#38609f;}.cls-1,.cls-2,.cls-3,.cls-4,.cls-5,.cls-6,.cls-7,.cls-8,.cls-9{stroke-width:0px;}.cls-2{fill:#85a5c3;}.cls-3{fill:#6083a7;}.cls-4{fill:#91b5d6;}.cls-5{fill:#84a4c2;}.cls-6{fill:#ceddea;}.cls-7{fill:#a0c8ec;}.cls-8{fill:#425760;}.cls-9{fill:#dbebfa;}</style></defs><path class="cls-4" d="M24.65,9.19s0,0,0,0l-.06.25-3.16,13.1h-5.62c.24-.25.47-.54.62-.87.17-.35.25-.74.17-1.16-.3-1.62-1.76-3.94-1.81-5.82-.05-1.88-.39-3.62-.39-3.62-1.74-.11-3.68-.41-4.53-.85-.5-.26-1-.61-1.12-.99,0,0,0,0,0,0v-.05s15.9,0,15.9,0Z"/><path class="cls-4" d="M21.42,22.54c0,.48-2.16.87-4.83.87-.64,0-1.25-.02-1.81-.06,0,0,.52-.3,1.01-.81.24-.25.47-.54.62-.87.06,0,.12,0,.17,0,2.67,0,4.83.39,4.83.87Z"/><path class="cls-7" d="M24.65,9.19s0,0,0,0c0,.08-.02.17-.06.25-.23.5-1.05.89-1.34.97-.52.16-.47.7-.89,1.59-.42.89-2.01,5.37-2.01,5.37,0,0,.16-1.15-.21-2.53-.36-1.38.78-.89,1.07-1.67.29-.78.84-1.54-.21-1.91-1.04-.37-2.84-.2-4.8-.15-.53.01-1.16,0-1.81-.04-1.74-.11-3.68-.41-4.53-.85-.5-.26-1-.61-1.12-.99,0,0,0,0,0,0v-.05s-.01,0-.01,0c-.02-.1-.02-.2.02-.31.16-.41.84-.82,2.46-1.18,3.68-.81,6.26-.52,6.26-.52,3.63.05,6.03.94,6.03.94.86.36,1.15.73,1.14,1.07Z"/><path class="cls-3" d="M17.37,7.39c-.34-.02-.68-.02-1.02,0-1.38.06-5.06.27-6.41.92-1.67.81-.5,2.11,3.05,2.35,3.55.23,6.81-.03,8.32.47s.83-.34,1.54-.78,4.6-2.36-5.48-2.95Z"/><path class="cls-8" d="M8.74,8.96s-.29-.34-.29-.81.14.2.29.25.38.07.38.07c0,0-.31.25-.38.49Z"/><path class="cls-8" d="M23.51,8.12s.14-.16.11-.43.19.18,0,.48l-.11-.05Z"/><path class="cls-2" d="M16.42,21.67c-.16.33-.39.62-.62.87-.49.51-1.01.81-1.01.81-1.77-.13-3.02-.44-3.02-.81l-3.02-13.3c.12.38.62.73,1.12.99.85.44,2.79.74,4.53.85,0,0,.34,1.74.39,3.62.05,1.88,1.51,4.2,1.81,5.82.08.42,0,.81-.17,1.16Z"/><ellipse class="cls-1" cx="22.92" cy="8.76" rx=".09" ry=".24"/><ellipse class="cls-1" cx="9.65" cy="8.84" rx=".09" ry=".24"/><path class="cls-8" d="M9.64,8.71s.29.33.2-.96S11.25,1.24,14.77.63s4.85.08,6.04,1.47c1.19,1.39,1.7,3.23,1.74,5.03s0,1.43,0,1.43c0,0,.08.33.37.06v.25s-.39.18-.51-.12.25-2.82-.82-5.09c0,0-1.08-2.84-4.21-3.07-3.13-.23-5.01,1.12-5.99,3.03-.98,1.92-1.4,2.91-1.39,3.66s.25,1.63-.37,1.64v-.21Z"/><path class="cls-5" d="M14.01.5s2.99-1.12,5.16,0c0,0,.12.74-.25.74s-.74-.39-1.43-.16-1.23.14-1.72-.12-.92.1-1.17.27-.63-.25-.59-.74Z"/><path class="cls-6" d="M10.74,18.73s-1.43-1.94-2.09-4.24-2.33-5.63-2.53-5.91-.5-.85-.92-.6-.19.77-.14.9.88,1.68,1.03,2.17c.07.2-.12.2-.12.2,0,0-.02.17-.19-.35s-1.69-3.09-2.2-3.45-.85-.08-.85-.08c0,0-.34.16-.15.64s1.56,2.44,1.56,2.44c0,0,.42.55.33.81s-.4-.1-.4-.1c0,0-.51-.98-1.05-1.81-.4-.61-.85-1.1-.92-1.2-.17-.24-.49-.55-.85-.32s-.33.58-.29.67,1.63,2.48,1.94,3.03.12.57.12.57c0,0-.27.23-.66-.53-.39-.76-1.33-2.79-1.99-2.47s-.21,1.13-.21,1.13c0,0,.56,1.75,2.35,3.71,1.18,1.51.31,1.15.31,1.15,0,0-.82-.25-1.47-1.71-.21-.56-.54-.52-.78-.38s-.33.35-.22.62.93,2.2,2.58,3.86c1.74,1.62,2.82,3.4,2.93,3.82.42.17,3.96-.81,4.89-2.56Z"/><path class="cls-5" d="M10.55,18.75s-.65.89-1.88,1.54c-1.24.65-2.69.87-2.69.87,0,0,.65-.93,2.06-1.68,1.41-.76,2.51-.72,2.51-.72Z"/><path class="cls-9" d="M4.09,17.2s.87-2.4.85-4.94c-.02-2.54.68-6.43.8-6.78s.26-1.01.75-.88.42.73.41.87-.4,1.97-.4,2.52c-.01.23.18.17.18.17,0,0,.07.17.09-.41s.79-3.65,1.2-4.17c.41-.52.84-.33.84-.33,0,0,.4.06.35.6s-.85,2.95-.85,2.95c0,0-.26.69-.09.92s.37-.22.37-.22c0,0,.22-1.15.52-2.15.22-.74.54-1.37.58-1.5.1-.3.33-.71.77-.58s.51.49.5.59-.91,3.01-1.06,3.66.05.62.05.62c0,0,.34.15.51-.74s.51-3.23,1.28-3.11.55,1.09.55,1.09c0,0-.04,1.95-1.28,4.48-.75,1.89.03,1.26.03,1.26,0,0,.76-.5.98-2.18.05-.63.39-.69.68-.63s.44.26.41.57-.28,2.52-1.47,4.7c-1.28,2.17-1.85,4.3-1.83,4.76-.38.3-4.27.37-5.74-1.14Z"/><path class="cls-5" d="M4.29,17.17s.93.71,2.38,1c1.45.29,2.99.07,2.99.07,0,0-.94-.75-2.61-1.09s-2.77.02-2.77.02Z"/></svg>