<?xml version="1.0" encoding="UTF-8"?><svg id="Livello_1" xmlns="http://www.w3.org/2000/svg" viewBox="0 0 56.27 35.75"><defs><style>.cls-1{fill:#85a5c3;}.cls-1,.cls-2,.cls-3{stroke-width:0px;}.cls-2{fill:#91b5d6;}.cls-3{fill:#7a97b1;}</style></defs><polygon class="cls-2" points="1.05 4.12 0 4.12 0 35.06 28.14 35.75 28.14 35.06 1.05 4.12"/><polygon class="cls-1" points="1.29 3.03 .89 4.89 .89 34.43 28.14 35.06 28.14 34.43 1.29 3.03"/><path class="cls-3" d="M1.29,3.03S13.4-1.31,28.14,5.4v28.96s-13.12-4.37-26.85-.55V3.03Z"/><path class="cls-2" d="M3.53,1.58s11.4-5.2,24.61,3.3v29.55s-12.03-7.02-24.61-3.52V1.58Z"/><polygon class="cls-2" points="55.22 4.12 56.27 4.12 56.27 35.06 28.14 35.75 28.14 35.06 55.22 4.12"/><polygon class="cls-1" points="54.98 3.03 55.38 4.89 55.38 34.43 28.14 35.06 28.14 34.43 54.98 3.03"/><path class="cls-3" d="M54.98,3.03s-12.11-4.33-26.85,2.37v28.96s13.12-4.37,26.85-.55V3.03Z"/><path class="cls-2" d="M52.74,1.58s-11.4-5.2-24.61,3.3v29.55s12.03-7.02,24.61-3.52V1.58Z"/></svg>