<?xml version="1.0" encoding="UTF-8"?><svg id="Livello_1" xmlns="http://www.w3.org/2000/svg" viewBox="0 0 55.77 55.77"><defs><style>.cls-1{fill:#4b6275;stroke-width:0px;}</style></defs><polygon class="cls-1" points="11.41 10.14 7.91 14.63 44.94 43.39 48.43 38.9 11.41 10.14 11.41 10.14"/><path class="cls-1" d="M27.92,7.23h0c10.37,0,19.16,7.77,20.45,18.08,1.42,11.3-6.62,21.65-17.92,23.07-.87.11-1.74.16-2.61.16-10.37,0-19.16-7.77-20.46-18.08-1.42-11.3,6.62-21.65,17.92-23.07.87-.11,1.74-.16,2.61-.16M27.92,0c-1.16,0-2.33.07-3.51.22C9.13,2.14-1.7,16.08.22,31.36c1.77,14.1,13.78,24.41,27.63,24.41,1.16,0,2.33-.07,3.51-.22,15.28-1.92,26.11-15.86,24.19-31.14C53.78,10.31,41.77,0,27.92,0h0Z"/></svg>