<?xml version="1.0" encoding="UTF-8"?><svg id="Livello_1" xmlns="http://www.w3.org/2000/svg" viewBox="0 0 24.28 29.95"><defs><style>.cls-1{fill:#46617a;}.cls-1,.cls-2,.cls-3,.cls-4,.cls-5{stroke-width:0px;}.cls-2{fill:#85a5c3;}.cls-3{fill:#4e6a89;}.cls-4{fill:#7a97b1;}.cls-5{fill:#7795af;}</style></defs><path class="cls-3" d="M1.01,15.46s12.67-7.85,22.77,2.47c0,0,.23.27.31.65s.01.59.01.59c0,0-9.53-11.01-23.7-2.75l.31-.6.3-.36Z"/><path class="cls-2" d="M23.4,13.34c-.07-.76-.61-1.52-1.39-1.98-1.06-.63-2.59-1.62-3.69-2.67-1.85-1.77-2.84-3-4.27-3-1.44.01-2.32.54-3.67,1.9-1.17,1.2-3.61,3.35-5.77,4.08-.83.28-1.48.97-1.63,1.72-.04.2-.07.42-.08.67-.13,1.48.08,7.28.7,8.7.42.89,5.21,7.46,9.73,7.19,4.59-.48,7.71-5.67,8.47-7.11.68-1.44,2.04-4.95,1.61-9.49Z"/><path class="cls-4" d="M23.4,13.34c-.07-.76-.61-1.52-1.39-1.98-.63-.37-1.43-.87-2.2-1.44,1.65,1.87,2.25,2.07,2,5.37-.15,1.87-1.29,4.95-1.7,6.5-.51,2.06-2.79,4.44-5.16,4.75-1.23.21-.96.75-2.97-1.3-1.6-.08-3.12,1.05-4.31,2.23,1.68,1.43,3.69,2.6,5.65,2.48,4.59-.48,7.71-5.67,8.47-7.11.68-1.44,2.04-4.95,1.61-9.49Z"/><path class="cls-4" d="M15.84,18.34c.93-2.06-1.1-4.42-2.06-4.83-.72-.39-.39-1.96-.27-3.22.16-1.77.06-2.93.08-4.57-1.18.11-2.02.66-3.22,1.88-1.17,1.2-3.61,3.35-5.77,4.08-.83.28-1.48.97-1.63,1.72-.04.2-.07.42-.08.67-.13,1.48.08,7.28.7,8.7.42.89,5.21,7.46,9.73,7.19.02,0,.04,0,.06,0,1.53-1.05,1.1-3.74,1.15-6.07.05-2.15.61-3.94,1.3-5.52Z"/><path class="cls-1" d="M18.71,10.93s.5.39.24.64c-.26.26-.55-.04-.55-.04l-3.15-2.53s-.98-.87-2.29,0c-1.18.79-3.39,2.72-3.86,3.06-.28.21-.51.13-.54-.03-.03-.16.06-.32.19-.43l3.9-3.27s.51-.44,1.47-.51c.3-.02.83.08,1.53.63,1.25.98,3.07,2.49,3.07,2.49Z"/><path class="cls-3" d="M18.71,10.73s.5.39.24.64c-.26.26-.55-.04-.55-.04l-3.15-2.53s-.98-.87-2.29,0c-1.18.79-3.39,2.72-3.86,3.06-.28.21-.51.13-.54-.03-.03-.16.06-.32.19-.43l3.9-3.27s.51-.44,1.47-.51c.3-.02.83.08,1.53.63,1.25.98,3.07,2.49,3.07,2.49Z"/><path class="cls-2" d="M23.4,13.34c-.07-.76-.61-1.52-1.39-1.98-1.06-.63-2.59-1.62-3.69-2.67-1.85-1.77-2.83-3-4.27-3-1.44.01-2.32.54-3.67,1.9-1.17,1.2-3.61,3.35-5.77,4.08-.83.28-1.48.97-1.63,1.72-.04.2-.07.42-.08.67-.13,1.48.08,7.28.7,8.7.42.89,5.21,7.46,9.73,7.19,4.59-.48,7.71-5.67,8.47-7.11.68-1.44,2.04-4.95,1.61-9.49ZM20.59,23.71c-.65,1.02-3.42,4.09-5.23,4.81-1.04.41-2.17.68-3.25.51-1.14-.18-6.33-4.71-6.72-5.35-.79-1.29-1.27-2.62-1.28-4.11,0-1.35.47-5.3.55-5.93.06-.43,4.84-4.13,8.5-6.82.49-.36,1.03-.34,1.34-.15,1.41.84,2.67,2.1,3.93,3.16,3.07,2.6,3.95,2.43,4.16,3.34.93,4.04-1.32,9.47-2,10.55Z"/><path class="cls-3" d="M.38,3.8c.23-.79,9.54-6.58,18.73-2.15,1.81.87,3.65,2.09,4.58,4.34l.05,1.03s-.93-2.53-4.82-4.48C14.88.52,9.11-.37,1.22,4.17c-.87.5-1.04,1.1-.83,2.08,0,0-.3-1.43-.01-2.45Z"/><path class="cls-2" d="M5.13,12.82s-.51-.58-.89-1.03c-.38-.45-1.54-1.47-2.5-2.95C.78,7.37.07,5.62.38,3.8c0,0-.56,1.47,0,3.38.45,1.55,1.56,3.99,4.25,6.46l.51-.82Z"/><path class="cls-2" d="M22.43,12.34s-.77,0-.53-.55c.24-.55.97-1.06,1.45-2.6.48-1.54.34-3.19.34-3.19,0,0,.21.5.27,1.38.04.58-.08,1.26-.17,1.71-.21,1.03-.47,1.99-1.36,3.26Z"/><path class="cls-2" d="M3.36,21.37s-4.62-2.83-2.36-5.92c0,0-1.46,1.07-.86,3.7.41,1.77,3.65,3.66,3.65,3.66l-.43-1.45Z"/><path class="cls-2" d="M22.04,22.02s2.2-.64,1.99-3.18c-.05-.62-.26-.92-.26-.92,0,0,.53.48.51,1.77s-1.09,2.91-2.56,3.16l.32-.84Z"/><path class="cls-3" d="M11.12,19.93c0,1.9-1.38,3.43-3.08,3.43s-2.62-1.35-2.62-3.25.92-3.62,2.62-3.62,3.08,1.54,3.08,3.43Z"/><path class="cls-5" d="M9.75,20.67c0,1.49-.83,2.46-1.86,2.46s-1.86-.97-1.86-2.46.83-2.69,1.86-2.69,1.86,1.21,1.86,2.69Z"/><path class="cls-1" d="M6.51,20.61c-.09-1.45.72-2.54,2.07-2.59-.2-.48-.33-1.17-.27-1.5-.09,0-.18-.01-.27-.01-.37,0-.72.07-1.05.21,0,0,0,0,0,0-.04.01-.12.05-.12.05-1.24.55-1.72,1.97-1.72,3.28,0,1.9,1.2,3.32,2.9,3.32.23,0,.45-.03.67-.08-1.54-.35-2.15-1.86-2.2-2.67Z"/><ellipse class="cls-5" cx="8.27" cy="20.4" rx="2.12" ry="2.71"/></svg>