<?xml version="1.0" encoding="UTF-8"?>
<svg id="how_to_prevent" data-name="how to prevent" xmlns="http://www.w3.org/2000/svg" version="1.1" viewBox="0 0 32 32">
  <defs>
    <style>
      .cls-1 {
        fill: #6a94ae;
      }

      .cls-1, .cls-2, .cls-3 {
        stroke-width: 0px;
      }

      .cls-2 {
        fill: #82b7d9;
      }

      .cls-3 {
        fill: #77a8c7;
      }
    </style>
  </defs>
  <g id="ic_slaugh" data-name="ic slaugh">
    <g>
      <path class="cls-3" d="M26,26.3s-2.1-2.9-3.1-6.2-3.4-8.3-3.7-8.7-.7-1.2-1.4-.9-.3,1.1-.2,1.3,1.3,2.5,1.5,3.2c.1.3-.2.3-.2.3,0,0,0,.2-.3-.5s-2.5-4.6-3.2-5.1-1.3-.1-1.3-.1c0,0-.5.2-.2.9s2.3,3.6,2.3,3.6c0,0,.6.8.5,1.2s-.6-.1-.6-.1c0,0-.8-1.4-1.5-2.7-.6-.9-1.2-1.6-1.4-1.8-.2-.4-.7-.8-1.2-.5s-.5.9-.4,1,2.4,3.6,2.9,4.5.2.8.2.8c0,0-.4.3-1-.8s-1.9-4.1-2.9-3.6-.3,1.7-.3,1.7c0,0,.8,2.6,3.5,5.5,1.7,2.2.5,1.7.5,1.7,0,0-1.2-.4-2.2-2.5-.3-.8-.8-.8-1.1-.6s-.5.5-.3.9,1.4,3.2,3.8,5.7c2.6,2.4,4.1,5,4.3,5.6.6.2,5.8-1.2,7.2-3.8h0Z"/>
      <path class="cls-1" d="M25.7,26.3s-1,1.3-2.8,2.3-4,1.3-4,1.3c0,0,1-1.4,3-2.5s3.7-1.1,3.7-1.1Z"/>
    </g>
    <g>
      <path class="cls-2" d="M16.2,24s1.3-3.5,1.3-7.3,1-9.5,1.2-10,.4-1.5,1.1-1.3.6,1.1.6,1.3-.6,2.9-.6,3.7c0,.3.3.2.3.2,0,0,.1.2.1-.6s1.2-5.4,1.8-6.2,1.2-.5,1.2-.5c0,0,.6,0,.5.9s-1.2,4.4-1.2,4.4c0,0-.4,1-.1,1.4s.5-.3.5-.3c0,0,.3-1.7.8-3.2.3-1.1.8-2,.9-2.2.1-.4.5-1,1.1-.9s.7.7.7.9-1.4,4.4-1.6,5.4,0,.9,0,.9c0,0,.5.2.8-1.1s.8-4.8,1.9-4.6.8,1.6.8,1.6c0,0,0,2.9-1.9,6.6-1.1,2.8,0,1.9,0,1.9,0,0,1.1-.7,1.4-3.2,0-.9.6-1,1-.9s.6.4.6.8-.4,3.7-2.2,6.9c-1.9,3.2-2.7,6.3-2.7,7-.6.4-6.3.5-8.5-1.7h0Z"/>
      <path class="cls-3" d="M16.5,24s1.4,1,3.5,1.5,4.4.1,4.4.1c0,0-1.4-1.1-3.8-1.6s-4.1,0-4.1,0h0Z"/>
    </g>
  </g>
</svg>