<?xml version="1.0" encoding="utf-8"?>
<!-- Generator: Adobe Illustrator 26.3.1, SVG Export Plug-In . SVG Version: 6.00 Build 0)  -->
<svg version="1.1" id="Livello_1" xmlns="http://www.w3.org/2000/svg" xmlns:xlink="http://www.w3.org/1999/xlink" x="0px" y="0px"
	 viewBox="0 0 288.5 129" style="enable-background:new 0 0 288.5 129;" xml:space="preserve">
<style type="text/css">
	.st0{fill:#FFFFFF;}
</style>
<g id="complications" transform="translate(-1482.016 -730.566)">
	<g transform="matrix(1, 0, 0, 1, 1482.02, 730.57)">
		<ellipse id="Ellisse_10-2" class="st0" cx="235.7" cy="26" rx="19.4" ry="20"/>
	</g>
	<g transform="matrix(1, 0, 0, 1, 1482.02, 730.57)">
		<path id="Tracciato_16-2" class="st0" d="M165.5,63.6L31.7,70.1c0,0-9.3,2.5-8.5,14.9s8.5,12.8,8.5,12.8h133.8l54.2-37.1
			c0,0,5.9-7.5-2.6-16.4c-8.5-8.8-20.2-2.6-20.2-2.6L165.5,63.6L165.5,63.6z"/>
	</g>
	<g transform="matrix(1, 0, 0, 1, 1482.02, 730.57)">
		<path id="Tracciato_18-2" class="st0" d="M165.5,99.5H15c0,0-6-0.8-6,8s6,9.5,6,9.5h158.6l103.6-67.6c0,0,5.3-3.2-0.3-12.2
			s-10.5-5.5-10.5-5.5L165.5,99.5z"/>
	</g>
</g>
</svg>
