<?xml version="1.0" encoding="utf-8"?>
<!-- Generator: Adobe Illustrator 27.9.0, SVG Export Plug-In . SVG Version: 6.00 Build 0)  -->
<svg version="1.1" id="Symptoms" xmlns="http://www.w3.org/2000/svg" xmlns:xlink="http://www.w3.org/1999/xlink" x="0px" y="0px"
	 viewBox="0 0 32.1 32" style="enable-background:new 0 0 32.1 32;" xml:space="preserve">
<style type="text/css">
	.st0{fill:#FFFFFF;}
	.st1{fill:#D99898;}
	.st2{fill:#87BCB3;}
</style>
<g id="ic_lethargy">
	<g>
		<path class="st0" d="M12.2,3.5h7.6c0.5,0,0.9,0.4,0.9,0.9v25.1c0,0.5-0.4,0.9-0.9,0.9h-7.6c-0.5,0-0.9-0.4-0.9-0.9V4.4
			C11.3,3.9,11.7,3.5,12.2,3.5z"/>
		<path class="st0" d="M13,1.6h6c0.2,0,0.4,0.2,0.4,0.4v0.5C19.5,2.8,19.3,3,19,3h-6c-0.2,0-0.4-0.2-0.4-0.4V2
			C12.6,1.8,12.8,1.6,13,1.6z"/>
		<path class="st1" d="M12.3,27.6h7.4c0.2,0,0.3,0.1,0.3,0.3v1.3c0,0.2-0.1,0.3-0.3,0.3h-7.4c-0.2,0-0.3-0.1-0.3-0.3v-1.3
			C12,27.7,12.2,27.6,12.3,27.6z"/>
		<path class="st1" d="M12.3,25.2h7.4c0.2,0,0.3,0.1,0.3,0.3v1.3c0,0.2-0.1,0.3-0.3,0.3h-7.4c-0.2,0-0.3-0.1-0.3-0.3v-1.3
			C12,25.3,12.2,25.2,12.3,25.2z"/>
		<path class="st1" d="M12.3,22.7h7.4c0.2,0,0.3,0.1,0.3,0.3v1.3c0,0.2-0.1,0.3-0.3,0.3h-7.4c-0.2,0-0.3-0.1-0.3-0.3V23
			C12,22.9,12.2,22.7,12.3,22.7z"/>
		<polygon class="st2" points="14.5,15.7 16.1,14.9 15.9,19.2 17.3,13 15.9,13.6 16.1,8.8 		"/>
	</g>
</g>
</svg>
