<?xml version="1.0" encoding="UTF-8"?>
<svg id="Livello_1" data-name="Livello 1" xmlns="http://www.w3.org/2000/svg" version="1.1" viewBox="0 0 76.5 76.5">
  <defs>
    <style>
      .cls-1 {
        fill: #a57147;
      }

      .cls-1, .cls-2, .cls-3, .cls-4, .cls-5, .cls-6, .cls-7, .cls-8, .cls-9, .cls-10, .cls-11, .cls-12, .cls-13, .cls-14, .cls-15 {
        stroke-width: 0px;
      }

      .cls-2 {
        fill: #d3a585;
      }

      .cls-3 {
        fill: #84532f;
      }

      .cls-4 {
        fill: #d3a484;
      }

      .cls-5 {
        fill: #c39363;
      }

      .cls-6 {
        opacity: .3;
      }

      .cls-6, .cls-14 {
        fill: #b53b10;
      }

      .cls-7 {
        fill: #89552f;
      }

      .cls-8 {
        fill: #a06b40;
      }

      .cls-9 {
        fill: #b7804e;
      }

      .cls-10 {
        fill: #3f3e3d;
      }

      .cls-11 {
        fill: #966f70;
      }

      .cls-12 {
        fill: #fff;
      }

      .cls-13 {
        fill: #b57c52;
      }

      .cls-14 {
        opacity: .7;
      }

      .cls-15 {
        fill: #eac7b0;
      }
    </style>
  </defs>
  <g>
    <path class="cls-12" d="M19.6,66.5c-2,0-3.9-.6-6.4-3.8-1.6-2-1.4-3.8-1-5.1l-1,1.4c.1-3,2-6.1,3.2-7.2l.4-.3c.9-.9,2.4-1.2,3.7-1.4,0,0,.2,0,.3,0l-1.7-.2c.8-.5,3.3-1.3,4.3-1.4.3,0,.5,0,.8-.1,0-.2,0-.4,0-.6,0-.9-1.3-4.4-1.3-4.4-.8-2.1,0-7.8,1-9.7.5-1,1.4-1.9,2.2-2.7.1-.1.2-.3.4-.4l-.6-.4c.4-.9,1-1.3,1.5-1.7.3-.2.7-.5,1.2-.9,1.8-1.5,6.1-3.2,9.3-3.9.9-.2,2-.3,3.1-.3s2.8.2,3.9.4c-.5-.4-1.3-1.2-1.5-2-.3-.5-.5-.9-.7-1.3l-.2-.4-.2-.6h0c-.1-.9,0-1.7.2-2.3l.4-1.2c0,0,0-.1.1-.2l.9-.9c.4-.2,1.2-.9,1.5-1.4,1.1-1.3,4.4-1.7,4.5-1.7.1,0,.3,0,.5,0,1.3,0,2.9.7,3.9,1.1.2,0,.3.1.4.2,0,0,0,0,.2,0s.4,0,.5,0c.2-.1.6-.3.9-.5h.1c.6-.4.7-.6.8-.7.7-.8,1.4-1,1.9-1s1.6.2,2.1,1.7c.6,1.4,0,3.2-.1,3.9-.1.3-.3.7-.5,1.1-.1.3-.4.8-.5,1,0,.3.6,1.7.9,2.2.6,1,.3,2.1.2,2.3h0c0,1,0,2,0,2.5,0,.6,0,.9,1.1,2.6.9,1.5.8,3,.7,4.2,0,.4,0,.9,0,1.1.3,1,0,2.1-.2,3-.1.5-.3,1-.2,1.3.1,1.2-.5,2.4-.9,2.8l-.4.5h-.7s-.6,0-.6,0c-.1,0-.3.2-.5.3-.4.2-.8.5-1.3.8-1.4.9-1.5,1-1.5,2.4,0,.8.6,1.4,1,1.7.5,0,1.4,0,2.4.3,1.7.3,2.7,1.9,2.8,3.3,0,.2,0,.3,0,.5.3,0,.7.1,1.1.2,1,.1,1.9.7,2.6,1.7.5.7,1,1.8.8,2.7-.2,1-1.2,1.8-2.3,1.8s-.5,0-.7-.1c-.5.2-1.4.5-3,.5-2.6,0-7.3-.8-9.4-2.7-1-.9-3.3-2.5-4.8-3.5-1,1.4-3.1,3.1-7.5,3.3-.7,0-1.4,0-2.1,0-1,0-1.9,0-2.6,0-.6,0-1.2,0-1.7,0-1,0-1.5,0-1.8.1-.4,2-2.3,3.2-4,3.7h0c1.3,1.3,1.4,2.8,1.4,2.9h-.4c0,.7,0,1.5-.3,2.3-.4,1.2-1.4,2.2-2.8,2.9-.2.1-.4.2-.5.3-.1,0-.2,0-.2,0-.6.3-1.4.4-2.2.5-.2,0-.4,0-.6,0Z"/>
    <path class="cls-12" d="M57.8,22.2s0,0,0,0h0s0,0,0,0Z"/>
  </g>
  <g>
    <path class="cls-5" d="M57.7,47.5c-1.4-.3-2.5-.2-2.5-.2,0,0-2-1.2-2-3.2,0-2,.6-2.5,2.2-3.5s2.6-1.3,2.9-2c.3-.7.5.1.3.6-.2.5.6-.5.5-1.6,0-1.1.8-2.9.5-4s.6-3.1-.5-4.9c-1.1-1.7-1.4-2.3-1.3-3.5.1-1.1.3-3.7-.9-4.8-1.3-1.2-11.4,4.1-11.4,4.1,0,0,.3,1.1-1.3.8-1.6-.3-4.9-1.1-8.1-.4-3.2.7-7.3,2.3-8.7,3.6-1.5,1.3-2,1.2-2.4,2.2,0,0,.7-.9,1.2-.5.4.4-2.2,2.5-3.1,4.1-.9,1.7-1.5,7-.9,8.5.6,1.6,1.4,3.7,1.4,4.9s.4,1.7-.8,1.9c-1.2.2-2.8.2-3.7.7.1,0,1.9-.7,1.7.2-.2.9-3.8.7-5.1,1.9s-2.8,2.4-2.9,5.1c0,0,.3-1.8,1.3-1.6,1,.2-2.5,2.5.1,5.8,2.6,3.3,4.2,3.3,5.9,3.2,1.7,0,3.8-1.1,4.4-2.8.5-1.4,0-2.5-.2-2.9.2.2.6.6.8,1.1,0,0,0-1.1-1-2s-.5-2.1.6-2.4c1-.3,2.9-1.1,3.1-2.8s3.3-.9,9.5-1c6.2-.2,7-3.9,7-3.9-1.1-.7-1.9-1.4-2.6-2-2.2-2-2.3-3.1-2.3-3.1v-3.9l9.2,2.3s0,0,0,0c.1.1,3.3,4.1,5.4,6.3,2.1,2.2,3.9,2.5,3.9,2.5-1.3-.5-1-.6-.4-.5s.9.1,1.4,0c.6-.2,0-2.2-1.4-2.4ZM56,35c-.2.8-.3,2.2-1.1,2.6.5-.6.9-2.6.7-2.9,0,0,0-.2-.1-.3,0-.1.1-.4.2-.8,0-.5.6.5.4,1.4Z"/>
    <path class="cls-4" d="M57.9,21.2c.3.5,0,1.2,0,1.2,0,0,0-.6-.5-.8-.4-.2-.8.2-.6.4.2.2.9.1.9.1,0,0-.3.2-1,.2-.7,0-1.5.5-1.2.7.3.1,1-.2,1-.2,0,0-1.2.8-2.2.8-1,0-3.6,1.5-4.3,1.8-.6.3-2.6.6-3.7,0-1.2-.6-1.4-2.5-2.6-3.1-1.2-.6-1.8-2.1-2.2-2.9-.2-.4,0-1.3.1-2.1,0,0,0,0,0,0,.1-.3.3-.7.4-.9,0,0,0-.2.1-.2h0s.2-.2.8-.1c.2,0,.3,0,.5.1,0,0,.5-.6,1-1,.5-.5,1.6-1.1,2.3-1,.7.1,1.3.8,2.2.7,0,0-.8-.2-1-.4s1.7-.4,2.6,0c1,.5,1.5.7,2.2.7s2.3-1.7,2.3-1.7c.4-.3.8-.6,1.1-.8.6-.7,1.3-.7,1.7.3.4,1,0,2.3-.2,2.9-.2.6-1,1.7-1,2.4s.8,2.4,1,2.9Z"/>
    <path class="cls-11" d="M54.5,15.7s-1-.3-.5-.8,1.8-1.1,2.4-1.8,1.2-.9,1.4,0-.2,2.7-.8,3.5-.4.5-1.1,0-.1-.8,0-1.4-.2.3-.4.3-.5-.5-.5-.1-.2.4-.5.3Z"/>
    <path class="cls-10" d="M46.1,15.6s1.4-.5,2.3-.3,1.2.3,1.2.3c0,0-1.3-.2-2.1,0s-2.1.2-1.4,0Z"/>
    <path class="cls-11" d="M44.2,16.5c0,.2-.4-.1-.8,0-.4.2-.6.2-.9.6-.2.3-.7.2-.7.2,0,0,0,0,0,0,0,0,.1-.6.4-.9,0,0,.1-.1.2-.2h0s.2-.2.8-.1c.2,0,.3,0,.5.1.3.1.5.3.5.4Z"/>
    <path class="cls-8" d="M46.8,19.8c-.2,0-1.5,0-2.6-.8s-1.3-1.8-1.4-1.4c-.4,1-.9,1.4-1.2,1.3v.3c0,0,.9-.3,1.3-1.2,0,0,0-.4.4.2s1.6,1.6,3.4,1.6,2.1-.4,2.1-.4c0,0-1.4.2-1.9.2Z"/>
    <path class="cls-13" d="M63.8,54.2c-.1.6-.8.9-1.3.6-.5-.3-.6.5-3.3.5s-6.9-.9-8.5-2.3c-1.6-1.4-6.3-4.5-6.3-4.5-4.7-3.3-4.9-5.1-4.9-5.1v-3.9l9.2,2.3s3.3,4,5.4,6.3c2.1,2.2,3.9,2.5,3.9,2.5,1.3.5,2.1.8,3.5,1,1.5.2,2.3,2.1,2.2,2.7Z"/>
    <path class="cls-1" d="M32,27.6s5-1,7,0,2.9,3,4.3,3.3,1.8,1,1.8,1c0,0-.5-.7-1-.2s.7,2,1.7,1.8,1.1-2.5,1.8-4.5,1.4-3.1,2.6-2.9.6.7,2.1,1.2.2,2,0,3.8-3,6.7-3.2,9.1-2.9,4.6-5,3.5-3.1-1.7-3.1-2.8-.6,1,.5,2.2l1.1,1.2s-1.4-.9-1.8-1.3-.6,2,1,2.4-2.2,2.8-4.5,4-3.7,2.2-6.7,1.9-5.4-2.4-6-4.2-1.4-7,0-9.4c0,0-1.4,1.4-1.4,2.4,0,0-.5-.7,1-3.2s2.1-7.5,7.8-9.2Z"/>
    <path class="cls-8" d="M55.3,13.5s-1.7,1.7-2.3,1.7-1.2-.2-2.2-.7c-.9-.5-2.8-.3-2.6,0s1,.4,1,.4c-.9,0-1.5-.5-2.2-.7-.7-.1-1.7.5-2.3,1-.5.5-1,1-1,1-.1,0-.3,0-.5-.1-.6,0-.8.1-.8.1,0,0,.1-.1.2-.2.5-.3,1.5-1.1,2-1.7.5-.5,2.3-1.1,3.6-1.3,1.3-.2,3.5.9,4.1,1.1.6.2,1.7,0,1.7,0,0,0,.7-.3,1.3-.8h0Z"/>
    <path class="cls-3" d="M51.7,26.9s-1.2.5-1.5,1.9c0,0,1-1.7,2.3-1.5,0,0-.3.1-.8-.3Z"/>
    <path class="cls-7" d="M62.1,54.7s.8-.8,0-1.9c0,0,1.2.7.4,1.9,0,0,0-.2-.4,0Z"/>
    <path class="cls-7" d="M59.1,50s-.4-1.2-1.3-1.2c0,0,1.1-.4,1.3,1.2Z"/>
    <path class="cls-15" d="M54.9,37.6c-.8.4-1.4.9-1.7,1.7-.3.8-.8.2-.7-.5s-1.1-1.2-1-2.2c0-.6,0-1.2-.1-1.6h0c0,0,1.2-2.2,1.2-2.6,0-.4.2-.6.6-.3.4.3.8,0,1.1.6.3.6,1,1.1.9,2.1,0,0,.2-.7.2-1.2,0,.2.1.4.2.6,0,0,0,.1,0,.2,0,0,0,0,0-.1,0,.1,0,.2.1.3.1.3-.2,2.3-.7,2.9Z"/>
    <g>
      <circle class="cls-6" cx="52.8" cy="34.1" r=".3"/>
      <circle class="cls-14" cx="52.8" cy="34.1" r=".2"/>
    </g>
    <g>
      <circle class="cls-6" cx="52" cy="35.4" r=".3"/>
      <circle class="cls-14" cx="52" cy="35.4" r=".2"/>
    </g>
    <g>
      <circle class="cls-6" cx="53.7" cy="36.3" r=".3"/>
      <circle class="cls-14" cx="53.7" cy="36.3" r=".2"/>
    </g>
    <g>
      <circle class="cls-6" cx="52.3" cy="36.8" r=".3"/>
      <circle class="cls-14" cx="52.3" cy="36.8" r=".2"/>
    </g>
    <g>
      <circle class="cls-6" cx="53.2" cy="38.2" r=".3"/>
      <circle class="cls-14" cx="53.2" cy="38.2" r=".2"/>
    </g>
    <g>
      <circle class="cls-6" cx="55.1" cy="36.4" r=".3"/>
      <circle class="cls-14" cx="55.1" cy="36.4" r=".2"/>
    </g>
    <g>
      <circle class="cls-6" cx="54.7" cy="34.5" r=".3"/>
      <circle class="cls-14" cx="54.7" cy="34.5" r=".2"/>
    </g>
    <path class="cls-2" d="M56,35c-.2.8-.3,2.2-1.1,2.6.5-.6.9-2.6.7-2.9,0,0,0-.2-.1-.3,0-.1.1-.4.2-.8,0-.5.6.5.4,1.4Z"/>
    <path class="cls-2" d="M55.5,34.3c0-.2-.2-.4-.2-.6,0,.5-.2,1.2-.2,1.2.1-1-.6-1.5-.9-2.1-.2-.6-.7-.3-1.1-.6-.4-.3-.6-.2-.6.3,0,.4-1.2,2.5-1.2,2.6,0-.2-.1-.4-.1-.4,0,0,0,0,0,0,.2-.4,1.1-2.7,1.2-3.4,0,0,.7.8,1,.8.3,0,.8-.5.8-1.6s.3,0,.2.8c0,.7,0,1.4.6,2,.5.4.5,1,.5,1.3Z"/>
    <g>
      <circle class="cls-6" cx="52.9" cy="32.4" r=".3"/>
      <circle class="cls-14" cx="52.9" cy="32.4" r=".2"/>
    </g>
    <g>
      <circle class="cls-6" cx="54.2" cy="32.7" r=".3"/>
      <circle class="cls-14" cx="54.2" cy="32.7" r=".2"/>
    </g>
    <path class="cls-9" d="M42.6,21.1s.9.7,1.9.7,0-.5-.3-.7c0,0,1,.5,2.7.7s3-.7,4.1,0,1.5,1.1,2.7,1.1,1.8-.9,1.8-.9c0,0-.9,1.4-2.2,1.4s-.3.7-.3.7c0,0-2.2,1.4-2.9,1.7s-2.7.3-3.7-.2-1.6-2.3-2.3-2.7-1.6-1.4-1.6-1.8Z"/>
    <path class="cls-9" d="M24.4,51s-2.4,0-3.9,1.2c0,0,2.6-.8,2.7.2s-5.4,2.6-6.1,5.3-.3,3.7.9,4.6,3.3.7,3.3.7c0,0-2-.1-2.3-.7s2.6-.6,3.1.2,0,2.1,0,2.1c0,0,2.7-.9,1.2-3.7s-3.1-2.4-2.9-4,3.2-2.1,4.4-3.7.4-2.3-.3-2.2Z"/>
  </g>
</svg>