<?xml version="1.0" encoding="UTF-8"?>
<svg id="Livello_1" data-name="Livello 1" xmlns="http://www.w3.org/2000/svg" version="1.1" viewBox="0 0 76.5 76.5">
  <defs>
    <style>
      .cls-1 {
        fill: #cfc5c4;
      }

      .cls-1, .cls-2, .cls-3, .cls-4, .cls-5, .cls-6, .cls-7, .cls-8, .cls-9, .cls-10, .cls-11, .cls-12, .cls-13, .cls-14, .cls-15, .cls-16 {
        stroke-width: 0px;
      }

      .cls-2 {
        fill: #3c3c3b;
      }

      .cls-3, .cls-4, .cls-7, .cls-16 {
        isolation: isolate;
      }

      .cls-3, .cls-4, .cls-16 {
        opacity: .7;
      }

      .cls-3, .cls-14 {
        fill: #beb7bf;
      }

      .cls-4 {
        fill: #938d8c;
      }

      .cls-5 {
        fill: #c9c8cd;
      }

      .cls-6 {
        fill: #ededed;
      }

      .cls-7 {
        opacity: .1;
      }

      .cls-7, .cls-15 {
        fill: #fff;
      }

      .cls-8 {
        fill: #008451;
      }

      .cls-9 {
        fill: #b7b4bb;
      }

      .cls-10 {
        fill: #8a7762;
      }

      .cls-11 {
        fill: #99846d;
      }

      .cls-12 {
        fill: #161616;
      }

      .cls-13 {
        fill: #1d1d1b;
        fill-opacity: 0;
      }

      .cls-16 {
        fill: #e7f3ff;
      }
    </style>
  </defs>
  <path class="cls-15" d="M9.5,64.5h-2.4s-1.6,0-1.6,0v-20.2s-.2-.3-.2-.3l.2-.5v-2.6c-.2-.6-.2-1.3,0-2v-.3l.2-.2c.1-.2.3-.4.3-.4.3-.3.7-.6,1-1,.3-.4.7-.8,1.1-1.2.9-.9,1.7-1.7,2.5-2.6l1.7-1.7c.4-.4.8-.9,1.2-1.3l.6-.6h0l.2-.2.2-.4c0-.1.5-.9.6-1.1,0-.1.2-.2.2-.4v-.2h0l.3-.5c.3-.5.6-1,1-1.5,0-.1.2-.3.3-.4l.2-.2c.5-.6.9-1.2,1.3-1.6.3-.4.7-.8,1.1-1.2,0-.1.3-.3.5-.4l.4-.3c.3-.2.6-.4.9-.6,1.6-1.1,3.5-1.9,5.6-2.3.4-.1.8-.2,1.2-.2h0c.3-.4.6-.9.9-1.3h0l.3-.4c.9-1.3,1.9-2.6,2.9-3.8.4-.4.8-.8,1.3-1,.3-.2.7-.2,1-.2h.4s.9.2.9.2l.2.9c.4,1.9.6,3.8.7,5.2v.5c.2-.1.4-.3.6-.4.8-.6,1.7-1.2,2.7-1.8.4-.3,1.1-.6,1.8-.6s.8.1,1.1.3l.9.4-.2,1v.2c-.3,2-.7,3.9-1.1,5.7.3.3.5.6.8.9,1,1.1,2,2.3,2.4,3.9.3.9.3,1.8.3,2.9s0,2.4.3,3.7c1.4,1.1,2.1,2.8,2.5,4.1,0,0-.2,0,.3,0s.9,0,1.3.3c.1.2.3.2.4.2.4-.2.8-.4,1.3-.4h.6c.6,0,1.5.1,2.6.4.5,0,.9.3,1.2.3h.7s10.6,3.2,10.6,3.2v12.6s-15.7-5.7-15.8-5.7v-.6c-.3-.2-.7-.5-1.1-.8-.2-.2-.7-.5-1.1-.9h-1.2c-.4,0-1-.2-1.6-.5h-.2l-.4-.4h0l-.3.3c-.1.2-.3.3-.4.4,0,0-.2.2-.3.3,0,0-.2.2-.3.2l-.2.2h-.1c-.9.4-1.8.6-2.7.6h-.1c-1.2,0-2.2-.4-3-1.2-.4-.1-.7-.2-1-.2h-.4c-1.1,1.6-1.7,3-1.7,4.4,0,1.1.2,2.2.4,3.4.2,1,.5,2,.5,3v2h0c-.2,1.6-.7,3.2-1.5,4.7l-.4.7H9.4s.1-.5.1-.5Z"/>
  <g>
    <g>
      <g>
        <path class="cls-6" d="M34,63.4H7.6v.3c0,0-.3-.2-.4-.3h-.6v-19.2h0v-3.2c0-.5,0-1,0-1.5h0c.3-.4.7-.8,1-1.1.4-.4.8-.8,1.2-1.2,1.3-1.4,2.7-2.9,4.1-4.3l1.4-1.4c.3-.3.6-.6.9-.9.1-.1.3-.3.4-.4.3-.3.6-.6,1-.6s1,.2,1.4.4.3.2.4.2c1.1.7,2.3,1.5,3.4,2.3,1.2.9,2.5,1.8,3.7,2.7.8.6,1.6,1.1,2.4,1.7,1.4,1,2.8,2,4.3,2.8,1.1.7,2.3,1.3,3.5,1.8,1.2.5,2.4.9,3.6,1.2-.7.8-1.5,1.7-2.2,2.6-1.3,1.7-2.4,3.6-2.5,5.8s.8,4.3.9,6.5v1.8h0c0,1.5-.6,2.9-1.3,4.2l-.2-.2Z"/>
        <path class="cls-6" d="M15,63.6c0-.4.2-.9.3-1.3,0-.4.3-.7.3-1.1h0c.2-.6.4-1.3.6-1.9h0c.8-2.3,1.9-4.4,3.6-6.2.6-.7,1.2-1.3,2-1.7.5-.4,1.1-.7,1.8-.7,1.1-.1,2.2,0,3.2.6.6.3,1.1.6,1.6.9,1.2.8,2.3,1.7,3.2,2.8,1.3,1.4,2.2,3.1,2.4,5,.1,1.2,0,2.4-.3,3.6,0,0-18.7,0-18.7,0Z"/>
        <path class="cls-11" d="M25.5,56v.5c-.1.6-.2,1.1-.2,1.7-.1.6-.2,1.1-.2,1.7-.1.7-.2,1.3-.2,2-.1.6-.2,1.1-.2,1.6H7.8v.3c0,0-.3-.2-.4-.3h-.6v-19.2h0v-3.2c0-.5,0-1,0-1.5h0c.3-.4.7-.8,1-1.1.4-.4.8-.8,1.2-1.2.3.9.7,1.8,1.1,2.7,1,2,2.3,3.9,3.9,5.5,2.3,2.3,5.1,4.1,7.8,5.9.8.5,1.5,1,2.2,1.5.2.1.3.3.5.4.4.4.7.7.9,1.2.2.6,0,1.2,0,1.8v-.3Z"/>
        <path class="cls-2" d="M6.8,40.9c0-.5,0-1,0-1.5h0c.3-.4.7-.8,1-1.1,0,.9.3,1.7.7,2.4,0,.2.3.4.4.6.3.5.6.9.7,1.4.2.4.2.8.2,1.2.4,2.7,3.6,4.3,4.2,7-1.4,0-2.7-.7-3.5-1.8-.9-1-1.3-2.4-1.5-3.7,0-.8-.2-1.8-.7-2.5-.1-.2-.2-.3-.3-.4-.3-.4-.8-.7-1.1-1.2,0,0,0-.2,0-.2v-.2Z"/>
        <path class="cls-2" d="M7.3,45c.7,1.1.2,2.5.5,3.7.2,1.3,1.2,2.5.8,3.7-.7-.4-1.3-1-1.6-1.8,0-.2-.2-.4-.2-.6v-5.6c.2.2.4.4.5.6Z"/>
        <path class="cls-2" d="M7.8,63.6v.3c0,0-.3-.2-.4-.3-.2-.2-.4-.4-.6-.6v-2.8c.5,1,.8,2.1,1,3.4Z"/>
        <path class="cls-2" d="M22.5,60.8c-.5.2-.9.5-1.3.6-.4.2-.9.3-1.3.3-1.5.2-3.1.5-4.6.7v.7c1.1.4,2.4,0,3.6-.3,2-.5,4-.7,6-.7.1-.7.2-1.3.2-2-.9.1-1.8.3-2.6.7Z"/>
        <path class="cls-2" d="M25.4,56.7h-.9c-1.6.3-3.1.7-4.6,1.3-.1.1-.2.3-.2.4,1.9,0,3.7,0,5.6,0,.1-.6.2-1.1.2-1.7h0Z"/>
        <path class="cls-2" d="M17.8,59.3c.3.6-.2,1.4-.8,1.7-.6.2-1.4.2-2.1.2-1.5,0-3,.2-4.5.6.4-.6.5-1.6,0-2.3-.4-.6-1.1-1.1-.8-1.7,1-.5,2.2-.4,3.1.2.3.2.6.5,1,.7,1.1.7,2.6.6,3.9.5h.2Z"/>
      </g>
      <path class="cls-10" d="M42.2,17.1c-.5-.3-1,0-1.5.3-.9.5-1.7,1.1-2.6,1.7-.5.3-1,.7-1.5,1.1-.3.2-.5.4-.8.6,0,0-.2.3-.3.3-.3.2-.5.5-.8.7-.4.3-.7.6-1,.9,0,.1-.2.2-.2.2l-.3.3-.2.2c-.5.4-.9.9-1.2,1.4,0,.2-.2.3-.2.5.2.1.3.3.5.4.5.5,1,.9,1.5,1.4.6.6,1.3,1.2,2.1,1.4.6,0,1.2,0,1.7-.2.6-.2,1.2-.6,1.7-1,.1,0,.3-.2.4-.3.2-.2.5-.4.7-.7.2,0,.2-.2.2-.3.1-.2.2-.4.2-.6s.2-.6.2-.9c.1-.2.2-.5.2-.8.5-2.1.9-4.2,1.2-6.3v-.2s0-.1,0-.1Z"/>
      <path class="cls-2" d="M40.7,17.5c-.9.5-1.7,1.1-2.6,1.7-.5.3-1,.7-1.5,1.1-.3,0-.5-.3-.7-.3,0,.2-.3.4-.3.6v.2c.1.1.2.1.2.1h0c.3.1.7.3,1,.4.4.1.8.2,1.1.1.2,0,.3-.2.4-.3.2-.1.3-.3.4-.5.2-.2.4-.5.6-.7.8-.9,2.1-1.5,2.9-2.5h0v-.2c-.5-.3-1,0-1.5.3Z"/>
      <path class="cls-6" d="M45.8,40c0-1.6-.6-3.1-.9-4.6-.7-3.1-.3-5.6-.7-7.2-.5-1.7-1.9-3-3-4.4,0-.1-.3-.3-.3-.4h0c-.7-1.1-1.3-1.7-2-2.1-.2-.1-.5-.3-.7-.4-.4-.2-.9-.4-1.5-.7h-.2c-.3,0-.5-.3-.7-.3,0-.1-.3-.2-.5-.2-.4,0-.8-.3-1.2-.3-.4-.1-.9-.1-1.3-.1h-.5c-.6,0-1.2,0-1.8,0-.5.1-1,.1-1.5.1h0c-.6,0-1.2.2-1.7.3-2.9.6-5,1.8-6.3,2.9h0c-.2.1-.4.3-.5.4-.3.3-.7.6-1,1-.4.5-.8,1-1.2,1.6-.2.2-.3.5-.5.7-.3.5-.7,1.1-1,1.6-.5.8-.9,1.5-1.2,2.1,0,.2-.2.4-.2.5,0,.7.3,1.2.7,1.6l.2.2c.3.4.6.7.9,1.1.3.4.7.9,1,1.3,1.5,1.9,3.3,3.6,5.3,5,.2,0,.3.3.4.3,1.2.8,2.5,1.6,3.8,2.3.8.5,1.5.9,2.3,1.3,0,0,.2,0,.2,0,.3.2.7.4,1,.6.7.4,1.4.7,2.1.9,1.3.3,2.7,0,4,0h0c1,0,1.9.4,2.8.4,1.7.2,3.5-.7,4.6-2.1.4-.5.7-1,.9-1.6,0-.4.3-.8.3-1.3v-.4s0-.2,0-.2Z"/>
      <path class="cls-11" d="M41.3,27.1c-.3-.3-.7-.6-.9-1,0,0,0-.3,0-.3,0-.5,0-.9.5-1.3,0-.1.3-.3.5-.4,0-.1-.3-.3-.3-.4h0c-.7-1.1-1.3-1.7-2-2.1-.2-.1-.5-.3-.7-.4-.4-.2-.9-.4-1.5-.7h-.2c-.3,0-.5-.3-.7-.3,0-.1-.3-.2-.5-.2-.4,0-.8-.3-1.2-.3-.4-.1-.9-.1-1.3-.1h-.5c-.6,0-1.2,0-1.8,0-.5.1-1,.1-1.5.1h0c-.6,0-1.2.2-1.7.3-2.9.6-5,1.8-6.3,2.9h0c-.2.1-.4.3-.5.4-.3.3-.7.6-1,1-.4.5-.8,1-1.2,1.6-.2.2-.3.5-.5.7-.3.5-.7,1.1-1,1.6-.5.8-.9,1.5-1.2,2.1,0,.2-.2.4-.2.5-.3.3-.6.6-.9.9-.5.5-.9.9-1.4,1.4.4.4.8.7,1.3,1,.1.1.3.2.4.2,1,.5,2.2.7,3.3.7,1,0,1.9-.4,2.6-1.1s.8-.9,1.2-1.2c.3-.3.7-.4,1.1-.4.5,0,1,.5,1.3,1,.5.6.9,1.4,1.3,2.1s.7,1.5,1.2,2.2c.9,1.4,2.3,2.6,4,2.6s.9,0,1.4-.3,1-.5,1.5-.7c2-.9,5.9-.9,8.1-.6.7-1.3.7-2.7.7-4.1s.1-1.2.2-1.8c.4-2,0-4.2-1.5-5.6Z"/>
      <path class="cls-12" d="M37.7,32.1c.3-.2.6,0,.9.2,1,.8,2.1,1.4,3.3,2,0,.4-.4.6-.5,1v.6c.1.4.1.8.1,1.2-.4-.7-.9-1.3-1.5-1.8-.3-.3-.7-.5-1-.8-.6-.6-.9-1.5-1.2-2.3h-.1Z"/>
      <path class="cls-2" d="M45.7,40.7c-.3-.2-.5-.2-.8-.2h-.2s0,.2,0,.2c.1.5,0,1,0,1.5,0,.4-.2.8-.3,1.1v.2c0,0,.2,0,.2,0,.4-.5.7-1,.9-1.6,0-.4.3-.8.3-1.3h-.1Z"/>
      <path class="cls-2" d="M17.5,30.9c-.1-.1-.3-.2-.4-.2-.5-.1-.9-.3-1.3-.4h-.2c0,.2-.2.4-.2.5-.3.3-.6.6-.9.9.3.1.5.3.8.4.2,0,.4.3.7.3h.3c.6,0,1.2,0,1.7-.2.3-.5,0-1-.5-1.3Z"/>
      <path class="cls-2" d="M27,32.3c.2-1-.4-2-1.1-2.7-.8-.8-1.7-1.5-2.8-1.6-1-.2-2.1.3-3.1,0h-.2c-.8-.2-1.4-.9-2-1.4-.3.5-.7,1.1-1,1.6.5.4,1,.9,1.6,1.2h.2c1.7.6,3.7-.7,5.4,0,1.3.5,1.8,2,2.9,2.9h0Z"/>
      <path class="cls-2" d="M26.7,28.5c.4-.5-.3-1.1-.9-1.4-1-.5-2.1-1-3.1-1.5-.2,0-.5-.2-.7-.3-.4-.1-.8-.3-1.2-.5-.4-.2-.8-.4-1.3-.5-.4.5-.8,1-1.2,1.6.6.5,1.2.9,1.9,1h.5c.8.1,1.5-.1,2.3-.1,1.4,0,2.8.7,3.7,1.8h0Z"/>
      <path class="cls-2" d="M32.3,20.6c.5-.3.8-1,.5-1.5h-.6c-.6,0-1.1-.2-1.7-.2-.5-.1-.9-.1-1.4-.1h0c0,.2-.2.4-.3.6h0c-.6,0-1.2.2-1.7.3-2.9.6-5,1.8-6.3,2.9h.2c1,.2,2.1.3,3.1.6,1.1.3,2,.8,2.7,1.6.7.9,1.2,2,2.2,2.3.3,0,.6,0,.8-.2v-.7c0-.3,0-.7,0-1,0-1.1,0-2.3.7-3.1.2-.1.3-.3.5-.4.2,0,.5-.3.7-.3h0c.3-.1.6-.2.9-.4l-.2-.4Z"/>
      <path class="cls-2" d="M29,35.6c1-.4,2.1-.3,3.2-.4s2.2-.6,2.6-1.6c.1-.3.2-.5.2-.8.4-1,1.7-1.7,2.7-1.3,1,.4,1.6,1.7,1.2,2.7-1.2-.5-2.7.7-2.6,2-1.1.4-2.3-.4-3.5-.4s-3.1,1.4-4.5.7c-.1-.4.4-.8.8-1h-.1Z"/>
      <path class="cls-2" d="M32.7,23c.8.2,1.7,0,2.3-.6.5-.5,1.1-1.2,1.7-.9,0,.5.4.9.8,1.2.4.3.9.5,1.1,1,.2.4,0,1.1-.5,1.1-.4,1.1.6,2.1,1.5,2.8s2,1.5,2,2.6c-1.3-.2-1.9-2-3.2-1.9-.4,0-.7.2-1,0-.3,0-.3-.5-.3-.8,0-1-.8-2-1.6-2.7s-1.8-1.1-2.8-1.6v-.2Z"/>
      <path class="cls-13" d="M22.8,39.4c3.2,1.9,7,2.8,10.7,2.4.6-.1,1.3-.2,2-.2h.8c.7,0,1.3.3,1.9.5,2.1.6,4.3.6,6.3,0,.3,0,.5-.2.8-.2-.2.6-.5,1.1-.9,1.6-1.1,1.3-2.8,2.2-4.6,2.1-1,0-1.9-.4-2.8-.4-1.3,1.7-2.4,3.6-2.5,5.8s.8,4.3.9,6.5v1.8h0c0,1.5-.6,2.9-1.3,4.2h-2.8v-1c-.1-.9-.4-1.8-.2-2.6.2-.5.5-.9.7-1.4.5-1.2,0-2.4-.2-3.7,0-.7-.3-1.5-.3-2.2s0-1,.3-1.5c.5-1.4,1.3-2.8,1-4.3-.2-1.4-1.4-2.4-2.7-3.1-.6-.3-1.3-.6-1.9-.8-1.8-.7-3.8-1.5-4.6-3.1-.2-.2-.3-.4-.3-.6h-.3Z"/>
      <path class="cls-7" d="M6.7,40.1h0c.3-.4.7-.8,1-1.1.4-.4.8-.8,1.2-1.2,1.3-1.4,2.7-2.9,4.1-4.3l1.4-1.4c.3-.3.6-.6.9-.9,0-.2.2-.3.2-.5.3-.6.7-1.3,1.2-2.1.3-.5.6-1.1,1-1.6.2-.2.3-.5.5-.7.4-.6.8-1.1,1.2-1.6.4-.3.7-.7,1-1,.2-.1.3-.3.5-.4h0c1.3-1.1,3.4-2.3,6.3-2.9.5,0,1.1-.3,1.7-.3h0c0-.2.2-.4.3-.6.4-.5.7-1.1,1.1-1.6h1.2c.5.1.9.2,1.4.2.2.1.5.1.7.1.5.1,1,.3,1.5.4.1.6.2,1.2.2,1.8,0,.1.3.2.5.2.3,0,.5.2.7.3h.2c.6.3,1.1.5,1.5.7.3.1.5.3.7.4-.8.1-1.5.2-2.3.2h-1.1c-.2,0-.5,0-.8,0h-.7c-.9.1-1.7.2-2.6.2h-.9c-.5,0-.9,0-1.3,0h-.2c-.6,0-1.1.1-1.7.1s-.9.1-1.3.2c-.6.1-1.2.3-1.8.6h0c-.9.4-1.6,1.1-2.3,1.9-.4.4-.7.9-1.1,1.3-.1,0-.2.3-.2.3-.2.4-.5.7-.8,1.1-.4.5-.8,1-1.2,1.5-.2.2-.3.4-.5.6-.2.3-.5.6-.7.9-.4.4-.8.9-1.2,1.4h0c-.5.7-.9,1.2-1.4,1.8-1.4,1.8-2.9,3.7-4.4,5.5,0,0-.3.2-.3.3-.4.5-.8,1-1.2,1.5-.2.4-.5.7-.8,1.1-.5.6-.9,1.1-1.3,1.7v-3.2c0-.4,0-.9,0-1.4v.5Z"/>
      <path class="cls-11" d="M35.5,21.7v-.5h0v-1.3c-.1-.6-.2-1.2-.2-1.8-.2-1.7-.4-3.4-.7-5.1-.2-.1-.4,0-.6,0-.3.1-.6.4-.8.6-1,1.2-1.9,2.4-2.8,3.7-.4.5-.7,1-1.1,1.6h0c0,.2-.2.4-.3.6h0c-.2.5-.5.9-.7,1.3-.3.5-.6,1-.8,1.6-.2.5-.4,1-.4,1.5l1.8.9.6.3c.2.1.3.2.5.2.6.3,1.3.5,2,.5h.2c.9-.2,1.7-.9,2.3-1.7.2-.2.4-.5.6-.8s.5-.6.5-.9v-.4h0c0-.1,0-.3,0-.3Z"/>
      <path class="cls-2" d="M33.8,13c-.3.1-.6.4-.8.6-1,1.2-1.9,2.4-2.8,3.7-.4.5-.7,1-1.1,1.6h0c0,.2-.2.4-.3.6h0c-.6,0-1.2.2-1.7.3-.1,0-.2.3-.2.3-.2.3-.5.7-.7,1.1s-.2.9-.2,1.4c.2,1,.8,1.9,1.7,2.3.4.2.9.3,1.1.7v-.8c0-.8.1-1.7.4-2.5.3-.9.7-1.9,1.2-2.8.1,0,.2-.2.2-.3.1-.2.3-.5.4-.7.2-.3.4-.7.6-1,.7-1.4,1.5-2.7,2.2-4.1.1-.1.2-.2.2-.3h-.2Z"/>
      <path class="cls-2" d="M34.3,20.2v-1.8c-.2.1-.4.3-.4.5,0-1.4,0-2.7.2-4-.7,2-1.5,4.1-2.2,6.1-.3.9-.7,1.8-.7,2.8s0,1,.5,1.1c.3.1.7-.2.9-.4.6-.6,1-1.4,1.4-2.2s.5-.9.7-1.4c0-.3.2-.6,0-.8-.2-.3-.6-.3-.6,0h0Z"/>
    </g>
    <path class="cls-4" d="M42.1,46.7c-1.7,0-3.9-1.4-2.9-6.5,1.1-5.2,4.6-5.2,4.6-5.2,0,0,2.2,2.4,2.2,4.6-.1,2.2-3.3,3.6-5,3.7-1.7.2,0,.8,1.8.8,1.8,0,2.6-.3,3.2-1.1.7-.7.4,2.1-1.7,3.4h0c-.8.4-1.5.5-2.1.5v-.2Z"/>
    <path class="cls-3" d="M42.1,44.4c-2-.1-2.8-.8-1.1-.9,1.7-.2,5-1.5,5-3.7,0-2.2-2.2-4.6-2.2-4.6,3.4.8,3.8,5.5,3.8,5.5-.3,3.4-1.8,5-3.3,5.7h0c2.1-1.4,1.7-3.1.7-2.6s-2.1.5-2.8.5h-.1Z"/>
    <path class="cls-16" d="M43.3,40.3c-.6-.4-3-.8-2.9-1.3s.4-1.4,1.5-1.1c1.1.3,3,2.2,3,2.2.6.6-1,.6-1.6.2Z"/>
    <path class="cls-5" d="M57,41l9.4,2.8v9.5s-13-4.8-13-4.8c.4-6,3.6-7.5,3.6-7.5Z"/>
    <path class="cls-9" d="M52.3,44.5c.8-2.3,2.6-3.9,2.6-3.9.8.2,1.4.4,1.4.4h.7s-3.2,1.5-3.7,7.5v-.3s-.7-.5-1.5-1.1c0-.6.1-1.4.5-2.6Z"/>
    <path class="cls-1" d="M50.9,41l-.7,4.9s-.6.2-1.4,0-1.7-.5-1.7-1-.7,0-1.1-.9-.2-1.9.1-2.4.6-.9.9-1.2,1.2.2,1.5,0,.5-.4,1.2,0,1.3.4,1.3.4v.2Z"/>
    <path class="cls-8" d="M49.9,45.2c-.7-.9-.5-2,.2-3.2s1.2-1.6,2.2-1.8c.5,0,1.7.2,2.6.4,0,0-1.8,1.6-2.6,3.9-.5,1.2-.5,2.1-.5,2.6-.8-.7-1.7-1.4-2-1.9h0Z"/>
    <path class="cls-14" d="M47.5,45.4c-.8-1,.3-3.7.3-3.7-1.9,2.7-.3,3.7-.3,3.7Z"/>
  </g>
</svg>