<?xml version="1.0" encoding="UTF-8"?>
<svg id="Livello_1" data-name="Livello 1" xmlns="http://www.w3.org/2000/svg" version="1.1" viewBox="0 0 56.7 43.5">
  <defs>
    <style>
      .cls-1 {
        fill: #543b2a;
      }

      .cls-1, .cls-2, .cls-3, .cls-4, .cls-5, .cls-6, .cls-7, .cls-8, .cls-9, .cls-10, .cls-11, .cls-12, .cls-13 {
        stroke-width: 0px;
      }

      .cls-2 {
        fill: #ad676a;
      }

      .cls-3 {
        fill: #bf8985;
      }

      .cls-4 {
        fill: #efd2c1;
      }

      .cls-5 {
        fill: #e5beb1;
      }

      .cls-6 {
        fill: #e3bdaf;
      }

      .cls-7 {
        fill: #d2a896;
      }

      .cls-8 {
        fill: #b17c7b;
      }

      .cls-9 {
        fill: #9c3c3f;
      }

      .cls-10 {
        fill: #a65557;
      }

      .cls-11 {
        fill: #432d1c;
      }

      .cls-12 {
        fill: #f5dcd0;
      }

      .cls-13 {
        fill: #fff;
      }
    </style>
  </defs>
  <path class="cls-13" d="M.3,43.5l1.4-2c1.8-2.6,5.9-3.6,6.3-3.8h0s2.8-.9,5.2-2c.2-.7.6-1.5,1.5-2.4-.2-.4-.4-.9-.6-1.5-.4-1.7.6-2.7,1.3-3.5,0,0,0,0,.1-.1-.7-.4-1.6-1.1-2.3-2.2-1-1.5-1-3.2-1.1-4.8,0-1.1,0-2.1-.3-3-.7-2.2.5-4.8,1.5-6.8.4-.8.8-1.6.8-2,.2-1.3,1.3-2.1,2.5-2.9l-1-.6c.3-.8,1-2.1,3.3-2.1s.9,0,1.4.1c0,0,.2,0,.2,0,.4-1.4,1.6-2,3.1-2.8.3-.2.6-.3,1-.5C25.3.2,26,0,26.8,0,28.7,0,30.2,1.2,31,1.8l.2.2c.3.3,1.1.6,1.9,1,.8.4,1.6.8,2.4,1.2,1.9,1.1,2.9,3.4,3,3.6l-.7.4c.4.6.8,1.2,1.4,1.7,1.8,1.4,2,2.3,2.4,3.9,0,.5.2,1,.4,1.6.6,2.1-.2,3.8-.8,4.7-.2,1.7-.7,3.1-1.4,4-.9,1.2-1.7,1.7-2.5,2.2-.2.1-.5.3-.7.5-.3.6-.2,3,.2,4.9,0,.4.9,1.2,2,2.1h0l.3.2c2.6,1.4,5,2.6,5.7,2.7,1.4.4,3.3.8,3.7.9,7.5.9,8.2,3.6,8.2,4.4v1.3S.3,43.5.3,43.5Z"/>
  <g>
    <path class="cls-11" d="M21.6,4.6s-.2.7-1.5.5-2.9-.3-3.3,1.1c0,0,1.3-1.4,2.2-.5s-3.3,2.2-3.6,3.8-3.2,5.7-2.4,8.3-.2,5.3,1.2,7.4,3.2,2.3,3.2,2.3c0,0-2.8-1.1-2.7-2.7s2.9.4,2.7,2.3-2.6,2.5-2.1,4.5,1.4,1.9,1.4,1.9c0,0-1.6-.8-1-2.6s1.7,1.5,0,3.1-1.5,3-1.5,3c0,0,4.5-1.7,6.7-2.8,2.3-1.1,17.3.9,17.3.9,0,0-2.5-1.8-2.8-3.1s-1-5.3.2-6.2,1.9-1.1,3-2.5,1.7-5.2.9-7.9,1.5.6,1,2.4-1.3,2.5-1.3,2.5c0,0,2.1-1.9,1.3-4.5s-.3-3.3-2.3-4.9-2.2-3.9-3.6-4.4,1.3-.2,2.5,1.8c0,0-.9-2.1-2.5-3s-3.6-1.7-4.4-2.3-2.9-2.6-5.2-1.3-3.3,1.6-3.6,3Z"/>
    <path class="cls-5" d="M35.1,20.1s-.6,6.7-.5,7.6.2,5.1.9,5.7,7.3,4.1,8.9,4.6,3.8,1,3.8,1H12.6s3.1-2.6,4.9-3.3,4.3-7.1,4.3-7.1l13.3-8.5Z"/>
    <path class="cls-7" d="M34.7,20.7s-.5.9.5,1.2,1.1.8,1.6.8.7-.4.7-1.1.2-1.3.2-2.2-.2-1.5-.9-1.8-1.2.1-1.2.1l-1,2.9Z"/>
    <path class="cls-4" d="M23.6,4.5s3.9-.8,5.9.5,4.2,3.4,4.7,5.4c.5,2.1,1.7,4.7,1.8,6.4s-1.4,4.1-1.8,5.5.3,9.6.5,10.9,1,8.3-1,9.1h-11s-1.4-5.3-1.8-8.6-.3-9.1-.3-9.1c0,0-2.7-5-2.8-5.6s0-4.7,0-4.7l1.6-4.3s1.6-5.2,4.2-5.4Z"/>
    <path class="cls-6" d="M8.3,39s5.3-1.7,7.7-3.2,2.9-1,3.6-2.7.5-6.5.5-7.1-1.6-2.8-1.6-2.8c0,0-2-4.2-1.5-6.9s1.5-4.8,1.7-6.4,2.5-5.3,5.6-5.4-1.8.3-3.4,3.1.1,3.6-.5,4.4-2.3,2.7-2.1,4.6.5,3.8,1.9,4.9,2.1,1.9,1.5,4.6c-.6,2.7-.7,6.2-.7,7.5v5.5h-3.8s1.7-.8,2.1-2.2-3.2.2-4.2,1-1.4,1.2-1.4,1.2h-5.3Z"/>
    <path class="cls-7" d="M17.2,18.4s-1.1,0-1.5.9.2,1.8.2,2.6-.1,1.5.9,1.7,1.9-.8,1.9-.8l-1.4-4.3Z"/>
    <path class="cls-12" d="M23.4,21s1.5,2.5,1.4,4.4-.3,4,.3,5.4.5,4,1.7,4.5,2.9.6,3-1.8,1.2-6.1.3-7.7-.2-5.1.7-6.2-2.7-1.2-3.7-1.7-4.6,2.3-3.7,3.2Z"/>
    <path class="cls-6" d="M18.6,18.9s1.2,1.9,2.6,1.5,3.1-4.5,6.1-4.3c3,.3,3.9,1.1,3.9,1.1,0,0-3.4-1.2-5.4-.3s-4.1,3.9-4.1,4.8.3,1.5.2,2.6-3.5-2.8-3.3-5.3Z"/>
    <path class="cls-1" d="M28.8,5.8s-.3.4,0,.8,1.1.2,1.9.2,2.6,1.6,2.6,1.6c0,0-1.2-1.7-1.9-2.1s-2.2-.8-2.6-.5Z"/>
    <path class="cls-1" d="M19.2,9s2.2-2,3.2-2,1.5.3,1.7,0-.2-.5-.5-.7-2,.1-2.8.8-1.5,1.9-1.5,1.9Z"/>
    <path class="cls-1" d="M20.3,10.6s.9-1.4,2.1-1.4,1.7.6,1.7.6c0,0-2.1-1.1-3.8.8Z"/>
    <path class="cls-1" d="M29.2,9s1-.8,2.1-.3,1.4,1.2,1.4,1.2c0,0-1.5-1.7-3.5-.9Z"/>
    <path class="cls-7" d="M24.9,11s-.7-.4-.5-1.2.7-1.2.7-1.2c0,0-1.1.6-.9,1.9s.8.5,1.8.5-.6-.1-1.1,0Z"/>
    <path class="cls-1" d="M27.5,9.2s-.2.1,0,.3.2.5.6.4.2-.5,0-.7-.6-.3-.6,0Z"/>
    <path class="cls-1" d="M26.2,9s-.9.2-1,.5,0,.3.4.5.6-.5.9-.5,0-.6-.3-.5Z"/>
    <path class="cls-3" d="M23.4,14s.8-1.7,1.7-2.4.8-.6,2-.6,1-.4,2.2.5,1.3,1.9,1.3,1.9c0,0-1.5-1.1-2.7-1.2s-2.1,0-2.7.5-1.9,1.3-1.9,1.3Z"/>
    <path class="cls-8" d="M23.4,14s.4,0,1.2-.5,2.4-.8,3.6-.7,2.4.6,2.4.6c0,0-.6-.9-2.7-1.2s-2.4.3-3.4.9-1.1.9-1.1.9Z"/>
    <g>
      <circle class="cls-2" cx="20.7" cy="25.6" r="1.7"/>
      <circle class="cls-10" cx="20.7" cy="25.6" r="1.2"/>
      <circle class="cls-9" cx="20.7" cy="25.6" r=".8"/>
    </g>
    <g>
      <circle class="cls-2" cx="22.4" cy="29.6" r="2.1"/>
      <circle class="cls-10" cx="22.4" cy="29.6" r="1.5"/>
      <circle class="cls-9" cx="22.4" cy="29.6" r=".9"/>
    </g>
    <g>
      <circle class="cls-2" cx="21.4" cy="33.8" r="1.8"/>
      <circle class="cls-10" cx="21.4" cy="33.8" r="1.3"/>
      <circle class="cls-9" cx="21.4" cy="33.8" r=".8"/>
    </g>
    <path class="cls-6" d="M8.3,39s-4,1-5.6,3.3h27.7s-6.6-2.3-8.6-5.2-8.6,1.6-13.5,2Z"/>
    <path class="cls-6" d="M33,39.1s-2.1,2.8-6.1,3.1h28.5s0-2.4-7.2-3.3c-7.1-.8-12-4.1-12-4.1l-3.2,4.3Z"/>
  </g>
</svg>