<?xml version="1.0" encoding="UTF-8"?>
<svg id="how_to_prevent" data-name="how to prevent" xmlns="http://www.w3.org/2000/svg" viewBox="0 0 32 32">
  <defs>
    <style>
      .cls-1 {
        fill: #fff;
      }

      .cls-2 {
        fill: #3c6277;
      }

      .cls-3 {
        fill: #77a8c7;
      }

      .cls-4 {
        fill: #82b7d9;
      }
    </style>
  </defs>
  <g id="ic_avoid_raw_meat">
    <g>
      <polygon class="cls-2" points="7.03 6.29 5.1 8.77 25.58 24.68 27.51 22.19 7.03 6.29 7.03 6.29"/>
      <path class="cls-2" d="m16.16,4.68c5.73,0,10.6,4.3,11.31,10,.38,3.03-.44,6.02-2.31,8.43-1.87,2.41-4.57,3.95-7.6,4.33-.48.06-.96.09-1.44.09-5.73,0-10.6-4.3-11.31-10-.79-6.25,3.66-11.97,9.91-12.76.48-.06.96-.09,1.44-.09m0-4c-.64,0-1.29.04-1.94.12C5.77,1.86-.22,9.57.84,18.03c.98,7.8,7.62,13.5,15.28,13.5.64,0,1.29-.04,1.94-.12,8.45-1.06,14.44-8.77,13.38-17.23-.98-7.8-7.62-13.5-15.28-13.5h0Z"/>
    </g>
    <g>
      <path id="Tracciato_175" data-name="Tracciato 175" class="cls-4" d="m6.9,16.83l.35,2.86s1.51,5.63,8.32,2.07,2.74-3.95,14.39-8.91l-.28-3.3s-7.19-3.29-15.49-1.16c-8.3,2.13-7.5,6.53-7.29,8.44Z"/>
      <path id="Tracciato_176" data-name="Tracciato 176" class="cls-3" d="m7.75,15.65s2.48,8.1,11.92-.67c0,0,2.69-2.57,7.28-3.97,0,0,3.92-.95-1.43-2.05s-13.33-.37-15.8,1.94-1.97,4.74-1.97,4.74Z"/>
      <path id="Tracciato_177" data-name="Tracciato 177" class="cls-3" d="m6.86,16.52s2.02,7.94,11.93.13c0,0,3.33-3.33,7.8-5,0,0,2.98-.77,3.16-1.53l.34,2.8s-.49.52-2.33,1.03-5.19,2.15-8.39,5.27c0,0-8.41,7.68-12.08.92l-.45-3.63Z"/>
      <path id="Tracciato_220" data-name="Tracciato 220" class="cls-1" d="m12.06,14.71c1-.12,1.85.23,1.93.88s-.66,1.23-1.66,1.35-1.89-.25-1.97-.91.7-1.21,1.71-1.33Z"/>
    </g>
  </g>
</svg>