<?xml version="1.0" encoding="UTF-8"?>
<svg id="Livello_1" data-name="Livello 1" xmlns="http://www.w3.org/2000/svg" xmlns:xlink="http://www.w3.org/1999/xlink" version="1.1" viewBox="0 0 204.6 281.4">
  <defs>
    <style>
      .cls-1 {
        fill: #3b525b;
      }

      .cls-1, .cls-2, .cls-3, .cls-4, .cls-5, .cls-6, .cls-7, .cls-8, .cls-9, .cls-10 {
        stroke-width: 0px;
      }

      .cls-2 {
        fill: url(#linear-gradient);
      }

      .cls-3 {
        fill: #4b2a11;
      }

      .cls-4 {
        fill: #614028;
      }

      .cls-5 {
        fill: #96c7e2;
      }

      .cls-6 {
        fill: #4e6c7a;
      }

      .cls-7 {
        fill: #82b7d9;
      }

      .cls-8 {
        fill: url(#linear-gradient-2);
      }

      .cls-9 {
        fill: #5b798c;
      }

      .cls-10 {
        fill: #77a8c7;
      }
    </style>
    <linearGradient id="linear-gradient" x1="237.9" y1="234" x2="239.9" y2="234" gradientTransform="translate(495.2 154.9) rotate(-146.5) scale(1 -1)" gradientUnits="userSpaceOnUse">
      <stop offset="0" stop-color="#fff"/>
      <stop offset="1" stop-color="#babcbe"/>
    </linearGradient>
    <linearGradient id="linear-gradient-2" x1="241.4" y1="236.4" x2="259.7" y2="236.4" xlink:href="#linear-gradient"/>
  </defs>
  <g>
    <path class="cls-2" d="M165.4,218.5c.5,0,1,.6,1.4,1,.4-.5.8-1,1.1-1.5,0,0,0,0,0,0-.3.5-.7,1.1-1.1,1.5,0,0,0,0,0,0,0,0,0,0,.1.1.2-.4.5-.7.7-1.1.2-.3.4-.7.7-1-.5-.3-1.1-.7-1.6-1.1-.2.4-.5.8-.7,1.1-.2.3-.4.6-.6.8ZM166.7,219.2c.2-.3.5-.6.7-.9,0,0,0,0,0,0-.2.3-.4.6-.7.9,0,0,0,0,0,0ZM166.9,218.9c0,0,.2-.2.2-.3,0,0,0,0,0,0,0,0-.2.2-.3.3,0,0,0,0,0,0ZM166.8,218.9c0-.1.2-.2.3-.3,0,0,0,0,0,0,0,.1-.2.2-.3.3,0,0,0,0,0,0Z"/>
    <path class="cls-9" d="M167.1,219.8c.7.7,1.4,1.4,2.2,1.9.9.6,1.8,1.1,2.7,1.6.8.5,1.5,1.1,2.1,1.8.4.5.8,1,1.4,1.2.6.2,1.2,0,1.7-.4.5-.3.9-.8.9-1.4-.2.9-1,1.7-2,1.7,0,0,0,0,0,0,1.1-.2,1.8-.8,2-1.9,0-.1,0-.2-.1-.3-.3-.5-1-.8-1.5-1.1-.9-.6-1.8-1.2-2.8-1.8-1.7-1.2-3.5-2.3-5.3-3.4,0,0,0,0,0,0-.1.4-.4.7-.6,1-.2.4-.5.7-.8,1.1ZM169,220.1c-.2-.4-.1-.8.2-1,.4-.3,1-.1,1.4,0,0,0,0,0,0,0-.5-.2-1.6-.4-1.6.5,0,.6.6,1.1,1,1.4.9.7,2,1.2,2.9,1.8.5.3.9.6,1.4,1,.4.4.8.8,1.2,1.2.5.5,1.3.5,1.8,0,.3-.2.4-.5.4-.9,0-.3-.3-.6-.5-.8,0,0,0,0,0,0,.3.3.6.5.6,1,0,.4-.3.7-.7.9-.4.2-.9.3-1.3.2-.2,0-.4-.2-.5-.4-.2-.3-.4-.5-.7-.7-.9-.9-2-1.5-3.1-2.2-.5-.3-1.1-.7-1.6-1-.4-.3-.8-.6-1-1.1ZM169,219.1s0,0,0,0c-.3.3-.3.6-.2,1,0,0,0,0,0,0-.2-.3,0-.8.2-1ZM167.7,220c0-.3.1-.6.3-.9,0,0,0,0,0,0-.2.3-.3.5-.3.8,0,0,0,0,0,0ZM168.3,218.5s0,0,0,0c-.5.4-.7.9-.8,1.5,0,0,0,0,0,0,0-.6.3-1.2.8-1.5Z"/>
    <path class="cls-5" d="M162.8,219.6c-.6-.4-1.2-.7-1.8-1.1-.6-.4-1.1-.8-1.7-1.2-1.9-1.4-3.7-3-5.4-4.8-.8-.8-1.5-1.6-2.2-2.4-.8-.9-1.5-1.8-2.1-2.8.9,0,1.8,0,2.7.1.7,0,1.3.6,1.9,1,.8.5,1.5,1,2.3,1.4,1.5.9,2.9,1.9,4.4,2.8,1.5,1,3,1.9,4.5,2.9.4.3.9.6,1.3.9-.3.3-.5.7-.8,1.1-.2.3-.5.6-.7.9,0,0,0,0,0,0-.6,0-1.3.5-1.9,1-.1,0-.3.2-.4.2Z"/>
    <path class="cls-8" d="M149.5,207.4c.6,1.2,1.5,2.1,2.3,3.1,1.5,1.7,3.1,3.4,4.9,4.9.9.8,1.9,1.6,2.9,2.3,1,.7,2,1.4,3.1,1.9-.3.1-.5,0-.7,0,0,0-.2,0-.2-.1-.6-.4-1.3-.8-1.9-1.2-4.3-2.9-7.9-6.7-10.9-10.9.2,0,.4,0,.6,0Z"/>
    <g>
      <path class="cls-1" d="M169.2,219.1c.4-.3,1-.1,1.4,0,0,0,0,0,0,0-.5-.2-1.6-.4-1.6.5,0,.6.6,1.1,1,1.4.9.7,2,1.2,2.9,1.8.5.3.9.6,1.4,1,.4.4.8.8,1.2,1.2.5.5,1.3.5,1.8,0,.3-.2.4-.5.4-.9,0-.3-.3-.6-.5-.8,0,0,0,0,0,0,.3.3.6.5.6,1,0,.4-.3.7-.7.9-.4.2-.9.3-1.3.2-.2,0-.4-.2-.5-.4-.2-.3-.4-.5-.7-.7-.9-.9-2-1.5-3.1-2.2-.5-.3-1.1-.7-1.6-1-.4-.3-.8-.6-1-1.1-.2-.4-.1-.8.2-1Z"/>
      <path class="cls-1" d="M167.5,218.4c-.2.3-.4.6-.7.9,0,0,0,0,0,0,.2-.3.5-.6.7-.9,0,0,0,0,0,0Z"/>
      <path class="cls-1" d="M167.2,218.7c0,0-.2.2-.3.3,0,0,0,0,0,0,0,0,.2-.2.2-.3,0,0,0,0,0,0Z"/>
      <path class="cls-1" d="M167.1,218.6c0,.1-.2.2-.3.3,0,0,0,0,0,0,0-.1.2-.2.3-.3,0,0,0,0,0,0Z"/>
      <path class="cls-1" d="M168.3,218.6c-.5.4-.7.9-.8,1.5,0,0,0,0,0,0,0-.6.3-1.2.8-1.5,0,0,0,0,0,0Z"/>
      <path class="cls-1" d="M168,219.1s0,0,0,0c-.2.3-.3.5-.3.8,0,0,0,0,0,0,0-.3.1-.6.3-.9Z"/>
      <path class="cls-1" d="M169.1,219.2c-.3.3-.3.6-.2,1,0,0,0,0,0,0-.2-.3,0-.8.2-1,0,0,0,0,0,0Z"/>
      <path class="cls-1" d="M148.7,207.4c.9,1.3,1.8,2.5,2.9,3.7,1.8,2.1,3.8,4,5.9,5.8,1.1.9,2.2,1.7,3.4,2.4.3.2.6.4.9.6.2.1.5.4.7.4.2,0,.4-.2.6-.3.1,0,.3-.2.4-.3.5-.4,1.2-.8,1.7-.8.7,0,1.3.9,1.8,1.4.9.9,1.8,1.6,2.9,2.2,1,.6,2,1.1,2.9,1.7.6.4,1,.9,1.4,1.4.3.3.5.7.9.9,1.3.7,3.4-.5,3.3-2,0-.9-.9-1.3-1.6-1.8-1-.7-2.1-1.3-3.1-2-1.5-.9-2.9-1.8-4.3-2.7-1.5-1.1-3-2-4.5-3-3-2-6-3.9-9.1-5.8-.8-.5-1.5-1-2.3-1.4-.4-.3-.9-.5-1.4-.5-1.1,0-2.2,0-3.4,0,0,0-.1,0,0,.2ZM167.1,219.8c.3-.3.5-.7.8-1.1.2-.3.5-.7.6-1,0,0,0,0,0,0,1.8,1.1,3.5,2.3,5.3,3.4.9.6,1.8,1.2,2.8,1.8.5.3,1.2.6,1.5,1.1,0,.1.1.2.1.3-.2,1-.9,1.7-2,1.9,0,0,0,0,0,0,1,0,1.8-.7,2-1.7,0,.6-.4,1.1-.9,1.4-.5.3-1.2.5-1.7.4-.6-.2-1-.7-1.4-1.2-.6-.7-1.3-1.3-2.1-1.8-.9-.6-1.8-1.1-2.7-1.6-.8-.5-1.5-1.2-2.2-1.9ZM165.4,218.5c.2-.2.4-.6.6-.8.3-.3.5-.7.7-1.1.5.4,1.1.7,1.6,1.1-.2.3-.4.7-.7,1-.2.4-.5.7-.7,1.1,0,0,0,0-.1-.1,0,0,0,0,0,0,.4-.5.8-1,1.1-1.5,0,0,0,0,0,0-.3.5-.7,1-1.1,1.5-.4-.4-.8-.9-1.4-1ZM163.2,219.4c-.1,0-.3.2-.4.2-.6-.4-1.2-.7-1.8-1.1-.6-.4-1.1-.8-1.7-1.2-1.9-1.4-3.7-3-5.4-4.8-.8-.8-1.5-1.6-2.2-2.4-.8-.9-1.5-1.8-2.1-2.8.9,0,1.8,0,2.7.1.7,0,1.3.6,1.9,1,.8.5,1.5,1,2.3,1.4,1.5.9,2.9,1.9,4.4,2.8,1.5,1,3,1.9,4.5,2.9.4.3.9.6,1.3.9-.3.3-.5.7-.8,1.1-.2.3-.5.6-.7.9,0,0,0,0,0,0-.6,0-1.3.5-1.9,1ZM148.9,207.4c.2,0,.4,0,.6,0,.6,1.2,1.5,2.1,2.3,3.1,1.5,1.7,3.1,3.4,4.9,4.9.9.8,1.9,1.6,2.9,2.3,1,.7,2,1.4,3.1,1.9-.3.1-.5,0-.7,0,0,0-.2,0-.2-.1-.6-.4-1.3-.8-1.9-1.2-4.3-2.9-7.9-6.7-10.9-10.9Z"/>
    </g>
  </g>
  <g>
    <path class="cls-10" d="M135.2,173.8c.4,1.1-.8,10-.8,10-.3,5.7.6,7.1.2,9.5s-2.6,10.9-3.4,12.7-2.6,8-2.5,11.9c0,0-1.1,7.6-1.5,10.5-.4,2.9-.4,1.2-.4,2.9,0,1.7-.4,2.3.5,3.3.8,1,0,4.4,0,4.8,0,0-1,5.3-1.5,5.7-.5.4-.8.7-1.3,1.6s-.1.9-1.1,2.7-2,2.6-2.4,3.9-.9,3.3,1.7,3.7c0,0,.8-.1,1.8-1.3s2.3-2.5,3.4-3.4c.6-.6,1.5-2.7,2-3.3s.9-.9.9-1c0,0,1.3-.9,2.2-.8s1.8.4,1.8.4c0,0,1.4-.3,3,1.5,1.5,1.8,3.9,4.5,5.8,4.7,1.9.2,4.5-.1,5.4.5s3.3,4,5.5,3.3c2.1-.7,3.4-2.7,3.4-4.5s-2.5-4.1-2.5-4.1c0,0-1.4-1.5-1.1-2s3.5-6.7,5.2-12.4c1.6-5.6,1-10.7,0-13.6-1-2.9-3.4-8.5-3.7-9.3s-1.9-4.1-2.1-6.6c-.2-2.5,1.5-6.4,1.9-7.6s1.8-3.9,2.1-6.4,0-3.9-.6-5.8c-.6-1.8-1.2-4.5-1.3-5s.3-2.1-.8-3.4-3.1-2.2-5.2-4-3.9-2.9-4.9-5.2c-1-2.3-1.9-3-2.1-4.7-.2-1.7-1.1-3.7-1.1-3.7,0,0-.9-3.8-1.2-5.8s-.2-4-.5-5-.7-3.9-1.3-4.3-4.3-1.7-5.1-1c-.8.7-.9,4.6-.7,6.9,0,0-.4,9.5,0,11.9s1.4,11.2,1.8,12.3l.5-.4Z"/>
    <path class="cls-7" d="M145.7,170.4c-.4.6-2.8-2.7-3.1-3.5s-1.4-2.8-1.6-4-.1-3.8-.3-4.4,0-4.5-.3-5.1.7,1.9.9,3.1.3,2.7.3,2.7c0,0,0,1.7,0,2.2s.2,2.3.5,3.3,2.3,4.2,2.9,4.8.4,1.1.4,1.1h.2Z"/>
    <path class="cls-9" d="M130.2,236.9l3-1.7-.3-1-1.2-3.3-4.4-5.4s0,3,.1,3.8,3.6,3.7,4.1,4.4-.1.9-.7.5c-.6-.4-4.5-3.8-4.5-3.8v1.3s3.7,2.8,4.3,3.7,0,1.1,0,1.1l-.5.4Z"/>
    <path class="cls-7" d="M125.1,246.2l.8-2.4.6-4.8s.2-.5.5-1,4.7-2.1,5.1-2.2.7-1.1.5-2.1-1.8-2.8-1.8-2.8c0,0-2.6-3.4-3.4-4.9-.8-1.6.3-8.1.5-9.3s.2,1.7.2,1.7c0,0-.1,3.3.3,4.5.4,1.2,1.5,4.4,1.5,4.4,0,0,2.6,3.4,3.5,4.8s.3,3.1.3,3.1h.8c0-.1,1.8-1.4,2.2-2.6s-.3-2-.9-2.7-3.6-4.4-3.6-4.4c0,0-1.1-1.4-1-2.2s1.2.9,1.5,1.4,2.3,2.4,3.2,3.8c.9,1.4,1.4,2.7,1.7,2.4s-.2-1.2-.2-1.7-2.7-4.2-2.9-4.6-2.1-3.1-2.6-6.2-.2-4.1,0-4.3,0,1.1,0,1.9.3.8.6,2.2,1,2.3,1.7,3.5,3.7,5.8,4.2,6.7,1,3.5-.6,6-6,3.6-6.6,3.8-2,.7-3,2.6c-1,1.9-.9,2.7-1.1,3.4s-2.1,1.8-2.1,1.8v.4Z"/>
    <path class="cls-9" d="M133.2,246.8l4-2.9,1.7-1,1.4-3.1,1.6-3.6,4.3-3.7,5.1-4.4,5.5-2.2-.8-3.6-2.1-1.4h-5.6s-4.5-2.1-4.5-2.1l-1.3-3.2-.6-5.9-3.9-9.7s-.9.3-1.1,1.5.5,2.6.6,3.4,2.1,4.9,1.8,5.7-2.8-4.4-3.7-5.2-1.1-.3-1.1-.3c0,0,3.2,5.1,4.1,6.3s1.2,2.8,1.1,4.2-3.2-3-3.2-3c0,0-2.4-1.6-2.1-1.4s1.8,2.6,3.1,4.1c1.2,1.5,4.9,5.2,5.3,5.7s4.6,1.4,5.1,1.4,4.5.8,5.1,1.5-2.8.3-3.8.3-7-.3-7-.3c0,0,3.2.8,4.1,1.1s3.3.4,3.8.8-1.5,1-2.4,1.3-1.7,1-4.6.5c-2.9-.5-6.1-5.6-6.6-5.9s1.7,3.1,2,3.8,3.4,2.7,3.7,2.8,3.5.5,4.3.9c.8.4-.6,1.3-1.2,1.9s-1,.8-2.5.7c-1.5,0-3.7-1.1-3.7-1.1,0,0,1,1,1.8,1.5s3.1.6,3.1.6c0,0-3.7,2.6-4.6,4s-1.5,4-2.6,5.7-4.9,2.6-6,3.6c-1.1,1-.8,2.4-.8,2.4l3-1.7h-.2Z"/>
    <path class="cls-9" d="M141.4,248.1s7.7.5,9,.1c1.3-.4,2.6-1.6,3.3-2,.7-.3,4.1-9,4.1-9,0,0-1.6,1.9-2.2,3.1-.6,1.1-2,3.3-2.6,4.6s-5,2.9-5.6,3-5.9.4-5.9.4v-.2Z"/>
    <path class="cls-9" d="M154.7,248.3s.3,1.4-.1,1.6-.3.5-2.5,1.1c-2.1.7-7.1-1.2-7.8-1.6s1.6.3,1.6.3c0,0,4-.5,5.2-.5s2.9-2.3,2.9-2.3l.7,1.5v-.2Z"/>
    <path class="cls-9" d="M137.9,195.6l.3-4.9v-5.8s-1.8-6.3-1.8-6.3l-1-2.2-.2.5s-1.1,3.9-1.2,5-.4,5.8.2,8.8-1.1,8.2-1.1,8.2c0,0,.9,1.4,1.7,2.4s-.3-3.2-.5-3.9.9-4.6,1-5.3-.7-8-.7-8.4.4-3.6.7-3.9,1.1,1.8,1.5,2.5-.3,6.8-.2,8.3c0,1.5,1.6,5.1,1.6,5.1v-.2Z"/>
    <path class="cls-9" d="M151.6,187.8l-1.8-3.3-4.6-1.8s-3.6-3.9-3.7-4.5-.4-3.5-.4-3.5l-3.2-6.2s-.6-2.8-.2-4.1-.7-12.7-1.2-14.1c-.5-1.5-1.2-6.5-1.2-6.5l-1.2.2-.5,1.5-.5,1.5-.5,1.5.4,2.3-.3,6.2-.3,4.9,3.9,16.4s1.2-1.3,1.6-1.4.2.6.7,1.5,1.7,4.8,2.2,6.2,3,3.7,5,5.2-1-1.8-1.4-2.1-3-3.3-3.2-4.3-.8-2.8-.5-2.6,3.7,3.5,4.1,4,3,2.6,3.5,2.7-2.5-2.4-2.6-2.6-2.5-2.3-1.8-2,4.5,1.6,4.3,2.1,3.4,2.5,3.4,2.5h0Z"/>
    <path class="cls-9" d="M156.1,186l.5-1.5-1.5-3.6-.2-4s-.4,1.4-1.6,1.4c-1.2,0-4.8-2.6-6.3-3.6-1.6-1-3-.9-3-.9l2.4,1.5,3,2.8-2.9-1.2-5.4-1.6-.3.8c-.5.8,1.2,1.5,2.1,1.9s3.4,2.7,4,3.1,3.3.6,5.5,1.3c2.3.7,4,3.6,4,3.6h-.2Z"/>
    <path class="cls-9" d="M154.1,218.7l-8.1-6-3.2-2.6s1.9,3.2,2,3.8,3.2,2.1,4.3,2.8,5.1,2.1,5.1,2.1h-.2Z"/>
    <path class="cls-9" d="M153.6,213.2l-6.5-4.8-3.9-1.2s5.7,4.5,6.4,5.3,5.1,3.8,5.1,3.8l-1.1-3.1Z"/>
    <path class="cls-9" d="M152.6,208.6l-7.6-4.9s2.2,2,3,3.3c.7,1.3,5.5,4.8,5.5,4.8,0,0-.9-3.2-.9-3.2Z"/>
    <path class="cls-9" d="M151.1,206.1l-.2-3.6-2.2-2-4.4-1.7s2.1,2.3,2.8,3.1c.7.8,4,4.4,4,4.4v-.2Z"/>
    <g>
      <path class="cls-5" d="M138.5,144.3s-.9-.7-1.1-.3c-.3.3,0,2.4-.2,3.1,0,.7.1,10.3,0,11.6s-.2,7-.4,7.9-.8-2.8-.9-3.8c0-1.1-.2-2.9-.2-6.6,0-3.7-1-7.7-1.2-8.7s-1-2.9-1.4-3.4c-.4-.5-.3.8-.4,1.4,0,.6.2,1.9.4,2.2.3.3.6,1.7.6,2.4,0,.7.3,3.1.7,4.5s.5,9.2.4,10,1.8,5.7,2.6,6.7c.8,1,2.2,4,2.3,4.6s.2,1.9.4,2.9c.3.8,1.9,3.2,2.8,3.8s3.5,1.8,5.2,2.5,2.8,2,3.4,3.1c.7.9.4,2.9,0,4.3-.4,1.4-1.2,1.9-1.4,2.4s-.2.5-.7.3-2-.8-4.3-2.8c-2.4-2-4.5-5.6-5.6-7.1-1.1-1.4-3.3-7.7-3.5-9.3s-.2-2.5-.3-3.8-.8-4-1.3-5c-.4-1.1-.8-5.8-1.1-6.8s0-3.9.2-5.3c0-1.5-.5-6.1-.9-6.6s0,1,.2,1.9c.1.8-.2,2.9-.4,4.2s-.1,7.4,0,8.2c.1.8,1,8.7,1.7,10s.3,6.1.3,6.1c0,0,.2-1.2.4-1.4s.4.7.4.7c.2.6.2,1.2.4,1.6.4.7,1.5,4.7,1.6,5.9s.1,6.2-.3,7.5,0,5.6.4,7.2c.4,1.6,2.1,5.9,2.4,6.3.4.5.7,2.5.8,4.1,0,1.9.5,5,.9,6s1.8,3.3,3.4,4.2c1.6.9,8.2,1,10.1,2.1,1.9,1.1,1.3,2.4,1.3,2.4h-2.3s-1.4.7-2.2,1-3.2,1.5-4.2,3.5-1.8,2.4-3.1,3.5-2.9,2.9-3.5,3.2-.8,2-1.3,3.9-.8,2-2,3.3c0,0-2.8,1-3.6,1.7s-2.8,2.1-3.5,3c-.5.8.4.1.9-.3h0c-.1.3,1.9-.5,2.1-.5.2-.1,4.4.6,4.6.7s5.9,1.2,8.2,1.5c2.2.5,5.4,0,6.7-1.1,1.3-1.1,3.3-3.6,5.5-10.2,2.1-6.6,1.8-8.9,1.8-9.7,0-.4-.4-1.6-.7-2.6-.1-1.3-.5-2.6-.6-3.5-.4-2.3-3-8.5-2.7-9.4s-2.2-5.7-2.8-6.8c-.6-1.1-1.4-3.4-1.8-4.5-.4-1.1-2.7-4.2-2.9-4.8s.2-.1,1.1.3,2.5,3,2.8,3.8.7,1.5,1,1.6c.6,0,.8-2.5.8-2.5,0,0-.5-.9-.8-1.2s-.9-2.5-.9-2.5c-.1-.2,0-1.5.2-2.4s.9-3.4,1.2-3.7c.3-.3,1,1.2,1.4,2.1.2.6.1,3.2,0,4.3.2-.7.9-.9,1.1-1.5s1-2.5,1.3-3.3.9-3.4.6-4.8c-.1-1.3-1.4-3.4-1.7-3.7-.2-.4-.6-1.8-.4-3.5.1-1.6-1.2-3.5-1.2-3.5,0,0,.3,1.6,0,2.4-.5.8-2.2.3-2.6.2s-1.9-1.7-4.9-3.9c-1.5-1.2-2.9-2.2-4.2-3.5-1-1-2-2.8-2.1-3.1-.2-.6-1.3-1.9-1.2-1.1,0,.7,2,3.8,2,3.8l3,3.3s1.5,1.2,1.4,1.7c-.3.5-2.9-1.2-4.1-2.3s-3-3.3-3.2-3.8-.2-1.9-.5-2.7c-.3-.8.4-6.4.2-7.6-.1-1.3-.1-10.8-.3-11.4-.2-.6,0-4.7,0-4.7h-.2ZM141.7,246.6c.6,0,3.9-.3,5-.5s3.4-2.3,4-3.4c.6-1.1,2.5-3.7,3.2-5s3.8-4.4,4.9-6.3c0,1.1,0,1.5-.5,2.8s-1.8,5.6-2.3,6.9c-.6,1.1-2.8,5.1-3.6,5.6-.7.5-2,1.3-4.3,1.9-2.1.7-8.3-1.2-9.3-1.5-.8,0-2.7-.5-3.8-.8.8,0,2.5,0,3.2.2.7.2,2.7-.1,3.4.1ZM143.3,244.1c.2-.1,2.8-1.6,3.2-2.2s5-3.5,5.1-3.8,0,.6-.5,1.5-2,3.3-3.6,4.5c-1.5,1.2-6,1.2-6,1.2,0,0,1.5-1.2,1.7-1.2ZM140.3,244.5c-.9.5,1.6-1.9,2.2-2.7s1.5-1.2,2.2-1.6,2-.9,2.7-1.1c.6-.2,1.6-.8,4.1-2.6,2.5-1.8,5.3-6.2,5.8-6.4s-.2.5-.3,1-2.4,3.3-3.6,4.7-4.9,3.7-7.5,5.7c-2.5,1.8-5.5,2.8-5.5,2.8v.2ZM154.7,228.7c.5-1,1.7-1.5,2.4-1.3.7.2-.6,1.7-1.5,3.4-.9,1.6-1.9,1.8-4.7,5.1-3,3.2-6.2,2.6-7,3.1-.7.5-3.7,3.7-3.7,3.7-.6.7,2-3.7,2-3.7,0,0,.7-.9,1.5-1.2s2.6-.9,3.3-1.2c.7-.3,3.4-2.1,5.4-4.1,1.8-2,1.7-2.8,2.3-3.6v-.2ZM144,217.1c-.3-.3-.4-1.1-.1-.8s1.8,1.7,3.1,2.2c1.3.8,3,.9,3.6,1.5,0,0-3.6-.2-4.5-.4-.6-.4-1.7-2-1.9-2.4h-.2ZM143,210.9c.3-.8,1.4,1.2,1.8,1.7.4.5,3.4,2.7,4.2,3,1,.5,4.8,3.7,4.8,3.7,0,.6-4.7-1.4-5.6-1.7-.9-.3-2.8-1.6-4.1-3.3-1.4-1.7-1.1-2.4-.9-3.2h-.2ZM147.1,212.3c-1.2-.5-3.9-5.1-3.9-5.1,0,0,.2.4.8.6.3.3,4.3,2.1,5.8,3.4,1.5,1.4,4.5,5.6,4.5,5.6l-1.2-.4s-4.9-3.7-6.1-4.3h.2ZM140.5,201.2c.3-.5,0,0,.4.7.4.5,2.9,2.2,2.9,2.2,0,0,2.6,1,4.9,2.8,2.3,1.8,4.1,4.6,4.1,4.6,0,1-2.8-2-3.3-2.1s-6.2-3.9-6.6-4c-.3-.3-2.4-3.7-2.3-4.2v.2ZM139.2,195.1c.2-.5,1.2,1.5,1.5,1.8s1.9,1.9,2.5,2.3c.8.4,4,2.5,5.2,3.4,1.2.9,2.3,3.1,2.3,3.1l-1.6-.9s-3-1.3-4.1-2.2c-1.1-.9-3.7-3-4.2-3.7-.4-.7-1.7-3.5-1.6-4v.2ZM144.3,193.2c.4.5-2-1.5-3.1-2.4-.9-.8-2-2.8-2-3.2s-.3-1.6,0-1.5,1.4,2.3,1.7,2.9c.5.7,3.5,4,3.5,4v.2ZM139.6,190.9c.1.2,1.4,1.7,2,2.1s2.4,2,3.3,2.9c.9.8,3.6,3.7,3.6,3.7,0,0-1.9-1.1-2.8-1.4s-2.9-2.2-4.2-3.5c-1.3-1.3-2.5-4.3-2.4-4.4s.7.8.7.8h-.2ZM152.7,188c-.3-.3.7.2,1.1.3.5.3,1.4,1.2,2.1,1.9.7.8,1.1,1.4,1.1,2,.2.6-.5.8-.5.8,0,0-.6-1.7-.8-2.3,0-.6-2.3-2.4-2.8-2.7h-.2ZM152.8,186c-.2-.6,2.2,1,2.3,1.3s1.8,1.1,2.1,1.8c.4.5,0,1,0,1,0,0-1.8-1.7-2.1-1.9-.3-.3-2.4-1.6-2.6-2.1h.2ZM141.6,176.5c0-.6.4-.6.9-.5s2.1,1.4,2.9,1.8,2.1.6,2.6.8c.6,0,1.3.6,2,1s3.3,1.6,4.6,2.9,1.1,3.1,1.1,3.1c0,.6-1.2-.4-1.2-.4,0,0-4.8-1.8-5.1-1.9-.5-.2-3.4-.1-5-1.7-1.8-1.7-2.8-4.9-2.9-5.3v.2Z"/>
      <path class="cls-7" d="M155.4,197v.3c-.2.2-.1,0,0-.3Z"/>
    </g>
    <path class="cls-9" d="M140.3,251.5s2.4,2,3.3,2.3,4.5.3,5.4.5,1.3.6,1.9,1.7c.6,1.1,1.8,2,3.3,1.6,1.5-.5,2.7-2.3,2.7-2.3,0,0-1.7.4-2.4.8s-1.3-.2-1.9-.6-2.2-2.7-2.9-2.9-4.9-.9-6.5-.3-3.4-.7-3.4-.7h.4Z"/>
    <path class="cls-9" d="M121.5,256s-.5,1,.2,1.2,1.4-.3,1.7-.6,2.7-2.9,4-4,1.4-2,1.8-2.6,0-1.5-.3-2.1-.5.4-.9.9-1.1,2.1-2.5,2.4c-1.4.3-1.4,1.4-2,2s-2.3,2.8-2.3,2.8h.2Z"/>
  </g>
  <g>
    <g>
      <path class="cls-4" d="M111.9,140.1c0,0,0-.2,0-.2-.2.2-.1.3,0,.2Z"/>
      <path class="cls-9" d="M144.1,132.6c.6-1.8-32.9,27.6-31.6,22.4,1.8-7.4,4.1-13.3,4.6-16.5,1-6.1-4.5.8-5.2,1.5-.4,1.6-3.6,16.4-7.4,16.8-2.8.3-5.8,0-8.1-2.3-5.6-5.4-26.9-26.9-26.9-26.9h-12.5c.3,1.4,25.3,12.9,29.7,31.5,0,0,0,21.1,0,33.5-2.2-1-4.2-1.5-5.3-.5-2.2,2.1,0,5.5,0,5.5,2.9-1.1,4.8,23,4.8,23-.2,13.9-.3,30.3-.4,37,0,11.1-2.7,13.4-7.4,16.2-3.5,2.1-10.2,4.9-6.6,4.9,6.2,0,7.4-1.2,13.2,0,5.9,1.2,11,3.5,17.2,2.5,2.1-.3,6.4-3.9,9.4-3.6,8.8.8,15.9,0,10.9-1.6-7.6-2.5-11.8-10.7-12.9-17.9-1-7.2-7.2-72.1-4-85.5,2-8.5,31.1-32.2,38.4-34.9,1.2-.4-.5-3.8,0-5.1Z"/>
    </g>
    <g>
      <path class="cls-3" d="M111.9,140.1c0,0,0-.2,0-.2-.2.2-.1.3,0,.2Z"/>
      <path class="cls-6" d="M122,153.9c8.7-7.7,18.4-14.8,22.2-16.2,1.2-.4-.5-3.8,0-5.1.5-1.4-19.7,16.1-28.1,21.5,2,0,4,0,6-.2Z"/>
      <path class="cls-6" d="M110.2,153.6c.9.1,1.7.2,2.6.3,1.8-6.9,3.8-12.3,4.4-15.4,1-6.1-4.5.8-5.2,1.5-.2,1.1-1.9,8.4-4.1,13,.8.2,1.6.4,2.3.5Z"/>
      <path class="cls-6" d="M75.8,141.7c2.8-.4,5.6-.2,8.2.6-7.2-7.2-14.5-14.6-14.5-14.6h-12.5c.2.9,10.3,5.8,18.8,14Z"/>
    </g>
    <path class="cls-10" d="M203.7,95c5.2-13.4-16.1-22.2-20.7-24.6-4.6-2.4-3.4-7.6-5.5-12.1-2-4.5-4.5-5.7-15.2-8.3-10.8-2.7-4.5-21.2-21.9-24.8-2.3-.5-4.4-.5-6.4-.3l-4.4-5.4c-1.9-2.4-3.6-4.9-5.1-7.6l-.3-.6c-4.6-8.3-14.8-12.2-24.1-9.2l-13.4,4.7c-7.8,2.7-13.9,8.6-16.7,16.1-2.1,5.5-6.8,9.7-12.6,11.3l-9.3,2.4c-9.7,2.6-16.8,10.7-17.9,20.4-.8,7.8-4.5,15-10.4,20.4-3,2.8-3.6,7.2-1.4,10.6-1.5,0-3.2-.2-4.9-.5-13.1-2.4-20.9,16.3-3.6,19.5,17.2,3.2,12.7-.2,30.2,16.6,17.5,16.7,34.2,4.8,43.5,8.7s21.3,20.6,35.9,10.4c1.7-1.2,2.9-2.3,3.7-3.4,2,1.8,4.9,3.2,10,3.2,13.1,0,17.7-15.4,30.8-15.4s33.6-2.4,37.7-14.1c1.8-5.2-.3-9-4.6-11.7,3-1.1,5.4-3.1,6.7-6.2Z"/>
    <path class="cls-5" d="M177.3,97.6c-4,11.7-47.1,5.2-52.4,11.2-12.3,13.9-32.1,7.4-41.4,3.5s-26,8-43.5-8.7C29.7,93.5,2.6,108.6,0,97.3c-.2,4.1,2.7,8.2,9.9,9.6,17.2,3.2,12.7-.2,30.2,16.6,17.5,16.7,34.2,4.8,43.5,8.7,9.3,3.9,21.3,20.6,35.9,10.4,1.7-1.2,2.9-2.3,3.7-3.4,2,1.8,4.9,3.2,10,3.2,13.1,0,17.7-15.4,30.8-15.4s33.6-2.4,37.7-14.1c1.8-5.2-.3-9-4.6-11.7,3-1.1,5.4-3.1,6.7-6.2,2.1-5.3,0-10-3.7-13.7,8.4,14.5-20.9,11-22.7,16.3Z"/>
  </g>
</svg>