<?xml version="1.0" encoding="UTF-8"?>
<svg id="Where_is_found" data-name="Where is found" xmlns="http://www.w3.org/2000/svg" version="1.1" viewBox="0 0 66.4 32.7">
  <defs>
    <style>
      .cls-1 {
        fill: #96c7e2;
      }

      .cls-1, .cls-2, .cls-3, .cls-4 {
        stroke-width: 0px;
      }

      .cls-2 {
        fill: #82b7d9;
      }

      .cls-3 {
        fill: #5b798c;
      }

      .cls-4 {
        fill: #77a8c7;
      }
    </style>
  </defs>
  <path class="cls-4" d="M47.8,25.9c.5.4,5.1,2.4,6.3,3s6.4,2,6.4,2c1.2.5,3.3,1.1,3.8.8s.4-2.4.3-2.8-1.6-1.1-2.1-1.4-1.6-.6-2.6-1.1-2.9-1.6-2.9-1.6c0,0-.9-.8-1.8-1.2s-1.1-1-2.2-1.9-1.4-2-2-3.4-.8-2.6-1.3-3.4-1.4-.9-1.7-1-1.6-.9-2.5-1.5-1.6-1-3-1.3-3.1,0-3.8,0-3.1.2-4.4-.3-2.8-1.9-3.2-2.2-3-2.5-4.4-3.5-4-2.2-7.3-2.3-7.2.5-7.5.6-.9-.9-.9-.9c0,0-.8-1.7-1.8-2s-2.3,0-3,1,.7,2.8.9,3.4-.4,1.9-.6,2.9.9,2.7,1.6,3.8.3,1.8.3,1.8c0,0,0,.5-.1,1s-.8,1-.8,1c-.1,0-.3.1-.7.3s-1.7.3-2.1.5c-.7.4-1.6.9-2.4,1.2s-1,.7-1,.7c-.2,1.4.9,1.5,1.7,1.5s1.4-.4,2.5-.6,1,0,1.6-.1.8-.2,1.1-.4,3.3.2,3.3.2c.2.1,2.2.2,2.6.8s.8.5,1.7.8,0,0,1.6.3,5.9,1,5.9,1c2.1.7,5.7.8,6.8.7s6,.2,7.4.4,2,.9,5.1,1.7c0,0,5,.9,5.5,1.3Z"/>
  <path class="cls-2" d="M51.5,20.9s.3,0,.5.4,1.6,2,2.1,2.3,1.4.7,1.7.8,1.2.4,1.2.4c0,0,.8.3,1.4.6s1.8,1.2,1.5,1-2.4-.8-2.7-1-1.7-.6-2.3-.9-1.5-1.2-1.9-1.5-1.8-2.1-1.4-2.2Z"/>
  <path class="cls-3" d="M13.6,17.4s.2-.3.6.2,1.3,2.9,1.3,2.9l.7.2s-1.2-2.6-1.3-3,.1-.7.4-.3,1.3,2.7,1.7,2.9,2,.7,2,.7l-2.2-3.2-1.6-1.2-.5-.3-1.4,1.3Z"/>
  <path class="cls-2" d="M7.7,18.8s.9-.8,1.3-.8.8.2,2,0,1.7-.8,1.9-1.1,1.5-2.4,3.1-2.8,2.9.3,3.3.7,2.4,2.7,2.9,3.3.9,1.1,1.6,1.5.7.6,1.1.7,1.1.2,1,.3-.7.1-2.3-.7-2.7-2.2-2.9-2.4-1.7-2.2-2-2.3-.7-.5-.9-.4.4.6,1,1.3,1.3,2.1,1.5,2.3.9,1.1.5,1-1-.9-1-.9c0,0-1.5-2.2-1.8-2.6s-.6-.9-1.3-.9-1.7.7-1.7.7l-.2.4s1,0,1.6.7,2,2.6,2,2.6c0,0,1.5,1.1,2.1,1.5s2.4.9,2.4.9c0,0,1.6.5.9.4s-4.4-.6-5.1-1.3-2.1-2.6-2.1-2.6c0,0-.7-1.1-1.2-1.4s-1.1-.3-1.2-.1-1.7,2.2-2,2.3-.6.1-.6.1l-2.7-.5h-1.4Z"/>
  <path class="cls-3" d="M8.6,14.3l-1.4,1.3s.7.4,1.4,0,1.8-2.2,2.9-2.5,2.6-.2,3.5-.4,2.9-1.7,2.9-1.7c0,0-.3,1.2-.2,1.7s.5,1.2.5,1.2c0,0-.2-1.3,0-2.1s.4-1,.8-1.2,1.1-.8,1.2-.3-.2,2.2-.2,2.4.6,2.1.9,2.4,1.8,2,1.7,1.7-2.3-2.8-2.1-4.4.7-1.9,1-2.3,1-1.3,1.1-1-.2,1.6-.2,2.1-.1,2.3-.1,2.3c0,0,.8-3.2,1-3.7s.5-2.3.8-1.9.1,2.6,0,2.9-.3,2.6-.1,2.9,1.6,2.8,2.2,3.7,1.6,2.1,1.7,2.3-.4-1.3-.4-1.3c0,0-1.9-2.4-1.1-2.2s1.6.6,2.1,1.3,2.7,3.2,2.7,3.2c0,0,.3,0,0-.6s-2.7-2.8-2.2-2.8,2.4,1.7,2.8,1.9,1,.8,1.7.9,1-.3,1-.3l-4.6-3.7-3.1-1.3-1.5-1.2-.4-2.7.9-2.9-.4-1.3-1.8-1-2.1,2.5-3.2,1.9-2.7,1.6-2.2.2-1.9.2-.8.7-2.2,1.6Z"/>
  <path class="cls-3" d="M9,9.8s1.1-2.7,1.2-3,1.7-2.3,2.5-2.4,2.2-.5,2.9-.6,2-.6,2-.6c0,0-5.2.3-5.5.6s-1.2.8-1.6,1.4-1.4,4.7-1.4,4.7Z"/>
  <path class="cls-3" d="M11.1,3l.7.6s-1.5.5-1.7,1.1-1.1,2.6-1.1,2.6c0,0,0,1.3-.1.9s-.3-3.3.4-4.3.8-.9,1-1.1.9.2.9.2Z"/>
  <path class="cls-3" d="M36.7,20.5s1.7,1.4,2.5,1.7,4.2,1,4.5,1.3,1.3,1.1,1.1,1.2-2-.2-2.2-.3-4-1.7-4.4-1.8-2.7-.2-3-.4-2.4-1.5-2-.9,1,1.3,1,1.3c0,0,3.1,0,4.6.8s4.1,1.5,4.7,1.6,2.9.2,2.9.2h.3l-1-.9-3.1-2-3.1-1-2.7-.7Z"/>
  <path class="cls-3" d="M43.2,14.8s.5,2.2.8,2.2.4,2.2.4,2.6-.7-1.2-.8-1.3-1-2.1-1-1.8.7,2,.9,2.3,1.4,2.6,1.5,2.8-.8-.4-1.3-.7-1.7-2.1-1.8-2.4-1.4-2.4-.9-1.1,1.3,3,2,3.5,2.6,1.8,3,2.2.8.4.7.6-1,.6-1,.6l8.2,4.8,2.7.7,3.4.9,1.2.6h.9s.9,0,.9,0h.9l.3-.6s-2.6-1.2-3.3-1.7-6.6-3-7.4-3-2.2-.8-2.2-.8l-2.8-2.7s-1.5-.6-1.8-.8-1.8-2.7-1.8-2.7l-.2-2.7-1.5-1.5Z"/>
  <path class="cls-3" d="M45,12.7s1.3,1.4,1.3,2.7-.3,2.7-.2,3.1.9,2.1,1,2.6.2,1.5.7,1.4h.5c0,0,0-3.1,0-3.1l-.2-1.7,1,2,.4,1.5s.3-.7,0-1.7-1.1-3.3-.9-3.9,1-.6,1-.6l-2.1-.8-1.7-1.4h-.9Z"/>
  <path class="cls-3" d="M27,8.2s.1,2.3.3,3,.5,2.5.8,2.7,1.7,1.7,1.7,1.7l-.9-2.1-1.9-5.2Z"/>
  <path class="cls-3" d="M28.4,8.4s.9,2.8,1.2,3.3,1.8,4.2,1.8,4.2v-2.2l-1.5-4.2-1.5-1.1Z"/>
  <path class="cls-3" d="M30.6,9.8s1.1,3.1,1.7,3.7,1.3,2.1,1.3,2.1l-1.4-4.8-1.6-1Z"/>
  <path class="cls-3" d="M33.2,12s1.4,2.3,1.7,2.8,1.2,2,1.2,2l-.2-2.6-.7-1.5-1.9-.7Z"/>
  <g>
    <path class="cls-1" d="M64.6,28.9s-2.2-.6-2.5-.8c-.3-.2-5.4-1.8-6.1-2.1-.6-.3-3.7-.9-4.1-1.2-.4-.3-1.2-.5-1.4-.7-.2-.2-1.1-1.5-1.5-2.3s-.9-2.4-.6-2.5c.3,0,.7,1,.7,1l1.3,2.1s1.3,1.6,1.7,1.7c.4.2-.1-.6-.4-.8-.1-.1-.9-.9-1.3-1.6-.5-.9-.8-1.8-1.2-2.8-.7-1.9-1.3-3-1.3-3.2,0-.2,0-1.2.5-1.3.5,0,1.3.4,1.3.4,0,0-.8-1-1.7-1.2-.9-.2-1.6-.6-1.8-.8-.1-.2-1-1.2-1.7-1.5-.7-.4-2.2-.5-2.7-.5s-1.6.1-2,.1-.6.3-1,.3c.6.1,2,.5,2.3.7.4.4,1.1,1,.9,1.1-.2.1-1.7,0-2.2,0s-1.2-.2-1.3-.3c0,0-1.1-.7-1.2-.9s-.5-.6-.5-.6c0,0-1.4-.3-1.5,0,0,.2.3.5.7.8.4.3,1.5,1.6,1.6,2.1s.3.8,0,.6c-.3-.2-1.6-1.9-2.1-2.3-.5-.4-1.6-1.2-2.1-1.7s-2.7-2.6-3.2-2.6c-.5,0-3.4-2.4-4.6-3-.5-.2-1.1-.6-1.8-.9-.5-.3-1.1-.7-1.3-.8-.4-.1-1.6-.7-5.5-.7-3.9,0-5.6.6-6.4,1.1s-1.6,2.1-1.7,3.3c-.2,1.2-.5,4.4-.5,4.5s-.3,2.4-.4,2.5c0,.1-.8,1-.6,1h0c-.3.2-.8.5-.3.4.6-.2,1.7-1,2.2-1.3s1.5-1.6,1.5-1.6c.9-.4,1-.6,2.1-.5s2,.3,2.3,0c.3-.3,1.5-.8,2.3-1.3.8-.5,1.1-.8,2.4-1,1.3-.2,2.3-1.2,2.6-1.6s.9-1,.9-1l.4-1.2s.8-.1,1.1,1.1c.3,1.2-.7,4.6-.5,5.6.2,1,1.2,2.1,1.7,2.5.5.4,2.1,1.2,3.1,1.5.9.3,1.9.8,2.1,1.1.2.2,2.2,1.8,3,2.3.8.5,3,1.4,3.8,1.4.8,0,3.5.9,4.1,1.1s2.6,1.5,2.9,1.8c.2.2.5.3.8.5,0,0,.4.2.3.3s-.8,0-.8,0c0,0,2.6.6,3.2,1.2s4.7,2.4,5.1,2.6c.4.2,3.7,1.3,4.4,1.4s1.9.3,2.3.5c.5.2,1.2.7,1,.4s-2.6-1.4-3.4-1.6c-.8-.1-2.4-.5-2.9-.8-.5-.3-3-1.3-3.5-1.7-.5-.4-1.8-1.2-2.5-1.5s-1.2-.4-2-.8c-.8-.4-3.8-2.6-4.4-3.4s-2.2-2.5-2.9-4.1c-.7-1.5-.8-2.5-.8-2.7,0-.3,0-.3.3-.3s.7-.3,1.5-.3,1.9.2,2.3.7c.5.5,1,1.3,1.1,2.3.1,1,.3,2.5.5,3.1s1.2,1.8,1.6,2.1c.5.3,1.2.5,1.5.7.3.2,1.7,1.4,2.1,2,.4.6,2.8,2.4,3.2,2.5s4.6,1.5,5.3,1.9,1.9,1,2.3,1.1c.4.1,1.1.5,1.2.7.1.2.8.5,1.1.6.3,0,1,.3.8,0-.2-.3-1.1-1-1.6-1.3-.5-.3-2.5-1.5-4.5-2.1s-2.9-1-3.5-1.2c-.5-.2-2.4-1.1-1.9-1.1.5,0,3.6.9,4.3,1.1.7.2,5.8,1.9,6.2,2,.4,0,1.5.5,1.7.4.2,0,0-.6,0-.6ZM9.5,11.8c0,.4-.3,1.3-.4,1.7,0-.6.1-1.7.2-2.1,0-.6,0-4.1.7-5.1.7-1.1,1.3-1.6,1.7-1.9.4-.3,2.9-.8,3.6-.9.8,0,3.3,0,4.1,0s1,0,1.6.2c-1.2.3-3.4,1.4-4.2,1.5s-2.5.7-3.2.8c-.7.1-2.2,1-2.5,1.5s-1,2.2-1.1,2.5c0,.4-.5,1.4-.5,1.8ZM10.7,10.3s.7-2.3,1.6-2.9c.9-.6,2.4-1,3-1.1s1.1,0,.9,0c-.2,0-2.5,1.9-2.9,2-.4.1-1.6,1.2-1.7,1.3,0,.1-.9.7-.9.7ZM11,11.1s1-1.4,2.4-2.4c1.5-1,3.4-2.5,4.3-2.9s2.8-1.1,3.1-1.1.8-.2.6,0-3,.9-4.4,1.9c-1.4,1-1.9,1.4-2.1,1.7-.2.3-.7.9-1,1.2s-.7.7-1.2.9c-.5.2-2.2,1.1-1.8.7ZM21.6,6.3c-.5.2-.9,0-2.3.6-1.4.7-2.8,1.8-3.1,2.1-.3.3-.9,1.1-1.2,1.5-.3.4-.9.6-.9.6,0,0-2.8.6-2.3.4,0,0,2.2-1,2.6-1.3.4-.3.6-2.1,2.8-3.1,2.2-.9,2.5-1.4,3.5-1.6,1.1-.2,2.1-.6,2.1-.2s-.5.9-1.1,1ZM26.2,13.7c-.2-.2-.9-1-1-1.4,0-.5.5-2.4.5-2.4.2.4,0,1.3.2,2.1.1.8.6,1.8.7,2s-.3,0-.4-.2ZM29.4,15.3c-.5,0-.9,0-1.6-1-.7-1-1.1-2.2-1.1-2.7,0-.5-.3-3.3,0-3.2,0,0,1.1,2.5,1.2,3.1,0,.5.7,2.4.9,2.7.2.3,1.1,1.2.6,1.2ZM29.3,13.1c-.1-.7-1.3-3.9-1.3-3.9v-.7c0,0,1.8,2.3,2.3,3.3s.8,3.4.9,3.6c0,.3.2.5.2.5,0,0-2-2.2-2.1-2.9ZM34.3,18.3c-.3,0-1.8-1.7-1.9-1.9,0-.2-1.1-3.7-1.1-4.1,0-.3-1.1-2.3-.6-2.1,0,0,1.2,1.4,1.8,2.9s.7,3,.7,3c0,0,.5,1.6.7,1.9.3.3.6.2.3.3ZM37.4,20c-.3,0-1.6-1.2-1.9-1.5-.3-.4-1-2.1-1.3-2.8s-.5-2.5-.5-2.5l-.2-1s1,.9,1.3,1.7c.3.8.9,2.8,1,3.3.1.4.7,1.5.8,1.7.1.2,1,1.1.7,1.1ZM39.2,17.7s1.3,2.1,1.6,2.5c.3.3,1.3,1.3,1.3,1.4,0,.1-.6-.2-.8-.3s-1.1-1-1.4-1.6c-.3-.7-1-2.3-.8-2ZM39.6,20.4c0,0,.4.5.3.5-.1,0-1.5-1.1-2-2s-1.2-2.3-1.2-2.8-.3-1.7-.3-1.7c0,0,1.1,1.9,1.4,2.5.3.6.9,1.8,1,2.2s.7,1.3.8,1.4ZM43.3,14.1c-.1-.3-.7-1.8-1-1.9-.3-.2-1.1-.8-1.1-.8,0,0,.2-.3.5-.1.3.1.6.4.9.9.3.5.6,1.1.7,1.4,0,.2.1.8,0,.6ZM44.4,14.6c-.2-.2-.6-1.5-.7-1.7-.1-.2-.7-1.4-.7-1.4,0,0,.3-.1.5.2.3.3.5,1.3.6,1.4s.6,1.6.3,1.4ZM47.8,22c-.2-.1-1.8-1.2-2.4-2.4-.6-1.1-.1-2.6-.1-2.9,0-.2-.2-3-.2-3,0,0-.3-.8,0-.7,0,0,1,.2,1.5,1.1s.7,2.5.8,2.9.3.9.2,1.2c0,.3-.1,1,0,1.5s.5,1.5.5,1.8c0,.3-.1.5-.4.4Z"/>
    <path class="cls-2" d="M38.7,11.3c0,0,.1,0,.2,0-.2,0-.3,0-.2,0Z"/>
  </g>
  <path class="cls-3" d="M7,10.1s-.4-1.2.2-1.9.9-3,.9-3.4-1-1.6-1.1-2-.3-.8,0-1.1.8-1.1.8-1.1c0,0-1.2.3-1.7,1s-.2,1.5.3,2,.6.8.6,1.3-.6,2.4-.6,2.9.7,2.1.7,2.1Z"/>
  <path class="cls-3" d="M1.6,19s1.5-.5,1.9-.7,1,0,1.4-.7,1.4-.8,1.7-.9.9,0,.6-.3-.7-.6-1.1-.5-.9,0-1.7.5-2.6,1.3-2.8,1.4-.6.4-.6.8.6.3.6.3Z"/>
</svg>