<?xml version="1.0" encoding="UTF-8"?>
<svg id="Livello_1" data-name="Livello 1" xmlns="http://www.w3.org/2000/svg" version="1.1" viewBox="0 0 114.2 71.3">
  <defs>
    <style>
      .cls-1 {
        fill: #422715;
      }

      .cls-1, .cls-2, .cls-3, .cls-4, .cls-5, .cls-6, .cls-7, .cls-8, .cls-9, .cls-10, .cls-11, .cls-12, .cls-13, .cls-14, .cls-15, .cls-16 {
        stroke-width: 0px;
      }

      .cls-2 {
        fill: #474747;
      }

      .cls-3 {
        fill: #c9c9c9;
      }

      .cls-4 {
        fill: #615036;
      }

      .cls-5 {
        fill: #4a5f49;
      }

      .cls-6 {
        fill: #e0e0e0;
      }

      .cls-7 {
        fill: #435441;
      }

      .cls-8 {
        fill: #425441;
      }

      .cls-9 {
        fill: #a1a1a1;
      }

      .cls-10 {
        fill: #5f7158;
      }

      .cls-11 {
        fill: #c54343;
      }

      .cls-12 {
        fill: #594739;
      }

      .cls-13 {
        fill: #5e7057;
      }

      .cls-14 {
        fill: #a63838;
      }

      .cls-15 {
        fill: #fff;
      }

      .cls-16 {
        fill: #4b5f49;
      }
    </style>
  </defs>
  <g id="ic_farm" data-name="ic farm">
    <g>
      <rect class="cls-3" x="63.1" y="16.4" width="20.9" height="60.4"/>
      <path class="cls-6" d="M63.4,16l-.2.3c-.9,1.2,17.7,1.2,16.9,0l-.2-.4c-4-5.6-12.5-5.6-16.4,0Z"/>
      <path class="cls-9" d="M63.1,23.6s1.4.6,8.5.6,8.5-.6,8.5-.6c0,0,.2,0,.2.2s-.2.3-.2.3c0,0-2.6.6-8.5.6s-8.5-.6-8.5-.6c0,0-.2,0-.2-.3s.2-.2.2-.2Z"/>
      <path class="cls-9" d="M63.1,31.8s1.4.6,8.5.6,8.5-.6,8.5-.6c0,0,.2,0,.2.2s-.2.3-.2.3c0,0-2.6.6-8.5.6s-8.5-.6-8.5-.6c0,0-.2,0-.2-.3s.2-.2.2-.2Z"/>
      <path class="cls-9" d="M63.1,39.9s1.4.6,8.5.6,8.5-.6,8.5-.6c0,0,.2,0,.2.2s-.2.3-.2.3c0,0-2.6.6-8.5.6s-8.5-.6-8.5-.6c0,0-.2,0-.2-.3s.2-.2.1-.2Z"/>
      <path class="cls-9" d="M63.1,48.1s1.4.6,8.5.6,8.5-.6,8.5-.6c0,0,.2,0,.2.2s-.2.3-.2.3c0,0-2.6.6-8.5.6s-8.5-.6-8.5-.6c0,0-.2,0-.2-.3s.2-.2.1-.2Z"/>
      <path class="cls-9" d="M63.1,56.2s1.4.6,8.5.6,8.5-.6,8.5-.6c0,0,.2,0,.2.2s-.2.3-.2.3c0,0-2.6.6-8.5.6s-8.5-.6-8.5-.6c0,0-.2,0-.2-.3s.2-.2.1-.2Z"/>
      <path class="cls-9" d="M63.1,64.4s1.4.6,8.5.6,8.5-.6,8.5-.6c0,0,.2,0,.2.2s-.2.3-.2.3c0,0-2.6.6-8.5.6s-8.5-.6-8.5-.6c0,0-.2,0-.2-.3s.2-.2.1-.2Z"/>
    </g>
    <polygon class="cls-1" points="10.9 52.6 13.9 52.6 13.9 49.5 23.1 30.5 41.6 23.4 60.3 30.5 69.3 49.5 69.3 52.6 72.5 52.6 61.5 29.3 41.6 21.6 21.8 29.3 10.9 52.6"/>
    <g>
      <polygon class="cls-11" points="13.8 72.5 13.8 49.5 23 30.3 41.7 23.1 60.6 30.3 69.6 49.5 69.6 72.5 13.8 72.5"/>
      <path class="cls-15" d="M41.7,23.4l18.7,7.2,9,19v22.7H14v-22.7l9.2-19,18.5-7.2M41.7,22.8h-.2c0,0-18.5,7.2-18.5,7.2h-.2c0,0,0,.2,0,.2l-9.2,19h0v23.4h56.4v-23.3h0c0,0-9-19.1-9-19.1v-.2c0,0-.3,0-.3,0l-18.7-7.1h-.2c0,0,0,0,0,0Z"/>
    </g>
    <g>
      <polygon class="cls-14" points="69.4 70.7 23.1 70.7 14 70.7 14 71 23.1 71 69.4 71 69.4 70.7"/>
      <polygon class="cls-14" points="69.4 69.4 23.1 69.4 14 69.4 14 69.7 23.1 69.7 69.4 69.7 69.4 69.4"/>
      <polygon class="cls-14" points="69.4 68.1 23.1 68.1 14 68.1 14 68.4 23.1 68.4 69.4 68.4 69.4 68.1"/>
      <polygon class="cls-14" points="69.4 66.8 23.1 66.8 14 66.8 14 67.1 23.1 67.1 69.4 67.1 69.4 66.8"/>
      <polygon class="cls-14" points="69.4 65.5 23.1 65.5 14 65.5 14 65.8 23.1 65.8 69.4 65.8 69.4 65.5"/>
      <polygon class="cls-14" points="69.4 64.2 23.1 64.2 14 64.2 14 64.5 23.1 64.5 69.4 64.5 69.4 64.2"/>
      <polygon class="cls-14" points="69.4 62.9 23.1 62.9 14 62.9 14 63.2 23.1 63.2 69.4 63.2 69.4 62.9"/>
      <polygon class="cls-14" points="69.4 61.6 23.1 61.6 14 61.6 14 61.9 23.1 61.9 69.4 61.9 69.4 61.6"/>
      <polygon class="cls-14" points="69.4 60.2 23.1 60.2 14 60.2 14 60.5 23.1 60.5 69.4 60.5 69.4 60.2"/>
      <polygon class="cls-14" points="69.4 58.9 23.1 58.9 14 58.9 14 59.2 23.1 59.2 69.4 59.2 69.4 58.9"/>
      <polygon class="cls-14" points="69.4 57.6 23.1 57.6 14 57.6 14 57.9 23.1 57.9 69.4 57.9 69.4 57.6"/>
      <polygon class="cls-14" points="69.4 56.3 23.1 56.3 14 56.3 14 56.6 23.1 56.6 69.4 56.6 69.4 56.3"/>
      <polygon class="cls-14" points="69.4 55 23.1 55 14 55 14 55.3 23.1 55.3 69.4 55.3 69.4 55"/>
      <polygon class="cls-14" points="69.4 53.7 23.1 53.7 14 53.7 14 54 23.1 54 69.4 54 69.4 53.7"/>
      <polygon class="cls-14" points="69.4 52.4 23.1 52.4 14 52.4 14 52.7 23.1 52.7 69.4 52.7 69.4 52.4"/>
      <polygon class="cls-14" points="69.4 51.1 23.1 51.1 14 51.1 14 51.4 23.1 51.4 69.4 51.4 69.4 51.1"/>
      <polygon class="cls-14" points="69.4 49.8 23.1 49.8 14 49.8 14 50.1 23.1 50.1 69.4 50.1 69.4 49.8"/>
      <polygon class="cls-14" points="69 48.7 23.1 48.7 14.5 48.7 14.4 49 23.1 49 69.1 49 69 48.7"/>
      <polygon class="cls-14" points="68.4 47.3 23.1 47.3 15.1 47.3 14.9 47.6 23.1 47.6 68.5 47.6 68.4 47.3"/>
      <polygon class="cls-14" points="67.7 46 23.1 46 15.7 46 15.6 46.3 23.1 46.3 67.9 46.3 67.7 46"/>
      <polygon class="cls-14" points="67.1 44.7 23.1 44.7 16.3 44.7 16.2 45 23.1 45 67.3 45 67.1 44.7"/>
      <polygon class="cls-14" points="66.5 43.4 23.1 43.4 17 43.4 16.8 43.7 23.1 43.7 66.6 43.7 66.5 43.4"/>
      <polygon class="cls-14" points="65.9 42.1 23.1 42.1 17.6 42.1 17.5 42.4 23.1 42.4 66 42.4 65.9 42.1"/>
      <polygon class="cls-14" points="65.3 40.8 23.1 40.8 18.2 40.8 18.1 41.1 23.1 41.1 65.4 41.1 65.3 40.8"/>
      <polygon class="cls-14" points="64.6 39.5 23.1 39.5 18.9 39.5 18.7 39.8 23.1 39.8 64.8 39.8 64.6 39.5"/>
      <polygon class="cls-14" points="64 38.2 23.1 38.2 19.5 38.2 19.4 38.5 23.1 38.5 64.2 38.5 64 38.2"/>
      <polygon class="cls-14" points="63.4 36.9 23.1 36.9 20.1 36.9 20 37.2 23.1 37.2 63.5 37.2 63.4 36.9"/>
      <polygon class="cls-14" points="62.8 35.6 23.1 35.6 20.8 35.6 20.6 35.9 23.1 35.9 62.9 35.9 62.8 35.6"/>
      <polygon class="cls-14" points="62.2 34.2 23.1 34.2 21.4 34.2 21.3 34.5 23.1 34.5 62.3 34.5 62.2 34.2"/>
      <polygon class="cls-14" points="61.5 32.9 23.1 32.9 22 32.9 21.9 33.2 23.1 33.2 61.7 33.2 61.5 32.9"/>
      <polyline class="cls-14" points="24.5 31.6 23.1 31.6 22.7 31.6 22.5 31.9 23.1 31.9 24.5 31.9 61.1 31.9 60.9 31.6 24.5 31.6"/>
      <polyline class="cls-14" points="59 30.3 24.5 30.3 24.5 30.6 59 30.6"/>
      <polygon class="cls-14" points="56.4 29 27.1 29 26.3 29.3 57.2 29.3 56.4 29"/>
      <polygon class="cls-14" points="53 27.7 30.5 27.7 29.7 28 53.8 28 53 27.7"/>
      <polygon class="cls-14" points="49.9 26.5 33.6 26.5 32.8 26.8 50.7 26.8 49.9 26.5"/>
      <polygon class="cls-14" points="46.4 25.2 37 25.2 36.2 25.5 47.2 25.5 46.4 25.2"/>
      <polygon class="cls-14" points="43 23.9 40.4 23.9 39.6 24.2 43.8 24.2 43 23.9"/>
    </g>
    <polygon class="cls-15" points="10.9 52.6 21.8 29.3 41.6 21.6 61.5 29.3 72.5 52.6 74.2 52.6 62.8 27.8 41.6 20.1 20.7 27.8 9.3 52.6 10.9 52.6"/>
    <rect class="cls-15" x="41.1" y="50.9" width="1.3" height="21.4"/>
    <polygon class="cls-15" points="41.1 72.2 40.1 72.2 24.5 51.7 24.5 50.9 25.5 50.9 41.1 71.3 41.1 72.2"/>
    <polygon class="cls-15" points="59.1 72.2 58.1 72.2 42.4 51.7 42.4 50.9 43.5 50.9 59.1 71.3 59.1 72.2"/>
    <rect class="cls-15" x="24.5" y="49.6" width="34.5" height="1.3"/>
    <polygon class="cls-15" points="24.5 72.2 23.1 72.2 23.1 30.5 24.5 30 24.5 72.2"/>
    <polygon class="cls-15" points="60.3 72.3 58.9 72.3 58.9 29.9 60.3 30.4 60.3 72.3"/>
    <g>
      <path class="cls-2" d="M41.8,32.8c-1.8,0-3.2-1.4-3.2-3.1s1.4-3.1,3.2-3.1,3.2,1.4,3.2,3.1-1.4,3.1-3.2,3.1Z"/>
      <path class="cls-15" d="M41.8,26.8c1.6,0,2.9,1.3,2.9,2.9s-1.3,2.9-2.9,2.9-2.9-1.3-2.9-2.9,1.3-2.9,2.9-2.9M41.8,26.3c-1.9,0-3.4,1.5-3.4,3.4s1.5,3.4,3.4,3.4,3.4-1.5,3.4-3.4-1.5-3.4-3.4-3.4h0Z"/>
    </g>
    <g>
      <g>
        <rect class="cls-2" x="29.7" y="39.4" width="9.1" height="6.2"/>
        <path class="cls-15" d="M38.5,39.7v5.7h-8.6v-5.7h8.6M39,39.2h-9.6v6.7h9.6v-6.7h0Z"/>
      </g>
      <rect class="cls-15" x="33.9" y="39.7" width=".6" height="5.7"/>
      <rect class="cls-15" x="29.9" y="42.3" width="8.6" height=".5"/>
    </g>
    <g>
      <g>
        <rect class="cls-2" x="44.7" y="39.4" width="9.1" height="6.2"/>
        <path class="cls-15" d="M53.6,39.7v5.7h-8.6v-5.7h8.6M54.1,39.2h-9.6v6.7h9.6v-6.7h0Z"/>
      </g>
      <rect class="cls-15" x="48.9" y="39.7" width=".6" height="5.7"/>
      <rect class="cls-15" x="45" y="42.3" width="8.6" height=".5"/>
    </g>
    <path class="cls-9" d="M80,18.6h2.1c.4,0,.7.3.7.6v53.6h-1.4V20.1h-1.4s0-1.6,0-1.6Z"/>
  </g>
  <g>
    <path class="cls-4" d="M101,61.5s-1,.6-1,1.3c0,.6.5,10,.5,10h-2.7s.9-8.5.5-9.3-1-3-1-3l.6-.6s0,1.1.5,1.5.7-1.5.7-1.5h1.2s-.5.5-.6,1.2c0,0,.4.3.5.2s.3-.6.3-.6l.5.9Z"/>
    <path class="cls-5" d="M103.5,60.7s.3.1.6,1,1.3.9,1.6.6c.3-.2-.5-1.9.4-2.2,1-.2,1.5,1.1,2.2.4s.4-1.5.3-2.1-.3-1.2.8-1.6,1.7-.4,1.7-.8,1.5-.4,1.2-1.1-1.4-1-1.5-1.3,1.4-.5,1.2-1.1-.9-1.1-.3-1.6,1.6-1.6,1.8-2.4c.2-.8-.3-1.5-.3-1.5,0,0,.5-1.9-.1-2.4s-1.8-.6-2.1-1.1.1-2.4.1-2.4c0,0-1-1.1-1-1.4,0-.3.8-2.2-.6-3.3-1.4-1.2-1.6-2.1-1.8-2.7-.2-.6-.3-.3-.9-1.2s1.3-1.1.6-2.4c-.6-1.3-.8-2.2-1.4-2.4s.2-.5-.6-.2c-.9.3-2.1.3-2.1-.1,0-.4.3-2.2-.3-2.6-.6-.4-.5-1.9-1-2.4s-.9.2-1.2-1-.9-1.5-.9-1.5c0,0,.8-1.1,0-1.7-.8-.6-.6-1.2-1.3-1.9-.6-.8,1-2.3.2-2.6-.8-.3-.6-1.9-1.1-2.3,0,0-.6.2-.7.8,0,.6.1,1.5-.1,1.8s-.9,1.3-.6,3.2c.2,1.9.2,1.8-.6,1.9-.8.1-2.1.8-2.1,1.2s.9.9.8,1.6c0,.7-.6,1-.4,1.4s.9.7.5,1.2c-.4.5-1.1.2-1.1.8,0,.6-.3.4-.8.8-.4.4,0,1.3-.2,1.5s-.5-.6-1.1-.5-.8.4-.9.9-1,1.6-.6,2.1.4.3.7.6.1.1-.5.7-.6,2.4-.4,2.8-.2.9-.8,1c-.6,0-1,.4-.9,1.2s1,1.4.3,2.3c-.7.9-.6.9-.7,1.6s.6,1.1,0,1.5c-.6.4-1.6.5-1.6,1.6,0,1.1.6,1.3.2,2-.5.6-.5.5-.2,1.2s.5.6-.2,1c-.6.4-1.1,2.4-.5,3.1s1.5.6,1.1,1.3c-.4.8-.6,1.3-.4,1.6s1.3,0,1.5.6c.2.5.1,1.1.2,1.5s2.1,0,2.1,1.3c0,1.3,0,1.4.5,1.5s1.3.3,1.3.9-.2,1,.2,1.2c.4.2.4.3,1.6.4,1.2,0,1.9.1,2.1-.3l.2-.4s1-.7,1.5-.2.5.6,1.1.3,1.6-.8,1.8-.2.4.9.8,1,1.1.3,1.6-.2.9-.6.9-.6Z"/>
    <g>
      <path class="cls-13" d="M105.7,52.7s-.7-.5-.7-1c0-.5-.4-.8-.6-.8s-.9-.1-.8.2.5.6,0,.7-.9,0-.9-.4,0-.8-.1-.9-.3-.6-.3-.6c0,0-.4,1.3-.6,1.3s-.5.1-.5.3.4.8.4,1.1.1.8.4,1,.7-.1.9.2.9.5,1,.2.4-.8.5-1,.4,0,.6,0,.4,0,.7,0,0-.3,0-.3Z"/>
      <path class="cls-13" d="M99.6,52.7s.6-1,.2-1-.6.3-.9.2-.5-.1-.6,0-.5.4,0,.4.4,0,.6.3.3-.2.4-.3.3.4.3.4Z"/>
      <path class="cls-13" d="M97.8,52.5s-.1-.8-.5-.8-.9,0-1.1,0-.8.1-.5.5.2.8,0,.8-.1.4-.4.4-.6-.3-.5,0,1,.3,1,.4.6.3.5-.1,0-.9.3-1,1.1-.2,1.1-.2Z"/>
      <path class="cls-13" d="M101.8,55.4s-.3-.5-.4-.3-.3.5-.2.6-.4.6.1.4.5-.7.5-.7Z"/>
      <path class="cls-13" d="M100.2,48.4s-.9-.7-1.3-.5-1.4,0-1.5,0-1-.3-1-.3c0,0-.3-.6-.7-.5s-.3,1.3.1,1.6.7.5,1.1.6c.4.1.6.4,1.1.1s1-.4,1.2-.4.2.2.6,0,.5-.5.5-.5Z"/>
      <path class="cls-13" d="M105,46.2c-.1,0-1.9-.2-2.3-.6s-1.3-.8-1.6-.8-.7-.5-.9-.1,0,1.1.3,1.5,0,.8.6.8.7.2,1.1,0,.3-.5.9-.4,1.4,0,1.8.1.7,0,.7,0,1-1.2,1.4-1.4.4-.2.4-1,.3-1.2,0-1.9-.1-1.1-.7-1-1,.2-1.5.9-1.6,1.3-1.6,1.6.8.8,1,.8.3.3.5.4.6,0,.5.5-.6.7-.6.7Z"/>
      <path class="cls-13" d="M104.6,41.2s-.6-.1-.9-.3-1-.8-1.3-.3-.6.9-.9,1-.6-.1-.8-.4.3-.5-.6-.4c-.9,0-1.2,0-1.2,0,0,0-.3.3-.1.4s1.7.3,1.7.7-.4.5,0,.8.5.1.9.4.7.6,1.2.3.9-.6,1.2-.8.3-.3.7-.5.9-.3.5-.6l-.3-.3Z"/>
      <path class="cls-13" d="M91.4,44.1s-.5.2-.8.1-.6-.2-.9.1-.1.6.1.7.8.2.8.2c0,0,.2.8.5.7s.6-.4.6-.6-.4-1.3-.4-1.3Z"/>
      <path class="cls-13" d="M99.9,37.4s.5-.4.7-.5.4-.5.4-.8-.4-1-.6-.7-.5.8-.9.7-1.1.2-1.1.5-.2.7-.2.7c0,0-.3.2-.4.3s-.5,0-1.1,0c-.6.2-1.7.2-1.7.7s.9,1.1,1,1.3.9,1,1.4.9,1,0,1.3-.4.8-.3,1-.5.5-.6.6-.9.4-.1.1-.5-.3-.8-.3-.8Z"/>
      <path class="cls-13" d="M96.8,35.1s-.4-.7-.8-.4c-.4.3-.8.4-1.3.3s-.9-.4-1.1-.1-.3.8-.2.9-.1.6.4.6,1,.2,1.7-.2l.6-.4.6-.8Z"/>
      <path class="cls-13" d="M96.6,36.6s.4-.7.6-.7.4.2.3.4,0,.3-.2.4-.4.1-.7.2-.3.5-.4,0,.3-.4.3-.4Z"/>
      <path class="cls-13" d="M101.6,32.6s-.6-.8-1.2-.5-1,.4-1.3.6-.6.6-.4.8,1.5,0,1.5,0c0,0,1.7.4,1.8.4s.5,0,.2-.3-.4-.3-.5-.3-.2-.6-.2-.6Z"/>
      <path class="cls-13" d="M95.4,29.7s0-.9-.4-.6-.8.5-1.2.5-.8-.3-1-.2-.5.4-.5.7,0,.6.2.6,1.2-.4,1.3-.2.5.3.8.1.7-.6.7-.6v-.3Z"/>
      <path class="cls-13" d="M100.7,27.9s-.8,0-1.2-.2-.1-.1-.2-.2c-.4-.5-.7-.9-1-1.2s-1.3-1.2-1.6-1.3-.9,0-.9.4.8.6,1.4,1.1.9.6.8,1-.2.7.3.7.9.6,1.5.4.9-.7.9-.7Z"/>
      <path class="cls-13" d="M103.4,34.1s-1.4-.7-1.2-1.4,0-1.2-.3-1.3-1.4-.4-1.4-.4l-.5.4s.4.4-.6.2-1.1.6-1.5.4-.4-.6-.3-.9,1-1.2,1-1.2l1.6-.9s.8,0,1.3-.1.9-.3,1.2-.4,1,0,1.4-.1c.4,0,.6-1.4,1.2-.6s1.2,1.7,1.1,2.1-.1,1.2-.4,1.4-.6,1.1-.4,1.4c.2.3.4.6,0,1.1s-.9.9-1.1,1-1.2-.6-1.2-.6Z"/>
      <path class="cls-13" d="M101.6,26.7s1-.9.6-1.5.1-.9.2-1.5c0-.6-.3-1-.3-1,0,0-.7-1.2-1-1.5s-.6.2-.8-.2,1.2-.5.6-1.3c-.5-.8-.4-1.2-.9-1.2s-.3-1.9-.8-1.9-.9-.9-.6-1.6c.3-.7.9-.8.3-1-.6-.2-.4-2.1-.9-1.5s-1,1.8-1,1.8c0,0-.2.7-.2,1.3s-1,.9-.4,1.9c.5,1,.8,1.3.4,1.5-.4.2-.9.1-1,.4s.6,1.7.6,1.7c0,0,.5,0,1.2.5s0,0-.2,1.1c-.3,1,.4.8.6,1.6.2.8.1,1.2.7,1.4s.5,0,1.8.7,1.1.4,1.1.4Z"/>
      <path class="cls-13" d="M91.8,45.4s-.2-1.6-1.2-1.2-1,.6-.7.8,1.7.6,1.3.9.4.4.5.2.1-.8.1-.8Z"/>
      <path class="cls-13" d="M109.4,46.4l1.4-.4s.9-.9,1.1-.9.8.3.7.8-.4,1.6-.4,1.9.5,1,.5,1c0,0-1.2.3-1.5.4s-1.2.3-1.3-.2,1.9-1,.7-1.8l-1.2-.8Z"/>
      <path class="cls-13" d="M107.8,48s-.9-.5-.9,0c0,.4.1.9.4,1s1,.9,1,.4-.4-1.3-.4-1.3Z"/>
      <path class="cls-13" d="M109.7,51c-.1-.2-.9-.5-.9-.5,0,0-.7.4-.6.6s.7.9.7.9h.9c0,.1,0-1,0-1Z"/>
      <path class="cls-13" d="M105.2,49l-1.2-.4s-.7.6-.9.5-1.8,1.1-.9.8c.9-.3,1.3-.5,1.8-.4s1.2.1,1.2.1v-.6Z"/>
      <path class="cls-13" d="M110.2,42.5s-.2-1.1-.6-.8-.5.6-.8.9c-.3.3-.7.9-.6,1.2s.6.4,1,0,1.2.5,1.3-.1c0-.6-.2-1.2-.2-1.2Z"/>
      <path class="cls-13" d="M107.8,39.7s-1.2.1-1.4.1-.5-.7-.7-.4,0,1,0,1c0,0,1.1-.2,1.3,0s1.2.8,1.2.3-.4-.9-.4-.9Z"/>
      <path class="cls-13" d="M104,38.6s-.9,0-1.1.2-1.7.6-.6.7c1,0,1.4.4,1.6.1s.1-1.1.1-1.1Z"/>
      <path class="cls-13" d="M107.7,37.7s-1.7-1.4-1.5-.6c.1.8.5.9.4,1.2s0,.7,0,.7l.9-.3.3-.9Z"/>
    </g>
    <path class="cls-8" d="M103.5,56.9s-1.2-1.1-1.5-.1-3.1.3-3-.1-.4.5-.9.7-1.1-.5-1.5-1-1.3-.3-1.6-.3-1.4,0-2.2.3-1-1.5-1-1.5c0,0-1.2-1.3-1.8-1.1s-.9-1.3-1.7-1.9c-.9-.6-1.1-.4-1.4-.2s-1.1,1.8-.6,2.3,1.7-.3,1.5.6-.3,1.2.6,1.5c2.2.6,1.3,2.7,2.2,2.9,1.7.5.9,1.3,1.8,2.1.9.9,2,1,2.9.1s.9-.5,1.6-.6,1.7.8,1.9-.3,1.6.9,2.3,1.3,2.3-.3,2.5-.9.3,2.5,2.3,1.6c.4-.2-.2-1.7.1-2.1s-.3-.2.3,0c.6.1,4.1,1.6,2.5-1.6-.4-.8,1.2-1.8,1.2-1.8,0,0,1.5-1.7-.9-1.4-.3,0-2.4,1.4-2.6,1.9-.2.5-2.9-.3-2.9-.3Z"/>
  </g>
  <g>
    <path class="cls-12" d="M87.1,60.4s-1.1,3.4-1.4,4.2c-.3.9,0,3.4-.2,4.1s.2,4,.2,4h-2.2s.2-7.1-.1-8c-.3-.9-2.7-6.7-2.7-6.7l1.2-.3s1,4.8,1.5,5.2,1-4.4,1-4.4l.8-.4s-.2,2.4-.5,3-.5,2.1,0,2.2c.4,0,1.8-4.4,1.8-4.4l.8,1.5Z"/>
    <path class="cls-10" d="M96.4,50.2s.3-1,.2-1.4.7-.7,0-1.1-1-.2-1.4-1,0-1.3-.7-1.8c-.7-.6-1.6-1.2-1-1.8s.8-.9.6-1.4-.2-.6-.2-1.4,0-1.5-.2-1.7-1.3-2.9-1.6-2.5-.8,1-1.5,1-.2-1.9-.9-2.2-1,.5-1.1-1c0-1.5,1.3-1.4.4-1.8s-1.7-.5-2.2-.3c-.5.2-.9,0-.6-.6s1.4-.3,1.4-1-.2-1-.9-1.4-1.6-2.6-1.6-3,0-4.6-.6-3.8-1.5,5.7-1.8,6.2-.6.5-.6,1.5.9,2.6.9,2.6l-2.3,6.3-1.5-.7-1.7,1.4-.9,3.4,1,2.2,2.1,8.3,10.9,2.2,6.1-5.3Z"/>
    <path class="cls-7" d="M85.7,59.3s.2.7.8,1.1c.6.4,1.8.7,1.8.2s-.6-1.3-.2-1.8.4-1.2,1-.7,1,.9,1,.9c0,0,.3,0,.6-.3s.2,0,.9-.2,1.2-.6,1-1-.2-.9.5-1,2-.2,2.1-1c0-.9.3-1.9,0-2.5s.2-1.3.2-1.3c0,0,1.3-.6,1.6-1s-.2-1-.2-1c0,0,.2.6-.6.9-.9.3-1.8,1.1-2.1,1.1s-2.8.6-2.6,1,.7,1,0,1-2-.2-1.4.5c.6.6,1.4,1.2,1.4,1.8s-.4,1.7-1.1,1.5c-.7-.2-1.8-.4-2.1-.2s-1,.6-1.2.7-.4,0-1.3,0-1.9-.3-2.1,0-.6,1.4-1.2.8c-.6-.6-1.4-.9-1.8-.9s-.8-.5-1-1.1c-.2-.6-.4-1.6-1-1.8-.6-.2-2,.2-2.5-.5s-.2-1.4-.6-1.7-1.1-.9-1.1-.9c0,0,0,1,.5,1.4.6.4,1.1,1.6,1.2,2.3s.2,1,.8,1.3c.6.2,1,.8,1.9,1.3,1,.5.3.5,1,.5s1.4.8,2.2,1.4c.8.6,1.4.6,1.6,0s-.7-.7.2-.6c1,.2,1.9-.5,1.9-.5Z"/>
    <path class="cls-16" d="M73.5,52.1c.3.7,1.4.8,1.4.8l1.4,1.8,1.3,1.2.5.8,2.9,2,2.2,1.2,1.3-1.4,2.6.3.8-.8,2.5-.6h1.1c0,0,.8-2.3.5-3-.3-.6-1.9-.3-2.5-.7s-1.4.2-2.6.3c-1.2,0-1.1-.6-1.3-.9s1-1.6,1-1.6c0,0,1-1.1,1-1.6s-.6,0-.6,0c0,0-.6.5-1,.9-.4.4-.7,1-1.4.9-.6,0-.3-.6-1.1-.8-.8-.2-1.5.2-2.3.2s-.6-.3-.9-.7.3-.6,1-.6c.6,0,2.6.2,3.4.2s1.8-.3,1.8-.8-.6-.2-1.4-.2-.7-.2-1-.4.2-.8,1.3-.7c1,0,.9.2,1.8,0,1-.2,2-.7,2.5-.9.5-.2,1,.2,1.9,1.2.4.5.5.8.6,1.1-.2.3-.5.5-1.1.5-1.2,0-2.3-.2-2.4.2s-.4,1,0,1.3c.5.2.6.2,1.2.2s.6.6,1,.3c.5-.2.8.2,1.2.4s.7.3,1.2.2,1.5-.8,1.5-.8c0,0,1.3-.2.5-1l.7-.3s0-1-.4-1.7-1.3.2-1.8,0c-.6-.3.4-1.7.2-2-.2-.3-1.1,0-1.2-.3,0-.4-.6-1.7-.6-2.2,0-.6-.3-1.2-.7-1.4-.4-.2-.3.6-.3.6,0,0-.4,1.1-.6,1.6s-.8-.3-1.2-.5c-.4-.2-1.2,0-2,0s-1.4.2-1.1-.2c.2-.4-1.1-.8-1.6-.8s-.8-.6-.6-1.1c.2-.6.7-1,1.3-1,.6,0,.5-.2,1.2-.6.7-.4.4,0,1.4.3,1,.4,1.3.2,2.1.3s2.1,1,2.2.6c0-.4-.4-.9-.6-1.2-.2-.3-.9-.3-1.5-.4s-1.1-.3-1.6-.5c-.5-.2-.6-.3-.8-1-.2-.6-.6.5-1.2.6-.6,0,.2-.9.4-1.4.2-.6-.6.4-1.6.7-1,.3-1.4.2-1.8-.2-.3-.5.4-.6.8-1.3,0,0,2.1-.2,2.6-.2s1.1.2,1.4.2,1.2-1,1.4-1.4-.6-.6-.6-1-1-.2-.8.2c.2.5-.2,1-1,1-.8,0-1.2-.6-1.8-.6s-1.7.6-2.5.7c-.8.2-1.2-1.4-.7-1.7s1-2.2,1.2-2.5c.2-.3,1.9-.7,2.2-1.1.2-.4-.4-.4-.8-.4s-.2-.4-.5-1c-.2-.6-1.2.9-1.4.5s0-2.7,0-2.7c0,0-.4,1.7-.9,2.1s0,1.3.2,2.1c.2.8-.4.8-1.1,1-.7.2-1,.8-1.7,1.4-.6.6.4,1.3.4,1.8,0,.6-.8,1-1.9,1-1.1,0-.9.6-1.2,1s.6,1.4.2,1.9c-.3.6-.6.7-.8,1.1s.2.3.2.6c0,.2-.4.8-.3,1.4s.6.5,0,2c-.7,1.5-.2,1.2.2,1.8.5.6.2,1.8,0,2.1s-1,0-1.5.5c-.5.4-.2.9-.6,1.1-.5.2-.7,1-.4,1.8ZM82.3,43.4s-1.4.6-1.8,0c-.5-.7-1.4-1-2-1.7,0,0,.4-.6.7-.6s.7.5,1.3.3c.6-.2,1.7-.2,2.1,0s-.2,2-.2,2ZM78.8,45.2s2.1,0,2.7,0c.6,0,1.4.7,1.4.7,0,0-1.1.4-1.6.7-.5.3-1,.2-1.5,0s-1-.2-1.8-.7c-.7-.5.8-.7.8-.7ZM77,41c.2-.4.6-1.3.9-1.7.2-.4.6.4,1,.2.4-.2.6-.7.6-.7l.2,1c.2,1-.6.6-1.1.7-.5.2-.3.6-.6.9s.3,1.5.6,2.1c.3.6,0,.8-.4.9-.4,0-.7-1-1.1-1.4s-.3-1.4,0-1.8Z"/>
  </g>
</svg>