<?xml version="1.0" encoding="UTF-8"?>
<svg xmlns="http://www.w3.org/2000/svg" xmlns:xlink="http://www.w3.org/1999/xlink" version="1.1" viewBox="0 0 106.2 64.3">
  <defs>
    <style>
      .cls-1 {
        fill: #422715;
      }

      .cls-1, .cls-2, .cls-3, .cls-4, .cls-5, .cls-6, .cls-7, .cls-8, .cls-9, .cls-10, .cls-11, .cls-12, .cls-13, .cls-14, .cls-15, .cls-16, .cls-17, .cls-18, .cls-19, .cls-20, .cls-21 {
        stroke-width: 0px;
      }

      .cls-2 {
        fill: #474747;
      }

      .cls-3 {
        fill: #c9c9c9;
      }

      .cls-22 {
        clip-path: url(#clippath);
      }

      .cls-4 {
        fill: none;
      }

      .cls-5 {
        fill: #615036;
      }

      .cls-6 {
        fill: #4a5f49;
      }

      .cls-7 {
        fill: #e0e0e0;
      }

      .cls-8 {
        fill: #4c6049;
      }

      .cls-9 {
        fill: #435441;
      }

      .cls-10 {
        fill: #425441;
      }

      .cls-11 {
        fill: #a1a1a1;
      }

      .cls-12 {
        fill: #899859;
      }

      .cls-13 {
        fill: #5f7158;
      }

      .cls-14 {
        fill: #c54343;
      }

      .cls-15 {
        fill: #594739;
      }

      .cls-16 {
        fill: #5e7057;
      }

      .cls-17 {
        fill: #a63838;
      }

      .cls-23 {
        isolation: isolate;
      }

      .cls-18 {
        fill: #fff;
      }

      .cls-19 {
        fill: #9bab64;
      }

      .cls-20 {
        fill: #898c86;
        mix-blend-mode: multiply;
        opacity: .3;
      }

      .cls-21 {
        fill: #4b5f49;
      }
    </style>
    <clipPath id="clippath">
      <rect class="cls-4" y="-1.3" width="106.2" height="65.6"/>
    </clipPath>
  </defs>
  <g class="cls-23">
    <g id="Livello_1" data-name="Livello 1">
      <g class="cls-22">
        <g>
          <path class="cls-19" d="M105.4,24.4c-1.7-1.1-1.4,0-3.4-1.6-1.5-1.2-3.1-2.1-4.7-2.7,0,0,0,0-.1-.1-5-4.4-7.8-2.3-12.6,0-3.8,1.9-8.3,4.3-11.6,6.8-1,.8-6,5.4-12,10.1-4.2,3-10.5,6.8-19.4,10.7-8.7,3.7-11.9,1.4-26.1,8.2-5.8,2.8-12.7,7.4-12.7,7.4l103.2-2.5-.8-36.3Z"/>
          <path class="cls-12" d="M106.2,23.1c-5.9-4.6-11.9-5.7-14.1-5.7,1.4.4,3.2,1.2,4.6,2.4,3,2.7,2.2,6,.5,9.8-1.7,3.8-1.6,5.6-10.5,14-.9.8-1.1,3.7-4.3,8.2,0,0-3.6,4.2-22,10.4-9.8,3.3,45.8,2,45.8,2V23.1Z"/>
          <g>
            <path class="cls-20" d="M90.5,29.7s-.6-.2-.7,0c0,0,.2.1.4.3.1.2,0,.3,0,.3,0,.2.3,0,.4.2.1.2.3.3.4.3,0,0,.2-.2.3-.1.1.1,0,.3.2.3.5,0,.6-.4.7-.3,0,0,.5-.4.5-.2,0,.2.5-.3.5-.3,0,0,0-.2-.1-.1-.2,0,.1-.4.2-.2.1.2.1-.2,0-.4-.1-.2-.5-.4-.5-.4l-.5.4-1,.3h-.7Z"/>
            <path class="cls-16" d="M89.8,28.2c0,0-.1.2,0,.4,0,0-.2.2-.2.3,0,.2.3.2.3.2,0,0-.3,0-.3.2,0,.1.2.3.3.4.2.1.3-.3.6.1.3.4.9.2.9.2h.8c.5.2.4,0,.3-.1,0-.1,0-.2,0-.2,0,0,.1,0,.1,0,0,0-.1-.2,0-.2.2,0,.2-.3.2-.3,0,0-.1,0-.1-.2,0-.1,0-.1,0-.2,0-.2-.4-.2-.4-.2,0,0,0-.1,0-.2,0,0,0,0,0,0,0,0,.1,0,.1,0,0-.2-.2-.1-.2-.1h0c0,0,.1,0,0-.3-.1-.2-.3,0-.4,0,0,0-.2-.3-.3-.4,0,0-.1,0-.1,0,0,0,0-.2-.2-.3,0,0-.3.1-.3.1,0,0-.2,0-.4,0-.1,0-.3.2-.3.2,0,0,0,.1,0,.1s-.2,0-.2,0c0,0,.1,0,.1,0,0,0-.2,0-.4.2,0,0,0,.2,0,.2h0Z"/>
            <path class="cls-10" d="M89.6,29.3c-.2,0-.1.3,0,.3,0,0,.1,0,.1,0,0,.1.2,0,.2,0h0c0,0,0,.4.1.3.1,0,0-.2,0-.2,0,0,.1,0,.1,0h0c0,0,0,.1.1.1.2,0,0-.1.2,0,.1,0,0,.1,0,.1,0,0,.4.1.5,0,0-.1,0-.1.1,0,.1,0,0,0,0,0h.1c0,.1,0,.2.2.2.2,0,.1-.1.1-.1h.1c0,0,0,.2.3,0,.2-.2.2,0,.2,0,0,0,.2,0,.2-.1,0-.1,0-.2,0-.2v-.2s.1,0,.1,0c0,0,0,0,0,0,0,0-.2-.1,0-.2,0,0,.2.2.2,0,0-.2,0,0,0-.2,0-.1-.1-.2-.1-.2,0,0,.1,0,0-.1,0-.2-.1-.2-.1-.2h-.3c0-.1-.2.2-.2.2h0s.2.3.2.3v.4s0,0,0,0c0,0,0,0,0,.3,0,.2.2.2,0,.3-.1,0-.1,0-.2,0s-.2-.2-.3-.2c0,0-.5.2-.5.2,0,0-.1-.2-.2-.2s-.2,0-.2,0l-.4-.2s-.2-.2-.2-.2-.2,0-.2,0h-.1s0-.1-.2-.1Z"/>
            <path class="cls-6" d="M90.8,28s-.2,0-.2.1c0,0,0,.2,0,.3,0,0-.2,0-.2,0s-.3,0-.2,0c0,0,0,.2-.1.2s-.2,0-.2,0c0,0-.1,0,0,0,0,0,.1.3.1.3,0,0,.3,0,.2,0,0,0-.2-.1,0-.2.1,0,.1,0,.2,0,.1,0,0-.1.1-.2,0,0,.1,0,.2,0s.2,0,.2,0c0,0,0,0,0-.2,0-.2.1-.2.1-.2h0s0-.2,0-.2c0,0,.2,0,.1-.2,0-.1,0-.2,0-.2h-.2s0,0,0,.1c0,.2-.2.2-.2.2Z"/>
          </g>
          <g>
            <path class="cls-20" d="M102.5,26.2s-.6-.2-.7,0c0,0,.2.1.4.3.1.2,0,.3,0,.3,0,.2.3,0,.4.2.1.2.3.3.4.3,0,0,.2-.2.3-.1.1.1,0,.3.2.3.5,0,.6-.4.7-.3,0,0,.5-.4.5-.2,0,.2.5-.3.5-.3,0,0,0-.2-.1-.1-.2,0,.1-.4.2-.2.1.2.1-.2,0-.4-.1-.2-.5-.4-.5-.4l-.5.4-1,.3h-.7Z"/>
            <path class="cls-16" d="M101.8,24.7c0,0-.1.2,0,.4,0,0-.2.2-.2.3,0,.2.3.2.3.2,0,0-.3,0-.3.2,0,.1.2.3.3.4.2.1.3-.3.6.1.3.4.9.2.9.2h.8c.5.2.4,0,.3-.1,0-.1,0-.2,0-.2,0,0,.1,0,.1,0,0,0-.1-.2,0-.2.2,0,.2-.3.2-.3,0,0-.1,0-.1-.2,0-.1,0-.1,0-.2,0-.2-.4-.2-.4-.2,0,0,0-.1,0-.2,0,0,0,0,0,0,0,0,.1,0,.1,0,0-.2-.2-.1-.2-.1h0c0,0,.1,0,0-.3-.1-.2-.3,0-.4,0,0,0-.2-.3-.3-.4,0,0-.1,0-.1,0,0,0,0-.2-.2-.3,0,0-.3.1-.3.1,0,0-.2,0-.4,0-.1,0-.3.2-.3.2,0,0,0,.1,0,.1s-.2,0-.2,0c0,0,.1,0,.1,0,0,0-.2,0-.4.2,0,0,0,.2,0,.2h0Z"/>
            <path class="cls-10" d="M101.6,25.8c-.2,0-.1.3,0,.3,0,0,.1,0,.1,0,0,.1.2,0,.2,0h0c0,0,0,.4.1.3.1,0,0-.2,0-.2,0,0,.1,0,.1,0h0c0,0,0,.1.1.1.2,0,0-.1.2,0,.1,0,0,.1,0,.1,0,0,.4.1.5,0,0-.1,0-.1.1,0,.1,0,0,0,0,0h.1c0,.1,0,.2.2.2.2,0,.1-.1.1-.1h.1c0,0,0,.2.3,0,.2-.2.2,0,.2,0,0,0,.2,0,.2-.1,0-.1,0-.2,0-.2v-.2s.1,0,.1,0c0,0,0,0,0,0,0,0-.2-.1,0-.2,0,0,.2.2.2,0,0-.2,0,0,0-.2,0-.1-.1-.2-.1-.2,0,0,.1,0,0-.1,0-.2-.1-.2-.1-.2h-.3c0-.1-.2.2-.2.2h0s.2.3.2.3v.4s0,0,0,0c0,0,0,0,0,.3,0,.2.2.2,0,.3-.1,0-.1,0-.2,0s-.2-.2-.3-.2c0,0-.5.2-.5.2,0,0-.1-.2-.2-.2s-.2,0-.2,0l-.4-.2s-.2-.2-.2-.2-.2,0-.2,0h-.1s0-.1-.2-.1Z"/>
            <path class="cls-6" d="M102.8,24.5s-.2,0-.2.1c0,0,0,.2,0,.3,0,0-.2,0-.2,0s-.3,0-.2,0c0,0,0,.2-.1.2s-.2,0-.2,0c0,0-.1,0,0,0,0,0,.1.3.1.3,0,0,.3,0,.2,0,0,0-.2-.1,0-.2.1,0,.1,0,.2,0,.1,0,0-.1.1-.2,0,0,.1,0,.2,0s.2,0,.2,0c0,0,0,0,0-.2,0-.2.1-.2.1-.2h0s0-.2,0-.2c0,0,.2,0,.1-.2,0-.1,0-.2,0-.2h-.2s0,0,0,.1c0,.2-.2.2-.2.2Z"/>
          </g>
          <g>
            <path class="cls-20" d="M76.6,29.1s-.6-.2-.7,0c0,0,.2.1.4.3.1.2,0,.3,0,.3,0,.2.3,0,.4.2.1.2.3.3.4.3,0,0,.2-.2.3-.1.1.1,0,.3.2.3.5,0,.6-.4.7-.3,0,0,.5-.4.5-.2,0,.2.5-.3.5-.3,0,0,0-.2-.1-.1-.2,0,.1-.4.2-.2.1.2.1-.2,0-.4-.1-.2-.5-.4-.5-.4l-.5.4-1,.3h-.7Z"/>
            <path class="cls-16" d="M75.9,27.6c0,0-.1.2,0,.4,0,0-.2.2-.2.3,0,.2.3.2.3.2,0,0-.3,0-.3.2,0,.1.2.3.3.4.2.1.3-.3.6.1.3.4.9.2.9.2h.8c.5.2.4,0,.3-.1,0-.1,0-.2,0-.2,0,0,.1,0,.1,0,0,0-.1-.2,0-.2.2,0,.2-.3.2-.3,0,0-.1,0-.1-.2,0-.1,0-.1,0-.2,0-.2-.4-.2-.4-.2,0,0,0-.1,0-.2,0,0,0,0,0,0,0,0,.1,0,.1,0,0-.2-.2-.1-.2-.1h0c0,0,.1,0,0-.3-.1-.2-.3,0-.4,0,0,0-.2-.3-.3-.4,0,0-.1,0-.1,0,0,0,0-.2-.2-.3,0,0-.3.1-.3.1,0,0-.2,0-.4,0-.1,0-.3.2-.3.2,0,0,0,.1,0,.1s-.2,0-.2,0c0,0,.1,0,.1,0,0,0-.2,0-.4.2,0,0,0,.2,0,.2h0Z"/>
            <path class="cls-10" d="M75.7,28.7c-.2,0-.1.3,0,.3,0,0,.1,0,.1,0,0,.1.2,0,.2,0h0c0,0,0,.4.1.3.1,0,0-.2,0-.2,0,0,.1,0,.1,0h0c0,0,0,.1.1.1.2,0,0-.1.2,0,.1,0,0,.1,0,.1,0,0,.4.1.5,0,0-.1,0-.1.1,0,.1,0,0,0,0,0h.1c0,.1,0,.2.2.2.2,0,.1-.1.1-.1h.1c0,0,0,.2.3,0,.2-.2.2,0,.2,0,0,0,.2,0,.2-.1,0-.1,0-.2,0-.2v-.2s.1,0,.1,0c0,0,0,0,0,0,0,0-.2-.1,0-.2,0,0,.2.2.2,0,0-.2,0,0,0-.2,0-.1-.1-.2-.1-.2,0,0,.1,0,0-.1,0-.2-.1-.2-.1-.2h-.3c0-.1-.2.2-.2.2h0s.2.3.2.3v.4s0,0,0,0c0,0,0,0,0,.3,0,.2.2.2,0,.3-.1,0-.1,0-.2,0s-.2-.2-.3-.2c0,0-.5.2-.5.2,0,0-.1-.2-.2-.2s-.2,0-.2,0l-.4-.2s-.2-.2-.2-.2-.2,0-.2,0h-.1s0-.1-.2-.1Z"/>
            <path class="cls-6" d="M76.9,27.5s-.2,0-.2.1c0,0,0,.2,0,.3,0,0-.2,0-.2,0s-.3,0-.2,0c0,0,0,.2-.1.2s-.2,0-.2,0c0,0-.1,0,0,0,0,0,.1.3.1.3,0,0,.3,0,.2,0,0,0-.2-.1,0-.2.1,0,.1,0,.2,0,.1,0,0-.1.1-.2,0,0,.1,0,.2,0s.2,0,.2,0c0,0,0,0,0-.2,0-.2.1-.2.1-.2h0s0-.2,0-.2c0,0,.2,0,.1-.2,0-.1,0-.2,0-.2h-.2s0,0,0,.1c0,.2-.2.2-.2.2Z"/>
          </g>
          <path class="cls-6" d="M91.1,28.8s0-.3.1-.3c0,0,.2,0,.2.1,0,0,0-.2,0-.2s.2,0,.2.2c0,.1-.1,0-.1.2,0,.2,0,.2-.2.3-.1,0-.1-.2-.1-.2,0,0-.2,0-.2,0,0,0-.1,0,0-.1,0-.2.2,0,.2,0Z"/>
          <g>
            <path class="cls-16" d="M48.6,34.1s.6-1,1.1-.8,0,0,.5,0-.7-.3-.2-1.6,1.2-.3,1.2-.6,0-1.1.5-1.3,1.5,1,1.9.5.8-.9,1.2-.8.8,1.2,1.1.8-.5-1.3-.1-1.8.8-.5.8-1.1-.7-1.3-.5-1.9.9-1.2,1.5-.9,1.4-.5,1.6-.8.4-.5,1-.2,1.4-.2,1.2-.4c-.6-.3-1.3-1.2-.2-2.1s1.6-.3,1.9-.3c.5,0,.3-1.5,1.1-.6s1.3,1.1,1.2.2.2-1.5.7-1.3.2-.5.8-1.2,2.4-.6,2.5.2c.2,1.3.9,0,2.7,1.1,1.3.8-2.9,5.8-3.4,6.2s0,1.2-.8,1.2-2.3,1.6-2.3,1.6c0,0-5.9,1.4-7,1.9s-3,1.1-2.9,1.7.2,1.7.2,1.7l.6,2.9-9.3,1.3s-.7-.9-.3-1.6,1.3.7,1.8-2.1Z"/>
            <g>
              <path class="cls-8" d="M51.8,32.8s-.3-1.4.1-1,.7,0,.7-.3.2-1.1.5-.5.5.7.7.3.2-1.1.5-1,0,.9.2,1.1.5-.2.7,0l.4.5s-2,1.6-2.4,1.9-1.6,1.1-1.6,1.1c0,0,.8-1.5.2-2Z"/>
              <path class="cls-9" d="M50.4,34.3s.4-.4.6-.2.7,0,.6.2-.3.4-.5.5-.9,1-.9.6.2-1,.2-1Z"/>
              <path class="cls-8" d="M57.4,29s.2-.6.4-.4.5.3.6.1.3-.3.2-.6,0-.4,0-.5.2-.2,0-.4-.9.1-.9,0,.4-.6.4-.6h.2c0,0,.3-.1.3-.1h.2c0,.1.3,1,.4,1.1s.3.4.3.4c0,0-.7.4-.7.7s.1.4-.2.6-1,.5-1,.5-.4-.1-.4-.2.2-.7.2-.7Z"/>
              <path class="cls-8" d="M58.8,25s.8-.5,1-.4.6,0,.6,0c0,0,0,.4,0,.4s-.4.1-.4.1l-.7.2-.5-.5Z"/>
              <path class="cls-8" d="M64.4,25.5l2.3-2.2s0-.3-.2-.4-1.3-.3-1.2,0-.8,0-.8,0c0,0-1.5-.2-1.4,0s0,.6,0,.6h.5s.3.2.3.2c0,0,.4-.9.6-.2s-1.1,1.1-1.1,1.1-.4-.4-.3,0v.4c0,0,.7,0,.7,0v.5c0,0,.6,0,.6,0Z"/>
              <path class="cls-8" d="M67.1,20.3s.2-.6.4-.5.4.4.4.4l-.3.6h-.4c0,0-.6.2-.6.2,0-.2-.2-1.1-.2-1.1,0,0,.6.2.5.3s.2.2.2.2Z"/>
              <path class="cls-8" d="M69,19.5s.1,0,.3,0c.2,0,.5,0,.5.1,0,.2-.2.2-.1.4s.3,0,.3,0c0,0,.3.2.2.2s-.3.2-.4.2-.3.2-.4,0-.1-.2,0-.4-.6-.2-.6-.3.2-.2.2-.2Z"/>
              <path class="cls-8" d="M67.3,18.4s.3-.3.4-.2.2.2.2.3-.3.3-.3.3c0,0,.2-.3,0-.3s-.3-.1-.3-.1Z"/>
              <path class="cls-8" d="M62,21.7s.9-.3,1-.2,0,.3,0,.3h-.2s-.2-.2-.3-.1-.5.4-.5.3-.1-.2-.1-.2v-.2Z"/>
            </g>
          </g>
          <g>
            <path class="cls-15" d="M78.5,34.5s.3.8.3,1,0,.8,0,.9,0,1.6,0,1.6c0,0,.3.2.4.2s.2-.4.2-.4c0,0-.1-2,0-2.2s.6-1.5.6-1.5h-.3c0,0-.2,1-.3,1.1s-.2-1-.2-1h-.2c0,0,0,.4.1.6s.1.5,0,.5-.4-1-.4-1l-.2.3Z"/>
            <path class="cls-13" d="M76.4,32.2s0-.2,0-.3-.2-.2,0-.3.2,0,.3-.2,0-.3.2-.4.4-.3.2-.4-.2-.2-.1-.3,0-.1,0-.3,0-.3,0-.4.3-.6.4-.6.2.2.3.2,0-.4.2-.5.2.1.3-.2-.3-.3,0-.4.4-.1.5,0,.2,0,.1-.1-.3,0-.3-.2,0-.2.2-.3.4-.6.4-.7,0-1,.1-.8.3,1.3.4,1.4.1.1.1.3-.2.6-.2.6l.5,1.4.3-.2.4.3.2.8-.2.5-.5,1.9-2.5.5-1.4-1.2Z"/>
            <path class="cls-9" d="M78.8,34.2s0,.2-.2.3-.4.2-.4,0,.1-.3,0-.4,0-.3-.2-.2-.2.2-.2.2c0,0,0,0-.1,0s0,0-.2,0-.3-.1-.2-.2,0-.2-.1-.2-.4,0-.5-.2,0-.4,0-.6,0-.3,0-.3c0,0-.3-.1-.4-.2s0-.2,0-.2c0,0,0,.1.1.2s.4.3.5.3.6.1.6.2-.2.2,0,.2.4,0,.3.1-.3.3-.3.4,0,.4.3.3.4,0,.5,0,.2.1.3.2,0,0,.3,0,.4,0,.5,0,.1.3.3.2.3-.2.4-.2.2-.1.2-.3,0-.4.2-.4.4,0,.6-.1,0-.3.1-.4.3-.2.3-.2c0,0,0,.2-.1.3s-.3.4-.3.5,0,.2-.2.3-.2.2-.4.3,0,.1-.2.1-.3.2-.5.3-.3.1-.4,0,.2-.2,0-.1-.4-.1-.4-.1Z"/>
            <path class="cls-21" d="M81.5,32.2c-.1,0,0-.2-.1-.3s-.3,0-.3-.1-.1-.3,0-.5c.1-.1.2,0,0-.4-.2-.3,0-.3,0-.4s0-.3,0-.3,0,0,0-.1-.1-.1-.2-.3c0-.1.1-.4,0-.4s0-.2-.3-.2c-.3,0-.4,0-.4-.2s.2-.3,0-.4c-.1-.1-.2-.3-.4-.3-.2,0-.3,0-.3-.2,0-.2.1-.4,0-.5s-.2-.5-.2-.5c0,0,0,.5,0,.6s-.3-.3-.3-.1,0,.2-.1.2-.2,0-.2,0c0,0,.4.2.5.3,0,0,.2.5.3.6s0,.4-.2.4c-.2,0-.4-.2-.6-.2s-.2.1-.4.1-.3-.1-.2-.2-.2-.1-.2,0-.2.1-.1.2.3.3.3.3.2,0,.3,0,.6,0,.6,0c0,.1.3.2.2.3,0,.1-.2.1-.4,0-.2,0-.4-.3-.4-.2s.2.3,0,.3c-.1,0-.2-.3-.3-.1,0,.1,0,.2-.2.2-.1,0-.2,0-.4.1s-.3,0-.3,0c0,0-.2.2-.1.3,0,0,.3-.1.5-.1s.3,0,.5,0c.2,0,.1-.2.3,0,.2,0,.1.1.3.1s.3,0,.3.2c0,.1,0,.3-.1.3s-.4,0-.4.2c0,0,0,0-.3,0s-.4,0-.4,0c0,0-.2.2-.3.1s-.1-.4-.1-.4c0,0,0-.2,0-.1,0,0-.2.2-.2.3s-.1.4-.1.5-.2,0-.3,0c0,0,.2.4,0,.4-.1,0-.3-.1-.4,0s0,.4,0,.4h.2c-.2.3.1.3.1.3,0,0,.2.1.3.2s.2,0,.3,0,.2-.1.3,0c.1,0,0,0,.2,0s.2,0,.3,0c.1,0,0-.2,0-.3s-.3,0-.5,0-.2,0-.2-.1c0,0,0-.1.1-.3.2-.2.3-.3.4-.3.1,0,.3.2.6.2.2,0,.2,0,.4,0,.2,0,.3.1.3.2s0,0-.2,0-.3,0-.3,0,.2.2.4.2.6,0,.8,0c.1,0,.3,0,.2.1s0,.2-.2.2-.3,0-.5,0c-.2,0-.1.2-.3.2s-.2-.1-.3-.2c0,0-.2-.2-.2-.2,0,0-.1-.1-.1,0s.2.4.2.4c0,0,.3.3.2.4s0,.2-.3.2c-.3,0-.4-.2-.6,0s-.5,0-.6.2c0,.1.1.6.1.6h.3s.6.1.6.1l.2.2h.6c0,0,.3.2.3.2l.5-.3.6-.4v-.2c.1,0,.4-.3.4-.3l.3-.4s.2,0,.3-.2c0-.2,0-.3,0-.4ZM79.5,30.2c0,0,.3,0,.5,0,.1,0,.2,0,.3,0s.2.1.2.1c-.1.1-.3.2-.4.4-.1.2-.4,0-.4,0,0,0-.1-.4,0-.4ZM80.5,31.2c-.2.1-.3.1-.4.2s-.2,0-.3,0c-.1,0-.4-.2-.4-.2,0,0,.2-.2.3-.2.1,0,.6,0,.6,0,0,0,.3,0,.2.2ZM80.8,30.5c0,.1-.2.3-.3.3,0,0-.2,0,0-.2,0-.1.2-.4.1-.5s0-.2-.1-.2c-.1,0-.3,0-.3-.2v-.2c0,0,.1.1.2.2,0,0,.2-.1.2,0,0,0,.1.3.2.4s0,.3,0,.4Z"/>
          </g>
          <g>
            <path class="cls-15" d="M75.1,38.7s.3.9.4,1.2,0,.9,0,1.1,0,2,0,2c0,0,.3.3.5.2s.2-.5.2-.5c0,0-.2-2.5,0-2.7s.7-1.8.7-1.8h-.3c0,0-.3,1.2-.4,1.3s-.3-1.2-.3-1.2h-.2c0-.1,0,.5.1.7s.1.6,0,.6-.5-1.2-.5-1.2l-.2.4Z"/>
            <path class="cls-13" d="M72.5,35.9s0-.3,0-.4-.2-.2,0-.3.3,0,.4-.3,0-.4.2-.5.4-.3.3-.5-.2-.2-.2-.4,0-.2,0-.4,0-.4,0-.5.4-.8.4-.7.2.3.4.3,0-.5.2-.6.3.1.3-.3-.4-.4-.1-.5.5-.1.6,0,.2,0,.2-.2-.4,0-.4-.3,0-.3.2-.4.4-.7.4-.8,0-1.3.2-1,.4,1.6.5,1.7.2.1.2.4-.2.7-.2.7l.6,1.7.4-.2.5.4.2.9-.3.6-.6,2.3-3,.6-1.7-1.4Z"/>
            <path class="cls-9" d="M75.5,38.4s0,.2-.2.3-.5.2-.5,0,.2-.4,0-.5-.1-.3-.3-.2-.3.2-.3.2c0,0,0,0-.2,0s0,0-.2,0-.3-.2-.3-.3,0-.2-.1-.3-.5,0-.6-.3,0-.5,0-.7,0-.4,0-.4c0,0-.4-.2-.4-.3s0-.3,0-.3c0,0,0,.2.2.2s.5.3.6.3.8.2.7.3-.2.3,0,.3.5,0,.4.1-.4.3-.4.5.1.5.3.4.5-.1.6,0,.3.2.3.2.1,0,.4,0,.5,0,.6,0,.2.4.3.2.4-.2.5-.2.2-.1.3-.3.1-.4.3-.5.5,0,.7-.1,0-.4.2-.5.3-.2.3-.2c0,0,0,.3-.1.4s-.3.4-.3.6,0,.3-.2.4-.3.2-.5.4,0,.1-.3.1-.4.2-.6.4-.4.2-.4,0,.2-.2,0-.2-.5-.1-.5-.1Z"/>
            <path class="cls-21" d="M78.7,36c-.1,0,0-.2-.2-.3s-.4,0-.4-.1-.1-.4,0-.6c.1-.2.3,0,0-.5-.2-.4,0-.4,0-.5s0-.3,0-.4.1,0,0-.2-.1-.2-.2-.3c0-.2.2-.4,0-.5s0-.3-.3-.3c-.3,0-.5-.1-.5-.3s.3-.4.1-.5c-.2-.2-.3-.3-.5-.4-.2,0-.4,0-.3-.3,0-.2.2-.5,0-.6s-.2-.6-.2-.6c0,0,0,.6,0,.7s-.3-.3-.4-.1,0,.3-.1.3-.3,0-.2.1c0,.1.5.2.6.3,0,0,.2.6.3.7s0,.5-.2.5c-.2,0-.5-.2-.7-.2s-.3.2-.5.2-.3-.2-.3-.3-.2-.2-.2,0-.2.2-.2.3.3.4.4.4.2,0,.4,0,.7,0,.7,0c.1.2.3.2.2.4,0,.1-.2.2-.5,0-.3,0-.5-.4-.4-.2s.3.4.1.4c-.2,0-.3-.3-.3-.2,0,.2,0,.2-.2.3-.1,0-.3.1-.4.1s-.4,0-.4.1c0,0-.2.2-.2.3,0,.1.4-.1.6-.2s.3,0,.6,0c.3-.1.2-.2.4,0,.2.1.2.2.3.2s.3.1.4.3c0,.2,0,.3-.2.3s-.5.1-.4.2c0,.1,0,0-.3,0s-.4,0-.5,0c-.1,0-.3.3-.3.1s-.2-.4-.2-.4c0,0,0-.2,0-.2-.1,0-.2.2-.2.4s-.2.5-.2.6-.3,0-.3,0c0,0,.2.5,0,.5-.2,0-.4-.2-.5,0s-.1.5-.1.5h.2c-.2.3.1.4.1.4,0,0,.3.2.4.2s.2,0,.3,0,.2-.2.3-.1c.1,0,.1,0,.3,0s.2,0,.3,0c.1,0,0-.2,0-.4s-.3,0-.7,0-.2,0-.3-.1c0,0,0-.2.2-.3.2-.3.4-.4.5-.3.1,0,.4.2.7.2.3,0,.2,0,.5,0,.3,0,.4.1.4.2s0,0-.3.1-.4,0-.4,0,.3.2.5.2.7,0,.9,0c.2,0,.3,0,.3.2s0,.2-.2.2-.4-.1-.6,0c-.2,0-.1.2-.3.2s-.3-.1-.4-.2c-.1-.1-.3-.2-.3-.2,0,0-.2-.2-.2,0s.3.4.3.4c0,0,.3.4.3.4s0,.3-.4.2c-.3,0-.5-.2-.7,0s-.6,0-.7.2c0,.2.1.8.1.8h.3s.7.2.7.2l.2.2h.7c0,0,.4.3.4.3l.6-.3.8-.5v-.2c.1,0,.5-.3.5-.3l.4-.5s.3,0,.4-.2c0-.2,0-.4-.1-.5ZM76.3,33.5c.1,0,.4,0,.6,0,.2,0,.3,0,.4,0s.2.2.2.2c-.2.2-.4.3-.5.5-.1.2-.5,0-.5,0,0,0-.2-.5,0-.5ZM77.6,34.7c-.2.1-.4.1-.5.2s-.3,0-.4,0c-.1,0-.4-.2-.4-.2,0,0,.2-.2.4-.2.2,0,.7,0,.7,0,0,0,.4,0,.2.2ZM77.9,33.9c-.1.1-.2.4-.3.4-.1,0-.2,0-.1-.2,0-.2.3-.5.2-.6s0-.2-.2-.2c-.1,0-.4,0-.3-.2v-.3c0,0,.1.1.2.2.1,0,.2-.2.3,0,0,.1.2.4.2.5s0,.4,0,.5Z"/>
          </g>
          <g>
            <path class="cls-15" d="M76.8,53.9s.5,1.6.7,2.1,0,1.7,0,2,0,3.5,0,3.5c0,0,.5.5.9.4s.4-.9.4-.9c0,0-.3-4.5-.1-4.9s1.3-3.3,1.3-3.3l-.6-.2s-.5,2.3-.7,2.5-.5-2.1-.5-2.1l-.4-.2s.1,1.2.2,1.5.2,1,0,1.1-.9-2.1-.9-2.1l-.4.7Z"/>
            <path class="cls-13" d="M72.2,48.9s-.2-.5,0-.7-.4-.4,0-.5.5-.1.7-.5,0-.6.4-.9.8-.6.5-.9-.4-.4-.3-.7.1-.3.1-.7,0-.7.1-.8.6-1.4.8-1.2.4.5.7.5,0-.9.4-1.1.5.2.5-.5-.6-.7-.2-.9.8-.2,1.1-.2.4,0,.3-.3-.7-.2-.7-.5.1-.5.4-.7.8-1.2.8-1.5,0-2.2.3-1.8.7,2.8.9,3,.3.2.3.7-.4,1.2-.4,1.2l1.1,3.1.7-.4.8.7.4,1.7-.5,1.1-1,4.1-5.4,1.1-3-2.6Z"/>
            <path class="cls-9" d="M77.4,53.3s0,.4-.4.5-.9.4-.9,0,.3-.6.1-.9-.2-.6-.5-.4-.5.4-.5.4c0,0-.2,0-.3-.2s0,0-.4,0-.6-.3-.5-.5.1-.4-.2-.5-1,0-1-.5-.2-.9,0-1.2,0-.6,0-.6c0,0-.6-.3-.8-.5s.1-.5.1-.5c0,0-.1.3.3.4s.9.5,1,.5,1.4.3,1.3.5-.4.5,0,.5,1,0,.7.2-.7.6-.7.9.2.8.5.7.9-.2,1,0,.5.3.6.4.2,0,.6,0,.9-.2,1,0,.3.7.6.4.7-.4.9-.4.4-.2.5-.5.2-.8.5-.9,1,.1,1.2-.2.1-.7.3-.8.5-.4.5-.4c0,0,0,.5-.2.7s-.5.8-.6,1.1-.1.5-.4.6-.5.4-.9.6-.2.2-.5.2-.7.4-1.1.7-.7.3-.8,0,.4-.4-.1-.3-.9-.2-.9-.2Z"/>
            <path class="cls-21" d="M83.3,48.9c-.2-.1,0-.4-.3-.5s-.7-.1-.7-.2-.2-.7,0-1c.2-.3.5-.1.1-.9-.4-.7,0-.7,0-1s-.2-.6-.2-.7.2,0,0-.3-.2-.3-.4-.5c-.2-.3.3-.8.1-.9s0-.5-.6-.5c-.5,0-.9-.2-.9-.5s.5-.6.2-.9c-.3-.3-.5-.5-.8-.7-.4-.1-.7-.1-.5-.5.1-.4.3-.8,0-1s-.4-1-.4-1c0,0,0,1.1,0,1.3s-.5-.5-.7-.2,0,.5-.2.5-.5,0-.4.2c.1.2.9.4,1.1.5.1.2.4,1.1.6,1.2s0,.9-.4.8c-.4,0-.9-.4-1.2-.4s-.5.3-.9.3-.6-.3-.5-.5-.4-.3-.4-.1-.4.3-.3.5.5.6.7.7.4-.1.7,0,1.3.1,1.3.1c.2.3.5.4.4.6-.2.2-.4.3-.9.1-.5-.2-.9-.6-.8-.4s.5.7.2.7c-.3,0-.5-.6-.6-.3,0,.3-.2.4-.4.5-.2,0-.5.2-.8.2s-.6,0-.7.2c-.1.2-.4.4-.3.6,0,.2.7-.2,1.1-.3s.5,0,1-.2c.5-.2.3-.4.7-.2.4.2.3.3.6.3s.5.2.6.5c0,.3,0,.5-.3.5s-.9.2-.8.4c.1.2-.2,0-.5,0s-.8,0-1,0c-.2,0-.5.5-.6.2s-.3-.8-.3-.8c0,0,0-.4-.2-.3-.2,0-.4.4-.4.7s-.3.9-.3,1.1-.5,0-.6.2c0,.2.4.8.1,1-.3.2-.7-.3-.9,0s-.2.8-.2.8l.4.2c-.4.4.2.5.2.5,0,0,.5.3.7.4s.4,0,.6,0,.4-.3.6-.2c.2.1.2-.2.5-.2s.4,0,.6-.1c.2-.1,0-.4,0-.6s-.6-.1-1.2-.1-.4-.1-.5-.3c0-.1,0-.3.3-.6.4-.5.7-.7.9-.6.2,0,.7.4,1.2.4.5,0,.4,0,.9,0,.5,0,.7.2.6.4s0,.2-.5.2-.7-.1-.7.1.5.4.9.4,1.3-.2,1.6-.1c.3,0,.6.1.5.3s0,.4-.4.4-.7-.2-1.1-.1c-.4,0-.2.4-.5.4s-.5-.2-.7-.4c-.2-.2-.5-.4-.5-.4,0,0-.3-.3-.3,0s.5.8.5.8c0,0,.6.6.5.8s0,.5-.6.4c-.6,0-1-.4-1.2-.2s-1.1,0-1.2.4c-.2.3.2,1.4.2,1.4h.5s1.2.3,1.2.3l.4.4,1.3-.2.6.7,1.1-.6,1.4-1,.2-.4.6-.6.7-.9s.5,0,.7-.4c.2-.4,0-.7-.2-.9ZM79,44.6c.2-.1.7,0,1,0,.3,0,.5-.1.6-.2s.4.3.4.3c-.3.3-.7.5-1,.8-.2.4-.9,0-.9,0,0,0-.3-.9-.1-1ZM81.2,46.8c-.4.2-.6.2-.9.4s-.5.2-.7,0c-.2-.2-.8-.4-.8-.4,0,0,.4-.4.7-.4.3,0,1.3,0,1.3,0,0,0,.7.1.4.4ZM81.7,45.2c-.2.2-.4.7-.5.7-.2,0-.4-.2-.2-.4.2-.3.5-.9.3-1s0-.4-.3-.4c-.2,0-.7.1-.5-.4v-.5c.1,0,.2.2.4.4.2.1.4-.3.5,0,.1.2.3.6.4.8s.2.7,0,.9Z"/>
          </g>
          <path class="cls-20" d="M53.7,60.5s.8.2,1.5.4c.7.2,1.6.8,1.6.8,0,0,1,1,1.9.7.2,0,1.4,1.4,2.1.5.7-.9,1.1-.9.8-1.6-.3-.7,2.2-.7,1.6-1.1-1-.6-1.4-1.2-3.3-1.3-1.3-.1-4.9-2.2-5.3-1.7-.4.5-1.2.7-1.2.7,0,0,0,.4.6.8.4.3.8.7.6,1.2,0,.1-1.8,0-1.9,0-.2,0,1,.4,1,.5Z"/>
          <g>
            <path class="cls-15" d="M53.7,51.6s.5,1.4.6,1.8,0,1.5,0,1.7,0,3,0,3c0,0,.5.4.7.3s.3-.8.3-.8c0,0-.2-3.9-.1-4.2s1.2-2.9,1.2-2.9h-.5c0-.1-.4,1.9-.6,2.1s-.4-1.9-.4-1.9l-.3-.2s.1,1,.2,1.3.2.9,0,.9-.7-1.9-.7-1.9l-.3.6Z"/>
            <path class="cls-13" d="M49.7,47.3s-.1-.4,0-.6-.3-.3,0-.5.4-.1.6-.4,0-.5.3-.8.7-.5.4-.8-.3-.4-.2-.6.1-.2.1-.6,0-.6.1-.7.5-1.2.7-1.1.3.4.6.4,0-.8.4-.9.4.2.5-.4-.5-.6-.2-.8.7-.2.9-.1.4,0,.3-.3-.6-.1-.6-.4.1-.4.4-.6.7-1.1.7-1.3,0-1.9.3-1.6.6,2.4.8,2.7.2.2.2.6-.4,1.1-.4,1.1l1,2.7.6-.3.7.6.4,1.5-.4,1-.9,3.5-4.7,1-2.6-2.2Z"/>
            <path class="cls-9" d="M54.3,51.1s0,.3-.3.5-.7.3-.8,0,.2-.5.1-.7-.2-.5-.4-.3-.4.4-.4.4c0,0-.1,0-.2-.1s0,0-.4,0-.5-.2-.4-.4.1-.4-.2-.4-.8,0-.9-.4-.1-.8,0-1.1,0-.5,0-.5c0,0-.5-.2-.7-.4s.1-.4.1-.4c0,0-.1.2.3.4s.7.5.9.5,1.2.3,1.1.4-.3.4,0,.4.8,0,.6.2-.6.5-.6.7.2.7.5.6.8-.2.9,0,.4.3.5.3.2,0,.5,0,.8-.1.9,0,.2.6.5.3.6-.4.7-.4.3-.2.4-.5.2-.7.4-.7.8.1,1.1-.2.1-.6.2-.7.5-.4.5-.4c0,0,0,.4-.2.6s-.5.7-.5,1-.1.4-.3.5-.4.3-.8.5-.1.2-.4.2-.6.3-.9.6-.6.2-.7,0,.3-.3-.1-.2-.8-.2-.8-.2Z"/>
            <path class="cls-21" d="M50,47.4h.3c-.3.5.2.6.2.6,0,0,.4.3.6.3s.3,0,.5,0,.3-.3.5-.2c.2.1.2-.1.4-.1s.3,0,.5-.1c.2-.1,0-.3,0-.5s-.5-.1-1-.1-.4-.1-.5-.2c0-.1,0-.3.3-.5.4-.4.6-.6.8-.5.2,0,.6.3,1.1.4.4,0,.3,0,.8,0,.4,0,.6.2.5.3s0,.1-.4.2-.6-.1-.6.1.4.3.7.3,1.2-.1,1.4-.1c.3,0,.5.1.4.3s0,.3-.4.3-.6-.2-1-.1c-.3,0-.2.3-.5.3s-.4-.2-.6-.4c-.2-.2-.4-.4-.4-.4,0,0-.3-.2-.3,0s.4.7.4.7c0,0,.5.5.4.7s0,.4-.5.4c-.5,0-.8-.3-1.1-.1s-.9,0-1.1.3c-.1.3.2,1.2.2,1.2h.5s1.1.3,1.1.3l.3.3h1.1c0-.1.5.4.5.4l1-.5,1.2-.8.2-.3.5-.5.6-.7s.4,0,.6-.3c.1-.3,0-.6-.2-.7s0-.3-.3-.5-.6-.1-.6-.2-.2-.6,0-.9c.2-.2.4-.1.1-.7-.3-.6,0-.6,0-.8s-.1-.5-.1-.6.2,0,0-.2-.2-.2-.3-.5c-.1-.2.2-.7.1-.8s0-.4-.5-.4c-.5,0-.8-.2-.8-.4s.4-.5.2-.8c-.3-.2-.4-.5-.7-.6-.3-.1-.6-.1-.5-.4.1-.3.3-.7,0-.9s-.4-.9-.4-.9c0,0,0,1,0,1.2s-.5-.5-.6-.2,0,.4-.2.4-.4,0-.3.2c.1.2.8.3.9.5.1.1.3,1,.5,1.1s0,.8-.3.7c-.3,0-.8-.3-1.1-.3s-.4.3-.7.2-.5-.2-.4-.4-.3-.3-.3-.1-.3.2-.2.4.5.5.6.6.3-.1.6,0,1.1.1,1.1.1c.2.3.5.3.3.5-.1.2-.3.2-.7.1-.4-.1-.7-.5-.7-.3s.4.6.2.6c-.3,0-.4-.5-.5-.2,0,.3-.1.3-.3.4-.2,0-.4.2-.7.2s-.5,0-.6.2c-.1.1-.3.3-.3.5,0,.2.6-.2.9-.3s.5,0,.9-.1c.4-.2.3-.3.6-.1.3.2.3.3.5.2s.5.2.5.4c0,.2,0,.5-.3.5s-.8.2-.7.3c.1.2-.1,0-.5,0s-.7,0-.8,0c-.2,0-.4.4-.5.2s-.2-.7-.2-.7c0,0,0-.3-.1-.2-.2,0-.3.3-.3.6s-.2.8-.3,1-.4,0-.5.1c0,.1.3.7.1.8-.2.1-.6-.3-.8,0s-.2.7-.2.7M55.7,43.5c.2-.1.6,0,.9,0,.2,0,.4-.1.5-.1s.3.2.3.2c-.3.3-.6.4-.8.7-.2.3-.8,0-.8,0,0,0-.3-.7-.1-.8ZM57.6,45.4c-.3.2-.5.2-.7.3s-.4.1-.6,0c-.2-.1-.7-.3-.7-.3,0,0,.3-.3.6-.3.3,0,1.2,0,1.2,0,0,0,.6.1.3.3ZM58,44.1c-.2.2-.3.6-.5.6-.2,0-.3-.1-.2-.4.1-.2.4-.7.3-.9s0-.3-.3-.4c-.2,0-.6.1-.5-.3v-.4c.1,0,.2.2.4.3.2.1.3-.2.4,0,.1.2.3.5.4.7s.1.6,0,.8Z"/>
          </g>
          <g>
            <path class="cls-15" d="M93.7,22.3s0,.3.1.4,0,.3,0,.4,0,.6,0,.6c0,0,0,0,.2,0s0-.2,0-.2c0,0,0-.8,0-.9s.2-.6.2-.6h-.1s0,.4-.1.4,0-.4,0-.4h0s0,.2,0,.2,0,.2,0,.2-.2-.4-.2-.4h0Z"/>
            <path class="cls-13" d="M92.9,21.4s0,0,0-.1,0,0,0,0,0,0,.1,0,0-.1,0-.2.1-.1,0-.2,0,0,0-.1,0,0,0-.1,0-.1,0-.1.1-.2.1-.2,0,0,.1,0,0-.2,0-.2,0,0,0,0-.1-.1,0-.2.1,0,.2,0,0,0,0,0-.1,0-.1,0,0,0,0-.1.1-.2.1-.3,0-.4,0-.3.1.5.2.5,0,0,0,.1,0,.2,0,.2l.2.5h.1c0,0,.1,0,.1,0v.3c0,0,0,.2,0,.2l-.2.7-.9.2-.5-.5Z"/>
            <path class="cls-9" d="M93.8,22.2s0,0,0,0-.2,0-.2,0,0-.1,0-.2,0-.1,0,0,0,0,0,0c0,0,0,0,0,0s0,0,0,0-.1,0,0,0,0,0,0,0-.2,0-.2,0,0-.2,0-.2,0-.1,0-.1c0,0-.1,0-.1,0s0,0,0,0c0,0,0,0,0,0s.2,0,.2,0,.2,0,.2,0,0,0,0,0,.2,0,.1,0-.1.1-.1.2,0,.1,0,.1.2,0,.2,0,0,0,.1,0,0,0,.1,0,.2,0,.2,0,0,.1.1,0,.1,0,.2,0,0,0,0,0,0-.1,0-.2.2,0,.2,0,0-.1,0-.1,0,0,0,0c0,0,0,0,0,.1s0,.1-.1.2,0,0,0,.1,0,0-.2.1,0,0,0,0-.1,0-.2.1-.1,0-.1,0,0,0,0,0-.2,0-.2,0Z"/>
            <path class="cls-21" d="M94.8,21.4s0,0,0,0-.1,0-.1,0,0-.1,0-.2c0,0,0,0,0-.2,0-.1,0-.1,0-.2s0-.1,0-.1,0,0,0,0,0,0,0,0c0,0,0-.1,0-.2s0,0-.1,0c0,0-.2,0-.2,0s0-.1,0-.2c0,0,0,0-.1-.1,0,0-.1,0,0,0,0,0,0-.1,0-.2s0-.2,0-.2c0,0,0,.2,0,.2s0,0-.1,0,0,0,0,0,0,0,0,0c0,0,.2,0,.2,0,0,0,0,.2.1.2s0,.2,0,.1c0,0-.2,0-.2,0s0,0-.2,0-.1,0,0,0,0,0,0,0,0,0,0,0,0,.1.1.1,0,0,.1,0,.2,0,.2,0c0,0,0,0,0,.1,0,0,0,0-.2,0,0,0-.2-.1-.1,0s0,.1,0,.1c0,0,0-.1-.1,0,0,0,0,0,0,0,0,0,0,0-.1,0s-.1,0-.1,0c0,0,0,0,0,.1,0,0,.1,0,.2,0s0,0,.2,0c0,0,0,0,.1,0,0,0,0,0,.1,0s0,0,.1,0c0,0,0,0,0,0s-.2,0-.1,0c0,0,0,0,0,0s-.1,0-.2,0c0,0,0,0-.1,0s0-.1,0-.1c0,0,0,0,0,0,0,0,0,0,0,.1s0,.2,0,.2,0,0-.1,0c0,0,0,.1,0,.2,0,0-.1,0-.2,0s0,.1,0,.1h0c0,0,0,.1,0,.1,0,0,0,0,.1,0s0,0,.1,0,0,0,.1,0c0,0,0,0,0,0s0,0,.1,0c0,0,0,0,0-.1s-.1,0-.2,0,0,0,0,0c0,0,0,0,0,0,0,0,.1-.1.2-.1,0,0,.1,0,.2,0,0,0,0,0,.2,0,0,0,.1,0,.1,0s0,0,0,0-.1,0-.1,0,0,0,.2,0,.2,0,.3,0c0,0,.1,0,0,0s0,0,0,0-.1,0-.2,0c0,0,0,0,0,0s0,0-.1,0c0,0,0,0,0,0,0,0,0,0,0,0s0,.1,0,.1c0,0,.1.1,0,.1s0,0-.1,0c-.1,0-.2,0-.2,0s-.2,0-.2,0c0,0,0,.2,0,.2h0s.2,0,.2,0h0c0,0,.2,0,.2,0h.1c0,.1.2,0,.2,0l.2-.2h0c0,0,.1-.2.1-.2v-.2c.1,0,.2,0,.2,0,0,0,0-.1,0-.2ZM94.1,20.7s.1,0,.2,0c0,0,0,0,.1,0s0,0,0,0c0,0-.1,0-.2.1,0,0-.2,0-.2,0,0,0,0-.2,0-.2ZM94.5,21c0,0-.1,0-.2,0s0,0-.1,0c0,0-.1,0-.1,0,0,0,0,0,.1,0,0,0,.2,0,.2,0,0,0,.1,0,0,0ZM94.6,20.8s0,.1,0,.1c0,0,0,0,0,0,0,0,0-.2,0-.2s0,0,0,0c0,0-.1,0,0,0h0c0,0,0,0,0,0,0,0,0,0,0,0,0,0,0,.1,0,.1s0,.1,0,.2Z"/>
          </g>
          <g>
            <path class="cls-20" d="M94.3,25s-.7-.3-.7,0c0,0,.2.1.4.3.2.2,0,.3,0,.3,0,.2.3,0,.4.2.1.2.3.3.4.3,0,0,.2-.3.3-.1.1.1,0,.3.2.3.5,0,.6-.4.7-.3,0,0,.5-.4.5-.2,0,.2.5-.3.5-.3,0,0,0-.2-.1-.1-.2,0,.1-.4.3-.2.1.2.1-.2,0-.4-.1-.2-.5-.4-.5-.4l-.5.5-1,.3h-.7Z"/>
            <path class="cls-16" d="M93.6,23.5c0,0-.1.3,0,.4,0,0-.2.2-.2.3,0,.2.3.3.3.3,0,0-.3,0-.3.2,0,.1.2.3.3.4.2.1.3-.3.6.1.4.4.9.2.9.2h.9c.5.2.4,0,.4-.1,0-.1,0-.2,0-.2,0,0,.1,0,.2,0,0,0-.1-.2,0-.2.2,0,.2-.3.2-.3,0,0-.1,0-.1-.2,0-.1,0-.1,0-.2,0-.2-.4-.2-.4-.2,0,0,0-.1,0-.2,0,0,0,0,0,0,0,0,.1,0,.1,0,0-.3-.2-.1-.2-.1h0c0,0,.1,0,0-.3-.1-.2-.3,0-.4,0,0,0-.2-.4-.3-.4,0,0-.1,0-.1,0,0,0,0-.2-.2-.3,0,0-.3.1-.3.1,0,0-.2,0-.4,0-.2,0-.3.2-.3.2,0,0,0,.1,0,.1s-.2,0-.2,0c0,0,.1,0,.1,0,0,0-.2,0-.4.2,0,0,0,.2,0,.2h0Z"/>
            <path class="cls-10" d="M93.4,24.6c-.2,0-.1.3,0,.3,0,0,.1,0,.2.1,0,.1.2,0,.2,0h0c0,0,0,.4.2.3.1,0,0-.2,0-.2,0,0,.1,0,.1,0h0c0,0,0,.1.1.1.2,0,0-.1.2,0,.1,0,0,.1,0,.1,0,0,.4.1.5,0,0-.1,0-.2.1,0,.2,0,0,0,0,0h.1c0,.1,0,.2.2.2.2,0,.1-.1.1-.1h.1c0,0,0,.3.3,0,.2-.2.2,0,.2,0,0,0,.2,0,.2-.1,0-.2,0-.2,0-.2v-.2s.1,0,.1,0c0,0,0,0,0,0,0,0-.2-.1,0-.2,0,0,.2.2.2,0,0-.2,0,0,0-.2,0-.1-.2-.2-.2-.2,0,0,.1,0,0-.1,0-.2-.2-.2-.2-.2h-.3c0-.1-.2.2-.2.2h0s.2.3.2.3v.4s-.1,0-.1,0c0,0-.1.1,0,.3,0,.2.2.3,0,.3-.1,0-.1,0-.2,0s-.2-.2-.3-.2c0,0-.5.2-.5.2,0,0-.1-.2-.2-.2s-.2,0-.2,0l-.4-.2s-.2-.2-.2-.2-.2,0-.2,0h-.2s0-.1-.2-.1Z"/>
            <path class="cls-6" d="M94.7,23.3s-.2,0-.2.1c0,.1,0,.2,0,.3,0,0-.2,0-.2,0s-.3,0-.2,0c0,0-.1.2-.1.2s-.2,0-.2,0c0,0-.1,0-.1.1,0,0,.1.3.1.3,0,0,.3,0,.3,0,0,0-.2-.1,0-.2.2,0,.1,0,.3,0,.1-.1,0-.1.2-.2,0,0,.2,0,.2,0s.2,0,.2,0c0,0,.1,0,0-.2,0-.2.1-.2.1-.2h0c0,0,0-.2,0-.2,0,0,.2,0,.1-.2,0-.1,0-.3,0-.3h-.2s0,0,0,.1c0,.2-.2.3-.2.3Z"/>
          </g>
          <g>
            <path class="cls-15" d="M88.1,22.7s0,.3.1.4,0,.3,0,.4,0,.6,0,.6c0,0,0,0,.2,0s0-.2,0-.2c0,0,0-.8,0-.9s.2-.6.2-.6h-.1s0,.4-.1.4,0-.4,0-.4h0s0,.2,0,.2,0,.2,0,.2-.2-.4-.2-.4h0Z"/>
            <path class="cls-13" d="M87.3,21.8s0,0,0-.1,0,0,0,0,0,0,.1,0,0-.1,0-.2.1-.1,0-.2,0,0,0-.1,0,0,0-.1,0-.1,0-.1.1-.2.1-.2,0,0,.1,0,0-.2,0-.2,0,0,0,0-.1-.1,0-.2.1,0,.2,0,0,0,0,0-.1,0-.1,0,0,0,0-.1.1-.2.1-.3,0-.4,0-.3.1.5.2.5,0,0,0,.1,0,.2,0,.2l.2.5h.1c0,0,.1,0,.1,0v.3c0,0,0,.2,0,.2l-.2.7-.9.2-.5-.5Z"/>
            <path class="cls-9" d="M88.2,22.6s0,0,0,0-.2,0-.2,0,0-.1,0-.2,0-.1,0,0,0,0,0,0c0,0,0,0,0,0s0,0,0,0-.1,0,0,0,0,0,0,0-.2,0-.2,0,0-.2,0-.2,0-.1,0-.1c0,0-.1,0-.1,0s0,0,0,0c0,0,0,0,0,0s.2,0,.2,0,.2,0,.2,0,0,0,0,0,.2,0,.1,0-.1.1-.1.2,0,.1,0,.1.2,0,.2,0,0,0,.1,0,0,0,.1,0,.2,0,.2,0,0,.1.1,0,.1,0,.2,0,0,0,0,0,0-.1,0-.2.2,0,.2,0,0-.1,0-.1,0,0,0,0c0,0,0,0,0,.1s0,.1-.1.2,0,0,0,.1,0,0-.2.1,0,0,0,0-.1,0-.2.1-.1,0-.1,0,0,0,0,0-.2,0-.2,0Z"/>
            <path class="cls-21" d="M89.3,21.8s0,0,0,0-.1,0-.1,0,0-.1,0-.2c0,0,0,0,0-.2,0-.1,0-.1,0-.2s0-.1,0-.1,0,0,0,0,0,0,0,0c0,0,0-.1,0-.2s0,0-.1,0c0,0-.2,0-.2,0s0-.1,0-.2c0,0,0,0-.1-.1,0,0-.1,0,0,0,0,0,0-.1,0-.2s0-.2,0-.2c0,0,0,.2,0,.2s0,0-.1,0,0,0,0,0,0,0,0,0c0,0,.2,0,.2,0,0,0,0,.2.1.2s0,.2,0,.1c0,0-.2,0-.2,0s0,0-.2,0-.1,0,0,0,0,0,0,0,0,0,0,0,0,.1.1.1,0,0,.1,0,.2,0,.2,0c0,0,0,0,0,.1,0,0,0,0-.2,0,0,0-.2-.1-.1,0s0,.1,0,.1c0,0,0-.1-.1,0,0,0,0,0,0,0,0,0,0,0-.1,0s-.1,0-.1,0c0,0,0,0,0,.1,0,0,.1,0,.2,0s0,0,.2,0c0,0,0,0,.1,0,0,0,0,0,.1,0s0,0,.1,0c0,0,0,0,0,0s-.2,0-.1,0c0,0,0,0,0,0s-.1,0-.2,0c0,0,0,0-.1,0s0-.1,0-.1c0,0,0,0,0,0,0,0,0,0,0,.1s0,.2,0,.2,0,0-.1,0c0,0,0,.1,0,.2,0,0-.1,0-.2,0s0,.1,0,.1h0c0,0,0,.1,0,.1,0,0,0,0,.1,0s0,0,.1,0,0,0,.1,0c0,0,0,0,0,0s0,0,.1,0c0,0,0,0,0-.1s-.1,0-.2,0,0,0,0,0c0,0,0,0,0,0,0,0,.1-.1.2-.1,0,0,.1,0,.2,0,0,0,0,0,.2,0,0,0,.1,0,.1,0s0,0,0,0-.1,0-.1,0,0,0,.2,0,.2,0,.3,0c0,0,.1,0,0,0s0,0,0,0-.1,0-.2,0c0,0,0,0,0,0s0,0-.1,0c0,0,0,0,0,0,0,0,0,0,0,0s0,.1,0,.1c0,0,.1.1,0,.1s0,0-.1,0c-.1,0-.2,0-.2,0s-.2,0-.2,0c0,0,0,.2,0,.2h0s.2,0,.2,0h0c0,0,.2,0,.2,0h.1c0,.1.2,0,.2,0l.2-.2h0c0,0,.1-.2.1-.2v-.2c.1,0,.2,0,.2,0,0,0,0-.1,0-.2ZM88.5,21s.1,0,.2,0c0,0,0,0,.1,0s0,0,0,0c0,0-.1,0-.2.1,0,0-.2,0-.2,0,0,0,0-.2,0-.2ZM88.9,21.4c0,0-.1,0-.2,0s0,0-.1,0c0,0-.1,0-.1,0,0,0,0,0,.1,0,0,0,.2,0,.2,0,0,0,.1,0,0,0ZM89,21.1s0,.1,0,.1c0,0,0,0,0,0,0,0,0-.2,0-.2s0,0,0,0c0,0-.1,0,0,0h0c0,0,0,0,0,0,0,0,0,0,0,0,0,0,0,.1,0,.1s0,.1,0,.2Z"/>
          </g>
          <g>
            <path class="cls-15" d="M86.2,23.6s.1.4.2.5,0,.4,0,.5,0,.9,0,.9c0,0,.1.1.2,0s0-.2,0-.2c0,0,0-1.1,0-1.2s.3-.8.3-.8h-.1s-.1.6-.2.6-.1-.5-.1-.5h0s0,.2,0,.3,0,.3,0,.3-.2-.5-.2-.5v.2Z"/>
            <path class="cls-13" d="M85.1,22.3s0-.1,0-.2,0,0,0-.1.1,0,.2-.1,0-.2,0-.2.2-.1.1-.2,0-.1,0-.2,0,0,0-.2,0-.2,0-.2.2-.4.2-.3,0,.1.2.1,0-.2.1-.3.1,0,.1-.1-.2-.2,0-.2.2,0,.3,0,.1,0,0,0-.2,0-.2-.1,0-.1.1-.2.2-.3.2-.4,0-.6,0-.5.2.7.2.8,0,0,0,.2-.1.3-.1.3l.3.8h.2c0,0,.2,0,.2,0v.4c.1,0,0,.3,0,.3l-.3,1-1.4.3-.7-.7Z"/>
            <path class="cls-9" d="M86.4,23.4s0,0,0,.1-.2,0-.2,0,0-.2,0-.2,0-.1-.1,0-.1.1-.1.1c0,0,0,0,0,0s0,0-.1,0-.1,0-.1-.1,0-.1,0-.1-.2,0-.3-.1,0-.2,0-.3,0-.2,0-.2c0,0-.2,0-.2-.1s0-.1,0-.1c0,0,0,0,0,.1s.2.1.3.1.3,0,.3.1,0,.1,0,.1.2,0,.2,0-.2.1-.2.2,0,.2.1.2.2,0,.3,0,.1,0,.1,0,0,0,.2,0,.2,0,.3,0,0,.2.1,0,.2-.1.2-.1,0,0,.1-.1,0-.2.1-.2.2,0,.3,0,0-.2,0-.2.1-.1.1-.1c0,0,0,.1,0,.2s-.1.2-.1.3,0,.1,0,.2-.1,0-.2.2,0,0-.1,0-.2,0-.3.2-.2,0-.2,0,0,0,0,0-.2,0-.2,0Z"/>
            <path class="cls-21" d="M87.9,22.3c0,0,0,0,0-.1s-.2,0-.2,0,0-.2,0-.3c0,0,.1,0,0-.2,0-.2,0-.2,0-.2s0-.1,0-.2,0,0,0,0,0,0,0-.1c0,0,0-.2,0-.2s0-.1-.1-.1c-.1,0-.2,0-.2-.1s.1-.2,0-.2c0,0-.1-.1-.2-.2,0,0-.2,0-.1-.1,0,0,0-.2,0-.3s-.1-.3-.1-.3c0,0,0,.3,0,.3s-.1-.1-.2,0,0,.1,0,.1-.1,0,0,0c0,0,.2,0,.3.1,0,0,0,.3.1.3s0,.2,0,.2c0,0-.2,0-.3,0s-.1,0-.2,0-.1,0-.1-.1,0,0,0,0,0,0,0,.1.1.2.2.2,0,0,.2,0,.3,0,.3,0c0,0,.1,0,0,.2,0,0,0,0-.2,0-.1,0-.2-.2-.2,0s.1.2,0,.2c0,0-.1-.1-.1,0,0,0,0,0,0,.1,0,0-.1,0-.2,0s-.2,0-.2,0c0,0,0,0,0,.1,0,0,.2,0,.3,0s.1,0,.3,0c.1,0,0,0,.2,0,0,0,0,0,.1,0s.1,0,.2.1c0,0,0,.1,0,.1s-.2,0-.2,0c0,0,0,0-.1,0s-.2,0-.2,0c0,0-.1.1-.1,0s0-.2,0-.2c0,0,0,0,0,0,0,0,0,0,0,.2s0,.2,0,.3-.1,0-.1,0c0,0,0,.2,0,.2,0,0-.2,0-.2,0s0,.2,0,.2h0c0,.1,0,.2,0,.2,0,0,.1,0,.2,0s0,0,.1,0,0,0,.1,0c0,0,0,0,.1,0s0,0,.1,0c0,0,0,0,0-.2s-.1,0-.3,0-.1,0-.1,0c0,0,0,0,0-.1.1-.1.2-.2.2-.1,0,0,.2,0,.3.1.1,0,0,0,.2,0,.1,0,.2,0,.2,0s0,0-.1,0-.2,0-.2,0,.1,0,.2,0,.3,0,.4,0c0,0,.1,0,.1,0s0,0-.1,0-.2,0-.3,0c0,0,0,0-.1,0s-.1,0-.2-.1c0,0-.1-.1-.1-.1,0,0,0,0,0,0s.1.2.1.2c0,0,.1.2.1.2s0,.1-.2.1c-.1,0-.2,0-.3,0s-.3,0-.3,0c0,0,0,.4,0,.4h.1s.3,0,.3,0h0c0,0,.3,0,.3,0l.2.2h.3c0-.1.4-.4.4-.4h0c0,0,.2-.2.2-.2l.2-.2s.1,0,.2,0c0,0,0-.2,0-.2ZM86.8,21.2s.2,0,.3,0c0,0,.1,0,.2,0s0,0,0,0c0,0-.2.1-.2.2,0,0-.2,0-.2,0,0,0,0-.2,0-.2ZM87.4,21.8c0,0-.2,0-.2,0s-.1,0-.2,0c0,0-.2,0-.2,0,0,0,0,0,.2,0,0,0,.3,0,.3,0,0,0,.2,0,0,0ZM87.5,21.4c0,0,0,.2-.1.2,0,0,0,0,0-.1,0,0,.1-.2,0-.3s0,0,0-.1c0,0-.2,0-.1,0h0c0-.1,0,0,0,0,0,0,0,0,.1,0,0,0,0,.2.1.2s0,.2,0,.2Z"/>
          </g>
          <g>
            <path class="cls-15" d="M97.5,24.5s.1.4.2.5,0,.4,0,.5,0,.9,0,.9c0,0,.1.1.2,0s0-.2,0-.2c0,0,0-1.1,0-1.2s.3-.8.3-.8h-.1s-.1.6-.2.6-.1-.5-.1-.5h0s0,.2,0,.3,0,.3,0,.3-.2-.5-.2-.5v.2Z"/>
            <path class="cls-13" d="M96.3,23.3s0-.1,0-.2,0,0,0-.1.1,0,.2-.1,0-.2,0-.2.2-.1.1-.2,0-.1,0-.2,0,0,0-.2,0-.2,0-.2.2-.4.2-.3,0,.1.2.1,0-.2.1-.3.1,0,.1-.1-.2-.2,0-.2.2,0,.3,0,.1,0,0,0-.2,0-.2-.1,0-.1.1-.2.2-.3.2-.4,0-.6,0-.5.2.7.2.8,0,0,0,.2-.1.3-.1.3l.3.8h.2c0,0,.2,0,.2,0v.4c.1,0,0,.3,0,.3l-.3,1-1.4.3-.7-.7Z"/>
            <path class="cls-9" d="M97.6,24.4s0,0,0,.1-.2,0-.2,0,0-.2,0-.2,0-.1-.1,0-.1.1-.1.1c0,0,0,0,0,0s0,0-.1,0-.1,0-.1-.1,0-.1,0-.1-.2,0-.3-.1,0-.2,0-.3,0-.2,0-.2c0,0-.2,0-.2-.1s0-.1,0-.1c0,0,0,0,0,.1s.2.1.3.1.3,0,.3.1,0,.1,0,.1.2,0,.2,0-.2.1-.2.2,0,.2.1.2.2,0,.3,0,.1,0,.1,0,0,0,.2,0,.2,0,.3,0,0,.2.1,0,.2-.1.2-.1,0,0,.1-.1,0-.2.1-.2.2,0,.3,0,0-.2,0-.2.1-.1.1-.1c0,0,0,.1,0,.2s-.1.2-.1.3,0,.1,0,.2-.1,0-.2.2,0,0-.1,0-.2,0-.3.2-.2,0-.2,0,0,0,0,0-.2,0-.2,0Z"/>
            <path class="cls-21" d="M99.1,23.3c0,0,0,0,0-.1s-.2,0-.2,0,0-.2,0-.3c0,0,.1,0,0-.2,0-.2,0-.2,0-.2s0-.1,0-.2,0,0,0,0,0,0,0-.1c0,0,0-.2,0-.2s0-.1-.1-.1c-.1,0-.2,0-.2-.1s.1-.2,0-.2c0,0-.1-.1-.2-.2,0,0-.2,0-.1-.1,0,0,0-.2,0-.3s-.1-.3-.1-.3c0,0,0,.3,0,.3s-.1-.1-.2,0,0,.1,0,.1-.1,0,0,0c0,0,.2,0,.3.1,0,0,0,.3.1.3s0,.2,0,.2c0,0-.2,0-.3,0s-.1,0-.2,0-.1,0-.1-.1,0,0,0,0,0,0,0,.1.1.2.2.2,0,0,.2,0,.3,0,.3,0c0,0,.1,0,0,.2,0,0,0,0-.2,0-.1,0-.2-.2-.2,0s.1.2,0,.2c0,0-.1-.1-.1,0,0,0,0,0,0,.1,0,0-.1,0-.2,0s-.2,0-.2,0c0,0,0,0,0,.1,0,0,.2,0,.3,0s.1,0,.3,0c.1,0,0,0,.2,0,0,0,0,0,.1,0s.1,0,.2.1c0,0,0,.1,0,.1s-.2,0-.2,0c0,0,0,0-.1,0s-.2,0-.2,0c0,0-.1.1-.1,0s0-.2,0-.2c0,0,0,0,0,0,0,0,0,0,0,.2s0,.2,0,.3-.1,0-.1,0c0,0,0,.2,0,.2,0,0-.2,0-.2,0s0,.2,0,.2h0c0,.1,0,.2,0,.2,0,0,.1,0,.2,0s0,0,.1,0,0,0,.1,0c0,0,0,0,.1,0s0,0,.1,0c0,0,0,0,0-.2s-.1,0-.3,0-.1,0-.1,0c0,0,0,0,0-.1.1-.1.2-.2.2-.1,0,0,.2,0,.3.1.1,0,0,0,.2,0,.1,0,.2,0,.2,0s0,0-.1,0-.2,0-.2,0,.1,0,.2,0,.3,0,.4,0c0,0,.1,0,.1,0s0,0-.1,0-.2,0-.3,0c0,0,0,0-.1,0s-.1,0-.2-.1c0,0-.1-.1-.1-.1,0,0,0,0,0,0s.1.2.1.2c0,0,.1.2.1.2s0,.1-.2.1c-.1,0-.2,0-.3,0s-.3,0-.3,0c0,0,0,.4,0,.4h.1s.3,0,.3,0h0c0,0,.3,0,.3,0l.2.2h.3c0-.1.4-.4.4-.4h0c0,0,.2-.2.2-.2l.2-.2s.1,0,.2,0c0,0,0-.2,0-.2ZM98,22.2s.2,0,.3,0c0,0,.1,0,.2,0s0,0,0,0c0,0-.2.1-.2.2,0,0-.2,0-.2,0,0,0,0-.2,0-.2ZM98.6,22.7c0,0-.2,0-.2,0s-.1,0-.2,0c0,0-.2,0-.2,0,0,0,0,0,.2,0,0,0,.3,0,.3,0,0,0,.2,0,0,0ZM98.7,22.3c0,0,0,.2-.1.2,0,0,0,0,0-.1,0,0,.1-.2,0-.3s0,0,0-.1c0,0-.2,0-.1,0h0c0-.1,0,0,0,0,0,0,0,0,.1,0,0,0,0,.2.1.2s0,.2,0,.2Z"/>
          </g>
          <g>
            <path class="cls-15" d="M86.4,28.2s.1.4.2.5,0,.4,0,.5,0,.9,0,.9c0,0,.1.1.2,0s0-.2,0-.2c0,0,0-1.1,0-1.2s.3-.8.3-.8h-.1s-.1.6-.2.6-.1-.5-.1-.5h0s0,.2,0,.3,0,.3,0,.3-.2-.5-.2-.5v.2Z"/>
            <path class="cls-13" d="M85.3,26.9s0-.1,0-.2,0,0,0-.1.1,0,.2-.1,0-.2,0-.2.2-.1.1-.2,0-.1,0-.2,0,0,0-.2,0-.2,0-.2.2-.4.2-.3,0,.1.2.1,0-.2.1-.3.1,0,.1-.1-.2-.2,0-.2.2,0,.3,0,.1,0,0,0-.2,0-.2-.1,0-.1.1-.2.2-.3.2-.4,0-.6,0-.5.2.7.2.8,0,0,0,.2-.1.3-.1.3l.3.8h.2c0,0,.2,0,.2,0v.4c.1,0,0,.3,0,.3l-.3,1-1.4.3-.7-.7Z"/>
            <path class="cls-9" d="M86.6,28s0,0,0,.1-.2,0-.2,0,0-.2,0-.2,0-.1-.1,0-.1.1-.1.1c0,0,0,0,0,0s0,0-.1,0-.1,0-.1-.1,0-.1,0-.1-.2,0-.3-.1,0-.2,0-.3,0-.2,0-.2c0,0-.2,0-.2-.1s0-.1,0-.1c0,0,0,0,0,.1s.2.1.3.1.3,0,.3.1,0,.1,0,.1.2,0,.2,0-.2.1-.2.2,0,.2.1.2.2,0,.3,0,.1,0,.1,0,0,0,.2,0,.2,0,.3,0,0,.2.1,0,.2-.1.2-.1,0,0,.1-.1,0-.2.1-.2.2,0,.3,0,0-.2,0-.2.1-.1.1-.1c0,0,0,.1,0,.2s-.1.2-.1.3,0,.1,0,.2-.1,0-.2.2,0,0-.1,0-.2,0-.3.2-.2,0-.2,0,0,0,0,0-.2,0-.2,0Z"/>
            <path class="cls-21" d="M88.1,26.9c0,0,0,0,0-.1s-.2,0-.2,0,0-.2,0-.3c0,0,.1,0,0-.2,0-.2,0-.2,0-.2s0-.1,0-.2,0,0,0,0,0,0,0-.1c0,0,0-.2,0-.2s0-.1-.1-.1c-.1,0-.2,0-.2-.1s.1-.2,0-.2c0,0-.1-.1-.2-.2,0,0-.2,0-.1-.1,0,0,0-.2,0-.3s-.1-.3-.1-.3c0,0,0,.3,0,.3s-.1-.1-.2,0,0,.1,0,.1-.1,0,0,0c0,0,.2,0,.3.1,0,0,0,.3.1.3s0,.2,0,.2c0,0-.2,0-.3,0s-.1,0-.2,0-.1,0-.1-.1,0,0,0,0,0,0,0,.1.1.2.2.2,0,0,.2,0,.3,0,.3,0c0,0,.1,0,0,.2,0,0,0,0-.2,0-.1,0-.2-.2-.2,0s.1.2,0,.2c0,0-.1-.1-.1,0,0,0,0,0,0,.1,0,0-.1,0-.2,0s-.2,0-.2,0c0,0,0,0,0,.1,0,0,.2,0,.3,0s.1,0,.3,0c.1,0,0,0,.2,0,0,0,0,0,.1,0s.1,0,.2.1c0,0,0,.1,0,.1s-.2,0-.2,0c0,0,0,0-.1,0s-.2,0-.2,0c0,0-.1.1-.1,0s0-.2,0-.2c0,0,0,0,0,0,0,0,0,0,0,.2s0,.2,0,.3-.1,0-.1,0c0,0,0,.2,0,.2,0,0-.2,0-.2,0s0,.2,0,.2h0c0,.1,0,.2,0,.2,0,0,.1,0,.2,0s0,0,.1,0,0,0,.1,0c0,0,0,0,.1,0s0,0,.1,0c0,0,0,0,0-.2s-.1,0-.3,0-.1,0-.1,0c0,0,0,0,0-.1.1-.1.2-.2.2-.1,0,0,.2,0,.3.1.1,0,0,0,.2,0,.1,0,.2,0,.2,0s0,0-.1,0-.2,0-.2,0,.1,0,.2,0,.3,0,.4,0c0,0,.1,0,.1,0s0,0-.1,0-.2,0-.3,0c0,0,0,0-.1,0s-.1,0-.2-.1c0,0-.1-.1-.1-.1,0,0,0,0,0,0s.1.2.1.2c0,0,.1.2.1.2s0,.1-.2.1c-.1,0-.2,0-.3,0s-.3,0-.3,0c0,0,0,.4,0,.4h.1s.3,0,.3,0h0c0,0,.3,0,.3,0l.2.2h.3c0-.1.4-.4.4-.4h0c0,0,.2-.2.2-.2l.2-.2s.1,0,.2,0c0,0,0-.2,0-.2ZM87,25.8s.2,0,.3,0c0,0,.1,0,.2,0s0,0,0,0c0,0-.2.1-.2.2,0,0-.2,0-.2,0,0,0,0-.2,0-.2ZM87.6,26.4c0,0-.2,0-.2,0s-.1,0-.2,0c0,0-.2,0-.2,0,0,0,0,0,.2,0,0,0,.3,0,.3,0,0,0,.2,0,0,0ZM87.7,26c0,0,0,.2-.1.2,0,0,0,0,0-.1,0,0,.1-.2,0-.3s0,0,0-.1c0,0-.2,0-.1,0h0c0-.1,0,0,0,0,0,0,0,0,.1,0,0,0,0,.2.1.2s0,.2,0,.2Z"/>
          </g>
          <g>
            <path class="cls-15" d="M90.2,23.6s.1.4.2.5,0,.4,0,.5,0,.9,0,.9c0,0,.1.1.2,0s0-.2,0-.2c0,0,0-1.1,0-1.2s.3-.8.3-.8h-.1s-.1.6-.2.6-.1-.5-.1-.5h0s0,.2,0,.3,0,.3,0,.3-.2-.5-.2-.5v.2Z"/>
            <path class="cls-13" d="M89,22.4s0-.1,0-.2,0,0,0-.1.1,0,.2-.1,0-.2,0-.2.2-.1.1-.2,0-.1,0-.2,0,0,0-.2,0-.2,0-.2.2-.4.2-.3,0,.1.2.1,0-.2.1-.3.1,0,.1-.1-.2-.2,0-.2.2,0,.3,0,.1,0,0,0-.2,0-.2-.1,0-.1.1-.2.2-.3.2-.4,0-.6,0-.5.2.7.2.8,0,0,0,.2-.1.3-.1.3l.3.8h.2c0,0,.2,0,.2,0v.4c.1,0,0,.3,0,.3l-.3,1-1.4.3-.7-.7Z"/>
            <path class="cls-9" d="M90.3,23.5s0,0,0,.1-.2,0-.2,0,0-.2,0-.2,0-.1-.1,0-.1.1-.1.1c0,0,0,0,0,0s0,0-.1,0-.1,0-.1-.1,0-.1,0-.1-.2,0-.3-.1,0-.2,0-.3,0-.2,0-.2c0,0-.2,0-.2-.1s0-.1,0-.1c0,0,0,0,0,.1s.2.1.3.1.3,0,.3.1,0,.1,0,.1.2,0,.2,0-.2.1-.2.2,0,.2.1.2.2,0,.3,0,.1,0,.1,0,0,0,.2,0,.2,0,.3,0,0,.2.1,0,.2-.1.2-.1,0,0,.1-.1,0-.2.1-.2.2,0,.3,0,0-.2,0-.2.1-.1.1-.1c0,0,0,.1,0,.2s-.1.2-.1.3,0,.1,0,.2-.1,0-.2.2,0,0-.1,0-.2,0-.3.2-.2,0-.2,0,0,0,0,0-.2,0-.2,0Z"/>
            <path class="cls-21" d="M91.8,22.4c0,0,0,0,0-.1s-.2,0-.2,0,0-.2,0-.3c0,0,.1,0,0-.2,0-.2,0-.2,0-.2s0-.1,0-.2,0,0,0,0,0,0,0-.1c0,0,0-.2,0-.2s0-.1-.1-.1c-.1,0-.2,0-.2-.1s.1-.2,0-.2c0,0-.1-.1-.2-.2,0,0-.2,0-.1-.1,0,0,0-.2,0-.3s-.1-.3-.1-.3c0,0,0,.3,0,.3s-.1-.1-.2,0,0,.1,0,.1-.1,0,0,0c0,0,.2,0,.3.1,0,0,0,.3.1.3s0,.2,0,.2c0,0-.2,0-.3,0s-.1,0-.2,0-.1,0-.1-.1,0,0,0,0,0,0,0,.1.1.2.2.2,0,0,.2,0,.3,0,.3,0c0,0,.1,0,0,.2,0,0,0,0-.2,0-.1,0-.2-.2-.2,0s.1.2,0,.2c0,0-.1-.1-.1,0,0,0,0,0,0,.1,0,0-.1,0-.2,0s-.2,0-.2,0c0,0,0,0,0,.1,0,0,.2,0,.3,0s.1,0,.3,0c.1,0,0,0,.2,0,0,0,0,0,.1,0s.1,0,.2.1c0,0,0,.1,0,.1s-.2,0-.2,0c0,0,0,0-.1,0s-.2,0-.2,0c0,0-.1.1-.1,0s0-.2,0-.2c0,0,0,0,0,0,0,0,0,0,0,.2s0,.2,0,.3-.1,0-.1,0c0,0,0,.2,0,.2,0,0-.2,0-.2,0s0,.2,0,.2h0c0,.1,0,.2,0,.2,0,0,.1,0,.2,0s0,0,.1,0,0,0,.1,0c0,0,0,0,.1,0s0,0,.1,0c0,0,0,0,0-.2s-.1,0-.3,0-.1,0-.1,0c0,0,0,0,0-.1.1-.1.2-.2.2-.1,0,0,.2,0,.3.1.1,0,0,0,.2,0,.1,0,.2,0,.2,0s0,0-.1,0-.2,0-.2,0,.1,0,.2,0,.3,0,.4,0c0,0,.1,0,.1,0s0,0-.1,0-.2,0-.3,0c0,0,0,0-.1,0s-.1,0-.2-.1c0,0-.1-.1-.1-.1,0,0,0,0,0,0s.1.2.1.2c0,0,.1.2.1.2s0,.1-.2.1c-.1,0-.2,0-.3,0s-.3,0-.3,0c0,0,0,.4,0,.4h.1s.3,0,.3,0h0c0,0,.3,0,.3,0l.2.2h.3c0-.1.4-.4.4-.4h0c0,0,.2-.2.2-.2l.2-.2s.1,0,.2,0c0,0,0-.2,0-.2ZM90.7,21.3s.2,0,.3,0c0,0,.1,0,.2,0s0,0,0,0c0,0-.2.1-.2.2,0,0-.2,0-.2,0,0,0,0-.2,0-.2ZM91.3,21.8c0,0-.2,0-.2,0s-.1,0-.2,0c0,0-.2,0-.2,0,0,0,0,0,.2,0,0,0,.3,0,.3,0,0,0,.2,0,0,0ZM91.4,21.5c0,0,0,.2-.1.2,0,0,0,0,0-.1,0,0,.1-.2,0-.3s0,0,0-.1c0,0-.2,0-.1,0h0c0-.1,0,0,0,0,0,0,0,0,.1,0,0,0,0,.2.1.2s0,.2,0,.2Z"/>
          </g>
          <g>
            <path class="cls-15" d="M88.2,29.6s.2.7.3.8,0,.7,0,.8,0,1.4,0,1.4c0,0,.2.2.3.1s.1-.4.1-.4c0,0-.1-1.8,0-1.9s.5-1.3.5-1.3h-.2c0,0-.2.9-.3.9s-.2-.9-.2-.9h-.2c0,0,0,.4,0,.5s0,.4,0,.4-.3-.9-.3-.9l-.2.3Z"/>
            <path class="cls-13" d="M86.4,27.6s0-.2,0-.3-.1-.1,0-.2.2,0,.3-.2,0-.2.1-.4.3-.2.2-.4-.2-.2-.1-.3,0-.1,0-.3,0-.3,0-.3.2-.6.3-.5.2.2.3.2,0-.4.2-.4.2,0,.2-.2-.2-.3,0-.4.3,0,.4,0,.2,0,.1-.1-.3,0-.3-.2,0-.2.2-.3.3-.5.3-.6,0-.9.1-.7.3,1.1.4,1.2.1,0,.1.3-.2.5-.2.5l.4,1.2h.3c0-.1.3.1.3.1l.2.7-.2.4-.4,1.6-2.1.4-1.2-1Z"/>
            <path class="cls-9" d="M88.5,29.4s0,.1-.2.2-.3.1-.4,0,.1-.2,0-.3,0-.2-.2-.1-.2.2-.2.2c0,0,0,0-.1,0s0,0-.2,0-.2-.1-.2-.2,0-.2,0-.2-.4,0-.4-.2,0-.4,0-.5,0-.2,0-.2c0,0-.2-.1-.3-.2s0-.2,0-.2c0,0,0,.1.1.2s.3.2.4.2.5.1.5.2-.1.2,0,.2.4,0,.3,0-.3.2-.3.3,0,.3.2.3.4,0,.4,0,.2.1.2.1,0,0,.2,0,.4,0,.4,0,.1.3.2.2.3-.2.3-.2.2,0,.2-.2,0-.3.2-.3.4,0,.5,0,0-.3.1-.3.2-.2.2-.2c0,0,0,.2,0,.3s-.2.3-.2.4,0,.2-.2.2-.2.2-.4.2,0,0-.2,0-.3.2-.4.3-.3.1-.3,0,.1-.1,0-.1-.4,0-.4,0Z"/>
            <path class="cls-21" d="M90.8,27.7c0,0,0-.1-.1-.2s-.3,0-.3,0,0-.3,0-.4c0-.1.2,0,0-.3-.1-.3,0-.3,0-.4s0-.2,0-.3,0,0,0-.1,0-.1-.2-.2c0-.1.1-.3,0-.4s0-.2-.2-.2c-.2,0-.4,0-.4-.2s.2-.2,0-.4c-.1-.1-.2-.2-.3-.3-.1,0-.3,0-.2-.2,0-.2.1-.3,0-.4s-.2-.4-.2-.4c0,0,0,.4,0,.5s-.2-.2-.3,0,0,.2,0,.2-.2,0-.2,0c0,0,.4.2.4.2,0,0,.1.4.2.5s0,.4-.1.3c-.2,0-.4-.1-.5-.1s-.2.1-.3.1-.2-.1-.2-.2-.2-.1-.2,0-.1.1-.1.2.2.2.3.3.2,0,.3,0,.5,0,.5,0c0,.1.2.2.2.2,0,0-.1.1-.3,0-.2,0-.3-.2-.3-.1s.2.3,0,.3c-.1,0-.2-.2-.2-.1,0,.1,0,.2-.2.2,0,0-.2,0-.3,0s-.2,0-.3,0c0,0-.1.2-.1.2,0,0,.3,0,.4-.1s.2,0,.4,0c.2,0,.1-.1.3,0,.1,0,.1.1.2.1s.2,0,.2.2c0,.1,0,.2-.1.2s-.4,0-.3.2c0,0,0,0-.2,0s-.3,0-.4,0c0,0-.2.2-.2,0s-.1-.3-.1-.3c0,0,0-.1,0-.1,0,0-.1.2-.1.3s-.1.4-.1.4-.2,0-.2,0c0,0,.2.3,0,.4-.1,0-.3-.1-.4,0s0,.3,0,.3h.1c-.2.2,0,.3,0,.3,0,0,.2.1.3.2s.2,0,.2,0,.1-.1.2,0c0,0,0,0,.2,0s.1,0,.2,0c0,0,0-.2,0-.2s-.2,0-.5,0-.2,0-.2-.1c0,0,0-.1.1-.2.2-.2.3-.3.4-.2,0,0,.3.1.5.2.2,0,.2,0,.4,0,.2,0,.3,0,.2.1s0,0-.2,0-.3,0-.3,0,.2.2.3.2.5,0,.7,0c.1,0,.2,0,.2.1s0,.1-.2.1-.3,0-.4,0c-.2,0,0,.1-.2.2s-.2,0-.3-.2c0,0-.2-.2-.2-.2,0,0-.1-.1-.1,0s.2.3.2.3c0,0,.2.2.2.3s0,.2-.2.2c-.2,0-.4-.1-.5,0s-.4,0-.5.1c0,.1,0,.6,0,.6h.2s.5.1.5.1l.2.2h.5c0,0,.2.2.2.2l.4-.2.6-.4v-.2c0,0,.3-.2.3-.2l.3-.3s.2,0,.3-.2c0-.1,0-.3,0-.3ZM89.1,25.9c0,0,.3,0,.4,0,.1,0,.2,0,.2,0s.1.1.1.1c-.1.1-.3.2-.4.3,0,.1-.4,0-.4,0,0,0-.1-.3,0-.4ZM90,26.8c-.1,0-.2,0-.3.1s-.2,0-.3,0c0,0-.3-.1-.3-.1,0,0,.1-.2.3-.1.1,0,.5,0,.5,0,0,0,.3,0,.2.1ZM90.2,26.2c0,0-.1.3-.2.3,0,0-.1,0,0-.2,0-.1.2-.3.1-.4s0-.1-.1-.2c0,0-.3,0-.2-.1v-.2s0,0,.2.1c0,0,.1-.1.2,0,0,0,.1.2.2.3s0,.3,0,.4Z"/>
          </g>
          <g>
            <path class="cls-15" d="M99.9,29.1s.2.7.3.8,0,.7,0,.8,0,1.4,0,1.4c0,0,.2.2.3.1s.1-.4.1-.4c0,0-.1-1.8,0-1.9s.5-1.3.5-1.3h-.2c0,0-.2.9-.3.9s-.2-.9-.2-.9h-.2c0,0,0,.4,0,.5s0,.4,0,.4-.3-.9-.3-.9l-.2.3Z"/>
            <path class="cls-13" d="M98.1,27.1s0-.2,0-.3-.1-.1,0-.2.2,0,.3-.2,0-.2.1-.4.3-.2.2-.4-.2-.2-.1-.3,0-.1,0-.3,0-.3,0-.3.2-.6.3-.5.2.2.3.2,0-.4.2-.4.2,0,.2-.2-.2-.3,0-.4.3,0,.4,0,.2,0,.1-.1-.3,0-.3-.2,0-.2.2-.3.3-.5.3-.6,0-.9.1-.7.3,1.1.4,1.2.1,0,.1.3-.2.5-.2.5l.4,1.2h.3c0-.1.3.1.3.1l.2.7-.2.4-.4,1.6-2.1.4-1.2-1Z"/>
            <path class="cls-9" d="M100.2,28.9s0,.1-.2.2-.3.1-.4,0,.1-.2,0-.3,0-.2-.2-.1-.2.2-.2.2c0,0,0,0-.1,0s0,0-.2,0-.2-.1-.2-.2,0-.2,0-.2-.4,0-.4-.2,0-.4,0-.5,0-.2,0-.2c0,0-.2-.1-.3-.2s0-.2,0-.2c0,0,0,.1.1.2s.3.2.4.2.5.1.5.2-.1.2,0,.2.4,0,.3,0-.3.2-.3.3,0,.3.2.3.4,0,.4,0,.2.1.2.1,0,0,.2,0,.4,0,.4,0,.1.3.2.2.3-.2.3-.2.2,0,.2-.2,0-.3.2-.3.4,0,.5,0,0-.3.1-.3.2-.2.2-.2c0,0,0,.2,0,.3s-.2.3-.2.4,0,.2-.2.2-.2.2-.4.2,0,0-.2,0-.3.2-.4.3-.3.1-.3,0,.1-.1,0-.1-.4,0-.4,0Z"/>
            <path class="cls-21" d="M102.5,27.1c0,0,0-.1-.1-.2s-.3,0-.3,0,0-.3,0-.4c0-.1.2,0,0-.3-.1-.3,0-.3,0-.4s0-.2,0-.3,0,0,0-.1,0-.1-.2-.2c0-.1.1-.3,0-.4s0-.2-.2-.2c-.2,0-.4,0-.4-.2s.2-.2,0-.4c-.1-.1-.2-.2-.3-.3-.1,0-.3,0-.2-.2,0-.2.1-.3,0-.4s-.2-.4-.2-.4c0,0,0,.4,0,.5s-.2-.2-.3,0,0,.2,0,.2-.2,0-.2,0c0,0,.4.2.4.2,0,0,.1.4.2.5s0,.4-.1.3c-.2,0-.4-.1-.5-.1s-.2.1-.3.1-.2-.1-.2-.2-.2-.1-.2,0-.1.1-.1.2.2.2.3.3.2,0,.3,0,.5,0,.5,0c0,.1.2.2.2.2,0,0-.1.1-.3,0-.2,0-.3-.2-.3-.1s.2.3,0,.3c-.1,0-.2-.2-.2-.1,0,.1,0,.2-.2.2,0,0-.2,0-.3,0s-.2,0-.3,0c0,0-.1.2-.1.2,0,0,.3,0,.4-.1s.2,0,.4,0c.2,0,.1-.1.3,0,.1,0,.1.1.2.1s.2,0,.2.2c0,.1,0,.2-.1.2s-.4,0-.3.2c0,0,0,0-.2,0s-.3,0-.4,0c0,0-.2.2-.2,0s-.1-.3-.1-.3c0,0,0-.1,0-.1,0,0-.1.2-.1.3s-.1.4-.1.4-.2,0-.2,0c0,0,.2.3,0,.4-.1,0-.3-.1-.4,0s0,.3,0,.3h.1c-.2.2,0,.3,0,.3,0,0,.2.1.3.2s.2,0,.2,0,.1-.1.2,0c0,0,0,0,.2,0s.1,0,.2,0c0,0,0-.2,0-.2s-.2,0-.5,0-.2,0-.2-.1c0,0,0-.1.1-.2.2-.2.3-.3.4-.2,0,0,.3.1.5.2.2,0,.2,0,.4,0,.2,0,.3,0,.2.1s0,0-.2,0-.3,0-.3,0,.2.2.3.2.5,0,.7,0c.1,0,.2,0,.2.1s0,.1-.2.1-.3,0-.4,0c-.2,0,0,.1-.2.2s-.2,0-.3-.2c0,0-.2-.2-.2-.2,0,0-.1-.1-.1,0s.2.3.2.3c0,0,.2.2.2.3s0,.2-.2.2c-.2,0-.4-.1-.5,0s-.4,0-.5.1c0,.1,0,.6,0,.6h.2s.5.1.5.1l.2.2h.5c0,0,.2.2.2.2l.4-.2.6-.4v-.2c0,0,.3-.2.3-.2l.3-.3s.2,0,.3-.2c0-.1,0-.3,0-.3ZM100.8,25.4c0,0,.3,0,.4,0,.1,0,.2,0,.2,0s.1.1.1.1c-.1.1-.3.2-.4.3,0,.1-.4,0-.4,0,0,0-.1-.3,0-.4ZM101.7,26.3c-.1,0-.2,0-.3.1s-.2,0-.3,0c0,0-.3-.1-.3-.1,0,0,.1-.2.3-.1.1,0,.5,0,.5,0,0,0,.3,0,.2.1ZM101.8,25.7c0,0-.1.3-.2.3,0,0-.1,0,0-.2,0-.1.2-.3.1-.4s0-.1-.1-.2c0,0-.3,0-.2-.1v-.2s0,0,.2.1c0,0,.1-.1.2,0,0,0,.1.2.2.3s0,.3,0,.4Z"/>
          </g>
          <g>
            <path class="cls-15" d="M84.8,28.8s0-1.3,0-1.4.4-1,.4-1h-.2s-.1.6-.2.7-.1-.6-.1-.6h-.1c0,0,0,.3,0,.4s0,.3,0,.3-.3-.6-.3-.6v.2c-.1,0,0,.5,0,.6s0,.5,0,.6,0,1,0,1"/>
            <path class="cls-13" d="M82.8,25.3s0-.1,0-.2-.1-.1,0-.2.1,0,.2-.1,0-.2.1-.3.2-.2.1-.3-.1-.1,0-.2,0,0,0-.2,0-.2,0-.2.2-.4.2-.4.1.1.2.1,0-.3.1-.3.1,0,.2-.1-.2-.2,0-.3.2,0,.3,0,.1,0,0,0-.2,0-.2-.1,0-.1.1-.2.2-.4.2-.4,0-.7,0-.5.2.8.3.9,0,0,0,.2-.1.4-.1.4l.3.9h.2c0-.1.2.1.2.1v.5c.1,0,0,.3,0,.3l-.3,1.2-1.6.3-.9-.8Z"/>
            <path class="cls-9" d="M84.4,26.6s0,.1-.1.2-.3.1-.3,0,0-.2,0-.3,0-.2-.1-.1-.1.1-.1.1c0,0,0,0,0,0s0,0-.1,0-.2,0-.1-.1,0-.1,0-.1-.3,0-.3-.1,0-.3,0-.4,0-.2,0-.2c0,0-.2,0-.2-.1s0-.1,0-.1c0,0,0,0,0,.1s.3.2.3.2.4,0,.4.1-.1.1,0,.1.3,0,.2,0-.2.2-.2.3,0,.2.2.2.3,0,.3,0,.1,0,.2.1,0,0,.2,0,.3,0,.3,0,0,.2.2.1.2-.1.3-.1.1,0,.1-.2,0-.2.1-.3.3,0,.4,0,0-.2,0-.2.2-.1.2-.1c0,0,0,.1,0,.2s-.2.2-.2.3,0,.1-.1.2-.1.1-.3.2,0,0-.1,0-.2.1-.3.2-.2,0-.2,0,.1-.1,0,0-.3,0-.3,0Z"/>
            <path class="cls-21" d="M86.1,25.3c0,0,0-.1,0-.2s-.2,0-.2,0,0-.2,0-.3c0,0,.1,0,0-.3-.1-.2,0-.2,0-.3s0-.2,0-.2,0,0,0,0,0,0-.1-.2c0,0,0-.2,0-.3s0-.1-.2-.1c-.2,0-.3,0-.3-.1s.1-.2,0-.3c0,0-.1-.2-.2-.2-.1,0-.2,0-.2-.1,0-.1,0-.2,0-.3s-.1-.3-.1-.3c0,0,0,.3,0,.4s-.2-.2-.2,0,0,.1,0,.1-.1,0-.1,0c0,0,.3.1.3.2,0,0,.1.3.2.4s0,.3-.1.2c-.1,0-.3-.1-.4-.1s-.1,0-.3,0-.2,0-.1-.1-.1,0-.1,0-.1,0,0,.1.2.2.2.2.1,0,.2,0,.4,0,.4,0c0,0,.2.1.1.2,0,0-.1,0-.3,0-.1,0-.3-.2-.2-.1s.1.2,0,.2c0,0-.1-.2-.2,0,0,0,0,.1-.1.1,0,0-.1,0-.2,0s-.2,0-.2,0c0,0-.1.1,0,.2,0,0,.2,0,.3,0s.2,0,.3,0c.1,0,0-.1.2,0,.1,0,0,0,.2,0s.2,0,.2.1c0,0,0,.2,0,.2s-.3,0-.2.1c0,0,0,0-.2,0s-.2,0-.3,0c0,0-.1.1-.2,0s0-.2,0-.2c0,0,0-.1,0,0,0,0-.1.1-.1.2s0,.3,0,.3-.1,0-.2,0c0,0,.1.2,0,.3,0,0-.2,0-.3,0s0,.2,0,.2h.1c-.1.2,0,.2,0,.2,0,0,.1,0,.2.1s.1,0,.2,0,.1,0,.2,0c0,0,0,0,.1,0s.1,0,.2,0c0,0,0-.1,0-.2s-.2,0-.3,0-.1,0-.2,0c0,0,0,0,0-.2.1-.1.2-.2.3-.2,0,0,.2.1.4.1.1,0,.1,0,.3,0,.1,0,.2,0,.2.1s0,0-.1,0-.2,0-.2,0,.1.1.3.1.4,0,.5,0c0,0,.2,0,.1,0s0,.1-.1.1-.2,0-.3,0c-.1,0,0,.1-.2.1s-.1,0-.2-.1c0,0-.1-.1-.1-.1,0,0,0,0,0,0s.1.2.1.2c0,0,.2.2.1.2s0,.1-.2.1c-.2,0-.3-.1-.4,0s-.3,0-.4.1c0,0,0,.4,0,.4h.2s.4,0,.4,0h.1c0,.1.4,0,.4,0l.2.2.3-.2.4-.3h0c0-.1.2-.3.2-.3l.2-.3s.1,0,.2-.1c0-.1,0-.2,0-.3ZM84.9,24c0,0,.2,0,.3,0,0,0,.1,0,.2,0s.1,0,.1,0c0,0-.2.1-.3.2,0,.1-.3,0-.3,0,0,0,0-.3,0-.3ZM85.5,24.7c-.1,0-.2,0-.3.1s-.1,0-.2,0c0,0-.2-.1-.2-.1,0,0,.1-.1.2-.1,0,0,.4,0,.4,0,0,0,.2,0,.1.1ZM85.6,24.2c0,0-.1.2-.2.2,0,0-.1,0,0-.1,0,0,.1-.3,0-.3s0-.1,0-.1c0,0-.2,0-.2-.1h0c0-.1,0,0,0,0,0,0,.1,0,.1,0,0,0,0,.2.1.2s0,.2,0,.3Z"/>
          </g>
          <g>
            <path class="cls-15" d="M82,24.5s0,.3.1.4,0,.3,0,.4,0,.6,0,.6c0,0,0,0,.2,0s0-.2,0-.2c0,0,0-.8,0-.9s.2-.6.2-.6h-.1s0,.4-.1.4,0-.4,0-.4h0s0,.2,0,.2,0,.2,0,.2-.2-.4-.2-.4h0Z"/>
            <path class="cls-13" d="M81.2,23.6s0,0,0-.1,0,0,0,0,0,0,.1,0,0-.1,0-.2.1-.1,0-.2,0,0,0-.1,0,0,0-.1,0-.1,0-.1.1-.2.1-.2,0,0,.1,0,0-.2,0-.2,0,0,0,0-.1-.1,0-.2.1,0,.2,0,0,0,0,0-.1,0-.1,0,0,0,0-.1.1-.2.1-.3,0-.4,0-.3.1.5.2.5,0,0,0,.1,0,.2,0,.2l.2.5h.1c0,0,.1,0,.1,0v.3c0,0,0,.2,0,.2l-.2.7-.9.2-.5-.5Z"/>
            <path class="cls-9" d="M82.1,24.4s0,0,0,0-.2,0-.2,0,0-.1,0-.2,0-.1,0,0,0,0,0,0c0,0,0,0,0,0s0,0,0,0-.1,0,0,0,0,0,0,0-.2,0-.2,0,0-.2,0-.2,0-.1,0-.1c0,0-.1,0-.1,0s0,0,0,0c0,0,0,0,0,0s.2,0,.2,0,.2,0,.2,0,0,0,0,0,.2,0,.1,0-.1.1-.1.2,0,.1,0,.1.2,0,.2,0,0,0,.1,0,0,0,.1,0,.2,0,.2,0,0,.1.1,0,.1,0,.2,0,0,0,0,0,0-.1,0-.2.2,0,.2,0,0-.1,0-.1,0,0,0,0c0,0,0,0,0,.1s0,.1-.1.2,0,0,0,.1,0,0-.2.1,0,0,0,0-.1,0-.2.1-.1,0-.1,0,0,0,0,0-.2,0-.2,0Z"/>
            <path class="cls-21" d="M83.2,23.6s0,0,0,0-.1,0-.1,0,0-.1,0-.2c0,0,0,0,0-.2,0-.1,0-.1,0-.2s0-.1,0-.1,0,0,0,0,0,0,0,0c0,0,0-.1,0-.2s0,0-.1,0c0,0-.2,0-.2,0s0-.1,0-.2c0,0,0,0-.1-.1,0,0-.1,0,0,0,0,0,0-.1,0-.2s0-.2,0-.2c0,0,0,.2,0,.2s0,0-.1,0,0,0,0,0,0,0,0,0c0,0,.2,0,.2,0,0,0,0,.2.1.2s0,.2,0,.1c0,0-.2,0-.2,0s0,0-.2,0-.1,0,0,0,0,0,0,0,0,0,0,0,0,.1.1.1,0,0,.1,0,.2,0,.2,0c0,0,0,0,0,.1,0,0,0,0-.2,0,0,0-.2-.1-.1,0s0,.1,0,.1c0,0,0-.1-.1,0,0,0,0,0,0,0,0,0,0,0-.1,0s-.1,0-.1,0c0,0,0,0,0,.1,0,0,.1,0,.2,0s0,0,.2,0c0,0,0,0,.1,0,0,0,0,0,.1,0s0,0,.1,0c0,0,0,0,0,0s-.2,0-.1,0c0,0,0,0,0,0s-.1,0-.2,0c0,0,0,0-.1,0s0-.1,0-.1c0,0,0,0,0,0,0,0,0,0,0,.1s0,.2,0,.2,0,0-.1,0c0,0,0,.1,0,.2,0,0-.1,0-.2,0s0,.1,0,.1h0c0,0,0,.1,0,.1,0,0,0,0,.1,0s0,0,.1,0,0,0,.1,0c0,0,0,0,0,0s0,0,.1,0c0,0,0,0,0-.1s-.1,0-.2,0,0,0,0,0c0,0,0,0,0,0,0,0,.1-.1.2-.1,0,0,.1,0,.2,0,0,0,0,0,.2,0,0,0,.1,0,.1,0s0,0,0,0-.1,0-.1,0,0,0,.2,0,.2,0,.3,0c0,0,.1,0,0,0s0,0,0,0-.1,0-.2,0c0,0,0,0,0,0s0,0-.1,0c0,0,0,0,0,0,0,0,0,0,0,0s0,.1,0,.1c0,0,.1.1,0,.1s0,0-.1,0c-.1,0-.2,0-.2,0s-.2,0-.2,0c0,0,0,.2,0,.2h0s.2,0,.2,0h0c0,0,.2,0,.2,0h.1c0,.1.2,0,.2,0l.2-.2h0c0,0,.1-.2.1-.2v-.2c.1,0,.2,0,.2,0,0,0,0-.1,0-.2ZM82.4,22.8s.1,0,.2,0c0,0,0,0,.1,0s0,0,0,0c0,0-.1,0-.2.1,0,0-.2,0-.2,0,0,0,0-.2,0-.2ZM82.8,23.2c0,0-.1,0-.2,0s0,0-.1,0c0,0-.1,0-.1,0,0,0,0,0,.1,0,0,0,.2,0,.2,0,0,0,.1,0,0,0ZM82.9,22.9s0,.1,0,.1c0,0,0,0,0,0,0,0,0-.2,0-.2s0,0,0,0c0,0-.1,0,0,0h0c0,0,0,0,0,0,0,0,0,0,0,0,0,0,0,.1,0,.1s0,.1,0,.2Z"/>
          </g>
          <g>
            <path class="cls-15" d="M81.3,27.8s.1.4.2.5,0,.4,0,.5,0,.8,0,.8c0,0,.1.1.2,0s0-.2,0-.2c0,0,0-1,0-1.1s.3-.8.3-.8h-.1s-.1.5-.2.6-.1-.5-.1-.5h0s0,.2,0,.3,0,.2,0,.2-.2-.5-.2-.5v.2Z"/>
            <path class="cls-13" d="M80.2,26.6s0-.1,0-.2,0,0,0-.1.1,0,.2-.1,0-.1,0-.2.2-.1.1-.2,0,0,0-.2,0,0,0-.2,0-.2,0-.2.1-.3.2-.3,0,.1.2.1,0-.2,0-.2.1,0,.1-.1-.1-.2,0-.2.2,0,.2,0,0,0,0,0-.2,0-.2-.1,0-.1,0-.2.2-.3.2-.3,0-.5,0-.4.2.6.2.7,0,0,0,.2,0,.3,0,.3l.3.7h.2c0,0,.2,0,.2,0v.4c0,0,0,.3,0,.3l-.2.9-1.2.3-.7-.6Z"/>
            <path class="cls-9" d="M81.4,27.7s0,0,0,.1-.2,0-.2,0,0-.1,0-.2,0-.1-.1,0-.1,0-.1,0c0,0,0,0,0,0s0,0,0,0-.1,0-.1-.1,0,0,0-.1-.2,0-.2-.1,0-.2,0-.3,0-.1,0-.1c0,0-.1,0-.2-.1s0-.1,0-.1c0,0,0,0,0,0s.2.1.2.1.3,0,.3.1,0,.1,0,.1.2,0,.2,0-.2.1-.2.2,0,.2.1.2.2,0,.2,0,.1,0,.1,0,0,0,.1,0,.2,0,.2,0,0,.2.1,0,.2,0,.2,0,0,0,.1-.1,0-.2.1-.2.2,0,.3,0,0-.2,0-.2.1,0,.1,0c0,0,0,.1,0,.2s-.1.2-.1.3,0,.1,0,.1-.1,0-.2.1,0,0-.1,0-.2,0-.2.2-.2,0-.2,0,0,0,0,0-.2,0-.2,0Z"/>
            <path class="cls-21" d="M82.8,26.7c0,0,0,0,0-.1s-.2,0-.2,0,0-.2,0-.2c0,0,.1,0,0-.2,0-.2,0-.2,0-.2s0-.1,0-.2,0,0,0,0,0,0,0-.1c0,0,0-.2,0-.2s0-.1-.1-.1c-.1,0-.2,0-.2-.1s.1-.1,0-.2c0,0-.1-.1-.2-.2,0,0-.2,0-.1-.1,0,0,0-.2,0-.2s0-.2,0-.2c0,0,0,.3,0,.3s-.1-.1-.2,0,0,.1,0,.1-.1,0,0,0c0,0,.2,0,.2.1,0,0,0,.3.1.3s0,.2,0,.2c0,0-.2,0-.3,0s-.1,0-.2,0-.1,0-.1-.1,0,0,0,0,0,0,0,.1.1.1.2.2,0,0,.2,0,.3,0,.3,0c0,0,.1,0,0,.1,0,0,0,0-.2,0-.1,0-.2-.1-.2,0s.1.2,0,.2c0,0-.1-.1-.1,0,0,0,0,0,0,.1,0,0-.1,0-.2,0s-.1,0-.2,0c0,0,0,0,0,.1,0,0,.2,0,.2,0s.1,0,.2,0c.1,0,0,0,.2,0,0,0,0,0,.1,0s.1,0,.1.1c0,0,0,.1,0,.1s-.2,0-.2,0c0,0,0,0-.1,0s-.2,0-.2,0c0,0-.1.1-.1,0s0-.2,0-.2c0,0,0,0,0,0,0,0,0,0,0,.2s0,.2,0,.3-.1,0-.1,0c0,0,0,.2,0,.2,0,0-.2,0-.2,0s0,.2,0,.2h0c0,.1,0,.2,0,.2,0,0,.1,0,.2,0s0,0,.1,0,0,0,.1,0c0,0,0,0,.1,0s0,0,.1,0c0,0,0,0,0-.1s-.1,0-.3,0-.1,0-.1,0c0,0,0,0,0-.1,0-.1.2-.2.2-.1,0,0,.2,0,.3,0,.1,0,0,0,.2,0,.1,0,.2,0,.1,0s0,0-.1,0-.2,0-.2,0,.1,0,.2,0,.3,0,.4,0c0,0,.1,0,.1,0s0,0,0,0-.2,0-.3,0c0,0,0,0-.1,0s-.1,0-.2,0c0,0-.1,0-.1,0,0,0,0,0,0,0s.1.2.1.2c0,0,.1.1.1.2s0,.1-.1,0c-.1,0-.2,0-.3,0s-.2,0-.3,0c0,0,0,.3,0,.3h.1s.3,0,.3,0h0c0,0,.3,0,.3,0v.2c.1,0,.4-.1.4-.1l.3-.2h0c0,0,.1-.2.1-.2l.2-.2s.1,0,.2,0c0,0,0-.2,0-.2ZM81.8,25.6s.2,0,.2,0c0,0,.1,0,.1,0s0,0,0,0c0,0-.2.1-.2.2,0,0-.2,0-.2,0,0,0,0-.2,0-.2ZM82.3,26.2c0,0-.1,0-.2,0s-.1,0-.2,0c0,0-.2,0-.2,0,0,0,0,0,.2,0,0,0,.3,0,.3,0,0,0,.2,0,0,0ZM82.4,25.8c0,0,0,.2-.1.2,0,0,0,0,0,0,0,0,.1-.2,0-.2s0,0,0,0c0,0-.2,0-.1,0h0c0-.1,0,0,0,0,0,0,0,0,.1,0,0,0,0,.1,0,.2s0,.2,0,.2Z"/>
          </g>
          <g>
            <path class="cls-20" d="M88,33.2s-.8-.3-.9-.1c0,0,.3.1.5.4.2.2,0,.3,0,.4,0,.2.4,0,.5.2.2.2.4.3.5.3,0,0,.3-.3.4-.2.2.2,0,.3.2.4.7.1.7-.5.9-.4.1.1.7-.6.6-.3,0,.3.6-.3.6-.3,0,0,0-.2-.2-.2-.2,0,.2-.5.3-.3.1.2.2-.3,0-.5-.2-.2-.6-.5-.6-.5l-.7.6-1.3.3h-.9Z"/>
            <path class="cls-16" d="M87.1,31.2c-.1,0-.1.3,0,.5,0,.1-.2.3-.2.4,0,.3.4.3.4.3,0,0-.4.1-.4.2,0,.2.2.4.4.5.2.2.3-.3.8.2.4.5,1.2.2,1.2.2l1.1.2c.6,0,.5-.1.5-.3,0-.2,0-.3,0-.3,0,0,.2,0,.2-.1,0,0-.1-.2,0-.2.3,0,.2-.4.2-.4,0,0-.2-.1-.2-.2,0-.2,0-.2,0-.2.1-.2-.5-.2-.5-.2,0,0,0-.2,0-.2,0,0,0,0,0,0,0,0,.1,0,.1-.1,0-.3-.3-.2-.3-.2h0c0-.1.2-.1,0-.4-.2-.3-.4,0-.5.1,0,0-.2-.4-.4-.5-.1,0-.1,0-.2,0,0,0-.1-.3-.2-.3-.1,0-.4.1-.4.2,0,0-.3-.1-.5-.1-.2,0-.4.2-.4.3,0,0,0,.2,0,.2s-.3,0-.2.1c0,0,.2,0,.2,0,0,0-.3,0-.5.2-.1.1,0,.3,0,.3h0Z"/>
            <path class="cls-10" d="M86.9,32.6c-.2,0-.1.3-.1.3,0,0,.2,0,.2.1,0,.2.3.1.3.1h.1c0,0,0,.5.2.4.1-.1,0-.2.1-.2,0,0,.1,0,.1,0h0c0,0,0,.2.2.2.3,0-.1-.2.2,0,.1,0,0,.1,0,.1,0,0,.5.2.6,0,0-.2,0-.2.2-.1.2,0,0,0,0,0v.2c.1,0,0,0,.4.1.3,0,.2-.2.2-.2h.2c0,0,0,.3.4,0,.3-.2.2,0,.2,0,0,0,.3,0,.3-.1,0-.2,0-.2,0-.2v-.3c0,0,.2-.1.2-.1,0,0,0,0,0-.1,0-.1-.2-.1,0-.3,0,0,.2.2.3-.1,0-.2.1,0,0-.2-.1-.2-.2-.2-.2-.2,0,0,.1,0,0-.1-.1-.2-.2-.2-.2-.2h-.2v-.2c-.1,0-.3.4-.3.4h0s.2.3.2.3v.5s-.1,0-.1,0c0,0-.1.1,0,.3,0,.2.3.3.1.4-.2,0-.2,0-.3,0s-.3-.2-.4-.2c0,0-.6.3-.7.2,0,0-.1-.2-.3-.2s-.2.1-.2.1l-.6-.2s-.2-.2-.3-.2-.3,0-.3,0h-.2s0-.1-.2-.2Z"/>
            <path class="cls-6" d="M88.4,31s-.3,0-.3.2c0,.1,0,.3,0,.4,0,0-.3,0-.3,0s-.4,0-.3,0c0,0-.1.2-.2.2s-.2,0-.2,0c0,0-.1,0-.1.1,0,0,.1.4.1.4,0,0,.4,0,.3,0,0-.1-.3-.2,0-.3.2-.1.2,0,.3,0,.2-.1.1-.2.2-.2,0,0,.2,0,.2,0s.2,0,.2,0c0-.1.1,0,0-.3,0-.2.1-.3.1-.3h0c0,0,0-.2,0-.2,0,0,.2,0,.2-.2,0-.1-.1-.3-.1-.3h-.2s0,0,0,.2c0,.2-.2.3-.2.3Z"/>
          </g>
          <g>
            <path class="cls-20" d="M93.8,36.7s-.8-.3-.9-.1c0,0,.3.1.5.4.2.2,0,.3,0,.4,0,.2.4,0,.5.2.2.2.4.3.5.3,0,0,.3-.3.4-.2.2.2,0,.3.2.4.7.1.7-.5.9-.4.1.1.7-.6.6-.3,0,.3.6-.3.6-.3,0,0,0-.2-.2-.2-.2,0,.2-.5.3-.3.1.2.2-.3,0-.5-.2-.2-.6-.5-.6-.5l-.7.6-1.3.3h-.9Z"/>
            <path class="cls-16" d="M92.9,34.7c-.1,0-.1.3,0,.5,0,.1-.2.3-.2.4,0,.3.4.3.4.3,0,0-.4.1-.4.2,0,.2.2.4.4.5.2.2.3-.3.8.2.4.5,1.2.2,1.2.2l1.1.2c.6,0,.5-.1.5-.3,0-.2,0-.3,0-.3,0,0,.2,0,.2-.1,0,0-.1-.2,0-.2.3,0,.2-.4.2-.4,0,0-.2-.1-.2-.2,0-.2,0-.2,0-.2.1-.2-.5-.2-.5-.2,0,0,0-.2,0-.2,0,0,0,0,0,0,0,0,.1,0,.1-.1,0-.3-.3-.2-.3-.2h0c0-.1.2-.1,0-.4-.2-.3-.4,0-.5.1,0,0-.2-.4-.4-.5-.1,0-.1,0-.2,0,0,0-.1-.3-.2-.3-.1,0-.4.1-.4.2,0,0-.3-.1-.5-.1-.2,0-.4.2-.4.3,0,0,0,.2,0,.2s-.3,0-.2.1c0,0,.2,0,.2,0,0,0-.3,0-.5.2-.1.1,0,.3,0,.3h0Z"/>
            <path class="cls-10" d="M92.7,36.2c-.2,0-.1.3-.1.3,0,0,.2,0,.2.1,0,.2.3.1.3.1h.1c0,0,0,.5.2.4.1-.1,0-.2.1-.2,0,0,.1,0,.1,0h0c0,0,0,.2.2.2.3,0-.1-.2.2,0,.1,0,0,.1,0,.1,0,0,.5.2.6,0,0-.2,0-.2.2-.1.2,0,0,0,0,0v.2c.1,0,0,0,.4.1.3,0,.2-.2.2-.2h.2c0,0,0,.3.4,0,.3-.2.2,0,.2,0,0,0,.3,0,.3-.1,0-.2,0-.2,0-.2v-.3c0,0,.2-.1.2-.1,0,0,0,0,0-.1,0-.1-.2-.1,0-.3,0,0,.2.2.3-.1,0-.2.1,0,0-.2-.1-.2-.2-.2-.2-.2,0,0,.1,0,0-.1-.1-.2-.2-.2-.2-.2h-.2v-.2c-.1,0-.3.4-.3.4h0s.2.3.2.3v.5s-.1,0-.1,0c0,0-.1.1,0,.3,0,.2.3.3.1.4-.2,0-.2,0-.3,0s-.3-.2-.4-.2c0,0-.6.3-.7.2,0,0-.1-.2-.3-.2s-.2.1-.2.1l-.6-.2s-.2-.2-.3-.2-.3,0-.3,0h-.2s0-.1-.2-.2Z"/>
            <path class="cls-6" d="M94.3,34.5s-.3,0-.3.2c0,.1,0,.3,0,.4,0,0-.3,0-.3,0s-.4,0-.3,0c0,0-.1.2-.2.2s-.2,0-.2,0c0,0-.1,0-.1.1,0,0,.1.4.1.4,0,0,.4,0,.3,0,0-.1-.3-.2,0-.3.2-.1.2,0,.3,0,.2-.1.1-.2.2-.2,0,0,.2,0,.2,0s.2,0,.2,0c0-.1.1,0,0-.3,0-.2.1-.3.1-.3h0c0,0,0-.2,0-.2,0,0,.2,0,.2-.2,0-.1-.1-.3-.1-.3h-.2s0,0,0,.2c0,.2-.2.3-.2.3Z"/>
          </g>
          <g>
            <path class="cls-6" d="M90.9,26.9s0-.4.1-.3c.1,0,.3.1.3.2,0,0,0-.3.1-.3s.2,0,.2.2c0,.2-.2,0-.2.2,0,.3-.1.3-.3.4-.1.1-.1-.2-.1-.2,0,0-.3,0-.3,0,0,0-.1,0-.1-.2,0-.2.2-.1.2-.1Z"/>
            <path class="cls-15" d="M92.1,27.5s.2.6.3.8,0,.6,0,.7,0,1.3,0,1.3c0,0,.2.2.3.1s.1-.3.1-.3c0,0-.1-1.7,0-1.8s.5-1.2.5-1.2h-.2c0,0-.2.8-.3.9s-.2-.8-.2-.8h-.1c0,0,0,.4,0,.5s0,.4,0,.4-.3-.8-.3-.8v.3Z"/>
            <path class="cls-13" d="M90.4,25.7s0-.2,0-.2-.1-.1,0-.2.2,0,.3-.2,0-.2.1-.3.3-.2.2-.3-.1-.2-.1-.2,0-.1,0-.2,0-.3,0-.3.2-.5.3-.5.1.2.3.2,0-.3.2-.4.2,0,.2-.2-.2-.2,0-.3.3,0,.4,0,.2,0,.1-.1-.3,0-.3-.2,0-.2.2-.3.3-.5.3-.6,0-.8.1-.7.3,1,.3,1.1.1,0,.1.3-.2.5-.2.5l.4,1.1h.3c0-.1.3.1.3.1l.2.6-.2.4-.4,1.5-2,.4-1.1-1Z"/>
            <path class="cls-9" d="M92.2,27.3s0,.1-.2.2-.3.1-.4,0,.1-.2,0-.3,0-.2-.2-.1-.2.2-.2.2c0,0,0,0-.1,0s0,0-.2,0-.2-.1-.2-.2,0-.2,0-.2-.4,0-.4-.2,0-.4,0-.5,0-.2,0-.2c0,0-.2-.1-.3-.2s0-.2,0-.2c0,0,0,.1.1.2s.3.2.4.2.5.1.5.2-.1.2,0,.2.4,0,.3,0-.3.2-.3.3,0,.3.2.3.4,0,.4,0,.2.1.2.1,0,0,.2,0,.4,0,.4,0,.1.3.2.1.3-.2.3-.2.2,0,.2-.2,0-.3.2-.3.4,0,.5,0,0-.3.1-.3.2-.2.2-.2c0,0,0,.2,0,.3s-.2.3-.2.4,0,.2-.2.2-.2.1-.4.2,0,0-.2,0-.3.1-.4.3-.3.1-.3,0,.1-.1,0-.1-.4,0-.4,0Z"/>
            <path class="cls-21" d="M94.5,25.7c0,0,0-.1-.1-.2s-.2,0-.3,0,0-.3,0-.4c0-.1.2,0,0-.3-.1-.3,0-.2,0-.4s0-.2,0-.3,0,0,0-.1,0-.1-.1-.2c0-.1.1-.3,0-.3s0-.2-.2-.2c-.2,0-.3,0-.3-.2s.2-.2,0-.3c-.1-.1-.2-.2-.3-.2-.1,0-.2,0-.2-.2,0-.1.1-.3,0-.4s-.2-.4-.2-.4c0,0,0,.4,0,.5s-.2-.2-.2,0,0,.2,0,.2-.2,0-.1,0c0,0,.3.1.4.2,0,0,.1.4.2.5s0,.3-.1.3c-.1,0-.3-.1-.5-.1s-.2.1-.3.1-.2-.1-.2-.2-.1-.1-.1,0-.1.1-.1.2.2.2.2.2.1,0,.2,0,.5,0,.5,0c0,.1.2.1.1.2,0,0-.1.1-.3,0-.2,0-.3-.2-.3-.1s.2.3,0,.3c-.1,0-.2-.2-.2-.1,0,.1,0,.1-.1.2,0,0-.2,0-.3,0s-.2,0-.3,0c0,0-.1.1-.1.2,0,0,.2,0,.4-.1s.2,0,.4,0c.2,0,.1-.1.2,0,.1,0,.1.1.2.1s.2,0,.2.2c0,.1,0,.2-.1.2s-.3,0-.3.1c0,0,0,0-.2,0s-.3,0-.4,0c0,0-.2.2-.2,0s-.1-.3-.1-.3c0,0,0-.1,0-.1,0,0-.1.1-.1.2s-.1.3-.1.4-.2,0-.2,0c0,0,.1.3,0,.4-.1,0-.2-.1-.3,0s0,.3,0,.3h.1c-.1.2,0,.2,0,.2,0,0,.2.1.3.1s.1,0,.2,0,.1-.1.2,0c0,0,0,0,.2,0s.1,0,.2,0c0,0,0-.1,0-.2s-.2,0-.4,0-.2,0-.2,0c0,0,0-.1.1-.2.2-.2.3-.2.3-.2,0,0,.3.1.5.2.2,0,.1,0,.3,0,.2,0,.3,0,.2.1s0,0-.2,0-.3,0-.3,0,.2.1.3.1.5,0,.6,0c.1,0,.2,0,.2.1s0,.1-.2.1-.3,0-.4,0c-.1,0,0,.1-.2.1s-.2,0-.2-.2c0,0-.2-.2-.2-.2,0,0-.1-.1-.1,0s.2.3.2.3c0,0,.2.2.2.3s0,.2-.2.2c-.2,0-.4-.1-.5,0s-.4,0-.5.1c0,.1,0,.5,0,.5h.2s.5.1.5.1h.1c0,.1.5,0,.5,0l.2.2.4-.2.5-.4h0c0-.1.2-.4.2-.4l.2-.3s.2,0,.2-.1c0-.1,0-.3,0-.3ZM92.9,24.1c0,0,.3,0,.4,0,.1,0,.2,0,.2,0s.1.1.1.1c-.1.1-.3.2-.4.3,0,.1-.3,0-.3,0,0,0-.1-.3,0-.4ZM93.8,24.9c-.1,0-.2,0-.3.1s-.2,0-.3,0c0,0-.3-.1-.3-.1,0,0,.1-.1.2-.1.1,0,.5,0,.5,0,0,0,.3,0,.1.1ZM93.9,24.3c0,0-.1.3-.2.3,0,0-.1,0,0-.2,0-.1.2-.3.1-.4s0-.1-.1-.2c0,0-.2,0-.2-.1v-.2s0,0,.2.1c0,0,.1-.1.2,0,0,0,.1.2.2.3s0,.2,0,.3Z"/>
          </g>
          <g>
            <g>
              <path class="cls-16" d="M83.8,28.2c0,0-.1.2,0,.3,0,0-.2.2-.2.3,0,.2.3.2.3.2,0,0-.3,0-.3.2,0,.1.2.3.3.3.2.1.2-.2.6.1.3.4.8.2.8.2h.8c.5.2.4,0,.3-.1,0-.1,0-.2,0-.2,0,0,.1,0,.1,0,0,0,0-.1,0-.2.2,0,.2-.3.2-.3,0,0-.1,0-.1-.2,0-.1,0-.1,0-.2,0-.2-.3-.2-.3-.2,0,0,0-.1,0-.2,0,0,0,0,0,0,0,0,.1,0,0,0,0-.2-.2-.1-.2-.1h0c0,0,.1,0,0-.3-.1-.2-.3,0-.3,0,0,0-.2-.3-.3-.4,0,0-.1,0-.1,0,0,0,0-.2-.2-.2,0,0-.3,0-.3.1,0,0-.2,0-.3,0-.1,0-.3.2-.3.2,0,0,0,.1,0,.1s-.2,0-.2,0c0,0,.1,0,.1,0,0,0-.2,0-.4.2,0,0,0,.2,0,.2h0Z"/>
              <path class="cls-10" d="M83.7,29.2c-.2,0-.1.2,0,.2,0,0,.1,0,.1,0,0,.1.2,0,.2,0h0c0,0,0,.3.1.3.1,0,0-.1,0-.2,0,0,.1,0,.1,0h0c0,0,0,.1.1.1.2,0,0-.1.2,0,0,0,0,.1,0,.1,0,0,.4.1.4,0,0-.1,0-.1.1,0,.1,0,0,0,0,0h.1c0,.1,0,.2.2.2.2,0,.1-.1.1-.1h.1c0,0,0,.2.3,0,.2-.2.1,0,.1,0,0,0,.2,0,.2,0,0-.1,0-.2,0-.2v-.2s.1,0,.1,0c0,0,0,0,0,0,0,0-.2,0,0-.2,0,0,.1.2.2,0,0-.2,0,0,0-.2,0-.1-.1-.2-.1-.2,0,0,0,0,0,0,0-.2-.1-.2-.1-.2h-.2c0-.1-.2.1-.2.1h0s.2.2.2.2v.3s0,0,0,0c0,0,0,0,0,.2,0,.1.2.2,0,.3-.1,0-.1,0-.2,0s-.2-.2-.3-.2c0,0-.4.2-.5.2,0,0,0-.2-.2-.2s-.2,0-.2,0l-.4-.2s-.2-.2-.2-.2-.2,0-.2,0h-.1s0-.1-.1-.1Z"/>
              <path class="cls-6" d="M84.8,28s-.2,0-.2.1c0,0,0,.2,0,.3,0,0-.2,0-.2,0s-.3,0-.2,0c0,0,0,.2-.1.2s-.1,0-.1,0c0,0-.1,0,0,0,0,0,0,.3,0,.3,0,0,.3,0,.2,0,0,0-.2-.1,0-.2.1,0,.1,0,.2,0,.1,0,0-.1.1-.2,0,0,.1,0,.2,0s.2,0,.2,0c0,0,0,0,0-.2,0-.1.1-.2.1-.2h0s0-.1,0-.1c0,0,.2,0,.1-.1,0-.1,0-.2,0-.2h-.2s0,0,0,.1c0,.1-.2.2-.2.2Z"/>
            </g>
            <path class="cls-6" d="M85.1,28.8s0-.3.1-.2c0,0,.2,0,.2.1,0,0,0-.2,0-.2s.2,0,.2.2c0,.1-.1,0-.1.2,0,.2,0,.2-.2.3-.1,0-.1-.2-.1-.2,0,0-.2,0-.2,0,0,0-.1,0,0-.1,0-.1.1,0,.1,0Z"/>
          </g>
          <g>
            <g>
              <path class="cls-16" d="M83.5,30.6c-.1,0-.1.3,0,.5,0,.1-.2.2-.2.4,0,.3.4.3.4.3,0,0-.3.1-.4.2,0,.2.2.4.3.4.2.2.3-.3.7.2.4.5,1.1.2,1.1.2l1.1.2c.6,0,.5-.1.4-.3,0-.1,0-.3,0-.3,0,0,.2,0,.2,0,0,0-.1-.2,0-.2.2,0,.2-.4.2-.4,0,0-.1-.1-.2-.2,0-.2,0-.1,0-.2,0-.2-.5-.2-.5-.2,0,0,0-.2,0-.2,0,0,0,0,0,0,0,0,.1,0,.1-.1,0-.3-.2-.2-.2-.2h0c0-.1.2-.1,0-.4-.1-.3-.4,0-.5.1,0,0-.2-.4-.3-.5-.1,0-.1,0-.2,0,0,0-.1-.3-.2-.3-.1,0-.3.1-.3.2,0,0-.3-.1-.4-.1-.2,0-.4.2-.4.3,0,0,0,.1,0,.1s-.3,0-.2.1c0,0,.1,0,.1,0,0,0-.3,0-.5.2-.1.1,0,.3,0,.3h0Z"/>
              <path class="cls-10" d="M83.4,31.9c-.2,0-.1.3,0,.3,0,0,.2,0,.2.1,0,.2.2.1.2.1h.1c0,0,0,.5.2.4.1-.1,0-.2.1-.2,0,0,.1,0,.1,0h0c0,0,0,.2.1.1.2,0,0-.2.2,0,.1,0,0,.1,0,.1,0,0,.5.2.6,0,0-.2,0-.2.2-.1.2,0,0,0,0,0h.1c0,.1,0,.2.2.2.3,0,.2-.1.2-.1h.2c0,0,0,.3.4,0,.3-.2.2,0,.2,0,0,0,.3,0,.2-.1,0-.2,0-.2,0-.2v-.2c0,0,.1-.1.1-.1,0,0,0,0,0-.1,0-.1-.2-.1,0-.2,0,0,.2.2.2-.1,0-.2,0,0,0-.2-.1-.2-.2-.2-.2-.2,0,0,.1,0,0-.1-.1-.2-.2-.2-.2-.2h-.3c0-.1-.2.2-.2.2h0s.2.3.2.3v.5s-.1,0-.1,0c0,0-.1.1,0,.3,0,.2.3.3.1.3-.1,0-.2,0-.3,0s-.3-.2-.3-.2c0,0-.6.2-.6.2,0,0-.1-.2-.2-.2s-.2,0-.2,0l-.5-.2s-.2-.2-.3-.2-.3,0-.3,0h-.2s0-.1-.2-.1Z"/>
              <path class="cls-6" d="M84.9,30.3s-.3,0-.3.2c0,.1,0,.3,0,.3,0,0-.3,0-.3,0s-.3,0-.3,0c0,0-.1.2-.2.2s-.2,0-.2,0c0,0-.1,0-.1.1,0,0,.1.3.1.3,0,0,.3,0,.3,0,0-.1-.3-.1,0-.2.2-.1.2,0,.3,0,.2-.1.1-.2.2-.2,0,0,.2,0,.2,0s.2,0,.2,0c0-.1.1,0,0-.3,0-.2.1-.3.1-.3h0c0,0,0-.2,0-.2,0,0,.2,0,.1-.2,0-.1-.1-.3-.1-.3h-.2s0,0,0,.2c0,.2-.2.3-.2.3Z"/>
            </g>
            <path class="cls-6" d="M84.8,31.5s0-.4.1-.3c.1,0,.2,0,.3.2,0,0,0-.3.1-.3s.2,0,.2.2c0,.2-.2,0-.2.2,0,.2-.1.3-.2.4-.1.1-.1-.2-.1-.2,0,0-.3,0-.3,0,0,0-.1,0-.1-.1,0-.2.2-.1.2-.1Z"/>
          </g>
          <path class="cls-15" d="M96,35.8s.3.8.4,1.1,0,.9,0,1,0,1.8,0,1.8c0,0,.3.3.4.2s.2-.5.2-.5c0,0-.1-2.3,0-2.5s.7-1.7.7-1.7h-.3c0,0-.3,1.1-.4,1.2s-.2-1.1-.2-1.1h-.2c0,0,0,.5.1.7s.1.5,0,.5-.4-1.1-.4-1.1l-.2.4Z"/>
          <g>
            <path class="cls-15" d="M102.5,35.3s.3.9.4,1.2,0,.9,0,1.1,0,1.9,0,1.9c0,0,.3.3.5.2s.2-.5.2-.5c0,0-.2-2.5,0-2.7s.7-1.8.7-1.8h-.3c0,0-.3,1.2-.4,1.3s-.3-1.2-.3-1.2h-.2c0-.1,0,.5.1.7s.1.6,0,.6-.5-1.2-.5-1.2l-.2.4Z"/>
            <path class="cls-13" d="M99.9,32.5s0-.3,0-.4-.2-.2,0-.3.3,0,.4-.3,0-.3.2-.5.4-.3.3-.5-.2-.2-.2-.4,0-.2,0-.4,0-.4,0-.5.3-.8.4-.7.2.3.4.3,0-.5.2-.6.3.1.3-.3-.3-.4-.1-.5.5-.1.6,0,.2,0,.2-.2-.4,0-.4-.3,0-.3.2-.4.4-.7.4-.8,0-1.2.2-1,.4,1.6.5,1.7.2.1.2.4-.2.7-.2.7l.6,1.7.4-.2.5.4.2.9-.3.6-.6,2.3-3,.6-1.7-1.4Z"/>
            <path class="cls-9" d="M102.8,35s0,.2-.2.3-.5.2-.5,0,.2-.3,0-.5-.1-.3-.3-.2-.3.2-.3.2c0,0,0,0-.2,0s0,0-.2,0-.3-.2-.3-.3,0-.2-.1-.3-.5,0-.6-.3,0-.5,0-.7,0-.3,0-.3c0,0-.3-.2-.4-.3s0-.3,0-.3c0,0,0,.2.2.2s.5.3.6.3.8.2.7.3-.2.3,0,.3.5,0,.4.1-.4.3-.4.5.1.5.3.4.5-.1.6,0,.3.2.3.2.1,0,.3,0,.5,0,.6,0,.2.4.3.2.4-.2.5-.2.2-.1.3-.3.1-.4.3-.5.5,0,.7-.1,0-.4.2-.5.3-.2.3-.2c0,0,0,.3-.1.4s-.3.4-.3.6,0,.3-.2.3-.3.2-.5.3,0,.1-.3.1-.4.2-.6.4-.4.2-.4,0,.2-.2,0-.2-.5-.1-.5-.1Z"/>
            <path class="cls-21" d="M106.1,32.6c-.1,0,0-.2-.2-.3s-.4,0-.4-.1-.1-.4,0-.6c.1-.2.3,0,0-.5-.2-.4,0-.4,0-.5s0-.3,0-.4.1,0,0-.2-.1-.2-.2-.3c0-.2.2-.4,0-.5s0-.3-.3-.3c-.3,0-.5-.1-.5-.3s.3-.3.1-.5c-.2-.2-.3-.3-.5-.4-.2,0-.4,0-.3-.3,0-.2.2-.5,0-.6s-.2-.6-.2-.6c0,0,0,.6,0,.7s-.3-.3-.4-.1,0,.3-.1.3-.3,0-.2.1c0,.1.5.2.6.3,0,0,.2.6.3.7s0,.5-.2.5c-.2,0-.5-.2-.7-.2s-.3.2-.5.2-.3-.2-.3-.3-.2-.2-.2,0-.2.2-.2.3.3.3.4.4.2,0,.4,0,.7,0,.7,0c.1.2.3.2.2.3,0,.1-.2.2-.5,0-.3,0-.5-.3-.4-.2s.3.4.1.4c-.2,0-.3-.3-.3-.2,0,.2,0,.2-.2.3-.1,0-.3.1-.4.1s-.3,0-.4.1c0,0-.2.2-.2.3,0,.1.4-.1.6-.2s.3,0,.6,0c.3-.1.2-.2.4,0,.2.1.2.2.3.2s.3.1.3.3c0,.2,0,.3-.2.3s-.5.1-.4.2c0,.1,0,0-.3,0s-.4,0-.5,0c-.1,0-.3.3-.3.1s-.2-.4-.2-.4c0,0,0-.2,0-.2-.1,0-.2.2-.2.4s-.2.5-.2.6-.3,0-.3,0c0,0,.2.5,0,.5-.2,0-.4-.2-.5,0s-.1.5-.1.5h.2c-.2.3.1.4.1.4,0,0,.3.2.4.2s.2,0,.3,0,.2-.2.3-.1c.1,0,.1,0,.3,0s.2,0,.3,0c.1,0,0-.2,0-.3s-.3,0-.7,0-.2,0-.3-.1c0,0,0-.2.2-.3.2-.3.4-.4.5-.3.1,0,.4.2.7.2.3,0,.2,0,.5,0,.3,0,.4.1.3.2s0,0-.3.1-.4,0-.4,0,.3.2.5.2.7,0,.9,0c.2,0,.3,0,.3.2s0,.2-.2.2-.4-.1-.6,0c-.2,0-.1.2-.3.2s-.3-.1-.4-.2c-.1-.1-.3-.2-.3-.2,0,0-.2-.2-.2,0s.3.4.3.4c0,0,.3.3.3.4s0,.3-.3.2c-.3,0-.5-.2-.7,0s-.6,0-.7.2c0,.2.1.8.1.8h.3s.7.2.7.2l.2.2h.7c0,0,.3.3.3.3l.6-.3.8-.5v-.2c.1,0,.5-.3.5-.3l.4-.5s.3,0,.4-.2c0-.2,0-.4-.1-.5ZM103.7,30.1c.1,0,.4,0,.6,0,.2,0,.3,0,.3,0s.2.2.2.2c-.2.2-.4.3-.5.5-.1.2-.5,0-.5,0,0,0-.2-.5,0-.5ZM104.9,31.3c-.2.1-.3.1-.5.2s-.3,0-.4,0c-.1,0-.4-.2-.4-.2,0,0,.2-.2.4-.2.2,0,.7,0,.7,0,0,0,.4,0,.2.2ZM105.2,30.5c-.1.1-.2.4-.3.4-.1,0-.2,0-.1-.2,0-.2.3-.5.2-.6s0-.2-.2-.2c-.1,0-.4,0-.3-.2v-.3c0,0,.1.1.2.2.1,0,.2-.2.3,0,0,.1.2.3.2.5s0,.4,0,.5Z"/>
          </g>
          <path class="cls-13" d="M93.7,33.3s0-.2,0-.3-.2-.2,0-.3.3,0,.4-.3,0-.3.2-.5.4-.3.3-.5-.2-.2-.1-.3,0-.1,0-.3,0-.4,0-.4.3-.7.4-.6.2.2.4.2,0-.5.2-.5.3.1.3-.3-.3-.3,0-.5.4-.1.5,0,.2,0,.2-.2-.4,0-.4-.2,0-.3.2-.4.4-.6.4-.8,0-1.1.2-.9.4,1.4.5,1.6.1.1.1.4-.2.6-.2.6l.6,1.6.4-.2.4.4.2.9-.2.6-.5,2.1-2.7.6-1.5-1.3Z"/>
          <path class="cls-9" d="M96.4,35.5s0,.2-.2.3-.4.2-.5,0,.1-.3,0-.4,0-.3-.2-.2-.3.2-.3.2c0,0,0,0-.1,0s0,0-.2,0-.3-.1-.2-.2,0-.2-.1-.3-.5,0-.5-.3,0-.5,0-.6,0-.3,0-.3c0,0-.3-.1-.4-.3s0-.2,0-.2c0,0,0,.1.2.2s.4.3.5.3.7.2.7.3-.2.3,0,.3.5,0,.4.1-.4.3-.4.4,0,.4.3.4.5,0,.5,0,.2.2.3.2,0,0,.3,0,.5,0,.5,0,.1.3.3.2.3-.2.4-.2.2-.1.2-.3,0-.4.3-.4.5,0,.6-.1,0-.4.1-.4.3-.2.3-.2c0,0,0,.2-.1.3s-.3.4-.3.6,0,.3-.2.3-.2.2-.5.3,0,.1-.2.1-.3.2-.5.4-.3.1-.4,0,.2-.2,0-.1-.5-.1-.5-.1Z"/>
          <path class="cls-21" d="M99.3,33.3c-.1,0,0-.2-.2-.3s-.3,0-.4-.1-.1-.4,0-.5c.1-.1.2,0,0-.4-.2-.4,0-.3,0-.5s0-.3,0-.4,0,0,0-.1-.1-.1-.2-.3c0-.1.1-.4,0-.5s0-.3-.3-.2c-.3,0-.5,0-.5-.2s.3-.3,0-.5c-.2-.1-.2-.3-.4-.3-.2,0-.3,0-.3-.3,0-.2.2-.4,0-.5s-.2-.5-.2-.5c0,0,0,.6,0,.7s-.3-.3-.3-.1,0,.3-.1.3-.3,0-.2,0c0,0,.5.2.5.3,0,0,.2.6.3.6s0,.5-.2.4c-.2,0-.5-.2-.6-.2s-.2.2-.4.1-.3-.1-.3-.3-.2-.2-.2,0-.2.1-.1.2.3.3.3.3.2,0,.3,0,.7,0,.7,0c0,.2.3.2.2.3,0,.1-.2.1-.4,0-.3,0-.4-.3-.4-.2s.3.4,0,.4c-.2,0-.3-.3-.3-.1,0,.2,0,.2-.2.2-.1,0-.2,0-.4.1s-.3,0-.4,0c0,0-.2.2-.2.3,0,0,.3-.1.5-.2s.3,0,.5,0c.2,0,.2-.2.3,0,.2,0,.2.2.3.1s.3,0,.3.2c0,.1,0,.3-.2.3s-.5,0-.4.2c0,0,0,0-.3,0s-.4,0-.5,0c0,0-.3.2-.3.1s-.1-.4-.1-.4c0,0,0-.2,0-.1,0,0-.2.2-.2.3s-.1.5-.2.6-.3,0-.3,0c0,0,.2.4,0,.5-.1,0-.3-.2-.5,0s0,.4,0,.4h.2c-.2.3.1.3.1.3,0,0,.3.2.4.2s.2,0,.3,0,.2-.2.3,0c.1,0,0,0,.3,0s.2,0,.3,0c.1,0,0-.2,0-.3s-.3,0-.6,0-.2,0-.3-.1c0,0,0-.2.2-.3.2-.3.4-.3.5-.3.1,0,.4.2.6.2.2,0,.2,0,.5,0,.3,0,.4.1.3.2s0,0-.2,0-.4,0-.4,0,.3.2.4.2.7,0,.8,0c.2,0,.3,0,.2.2s0,.2-.2.2-.4,0-.6,0c-.2,0-.1.2-.3.2s-.2-.1-.3-.2c0,0-.3-.2-.3-.2,0,0-.2-.1-.2,0s.3.4.3.4c0,0,.3.3.3.4s0,.2-.3.2c-.3,0-.5-.2-.6,0s-.5,0-.6.2c0,.2.1.7.1.7h.3s.6.2.6.2l.2.2h.7c0,0,.3.3.3.3l.6-.3.7-.5v-.2c.1,0,.4-.3.4-.3l.3-.4s.3,0,.3-.2c0-.2,0-.4,0-.4ZM97.2,31.1c0,0,.4,0,.5,0,.1,0,.2,0,.3,0s.2.1.2.1c-.2.2-.4.2-.5.4-.1.2-.5,0-.5,0,0,0-.2-.4,0-.5ZM98.3,32.2c-.2.1-.3.1-.4.2s-.3,0-.4,0c-.1,0-.4-.2-.4-.2,0,0,.2-.2.3-.2.2,0,.7,0,.7,0,0,0,.4,0,.2.2ZM98.5,31.4c0,.1-.2.4-.3.4,0,0-.2,0,0-.2,0-.1.2-.4.2-.5s0-.2-.2-.2c-.1,0-.3,0-.3-.2v-.2c0,0,.1.1.2.2,0,0,.2-.1.2,0,0,0,.2.3.2.4s0,.3,0,.5Z"/>
          <path class="cls-13" d="M85,43.4s-.1-.4,0-.6-.3-.3,0-.5.5-.1.7-.5,0-.6.3-.8.7-.5.5-.8-.4-.4-.3-.6.1-.3.1-.6,0-.7.1-.8.6-1.3.7-1.1.4.4.7.4,0-.9.4-1,.5.2.5-.5-.6-.6-.2-.8.8-.2,1-.1.4,0,.3-.3-.7-.1-.7-.4.1-.5.4-.7.7-1.2.7-1.4,0-2.1.3-1.7.7,2.6.8,2.8.3.2.3.7-.4,1.2-.4,1.2l1,2.9.7-.3.8.7.4,1.6-.4,1-.9,3.8-5,1-2.7-2.4Z"/>
          <path class="cls-9" d="M89.9,47.5s0,.3-.4.5-.8.3-.8,0,.3-.6.1-.8-.2-.5-.4-.3-.5.4-.5.4c0,0-.1,0-.3-.1s0,0-.4,0-.5-.3-.4-.4.1-.4-.2-.5-.9,0-.9-.5-.1-.9,0-1.1,0-.6,0-.6c0,0-.6-.3-.7-.5s.1-.4.1-.4c0,0-.1.3.3.4s.8.5.9.5,1.3.3,1.2.5-.3.5,0,.5.9,0,.7.2-.7.5-.7.8.2.8.5.7.8-.2.9,0,.4.3.5.3.2,0,.6,0,.9-.1.9,0,.3.6.5.4.6-.4.8-.4.4-.2.4-.5.2-.7.5-.8.9.1,1.1-.2.1-.7.3-.8.5-.4.5-.4c0,0,0,.4-.2.6s-.5.7-.5,1-.1.5-.4.6-.4.4-.9.6-.1.2-.4.2-.6.4-1,.7-.6.3-.7,0,.3-.3-.1-.3-.9-.2-.9-.2Z"/>
          <path class="cls-21" d="M95.3,43.5c-.2-.1,0-.3-.3-.5s-.6-.1-.7-.2-.2-.7,0-.9c.2-.3.4-.1.1-.8-.3-.7,0-.6,0-.9s-.1-.5-.1-.7.2,0,0-.3-.2-.3-.4-.5c-.1-.3.3-.7.1-.9s0-.5-.5-.4c-.5,0-.9-.2-.9-.4s.5-.6.2-.8c-.3-.3-.4-.5-.8-.6-.3-.1-.6-.1-.5-.5.1-.4.3-.8,0-.9s-.4-.9-.4-.9c0,0,0,1,0,1.2s-.5-.5-.6-.2,0,.5-.2.5-.5,0-.4.2c.1.2.9.4,1,.5.1.1.3,1,.5,1.1s0,.8-.3.8c-.4,0-.9-.3-1.1-.3s-.4.3-.8.3-.5-.3-.5-.5-.4-.3-.4-.1-.3.3-.3.4.5.6.6.6.4-.1.6,0,1.2.1,1.2.1c.2.3.5.4.4.6-.1.2-.3.3-.8.1-.5-.1-.8-.6-.7-.3s.5.7.2.7c-.3,0-.5-.5-.5-.3,0,.3-.1.4-.4.4-.2,0-.4.2-.7.2s-.6,0-.7.2c-.1.1-.3.4-.3.5,0,.2.6-.2,1-.3s.5,0,.9-.1c.4-.2.3-.3.6-.1.3.2.3.3.5.3s.5.2.6.4c0,.3,0,.5-.3.5s-.8.2-.7.4c.1.2-.1,0-.5,0s-.7,0-.9,0c-.2,0-.5.4-.5.2s-.3-.7-.3-.7c0,0,0-.3-.1-.3-.2,0-.3.4-.3.6s-.3.8-.3,1-.5,0-.5.1c0,.1.4.8.1.9-.3.1-.6-.3-.8,0s-.2.8-.2.8h.3c-.4.5.2.6.2.6,0,0,.5.3.7.4s.4,0,.5,0,.3-.3.5-.2c.2.1.2-.1.5-.1s.3,0,.5-.1c.2-.1,0-.4,0-.6s-.5-.1-1.1-.1-.4-.1-.5-.2c0-.1,0-.3.3-.5.4-.5.7-.6.9-.5.2,0,.7.3,1.1.4.4,0,.4,0,.8,0,.5,0,.7.2.6.3s0,.1-.4.2-.7-.1-.7.1.5.4.8.4,1.2-.1,1.5-.1c.3,0,.5.1.4.3s0,.3-.4.3-.7-.2-1-.1c-.4,0-.2.3-.5.4s-.4-.2-.6-.4c-.2-.2-.5-.4-.5-.4,0,0-.3-.3-.3,0s.5.7.5.7c0,0,.5.6.5.7s0,.4-.6.4c-.5,0-.9-.3-1.2-.1s-1,0-1.1.3c-.1.3.2,1.3.2,1.3h.5s1.1.3,1.1.3l.4.4h1.2c0-.1.6.5.6.5l1-.5,1.3-.9.2-.4.6-.5.6-.8s.5,0,.6-.4c.1-.3,0-.7-.2-.8ZM91.3,39.4c.2-.1.7,0,.9,0,.3,0,.4-.1.6-.1s.3.3.3.3c-.3.3-.7.4-.9.8-.2.3-.8,0-.8,0,0,0-.3-.8-.1-.9ZM93.4,41.4c-.3.2-.6.2-.8.3s-.5.1-.7,0c-.2-.1-.7-.3-.7-.3,0,0,.3-.4.6-.3.3,0,1.2,0,1.2,0,0,0,.7.1.4.3ZM93.8,40c-.2.2-.3.7-.5.7-.2,0-.3-.1-.2-.4.1-.3.4-.8.3-.9s0-.3-.3-.4c-.2,0-.6.1-.5-.3v-.4c.1,0,.2.2.4.3.2.1.3-.3.4,0,.1.2.3.6.4.8s.1.6,0,.8Z"/>
          <g>
            <path class="cls-20" d="M63,52.6s-.9-.4-1-.1c0,.1.3.2.5.4.2.2,0,.4,0,.4,0,.3.4,0,.5.2.2.2.5.4.5.4,0,0,.3-.4.5-.2.2.2,0,.4.2.4.8.1.8-.5,1-.4.1.1.7-.6.7-.3,0,.3.7-.4.7-.4,0,0,0-.3-.2-.2-.2,0,.2-.5.4-.3.2.2.2-.3,0-.6-.2-.3-.7-.5-.7-.5l-.8.6-1.4.4h-1Z"/>
            <path class="cls-16" d="M62,50.5c-.1,0-.2.4,0,.5,0,.1-.3.3-.3.4,0,.3.4.4.4.4,0,0-.4.1-.4.3,0,.2.2.4.4.5.2.2.4-.4.9.2.5.6,1.3.2,1.3.2l1.2.2c.7.1.6-.1.5-.4,0-.2,0-.3,0-.3,0,0,.2,0,.2-.1,0-.1-.2-.2,0-.3.3-.1.3-.4.3-.5,0,0-.2-.1-.2-.2,0-.2,0-.2,0-.3.1-.2-.5-.2-.5-.2,0,0,0-.2,0-.2,0,0,0-.1,0-.1,0,0,.2,0,.2-.1,0-.4-.3-.2-.3-.2h0c0-.1.2-.1,0-.5-.2-.3-.5,0-.5.1,0,.1-.3-.5-.4-.6-.1,0-.2,0-.2,0,0,0-.1-.3-.3-.4-.1,0-.4.2-.4.2,0,0-.3-.1-.5-.1-.2,0-.5.3-.4.3,0,0,0,.2,0,.2s-.3,0-.3.1c0,0,.2.1.2.1,0,0-.3,0-.6.3-.1.1,0,.3,0,.3h0Z"/>
            <path class="cls-10" d="M61.8,52.1c-.2,0-.2.4-.1.4,0,0,.2,0,.2.1,0,.2.3.1.3.1h.1c0,.1,0,.5.2.4.2-.1,0-.2.1-.2,0,0,.2,0,.2,0h0c0,.1-.1.2.2.2.3,0-.1-.2.2,0,.2,0,0,.2,0,.2,0,0,.6.2.7,0,0-.2,0-.2.2-.1.2,0,0,0,0,0l.2.2s0,0,.3.1c.3,0,.2-.2.2-.2h.2c0,0,.1.4.4.1.3-.3.2-.1.2-.1,0,0,.3,0,.3-.1,0-.2,0-.3,0-.3v-.3c0,0,.2-.1.2-.1,0,0,0,0,0-.1,0-.1-.2-.1-.1-.3,0,0,.2.2.3-.1,0-.2.1,0,0-.2-.1-.2-.2-.2-.2-.2,0,0,.2,0,0-.2-.1-.3-.2-.3-.2-.3h-.2v-.2c-.1,0-.4.4-.4.4h0s.3.4.3.4v.5s-.1,0-.1,0c0,0-.1.1,0,.4,0,.2.3.3.1.4-.2,0-.2,0-.3,0s-.3-.3-.4-.2c0,0-.7.3-.7.2,0,0-.2-.2-.3-.2s-.3.1-.3.1l-.6-.3s-.3-.2-.3-.2-.3,0-.3,0h-.2s0-.2-.2-.2Z"/>
            <path class="cls-6" d="M63.5,50.2s-.3,0-.3.2c0,.1,0,.3,0,.4,0,0-.3,0-.3,0s-.4,0-.3,0c0,0-.1.3-.2.3s-.2,0-.2,0c0,0-.2,0-.1.1,0,0,.1.4.1.4,0,0,.4,0,.4,0,0-.1-.3-.2,0-.3.2-.1.2,0,.4-.1.2-.1.1-.2.2-.2,0,0,.2,0,.3,0s.2,0,.3,0c0-.1.1,0,0-.3,0-.2.2-.3.2-.3h0c0,0,0-.2,0-.2,0,0,.2,0,.2-.2,0-.2-.1-.4-.1-.4h-.3s0,0,0,.2c0,.2-.2.4-.2.4Z"/>
          </g>
          <g>
            <path class="cls-20" d="M68.2,51.1s-1.1-.4-1.2-.2c0,.1.4.2.6.5.3.3,0,.5,0,.5,0,.3.5,0,.7.3.2.3.6.5.6.5,0,0,.3-.4.6-.2.2.2,0,.5.3.5.9.2,1-.6,1.1-.5.2.1.9-.7.8-.4,0,.3.8-.5.8-.5,0,0,0-.3-.3-.2-.3.1.2-.6.4-.3.2.3.2-.4,0-.7-.2-.3-.9-.6-.9-.6l-.9.8-1.7.5h-1.2Z"/>
            <path class="cls-16" d="M67,48.5c-.1,0-.2.4,0,.6.1.1-.3.3-.3.5,0,.4.5.4.5.4,0,0-.5.2-.5.3,0,.2.3.5.5.6.3.2.4-.4,1,.2.6.7,1.5.3,1.5.3l1.5.2c.9.1.7-.2.6-.4,0-.2,0-.4,0-.4,0,0,.2,0,.3-.1,0-.1-.2-.3-.1-.3.3-.1.3-.5.3-.5,0-.1-.2-.1-.2-.3,0-.2,0-.2,0-.3.1-.3-.6-.3-.6-.3,0,0,0-.2,0-.3,0,0,0-.1,0-.1,0,0,.2,0,.2-.1,0-.4-.3-.2-.3-.2v-.2c-.1,0,.1,0,0-.4-.2-.4-.6,0-.6.2,0,.1-.3-.6-.5-.7-.2,0-.2,0-.2,0,0,0-.1-.4-.3-.5-.2,0-.5.2-.5.2,0,0-.4-.1-.6-.2-.3,0-.6.3-.5.4,0,0,0,.2-.1.2s-.4,0-.3.2c0,0,.2.1.2.1,0,0-.4,0-.7.3-.1.1,0,.4,0,.4h0Z"/>
            <path class="cls-10" d="M66.8,50.4c-.3,0-.2.4-.1.5,0,0,.2,0,.3.2,0,.2.3.2.3.2h.2c0,.1,0,.6.3.5.2-.1,0-.3.2-.3,0,0,.2.1.2.1h0c0,.1-.1.3.2.2.3,0-.1-.2.3,0,.2,0,0,.2,0,.2,0,0,.7.2.8,0,0-.2,0-.3.2-.2.3.1.1,0,.1,0l.2.2s0,.1.3.1c.4,0,.2-.2.2-.2h.2c0,.1.1.4.5.1.4-.3.3-.1.3-.1,0,0,.3,0,.3-.2,0-.3-.1-.3-.1-.3v-.3c0,0,.2-.2.2-.2,0,0,.1,0,0-.2-.1-.2-.3-.2-.1-.3,0-.1.3.3.3-.2,0-.3.1,0,0-.3-.2-.2-.3-.3-.3-.3,0,0,.2.1,0-.2-.2-.3-.3-.3-.3-.3h-.3l-.2-.2-.3.5h0c0,0,.3.5.3.5v.6c0,0-.2,0-.2,0,0,0-.2.2,0,.4,0,.3.4.4.2.5-.2,0-.2,0-.4,0s-.4-.3-.5-.3c-.1,0-.8.3-.9.3,0,0-.2-.3-.3-.3s-.3.1-.3.1l-.7-.3s-.3-.3-.4-.3-.4,0-.4,0h-.3s0-.2-.3-.2Z"/>
            <path class="cls-6" d="M68.8,48.1s-.4,0-.4.2c0,.2,0,.4,0,.5,0,0-.4,0-.4,0s-.5,0-.4.1c0,.1-.2.3-.2.3s-.3,0-.3,0c0,0-.2.1-.2.2,0,0,.2.5.2.5,0,0,.5,0,.4,0,0-.1-.4-.2-.1-.3.3-.1.2,0,.4-.1.2-.2.1-.2.3-.3.1,0,.3,0,.3,0s.3.1.3,0c0-.2.2,0,.1-.4,0-.3.2-.4.2-.4h.1c0,0,0-.3,0-.3,0,0,.3,0,.2-.3,0-.2-.2-.4-.2-.4h-.3s0,0,0,.2c0,.3-.3.4-.3.4Z"/>
          </g>
          <g>
            <path class="cls-20" d="M57.9,58.4s-1.4-.6-1.5-.2c0,.2.5.2.8.6.3.3,0,.6,0,.7,0,.4.6,0,.8.3.3.4.7.6.8.6.1,0,.4-.5.7-.3.3.3,0,.6.4.6,1.2.2,1.3-.8,1.5-.6.2.2,1.1-1,1.1-.5,0,.4,1.1-.6,1.1-.6,0,0,0-.4-.3-.3-.4.1.3-.8.5-.4.2.4.3-.5,0-.9-.3-.4-1.1-.8-1.1-.8l-1.2,1-2.1.6-1.5.2Z"/>
            <path class="cls-16" d="M56.4,55c-.2.1-.2.5,0,.8.1.2-.4.4-.4.7,0,.5.6.5.6.5,0,0-.6.2-.7.4,0,.3.4.6.6.8.4.3.6-.6,1.3.3.8.8,2,.4,2,.4l1.9.3c1.1.2.9-.2.8-.6,0-.3,0-.5,0-.5,0,0,.3,0,.3-.2,0-.2-.2-.3-.1-.4.4-.2.4-.6.4-.7,0-.1-.3-.2-.3-.4,0-.3,0-.3,0-.4.2-.4-.8-.4-.8-.4,0,0,0-.3,0-.4,0,0,0-.2,0-.2,0,0,.2,0,.2-.2,0-.5-.4-.3-.4-.3v-.2c-.1,0,.1,0-.1-.5-.3-.5-.7,0-.8.2,0,.2-.4-.7-.6-.9-.2-.1-.2,0-.3,0,0,0-.2-.5-.4-.6-.2,0-.6.2-.6.3,0,0-.5-.2-.8-.2-.3,0-.7.4-.6.5,0,0,0,.3-.1.3s-.5.1-.4.2c.1.1.3.2.3.2,0,0-.5,0-.9.4-.2.2,0,.5,0,.5h0Z"/>
            <path class="cls-10" d="M56.1,57.5c-.4,0-.2.6-.2.6,0,0,.3,0,.3.2,0,.3.4.2.4.2l.2.2s0,.7.3.5c.2-.2.1-.4.2-.4,0,0,.2.1.2.1v.2c0,0,0,.2.3.1.4,0-.2-.3.4,0,.2,0,0,.2,0,.2,0,0,.9.3,1,0,.1-.3,0-.3.3-.2.3.1.1,0,.1,0l.2.3s0,.2.4.2c.5,0,.3-.3.3-.3h.3c0,.1.2.5.7.2.5-.4.3-.2.3-.2,0,0,.4.1.4-.2,0-.3-.1-.4-.1-.4v-.4c-.1,0,.3-.2.3-.2,0,0,.1,0,0-.2-.2-.2-.4-.2-.2-.4.1-.1.3.4.4-.2,0-.4.2,0,0-.4-.2-.3-.3-.4-.3-.4,0,0,.2.1,0-.2-.2-.4-.3-.4-.3-.4h-.4l-.2-.3-.4.6h0c0,0,.4.6.4.6v.8c0,0-.2,0-.2,0,0,0-.2.2-.1.6.1.3.5.5.2.6-.3,0-.3-.1-.4-.1s-.4-.4-.6-.4c-.1,0-1,.4-1.1.4,0,0-.2-.4-.4-.4s-.4.2-.4.2l-.9-.4s-.4-.4-.4-.4-.4,0-.4,0h-.3s0-.2-.3-.3Z"/>
            <path class="cls-6" d="M58.7,54.6s-.5,0-.5.3c0,.2,0,.5,0,.6,0,.1-.5,0-.5,0s-.6,0-.5.1c0,.1-.2.4-.3.4s-.3,0-.3,0c0,0-.2.1-.2.2,0,0,.2.6.2.6,0,0,.6.1.5,0,0-.2-.5-.3-.1-.4.3-.2.3,0,.5-.2.3-.2.2-.3.3-.4.1,0,.3,0,.4,0s.4.1.4,0c0-.2.2-.1.1-.5,0-.3.2-.5.2-.5h.1c0-.1,0-.3,0-.3,0,0,.4,0,.3-.3-.1-.2-.2-.5-.2-.5h-.4s0,0,.1.3c0,.3-.4.5-.4.5Z"/>
          </g>
          <g>
            <path class="cls-20" d="M91.6,31.5s-.7-.3-.7,0c0,0,.2.1.4.3.2.2,0,.3,0,.3,0,.2.3,0,.4.2.1.2.3.3.4.3,0,0,.2-.3.3-.1.1.1,0,.3.2.3.5,0,.6-.4.7-.3,0,0,.5-.4.5-.2,0,.2.5-.3.5-.3,0,0,0-.2-.1-.1-.2,0,.1-.4.3-.2.1.2.1-.2,0-.4-.1-.2-.5-.4-.5-.4l-.5.5-1,.3h-.7Z"/>
            <path class="cls-16" d="M90.8,30c0,0-.1.3,0,.4,0,0-.2.2-.2.3,0,.2.3.3.3.3,0,0-.3,0-.3.2,0,.1.2.3.3.4.2.1.3-.3.6.1.4.4.9.2.9.2h.9c.5.2.4,0,.4-.1,0-.1,0-.2,0-.2,0,0,.1,0,.2,0,0,0-.1-.2,0-.2.2,0,.2-.3.2-.3,0,0-.1,0-.1-.2,0-.1,0-.1,0-.2,0-.2-.4-.2-.4-.2,0,0,0-.1,0-.2,0,0,0,0,0,0,0,0,.1,0,.1,0,0-.3-.2-.1-.2-.1h0c0,0,.1,0,0-.3-.1-.2-.3,0-.4,0,0,0-.2-.4-.3-.4,0,0-.1,0-.1,0,0,0,0-.2-.2-.3,0,0-.3.1-.3.1,0,0-.2,0-.4,0-.2,0-.3.2-.3.2,0,0,0,.1,0,.1s-.2,0-.2,0c0,0,.1,0,.1,0,0,0-.2,0-.4.2,0,0,0,.2,0,.2h0Z"/>
            <path class="cls-10" d="M90.7,31.1c-.2,0-.1.3,0,.3,0,0,.1,0,.2.1,0,.1.2,0,.2,0h0c0,0,0,.4.2.3.1,0,0-.2,0-.2,0,0,.1,0,.1,0h0c0,0,0,.1.1.1.2,0,0-.1.2,0,.1,0,0,.1,0,.1,0,0,.4.1.5,0,0-.1,0-.2.1,0,.2,0,0,0,0,0h.1c0,.1,0,.2.2.2.2,0,.1-.1.1-.1h.1c0,0,0,.3.3,0,.2-.2.2,0,.2,0,0,0,.2,0,.2-.1,0-.2,0-.2,0-.2v-.2s.1,0,.1,0c0,0,0,0,0,0,0,0-.2-.1,0-.2,0,0,.2.2.2,0,0-.2,0,0,0-.2,0-.1-.2-.2-.2-.2,0,0,.1,0,0-.1,0-.2-.2-.2-.2-.2h-.3c0-.1-.2.2-.2.2h0s.2.3.2.3v.4s-.1,0-.1,0c0,0-.1.1,0,.3,0,.2.2.3,0,.3-.1,0-.1,0-.2,0s-.2-.2-.3-.2c0,0-.5.2-.5.2,0,0-.1-.2-.2-.2s-.2,0-.2,0l-.4-.2s-.2-.2-.2-.2-.2,0-.2,0h-.2s0-.1-.2-.1Z"/>
            <path class="cls-6" d="M91.9,29.8s-.2,0-.2.1c0,.1,0,.2,0,.3,0,0-.2,0-.2,0s-.3,0-.2,0c0,0-.1.2-.1.2s-.2,0-.2,0c0,0-.1,0-.1.1,0,0,.1.3.1.3,0,0,.3,0,.3,0,0,0-.2-.1,0-.2.2,0,.1,0,.3,0,.1-.1,0-.1.2-.2,0,0,.2,0,.2,0s.2,0,.2,0c0,0,.1,0,0-.2,0-.2.1-.2.1-.2h0c0,0,0-.2,0-.2,0,0,.2,0,.1-.2,0-.1,0-.3,0-.3h-.2s0,0,0,.1c0,.2-.2.3-.2.3Z"/>
          </g>
          <g>
            <path class="cls-15" d="M81.9,35.5s.3.8.3,1,0,.8,0,.9,0,1.6,0,1.6c0,0,.3.2.4.2s.2-.4.2-.4c0,0-.1-2,0-2.2s.6-1.5.6-1.5h-.3c0,0-.2,1-.3,1.1s-.2-1-.2-1h-.2c0,0,0,.4.1.6s.1.5,0,.5-.4-1-.4-1l-.2.3Z"/>
            <path class="cls-13" d="M79.8,33.2s0-.2,0-.3-.2-.2,0-.3.2,0,.3-.2,0-.3.2-.4.4-.3.2-.4-.2-.2-.1-.3,0-.1,0-.3,0-.3,0-.4.3-.6.4-.6.2.2.3.2,0-.4.2-.5.2.1.3-.2-.3-.3,0-.4.4-.1.5,0,.2,0,.1-.1-.3,0-.3-.2,0-.2.2-.3.4-.6.4-.7,0-1,.1-.8.3,1.3.4,1.4.1.1.1.3-.2.6-.2.6l.5,1.4.3-.2.4.3.2.8-.2.5-.5,1.9-2.5.5-1.4-1.2Z"/>
            <path class="cls-9" d="M82.2,35.2s0,.2-.2.3-.4.2-.4,0,.1-.3,0-.4,0-.3-.2-.2-.2.2-.2.2c0,0,0,0-.1,0s0,0-.2,0-.3-.1-.2-.2,0-.2-.1-.2-.4,0-.5-.2,0-.4,0-.6,0-.3,0-.3c0,0-.3-.1-.4-.2s0-.2,0-.2c0,0,0,.1.1.2s.4.3.5.3.6.1.6.2-.2.2,0,.2.4,0,.3.1-.3.3-.3.4,0,.4.3.3.4,0,.5,0,.2.1.3.2,0,0,.3,0,.4,0,.5,0,.1.3.3.2.3-.2.4-.2.2-.1.2-.3,0-.4.2-.4.4,0,.6-.1,0-.3.1-.4.3-.2.3-.2c0,0,0,.2-.1.3s-.3.4-.3.5,0,.2-.2.3-.2.2-.4.3,0,.1-.2.1-.3.2-.5.3-.3.1-.4,0,.2-.2,0-.1-.4-.1-.4-.1Z"/>
            <path class="cls-21" d="M84.9,33.2c-.1,0,0-.2-.1-.3s-.3,0-.3-.1-.1-.3,0-.5c.1-.1.2,0,0-.4-.2-.3,0-.3,0-.4s0-.3,0-.3,0,0,0-.1-.1-.1-.2-.3c0-.1.1-.4,0-.4s0-.2-.3-.2c-.3,0-.4,0-.4-.2s.2-.3,0-.4c-.1-.1-.2-.3-.4-.3-.2,0-.3,0-.3-.2,0-.2.1-.4,0-.5s-.2-.5-.2-.5c0,0,0,.5,0,.6s-.3-.3-.3-.1,0,.2-.1.2-.2,0-.2,0c0,0,.4.2.5.3,0,0,.2.5.3.6s0,.4-.2.4c-.2,0-.4-.2-.6-.2s-.2.1-.4.1-.3-.1-.2-.2-.2-.1-.2,0-.2.1-.1.2.3.3.3.3.2,0,.3,0,.6,0,.6,0c0,.1.3.2.2.3,0,.1-.2.1-.4,0-.2,0-.4-.3-.4-.2s.2.3,0,.3c-.1,0-.2-.3-.3-.1,0,.1,0,.2-.2.2-.1,0-.2,0-.4.1s-.3,0-.3,0c0,0-.2.2-.1.3,0,0,.3-.1.5-.1s.3,0,.5,0c.2,0,.1-.2.3,0,.2,0,.1.1.3.1s.3,0,.3.2c0,.1,0,.3-.1.3s-.4,0-.4.2c0,0,0,0-.3,0s-.4,0-.4,0c0,0-.2.2-.3.1s-.1-.4-.1-.4c0,0,0-.2,0-.1,0,0-.2.2-.2.3s-.1.4-.1.5-.2,0-.3,0c0,0,.2.4,0,.4-.1,0-.3-.1-.4,0s0,.4,0,.4h.2c-.2.3.1.3.1.3,0,0,.2.1.3.2s.2,0,.3,0,.2-.1.3,0c.1,0,0,0,.2,0s.2,0,.3,0c.1,0,0-.2,0-.3s-.3,0-.5,0-.2,0-.2-.1c0,0,0-.1.1-.3.2-.2.3-.3.4-.3.1,0,.3.2.6.2.2,0,.2,0,.4,0,.2,0,.3.1.3.2s0,0-.2,0-.3,0-.3,0,.2.2.4.2.6,0,.8,0c.1,0,.3,0,.2.1s0,.2-.2.2-.3,0-.5,0c-.2,0-.1.2-.3.2s-.2-.1-.3-.2c0,0-.2-.2-.2-.2,0,0-.1-.1-.1,0s.2.4.2.4c0,0,.3.3.2.4s0,.2-.3.2c-.3,0-.4-.2-.6,0s-.5,0-.6.2c0,.1.1.6.1.6h.3s.6.1.6.1l.2.2h.6c0,0,.3.2.3.2l.5-.3.6-.4v-.2c.1,0,.4-.3.4-.3l.3-.4s.2,0,.3-.2c0-.2,0-.3,0-.4ZM82.9,31.2c0,0,.3,0,.5,0,.1,0,.2,0,.3,0s.2.1.2.1c-.1.1-.3.2-.4.4-.1.2-.4,0-.4,0,0,0-.1-.4,0-.4ZM83.9,32.2c-.2.1-.3.1-.4.2s-.2,0-.3,0c-.1,0-.4-.2-.4-.2,0,0,.2-.2.3-.2.1,0,.6,0,.6,0,0,0,.3,0,.2.2ZM84.2,31.5c0,.1-.2.3-.3.3,0,0-.2,0,0-.2,0-.1.2-.4.1-.5s0-.2-.1-.2c-.1,0-.3,0-.3-.2v-.2c0,0,.1.1.2.2,0,0,.2-.1.2,0,0,0,.1.3.2.4s0,.3,0,.4Z"/>
          </g>
          <g>
            <path class="cls-15" d="M87.8,54s-.8,2.4-1,3.1c-.2.6,0,2.5-.1,2.9s.1,1.4.1,1.4h-1.6c0,0,0-3.7-.1-4.3s-2-4.9-2-4.9l.9-.2s.8,3.5,1.1,3.8.7-3.2.7-3.2l.6-.3s-.2,1.7-.3,2.2-.3,1.5,0,1.6,1.3-3.2,1.3-3.2l.6,1.1Z"/>
            <path class="cls-13" d="M94.6,46.6s.2-.7.1-1,.5-.5,0-.8-.8-.2-1-.8,0-.9-.5-1.3c-.5-.4-1.2-.9-.8-1.3s.6-.6.4-1-.2-.4-.2-1,0-1.1-.2-1.2-.9-2.1-1.2-1.8-.6.7-1.1.7-.1-1.4-.6-1.6-.8.3-.8-.8c0-1.1.9-1,.3-1.3s-1.2-.3-1.6-.2-.6,0-.5-.5,1-.2,1-.7-.2-.8-.6-1-1.2-1.8-1.2-2.2c0-.3,0-1.5-.5-.9s-.6,2-.9,2.4-.9.7-.9,1.5c0,.8.6,1.8.6,1.8l-1.7,4.6-1.1-.5-1.2,1-.6,2.5.7,1.6,1.5,6,7.9,1.6,4.4-3.8Z"/>
            <path class="cls-9" d="M86.9,53.1s.1.5.6.8,1.3.5,1.3.1-.4-.9-.2-1.3.3-.9.7-.5.8.6.8.6c0,0,.2,0,.4-.2s.1,0,.6-.1.9-.4.7-.7-.2-.6.3-.8,1.4-.1,1.5-.8.2-1.4,0-1.8.1-.9.1-.9c0,0,.9-.4,1.2-.8s-.2-.7-.2-.7c0,0,.2.4-.5.6-.6.2-1.3.8-1.5.8s-2,.5-1.9.8.5.8,0,.8-1.4-.1-1,.3c.4.5,1,.9,1,1.3s-.3,1.2-.8,1.1-1.3-.3-1.5-.1-.7.5-.9.5-.3,0-.9,0-1.4-.2-1.5,0-.4,1-.9.6c-.5-.4-1-.6-1.3-.6s-.6-.3-.7-.8c-.1-.5-.3-1.2-.8-1.3s-1.4.2-1.8-.3-.2-1-.4-1.2-.8-.6-.8-.6c0,0,0,.7.3,1,.4.3.8,1.2.9,1.7s.2.8.6.9.7.6,1.4.9c.7.3.2.3.7.3s1,.6,1.6,1c.6.5,1,.4,1.2,0s-.5-.5.2-.4,1.4-.3,1.4-.3Z"/>
            <path class="cls-21" d="M78,48c.2.5,1,.6,1,.6l1,1.3.9.9.3.6,2.1,1.4,1.6.9.9-1,1.9.2.6-.6,1.8-.4h.8c0,0,.6-1.7.3-2.1-.2-.5-1.4-.2-1.8-.5s-1,.2-1.8.2c-.9,0-.8-.4-.9-.6s.8-1.2.8-1.2c0,0,.8-.8.8-1.2s-.5,0-.5,0c0,0-.5.3-.8.6-.3.3-.5.7-1,.6s-.2-.5-.8-.6c-.6-.1-1.1.2-1.7.2s-.5-.2-.6-.5.2-.4.7-.5c.5,0,1.9.2,2.4.2s1.3-.2,1.3-.6-.5-.1-1-.2-.5-.1-.7-.3.2-.6.9-.5c.8,0,.6.1,1.3,0,.7-.1,1.4-.5,1.8-.6.3-.1.8.1,1.4.9.3.4.4.6.4.8-.1.2-.4.4-.8.4-.9,0-1.7-.2-1.7.2s-.3.8,0,.9c.3.2.4.2.9.2s.4.4.8.2c.3-.2.6.2.9.3s.5.2.9.1,1.1-.6,1.1-.6c0,0,.9-.2.3-.8l.5-.2s0-.7-.3-1.2-.9.2-1.3,0c-.4-.2.3-1.2.2-1.4-.1-.2-.8,0-.9-.2s-.5-1.2-.5-1.6c0-.4-.2-.9-.5-1-.3-.1-.2.4-.2.4,0,0-.3.8-.4,1.2s-.6-.2-.9-.3c-.3-.1-.9,0-1.4,0s-1,.2-.8-.1c.2-.3-.8-.6-1.2-.6s-.6-.4-.5-.8c.1-.4.5-.8.9-.7s.3-.1.9-.4c.5-.3.3,0,1,.2.7.3.9.1,1.5.2s1.5.8,1.6.5c0-.3-.3-.6-.5-.9-.2-.2-.6-.2-1.1-.3s-.8-.2-1.2-.3c-.3-.1-.5-.2-.6-.7-.1-.5-.4.3-.9.4-.5,0,.2-.6.3-1s-.4.3-1.2.5c-.8.2-1,.2-1.3-.2-.2-.3.3-.5.6-.9,0,0,1.5-.1,1.9-.2s.8.2,1,.1.9-.7,1-1-.4-.4-.4-.7-.7-.2-.6.2-.2.7-.8.8-.9-.4-1.3-.4-1.2.4-1.8.5c-.6.1-.9-1-.5-1.2s.7-1.6.9-1.8c.2-.2,1.4-.5,1.6-.8.2-.3-.3-.3-.6-.3s-.2-.3-.3-.8-.9.6-1,.3,0-2,0-2c0,0-.3,1.2-.6,1.5s0,.9.1,1.5c.2.6-.3.6-.8.8-.5.2-.8.6-1.2,1-.5.4.3.9.3,1.3,0,.4-.6.8-1.4.7-.8,0-.6.5-.9.7s.4,1,.2,1.4c-.2.4-.4.5-.6.8s.1.2.1.4c0,.2-.3.6-.2,1s.5.3,0,1.4c-.5,1.1-.2.9.2,1.3.3.4.1,1.3,0,1.5s-.8,0-1.1.3-.1.6-.5.8-.5.8-.3,1.3ZM84.4,41.7s-1,.5-1.3,0c-.3-.5-1-.8-1.4-1.2,0,0,.3-.5.5-.4s.5.3.9.2c.4-.1,1.2-.2,1.5,0s-.2,1.4-.2,1.4ZM81.8,42.9s1.5,0,2,0c.5,0,1,.5,1,.5,0,0-.8.3-1.2.5-.3.2-.8.2-1.1,0s-.8-.2-1.3-.5c-.5-.3.6-.5.6-.5ZM80.5,39.9c.2-.3.5-.9.6-1.2.2-.3.4.3.7.1.3-.2.5-.5.5-.5l.2.7c.2.7-.5.4-.8.5-.3.1-.2.4-.5.6s.2,1.1.5,1.5c.2.4,0,.6-.3.6-.3,0-.5-.7-.8-1s-.2-1,0-1.3Z"/>
          </g>
          <g>
            <path class="cls-5" d="M99.7,55.1s-.8.5-.8.9c0,.5.5,7.5.5,7.5l-2-.4s.6-6.1.4-6.6-.8-2.2-.8-2.2l.4-.4s0,.8.4,1.1.5-1.1.5-1.1h.8s-.4.4-.4.9c0,0,.3.2.4.1s.2-.5.2-.5l.4.6Z"/>
            <path class="cls-6" d="M101.5,54.5s.2,0,.5.7.9.6,1.2.5-.4-1.4.3-1.6,1.1.8,1.6.3.3-1.1.2-1.5-.2-.9.5-1.2,1.2-.3,1.2-.5,1.1-.3.9-.8-1-.7-1.1-.9,1-.4.9-.8-.6-.8-.2-1.2,1.2-1.2,1.3-1.7-.2-1.1-.2-1.1c0,0,.4-1.4,0-1.7s-1.3-.5-1.5-.8,0-1.7,0-1.7c0,0-.7-.8-.7-1,0-.2.5-1.6-.5-2.4-1-.9-1.2-1.5-1.3-2s-.2-.2-.6-.9.9-.8.5-1.7-.5-1.6-1-1.7.2-.4-.5-.2c-.6.2-1.5.2-1.5,0,0-.3.2-1.6-.2-1.9s-.4-1.4-.7-1.7-.6.2-.9-.7-.6-1.1-.6-1.1c0,0,.5-.8,0-1.2s-.5-.9-.9-1.4c-.5-.5.7-1.6.2-1.9s-.4-1.4-.8-1.6c0,0-.5.1-.5.5s0,1.1,0,1.3-.6.9-.5,2.3c.2,1.4.2,1.3-.4,1.4s-1.5.6-1.5.9.6.7.6,1.2-.5.7-.3,1,.7.5.4.9-.8.2-.8.6c0,.4-.2.3-.5.6s0,.9-.1,1.1-.4-.5-.8-.4-.5.3-.7.7-.7,1.2-.5,1.5.3.2.5.5,0,0-.4.5-.4,1.8-.3,2-.1.7-.6.7-.7.3-.6.9.7,1,.2,1.7-.5.7-.5,1.2.4.8,0,1.1-1.2.4-1.1,1.2.5,1,.1,1.4-.4.4-.1.9.4.5-.1.7c-.5.3-.8,1.7-.4,2.2s1.1.4.8,1-.4,1-.3,1.2.9,0,1.1.4,0,.8.2,1.1,1.5,0,1.5,1,0,1,.4,1.1.9.2.9.7-.2.7.1.9.3.2,1.2.3c.9,0,1.4,0,1.5-.2l.2-.3s.7-.5,1.1-.2.4.4.8.2,1.1-.5,1.3-.2.3.7.5.7.8.2,1.1-.2.7-.5.7-.5Z"/>
            <g>
              <path class="cls-16" d="M103.1,48.7s-.5-.4-.5-.7-.3-.5-.5-.6-.7-.1-.6.2.3.4,0,.5-.7,0-.6-.3,0-.5-.1-.7-.2-.4-.2-.4c0,0-.3.9-.5.9s-.4,0-.4.2.3.5.3.8.1.6.3.7.5,0,.7.1.7.3.8.2.3-.6.4-.8.3,0,.4,0,.3,0,.5,0,0-.2,0-.2Z"/>
              <path class="cls-16" d="M98.7,48.7s.5-.7.2-.8-.5.2-.6.2-.3,0-.4,0-.3.3,0,.3.3,0,.4.2.2-.1.3-.2.2.3.2.3Z"/>
              <path class="cls-16" d="M97.4,48.6s-.1-.5-.3-.5-.7,0-.8,0-.5.1-.4.4.2.5,0,.6,0,.3-.3.3-.5-.2-.4,0,.7.2.7.3.4.2.4,0,0-.7.2-.7.8-.2.8-.2Z"/>
              <path class="cls-16" d="M100.3,50.7s-.2-.4-.3-.2-.2.4-.2.5-.3.4,0,.3.3-.5.3-.5Z"/>
              <path class="cls-16" d="M99.1,45.6s-.6-.5-.9-.4-1,0-1.1,0-.7-.2-.7-.2c0,0-.2-.4-.5-.4s-.2,1,0,1.1.5.3.8.4.4.3.8,0,.7-.3.9-.3.1.1.5,0,.3-.3.3-.3Z"/>
              <path class="cls-16" d="M102.6,44c0,0-1.4-.2-1.7-.4s-.9-.6-1.1-.6-.5-.4-.7-.1,0,.8.2,1.1,0,.6.4.6.5.2.8,0,.2-.4.6-.3,1,0,1.3,0,.5,0,.5,0,.8-.9,1-1,.3-.2.3-.7.2-.9,0-1.4-.1-.8-.5-.7-.7.2-1.1.6-1.2,1-1.1,1.1.6.5.7.6.2.2.3.3.5,0,.4.4-.4.5-.4.5Z"/>
              <path class="cls-16" d="M102.3,40.4s-.4-.1-.7-.2-.7-.5-.9-.2-.5.7-.7.7-.4,0-.6-.3.2-.3-.4-.3c-.7,0-.9,0-.9,0,0,0-.2.2-.1.3s1.2.2,1.2.5-.3.4,0,.5.4,0,.7.3.5.5.9.2.6-.4.9-.5.2-.2.5-.4.6-.2.4-.4l-.2-.2Z"/>
              <path class="cls-16" d="M92.8,42.5s-.4.1-.6.1-.5-.1-.6,0,0,.5.1.5.6.2.6.2c0,0,.1.6.4.5s.5-.3.4-.4-.3-1-.3-1Z"/>
              <path class="cls-16" d="M98.9,37.7s.3-.3.5-.4.3-.4.3-.5-.3-.8-.5-.5-.4.6-.7.5-.8.2-.8.4-.1.5-.1.5c0,0-.2.2-.3.2s-.4,0-.8,0-1.2.2-1.3.5.7.8.7.9.6.7,1,.6.7,0,.9-.3.6-.2.7-.3.3-.4.4-.6.3,0,0-.4-.2-.6-.2-.6Z"/>
              <path class="cls-16" d="M96.6,36s-.3-.5-.6-.3-.6.3-.9.2-.6-.3-.8-.1-.2.5-.1.7,0,.5.3.5.8.1,1.2-.1l.5-.3.5-.6Z"/>
              <path class="cls-16" d="M96.5,37.1s.3-.5.5-.5.3.2.2.3,0,.2-.1.3-.3,0-.5.1-.2.3-.3,0,.2-.3.2-.3Z"/>
              <path class="cls-16" d="M100.1,34.2s-.4-.5-.8-.4-.8.3-.9.4-.4.4-.3.5,1.1,0,1.1,0c0,0,1.2.3,1.3.3s.4,0,.2-.2-.3-.2-.3-.2-.2-.5-.2-.5Z"/>
              <path class="cls-16" d="M95.6,32.1s0-.7-.3-.4-.5.3-.9.3-.5-.2-.7-.1-.3.3-.4.5,0,.4.1.4.9-.3.9-.2.4.2.6,0,.5-.4.5-.4v-.2Z"/>
              <path class="cls-16" d="M99.5,30.8s-.6,0-.9-.2-.1,0-.1-.1c-.3-.4-.5-.7-.7-.9s-.9-.9-1.1-.9-.6,0-.6.3.6.5,1,.8.7.4.6.7-.2.5.2.5.6.5,1.1.3.7-.5.7-.5Z"/>
              <path class="cls-16" d="M101.4,35.3s-1-.5-.8-1,0-.8-.2-.9-1-.3-1-.3l-.4.3s.3.3-.4.2-.8.5-1.1.3-.3-.5-.2-.6.7-.8.7-.8l1.1-.6s.6,0,.9-.1.6-.2.9-.3.7,0,1-.1.5-1,.9-.4.9,1.2.8,1.5-.1.8-.3,1-.4.8-.3,1,.3.4,0,.8-.6.6-.8.7-.9-.5-.9-.5Z"/>
              <path class="cls-16" d="M100.1,30s.7-.7.4-1.1.1-.6.2-1.1-.2-.8-.2-.8c0,0-.5-.9-.8-1.1s-.5.2-.6-.2.8-.4.5-.9-.3-.8-.6-.9-.2-1.4-.6-1.4-.6-.6-.4-1.1c.2-.5.6-.6.2-.7-.4-.2-.3-1.5-.7-1.1s-.7,1.3-.7,1.3c0,0-.1.5-.1,1s-.7.7-.3,1.4c.4.7.6,1,.3,1.1s-.7,0-.8.3.4,1.2.4,1.2c0,0,.4,0,.8.4s0,0-.2.8.3.6.5,1.1.1.8.5,1,.4,0,1.3.5.8.3.8.3Z"/>
              <path class="cls-16" d="M93,43.5s-.2-1.1-.9-.9-.7.4-.5.6,1.2.5,1,.7.3.3.3.2.1-.6.1-.6Z"/>
              <path class="cls-16" d="M105.8,44.2l1-.3s.6-.7.8-.6.6.2.5.6-.3,1.1-.3,1.4.4.7.4.7c0,0-.8.2-1.1.3s-.8.2-.9-.2,1.4-.7.5-1.3l-.9-.6Z"/>
              <path class="cls-16" d="M104.7,45.3s-.6-.4-.7,0,.1.6.3.7.7.7.7.3-.3-.9-.3-.9Z"/>
              <path class="cls-16" d="M106,47.5c-.1-.2-.6-.4-.6-.4,0,0-.5.3-.5.5s.5.6.5.6h.6c0,.1,0-.7,0-.7Z"/>
              <path class="cls-16" d="M102.7,46l-.8-.3s-.5.4-.7.4-1.3.8-.7.6.9-.4,1.3-.3.8.1.8.1v-.5Z"/>
              <path class="cls-16" d="M106.4,41.4s-.2-.8-.5-.6-.4.5-.6.7-.5.7-.5.8.4.3.7,0,.9.4.9-.1-.2-.9-.2-.9Z"/>
              <path class="cls-16" d="M104.6,39.3s-.8.1-1,.1-.4-.5-.5-.3,0,.7,0,.7c0,0,.8-.2.9,0s.9.6.9.2-.3-.7-.3-.7Z"/>
              <path class="cls-16" d="M101.9,38.5s-.6,0-.8.2-1.2.5-.5.5c.7,0,1,.3,1.1.1s.1-.8.1-.8Z"/>
              <path class="cls-16" d="M104.6,37.9s-1.2-1-1.1-.5c.1.6.4.7.3.8s0,.5,0,.5l.7-.2.2-.7Z"/>
            </g>
            <path class="cls-10" d="M101.5,51.8s-.9-.8-1.1,0-2.3.2-2.2,0-.3.4-.6.5-.8-.3-1.1-.7-.9-.2-1.1-.2-1,0-1.6.2-.7-1.1-.7-1.1c0,0-.8-.9-1.3-.8s-.6-.9-1.2-1.4c-.6-.5-.8-.3-1-.2s-.8,1.3-.5,1.7,1.2-.2,1.1.4-.2.9.5,1.1c1.6.4.9,1.9,1.6,2.1,1.2.3.7.9,1.3,1.5s1.4.7,2.1.1.7-.4,1.1-.5,1.2.6,1.4-.2,1.2.6,1.6.9,1.6-.2,1.8-.6.2,1.8,1.6,1.2-.2-1.2,0-1.5-.2-.1.2,0,3,1.2,1.8-1.2.9-1.3.9-1.3c0,0,1.1-1.2-.6-1-.2,0-1.7,1-1.9,1.4s-2.1-.2-2.1-.2Z"/>
          </g>
          <path class="cls-19" d="M0,64.2s.6-1.7,6.1-3.4,63.9.5,66.7.5,14.1,0,19.5.9,6.8,1.3,9.7,2H0Z"/>
          <g id="ic_farm" data-name="ic farm">
            <g>
              <rect class="cls-3" x="55.7" y="4.6" width="17.1" height="56.9"/>
              <path class="cls-7" d="M55.9,4.3l-.2.3c-.9,1.2,17.9,1.2,17,0l-.3-.4c-4-5.7-12.6-5.6-16.6,0Z"/>
              <path class="cls-11" d="M55.7,12s1.4.6,8.5.6,8.5-.6,8.5-.6c0,0,.2,0,.2.2s-.2.3-.2.3c0,0-2.6.6-8.5.6s-8.5-.6-8.5-.6c0,0-.2,0-.2-.3s.2-.2.2-.2Z"/>
              <path class="cls-11" d="M55.7,20.2s1.4.6,8.5.6,8.5-.6,8.5-.6c0,0,.2,0,.2.2s-.2.3-.2.3c0,0-2.6.6-8.5.6s-8.5-.6-8.5-.6c0,0-.2,0-.2-.3s.2-.2.2-.2Z"/>
              <path class="cls-11" d="M55.7,28.4s1.4.6,8.5.6,8.5-.6,8.5-.6c0,0,.2,0,.2.2s-.2.3-.2.3c0,0-2.6.6-8.5.6s-8.5-.6-8.5-.6c0,0-.2,0-.2-.3s.2-.2.2-.2Z"/>
              <path class="cls-11" d="M55.7,36.7s1.4.6,8.5.6,8.5-.6,8.5-.6c0,0,.2,0,.2.2s-.2.3-.2.3c0,0-2.6.6-8.5.6s-8.5-.6-8.5-.6c0,0-.2,0-.2-.3s.2-.2.2-.2Z"/>
              <path class="cls-11" d="M55.7,44.9s1.4.6,8.5.6,8.5-.6,8.5-.6c0,0,.2,0,.2.2s-.2.3-.2.3c0,0-2.6.6-8.5.6s-8.5-.6-8.5-.6c0,0-.2,0-.2-.3s.2-.2.2-.2Z"/>
              <path class="cls-11" d="M55.7,53.1s1.4.6,8.5.6,8.5-.6,8.5-.6c0,0,.2,0,.2.2s-.2.3-.2.3c0,0-2.6.6-8.5.6s-8.5-.6-8.5-.6c0,0-.2,0-.2-.3s.2-.2.2-.2Z"/>
            </g>
            <polygon class="cls-1" points="3 41.2 6 41.2 6 38.1 15.3 18.9 33.9 11.7 52.8 18.9 61.9 38.1 61.9 41.2 65.1 41.2 54.1 17.7 33.9 10 13.9 17.7 3 41.2"/>
            <g>
              <polygon class="cls-14" points="5.8 61.3 5.8 38 15.2 18.7 34 11.4 53.1 18.7 62.3 38 62.3 61.3 5.8 61.3"/>
              <path class="cls-18" d="M34,11.7l18.9,7.2,9.1,19.2v22.9H6.1v-22.9l9.3-19.2,18.7-7.2M34,11.1h-.2c0,0-18.7,7.3-18.7,7.3h-.2c0,0,0,.3,0,.3l-9.3,19.2h0v23.7h56.9v-23.6h0c0-.1-9.1-19.3-9.1-19.3v-.2c0,0-.3,0-.3,0l-18.9-7.2h-.2c0,0,0,0,0,0Z"/>
            </g>
            <g>
              <polygon class="cls-17" points="62 59.5 15.3 59.5 6.1 59.5 6.1 59.8 15.3 59.8 62 59.8 62 59.5"/>
              <polygon class="cls-17" points="62 58.2 15.3 58.2 6.1 58.2 6.1 58.5 15.3 58.5 62 58.5 62 58.2"/>
              <polygon class="cls-17" points="62 56.9 15.3 56.9 6.1 56.9 6.1 57.2 15.3 57.2 62 57.2 62 56.9"/>
              <polygon class="cls-17" points="62 55.6 15.3 55.6 6.1 55.6 6.1 55.9 15.3 55.9 62 55.9 62 55.6"/>
              <polygon class="cls-17" points="62 54.2 15.3 54.2 6.1 54.2 6.1 54.5 15.3 54.5 62 54.5 62 54.2"/>
              <polygon class="cls-17" points="62 52.9 15.3 52.9 6.1 52.9 6.1 53.2 15.3 53.2 62 53.2 62 52.9"/>
              <polygon class="cls-17" points="62 51.6 15.3 51.6 6.1 51.6 6.1 51.9 15.3 51.9 62 51.9 62 51.6"/>
              <polygon class="cls-17" points="62 50.3 15.3 50.3 6.1 50.3 6.1 50.6 15.3 50.6 62 50.6 62 50.3"/>
              <polygon class="cls-17" points="62 48.9 15.3 48.9 6.1 48.9 6.1 49.2 15.3 49.2 62 49.2 62 48.9"/>
              <polygon class="cls-17" points="62 47.6 15.3 47.6 6.1 47.6 6.1 47.9 15.3 47.9 62 47.9 62 47.6"/>
              <polygon class="cls-17" points="62 46.3 15.3 46.3 6.1 46.3 6.1 46.6 15.3 46.6 62 46.6 62 46.3"/>
              <polygon class="cls-17" points="62 45 15.3 45 6.1 45 6.1 45.3 15.3 45.3 62 45.3 62 45"/>
              <polygon class="cls-17" points="62 43.6 15.3 43.6 6.1 43.6 6.1 43.9 15.3 43.9 62 43.9 62 43.6"/>
              <polygon class="cls-17" points="62 42.3 15.3 42.3 6.1 42.3 6.1 42.6 15.3 42.6 62 42.6 62 42.3"/>
              <polygon class="cls-17" points="62 41 15.3 41 6.1 41 6.1 41.3 15.3 41.3 62 41.3 62 41"/>
              <polygon class="cls-17" points="62 39.7 15.3 39.7 6.1 39.7 6.1 40 15.3 40 62 40 62 39.7"/>
              <polygon class="cls-17" points="62 38.4 15.3 38.4 6.1 38.4 6.1 38.7 15.3 38.7 62 38.7 62 38.4"/>
              <polygon class="cls-17" points="61.6 37.2 15.3 37.2 6.6 37.2 6.5 37.5 15.3 37.5 61.7 37.5 61.6 37.2"/>
              <polygon class="cls-17" points="61 35.9 15.3 35.9 7.1 35.9 7 36.2 15.3 36.2 61.1 36.2 61 35.9"/>
              <polygon class="cls-17" points="60.3 34.6 15.3 34.6 7.8 34.6 7.6 34.9 15.3 34.9 60.5 34.9 60.3 34.6"/>
              <polygon class="cls-17" points="59.7 33.3 15.3 33.3 8.4 33.3 8.3 33.6 15.3 33.6 59.9 33.6 59.7 33.3"/>
              <polygon class="cls-17" points="59.1 31.9 15.3 31.9 9.1 31.9 8.9 32.2 15.3 32.2 59.2 32.2 59.1 31.9"/>
              <polygon class="cls-17" points="58.5 30.6 15.3 30.6 9.7 30.6 9.6 30.9 15.3 30.9 58.6 30.9 58.5 30.6"/>
              <polygon class="cls-17" points="57.8 29.3 15.3 29.3 10.3 29.3 10.2 29.6 15.3 29.6 58 29.6 57.8 29.3"/>
              <polygon class="cls-17" points="57.2 28 15.3 28 11 28 10.8 28.3 15.3 28.3 57.4 28.3 57.2 28"/>
              <polygon class="cls-17" points="56.6 26.6 15.3 26.6 11.6 26.6 11.5 27 15.3 27 56.7 27 56.6 26.6"/>
              <polygon class="cls-17" points="56 25.3 15.3 25.3 12.3 25.3 12.1 25.6 15.3 25.6 56.1 25.6 56 25.3"/>
              <polygon class="cls-17" points="55.3 24 15.3 24 12.9 24 12.8 24.3 15.3 24.3 55.5 24.3 55.3 24"/>
              <polygon class="cls-17" points="54.7 22.7 15.3 22.7 13.5 22.7 13.4 23 15.3 23 54.9 23 54.7 22.7"/>
              <polygon class="cls-17" points="54.1 21.4 15.3 21.4 14.2 21.4 14 21.7 15.3 21.7 54.2 21.7 54.1 21.4"/>
              <polyline class="cls-17" points="16.6 20 15.3 20 14.8 20 14.7 20.3 15.3 20.3 16.6 20.3 53.6 20.3 53.5 20 16.6 20"/>
              <polyline class="cls-17" points="51.5 18.7 16.6 18.7 16.6 19 51.5 19"/>
              <polygon class="cls-17" points="48.9 17.4 19.3 17.4 18.5 17.7 49.7 17.7 48.9 17.4"/>
              <polygon class="cls-17" points="45.5 16.1 22.7 16.1 22 16.4 46.3 16.4 45.5 16.1"/>
              <polygon class="cls-17" points="42.3 14.8 25.9 14.8 25.1 15.1 43.1 15.1 42.3 14.8"/>
              <polygon class="cls-17" points="38.8 13.5 29.3 13.5 28.5 13.8 39.6 13.8 38.8 13.5"/>
              <polygon class="cls-17" points="35.4 12.2 32.7 12.2 31.9 12.5 36.2 12.5 35.4 12.2"/>
            </g>
            <polygon class="cls-18" points="3 41.2 13.9 17.7 33.9 10 54.1 17.7 65.1 41.2 66.9 41.2 55.3 16.2 33.9 8.4 12.9 16.2 1.3 41.2 3 41.2"/>
            <rect class="cls-18" x="33.4" y="39.5" width="1.4" height="21.6"/>
            <polygon class="cls-18" points="33.4 61 32.4 61 16.6 40.3 16.6 39.5 17.7 39.5 33.4 60.1 33.4 61"/>
            <polygon class="cls-18" points="51.6 61 50.6 61 34.8 40.3 34.8 39.5 35.8 39.5 51.6 60.1 51.6 61"/>
            <rect class="cls-18" x="16.6" y="38.1" width="34.8" height="1.3"/>
            <polygon class="cls-18" points="16.6 61 15.3 61 15.3 18.9 16.6 18.4 16.6 61"/>
            <polygon class="cls-18" points="52.8 61.1 51.5 61.1 51.5 18.3 52.8 18.8 52.8 61.1"/>
            <g>
              <path class="cls-2" d="M34.1,21.2c-1.8,0-3.2-1.4-3.2-3.2s1.4-3.2,3.2-3.2,3.2,1.4,3.2,3.2-1.4,3.2-3.2,3.2Z"/>
              <path class="cls-18" d="M34.1,15.1c1.6,0,3,1.3,3,2.9s-1.3,2.9-3,2.9-3-1.3-3-2.9,1.3-2.9,3-2.9M34.1,14.6c-1.9,0-3.5,1.5-3.5,3.4s1.6,3.4,3.5,3.4,3.5-1.5,3.5-3.4-1.6-3.4-3.5-3.4h0Z"/>
            </g>
            <g>
              <g>
                <rect class="cls-2" x="21.9" y="27.9" width="9.2" height="6.3"/>
                <path class="cls-18" d="M30.8,28.2v5.8h-8.7v-5.8h8.7M31.4,27.7h-9.7v6.8h9.7v-6.8h0Z"/>
              </g>
              <rect class="cls-18" x="26.1" y="28.2" width=".6" height="5.8"/>
              <rect class="cls-18" x="22.2" y="30.9" width="8.7" height=".5"/>
            </g>
            <g>
              <g>
                <rect class="cls-2" x="37.1" y="27.9" width="9.2" height="6.3"/>
                <path class="cls-18" d="M46.1,28.2v5.8h-8.7v-5.8h8.7M46.6,27.7h-9.7v6.8h9.7v-6.8h0Z"/>
              </g>
              <rect class="cls-18" x="41.3" y="28.2" width=".6" height="5.8"/>
              <rect class="cls-18" x="37.4" y="30.9" width="8.7" height=".5"/>
            </g>
            <path class="cls-11" d="M72.8,6.8h2.1c.4,0,.7.3.7.6v54.1h-1.4V8.4h-1.4s0-1.6,0-1.6Z"/>
          </g>
        </g>
      </g>
    </g>
  </g>
</svg>