<?xml version="1.0" encoding="UTF-8"?>
<svg id="Livello_1" data-name="Livello 1" xmlns="http://www.w3.org/2000/svg" version="1.1" viewBox="0 0 283.5 234.9">
  <defs>
    <style>
      .cls-1 {
        fill: #96c7e2;
      }

      .cls-1, .cls-2, .cls-3, .cls-4 {
        stroke-width: 0px;
      }

      .cls-2 {
        fill: #b3e0f4;
      }

      .cls-3 {
        fill: #5b798c;
      }

      .cls-4 {
        fill: #77a8c7;
      }
    </style>
  </defs>
  <g id="ic_farm" data-name="ic farm">
    <g>
      <rect class="cls-1" x="207.5" y="18.1" width="65.2" height="216.8"/>
      <path class="cls-2" d="M208.6,16.5l-.8,1.2c-3.5,4.6,68.3,4.6,65.2,0l-.8-1.5c-15.4-21.6-48.2-21.6-63.3,0l-.4.4Z"/>
      <path class="cls-4" d="M207.5,45.9s5.4,2.3,32.8,2.3,32.8-2.3,32.8-2.3c0,0,.8,0,.8.8s-.8,1.2-.8,1.2c0,0-10,2.3-32.8,2.3s-32.8-2.3-32.8-2.3c0,0-.8,0-.8-1.2s.8-.8.8-.8Z"/>
      <path class="cls-4" d="M207.5,77.5s5.4,2.3,32.8,2.3,32.8-2.3,32.8-2.3c0,0,.8,0,.8.8s-.8,1.2-.8,1.2c0,0-10,2.3-32.8,2.3s-32.8-2.3-32.8-2.3c0,0-.8,0-.8-1.2s.8-.8.8-.8Z"/>
      <path class="cls-4" d="M207.5,108.7s5.4,2.3,32.8,2.3,32.8-2.3,32.8-2.3c0,0,.8,0,.8.8s-.8,1.2-.8,1.2c0,0-10,2.3-32.8,2.3s-32.8-2.3-32.8-2.3c0,0-.8,0-.8-1.2s.8-.8.4-.8h.4Z"/>
      <path class="cls-4" d="M207.5,140.4s5.4,2.3,32.8,2.3,32.8-2.3,32.8-2.3c0,0,.8,0,.8.8s-.8,1.2-.8,1.2c0,0-10,2.3-32.8,2.3s-32.8-2.3-32.8-2.3c0,0-.8,0-.8-1.2s.8-.8.4-.8h.4Z"/>
      <path class="cls-4" d="M207.5,171.6s5.4,2.3,32.8,2.3,32.8-2.3,32.8-2.3c0,0,.8,0,.8.8s-.8,1.2-.8,1.2c0,0-10,2.3-32.8,2.3s-32.8-2.3-32.8-2.3c0,0-.8,0-.8-1.2s.8-.8.4-.8h.4Z"/>
      <path class="cls-4" d="M207.5,203.3s5.4,2.3,32.8,2.3,32.8-2.3,32.8-2.3c0,0,.8,0,.8.8s-.8,1.2-.8,1.2c0,0-10,2.3-32.8,2.3s-32.8-2.3-32.8-2.3c0,0-.8,0-.8-1.2s.8-.8.4-.8h.4Z"/>
    </g>
    <polygon class="cls-3" points="6 157.8 17.6 157.8 17.6 145.8 53.1 72.5 124.5 45.1 196.6 72.5 231.4 145.8 231.4 157.8 243.7 157.8 201.3 67.8 124.5 38.1 48.1 67.8 6 157.8"/>
    <g>
      <polygon class="cls-4" points="17.2 234.5 17.2 145.8 52.7 71.7 124.9 43.9 197.8 71.7 232.5 145.8 232.5 234.5 17.2 234.5"/>
      <path class="cls-2" d="M124.9,45.1l72.2,27.8,34.7,73.3v87.6H18v-87.6l35.5-73.3,71.4-27.8M124.9,42.8h-.8l-71.4,27.8h-.8v.8l-35.5,73.3h0v90.3h217.6v-89.9h0l-34.7-73.7v-.8h-1.2l-72.2-27.4h-.8l-.4-.4Z"/>
    </g>
    <g>
      <polygon class="cls-3" points="231.8 227.6 53.1 227.6 18 227.6 18 228.7 53.1 228.7 231.8 228.7 231.8 227.6"/>
      <polygon class="cls-3" points="231.8 222.6 53.1 222.6 18 222.6 18 223.7 53.1 223.7 231.8 223.7 231.8 222.6"/>
      <polygon class="cls-3" points="231.8 217.6 53.1 217.6 18 217.6 18 218.7 53.1 218.7 231.8 218.7 231.8 217.6"/>
      <polygon class="cls-3" points="231.8 212.5 53.1 212.5 18 212.5 18 213.7 53.1 213.7 231.8 213.7 231.8 212.5"/>
      <polygon class="cls-3" points="231.8 207.5 53.1 207.5 18 207.5 18 208.7 53.1 208.7 231.8 208.7 231.8 207.5"/>
      <polygon class="cls-3" points="231.8 202.5 53.1 202.5 18 202.5 18 203.7 53.1 203.7 231.8 203.7 231.8 202.5"/>
      <polygon class="cls-3" points="231.8 197.5 53.1 197.5 18 197.5 18 198.7 53.1 198.7 231.8 198.7 231.8 197.5"/>
      <polygon class="cls-3" points="231.8 192.5 53.1 192.5 18 192.5 18 193.6 53.1 193.6 231.8 193.6 231.8 192.5"/>
      <polygon class="cls-3" points="231.8 187.1 53.1 187.1 18 187.1 18 188.2 53.1 188.2 231.8 188.2 231.8 187.1"/>
      <polygon class="cls-3" points="231.8 182.1 53.1 182.1 18 182.1 18 183.2 53.1 183.2 231.8 183.2 231.8 182.1"/>
      <polygon class="cls-3" points="231.8 177 53.1 177 18 177 18 178.2 53.1 178.2 231.8 178.2 231.8 177"/>
      <polygon class="cls-3" points="231.8 172 53.1 172 18 172 18 173.2 53.1 173.2 231.8 173.2 231.8 172"/>
      <polygon class="cls-3" points="231.8 167 53.1 167 18 167 18 168.2 53.1 168.2 231.8 168.2 231.8 167"/>
      <polygon class="cls-3" points="231.8 162 53.1 162 18 162 18 163.2 53.1 163.2 231.8 163.2 231.8 162"/>
      <polygon class="cls-3" points="231.8 157 53.1 157 18 157 18 158.1 53.1 158.1 231.8 158.1 231.8 157"/>
      <polygon class="cls-3" points="231.8 152 53.1 152 18 152 18 153.1 53.1 153.1 231.8 153.1 231.8 152"/>
      <polygon class="cls-3" points="231.8 146.9 53.1 146.9 18 146.9 18 148.1 53.1 148.1 231.8 148.1 231.8 146.9"/>
      <polygon class="cls-3" points="230.2 142.7 53.1 142.7 19.9 142.7 19.5 143.9 53.1 143.9 230.6 143.9 230.2 142.7"/>
      <polygon class="cls-3" points="227.9 137.3 53.1 137.3 22.2 137.3 21.5 138.5 53.1 138.5 228.3 138.5 227.9 137.3"/>
      <polygon class="cls-3" points="225.2 132.3 53.1 132.3 24.6 132.3 24.2 133.4 53.1 133.4 226 133.4 225.2 132.3"/>
      <polygon class="cls-3" points="222.9 127.3 53.1 127.3 26.9 127.3 26.5 128.4 53.1 128.4 223.7 128.4 222.9 127.3"/>
      <polygon class="cls-3" points="220.6 122.3 53.1 122.3 29.6 122.3 28.8 123.4 53.1 123.4 221 123.4 220.6 122.3"/>
      <polygon class="cls-3" points="218.3 117.2 53.1 117.2 31.9 117.2 31.5 118.4 53.1 118.4 218.6 118.4 218.3 117.2"/>
      <polygon class="cls-3" points="215.9 112.2 53.1 112.2 34.2 112.2 33.8 113.4 53.1 113.4 216.3 113.4 215.9 112.2"/>
      <polygon class="cls-3" points="213.2 107.2 53.1 107.2 36.9 107.2 36.1 108.4 53.1 108.4 214 108.4 213.2 107.2"/>
      <polygon class="cls-3" points="210.9 102.2 53.1 102.2 39.2 102.2 38.8 103.3 53.1 103.3 211.7 103.3 210.9 102.2"/>
      <polygon class="cls-3" points="208.6 97.2 53.1 97.2 41.5 97.2 41.2 98.3 53.1 98.3 209 98.3 208.6 97.2"/>
      <polygon class="cls-3" points="206.3 92.2 53.1 92.2 44.2 92.2 43.5 93.3 53.1 93.3 206.7 93.3 206.3 92.2"/>
      <polygon class="cls-3" points="204 86.8 53.1 86.8 46.6 86.8 46.2 87.9 53.1 87.9 204.4 87.9 204 86.8"/>
      <polygon class="cls-3" points="201.3 81.7 53.1 81.7 48.9 81.7 48.5 82.9 53.1 82.9 202.1 82.9 201.3 81.7"/>
      <polyline class="cls-3" points="58.5 76.7 53.1 76.7 51.6 76.7 50.8 77.9 53.1 77.9 58.5 77.9 199.7 77.9 199 76.7 58.5 76.7"/>
      <polyline class="cls-3" points="191.6 71.7 58.5 71.7 58.5 72.9 191.6 72.9"/>
      <polygon class="cls-3" points="181.6 66.7 68.5 66.7 65.5 67.8 184.7 67.8 181.6 66.7"/>
      <polygon class="cls-3" points="168.5 61.7 81.7 61.7 78.6 62.8 171.6 62.8 168.5 61.7"/>
      <polygon class="cls-3" points="156.5 57 93.6 57 90.5 58.2 159.6 58.2 156.5 57"/>
      <polygon class="cls-3" points="143 52 106.7 52 103.7 53.2 146.1 53.2 143 52"/>
      <polygon class="cls-3" points="129.9 47 119.9 47 116.8 48.2 133 48.2 129.9 47"/>
    </g>
    <polygon class="cls-2" points="6 157.8 48.1 67.8 124.5 38.1 201.3 67.8 243.7 157.8 250.3 157.8 206.3 62.1 124.5 32.3 43.9 62.1 -.1 157.8 6 157.8"/>
    <rect class="cls-2" x="122.6" y="151.2" width="5" height="82.6"/>
    <polygon class="cls-2" points="122.6 233.4 118.7 233.4 58.5 154.3 58.5 151.2 62.4 151.2 122.6 229.9 122.6 233.4"/>
    <polygon class="cls-2" points="192 233.4 188.2 233.4 127.6 154.3 127.6 151.2 131.8 151.2 192 229.9 192 233.4"/>
    <rect class="cls-2" x="58.5" y="146.2" width="133.1" height="5"/>
    <polygon class="cls-2" points="58.5 233.4 53.1 233.4 53.1 72.5 58.5 70.5 58.5 233.4"/>
    <polygon class="cls-2" points="196.6 233.8 191.2 233.8 191.2 70.2 196.6 72.1 196.6 233.8"/>
    <g>
      <path class="cls-3" d="M125.3,81.4c-6.9,0-12.3-5.4-12.3-12s5.4-12,12.3-12,12.3,5.4,12.3,12-5.4,12-12.3,12Z"/>
      <path class="cls-2" d="M125.3,58.2c6.2,0,11.2,5,11.2,11.2s-5,11.2-11.2,11.2-11.2-5-11.2-11.2,5-11.2,11.2-11.2M125.3,56.3c-7.3,0-13.1,5.8-13.1,13.1s5.8,13.1,13.1,13.1,13.1-5.8,13.1-13.1-5.8-13.1-13.1-13.1h0Z"/>
    </g>
    <g>
      <g>
        <rect class="cls-3" x="78.6" y="106.8" width="35.1" height="23.9"/>
        <path class="cls-2" d="M112.5,108v22h-33.2v-22h33.2M114.5,106h-37v25.9h37v-25.9h0Z"/>
      </g>
      <rect class="cls-2" x="94.8" y="108" width="2.3" height="22"/>
      <rect class="cls-2" x="79.4" y="118" width="33.2" height="1.9"/>
    </g>
    <g>
      <g>
        <rect class="cls-3" x="136.5" y="106.8" width="35.1" height="23.9"/>
        <path class="cls-2" d="M170.8,108v22h-33.2v-22h33.2M172.7,106h-37v25.9h37v-25.9h0Z"/>
      </g>
      <rect class="cls-2" x="152.7" y="108" width="2.3" height="22"/>
      <rect class="cls-2" x="137.6" y="118" width="33.2" height="1.9"/>
    </g>
    <path class="cls-4" d="M272.7,26.6h8.1c1.5,0,2.7,1.2,2.7,2.3v206h-5.4V32.3h-5.4v-6.2.4Z"/>
  </g>
</svg>