<?xml version="1.0" encoding="UTF-8"?>
<svg id="Livello_1" data-name="Livello 1" xmlns="http://www.w3.org/2000/svg" version="1.1" viewBox="0 0 283.5 240">
  <defs>
    <style>
      .cls-1 {
        fill: #5aa9c9;
      }

      .cls-1, .cls-2, .cls-3, .cls-4, .cls-5, .cls-6, .cls-7, .cls-8, .cls-9, .cls-10, .cls-11, .cls-12 {
        stroke-width: 0px;
      }

      .cls-2 {
        fill: #d9d8d9;
      }

      .cls-3 {
        fill: none;
      }

      .cls-4 {
        fill: #3b8fcc;
      }

      .cls-5 {
        fill: #8abece;
      }

      .cls-6 {
        fill: #a6d6e8;
      }

      .cls-7 {
        fill: #9acad8;
      }

      .cls-8 {
        fill: #4a7a8d;
      }

      .cls-9 {
        fill: #dfdede;
      }

      .cls-10 {
        fill: #eeeeed;
      }

      .cls-11 {
        fill: #fff;
      }

      .cls-12 {
        fill: #82c1eb;
      }
    </style>
  </defs>
  <path class="cls-3" d="M134.8,67.3s-9.3-36.7-8.6-42.4,5-20.1,8.6-15.1,6.5,27.3,12.9,17.3c6.5-10.1,7.2-28,9.3-18.3,2.2,9.7,2.9,21.2,5.8,16.9s6.5-5.8,8.6-2.2c2.2,3.6,7.2,14.1,0,19.7-7.2,5.5-10.8,1.2-14.4,9.1-3.6,7.9-5,13.7-11.5,18.7s-10.8-3.6-10.8-3.6Z"/>
  <path class="cls-6" d="M.9,167s-2.9-17.3,6.5-23c9.3-5.8,0-22.3,7.2-25.9s9.3-2.9,12.9-18c3.6-15.1,5-17.3,10.8-18.7,5.8-1.4,16.5-19.4,26.6-18.7s18,2.9,22.3,5c4.3,2.2,27.3,13.7,33.8,15.1s13.7,5,15.1,12.9.7,15.1,5,19,10.1,14,10.8,23.4,7.2,25.9,0,28.8-9.3,2.9-12.2,7.9-1.4,5-13.7,8.6c-12.2,3.6-15.1,8.6-21.6,14.4s-5.8,3.6-12.9,7.9-14.4,12.2-28.8,13.7c-14.4,1.4-20.8,0-24.4-6.5s-2.2-9.3-12.2-15.8c-10.1-6.5-15.8-4.3-15.1-13.7.7-9.3-10.1-16.5-10.1-16.5Z"/>
  <path class="cls-7" d="M30,134c8.8,6.4,14.9,3.6,20.2,11.3s9,10.9,10.4,18.2,6.8,14.1,8.3,16.8.7,14.8-2.5,20.5-6.9,9.9-14.4,4.9c-7.5-4.9-12.7-14.9-18.9-17.9s-9.3,3.7-11.1-3.7-4.1-5.7-5.7-17.3c-1.7-11.6-2.7-17.6,0-21.9s13.8-11.1,13.8-11.1Z"/>
  <path class="cls-1" d="M16.2,149s10.3,2.5,6.1,9.2-4.3,12-2.6,13.1,2.9,2.8,3.6,4.2l.7,1.4s-2.8,2.5-3.9,0-5-7.3-3.9-9.9,0-12.1-1.7-11.6,1.7-6.4,1.7-6.4Z"/>
  <g>
    <path class="cls-1" d="M36.9,108.9c0,5.7-1.6,4.8-5.7,7.7s-1.1,7.2,2.2,6.6,6.6-6.3,6.6-7.6c0-3.2-2,.2,0-6.9,3-10.5,7.1-9.6,9.6-14.8,3.9-8.2-12.7,9.4-12.7,15.1Z"/>
    <path class="cls-1" d="M61.2,121s2.2,6.2,8.9,5.7c6.7-.5,9.2.8,11.1-1.3s8.6-11.7,10-9.5c1.3,2.2-1.3,8.4-5.7,8.9-4.3.5-5.9,5.4-9.1,5.8-3.3.4-5.7.1-9.2,0s-4.6-1.8-5.9-3.4,0-6.2,0-6.2Z"/>
    <path class="cls-1" d="M69.8,110.5s1.9.8,3,2.4,4.6,2.3,6.2,2.9c1.6.6,2.4-.3,4.9-2.7s3.2-4.5,5.1-5.7,3.9-.4,2.5-2.9-4.9-1.3-7.9-3.5,3.2-4,5.9-1.9c2.7,2.2,9.7.8,6.7,4.6s-8.6,11.7-10,11.8-5.9,5-10.2,3.3c-4.3-1.6-9.2-6.7-6.2-8.4Z"/>
    <path class="cls-1" d="M62,81.4s3.5-3.2,4.3-1.3-5.9,6.5-4.3,1.3Z"/>
    <path class="cls-1" d="M72.5,76s5.4-3.2,6.5,0-3,2.9-4.6,3.5-1.9-3.5-1.9-3.5Z"/>
    <path class="cls-1" d="M35,171.2s.5,7.8,5.1,12.4,6.1,8.4,10.1,9.2,12.1-3,11.6,0c-.6,3-2.7,4.6-6.5,4.6s-12-3.5-15.1-7c-3.2-3.5-10.5-14.6-5.1-19.2Z"/>
    <path class="cls-1" d="M79.2,174.4s2.9,10,0,9.8c-2.9-.1-4.5,2.9-4.8,3.7s-.5,10.7,1.6,8,1.2-7.4,3.1-8,2.1,1.3,3.8-1.4,2.1-11.3-3.8-12.1Z"/>
    <path class="cls-1" d="M66.4,200.8s1-5.2,4-4.9c3,.3,5.9,1.6,3.9,2.4s-7.8,2.5-7.8,2.5Z"/>
    <path class="cls-1" d="M44.4,200.8s7.3.3,11.9,0,9-3.5,10-5.9,3.7-9.6,4.3-7-4.6,13.4-8.9,14.8c-4.3,1.3-19.7.8-17.3-1.9Z"/>
  </g>
  <path class="cls-5" d="M91.5,189.7c10.4-17.8-3.5-29.4,0-35.3s9.5-15.3,16.5-17.5c6.9-2.2,14.8-13.2,18.2-16.4,3.4-3.2,7.2-17.6,14.9-5.7s23,44.2,10.8,52.1,1.4-.7-12.2,7.9c-13.7,8.6-24.8,4.8-30,13.9s-18.2,17-18.2,17v-16.1Z"/>
  <g>
    <rect class="cls-7" x="115.8" y="7.5" width="116.7" height="179" rx="16.8" ry="16.8" transform="translate(-17.4 41.7) rotate(-13)"/>
    <path class="cls-8" d="M194.6,168.8c.4,1.9-.7,3.9-2.8,4.3h0c-1.9.4-3.9-.7-4.3-2.8L153.8,24.8c-.4-1.9.7-3.9,2.8-4.3h0c1.9-.4,3.9.7,4.3,2.8l33.7,145.5Z"/>
    <g>
      <g>
        <g>
          <path class="cls-9" d="M149,40.5c1.8,8.5-3.5,16.8-12,18.6-8.5,1.8-16.8-3.5-18.6-11.9-1.8-8.5,3.5-16.8,11.9-18.6,8.5-1.8,16.8,3.5,18.6,11.9h.1Z"/>
          <path class="cls-11" d="M147.6,40c1.8,8.5-3.5,16.8-12,18.6s-16.8-3.5-18.6-11.9c-1.8-8.5,3.5-16.8,11.9-18.6,8.5-1.8,16.8,3.5,18.6,12h.1Z"/>
          <path class="cls-9" d="M136.3,51.9c.2,1.1-.5,2.2-1.6,2.6h0c-1.1.2-2.2-.5-2.6-1.6l-4-18c-.2-1.1.5-2.2,1.6-2.6h0c1.1-.2,2.2.5,2.6,1.6l4,18Z"/>
        </g>
        <g>
          <path class="cls-9" d="M203.7,27.8c1.8,8.5-3.5,16.8-11.9,18.6-8.5,1.8-16.8-3.5-18.6-11.9-1.8-8.5,3.5-16.8,11.9-18.6,8.5-1.8,16.8,3.5,18.6,11.9Z"/>
          <path class="cls-11" d="M202.1,27.4c1.8,8.5-3.5,16.8-12,18.6-8.5,1.8-16.8-3.5-18.6-11.9-1.8-8.5,3.5-16.8,12-18.6,8.5-1.8,16.8,3.5,18.6,12h0Z"/>
          <path class="cls-9" d="M191,39.3c.2,1.1-.5,2.2-1.6,2.6h0c-1.1.2-2.2-.5-2.6-1.6l-4-18c-.2-1.1.5-2.2,1.6-2.6h0c1.1-.2,2.2.5,2.6,1.6l4,18Z"/>
        </g>
      </g>
      <g>
        <g>
          <path class="cls-9" d="M158.2,80.1c1.8,8.5-3.5,16.8-12,18.6s-16.8-3.5-18.6-11.9c-1.8-8.5,3.5-16.8,12-18.6s16.8,3.5,18.6,12h0Z"/>
          <path class="cls-11" d="M156.8,79.8c1.8,8.5-3.5,16.8-12,18.6s-16.8-3.5-18.6-12c-1.8-8.5,3.5-16.8,12-18.6,8.5-1.8,16.8,3.5,18.6,11.9h0Z"/>
          <path class="cls-9" d="M145.5,91.7c.2,1.1-.5,2.2-1.6,2.6h0c-1.1.2-2.2-.5-2.6-1.6l-4-18c-.2-1.1.5-2.2,1.6-2.6h0c1.1-.2,2.2.5,2.6,1.6l4,18Z"/>
        </g>
        <g>
          <path class="cls-9" d="M212.9,67.5c1.8,8.5-3.5,16.8-12,18.6s-16.8-3.5-18.6-11.9c-1.8-8.5,3.5-16.8,11.9-18.6,8.5-1.8,16.8,3.5,18.6,12h.1Z"/>
          <path class="cls-11" d="M211.3,67.1c1.8,8.5-3.5,16.8-12,18.6-8.5,1.8-16.8-3.5-18.6-12-1.8-8.5,3.5-16.8,12-18.6,8.5-1.8,16.8,3.5,18.6,11.9h0Z"/>
          <path class="cls-9" d="M200.2,79c.2,1.1-.5,2.2-1.6,2.6h0c-1.1.2-2.2-.5-2.6-1.6l-4-18c-.2-1.1.5-2.2,1.6-2.6h0c1.1-.2,2.2.5,2.6,1.6l4,18Z"/>
        </g>
      </g>
      <g>
        <g>
          <path class="cls-9" d="M167.4,119.9c1.8,8.5-3.5,16.8-12,18.6-8.5,1.8-16.8-3.5-18.6-12s3.5-16.8,12-18.6c8.5-1.8,16.8,3.5,18.6,11.9h0Z"/>
          <path class="cls-11" d="M166,119.4c1.8,8.5-3.5,16.8-11.9,18.6-8.5,1.8-16.8-3.5-18.6-11.9-1.8-8.5,3.5-16.8,11.9-18.6,8.5-1.8,16.8,3.5,18.6,11.9Z"/>
          <path class="cls-9" d="M154.7,131.4c.2,1.1-.5,2.2-1.6,2.6h0c-1.1.2-2.2-.5-2.6-1.6l-4-18c-.2-1.1.5-2.2,1.6-2.6h0c1.1-.2,2.2.5,2.6,1.6l4,18Z"/>
        </g>
        <g>
          <path class="cls-9" d="M222.1,107.3c1.8,8.5-3.5,16.8-11.9,18.6-8.5,1.8-16.8-3.5-18.6-12-1.8-8.5,3.5-16.8,11.9-18.6,8.5-1.8,16.8,3.5,18.6,11.9h0Z"/>
          <path class="cls-11" d="M220.5,106.9c1.8,8.5-3.5,16.8-12,18.6s-16.8-3.5-18.6-11.9c-1.8-8.5,3.5-16.8,12-18.6,8.5-1.8,16.8,3.5,18.6,11.9Z"/>
          <path class="cls-9" d="M209.4,118.7c.2,1.1-.5,2.2-1.6,2.6h0c-1.1.2-2.2-.5-2.6-1.6l-4-18c-.2-1.1.5-2.2,1.6-2.6h0c1.1-.2,2.2.5,2.6,1.6l4,18Z"/>
        </g>
      </g>
      <g>
        <g>
          <path class="cls-9" d="M176.6,159.6c1.8,8.5-3.5,16.8-12,18.6s-16.8-3.5-18.6-11.9c-1.8-8.5,3.5-16.8,12-18.6,8.5-1.8,16.8,3.5,18.6,11.9Z"/>
          <path class="cls-11" d="M175.2,159.2c1.8,8.5-3.5,16.8-11.9,18.6-8.5,1.8-16.8-3.5-18.6-11.9-1.8-8.5,3.5-16.8,11.9-18.6,8.5-1.8,16.8,3.5,18.6,11.9Z"/>
          <path class="cls-9" d="M163.9,171.2c.2,1.1-.5,2.2-1.6,2.6h0c-1.1.2-2.2-.5-2.6-1.6l-4-18c-.2-1.1.5-2.2,1.6-2.6h0c1.1-.2,2.2.5,2.6,1.6l4,18Z"/>
        </g>
        <g>
          <path class="cls-9" d="M231.3,146.9c1.8,8.5-3.5,16.8-11.9,18.6-8.5,1.8-16.8-3.5-18.6-11.9-1.8-8.5,3.5-16.8,11.9-18.6,8.5-1.8,16.8,3.5,18.6,11.9Z"/>
          <path class="cls-11" d="M229.7,146.5c1.8,8.5-3.5,16.8-12,18.6-8.5,1.8-16.8-3.5-18.6-11.9-1.8-8.5,3.5-16.8,12-18.6s16.8,3.5,18.6,11.9Z"/>
          <path class="cls-9" d="M218.6,158.5c.2,1.1-.5,2.2-1.6,2.6h0c-1.1.2-2.2-.5-2.6-1.6l-4-18c-.2-1.1.5-2.2,1.6-2.6h0c1.1-.2,2.2.5,2.6,1.6l4,18Z"/>
        </g>
      </g>
    </g>
  </g>
  <g>
    <path class="cls-6" d="M128,192.2l45.5-136c2.9-8.6,12.3-13.3,21-10.4l77.7,26c8.6,2.9,13.3,12.3,10.4,21l-45.5,136c-2.9,8.6-12.3,13.3-21,10.4l-77.7-26c-8.6-2.9-13.3-12.3-10.4-21h0Z"/>
    <path class="cls-8" d="M180.8,215.4c-1.8-.6-2.9-2.7-2.2-4.5l46.6-139.7c.6-1.8,2.7-2.9,4.5-2.2h0c1.8.6,2.9,2.7,2.2,4.5l-46.6,139.7c-.6,1.8-2.7,2.9-4.5,2.2h0Z"/>
    <g>
      <g>
        <g>
          <path class="cls-4" d="M231.5,135.5h0c1.3,1.4,3,2.6,5,3.3h0c6,2,12.5-1.1,14.5-7.3l5.2-15.5,5.2-15.5c2-6-1.2-12.6-7.3-14.6h0c-1.9-.6-4-.7-5.9-.3h0c-3.9.8-7.4,3.6-8.7,7.7l-5.2,15.5-5.2,15.5c-1.3,4.1-.3,8.4,2.4,11.3h0Z"/>
          <g>
            <path class="cls-8" d="M231.5,135.5c-.3-2.1-.2-4.4.5-6.5l6.3-19.1-4-1.3-5.2,15.6c-1.3,4.1-.3,8.3,2.4,11.3h0Z"/>
            <path class="cls-1" d="M236.5,138.8c6,2,12.5-1.1,14.5-7.3l5.2-15.6-17.9-5.9-6.3,19.1c-.7,2.1-.8,4.4-.5,6.5,1.3,1.4,3.1,2.6,5,3.3h0Z"/>
            <path class="cls-2" d="M244.7,91.1c.7-2.1,1.9-4.1,3.5-5.6-3.9.8-7.3,3.6-8.7,7.7l-5.1,15.4,4,1.3,6.3-18.8h0Z"/>
            <path class="cls-10" d="M238.5,109.9l17.9,5.9,5.1-15.4c2-6-1.2-12.6-7.3-14.6h0c-1.9-.6-4.1-.7-5.9-.4-1.5,1.5-2.8,3.4-3.6,5.6l-6.3,18.8h.1Z"/>
          </g>
          <g>
            <path class="cls-12" d="M248,127.2l-.6,1.8h0s-.4,1.3-1.4,2.8c-1.3,1.8-3,3-4.9,3.4-.1,0-.3,0-.4.2-.3.2-.4.6-.4.9s.3.6.6.7h.5c2.5-.5,4.5-1.9,6.1-4.2,1.1-1.6,1.5-3.1,1.6-3.3l.6-1.8,4.3-12.8-1.6-.5-4.3,12.8h-.1Z"/>
            <path class="cls-11" d="M255.7,91.2c1.3,1.4,2,3.4,1.9,5.6,0,1.7-.5,3.1-.5,3.1h0l-.6,1.8-4.3,12.9,1.6.5,4.3-12.9.6-1.8c0-.2.6-1.6.7-3.6,0-2.8-.7-5.2-2.4-6.9-.1-.1-.2-.2-.4-.2s0,0,0,0h0c-.3,0-.6,0-.8.2-.3.3-.4.6-.2,1,0,.1.1.2.2.3h-.2Z"/>
          </g>
        </g>
        <g>
          <path class="cls-4" d="M177.2,117.4h0c1.3,1.4,3,2.6,5,3.3h0c6,2,12.5-1.1,14.5-7.3l5.2-15.5,5.2-15.5c2-6-1.2-12.6-7.3-14.6h0c-1.9-.6-4-.7-5.9-.3h0c-3.9.8-7.4,3.6-8.7,7.7l-5.2,15.5-5.2,15.5c-1.3,4.1-.3,8.4,2.4,11.3h0Z"/>
          <g>
            <path class="cls-8" d="M177.2,117.4c-.3-2.1-.2-4.4.5-6.5l6.3-19.1-4-1.3-5.2,15.6c-1.3,4.1-.3,8.3,2.4,11.3h0Z"/>
            <path class="cls-1" d="M182.2,120.6c6,2,12.5-1.1,14.5-7.3l5.2-15.6-17.9-5.9-6.3,19.1c-.7,2.1-.8,4.4-.5,6.5,1.3,1.4,3.1,2.6,5,3.3h0Z"/>
            <path class="cls-2" d="M190.4,72.9c.7-2.1,1.9-4.1,3.5-5.6-3.9.8-7.3,3.6-8.7,7.7l-5.1,15.4,4,1.3,6.3-18.8h0Z"/>
            <path class="cls-10" d="M184.1,91.8l17.9,5.9,5.1-15.4c2-6-1.2-12.6-7.3-14.6h0c-1.9-.6-4.1-.7-5.9-.4-1.5,1.5-2.8,3.4-3.6,5.6l-6.3,18.8h.1Z"/>
          </g>
          <g>
            <path class="cls-12" d="M193.6,109.1l-.6,1.8h0s-.4,1.3-1.4,2.8c-1.3,1.8-3,3-4.9,3.4-.1,0-.3,0-.4.2-.3.2-.4.6-.4.9s.3.6.6.7h.5c2.5-.5,4.5-1.9,6.1-4.2,1.1-1.6,1.5-3.1,1.6-3.3l.6-1.8,4.3-12.8-1.6-.5-4.3,12.8h-.1Z"/>
            <path class="cls-11" d="M201.3,73c1.3,1.4,2,3.4,1.9,5.6,0,1.7-.5,3.1-.5,3.1h0l-.6,1.8-4.3,12.9,1.6.5,4.3-12.9.6-1.8c0-.2.6-1.6.7-3.6,0-2.8-.7-5.2-2.4-6.9-.1-.1-.2-.2-.4-.2s0,0,0,0h0c-.3,0-.6,0-.8.2-.3.3-.4.6-.2,1,0,.1.1.2.2.3h-.2Z"/>
          </g>
        </g>
      </g>
      <g>
        <g>
          <path class="cls-4" d="M205.5,213.6h0c1.3,1.4,3,2.6,5,3.3h0c6,2,12.5-1.1,14.5-7.3l5.2-15.5,5.2-15.5c2-6-1.2-12.6-7.3-14.6h0c-1.9-.6-4-.7-5.9-.3h0c-3.9.8-7.4,3.6-8.7,7.7l-5.2,15.5-5.2,15.5c-1.3,4.1-.3,8.4,2.4,11.3h0Z"/>
          <g>
            <path class="cls-8" d="M205.5,213.6c-.3-2.1-.2-4.4.5-6.5l6.3-19.1-4-1.3-5.2,15.6c-1.3,4.1-.3,8.3,2.4,11.3h0Z"/>
            <path class="cls-1" d="M210.6,216.7c6,2,12.5-1.1,14.5-7.3l5.2-15.6-17.9-5.9-6.3,19.1c-.7,2.1-.8,4.4-.5,6.5,1.3,1.4,3.1,2.6,5,3.3h0Z"/>
            <path class="cls-2" d="M218.7,169c.7-2.1,1.9-4.1,3.5-5.6-3.9.8-7.3,3.6-8.7,7.7l-5.1,15.4,4,1.3,6.3-18.8h0Z"/>
            <path class="cls-10" d="M212.4,187.9l17.9,5.9,5.1-15.4c2-6-1.2-12.6-7.3-14.6h0c-1.9-.6-4.1-.7-5.9-.4-1.5,1.5-2.8,3.4-3.6,5.6l-6.3,18.8h.1Z"/>
          </g>
          <g>
            <path class="cls-12" d="M221.9,205.2l-.6,1.8h0s-.4,1.3-1.4,2.8c-1.3,1.8-3,3-4.9,3.4-.1,0-.3,0-.4.2-.3.2-.4.6-.4.9s.3.6.6.7h.5c2.5-.5,4.5-1.9,6.1-4.2,1.1-1.6,1.5-3.1,1.6-3.3l.6-1.8,4.3-12.8-1.6-.5-4.3,12.8h-.1Z"/>
            <path class="cls-11" d="M229.6,169.1c1.3,1.4,2,3.4,1.9,5.6,0,1.7-.5,3.1-.5,3.1h0l-.6,1.8-4.3,12.9,1.6.5,4.3-12.9.6-1.8c0-.2.6-1.6.7-3.6,0-2.8-.7-5.2-2.4-6.9-.1-.1-.2-.2-.4-.2s0,0,0,0h0c-.3,0-.6,0-.8.2-.3.3-.4.6-.2,1,0,.1.1.2.2.3h-.2Z"/>
          </g>
        </g>
        <g>
          <path class="cls-4" d="M151.2,195.4h0c1.3,1.4,3,2.6,5,3.3h0c6,2,12.5-1.1,14.5-7.3l5.2-15.5,5.2-15.5c2-6-1.2-12.6-7.3-14.6h0c-1.9-.6-4-.7-5.9-.3h0c-3.9.8-7.4,3.6-8.7,7.7l-5.2,15.5-5.2,15.5c-1.3,4.1-.3,8.4,2.4,11.3h0Z"/>
          <g>
            <path class="cls-8" d="M151.1,195.4c-.3-2.1-.2-4.4.5-6.5l6.3-19.1-4-1.3-5.2,15.6c-1.3,4.1-.3,8.3,2.4,11.3h0Z"/>
            <path class="cls-1" d="M156.2,198.6c6,2,12.5-1.1,14.5-7.3l5.2-15.6-17.9-5.9-6.3,19.1c-.7,2.1-.8,4.4-.5,6.5,1.3,1.4,3.1,2.6,5,3.3h0Z"/>
            <path class="cls-2" d="M164.3,150.9c.7-2.1,1.9-4.1,3.5-5.6-3.9.8-7.3,3.6-8.7,7.7l-5.1,15.4,4,1.3,6.3-18.8h0Z"/>
            <path class="cls-10" d="M158.1,169.7l17.9,5.9,5.1-15.4c2-6-1.2-12.6-7.3-14.6h0c-1.9-.6-4.1-.7-5.9-.4-1.5,1.5-2.8,3.4-3.6,5.6l-6.3,18.8h.1Z"/>
          </g>
          <g>
            <path class="cls-12" d="M167.6,187.1l-.6,1.8h0s-.4,1.3-1.4,2.8c-1.3,1.8-3,3-4.9,3.4-.1,0-.3,0-.4.2-.3.2-.4.6-.4.9s.3.6.6.7h.5c2.5-.5,4.5-1.9,6.1-4.2,1.1-1.6,1.5-3.1,1.6-3.3l.6-1.8,4.3-12.8-1.6-.5-4.3,12.8h-.1Z"/>
            <path class="cls-11" d="M175.2,150.9c1.3,1.4,2,3.4,1.9,5.6,0,1.7-.5,3.1-.5,3.1h0l-.6,1.8-4.3,12.9,1.6.5,4.3-12.9.6-1.8c0-.2.6-1.6.7-3.6,0-2.8-.7-5.2-2.4-6.9-.1-.1-.2-.2-.4-.2s0,0,0,0h0c-.3,0-.6,0-.8.2-.3.3-.4.6-.2,1,0,.1.1.2.2.3h-.2Z"/>
          </g>
        </g>
      </g>
    </g>
  </g>
</svg>