<?xml version="1.0" encoding="UTF-8"?><svg id="how_to_prevent" xmlns="http://www.w3.org/2000/svg" viewBox="0 0 32 32"><defs><style>.cls-1{fill:#91ccf2;}.cls-2{fill:#5b798c;}.cls-3{fill:#77a8c7;}.cls-4{fill:#82b7d9;}</style></defs><g id="ic_slaugh"><path class="cls-1" d="M22.98,5.77l6.74,1.66s-1.25,4.21,.16,7.62c0,0-1.56,13.3-2.98,15.42,0,0-3.5,.25-5.91-.77s-6.33-2.11-6.33-2.11l4.49-15.01s2.05-.33,3.83-6.81Z"/><path class="cls-1" d="M22.98,5.77l.7,.17s1.29-3.34,3.58-2.77,1.6,4.05,1.6,4.05l.85,.21s.35-3.77-2.41-4.42c-2.76-.65-4.33,2.76-4.33,2.76Z"/><path class="cls-3" d="M21.43,17.33s2.06,1.16,4.66,1.15l-1.03,3.24-2.25,.05-1.94-1.08,.57-3.36Z"/><path class="cls-3" d="M20.46,28.71c.27,.13,.59,.04,.77-.21,.5-.7,1.5-2.09,2.43-3.16,.56-.65-1.67,2.16-4.86,1.71s-3.24-.37-3.36-.09c-.11,.26,2.98,.8,5.02,1.76Z"/><g><path class="cls-3" d="M17.49,29.11s-.97-1.32-1.42-2.89-1.59-3.84-1.73-4.04-.34-.58-.63-.41-.13,.53-.1,.61,.6,1.14,.7,1.48c.05,.14-.08,.14-.08,.14,0,0-.01,.12-.13-.24s-1.15-2.11-1.5-2.36-.58-.05-.58-.05c0,0-.23,.11-.11,.44s1.06,1.67,1.06,1.67c0,0,.29,.38,.22,.55s-.27-.07-.27-.07c0,0-.35-.67-.71-1.23-.27-.41-.58-.75-.63-.82-.11-.17-.33-.38-.58-.22s-.22,.4-.2,.46,1.11,1.69,1.32,2.07,.08,.39,.08,.39c0,0-.18,.16-.45-.36s-.91-1.9-1.36-1.68-.14,.77-.14,.77c0,0,.38,1.2,1.6,2.53,.81,1.03,.21,.78,.21,.78,0,0-.56-.17-1-1.17-.14-.38-.37-.36-.53-.26s-.22,.24-.15,.42,.63,1.5,1.76,2.63c1.19,1.11,1.92,2.32,2,2.61,.29,.12,2.7-.55,3.33-1.75Z"/><path class="cls-2" d="M17.37,29.13s-.44,.61-1.29,1.05-1.83,.59-1.83,.59c0,0,.45-.63,1.41-1.15s1.71-.49,1.71-.49Z"/></g><g><path class="cls-4" d="M12.96,28.07s.59-1.64,.58-3.37,.46-4.39,.55-4.63,.18-.69,.51-.6,.29,.5,.28,.59-.27,1.34-.27,1.72c0,.16,.12,.12,.12,.12,0,0,.05,.11,.06-.28s.54-2.49,.82-2.85,.58-.23,.58-.23c0,0,.27,.04,.24,.41s-.58,2.01-.58,2.01c0,0-.18,.47-.06,.63s.26-.15,.26-.15c0,0,.15-.79,.36-1.47,.15-.5,.37-.94,.39-1.02,.07-.2,.23-.48,.52-.4s.35,.34,.34,.4-.62,2.05-.72,2.5,.03,.42,.03,.42c0,0,.23,.1,.35-.5s.35-2.21,.88-2.12,.38,.74,.38,.74c0,0-.03,1.33-.87,3.06-.51,1.29,.02,.86,.02,.86,0,0,.52-.34,.67-1.49,.03-.43,.27-.47,.46-.43s.3,.17,.28,.39-.19,1.72-1.01,3.21c-.87,1.48-1.26,2.94-1.25,3.25-.26,.21-2.92,.25-3.92-.78Z"/><path class="cls-3" d="M13.09,28.04s.63,.48,1.62,.68,2.04,.05,2.04,.05c0,0-.64-.51-1.78-.75s-1.89,.01-1.89,.01Z"/></g><path class="cls-4" d="M14,16.13s-1.55-1.37-.75-2.25c1.9-2.2,5.89-3.45,6.73-3.02s1.69,1.54,1.59,2.08c-.65,1.14-7.57,3.19-7.57,3.19Z"/><path class="cls-3" d="M14.29,17.13s1.44-.67,3.18-1.04,4.71-2.19,4.71-2.19l-.61-.95s-2.56,1.56-4.59,2.06-2.67,.74-2.99,1.13l.3,.99Z"/><path class="cls-3" d="M19.02,13.89c.06-.01,.64-.36,1.39-.71s.48-1.18,.48-1.18c0,0,.04,.4-.72,.89s-1.16,.99-1.16,.99Z"/><path class="cls-3" d="M13.45,15.13s.45,.72,.62,.74c.03,0,.04-.09,.22-.19s.73-.44,1.51-.52c0,0-1.12-.01-1.47,.21-.31,.19-.88-.24-.88-.24Z"/><path class="cls-3" d="M14,16.13s-.03-.15-.38,.17-.7,1.44-.7,1.44c0,0-.27,1.24,0,1.54,0,0,0-1.19,.24-1.75s.58-1.35,.84-1.4Z"/><path class="cls-3" d="M13.97,16.12s0-.15-.4,.1-.94,1.3-.94,1.3c0,0-.47,1.18-.26,1.52,0,0,.21-1.18,.53-1.68s.8-1.23,1.07-1.24Z"/></g></svg>