<?xml version="1.0" encoding="UTF-8"?>
<svg id="Livello_1" data-name="Livello 1" xmlns="http://www.w3.org/2000/svg" version="1.1" viewBox="0 0 137.4 115.7">
  <defs>
    <style>
      .cls-1 {
        fill: none;
      }

      .cls-1, .cls-2, .cls-3, .cls-4, .cls-5, .cls-6, .cls-7, .cls-8, .cls-9, .cls-10, .cls-11 {
        stroke-width: 0px;
      }

      .cls-2 {
        fill: #516d7c;
      }

      .cls-3 {
        fill: #84b9d1;
      }

      .cls-4 {
        fill: #96c7e2;
      }

      .cls-5 {
        fill: #618191;
      }

      .cls-6 {
        fill: #7cafc1;
      }

      .cls-7 {
        fill: #d3eaf2;
      }

      .cls-8 {
        fill: #5b798c;
      }

      .cls-9 {
        fill: #77a8c7;
      }

      .cls-10 {
        fill: #cee6ef;
      }

      .cls-11 {
        fill: #a4d7ed;
      }
    </style>
  </defs>
  <path class="cls-9" d="M8.9,97.6s1.6-7.3,2-9.9.1-5.2-2-11.5-1.9-27-1.2-33.3,13.6-22.2,22.1-25.5,16.7-3.5,23.5-2.6,15.7,2.9,21.1,3.2c5.4.3,12.2.8,17.8-.6s19.4-6.9,23.4-7.4,9.6-.5,13.6,1.6,5.2,1.7,5.9,4,1.6,5.1-3.6,7.9-8.4,5.9-11.4,10.3c-3,4.4-3.1,11.6-9.8,17s-14.4,6.8-16.9,7.2-10.6,3.1-13.3,6.3-5.1,4-8.4,6.8-9.9,4.9-12.3,7.7-10.1,12.6-24.2,19.8-15.7,7.7-21.6,6.4c-5.3-1.2-4.6-7.3-4.6-7.3Z"/>
  <path class="cls-4" d="M11,86.9s8.6-2.2,15.4-5,17.6-9.8,19.7-11.2,6.1-5.6,10.8-7,12.9-3.8,14.8-5.2,6.1-7.2,7.2-9.5,5.8-4.7,9.4-4.7,13.4-.5,16-1.6,8.5-8.1,9.4-10.3,4.4-7.3,8.2-9.1,8.5-1.2,10.6-3.3c2.1-2.1.3-6.8.3-6.8,0,0,2.2.9,2.8,2.3s.8,4.5-1.8,6.6-9.9,5.9-11.5,8.4-5.6,8.7-6.3,10.5-1.6,5.9-5.8,9.8-8.8,5.9-11.6,6.4-10.2,2.2-11.4,2.7-13.6,6.9-14.6,7.6-13.4,8.2-13.4,8.2l-15.2,12.9-12.9,8.9-16,4.5h-5.8s-1-4.6-.4-6.2c1.2-3.1,2.1-8.9,2.1-8.9Z"/>
  <path class="cls-8" d="M49.4,14.5c-.5,0-13.4.5-16.4,3.9s-3.5,6.6-3,8.2,1.4,9-2.8,11.8-8.9,3.2-11.7,2.9-4.4,0-5.4,0-2.4,1.5-2.4,1.5c0,0,3-11,5.9-15.4s8.5-8.9,13.3-11c4.7-2.1,10.1-2.1,11.3-2.4s11.2.4,11.2.4Z"/>
  <path class="cls-11" d="M73.1,17.9s.5-1.4,2.3-1.7,10.7,0,12.7.8,2.8,3.3,1.7,4.5-3.8,3.3-4.8,5.6-1.8,3.5-2.2,7.3c-.3,3.8.3,12.4.6,14.3s2.4,9.2,2.4,9.2c0,0,1.3,7.5,1.3,13.4s0,4.2-1.3,3.8-3.3-17.3-4.5-21.9-1.8-12.7-1.7-14.2.2-9.1-.6-11.1c-.8-2-1.6-4.1-2.6-4.9s-4.3-2.3-3.4-5.2Z"/>
  <path class="cls-7" d="M79.5,23.7s-2.4-2.5-3.3-2.8-3.1-1.7-1.9-2.9,3.9-1,6.6-1.1,6,1,6.2,1.8-.1,1.8-.9,1.6-3.7-.7-4.7.4-.5,3.3-2.1,3Z"/>
  <path class="cls-8" d="M13.2,100.9s14.8-3.6,20.4-7.2c5.6-3.7,13.4-10.7,15.9-12.3s7-6.4,9.9-7.3,10.9-5.1,12.1-5.9,5.2-4.4,6.6-4.9,5-1.2,5-1.2c0,0-4.8,4.4-6.4,5.5s-6,4.6-9.3,6.3c-3.3,1.7-8.2,4.8-10.2,7.5-3,4.1-11.7,11.4-16.8,14.3-5.2,2.9-8.4,5.4-16.6,8-8.2,2.6-8.9,3-12.2.9s-2.3-3.5-2.3-3.5l3.8-.3Z"/>
  <path class="cls-8" d="M105.5,54.3s5.2-4.5,7.7-9.5,5.9-9.4,5.9-9.4c0,0-2.6,6.9-3.5,8.7s-1.8,3.6-3.2,5.1c-2.5,2.8-7,5-7,5Z"/>
  <path class="cls-1" d="M8.9,97.6s1.6-7.3,2-9.9.1-5.2-2-11.5-1.9-27-1.2-33.3,13.6-22.2,22.1-25.5,16.7-3.5,23.5-2.6,15.7,2.9,21.1,3.2c5.4.3,12.2.8,17.8-.6s19.4-6.9,23.4-7.4,9.6-.5,13.6,1.6,5.2,1.7,5.9,4,1.7,5.2-3.3,8.4-8.7,5.4-11.7,9.8c-3,4.4-3.1,11.6-9.8,17s-14.4,6.8-16.9,7.2-10.6,3.1-13.3,6.3-5.1,4-8.4,6.8-9.9,4.9-12.3,7.7-10.1,12.6-24.2,19.8-15.7,7.7-21.6,6.4c-2.5-.6-3.7-2.2-4.2-3.8s-.4-3.5-.4-3.5Z"/>
  <path class="cls-4" d="M9,30.6s-.7-3.8,4.2-7.3,8.5-2.3,10.3-2.1,4.9,2.8,4.9,7-1.4,9.2-7.5,9.9-11.2.3-11.9-7.5Z"/>
  <path class="cls-2" d="M24.5,21.6s4,2.2,3.8,6.6-1.2,7.8-4.7,9.2-8.9,1-10,.5l-1.1-.5s3.7,3.3,9.4,1.5,7.5-4.6,7.8-8.4-.2-6.5-5.2-8.9Z"/>
  <path class="cls-10" d="M14.8,31.4c0-.9.4-2,1.2-2.4,1.5-.8,3.5-1.7,5.1-2.8s1.2-4.5-4.2-2.6-5.9,4.6-6,5.4-.8,3.4,1.5,4.3,2.3-1.5,2.3-1.8Z"/>
  <path class="cls-6" d="M12.5,37.4s11-1.4,12.8-4.8.8-6.4.8-6.4l.3-2.5-1.8-2.1s3.6,2.4,3.8,5.2.6,7.4-3.5,10.4-4,1.2-5.3,1.5c-3.4.8-7.1-1.2-7.1-1.2Z"/>
  <path class="cls-3" d="M9.7,34.1s3.5,2.9,10.7-.2,2.6-1.6,3.1-3.1.9-3.8.9-5-1.8-4.6-1.8-4.7c0,0,3.4,0,4,3.1,0,0,1.3,5.9-1.2,9.3s-2.8,2.9-4.9,3.7c-4.6,1.7-6.3.8-7.9.2s-2.8-3.3-2.8-3.3Z"/>
  <path class="cls-4" d="M34.5,35.9s-.6-3.2,3.4-6,7-1.9,8.5-1.7,4,2.3,4,5.7-1.1,7.6-6.2,8.2-9.2.3-9.8-6.2Z"/>
  <path class="cls-8" d="M47.3,28.4s2.7,2.2,2.5,5.9-.4,5.9-3.3,7.1-7.4.8-8.3.4l-.9-.4s3,2.7,7.7,1.3,6.2-3.8,6.5-6.9-.2-5.3-4.3-7.3Z"/>
  <path class="cls-10" d="M39.3,36.5c0-.7.3-1.6,1-2,1.2-.6,2.9-1.4,4.2-2.3s.9-3.7-3.4-2.2-4.9,3.8-4.9,4.5-.7,2.8,1.2,3.5,1.9-1.3,1.9-1.5Z"/>
  <path class="cls-5" d="M37.4,41.4s9.1-1.2,10.5-4,.6-5.2.6-5.2l.2-2.1-1.5-1.7s3,1.9,3.1,4.2.5,6.1-2.8,8.5-3.3,1-4.3,1.3c-2.8.7-5.9-1-5.9-1Z"/>
  <path class="cls-3" d="M35.1,38.7s2.9,2.4,8.8-.2,2.1-1.4,2.5-2.6.7-3.1.7-4.1-1.5-3.8-1.5-3.9c0,0,2.8,0,3.3,2.5,0,0,1,4.8-1,7.7s-2.3,2.4-4.1,3c-3.8,1.4-5.2.7-6.5.2s-2.3-2.7-2.3-2.7Z"/>
  <path class="cls-4" d="M13.2,52s-.5-2.6,2.8-5,5.8-1.5,7-1.4,3.3,1.9,3.3,4.7-.9,6.3-5.1,6.7-7.6.2-8-5.1Z"/>
  <path class="cls-8" d="M23.7,45.9s2.7,1.5,2.6,4.5-.8,5.2-3.2,6.2-6.1.7-6.8.3l-.7-.3s2.5,2.3,6.4,1,5.1-3.1,5.3-5.7-.1-4.4-3.5-6Z"/>
  <path class="cls-10" d="M17.1,52.5c0-.6.2-1.3.8-1.6,1-.5,2.4-1.1,3.5-1.9s.8-3-2.8-1.8-4,3.1-4.1,3.7-.6,2.3,1,2.9,1.6-1,1.6-1.2Z"/>
  <path class="cls-2" d="M15.6,56.6s7.5-1,8.7-3.3.5-4.3.5-4.3l.2-1.7-1.2-1.4s2.5,1.6,2.6,3.5.4,5-2.3,7-2.7.8-3.6,1c-2.3.6-4.8-.8-4.8-.8Z"/>
  <path class="cls-3" d="M13.7,54.4s2.4,2,7.3-.1,1.7-1.1,2.1-2.1.6-2.5.6-3.4-1.2-3.1-1.2-3.2c0,0,2.3,0,2.7,2.1,0,0,.9,4-.8,6.3s-1.9,2-3.3,2.5c-3.1,1.1-4.3.5-5.4.2s-1.9-2.2-1.9-2.2Z"/>
  <path class="cls-4" d="M48.8,19.8s-.4-2.1,2.3-4.1,4.8-1.3,5.7-1.2,2.7,1.6,2.7,3.9-.8,5.2-4.2,5.5-6.2.2-6.6-4.2Z"/>
  <path class="cls-8" d="M57.5,14.7s2.2,1.2,2.1,3.7-.7,4.3-2.6,5.1-5,.5-5.6.3l-.6-.3s2,1.9,5.2.9,4.2-2.6,4.4-4.7-.1-3.6-2.9-5Z"/>
  <path class="cls-10" d="M52.1,20.2c0-.5.2-1.1.7-1.4.8-.4,2-.9,2.9-1.6s.6-2.5-2.3-1.5-3.3,2.6-3.4,3-.5,1.9.8,2.4,1.3-.8,1.3-1Z"/>
  <path class="cls-2" d="M50.8,23.6s6.2-.8,7.1-2.7.4-3.5.4-3.5v-1.4c.1,0-.9-1.2-.9-1.2,0,0,2,1.3,2.1,2.9s.3,4.1-1.9,5.8-2.2.7-2.9.9c-1.9.5-4-.7-4-.7Z"/>
  <path class="cls-3" d="M49.2,21.7s2,1.6,6-.1,1.4-.9,1.7-1.7.5-2.1.5-2.8-1-2.6-1-2.6c0,0,1.9,0,2.2,1.7,0,0,.7,3.3-.7,5.2s-1.6,1.6-2.7,2.1c-2.6.9-3.5.4-4.4.1s-1.5-1.8-1.5-1.8Z"/>
  <path class="cls-4" d="M30.2,54s-.4-2.1,2.3-4.1,4.8-1.3,5.7-1.2,2.7,1.6,2.7,3.9-.8,5.2-4.2,5.5-6.2.2-6.6-4.2Z"/>
  <path class="cls-8" d="M38.9,49s2.2,1.2,2.1,3.7-.7,4.3-2.6,5.1-5,.5-5.6.3l-.6-.3s2,1.9,5.2.9,4.2-2.6,4.4-4.7-.1-3.6-2.9-5Z"/>
  <path class="cls-10" d="M33.5,54.4c0-.5.2-1.1.7-1.4.8-.4,2-.9,2.9-1.6s.6-2.5-2.3-1.5-3.3,2.6-3.4,3-.5,1.9.8,2.4,1.3-.8,1.3-1Z"/>
  <path class="cls-8" d="M32.2,57.8s6.2-.8,7.1-2.7.4-3.5.4-3.5v-1.4c.1,0-.9-1.2-.9-1.2,0,0,2,1.3,2.1,2.9s.3,4.1-1.9,5.8-2.2.7-2.9.9c-1.9.5-4-.7-4-.7Z"/>
  <path class="cls-3" d="M30.6,55.9s2,1.6,6-.1,1.4-.9,1.7-1.7.5-2.1.5-2.8-1-2.6-1-2.6c0,0,1.9,0,2.2,1.7,0,0,.7,3.3-.7,5.2s-1.6,1.6-2.7,2.1c-2.6.9-3.5.4-4.4.1s-1.5-1.8-1.5-1.8Z"/>
</svg>