<?xml version="1.0" encoding="UTF-8"?><svg id="Various" xmlns="http://www.w3.org/2000/svg" viewBox="0 0 82.03 82.03"><defs><style>.cls-1{font-family:Verdana-Bold, Verdana;font-size:6px;}.cls-1,.cls-2{fill:#fff;}.cls-3{fill:#facc62;}.cls-4{fill:#6a3164;}.cls-5{fill:#f1c6ab;}.cls-6{fill:#edb35b;}.cls-7{fill:#825e3e;}.cls-8{fill:#7caa55;}.cls-9{fill:#8abc60;}.cls-10{fill:#9ec285;}.cls-11{fill:#a0d177;}.cls-12{fill:#c43939;}.cls-13{fill:#8fc981;}.cls-14{fill:#a62626;}.cls-15{fill:#aa7b51;}.cls-16{fill:#dead8e;}.cls-17,.cls-18{fill:#c4e6a7;}.cls-19{fill:#d65e3a;}.cls-20{fill:#d7a16f;}.cls-21{fill:#6e4f34;}.cls-22{fill:#71a7c2;}.cls-23{fill:#6e954d;}.cls-24{fill:#82685b;}.cls-25{fill:#5c3057;}.cls-26{fill:#608640;}.cls-27{fill:#5d8222;}.cls-28{fill:#780001;}.cls-29{fill:#50701d;}.cls-18{isolation:isolate;opacity:.8;}</style></defs><g id="ic_house"><rect class="cls-5" x="4.93" y="33.59" width="71.88" height="48.44"/><rect class="cls-16" x="3.83" y="32.57" width="74.1" height="2.94" rx=".44" ry=".44"/><rect class="cls-2" x="9.14" y="49.97" width="16.33" height="32.06"/><rect class="cls-2" x="32.05" y="49.97" width="39.19" height="32.06"/><rect class="cls-22" x="9.77" y="50.51" width="15.07" height="15.21"/><rect class="cls-22" x="32.84" y="50.51" width="37.54" height="30.98"/><rect class="cls-22" x="9.77" y="66.6" width="15.07" height="14.88"/><path class="cls-19" d="M7.47,38.18h5.14v12.14c0,1.35-1.09,2.44-2.44,2.44h-.22c-1.37,0-2.48-1.11-2.48-2.48v-12.11h0Z"/><path class="cls-19" d="M69.16,38.18h5.14v12.14c0,1.35-1.09,2.44-2.44,2.44h-.22c-1.37,0-2.48-1.11-2.48-2.48v-12.11h0Z"/><path class="cls-2" d="M12.61,38.18h5.14v12.14c0,1.35-1.09,2.44-2.44,2.44h-.22c-1.37,0-2.48-1.11-2.48-2.48v-12.11h0Z"/><path class="cls-19" d="M17.75,38.18h5.14v12.14c0,1.35-1.09,2.44-2.44,2.44h-.22c-1.37,0-2.48-1.11-2.48-2.48v-12.11h0Z"/><path class="cls-2" d="M22.89,38.18h5.14v12.14c0,1.35-1.09,2.44-2.44,2.44h-.22c-1.37,0-2.48-1.11-2.48-2.48v-12.11h0Z"/><path class="cls-19" d="M28.03,38.18h5.14v12.14c0,1.35-1.09,2.44-2.44,2.44h-.22c-1.37,0-2.48-1.11-2.48-2.48v-12.11h0Z"/><path class="cls-2" d="M33.17,38.18h5.14v12.14c0,1.35-1.09,2.44-2.44,2.44h-.22c-1.37,0-2.48-1.11-2.48-2.48v-12.11h0Z"/><path class="cls-19" d="M38.31,38.18h5.14v12.14c0,1.35-1.09,2.44-2.44,2.44h-.22c-1.37,0-2.48-1.11-2.48-2.48v-12.11h0Z"/><path class="cls-2" d="M43.46,38.18h5.14v12.14c0,1.35-1.09,2.44-2.44,2.44h-.22c-1.37,0-2.48-1.11-2.48-2.48v-12.11h0Z"/><path class="cls-19" d="M48.6,38.18h5.14v12.14c0,1.35-1.09,2.44-2.44,2.44h-.22c-1.37,0-2.48-1.11-2.48-2.48v-12.11h0Z"/><path class="cls-2" d="M53.74,38.18h5.14v12.14c0,1.35-1.09,2.44-2.44,2.44h-.22c-1.37,0-2.48-1.11-2.48-2.48v-12.11h0Z"/><path class="cls-19" d="M58.88,38.18h5.14v12.14c0,1.35-1.09,2.44-2.44,2.44h-.22c-1.37,0-2.48-1.11-2.48-2.48v-12.11h0Z"/><path class="cls-2" d="M64.02,38.18h5.14v12.14c0,1.35-1.09,2.44-2.44,2.44h-.22c-1.37,0-2.48-1.11-2.48-2.48v-12.11h0Z"/><rect class="cls-6" x="18.73" y="27.35" width="42.44" height="9.32"/><rect class="cls-3" x="19.37" y="28.01" width="41.15" height="8.1"/><rect class="cls-2" x="19.37" y="61.67" width="4.96" height="3.53"/><rect class="cls-13" x="10.56" y="67.32" width="5.62" height="7.57"/><rect class="cls-15" x="30.6" y="63.58" width="23.72" height="18.45"/><rect class="cls-7" x="31.16" y="69.44" width="22.58" height=".67"/><rect class="cls-21" x="31.16" y="70.04" width="22.58" height="5.31"/><rect class="cls-3" x="31.17" y="76.58" width="22.56" height="4.91"/><rect class="cls-21" x="31.17" y="64.13" width="22.58" height="5.31"/><rect class="cls-21" x="31.19" y="64.12" width="22.58" height="5.31"/><rect class="cls-7" x="31.16" y="75.35" width="22.58" height=".67"/><path class="cls-10" d="M79.97,82.03s.51-1.21-.69-1.33c0,0,.31-2.1-1.23-2.46,0,0-.31-2.7-2.81-2.7-2.5,0-3.44,1.76-3.66,2.78,0,0-.55-.86-2.09-.52s-3.05,2.74-1.82,4.24h12.3Z"/><path class="cls-10" d="M76.59,82.03s.6-1.58-.8-1.74c0,0,.36-2.74-1.44-3.21,0,0-.36-3.52-3.28-3.53-2.92,0-4.01,2.29-4.27,3.63,0,0-.64-1.12-2.44-.68-1.79,.44-3.55,3.58-2.12,5.53h14.34Z"/><g><path class="cls-12" d="M36.51,67.82c.19,.01,.55,.07,.38,.65-.22,.59-.37,.62-.39,.64s-.08,.04-.23,0-.29-.01-.29-.01c0,0-.38,.02-.48-.48s0-.77,.26-.8c.13-.01,.2,.04,.3,.05s.25-.06,.44-.05Z"/><path class="cls-14" d="M35.94,68.03s.04-.1,.3-.04c.09,.02,.2,.02,.24,.05s.03,.05,0,.06c-.03,.02-.13,.01-.2-.01-.03-.01-.16-.07-.21-.08-.11-.02-.14,.01-.15,.02Z"/><path class="cls-28" d="M35.93,68.02s.1-.07,.25,0,.29,.07,.29,.07c0,0-.15,.04-.27-.03s-.26-.05-.26-.05Z"/><path class="cls-24" d="M36.15,68.02s.03-.37,.11-.47c0,0,.07,.03,.11,.03,0,0-.15,.14-.2,.44h-.02Z"/><path class="cls-14" d="M36.09,69.04c.07,0,.16,0,.24,.03s.14,0,.16-.01,.27-.25,.38-.76c.01-.04-.16-.03-.22,.21s-.13,.29-.21,.37-.22,.09-.28,.09-.14,.08-.07,.08Z"/><path class="cls-8" d="M36.14,68.01s.05-.32-.18-.38-.31-.18-.31-.18c0,0,0,.34,.17,.41s.22,.06,.31,.15Z"/><path class="cls-26" d="M35.91,67.77c.17,.06,.21,.08,.23,.24,0,0-.02-.07-.24-.13-.21-.06-.22-.33-.22-.33,0,0,.06,.16,.23,.22Z"/></g><rect class="cls-13" x="46.98" y="77.55" width="5.93" height="2.96"/><g><path class="cls-12" d="M35.41,67.51c.19,.01,.55,.07,.38,.65-.22,.59-.37,.62-.39,.64s-.08,.04-.23,0-.29-.01-.29-.01c0,0-.38,.02-.48-.48s0-.77,.26-.8c.13-.01,.2,.04,.3,.05s.25-.06,.44-.05Z"/><path class="cls-14" d="M34.84,67.72s.04-.1,.3-.04c.09,.02,.2,.02,.24,.05s.03,.05,0,.06c-.03,.02-.13,.01-.2-.01-.03-.01-.16-.07-.21-.08-.11-.02-.14,.01-.15,.02Z"/><path class="cls-28" d="M34.84,67.72s.1-.07,.25,0,.29,.07,.29,.07c0,0-.15,.04-.27-.03s-.26-.05-.26-.05Z"/><path class="cls-24" d="M35.06,67.72s.03-.37,.11-.47c0,0,.07,.03,.11,.03,0,0-.15,.14-.2,.44h-.02Z"/><path class="cls-14" d="M35,68.74c.07,0,.16,0,.24,.03s.14,0,.16-.01,.27-.25,.38-.76c.01-.04-.16-.03-.22,.21s-.13,.29-.21,.37-.22,.09-.28,.09-.14,.08-.07,.08Z"/><path class="cls-8" d="M35.05,67.7s.05-.32-.18-.38-.31-.18-.31-.18c0,0,0,.34,.17,.41s.22,.06,.31,.15Z"/><path class="cls-26" d="M34.82,67.46c.17,.06,.21,.08,.23,.24,0,0-.02-.07-.24-.13-.21-.06-.22-.33-.22-.33,0,0,.06,.16,.23,.22Z"/></g><g><path class="cls-12" d="M34.56,67.47c.19,.01,.55,.07,.38,.65-.22,.59-.37,.62-.39,.64s-.08,.04-.23,0-.29-.01-.29-.01c0,0-.38,.02-.48-.48s0-.77,.26-.8c.13-.01,.2,.04,.3,.05s.25-.06,.44-.05Z"/><path class="cls-14" d="M33.99,67.68s.04-.1,.3-.04c.09,.02,.2,.02,.24,.05s.03,.05,0,.06c-.03,.02-.13,.01-.2-.01-.03-.01-.16-.07-.21-.08-.11-.02-.14,.01-.15,.02Z"/><path class="cls-28" d="M33.98,67.68s.1-.07,.25,0,.29,.07,.29,.07c0,0-.15,.04-.27-.03s-.26-.05-.26-.05Z"/><path class="cls-24" d="M34.2,67.68s.03-.37,.11-.47c0,0,.07,.03,.11,.03,0,0-.15,.14-.2,.44h-.02Z"/><path class="cls-14" d="M34.14,68.7c.07,0,.16,0,.24,.03s.14,0,.16-.01,.27-.25,.38-.76c.01-.04-.16-.03-.22,.21s-.13,.29-.21,.37-.22,.09-.28,.09-.14,.08-.07,.08Z"/><path class="cls-8" d="M34.19,67.66s.05-.32-.18-.38-.31-.18-.31-.18c0,0,0,.34,.17,.41s.22,.06,.31,.15Z"/><path class="cls-26" d="M33.96,67.42c.17,.06,.21,.08,.23,.24,0,0-.02-.07-.24-.13-.21-.06-.22-.33-.22-.33,0,0,.06,.16,.23,.22Z"/></g><g><path class="cls-12" d="M33.4,67.33c.19,.01,.55,.07,.38,.65-.22,.59-.37,.62-.39,.64s-.08,.04-.23,0-.29-.01-.29-.01c0,0-.38,.02-.48-.48s0-.77,.26-.8c.13-.01,.2,.04,.3,.05s.25-.06,.44-.05Z"/><path class="cls-14" d="M32.83,67.53s.04-.1,.3-.04c.09,.02,.2,.02,.24,.05s.03,.05,0,.06c-.03,.02-.13,.01-.2-.01-.03-.01-.16-.07-.21-.08-.11-.02-.14,.01-.15,.02Z"/><path class="cls-28" d="M32.82,67.53s.1-.07,.25,0,.29,.07,.29,.07c0,0-.15,.04-.27-.03s-.26-.05-.26-.05Z"/><path class="cls-24" d="M33.04,67.53s.03-.37,.11-.47c0,0,.07,.03,.11,.03,0,0-.15,.14-.2,.44h-.02Z"/><path class="cls-14" d="M32.98,68.55c.07,0,.16,0,.24,.03s.14,0,.16-.01,.27-.25,.38-.76c.01-.04-.16-.03-.22,.21s-.13,.29-.21,.37-.22,.09-.28,.09-.14,.08-.07,.08Z"/><path class="cls-8" d="M33.04,67.51s.05-.32-.18-.38-.31-.18-.31-.18c0,0,0,.34,.17,.41s.22,.06,.31,.15Z"/><path class="cls-26" d="M32.8,67.28c.17,.06,.21,.08,.23,.24,0,0-.02-.07-.24-.13-.21-.06-.22-.33-.22-.33,0,0,.06,.16,.23,.22Z"/></g><g><path class="cls-12" d="M37.94,67.64c.19,.01,.55,.07,.38,.65-.22,.59-.37,.62-.39,.64s-.08,.04-.23,0-.29-.01-.29-.01c0,0-.38,.02-.48-.48s0-.77,.26-.8c.13-.01,.2,.04,.3,.05s.25-.06,.44-.05Z"/><path class="cls-14" d="M37.37,67.84s.04-.1,.3-.04c.09,.02,.2,.02,.24,.05s.03,.05,0,.06c-.03,.02-.13,.01-.2-.01-.03-.01-.16-.07-.21-.08-.11-.02-.14,.01-.15,.02Z"/><path class="cls-28" d="M37.37,67.84s.1-.07,.25,0,.29,.07,.29,.07c0,0-.15,.04-.27-.03s-.26-.05-.26-.05Z"/><path class="cls-24" d="M37.59,67.84s.03-.37,.11-.47c0,0,.07,.03,.11,.03,0,0-.15,.14-.2,.44h-.02Z"/><path class="cls-14" d="M37.53,68.86c.07,0,.16,0,.24,.03s.14,0,.16-.01,.27-.25,.38-.76c.01-.04-.16-.03-.22,.21s-.13,.29-.21,.37-.22,.09-.28,.09-.14,.08-.07,.08Z"/><path class="cls-8" d="M37.58,67.82s.05-.32-.18-.38-.31-.18-.31-.18c0,0,0,.34,.17,.41s.22,.06,.31,.15Z"/><path class="cls-26" d="M37.35,67.59c.17,.06,.21,.08,.23,.24,0,0-.02-.07-.24-.13-.21-.06-.22-.33-.22-.33,0,0,.06,.16,.23,.22Z"/></g><g><path class="cls-12" d="M38.46,67.47c.19,.01,.55,.07,.38,.65-.22,.59-.37,.62-.39,.64s-.08,.04-.23,0-.29-.01-.29-.01c0,0-.38,.02-.48-.48s0-.77,.26-.8c.13-.01,.2,.04,.3,.05s.25-.06,.44-.05Z"/><path class="cls-14" d="M37.89,67.68s.04-.1,.3-.04c.09,.02,.2,.02,.24,.05s.03,.05,0,.06c-.03,.02-.13,.01-.2-.01-.03-.01-.16-.07-.21-.08-.11-.02-.14,.01-.15,.02Z"/><path class="cls-28" d="M37.89,67.68s.1-.07,.25,0,.29,.07,.29,.07c0,0-.15,.04-.27-.03s-.26-.05-.26-.05Z"/><path class="cls-24" d="M38.11,67.68s.03-.37,.11-.47c0,0,.07,.03,.11,.03,0,0-.15,.14-.2,.44h-.02Z"/><path class="cls-14" d="M38.05,68.7c.07,0,.16,0,.24,.03s.14,0,.16-.01,.27-.25,.38-.76c.01-.04-.16-.03-.22,.21s-.13,.29-.21,.37-.22,.09-.28,.09-.14,.08-.07,.08Z"/><path class="cls-8" d="M38.1,67.66s.05-.32-.18-.38-.31-.18-.31-.18c0,0,0,.34,.17,.41s.22,.06,.31,.15Z"/><path class="cls-26" d="M37.87,67.42c.17,.06,.21,.08,.23,.24,0,0-.02-.07-.24-.13-.21-.06-.22-.33-.22-.33,0,0,.06,.16,.23,.22Z"/></g><g><path class="cls-12" d="M37.17,67.43c.19,.01,.55,.07,.38,.65-.22,.59-.37,.62-.39,.64s-.08,.04-.23,0-.29-.01-.29-.01c0,0-.38,.02-.48-.48s0-.77,.26-.8c.13-.01,.2,.04,.3,.05s.25-.06,.44-.05Z"/><path class="cls-14" d="M36.6,67.64s.04-.1,.3-.04c.09,.02,.2,.02,.24,.05s.03,.05,0,.06c-.03,.02-.13,.01-.2-.01-.03-.01-.16-.07-.21-.08-.11-.02-.14,.01-.15,.02Z"/><path class="cls-28" d="M36.59,67.64s.1-.07,.25,0,.29,.07,.29,.07c0,0-.15,.04-.27-.03s-.26-.05-.26-.05Z"/><path class="cls-24" d="M36.81,67.63s.03-.37,.11-.47c0,0,.07,.03,.11,.03,0,0-.15,.14-.2,.44h-.02Z"/><path class="cls-14" d="M36.75,68.65c.07,0,.16,0,.24,.03s.14,0,.16-.01,.27-.25,.38-.76c.01-.04-.16-.03-.22,.21s-.13,.29-.21,.37-.22,.09-.28,.09-.14,.08-.07,.08Z"/><path class="cls-8" d="M36.8,67.62s.05-.32-.18-.38-.31-.18-.31-.18c0,0,0,.34,.17,.41s.22,.06,.31,.15Z"/><path class="cls-26" d="M36.57,67.38c.17,.06,.21,.08,.23,.24,0,0-.02-.07-.24-.13-.21-.06-.22-.33-.22-.33,0,0,.06,.16,.23,.22Z"/></g><g><path class="cls-12" d="M33.45,66.55c.19,.01,.55,.07,.38,.65-.22,.59-.37,.62-.39,.64s-.08,.04-.23,0-.29-.01-.29-.01c0,0-.38,.02-.48-.48s0-.77,.26-.8c.13-.01,.2,.04,.3,.05s.25-.06,.44-.05Z"/><path class="cls-14" d="M32.88,66.76s.04-.1,.3-.04c.09,.02,.2,.02,.24,.05s.03,.05,0,.06c-.03,.02-.13,.01-.2-.01-.03-.01-.16-.07-.21-.08-.11-.02-.14,.01-.15,.02Z"/><path class="cls-28" d="M32.88,66.76s.1-.07,.25,0,.29,.07,.29,.07c0,0-.15,.04-.27-.03s-.26-.05-.26-.05Z"/><path class="cls-24" d="M33.1,66.76s.03-.37,.11-.47c0,0,.07,.03,.11,.03,0,0-.15,.14-.2,.44h-.02Z"/><path class="cls-14" d="M33.04,67.78c.07,0,.16,0,.24,.03s.14,0,.16-.01,.27-.25,.38-.76c.01-.04-.16-.03-.22,.21s-.13,.29-.21,.37-.22,.09-.28,.09-.14,.08-.07,.08Z"/><path class="cls-8" d="M33.09,66.74s.05-.32-.18-.38-.31-.18-.31-.18c0,0,0,.34,.17,.41s.22,.06,.31,.15Z"/><path class="cls-26" d="M32.86,66.5c.17,.06,.21,.08,.23,.24,0,0-.02-.07-.24-.13-.21-.06-.22-.33-.22-.33,0,0,.06,.16,.23,.22Z"/></g><g><path class="cls-12" d="M34.55,66.67c.19,.01,.55,.07,.38,.65-.22,.59-.37,.62-.39,.64s-.08,.04-.23,0-.29-.01-.29-.01c0,0-.38,.02-.48-.48s0-.77,.26-.8c.13-.01,.2,.04,.3,.05s.25-.06,.44-.05Z"/><path class="cls-14" d="M33.98,66.88s.04-.1,.3-.04c.09,.02,.2,.02,.24,.05s.03,.05,0,.06c-.03,.02-.13,.01-.2-.01-.03-.01-.16-.07-.21-.08-.11-.02-.14,.01-.15,.02Z"/><path class="cls-28" d="M33.97,66.88s.1-.07,.25,0,.29,.07,.29,.07c0,0-.15,.04-.27-.03s-.26-.05-.26-.05Z"/><path class="cls-24" d="M34.19,66.87s.03-.37,.11-.47c0,0,.07,.03,.11,.03,0,0-.15,.14-.2,.44h-.02Z"/><path class="cls-14" d="M34.13,67.89c.07,0,.16,0,.24,.03s.14,0,.16-.01,.27-.25,.38-.76c.01-.04-.16-.03-.22,.21s-.13,.29-.21,.37-.22,.09-.28,.09-.14,.08-.07,.08Z"/><path class="cls-8" d="M34.19,66.86s.05-.32-.18-.38-.31-.18-.31-.18c0,0,0,.34,.17,.41s.22,.06,.31,.15Z"/><path class="cls-26" d="M33.95,66.62c.17,.06,.21,.08,.23,.24,0,0-.02-.07-.24-.13-.21-.06-.22-.33-.22-.33,0,0,.06,.16,.23,.22Z"/></g><g><path class="cls-12" d="M35.4,66.58c.19,.01,.55,.07,.38,.65-.22,.59-.37,.62-.39,.64s-.08,.04-.23,0-.29-.01-.29-.01c0,0-.38,.02-.48-.48s0-.77,.26-.8c.13-.01,.2,.04,.3,.05s.25-.06,.44-.05Z"/><path class="cls-14" d="M34.83,66.78s.04-.1,.3-.04c.09,.02,.2,.02,.24,.05s.03,.05,0,.06c-.03,.02-.13,.01-.2-.01-.03-.01-.16-.07-.21-.08-.11-.02-.14,.01-.15,.02Z"/><path class="cls-28" d="M34.83,66.78s.1-.07,.25,0,.29,.07,.29,.07c0,0-.15,.04-.27-.03s-.26-.05-.26-.05Z"/><path class="cls-24" d="M35.05,66.78s.03-.37,.11-.47c0,0,.07,.03,.11,.03,0,0-.15,.14-.2,.44h-.02Z"/><path class="cls-14" d="M34.99,67.8c.07,0,.16,0,.24,.03s.14,0,.16-.01,.27-.25,.38-.76c.01-.04-.16-.03-.22,.21s-.13,.29-.21,.37-.22,.09-.28,.09-.14,.08-.07,.08Z"/><path class="cls-8" d="M35.04,66.76s.05-.32-.18-.38-.31-.18-.31-.18c0,0,0,.34,.17,.41s.22,.06,.31,.15Z"/><path class="cls-26" d="M34.81,66.53c.17,.06,.21,.08,.23,.24,0,0-.02-.07-.24-.13-.21-.06-.22-.33-.22-.33,0,0,.06,.16,.23,.22Z"/></g><g><path class="cls-12" d="M36.43,66.85c.19,.01,.55,.07,.38,.65-.22,.59-.37,.62-.39,.64s-.08,.04-.23,0-.29-.01-.29-.01c0,0-.38,.02-.48-.48s0-.77,.26-.8c.13-.01,.2,.04,.3,.05s.25-.06,.44-.05Z"/><path class="cls-14" d="M35.86,67.06s.04-.1,.3-.04c.09,.02,.2,.02,.24,.05s.03,.05,0,.06c-.03,.02-.13,.01-.2-.01-.03-.01-.16-.07-.21-.08-.11-.02-.14,.01-.15,.02Z"/><path class="cls-28" d="M35.86,67.06s.1-.07,.25,0,.29,.07,.29,.07c0,0-.15,.04-.27-.03s-.26-.05-.26-.05Z"/><path class="cls-24" d="M36.08,67.05s.03-.37,.11-.47c0,0,.07,.03,.11,.03,0,0-.15,.14-.2,.44h-.02Z"/><path class="cls-14" d="M36.02,68.07c.07,0,.16,0,.24,.03s.14,0,.16-.01,.27-.25,.38-.76c.01-.04-.16-.03-.22,.21s-.13,.29-.21,.37-.22,.09-.28,.09-.14,.08-.07,.08Z"/><path class="cls-8" d="M36.07,67.04s.05-.32-.18-.38-.31-.18-.31-.18c0,0,0,.34,.17,.41s.22,.06,.31,.15Z"/><path class="cls-26" d="M35.84,66.8c.17,.06,.21,.08,.23,.24,0,0-.02-.07-.24-.13-.21-.06-.22-.33-.22-.33,0,0,.06,.16,.23,.22Z"/></g><g><path class="cls-12" d="M37.25,66.52c.19,.01,.55,.07,.38,.65-.22,.59-.37,.62-.39,.64s-.08,.04-.23,0-.29-.01-.29-.01c0,0-.38,.02-.48-.48s0-.77,.26-.8c.13-.01,.2,.04,.3,.05s.25-.06,.44-.05Z"/><path class="cls-14" d="M36.68,66.73s.04-.1,.3-.04c.09,.02,.2,.02,.24,.05s.03,.05,0,.06c-.03,.02-.13,.01-.2-.01-.03-.01-.16-.07-.21-.08-.11-.02-.14,.01-.15,.02Z"/><path class="cls-28" d="M36.68,66.72s.1-.07,.25,0,.29,.07,.29,.07c0,0-.15,.04-.27-.03s-.26-.05-.26-.05Z"/><path class="cls-24" d="M36.9,66.72s.03-.37,.11-.47c0,0,.07,.03,.11,.03,0,0-.15,.14-.2,.44h-.02Z"/><path class="cls-14" d="M36.84,67.74c.07,0,.16,0,.24,.03s.14,0,.16-.01,.27-.25,.38-.76c.01-.04-.16-.03-.22,.21s-.13,.29-.21,.37-.22,.09-.28,.09-.14,.08-.07,.08Z"/><path class="cls-8" d="M36.89,66.71s.05-.32-.18-.38-.31-.18-.31-.18c0,0,0,.34,.17,.41s.22,.06,.31,.15Z"/><path class="cls-26" d="M36.66,66.47c.17,.06,.21,.08,.23,.24,0,0-.02-.07-.24-.13-.21-.06-.22-.33-.22-.33,0,0,.06,.16,.23,.22Z"/></g><g><path class="cls-12" d="M37.93,66.7c.19,.01,.55,.07,.38,.65-.22,.59-.37,.62-.39,.64s-.08,.04-.23,0-.29-.01-.29-.01c0,0-.38,.02-.48-.48s0-.77,.26-.8c.13-.01,.2,.04,.3,.05s.25-.06,.44-.05Z"/><path class="cls-14" d="M37.36,66.91s.04-.1,.3-.04c.09,.02,.2,.02,.24,.05s.03,.05,0,.06c-.03,.02-.13,.01-.2-.01-.03-.01-.16-.07-.21-.08-.11-.02-.14,.01-.15,.02Z"/><path class="cls-28" d="M37.36,66.91s.1-.07,.25,0,.29,.07,.29,.07c0,0-.15,.04-.27-.03s-.26-.05-.26-.05Z"/><path class="cls-24" d="M37.58,66.9s.03-.37,.11-.47c0,0,.07,.03,.11,.03,0,0-.15,.14-.2,.44h-.02Z"/><path class="cls-14" d="M37.52,67.93c.07,0,.16,0,.24,.03s.14,0,.16-.01,.27-.25,.38-.76c.01-.04-.16-.03-.22,.21s-.13,.29-.21,.37-.22,.09-.28,.09-.14,.08-.07,.08Z"/><path class="cls-8" d="M37.57,66.89s.05-.32-.18-.38-.31-.18-.31-.18c0,0,0,.34,.17,.41s.22,.06,.31,.15Z"/><path class="cls-26" d="M37.34,66.65c.17,.06,.21,.08,.23,.24,0,0-.02-.07-.24-.13-.21-.06-.22-.33-.22-.33,0,0,.06,.16,.23,.22Z"/></g><g><path class="cls-12" d="M38.4,66.49c.19,.01,.55,.07,.38,.65-.22,.59-.37,.62-.39,.64s-.08,.04-.23,0-.29-.01-.29-.01c0,0-.38,.02-.48-.48s0-.77,.26-.8c.13-.01,.2,.04,.3,.05s.25-.06,.44-.05Z"/><path class="cls-14" d="M37.83,66.7s.04-.1,.3-.04c.09,.02,.2,.02,.24,.05s.03,.05,0,.06c-.03,.02-.13,.01-.2-.01-.03-.01-.16-.07-.21-.08-.11-.02-.14,.01-.15,.02Z"/><path class="cls-28" d="M37.82,66.7s.1-.07,.25,0,.29,.07,.29,.07c0,0-.15,.04-.27-.03s-.26-.05-.26-.05Z"/><path class="cls-24" d="M38.04,66.7s.03-.37,.11-.47c0,0,.07,.03,.11,.03,0,0-.15,.14-.2,.44h-.02Z"/><path class="cls-14" d="M37.98,67.72c.07,0,.16,0,.24,.03s.14,0,.16-.01,.27-.25,.38-.76c.01-.04-.16-.03-.22,.21s-.13,.29-.21,.37-.22,.09-.28,.09-.14,.08-.07,.08Z"/><path class="cls-8" d="M38.04,66.68s.05-.32-.18-.38-.31-.18-.31-.18c0,0,0,.34,.17,.41s.22,.06,.31,.15Z"/><path class="cls-26" d="M37.8,66.44c.17,.06,.21,.08,.23,.24,0,0-.02-.07-.24-.13-.21-.06-.22-.33-.22-.33,0,0,.06,.16,.23,.22Z"/></g><g><rect class="cls-20" x="32.05" y="66.52" width=".52" height="2.92"/><rect class="cls-20" x="38.57" y="66.52" width=".52" height="2.92"/><rect class="cls-20" x="32.58" y="68.38" width="5.99" height="1.06"/><rect class="cls-20" x="32.58" y="67.16" width="5.99" height=".69"/></g><g id="lattuce" transform="translate(-1310.866 -1224.366) rotate(13)"><path id="Tracciato_217" class="cls-26" d="M33.97,72.03s0-.12,.23,0,.28,.14,.4,.13,.53,.19,.31,.3-.39,.32-.39,.32l-.61-.67,.06-.08Z"/><path id="Tracciato_216" class="cls-23" d="M33.25,72.1s.01-.3,.39-.16,.41,.21,.41,.21l.14,.16-.52,.13-.33,.14-.09-.47Z"/><path id="Tracciato_215" class="cls-8" d="M33.41,72.34s.02-.27,.35-.12,.61,.06,.61,.06c0,0,.35-.09,.21,.34s-.86,.49-.86,.49l-.31-.76Z"/><path id="Tracciato_214" class="cls-9" d="M33.43,73.87s-.26,0-.46-.43-.09-.79,.02-1,.05-.3,.05-.3c0,0-.05-.17,.11-.11s.22,.28,.22,.28c.04,.05,.09,.1,.15,.12,.1,.04,.24,.43,.21,.63s-.17,.37,.02,.77c0,0-.21-.04-.33,.04Z"/><path id="Tracciato_219" class="cls-18" d="M33.55,73.93c-.07-.05-.35-.21-.41-.37s.02-.06,.02-.06c0,0,.14,.23,.32,.27s-.38-.21-.44-.68,.02-.25,.02-.25c0,0,.08,.58,.36,.7,0,0-.3-.51-.29-.88,0-.06,0-.11,0-.15,.02-.22,.05-.23,.08-.19,.04,.04,.01,.26,.06,.52,.03,.17,.08,.34,.14,.5,0-.27,.17-.7,.22-.58,.02,.05-.17,.72-.1,.83,.2,.19,.08,.38,.01,.34Z"/><path id="Tracciato_213" class="cls-11" d="M33.68,74.23s-.13-.03-.16-.04-.08-.04-.07-.11,.02-.13-.02-.18,.03-.13,.33-.09c0,0-.18-.23-.08-.6s.24-.34,.24-.34c0,0,.07,.01,.17-.1s.23-.14,.35-.13c.08,0,.16-.03,.21-.09,.02-.03,.03-.19,.14-.17s.15,.12,.22,.16,.07-.05,.15,.05,0,.11,.02,.2,.09,1.21-1.02,1.26c-.1,0-.16,0-.22,.1s-.25,.05-.25,.05Z"/><path id="Tracciato_218" class="cls-17" d="M33.5,73.92s.04,.1,.02,.17,.22,.09,.22,.09c0,0,.08,0,.11,0s.03-.13,.14-.15,.51-.07,.63-.19,0-.06,0-.06c0,0-.25,.16-.49,.14s.55-.05,.78-.47,.06-.24,.06-.24c0,0-.3,.51-.69,.52,0,0,.55-.37,.66-.72,.02-.06,.03-.1,.04-.15,.05-.21,.01-.23-.04-.21-.06,.03-.1,.24-.25,.46s-.35,.41-.35,.41c.08-.26,.02-.73-.08-.63-.04,.04-.02,.75-.15,.82-.1,.06-.19,.01-.16-.33,.06-.56-.04-.39-.05-.37-.25,.39-.1,.69-.04,.83-.04,.03-.04,.04-.06,.04-.07,.02-.18,0-.24,0-.03,0-.06,.05-.06,.05Z"/></g><g id="lattuce-2" transform="translate(-1310.866 -1224.366) rotate(13)"><path id="Tracciato_217-2" class="cls-26" d="M33.79,72.86s0-.12,.23,0,.28,.14,.4,.13,.53,.19,.31,.3-.39,.32-.39,.32l-.61-.67,.06-.08Z"/><path id="Tracciato_216-2" class="cls-23" d="M33.07,72.93s.01-.3,.39-.16,.41,.21,.41,.21l.14,.16-.52,.13-.33,.14-.09-.47Z"/><path id="Tracciato_215-2" class="cls-8" d="M33.23,73.17s.02-.27,.35-.12,.61,.06,.61,.06c0,0,.35-.09,.21,.34s-.86,.49-.86,.49l-.31-.76Z"/><path id="Tracciato_214-2" class="cls-9" d="M33.26,74.7s-.26,0-.46-.43-.09-.79,.02-1,.05-.3,.05-.3c0,0-.05-.17,.11-.11s.22,.28,.22,.28c.04,.05,.09,.1,.15,.12,.1,.04,.24,.43,.21,.63s-.17,.37,.02,.77c0,0-.21-.04-.33,.04Z"/><path id="Tracciato_219-2" class="cls-18" d="M33.37,74.76c-.07-.05-.35-.21-.41-.37s.02-.06,.02-.06c0,0,.14,.23,.32,.27s-.38-.21-.44-.68,.02-.25,.02-.25c0,0,.08,.58,.36,.7,0,0-.3-.51-.29-.88,0-.06,0-.11,0-.15,.02-.22,.05-.23,.08-.19,.04,.04,.01,.26,.06,.52,.03,.17,.08,.34,.14,.5,0-.27,.17-.7,.22-.58,.02,.05-.17,.72-.1,.83,.2,.19,.08,.38,.01,.34Z"/><path id="Tracciato_213-2" class="cls-11" d="M33.5,75.06s-.13-.03-.16-.04-.08-.04-.07-.11,.02-.13-.02-.18,.03-.13,.33-.09c0,0-.18-.23-.08-.6s.24-.34,.24-.34c0,0,.07,.01,.17-.1s.23-.14,.35-.13c.08,0,.16-.03,.21-.09,.02-.03,.03-.19,.14-.17s.15,.12,.22,.16,.07-.05,.15,.05,0,.11,.02,.2,.09,1.21-1.02,1.26c-.1,0-.16,0-.22,.1s-.25,.05-.25,.05Z"/><path id="Tracciato_218-2" class="cls-17" d="M33.33,74.75s.04,.1,.02,.17,.22,.09,.22,.09c0,0,.08,0,.11,0s.03-.13,.14-.15,.51-.07,.63-.19,0-.06,0-.06c0,0-.25,.16-.49,.14s.55-.05,.78-.47,.06-.24,.06-.24c0,0-.3,.51-.69,.52,0,0,.55-.37,.66-.72,.02-.06,.03-.1,.04-.15,.05-.21,.01-.23-.04-.21-.06,.03-.1,.24-.25,.46s-.35,.41-.35,.41c.08-.26,.02-.73-.08-.63-.04,.04-.02,.75-.15,.82-.1,.06-.19,.01-.16-.33,.06-.56-.04-.39-.05-.37-.25,.39-.1,.69-.04,.83-.04,.03-.04,.04-.06,.04-.07,.02-.18,0-.24,0-.03,0-.06,.05-.06,.05Z"/></g><g id="lattuce-3" transform="translate(-1310.866 -1224.366) rotate(13)"><path id="Tracciato_217-3" class="cls-26" d="M35.2,71.63s0-.12,.23,0,.28,.14,.4,.13,.53,.19,.31,.3-.39,.32-.39,.32l-.61-.67,.06-.08Z"/><path id="Tracciato_216-3" class="cls-23" d="M34.49,71.71s.01-.3,.39-.16,.41,.21,.41,.21l.14,.16-.52,.13-.33,.14-.09-.47Z"/><path id="Tracciato_215-3" class="cls-8" d="M34.64,71.95s.02-.27,.35-.12,.61,.06,.61,.06c0,0,.35-.09,.21,.34s-.86,.49-.86,.49l-.31-.76Z"/><path id="Tracciato_214-3" class="cls-9" d="M34.67,73.47s-.26,0-.46-.43-.09-.79,.02-1,.05-.3,.05-.3c0,0-.05-.17,.11-.11s.22,.28,.22,.28c.04,.05,.09,.1,.15,.12,.1,.04,.24,.43,.21,.63s-.17,.37,.02,.77c0,0-.21-.04-.33,.04Z"/><path id="Tracciato_219-3" class="cls-18" d="M34.78,73.54c-.07-.05-.35-.21-.41-.37s.02-.06,.02-.06c0,0,.14,.23,.32,.27s-.38-.21-.44-.68,.02-.25,.02-.25c0,0,.08,.58,.36,.7,0,0-.3-.51-.29-.88,0-.06,0-.11,0-.15,.02-.22,.05-.23,.08-.19,.04,.04,.01,.26,.06,.52,.03,.17,.08,.34,.14,.5,0-.27,.17-.7,.22-.58,.02,.05-.17,.72-.1,.83,.2,.19,.08,.38,.01,.34Z"/><path id="Tracciato_213-3" class="cls-11" d="M34.92,73.83s-.13-.03-.16-.04-.08-.04-.07-.11,.02-.13-.02-.18,.03-.13,.33-.09c0,0-.18-.23-.08-.6s.24-.34,.24-.34c0,0,.07,.01,.17-.1s.23-.14,.35-.13c.08,0,.16-.03,.21-.09,.02-.03,.03-.19,.14-.17s.15,.12,.22,.16,.07-.05,.15,.05,0,.11,.02,.2,.09,1.21-1.02,1.26c-.1,0-.16,0-.22,.1s-.25,.05-.25,.05Z"/><path id="Tracciato_218-3" class="cls-17" d="M34.74,73.52s.04,.1,.02,.17,.22,.09,.22,.09c0,0,.08,0,.11,0s.03-.13,.14-.15,.51-.07,.63-.19,0-.06,0-.06c0,0-.25,.16-.49,.14s.55-.05,.78-.47,.06-.24,.06-.24c0,0-.3,.51-.69,.52,0,0,.55-.37,.66-.72,.02-.06,.03-.1,.04-.15,.05-.21,.01-.23-.04-.21-.06,.03-.1,.24-.25,.46s-.35,.41-.35,.41c.08-.26,.02-.73-.08-.63-.04,.04-.02,.75-.15,.82-.1,.06-.19,.01-.16-.33,.06-.56-.04-.39-.05-.37-.25,.39-.1,.69-.04,.83-.04,.03-.04,.04-.06,.04-.07,.02-.18,0-.24,0-.03,0-.06,.05-.06,.05Z"/></g><g id="lattuce-4" transform="translate(-1310.866 -1224.366) rotate(13)"><path id="Tracciato_217-4" class="cls-26" d="M35.42,72.74s0-.12,.23,0,.28,.14,.4,.13,.53,.19,.31,.3-.39,.32-.39,.32l-.61-.67,.06-.08Z"/><path id="Tracciato_216-4" class="cls-23" d="M34.7,72.81s.01-.3,.39-.16,.41,.21,.41,.21l.14,.16-.52,.13-.33,.14-.09-.47Z"/><path id="Tracciato_215-4" class="cls-8" d="M34.86,73.05s.02-.27,.35-.12,.61,.06,.61,.06c0,0,.35-.09,.21,.34s-.86,.49-.86,.49l-.31-.76Z"/><path id="Tracciato_214-4" class="cls-9" d="M34.88,74.58s-.26,0-.46-.43-.09-.79,.02-1,.05-.3,.05-.3c0,0-.05-.17,.11-.11s.22,.28,.22,.28c.04,.05,.09,.1,.15,.12,.1,.04,.24,.43,.21,.63s-.17,.37,.02,.77c0,0-.21-.04-.33,.04Z"/><path id="Tracciato_219-4" class="cls-18" d="M35,74.64c-.07-.05-.35-.21-.41-.37s.02-.06,.02-.06c0,0,.14,.23,.32,.27s-.38-.21-.44-.68,.02-.25,.02-.25c0,0,.08,.58,.36,.7,0,0-.3-.51-.29-.88,0-.06,0-.11,0-.15,.02-.22,.05-.23,.08-.19,.04,.04,.01,.26,.06,.52,.03,.17,.08,.34,.14,.5,0-.27,.17-.7,.22-.58,.02,.05-.17,.72-.1,.83,.2,.19,.08,.38,.01,.34Z"/><path id="Tracciato_213-4" class="cls-11" d="M35.13,74.94s-.13-.03-.16-.04-.08-.04-.07-.11,.02-.13-.02-.18,.03-.13,.33-.09c0,0-.18-.23-.08-.6s.24-.34,.24-.34c0,0,.07,.01,.17-.1s.23-.14,.35-.13c.08,0,.16-.03,.21-.09,.02-.03,.03-.19,.14-.17s.15,.12,.22,.16,.07-.05,.15,.05,0,.11,.02,.2,.09,1.21-1.02,1.26c-.1,0-.16,0-.22,.1s-.25,.05-.25,.05Z"/><path id="Tracciato_218-4" class="cls-17" d="M34.95,74.63s.04,.1,.02,.17,.22,.09,.22,.09c0,0,.08,0,.11,0s.03-.13,.14-.15,.51-.07,.63-.19,0-.06,0-.06c0,0-.25,.16-.49,.14s.55-.05,.78-.47,.06-.24,.06-.24c0,0-.3,.51-.69,.52,0,0,.55-.37,.66-.72,.02-.06,.03-.1,.04-.15,.05-.21,.01-.23-.04-.21-.06,.03-.1,.24-.25,.46s-.35,.41-.35,.41c.08-.26,.02-.73-.08-.63-.04,.04-.02,.75-.15,.82-.1,.06-.19,.01-.16-.33,.06-.56-.04-.39-.05-.37-.25,.39-.1,.69-.04,.83-.04,.03-.04,.04-.06,.04-.07,.02-.18,0-.24,0-.03,0-.06,.05-.06,.05Z"/></g><g id="lattuce-5" transform="translate(-1310.866 -1224.366) rotate(13)"><path id="Tracciato_217-5" class="cls-26" d="M36.85,72.08s0-.12,.23,0,.28,.14,.4,.13,.53,.19,.31,.3-.39,.32-.39,.32l-.61-.67,.06-.08Z"/><path id="Tracciato_216-5" class="cls-23" d="M36.14,72.16s.01-.3,.39-.16,.41,.21,.41,.21l.14,.16-.52,.13-.33,.14-.09-.47Z"/><path id="Tracciato_215-5" class="cls-8" d="M36.3,72.39s.02-.27,.35-.12,.61,.06,.61,.06c0,0,.35-.09,.21,.34s-.86,.49-.86,.49l-.31-.76Z"/><path id="Tracciato_214-5" class="cls-9" d="M36.32,73.92s-.26,0-.46-.43-.09-.79,.02-1,.05-.3,.05-.3c0,0-.05-.17,.11-.11s.22,.28,.22,.28c.04,.05,.09,.1,.15,.12,.1,.04,.24,.43,.21,.63s-.17,.37,.02,.77c0,0-.21-.04-.33,.04Z"/><path id="Tracciato_219-5" class="cls-18" d="M36.43,73.98c-.07-.05-.35-.21-.41-.37s.02-.06,.02-.06c0,0,.14,.23,.32,.27s-.38-.21-.44-.68,.02-.25,.02-.25c0,0,.08,.58,.36,.7,0,0-.3-.51-.29-.88,0-.06,0-.11,0-.15,.02-.22,.05-.23,.08-.19,.04,.04,.01,.26,.06,.52,.03,.17,.08,.34,.14,.5,0-.27,.17-.7,.22-.58,.02,.05-.17,.72-.1,.83,.2,.19,.08,.38,.01,.34Z"/><path id="Tracciato_213-5" class="cls-11" d="M36.57,74.28s-.13-.03-.16-.04-.08-.04-.07-.11,.02-.13-.02-.18,.03-.13,.33-.09c0,0-.18-.23-.08-.6s.24-.34,.24-.34c0,0,.07,.01,.17-.1s.23-.14,.35-.13c.08,0,.16-.03,.21-.09,.02-.03,.03-.19,.14-.17s.15,.12,.22,.16,.07-.05,.15,.05,0,.11,.02,.2,.09,1.21-1.02,1.26c-.1,0-.16,0-.22,.1s-.25,.05-.25,.05Z"/><path id="Tracciato_218-5" class="cls-17" d="M36.39,73.97s.04,.1,.02,.17,.22,.09,.22,.09c0,0,.08,0,.11,0s.03-.13,.14-.15,.51-.07,.63-.19,0-.06,0-.06c0,0-.25,.16-.49,.14s.55-.05,.78-.47,.06-.24,.06-.24c0,0-.3,.51-.69,.52,0,0,.55-.37,.66-.72,.02-.06,.03-.1,.04-.15,.05-.21,.01-.23-.04-.21-.06,.03-.1,.24-.25,.46s-.35,.41-.35,.41c.08-.26,.02-.73-.08-.63-.04,.04-.02,.75-.15,.82-.1,.06-.19,.01-.16-.33,.06-.56-.04-.39-.05-.37-.25,.39-.1,.69-.04,.83-.04,.03-.04,.04-.06,.04-.07,.02-.18,0-.24,0-.03,0-.06,.05-.06,.05Z"/></g><g id="lattuce-6" transform="translate(-1310.866 -1224.366) rotate(13)"><path id="Tracciato_217-6" class="cls-26" d="M38.1,71.73s0-.12,.23,0,.28,.14,.4,.13,.53,.19,.31,.3-.39,.32-.39,.32l-.61-.67,.06-.08Z"/><path id="Tracciato_216-6" class="cls-23" d="M37.39,71.81s.01-.3,.39-.16,.41,.21,.41,.21l.14,.16-.52,.13-.33,.14-.09-.47Z"/><path id="Tracciato_215-6" class="cls-8" d="M37.55,72.05s.02-.27,.35-.12,.61,.06,.61,.06c0,0,.35-.09,.21,.34s-.86,.49-.86,.49l-.31-.76Z"/><path id="Tracciato_214-6" class="cls-9" d="M37.57,73.58s-.26,0-.46-.43-.09-.79,.02-1,.05-.3,.05-.3c0,0-.05-.17,.11-.11s.22,.28,.22,.28c.04,.05,.09,.1,.15,.12,.1,.04,.24,.43,.21,.63s-.17,.37,.02,.77c0,0-.21-.04-.33,.04Z"/><path id="Tracciato_219-6" class="cls-18" d="M37.69,73.64c-.07-.05-.35-.21-.41-.37s.02-.06,.02-.06c0,0,.14,.23,.32,.27s-.38-.21-.44-.68,.02-.25,.02-.25c0,0,.08,.58,.36,.7,0,0-.3-.51-.29-.88,0-.06,0-.11,0-.15,.02-.22,.05-.23,.08-.19,.04,.04,.01,.26,.06,.52,.03,.17,.08,.34,.14,.5,0-.27,.17-.7,.22-.58,.02,.05-.17,.72-.1,.83,.2,.19,.08,.38,.01,.34Z"/><path id="Tracciato_213-6" class="cls-11" d="M37.82,73.94s-.13-.03-.16-.04-.08-.04-.07-.11,.02-.13-.02-.18,.03-.13,.33-.09c0,0-.18-.23-.08-.6s.24-.34,.24-.34c0,0,.07,.01,.17-.1s.23-.14,.35-.13c.08,0,.16-.03,.21-.09,.02-.03,.03-.19,.14-.17s.15,.12,.22,.16,.07-.05,.15,.05,0,.11,.02,.2,.09,1.21-1.02,1.26c-.1,0-.16,0-.22,.1s-.25,.05-.25,.05Z"/><path id="Tracciato_218-6" class="cls-17" d="M37.64,73.62s.04,.1,.02,.17,.22,.09,.22,.09c0,0,.08,0,.11,0s.03-.13,.14-.15,.51-.07,.63-.19,0-.06,0-.06c0,0-.25,.16-.49,.14s.55-.05,.78-.47,.06-.24,.06-.24c0,0-.3,.51-.69,.52,0,0,.55-.37,.66-.72,.02-.06,.03-.1,.04-.15,.05-.21,.01-.23-.04-.21-.06,.03-.1,.24-.25,.46s-.35,.41-.35,.41c.08-.26,.02-.73-.08-.63-.04,.04-.02,.75-.15,.82-.1,.06-.19,.01-.16-.33,.06-.56-.04-.39-.05-.37-.25,.39-.1,.69-.04,.83-.04,.03-.04,.04-.06,.04-.07,.02-.18,0-.24,0-.03,0-.06,.05-.06,.05Z"/></g><g id="lattuce-7" transform="translate(-1310.866 -1224.366) rotate(13)"><path id="Tracciato_217-7" class="cls-26" d="M37.14,73.02s0-.12,.23,0,.28,.14,.4,.13,.53,.19,.31,.3-.39,.32-.39,.32l-.61-.67,.06-.08Z"/><path id="Tracciato_216-7" class="cls-23" d="M36.42,73.1s.01-.3,.39-.16,.41,.21,.41,.21l.14,.16-.52,.13-.33,.14-.09-.47Z"/><path id="Tracciato_215-7" class="cls-8" d="M36.58,73.34s.02-.27,.35-.12,.61,.06,.61,.06c0,0,.35-.09,.21,.34s-.86,.49-.86,.49l-.31-.76Z"/><path id="Tracciato_214-7" class="cls-9" d="M36.6,74.86s-.26,0-.46-.43-.09-.79,.02-1,.05-.3,.05-.3c0,0-.05-.17,.11-.11s.22,.28,.22,.28c.04,.05,.09,.1,.15,.12,.1,.04,.24,.43,.21,.63s-.17,.37,.02,.77c0,0-.21-.04-.33,.04Z"/><path id="Tracciato_219-7" class="cls-18" d="M36.72,74.93c-.07-.05-.35-.21-.41-.37s.02-.06,.02-.06c0,0,.14,.23,.32,.27s-.38-.21-.44-.68,.02-.25,.02-.25c0,0,.08,.58,.36,.7,0,0-.3-.51-.29-.88,0-.06,0-.11,0-.15,.02-.22,.05-.23,.08-.19,.04,.04,.01,.26,.06,.52,.03,.17,.08,.34,.14,.5,0-.27,.17-.7,.22-.58,.02,.05-.17,.72-.1,.83,.2,.19,.08,.38,.01,.34Z"/><path id="Tracciato_213-7" class="cls-11" d="M36.85,75.23s-.13-.03-.16-.04-.08-.04-.07-.11,.02-.13-.02-.18,.03-.13,.33-.09c0,0-.18-.23-.08-.6s.24-.34,.24-.34c0,0,.07,.01,.17-.1s.23-.14,.35-.13c.08,0,.16-.03,.21-.09,.02-.03,.03-.19,.14-.17s.15,.12,.22,.16,.07-.05,.15,.05,0,.11,.02,.2,.09,1.21-1.02,1.26c-.1,0-.16,0-.22,.1s-.25,.05-.25,.05Z"/><path id="Tracciato_218-7" class="cls-17" d="M36.67,74.91s.04,.1,.02,.17,.22,.09,.22,.09c0,0,.08,0,.11,0s.03-.13,.14-.15,.51-.07,.63-.19,0-.06,0-.06c0,0-.25,.16-.49,.14s.55-.05,.78-.47,.06-.24,.06-.24c0,0-.3,.51-.69,.52,0,0,.55-.37,.66-.72,.02-.06,.03-.1,.04-.15,.05-.21,.01-.23-.04-.21-.06,.03-.1,.24-.25,.46s-.35,.41-.35,.41c.08-.26,.02-.73-.08-.63-.04,.04-.02,.75-.15,.82-.1,.06-.19,.01-.16-.33,.06-.56-.04-.39-.05-.37-.25,.39-.1,.69-.04,.83-.04,.03-.04,.04-.06,.04-.07,.02-.18,0-.24,0-.03,0-.06,.05-.06,.05Z"/></g><g id="lattuce-8" transform="translate(-1310.866 -1224.366) rotate(13)"><path id="Tracciato_217-8" class="cls-26" d="M38.37,72.99s0-.12,.23,0,.28,.14,.4,.13,.53,.19,.31,.3-.39,.32-.39,.32l-.61-.67,.06-.08Z"/><path id="Tracciato_216-8" class="cls-23" d="M37.65,73.07s.01-.3,.39-.16,.41,.21,.41,.21l.14,.16-.52,.13-.33,.14-.09-.47Z"/><path id="Tracciato_215-8" class="cls-8" d="M37.81,73.31s.02-.27,.35-.12,.61,.06,.61,.06c0,0,.35-.09,.21,.34s-.86,.49-.86,.49l-.31-.76Z"/><path id="Tracciato_214-8" class="cls-9" d="M37.83,74.84s-.26,0-.46-.43-.09-.79,.02-1,.05-.3,.05-.3c0,0-.05-.17,.11-.11s.22,.28,.22,.28c.04,.05,.09,.1,.15,.12,.1,.04,.24,.43,.21,.63s-.17,.37,.02,.77c0,0-.21-.04-.33,.04Z"/><path id="Tracciato_219-8" class="cls-18" d="M37.95,74.9c-.07-.05-.35-.21-.41-.37s.02-.06,.02-.06c0,0,.14,.23,.32,.27s-.38-.21-.44-.68,.02-.25,.02-.25c0,0,.08,.58,.36,.7,0,0-.3-.51-.29-.88,0-.06,0-.11,0-.15,.02-.22,.05-.23,.08-.19,.04,.04,.01,.26,.06,.52,.03,.17,.08,.34,.14,.5,0-.27,.17-.7,.22-.58,.02,.05-.17,.72-.1,.83,.2,.19,.08,.38,.01,.34Z"/><path id="Tracciato_213-8" class="cls-11" d="M38.08,75.2s-.13-.03-.16-.04-.08-.04-.07-.11,.02-.13-.02-.18,.03-.13,.33-.09c0,0-.18-.23-.08-.6s.24-.34,.24-.34c0,0,.07,.01,.17-.1s.23-.14,.35-.13c.08,0,.16-.03,.21-.09,.02-.03,.03-.19,.14-.17s.15,.12,.22,.16,.07-.05,.15,.05,0,.11,.02,.2,.09,1.21-1.02,1.26c-.1,0-.16,0-.22,.1s-.25,.05-.25,.05Z"/><path id="Tracciato_218-8" class="cls-17" d="M37.9,74.88s.04,.1,.02,.17,.22,.09,.22,.09c0,0,.08,0,.11,0s.03-.13,.14-.15,.51-.07,.63-.19,0-.06,0-.06c0,0-.25,.16-.49,.14s.55-.05,.78-.47,.06-.24,.06-.24c0,0-.3,.51-.69,.52,0,0,.55-.37,.66-.72,.02-.06,.03-.1,.04-.15,.05-.21,.01-.23-.04-.21-.06,.03-.1,.24-.25,.46s-.35,.41-.35,.41c.08-.26,.02-.73-.08-.63-.04,.04-.02,.75-.15,.82-.1,.06-.19,.01-.16-.33,.06-.56-.04-.39-.05-.37-.25,.39-.1,.69-.04,.83-.04,.03-.04,.04-.06,.04-.07,.02-.18,0-.24,0-.03,0-.06,.05-.06,.05Z"/></g><g><rect class="cls-20" x="32.63" y="72.43" width=".52" height="2.92"/><rect class="cls-20" x="39.14" y="72.43" width=".52" height="2.92"/><rect class="cls-20" x="33.15" y="74.29" width="5.99" height="1.06"/><rect class="cls-20" x="33.15" y="73.07" width="5.99" height=".69"/></g><g><g id="lattuce-9" transform="translate(-1310.866 -1224.366) rotate(13)"><path id="Tracciato_217-9" class="cls-26" d="M45.71,66.12s0-.12,.23,0,.28,.14,.4,.13,.53,.19,.31,.3-.39,.32-.39,.32l-.61-.67,.06-.08Z"/><path id="Tracciato_216-9" class="cls-23" d="M45,66.2s.01-.3,.39-.16,.41,.21,.41,.21l.14,.16-.52,.13-.33,.14-.09-.47Z"/><path id="Tracciato_215-9" class="cls-8" d="M45.15,66.43s.02-.27,.35-.12,.61,.06,.61,.06c0,0,.35-.09,.21,.34s-.86,.49-.86,.49l-.31-.76Z"/><path id="Tracciato_214-9" class="cls-9" d="M45.18,67.96s-.26,0-.46-.43-.09-.79,.02-1,.05-.3,.05-.3c0,0-.05-.17,.11-.11s.22,.28,.22,.28c.04,.05,.09,.1,.15,.12,.1,.04,.24,.43,.21,.63s-.17,.37,.02,.77c0,0-.21-.04-.33,.04Z"/><path id="Tracciato_219-9" class="cls-18" d="M45.29,68.02c-.07-.05-.35-.21-.41-.37s.02-.06,.02-.06c0,0,.14,.23,.32,.27s-.38-.21-.44-.68,.02-.25,.02-.25c0,0,.08,.58,.36,.7,0,0-.3-.51-.29-.88,0-.06,0-.11,0-.15,.02-.22,.05-.23,.08-.19,.04,.04,.01,.26,.06,.52,.03,.17,.08,.34,.14,.5,0-.27,.17-.7,.22-.58,.02,.05-.17,.72-.1,.83,.2,.19,.08,.38,.01,.34Z"/><path id="Tracciato_213-9" class="cls-11" d="M45.43,68.32s-.13-.03-.16-.04-.08-.04-.07-.11,.02-.13-.02-.18,.03-.13,.33-.09c0,0-.18-.23-.08-.6s.24-.34,.24-.34c0,0,.07,.01,.17-.1s.23-.14,.35-.13c.08,0,.16-.03,.21-.09,.02-.03,.03-.19,.14-.17s.15,.12,.22,.16,.07-.05,.15,.05,0,.11,.02,.2,.09,1.21-1.02,1.26c-.1,0-.16,0-.22,.1s-.25,.05-.25,.05Z"/><path id="Tracciato_218-9" class="cls-17" d="M45.25,68.01s.04,.1,.02,.17,.22,.09,.22,.09c0,0,.08,0,.11,0s.03-.13,.14-.15,.51-.07,.63-.19,0-.06,0-.06c0,0-.25,.16-.49,.14s.55-.05,.78-.47,.06-.24,.06-.24c0,0-.3,.51-.69,.52,0,0,.55-.37,.66-.72,.02-.06,.03-.1,.04-.15,.05-.21,.01-.23-.04-.21-.06,.03-.1,.24-.25,.46s-.35,.41-.35,.41c.08-.26,.02-.73-.08-.63-.04,.04-.02,.75-.15,.82-.1,.06-.19,.01-.16-.33,.06-.56-.04-.39-.05-.37-.25,.39-.1,.69-.04,.83-.04,.03-.04,.04-.06,.04-.07,.02-.18,0-.24,0-.03,0-.06,.05-.06,.05Z"/></g><g id="lattuce-10" transform="translate(-1310.866 -1224.366) rotate(13)"><path id="Tracciato_217-10" class="cls-26" d="M45.54,66.95s0-.12,.23,0,.28,.14,.4,.13,.53,.19,.31,.3-.39,.32-.39,.32l-.61-.67,.06-.08Z"/><path id="Tracciato_216-10" class="cls-23" d="M44.82,67.03s.01-.3,.39-.16,.41,.21,.41,.21l.14,.16-.52,.13-.33,.14-.09-.47Z"/><path id="Tracciato_215-10" class="cls-8" d="M44.98,67.26s.02-.27,.35-.12,.61,.06,.61,.06c0,0,.35-.09,.21,.34s-.86,.49-.86,.49l-.31-.76Z"/><path id="Tracciato_214-10" class="cls-9" d="M45,68.79s-.26,0-.46-.43-.09-.79,.02-1,.05-.3,.05-.3c0,0-.05-.17,.11-.11s.22,.28,.22,.28c.04,.05,.09,.1,.15,.12,.1,.04,.24,.43,.21,.63s-.17,.37,.02,.77c0,0-.21-.04-.33,.04Z"/><path id="Tracciato_219-10" class="cls-18" d="M45.12,68.85c-.07-.05-.35-.21-.41-.37s.02-.06,.02-.06c0,0,.14,.23,.32,.27s-.38-.21-.44-.68,.02-.25,.02-.25c0,0,.08,.58,.36,.7,0,0-.3-.51-.29-.88,0-.06,0-.11,0-.15,.02-.22,.05-.23,.08-.19,.04,.04,.01,.26,.06,.52,.03,.17,.08,.34,.14,.5,0-.27,.17-.7,.22-.58,.02,.05-.17,.72-.1,.83,.2,.19,.08,.38,.01,.34Z"/><path id="Tracciato_213-10" class="cls-11" d="M45.25,69.15s-.13-.03-.16-.04-.08-.04-.07-.11,.02-.13-.02-.18,.03-.13,.33-.09c0,0-.18-.23-.08-.6s.24-.34,.24-.34c0,0,.07,.01,.17-.1s.23-.14,.35-.13c.08,0,.16-.03,.21-.09,.02-.03,.03-.19,.14-.17s.15,.12,.22,.16,.07-.05,.15,.05,0,.11,.02,.2,.09,1.21-1.02,1.26c-.1,0-.16,0-.22,.1s-.25,.05-.25,.05Z"/><path id="Tracciato_218-10" class="cls-17" d="M45.07,68.84s.04,.1,.02,.17,.22,.09,.22,.09c0,0,.08,0,.11,0s.03-.13,.14-.15,.51-.07,.63-.19,0-.06,0-.06c0,0-.25,.16-.49,.14s.55-.05,.78-.47,.06-.24,.06-.24c0,0-.3,.51-.69,.52,0,0,.55-.37,.66-.72,.02-.06,.03-.1,.04-.15,.05-.21,.01-.23-.04-.21-.06,.03-.1,.24-.25,.46s-.35,.41-.35,.41c.08-.26,.02-.73-.08-.63-.04,.04-.02,.75-.15,.82-.1,.06-.19,.01-.16-.33,.06-.56-.04-.39-.05-.37-.25,.39-.1,.69-.04,.83-.04,.03-.04,.04-.06,.04-.07,.02-.18,0-.24,0-.03,0-.06,.05-.06,.05Z"/></g><g id="lattuce-11" transform="translate(-1310.866 -1224.366) rotate(13)"><path id="Tracciato_217-11" class="cls-26" d="M46.95,65.72s0-.12,.23,0,.28,.14,.4,.13,.53,.19,.31,.3-.39,.32-.39,.32l-.61-.67,.06-.08Z"/><path id="Tracciato_216-11" class="cls-23" d="M46.23,65.8s.01-.3,.39-.16,.41,.21,.41,.21l.14,.16-.52,.13-.33,.14-.09-.47Z"/><path id="Tracciato_215-11" class="cls-8" d="M46.39,66.04s.02-.27,.35-.12,.61,.06,.61,.06c0,0,.35-.09,.21,.34s-.86,.49-.86,.49l-.31-.76Z"/><path id="Tracciato_214-11" class="cls-9" d="M46.41,67.56s-.26,0-.46-.43-.09-.79,.02-1,.05-.3,.05-.3c0,0-.05-.17,.11-.11s.22,.28,.22,.28c.04,.05,.09,.1,.15,.12,.1,.04,.24,.43,.21,.63s-.17,.37,.02,.77c0,0-.21-.04-.33,.04Z"/><path id="Tracciato_219-11" class="cls-18" d="M46.53,67.63c-.07-.05-.35-.21-.41-.37s.02-.06,.02-.06c0,0,.14,.23,.32,.27s-.38-.21-.44-.68,.02-.25,.02-.25c0,0,.08,.58,.36,.7,0,0-.3-.51-.29-.88,0-.06,0-.11,0-.15,.02-.22,.05-.23,.08-.19,.04,.04,.01,.26,.06,.52,.03,.17,.08,.34,.14,.5,0-.27,.17-.7,.22-.58,.02,.05-.17,.72-.1,.83,.2,.19,.08,.38,.01,.34Z"/><path id="Tracciato_213-11" class="cls-11" d="M46.66,67.93s-.13-.03-.16-.04-.08-.04-.07-.11,.02-.13-.02-.18,.03-.13,.33-.09c0,0-.18-.23-.08-.6s.24-.34,.24-.34c0,0,.07,.01,.17-.1s.23-.14,.35-.13c.08,0,.16-.03,.21-.09,.02-.03,.03-.19,.14-.17s.15,.12,.22,.16,.07-.05,.15,.05,0,.11,.02,.2,.09,1.21-1.02,1.26c-.1,0-.16,0-.22,.1s-.25,.05-.25,.05Z"/><path id="Tracciato_218-11" class="cls-17" d="M46.48,67.61s.04,.1,.02,.17,.22,.09,.22,.09c0,0,.08,0,.11,0s.03-.13,.14-.15,.51-.07,.63-.19,0-.06,0-.06c0,0-.25,.16-.49,.14s.55-.05,.78-.47,.06-.24,.06-.24c0,0-.3,.51-.69,.52,0,0,.55-.37,.66-.72,.02-.06,.03-.1,.04-.15,.05-.21,.01-.23-.04-.21-.06,.03-.1,.24-.25,.46s-.35,.41-.35,.41c.08-.26,.02-.73-.08-.63-.04,.04-.02,.75-.15,.82-.1,.06-.19,.01-.16-.33,.06-.56-.04-.39-.05-.37-.25,.39-.1,.69-.04,.83-.04,.03-.04,.04-.06,.04-.07,.02-.18,0-.24,0-.03,0-.06,.05-.06,.05Z"/></g><g id="lattuce-12" transform="translate(-1310.866 -1224.366) rotate(13)"><path id="Tracciato_217-12" class="cls-26" d="M47.16,66.83s0-.12,.23,0,.28,.14,.4,.13,.53,.19,.31,.3-.39,.32-.39,.32l-.61-.67,.06-.08Z"/><path id="Tracciato_216-12" class="cls-23" d="M46.45,66.91s.01-.3,.39-.16,.41,.21,.41,.21l.14,.16-.52,.13-.33,.14-.09-.47Z"/><path id="Tracciato_215-12" class="cls-8" d="M46.61,67.14s.02-.27,.35-.12,.61,.06,.61,.06c0,0,.35-.09,.21,.34s-.86,.49-.86,.49l-.31-.76Z"/><path id="Tracciato_214-12" class="cls-9" d="M46.63,68.67s-.26,0-.46-.43-.09-.79,.02-1,.05-.3,.05-.3c0,0-.05-.17,.11-.11s.22,.28,.22,.28c.04,.05,.09,.1,.15,.12,.1,.04,.24,.43,.21,.63s-.17,.37,.02,.77c0,0-.21-.04-.33,.04Z"/><path id="Tracciato_219-12" class="cls-18" d="M46.74,68.73c-.07-.05-.35-.21-.41-.37s.02-.06,.02-.06c0,0,.14,.23,.32,.27s-.38-.21-.44-.68,.02-.25,.02-.25c0,0,.08,.58,.36,.7,0,0-.3-.51-.29-.88,0-.06,0-.11,0-.15,.02-.22,.05-.23,.08-.19,.04,.04,.01,.26,.06,.52,.03,.17,.08,.34,.14,.5,0-.27,.17-.7,.22-.58,.02,.05-.17,.72-.1,.83,.2,.19,.08,.38,.01,.34Z"/><path id="Tracciato_213-12" class="cls-11" d="M46.88,69.03s-.13-.03-.16-.04-.08-.04-.07-.11,.02-.13-.02-.18,.03-.13,.33-.09c0,0-.18-.23-.08-.6s.24-.34,.24-.34c0,0,.07,.01,.17-.1s.23-.14,.35-.13c.08,0,.16-.03,.21-.09,.02-.03,.03-.19,.14-.17s.15,.12,.22,.16,.07-.05,.15,.05,0,.11,.02,.2,.09,1.21-1.02,1.26c-.1,0-.16,0-.22,.1s-.25,.05-.25,.05Z"/><path id="Tracciato_218-12" class="cls-17" d="M46.7,68.72s.04,.1,.02,.17,.22,.09,.22,.09c0,0,.08,0,.11,0s.03-.13,.14-.15,.51-.07,.63-.19,0-.06,0-.06c0,0-.25,.16-.49,.14s.55-.05,.78-.47,.06-.24,.06-.24c0,0-.3,.51-.69,.52,0,0,.55-.37,.66-.72,.02-.06,.03-.1,.04-.15,.05-.21,.01-.23-.04-.21-.06,.03-.1,.24-.25,.46s-.35,.41-.35,.41c.08-.26,.02-.73-.08-.63-.04,.04-.02,.75-.15,.82-.1,.06-.19,.01-.16-.33,.06-.56-.04-.39-.05-.37-.25,.39-.1,.69-.04,.83-.04,.03-.04,.04-.06,.04-.07,.02-.18,0-.24,0-.03,0-.06,.05-.06,.05Z"/></g><g id="lattuce-13" transform="translate(-1310.866 -1224.366) rotate(13)"><path id="Tracciato_217-13" class="cls-26" d="M48.6,66.17s0-.12,.23,0,.28,.14,.4,.13,.53,.19,.31,.3-.39,.32-.39,.32l-.61-.67,.06-.08Z"/><path id="Tracciato_216-13" class="cls-23" d="M47.88,66.25s.01-.3,.39-.16,.41,.21,.41,.21l.14,.16-.52,.13-.33,.14-.09-.47Z"/><path id="Tracciato_215-13" class="cls-8" d="M48.04,66.49s.02-.27,.35-.12,.61,.06,.61,.06c0,0,.35-.09,.21,.34s-.86,.49-.86,.49l-.31-.76Z"/><path id="Tracciato_214-13" class="cls-9" d="M48.07,68.01s-.26,0-.46-.43-.09-.79,.02-1,.05-.3,.05-.3c0,0-.05-.17,.11-.11s.22,.28,.22,.28c.04,.05,.09,.1,.15,.12,.1,.04,.24,.43,.21,.63s-.17,.37,.02,.77c0,0-.21-.04-.33,.04Z"/><path id="Tracciato_219-13" class="cls-18" d="M48.18,68.08c-.07-.05-.35-.21-.41-.37s.02-.06,.02-.06c0,0,.14,.23,.32,.27s-.38-.21-.44-.68,.02-.25,.02-.25c0,0,.08,.58,.36,.7,0,0-.3-.51-.29-.88,0-.06,0-.11,0-.15,.02-.22,.05-.23,.08-.19,.04,.04,.01,.26,.06,.52,.03,.17,.08,.34,.14,.5,0-.27,.17-.7,.22-.58,.02,.05-.17,.72-.1,.83,.2,.19,.08,.38,.01,.34Z"/><path id="Tracciato_213-13" class="cls-11" d="M48.31,68.37s-.13-.03-.16-.04-.08-.04-.07-.11,.02-.13-.02-.18,.03-.13,.33-.09c0,0-.18-.23-.08-.6s.24-.34,.24-.34c0,0,.07,.01,.17-.1s.23-.14,.35-.13c.08,0,.16-.03,.21-.09,.02-.03,.03-.19,.14-.17s.15,.12,.22,.16,.07-.05,.15,.05,0,.11,.02,.2,.09,1.21-1.02,1.26c-.1,0-.16,0-.22,.1s-.25,.05-.25,.05Z"/><path id="Tracciato_218-13" class="cls-17" d="M48.14,68.06s.04,.1,.02,.17,.22,.09,.22,.09c0,0,.08,0,.11,0s.03-.13,.14-.15,.51-.07,.63-.19,0-.06,0-.06c0,0-.25,.16-.49,.14s.55-.05,.78-.47,.06-.24,.06-.24c0,0-.3,.51-.69,.52,0,0,.55-.37,.66-.72,.02-.06,.03-.1,.04-.15,.05-.21,.01-.23-.04-.21-.06,.03-.1,.24-.25,.46s-.35,.41-.35,.41c.08-.26,.02-.73-.08-.63-.04,.04-.02,.75-.15,.82-.1,.06-.19,.01-.16-.33,.06-.56-.04-.39-.05-.37-.25,.39-.1,.69-.04,.83-.04,.03-.04,.04-.06,.04-.07,.02-.18,0-.24,0-.03,0-.06,.05-.06,.05Z"/></g><g id="lattuce-14" transform="translate(-1310.866 -1224.366) rotate(13)"><path id="Tracciato_217-14" class="cls-26" d="M49.85,65.83s0-.12,.23,0,.28,.14,.4,.13,.53,.19,.31,.3-.39,.32-.39,.32l-.61-.67,.06-.08Z"/><path id="Tracciato_216-14" class="cls-23" d="M49.13,65.9s.01-.3,.39-.16,.41,.21,.41,.21l.14,.16-.52,.13-.33,.14-.09-.47Z"/><path id="Tracciato_215-14" class="cls-8" d="M49.29,66.14s.02-.27,.35-.12,.61,.06,.61,.06c0,0,.35-.09,.21,.34s-.86,.49-.86,.49l-.31-.76Z"/><path id="Tracciato_214-14" class="cls-9" d="M49.32,67.67s-.26,0-.46-.43-.09-.79,.02-1,.05-.3,.05-.3c0,0-.05-.17,.11-.11s.22,.28,.22,.28c.04,.05,.09,.1,.15,.12,.1,.04,.24,.43,.21,.63s-.17,.37,.02,.77c0,0-.21-.04-.33,.04Z"/><path id="Tracciato_219-14" class="cls-18" d="M49.43,67.73c-.07-.05-.35-.21-.41-.37s.02-.06,.02-.06c0,0,.14,.23,.32,.27s-.38-.21-.44-.68,.02-.25,.02-.25c0,0,.08,.58,.36,.7,0,0-.3-.51-.29-.88,0-.06,0-.11,0-.15,.02-.22,.05-.23,.08-.19,.04,.04,.01,.26,.06,.52,.03,.17,.08,.34,.14,.5,0-.27,.17-.7,.22-.58,.02,.05-.17,.72-.1,.83,.2,.19,.08,.38,.01,.34Z"/><path id="Tracciato_213-14" class="cls-11" d="M49.57,68.03s-.13-.03-.16-.04-.08-.04-.07-.11,.02-.13-.02-.18,.03-.13,.33-.09c0,0-.18-.23-.08-.6s.24-.34,.24-.34c0,0,.07,.01,.17-.1s.23-.14,.35-.13c.08,0,.16-.03,.21-.09,.02-.03,.03-.19,.14-.17s.15,.12,.22,.16,.07-.05,.15,.05,0,.11,.02,.2,.09,1.21-1.02,1.26c-.1,0-.16,0-.22,.1s-.25,.05-.25,.05Z"/><path id="Tracciato_218-14" class="cls-17" d="M49.39,67.72s.04,.1,.02,.17,.22,.09,.22,.09c0,0,.08,0,.11,0s.03-.13,.14-.15,.51-.07,.63-.19,0-.06,0-.06c0,0-.25,.16-.49,.14s.55-.05,.78-.47,.06-.24,.06-.24c0,0-.3,.51-.69,.52,0,0,.55-.37,.66-.72,.02-.06,.03-.1,.04-.15,.05-.21,.01-.23-.04-.21-.06,.03-.1,.24-.25,.46s-.35,.41-.35,.41c.08-.26,.02-.73-.08-.63-.04,.04-.02,.75-.15,.82-.1,.06-.19,.01-.16-.33,.06-.56-.04-.39-.05-.37-.25,.39-.1,.69-.04,.83-.04,.03-.04,.04-.06,.04-.07,.02-.18,0-.24,0-.03,0-.06,.05-.06,.05Z"/></g><g id="lattuce-15" transform="translate(-1310.866 -1224.366) rotate(13)"><path id="Tracciato_217-15" class="cls-26" d="M48.88,67.11s0-.12,.23,0,.28,.14,.4,.13,.53,.19,.31,.3-.39,.32-.39,.32l-.61-.67,.06-.08Z"/><path id="Tracciato_216-15" class="cls-23" d="M48.17,67.19s.01-.3,.39-.16,.41,.21,.41,.21l.14,.16-.52,.13-.33,.14-.09-.47Z"/><path id="Tracciato_215-15" class="cls-8" d="M48.32,67.43s.02-.27,.35-.12,.61,.06,.61,.06c0,0,.35-.09,.21,.34s-.86,.49-.86,.49l-.31-.76Z"/><path id="Tracciato_214-15" class="cls-9" d="M48.35,68.96s-.26,0-.46-.43-.09-.79,.02-1,.05-.3,.05-.3c0,0-.05-.17,.11-.11s.22,.28,.22,.28c.04,.05,.09,.1,.15,.12,.1,.04,.24,.43,.21,.63s-.17,.37,.02,.77c0,0-.21-.04-.33,.04Z"/><path id="Tracciato_219-15" class="cls-18" d="M48.46,69.02c-.07-.05-.35-.21-.41-.37s.02-.06,.02-.06c0,0,.14,.23,.32,.27s-.38-.21-.44-.68,.02-.25,.02-.25c0,0,.08,.58,.36,.7,0,0-.3-.51-.29-.88,0-.06,0-.11,0-.15,.02-.22,.05-.23,.08-.19,.04,.04,.01,.26,.06,.52,.03,.17,.08,.34,.14,.5,0-.27,.17-.7,.22-.58,.02,.05-.17,.72-.1,.83,.2,.19,.08,.38,.01,.34Z"/><path id="Tracciato_213-15" class="cls-11" d="M48.6,69.32s-.13-.03-.16-.04-.08-.04-.07-.11,.02-.13-.02-.18,.03-.13,.33-.09c0,0-.18-.23-.08-.6s.24-.34,.24-.34c0,0,.07,.01,.17-.1s.23-.14,.35-.13c.08,0,.16-.03,.21-.09,.02-.03,.03-.19,.14-.17s.15,.12,.22,.16,.07-.05,.15,.05,0,.11,.02,.2,.09,1.21-1.02,1.26c-.1,0-.16,0-.22,.1s-.25,.05-.25,.05Z"/><path id="Tracciato_218-15" class="cls-17" d="M48.42,69s.04,.1,.02,.17,.22,.09,.22,.09c0,0,.08,0,.11,0s.03-.13,.14-.15,.51-.07,.63-.19,0-.06,0-.06c0,0-.25,.16-.49,.14s.55-.05,.78-.47,.06-.24,.06-.24c0,0-.3,.51-.69,.52,0,0,.55-.37,.66-.72,.02-.06,.03-.1,.04-.15,.05-.21,.01-.23-.04-.21-.06,.03-.1,.24-.25,.46s-.35,.41-.35,.41c.08-.26,.02-.73-.08-.63-.04,.04-.02,.75-.15,.82-.1,.06-.19,.01-.16-.33,.06-.56-.04-.39-.05-.37-.25,.39-.1,.69-.04,.83-.04,.03-.04,.04-.06,.04-.07,.02-.18,0-.24,0-.03,0-.06,.05-.06,.05Z"/></g><g id="lattuce-16" transform="translate(-1310.866 -1224.366) rotate(13)"><path id="Tracciato_217-16" class="cls-26" d="M50.11,67.09s0-.12,.23,0,.28,.14,.4,.13,.53,.19,.31,.3-.39,.32-.39,.32l-.61-.67,.06-.08Z"/><path id="Tracciato_216-16" class="cls-23" d="M49.4,67.16s.01-.3,.39-.16,.41,.21,.41,.21l.14,.16-.52,.13-.33,.14-.09-.47Z"/><path id="Tracciato_215-16" class="cls-8" d="M49.55,67.4s.02-.27,.35-.12,.61,.06,.61,.06c0,0,.35-.09,.21,.34s-.86,.49-.86,.49l-.31-.76Z"/><path id="Tracciato_214-16" class="cls-9" d="M49.58,68.93s-.26,0-.46-.43-.09-.79,.02-1,.05-.3,.05-.3c0,0-.05-.17,.11-.11s.22,.28,.22,.28c.04,.05,.09,.1,.15,.12,.1,.04,.24,.43,.21,.63s-.17,.37,.02,.77c0,0-.21-.04-.33,.04Z"/><path id="Tracciato_219-16" class="cls-18" d="M49.69,68.99c-.07-.05-.35-.21-.41-.37s.02-.06,.02-.06c0,0,.14,.23,.32,.27s-.38-.21-.44-.68,.02-.25,.02-.25c0,0,.08,.58,.36,.7,0,0-.3-.51-.29-.88,0-.06,0-.11,0-.15,.02-.22,.05-.23,.08-.19,.04,.04,.01,.26,.06,.52,.03,.17,.08,.34,.14,.5,0-.27,.17-.7,.22-.58,.02,.05-.17,.72-.1,.83,.2,.19,.08,.38,.01,.34Z"/><path id="Tracciato_213-16" class="cls-11" d="M49.83,69.29s-.13-.03-.16-.04-.08-.04-.07-.11,.02-.13-.02-.18,.03-.13,.33-.09c0,0-.18-.23-.08-.6s.24-.34,.24-.34c0,0,.07,.01,.17-.1s.23-.14,.35-.13c.08,0,.16-.03,.21-.09,.02-.03,.03-.19,.14-.17s.15,.12,.22,.16,.07-.05,.15,.05,0,.11,.02,.2,.09,1.21-1.02,1.26c-.1,0-.16,0-.22,.1s-.25,.05-.25,.05Z"/><path id="Tracciato_218-16" class="cls-17" d="M49.65,68.98s.04,.1,.02,.17,.22,.09,.22,.09c0,0,.08,0,.11,0s.03-.13,.14-.15,.51-.07,.63-.19,0-.06,0-.06c0,0-.25,.16-.49,.14s.55-.05,.78-.47,.06-.24,.06-.24c0,0-.3,.51-.69,.52,0,0,.55-.37,.66-.72,.02-.06,.03-.1,.04-.15,.05-.21,.01-.23-.04-.21-.06,.03-.1,.24-.25,.46s-.35,.41-.35,.41c.08-.26,.02-.73-.08-.63-.04,.04-.02,.75-.15,.82-.1,.06-.19,.01-.16-.33,.06-.56-.04-.39-.05-.37-.25,.39-.1,.69-.04,.83-.04,.03-.04,.04-.06,.04-.07,.02-.18,0-.24,0-.03,0-.06,.05-.06,.05Z"/></g><g><rect class="cls-20" x="44.37" y="66.52" width=".52" height="2.92"/><rect class="cls-20" x="50.89" y="66.52" width=".52" height="2.92"/><rect class="cls-20" x="44.89" y="68.38" width="5.99" height="1.06"/><rect class="cls-20" x="44.89" y="67.16" width="5.99" height=".69"/></g></g><g><path class="cls-4" d="M46.98,72.73s-.14,.64-.79,1.14c-.5,.41-.27,.9,.11,1,.5,.13,1.11-.14,1.28-.94,.15-.68,.27-1.22-.03-1.54-.36-.41-.58,.34-.58,.34Z"/><path class="cls-25" d="M47.5,72.9s.02,.71-.22,1.13c-.42,.63-.8,.63-.88,.64-.16,.02-.2,.14-.17,.18,.21,.08,1.47,.38,1.5-2.02l-.07-.26-.2,.06,.04,.26Z"/><path class="cls-27" d="M47.3,72.19s.04-.18,.03-.29,.06-.08,.06-.08c0,0,.08,0,.09,.14s.05,.27,.05,.27c0,0,.1,.06,.16,.15s.04,.23,.04,.23c0,0-.02,.15,.12,.24,.04,.03-.05,.01-.05,.01,0,0-.07,.02-.18-.17,0,0-.02,.21-.29,.29,0,0,.07-.23-.12-.42,0,0-.07,.18-.3,.18-.02,0,.01-.05,.01-.05,0,0,.08-.08,.1-.21s.08-.23,.28-.3Z"/><path class="cls-29" d="M47.32,72.99s.1-.06,.16-.13c.03-.04,.06-.07,.1-.17,.01-.04,.03,0,.03,0,0,0,0,.2-.29,.29Z"/><path class="cls-29" d="M46.91,72.75s.09-.03,.16-.07c.03-.02,.07-.05,.11-.12,.02-.03,.03,0,.03,0,0,0-.08,.18-.3,.18Z"/></g><g><path class="cls-4" d="M46.32,72.8s-.27,.6-1.01,.95c-.57,.29-.45,.82-.1,1,.46,.23,1.11,.1,1.45-.64,.29-.64,.52-1.14,.3-1.52-.27-.47-.64,.21-.64,.21Z"/><path class="cls-25" d="M46.8,73.07s-.13,.7-.45,1.06c-.54,.53-.91,.45-1,.44-.16-.01-.22,.09-.2,.14,.19,.13,1.36,.68,1.9-1.65l-.02-.26h-.21l-.02,.28Z"/><path class="cls-27" d="M46.76,72.34s.08-.17,.09-.28,.08-.06,.08-.06c0,0,.08,.02,.05,.15s-.01,.28-.01,.28c0,0,.08,.08,.12,.18s0,.24,0,.24c0,0-.05,.14,.06,.26,.03,.03-.05,0-.05,0,0,0-.07,0-.14-.2,0,0-.07,.2-.35,.22,0,0,.12-.21-.03-.44,0,0-.11,.16-.33,.12-.02,0,.02-.05,.02-.05,0,0,.09-.06,.14-.19s.13-.2,.34-.24Z"/><path class="cls-29" d="M46.61,73.13s.11-.03,.18-.09c.04-.03,.08-.06,.13-.14,.02-.03,.03,0,.03,0,0,0-.05,.2-.35,.22Z"/><path class="cls-29" d="M46.25,72.81s.1,0,.17-.04c.04-.02,.07-.03,.13-.09,.02-.02,.03,.02,.03,.02,0,0-.11,.16-.33,.11Z"/></g><g><path class="cls-4" d="M46.44,72.75s-.06,.66,.4,1.33c.35,.54-.02,.94-.41,.92-.51-.03-1.01-.47-.93-1.28,.07-.7,.11-1.25,.5-1.46,.47-.27,.45,.5,.45,.5Z"/><path class="cls-25" d="M45.89,72.75s-.24,.67-.14,1.15c.21,.73,.56,.85,.64,.88,.15,.07,.15,.19,.11,.22-.23,.01-1.51-.09-.81-2.38l.15-.22,.17,.12-.12,.24Z"/><path class="cls-27" d="M46.3,72.13s.01-.18,.06-.28-.04-.09-.04-.09c0,0-.08-.02-.12,.1s-.13,.25-.13,.25c0,0-.11,.02-.19,.09s-.11,.21-.11,.21c0,0-.03,.15-.18,.19-.04,.01,.04,.03,.04,.03,0,0,.06,.04,.22-.1,0,0-.04,.21,.19,.37,0,0,0-.24,.24-.36,0,0,.02,.19,.23,.27,.02,0,0-.05,0-.05,0,0-.05-.1-.03-.24s-.01-.24-.17-.37Z"/><path class="cls-29" d="M46.03,72.89s-.08-.08-.11-.17c-.02-.04-.04-.09-.04-.19,0-.04-.03,0-.03,0,0,0-.05,.19,.19,.37Z"/><path class="cls-29" d="M46.5,72.79s-.08-.05-.13-.12c-.02-.03-.05-.06-.07-.15,0-.03-.03,0-.03,0,0,0,.02,.19,.23,.27Z"/></g><rect class="cls-2" x="40.11" y="63.72" width="3.84" height="1.82"/><g><path class="cls-4" d="M45.51,72.73s.02,.66,.55,1.27c.41,.49,.09,.94-.3,.96-.51,.03-1.06-.35-1.08-1.16-.01-.7-.03-1.25,.32-1.51,.44-.33,.5,.44,.5,.44Z"/><path class="cls-25" d="M44.96,72.79s-.16,.7,0,1.15c.29,.7,.66,.77,.74,.8,.15,.05,.17,.17,.13,.2-.23,.04-1.51,.09-1.09-2.27l.12-.24,.19,.09-.09,.25Z"/><path class="cls-27" d="M45.29,72.13s0-.18,.02-.29-.05-.09-.05-.09c0,0-.08-.01-.11,.12s-.1,.26-.1,.26c0,0-.11,.04-.18,.12s-.09,.22-.09,.22c0,0-.01,.15-.16,.21-.04,.02,.04,.02,.04,.02,0,0,.06,.04,.21-.13,0,0-.02,.21,.23,.34,0,0-.03-.24,.2-.39,0,0,.04,.19,.26,.24,.02,0,0-.05,0-.05,0,0-.06-.09-.06-.23s-.04-.24-.22-.35Z"/><path class="cls-29" d="M45.12,72.91s-.09-.07-.13-.16c-.02-.04-.05-.08-.07-.18,0-.04-.03,0-.03,0,0,0-.03,.2,.23,.34Z"/><path class="cls-29" d="M45.57,72.76s-.09-.04-.14-.1c-.03-.03-.06-.06-.09-.14-.01-.03-.03,0-.03,0,0,0,.04,.19,.26,.24Z"/></g><g><path class="cls-4" d="M44.15,72.77s.24,.61-.03,1.39c-.19,.61,.27,.9,.64,.77,.48-.17,.85-.73,.55-1.49-.25-.65-.45-1.17-.87-1.27-.53-.14-.3,.6-.3,.6Z"/><path class="cls-25" d="M44.68,72.62s.41,.58,.44,1.07c0,.76-.32,.97-.38,1.02-.12,.11-.09,.22-.05,.24,.22-.05,1.43-.49,.14-2.51l-.2-.17-.14,.16,.18,.2Z"/><path class="cls-27" d="M44.12,72.14s-.06-.17-.13-.26,.01-.1,.01-.1c0,0,.07-.04,.15,.07s.19,.2,.19,.2c0,0,.11,0,.21,.04s.16,.17,.16,.17c0,0,.07,.14,.23,.13,.04,0-.03,.04-.03,.04,0,0-.04,.06-.24-.04,0,0,.1,.19-.08,.41,0,0-.07-.23-.33-.29,0,0,.04,.19-.15,.32-.02,.01-.02-.05-.02-.05,0,0,.02-.11-.03-.23s-.06-.23,.07-.41Z"/><path class="cls-29" d="M44.59,72.8s.05-.1,.06-.2c0-.05,.01-.09,0-.19,0-.04,.03-.02,.03-.02,0,0,.1,.17-.08,.41Z"/><path class="cls-29" d="M44.11,72.83s.06-.07,.09-.15c.01-.04,.03-.07,.03-.16,0-.03,.03,0,.03,0,0,0,.03,.19-.15,.32Z"/></g><g><path class="cls-4" d="M44.14,72.97s.05,.66,.62,1.24c.43,.47,.14,.93-.25,.97-.51,.06-1.08-.29-1.14-1.11-.05-.7-.1-1.25,.25-1.52,.42-.35,.52,.42,.52,.42Z"/><path class="cls-25" d="M43.6,73.06s-.12,.7,.05,1.15c.32,.68,.7,.74,.78,.76,.15,.04,.18,.16,.14,.2-.22,.05-1.51,.16-1.2-2.21l.11-.24,.19,.08-.07,.26Z"/><path class="cls-27" d="M43.89,72.38s-.02-.18,.01-.29-.05-.09-.05-.09c0,0-.08-.01-.1,.12s-.08,.27-.08,.27c0,0-.11,.04-.18,.12s-.07,.23-.07,.23c0,0,0,.15-.15,.22-.04,.02,.04,.02,.04,.02,0,0,.06,.03,.2-.14,0,0,0,.21,.25,.33,0,0-.04-.24,.18-.4,0,0,.05,.18,.27,.22,.02,0,0-.05,0-.05,0,0-.06-.09-.07-.23s-.05-.24-.23-.34Z"/><path class="cls-29" d="M43.76,73.17s-.09-.07-.14-.15c-.02-.04-.05-.08-.07-.18,0-.04-.03,0-.03,0,0,0-.02,.2,.25,.33Z"/><path class="cls-29" d="M44.2,72.99s-.09-.04-.15-.1c-.03-.03-.06-.05-.09-.13-.01-.03-.03,0-.03,0,0,0,.05,.19,.27,.22Z"/></g><g><path class="cls-4" d="M43.35,72.8s.05,.66,.62,1.24c.43,.47,.14,.93-.25,.97-.51,.06-1.08-.29-1.14-1.11-.05-.7-.1-1.25,.25-1.52,.42-.35,.52,.42,.52,.42Z"/><path class="cls-25" d="M42.81,72.89s-.12,.7,.05,1.15c.32,.68,.7,.74,.78,.76,.15,.04,.18,.16,.14,.2-.22,.05-1.51,.16-1.2-2.21l.11-.24,.19,.08-.07,.26Z"/><path class="cls-27" d="M43.11,72.21s-.02-.18,.01-.29-.05-.09-.05-.09c0,0-.08-.01-.1,.12s-.08,.27-.08,.27c0,0-.11,.04-.18,.12s-.07,.23-.07,.23c0,0,0,.15-.15,.22-.04,.02,.04,.02,.04,.02,0,0,.06,.03,.2-.14,0,0,0,.21,.25,.33,0,0-.04-.24,.18-.4,0,0,.05,.18,.27,.22,.02,0,0-.05,0-.05,0,0-.06-.09-.07-.23s-.05-.24-.23-.34Z"/><path class="cls-29" d="M42.97,73s-.09-.07-.14-.15c-.02-.04-.05-.08-.07-.18,0-.04-.03,0-.03,0,0,0-.02,.2,.25,.33Z"/><path class="cls-29" d="M43.42,72.82s-.09-.04-.15-.1c-.03-.03-.06-.05-.09-.13-.01-.03-.03,0-.03,0,0,0,.05,.19,.27,.22Z"/></g><g><path class="cls-4" d="M42.54,72.88s-.1,.65,.32,1.35c.31,.56-.08,.94-.47,.89-.51-.06-.98-.53-.85-1.34,.11-.69,.19-1.24,.59-1.43,.49-.24,.42,.53,.42,.53Z"/><path class="cls-25" d="M41.99,72.84s-.28,.66-.21,1.14c.16,.74,.51,.88,.58,.92,.14,.08,.14,.2,.09,.23-.23,0-1.51-.18-.67-2.43l.16-.21,.17,.13-.13,.23Z"/><path class="cls-27" d="M42.44,72.25s.03-.18,.08-.28-.03-.1-.03-.1c0,0-.08-.03-.13,.1s-.14,.24-.14,.24c0,0-.11,.02-.2,.08s-.12,.2-.12,.2c0,0-.04,.15-.19,.18-.04,.01,.04,.03,.04,.03,0,0,.05,.05,.23-.09,0,0-.06,.21,.17,.38,0,0,.02-.24,.26-.35,0,0,0,.19,.21,.28,.02,0,0-.05,0-.05,0,0-.04-.1-.02-.24s0-.24-.15-.38Z"/><path class="cls-29" d="M42.12,72.99s-.07-.09-.1-.18c-.02-.04-.03-.09-.03-.19,0-.04-.03,0-.03,0,0,0-.07,.19,.17,.38Z"/><path class="cls-29" d="M42.6,72.92s-.08-.06-.12-.13c-.02-.03-.04-.07-.06-.15,0-.03-.03,0-.03,0,0,0,0,.19,.21,.28Z"/></g><g><path class="cls-4" d="M42.02,72.96s.05,.66,.62,1.24c.43,.47,.14,.93-.25,.97-.51,.06-1.08-.29-1.14-1.11-.05-.7-.1-1.25,.25-1.52,.42-.35,.52,.42,.52,.42Z"/><path class="cls-25" d="M41.48,73.05s-.12,.7,.05,1.15c.32,.68,.7,.74,.78,.76,.15,.04,.18,.16,.14,.2-.22,.05-1.51,.16-1.2-2.21l.11-.24,.19,.08-.07,.26Z"/><path class="cls-27" d="M41.77,72.37s-.02-.18,.01-.29-.05-.09-.05-.09c0,0-.08-.01-.1,.12s-.08,.27-.08,.27c0,0-.11,.04-.18,.12s-.07,.23-.07,.23c0,0,0,.15-.15,.22-.04,.02,.04,.02,.04,.02,0,0,.06,.03,.2-.14,0,0,0,.21,.25,.33,0,0-.04-.24,.18-.4,0,0,.05,.18,.27,.22,.02,0,0-.05,0-.05,0,0-.06-.09-.07-.23s-.05-.24-.23-.34Z"/><path class="cls-29" d="M41.64,73.16s-.09-.07-.14-.15c-.02-.04-.05-.08-.07-.18,0-.04-.03,0-.03,0,0,0-.02,.2,.25,.33Z"/><path class="cls-29" d="M42.08,72.98s-.09-.04-.15-.1c-.03-.03-.06-.05-.09-.13-.01-.03-.03,0-.03,0,0,0,.05,.19,.27,.22Z"/></g><g><rect class="cls-20" x="41.01" y="72.32" width=".52" height="2.92"/><rect class="cls-20" x="47.53" y="72.32" width=".52" height="2.92"/><rect class="cls-20" x="41.53" y="74.19" width="5.99" height="1.06"/><rect class="cls-20" x="41.53" y="72.97" width="5.99" height=".69"/></g><text class="cls-1" transform="translate(25.89 34.17)"><tspan x="0" y="0">MARKET</tspan></text></g></svg>