<?xml version="1.0" encoding="UTF-8"?>
<svg id="Livello_1" data-name="Livello 1" xmlns="http://www.w3.org/2000/svg" version="1.1" viewBox="0 0 283.5 260.7">
  <defs>
    <style>
      .cls-1 {
        fill: #97c1ea;
      }

      .cls-1, .cls-2, .cls-3, .cls-4, .cls-5, .cls-6, .cls-7, .cls-8, .cls-9, .cls-10 {
        stroke-width: 0px;
      }

      .cls-2 {
        fill: #d9d8d9;
      }

      .cls-3 {
        fill: #efefee;
      }

      .cls-4 {
        fill: #5e8fca;
      }

      .cls-5 {
        fill: #dfdede;
      }

      .cls-6 {
        fill: #afcddb;
      }

      .cls-7 {
        fill: #5b798c;
      }

      .cls-8 {
        fill: #b5d6e8;
      }

      .cls-9 {
        fill: #77a8c7;
      }

      .cls-10, .cls-11 {
        fill: #fff;
      }

      .cls-11 {
        stroke: #000;
        stroke-miterlimit: 10;
        stroke-width: 1.2px;
      }
    </style>
  </defs>
  <g>
    <rect class="cls-6" x="18.9" y="8.5" width="132.9" height="203.9" rx="19.1" ry="19.1" transform="translate(-22.7 22) rotate(-13)"/>
    <path class="cls-7" d="M108.6,192.3c.5,2.2-.8,4.4-3.1,4.9h0c-2.2.5-4.4-.8-4.9-3.1L62.1,28.3c-.5-2.2.8-4.4,3.1-4.9h0c2.2-.5,4.4.8,4.9,3.1l38.4,165.7Z"/>
    <g>
      <g>
        <g>
          <path class="cls-5" d="M56.7,46.1c2.1,9.7-4,19.1-13.6,21.2s-19.1-4-21.2-13.5c-2.1-9.7,4-19.1,13.5-21.2,9.7-2.1,19.1,4,21.2,13.5h.1Z"/>
          <path class="cls-10" d="M55,45.6c2.1,9.7-4,19.1-13.6,21.2s-19.1-4-21.2-13.5c-2.1-9.7,4-19.1,13.5-21.2,9.7-2.1,19.1,4,21.2,13.6h.1Z"/>
          <path class="cls-5" d="M42.2,59.1c.2,1.3-.6,2.6-1.9,2.9h0c-1.3.2-2.6-.6-2.9-1.9l-4.5-20.5c-.2-1.3.6-2.6,1.9-2.9h0c1.3-.2,2.6.6,2.9,1.9l4.5,20.5Z"/>
        </g>
        <g>
          <path class="cls-5" d="M118.9,31.7c2.1,9.7-4,19.1-13.5,21.2-9.7,2.1-19.1-4-21.2-13.5-2.1-9.7,4-19.1,13.5-21.2,9.7-2.1,19.1,4,21.2,13.5Z"/>
          <path class="cls-10" d="M117.2,31.2c2.1,9.7-4,19.1-13.6,21.2-9.7,2.1-19.1-4-21.2-13.5-2.1-9.7,4-19.1,13.6-21.2s19.1,4,21.2,13.6h0Z"/>
          <path class="cls-5" d="M104.5,44.8c.2,1.3-.6,2.6-1.9,2.9h0c-1.3.2-2.6-.6-2.9-1.9l-4.5-20.5c-.2-1.3.6-2.6,1.9-2.9h0c1.3-.2,2.6.6,2.9,1.9l4.5,20.5Z"/>
        </g>
      </g>
      <g>
        <g>
          <path class="cls-5" d="M67.1,91.2c2.1,9.7-4,19.1-13.6,21.2s-19.1-4-21.2-13.5c-2.1-9.7,4-19.1,13.6-21.2s19.1,4,21.2,13.6h0Z"/>
          <path class="cls-10" d="M65.5,90.9c2.1,9.7-4,19.1-13.6,21.2s-19.1-4-21.2-13.6c-2.1-9.7,4-19.1,13.6-21.2,9.7-2.1,19.1,4,21.2,13.5h0Z"/>
          <path class="cls-5" d="M52.7,104.4c.2,1.3-.6,2.6-1.9,2.9h0c-1.3.2-2.6-.6-2.9-1.9l-4.5-20.5c-.2-1.3.6-2.6,1.9-2.9h0c1.3-.2,2.6.6,2.9,1.9l4.5,20.5Z"/>
        </g>
        <g>
          <path class="cls-5" d="M129.4,76.9c2.1,9.7-4,19.1-13.6,21.2s-19.1-4-21.2-13.5c-2.1-9.7,4-19.1,13.5-21.2,9.7-2.1,19.1,4,21.2,13.6h.1Z"/>
          <path class="cls-10" d="M127.7,76.5c2.1,9.7-4,19.1-13.6,21.2-9.7,2.1-19.1-4-21.2-13.6-2.1-9.7,4-19.1,13.6-21.2,9.7-2.1,19.1,4,21.2,13.5h0Z"/>
          <path class="cls-5" d="M115,90c.2,1.3-.6,2.6-1.9,2.9h0c-1.3.2-2.6-.6-2.9-1.9l-4.5-20.5c-.2-1.3.6-2.6,1.9-2.9h0c1.3-.2,2.6.6,2.9,1.9l4.5,20.5Z"/>
        </g>
      </g>
      <g>
        <g>
          <path class="cls-5" d="M77.6,136.5c2.1,9.7-4,19.1-13.6,21.2s-19.1-4-21.2-13.6,4-19.1,13.6-21.2c9.7-2.1,19.1,4,21.2,13.5h0Z"/>
          <path class="cls-10" d="M76,136.1c2.1,9.7-4,19.1-13.5,21.2-9.7,2.1-19.1-4-21.2-13.5-2.1-9.7,4-19.1,13.5-21.2,9.7-2.1,19.1,4,21.2,13.5Z"/>
          <path class="cls-5" d="M63.2,149.7c.2,1.3-.6,2.6-1.9,2.9h0c-1.3.2-2.6-.6-2.9-1.9l-4.5-20.5c-.2-1.3.6-2.6,1.9-2.9h0c1.3-.2,2.6.6,2.9,1.9l4.5,20.5Z"/>
        </g>
        <g>
          <path class="cls-5" d="M139.9,122.2c2.1,9.7-4,19.1-13.5,21.2-9.7,2.1-19.1-4-21.2-13.6s4-19.1,13.5-21.2c9.7-2.1,19.1,4,21.2,13.5h0Z"/>
          <path class="cls-10" d="M138.1,121.7c2.1,9.7-4,19.1-13.6,21.2s-19.1-4-21.2-13.5c-2.1-9.7,4-19.1,13.6-21.2s19.1,4,21.2,13.5Z"/>
          <path class="cls-5" d="M125.5,135.2c.2,1.3-.6,2.6-1.9,2.9h0c-1.3.2-2.6-.6-2.9-1.9l-4.5-20.5c-.2-1.3.6-2.6,1.9-2.9h0c1.3-.2,2.6.6,2.9,1.9l4.5,20.5Z"/>
        </g>
      </g>
      <g>
        <g>
          <path class="cls-5" d="M88.1,181.8c2.1,9.7-4,19.1-13.6,21.2s-19.1-4-21.2-13.5c-2.1-9.7,4-19.1,13.6-21.2s19.1,4,21.2,13.5Z"/>
          <path class="cls-10" d="M86.5,181.3c2.1,9.7-4,19.1-13.5,21.2-9.7,2.1-19.1-4-21.2-13.5-2.1-9.7,4-19.1,13.5-21.2,9.7-2.1,19.1,4,21.2,13.5Z"/>
          <path class="cls-5" d="M73.7,195c.2,1.3-.6,2.6-1.9,2.9h0c-1.3.2-2.6-.6-2.9-1.9l-4.5-20.5c-.2-1.3.6-2.6,1.9-2.9h0c1.3-.2,2.6.6,2.9,1.9l4.5,20.5Z"/>
        </g>
        <g>
          <path class="cls-5" d="M150.4,167.4c2.1,9.7-4,19.1-13.5,21.2-9.7,2.1-19.1-4-21.2-13.5-2.1-9.7,4-19.1,13.5-21.2,9.7-2.1,19.1,4,21.2,13.5Z"/>
          <path class="cls-10" d="M148.6,166.9c2.1,9.7-4,19.1-13.6,21.2s-19.1-4-21.2-13.5c-2.1-9.7,4-19.1,13.6-21.2s19.1,4,21.2,13.5Z"/>
          <path class="cls-5" d="M135.9,180.5c.2,1.3-.6,2.6-1.9,2.9h0c-1.3.2-2.6-.6-2.9-1.9l-4.5-20.5c-.2-1.3.6-2.6,1.9-2.9h0c1.3-.2,2.6.6,2.9,1.9l4.5,20.5Z"/>
        </g>
      </g>
    </g>
  </g>
  <g>
    <path class="cls-8" d="M106.4,206.3l51.8-154.9c3.3-9.8,14-15.2,23.9-11.9l88.5,29.6c9.8,3.3,15.2,14,11.9,23.9l-51.8,154.9c-3.3,9.8-14,15.2-23.9,11.9l-88.5-29.6c-9.8-3.3-15.2-14-11.9-23.9h0Z"/>
    <path class="cls-7" d="M166.5,232.7c-2.1-.7-3.3-3-2.6-5.1l53.1-159.1c.7-2.1,3-3.3,5.1-2.6h0c2.1.7,3.3,3,2.6,5.1l-53.1,159.1c-.7,2.1-3,3.3-5.1,2.6h0Z"/>
    <g>
      <g>
        <g>
          <path class="cls-4" d="M224.4,141.7h0c1.5,1.6,3.4,2.9,5.7,3.7h0c6.9,2.3,14.2-1.3,16.5-8.3l5.9-17.7,5.9-17.7c2.3-6.9-1.4-14.3-8.3-16.6h0c-2.2-.7-4.5-.8-6.8-.3h0c-4.4.9-8.4,4.1-9.9,8.7l-5.9,17.7-5.9,17.7c-1.5,4.7-.3,9.5,2.7,12.9h0Z"/>
          <g>
            <path class="cls-7" d="M224.4,141.7c-.3-2.4-.2-5,.6-7.4l7.2-21.8-4.5-1.5-5.9,17.8c-1.5,4.7-.3,9.4,2.7,12.9h0Z"/>
            <path class="cls-9" d="M230.1,145.4c6.9,2.3,14.2-1.3,16.5-8.3l5.9-17.8-20.4-6.8-7.2,21.8c-.8,2.4-.9,5-.6,7.4,1.5,1.6,3.5,2.9,5.7,3.7h0Z"/>
            <path class="cls-2" d="M239.4,91.1c.8-2.4,2.2-4.7,4-6.4-4.4.9-8.3,4.1-9.9,8.7l-5.8,17.6,4.5,1.5,7.2-21.4h0Z"/>
            <path class="cls-3" d="M232.3,112.5l20.4,6.8,5.8-17.6c2.3-6.9-1.4-14.3-8.3-16.6h0c-2.2-.7-4.7-.8-6.8-.5-1.7,1.7-3.1,3.8-4.1,6.4l-7.2,21.4h.1Z"/>
          </g>
          <g>
            <path class="cls-1" d="M243.1,132.3l-.7,2.1h0s-.5,1.5-1.6,3.1c-1.5,2.1-3.4,3.4-5.6,3.8-.1,0-.3,0-.5.2-.3.2-.5.7-.5,1s.3.7.7.8h.6c2.8-.6,5.1-2.2,7-4.8,1.3-1.9,1.7-3.5,1.9-3.7l.7-2.1,4.9-14.5-1.9-.6-4.9,14.5h-.1Z"/>
            <path class="cls-10" d="M251.8,91.2c1.5,1.6,2.3,3.8,2.2,6.4,0,2-.6,3.5-.6,3.5h0l-.7,2.1-4.9,14.7,1.9.6,4.9-14.7.7-2.1c0-.2.7-1.9.8-4.1,0-3.1-.8-5.9-2.7-7.9-.1-.1-.2-.2-.5-.2s0,0,0,0h0c-.3,0-.7,0-.9.2-.3.3-.5.7-.2,1.2,0,.1.1.2.2.3h-.2Z"/>
          </g>
        </g>
        <g>
          <path class="cls-4" d="M162.4,121.1h0c1.5,1.6,3.4,2.9,5.7,3.7h0c6.9,2.3,14.2-1.3,16.5-8.3l5.9-17.7,5.9-17.7c2.3-6.9-1.4-14.3-8.3-16.6h0c-2.2-.7-4.5-.8-6.8-.3h0c-4.4.9-8.4,4.1-9.9,8.7l-5.9,17.7-5.9,17.7c-1.5,4.7-.3,9.5,2.7,12.9h0Z"/>
          <g>
            <path class="cls-7" d="M162.4,121.1c-.3-2.4-.2-5,.6-7.4l7.2-21.8-4.5-1.5-5.9,17.8c-1.5,4.7-.3,9.4,2.7,12.9h0Z"/>
            <path class="cls-9" d="M168.1,124.7c6.9,2.3,14.2-1.3,16.5-8.3l5.9-17.8-20.4-6.8-7.2,21.8c-.8,2.4-.9,5-.6,7.4,1.5,1.6,3.5,2.9,5.7,3.7h0Z"/>
            <path class="cls-2" d="M177.4,70.3c.8-2.4,2.2-4.7,4-6.4-4.4.9-8.3,4.1-9.9,8.7l-5.8,17.6,4.5,1.5,7.2-21.4h0Z"/>
            <path class="cls-3" d="M170.3,91.9l20.4,6.8,5.8-17.6c2.3-6.9-1.4-14.3-8.3-16.6h0c-2.2-.7-4.7-.8-6.8-.5-1.7,1.7-3.1,3.8-4.1,6.4l-7.2,21.4h.1Z"/>
          </g>
          <g>
            <path class="cls-1" d="M181.2,111.7l-.7,2.1h0s-.5,1.5-1.6,3.1c-1.5,2.1-3.4,3.4-5.6,3.8-.1,0-.3,0-.5.2-.3.2-.5.7-.5,1s.3.7.7.8h.6c2.8-.6,5.1-2.2,7-4.8,1.3-1.9,1.7-3.5,1.9-3.7l.7-2.1,4.9-14.5-1.9-.6-4.9,14.5h-.1Z"/>
            <path class="cls-10" d="M189.9,70.5c1.5,1.6,2.3,3.8,2.2,6.4,0,2-.6,3.5-.6,3.5h0l-.7,2.1-4.9,14.7,1.9.6,4.9-14.7.7-2.1c0-.2.7-1.9.8-4.1,0-3.1-.8-5.9-2.7-7.9-.1-.1-.2-.2-.5-.2s0,0,0,0h0c-.3,0-.7,0-.9.2-.3.3-.5.7-.2,1.2,0,.1.1.2.2.3h-.2Z"/>
          </g>
        </g>
      </g>
      <g>
        <g>
          <path class="cls-4" d="M194.7,230.6h0c1.5,1.6,3.4,2.9,5.7,3.7h0c6.9,2.3,14.2-1.3,16.5-8.3l5.9-17.7,5.9-17.7c2.3-6.9-1.4-14.3-8.3-16.6h0c-2.2-.7-4.5-.8-6.8-.3h0c-4.4.9-8.4,4.1-9.9,8.7l-5.9,17.7-5.9,17.7c-1.5,4.7-.3,9.5,2.7,12.9h0Z"/>
          <g>
            <path class="cls-7" d="M194.7,230.6c-.3-2.4-.2-5,.6-7.4l7.2-21.8-4.5-1.5-5.9,17.8c-1.5,4.7-.3,9.4,2.7,12.9h0Z"/>
            <path class="cls-9" d="M200.5,234.2c6.9,2.3,14.2-1.3,16.5-8.3l5.9-17.8-20.4-6.8-7.2,21.8c-.8,2.4-.9,5-.6,7.4,1.5,1.6,3.5,2.9,5.7,3.7h0Z"/>
            <path class="cls-2" d="M209.7,179.9c.8-2.4,2.2-4.7,4-6.4-4.4.9-8.3,4.1-9.9,8.7l-5.8,17.6,4.5,1.5,7.2-21.4h0Z"/>
            <path class="cls-3" d="M202.6,201.4l20.4,6.8,5.8-17.6c2.3-6.9-1.4-14.3-8.3-16.6h0c-2.2-.7-4.7-.8-6.8-.5-1.7,1.7-3.1,3.8-4.1,6.4l-7.2,21.4h.1Z"/>
          </g>
          <g>
            <path class="cls-1" d="M213.4,221.1l-.7,2.1h0s-.5,1.5-1.6,3.1c-1.5,2.1-3.4,3.4-5.6,3.8-.1,0-.3,0-.5.2-.3.2-.5.7-.5,1s.3.7.7.8h.6c2.8-.6,5.1-2.2,7-4.8,1.3-1.9,1.7-3.5,1.9-3.7l.7-2.1,4.9-14.5-1.9-.6-4.9,14.5h-.1Z"/>
            <path class="cls-10" d="M222.1,180c1.5,1.6,2.3,3.8,2.2,6.4,0,2-.6,3.5-.6,3.5h0l-.7,2.1-4.9,14.7,1.9.6,4.9-14.7.7-2.1c0-.2.7-1.9.8-4.1,0-3.1-.8-5.9-2.7-7.9-.1-.1-.2-.2-.5-.2s0,0,0,0h0c-.3,0-.7,0-.9.2-.3.3-.5.7-.2,1.2,0,.1.1.2.2.3h-.2Z"/>
          </g>
        </g>
        <g>
          <path class="cls-4" d="M132.9,209.9h0c1.5,1.6,3.4,2.9,5.7,3.7h0c6.9,2.3,14.2-1.3,16.5-8.3l5.9-17.7,5.9-17.7c2.3-6.9-1.4-14.3-8.3-16.6h0c-2.2-.7-4.5-.8-6.8-.3h0c-4.4.9-8.4,4.1-9.9,8.7l-5.9,17.7-5.9,17.7c-1.5,4.7-.3,9.5,2.7,12.9h0Z"/>
          <g>
            <path class="cls-7" d="M132.7,209.9c-.3-2.4-.2-5,.6-7.4l7.2-21.8-4.5-1.5-5.9,17.8c-1.5,4.7-.3,9.4,2.7,12.9h0Z"/>
            <path class="cls-9" d="M138.6,213.5c6.9,2.3,14.2-1.3,16.5-8.3l5.9-17.8-20.4-6.8-7.2,21.8c-.8,2.4-.9,5-.6,7.4,1.5,1.6,3.5,2.9,5.7,3.7h0Z"/>
            <path class="cls-2" d="M147.8,159.3c.8-2.4,2.2-4.7,4-6.4-4.4.9-8.3,4.1-9.9,8.7l-5.8,17.6,4.5,1.5,7.2-21.4h0Z"/>
            <path class="cls-3" d="M140.7,180.7l20.4,6.8,5.8-17.6c2.3-6.9-1.4-14.3-8.3-16.6h0c-2.2-.7-4.7-.8-6.8-.5-1.7,1.7-3.1,3.8-4.1,6.4l-7.2,21.4h.1Z"/>
          </g>
          <g>
            <path class="cls-1" d="M151.5,200.5l-.7,2.1h0s-.5,1.5-1.6,3.1c-1.5,2.1-3.4,3.4-5.6,3.8-.1,0-.3,0-.5.2-.3.2-.5.7-.5,1s.3.7.7.8h.6c2.8-.6,5.1-2.2,7-4.8,1.3-1.9,1.7-3.5,1.9-3.7l.7-2.1,4.9-14.5-1.9-.6-4.9,14.5h-.1Z"/>
            <path class="cls-10" d="M160.2,159.3c1.5,1.6,2.3,3.8,2.2,6.4,0,2-.6,3.5-.6,3.5h0l-.7,2.1-4.9,14.7,1.9.6,4.9-14.7.7-2.1c0-.2.7-1.9.8-4.1,0-3.1-.8-5.9-2.7-7.9-.1-.1-.2-.2-.5-.2s0,0,0,0h0c-.3,0-.7,0-.9.2-.3.3-.5.7-.2,1.2,0,.1.1.2.2.3h-.2Z"/>
          </g>
        </g>
      </g>
    </g>
  </g>
  <path class="cls-11" d="M73.7,191.2"/>
</svg>