<?xml version="1.0" encoding="UTF-8"?><svg id="how_to_prevent" xmlns="http://www.w3.org/2000/svg" viewBox="0 0 32 32"><defs><style>.cls-1{fill:#3c6277;}.cls-2{fill:#77a8c7;}.cls-3{fill:#82b7d9;}</style></defs><g id="ic_slaugh"><g><polygon class="cls-1" points="6.88 6.1 4.95 8.58 25.43 24.49 27.36 22 6.88 6.1 6.88 6.1"/><path class="cls-1" d="M16.02,4.49h0c5.73,0,10.6,4.3,11.31,10,.38,3.03-.44,6.02-2.31,8.43s-4.57,3.95-7.6,4.33c-.48,.06-.96,.09-1.44,.09-5.73,0-10.6-4.3-11.31-10-.79-6.25,3.66-11.97,9.91-12.76,.48-.06,.96-.09,1.44-.09m0-4c-.64,0-1.29,.04-1.94,.12C5.63,1.67-.36,9.38,.7,17.84c.98,7.8,7.62,13.5,15.28,13.5,.64,0,1.29-.04,1.94-.12,8.45-1.06,14.44-8.77,13.38-17.23C30.32,6.19,23.68,.49,16.02,.49h0Z"/></g><rect class="cls-3" x="11.69" y="17.6" width="12.75" height="10.68"/><rect class="cls-2" x="12.91" y="9.43" width="1.14" height="8.17"/><rect class="cls-2" x="21.89" y="9.43" width="1.14" height="8.17"/><polygon class="cls-2" points="24.69 10.02 11.45 10.02 13.31 6.54 22.83 6.54 24.69 10.02"/><rect class="cls-2" x="11.29" y="17.6" width="13.46" height="1.92" rx=".34" ry=".34"/><path class="cls-2" d="M11.62,26.36h12.78c.19,0,.34,.15,.34,.34v1.58H11.29v-1.58c0-.19,.15-.34,.34-.34Z"/><rect class="cls-2" x="11.28" y="11.57" width="13.46" height=".54"/><polygon class="cls-2" points="18.85 16.47 17.28 16.47 16.77 14.29 19.48 14.29 18.85 16.47"/><rect class="cls-2" x="18.07" y="12.11" width=".11" height="1.09"/><path class="cls-2" d="M18.12,13.24c.73,0,1.04,.59,1.16,.9h-2.31c.11-.31,.42-.9,1.16-.9m0-.15c-1.11,0-1.36,1.2-1.36,1.2h2.71s-.25-1.2-1.36-1.2h0Z"/></g></svg>