<?xml version="1.0" encoding="UTF-8"?>
<svg id="Livello_1" data-name="Livello 1" xmlns="http://www.w3.org/2000/svg" version="1.1" viewBox="0 0 283.5 283.5">
  <defs>
    <style>
      .cls-1 {
        fill: #97c1ea;
      }

      .cls-1, .cls-2, .cls-3, .cls-4, .cls-5, .cls-6, .cls-7, .cls-8, .cls-9, .cls-10, .cls-11, .cls-12, .cls-13, .cls-14, .cls-15, .cls-16 {
        stroke-width: 0px;
      }

      .cls-2 {
        fill: #d9d8d9;
      }

      .cls-3 {
        fill: #efefee;
      }

      .cls-4 {
        fill: #4f80a6;
      }

      .cls-5 {
        fill: #efc96a;
      }

      .cls-6 {
        fill: #7baede;
      }

      .cls-7 {
        fill: #5e8fca;
      }

      .cls-8 {
        fill: #dfdede;
      }

      .cls-9 {
        fill: #cae0ea;
      }

      .cls-10 {
        opacity: .5;
      }

      .cls-10, .cls-13 {
        fill: #5b798c;
      }

      .cls-11 {
        fill: #82b7d9;
      }

      .cls-12 {
        fill: #d8cece;
      }

      .cls-14 {
        fill: #b5d6e8;
      }

      .cls-15 {
        fill: #77a8c7;
      }

      .cls-16 {
        fill: #fff;
      }
    </style>
  </defs>
  <g>
    <g>
      <g>
        <path class="cls-15" d="M124.7,70.7c-9.6-8.1-23.4-23.9-23.4-30.3h-27c2.3,7.6-15,21.4-6.2,28.9,9.8,8.4,25.7,22.1,25.7,22.1l-19.5,35.8,12.8,16.3,15.4,92.4c0,9,13.4,16.8,6.2,21.1h1.8c13.3,0,24-10.8,24-24.1V92.2s-.3-13.4-9.9-21.5Z"/>
        <path class="cls-14" d="M120.6,235.9V91.4s-.3-13.7-10.1-22c-8.9-7.5-21.3-21.4-23.6-28.9h-50.7c0,6.6-13.9,22.1-23.5,30.3-9.6,8.1-9.9,21.5-9.9,21.5v140.7c0,13.3,10.9,24.2,24.2,24.2h81.9c7.1-4.4,11.8-12.3,11.8-21.3Z"/>
      </g>
      <g>
        <path class="cls-15" d="M101.7,0h-8.8c2,1.7,3.3,4.3,3.3,7.2v27.7c0,3.5-1.9,6.5-4.8,8.4h10.3c4.9,0,8.9-4.1,8.9-9V8.9c0-4.9-4-8.9-8.9-8.9Z"/>
        <path class="cls-15" d="M96.1,34.9V7.2c0-2.9-1.3-5.5-3.3-7.2h-57c-4.9,0-8.8,4-8.8,8.9v25.5c0,4.9,3.9,9,8.8,9h55.5c2.8-1.9,4.8-4.9,4.8-8.4Z"/>
      </g>
      <rect class="cls-5" x="34" y="7.9" width="11.7" height="28.7" rx="5.8" ry="5.8"/>
      <g>
        <polygon class="cls-12" points="21.2 110.3 21.2 212.8 134.6 212.8 134.6 143 134.6 127.1 134.6 110.3 21.2 110.3"/>
        <rect class="cls-16" x="14.7" y="110.3" width="6.4" height="102.5"/>
      </g>
    </g>
    <g>
      <g>
        <path class="cls-7" d="M52.7,179.4s0,0,0,0c.8,1.4,1.3,3,1.3,4.7h0c0,5.3-4.2,9.5-9.5,9.5h-13.5c0,0-13.5.1-13.5.1-5.2,0-9.6-4.2-9.6-9.4h0c0-1.7.4-3.3,1.2-4.7,0,0,0,0,0,0,1.6-2.9,4.7-4.8,8.2-4.8h13.5c0,0,13.5-.1,13.5-.1,3.5,0,6.6,1.9,8.3,4.7Z"/>
        <g>
          <path class="cls-13" d="M52.7,179.4c-1.6-.8-3.4-1.3-5.2-1.2h-16.5c0,0,0-3.4,0-3.4h13.5c3.5,0,6.6,1.8,8.3,4.6Z"/>
          <path class="cls-15" d="M54,184.1c0,5.2-4.2,9.5-9.5,9.5h-13.5c0,0,0-15.4,0-15.4h16.5c1.9,0,3.7.4,5.3,1.2.8,1.4,1.3,3,1.3,4.7h0Z"/>
          <path class="cls-4" d="M14.4,178.3c-1.9,0-3.7.5-5.3,1.3,1.6-2.9,4.7-4.8,8.2-4.8h13.5c0,0,0,3.4,0,3.4H14.4Z"/>
          <path class="cls-7" d="M30.9,178.2v15.5c0,0-13.4,0-13.4,0-5.2,0-9.5-4.2-9.5-9.4h0c0-1.7.4-3.3,1.2-4.7,1.6-.8,3.4-1.3,5.3-1.3h16.5Z"/>
        </g>
        <g>
          <path class="cls-1" d="M42,190h1.6s0,0,0,0c0,0,1.2,0,2.5-.4,1.8-.5,3.1-1.6,3.9-3,0,0,.1-.2.2-.2.2-.2.6-.2.8,0,.2.1.4.3.4.6h0s0,0,0,0c0,0,0,0,0,0,0,.1,0,.3,0,.4-1,1.8-2.7,3.1-4.8,3.7-1.5.5-2.8.4-3,.4h-1.6s-11,0-11,0v-1.5s11,0,11,0Z"/>
          <path class="cls-6" d="M11.7,186.8c.8,1.4,2.1,2.4,3.9,3,1.4.4,2.5.4,2.5.4,0,0,0,0,0,0h1.6s11.2,0,11.2,0v1.5s-11.2,0-11.2,0h-1.6c-.2,0-1.4,0-3-.4-2.2-.6-3.9-1.9-4.9-3.7,0-.1,0-.2,0-.4,0,0,0,0,0,0,0,0,0,0,0,0h0c0-.3.2-.5.4-.6.3-.2.6-.1.8,0,0,0,.2.1.2.2Z"/>
        </g>
      </g>
      <g>
        <path class="cls-7" d="M130.5,190.4s0,0,0,0c.8,1.4,1.3,3,1.3,4.7h0c0,5.3-4.2,9.5-9.5,9.5h-13.5c0,0-13.5.1-13.5.1-5.2,0-9.6-4.2-9.6-9.4h0c0-1.7.4-3.3,1.2-4.7,0,0,0,0,0,0,1.6-2.9,4.7-4.8,8.2-4.8h13.5c0,0,13.5-.1,13.5-.1,3.5,0,6.6,1.9,8.3,4.7Z"/>
        <g>
          <path class="cls-13" d="M130.5,190.4c-1.6-.8-3.4-1.3-5.2-1.2h-16.5c0,0,0-3.4,0-3.4h13.5c3.5,0,6.6,1.8,8.3,4.6Z"/>
          <path class="cls-15" d="M131.8,195.1c0,5.2-4.2,9.5-9.5,9.5h-13.5c0,0,0-15.4,0-15.4h16.5c1.9,0,3.7.4,5.3,1.2.8,1.4,1.3,3,1.3,4.7h0Z"/>
          <path class="cls-4" d="M92.3,189.3c-1.9,0-3.7.5-5.3,1.3,1.6-2.9,4.7-4.8,8.2-4.8h13.5c0,0,0,3.4,0,3.4h-16.5Z"/>
          <path class="cls-7" d="M108.8,189.2v15.5c0,0-13.4,0-13.4,0-5.2,0-9.6-4.2-9.6-9.4h0c0-1.7.4-3.3,1.2-4.7,1.6-.8,3.4-1.3,5.3-1.3h16.5Z"/>
        </g>
        <g>
          <path class="cls-1" d="M119.8,201h1.6s0,0,0,0c0,0,1.2,0,2.5-.4,1.8-.5,3.1-1.6,3.9-3,0,0,.1-.2.2-.2.2-.2.6-.2.8,0,.2.1.4.3.4.6h0s0,0,0,0c0,0,0,0,0,0,0,.1,0,.3,0,.4-1,1.8-2.7,3.1-4.8,3.7-1.5.5-2.8.4-3,.5h-1.6s-11,0-11,0v-1.5s11,0,11,0Z"/>
          <path class="cls-6" d="M89.5,197.8c.8,1.4,2.1,2.4,3.9,3,1.4.4,2.5.4,2.5.4,0,0,0,0,0,0h1.6s11.2,0,11.2,0v1.5s-11.2,0-11.2,0h-1.6c-.2,0-1.4,0-3-.4-2.2-.6-3.9-1.9-4.9-3.7,0-.1,0-.2-.1-.4,0,0,0,0,0,0,0,0,0,0,0,0h0c0-.3.2-.5.4-.6.3-.2.6-.1.8,0,0,0,.2.1.2.2Z"/>
        </g>
      </g>
      <g>
        <path class="cls-7" d="M124.7,216.3s0,0,0,0c1.1-1.2,1.9-2.7,2.2-4.3h0c1.1-5.1-2.1-10.2-7.3-11.3l-13.2-2.9-13.2-2.9c-5.1-1.1-10.2,2.1-11.3,7.3h0c-.4,1.7-.3,3.4.2,4.9,0,0,0,0,0,0,1,3.1,3.6,5.6,7.1,6.4l13.2,2.9,13.2,2.9c3.4.7,6.8-.5,9.1-2.9Z"/>
        <g>
          <path class="cls-13" d="M124.7,216.3c-1.7.4-3.5.5-5.4.1l-16.1-3.5-.7,3.4,13.2,2.9c3.4.7,6.8-.5,9.1-2.9Z"/>
          <path class="cls-15" d="M126.9,211.9c1.1-5.1-2.1-10.2-7.3-11.3l-13.2-2.9-3.3,15.1,16.1,3.5c1.8.4,3.7.3,5.4-.1,1.1-1.2,1.9-2.7,2.2-4.4h0Z"/>
          <path class="cls-4" d="M87,209.4c-1.9-.4-3.5-1.3-4.9-2.4,1,3.1,3.6,5.7,7.1,6.4l13.2,2.9.7-3.4-16.1-3.5Z"/>
          <path class="cls-7" d="M103.2,212.9l3.3-15.1-13.2-2.9c-5.1-1.1-10.2,2.1-11.3,7.3h0c-.4,1.7-.3,3.4.2,4.9,1.4,1.1,3,2,4.9,2.4l16.1,3.5Z"/>
        </g>
        <g>
          <path class="cls-1" d="M116.4,203.6l1.5.3s0,0,0,0c0,0,1.1.2,2.4.9,1.6.9,2.7,2.2,3.2,3.7,0,.1,0,.2.2.3.2.2.5.3.8.2.3,0,.4-.2.5-.5h0s0,0,0,0c0,0,0,0,0,0,0-.1,0-.3,0-.4-.6-2-2-3.6-3.9-4.7-1.4-.8-2.7-1-2.8-1.1l-1.5-.3-10.7-2.3-.3,1.5,10.7,2.3Z"/>
          <path class="cls-6" d="M86.1,200.5c1.1-1.2,2.6-1.9,4.4-2.1,1.4-.1,2.6.2,2.6.2,0,0,0,0,0,0l1.5.3,11,2.4.3-1.5-11-2.4-1.5-.3c-.2,0-1.4-.3-3-.2-2.3.2-4.2,1.1-5.5,2.6,0,.1-.1.2-.2.3,0,0,0,0,0,0,0,0,0,0,0,0h0c0,.3,0,.5.3.7.2.2.6.2.8.1,0,0,.2-.1.3-.2Z"/>
        </g>
      </g>
      <g>
        <path class="cls-7" d="M64.3,185.6s0,0,0,0c0-1.6-.4-3.2-1.2-4.7h0c-2.6-4.6-8.3-6.2-12.9-3.7l-11.8,6.6-11.8,6.6c-4.6,2.6-6.2,8.3-3.7,12.9h0c.8,1.5,2,2.7,3.4,3.5,0,0,0,0,0,0,2.8,1.7,6.4,1.9,9.5.1l11.8-6.6,11.8-6.6c3.1-1.7,4.8-4.9,4.9-8.2Z"/>
        <g>
          <path class="cls-13" d="M64.3,185.6c-1,1.5-2.3,2.7-4,3.7l-14.4,8,1.7,3,11.8-6.6c3.1-1.7,4.8-4.9,4.9-8.2Z"/>
          <path class="cls-15" d="M63.1,180.9c-2.6-4.6-8.3-6.2-12.9-3.7l-11.8,6.6,7.5,13.5,14.4-8c1.6-.9,3-2.2,4-3.6,0-1.6-.4-3.2-1.2-4.7h0Z"/>
          <path class="cls-4" d="M31.6,205.3c-1.7.9-3.5,1.4-5.2,1.4,2.8,1.7,6.5,1.9,9.5.1l11.8-6.6-1.7-3-14.4,8Z"/>
          <path class="cls-7" d="M46,197.3l-7.5-13.5-11.8,6.6c-4.6,2.6-6.2,8.3-3.7,12.9h0c.8,1.5,2,2.7,3.4,3.5,1.8,0,3.6-.5,5.2-1.4l14.4-8Z"/>
        </g>
        <g>
          <path class="cls-1" d="M49.8,181.6l1.4-.8s0,0,0,0c0,0,1-.6,2.4-.9,1.8-.4,3.4-.2,4.8.7,0,0,.2,0,.3.1.3,0,.6,0,.8-.4.1-.2.2-.5,0-.7h0s0,0,0,0c0,0,0,0,0,0,0-.1-.2-.2-.3-.3-1.7-1.1-3.8-1.4-6-.9-1.6.3-2.7,1-2.8,1.1l-1.4.8-9.6,5.3.7,1.3,9.6-5.3Z"/>
          <path class="cls-6" d="M25,199.3c0-1.6.7-3.2,2-4.5,1-1,2-1.6,2-1.6,0,0,0,0,0,0l1.4-.8,9.8-5.5-.7-1.3-9.8,5.5-1.4.8c-.1,0-1.3.7-2.4,1.8-1.6,1.6-2.4,3.6-2.4,5.6,0,.1,0,.3.1.4,0,0,0,0,0,0h0s0,0,0,0c.1.2.4.4.6.4.3,0,.6-.2.7-.5,0,0,0-.2,0-.3Z"/>
        </g>
      </g>
      <g>
        <path class="cls-7" d="M23.2,214.3s0,0,0,0c-1.6-.2-3.2-.7-4.6-1.7h0c-4.2-3.1-5.2-9-2.1-13.3l7.9-11,7.9-10.9c3.1-4.3,9-5.2,13.3-2.1h0c1.4,1,2.4,2.3,3.1,3.8,0,0,0,0,0,0,1.3,3,1.1,6.6-1,9.5l-7.9,10.9-7.9,10.9c-2.1,2.9-5.4,4.2-8.7,3.9Z"/>
        <g>
          <path class="cls-13" d="M23.2,214.3c1.6-.8,3-2,4.1-3.5l9.7-13.4,2.8,2-7.9,10.9c-2.1,2.9-5.4,4.2-8.7,3.9Z"/>
          <path class="cls-15" d="M18.7,212.6c-4.2-3.1-5.2-9-2.1-13.3l7.9-11,12.6,9.1-9.7,13.4c-1.1,1.5-2.5,2.7-4.1,3.5-1.6-.2-3.2-.7-4.6-1.7h0Z"/>
          <path class="cls-4" d="M46.7,184c1.1-1.5,1.8-3.3,2-5,1.4,3,1.1,6.6-1,9.5l-7.9,10.9-2.8-2,9.7-13.4Z"/>
          <path class="cls-7" d="M37,197.4l-12.6-9.1,7.9-10.9c3.1-4.3,9-5.2,13.3-2.1h0c1.4,1,2.4,2.3,3.1,3.8-.3,1.8-.9,3.5-2.1,5l-9.7,13.4Z"/>
        </g>
        <g>
          <path class="cls-1" d="M21,199.3l-.9,1.3s0,0,0,0c0,0-.7.9-1.2,2.3-.6,1.8-.6,3.4.1,4.9,0,.1,0,.2,0,.3,0,.3-.2.6-.5.7-.2.1-.5.1-.7,0h0s0,0,0,0c0,0,0,0,0,0-.1,0-.2-.2-.2-.3-.9-1.9-.9-4-.2-6.1.5-1.5,1.3-2.5,1.4-2.7l.9-1.3,6.4-8.9,1.2.9-6.4,8.9Z"/>
          <path class="cls-6" d="M41.4,176.8c-1.6-.2-3.2.3-4.7,1.4-1.1.9-1.8,1.8-1.8,1.8,0,0,0,0,0,0l-.9,1.3-6.6,9.1-1.2-.9,6.6-9.1.9-1.3c0-.1.8-1.2,2.1-2.2,1.8-1.4,3.8-2,5.9-1.7.1,0,.3,0,.4.1,0,0,0,0,0,0,0,0,0,0,0,0h0c.2.2.3.4.3.7,0,.3-.3.6-.5.6-.1,0-.2,0-.3,0Z"/>
        </g>
      </g>
      <g>
        <path class="cls-7" d="M75.8,204.9s0,0,0,0c.8,1.4,1.3,3,1.3,4.7h0c0,5.3-4.2,9.5-9.5,9.5h-13.5c0,0-13.5.1-13.5.1-5.2,0-9.6-4.2-9.6-9.4h0c0-1.7.4-3.3,1.2-4.7,0,0,0,0,0,0,1.6-2.9,4.7-4.8,8.2-4.8h13.5c0,0,13.5-.1,13.5-.1,3.5,0,6.6,1.9,8.3,4.7Z"/>
        <g>
          <path class="cls-13" d="M75.8,204.9c-1.6-.8-3.4-1.3-5.2-1.2h-16.5c0,0,0-3.4,0-3.4h13.5c3.5,0,6.6,1.8,8.3,4.6Z"/>
          <path class="cls-15" d="M77.1,209.6c0,5.2-4.2,9.5-9.5,9.5h-13.5c0,0,0-15.4,0-15.4h16.5c1.9,0,3.7.4,5.3,1.2.8,1.4,1.3,3,1.3,4.7h0Z"/>
          <path class="cls-4" d="M37.5,203.8c-1.9,0-3.7.5-5.3,1.3,1.6-2.9,4.7-4.8,8.2-4.8h13.5c0,0,0,3.4,0,3.4h-16.5Z"/>
          <path class="cls-7" d="M54,203.7v15.5c0,0-13.4,0-13.4,0-5.2,0-9.6-4.2-9.6-9.4h0c0-1.7.4-3.3,1.2-4.7,1.6-.8,3.4-1.3,5.3-1.3h16.5Z"/>
        </g>
        <g>
          <path class="cls-1" d="M65,215.5h1.6s0,0,0,0c0,0,1.2,0,2.5-.4,1.8-.5,3.1-1.6,3.9-3,0-.1.1-.2.2-.2.2-.2.6-.2.8,0,.2.1.4.3.4.6h0s0,0,0,0c0,0,0,0,0,0,0,.1,0,.3,0,.4-1,1.8-2.7,3.1-4.8,3.7-1.5.5-2.8.4-3,.5h-1.6s-11,0-11,0v-1.5s11,0,11,0Z"/>
          <path class="cls-6" d="M34.8,212.3c.8,1.4,2.1,2.4,3.9,3,1.4.4,2.5.4,2.5.4,0,0,0,0,0,0h1.6s11.2,0,11.2,0v1.5s-11.2,0-11.2,0h-1.6c-.2,0-1.4,0-3-.4-2.2-.6-3.9-1.9-4.9-3.7,0-.1,0-.2-.1-.4,0,0,0,0,0,0,0,0,0,0,0,0h0c0-.3.2-.5.4-.6.3-.2.6-.1.8,0,0,0,.2.1.2.2Z"/>
        </g>
      </g>
      <g>
        <path class="cls-7" d="M65,195.1s0,0,0,0c-.8-1.4-1.3-3-1.3-4.7h0c0-5.3,4.2-9.5,9.5-9.5h13.5s13.5,0,13.5,0c5.2,0,9.5,4.2,9.5,9.5h0c0,1.7-.4,3.3-1.2,4.7,0,0,0,0,0,0-1.6,2.9-4.7,4.8-8.2,4.8h-13.5s-13.5,0-13.5,0c-3.5,0-6.6-1.9-8.2-4.7Z"/>
        <g>
          <path class="cls-13" d="M65,195.1c1.6.8,3.4,1.3,5.2,1.3h16.5s0,3.4,0,3.4h-13.5c-3.5,0-6.6-1.8-8.2-4.7Z"/>
          <path class="cls-15" d="M63.7,190.4c0-5.2,4.2-9.5,9.5-9.5h13.5s0,15.5,0,15.5h-16.5c-1.9,0-3.7-.4-5.3-1.2-.8-1.4-1.3-3-1.3-4.7h0Z"/>
          <path class="cls-4" d="M103.3,196.2c1.9,0,3.7-.5,5.3-1.3-1.6,2.9-4.7,4.8-8.3,4.8h-13.5s0-3.4,0-3.4h16.5Z"/>
          <path class="cls-7" d="M86.8,196.3v-15.5s13.4,0,13.4,0c5.2,0,9.5,4.2,9.5,9.5h0c0,1.7-.4,3.3-1.2,4.7-1.6.8-3.4,1.3-5.3,1.3h-16.5Z"/>
        </g>
        <g>
          <path class="cls-1" d="M75.8,184.4h-1.6s0,0,0,0c0,0-1.2,0-2.5.4-1.8.5-3.1,1.6-3.9,3,0,0-.1.2-.2.2-.2.2-.6.2-.8,0-.2-.1-.4-.3-.4-.6h0s0,0,0,0c0,0,0,0,0,0,0-.1,0-.3,0-.4,1-1.8,2.7-3.1,4.8-3.7,1.5-.5,2.8-.4,3-.4h1.6s11,0,11,0v1.5s-11,0-11,0Z"/>
          <path class="cls-6" d="M106,187.7c-.8-1.4-2.1-2.4-3.9-3-1.4-.4-2.5-.4-2.5-.4,0,0,0,0,0,0h-1.6s-11.2,0-11.2,0v-1.5s11.2,0,11.2,0h1.6c.2,0,1.4,0,3,.4,2.2.6,3.9,1.9,4.9,3.7,0,.1,0,.2,0,.4,0,0,0,0,0,0,0,0,0,0,0,0h0c0,.3-.2.5-.4.6-.3.2-.6.1-.8,0,0,0-.2-.1-.2-.2Z"/>
        </g>
      </g>
      <g>
        <path class="cls-7" d="M71.2,212.8s0,0,0,0c-.8-1.4-1.3-3-1.3-4.7h0c0-5.3,4.2-9.5,9.5-9.5h13.5c0,0,13.5-.1,13.5-.1,5.2,0,9.6,4.2,9.6,9.4h0c0,1.7-.4,3.3-1.2,4.7,0,0,0,0,0,0-1.6,2.9-4.7,4.8-8.2,4.8h-13.5c0,0-13.5.1-13.5.1-3.5,0-6.6-1.9-8.3-4.7Z"/>
        <g>
          <path class="cls-13" d="M71.2,212.9c1.6.8,3.4,1.3,5.2,1.2h16.5c0,0,0,3.4,0,3.4h-13.5c-3.5,0-6.6-1.8-8.3-4.6Z"/>
          <path class="cls-15" d="M69.9,208.1c0-5.2,4.2-9.5,9.5-9.5h13.5c0,0,0,15.4,0,15.4h-16.5c-1.9,0-3.7-.4-5.3-1.2-.8-1.4-1.3-3-1.3-4.7h0Z"/>
          <path class="cls-4" d="M109.5,213.9c1.9,0,3.7-.5,5.3-1.3-1.6,2.9-4.7,4.8-8.2,4.8h-13.5c0,0,0-3.4,0-3.4h16.5Z"/>
          <path class="cls-7" d="M93,214v-15.5c0,0,13.4,0,13.4,0,5.2,0,9.6,4.2,9.6,9.4h0c0,1.7-.4,3.3-1.2,4.7-1.6.8-3.4,1.3-5.3,1.3h-16.5Z"/>
        </g>
        <g>
          <path class="cls-1" d="M82,202.2h-1.6s0,0,0,0c0,0-1.2,0-2.5.4-1.8.5-3.1,1.6-3.9,3,0,0-.1.2-.2.2-.2.2-.6.2-.8,0-.2-.1-.4-.3-.4-.6h0s0,0,0,0c0,0,0,0,0,0,0-.1,0-.3,0-.4,1-1.8,2.7-3.1,4.8-3.7,1.5-.5,2.8-.4,3-.4h1.6s11,0,11,0v1.5s-11,0-11,0Z"/>
          <path class="cls-6" d="M112.2,205.4c-.8-1.4-2.1-2.4-3.9-3-1.4-.4-2.5-.4-2.5-.4,0,0,0,0,0,0h-1.6s-11.2,0-11.2,0v-1.5s11.2,0,11.2,0h1.6c.2,0,1.4,0,3,.4,2.2.6,3.9,1.9,4.9,3.7,0,.1,0,.2.1.4,0,0,0,0,0,0,0,0,0,0,0,0h0c0,.3-.2.5-.4.6-.3.2-.6.1-.8,0,0,0-.2-.1-.2-.2Z"/>
        </g>
      </g>
      <g>
        <path class="cls-7" d="M90.4,202.5s0,0,0,0c.4,1.6.4,3.2-.1,4.9h0c-1.5,5-6.8,7.9-11.8,6.4l-13-3.8-12.9-3.8c-5-1.5-7.9-6.8-6.4-11.8h0c.5-1.6,1.4-3.1,2.5-4.2,0,0,0,0,0,0,2.4-2.3,5.9-3.2,9.3-2.2l12.9,3.8,12.9,3.8c3.4,1,5.8,3.7,6.5,6.9Z"/>
        <g>
          <path class="cls-13" d="M90.4,202.5c-1.3-1.2-2.9-2.2-4.7-2.7l-15.8-4.7,1-3.3,13,3.8c3.4,1,5.8,3.7,6.5,6.9Z"/>
          <path class="cls-15" d="M90.4,207.4c-1.5,5-6.8,7.9-11.8,6.4l-13-3.8,4.4-14.9,15.8,4.7c1.8.5,3.4,1.5,4.7,2.7.4,1.6.4,3.3-.1,4.9h0Z"/>
          <path class="cls-4" d="M54.2,190.4c-1.8-.5-3.7-.6-5.4-.3,2.4-2.3,5.9-3.2,9.3-2.2l12.9,3.8-1,3.3-15.8-4.7Z"/>
          <path class="cls-7" d="M70,195.1l-4.4,14.9-12.9-3.8c-5-1.5-7.9-6.8-6.4-11.8h0c.5-1.6,1.4-3.1,2.5-4.2,1.7-.3,3.6-.3,5.4.3l15.8,4.7Z"/>
        </g>
        <g>
          <path class="cls-1" d="M77.1,209.6l1.5.4s0,0,0,0c0,0,1.1.4,2.5.3,1.9,0,3.4-.6,4.6-1.8,0,0,.2-.1.3-.2.3,0,.6,0,.8.2.2.2.3.4.2.7h0s0,0,0,0c0,0,0,0,0,0,0,.1-.1.2-.2.3-1.5,1.4-3.4,2.2-5.7,2.2-1.6,0-2.8-.4-3-.4l-1.5-.4-10.5-3.1.4-1.5,10.5,3.1Z"/>
          <path class="cls-6" d="M49.1,197.7c.4,1.6,1.3,2.9,2.9,4,1.2.8,2.3,1.1,2.3,1.1,0,0,0,0,0,0l1.5.4,10.8,3.2-.4,1.5-10.8-3.2-1.5-.4c-.2,0-1.4-.4-2.7-1.3-1.9-1.2-3.1-2.9-3.6-4.9,0-.1,0-.3,0-.4,0,0,0,0,0,0,0,0,0,0,0,0h0c0-.2.3-.4.6-.5.3,0,.6,0,.8.3,0,0,.1.2.1.3Z"/>
        </g>
      </g>
      <g>
        <path class="cls-7" d="M132.7,189.4s0,0,0,0c0,1.6-.4,3.2-1.3,4.7h0c-2.7,4.5-8.5,6-13,3.3l-11.6-6.9-11.6-6.9c-4.5-2.7-6-8.5-3.3-13h0c.9-1.5,2.1-2.6,3.5-3.4,0,0,0,0,0,0,2.9-1.6,6.5-1.7,9.5.1l11.6,6.9,11.6,6.9c3,1.8,4.7,5,4.7,8.3Z"/>
        <g>
          <path class="cls-13" d="M132.7,189.4c-.9-1.5-2.2-2.8-3.9-3.8l-14.2-8.4,1.8-3,11.6,6.9c3,1.8,4.7,5,4.7,8.3Z"/>
          <path class="cls-15" d="M131.4,194.1c-2.7,4.5-8.5,6-13,3.3l-11.6-6.9,7.9-13.3,14.2,8.4c1.6,1,2.9,2.3,3.9,3.8,0,1.6-.4,3.3-1.3,4.7h0Z"/>
          <path class="cls-4" d="M100.5,168.8c-1.6-1-3.4-1.5-5.2-1.6,2.9-1.6,6.5-1.7,9.5.1l11.6,6.9-1.8,3-14.2-8.4Z"/>
          <path class="cls-7" d="M114.7,177.2l-7.9,13.3-11.6-6.9c-4.5-2.7-6-8.5-3.3-13h0c.9-1.5,2.1-2.6,3.5-3.4,1.8.1,3.5.6,5.2,1.6l14.2,8.4Z"/>
        </g>
        <g>
          <path class="cls-1" d="M118.1,193l1.4.8s0,0,0,0c0,0,1,.6,2.4,1,1.8.4,3.4.2,4.9-.6,0,0,.2,0,.3-.1.3,0,.6.1.7.4.1.2.2.5,0,.7h0s0,0,0,0c0,0,0,0,0,0,0,.1-.2.2-.3.3-1.8,1-3.9,1.3-6.1.7-1.6-.4-2.6-1.1-2.8-1.1l-1.3-.8-9.4-5.6.8-1.3,9.4,5.6Z"/>
          <path class="cls-6" d="M93.8,174.7c0,1.6.6,3.2,1.8,4.5,1,1.1,2,1.6,2,1.6,0,0,0,0,0,0l1.4.8,9.7,5.7-.8,1.3-9.7-5.7-1.3-.8c-.1,0-1.2-.7-2.3-1.9-1.5-1.7-2.3-3.6-2.3-5.7,0-.1,0-.3,0-.4,0,0,0,0,0,0h0s0,0,0,0c.1-.2.4-.3.7-.3.3,0,.6.2.7.5,0,0,0,.2,0,.3Z"/>
        </g>
      </g>
      <g>
        <path class="cls-7" d="M50.8,213.6s0,0,0,0c.8,1.4,1.3,3,1.3,4.7h0c0,5.3-4.2,9.5-9.5,9.5h-13.5c0,0-13.5.1-13.5.1-5.2,0-9.5-4.2-9.5-9.4h0c0-1.7.4-3.3,1.2-4.7,0,0,0,0,0,0,1.6-2.9,4.7-4.8,8.2-4.8h13.5c0,0,13.5-.1,13.5-.1,3.5,0,6.6,1.9,8.3,4.7Z"/>
        <g>
          <path class="cls-13" d="M50.8,213.6c-1.6-.8-3.4-1.3-5.2-1.2h-16.5c0,0,0-3.4,0-3.4h13.5c3.5,0,6.6,1.8,8.3,4.6Z"/>
          <path class="cls-15" d="M52.2,218.3c0,5.2-4.2,9.5-9.5,9.5h-13.5c0,0,0-15.4,0-15.4h16.5c1.9,0,3.7.4,5.3,1.2.8,1.4,1.3,3,1.3,4.7h0Z"/>
          <path class="cls-4" d="M12.6,212.5c-1.9,0-3.7.5-5.3,1.3,1.6-2.9,4.7-4.8,8.2-4.8h13.5c0,0,0,3.4,0,3.4H12.6Z"/>
          <path class="cls-7" d="M29.1,212.4v15.5c0,0-13.4,0-13.4,0-5.2,0-9.5-4.2-9.5-9.4h0c0-1.7.4-3.3,1.2-4.7,1.6-.8,3.4-1.3,5.3-1.3h16.5Z"/>
        </g>
        <g>
          <path class="cls-1" d="M40.1,224.2h1.6s0,0,0,0c0,0,1.2,0,2.5-.4,1.8-.5,3.1-1.6,3.9-3,0,0,.1-.2.2-.2.2-.2.6-.2.8,0,.2.1.4.3.4.6h0s0,0,0,0c0,0,0,0,0,0,0,.1,0,.3,0,.4-1,1.8-2.7,3.1-4.8,3.7-1.5.5-2.8.4-3,.4h-1.6s-11,0-11,0v-1.5s11,0,11,0Z"/>
          <path class="cls-6" d="M9.9,221c.8,1.4,2.1,2.4,3.9,3,1.4.4,2.5.4,2.5.4,0,0,0,0,0,0h1.6s11.2,0,11.2,0v1.5s-11.2,0-11.2,0h-1.6c-.2,0-1.4,0-3-.4-2.2-.6-3.9-1.9-4.9-3.7,0-.1,0-.2-.1-.4,0,0,0,0,0,0,0,0,0,0,0,0h0c0-.3.2-.5.4-.6.3-.2.6-.1.8,0,0,0,.2.1.2.2Z"/>
        </g>
      </g>
      <g>
        <path class="cls-7" d="M128.7,224.6s0,0,0,0c.8,1.4,1.3,3,1.3,4.7h0c0,5.3-4.2,9.5-9.5,9.5h-13.5c0,0-13.5.1-13.5.1-5.2,0-9.5-4.2-9.5-9.4h0c0-1.7.4-3.3,1.2-4.7,0,0,0,0,0,0,1.6-2.9,4.7-4.8,8.2-4.8h13.5c0,0,13.5-.1,13.5-.1,3.5,0,6.6,1.9,8.3,4.7Z"/>
        <g>
          <path class="cls-13" d="M128.7,224.6c-1.6-.8-3.4-1.3-5.2-1.2h-16.5c0,0,0-3.4,0-3.4h13.5c3.5,0,6.6,1.8,8.3,4.6Z"/>
          <path class="cls-15" d="M130,229.3c0,5.2-4.2,9.5-9.5,9.5h-13.5c0,0,0-15.4,0-15.4h16.5c1.9,0,3.7.4,5.3,1.2.8,1.4,1.3,3,1.3,4.7h0Z"/>
          <path class="cls-4" d="M90.4,223.5c-1.9,0-3.7.5-5.3,1.3,1.6-2.9,4.7-4.8,8.2-4.8h13.5c0,0,0,3.4,0,3.4h-16.5Z"/>
          <path class="cls-7" d="M106.9,223.4v15.5c0,0-13.4,0-13.4,0-5.2,0-9.5-4.2-9.5-9.4h0c0-1.7.4-3.3,1.2-4.7,1.6-.8,3.4-1.3,5.3-1.3h16.5Z"/>
        </g>
        <g>
          <path class="cls-1" d="M118,235.2h1.6s0,0,0,0c0,0,1.2,0,2.5-.4,1.8-.5,3.1-1.6,3.9-3,0,0,.1-.2.2-.2.2-.2.6-.2.8,0,.2.1.4.3.4.6h0s0,0,0,0c0,0,0,0,0,0,0,.1,0,.3,0,.4-1,1.8-2.7,3.1-4.8,3.7-1.5.5-2.8.4-3,.4h-1.6s-11,0-11,0v-1.5s11,0,11,0Z"/>
          <path class="cls-6" d="M87.7,232c.8,1.4,2.1,2.4,3.9,3,1.4.4,2.5.4,2.5.4,0,0,0,0,0,0h1.6s11.2,0,11.2,0v1.5s-11.2,0-11.2,0h-1.6c-.2,0-1.4,0-3-.4-2.2-.6-3.9-1.9-4.9-3.7,0-.1,0-.2-.1-.4,0,0,0,0,0,0,0,0,0,0,0,0h0c0-.3.2-.5.4-.6.3-.2.6-.1.8,0,0,0,.2.1.2.2Z"/>
        </g>
      </g>
      <g>
        <path class="cls-7" d="M122.8,250.5s0,0,0,0c1.1-1.2,1.9-2.7,2.2-4.3h0c1.1-5.1-2.1-10.2-7.3-11.3l-13.2-2.9-13.2-2.9c-5.1-1.1-10.2,2.1-11.3,7.3h0c-.4,1.7-.3,3.4.2,4.9,0,0,0,0,0,0,1,3.1,3.6,5.6,7.1,6.4l13.2,2.9,13.2,2.9c3.4.7,6.8-.5,9.1-2.9Z"/>
        <g>
          <path class="cls-13" d="M122.8,250.5c-1.7.4-3.5.5-5.4.1l-16.1-3.5-.7,3.4,13.2,2.9c3.4.7,6.8-.5,9.1-2.9Z"/>
          <path class="cls-15" d="M125.1,246.1c1.1-5.1-2.1-10.2-7.3-11.3l-13.2-2.9-3.3,15.1,16.1,3.5c1.8.4,3.7.3,5.4-.1,1.1-1.2,1.9-2.7,2.2-4.4h0Z"/>
          <path class="cls-4" d="M85.2,243.6c-1.9-.4-3.5-1.3-4.9-2.4,1,3.1,3.6,5.7,7.1,6.4l13.2,2.9.7-3.4-16.1-3.5Z"/>
          <path class="cls-7" d="M101.3,247.1l3.3-15.1-13.2-2.9c-5.1-1.1-10.2,2.1-11.3,7.3h0c-.4,1.7-.3,3.4.2,4.9,1.4,1.1,3,2,4.9,2.4l16.1,3.5Z"/>
        </g>
        <g>
          <path class="cls-1" d="M114.6,237.8l1.5.3s0,0,0,0c0,0,1.1.2,2.4.9,1.6.9,2.7,2.2,3.2,3.7,0,.1,0,.2.2.3.2.2.5.3.8.2.3,0,.4-.2.5-.5h0s0,0,0,0c0,0,0,0,0,0,0-.1,0-.3,0-.4-.6-2-2-3.6-3.9-4.7-1.4-.8-2.7-1-2.8-1.1l-1.5-.3-10.7-2.3-.3,1.5,10.7,2.3Z"/>
          <path class="cls-6" d="M84.3,234.7c1.1-1.2,2.6-1.9,4.4-2.1,1.4-.1,2.6.2,2.6.2,0,0,0,0,0,0l1.5.3,11,2.4.3-1.5-11-2.4-1.5-.3c-.2,0-1.4-.3-3-.2-2.3.2-4.2,1.1-5.5,2.6,0,.1-.1.2-.2.3,0,0,0,0,0,0,0,0,0,0,0,0h0c0,.3,0,.5.3.7.2.2.6.2.8.1,0,0,.2-.1.3-.2Z"/>
        </g>
      </g>
      <g>
        <path class="cls-7" d="M62.5,219.8s0,0,0,0c0-1.6-.4-3.2-1.2-4.7h0c-2.6-4.6-8.3-6.2-12.9-3.7l-11.8,6.6-11.8,6.6c-4.6,2.6-6.2,8.3-3.7,12.9h0c.8,1.5,2,2.7,3.4,3.5,0,0,0,0,0,0,2.8,1.7,6.4,1.9,9.5.1l11.8-6.6,11.8-6.6c3.1-1.7,4.8-4.9,4.9-8.2Z"/>
        <g>
          <path class="cls-13" d="M62.5,219.8c-1,1.5-2.3,2.7-4,3.7l-14.4,8,1.7,3,11.8-6.6c3.1-1.7,4.8-4.9,4.9-8.2Z"/>
          <path class="cls-15" d="M61.3,215.1c-2.6-4.6-8.3-6.2-12.9-3.7l-11.8,6.6,7.5,13.5,14.4-8c1.6-.9,3-2.2,4-3.6,0-1.6-.4-3.2-1.2-4.7h0Z"/>
          <path class="cls-4" d="M29.7,239.5c-1.7.9-3.5,1.4-5.2,1.4,2.8,1.7,6.5,1.9,9.5.1l11.8-6.6-1.7-3-14.4,8Z"/>
          <path class="cls-7" d="M44.1,231.5l-7.5-13.5-11.8,6.6c-4.6,2.6-6.2,8.3-3.7,12.9h0c.8,1.5,2,2.7,3.4,3.5,1.8,0,3.6-.5,5.2-1.4l14.4-8Z"/>
        </g>
        <g>
          <path class="cls-1" d="M47.9,215.8l1.4-.8s0,0,0,0c0,0,1-.6,2.4-.9,1.8-.4,3.4-.2,4.8.7,0,0,.2,0,.3.1.3,0,.6,0,.8-.4.1-.2.2-.5,0-.7h0s0,0,0,0c0,0,0,0,0,0,0-.1-.2-.2-.3-.3-1.7-1.1-3.8-1.4-6-.9-1.6.3-2.7,1-2.8,1.1l-1.4.8-9.6,5.3.7,1.3,9.6-5.3Z"/>
          <path class="cls-6" d="M23.2,233.5c0-1.6.7-3.2,2-4.5,1-1,2-1.6,2-1.6,0,0,0,0,0,0l1.4-.8,9.8-5.5-.7-1.3-9.8,5.5-1.4.8c-.1,0-1.3.7-2.4,1.8-1.6,1.6-2.4,3.6-2.4,5.6,0,.1,0,.3.1.4,0,0,0,0,0,0h0s0,0,0,0c.1.2.4.4.6.4.3,0,.6-.2.7-.5,0,0,0-.2,0-.3Z"/>
        </g>
      </g>
      <g>
        <path class="cls-7" d="M21.4,248.5s0,0,0,0c-1.6-.2-3.2-.7-4.6-1.7h0c-4.2-3.1-5.2-9-2.1-13.3l7.9-11,7.9-10.9c3.1-4.3,9-5.2,13.3-2.1h0c1.4,1,2.4,2.3,3.1,3.8,0,0,0,0,0,0,1.3,3,1.1,6.6-1,9.5l-7.9,10.9-7.9,10.9c-2.1,2.9-5.4,4.2-8.7,3.9Z"/>
        <g>
          <path class="cls-13" d="M21.4,248.5c1.6-.8,3-2,4.1-3.5l9.7-13.4,2.8,2-7.9,10.9c-2.1,2.9-5.4,4.2-8.7,3.9Z"/>
          <path class="cls-15" d="M16.8,246.8c-4.2-3.1-5.2-9-2.1-13.3l7.9-11,12.6,9.1-9.7,13.4c-1.1,1.5-2.5,2.7-4.1,3.5-1.6-.2-3.2-.7-4.6-1.7h0Z"/>
          <path class="cls-13" d="M44.8,218.2c1.1-1.5,1.8-3.3,2-5,1.4,3,1.1,6.6-1,9.5l-7.9,10.9-2.8-2,9.7-13.4Z"/>
          <path class="cls-7" d="M35.2,231.6l-12.6-9.1,7.9-10.9c3.1-4.3,9-5.2,13.3-2.1h0c1.4,1,2.4,2.3,3.1,3.8-.3,1.8-.9,3.5-2.1,5l-9.7,13.4Z"/>
        </g>
        <g>
          <path class="cls-1" d="M19.1,233.5l-.9,1.3s0,0,0,0c0,0-.7.9-1.2,2.3-.6,1.8-.6,3.4.1,4.9,0,.1,0,.2,0,.3,0,.3-.2.6-.4.7-.2.1-.5.1-.7,0h0s0,0,0,0c0,0,0,0,0,0-.1,0-.2-.2-.2-.3-.9-1.9-.9-4-.2-6.1.5-1.5,1.3-2.5,1.4-2.7l.9-1.3,6.4-8.9,1.2.9-6.4,8.9Z"/>
          <path class="cls-6" d="M39.6,211c-1.6-.2-3.2.3-4.7,1.4-1.1.9-1.8,1.8-1.8,1.8,0,0,0,0,0,0l-.9,1.3-6.6,9.1-1.2-.9,6.6-9.1.9-1.3c0-.1.8-1.2,2.1-2.2,1.8-1.4,3.8-2,5.9-1.7.1,0,.3,0,.4.1,0,0,0,0,0,0,0,0,0,0,0,0h0c.2.2.3.4.3.7,0,.3-.3.6-.5.6-.1,0-.2,0-.3,0Z"/>
        </g>
      </g>
      <g>
        <path class="cls-7" d="M73.9,239.1s0,0,0,0c.8,1.4,1.3,3,1.3,4.7h0c0,5.3-4.2,9.5-9.5,9.5h-13.5c0,0-13.5.1-13.5.1-5.2,0-9.5-4.2-9.5-9.4h0c0-1.7.4-3.3,1.2-4.7,0,0,0,0,0,0,1.6-2.9,4.7-4.8,8.2-4.8h13.5c0,0,13.5-.1,13.5-.1,3.5,0,6.6,1.9,8.3,4.7Z"/>
        <g>
          <path class="cls-13" d="M73.9,239.1c-1.6-.8-3.4-1.3-5.2-1.2h-16.5c0,0,0-3.4,0-3.4h13.5c3.5,0,6.6,1.8,8.3,4.6Z"/>
          <path class="cls-15" d="M75.3,243.8c0,5.2-4.2,9.5-9.5,9.5h-13.5c0,0,0-15.4,0-15.4h16.5c1.9,0,3.7.4,5.3,1.2.8,1.4,1.3,3,1.3,4.7h0Z"/>
          <path class="cls-13" d="M35.7,238c-1.9,0-3.7.5-5.3,1.3,1.6-2.9,4.7-4.8,8.2-4.8h13.5c0,0,0,3.4,0,3.4h-16.5Z"/>
          <path class="cls-7" d="M52.2,237.9v15.5c0,0-13.4,0-13.4,0-5.2,0-9.5-4.2-9.5-9.4h0c0-1.7.4-3.3,1.2-4.7,1.6-.8,3.4-1.3,5.3-1.3h16.5Z"/>
        </g>
        <g>
          <path class="cls-1" d="M63.2,249.7h1.6s0,0,0,0c0,0,1.2,0,2.5-.4,1.8-.5,3.1-1.6,3.9-3,0,0,.1-.2.2-.2.2-.2.6-.2.8,0,.2.1.4.3.4.6h0s0,0,0,0c0,0,0,0,0,0,0,.1,0,.3,0,.4-1,1.8-2.7,3.1-4.8,3.7-1.5.5-2.8.4-3,.5h-1.6s-11,0-11,0v-1.5s11,0,11,0Z"/>
          <path class="cls-6" d="M32.9,246.5c.8,1.4,2.1,2.4,3.9,3,1.4.4,2.5.4,2.5.4,0,0,0,0,0,0h1.6s11.2,0,11.2,0v1.5s-11.2,0-11.2,0h-1.6c-.2,0-1.4,0-3-.4-2.2-.6-3.9-1.9-4.9-3.7,0-.1,0-.2-.1-.4,0,0,0,0,0,0,0,0,0,0,0,0h0c0-.3.2-.5.4-.6.3-.2.6-.1.8,0,0,0,.2.1.2.2Z"/>
        </g>
      </g>
      <g>
        <path class="cls-7" d="M63.2,229.3s0,0,0,0c-.8-1.4-1.3-3-1.3-4.7h0c0-5.3,4.2-9.5,9.5-9.5h13.5s13.5,0,13.5,0c5.2,0,9.5,4.2,9.5,9.5h0c0,1.7-.4,3.3-1.2,4.7,0,0,0,0,0,0-1.6,2.9-4.7,4.8-8.2,4.8h-13.5s-13.5,0-13.5,0c-3.5,0-6.6-1.9-8.2-4.7Z"/>
        <g>
          <path class="cls-13" d="M63.2,229.3c1.6.8,3.4,1.3,5.2,1.3h16.5s0,3.4,0,3.4h-13.5c-3.5,0-6.6-1.8-8.2-4.7Z"/>
          <path class="cls-15" d="M61.9,224.6c0-5.2,4.2-9.5,9.5-9.5h13.5s0,15.5,0,15.5h-16.5c-1.9,0-3.7-.4-5.3-1.2-.8-1.4-1.3-3-1.3-4.7h0Z"/>
          <path class="cls-4" d="M101.4,230.4c1.9,0,3.7-.5,5.3-1.3-1.6,2.9-4.7,4.8-8.3,4.8h-13.5s0-3.4,0-3.4h16.5Z"/>
          <path class="cls-7" d="M84.9,230.5v-15.5s13.4,0,13.4,0c5.2,0,9.5,4.2,9.5,9.5h0c0,1.7-.4,3.3-1.2,4.7-1.6.8-3.4,1.3-5.3,1.3h-16.5Z"/>
        </g>
        <g>
          <path class="cls-1" d="M73.9,218.6h-1.6s0,0,0,0c0,0-1.2,0-2.5.4-1.8.5-3.1,1.6-3.9,3,0,0-.1.2-.2.2-.2.2-.6.2-.8,0-.2-.1-.4-.3-.4-.6h0s0,0,0,0c0,0,0,0,0,0,0-.1,0-.3,0-.4,1-1.8,2.7-3.1,4.8-3.7,1.5-.5,2.8-.4,3-.4h1.6s11,0,11,0v1.5s-11,0-11,0Z"/>
          <path class="cls-6" d="M104.2,221.9c-.8-1.4-2.1-2.4-3.9-3-1.4-.4-2.5-.4-2.5-.4,0,0,0,0,0,0h-1.6s-11.2,0-11.2,0v-1.5s11.2,0,11.2,0h1.6c.2,0,1.4,0,3,.4,2.2.6,3.9,1.9,4.9,3.7,0,.1,0,.2,0,.4,0,0,0,0,0,0,0,0,0,0,0,0h0c0,.3-.2.5-.4.6-.3.2-.6.1-.8,0,0,0-.2-.1-.2-.2Z"/>
        </g>
      </g>
      <g>
        <path class="cls-7" d="M69.4,247s0,0,0,0c-.8-1.4-1.3-3-1.3-4.7h0c0-5.3,4.2-9.5,9.5-9.5h13.5c0,0,13.5-.1,13.5-.1,5.2,0,9.5,4.2,9.5,9.4h0c0,1.7-.4,3.3-1.2,4.7,0,0,0,0,0,0-1.6,2.9-4.7,4.8-8.2,4.8h-13.5c0,0-13.5.1-13.5.1-3.5,0-6.6-1.9-8.3-4.7Z"/>
        <g>
          <path class="cls-13" d="M69.4,247.1c1.6.8,3.4,1.3,5.2,1.2h16.5c0,0,0,3.4,0,3.4h-13.5c-3.5,0-6.6-1.8-8.3-4.6Z"/>
          <path class="cls-15" d="M68.1,242.3c0-5.2,4.2-9.5,9.5-9.5h13.5c0,0,0,15.4,0,15.4h-16.5c-1.9,0-3.7-.4-5.3-1.2-.8-1.4-1.3-3-1.3-4.7h0Z"/>
          <path class="cls-4" d="M107.6,248.1c1.9,0,3.7-.5,5.3-1.3-1.6,2.9-4.7,4.8-8.2,4.8h-13.5c0,0,0-3.4,0-3.4h16.5Z"/>
          <path class="cls-7" d="M91.2,248.2v-15.5c0,0,13.4,0,13.4,0,5.2,0,9.5,4.2,9.5,9.4h0c0,1.7-.4,3.3-1.2,4.7-1.6.8-3.4,1.3-5.3,1.3h-16.5Z"/>
        </g>
        <g>
          <path class="cls-1" d="M80.1,236.4h-1.6s0,0,0,0c0,0-1.2,0-2.5.4-1.8.5-3.1,1.6-3.9,3,0,0-.1.2-.2.2-.2.2-.6.2-.8,0-.2-.1-.4-.3-.4-.6h0s0,0,0,0c0,0,0,0,0,0,0-.1,0-.3,0-.4,1-1.8,2.7-3.1,4.8-3.7,1.5-.5,2.8-.4,3-.4h1.6s11,0,11,0v1.5s-11,0-11,0Z"/>
          <path class="cls-6" d="M110.4,239.6c-.8-1.4-2.1-2.4-3.9-3-1.4-.4-2.5-.4-2.5-.4,0,0,0,0,0,0h-1.6s-11.2,0-11.2,0v-1.5s11.2,0,11.2,0h1.6c.2,0,1.4,0,3,.4,2.2.6,3.9,1.9,4.9,3.7,0,.1,0,.2.1.4,0,0,0,0,0,0,0,0,0,0,0,0h0c0,.3-.2.5-.4.6-.3.2-.6.1-.8,0,0,0-.2-.1-.2-.2Z"/>
        </g>
      </g>
      <g>
        <path class="cls-7" d="M88.6,236.7s0,0,0,0c.4,1.6.4,3.2-.1,4.9h0c-1.5,5-6.8,7.9-11.8,6.4l-13-3.8-12.9-3.8c-5-1.5-7.9-6.8-6.4-11.8h0c.5-1.6,1.4-3.1,2.5-4.2,0,0,0,0,0,0,2.4-2.3,5.9-3.2,9.3-2.2l12.9,3.8,12.9,3.8c3.4,1,5.8,3.7,6.5,6.9Z"/>
        <g>
          <path class="cls-13" d="M88.6,236.7c-1.3-1.2-2.9-2.2-4.7-2.7l-15.8-4.7,1-3.3,13,3.8c3.4,1,5.8,3.7,6.5,6.9Z"/>
          <path class="cls-15" d="M88.5,241.6c-1.5,5-6.8,7.9-11.8,6.4l-13-3.8,4.4-14.9,15.8,4.7c1.8.5,3.4,1.5,4.7,2.7.4,1.6.4,3.3-.1,4.9h0Z"/>
          <path class="cls-15" d="M52.3,224.6c-1.8-.5-3.7-.6-5.4-.3,2.4-2.3,5.9-3.2,9.3-2.2l12.9,3.8-1,3.3-15.8-4.7Z"/>
          <path class="cls-7" d="M68.1,229.3l-4.4,14.9-12.9-3.8c-5-1.5-7.9-6.8-6.4-11.8h0c.5-1.6,1.4-3.1,2.5-4.2,1.7-.3,3.6-.3,5.4.3l15.8,4.7Z"/>
        </g>
        <g>
          <path class="cls-1" d="M75.3,243.8l1.5.4s0,0,0,0c0,0,1.1.4,2.5.3,1.9,0,3.4-.6,4.6-1.8,0,0,.2-.1.3-.2.3-.1.6,0,.8.2.2.2.3.4.2.7h0s0,0,0,0c0,0,0,0,0,0,0,.1-.1.2-.2.3-1.5,1.4-3.4,2.2-5.7,2.2-1.6,0-2.8-.4-3-.4l-1.5-.4-10.5-3.1.4-1.5,10.5,3.1Z"/>
          <path class="cls-6" d="M47.2,231.9c.4,1.6,1.3,2.9,2.9,4,1.2.8,2.3,1.1,2.3,1.1,0,0,0,0,0,0l1.5.4,10.8,3.2-.4,1.5-10.8-3.2-1.5-.4c-.2,0-1.4-.4-2.7-1.3-1.9-1.2-3.1-2.9-3.6-4.9,0-.1,0-.3,0-.4,0,0,0,0,0,0,0,0,0,0,0,0h0c0-.2.3-.4.6-.5.3,0,.6,0,.8.3,0,0,.1.2.1.3Z"/>
        </g>
      </g>
      <g>
        <path class="cls-7" d="M130.9,223.6s0,0,0,0c0,1.6-.4,3.2-1.3,4.7h0c-2.7,4.5-8.5,6-13,3.3l-11.6-6.9-11.6-6.9c-4.5-2.7-6-8.5-3.3-13h0c.9-1.5,2.1-2.6,3.5-3.4,0,0,0,0,0,0,2.9-1.6,6.5-1.7,9.5.1l11.6,6.9,11.6,6.9c3,1.8,4.7,5,4.7,8.3Z"/>
        <g>
          <path class="cls-13" d="M130.9,223.6c-.9-1.5-2.2-2.8-3.9-3.8l-14.2-8.4,1.8-3,11.6,6.9c3,1.8,4.7,5,4.7,8.3Z"/>
          <path class="cls-15" d="M129.6,228.3c-2.7,4.5-8.5,6-13,3.3l-11.6-6.9,7.9-13.3,14.2,8.4c1.6,1,2.9,2.3,3.9,3.8,0,1.6-.4,3.3-1.3,4.7h0Z"/>
          <path class="cls-4" d="M98.7,203c-1.6-1-3.4-1.5-5.2-1.6,2.9-1.6,6.5-1.7,9.5.1l11.6,6.9-1.8,3-14.2-8.4Z"/>
          <path class="cls-7" d="M112.8,211.4l-7.9,13.3-11.6-6.9c-4.5-2.7-6-8.5-3.3-13h0c.9-1.5,2.1-2.6,3.5-3.4,1.8.1,3.5.6,5.2,1.6l14.2,8.4Z"/>
        </g>
        <g>
          <path class="cls-1" d="M116.2,227.2l1.4.8s0,0,0,0c0,0,1,.6,2.4,1,1.8.4,3.4.2,4.9-.6,0,0,.2,0,.3-.1.3,0,.6.1.7.4.1.2.2.5,0,.7h0s0,0,0,0c0,0,0,0,0,0,0,.1-.2.2-.3.3-1.8,1-3.9,1.3-6.1.7-1.6-.4-2.6-1.1-2.8-1.1l-1.3-.8-9.4-5.6.8-1.3,9.4,5.6Z"/>
          <path class="cls-6" d="M91.9,208.9c0,1.6.6,3.2,1.8,4.5,1,1.1,2,1.6,2,1.6,0,0,0,0,0,0l1.4.8,9.7,5.7-.8,1.3-9.7-5.7-1.3-.8c-.1,0-1.2-.7-2.3-1.9-1.5-1.7-2.3-3.6-2.3-5.7,0-.1,0-.3,0-.4,0,0,0,0,0,0h0s0,0,0,0c.1-.2.4-.3.7-.3.3,0,.6.2.7.5,0,0,0,.2,0,.3Z"/>
        </g>
      </g>
      <g>
        <path class="cls-7" d="M51.1,104.4s0,0,0,0c.8,1.4,1.3,3,1.3,4.7h0c0,5.3-4.2,9.5-9.5,9.5h-13.5c0,0-13.5.1-13.5.1-5.2,0-9.5-4.2-9.5-9.4h0c0-1.7.4-3.3,1.2-4.7,0,0,0,0,0,0,1.6-2.9,4.7-4.8,8.2-4.8h13.5c0,0,13.5-.1,13.5-.1,3.5,0,6.6,1.9,8.3,4.7Z"/>
        <g>
          <path class="cls-13" d="M51.1,104.4c-1.6-.8-3.4-1.3-5.2-1.2h-16.5c0,0,0-3.4,0-3.4h13.5c3.5,0,6.6,1.8,8.3,4.6Z"/>
          <path class="cls-15" d="M52.5,109.1c0,5.2-4.2,9.5-9.5,9.5h-13.5c0,0,0-15.4,0-15.4h16.5c1.9,0,3.7.4,5.3,1.2.8,1.4,1.3,3,1.3,4.7h0Z"/>
          <path class="cls-13" d="M12.9,103.3c-1.9,0-3.7.5-5.3,1.3,1.6-2.9,4.7-4.8,8.2-4.8h13.5c0,0,0,3.4,0,3.4H12.9Z"/>
          <path class="cls-7" d="M29.4,103.2v15.5c0,0-13.4,0-13.4,0-5.2,0-9.5-4.2-9.5-9.4h0c0-1.7.4-3.3,1.2-4.7,1.6-.8,3.4-1.3,5.3-1.3h16.5Z"/>
        </g>
        <g>
          <path class="cls-1" d="M40.4,115h1.6s0,0,0,0c0,0,1.2,0,2.5-.4,1.8-.5,3.1-1.6,3.9-3,0,0,.1-.2.2-.2.2-.2.6-.2.8,0,.2.1.4.3.4.6h0s0,0,0,0c0,0,0,0,0,0,0,.1,0,.3,0,.4-1,1.8-2.7,3.1-4.8,3.7-1.5.5-2.8.4-3,.5h-1.6s-11,0-11,0v-1.5s11,0,11,0Z"/>
          <path class="cls-6" d="M10.1,111.8c.8,1.4,2.1,2.4,3.9,3,1.4.4,2.5.4,2.5.4,0,0,0,0,0,0h1.6s11.2,0,11.2,0v1.5s-11.2,0-11.2,0h-1.6c-.2,0-1.4,0-3-.4-2.2-.6-3.9-1.9-4.9-3.7,0-.1,0-.2-.1-.4,0,0,0,0,0,0,0,0,0,0,0,0h0c0-.3.2-.5.4-.6.3-.2.6-.1.8,0,0,0,.2.1.2.2Z"/>
        </g>
      </g>
      <g>
        <path class="cls-7" d="M129,115.3s0,0,0,0c.8,1.4,1.3,3,1.3,4.7h0c0,5.3-4.2,9.5-9.5,9.5h-13.5c0,0-13.5.1-13.5.1-5.2,0-9.5-4.2-9.5-9.4h0c0-1.7.4-3.3,1.2-4.7,0,0,0,0,0,0,1.6-2.9,4.7-4.8,8.2-4.8h13.5c0,0,13.5-.1,13.5-.1,3.5,0,6.6,1.9,8.3,4.7Z"/>
        <g>
          <path class="cls-13" d="M129,115.3c-1.6-.8-3.4-1.3-5.2-1.2h-16.5c0,0,0-3.4,0-3.4h13.5c3.5,0,6.6,1.8,8.3,4.6Z"/>
          <path class="cls-15" d="M130.3,120.1c0,5.2-4.2,9.5-9.5,9.5h-13.5c0,0,0-15.4,0-15.4h16.5c1.9,0,3.7.4,5.3,1.2.8,1.4,1.3,3,1.3,4.7h0Z"/>
          <path class="cls-4" d="M90.7,114.3c-1.9,0-3.7.5-5.3,1.3,1.6-2.9,4.7-4.8,8.2-4.8h13.5c0,0,0,3.4,0,3.4h-16.5Z"/>
          <path class="cls-7" d="M107.2,114.2v15.5c0,0-13.4,0-13.4,0-5.2,0-9.5-4.2-9.5-9.4h0c0-1.7.4-3.3,1.2-4.7,1.6-.8,3.4-1.3,5.3-1.3h16.5Z"/>
        </g>
        <g>
          <path class="cls-1" d="M118.2,126h1.6s0,0,0,0c0,0,1.2,0,2.5-.4,1.8-.5,3.1-1.6,3.9-3,0,0,.1-.2.2-.2.2-.2.6-.2.8,0,.2.1.4.3.4.6h0s0,0,0,0c0,0,0,0,0,0,0,.1,0,.3,0,.4-1,1.8-2.7,3.1-4.8,3.7-1.5.5-2.8.4-3,.5h-1.6s-11,0-11,0v-1.5s11,0,11,0Z"/>
          <path class="cls-6" d="M88,122.8c.8,1.4,2.1,2.4,3.9,3,1.4.4,2.5.4,2.5.4,0,0,0,0,0,0h1.6s11.2,0,11.2,0v1.5s-11.2,0-11.2,0h-1.6c-.2,0-1.4,0-3-.4-2.2-.6-3.9-1.9-4.9-3.7,0-.1,0-.2-.1-.4,0,0,0,0,0,0,0,0,0,0,0,0h0c0-.3.2-.5.4-.6.3-.2.6-.1.8,0,0,0,.2.1.2.2Z"/>
        </g>
      </g>
      <g>
        <path class="cls-7" d="M123.1,141.2s0,0,0,0c1.1-1.2,1.9-2.7,2.2-4.3h0c1.1-5.1-2.1-10.2-7.3-11.3l-13.2-2.9-13.2-2.9c-5.1-1.1-10.2,2.1-11.3,7.3h0c-.4,1.7-.3,3.4.2,4.9,0,0,0,0,0,0,1,3.1,3.6,5.6,7.1,6.4l13.2,2.9,13.2,2.9c3.4.7,6.8-.5,9.1-2.9Z"/>
        <g>
          <path class="cls-13" d="M123.1,141.3c-1.7.4-3.5.5-5.4.1l-16.1-3.5-.7,3.4,13.2,2.9c3.4.7,6.8-.5,9.1-2.9Z"/>
          <path class="cls-15" d="M125.3,136.9c1.1-5.1-2.1-10.2-7.3-11.3l-13.2-2.9-3.3,15.1,16.1,3.5c1.8.4,3.7.3,5.4-.1,1.1-1.2,1.9-2.7,2.2-4.4h0Z"/>
          <path class="cls-4" d="M85.5,134.4c-1.9-.4-3.5-1.3-4.9-2.4,1,3.1,3.6,5.7,7.1,6.4l13.2,2.9.7-3.4-16.1-3.5Z"/>
          <path class="cls-7" d="M101.6,137.9l3.3-15.1-13.2-2.9c-5.1-1.1-10.2,2.1-11.3,7.3h0c-.4,1.7-.3,3.4.2,4.9,1.4,1.1,3,2,4.9,2.4l16.1,3.5Z"/>
        </g>
        <g>
          <path class="cls-1" d="M114.8,128.6l1.5.3s0,0,0,0c0,0,1.1.2,2.4.9,1.6.9,2.7,2.2,3.2,3.7,0,.1,0,.2.2.3.2.2.5.3.8.2.3,0,.4-.2.5-.5h0s0,0,0,0c0,0,0,0,0,0,0-.1,0-.3,0-.4-.6-2-2-3.6-3.9-4.7-1.4-.8-2.7-1-2.8-1.1l-1.5-.3-10.7-2.3-.3,1.5,10.7,2.3Z"/>
          <path class="cls-6" d="M84.6,125.5c1.1-1.2,2.6-1.9,4.4-2.1,1.4-.1,2.6.2,2.6.2,0,0,0,0,0,0l1.5.3,11,2.4.3-1.5-11-2.4-1.5-.3c-.2,0-1.4-.3-3-.2-2.3.2-4.2,1.1-5.5,2.6,0,.1-.1.2-.2.3,0,0,0,0,0,0,0,0,0,0,0,0h0c0,.3,0,.5.3.7.2.2.6.2.8.1,0,0,.2-.1.3-.2Z"/>
        </g>
      </g>
      <g>
        <path class="cls-7" d="M62.8,110.6s0,0,0,0c0-1.6-.4-3.2-1.2-4.7h0c-2.6-4.6-8.3-6.2-12.9-3.7l-11.8,6.6-11.8,6.6c-4.6,2.6-6.2,8.3-3.7,12.9h0c.8,1.5,2,2.7,3.4,3.5,0,0,0,0,0,0,2.8,1.7,6.4,1.9,9.5.1l11.8-6.6,11.8-6.6c3.1-1.7,4.8-4.9,4.9-8.2Z"/>
        <g>
          <path class="cls-13" d="M62.8,110.6c-1,1.5-2.3,2.7-4,3.7l-14.4,8,1.7,3,11.8-6.6c3.1-1.7,4.8-4.9,4.9-8.2Z"/>
          <path class="cls-15" d="M61.6,105.9c-2.6-4.6-8.3-6.2-12.9-3.7l-11.8,6.6,7.5,13.5,14.4-8c1.6-.9,3-2.2,4-3.6,0-1.6-.4-3.2-1.2-4.7h0Z"/>
          <path class="cls-4" d="M30,130.3c-1.7.9-3.5,1.4-5.2,1.4,2.8,1.7,6.5,1.9,9.5.1l11.8-6.6-1.7-3-14.4,8Z"/>
          <path class="cls-7" d="M44.4,122.3l-7.5-13.5-11.8,6.6c-4.6,2.6-6.2,8.3-3.7,12.9h0c.8,1.5,2,2.7,3.4,3.5,1.8,0,3.6-.5,5.2-1.4l14.4-8Z"/>
        </g>
        <g>
          <path class="cls-1" d="M48.2,106.6l1.4-.8s0,0,0,0c0,0,1-.6,2.4-.9,1.8-.4,3.4-.2,4.8.7,0,0,.2,0,.3.1.3,0,.6,0,.8-.4.1-.2.2-.5,0-.7h0s0,0,0,0c0,0,0,0,0,0,0-.1-.2-.2-.3-.3-1.7-1.1-3.8-1.4-6-.9-1.6.3-2.7,1-2.8,1.1l-1.4.8-9.6,5.3.7,1.3,9.6-5.3Z"/>
          <path class="cls-6" d="M23.4,124.2c0-1.6.7-3.2,2-4.5,1-1,2-1.6,2-1.6,0,0,0,0,0,0l1.4-.8,9.8-5.5-.7-1.3-9.8,5.5-1.4.8c-.1,0-1.3.7-2.4,1.8-1.6,1.6-2.4,3.6-2.4,5.6,0,.1,0,.3.1.4,0,0,0,0,0,0h0s0,0,0,0c.1.2.4.4.6.4.3,0,.6-.2.7-.5,0,0,0-.2,0-.3Z"/>
        </g>
      </g>
      <g>
        <path class="cls-7" d="M21.7,139.3s0,0,0,0c-1.6-.2-3.2-.7-4.6-1.7h0c-4.2-3.1-5.2-9-2.1-13.3l7.9-11,7.9-10.9c3.1-4.3,9-5.2,13.3-2.1h0c1.4,1,2.4,2.3,3.1,3.8,0,0,0,0,0,0,1.3,3,1.1,6.6-1,9.5l-7.9,10.9-7.9,10.9c-2.1,2.9-5.4,4.2-8.7,3.9Z"/>
        <g>
          <path class="cls-13" d="M21.7,139.3c1.6-.8,3-2,4.1-3.5l9.7-13.4,2.8,2-7.9,10.9c-2.1,2.9-5.4,4.2-8.7,3.9Z"/>
          <path class="cls-15" d="M17.1,137.5c-4.2-3.1-5.2-9-2.1-13.3l7.9-11,12.6,9.1-9.7,13.4c-1.1,1.5-2.5,2.7-4.1,3.5-1.6-.2-3.2-.7-4.6-1.7h0Z"/>
          <path class="cls-4" d="M45.1,109c1.1-1.5,1.8-3.3,2-5,1.4,3,1.1,6.6-1,9.5l-7.9,10.9-2.8-2,9.7-13.4Z"/>
          <path class="cls-7" d="M35.5,122.4l-12.6-9.1,7.9-10.9c3.1-4.3,9-5.2,13.3-2.1h0c1.4,1,2.4,2.3,3.1,3.8-.3,1.8-.9,3.5-2.1,5l-9.7,13.4Z"/>
        </g>
        <g>
          <path class="cls-1" d="M19.4,124.3l-.9,1.3s0,0,0,0c0,0-.7.9-1.2,2.3-.6,1.8-.6,3.4.1,4.9,0,.1,0,.2,0,.3,0,.3-.2.6-.4.7-.2.1-.5.1-.7,0h0s0,0,0,0c0,0,0,0,0,0-.1,0-.2-.2-.2-.3-.9-1.9-.9-4-.2-6.1.5-1.5,1.3-2.5,1.4-2.7l.9-1.3,6.4-8.9,1.2.9-6.4,8.9Z"/>
          <path class="cls-6" d="M39.9,101.8c-1.6-.2-3.2.3-4.7,1.4-1.1.9-1.8,1.8-1.8,1.8,0,0,0,0,0,0l-.9,1.3-6.6,9.1-1.2-.9,6.6-9.1.9-1.3c0-.1.8-1.2,2.1-2.2,1.8-1.4,3.8-2,5.9-1.7.1,0,.3,0,.4.1,0,0,0,0,0,0,0,0,0,0,0,0h0c.2.2.3.4.3.7,0,.3-.3.6-.5.6-.1,0-.2,0-.3,0Z"/>
        </g>
      </g>
      <g>
        <path class="cls-7" d="M74.2,129.8s0,0,0,0c.8,1.4,1.3,3,1.3,4.7h0c0,5.3-4.2,9.5-9.5,9.5h-13.5c0,0-13.5.1-13.5.1-5.2,0-9.5-4.2-9.5-9.4h0c0-1.7.4-3.3,1.2-4.7,0,0,0,0,0,0,1.6-2.9,4.7-4.8,8.2-4.8h13.5c0,0,13.5-.1,13.5-.1,3.5,0,6.6,1.9,8.3,4.7Z"/>
        <g>
          <path class="cls-13" d="M74.2,129.8c-1.6-.8-3.4-1.3-5.2-1.2h-16.5c0,0,0-3.4,0-3.4h13.5c3.5,0,6.6,1.8,8.3,4.6Z"/>
          <path class="cls-15" d="M75.6,134.6c0,5.2-4.2,9.5-9.5,9.5h-13.5c0,0,0-15.4,0-15.4h16.5c1.9,0,3.7.4,5.3,1.2.8,1.4,1.3,3,1.3,4.7h0Z"/>
          <path class="cls-4" d="M36,128.8c-1.9,0-3.7.5-5.3,1.3,1.6-2.9,4.7-4.8,8.2-4.8h13.5c0,0,0,3.4,0,3.4h-16.5Z"/>
          <path class="cls-7" d="M52.5,128.7v15.5c0,0-13.4,0-13.4,0-5.2,0-9.5-4.2-9.5-9.4h0c0-1.7.4-3.3,1.2-4.7,1.6-.8,3.4-1.3,5.3-1.3h16.5Z"/>
        </g>
        <g>
          <path class="cls-1" d="M63.5,140.5h1.6s0,0,0,0c0,0,1.2,0,2.5-.4,1.8-.5,3.1-1.6,3.9-3,0,0,.1-.2.2-.2.2-.2.6-.2.8,0,.2.1.4.3.4.6h0s0,0,0,0c0,0,0,0,0,0,0,.1,0,.3,0,.4-1,1.8-2.7,3.1-4.8,3.7-1.5.5-2.8.4-3,.5h-1.6s-11,0-11,0v-1.5s11,0,11,0Z"/>
          <path class="cls-6" d="M33.2,137.3c.8,1.4,2.1,2.4,3.9,3,1.4.4,2.5.4,2.5.4,0,0,0,0,0,0h1.6s11.2,0,11.2,0v1.5s-11.2,0-11.2,0h-1.6c-.2,0-1.4,0-3-.4-2.2-.6-3.9-1.9-4.9-3.7,0-.1,0-.2-.1-.4,0,0,0,0,0,0,0,0,0,0,0,0h0c0-.3.2-.5.4-.6.3-.2.6-.1.8,0,0,0,.2.1.2.2Z"/>
        </g>
      </g>
      <g>
        <path class="cls-7" d="M63.5,120.1s0,0,0,0c-.8-1.4-1.3-3-1.3-4.7h0c0-5.3,4.2-9.5,9.5-9.5h13.5s13.5,0,13.5,0c5.2,0,9.6,4.2,9.5,9.5h0c0,1.7-.4,3.3-1.2,4.7,0,0,0,0,0,0-1.6,2.9-4.7,4.8-8.2,4.8h-13.5s-13.5,0-13.5,0c-3.5,0-6.6-1.9-8.2-4.7Z"/>
        <g>
          <path class="cls-13" d="M63.5,120.1c1.6.8,3.4,1.3,5.2,1.3h16.5s0,3.4,0,3.4h-13.5c-3.5,0-6.6-1.8-8.2-4.7Z"/>
          <path class="cls-15" d="M62.2,115.3c0-5.2,4.2-9.5,9.5-9.5h13.5s0,15.5,0,15.5h-16.5c-1.9,0-3.7-.4-5.3-1.2-.8-1.4-1.3-3-1.3-4.7h0Z"/>
          <path class="cls-4" d="M101.7,121.2c1.9,0,3.7-.5,5.3-1.3-1.6,2.9-4.7,4.8-8.3,4.8h-13.5s0-3.4,0-3.4h16.5Z"/>
          <path class="cls-7" d="M85.2,121.3v-15.5s13.4,0,13.4,0c5.2,0,9.6,4.2,9.5,9.5h0c0,1.7-.4,3.3-1.2,4.7-1.6.8-3.4,1.3-5.3,1.3h-16.5Z"/>
        </g>
        <g>
          <path class="cls-1" d="M74.2,109.4h-1.6s0,0,0,0c0,0-1.2,0-2.5.4-1.8.5-3.1,1.6-3.9,3,0,0-.1.2-.2.2-.2.2-.6.2-.8,0-.2-.1-.4-.3-.4-.6h0s0,0,0,0c0,0,0,0,0,0,0-.1,0-.3,0-.4,1-1.8,2.7-3.1,4.8-3.7,1.5-.5,2.8-.4,3-.4h1.6s11,0,11,0v1.5s-11,0-11,0Z"/>
          <path class="cls-6" d="M104.5,112.7c-.8-1.4-2.1-2.4-3.9-3-1.4-.4-2.5-.4-2.5-.4,0,0,0,0,0,0h-1.6s-11.2,0-11.2,0v-1.5s11.2,0,11.2,0h1.6c.2,0,1.4,0,3,.4,2.2.6,3.9,1.9,4.9,3.7,0,.1,0,.2,0,.4,0,0,0,0,0,0,0,0,0,0,0,0h0c0,.3-.2.5-.4.6-.3.2-.6.1-.8,0,0,0-.2-.1-.2-.2Z"/>
        </g>
      </g>
      <g>
        <path class="cls-7" d="M69.7,137.8s0,0,0,0c-.8-1.4-1.3-3-1.3-4.7h0c0-5.3,4.2-9.5,9.5-9.5h13.5c0,0,13.5-.1,13.5-.1,5.2,0,9.5,4.2,9.5,9.4h0c0,1.7-.4,3.3-1.2,4.7,0,0,0,0,0,0-1.6,2.9-4.7,4.8-8.2,4.8h-13.5c0,0-13.5.1-13.5.1-3.5,0-6.6-1.9-8.3-4.7Z"/>
        <g>
          <path class="cls-13" d="M69.7,137.8c1.6.8,3.4,1.3,5.2,1.2h16.5c0,0,0,3.4,0,3.4h-13.5c-3.5,0-6.6-1.8-8.3-4.6Z"/>
          <path class="cls-15" d="M68.3,133.1c0-5.2,4.2-9.5,9.5-9.5h13.5c0,0,0,15.4,0,15.4h-16.5c-1.9,0-3.7-.4-5.3-1.2-.8-1.4-1.3-3-1.3-4.7h0Z"/>
          <path class="cls-4" d="M107.9,138.9c1.9,0,3.7-.5,5.3-1.3-1.6,2.9-4.7,4.8-8.2,4.8h-13.5c0,0,0-3.4,0-3.4h16.5Z"/>
          <path class="cls-7" d="M91.4,139v-15.5c0,0,13.4,0,13.4,0,5.2,0,9.5,4.2,9.5,9.4h0c0,1.7-.4,3.3-1.2,4.7-1.6.8-3.4,1.3-5.3,1.3h-16.5Z"/>
        </g>
        <g>
          <path class="cls-1" d="M80.4,127.2h-1.6s0,0,0,0c0,0-1.2,0-2.5.4-1.8.5-3.1,1.6-3.9,3,0,0-.1.2-.2.2-.2.2-.6.2-.8,0-.2-.1-.4-.3-.4-.6h0s0,0,0,0c0,0,0,0,0,0,0-.1,0-.3,0-.4,1-1.8,2.7-3.1,4.8-3.7,1.5-.5,2.8-.4,3-.4h1.6s11,0,11,0v1.5s-11,0-11,0Z"/>
          <path class="cls-6" d="M110.7,130.4c-.8-1.4-2.1-2.4-3.9-3-1.4-.4-2.5-.4-2.5-.4,0,0,0,0,0,0h-1.6s-11.2,0-11.2,0v-1.5s11.2,0,11.2,0h1.6c.2,0,1.4,0,3,.4,2.2.6,3.9,1.9,4.9,3.7,0,.1,0,.2.1.4,0,0,0,0,0,0,0,0,0,0,0,0h0c0,.3-.2.5-.4.6-.3.2-.6.1-.8,0,0,0-.2-.1-.2-.2Z"/>
        </g>
      </g>
      <g>
        <path class="cls-7" d="M88.9,127.4s0,0,0,0c.4,1.6.4,3.2-.1,4.9h0c-1.5,5-6.8,7.9-11.8,6.4l-13-3.8-12.9-3.8c-5-1.5-7.9-6.8-6.4-11.8h0c.5-1.6,1.4-3.1,2.5-4.2,0,0,0,0,0,0,2.4-2.3,5.9-3.2,9.3-2.2l12.9,3.8,12.9,3.8c3.4,1,5.8,3.7,6.5,6.9Z"/>
        <g>
          <path class="cls-13" d="M88.9,127.4c-1.3-1.2-2.9-2.2-4.7-2.7l-15.8-4.7,1-3.3,13,3.8c3.4,1,5.8,3.7,6.5,6.9Z"/>
          <path class="cls-15" d="M88.8,132.3c-1.5,5-6.8,7.9-11.8,6.4l-13-3.8,4.4-14.9,15.8,4.7c1.8.5,3.4,1.5,4.7,2.7.4,1.6.4,3.3-.1,4.9h0Z"/>
          <path class="cls-4" d="M52.6,115.4c-1.8-.5-3.7-.6-5.4-.3,2.4-2.3,5.9-3.2,9.3-2.2l12.9,3.8-1,3.3-15.8-4.7Z"/>
          <path class="cls-7" d="M68.4,120l-4.4,14.9-12.9-3.8c-5-1.5-7.9-6.8-6.4-11.8h0c.5-1.6,1.4-3.1,2.5-4.2,1.7-.3,3.6-.3,5.4.3l15.8,4.7Z"/>
        </g>
        <g>
          <path class="cls-1" d="M75.6,134.6l1.5.4s0,0,0,0c0,0,1.1.4,2.5.3,1.9,0,3.4-.6,4.6-1.8,0,0,.2-.1.3-.2.3,0,.6,0,.8.2.2.2.3.4.2.7h0s0,0,0,0c0,0,0,0,0,0,0,.1-.1.2-.2.3-1.5,1.4-3.4,2.2-5.7,2.2-1.6,0-2.8-.4-3-.4l-1.5-.4-10.5-3.1.4-1.5,10.5,3.1Z"/>
          <path class="cls-6" d="M47.5,122.7c.4,1.6,1.3,2.9,2.9,4,1.2.8,2.3,1.1,2.3,1.1,0,0,0,0,0,0l1.5.4,10.8,3.2-.4,1.5-10.8-3.2-1.5-.4c-.2,0-1.4-.4-2.7-1.3-1.9-1.2-3.1-2.9-3.6-4.9,0-.1,0-.3,0-.4,0,0,0,0,0,0,0,0,0,0,0,0h0c0-.2.3-.4.6-.5.3,0,.6,0,.8.3,0,0,.1.2.1.3Z"/>
        </g>
      </g>
      <g>
        <path class="cls-7" d="M131.2,114.4s0,0,0,0c0,1.6-.4,3.2-1.3,4.7h0c-2.7,4.5-8.5,6-13,3.3l-11.6-6.9-11.6-6.9c-4.5-2.7-6-8.5-3.3-13h0c.9-1.5,2.1-2.6,3.5-3.4,0,0,0,0,0,0,2.9-1.6,6.5-1.7,9.5.1l11.6,6.9,11.6,6.9c3,1.8,4.7,5,4.7,8.3Z"/>
        <g>
          <path class="cls-13" d="M131.2,114.4c-.9-1.5-2.2-2.8-3.9-3.8l-14.2-8.4,1.8-3,11.6,6.9c3,1.8,4.7,5,4.7,8.3Z"/>
          <path class="cls-15" d="M129.9,119.1c-2.7,4.5-8.5,6-13,3.3l-11.6-6.9,7.9-13.3,14.2,8.4c1.6,1,2.9,2.3,3.9,3.8,0,1.6-.4,3.3-1.3,4.7h0Z"/>
          <path class="cls-13" d="M98.9,93.8c-1.6-1-3.4-1.5-5.2-1.6,2.9-1.6,6.5-1.7,9.5.1l11.6,6.9-1.8,3-14.2-8.4Z"/>
          <path class="cls-7" d="M113.1,102.2l-7.9,13.3-11.6-6.9c-4.5-2.7-6-8.5-3.3-13h0c.9-1.5,2.1-2.6,3.5-3.4,1.8.1,3.5.6,5.2,1.6l14.2,8.4Z"/>
        </g>
        <g>
          <path class="cls-1" d="M116.5,118l1.4.8s0,0,0,0c0,0,1,.6,2.4,1,1.8.4,3.4.2,4.9-.6,0,0,.2,0,.3-.1.3,0,.6.1.7.4.1.2.2.5,0,.7h0s0,0,0,0c0,0,0,0,0,0,0,.1-.2.2-.3.3-1.8,1-3.9,1.3-6.1.7-1.6-.4-2.6-1.1-2.8-1.1l-1.3-.8-9.4-5.6.8-1.3,9.4,5.6Z"/>
          <path class="cls-6" d="M92.2,99.7c0,1.6.6,3.2,1.8,4.5,1,1.1,2,1.6,2,1.6,0,0,0,0,0,0l1.4.8,9.7,5.7-.8,1.3-9.7-5.7-1.3-.8c-.1,0-1.2-.7-2.3-1.9-1.5-1.7-2.3-3.6-2.3-5.7,0-.1,0-.3,0-.4,0,0,0,0,0,0h0s0,0,0,0c.1-.2.4-.3.7-.3.3,0,.6.2.7.5,0,0,0,.2,0,.3Z"/>
        </g>
      </g>
      <g>
        <g>
          <path class="cls-15" d="M101.1,4.1h-8.7c1.9,1.7,3.2,4.3,3.2,7.1v27.3c0,3.5-1.9,6.4-4.7,8.3h10.2c4.8,0,8.8-4,8.8-8.8V12.8c0-4.8-3.9-8.7-8.8-8.7Z"/>
          <path class="cls-11" d="M95.7,38.5V11.2c0-2.8-1.3-5.4-3.2-7.1h-56.1c-4.8,0-8.7,3.9-8.7,8.7v25.1c0,4.8,3.9,8.8,8.7,8.8h54.6c2.8-1.9,4.7-4.8,4.7-8.3Z"/>
        </g>
        <path class="cls-14" d="M46.1,34.4c0,3.1-2.6,5.7-5.7,5.7h-.1c-3.1,0-5.7-2.6-5.7-5.7v-16.9c0-3.1,2.5-5.7,5.7-5.7h.1c3.1,0,5.7,2.6,5.7,5.7v16.9Z"/>
        <g>
          <polygon class="cls-13" points="3.8 112.6 3.8 129.2 3.8 144.8 3.8 213.5 15.6 213.5 15.6 112.6 3.8 112.6"/>
          <polygon class="cls-13" points="21.9 112.6 21.9 213.5 133.5 213.5 133.5 144.8 133.5 129.2 133.5 112.6 21.9 112.6"/>
          <path class="cls-10" d="M15.6,227.6h0c0,.9,1.4,19.1,14.7,23.8.4.1.7.2,1.1.2,1.3,0,2.6-.8,3-2.1.6-1.7-.3-3.5-2-4.1-8.9-3.1-10.3-16.8-10.4-18v-13.9h-6.3v14.1Z"/>
          <path class="cls-9" d="M21.9,93.9c0-4.4,3.5-9.8,10-15.6,5.3-4.7,10.6-7.9,10.7-7.9h0c1.5-1,2-2.9,1.1-4.4-.9-1.5-2.9-2-4.4-1.1-.2.1-5.9,3.5-11.6,8.6-8.1,7.2-12.2,14.1-12.2,20.5v18.7h6.3v-18.7Z"/>
          <rect class="cls-13" x="15.6" y="112.6" width="6.3" height="100.9"/>
        </g>
      </g>
      <g>
        <path class="cls-9" d="M27.9,175.5l2.2-15.4-6.4,15.4h-4.7l.7-15.5-5.7,15.5h-2.7l8.7-23.5c-3.4,1.1-5.4,3.8-5.4,7.7s.4,2.1.5,2.4c-2.2,0-3.7-.9-3.7-3.1,0-4.4,5.7-9.1,10.9-9.1s1.8.2,2.6.5l-.8,18.1,7.5-18.1h4.9l-3.6,25.2h-4.9Z"/>
        <path class="cls-9" d="M43,172.9c2.7,0,4.4-1.5,6.1-3.5h1.2c-2,3.2-4.9,6.3-9.4,6.3s-5.3-1.6-5.3-5.4,2.2-12.2,9.3-12.2,3.8,1.6,3.8,3.3c0,3.9-3.8,7-7.9,7.2,0,.5,0,1,0,1.4,0,2.3.8,2.9,2.5,2.9ZM45,159.9c-1.7,0-3.4,3.7-4.1,7.1,2.6-.2,5-2.8,5-5.7s-.2-1.4-.9-1.4Z"/>
        <path class="cls-9" d="M66.9,151.5l-3.9,18.5c-.1.4-.1.8-.1,1.1,0,1,.4,1.3,1.4,1.3s2.3-1.3,2.8-3h1.4c-2,5.6-5,6.1-6.9,6.1s-3.1-1-3.4-2.9c-1,1.6-2.6,3.2-5.1,3.2s-4.6-1.4-4.6-5.5,2.8-12,8.8-12,2.8.8,2.8,1.7h0c0,.1,1.7-7.7,1.7-7.7l5.1-.7ZM58.2,169.4l1.7-7.8c0-.4-.4-1.2-1.4-1.2-2.9,0-4.8,6.2-4.8,9.4s1.1,2.7,1.7,2.7c1,0,2.4-1,2.8-2.8v-.2Z"/>
        <path class="cls-9" d="M74.3,158.4l-2.5,11.7c-.1.4-.1.8-.1,1.1,0,1,.4,1.3,1.4,1.3s2.6-1.3,3.1-3h1.4c-2,5.6-5.3,6.3-7.2,6.3s-3.7-1.2-3.7-4.1.1-1.4.3-2.2l2.3-11h4.9ZM72.7,151.1c1.5,0,2.7,1.2,2.7,2.7s-1.2,2.7-2.7,2.7-2.7-1.2-2.7-2.7,1.2-2.7,2.7-2.7Z"/>
        <path class="cls-9" d="M86.1,161.3c0-.9-.3-1.4-1-1.4-2.2,0-4.4,6.3-4.4,10.1s.8,2.9,2.5,2.9c2.7,0,4.4-1.5,6.1-3.5h1.2c-2,3.2-4.9,6.3-9.4,6.3s-5.3-1.6-5.3-5.4,2.3-12.2,9.2-12.2,3.8,1.6,3.8,3.2-.8,2.5-1.8,2.5-.8-.1-1.2-.4c.3-.8.4-1.4.4-2Z"/>
        <path class="cls-9" d="M96.6,158.4l-2.5,11.7c-.1.4-.1.8-.1,1.1,0,1,.4,1.3,1.4,1.3s2.6-1.3,3.1-3h1.4c-2,5.6-5.3,6.3-7.2,6.3s-3.7-1.2-3.7-4.1.1-1.4.3-2.2l2.3-11h4.9ZM95.1,151.1c1.5,0,2.7,1.2,2.7,2.7s-1.2,2.7-2.7,2.7-2.7-1.2-2.7-2.7,1.2-2.7,2.7-2.7Z"/>
        <path class="cls-9" d="M107.1,161.4c-1.2,0-2.2,1.4-2.7,3.2l-2.3,11h-4.9l3.6-17.1h4.9l-.4,1.8c1.4-1.6,2.9-1.9,4-1.9,2.2,0,3.8,1.1,3.8,3.9s-1.6,6.9-1.6,8.8.3,1.4,1.4,1.4c1.5,0,2.1-1.2,2.9-3h1.4c-1.9,5.6-4.6,6.3-6.4,6.3-3,0-4-1.9-4-3.9s1.5-6.5,1.5-8.7-.4-1.7-1.2-1.7Z"/>
        <path class="cls-9" d="M122.5,172.5c1.3,0,2.9-.9,4-1.8-.7,3.9-3.2,5.1-5.9,5.1s-5.3-1.6-5.3-5.4,2.2-12.2,9.3-12.2,3.8,1.6,3.8,3.3c0,4-3.8,7-7.9,7.2,0,.3,0,.7,0,1,0,2.2.9,2.8,2.1,2.8ZM124.8,159.9c-1.7,0-3.4,3.8-4.1,7.1,2.7-.1,5-2.8,5-5.7s-.2-1.4-.9-1.4Z"/>
      </g>
    </g>
  </g>
  <g>
    <rect class="cls-14" x="125.3" y="22.7" width="114.2" height="175.2" rx="16.4" ry="16.4" transform="translate(-20.2 44) rotate(-13)"/>
    <path class="cls-13" d="M202.3,180.7c.4,1.9-.7,3.8-2.7,4.2h0c-1.9.4-3.8-.7-4.2-2.7l-33-142.4c-.4-1.9.7-3.8,2.7-4.2h0c1.9-.4,3.8.7,4.2,2.7l33,142.4Z"/>
    <g>
      <g>
        <g>
          <path class="cls-8" d="M157.7,55.1c1.8,8.3-3.4,16.4-11.7,18.2-8.3,1.8-16.4-3.4-18.2-11.6-1.8-8.3,3.4-16.4,11.6-18.2,8.3-1.8,16.4,3.4,18.2,11.6Z"/>
          <path class="cls-16" d="M156.3,54.7c1.8,8.3-3.4,16.4-11.7,18.2-8.3,1.8-16.4-3.4-18.2-11.6-1.8-8.3,3.4-16.4,11.6-18.2,8.3-1.8,16.4,3.4,18.2,11.7Z"/>
          <path class="cls-8" d="M145.3,66.3c.2,1.1-.5,2.2-1.6,2.5h0c-1.1.2-2.2-.5-2.5-1.6l-3.9-17.6c-.2-1.1.5-2.2,1.6-2.5h0c1.1-.2,2.2.5,2.5,1.6l3.9,17.6Z"/>
        </g>
        <g>
          <path class="cls-8" d="M211.2,42.7c1.8,8.3-3.4,16.4-11.6,18.2-8.3,1.8-16.4-3.4-18.2-11.6-1.8-8.3,3.4-16.4,11.6-18.2,8.3-1.8,16.4,3.4,18.2,11.6Z"/>
          <path class="cls-16" d="M209.7,42.3c1.8,8.3-3.4,16.4-11.7,18.2-8.3,1.8-16.4-3.4-18.2-11.6-1.8-8.3,3.4-16.4,11.7-18.2,8.3-1.8,16.4,3.4,18.2,11.7Z"/>
          <path class="cls-8" d="M198.8,54c.2,1.1-.5,2.2-1.6,2.5h0c-1.1.2-2.2-.5-2.5-1.6l-3.9-17.6c-.2-1.1.5-2.2,1.6-2.5h0c1.1-.2,2.2.5,2.5,1.6l3.9,17.6Z"/>
        </g>
      </g>
      <g>
        <g>
          <path class="cls-8" d="M166.7,93.9c1.8,8.3-3.4,16.4-11.7,18.2-8.3,1.8-16.4-3.4-18.2-11.6-1.8-8.3,3.4-16.4,11.7-18.2,8.3-1.8,16.4,3.4,18.2,11.7Z"/>
          <path class="cls-16" d="M165.3,93.6c1.8,8.3-3.4,16.4-11.7,18.2-8.3,1.8-16.4-3.4-18.2-11.7-1.8-8.3,3.4-16.4,11.7-18.2,8.3-1.8,16.4,3.4,18.2,11.6Z"/>
          <path class="cls-8" d="M154.3,105.2c.2,1.1-.5,2.2-1.6,2.5h0c-1.1.2-2.2-.5-2.5-1.6l-3.9-17.6c-.2-1.1.5-2.2,1.6-2.5h0c1.1-.2,2.2.5,2.5,1.6l3.9,17.6Z"/>
        </g>
        <g>
          <path class="cls-8" d="M220.2,81.6c1.8,8.3-3.4,16.4-11.7,18.2-8.3,1.8-16.4-3.4-18.2-11.6-1.8-8.3,3.4-16.4,11.6-18.2,8.3-1.8,16.4,3.4,18.2,11.7Z"/>
          <path class="cls-16" d="M218.7,81.2c1.8,8.3-3.4,16.4-11.7,18.2-8.3,1.8-16.4-3.4-18.2-11.7-1.8-8.3,3.4-16.4,11.7-18.2,8.3-1.8,16.4,3.4,18.2,11.6Z"/>
          <path class="cls-8" d="M207.8,92.8c.2,1.1-.5,2.2-1.6,2.5h0c-1.1.2-2.2-.5-2.5-1.6l-3.9-17.6c-.2-1.1.5-2.2,1.6-2.5h0c1.1-.2,2.2.5,2.5,1.6l3.9,17.6Z"/>
        </g>
      </g>
      <g>
        <g>
          <path class="cls-8" d="M175.7,132.8c1.8,8.3-3.4,16.4-11.7,18.2-8.3,1.8-16.4-3.4-18.2-11.7-1.8-8.3,3.4-16.4,11.7-18.2,8.3-1.8,16.4,3.4,18.2,11.6Z"/>
          <path class="cls-16" d="M174.3,132.4c1.8,8.3-3.4,16.4-11.6,18.2-8.3,1.8-16.4-3.4-18.2-11.6-1.8-8.3,3.4-16.4,11.6-18.2,8.3-1.8,16.4,3.4,18.2,11.6Z"/>
          <path class="cls-8" d="M163.3,144.1c.2,1.1-.5,2.2-1.6,2.5h0c-1.1.2-2.2-.5-2.5-1.6l-3.9-17.6c-.2-1.1.5-2.2,1.6-2.5h0c1.1-.2,2.2.5,2.5,1.6l3.9,17.6Z"/>
        </g>
        <g>
          <path class="cls-8" d="M229.2,120.5c1.8,8.3-3.4,16.4-11.6,18.2-8.3,1.8-16.4-3.4-18.2-11.7-1.8-8.3,3.4-16.4,11.6-18.2,8.3-1.8,16.4,3.4,18.2,11.6Z"/>
          <path class="cls-16" d="M227.7,120.1c1.8,8.3-3.4,16.4-11.7,18.2-8.3,1.8-16.4-3.4-18.2-11.6-1.8-8.3,3.4-16.4,11.7-18.2,8.3-1.8,16.4,3.4,18.2,11.6Z"/>
          <path class="cls-8" d="M216.8,131.7c.2,1.1-.5,2.2-1.6,2.5h0c-1.1.2-2.2-.5-2.5-1.6l-3.9-17.6c-.2-1.1.5-2.2,1.6-2.5h0c1.1-.2,2.2.5,2.5,1.6l3.9,17.6Z"/>
        </g>
      </g>
      <g>
        <g>
          <path class="cls-8" d="M184.7,171.7c1.8,8.3-3.4,16.4-11.7,18.2-8.3,1.8-16.4-3.4-18.2-11.6-1.8-8.3,3.4-16.4,11.7-18.2,8.3-1.8,16.4,3.4,18.2,11.6Z"/>
          <path class="cls-16" d="M183.3,171.3c1.8,8.3-3.4,16.4-11.6,18.2-8.3,1.8-16.4-3.4-18.2-11.6-1.8-8.3,3.4-16.4,11.6-18.2,8.3-1.8,16.4,3.4,18.2,11.6Z"/>
          <path class="cls-8" d="M172.3,183c.2,1.1-.5,2.2-1.6,2.5h0c-1.1.2-2.2-.5-2.5-1.6l-3.9-17.6c-.2-1.1.5-2.2,1.6-2.5h0c1.1-.2,2.2.5,2.5,1.6l3.9,17.6Z"/>
        </g>
        <g>
          <path class="cls-8" d="M238.2,159.3c1.8,8.3-3.4,16.4-11.6,18.2-8.3,1.8-16.4-3.4-18.2-11.6-1.8-8.3,3.4-16.4,11.6-18.2,8.3-1.8,16.4,3.4,18.2,11.6Z"/>
          <path class="cls-16" d="M236.7,158.9c1.8,8.3-3.4,16.4-11.7,18.2-8.3,1.8-16.4-3.4-18.2-11.6-1.8-8.3,3.4-16.4,11.7-18.2,8.3-1.8,16.4,3.4,18.2,11.6Z"/>
          <path class="cls-8" d="M225.8,170.6c.2,1.1-.5,2.2-1.6,2.5h0c-1.1.2-2.2-.5-2.5-1.6l-3.9-17.6c-.2-1.1.5-2.2,1.6-2.5h0c1.1-.2,2.2.5,2.5,1.6l3.9,17.6Z"/>
        </g>
      </g>
    </g>
  </g>
  <g>
    <path class="cls-14" d="M136.4,129.6h140.3c8.9,0,16.2,7.3,16.2,16.2v80.2c0,8.9-7.3,16.2-16.2,16.2h-140.3c-8.9,0-16.2-7.3-16.2-16.2v-80.2c0-8.9,7.3-16.2,16.2-16.2Z" transform="translate(-35.2 323) rotate(-71.5)"/>
    <path class="cls-13" d="M182.6,257.5c-1.8-.6-2.8-2.6-2.2-4.4l45.6-136.7c.6-1.8,2.6-2.8,4.4-2.2h0c1.8.6,2.8,2.6,2.2,4.4l-45.6,136.7c-.6,1.8-2.6,2.8-4.4,2.2h0Z"/>
    <g>
      <g>
        <g>
          <path class="cls-7" d="M232.3,179.3s0,0,0,0c1.3,1.4,2.9,2.5,4.9,3.2h0c5.9,2,12.2-1.1,14.2-7.1l5.1-15.2,5.1-15.2c2-5.9-1.2-12.3-7.1-14.3h0c-1.9-.6-3.9-.7-5.8-.3,0,0,0,0,0,0-3.8.8-7.2,3.5-8.5,7.5l-5.1,15.2-5.1,15.2c-1.3,4-.3,8.2,2.3,11.1Z"/>
          <g>
            <path class="cls-13" d="M232.3,179.3c-.3-2.1-.2-4.3.5-6.4l6.2-18.7-3.9-1.3-5.1,15.3c-1.3,4-.3,8.1,2.3,11.1Z"/>
            <path class="cls-15" d="M237.2,182.5c5.9,2,12.2-1.1,14.2-7.1l5.1-15.3-17.5-5.8-6.2,18.7c-.7,2.1-.8,4.3-.5,6.4,1.3,1.4,3,2.5,4.9,3.2h0Z"/>
            <path class="cls-2" d="M245.2,135.8c.7-2.1,1.9-4,3.4-5.5-3.8.8-7.1,3.5-8.5,7.5l-5,15.1,3.9,1.3,6.2-18.4Z"/>
            <path class="cls-3" d="M239.1,154.2l17.5,5.8,5-15.1c2-5.9-1.2-12.3-7.1-14.3h0c-1.9-.6-4-.7-5.8-.4-1.5,1.5-2.7,3.3-3.5,5.5l-6.2,18.4Z"/>
          </g>
          <g>
            <path class="cls-1" d="M248.4,171.2l-.6,1.8s0,0,0,0c0,0-.4,1.3-1.4,2.7-1.3,1.8-2.9,2.9-4.8,3.3-.1,0-.3,0-.4.2-.3.2-.4.6-.4.9,0,.3.3.6.6.7h0s0,0,0,0c0,0,0,0,0,0,.1,0,.3,0,.5,0,2.4-.5,4.4-1.9,6-4.1,1.1-1.6,1.5-3,1.6-3.2l.6-1.8,4.2-12.5-1.6-.5-4.2,12.5Z"/>
            <path class="cls-16" d="M255.9,135.9c1.3,1.4,2,3.3,1.9,5.5,0,1.7-.5,3-.5,3,0,0,0,0,0,0l-.6,1.8-4.2,12.6,1.6.5,4.2-12.6.6-1.8c0-.2.6-1.6.7-3.5,0-2.7-.7-5.1-2.3-6.8-.1-.1-.2-.2-.4-.2s0,0,0,0c0,0,0,0,0,0h0c-.3,0-.6,0-.8.2-.3.3-.4.6-.2,1,0,.1.1.2.2.3Z"/>
          </g>
        </g>
        <g>
          <path class="cls-7" d="M179.1,161.6s0,0,0,0c1.3,1.4,2.9,2.5,4.9,3.2h0c5.9,2,12.2-1.1,14.2-7.1l5.1-15.2,5.1-15.2c2-5.9-1.2-12.3-7.1-14.3h0c-1.9-.6-3.9-.7-5.8-.3,0,0,0,0,0,0-3.8.8-7.2,3.5-8.5,7.5l-5.1,15.2-5.1,15.2c-1.3,4-.3,8.2,2.3,11.1Z"/>
          <g>
            <path class="cls-13" d="M179.1,161.6c-.3-2.1-.2-4.3.5-6.4l6.2-18.7-3.9-1.3-5.1,15.3c-1.3,4-.3,8.1,2.3,11.1Z"/>
            <path class="cls-15" d="M184,164.7c5.9,2,12.2-1.1,14.2-7.1l5.1-15.3-17.5-5.8-6.2,18.7c-.7,2.1-.8,4.3-.5,6.4,1.3,1.4,3,2.5,4.9,3.2h0Z"/>
            <path class="cls-2" d="M192,118c.7-2.1,1.9-4,3.4-5.5-3.8.8-7.1,3.5-8.5,7.5l-5,15.1,3.9,1.3,6.2-18.4Z"/>
            <path class="cls-3" d="M185.9,136.5l17.5,5.8,5-15.1c2-5.9-1.2-12.3-7.1-14.3h0c-1.9-.6-4-.7-5.8-.4-1.5,1.5-2.7,3.3-3.5,5.5l-6.2,18.4Z"/>
          </g>
          <g>
            <path class="cls-1" d="M195.2,153.5l-.6,1.8s0,0,0,0c0,0-.4,1.3-1.4,2.7-1.3,1.8-2.9,2.9-4.8,3.3-.1,0-.3,0-.4.2-.3.2-.4.6-.4.9,0,.3.3.6.6.7h0s0,0,0,0c0,0,0,0,0,0,.1,0,.3,0,.5,0,2.4-.5,4.4-1.9,6-4.1,1.1-1.6,1.5-3,1.6-3.2l.6-1.8,4.2-12.5-1.6-.5-4.2,12.5Z"/>
            <path class="cls-16" d="M202.7,118.1c1.3,1.4,2,3.3,1.9,5.5,0,1.7-.5,3-.5,3,0,0,0,0,0,0l-.6,1.8-4.2,12.6,1.6.5,4.2-12.6.6-1.8c0-.2.6-1.6.7-3.5,0-2.7-.7-5.1-2.3-6.8-.1-.1-.2-.2-.4-.2s0,0,0,0c0,0,0,0,0,0h0c-.3,0-.6,0-.8.2-.3.3-.4.6-.2,1,0,.1.1.2.2.3Z"/>
          </g>
        </g>
      </g>
      <g>
        <g>
          <path class="cls-7" d="M206.8,255.7s0,0,0,0c1.3,1.4,2.9,2.5,4.9,3.2h0c5.9,2,12.2-1.1,14.2-7.1l5.1-15.2,5.1-15.2c2-5.9-1.2-12.3-7.1-14.3h0c-1.9-.6-3.9-.7-5.8-.3,0,0,0,0,0,0-3.8.8-7.2,3.5-8.5,7.5l-5.1,15.2-5.1,15.2c-1.3,4-.3,8.2,2.3,11.1Z"/>
          <g>
            <path class="cls-13" d="M206.8,255.7c-.3-2.1-.2-4.3.5-6.4l6.2-18.7-3.9-1.3-5.1,15.3c-1.3,4-.3,8.1,2.3,11.1Z"/>
            <path class="cls-15" d="M211.8,258.8c5.9,2,12.2-1.1,14.2-7.1l5.1-15.3-17.5-5.8-6.2,18.7c-.7,2.1-.8,4.3-.5,6.4,1.3,1.4,3,2.5,4.9,3.2h0Z"/>
            <path class="cls-2" d="M219.7,212.1c.7-2.1,1.9-4,3.4-5.5-3.8.8-7.1,3.5-8.5,7.5l-5,15.1,3.9,1.3,6.2-18.4Z"/>
            <path class="cls-3" d="M213.6,230.6l17.5,5.8,5-15.1c2-5.9-1.2-12.3-7.1-14.3h0c-1.9-.6-4-.7-5.8-.4-1.5,1.5-2.7,3.3-3.5,5.5l-6.2,18.4Z"/>
          </g>
          <g>
            <path class="cls-1" d="M222.9,247.5l-.6,1.8s0,0,0,0c0,0-.4,1.3-1.4,2.7-1.3,1.8-2.9,2.9-4.8,3.3-.1,0-.3,0-.4.2-.3.2-.4.6-.4.9,0,.3.3.6.6.7h0s0,0,0,0c0,0,0,0,0,0,.1,0,.3,0,.5,0,2.4-.5,4.4-1.9,6-4.1,1.1-1.6,1.5-3,1.6-3.2l.6-1.8,4.2-12.5-1.6-.5-4.2,12.5Z"/>
            <path class="cls-16" d="M230.4,212.2c1.3,1.4,2,3.3,1.9,5.5,0,1.7-.5,3-.5,3,0,0,0,0,0,0l-.6,1.8-4.2,12.6,1.6.5,4.2-12.6.6-1.8c0-.2.6-1.6.7-3.5,0-2.7-.7-5.1-2.3-6.8-.1-.1-.2-.2-.4-.2s0,0,0,0c0,0,0,0,0,0h0c-.3,0-.6,0-.8.2-.3.3-.4.6-.2,1,0,.1.1.2.2.3Z"/>
          </g>
        </g>
        <g>
          <path class="cls-7" d="M153.7,237.9s0,0,0,0c1.3,1.4,2.9,2.5,4.9,3.2h0c5.9,2,12.2-1.1,14.2-7.1l5.1-15.2,5.1-15.2c2-5.9-1.2-12.3-7.1-14.3h0c-1.9-.6-3.9-.7-5.8-.3,0,0,0,0,0,0-3.8.8-7.2,3.5-8.5,7.5l-5.1,15.2-5.1,15.2c-1.3,4-.3,8.2,2.3,11.1Z"/>
          <g>
            <path class="cls-13" d="M153.6,237.9c-.3-2.1-.2-4.3.5-6.4l6.2-18.7-3.9-1.3-5.1,15.3c-1.3,4-.3,8.1,2.3,11.1Z"/>
            <path class="cls-15" d="M158.6,241c5.9,2,12.2-1.1,14.2-7.1l5.1-15.3-17.5-5.8-6.2,18.7c-.7,2.1-.8,4.3-.5,6.4,1.3,1.4,3,2.5,4.9,3.2h0Z"/>
            <path class="cls-2" d="M166.5,194.4c.7-2.1,1.9-4,3.4-5.5-3.8.8-7.1,3.5-8.5,7.5l-5,15.1,3.9,1.3,6.2-18.4Z"/>
            <path class="cls-3" d="M160.4,212.8l17.5,5.8,5-15.1c2-5.9-1.2-12.3-7.1-14.3h0c-1.9-.6-4-.7-5.8-.4-1.5,1.5-2.7,3.3-3.5,5.5l-6.2,18.4Z"/>
          </g>
          <g>
            <path class="cls-1" d="M169.7,229.8l-.6,1.8s0,0,0,0c0,0-.4,1.3-1.4,2.7-1.3,1.8-2.9,2.9-4.8,3.3-.1,0-.3,0-.4.2-.3.2-.4.6-.4.9,0,.3.3.6.6.7h0s0,0,0,0c0,0,0,0,0,0,.1,0,.3,0,.5,0,2.4-.5,4.4-1.9,6-4.1,1.1-1.6,1.5-3,1.6-3.2l.6-1.8,4.2-12.5-1.6-.5-4.2,12.5Z"/>
            <path class="cls-16" d="M177.2,194.4c1.3,1.4,2,3.3,1.9,5.5,0,1.7-.5,3-.5,3,0,0,0,0,0,0l-.6,1.8-4.2,12.6,1.6.5,4.2-12.6.6-1.8c0-.2.6-1.6.7-3.5,0-2.7-.7-5.1-2.3-6.8-.1-.1-.2-.2-.4-.2s0,0,0,0c0,0,0,0,0,0h0c-.3,0-.6,0-.8.2-.3.3-.4.6-.2,1,0,.1.1.2.2.3Z"/>
          </g>
        </g>
      </g>
    </g>
  </g>
</svg>