<?xml version="1.0" encoding="UTF-8"?>
<svg id="Where_is_found" data-name="Where is found" xmlns="http://www.w3.org/2000/svg" version="1.1" viewBox="0 0 32 32">
  <defs>
    <style>
      .cls-1 {
        fill: #82b7d9;
      }

      .cls-1, .cls-2, .cls-3 {
        stroke-width: 0px;
      }

      .cls-2 {
        fill: #5b798c;
      }

      .cls-3 {
        fill: #77a8c7;
      }
    </style>
  </defs>
  <g id="ic_sheep" data-name="ic sheep">
    <g>
      <path class="cls-2" d="M29.6,19.3s-.1.3,0,.5c1.4,1.2.5,2.7.5,2.7v3.4c.1,0-.7.4-.7.6s-.1.5-.2.8-1.4,0-1.6,0,0-.2,0-.2h-.5s-.2,0-.1-.4,1.4-1.2,1.6-1.5,0-1.9,0-2.2-1.3-3.7-1.3-3.7h2.4c0-.1,0-.1,0-.1Z"/>
      <path class="cls-1" d="M29.6,19.3s.9,0,1-1.6-.8-2,.2-4.3c.4-.7-.2-2-.2-2,0,0,.5.3,1-.2s1.1-4.9-2.1-6.2-5.7-1.1-10.8-1.4-8.2.8-9.3,1.5-4,2.3-5.5,3-1.9,5-2.3,5.2-.4.6-.9,2.3-.7,2.8,1.1,2.6c0,0,.6,2.2,1.2,3.1s.8,1.8.8,1.8c0,0,.9.5,1.4,0h.5s.4-.2.4-.5.5-3.1.9-3.3c0,0,.2-.4,1.2-1,.6-.6.6-1,1.1-1,0,0-.2,1.4.9,2v.4c0,0,1.7,1.1,1.7,1.1,0,0,.8.2,1.4-.2l2.3-1.1s1.5-.6,2.3-2.7c0,0,2.3-.1,3.1,0,0,0,.5,1.5,2,2.1,0,0-.1,1,.2,1.3h2.1c0-.2.5-.5.6-.7,0,0,.8,0,1.1,0h2.4c0-.1,0,0,0,0Z"/>
      <path class="cls-2" d="M25.5,20.1c0,.9-1,2.4-1.3,2.9s-.3,1.5-.3,2-.4.4-.7.5-.2.8-.2.8c0,0-.7.5-1.4.6s-.4-.2-.4-.2c-.5,0-.5-.1-.5-.1.2-1.1,1.6-1.9,1.6-1.9,0,0,1.4-4.1,1.1-4.6,0,0,0,0,0,0h2.1s0,0,0,0Z"/>
      <path class="cls-2" d="M15.7,19.3c-.2.5-.2,2.2-.1,2.6s0,1.1-.2,1.6c-.2.5,0,1.5.3,2,.3.5-.3.5-.4.5s-.3,0-.1.2c.1.1.2.7.1.9-.1.2-1.3.5-1.5.4-.1,0-.1-.3-.1-.3,0,0-.8.4-.7-.1s.7-1,1-1.6c.3-.5,0-2,0-2,0,0-.6-.7-.4-1.8s0-1.4,0-1.4l2.3-1.1h0Z"/>
      <path class="cls-2" d="M12,20.9c.1,1.1-.1,1.7-.1,1.7,0,0-.4.8.1,1.4s.3.6.2.7,0,.4,0,.4c.2,0,.6.1.8.4s-.3,1.3-.4,1.5-.2,0-.2,0c0,.1-.5.5-.5.5-.5-.6-.7-2.6-.8-3.1s-.8-1.3-.9-2.3c0-.7.3-1.7.4-2.2l1.6,1.1h0Z"/>
      <path class="cls-2" d="M3.8,17.6h-.7s-.2.2-.5.4-.6.2-.6.2c0,0,.4,1.9,1,2.7.5.7.8,1.5.9,1.8,0,.1,0,.4,0,.4,0,0,.4.2.7.2.5,0,.5-.2.5-.2h.5s.2-.1.3-.4c.2-.6.3-2.8.9-3.4,0,0-.5,0-.8-.2-.4.2-.8,1.3-.8,1.3,0,0-.3.2-.5,0s.2-.8-.7-1.3-.4-1.5-.4-1.5h0Z"/>
      <path class="cls-3" d="M4.1,17.5c.2-.6.3-1.8.8-1.7s1.4,1.6,1.4,1.6c0,0,.5.7-.2,1.5-.6.7-.8,1.3-.8,1.3,0,0-.1,0-.2,0-.2,0-.1-.2-.2-.3,0-.2.1-.4-.4-.8-.2-.1-.4-.2-.6-.4s-.4-.5,0-1.3h0Z"/>
      <path class="cls-3" d="M26,19.1s-.9-.9-.8-2c0,0,.1-.8-.4-.9-.9,0-2.4-.2-3.5.3-.1,0,.7,1.6,2,2.1,0,0-.1.8.1,1.2h1.9s0-.2.1-.3.2-.1.5-.4h0Z"/>
      <path class="cls-3" d="M18.1,16.3s-.5-2-1.5-2.4c0,0,1.9.5,3.3.5s1.3-1,2.9-.6c0,1.3.9,1.6,2.2,2.4,0,0-2.2-.5-3.8.2-.7-.2-3.1-.1-3.1-.1h0Z"/>
      <path class="cls-3" d="M9.6,17.1s.5,0,.6,0,.6-.2.8.2.6,1.2,1,1.5.5,1.2,1.2,1.5c0,0-.6.4-1,.2s-1.6-1-1.6-1v-.3c0,0-1.3-.7-1-2h0Z"/>
      <path class="cls-3" d="M3.5,18.9s.2.4.3.5.2.4,0,.6-.5,0-.6,0-.2-.3,0-.5.4-.5.4-.5Z"/>
      <path class="cls-2" d="M3.4,19.4s-.2.2-.1.3.1.2.1.2c0,0,0-.2,0-.2s0-.2,0-.2h0Z"/>
      <path class="cls-3" d="M7.5,10.8c.2,0,2.3,2.9,2,4.4,0,0,.3-.7-.1-2s-1.2-2.3-1.5-2.5-.5-.1-.5,0c0,0,0,.1,0,.1h0Z"/>
      <path class="cls-3" d="M30.6,11.3c-.2,0-1.5-3.4-.8-4.8,0,0-.5.6-.4,1.9s.6,2.6.8,2.8.5.2.5.2c0,0,0-.2,0-.2Z"/>
      <path class="cls-3" d="M5.2,22.9v-.6s0-.6,0-.6c0,0,0,.3,0,.6,0,.2,0,.5,0,.5,0,0,0,0,0,0h0Z"/>
    </g>
  </g>
</svg>