<?xml version="1.0" encoding="UTF-8"?>
<svg id="Livello_2" data-name="Livello 2" xmlns="http://www.w3.org/2000/svg" viewBox="0 0 19.23 23.68">
  <defs>
    <style>
      .cls-1 {
        fill: #f08384;
      }

      .cls-2 {
        fill: #fff;
      }

      .cls-3 {
        fill: #ca8d8d;
      }

      .cls-4 {
        fill: #d18c8c;
      }

      .cls-5 {
        fill: #c5686a;
      }

      .cls-6 {
        fill: #ae3f17;
      }

      .cls-7 {
        opacity: .51;
      }
    </style>
  </defs>
  <g id="Complications">
    <g id="ic_Gastro-intestinal_problems" data-name="ic_Gastro-intestinal problems">
      <g>
        <g id="Tracciato_28-2" data-name="Tracciato 28-2">
          <path class="cls-5" d="m14.41,11.98c-.05-.09,0-.22.17-.45.02-.02.03-.05.05-.07-.42.13-1.42.44-1.61.44h-.08l-.05-.08-.02-.07.12-.09c.37-.22,1.8-.94,2.17-.95h0c.15,0,.24.04.28.12.07.13-.02.28-.04.31l-.02.03c.52-.18,1.66-.56,2.1-.56.37,0,.53.21.54.39.02.19-.1.36-.28.4-.29.06-3.2.67-3.2.67h-.08s-.06-.07-.06-.07Z"/>
          <path class="cls-2" d="m17.49,10.7h0c.55,0,.53.52.24.59-.29.06-3.2.67-3.2.67,0,0,0,0,0,0-.02,0-.13-.01.13-.37.17-.24.17-.28.14-.28-.02,0-.05.02-.05.02,0,0-1.51.48-1.73.48-.04,0-.04-.02.02-.05.41-.25,1.79-.93,2.12-.94,0,0,.01,0,.02,0,.31,0,.13.27.13.27l-.16.27s1.77-.65,2.33-.65m0-.2c-.41,0-1.35.3-1.93.49.01-.07,0-.14-.03-.21-.04-.08-.14-.17-.35-.17-.45.02-1.91.77-2.25.97-.12.07-.17.17-.14.27l.04.15h.18c.17,0,.86-.19,1.36-.34-.08.14-.12.27-.06.38l.06.11.16.02s2.96-.61,3.25-.67c.23-.05.38-.27.35-.51-.02-.22-.21-.47-.64-.47h0Z"/>
        </g>
        <g id="Tracciato_29-2" data-name="Tracciato 29-2">
          <path class="cls-5" d="m12.86,9.27l-.07-.08.02-.12c.11-.42.64-1.92.9-2.19.08-.08.15-.12.23-.12.15,0,.22.16.24.26v.03c.29-.6,1.01-2.05,1.34-2.37.08-.08.17-.12.25-.12.06,0,.17.02.26.18.12.23.13.65.01.83-.16.25-1.84,2.71-1.84,2.71l-.03.04h-.08c-.15.01-.2-.2-.23-.44,0-.03,0-.06-.01-.08-.8,1.48-.88,1.48-.95,1.48h-.05Z"/>
          <path class="cls-2" d="m15.77,4.66c.26,0,.33.65.19.86-.16.25-1.84,2.7-1.84,2.7,0,0-.01.01-.03.01-.03,0-.09-.05-.13-.37-.03-.24-.06-.3-.09-.3-.02,0-.03.05-.03.05,0,0-.84,1.56-.94,1.56-.01,0-.01-.02,0-.07.12-.46.64-1.91.88-2.15.06-.06.11-.09.15-.09.11,0,.14.18.14.18l.07.3s1.04-2.21,1.44-2.6c.07-.07.13-.09.18-.09m0-.2c-.11,0-.22.05-.32.15-.31.3-.93,1.51-1.26,2.2-.06-.08-.14-.14-.26-.14-.1,0-.2.05-.3.15-.29.3-.83,1.86-.92,2.24-.01.05-.04.15.03.24l.06.08h.1c.12,0,.2,0,.9-1.26.04.16.12.32.29.32h.09l.09-.08s1.69-2.48,1.85-2.72c.15-.23.12-.69-.01-.93-.11-.21-.27-.24-.35-.24h0Z"/>
        </g>
        <g id="Tracciato_30-2" data-name="Tracciato 30-2">
          <path class="cls-5" d="m13.19,10.53l-.04-.06-.03-.06.08-.13c.34-.43,1.72-1.9,2.16-2.08.07-.03.14-.04.19-.04.1,0,.16.05.19.09.09.12.06.29.05.33l-.02.11c.6-.51,2.26-1.91,2.82-2.12.07-.03.14-.04.2-.04.15,0,.26.09.31.24.09.31-.12.89-.37,1.06-.31.2-3.53,2.2-3.53,2.2h-.05l-.14-.04c-.05-.06-.08-.18.04-.57.02-.07.04-.13.05-.17-.8.62-1.69,1.28-1.84,1.28h-.06Z"/>
          <path class="cls-2" d="m18.8,6.63c.44,0,.17.93-.12,1.11-.32.2-3.52,2.2-3.52,2.2,0,0,0,0-.02,0-.04,0-.12-.05.01-.5.09-.33.08-.4.05-.4-.02,0-.06.04-.06.04,0,0-1.72,1.33-1.88,1.33-.02,0-.01-.02.03-.08.38-.47,1.72-1.89,2.12-2.05.06-.03.12-.04.16-.04.21,0,.14.29.14.29l-.07.39s2.34-2.04,3-2.28c.06-.02.12-.03.17-.03m0-.2c-.07,0-.15.02-.23.05-.53.19-1.93,1.35-2.65,1.96,0-.08-.02-.18-.08-.25-.06-.08-.16-.12-.27-.12-.07,0-.15.02-.23.05-.46.19-1.84,1.66-2.2,2.11-.04.05-.13.16-.07.29l.05.11h.14c.07,0,.21,0,1.67-1.11-.07.27-.06.43.01.53l.06.08.14.02c.05,0,.09-.02.11-.02.02-.01,3.23-2.01,3.55-2.21.29-.19.52-.82.42-1.17-.06-.19-.21-.31-.4-.31h0Z"/>
        </g>
        <g>
          <path class="cls-5" d="m8.55,20.61c-1.62,0-5.91-1.71-7.3-3.95-1.43-2.31.27-5.33.35-5.46l.03-.05.05-.02s.53-.24,1.04-.24,3.34.89,3.66.99c0-.03,2.47-.65,3.9-.65.53,0,.84.08,1,.26.6.67.67,4.72.68,5.19-.09.23-1.76,3.9-3.34,3.94h-.06Z"/>
          <path class="cls-2" d="m2.71,11.06c.47,0,3.61.98,3.61.98,0,0,2.53-.65,3.95-.65.42,0,.74.06.87.2.57.64.63,5.07.63,5.07,0,0-1.68,3.73-3.17,3.77-.02,0-.04,0-.06,0-1.54,0-5.78-1.65-7.15-3.87-1.39-2.25.35-5.28.35-5.28,0,0,.49-.23.96-.23m0-.35c-.54,0-1.09.25-1.11.26l-.1.05-.06.1c-.08.13-1.83,3.24-.34,5.64,1.44,2.33,5.75,4.04,7.45,4.04h.07c1.67-.05,3.3-3.57,3.48-3.97l.03-.07v-.08c-.02-1.07-.11-4.61-.72-5.3-.19-.22-.55-.32-1.13-.32-1.3,0-3.46.51-3.94.63-.7-.22-3.15-.97-3.62-.97h0Z"/>
        </g>
        <g>
          <path class="cls-7" d="m6.11,17.37c-.09.45-.5.78-1.16.93,0,0,0,0,0,0-.01,0-.03,0-.03-.02,0-.02,0-.03.02-.04.64-.14,1.03-.46,1.12-.88.07-.39-.14-.83-.53-1.1-.49-.34-1.12-.33-1.69.02-.01,0-.03,0-.04-.01,0-.01,0-.03,0-.04.59-.36,1.24-.37,1.75-.02.42.29.63.74.55,1.16Z"/>
          <path class="cls-2" d="m6.95,18.33c.49-.66.66-1.26.51-1.8-.17-.58-.7-1.04-1.6-1.39l-.57-1.41-1.23,1.08s-.48.26-.66.35c-.02,0-.05.02-.09.04-.44.2-1.77.82-1.59,1.37.03.1.05.2.08.3.05.23.1.44.26.62.05.06.12.11.19.15l-.33,1.16h.03s1.48.36,1.38.89c-.04.23.01.44.16.61.21.24.54.35.79.34.15,0,.52-.04.75-.34.05-.06.09-.13.13-.2.11-.17.2-.31.39-.38.04-.01.08-.02.11-.02.5.04.47,1.06.47,1.07v.08s.05-.06.05-.06c.03-.03.71-.74.87-1.04.15-.3-.09-1.32-.11-1.41,0,0,.01-.01.02-.02Zm.03,1.4c-.12.25-.63.8-.8.97,0-.25-.05-1.03-.53-1.06,0,0-.01,0-.02,0-.04,0-.08,0-.11.02-.2.07-.31.23-.42.4-.04.06-.08.13-.13.19-.21.27-.56.31-.7.32-.23,0-.54-.09-.74-.32-.13-.16-.18-.35-.14-.56.1-.55-1.17-.89-1.4-.94l.05-.17c.34.22.75.33,1.15.33.22,0,.45-.04.66-.11.23-.08.37-.18.44-.33,0-.02,0-.03-.01-.04-.02,0-.03,0-.04.02-.06.13-.19.22-.4.3-.57.2-1.25.11-1.77-.23l.24-.85c.22.11.53.18.95.19.02,0,.38-.02.66-.2.03-.02.07-.05.11-.07.19-.14.45-.32.65-.24.14.05.24.23.3.53,0,.02.02.03.04.02.02,0,.03-.02.02-.04-.07-.32-.18-.51-.34-.57-.24-.09-.51.1-.71.25-.04.03-.07.05-.1.07-.26.17-.62.19-.62.19-.59-.02-.95-.13-1.15-.35-.15-.16-.19-.37-.24-.59-.02-.1-.04-.2-.08-.3-.11-.33.41-.77,1.56-1.3.04-.02.07-.03.09-.04.19-.09.67-.35.67-.36l1.17-1.03.55,1.35h.01c.88.34,1.41.8,1.57,1.36.15.52-.02,1.11-.5,1.75,0,0,0,.01-.01.02-.17-.27-.48-.44-.79-.42-.02,0-.03.02-.03.03,0,.02.02.03.03.03.33-.02.65.18.79.49.05.25.21,1.05.09,1.29Z"/>
          <path class="cls-1" d="m6.1,17.95s-.03-.01-.03-.03c0-.02.01-.03.03-.03.31-.02.62.15.79.42,0,0,0-.01.01-.02.48-.64.65-1.23.5-1.75-.16-.56-.69-1.01-1.57-1.35h-.01s-.55-1.36-.55-1.36l-1.17,1.03s-.48.26-.67.36c-.02,0-.05.02-.09.04-1.14.53-1.67.96-1.56,1.3.03.1.06.21.08.3.05.22.09.43.24.59.2.22.57.33,1.15.35,0,0,.36-.02.62-.19.03-.02.07-.04.1-.07.2-.14.47-.34.71-.25.16.06.27.25.34.57,0,.02,0,.03-.02.04-.02,0-.03,0-.04-.02-.06-.29-.16-.47-.3-.53-.21-.08-.46.1-.65.24-.04.03-.08.05-.11.07-.28.18-.64.2-.66.2-.42-.02-.73-.08-.95-.19l-.24.85c.52.33,1.2.42,1.77.23.21-.07.34-.17.4-.3,0-.02.03-.02.04-.02.02,0,.02.03.01.04-.07.14-.21.25-.44.33-.21.07-.43.11-.66.11-.4,0-.81-.11-1.15-.33l-.05.17c.22.06,1.5.39,1.4.94-.04.21.01.4.14.56.19.23.51.33.74.32.14,0,.49-.04.7-.32.05-.06.09-.13.13-.19.11-.17.21-.33.42-.4.04-.01.08-.02.11-.02,0,0,.01,0,.02,0,.48.03.53.81.53,1.06.17-.18.68-.73.8-.97s-.04-1.04-.09-1.29c-.14-.31-.46-.51-.79-.49Z"/>
          <path class="cls-2" d="m6.11,17.37c-.09.45-.5.78-1.16.93,0,0,0,0,0,0-.01,0-.03,0-.03-.02,0-.02,0-.03.02-.04.64-.14,1.03-.46,1.12-.88.07-.39-.14-.83-.53-1.1-.49-.34-1.12-.33-1.69.02-.01,0-.03,0-.04-.01,0-.01,0-.03,0-.04.59-.36,1.24-.37,1.75-.02.42.29.63.74.55,1.16Z"/>
        </g>
        <g id="Tracciato_26" data-name="Tracciato 26">
          <path class="cls-4" d="m5.82,11.72c-.94-1.03-1.39-2.02-1.33-2.92.04-.63.33-1.06.51-1.27-.17-.42-.27-1.16.32-1.78.54-.57,1.24-.82,1.86-1.04.28-.1.55-.19.78-.31.39-.2.59-2.05.56-3.65v-.22s1.64-.24,1.64-.24l.04,1.57c.39-.24.8-.37,1.19-.37.83,0,1.55.55,1.92,1.46.47,1.17.38,3.15-1.42,4.88-1.16,1.11-2.35,1.67-3.53,1.67-1.09,0-1.89-.48-2.26-.77-.3.75.49,1.55,1.41,2.38l.62.56-2.22.14-.08-.09Z"/>
          <path class="cls-2" d="m9.92.58l.05,1.76c.5-.41.98-.59,1.42-.59,1.9,0,2.97,3.36.32,5.91-1.28,1.23-2.43,1.61-3.36,1.61-1.44,0-2.33-.9-2.33-.9-.85,1.14.66,2.36,1.49,3.11l-1.51.09c-2.36-2.59-.7-3.97-.7-3.97,0,0-.53-.88.2-1.66.73-.78,1.8-.91,2.57-1.3.77-.39.7-3.88.7-3.88l1.15-.17m.49-.58l-.56.08-1.15.17-.44.06v.44c.04,1.59-.17,3.2-.43,3.43-.2.1-.46.19-.74.29-.65.23-1.38.49-1.96,1.11-.61.65-.58,1.41-.42,1.91-.2.26-.44.69-.48,1.3-.07.97.4,2.02,1.39,3.11l.16.18.24-.02,1.51-.09,1.18-.07-.87-.79-.18-.16c-.69-.62-1.31-1.23-1.38-1.76.47.28,1.17.58,2.07.58,1.25,0,2.5-.59,3.71-1.74,1.89-1.82,1.98-3.91,1.48-5.15-.4-1-1.22-1.62-2.15-1.62-.31,0-.63.07-.95.21l-.02-.89v-.56h-.01Z"/>
        </g>
        <g>
          <path class="cls-1" d="m11.08,15.18c-.06.22-.24.61-.68.7-.38.07-.66.02-.82-.04-.09-.03-.17-.11-.19-.21-.03-.11-.05-.21-.06-.3h-.06s0,.26,0,.26c-1.05.11-1.61,1.03-1.78,1.37-.02-.36-.19-.73-.49-1.07-.19-.21-.38-.36-.47-.42.48-.17.81-.49.81-.49.01-.01.01-.03,0-.04-.01-.01-.03-.01-.04,0,0,0-.05.05-.14.12-.12.09-.31.22-.54.32-.21.09-.45.15-.7.14-.41-.02-.79-.23-1.13-.61.09-.11.17-.25.25-.41l-.05-.03-.26.42c-.37.45-.86.54-1.16.55-.49.01-1.15-.22-1.35-.61-.32-.62-.26-1.1-.26-1.1l.08-1.1h1.42l2.12.12.79.53h0s1.29.16,1.82.83c.18.23.25.49.22.79l-.14.14.04.04s1.28-1.07,2.13-.84c.28.07.49.29.61.63.04.11.04.22.01.32Z"/>
          <path class="cls-2" d="m11.13,14.83c-.13-.37-.35-.59-.66-.67-.67-.18-1.59.41-1.99.7.03-.3-.05-.57-.23-.8-.53-.67-1.74-.84-1.86-.85l-.79-.53-2.13-.12h-1.48l-.09,1.16s-.07.49.26,1.14c.19.37.81.66,1.4.65.3,0,.79-.1,1.18-.54.34.4.73.61,1.16.63.19,0,.38-.02.54-.07.11.07,1.02.71.98,1.6v.19s.06-.17.06-.17c0-.01.54-1.34,1.81-1.46h.03c.03.11.11.21.23.25.17.06.45.11.85.04.48-.09.67-.5.73-.74.03-.12.03-.24-.02-.36Zm-.04.34c-.06.22-.24.61-.68.7-.38.07-.66.02-.82-.04-.09-.03-.17-.11-.19-.21-.03-.11-.05-.21-.06-.3h-.06s0,.26,0,.26c-1.05.11-1.61,1.03-1.78,1.37-.02-.36-.19-.73-.49-1.07-.19-.21-.38-.36-.47-.42.48-.17.81-.49.81-.49.01-.01.01-.03,0-.04-.01-.01-.03-.01-.04,0,0,0-.05.05-.14.12-.12.09-.31.22-.54.32-.21.09-.45.15-.7.14-.41-.02-.79-.23-1.13-.61.09-.11.17-.25.25-.41l-.05-.03-.26.42c-.37.45-.86.54-1.16.55-.49.01-1.15-.22-1.35-.61-.32-.62-.26-1.1-.26-1.1l.08-1.1h1.42l2.12.12.79.53h0s1.29.16,1.82.83c.18.23.25.49.22.79l-.14.14.04.04s1.28-1.07,2.13-.84c.28.07.49.29.61.63.04.11.04.22.01.32Z"/>
        </g>
        <g>
          <path class="cls-1" d="m11.45,13.29c-.31.55-.69.84-1.12.86-.93.05-1.81-1.18-1.82-1.19l-.03-.04-.02.04c-.51.94-1.08,1.43-1.68,1.44,0,0-.02,0-.03,0-.95,0-1.69-1.19-1.7-1.2l-.02-.03-.03.03c-.68.66-1.29.92-1.82.75-.67-.21-1.03-1.04-1.09-1.41l-.36-1.49,1.13-.3,1.78.57,2.64.51h0s2.97-.84,2.97-.84c.08,0,1.08.11,1.42.75.21.39.13.91-.23,1.53Z"/>
          <path class="cls-2" d="m11.73,11.73c-.37-.7-1.43-.78-1.48-.79h0s-2.97.84-2.97.84l-2.63-.51-1.79-.58-1.2.32.38,1.54c.07.38.44,1.23,1.14,1.45.55.17,1.17-.07,1.86-.74.06.09.23.34.49.59.41.4.84.61,1.24.61,0,0,.02,0,.03,0,.62-.02,1.19-.5,1.71-1.43.07.09.27.34.54.59.32.28.8.62,1.3.59.45-.02.84-.32,1.17-.89.37-.65.45-1.18.23-1.59Zm-1.4,2.42c-.93.05-1.81-1.18-1.82-1.19l-.03-.04-.02.04c-.51.94-1.08,1.43-1.68,1.44,0,0-.02,0-.03,0-.95,0-1.69-1.19-1.7-1.2l-.02-.03-.03.03c-.68.66-1.29.92-1.82.75-.67-.21-1.03-1.04-1.09-1.41l-.36-1.49,1.13-.3,1.78.57,2.64.51h0s2.97-.84,2.97-.84c.08,0,1.08.11,1.42.75.21.39.13.91-.23,1.53-.31.55-.69.84-1.12.86Z"/>
        </g>
        <g>
          <path class="cls-6" d="m10.47,17.87h-.06c0-.26-.14-.52-.35-.68-.21-.16-.49-.23-.75-.19-.26.04-.51.18-.68.38l-.03.04-.02-.04c-.15-.31-.09-.71.16-.95l.04.04c-.22.21-.29.56-.17.84.18-.2.43-.33.69-.37.29-.04.58.03.8.21.23.18.37.45.38.73Z"/>
          <path class="cls-2" d="m10.88,16.3s-.15-.2-.4-.37c-.25-.17-.68-.36-1.3-.35-1.18.01-1.66,1.24-1.67,1.25,0,.01-.38,1.28.54,1.89.09.06.18.11.26.14-.03,0-.13-.02-.22-.04-.11-.03-.39-.12-.39-.12-.12-.04-.27-.03-.44.03-.32.11-.55.38-.6.69-.1.65.61,1.07.62,1.08h0s2.69-.38,2.69-.38h.01s0-.01,0-.01c0,0,.65-.81,1.22-1.9.56-1.08-.27-1.84-.33-1.89Zm.28,1.86c-.53,1.03-1.13,1.79-1.2,1.88l-2.65.38c-.08-.05-.67-.44-.58-1.01.04-.29.26-.53.56-.64.09-.03.18-.05.25-.05.05,0,.1,0,.15.02.01,0,.28.1.4.12s.23.05.24.05c.02,0,.11,0,.16,0,.15.03.29.02.4-.05.28-.16.35-.59.33-.81h-.06c.02.22-.05.61-.3.76-.19.11-.44.06-.75-.14-.88-.58-.52-1.81-.52-1.82,0-.01.47-1.2,1.61-1.21.6,0,1.01.18,1.26.34.27.17.39.35.39.35h0s.87.75.32,1.82Z"/>
          <path class="cls-1" d="m10.84,16.35h0s-.13-.19-.39-.36c-.25-.16-.66-.35-1.26-.34-1.14.01-1.61,1.2-1.61,1.21,0,.01-.36,1.24.52,1.82.31.21.57.25.75.14.25-.15.32-.54.3-.76h.06c.02.22-.06.65-.33.81-.11.07-.25.08-.4.05-.04,0-.14,0-.16,0,0,0-.12-.02-.24-.05s-.39-.12-.4-.12c-.04-.02-.09-.02-.15-.02-.08,0-.16.02-.25.05-.3.1-.52.35-.56.64-.08.57.5.96.58,1.01l2.65-.38c.07-.09.67-.86,1.2-1.88.55-1.07-.28-1.79-.32-1.82Z"/>
          <path class="cls-2" d="m10.47,17.87h-.06c0-.26-.14-.52-.35-.68-.21-.16-.49-.23-.75-.19-.26.04-.51.18-.68.38l-.03.04-.02-.04c-.15-.31-.09-.71.16-.95l.04.04c-.22.21-.29.56-.17.84.18-.2.43-.33.69-.37.29-.04.58.03.8.21.23.18.37.45.38.73Z"/>
        </g>
        <g>
          <path class="cls-2" d="m12.76,16.29c.22-.24.33-.5.32-.77-.02-.42-.32-.74-.41-.83.41-.36.6-.71.56-1.06-.06-.49-.57-.8-.7-.87.21-.34.28-.65.21-.94-.1-.36-.39-.54-.46-.59,0-.69-.18-1.13-.51-1.31-.53-.28-1.27.16-1.38.23-.72-.3-1.25.29-1.36.41-.81-.47-1.5.24-1.64.39-.16-.19-.35-.3-.56-.32-.33-.02-.6.18-.69.25-.17-.3-.37-.47-.61-.5-.33-.05-.62.19-.73.29-.08-.36-.24-.61-.5-.75-.48-.26-1.11-.04-1.22,0h0c-.46-.29-.86-.36-1.19-.22-.57.26-.76,1.07-.78,1.21-.42.1-.67.28-.75.53-.12.38.2.79.3.91-.28.17-.44.38-.47.62-.05.4.25.78.35.89-.28.12-.45.29-.48.49-.06.32.21.63.29.71-.27.38-.37.72-.28,1.03.11.38.46.59.59.65-.29.25-.43.52-.41.8.02.44.41.76.5.82-.17.62.05,1,.26,1.22.2.2.43.3.5.32,0,.41.12.71.35.89.39.29.95.15,1.03.13l.86.29-.43-.93c.13-.25.16-.5.08-.73-.16-.46-.68-.72-.81-.78.09-.2.04-.42-.14-.63-.11-.13-.24-.21-.29-.25.36-.75-.17-1.21-.31-1.32.23-.17.35-.37.37-.59.03-.39-.27-.74-.37-.85.22-.11.35-.25.39-.43.06-.29-.15-.59-.23-.68.58-.35.26-1.25.2-1.43.35-.16.53-.32.59-.5.07-.23-.08-.46-.25-.72-.01-.02-.03-.04-.04-.07.23.2.4.26.52.18.04-.03.07-.06.08-.1.07.2.18.35.34.44.34.18.78.05.91,0,.08.31.23.53.47.65.47.25,1.09.04,1.21,0,.28.27.58.4.89.39.49-.02.85-.39.93-.48.51.26.93.31,1.25.15.33-.17.45-.5.49-.64.12.11.47.42.83.38.17-.02.32-.11.45-.28.02.5.43.94.54,1.05-.21.18-.32.4-.33.64-.03.43.26.81.34.9-.25.24-.39.5-.39.79-.01.47.3.84.39.94-.78.61-.32,1.48-.21,1.66-.44.14-.58.48-.62.75-.03.2,0,.39.02.49-.13-.07-.25-.09-.37-.05-.25.08-.4.39-.44.49-.78-.46-1.46.33-1.6.51-.3-.36-.6-.52-.91-.49-.57.06-.94.77-.98.86-.1.06-1.02.68-.4,1.77,0,.01.2.3.44.41-.05.07-.14.24-.02.49.16.32.36.43.37.43h.02s.02,0,.02,0c0,0,.61-.8.85-1.22.06-.11.1-.22.12-.35.02-.11.03-.25.02-.35.33-.12.57-.4.65-.5.28.46.6.69.95.7h.03c.57,0,1.01-.58,1.09-.69.42.09.75.04.98-.16.37-.33.34-.96.33-1.11.44-.06.73-.23.87-.51.23-.45-.02-1.03-.09-1.18.46-.13.73-.35.82-.65.16-.56-.4-1.22-.51-1.35Zm.45,1.34c-.08.29-.35.5-.81.62h-.04s.02.04.02.04c0,0,.35.67.11,1.16-.13.26-.42.42-.85.48h-.03s0,.03,0,.03c0,0,.08.73-.31,1.08-.21.19-.53.24-.94.14h-.02s-.01.01-.01.01c0,0-.47.68-1.05.68h-.02c-.34-.01-.65-.25-.92-.71l-.02-.04-.03.04s-.28.4-.67.52c-.3.1-.59.01-.86-.25-.01-.01-.03-.01-.04,0-.01.01-.01.03,0,.04.28.27.58.36.89.27.01.1,0,.23-.02.33-.02.12-.06.22-.11.32-.22.37-.73,1.06-.83,1.19-.06-.04-.21-.15-.32-.39-.14-.29.03-.45.03-.46l.04-.03-.05-.02c-.23-.09-.44-.4-.45-.41-.62-1.09.35-1.66.39-1.69h0s0-.01,0-.01c0,0,.38-.77.94-.84.29-.03.59.13.88.49l.03.03.02-.03s.19-.26.47-.45c.38-.25.75-.27,1.09-.05l.03.02v-.04s.16-.4.43-.49c.12-.04.25,0,.38.09l.07.05-.02-.08s-.07-.26-.03-.54c.05-.37.26-.61.61-.71h.04s-.02-.05-.02-.05c0,0-.17-.25-.23-.58-.08-.43.07-.79.43-1.06l.03-.02-.03-.03s-.41-.42-.4-.92c0-.28.14-.54.4-.76l.02-.02-.02-.02s-.37-.42-.34-.88c.02-.23.13-.44.34-.62l.03-.02-.03-.02s-.59-.55-.54-1.14c0,0,0-.01,0-.02l.06-.22s0,0,0-.01c.08-.19.24-.36.47-.51.01,0,.02-.03,0-.04,0-.01-.03-.02-.04,0-.34.22-.53.48-.56.78v.02c-.13.2-.28.31-.46.33-.4.04-.82-.4-.82-.4l-.04-.04v.06s-.1.46-.48.65c-.3.15-.71.1-1.21-.16h-.02s-.02,0-.02,0c0,0-.38.45-.9.48-.3.01-.59-.12-.86-.39h-.01s-.02,0-.02,0c0,0-.69.27-1.17.01-.23-.12-.38-.34-.44-.64v-.04s-.04.01-.04.01c0,0-.52.2-.89,0-.17-.09-.29-.26-.34-.5h0s0-.01,0-.02v-.02s-.03,0-.03,0c-.03,0-.03.03-.03.04h0s-.03.14-.11.18c-.08.03-.23,0-.51-.27-.02-.02-.04-.02-.06,0s-.02.04-.01.06c.04.06.07.11.11.17.17.27.3.47.24.67-.05.17-.23.32-.58.48h-.03s.01.04.01.04c0,.01.43,1.06-.19,1.39l-.04.02.03.03s.31.34.24.66c-.04.17-.17.3-.39.4l-.04.02.03.03s.41.4.38.83c-.02.22-.14.41-.38.57l-.04.03.04.02s.73.47.32,1.29v.03s.01.01.01.01c0,0,.65.38.42.84v.03s.02.01.02.01c0,0,.64.27.81.76.08.22.05.45-.08.69h0s.39.84.39.84l-.74-.25h0s-.61.18-.99-.11c-.22-.17-.33-.46-.32-.86v-.02s-.02,0-.02,0c-.04-.01-1.07-.35-.74-1.5v-.02s-.01-.01-.01-.01c0,0-.47-.33-.49-.79-.01-.27.13-.53.43-.78l.04-.03-.05-.02s-.48-.2-.6-.63c-.08-.29.01-.63.29-1l.02-.02-.02-.02s-.36-.34-.29-.68c.04-.19.2-.34.49-.46l.04-.02-.03-.03s-.42-.43-.36-.87c.03-.23.19-.44.48-.6l.03-.02-.03-.03s-.43-.48-.31-.88c.07-.23.32-.4.73-.5h.02s0-.02,0-.02c0,0,.17-.92.75-1.18.31-.14.7-.07,1.13.21l.04.02h.02s.69-.29,1.18-.02c.25.14.41.4.48.77v.06s.05-.04.05-.04c0,0,.34-.36.72-.31.23.03.42.2.58.51l.02.04.03-.03s.31-.29.68-.26c.2.01.38.12.54.32l.02.03.02-.03s.19-.23.48-.4c.39-.22.77-.21,1.13,0h.02s.02,0,.02,0c0,0,.55-.73,1.31-.41h.01s.01,0,.01,0c0,0,.8-.52,1.33-.24.32.17.48.6.48,1.28v.02h.02s.35.19.45.57c.07.27,0,.58-.21.91l-.02.03.03.02s.64.32.7.84c.04.33-.15.67-.56,1.02l-.03.02.03.02s.39.35.41.81c.01.26-.1.52-.32.75l-.02.02.02.02s.68.73.52,1.32Z"/>
          <path class="cls-3" d="m13.21,17.63c-.08.29-.35.5-.81.62h-.04s.02.04.02.04c0,0,.35.67.11,1.16-.13.26-.42.42-.85.48h-.03s0,.03,0,.03c0,0,.08.73-.31,1.08-.21.19-.53.24-.94.14h-.02s-.01.01-.01.01c0,0-.47.68-1.05.68h-.02c-.34-.01-.65-.25-.92-.71l-.02-.04-.03.04s-.28.4-.67.52c-.3.1-.59.01-.86-.25-.01-.01-.03-.01-.04,0-.01.01-.01.03,0,.04.28.27.58.36.89.27.01.1,0,.23-.02.33-.02.12-.06.22-.11.32-.22.37-.73,1.06-.83,1.19-.06-.04-.21-.15-.32-.39-.14-.29.03-.45.03-.46l.04-.03-.05-.02c-.23-.09-.44-.4-.45-.41-.62-1.09.35-1.66.39-1.69h0s0-.01,0-.01c0,0,.38-.77.94-.84.29-.03.59.13.88.49l.03.03.02-.03s.19-.26.47-.45c.38-.25.75-.27,1.09-.05l.03.02v-.04s.16-.4.43-.49c.12-.04.25,0,.38.09l.07.05-.02-.08s-.07-.26-.03-.54c.05-.37.26-.61.61-.71h.04s-.02-.05-.02-.05c0,0-.17-.25-.23-.58-.08-.43.07-.79.43-1.06l.03-.02-.03-.03s-.41-.42-.4-.92c0-.28.14-.54.4-.76l.02-.02-.02-.02s-.37-.42-.34-.88c.02-.23.13-.44.34-.62l.03-.02-.03-.02s-.59-.55-.54-1.14c0,0,0-.01,0-.02l.06-.22s0,0,0-.01c.08-.19.24-.36.47-.51.01,0,.02-.03,0-.04,0-.01-.03-.02-.04,0-.34.22-.53.48-.56.78v.02c-.13.2-.28.31-.46.33-.4.04-.82-.4-.82-.4l-.04-.04v.06s-.1.46-.48.65c-.3.15-.71.1-1.21-.16h-.02s-.02,0-.02,0c0,0-.38.45-.9.48-.3.01-.59-.12-.86-.39h-.01s-.02,0-.02,0c0,0-.69.27-1.17.01-.23-.12-.38-.34-.44-.64v-.04s-.04.01-.04.01c0,0-.52.2-.89,0-.17-.09-.29-.26-.34-.5h0s0-.01,0-.02v-.02s-.03,0-.03,0c-.03,0-.03.03-.03.04h0s-.03.14-.11.18c-.08.03-.23,0-.51-.27-.02-.02-.04-.02-.06,0s-.02.04-.01.06c.04.06.07.11.11.17.17.27.3.47.24.67-.05.17-.23.32-.58.48h-.03s.01.04.01.04c0,.01.43,1.06-.19,1.39l-.04.02.03.03s.31.34.24.66c-.04.17-.17.3-.39.4l-.04.02.03.03s.41.4.38.83c-.02.22-.14.41-.38.57l-.04.03.04.02s.73.47.32,1.29v.03s.01.01.01.01c0,0,.65.38.42.84v.03s.02.01.02.01c0,0,.64.27.81.76.08.22.05.45-.08.69h0s.39.84.39.84l-.74-.25h0s-.61.18-.99-.11c-.22-.17-.33-.46-.32-.86v-.02s-.02,0-.02,0c-.04-.01-1.07-.35-.74-1.5v-.02s-.01-.01-.01-.01c0,0-.47-.33-.49-.79-.01-.27.13-.53.43-.78l.04-.03-.05-.02s-.48-.2-.6-.63c-.08-.29.01-.63.29-1l.02-.02-.02-.02s-.36-.34-.29-.68c.04-.19.2-.34.49-.46l.04-.02-.03-.03s-.42-.43-.36-.87c.03-.23.19-.44.48-.6l.03-.02-.03-.03s-.43-.48-.31-.88c.07-.23.32-.4.73-.5h.02s0-.02,0-.02c0,0,.17-.92.75-1.18.31-.14.7-.07,1.13.21l.04.02h.02s.69-.29,1.18-.02c.25.14.41.4.48.77v.06s.05-.04.05-.04c0,0,.34-.36.72-.31.23.03.42.2.58.51l.02.04.03-.03s.31-.29.68-.26c.2.01.38.12.54.32l.02.03.02-.03s.19-.23.48-.4c.39-.22.77-.21,1.13,0h.02s.02,0,.02,0c0,0,.55-.73,1.31-.41h.01s.01,0,.01,0c0,0,.8-.52,1.33-.24.32.17.48.6.48,1.28v.02h.02s.35.19.45.57c.07.27,0,.58-.21.91l-.02.03.03.02s.64.32.7.84c.04.33-.15.67-.56,1.02l-.03.02.03.02s.39.35.41.81c.01.26-.1.52-.32.75l-.02.02.02.02s.68.73.52,1.32Z"/>
        </g>
      </g>
    </g>
  </g>
</svg>