<?xml version="1.0" encoding="UTF-8"?>
<svg id="Where_is_found" data-name="Where is found" xmlns="http://www.w3.org/2000/svg" viewBox="0 0 32 32">
  <defs>
    <style>
      .cls-1 {
        fill: #6a5f51;
      }

      .cls-2 {
        fill: #e3e3e3;
      }

      .cls-3 {
        fill: #fff;
      }

      .cls-4 {
        fill: #6c412c;
      }

      .cls-5 {
        fill: #9c5f40;
      }

      .cls-6 {
        fill: #383838;
      }

      .cls-7 {
        fill: #3d2f24;
      }

      .cls-8 {
        fill: #3c3026;
      }
    </style>
  </defs>
  <g id="ic_horses">
    <path class="cls-1" d="m21.45,29.5c.4.41,1,1.39.53,1.46s-1.48.23-1.71-.16-.15-1.18-.15-1.18c0,0,.34.06.71.01s.62-.13.62-.13Z"/>
    <path class="cls-1" d="m13.71,27.25c.27.26.72.92.4.97s-1.01.14-1.17-.1-.1-.75-.1-.75c0,0,.21,0,.46-.03s.4-.09.4-.09Z"/>
    <path class="cls-5" d="m11.82,25.54c-.06-.96-.23-4.03.02-4.44.29-.48.98-2.09.98-2.09,1.22,1.02,3.45.82,3.45.82,0,0,.18,1.18.43,2.18.18.72.15,3.66.12,5.25,0,0-.08,1.04-.03.98.02-.03.12-.16.16-.4.02-.15-.01-.37.02-.52.03-.17.1-.37.11-.4.12-.23.12-.47.2-.52.03.18.15.29.26.45.06.08.09.14.12.27.04.22.06.52.07.56.01.03.02-.43.02-.43,0-.75.02-1.74.13-2.51.2-1.41.2-4.45.2-4.45.61-.75.68-1.43.84-1.43.07,0,.25.03.42.04.23,0,.46-.01.46-.01,0,0-.11,3.15.05,4.85.09.99.05,2.18-.03,3.11,0,0,.38-.72.42-1.04s.37-.78.37-.78c0,0,.17.15.19.26s.18.24.18.24v-.48c.04-.93.09-2.03.21-2.66,1.11-4.38,1.2-8.29,1.2-8.29-.24-2.66,0-3.65-.01-5.05-.4-3.54-1.4-5.59-1.43-5.63-.27-.35-1.14-.72-1.18-.9s-1.32-.15-1.32-.15c0,0-1.13.75-1.25.88s-.27.72-.27.72c0,0-.5.37-.77.99s-.05,2.51-.65,2.78-.55.85-.55.89.02.47.02.47c-.56.11-1.33-.26-2.77-.3-1.37-.05-2.91.91-3.71,2.94-1.07,2.71,1.91,7.56,1.82,8.67s.77,4.74.77,4.74c0,0,.01.15.02.39,0,0,.28-.17.28-.37,0-.15.05-.26.08-.3.01-.02.03,0,.03,0,0,0,.07.1.1.16s.05.24.09.27.13.22.13.22Z"/>
    <path class="cls-3" d="m11.82,25.57c.01.18.02.28.02.28,0,0,.18,1.2.14,1.59,0,.06,0,.13.02.2,0,0-.22,0-.44,0s-.5-.06-.5-.06c.1-.57.09-1.48.06-1.99,0,0,.22-.15.27-.23.03-.05.05-.21.07-.32.02-.08.04-.11.04-.11,0,0,.05.05.08.13.04.09.07.22.08.25,0,.03.04.05.07.09.05.07.09.17.09.17Z"/>
    <path class="cls-3" d="m20.95,25.72c-.03.93.01.95.03,1.27s-.06.75.08,1.37c.11.51.38.8.33.99,0,0,.13.06-.36.14s-.9,0-.9,0c0,0-.06-.54-.18-1.04-.05-.21-.16-.73-.11-1.41,0,0,.47-.74.49-.94s.29-.88.29-.88c0,0,.05.01.08.07.04.06.06.17.08.22.04.09.18.21.18.21Z"/>
    <path class="cls-3" d="m17.76,28.39s.09,1.34.2,1.63c0,0-.18.02-.6,0s-.64-.08-.64-.08c.18-.74.07-1.6.07-1.6,0,0,.14-.14.2-.42s-.01-.44.09-.73l.2-.58s.15.23.21.31.09.15.12.22.16,1.24.16,1.24Z"/>
    <path class="cls-1" d="m17.97,30.11c.11.29.54,1.29-.32,1.32s-1.63.34-.98-1.22c.02-.06.03-.11.05-.17,0,0,.14.06.64.08s.61,0,.61,0Z"/>
    <path class="cls-1" d="m12.03,27.73c.09.24.44,1.04-.25,1.06s-1.31.27-.78-.98c.01-.04.03-.09.04-.14,0,0,.11.05.51.06s.49,0,.49,0Z"/>
    <path class="cls-4" d="m13.73,25.29c.02-.33.03-.69.04-1.06.01-1.03-.12-2.08.08-2.5.58-1.29.83-1.83.83-1.83-1.26-.09-1.8-.59-1.8-.59,0,0-.39,1.01-.49,1.17,0,.66.39,1.15.41,1.28-.1,1.04-.05,2.58,0,3.56,0,0,.35-.2.35-.39,0-.15.09-.32.14-.4.02-.03.05-.02.07.03s.05.19.09.29c.03.06.11.11.18.21.08.11.12.23.12.23Z"/>
    <path class="cls-2" d="m13.73,25.33c-.05.79-.11,1.4-.11,1.4,0,0,.09.25.08.47,0,0-.18.06-.44.08s-.41.02-.41.02c.08-.41,0-.98,0-.98,0,0-.03-.39-.06-.96,0,0,.3-.17.35-.29s.03-.18.07-.31c.03-.11.09-.17.09-.17,0,0,.05.2.09.28.02.04.1.09.17.18.09.11.17.27.17.27Z"/>
    <path class="cls-4" d="m20.16,6.22s.28,1.05-.92,1.9c-.44.11-.82.27-1.24.76,0,0,.07.21-.23.62-.07.13-.19.24-.29.38-.21.28-.47.61-.74.66,0,0,.38-.08.78-.37.29-.21.57-.55.76-.95.44-1.06,2.23-.6,1.89-3.01Z"/>
    <path class="cls-6" d="m15.43,7.89c.17-.05.64-.85,1.33-.27.39.27.3.67.7,1.24s.3.64,0,1.03-.54.91-1.78.57c-.73-.27-.67-1.81-.67-1.81,0,0-.03-.64.42-.76Z"/>
    <path class="cls-8" d="m10.4,9.33s-3.54.24-2.84,5.47c.17,1.31.29,3.85.41,4.64,0,0,.31-.52.18-1.87.07.93.13,1.33-.5,4.28,0,0,.49-.82.71-1.32s.36-1,.36-1c0,0-.11.53-.22.82s-.29.87-.29.87c0,0,1-1.07,1.5-2.39s-1.11-3.31-1.33-4.62c-.3-1.83.39-3.77,2.03-4.87Z"/>
    <path class="cls-3" d="m17.54,6.01c.18-.29.78-.9.85-1.1s.21-.54-.17-.79c-.21-.14-.97.04-1.24.87s-.52,2.01-.51,2.06c0,.03.09.02.15.04s.12.05.15.04c.06-.02.62-.89.77-1.13Z"/>
    <path id="Tracciato_42" data-name="Tracciato 42" d="m18.57,6.43c-.01-.1-.04-.41.24-.58.23-.14.4-.18.47-.18.03,0,.05.01.05.03,0,.11-.02.43-.23.58-.15.1-.31.16-.49.18-.01,0-.04,0-.04-.03Z"/>
    <circle class="cls-3" cx="18.79" cy="6.22" r=".07"/>
    <path class="cls-7" d="m15.93,4.92s-.01-.71.75-1.18c.35-.21.66-.89.89-1.03s.91-.65,2.04-.27c.19.06.13.07.2.13.26.24.53.71.6.87.08.2.27.55.44.7s.25.55.25.55c0,0-.17-.25-.5-.41s-.79-.67-.78-.71.23.52.34.63.42,1.09-.13,1.59c0,0,.11-.77-.44-1.16s-.47-1.02-.47-1.02c0,0-.31,1.49-1.57,1.8,0,0,.8-.83,1.02-1.81,0,0-1.01.72-1.45,1.6s-1.16.96-1.4.96.25.12.52-1.01c.07-.35.13-.62.25-.8,0,0-.18.08-.53.57Z"/>
    <path class="cls-8" d="m21.18,3.74c.36.69.71,1.5.71,1.93s.38,1.45.39,1.94.17,1.09.37,1.27c0,0-.22-.05-.31-.23,0,0,.15,1.35.04,2.34-.04.53.15,1.3.15,1.3,0,0,.17.95-.12,1.96s.17,1.41.17,1.41c0,0-1.06-1.23-.95-3.38,0,0-.29.22-.38.84s0-2.05.34-2.96c0,0-.57,1.28-.92,1.61,0,0,.44-1.42.62-2.38,0,0-.29.81-.7,1.31s-.49,1.43-.49,1.43c0,0-.47-2.81.6-5.82.24-.29.25-1.19.26-.87s-.43,1.02-.43,1.02c.11-.7-.13-1.08-.26-1.42-.6-1.45-.57-2.57-.57-2.57,0,0,1.13.58,1.49,1.27Z"/>
    <path class="cls-4" d="m16.22,19.73s-2.25.13-3.35-.83c0,0,.86-1.42.83-3.87,0,0,.53,2.12.08,3.37,0,0,.34.07.64.2.43.21.89.5,1.37.51.03-.1.01-.96.19-1.27,0,0,.04.81.09,1.17s.15.71.15.71Z"/>
    <path class="cls-4" d="m17.18,10.38s.27-.12.5-.35c0,0,.1,1.93.59,4.04s-1.16-3.01-1.09-3.69Z"/>
    <path class="cls-4" d="m18.89,18.77s.27-2.09.15-3.48c0,0,.38.98.25,2.61,0,0,.14-.12.26-.1,0,0-.04.37.21.98,0,0-.28.11-.87,0Z"/>
    <path class="cls-5" d="m17.19,3.04s-.89-1.32,0-2.39c.1-.12.23-.31.32.07s.03.3.24.66.3,1,.3,1c0,0-.24.07-.48.24-.14.1-.28.24-.37.42Z"/>
    <path class="cls-5" d="m19.7,2.5s-.07-.58.31-.96c.21-.2.23-.65.23-.65,0,0,.05-.37.3,0s.42,1.14.34,1.63-.48.67-.48.67c0,0-.19-.01-.36-.16s-.1-.28-.17-.36c-.1-.11-.18-.16-.18-.16Z"/>
    <path class="cls-7" d="m19.81,2.46s.02-.34.3-.49.35-.76.35-.76c0,0,.22.48.05,1.11,0,0,.11-.18.11-.25s.04.84-.24,1c0,0-.32,0-.37-.38-.01-.09-.2-.22-.2-.22Z"/>
    <path class="cls-7" d="m17.3,2.86s-.14-.21-.06-.47-.09-.72-.09-.72c0,0-.01-.42.16-.65,0,0-.08.26.06.52s.51.45.53.72c0,.07-.09.22-.09.22-.28.13-.51.39-.51.39Z"/>
  </g>
</svg>