<?xml version="1.0" encoding="UTF-8"?>
<svg id="Livello_2" data-name="Livello 2" xmlns="http://www.w3.org/2000/svg" viewBox="0 0 30.48 29.2">
  <defs>
    <style>
      .cls-1 {
        fill: #fff;
      }

      .cls-2 {
        fill: #ebbeab;
      }

      .cls-3 {
        fill: #fed4c2;
      }

      .cls-4 {
        fill: #212121;
      }

      .cls-5 {
        fill: #82b7d9;
      }

      .cls-6 {
        fill: #c46769;
      }

      .cls-6, .cls-7, .cls-8 {
        opacity: .52;
      }

      .cls-7 {
        fill: #bf5456;
      }

      .cls-8 {
        fill: #b53a3d;
      }
    </style>
  </defs>
  <g id="Symptoms">
    <g id="ic_headache">
      <path class="cls-1" d="m3.38,8.02c-.62-.17-1.23.1-1.52.58-.74-.15-2.03,1.75-.8,3.09-1.02.39-1.31,1.09-.85,2.14l1.59,2.58c-.31,1.19-.12,2.83.25,4.52-.29.98-.13,1.95.12,3.07,0,0-1.12,3.16.49,3.91,1.28.6,3.94,1.3,9.03,1.3,8.65,0,12.17-.83,12.17-.83,0,0,5.51-1.11,5.97-1.03s.89-3.06.47-3.41-3.32-1.63-6.6-1.2c0,0,.41-.83,1.53-1.79,1.69-1.45,3.93-2.89,4.18-4.72s.41-2.83.61-4.85c0-.59-.98-4.18-.98-4.18,0,0-.24-.82-1.11-.39-.01-.84-.5-1-.5-1,0,0-2.59-4.21-8.41-4.4,0,0,1.32-1.2.38-1.32s-1.88-.1-2.47.1c-1.2.46-1.57.6-2.05,1.66-4.31,1.55-4.85,4.97-4.82,7.2-1.11.76-.77,1.35-.55,2.62.14.43-1.28.02-1.66-.11-.53-.18-1.24-1.74-2.4-2.6-.65-.72-1.07-.18-1.26-.03-.51-.71-.82-.9-.82-.9Z"/>
      <path class="cls-2" d="m21.19,20.86c-.64.42.28,2.83.28,2.83-7.51.28-9.76-2.3-9.76-2.3.96-.2,1.15-1.64,1.15-1.64l8.33,1.12Z"/>
      <g>
        <path class="cls-3" d="m7.5,12.38s.46-.23.66.08.25,2.52.25,2.52l-.92-2.6Z"/>
        <path class="cls-3" d="m7.39,12.42c-.11-.27-.71-.9-1.12-1.51-.28-.42-.54-.82-.76-1.13s-.41-.52-.56-.55c-.53-.11-.7.79-.7.79-.32-.4-.97-1.47-1.32-1.43-.75.08-.59.97-.59.97,0,0-.77-.89-1.07.42s1.52,2.39,1.72,3.35.77,1.91.77,1.91c-.09.02-.18.12-.18.12-.24-.64-1.76-2.49-1.76-2.49,0,0-.59-.71-.96-.42s-.24.72-.17,1.09,1.57,2.08,1.73,2.84c-.23,1.9-.11,3.09.29,4.51-.27.71-.11,2.81.15,3.36.57.76,3.03,1.42,3.64.31.25-1.87.92-2.49,1.94-4.89s-.14-4.66-.14-4.66c0,0-.8-2.32-.92-2.6Z"/>
        <path class="cls-2" d="m5.55,14.68s-.14-.02-.19-.07-.14.07-.24-.6-.26-1.47-.55-1.71-.23-.16-.66-.57-.67-.76-.69-.88-.23-.37-.32-.46-.48-.79-.67-.93.2.08.41.48.48.57.62.85.39.59.44.62,1.01.84,1.07,1.04c.19.35.39,1.53.39,1.53,0,0,.19.48.39.7Z"/>
        <path class="cls-2" d="m7.07,14.46s-.3-.14-.24.01-.33-.42-.36-.55-.52-1.72-.72-2.04-1.45-1.7-1.47-1.88c0,0,1.01,1.25,1.11,1.33s.45.48.47.55.63,1.41.69,1.68.53.9.53.9Z"/>
      </g>
      <path class="cls-5" d="m22.2,23.45s-6.59.39-10.26-1.98c-1.8-.67-4.83-.24-6.26.17s-2.69.52-2.85,1.54c-.2,1.32-1.04,3.21-.01,4.03,3.58,1.55,14.07,1.74,19.98.63,5.91-1.11,6.86-1.25,6.86-1.25,0,0,.4-2.24,0-2.46,0,0-3.47-1.68-7.46-.68Z"/>
      <path class="cls-3" d="m10.99,10.3s.06-.65-.81-.46c-.73.16.28,4.15.42,5.39s.64.72.64.72l-.26-5.65Z"/>
      <path class="cls-3" d="m25.31,13.88s.19-.62.92-.12c.61.42-1.83,3.73-2.43,4.83s-.87.42-.87.42l2.38-5.13Z"/>
      <path class="cls-4" d="m13.39,20.18s-1.65-.81-2.06-4.32c-.41-3.5-.57-3.07-.57-3.07,0,0-.8-1.22-.13-3.87s.49-4.87,4.79-6.5c0,0,.42-1.04,1.08-1.47,0,0-.27.96-.23,1.18,0,0,.59-1.42,2.77-1.42,0,0-.56.3-1.01,1.07,0,0,3.24.1,6.1,1.97s2.72,6.08,2.05,8.27-2.5,5.76-2.5,5.76c0,0-1.62,4.46-4.66,3.99-3.04-.47-5.63-1.58-5.63-1.58Z"/>
      <g>
        <circle class="cls-6" cx="23.3" cy="8.09" r="6.58"/>
        <circle class="cls-7" cx="23.3" cy="8.09" r="4.79"/>
        <circle class="cls-8" cx="23.3" cy="8.09" r="2.97"/>
      </g>
      <g>
        <path class="cls-3" d="m29.22,11.48c.02-.29-.25-1.12-.37-1.84-.08-.5-.13-.97-.2-1.34s-.15-.64-.27-.74c-.43-.33-.97.41-.97.41-.12-.5-.25-1.75-.58-1.86-.71-.25-.95.63-.95.63,0,0-.31-1.14-1.15-.08s.35,2.81.11,3.76-.12,2.05-.12,2.05c-.04.98-1.91,2.42-2.19,1.76-.29-.62-.19-1.65-.15-2.6,0,0,0-1.53-.7-1.44-.35.05-.4.21-.52.67-.09.34-.19.81-.31,1.09s.08,2.04.04,2.74c-.6,1.11-.97,4.92-.85,5.52.19.93,2.13,2.58,3.16,1.84,1.02-1.58,1.89-1.85,3.85-3.58s1.88-4.27,1.88-4.27c0,0,.27-2.45.29-2.74Z"/>
        <path class="cls-2" d="m26.59,12.73s-.12-.08-.14-.15-.15,0,.04-.65.4-1.44.23-1.78-.14-.24-.35-.8-.28-.97-.25-1.09-.04-.43-.09-.55-.09-.91-.2-1.13.14.15.16.61.19.72.19,1.03.1.7.13.75.55,1.2.52,1.39c.02.4-.3,1.55-.3,1.55,0,0-.03.51.05.8Z"/>
        <path class="cls-2" d="m28.06,13.19s-.22-.25-.23-.09-.12-.52-.09-.66.27-1.78.22-2.15-.58-2.16-.52-2.33c0,0,.38,1.57.43,1.68s.2.63.19.7-.04,1.55-.09,1.82.09,1.04.09,1.04Z"/>
      </g>
    </g>
  </g>
</svg>