<?xml version="1.0" encoding="UTF-8"?>
<svg id="Livello_2" data-name="Livello 2" xmlns="http://www.w3.org/2000/svg" viewBox="0 0 24.05 20.75">
  <defs>
    <style>
      .cls-1 {
        fill: #fff;
      }

      .cls-2 {
        fill: #d99998;
      }

      .cls-3 {
        fill: #a85454;
      }

      .cls-4 {
        fill: #ca8e8e;
      }

      .cls-5 {
        fill: #c5686a;
      }
    </style>
  </defs>
  <g id="Complications">
    <g id="ic_Orchitis_and_epididymitis" data-name="ic_Orchitis and epididymitis">
      <path class="cls-1" d="m23.55,9.04c.24-.54,1.31-3.31-.68-5.33h0c-.51-.52-.87-1.4-1.06-2.62l-.06-.13c-.12-.14-.24-.36-.39-.65l-.54.13c.01.46.03.92.05,1.35,0,.14,0,.25,0,.34-.6-.6-1.51-1.34-2.72-1.78-.6-.22-1.28-.33-1.96-.33-1.34,0-2.53.45-3.19,1.2-.44.51-.64,1.14-.59,1.85-.59.49-1.11,1.11-1.54,1.82.06-.67-.13-1.28-.55-1.76-.62-.7-1.73-1.12-2.98-1.12-.63,0-1.27.11-1.83.31-1.19.43-2.08,1.2-2.51,1.68,0-.08-.01-.19,0-.31.03-.61.05-1.27.07-1.93l-.56-.08c-.12.43-.23.72-.34.91l-.04.11c-.16,1.32-.5,2.25-1.03,2.78-1.85,1.85-.88,4.43-.64,4.97-.05.2-.09.4-.13.61-.73,4.23,1.25,8.12,4.42,8.67.25.04.51.07.76.07,1.61,0,3.15-.87,4.33-2.29h.02c.16-.2.3-.4.44-.6.03-.04.06-.09.09-.14.1-.15.19-.3.28-.44,0,0,0-.01,0-.02.06-.1.11-.2.17-.3,1.48,2.87,3.98,4.78,6.61,4.78.33,0,.65-.03.97-.09,3.88-.71,6.27-5.5,5.33-10.7-.06-.31-.13-.62-.2-.92Z"/>
      <g>
        <ellipse class="cls-5" cx="6.09" cy="12.02" rx="7.51" ry="5.55" transform="translate(-6.79 15.96) rotate(-80.16)"/>
        <path class="cls-3" d="m10.18,6.38s-3.1,3.35-1.93,7.97c.63,2.5,1.39,2.94,1.39,2.94.44-.56.9-1.23,1.27-2.1,2.17-5.12-.73-8.8-.73-8.8Z"/>
        <ellipse class="cls-2" cx="16.71" cy="11.24" rx="6.87" ry="9.29" transform="translate(-1.74 3.16) rotate(-10.28)"/>
        <path class="cls-4" d="m21.11.42c.01.46.03.92.05,1.34s-.06.99-.33.71l1.84,1.43c-.62-.62-.97-1.64-1.14-2.77-.14-.18-.28-.42-.42-.7Z"/>
        <path class="cls-5" d="m22.67,3.9c2.09,2.09.58,5.11.58,5.11-.22-.83-.6-1.73-.6-1.73-3.51-1.21-3.68-2.9-4.82-3.6s-1.65,0-1.65,0c0,0-.59,1.03-1.91,1.06s-1.57-1.57-1.57-1.57c-.33-2.57,3.01-3.43,5.35-2.58,1.31.48,2.27,1.34,2.78,1.88l1.84,1.43Z"/>
        <path class="cls-4" d="m2.42,2.69c-.14,1.19-.47,2.3-1.11,2.95-1.95,1.95-.54,4.76-.54,4.76.21-.77.56-1.61.56-1.61,3.27-1.13,3.43-2.7,4.49-3.35s1.54,0,1.54,0c0,0,.55.96,1.78.99s1.46-1.46,1.46-1.46c.31-2.39-2.8-3.19-4.98-2.4-1.22.44-2.12,1.25-2.59,1.75-.25.26-.33-.26-.31-.66.03-.6.05-1.27.07-1.92-.11.39-.23.74-.36.97Z"/>
      </g>
    </g>
  </g>
</svg>