<?xml version="1.0" encoding="UTF-8"?>
<svg id="Where_is_found" data-name="Where is found" xmlns="http://www.w3.org/2000/svg" viewBox="0 0 32 32">
  <defs>
    <style>
      .cls-1 {
        fill: #fff;
      }

      .cls-2 {
        fill: #cf7e53;
      }

      .cls-3 {
        fill: #96452c;
      }

      .cls-4 {
        fill: #a2a6aa;
      }

      .cls-5 {
        fill: none;
        stroke: #fff;
        stroke-miterlimit: 10;
        stroke-width: .2px;
      }
    </style>
  </defs>
  <g id="ic_pets_2">
    <g id="Raggruppa_31" data-name="Raggruppa 31">
      <g id="Raggruppa_30" data-name="Raggruppa 30">
        <path id="Tracciato_235" data-name="Tracciato 235" class="cls-1" d="m9.52,18.73s6.61,2.31,9.4,1.85c0,0-3.09-2.89-9.4-1.85"/>
        <path id="Tracciato_236" data-name="Tracciato 236" class="cls-4" d="m21.28,20.93s.48,7.47.69,7.54,2.05,0,2.05,0c0,0,.44-.99-.64-1.29,0,0-.19-2.76.09-4.8s1.16-4.47.56-4.7-2.74,3.25-2.74,3.25"/>
        <path id="Tracciato_237" data-name="Tracciato 237" class="cls-5" d="m21.28,20.93s.48,7.47.69,7.54,2.05,0,2.05,0c0,0,.44-.99-.64-1.29,0,0-.19-2.76.09-4.8s1.16-4.47.56-4.7-2.74,3.25-2.74,3.25Z"/>
        <path id="Tracciato_238" data-name="Tracciato 238" class="cls-4" d="m4.17,22.59l5.08-4.59s.29.73.34.73h1.35s-3.13,3.76-4.35,4.73c0,0-.96,1-1.09,1.64s-.1,2.17.23,2.19.74.77.45,1.17h-1.91c-.12,0-.22-.08-.23-.2-.11-.87-.5-4.27-.23-4.57.23-.25.26-.71.26-.92,0-.08.04-.15.1-.19"/>
        <path id="Tracciato_239" data-name="Tracciato 239" class="cls-5" d="m4.17,22.59l5.08-4.59s.29.73.34.73h1.35s-3.13,3.76-4.35,4.73c0,0-.96,1-1.09,1.64s-.1,2.17.23,2.19.74.77.45,1.17h-1.91c-.12,0-.22-.08-.23-.2-.11-.87-.5-4.27-.23-4.57.23-.25.26-.71.26-.92,0-.08.04-.15.1-.19Z"/>
        <path id="Tracciato_240" data-name="Tracciato 240" class="cls-1" d="m24.47,17.97s-.64,1.21-1.62,1.81c-1,.57-1.6,1.65-1.56,2.8,0,0-.53,4.03-.41,4.27l-.02.32s1.15.17.8,1.28l-2.26.02s-.72-7.19-.4-7.86h-.26s-7.46-.82-8.42-1.51-2.03.14-3.08,1.45-3.39,3.34-4.24,4.03-.49,2.71-.49,2.71c.9.3.58,1.29.58,1.29H.73v-.33s-.08-3.61-.04-4.05c.04-.43.53-.94.53-.94.49-.34,1.34-2.18,1.34-2.18l1.21-4.46c.05-.37.17-.73.36-1.06,1.27-2.33,1.04-1.98.3-6.46-.74-4.48.5-6.25,1.47-6.39,1.17-.16.71,1.2.71,1.2,0,0-.12.26-.37,3.79-.24,3.52,1.09,3.83,1.09,3.83,2.96.69,7.93-.08,10.36-.7,1.21-.3,2.27-1.36,3.03-2.35.74-.98,1.24-1.58,1.24-1.58.51-.76.96-1.66,1.76-1.92h0s.09-.04.22-.07c.05-.01.1-.02.15-.03.73-.15,2.38-.35,3.55.51.15.19.29.38.41.59.17.29.44.49.76.57.67.16,1.35.27,2.03.32,0,0,.79-.04-.29,2.42-.29.66-1.63,1.13-2.79.95s-1.9,1.37-1.9,1.37l-.87,3.31h-.02c.02.16.03.32.03.49,0,.55-.12,1.1-.38,1.59,0,.04.01.07.01.11,0,.29-.06.58-.19.85h0"/>
        <path id="Tracciato_241" data-name="Tracciato 241" class="cls-2" d="m27.83,6.63c.25-.93-.46-1.66-2.63-1.67-.75,0-1.47.3-2,.82-.03.03-.08.09-.13.15-.05.06-.1.12-.11.14-.04.06-.73,1.11-.93,1.58-.1.24-.04.52.16.7.75.68,2.77,2.34,3.9,1.75,1.35-.71,1.17-.42,1.19-1.89,0-.22.18-.65.42-1.03.07-.11.15-.54.15-.55"/>
        <path id="Tracciato_242" data-name="Tracciato 242" class="cls-1" d="m5.59,2.83s1.2-.61,1.02.54c-.17,1.15-.31,2.83-.37,5.52-.06,2.63-1.76.5-1.76.5,0,0-.62-5.65,1.1-6.57"/>
        <path id="Tracciato_243" data-name="Tracciato 243" class="cls-2" d="m5.09,9.02l.88-.33c.16,0-.07,2.24,1.19,3.29,1.63,1.34,11.21-1.11,13.24-1.17.31,0,.62.06.9.19.95.45,2.81,1.72,2.09,4.56,0,0,.28,2.61-1.28,4.08-.27.23-.49.52-.64.84-.06.15-.17.32-.2.54-.14,1.42-1.82,1.39-1.98.5-.07-.42-.09-1-.9-1.19-1.75-.41-3.67-1.94-5.84-2-1.6-.05-3-.13-4.31.81-.44.32-1.07,1.05-1.42,1-.99-.15-2.48-1.13-2.68-3.32,0,0,.02-1.39.74-2.33.26-.34.37-.76.41-1.19.05-.62.02-1.25-.09-1.86-.17-1.02-.29-1.7-.35-2.06-.03-.16.08-.32.24-.36"/>
        <path id="Tracciato_244" data-name="Tracciato 244" d="m7.16,11.97c-.04.17-.03.66.93,1.75.3.35.56.73.77,1.14.4.8,1.17,2.13,2.05,2.72,1.31.86,7.01,2.48,7.88.84s-.03-2.87.25-3.84,1.3-2.15,1.84-2.54.9-1.34-1.54-1.61c0,0-2.05.89-5.29,1.41-3.29.53-5.82.35-6.8.08-.04-.01-.08,0-.09.04,0,0,0,0,0,0"/>
        <path id="Tracciato_245" data-name="Tracciato 245" class="cls-3" d="m25.27,8.72c1.02,3.46-1.28,2.51-1.77,2.44-.86-.12-1.37-1.57-1.37-2.44,0-1.34,1.49-3.34,2.21-2.87,1.08.69.67,2.04.92,2.87"/>
        <path id="Tracciato_246" data-name="Tracciato 246" d="m27.34,6.46c0,.17-.14.3-.3.3s-.3-.14-.3-.3.14-.3.3-.3c.17,0,.3.14.3.3"/>
        <path id="Tracciato_247" data-name="Tracciato 247" class="cls-1" d="m20.22,24.5s.79-.07.66.57-.1,2.17.23,2.19.74.77.45,1.17h-2.12s-.56-4.43-.26-4.77,1.03.83,1.03.83"/>
        <path id="Tracciato_248" data-name="Tracciato 248" class="cls-4" d="m22.55,24.46s.55-.07.46.55-.07,2.09.16,2.11c0,0,.83.62.63,1.01l-1.78.12s-.39-4.26-.18-4.59.71.8.71.8"/>
        <path id="Tracciato_249" data-name="Tracciato 249" d="m31.06,7.3c0,.35-.07.91-.41.91s-.36-.2-.36-.55-.3-.77.05-.77.73.07.73.41"/>
      </g>
    </g>
  </g>
</svg>