<?xml version="1.0" encoding="UTF-8"?><svg id="Livello_1" xmlns="http://www.w3.org/2000/svg" viewBox="0 0 24.9 22.54"><defs><style>.cls-1{fill:#625038;}.cls-1,.cls-2,.cls-3,.cls-4,.cls-5,.cls-6,.cls-7,.cls-8,.cls-9,.cls-10,.cls-11,.cls-12,.cls-13,.cls-14,.cls-15,.cls-16,.cls-17,.cls-18,.cls-19,.cls-20{stroke-width:0px;}.cls-2{fill:#81725d;}.cls-3{fill:#221b16;}.cls-4{fill:#3d3532;}.cls-5{fill:#c09f8f;}.cls-6{fill:#615031;}.cls-7{fill:#917d62;}.cls-8{fill:#2c2212;}.cls-9{fill:#ae9578;}.cls-10{fill:#9fc27a;}.cls-11{fill:#81673d;}.cls-12{fill:#9b8b80;}.cls-13{fill:#967f5f;}.cls-14{fill:#708758;}.cls-15{fill:#554238;}.cls-16{fill:#64533c;}.cls-17{fill:#87af5d;}.cls-18{fill:#fff;}.cls-19{fill:#b8a68e;}.cls-20{fill:#e4c2af;}</style></defs><path class="cls-18" d="M21.79,16.33c-.02-.49-.08-.72-.12-.85-.05-.16-.08-.49-.11-.84-.08-.81-.17-1.82-.61-2.56-.19-.31-.36-.91-.48-1.7.12-.14.24-.32.29-.56.02-.03.04-.06.06-.1.14-.2.38-.53.36-1.05v-.3c-.03-.4-.04-.72,0-1.03.05-.43.16-2.57.17-2.82,0,0,0-.01,0-.02.14-1.2-.19-2.19-1.03-3.1-.01-.01-.02-.02-.03-.03-.04-.04-1-.92-2.61-1.23-.03,0-.67-.13-1.49-.13-1.6,0-2.77.48-3.37,1.38-.44.66-.67,1.49-.66,2.4-.19.35-.41.86-.55,1.53-.95.61-.98,1.01-1,1.15-.02.06-.12.21-.19.31-.2.29-.46.64-.46,1.09-.79,1.25-1.12,1.72-1.25,1.89-.43.55-1.26,1.8-1.48,2.26-.17.35-.59,1.08-1,1.5l-.14.14c-.4.4-.74.74-.63,1.27-.01.09-.11.33-.22.52h-.09c-3.95,0-4.5.38-4.71.52-.88.61-.28,1.67.12,2.37.19.33.5.87.46,1.06-.05.23-.05.58.29,1.01.79,1,3.24,2.12,5.48,2.12.14,0,.29,0,.43-.02,2.62-.17,12.32-.37,15.21-.37.16,0,.44,0,.44,0,1.05,0,1.85-.74,1.99-1.83.19-1.47-.82-3.26-3.08-4ZM13.76,14.36c-.25-.12-.34.61-.54.45-.2-.16-.34.42-.57.5-.23.08-.36.09-.49-.01-.12-.1-.4.34-.48.32-.08-.02-.33-.11-.41-.23-.08-.12-.32.23-.32.23l-1.55-.03c-.53,0,.8-1.01,1.18-1.54.38-.52,1.66-2.22,1.69-2.08.03.14.25.23.57.45.31.23.63.47.82,1.02.19.54.55.62.55.62,0,0-.21.42-.45.31ZM16.66,11.6c-.11.14-.37.41-.65.36s-.52.23-.64.11c-.12-.13-.28-.35-.24-.46.04-.12-.18-.42-.18-.42,0,0,.37-.23.49-.54s.03-.83.15-.82c.13.02.38.14.5.63.12.49.68,1.01.57,1.15Z"/><path class="cls-10" d="M7.08,16.02s-5.47-.19-6.33.4,1.01,2.22.8,3.11,2.93,2.64,5.65,2.46,13.32-.39,15.66-.36,2.23-4.53-2.56-5.08c-4.79-.54-13.23-.53-13.23-.53Z"/><path class="cls-6" d="M19.79,19.72s.25.12.89.14,1.13-.21,1.29-.33-.13-.68-.61-.91-.77-.85-.77-.85c0,0-.51-.51-1.13-.29s.33,2.23.33,2.23Z"/><path class="cls-2" d="M18.39,17.67s.02,1.11.25,1.33.93.61,1.15.71,1.03-.85,1.48-.76-.03-.24-.62-.22-.6-.65-.76-.84-.42-.41-.42-.41l-1.07.19Z"/><path class="cls-15" d="M6.18,17.42s.28.13.52-.22.53-.94.53-.94l-.64-.42-1.13.65-.05.37-.04.21s.44.25.81.34Z"/><path class="cls-16" d="M5.94,15.73s-.24.32-.54.5-.34.44-.36.64.54.2.82.37.09-.29-.17-.52.35.04.5.23.44.01.44-.24.34-.57.34-.57c0,0-.26-.5-1.02-.41Z"/><path class="cls-5" d="M14.78,13.68s.52.72.65,1.07.43.47.63.53.42.17.53.3.44.12.56,0-.18-.11-.28-.43-.18-.65.01-.55.17.55.36.58.18-.62,0-.8-.72-.6-1.17-.84-.8-.59-.8-.59l-.5.74Z"/><path class="cls-20" d="M17.13,11.6s-.46.5-.62.57-.41.05-.63.25-.31.37-.34.62-.32.53-.25.59.31.06.41-.08.26-.44.38-.47-.17.6-.41.72-.68.36-.69.47.06.15.25.14.23.23.4.24.38.03.6,0,.3,0,.56-.53.19-1.08.45-1.36.48-.61.48-.61c0,0,0-.5-.59-.55Z"/><path class="cls-3" d="M14.83,9s1.13.09,1.29.66.98,1.76,1.13,2.12.51.62.27,1.99,0,3.91.49,4.06,1.51-.11,1.99-.15,1.24.7,1.24.7c0,0,.13-2.11-.07-2.74s-.09-2.31-.67-3.28-.7-3.27-.71-3.4-1.14-1.69-1.14-1.69l-4.2-.38.39,2.12Z"/><path class="cls-3" d="M6.69,16.07s.29.48.29.65.58.12.91-.32,1.32-1.55,1.92-2.17,2.64-3.12,2.64-3.12l-2.16-1.92-2.06,2.89-1.39,1.83s-.7,1.14-.65,1.38.5.79.5.79Z"/><path class="cls-4" d="M10.89,7.41s-1.32,2.13-1.75,2.68-1.22,1.75-1.42,2.16-.65,1.18-1.1,1.65-.7.66-.62.94-.31.94-.31.94c0,0,.77.02,1.01.29s.24-.29-.05-.43-.41-.7.07-.94.19-1.06,1.03-1.56,2.47-.78,2.93-1.45-.45.4-1.25.37.19-1.78.79-1.95.98-.29.98-.29l-.31-2.42Z"/><path class="cls-2" d="M17.5,11.88s.36.31.39.42.28.02.41-.12.14-.31.14-.31c0,0,.17.03.33-.18s.23-.27.52-.5.35-.72.51-.91.38-.32.42-.59.43-.47.41-1.02-.05-.98,0-1.41.17-2.78.17-2.78l-1.38,1.21-.96,2.58-.14.98-.24.47-.76,1.66.16.49Z"/><path class="cls-12" d="M12.27,5.55s-1.08.58-1.12.97-.65.83-.65,1.35-.14,2.23,0,2.9-.29.95.17.92,1.32-.18,2.04-.36,1.59-.2,2.07-.54.43-1.7.5-2.3.07-1.08.07-1.08l-3.1-1.86Z"/><path class="cls-6" d="M17.88,7.69s.11,1.18.27,1.41-.2.18-.27.59-.29.41-.29.68-.07.49-.25.61-.39.7-.39.7c0,0,.35.05.77.31s.22-.29-.07-.5.48-.27.55-.86.22-1.01.65-.83.86.36,1.13-.02-.61-.28-.99-.35-.59-.71-.25-.67.83.45,1.44.02-.93.36-.95-.65.88-.48,1.1-1.82-2.43,1.39-2.43,1.39Z"/><path class="cls-2" d="M15.43,12.92s.02.7-.5.92-.58-.13-1.15-.92-1.3-.77-1.46-1.62l-.13-1.44-.31-1.1s-.07-2.98.63-3.57.62.07,1,.76.5.85.5.85c0,0-.05.71.04,1.33s.23,1.18.05,1.54-.29.43-.05.83.14.59.14.59c0,0,.6.4.6.83s.64,1.01.64,1.01Z"/><path class="cls-19" d="M13.02,3.48s-.67.7-.92,2.16-.41,3.58-.18,3.98,0,1.4.4,1.67,1.3-.97,1.3-.97c0,0-.83.96-1.17.77s.41-.67.09-1.12-.5-.65-.47-1.67.07-2.16.34-2.68.93-.51.93-.51l-.31-1.63Z"/><path class="cls-1" d="M14.1,6.49v1.2c0,.13.41,1.68,0,1.97s-.94.63-.94.63c0,0,.9-.68.92-1.13s-.23-1.1-.2-1.33-.92.09-1.37-.94c0,0,.32.72,1.01.67s-.29.02-.5-1.35c0,0,.29.85.59.97s.16-.85.49-.68Z"/><path class="cls-8" d="M16.88,15.15l.47,1.66.37,1.16.29-.14-.94-2.94s-.06-.28-.21-.32-.1.13-.05.33l.07.26Z"/><path class="cls-8" d="M17.67,17.83s-.29.26,0,1.17.35.88.41.86-.2-.82-.24-1.02.1-.29.17-.23.4,1.28.48,1.33.08.01.06-.17-.35-1.16-.34-1.3.18-.13.25-.01.32,1.12.35,1.16.14.06.14-.02-.34-1.34-.37-1.52-.28-.38-.63-.41-.29.15-.29.15Z"/><path class="cls-5" d="M15.12,14.41s.19-.05.34-.12.37-.16.47-.3.12-.22.12-.22c0,0-.1.26-.23.35s-.3.17-.35.19-.19.09-.25.1-.1,0-.1,0Z"/><path class="cls-5" d="M15.62,14.65s.16-.06.32-.17.24-.17.32-.25.13-.18.13-.18c0,0-.05.17-.2.29s-.38.25-.41.27-.08.07-.14.04Z"/><path class="cls-13" d="M13.64,6.74s.78,1.03,2.4,1.31,2.92-.42,3.41-.85,1.04-1.7,1.04-2.83-.5-1.29-1.24-1.52-5.2-.59-5.2-.59c0,0-1.06.82-1.03,1.66s-.11,1.8.62,2.82Z"/><path class="cls-9" d="M17.59.66S14.38.02,13.28,1.67s-.43,4.23.36,5.07-.5-.71-.32-2.37.58,1.67,1.59,2.3-.4-.73-.22-2.07,2.68-3.13,3.41-2.84.66,2.11.66,2.11c0,0,.4.26.64-.17s.69.16.62,1.35-1.07,2.48-1.36,2.62,1.49-.58,1.85-1.85.72-2.64-.59-4.07c0,0-.87-.81-2.35-1.1Z"/><path class="cls-11" d="M14.83,3.85s-.32,1.16.84,1.76,2.29.35,2.81-.5.51-2.86.31-3.19-3.96,1.93-3.96,1.93Z"/><path class="cls-19" d="M17.27.96c-.25-.11-1.08-.19-1.63.48s-1.24,2.53-.46,3.5,1.55.88,1.55.88c0,0-1.08-.19-1.24-.88s.28-.7.37-1.21,2.01.26,2.01.26c0,0,.78-.44.95-1.61s-1.56-1.43-1.56-1.43Z"/><path class="cls-7" d="M16.36,1.06s-.72.24-.89,1.25.25,1.85,1.07,2.04,1.69-.53,1.88-.92-.23.28-.43.38.42-.77.48-1.44-.13-.96-.71-1.21-1.16-.23-1.4-.1Z"/><path class="cls-14" d="M16.85,18.74c-.16.08-.2.28-.21.32,0,0,0,.06.01.14,0,.06.01.13.02.21.02.28.06.64.06.64h-.07s-.02-.21-.02-.21c0,0,0-.18-.01-.4,0-.1-.01-.21-.02-.3-.01-.15-.03-.27-.05-.32-.03-.06-.12-.1-.21-.14-.04-.02-.08-.04-.11-.06-.08-.05-.15-.12-.19-.23-.1-.28,0-.5,0-.5,0,0-.01.26.11.4.12.14.4.29.43.43h0s0,.05,0,.07c.02.06.04.19.04.19,0,0,.08-.16.08-.28,0,0,0,0,0-.02,0-.07-.03-.39.05-.54.09-.16.2-.37.17-.55,0-.12.04.24.03.43,0,.18.06.62-.1.7Z"/><path class="cls-17" d="M16.58,18.65s0,.04,0,.08c-.03-.14-.31-.29-.43-.43-.12-.14-.11-.4-.11-.4,0,0,.07.21.28.34.21.13.28.31.27.42Z"/><path class="cls-17" d="M16.75,18.16c-.08.14-.06.46-.05.54-.01-.13-.12-.35-.05-.51.07-.16.25-.45.26-.57.03.18-.08.38-.17.55Z"/><path class="cls-14" d="M15.99,19.05c-.16.08-.2.28-.21.32,0,0,0,.06.01.14,0,.06.01.13.02.21.02.28.06.64.06.64h-.07s-.02-.21-.02-.21c0,0,0-.18-.01-.4,0-.1-.01-.21-.02-.3-.01-.15-.03-.27-.05-.32-.03-.06-.12-.1-.21-.14-.04-.02-.08-.04-.11-.06-.08-.05-.15-.12-.19-.23-.1-.28,0-.5,0-.5,0,0-.01.26.11.4.12.14.4.29.43.43h0s0,.05,0,.07c.02.06.04.19.04.19,0,0,.08-.16.08-.28,0,0,0,0,0-.02,0-.07-.03-.39.05-.54.09-.16.2-.37.17-.55,0-.12.04.24.03.43,0,.18.06.62-.1.7Z"/><path class="cls-17" d="M15.73,18.96s0,.04,0,.08c-.03-.14-.31-.29-.43-.43-.12-.14-.11-.4-.11-.4,0,0,.07.21.28.34.21.13.28.31.27.42Z"/><path class="cls-17" d="M15.9,18.47c-.08.14-.06.46-.05.54-.01-.13-.12-.35-.05-.51.07-.16.25-.45.26-.57.03.18-.08.38-.17.55Z"/><path class="cls-14" d="M16.96,19.89c-.16.08-.2.28-.21.32,0,0,0,.06.01.14,0,.06.01.13.02.21.02.28.06.64.06.64h-.07s-.02-.21-.02-.21c0,0,0-.18-.01-.4,0-.1-.01-.21-.02-.3-.01-.15-.03-.27-.05-.32-.03-.06-.12-.1-.21-.14-.04-.02-.08-.04-.11-.06-.08-.05-.15-.12-.19-.23-.1-.28,0-.5,0-.5,0,0-.01.26.11.4.12.14.4.29.43.43h0s0,.05,0,.07c.02.06.04.19.04.19,0,0,.08-.16.08-.28,0,0,0,0,0-.02,0-.07-.03-.39.05-.54.09-.16.2-.37.17-.55,0-.12.04.24.03.43,0,.18.06.62-.1.7Z"/><path class="cls-17" d="M16.7,19.8s0,.04,0,.08c-.03-.14-.31-.29-.43-.43-.12-.14-.11-.4-.11-.4,0,0,.07.21.28.34.21.13.28.31.27.42Z"/><path class="cls-17" d="M16.86,19.31c-.08.14-.06.46-.05.54-.01-.13-.12-.35-.05-.51.07-.16.25-.45.26-.57.03.18-.08.38-.17.55Z"/><path class="cls-14" d="M17.91,19.12c-.16.08-.2.28-.21.32,0,0,0,.06.01.14,0,.06.01.13.02.21.02.28.06.64.06.64h-.07s-.02-.21-.02-.21c0,0,0-.18-.01-.4,0-.1-.01-.21-.02-.3-.01-.15-.03-.27-.05-.32-.03-.06-.12-.1-.21-.14-.04-.02-.08-.04-.11-.06-.08-.05-.15-.12-.19-.23-.1-.28,0-.5,0-.5,0,0-.01.26.11.4.12.14.4.29.43.43h0s0,.05,0,.07c.02.06.04.19.04.19,0,0,.08-.16.08-.28,0,0,0,0,0-.02,0-.07-.03-.39.05-.54.09-.16.2-.37.17-.55,0-.12.04.24.03.43,0,.18.06.62-.1.7Z"/><path class="cls-17" d="M17.65,19.03s0,.04,0,.08c-.03-.14-.31-.29-.43-.43-.12-.14-.11-.4-.11-.4,0,0,.07.21.28.34.21.13.28.31.27.42Z"/><path class="cls-17" d="M17.82,18.53c-.08.14-.06.46-.05.54-.01-.13-.12-.35-.05-.51.07-.16.25-.45.26-.57.03.18-.08.38-.17.55Z"/><path class="cls-14" d="M19.01,20.28c-.16.08-.2.28-.21.32,0,0,0,.06.01.14,0,.06.01.13.02.21.02.28.06.64.06.64h-.07s-.02-.21-.02-.21c0,0,0-.18-.01-.4,0-.1-.01-.21-.02-.3-.01-.15-.03-.27-.05-.32-.03-.06-.12-.1-.21-.14-.04-.02-.08-.04-.11-.06-.08-.05-.15-.12-.19-.23-.1-.28,0-.5,0-.5,0,0-.01.26.11.4.12.14.4.29.43.43h0s0,.05,0,.07c.02.06.04.19.04.19,0,0,.08-.16.08-.28,0,0,0,0,0-.02,0-.07-.03-.39.05-.54.09-.16.2-.37.17-.55,0-.12.04.24.03.43,0,.18.06.62-.1.7Z"/><path class="cls-17" d="M18.75,20.2s0,.04,0,.08c-.03-.14-.31-.29-.43-.43-.12-.14-.11-.4-.11-.4,0,0,.07.21.28.34.21.13.28.31.27.42Z"/><path class="cls-17" d="M18.92,19.7c-.08.14-.06.46-.05.54-.01-.13-.12-.35-.05-.51.07-.16.25-.45.26-.57.03.18-.08.38-.17.55Z"/><path class="cls-14" d="M15.91,16.24c-.12.06-.15.21-.16.24,0,0,0,.05,0,.1,0,.05,0,.1.01.16.02.22.04.49.04.49h-.05s-.01-.16-.01-.16c0,0,0-.14,0-.3,0-.08,0-.16-.01-.23,0-.11-.02-.21-.04-.24-.02-.04-.09-.07-.16-.11-.03-.01-.06-.03-.09-.05-.06-.04-.12-.09-.15-.17-.08-.21,0-.38,0-.38,0,0,0,.2.08.31.09.11.3.22.33.33h0s0,.04,0,.05c.02.05.03.14.03.14,0,0,.06-.12.06-.21,0,0,0,0,0-.01,0-.05-.02-.3.04-.41.07-.12.15-.28.13-.41,0-.09.03.18.02.32,0,.14.04.47-.07.53Z"/><path class="cls-17" d="M15.71,16.17s0,.03,0,.06c-.02-.11-.23-.22-.33-.33-.09-.11-.08-.31-.08-.31,0,0,.05.16.21.26.16.1.21.23.2.32Z"/><path class="cls-17" d="M15.83,15.79c-.06.11-.04.35-.04.41,0-.1-.09-.27-.03-.39.05-.12.19-.34.2-.43.03.13-.06.29-.13.41Z"/><path class="cls-14" d="M16.6,16.57c-.12.06-.15.21-.16.24,0,0,0,.05,0,.1,0,.05,0,.1.01.16.02.22.04.49.04.49h-.05s-.01-.16-.01-.16c0,0,0-.14,0-.3,0-.08,0-.16-.01-.23,0-.11-.02-.21-.04-.24-.02-.04-.09-.07-.16-.11-.03-.01-.06-.03-.09-.05-.06-.04-.12-.09-.15-.17-.08-.21,0-.38,0-.38,0,0,0,.2.08.31.09.11.3.22.33.33h0s0,.04,0,.05c.02.05.03.14.03.14,0,0,.06-.12.06-.21,0,0,0,0,0-.01,0-.05-.02-.3.04-.41.07-.12.15-.28.13-.41,0-.09.03.18.02.32,0,.14.04.47-.07.53Z"/><path class="cls-17" d="M16.4,16.51s0,.03,0,.06c-.02-.11-.23-.22-.33-.33-.09-.11-.08-.31-.08-.31,0,0,.05.16.21.26.16.1.21.23.2.32Z"/><path class="cls-17" d="M16.52,16.13c-.06.11-.04.35-.04.41,0-.1-.09-.27-.03-.39.05-.12.19-.34.2-.43.03.13-.06.29-.13.41Z"/><path class="cls-14" d="M14.99,15.78c-.09.05-.12.16-.12.18,0,0,0,.04,0,.08,0,.03,0,.08.01.12.01.16.03.37.03.37h-.04s0-.12,0-.12c0,0,0-.11,0-.23,0-.06,0-.12-.01-.17,0-.09-.02-.16-.03-.18-.02-.03-.07-.05-.12-.08-.02,0-.04-.02-.07-.04-.05-.03-.09-.07-.11-.13-.06-.16,0-.29,0-.29,0,0,0,.15.06.23.07.08.23.17.25.25h0s0,.03,0,.04c.01.04.02.11.02.11,0,0,.05-.09.04-.16,0,0,0,0,0,0,0-.04-.02-.23.03-.31.05-.09.12-.21.1-.31,0-.07.02.14.02.25,0,.11.03.36-.06.4Z"/><path class="cls-17" d="M14.84,15.73s0,.02,0,.05c-.02-.08-.18-.17-.25-.25-.07-.08-.06-.23-.06-.23,0,0,.04.12.16.19.12.07.16.18.15.24Z"/><path class="cls-17" d="M14.94,15.44c-.05.08-.03.27-.03.31,0-.07-.07-.2-.03-.3.04-.09.15-.26.15-.33.02.1-.05.22-.1.31Z"/><path class="cls-14" d="M14.9,15.4c-.09.06-.12.2-.12.23,0,0,0,.04,0,.1,0,.04,0,.09.01.15.01.2.03.46.03.46h-.04s0-.15,0-.15c0,0,0-.13,0-.28,0-.07,0-.15-.01-.21,0-.11-.02-.19-.03-.23-.02-.04-.07-.07-.12-.1-.02-.01-.04-.03-.07-.04-.05-.04-.09-.09-.11-.16-.06-.2,0-.35,0-.35,0,0,0,.19.06.29.07.1.23.21.25.31h0s0,.03,0,.05c.01.04.02.14.02.14,0,0,.05-.11.04-.2,0,0,0,0,0-.01,0-.05-.02-.28.03-.38.05-.12.12-.26.1-.39,0-.09.02.17.02.3,0,.13.03.44-.06.5Z"/><path class="cls-17" d="M14.75,15.34s0,.03,0,.06c-.02-.1-.18-.21-.25-.31-.07-.1-.06-.29-.06-.29,0,0,.04.15.16.24.12.09.16.22.15.3Z"/><path class="cls-17" d="M14.85,14.99c-.05.1-.03.33-.03.38,0-.09-.07-.25-.03-.36.04-.12.15-.32.15-.4.02.13-.05.27-.1.39Z"/><path class="cls-14" d="M14.25,15.36c-.09.06-.12.2-.12.23,0,0,0,.04,0,.1,0,.04,0,.1.01.15.01.2.03.46.03.46h-.04s0-.15,0-.15c0,0,0-.13,0-.29,0-.07,0-.15-.01-.22,0-.11-.02-.2-.03-.23-.02-.04-.07-.07-.12-.1-.02-.01-.04-.03-.07-.04-.05-.04-.09-.09-.11-.16-.06-.2,0-.36,0-.36,0,0,0,.19.06.29.07.1.23.21.25.31h0s0,.03,0,.05c.01.04.02.14.02.14,0,0,.05-.11.04-.2,0,0,0,0,0-.01,0-.05-.02-.28.03-.38.05-.12.12-.26.1-.39,0-.09.02.17.02.3,0,.13.03.45-.06.5Z"/><path class="cls-17" d="M14.1,15.29s0,.03,0,.06c-.02-.1-.18-.21-.25-.31-.07-.1-.06-.29-.06-.29,0,0,.04.15.16.24.12.09.16.22.15.3Z"/><path class="cls-17" d="M14.2,14.94c-.05.1-.03.33-.03.38,0-.09-.07-.25-.03-.37.04-.12.15-.32.15-.41.02.13-.05.27-.1.39Z"/><path class="cls-14" d="M19.93,19.49c-.09.05-.12.16-.12.18,0,0,0,.04,0,.08,0,.03,0,.08.01.12.01.16.03.37.03.37h-.04s0-.12,0-.12c0,0,0-.11,0-.23,0-.06,0-.12-.01-.17,0-.09-.02-.16-.03-.18-.02-.03-.07-.05-.12-.08-.02,0-.04-.02-.07-.04-.05-.03-.09-.07-.11-.13-.06-.16,0-.29,0-.29,0,0,0,.15.06.23.07.08.23.17.25.25h0s0,.03,0,.04c.01.04.02.11.02.11,0,0,.05-.09.04-.16,0,0,0,0,0,0,0-.04-.02-.23.03-.31.05-.09.12-.21.1-.31,0-.07.02.14.02.25,0,.11.03.36-.06.4Z"/><path class="cls-17" d="M19.78,19.44s0,.02,0,.05c-.02-.08-.18-.17-.25-.25-.07-.08-.06-.23-.06-.23,0,0,.04.12.16.19.12.07.16.18.15.24Z"/><path class="cls-17" d="M19.87,19.15c-.05.08-.03.27-.03.31,0-.07-.07-.2-.03-.3.04-.09.15-.26.15-.33.02.1-.05.22-.1.31Z"/><path class="cls-14" d="M17.54,20.19c-.09.05-.12.16-.12.18,0,0,0,.04,0,.08,0,.03,0,.08.01.12.01.16.03.37.03.37h-.04s0-.12,0-.12c0,0,0-.11,0-.23,0-.06,0-.12-.01-.17,0-.09-.02-.16-.03-.18-.02-.03-.07-.05-.12-.08-.02,0-.04-.02-.07-.04-.05-.03-.09-.07-.11-.13-.06-.16,0-.29,0-.29,0,0,0,.15.06.23.07.08.23.17.25.25h0s0,.03,0,.04c.01.04.02.11.02.11,0,0,.05-.09.04-.16,0,0,0,0,0,0,0-.04-.02-.23.03-.31.05-.09.12-.21.1-.31,0-.07.02.14.02.25,0,.11.03.36-.06.4Z"/><path class="cls-17" d="M17.39,20.14s0,.02,0,.05c-.02-.08-.18-.17-.25-.25-.07-.08-.06-.23-.06-.23,0,0,.04.12.16.19.12.07.16.18.15.24Z"/><path class="cls-17" d="M17.48,19.86c-.05.08-.03.27-.03.31,0-.07-.07-.2-.03-.3.04-.09.15-.26.15-.33.02.1-.05.22-.1.31Z"/><path class="cls-14" d="M15.87,20.18c-.09.05-.12.16-.12.18,0,0,0,.04,0,.08,0,.03,0,.08.01.12.01.16.03.37.03.37h-.04s0-.12,0-.12c0,0,0-.11,0-.23,0-.06,0-.12-.01-.17,0-.09-.02-.16-.03-.18-.02-.03-.07-.05-.12-.08-.02,0-.04-.02-.07-.04-.05-.03-.09-.07-.11-.13-.06-.16,0-.29,0-.29,0,0,0,.15.06.23.07.08.23.17.25.25h0s0,.03,0,.04c.01.04.02.11.02.11,0,0,.05-.09.04-.16,0,0,0,0,0,0,0-.04-.02-.23.03-.31.05-.09.12-.21.1-.31,0-.07.02.14.02.25,0,.11.03.36-.06.4Z"/><path class="cls-17" d="M15.72,20.13s0,.02,0,.05c-.02-.08-.18-.17-.25-.25-.07-.08-.06-.23-.06-.23,0,0,.04.12.16.19.12.07.16.18.15.24Z"/><path class="cls-17" d="M15.82,19.84c-.05.08-.03.27-.03.31,0-.07-.07-.2-.03-.3.04-.09.15-.26.15-.33.02.1-.05.22-.1.31Z"/><path class="cls-14" d="M5.85,18.65c-.16.08-.2.28-.21.32,0,0,0,.06.01.14,0,.06.01.13.02.21.02.28.06.64.06.64h-.07s-.02-.21-.02-.21c0,0,0-.18-.01-.4,0-.1-.01-.21-.02-.3-.01-.15-.03-.27-.05-.32-.03-.06-.12-.1-.21-.14-.04-.02-.08-.04-.11-.06-.08-.05-.15-.12-.19-.23-.1-.28,0-.5,0-.5,0,0-.01.26.11.4.12.14.4.29.43.43h0s0,.05,0,.07c.02.06.04.19.04.19,0,0,.08-.16.08-.28,0,0,0,0,0-.02,0-.07-.03-.39.05-.54.09-.16.2-.37.17-.55,0-.12.04.24.03.43,0,.18.06.62-.1.7Z"/><path class="cls-17" d="M5.59,18.56s0,.04,0,.08c-.03-.14-.31-.29-.43-.43-.12-.14-.11-.4-.11-.4,0,0,.07.21.28.34.21.13.28.31.27.42Z"/><path class="cls-17" d="M5.76,18.07c-.08.14-.06.46-.05.54-.01-.13-.12-.35-.05-.51.07-.16.25-.45.26-.57.03.18-.08.38-.17.55Z"/><path class="cls-14" d="M5,18.96c-.16.08-.2.28-.21.32,0,0,0,.06.01.14,0,.06.01.13.02.21.02.28.06.64.06.64h-.07s-.02-.21-.02-.21c0,0,0-.18-.01-.4,0-.1-.01-.21-.02-.3-.01-.15-.03-.27-.05-.32-.03-.06-.12-.1-.21-.14-.04-.02-.08-.04-.11-.06-.08-.05-.15-.12-.19-.23-.1-.28,0-.5,0-.5,0,0-.01.26.11.4.12.14.4.29.43.43h0s0,.05,0,.07c.02.06.04.19.04.19,0,0,.08-.16.08-.28,0,0,0,0,0-.02,0-.07-.03-.39.05-.54.09-.16.2-.37.17-.55,0-.12.04.24.03.43,0,.18.06.62-.1.7Z"/><path class="cls-17" d="M4.74,18.87s0,.04,0,.08c-.03-.14-.31-.29-.43-.43-.12-.14-.11-.4-.11-.4,0,0,.07.21.28.34.21.13.28.31.27.42Z"/><path class="cls-17" d="M4.91,18.38c-.08.14-.06.46-.05.54-.01-.13-.12-.35-.05-.51.07-.16.25-.45.26-.57.03.18-.08.38-.17.55Z"/><path class="cls-14" d="M5.97,19.8c-.16.08-.2.28-.21.32,0,0,0,.06.01.14,0,.06.01.13.02.21.02.28.06.64.06.64h-.07s-.02-.21-.02-.21c0,0,0-.18-.01-.4,0-.1-.01-.21-.02-.3-.01-.15-.03-.27-.05-.32-.03-.06-.12-.1-.21-.14-.04-.02-.08-.04-.11-.06-.08-.05-.15-.12-.19-.23-.1-.28,0-.5,0-.5,0,0-.01.26.11.4.12.14.4.29.43.43h0s0,.05,0,.07c.02.06.04.19.04.19,0,0,.08-.16.08-.28,0,0,0,0,0-.02,0-.07-.03-.39.05-.54.09-.16.2-.37.17-.55,0-.12.04.24.03.43,0,.18.06.62-.1.7Z"/><path class="cls-17" d="M5.7,19.71s0,.04,0,.08c-.03-.14-.31-.29-.43-.43-.12-.14-.11-.4-.11-.4,0,0,.07.21.28.34.21.13.28.31.27.42Z"/><path class="cls-17" d="M5.87,19.21c-.08.14-.06.46-.05.54-.01-.13-.12-.35-.05-.51.07-.16.25-.45.26-.57.03.18-.08.38-.17.55Z"/><path class="cls-14" d="M6.54,20.1c-.09.05-.12.16-.12.18,0,0,0,.04,0,.08,0,.03,0,.08.01.12.01.16.03.37.03.37h-.04s0-.12,0-.12c0,0,0-.11,0-.23,0-.06,0-.12-.01-.17,0-.09-.02-.16-.03-.18-.02-.03-.07-.05-.12-.08-.02,0-.04-.02-.07-.04-.05-.03-.09-.07-.11-.13-.06-.16,0-.29,0-.29,0,0,0,.15.06.23.07.08.23.17.25.25h0s0,.03,0,.04c.01.04.02.11.02.11,0,0,.05-.09.04-.16,0,0,0,0,0,0,0-.04-.02-.23.03-.31.05-.09.12-.21.1-.31,0-.07.02.14.02.25,0,.11.03.36-.06.4Z"/><path class="cls-17" d="M6.39,20.05s0,.02,0,.05c-.02-.08-.18-.17-.25-.25-.07-.08-.06-.23-.06-.23,0,0,.04.12.16.19.12.07.16.18.15.24Z"/><path class="cls-17" d="M6.49,19.76c-.05.08-.03.27-.03.31,0-.07-.07-.2-.03-.3.04-.09.15-.26.15-.33.02.1-.05.22-.1.31Z"/><path class="cls-14" d="M4.88,20.09c-.09.05-.12.16-.12.18,0,0,0,.04,0,.08,0,.03,0,.08.01.12.01.16.03.37.03.37h-.04s0-.12,0-.12c0,0,0-.11,0-.23,0-.06,0-.12-.01-.17,0-.09-.02-.16-.03-.18-.02-.03-.07-.05-.12-.08-.02,0-.04-.02-.07-.04-.05-.03-.09-.07-.11-.13-.06-.16,0-.29,0-.29,0,0,0,.15.06.23.07.08.23.17.25.25h0s0,.03,0,.04c.01.04.02.11.02.11,0,0,.05-.09.04-.16,0,0,0,0,0,0,0-.04-.02-.23.03-.31.05-.09.12-.21.1-.31,0-.07.02.14.02.25,0,.11.03.36-.06.4Z"/><path class="cls-17" d="M4.73,20.04s0,.02,0,.05c-.02-.08-.18-.17-.25-.25-.07-.08-.06-.23-.06-.23,0,0,.04.12.16.19.12.07.16.18.15.24Z"/><path class="cls-17" d="M4.83,19.75c-.05.08-.03.27-.03.31,0-.07-.07-.2-.03-.3.04-.09.15-.26.15-.33.02.1-.05.22-.1.31Z"/><path class="cls-14" d="M7.71,17.17c-.16.08-.2.28-.21.32,0,0,0,.06.01.14,0,.06.01.13.02.21.02.28.06.64.06.64h-.07s-.02-.21-.02-.21c0,0,0-.18-.01-.4,0-.1-.01-.21-.02-.3-.01-.15-.03-.27-.05-.32-.03-.06-.12-.1-.21-.14-.04-.02-.08-.04-.11-.06-.08-.05-.15-.12-.19-.23-.1-.28,0-.5,0-.5,0,0-.01.26.11.4.12.14.4.29.43.43h0s0,.05,0,.07c.02.06.04.19.04.19,0,0,.08-.16.08-.28,0,0,0,0,0-.02,0-.07-.03-.39.05-.54.09-.16.2-.37.17-.55,0-.12.04.24.03.43,0,.18.06.62-.1.7Z"/><path class="cls-17" d="M7.45,17.09s0,.04,0,.08c-.03-.14-.31-.29-.43-.43-.12-.14-.11-.4-.11-.4,0,0,.07.21.28.34.21.13.28.31.27.42Z"/><path class="cls-17" d="M7.61,16.59c-.08.14-.06.46-.05.54-.01-.13-.12-.35-.05-.51.07-.16.25-.45.26-.57.03.18-.08.38-.17.55Z"/><path class="cls-14" d="M6.86,17.48c-.16.08-.2.28-.21.32,0,0,0,.06.01.14,0,.06.01.13.02.21.02.28.06.64.06.64h-.07s-.02-.21-.02-.21c0,0,0-.18-.01-.4,0-.1-.01-.21-.02-.3-.01-.15-.03-.27-.05-.32-.03-.06-.12-.1-.21-.14-.04-.02-.08-.04-.11-.06-.08-.05-.15-.12-.19-.23-.1-.28,0-.5,0-.5,0,0-.01.26.11.4.12.14.4.29.43.43h0s0,.05,0,.07c.02.06.04.19.04.19,0,0,.08-.16.08-.28,0,0,0,0,0-.02,0-.07-.03-.39.05-.54.09-.16.2-.37.17-.55,0-.12.04.24.03.43,0,.18.06.62-.1.7Z"/><path class="cls-17" d="M6.6,17.4s0,.04,0,.08c-.03-.14-.31-.29-.43-.43-.12-.14-.11-.4-.11-.4,0,0,.07.21.28.34.21.13.28.31.27.42Z"/><path class="cls-17" d="M6.76,16.9c-.08.14-.06.46-.05.54-.01-.13-.12-.35-.05-.51.07-.16.25-.45.26-.57.03.18-.08.38-.17.55Z"/><path class="cls-14" d="M7.82,18.32c-.16.08-.2.28-.21.32,0,0,0,.06.01.14,0,.06.01.13.02.21.02.28.06.64.06.64h-.07s-.02-.21-.02-.21c0,0,0-.18-.01-.4,0-.1-.01-.21-.02-.3-.01-.15-.03-.27-.05-.32-.03-.06-.12-.1-.21-.14-.04-.02-.08-.04-.11-.06-.08-.05-.15-.12-.19-.23-.1-.28,0-.5,0-.5,0,0-.01.26.11.4.12.14.4.29.43.43h0s0,.05,0,.07c.02.06.04.19.04.19,0,0,.08-.16.08-.28,0,0,0,0,0-.02,0-.07-.03-.39.05-.54.09-.16.2-.37.17-.55,0-.12.04.24.03.43,0,.18.06.62-.1.7Z"/><path class="cls-17" d="M7.56,18.24s0,.04,0,.08c-.03-.14-.31-.29-.43-.43-.12-.14-.11-.4-.11-.4,0,0,.07.21.28.34.21.13.28.31.27.42Z"/><path class="cls-17" d="M7.73,17.74c-.08.14-.06.46-.05.54-.01-.13-.12-.35-.05-.51.07-.16.25-.45.26-.57.03.18-.08.38-.17.55Z"/><path class="cls-14" d="M8.4,18.63c-.09.05-.12.16-.12.18,0,0,0,.04,0,.08,0,.03,0,.08.01.12.01.16.03.37.03.37h-.04s0-.12,0-.12c0,0,0-.11,0-.23,0-.06,0-.12-.01-.17,0-.09-.02-.16-.03-.18-.02-.03-.07-.05-.12-.08-.02,0-.04-.02-.07-.04-.05-.03-.09-.07-.11-.13-.06-.16,0-.29,0-.29,0,0,0,.15.06.23.07.08.23.17.25.25h0s0,.03,0,.04c.01.04.02.11.02.11,0,0,.05-.09.04-.16,0,0,0,0,0,0,0-.04-.02-.23.03-.31.05-.09.12-.21.1-.31,0-.07.02.14.02.25,0,.11.03.36-.06.4Z"/><path class="cls-17" d="M8.25,18.58s0,.02,0,.05c-.02-.08-.18-.17-.25-.25-.07-.08-.06-.23-.06-.23,0,0,.04.12.16.19.12.07.16.18.15.24Z"/><path class="cls-17" d="M8.35,18.29c-.05.08-.03.27-.03.31,0-.07-.07-.2-.03-.3.04-.09.15-.26.15-.33.02.1-.05.22-.1.31Z"/><path class="cls-14" d="M6.73,18.61c-.09.05-.12.16-.12.18,0,0,0,.04,0,.08,0,.03,0,.08.01.12.01.16.03.37.03.37h-.04s0-.12,0-.12c0,0,0-.11,0-.23,0-.06,0-.12-.01-.17,0-.09-.02-.16-.03-.18-.02-.03-.07-.05-.12-.08-.02,0-.04-.02-.07-.04-.05-.03-.09-.07-.11-.13-.06-.16,0-.29,0-.29,0,0,0,.15.06.23.07.08.23.17.25.25h0s0,.03,0,.04c.01.04.02.11.02.11,0,0,.05-.09.04-.16,0,0,0,0,0,0,0-.04-.02-.23.03-.31.05-.09.12-.21.1-.31,0-.07.02.14.02.25,0,.11.03.36-.06.4Z"/><path class="cls-17" d="M6.58,18.57s0,.02,0,.05c-.02-.08-.18-.17-.25-.25-.07-.08-.06-.23-.06-.23,0,0,.04.12.16.19.12.07.16.18.15.24Z"/><path class="cls-17" d="M6.68,18.28c-.05.08-.03.27-.03.31,0-.07-.07-.2-.03-.3.04-.09.15-.26.15-.33.02.1-.05.22-.1.31Z"/><path class="cls-14" d="M8.93,19.31c-.16.08-.2.28-.21.32,0,0,0,.06.01.14,0,.06.01.13.02.21.02.28.06.64.06.64h-.07s-.02-.21-.02-.21c0,0,0-.18-.01-.4,0-.1-.01-.21-.02-.3-.01-.15-.03-.27-.05-.32-.03-.06-.12-.1-.21-.14-.04-.02-.08-.04-.11-.06-.08-.05-.15-.12-.19-.23-.1-.28,0-.5,0-.5,0,0-.01.26.11.4.12.14.4.29.43.43h0s0,.05,0,.07c.02.06.04.19.04.19,0,0,.08-.16.08-.28,0,0,0,0,0-.02,0-.07-.03-.39.05-.54.09-.16.2-.37.17-.55,0-.12.04.24.03.43,0,.18.06.62-.1.7Z"/><path class="cls-17" d="M8.67,19.23s0,.04,0,.08c-.03-.14-.31-.29-.43-.43-.12-.14-.11-.4-.11-.4,0,0,.07.21.28.34.21.13.28.31.27.42Z"/><path class="cls-17" d="M8.84,18.73c-.08.14-.06.46-.05.54-.01-.13-.12-.35-.05-.51.07-.16.25-.45.26-.57.03.18-.08.38-.17.55Z"/><path class="cls-14" d="M8.08,19.62c-.16.08-.2.28-.21.32,0,0,0,.06.01.14,0,.06.01.13.02.21.02.28.06.64.06.64h-.07s-.02-.21-.02-.21c0,0,0-.18-.01-.4,0-.1-.01-.21-.02-.3-.01-.15-.03-.27-.05-.32-.03-.06-.12-.1-.21-.14-.04-.02-.08-.04-.11-.06-.08-.05-.15-.12-.19-.23-.1-.28,0-.5,0-.5,0,0-.01.26.11.4.12.14.4.29.43.43h0s0,.05,0,.07c.02.06.04.19.04.19,0,0,.08-.16.08-.28,0,0,0,0,0-.02,0-.07-.03-.39.05-.54.09-.16.2-.37.17-.55,0-.12.04.24.03.43,0,.18.06.62-.1.7Z"/><path class="cls-17" d="M7.82,19.54s0,.04,0,.08c-.03-.14-.31-.29-.43-.43-.12-.14-.11-.4-.11-.4,0,0,.07.21.28.34.21.13.28.31.27.42Z"/><path class="cls-17" d="M7.99,19.04c-.08.14-.06.46-.05.54-.01-.13-.12-.35-.05-.51.07-.16.25-.45.26-.57.03.18-.08.38-.17.55Z"/><path class="cls-14" d="M9.05,20.46c-.16.08-.2.28-.21.32,0,0,0,.06.01.14,0,.06.01.13.02.21.02.28.06.64.06.64h-.07s-.02-.21-.02-.21c0,0,0-.18-.01-.4,0-.1-.01-.21-.02-.3-.01-.15-.03-.27-.05-.32-.03-.06-.12-.1-.21-.14-.04-.02-.08-.04-.11-.06-.08-.05-.15-.12-.19-.23-.1-.28,0-.5,0-.5,0,0-.01.26.11.4.12.14.4.29.43.43h0s0,.05,0,.07c.02.06.04.19.04.19,0,0,.08-.16.08-.28,0,0,0,0,0-.02,0-.07-.03-.39.05-.54.09-.16.2-.37.17-.55,0-.12.04.24.03.43,0,.18.06.62-.1.7Z"/><path class="cls-17" d="M8.79,20.38s0,.04,0,.08c-.03-.14-.31-.29-.43-.43-.12-.14-.11-.4-.11-.4,0,0,.07.21.28.34.21.13.28.31.27.42Z"/><path class="cls-17" d="M8.95,19.88c-.08.14-.06.46-.05.54-.01-.13-.12-.35-.05-.51.07-.16.25-.45.26-.57.03.18-.08.38-.17.55Z"/><path class="cls-14" d="M9.63,20.77c-.09.05-.12.16-.12.18,0,0,0,.04,0,.08,0,.03,0,.08.01.12.01.16.03.37.03.37h-.04s0-.12,0-.12c0,0,0-.11,0-.23,0-.06,0-.12-.01-.17,0-.09-.02-.16-.03-.18-.02-.03-.07-.05-.12-.08-.02,0-.04-.02-.07-.04-.05-.03-.09-.07-.11-.13-.06-.16,0-.29,0-.29,0,0,0,.15.06.23.07.08.23.17.25.25h0s0,.03,0,.04c.01.04.02.11.02.11,0,0,.05-.09.04-.16,0,0,0,0,0,0,0-.04-.02-.23.03-.31.05-.09.12-.21.1-.31,0-.07.02.14.02.25,0,.11.03.36-.06.4Z"/><path class="cls-17" d="M9.48,20.72s0,.02,0,.05c-.02-.08-.18-.17-.25-.25-.07-.08-.06-.23-.06-.23,0,0,.04.12.16.19.12.07.16.18.15.24Z"/><path class="cls-17" d="M9.57,20.43c-.05.08-.03.27-.03.31,0-.07-.07-.2-.03-.3.04-.09.15-.26.15-.33.02.1-.05.22-.1.31Z"/><path class="cls-14" d="M7.96,20.75c-.09.05-.12.16-.12.18,0,0,0,.04,0,.08,0,.03,0,.08.01.12.01.16.03.37.03.37h-.04s0-.12,0-.12c0,0,0-.11,0-.23,0-.06,0-.12-.01-.17,0-.09-.02-.16-.03-.18-.02-.03-.07-.05-.12-.08-.02,0-.04-.02-.07-.04-.05-.03-.09-.07-.11-.13-.06-.16,0-.29,0-.29,0,0,0,.15.06.23.07.08.23.17.25.25h0s0,.03,0,.04c.01.04.02.11.02.11,0,0,.05-.09.04-.16,0,0,0,0,0,0,0-.04-.02-.23.03-.31.05-.09.12-.21.1-.31,0-.07.02.14.02.25,0,.11.03.36-.06.4Z"/><path class="cls-17" d="M7.81,20.7s0,.02,0,.05c-.02-.08-.18-.17-.25-.25-.07-.08-.06-.23-.06-.23,0,0,.04.12.16.19.12.07.16.18.15.24Z"/><path class="cls-17" d="M7.91,20.42c-.05.08-.03.27-.03.31,0-.07-.07-.2-.03-.3.04-.09.15-.26.15-.33.02.1-.05.22-.1.31Z"/><path class="cls-14" d="M11.05,17.9c-.16.08-.2.28-.21.32,0,0,0,.06.01.14,0,.06.01.13.02.21.02.28.06.64.06.64h-.07s-.02-.21-.02-.21c0,0,0-.18-.01-.4,0-.1-.01-.21-.02-.3-.01-.15-.03-.27-.05-.32-.03-.06-.12-.1-.21-.14-.04-.02-.08-.04-.11-.06-.08-.05-.15-.12-.19-.23-.1-.28,0-.5,0-.5,0,0-.01.26.11.4.12.14.4.29.43.43h0s0,.05,0,.07c.02.06.04.19.04.19,0,0,.08-.16.08-.28,0,0,0,0,0-.02,0-.07-.03-.39.05-.54.09-.16.2-.37.17-.55,0-.12.04.24.03.43,0,.18.06.62-.1.7Z"/><path class="cls-17" d="M10.79,17.82s0,.04,0,.08c-.03-.14-.31-.29-.43-.43-.12-.14-.11-.4-.11-.4,0,0,.07.21.28.34.21.13.28.31.27.42Z"/><path class="cls-17" d="M10.96,17.32c-.08.14-.06.46-.05.54-.01-.13-.12-.35-.05-.51.07-.16.25-.45.26-.57.03.18-.08.38-.17.55Z"/><path class="cls-14" d="M10.2,18.21c-.16.08-.2.28-.21.32,0,0,0,.06.01.14,0,.06.01.13.02.21.02.28.06.64.06.64h-.07s-.02-.21-.02-.21c0,0,0-.18-.01-.4,0-.1-.01-.21-.02-.3-.01-.15-.03-.27-.05-.32-.03-.06-.12-.1-.21-.14-.04-.02-.08-.04-.11-.06-.08-.05-.15-.12-.19-.23-.1-.28,0-.5,0-.5,0,0-.01.26.11.4.12.14.4.29.43.43h0s0,.05,0,.07c.02.06.04.19.04.19,0,0,.08-.16.08-.28,0,0,0,0,0-.02,0-.07-.03-.39.05-.54.09-.16.2-.37.17-.55,0-.12.04.24.03.43,0,.18.06.62-.1.7Z"/><path class="cls-17" d="M9.94,18.13s0,.04,0,.08c-.03-.14-.31-.29-.43-.43-.12-.14-.11-.4-.11-.4,0,0,.07.21.28.34.21.13.28.31.27.42Z"/><path class="cls-17" d="M10.11,17.63c-.08.14-.06.46-.05.54-.01-.13-.12-.35-.05-.51.07-.16.25-.45.26-.57.03.18-.08.38-.17.55Z"/><path class="cls-14" d="M11.17,19.05c-.16.08-.2.28-.21.32,0,0,0,.06.01.14,0,.06.01.13.02.21.02.28.06.64.06.64h-.07s-.02-.21-.02-.21c0,0,0-.18-.01-.4,0-.1-.01-.21-.02-.3-.01-.15-.03-.27-.05-.32-.03-.06-.12-.1-.21-.14-.04-.02-.08-.04-.11-.06-.08-.05-.15-.12-.19-.23-.1-.28,0-.5,0-.5,0,0-.01.26.11.4.12.14.4.29.43.43h0s0,.05,0,.07c.02.06.04.19.04.19,0,0,.08-.16.08-.28,0,0,0,0,0-.02,0-.07-.03-.39.05-.54.09-.16.2-.37.17-.55,0-.12.04.24.03.43,0,.18.06.62-.1.7Z"/><path class="cls-17" d="M10.91,18.97s0,.04,0,.08c-.03-.14-.31-.29-.43-.43-.12-.14-.11-.4-.11-.4,0,0,.07.21.28.34.21.13.28.31.27.42Z"/><path class="cls-17" d="M11.07,18.47c-.08.14-.06.46-.05.54-.01-.13-.12-.35-.05-.51.07-.16.25-.45.26-.57.03.18-.08.38-.17.55Z"/><path class="cls-14" d="M11.75,19.35c-.09.05-.12.16-.12.18,0,0,0,.04,0,.08,0,.03,0,.08.01.12.01.16.03.37.03.37h-.04s0-.12,0-.12c0,0,0-.11,0-.23,0-.06,0-.12-.01-.17,0-.09-.02-.16-.03-.18-.02-.03-.07-.05-.12-.08-.02,0-.04-.02-.07-.04-.05-.03-.09-.07-.11-.13-.06-.16,0-.29,0-.29,0,0,0,.15.06.23.07.08.23.17.25.25h0s0,.03,0,.04c.01.04.02.11.02.11,0,0,.05-.09.04-.16,0,0,0,0,0,0,0-.04-.02-.23.03-.31.05-.09.12-.21.1-.31,0-.07.02.14.02.25,0,.11.03.36-.06.4Z"/><path class="cls-17" d="M11.6,19.31s0,.02,0,.05c-.02-.08-.18-.17-.25-.25-.07-.08-.06-.23-.06-.23,0,0,.04.12.16.19.12.07.16.18.15.24Z"/><path class="cls-17" d="M11.69,19.02c-.05.08-.03.27-.03.31,0-.07-.07-.2-.03-.3.04-.09.15-.26.15-.33.02.1-.05.22-.1.31Z"/><path class="cls-14" d="M10.08,19.34c-.09.05-.12.16-.12.18,0,0,0,.04,0,.08,0,.03,0,.08.01.12.01.16.03.37.03.37h-.04s0-.12,0-.12c0,0,0-.11,0-.23,0-.06,0-.12-.01-.17,0-.09-.02-.16-.03-.18-.02-.03-.07-.05-.12-.08-.02,0-.04-.02-.07-.04-.05-.03-.09-.07-.11-.13-.06-.16,0-.29,0-.29,0,0,0,.15.06.23.07.08.23.17.25.25h0s0,.03,0,.04c.01.04.02.11.02.11,0,0,.05-.09.04-.16,0,0,0,0,0,0,0-.04-.02-.23.03-.31.05-.09.12-.21.1-.31,0-.07.02.14.02.25,0,.11.03.36-.06.4Z"/><path class="cls-17" d="M9.93,19.29s0,.02,0,.05c-.02-.08-.18-.17-.25-.25-.07-.08-.06-.23-.06-.23,0,0,.04.12.16.19.12.07.16.18.15.24Z"/><path class="cls-17" d="M10.03,19.01c-.05.08-.03.27-.03.31,0-.07-.07-.2-.03-.3.04-.09.15-.26.15-.33.02.1-.05.22-.1.31Z"/><path class="cls-14" d="M12.91,16.43c-.16.08-.2.28-.21.32,0,0,0,.06.01.14,0,.06.01.13.02.21.02.28.06.64.06.64h-.07s-.02-.21-.02-.21c0,0,0-.18-.01-.4,0-.1-.01-.21-.02-.3-.01-.15-.03-.27-.05-.32-.03-.06-.12-.1-.21-.14-.04-.02-.08-.04-.11-.06-.08-.05-.15-.12-.19-.23-.1-.28,0-.5,0-.5,0,0-.01.26.11.4.12.14.4.29.43.43h0s0,.05,0,.07c.02.06.04.19.04.19,0,0,.08-.16.08-.28,0,0,0,0,0-.02,0-.07-.03-.39.05-.54.09-.16.2-.37.17-.55,0-.12.04.24.03.43,0,.18.06.62-.1.7Z"/><path class="cls-17" d="M12.65,16.34s0,.04,0,.08c-.03-.14-.31-.29-.43-.43-.12-.14-.11-.4-.11-.4,0,0,.07.21.28.34.21.13.28.31.27.42Z"/><path class="cls-17" d="M12.82,15.85c-.08.14-.06.46-.05.54-.01-.13-.12-.35-.05-.51.07-.16.25-.45.26-.57.03.18-.08.38-.17.55Z"/><path class="cls-14" d="M12.06,16.74c-.16.08-.2.28-.21.32,0,0,0,.06.01.14,0,.06.01.13.02.21.02.28.06.64.06.64h-.07s-.02-.21-.02-.21c0,0,0-.18-.01-.4,0-.1-.01-.21-.02-.3-.01-.15-.03-.27-.05-.32-.03-.06-.12-.1-.21-.14-.04-.02-.08-.04-.11-.06-.08-.05-.15-.12-.19-.23-.1-.28,0-.5,0-.5,0,0-.01.26.11.4.12.14.4.29.43.43h0s0,.05,0,.07c.02.06.04.19.04.19,0,0,.08-.16.08-.28,0,0,0,0,0-.02,0-.07-.03-.39.05-.54.09-.16.2-.37.17-.55,0-.12.04.24.03.43,0,.18.06.62-.1.7Z"/><path class="cls-17" d="M11.8,16.65s0,.04,0,.08c-.03-.14-.31-.29-.43-.43-.12-.14-.11-.4-.11-.4,0,0,.07.21.28.34.21.13.28.31.27.42Z"/><path class="cls-17" d="M11.97,16.16c-.08.14-.06.46-.05.54-.01-.13-.12-.35-.05-.51.07-.16.25-.45.26-.57.03.18-.08.38-.17.55Z"/><path class="cls-14" d="M13.02,17.58c-.16.08-.2.28-.21.32,0,0,0,.06.01.14,0,.06.01.13.02.21.02.28.06.64.06.64h-.07s-.02-.21-.02-.21c0,0,0-.18-.01-.4,0-.1-.01-.21-.02-.3-.01-.15-.03-.27-.05-.32-.03-.06-.12-.1-.21-.14-.04-.02-.08-.04-.11-.06-.08-.05-.15-.12-.19-.23-.1-.28,0-.5,0-.5,0,0-.01.26.11.4.12.14.4.29.43.43h0s0,.05,0,.07c.02.06.04.19.04.19,0,0,.08-.16.08-.28,0,0,0,0,0-.02,0-.07-.03-.39.05-.54.09-.16.2-.37.17-.55,0-.12.04.24.03.43,0,.18.06.62-.1.7Z"/><path class="cls-17" d="M12.76,17.49s0,.04,0,.08c-.03-.14-.31-.29-.43-.43-.12-.14-.11-.4-.11-.4,0,0,.07.21.28.34.21.13.28.31.27.42Z"/><path class="cls-17" d="M12.93,17c-.08.14-.06.46-.05.54-.01-.13-.12-.35-.05-.51.07-.16.25-.45.26-.57.03.18-.08.38-.17.55Z"/><path class="cls-14" d="M13.6,17.88c-.09.05-.12.16-.12.18,0,0,0,.04,0,.08,0,.03,0,.08.01.12.01.16.03.37.03.37h-.04s0-.12,0-.12c0,0,0-.11,0-.23,0-.06,0-.12-.01-.17,0-.09-.02-.16-.03-.18-.02-.03-.07-.05-.12-.08-.02,0-.04-.02-.07-.04-.05-.03-.09-.07-.11-.13-.06-.16,0-.29,0-.29,0,0,0,.15.06.23.07.08.23.17.25.25h0s0,.03,0,.04c.01.04.02.11.02.11,0,0,.05-.09.04-.16,0,0,0,0,0,0,0-.04-.02-.23.03-.31.05-.09.12-.21.1-.31,0-.07.02.14.02.25,0,.11.03.36-.06.4Z"/><path class="cls-17" d="M13.45,17.83s0,.02,0,.05c-.02-.08-.18-.17-.25-.25-.07-.08-.06-.23-.06-.23,0,0,.04.12.16.19.12.07.16.18.15.24Z"/><path class="cls-17" d="M13.55,17.55c-.05.08-.03.27-.03.31,0-.07-.07-.2-.03-.3.04-.09.15-.26.15-.33.02.1-.05.22-.1.31Z"/><path class="cls-14" d="M11.94,17.87c-.09.05-.12.16-.12.18,0,0,0,.04,0,.08,0,.03,0,.08.01.12.01.16.03.37.03.37h-.04s0-.12,0-.12c0,0,0-.11,0-.23,0-.06,0-.12-.01-.17,0-.09-.02-.16-.03-.18-.02-.03-.07-.05-.12-.08-.02,0-.04-.02-.07-.04-.05-.03-.09-.07-.11-.13-.06-.16,0-.29,0-.29,0,0,0,.15.06.23.07.08.23.17.25.25h0s0,.03,0,.04c.01.04.02.11.02.11,0,0,.05-.09.04-.16,0,0,0,0,0,0,0-.04-.02-.23.03-.31.05-.09.12-.21.1-.31,0-.07.02.14.02.25,0,.11.03.36-.06.4Z"/><path class="cls-17" d="M11.79,17.82s0,.02,0,.05c-.02-.08-.18-.17-.25-.25-.07-.08-.06-.23-.06-.23,0,0,.04.12.16.19.12.07.16.18.15.24Z"/><path class="cls-17" d="M11.88,17.53c-.05.08-.03.27-.03.31,0-.07-.07-.2-.03-.3.04-.09.15-.26.15-.33.02.1-.05.22-.1.31Z"/><path class="cls-14" d="M14.14,18.57c-.16.08-.2.28-.21.32,0,0,0,.06.01.14,0,.06.01.13.02.21.02.28.06.64.06.64h-.07s-.02-.21-.02-.21c0,0,0-.18-.01-.4,0-.1-.01-.21-.02-.3-.01-.15-.03-.27-.05-.32-.03-.06-.12-.1-.21-.14-.04-.02-.08-.04-.11-.06-.08-.05-.15-.12-.19-.23-.1-.28,0-.5,0-.5,0,0-.01.26.11.4.12.14.4.29.43.43h0s0,.05,0,.07c.02.06.04.19.04.19,0,0,.08-.16.08-.28,0,0,0,0,0-.02,0-.07-.03-.39.05-.54.09-.16.2-.37.17-.55,0-.12.04.24.03.43,0,.18.06.62-.1.7Z"/><path class="cls-17" d="M13.88,18.48s0,.04,0,.08c-.03-.14-.31-.29-.43-.43-.12-.14-.11-.4-.11-.4,0,0,.07.21.28.34.21.13.28.31.27.42Z"/><path class="cls-17" d="M14.04,17.99c-.08.14-.06.46-.05.54-.01-.13-.12-.35-.05-.51.07-.16.25-.45.26-.57.03.18-.08.38-.17.55Z"/><path class="cls-14" d="M13.29,18.88c-.16.08-.2.28-.21.32,0,0,0,.06.01.14,0,.06.01.13.02.21.02.28.06.64.06.64h-.07s-.02-.21-.02-.21c0,0,0-.18-.01-.4,0-.1-.01-.21-.02-.3-.01-.15-.03-.27-.05-.32-.03-.06-.12-.1-.21-.14-.04-.02-.08-.04-.11-.06-.08-.05-.15-.12-.19-.23-.1-.28,0-.5,0-.5,0,0-.01.26.11.4.12.14.4.29.43.43h0s0,.05,0,.07c.02.06.04.19.04.19,0,0,.08-.16.08-.28,0,0,0,0,0-.02,0-.07-.03-.39.05-.54.09-.16.2-.37.17-.55,0-.12.04.24.03.43,0,.18.06.62-.1.7Z"/><path class="cls-17" d="M13.02,18.79s0,.04,0,.08c-.03-.14-.31-.29-.43-.43-.12-.14-.11-.4-.11-.4,0,0,.07.21.28.34.21.13.28.31.27.42Z"/><path class="cls-17" d="M13.19,18.3c-.08.14-.06.46-.05.54-.01-.13-.12-.35-.05-.51.07-.16.25-.45.26-.57.03.18-.08.38-.17.55Z"/><path class="cls-14" d="M14.25,19.72c-.16.08-.2.28-.21.32,0,0,0,.06.01.14,0,.06.01.13.02.21.02.28.06.64.06.64h-.07s-.02-.21-.02-.21c0,0,0-.18-.01-.4,0-.1-.01-.21-.02-.3-.01-.15-.03-.27-.05-.32-.03-.06-.12-.1-.21-.14-.04-.02-.08-.04-.11-.06-.08-.05-.15-.12-.19-.23-.1-.28,0-.5,0-.5,0,0-.01.26.11.4.12.14.4.29.43.43h0s0,.05,0,.07c.02.06.04.19.04.19,0,0,.08-.16.08-.28,0,0,0,0,0-.02,0-.07-.03-.39.05-.54.09-.16.2-.37.17-.55,0-.12.04.24.03.43,0,.18.06.62-.1.7Z"/><path class="cls-17" d="M13.99,19.63s0,.04,0,.08c-.03-.14-.31-.29-.43-.43-.12-.14-.11-.4-.11-.4,0,0,.07.21.28.34.21.13.28.31.27.42Z"/><path class="cls-17" d="M14.16,19.14c-.08.14-.06.46-.05.54-.01-.13-.12-.35-.05-.51.07-.16.25-.45.26-.57.03.18-.08.38-.17.55Z"/><path class="cls-14" d="M14.83,20.02c-.09.05-.12.16-.12.18,0,0,0,.04,0,.08,0,.03,0,.08.01.12.01.16.03.37.03.37h-.04s0-.12,0-.12c0,0,0-.11,0-.23,0-.06,0-.12-.01-.17,0-.09-.02-.16-.03-.18-.02-.03-.07-.05-.12-.08-.02,0-.04-.02-.07-.04-.05-.03-.09-.07-.11-.13-.06-.16,0-.29,0-.29,0,0,0,.15.06.23.07.08.23.17.25.25h0s0,.03,0,.04c.01.04.02.11.02.11,0,0,.05-.09.04-.16,0,0,0,0,0,0,0-.04-.02-.23.03-.31.05-.09.12-.21.1-.31,0-.07.02.14.02.25,0,.11.03.36-.06.4Z"/><path class="cls-17" d="M14.68,19.97s0,.02,0,.05c-.02-.08-.18-.17-.25-.25-.07-.08-.06-.23-.06-.23,0,0,.04.12.16.19.12.07.16.18.15.24Z"/><path class="cls-17" d="M14.77,19.69c-.05.08-.03.27-.03.31,0-.07-.07-.2-.03-.3.04-.09.15-.26.15-.33.02.1-.05.22-.1.31Z"/><path class="cls-14" d="M13.16,20.01c-.09.05-.12.16-.12.18,0,0,0,.04,0,.08,0,.03,0,.08.01.12.01.16.03.37.03.37h-.04s0-.12,0-.12c0,0,0-.11,0-.23,0-.06,0-.12-.01-.17,0-.09-.02-.16-.03-.18-.02-.03-.07-.05-.12-.08-.02,0-.04-.02-.07-.04-.05-.03-.09-.07-.11-.13-.06-.16,0-.29,0-.29,0,0,0,.15.06.23.07.08.23.17.25.25h0s0,.03,0,.04c.01.04.02.11.02.11,0,0,.05-.09.04-.16,0,0,0,0,0,0,0-.04-.02-.23.03-.31.05-.09.12-.21.1-.31,0-.07.02.14.02.25,0,.11.03.36-.06.4Z"/><path class="cls-17" d="M13.01,19.96s0,.02,0,.05c-.02-.08-.18-.17-.25-.25-.07-.08-.06-.23-.06-.23,0,0,.04.12.16.19.12.07.16.18.15.24Z"/><path class="cls-17" d="M13.11,19.67c-.05.08-.03.27-.03.31,0-.07-.07-.2-.03-.3.04-.09.15-.26.15-.33.02.1-.05.22-.1.31Z"/></svg>