<?xml version="1.0" encoding="UTF-8"?><svg id="Livello_1" xmlns="http://www.w3.org/2000/svg" viewBox="0 0 28.22 16.99"><defs><style>.cls-1{fill:#6c513c;}.cls-1,.cls-2,.cls-3,.cls-4,.cls-5{stroke-width:0px;}.cls-2{fill:#222;}.cls-6{stroke:#fff;stroke-linecap:round;stroke-linejoin:round;stroke-width:1px;}.cls-6,.cls-4{fill:#fff;}.cls-3{fill:#594233;}.cls-5{fill:#231c1d;}</style></defs><path class="cls-6" d="M27.66,14.1c-.11-.14-.34-.3-.32-.43-2.24-.43-3.57-2.15-4-2.62.42-.76.04-2.49-.14-3.31-.18-.84-2.14-2.9-2.14-2.9-.99-.5-.62-.56-1.81-1.02-.44-.16-1.6-.83-2.17-.77-.57.06-1.96.81-2.81,1s-3.78.69-4.06,0c-.47-1.15-1.2-1.9-1.2-1.9C7.56.3,5.54.31,4.82.73s-1.67.97-2.18,1.35c-.51.51-.89,1.65-1.14,1.78s-.89,1.14-.89,1.14c0,0-.38.89.25,1.52.51.63,1.63,1.27,2.92,1.21,0,0,.67.83,1.05,1.6.2.48.38,1.07.44,1.78.05.52.24.94.58,1.24.42.36,1.02.54,1.47.67.24.07.49.14.74.21h0s.33.12.33.12c-.36,1.16-1.82,1.38-2.37,1.31-.6-.08-1.19.27-1.34.42s-.51.93-.51.93c0,0,.45.39.98.33s2.25-.15,2.47-.14c.23.02.52,0,1.05-.17.33-.1.98-1.33,1.42-2.33,0,0,0,0,0,0,0,0,.26.07.52.07.02,0,.04,0,.06,0,.21.01.39,0,.51-.03.6-.19.46-.4,1.74-.4,1.04,0,2,.31,2.73.65.25.16.51.31.33.16.43.22.74.44.89.56,0,.08,0,.14-.03.17-.16.16-2.04.09-3.09.15s-1.61.54-1.61.54c-.54.48.27.76.66.78s1.95.13,2.09.13,2.24-.06,3.16-.13c2.18-.16,2.66.02,3.5-.25.42-.14,1.31-.48,1.2-.74-.09-.21-.77-.98-1.02-1.26.31-.12.53-.24.57-.33.06-.15.31-.8.54-1.42-.16,2.47,2.27,2.54,2.27,2.54,0,0-.87-1.15-.16-.66.7.48,1.2.55.97.39-.23-.16-.2-.41-.2-.41,1.62.35,2.19-.08,1.94-.11ZM8.4,13.34s0-.01,0-.02c0,0,0,0,0,0,0,0,0,0,0,.01Z"/><path class="cls-3" d="M27.66,14.1c.25.04-.32.47-1.94.11,0,0-.04.25.2.41s-.27.09-.97-.39.16.66.16.66c0,0-2.64-.07-2.25-2.83,0,0-.24-.46.05-.68.29-.22.08-.61.31-.45s1.61,2.26,4.11,2.73c-.02.13.22.29.32.43h0Z"/><path class="cls-1" d="M5.28,11.12c-.21-2.27-1.49-3.38-1.49-3.38-1.29.06-2.41-.58-2.92-1.21-.63-.63-.25-1.52-.25-1.52,0,0,.63-1.02.89-1.14s.63-1.27,1.14-1.78c.51-.38,1-1.15,2.18-1.35,1.79-.31,3.28-.22,4.72,1.63,0,0,.33.26.8,1.41.28.69,3.09.46,3.94.27s2.23-.94,2.81-1,1.73.61,2.17.77c1.19.45.81.51,1.81,1.02,0,0,1.96,2.05,2.14,2.9s.59,2.66.1,3.38c0,0-.28,1.91-1.27,2.68-.26.2-2.06.87-2.52,1.05s-2.5,0-2.65-.12c-.39-.33-2.05-1.37-3.95-1.37-1.28,0-1.14.21-1.74.4s-2.42-.32-3.86-.74c-.45-.13-1.05-.31-1.47-.67-.34-.29-.53-.72-.58-1.24Z"/><path class="cls-3" d="M20.35,7.35s-.79-2.08-2.61-3.3c-1.68-1.14.16-.63,1.42.62,1.14,1.14,1.19,2.68,1.19,2.68Z"/><path class="cls-3" d="M18.95,7.35s-.54-1.87-2.49-3.18c-1.03-.69.58-.46,1.37.49s1.12,2.69,1.12,2.69Z"/><path class="cls-3" d="M17.47,7.16s-1.09-2.09-2.07-2.58c-.98-.49.26-.56,1.11.47s.97,2.11.97,2.11Z"/><path class="cls-3" d="M16.2,6.84s-1.38-1.84-2.23-2.34,1.73.28,2.23,2.34Z"/><path class="cls-3" d="M13.57,7.75s-1.24-2.21-1.99-2.81,1.83.47,1.99,2.81Z"/><path class="cls-3" d="M4.79,8.23c.13-.63.39-.57.39-.57,2.16-.13,2.66-.51,2.66-.51-.38.38-1.97.21-1.97.21,0,0-.52-.13-.78,0-.66.53-1.31.37-1.31.37h0s.96,1.19,1.23,2.04c.3.93-.23-1.55-.23-1.55Z"/><path class="cls-5" d="M1.63,4.75s-.25,0-.51.13-.38,0-.38,0c0,0-.25.51-.13.89,0,0,.13-.38.25-.51,0-.13.63-.25.76-.51h0Z"/><path class="cls-2" d="M4.16,4.04s-.17-.4.05-.46,1.17,0,1.3.01-.23.47-.49.55c-.22.07-.32.07-.62,0-.11-.02-.25-.1-.25-.1Z"/><circle class="cls-4" cx="4.98" cy="3.82" r=".12"/><path class="cls-3" d="M15.04,7.31c-.04-.08-1.01-1.54-2.14-2.42-.98-.77,1.42.07,1.91,1.63s.22.79.22.79Z"/><path class="cls-3" d="M10.16,9.95c-.37-.46.32,2.27.38,2.45s-.44,1.32-.44,1.32c0,0,.26.07.52.07s.57-.03.57-.03c0,0,.02-.7-.1-1.12s-.26-.77-.5-1.31c-.14-.31-.23-1.14-.42-1.38Z"/><path class="cls-1" d="M8.47,10.93s.05,1.63,0,2.08c-.15,1.46-1.84,1.73-2.44,1.66s-1.19.27-1.34.42-.51.93-.51.93c0,0,.45.39.98.33s2.25-.15,2.47-.14.52,0,1.05-.17,1.9-3.26,1.85-3.59-.79-2.78-.79-2.78l-1.27,1.25Z"/><path class="cls-1" d="M12.15,15.59s.56-.48,1.61-.54,2.92,0,3.09-.15-.26-.89-.26-.89h5.05s1.01,1.11,1.12,1.37-.77.61-1.2.74c-.84.27-1.31.09-3.5.25-.91.07-3.02.13-3.16.13s-1.7-.11-2.09-.13-1.21-.29-.66-.78Z"/><path class="cls-3" d="M14.68,13.63c.25-.03,1.88.87,1.57.59-1.45-1.26-2.51-2.23-2.55-3.14-.05-1.21.89-2.15,1.79-2.64s1.74-.93,1.74-.93c0,0-1.87.59-2.84,1.44-1.03.9-1.24,2.27-1.04,2.74.38.91,1.08,1.96,1.33,1.93Z"/><path class="cls-3" d="M7.25,4.78c0,.15.54.3.82.95.39.9.95,2.13,1.49,2.93.16.24.46.72.66.93.48.49.89.88,1.06.99s.71.24.88.03c.05-.06-.21.03-.58-.12s-1.17-.93-1.45-1.39-1.38-2.6-1.54-2.88-.63-1.16-.69-1.38c-.09-.29-.63-.43-.64-.06Z"/><path class="cls-3" d="M8.4,13.36s.09-1.34.09-1.71.14-.98-.02-.72c-.2.33-.14.72-.18,1.3-.03.33-.23,1-.23,1l.34.12Z"/><path class="cls-3" d="M18.24,9.33s-.4.68-.23,1.39-.19,1.05.69,1.89c.78.75,2.93,1.39,2.93,1.39,0,0,.41-.75,0-1.36s-1.6-.65-.99-2.03,1.8-1.38.55-2.11-2.7-.13-2.96.83Z"/><path class="cls-3" d="M10.22,4.05s.33,1.1.61,1.6,1.01,1.59,1.15,1.87c.3.57.74,1.54.76,1.84s-.13.74-.33.98-.25.27-.25.27c0,0,.25-.11.46-.3s.36-.7.25-1.25c-.03-.15-.44-1-.91-1.8-.66-1.14-1.43-2.3-1.43-2.3l-.32-.9Z"/></svg>