<?xml version="1.0" encoding="UTF-8"?>
<svg id="Livello_1" data-name="Livello 1" xmlns="http://www.w3.org/2000/svg" version="1.1" viewBox="0 0 283.5 177.1">
  <defs>
    <style>
      .cls-1 {
        fill: #5b2a15;
      }

      .cls-1, .cls-2, .cls-3, .cls-4 {
        stroke-width: 0px;
      }

      .cls-2 {
        fill: #723b1f;
      }

      .cls-3 {
        fill: #6b331f;
      }

      .cls-4 {
        fill: #442115;
      }
    </style>
  </defs>
  <path class="cls-1" d="M206.8,79.2l-2.3,11.8-1.1,11.8-3.1,8.8.8,12.6,2.7,16.8,1.1,9.9,3,3.4,7.2,3.4,3.1,3.1v4.2l-9.2,1.5-12.2-.4-8.8-2.3-1.9-6.1-4.2-1.5-.8-4.2-2.3-1.1-.8-3.8s-.4-3.8-.8-5c-.4-1.1-6.5-18.7-6.5-18.7l8.4-29,15.3-21.7,12.2,6.5Z"/>
  <path class="cls-4" d="M184.2,122.5l-5.1,10.6-2,7.8c-1.4-4.2-6.1-17.5-6.1-17.5l8.4-29,14.8-21.1c.5,0,.9,0,1.4,0l11.2,6-2.3,11.8-1.1,11.8-3.1,8.8.8,12.6,1.5,9.2c-1.8-3.3-3.5-6.3-3.5-6.3l-6-7.7-8.9,3.1Z"/>
  <polygon class="cls-4" points="249.9 32.6 250.5 28.1 249.1 24.6 246.1 22.4 243.2 22.2 237.9 24.4 249.5 32.5 249.9 32.6"/>
  <polygon class="cls-4" points="78.4 107.4 72.6 123.8 66.5 134.8 61.6 144.3 62.3 150.8 69.6 155.4 74.9 158.8 76.8 163 71.5 164.9 65 164.9 57 164.9 46.7 161.5 43.7 150.1 49 127.6 63.5 102.4 78.4 107.4"/>
  <path class="cls-3" d="M280,65.1l-3.1-1.1-11.1-10.3-5.3-13-9.5-9.2-11.4-8.8-13.7-2.7-11.1,1.1-15.3-4.2-24.8-13.3-10.3.4-32.4,7.2-28.6,1.9-38.5-3-11.1,1.5-24.8,19.8L4,59.7l-.8,32.8,1.5,29,8.8,16.8,4.6,22.5,6.1,9.9,6.5,2.7h17.5c.8-1.5,9.9-.4,9.9-.4l4.2-.8-2.3-7.6-9.5-2.7-2.3-6.1.4-8,14.9-33.9,7.2-1.9,11.8,1.9,9.5-5.3,14.9,1.9,16.4,2.3,14.1-8v10.7l1.9,19.1,2.7,5-1.1,3,1.5,2.3,2.7,1.1,1.1,3.8,1.5,4.6-1.1,3.1,1.5,3.4,1.9,8.8,11.4,1.5,13,.8,8.8-2.7v-5l-4.6-3.4-6.1-2.3-3-5.3,2.3-13.7,6.5-30.9,12.6-19.1,5-7.6,12.6,1.1,3.8,8,9.2-1.1,13-4.6,7.2-6.1,9.5-.4,13.3.8,3.4-.4,1.9-2.7,5-1.5,5.7-6.1-.4-3.8Z"/>
  <path class="cls-1" d="M3.3,92.5l.8-32.8,25.2-28.2,24.8-19.8,11.1-1.5,38.5,3,28.6-1.9,32.4-7.2,10.3-.4,24.8,13.3,15.3,4.2,11.1-1.1,13.7,2.7,11.4,8.8,8,7.6-.7,5.3-8,3.4-3.8,3-3-2.7,2.3-8v-5l-10.7-1.5-8.8,2.3-12.6-4.2-15.6-3.4-8.4-5.7-6.1,1.5-5.3,3.8-4.2-5-4.2-6.1-11.4-4.6-10.7,3.8s-18.3,3.4-19.4,3.4-32,4.2-32,4.2l-11.4,13.7-9.5-1.5-17.2-5.3-11.8-2.3-14.9,9.9-10.3,16.4-2.3,17.2-.4,13.7,5.3,14.1.4,12.6-5,12.2-1.9,9.5,3.8,15.6,2.3,8,2.3,7.2-.7,6.1-.8-.3-6.1-9.9-4.6-22.5-8.8-16.8-1.5-29Z"/>
  <polygon class="cls-2" points="23.9 37.4 29.2 31.5 54 11.7 65 10.2 103.5 13.2 132.1 11.3 164.5 4.1 174.8 3.7 199.6 17 214.8 21.2 225.9 20.1 239.6 22.7 251 31.5 258 38.2 254.9 38 246.5 29.6 238.5 24.3 229.7 22.7 209.9 22.7 200 21.6 193.9 17 173.7 7.9 163.7 7.1 138.6 12.4 124.5 14.7 94.4 15.1 71.9 13.6 54.7 15.1 44 22 27.7 35.3 23.9 37.4"/>
  <polygon class="cls-1" points="187.7 88.8 187.7 79.9 188 67.9 188 60.5 194.5 57.6 206.8 63 214 69.9 220.8 64.5 229.7 58.8 237.4 54.2 233.7 60.2 237.7 68.8 245.1 67.3 252.3 64.5 259.4 57 263.5 47.7 265.9 53.6 267.3 54.9 258 71.6 253.1 78.9 251 78.8 241.5 79.2 234.3 85.3 221.3 89.8 212.2 91 208.3 83 195.8 81.8 190.8 89.4 186.8 95.5 187.7 88.8"/>
  <polygon class="cls-4" points="259 47.7 259.2 49 258.1 49.6 258.7 51.7 259 52.7 258.1 53 253.5 49.8 255 49 259 47.7"/>
  <polygon class="cls-2" points="243 79.1 246.1 72.7 250.7 69.2 257.1 63.5 261.7 56.3 264.5 50.1 265.9 53.6 277 63.9 280 65.1 280.4 68.9 274.7 75 269.7 76.5 267.8 79.2 264.4 79.5 251 78.8 243 79.1"/>
  <path class="cls-1" d="M246.8,37.6c0-.6-.8-4-.8-4l-5-4.2-4,.4-3.6,2.9-.6,5.3,1.1,3,3.4-.4,5-1.9,4.4-1.1Z"/>
  <path class="cls-4" d="M237.4,40.7l-3.4.4-1.1-3,.6-5.3,3.6-2.9,4-.4,5,4.2s.8,3.4.8,4l-.8.2-1.8-3.8-2.9-2.9h-3.6l-1.5,3.1,1,5.1.3,1.3Z"/>
  <polygon class="cls-1" points="276 65.4 277.3 64 280 65.1 280.4 68.9 278.1 71.3 277.2 69.6 277.3 67.5 275.8 67.1 276 65.4"/>
  <polygon class="cls-1" points="260.4 73.4 266.5 75.1 272.1 75.7 269.7 76.5 269.6 76.6 267.1 76.1 264.8 75.7 261.7 75.1 258.5 74.8 255.6 75 254.5 74.2 255.6 72.9 260.4 73.4"/>
  <polygon class="cls-1" points="92.1 108.5 82.5 113.8 70.7 111.9 63.5 113.8 54 135.4 53 132.2 52.7 118.5 53.6 105.9 57.6 88.5 56.4 73.3 59.3 71.6 65 76.8 87 85.6 105.9 89.4 122.2 86.8 131.9 80.2 144.8 69.6 148.8 71.1 148.2 77.3 152.2 87.9 158.8 93.9 167.9 99.6 173.1 109.9 175.4 122.1 171.7 139.4 169.5 153.1 172.5 158.4 178.6 160.7 183.2 164.2 183.2 169.1 174.4 171.8 161.5 171 150 169.5 148.1 160.7 146.6 157.3 147.7 154.2 146.2 149.7 145.1 145.9 142.4 144.7 140.9 142.4 142 139.4 139.3 134.4 137.4 115.4 137.4 104.7 123.3 112.7 106.9 110.4 92.1 108.5"/>
  <path class="cls-1" d="M46.4,168.3l1.8,5h-1.8l-1.2-3.3-3.4-2.9c.6-1.4,4.6,1.1,4.6,1.1Z"/>
  <path class="cls-1" d="M55.6,166.8l2.3,3.7-.2,2.3c-.4,0-1.1-.1-2-.2l-.4-3.3-3.4-2.9-2.6-.9c.3-1.1,6.3,1.1,6.3,1.1Z"/>
  <path class="cls-4" d="M68.2,104.8l2.3-7.4,8.3,1.4,21.4,2,13.7,1.4,16.3-2.6,10-4,3.7,8.3-1.4,7.1.3,15.4,2.9,12,5.1,8.9-1.7,8.6-1.8,3-.7-1.6,1.1-3.1-1.5-4.6-1.1-3.8-2.7-1.1-1.5-2.3,1.1-3-2.7-5-1.9-19.1v-10.7l-14.1,8-16.4-2.3-14.9-1.9-9.5,5.3-11.8-1.9-6.3,1.6c1.2-2.9,3.7-8.8,3.7-8.8Z"/>
  <polygon class="cls-4" points="154.9 170.2 150 169.5 148.6 163.1 152.5 165.1 154.9 170.2"/>
  <polygon class="cls-4" points="172.5 171.7 169.6 171.5 169.4 168.5 165.1 165.1 164.2 163.4 171.4 166.3 172.5 171.7"/>
  <path class="cls-4" d="M171.4,163.7c.3-1.1,6,1.1,6,1.1l2.3,2.6.7,2.6-1.8.5-.7-3.1-4.3-3.1-2.3-.6Z"/>
</svg>