<?xml version="1.0" encoding="UTF-8"?><svg id="Livello_1" xmlns="http://www.w3.org/2000/svg" viewBox="0 0 32.75 38.58"><defs><style>.cls-1{fill:#fff;stroke-width:0px;}</style></defs><path class="cls-1" d="M24.67,4.01c-.29-.14-1.15,0-1.15,0-5.31.86-7.6,7.17-7.6,7.17,0,0-1.15-1-1.15-2.01C13.91,3.15,11.33.86,11.33.86c0,0-2.15-1.72-2.01-.29-.43,6.45,3.87,11.04,3.87,11.04,0,0,.14.86-.29,2.15-.57,1.29-.14,3.01-.14,3.01-1.58.86-2.87.86-2.87.86C1.86,19.79,2.01,28.1,1.72,30.83c-.03.24-.02.48,0,.71-.14-.01-.28-.29-.42-.43,0-.29-.57.29-.43,2.15,0,0-.29,0-.43-.29-.14-.29-.14.29.29,1.15s-.72-.29-.72-.29c0,0,.57,3.3,3.73,3.3,0,0-.14-.29.14-.57s.14-.29,0-.57-1.82-1.45-2.11-4.02c.34,2.12,2.11,3.59,2.11,3.59,0,0,.72.43.43.72-.86,1,.57,1.58,1.86,1.86,1.29.43,3.87.43,5.31.43s1.15-.86,1.15-.86h.86c.14,1,1,.86,1,.86h1c1.86,0,2.01-.72,2.01-.72h.86c.14,0,.14-.14.14-.86,0-1.43-1.58-1.29-1.58-1.29-.14-2.44,0-5.16,1.72-8.46.63-1.15.89-2.52.98-3.78.18-1.22.23-2.81-.22-3.88-.03-.14-.04-.22-.04-.22,2.15-.14,2.44-.86,3.01-1.58.72-.72.29-1.72.29-1.72,0,0-.72-1.15-1-1.29s-.72-1.43-1.29-2.01c-.57-.43-2.29-1.15-2.29-1.15,0,0,3.59-1.72,4.88-4.16.43-.72,1.58-1.43,1.86-2.01s.14-1.29-.14-1.43Z"/><path class="cls-1" d="M31.53,30.16s0-.02-.01-.02l1.24.13c-.15-.15-.57-.14-.77-.16-.09,0-.38-.02-.48,0-.02-.02-.03-.05-.05-.07l1.28-.25c-.38-.03-.96.02-1.3.23-.02-.02-.03-.04-.05-.06l1.27-.52c-.29.03-.59.14-.86.26-.07.03-.19.08-.29.14-.03,0-.06-.02-.09-.03.02.01.05.02.08.03-.05.03-.1.07-.12.1-.02-.03-.04-.06-.05-.09l.03-.03s.07.02.1.02c-.02-.02-.05-.03-.07-.04h0s.02,0,.03,0c0,0-.02,0-.03-.01h.01s.02,0,.04,0c0,0-.02-.01-.03-.02l.57-.48c-.12.05-.5.28-.63.45,0,0-.02-.01-.03-.02,0,0,.01.01.02.02,0,0,0,0,0,0,0,0,0,0,0,0,0,0,0,0,0,0-.01-.01-.03-.02-.04-.04l.04-.04s0,0,0,0c0,0,0,0,0,0l1.34-1.13c-.5.18-1.11.62-1.36,1.11-.07-.08-.21-.25-.29-.28-.02-.03-.05-.05-.07-.07-.02-.06-.03-.13-.04-.19.01.06.02.12.03.18-.08-.08-.17-.16-.26-.21-.3-.19-.71-.43-.96-.49-.08-.02-.17-.04-.27-.06,0,0,0,0,0,0-.02,0-.03-.03-.04-.02-.02-.11-.08-.03-.02-.11-.04.05-.05-.03-.07-.08,0,0-.06-.04-.07-.09,0,0-.02-.02-.05,0,0,0-.03-.09-.03-.08-.01,0-.02.02-.03.03,0,0,0,0-.01-.01,0,0,0-.01,0,0,0,0,0,0-.01,0,0,0,0,0,0,0-.01-.02-.03-.06-.02-.07,0,.03-.03-.03-.02-.08,0,0,0,0-.02.02-.02.03-.02.03-.03.05,0,0,0-.02.01-.03,0,0-.02.01,0-.04-.02.02-.03.03-.05.03,0,0,0,0,0,0v-.08s-.02.02-.03.03t0-.05s-.02.03-.03.03c0-.02,0-.05.02-.07,0,.02-.03.03-.03.05v-.05s0,.02-.02.02c0,0,0-.02,0-.03-.02.02-.02-.03-.02-.03l-.02.03s-.02-.04-.02-.03c0,.01,0,.02-.01.03,0,0,0,0-.01,0,0,0,0-.01,0,0-.02,0-.02.02-.03.02s-.02.03-.02.03c0,.02-.03.08-.03.09q-.02.05-.03.11s.02-.02.04-.03c0,.02,0,.03,0,.05-.01.05-.02.08-.02.12,0-.03,0-.02.03-.04,0,.08-.02.13,0,.21,0-.02,0-.03.02-.04,0,.02,0,.05.01.07-.18-.04-.42-.1-.61-.04,0,0-.02,0-.03,0-.24-.13-.52-.14-.6-.12,0,0,0,0,0,0,0,0,0,0,0,0-.03,0-.05,0-.07,0,0,0,0,0,0,0h0c-.12.04-.19.15-.13.31,0,.02-.01.04-.02.06-.07.01-.12.02-.14,0-.01,0-.04-.01-.07-.03,0,0,0,0,0,0-.01,0-.02,0-.03,0-.23-.08-.77-.27-.98-.22-.2.04-.73.05-1.32.46-.01,0-.03,0-.04.01,0,0,.02,0,.02,0-.08.06-.16.12-.24.19,0,0-.02,0-.03,0h.02s-.02.02-.03.03c-.14.04-.28.09-.42.13.07,0,.15.02.23.02-.12.07-.28.08-.42.13h.24c-.24.05-.44.18-.61.29.16,0,.33-.02.49-.04-.01.02-.03.03-.04.05-.22.07-.43.11-.59.27.14,0,.29,0,.42-.04,0,0-.01.02-.02.03-.23.11-.42.26-.58.42.13-.03.27-.06.38-.12-.25.15-.49.39-.59.61.09-.02.2-.06.29-.12-.11.15-.2.31-.21.47-.02.02-.03.05-.03.07,0-.01.02-.02.03-.03,0,.02,0,.03,0,.05.02-.01.05-.03.07-.04-.05.08-.12.15-.14.25.03-.03.08-.03.11-.05,0,.1-.08.18-.08.28.03,0,.05,0,.08-.03,0,.01,0,.03,0,.05-.01.01-.03.03-.04.04,0,.12-.07.23-.08.35.02-.02.04-.03.05-.05-.02.06-.02.13,0,.18,0,0,.01-.02.02-.02-.01.04-.02.08-.02.12-.03,0-.08.02-.08.02-.1,0-.21.01-.36,0-.08-.01-.1-.01-.1-.01,0,0,0,0,0,0-.12,0-.27-.03-.42-.06-.82-.15-1.37-.36-1.44-.54-.07-.18-.03-.38.24-.68.26-.29.86-.71,1.09-1.21s.08-1.17-.1-1.47c-.18-.3-.51-.54-.39-.35s.23.8.31,1.05c.08.25-.03.62-.18.9-.16.28-.9.63-1.11.9-.2.26-.42.64-.24.96s.51.59.87.67c.1.02.19.05.27.08,0,0-.01,0-.01,0,0,0,.44.18.98.28.39.07.64.09.74.1.02.1.01.22.04.32.01-.02.02-.04.03-.06,0,.06.03.11.06.15,0,0,0-.01,0-.02,0,.05.02.1.03.15.01-.01.02-.03.04-.04,0,.02,0,.04.01.05,0,.03,0,.05.01.07,0,0,0,0,0,0,0,.03.02.05.03.08,0,.04,0,.09,0,.13.02-.02.03-.03.05-.04,0,0,0,.01,0,.02-.02.05-.05.09-.06.13.03-.03.08-.03.12-.05-.03.04-.08.08-.12.11.05-.02.11-.04.16-.05-.04.03-.09.06-.13.08.06-.03.12-.05.17-.08,0,0,0,0,0,0,0,0-.02.02-.02.03.01,0,.02-.02.04-.02.05.03.1.05.16.07.01,0,.02,0,.03.01,0,0,0,.02,0,.02,0,0,.02-.02.02-.02,0,.03.02.06.02.08.02,0,.04,0,.06-.02-.03.05-.05.1-.06.16,0,0,0,0,0,.01,0,0,0,.01,0,.02,0,.03-.01.07-.02.1,0,.04,0,.06,0,.09.01.11.09.16.19.23.06.04.13.09.21.14.23.17.45.31.66.41.13.07.49.15.7.15s.39-.07.55-.12c.1-.03.21,0,.31-.1,0,0,.01-.01.02-.02.06.03.1.06.08,0,0-.02-.02-.03-.04-.05.02-.02.03-.05.04-.07,0,0,.01,0,.02,0,.11,0,.25.06.16-.02-.06-.04-.12-.07-.18-.08-.05-.09-.25-.11-.42-.11-.11,0-.3.03-.62-.03-.24-.05-.41-.11-.58-.2,0,0,0,0,0,0,0,0-.09-.05-.18-.1-.04-.03-.08-.06-.1-.1,0-.01,0-.02-.02-.04-.02-.05-.02-.1-.02-.15,0-.01,0-.02,0-.03.02.02.05.03.07.05,0-.03-.02-.07-.03-.09.06.06.16.11.24.14,0,.06.01.11.02.17,0-.05,0-.11,0-.16,0,0,0,0,0,0,0,0,0,0,0,0,0,0,0,0,0-.01,0,0,0,0,.01,0,0,.01,0,.02,0,.03v-.03s.04.02.06.03c0,0,0,.01,0,.02,0,0,0-.01,0-.02.01,0,.02.01.04.02-.01,0-.02-.02-.04-.02,0-.06-.02-.12-.03-.17.02.02.04.03.06.05,0-.01,0-.02-.01-.04.04.02.09.06.11.11,0-.03-.02-.06-.02-.09.02.01.05.04.07.06-.02-.04-.03-.08-.04-.12.04.03.12.06.17.09-.03-.06-.05-.14-.03-.18.03.03.05.04.08.06,0-.02,0-.03,0-.05.03,0,.05.02.08.04,0,.03.01.05.02.08,0-.02-.01-.05-.02-.07.01.01.03.03.04.04.02-.02.04-.05.04-.08h.02s.03-.04.04-.05c0,0,0,0,0,0,0,0,0,0,0,0,0,0,.02,0,.02,0,.01,0,.02-.01.03-.04,0,.02.02.04.03.06,0-.02,0-.05-.02-.07,0,0,0-.01,0-.02,0-.02,0-.04,0-.05,0,0-.02.02-.02.02,0,0,0,0,0-.01,0-.02-.02-.04-.02-.06.02.01.05.04.09.07-.03-.05-.05-.1-.07-.16.02.01.04.02.06.04,0,0,0,.01,0,.02,0,.02,0,.04.02.05,0,0,0-.02,0-.02,0,.03.03.05.03.08,0,0,.03-.02.05-.03,0,0,0,0,.01,0,0,.04,0,.08,0,.1,0,0,0,0,0,0,0,0,0,0,0,0,0,.02.01.05.03.07-.02-.04-.09-.11-.15-.16.03.07.08.12.15.17.07.09.23.19.25.2.02.02.18.13.27.18.08.05.09.03.21.05.05,0,.19,0,.33,0,.35,0,.75-.05.83-.06.06,0,.14,0,.25,0,.05,0,.1,0,.17,0,.04.05.07.1.07.05,0-.02,0-.03,0-.05.05,0,.11,0,.18-.01.05,0,.1,0,.15-.01.07,0,.12-.01.17-.02.02,0,.05,0,.08-.02.05.05.08.11.07.04,0-.02-.01-.04-.02-.06.02,0,.03-.02.04-.03.01-.02.02-.03.03-.05.06.05.11.12.1.06,0-.05-.04-.1-.09-.14,0-.01,0-.02,0-.02,0,0,0,0-.02-.01,0-.01,0-.02-.01-.04.08.02.15.05.09,0-.06-.05-.12-.08-.19-.08-.13-.07-.33-.09-.45-.07-.14.01-.79,0-1.25-.03-.07,0-.27-.03-.39-.04-.03,0-.05-.01-.07-.02,0,0-.02,0-.02-.01,0,0,0,0,0,0-.02-.03-.03-.06-.05-.08.08.04.2.08.28.09-.03-.03-.07-.04-.1-.06.02,0,.04.02.06.02-.03-.01-.05-.03-.07-.06-.07-.05-.14-.14-.16-.21.05.04.12.09.17.14-.04-.04-.12-.17-.16-.25.02,0,.04,0,.05,0-.01-.01-.03-.03-.04-.04,0,0,0,0,0,0,.05,0,.11,0,.16-.02,0,0,0,0,0,0,.05.01.1.01.14,0-.01-.02-.03-.05-.04-.07,0,0,0,0,.01,0,.04.02.08.04.11.04.02.01.04.02.06.04-.01-.01-.03-.03-.04-.04,0,0,0,0,0,0,0-.02-.03-.04-.03-.06.08.03.16.07.23.08-.01-.02-.02-.04-.03-.05.04.02.07.04.09.06-.01-.02-.03-.03-.04-.04.03.02.06.05.08.07-.02-.04,0-.09,0-.13.03.04.05.09.08.14v-.17s.02.05.02.08c0-.05-.01-.1-.02-.15l-.05-.08s.04,0,.06-.01c0,0,0,0,0,0-.03,0-.02.05.01.09.01.02.03.04.05.05v-.03s.05.03.08.05c0-.02.03-.04.03-.06.04,0,.08.02.12,0,.03-.02,0-.04.04-.06,0,0,0-.03,0-.03.13-.03.16-.11.3-.09,0,0,0-.03,0-.04h.08l-.03-.03s.07-.02.1,0c-.01-.02-.02-.05-.03-.08,0,0,.01,0,.02,0,.03,0,.05.01.07.03-.02-.01-.03-.02-.05-.04.03-.01.06-.03.09-.04.02,0,.03,0,.05,0,0,0-.01,0-.02-.01.03-.01.05-.03.08-.04,0,0,.01,0,.02.01,0,0,0-.02.02-.03.05-.01.09-.02.13-.04,0,0,0,0,0,0,0,0,0-.01,0-.02.03,0,.07-.01.1-.02.03.05.07.1.1.13.06.05.15.1.18.1,0,0,.01,0,.01,0,.03.01.07.02.09.03.13.02.21.22.41.22.06,0,.08-.02.07-.06,0,0,0,0,0,0,.12.02.18.24.18.14s-.14-.32-.24-.26c-.02-.04-.04-.07-.01-.08.07-.03.19.18.34.14.03,0,.05-.02.06-.03.09.06.14.21.14.12,0-.05-.04-.12-.09-.18,0-.02,0-.03,0-.05,0,0,0,0,0,0,.11-.03.25.18.22.08-.03-.08-.13-.15-.24-.17,0-.02.01-.04.01-.07.1-.03.26.12.21.04-.03-.06-.17-.13-.26-.13-.1-.09-.48-.24-.66-.25l-.08-.02s-.06-.02-.09-.04c.03,0,.05-.01.08-.02-.03,0-.06-.03-.08-.04.08,0,.21-.04.28-.08-.03,0-.07,0-.11,0,0,0,.01,0,.02,0-.03,0-.05,0-.08-.02-.03,0-.05,0-.08-.01.01-.01.02-.03.03-.04,0,0,.02,0,.02,0,0,0-.01,0-.02,0,.01-.01.02-.03.03-.04.03,0,.06,0,.09,0-.02,0-.05-.01-.08-.02.03-.03.05-.06.08-.09.03,0,.06-.01.09-.01,0-.02,0-.05,0-.07.14-.04.23-.06.34,0-.08-.04-.17-.08-.24-.13.03,0,.04-.02.06-.02h.05c.13,0,.27.04.35.08-.04.09-.06.18-.06.26l.52-.86s.02,0,.03,0c0,0-.01-.01-.02-.02l.02-.03s.02,0,.03,0v-.02h.06s-.04-.02-.06-.03c.04,0,.08-.02.12-.02,0,0,0,0,0,0-.08.17-.15.35-.17.52l.24-.53s0,0,.01,0c0,0,0,0,.01,0,.06-.01.12-.02.18-.03l-.08.24.02-.07c-.03.08-.05.16-.08.24l-.04.12s.02-.06.03-.09c0,.03-.02.06-.03.09l.05-.15c.04-.12.08-.25.13-.38.08-.01.15-.02.22-.03l-.06.84c0-.07.02-.13.04-.2.04-.2.08-.39.08-.59,0-.02,0-.04,0-.06.05,0,.1-.02.14-.03l.11.79c.04-.23.02-.53-.04-.81.11-.03.16-.07.2-.13l.27.6c-.03-.21-.14-.44-.26-.62.02-.04.04-.09.07-.15,0,0,.01-.02.02-.03,0,0,0,0,0,0,0,0,0-.01.01-.02.02,0,.05-.03.09-.11.07-.12.05-.22.05-.22h0c.02-.06,0-.12-.04-.19l1,.19c-.31-.12-.67-.18-1.01-.2ZM26.61,33.81s-.04-.02-.06-.03c.02.01.04.02.06.03ZM30.01,31.33s-.06-.03-.09-.03h.06s.04,0,.05,0c0,.01-.01.02-.02.03,0,0,0,0,0,0ZM29.67,31.42s-.01,0-.02-.01c0,0,.02,0,.03,0,0,0,0,.01-.01.02ZM24.79,34.26s.02.02.03.02c0,0,0,.01,0,.02-.01,0-.03-.02-.04-.03,0,0,0,0,0,0,0,0,0,0,0-.01ZM24.78,34.22s-.02-.05-.04-.08c0,0,.01,0,.02,0,0,0,.01.02.02.02,0,0,0-.01,0-.02.03.04.05.08.06.12-.01-.02-.03-.03-.05-.05ZM25.39,33.84s0,0,.01,0c.02.01.03.03.05.05-.02,0-.03-.02-.05-.02,0,0,0-.01,0-.02ZM25.43,33.83s.04.03.06.04c0,0-.02,0-.03.01,0,0,0,0,0,0,0-.02-.02-.03-.03-.06ZM25.67,33.68s0,.02,0,.03c0,0,0-.01,0-.02,0,0,0,0,.01,0ZM29.51,31.51s.02-.02.03-.03c0,0,.02,0,.03,0h0s0-.02,0-.02c.02,0,.05,0,.07,0-.03.05-.06.1-.08.15-.02-.01-.05-.03-.07-.04,0,0,.02,0,.03-.02,0,0-.01-.02-.02-.03ZM30.04,31.24s.01,0,.02,0c0,0,0,0,0,.01,0,0-.01,0-.01-.01ZM31.32,29.85s0-.01,0-.02h0s0-.01,0-.01c0,.01,0,.02,0,.03ZM31.18,29.55s.09.08.14.12c0,.02-.02.03-.02.05-.01-.01-.02-.02-.03-.03-.02-.03-.04-.06-.06-.09,0-.02-.02-.03-.02-.04ZM23.26,33.18s0-.02,0-.03c0,0,0,0,0,0,0,0,0,.01,0,.02ZM24.83,34.32s-.03-.03-.05-.05c0,0,0,0,0,0,.01.01.03.03.05.04,0,0,0,0,0,0ZM24.85,34.31s0-.05-.01-.07c0,.02.01.05.02.07,0,0,0,0,0,0ZM24.92,34.36s-.04-.02-.06-.04v-.12c.02.05.04.1.06.16ZM25.28,33.91s0,0,.01,0c0,0,0,0,0,0,0,0,0,0-.01,0ZM27.02,33.3s.02.02.02.02c0,0-.01-.01-.02-.02,0,0,0,0,0,0ZM27.27,33.19s0,.02.01.03c0-.01-.01-.02-.01-.03ZM28.41,32.71s0-.02.03-.03v-.03s.02-.01.04-.02c0,.01.02.03.04.06-.03,0-.07.01-.1.02ZM29.47,31.7s-.03-.03-.05-.04c.03,0,.05-.02.08-.03.02,0,.04,0,.06,0,0,0-.01.02-.01.03l.02-.03c.05,0,.1.02.15.04-.03-.02-.08-.04-.12-.07l.12-.15s.02,0,.04,0c0,0-.02,0-.03-.01l.04-.05s.06,0,.08,0c0,0-.02-.02-.03-.03.03-.02.08-.02.12,0-.03,0-.08-.03-.09-.05.06-.01.12,0,.17.01-.1.15-.21.34-.28.51-.08-.06-.18-.09-.26-.14ZM30.36,31.14s0,0,0,0h0s0,0,0,0Z"/><path class="cls-1" d="M29.06,28.04s0,0,0,0c0,0,0,0,0,0Z"/><path class="cls-1" d="M28.93,27.87s0,0,0,0c0,0,0,0,0,0Z"/><path class="cls-1" d="M29.27,32.16c-.07,0-.13.03-.2.05.06,0,.13-.03.2-.05Z"/><path class="cls-1" d="M29.11,32.18h-.13s0,0,.01,0c.04,0,.08,0,.11,0Z"/><path class="cls-1" d="M29.99,31.31s-.02,0-.02-.02c0,.02,0,.02.02.02Z"/><path class="cls-1" d="M26.62,33.77s.01.01.02.02c.03.02.06.04.09.04-.03-.03-.08-.05-.11-.07Z"/><path class="cls-1" d="M26.7,33.85c.05.02.11.04.16.05-.05-.02-.11-.04-.16-.05Z"/><path class="cls-1" d="M30.78,31.95v-.05s0,.02,0,.02c0,.03-.02.05,0,.03Z"/><path class="cls-1" d="M30.77,31.95v-.03s-.02.05,0,.03Z"/><path class="cls-1" d="M27.28,33.39s0,.05.01.07c0-.02,0-.05-.01-.07Z"/><path class="cls-1" d="M25.24,34.43s-.07-.09-.13-.14c.02.06.06.1.13.14Z"/><path class="cls-1" d="M25.25,34.26s.03.05.05.06c0-.02-.02-.04-.05-.06Z"/><path class="cls-1" d="M24.96,34.25s.04.08.06.12c0-.04-.03-.09-.06-.12Z"/><path class="cls-1" d="M25.06,34.32s.01.05.02.07c0-.02,0-.05-.02-.07Z"/></svg>