<?xml version="1.0" encoding="UTF-8"?><svg id="Livello_1" xmlns="http://www.w3.org/2000/svg" viewBox="0 0 23.67 27.21"><defs><style>.cls-1{fill:#555d6c;}.cls-1,.cls-2,.cls-3,.cls-4,.cls-5,.cls-6,.cls-7,.cls-8,.cls-9,.cls-10,.cls-11,.cls-12,.cls-13,.cls-14,.cls-15,.cls-16,.cls-17,.cls-18,.cls-19,.cls-20,.cls-21,.cls-22,.cls-23,.cls-24,.cls-25{stroke-width:0px;}.cls-2{fill:#c9c9c9;}.cls-3{fill:#bcbebd;}.cls-4{fill:#4c4c4a;}.cls-5{fill:#efd2c1;}.cls-6{fill:#9a9b9c;}.cls-7{fill:#4a5160;}.cls-8{fill:#181512;}.cls-9{fill:#5c6374;}.cls-10{fill:#3c2d28;}.cls-11{fill:#8d645e;}.cls-12{fill:#c6c9ca;}.cls-13{fill:#bfbfbd;}.cls-14{fill:#9a938a;}.cls-15{fill:#30241d;}.cls-16{fill:#75777c;}.cls-17{fill:#bbbabc;}.cls-18{fill:#929599;}.cls-19{fill:#aba6a1;}.cls-20{fill:#fff;}.cls-21{fill:#45495a;}.cls-22{fill:#9c6f68;}.cls-23{fill:#e4c2af;}.cls-24{fill:#ac6667;}.cls-25{fill:#c29e8d;}</style></defs><path class="cls-20" d="M16.94,27.21c-.69,0-1.42-.05-1.98-.13-1.14-.17-2.07-.43-2.23-.48,0,0,.01,0,.02,0,0,0-.05-.01-.05-.01,0,0,0,0,.02,0-1.72-.31-3.81-.63-4.63-.64-.71-.01-1.11-.08-1.37-.13-.12-.02-.2-.03-.25-.03-.02,0-.04,0-.05,0l-.89.18.09-.38c-.18.03-.38.06-.58.09-.89.12-2.88.24-3.78.24-.13,0-.24,0-.32,0-.42-.02-.71-.19-.85-.48-.22-.47.1-.91.39-1.3.32-.44.74-.68,1.26-.99.19-.11.39-.23.62-.37.46-.29.98-.46,1.49-.62.46-.15.89-.29,1.15-.48.39-.3.71-.49,1.09-.49.17,0,.32.04.46.07.05.01.11.03.17.04.23.05.48.07.67.08.05-.04.11-.08.17-.1-.08-.47.06-1,.25-1.74.08-.32.18-.68.27-1.1.25-1.14.86-1.63,1.26-1.94.1-.08.26-.21.28-.26.06-.19-.21-.89-.33-1.22-.11-.3-.22-.58-.28-.83-.15-.66-.06-1.71-.02-2.04-.07-.37-.3-1.77-.3-2.78,0-1.53,1.08-2.22,1.8-2.69.04-.02.07-.04.1-.07.01-.11.04-.23.11-.34.09-.16.27-.37.64-.44.04,0,.12-.05.2-.08-.29-.35-.32-.84-.05-1.32.28-.46.24-.7.19-1.02-.07-.43-.17-1.01.57-1.69.08-.07.16-.22.23-.37.17-.34.41-.8.96-.99.13-.05.2-.09.27-.14.13-.09.32-.22.64-.22.11,0,.24.02.39.05.11.03.21.04.32.04.07,0,.14,0,.21,0,.08,0,.16,0,.24,0,.19,0,.35.02.52.07.13.04.23.09.32.15.33.08.49.3.58.41.06.08.07.09.1.11.41.18.55.54.64.75.06.14.08.18.12.21.63.4.71,1.11.72,1.19.03.19.07.25.07.25.01,0,.03.02.04.03.29.2.49.44.54,1,.03.46-.1.87-.38,1.16,0,.09.01.17.01.24,0,.03,0,.06,0,.09.1-.01.2-.02.3-.02.06,0,.11,0,.17,0h.02c.08,0,.17.02.26.05.04,0,.08.02.12.03l.05.02h.04s.06.04.07.04l.1.03h0s.11.11.11.11c.43.42.42.79.35,1.02v.02c.1.07.22.16.34.28.13.14.21.3.24.48.33.39.67,1.03.74,2.04.03.48.05.88.06,1.21.26.16.44.45.46.77,0,.14-.02.28-.08.4.06.12.11.26.12.41.02.11.01.24-.03.37.05.22.01.43-.08.61.03.14.03.29-.01.44-.1.4-.33.56-.52.63,0,.25-.01.54-.02.86,0,.56-.06,1.03-.19,1.41v.04l-.03.06c-.1.46-.3.78-.52,1,.07.02.15.03.22.05.79.19,1.41.62,1.79,1.24.27.45.38.93.39,1.36h.05l-.07.42c0,.08-.02.15-.04.22v.05c-.24,1.36-1.54,2.13-2.46,2.51.26,1.05-.06,2.29-1.16,2.9-.44.28-1.33.43-2.59.43h0Z"/><path class="cls-25" d="M12.8,4.8s-.28-.07-.07.27.34.59.31.76.18.1.25-.05-.23-1.17-.23-1.17l-.25.19Z"/><path class="cls-12" d="M7.67,21.97s-.58,0-1.09-.11-.59-.23-1.24.27-1.85.61-2.68,1.13-1.38.75-1.71,1.19-.63.84,0,.87,3.04-.09,3.99-.23,1.58-.31,2.28-.29,3.04-.95,3.04-.95c0,0-1.51-1.78-2.6-1.89Z"/><path class="cls-3" d="M6.58,21.86s.4.34-.29.49-.41.83,0,.93-.21-.22,0-.49.82-.23,1.12-.4.59-.36.59-.36c0,0-.05-.18-.73-.18h-.68Z"/><path class="cls-1" d="M19.76,23.59s2.53-.64,2.81-2.31c0,0-4.23-.04-5.42.87s-1.28.95-1.28.95l3.89.49Z"/><path class="cls-7" d="M12.88,26.03s.97.29,2.17.47,3.49.22,4.21-.23,1.08-1.2.92-2.09-.77-1.51-1.67-1.58-1.04-.59-3.65-.09-4.35,1.65-5.27,2.09-.6.47-.1.63,3.39.81,3.39.81Z"/><path class="cls-21" d="M6.29,25.22s.11-.45.77-.49,3.13-1.04,3.2-1.08,2.18-.25,2.36.31-2.27.61-2.84.88.35.61,1.41.17,1.74-.12,1.68.09-.34.64,0,.93c0,0-3.54-.65-4.78-.67s-1.43-.22-1.81-.14Z"/><path class="cls-9" d="M8.17,21.72s-.53,0-.5.24.46,1.08,1.11,1.21.59.43,1,.78,1.05,1.46,1.42,1.05,1.19-1.89,2.73-2.05,2.53-.67,3.5-.59,1.61-.38,2.55-.24,1.88.07,2.37-.4.57-2.61-1.44-3.08-2.54-.78-3.79-.89-4.6-.84-5.38-.3-2.25,2.72-2.25,2.72l-1.32,1.54Z"/><path class="cls-19" d="M9.55,12.12s-.15,1.26,0,1.92.8,1.82.6,2.39-1.2.65-1.52,2.13-.67,2.29-.46,2.8c0,0,.19-.49.67-1.35s1.81-2.48,3.3-2.54,2.47.24,3.18.3,2.51.17,2.94.26.61.14.61.14l-.61-1.91-2.57-2.22-6.15-1.92Z"/><path class="cls-13" d="M15.5,15.43s.77.52,1.14.83,1,.58,1.72,1.02,1.11.92,1.51.7,1.2-.57.86-2.46-2.91-1.95-2.91-1.95l-2.32,1.86Z"/><path class="cls-19" d="M17.84,14.99c.05-.02.75-.07,1.04-.2s.47-.38.91-.35.73.62.73.62c0,0-.1-.56-.31-.76s.15-.41.31-.39.48.28.48.28l.04-.79s-1.3-.19-1.8.16-1.4,1.42-1.4,1.42Z"/><path class="cls-13" d="M20.1,7.85s.87.4.97,2.01.07,2.16.07,2.16c0,0-.18,2.43-.18,3.49s-.24,1.47-.34,1.62.49-1.04-.14-1.82-1.12-1.19-1.12-1.19l-.55-2.67s.09-.85.39-1.44.16-1.3.16-1.3l.74-.86Z"/><path class="cls-14" d="M11.38,8.31l1.84,4.27s1.47.62,2.79.5,2.12-1.08,2.12-1.08c0,0,.16,1.09.15.27s-.38.14,0,0,1.02-.47.83,0-.28-.74,0,0,.64-1.43.8-1.56-.69.18-.85.28.08-.76.52-1.06.7-1,.7-1c0,0-.35.55-.7.78s.21-.77.41-1.07-1.92-.69-1.92-.69l-6.7.36Z"/><path class="cls-14" d="M18.12,12s.16-.09.4-.25.42-.41,1.05-.26.27,1.37.19,1.65.6-.44.6-.44c0,0,.55.48-.09,1.13s-.49.24-1.17.63-.98-2.47-.98-2.47Z"/><path class="cls-2" d="M20.4,13.63s.29-.23.14-1.15-.86-1.53-1.44-1.24-.58.51-.58.51c0,0,.4-.44.96,0s-.22,1.67-.22,1.67c0,0,.52-1.02.14-1.44s-.83-.14-1.49.09-1.09.29-1.09.29c0,0-2.74.43-3.39.12s-1.46.4-1.62,1.09-.34,2.17,1.62,2.08,2.15.05,3.01-.2,1.24-.45,1.82-.56,1.94-1.22,2-1.62.24.15.12.36Z"/><path class="cls-14" d="M11.66,8.4s-.7-.45-1.35-.25-.86.92-.83,1.6.07,2.37.07,2.37c0,0,.47.61.86,1.26s1.21,2.18,1.74,2.27,1.3,0,1.3,0c0,0-.86.02-.85-.34s.04-.69-.16-1,.19-1.32.7-1.5-.39-.2-.83.38-.16-.59.92-.6-.64-.63-1.07-2.2-.24-1.86-.48-1.98Z"/><path class="cls-2" d="M11.66,8.4s.88,1.83,1.08,2.4.96,1.61,1.18,1.76l-.27.08s-1.11-.3-1.68.64,0-.59.33-.75-.62.13-.82.65-.09-.7.13-1.24-.21-2.3-.08-2.77.13-.76.13-.76Z"/><path class="cls-16" d="M15.28,11.25s.9.82,1.17.87,1.07,0,1.47-.43.63-1.39.6-1.75.59-.09,1.05-.74.98-1.17.68-1.49-.68-.37-.59-.61-4.92,1.81-4.92,1.81c0,0-1.08.54-1.09.87s1.63,1.47,1.63,1.47Z"/><path class="cls-16" d="M17.26,4.99s.9-.04.9.47-.05.75.62.97-2.14,1.02-2.82.96,1.3-2.4,1.3-2.4Z"/><path class="cls-16" d="M11.29,6.81s-.49.35-.9.62-1.15.83-1.15,1.93.31,2.76.31,2.76c0,0,.2-.78.16-1.27s-.23-2.57.78-2.54,2,.76,2.54,1.36,1.54.7,1.54.7c0,0-.84-.07-.86-1.19s-1.74-3.01-2.41-2.39Z"/><path class="cls-18" d="M19.76,6.86s-.25.72-.58.9-.19.53-.66.98-2.61.87-3.58.44-.77-1.5-.77-1.5c0,0,1.79.03,2.75-.46s2.79-1.02,2.84-.37Z"/><path class="cls-5" d="M15.21,1.78s.38-.06.77.05.8.43,1,.85.23.9.33,1.14.14.71.08,1.16,0,1.19-.31,1.66-.48.63-.89.74-.84-.91-.84-.91c0,0-.87-3.69-.87-3.71s-.02-.84.72-.98Z"/><path class="cls-23" d="M15.21,1.78s-.87.14-1.24.63-.43,1.02-.66,1.42-.37.99-.22,1.43.47,1.2.67,1.41,1.02.49,1.28.66,1.18.12,1.31,0-.04-.7-.34-.75-.02-.14.25-.15.25-.19.04-.23-.02-.06-.4-.05-.35-.65-.1-.66.28,0,.31-.1-.17-.16-.12-.31.13-.31,0-.41-.21-.53-.22-.75-.02-.67-.05-.83-.25-.2-.38-.17-.62-.43-.54-.65.42-.49.42-.49Z"/><path class="cls-10" d="M13.94,3.68s.32-.35.55-.44.59-.1.72-.14.12.12.11.2-.28.1-.48.12-.39,0-.55.07-.46.31-.36.2Z"/><path class="cls-10" d="M16.09,3.03s-.09.02-.08.15.11.13.26.12.46-.1.62,0,.2.14.22.19.02-.09-.17-.23-.23-.17-.54-.23c0,0-.25-.04-.31,0Z"/><path class="cls-25" d="M15.4,3.23s.08-.23-.07-.38.08-.01.11.05.08.12.07.22-.08.2-.13.18c-.02,0,.02-.08.02-.08Z"/><path class="cls-10" d="M15.52,5.06s.05-.13.16-.15.13.06.08.09-.14.02-.19.05-.1,0-.05,0Z"/><path class="cls-10" d="M16.22,4.89s-.08-.02-.09.05.09.07.13.1.06-.02.04-.08-.07-.07-.07-.07Z"/><path class="cls-10" d="M15.15,5.8s-.11,0-.14.08.04.07.14.02.21-.13.49-.18-.49.08-.49.08Z"/><path class="cls-10" d="M16.6,5.71s.04-.02.07,0,.01.04,0,.04-.03-.02-.06,0,0-.02,0-.03Z"/><path class="cls-22" d="M16.61,5.71s-.28-.03-.48,0-.31-.03-.52,0-.5.22-.5.22c0,0,.2.06.37.08s.54.08.74,0,.3-.14.34-.22.11-.07.05-.08Z"/><path class="cls-11" d="M15.15,5.8s.38-.22.49-.29.16-.02.33-.04.2-.02.4.1.33.11.23.13-.27,0-.43.03-.37-.03-.53-.01-.36.09-.49.08Z"/><path class="cls-15" d="M16,1.91s.53.17.75.54.35,1.02.47,1.24.19,1.1.17,1.3.19.09.32-.09.15.07,0,.26-.29.22-.29.22c0,0,.47-.14.39-.59s.25-.94-.08-1.27.21.07.34.37.4.14.35.66-.56.72-.56.72c0,0,.71-.14.65-.96s-.5-.29-.65-1.27c0,0-.04-.49-.45-.76s-.29-.74-.68-.92-.31-.55-.78-.49-.8,1.04-.8,1.04c0,0,.23-.04.36-.1s.13.1.49.13Z"/><path class="cls-8" d="M14.94,1.91s-.79.22-1.02.78-.33,1.28-.53,1.56-.23,1-.14,1.26-.21-.07-.3-.31-.11-.58-.4-.52-.34.61-.06,1.05.62.54.62.54c0,0-.58.03-.87-.89s.34-1.05.34-1.05c0,0-.42.03-.62.57s.36.8.67.81c0,0-1.11-.18-.65-1s.26-1.24.22-1.62.04-.6.41-.94.44-1.05.99-1.24.43-.41.97-.29.85-.04,1.26.08.2.6.18.86-.54.32-.54.32c0,0,.31-.13.32-.43s-.04.4-.84.46Z"/><path class="cls-25" d="M15.21,4.91s-.07.15.07.25.34-.02.45-.04.23,0,.23,0c0,0,.02.08.05.12s-.07-.09-.33-.04-.57.13-.46-.28Z"/><path class="cls-23" d="M15.96,5.11s.12.01.2.05.27.06.35-.05,0-.2,0-.2c0,0,.11.15.01.26s-.29.07-.37.07-.09.02-.15,0-.05-.12-.05-.12Z"/><path class="cls-4" d="M11.16,6.83s-.12-.35.27-.43,1.02-.64,1.29-.13,1.28.9,1.46,1.41.66.43.77.98.85.62,1.18,1.17-1.63.38-2.03-.12-.17.57.47.66c0,0-.65.07-1-.77s-1.23-1.71-1.6-2.1-.71-.34-.81-.67Z"/><path class="cls-16" d="M12.59,6.18s.36-.2.44-.35.3.06.51.45.46.51.76.63.9.49,1.4.48,1.14-.11,1.68-.46,1.47-.88,2.19-.53c0,0-.45-.34-1.69.34s-1.89,1.43-2.88,1.41-.69-.49-1.48-.95-.93-1.02-.93-1.02Z"/><path class="cls-6" d="M14.4,8.02s.54.5,1.68.2,2.12-1.16,2.85-1.13,1.14-.22.65-.7c0,0-.54-.54-2.65.83s-3.28-.07-3.28-.07c0,0,.41.67.75.86Z"/><path class="cls-4" d="M14.74,8.63s.35.54,1.51.38,1.67-.61,1.67-.61c0,0-.75,1.15-2.69.84s-.94-1.05-.5-.61Z"/><path class="cls-4" d="M15.81,9.5s.54.2.77.45,1.69-.23,1.69-.23c0,0-1.04.64-1.59.48s-.87-.04-.87-.04v-.67Z"/><path class="cls-4" d="M14.57,10.38s1.19.02,1.65,0-.43.38-1.11.29.51.56,1.24.52,1.2-.29,1.2-.29c0,0-1.05.63-2.02.41s-2.07-1.31-2.07-1.31c0,0,.49.27,1.12.37Z"/><path class="cls-23" d="M10.15,10.23s-.15-.01-.09-.15.2-.43.28-.58.44-.3.63-.4.29.01.73.09.59.06.85.21,1.02.51,1.28.78.77.74.77.74c0,0-.59.87-.63,1.07s-.55,0-1.13-.47-.9-.5-1.05-.49-.38-.09-.57.03-.36.18-.45.29-.13.13-.28.09-.07-.15-.07-.15c0,0-.03.14-.23.06s-.03-.33-.03-.33c0,0-.16,0-.14-.17s.04-.49.13-.63Z"/><path class="cls-25" d="M10.15,10.23s.29-.31.38-.46.24-.24.61-.22.93,0,.93,0c0,0-.6-.01-.87-.05s-.5,0-.64.16-.41.57-.41.57Z"/><path class="cls-25" d="M10.15,11.03s.19-.42.3-.57.28-.4.62-.41.75,0,.75,0c0,0-.61-.07-.9-.04s-.26,0-.41.22-.36.8-.36.8Z"/><path class="cls-25" d="M10.41,11.3s.24-.38.4-.54.22-.22.57-.24.59-.05.59-.05c0,0-.6-.03-.78,0s-.25.03-.45.26-.33.57-.33.57Z"/><path class="cls-25" d="M12.15,11.1s.58.07.79.26,1,.55,1.15.33.21-.32.21-.32c0,0-.32.57-.34.69s-.46.01-.93-.39c0,0-.48-.37-.89-.58Z"/><path class="cls-25" d="M20.52,13.27s-.02.19-.12.36-.12.21-.12.21c0,0,.44-.1.58,0s.36.3.48.28.18-.25.18-.25c0,0-.65-.68-.99-.6Z"/><path class="cls-23" d="M21.42,13.5s-.04.04.06.13c.11.09.04.35-.08.4-.12.06-.21-.25-.39-.38-.18-.14-.52-.1-.49-.38.03-.28-.08-.96-.35-1.32-.26-.36-.63-.88-1.07-.71,0,0,.12-.34.4-.49.29-.15.58-.37.72-.53.12-.13.28-.04.28.25h0v.02c-.02.26-.18.33-.35.54-.17.21-.49.26-.4.26h.21s.27.04.42.11c.16.07.5.07.78.06.28,0,.37.2.41.34.04.15-.06.23-.22.25,0,0-.24,0-.54.05-.3.05.24-.02.38.03.11.04.18.09.21.11.1.1.21.26.21.43,0,.21-.13.09-.04.37.09.29-.17.45-.17.45Z"/><path class="cls-17" d="M14.59,10.92s.18-.3.32-.19,1.1.96,1.35,1.11.58.53.58.53c0,0-.47.23-1.03.27s-1.52-.05-1.52-.05l-.13-.69.43-.97Z"/><path class="cls-14" d="M13.65,12.63s.54-1.28.94-1.71-.23.42-.3.86.17.08.45-.16.54-.36.54-.36c0,0-.37.38-.42.65s.24.16.42.42.53.31.53.31c0,0-1.78.16-2.16,0Z"/><path class="cls-21" d="M8.17,21.36v.36s.88.07,1.17-.18.29-.09.67-.18.46-.42,1.18-.42,1.12-.22,1.71-.46,3.23-1.54,4.45-1.51,2.05.27,2.42.65c0,0-.85-1-2.71-.86s-3.48.32-4.64-.16-.27-1.12-.27-1.12c0,0-1.13-.2-2.35.98s-1.59,2.27-1.63,2.9Z"/><path class="cls-25" d="M21.04,12.7s.5.15.58-.03c0,0,.03.09-.02.14s-.04.14-.03.19-.03-.07-.12-.12-.32-.1-.41-.13-.11-.1,0-.06Z"/><path class="cls-25" d="M21.41,12.25s-.11-.08-.21-.11c-.14-.05-.69.02-.38-.03.3-.05.54-.05.54-.05-.16.03-.12.05-.02.12.02.02.05.04.07.06Z"/><path class="cls-25" d="M20.51,10.5s0,.07,0,.11c-.05.37-.48.65-.53.68,0,0,0,0,0,0h-.21c-.09,0,.23-.05.4-.26.17-.21.32-.28.35-.54Z"/><path class="cls-8" d="M15.23,3.77s-.4-.03-.53.08-.42.22-.57.21,0-.02.14-.1.57-.32.97-.18Z"/><path class="cls-8" d="M16.26,3.77s.28-.07.43,0,.26.08.26.08l.12.05s-.26-.41-.81-.13Z"/><path class="cls-20" d="M7.53,7.73h-.04c-.07-.03-.12-.09-.13-.16-.06-.38.01-1.12.68-1.48h.03s.06-.02.06-.02c.07,0,.14.04.17.1.02.04.03.1.01.14-.01.05-.05.09-.09.11-.61.32-.49,1.04-.48,1.07.02.1-.05.2-.15.22h-.03s-.02,0-.02,0Z"/><path class="cls-24" d="M7.52,7.61s-.05-.03-.05-.06c0,0-.16-.93.62-1.35.04-.02.08,0,.1.03.02.04,0,.08-.03.1-.68.36-.55,1.16-.54,1.19,0,.04-.02.08-.06.09-.01,0-.02,0-.04,0Z"/><path class="cls-20" d="M7.18,7.05h-.03c-.08-.03-.14-.11-.13-.2,0,0,.06-1.03,1.01-1.27h.01s.03,0,.03,0c.09,0,.16.06.18.14.03.1-.03.21-.14.23-.65.17-.72.85-.73.93,0,.1-.09.18-.19.18h-.03Z"/><path class="cls-24" d="M7.19,6.94s-.05-.04-.05-.07c0,0,.07-.95.92-1.16.04,0,.08.01.09.05.01.04-.01.08-.05.09-.75.19-.81,1-.81,1.03,0,.04-.04.07-.08.07,0,0-.01,0-.02,0Z"/><path class="cls-20" d="M22.64,15.79c-.06,0-.12-.03-.16-.08-.06-.08-.04-.2.05-.26.56-.39.36-1.09.35-1.12-.03-.1.03-.21.12-.24h.02s.04,0,.04,0c.11.02.16.07.18.13,0,.01.29,1-.49,1.55-.03.02-.07.03-.11.03Z"/><path class="cls-24" d="M23.08,14.2s.05.02.06.05c0,0,.27.91-.45,1.42-.03.02-.08.02-.1-.02-.02-.03-.02-.08.02-.1.63-.44.4-1.22.39-1.25-.01-.04,0-.08.05-.09.01,0,.02,0,.04,0Z"/><path class="cls-20" d="M22.74,16.28c-.08,0-.15-.05-.18-.12-.02-.05-.02-.1,0-.15.02-.05.06-.08.1-.1.63-.24.61-.93.61-1.01,0-.05.01-.1.05-.14.03-.04.08-.06.13-.06h.01s.03,0,.03,0c.09.02.15.09.16.18,0,0,.05,1.03-.85,1.38h-.02s-.05.01-.05.01Z"/><path class="cls-24" d="M23.49,14.82s.06.03.06.07c0,0,.05.95-.78,1.27-.04.01-.08,0-.1-.04-.01-.04,0-.08.04-.1.72-.28.69-1.09.68-1.12,0-.04.03-.08.07-.08,0,0,.01,0,.02,0Z"/></svg>