<?xml version="1.0" encoding="UTF-8"?><svg id="Livello_1" xmlns="http://www.w3.org/2000/svg" viewBox="0 0 23.52 27.77"><defs><style>.cls-1{fill:#2e2e2e;}.cls-1,.cls-2,.cls-3,.cls-4,.cls-5,.cls-6,.cls-7,.cls-8,.cls-9,.cls-10,.cls-11,.cls-12,.cls-13,.cls-14,.cls-15,.cls-16,.cls-17,.cls-18,.cls-19,.cls-20,.cls-21,.cls-22,.cls-23,.cls-24,.cls-25,.cls-26,.cls-27,.cls-28,.cls-29,.cls-30,.cls-31,.cls-32,.cls-33,.cls-34,.cls-35,.cls-36,.cls-37{stroke-width:0px;}.cls-2{fill:#4d3131;}.cls-3{fill:#d9ac9d;}.cls-4{fill:#50545e;}.cls-5{fill:#834a3a;}.cls-6{fill:#b9b4a9;}.cls-7{fill:#b8b0a3;}.cls-8{fill:#975440;}.cls-9{fill:#c0c0bc;}.cls-10{fill:#9f6a59;}.cls-11{fill:#e3cfc1;}.cls-12{fill:#e0dcd0;}.cls-13{fill:#cec8ba;}.cls-14{fill:#cdbba5;}.cls-15{fill:#869bab;}.cls-16{fill:#e2d6c7;}.cls-17{fill:#dad1be;}.cls-18{fill:#ede5db;}.cls-19{fill:#e3d6c6;}.cls-20{fill:#e8e0ce;}.cls-21{fill:#7b7169;}.cls-22{fill:#ecdc97;}.cls-23{fill:#8b8075;}.cls-24{fill:#3e4148;}.cls-25{fill:#999da9;}.cls-26{fill:#555963;}.cls-38{fill:#fff;stroke:#fff;stroke-linecap:round;stroke-linejoin:round;stroke-width:.86px;}.cls-27{fill:#546374;}.cls-28{fill:#d5b85f;}.cls-29{fill:#777572;}.cls-30{fill:#c2a697;}.cls-31{fill:#2b2627;}.cls-32{fill:#525660;}.cls-33{fill:#616572;}.cls-34{fill:#d9c0ad;}.cls-35{fill:#dedbba;}.cls-36{fill:#e2c984;}.cls-37{fill:#433f3e;}</style></defs><rect class="cls-38" x=".43" y="19.81" width="22.66" height=".33"/><polygon class="cls-38" points=".43 19.81 2.69 18.28 21.06 18.28 23.09 19.81 .43 19.81"/><rect class="cls-38" x="21.86" y="20.14" width=".61" height="7.21"/><rect class="cls-38" x="20.68" y="22.23" width=".61" height="2.98" transform="translate(-10.68 24.68) rotate(-50.23)"/><rect class="cls-38" x="19.61" y="20.14" width=".61" height="4.63"/><path class="cls-38" d="M8.61,19.06c-.28.05-.69.08-.69.08l-.57-.47-.45-1.22.34-1.35.55.16s-.18,1.11-.18,1.25c0,.13.55,1.04.55,1.04,0,0,0,0,0,0,.02.01.3.18.45.5Z"/><path class="cls-38" d="M8.61,19.06c-.28.05-.69.08-.69.08l-.57-.47s.47-.18.81-.12c0,0,0,0,0,0,.02.01.3.18.45.5Z"/><path class="cls-38" d="M16,19.14s-.49.07-.69-.06c-.2-.14-.23-.37-.23-.37,0,0-.07-.04-.12-.16s.04-.41,0-.73c-.04-.32-.33-3.19-.33-3.19l1.21.71.13,2.95.04.86Z"/><path class="cls-38" d="M16,19.14s-.49.07-.69-.06c-.2-.14-.23-.37-.23-.37,0,0,.23-.19.5-.31.27-.12.38-.12.38-.12l.04.86Z"/><path class="cls-38" d="M7.28,16.28s.41.16.69.05.37-.35.52-.43c.15-.08.47-.21.69-.47.23-.25.29-.59.29-.59l-.73-.12-1.53,1.17.06.37Z"/><path class="cls-38" d="M8.15,19.46s-.6.07-.77,0c-.17-.07-.32-.24-.32-.24,0,0-.19-.05-.23-.16-.04-.11-.57-1.45-.57-1.45l.39-2.07.96.29s-.45,1.45-.45,1.6.06.27.57,1.36c.39.24.45.65.43.68Z"/><path class="cls-38" d="M8.15,19.46s-.6.07-.77,0c-.17-.07-.32-.24-.32-.24,0,0,.31-.41.66-.44.39.24.45.65.43.68Z"/><path class="cls-38" d="M16.92,19.26s-.82.11-.97,0c-.15-.11-.31-.41-.31-.41,0,0-.14,0-.25-.14-.11-.14-.07-3.4-.07-3.4,0,0,.21-.12,1.59-.68,0,.51-.68,2.09-.69,2.22s-.06,1.39.17,1.55c.33.14.53.86.53.86Z"/><path class="cls-38" d="M16.92,19.26s-.82.11-.97,0c-.15-.11-.31-.41-.31-.41,0,0,.39-.37.75-.45.33.14.53.86.53.86Z"/><path class="cls-38" d="M6.84,10.5s-.59.26-.86.98c-.28.73,0,1.79,0,1.79,0,0-.26.67-.12.98.08.59.55.96.55.96,0,0,.06.67.46.81.39.14.69.08.81,0,.12-.08.35-.33.35-.33,0,0,.43-.22.59-.41.16-.2.28-.35.28-.35,0,0,.61.26,1.4.33.79.08,1.93.14,2.46.04.53-.1,1.36-.53,1.46-.55.1-.02.73.2.75.26.02.06-.08.51.69.65.41.35.96-.02.96-.02,0,0,.28-.16.47-.49.2-.33.08-.45.08-.45,0,0,.39-.51.61-1.26s0-1.22,0-1.22c0,0,.39.1.79-.71.39-.81,1.23-1.95,1.23-1.95,0,0-.48-.61-1.03-.83-.55-.22-.93-.32-.93-.32,0,0-1.26.59-1.02.08-.57.22-.83.71-.83.71,0,0-.43.08-.67.33-.89-.24-1.34-.1-1.73.1-.77.02-1.18.06-1.57.2-1.2-.22-2.01-.16-2.6,0-1.36-.2-1.88.12-2.13.32-.12.1-.43.34-.43.34Z"/><path class="cls-38" d="M14.63,10.88h-3.95s.35.98.29,1.37c1.74-.02,3.39-.14,3.39-.14,0,0-.14-.87.27-1.24Z"/><path class="cls-38" d="M12.48,11.68c-.28.06-.52.29-.58.57-.02.11-.03.22-.08.31-.07.15-.23.22-.36.32-.17.13-.31.31-.33.52s.13.44.34.46c.11.01.22-.03.3-.09.09-.06.16-.15.22-.24.02-.03.05-.06.08-.08.05-.02.11,0,.16.03.05.03.09.07.14.1.08.03.17.02.26,0,.06-.02.13-.04.18-.08.09-.08.13-.21.15-.33.02-.12.03-.24,0-.36-.03-.16-.11-.31-.14-.47-.04-.24.06-.48.17-.7-.2-.06-.52.03-.52.03Z"/><path class="cls-38" d="M8.43,12.14c-.11-.04-.21,0-.29.08-.09.09-.12.21-.14.32-.02.13-.02.26.02.39.04.12.11.22.23.27.12.06.3.12.43.05.04-.02.04-.17-.01-.17-.07,0-.13,0-.2-.02-.07-.01-.13-.04-.19-.07-.11-.05-.18-.13-.19-.26-.01-.11,0-.23.05-.33.06-.11.18-.17.3-.2.02,0,.02-.07,0-.08h0Z"/><path class="cls-38" d="M6.95,11.8c-.1.06-.16.15-.21.25-.05.13-.08.28-.09.43,0,.26.09.54.32.67,0-.06,0-.12,0-.18-.28.11-.39.47-.39.74,0,.28.1.65.38.77.07.03.14.04.21.03.08-.01.14-.06.2-.11.02-.02.02-.05.02-.08,0-.01-.01-.06-.04-.04-.04.03-.1.04-.15.04-.06,0-.11,0-.17-.02-.11-.03-.2-.11-.26-.2-.13-.2-.13-.47-.03-.68.05-.12.14-.21.26-.26.03,0,.03-.07.03-.09,0-.03,0-.08-.03-.09-.17-.1-.26-.29-.26-.48,0-.11.03-.22.06-.33.04-.1.09-.21.16-.28.01-.01.01-.09-.01-.07h0Z"/><path class="cls-38" d="M9.67,12.6s.07.08.1.13c.03.04.05.09.07.13.03.08.05.16.04.24-.02.18-.15.34-.3.45-.04.03-.03.11-.02.15.04.15-.06.31-.15.41-.13.14-.31.22-.45.34-.02.02-.03.15.01.14.11-.03.2-.08.29-.14.09-.06.17-.13.24-.22.14-.18.2-.42.14-.64,0,.05-.01.1-.02.15.2-.14.34-.37.35-.62,0-.13-.01-.26-.07-.37-.02-.05-.05-.09-.09-.13-.03-.03-.08-.08-.13-.07-.02,0,0,.04,0,.05h0Z"/><path class="cls-38" d="M10.7,13.95c-.1.21-.03.51.17.63.06.04.14.05.21.07.07.02.14.03.21.04.07,0,.14,0,.21,0,.07-.02.15-.03.19-.1,0-.01.01-.05,0-.06-.02,0-.05,0-.07,0-.03,0-.06,0-.09,0-.06,0-.12,0-.18-.01-.12-.01-.24-.05-.36-.08-.09-.03-.17-.08-.22-.17-.04-.07-.05-.15-.02-.22.01-.03.01-.07,0-.09-.01-.02-.03-.02-.04,0h0Z"/><path class="cls-38" d="M10.23,10.66c.15.03.36.05.46.18.05.07.08.16.09.24,0,.1-.04.18-.02.28,0,.06.03.11.06.16.02.05.04.09.06.14.03.1.06.2.07.3.02.17-.01.33-.09.49-.09.17-.23.31-.4.4-.03.02-.03.13.01.13.42-.07.58-.57.57-.93,0-.24-.07-.48-.17-.69,0-.01,0-.03-.02-.04,0,0,0,0,0,0,0,.04,0,.04,0,.02,0-.03.01-.06.01-.09,0-.06,0-.12,0-.18-.01-.11-.04-.21-.1-.3-.11-.19-.34-.2-.53-.19-.03,0-.03.09,0,.09h0Z"/><path class="cls-38" d="M16.01,9.15s-.06-.03-.09-.03c-.03,0-.07,0-.1.01-.06.02-.12.05-.18.09-.11.07-.2.17-.28.29-.18.28-.22.65-.11.96.06.15.17.29.31.37,0-.06,0-.12-.01-.18-.16.26-.15.6-.03.87.06.12.14.24.25.33.05.05.11.09.17.13.06.04.12.07.19.08.03,0,.04-.06.04-.07,0-.03,0-.07-.03-.09-.05-.04-.1-.06-.15-.09-.05-.03-.1-.06-.14-.1-.09-.07-.17-.16-.23-.25-.12-.2-.14-.43-.01-.63.02-.04.04-.15-.01-.18-.23-.13-.34-.39-.3-.65.04-.24.17-.47.36-.62.05-.04.11-.08.17-.11.03-.01.06-.03.09-.04.04-.02.06-.04.1-.06,0,0,0-.01,0-.01h0Z"/><path class="cls-38" d="M14.39,12.22c-.04-.28-.05-.57.03-.84.03-.11.08-.22.14-.32.07-.11.14-.22.23-.32,0,0,0-.04,0-.04-.11.05-.2.13-.27.24-.07.12-.13.24-.16.38-.08.31-.06.63.01.94,0,.04.03,0,.03-.03h0Z"/><path class="cls-38" d="M15.41,14.73c.04.2.21.36.4.42.19.06.45.02.55-.17.06-.11.06-.28-.03-.37,0,.05,0,.09,0,.14.16-.07.33-.17.38-.34.03-.08.03-.17.01-.25-.02-.07-.05-.15-.12-.17-.04-.01-.03.1-.01.12.04.03.07.07.08.13,0,.05-.01.1-.04.15-.07.11-.21.18-.33.23-.04.02-.02.11,0,.14.08.09-.02.19-.11.23-.09.05-.2.06-.3.05-.19-.03-.37-.15-.46-.32-.02-.03-.02.03-.02.04h0Z"/><path class="cls-38" d="M14.62,14.02c.1.13.2.27.29.41.04.07.09.14.11.21.03.07.04.15.05.23,0,.02.02.02.02,0,0-.09,0-.18-.02-.27-.02-.09-.07-.17-.12-.25-.05-.07-.09-.15-.15-.22-.03-.03-.05-.06-.08-.09-.02-.01-.03-.03-.05-.04-.02-.01-.04-.02-.06-.03-.02,0-.01.04,0,.05h0Z"/><path class="cls-38" d="M17.46,11.05c.04.09.1.15.19.2.08.04.18.05.27.04.18-.04.31-.19.35-.37,0,.01-.01.02-.02.03.14-.06.29-.15.35-.3.03-.07.04-.15.03-.23,0-.06-.03-.16-.1-.19-.04-.02-.03.1-.02.12.02.04.06.07.06.12,0,.04-.01.09-.04.13-.06.1-.17.16-.28.2-.03.01-.04.02-.05.06,0,.02-.01.05-.03.07-.02.05-.06.09-.1.13-.08.07-.19.1-.3.1-.11,0-.24-.07-.31-.15-.02-.02-.02.04-.02.06h0Z"/><path class="cls-38" d="M16.88,8.36c-.1.08-.18.18-.23.3-.05.13-.07.28-.05.42.03.27.2.52.45.65-.01-.04-.02-.08-.03-.11-.02.23.17.38.37.45.1.04.21.06.31.06.05,0,.1,0,.15,0,.03,0,.05,0,.08-.01.03,0,.05-.02.07-.04.02-.03.02-.11-.01-.13-.04-.02-.08-.01-.12,0-.04,0-.09,0-.13,0-.09,0-.18-.01-.27-.04-.08-.02-.16-.06-.24-.1-.03-.02-.06-.04-.09-.07-.01-.01-.04-.04-.04-.06,0-.03,0-.1-.03-.11-.19-.09-.36-.27-.39-.49-.04-.22.06-.47.21-.63.01-.01,0-.08,0-.07h0Z"/><path class="cls-38" d="M16.96,14.64s.04.04.07.06c.03.01.06.03.08.05.03.04.04.1.04.15,0,.06-.02.12-.05.17-.01.03-.03.06-.05.09-.02.03-.05.06-.06.09,0,.01,0,.06.01.06.03,0,.07-.03.08-.05.03-.03.05-.06.07-.09.04-.08.06-.17.06-.26,0-.08-.01-.17-.05-.25-.02-.03-.04-.06-.08-.07-.03-.01-.07,0-.11-.02-.02,0-.02.05-.01.05h0Z"/><path class="cls-38" d="M15.54,15.54c.03.09.09.18.16.24.07.06.17.09.26.09.09,0,.19,0,.28-.02.1-.02.18-.07.24-.15,0,0,0-.05,0-.04-.08.02-.16.05-.24.07-.09.02-.17.02-.26.02-.09,0-.18-.02-.25-.07-.07-.04-.11-.11-.18-.17,0,0,0,.03,0,.03h0Z"/><path class="cls-38" d="M17.61,12.19s.06.03.1.04c.04,0,.08,0,.12,0,.07,0,.14-.03.21-.06.07-.03.13-.06.18-.11.05-.05.11-.12.12-.19,0,0,0-.02,0-.02-.02-.01-.04,0-.06.02-.03.02-.05.04-.07.06-.05.05-.11.08-.17.11-.06.03-.13.06-.2.08-.04,0-.07.01-.11.01-.04,0-.07,0-.11,0-.02,0-.01.04,0,.05h0Z"/><path class="cls-38" d="M7.01,16.08c.08.02.16.03.24.05.08.01.16.03.23.01.14-.03.26-.11.35-.21.05-.05.08-.12.15-.15.06-.03.13-.04.19-.06.12-.05.23-.12.33-.21.1-.09.22-.22.25-.36,0,0,0-.06-.02-.05-.02.01-.03.03-.05.05-.02.03-.04.05-.06.08-.04.05-.08.1-.12.14-.09.09-.2.16-.31.21-.06.03-.12.05-.19.07-.07.02-.11.06-.15.12-.09.1-.21.2-.34.24-.08.03-.17.02-.25.02-.09,0-.18,0-.27,0-.02,0-.01.05,0,.05h0Z"/><path class="cls-38" d="M12.12,12.41c.02-.11.05-.23.11-.32.03-.05.08-.09.13-.12.03-.01.06-.02.09-.03.03,0,.07-.02.09-.04,0,0,0-.02,0-.03-.05-.05-.13-.03-.19,0-.06.03-.11.08-.15.13-.08.11-.1.25-.11.38,0,0,0,.03,0,.04,0,0,.01,0,.02-.01h0Z"/><path class="cls-38" d="M11.49,13.13c-.04.06-.09.12-.11.19-.02.07-.02.16.01.23.03.07.08.11.15.13.03,0,.07.02.1,0,.04-.01.05-.06.05-.1,0,0,0-.03-.01-.03,0,0-.01,0-.02,0,0,0-.02,0-.03,0-.03,0-.05,0-.08,0-.05,0-.09-.03-.12-.08-.02-.04-.02-.07-.01-.11.01-.06.04-.12.08-.18,0-.01,0-.03,0-.04,0,0,0-.02-.02,0h0Z"/><path class="cls-38" d="M11.07,11.35s.08.02.12.03c.04,0,.08,0,.12,0,.07,0,.15,0,.22,0,.07,0,.15,0,.22-.02.07-.01.16-.03.22-.07,0,0,0-.02,0-.02-.07-.02-.15-.01-.22,0-.08,0-.15.02-.23.02-.07,0-.15.01-.22.01-.04,0-.07,0-.11,0-.04,0-.08.01-.12.02-.01,0,0,.03,0,.04h0Z"/><path class="cls-38" d="M11.4,11.66c.09,0,.18,0,.26,0,.04,0,.08,0,.13,0,.04,0,.09,0,.12-.02.02-.02.02-.1,0-.1-.02,0-.05,0-.07,0-.02,0-.04,0-.06,0-.04,0-.08,0-.13,0-.09,0-.17,0-.26.01-.03,0-.02.09,0,.09h0Z"/><path class="cls-38" d="M13.61,11.75c.07,0,.14,0,.21,0,.03,0,.07,0,.1,0,.03,0,.08,0,.09-.03,0,0,0-.02,0-.03-.02-.03-.06-.02-.09-.02-.04,0-.07,0-.11.01-.07.01-.14.02-.21.03-.01,0-.01.04,0,.04h0Z"/><path class="cls-38" d="M13.3,12.01c.14-.01.28-.02.42-.02.07,0,.14,0,.21,0,.03,0,.07,0,.1-.01.03,0,.07-.01.1-.03,0,0,0-.02,0-.02-.05-.03-.13-.04-.2-.04-.07,0-.14,0-.21.01-.14.01-.28.04-.42.07-.02,0-.01.05,0,.05h0Z"/><path class="cls-38" d="M16.87,8.07s.08-.09.08-.09c-.06-.08-.02-.14-.01-.24,0-.05.05-.06.06-.1.01-.04-.01-.11-.02-.18,0-.04.12-.16.13-.19.02-.05-.04-.08,0-.11.02-.02.1.01.13,0,.02,0,.01-.11.03-.12.08-.04.1.02.1,0,0-.03.12-.08.16-.1.04-.02.1-.13.14-.2.05-.07.19,0,.19,0,0,0,.05-.13.11-.15.05-.03.18,0,.18,0l.1-.05s.08.06.12.03c.04-.03.13-.09.13-.09,0,0,.06.02.07.07,0,.04.12.01.14.06.02.05.08.2.07.32,0,.13,0,0,.04.1s.18.13.16.23c-.02.1.03.09.02.16-.01.07.09.1.09.16,0,.06-.39-.03-.39-.03,0,0-.06.06-.13.16s.04.24,0,.27c-.03.04.03.09.07.17.01.03.02.05.02.07l.15.15s.07-.1.13-.13c.09-.04.23.03.29-.01.05-.04.13-.1.19-.11.07-.01.12.11.21.13.09.02.02.03.04.05.02.02.09.09.16.1.06,0,.04.1.11.14.07.04.12.13.15.18s.12.04.08.08.02.07.06.17c.04.1.07.07.03.2s-.08.1-.06.14c.02.04,0,.19-.11.29-.03.02-.05.04-.06.05l.07.07s-.01.03-.03.09c0,0-.98.32-.98.32"/><path class="cls-38" d="M20.17,8.78s.39-.6.46-.69.24-.32.32-.35.3-.09.39-.3.11-.29.07-.34-.19-.13-.19-.13c0,0,.07-.24.05-.34s-.22-.18-.22-.18c0,0-.3-.14-.51-.15s-1.17.23-1.29.25-.23.04-.28.04-.3.01-.3.01c0,0,.06.14.1.18.09.08.02.17.07.22s.12-.05.14.05.08.09.02.18-.07.18-.02.21l.05.02-.29.07s-.17.13-.18.19.02.25.03.31.13.3.13.3l.04.11s.16-.19.24-.19.17.02.24-.04.19-.11.24-.08.36.3.4.34l.22.22.08.08Z"/><polygon class="cls-38" points="18.87 7.76 18.79 7.75 18.75 7.81 18.85 7.98 18.82 8.15 18.88 8.14 18.97 8 18.94 7.82 18.87 7.76"/><path class="cls-38" d="M19.02,7.62s-.06,0-.08.03-.05.07-.05.07c0,0-.05,0-.07.02h-.01s.06.04.09.08.05.13.04.18-.03.07-.05.1-.07.05-.07.05c0,0-.05.04-.01.05s.13-.06.17-.12.03-.15.02-.2-.04-.07-.03-.11.07-.09.09-.12,0-.03-.03-.03Z"/><path class="cls-38" d="M18.78,7.81s.08,0,.11.08c.02.06.04.1,0,.18,0,.02-.07.13-.07.13,0,0-.02-.2-.03-.24s0-.15,0-.15Z"/><path class="cls-38" d="M18.63,7.8s.09-.12.14-.09.07.02.05.03-.2.06-.2.06Z"/><path class="cls-38" d="M20.81,7.48s.29.03.52-.22c.05-.05.14-.07.09-.16-.02-.03-.09-.07-.09-.07l-.21.1-.3.35Z"/><path class="cls-38" d="M21.22,6.97s-.15.15-.17.19-.12.17-.12.17c0,0-.23.11-.15.13s.15-.02.17-.06.27-.31.3-.33.09-.04.09-.04l-.1-.07Z"/><path class="cls-38" d="M20.77,6.53c-.07.04-.18.08-.19.15-.02.15.26.09.29.03s.11-.19.11-.19l-.03-.12-.13-.04s.02.13-.05.17Z"/><path class="cls-38" d="M20.89,6.39s.01.23-.06.27-.17-.03-.2.01.02.07.05.08.11.04.18-.04.09-.17.09-.17c0,0,0-.17-.06-.14Z"/><path class="cls-38" d="M18.77,6.71s.04.14.03.19v.06s0,.08.06.08.12.12.13.15,0-.03.01.05-.02.11,0,.12.06.11.06.11l-.1.12s.14-.16.29.13c.01.02.02.5.05.46.07-.11,0-.39.05-.5.06-.16.2-.23.39-.35.1-.07.42-.24.49-.39.03-.06-.39.04-.42.05-.02,0-.32.1-.57.03-.14-.04-.29-.24-.29-.25-.02,0-.02-.02-.05-.02s-.12-.03-.12-.03Z"/><path class="cls-38" d="M19.64,8.24s.19.12.38.07.76-.42.76-.42c0,0-.39.59-.43.66s-.16.23-.16.23l-.19-.15-.35-.4Z"/><path class="cls-38" d="M18.67,7.82l.14-.07s-.05.04-.03.04.03,0,.03,0c0,0-.03.02-.02.03s.03.04.03.04c0,0-.04,0-.03.02s.03.02.03.02c0,0-.04.04-.01.05s0,.03,0,.03c0,0-.03.04-.02.04s.01.02.01.02c0,0-.03.05-.02.05s0,.03,0,.03v.03s-.01.03-.01.03l-.02.02s0-.2-.02-.26-.04-.14-.09-.11Z"/><path class="cls-38" d="M18.47,8.79s-.27-.01-.24.07.12.02.12.02c0,0,.03.02,0,.05s-.11.05-.07.08c.03.02.01.05.03.05.11-.03.05,0,.05,0,0,0,0,.05-.02.06s.04.03.04.07-.03.03-.04.05.03.06.03.09v.06s-.1.02-.1.02l-.03-.07s.07-.03.05-.08c0-.03-.06-.02-.06-.06s.04-.05.04-.05v-.1s-.12-.1-.1-.13.05,0,.03-.03-.1-.04-.09-.09.05-.05.08-.05c0,0,.06-.12.09-.11.01,0,0,.07,0,.09.03.05.2.04.2.04Z"/><path class="cls-38" d="M18.04,8.59s-.28-.04-.25.06.13.03.13.03c0,0,.03.03,0,.06s-.11.05-.06.1c.03.03.02.07.04.06.12-.02.05.02.05.02,0,0,0,.07-.02.07s.04.04.05.09-.03.03-.04.06.04.08.04.11v.08s-.09.02-.09.02l-.04-.08s.07-.03.04-.1c-.01-.04-.06-.03-.07-.08s.04-.06.04-.06l-.02-.13s-.13-.14-.1-.17.05,0,.02-.03-.11-.06-.1-.12.05-.06.08-.05c0,0,.05-.14.08-.12.01,0,0,.09.01.11.04.07.21.07.21.07Z"/><path class="cls-38" d="M17.94,7.49c.02.05.08.07.12.08.02,0-.12.07-.03.14s.09.13.09.13c0,0-.03,0-.03.08s.09,0,.09.07-.07.08-.07.08c0,0,.08.06.06.07,0,0-.02.06-.03.1,0,.01.06.07.05.09s-.07-.01-.08-.01c-.01,0,0-.11,0-.14-.02-.04-.04-.02-.04-.02-.02,0,0-.08-.02-.11,0-.02.01-.08,0-.1,0-.06-.04-.08-.04-.08v-.1s-.12-.1-.1-.13.05,0,.03-.03-.1-.04-.09-.09c0-.02.01-.03.02-.05,0-.02.01-.14.02-.15.01-.02.03.08.04.08.02,0,.06-.03.05,0,0,.02-.07.07-.06.1Z"/><path class="cls-38" d="M16.98,8.15s0-.14.01-.15.11-.06.11-.06c0,0-.12.09-.06.15s.18,0,.18,0c0,0-.11.13,0,.15s.14.07.14.07c0,0-.03,0,.01.08s.05.04.09.09l.03.05-.02.07-.12.05s.09-.08.04-.12-.11-.15-.11-.15l-.06-.09s-.15-.04-.14-.07.04-.02.01-.04-.11,0-.13-.04"/><path class="cls-38" d="M19.73,10.07s.05-.15-.04-.16-.17.1-.17.1c0,0,.02-.17-.09-.13s-.17.02-.17.02c0,0,.02-.02-.07-.06s-.07,0-.14-.03l-.06-.03-.03-.06.08-.11s-.03.12.04.13.19.06.19.06l.11.04s.16-.05.17-.02-.02.04.01.04.1-.07.14-.04.1.11.08.13-.05.11-.05.11"/><path class="cls-38" d="M18.1,10.01c.06,0,.19.06.19.06l.11.04s.16-.05.17-.02-.02.04.01.04.1-.07.14-.04.1.11.08.13-.05.11-.05.11c0,0,.05-.15-.04-.16s-.17.1-.17.1c0,0,.02-.17-.09-.13s-.17.02-.17.02c0,0,.02-.02-.07-.06"/><path class="cls-38" d="M19.36,8.09s-.09.09-.13.13-.05-.03-.12-.01-.05.02-.12.06-.13.03-.18.11-.11.01-.15.01-.15.03-.17.05-.06.08-.06.08c0,0,.09,0,.13,0s.05-.04.12-.02.2-.02.22-.05.04-.09.09-.09.12-.03.16-.05.08,0,.12-.01.07-.1.11-.11.14.04.14.04c0,0,.11-.02.16.07s.1.13.1.13l-.02-.13s-.09-.1-.13-.12-.15-.02-.15-.02l-.11-.05Z"/><path class="cls-38" d="M18.49,7.11s.08-.12.12-.08.09.04.09.04l.09-.02.02-.13s0,.1-.1.09-.15-.02-.17,0c-.08.08-.04.12-.04.12Z"/><path class="cls-38" d="M18.48,6.72c.06,0,.09,0,.12.02s.05-.02.09-.07.04-.08.04-.08c0,0-.07-.02-.06.03s-.08.07-.08.07c0,0-.17.03-.11.04Z"/><path class="cls-38" d="M19,7.23s-.07.17.02.16,0,.07,0,.07v.08s.14.07.18.08,0,.03,0,0-.04-.27-.04-.27l-.16-.12Z"/><path class="cls-38" d="M18.77,6.79l.03.17s-.06.06-.01.07.1.02.12.04.06.07.06.07l.03.05v.08s.11.09.11.09l.06-.02v.05s.07-.12-.04-.15c-.05-.01-.04-.07-.06-.09-.06-.04-.07-.06-.04-.08s-.06-.09-.09-.11-.14-.08-.1-.12c.05-.06-.06-.14-.06-.14v.08Z"/><path class="cls-38" d="M18.41,7.74c.06.09.12.12.13.14s-.08.14-.02.17.1.03.1.03c0,0,.04.04.04.09s-.01.07.02.1.06.05.07.07.04.04.06.03,0-.02-.02-.05-.04-.03-.03-.06.02-.11,0-.1-.05,0-.05-.03,0-.06-.03-.06-.12.02-.1-.05.04-.07.03-.11-.01-.05-.04-.06-.05,0-.05-.04v-.04s.04.03,0,0-.1-.03-.1-.03Z"/><path class="cls-38" d="M18.54,7.72s.11-.09.15-.11c.02,0,.02-.07.05-.08.04-.02.11.02.13.03.05.04.09.07.12.06s.07-.04.09-.05.07-.08.07-.08l-.09-.08s.05.08,0,.1-.09.01-.14,0-.24-.01-.27.01c-.02.01,0,.06-.03.11-.02.05-.07.09-.07.09Z"/><path class="cls-38" d="M17.29,8.39l.34-.06s-.23.11-.24.16-.07.14-.1.18-.06.06-.04.1.05.04.04.07-.04.05-.06.02-.04-.06-.03-.1.03-.13,0-.13-.05-.02-.08,0-.05.06-.05.06c0,0,.01.07.01.09s-.02.04-.03.06-.08.07-.06,0,.02-.09-.02-.08-.06.01-.08.05-.03.04-.04.07-.03.11-.03.11c0,0,.03.03,0,.06s-.06-.04-.07-.06-.05-.06-.07-.03-.03.09-.03.11-.09,0-.09,0c0,0-.06.02-.04.06s.03.09,0,.09-.07-.11-.07-.11c0,0-.04.12-.05.15s-.07.08-.09.07-.08,0-.1.02,0,.08-.02.08-.02-.05-.06-.03,0,.08-.06.05-.07-.03-.1.01-.02.07-.02.1-.03.09-.05.02-.04-.09-.06-.1-.04-.11-.04-.11l.67-.39.6-.49.23-.13Z"/><path class="cls-38" d="M15.62,8.26s-.05-.04-.04-.07.04-.05.06-.02.03.07.02.1.04.1.08.08.05,0,.05,0c0,0,0-.07,0-.09s.02-.04.04-.06.08-.06.06,0-.03.09.01.08.06,0,.09-.04.04-.04.05-.07.04-.11.04-.11c0,0-.02-.03,0-.06s.05.04.06.07.04.07.06.03.04-.09.04-.1.09.01.09.01c0,0,.06-.02.05-.06s-.02-.09.01-.09.06.12.06.12c0,0,.05-.11.07-.14s.08-.08.09-.06.08,0,.11-.01,0-.08.03-.07.02.05.06.03.01-.08.06-.05.06.03.1,0,.03-.07.03-.1.04-.09.05-.02.03.09.05.11.03.12.03.12l-.71.32-.65.43s-.15-.23-.17-.26Z"/><path class="cls-38" d="M15.91,8.32s-.04.07-.1.2-.12.29-.13.37-.02.14-.03.21.01.2.03.27.17.06.17.06c0,0-.03.03-.15,0-.02,0-.09.06-.12.03-.03-.03-.03-.15-.03-.17,0-.02-.08-.09-.11-.11-.04-.05.07,0,.13-.08,0-.01.06-.09.04-.11-.03-.02-.13.01-.13,0-.01-.08.12-.07.09-.09-.02-.01.06-.07.05-.11,0-.04-.1-.07-.07-.08s.12-.03.14-.06-.01-.07-.02-.09c-.02-.05.04-.15.04-.15,0,0,.1-.08.12-.12,0,0,.19-.1.2-.1.03,0-.12.14-.12.14Z"/><path class="cls-38" d="M17.26,7.69s-.18.13-.39.18-.66.17-.81.27-.33.5-.39.64-.07.4-.08.5.11.17.25.15.27-.06.33-.12,1.15-.83,1.15-.83c0,0,.03-.06.34-.19.11-.04-.12-.21-.12-.24s-.04-.39-.04-.44-.25.08-.25.08Z"/><path class="cls-38" d="M15.85,8.87c-.1.31,0,.44.04.38s.26-.33.37-.45c.02-.02.12-.15.19-.21.09-.07.42-.34.45-.37.04-.04-.4.03-.71.22-.22.13-.34.39-.35.44Z"/><path class="cls-38" d="M16.96,7.84l.39-.2s.13-.04.15.03.03.21.03.21v.18s-.12-.09-.27-.09-.64-.04-.64-.04l.35-.1Z"/><polygon class="cls-38" points="21.82 18.86 21.82 6.44 22.07 6.24 22.07 19.04 21.82 18.86"/><polygon class="cls-38" points="20.01 9.38 19.07 8.19 22.09 6.12 22.08 6.3 19.32 8.23 20.04 9.14 21.98 7.63 22.09 7.76 20.01 9.38"/><path class="cls-38" d="M11.19,19.01s-.05-.03-.07-.04c-.11-.05-.23-.07-.35-.05-.12.02-.22.09-.33.14-.12.05-.25.08-.38.09-.17,0-.34-.01-.51-.04-.14-.02-.29-.04-.43-.06-.06,0-.13-.02-.18-.06-.04-.04-.07-.1-.07-.16,0-.14.08-.35.25-.34.09,0,.18.04.26.09,0,0,0-.1,0-.11,0-.05-.01-.09-.02-.14,0-.08,0-.16.04-.22.08-.11.25-.09.36-.04.13.06.21.19.24.33.32-.32.64-.08.69-.04.05.04.8-.07.99.04.19.11.27.25.27.25,0,0,.2-.13.32-.04.14.1.05.28-.08.32-.05.01-.11.02-.16.01-.09,0-.17-.03-.26-.04-.1-.01-.17,0-.26.06-.09.06-.2.08-.31.06Z"/><path class="cls-38" d="M9.39,18.55c-.02-.08-.05-.17-.04-.25,0-.04.02-.07.04-.1.02-.04.06-.05.1-.06.16-.02.34.04.43.18.01.02.02.04.03.06,0,.02,0,.03.01.04,0,0,0,0,0,.01,0-.01,0,0,0,0,0,0,0,0,0,.01,0,.02,0-.01,0,0,0,0,0,.03,0,.02,0,0,0,.03,0,.02-.01.04-.02.1,0,.14.02.03.05.04.06,0,.07-.22,0-.5-.22-.6-.09-.04-.2-.05-.3-.03-.05.01-.1.03-.13.08-.03.05-.05.11-.06.16-.02.12,0,.26.07.36.02.02.02-.04.02-.04h0Z"/><path class="cls-38" d="M10.56,18.55s.08-.05.13-.07c.05-.02.11-.04.17-.05.05-.01.11-.01.16-.01.06,0,.11,0,.17,0,.02,0,.02-.06,0-.07-.1-.06-.25-.04-.36,0-.11.03-.24.08-.27.19,0,0,0,.03,0,.02h0Z"/><path class="cls-38" d="M9.45,18.89s.09-.11.15-.11c.06,0,.13.04.16.09.01.02.02.05.04.06.02.02.05,0,.07-.02.03-.02.06-.02.1-.02.03,0,.06.02.08.03.02.01.02-.05.01-.06,0-.02-.01-.03-.03-.04-.01,0-.03-.01-.05-.02-.03-.01-.06-.01-.1-.01-.02,0-.03,0-.05,0-.01,0-.02,0-.03-.02-.02-.02-.03-.05-.05-.07-.02-.01-.05-.02-.08-.03-.03,0-.07-.02-.1-.01-.07,0-.12.09-.15.14,0,.01,0,.09.02.06h0Z"/><path class="cls-38" d="M11.23,18.75c.03-.07.1-.09.17-.1.04,0,.08-.01.13-.01.03,0,.08,0,.09.04,0,.01.01.02.02,0,0-.01,0-.04,0-.05,0-.03-.01-.05-.03-.07-.02-.01-.04-.02-.06-.02-.03,0-.06,0-.08,0-.03,0-.05,0-.08.01-.09.02-.18.07-.19.17,0,0,0,.05.02.03h0Z"/><path class="cls-38" d="M13.68,18.62s-.14-.04-.11-.13c.03-.09-.13-.36-.27-.33-.14.02-.32.12-.33.39-.03.03-.36.04-.28.24.08.2.35.08.59.06.24-.02.32.12.72.16.39.03.58,0,.63-.1.05-.11,0-.36-.23-.29-.23.07-.38.09-.45.08-.07-.01,0-.11-.26-.08Z"/><path class="cls-38" d="M13.04,18.61s-.03-.06-.01-.1c.01-.04.04-.08.06-.11.02-.04.05-.07.08-.09.04-.02.08-.03.13-.03.08,0,.16.04.21.09.01.01.02.03.03.04,0,0,0,.02,0,.01,0,0,0,0,0,.01,0,0,0,0,0,0,0,0,0,0,0,0,0,0,0,0,0,0,0,0,0,.01,0,.02,0,.03-.01.06,0,.09,0-.01,0-.03,0-.04,0,0,0,.02,0,.03,0,0,0,.07.02.06.02,0,.03,0,.04-.02.01-.02.02-.05.02-.07,0-.05,0-.11-.01-.16-.02-.08-.08-.15-.16-.18-.08-.03-.18-.03-.25,0-.08.03-.13.12-.16.2-.03.05-.04.11-.04.17,0,.05.01.11.05.14.01,0,.02-.01.02-.02,0-.02,0-.04,0-.05h0Z"/><path class="cls-38" d="M13.86,18.8s.04,0,.07-.01c.02,0,.05-.01.07-.02.05-.01.1-.02.15-.03.11-.02.2-.02.3.02.03.01.03-.08,0-.09-.09-.06-.21-.05-.31-.03-.05.01-.11.03-.16.04-.05.02-.1.04-.13.08,0,0,0,.04,0,.04h0Z"/><path class="cls-38" d="M13.17,18.52s.02-.02.03-.02c.01,0,.03-.01.05-.01.02,0,.03,0,.05.02,0,0,.01.01.02.01,0,0,.01,0,.02,0,.01,0,.01-.03,0-.03,0-.02,0-.03-.02-.05,0,0-.01-.02-.02-.02-.02-.01-.04-.01-.06-.01-.02,0-.04.01-.05.02-.02.02-.03.04-.03.06,0,0,0,.02,0,.02,0,0,0,0,0,0h0Z"/><path class="cls-38" d="M12.96,19.39c.05-.06.06-.15.02-.22-.03-.04-.07-.07-.16-.08-.22,0-.31.03-.39.12-.09.08-.35-.03-.46,0-.11.03-.22.17-.13.21.09.04.38.06.49.05.1,0,.23-.01.42,0,.08,0,.16-.03.21-.09h0Z"/><path class="cls-38" d="M12.32,19.38c.05-.07.12-.13.21-.15.05-.01.1-.02.15-.03.02,0,.05,0,.07,0,.03,0,.05,0,.08-.01.02,0,.01-.04,0-.05-.02-.02-.04-.04-.07-.04-.03,0-.06,0-.09,0-.06,0-.11.02-.17.04-.1.04-.17.11-.21.2,0,.01,0,.03,0,.04,0,0,.01.02.02,0h0Z"/><path class="cls-38" d="M12.62,19.37s0,0,0,0c0,0,0,0,0,0,0,0,0,0,0,0,0,0,0,0,0,0,0,0,0,0,.01,0,0,0,.02,0,.03,0,0,0,.02,0,.03,0,0,0,.02,0,.03,0,0,0,.01,0,.01-.01,0,0,0-.02,0-.03,0-.01,0-.02,0-.03,0,0,0-.01-.01-.01,0,0-.02,0-.03,0,0,0-.02,0-.03,0,0,0,0,0-.01,0,0,0-.01,0-.02,0,0,0,0,0-.01,0,0,0,0,0,0,0,0,0,0,0,0,0,0,0,0,0,0,.01,0,0,0,.01,0,.02,0,0,0,.02.01.03h0Z"/><rect class="cls-38" x="1.15" y="20.14" width=".61" height="7.21"/><rect class="cls-38" x="2.34" y="22.23" width=".61" height="2.98" transform="translate(-13.91 40.93) rotate(-129.77)"/><rect class="cls-38" x="3.4" y="20.14" width=".61" height="4.63"/><path class="cls-38" d="M3.44,10.17s-1.39,2.13.06,4c.01.38.07,2.79.21,3.35.14.56.14.9.08,1.12-.05.22-.33,1.76-.34,1.93-.01.16.78,4.58.85,4.76.07.18.6-.05.55-1.42-.05-1.37.03-5.44.1-5.89.07-.45-.08-2.94-.31-3.51-.23-.57-1.18-4.32-1.18-4.32Z"/><path class="cls-38" d="M6.13,11.41l-2.5-1.55s-.79,1.12-.67,2.58c.12,1.46,1.12,2.05,1.12,2.19s.05,2.67.32,3.39c0,0-.14.43-.22,1.02-.08.59-.1,1.97,0,2.46.1.49.8,3.48.84,3.78.05.31.16.49.46.51.3.02.63-3.55.79-4.66.16-1.14,0-3.2,0-3.2,0,0,0,0,0,0,.03-.12.06-.26.08-.4.26-1.65-.22-6.11-.22-6.11Z"/><path class="cls-38" d="M11.1,8.27s0,0,0,0c-.17.12-.22.35-.12.53l1.7,3.03s.25-.02.68-.31c.4-.26.55-.49.55-.49l-2.26-2.7c-.14-.16-.38-.19-.55-.07Z"/><path class="cls-38" d="M4.26,21.84s-.84.03-.86.06c-.02.03.62,2.64.59,2.7-.03.07-.47,1.08-.47,1.08,0,0,.04.9.09.92.05.03,1.67.05,2,.04.33,0,1.44-.07,1.61-.19.11-.08.33-.36.47-.55.05-.07,0-.17-.08-.18-.51-.06-1.88-.24-2.16-.49-.35-.31-.93-3.4-.93-3.4h-.28Z"/><path class="cls-38" d="M4.4,21.75s-.19.02-.19.07.62,3.43.54,3.48c-.08.06-.32.44-.32.58s-.03.86,0,.9c.03.05,1.78.07,2.27.06.49-.01.9-.06,1.22-.27.32-.2.71-.73.39-.86-.15-.06-.21-.1-1.18-.16-.97-.06-.74-.63-.75-.75,0-.12.11-3.5.11-3.5,0,0-1.38.07-1.46.12-.08.05-.06.36-.06.36l-.57-.02Z"/><path class="cls-38" d="M7.76,7.41s.58.28,1.08.28.91-.4.86-.55c-.04-.15-.91-.64-1.27-.85-.36-.21-.88-.51-1.06-.5-.17.02.38,1.62.38,1.62Z"/><path class="cls-38" d="M7.54,5.43s.82.55.99.72.4.44.4.44l-.59,1.39-.63-.18s-.22-.6-.26-.98.08-1.38.08-1.38Z"/><path class="cls-38" d="M5.97,2.93s-.02.31,1.47.22,2.46-.25,3.21-.49c.75-.24,1.05-.41.86-.54-.19-.14-.75-.4-1.71-.28-.96.12-3.34.63-3.82,1.1Z"/><path class="cls-38" d="M7.05,3.52s-.99.78-1.02.79c-.02,0-.27.53.09,1.02.36.5,1.38.64,1.38.64,0,0-.18-.65-.12-.72.05-.07.29-.36.39-.35.1.02,1.07.43,1.07.43,0,0-.79-.73-.91-.94-.12-.22-.11-.69-.11-.69l-.21-.18h-.56Z"/><path class="cls-38" d="M7.64,3.69s-.53.02-.62,0-.36-.46-.34-.74c-.03-.52.18-1.02.48-1.47s.98-.53,1.13-.55c.15-.02.55-.05.74-.06.19,0,.8.29,1.07.54.27.25.52.61.53.72.32.27-.04,1.02-.04,1.02,0,0-.02-1.11-.77-.98-.74.13-2.19,1.51-2.19,1.51Z"/><path class="cls-38" d="M6.24,4.16s-.25.31,0,.79c.25.49.81.72.93.73.12.01.37-.26.37-.26,0,0,.17,1.98.18,2.2.01.72-.08,1.01-.21,1.49-.13.49-1.35,2.64-1.35,2.64,0,0-1.17.12-1.79-.05-.89-.23-1.65-.17-1.67-.21-.01-.04.27-1.35.56-2.25.3-.9.93-2.39,1.21-3.12.11-.29.81-1.49,1.03-1.66.22-.18.57-.34.73-.31Z"/><path class="cls-38" d="M4.82,8.87s-.2.22.83.39c1.04.18,1.26.1,1.26.1,0,0,.09-.14-.15-.31-.24-.17-1.86-.35-1.94-.18Z"/><path class="cls-38" d="M6.27,6.41c-.6,0-.9.64-1.15,1.71-.29,1.24-.51,2.38-.3,2.82.19.4.53.42.7.38.18-.04.88-1.94,1.15-2.95.27-1,.28-1.95-.4-1.96Z"/><path class="cls-38" d="M9.4,7.01s.22.01.39.23c.17.21,1.6,1.9,1.7,1.94s1.18.07,1.28.11c.09.04.34.46.45.57.06.06.08.19.08.29,0,.06-.07.1-.12.07-.11-.08-.27-.17-.34-.18-.12-.01-.72-.07-.76,0-.04.07-.06.23,0,.34.03.05.08.15.11.24.02.06.04.22-.02.19-.12-.08-.36-.31-.44-.41-.15-.18-.39-.47-.39-.47l-.08-.27s-1.53-.98-2.05-1.28c-.51-.3-.63-.69-.63-.69,0,0,.11-.63.81-.67Z"/><path class="cls-38" d="M4.82,8.87s.76.07,1.36.19c.6.12.73.3.73.3,0,0,.11-1.2.14-1.9.03-.72-.15-1.15-.76-1.24-.61-.09-.97.64-1.15,1.24-.19.64-.32,1.41-.32,1.41Z"/><path class="cls-38" d="M10.51,3.32c-.15.21-.25.37-.27.44s-.02.77-.02.77c0,0,0,.03-.13.07-.12.03-.18-.02-.23,0-.05.02-.07.21-.07.23,0,.04-.05.04-.13.05-.12.02-.09,0-.09,0,0,.03,0,.05-.02.13-.01.04-.11.07-.15.09-.02.01-.07.11-.1.13-.02.02-.04.03-.06.06-.13.14-.28.09-.4.04-.12-.05-.7-.33-.96-.73-.26-.4-.17-.74-.16-.78,0-.03-.27-.32-.33-.46-.06-.14.02-.62.13-.73.06-.06.23-.29.41-.14.18.14.14.55.15.53.6-1.23,1.71-1.43,2.25-1.05.54.37.34,1.13.19,1.34Z"/><path class="cls-38" d="M10.5,2.29s-.08.46-.48.62c-.39.17-.8.1-.8.1,0,0-.59,0-.68.08-.36.27-.47.75-.45.57.01-.18-.02-.46.21-.74-.3.36-.32.7-.32.7,0,0-.06-.35.09-.65.15-.3.32-.83.87-1.17.56-.34,1.28-.15,1.48.13.13.18.08.36.08.36Z"/><path class="cls-38" d="M10.49,2.33s.21.7.05.93c-.07.11-.12.18-.12.18.4-.3.4-.58.42-.86.01-.2-.11-.38-.22-.44-.13-.07-.17-.07-.14.19Z"/><path class="cls-38" d="M7.72,2.78c.03.06.07.11.09.17.02.06.04.12.03.19.01,0,.02,0,.04,0-.02-.11-.14-.05-.18,0-.05.06-.05.17,0,.23,0,0,0,0,0,0,0,0,0,0,0,0,.02,0,.02-.04.01-.05,0-.02-.02-.04-.03-.06,0-.02,0-.03.02-.05.01-.02.03-.03.05-.04.01,0,.06-.02.07,0,0,0,0,.02.02.02.01,0,.02-.02.02-.03.02-.08.01-.17-.02-.25-.02-.07-.06-.15-.12-.19-.02-.01-.02.05-.02.06h0Z"/><path class="cls-38" d="M12.61,9.74c.07.01.13.02.2.03.06,0,.12.01.18.02.06.01.11.04.16.06.02.01.05.03.07.04.02.01.04.04.07.04.01,0,0-.03,0-.04-.03-.04-.09-.07-.13-.1-.05-.03-.1-.05-.15-.06-.06-.02-.13-.02-.19-.02-.07,0-.13,0-.2,0,0,0,0,.03,0,.04h0Z"/><path class="cls-38" d="M12.59,9.53s.03,0,.04,0c.01,0,.03,0,.04,0,.03,0,.06,0,.09,0,.03,0,.06,0,.08,0,.01,0,.03,0,.04,0,.01,0,.03,0,.04,0,0,0,0,0,0,0,0-.01,0-.03,0-.04,0-.01-.02-.02-.04-.02-.03,0-.07-.01-.1-.02-.03,0-.07,0-.1,0-.02,0-.03,0-.05,0-.02,0-.03,0-.05.02,0,0-.01.04,0,.04h0Z"/><path class="cls-38" d="M9.46,3.32c.15.03.29.04.44.07.07.02.14.05.21.09.03.02.06.04.09.06.03.02.06.05.09.06.04,0,.03-.13.01-.14-.05-.05-.12-.08-.18-.11-.07-.03-.14-.05-.21-.06-.15-.02-.3-.02-.45.01,0,0,0,.02,0,.02h0Z"/><path class="cls-38" d="M9.12,2.14c-.07.21-.28.35-.46.47-.1.07-.2.13-.28.22-.04.04-.08.09-.11.13-.03.04-.07.08-.08.13,0,0,0,.02,0,.02.02-.01.03-.04.04-.06.02-.02.03-.05.05-.07.04-.04.08-.08.13-.12.09-.08.19-.14.3-.21.19-.12.37-.25.43-.47,0-.01,0-.04,0-.05,0,0-.01-.02-.02,0h0Z"/><path class="cls-38" d="M9.44,2.02c0,.15-.03.28-.11.4-.04.06-.08.11-.13.16-.06.05-.11.11-.15.17,0,0,0,.05,0,.05.08,0,.14-.06.19-.11.06-.06.11-.12.15-.2.07-.14.12-.33.07-.49,0-.02-.02.01-.02.02h0Z"/><path class="cls-38" d="M9.89,2.11c0,.1-.06.19-.11.27-.03.04-.07.08-.1.13-.04.05-.09.09-.12.14,0,0,0,.04,0,.04.05,0,.1-.05.14-.08.05-.03.09-.08.12-.13.07-.1.1-.23.1-.36,0,0,0-.04-.01-.04-.01,0-.01.02-.01.03h0Z"/><path class="cls-38" d="M7.08,2.87c-.07-.21-.06-.42,0-.63.03-.11.07-.21.11-.31.04-.1.09-.2.13-.31,0,0,0-.06-.01-.05-.03.01-.04.02-.05.04-.02.02-.03.05-.04.07-.03.05-.05.11-.07.17-.05.12-.09.24-.13.36-.06.22-.09.5.04.7.02.04.03-.03.03-.05h0Z"/><path class="cls-38" d="M7.66,1.44c-.07.07-.12.16-.15.25-.02.05-.03.1-.03.16,0,.05,0,.11.02.15,0,0,.01,0,.01,0,.01-.03.02-.07.02-.1,0-.04.02-.08.03-.12.03-.09.08-.18.12-.26,0-.01,0-.04,0-.05,0,0-.01-.03-.02-.02h0Z"/><path class="cls-38" d="M10.54,2.5c0-.17-.08-.35-.18-.48-.05-.07-.11-.13-.19-.18-.04-.02-.08-.05-.12-.06-.02,0-.05-.01-.07-.02-.02,0-.05,0-.07-.01-.01,0,0,.04,0,.04.02.01.04.03.06.05.02.01.04.03.06.04.04.03.08.05.12.08.07.05.12.09.18.15.1.12.15.25.2.39,0,.02.01,0,.01,0h0Z"/><path class="cls-38" d="M5.79,10.14s.24.07.82.22c.58.16,2,.54,2.08.55.09,0,.42-.05.42-.05,0,0,1.09-.29,1.13-.29s.25,0,.31,0c.06.02.12.1.12.1,0,0,.18.18.15.44-.03.26-.14.31-.14.31,0,0-.11.14-.25.18-.15.05-.32.05-.32.05,0,0-.92-.19-1.02-.18-.11,0-.3,0-.3,0,0,0-1.45.04-2.28,0-.83-.03-1.28-.15-1.4-.23-.12-.09-.25-.94.69-1.12Z"/><path class="cls-38" d="M8.94,10.93s.16-.23.37-.34c.21-.11.34-.14.48-.23.1-.06.18-.15.22-.19.01-.01.04-.01.04,0,.02.04.04.12,0,.22-.06.15-.41.41-.41.41l-.71.14Z"/><path class="cls-38" d="M12.64,11.57c.2-.01.38-.08.55-.17.17-.09.35-.22.46-.39.01-.02.02-.14-.02-.12-.08.05-.15.11-.22.17-.08.06-.16.11-.24.17-.17.11-.35.18-.53.26-.02,0-.02.08,0,.08h0Z"/><path class="cls-38" d="M4.51,26.49c.13.03.26.03.4.04.13,0,.25,0,.38,0,.26,0,.52,0,.78,0,.26,0,.52-.01.78-.02.13,0,.26,0,.39-.01.12,0,.24-.02.36-.05.11-.03.21-.08.3-.15.09-.07.19-.16.23-.26,0,0,0-.05,0-.04-.04.02-.07.06-.1.09-.04.04-.08.07-.12.1-.08.06-.18.1-.28.13-.12.03-.24.04-.35.05-.12,0-.25,0-.38.01-.51.01-1.01.02-1.52.03-.14,0-.29,0-.43,0-.14,0-.29,0-.43.02-.02,0-.02.07,0,.07h0Z"/><path class="cls-38" d="M5.31,23.81c-.05.19.02.4.07.58.05.2.1.4.15.6.05.18.08.37.18.53.04.07.1.13.17.17.07.05.16.06.24.07.11.01.23.03.34.04.06,0,.11.01.17.02.06,0,.11.02.17-.01.02,0,.01-.06,0-.07-.04-.03-.08-.03-.12-.03-.05,0-.1,0-.14-.01-.09-.01-.19-.02-.28-.04-.16-.03-.33-.06-.45-.19-.11-.13-.14-.29-.18-.45-.05-.18-.1-.36-.14-.54-.03-.1-.05-.2-.08-.3-.03-.1-.07-.21-.06-.32,0-.01,0-.04,0-.05-.01,0-.02,0-.02.01h0Z"/><path class="cls-38" d="M3.65,26.21c.1.04.21.05.32.06.06,0,.11.01.17.02.06,0,.11,0,.14-.05,0,0,0-.02,0-.03-.04-.03-.09-.02-.14-.03-.05,0-.11,0-.16-.01-.11,0-.21-.02-.32,0-.02,0-.02.05,0,.05h0Z"/><path class="cls-38" d="M9.56,3.57s.02.09.14.15.26.05.26.05v.07s-.2-.02-.29-.07-.11-.2-.11-.2Z"/><path class="cls-38" d="M9.61,3.7s.11.14.15.19.1.07.1.07c0,0-.03.04-.06,0s-.16-.14-.2-.26Z"/><ellipse class="cls-38" cx="9.83" cy="3.87" rx=".08" ry=".03" transform="translate(1.22 9.99) rotate(-56.89)"/><path class="cls-38" d="M5.86,3.98l.47-.21s-.17.32.06.74,1.19.81,1.19.81c0,0-.49.87-.53.83s-.84-.93-1.06-1.39-.13-.77-.13-.77Z"/><path class="cls-38" d="M5.97,2.93s-.05.18,1.33-.09c1.37-.27,1.78-.59,2.51-.71s1.76.02,1.76.02l-1.07-.61s-1.43.31-2.32.37c-.9.05-1.25-.04-1.25-.04l-.96,1.06Z"/><path class="cls-38" d="M6.93,1.87s.28-1.19.35-1.32c.07-.13,2.29-.15,2.37-.1.08.05.85,1.09.85,1.09,0,0-1.02.33-2.52.43-.83.11-1.04-.11-1.04-.11Z"/><path class="cls-38" d="M6.99,1.89s.05.03.08.05c.03.01.05.02.08.03.06.02.11.04.17.05.12.03.24.04.36.04.24,0,.48-.02.72-.04.47-.05.94-.11,1.39-.22.13-.03.25-.07.37-.11.13-.05.26-.09.37-.16.02-.01.02-.09,0-.08-.11.04-.22.08-.33.12-.11.04-.22.07-.33.1-.23.06-.46.11-.69.15-.23.04-.46.06-.7.09-.23.02-.47.05-.71.05-.13,0-.27,0-.4-.02-.07,0-.13-.02-.19-.04-.03,0-.06-.02-.09-.03-.03-.01-.07-.02-.1-.03-.02,0-.02.05,0,.06h0Z"/><rect class="cls-29" x=".43" y="19.81" width="22.66" height=".33"/><polygon class="cls-9" points=".43 19.81 2.69 18.28 21.06 18.28 23.09 19.81 .43 19.81"/><rect class="cls-37" x="21.86" y="20.14" width=".61" height="7.21"/><rect class="cls-37" x="20.68" y="22.23" width=".61" height="2.98" transform="translate(-10.68 24.68) rotate(-50.23)"/><rect class="cls-37" x="19.61" y="20.14" width=".61" height="4.63"/><path class="cls-16" d="M8.61,19.06c-.28.05-.69.08-.69.08l-.57-.47-.45-1.22.34-1.35.55.16s-.18,1.11-.18,1.25c0,.13.55,1.04.55,1.04,0,0,0,0,0,0,.02.01.3.18.45.5Z"/><path class="cls-21" d="M8.61,19.06c-.28.05-.69.08-.69.08l-.57-.47s.47-.18.81-.12c0,0,0,0,0,0,.02.01.3.18.45.5Z"/><path class="cls-14" d="M16,19.14s-.49.07-.69-.06c-.2-.14-.23-.37-.23-.37,0,0-.07-.04-.12-.16s.04-.41,0-.73c-.04-.32-.33-3.19-.33-3.19l1.21.71.13,2.95.04.86Z"/><path class="cls-21" d="M16,19.14s-.49.07-.69-.06c-.2-.14-.23-.37-.23-.37,0,0,.23-.19.5-.31.27-.12.38-.12.38-.12l.04.86Z"/><path class="cls-7" d="M7.28,16.28s.41.16.69.05.37-.35.52-.43c.15-.08.47-.21.69-.47.23-.25.29-.59.29-.59l-.73-.12-1.53,1.17.06.37Z"/><path class="cls-18" d="M8.15,19.46s-.6.07-.77,0c-.17-.07-.32-.24-.32-.24,0,0-.19-.05-.23-.16-.04-.11-.57-1.45-.57-1.45l.39-2.07.96.29s-.45,1.45-.45,1.6.06.27.57,1.36c.39.24.45.65.43.68Z"/><path class="cls-23" d="M8.15,19.46s-.6.07-.77,0c-.17-.07-.32-.24-.32-.24,0,0,.31-.41.66-.44.39.24.45.65.43.68Z"/><path class="cls-18" d="M16.92,19.26s-.82.11-.97,0c-.15-.11-.31-.41-.31-.41,0,0-.14,0-.25-.14-.11-.14-.07-3.4-.07-3.4,0,0,.21-.12,1.59-.68,0,.51-.68,2.09-.69,2.22s-.06,1.39.17,1.55c.33.14.53.86.53.86Z"/><path class="cls-23" d="M16.92,19.26s-.82.11-.97,0c-.15-.11-.31-.41-.31-.41,0,0,.39-.37.75-.45.33.14.53.86.53.86Z"/><path class="cls-12" d="M6.84,10.5s-.59.26-.86.98c-.28.73,0,1.79,0,1.79,0,0-.26.67-.12.98.08.59.55.96.55.96,0,0,.06.67.46.81.39.14.69.08.81,0,.12-.08.35-.33.35-.33,0,0,.43-.22.59-.41.16-.2.28-.35.28-.35,0,0,.61.26,1.4.33.79.08,1.93.14,2.46.04.53-.1,1.36-.53,1.46-.55.1-.02.73.2.75.26.02.06-.08.51.69.65.41.35.96-.02.96-.02,0,0,.28-.16.47-.49.2-.33.08-.45.08-.45,0,0,.39-.51.61-1.26s0-1.22,0-1.22c0,0,.39.1.79-.71.39-.81,1.23-1.95,1.23-1.95,0,0-.48-.61-1.03-.83-.55-.22-1.09-.64-1.09-.64,0,0-1.1.91-.86.4-.57.22-.83.71-.83.71,0,0-.43.08-.67.33-.89-.24-1.34-.1-1.73.1-.77.02-1.18.06-1.57.2-1.2-.22-2.01-.16-2.6,0-1.36-.2-1.88.12-2.13.32-.12.1-.43.34-.43.34Z"/><path class="cls-3" d="M14.63,10.88h-3.95s.35.98.29,1.37c1.74-.02,3.39-.14,3.39-.14,0,0-.14-.87.27-1.24Z"/><path class="cls-13" d="M12.48,11.68c-.28.06-.52.29-.58.57-.02.11-.03.22-.08.31-.07.15-.23.22-.36.32-.17.13-.31.31-.33.52s.13.44.34.46c.11.01.22-.03.3-.09.09-.06.16-.15.22-.24.02-.03.05-.06.08-.08.05-.02.11,0,.16.03.05.03.09.07.14.1.08.03.17.02.26,0,.06-.02.13-.04.18-.08.09-.08.13-.21.15-.33.02-.12.03-.24,0-.36-.03-.16-.11-.31-.14-.47-.04-.24.06-.48.17-.7-.2-.06-.52.03-.52.03Z"/><path class="cls-13" d="M8.43,12.14c-.11-.04-.21,0-.29.08-.09.09-.12.21-.14.32-.02.13-.02.26.02.39.04.12.11.22.23.27.12.06.3.12.43.05.04-.02.04-.17-.01-.17-.07,0-.13,0-.2-.02-.07-.01-.13-.04-.19-.07-.11-.05-.18-.13-.19-.26-.01-.11,0-.23.05-.33.06-.11.18-.17.3-.2.02,0,.02-.07,0-.08h0Z"/><path class="cls-13" d="M6.95,11.8c-.1.06-.16.15-.21.25-.05.13-.08.28-.09.43,0,.26.09.54.32.67,0-.06,0-.12,0-.18-.28.11-.39.47-.39.74,0,.28.1.65.38.77.07.03.14.04.21.03.08-.01.14-.06.2-.11.02-.02.02-.05.02-.08,0-.01-.01-.06-.04-.04-.04.03-.1.04-.15.04-.06,0-.11,0-.17-.02-.11-.03-.2-.11-.26-.2-.13-.2-.13-.47-.03-.68.05-.12.14-.21.26-.26.03,0,.03-.07.03-.09,0-.03,0-.08-.03-.09-.17-.1-.26-.29-.26-.48,0-.11.03-.22.06-.33.04-.1.09-.21.16-.28.01-.01.01-.09-.01-.07h0Z"/><path class="cls-13" d="M9.67,12.6s.07.08.1.13c.03.04.05.09.07.13.03.08.05.16.04.24-.02.18-.15.34-.3.45-.04.03-.03.11-.02.15.04.15-.06.31-.15.41-.13.14-.31.22-.45.34-.02.02-.03.15.01.14.11-.03.2-.08.29-.14.09-.06.17-.13.24-.22.14-.18.2-.42.14-.64,0,.05-.01.1-.02.15.2-.14.34-.37.35-.62,0-.13-.01-.26-.07-.37-.02-.05-.05-.09-.09-.13-.03-.03-.08-.08-.13-.07-.02,0,0,.04,0,.05h0Z"/><path class="cls-13" d="M10.13,14.15c-.1.21-.03.51.17.63.06.04.14.05.21.07.07.02.14.03.21.04.07,0,.14,0,.21,0,.07-.02.15-.03.19-.1,0-.01.01-.05,0-.06-.02,0-.05,0-.07,0-.03,0-.06,0-.09,0-.06,0-.12,0-.18-.01-.12-.01-.24-.05-.36-.08-.09-.03-.17-.08-.22-.17-.04-.07-.05-.15-.02-.22.01-.03.01-.07,0-.09-.01-.02-.03-.02-.04,0h0Z"/><path class="cls-13" d="M10.23,10.66c.15.03.36.05.46.18.05.07.08.16.09.24,0,.1-.04.18-.02.28,0,.06.03.11.06.16.02.05.04.09.06.14.03.1.06.2.07.3.02.17-.01.33-.09.49-.09.17-.23.31-.4.4-.03.02-.03.13.01.13.42-.07.58-.57.57-.93,0-.24-.07-.48-.17-.69,0-.01,0-.03-.02-.04,0,0,0,0,0,0,0,.04,0,.04,0,.02,0-.03.01-.06.01-.09,0-.06,0-.12,0-.18-.01-.11-.04-.21-.1-.3-.11-.19-.34-.2-.53-.19-.03,0-.03.09,0,.09h0Z"/><path class="cls-13" d="M16.01,9.15s-.06-.03-.09-.03c-.03,0-.07,0-.1.01-.06.02-.12.05-.18.09-.11.07-.2.17-.28.29-.18.28-.22.65-.11.96.06.15.17.29.31.37,0-.06,0-.12-.01-.18-.16.26-.15.6-.03.87.06.12.14.24.25.33.05.05.11.09.17.13.06.04.12.07.19.08.03,0,.04-.06.04-.07,0-.03,0-.07-.03-.09-.05-.04-.1-.06-.15-.09-.05-.03-.1-.06-.14-.1-.09-.07-.17-.16-.23-.25-.12-.2-.14-.43-.01-.63.02-.04.04-.15-.01-.18-.23-.13-.34-.39-.3-.65.04-.24.17-.47.36-.62.05-.04.11-.08.17-.11.03-.01.06-.03.09-.04.04-.02.06-.04.1-.06,0,0,0-.01,0-.01h0Z"/><path class="cls-7" d="M14.39,12.22c-.04-.28-.05-.57.03-.84.03-.11.08-.22.14-.32.07-.11.14-.22.23-.32,0,0,0-.04,0-.04-.11.05-.2.13-.27.24-.07.12-.13.24-.16.38-.08.31-.06.63.01.94,0,.04.03,0,.03-.03h0Z"/><path class="cls-13" d="M15.41,14.73c.04.2.21.36.4.42.19.06.45.02.55-.17.06-.11.06-.28-.03-.37,0,.05,0,.09,0,.14.16-.07.33-.17.38-.34.03-.08.03-.17.01-.25-.02-.07-.05-.15-.12-.17-.04-.01-.03.1-.01.12.04.03.07.07.08.13,0,.05-.01.1-.04.15-.07.11-.21.18-.33.23-.04.02-.02.11,0,.14.08.09-.02.19-.11.23-.09.05-.2.06-.3.05-.19-.03-.37-.15-.46-.32-.02-.03-.02.03-.02.04h0Z"/><path class="cls-13" d="M14.62,14.02c.1.13.2.27.29.41.04.07.09.14.11.21.03.07.04.15.05.23,0,.02.02.02.02,0,0-.09,0-.18-.02-.27-.02-.09-.07-.17-.12-.25-.05-.07-.09-.15-.15-.22-.03-.03-.05-.06-.08-.09-.02-.01-.03-.03-.05-.04-.02-.01-.04-.02-.06-.03-.02,0-.01.04,0,.05h0Z"/><path class="cls-7" d="M16.96,14.64s.04.04.07.06c.03.01.06.03.08.05.03.04.04.1.04.15,0,.06-.02.12-.05.17-.01.03-.03.06-.05.09-.02.03-.05.06-.06.09,0,.01,0,.06.01.06.03,0,.07-.03.08-.05.03-.03.05-.06.07-.09.04-.08.06-.17.06-.26,0-.08-.01-.17-.05-.25-.02-.03-.04-.06-.08-.07-.03-.01-.07,0-.11-.02-.02,0-.02.05-.01.05h0Z"/><path class="cls-7" d="M15.54,15.54c.03.09.09.18.16.24.07.06.17.09.26.09.09,0,.19,0,.28-.02.1-.02.18-.07.24-.15,0,0,0-.05,0-.04-.08.02-.16.05-.24.07-.09.02-.17.02-.26.02-.09,0-.18-.02-.25-.07-.07-.04-.11-.11-.18-.17,0,0,0,.03,0,.03h0Z"/><path class="cls-7" d="M17.61,12.19s.06.03.1.04c.04,0,.08,0,.12,0,.07,0,.14-.03.21-.06.07-.03.13-.06.18-.11.05-.05.11-.12.12-.19,0,0,0-.02,0-.02-.02-.01-.04,0-.06.02-.03.02-.05.04-.07.06-.05.05-.11.08-.17.11-.06.03-.13.06-.2.08-.04,0-.07.01-.11.01-.04,0-.07,0-.11,0-.02,0-.01.04,0,.05h0Z"/><path class="cls-7" d="M7.01,16.08c.08.02.16.03.24.05.08.01.16.03.23.01.14-.03.26-.11.35-.21.05-.05.08-.12.15-.15.06-.03.13-.04.19-.06.12-.05.23-.12.33-.21.1-.09.22-.22.25-.36,0,0,0-.06-.02-.05-.02.01-.03.03-.05.05-.02.03-.04.05-.06.08-.04.05-.08.1-.12.14-.09.09-.2.16-.31.21-.06.03-.12.05-.19.07-.07.02-.11.06-.15.12-.09.1-.21.2-.34.24-.08.03-.17.02-.25.02-.09,0-.18,0-.27,0-.02,0-.01.05,0,.05h0Z"/><path class="cls-19" d="M12.12,12.41c.02-.11.05-.23.11-.32.03-.05.08-.09.13-.12.03-.01.06-.02.09-.03.03,0,.07-.02.09-.04,0,0,0-.02,0-.03-.05-.05-.13-.03-.19,0-.06.03-.11.08-.15.13-.08.11-.1.25-.11.38,0,0,0,.03,0,.04,0,0,.01,0,.02-.01h0Z"/><path class="cls-19" d="M11.49,13.13c-.04.06-.09.12-.11.19-.02.07-.02.16.01.23.03.07.08.11.15.13.03,0,.07.02.1,0,.04-.01.05-.06.05-.1,0,0,0-.03-.01-.03,0,0-.01,0-.02,0,0,0-.02,0-.03,0-.03,0-.05,0-.08,0-.05,0-.09-.03-.12-.08-.02-.04-.02-.07-.01-.11.01-.06.04-.12.08-.18,0-.01,0-.03,0-.04,0,0,0-.02-.02,0h0Z"/><path class="cls-19" d="M11.07,11.35s.08.02.12.03c.04,0,.08,0,.12,0,.07,0,.15,0,.22,0,.07,0,.15,0,.22-.02.07-.01.16-.03.22-.07,0,0,0-.02,0-.02-.07-.02-.15-.01-.22,0-.08,0-.15.02-.23.02-.07,0-.15.01-.22.01-.04,0-.07,0-.11,0-.04,0-.08.01-.12.02-.01,0,0,.03,0,.04h0Z"/><path class="cls-19" d="M11.4,11.66c.09,0,.18,0,.26,0,.04,0,.08,0,.13,0,.04,0,.09,0,.12-.02.02-.02.02-.1,0-.1-.02,0-.05,0-.07,0-.02,0-.04,0-.06,0-.04,0-.08,0-.13,0-.09,0-.17,0-.26.01-.03,0-.02.09,0,.09h0Z"/><path class="cls-19" d="M13.61,11.75c.07,0,.14,0,.21,0,.03,0,.07,0,.1,0,.03,0,.08,0,.09-.03,0,0,0-.02,0-.03-.02-.03-.06-.02-.09-.02-.04,0-.07,0-.11.01-.07.01-.14.02-.21.03-.01,0-.01.04,0,.04h0Z"/><path class="cls-19" d="M13.3,12.01c.14-.01.28-.02.42-.02.07,0,.14,0,.21,0,.03,0,.07,0,.1-.01.03,0,.07-.01.1-.03,0,0,0-.02,0-.02-.05-.03-.13-.04-.2-.04-.07,0-.14,0-.21.01-.14.01-.28.04-.42.07-.02,0-.01.05,0,.05h0Z"/><path class="cls-12" d="M17,8.14s.08-.08.08-.08c-.06-.08-.02-.13,0-.22,0-.05.04-.06.05-.09,0-.04-.01-.1-.01-.17,0-.04.11-.14.12-.17.02-.05-.03-.07,0-.1.02-.02.09.01.12,0,.02,0,.01-.1.02-.11.07-.04.09.01.1,0,0-.03.11-.07.15-.09.03-.02.09-.12.13-.19.04-.06.18,0,.18,0,0,0,.05-.12.1-.14.05-.03.17,0,.17,0l.09-.05s.07.06.11.03c.04-.03.12-.08.12-.08,0,0,.06.02.06.06,0,.04.11.01.13.05.02.04.07.18.07.3,0,.12,0,0,.04.09s.17.12.15.21c-.02.09.02.08.01.15,0,.07.08.09.08.14,0,.06-.36-.02-.36-.02,0,0-.05.05-.12.15s.03.22,0,.25c-.03.03.02.08.06.16.01.03.02.05.02.07l.13.14s.06-.09.12-.12c.09-.04.22.03.26-.01.05-.04.12-.09.18-.11.06-.01.11.11.19.12.08.01.02.03.03.05.01.02.09.09.15.09.06,0,.04.09.1.13.06.04.11.12.14.17s.11.04.07.07.02.07.06.16c.04.09.06.07.03.19s-.08.09-.06.13c.02.03,0,.17-.11.27-.03.02-.04.04-.05.05l.06.07s-.01.03-.03.09c0,0-.09.25-.27.24s-.18.16-.31.25-.19.22-.28.25-.04.21-.12.4-.45.54-.53.54-.92-.06-.92-.06"/><path class="cls-20" d="M20.05,8.8s.37-.56.42-.64.22-.3.3-.32.28-.08.36-.27.1-.27.06-.32-.18-.12-.18-.12c0,0,.06-.22.04-.31s-.2-.16-.2-.16c0,0-.28-.13-.47-.14s-1.08.21-1.19.24-.21.04-.26.04-.28,0-.28,0c0,0,.05.13.09.17.09.07.02.16.07.2s.11-.05.13.04.08.08.02.17-.07.17-.02.19l.04.02-.27.07s-.15.12-.17.18.02.23.03.29.12.28.12.28l.03.1s.15-.18.22-.18.16.02.22-.04.18-.1.22-.08.33.28.37.32l.21.2.07.07Z"/><polygon class="cls-35" points="18.84 7.85 18.77 7.84 18.73 7.9 18.82 8.05 18.8 8.21 18.86 8.2 18.94 8.07 18.91 7.9 18.84 7.85"/><path class="cls-31" d="M18.98,7.73s-.06,0-.07.02-.05.07-.05.07c0,0-.05,0-.06.02h-.01s.06.03.08.07.05.12.04.16-.02.06-.05.09-.07.05-.07.05c0,0-.05.04,0,.04s.12-.05.16-.11.03-.14.01-.19-.04-.07-.03-.1.06-.09.08-.11,0-.03-.03-.03Z"/><path class="cls-31" d="M18.76,7.9s.07,0,.1.07c.02.06.04.09,0,.17,0,.02-.06.12-.06.12,0,0-.02-.19-.02-.22s0-.14,0-.14Z"/><path class="cls-31" d="M18.62,7.89s.08-.11.13-.08.06.02.05.03-.18.05-.18.05Z"/><path class="cls-11" d="M20.64,7.59s.27.02.48-.2c.04-.05.13-.06.08-.15-.02-.03-.08-.06-.08-.06l-.2.09-.28.32Z"/><path class="cls-31" d="M21.02,7.12s-.14.14-.16.18-.11.16-.11.16c0,0-.21.1-.14.12s.13-.02.15-.06.25-.28.28-.31.08-.03.08-.03l-.09-.06Z"/><path class="cls-11" d="M20.6,6.71c-.07.04-.17.07-.18.14-.02.13.24.08.27.03s.11-.18.11-.18l-.03-.11-.12-.04s.02.12-.05.16Z"/><path class="cls-31" d="M20.71,6.59s.01.22-.06.25-.16-.03-.18.01.02.06.05.07.1.04.17-.04.08-.16.08-.16c0,0,0-.15-.06-.13Z"/><path class="cls-13" d="M18.76,6.88s.04.13.03.18v.05s0,.07.05.07.11.11.12.14,0-.02.01.04-.01.1,0,.11.06.1.06.1l-.09.11s.13-.14.26.12c.01.02.02.46.04.43.06-.1,0-.36.04-.47.06-.15.18-.21.36-.33.1-.06.39-.22.45-.36.03-.05-.36.04-.39.04-.02,0-.3.09-.53.03-.13-.03-.27-.23-.27-.23-.01,0-.02-.02-.05-.02s-.11-.02-.11-.02Z"/><path class="cls-6" d="M19.55,8.29s.17.11.35.06.7-.39.7-.39c0,0-.36.54-.4.61s-.15.22-.15.22l-.18-.14-.32-.37Z"/><path class="cls-6" d="M18.66,7.9l.13-.07s-.05.03-.03.04.03,0,.03,0c0,0-.03.02-.02.03s.03.03.03.03c0,0-.04,0-.03.02s.03.01.03.01c0,0-.03.03-.01.04s0,.03,0,.03c0,0-.03.03-.01.04s.01.02.01.02c0,0-.03.04-.02.05s0,.03,0,.03v.03s-.01.03-.01.03h-.02s0-.17-.02-.23-.03-.13-.08-.1Z"/><path class="cls-6" d="M19.3,8.16s-.09.09-.12.12-.05-.03-.11-.01-.04.02-.11.05-.12.03-.17.1-.1.01-.14.01-.14.02-.16.05-.06.07-.06.07c0,0,.08,0,.12,0s.05-.03.11-.02.18-.02.2-.04.04-.09.09-.09.11-.03.15-.04.07,0,.11-.01.07-.09.1-.1.13.04.13.04c0,0,.1-.02.15.07s.09.12.09.12l-.02-.12s-.08-.1-.12-.11-.13-.02-.13-.02l-.1-.05Z"/><path class="cls-6" d="M18.5,7.25s.07-.11.11-.07.08.03.08.03l.08-.02.02-.12s0,.1-.09.08-.14-.02-.16,0c-.08.07-.04.11-.04.11Z"/><path class="cls-6" d="M18.48,6.89c.05,0,.08,0,.11.02s.04-.02.08-.07.04-.07.04-.07c0,0-.06-.02-.06.02s-.07.06-.07.06c0,0-.16.03-.1.04Z"/><path class="cls-6" d="M18.97,7.36s-.07.15.01.15,0,.06,0,.06v.07s.13.06.16.08,0,.03,0,0-.04-.25-.04-.25l-.15-.11Z"/><path class="cls-6" d="M18.75,6.96l.03.16s-.05.05,0,.07.09.02.11.04.06.06.06.06l.03.05v.08s.1.08.1.08l.05-.02v.04s.07-.11-.03-.14c-.04-.01-.04-.07-.06-.08-.05-.04-.07-.06-.04-.08s-.06-.08-.08-.1-.13-.07-.09-.11c.04-.05-.06-.13-.06-.13v.07Z"/><path class="cls-13" d="M18.42,7.83c.05.08.11.11.12.13s-.07.13-.02.16.09.03.09.03c0,0,.04.04.04.09s0,.07.02.09.06.04.06.06.04.03.06.03,0-.02-.02-.04-.03-.03-.02-.06.02-.1,0-.1-.05,0-.04-.03,0-.05-.02-.06-.11.02-.09-.04.04-.07.03-.1-.01-.04-.03-.05-.04,0-.05-.04v-.04s.04.02,0,0-.1-.03-.1-.03Z"/><path class="cls-6" d="M18.54,7.81s.11-.08.14-.1c.01,0,.02-.06.04-.07.04-.01.11.02.12.03.05.04.08.06.11.05s.07-.04.08-.05.06-.07.06-.07l-.09-.08s.05.08,0,.09-.08,0-.13,0-.22-.01-.25.01c-.01.01,0,.06-.03.1-.02.04-.06.08-.06.08Z"/><path class="cls-13" d="M16.81,8.67c-.1.08-.18.18-.23.3-.05.13-.07.28-.05.42.03.27.2.52.45.65-.01-.04-.02-.08-.03-.11-.02.23.17.38.37.45.1.04.21.06.31.06.05,0,.1,0,.15,0,.03,0,.05,0,.08-.01.03,0,.05-.02.07-.04.02-.03.02-.11-.01-.13-.04-.02-.08-.01-.12,0-.04,0-.09,0-.13,0-.09,0-.18-.01-.27-.04-.08-.02-.16-.06-.24-.1-.03-.02-.06-.04-.09-.07-.01-.01-.04-.04-.04-.06,0-.03,0-.1-.03-.11-.19-.09-.36-.27-.39-.49-.04-.22.06-.47.21-.63.01-.01,0-.08,0-.07h0Z"/><path class="cls-6" d="M15.9,9.32s-.07.16.14.15.49-.16.61-.24.83-.62.83-.62l-.02-.12-1.56.83Z"/><path class="cls-20" d="M17.36,7.79s-.16.12-.36.17-.61.16-.75.25-.3.46-.36.59-.07.37-.08.47.1.16.23.14.25-.05.3-.11,1.07-.77,1.07-.77c0,0,.03-.06.31-.17.1-.04-.11-.19-.11-.22s-.04-.36-.04-.41-.23.07-.23.07Z"/><path class="cls-17" d="M16.05,8.87c-.09.28,0,.41.04.35s.24-.3.35-.41c.02-.02.11-.14.18-.2.08-.07.39-.31.42-.35.04-.04-.37.02-.66.2-.2.12-.31.36-.33.4Z"/><path class="cls-13" d="M17.08,7.93l.36-.18s.12-.04.14.03.02.19.02.19v.17s-.11-.08-.25-.09-.6-.03-.6-.03l.32-.09Z"/><polygon class="cls-29" points="21.82 18.86 21.82 6.44 22.07 6.24 22.07 19.04 21.82 18.86"/><polygon class="cls-29" points="20.01 9.38 19.07 8.19 22.09 6.12 22.08 6.3 19.32 8.23 20.04 9.14 21.98 7.63 22.09 7.76 20.01 9.38"/><path class="cls-12" d="M11.19,19.01s-.05-.03-.07-.04c-.11-.05-.23-.07-.35-.05-.12.02-.22.09-.33.14-.12.05-.25.08-.38.09-.17,0-.34-.01-.51-.04-.14-.02-.29-.04-.43-.06-.06,0-.13-.02-.18-.06-.04-.04-.07-.1-.07-.16,0-.14.08-.35.25-.34.09,0,.18.04.26.09,0,0,0-.1,0-.11,0-.05-.01-.09-.02-.14,0-.08,0-.16.04-.22.08-.11.25-.09.36-.04.13.06.21.19.24.33.32-.32.64-.08.69-.04.05.04.8-.07.99.04.19.11.27.25.27.25,0,0,.2-.13.32-.04.14.1.05.28-.08.32-.05.01-.11.02-.16.01-.09,0-.17-.03-.26-.04-.1-.01-.17,0-.26.06-.09.06-.2.08-.31.06Z"/><path class="cls-13" d="M9.39,18.55c-.02-.08-.05-.17-.04-.25,0-.04.02-.07.04-.1.02-.04.06-.05.1-.06.16-.02.34.04.43.18.01.02.02.04.03.06,0,.02,0,.03.01.04,0,0,0,0,0,.01,0-.01,0,0,0,0,0,0,0,0,0,.01,0,.02,0-.01,0,0,0,0,0,.03,0,.02,0,0,0,.03,0,.02-.01.04-.02.1,0,.14.02.03.05.04.06,0,.07-.22,0-.5-.22-.6-.09-.04-.2-.05-.3-.03-.05.01-.1.03-.13.08-.03.05-.05.11-.06.16-.02.12,0,.26.07.36.02.02.02-.04.02-.04h0Z"/><path class="cls-13" d="M10.56,18.55s.08-.05.13-.07c.05-.02.11-.04.17-.05.05-.01.11-.01.16-.01.06,0,.11,0,.17,0,.02,0,.02-.06,0-.07-.1-.06-.25-.04-.36,0-.11.03-.24.08-.27.19,0,0,0,.03,0,.02h0Z"/><path class="cls-13" d="M9.45,18.89s.09-.11.15-.11c.06,0,.13.04.16.09.01.02.02.05.04.06.02.02.05,0,.07-.02.03-.02.06-.02.1-.02.03,0,.06.02.08.03.02.01.02-.05.01-.06,0-.02-.01-.03-.03-.04-.01,0-.03-.01-.05-.02-.03-.01-.06-.01-.1-.01-.02,0-.03,0-.05,0-.01,0-.02,0-.03-.02-.02-.02-.03-.05-.05-.07-.02-.01-.05-.02-.08-.03-.03,0-.07-.02-.1-.01-.07,0-.12.09-.15.14,0,.01,0,.09.02.06h0Z"/><path class="cls-13" d="M11.23,18.75c.03-.07.1-.09.17-.1.04,0,.08-.01.13-.01.03,0,.08,0,.09.04,0,.01.01.02.02,0,0-.01,0-.04,0-.05,0-.03-.01-.05-.03-.07-.02-.01-.04-.02-.06-.02-.03,0-.06,0-.08,0-.03,0-.05,0-.08.01-.09.02-.18.07-.19.17,0,0,0,.05.02.03h0Z"/><path class="cls-12" d="M13.68,18.62s-.14-.04-.11-.13c.03-.09-.13-.36-.27-.33-.14.02-.32.12-.33.39-.03.03-.36.04-.28.24.08.2.35.08.59.06.24-.02.32.12.72.16.39.03.58,0,.63-.1.05-.11,0-.36-.23-.29-.23.07-.38.09-.45.08-.07-.01,0-.11-.26-.08Z"/><path class="cls-13" d="M13.04,18.61s-.03-.06-.01-.1c.01-.04.04-.08.06-.11.02-.04.05-.07.08-.09.04-.02.08-.03.13-.03.08,0,.16.04.21.09.01.01.02.03.03.04,0,0,0,.02,0,.01,0,0,0,0,0,.01,0,0,0,0,0,0,0,0,0,0,0,0,0,0,0,0,0,0,0,0,0,.01,0,.02,0,.03-.01.06,0,.09,0-.01,0-.03,0-.04,0,0,0,.02,0,.03,0,0,0,.07.02.06.02,0,.03,0,.04-.02.01-.02.02-.05.02-.07,0-.05,0-.11-.01-.16-.02-.08-.08-.15-.16-.18-.08-.03-.18-.03-.25,0-.08.03-.13.12-.16.2-.03.05-.04.11-.04.17,0,.05.01.11.05.14.01,0,.02-.01.02-.02,0-.02,0-.04,0-.05h0Z"/><path class="cls-13" d="M13.86,18.8s.04,0,.07-.01c.02,0,.05-.01.07-.02.05-.01.1-.02.15-.03.11-.02.2-.02.3.02.03.01.03-.08,0-.09-.09-.06-.21-.05-.31-.03-.05.01-.11.03-.16.04-.05.02-.1.04-.13.08,0,0,0,.04,0,.04h0Z"/><path class="cls-13" d="M13.17,18.52s.02-.02.03-.02c.01,0,.03-.01.05-.01.02,0,.03,0,.05.02,0,0,.01.01.02.01,0,0,.01,0,.02,0,.01,0,.01-.03,0-.03,0-.02,0-.03-.02-.05,0,0-.01-.02-.02-.02-.02-.01-.04-.01-.06-.01-.02,0-.04.01-.05.02-.02.02-.03.04-.03.06,0,0,0,.02,0,.02,0,0,0,0,0,0h0Z"/><path class="cls-12" d="M12.96,19.39c.05-.06.06-.15.02-.22-.03-.04-.07-.07-.16-.08-.22,0-.31.03-.39.12-.09.08-.35-.03-.46,0-.11.03-.22.17-.13.21.09.04.38.06.49.05.1,0,.23-.01.42,0,.08,0,.16-.03.21-.09h0Z"/><path class="cls-13" d="M12.32,19.38c.05-.07.12-.13.21-.15.05-.01.1-.02.15-.03.02,0,.05,0,.07,0,.03,0,.05,0,.08-.01.02,0,.01-.04,0-.05-.02-.02-.04-.04-.07-.04-.03,0-.06,0-.09,0-.06,0-.11.02-.17.04-.1.04-.17.11-.21.2,0,.01,0,.03,0,.04,0,0,.01.02.02,0h0Z"/><path class="cls-13" d="M12.62,19.37s0,0,0,0c0,0,0,0,0,0,0,0,0,0,0,0,0,0,0,0,0,0,0,0,0,0,.01,0,0,0,.02,0,.03,0,0,0,.02,0,.03,0,0,0,.02,0,.03,0,0,0,.01,0,.01-.01,0,0,0-.02,0-.03,0-.01,0-.02,0-.03,0,0,0-.01-.01-.01,0,0-.02,0-.03,0,0,0-.02,0-.03,0,0,0,0,0-.01,0,0,0-.01,0-.02,0,0,0,0,0-.01,0,0,0,0,0,0,0,0,0,0,0,0,0,0,0,0,0,0,.01,0,0,0,.01,0,.02,0,0,0,.02.01.03h0Z"/><rect class="cls-37" x="1.15" y="20.14" width=".61" height="7.21"/><rect class="cls-37" x="2.34" y="22.23" width=".61" height="2.98" transform="translate(-13.91 40.93) rotate(-129.77)"/><rect class="cls-37" x="3.4" y="20.14" width=".61" height="4.63"/><path class="cls-27" d="M3.44,10.17s-1.39,2.13.06,4c.01.38.07,2.79.21,3.35.14.56.14.9.08,1.12-.05.22-.33,1.76-.34,1.93-.01.16.78,4.58.85,4.76.07.18.6-.05.55-1.42-.05-1.37.03-5.44.1-5.89.07-.45-.08-2.94-.31-3.51-.23-.57-1.18-4.32-1.18-4.32Z"/><path class="cls-15" d="M6.13,11.41l-2.5-1.55s-.79,1.12-.67,2.58c.12,1.46,1.12,2.05,1.12,2.19s.05,2.67.32,3.39c0,0-.14.43-.22,1.02-.08.59-.1,1.97,0,2.46.1.49.8,3.48.84,3.78.05.31.16.49.46.51.3.02.63-3.55.79-4.66.16-1.14,0-3.2,0-3.2,0,0,0,0,0,0,.03-.12.06-.26.08-.4.26-1.65-.22-6.11-.22-6.11Z"/><path class="cls-37" d="M11.1,8.27s0,0,0,0c-.17.12-.22.35-.12.53l1.7,3.03s.25-.02.68-.31c.4-.26.55-.49.55-.49l-2.26-2.7c-.14-.16-.38-.19-.55-.07Z"/><path class="cls-32" d="M4.26,21.84s-.84.03-.86.06c-.02.03.62,2.64.59,2.7-.03.07-.47,1.08-.47,1.08,0,0,.04.9.09.92.05.03,1.67.05,2,.04.33,0,1.44-.07,1.61-.19.11-.08.33-.36.47-.55.05-.07,0-.17-.08-.18-.51-.06-1.88-.24-2.16-.49-.35-.31-.93-3.4-.93-3.4h-.28Z"/><path class="cls-33" d="M4.4,21.75s-.19.02-.19.07.62,3.43.54,3.48c-.08.06-.32.44-.32.58s-.03.86,0,.9c.03.05,1.78.07,2.27.06.49-.01.9-.06,1.22-.27.32-.2.71-.73.39-.86-.15-.06-.21-.1-1.18-.16-.97-.06-.74-.63-.75-.75,0-.12.11-3.5.11-3.5,0,0-1.38.07-1.46.12-.08.05-.06.36-.06.36l-.57-.02Z"/><path class="cls-30" d="M7.76,7.41s.58.28,1.08.28.91-.4.86-.55c-.04-.15-.91-.64-1.27-.85-.36-.21-.88-.51-1.06-.5-.17.02.38,1.62.38,1.62Z"/><path class="cls-33" d="M7.54,5.43s.82.55.99.72.4.44.4.44l-.59,1.39-.63-.18s-.22-.6-.26-.98.08-1.38.08-1.38Z"/><path class="cls-28" d="M5.97,2.93s-.02.31,1.47.22,2.46-.25,3.21-.49c.75-.24,1.05-.41.86-.54-.19-.14-.75-.4-1.71-.28-.96.12-3.34.63-3.82,1.1Z"/><path class="cls-30" d="M7.05,3.52s-.99.78-1.02.79c-.02,0-.27.53.09,1.02.36.5,1.38.64,1.38.64,0,0-.18-.65-.12-.72.05-.07.29-.36.39-.35.1.02,1.07.43,1.07.43,0,0-.79-.73-.91-.94-.12-.22-.11-.69-.11-.69l-.21-.18h-.56Z"/><path class="cls-5" d="M7.64,3.69s-.53.02-.62,0-.36-.46-.34-.74c-.03-.52.18-1.02.48-1.47s.98-.53,1.13-.55c.15-.02.55-.05.74-.06.19,0,.8.29,1.07.54.27.25.52.61.53.72.32.27-.04,1.02-.04,1.02,0,0-.02-1.11-.77-.98-.74.13-2.19,1.51-2.19,1.51Z"/><path class="cls-25" d="M6.24,4.16s-.25.31,0,.79c.25.49.81.72.93.73.12.01.37-.26.37-.26,0,0,.17,1.98.18,2.2.01.72-.08,1.01-.21,1.49-.13.49-1.35,2.64-1.35,2.64,0,0-1.17.12-1.79-.05-.89-.23-1.65-.17-1.67-.21-.01-.04.27-1.35.56-2.25.3-.9.93-2.39,1.21-3.12.11-.29.81-1.49,1.03-1.66.22-.18.57-.34.73-.31Z"/><path class="cls-26" d="M4.82,8.87s-.2.22.83.39c1.04.18,1.26.1,1.26.1,0,0,.09-.14-.15-.31-.24-.17-1.86-.35-1.94-.18Z"/><path class="cls-30" d="M6.27,6.41c-.6,0-.9.64-1.15,1.71-.29,1.24-.51,2.38-.3,2.82.19.4.53.42.7.38.18-.04.88-1.94,1.15-2.95.27-1,.28-1.95-.4-1.96Z"/><path class="cls-30" d="M9.4,7.01s.22.01.39.23c.17.21,1.6,1.9,1.7,1.94s1.18.07,1.28.11c.09.04.34.46.45.57.06.06.08.19.08.29,0,.06-.07.1-.12.07-.11-.08-.27-.17-.34-.18-.12-.01-.72-.07-.76,0-.04.07-.06.23,0,.34.03.05.08.15.11.24.02.06.04.22-.02.19-.12-.08-.36-.31-.44-.41-.15-.18-.39-.47-.39-.47l-.08-.27s-1.53-.98-2.05-1.28c-.51-.3-.63-.69-.63-.69,0,0,.11-.63.81-.67Z"/><path class="cls-33" d="M4.82,8.87s.76.07,1.36.19c.6.12.73.3.73.3,0,0,.11-1.2.14-1.9.03-.72-.15-1.15-.76-1.24-.61-.09-.97.64-1.15,1.24-.19.64-.32,1.41-.32,1.41Z"/><path class="cls-34" d="M10.51,3.32c-.15.21-.25.37-.27.44s-.02.77-.02.77c0,0,0,.03-.13.07-.12.03-.18-.02-.23,0-.05.02-.07.21-.07.23,0,.04-.05.04-.13.05-.12.02-.09,0-.09,0,0,.03,0,.05-.02.13-.01.04-.11.07-.15.09-.02.01-.07.11-.1.13-.02.02-.04.03-.06.06-.13.14-.28.09-.4.04-.12-.05-.7-.33-.96-.73-.26-.4-.17-.74-.16-.78,0-.03-.27-.32-.33-.46-.06-.14.02-.62.13-.73.06-.06.23-.29.41-.14.18.14.14.55.15.53.6-1.23,1.71-1.43,2.25-1.05.54.37.34,1.13.19,1.34Z"/><path class="cls-5" d="M10.5,2.29s-.08.46-.48.62c-.39.17-.8.1-.8.1,0,0-.59,0-.68.08-.36.27-.47.75-.45.57.01-.18-.02-.46.21-.74-.3.36-.32.7-.32.7,0,0-.06-.35.09-.65.15-.3.32-.83.87-1.17.56-.34,1.28-.15,1.48.13.13.18.08.36.08.36Z"/><path class="cls-5" d="M10.49,2.33s.21.7.05.93c-.07.11-.12.18-.12.18.4-.3.4-.58.42-.86.01-.2-.11-.38-.22-.44-.13-.07-.17-.07-.14.19Z"/><path class="cls-10" d="M7.72,2.78c.03.06.07.11.09.17.02.06.04.12.03.19.01,0,.02,0,.04,0-.02-.11-.14-.05-.18,0-.05.06-.05.17,0,.23,0,0,0,0,0,0,0,0,0,0,0,0,.02,0,.02-.04.01-.05,0-.02-.02-.04-.03-.06,0-.02,0-.03.02-.05.01-.02.03-.03.05-.04.01,0,.06-.02.07,0,0,0,0,.02.02.02.01,0,.02-.02.02-.03.02-.08.01-.17-.02-.25-.02-.07-.06-.15-.12-.19-.02-.01-.02.05-.02.06h0Z"/><path class="cls-10" d="M12.61,9.74c.07.01.13.02.2.03.06,0,.12.01.18.02.06.01.11.04.16.06.02.01.05.03.07.04.02.01.04.04.07.04.01,0,0-.03,0-.04-.03-.04-.09-.07-.13-.1-.05-.03-.1-.05-.15-.06-.06-.02-.13-.02-.19-.02-.07,0-.13,0-.2,0,0,0,0,.03,0,.04h0Z"/><path class="cls-10" d="M12.59,9.53s.03,0,.04,0c.01,0,.03,0,.04,0,.03,0,.06,0,.09,0,.03,0,.06,0,.08,0,.01,0,.03,0,.04,0,.01,0,.03,0,.04,0,0,0,0,0,0,0,0-.01,0-.03,0-.04,0-.01-.02-.02-.04-.02-.03,0-.07-.01-.1-.02-.03,0-.07,0-.1,0-.02,0-.03,0-.05,0-.02,0-.03,0-.05.02,0,0-.01.04,0,.04h0Z"/><path class="cls-1" d="M9.46,3.32c.15.03.29.04.44.07.07.02.14.05.21.09.03.02.06.04.09.06.03.02.06.05.09.06.04,0,.03-.13.01-.14-.05-.05-.12-.08-.18-.11-.07-.03-.14-.05-.21-.06-.15-.02-.3-.02-.45.01,0,0,0,.02,0,.02h0Z"/><path class="cls-2" d="M9.12,2.14c-.07.21-.28.35-.46.47-.1.07-.2.13-.28.22-.04.04-.08.09-.11.13-.03.04-.07.08-.08.13,0,0,0,.02,0,.02.02-.01.03-.04.04-.06.02-.02.03-.05.05-.07.04-.04.08-.08.13-.12.09-.08.19-.14.3-.21.19-.12.37-.25.43-.47,0-.01,0-.04,0-.05,0,0-.01-.02-.02,0h0Z"/><path class="cls-2" d="M9.44,2.02c0,.15-.03.28-.11.4-.04.06-.08.11-.13.16-.06.05-.11.11-.15.17,0,0,0,.05,0,.05.08,0,.14-.06.19-.11.06-.06.11-.12.15-.2.07-.14.12-.33.07-.49,0-.02-.02.01-.02.02h0Z"/><path class="cls-2" d="M9.89,2.11c0,.1-.06.19-.11.27-.03.04-.07.08-.1.13-.04.05-.09.09-.12.14,0,0,0,.04,0,.04.05,0,.1-.05.14-.08.05-.03.09-.08.12-.13.07-.1.1-.23.1-.36,0,0,0-.04-.01-.04-.01,0-.01.02-.01.03h0Z"/><path class="cls-2" d="M7.08,2.87c-.07-.21-.06-.42,0-.63.03-.11.07-.21.11-.31.04-.1.09-.2.13-.31,0,0,0-.06-.01-.05-.03.01-.04.02-.05.04-.02.02-.03.05-.04.07-.03.05-.05.11-.07.17-.05.12-.09.24-.13.36-.06.22-.09.5.04.7.02.04.03-.03.03-.05h0Z"/><path class="cls-2" d="M7.66,1.44c-.07.07-.12.16-.15.25-.02.05-.03.1-.03.16,0,.05,0,.11.02.15,0,0,.01,0,.01,0,.01-.03.02-.07.02-.1,0-.04.02-.08.03-.12.03-.09.08-.18.12-.26,0-.01,0-.04,0-.05,0,0-.01-.03-.02-.02h0Z"/><path class="cls-2" d="M10.54,2.5c0-.17-.08-.35-.18-.48-.05-.07-.11-.13-.19-.18-.04-.02-.08-.05-.12-.06-.02,0-.05-.01-.07-.02-.02,0-.05,0-.07-.01-.01,0,0,.04,0,.04.02.01.04.03.06.05.02.01.04.03.06.04.04.03.08.05.12.08.07.05.12.09.18.15.1.12.15.25.2.39,0,.02.01,0,.01,0h0Z"/><path class="cls-30" d="M5.79,10.14s.24.07.82.22c.58.16,2,.54,2.08.55.09,0,.42-.05.42-.05,0,0,1.09-.29,1.13-.29s.25,0,.31,0c.06.02.12.1.12.1,0,0,.18.18.15.44-.03.26-.14.31-.14.31,0,0-.11.14-.25.18-.15.05-.32.05-.32.05,0,0-.92-.19-1.02-.18-.11,0-.3,0-.3,0,0,0-1.45.04-2.28,0-.83-.03-1.28-.15-1.4-.23-.12-.09-.25-.94.69-1.12Z"/><path class="cls-30" d="M8.94,10.93s.16-.23.37-.34c.21-.11.34-.14.48-.23.1-.06.18-.15.22-.19.01-.01.04-.01.04,0,.02.04.04.12,0,.22-.06.15-.41.41-.41.41l-.71.14Z"/><path class="cls-1" d="M12.64,11.57c.2-.01.38-.08.55-.17.17-.09.35-.22.46-.39.01-.02.02-.14-.02-.12-.08.05-.15.11-.22.17-.08.06-.16.11-.24.17-.17.11-.35.18-.53.26-.02,0-.02.08,0,.08h0Z"/><path class="cls-4" d="M4.51,26.49c.13.03.26.03.4.04.13,0,.25,0,.38,0,.26,0,.52,0,.78,0,.26,0,.52-.01.78-.02.13,0,.26,0,.39-.01.12,0,.24-.02.36-.05.11-.03.21-.08.3-.15.09-.07.19-.16.23-.26,0,0,0-.05,0-.04-.04.02-.07.06-.1.09-.04.04-.08.07-.12.1-.08.06-.18.1-.28.13-.12.03-.24.04-.35.05-.12,0-.25,0-.38.01-.51.01-1.01.02-1.52.03-.14,0-.29,0-.43,0-.14,0-.29,0-.43.02-.02,0-.02.07,0,.07h0Z"/><path class="cls-4" d="M5.31,23.81c-.05.19.02.4.07.58.05.2.1.4.15.6.05.18.08.37.18.53.04.07.1.13.17.17.07.05.16.06.24.07.11.01.23.03.34.04.06,0,.11.01.17.02.06,0,.11.02.17-.01.02,0,.01-.06,0-.07-.04-.03-.08-.03-.12-.03-.05,0-.1,0-.14-.01-.09-.01-.19-.02-.28-.04-.16-.03-.33-.06-.45-.19-.11-.13-.14-.29-.18-.45-.05-.18-.1-.36-.14-.54-.03-.1-.05-.2-.08-.3-.03-.1-.07-.21-.06-.32,0-.01,0-.04,0-.05-.01,0-.02,0-.02.01h0Z"/><path class="cls-24" d="M3.65,26.21c.1.04.21.05.32.06.06,0,.11.01.17.02.06,0,.11,0,.14-.05,0,0,0-.02,0-.03-.04-.03-.09-.02-.14-.03-.05,0-.11,0-.16-.01-.11,0-.21-.02-.32,0-.02,0-.02.05,0,.05h0Z"/><path class="cls-1" d="M9.51,3.64s.09.03.19.07c.12.05.26.05.26.05v.07s-.2-.02-.29-.07-.16-.12-.16-.12Z"/><path class="cls-1" d="M9.61,3.7s.11.14.15.19.1.07.1.07c0,0-.03.04-.06,0s-.16-.14-.2-.26Z"/><ellipse class="cls-1" cx="9.83" cy="3.87" rx=".08" ry=".03" transform="translate(1.22 9.99) rotate(-56.89)"/><path class="cls-33" d="M5.86,3.98l.47-.21s-.17.32.06.74,1.19.81,1.19.81c0,0-.49.87-.53.83s-.84-.93-1.06-1.39-.13-.77-.13-.77Z"/><path class="cls-22" d="M5.97,2.93s-.05.18,1.33-.09c1.37-.27,1.78-.59,2.51-.71s1.76.02,1.76.02l-1.07-.61s-1.43.31-2.32.37c-.9.05-1.25-.04-1.25-.04l-.96,1.06Z"/><path class="cls-36" d="M6.93,1.87s.28-1.19.35-1.32c.07-.13,2.29-.15,2.37-.1.08.05.85,1.09.85,1.09,0,0-1.02.33-2.52.43-.83.11-1.04-.11-1.04-.11Z"/><path class="cls-8" d="M6.99,1.89s.05.03.08.05c.03.01.05.02.08.03.06.02.11.04.17.05.12.03.24.04.36.04.24,0,.48-.02.72-.04.47-.05.94-.11,1.39-.22.13-.03.25-.07.37-.11.13-.05.26-.09.37-.16.02-.01.02-.09,0-.08-.11.04-.22.08-.33.12-.11.04-.22.07-.33.1-.23.06-.46.11-.69.15-.23.04-.46.06-.7.09-.23.02-.47.05-.71.05-.13,0-.27,0-.4-.02-.07,0-.13-.02-.19-.04-.03,0-.06-.02-.09-.03-.03-.01-.07-.02-.1-.03-.02,0-.02.05,0,.06h0Z"/><path class="cls-13" d="M17.61,11.17c.04.09.1.15.19.2.08.04.18.05.27.04.18-.04.31-.19.35-.37,0,.01-.01.02-.02.03.14-.06.29-.15.35-.3.03-.07.04-.15.03-.23,0-.06-.03-.16-.1-.19-.04-.02-.03.1-.02.12.02.04.06.07.06.12,0,.04-.01.09-.04.13-.06.1-.17.16-.28.2-.03.01-.04.02-.05.06,0,.02-.01.05-.03.07-.02.05-.06.09-.1.13-.08.07-.19.1-.3.1-.11,0-.24-.07-.31-.15-.02-.02-.02.04-.02.06h0Z"/><path class="cls-13" d="M17.9,9.31c0,.1.03.18.1.26.06.07.14.12.23.14.18.04.36-.05.47-.2-.01,0-.02.02-.03.02.16,0,.33-.02.44-.13.05-.05.09-.13.12-.2.02-.06.04-.16-.01-.21-.03-.04-.07.08-.06.1,0,.05.02.09,0,.14-.02.04-.05.08-.09.1-.1.07-.22.08-.33.07-.03,0-.04,0-.06.03-.02.02-.03.04-.05.06-.04.03-.09.06-.14.08-.11.03-.21.02-.31-.03-.1-.05-.19-.16-.23-.27,0-.03-.04.03-.04.04h0Z"/><path class="cls-13" d="M15.61,12.94c0,.1.03.18.1.26.06.07.14.12.23.14.18.04.36-.05.47-.2-.01,0-.02.02-.03.02.16,0,.33-.02.44-.13.05-.05.09-.13.12-.2.02-.06.04-.16-.01-.21-.03-.04-.07.08-.06.1,0,.05.02.09,0,.14-.02.04-.05.08-.09.1-.1.07-.22.08-.33.07-.03,0-.04,0-.06.03-.02.02-.03.04-.05.06-.04.03-.09.06-.14.08-.11.03-.21.02-.31-.03-.1-.05-.19-.16-.23-.27,0-.03-.04.03-.04.04h0Z"/><path class="cls-13" d="M12.68,14.28c0,.1.03.18.1.26.06.07.14.12.23.14.18.04.36-.05.47-.2-.01,0-.02.02-.03.02.16,0,.33-.02.44-.13.05-.05.09-.13.12-.2.02-.06.04-.16-.01-.21-.03-.04-.07.08-.06.1,0,.05.02.09,0,.14-.02.04-.05.08-.09.1-.1.07-.22.08-.33.07-.03,0-.04,0-.06.03-.02.02-.03.04-.05.06-.04.03-.09.06-.14.08-.11.03-.21.02-.31-.03-.1-.05-.19-.16-.23-.27,0-.03-.04.03-.04.04h0Z"/></svg>