<?xml version="1.0" encoding="UTF-8"?><svg id="Complications" xmlns="http://www.w3.org/2000/svg" viewBox="0 0 32 32"><defs><style>.cls-1{fill:#3e3328;}.cls-1,.cls-2,.cls-3,.cls-4,.cls-5,.cls-6,.cls-7,.cls-8,.cls-9,.cls-10,.cls-11,.cls-12,.cls-13,.cls-14,.cls-15,.cls-16,.cls-17,.cls-18,.cls-19,.cls-20,.cls-21,.cls-22,.cls-23,.cls-24{stroke-width:0px;}.cls-2{fill:#d4bead;}.cls-3{fill:#465d64;}.cls-4{fill:#84454a;}.cls-5{fill:none;}.cls-6{fill:#eae1cc;}.cls-7{fill:#272727;}.cls-8{fill:#a7a293;}.cls-9{fill:#b89d45;}.cls-10{fill:#d7ceb9;}.cls-11{fill:#2a2820;}.cls-12{fill:#3f5456;}.cls-13{fill:#cbad7d;}.cls-14{fill:#c4bfad;}.cls-15{fill:#ebe3dc;}.cls-16{fill:#e9e4d2;}.cls-17{fill:#333332;}.cls-18{fill:#7a3f27;}.cls-19{fill:#b2ac9c;}.cls-20{fill:#c7ac99;}.cls-21{fill:#492620;}.cls-22{fill:#fff;}.cls-23{fill:#d7be5b;}.cls-24{fill:#433d37;}</style></defs><rect class="cls-5" width="32" height="32"/><path class="cls-22" d="M3.84,29.39s-.37-.46.27-1.41,2.31-1.59,2.25-2.05c-.18-1.3-1.11-1.95-1.3-2.41s-.38-1.27.34-1.86,2.69-1.89,3.5-2.14c1.07-.33,1.74-.26,2.41.51s1.02,1.08,1.02,1.08l5.85-2.81s1.17-.04,1.55.18.89,1.18,2.2,1.84,1.92.74,2.2,1.97-.43,2.1-.47,2.19c-.21.58-2.16,1.11,1,1.4,1.37.13,2.01,1.49,2.25,1.88s.38,1.09.23,1.36-1.79,1.29-1.93,1.34-.51,1.06-.74,1.2-.6.4-2.23.32c-1.54-.08-1.53-1.03-1.53-1.03,0,0-1.13-3-3.25-1.22-.9.76-.54,1.55-2.44,2.01-.35.09-.95.08-1.94.13s-1.69-.85-3.84-.59c-.9.11-3.12,1.01-4.2.03-.18-.16-.7-.36-1.22-1.92Z"/><path class="cls-22" d="M26.39,28.15c-.09-.01-.16-.03-.23-.04.09-.11.16-.22.2-.34.07-.21.06-.44-.03-.62-.07-.14-.18-.24-.32-.32-.04-.17-.11-.32-.23-.42-.1-.09-.22-.14-.35-.17-.11-.14-.25-.25-.42-.3-.2-.05-.39-.03-.57.06-.04,0-.08-.03-.13-.03,0,0-.01,0-.02,0-.27,0-.5.14-.67.37-.21-.04-.43-.07-.66-.05-.45-.33-.85-.65-.97-.78-.1-.18-.25-.32-.42-.44.08-.02.19-.07.39-.17h.24c.12-.01.23-.05.33-.12,0,0,.08-.05.15-.11.09.09.21.16.34.18.03,0,.05,0,.08,0,.2,0,.38-.1.49-.26,0,0,.03-.05.08-.11.12-.16.15-.35.15-.51,0-.02.02-.04.02-.06.02-.09.05-.19.07-.25.25-.22.26-.48.23-.67-.01-.08-.02-.24-.02-.24,0,0,0-.02,0-.03,0-.03,0-.06,0-.09.02-.08.03-.17.03-.27,0-.08-.03-.16-.06-.23,0-.03-.01-.06-.02-.09-.03-.09-.07-.16-.12-.22-.01-.04-.03-.09-.05-.13-.06-.13-.18-.23-.32-.29-.03-.05-.06-.09-.1-.14-.48-.49-.91-.78-1.31-.89-.31-.09-.56-.21-.73-.28l-.13-.06c-.07-.03-.19-.07-.3-.11-.04-.01-.07-.03-.11-.04-.13-.14-.37-.43-.43-.52-.03-.04-.05-.1-.08-.16-.12-.26-.27-.59-.64-.66-.21-.04-.43.02-.59.17-.1.09-.17.22-.22.35.01-.22.02-.44.04-.67l.02-.28c.01-.2.02-.41.03-.62,0-.34-.01-.97-.04-1.59,0,0,0,0,0,0,0-.21-.02-.41-.03-.61.07-.07.13-.16.15-.26.05-.2.1-.34.15-.47.2.2.43.32.67.32.09,0,.19-.02.28-.05.15-.06.27-.16.36-.29.17-.02.33-.08.44-.2.1-.1.16-.22.2-.36.16-.1.28-.23.34-.39.07-.18.06-.37,0-.56.02-.05.05-.1.05-.16.03-.29-.09-.54-.31-.74.06-.18.09-.36.11-.55.07-.02.13-.05.2-.1.04-.03.08-.06.11-.08.23-.17.44-.37.63-.6.04-.05.15-.19.2-.38.13-.09.24-.2.33-.33.16-.03.31-.1.42-.22.17-.17.25-.39.23-.6.04-.13.05-.27.01-.41-.08-.3-.31-.48-.54-.59,0-.01-.01-.02-.02-.03-.2-.33-.61-.47-1.15-.38-.2-.02-.4,0-.59.09-.09.04-.18.08-.26.14-.1,0-.2.01-.3.04-.15.04-.27.13-.35.26-.23-.09-.38-.15-.45-.19-.18-.63-.62-2.08-1.16-2.94-.12-.19-.32-.44-.57-.66,0,0,0,0,0,0,0,0-.02-.01-.02-.02-.05-.04-.1-.09-.15-.13-.09-.07-.17-.13-.25-.18,0,0-.01,0-.02,0l.04-.29s.04-.05.05-.07l-.47-.37h0s.51.31.51.31c.12-.15.24-.32.28-.53,0-.03.01-.1.02-.18.38-.27.54-.7.37-1.09-.12-.27-.94-1.22-1.29-1.45-.01,0-1.22-.81-2.08-.51-.56.19-1.5.84-1.65,1.78-.09.57-.1,1.21-.11,1.42l-.04.2c-.03.13,0,.25.04.36-.05.32-.14.62-.26.78-.12.06-.25.12-.35.17,0,0,0,0,0,0,0,0,0,0,0,0h0c-.14.07-.25.13-.36.18,0,0-.02,0-.03.01-.02,0-.03.02-.05.03-.52.27-.64.37-.68.4,0,0,0,0,0,0,0,0,0,0,0,0,0,0-.02.02-.03.03-.3.19-.53.47-.65.82h0c-.02.08-1.13,4.92-.23,6.12.06.09.14.15.22.21,0,0,0,.01.01.02.1.07.3.2,1.46.41-.01.1-.03.19-.05.29-.02.1-.03.2-.05.3-.12.71-.23,1.38-.17,1.97.04.76.05,1.55.05,2.31,0,.33,0,.66,0,.99,0,.58.02,1.17.05,1.75,0,.09.02.19.04.3.01.09.04.23.03.27-.02.05-.11.18-.17.27-.1.14-.2.29-.3.5-.11.25-.24.54-.27.87,0,.03,0,.06,0,.08-.1,0-.2.02-.29.06-.16.07-.27.19-.34.33-.06-.01-.12-.03-.18-.03-.29-.03-.48.09-.58.19-.12.12-.16.25-.18.37-.05-.08-.12-.15-.2-.21.23-.36.34-.77.28-1.18,0-.13-.02-.26-.04-.4,0-.02,0-.04-.01-.07.12-.06.24-.14.35-.26.1-.02.2-.06.27-.13.17-.16.24-.41.16-.63-.06-.19-.15-.33-.26-.44-.01-.03-.03-.06-.04-.09-.04-.31-.28-.56-.37-.65-.28-.27-.63-.35-.93-.21-.22-.03-.45,0-.63.15-.1.07-.17.17-.22.27-.32.2-.67.5-1.07.91-.02.02-.03.05-.05.07-.67.25-.93.52-1.14.75-.16.17-.26.28-.54.39-.29.08-.48.38-.43.68.02.15.11.29.26.41-.05.12-.08.25-.06.39.02.09.06.19.12.28,0,.13.06.25.12.34.05.08.12.14.19.19.07.13.17.22.26.27.04.03.09.04.14.06.03.1.09.2.18.27.09.08.23.14.36.15.1.1.23.17.37.19.02,0,.05,0,.07,0,.08,0,.16-.02.24-.04.04,0,.08,0,.12-.02.21-.06.37-.23.43-.43.03-.06.06-.13.07-.2.11.04.23.07.36.08,0,0,0,.01,0,.02.09.21.29.36.52.38.02,0,.04,0,.06,0,.11,0,.23-.03.33-.09.04,0,.08,0,.13,0-.01.05-.03.11-.04.16-.01.06-.03.11-.04.15-.12.09-.4.23-.82.44l-.09.04c-.21.1-.5.19-.87.25-.61.1-1.58.88-1.86,1.12l-.2.17c-.07.06-.15.12-.23.19-.08-.01-.17-.02-.25,0-.04-.02-.09-.03-.13-.04-.46-.08-.69.35-.78.53-.05.09-.08.19-.09.29-.37.31-.23.93-.18,1.12.1.34.4.6.63.76,0,.04,0,.07,0,.11.03.22.14.43.17.48.1.19.31.31.52.31.04,0,.07,0,.11-.01.01,0,.03,0,.05-.01.11.06.19.09.27.1.03,0,.07,0,.1,0,.15,0,.3-.05.42-.15.02,0,.04-.02.06-.03.07.13.18.24.31.29.1.04.2.05.32.05.13.09.29.14.46.14.12,0,.25-.03.37-.08.03-.01.06-.03.08-.04.49.02.56,0,.66-.05.48-.21.45-.61.43-.69,0-.07-.05-.22-.18-.35.01-.02.03-.03.04-.05.05-.02.09-.05.13-.08.1-.02.26-.06.51-.12.27-.06.49-.13.64-.17.08.03.18.07.33.12.36.13.72.12.97.09.16.11.34.24.41.29,0,0,0,0-.01.01-.2.15-.3.44-.22.69.07.22.23.33.38.38.03.04.06.08.1.12.15.13.33.17.49.16.02,0,.04.02.06.03.07.02.14.03.2.03.2,0,.39-.09.51-.2.2-.18.3-.42.29-.7,0-.02,0-.14-.04-.28.04.03.08.07.1.09.2.26.47.62.91.8.19.08.38.11.57.11s.35-.03.52-.06c.63-.12,1.18-.58,1.36-1.12.11-.35.04-.7-.19-.94,0,0,0,0-.01-.01,0,0,0-.01-.01-.02,0,0,0,0,0,0-.09-.09-.2-.2-.33-.33-.35-.34-1.17-1.14-1.24-1.47-.14-.63.04-1.51.2-2.29.03-.17.07-.33.1-.49.07.6.15,1.07.19,1.31v.09c-.04.27-.04.58.02.93.13.74.89,1.02,1.57.92,0,0,.08-.01.13-.02.06.04.11.08.15.12.05.05.1.09.13.11.49.34,1.12.54,1.69.54.21,0,.41-.03.6-.08.18-.05.33-.14.46-.23.04.24.11.46.24.66.07.23.19.43.35.62,0,.1.02.2.05.3h0c.06.16.16.3.28.41-.14.13-.23.34-.22.52,0,.12.04.23.1.32.03.1.08.19.15.28.12.13.27.2.43.22.09.04.18.06.28.06.02,0,.04,0,.06,0,.16-.02.34-.12.45-.26.1.02.2,0,.3-.05.08.12.19.21.33.25.04.01.08.02.12.02.09.05.19.07.3.07.03,0,.05,0,.08,0,.15-.02.32-.12.43-.25.3.02.58-.17.67-.47.04-.15.03-.3-.02-.43.03-.1.03-.21.01-.32.08-.09.16-.19.21-.31.04-.09.07-.18.09-.27.1,0,.2,0,.31-.02,1.2-.22,1.62-.74,1.62-1.15,0-.3-.24-.56-.53-.6ZM19.5,24.96s.1,0,.15,0c.03.01.06.03.09.04,0,0,0,0,0,0-.01.03-.03.07-.04.1,0,0,0,0-.01.01-.16.11-.38.37-.33.9-.14-.07-.27-.14-.41-.2,0-.22.02-.54.03-1,.08.07.19.11.35.13.05.01.11.02.16.02ZM19.07,19.01l.3.51h0s-.36-.46-.36-.46c.02-.02.04-.03.06-.05ZM9.44,24.94s0,0,0,0c0,0,0,0,0,0h0Z"/><path class="cls-23" d="M20.71,9.15c-.62-.18-1.21-.4-1.37-.61,0,0-.51-1.96-1.14-2.96-.17-.27-.49-.62-.81-.81-.2-.12-.38-.15-.57-.17,0,0-.65.23-.49.7.12.35.36.41.57.71.42.61-.24,3.07,1.56,4.16.49.3,1.41.44,2.29.52l-.03-1.54Z"/><path class="cls-9" d="M17.72,5.03c-.11-.1-.22-.19-.34-.26-.2-.12-.38-.15-.57-.17,0,0-.65.23-.49.7.12.35.36.41.57.71.4.58-.17,2.84,1.32,3.99.46-1.67.15-3.32-.48-4.97Z"/><path class="cls-20" d="M21.18,11.04s.06-.01.08-.03c.03-.02.06-.04.09-.06.19-.15.37-.31.52-.5.05-.06.1-.13.09-.22,0-.09-.08-.18-.17-.24.02-.05.03-.1.02-.16,0-.06-.05-.12-.11-.15,0,0,0,0,0,0-.02,0-.04-.01-.05-.03-.03-.03-.03-.06-.04-.09-.02-.14-.17-.29-.33-.33-.04,0-.07-.01-.11-.03-.03-.02-.04-.04-.06-.07-.06-.07-.16-.12-.25-.13-.32-.04-.23.26-.21.46.03.27.06.54.09.81,0,.03,0,.07.03.11.02.03.07.06.11.05-.01.04-.02.09,0,.14.02.05.08.1.13.1,0,.05,0,.08-.01.13,0,.04,0,.09.03.13,0,0,.01.01.02.02.01.01.03.02.04.02.01,0,.03,0,.03,0,0,0,0-.01.02,0,0,0,0,.02,0,.03,0,.01,0,.03.01.04.01.01.02.02.04.02Z"/><path class="cls-7" d="M14.77,28.46l-2.56-.16c-.03.36,0,.62.13.79.24.3,1.41.96,1.64,1.27.18.24.38.5.66.61.24.1.51.06.76.01.67-.12,1.11-.8.85-1.07-.33-.34-1.08-.89-1.48-1.45Z"/><path class="cls-7" d="M12.07,23.47c.13-.23.46-.23.84-.27.27-.03.79-.07,1.06-.01.27.05.52.17.72.35.09.08.19.18.24.28.04.11,0,.17,0,.2-.04.11-.17.32-.27.39-.42.29-.93.46-1.43.39-.19-.03-.37-.09-.54-.16-.16-.06-.32-.14-.41-.28-.15-.23-.1-.47-.17-.73l-.02-.15Z"/><path class="cls-7" d="M15.77,22.12c-.11-.28.23-.59.6-.67.27-.05.78-.14,1.05-.11.27.03.54.12.75.29.09.07.21.16.26.26.02.04.03.08.03.11,0,.04-.01.07-.02.09-.04.11-.14.33-.23.41-.39.32-.89.54-1.39.51-.19-.01-.37-.05-.55-.11-.16-.05-.26-.26-.35-.52l-.14-.27Z"/><path class="cls-3" d="M15.6,18.85s.03.78.09,1.65c.04.62.17,1.37.19,1.99.01.4,2.26,1.1,2.26,1.1.03-1.74.23-5.08.24-5.34.01-.25.03-.5.04-.76.02-.66-.08-2.53-.12-3.19l-2.94-.04c0,.13.12.93.12,1.24.04,1.33.08,2.32.12,3.34Z"/><path class="cls-12" d="M18.38,15.94c-.03-.64-.06-1.29-.09-1.63l-2.94-.04c0,.13.12.93.12,1.24.04,1.33.08,2.32.12,3.34,0,0,.03.78.09,1.65.04.62.17,1.37.19,1.99,0,.13.24.29.56.45-.38-2.62-.58-5.98,1.94-7Z"/><path class="cls-17" d="M18.35,26.18c.03-.11.09-2.78.12-4.18-.8.38-1.88.37-2.7.11.04,2.25.42,4.16.41,4.2-.06.2-.07.46,0,.81.07.43.65.47.9.44.11-.02.26-.07.44.02.23.12.32.24.4.29.74.52,2.02.64,2.3-.06.26-.64-.87-1.19-1.86-1.63Z"/><path class="cls-7" d="M17.67,27.41c-.7-.34-1.09-.57-1.15-1.36-.1-1.26-.2-2.55-.26-3.82-.17-.03-.34-.07-.49-.12.04,2.25.42,4.16.41,4.2-.06.2-.07.46,0,.81.07.43.65.47.9.44.11-.02.26-.07.44.02.23.12.32.24.4.29.44.31,1.08.48,1.58.41-.65-.14-1.25-.59-1.82-.87Z"/><path class="cls-15" d="M12.95,13.51c.12-.72.23-1.48.14-2.22-.2-1.67-1.15-5.33-1.11-5.41,0,0,.01-.02.03-.03.1-.08.45-.28,1.01-.56.31-.15.68-.33,1.1-.52.18-.08,1.26-.27,2.16-.24.37.01.71.06.95.16.16.06.27.15.32.27.2.37.3.95.35,1.58.02.26.03.54.03.82,0,.02,0,.04,0,.06,0,.02,0,.05,0,.07,0,.68-.02,1.36-.02,1.87,0,.61.21,2.37.33,4.07l-5.3.09Z"/><path class="cls-9" d="M12.38,5.63c-.19.11-.32.18-.37.23-.01.01-.02.02-.03.03-.04.08.91,3.74,1.11,5.41,0,.07,0,.14.01.22.73-1.95,1.56-4.7-.72-5.88Z"/><path class="cls-23" d="M12.95,13.51l5.3-.09c-.11-1.7-.33-3.46-.33-4.07,0-.51.02-1.18.02-1.87,0-.02,0-.05,0-.07,0-.02,0-.04,0-.06,0-.28-.01-.55-.03-.82-.05-.63-.15-1.21-.35-1.58-.05-.12-.17-.21-.32-.27-.24-.1-.58-.14-.95-.16-.91-.03-1.98.16-2.16.24-.43.2-.8.37-1.1.52-.26.13-.47.24-.64.33,2.28,1.18,1.45,3.93.72,5.88.05.67-.05,1.36-.16,2Z"/><path class="cls-3" d="M17.94,7.35s0,.04,0,.06v.02s0,.03,0,.05c-.02.49-.62.56-.61.54.16-1.57-.6-3.12-1.04-3.49.37.01.71.06.95.16.45.55.61,1.27.67,1.85.03.34.03.63.03.82Z"/><path class="cls-3" d="M18.32,14.93c-.03-2.02-.37-6.79-.38-7.49-.04.03-.08.06-.12.09-1.16.79-2.5,1.01-3.82.97.28,1.18.23,2.43-.49,3.49-.13.2-.27.38-.43.56-.11,1.09-.42,2.14-.33,2.98.06,1.11.04,2.22.06,3.32,0,.58.02,1.15.05,1.73.01.21.1.54.05.74-.07.27-.36.56-.48.82-.1.24-.22.49-.25.75-.06.53-.09,1.08-.09,1.63l2.66-.05c.07-.42.13-.83.2-1.25.22-1.4.68-2.64.66-4.06,0-.44.25-1.35.54-1.86.16-.28,2.16-2.11,2.16-2.39Z"/><path class="cls-3" d="M13.71,11.64c.72-.09,1.54-.33,1.95-.31.76.03,1.46.33,2.23.29.09,0,.18-.01.28-.03-.1-1.87-.23-3.74-.23-4.16-.04.03-.08.06-.12.09-1.16.79-2.5,1.01-3.82.97.25,1.05.23,2.17-.29,3.15Z"/><path class="cls-12" d="M14.91,12.98s.84.08,1.19.23c.35.14.74.13.91.08.16-.05.29-.21.47-.13.17.08,0,.69,0,.87,0,.66-.17,1.3-.29,1.67-.12.38-.65,1.22-.65,1.22l1.76-1.23.06-.48-.04-.45-.09-1.8-.36-.13h-1.43s-1.43.05-1.43.05l-.1.09Z"/><path class="cls-12" d="M17.46,12.62c-.84-.05-1.55-.42-2.4-.4-.44.01-1.18.15-1.8.09-.06.08-.11.16-.18.23-.11,1.09-.42,2.14-.33,2.98.06,1.11.04,2.22.06,3.32,0,.58.02,1.15.05,1.73.01.21.1.54.05.74-.07.27-.36.56-.48.82-.1.24-.22.49-.25.75-.06.53-.09,1.08-.09,1.63h.37c-.02-.59.06-1,.23-1.6.35-1.25.51-2.08.43-3.35-.1-1.71-.62-4.19.02-5.82.39-.98.96-.73,2.07-.73,1.04,0,1.93-.01,2.78-.41-.19,0-.37,0-.54,0Z"/><path class="cls-20" d="M14.37,5.69c-.38-.03-1.07-.41-.85-.66.53-.59.5-2.09.5-2.09l1.98.5c.07,0-.13,1.23-.13,1.71,0,.47-.98.58-1.49.53Z"/><path class="cls-23" d="M11.51,6.43c.18-.55.76-.76,1.17-.61.56.21,1.07,1.01.93,1.62-.35,1.55-.44,2.22-1.08,3.5-.77,1.43-.33,1.16-1.06,1.2-1.09.05-.1-5.28.05-5.72Z"/><path class="cls-13" d="M16.43,11.31c-.04-.08.08-.15.12-.07.07.13.09.27.04.41,0,0,0,0,.01,0,.1.08.2.17.29.26h0c.08-.03.16-.07.23-.11.17-.08.31.17.14.25-.12.06-.24.12-.37.18-.07.02-.32-.22-.37-.27,0,.06-.02.13-.04.19-.03.08-.17.04-.14-.04.03-.06.04-.12.03-.19,0,0-.01-.02-.02-.02-.03-.12-.07-.23-.19-.3-.08-.05,0-.17.07-.12.03.02.06.04.08.06-.02-.06-.05-.12-.09-.18-.06-.08.07-.14.12-.07.06.07.09.15.12.23,0-.07-.01-.15-.05-.22Z"/><path class="cls-13" d="M16.62,9.71c-.05-.08.08-.15.12-.07.08.13.09.27.04.41,0,0,.01,0,.01,0,.1.08.2.17.29.26h0c.08-.03.15-.07.23-.11.17-.08.31.17.14.25-.12.06-.24.13-.37.18-.06.03-.31-.22-.37-.27,0,.06-.01.13-.04.19-.03.08-.17.05-.13-.04.02-.06.03-.12.03-.18,0,0-.01-.02-.01-.03-.04-.12-.07-.23-.19-.3-.08-.04,0-.17.08-.12.03.02.06.04.08.06-.02-.06-.05-.12-.1-.18-.05-.07.07-.14.13-.07.05.07.09.15.12.23,0-.07-.01-.15-.05-.22Z"/><path class="cls-19" d="M20.4,13.2c-.25-.26-.56-.37-.7-.24-.14.13-.05.45.2.71.25.26.56.37.7.24.14-.13.05-.45-.2-.71Z"/><path class="cls-19" d="M20.51,12.83c-.34-.13-.66-.09-.73.09-.07.18.15.43.49.56.34.14.67.09.74-.08.07-.18-.15-.43-.49-.56Z"/><path class="cls-19" d="M20.08,13.54c-.13-.34-.38-.56-.56-.49-.18.07-.22.4-.09.74.13.34.37.56.56.49.18-.07.22-.4.09-.74Z"/><path class="cls-19" d="M20.4,12.4c-.36-.04-.67.07-.69.26-.02.19.25.38.61.42.36.04.67-.07.7-.26.02-.19-.25-.38-.61-.42Z"/><path class="cls-6" d="M19.09,9.29c-.9-.01-1.64.87-1.65,1.98-.02,1.11.7,2.01,1.59,2.03.89.01,1.78-.79,1.8-1.89.02-1.11-.84-2.1-1.74-2.11Z"/><path class="cls-16" d="M17.56,11.05c-.33.08-.51.5-.4.93.1.44.46.73.78.65.33-.08.5-.5.4-.93-.1-.44-.45-.73-.78-.65Z"/><path class="cls-6" d="M17.82,9.63c-.33.08-.5.5-.4.93.1.43.45.73.78.64.33-.08.51-.5.4-.93-.11-.44-.46-.72-.79-.65Z"/><path class="cls-16" d="M20.96,9.37s0,0,.01,0c-.06-.37.12-.73.46-.87.4-.16.85.05,1.02.47.17.42-.01.89-.41,1.05-.38.21-1.58,1.63-1.58,1.63-2.03,1.4-2.49-1.57-1.73-2.26.49-.44,1.33-.21,2.23-.03Z"/><path class="cls-10" d="M19.89,11.91s.41-.96-.42-1.08c-.63-.09-.89.34-1.19.87-.31.52-.52,1.45-.23,1.3.29-.15.42-.37.42-.37,0,0-.49.45-.45,1.01.09,1.12.49,1.34.5,1.28.35-1.53,1.04-1.14,1.37-3Z"/><path class="cls-24" d="M21.57,9.08c-.05.02-.08.09-.06.14.03.06.08.08.14.06.06-.02.08-.08.06-.14-.02-.06-.09-.08-.14-.06Z"/><path class="cls-24" d="M21.59,9.12s-.05.06-.04.1c.01.04.06.06.09.04.04-.02.06-.06.04-.1-.01-.04-.06-.06-.09-.04Z"/><path class="cls-24" d="M21.6,9.13s-.04.05-.03.07c.01.03.05.04.07.03.03-.01.05-.04.04-.07-.01-.03-.05-.04-.08-.03Z"/><path class="cls-4" d="M22.85,9.48c.23-.23-.21-.34-.21-.34,0,0,.36.1.3-.11-.05-.22-.55-.3-.55-.3,0,0,.14-.02.06-.17-.15-.26-1.01-.04-.88.05.65.46.93.84.93.84,0,0,.2.2.35.03Z"/><path class="cls-19" d="M17.97,11.27s.04.23-.11.35c-.14.11-.55.09-.53.19.02.1.59.34.59.34l-.9-.02-.18-.39.16-.25.62-.1.35-.11Z"/><path class="cls-20" d="M17.2,11.62s.32-.03.54-.11c.19-.06.3-.2.2-.32-.02-.02-.98.09-1.04.12-.39.17-.31.41-.63.57-.06.03-.07.2-.14.23.02.19.08.37.17.55.56.2,1.1.32,1.35.31.25,0,.92-.18.94-.2.05-.05.11-.19.08-.22-.27-.27-1.6-.74-1.46-.93Z"/><path class="cls-3" d="M15.07,8.54c-.27-.02-1.07-.02-1.08-.04-.11-.38-.21-.76-.31-1.14-.11-.44-.36-.84-.7-1.13-.27-.24-.62-.41-.98-.37.1-.08.45-.28,1.01-.56.23.11.55.33.89.8.31.43,1.03,2.1,1.17,2.44Z"/><path class="cls-23" d="M13.84,10.94c.66.28,2.12.47,2.61.62.18.41.2,1.3-.22,1.34-.02,0-4.46-.46-4.94-.8,0,0,.03-1.08.24-1.4.17-.25,1.01-.23,2.3.23Z"/><path class="cls-17" d="M16.23,29.88c-.44-.46-1.59-1.47-1.73-2.09-.21-.99.19-2.34.33-3.26.03-.17.05-.34.08-.51-.46.47-2.49.3-2.85-.55-.19,1.07-.07,3.35.23,4.42.01.04-.26.69.04,1.06.24.3,1.41.96,1.64,1.27.18.24.38.49.66.61.24.1.51.06.76.02.67-.12,1.09-.69.83-.96Z"/><path class="cls-7" d="M12.55,23.95c-.22-.12-.4-.28-.48-.48-.19,1.07-.07,3.35.23,4.42.01.04-.26.69.04,1.06.24.3,1.41.96,1.64,1.27.18.24.38.49.66.61.02,0,.03,0,.05.01-1.91-1.88-2.31-3.93-2.14-6.89Z"/><path class="cls-20" d="M20.97,9.09c.08.12,0,.34-.02.34-.05,0-.02.35-.09.61-.06.22-.2.34-.34.24-.03-.02.06-1.09.08-1.17.04-.18.3-.12.37-.02Z"/><path class="cls-4" d="M20.85,8.91c.07-.03.18-.02.26.01.11.04.08.11.06.19,0,.07-.08.15-.14.19-.07.05-.22.03-.18-.09-.09.05-.27.03-.28-.11,0-.11.19-.18.28-.2.02-.01-.06.01,0,0Z"/><path class="cls-4" d="M21.2,9.01s.17-.11.09-.25c-.09-.15-.5-.05-.5-.05,0,0,.24.15.41.3Z"/><polygon class="cls-18" points="21.2 9.01 21.13 9.02 20.82 8.72 21.2 9.01"/><path class="cls-2" d="M17.56,2.45s-.03.64-.05.75c-.02.11-.17.27-.21.33-.04.05-.15.21-.16.27,0,.07-.08.55-.08.55,0,0,0,.11-.11.11-.12,0-.23.03-.23.03,0,0-.12.22-.11.26,0,.04-.2.06-.2.06v.16s-.14.03-.14.03c0,0,.04.05,0,.16-.05.11-.15.19-.24.24-.18.09-.37.03-.45,0-.08-.04-.85-.67-.96-1.04-.11-.38.04-.79.04-.79,0,0-.19-.03-.22-.12-.03-.09-.19-.68.03-.9.23-.22.52-.19.59-.08.07.12.08.69.08.69l.54-.07.42-.58.31-.75,1.18.69Z"/><path class="cls-20" d="M14.79,3.06s-.04-.25-.11-.22c-.06.03-.08.16-.07.25,0,.09-.01.25.05.26.07,0,.13-.3.13-.3Z"/><path class="cls-17" d="M13.96,3.33s0-.75.1-1.39c.1-.64.8-1.16,1.25-1.31.45-.15,1.28.26,1.55.44.28.19,1.01,1.05,1.08,1.21.07.15-.04.31-.21.41-.17.09-.53.18-.69.08-.16-.1-.56-.49-.65-.48-.09.01-.15.43-.16.54-.01.1-.11.29-.21.32-.1.03-.38.03-.45.1-.08.07-.22.19-.22.19l-.13.08-.24-.09.05-.3s.09-.45-.22-.53c-.31-.08-.46.3-.49.43-.02.13,0,.45,0,.45,0,0-.24.17-.28.16-.04-.01-.14-.04-.14-.04l.06-.26Z"/><path class="cls-17" d="M16.72,4.5s-.33-.09-.53-.03c-.2.06-.44.27-.44.27,0,0,.05.03-.15-.04-.2-.07-.44-.33-.49-.63-.02-.16.12-.43.12-.43l.16-.33-.37.07s-.26.28-.35.31c-.08.03-.32.52-.11.82.21.31.79.85.93.94.19.12.49.14.59.07.08-.06.02-.14.07-.22.06-.1.14-.19.14-.2,0-.05-.04-.1-.04-.1,0,0-.11-.03-.09-.12.01-.08-.02-.25.3-.21.13.02.17.05.17.05,0,0,.16-.09.09-.21Z"/><path class="cls-16" d="M23.27,23.77s.1-.41.18-.49c.08-.08.14-.08.12-.19-.02-.11-.03-.32-.03-.32,0,0-.42-.56-.45-.68-.03-.13.09-.28-.02-.39-.11-.11-.61-.62-1.06-.75-.46-.13-.8-.31-.94-.37-.14-.06-.48-.17-.52-.2-.04-.03-.47-.53-.58-.68-.11-.16-.22-.55-.33-.57-.11-.02-.17.14-.16.23,0,.1-.11.15-.18.18-.07.04-.14.23-.06.33.08.1.2.19.13.42-.08.23-.06.43-.06.43,0,0-.1.25-.1.33s-.07.22,0,.28c.07.06-.14.66-.12.77.02.11-.12.18-.04.33.08.16,0,.19.05.27.05.09.14.16.14.16l-.16.12s.07.14.09.19c.02.05-.12.15-.07.27.05.13.24.34.24.34,0,0-.17.15-.1.3.07.16.19.11.19.11,0,0-.05.09-.04.14,0,.05,1.38,0,1.38,0,0,0,.06-.09.05-.14,0-.05.02-.1.13-.02.11.08.15.02.15.02,0,0-.21-.1-.06-.1s.28,0,.31,0c.03,0,.09-.06.09-.06l-.15.27.41-.25s-.11.08-.12.11c0,.03-.22.32-.19.32s.5-.24.5-.24l-.02.04h.31s.35-.26.39-.28c.04-.02.02-.07.02-.07l.67-.19Z"/><path class="cls-14" d="M21.25,21.73s-.52.05-.58.14c-.06.09-.31.26-.35.32-.04.06.04.21-.03.22-.07,0-.23.02-.26.11-.03.09-.07.33-.11.35-.04.02-.22.23-.31.24-.09,0-.24.05-.3.13-.06.08-.07.23-.04.31.03.08.19.13.14.19-.05.06-.09.46-.09.46,0,0,.12.04.12.07s.05.1.05.1c0,0,.39-.04.38.02-.01.11.83.06.86,0,.03-.06.1-.26.2-.32.1-.06.25-.53.32-.62.08-.09-.17-.44-.16-.62,0-.19.07-.26.05-.34-.02-.08.09-.2.02-.27-.07-.08-.08-.17-.02-.23.06-.07.11-.24.11-.24Z"/><path class="cls-4" d="M22.97,24l-.19-.03s-.13,0-.2,0c-.07,0-.2-.24-.21-.29,0-.05.05-.18.05-.18,0,0,.14,0,.2,0s.2.13.28.13.2-.34.21-.38c0-.04-.14-.4-.14-.4l.05-.34.07-.22s.2-.4.23-.32c.04.08.04.2.04.2,0,0,.14.05.1.11-.04.06-.06.11-.06.11,0,0,.11-.07.12.05,0,.12-.13.25-.13.25,0,0,.16,0,.11.11-.05.11-.16.26-.16.26,0,0,.09,0,.07.13-.02.13-.09.19-.11.21-.02.03-.03.06-.05.16-.02.1-.06.22-.06.22l-.25.23Z"/><path class="cls-13" d="M23.03,24.06l.07.21s.04-.06.1-.14c.06-.08.02-.28.02-.28l-.03-.08s-.1.08-.2-.02c-.1-.1-.21-.2-.21-.2,0,0-.08-.04-.08.02s.33.49.33.49Z"/><path class="cls-1" d="M22.8,23.33s.02-.14-.03-.17c-.05-.03-.12-.05-.12-.05,0,0,0,.11.04.15.05.04.11.07.11.07Z"/><path class="cls-4" d="M9.94,21.02s0-.15.12-.15c.12,0,.22.28.22.28,0,0-.18-.08-.34-.13Z"/><polygon class="cls-18" points="9.94 21.02 9.97 21.06 10.27 21.14 9.94 21.02"/><path class="cls-13" d="M7.36,24.57c.05.04.11-.05.06-.08-.09-.06-.18-.08-.29-.06,0,0,0,0,0,0-.05-.08-.11-.16-.17-.23h0c.03-.05.07-.1.1-.15.07-.11-.1-.23-.17-.12-.05.08-.1.17-.15.25-.02.04.13.24.16.28-.05,0-.09,0-.14.01-.06.02-.04.12.02.1.05-.01.09-.02.13,0,0,0,.01,0,.02.01.08.03.16.07.19.16.02.06.12.02.09-.04,0-.03-.02-.04-.04-.06.04.02.08.05.12.08.05.04.11-.04.06-.08-.05-.04-.1-.08-.16-.1.05,0,.1.02.15.05Z"/><path class="cls-8" d="M7.46,23.86c-.08.22-.39.32-.69.21-.3-.11-.48-.38-.4-.6.08-.22.39-.32.69-.21.3.11.48.38.4.6Z"/><path class="cls-8" d="M7.6,21.49s.6-.37.76.18c.12.41-.15.62-.46.88-.32.26-.92.49-.84.28.07-.21.21-.32.21-.32,0,0-.25.37-.63.39-.75.05-.94-.2-.9-.21.99-.38.66-.8,1.86-1.2Z"/><path class="cls-16" d="M6.98,23.52s-.1,0-.15.04c0,0-.01-.02-.02-.03t0,0s0-.04,0-.05c-.01-.02-.03-.02-.05-.04.02-.03.02-.05.02-.08-.02-.11-.22-.17-.45-.14-.23.03-.4.15-.39.26.01.07.11.12.24.14-.09.09-.14.19-.09.26.04.05.12.07.23.05-.03.11-.02.2.04.23.07.04.16.01.26-.06.02.06.05.11.1.13.11.04.27-.1.35-.3.08-.2.05-.39-.07-.43Z"/><path class="cls-13" d="M9.48,24.21c.06,0,.07-.1,0-.1-.11,0-.2.04-.27.12,0,0,0,0,0,0-.08-.04-.17-.06-.26-.09h0c0-.06,0-.12,0-.18,0-.13-.21-.13-.2,0,0,.1,0,.2.02.29,0,.05.25.12.3.14-.04.02-.08.05-.11.09-.04.05.03.12.07.07.03-.03.06-.06.11-.08,0,0,.02,0,.02,0,.09-.02.17-.03.25.02.06.04.11-.05.05-.09-.02-.02-.04-.02-.07-.03.05,0,.09,0,.14,0,.07,0,.07-.09,0-.1-.06,0-.12,0-.18,0,.04-.03.1-.05.15-.05Z"/><path class="cls-8" d="M9.05,23.75c-.01.24-.28.42-.6.4-.32-.02-.56-.22-.55-.46.01-.24.28-.42.6-.4.32.01.57.22.55.46Z"/><path class="cls-16" d="M7.46,21.74c.04-.13.13-.27.28-.42,1.19-1.21,1.62-1.12,1.9-.96.28.16.51.37.43.73-.11.51-.69.35-.67.54.07.54.14.69.11.82.11.53-.24,1.14-.87,1.44-.71.33-1.91.02-2.18-.56-.27-.57.3-1.27,1-1.6Z"/><path class="cls-14" d="M8.47,22.41s.6-.37.76.18c.12.41-.14.62-.46.88-.32.26-.92.49-.84.28.07-.21.21-.31.21-.31,0,0-.25.37-.63.39-.75.05-.94-.2-.9-.21.99-.38.66-.8,1.86-1.2Z"/><path class="cls-11" d="M9.97,20.98s-.07.05-.1.03c-.04-.02-.05-.07-.03-.11.02-.03.06-.05.1-.03.04.02.05.07.04.11Z"/><path class="cls-22" d="M9.94,20.96s-.05.03-.07.02c-.03-.02-.03-.05-.02-.07.01-.03.05-.04.07-.03.03.02.03.05.02.07Z"/><path class="cls-11" d="M9.93,20.96s-.03.03-.06.02c-.02-.01-.03-.03-.02-.05.01-.02.04-.03.06-.02.02,0,.03.04.02.06Z"/><path class="cls-4" d="M8.75,20.55c.01-.26.31-.13.31-.13,0,0-.25-.1-.1-.21.15-.12.46.05.46.05,0,0-.07-.08.06-.14.22-.1.57.43.45.43-.61.02-.97.14-.97.14,0,0-.22.05-.21-.13Z"/><path class="cls-4" d="M5,29.85s-.51-.25-.59-.55-.05-.59.05-.5c.1.09.17.17.2.17.03,0-.12-.45-.03-.63.1-.18.18-.31.2-.16.03.15.01.36.08.29.07-.08.16-.38.27-.31.11.06.1.24.1.24,0,0-.37.29-.4.6-.03.32.09.64.14.73.05.09.06.14.06.14h-.09Z"/><path class="cls-4" d="M5.39,29.9s.1.17.06.28c-.03.11-.08.18-.08.18,0,0,.21.24.3.25.09.01.14-.11.14-.11,0,0-.03.01.13-.01.15-.03.23-.18.19-.32-.04-.15-.15-.27-.15-.27,0,0-.15-.04-.25-.04s-.34.04-.34.04Z"/><path class="cls-13" d="M5.11,29.9h.31s.07.17.07.24-.14.29-.18.34c-.04.04-.14.06-.14.06,0,0-.08-.15-.1-.29-.02-.13.04-.35.04-.35Z"/><path class="cls-13" d="M7.9,29.71s-.43.91-.5.92c-.06,0-.11,0-.15,0-.03,0-.09-.02-.13-.03-.05,0-.23.03-.23.03,0,0-.26.13-.19.16.07.03.31,0,.37,0,.07,0,.03.07.06.1.02.04.14.07.26.01.12-.05.16-.1.25-.09.09,0,.46.02.5,0,.03-.01.18-.08-.03-.1-.21-.02-.49-.04-.47-.11.02-.07.63-.78.63-.78l-.36-.12Z"/><path class="cls-13" d="M11.32,29.44l.27-.19s.62.54.84.8c.22.26.28.35.33.44.06.1.09.32.1.44,0,.12-.04.19-.09.23-.05.04-.15.08-.16.02-.01-.06.04-.28.04-.28,0,0-.05.02-.07.05-.02.02-.09.15-.15.19-.06.03-.17.04-.15-.04s.15-.25.1-.25-.17.09-.22.09-.25,0-.17-.05c.07-.06.15-.15.25-.17.11-.02.2-.04.27-.06.07-.02.1-.09.08-.12-.02-.03-.45-.51-.58-.61-.13-.1-.69-.5-.69-.5Z"/><path class="cls-16" d="M5.11,29.9l.56.02.31-.02s.13-.09.23-.15c.1-.06.25-.1.46-.16.21-.06.56-.06.75-.06s.4-.02.4-.02l.05.11c.05.11.29.13.41.14.13.02.24-.11.24-.11,0,0,.18-.05.65-.16.48-.11.78-.22.78-.22,0,0,.1.03.52.19.43.16.89.02.89.02l.22-.21s.02-.18.02-.38-.03-.95-.05-1.05c-.02-.1.11-.25.22-.43.11-.17-.08-.13-.18-.27-.1-.14.3-.3.41-.38.11-.08.03-.21-.1-.22-.13-.02-.38.02-.38.02,0,0,.56-.4.65-.49.1-.1.06-.48-.02-.57s-.18.14-.18.14l-.49.22s.81-.75.86-1.02c.05-.27.02-.68-.13-.81-.14-.13-.24.25-.24.25,0,0-.59.62-.54.59s.22-.37.3-.67c.08-.3.05-.6-.13-.68-.17-.08-.25.35-.3.49-.05.14-.54.8-.54.8,0,0,.19-.46.19-.65s-.08-.27-.25-.29c-.17-.02-.11.08-.11.27s-.24.75-.24.75c0,0-.05-.06-.21-.05-.16.02-.24.68-.33.86-.1.18-.86.54-1.15.68-.29.14-.65.24-1.03.3-.38.06-1.18.65-1.57.99-.4.33-.89.7-1.15,1.1-.25.4.15,1.1.15,1.1,0,0-.01.03.02.04Z"/><path class="cls-21" d="M5.51,29.44c0,.07-.05.12-.11.12s-.11-.05-.11-.12.05-.12.11-.12.11.05.11.12Z"/><path class="cls-14" d="M8.18,27.45s-.05-.57.44-.76c.49-.19.56-.27,1.07-.19.51.08,1.42.71,1.56.73.14.02.81.14.81.14,0,0-.03.19-.37.32-.13.05-.61.08-.61.08,0,0,.1.1.15.1s.25.07.07.15c-.19.08-.37.25-.63.25s-.68.17-.83.17-1.79-.36-1.66-1Z"/><path class="cls-13" d="M23.27,31.13c-.07.05-.15-.06-.08-.11.12-.08.26-.11.39-.08,0,0,0-.01,0-.01.07-.11.15-.21.23-.3h0c-.04-.07-.09-.15-.13-.21-.09-.16.13-.32.23-.16.07.11.15.22.21.34.03.06-.18.33-.23.39.06,0,.13,0,.19.02.08.02.06.16-.02.14-.06-.02-.12-.03-.18-.01,0,0-.02.01-.03.02-.11.05-.21.09-.26.21-.04.08-.16.03-.13-.06.02-.03.03-.06.05-.09-.06.03-.11.06-.16.11-.06.06-.14-.05-.08-.11.06-.06.14-.1.21-.14-.07,0-.14.03-.21.07Z"/><path class="cls-13" d="M21.71,31.1c-.07.05-.15-.07-.08-.11.12-.09.26-.11.39-.08,0,0,0-.01,0-.01.07-.1.15-.2.23-.3h0c-.04-.07-.09-.14-.13-.21-.09-.15.13-.31.23-.16.07.11.15.22.21.35.03.06-.18.32-.23.38.06,0,.13,0,.19.02.08.02.06.16-.03.13-.06-.02-.12-.02-.18,0,0,0-.02.01-.03.02-.11.05-.22.09-.27.21-.04.08-.16.02-.12-.06.01-.03.03-.06.05-.09-.06.03-.11.07-.16.11-.07.06-.15-.06-.08-.12.06-.06.13-.1.21-.14-.07,0-.14.02-.2.07Z"/><path class="cls-14" d="M24.71,27.12c-.23.27-.3.58-.16.7.14.12.44,0,.67-.26.23-.27.3-.58.16-.7-.14-.13-.44,0-.67.26Z"/><path class="cls-14" d="M24.35,27.05c-.09.34-.02.65.16.7.18.05.4-.19.49-.53.09-.34.02-.66-.15-.7-.18-.05-.4.19-.5.53Z"/><path class="cls-14" d="M25.08,27.4c-.32.16-.5.42-.42.59.08.17.41.17.72.01.32-.16.5-.42.42-.58-.08-.17-.4-.17-.72-.02Z"/><path class="cls-14" d="M23.93,27.2c0,.35.14.64.32.64.19,0,.34-.28.35-.63,0-.35-.14-.64-.32-.64-.18,0-.34.27-.35.63Z"/><path class="cls-16" d="M21.06,28.76c.07.87,1,1.5,2.07,1.41,1.07-.09,1.88-.87,1.81-1.74-.07-.86-.93-1.64-2-1.55-1.07.09-1.95,1.02-1.88,1.88Z"/><path class="cls-16" d="M22.91,30.07c.11.31.53.44.94.3.41-.14.66-.51.55-.82-.1-.31-.53-.44-.93-.29-.41.14-.66.51-.55.81Z"/><path class="cls-16" d="M21.51,29.96c.11.31.53.44.94.3.41-.14.66-.51.55-.82-.11-.31-.53-.44-.94-.3-.41.14-.66.51-.55.82Z"/><path class="cls-16" d="M20.97,26.95s0,0,0,0c-.35.09-.72-.05-.88-.36-.19-.37-.03-.83.36-1.04.39-.21.86-.07,1.06.3.25.34,1.72,1.37,1.72,1.37,1.55,1.83-1.28,2.56-2.02,1.89-.47-.43-.33-1.26-.24-2.15Z"/><path class="cls-14" d="M23.46,27.76s-.92-.29-.96.49c-.03.58.4.77.9,1.01.5.23,1.37.34,1.21.09-.16-.25-.38-.35-.38-.35,0,0,.46.41.96.32,1-.18,1.18-.57,1.12-.58-1.43-.18-1.13-.84-2.86-.98Z"/><path class="cls-11" d="M20.62,26.39s.09.07.14.04c.05-.03.07-.09.04-.14-.03-.05-.09-.07-.14-.05-.05.03-.07.09-.05.14Z"/><path class="cls-22" d="M20.66,26.36s.06.05.1.03c.03-.02.05-.06.03-.1-.02-.03-.06-.05-.09-.03-.04.02-.05.06-.03.09Z"/><path class="cls-11" d="M20.67,26.35s.05.04.08.03c.03-.01.04-.05.02-.08-.01-.03-.05-.04-.08-.03-.02.02-.04.05-.02.08Z"/><path class="cls-4" d="M20.88,25.11c-.24-.19-.31.24-.31.24,0,0,.06-.36-.14-.29-.2.08-.23.56-.23.56,0,0-.03-.14-.16-.04-.24.17.06.98.13.85.39-.67.72-.99.72-.99,0,0,.17-.21,0-.34Z"/><path class="cls-4" d="M20.53,27.1c-.04-.07-.03-.18-.01-.25.03-.1.1-.09.18-.08.07,0,.15.06.19.12.06.06.05.2-.07.19.06.08.06.26-.08.28-.1.01-.19-.17-.22-.25-.01-.03.02.05,0,0Z"/><path class="cls-13" d="M20.59,26.75s-.12-.16-.26-.07c-.13.1,0,.49,0,.49,0,0,.13-.24.25-.43Z"/><polygon class="cls-18" points="20.59 26.75 20.6 26.82 20.34 27.14 20.59 26.75"/></svg>