<?xml version="1.0" encoding="UTF-8"?><svg id="Complications" xmlns="http://www.w3.org/2000/svg" viewBox="0 0 32 32"><defs><style>.cls-1{fill:#9d7e7d;}.cls-1,.cls-2,.cls-3,.cls-4,.cls-5,.cls-6,.cls-7,.cls-8,.cls-9,.cls-10,.cls-11,.cls-12,.cls-13,.cls-14,.cls-15{stroke-width:0px;}.cls-2{fill:#cdc2bb;}.cls-3{fill:#846f66;}.cls-4{fill:none;}.cls-5{fill:#1f1b13;}.cls-6{fill:#7a5d4c;}.cls-7{fill:#b0937a;}.cls-8{fill:#000;}.cls-9{fill:#caa9a5;}.cls-10{fill:#dbba97;}.cls-11{fill:#543e2e;}.cls-12{fill:#fff;}.cls-13{fill:#af8f8c;}.cls-16{opacity:0;}.cls-14{fill:#d1988a;}.cls-15{fill:#c5a992;}</style></defs><rect class="cls-4" width="32" height="32"/><path class="cls-9" d="M10.14,18.18s-.29.61-1.57,1.36c-1.27.75-2.24,1.11-2.56.95-.3-.17-.47-.47-.46-1.19,0-.69.32-1.95.04-2.89-.28-.93-1.25-1.66-1.85-1.85-.6-.19-1.31-.12-.92-.02.38.1,1.24.79,1.63,1.04.39.25.69.86.81,1.42.12.57-.48,1.89-.43,2.48.03.58.18,1.34.79,1.56s1.37.2,1.94-.12.96-.32,2-.98c1.04-.63,1.83-1.18,1.83-1.18l-1.24-.61v.02Z"/><path class="cls-13" d="M9.81,18.61s-.26.29-.43.39-.19.12-.19.12c0,0,.31.04.33.26.03.21-.37.46-.53.62s-1.01.72-1.01.72c0,0,.81-.27,1.63-.77s1.19-.8,1.19-.8l-.09-1.08-.91.53Z"/><path class="cls-1" d="M13.59,19.92s.2,1.05.53,1.21.38-.02.38-.02c0,0-.07-.33.21-.38s.32-.14.32-.14c0,0-.41-.32-.51-.54s-.15-.38-.15-.38l-.7-.31-.08.55Z"/><path class="cls-9" d="M13.99,20.66s.08.55.38.53.87-.16.87-.16c0,0,0,.7.08.75s.29-.07.29-.18.1-.69.1-.69c0,0,.44-.24.51-.19s.54.76.68.76,0-.3-.05-.4-.28-.56-.05-.45.54.58.78.47-.2-.47-.2-.47c0,0,.58.35.73.45s.53.15.22-.18-.98-.6-1.05-.62-.23-.1-.42-.06-.46.02-.56.04-.34.1-.43.11c-.06,0-.47.15-1.01.24-.28.04-.88.05-.88.05Z"/><path class="cls-13" d="M20.71,18.62s.44.76.55,1.01.26.54.26.54l-.86-.12s-.18-.29-.19-.33-.4-.7-.4-.7l.65-.39Z"/><path class="cls-9" d="M18.56,19.6s.61.02.58.25c-.07.63.32.58.32.58,0,0,.26-.1.34-.06.23.11.15.37.28.42s.12-.22.12-.22c0,0-.04-.14,0-.21.02-.03.04-.04.09-.04.17,0,.37.17.55.3s.65.31.54.11-.39-.5-.28-.43.68.44.83.43-.53-.46-.13-.44.49.3.74.24c.35-.09-.41-.38-.74-.45s-.71-.01-1.07-.16-.55-.15-.66-.32-.69-.73-.69-.73h-.46l-.36.73Z"/><path class="cls-13" d="M19.69,20.09s.09-.17.21-.1.19.17.22.18.08.2.08.2l.37.07s.08.04,0-.13-.23-.36-.37-.42-.78-.59-.81-.51.26.96.26.96l.03-.25Z"/><path class="cls-7" d="M22.47,13.11c-.25-.1-.78-.62-1.3-.66-.51-.04-1.72-.09-1.84-.22-.13-.12-1.16-1.05-1.61-1.14s-1.68-.55-3.41.2c-1.73.76-2.44,1.54-2.96,2.23-.52.69-1.32,1.66-1.31,2.74,0,1.08-.79,1.87.08,2.55.33.26.58.49.84.64,0-.08.06-.15.12-.19l.04-.11c.07-.18.33-.14.37.05.02.07.03.12.02.19.33-.03.67-.04,1.01-.05.07,0,.12.02.17.07.05-.01.11-.02.14-.03.02-.04.07-.07.12-.06.17-.03.34-.06.52-.08,0-.01.04-.03.08-.03.12-.03.16.06.28.04.07-.02.29.49.36.47.05-.01.36.05.39.08.09,0-.1-.69-.01-.69.05,0,.09-.01.13-.01.05-.01.09,0,.12.03.03.01.08,0,.11.01.01,0,.05-.01.07,0,.06.02.11.01.16.03.24.03.49.07.74.13l.11.04c.22.05.43.09.65.13h0c.32-.03,1.08-.05,1.27.31.44-.02.88-.08,1.24-.26.24-.11.5-.25.77-.4-.04-.06-.04-.13,0-.21.23-.29.73-.42,1.11-.44.13-.04.26-.09.37-.11.04-.02.09-.01.12-.03.02-.04.06-.07.13-.08.2-.02.39-.02.58,0,.31,0,.62.05.9.21h0c.43.09-.54-5.31-.68-5.36Z"/><path class="cls-2" d="M19.93,19.3c.11.04.27.06.39.12-.15,0-.38,0-.52-.06.03.04.08.09.11.12-.09-.02-.18-.02-.27-.06.03.04.06.1.09.15-.03-.04-.09-.07-.14-.1.01.05-.01.11,0,.16-.04-.05-.11-.08-.17-.07,0,.02.03.06.03.08-.01,0-.1-.02-.12-.05-.01.03-.02.04,0,.08-.22-.09-.31.02-.53,0v.05c-.08,0-.06.06-.1.08-.05.01-.12-.02-.19-.04-.01.03-.07.05-.07.07-.03-.04-.07-.07-.1-.12v.03c-.06-.05-.08-.11-.06-.16,0,.01,0,.05,0,.07-.03-.08-.03-.17.01-.16,0,0,.06-.03.06-.15l-.04.06s.04.1.05.16c-.06-.1-.07-.24-.04-.35.07.07.18.15.26.15-.02-.04,0-.07,0-.1.06.02.12.05.17.1,0-.13-.16-.42-.28-.48.03.14.34.18.46.25-.13-.21-.21-.39-.44-.5.08.09.36.3.47.35-.06-.1-.11-.22-.18-.33.03.14.21.28.34.33-.05-.12-.16-.19-.21-.31.06.14.17.26.3.33-.08-.13-.14-.25-.18-.39.06.12.15.24.23.35-.04-.1-.07-.22-.11-.33.05.08.08.16.13.24-.09-.17-.14-.34-.2-.51.14.28.31.56.24.42.06-.03.22-.12.31,0,.12.14.33.37.42.44-.1-.07-.24-.13-.34-.2.1.15.34.35.53.36l-.21-.08c.1.15.32.13.49.15"/><path class="cls-3" d="M22.21,18.33c-.64-.05-1.54.48-2.32.91-.21-.31-.23-.76-.01-1.06.2-.31.53-.51.89-.58.49-.1.76.14,1.18.29.38.13.79.11,1.14.32.16.09.27.22.4.33-.4-.09-.84-.19-1.26-.21h-.01Z"/><path class="cls-2" d="M10.41,18.68c-.02.06-.04.11-.07.15.04-.11.13-.21.22-.27,0,.09.02.23.08.29.02-.04.05-.04.07-.09.03.06.03.12.04.19.1-.09.19-.41.15-.54-.08.11.11.38.14.5.06-.23.14-.43.04-.67-.02.12.04.47.08.58.04-.11.09-.24.1-.34-.08.11-.04.35,0,.47.05-.12.03-.24.08-.37-.06.14-.07.31-.03.45.04-.14.08-.27.16-.4-.06.14-.06.28-.08.42.04-.11.1-.2.17-.3-.03.08-.07.17-.09.26.05-.17.15-.34.23-.5-.12.29-.3.59-.19.92,0-.15,0-.3.05-.46.15.06.18.65.2.82-.02-.12-.08-.25-.09-.37-.04.18-.02.49.12.63-.02-.07-.05-.15-.09-.21-.04.18.13.32.24.45-.11-.17-.28-.32-.34-.52.05.12.13.23.18.36-.1-.11-.26-.28-.32-.42,0,.05-.01.11-.02.17-.05-.08-.1-.15-.15-.24l-.06.15c.02-.06,0-.11-.01-.17-.03.04-.09.08-.11.12,0-.07-.01-.13-.07-.16l-.03.07s-.06-.09-.06-.12c-.01.03-.04.03-.06.06-.09-.23-.22-.22-.36-.38l-.03.04c-.06-.06-.08,0-.12-.02-.06-.02-.07-.11-.09-.17-.03,0-.07-.01-.11-.01.02-.04,0-.09.03-.15,0,0-.02,0-.04.02,0-.06.04-.11.07-.15,0,.01-.04.03-.05.04.03-.08.1-.14.12-.1,0,0,.06.02.15-.05l-.04.03Z"/><path class="cls-2" d="M13.6,19.48s-.01.11-.05.16c.01-.11.08-.24.15-.31.01.09.07.22.14.26l.04-.1s.07.11.08.17c.07-.1.09-.43.03-.55-.05.12.18.35.25.47.01-.24-.08-.43-.02-.63,0,.11.05.42.11.52.02-.12.02-.25.02-.36-.05.12.04.35.11.46.02-.12-.03-.25-.01-.37-.03.15,0,.32.08.45,0-.14.02-.28.06-.43,0,.14,0,.29,0,.42.02-.1.05-.22.1-.33,0,.09-.01.19-.01.27.01-.19.08-.36.1-.54-.04.31-.04.63-.03.49.06.02.25.02.27.16s.08.5.12.59c-.05-.12-.13-.24-.18-.35,0,.17.1.49.25.58-.04-.06-.09-.13-.14-.18,0,.18.19.29.33.39-.15-.14-.34-.25-.44-.42.07.11.18.19.25.31-.13-.07-.31-.22-.41-.34.01.05.02.12.03.17-.07-.06-.14-.12-.2-.19,0,.05-.01.11-.02.17-.01-.05-.04-.11-.05-.15-.02.06-.07.09-.09.14-.03-.06-.05-.12-.11-.14-.01.03-.02.04-.01.07,0,0-.08-.08-.09-.1-.01.03-.03.04-.04.06-.13-.2-.27-.16-.45-.29l-.02.06c-.06-.04-.07.02-.12.02-.06-.02-.09-.09-.13-.15-.04.02-.09.01-.11.02,0-.05-.02-.11,0-.15,0,0,0,.01-.02.02-.01-.05,0-.13.03-.16l-.03.07c0-.08.07-.17.1-.12,0,0,.06.02.13-.09l.02-.06Z"/><g class="cls-16"><path class="cls-8" d="M23.14,20.06l.04-.11-.03.07c-.02.06-.06.07-.02.04Z"/><path class="cls-8" d="M23.26,18.79c-.15.18-.3.36-.44.53l.44-.53Z"/></g><path class="cls-3" d="M11.28,16.84c.08-.19.15-.39.3-.52-.06-.02-.09-.09-.15-.11.14-.28.26-.46.59-.51-.21.03-.44.1-.66.16l.06-.14s-.02.02-.04.03c.01-.03.05-.04.07-.07l-.02.04s.06-.06.08-.08c.22-.19.53-.32.74-.4-.23.02-.47.1-.7.15-.05,0-.11-.01-.15,0l.06-.15c.12-.11.29-.19.43-.25-.15.02-.37.08-.55.1l.03-.07-.11-.04s.02-.09.05-.12l-.04-.02c.08-.11.2-.18.29-.25-.09.03-.18.04-.27.02.06-.14.2-.19.3-.28-.03,0-.07,0-.1,0,.03-.08.09-.16.17-.19-.08.03-.17.06-.25.06.07-.13.25-.19.37-.27-.01,0-.05,0-.07,0-.07.02-.15.05-.22.07l.11-.07s.03,0,.04-.02c-.01,0-.03,0-.05,0,.07-.07.18-.12.24-.21-.07.02-.16.03-.23.02.07-.1.21-.16.3-.23-.07,0-.15,0-.21,0,.02-.06.1-.09.16-.11l-.04-.02s.06-.06.09-.08c-.05.01-.12.03-.17.03l.07-.18.12-.05h0s-.1,0-.15.02h0c-.05.01-.11.04-.16.05-.13.08-.27.16-.42.25.06-.03.13-.04.2-.05-.19.15-.58.32-.68.45.08-.05.21-.08.3-.07-.13.17-.38.23-.51.43.07-.02.16,0,.21-.01-.07.17-.24.24-.31.41.05,0,.09.02.14,0-.03.15-.13.45-.23.58l.12.05c-.04.11-.05.22,0,.31,0,.05-.03.07-.02.12.03.01.06,0,.08.03-.1.2,0,.31.2.3-.04.21.02.59.3.63-.03.12-.07.23-.1.34.1.04.23.06.35.09-.07.1-.09.22-.04.31.14-.2.26-.44.49-.58-.13.08-.28.14-.41.1l-.02-.04ZM11.45,13.66s-.04.02-.06.04c0-.01.04-.02.06-.04h0ZM11.44,13.81c-.07.02-.14.04-.21.08.02-.04.04-.06.07-.1.05-.01.1,0,.14.02Z"/><path class="cls-15" d="M16.5,17.02c-.3.14-.5.3-.88.31.39-.58,1.79-.51,2.16-1.15-.39.46-.87.84-1.53,1.06.07-.1.22-.15.31-.25-.1.25-.39.57-.79.52.07-.17.15-.33.22-.47-.12.19-.48.36-.81.27.06-.14.19-.23.25-.35-.2.13-.82.32-1.1.14.09-.08.24-.15.36-.15-.19.28-.86.33-1.29.22.18-.04.38-.06.56-.11-.12.19-.9.25-1.2.15.22-.04.46-.07.62-.19-.46-.05-.83.07-1.09.31.19-.1.35-.23.41-.42-.18.17-.29.37-.47.54.02-.14.08-.36-.03-.53-.04.11-.09.24-.12.35.04-.18,0-.51-.24-.66-.07.1-.08.21-.07.34.02-.25-.02-.55-.21-.81-.08.11-.1.25-.08.4-.07-.43-.17-.87-.14-1.29-.04.18-.03.36-.14.51-.13-.36-.11-.78-.12-1.12-.06.15-.08.32-.13.48.04-.34.08-.69.13-1.02-.08.19-.19.39-.26.59.12-.31.17-.7.51-.89-.2.02-.39.05-.58.08.12-.43.58-.73,1.03-.94-.14.19-.57.22-.87.17.3-.31.86-.54,1.37-.63-.22.03-.46,0-.7-.05.43-.2.96-.34,1.51-.33-.3,0-.65-.1-.95-.23.47-.2.96-.04,1.48-.05-.35-.09-.73-.19-1.06-.32.37-.08.77-.16,1.21-.08l-.4-.16c.26,0,.54.1.78.07-.12-.05-.25-.13-.36-.18.32.03.65.03.97.08l-.14-.06c.27.01.57.02.83-.02-.1-.04-.2-.11-.29-.15.65.07,1.56,0,2.18.21-.2.1-.47.09-.72.1.29.08.61.08.91.1-.34.09-.71.04-.99.2.21.07.44.08.64.09-.3.11-.87-.04-1.11.16.27,0,.58.04.86.07-.21.13-.53.13-.75.23.11,0,.26.04.38.02-.26.14-.63.1-.95.17.06,0,.18.04.25.05-.35.41-1.19.36-1.41.92.15-.05.3-.14.37-.25-.14.23-.36.43-.47.7.04-.11.1-.2.21-.25-.1.28-.24.68-.45.88,0-.01.05-.12.04-.1-.13.24-.15.5-.25.75,0-.13.02-.25-.01-.37-.12.19-.05.46-.03.69.03-.08.08-.16.09-.24-.08.11-.08.29-.06.43.02-.04.05-.08.07-.13-.1.17-.1.38-.07.58.09-.09.18-.17.3-.22-.03.07,0,.15,0,.22.16-.05.28-.14.45-.19-.02.06.01.17.01.21.06-.06.15-.1.21-.16-.02.06,0,.09-.01.16.21-.01.47-.09.67-.1l-.02.06c.21.08.39-.04.59-.02-.02.12-.02.25.03.37.21-.04.43-.15.62-.22,0,.05.03.09.03.12.14-.03.27-.07.4-.11.08.16.12.39.11.56.45-.29.69-.16,1.32-.17l-2.08.55v-.03Z"/><path class="cls-3" d="M10.28,18.44c-.14.07-.34.08-.45.17.29-.01.59-.18.72-.44-.1.04-.19.12-.3.14.15-.05.31-.18.39-.33-.1.06-.22.11-.33.11.04-.03.07-.07.12-.1-.02.02-.07.02-.11.04.01-.03.06-.04.04-.06-.03,0-.1,0-.13.01,0,0,.02-.06.03-.04.01-.03.05-.12.1-.17-.08.03-.18.06-.28.05.12-.06.2-.19.25-.32-.09,0-.17,0-.26,0,.27-.12.48-.32.71-.5-.22.03-.44.13-.64.23.07,0,.12-.05.19-.1-.07.02-.25.09-.29.19.05-.09.09-.26.1-.38-.11.02-.19.12-.25.19.13-.21.33-.5.34-.75-.14.11-.27.23-.38.38.11-.12.25-.3.31-.46-.13.09-.29.24-.41.35-.02.2-.13.41-.15.62.08-.05.14-.14.15-.23-.09.11-.12.31-.08.44.05-.04.09-.09.11-.15-.11.07-.12.26-.12.39.1-.04.2-.11.27-.18-.11.07-.24.23-.22.36.04-.02.08-.03.1-.06-.07.13-.14.27-.19.41.08-.03.16-.05.23-.1-.11.08-.23.18-.3.28.07-.02.16,0,.23,0-.08.05-.17.08-.27.1.09,0,.21,0,.3.02-.09.01-.19.04-.27.04.13-.01.26,0,.39-.02l.34-.16v.02Z"/><path class="cls-3" d="M10.32,16.56c-.17.01-.33-.05-.49.02.28.1.62.02.82-.17-.11,0-.22.04-.33.03.16,0,.36-.06.47-.18-.12.02-.23.02-.35-.01.05-.01.1-.04.15-.05-.03,0-.08,0-.11,0,.01-.03.07-.02.07-.05-.03-.01-.1-.04-.13-.04,0,0,.02-.04.04-.03.01-.03.09-.09.15-.13-.1,0-.19-.01-.27-.04.14-.03.27-.1.34-.22-.08-.03-.17-.07-.24-.08.3-.03.56-.15.85-.23-.21-.04-.46-.02-.68,0,.06,0,.13-.01.21-.04-.06,0-.26,0-.34.09.09-.08.16-.21.22-.31-.11-.01-.21.04-.3.11.19-.15.48-.36.59-.59-.17.06-.34.12-.49.22.14-.07.34-.2.45-.32-.16.03-.34.14-.51.2-.08.19-.27.34-.36.53.09-.03.17-.08.22-.15-.13.08-.21.25-.22.39.06-.03.1-.06.15-.1-.12.03-.2.21-.24.32.1,0,.22-.04.31-.09-.12.03-.3.14-.33.27.03,0,.08,0,.12-.02-.12.1-.22.2-.32.31.08,0,.17,0,.25-.01-.12.03-.28.1-.39.17.07.01.15.06.21.08-.09.01-.19.02-.28.02l.28.11c-.09,0-.2-.03-.27-.06.14.02.26.09.39.12l.37-.03v-.03Z"/><path class="cls-2" d="M16.41,19.51c.03.17-.04.34.03.49.08-.29-.01-.62-.2-.82.02.11.04.21.05.32,0-.16-.08-.35-.2-.47.02.12.03.24,0,.35-.01-.05-.04-.1-.06-.14,0,.03,0,.08,0,.11-.03-.01-.02-.07-.05-.07-.01.03-.02.1-.04.13,0,0-.04-.02-.03-.04-.03-.01-.09-.09-.14-.14.01.09,0,.19-.03.28-.03-.12-.12-.26-.24-.33-.03.08-.07.17-.07.25-.05-.29-.18-.55-.28-.83-.04.21,0,.46.04.67,0-.06-.02-.12-.04-.21,0,.07,0,.26.11.33-.08-.08-.21-.15-.32-.21,0,.11.06.22.12.3-.17-.18-.38-.46-.62-.55.06.17.14.33.25.47-.07-.14-.22-.33-.34-.43.05.16.15.35.22.49.19.08.36.24.54.33-.03-.09-.09-.17-.17-.21.08.13.26.2.41.19-.03-.06-.06-.1-.11-.14.03.12.21.2.33.23,0-.1-.04-.22-.09-.29.04.13.16.29.28.32,0-.03-.01-.09-.02-.12.1.11.22.22.33.29-.01-.09,0-.16-.03-.25.04.13.12.27.19.38,0-.08.05-.16.07-.21.01.09.02.19.03.29l.11-.28c0,.09-.02.2-.04.27.02-.14.07-.26.09-.4l-.05-.36h-.03Z"/><path class="cls-2" d="M16.65,19.57c.03.06.04.11.04.18-.06-.1-.06-.26-.01-.37.07.07.17.18.27.17-.02-.04,0-.07,0-.11.06.02.11.08.16.11.02-.14-.13-.45-.26-.52.03.14.35.22.47.3-.12-.22-.2-.43-.44-.55.07.11.35.33.46.41-.05-.12-.1-.23-.16-.35.02.15.21.31.33.37-.04-.13-.15-.22-.2-.35.05.15.16.29.3.38-.07-.14-.13-.28-.16-.42.06.14.14.26.21.39-.04-.11-.07-.24-.08-.35.05.08.08.17.12.26-.09-.18-.11-.37-.18-.55.13.31.18.68.5.86-.12-.11-.21-.24-.28-.4.16-.05.6.38.73.5-.11-.09-.23-.15-.34-.23.09.17.34.39.53.4-.06-.04-.15-.07-.22-.09.09.17.34.17.5.2-.22-.05-.43-.04-.63-.15.12.05.27.09.39.15-.16,0-.4-.03-.55-.11.03.04.08.09.11.14-.1-.04-.19-.04-.29-.08.03.06.04.11.08.16-.03-.04-.08-.08-.13-.12.01.05-.02.12,0,.17-.04-.05-.11-.09-.17-.07,0,.02.03.06.03.08l-.14-.06s-.02.06-.01.07c-.22-.12-.34,0-.56-.05,0,0-.02.04,0,.06-.08,0-.06.06-.11.07-.07,0-.13-.04-.19-.08-.01.03-.07.05-.09.08-.03-.04-.07-.07-.09-.13l-.02.04s-.06-.12-.04-.18c0,.01,0,.06,0,.08-.03-.08-.02-.19.03-.16,0,0,.06-.03.08-.16h.01Z"/><path class="cls-2" d="M13.96,19.69c0-.06.02-.12.04-.18,0,.11-.07.25-.14.35-.02-.11-.09-.23-.16-.27l-.04.1s-.08-.11-.09-.18c-.08.11-.07.47,0,.58.06-.14-.22-.34-.3-.47,0,.26-.01.48.16.69-.02-.12-.17-.45-.24-.56,0,.13,0,.26,0,.39.06-.14-.06-.36-.15-.48,0,.14.04.26.03.4.01-.16-.01-.33-.11-.46,0,.15,0,.31-.03.45.01-.16-.01-.29-.03-.45-.02.12-.05.24-.08.36,0-.09,0-.19,0-.29,0,.19-.05.38-.07.58.02-.33.13-.69-.09-.98.05.15.08.32.08.48-.17-.02-.37-.6-.45-.77.05.12.15.24.21.36,0-.18-.14-.5-.31-.6.04.06.11.14.17.18-.02-.2-.23-.28-.38-.39.17.15.37.23.49.42-.09-.1-.2-.19-.28-.3.15.06.34.2.45.32-.01-.05-.02-.12-.04-.18.07.06.16.13.23.2,0-.06.02-.12,0-.17.01.05.04.11.07.16.02-.06.07-.1.08-.16.02.07.06.12.12.14.01-.03,0-.06,0-.08.01,0,.08.08.1.11.01-.03.02-.06.05-.08.14.2.29.15.49.27l.02-.06c.07.03.08-.03.12-.02.06.02.09.09.15.14.02-.02.09-.01.11-.02,0,.05.02.11.02.15,0,0,0-.01.02-.02,0,.07.01.13-.04.18l.03-.07c0,.09-.07.17-.1.14,0,0-.06,0-.14.11h0Z"/><path class="cls-2" d="M12.95,20.09l.05-.12c0,.09-.08.19-.17.24-.02-.07-.07-.19-.14-.22-.01.03-.04.05-.05.08-.03-.04-.06-.09-.09-.15-.08.08-.1.34-.03.45.04-.11-.19-.29-.26-.39-.02.2-.05.37.11.54,0-.1-.14-.38-.2-.47-.02.09-.03.2-.04.29.06-.11-.03-.29-.11-.38-.02.1.02.2,0,.31.03-.12,0-.26-.08-.37-.01.11-.03.23-.07.34.02-.12.01-.24.01-.35l-.1.26c.01-.07.01-.16.02-.22-.01.16-.08.29-.12.43.05-.25.19-.52,0-.77.03.12.06.25.05.37-.16-.03-.32-.5-.39-.64.04.1.13.2.19.3,0-.14-.1-.41-.26-.49.04.06.08.11.15.15,0-.15-.21-.24-.34-.33.16.13.35.22.46.38-.08-.09-.19-.17-.26-.27.14.06.32.19.43.3-.01-.05-.01-.09-.03-.14.07.06.15.11.2.18.02-.04.02-.09.02-.14,0,.05.03.09.06.14.02-.04.07-.07.09-.11.01.05.06.1.11.12l.02-.06s.09.07.09.09c0-.01.04-.03.05-.04.14.17.28.14.46.26,0,0,.01-.03.03-.04.07.03.09-.01.13,0,.06.02.1.07.13.12.04-.02.08,0,.11,0-.02.04.01.09.02.12l.04-.02c.01.05-.01.11-.05.12,0,0,.03-.04.04-.05,0,.06-.08.13-.11.1,0,0-.06-.02-.14.07l-.04-.03Z"/><path class="cls-2" d="M13.89,18.88c-.16-.05-.32-.09-.46-.18-.01.03-.05.08-.04.11-.24-.09-.4-.16-.48-.38.05.15.15.3.21.44l-.11-.04s.03.01.04.03c-.03-.01-.04-.02-.06-.04h.03s-.06-.01-.08-.04c-.17-.15-.33-.34-.42-.49.05.16.15.32.23.48,0,.03.02.07.02.11l-.12-.05c-.11-.08-.18-.19-.25-.29.04.1.12.26.15.38l-.06-.02s-.02.06,0,.08c-.04-.02-.07-.01-.1-.04v.03c-.11-.04-.18-.13-.26-.19.03.06.06.12.06.18-.11-.04-.18-.12-.26-.2,0,.02.01.05.02.07-.07-.03-.14-.06-.16-.11.04.05.07.11.08.16-.11-.04-.19-.17-.28-.24,0,0,0,.03.02.04.03.04.06.1.1.15l-.07-.07s-.01,0-.02-.02c0,0,0,.02.02.04-.06-.06-.12-.11-.19-.16.03.06.06.1.05.16-.1-.04-.16-.13-.23-.2.02.04.03.09.03.14-.06-.02-.09-.07-.1-.11v.03s-.07-.02-.08-.06c.02.04.05.08.05.12l-.16-.03s-.03-.06-.05-.08h0s.03.08.05.12h0s.03.08.06.12c.08.08.17.18.26.28-.03-.04-.06-.09-.08-.13.14.12.33.39.45.45-.06-.06-.09-.13-.11-.2.16.09.25.26.42.33-.03-.04-.02-.11-.04-.14.12.05.23.15.36.19v-.1c.11.02.37.07.47.13.01-.03.02-.06.02-.09.08.03.16.03.23-.02.03.01.06.02.09,0,0-.01,0-.03,0-.06.17.07.25-.01.21-.16.17,0,.45-.05.44-.23.09.02.19.04.28.06.01-.07.02-.17.02-.25.1.04.18.07.25.02-.19-.09-.39-.15-.52-.3.08.08.15.19.13.28l-.06.03ZM11.4,18.9s.02.02.03.04c-.01,0-.03-.01-.04-.03h0ZM11.5,18.91s.06.09.09.13l-.08-.03s-.02-.07,0-.1Z"/><path class="cls-2" d="M14.8,19.56c.16.05.32.09.46.18.01-.03.05-.08.04-.11.24.09.4.16.49.37-.05-.15-.15-.3-.23-.44l.11.04s-.03-.01-.04-.03c.03.01.06.02.06.04h-.03s.06.01.08.04c.17.13.33.34.42.49-.05-.16-.15-.32-.23-.48,0-.03-.02-.07-.02-.11.04.02.08.03.13.04.11.08.18.19.26.28-.04-.1-.13-.24-.17-.39l.06.02s.02-.06,0-.08c.04.02.07.01.1.02v-.03c.11.04.24.34.31.4-.03-.06,0-.16,0-.22.12.03.06-.06.15,0-.01,0-.01-.05-.02-.07.07.03.14.06.16.11-.04-.05-.08-.11-.08-.16.11.04.19.16.28.24,0,0,0-.03-.02-.04-.03-.04-.06-.1-.1-.15l.07.07s.01,0,.02.02c0,0,0-.02-.02-.04.06.06.12.11.19.16-.03-.04-.06-.1-.05-.16.1.04.16.13.23.19-.02-.04-.03-.09-.03-.14.06.02.09.07.1.11v-.03s.07.02.08.06c-.02-.04-.05-.08-.05-.12l.16.03s.03.06.05.08h0s-.03-.08-.05-.12h0s-.05-.08-.07-.11c-.08-.08-.17-.18-.26-.28.03.04.06.09.08.13-.14-.12-.33-.37-.47-.44.06.06.09.13.11.2-.16-.08-.25-.26-.42-.33.03.04.02.11.04.14-.12-.05-.23-.15-.36-.18,0,.03,0,.07,0,.1-.12-.02-.38-.05-.48-.13-.01.03-.02.06-.02.09-.08-.03-.17-.02-.23.02-.03-.01-.06-.02-.09,0,0,.01-.24.24-.25.27-.17-.07-.34-.17-.3-.02-.17,0-.24-.27-.22-.09-.09,0-.36-.24-.44-.26-.01.07.04.18.04.25-.1-.04,0,.33-.06.4.19.09.45.24.59.39-.08-.08-.15-.19-.13-.28h.03ZM17.28,19.48s-.02-.02-.03-.04c.01,0,.03.01.04.03h0Z"/><path class="cls-15" d="M19.03,12.95l-1.08-.16s.87.16.71.31-1.14,0-1.14,0c0,0,.87.36.62.38s-.78-.1-.78-.1c0,0,.98.35.52.41s-.8.03-.8.03c0,0,1.43.07.74.39s-.87.33-.87.33c0,0,.85-.22.94-.06s-.68.24-.68.24c0,0,.67.08.63.14s-.56.26-.56.26c0,0,.63-.03.54.04l-.55.4.79-.41.41-.2s-.45.14-.47.05.32-.39.32-.39c0,0-.38.13-.37.07s.44-.41.44-.41c0,0-.62.13-.5.04s.64-.44.64-.44c0,0-.4-.06-.41-.06s.72-.22.72-.22c0,0-.37-.04-.35-.09s.66,0,.66,0c0,0-.31-.17-.34-.21s.58-.11.58-.11c0,0-.4-.03-.42-.06s.62-.07.62-.07l-.55-.1Z"/><path class="cls-2" d="M13.86,14.11l-.96.15s.79-.1.73.07-.93.29-.93.29c0,0,.89.06.69.15s-.68.12-.68.12c0,0,.97.02.62.19s-.64.23-.64.23c0,0,1.2-.31.8.12s-.55.49-.55.49c0,0,.59-.39.74-.29s-.44.36-.44.36c0,0,.58-.11.58-.05s-.33.35-.33.35c0,0,.5-.19.46-.1l-.26.46.45-.53.23-.27s-.3.23-.37.16.08-.39.08-.39c0,0-.25.2-.27.15s.16-.44.16-.44c0,0-.45.26-.39.16s.31-.51.31-.51c0,0-.36.05-.36.06s.48-.35.48-.35c0,0-.32.07-.33.02s.54-.18.54-.18c0,0-.34-.06-.38-.08s.42-.24.42-.24c0,0-.34.08-.37.06s.47-.22.47-.22l-.5.06Z"/><path class="cls-7" d="M21.31,11.41s-.01-.75.2-.8c.78-.16,1.35.79,1.37,1s.23,1.37.23,1.37c0,0,1.19.69,1.52,1.08s.86.97,1.07,1.18.42.81.47.93.32.42.34.57c0,.04-.12.28-.22.46s-.54.46-.67.52-.96.27-1.69.29-1.17.31-1.5.52-1.2.95-1.32.96-.37-.03-.37-.03l-.4-.32s-.19.06-.41.08-.95.09-.95.09l-.61.07-.18-7.09,1.86-1.28,1.05.19.21.19Z"/><path class="cls-5" d="M22.34,14.86s.2-.04.26-.12.26-.27.61-.28.51.28.53.33.13.31.13.31c0,0,.05.09,0,.12s-.17.11-.19.14-.2.2-.47.24-.55-.11-.61-.18-.11-.52-.26-.55Z"/><path class="cls-12" d="M23.02,14.8s.07-.12.29-.11.18.21.11.24-.42.05-.4-.13Z"/><path class="cls-14" d="M25.92,17.43s.14.06.27-.05.26-.2.29-.32.11-.27,0-.37-.29-.21-.35-.17-.24.13-.21.37,0,.53,0,.53Z"/><path class="cls-11" d="M20.46,14l.53-.07s.01-.19,0-.27.11,0,.11,0c0,0-.19-.17-.28-.31s0-.15,0-.15v-.34l-.24-.1-.23.17.11,1.07Z"/><path class="cls-6" d="M21.63,12.96s.2-.86,0-1.37-1.11-1.44-2.03-.98-.54,1.91-.48,2.25.26.75.37.86.42.2.59.27.26.18.35.19.13-.41.14-.53c0-.06-.42-.56-.21-.73s1.27.04,1.27.04Z"/><path class="cls-14" d="M20.59,14s.15-.32.07-.45-.18-.21-.22-.28-.03-.27.12-.31.41.06.41.06c0,0,.24-.09.35-.25s.2-.34.19-.46-.4-.93-.84-.99-.61.01-.61.25-.13.8-.11,1.13.2.71.27.85.37.45.37.45Z"/><path class="cls-10" d="M21.31,11.01s-.03-.39.41-.47.78.33.84.41.28.58.32.67,0,.44,0,.44c0,0-.29-1.11-.72-1.23s-.85.18-.85.18Z"/><path class="cls-10" d="M18.99,11.89s-.09-.65.38-1.12.98-.28.98-.28c.17.07.46.21.46.21,0,0-.48-.33-1.01.03s-.71.86-.7,1.03.05,1.27.05,1.27l-.16-1.14Z"/><circle class="cls-11" cx="24.22" cy="16.71" r=".06"/><circle class="cls-11" cx="24.1" cy="16.81" r=".06"/><circle class="cls-11" cx="24.02" cy="16.68" r=".06"/><circle class="cls-11" cx="24.68" cy="17.05" r=".06"/><circle class="cls-11" cx="24.56" cy="17.15" r=".06"/><circle class="cls-11" cx="24.48" cy="17.01" r=".06"/><circle class="cls-11" cx="24.47" cy="16.84" r=".06"/><circle class="cls-11" cx="24.28" cy="16.9" r=".06"/><circle class="cls-11" cx="25.19" cy="17.29" r=".06"/><circle class="cls-11" cx="25.25" cy="17.47" r=".06"/><circle class="cls-11" cx="25.06" cy="17.39" r=".06"/><circle class="cls-11" cx="24.99" cy="17.26" r=".06"/><circle class="cls-11" cx="24.88" cy="17.07" r=".06"/><path class="cls-2" d="M23.89,16.73s-.81.22-1.62.48c-.71.23-1.36.46-2.18,1.03-1.75,1.22-2.11,1.4-2.11,1.4,0,0,2.44-1.44,2.83-1.67.16-.1.46-.31,1.04-.51.83-.29,2.09-.65,2.09-.65l-.05-.07Z"/><path class="cls-2" d="M21.4,19.15s.82-.98,1.49-1.37,1.47-.76,1.47-.76v.11s-.96.42-1.17.59-.5.3-.64.46-1.16.97-1.16.97Z"/><path class="cls-2" d="M22.88,19.15s.49-.9,1-1.36.6-.55.62-.52-.06.15-.08.17-.58.43-.68.56-.86,1.14-.86,1.14Z"/><path class="cls-2" d="M23.83,18.61l.83-1.23s.13-.21.16-.18-.31.54-.31.54c0,0-.72,1-.67.87Z"/><path class="cls-2" d="M24.37,18.29s.56-.97.59-.92-.53.92-.53.92c0,0-.2.35-.06,0Z"/><path class="cls-2" d="M24.99,18.29c0-.06.1-.9.13-.81s-.06.7-.06.88c0,.03-.09.23-.06-.07Z"/><path class="cls-2" d="M25.31,18.16s-.04-.68,0-.57.06.66.06.66c0,0-.05-.03-.06-.09Z"/><path class="cls-2" d="M21.64,18.34s1.93-1.17,2.1-1.26.28-.15.29-.09-1.23.73-1.23.73c0,0-1.34.88-1.16.61Z"/><path class="cls-2" d="M25.92,15.45s.09-.1.22-.23c.15-.15.36-.33.58-.47.41-.25.92-.51.88-.44s-1.83,1.28-1.69,1.13Z"/><path class="cls-2" d="M26.1,15.84s.5-.33.83-.39.67.05.58.07-.62-.02-.84.11-.57.2-.57.2Z"/><path class="cls-2" d="M25.72,15.03s.69-1.22,1.04-1.65.86-.98.85-.83-1.07,1.29-1.07,1.29c0,0-.96,1.44-.82,1.19Z"/><path class="cls-2" d="M25.97,15.03s1.19-1.49,1.37-1.65.86-.68.78-.51-1.24,1.23-1.24,1.23c0,0-1.18,1.27-.91.93Z"/><path class="cls-15" d="M20,15.07l-.86.74s.73-.59.77-.39-.75.86-.75.86c0,0,.92-.49.77-.28s-.6.54-.6.54c0,0,.98-.58.73-.2s-.49.62-.49.62c0,0,1.01-1.05.86-.37s-.24.82-.24.82c0,0,.34-.75.56-.74s-.21.63-.21.63c0,0,.51-.47.55-.4s-.12.55-.12.55c0,0,.39-.5.39-.39l.03.61.12-.8.07-.41s-.15.41-.27.38-.16-.43-.16-.43c0,0-.12.35-.17.32s-.11-.53-.11-.53c0,0-.28.54-.29.4s0-.7,0-.7c0,0-.32.27-.32.28s.26-.65.26-.65c0,0-.28.26-.31.22s.42-.51.42-.51c0,0-.37.15-.43.15s.27-.49.27-.49c0,0-.29.29-.33.29s.34-.51.34-.51l-.45.37Z"/></svg>