<?xml version="1.0" encoding="UTF-8"?><svg id="Livello_1" xmlns="http://www.w3.org/2000/svg" viewBox="0 0 27.51 16.64"><defs><style>.cls-1{stroke:#30150d;}.cls-1,.cls-2{fill:none;stroke-linecap:round;stroke-linejoin:round;stroke-width:.07px;}.cls-3{fill:#846f66;}.cls-3,.cls-4,.cls-5,.cls-6,.cls-7,.cls-8,.cls-9,.cls-10,.cls-11{stroke-width:0px;}.cls-2{stroke:#23110c;}.cls-4{fill:#c6b7b4;}.cls-5{fill:#000;}.cls-6{fill:#ededed;}.cls-7{fill:#727272;}.cls-8{fill:#503d33;}.cls-9{fill:#73605a;}.cls-10{fill:#636363;}.cls-12{opacity:0;}.cls-11{fill:#2f2f2e;}</style></defs><path class="cls-3" d="M18.05,9.32c.37.16.93.71,1.35.75.42.04,1.34.4,1.48.59.15.18,0,.26.04.35.04.07.11.4-.22.48-.33.07-.6-.37-.75-.31-.15.05.42.57,0,.57s-.6-.44-.9-.48c-.29-.04-.71-.31-.93-.7s-.55-1.17-.55-1.17l.48-.05v-.02Z"/><path class="cls-9" d="M19.4,10.07l-.24-.05-.4-.22-.73.6.07.15s.2.33.33.44.33.22.38.22c.16,0-.29-.05.04-.51.33-.46.53-.6.53-.6l.02-.02Z"/><path class="cls-1" d="M27.33,1.67c-1.14.4-2.54,1.43-3.04,2.56"/><path class="cls-1" d="M25.79,3.29c-.31.15-1.52.84-1.45,1.23"/><path class="cls-1" d="M27.25,3.61c-.64.05-1.3.31-1.89.57-.26.11-.84.37-.95.59"/><path class="cls-1" d="M27.42,4.37c-.88-.07-2.27.05-2.98.59"/><path class="cls-1" d="M27.47,5.4c-.33-.33-1.24-.31-1.68-.35-.22,0-1.04-.05-1.14.05"/><path class="cls-1" d="M27,5.6c-.73-.27-1.59-.42-2.36-.44"/><path class="cls-3" d="M14.18,11.72c-.57.82-.82,1.54-.15,1.67s3.19.18,3.59.15c.4-.05,1.21.07,1.24.48.04.4-.13.46-.79.51-.66.07-1.45.05-1.76.07-.31.04-2.69.27-2.98,0-.31-.26-1.1-.64-1.21-1.01s.4-1.94.4-1.94l1.67.05-.02.02Z"/><path class="cls-9" d="M13.4,12.89s.31.46.64.49.92.09.92.09c0,0-.51-.05-.95.09s-.59.37-.79.75c-.07.13.13.29.79.33.33,0,2.71-.2,2.71-.2,0,0,1.34-.13,1.59-.15s.33-.2.37-.33-.04-.07,0-.11.22.13.22.13c0,0,.05.26-.13.38s-.4.11-.48.11c-.99.15-1.35.09-1.65.09s-1.01.07-1.19.09-1.39.09-1.65.05-.27,0-.46-.11-.55-.37-.59-.4c-.07-.04-.64-.4-.62-.6,0-.2.02-.49.02-.49l1.24-.22Z"/><path class="cls-3" d="M9.94,13.16c-.44.6-.57,1.34-.05,1.61s.92.46,1.61.6,1.12.07,1.35.07c.59,0,1.32.13.73.71-.22.22-.46.15-.68.22-.37.11-.75.26-1.21.26s-1.24-.18-1.54-.33c-.48-.24-.99-.55-1.52-.95-.55-.42-.97-.4-.75-1.21.22-.82.9-1.24.9-1.24l1.17.27-.02-.02Z"/><path class="cls-9" d="M9.59,13.89s-.09.37,0,.53.04.2.24.31.42.22.42.22c0,0-.75-.22-1.1-.22s-.4.18-.33.35.97.88,1.03.93.4.31.4.31c0,0-.49-.24-.77-.42s-1.28-.81-1.41-.95-.29-.27-.24-.55.11-.51.22-.68c.09-.15,1.56.16,1.56.16h-.02Z"/><path class="cls-8" d="M13.49,15.73c.22-.09.46-.02.68.15.2.16-.11.05-.35.04-.22-.02-.33-.18-.33-.18Z"/><path class="cls-8" d="M12.99,15.91c.27-.11.68.04.79.24.11.2-.27-.18-.53-.07s-.26-.16-.26-.16Z"/><path class="cls-8" d="M20.66,10.67c.05-.16.64.04.75.24s-.27-.18-.49-.07c-.24.11-.31,0-.26-.16Z"/><path class="cls-8" d="M20.74,10.98c.27-.05.62.15.7.37s-.24-.22-.48-.16c-.26.05-.22-.2-.22-.2Z"/><path class="cls-8" d="M20.59,11.11c.15-.11.55.35.55.57s-.15-.27-.4-.31c-.26-.02-.29-.15-.15-.26Z"/><path class="cls-8" d="M19.97,11.35c.22-.15.55.35.55.57s-.15-.27-.4-.31c-.26-.02-.37-.11-.15-.26Z"/><path class="cls-8" d="M18.47,13.71c.18-.07.38,0,.55.15s-.09.04-.27,0-.26-.16-.26-.16l-.02.02Z"/><path class="cls-8" d="M18.47,13.88c.29-.02.59.24.62.46.04.22-.2-.24-.44-.22-.26.02-.18-.24-.18-.24Z"/><path class="cls-8" d="M16.82,14.17c.29,0,.57.29.57.51s-.16-.27-.42-.27-.16-.24-.16-.24h.02Z"/><path class="cls-8" d="M18.14,14c.31,0,.6.29.64.53.02.24-.18-.27-.46-.27s-.18-.26-.18-.26Z"/><path class="cls-8" d="M11.89,16.05c.38-.04.71.16.71.29s-.46-.09-.68,0c-.22.11-.22-.29-.04-.31v.02Z"/><path class="cls-3" d="M6.68,9.92s-.77.33-2.56,0c-1.79-.33-2.98-.79-3.15-1.19-.15-.4-.05-.82.53-1.48.57-.64,1.89-1.56,2.38-2.65.49-1.1.18-2.56-.22-3.22-.4-.66-1.12-1.17-.84-.77.27.4.51,1.74.68,2.29.16.55-.05,1.35-.4,1.98-.35.62-1.98,1.37-2.42,1.96-.44.57-.92,1.39-.53,2.09s1.12,1.3,1.9,1.46,1.15.48,2.65.71c1.48.26,2.65.38,2.65.38l-.66-1.57-.02.02Z"/><path class="cls-9" d="M6.02,10.05s-.48.05-.71.02-.27-.04-.27-.04c0,0,.26.29.09.51-.15.22-.71.13-.99.15s-1.52-.15-1.52-.15c0,0,.97.4,2.14.6s1.76.22,1.76.22l.16-1.45-.66.13Z"/><path class="cls-10" d="M20.56,1.95c-.04-.15-.08-.26-.06-.38-.04,0-.06-.05-.11-.04-.04-.24-.21-.05-.04-.24-.11.11-.13-.05-.17-.16,0,0-.15-.09-.17-.2,0,0-.04-.04-.13-.02,0,0-.06-.2-.08-.18-.04.02-.06.07-.11.09,0-.02,0-.09,0-.07-.04.02-.13-.13-.08-.18-.02.05-.06-.07-.04-.18,0,0-.02.02-.04.04-.04.05-.04.07-.08.11,0,0,.02-.07.04-.07,0,0-.08.07,0-.07-.04.05-.08.05-.13.07v-.18s-.04.04-.08.05q0-.05.02-.11s-.04.05-.06.05c0-.04.02-.11.04-.15-.02.04-.06.07-.08.11v-.11s-.02.04-.04.04,0-.11,0-.07c-.04.05-.06-.07-.06-.07l-.04.05s-.04-.09-.04-.05,0,.04-.04.07c-.04.04,0-.05-.04-.04s-.04.04-.08.04-.04.05-.04.05c-.02.04-.06.16-.08.2q-.04.11-.08.24s.08-.04.13-.07c-.04.18-.08.26-.08.38.02-.07,0-.04.06-.09,0,.16-.04.29-.02.46.02-.04,0-.05.04-.09.04.13.04.27,0,.4.02-.02,0-.11.04-.13.06.09.02.09.02.2.02,0,.17.31.19.29,0,.07,0,.18.08.2,0,.02.04.15.06.16.02,0,.06-.15.11-.15.04.16.15.18.25.07.08.15.3.33.46.22.04.07.06.16.11.24.06-.04.17-.07.23-.11,0,.09.04.16.13.2,0-.18.13-.68.19-.86-.04.09,0,0-.11.04h.04Z"/><path class="cls-7" d="M24.36,4.39c-.05-.26-.75-1.14-1.39-1.56-.66-.42-1.56-.93-2.09-1.06s-1.46-.29-1.65-.29c-.33,0-1.17-.35-1.78-.16-.6.18-2,.68-2.2.59-.2-.07-1.79-.68-2.34-.57s-2.16.13-3.79,1.78c-1.63,1.65-2.09,2.86-2.36,3.88-.27,1.03-.75,2.49-.26,3.72.49,1.23-.05,2.49,1.24,2.87.49.15.88.29,1.24.35-.04-.09,0-.2.05-.27v-.15c0-.24.31-.31.44-.11.05.07.09.13.11.2.37-.18.75-.35,1.14-.51.07-.04.15-.04.22,0,.05-.04.11-.07.15-.09,0-.05.05-.11.11-.13.18-.11.37-.22.55-.33,0-.02.04-.05.07-.07.13-.09.21,0,.33-.07.07-.05.55.42.62.37.05-.04.43-.1.49-.08.11-.04-.43-.74-.32-.78.05-.02.09-.05.15-.07.05-.04.11-.04.15-.02.04,0,.09-.04.13-.04.02,0,.05-.04.07-.04.07,0,.13-.04.2-.04.29-.07.59-.15.9-.18h.15c.27-.04.53-.09.81-.15h0c.35-.18,1.21-.55,1.59-.22.49-.22.97-.49,1.3-.86.22-.24.46-.51.7-.81-.07-.05-.11-.13-.09-.24.13-.44.64-.81,1.06-1.01.13-.11.26-.22.37-.29.04-.04.09-.05.13-.09,0-.05.04-.11.11-.15.22-.11.44-.2.66-.26.35-.15.73-.22,1.12-.16h0c.53-.09,1.03-.13,1.34-.2.55-.11.57-.29.75-.66.11-.22.37-.81.37-.81.13-.42-.49-.86-.57-1.15l.04-.07Z"/><path class="cls-10" d="M16.69,3.46s.59.31.86.75.45.64.71,1.01.58.68,1.24.96.97.47,1.31.48.14-.21.04-.26-1.67-.57-2.01-.92-1.22-1.54-1.22-1.54l-.93-.48Z"/><path class="cls-10" d="M19.14,9.68c.15,0,.33-.05.49-.04-.16.07-.44.16-.62.16.05.04.13.07.18.09-.11.02-.22.05-.33.05.05.04.11.09.16.13-.05-.04-.13-.04-.2-.05.04.05.04.13.07.18-.07-.04-.16-.04-.22,0,.02.02.05.05.07.07-.02,0-.13.02-.16,0,0,.04,0,.05.04.09-.29,0-.35.16-.6.24l.02.05c-.09.04-.04.09-.07.13-.05.04-.15.04-.24.04,0,.04-.05.09-.05.11-.05-.04-.11-.05-.16-.09v.04c-.07-.04-.13-.09-.13-.16,0,.02.02.05.04.07-.07-.07-.11-.18-.05-.18,0,0,.05-.05,0-.2l-.02.09c.05.04.09.09.13.16-.11-.09-.18-.24-.2-.38.11.05.27.09.37.05-.04-.04-.04-.07-.05-.11.07,0,.16,0,.24.04-.05-.15-.37-.4-.53-.42.09.15.48.05.64.07-.24-.18-.42-.35-.73-.37.13.07.55.18.7.18-.11-.09-.22-.2-.35-.29.09.15.37.22.53.22-.11-.11-.27-.15-.38-.26.13.13.31.22.49.24-.15-.11-.27-.22-.38-.37.13.11.27.2.42.29-.09-.09-.18-.22-.27-.33.09.07.16.15.26.22-.18-.15-.31-.33-.46-.49.29.26.6.49.46.37.05-.05.2-.24.35-.15.2.11.55.27.68.31-.15-.04-.33-.04-.48-.07.18.13.55.24.77.16h-.27c.18.13.42,0,.62-.05"/><path class="cls-10" d="M21.3,7.54c-.75.24-1.54,1.24-2.23,2.09-.38-.26-.6-.77-.49-1.21.09-.44.37-.82.75-1.06.51-.33.93-.18,1.48-.2.49-.02.95-.24,1.45-.15.22.04.4.13.6.2-.49.07-1.04.16-1.54.33h-.02Z"/><path class="cls-10" d="M8.01,13.29c0,.07,0,.15-.02.2,0-.15.05-.29.13-.4.04.11.13.26.22.29,0-.05.04-.07.04-.13.05.05.09.13.13.2.07-.15.04-.55-.07-.68-.04.16.29.38.38.51-.04-.29-.04-.55-.26-.79.04.15.26.51.35.62,0-.15,0-.31-.04-.44-.04.16.11.42.22.53,0-.16-.07-.29-.07-.46,0,.18.05.38.16.53-.02-.18-.04-.35,0-.53,0,.18.05.35.09.51,0-.15.02-.27.05-.42,0,.11,0,.22.02.33-.02-.22.02-.46.04-.68,0,.38-.07.81.2,1.14-.07-.16-.13-.35-.15-.55.2,0,.49.66.6.84-.07-.13-.2-.26-.27-.38.04.22.2.57.42.66-.05-.07-.13-.15-.2-.2.04.22.29.31.48.4-.2-.15-.46-.24-.62-.44.11.11.26.2.37.33-.16-.07-.42-.2-.55-.33.02.05.04.13.05.2-.09-.07-.18-.13-.27-.2v.2c0-.07-.05-.13-.09-.18-.02.05-.07.13-.07.18-.04-.07-.07-.15-.15-.15v.09s-.11-.07-.13-.11c0,.04-.04.05-.04.09-.2-.22-.35-.15-.59-.27l-.02.05c-.09-.04-.09.04-.15.04-.07,0-.13-.09-.18-.15-.04.02-.09.02-.13.04,0-.05-.04-.11-.04-.18,0,0-.02.02-.04.04-.02-.07,0-.15.02-.2,0,.02-.04.05-.04.07,0-.11.05-.2.09-.16,0,0,.07,0,.15-.13l-.04.05Z"/><path class="cls-10" d="M12.02,12.76c0,.05.04.13.02.2-.04-.13-.02-.31.04-.42.05.09.18.22.27.24v-.13c.07.04.13.09.16.16.04-.15-.09-.53-.22-.64,0,.16.37.31.49.42-.09-.27-.29-.46-.3-.71.05.13.25.45.36.54-.04-.15-.09-.29-.15-.42,0,.16.2.38.33.48-.04-.15-.15-.27-.18-.42.04.18.15.37.29.48-.05-.16-.11-.33-.13-.51.05.16.13.33.2.48-.02-.13-.04-.27-.04-.42.04.11.07.22.11.31-.07-.22-.07-.44-.13-.66.09.37.24.73.18.57.07,0,.29-.09.38.05s.31.53.4.62c-.11-.11-.26-.22-.37-.31.07.2.33.51.55.55-.07-.05-.16-.11-.24-.15.09.2.35.24.55.29-.24-.09-.49-.13-.7-.27.13.09.29.13.42.24-.18-.02-.46-.11-.62-.2.04.05.07.13.11.18-.11-.04-.22-.07-.31-.13.02.05.04.13.05.2-.04-.05-.09-.11-.13-.15,0,.07-.04.13-.04.2-.05-.05-.11-.11-.18-.11,0,.04,0,.05.02.09,0,0-.13-.05-.15-.07,0,.04-.02.05-.02.09-.24-.16-.38-.05-.64-.13v.07c-.09-.02-.07.05-.13.07-.07,0-.15-.05-.22-.11-.04.04-.09.05-.11.07-.02-.05-.07-.11-.07-.16,0,0,0,.02-.02.04-.04-.05-.05-.15-.04-.2v.09c-.04-.09,0-.22.05-.18,0,0,.07,0,.11-.16v-.07Z"/><path class="cls-2" d="M24.93,8.09c-.07-.51-.35-1.08-.66-1.48"/><path class="cls-2" d="M23.59,6.02c.35.77.53,2,.4,2.8"/><path class="cls-2" d="M23.43,5.69c.05.49,0,1.06,0,1.57,0,.44-.07.86-.16,1.3-.04.15-.07.31-.09.48,0,.07-.04.11,0,.05"/><path class="cls-2" d="M23.01,5.89c-.4.77-1.01,1.68-1.14,2.56"/><path class="cls-2" d="M23.13,6.32c-.22.68-.46,1.43-.68,2.07"/><path class="cls-2" d="M23.12,5.47c-.48.62-.99,1.23-1.41,1.9-.29.49-1.01,1.46-.97,2.05"/><path class="cls-2" d="M22.82,5.56c-.9.82-1.85,1.79-2.38,2.91"/><path class="cls-2" d="M22.86,5.33c-.77.33-3.2,2.86-3.51,3.59"/><path class="cls-2" d="M22.64,5.31c-.37.07-1.68.46-2.01,1.19"/><g class="cls-12"><path class="cls-5" d="M23.15,9.1v-.15.09c0,.07-.04.11,0,.05Z"/><path class="cls-5" d="M22.71,7.6c-.09.27-.18.55-.26.81l.26-.81Z"/></g><path class="cls-10" d="M8.18,10.8c0-.26,0-.51.11-.73-.07,0-.15-.05-.22-.05.04-.38.09-.64.44-.84-.22.13-.46.31-.68.48v-.18s-.02.04-.04.05c0-.04.04-.07.05-.11v.05s.04-.09.05-.13c.16-.31.46-.6.66-.79-.26.13-.49.33-.73.49-.05.02-.13.04-.16.07v-.2c.09-.18.24-.35.38-.48-.16.09-.38.26-.59.37v-.09h-.15c0-.05-.02-.11,0-.16h-.05c.04-.16.15-.29.22-.42-.09.07-.18.13-.29.15,0-.18.15-.31.22-.46-.04.02-.07.04-.11.05,0-.11.04-.22.11-.29-.07.07-.16.15-.26.18.02-.18.2-.33.29-.48-.02,0-.05.02-.07.04-.07.05-.15.13-.22.18l.09-.13s.04-.02.04-.04c-.02,0-.04.02-.05.02.05-.11.15-.22.18-.35-.07.05-.16.11-.26.13.04-.15.16-.27.24-.4-.07.04-.16.07-.24.09,0-.07.07-.15.13-.2h-.05s.04-.09.07-.13c-.05.04-.13.09-.18.11v-.24l.11-.11h0c-.05,0-.11.05-.16.09h0c-.05.04-.11.09-.16.13-.11.15-.24.31-.37.48.05-.05.13-.11.2-.15-.15.26-.51.62-.57.82.07-.09.2-.18.31-.22-.07.26-.33.44-.38.71.07-.05.18-.07.24-.11,0,.22-.16.38-.16.6.05-.02.11-.02.16-.05.04.18.05.57,0,.77h.16c0,.15.04.27.15.35.02.05,0,.09.04.15.04,0,.07-.02.11,0-.02.27.15.35.37.26.05.26.29.66.62.59.02.15.02.29.04.44.13,0,.29-.04.44-.05-.04.15,0,.29.09.37.07-.29.09-.62.29-.88-.11.15-.26.29-.42.29l-.04-.04ZM6.93,7.1s-.04.04-.05.07c0-.02.04-.04.05-.07h0ZM6.99,7.27c-.07.05-.15.11-.2.18,0-.05.02-.09.04-.15.05-.04.11-.05.16-.04Z"/><path class="cls-10" d="M14.2,8.64c-.27.29-.44.57-.86.75.18-.84,1.81-1.39,1.94-2.29-.24.7-.6,1.35-1.26,1.9.04-.15.18-.27.24-.42,0,.33-.18.82-.66.95,0-.22.02-.44.04-.64-.05.27-.38.62-.81.68,0-.18.11-.35.13-.51-.16.24-.79.73-1.19.66.07-.13.2-.27.35-.33-.09.4-.82.77-1.37.84.18-.13.4-.24.59-.38-.05.27-.92.7-1.3.71.24-.15.49-.29.62-.49-.55.15-.92.46-1.1.84.16-.2.29-.42.27-.66-.13.27-.16.55-.29.82-.04-.16-.07-.44-.27-.59,0,.15,0,.31.02.46-.04-.22-.22-.59-.57-.64-.04.15,0,.27.07.42-.09-.29-.27-.62-.6-.82-.04.16,0,.33.09.49-.27-.46-.59-.92-.75-1.41.04.22.13.42.07.64-.31-.35-.48-.84-.64-1.23,0,.2.05.4.07.6-.11-.4-.22-.82-.31-1.23,0,.26-.04.53-.04.79,0-.4-.13-.88.18-1.24-.22.11-.42.24-.62.35-.05-.55.33-1.1.75-1.54-.07.27-.55.51-.92.59.2-.49.73-1.01,1.28-1.34-.24.13-.53.2-.82.26.4-.42.93-.82,1.57-1.06-.35.13-.79.18-1.19.16.44-.44,1.08-.48,1.67-.73-.44.05-.92.11-1.35.11.38-.26.81-.53,1.34-.64h-.53c.29-.11.66-.13.92-.27-.16,0-.35-.04-.49-.04.38-.11.75-.26,1.14-.35h-.18c.31-.11.66-.24.93-.4-.13,0-.27-.04-.4-.04.77-.22,1.78-.7,2.58-.75-.18.2-.49.31-.77.44.37-.04.73-.18,1.08-.29-.35.26-.79.37-1.04.68.27-.02.53-.11.77-.18-.29.26-1.01.35-1.19.68.31-.13.68-.22,1.01-.31-.18.24-.55.38-.75.6.13-.05.31-.07.44-.15-.24.27-.68.4-1.01.62.07-.02.22-.04.31-.05-.22.62-1.19.95-1.19,1.68.15-.13.27-.29.31-.46-.05.33-.22.66-.22,1.01,0-.15.02-.27.13-.38.02.37.04.88-.11,1.21,0-.02,0-.16,0-.13-.04.33.05.64.05.97-.05-.15-.09-.29-.18-.42-.05.27.15.55.27.81,0-.11.02-.22,0-.31-.04.16.04.37.13.51,0-.05.02-.11.02-.18-.04.24.05.48.18.7.05-.15.13-.27.24-.38,0,.09.07.16.09.26.16-.13.26-.29.42-.42,0,.07.09.18.11.24.04-.09.13-.18.16-.27,0,.07.04.11.05.18.24-.11.49-.31.71-.42v.07c.27,0,.42-.22.66-.29.04.15.09.29.2.4.22-.15.42-.37.6-.53.02.05.07.09.09.13.15-.09.27-.2.4-.31.16.15.31.38.38.59.38-.53.71-.49,1.43-.79l-2.12,1.57v-.04Z"/><path class="cls-10" d="M7.76,13.07c-.13.15-.35.24-.44.4.33-.15.59-.48.62-.82-.09.09-.16.22-.27.29.15-.13.27-.35.29-.55-.09.11-.2.22-.33.27.04-.05.05-.11.09-.16-.02.04-.07.05-.11.09,0-.04.05-.07.02-.09-.04.02-.11.05-.15.07,0,0,0-.07.02-.05,0-.04,0-.16.04-.24-.07.07-.18.15-.29.18.11-.13.15-.31.15-.48-.11.04-.2.07-.29.13.26-.26.4-.59.59-.9-.24.13-.44.35-.62.55.07-.04.11-.11.16-.2-.07.05-.24.22-.24.35.02-.13-.02-.33-.05-.48-.11.07-.16.22-.2.33.05-.29.15-.71.05-1.01-.11.18-.2.38-.26.6.07-.18.15-.46.15-.66-.11.16-.22.4-.31.59.07.24.04.53.11.77.07-.09.09-.22.07-.33-.05.16,0,.4.11.53.04-.07.05-.15.05-.22-.09.13-.02.35.04.49.09-.09.18-.22.22-.33-.09.13-.16.37-.09.51.04-.04.07-.07.09-.11-.02.18-.04.37-.04.55.07-.07.16-.13.22-.22-.09.15-.18.31-.22.46.07-.05.18-.07.26-.11-.07.09-.16.16-.26.24.11-.04.24-.09.35-.11-.09.05-.2.13-.29.16.15-.07.29-.13.44-.2l.31-.33.02.02Z"/><path class="cls-10" d="M6.95,10.91c-.18.09-.4.09-.55.24.37-.02.71-.26.86-.57-.13.05-.24.15-.37.18.18-.07.38-.24.46-.42-.13.07-.26.13-.4.15.05-.04.09-.09.15-.13-.04.02-.09.04-.13.05,0-.04.07-.05.05-.09-.04,0-.13,0-.16.02,0,0,0-.05.04-.05,0-.04.05-.15.11-.22-.11.05-.22.07-.33.07.15-.09.26-.24.29-.4-.11,0-.22,0-.31.02.33-.16.57-.42.86-.64-.26.05-.53.18-.77.31.07-.02.15-.07.22-.15-.07.02-.29.13-.35.26.07-.13.09-.31.11-.46-.13.04-.22.15-.29.26.15-.26.38-.62.4-.93-.16.15-.33.29-.46.48.13-.15.29-.38.37-.57-.16.11-.33.31-.49.46,0,.26-.15.51-.16.77.09-.07.16-.16.18-.27-.11.15-.13.38-.07.55.05-.05.09-.11.13-.18-.13.09-.13.33-.13.48.11-.05.24-.15.31-.24-.13.09-.27.29-.26.46.04-.02.09-.04.13-.07-.09.16-.16.33-.22.49.09-.04.2-.07.27-.13-.13.09-.27.24-.37.37.09-.02.2,0,.27,0-.09.05-.2.11-.31.15h.37c-.11.04-.24.05-.33.05.16-.04.33-.02.49-.04l.4-.2-.02-.04Z"/><path class="cls-10" d="M15.23,11.51c.11.18.11.4.26.55-.04-.37-.29-.7-.6-.84.07.11.15.22.2.35-.07-.18-.26-.37-.44-.44.07.13.15.26.16.4-.04-.05-.09-.09-.13-.13.02.04.04.09.05.13-.04,0-.05-.07-.09-.05,0,.04.02.13.02.16,0,0-.05,0-.05-.04-.04,0-.15-.05-.22-.09.05.09.09.22.09.33-.09-.13-.26-.24-.42-.27,0,.11,0,.22.04.31-.18-.31-.46-.55-.7-.82.05.26.2.53.35.75-.02-.07-.07-.13-.15-.22.04.07.13.29.27.33-.13-.05-.31-.07-.46-.09.05.13.16.22.27.29-.27-.13-.64-.35-.95-.35.15.16.31.31.49.42-.15-.13-.4-.27-.59-.33.13.16.33.33.48.46.26,0,.51.11.77.13-.07-.09-.18-.15-.29-.16.15.11.38.11.55.04-.05-.05-.11-.09-.18-.11.09.13.33.13.48.11-.05-.11-.15-.24-.24-.29.11.13.31.26.46.24-.02-.04-.05-.09-.07-.13.16.07.35.15.51.18-.05-.09-.07-.18-.15-.27.11.13.26.26.38.35-.04-.09-.02-.2-.02-.27.05.09.11.2.16.31v-.37c.04.11.07.24.07.33-.04-.16-.04-.33-.07-.49l-.22-.38h-.04Z"/><path class="cls-10" d="M15.54,11.48c.05.05.09.11.13.18-.11-.09-.18-.27-.18-.42.11.05.27.13.38.07-.04-.04-.04-.07-.05-.13.07,0,.16.04.24.05-.04-.16-.35-.46-.53-.48.09.15.49.09.68.13-.24-.2-.42-.4-.75-.42.13.09.55.22.71.26-.11-.11-.22-.22-.35-.33.09.16.38.26.55.27-.11-.13-.27-.18-.38-.31.13.15.31.26.51.29-.15-.13-.27-.26-.37-.4.13.13.27.24.42.35-.09-.11-.18-.24-.26-.37.09.07.16.16.26.24-.18-.16-.29-.37-.46-.55.29.29.51.7.95.75-.18-.07-.35-.18-.49-.33.16-.13.86.16,1.06.24-.16-.05-.33-.07-.49-.11.18.15.57.29.79.22-.09-.02-.2-.02-.29,0,.18.15.46.04.66,0-.27.04-.51.15-.79.11.16,0,.35-.02.51,0-.18.07-.48.15-.68.13.05.04.13.07.18.11-.13,0-.24.04-.37.04.05.05.09.11.16.15-.05-.04-.13-.05-.2-.07.04.05.04.15.07.2-.07-.04-.16-.05-.22,0,.02.02.05.05.07.07h-.18s0,.07.02.09c-.31-.04-.38.15-.66.2,0,0,0,.05.02.07-.09.04-.04.09-.09.13-.07.04-.16.02-.26,0,0,.04-.05.09-.07.13-.05-.04-.11-.05-.16-.11v.05c-.07-.04-.13-.11-.13-.18,0,.02.02.07.04.09-.07-.07-.11-.2-.04-.2,0,0,.05-.05.02-.22h.02Z"/><path class="cls-10" d="M12.52,12.83c-.02-.07-.04-.15-.04-.22.05.13.04.31,0,.46-.07-.11-.2-.22-.31-.24v.13c-.07-.04-.15-.09-.18-.16-.04.16.13.57.27.66,0-.18-.4-.29-.55-.4.13.29.2.55.49.71-.07-.13-.4-.44-.53-.53.05.15.11.29.18.44,0-.18-.24-.38-.38-.48.05.16.16.27.22.44-.05-.18-.16-.37-.33-.48.07.16.15.35.16.53-.05-.18-.15-.33-.24-.49.04.15.05.29.07.44-.04-.11-.09-.22-.13-.33.09.22.11.46.18.7-.13-.38-.16-.84-.55-1.08.13.15.24.33.31.51-.2.05-.7-.51-.86-.68.11.11.27.2.4.31-.09-.2-.38-.51-.62-.55.07.05.18.11.27.13-.11-.22-.38-.22-.6-.27.26.09.53.09.75.26-.15-.07-.31-.13-.46-.22.2,0,.48.07.66.16-.04-.05-.07-.13-.13-.18.11.04.24.07.35.13-.02-.07-.04-.15-.07-.2.04.05.09.11.15.15,0-.07.04-.15.02-.22.05.07.13.11.2.11,0-.04-.02-.07-.04-.09.02,0,.13.05.16.07,0-.04,0-.07.02-.11.26.16.4.04.68.09v-.07c.09,0,.07-.07.13-.07.07,0,.15.05.24.09.02-.04.09-.05.11-.07.02.05.07.11.09.16,0,0,0-.02.02-.04.04.07.07.15.04.22v-.09c.04.11,0,.22-.05.2,0,0-.07.02-.11.18h0Z"/><path class="cls-10" d="M11.55,13.75v-.16c.04.11,0,.26-.09.35-.05-.07-.16-.18-.26-.18,0,.04-.02.07-.02.11-.05-.04-.11-.07-.16-.13-.05.13.04.44.16.53,0-.15-.35-.24-.48-.33.07.24.11.44.37.57-.05-.11-.33-.37-.44-.44.02.11.05.24.09.35.02-.15-.16-.31-.29-.38.02.13.11.22.15.35-.02-.15-.11-.29-.26-.38.04.13.07.27.07.42-.04-.15-.09-.27-.15-.4v.35c-.02-.09-.05-.18-.07-.26.05.18.04.37.05.55-.05-.31-.02-.68-.35-.88.09.13.18.26.22.4-.2.04-.59-.42-.73-.55.09.09.24.16.35.26-.05-.16-.29-.42-.51-.44.07.05.15.09.24.11-.07-.16-.35-.18-.53-.22.24.07.49.09.7.22-.13-.07-.29-.11-.42-.18.18,0,.46.07.62.15-.04-.05-.05-.09-.09-.15.11.04.22.05.31.11,0-.05-.02-.11-.04-.16.02.05.07.09.13.13,0-.05.05-.11.05-.16.04.05.11.09.18.09v-.07s.13.04.15.05c0-.02.04-.05.04-.07.24.13.38.04.64.09,0,0,0-.04.02-.05.09,0,.09-.05.15-.05.07,0,.15.04.2.07.04-.04.09-.04.13-.05,0,.05.05.09.07.13l.04-.04c.04.05.04.13,0,.16,0,0,.02-.05.02-.07.02.07-.04.18-.07.16,0,0-.07,0-.13.15l-.05-.02Z"/><path class="cls-10" d="M12.08,11.94c-.2.02-.4.04-.6,0,0,.04-.02.11,0,.15-.31,0-.53,0-.71-.22.13.15.31.27.44.4h-.15s.04,0,.05.02c-.04,0-.05,0-.09-.02h.04s-.07,0-.11-.02c-.26-.09-.53-.24-.7-.37.13.16.31.29.48.44.02.04.05.07.07.11h-.16c-.16-.04-.29-.13-.42-.22.09.09.26.24.35.37h-.07s0,.07.04.09c-.05,0-.09.02-.13,0v.04c-.13,0-.26-.07-.37-.11.05.05.13.11.15.18-.15,0-.26-.05-.38-.11.02.02.04.05.05.07-.09,0-.18,0-.24-.05.07.04.13.09.16.15-.15,0-.29-.11-.42-.15,0,0,.02.04.04.04.05.04.11.09.18.13l-.11-.05s-.02,0-.04-.02c0,0,.02.02.04.04-.09-.04-.18-.07-.29-.09.05.05.11.09.13.16-.13,0-.24-.07-.35-.13.04.04.07.09.09.15-.07,0-.13-.04-.16-.07v.04s-.07,0-.11-.04c.04.04.09.07.11.11l-.2.04s-.05-.05-.09-.07h0s.07.07.11.11h0s.07.07.13.11c.13.05.27.13.42.2-.05-.04-.11-.07-.15-.11.22.07.55.29.71.31-.09-.04-.16-.11-.22-.18.22.04.4.18.62.18-.05-.04-.07-.11-.11-.15.16,0,.33.07.49.05l-.05-.11c.15-.04.46-.09.6-.07,0-.04,0-.07-.02-.11.11,0,.2-.04.26-.13.04,0,.07,0,.11-.04,0-.02-.02-.04-.02-.07.22,0,.27-.13.16-.27.2-.07.49-.26.4-.46.11-.02.24-.04.35-.05-.02-.09-.05-.2-.09-.29.13,0,.24,0,.29-.09-.26-.02-.51,0-.73-.11.13.05.26.15.27.26l-.05.05ZM9.24,13.09s.04.02.05.04c-.02,0-.04,0-.05-.02h0v-.02ZM9.37,13.05c.05.04.11.07.16.11h-.11s-.05-.07-.05-.11Z"/><path class="cls-10" d="M13.41,12.3c.2-.02.4-.04.6,0,0-.04.02-.11,0-.15.31,0,.53,0,.73.2-.13-.15-.31-.27-.46-.4h.15s-.04,0-.05-.02c.04,0,.07,0,.09.02h-.04s.07,0,.11.02c.26.07.53.24.7.37-.13-.16-.31-.29-.48-.44-.02-.04-.05-.07-.07-.11.05,0,.11,0,.16-.02.16.04.29.13.42.2-.09-.09-.26-.22-.37-.37h.07s0-.07-.04-.09c.05,0,.09-.02.13-.02v-.04c.13,0,.41.29.52.32-.05-.05-.07-.18-.09-.25.15-.02.04-.09.17-.06-.02,0-.04-.05-.05-.07.09,0,.18,0,.24.05-.07-.04-.15-.09-.16-.15.15,0,.29.09.42.15,0,0-.02-.04-.04-.04-.05-.04-.11-.09-.18-.13l.11.05s.02,0,.04.02c0,0-.02-.02-.04-.04.09.04.18.07.29.09-.05-.04-.11-.09-.13-.16.13,0,.24.07.35.11-.04-.04-.07-.09-.09-.15.07,0,.13.04.16.07v-.04s.07,0,.11.04c-.04-.04-.09-.07-.11-.11l.2-.04s.05.05.09.07h0s-.07-.07-.11-.11h0s-.09-.07-.13-.09c-.13-.05-.27-.13-.42-.2.05.04.11.07.15.11-.22-.07-.55-.27-.73-.29.09.04.16.11.22.18-.22-.02-.4-.18-.62-.18.05.04.07.11.11.15-.16,0-.33-.07-.49-.04.02.04.04.07.05.11-.15.04-.46.11-.6.07,0,.04,0,.07.02.11-.11,0-.2.05-.26.13-.04,0-.07,0-.11.04,0,.02-.16.38-.16.42-.22,0-.46-.04-.35.11-.2.07-.4-.2-.29,0-.11.04-.51-.11-.62-.09.02.09.13.19.16.27-.13,0,.15.38.11.49.26.02.63.07.85.18-.13-.05-.26-.15-.27-.26l.04-.02ZM16.21,11.09s-.04-.02-.05-.04c.02,0,.04,0,.05.02h0v.02Z"/><path class="cls-11" d="M21.19,3.29s-.13-.51-.59-.59-.84.1-.92.49c-.08.38.2.59.41.64.49.15.84.1.95,0s.15-.54.15-.54Z"/><path class="cls-5" d="M20.7,3.93s.43-.2.43-.46c0-.41-.18-.56-.18-.56,0,0,.36.36.38.54,0,.23,0,.38-.36.46s-.28,0-.28,0v.03Z"/><circle class="cls-6" cx="20.7" cy="3.16" r=".2"/><path class="cls-10" d="M24.89,5.69s.04-.15-.05-.15-.62.13-.7.27c-.09.15-.07.38,0,.46s.22.13.27.11.09,0,.15-.04c.09-.09.33-.66.33-.66Z"/><path class="cls-11" d="M24.05,5.97c.02-.2.42-.31.79-.37h.07s.04.22-.11.48c-.15.26-.2.24-.27.24-.38.02-.49-.13-.48-.35h0Z"/><path class="cls-4" d="M24.71,5.77s-.38.07-.44.16c-.05.09-.07.22,0,.24s.15,0,.11-.04,0-.15.04-.18.29-.18.29-.18h0Z"/><path class="cls-10" d="M15.49,1.57s-.18-.41.43-.49,1.17.07,1.62.34.86.91.91,1.08.09,1.42.09,1.42c0,0-.42.22-.71.05s-1.42-.39-1.84-.95-.49-1.45-.49-1.45Z"/><path class="cls-10" d="M17.26,3.77c-.04-.15-.07-.29-.07-.42h-.13c-.05-.22-.05-.38.09-.55-.11.11-.2.26-.29.38,0-.04,0-.07-.02-.11v.04-.07.04-.07c.04-.2.15-.42.24-.55-.13.13-.22.27-.33.4-.02.02-.05.05-.09.07,0-.04-.02-.07-.04-.11,0-.11.07-.24.13-.33-.07.07-.16.22-.27.31v-.05s-.07.02-.07.04c0-.04-.04-.05-.04-.09h-.04c0-.09.04-.18.05-.27-.04.05-.07.11-.13.13-.04-.11.02-.2.04-.29,0,0-.04.04-.05.04-.02-.05-.02-.13,0-.18-.02.05-.07.11-.11.15-.02-.11.05-.22.07-.33,0,0-.02.02-.04.04-.04.05-.05.09-.09.15l.04-.09.02-.02s-.02.02-.04.02c0-.07.04-.15.04-.22-.04.04-.07.09-.13.11,0-.09.04-.18.05-.27-.04.04-.07.07-.11.09,0-.05,0-.09.04-.13h-.04s0-.05.02-.09c-.02.04-.05.07-.09.09l-.05-.13s.04-.05.05-.07h0s-.05.05-.07.07h0s-.05.07-.07.11c-.04.11-.07.22-.13.33.02-.04.05-.09.07-.13-.04.16-.18.44-.16.57.04-.07.07-.13.13-.18,0,.16-.11.31-.09.48.04-.04.09-.07.11-.11.04.13-.02.24,0,.37.02-.02.05-.04.09-.05.05.09.13.31.13.42.02,0,.07-.02.09-.04.02.07.07.15.15.16.02.02.02.05.04.07.02,0,.04-.02.05-.02.04.15.15.16.26.07.07.13.27.31.46.22.04.07.05.16.09.24.07-.04.16-.07.24-.11,0,.09.04.16.13.18,0-.18-.05-.37,0-.53-.04.09-.09.2-.18.24l.07.02ZM15.92,1.92s0,.04-.02.05v-.05h.02ZM15.96,1.99s-.05.09-.07.13v-.09s.05-.04.09-.05l-.02.02Z"/><path class="cls-7" d="M17.86,3.51c0,.15.07.29.15.38,0-.09,0-.15-.05-.26.02.05.04.13.05.18-.38-.15-.64-.2-1.04-.33.11.07.22.11.35.15-.18-.09-.38-.18-.55-.27,0,0,.04.02.05.02-.11-.02-.18-.05-.27-.11h.16s-.05-.07-.07-.11c.05,0,.09.02.13,0-.05-.09-.15-.18-.22-.26h.05c-.07-.07-.13-.16-.18-.24.04,0,.04.02.07.02-.04-.07-.09-.2-.13-.27h.11c-.09-.16-.05-.33-.15-.51h.09c-.04-.11-.07-.22-.13-.31h.11s-.05-.07-.07-.11c.16.05.33.15.49.2v-.05c.11.07.37.18.48.31-.05-.04-.09-.05-.15-.09.11.11.33.24.42.35.11.13.11.29.26.42-.05-.04-.09-.09-.15-.13.05.29.37.55.44.86,0,0-.02-.04-.04-.04.04.13.05.26.09.37-.04,0-.09.02-.15.02l-.13-.22-.04.04Z"/></svg>