<?xml version="1.0" encoding="UTF-8"?>
<svg id="Complications" xmlns="http://www.w3.org/2000/svg" version="1.1" viewBox="0 0 32 32">
  <defs>
    <style>
      .cls-1 {
        opacity: .1;
      }

      .cls-1, .cls-2, .cls-3, .cls-4, .cls-5, .cls-6, .cls-7, .cls-8, .cls-9, .cls-10, .cls-11, .cls-12, .cls-13, .cls-14, .cls-15, .cls-16, .cls-17, .cls-18, .cls-19, .cls-20, .cls-21, .cls-22, .cls-23, .cls-24, .cls-25, .cls-26, .cls-27, .cls-28, .cls-29, .cls-30, .cls-31, .cls-32, .cls-33, .cls-34, .cls-35, .cls-36, .cls-37, .cls-38, .cls-39 {
        stroke-width: 0px;
      }

      .cls-1, .cls-10, .cls-26, .cls-36 {
        fill: #1d1d1b;
      }

      .cls-1, .cls-26, .cls-35, .cls-36, .cls-39 {
        isolation: isolate;
      }

      .cls-2 {
        fill: #ac9585;
      }

      .cls-3 {
        fill: #bababa;
      }

      .cls-4 {
        fill: #575756;
      }

      .cls-5 {
        fill: #ebebeb;
      }

      .cls-6 {
        fill: #76855b;
      }

      .cls-7 {
        fill: none;
      }

      .cls-8 {
        fill: #584f41;
      }

      .cls-9 {
        fill: #4a4f6a;
      }

      .cls-11 {
        fill: #3d3f54;
      }

      .cls-12 {
        fill: #3c3c3b;
      }

      .cls-13 {
        fill: #979797;
      }

      .cls-14 {
        fill: #f4f4f4;
      }

      .cls-15 {
        fill: #c1ae99;
      }

      .cls-16 {
        fill: #8a5b2e;
      }

      .cls-17 {
        fill: #614122;
      }

      .cls-18 {
        fill: #3f392f;
      }

      .cls-19 {
        fill: #91ac62;
      }

      .cls-20 {
        fill: #414046;
      }

      .cls-21 {
        fill: #7b5831;
      }

      .cls-22 {
        fill: #5b5957;
      }

      .cls-23 {
        fill: #9b9a99;
      }

      .cls-24 {
        fill: #777;
      }

      .cls-25 {
        fill: #90c62f;
      }

      .cls-26 {
        opacity: .2;
      }

      .cls-27 {
        fill: #a7c07d;
      }

      .cls-28 {
        fill: #c37f40;
      }

      .cls-29 {
        fill: #383837;
      }

      .cls-30 {
        fill: #51483a;
      }

      .cls-31 {
        fill: #333332;
      }

      .cls-32 {
        fill: #292b38;
      }

      .cls-33 {
        fill: #7c715e;
      }

      .cls-34 {
        fill: #5a2e0c;
      }

      .cls-35 {
        fill: #131311;
      }

      .cls-35, .cls-36, .cls-39 {
        opacity: .2;
      }

      .cls-37 {
        fill: #c7ac99;
      }

      .cls-38 {
        fill: #fff;
      }

      .cls-39 {
        fill: #191917;
      }
    </style>
  </defs>
  <rect class="cls-7" y="0" width="32" height="32"/>
  <path class="cls-38" d="M30.7,22.4c0-.5-.2-2,0-2.4.2-.2.5-.7.6-1,.1-.4.1-.9-.4-1.2l-.7-.4c0-.2-.2-.5-.5-.7,0,0,0,0-.1,0-.7-.4-1.6-.3-1.7-.3-.6,0-1.1.5-1.3,1l-.3.7-.4.4h0c0,0,0,.1,0,.1h-.3c0,0,0,0,0,0l-1.6.5c-.4,0-2,.1-2.9.3,0,0,0,0-.1,0,0,0-.1-.1-.2-.2,0,0,0,0,0,0,0,0-.1-.2-.2-.3h0c0-.1,0-.2,0-.2,0,0,0-.1-.1-.2v-.2c-.1-.1-.2-.2-.2-.3,0-.1,0-.2-.1-.4,0-.2,0-.4-.2-.5-.1-.2-.4-.4-.6-.4s-.9,0-1.2,0-.5.2-.6.4c-.1.2-.2.5-.3.9,0,0-.5-.7-.8-1.2-.2-.4-.6-.6-1-.6-.3,0-.7,0-1.1-.2-.7-.1-1.4-.2-2.1-.3.1-.2.4-1.6.4-1.7.2-.3.6-.8.7-.9,0,0,0,0,0,0,.1,0,2.9.6,3.1.6.3,0,1.7-.9,2.2-1.1.4-.2,1-.9,1-1,.1-.2.4-.4.4-.4.1-.1.1-.3.1-.5,0,0,.1,0,.2,0,.1,0,2.1-.6,2.3-.6,4.1,0,6.2,0,6.3-.2.3-.3.4-1.2-.1-1.7h0c-.1-.1-13.2,0-13.6.2,0,0,.1-.6.1-.8,0,0,0-.2,0-.3.4-.1.7-.4.9-.7.1-.2.1-.4,0-.6-.1-.2-.3-.3-.5-.3s-.2,0-.4,0c0,0-.1,0-.2,0v-.7c-.2-.3-.6-.9-1.3-.9-.5,0-1,.1-1.3.2h-.2c-.1,0-.3.1-.5.2h-.2c-.4.1-.6.2-.9.4-.2.1-.2.2-.4.4-.2.3-.1,1.2-.1,1.4,0,.2,0,.5.1.6,0,0-.2,0-.2,0-.2,0-.4.2-.5.9-.4.2-.8.4-1,.6h-.1c-.2.2-.6.5-1,.9-.5.5-.8,1.4-.8,1.5,0,0,0,0,0,0-.1.9-.3,1.9-.3,2.2,0,0-.1.1-.2.2-.2.2-.3.4-.4.5-.5.7.1,1.9.1,1.9,0,0,0,0,0,.1-.1.4-.1.5-.1.5,0,.3,0,.5.2.6h0c-.3.7-.3,1.3-.1,1.8.3.8.9,1.2,1.2,1.3,0,0,0,0,0,0,.1.2.2.4.3.6-3.8,0-6,.2-6.7.7-1.1.8-.3,2,.2,3,.3.5.7,1.2.6,1.4,0,.3,0,.8.4,1.3,1.1,1.3,4.2,2.6,7,2.6s.4,0,.5,0c3.4-.2,17-.5,20.2-.5,1,0,2-.5,2.3-1.5.7-2.6-1-4.2-1.1-5.4h0Z"/>
  <path class="cls-27" d="M9.1,21.4s-7.1-.2-8.2.5,1.3,2.9,1,4,3.8,3.4,7.3,3.2c3.5-.2,17.3-.5,20.3-.5,3,0,2.9-5.9-3.3-6.6s-17.1-.7-17.1-.7h0Z"/>
  <path class="cls-6" d="M3.5,25.7s-.9.3-.6.5,1.7.4,2.1.3,2.4.2,3.2.2,2.3.7,3.1.5,2.3-.3,2.9-.4,2-.2,2-.2l-5.9-1.3-2.4-.2-4.5.6Z"/>
  <path class="cls-11" d="M6.4,16.5s0,.6,0,.7-.3.8-.1,1.3.6.8.9,1,1.1.6,2.1.4,1.6-.4,1.6-.4c0,0,.7-.2,1-.2s.4.3.5.3.4-.3.4-.2-.1.7-.3.8-.6.6-.6.7,0,.5,0,.7.1.5.1.5l.2.3h2v-.2c0,0,0-.1,0-.1,0,0,.6-.5.6-.7s.1-.5.1-.6.3-1,.3-1c0,0,.2-.6.3-.9s.3-.9.3-1,0-1-.7-1.1-2.4-.5-3.3-.4-1.5-.1-1.5-.1h-2.6c0,0-1.4,0-1.3.2h0Z"/>
  <path class="cls-11" d="M6.8,24.3s1.2.7,1.7,1,1.8.6,2,.6.7,0,.7,0l.2-1.6-.4-4.2-.2-.5s-.4.1-1.1.2-1.7,0-1.7,0l-.6-.2s.8,1.5.8,1.8,0,.5,0,.7.2.4.4.5.4.4.3.4-.3,0-.3,0c0,0-.3-.1-.8-.2s-.9.2-.9.2l-.2,1.3h0Z"/>
  <path class="cls-6" d="M20.1,25.9s-.1,0-.1,0l-1.9-8.2c0,0,0-.1,0-.1,0,0,.1,0,.1,0l1.9,8.2c0,0,0,.1,0,.1h0Z"/>
  <rect class="cls-34" x="18.1" y="17.2" width=".8" height="3.1" rx=".4" ry=".4" transform="translate(-3.8 4.7) rotate(-13.1)"/>
  <path class="cls-6" d="M18.8,24.6s0,0,0,0l-2.6-5.4s0,0,0-.1,0,0,.1,0l2.6,5.4s0,0,0,.1h0Z"/>
  <rect class="cls-34" x="16.3" y="18.8" width=".5" height="2.2" rx=".3" ry=".3" transform="translate(-6.9 9) rotate(-25.3)"/>
  <path class="cls-19" d="M19.9,26.1h0c.1-2.5-1-4.9-2.9-6.4.5.8,1.5,2.1,1.9,3,.5,1.2.3,2,.3,3.4h.6Z"/>
  <path class="cls-19" d="M29.5,26.1h0c.1-2.5-1-4.9-2.9-6.4.6.8,1.7,2.1,2,3.1.5,1.2.5,1.7.2,3.3h.6Z"/>
  <path class="cls-6" d="M19.7,26.1c-.1-2-1.4-3.9-3.2-4.8.5.7,1.5,1.4,2,2.1.6.9.6,1.8,1.1,2.7h.1Z"/>
  <path class="cls-25" d="M25.6,26.1c.6-2,1.5-4,2.5-5.8-.8.8-1.5,1.7-2.1,2.6-.5,1-.8,2.1-.5,3.2h0Z"/>
  <path class="cls-6" d="M26,26.1c.2-.4.2-.9.2-1.4-.2-1.5-.4-2.9-.5-4.4-.4,1.9-.5,3.8-.4,5.8h.8Z"/>
  <path class="cls-25" d="M28.7,19.9c-.4,1.2-.8,2.4-1.3,3.4-.1.2-.2.4-.3.6-.2.3-.4.6-.6.9-.1.1-.2.3-.3.4,0,.1-.2.2-.3.3,0,0,0,0,0,.1-.1.2-.3.3-.4.5h-.2c0,0,0-.1,0-.2.2-.5.5-.9.7-1.4,0,0,0,0,0,0,.1-.2.2-.3.3-.5,0,0,0-.1,0-.1,0,0,0,0,0-.1.8-1.3,1.5-2.5,2.3-3.8h0Z"/>
  <path class="cls-19" d="M27.9,26.1c0,0,.3-2.2.4-2.4.4-1,.7-2,1-3-.7,1-2.6,4.3-2.5,4.9,0,0,1.1.5,1.1.5Z"/>
  <path class="cls-6" d="M29.6,21.5c-.8,1.1-1.5,2.1-2.5,3-.3.3-.6.5-1,.8,0,0-.2.1-.3.2,0,0,0,0,0,0,0,0,0,0-.1,0-.1,0-.3.2-.4.2-.1,0-.2.1-.3.2h-.8c.5-.5,1.1-1,1.6-1.4,0,0,.1-.1.2-.1,0,0,0,0,0,0,0,0,.2-.1.3-.2.2-.2.5-.4.7-.6.1-.1.3-.2.4-.3.7-.6,1.5-1.2,2.2-1.8h0Z"/>
  <path class="cls-19" d="M19,26.1c0-.1-.1-.3-.2-.4-.5-1-1-2-1.8-2.6.4.5.9,1.1,1,1.7.1.5.3.9.3,1.4h.7,0Z"/>
  <path class="cls-19" d="M19.5,26.1c-.2-.9-.6-1.7-1.2-2.4.1.8.3,1.6.4,2.4h.7Z"/>
  <path class="cls-25" d="M20.6,26.1c0-.4,0-.9,0-1.3-.1.4-.2.9-.4,1.3h.4Z"/>
  <path class="cls-19" d="M22.7,26.1h3.2c0-.6,0-1.1,0-2-.1.1-.4.7-.6,1.2-.2.4.2-.7.3-1.2,0,0-.8,1.2-1.1,1.6,0,0,0-.6,0-.5-.3.4-.5.5-.6.6.1-.3.2-.5.2-.9,0,.4-.3.7-.5.8,0,0,0-.7,0-.6-.2.4-.5.9-.8,1h0Z"/>
  <path class="cls-19" d="M27.8,26.1h3.2c0-.6-.6-1.9-.7-2.6-.1.3.6,2-1.4,2.5,0-.4.4-.6.4-1-.6.7-.9.9-1.6,1.1Z"/>
  <path class="cls-6" d="M27.5,24.2c0,0-.3.8-.8,1-.6.4-.8.1-1.3.7,0-.4.2-.8.2-1.1-.1.1-.5,1-.6,1,0,0,0-.8,0-.7-.2.2-.4.8-.6,1h2.9"/>
  <path class="cls-19" d="M23,26.1c0,0-.2,0-.2-.4,0-.2.2-.8.2-.8-.1,0-.4,1-.5.9,0,0-.1-.5-.2-.4-.1.2-.1.5-.3.6,0-.1.1-1.1,0-1.2s-.2.9-.3,1c-.1,0-.2-.7-.3-.8,0,.4,0,.7-.1,1.1h1.6Z"/>
  <path class="cls-6" d="M21.9,26.1c-.4-.5-.8-1-1.1-1.5-.1.5-.2,1-.3,1.5h1.4Z"/>
  <path class="cls-6" d="M20.2,26.1c.6-2,.7-4.2.5-6.3-.5,2-1.1,4.1-1.1,6.3,0,0,.6,0,.6,0Z"/>
  <path class="cls-6" d="M27.9,26.1c1.2-1.9,2.6-3.3,2.3-5.4-.5,3.2-2.2,3.1-2.9,5.4h.6Z"/>
  <path class="cls-3" d="M20.1,25.9h.8l.3-1.4,1.2-.8c1.1-1.2.9-2.4,2.2-2.4.1,0-3-1-3-1-.2.4-.5,1.1-.5,1.6-.2,1.3-.6,2.1-.6,2.2-.1.5-.3,1.8-.3,1.8h0Z"/>
  <path class="cls-6" d="M19,26.1s-1.3.1-.7.5,2.1.2,2.9.1,5.6-.8,5.6-.8c0,0-2.3.5-2.6.2s-5.2,0-5.2,0Z"/>
  <path class="cls-3" d="M20.4,26.4h.5c.3,0,.4-.2.2-.4-.1-.1-.4-.2-.3-.4h-.7s0,0,0,.3c0,.2.1.5.3.5Z"/>
  <path class="cls-3" d="M21.7,22.8l1.1.3c.2,0,.4,0,.4-.1,0,0,0-.3-.2-.4l-1.2-.4s-.2.6-.2.6Z"/>
  <path class="cls-3" d="M28.5,25.2l-.4.2c-.4.1-.4-.1-.4-.3,0-.2.3-.4.4-.5h.6c0-.1.2.5-.2.7h0Z"/>
  <path class="cls-3" d="M25.9,23l.3-1.2,2.5,1.5c.1,0,.2.2.2.4l-.2,1.3h-.6c0,0,0-1,0-1,0-.1,0-.2-.2-.2l-2-.8h0Z"/>
  <path class="cls-28" d="M26,25.6s0,.7.5.7h.5c.5,0,.4-.2.2-.4-.1-.1-.4-.2-.5-.3,0,0,0,0,0,0h-.7Z"/>
  <path class="cls-28" d="M18.8,26.4h.5c.3,0,.4-.2.2-.4,0,0-.2-.1-.2-.2s-.1-.1,0-.2h-.7s0,0,0,.3c0,0,0,0,0,0,0,.2.1.5.3.5h0Z"/>
  <path class="cls-28" d="M26,25.6h0c0,0,.8.2.8.2v-.2s-.2-.5-.2-.5c0-.2,0-.5,0-.7l.6-1.5.7-1.8-.6-.5-.7-.5-.4,2.3v.6c-.1,0-.4,1.6-.4,1.6,0,0,.1.8.2,1Z"/>
  <path class="cls-28" d="M26.1,19.3l.7.6.2.2h0l1.2,1,.3-.4.5-.9s0,0,.1-.1c0,0,0,0,.1,0h.9c.2,0,.4,0,.5-.2.1-.1.2-.3.2-.6h0s0-.3,0-.3c0-.1,0-.2-.2-.2h0s-.8-.3-.8-.3c-.2,0-.3-.2-.3-.4,0-.1-.1-.3-.2-.4h0c-.5-.4-1.4-.3-1.4-.3-.4,0-.6.3-.8.6l-.3.9-.5.5h0s-.1.2-.1.2h0c0,0,0,0,0,0h-.1c0,.1,0,.1,0,.1Z"/>
  <path class="cls-28" d="M20.7,22.1c0,.2.2.3.4.3,0,0,0,0,0,0,.3,0,.7.1,1,.2,1.5.2,2.9.5,3.9.5.2,0,.4,0,.6,0,.1,0,.5,0,.6-.1,0,0,.4-.1.6-.5.3-.4.3-.8.3-1.1v-.3c0-.1,0-.2,0-.3-.5-.8-.8-1.4-1.7-1.6,0,0-.1,0-.1,0h-.1s0,0,0,0c0,0,0,0,0,0h0s0,0-.1,0h0s0,0,0,0h-.1c-.2,0-.4.1-.5.2h0s0,0,0,0h0c-.3.1-.6.2-.6.2,0,0,0,0-.1,0-.4,0-2.4.2-3.2.3,0,0-.1,0-.2.1,0,0,0,0-.1.1,0,0,0,0,0,0,0,0,0,0,0,.1-.2.6,0,1.3.2,1.8h0Z"/>
  <path class="cls-28" d="M18.4,25.8h.8s.2-.8.2-.8l.2-.5.7-.4.7-.5c.3-.2.6-.5.9-.8l.2-.3c0,0,.1-.1.2-.2,0-.1.2-.2.3-.3h0c0,0,.2-.1.3-.2.2-.2.4-.3.7-.3.1,0,.2,0,.4,0s0,0-.2-.1c-.5-.2-1.6-.7-2.4-1-.2,0-.3-.1-.4-.2,0,0,0,0-.1,0-.1,0-.2,0-.2,0,0,0,0,0-.1.1,0,0,0,0,0,0,0,0,0,0,0,0,0,0,0,.1-.1.2-.1.3-.2.6-.2.8h0c0,.1,0,.3,0,.4,0,.2,0,.4-.1.6h0c0,.2-.1.3-.2.5-.1.2-.2.4-.3.6h0c-.2.3-.4.4-.5.5,0,0-.1.1-.2.2-.1.5-.5,1.7-.5,1.7h0Z"/>
  <path class="cls-28" d="M19.1,18c0,.3.1.6.2.9,0,.2.1.3.2.4h0c0,.1.1.2.2.4,0,0,0,0,0,.1.1.2.3.4.5.6,0,0,0,0,0,0h0c0,0,0,0,0,.1v-.2c.1,0,.2,0,.2,0l.2-.2h0c0-.1,0-.1,0-.1,0,0,0,0,0,0h0s0,0-.1-.1c0,0,0,0,0,0h0c0,0,0-.1-.1-.1h0c0,0,0,0,0,0h0c0,0,0-.1,0-.1,0,0,0,0,0,0,0,0,0,0,0,0,0,0,0,0,0,0,0,0,0,0,0,0,0,0,0,0,0,0,0-.1-.1-.2-.2-.3h0s0,0,0,0c0,0,0,0,0,0,0,0,0,0,0,0,0-.2-.2-.3-.2-.5,0-.1-.1-.2-.1-.4,0-.2,0-.3-.1-.4,0,0-.1,0-.1,0,0,.2,0,.4,0,.7h0Z"/>
  <path class="cls-5" d="M29.4,17.2h0c0,.1,0,.2,0,.3,0,.1,0,.2.1.4,0,0,.2.1.2.2.1,0,.2.1.3.3,0,0,0,.2,0,.2,0,0,0,.2,0,.3,0,0,0,0,0,0,0,0,0,0,0,0,0,.2,0,.3-.2.4,0,0,0,0,0,0,0,0,0,0,0,0,0,0,0,0-.1.1h.3c.2,0,.4,0,.5-.2.1-.1.2-.3.2-.6h0s0-.3,0-.3c0-.1,0-.2-.2-.2l-.8-.3c-.2,0-.3-.2-.3-.3,0-.1-.1-.3-.2-.4h0s0,0,0,0Z"/>
  <path class="cls-29" d="M30.6,18.4s0,0,0,0c0,0,0,0,0,0,0,0,.1.1.2.2,0,0,0,0,0,0h0s0-.3,0-.3c0-.1,0-.2-.2-.2h0s0,0,0,0c0,0-.1.1-.1.2h0Z"/>
  <path class="cls-5" d="M18.5,26.2c0,0,.2.1.2.1h.5c.1,0,.2,0,.3-.1,0,0,0-.2,0-.2,0,0,0,0-.1-.1,0,0,0,0,0,0l.2-.7.2-.5,1.4-.9c.4-.3.8-.7,1-1h0c1.3.2,2.9.4,3.9.4l-.2,1.3v.3s0,.8.1,1h0s0,.7.5.7h.5c.2,0,.3,0,.3-.1,0,0,0-.2-.1-.3,0,0-.2-.1-.3-.2,0,0-.1,0-.2,0v-.5c-.2-.2-.2-.5,0-.7l.3-.7.3-.8s.4-.1.6-.5c.1-.2.2-.4.2-.6,0-.2,0-.3,0-.5v-.3l.3-.4.5-.9c0,0,.1-.1.2-.1h.1,0s0,0-.1,0c0,0-.1,0-.2-.1,0,0,0,0,0,0,0,0-.1,0-.2,0s-.1,0-.2,0h0c-.1,0-.2,0-.3,0-.2,0-.4,0-.6,0-.2,0-.3,0-.5-.1-.2,0-.5-.2-.6-.3h0l-.3.3h0s0,.1.1.1c.1.1.2.2.4.3,0,0,0,0,0,0,.1,0,.2.1.3.2,0,0,0,0,0,0h0v.2h0c0,.1,0,.2.1.3,0,0,0,0,0,0,0,0,0,.1,0,.1,0,0,0,.1,0,.2h0c0,.3,0,.6-.1.8h0c-.2,0-.3.2-.4.5,0,.2-.2.5-.4.5h0s0,0-.1,0h0s0,0,0,0h0c-.3-.2-.7-.3-1-.3,0,0-.2,0-.3,0h0c0,.2-.3.3-.5.3-.2,0-.3-.1-.5-.2,0,0,0,0-.1,0-.2,0-.3-.1-.4-.1s-.1,0-.2,0c0,0,0,0-.1,0,0,0-.1,0-.2,0h0s-.1,0-.1,0h0s0,0,0,0c0,0-.1,0-.2,0h0c0,0-.1,0-.1.1,0,0,0,0,0,0,0,0,0,0,0,0,0,0,0,0,0,0,0,0-.1,0-.2,0h0c0,0-.1,0-.2,0s-.2,0-.2,0-.1,0-.2,0c0,0,0,0,0,.1h0c0,0,0,.1,0,.2,0,0,0,0,0,0,0,.1-.1.2-.2.2h0c0,0-.1,0-.2-.2,0,0,0-.1-.2-.2,0,0,0,0-.1,0-.1,0-.3.1-.3.2,0,.2,0,.4,0,.5,0,0-.2.1-.3.1s-.1,0-.2,0c0,0,0,0,0,0t0,0h0c-.2.3-.3.4-.5.5,0,0-.1.2-.2.3-.1.4-.5,1.6-.5,1.7h0c0,.2,0,.3,0,.4h0Z"/>
  <path class="cls-29" d="M26.4,18.9s0,.1,0,.1c0,0,0,0,0,0,0,0,.1,0,.2,0,0,0,.1,0,.2,0,.1,0,.2,0,.3,0,0,0,0,0,.1,0,.2,0,.3,0,.5.1.3,0,.7.1,1,0h.3s0,0,.1,0h.2c0,0-.1-.2-.2-.2,0,0-.1,0-.2,0,0,0-.1,0-.2,0-.3,0-.6,0-.8,0-.3,0-.6-.2-.9-.3,0,0,0,0-.1,0-.1,0-.2-.1-.4-.1,0,0,0,0,0,0l-.2.2h0s0,0,0,0Z"/>
  <path class="cls-29" d="M20.5,20.2c0,.1.3.2.3.3,0,0,0,.2,0,.2,0,.1.2.1.3.2,0,0,0,0,.1.1.1.2.2.5.3.7,0,0,0,.1,0,.2.1.1.3.2.5.1,0,0,0-.1.1-.1h0c0,0,.1,0,.2,0,0,0,0,0,0,0,0,0,0,0,.1,0h0c0,0,.1,0,.2,0,0,0,0,0,.1,0,0,0,.1,0,.2,0,.1,0,.3,0,.4.1,0,0,0,0,.1,0,.1,0,.3.2.5.2.2,0,.5-.1.5-.3h0c0,0,.2,0,.3,0,0-.1-.2-.4-.1-.4,0-.1.1-.2.1-.3,0-.2-.1-.3,0-.5.1,0,.2-.1.2-.3s0-.3,0-.4c0,0,0,0,.1,0,.1.4.3.8.6,1.1,0,.1.2.2.3.2s.1-.2,0-.4c0-.2-.3-.4-.3-.6,0-.2,0-.3,0-.5,0,0-.1-.1-.2-.2,0,0,0-.2,0-.2h0c.3.1.6.4,1,.4,0,0,0,0,0,0,0-.1-.3-.4-.4-.5,0,0-.2,0-.2,0,0,0,0,0,0,0,0,0,0,0,0-.1h-.2s0,0,0,0c0,0,0,0,0,0,0,0,0,0-.1,0,0,0,0,0,0,0,0,0,0,0,0,0h0s0,0-.1,0c-.2,0-.4.1-.5.1,0,0,0,0,0,0,0,0,0,0,0,0,0,0,0,0,0,0-.3,0-.6.2-.6.2,0,0,0,0-.1,0-.4,0-2.4.2-3.2.3,0,0-.1,0-.2.1,0,0,0,0-.1.1,0,0,0,0,0,0h0Z"/>
  <path class="cls-12" d="M20,22.3h0s0,0,0-.1h0s0,0,0,0c0,0,0,0,.1,0,0,0,0,0,0,0,0,0,.1-.2.1-.3h0s0,0,0,0c0,0,0,0,0,0,0,0,0-.2-.2-.3,0,0,0,0,0,0h0v1c-.1,0-.1,0-.1,0Z"/>
  <path class="cls-29" d="M27.4,21.6c0,0,.1-.1.2-.2,0,0,0-.2,0-.3h0c0-.2,0-.3,0-.4,0,0-.1-.1-.2-.1-.1,0-.2,0-.4-.1-.1,0-.3-.1-.4-.1h0s0,0,0,0c0,0,0,.1.1.2,0,.1.1.3.3.4,0,0,0,0,0,0,0,0,0,.2,0,.2,0,0,0,.2.1.2,0,0,.2,0,.3,0h0Z"/>
  <path class="cls-5" d="M19.1,17.3s0,0,0,0,0,0,0,0c0,0,0,.2.1.4,0,0,0,0,0,0,0,.1,0,.3.1.4,0,.1.1.2.2.3,0,0,0,.1,0,.1,0,0,0,.2.1.2h0c0,0-.1,0-.1,0h0c0,.2,0,.3,0,.5h0c0-.1-.1-.3-.2-.4-.1-.3-.2-.7-.2-.9,0-.3,0-.5,0-.7h0Z"/>
  <path class="cls-29" d="M19.5,18.1h0c0,.2,0,.2,0,.3,0,.1,0,.2,0,.3,0,0,0,.1.1.2,0,.1.1.2.2.3,0,0,0,.1.1.2,0,0,0,0,.1.1,0,0,0,.2,0,.3,0,.1.2.2.2.3,0,0,0,0,0,.1h0c.1,0,.2,0,.3-.1,0,0,0,0,0,0-.5-.4-1-.9-1.2-1.5,0-.2-.2-.3-.2-.5h0Z"/>
  <path class="cls-10" d="M29.3,18c.2.2.5,0,.4-.3h-.3c0,.1-.1.3-.1.3Z"/>
  <path class="cls-4" d="M29.7,17.8h0c0,.1,0,.1,0,.1,0,0,0,0,0,0,0,0,0,0,0,0h0s0,0,0,0c0,0,0,0,0,0h0s0,0,0,0c0,0,0,0,0,0,0,0,0,0,0,0,0,0,0,0,0,0h0s0,0,0,0c0,0,0,0,0,0h0s0,0,0,0,0,0,0,0h0s0,0,0,0h0s0,0,0,0c0,0,0,0,0,0,0,0,0,0,0,0h0c0-.1,0,0,0,0Z"/>
  <path class="cls-4" d="M29.7,17.8h-.1s0,0,0,0c0,0,0,0,0,0,0,0,0,0,0,0,0,0,0,0,0,0,0,0,0,0,0,0,0,0,0,0,0,0s0,0,0,0c0,0,0,0,0,0h0s0,0,0,0c0,0,0,0,0,0,0,0,0,0,0,0,0,0,0,0,0,0,0,0,0,0,0,0,0,0,0,0,0,0s0,0,0,0c0,0,0,0,0,0,0,0,0,0,0,0h0Z"/>
  <path class="cls-14" d="M29.6,17.9h0c0,0,0,0,0,0,0,0,0,0,0,0,0,0,0,0,0,0Z"/>
  <path class="cls-35" d="M27.3,23s0,0,0,0c0-.2.1-.3.1-.5.3-.2.5-.5.8-.7,0,.2-.1.4-.2.6-.2.4-.6.5-.6.5h0s0,0,0,0Z"/>
  <path class="cls-35" d="M19.5,24.9c0-.2.2-.5.4-.7.1-.1.2-.2.3-.3.2-.2.3-.4.5-.5.3-.3.7-.4.9-.6.1-.1.1-.3.3-.5,0,0,.2-.5.2-.5.2,0,.5,0,.7,0,.7.2,1.4.1,2.1.2.2,0,.5-.6.5-.6.4,1,1.2.8,1.2.9,0,0-.2.6-.2.6,0,.2-.1.4-.2.6,0,.1-.1.3-.2.4l.2-1c-1.1,0-2.6-.2-3.9-.5h0c-.3.4-.6.8-1,1.1l-1.4.9-.2.5h0c0,0,0,0,0-.1h0Z"/>
  <path class="cls-26" d="M27.1,18.5h0c0,.1,0,.2,0,.4h0c.1.1.2.2.3.3,0,0,0,0,.1,0,0,0,.1,0,.2.1,0,0,0,0,0,0,.2.2.4.4.5.6,0,0,0,.2.1.3,0,0,0,.1,0,.2h0l.5-.9c0,0,.1-.1.2-.1h.1,0,.8c.2,0,.4,0,.5-.2h0c-.2,0-.5,0-.7,0,0,0-.1,0-.2,0-.3,0-.6-.3-.7-.6,0,0,0-.2,0-.2,0-.1-.1-.2-.2-.3-.1-.2-.2-.4-.3-.6h0c-.1-.2-.3-.4-.5-.6,0,0-.1,0-.2,0,0,0,0,0-.1,0,0,0-.1.1-.1.2-.2.3-.3.6-.4,1,0,0,0,.1,0,.2h0Z"/>
  <path class="cls-16" d="M28.8,19.8h0c.3-.5.3-.7,0-1.1l-.2-.3c-.1-.2-.2-.4-.2-.6l-.2-.8c-.4,0-.8.1-1,.6l-.3.8c0,.2,0,.4,0,.5,0,.4.2.5.6.9l.2.2c.3.2.7.1.9-.2h0Z"/>
  <path class="cls-36" d="M27,18.4l.2-.7v.4c0,.4.1.4.1.6,0,.4.3.6.4.4.2.5.7,1.2,1,.7h0c-.2.4-.6.5-.9.3l-.2-.2c-.4-.4-.5-.5-.6-.9,0-.2,0-.3,0-.5h0Z"/>
  <path class="cls-1" d="M29.1,18.2s0,0,0,.1,0,.1,0,.1c0,0,.1,0,.1,0,0,0,.1,0,.1,0,.1,0,.2-.2.3-.3,0,0,0,0,0,0,0,0,0,0,0,0,0-.1,0-.2,0-.3,0,0,0,0,0,0,0,0,0,0,0,0-.1,0-.2,0-.3.1,0,0-.2.1-.2.3,0,0,0,0,0,.1h0Z"/>
  <path class="cls-39" d="M19.8,22.8c.1-.1.2-.3.3-.5,0,0,0-.2,0-.3,0-.1,0-.3.1-.4,0-.2,0-.3.1-.5h0c0-.1,0-.3.2-.4,0,0,.1-.1.1-.2h0s0,0,0,0c0,0,0,0-.1-.1h0c-.2-.2-.4-.3-.6-.5.1.2.3.4.5.6-.1.3-.2.6-.2.8h0v1h-.1c0,.2-.1.3-.2.5h0Z"/>
  <path class="cls-27" d="M22.1,26.1s.8,0,.9-.1c0-.1.3-.4.3-.4,0,0-.1.3,0,.4s.3,0,.3,0c0,0,0,0,0,.1s.6-.4.6-.4c0,0,0,.4.1.3s.5-.2.5-.2c0,0-.2.2,0,.2s.4-.2.4-.2c0,0,0,.5.2.4s.2-.2.2-.2c0,0,.3.4.4.4s1.6-.5,1.6-.5c0,0-.2,0,0,.2s1.1-.4,1.1-.4c0,0-.2.3,0,.3s.2-.4.2-.4c0,0,.4.4.6.4.4,0,.6-.5.6-.5,0,0-.1.6,0,.7s.6-.6.6-.6c0,0,0,.6.1.6s-3.5.6-3.5.6l-4.6-.3-.8-.4h0Z"/>
  <path class="cls-27" d="M21.2,26v-.4c0,0,0,.3.1.3s.1-.3.1-.3c0,0,.1.5.3.3s.2-.3.2-.3c0,0,0,.3,0,.3s.3-.2.3-.2c0,0,0,0,0,0s.3-.2.3-.2c0,0,0,.3,0,.3s.1,0,.1,0h-.3c0,.1-.8.2-.8.2h-.4v-.2h0Z"/>
  <path class="cls-8" d="M7.2,10.9s.2-.8.6-1.2.9-.7,1.1-.8,1.1-.6,1.1-.6l1.5.8h.7c0,0,.5,0,.5,0,0,0,.1,0,.3.2s.4.3.3.2,0,.1,0,.1h.3c0,.1.3,1.4.3,1.4l-.4.8s-.5.9-.6,1.1-.6.8-.7.8-.2.7-.2.8-.1.8-.3,1-1,.8-1,.8c0,0-1.3-.1-1.5-.2s-2.5-.4-2.5-.4c0,0-.2-.2-.3-.3s-.4-1-.2-1.3.6-.6.7-.8.4-2.4.4-2.4h0Z"/>
  <path class="cls-37" d="M14.2,7.6s0,0,0,0,.3,0,.3,0,0,0,0-.1,0-.1,0-.2-.1-.2-.1-.3,0-.3,0-.3h0c0,0-1.3-.3-1.3-.3l-.4.3h-.8c0,.1-.1,0-.1,0,0,0-.3,0-.3.1s-.2,0-.2,0c0,0,0,.5,0,.6s0,.3,0,.5c-.1.2-.3.4-.3.4l1,.6.3.2s.4,0,.5-.1.4-.2.6-.2.8,0,.9-.1.2,0,.1-.2-.1-.3-.2-.3,0-.1,0-.1v-.5c.1,0,.1,0,.1,0Z"/>
  <path class="cls-15" d="M11.2,5c.4,0,.9-.3,1.1-.3s.6-.2.9-.3c.4,0,.8,0,.9.4,0,.2.2.8.2,1-.1,0-.3,0-.4,0,0,0-.3,0-.3,0,0,0,0,0,0,0h0c0,0,0,0,0-.1,0,0,0,0,0,0-.2,0-.4,0-.6,0s-.2,0-.3,0-.1,0-.2,0c0,0,.2,0,.3,0,.1,0,.3,0,.4,0s.6,0,.6-.1c0,0,0,0,0,0h0c-.1-.2-.4-.5-.5-.6-.1-.2-.3,0-.3,0h0c-.2,0-.5,0-.5,0h0c-.3,0-.6.1-.9.1s-.3.1-.4.1.1-.1.1-.1h0Z"/>
  <path class="cls-2" d="M14,7.6s-.1,0-.1,0,0,0,0-.1,0,0,0,0,0,0,0,0-.1,0-.1,0,0,.1,0,.2,0,0,0,0,0,0,.1,0,0,0,0,0c0,0,0,0,0,0h0Z"/>
  <path class="cls-11" d="M11,6.9s.6-.2.7-.2.6-.2.6-.2c0,0,.9-.3,1.2-.3s1.2,0,1.2,0l-.2-.3v-.3c-.1,0-.3-.7-.3-.7,0,0-.1-.5-.6-.5s-1.1.2-1.2.2-.4,0-.7.2-.6.1-.8.2-.1,0-.2.2,0,.9,0,1.1.1.5.1.6.1.1.1.1h0Z"/>
  <path class="cls-32" d="M14.5,5.9c.3,0,.6.2,1,.2-.4.6-1.3.7-1.8.3,0,0-.1-.1-.3-.2-.4,0-1.1.3-1.5.3-.5,0-.2,0-.1,0l2.6-.6c.1,0,0,0,.1,0h0Z"/>
  <path class="cls-9" d="M11.2,5c.4,0,.9-.3,1.1-.3s.6-.2.9-.3c.4,0,.8,0,.9.4,0,.2.3.9.3,1-.1,0-.3,0-.4,0,0,0-.3,0-.3,0,0,0,0,0,0,0h0c0,0,0,0,0-.1,0,0,0,0,0,0-.2,0-.4,0-.6,0s-.2,0-.3,0-.1,0-.2,0c0,0,.2,0,.4,0,.1,0,.3,0,.4,0s.6-.1.6-.1c0,0,0,0,0,0h0c-.1-.2-.4-.5-.5-.6-.1-.2-.3,0-.3,0h0c-.2,0-.5,0-.5,0h0c-.3,0-.6.1-.9.1s-.3.1-.4.1.1-.1.1-.1h0Z"/>
  <path class="cls-2" d="M12,7s0,0,0,0-.2,0-.3,0,0,.2,0,.2,0,.4,0,.4,0,0,0,0,0-.1,0-.2,0-.2,0-.3,0-.2.1-.2.2,0,.1,0,0,0,0,0,0,0,0,0h0Z"/>
  <path class="cls-2" d="M11.9,7.1s0,0-.1,0-.1,0-.1.1,0,0,0,.1.2,0,.2,0,0,0,0,0,0,0,0,0,0,0,0,0,0,0,0-.1,0,0,0,0-.1,0-.1,0-.1,0-.1,0,0,0,0,0,.1,0,.1,0,0-.1,0-.1h0Z"/>
  <path class="cls-2" d="M12,7.7s0,.1,0,.2-.2,0-.2,0c0,0-.2-.2-.2-.2,0,0,0,.2,0,.3s0,0,.1,0,.1,0,.2,0,0-.2,0-.2h0Z"/>
  <path class="cls-2" d="M12.1,7.2s0-.2,0-.2-.1-.2-.1-.2h.1c0,.1,0,.1,0,.2s0,.2,0,.2h0Z"/>
  <path class="cls-2" d="M11.5,7.6s-.1-.3-.1-.6c0,0,0,0,0,0,0,0,0,.4,0,.5s0,.2,0,.2c0,0,0,0,0,0Z"/>
  <path class="cls-2" d="M14.3,6.6v.3s-.1,0-.2,0-.1.2-.4.2-.7-.2-.9-.1-.4.4-.5.4-.1,0-.2-.2-.4-.4-.4-.4-.5.1-.5.1c0,0,.9-.3,1.1-.4s.6-.2.8-.3.3,0,.4,0,.4.2.5.3.5,0,.5,0Z"/>
  <path class="cls-31" d="M13.4,6.8s.2,0,.3,0,.2,0,.2,0c0,0-.1,0-.2,0s-.3,0-.3,0h0Z"/>
  <path class="cls-31" d="M13.8,6.7c0,0,.2,0,.1,0,0,0-.2,0-.3-.1-.2,0-.4-.1-.4,0s0,.2,0,.2c0,0,0-.1.1,0,.1,0,.3,0,.4.2h0Z"/>
  <path class="cls-31" d="M13.4,8.1s.2-.2.3-.3.2-.2.2-.2c0,0,.2,0,.2,0s.1.1.1.1c0,0,.1,0,.1.2s0,.2,0,.2-.2,0-.2,0,0,0-.1,0-.3,0-.4,0-.2,0-.1,0h0Z"/>
  <path class="cls-2" d="M12,8s0,.2.2.3.5.4.7.4.4,0,.4,0h.2s0,0-.2.1-.6.2-.6.2h-.1c0,0,.2,0-.2-.3s-.3-.7-.3-.7h0Z"/>
  <path class="cls-30" d="M10.4,7.7s.1-.1.2-.2.4,0,.4,0h0c0,0-.4.5-.4.5,0,0-.2-.3-.2-.3Z"/>
  <path class="cls-2" d="M10.6,7.9l.5-.5h.2s0,.3-.1.5c-.1.2-.2.4-.2.4h0c0,.1-.6-.2-.5-.5h0Z"/>
  <path class="cls-31" d="M11,6.9s0,.3,0,.4,0,.2,0,.2c0,0,0,.1.1,0s.3,0,.3-.1,0-.5,0-.5h0c0,0-.4,0-.4,0Z"/>
  <path class="cls-33" d="M10.8,7.5s-.3,0-.3.2.3.5.5.6,1.4.9,1.4.9c0,0-.4.1-.5.2s-.4.4-.4.4c0,0-.4-.8-.6-.9s-1-.5-1-.5c0,0,.2-.7.3-.7.2,0,.5,0,.5,0h0Z"/>
  <path class="cls-8" d="M13.1,12.5l.6-1.1.6-.5h.7c0-.1,0-.2,0-.2,0,0,.2.1.4.1h.3s.1,0,.1.1-.1.2,0,.2.2-.2.3-.2,0,0,.1.1.1,0,.1,0,.4-.3.4-.3.5-.2.8-.2.7-.2.7-.2c0,0,.5.6.5.7s.2.3.2.3c0,0-.1.6-.7.9s-1.6.8-1.6.8c0,0-.2.3-.4.3s-.6,0-.8,0-1.1-.3-1.1-.3c0,0-.5,0-.7-.1s-.7-.2-.7-.2h0Z"/>
  <path class="cls-33" d="M15.3,11.8l.3-.6s0-.1,0-.1-.4,0-.4,0c0,0-.2-.2,0-.2s.3,0,.4,0,.3,0,.3,0,0,.2,0,.3-.3.6-.3.6-.2.2-.2,0h0Z"/>
  <path class="cls-33" d="M15.6,11.9s0-.4.2-.5.3-.3.3-.3c0,0,0-.1,0-.1s.1.1,0,.3-.2.5-.3.6,0,.4-.1.4-.2-.3-.2-.3h0Z"/>
  <path class="cls-33" d="M16.3,11.7s.2-.8.5-.9.5,0,.7-.1.7-.3.8-.3.3.3.3.4,0,0-.2,0-.4.1-.6.2-.7.2-.9.4-.8.8-.6.4Z"/>
  <path class="cls-8" d="M19,11.2s0,.1.2,0,.3-.4.3-.4l-.3-.4s-.5-.7-.5-.7-.5.3-.5.3c0,0,.2.3.3.4s.5.8.5.8h0Z"/>
  <path class="cls-33" d="M18.3,10.1s.2-.2.3-.2.3.3.3.4.4.4.4.4-.3-.3-.4-.3-.3,0-.3,0-.2-.2-.2-.2h0Z"/>
  <path class="cls-18" d="M13.1,12.5l.3-.9.5-.5h.5s.3,0,.3,0c0,0-.9.6-.9.8s0,.5,0,.6.6.3.6.3l-1.3-.3h0Z"/>
  <path class="cls-2" d="M12.6,10.9s.2,0,.4-.4.3-.7.3-.7c0,0,.2-.4.4-.6s.5-.1.5-.1.3,0,.3,0,.2,0,.2,0l1.1.4h.2c0,0-.1.3-.2.4s-.3.2-.4.2-.3,0-.3,0c0,0,0,.1,0,.3s-.1.2-.1.2h0c0,.1-.2.3-.2.3s-.2.1-.3.1-.3,0-.4,0-.3,0-.3.1-.3.4-.3.4h0s-.7-.6-.7-.8h0Z"/>
  <path class="cls-37" d="M13.9,9.2c.2,0,.4,0,.7,0,0,0-.4.2,0,.4.2.1.2.2.6.2s1.2-.1.5.1c-.2,0-.4,0-.6,0h0s0,0,0,0,0,0,0,0,0,0-.1,0,0,0-.1,0h0c-.2,0-.4,0-.6-.2-.2-.2-.4,0-.6,0-.1-.1.3-.5.4-.5h0Z"/>
  <path class="cls-24" d="M15.5,8.9s-.1-.1,0-.2,0,0,.1,0,0,.1,0,.1h-.2c0,.1,0,0,0,0Z"/>
  <path class="cls-24" d="M18.6,9h9.9s.2,0,0,.3c0,0-9.6,0-9.6,0,0,0-.2-.3-.2-.3Z"/>
  <rect class="cls-22" x="18.5" y="8.9" width="9.9" height=".2"/>
  <path class="cls-24" d="M18.6,8.6h9.9s.2,0,0,.3c0,0-9.6,0-9.6,0,0,0-.2-.3-.2-.3Z"/>
  <rect class="cls-23" x="19" y="8.7" width="9.4" height=".1" rx="0" ry="0"/>
  <path class="cls-21" d="M14.5,9.3s1.5-.7,1.6-.6.5,0,.7,0,2,0,2,0c0,0,0,.1.1.3s0,.7,0,.7h-3.2c0,0-.8.2-1,.2s-.5-.1-.5-.2.2-.4.2-.4h0Z"/>
  <path class="cls-17" d="M15.2,9.7s.3-.6,1.2-.7c.9-.1,3-.1,3-.1h3s0,.3,0,.4,0,.2-.2.3-6,.1-6,.1h-.9c0,0,0,0,0,0Z"/>
  <rect class="cls-22" x="28.1" y="8.5" width=".2" height=".2"/>
  <path class="cls-2" d="M18.7,9.9s.1,0,.2-.1,0-.2.1-.3.3-.2.6-.2.6,0,.7,0,.3-.2.3-.3c0,0,.2,0,.2,0s0,0,0,0c0,0,.2-.2.3-.2s0,0,0,0c0,0,.1-.1.2-.1s0,.1,0,.1l-.2.3s.1,0,.2-.1.3-.2.4-.2,0,.1,0,.2-.5.4-.5.4c0,0-.2.1-.3.2s-.2,0-.3,0-.5.1-.6.1-.6.2-.7.3-.5.3-.5.3c0,0,0,0-.1,0s-.4-.5-.4-.6h0Z"/>
  <path class="cls-37" d="M20.1,9.6c-.1,0-.2,0-.3,0-.1,0-.3.1-.4.1,0,0-.1,0-.2,0s0-.1,0-.1c.2-.3.6-.2,1-.2s0,0,0,0h0Z"/>
  <path class="cls-37" d="M20.4,9.5s0,0,0,0,0,0,0,0c.1-.1.2-.1.3-.3,0,0,.2-.2.2-.2.1,0,0,.1,0,.1,0,0-.1.3-.2.3,0,0-.1,0-.2,0h0Z"/>
  <path class="cls-37" d="M20.8,9.4s0,0,0,0,0,0,0,0c0,0,0-.1.1-.2,0,0,.1-.2.2-.2,0,0,0,0,0,0,0,0,0,0,0,0,0,0-.1.1-.2.2,0,0,0,.1-.1.1Z"/>
  <path class="cls-37" d="M21.1,9.3s-.1.1-.1,0c0-.1.2-.4.4-.4s0,.1,0,.2c0,0-.1.1-.2.2h0Z"/>
  <path class="cls-37" d="M21.9,9.1c0,0-.1.1-.2.1,0,0-.4.2-.4.2s.2-.1.2-.1c0,0,0,0,.1,0,0,0,.2-.3.4-.2.1,0,0,.1,0,.1Z"/>
  <path class="cls-37" d="M14.9,10.3h0s0,0,0,0c0,0,0,0,0,0,0,0,0,.2,0,.2h0c0,0,0,0,0,0,0,0,0,0,0,0,0,0,0,0,0,0,0,0,.1,0,.1-.1,0,0,0-.1,0-.2h0Z"/>
  <path class="cls-37" d="M14.7,10.9s-.1,0-.1,0,0,0,0,0c0,0,0,0,0,0,0,0,0,0,.1-.1,0,0,0,0,0,0,0,0,0,0,0,0Z"/>
  <path class="cls-37" d="M11.9,6.8s0,0-.2-.1-.2,0-.3.2c0,0,0,.2,0,.2,0,0,0-.1.2-.2s.3,0,.3,0c0,0,0,0,0,0Z"/>
  <path class="cls-31" d="M11.8,6.7s.1,0,.2.1.1.5.1.6.3-.1.3-.1c0,0-.1-.3,0-.6s.2-.4.2-.4l-.9.3h.2Z"/>
  <path class="cls-18" d="M18.1,10.2h0c0,0,.2,0,.2.2s.4.6.4.6v.2c0,0,0-.1,0-.1,0,0-.4-.7-.7-.9h0Z"/>
  <path class="cls-33" d="M8.3,9.5s.2-.3.5-.4,1-.5,1-.5c0,0-.5.5-.6.6s-.3.4-.3.4c0,0-.4-.1-.6,0h0Z"/>
  <path class="cls-18" d="M10.6,10.1s-.2-.4-.1-.3.3.1.6.1.7,0,.7,0l-1.2.2h0Z"/>
  <path class="cls-21" d="M10.5,9.9v.4c.1.1,0,.2,0,.2l2.6-.6h0c0-.1-2.6,0-2.6,0h0Z"/>
  <path class="cls-17" d="M10.5,11.4l2.5-.8.3-.7h-.2c0,0-2.5.3-2.5.3v.4s0,.1,0,.4,0,.5,0,.5h0Z"/>
  <path class="cls-33" d="M9.2,9.5s.5-.6.7-.7.4-.2.6-.1.7.6.7.8,0,.1-.2.2-.5-.4-.6-.3.1.3,0,.3-.4-.4-.4-.4,0,.2,0,.3.5.9.5.9c0,0,0,.4-.1.6s-.1.5-.1.6-.3-.4-.3-.4c0,0,.5,1.1.2.9s-1-2.7-1-2.7h0Z"/>
  <path class="cls-33" d="M9.7,13.5c0-.1.1-.6.4-.8s.3-.2.4-.2.1,0,.2,0,0,.5,0,.5c0,0,0,.8,0,.6s.2-1,0-.8-.4.5-.5.6-.2,0-.2,0h0Z"/>
  <path class="cls-33" d="M10.8,12.2s.3-.2.6-.4.6-.5.6-.3,0,.2-.1.3-.6.4-.7.5-.8.3-.4,0h0Z"/>
  <path class="cls-33" d="M11.5,12.8s.2-.4.3-.6.4-.8.4-.4-.2.6-.3.7-.7.6-.6.6.2-.3.2-.3h0Z"/>
  <path class="cls-33" d="M12.1,12.8s.3-.9.3-.8-.1.5-.2.6-.2.2-.2.2h0Z"/>
  <path class="cls-33" d="M12.2,11.3l.2-.2.6.6s0-.1-.3-.1-.3.2-.4.2-.2-.4-.2-.4h0Z"/>
  <path class="cls-33" d="M7.3,12.4s.2.4.4.5.5.2.3.2-.5-.1-.6-.2-.2-.5-.2-.5h0Z"/>
  <path class="cls-18" d="M7.7,12s.8,1.1.9,1.2.7.8.8.9.9.8,1.2.8.4,0,.4,0c0,0-.4.2-.5.1s-1.2-.6-1.2-.7-.9-1-1.1-1.2-.5-.7-.5-.7c0,0-.2-.6,0-.4h0Z"/>
  <path class="cls-18" d="M7.9,14.2c.1,0,.2,0,.2,0,0,0-.2-.3,0-.2s.6.3.6.4,1.2.7,1.1.7-1.2-.5-1.2-.4.4.6.2.4-.3-.4-.7-.6-.8-.4-.8-.4"/>
  <path class="cls-9" d="M7.9,17.6s1.1-.9,1.6-1,4,.1,4.3.2,1.8.5,1.8.6,0,.8,0,1-.3,1.4-.3,1.4c0,0-.4.8-.3.4s.3-1.4.3-1.4c0,0-.2-.3-.2-.5s.2-.4,0-.5-1.8-.5-2.7-.4-2.4-.6-2.8-.3-.8,1-.8.8.2-.7.2-.7c0,0,0,0-.2.1s-.8.4-.8.4h0Z"/>
  <path class="cls-18" d="M6.4,15.8s-.2.5-.2.6,0,.2.2.3,1.2.3,1.5.3,1.2-.4,1.2-.4l.9-.2h.5s-1.2-.2-1.2-.2c0,0-1.9-.4-2.3-.4h-.7,0Z"/>
  <path class="cls-8" d="M6.8,15.8s1.6.1,1.8.2,1,.1.5.2-.7,0-.9,0-1.4-.4-1.4-.4h0Z"/>
  <path class="cls-33" d="M10.9,15.8s.3-.5.3-.7,0-.6,0-.6c0,0,.4-.9.5-.6s0,.6,0,.8-.1.9-.8,1.1h0Z"/>
  <path class="cls-8" d="M6.4,16.5s.4,0,.7,0,.8.2.9.1c.1,0,1.1-.2.8,0s-.8.3-1,.3-.8-.2-.8-.2-.5-.2-.5-.2h0Z"/>
  <path class="cls-32" d="M12.9,19.4s.4-.1.6-.2.9-.7.8-.5-.2.4-.4.5-.9.4-1,.2Z"/>
  <path class="cls-32" d="M13.3,19.6s.4,0,.6-.1.3-.3.4-.2-.5.5-.6.5-.4-.2-.4-.2Z"/>
  <path class="cls-32" d="M12.8,22.1s.4-.3.5-.4.4-.7.4-.5-.4.7-.5.8-.5.2-.5.2Z"/>
  <path class="cls-32" d="M7.7,19.7s.6.4,1.2.3,1.4-.2,1.4-.2c0,0,.7-.2.4,0s-1.3.5-1.5.4-1.4-.4-1.4-.4Z"/>
  <path class="cls-32" d="M10.8,19.9s.4,2.2.4,2.8,0,2,0,2.2-.2.7-.2.3,0-1.5-.1-1.7-.6-1.6-.6-1.7.2-.8,0-.8.4-1.2.4-1.2h0Z"/>
  <path class="cls-11" d="M7.6,22.8s.6,0,1,.2.6.5.7.7.1,0-.2-.2-.2-.1-.8-.3-1.1-.3-.7-.4h0Z"/>
  <path class="cls-32" d="M9.1,22.9s.6.2.6.5,0,.8,0,.6-.6-1.1-.6-1.1Z"/>
  <path class="cls-20" d="M11.9,22.7v-.5c0,0,1.2.3,1.5.2s.8-.1.8-.1c0,0-.2.5-.4,1s-.6.8-.4,1.4.8,1,1,1.1c.1,0,.4.1.7.2.3,0,.6,0,.6,0,0,0,.3.1.4.3s0,.4,0,.4h.2v.2s-1.9.1-2.2,0-.8-.3-.9-.3-.7,0-.7,0v.3h-1.6s0-.4,0-.4h.1c0-.1-.1-.3-.1-.4s.2-.8.2-.8c0,0,.3-.5.2-.5s.1-.3.1-.3l.4-1.6h0Z"/>
  <path class="cls-13" d="M11.6,24.9s.6.4.7.5.3.4.3.5,0,.2,0,.1-.2-.3-.2-.4-.4-.4-.4-.4-.3-.3-.3-.3Z"/>
  <path class="cls-13" d="M11.7,24.4s.5,0,.6,0,.9-.2,1-.2,0,.2-.2.2-.4,0-.4,0,0,.1,0,.2-1-.1-1-.1c0,0,.7,0,.8,0s-.7-.2-.7-.2h0Z"/>
  <path class="cls-20" d="M7.1,22.6s-1.4-.1-1.6-.3-.7-.4-1-.5c-.3-.1-1,0-1,0h-.3s0,1.5,0,1.5h.2s0,.5-.2.8-.2.7-.2.9,0,.9.4,1.2,1.3.1,1.3.1h.3s0-.2,0-.2h-.1s.2-.2.2-.5-.5-.3-.5-.3h-.2s-.2.1-.2,0,.2-.2.2-.2c0,0,0,0,0-.1h0s.3-.7.8-.9.7,0,.7,0l1.4.6h.2s.2-.8.2-1.1-.2-1-.2-1h0Z"/>
  <path class="cls-13" d="M4.1,25.5s.2-.1.4-.1.3.1.3.2-.3-.1-.3,0-.4,0-.4,0h0Z"/>
  <path class="cls-13" d="M3.6,22.1s.1-.3.2-.3.5,0,.5,0,.5.3.6.3.8.4,1,.4,1,.1,1,.1c0,0,.2.2.2.5s0,.7,0,.7c0,0,.3-.7-.2-.9s-1-.2-1-.2-.4.3-.4.3.4-.6.1-.4-.5.5-.5.5.4-.6,0-.6-1.1-.6-1.3-.5-.3.5-.3.5v-.4h0Z"/>
  <path class="cls-13" d="M4.8,23.5s.1-.8.1-.4c0,.4,0,.5,0,.5l.2.3s0,0,0,0-.2-.2-.2-.3h0Z"/>
  <polygon class="cls-13" points="3.3 22.2 3.3 21.8 3.5 21.8 3.4 22.3 3.3 22.2"/>
  <path class="cls-32" d="M12.3,22.4s.2.2.5.2,1.2-.2,1.2-.2h-1.7s0,0,0,0Z"/>
  <path class="cls-18" d="M10.2,12.1l.3-.7s.8-.3.9-.4,1.6-.5,1.6-.5l-.4.4s-.7.3-.8.4-1,.9-1,.9c0,0-.3.2-.4.1s-.2-.2-.2-.2h0Z"/>
  <path class="cls-18" d="M11.8,9.8l.6-.6s.1-.1.3,0,.6.6.6.6h0c0,0-1.3.1-1.3.1Z"/>
</svg>