<?xml version="1.0" encoding="UTF-8"?><svg id="Livello_1" xmlns="http://www.w3.org/2000/svg" viewBox="0 0 17.33 26.78"><defs><style>.cls-1{fill:#755038;}.cls-1,.cls-2,.cls-3,.cls-4,.cls-5,.cls-6,.cls-7,.cls-8,.cls-9{stroke-width:0px;}.cls-2{fill:#a87451;}.cls-3{fill:#ba9371;}.cls-4{fill:#af7c5a;}.cls-5{fill:#1b1014;opacity:.58;}.cls-6{fill:#966845;}.cls-7{fill:#201617;}.cls-8{fill:#1c1c1c;}.cls-9{fill:#fff;}</style></defs><g id="ic_hare"><path class="cls-1" d="M11.05,7.76s1.59-4.38,5.28-4.98c0,0,.6-.1.8,0,.2.1.3.6.1,1-.2.4-1,.9-1.29,1.39-.9,1.69-3.38,2.89-3.38,2.89,0,0,1.19.5,1.59.8.4.4.7,1.29.9,1.39s.7.9.7.9c0,0,.3.7-.2,1.19-.4.5-.6,1-2.09,1.1,0,0,.7,3.29-.5,5.48-1.19,2.29-1.29,4.18-1.19,5.87,0,0,1.1-.1,1.1.9,0,.5,0,.6-.1.6h-.6s-.1.5-1.39.5-.7,0-.7,0c0,0-.6.1-.7-.6h-.6s.2.6-.8.6-2.79,0-3.68-.3c-.9-.2-1.89-.6-1.29-1.29.2-.2-.3-.5-.3-.5,0,0-1.69-1.39-1.49-3.29s.1-7.67,5.67-9.16c0,0,.9,0,1.99-.6,0,0-.3-1.19.1-2.09.3-.9.2-1.49.2-1.49,0,0-2.99-3.19-2.69-7.67-.1-1,1.39.2,1.39.2,0,0,1.79,1.59,2.39,5.77,0,.7.8,1.39.8,1.39"/><path class="cls-6" d="M.9,21.6c0-.2-.4.2-.3,1.49,0,0-.2,0-.3-.2s-.1.2.2.8-.5-.2-.5-.2c0,0,.4,2.29,2.59,2.29,0,0-.1-.2.1-.4.2-.2.1-.2,0-.4s-1.39-1.1-1.49-3.09c-.1,0-.2-.2-.3-.3h0Z"/><path class="cls-5" d="M6.97,17.82s.7,2.49,1,3.19c.3.7,1.1,2.79,1.19,3.48s.2,1.69.2,1.69h-.6s0-.8-1.1-.8h-1.39s1.19-1.1,1.69-2.89c.1-.5-.5-2.09-.6-2.59-.2-.6-.4-1.59-.4-2.09h0Z"/><path class="cls-5" d="M11.65,19.61s.1.3-.2.9c-.4.7-.4,1.59-.4,1.59,0,0,0,1.69.5,2.99h-.3s-.5-1.19-.4-2.39c.1-1.19.2-1.59.3-1.69-.2-.2.3-.8.5-1.39h0Z"/><path class="cls-5" d="M13.34,13.34s-.6,0-.8-.2c-.2-.1-.8-.1-.8-.1,0,0-1.39.1-1.69-.2,0,0,.4.3,2.09.4,0,0,.6.2.7.7s.1,1.29,0,1.89.2,1.59.4,1.69.9-2.89.1-4.18h0Z"/><path class="cls-7" d="M14.93,10.95s.2,0,.4.1.3,0,.3,0c0,0,.2.4.1.7,0,0-.1-.3-.2-.4,0-.1-.5-.2-.6-.4h0Z"/><path class="cls-3" d="M12.94,10.35s.2-.8-.4-1.1-1,0-1,0c0,0-.2.5.3.9-.1-.1.3.2,1.1.2h0Z"/><path class="cls-8" d="M12.84,10.25s.2-.7-.3-.9-.8,0-.8,0c0,0-.2.5.3.8-.2-.2.1.1.8.1Z"/><circle class="cls-9" cx="11.85" cy="9.75" r=".1"/><path class="cls-2" d="M12.34,7.86s.1-3.09,3.29-4.58c1.39-.6,1.29-.2,1.29-.2,0,0,.3.5-.8,1.1-.3.2-.8.9-1,1.39-.2.5-2.79,2.29-2.79,2.29Z"/><path class="cls-4" d="M9.46,7.86h.3s-.3-.5-.3-1.99-1.39-4.48-1.89-4.98-.5-.4-.5-.4c0,0-.2,0-.2.2s-.3,3.68,2.59,7.17h0Z"/></g></svg>