<?xml version="1.0" encoding="UTF-8"?><svg id="Complications" xmlns="http://www.w3.org/2000/svg" viewBox="0 0 32 32"><defs><style>.cls-1{fill:#744f32;}.cls-1,.cls-2,.cls-3,.cls-4,.cls-5,.cls-6,.cls-7,.cls-8,.cls-9,.cls-10,.cls-11,.cls-12,.cls-13,.cls-14,.cls-15,.cls-16,.cls-17,.cls-18,.cls-19,.cls-20,.cls-21,.cls-22,.cls-23{stroke-width:0px;}.cls-2{fill:#2d100b;}.cls-3{fill:none;}.cls-4{fill:#7f5938;}.cls-5{fill:#4c3823;}.cls-6{fill:#1b120f;opacity:.22;}.cls-7{fill:#7a5041;}.cls-8{fill:#704f37;}.cls-9{fill:#b99d87;}.cls-10{fill:#84654c;}.cls-11{fill:#3f2d26;}.cls-12{fill:#827364;}.cls-13{fill:#aa876b;}.cls-14{fill:#846042;}.cls-15{fill:#a88569;}.cls-16{fill:#66452e;}.cls-17{fill:#68472c;}.cls-18{fill:#b29577;}.cls-19{fill:#8d7860;}.cls-20{fill:#b2957a;}.cls-21{fill:#fff;}.cls-22{fill:#7c6b5c;}.cls-23{fill:#957353;}</style></defs><rect class="cls-3" width="32" height="32"/><path class="cls-23" d="M18.64,2.08s-.13-.99.16-1.16.85-.68,1.29,1.48c.21,1.02-.15,2.96-.19,3.2s-.3,1.11-.21,1.61.17.46.47.52.87,0,1.24,1.04.65,1.6.67,1.66.28.86.28.86l-1.63,1.46s-.21.32-.25.54-.11.54-.15.61-.21.23-.17.45.08.64.15.85.3.79.3.79c0,0-.15.06-.11.23s-.81,4.22-.81,4.22l-.07,1.23s-.22,1.05-.25,1.52.11,2.56.17,3.13.18,2.31.18,2.31l.11,1.16s.52-.17.81,0,.83.76.79,1-.28.11-.26.36-2.45.17-2.45.17h-.71s-.18-.47-.18-.73-.05-.96,0-1.25-.08-1-.16-1.53-.79-.53-.79-.53l-1.21,2.17-.12.34.99.39s.5.08.9.14.73.97.23,1.02-6.05-.01-6.05-.01c0,0-.17-.32,0-.45s-.08-.47-.08-.47c0,0-.67.04-.8,0s-1.24-.68-1.24-.68l-.45-4.37,1.24-4.58,2.3-3.92,3.1-3.28.78-1,.04-.71s-.11-.57-.09-1.01.04-1.3.22-1.72.19-.78.26-.98.11-1.17.11-1.17l.13-.59,1.27-3.58.18-.75Z"/><path class="cls-20" d="M6.68,26.47l-.34-.36s-.04.56-.17.52-.26-.15-.26-.15c0,0,.3.6.19.7l-.11.11s.21.28.13.36-.21.26-.21.26l.3.21-.13.26s.25-.11.25.11-.04.36-.04.36c0,0,.23-.09.28.13s-.04.43-.04.43c0,0,.26-.06.28,0s-.15.6-.15.6c0,0,.43-.33.47-.18s0,.36,0,.36c0,0,.45.24.4.24s-.16.19-.16.19c0,0,.46-.13.4,0s-.07.28,0,.28.85.02,1.08.09.96-.38.96-.38l.14-.4-3.27-3.71Z"/><path class="cls-14" d="M8.38,28.39s.03.3-.18.13l-.21-.17s-.52-.7-.61-.79-.69-1.09-.69-1.09c0,0-.23.26-.15.38s-.21.06-.19.19.17.21.23.38-.13.49-.13.49c0,0,.32-.12.26.18s-.17.51-.17.51c0,0,.95.1.83.31s-.27.45-.27.45c0,0,.7-.13.64,0s-.55.36-.26.62.79,0,.77.18-.15.38-.15.38c0,0,.16.02.29.11s.88.23,1.11,0,.59-.7.59-.7l-1.71-1.58Z"/><path class="cls-13" d="M8.11,27.96s-.78-1.39-.47-4.01l-.27.1s.28-.23.3-.36-.14-.07-.14-.07c0,0,.01.04.16-.2s-.09-.28-.09-.28c0,0,.18-.13.26-.28s-.1-.36-.11-.36.16-.1.27-.27.17-.48.17-.48l-.23.17s.26-.41.41-.61.87-1.39,1.26-2.07.89-1.49,1.18-1.85c.16-.2.25-.42.31-.58.04-.13.06-.22.06-.22,0,0-.04.23.07.24s.09-.58.09-.58c0,0,.09.48.26.33s-.09-.64-.09-.64c0,0,.13.34.23.3l.1-.04v-.26s.16-.04.3-.13-.2-.45-.2-.45c0,0,.34.01.6,0s-.14-.38-.14-.38c0,0,.72.03.82-.07s0-.47,0-.47c0,0-.01.06.24,0s.3-.28.3-.28c0,0,.03.03.28,0s1.07-.34,1.18-.47.85-.82.85-.82c0,0,.44-.28.48-.48s0-.51,0-.51l.51,1.56s-.27-.23-.28-.04-.09,1.18-.09,1.18c0,0-.2-.6-.21-.31s-.01.49-.01.49c0,0-.17-.28-.24-.12s-.13.38-.13.38c0,0-.2-.45-.2-.26v.5s-.17-.23-.2-.1-.17.3-.17.3c0,0-.21-.24-.3-.09s-.23-.27-.26.1,0,.67,0,.67c0,0-.34-.99-.33-.38s-.01.54-.01.54c0,0-.23-.43-.27-.37s-.17.41-.17.41c0,0-.11-.26-.16-.16s-.23.5-.23.5c0,0-.1-.26-.14-.11s-.34.77-.34.77c0,0-.13-.57-.14-.2s-.06.64-.06.64c0,0-.31-.6-.37-.16s-.04.71-.04.71c0,0-.18-.1-.16.17s0,.54,0,.54c0,0-.2-.09-.23.18s-.07.8-.11.7-.09-.6-.1-.23.1.51.1.51l.17.14s-.68-.06-.57.11.2.58.2.58c0,0-.33-.27-.38-.06s.3.75.3.75c0,0-.78-.3-.65-.07s.21.47.21.47c0,0-.84-.3-.7-.17s.3.21.3.21c0,0-.82-.01-.7.07s.21.13.21.13c0,0-.65.57-.58.6s.92-.1.92-.1c0,0-1.22.41-.91.48s1.14.87,1.14.87c0,0-.21-.1-.31-.01s-.41.24-.4.4.53.4.53.4c0,0-.53-.07-.44.13s.43.24.43.24c0,0-.74.3-.62.41s.44.24.44.24c0,0-.55.2-.47.31s.45.07.45.07c0,0-.78.45-.61.48s.58-.06.58-.06c0,0-.17.67-.09.58s.36-.5.36-.5l-.18.82-.65.23v1.31s-.1.7-.1.7l-.13.21s-1.22-1.18-1.28-1.24-.48-.43-.48-.43l-.09-.55Z"/><path class="cls-1" d="M16.14,30.04s-.38-.18-.26-.4.32-.55.43-.43.09-.17.11-.34.23,0,.23,0l-.11-.45.36-.62-1.85,1.11-.93.76s-.58.4-.4.58,1.69.15,1.69.15l.72-.37Z"/><path class="cls-14" d="M8.38,26.22s.98.81,1.41.92.88.27.88.27h.5s-.16.31-.11.34.47-.98.47-.98c0,0-.04.34.07.33s.41-.57.41-.57c0,0-.14.54.09.36s.7-.47.7-.47c0,0-.01.4.26.27s.57-.03.57-.03c0,0-.82-.01-.94.57s-.16.98-.16.98c0,0-.27-1.05-.3-.54s-.17,1.18-.17,1.18c0,0-.03-1.07-.11-.65s.04,1.11.04,1.11c0,0-.33-.58-.3-.31s.06.89.06.89c0,0-.37-.71-.38-.53s.01.64.01.64c0,0-.62-1.01-.53-.6s.16.6.16.6c0,0-.68-.5-.68-.38s.13.38.13.38c0,0-.41-.16-.61-.31s-1.26-1.24-1.36-1.58-.09-1.89-.09-1.89Z"/><path class="cls-19" d="M14.07,30.18s.3-.32.45-.34.32-.3.43-.36.34-.21.47-.3.45-.4.45-.4l.02-.45-.32-1-.3-.28-1.36,2.54.16.59Z"/><path class="cls-9" d="M9.98,22.6s.81-.38,1.79-.15,1.73.62,1.98.77,1.04.85,1.19,1.07.28.92.28.92l.3-.19.36-.55s.49.85.62,1.04.43,1.09.55,1.3.21.43.21.43l-.36.6-.19-.3-.17.92-.17-.21-.3.64-.21-.09-.49.09-.45-.92s-.85,1.34-.89,1.41-.4.48-.34.65.21.42.75.36,2.36-.19,2.54-.17.3.18.3.18c0,0-1.98.22-2.11.27s-.81.26-.81.26l.21-.32-.43.32v-.26l-.36.26-.15-.32s-.26.11-.38.06-.36-.06-.17-.45.77-1.45.77-1.45l.49-1.38.17.3s.3-.55.4-1.17-.09-1.53-.09-1.53c0,0-.45-.64-.75-.79s-.64-.28-.64-.28c0,0,.49.04.34-.09s-.79-.4-.79-.4c-.13-.23-.77-.23-.77-.23l-.1-.19h-.51s-.06-.21-.13-.21-1.66.43-1.66.43l.17-.58Z"/><path class="cls-12" d="M14.99,27.5s.25-.64.26-1.01.07-1.03.07-1.03c0,0,.22,1.13.25,1.18s-.04.52-.04.52c0,0-.25.29-.29.43s-.09.76-.03.78.32,0,.32,0c0,0-.72.19-.73.29s-.25.36-.28.43-.28.56-.38.63-.24.5-.32.31.55-1.29.6-1.39.59-1.11.59-1.11Z"/><path class="cls-6" d="M15.88,24.45l-.36-.57-.28.14-.23-1.03-.2.34-.12-1.14-.39-.69v-2.12h-.4l.26-1.17s-.44.51-.35.84-.21.72,0,.81.04,1.04.12.83.15.04.15.33-.22.87,0,.67.28.26.28.47.11.28.19.49,0,.58,0,.58c0,0,.12.51.26.47s.33.62.33.62l.21.47s0-.45.17-.39.36.04.36.04Z"/><path class="cls-20" d="M17.27,30.98s.45.04.51.16.09.17.26.19.04-.3,0-.45-.38-.59-.58-.55-.19.65-.19.65Z"/><path class="cls-8" d="M18.12,22.64l1.28-1.38h.4s-.26.6-.32.81-.23.64-.3.58-.51.28-.51.4.04.49.02.55-.13.4-.13.47-.06.36-.06.58.02.28.02.45.13.81.13.81l-.23.11s-.85-2.39-.72-2.68.43-.68.43-.68Z"/><path class="cls-20" d="M19.97,30.42s-.3.46,0,.56.47.12.55.19.77.23.66,0-.8-.58-.67-.62.68.13.68.13c0,0-.52-.6-.76-.67s-.6-.2-.6-.2v-.43l-.34-2.15s-.02,1.73-.09,1.77-.89-3.34-1.09-3.71-.43-1.24-.43-1.47.83-1.47,1.13-1.79.96-1.18.98-.99.11-.71.19-.5.09.32.09.32c0,0,.11-.92.19-.77s.11-.43.23-.26.21.06.21.06c0,0-.09-.81.02-.7s.09-.6.09-.6l.16-.37-.12-.46-.02-.51-.4-.32-.11-.53s-.15-.19-.26-.17-.55.13-.49.3-.15.38-.04.43.49.11.34.21-.4.32-.38.45-.24.54-.16.61.11.71,0,.86-.13.32-.13.55,0,.47-.04.53-.26.06-.3.21-.17.53-.17.53c0,0-.13-.51-.26-.38s-.11.42-.21.5-.06-.8-.06-.97.49-1.24.47-1.43-.26-.68-.34-.26-.38.87-.45,1.09-.4.53-.3.79-.19.7-.21.77.32.36,0,.57-.49.53-.49.53c0,0,.32.09,0,.32s0,.49,0,.49c0,0,.4-.51.21-.06s-.52.58-.36.62.31,0,.36.09,0,.53,0,.53l.34.02s.04.83.21.92.21.75.3.89.25.75.28.87.32,1.01.32,1.29.34,1.54.32,1.67-.13.53,0,.55.94.09.94.09Z"/><path class="cls-8" d="M8.21,28.21s.17.74.69,1.19,1.06.79,1.06.79c0,0-.44.02-.57,0s-.45-.11-.47-.45-.3-.23-.34-.34-.37-1.19-.37-1.19Z"/><path class="cls-11" d="M14.92,27.94s-1.27,1.78-1.24,2.05.16.02.22.28.53.08.53.08c0,0,.05-.05-.13-.36s.62-2.05.62-2.05Z"/><path class="cls-20" d="M19.21,25.26s-.28-.66-.28-.83.02-.56,0-.68.21-.71.28-.67.17.7.17.85-.17,1.32-.17,1.32Z"/><path class="cls-17" d="M17.86,12.58l.32.36s-.04-.24.11-.18.45.57.45.57c0,0,.05-.06.29,0s.34.32.34.32c0,0,.04-.47.17-.26s.15.58.15.58c0,0-.02-.34.11-.21s.3.4.3.4c0,0-.09-.36,0-.55s.4-.7.4-.7c0,0-.21-.09-.36-.11s-.47-.17-.66-.21-.33-.15-.33-.15l-1.29.15Z"/><path class="cls-18" d="M17.95,9.42s.28-.43.32-.48-.16-.14-.16-.14c0,0,.22-.06.35-.13l.13-.07s.41.23.6.28.38.28.62.44.34.33.36.47-.09.33-.24.36-.27.13-.41.14-.65.09-.75,0-.5-.13-.6-.24-.33-.45-.21-.62Z"/><path class="cls-2" d="M18.3,9.74s-.09-.23,0-.44.2-.27.43-.28.4.06.5.28.01.27.07.37.06.3,0,.26-.19.03-.27,0-.62.05-.73-.19Z"/><circle class="cls-21" cx="18.8" cy="9.31" r=".16"/><path class="cls-18" d="M19.19,12.28s-.22-.57-.15-.92.24-.48.25-.36-.21.36-.1.61,0,.66,0,.66Z"/><path class="cls-18" d="M20.17,12s.08-.3.17-.48.13-.31.31-.31h.82l.89.09s.09-.31.24-.18.09.99,0,1.18-.53.47-.53.47c0,0-.01.23-.31.26s-.64,0-.64,0l-.62-.11s-.55-.56-.34-.9Z"/><path class="cls-5" d="M21.02,12.65s.45-.1.51-.13.32-.14.32-.14v-.51s-.64-.17-.67-.42-.07-.41.19-.5.85-.15,1.04,0,.15.58-.09.74-.18.05-.23.16-.07.43-.07.43l.02.15s.34.1.32.11-.14.13-.25.1-.17-.08-.28-.07-.33.12-.38.14-.58.09-.44-.07Z"/><path class="cls-22" d="M21.68,11.01s.12-.1.33-.05.26.02.18.12-.59.06-.51-.07Z"/><path class="cls-15" d="M21.26,10.32s-1.05-1.38-1.2-1.58-1.23-.64-1.42-.74,1.25-.06,1.48,0,.88.29,1.1.78.42,1.42.45,1.54-.41,0-.41,0Z"/><path class="cls-7" d="M16.19.95c-.09.01-.61-.4-.6-.25s.09,1.07.06,1.53-.07,2.6.07,2.95.7,1.09.88,1.22.75,1.01.76,1.15.33-.62.39-.91-.07-2.6-.07-2.6l-.74-2.1-.75-1Z"/><path class="cls-16" d="M16.43,2.71s.24-.23.37-.13.41-.34.56.48.11,1.96.11,2.23.08,2.17,0,1.87-.29-.78-.37-.95-.55-1.04-.67-1.58,0-1.93,0-1.93Z"/><path class="cls-10" d="M17.92,3.18s.78-2.17.89-2.26.22.2.16.67c-.02.21-.56,1.86-.35,2.9.11.56.33,1,.22,1.39-.16.59.12.75.12.77,0,.09-.1.45,0,.64s-.06.28-.16.3-.54-.44-.54-.44l-.35-3.96Z"/><path class="cls-18" d="M18.27,7.72s-.6-.55-.69-1.19-.44-1.18-.34-1.63.2-.5.14-.94-.36-1.66-.67-2.12-1.05-1.05-.78-1.04,1.21,1.11,1.6,1.8.87,2.05,1.1,2.57.06,1.34-.02,1.53-.36,1.02-.36,1.02Z"/><path class="cls-4" d="M16.68,10.69s.05.95.26,1.12.92.18,1.04.18.59.09.66,0,.14-.55.16-.37.17.45.16.49.18-.17.18-.17v.49s-.98.15-1.13.15-.27.04-.33,0-.14-.18-.26-.3-.31-.13-.38-.13-.14-.28-.33-.28-.16-.25-.23-.33-.09-1.03.18-.85Z"/></svg>