<?xml version="1.0" encoding="UTF-8"?><svg id="Livello_1" xmlns="http://www.w3.org/2000/svg" viewBox="0 0 27.67 19.71"><defs><style>.cls-1{fill:#4b723b;}.cls-1,.cls-2,.cls-3,.cls-4,.cls-5,.cls-6,.cls-7,.cls-8,.cls-9,.cls-10,.cls-11,.cls-12,.cls-13,.cls-14,.cls-15,.cls-16,.cls-17,.cls-18,.cls-19,.cls-20,.cls-21,.cls-22,.cls-23,.cls-24,.cls-25,.cls-26,.cls-27,.cls-28,.cls-29,.cls-30,.cls-31,.cls-32,.cls-33,.cls-34,.cls-35{stroke-width:0px;}.cls-2{fill:#c38d80;}.cls-3{fill:#bf5430;}.cls-4{fill:#1a1c1b;}.cls-5{fill:#23331a;}.cls-6{fill:#455038;}.cls-7{fill:#393f48;}.cls-8{fill:#445136;}.cls-9{fill:#4d3d3a;}.cls-10{fill:#3c4c26;}.cls-11{fill:#1f2226;}.cls-12{fill:#976760;}.cls-13,.cls-16{fill:#f1cbc0;}.cls-14{fill:#2c2622;}.cls-15{fill:#645964;}.cls-16{opacity:.7;}.cls-17{fill:#90594a;}.cls-18{fill:#466269;}.cls-19{fill:#591d07;}.cls-20{fill:#a16334;}.cls-21{fill:#637742;}.cls-22{fill:#708758;}.cls-23{fill:#304548;}.cls-24{fill:#1d201d;}.cls-25{fill:#1f2128;}.cls-26{fill:#87af5d;}.cls-27{fill:#80391d;}.cls-28{fill:#fff;}.cls-29{fill:#e9ad7e;}.cls-30{fill:#aa7869;}.cls-31{fill:#2d222e;}.cls-32{fill:#89544b;}.cls-33{fill:#34394d;}.cls-34{fill:#3e3641;}.cls-35{fill:#5f6a76;}</style></defs><path class="cls-28" d="M13.83,19.71c-3.56,0-6.91-.17-9.43-.49-3.65-.45-4.4-1.03-4.4-1.76,0-.49.39-.79.89-1.01-.23-.16-.38-.35-.46-.58-.21-.56-.01-1.01.03-1.1.1-.21.31-.34.54-.34.01,0,.05,0,.06,0,0-.02.02-.04.02-.05.1-.21.31-.34.54-.34.02,0,.03,0,.05,0,.07,0,.14.02.21.06.08-.04.17-.07.27-.07.02,0,.04,0,.06,0,.09-.23.31-.4.56-.4.17,0,.33.07.44.19.02.02.06.06.09.12.09-.06.19-.09.3-.09.03,0,.06,0,.09,0,.01-.03.02-.06.03-.07.1-.21.31-.34.54-.34.01,0,.03,0,.04,0,.18.01.35.11.45.26.02-.05.05-.09.06-.12.05-.29.3-.54.6-.54.17,0,.33.07.44.19.02.03.06.07.1.14,0-.07.02-.14.04-.21.08-.31.07-.46.06-.5-.02-.08-.03-.15-.03-.23.03-.34.04-.74.02-.84-.06-.22-.02-.45.11-.63.11-.17.28-.26.43-.32.11-.31.23-.67.3-.91.15-.5.45-.91.69-1.23.06-.08.12-.16.17-.23.13-.19.43-.86.64-1.33.02-.25.08-.44.13-.58-.24,0-.45-.03-.64-.06l-.13-.02c-.16-.02-.31-.04-.46-.06-.13,0-.53-.04-.73-.39-.19-.33-.03-.65.04-.76l.34-.75c-.16-.12-.3-.29-.38-.58-.11-.42-.22-.85.09-1.23.01-.01.02-.03.03-.04l.34-.35s.02-.06.02-.08c0-.02.01-.05.02-.07.1-.29.31-.71.72-1,.44-.32.64-.46.79-.56l.09-.06c.37-.24.78-.36,1.24-.36.1,0,.2,0,.32.02.77.09,1.28.89,1.59,1.37.05.07.08.13.11.17.05.07.1.15.14.23.11,0,.2.03.29.05.11-.02.26-.04.5-.04.06,0,.13,0,.21,0,1.05.04,2.24.1,3.01.4.77.3,1.06.46,1.6.97.07.06.13.13.19.19.18.1.34.21.48.34.63.53.86.98,1.04,1.35.17.33.26.51.65.73.98.53,1.12,1.06,1.02,1.7-.01.07-.02.14-.02.18.02.26-.02.47-.06.63.14.1.33.27.41.62.02.04.04.08.07.13.23.42.71,1.29.3,2.52-.45,1.34-1.29,1.88-1.49,1.99-.39.27-.63.3-.99.32-.06,0-.37.03-.43.03-.19.01-.24.02-.48.12,0,.02,0,.03,0,.05.05.34-.06.7-.32.98-.05.05-.11.14-.19.25,9.82.36,9.82,1.71,9.82,2.17,0,.73-.75,1.3-4.4,1.76-2.52.31-5.88.49-9.44.49Z"/><path class="cls-24" d="M18.62,5.12s.4,1.54.78,1.75.68.37.67.64.36-.22.31-.48-.48-.62-.72-.7-.93-.7-1.04-1.21Z"/><ellipse class="cls-21" cx="13.84" cy="17.47" rx="13.24" ry="1.64"/><path class="cls-6" d="M22.42,16.76s-3.88-.7-5.9-.49-3.77.31-5.69.49-3.26.68-4.29.6-2.91-.16-2.07.24,1.66.61,3.56.52,3.36.01,5.74.02,5.37-.38,7.98-.39,3.95-.79.67-1Z"/><path class="cls-33" d="M6.67,14.11s-.31.67-.52.79-.1.17.11.16.66-.21.79-.54c0,0,0,.59-.31.8l-.32.2s.55-.05.83-.7c0,0,.11-.3.11-.39s.19-.6.19-.6l-.48-.29-.36.28-.04.3Z"/><path class="cls-22" d="M6.53,15.67c-.2.1-.26.37-.27.41,0,.01,0,.08.01.18,0,.08.01.17.02.28.03.37.07.83.07.83h-.09s-.02-.27-.02-.27c0,0,0-.24-.02-.52,0-.13-.01-.27-.02-.39-.01-.19-.03-.36-.07-.41-.04-.08-.15-.12-.27-.19-.05-.02-.1-.05-.15-.08-.1-.07-.2-.16-.25-.29-.14-.36,0-.64,0-.64,0,0-.01.34.14.52.16.18.51.38.56.56h0s0,.06.01.09c.03.08.05.25.05.25,0,0,.11-.21.1-.37,0,0,0,0,0-.02,0-.09-.03-.51.07-.7.11-.21.26-.48.22-.71.01-.16.05.31.03.55-.01.24.08.81-.13.91Z"/><path class="cls-26" d="M6.19,15.56s0,.05,0,.1c-.04-.18-.4-.38-.56-.56-.16-.18-.14-.52-.14-.52,0,0,.09.27.36.44.27.16.37.4.35.55Z"/><path class="cls-26" d="M6.4,14.91c-.1.18-.08.6-.07.7-.02-.16-.15-.46-.06-.67.09-.21.33-.58.34-.74.04.23-.1.5-.22.71Z"/><path class="cls-22" d="M5.28,15.16c-.2.1-.26.37-.27.41,0,.01,0,.08.01.18,0,.08.01.17.02.28.03.37.07.83.07.83h-.09s-.02-.27-.02-.27c0,0,0-.24-.02-.52,0-.13-.01-.27-.02-.39-.01-.19-.03-.36-.07-.41-.04-.08-.15-.12-.27-.19-.05-.02-.1-.05-.15-.08-.1-.07-.2-.16-.25-.29-.14-.36,0-.64,0-.64,0,0-.01.34.14.52.16.18.51.38.56.56h0s0,.06.01.09c.03.08.05.25.05.25,0,0,.11-.21.1-.37,0,0,0,0,0-.02,0-.09-.03-.51.07-.7.11-.21.26-.48.22-.71.01-.16.05.31.03.55-.01.24.08.81-.13.91Z"/><path class="cls-26" d="M4.95,15.05s0,.05,0,.1c-.04-.18-.4-.38-.56-.56-.16-.18-.14-.52-.14-.52,0,0,.09.27.36.44.27.16.37.4.35.55Z"/><path class="cls-26" d="M5.16,14.4c-.1.18-.08.6-.07.7-.02-.16-.15-.46-.06-.67.09-.21.33-.58.34-.74.04.23-.1.5-.22.71Z"/><path class="cls-22" d="M5.75,16.13c-.2.1-.26.37-.27.41,0,.01,0,.08.01.18,0,.08.01.17.02.28.03.37.07.83.07.83h-.09s-.02-.27-.02-.27c0,0,0-.24-.02-.52,0-.13-.01-.27-.02-.39-.01-.19-.03-.36-.07-.41-.04-.08-.15-.12-.27-.19-.05-.02-.1-.05-.15-.08-.1-.07-.2-.16-.25-.29-.14-.36,0-.64,0-.64,0,0-.01.34.14.52.16.18.51.38.56.56h0s0,.06.01.09c.03.08.05.25.05.25,0,0,.11-.21.1-.37,0,0,0,0,0-.02,0-.09-.03-.51.07-.7.11-.21.26-.48.22-.71.01-.16.05.31.03.55-.01.24.08.81-.13.91Z"/><path class="cls-26" d="M5.42,16.02s0,.05,0,.1c-.04-.18-.4-.38-.56-.56-.16-.18-.14-.52-.14-.52,0,0,.09.27.36.44.27.16.37.4.35.55Z"/><path class="cls-26" d="M5.63,15.38c-.1.18-.08.6-.07.7-.02-.16-.15-.46-.06-.67.09-.21.33-.58.34-.74.04.23-.1.5-.22.71Z"/><path class="cls-22" d="M4.66,15.97c-.2.1-.26.37-.27.41,0,.01,0,.08.01.18,0,.08.01.17.02.28.03.37.07.83.07.83h-.09s-.02-.27-.02-.27c0,0,0-.24-.02-.52,0-.13-.01-.27-.02-.39-.01-.19-.03-.36-.07-.41-.04-.08-.15-.12-.27-.19-.05-.02-.1-.05-.15-.08-.1-.07-.2-.16-.25-.29-.14-.36,0-.64,0-.64,0,0-.01.34.14.52.16.18.51.38.56.56h0s0,.06.01.09c.03.08.05.25.05.25,0,0,.11-.21.1-.37,0,0,0,0,0-.02,0-.09-.03-.51.07-.7.11-.21.26-.48.22-.71.01-.16.05.31.03.55-.01.24.08.81-.13.91Z"/><path class="cls-26" d="M4.32,15.86s0,.05,0,.1c-.04-.18-.4-.38-.56-.56-.16-.18-.14-.52-.14-.52,0,0,.09.27.36.44.27.16.37.4.35.55Z"/><path class="cls-26" d="M4.54,15.21c-.1.18-.08.6-.07.7-.02-.16-.15-.46-.06-.67.09-.21.33-.58.34-.74.04.23-.1.5-.22.71Z"/><path class="cls-22" d="M3.48,15.97c-.2.1-.26.37-.27.41,0,.01,0,.08.01.18,0,.08.01.17.02.28.03.37.07.83.07.83h-.09s-.02-.27-.02-.27c0,0,0-.24-.02-.52,0-.13-.01-.27-.02-.39-.01-.19-.03-.36-.07-.41-.04-.08-.15-.12-.27-.19-.05-.02-.1-.05-.15-.08-.1-.07-.2-.16-.25-.29-.14-.36,0-.64,0-.64,0,0-.01.34.14.52.16.18.51.38.56.56h0s0,.06.01.09c.03.08.05.25.05.25,0,0,.11-.21.1-.37,0,0,0,0,0-.02,0-.09-.03-.51.07-.7.11-.21.26-.48.22-.71.01-.16.05.31.03.55-.01.24.08.81-.13.91Z"/><path class="cls-26" d="M3.14,15.86s0,.05,0,.1c-.04-.18-.4-.38-.56-.56-.16-.18-.14-.52-.14-.52,0,0,.09.27.36.44.27.16.37.4.35.55Z"/><path class="cls-26" d="M3.36,15.21c-.1.18-.08.6-.07.7-.02-.16-.15-.46-.06-.67.09-.21.33-.58.34-.74.04.23-.1.5-.22.71Z"/><path class="cls-22" d="M3.98,15.76c-.15.08-.19.27-.2.31,0,0,0,.06.01.13,0,.06.01.13.02.2.02.27.05.62.05.62h-.07s-.02-.2-.02-.2c0,0,0-.18-.01-.38,0-.1-.01-.2-.02-.29-.01-.14-.03-.26-.05-.3-.03-.06-.11-.09-.2-.14-.04-.01-.07-.04-.11-.06-.08-.05-.15-.12-.18-.22-.1-.27,0-.48,0-.48,0,0-.01.25.1.39.12.13.38.28.41.41h0s0,.05,0,.07c.02.06.04.18.04.18,0,0,.08-.15.07-.27,0,0,0,0,0-.01,0-.07-.03-.38.05-.51.08-.16.19-.35.16-.52,0-.12.04.23.03.41,0,.18.06.6-.09.67Z"/><path class="cls-26" d="M3.73,15.68s0,.03,0,.07c-.03-.14-.3-.28-.41-.41-.12-.13-.1-.39-.1-.39,0,0,.06.2.26.32.2.12.27.3.26.4Z"/><path class="cls-26" d="M3.89,15.2c-.07.14-.06.45-.05.51-.01-.12-.11-.34-.04-.49.07-.16.24-.43.25-.55.03.17-.07.37-.16.52Z"/><path class="cls-22" d="M2.66,15.74c-.2.1-.26.37-.27.41,0,.01,0,.08.01.18,0,.08.01.17.02.28.03.37.07.83.07.83h-.09s-.02-.27-.02-.27c0,0,0-.24-.02-.52,0-.13-.01-.27-.02-.39-.01-.19-.03-.36-.07-.41-.04-.08-.15-.12-.27-.19-.05-.02-.1-.05-.15-.08-.1-.07-.2-.16-.25-.29-.14-.36,0-.64,0-.64,0,0-.01.34.14.52.16.18.51.38.56.56h0s0,.06.01.09c.03.08.05.25.05.25,0,0,.11-.21.1-.37,0,0,0,0,0-.02,0-.09-.03-.51.07-.7.11-.21.26-.48.22-.71.01-.16.05.31.03.55-.01.24.08.81-.13.91Z"/><path class="cls-26" d="M2.32,15.63s0,.05,0,.1c-.04-.18-.4-.38-.56-.56-.16-.18-.14-.52-.14-.52,0,0,.09.27.36.44.27.16.37.4.35.55Z"/><path class="cls-26" d="M2.53,14.99c-.1.18-.08.6-.07.7-.02-.16-.15-.46-.06-.67.09-.21.33-.58.34-.74.04.23-.1.5-.22.71Z"/><path class="cls-22" d="M2.04,16.13c-.2.1-.26.37-.27.41,0,.01,0,.08.01.18,0,.08.01.17.02.28.03.37.07.83.07.83h-.09s-.02-.27-.02-.27c0,0,0-.24-.02-.52,0-.13-.01-.27-.02-.39-.01-.19-.03-.36-.07-.41-.04-.08-.15-.12-.27-.19-.05-.02-.1-.05-.15-.08-.1-.07-.2-.16-.25-.29-.14-.36,0-.64,0-.64,0,0-.01.34.14.52.16.18.51.38.56.56h0s0,.06.01.09c.03.08.05.25.05.25,0,0,.11-.21.1-.37,0,0,0,0,0-.02,0-.09-.03-.51.07-.7.11-.21.26-.48.22-.71.01-.16.05.31.03.55-.01.24.08.81-.13.91Z"/><path class="cls-26" d="M1.7,16.02s0,.05,0,.1c-.04-.18-.4-.38-.56-.56-.16-.18-.14-.52-.14-.52,0,0,.09.27.36.44.27.16.37.4.35.55Z"/><path class="cls-26" d="M1.91,15.38c-.1.18-.08.6-.07.7-.02-.16-.15-.46-.06-.67.09-.21.33-.58.34-.74.04.23-.1.5-.22.71Z"/><path class="cls-23" d="M6.9,14.47s.25.53.51.64.42.02.37-.18-.22-.28-.28-.46.21.08.53.04.74-.49.74-.49c0,0-.13-.23-.43-.15s-.33.12-.33.12l-.14-.32-.51-.05-.46.85Z"/><path class="cls-14" d="M6.72,13.91s-.12-.95,0-1.26.74.56.76.59-.42.51-.42.51c0,0-.17.03-.33.16Z"/><path class="cls-2" d="M8.94,7.08s-.5,1.19-.73,1.53-.62.78-.78,1.3-.52,1.52-.52,1.52l1.38.07s1.12-1.65,1.51-2.13,1.31-1.52,1.47-2.39-2.32.09-2.32.09Z"/><path class="cls-18" d="M6.59,12.5s.07-.77,0-1.04.33-.33.75-.32.83.25,1.03.51-.61,1.07-.62,1.15.17.27.2.57,0,.4-.04.56-.37.3-.36.06-.04-.55-.15-.79-.38-.37-.5-.35-.13.62-.15.84-.1.5-.06.61-.3-.38-.16-.98.05-.82.05-.82Z"/><path class="cls-31" d="M16.93,13.5s.5.29.67.39.28.45,0,.75-.8,1.2-.8,1.2l-.34-.86.47-1.48Z"/><path class="cls-8" d="M14.16,15.59s-.32.29-.6-.08-5-3.6-5-3.6l.95-1.99,3.16-.2,3.3,1.93.13,1.63-1.94,2.3Z"/><path class="cls-4" d="M14.48,8.68c-.05-.04-2.54.21-3.32.14s-1.7-.47-2.71.02-1.08,1.61-.9,2.02,1.01,1.06,1.01,1.06c0,0,.43-.15.68-.13s1.45-.54,1.45-.54c0,0-.45-.59-.89-.71s1.57-.36,2.21-.27.12,1.66.12,1.66c0,0,.41.39.93.39s-.08.41.25.48,1.22-.09,1.22-.09c0,0,.63-3.55-.06-4.02Z"/><path class="cls-30" d="M14.48,8.97s-1.03,1.71-1.61,2.52c-.58.81-.58,1.12-1.26,1.9-.68.77-1.68,1.88-2.09,1.92-.41.04-.95-.6-.95-.6,0,0,.17-.3.41-.71,0,0,0,0,0,0,.05-.05,1.55-1.61,2.27-2.1.73-.49.17-.51.09-1.05-.08-.54.18-1.53.18-1.53.28-.53.64-.82.64-.82l2.19-.26.12.73Z"/><path class="cls-10" d="M14.08,7.87s.16,1.77.16,2.19-.56,3.87-.56,3.87c0,0-.06.56,1.16.54s2.15-.79,2.15-.79l.35-1.78-1.89-4.84s-1.37.21-1.37.8Z"/><path class="cls-24" d="M16.93,13.5s.61.21,1.11,0,.52-.17.97-.21.57,0,.93-.25,1.24-1.22,1.14-2.23-2.25-2.97-2.3-2.95-1.26,0-1.26,0l-1.39-.42-.15,1.05.83,1.42.1,2.08s.19.48.02.7-.02.34.01.81Z"/><path class="cls-19" d="M11.26,6.99s.18.07.27.46.11.73.38.89l.27.16s.84.16,1.32.1.64-.15.64-.15l-.07-.9-.45-2.27-1.73-1.99h-.91l-.48,2.49.76,1.21Z"/><path class="cls-29" d="M9.36,5.28s-.09.7.16.99.68.46.68.46c0,0-.67-.01-.84-.41,0,0-.1.41.25.75s.6.36.6.36c0,0-.63-.13-.84-.38s-.22.48-.1.61-.32-.16-.32-.6.2-.62.22-1.02.2-.78.2-.78Z"/><path class="cls-3" d="M20.07,7.66l-2.05.13-1.63-.42s-2.22-.45-2.37.19c-.14.64-1.26.94-.96.97.3.03,1.22-.06.26.1-.96.16-1.16-.13-1.16-.13,0,0,.12-.51.12-.79s-.19-.79-.33-1.12c-.14-.33.03-1.38.2-1.3.17.08,1.12.05.65,0-.46-.05-.73-.5-.73-.83s-.09-1.15-.12-.16c-.03.99-.49,1.95-.49,1.95,0,0-.71,0-.44-.35.14-.18.31-.62.43-1,.12-.35.2-.66.2-.66.24-1.03-.01-1.48-.2-1.67-.12-.12-.22-.14-.13-.13.02,0,.04,0,.07,0,.05,0,.11,0,.18.01.36.03.9.08.9.08,0,0,1.95.42,3.22.65,1.28.23,2.22,1.2,2.43,1.46.21.26.85,1.19.97,1.49.12.3.95,1.52.95,1.52Z"/><path class="cls-29" d="M11.35,2.43s.6-.09.82,0,.1-.05.84-.02,2.08.07,2.82.36.94.41,1.41.84.93,1.03.93,1.03c0,0-1.19-1.17-2.24-1.13s.12.23.48.39.36.04.33.47.13-.29.32-.22.17.34.13.65-.2.6-.3.77.09-.46.09-.77-.22.48-.33.28-.35-.41-.87-.61-.71.57-1.01.7.34-.48.39-.84-.41.25-.73.47.01-.13.28-.53-.28-1.12-.32-1.13.57.83-.13,1.35-.97.36-.73-.15-.35-1.07-.61-.75-.35-.03-.52-.1-.19-.87-1.03-1.07Z"/><path class="cls-27" d="M9.26,7.68s.28.27.94.17,1.05-.86,1.05-.86c0,0-.57-.83-.62-1.28s-1.28-.58-1.28-.58l-.22,1.37s-.16.91.12,1.18Z"/><path class="cls-30" d="M9.48,5.43s.1.12.23.15.2,0,.3.09.41.29.6.2.55-.45.78-.81.39-1.33.37-1.61-.04-.6-.12-.76-.3-.25-.3-.25l-1.99,2.23.12.77Z"/><path class="cls-3" d="M11.47,2.56s0,0,0,0c-.02.06-.04.12-.07.19-.12.29-.97,1.02-.97,1.02,0,0-.2.64-.64,1.36-.08.13-.15.24-.22.32,0,0,0,0,0,0-.31.37-.53.32-.98.31-.26,0-.47-.03-.67-.05h0s-.08-.27-.11-.43c-.03-.16.12-.73,0-.63-.12.1-.25.72-.24.62.01-.1.03-.53.17-.78.15-.25,0-.58,0-.58,0,0-.09-.6-.19-.94.06.15.04-.45.36-.76.35-.33-.09.37-.04.61.05.24.46-.89.73-1.08.26-.2.65.03.82.34.17.31.2-.06-.07-.41-.27-.35.4-.44.65-.19.25.25.3-.02,0-.19-.3-.17.58-.02.74.28.16.3.37.47.51.61.05.05.08.1.11.16.02.03.03.07.05.1.03.08.05.14.06.13Z"/><path class="cls-29" d="M7.92,5.71h0c-.22-.03-.42-.06-.62-.08-.39-.03-.25-.19-.17-.35.07-.16.61-1.34.62-1.38h0s.15.33,0,.58c-.14.25-.16.68-.17.78-.01.1.11-.52.24-.62.12-.1-.03.47,0,.63.03.16.11.43.11.43Z"/><path class="cls-29" d="M11.47,2.56s-.08-.25-.22-.38c-.14-.14-.35-.3-.51-.61-.16-.3-1.05-.45-.74-.28.3.17.25.44,0,.19-.25-.25-.92-.16-.65.19.27.35.24.73.07.41-.17-.31-.56-.54-.82-.34-.26.2-.68,1.32-.73,1.08-.05-.24.39-.94.04-.61-.27.26-.3.72-.34.78,0,.01-.01,0-.02-.02,0-.02-.01-.04-.02-.05-.04-.15-.02-.34,0-.49h0c.02-.13.05-.23.05-.25,0,0,0,0,0,0h0c.09-.26.25-.53.5-.71.52-.38.7-.49.87-.61s.55-.32,1.15-.25c.59.07,1.09,1.03,1.29,1.31.16.21.14.42.07.64Z"/><path class="cls-11" d="M14.88,3.29s-.87.06-2.19,1.39-.68,2.4-.62,2.63.09,1.19.09,1.19c0,0,.29-.7.12-1.59s-.36-1.37.72-2.1,2.45-.9,2.45-.9c0,0,.75-.62-.57-.62Z"/><path class="cls-21" d="M14.88,3.29s1.92-.08,3.04.87.74,1.57,1.8,2.15.66.92.7,1.4-.23.72-.04.91.35.15.41.44.81,1.05.39,2.32-1.24,1.66-1.24,1.66c0,0,1.16-1.55.89-2.4s-.97-1.28-.99-.99.27.77.27,1.26-.12.75-.5.29-1.45-1.03-1.45-1.03c0,0,.56-.45.54-1.35s-.6-.81-.6-.81c0,0-.21,1.66-.67,2.05s-.14-.17-.15-.87-.23-1.12-.75-1.32.37.11.52,1.21-.14,2.57-.14,2.92-.7-.27-1.05-.99-.7-.29-.14.62.58,1.68.95,1.8.37,0,.29.54-.1,1.08-.1,1.08c0,0-1.45.19-1.97,0s-1.32-.23-1.32-.23l.12-.89s.35.29.89.15.29-.75-.04-1.39,0-.41.52-.27.46.35.72.58,0-.52-.32-1.16-1.04-.7-1-2.25.15-1.89.15-1.89l.99.26s.06-1.35.62-1.37,1.06.68,1.47.85.93.04,1.47.04,1.39.12,1.08-.54-.79-.31-1.55-1.55-1.87-1.64-3.24-1.49-.47-.04-.38-.25-.19-.37-.19-.37Z"/><path class="cls-7" d="M18.93,7.5l-.6.21c-.6.21-.74-.03-1.22-.49-.48-.46-.89-.62-1.12-.27-.23.35-.32,1.2-.32,1.2-.73-.41-1.58-.28-1.58-.28,0,0-.12-.39-.09-.8,0,0,.18.16.42-.06.24-.21.41-.49,1.04-.51.63-.03.49-.31,1.16-.06,0,0,0,0,0,0,.14.08.3.17.47.26.89.44,1.57.79,1.84.8Z"/><path class="cls-2" d="M11.26,11.89c-.72.49-2.23,2.05-2.27,2.1.43-.72,1.1-1.77,1.58-2.15.75-.6.49-.77.69-1.78.06-.28.16-.53.27-.74h0s-.26.99-.18,1.53c.08.54.64.55-.09,1.05Z"/><path class="cls-5" d="M5.93,17.46s.06.29.51.29.45-.04.74,0,.57-.09.75-.29.25-.43.25-.43c0,0-1.21-.19-1.69.05s-.57.37-.57.37Z"/><path class="cls-1" d="M8.5,14.58s.7.7,1.27.73-.74.36-.83.6-.26.37-.44.63-.5.86-.7.92-.77-.28-.99-.31-.27.27-.89.32c0,0-.34.05-.42-.18s.14-.15.8-.51.07-.74.07-.74c0,0,.47-.17.89-.51s.45-.26.69-.46.36-.72.54-.46Z"/><path class="cls-35" d="M16.62,6.43c-.67-.25-.53.03-1.16.06-.63.03-.8.3-1.04.51-.24.21-.42.06-.42.06.03-.41.2-.85.75-.99.9-.23,1.29.02,1.87.36Z"/><path class="cls-34" d="M17.06,17.15c-.05.24-.55.18-1.33.4-.78.22-1.9.2-2.67.27-.77.07-.91.1-.9-.2.01-.3,0-.68.33-.83.33-.16,1.18-.53,1.36-.65.17-.12.3-.17.3-.32s-.09-.32-.09-.32c0,0-.15-.59,0-.59.11,0,.5.09.86.14.15.02.3.04.42.04.38,0,1.24,0,1.33-.04.02,0,.02,0,0,0-.05.04-.34.2-.49.23-.19.04-.26.17.01.28.26.1.47.37.59.69,0,.01.01.03.02.04.04.12.06.17.06.19h0s-.11-.09-.34-.19c-.36-.15-.86-.49-1.09-.2-.24.29-.17.48-.63.44-.46-.04-.94-.21-1.4.05-.46.26-.31.37.08.44.39.07.44,0,.78.17.34.16.68.18,1.22,0,.54-.18.92-.23,1.26-.22.32.01.27-.15.26-.18,0,0,0,0,0,0,.02.02.09.15.05.36Z"/><path class="cls-15" d="M16.74,16.97c-.34-.01-.72.04-1.26.22-.54.18-.88.16-1.22,0-.34-.16-.39-.09-.78-.17-.39-.07-.54-.18-.08-.44.46-.26.94-.09,1.4-.05.46.04.39-.15.63-.44.24-.29.74.04,1.09.2.23.1.34.22.34.19l.14.32s0,0,0,0c0,.01.07.19-.26.18Z"/><path class="cls-15" d="M16.82,15.65c-.03.28-.07.41-.04.59-.12-.32-.33-.59-.59-.69-.28-.11-.2-.24-.01-.28.16-.03.44-.19.49-.23.03.04.19.26.15.6Z"/><path class="cls-31" d="M14.55,15.26s-.55.06-.79.44-.04.44.16.4.37-.41.46-.54.21-.24.21-.24c0,0-.14.69.14.9s.49-.04.37-.38-.41-.57-.48-.57.38.32.42.6-.18.42-.29.19-.15-.76-.15-.76c0,0-.04,0-.14.08s-.36.53-.56.62-.21-.07-.07-.26.71-.46.71-.46Z"/><path class="cls-20" d="M7.06,13.75l1.13-1.7s.31-.05.49.2-1.28,1.74-1.28,1.74c0,0-.21-.15-.34-.24Z"/><circle class="cls-25" cx="7.11" cy="13.91" r=".44"/><circle class="cls-9" cx="7.11" cy="13.93" r=".31"/><path class="cls-32" d="M11.18,3.85s-.02.12.11.1.19-.15.21-.31-.15-.39-.32-.4-.2.19-.05.31.17.09.13.17-.09.06-.09.13Z"/><path class="cls-16" d="M11.47,2.56s-.99.43-1.4.68-1.03.47-1.03.47c0,0,.02.21,0,.29s.25-.16.75-.45,1.03-.62,1.29-.66.32-.14.32-.14l.07-.19Z"/><path class="cls-13" d="M7.07,2.9s.19.39.4.53.04.17.34.16.55.05.78.08.45.04.45.04c0,0,.04.18,0,.29s-.37.32-.64.32-.48-.23-.7-.32-.51-.05-.6-.41-.14-.56-.03-.69Z"/><path class="cls-16" d="M7.59,3.09l-.11.34s-.35-.2-.4-.53l.47-.48h0c-.02.15-.04.34,0,.49,0,.02.01.03.02.05,0,.02.02.03.02.02v.1Z"/><path class="cls-17" d="M9.84,5.59s-.01-.07.14-.14.44-.36.44-.36c0,0-.16.53-.32.64,0,0-.07-.01-.11-.04s-.03-.06-.06-.07-.07,0-.09-.04Z"/><path class="cls-12" d="M11.67,4.23s-.08.3-.2.66c-.04.09-.07.15-.08.16,0-.03.18-.79.2-1.1.01-.31-.01-1.01-.15-.77-.14.25-.31.37-.6.47-.28.1-.34.46-.59.94-.25.49-.69.86-.69.86,0,0,0,0,0,0,.07-.08.14-.19.22-.32.44-.73.64-1.36.64-1.36,0,0,.86-.73.97-1.02.03-.06.07-.18.09-.25.26.13.43.7.18,1.73Z"/></svg>