<?xml version="1.0" encoding="UTF-8"?><svg id="Livello_1" xmlns="http://www.w3.org/2000/svg" viewBox="0 0 27.38 21.47"><defs><style>.cls-1{fill:#997354;}.cls-1,.cls-2,.cls-3,.cls-4,.cls-5,.cls-6{stroke-width:0px;}.cls-7{fill:#fff;stroke:#fff;stroke-linecap:round;stroke-linejoin:round;stroke-width:1.03px;}.cls-2{fill:#6c513c;}.cls-3{fill:#1e171b;opacity:.58;}.cls-4{fill:#594130;}.cls-5{fill:#594233;}.cls-6{fill:#231c1d;}</style></defs><path class="cls-7" d="M26.8,14.76c.04-.17.07-.39.07-.68,0-.25-.31-1.2-.31-1.53s0-.63.04-.87c.14-.75-.02-1.74-1.04-2.52-.91-.69-1.44-.65-1.71-.69-.09-.12-.19-.3-.28-.55-.19-.53-.9-1.65-1.08-2.1-.18-.46-1.29-2.75-1.82-3.37-.53-.62-2.34-2.11-3-1.92-.5.14-.13,1.52.09,2.22-.28-.19-.51-.33-.64-.37-.25-.09-1.26-.75-1.79-1.03-.53-.28-.98-.03-.98-.03-.6.1-.04,1.34.45,2.51.49,1.17,1.71,2.73,2.63,3.35s2.16,1.19,2.5,1.34c.64.27.73.49.71.71-.02.18-.16.24-.35.3,0,0,0,0,0,0-.11,0-.25.03-.39.06-.22-.03-.44-.15-.55-.23-.15-.11-.2-.46-.62-.95-.41-.49-1.88-1.25-2.46-1.58-.58-.33-2.62-.7-3.91-.62-1.25.08-4.28,1.97-5.52,4.2.01-.08.02-.14.02-.14,0,0-.06.14-.14.36,0,.01-.01.02-.02.03-.3.62-.51,1.31-.65,1.98-.06.24-.1.45-.11.61,0,0,0,.02,0,.03-.22,1.44-.18,2.69-.17,2.93-.01.27-.02.44-.02.44,0,0-.18.37-.38.37-.09,0-.3.05-.52.11-.6.04-1.13.09-1.74.19-.64.1-2.32,1.25-2.53,1.35-.21.1.52.12.52.12,0,0-.06.15-.16.23-.1.09.4.13.4.13,0,0-.06.17,0,.28.06.12.83.11.83.11,0,0-.32.15-.17.27.15.11.83,0,.83,0,0,0,.05.23.34.34.3.12.87-.05.87-.05l-.02.16c-.02.15,1.04-.09,1.07-.09,0,0,.03.01.09.04.15.06.6-.09.98-.17.38-.08,1.24-.13,1.24-.13,0,0,.06.28.12.5.07.22.08.3.61.34.53.03,2,.08,2,.08,0,0,3.07-.01,4.17-.14,1.1-.13.97,0,1.46.04.5.04.83.08,1.38.13.11,0,.17.02.23.02h0s0,0,0,0c.22.01.12-.02.6-.11.1.07.37,0,.37,0,0,0-.02-.02-.04-.06.19-.03.13,0,.45.08.43.1.77.07.77.07,0,0,.35.07.56.08.2.02.64-.12.64-.12,0,0,.45-.01.56-.04.12-.03.29-.23.42-.28s.1-.31.1-.31c0,0,.3-.06.52-.07s.31-.32.31-.32c0,0,.01,0,.03-.03,0,0,.01,0,.02,0,.03,0,.03-.02,0-.03.05-.05.1-.14.07-.28-.04-.24-1.02-.82-1.29-.94-.16-.07-.76-.04-1.23,0,.24-.06.64-.3.64-.36.25-.11.51-.25.75-.42.52-.36.85-.75,1.07-1.08h0s.02-.02.02-.02c.09-.13.15-.25.2-.35l.59-1.02s.29.39,1.17.51c.51.07,1.11-.01,1.52-.28.27-.18.47-.32.58-.68.02-.05.02-.08.02-.08,0,0,0,0,0,0Z"/><path class="cls-4" d="M17.87,3.15c-.02-.1-.87-2.43-.21-2.62s2.48,1.3,3,1.92,1.64,2.92,1.82,3.37.89,1.58,1.08,2.1.45.74.45.74l-2.53-1.17s-3.51-3.74-3.61-4.36Z"/><path class="cls-2" d="M5.75,16.26s-.2-3.26.93-5.59,4.36-4.37,5.65-4.45,3.33.29,3.91.62,2.04,1.09,2.46,1.58.46.84.62.95.52.3.8.21.48-.13.5-.35-.07-.44-.71-.71c-.34-.14-1.58-.73-2.5-1.34s-2.14-2.18-2.63-3.35-1.05-2.41-.45-2.51c0,0,.45-.25.98.03s1.54.94,1.79,1.03.85.48,1.49,1.04,2.13,2.45,2.38,2.82,1.06,1.37,1.34,1.5,1.21.65,1.44.73.77-.08,1.8.71c1.03.78,1.18,1.78,1.04,2.52-.04.24-.04.54-.04.87s.31,1.28.31,1.53c0,.98-.26,1.16-.66,1.43s-1.01.35-1.52.28c-.88-.12-1.17-.51-1.17-.51,0,0-.38.53-.49.81s-.47,1.03-1.39,1.66-1.99.84-1.99.84c0,0,1.56-.17,1.83-.06s1.24.7,1.29.94-.14.34-.14.34c0,0-.09.31-.31.32s-.52.07-.52.07c0,0,.03.26-.1.31s-.31.25-.42.28-.56.04-.56.04c0,0-.44.13-.64.12s-.56-.08-.56-.08c0,0-.34.04-.77-.07s-.17-.14-.77-.03-.28.14-.83.09-.89-.09-1.38-.13-.36-.16-1.46-.04c-1.1.13-4.17.14-4.17.14,0,0-1.47-.04-2-.08s-.54-.12-.61-.34-.12-.5-.12-.5c0,0-.86.06-1.24.13s-.83.23-.98.17-.09-.04-.09-.04c0,0-1.1.25-1.08.09l.02-.16s-.57.17-.87.05-.34-.34-.34-.34c0,0-.68.11-.83,0s.17-.27.17-.27c0,0-.78.01-.83-.11s0-.28,0-.28c0,0-.5-.04-.4-.13s.16-.23.16-.23c0,0-.73-.03-.52-.12s1.89-1.25,2.53-1.35,1.18-.16,1.83-.19.79-.11.87-.4-.03-.48-.03-.48Z"/><path class="cls-3" d="M23.68,10.88c.23.45.65.61,1.08.77.07.03.11.13.17.21-.01.01-.03.03-.04.04-.3-.15-.6-.28-.89-.45-.2-.12-.34-.31-.32-.58Z"/><path class="cls-1" d="M21.23,8.3s-1.86-.23-3.44-1.39-2.36-2.55-2.48-3.08c-.33-1.38-1.13-2.07-.33-1.87s1.8,1.2,2.24,1.73c.95,1.12,2.03,2.08,2.4,2.44s1.62,2.18,1.62,2.18Z"/><path class="cls-5" d="M19.43,9.71s.54-.18.82-.19.36-.14.36-.14c0,0-.64,1.03-.39,1.84s.54,1.23.54,1.23c0,0-.85-1.09-1.07-1.44s-.25-1.31-.25-1.31Z"/><path class="cls-3" d="M23.52,15.28s-.35-.51-.6-.55-1.21-.21-1.67-1.12c-.14-.28-.15-.11-.15-.11,0,0,.34,1.02.52,1.23s.94,0,1.18.22.26.8.26.8l-.35.93.81-1.4Z"/><path class="cls-5" d="M9.05,10.09s.99-.7,1.85-.64,1.63.75,1.88,1.48.65,1.76,1,1.99.32-.15.79.05.51.44,1,.38.47-.16.49-.07-.42.48-.72.27-1.25-.5-1.41-.33-.73,1.09-.84,1.29.15-.98.15-1.49-.71-2.84-1.75-2.97-3.06.89-3.06.89c0,0,.06-.46.62-.84Z"/><path class="cls-5" d="M5.72,16.66s.13-2.56.19-3.4.92-2.99.92-2.99c0,0-.71,4.71-.49,5.52.09.34.26.65.4.89.21.34.38.56.27.6-.18.07-.65.66-.75.52s-2.5-.38-2.19-.46,1.06-.32,1.26-.31.38-.37.38-.37Z"/><path class="cls-5" d="M7.49,18.65s.06-1.2.41-1,.87.61.77,1.07-.8.85-1,1.01-.89.23-.89.23c0,0,.54-.19.7-1.31Z"/><path class="cls-3" d="M9.55,19.15s2.58-.25,3.07-.7.97-.88.97-.88c0,0-.08-.35-.04-.45s-.91-1.85-.62-1.79.97,1.9,1.26,2.17.61.84.71.78,1.28.35,1.28.35c0,0-1.03-.11-1.67.01s-.66-.16-1.6.16-2.84.62-2.84.62c0,0-1.17.08-.52-.26Z"/><path class="cls-5" d="M15.44,19.1s.54-.24.86.07,1.26,1.29,1.26,1.29c0,0,.37.13.21.26s-.4.17-.4.17c0,0-.54-1.18-1.02-1.52s-.91-.27-.91-.27Z"/><path class="cls-3" d="M17.38,19.58s.43.74.5.91,0,.23.1.29.37,0,.37,0c0,0-.42-.56-.53-.71s-.43-.49-.43-.49Z"/><path class="cls-5" d="M19.97,19.86s.05-.14.36.15.47.63.6.69.35.09.35.09l-.56.04s-.14-.35-.37-.57-.37-.4-.37-.4Z"/><path class="cls-5" d="M20.55,19.45s.52.34.75.6.29.32.29.39,0,.12-.05.12-.33-.5-.53-.67-.47-.43-.47-.43Z"/><path class="cls-3" d="M21.69,20.25s-.59-.78-.68-.8-.32-.19-.4-.2-.23-.18.08-.04.59.39.71.5.4.39.4.39c0,0-.06.33-.11.15Z"/><path class="cls-5" d="M21.95,19.4c-.17-.23-.34-.48-.27-.47.14.04.68.58.74.64s.37.21.26.21-.18-.03-.22,0-.08.11-.08.11c0,0-.28-.3-.43-.5Z"/><path class="cls-3" d="M16.8,16.59s.55.97.64,1.31.42.73.74.82,1.14.03,1.29.04.45-.25.67-.22.92-.39.73-.39-1.28.25-1.73.23-.9-.17-1.24-.64-1.39-1.71-1.09-1.15Z"/><path class="cls-5" d="M23.95,10.09s.78,0,.98.27.27.68.24.86.06.31.06.31c0,0,.15-.23.16-.39s-.07-.72-.46-.96-.98-.08-.98-.08Z"/><path class="cls-6" d="M25.9,14.26s.19.11.34.3c.3.38.56.2.56.2,0,0-.08.42-.53.68,0,0,.06-.34,0-.49.05-.1-.38-.45-.38-.69h0Z"/></svg>