<?xml version="1.0" encoding="UTF-8"?><svg id="Livello_1" xmlns="http://www.w3.org/2000/svg" xmlns:xlink="http://www.w3.org/1999/xlink" viewBox="0 0 23.13 31.69"><defs><style>.cls-1{fill:#925657;}.cls-1,.cls-2,.cls-3,.cls-4,.cls-5,.cls-6,.cls-7,.cls-8,.cls-9,.cls-10,.cls-11{stroke-width:0px;}.cls-12{clip-path:url(#clippath);}.cls-2{fill:none;}.cls-3{fill:#997354;}.cls-4{fill:#6c513c;}.cls-5{fill:#1e171b;opacity:.58;}.cls-6{fill:#873e41;}.cls-7{fill:#222;}.cls-8{fill:#ae9172;}.cls-9{fill:#9b676a;}.cls-10{fill:#fff;}.cls-11{fill:#231c1d;}</style><clipPath id="clippath"><path class="cls-2" d="M4.52,23.18c-.1.35.57.27-.25.8-.89.57-2.17,1.02-2.17,1.02,0,0-.95.42-.16,1.47,1.7,2.25,6.32,4.59,9.92,4.37,3.22-.2,2.85-2.85,3.99-3.12,1.73-.41,2.68-1.24,2.68-1.24,0,0,2.32-3.71.48-5.4-.82-.75-1.53-2.08-1.89-2.52-1.38-1.7-2.95-1.98-2.95-1.98,0,0,.85-.28,1.43-.8,2.11-1.9,6.57-6.56,7.06-8.42.65-2.49-3.41-2.32-7.36.51-1.77,1.27-5.41,6.43-5.54,7.02-.09.45-.56.33-.86-.74-.4-1.41-.71-4.15-1.34-6.25-.94-3.14-2.51-5.02-3.33-6.01C3.51,1,.85-.79.3.8s.16,6.12,1.74,10.32c.31.83.79,1.39,2.97,5,.13.21.51.74.47,1.26-.08,1.17-1.02,3-1.01,3.66.02,2.3.16,1.8.06,2.14Z"/></clipPath></defs><path class="cls-10" d="M4.36,22.94c-.08.46-.38.77-1.51,1.13-.59.18-1.88.55-2.2,1.21-.19.39.22,1.19.73,1.95,1.59,2.32,8.53,5.17,12.03,4.3,2.38-.59,1.6-3.68,2.74-3.95,1.73-.41,2.37-1.11,2.37-1.11,0,0,3.08-2.82.48-5.4-.79-.79-1.53-2.08-1.89-2.52-1.38-1.7-2.95-1.98-2.95-1.98,0,0,.85-.28,1.43-.8.52-.47,2.18-1.6,2.79-2.34.91-1.1,1.54-2.49,2.42-3.27,1.96-1.74,1.86-2.1,2.14-2.8,1.14-2.8-3-3-8.31.45-1.83,1.19-4.61,5.7-4.73,6.29-.09.45-.65.47-.96-.6-.4-1.41-.68-3.97-1.31-6.07-.94-3.14-2.79-5.34-3.75-6.19C2.4-.06.41-.66.11,1.07-.18,2.72.04,6.69,1.62,10.89c.31.83.82,1.5,3,5.11.13.21.64,1.23.6,1.76-.04.57-.46,1.58-.67,2.82s-.15,2.18-.18,2.36Z"/><g class="cls-12"><g id="ic_hare"><path class="cls-4" d="M9.78,15.97s3.17-8.72,10.5-9.91c0,0,1.19-.2,1.59,0,.4.2.59,1.19.2,1.98-.4.79-1.98,1.78-2.58,2.77-1.78,3.37-6.74,5.75-6.74,5.75,0,0,2.38.99,3.17,1.59.79.79,1.39,2.58,1.78,2.77s1.39,1.78,1.39,1.78c0,0,.59,1.39-.4,2.38-.79.99-1.19,1.98-4.16,2.18,0,0,1.39,6.54-.99,10.9-2.38,4.56-2.58,8.32-2.38,11.69,0,0,2.18-.2,2.18,1.78,0,.99,0,1.19-.2,1.19h-1.19s-.2.99-2.77.99-1.39,0-1.39,0c0,0-1.19.2-1.39-1.19h-1.19s.4,1.19-1.59,1.19-5.55,0-7.33-.59c-1.78-.4-3.77-1.19-2.58-2.58.4-.4-.59-.99-.59-.99,0,0-3.37-2.77-2.97-6.54s.2-15.26,11.3-18.23c0,0,1.78,0,3.96-1.19,0,0-.59-2.38.2-4.16.59-1.78.4-2.97.4-2.97C6.02,16.57.07,10.23.67,1.31c-.2-1.98,2.77.4,2.77.4,0,0,3.57,3.17,4.76,11.5,0,1.39,1.59,2.77,1.59,2.77"/><path class="cls-5" d="M14.34,27.07s-1.19,0-1.59-.4c-.4-.2-1.59-.2-1.59-.2,0,0-2.77.2-3.37-.4,0,0,.79.59,4.16.79,0,0,1.19.4,1.39,1.39s.2,2.58,0,3.77.4,3.17.79,3.37,1.78-5.75.2-8.32h0Z"/><path class="cls-11" d="M17.51,22.32s.4,0,.79.2.59,0,.59,0c0,0,.4.79.2,1.39,0,0-.2-.59-.4-.79,0-.2-.99-.4-1.19-.79h0Z"/><path class="cls-8" d="M13.55,21.13s.4-1.59-.79-2.18c-1.19-.59-1.98,0-1.98,0,0,0-.4.99.59,1.78-.2-.2.59.4,2.18.4h0Z"/><path class="cls-7" d="M13.35,20.93s.4-1.39-.59-1.78-1.59,0-1.59,0c0,0-.4.99.59,1.59-.4-.4.2.2,1.59.2Z"/><circle class="cls-10" cx="11.37" cy="19.94" r=".2"/><path class="cls-3" d="M12.36,16.17s.2-6.14,6.54-9.12c2.77-1.19,2.58-.4,2.58-.4,0,0,.59.99-1.59,2.18-.59.4-1.59,1.78-1.98,2.77-.4.99-5.55,4.56-5.55,4.56Z"/><path class="cls-3" d="M6.61,16.17h.59s-.59-.99-.59-3.96S3.84,3.29,2.85,2.3s-.99-.79-.99-.79c0,0-.4,0-.4.4s-.59,7.33,5.15,14.27h0Z"/></g><path class="cls-2" d="M4.52,23.18c-.1.35-.68.76-1.64,1s-1.37,0-1.37,0c0,0-.95.28.43,2.3,1.59,2.32,7.89,3.81,11.49,3.49,1.8-.16,1.59-2.11,2.73-2.38,1.73-.41,2.37-1.11,2.37-1.11,0,0,2.32-3.71.48-5.4-.82-.75-1.53-2.08-1.89-2.52-1.38-1.7-2.95-1.98-2.95-1.98,0,0,.85-.28,1.43-.8,2.11-1.9,6.57-6.56,7.06-8.42.65-2.49-3.41-2.32-7.36.51-1.77,1.27-5.41,6.43-5.54,7.02-.09.45-.56.33-.86-.74-.4-1.41-.71-4.15-1.34-6.25-.94-3.14-2.51-5.02-3.33-6.01C3.51,1,.85-.79.3.8s.16,6.12,1.74,10.32c.31.83.79,1.39,2.97,5,.13.21.51.74.47,1.26-.08,1.17-1.02,3-1.01,3.66.02,2.3.16,1.8.06,2.14Z"/></g><circle class="cls-9" cx="10.75" cy="28.66" r="1.99"/><circle class="cls-1" cx="10.75" cy="28.66" r="1.45"/><circle class="cls-6" cx="10.75" cy="28.66" r=".9"/><circle class="cls-9" cx="7.43" cy="26.25" r="1.67"/><circle class="cls-1" cx="7.43" cy="26.25" r="1.22"/><circle class="cls-6" cx="7.43" cy="26.25" r=".76"/></svg>