<?xml version="1.0" encoding="UTF-8"?><svg id="Complications" xmlns="http://www.w3.org/2000/svg" viewBox="0 0 32 32"><defs><style>.cls-1{fill:#a09da2;}.cls-1,.cls-2,.cls-3,.cls-4,.cls-5,.cls-6,.cls-7,.cls-8,.cls-9,.cls-10,.cls-11,.cls-12,.cls-13,.cls-14,.cls-15,.cls-16,.cls-17,.cls-18,.cls-19,.cls-20,.cls-21,.cls-22,.cls-23,.cls-24,.cls-25,.cls-26,.cls-27,.cls-28,.cls-29,.cls-30{stroke-width:0px;}.cls-2{fill:#5e6373;}.cls-3{fill:none;}.cls-4{fill:#b69c8b;}.cls-5{fill:#bdbdbb;}.cls-6{fill:#81645e;}.cls-7{fill:#e6d0bf;}.cls-8{fill:#aa8275;}.cls-9{fill:#969188;}.cls-10{fill:#919396;}.cls-11{fill:#c7c7c7;}.cls-12{fill:#1d1c19;}.cls-13{fill:#a7a39f;}.cls-14{fill:#484a5a;}.cls-15{fill:#714f49;}.cls-16{fill:#4d5260;}.cls-17{fill:#75767b;}.cls-18{fill:#f4eff7;}.cls-19{fill:#d9c0ad;}.cls-20{fill:#8f6f68;}.cls-21{fill:#3b312c;}.cls-22{fill:#98999a;}.cls-23{fill:#585d6b;}.cls-24{fill:#b8b8b9;}.cls-25{fill:#fff;}.cls-26{fill:#ccc9cf;}.cls-27{fill:#4d4d4b;}.cls-28{fill:#916b60;}.cls-29{fill:#c4a090;}.cls-30{fill:#312923;}</style></defs><rect class="cls-3" width="32" height="32"/><path class="cls-25" d="M30.76,15.9l-.15-4.6c-.04-1.21-.3-2.11-.78-2.72-.2-.28-.57-.66-1.46-.8-.82-.13-3.45-.02-3.73,0l-3.18.04c-.45-.23-.95-.29-1.45-.16-.18.05-.38.11-.58.18h-.68s0-.01,0-.03c.09-.37.28-1.13-.35-1.51-.43-.26-.96-.1-1.68.12-.27.08-.57.18-.89.25-.48.11-.56.11-.63.1-.14-.01-.29-.02-.58.02-.56.08-1,.1-1.66.1-.92,0-1.76-.05-2.5-.16-1.08-.15-2.51-.05-3.07,0-.3.03-.56.17-.72.41-.09.14-.15.3-.17.48h-.2c-.23-.04-2.27-.35-3.5.68-.56.47-.85,1.15-.85,1.97v4.48c-.23.1-.43.24-.54.48,0,.02-.02.04-.03.06-.27.18-.63.46-.96.89-.47.62-.46,4.22,0,10.69.02.34.31.61.65.61h11.33c11.97-.25,18.19-.42,18.5-.51.59-.17.84-.24.97-8.4v-.26c.03-1.4-.66-2.1-1.14-2.42Z"/><path class="cls-28" d="M16.99,8.52l7.66-.1s2.84-.12,3.62,0,.97.46,1.05.57.58.64.64,2.32.17,4.98.17,4.98c0,0,1.16.38,1.13,2.01s-.11,7.93-.5,8.04-18.34.49-18.34.49H1.1s-.07-2.5-.15-5.18c-.06-2.24-.18-4.68.21-5.13.86-.99,1.45-1.13,1.45-1.13v-5.11c0-2.61,3.58-2.01,3.58-2.01l10.78.26Z"/><path class="cls-15" d="M2.62,15.99s-2.26.35-.56.94,2.52,1.25,3.77,1.02,2.6,2.01,2.83,2.65,1.13,1.06,1.85.5,3.64-1.67,4.42-1.9,1.62-.66,2.26-1.26,1.64-1.05,2.86-.74,2.01.4,2.75.38,2.82.15,3.19,0,1.12-.98,1.99-.98,2.86-.15,2.09-.32-1.48-1.93-1.48-1.93l-16.82.88-9.14.75Z"/><path class="cls-8" d="M7.75,12.41l.17-.47-.52-3.25s-.58-1.24.05-1.3,1.96-.14,2.92,0,1.91.17,2.59.17,1.14-.03,1.75-.11.3.1,1.27-.13,1.8-.62,2.08-.45.06.69,0,1.02-.22,1.46-.22,1.45-1.38,1.43-1.38,1.43l-3.77,1.65-2.31,1.43-2.18-.08-.44-1.35Z"/><path class="cls-28" d="M9.73,10.08s1.74-.92,2.55-.44,2.61.62,3.15.37,1.92-1.09,2.17-.88.61.49.61.49l-2.46,2.3s-4.93,1.36-5.05,1.42-1.87-.05-1.87-.05c0,0,.23-2.75.9-3.2Z"/><path class="cls-15" d="M12.97,19.91s1.55-.36,1.96-.69,1.54-1.75,2.26-2,2.69-.35,3.34-.32,1.19.29,1.47.32,1.72.16,1.85,0,.75-1.92.62-1.98-1.96-1.28-1.96-1.28l-5.16,1.09-2.63.85-1.75,4Z"/><path class="cls-29" d="M22.51,16.15s-.27,1.39,0,1.56,2.01-1.11,2.4-1.38,2.52-1.04,3.1-1.43,1.41,1.07,1.55-.47-1.31-3.23-1.95-3.72-1.2-.79-1.31-.75-1.62.19-1.76.35-.79.78-.79.78l-1.42,1.38-.63.98.8,2.71Z"/><path class="cls-8" d="M22.54,14.14s.85.98.92.56.21-1.65.4-1.34.83.05.83.05c0,0-.08-.32.19-.39s.41.02.77.23.47.23.5.59.11.53.19.27-.25-1.08-.47-1.34.06-.77.3-.67.47.02.3-.2-1.43-1.2-1.43-1.2l-2.05,2.16s-.37.86-.46,1.28Z"/><path class="cls-4" d="M23.6,9.75s0-.18-.18,0-.31.31-.42.32-.03.13.07.15.69-.34.69-.34l-.16-.13Z"/><path class="cls-23" d="M13.02,17.19s.81,1.47,1.91,1.37c0,0-.67-2.65-1.44-3.24s-.8-.64-.8-.64l.33,2.51Z"/><path class="cls-2" d="M12.28,9.64s-.09-.33-.23-.27-.6.46-.58.89-.17.44-.32.75-.74.9-.42,1.06,1.37.43,1.73,1.37.84,1.47.95,2.09.5.94.57,1.55.27,1.19.64,1.41,1.72-.07,1.69-1.41.07-1.72-.07-2.51-.23-3.01-.7-3.41-2.07-.96-2.07-.96l-1.18-.57Z"/><path class="cls-13" d="M18.5,8.93s-.81.11-1.2.32-1,.8-1.39.76-.6-.64-1.58-.6-1.54-.04-1.83.17c0,0,.33.04.95.2s1.85.72,2.13,1.65.25,1.58.34,2.04.3,1.59.32,1.88.01.4.01.4l1.1-.69.97-1.97.19-4.16Z"/><path class="cls-5" d="M17.41,13.19s-.2.56-.33.85-.19.72-.36,1.24-.39.85-.19,1.06.55.65,1.68.13.74-2.14.74-2.14l-1.54-1.14Z"/><path class="cls-13" d="M18.07,14.58s.16.46.3.61.31.23.37.51-.27.56-.27.56c0,0,.33-.15.42-.32s.28.02.29.13-.1.35-.1.35l.5-.1s-.1-.84-.4-1.1-1.12-.64-1.12-.64Z"/><path class="cls-5" d="M22.9,14.81s-.11.61-1.1.94-1.34.4-1.34.4c0,0-1.54.29-2.21.46s-.96.09-1.07.05.73.13,1.11-.39.56-.89.56-.89l1.58-.78s.54-.08.96,0,.83-.11.83-.11l.66.32Z"/><path class="cls-9" d="M21.18,9.45l-2.36,1.85s-.14,1.02.15,1.82,1.02,1.14,1.02,1.14c0,0-.65.28-.14.14s-.15-.21,0,0,.46.56.14.52.41-.3,0,0,1,.16,1.11.24-.22-.4-.31-.48.49-.08.75.15.74.28.74.28c0,0-.4-.13-.6-.31s.51,0,.73.08.11-1.31.11-1.31l-1.32-4.12Z"/><path class="cls-9" d="M19.98,14.26s.08.08.22.21.32.2.33.61-.81.39-1,.39.38.3.38.3c0,0-.21.42-.72.13s-.23-.27-.58-.63,1.38-1.02,1.38-1.02Z"/><path class="cls-11" d="M19.34,15.95s.19.14.74-.1.81-.79.54-1.1-.41-.28-.41-.28c0,0,.34.18.16.6s-1.08.14-1.08.14c0,0,.72.16.92-.15s-.05-.54-.3-.91-.36-.63-.36-.63c0,0-.72-1.64-.63-2.1s-.49-.84-.95-.83-1.41.14-1.03,1.35.32,1.35.62,1.85.48.7.65,1.04,1.08,1.01,1.34.98-.06.18-.21.14Z"/><path class="cls-9" d="M21.17,9.64s.17-.51-.06-.88-.72-.39-1.14-.25-1.47.43-1.47.43c0,0-.31.39-.65.74s-1.16,1.11-1.13,1.46.21.81.21.81c0,0-.15-.53.07-.59s.44-.09.6-.26.86-.1,1.05.19.06-.28-.37-.46.34-.19.52.47.29-.51,1.2-1.03,1.12-.46,1.16-.63Z"/><path class="cls-11" d="M21.17,9.64s-1,.85-1.32,1.07-.85.86-.9,1.02l-.09-.16s0-.74-.67-.95.37-.09.52.09-.18-.37-.54-.41.42-.17.8-.13,1.4-.51,1.71-.5.5-.04.5-.04Z"/><path class="cls-17" d="M19.98,12.36s-.37.7-.35.87.17.67.51.85.97.17,1.19.09.15.35.63.54.89.42,1.04.18.12-.49.28-.47-1.94-2.78-1.94-2.78c0,0-.52-.59-.72-.54s-.65,1.26-.65,1.26Z"/><path class="cls-17" d="M24.22,12.57s.17.55-.14.64-.48.09-.51.55-.99-1.17-1.06-1.6,1.71.42,1.71.42Z"/><path class="cls-17" d="M22.1,9.14s-.3-.25-.54-.46-.71-.58-1.39-.4-1.67.65-1.67.65c0,0,.52,0,.82-.11s1.57-.56,1.71.07-.15,1.37-.44,1.81-.19,1.07-.19,1.07c0,0-.1-.53.6-.73s1.59-1.58,1.09-1.9Z"/><path class="cls-10" d="M23.46,14.44s-.49-.04-.65-.22-.36-.03-.72-.25-.97-1.48-.86-2.16.81-.73.81-.73c0,0,.27,1.12.74,1.64s1.1,1.57.7,1.71Z"/><path class="cls-7" d="M25.89,10.76s.1.23.09.49-.14.57-.36.76-.52.29-.66.4-.42.21-.71.24-.74.2-1.09.08-.47-.2-.61-.43.43-.67.43-.67c0,0,2.16-1.15,2.17-1.15s.52-.15.73.29Z"/><path class="cls-19" d="M25.89,10.76s-.23-.52-.6-.67-.71-.1-.99-.18-.68-.07-.93.09-.68.49-.77.65-.14.72-.2.9.12.75.22.82.43-.14.41-.34.09-.03.14.13.16.13.15-.02.04-.02-.03-.26.35-.33.39-.17.05.17.11.17.07-.13.18-.12.22.03.26-.07.3-.22.43-.26.41-.12.51-.17.08-.19.04-.26.17-.46.32-.44.37.18.37.18Z"/><path class="cls-21" d="M24.49,10.29s.27.14.36.27.16.35.21.43-.05.09-.11.1-.11-.16-.15-.28-.06-.24-.13-.33-.27-.24-.18-.19Z"/><path class="cls-21" d="M25.25,11.52s-.03-.06-.11-.03-.07.09-.03.18.14.27.1.39-.05.15-.08.17.06,0,.12-.14.07-.17.05-.37c0,0-.02-.16-.05-.19Z"/><path class="cls-4" d="M25.01,11.12s.16.01.22-.11.02.05-.01.08-.06.07-.13.08-.14-.02-.14-.05c0-.01.05,0,.05,0Z"/><path class="cls-21" d="M23.89,11.5s.09,0,.12.07-.01.09-.05.07-.03-.08-.06-.11-.02-.06,0-.03Z"/><path class="cls-21" d="M24.11,11.91s0-.06-.04-.05-.03.07-.04.1.02.03.05.01.03-.06.03-.06Z"/><path class="cls-21" d="M23.36,11.39s-.02-.07-.07-.07-.04.04.01.09.12.11.19.28-.13-.29-.13-.29Z"/><path class="cls-21" d="M23.66,12.28s.02.02.02.04-.02.01-.02,0,0-.02,0-.04.01,0,.02,0Z"/><path class="cls-20" d="M23.66,12.28s-.03-.18-.08-.3-.03-.2-.08-.33-.22-.28-.22-.28c0,0,0,.13.01.25s.04.35.12.46.14.16.19.18.06.06.06.02Z"/><path class="cls-6" d="M23.36,11.39s.2.2.26.26.04.1.08.2.05.12,0,.26-.02.23-.05.17-.05-.17-.09-.26-.04-.24-.08-.33-.12-.21-.13-.29Z"/><path class="cls-30" d="M25.94,11.28s-.02.36-.21.56-.58.39-.69.49-.66.3-.78.32-.03.13.11.18-.02.11-.16.04-.18-.14-.18-.14c0,0,.17.27.43.15s.63,0,.78-.26,0,.14-.17.27-.02.28-.35.33-.54-.23-.54-.23c0,0,.21.42.71.25s.1-.36.68-.61c0,0,.3-.11.4-.4s.41-.3.46-.58.29-.29.18-.57-.78-.33-.78-.33c0,0,.06.14.12.21s-.04.1,0,.33Z"/><path class="cls-12" d="M25.76,10.62s-.27-.46-.66-.51-.85,0-1.06-.08-.66.02-.81.12.01-.14.14-.24.34-.16.26-.34-.43-.11-.67.13-.23.48-.23.48c0,0-.11-.36.41-.69s.71.04.71.04c0,0-.09-.26-.46-.29s-.44.36-.39.55c0,0-.07-.72.52-.57s.82-.04,1.05-.13.38-.08.66.1.73.1.94.41.33.2.34.56.16.52.16.8-.34.22-.51.26-.29-.28-.29-.28c0,0,.13.18.32.13s-.25.04-.42-.45Z"/><path class="cls-4" d="M23.93,11.28s-.11-.02-.14.08.07.21.1.27.04.14.04.14c0,0-.05.02-.07.05s.04-.06-.03-.22-.18-.33.1-.33Z"/><path class="cls-19" d="M23.93,11.78s.01.07,0,.13,0,.18.09.21.13-.03.13-.03c0,0-.08.09-.16.05s-.09-.17-.1-.22-.02-.05-.02-.09.07-.05.07-.05Z"/><path class="cls-27" d="M22.06,9.06s.2-.13.31.1.57.53.29.79-.35.95-.64,1.14-.16.48-.49.64-.25.63-.54.93-.5-.96-.26-1.29-.38-.01-.34.4c0,0-.15-.39.32-.75s.87-1.05,1.05-1.35.09-.5.29-.62Z"/><path class="cls-17" d="M22.71,9.85s.19.19.29.22.01.2-.2.39-.24.37-.27.58-.16.64-.07.95.26.69.56.97.79.77.69,1.28c0,0,.14-.34-.49-1s-1.2-.94-1.35-1.56.19-.51.35-1.08.48-.75.48-.75Z"/><path class="cls-22" d="M21.86,11.28s-.22.42.15,1.08,1.07,1.13,1.17,1.59.32.68.54.29c0,0,.25-.43-.95-1.52s-.5-2.06-.5-2.06c0,0-.35.37-.41.61Z"/><path class="cls-27" d="M21.53,11.6s-.28.3.01,1.01.65.94.65.94c0,0-.84-.28-.96-1.54s.5-.76.3-.41Z"/><path class="cls-27" d="M21.16,12.41s-.04.37-.16.56.42,1.02.42,1.02c0,0-.57-.54-.56-.91s-.12-.55-.12-.55l.42-.11Z"/><path class="cls-27" d="M20.41,11.78s.18.74.27,1.03-.31-.21-.36-.65-.26.41-.12.86.38.7.38.7c0,0-.56-.55-.59-1.2s.48-1.51.48-1.51c0,0-.09.35-.05.76Z"/><path class="cls-19" d="M19.78,8.99s-.02-.09.08-.08.3.05.41.08.26.23.35.33.04.18.06.47.06.38,0,.56-.15.72-.28.92-.33.6-.33.6c0,0-.64-.22-.77-.22s-.09-.35.1-.78.16-.64.13-.73,0-.25-.12-.35-.17-.19-.26-.23-.11-.06-.1-.16.08-.07.08-.07c0,0-.09,0-.08-.13s.2-.07.2-.07c0,0-.02-.1.08-.12s.31-.06.42-.02Z"/><path class="cls-4" d="M19.78,8.99s.24.13.35.16.19.11.24.34.15.58.15.58c0,0-.09-.38-.11-.55s-.08-.31-.2-.37-.43-.16-.43-.16Z"/><path class="cls-4" d="M19.28,9.13s.29.05.4.1.3.11.36.32.12.47.12.47c0,0-.06-.39-.12-.57s-.04-.16-.2-.22-.56-.1-.56-.1Z"/><path class="cls-4" d="M19.15,9.33s.27.09.4.16.17.1.25.31.13.36.13.36c0,0-.08-.38-.13-.49s-.06-.15-.24-.24-.41-.11-.41-.11Z"/><path class="cls-4" d="M19.56,10.38s.06.38-.03.54-.18.72-.02.77.23.08.23.08c0,0-.41-.1-.49-.1s-.08-.29.09-.64c0,0,.15-.36.21-.65Z"/><path class="cls-4" d="M19.58,15.97s-.12.02-.24-.02-.15-.04-.15-.04c0,0,.14.26.1.36s-.13.27-.1.35.18.07.18.07c0,0,.32-.52.21-.72Z"/><path class="cls-19" d="M19.59,16.56s-.03-.02-.07.06c-.04.08-.21.08-.27.02-.06-.06.12-.17.18-.3.06-.13-.02-.34.15-.37.18-.03.58-.21.76-.43.18-.22.45-.54.27-.79,0,0,.23.02.37.17.14.15.33.3.45.36.1.05.07.17-.11.22h0s0,0,0,0c-.17.03-.24-.06-.4-.13-.16-.07-.24-.26-.23-.21l.03.13s.02.17,0,.28c-.02.11.04.32.09.5.05.17-.06.27-.15.31-.08.05-.15,0-.19-.1,0,0-.04-.15-.12-.33-.08-.18.05.15.05.24,0,.07-.03.13-.04.15-.04.08-.13.18-.23.2-.13.03-.07-.06-.24.04-.16.1-.31-.03-.31-.03Z"/><path class="cls-24" d="M20.08,11.88s.22.06.17.17-.42.85-.47,1.02-.23.45-.23.45c0,0-.22-.26-.34-.6s-.22-.96-.22-.96l.41-.2.68.11Z"/><path class="cls-9" d="M18.85,11.57s.89.13,1.22.31-.3-.08-.58-.05-.02.12.18.25.31.28.31.28c0,0-.3-.17-.47-.16s-.06.18-.19.33-.11.38-.11.38c0,0-.39-1.08-.36-1.35Z"/><path class="cls-14" d="M12.5,9.58l-.23.06s.1.56.31.7.1.17.22.39.34.22.45.67.32.66.57.99,1.49,1.76,1.67,2.53.17,1.32,0,1.61c0,0,.48-.69.09-1.83s-.77-2.12-.66-2.92.65-.35.65-.35c0,0-.06-.74-1-1.3s-1.68-.62-2.08-.54Z"/><path class="cls-4" d="M20.02,16.2s0,.34.11.36c0,0-.05.03-.09.01s-.1,0-.12.01.04-.03.05-.1.01-.22.01-.28.04-.08.03,0Z"/><path class="cls-4" d="M20.37,16.35s.03-.08.04-.15c0-.1-.13-.43-.05-.24.08.18.12.33.12.33-.04-.1-.05-.07-.08,0,0,.02-.02.03-.03.05Z"/><path class="cls-4" d="M21.31,15.5s-.05.01-.07.01c-.24.03-.49-.19-.51-.22,0,0,0,0,0,0l-.03-.13c-.01-.05.07.14.23.21.16.07.23.16.4.13Z"/><path class="cls-12" d="M24.65,11.11s-.05-.25-.13-.32-.21-.23-.22-.32.01,0,.08.07.29.3.27.57Z"/><path class="cls-12" d="M24.81,11.75s.09.16.07.27,0,.17,0,.17v.08s.2-.23-.07-.53Z"/><path class="cls-26" d="M4.34,15.07s-.8-.24-.9-.2-.47.2-.53.26-.8.18-.88.36-.42.71-.35.8.26.26.41.25.45-.15.72-.12,1.04,0,1.04,0l.5-1.36Z"/><path class="cls-1" d="M4.12,15.24s-.38.33-.43.51-.37.52-.46.56-.74.13-.58.13h1.2l.27-1.19Z"/><path class="cls-18" d="M7.42,12.97s-.56-.18-.83.03-1.43,1.11-1.62,1.31-1.02,1.08-1.09,1.23-.24.87-.12.98,1.04.19,1.33,0,.83-.67,1.1-.98,1-.75,1-.75l.22.02v-1.85Z"/><path class="cls-26" d="M4.3,16.09s.36.15.61,0,.7-.78,1.01-1.02.39-.04.39-.04c0,0-.13-.43,0-.35s.21.14.21.14c0,0-.12-.33,0-.24s.18.19.21.19.22-.08.22-.08l.09-.19.37.33-.92.54-1.18,1.08-.78.19s-.4-.23-.23-.53Z"/><path class="cls-2" d="M3.69,16.83s.15-.07.19-.2.1-.09.29-.26.57-.02.57-.02c0,0,.12-.13.28-.15s.38,0,.38,0c0,0,.53-.58.76-.81s.78-.69.9-.64.35.08.35.08c0,0-.15-1.02-.08-1.27s-.03-.56.19-.65,1.01-.26,1.2-.26.78.14.85.17.41.09.41.09l.62-.09s-.18-.65.58-1.71,1.59-1.2,1.71-1.22.95.21,1.05.26.85.29.85.29l-.09,1.03s1.19,1.34,1.44,2.5.12,2.22.12,2.35-.2,1.11-.61,1.47-1.68,1.8-1.9,1.99-1.01.74-1.34.85-1.69.42-1.91.5-1.08.33-1.14,0-1.26-2.46-1.43-2.63-.21-1.3-.53-1.26-.8.11-1.46.14-.84-.12-1.1-.25-1.16-.29-1.16-.29Z"/><path class="cls-14" d="M7.37,15.35h-1.06s.44-.35.53-.44.34-.12.34-.12c0,0,.33.29.19.56Z"/><path class="cls-14" d="M7.75,16.43s-.32-1.14-.35-1.29-.28-1.19-.25-1.36,0-.52.19-.74c.02-.03.05-.06.08-.08.19-.16.44-.25.44-.25,0,0-.1.16-.26.48s-.18.94-.03,1.31.58,1.38.57,1.48-.38.45-.38.45Z"/><path class="cls-23" d="M7.59,12.99l.26-.27s.32-.07.73-.15.75.11.8.15.35.17.35.17c0,0-.63-.13-1.13.05s-.48.09-.64.23-.38.39-.32.21.2-.34.22-.41-.27.03-.27.03Z"/><path class="cls-14" d="M7.47,13.76s.31.5.43.64.19.23.49.26.59.16.95.14.93-.07.86-.02-.49.15-.72.18-.45-.01-.51.06-.61.41-.66.52-.05.49-.13.29-.59-1.34-.61-1.45-.15-.62-.09-.61Z"/><path class="cls-14" d="M8.73,14.31s-.53-.43-.54-.55.01-.43.1-.48.07.53.21.37.32-.82.32-.38.01.87.28.87,1.13.02,1.24.03.68.38,1.27.46,1.18.2,1.31.29,1.15.78.98.69-.84-.4-.95-.46-1.2-.3-1.39-.37-1.12-.29-1.63-.31-1.21-.18-1.21-.18Z"/><path class="cls-16" d="M10.69,12.72s1.36-.06,1.63-.06.83.35,1.19.34,1.15.33,1.15.33c0,0-.58-.48-1.2-.61s-2.1-.34-1.35-.35,2.72.27,2.79.35.77.05-.07-.23-3.16-.33-3.13-.39,1.68-.28,1.87-.25.73-.46-.39-.38-1.8.39-1.92.49-.17.13-.19.3-.37.47-.37.47Z"/><path class="cls-16" d="M12.49,10.96s1.12-.22,1.31-.09.48.48.26.36-1.57-.27-1.57-.27Z"/><path class="cls-16" d="M12.81,15.39s.69.86,1.27.85,1.51.01,1.32.17-.53.08-.54.2.01.62-.44.6-1.02.16-1.22-.23-.39-1.59-.39-1.59Z"/><path class="cls-16" d="M10.35,20.6s.06-3.16,0-3.38-.09-.84-.27-.62-.68,1.23-.47,1.07.65-.35.58-.15-.08,3.34.15,3.08Z"/><path class="cls-14" d="M7.4,17.22s0-.16.05-.26.19-.41.19-.41c0,0-.26-.06-.49-.06s-.57-.49-.61-.61-.3-.08-.16.15.46.5.34.52-.54-.05-.66,0-.46.15-.09.14.93-.09,1.07-.01.37.54.37.54Z"/><path class="cls-16" d="M4.65,16.9s-.48-.66-.49-.54,0,.2-.03.26-.19.28-.19.28h.7Z"/><path class="cls-8" d="M22.93,16.83s.77-.54,1.25-.9,1.16-.6,1.69-.74,1.33-.5,1.47-.58,1.08-.21,1.24-.24.64-.09.61.13-.33.23-.53.2-1.85.25-2.13.5-1.55.68-1.66.74-1.2.82-1.2.82c0,0-.99.37-.74.08Z"/></svg>