<?xml version="1.0" encoding="UTF-8"?><svg id="Livello_1" xmlns="http://www.w3.org/2000/svg" viewBox="0 0 26.85 25.99"><defs><style>.cls-1{fill:#333132;}.cls-1,.cls-2,.cls-3,.cls-4,.cls-5,.cls-6,.cls-7,.cls-8,.cls-9,.cls-10,.cls-11,.cls-12,.cls-13,.cls-14{stroke-width:0px;}.cls-2{fill:#f1e9dc;}.cls-3{fill:#c3aa96;}.cls-4{fill:#777173;}.cls-5{fill:#b6a08d;}.cls-6{fill:#423e3f;}.cls-7{fill:#a68c79;}.cls-8{fill:#524d51;}.cls-9{fill:#545051;}.cls-10{fill:#f9f7f8;}.cls-11{fill:#353132;}.cls-12{fill:#656162;}.cls-13{fill:#2b2829;}.cls-14{fill:#5b595a;}</style></defs><path class="cls-14" d="M16.8,22.4s3.49,1.51,3.74,1.73.92.96.58,1-.83-.18-.83-.18c0,0,.58.52.11.46s-2.29-1.27-2.63-1.17.09.61.25.75.69.9.22.82-.69-.44-1.05-.68-.83-.5-1.27-.6-.51-.13-.9-.15-.65-.1-.76-.38,2.52-1.59,2.52-1.59Z"/><path class="cls-6" d="M20.01,25.05s-1.47-.78-1.75-.91-1.35-.54-1.39-.42.86.87.86.87c0,0-.15-.38.07-.35s1.24.51,1.24.51l1.39.66-.41-.36Z"/><path class="cls-14" d="M22.24,18.94s3.67,2.13,3.93,2.35.92.96.58,1-.83-.18-.83-.18c0,0,.58.52.11.46s-2.29-1.27-2.63-1.17.09.61.25.75.69.9.22.82-.69-.44-1.05-.68-.83-.5-1.27-.6-.51-.13-.9-.15-.65-.1-.76-.38,2.33-2.21,2.33-2.21Z"/><path class="cls-6" d="M25.63,22.2s-1.47-.78-1.75-.91-1.35-.54-1.39-.42.86.87.86.87c0,0-.15-.38.07-.35s1.24.51,1.24.51l1.39.66-.41-.36Z"/><path class="cls-3" d="M13.71,13.42l2.5-2.35.49,3.45s-.31,2.76,0,4.04-.26,2.43,0,2.83,1.05,1.19,1.05,1.19c0,0-.64-.36-.64,0s.08.79.08.79c0,0-.4-.76-.35-.49s-.17.86-.17.86c0,0,0-.88-.1-.64s-.35.64-.35.64c0,0-.12-.73-.15-.61s-.08.97-.08.97c0,0-.2-.92-.26-.69s0,.69,0,.69c0,0-.3-.52-.3-.37s-.02.54-.02.54c0,0-.32-.47-.3-.27s-.03.37-.03.37c0,0-.48-.45-.48-.73s-.75-4.21-.75-4.21c0,0-.2-5.71-.13-6.03Z"/><path class="cls-7" d="M22.23,9.04s-.47,2.08-.49,2.45,0,.63,0,.63c0,0-.44-.88-.43-.62s-.04,1.37-.04,1.37c0,0-.31-.67-.27-.23s.08.95.08.95c0,0-.26-.63-.31-.38s.67,2.19,1.05,3.09c.19.45.15.62.88,1.64.09.12.55,1.28.56,1.35.02.22-.5-.3-.5-.3l.27.56s-.48-.46-.47-.14.02.52.02.52c0,0-.33-.58-.4-.37s-.28.87-.28.87c0,0-.09-.55-.2-.5s-.2.78-.2.78c0,0-.18-1-.28-.68s-.15.9-.15.9c0,0-.52-.53-.52-.35s0,.68,0,.68c0,0-.54-.55-.55-.41s.17.57.17.57c0,0-.12-.41-.26-.28s-.39-.15-.32-.47c.02-.1-.09-.44-.25-.87-.05-.14-.23.35-.22.19.04-.71.05-.48-.01-.63-.07-.16-.25-.23-.32-.38-.25-.58-.47-1.59-.47-1.59l-.27.33s.11-.72.04-1.2c-.15-.95-.21-1.02-.31-1.14s-.27-1.57-.26-1.72-.43-.12-.48.07-.42.25-.42.25c0,0-.12-3.59,0-3.62s2.66-2.32,2.66-2.32l2.97,1Z"/><path class="cls-2" d="M22.23,9.04l-1.66,1.68s.13-.87-.21-.62-1.12.95-1.12.95c0,0-.22-.9-.32-.65s-.7.85-.7.85c0,0-.11-.7-.47-.2s-.88-.33-.88-.33l2.39-2.68,2.27.13.7.87Z"/><path class="cls-5" d="M9.07,9.56s1.07,2.26,1.44,3.18.49,2.06.49,2.06c0,0-.23-.57-.28-.2s.28,1.54.28,1.54c0,0-.2-.27-.28,0s.29,1.57.47,2.04.02,1.9.02,1.9l-4.51-1.37L3.56,7.76l1.66-2.72,8.59-.96,3.61-.14.78,1s1.19,1.94,1.41,2.64,1.47.43,1.47.43c0,0-3.31,2.75-3.7,3.58s-.68,2.95-.68,2.95l-.53-1.21s-1.07,2.59-1.07,2.56-.29-1.64-.29-1.64c0,0-1.1,2.57-.7,3.73s.5,2.12.5,2.12c0,0-1.01-.46-.5-.23s.7,2.87.79,3.13.34.9.34.9c0,0-.77-.43-.87-1.67s-1.96-6.72-1.83-7.39,0-.91,0-.91c0,0,.33-1.37.38-1.51s.87-1.99.87-1.99c0,0-1.84.15-2.23.05s-1.38.05-1.38.05l.53-.48-.97.15-.68-.6Z"/><path class="cls-14" d="M10.14,21.03s3.14,1.36,3.37,1.56.83.87.52.9-.74-.16-.74-.16c0,0,.52.47.1.41s-2.06-1.15-2.37-1.05.08.55.23.68.62.81.2.74-.62-.39-.94-.62-.75-.45-1.15-.54-.46-.11-.81-.14-.59-.09-.68-.35,2.26-1.43,2.26-1.43Z"/><path class="cls-6" d="M13.02,23.42s-1.33-.7-1.58-.82-1.21-.49-1.25-.38.77.78.77.78c0,0-.14-.34.06-.32s1.12.46,1.12.46l1.25.6-.37-.32Z"/><path class="cls-7" d="M10.57,22.07s-.06-.64-.18-.48-.88.8-.88.69.34-1.04.07-.71-.54.97-.67,1.12-.21.2-.47.18-.44.05-.59-.25-.51-1.36-.51-1.36l-.1.63s-.41-.33-.27-.72,1.02-2.17,1.02-2.17l-.58.36s.31-1.09.39-1.73.12-3.21.05-3.4.68,1.1.89,1.38-.12,0-.23.14,1.19,2.35,1.19,2.54-.17-.2-.12.26.03.83.14.66.6-1.53.6-1.53c0,0,.24.78.12,1.13s-.32.91,0,.64.74-1.3.74-1.3c0,0,.13.86,0,1.23s-.16.86.02.67c.09-.1.32.63.14,1.15s-.78.84-.78.84Z"/><path class="cls-3" d="M18.15,2.84s-2.39.27-3.19.29-2.1-.53-2.1-.53c0,0,.45.31,0,.53s-1.45-.26-1.45-.26c-.65.18-4.81-.3-6.21-.26s-2.55.29-2.55.29c0,0,.95-.03.55.24s-1.73.72-1.73.72c0,0,.7-.05.23.28S-.14,5.08.01,7.33s.4,2.9.4,2.9c0,0,0-.95.13-.8s.4,1.48.4,1.48c0,0-.13-.85.1-.7s1.5,2.38,1.5,2.38c0,0-.1-.8.15-.6s.48,1.7.7,2.08-.21,1.64,0,2.1c.3.67.61,1.85.52,2.84-.08.9-.29,1.51-.33,1.65-.1.4,1.51,3.12,2.72,1.92s1.05-1.22,1.42-2.28c.06-.18.62-1.47.83-2.09.1-.28,0,.84.1.52.11-.35.56-1.78.65-2.15.22-.93.24-2.14,0-2.84-.46-1.34-2.28-4.54-2.57-6.17-.1-.56.56-.84.73-.92.67-.32.9-.5.9-.5l-.6.74s2.04-.42,2.84-.74,2.6-1.41,2.6-1.41l-.7.91,2-1.11-.47.76,2.64-.67-.5.87,2.74-.76-.77-1.88Z"/><path class="cls-7" d="M26.36,3.63s.03,1.19,0,1.63-.61,1.81-.61,1.81c0,0,.08-.48-.07-.37s-.66,1.11-1.24,1.54-1.55.58-1.55.58c0,0,.23-.31.05-.27s-.9.62-1.3.46-1.98-1.05-1.81-.77.36.45.36.45c0,0-.71-.33-.93-.66s-.48-1.11-.55-.83.04.55.04.55c0,0-.5-1.32-.61-1.78s-.15-1.46-.22-1.22-.14.5-.14.5c0,0-.03-1.26,0-1.39s.29-.74.29-.74l8.3.5Z"/><path class="cls-3" d="M26.4,2.87s-.69-.88-1.15-1.23-.88-.52-.88-.52l-.72-.12-1.47-.17-1.59-.14s-1.83.4-2.22.73-.58.59-.58.59c0,0,.63-.73.68-.42s-.49,1.1-.56,1.35.04,1.13.13,1.41.55,1.01.55,1.01c0,0-.08-.93.11-.58s.11.31.26.58.34.58.34.58c0,0-.17-.51-.04-.41s.34.3.48.37.55.28.55.28l-.12-.65-.49-.53-.07-1.57,1.4-.17,1.92.2,1.04.14.55,1.09-.38.75-.81.81.05.32s.13.07.34-.08.46-.34.46-.3,0,.29-.04.36.02.08.06.05.63-.4.8-.69.36-.7.36-.7c0,0-.08.67-.11.77s-.12.31-.12.31c0,0,.44-.44.65-.81s.5-.91.52-1.23.06-.65.06-.65l.31.59s-.06-.42-.15-.61-.31-.85-.25-.76.23.32.23.32l-.11-.29Z"/><path class="cls-2" d="M23.49,7.7s-.03-.07-.1-.04-.25.24-.29.24.05-.22,0-.23-.32.19-.38.24-.32.14-.4.23-.21.25-.23.23-.07-.16-.11-.13-.04.11-.1.1-.1-.21-.17-.15-.04.14-.09.1-.07-.07-.1-.1-.02-.13-.07-.16-.26,0-.37-.03-.16-.05-.21-.07-.07-.05-.1,0,0,.1-.05.08-.13-.17-.18-.23-.07-.17-.1-.11,0,.18-.04.15-.09-.2-.12-.22-.06.02-.07-.08.05-.37.03-.34-.06.23-.08.09.02-.82.02-.94.03-.31,0-.41-.18-.35-.2-.29.05.29-.02.21-.31-.53-.33-.35.09.38-.02.24-.4-.68-.39-1.07-.01-.79.09-1.03.31-.49.39-.55.25-.23.34-.23.19.07.17.01-.17-.1-.08-.12.36.09.35.05-.22-.18-.09-.17.17-.02.5.14.44.2.7.25.93.03,1.18.03.86-.09,1.01-.1.62.06.54.1-.22.01-.19.06.38.17.32.16-.16.01-.11.05.35.08.27.1-.23.05-.2.07.33.2.31.23-.25-.02-.19.06.12.24.15.34.02,1.06-.03,1.23-.1.34-.13.34-.03-.11-.06-.07-.13.38-.2.34-.03-.22-.1-.16-.11.1-.15.14-.33.12-.47.38-.13.77-.12.84.08.41.08.48-.05.1-.05.1Z"/><path class="cls-8" d="M22.79,6.91v.14s-.23.3-.47.4-.25.13-.56.1-.53-.07-.6-.11-.3-.26-.35-.43-.07-.31-.07-.31l2.05.21Z"/><path class="cls-1" d="M22.9,6.71s-.05.27-.11.34-.16.07-.27.05-.75-.14-1.08-.17-.62,0-.68-.09-.1-.32-.09-.39,2.22.25,2.22.25Z"/><path class="cls-12" d="M23.11,6.58s.12-.57-.25-1c-.19-.22-.74-.46-.94-.48s-.96.35-1.02.44c-.22.32-.26.41-.29.6s-.01.33.09.41.37.15.56.18,1.01.13,1.17.13.6.01.66-.3Z"/><path class="cls-9" d="M24.04,4.75s.14-.48-.25-.82-.87-.29-1.08-.22-.59.39-.73.39-.27-.14-.46-.3-.54-.4-1.07-.3-.73.82-.59,1.24.53.77.66.82.34.09.34.09c0,0,.73-.5,1.03-.44s.99.54.99.54c0,0,.88-.09,1.04-.49s.12-.51.12-.51Z"/><path class="cls-11" d="M22.97,5.22s-.21-.04-.26-.07-.16-.18-.2-.21-.02.03.02.13.14.16.19.18.32.04.25-.02Z"/><path class="cls-11" d="M21.14,5.08s.19-.21.11-.19-.18.19-.3.18-.24-.07-.24-.02.21.09.24.09.12.02.19-.05Z"/><path class="cls-13" d="M23.54,4.75s-.12-.24-.3-.31-.33,0-.46.06-.19.13-.18.21.17.3.37.32.59-.17.57-.28Z"/><path class="cls-13" d="M21.29,4.56s-.12-.24-.3-.31-.33,0-.46.06-.19.13-.18.21.17.3.37.32.59-.17.57-.28Z"/><path class="cls-10" d="M23.41,4.7s-.09-.18-.24-.18-.06.15-.02.21.29.2.26-.03Z"/><path class="cls-10" d="M21.16,4.51s-.09-.18-.24-.18-.06.15-.02.21.29.2.26-.03Z"/><path class="cls-13" d="M23.29,4.24s-.15-.09-.29-.07-.36.23-.35.17.13-.27.34-.28.4.14.31.17Z"/><path class="cls-13" d="M21.26,4.14s-.13-.16-.34-.21-.49.17-.44.18.24-.1.41-.06.31.23.37.19,0-.09,0-.09Z"/><path class="cls-4" d="M22.42,5.87s-.03-.38-.28-.49-.57-.18-.74.12-.06.45,0,.47.22.03.26.08.17.09.24.09.16-.01.19-.04.12-.09.18-.11.12-.02.15-.12Z"/><path class="cls-13" d="M21.73,5.97s.04-.11-.05-.24-.18-.08-.22-.04-.09.15-.01.17.15.02.17.05.07.14.12.07Z"/><path class="cls-13" d="M22.28,5.9s.03-.19-.08-.21-.24.23-.24.23c0,0,.03.12.07.1s.06-.05.09-.07.16-.05.16-.05Z"/><path class="cls-3" d="M24.23.86s-.37-.52-.43-.55.08.24.05.26-.61-.53-.61-.53c0,0,.43.37.2.38S22.76,0,22.76,0c0,0,.34.33.21.42S22.24-.03,22.12,0l-.12.03s.4.18.28.23-.9-.09-.9-.09c0,0,.43.05.16.15s-.63.15-.75.21-.23.25-.21.32.72.73.68.64-.3-.42-.12-.35.83.74.79.61-.34-.63-.11-.44.57.54.57.54c0,0-.24-.56-.07-.42s.29.37.29.37c0,0,.07-.38.15-.42s.25.06.14.13-.17.16-.17.16c0,0,.36-.16.47-.24s.24-.16.18-.04-.16.26-.16.26c0,0,.33-.17.41-.24s.08.12.07.16.5-.19.5-.19c0,0,.27-.22.04-.52Z"/><path class="cls-14" d="M6.3,22.57s3.49,1.51,3.74,1.73.92.96.58,1-.83-.18-.83-.18c0,0,.58.52.11.46s-2.29-1.27-2.63-1.17.09.61.25.75.69.9.22.82-.69-.44-1.05-.68-.83-.5-1.27-.6-.51-.13-.9-.15-.65-.1-.76-.38,2.52-1.59,2.52-1.59Z"/><path class="cls-6" d="M9.5,25.23s-1.47-.78-1.75-.91-1.35-.54-1.39-.42.86.87.86.87c0,0-.15-.38.07-.35s1.24.51,1.24.51l1.39.66-.41-.36Z"/><path class="cls-5" d="M8.03,19.44s-.27,1.14-.57,1.93-1.4,2.34-1.4,2.34c0,0-.06-.64-.18-.48s-.88.8-.88.69.34-1.04.07-.71-.54.97-.67,1.12-.21.2-.47.18-.44.05-.59-.25-.51-1.36-.51-1.36l-.1.63s-.41-.33-.27-.72,1.02-2.17,1.02-2.17l-.58.36s.31-1.09.39-1.73.12-3.21.05-3.4.68,1.1.89,1.38-.12,0-.23.14,1.19,2.35,1.19,2.54-.17-.2-.12.26.03.83.14.66.6-1.53.6-1.53c0,0,.24.78.12,1.13s-.32.91,0,.64.74-1.3.74-1.3c0,0,.13.86,0,1.23s-.16.86.02.67,1.34-2.27,1.34-2.27Z"/><path class="cls-2" d="M9.07,9.56s-.57-.41-.96-.77c-.12-.11-.53-.24-.6-.33s.21-.13.37-.13c.12,0,.24,0,.36-.01.06,0,.23.11.29.1.2-.02.73-.18.84-.28.04-.04-.39-.05-.33-.07,1.28-.3,2.39-.73,2.39-.73l-.43.68,1.32-.68-.53.68,2.54-.47-1.36.89,2.13-.09-.77.49.48.19-1.08,1.51s-.51-.13-.78.02-.54.16-.54.16l.1-.25-1.2.33.42-.27-.66-.04h-.88s.16-.22.16-.22l-.53.16.22-.27-.51.1.04-.25-.25-.05-.26-.4Z"/></svg>