<?xml version="1.0" encoding="UTF-8"?><svg id="Livello_1" xmlns="http://www.w3.org/2000/svg" viewBox="0 0 17.02 26.76"><defs><style>.cls-1{fill:#b15956;}.cls-1,.cls-2,.cls-3,.cls-4,.cls-5,.cls-6,.cls-7,.cls-8,.cls-9,.cls-10,.cls-11,.cls-12,.cls-13,.cls-14{stroke-width:0px;}.cls-2{fill:none;}.cls-3{fill:#d98986;}.cls-4{fill:#ddb0b0;}.cls-5{fill:#eaefed;}.cls-6{fill:#5a2f2f;}.cls-7{fill:#ab3442;}.cls-8{fill:#cf736e;}.cls-9{fill:#ced1cf;}.cls-10{fill:#c2655f;}.cls-11{fill:#b12225;}.cls-12{fill:#b45a58;}.cls-13{fill:#fff;}.cls-14{fill:#ce8988;}</style></defs><path class="cls-13" d="M8.42,26.76c-2.97,0-5.34-1.58-6.86-4.56C.41,19.93.05,17.43.01,16.3c-.06-1.92.13-3.49.16-3.71.03-.47.4-5.92,2.06-8.76C3.68,1.33,5.74.03,7.03.03c.32,0,.61.08.84.23.12.08.26.12.44.12.38,0,.8-.17,1.07-.28.16-.07.32-.09.5-.09,1.17,0,4,1.05,5.22,4.3,1.3,3.44,1.7,7.59,1.85,9.15.35,3.4-.3,12.4-7.45,13.25-.36.04-.73.07-1.08.07h0Z"/><path class="cls-10" d="M13.53,16.17c.03-.31.02-.89-.27-1.79-.46-1.41-1.8-2.89-2.58-3.08-.02,0-.04,0-.06-.01-.03,0-.06,0-.09,0-.73-.07-1.38.48-1.55,1.33-.08.37.13.9.26,1.39h0c0,.07.1.85-.44.9-.55.05-1.16-.26-1.2-.28v-.04c0-.43.31-1.03.24-1.6-.14-1.02-.64-1.7-1.63-1.7-.19,0-.52.36-.66.4-.57.15-.79.63-1.51,1.56-.7.9-1.02,2.48-1.13,3.15-.02,0-.03.01-.05.02-.68.28-1,.59-1,.59,0,0,0-.01,0-.03-.02-.27-.15-2.1.81-3.9,1.04-1.94.97-5.07,3.06-5.7,2.1-.63,5.21-1.18,6.75,1.09,1.54,2.26,1.14,3.83,1.64,5.04.5,1.21,1.02,3.12,1.02,3.12-.02-.01-.54-.31-1.62-.43Z"/><path class="cls-6" d="M11.81,16.14c-.4.03-.83.08-1.3.16-3.19.55-2.27-.16-4.9-.31-.1,0-.19,0-.29-.01.29-.65.58-1.61.29-2.3-.29-.68-.19-1.48-.07-2.01.14-.04.47-.4.66-.4.98,0,1.49.68,1.63,1.7.14.98-.89,2.03.49,2.19,0,0,.02,0,.03,0,.02,0,.05,0,.08,0,.03,0,.05,0,.08,0,1.66.08.27-1.7.45-2.58.18-.85.83-1.4,1.55-1.33.03,0,.06,0,.09.01.02,0,.04,0,.07.01.4.46.88,1.14.73,1.67-.21.75-.16,2.37.4,3.18Z"/><path class="cls-1" d="M14.86,17.91c-.02.09-.04.17-.07.25-.02.06-.03.11-.05.17-.01.04-.02.08-.03.12-.01.04-.02.08-.04.12-.02.08-.05.16-.08.23-.02.05-.03.1-.05.15-.02.07-.05.13-.07.19-.02.06-.05.13-.07.19-.02.06-.05.12-.08.18-.17-.02-.42-.03-.68,0-.46.07-.19.75-.7.77-.51.02-.76.59-.76.59-.78-.24-.96.41-.96.41,0,0-.74-.25-.96-.08-.23.16-.43.14-.43.14-.78-.33-1.07.23-1.56,0s-1.23.12-1.43-.1c-.21-.23-.8-.02-1.15-.29-.35-.27-.96,0-.96,0,0,0,.04-.33-.25-.64-.29-.31-.76,0-.76,0,0,0,.04-.35-.16-.61-.14-.18-.5-.19-.71-.18-.03-.05-.06-.1-.09-.16-.03-.05-.06-.11-.08-.16-.03-.05-.06-.11-.08-.16-.03-.05-.05-.11-.08-.17-.09-.19-.17-.39-.25-.59,0,0,1.09-1.49,2.69-1.59,1.6-.1,2.81.23,3.13.88.33.66.61.63,1.11-.18.49-.82,4.17-1.03,5.66.5Z"/><path class="cls-2" d="M14.33,19.52s0,0,0,0c-.04.1-.08.19-.13.28,0,0,0,0,0,.01-.02.04-.04.08-.06.12-.02.05-.05.1-.07.14,0,.02-.02.04-.03.06,0,.02-.02.04-.03.05,0,0,0,0,0,.01-.09.17-.19.33-.29.49-.03.04-.05.08-.08.12-.13.2-.28.39-.42.57,0,0-.01.01-.02.02-.26.31-.55.59-.84.82-.04.03-.08.06-.12.09-.05.04-.11.08-.16.12-.02.01-.04.03-.05.04,0,0,0,0,0,0-.04.03-.09.06-.13.09-.1.06-.19.12-.29.18-.05.03-.1.06-.15.08,0,0-.02,0-.03.02,0,0-.02,0-.03.01,0,0-.01,0-.02,0-.04.02-.08.04-.12.06-.03.02-.06.03-.1.05-.09.04-.18.08-.27.12-.05.02-.11.04-.16.06-.04.02-.09.03-.13.05-.33.12-.67.2-1,.26-.07.01-.13.02-.2.03-.07,0-.13.02-.2.02-.4.04-.79.05-1.16.02-.04,0-.08,0-.12-.01,0,0-.01,0-.02,0h0s0,0-.01,0c-.01,0-.02,0-.03,0-.12-.02-.24-.04-.37-.07-.03,0-.06-.02-.09-.02-.25-.07-.51-.16-.77-.28-.04-.02-.08-.04-.13-.06-.01,0-.03-.01-.04-.02-.02-.01-.05-.02-.07-.03,0,0,0,0-.01,0-.03-.01-.06-.03-.09-.05-.01,0-.03-.02-.04-.02-.04-.02-.09-.05-.13-.07-.03-.02-.06-.03-.09-.05-.01,0-.03-.02-.04-.03-.02-.01-.05-.03-.07-.04,0,0-.02-.01-.03-.02-.02-.01-.04-.03-.06-.04-.03-.02-.06-.04-.09-.06-.02,0-.03-.02-.05-.03-.02-.01-.04-.03-.07-.04,0,0-.02-.01-.03-.02h0c-.06-.04-.12-.08-.17-.12-.06-.04-.12-.09-.17-.13-.18-.13-.35-.28-.52-.43-.06-.05-.11-.1-.17-.16-.12-.11-.24-.23-.36-.36-.09-.1-.19-.21-.28-.31-.07-.08-.13-.15-.19-.23-.04-.06-.09-.11-.13-.17-.26-.34-.5-.7-.72-1.09.21,0,.56,0,.71.18.2.27.16.61.16.61,0,0,.47-.31.76,0,.29.31.25.64.25.64,0,0,.61-.27.96,0,.35.27.94.06,1.15.29.2.23.94-.12,1.43.1s.78-.33,1.56,0c0,0,.2.02.43-.14.23-.16.96.08.96.08,0,0,.18-.66.96-.41,0,0,.25-.57.76-.59.51-.02.24-.71.7-.77.26-.04.51-.02.68,0Z"/><path class="cls-7" d="M15.14,16.6c-.08.41-.17.85-.29,1.31-1.49-1.53-5.17-1.32-5.66-.5-.49.82-.78.84-1.11.18-.33-.66-1.54-.98-3.13-.88-1.6.1-2.69,1.59-2.69,1.59-.16-.42-.3-.85-.41-1.31,0,0,.31-.32.99-.59.02,0,.03-.01.05-.02.56-.22,1.36-.41,2.42-.39.09,0,.19,0,.29.01,2.62.14,1.7.86,4.9.31.47-.08.91-.13,1.3-.16.68-.05,1.25-.03,1.71.03,1.08.12,1.6.42,1.62.43Z"/><path class="cls-5" d="M14.33,19.52s0,0,0,0c-.04.1-.08.19-.13.28-.02.05-.04.09-.07.14-.02.05-.05.1-.07.14,0,.02-.02.04-.03.06-.01.02-.02.04-.03.06,0,0,0,0,0,0-.09.17-.19.33-.29.49-.03.04-.05.08-.08.12-.13.2-.28.39-.42.57,0,0-.01.01-.02.02-.26.31-.55.59-.84.82-.04.03-.08.06-.12.09-.05.04-.11.08-.16.12-.02.01-.04.03-.05.04,0,0,0,0,0,0-.04.03-.09.06-.13.09-.1.06-.19.12-.29.18-.05.03-.1.06-.15.08,0,0-.02,0-.03.02,0,0-.01,0-.02.01,0,0-.01,0-.02.01-.04.02-.08.04-.12.06-.03.02-.06.03-.1.05-.09.04-.18.08-.27.12-.05.02-.11.04-.16.06-.04.02-.09.03-.13.05-.33.12-.67.2-1,.26-.07.01-.13.02-.2.03-.07,0-.13.02-.2.02-.4.04-.79.05-1.16.02-.04,0-.08,0-.12-.01,0,0,0,0,0,0,0,0-.01,0-.02,0,0,0,0,0-.01,0-.01,0-.02,0-.03,0-.12-.02-.24-.04-.37-.07-.03,0-.06-.02-.09-.02-.25-.07-.51-.16-.77-.28-.06-.03-.11-.05-.17-.08-.06-.03-.11-.06-.17-.09-.06-.03-.12-.06-.17-.09-.04-.03-.09-.05-.13-.08-.02-.01-.05-.03-.07-.04-.03-.02-.06-.04-.09-.06-.03-.02-.06-.04-.09-.06-.05-.03-.1-.06-.14-.1h0c-.12-.08-.23-.16-.35-.25-.18-.13-.35-.28-.52-.43-.06-.05-.11-.1-.17-.16-.12-.11-.24-.23-.36-.36-.09-.1-.19-.21-.28-.31-.07-.08-.13-.15-.19-.23-.04-.06-.09-.11-.13-.17-.26-.34-.5-.7-.72-1.09.21,0,.56,0,.71.18.2.27.16.61.16.61,0,0,.47-.31.76,0,.29.31.25.64.25.64,0,0,.61-.27.96,0,.35.27.94.06,1.15.29.2.23.94-.12,1.43.1s.78-.33,1.56,0c0,0,.2.02.43-.14.23-.16.96.08.96.08,0,0,.18-.66.96-.41,0,0,.25-.57.76-.59.51-.02.24-.71.7-.77.26-.04.51-.02.68,0Z"/><path class="cls-11" d="M5.32,15.99c-1.06-.02-1.86.17-2.42.39.11-.67.43-2.24,1.13-3.14.72-.94.94-1.41,1.51-1.56-.13.53-.23,1.33.07,2.01.3.69,0,1.65-.29,2.3Z"/><path class="cls-11" d="M13.53,16.17c-.47-.05-1.03-.07-1.71-.03-.56-.81-.61-2.42-.4-3.18.15-.53-.33-1.21-.73-1.67.77.19,2.12,1.67,2.58,3.08.29.9.3,1.48.27,1.79Z"/><path class="cls-2" d="M13.47,16.45s.04-.09.06-.28"/><path class="cls-2" d="M2.91,16.38c-.03.2-.05.32-.05.32"/><path class="cls-2" d="M5.74,11.07s-.1.24-.19.6"/><path class="cls-2" d="M12.14,16.47c-.12-.08-.23-.19-.33-.33"/><path class="cls-2" d="M10.68,11.3c-.27-.3-.5-.51-.5-.51"/><path class="cls-7" d="M8.57,15.24c-.81-.02-.95-.34-.97-.63.04.02.64.29,1.18.24.53-.05.46-.79.45-.86.18.66.29,1.27-.67,1.25Z"/><path class="cls-3" d="M8.25,14.59s.4.1.62-.09.25-.31.24-.12-.05.41-.46.37-.52-.17-.4-.15Z"/><path class="cls-8" d="M4.78,14.89s-.22.41-.46.57-.03.2.23.14.47-.49.44-.72-.07-.23-.21,0Z"/><path class="cls-8" d="M5,13.89s-.12.17,0,.39.2,0,.22-.26-.22-.52-.22-.13Z"/><path class="cls-8" d="M4.44,13.89s-.29.64-.37.83.34-.03.53-.21.17-.75.18-.95-.21.04-.34.33Z"/><path class="cls-8" d="M12.14,14.79s.22.41.46.57.03.2-.23.14-.47-.49-.44-.72.07-.23.21,0Z"/><path class="cls-8" d="M11.92,13.79s.12.17,0,.39-.2,0-.22-.26.22-.52.22-.13Z"/><path class="cls-8" d="M12.14,13.46c0-.2.21.04.34.33,0,0,.29.64.37.83"/><path class="cls-12" d="M15.14,16.6s-.52-1.9-1.02-3.12c-.5-1.21-.09-2.78-1.64-5.04-1.54-2.27-4.66-1.72-6.75-1.09-2.09.63-2.03,3.76-3.06,5.7-.96,1.79-.84,3.62-.81,3.9-.2-.86-.29-1.79-.24-2.79,0-.1.27-1.9.62-3.56.34-1.66,2.03-7.59,6.27-7.71,0,0,3.5-.28,5.19,4.12,1.52,3.95,2.17,5.84,1.45,9.6Z"/><path class="cls-5" d="M13.65,6.9s-.5-.05-.7-.21c-.21-.17,0-.66-.15-.41s-.78.21-1.3.15c-.52-.06-.48-.53-.48-.53,0,0-.24.39-1.34.37-1.1-.02-1.16-.48-1.16-.48,0,0-.07.43-1.02.46-.95.03-1.21-.14-1.3-.32-.08-.18-.1-.06-.16.2-.06.26-.45.34-.97.38-.52.05-.61-.08-.68-.21-.08-.12-.14-.25-.1.1.04.35-.85.66-.85.66.98-2.03,2.59-4.11,5.07-4.18,0,0,3.44-.27,5.15,4.01Z"/><path class="cls-9" d="M4.42,5.37s.96-1.32,1.31-1.25.07.1.62-.37,1.38-.92,1.74-.65.39.81.56.44,1.45-.65,2.02,0,.46.84.46.84c0,0-.17-.5.56-.31s-.59-1.34-1.99-1.68-4.81.7-5.29,2.98Z"/><path class="cls-14" d="M16.27,13.52c-.15-1.54-.55-5.62-1.81-8.97C13.2,1.2,10.13.52,9.67.71c-.46.19-1.44.61-2.18.12-.74-.49-3.04.55-4.67,3.35C1.19,6.97.85,12.66.85,12.66c0,0-.21,1.63-.15,3.63.06,2,1.44,10.6,8.73,9.74,7.28-.86,7.01-10.97,6.85-12.5ZM15.14,16.6c-.08.41-.17.85-.29,1.31-.02.09-.04.17-.07.25-.02.06-.03.11-.05.17-.01.04-.02.08-.03.12-.01.04-.02.08-.04.12-.02.08-.05.16-.08.23-.02.05-.03.1-.05.15-.02.07-.05.13-.07.19-.02.06-.05.13-.07.19-.02.06-.05.12-.08.18,0,0,0,0,0,0-.04.1-.08.19-.13.28,0,0,0,0,0,.01-.02.04-.04.08-.06.12-.02.05-.05.1-.07.14,0,.02-.02.04-.03.06,0,.02-.02.04-.03.05,0,0,0,0,0,0,0,0,0,0,0,0-.09.17-.19.33-.29.49-.02.04-.05.08-.08.12-.13.2-.28.39-.42.57,0,0-.01.01-.02.02-.26.31-.55.59-.84.82-.04.03-.08.06-.12.09-.05.04-.11.08-.16.12-.02.01-.04.03-.05.04,0,0,0,0,0,0-.04.03-.09.06-.13.09-.1.06-.19.12-.29.18-.05.03-.1.06-.15.08,0,0-.02,0-.03.02,0,0-.01,0-.02.01,0,0,0,0,0,0,0,0-.01,0-.02,0-.04.02-.08.04-.12.06-.03.02-.06.03-.1.05-.09.04-.18.08-.27.12-.05.02-.11.04-.16.06-.04.02-.09.03-.13.05-.33.12-.67.2-1,.26-.07.01-.13.02-.2.03-.07,0-.13.02-.2.02-.4.04-.79.05-1.16.02-.04,0-.08,0-.12-.01,0,0,0,0,0,0h-.02s0,0-.01,0c-.01,0-.02,0-.03,0-.12-.02-.24-.04-.37-.07-.03,0-.06-.02-.09-.02-.25-.07-.51-.16-.77-.28-.04-.02-.08-.04-.13-.06-.01,0-.03-.01-.04-.02-.02-.01-.05-.02-.07-.03,0,0,0,0-.01,0-.03-.01-.06-.03-.09-.05-.01,0-.03-.02-.04-.02-.04-.02-.09-.05-.13-.07-.03-.02-.06-.03-.09-.05-.01,0-.03-.02-.04-.03-.02-.01-.05-.03-.07-.04,0,0-.02-.01-.03-.02-.02-.01-.04-.03-.06-.04-.03-.02-.06-.04-.09-.06-.02,0-.03-.02-.05-.03-.02-.01-.04-.03-.07-.04,0,0-.02-.01-.03-.02h0c-.06-.04-.12-.08-.17-.12-.06-.04-.12-.09-.17-.13-.18-.13-.35-.28-.52-.43-.06-.05-.11-.1-.17-.16-.12-.11-.24-.23-.36-.36-.1-.1-.19-.21-.28-.31-.07-.08-.13-.15-.19-.23-.05-.06-.09-.11-.13-.17-.26-.34-.5-.7-.72-1.09-.03-.05-.06-.1-.09-.16-.03-.05-.06-.11-.08-.16-.03-.05-.06-.11-.08-.16-.03-.05-.05-.11-.08-.17-.09-.19-.17-.39-.25-.59-.16-.42-.3-.85-.41-1.31-.2-.87-.3-1.81-.25-2.83,0-.1.28-1.91.61-3.56.34-1.66,2.04-7.59,6.27-7.71,0,0,3.5-.28,5.19,4.12,1.52,3.96,2.17,5.85,1.45,9.59Z"/><path class="cls-4" d="M1.86,7.55S3.82.75,7.43,1.24c0,0,.86.2-.45.7S3.55,4.39,1.86,7.55Z"/><path class="cls-4" d="M1.86,19.14s2.42,5.9,6.64,5.74,5.82-3.89,5.82-3.89c0,0-1.75,4.47-6.11,4.47s-6.35-6.31-6.35-6.31Z"/><path class="cls-9" d="M5.69,20.97s.22.62.24.9,0-.77.31-.75c0,0-.22-.04-.55-.15Z"/><path class="cls-9" d="M6.84,21.26s.14.36.13.86.16-.4.22-.59.21-.21.21-.21c0,0-.24.06-.55-.06Z"/><path class="cls-9" d="M11.22,21.3s.18.68.19.99-.13-.42-.19-.99Z"/></svg>