<?xml version="1.0" encoding="UTF-8"?><svg id="Complications" xmlns="http://www.w3.org/2000/svg" viewBox="0 0 32 32"><defs><style>.cls-1{fill:none;}.cls-1,.cls-2,.cls-3,.cls-4,.cls-5,.cls-6,.cls-7,.cls-8,.cls-9{stroke-width:0px;}.cls-2{fill:#222;}.cls-3{fill:#ad9e8f;}.cls-4{fill:#f5f0e4;}.cls-5{fill:#d5c8ba;}.cls-6{fill:#baada2;}.cls-7{fill:#fff;}.cls-8{fill:#e2d8cf;}.cls-9{fill:#231c1d;}</style></defs><rect class="cls-1" width="32" height="32"/><path class="cls-5" d="M21.01,6.12s.09-1,.79-1.01c.43,0,1.42.9,1.65,1.9.47,2.13.46,3.9.62,4.47s.11.69.23.77.2-.05.2-.05l.33.42s-.24-.05-.4-.12-.48-.41-.48-.41l-.02.27-.27-.4-.03.41-.28-.32-.42-.5s-1.34-3.8-1.53-4.43-.38-1-.38-1Z"/><path class="cls-4" d="M26.05,17.12c1.54-.1,1.74-.61,2.15-1.13.51-.51.2-1.23.2-1.23,0,0-.51-.82-.72-.92s-.51-1.02-.92-1.43c-.41-.31-1.64-.82-1.64-.82-.34-.15-.96-.2-1.34-.49s-.8-.71-.8-1.42c-.35-2.48-1.72-4.41-2.74-5.21-.75-.59-1.29-.46-1.24-.03-.03.13-.05.27-.07.4-.7,4.36,2.64,7.91,2.64,7.91,0,0,.18-.53-.12.39-.41.92-.21,1.24-.21,1.24-2.05-.6-4.15-.36-5.53-.77,0,0-3.33-.37-6.44,2.11,0,0-2.53,2.25-3.11,3.6s-.1,3.54,0,3.92.44,1.21.75,1.64,1.55,1.64,2.3,1.62c0,0,2.54-.19,3.07,0s.29.24,1.09.19,1.77.16,2.32.02.63.18.56-.14-.12-1.04-.48-1.14-1.77-.22-2.15-.22-.58-.05-.58-.05c0,0,1.11-.46,1.45-.63s.75-.48,1.28-.53,1.1,0,1.31.36.96,2.15,1.42,2.27,1.67.16,2.15.11.89.15,1.02.02.24-.54-.02-.74-.87-.56-1.23-.6-.92-.31-1.09-.7-.27-1.02-.17-1.35.68-.92,1.4-1.16,1.45-.55,1.89-.88,1.53-1.3,1.84-1.65.39-1.18.6-1.49,1.18-1.06,1.18-1.06h0Z"/><path class="cls-9" d="M27.72,14.85s.21,0,.43.11.32,0,.32,0c0,0,.21.43.11.75,0,0-.11-.32-.21-.43,0-.11-.53-.21-.64-.43h0Z"/><path class="cls-5" d="M25.54,13.95s.2-.82-.41-1.13-1.02,0-1.02,0c0,0-.2.51.31.92-.1-.1.31.2,1.13.2h0Z"/><path class="cls-2" d="M25.43,13.84s.2-.72-.31-.92-.82,0-.82,0c0,0-.2.51.31.82-.2-.2.1.1.82.1Z"/><circle class="cls-7" cx="24.41" cy="13.33" r=".1"/><path class="cls-3" d="M22.26,11.39s-.83-.49-.93-2.02c-.24-3.68-.71-3.86-1.23-4.38-.28-.28-.48-.53-.71-.47-.19.05-.19.34-.19.44,0,.2-.91,3.28,2.06,5.52.13.1.99.91.99.91Z"/><path class="cls-5" d="M21.33,15.27s.72.87,1.24,1.24,1.22.92,1.7.88.72-.09.77-.09.53-.05.53-.05c0,0-.54.64-.7.93s-.3.74-.36.95-.38.71-.31.35-.21-1.31-.61-1.71-1.03-.6-1.25-.83-1.01-1.68-1.01-1.68Z"/><path class="cls-8" d="M8.57,18.43s.07-.07.26-.13c.24-.07.69-.48,1.42-.36,1.32.22,1.53.87,1.76,1.36s.85,1.4.85,1.4c0,0,.29.22-.15-.8s-.59-1.28-1-1.78c-1.3-1.6-2.85-.55-3.08-1.02s.2-.81.43-1.07c.41-.45.92-.87.92-.87,0,0-1.04.63-2.19,1.77-.33.33-1.13,1.21-1.36,1.54s-.44,1.23-.44,1.23l2.56-1.27Z"/><path class="cls-5" d="M12.78,21.57s.22.36.49.74.67.8.67,1.11-.11.71-.16.85-.76.88-.76.88c0,0,1.22-.5,1.45-.63s.71-.42.99-.48.76-.25.87-.19.47.2-.34-.22-1.29-.06-1.58-.28-1.63-1.79-1.63-1.79Z"/><path class="cls-6" d="M3.8,25.07s.63-.53.87-.62,1.65-.13,1.65-.13l.36.37.8,1.3s-.42.34-.67.48-1.5.38-1.5.33.53-.52.15-.41-1.56.32-1.65.28.73-.32.44-.36-.91.27-.83.08.4-1.33.4-1.33Z"/><path class="cls-5" d="M9,26.23s-.96-.58-1.12-.87-.83-.83-.98-1-.62-1.33-.71-1.63c-.06-.19-.2-.31-.2-.31,0,0,.43,1.76.33,1.9-.1.14-.56.09-.62.09s-1.09.44-.6.45,1.18-.29,1.41.09.42.51.31.76-.13.71-.33.74-.31.18-.31.18c0,0,.96-.27,1.41-.34s.22,0,.91.09.53.1.68.09-.19-.25-.19-.25Z"/><path class="cls-6" d="M13.34,26.12s.22.5.36.53.33.03.33.03c0,0-.22-.29-.27-.38s-.42-.18-.42-.18Z"/><path class="cls-6" d="M14.85,25.89s.22.5.36.53.33.03.33.03c0,0-.22-.29-.27-.38s-.42-.18-.42-.18Z"/><path class="cls-5" d="M19.14,23.36s.31-.51.53-.67.7-.42.7-.42c0,0-.7.72-.61,1.41s.36,1.11.61,1.22,1.23.11,1.43.13.73.38.8.51.42.69.29.67c-.05,0-.39.08-.6.07-.32-.02-.54-.12-.54-.12,0,0-.18-.24-.68-.48-.23-.11-.75-.24-1.13-.4-.25-.1-.39-.22-.5-.37-.29-.36-.41-1.22-.29-1.55Z"/><path class="cls-6" d="M20.34,25.87s.36.2.47.35.12.33.2.25.16-.15,0-.34-.67-.25-.67-.25Z"/><path class="cls-3" d="M21.68,25.43s.36.33.47.44.15.15.25.13.11-.13.11-.13l-.83-.44Z"/><path class="cls-5" d="M17.18,23.68s-1.03-1.52-1-2.11.07-2.05.15-2.3.14-1.12-.15-.65-.59,1.64-.53,2.14.06,1.55-.16,1.52-.07,0,.33.33,1.36,1.08,1.36,1.08Z"/><path class="cls-3" d="M24.51,17.42s.83-.12,1.06-.17.48-.13.48-.13l-.82.61c-.24.23-.4.5-.44.6s-.18-.49-.38-.61-.54-.41-.54-.41c0,0,.36.13.64.1Z"/><path class="cls-3" d="M19.14,23.36s.03-.28.53-.67c.14-.11.26-.21.4-.29.15-.08.3-.14.3-.14,0,0-.46.54-.56.92-.02.06-.02,0-.04,0-.04,0-.11.05-.19.23-.09.21-.22.51-.22.71,0,.31-.05.59-.05.59,0,0-.3-.83-.17-1.35Z"/><path class="cls-3" d="M13.02,25.15s.47-.43.66-.75.22-.67.22-.67c0,0-.14.63,0,.68s.49.14.56.1.09-.08.09-.08c0,0-.64.36-1.04.51s-.49.2-.49.2Z"/></svg>