<?xml version="1.0" encoding="UTF-8"?>
<svg xmlns="http://www.w3.org/2000/svg" version="1.1" viewBox="0 0 150.6 111.3">
  <defs>
    <style>
      .cls-1 {
        mix-blend-mode: multiply;
      }

      .cls-1, .cls-2, .cls-3, .cls-4, .cls-5, .cls-6 {
        stroke-width: 0px;
      }

      .cls-1, .cls-7 {
        isolation: isolate;
      }

      .cls-1, .cls-6 {
        fill: #d6c9c3;
      }

      .cls-2 {
        fill: #cf661d;
      }

      .cls-3 {
        fill: #d4793c;
      }

      .cls-4 {
        fill: #44352e;
      }

      .cls-5 {
        fill: #67524a;
      }
    </style>
  </defs>
  <g class="cls-7">
    <g id="Livello_1" data-name="Livello 1">
      <g id="Livello_1-2" data-name="Livello 1">
        <g>
          <path class="cls-2" d="M43.4,43.6l-8.9,5.7-3.4,3.8-.8,1.2-3.6,2.4-1.2,1.2-1.8,1.6s-6.7,6.3-6.9,6.9c-.2.6.4,1,.4,1,0,0-2.6,2.4-3.2,3-.6.6-4.9,6.1-4.9,6.1l-5.1,7.1-3,7.7-1,9.6.8,2.2s4.7-.6,5.3-1c.6-.4,9.1-1.8,9.1-1.8l6.7-5.3s8.1-8.7,8.3-9.3c.2-.6,3.4-3.7,3.6-4.3.2-.6,2.2-1.8,2.2-2.6s.4-7.3.4-7.3l1.8-6.5s2.8-4.9,2.8-5.7,2.2-15.8,2.2-15.8h.2Z"/>
          <path class="cls-6" d="M14.4,97.7s1.2-.6,1.2-1.8-4.1-.8-4.1-.8c0,0-1.8-2.3-2.4-4.5s-3.2.2-3.2.2l-2.8,1.4-1.7-2.2-.5,1.4-.9,9.5c.1,0-.4,1.9.8,2.2,0,0,4.7-.6,5.3-1,.6-.4,9.1-1.8,9.1-1.8l1.7-1.4-2.5-1.3h0Z"/>
          <path class="cls-1" d="M41.5,56.3l-4,1.3-3.4,12.6-4.5,7.3-7.1,8.5-6.1,6.3-4.9,2.8-4.7,2.8-6.7.7-.2,3.6s0,.8,1,1c1,.2,4.4-.6,5-1s9.1-1.8,9.1-1.8l6.7-5.3s8.1-8.7,8.3-9.3c.2-.6,3.4-3.7,3.6-4.3.2-.6,2.2-1.8,2.2-2.6s.4-7.3.4-7.3l1.8-6.5s2.8-4.9,2.8-5.7.2-1.4.4-3.1h.3Z"/>
          <path class="cls-5" d="M126.5,9.2c.2-.5,4.6-11.2,5.3-6.5l.6,4.6.2,3.9s-6.1-2-6.1-2Z"/>
          <path class="cls-2" d="M70.1,68.1s.4,6.2.4,8.7-2.4,6.3-2.4,6.3l-3.9,4.3-3.4,2.8-.6,2.2.6,4.1,2.6,5.7.8.8,2.2.6,2,2.4-.4,1.6h-5.3l-3.4-.2-.4-2.8-1-1.2-.2-2-2.2-4.3-3.2-5.9s-.2-1.8.8-2.8,2.3-1.2,3.4-1.8,2.2-7.7,2.2-7.7l2-14.6,9.3,3.8h.1Z"/>
          <path class="cls-4" d="M64.3,103l-.8-.8-2.6-5.7-.6-4.1.4-1.4s.4-.3-1.4-.6-1.8,1.2-1.8,1.2l-2.8-.6-2-.4-.2.6,3.2,5.9,2.2,4.3.2,2,1,1.2.4,2.8,3.4.2h5.3l.4-1.6s-1.1-2.2-2-2.4l-2.2-.6h-.1Z"/>
          <polygon class="cls-2" points="116.6 66.5 115.5 79 114.7 88.4 114.5 93.4 115.9 98.7 118.6 99.7 120.4 102 120.2 104 114.9 103.8 112.3 101.1 109.9 91.8 109.9 68.5 116.6 66.5"/>
          <polygon class="cls-5" points="120.4 102 118.6 99.7 115.9 98.7 114.5 93.4 114.7 88.4 115.5 79 115.8 75.5 112.5 74.6 109.9 76.4 109.9 91.8 112.3 101.1 114.9 103.8 120.2 104 120.4 102"/>
          <path class="cls-2" d="M150.6,25.1c.2.8-1.6,3.4-1.6,3.4l-3.1,1.9h-6.5c0-.1-4.8.2-4.8.2l-3.8,3-4.3,13.4-3,11.4-4.1,6.7-4.7,5.7-2.6,1.8-.8,15.2-.4,9.7-.4,2.6,1.4,4.7,2.6.6,1.8,3.4-1,.8-7.9-.8-2-7.7-.4-4.7-.5-4.6-1.4-4.2-2-15.8-2.6-2-6.1,1.4-10.9-.2-14-2-3.9,5.7-2.2,5.9-5.3,4.7-9.1,4.7-2.4,2.2,1.4,12.6,2.4.8,2.2,1.8.6,3.6-2,.2h-5.1l-3.2-2.8-1.4-1.2-.4-7.7-3-10.7,4.9-6.1s.9-2.4.6-5.5-2.8-9.7-2.8-9.7l-2.4-9.3s-.4-4.1,1.6-7.9,2.5-5.5,5.3-7.7,10.9-4.7,10.9-4.7l19.1-1.6,14-.9,7.2.2h5.7c0,0,.5-2,3.3-4.4s6.3-8.3,6.3-8.3l6.4-10.8,7.1-3.9,7.3.6s7.3,5,7.9,5.9,1.3,3,1.8,3.4l3,2.6s7.1,3.4,7.3,4.3h0Z"/>
          <polygon class="cls-4" points="114.5 105.4 111.9 104.8 110.5 100.1 110.9 97.5 111.3 87.8 112 74.6 109.3 74 108.4 72.2 103.8 70.5 101.3 73.3 103.2 87.8 104.6 91.9 105 96.5 105.4 101.1 107.4 108.8 115.3 109.7 116.4 108.8 114.5 105.4"/>
          <path class="cls-4" d="M56.1,85.3l1.2-1.1h-1.8l-9.3,1.7-4.1-.8-1.2-2.9v.4s-4.9,3.7-4.9,6.1,3,10.7,3,10.7l.4,7.7,1.4,1.2s2.8,2.8,3.2,2.8h5.1l2-.2s.7-2.6-.6-3.6l-2.2-1.8-2.4-.8-1.4-12.6,2.4-2.2,9.1-4.7h0Z"/>
          <polygon class="cls-6" points="101.8 68.3 100.7 66.5 90.8 67.5 79.1 67.5 70.1 66.9 66.9 66.7 67.5 69.1 81.5 71.1 92.4 71.3 98.5 69.9 100.5 71.4 101.8 68.3"/>
          <path class="cls-6" d="M145.1,26.5l-4.7-2.2s-1.9-1.2-3.7-1.6-5.5.8-5.5.8l-6.9,2.8s-3,1-4.5,1.4-1,2.4-1,2.4l1.2,5.5s.9,6.6,1,10.5-1.3,8-2.3,10.1l-3.4,7-2,5.3s-.3,2.3-.3,3.3,1.5-1,1.5-1l4.7-5.7s2-1.6,4-5.3,6.8-24.5,7.3-25.5c.6-1.2,2.5-2.6,3.7-3.1s3.2-.5,5.2-.5,5.3.6,5.9.6,3-1.6,3.6-2.4.7-1.3.7-1.3l-4.7-1h.2Z"/>
          <path class="cls-1" d="M108.4,106.8l-1.4-6.7-.2-7.7-1.6-6.1v-17s.8-3.9,0-5.6-3-1.5-3-1.5l-13.6,2.8-14.2-.8s-8-2.9-10.1-3.9-2.6,1.2-2.6,1.2c0,0,1.6,2.4,1.4,4.7-.2,2.3-1.4,6.7-5.5,11.4s-8.1,7.3-8.1,7.3l-6.7,6.9,1.4,9.1,1.3,1.1-1.1-9.8,2.4-2.2,9.1-4.7s4.1-2.8,5.3-4.7.8-2.5,2.2-5.9,3.9-5.7,3.9-5.7l14,2,10.9.2,6.1-1.4,2.6,2,2,15.8,1.4,4.2.5,4.6.4,4.7,2,7.7,1.5.2-.5-2.2h0Z"/>
          <path class="cls-3" d="M125.7,10.3s2.6-.5,3.7-.6,2.4,0,1.2-.8-7.3-.6-7.3-.6c0,0-3.6-1.3-7.1,3.9-3.5,5.2-11,16.1-13.4,18.2-4.7,4.2-13.4,4.3-13.4,4.3l-16.2,1.6-19.1,1.6-8.1,3.5,4.7-.4,17.4-2.6,16-.8s8.5.9,16-1.8c7.4-2.7,10.9-10.1,10.9-10.1l8.8-13.2,5.9-2v-.2Z"/>
          <polygon class="cls-5" points="135.8 17.6 139 19.3 141.2 20.5 139.9 19.1 137.1 17.3 135.8 17.6"/>
          <polygon class="cls-3" points="123.4 .6 121.2 1.6 117.4 11.3 118.1 13.2 122.8 16.2 123.8 14.2 125.4 12.4 126.9 12.3 126.8 8 123.4 .6"/>
          <path class="cls-2" d="M122.7,2.5s.3-2.7,1.1-1.2-.3-.8-.3-.8l-2.3,1.1-3.8,9s-.5,2.3-.3,5.8c0,2,5.8-.2,5.8-.2l.5-1.1s0,.2-.5-2.9c-.5-3.1,0-5.9,0-5.9v-3.8h0Z"/>
          <path class="cls-1" d="M126,10.5s0-2.6-.5-3.9-1.2-3-1.7-3.6-.3,2.7-.3,2.7l.2,4.3.5,3.7,1.2-1.3h.5v-1.9h.1Z"/>
          <path class="cls-4" d="M123.4.6c-1.1-1.7-2.3,1.1-2.3,1.1l-2.3,5.8s1.1-.9,2.1-.9,1.7.6,1.7.6V2.6c0-1.8,1.1-1.2,1.1-1.2,0,0,.3.2-.3-.8h0Z"/>
          <polygon class="cls-5" points="148 29.9 146.3 29.7 143.5 29.2 139.3 28 135.3 28.4 135.3 28.8 137.4 28.7 139.4 28.6 142.6 29.4 145.3 30.1 147.2 30.4 148 29.9"/>
          <path class="cls-5" d="M149.1,26.5l.6,1.1s1.1-1.4.8-2.5-.9-.5-.9-.5l-1.2.2v.9l1,.2v.6h-.4,0Z"/>
          <polygon class="cls-4" points="137.5 16.4 137.4 17 137.5 17.7 138 18.3 136.3 18 134.8 18 135.9 17 137.5 16.4"/>
        </g>
      </g>
    </g>
  </g>
</svg>