<?xml version="1.0" encoding="UTF-8"?><svg id="Livello_1" xmlns="http://www.w3.org/2000/svg" viewBox="0 0 25 22.56"><defs><style>.cls-1{fill:#222;}.cls-1,.cls-2,.cls-3,.cls-4,.cls-5,.cls-6{stroke-width:0px;}.cls-2{fill:#f5f0e4;}.cls-3{fill:#d5c8ba;}.cls-4{fill:#baada2;}.cls-5{fill:#fff;}.cls-6{fill:#231c1d;}</style></defs><path class="cls-3" d="M17.46,2.04s.09-.99.78-1c.43,0,1.41.89,1.63,1.88.47,2.11.45,3.87.61,4.43s.11.68.23.76.19-.05.19-.05l.32.41s-.24-.05-.4-.11-.48-.41-.48-.41l-.02.27-.27-.4-.03.41-.27-.31-.41-.5s-1.32-3.77-1.52-4.39-.38-.99-.38-.99Z"/><path class="cls-2" d="M22.46,12.95c1.52-.1,1.73-.61,2.13-1.12.51-.51.2-1.22.2-1.22,0,0-.51-.81-.71-.91s-.51-1.02-.91-1.42c-.41-.3-1.63-.81-1.63-.81-.34-.15-.95-.2-1.33-.49s-.79-.7-.79-1.41c-.35-2.46-1.71-4.37-2.72-5.16-.74-.58-1.28-.46-1.23-.03-.03.13-.05.26-.07.39-.69,4.33,2.62,7.84,2.62,7.84,0,0,.18-.53-.12.39-.41.91-.21,1.23-.21,1.23-2.03-.59-4.11-.35-5.48-.77,0,0-3.3-.37-6.39,2.09,0,0-2.51,2.23-3.08,3.57s-.1,3.51,0,3.89.43,1.2.74,1.63,1.53,1.63,2.28,1.61c0,0,2.52-.19,3.05,0s.29.24,1.08.19,1.75.15,2.3.02.62.17.55-.14-.12-1.03-.48-1.13-1.75-.22-2.13-.22-.58-.05-.58-.05c0,0,1.1-.46,1.44-.62s.74-.48,1.27-.53,1.09,0,1.3.36.95,2.13,1.41,2.25,1.65.16,2.13.11.89.15,1.01.02.24-.54-.02-.73-.86-.55-1.22-.6-.91-.31-1.08-.7-.26-1.01-.17-1.34.67-.91,1.39-1.15,1.44-.55,1.87-.87,1.52-1.29,1.83-1.64.39-1.17.6-1.48,1.17-1.05,1.17-1.05h0Z"/><path class="cls-6" d="M24.12,10.69s.21,0,.42.11.32,0,.32,0c0,0,.21.42.11.74,0,0-.11-.32-.21-.42,0-.11-.53-.21-.64-.42h0Z"/><path class="cls-3" d="M21.96,9.8s.2-.81-.41-1.12-1.02,0-1.02,0c0,0-.2.51.3.91-.1-.1.3.2,1.12.2h0Z"/><path class="cls-1" d="M21.86,9.7s.2-.71-.3-.91-.81,0-.81,0c0,0-.2.51.3.81-.2-.2.1.1.81.1Z"/><circle class="cls-5" cx="20.84" cy="9.19" r=".1"/><path class="cls-3" d="M18.71,7.26s-.83-.48-.93-2c-.24-3.65-.71-3.83-1.22-4.34-.28-.28-.48-.52-.7-.47-.18.05-.19.34-.19.43,0,.19-.9,3.25,2.05,5.47.13.1.98.9.98.9Z"/><path class="cls-3" d="M17.78,11.11s.71.87,1.23,1.23,1.21.91,1.68.87.71-.09.76-.09.53-.05.53-.05c0,0-.59.41-.75.7s-.25.96-.3,1.17-.51.81-.45.45-.08-1.4-.47-1.8-1.03-.6-1.24-.82-1-1.66-1-1.66Z"/><path class="cls-3" d="M13.46,11.01s1.15-.56,1.38-.7.8-.47,1.01-.44-1.21,0-1.43-.07-.7-.02-.76,0,.04.08-.52.51-.9.7-.99.7,1.29,0,1.29,0Z"/><path class="cls-3" d="M5.13,14.24s.07-.07.26-.12c.24-.07.67-.12,1.39,0,1.31.22,1.53.5,1.76.99s.85,1.38.85,1.38c0,0,.29.22-.14-.79s-.65-1.44-.99-1.76-1.52-.58-1.76-1.04-.46-.43-.34-.76.38-1.13.38-1.13c0,0-1.03.62-2.17,1.75-.33.32-1.12,1.2-1.35,1.53s-.43,1.22-.43,1.22l2.53-1.26Z"/><path class="cls-3" d="M9.3,17.36s.22.36.49.74.67.79.67,1.1-.11.7-.16.85-.75.88-.75.88c0,0,1.21-.5,1.44-.62s.7-.42.99-.47.75-.25.86-.19.47.2-.34-.22-1.28-.06-1.56-.27-1.62-1.78-1.62-1.78Z"/><path class="cls-4" d="M.4,20.83s.63-.52.86-.61,1.64-.13,1.64-.13l.36.37.79,1.29s-.42.33-.67.48-1.49.37-1.49.32.52-.52.14-.4-1.55.31-1.64.28.72-.32.43-.36-.9.27-.83.08.4-1.32.4-1.32Z"/><path class="cls-3" d="M5.56,21.98s-.95-.58-1.12-.86-.83-.83-.97-.99-.62-1.32-.7-1.62c-.05-.19-.2-.31-.2-.31,0,0,.43,1.74.33,1.89-.1.13-.56.09-.61.09s-1.08.43-.59.45,1.17-.29,1.4.09.41.5.31.76-.13.7-.32.74-.31.18-.31.18c0,0,.95-.27,1.4-.34s.22,0,.9.09.53.1.68.09-.19-.25-.19-.25Z"/><path class="cls-3" d="M9.86,21.87s.22.49.36.52.32.03.32.03c0,0-.21-.29-.27-.38s-.41-.18-.41-.18Z"/><path class="cls-3" d="M11.22,21.95s.22.49.36.52.32.03.32.03c0,0-.21-.29-.27-.38s-.41-.18-.41-.18Z"/><path class="cls-3" d="M15.61,19.14s.31-.5.52-.66.69-.42.69-.42c0,0-.69.71-.61,1.4s.36,1.1.61,1.21,1.22.11,1.42.13.72.38.79.5.41.68.29.67-1.24-.19-1.24-.19c0,0-.25-.23-.6-.44s-1.12-.15-1.41-.5-.57-1.37-.46-1.7Z"/><path class="cls-3" d="M16.8,21.62s.36.2.47.34.12.32.2.25.16-.14,0-.34-.66-.25-.66-.25Z"/><path class="cls-4" d="M18.13,21.19s.36.32.47.43.14.14.25.13.11-.13.11-.13l-.83-.43Z"/><path class="cls-3" d="M13.67,19.45s-1.02-1.5-.99-2.1.07-2.03.14-2.28.14-1.12-.14-.65-.58,1.63-.52,2.13.06,1.53-.16,1.5-.07,0,.32.33,1.35,1.07,1.35,1.07Z"/></svg>