<?xml version="1.0" encoding="UTF-8"?><svg id="Livello_1" xmlns="http://www.w3.org/2000/svg" viewBox="0 0 24.07 23.17"><defs><style>.cls-1{fill:#6a5228;}.cls-1,.cls-2,.cls-3,.cls-4,.cls-5,.cls-6,.cls-7,.cls-8,.cls-9,.cls-10{fill-rule:evenodd;stroke-width:0px;}.cls-2{fill:#d0c5b3;}.cls-3{fill:#896646;}.cls-4{fill:#9d734d;}.cls-5{fill:#424243;}.cls-6{fill:#805e3e;}.cls-7{fill:#8b6d32;}.cls-8{fill:#907033;}.cls-9{fill:#e5e5e6;}.cls-10{fill:#8b6c4d;}</style></defs><path class="cls-4" d="M19.73,6.02c-.07-.33-.94-1.92-1.1-2.07-.16-.15-.94.51-1.03,1.25-.08.74.65,2.3.97,2.21.31-.08,1.16-1.39,1.16-1.39Z"/><path class="cls-6" d="M16.11,11.85c.31.29,1.69,1.4,2.68,1.47s1.21.12,1.84,0c.63-.12,1.38-.05,1.63.19.25.24.29.65.15.6-.15-.05-.28-.07-.28-.07,0,0,.33.25.34.51.01.27-.07.34-.21.26-.14-.08-.41-.28-.41-.28,0,0,.4.56.16.59-.24.04-.48-.23-.48-.23,0,0,.23.5-.02.44-.78-.19-.73-.9-1.8-.41-.93.42-1.61,1.11-3.69.68-2.08-.44-2.51-1.04-2.18-2.22.34-1.18,2.27-1.54,2.27-1.54Z"/><path class="cls-4" d="M16.45,5.13c.92-.24,1.48-.39,3.36.56,1.89.94,2.13,2.27,2.37,2.59.24.31.63.73.56,1.04-.07.31-.19.68-.82.99-.63.31-1.06.34-1.64.51-.58.17-1.16.36-1.16.36,0,0,.53.19-.29,2.68-.82,2.49-2.35,3.8-2.35,3.8,0,0-.22,1.35-.51,2.37-.29,1.02-1.11,1.84-1.11,1.84,0,0,.41-.05,1.02-.1.6-.05,1.16.22,1.1.34-.06.12-1.18.02-1.11.02s.58.07.75.28c.17.21.15.34-.08.25-.23-.08-1.17-.34-1.09-.3.08.04.78.43.52.56-.26.13-.56-.29-.96-.29s-.57.1-1.21.17c-.64.07-1.28-.08-1.28-.08,0,0-.21.16-1.32.35-6.22,1.08-14.48-5.81-9.84-12.21,2.03-2.8,3.09-2.32,2.85-5.13C3.97,2.91,2.13-.23,2.8.01c.68.24,3.72,1.55,5.17,4.26,1.45,2.71-2.61,6.53-3.43,8.99-.82,2.47.94,5.34,2.06,6.07,1.11.73,1.45.68,1.45.68,0,0-1.23-2.1-.7-5.2.53-3.09,1.57-4.74,3.09-5.71,1.52-.97,2.44-.48,3.17-.92.73-.44,1.02-1.14,1.81-2.03.8-.89,1.03-1.03,1.03-1.03Z"/><path class="cls-3" d="M17.99,15.72c-.74,1.27-1.51,1.93-1.51,1.93,0,0-.22,1.35-.51,2.37-.29,1.02-1.11,1.84-1.11,1.84,0,0,.41-.05,1.02-.1.55-.04,1.06.17,1.1.3-.11-.05-.26-.1-.46-.14-.47-.08-.8-.02-1.43.04-.63.06-1.58-.1-1.58-.1,0,0,.11-.24.37-.6.27-.36.77-2.02.34-2.91-.44-.89-2.37-2.02-2.37-2.02,0,0,1.34-.18,1.99-.79.65-.6.91-1.18.91-1.18,0,0,1.35.36,1.41.39,0,0,.88.44,1.82.98Z"/><path class="cls-3" d="M15.96,22.91c-.26.13-.56-.29-.96-.29s-.57.1-1.21.17c-.64.07-1.28-.08-1.28-.08,0,0-.21.16-1.32.35-6.22,1.08-14.48-5.81-9.84-12.21,2.03-2.8,3.09-2.32,2.85-5.13C3.98,3.1,2.36.18,2.7,0c.59.58,2,2.1,2.23,3.45.29,1.72.97,4.16-1.16,6.34-2.13,2.18-3.31,4.76-2.22,7.35,1.09,2.59,4.71,4.98,7.06,5.34,2.35.36,3.32-.09,3.32-.09l.56.21s.89.13,1.4.1c.5-.03,1.05-.22,1.28-.16.24.07.74.38.79.37Z"/><path class="cls-2" d="M20.1,10.86c-.52.15-.99.31-.99.31,0,0,.53.19-.29,2.68-.82,2.49-2.35,3.8-2.35,3.8,0,0-.22,1.35-.51,2.37-.29,1.02-1.11,1.84-1.11,1.84,0,0-1.17.04-.93-.25.24-.29,1.09-1.35.82-2.93-.27-1.57-1.6-2.18-1.6-2.18,0,0,1.31-.33,2.83-2.37,1.51-2.04.92-3.84.92-3.84,0,0,1.09.49,2.03.57.4.03.82.02,1.17,0Z"/><path class="cls-7" d="M23.21,11.8c-.69-.59-1.96-.22-2.86.82-.89,1.04-1.06,2.36-.37,2.95.69.59,1.96.22,2.86-.82.89-1.04,1.06-2.36.37-2.95Z"/><path class="cls-8" d="M21.01,12.37c.29-.34.63-.61.97-.8.47-.11.91-.04,1.23.23.69.59.52,1.91-.37,2.95-.29.34-.63.61-.97.8-.47.11-.91.04-1.23-.23-.69-.59-.52-1.91.37-2.95Z"/><path class="cls-1" d="M23.37,11.58c-.84-.71-2.1-.6-2.82.24-.04.04-.07.09-.1.13.32.48.74.95,1.24,1.38.6.51,1.24.9,1.85,1.15.02-.02.03-.03.05-.05.7-.82.64-2.05-.14-2.77.15-.14.36-.35.48-.59.22-.44.12-1,.12-1h-.17s.07.59-.08.96c-.09.22-.28.43-.43.57Z"/><path class="cls-4" d="M16.25,11.17c.31.29,1.69,1.4,2.68,1.47.99.07,1.21.12,1.84,0,.63-.12,1.38-.05,1.63.19.25.24.29.65.15.6-.15-.05-.28-.07-.28-.07,0,0,.33.25.34.51.01.27-.07.34-.21.26-.14-.08-.41-.28-.41-.28,0,0,.4.56.16.59-.24.04-.48-.23-.48-.23,0,0,.23.5-.02.44-.78-.19-.73-.9-1.8-.41-.93.42-1.61,1.11-3.69.68-2.08-.44-2.51-1.04-2.18-2.22.34-1.18,2.27-1.54,2.27-1.54Z"/><path class="cls-3" d="M21.76,14.59c0,.06-.04.1-.12.08-.78-.19-.73-.9-1.8-.41-.93.42-1.61,1.11-3.69.68-2.06-.43-2.51-1.03-2.18-2.19.04.35.22,1.04.73,1.34.7.41,2.66.83,3.59.53.93-.3,2-.91,2.09-.93.08-.02.49.4.78.6.14.1.37.22.61.31Z"/><path class="cls-4" d="M18.38,5.92c-.07-.33-.94-1.92-1.1-2.07-.16-.15-.94.51-1.03,1.25-.08.74.65,2.3.97,2.21.31-.08,1.16-1.39,1.16-1.39Z"/><path class="cls-3" d="M17.05,3.89c-.29.16-.74.66-.8,1.21-.08.74.65,2.3.97,2.21.05-.01.12-.06.19-.13-.06,0-.13-.01-.2-.05-.26-.15-.78-.99-.63-2.04.08-.57.29-.96.47-1.2Z"/><path class="cls-5" d="M20.12,8.32c-.27,0-.5-.21-.5-.47s.22-.47.5-.47.5.21.5.47-.22.47-.5.47Z"/><path class="cls-9" d="M20.37,7.87c-.09,0-.17-.07-.17-.16,0-.09.08-.16.17-.16s.17.07.17.16c0,.09-.08.16-.17.16Z"/><path class="cls-10" d="M22.5,9.67c-.22,0-.4-.2-.4-.44s.18-.44.4-.44.4.2.4.44-.18.44-.4.44Z"/></svg>