<?xml version="1.0" encoding="UTF-8"?><svg id="Livello_1" xmlns="http://www.w3.org/2000/svg" viewBox="0 0 27.46 26.51"><defs><style>.cls-1{fill:#7b87a9;}.cls-1,.cls-2,.cls-3,.cls-4,.cls-5,.cls-6,.cls-7,.cls-8,.cls-9,.cls-10,.cls-11,.cls-12,.cls-13,.cls-14,.cls-15,.cls-16,.cls-17,.cls-18,.cls-19,.cls-20,.cls-21{stroke-width:0px;}.cls-2{fill:#3c4967;}.cls-3{fill:#97acd0;}.cls-4{fill:#241c1e;}.cls-5{fill:none;}.cls-6{fill:#ad676a;}.cls-7{fill:#9baece;}.cls-8{fill:#d3aa9d;}.cls-9{fill:#bbc7e0;}.cls-10{fill:#b0bcd3;}.cls-11{fill:#c89997;}.cls-12{fill:#cfab9c;}.cls-13{fill:#ead2c7;}.cls-14{fill:#dececa;}.cls-15{fill:#d9b5a8;}.cls-16{fill:#bc8f7a;}.cls-17{fill:#ecdbd2;}.cls-18{fill:#9ca6c7;}.cls-19{fill:#fff;}.cls-20{fill:#e4c2af;}.cls-21{fill:#becbd9;}</style></defs><path class="cls-19" d="M20.92,7.36c-.07,0-.14-.04-.18-.11-.06-.11,0-.21.03-.24.16-.23.9-1.17,1.18-1.31.07-.03.12-.05.18-.05.08,0,.15.03.21.09.01.01.02.03.03.05.33-.31.82-.74,1.08-.86.09-.04.18-.06.26-.06.19,0,.34.11.4.28.05.16,0,.33-.13.42-.17.13-1.9,1.39-1.9,1.39-.03.02-.09.04-.13.04-.07,0-.13-.03-.17-.08-.03-.04-.05-.09-.06-.16-.67.59-.74.59-.81.59Z"/><g id="Tracciato_28-2"><path class="cls-6" d="M20.94,7.12c.19-.28.89-1.14,1.11-1.25s.18.13.18.13l-.02.22s.97-.96,1.33-1.12.5.18.34.31c-.17.13-1.9,1.39-1.9,1.39,0,0-.1.06-.03-.28s-.02-.2-.02-.2c0,0-1.18,1.07-.99.78Z"/></g><path class="cls-19" d="M20.07,5.66c-.05,0-.18-.02-.21-.21-.05-.28-.16-1.47-.06-1.76.08-.22.22-.24.28-.24.03,0,.05,0,.07,0,.02-.56.06-1.48.17-1.76.09-.22.25-.25.31-.25.11,0,.22.06.32.18.12.14.23.38.2.56-.03.21-.4,2.32-.4,2.32-.02.09-.12.18-.22.18-.07,0-.12-.03-.18-.07-.08,1.04-.13,1.04-.31,1.04Z"/><g id="Tracciato_29-2"><path class="cls-6" d="M20.06,5.43c-.06-.34-.15-1.44-.07-1.67s.22-.03.22-.03l.14.18s.02-1.76.17-2.13c.15-.37.51.18.47.39s-.4,2.32-.4,2.32c0,0-.03.11-.21-.18s-.15-.13-.15-.13c0,0-.11,1.59-.17,1.25Z"/></g><path class="cls-19" d="M20.67,6.38c-.06,0-.12-.03-.16-.08-.07-.08-.04-.18-.03-.23.09-.35.56-1.78.82-2.06.09-.1.18-.14.28-.14s.17.05.23.11c.3-.63.84-1.74,1.12-2.01.1-.09.2-.14.3-.14.08,0,.22.03.33.22.12.22.16.64.02.86-.15.23-1.65,2.5-1.65,2.5-.04.05-.12.1-.19.1-.16,0-.23-.14-.27-.28-.62,1.15-.68,1.15-.8,1.15Z"/><g id="Tracciato_30-2"><path class="cls-6" d="M20.67,6.13c.11-.42.56-1.75.77-1.97s.27.08.27.08l.07.28s.92-2.03,1.28-2.39.5.47.35.69-1.65,2.49-1.65,2.49c0,0-.09.11-.15-.32s-.11-.23-.11-.23c0,0-.94,1.79-.84,1.37Z"/></g><path class="cls-19" d="M27.41,21.91l-.07-.48c-.13-.91-.23-1.63-.56-2.57-.13-.35-.06-.51.03-.75.1-.26.27-.7-.03-1.21-.13-.21-.16-.53-.19-.9-.03-.27-.05-.57-.13-.89l-.05-.22c-.17-.75-.39-1.68-1.02-2.2-.07-.05-.1-.13-.17-.33-.13-.37-.34-.92-1.13-1.39-.71-.42-1.15-.63-1.61-.86-.2-.1-.4-.19-.63-.31l-.14-.08c-.67-.35-1.37-.71-2.17-.83-.09-.08-.18-.17-.29-.27-.62-.6-1.3-.87-1.75-.98.06-.56.22-1.66.6-2.72.09-.25.14-.5.17-.75.27-1.22-.04-2.24-.85-2.78-.91-.61-1.86-.82-2.29-.89-.25-.2-.71-.5-1.37-.5-.16,0-.31.02-.47.05-.52.12-1.23.5-1.97.91-.44.25-1.11.62-1.27.65h-.05c-.85,0-1.39.71-1.48,1.42,0,.04-.04.14-.09.23-.12.28-.29.68-.31,1.32-.29,0-.57.09-.84.25-.24.14-.56.33-.83.49-.35.2-.47.27-.52.3-.42.22-.59.59-.54,1.17.04.38-.18,2.03-.25,2.37-.04.18-.39.91-.54,1.22-.07.14-.13.26-.16.33-.15.32-1.2,2.15-1.43,2.46-.26.34-1.64,2.37-1.93,2.79-.03.03-.07.06-.1.1-.24.1-.37.36-.54.71-.07.13-.19.38-.24.44-.42.53,0,1.09.14,1.29,0,.01.02.02.02.03-.03.3-.19,1.03-.24,1.29-.13.63-.04,1.21.25,1.61.2.27.49.43.82.46.26.02.6.13.76.18.3.19.68.29,1.13.29.73,0,1.69-.29,2.08-.6.27-.18,1.62-1.08,2.61-1.94-.13.43-.33,1.06-.7,1.49-.74.85-1.31,2.93-1.37,3.16-.05.19,0,.39.11.55.12.16.3.25.5.25h10.49c.86.35,1.73.6,2.67.79,1.69.34,2.77.4,3.37.4.24,0,.4,0,.5-.02.16.02.49.06.89.06.99,0,1.71-.23,2.14-.7.82-.88,1.27-2.56,1.07-3.9ZM8.88,9.91c-.4.25-.78.51-1,.97-.22.47-.49,1-.87,1.51.04-.1.55-1.32.65-1.47.11-.17.92-1.22,1.05-1.55.13-.33.27-.82.49-.97.22-.15.14.54.37.68.22.13.28.42.31.6.04.18-.6-.03-1,.23Z"/><path class="cls-2" d="M16.72,8.19s1.81.22,2.06,1.31-.82,2.86-1.89,3.14-3.72,1.85-3.7,1.82-.16-3.01-.16-3.01l3.69-3.26Z"/><path class="cls-1" d="M14.53,13.19s1.17-.76,2.01-.84,2.19-.3,2.36-1.35.34-1.5.34-1.5c0,0,2.16,1.32,2.87,2.12s2.84,2.83,2.74,4.11,0,6.17,0,6.17l-3.24,1.36-5.85-1.08-1.23-9Z"/><path class="cls-10" d="M12.55,10.44c.05.07,1.3,3.2,1.3,3.2l-.65,4.07-.65,2.18-2.91-.17-1.58-4.01.25-3.85s-.12-1.47,1.56-1.42,2.68,0,2.68,0Z"/><path class="cls-7" d="M8.53,17.97s.16,1.28,0,1.58-.33,1.41-.99,2.18-1.24,2.91-1.24,2.91h2.68s1.26-2.35,1.8-2.63,1.75-2.42,1.28-2.8-1.02-1.3-1.09-1.69-.84.59-.84,1.07-.55-1.49-.98-1.68-.7-2.98-.7-2.98l.1,4.05Z"/><path class="cls-9" d="M13.67,13.82s-1.07.99-1.16,2.82.35,4.04-.66,4.86-1.93,1.22-2.2,1.77-.67,1.37-.67,1.37h10.51s-1.49-1.45-2.55-2-.32-1.21,1.22-.91,2.01-.36,2.42-1.07-.1-1.67-.54-1.58-1.61.65-2.35,1.03,1.1-.79,2.01-1.31.83-.69.91-1.27.47-1.57-.91-2.4-.05-.59.47-.12.56-.27.65-.98,1.56-1.74,1.73-1.19-1.25,1.82-1.3,2.63,1.59-.78,2.77-.49-1.69.02-2.42,1.15-.81,1.49-.77,1.86-.23.51,0,1.3.51,2.13.75,2.55.73-1.36,2.42-.94-.27-.26-1.42.61-1.57.51-1.57.51c0,0,1.5.95,1.81,1.73s.51,2.07.51,2.07c0,0,1.86.32,2.55-.43s1.08-2.24.91-3.37-.24-1.9-.61-2.94.37-1.31.05-1.85-.22-1.25-.39-1.96-.34-1.66-.86-2.08-.22-1.08-1.22-1.67-1.44-.76-2.2-1.15-1.47-.79-2.3-.87c0,0,1.4,1.16,1.37,1.6s-.15.79-.59.86.58.34.79.12.23.37-.82.51-1.79.35-2.2.59-.56.57-1.5.16-1.27-.71-2.63.47Z"/><path class="cls-1" d="M11.66,10.94s-1.06,1.04-1.15,1.26.68-.09.92-.29.51.1.74-.02.48-.02.66.2,1.04,1.56,1.04,1.56l-.79-2.94-1.4.24Z"/><path class="cls-1" d="M8.56,14.63s.25,2.43.09,3.09-1.75,1.55-2.35,1.68-.9-.6.11-1.29,2.16-3.48,2.16-3.48Z"/><path class="cls-18" d="M4.76,21.26s1.56-1.02,2.61-1.95,1.28-1.59,1.28-1.59c0,0-1.02,1.23-1.94,1.21s1.21-.7,1.36-2.07.5-2.23.5-2.23l-.13-.71-.48-.73-2.65,1.67-1.36,4.22.82,2.19Z"/><path class="cls-21" d="M11.43,10.06s-1.13.26-1.84.33-1.11.13-1.35.88-1.4,2.03-1.62,2.42-1.18.78-1.31,1.15,0,1.79,0,1.79c0,0,.8-.69,1.56-.56s1.03-.64.47-1.1-1.4.07-1.4.07c0,0,.56-.66,1.18-.61s.22-.29.64-.47.69-.05.69-.05c0,0,.15-2.52.22-2.77s.49-.76,1.23-.46,1.55-.64,1.55-.64Z"/><path class="cls-20" d="M17.49,10.78c-.39.31-.85.56-.86,1.02,0,.05-.04.09-.1.12-.49.23-2.68-.17-2.68-.17l1.48-4.89.94-.95s.39,1.76.68,2.28c.28.51.59,1.07.83,1.25.25.18.1,1.04-.29,1.35Z"/><path class="cls-12" d="M13.02,10.54l.47,1.87s.87.45,1.37.42.54-.76,1.7-.84-.11-.26-.59-.16-.69-.59-.62-1.29.05-3.1.05-3.1c0,0,.45.05.67-.47s.21-1.06.21-1.06l-2.19.34-1.07,4.29Z"/><path class="cls-20" d="M9.44,3.93s-.12,1.74-.09,1.98.42.65.48.92-.1,1.25-.13,1.4-.02.34.15.45.29,0,.38.06.16.38.16.49.28.36.37.77-.02.73.18,1,.8.32,1.26.23,1.75-.97,2.18-1.51.64-2.23.7-2.47.43.37.87-.45.33-.97.36-1.4-.17-.77-.43-.81-.65-.13-.92.23-.77.7-1.41.13-1.09-1.73-1.67-1.71-2.44.67-2.44.67Z"/><path class="cls-12" d="M18.37,10.67c-.1.75-.76,1.29-.76,1.29h-.86l-.22-.04c.06-.03.1-.07.1-.12,0-.46.46-.72.86-1.02.39-.31.54-1.16.29-1.35l.53.33s.16.16.06.91Z"/><path class="cls-4" d="M12.13,3.66s-1.18.05-1.84.29-.93,1.27-.93,1.27c0,0-.15-.54-.15-.78s-.36.52-.28.78.41.46.41.46c0,0-.59,0-.61-.93s.34-1.27.39-1.65.34-.88.88-.87,2.51-1.38,3.4-1.57,1.42.43,1.42.43c0,0,1.14.1,2.21.82s.52,2.37.52,2.37c0,0,.26-1.53-.23-1.89s.7.75.15,2.32-.65,3.17-.65,3.17c0,0-.44.34-.46-.22s-.08-1.75-.08-1.75c0,0,.18-.84-.41-1.31,0,0-.58-.21-.97.45s-.46.83-1.04.41-1.31-1.82-1.72-1.8Z"/><path class="cls-4" d="M10.29,8.6s.32-.28.44-.19-.11.06-.44.19Z"/><path class="cls-12" d="M10.86,8.54s.29-.13.21-.4c0,0,.22.24-.21.4Z"/><path class="cls-16" d="M8.97,21.26s.21-.04.35-.09.25-.15.26-.25-.17.09-.21.17-.4.17-.4.17Z"/><path class="cls-8" d="M9.74,4.41s-.16.86-.11,1.05.81.88.87.93,1.09-.16,1.28-.17-.62.22-.72.32.52.18.75.09.04.22-.3.28-.7.27-.75.48-.11.28-.26.34-.15.2-.21.33-.33.45-.6.16l.13-.89-.47-1.43s-.16-1.05.39-1.51Z"/><path class="cls-4" d="M9.9,6.26s.07.21.44.28,1.01-.24,1.27-.28.28-.07.18-.18-.8.11-1.14.15-.89-.13-.75.03Z"/><path class="cls-4" d="M10.86,6.62s.31.09.69.06.5-.13.5-.13c0,0-.13.18-.7.18s-.6-.17-.48-.11Z"/><path class="cls-15" d="M10.32,7.6c-.1,0-.25-.24-.26-.26,0,.02.1.32.11.44,0,.11.04.41-.21.33-.25-.07-.16-.34-.23-.37-.03-.02-.14-.07-.23-.12-.09-.05-.17-.09-.17-.09-.32.28-.68.18-.7.33-.01.15-.55,1.14-.67,1.64,0,.03-.01.05-.02.08h0c-.14.46-.48.76-.76,1.08-.29.34-.43.86-.58,1.4-.15.54-.66,2.09-.81,2.62-.15.53-.62,2.58-.69,3.16-.07.58-.41.64-1.26.96-.86.32-1.62,0-1.62,0l.11-1.64,1.89-4.15,1.82-3.75.13-2.43s.05-.29.06-.46c0-.16.29-.33.29-.33,0,0,1.05-.61,1.29-.73.24-.12.55-.04.55-.04l.25.1.47.25s.85.45.91.53c.05.08.57.59.57.73,0,.14-.11.2-.11.2,0,0,.08.05.12.25.04.2-.15.29-.25.29Z"/><path class="cls-14" d="M1.54,16.39s-.49.37-.39.81.19,1.2.19,1.2l.89.39s1.15-2.89,1.69-4.24,1.2-3.18,1.71-3.99,1.14-1.17,1.23-1.68.58-.82.46-1.08-.31,0-.47.29-.56.83-.56.83c0,0,.53-.93.5-1.23s.15-.79.44-.85c0,0-.24-.14-.44.23s-.45.77-.45.77c0,0,.14-.67.16-.93s.07-.55.34-.62.5-.02.85-.25.96-.5,1.13-.47.27.02.27.02c0,0-.23-.16-.58-.03s-.87.36-1.15.47-.6.08-.77.16-.24.28-.24.42-.18-.26.02-.44.59-.32.89-.51.75-.51,1.12-.42c0,0-.32-.17-.77.11s-1.23.71-1.34.78-.29.08-.25.58-.2,2.26-.26,2.56-.6,1.36-.75,1.69-1.22,2.2-1.49,2.57-1.96,2.84-1.96,2.84Z"/><path class="cls-16" d="M7.86,6.55s.99-.4,1.12-.41.47.11.47.11c0,0-.25-.19-.58-.11s-1,.41-1,.41Z"/><path class="cls-16" d="M8.18,7.16s.82-.31.94-.35.24-.07.4.04.54.5.54.5c0,0-.5-.47-.72-.51s-1.1.45-1.22.43-.06-.07.06-.11Z"/><path class="cls-16" d="M9.51,7.62s-.34.12-.6.29c-.25.17-.56.92-.65,1.27-.1.35-.31.39-.31.39h0s.02-.05.02-.08c.12-.5.66-1.5.67-1.64.01-.15.38-.05.7-.33,0,0,.08.04.17.09Z"/><path class="cls-13" d="M10.16,7.72s-.14.04-.13.14,0,.23.04.25.09-.03.1-.11-.02-.29-.02-.29Z"/><path class="cls-13" d="M10.46,7.06s-.11.06-.13.11.14.34.16.38.12-.09.12-.18-.05-.23-.14-.31Z"/><path class="cls-13" d="M10.56,6.86s-.14-.22-.19-.25-.13.09-.13.15.22.31.22.31c0,0,.11-.04.11-.2Z"/><path class="cls-8" d="M16.11,5.53s0-.55-.4-.65-.56.48-.53.77.49.23.46.47-.28.13-.37.26.02.17.13.35.27-.18.44-.56.24-.33.27-.64Z"/><path class="cls-21" d="M1.23,16.75s.09,1.42,1,2.04c0,0,0,1.12,0,1.53s0,1.18,0,1.18c0,0-.56-.2-1-.24s-.65-.61-.5-1.31.28-1.36.26-1.55-.5-.56-.31-.8.63-1.29.55-.84Z"/><path class="cls-3" d="M2.05,18.69s1,.3,1.76-.1,1.11-.31,1.3-.75.19.44.19,1.01-.05.94-.19,1.25-.19.97-.35,1.16-1.81.79-2.54.24c0,0-.19-.79-.17-1.4s0-1.41,0-1.41Z"/><path class="cls-21" d="M13.67,13.82s1.57-1.68,2.38-1.86,1.33-.06,1.59-.18,1.11-2.09.62-2.95c0,0-.31-.36-1.22-.5l-.08-.15s.99.06,1.83.89,1.03.82,1.09,1.47,1.21,1.67.88,1.76-1.18.33-1.75.13-.21-.39-.6-.13-.66.13-.93.4-.03.49-.83.31-2.09.07-2.98.81Z"/><path class="cls-1" d="M8.8,22.12s-.43.51-.43.85-.28.73.19.56,1.15-.4,2.02-.26,1.71.41,2.74.46,2.13.91,2.13.91h3.09s-5.56-2.41-6.86-2.63-2.87.11-2.87.11Z"/><path class="cls-12" d="M9.63,20.14s-.34.19-.55.35-.15.42-.1.53-.02.24-.02.24c0,0-.33.16-.33.4s.16.46.16.46c0,0-.15.22-.16.44s-.12.63-.06.69.3-.08.66-.11.84-.19,1.38-.19,1.25.22,1.85.23.61-.09,1.75.26,2.63,1.46,5.35,2,3.75.37,3.75.37v-.96s-.89-1.1-1.57-1.27-8.73-2.89-8.73-2.89c0,0-1.7-.77-3.39-.55Z"/><path class="cls-20" d="M23.33,24.85s-.34-2.67-2.33-2.84-4.24-.64-5.29-.78-2.01-.59-2.3-.86-.63-1.22-1.11-1.32-.93-.29-1.18-.45-.51-.39-.69-.2.2.91.37,1.04.41.23.41.23c0,0-.31.16-.45.2s-.8-.04-1.06.21-.04.59-.04.59c0,0-.07-.51.42-.44s2.33.11,2.95.8.55,1.32,1.53,1.27,7.49,2.51,8.78,2.56Z"/><path class="cls-16" d="M8.62,23.27s.23-.35.38-.44.36-.23.59-.17-.35.11-.51.17-.47.44-.47.44Z"/><path class="cls-16" d="M8.8,22.12s.48-.28.69-.29.01.1-.17.14-.57.22-.57.22l.04-.07Z"/><path class="cls-17" d="M11.15,18.62s-.15.18-.27.23-.29-.17-.38-.27-.02-.28.12-.25.42.2.53.29Z"/><path class="cls-4" d="M11.85,9.24c-.05,0-.89.02-.89.02l-.46.19.13.19h.63l.59-.4Z"/><path class="cls-11" d="M10.64,9.49s-.17.05-.29-.07-.03-.34,0-.26.12-.08.32-.08,1.18.17,1.18.17c0,0-.65.23-1.21.24Z"/><path class="cls-11" d="M11.49,9.65s-.47.33-.53.41-.27.07-.38-.08-.08-.48.07-.49.24.11.63,0,.58-.24.58-.24c0,0-.02.16-.36.41Z"/><path class="cls-5" d="M21.83,9.68c.04.18-.6-.03-1,.23-.4.25-.78.51-1,.97-.22.47-.47.88-.65,1.11.04-.1.32-.91.42-1.07.11-.17.92-1.01,1.05-1.34.13-.33.3-.83.52-.98.22-.15.11.34.34.47.22.13.28.42.31.6Z"/></svg>