<?xml version="1.0" encoding="UTF-8"?><svg id="Complications" xmlns="http://www.w3.org/2000/svg" viewBox="0 0 31.72 25.42"><defs><style>.cls-1{fill:#d6cfc5;}.cls-1,.cls-2,.cls-3,.cls-4,.cls-5,.cls-6,.cls-7,.cls-8,.cls-9,.cls-10,.cls-11,.cls-12,.cls-13,.cls-14,.cls-15,.cls-16,.cls-17,.cls-18,.cls-19,.cls-20,.cls-21,.cls-22,.cls-23,.cls-24,.cls-25,.cls-26,.cls-27,.cls-28,.cls-29,.cls-30,.cls-31,.cls-32,.cls-33,.cls-34{stroke-width:0px;}.cls-2{fill:#cfcfcf;}.cls-3{fill:none;}.cls-4{fill:#b1bad0;}.cls-5{fill:#b3ada5;}.cls-6{fill:#aa8275;}.cls-7{fill:#e6d9d0;}.cls-35{stroke:#fff;stroke-linecap:round;stroke-linejoin:round;stroke-width:1.08px;}.cls-35,.cls-27{fill:#fff;}.cls-8,.cls-13{fill:#9fb2bd;}.cls-8,.cls-29{opacity:.3;}.cls-9{fill:#424a66;}.cls-10{fill:#aa837c;}.cls-11{fill:#c3a89a;}.cls-12{fill:#dedcda;}.cls-14{fill:#9eabcb;}.cls-15{fill:#ba9795;}.cls-16{fill:#e4dfdb;}.cls-17{fill:#7e85a5;}.cls-36{opacity:.4;}.cls-18{fill:#a19a93;}.cls-19{fill:#272223;}.cls-20{fill:#eceded;}.cls-21{fill:#d9c0ad;}.cls-22{fill:#bcc5dd;}.cls-23{fill:#ae8d7a;}.cls-24{fill:#bfc9d6;}.cls-25{fill:#569796;}.cls-26{fill:#8acac9;}.cls-28{fill:#7c544c;}.cls-29{fill:#000;}.cls-30{fill:#c6a79b;}.cls-31{fill:#f2ece7;}.cls-32{fill:#f1f3f3;}.cls-33{fill:#916b60;}.cls-34{fill:#c4a090;}</style></defs><path class="cls-35" d="M31.18,5.41L22.41.54l-.43.25h0s0,.7,0,.7v1.72l-4.7,2.72-3.77,1.7-3.77,2.47-3.89,2.16-3.45,2.18-1.43-.83-.43.25.05.04-.05-.03v5.92l8.77,5.06v.02s.43-.25.43-.25h0s21.01-12.2,21.01-12.2h0s.41-.25.41-.25l.02-6.77ZM23.68,1.71l.13.07-1.41-.77,1.28.7Z"/><polygon class="cls-16" points="4.68 19.9 4.68 19.71 4.45 19.57 4.12 19.57 3.89 19.71 3.89 19.9 4.12 20.03 4.45 20.03 4.68 19.9"/><rect class="cls-5" x="4.12" y="20.03" width=".33" height=".29"/><polygon class="cls-1" points="4.12 20.32 3.89 20.18 3.89 19.9 4.12 20.03 4.12 20.32"/><polygon class="cls-18" points="4.45 20.32 4.68 20.18 4.68 19.9 4.45 20.03 4.45 20.32"/><polygon class="cls-27" points="22.74 14.47 23.4 14.84 23.71 14.88 24.47 14.47 24.78 14.05 24.12 13.67 22.74 14.47"/><polygon class="cls-27" points="7.76 21.85 8.42 22.23 12.38 20.14 28.54 10.79 29.43 10.1 28.77 9.72 7.76 21.85"/><polygon class="cls-27" points="2.29 18.67 2.95 19.04 6.91 16.66 23.07 7.32 23.96 6.91 23.3 6.54 2.29 18.67"/><polygon class="cls-10" points="31.18 5.41 30.77 5.59 28.68 4.61 23.68 1.71 21.98 .79 22.41 .54 31.18 5.41"/><polygon class="cls-28" points="31.16 12.19 30.73 12.43 30.56 9.89 30.56 7.18 30.64 5.58 31.18 5.41 31.16 12.19"/><path class="cls-33" d="M29.94,5.14L21.98.79v5l8.77,5.07v-5.29l-.82-.41Z"/><polygon class="cls-2" points="29.85 9.74 29.71 9.82 23.02 5.96 22.8 5.57 22.8 2.82 22.94 2.74 29.85 9.74"/><polygon class="cls-27" points="14.12 9.97 13.85 9.81 20.08 6.2 20.36 6.36 19.73 6.84 16.55 8.68 14.12 9.97"/><polygon class="cls-27" points="14.12 8.43 13.85 8.27 20.08 4.67 20.36 4.83 19.73 5.31 16.55 7.15 14.12 8.43"/><polygon class="cls-12" points="13.87 10.47 13.59 10.31 13.59 8.17 13.87 8.33 14.02 8.65 14.02 9.93 13.87 10.47"/><polygon class="cls-12" points="20.36 6.36 20.08 6.2 20.08 5.09 20.36 5.01 20.51 5.05 20.51 6.14 20.36 6.36"/><polygon class="cls-12" points="20.36 4.83 20.08 4.67 20.08 4.56 20.23 4.47 20.44 4.65 20.36 4.83"/><path class="cls-2" d="M14.12,9.97v-1.18l6.24-3.6v1.18l-6.24,3.6Z"/><polygon class="cls-27" points="2.49 16.68 2.22 16.52 8.45 12.92 8.73 13.08 8.1 13.56 4.92 15.4 2.49 16.68"/><polygon class="cls-27" points="2.49 15.15 2.22 14.99 8.45 11.39 8.73 11.55 8.1 12.03 4.92 13.87 2.49 15.15"/><polygon class="cls-12" points="2.24 17.18 1.96 17.02 1.96 14.88 2.24 15.04 2.39 15.36 2.39 16.64 2.24 17.18"/><polygon class="cls-12" points="8.73 13.08 8.45 12.92 8.45 11.8 8.73 11.73 8.88 11.76 8.88 12.86 8.73 13.08"/><polygon class="cls-12" points="8.73 11.55 8.45 11.39 8.45 11.28 8.6 11.19 8.81 11.37 8.73 11.55"/><path class="cls-2" d="M2.49,16.68v-1.18l6.24-3.6v1.18l-6.24,3.6Z"/><polygon class="cls-1" points="9.74 22.98 .97 17.91 .97 17.42 10.4 22.1 9.74 22.98"/><polygon class="cls-18" points="9.74 22.98 9.74 22.48 11.06 19.66 25.99 11.82 30.75 10.35 30.75 10.85 9.74 22.98"/><polygon class="cls-16" points="9.74 22.48 .97 17.42 19.51 6.72 30.75 10.35 9.74 22.48"/><polygon class="cls-31" points="26.05 13.07 17.28 8.01 17.28 5.93 26.71 10.61 26.05 13.07"/><polygon class="cls-2" points="26.05 13.07 26.05 10.99 25.92 9.76 28.75 7.8 30.75 8.28 30.75 10.35 26.05 13.07"/><polygon class="cls-20" points="26.05 10.99 17.47 7.96 17.28 5.93 21.98 3.21 30.75 8.28 26.05 10.99"/><path class="cls-29" d="M26.69,8.7l.4-.81,1.5-.86v-1.56l.43-.25-.41-.24-1.14.37-5.25-.78.22-1.1s-.29.29-.41.58-.19.34-.19.34l-.85.87,1.08.6,2.03,1.63,1.72.68.88.52Z"/><path class="cls-32" d="M22.09,5.72l-.06-.25-.44-.27.4-.63.1-.53c.25-.44.51-1.26.83-1.35s.41-.06.53-.24.14-.53.37-.53.44.16.44.16l1.43,1.5s1.04-.28,1.42,0,.84.98.84.98c0,0,.79.09.79.28s-.45.56-.45.56c0,0-.14,1.27-.23,1.49s-1.04.91-1.04.91l-.32.9-.67-.68-1.93-.52-2-1.77Z"/><path class="cls-8" d="M22.09,5.72l-.06-.25-.44-.27.42-.06.24.22.14.36,1.7,1.44s1.8.34,1.95.54.36.28.53.09.07-.45.24-.76.58-.2.71-.5.37-1.39.37-1.39c0,0,.83-.49.83-.31s-.45.56-.45.56c0,0-.15,1.27-.23,1.49s-1.04.91-1.04.91l-.32.9-.67-.68-1.93-.52-2-1.77Z"/><polygon class="cls-25" points="9.74 22.48 .97 17.42 .97 15.34 10.4 20.03 9.74 22.48"/><polygon class="cls-6" points="9.74 22.48 9.74 20.41 11.06 17.58 21.28 12.45 26.05 10.99 26.05 13.07 9.74 22.48"/><polygon class="cls-26" points="9.74 20.41 .97 15.34 17.28 5.93 22.86 10.28 26.05 10.99 9.74 20.41"/><path class="cls-34" d="M23.05,8.79s.22.97.62,1.36c.57.54,2.34.62,2.38.84s-16.25,9.38-16.25,9.38L.97,15.34l4.88-3.08,3.89-2.16,3.77-2.47,3.77-1.7.62.79,5.16,2.08Z"/><g class="cls-36"><polygon class="cls-6" points="22.52 7.21 21.59 8.18 20.72 9.12 18.93 11.1 15.55 12.59 14.26 13.65 12.48 14.45 11.1 15.51 10.94 14.85 10.71 14.56 10.45 13.91 9.13 14.26 8.57 13.81 7.76 12.46 7.94 12.36 8.87 13.42 10.11 13.15 11.49 12.2 12.89 10.85 13.38 10.65 15.49 8.7 18.11 7.45 15.22 8.68 13.36 10.44 12.7 10.75 11.29 12.2 9.8 13.08 8.99 13.17 7.89 12.2 7.52 12.32 7 13.01 6.75 14.34 8.5 15.51 10.03 17.24 11.1 17.4 11.65 16.89 13.46 15.87 14.86 14.34 16.06 13.4 19.19 12.32 20.99 10.44 22.17 9.6 23.07 8.8 22.52 7.21"/><polygon class="cls-6" points="11.15 14 15.11 11.61 17.38 9.45 14.75 11.55 11.15 14"/></g><polygon class="cls-13" points="22.98 8.29 23.07 8.88 23.81 9.2 24.02 8.75 23.29 8.16 22.98 8.29"/><polygon class="cls-10" points="9.74 18.7 9.31 18.95 6.43 17.45 1.43 14.55 .54 13.86 .97 13.61 9.74 18.7"/><polygon class="cls-28" points="9.74 24.63 9.31 24.88 9.12 22.27 9.12 19.56 9.31 18.95 9.74 18.68 9.74 24.63"/><path class="cls-33" d="M.54,13.87v5.92l8.77,5.07v-5.93L.54,13.87Z"/><path class="cls-29" d="M25.3,4.07s.75.13.75.43.16.88-.16.97-.76.46-.54.87-.17,1.77-.17,1.77l-1.07-2.09-.55-1.13,1.73-.83Z"/><path class="cls-22" d="M21.53,4.76s0-.06-.42.06c-.16.05-.26.09-.52.23-.06.03-.24.13-.3.16-.1.05-.15.23-.36.35-.39.22-.66.08-.85.19-.3.18-.48.46-.46.53.02.09-.39.34-.39.34l.78.75,1.66-1.48.87-1.14Z"/><path class="cls-9" d="M24.5,5.31s.34.43.16.71-.78.43-1.07.26-1.18-.4-1.17-.4.61-.67.61-.67l1.47.1Z"/><path class="cls-17" d="M22.98,5.9s.41.09.6.25.52.4.78.22.39-.25.39-.25c0,0,.17.74.15,1.06s0,1.2-.29,1.45-1.31,1.3-1.31,1.3l-.97-.4-1.01-1.47,1.65-2.16Z"/><path class="cls-14" d="M20.77,5.67s.63-.88.77-.91.74-.07.88,0-.4.78-.4.78l-.82.55-.41.05-.02-.45Z"/><path class="cls-4" d="M23.14,4.9s-.4.95-.4.95l-1,.72-.6.32-.47-.53s.37-.51.45-.58c.49-.49.24-.86.79-1.02.39-.12,1.24.14,1.24.14Z"/><path class="cls-14" d="M20.7,5.63s-.24.3-.33.33-1.6,1.27-1.6,1.27l.41.17s.96-.51,1.13-.45.88-.14.86-.32.06-.49.13-.59-.3-.05-.4.05.2-.43.15-.56.48-.78.48-.78l-.84.88Z"/><path class="cls-22" d="M22.66,5.85s-.43-.02-.84.35-.78.93-1.17.89-.67-.15-.84-.09-.43.15-.43.15l2.22,2.23s0-.62-.11-.96.19-.32.45.07.5.35.74.29.33-.37.22-.45-.48-.21-.71-.28.4.07.7.15.32.03.46-.08.43-.23.32-.7.11-.13.12.07.18.06.34-.07.7-.04.62.12-.65.12-.83.28.5.17.69.48-.36-.35-.76-.27-.49.14-.56.23-.16.06-.28.27-.34.56-.38.7.44-.13.71.32,0-.11-.43-.17-.44-.23-.44-.23c0,0,.11.52.02.75s-.33.55-.33.55c0,0,.33.46.63.45s.7-.24.91-.52.35-.45.49-.75.36-.2.4-.38.22-.31.33-.5.28-.42.26-.62.18-.28.1-.61-.14-.47-.22-.71-.14-.48-.3-.67c0,0,.05.54-.05.63s-.2.14-.31.06.05.2.14.19-.03.13-.28-.07-.45-.31-.59-.34-.24,0-.35-.28-.12-.42-.65-.46Z"/><path class="cls-17" d="M22.85,4.82s-.44,0-.51.02.16.13.26.13.09.13.16.15.11.1.1.18-.11.55-.11.55l.46-.79-.35-.25Z"/><path class="cls-21" d="M24.12,6.02c-.15-.02-.3-.06-.4.03-.01.01-.03.01-.05,0-.15-.06-.53-.61-.53-.61l1.35-.72h.4s-.29.45-.34.62c-.05.17-.1.35-.09.44.01.09-.2.24-.35.22Z"/><path class="cls-11" d="M23.22,5.02l-.3.49s.09.28.2.38.27-.05.54.18.03-.08-.09-.16-.02-.27.14-.4.67-.64.67-.64c0,0,.09.11.24.04s.27-.18.27-.18l-.53-.39-1.13.68Z"/><path class="cls-21" d="M23.87,2.86s-.36.36-.4.42-.08.2-.13.27-.29.24-.32.27-.08.07-.06.13.06.06.07.09-.05.11-.07.14-.02.13-.09.24-.16.15-.17.25.1.24.22.32.57.17.78.14.61-.34.67-.37.01.17.28.09.28-.13.37-.22.13-.2.08-.26-.11-.17-.24-.15-.31-.02-.33-.27.14-.6.01-.72-.66-.37-.66-.37Z"/><path class="cls-11" d="M24.32,6.18c-.18.14-.43.11-.43.11l-.18-.18-.04-.05s.04,0,.05,0c.1-.1.25-.05.4-.03.15.02.36-.13.35-.22l.04.18s0,.07-.18.2Z"/><path class="cls-19" d="M24.49,3.38s-.26-.24-.45-.33-.47.07-.47.07c0,0,.08-.15.14-.2s-.19.03-.22.11-.01.18-.01.18c0,0-.12-.13.07-.32s.34-.2.43-.26.26-.11.37,0,.82.24,1.05.39.21.39.21.39c0,0,.22.26.29.64s-.39.61-.39.61c0,0,.38-.27.35-.45s-.01.31-.46.52-.81.53-.81.53c0,0-.17-.02-.05-.14s.35-.39.35-.39c0,0,.22-.14.19-.36,0,0-.08-.17-.3-.11s-.27.08-.31-.13.11-.66.02-.74Z"/><path class="cls-19" d="M23.06,4.03s.13,0,.13.05-.04-.01-.13-.05Z"/><path class="cls-11" d="M23.19,4.14s.09.03.13-.04c0,0,0,.1-.13.04Z"/><path class="cls-30" d="M23.83,3.03s-.22.15-.25.2-.02.36-.01.38.26.2.31.24-.18-.08-.22-.08.07.15.14.18-.04.06-.12,0-.2-.09-.26-.06-.08.04-.13.02-.07.01-.11.03-.17.02-.16-.09c0,0,.3-.21.32-.27l.11-.25s.17-.3.38-.28Z"/><path class="cls-19" d="M23.47,3.45s-.03.06.03.15.27.16.33.21.07.05.08,0-.19-.15-.27-.21-.16-.22-.17-.15Z"/><path class="cls-19" d="M23.6,3.73s.05.09.13.16.13.08.13.08c0,0-.07,0-.19-.11s-.09-.16-.08-.13Z"/><path class="cls-30" d="M24.94,4.62s.12-.11.05-.22-.22-.02-.27.05.05.15,0,.2-.09-.03-.14-.02-.03.04-.05.1.09.02.21-.02.12-.02.19-.08Z"/><path class="cls-24" d="M22.66,5.85s.69-.02.9.11.29.27.37.3.68-.21.76-.49c0,0,0-.14-.15-.36v-.05s.21.22.21.58.04.39-.08.54-.1.61-.19.56-.32-.18-.4-.34.04-.13-.1-.16-.17-.11-.28-.11-.11.1-.24-.11-.46-.43-.8-.46Z"/><path class="cls-17" d="M19.88,6.57s-.2.02-.27.09-.21.09-.08.16.33.16.48.37.27.45.48.68.26.64.26.64l.65.65s-.66-1.69-.89-2.01-.63-.59-.63-.59Z"/><path class="cls-11" d="M20.47,6.33s-.11-.03-.19-.04-.12.06-.13.09-.05.05-.05.05c0,0-.11-.04-.16.01s-.06.13-.06.13c0,0-.08.02-.13.06s-.16.11-.16.13.08.05.16.12.22.14.33.25.22.31.34.44.15.11.32.43.25.87.71,1.56.71.87.71.87l.2-.2s.05-.42-.06-.6-1.23-2.46-1.23-2.46c0,0-.2-.52-.6-.84Z"/><path class="cls-21" d="M22.36,10.23s.49-.64.11-1.09-.76-1.03-.95-1.29-.3-.55-.3-.67.13-.39.05-.51-.14-.26-.15-.35-.02-.19-.1-.19-.15.23-.14.3.04.13.04.13c0,0-.1-.03-.14-.05s-.16-.18-.27-.18-.13.12-.13.12c0,0,.1-.12.18,0s.47.52.45.8-.16.4.05.59,1.05,2.12,1.31,2.4Z"/><path class="cls-23" d="M19.59,6.77s.12-.03.18-.01.12.03.16.09-.1-.05-.14-.07-.19,0-.19,0Z"/><path class="cls-23" d="M19.88,6.57s.16.04.21.09-.02.02-.07,0-.17-.07-.17-.07h.02Z"/><path class="cls-7" d="M21.11,6.33s-.07,0-.11,0-.03-.1-.02-.14.05-.06.08-.03.05.13.05.17Z"/><path class="cls-19" d="M23.25,4.5s-.19-.18-.19-.18l-.14-.06v.07s.12.13.12.13l.21.04Z"/><path class="cls-15" d="M22.94,4.29s-.05-.03-.04-.08.07-.08.06-.06.04,0,.08.05.21.29.21.29c0,0-.18-.09-.31-.2Z"/><path class="cls-15" d="M23.09,4.51s-.17-.03-.2-.03-.07-.04-.06-.1.09-.12.12-.09.03.08.13.13.17.07.17.07c0,0-.04.03-.16,0Z"/><path class="cls-3" d="M25.26,6.71s-.12-.13-.26-.16c-.14-.03-.27-.06-.42,0-.15.05-.29.09-.37.1.03-.01.26-.12.32-.14.06-.01.41-.02.51-.06.1-.04.24-.11.32-.1.08.02-.05.09-.03.17.02.08-.03.15-.06.19Z"/><path class="cls-17" d="M18.23,6.62s-.62-.36-.23-.07c.3.23.65.39.8.64.33.57,1.5.91,1.5.91l-.71-.8s-.43-.28-.91-.62c-.2-.14-.45-.06-.45-.06Z"/><path class="cls-34" d="M17.98,7.21l-.71-1.29s.79.62,1.49,1.04c.38.22.74.24.92.39.52.43,1.06,1.15,1.06,1.15l.31.31-3.07-1.61Z"/><polygon class="cls-33" points="9.74 21.14 30.75 9.23 30.75 12.43 9.74 24.65 9.74 21.14"/><path class="cls-17" d="M20.88,5.44s-.26-.39-.21-.23.17.28.1.35-.29-.04-.28,0,.15.09.14.13.25-.25.25-.25Z"/><circle class="cls-17" cx="22.27" cy="6.2" r=".1"/><circle class="cls-17" cx="21.47" cy="6.89" r=".1"/><path class="cls-17" d="M19.63,6.29s-.36-.45-.51-.37-.23.14-.1.18.62.19.62.19Z"/><path class="cls-17" d="M18.76,6.2c-.04.05.11.14.19.17s.43.25.43.25c0,0-.51-.56-.61-.41Z"/></svg>