<?xml version="1.0" encoding="UTF-8"?><svg id="Complications" xmlns="http://www.w3.org/2000/svg" viewBox="0 0 32 32"><defs><style>.cls-1{stroke:#23110c;}.cls-1,.cls-2,.cls-3{fill:none;}.cls-1,.cls-3{stroke-linecap:round;stroke-linejoin:round;stroke-width:.06px;}.cls-2,.cls-4,.cls-5,.cls-6,.cls-7,.cls-8,.cls-9,.cls-10,.cls-11,.cls-12,.cls-13,.cls-14,.cls-15,.cls-16,.cls-17{stroke-width:0px;}.cls-4{fill:#625651;}.cls-5{fill:#c6b7b4;}.cls-6{fill:#785546;}.cls-7{fill:#4e4441;}.cls-8{fill:#5d4135;}.cls-9{fill:#000;}.cls-10{fill:#ededed;}.cls-11{fill:#ac9c97;}.cls-12{fill:#503d33;}.cls-13{fill:#6c4c3c;}.cls-14{fill:#c5aea7;}.cls-15{fill:#685b56;}.cls-16{fill:#7c5747;}.cls-18{opacity:0;}.cls-3{stroke:#30150d;}.cls-17{fill:#2f2f2e;}</style></defs><rect class="cls-2" width="32" height="32"/><path class="cls-14" d="M19.83,16.81c.32.14.81.62,1.17.65.36.03,1.16.35,1.28.51.13.16,0,.22.03.3.03.06.1.35-.19.41-.29.06-.52-.32-.65-.27-.13.05.36.49,0,.49s-.52-.38-.78-.41c-.25-.03-.62-.27-.81-.6s-.48-1.01-.48-1.01l.41-.05v-.02Z"/><path class="cls-11" d="M21.01,17.46l-.21-.05-.35-.19-.63.52.06.13s.17.29.29.38.29.19.33.19c.14,0-.25-.05.03-.44.29-.4.46-.52.46-.52l.02-.02Z"/><path class="cls-3" d="M27.87,10.19c-.98.35-2.2,1.24-2.63,2.22"/><path class="cls-3" d="M26.54,11.6c-.27.13-1.32.73-1.25,1.06"/><path class="cls-3" d="M27.8,11.87c-.55.05-1.12.27-1.63.49-.22.1-.73.32-.82.51"/><path class="cls-3" d="M27.95,12.53c-.76-.06-1.96.05-2.58.51"/><path class="cls-3" d="M27.99,13.42c-.29-.29-1.08-.27-1.46-.3-.19,0-.9-.05-.98.05"/><path class="cls-3" d="M27.58,13.59c-.63-.24-1.38-.36-2.04-.38"/><path class="cls-14" d="M16.49,18.89c-.49.71-.71,1.33-.13,1.44s2.76.16,3.11.13c.35-.05,1.05.06,1.08.41.03.35-.11.4-.68.44-.57.06-1.25.05-1.52.06-.27.03-2.33.24-2.58,0-.27-.22-.95-.55-1.05-.87s.35-1.68.35-1.68l1.44.05-.02.02Z"/><path class="cls-11" d="M15.81,19.9s.27.4.55.43.79.08.79.08c0,0-.44-.05-.82.08s-.51.32-.68.65c-.06.11.11.25.68.29.29,0,2.34-.17,2.34-.17,0,0,1.16-.11,1.38-.13s.29-.17.32-.29-.03-.06,0-.1.19.11.19.11c0,0,.05.22-.11.33s-.35.1-.41.1c-.86.13-1.17.08-1.43.08s-.87.06-1.03.08-1.2.08-1.43.05-.24,0-.4-.1-.48-.32-.51-.35c-.06-.03-.55-.35-.54-.52,0-.17.02-.43.02-.43,0,0,1.08-.19,1.08-.19Z"/><path class="cls-14" d="M12.81,20.14c-.38.52-.49,1.16-.05,1.39s.79.4,1.39.52.97.06,1.17.06c.51,0,1.14.11.63.62-.19.19-.4.13-.59.19-.32.1-.65.22-1.05.22s-1.08-.16-1.33-.29c-.41-.21-.86-.48-1.32-.82-.48-.36-.84-.35-.65-1.05.19-.71.78-1.08.78-1.08l1.01.24-.02-.02Z"/><path class="cls-11" d="M12.51,20.77s-.08.32,0,.46.03.17.21.27.36.19.36.19c0,0-.65-.19-.95-.19s-.35.16-.29.3.84.76.89.81.35.27.35.27c0,0-.43-.21-.67-.36s-1.11-.7-1.22-.82-.25-.24-.21-.48.1-.44.19-.59c.08-.13,1.35.14,1.35.14h-.02Z"/><path class="cls-12" d="M15.89,22.36c.19-.08.4-.02.59.13.17.14-.1.05-.3.03-.19-.02-.29-.16-.29-.16Z"/><path class="cls-12" d="M15.46,22.51c.24-.1.59.03.68.21.1.17-.24-.16-.46-.06s-.22-.14-.22-.14Z"/><path class="cls-12" d="M22.1,17.98c.05-.14.55.03.65.21s-.24-.16-.43-.06c-.21.1-.27,0-.22-.14Z"/><path class="cls-12" d="M22.16,18.25c.24-.05.54.13.6.32s-.21-.19-.41-.14c-.22.05-.19-.17-.19-.17Z"/><path class="cls-12" d="M22.04,18.36c.13-.1.48.3.48.49s-.13-.24-.35-.27c-.22-.02-.25-.13-.13-.22Z"/><path class="cls-12" d="M21.5,18.57c.19-.13.48.3.48.49s-.13-.24-.35-.27c-.22-.02-.32-.1-.13-.22Z"/><path class="cls-12" d="M20.2,20.61c.16-.06.33,0,.48.13s-.08.03-.24,0-.22-.14-.22-.14l-.02.02Z"/><path class="cls-12" d="M20.2,20.76c.25-.02.51.21.54.4.03.19-.17-.21-.38-.19-.22.02-.16-.21-.16-.21Z"/><path class="cls-12" d="M18.77,21.01c.25,0,.49.25.49.44s-.14-.24-.36-.24-.14-.21-.14-.21h.02Z"/><path class="cls-12" d="M19.91,20.87c.27,0,.52.25.55.46.02.21-.16-.24-.4-.24s-.16-.22-.16-.22Z"/><path class="cls-12" d="M14.51,22.64c.33-.03.62.14.62.25s-.4-.08-.59,0c-.19.1-.19-.25-.03-.27v.02Z"/><path class="cls-14" d="M9.99,17.33s-.67.29-2.22,0c-1.55-.29-2.58-.68-2.73-1.03-.13-.35-.05-.71.46-1.28.49-.55,1.63-1.35,2.06-2.3.43-.95.16-2.22-.19-2.79-.35-.57-.97-1.01-.73-.67.24.35.44,1.51.59,1.98.14.48-.05,1.17-.35,1.71-.3.54-1.71,1.19-2.09,1.7-.38.49-.79,1.2-.46,1.81s.97,1.12,1.65,1.27,1,.41,2.3.62c1.28.22,2.3.33,2.3.33l-.57-1.36-.02.02Z"/><path class="cls-11" d="M9.42,17.44s-.41.05-.62.02-.24-.03-.24-.03c0,0,.22.25.08.44-.13.19-.62.11-.86.13s-1.32-.13-1.32-.13c0,0,.84.35,1.85.52s1.52.19,1.52.19l.14-1.25s-.57.11-.57.11Z"/><path class="cls-7" d="M21.62,10.47c-.03-.29,0-.57-.16-.73-.17-.16-.51-.48-.67-.7-.14-.22-.25-.29-.35.13-.08.41.27,1.12.32,1.14.03,0,.86.16.86.16Z"/><path class="cls-12" d="M21.83,10.5c-.03-.13-.06-.22-.05-.33-.03,0-.05-.05-.08-.03-.03-.21-.16-.05-.03-.21-.08.1-.1-.05-.13-.14,0,0-.11-.08-.13-.17,0,0-.03-.03-.1-.02,0,0-.05-.17-.06-.16-.03.02-.05.06-.08.08,0-.02,0-.08,0-.06-.03.02-.1-.11-.06-.16-.02.05-.05-.06-.03-.16,0,0-.02.02-.03.03-.03.05-.03.06-.06.1,0,0,.02-.06.03-.06,0,0-.06.06,0-.06-.03.05-.06.05-.1.06v-.16s-.03.03-.06.05t.02-.1s-.03.05-.05.05c0-.03.02-.1.03-.13-.02.03-.05.06-.06.1v-.1s-.02.03-.03.03,0-.1,0-.06c-.03.05-.05-.06-.05-.06l-.03.05s-.03-.08-.03-.05,0,.03-.03.06c-.03.03,0-.05-.03-.03s-.03.03-.06.03-.03.05-.03.05c-.02.03-.05.14-.06.17q-.03.1-.06.21s.06-.03.1-.06c-.03.16-.06.22-.06.33.02-.06,0-.03.05-.08,0,.14-.03.25-.02.4.02-.03,0-.05.03-.08.03.11.03.24,0,.35.02-.02,0-.1.03-.11.05.08.02.08.02.17.02,0,.13.27.14.25,0,.06,0,.16.06.17,0,.02.03.13.05.14.02,0,.05-.13.08-.13.03.14.11.16.19.06.06.13.22.29.35.19.03.06.05.14.08.21.05-.03.13-.06.17-.1,0,.08.03.14.1.17,0-.16.1-.59.14-.74-.03.08,0,0-.08.03h.03Z"/><path class="cls-13" d="M25.3,12.55c-.05-.22-.65-.98-1.2-1.35-.57-.36-1.35-.81-1.81-.92s-1.27-.25-1.43-.25c-.29,0-1.01-.3-1.54-.14-.52.16-1.73.59-1.9.51-.17-.06-1.55-.59-2.03-.49s-1.87.11-3.28,1.54c-1.41,1.43-1.81,2.47-2.04,3.36-.24.89-.65,2.15-.22,3.22.43,1.06-.05,2.15,1.08,2.49.43.13.76.25,1.08.3-.03-.08,0-.17.05-.24v-.13c0-.21.27-.27.38-.1.05.06.08.11.1.17.32-.16.65-.3.98-.44.06-.03.13-.03.19,0,.05-.03.1-.06.13-.08,0-.05.05-.1.1-.11.16-.1.32-.19.48-.29,0-.02.03-.05.06-.06.11-.08.24-.14.35-.21.06-.05.13-.1.19-.14.05-.03.11-.05.16-.03.1-.03.17-.08.27-.11.05-.02.08-.05.13-.06.05-.03.1-.03.13-.02.03,0,.08-.03.11-.03.02,0,.05-.03.06-.03.06,0,.11-.03.17-.03.25-.06.51-.13.78-.16h.13c.24-.03.46-.08.7-.13h0c.3-.16,1.05-.48,1.38-.19.43-.19.84-.43,1.12-.74.19-.21.4-.44.6-.7-.06-.05-.1-.11-.08-.21.11-.38.55-.7.92-.87.11-.1.22-.19.32-.25.03-.03.08-.05.11-.08,0-.05.03-.1.1-.13.19-.1.38-.17.57-.22.3-.13.63-.19.97-.14h0c.46-.08.89-.11,1.16-.17.48-.1.49-.25.65-.57.1-.19.32-.7.32-.7.11-.36-.43-.74-.49-1l.03-.06Z"/><path class="cls-8" d="M19.23,17.84s.08.08.11.14c-.1-.08-.16-.21-.17-.33.1.05.24.08.32.05-.03-.03-.03-.06-.05-.1.06,0,.14,0,.21.03-.05-.13-.32-.35-.46-.36.08.13.41.05.55.06-.21-.16-.36-.3-.63-.32.11.06.48.16.6.16-.1-.08-.19-.17-.3-.25.08.13.32.19.46.19-.1-.1-.24-.13-.33-.22.11.11.27.19.43.21-.13-.1-.24-.19-.33-.32.11.1.24.17.36.25-.08-.08-.16-.19-.24-.29.08.06.14.13.22.19-.16-.13-.27-.29-.4-.43.25.22.52.43.4.32.05-.05.17-.21.3-.13.17.1.48.24.59.27-.13-.03-.29-.03-.41-.06.16.11.48.21.67.14h-.24c.16.11.36,0,.54-.05-.22.03-.41.14-.63.13.13,0,.29-.05.43-.03-.14.06-.38.14-.54.14.05.03.11.06.16.08-.1.02-.19.05-.29.05.05.03.1.08.14.11-.05-.03-.11-.03-.17-.05.03.05.03.11.06.16-.06-.03-.14-.03-.19,0,.02.02.05.05.06.06-.02,0-.11.02-.14,0,0,.03,0,.05.03.08-.25,0-.3.14-.52.21l.02.05c-.08.03-.03.08-.06.11-.05.03-.13.03-.21.03,0,.03-.05.08-.05.1-.05-.03-.1-.05-.14-.08v.03c-.06-.03-.11-.08-.11-.14,0,.02.02.05.03.06-.06-.06-.1-.16-.05-.16,0,0,.05-.05,0-.17l-.02.08Z"/><path class="cls-8" d="M19.98,12.01c0,.06-.06.14-.08.22.06.06-.02.16,0,.24.05-.02.11-.05.16-.05-.03.08-.11.16-.16.22h.05s0,.08-.03.13c.25.13.1.14.13.38h.1c.05.1.06.36.22.3-.03.06-.06.16-.03.22h.06c0,.11.1.16.16.24.03.06.11,0,.19.06s.11.24.21.19c0,.05-.14-.29-.06-.25s.17.35.21.32c.05-.03-.03-.29.03-.25l.11.22c.22.27.05-.13.11-.13s.11.22.21.32c.05.05.03-.21.06-.22,0,.05.16.41.21.43s-.08-.33-.05-.3c.11.14.24.4.29.4.29-.03.4-.3.63-.44-.08.05-.25-.57-.33-.57.03-.11-.27.16-.36.11-.22-.1-.16-.08-.35-.25-.11-.11-.41.11-.48-.03-.06-.14-.19-.13-.3-.22-.08-.06-.05-.13-.1-.19-.05-.06-.21-.08-.25-.14-.03-.05.03-.11,0-.14-.03-.05-.1-.06-.13-.11-.08-.1-.13-.21-.21-.3-.1-.13-.22-.22-.29-.35,0,0,.08-.03.08-.03Z"/><path class="cls-8" d="M19.25,13.85c-.03.06-.13.11-.17.17.03.08-.1.13-.11.21.06,0,.11,0,.17.03-.06.06-.17.1-.25.13.02,0,.03,0,.05.02-.03.02-.05.06-.08.1.16.24,0,.17-.06.4.03,0,.06.03.1.03,0,.11-.11.35.06.38-.06.05-.13.11-.14.19.02,0,.05.03.06.03-.05.1.02.17.03.27,0,.06.11.05.14.13s0,.27.1.27c0,.05,0-.32.06-.25s0,.38.03.38c.06,0,.11-.27.14-.22v.25c.08.35.1-.1.16-.06s0,.25.03.38.13-.17.16-.17c-.03.03-.05.43,0,.48s.08-.33.1-.29c.03.17.03.46.08.48.27.1.49-.1.78-.1-.1,0,.03-.63-.05-.67.08-.1-.3.02-.38-.06-.16-.17-.11-.14-.19-.38-.05-.16-.41-.1-.41-.24,0-.16-.11-.21-.17-.33-.03-.1.02-.13,0-.21s-.14-.16-.16-.24c0-.06.06-.08.06-.13,0-.06-.05-.1-.06-.14-.03-.13-.03-.24-.05-.36-.02-.16-.1-.3-.1-.44h.1l-.02-.02Z"/><path class="cls-8" d="M20.26,12.14c-.05-.08-.06-.3-.06-.35-.02-1.12-.22-1.2-.44-1.49-.48-.62-1.41-.67-1.62-.62-.21.05,1.39,2.54,1.6,2.47.19-.06.54,0,.54,0l-.02-.02Z"/><path class="cls-16" d="M20.37,12.39c-.11-.17-.25-.44-.3-.6v.4c0-.14-.03-.29-.05-.43,0,.17.03.33.03.51,0-.16-.1-.36-.17-.51.06.22.14.41.16.63.02.19,0,.43.06.6,0-.19.03-.4.05-.57.1.32.17.55.4.82,0-.14-.08-.35-.03-.46,0,.21.08.78.32.84v-.33c.03.14.08.29.22.33,0-.1,0-.21.08-.27.03.11,0,.3.13.38.05-.11.06-.24.1-.35.06.13.05.33.17.46,0-.06.06-.14.08-.19,0,.13.02.27.1.36,0-.08.05-.13.08-.19.03.22.1.49.22.67,0-.17,0-.35.03-.52.03.25.11.49.32.67-.03-.24-.14-.49-.19-.74.19.03.33.68.48.87-.1-.32-.35-.67-.32-1,.14.14.19.43.33.59,0-.3-.13-.62-.27-.89.03.1.03.21.02.32,0-.22,0-.49-.08-.7,0,.17-.02.38-.1.54-.13-.13-.16-.33-.24-.51.1.14.02.32,0,.48-.11-.13-.13-.4-.21-.57v.13c-.05-.08-.1-.21-.14-.3.02.17-.05.32-.06.49-.03-.13-.02-.25-.06-.38-.05.11-.1.25-.17.33-.06-.14-.1-.3-.16-.46-.02.05-.13.1-.14.14-.06-.11-.11-.22-.17-.32-.03.08-.1.16-.17.21-.05-.1-.1-.21-.14-.29-.03.02-.1.03-.13.06-.1-.14-.1-.32-.17-.46-.03,0-.06,0-.1.02l.22.22v-.03Z"/><path class="cls-12" d="M19.87,12.07c.08-.44-.3-1.54-.84-1.87-.54-.35-.6-.51-.9-.52-.32-.02-.54.24-.38.6s.32.49.36.76c.05.29.7.73,1.54,1.14.05.02.24-.1.24-.1l-.02-.02Z"/><path class="cls-12" d="M19.2,11.74c-.03-.13-.06-.25-.06-.36h-.11c-.05-.19-.05-.33.08-.48-.1.1-.17.22-.25.33,0-.03,0-.06-.02-.1v.03-.06.03-.06c.03-.17.13-.36.21-.48-.11.11-.19.24-.29.35-.02.02-.05.05-.08.06,0-.03-.02-.06-.03-.1,0-.1.06-.21.11-.29-.06.06-.14.19-.24.27v-.05s-.06.02-.06.03c0-.03-.03-.05-.03-.08h-.03c0-.08.03-.16.05-.24-.03.05-.06.1-.11.11-.03-.1.02-.17.03-.25,0,0-.03.03-.05.03-.02-.05-.02-.11,0-.16-.02.05-.06.1-.1.13-.02-.1.05-.19.06-.29,0,0-.02.02-.03.03-.03.05-.05.08-.08.13l.03-.08.02-.02s-.02.02-.03.02c0-.06.03-.13.03-.19-.03.03-.06.08-.11.1,0-.08.03-.16.05-.24-.03.03-.06.06-.1.08,0-.05,0-.08.03-.11h-.03s0-.05.02-.08c-.02.03-.05.06-.08.08l-.05-.11s.03-.05.05-.06h0s-.05.05-.06.06h0s-.05.06-.06.1c-.03.1-.06.19-.11.29.02-.03.05-.08.06-.11-.03.14-.16.38-.14.49.03-.06.06-.11.11-.16,0,.14-.1.27-.08.41.03-.03.08-.06.1-.1.03.11-.02.21,0,.32.02-.02.05-.03.08-.05.05.08.11.27.11.36.02,0,.06-.02.08-.03.02.06.06.13.13.14.02.02.02.05.03.06.02,0,.03-.02.05-.02.03.13.13.14.22.06.06.11.24.27.4.19.03.06.05.14.08.21.06-.03.14-.06.21-.1,0,.08.03.14.11.16,0-.16-.05-.32,0-.46-.03.08-.08.17-.16.21l.06.02ZM18.04,10.14s0,.03-.02.05v-.05h.02ZM18.07,10.2s-.05.08-.06.11v-.08s.05-.03.08-.05l-.02.02Z"/><path class="cls-16" d="M19.72,11.52c0,.13.06.25.13.33,0-.08,0-.13-.05-.22.02.05.03.11.05.16-.33-.13-.55-.17-.9-.29.1.06.19.1.3.13-.16-.08-.33-.16-.48-.24,0,0,.03.02.05.02-.1-.02-.16-.05-.24-.1h.14s-.05-.06-.06-.1c.05,0,.08.02.11,0-.05-.08-.13-.16-.19-.22h.05c-.06-.06-.11-.14-.16-.21.03,0,.03.02.06.02-.03-.06-.08-.17-.11-.24h.1c-.08-.14-.05-.29-.13-.44h.08c-.03-.1-.06-.19-.11-.27h.1s-.05-.06-.06-.1c.14.05.29.13.43.17v-.05c.1.06.32.16.41.27-.05-.03-.08-.05-.13-.08.1.1.29.21.36.3.1.11.1.25.22.36-.05-.03-.08-.08-.13-.11.05.25.32.48.38.74,0,0-.02-.03-.03-.03.03.11.05.22.08.32-.03,0-.08.02-.13.02l-.11-.19-.03.03Z"/><path class="cls-4" d="M19.93,12.1s.05.03-.14.06h-.33s-.1-.02-.14-.02h-.05.21c.11,0,.24-.03.32-.05.19-.02.14.02.14.02v-.02Z"/><path class="cls-8" d="M22.65,15.27c-.65.21-1.33,1.08-1.93,1.81-.33-.22-.52-.67-.43-1.05.08-.38.32-.71.65-.92.44-.29.81-.16,1.28-.17.43-.02.82-.21,1.25-.13.19.03.35.11.52.17-.43.06-.9.14-1.33.29h-.02Z"/><path class="cls-8" d="M20.72,16.78c.16-.06.33-.13.51-.13-.02-.03,0-.1-.02-.13.27-.08.44-.11.65,0-.14-.08-.32-.16-.46-.24.05,0,.08-.03.11-.03h-.05.08-.03.1c.24,0,.51.08.67.16-.14-.11-.33-.17-.49-.27-.03-.02-.06-.05-.1-.08.05-.02.1-.03.14-.05.14,0,.29.03.4.08-.1-.06-.27-.14-.38-.22.02,0,.03-.02.06-.03-.02,0-.03-.06-.05-.08.03,0,.06-.05.11-.05v-.03c.11-.03.22,0,.33,0-.06-.03-.13-.06-.16-.11.11-.05.24,0,.35,0-.02,0-.03-.03-.06-.05.06-.03.14-.03.22,0-.06-.02-.14-.05-.17-.1.13-.03.27.02.38.03,0,0-.03-.02-.05-.03-.06-.03-.11-.05-.17-.06h.11s.02.03.03.03c0,0-.03-.02-.03-.03.1,0,.17.02.27,0-.06-.03-.11-.06-.14-.1.11-.02.21,0,.32.02-.05-.03-.08-.06-.11-.1.05,0,.11,0,.16.02v-.03h.11s-.1-.05-.13-.06l.16-.06s.06.03.1.03h0s-.08-.05-.11-.06h0s-.08-.03-.13-.06c-.13-.02-.25-.05-.4-.08.05.02.1.03.14.06-.21,0-.52-.11-.67-.1.08.02.16.06.22.11-.19.03-.36-.06-.55-.02.05.02.1.08.13.11-.14.05-.29,0-.43.06.03.02.05.05.06.08-.11.06-.36.17-.49.21.02.03.03.06.05.08-.1.03-.16.08-.19.16-.03.03-.06.03-.1.05,0,.02.03.03.03.05-.17.06-.19.17-.06.25-.16.1-.35.33-.22.48-.1.05-.19.08-.27.13.05.06.1.14.14.22-.11.02-.19.06-.22.14.21-.03.43-.11.63-.06-.11-.02-.25-.06-.29-.16l-.05.05ZM22.81,15.18h-.06.06ZM22.72,15.23s-.11-.05-.17-.06h.1s.06.05.06.08l.02-.02Z"/><path class="cls-16" d="M11.15,20.25c0,.06,0,.13-.02.17,0-.13.05-.25.11-.35.03.1.11.22.19.25,0-.05.03-.06.03-.11.05.05.08.11.11.17.06-.13.03-.48-.06-.59-.03.14.25.33.33.44-.03-.25-.03-.48-.22-.68.03.13.22.44.3.54,0-.13,0-.27-.03-.38-.03.14.1.36.19.46,0-.14-.06-.25-.06-.4,0,.16.05.33.14.46-.02-.16-.03-.3,0-.46,0,.16.05.3.08.44,0-.13.02-.24.05-.36,0,.1,0,.19.02.29-.02-.19.02-.4.03-.59,0,.33-.06.7.17.98-.06-.14-.11-.3-.13-.48.17,0,.43.57.52.73-.06-.11-.17-.22-.24-.33.03.19.17.49.36.57-.05-.06-.11-.13-.17-.17.03.19.25.27.41.35-.17-.13-.4-.21-.54-.38.1.1.22.17.32.29-.14-.06-.36-.17-.48-.29.02.05.03.11.05.17-.08-.06-.16-.11-.24-.17v.17c0-.06-.05-.11-.08-.16-.02.05-.06.11-.06.16-.03-.06-.06-.13-.13-.13v.08s-.1-.06-.11-.1c0,.03-.03.05-.03.08-.17-.19-.3-.13-.51-.24l-.02.05c-.08-.03-.08.03-.13.03-.06,0-.11-.08-.16-.13-.03.02-.08.02-.11.03,0-.05-.03-.1-.03-.16,0,0-.02.02-.03.03-.02-.06,0-.13.02-.17,0,.02-.03.05-.03.06,0-.1.05-.17.08-.14,0,0,.06,0,.13-.11l-.03.05Z"/><path class="cls-8" d="M14.62,19.79s.03.11.02.17c-.03-.11-.02-.27.03-.36.05.08.16.19.24.21v-.11c.06.03.11.08.14.14.03-.13-.08-.46-.19-.55,0,.14.32.27.43.36-.08-.24-.14-.46-.36-.6.05.11.32.38.41.46-.03-.13-.08-.25-.13-.36,0,.14.17.33.29.41-.03-.13-.13-.24-.16-.36.03.16.13.32.25.41-.05-.14-.1-.29-.11-.44.05.14.11.29.17.41-.02-.11-.03-.24-.03-.36.03.1.06.19.1.27-.06-.19-.06-.38-.11-.57.08.32.21.63.16.49.06,0,.25-.08.33.05s.27.46.35.54c-.1-.1-.22-.19-.32-.27.06.17.29.44.48.48-.06-.05-.14-.1-.21-.13.08.17.3.21.48.25-.21-.08-.43-.11-.6-.24.11.08.25.11.36.21-.16-.02-.4-.1-.54-.17.03.05.06.11.1.16-.1-.03-.19-.06-.27-.11.02.05.03.11.05.17-.03-.05-.08-.1-.11-.13,0,.06-.03.11-.03.17-.05-.05-.1-.1-.16-.1,0,.03,0,.05.02.08,0,0-.11-.05-.13-.06,0,.03-.02.05-.02.08-.21-.14-.33-.05-.55-.11v.06c-.08-.02-.06.05-.11.06-.06,0-.13-.05-.19-.1-.03.03-.08.05-.1.06-.02-.05-.06-.1-.06-.14,0,0,0,.02-.02.03-.03-.05-.05-.13-.03-.17v.08c-.03-.08,0-.19.05-.16,0,0,.06,0,.1-.14v-.06Z"/><path class="cls-16" d="M23.54,12.15s.03.11.02.17c-.03-.11-.02-.27.03-.36.05.08.16.19.24.21v-.11c.06.03.11.08.14.14.03-.13-.08-.46-.19-.55,0,.14.32.27.43.36-.08-.24-.14-.46-.36-.6.05.11.32.38.41.46-.03-.13-.08-.25-.13-.36,0,.14.17.33.29.41-.03-.13-.13-.24-.16-.36.03.16.13.32.25.41-.05-.14-.1-.29-.11-.44.05.14.11.29.17.41-.02-.11-.03-.24-.03-.36.03.1.06.19.1.27-.06-.19-.06-.38-.11-.57.08.32.1.7.4.92-.1-.13-.17-.27-.24-.43.17-.03.54.46.67.59-.1-.1-.22-.19-.32-.27.06.17.29.44.48.48-.06-.05-.14-.1-.21-.13.08.17.3.21.48.25-.21-.08-.43-.11-.6-.24.11.08.25.11.36.21-.16-.02-.4-.1-.54-.17.03.05.06.11.1.16-.1-.03-.19-.06-.27-.11.02.05.03.11.05.17-.03-.05-.08-.1-.11-.13,0,.06-.03.11-.03.17-.05-.05-.1-.1-.16-.1,0,.03,0,.05.02.08,0,0-.11-.05-.13-.06,0,.03-.02.05-.02.08-.21-.14-.33-.05-.55-.11v.06c-.08-.02-.06.05-.11.06-.06,0-.13-.05-.19-.1-.03.03-.08.05-.1.06-.02-.05-.06-.1-.06-.14,0,0,0,.02-.02.03-.03-.05-.05-.13-.03-.17v.08c-.03-.08,0-.19.05-.16,0,0,.06,0,.1-.14l.02-.06Z"/><path class="cls-8" d="M14.67,18.41c.54-.14,1.03-.36,1.57-.48.62-.11,1.14-.36,1.71-.16.41.16.84.24,1.27.33.11.03.22.03.33.05-.73.43-1.66.65-2.36.81-.93.21-1.43.22-3.07,1.2-1.03.62-1.55.73-2.08.65v-.02c-.78-.98-.24-2.65,1.08-2.68"/><path class="cls-1" d="M25.79,15.75c-.06-.44-.3-.93-.57-1.28"/><path class="cls-1" d="M24.63,13.96c.3.67.46,1.73.35,2.42"/><path class="cls-1" d="M24.49,13.67c.05.43,0,.92,0,1.36,0,.38-.06.74-.14,1.12-.03.13-.06.27-.08.41,0,.06-.03.1,0,.05"/><path class="cls-1" d="M24.13,13.85c-.35.67-.87,1.46-.98,2.22"/><path class="cls-1" d="M24.24,14.21c-.19.59-.4,1.24-.59,1.79"/><path class="cls-1" d="M24.22,13.48c-.41.54-.86,1.06-1.22,1.65-.25.43-.87,1.27-.84,1.77"/><path class="cls-1" d="M23.97,13.56c-.78.71-1.6,1.55-2.06,2.52"/><path class="cls-1" d="M24,13.36c-.67.29-2.77,2.47-3.04,3.11"/><path class="cls-1" d="M23.81,13.34c-.32.06-1.46.4-1.74,1.03"/><g class="cls-18"><path class="cls-9" d="M24.25,16.62v-.13.08c0,.06-.03.1,0,.05Z"/><path class="cls-9" d="M23.87,15.32c-.08.24-.16.48-.22.7l.22-.7Z"/></g><path class="cls-12" d="M11.29,18.09c0-.22,0-.44.1-.63-.06,0-.13-.05-.19-.05.03-.33.08-.55.38-.73-.19.11-.4.27-.59.41v-.16s-.02.03-.03.05c0-.03.03-.06.05-.1v.05s.03-.08.05-.11c.14-.27.4-.52.57-.68-.22.11-.43.29-.63.43-.05.02-.11.03-.14.06v-.17c.08-.16.21-.3.33-.41-.14.08-.33.22-.51.32v-.08h-.13s-.02-.1,0-.14h-.05c.03-.14.13-.25.19-.36-.08.06-.16.11-.25.13,0-.16.13-.27.19-.4-.03.02-.06.03-.1.05,0-.1.03-.19.1-.25-.06.06-.14.13-.22.16.02-.16.17-.29.25-.41-.02,0-.05.02-.06.03-.06.05-.13.11-.19.16l.08-.11s.03-.02.03-.03c-.02,0-.03.02-.05.02.05-.1.13-.19.16-.3-.06.05-.14.1-.22.11.03-.13.14-.24.21-.35-.06.03-.14.06-.21.08,0-.06.06-.13.11-.17h-.05s.03-.08.06-.11c-.05.03-.11.08-.16.1v-.21l.1-.1h0s-.1.05-.14.08h0s-.1.08-.14.11c-.1.13-.21.27-.32.41.05-.05.11-.1.17-.13-.13.22-.44.54-.49.71.06-.08.17-.16.27-.19-.06.22-.29.38-.33.62.06-.05.16-.06.21-.1,0,.19-.14.33-.14.52.05-.02.1-.02.14-.05.03.16.05.49,0,.67h.14c0,.13.03.24.13.3.02.05,0,.08.03.13.03,0,.06-.02.1,0-.02.24.13.3.32.22.05.22.25.57.54.51.02.13.02.25.03.38.11,0,.25-.03.38-.05-.03.13,0,.25.08.32.06-.25.08-.54.25-.76-.1.13-.22.25-.36.25l-.03-.03ZM10.22,14.89s-.03.03-.05.06c0-.02.03-.03.05-.06h0ZM10.26,15.04c-.06.05-.13.1-.17.16,0-.05.02-.08.03-.13.05-.03.1-.05.14-.03Z"/><path class="cls-12" d="M16.51,16.22c-.24.25-.38.49-.74.65.16-.73,1.57-1.2,1.68-1.98-.21.6-.52,1.17-1.09,1.65.03-.13.16-.24.21-.36,0,.29-.16.71-.57.82,0-.19.02-.38.03-.55-.05.24-.33.54-.7.59,0-.16.1-.3.11-.44-.14.21-.68.63-1.03.57.06-.11.17-.24.3-.29-.08.35-.71.67-1.19.73.16-.11.35-.21.51-.33-.05.24-.79.6-1.12.62.21-.13.43-.25.54-.43-.48.13-.79.4-.95.73.14-.17.25-.36.24-.57-.11.24-.14.48-.25.71-.03-.14-.06-.38-.24-.51,0,.13,0,.27.02.4-.03-.19-.19-.51-.49-.55-.03.13,0,.24.06.36-.08-.25-.24-.54-.52-.71-.03.14,0,.29.08.43-.24-.4-.51-.79-.65-1.22.03.19.11.36.06.55-.27-.3-.41-.73-.55-1.06,0,.17.05.35.06.52-.1-.35-.19-.71-.27-1.06,0,.22-.03.46-.03.68,0-.35-.11-.76.16-1.08-.19.1-.36.21-.54.3-.05-.48.29-.95.65-1.33-.06.24-.48.44-.79.51.17-.43.63-.87,1.11-1.16-.21.11-.46.17-.71.22.35-.36.81-.71,1.36-.92-.3.11-.68.16-1.03.14.38-.38.93-.41,1.44-.63-.38.05-.79.1-1.17.1.33-.22.7-.46,1.16-.55h-.46c.25-.1.57-.11.79-.24-.14,0-.3-.03-.43-.03.33-.1.65-.22.98-.3h-.16c.27-.1.57-.21.81-.35-.11,0-.24-.03-.35-.03.67-.19,1.54-.6,2.23-.65-.16.17-.43.27-.67.38.32-.03.63-.16.93-.25-.3.22-.68.32-.9.59.24-.02.46-.1.67-.16-.25.22-.87.3-1.03.59.27-.11.59-.19.87-.27-.16.21-.48.33-.65.52.11-.05.27-.06.38-.13-.21.24-.59.35-.87.54.06-.02.19-.03.27-.05-.19.54-1.03.82-1.03,1.46.13-.11.24-.25.27-.4-.05.29-.19.57-.19.87,0-.13.02-.24.11-.33.02.32.03.76-.1,1.05,0-.02,0-.14,0-.11-.03.29.05.55.05.84-.05-.13-.08-.25-.16-.36-.05.24.13.48.24.7,0-.1.02-.19,0-.27-.03.14.03.32.11.44,0-.05.02-.1.02-.16-.03.21.05.41.16.6.05-.13.11-.24.21-.33,0,.08.06.14.08.22.14-.11.22-.25.36-.36,0,.06.08.16.1.21.03-.08.11-.16.14-.24,0,.06.03.1.05.16.21-.1.43-.27.62-.36v.06c.24,0,.36-.19.57-.25.03.13.08.25.17.35.19-.13.36-.32.52-.46.02.05.06.08.08.11.13-.08.24-.17.35-.27.14.13.27.33.33.51.33-.46.62-.43,1.24-.68l-1.84,1.36v-.03Z"/><path class="cls-8" d="M10.93,20.06c-.11.13-.3.21-.38.35.29-.13.51-.41.54-.71-.08.08-.14.19-.24.25.13-.11.24-.3.25-.48-.08.1-.17.19-.29.24.03-.05.05-.1.08-.14-.02.03-.06.05-.1.08,0-.03.05-.06.02-.08-.03.02-.1.05-.13.06,0,0,0-.06.02-.05,0-.03,0-.14.03-.21-.06.06-.16.13-.25.16.1-.11.13-.27.13-.41-.1.03-.17.06-.25.11.22-.22.35-.51.51-.78-.21.11-.38.3-.54.48.06-.03.1-.1.14-.17-.06.05-.21.19-.21.3.02-.11-.02-.29-.05-.41-.1.06-.14.19-.17.29.05-.25.13-.62.05-.87-.1.16-.17.33-.22.52.06-.16.13-.4.13-.57-.1.14-.19.35-.27.51.06.21.03.46.1.67.06-.08.08-.19.06-.29-.05.14,0,.35.1.46.03-.06.05-.13.05-.19-.08.11-.02.3.03.43.08-.08.16-.19.19-.29-.08.11-.14.32-.08.44.03-.03.06-.06.08-.1-.02.16-.03.32-.03.48.06-.06.14-.11.19-.19-.08.13-.16.27-.19.4.06-.05.16-.06.22-.1-.06.08-.14.14-.22.21.1-.03.21-.08.3-.1-.08.05-.17.11-.25.14.13-.06.25-.11.38-.17l.27-.29.02.02Z"/><path class="cls-8" d="M10.23,18.19c-.16.08-.35.08-.48.21.32-.02.62-.22.74-.49-.11.05-.21.13-.32.16.16-.06.33-.21.4-.36-.11.06-.22.11-.35.13.05-.03.08-.08.13-.11-.03.02-.08.03-.11.05,0-.03.06-.05.05-.08-.03,0-.11,0-.14.02,0,0,0-.05.03-.05,0-.03.05-.13.1-.19-.1.05-.19.06-.29.06.13-.08.22-.21.25-.35-.1,0-.19,0-.27.02.29-.14.49-.36.74-.55-.22.05-.46.16-.67.27.06-.02.13-.06.19-.13-.06.02-.25.11-.3.22.06-.11.08-.27.1-.4-.11.03-.19.13-.25.22.13-.22.33-.54.35-.81-.14.13-.29.25-.4.41.11-.13.25-.33.32-.49-.14.1-.29.27-.43.4,0,.22-.13.44-.14.67.08-.06.14-.14.16-.24-.1.13-.11.33-.06.48.05-.05.08-.1.11-.16-.11.08-.11.29-.11.41.1-.05.21-.13.27-.21-.11.08-.24.25-.22.4.03-.02.08-.03.11-.06-.08.14-.14.29-.19.43.08-.03.17-.06.24-.11-.11.08-.24.21-.32.32.08-.02.17,0,.24,0-.08.05-.17.1-.27.13h.32c-.1.03-.21.05-.29.05.14-.03.29-.02.43-.03l.35-.17-.02-.03Z"/><path class="cls-12" d="M17.39,18.71c.1.16.1.35.22.48-.03-.32-.25-.6-.52-.73.06.1.13.19.17.3-.06-.16-.22-.32-.38-.38.06.11.13.22.14.35-.03-.05-.08-.08-.11-.11.02.03.03.08.05.11-.03,0-.05-.06-.08-.05,0,.03.02.11.02.14,0,0-.05,0-.05-.03-.03,0-.13-.05-.19-.08.05.08.08.19.08.29-.08-.11-.22-.21-.36-.24,0,.1,0,.19.03.27-.16-.27-.4-.48-.6-.71.05.22.17.46.3.65-.02-.06-.06-.11-.13-.19.03.06.11.25.24.29-.11-.05-.27-.06-.4-.08.05.11.14.19.24.25-.24-.11-.55-.3-.82-.3.13.14.27.27.43.36-.13-.11-.35-.24-.51-.29.11.14.29.29.41.4.22,0,.44.1.67.11-.06-.08-.16-.13-.25-.14.13.1.33.1.48.03-.05-.05-.1-.08-.16-.1.08.11.29.11.41.1-.05-.1-.13-.21-.21-.25.1.11.27.22.4.21-.02-.03-.05-.08-.06-.11.14.06.3.13.44.16-.05-.08-.06-.16-.13-.24.1.11.22.22.33.3-.03-.08-.02-.17-.02-.24.05.08.1.17.14.27v-.32c.03.1.06.21.06.29-.03-.14-.03-.29-.06-.43l-.19-.33h-.03Z"/><path class="cls-12" d="M17.66,18.68s.08.1.11.16c-.1-.08-.16-.24-.16-.36.1.05.24.11.33.06-.03-.03-.03-.06-.05-.11.06,0,.14.03.21.05-.03-.14-.3-.4-.46-.41.08.13.43.08.59.11-.21-.17-.36-.35-.65-.36.11.08.48.19.62.22-.1-.1-.19-.19-.3-.29.08.14.33.22.48.24-.1-.11-.24-.16-.33-.27.11.13.27.22.44.25-.13-.11-.24-.22-.32-.35.11.11.24.21.36.3-.08-.1-.16-.21-.22-.32.08.06.14.14.22.21-.16-.14-.25-.32-.4-.48.25.25.44.6.82.65-.16-.06-.3-.16-.43-.29.14-.11.74.14.92.21-.14-.05-.29-.06-.43-.1.16.13.49.25.68.19-.08-.02-.17-.02-.25,0,.16.13.4.03.57,0-.24.03-.44.13-.68.1.14,0,.3-.02.44,0-.16.06-.41.13-.59.11.05.03.11.06.16.1-.11,0-.21.03-.32.03.05.05.08.1.14.13-.05-.03-.11-.05-.17-.06.03.05.03.13.06.17-.06-.03-.14-.05-.19,0,.02.02.05.05.06.06h-.16s0,.06.02.08c-.27-.03-.33.13-.57.17,0,0,0,.05.02.06-.08.03-.03.08-.08.11-.06.03-.14.02-.22,0,0,.03-.05.08-.06.11-.05-.03-.1-.05-.14-.1v.05c-.06-.03-.11-.1-.11-.16,0,.02.02.06.03.08-.06-.06-.1-.17-.03-.17,0,0,.05-.05.02-.19h.02Z"/><path class="cls-12" d="M16.24,17.93s.05.11.05.17c-.06-.11-.06-.27-.03-.4.08.08.19.17.29.17v-.11c.06.03.13.08.17.13,0-.14-.44-.62-.29-.55.03.16.38.22.51.3-.13-.24-.22-.46-.49-.57.08.11.38.35.51.41-.05-.13-.11-.25-.19-.36.02.16.24.32.36.38-.05-.13-.16-.22-.22-.36.06.16.17.3.33.38-.08-.14-.14-.29-.17-.44.06.14.16.27.25.41-.05-.13-.08-.25-.1-.36.05.1.1.17.14.27-.1-.19-.13-.4-.21-.59.14.32.21.71.55.89-.13-.11-.24-.25-.32-.41.17-.06.65.4.79.51-.11-.1-.25-.16-.38-.24.1.17.36.41.59.43-.06-.05-.16-.08-.24-.1.11.17.35.16.54.19-.22-.05-.46-.03-.67-.16.13.06.29.08.41.16-.17,0-.43-.03-.59-.1.05.05.08.1.13.14-.1-.03-.21-.05-.3-.08.03.05.05.11.08.17-.03-.05-.1-.08-.14-.11v.19s-.11-.1-.17-.08c0,.03.02.06.03.08-.02,0-.13-.03-.14-.05v.1c-.24-.11-.35,0-.59-.03v.06c-.1,0-.06.06-.11.08-.06,0-.13-.03-.21-.06-.02.03-.06.05-.1.08-.03-.05-.08-.08-.1-.14,0,0,0,.03-.02.03-.05-.05-.06-.13-.05-.17v.08c-.05-.08-.03-.19.03-.17,0,0,.06-.03.08-.17l-.05.02Z"/><path class="cls-6" d="M15.06,18.03s.11.11.13.17c-.06-.11-.16-.29-.13-.41.08.08.29.21.38.19,0-.05-.19-.17-.19-.22.06.03.3.17.35.22,0-.14-.54-.71-.29-.55.03.16.38.22.51.3-.13-.24-.62-.51-.49-.57.08.11.38.35.51.41-.05-.13-.11-.25-.19-.36.02.16.24.32.36.38-.05-.13-.16-.22-.22-.36.06.16.17.3.33.38-.08-.14-.14-.29-.17-.44.06.14.16.27.25.41-.05-.13-.08-.25-.1-.36.05.1.1.17.14.27-.1-.19-.13-.4-.21-.59.14.32.21.71.55.89-.13-.11-.24-.25-.32-.41.17-.06.65.4.79.51-.11-.1-.25-.16-.38-.24.1.17.36.41.59.43-.06-.05-.16-.08-.24-.1.11.17.35.16.54.19-.22-.05-.46-.03-.67-.16.13.06.29.08.41.16-.17,0-.43-.03-.59-.1.05.05.08.1.13.14-.1-.03-.21-.05-.3-.08.03.05.05.11.08.17-.03-.05-.1-.08-.14-.11v.19s-.11-.1-.17-.08c0,.03.02.06.03.08-.02,0-.13-.03-.14-.05v.1c-.24-.11-.35,0-.59-.03v.06c-.1,0-.06.06-.11.08-.06,0-.13-.03-.21-.06-.02.03-.06.05-.1.08-.03-.05-.08-.08-.1-.14,0,0,0,.03-.02.03-.05-.05-.06-.13-.05-.17,0,.02-.52-.14-.52-.13-.05-.08.22.21.46.02,0,0,.08,0,.1-.16l-.03.03Z"/><path class="cls-6" d="M12.77,18.44s.05.11.05.17c-.06-.11-.06-.27-.03-.4.08.08.19.17.29.17v-.11c.06.03.13.08.17.13,0-.14-.16-.48-.29-.55.03.16.38.22.51.3-.13-.24-.22-.46-.49-.57.08.11.38.35.51.41-.05-.13-.11-.25-.19-.36.02.16.24.32.36.38-.05-.13-.16-.22-.22-.36.06.16.17.3.33.38-.08-.14-.14-.29-.17-.44.06.14.16.27.25.41-.05-.13-.08-.25-.1-.36.05.1.1.17.14.27-.1-.19-.13-.4-.21-.59.1.21.17.6.36.81s-.03-.32,0-.27c.08.16.36.33.44.38-.13-.11-.29-.27-.36-.43.06-.02.16.05.29.1.21.06.46.11.55.17-.11-.1-.52-.03-.65-.11.36.32.93.27.71.3.11.17,0,.29.19.32-.22-.05-.46-.03-.67-.16.13.06.29.08.41.16-.17,0-.43-.03-.59-.1.05.05.08.1.13.14-.1-.03-.21-.05-.3-.08.03.05.05.11.08.17-.03-.05-.1-.08-.14-.11v.19s-.11-.1-.17-.08c0,.03.02.06.03.08-.02,0-.13-.03-.14-.05v.1c-.24-.11-.35,0-.59-.03v.06c-.1,0-.06.06-.11.08-.06,0-.13-.03-.21-.06-.02.03-.06.05-.1.08-.03-.05-.08-.08-.1-.14,0,0,0,.03-.02.03-.05-.05-.06-.13-.05-.17v.08c-.05-.08-.03-.19.03-.17,0,0,.06-.03.08-.17l-.05.02Z"/><path class="cls-8" d="M11.58,19.42s.11.06.16.11c-.11-.05-.22-.17-.27-.29.11.02.27.02.33-.05-.03-.03-.05-.06-.08-.08.06-.02.14-.03.21,0-.08-.13-.41-.27-.57-.24.11.1.43-.06.59-.08-.25-.11-.46-.21-.73-.14.13.03.52.03.65,0-.13-.06-.25-.13-.38-.17.11.11.38.1.52.06-.13-.06-.27-.08-.4-.14.14.08.33.13.49.1-.14-.06-.3-.13-.41-.22.14.08.3.11.44.16-.11-.06-.22-.14-.32-.22.1.05.19.08.29.13-.19-.08-.35-.22-.52-.32.32.16.62.43,1,.33-.17,0-.35-.05-.51-.13.1-.16.74-.1.93-.11-.14,0-.3.05-.44.05.19.06.54.08.71-.03-.08,0-.17.03-.25.08.19.06.38-.1.54-.19-.21.1-.38.27-.62.3.14-.03.27-.11.43-.14-.13.11-.35.25-.51.3.06,0,.13.03.19.03-.1.05-.19.1-.29.13.06.03.11.06.17.08h-.19s.06.11.11.14c-.08,0-.14,0-.19.06.03,0,.05.03.08.05-.02,0-.11.05-.14.05.02.02.03.05.05.08-.27.06-.27.22-.48.35,0,0,.03.03.03.05-.06.05,0,.1-.03.13-.05.05-.13.06-.19.08,0,.03-.02.08-.02.11-.05-.02-.11,0-.16-.05v.05c-.06,0-.13-.05-.16-.11,0,0,.03.05.05.06-.1-.03-.14-.14-.1-.16,0,0,.03-.06-.05-.17l.02-.02Z"/><path class="cls-12" d="M15.05,19.85c-.02-.06-.03-.13-.03-.19.05.11.03.27,0,.4-.06-.1-.17-.19-.27-.21v.11c-.06-.03-.13-.08-.16-.14-.03.14.11.49.24.57,0-.16-.35-.25-.48-.35.11.25.17.48.43.62-.06-.11-.35-.38-.46-.46.05.13.1.25.16.38,0-.16-.21-.33-.33-.41.05.14.14.24.19.38-.05-.16-.14-.32-.29-.41.06.14.13.3.14.46-.05-.16-.13-.29-.21-.43.03.13.05.25.06.38-.03-.1-.08-.19-.11-.29.08.19.1.4.16.6-.11-.33-.14-.73-.48-.93.11.13.21.29.27.44-.17.05-.6-.44-.74-.59.1.1.24.17.35.27-.08-.17-.33-.44-.54-.48.06.05.16.1.24.11-.1-.19-.33-.19-.52-.24.22.08.46.08.65.22-.13-.06-.27-.11-.4-.19.17,0,.41.06.57.14-.03-.05-.06-.11-.11-.16.1.03.21.06.3.11-.02-.06-.03-.13-.06-.17.03.05.08.1.13.13,0-.06.03-.13.02-.19.05.06.11.1.17.1,0-.03-.02-.06-.03-.08.02,0,.11.05.14.06,0-.03,0-.06.02-.1.22.14.35.03.59.08v-.06c.08,0,.06-.06.11-.06.06,0,.13.05.21.08.02-.03.08-.05.1-.06.02.05.06.1.08.14,0,0,0-.02.02-.03.03.06.06.13.03.19v-.08c.03.1,0,.19-.05.17,0,0-.06.02-.1.16h0Z"/><path class="cls-8" d="M14.21,20.64v-.14c.03.1,0,.22-.08.3-.05-.06-.14-.16-.22-.16,0,.03-.02.06-.02.1-.05-.03-.1-.06-.14-.11-.05.11.03.38.14.46,0-.13-.3-.21-.41-.29.06.21.1.38.32.49-.05-.1-.29-.32-.38-.38.02.1.05.21.08.3.02-.13-.14-.27-.25-.33.02.11.1.19.13.3-.02-.13-.1-.25-.22-.33.03.11.06.24.06.36-.03-.13-.08-.24-.13-.35v.3c-.02-.08-.05-.16-.06-.22.05.16.03.32.05.48-.05-.27-.02-.59-.3-.76.08.11.16.22.19.35-.17.03-.51-.36-.63-.48.08.08.21.14.3.22-.05-.14-.25-.36-.44-.38.06.05.13.08.21.1-.06-.14-.3-.16-.46-.19.21.06.43.08.6.19-.11-.06-.25-.1-.36-.16.16,0,.4.06.54.13-.03-.05-.05-.08-.08-.13.1.03.19.05.27.1,0-.05-.02-.1-.03-.14.02.05.06.08.11.11,0-.05.05-.1.05-.14.03.05.1.08.16.08v-.06s.11.03.13.05c0-.02.03-.05.03-.06.21.11.33.03.55.08,0,0,0-.03.02-.05.08,0,.08-.05.13-.05.06,0,.13.03.17.06.03-.03.08-.03.11-.05,0,.05.05.08.06.11l.03-.03s.03.11,0,.14c0,0,.02-.05.02-.06.02.06-.03.16-.06.14,0,0-.06,0-.11.13l-.05-.02Z"/><path class="cls-12" d="M13.23,15.56c.08-.21.17-.4.32-.55-.05-.02-.11-.1-.16-.11.16-.3.29-.49.62-.54-.22.03-.48.11-.7.16.02-.05.05-.1.08-.14-.02,0-.03.03-.06.03.02-.03.05-.05.08-.08,0,0,0,.03-.02.03.03-.03.06-.05.08-.1.24-.19.55-.35.79-.41-.25.02-.49.11-.74.16h-.16c0-.06.05-.11.06-.17.13-.11.3-.19.46-.25-.16.02-.4.1-.6.1,0-.03,0-.05.03-.08-.03,0-.1-.03-.13-.03.03-.05.02-.1.05-.14,0,0-.03-.02-.05-.03.08-.11.22-.17.32-.27-.1.02-.19.05-.29.03.06-.14.21-.21.32-.3h-.1c.03-.1.1-.16.19-.19-.08.03-.19.06-.27.06.08-.14.27-.21.4-.29h-.06c-.08.03-.16.05-.24.08l.13-.06h.05-.06c.08-.08.19-.13.25-.22-.08.02-.17.03-.25.02.08-.11.22-.16.32-.24h-.22c.03-.06.1-.1.17-.11,0,0-.03-.02-.05-.03.03-.03.06-.06.11-.08-.06.02-.13.03-.19.03l.06-.21s.08-.03.13-.05h0c-.06,0-.11,0-.17.02h0c-.06,0-.13.03-.17.05-.14.08-.29.17-.44.27.06-.03.14-.05.21-.06-.21.16-.62.32-.73.48.1-.05.22-.08.33-.08-.14.17-.41.25-.54.44.06-.02.17,0,.24,0-.08.17-.25.25-.32.43.05,0,.1.02.14,0-.03.16-.14.48-.25.62.05,0,.1.03.13.05-.05.11-.06.22,0,.32,0,.05-.03.08-.03.13.03,0,.06,0,.1.03-.11.21,0,.33.22.32-.03.24.03.62.3.67-.03.13-.08.24-.13.36.11.03.25.06.36.1-.08.11-.11.22-.05.33.16-.22.29-.48.52-.6-.13.08-.3.14-.43.1l.05.05ZM13.43,12.18s-.05.03-.06.03c.02,0,.05-.03.06-.03h0ZM13.42,12.31c-.06.02-.14.05-.22.08.02-.03.05-.06.08-.1.05,0,.1,0,.14.02Z"/><path class="cls-6" d="M15.84,14.15v.13s0,.08.02.14c0,.06-.05.1-.03.17v.21s-.05,0-.1.05.06.36.08.46-.03-.05-.08-.08-.03.03-.08.16,0,.19,0,.19c0,0-.06-.14-.1-.16s-.05.06-.08.19-.11.13-.11.13c0,0-.03-.03,0-.08s-.14-.05-.14-.05v.27c-.02-.14-.13-.35-.33-.4-.02.08,0,.17.05.25-.05-.17-.16-.38-.35-.51-.02.1,0,.21.05.3-.16-.29-.33-.55-.43-.86,0,.13.08.25.03.38-.17-.21-.29-.51-.36-.74,0,.13.03.24.03.36-.06-.25-.13-.49-.17-.74,0,.16-.03.32-.03.48,0-.24-.06-.52.13-.74-.13.06-.25.14-.38.21-.02-.33.21-.65.48-.92-.05.16-.35.3-.55.35.13-.29.46-.59.78-.79-.14.06-.32.11-.49.14.25-.25.57-.48.97-.62-.21.08-.48.1-.71.08.27-.25.65-.27,1.01-.43-.27.02-.54.05-.81.05.24-.14.49-.3.81-.36h-.32c.17-.06.4-.06.55-.16-.1,0-.21-.03-.3-.03.06-.02.17-.08.32-.14.08-.05.63-.21.71-.25s-.25-.02-.14-.08.29-.16.35-.17c-.03,0-.19-.13-.22-.13.19-.06.33-.02.49-.11-.08,0-.17-.19-.24-.19.46-.13.7.25,1.17.24-.11.11-.3.17-.46.25.22-.02.44-.11.65-.16-.21.14-.48.21-.63.38.16,0,.32-.05.46-.1-.17.14-.6.19-.71.4.19-.06.41-.13.6-.17-.11.14-.33.22-.46.35.08-.03.19-.05.27-.08-.14.16-.41.22-.62.35.05,0,.13,0,.19-.03-.14.36-.73.55-.74,1,.08-.08.17-.17.19-.27-.05.21-.14.4-.14.6,0-.08.02-.17.08-.24,0,.22,0,.52-.08.73,0,0,0-.1,0-.08-.03.19.03.38.02.59-.03-.1-.05-.17-.11-.25-.05.16.08.33.16.49v-.19c-.02.11.08.24.08.21l-.19.03v.02Z"/><path class="cls-12" d="M14.67,19.08c-.17.02-.35.03-.52,0,0,.03-.02.1,0,.13-.27,0-.46,0-.62-.19.11.13.27.24.38.35h-.13s.03,0,.05.02c-.03,0-.05,0-.08-.02h.03s-.06,0-.1-.02c-.22-.08-.46-.21-.6-.32.11.14.27.25.41.38.02.03.05.06.06.1h-.14c-.14-.03-.25-.11-.36-.19.08.08.22.21.3.32h-.06s0,.06.03.08c-.05,0-.08.02-.11,0v.03c-.11,0-.22-.06-.32-.1.05.05.11.1.13.16-.13,0-.22-.05-.33-.1.02.02.03.05.05.06-.08,0-.16,0-.21-.05.06.03.11.08.14.13-.13,0-.25-.1-.36-.13,0,0,.02.03.03.03.05.03.1.08.16.11l-.1-.05s-.02,0-.03-.02c0,0,.02.02.03.03-.08-.03-.16-.06-.25-.08.05.05.1.08.11.14-.11,0-.21-.06-.3-.11.03.03.06.08.08.13-.06,0-.11-.03-.14-.06v.03s-.06,0-.1-.03c.03.03.08.06.1.1l-.17.03s-.05-.05-.08-.06h0s.06.06.1.1h0s.06.06.11.1c.11.05.24.11.36.17-.05-.03-.1-.06-.13-.1.19.06.48.25.62.27-.08-.03-.14-.1-.19-.16.19.03.35.16.54.16-.05-.03-.06-.1-.1-.13.14,0,.29.06.43.05l-.05-.1c.13-.03.4-.08.52-.06,0-.03,0-.06-.02-.1.1,0,.17-.03.22-.11.03,0,.06,0,.1-.03,0-.02-.02-.03-.02-.06.19,0,.24-.11.14-.24.17-.06.43-.22.35-.4.1-.02.21-.03.3-.05-.02-.08-.05-.17-.08-.25.11,0,.21,0,.25-.08-.22-.02-.44,0-.63-.1.11.05.22.13.24.22l-.05.05ZM12.21,20.07s.03.02.05.03c-.02,0-.03,0-.05-.02h0v-.02ZM12.32,20.04s.1.06.14.1h-.1s-.05-.06-.05-.1Z"/><path class="cls-12" d="M15.82,19.39c.17-.02.35-.03.52,0,0-.03.02-.1,0-.13.27,0,.46,0,.63.17-.11-.13-.27-.24-.4-.35h.13s-.03,0-.05-.02c.03,0,.06,0,.08.02h-.03s.06,0,.1.02c.22.06.46.21.6.32-.11-.14-.27-.25-.41-.38-.02-.03-.05-.06-.06-.1.05,0,.1,0,.14-.02.14.03.25.11.36.17-.08-.08-.22-.19-.32-.32h.06s0-.06-.03-.08c.05,0,.08-.02.11-.02v-.03c.11,0,.22.06.32.1-.05-.05-.11-.1-.13-.16.13-.02.22.05.33.08-.02,0-.03-.05-.05-.06.08,0,.16,0,.21.05-.06-.03-.13-.08-.14-.13.13,0,.25.08.36.13,0,0-.02-.03-.03-.03-.05-.03-.1-.08-.16-.11l.1.05s.02,0,.03.02c0,0-.02-.02-.03-.03.08.03.16.06.25.08-.05-.03-.1-.08-.11-.14.11,0,.21.06.3.1-.03-.03-.06-.08-.08-.13.06,0,.11.03.14.06v-.03s.06,0,.1.03c-.03-.03-.08-.06-.1-.1l.17-.03s.05.05.08.06h0s-.06-.06-.1-.1h0s-.08-.06-.11-.08c-.11-.05-.24-.11-.36-.17.05.03.1.06.13.1-.19-.06-.48-.24-.63-.25.08.03.14.1.19.16-.19-.02-.35-.16-.54-.16.05.03.06.1.1.13-.14,0-.29-.06-.43-.03.02.03.03.06.05.1-.13.03-.4.1-.52.06,0,.03,0,.06.02.1-.1,0-.17.05-.22.11-.03,0-.06,0-.1.03,0,.02.02.03.02.06-.19,0-.22.11-.13.24-.17.06-.43.24-.33.41-.1.03-.21.03-.3.05.02.08.05.17.08.24-.11,0-.21,0-.24.1.22.02.44,0,.63.1-.11-.05-.22-.13-.24-.22l.03-.02ZM18.25,18.35s-.03-.02-.05-.03c.02,0,.03,0,.05.02h0v.02ZM18.14,18.38s-.1-.06-.14-.1h.1s.05.06.05.1Z"/><path class="cls-17" d="M22.38,11.6s-.08-.32-.36-.36-.52.06-.57.3c-.05.24.13.36.25.4.3.1.52.06.59,0s.1-.33.1-.33Z"/><path class="cls-9" d="M22.08,11.99s.27-.13.27-.29c0-.25-.11-.35-.11-.35,0,0,.22.22.24.33,0,.14,0,.24-.22.29s-.17,0-.17,0v.02Z"/><circle class="cls-10" cx="22.08" cy="11.52" r=".13"/><path class="cls-15" d="M25.76,13.67s.03-.13-.05-.13-.54.11-.6.24c-.08.13-.06.33,0,.4s.19.11.24.1.08,0,.13-.03c.08-.08.29-.57.29-.57Z"/><path class="cls-17" d="M25.03,13.91c.02-.17.36-.27.68-.32h.06s.03.19-.1.41c-.13.22-.17.21-.24.21-.33.02-.43-.11-.41-.3h0Z"/><path class="cls-5" d="M25.6,13.74s-.33.06-.38.14c-.05.08-.06.19,0,.21s.13,0,.1-.03,0-.13.03-.16.25-.16.25-.16h0Z"/><path class="cls-8" d="M18.99,11.87c-.06-.16-.35-.1-.46-.19.03.06.17.11.24.14-.05-.02-.11-.03-.16-.03.06.1.24.1.35.16v-.02c.08.08.21.1.25.19-.02-.05-.03-.1-.08-.13.03.06.05.13.11.16l-.03-.03s.06.17.11.16c0-.02-.03-.05-.06-.05.02.06.08.14.14.16-.03-.02-.08-.05-.13-.06.03.11.25.27.36.32-.06,0-.11-.03-.16-.06.03.08.1.13.16.19-.05-.02-.1-.03-.14-.03.05.08.13.14.21.19-.03-.03-.08-.03-.11-.03.05.08.13.17.21.22-.05-.08-.1-.17-.13-.27.03.02.06.05.11.06,0-.08-.08-.19-.13-.27.03.02.05,0,.08,0-.02-.05-.05-.08-.05-.14.02.02.05.05.1.05,0-.06-.05-.13-.06-.17h.06c-.02-.06-.05-.14-.06-.21.06.03.13.05.1-.06h.1s-.06-.08-.11-.06c0,0,0,.03.02.05-.08-.02-.19-.06-.25-.06.02.03.03.08.05.11-.02,0-.05,0-.06-.02v.03c-.06-.02-.11-.1-.16-.11.03.05.05.11.06.16-.05-.1-.14-.22-.25-.25.02.06.06.11.1.16-.05-.11-.29-.22-.41-.22,0,.03.03.06.06.06-.08-.08-.22-.11-.29-.21l.38.14-.05-.02Z"/></svg>