<?xml version="1.0" encoding="UTF-8"?><svg id="Complications" xmlns="http://www.w3.org/2000/svg" viewBox="0 0 32 32"><defs><style>.cls-1{fill:#e2ece6;}.cls-1,.cls-2,.cls-3,.cls-4,.cls-5,.cls-6,.cls-7,.cls-8,.cls-9,.cls-10,.cls-11,.cls-12,.cls-13,.cls-14,.cls-15,.cls-16,.cls-17,.cls-18,.cls-19,.cls-20,.cls-21,.cls-22,.cls-23,.cls-24,.cls-25,.cls-26,.cls-27,.cls-28,.cls-29{stroke-width:0px;}.cls-2{fill:#fcf9fb;}.cls-3{fill:#e8e6df;}.cls-4{fill:#d4bead;}.cls-5{fill:none;}.cls-6{fill:#d58180;}.cls-7{fill:#a68d86;}.cls-8{fill:#3a596d;}.cls-9{opacity:.7;}.cls-9,.cls-24{fill:#fff;}.cls-10{fill:#312c28;}.cls-11{fill:#37322a;}.cls-12{fill:#d2c8b4;}.cls-13{fill:#302a24;}.cls-14{fill:#eccfc5;}.cls-15{fill:#d9d6cd;}.cls-16{fill:#504747;}.cls-17{fill:#2d2d24;}.cls-18{fill:#c6c3bc;}.cls-19{fill:#433f3c;}.cls-20{fill:#8cc2c7;}.cls-21{fill:#eee3cd;}.cls-22{fill:#e0e2e3;}.cls-23{fill:#ca4c5f;}.cls-25{fill:#f5f4ec;}.cls-26{fill:#f4f9ff;}.cls-27{fill:#6a9596;}.cls-28{fill:#3c342e;}.cls-29{fill:#c5d9cf;}</style></defs><rect class="cls-5" y="0" width="32" height="32"/><path class="cls-24" d="M26.91,12.23c.11-.53.16-1.23-.23-1.62-.15-.15-.32-.39-.45-.6-.12-.28-.22-.54-.25-.64-.03-.09-.13-.46-.22-.77-.07-.25-.13-.46-.14-.5,0-.02-.9-2.46-1.89-2.76-.28-.09-.63-.17-.95-.24-.23-.05-.54-.13-.65-.16-.26-.18-1.12-.61-1.76-.22-.14.09-.28.19-.42.28-.13.09-.33.23-.38.25-1.35.76-3.19.76-3.43.79-.06-.05-2.32-1.14-2.37-1.13.09-.14,1.01-2.24,1.03-2.44.06-.5-.26-1.27-.71-1.7-.34-.33-1.05-1.02-2.22-.68-.71.2-1.3.72-1.69,1.44-.11.2-.2.68-.24.93-.02.01-.03.03-.05.04-.04-.02-.08-.05-.11-.06-.31-.1-.66.03-.84.21,0,0-.1.11-.2.24-.35.12-.95.37-1.49.82-.82.69-1.3,1.64-1.54,3.08-.14.86-.65,3.7-.74,4.23-.26.44-.37,1.21-.41,1.67,0,.05,0,.1.01.15-.07.35-.13.66-.14.83-.04.47-.45,5.25-.45,5.25-.02.25.12.48.34.58,0,0,.15.06.33.13.15.59.29,1.25.32,1.7.03.5.08.86.12,1.11.02.13.04.24.04.35.23,3.52.39,5.6.47,6.21,0,.03,0,.07,0,.08,0,0,0,.01,0,.02,0,.03.01.06.02.08.02.04.03.1.06.15.02.04.03.07.05.11.01.03.03.06.04.09.01.11.04.23.08.34.16.41,1.58,1.76,2.47,2.05.17.05.31.08.44.08.25,0,.42-.08.54-.17.22-.16.35-.43.34-.73,0-.35-.19-.7-.28-.84l-.74-1.03v-.21c.25.34.56.66.76.81.01,0,1.18.87,1.92.87.07,0,.13,0,.19-.02.3-.08.52-.28.6-.55.17-.53-.25-1.13-.54-1.45l-.5-.53c.04-.24.07-.46.07-.47l.74-7.13.51-.03c.16-.01.32-.09.42-.22.1-.13.14-.3.11-.46,0-.03-.53-2.72-.61-3.28-.06-.39-.16-.9-.27-1.42-.16-.78-.39-1.97-.35-2.27.05-.38.12-1.05.16-1.52h.91c.13.02.33.02.53-.1.18-.11.29-.3.32-.52.01-.1.03-.41.04-.75h.17s.11,0,.22,0c.05,0,.1,0,.15,0,0,.04.01.08.03.12.06.18.22.4.49.48.06.02.13.03.2.03.03,0,.06-.01.09-.02.01,0,.02,0,.03,0,.06-.01.12-.03.18-.06.03.25.07.52.11.66-.01.23-.05.92.06,1.35.05.21.04.93.04,1.27,0,.24,0,.42,0,.48.03.23.23.93.32,1.18.03.11.08.6.12.92.07.62.12,1.05.19,1.29.12.41.71,2.23.71,2.23,0,0,0,0,0,0,0,.02,0,.05,0,.07,0,.27.13.64.34,1.22.08.21.19.52.2.56,0,.86.07,1.28.26,1.53.05.08.14.25.23.43.21.41.33.64.45.79.03.24.01.86-.13,1.41-.15.6-.27,1.36-.33,1.74-.05.04-.08.08-.08.08-.12.11-.19.27-.18.44,0,0,.01.27,0,.33-.08.16-.26.52,0,.86.22.28.59.27.82.26.08,0,.16-.02.24-.04.08.03.18.06.29.07.09.02.23.05.37.05.16,0,.33-.03.47-.12.22-.14.39-.43.42-.73,0-.05,0-.12.01-.19,0-.07,0-.15,0-.17.05-.14.05-.28.03-.4.01-.13,0-.25-.01-.33,0-.05-.01-.11-.01-.14.01-.09.05-.2.09-.33.09-.3.19-.66.21-1.01.14.06.25.08.33.08,0,0,0,0,.01,0,0,0,0,.01,0,.02-.01.47-.03.92,0,1.21.04.29.02.81,0,1.13-.03.08-.04.16-.03.24,0,0,.07.73.09.85.09.44.54.59.92.59,0,0,.01,0,.02,0,.17,0,.29-.02.49-.08,0,0,.01,0,.02,0,.05.01.1.03.15.03.03,0,.05,0,.08,0,.3.03.59.04.82-.16.12-.1.21-.29.21-.45,0,0-.02-.85-.27-1.35-.14-1.91-.25-2.15-.29-2.23-.07-.18-.12-.94-.09-1.12.06-.24.37-1.29.37-1.29.01-.04.02-.07.02-.11.05-.62.13-1.37.16-1.49.02-.06.06-.21.11-.4.08-.33.26-1,.36-1.22.15-.29.24-.73.33-1.15.05-.21.09-.42.13-.55.16-.48.07-1.14.05-1.27,0-.02-.01-.04-.02-.05.34-.21,1.08-.72,1.44-1.31.01-.02,1.08-1.8,1.02-2.47,0-.07-.01-.23-.02-.45-.01-.44-.03-.79-.04-1.09Z"/><polygon class="cls-14" points="12.03 8.18 12.21 8.16 12.28 8.11 12.13 7.86 11.87 7.58 11.84 7.43 11.74 7.47 11.88 8.11 12.03 8.18"/><path class="cls-21" d="M20.28,17.25s.11,2.65.25,3.32c.14.67.22,1.48.17,1.95-.06.47-.28,1.56-.22,1.84.06.28-.06.78-.06.78,0,0,.25-.53.53-.45.28.08.5.31.5.31,0,0-.03-2.01.08-2.2.11-.2.14-1.09.11-1.45-.03-.36.23-2.5.26-2.61.03-.11-.49-1.52-.49-1.52l-1.14.03Z"/><path class="cls-28" d="M20.34,25.56s.11-.86.47-.92c.36-.06.47.08.64.36.17.28.17.72.17.72,0,0-.42.06-.5.08-.08.03-.14-.33-.14-.33,0,0,0,.31-.11.33-.11.03-.53-.25-.53-.25Z"/><path class="cls-21" d="M19.34,19.26s.16,2.65.26,3.3c.1.64,0,1.29,0,1.53s.35,1.68.35,2.13-.25,1.04-.3,1.34c-.05.3.15.59-.15.74l-.3.15s.1-.59-.15-.64c-.25-.05-.7.19-.7.19,0,0,.15-1.13.35-1.93.2-.79.2-1.78.05-1.88-.15-.1-.54-1.04-.69-1.24-.15-.2-.15-.94-.15-1.19s-.54-1.44-.54-1.78-.36-1.49-.06-1.69c.14-.09.85-.18,1.31.07.49.27.73.89.73.89Z"/><path class="cls-10" d="M22.86,22.77c.07-.47.4-2.34.4-2.34,0,0,.33-1.41.54-1.61.2-.2,0-1.34.27-1.67,0,0,1.01-.58,1.4-1.22.38-.63.96-1.81.93-2.12-.03-.3-.03-2.36-.22-2.61-.19-.25-.69-1.48-.74-1.65-.05-.16-.33-1.18-.36-1.26-.03-.08-.88-2.2-1.51-2.39-.63-.19-1.59-.36-1.73-.47-.14-.11-.8-.44-1.15-.22-.36.22-.74.55-.96.6-.22.05-1.29.47-1.29.47,0,0,2.56,1.62,2.61,2.28.05.66-.55.91-.55,1.26s.14,1.57.22,1.79c.08.22-.22,2.12-.38,2.56-.16.44-2.36-2.06-2.36-2.06l-.99-.63-1.05-.31s-.06.82.04,1.23c.1.41.04,1.66.06,1.82.02.16.2.8.29,1.07.1.27.2,1.82.31,2.23.12.41.7,2.21.7,2.21,0,0,.12-1.05.33-1.17.21-.12.49,0,.49,0,0,0-.1-.04,0,.14.1.18.27.16.29.04.02-.12.02-.35.16-.27.14.08.37.64.64.82.27.18.51.27.64.41.14.14.29-.1.43-.14.14-.04.45.1.55,0,.1-.1.43-.49.55-.49s.31-.12.39.04c.08.16.05.44.03.67,0,0,.03,1.08.06,1.39.03.3.97,1.62.97,1.62Z"/><path class="cls-21" d="M23.56,9.14s.38.45,0,.93-.97.3-1.15.68-.07.87-.21,1.01-.21.25-.38.05c-.09-.11-.18-.68,0-1.28.13-.41-.54-.07-.35-.22.4-.32,2.09-1.17,2.09-1.17Z"/><path class="cls-19" d="M14.99,8.07s-.34-1.09-.32-1.21c.01-.12.08-.25.08-.25,0,0,.16-.49.37-.6.22-.11.44.22.59.38.14.17.47.42.58.47l.11.05s.26-.35.45-.42c.18-.07.41-.06.64-.02.23.04.59.05.59.05,0,0,.54,0,.65.1.11.11-.04.23.12.23s.54.01.72.08c.18.07.41.05.64.22.23.17.35.4.43.65.08.25.25.57.53.59.28.02.94-.32,1.21-.49.28-.17.29-.2.72-.14.43.06.91.36,1.01.43.1.07.01.47-.01.55-.02.08-.49,1.06-1.11,1.27-.61.22-.84.11-1.18.07-.34-.04-.82-.18-1.01-.1-.19.08-.3.17-.25.29s1.19,1.24.83,2.09c-.36.85-.84,1.41-.85,1.72-.01.31,0,2.03-.2,2.39-.2.36-.55,1.64-.55,1.64,0,0-.49-.18-.41-.81.08-.63-.06-1.41-.23-1.7-.17-.29-.81-1.71-.88-2.02-.07-.31-.52-1.19-.89-1.49-.37-.3-1.41-.89-1.47-1.08-.06-.19-.13-.96-.13-.96l-.77-1.98Z"/><path class="cls-21" d="M18.07,6.51s.28-.19.47-.17c.19.02.38.05.38.05,0,0,.07-.11.17-.11h.16s-.16.06-.13.12c.02.06.8.2.72.12-.05-.05-.3.14-.16.27.07.07.15.13.2.17.07.06.18.11.18.11,0,0-.76-.24-.99-.23-.23.01-.32.02-.37.05-.05.02-.37-.19-.34-.24.04-.05.02-.1.02-.1,0,0-.04,0-.16.01-.12.01-.16-.05-.16-.05Z"/><path class="cls-21" d="M19.77,8.02c.03-.05.17-.08.33-.1.16-.02.17.03.22.17.05.14,0,.31-.06.37-.1.1-.16.09-.2.11-.04.01-.07-.07-.14-.16-.07-.09-.18-.33-.14-.38Z"/><path class="cls-21" d="M15.42,7.71s.34-.46.47-.54c.13-.08.15-.12.47-.04.33.08.77.35.9.36.13.01.29.27.33.39.04.12-.14.26-.29.34-.14.08-.39.26-.42.33-.03.07-.1.21-.1.21,0,0,0-.1-.21-.26-.21-.16-.35-.17-.35-.17l-.55-.08-.47-.06.22-.46Z"/><path class="cls-13" d="M16.82,7.64s-.12.12-.05.23c.07.12.14.25.25.26.1.01.23-.05.27-.17.04-.12,0-.2-.05-.25-.05-.05-.22-.16-.42-.08Z"/><path class="cls-13" d="M15.82,7.62s.11.03.2-.09c.09-.12.1-.26.09-.31-.02-.05-.1-.17-.16-.11-.06.05-.16.21-.22.26-.06.05-.09.18-.07.21.02.03.16.04.16.04Z"/><path class="cls-21" d="M24.95,7.99s.21,2.35-.38,3.07c-.58.72-.58.83-.58,1.09s.07,2.56.32,2.06c.54-1.08.89-2.17,1.29-1.72.25.28.67-.09.67-.09,0,0,.31-1.07,0-1.39-.31-.31-.71-1.31-.8-1.62-.09-.31-.53-1.4-.53-1.4Z"/><path class="cls-28" d="M18.13,28.18s.01.45-.02.53c-.03.08-.15.26-.1.32.05.06.31.04.37.04s.17-.06.24-.09c.07-.03.16-.02.17.06.01.08.12.05.26.08.14.03.32.05.4,0,.08-.05.15-.18.16-.31.01-.12.01-.4.05-.49.03-.1,0-.22-.04-.3-.03-.08-.19-.69-.28-.82-.1-.12-.28-.07-.35.08-.07.15-.32.32-.39.42-.07.1-.46.47-.46.47Z"/><path class="cls-17" d="M18.55,28.99s.09-.4.1-.46c0-.06.05-.21.07-.24.02-.03.1-.14.1-.14,0,0,.03.41.03.5s-.06.35-.06.35c0,0-.03-.03-.1-.03-.06,0-.14.02-.14.02Z"/><path class="cls-21" d="M23.97,17.69s-.74,1.72-.82,2.43c-.29-.52-.78-1.47-.34-2.11.06-.08-.45-.59-.63-.97-.18-.38.58-.62.58-.66,0-.16-.41.08-.41-.08s.58-.75.58-1.02-.22-.65-.06-1.2c.1-.35-.2.49-.67.91-.26.23-.39-.44-.46-.28-.06.15.09,1.19-.2,1.92-.24.6-1.28,1.29-1.53,1.61-.21.26-.72-.37-.72-.37-.24.21-.77-.77-1.38-1.46-.32-.36-.22-.66-.49-.83-.29-.18,0,.56,0,.68s-.49.52-.38.6c.12.08.4.06.34.21-.09.25.8.09.93.25.2.22.35.74.47.94.24.4.8.56.94.59.47.08.7-.12,1.06-.63.35-.51,1.02-.23,1.25,0,.18.18.81,1.62,1.13,2.12,0,0,0,.02.01.03.2.36-.88.99-.99,1.15-.11.16-.35-1.8-.35-1.8,0,0-.01,2.09-.26,2.59-.25.5-.37,1.19-.31,1.69.06.5.11.93.18,1.36.06.44-.05,1.69.01,2.19.06.5,0,1.44,0,1.44,0,0,.44-.5.75-.19.31.31.64-.04.64-.04,0,0-.14-2.09-.26-2.34-.12-.25-.19-1.25-.12-1.5.06-.25.37-1.31.37-1.31,0,0,.12-1.44.19-1.62.06-.19.31-1.31.5-1.69.19-.37.31-1.25.44-1.62.12-.37.03-1,.03-1Z"/><path class="cls-28" d="M22.76,28.56c-.2.02-.44.23-.52.17-.08-.06-.25-.11-.44-.09-.18.02-.38.31-.38.31,0,0,.07.69.09.79.02.1.29.13.36.12.12,0,.19,0,.37-.07.18-.06.84.11.84-.04,0-.15-.12-1.21-.32-1.18Z"/><path class="cls-17" d="M22.25,29.76v-.83s.31.83.32.84c0,.02-.03.02-.03.02,0,0-.22-.08-.29-.04Z"/><path class="cls-17" d="M20.8,25.77s.17-.27.19-.37c.02-.1.03-.25.06-.13.04.13.11.5.11.5l-.05.04s-.03-.07-.12-.06c-.09.02-.2.02-.2.02Z"/><path class="cls-12" d="M21.33,24.63s-.17-.81-.12-1.01c.05-.2.15-.84.2-.95.05-.11.2-.57.2-.57l.06-.51s.05-1.21.05-1.44.11-.98.11-.98c0,0-.12-.14-.21-.14s-.61.37-.66.43c-.05.06-.21.17-.21.17,0,0,.12.25.34.52.21.28.18.44.2.81.02.37-.05,1.06-.05,1.32s-.23.77-.23,1.13-.02.87,0,.94c.02.06.34.28.34.28Z"/><path class="cls-13" d="M20.25,8.05c-.02-.06-.19-.03-.25.14-.06.17.06.33.06.33,0,0,.15-.03.19-.18.04-.15.01-.23,0-.29Z"/><path class="cls-21" d="M20.05,8.19s.05-.06.12-.06.06,0,.07.04c0,.04-.02.12-.02.12,0,0-.17-.14-.18-.1Z"/><path class="cls-11" d="M20.81,9.98c.19-.08.67.06,1.01.1.34.04.57.14,1.18-.07.61-.22,1.08-1.19,1.11-1.27.02-.08.11-.48.01-.55-.1-.07-.58-.37-1.01-.43-.43-.06-.45-.02-.72.14-.28.17-.94.52-1.21.49,0,0-.33-.14-.38-.26-.06-.11.32.29.34.4,0,.04.27.42-.22.89-.34.33-.44.64-.42.69.04.08.3.55.35.77.17.84-.22,1.8-.22,1.8.36-.85,0-2.29-.06-2.41-.05-.12.06-.2.25-.29"/><path class="cls-23" d="M15.87,7.69s-.05.08-.13.11c-.08.03-.15.03-.17,0-.01-.03.05-.08.13-.11.08-.03.15-.03.17,0Z"/><path class="cls-6" d="M15.58,7.83s.02.06.03.07c0,0,.29.04.29.04,0,0,.03-.01.03-.04s-.05-.2-.05-.2c0,0-.03.07-.13.11-.1.03-.17.01-.17,0,0,0,0-.01.01-.04,0,0-.02.02-.02.03,0,.01,0,.03,0,.03Z"/><path class="cls-2" d="M15.89,7.94s.03-.02.03-.04c0-.02,0-.04,0-.04,0,0,.03,0,.04.02,0,.02.02.09.02.09l-.09-.03Z"/><path class="cls-23" d="M15.21,7.75s.03-.16.05-.17c0,0,.02,0,.03,0,0,0,.02,0,.03,0,.07.02.22.05.22.05,0,0,.01,0,.01.01,0,.01-.04.16-.04.18,0,.01,0,.02-.02.02-.05-.01-.26-.06-.27-.06-.02,0,0-.03,0-.03Z"/><path class="cls-29" d="M16.21,8.59l.46,1.11s.03.1-.03.17c-.06.07-.17.06-.24-.02-.06-.07-.4-1.01-.4-1.01,0,0,.06-.07.07-.17,0-.09.02-.2.02-.2l.12.11Z"/><path class="cls-23" d="M16.54,9.65l-.06-.08-.24-.85s.1.27.13.33c.03.06.16.42.17.47.02.05.03.12,0,.12Z"/><polygon class="cls-9" points="16.06 8.73 16.08 8.61 16.55 9.91 16.49 9.92 16.06 8.73"/><path class="cls-29" d="M14.87,9.42s-.1.46-.09.49c0,.03.1.2.26.08.06-.04.08-.22.08-.22l.06-.38s-.11.02-.15.03c-.04,0-.16,0-.16,0Z"/><path class="cls-9" d="M15.08,9.42l.07-.02s-.09.54-.13.58c-.04.04-.12.05-.12.05,0,0,.07-.04.09-.11.03-.07.09-.5.09-.5Z"/><path class="cls-23" d="M14.92,9.43s-.02.14,0,.13c.02,0,.06-.09.06-.09,0,0-.02,0-.02-.02s0-.03,0-.03h-.04Z"/><path class="cls-2" d="M15.21,7.76s-.04-.01-.04.04c0,.01,0,.03,0,.03,0,0,.24.03.28.04.05,0,.06,0,.06,0,0,0,.02,0,.02-.02,0-.03-.02-.04-.02-.04,0,0,0,.01-.01.01-.01,0-.27-.05-.28-.06,0,0,0-.01,0-.02Z"/><polygon class="cls-6" points="15.27 7.79 15.32 7.59 15.36 7.59 15.3 7.8 15.27 7.79"/><polygon class="cls-6" points="15.32 7.8 15.37 7.6 15.39 7.6 15.34 7.81 15.32 7.8"/><path class="cls-20" d="M13.05,8.22h.08s0-.03.03-.03.08,0,.13,0c.05,0,.11-.05.16-.06,0,0,.51-.15.61-.19.1-.03.46-.11.58-.1.11,0,.41-.05.51-.03.1.03.4.06.46.07.06,0,.4.06.52.12.12.06.33.21.33.36s-.05.21-.1.21-.23-.07-.25-.08c-.02-.02-.04.11-.05.15,0,.04-.03.14-.05.18l-.02.04s.08.14.07.23c-.02.09-.04.13-.04.13,0,0,.06.02.04.12-.02.1-.23.18-.32.16-.08-.02-.28-.1-.33-.1s-.14-.02-.17-.01c-.03,0-.18.03-.37.04-.19.01-.94-.04-1.02-.04s-.16,0-.21,0-.21,0-.21,0c0,0-.14,0-.17.02-.03.02-.13.05-.13.05,0,0,.03-.67.03-.85,0-.17-.09-.37-.09-.37Z"/><path class="cls-4" d="M9.88,3.27s.56-.43.65-.57c.05-.09.06-.33.12-.44.06-.11.41.19.61.29.2.09,1.26.05,1.4,0,.13-.05.39-.17.48-.13.09.03.56-.24.58-.24.03,0,.28-.2.28-.2l.09.08s0,.57-.03.68c0,0-.05.23-.07.31-.02.08-.13.41-.14.44-.02.06-.05.17-.1.17s-.16-.04-.18,0c-.02.04-.09.21-.09.21,0,0-.17.61-.4.84-.24.23-.92.54-.92.54,0,0-.15,0-.21-.04-.06-.04-.27-.29-.27-.29,0,0-.1.08-.17.12-.07.03-.25.05-.35.08-.09.03-.22.13-.22.13,0,0-.75-1.47-.83-1.59-.08-.13-.24-.39-.24-.39Z"/><path class="cls-11" d="M10.51,2.69s.2-.1.32-.09c.18.02.16.2.25.25.15.08.59.16.91.11.32-.05.55-.13.69-.14.23-.03.36.05.36.05l.06.05s.14,0,.15.07c0,.08-.05.17-.05.17l.03.13.04.25s-.04,0,.01.02c.05.02.17-.22.2-.25.08-.09.16-.19.24-.26.04-.04.49-.35.52-.64.03-.29-.2-.9-.51-1.2-.31-.3-.81-.82-1.68-.56-.88.25-1.26,1.02-1.34,1.16-.08.14-.19.81-.2.88Z"/><path class="cls-7" d="M12.86,3.03s.08-.06.14-.08c.05-.02.1-.03.1-.03,0,0-.07-.07-.1-.08-.03,0-.06-.05-.27-.03-.05,0-.17.02-.35.07,0,0,.27.16.17.28-.1.12-.18.24-.19.44,0,.17.08.32.08.32,0,0,.05-.39.06-.48.02-.22.35-.41.35-.41Z"/><path class="cls-26" d="M12.84,3.05s-.19.08-.29.19c-.09.12-.1.26-.11.36,0,.1.03.9.03.9h-.1s-.15.4-.23.51c-.08.11-.19.19-.19.19l-.27-.29-.17.12s.18.2.24.24c.06.04.48.1.61.11.13,0,.52-.24.61-.33.08-.08.18-.19.22-.24.04-.06.21-.33.22-.4,0-.07.12-.47.12-.47l-.13-.08h-.06s-.13-.72-.13-.72l-.07.04s.17.64.16.69c0,.05-.04.08-.07.13-.03.06-.1.28-.15.35-.05.07-.08.17-.13.18-.05,0-.1-.03-.1-.03l-.29-.03s-.04-.61-.04-.75,0-.36.08-.46c.09-.1.21-.16.21-.16l.03-.07Z"/><path class="cls-7" d="M12.7,3.62v-.12s.06-.07.09-.09c.03-.02.04-.06.04-.06,0,0,.01.02-.01.08-.02.07-.04.08-.04.1s-.08.08-.08.08Z"/><path class="cls-7" d="M12.92,3.24s.1-.07.11-.1c.02-.02.04-.08.04-.08,0,0,.05,0,.08,0s.02-.04.03,0c.01.04-.05.08-.07.09-.02.01-.08.06-.08.06,0,0-.06.05-.11.03Z"/><path class="cls-7" d="M12.61,3.89s-.06.02-.08-.02c-.02-.04,0,.16,0,.16,0,0,.08-.12.08-.14Z"/><path class="cls-16" d="M13.13,3.2s-.06.07-.04.12c.02.08.12.21.12.21l-.08-.33Z"/><path class="cls-22" d="M11.95,5.21s-.11.08-.16.08c-.05,0-.28-.25-.28-.25l.17-.12.27.29Z"/><path class="cls-18" d="M9.2,3.41s.06-.04.26.11c.14.1.29.31.3.35.19.38.81,1.66.83,1.75.02.11.18.11.24.09.07-.02.21-.13.21-.13l-.28-.16s-.52-1.26-.54-1.25c-.01,0-.5-.57-.72-.74-.27-.21-.29-.01-.29-.01Z"/><path class="cls-25" d="M9.18,3.33c0-.05.13-.21.18-.26.06-.06.19-.1.26-.08.07.02.31.21.53.47.22.26.8,1.72.86,1.91l.07.19-.37-.05s-.29-.42-.34-.67c-.05-.25-.34-.67-.37-.73-.03-.07-.55-.67-.61-.72-.08-.08-.22,0-.21-.06Z"/><path class="cls-15" d="M11.01,5.61s.02.2.07.26c.06.07.29.33.29.33,0,0-.1.3-.09.41,0,.11.07.69.02.99-.05.31-.17.84-.17.84,0,0-.3-.14-.34-.15-.04,0-.06-.01-.06-.01,0,0,.27-.87.27-1.03s-.19-1.18-.19-1.18l-.07-.36.26-.11Z"/><path class="cls-25" d="M11.31,7.61s.24-.12.35-.15c.11-.02.16-.03.16-.03,0,0,0,.25.05.36.05.12.17.39.17.39,0,0-.4.05-.42.07-.02.02-.3.12-.32.15-.02.02-.15.04-.15.04l.17-.84Z"/><path class="cls-13" d="M10.34,28.18l.85.89s.78.9.2,1.05c-.29.08-1.24-.47-1.61-.75-.36-.28-.87-.94-.9-1.15-.03-.21,1.45-.04,1.45-.04Z"/><path class="cls-13" d="M7.9,29.15l1.04,1.44s.17.29.17.52c0,.23-.16.4-.56.26-.79-.26-2.05-1.53-2.12-1.71-.07-.19-.06-.46-.06-.46l1.53-.05Z"/><path class="cls-28" d="M11.49,19.01l-.89,8.6s-.03.26-.08.51c-.04.19-.06.38-.27.41-.26.04-.86-.04-1.14-.14-.29-.09-.31-.26-.33-.46-.01-.2-.18-7.8-.18-7.8l2.19-2.66.71,1.55Z"/><path class="cls-13" d="M11.3,20.07s-1.95.64-2.05,1.26c-.1.61,0,6.85,0,6.85,0,0,.07.31-.04.26-.11-.05-.43-.11-.44-.64-.01-.53-.17-7.51-.17-7.51l.37-.53,1.76-.55.66-.17-.09,1.03Z"/><path class="cls-28" d="M8.32,19.99v.04s-.02.33-.02.33l-.21,8.94s-.5.45-.86.45c-.73,0-.89-.4-1.01-.75-.12-.35-.72-10.22-.72-10.22,0,0,1.89,1.09,2.27,1.08.38-.01.56.14.56.14Z"/><path class="cls-13" d="M8.22,20.38s-1.01.42-1.32.83c-.31.41-.55,4.16-.5,5.81.05,1.65.05,2.35.05,2.35,0,0-.21-.12-.24-.37-.04-.25-.42-5.4-.47-6.21-.02-.33-.12-.71-.17-1.49-.07-1.13-.75-3.27-.75-3.27l3.49,1.78.12.19-.22.37Z"/><path class="cls-3" d="M9.18,3.37s-.84.2-1.54.79c-.7.59-1.12,1.41-1.34,2.73-.16.96-.76,4.36-.76,4.36,0,0-.47,2-.51,2.47-.04.47-.45,5.26-.45,5.26,0,0,.22.1.42.15.2.06,3.68.98,4.66.96l.98-.02.06-.91.15-1.36.06,2.22,1.46-.1s-.53-2.73-.62-3.3c-.17-1.12-.7-3.25-.62-3.86.09-.61.2-2.01.2-2.01h1.5s.19.06.22-.12c.02-.18.06-1.52.06-1.81s-.01-.68-.14-.7c-.13-.02-1.02,0-1.55.18-.53.18-.49.02-.58.01,0,0,.16-.86.16-.98s-.08-1.05-.12-1.17c-.04-.12-.17-.52-.17-.52,0,0-.64-1.18-.69-1.29-.04-.11-.41-.73-.46-.78-.05-.05-.39-.21-.39-.21Z"/><path class="cls-18" d="M8.09,12.94c.15.09,1.3.28,1.45.28s.8-.05.8-.05h-.42c-.24,0-1.26-.09-1.53-.22-.14-.07-.66-.13-.81-.31-.14-.16-.06-.2-.07-.26,0,0-.12.28-.05.33.15.13.53.17.64.23Z"/><path class="cls-18" d="M5.54,11.25s.34-.37.66-.53c.31-.16,1.04-.38,1.04-.38l.14.7s-1.47.64-1.6.7c-.13.06-.32.26-.32.32s-.23.39-.23.47-.07.23-.07.23c0,0,.11-1.21.38-1.5Z"/><path class="cls-20" d="M11.79,7.45s.03-.03.05-.02c.02.01.14-.09.19-.13.05-.04.12-.1.12-.1,0,0,.11-.04.13-.05.02-.01.13-.05.19-.15.06-.09.4-1,.53-1.07.13-.07.39-.21.43-.23.04-.02.25-.14.39-.12.15.02.62.27.68.36.06.09.08.13.04.16-.04.03-.1.05-.16.03-.05-.03-.13-.1-.16-.11-.03-.02-.06-.03-.06-.03,0,0-.05.07-.06.09,0,.02.18.08.22.11.05.04.14.11.18.13.04.02.08.04.08.04,0,0,.05.13,0,.15-.05.02-.17,0-.17,0,0,0-.02.21-.03.26-.01.05-.07.08-.11.06-.04-.02-.12-.09-.12-.09,0,0-.01.04-.05,0-.04-.05-.04-.16-.09-.17-.05-.02-.04-.05-.09-.02-.05.04-.11.07-.13.13-.02.06-.32.52-.35.58-.03.06-.34.47-.4.52-.06.06-.13.07-.16.09-.03.02-.17.12-.24.17-.07.05-.11.1-.11.1l-.03.02-.32.03s-.09-.15-.13-.19c-.04-.04-.22-.23-.22-.25s-.1-.28-.1-.28Z"/><path class="cls-20" d="M13.39,7.26c-.06.12.12-.2.12-.25,0-.05.07-.3.09-.36.02-.06.16-.17.22-.22.06-.05.25-.27.31-.36.02-.04.04-.07.04-.1,0-.04,0-.08-.02-.12-.03-.08-.12-.12-.21-.1-.09.02-.26.19-.31.24-.05.05-.16.15-.25.19-.09.04-.26.03-.28.03,0,0,.28.1.36.32.09.25-.03.64-.07.73Z"/><path class="cls-29" d="M13.79,5.86l-.86-.51s-.08-.04-.07-.08c0,0,0,0,0,0,.03-.04.07-.04.09-.03.02.01.9.57.9.57l-.07.05Z"/><polygon class="cls-1" points="13.8 5.84 12.86 5.27 12.88 5.25 13.82 5.83 13.8 5.84"/><polygon class="cls-29" points="14.14 6.06 14.19 5.99 16.05 7.21 15.88 7.23 14.14 6.06"/><polygon class="cls-1" points="14.16 6.04 15.92 7.23 15.98 7.22 14.17 6.02 14.16 6.04"/><path class="cls-27" d="M13.62,6.63s.24-.22.29-.27c.04-.05.24-.3.24-.3,0,0,.02.01.05.03l.43.26s.03.12.03.14c0,.02-.15.06-.19.02-.04-.04-.13-.19-.19-.19-.06,0-.16,0-.21.04-.05.04-.27.17-.32.21-.06.04-.11.07-.11.07Z"/><path class="cls-27" d="M14.19,5.99l.2.12s-.07-.06-.09-.08c-.03-.02-.07-.09-.06-.11,0-.03.03-.11-.04-.17-.03-.02-.09-.04-.11-.04-.03,0-.07.02-.07.02,0,0,.16.01.17.11.01.1,0,.15,0,.15Z"/><path class="cls-18" d="M10.27,13.27l-.44,3.52s-.25.12-.44.15c-.19.04-2.48-.46-2.48-.46l.39-3.31-.13.15s-.46,3.23-.33,3.29c.13.06,2.56.44,2.7.44,0,0,.39-.1.42-.21.04-.12.33-3.58.33-3.58Z"/><path class="cls-18" d="M9.56,10.72c-.06,0-.79-.05-1.35-.12-.49-.06-.75-.47-.8-.56-.07-.13-.15-.28-.15-.28,0,0-.17-.46-.17-.65,0-.19-.22-1.82-.22-1.89s.28-1.18.29-1.21c0-.03.03-.27.02-.41,0-.14.02-.31,0-.42-.02-.11-.06.02-.1.08-.04.06-.06.34-.06.34-.1.4-.21,2.09-.22,2.47,0,.2.15,1.01.32,1.59.11.35.22.6.28.71.03.12.07.22.08.24.02.04.14.14,1.05.26.91.13,2.56-.06,2.56-.06,0,0-1.47-.07-1.53-.07Z"/><path class="cls-18" d="M8.24,8.7s.64-.52.85-.5c.21.02.37.06.37.15,0,.1-.26.65-.37.77-.12.13-.87.69-.87.69,0,0,.16-.26.29-.4.1-.11.72-.71.65-.99-.04-.19-.73.23-.92.27Z"/><path class="cls-18" d="M12.08,8.17s-1.14.22-1.2.22c-.06,0-1.01-.06-1.04-.11-.03-.04-.14-1.17-.09-1.34.04-.17-.03-1.06-.03-1.17,0-.11-.02-.62-.09-.74-.07-.12-.44-.53-.44-.53l.04-.11s.31.05.4.4c.09.35.15,1.17.15,1.17,0,0,0,1.23,0,1.25,0,.01.05.92.1.97.05.04.25.1.45.11.2,0,1.05-.03,1.19-.06.14-.02.55-.07.55-.07Z"/><path class="cls-8" d="M9.91,7.64l.73.09.28.04-.07.52s-.19,0-.26,0c-.07,0-.23,0-.23.03s-.18,0-.25-.02c-.07-.02-.23-.12-.23-.12l.02-.54Z"/><path class="cls-8" d="M10.58,7.74l.73-1.75s.03-.11.08-.1c0,0,0,0,.01,0,.06.02.07.07.06.1,0,.03-.7,1.77-.7,1.77l-.17-.02Z"/><polygon class="cls-1" points="10.69 7.74 11.39 5.88 11.42 5.9 10.72 7.76 10.69 7.74"/><path class="cls-19" d="M21.49,8.54c.19.02.44,0,.44,0l-.06-.17s.29-.08.36-.04c.08.04.13-.28.23-.3.05,0,.08-.06.24-.1.03,0,.05-.02.07-.04.11-.05.33-.03.33-.03l.22.06.46.07s-.02-.04-.19-.12c-.07-.03-.04-.05-.58-.14-.12-.02-.42.04-.42.04l-.42.22-.41.2s-.13.07-.25.13c-.04.02-.18.07-.33.07-.06,0-.22-.13-.19-.08,0,.01.1.14.23.2.08.04.19.02.26.03Z"/></svg>