<?xml version="1.0" encoding="UTF-8"?>
<svg id="Livello_1" data-name="Livello 1" xmlns="http://www.w3.org/2000/svg" version="1.1" viewBox="0 0 58.9 40.7">
  <defs>
    <style>
      .cls-1 {
        fill: #fff;
        stroke-width: 0px;
      }
    </style>
  </defs>
  <g>
    <path class="cls-1" d="M27.4,35.6s0,0,0,0h1.2c-.1,0-.6,0-.8,0,0,0-.4,0-.5,0,0,0,0,0,0,0l1.2-.2c-.4,0-.9,0-1.3.2,0,0,0,0,0,0l1.2-.5c-.3,0-.6.1-.8.3,0,0-.2,0-.3.1,0,0,0,0,0,0,0,0,0,0,0,0,0,0,0,0-.1,0,0,0,0,0,0,0h0s0,0,0,0c0,0,0,0,0,0h0s0,0,0,0c0,0,0,0,0,0h0s0,0,0,0c0,0,0,0,0,0l.6-.5c-.1,0-.5.3-.6.4,0,0,0,0,0,0,0,0,0,0,0,0,0,0,0,0,0,0,0,0,0,0,0,0,0,0,0,0,0,0,0,0,0,0,0,0h0s0,0,0,0c0,0,0,0,0,0l1.3-1.1c-.5.2-1.1.6-1.3,1.1,0,0-.2-.2-.3-.3,0,0,0,0,0,0,0,0,0-.1,0-.2,0,0,0,.1,0,.2,0,0-.2-.2-.3-.2-.3-.2-.7-.4-.9-.5,0,0-.2,0-.3,0,0,0,0,0,0,0,0,0,0,0,0,0,0-.1,0,0,0-.1,0,0,0,0,0,0,0,0,0,0,0,0,0,0,0,0,0,0,0,0,0,0,0,0,0,0,0,0,0,0,0,0,0,0,0,0,0,0,0,0,0,0,0,0,0,0,0,0,0,0,0,0,0,0,0,0,0,0,0,0,0,0,0,0,0,0,0,0,0,0,0,0,0,0,0,0,0,0,0,0,0,0,0,0,0,0,0,0,0,0,0,0,0,0,0,0,0,0,0,0,0,0h0q0,0,0,0s0,0,0,0c0,0,0,0,0,0,0,0,0,0,0,0,0,0,0,0,0,0h0s0,0,0,0,0,0,0,0c0,0,0,0,0,0h0s0,0,0,0,0,0,0,0c0,0,0,0,0,0,0,0,0,0,0,0,0,0,0,0,0,0s0,0,0,0c0,0,0,0,0,0t0,.1s0,0,0,0c0,0,0,0,0,0,0,0,0,0,0,.1,0,0,0,0,0,0,0,0,0,.1,0,.2,0,0,0,0,0,0,0,0,0,0,0,0-.2,0-.4,0-.6,0,0,0,0,0,0,0-.2-.1-.5-.1-.6-.1,0,0,0,0,0,0,0,0,0,0,0,0,0,0,0,0,0,0,0,0,0,0,0,0h0c-.1,0-.2.1-.1.3,0,0,0,0,0,0,0,0-.1,0-.1,0,0,0,0,0,0,0,0,0,0,0,0,0,0,0,0,0,0,0-.2,0-.7-.3-1-.2-.2,0-.7,0-1.3.5,0,0,0,0,0,0,0,0,0,0,0,0,0,0-.2.1-.2.2,0,0,0,0,0,0h0s0,0,0,0c-.1,0-.3,0-.4.1,0,0,.1,0,.2,0-.1,0-.3,0-.4.1h.2c-.2,0-.4.2-.6.3.2,0,.3,0,.5,0,0,0,0,0,0,0-.2,0-.4.1-.6.3.1,0,.3,0,.4,0,0,0,0,0,0,0-.2.1-.4.3-.6.4.1,0,.3,0,.4-.1-.2.1-.5.4-.6.6,0,0,.2,0,.3-.1-.1.1-.2.3-.2.5,0,0,0,0,0,0,0,0,0,0,0,0,0,0,0,0,0,0,0,0,0,0,0,0,0,0-.1.2-.1.2,0,0,0,0,.1,0,0,0,0,.2,0,.3,0,0,0,0,0,0,0,0,0,0,0,0,0,0,0,0,0,0,0,.1,0,.2,0,.3,0,0,0,0,0,0,0,0,0,.1,0,.2,0,0,0,0,0,0,0,0,0,0,0,.1,0,0,0,0,0,0,0,0-.2,0-.4,0,0,0,0,0,0,0,0,0,0,0,0,0-.1,0-.3,0-.4,0-.8-.1-1.3-.4-1.4-.5,0-.2,0-.4.2-.7.3-.3.8-.7,1.1-1.2s0-1.1,0-1.4c-.2-.3-.5-.5-.4-.3s.2.8.3,1c0,.2,0,.6-.2.9-.2.3-.9.6-1.1.9-.2.3-.4.6-.2.9s.5.6.9.7c0,0,.2,0,.3,0,0,0,0,0,0,0,0,0,.4.2,1,.3.4,0,.6,0,.7,0,0,.1,0,.2,0,.3,0,0,0,0,0,0,0,0,0,.1,0,.1,0,0,0,0,0,0,0,0,0,.1,0,.1,0,0,0,0,0,0,0,0,0,0,0,0,0,0,0,0,0,0,0,0,0,0,0,0,0,0,0,0,0,0,0,0,0,0,0,.1,0,0,0,0,0,0,0,0,0,0,0,0,0,0,0,0,0,.1,0,0,0,0,.1,0,0,0,0,0-.1.1,0,0,.1,0,.2,0,0,0,0,0-.1,0,0,0,.1,0,.2,0,0,0,0,0,0,0,0,0,0,0,0,0,0,0,0,0,0,0,0,0,0,0,.2,0,0,0,0,0,0,0,0,0,0,0,0,0,0,0,0,0,0,0,0,0,0,0,0,0,0,0,0,0,0,0,0,0,0,0,0,.2,0,0,0,0,0,0,0,0,0,0,0,0,0,0,0,0,0,0,0,0,0,0,0,0,0,.1,0,.2.2.2,0,0,.1,0,.2.1.2.2.4.3.6.4.1,0,.5.1.7.1s.4,0,.5-.1c0,0,.2,0,.3,0,0,0,0,0,0,0,0,0,.1,0,0,0,0,0,0,0,0,0,0,0,0,0,0,0,0,0,0,0,0,0,.1,0,.2,0,.2,0,0,0-.1,0-.2,0,0,0-.2-.1-.4-.1s-.3,0-.6,0c-.2,0-.4-.1-.6-.2,0,0,0,0,0,0,0,0,0,0-.2,0,0,0,0,0,0-.1,0,0,0,0,0,0,0,0,0,0,0-.1,0,0,0,0,0,0,0,0,0,0,0,0,0,0,0,0,0,0,0,0,.2.1.2.1,0,0,0,.1,0,.2,0,0,0-.1,0-.2,0,0,0,0,0,0,0,0,0,0,0,0,0,0,0,0,0,0,0,0,0,0,0,0,0,0,0,0,0,0h0s0,0,0,0c0,0,0,0,0,0,0,0,0,0,0,0,0,0,0,0,0,0,0,0,0,0,0,0,0,0,0-.1,0-.2,0,0,0,0,0,0,0,0,0,0,0,0,0,0,0,0,.1.1,0,0,0,0,0,0,0,0,0,0,0,0,0,0,0,0,0-.1,0,0,.1,0,.2,0,0,0,0-.1,0-.2,0,0,0,0,0,0,0,0,0,0,0,0,0,0,0,0,0,0,0,0,0,0,0,0,0,0,0,0,0,0,0,0,0,0,0,0,0,0,0,0,0,0h0s0,0,0,0c0,0,0,0,0,0,0,0,0,0,0,0,0,0,0,0,0,0,0,0,0,0,0,0,0,0,0,0,0,0,0,0,0,0,0,0,0,0,0,0,0,0,0,0,0,0,0,0,0,0,0,0,0,0,0,0,0,0,0,0,0,0,0,0,0,0,0,0,0,0,0,0,0,0,0,0,0-.2,0,0,0,0,0,0,0,0,0,0,0,0,0,0,0,0,0,0,0,0,0,0,0,0,0,0,0,0,0,0,0,0,0,0,0,0,0,0,0,0,0,0,0,0,0,0,0,0,0,0,0,0,0,0,0,0,0,0,0,0,0,0,0,0,0,0,0,0,0-.1-.1-.2,0,0,0,.1.2.2,0,0,.2.2.2.2,0,0,.2.1.3.2,0,0,0,0,.2,0,0,0,.2,0,.3,0,.3,0,.7,0,.8,0,0,0,.1,0,.2,0,0,0,0,0,.2,0,0,0,0,.1,0,0s0,0,0,0c0,0,.1,0,.2,0,0,0,0,0,.1,0,0,0,.1,0,.2,0,0,0,0,0,0,0,0,0,0,.1,0,0,0,0,0,0,0,0,0,0,0,0,0,0,0,0,0,0,0,0,0,0,.1.1,0,0,0,0,0,0,0-.1,0,0,0,0,0,0,0,0,0,0,0,0,0,0,0,0,0,0,0,0,.1,0,0,0,0,0-.1,0-.2,0-.1,0-.3,0-.4,0-.1,0-.8,0-1.2,0,0,0-.3,0-.4,0,0,0,0,0,0,0,0,0,0,0,0,0,0,0,0,0,0,0,0,0,0,0,0,0,0,0,.2,0,.3,0,0,0,0,0,0,0,0,0,0,0,0,0,0,0,0,0,0,0,0,0-.1-.1-.2-.2,0,0,.1,0,.2.1,0,0-.1-.2-.2-.2,0,0,0,0,0,0,0,0,0,0,0,0,0,0,0,0,0,0,0,0,.1,0,.2,0,0,0,0,0,0,0,0,0,0,0,.1,0,0,0,0,0,0,0,0,0,0,0,0,0,0,0,0,0,.1,0,0,0,0,0,0,0,0,0,0,0,0,0,0,0,0,0,0,0,0,0,0,0,0,0,0,0,.2,0,.2,0,0,0,0,0,0,0,0,0,0,0,0,0,0,0,0,0,0,0,0,0,0,0,0,0,0,0,0,0,0-.1,0,0,0,0,0,.1v-.2s0,0,0,0c0,0,0,0,0-.1h0c0,0,0,0,0,0,0,0,0,0,0,0,0,0,0,0,0,0,0,0,0,0,0,0h0s0,0,0,0c0,0,0,0,0,0,0,0,0,0,.1,0,0,0,0,0,0,0,0,0,0,0,0,0,.1,0,.2-.1.3,0,0,0,0,0,0,0h0,0c0,0,0,0,0,0,0,0,0,0,0,0,0,0,0,0,0,0,0,0,0,0,0,0,0,0,0,0,0,0,0,0,0,0,0,0,0,0,0,0,0,0,0,0,0,0,0,0,0,0,0,0,0,0,0,0,0,0,0,0,0,0,0,0,0,0,0,0,0,0,.1,0,0,0,0,0,0,0,0,0,0,0,0,0,0,0,0,0,0,0,0,0,0,0,.1.1,0,0,.1,0,.2,0s0,0,0,0c0,0,0,0,0,0,.1,0,.2.2.4.2s0,0,0,0c0,0,0,0,0,0,.1,0,.2.2.2.1s-.1-.3-.2-.3c0,0,0,0,0,0,0,0,.2.2.3.1,0,0,0,0,0,0,0,0,.1.2.1.1s0-.1,0-.2c0,0,0,0,0,0,0,0,0,0,0,0,.1,0,.2.2.2,0,0,0-.1-.1-.2-.2,0,0,0,0,0,0,0,0,.3.1.2,0,0,0-.2-.1-.3-.1,0,0-.5-.2-.6-.2h0s0,0,0,0c0,0,0,0,0,0,0,0,0,0,0,0,0,0,.2,0,.3,0,0,0,0,0-.1,0,0,0,0,0,0,0,0,0,0,0,0,0,0,0,0,0,0,0,0,0,0,0,0,0,0,0,0,0,0,0,0,0,0,0,0,0,0,0,0,0,0,0,0,0,0,0,0,0,0,0,0,0,0,0,0,0,0,0,0,0,0,0,0,0,0,0,0,0,0,0,0,0,.1,0,.2,0,.3,0,0,0-.2,0-.2-.1,0,0,0,0,0,0h0c.1,0,.3,0,.3,0,0,0,0,.2,0,.3l.5-.8s0,0,0,0c0,0,0,0,0,0h0s0,0,0,0h0s0,0,0,0c0,0,0,0,0,0,0,0,0,0,.1,0,0,0,0,0,0,0,0,.2-.1.3-.2.5l.2-.5s0,0,0,0c0,0,0,0,0,0,0,0,.1,0,.2,0v.2c0,0,0,0,0,0,0,0,0,.2,0,.2h0c0,0,0,0,0,0,0,0,0,0,0,0v-.2c0-.1.1-.2.2-.4,0,0,.1,0,.2,0v.8c0,0,0-.1,0-.2,0-.2,0-.4,0-.6s0,0,0,0c0,0,.1,0,.1,0v.8c.1-.2.1-.5,0-.8.1,0,.2,0,.2-.1l.3.6c0-.2-.1-.4-.3-.6,0,0,0,0,0-.1,0,0,0,0,0,0,0,0,0,0,0,0,0,0,0,0,0,0,0,0,0,0,0-.1,0-.1,0-.2,0-.2h0c0,0,0-.1,0-.2l1,.2c-.3-.1-.7-.2-1-.2ZM22.6,39.2s0,0,0,0c0,0,0,0,0,0ZM26,36.8s0,0,0,0h0s0,0,0,0c0,0,0,0,0,0,0,0,0,0,0,0ZM25.6,36.8s0,0,0,0c0,0,0,0,0,0,0,0,0,0,0,0ZM20.9,39.6s0,0,0,0c0,0,0,0,0,0,0,0,0,0,0,0,0,0,0,0,0,0,0,0,0,0,0,0ZM20.8,39.6s0,0,0,0c0,0,0,0,0,0,0,0,0,0,0,0,0,0,0,0,0,0,0,0,0,0,0,.1,0,0,0,0,0,0ZM21.4,39.2s0,0,0,0c0,0,0,0,0,0,0,0,0,0,0,0,0,0,0,0,0,0ZM21.5,39.2s0,0,0,0c0,0,0,0,0,0,0,0,0,0,0,0,0,0,0,0,0,0ZM21.7,39.1s0,0,0,0c0,0,0,0,0,0,0,0,0,0,0,0ZM25.5,36.9s0,0,0,0c0,0,0,0,0,0h0s0,0,0,0c0,0,0,0,0,0,0,0,0,0,0,.1,0,0,0,0,0,0,0,0,0,0,0,0,0,0,0,0,0,0ZM26,36.7s0,0,0,0c0,0,0,0,0,0,0,0,0,0,0,0ZM27.2,35.3s0,0,0,0h0s0,0,0,0c0,0,0,0,0,0ZM27.1,35s0,0,.1.1c0,0,0,0,0,0,0,0,0,0,0,0,0,0,0,0,0,0,0,0,0,0,0,0ZM19.4,38.6s0,0,0,0c0,0,0,0,0,0,0,0,0,0,0,0ZM20.9,39.7s0,0,0,0c0,0,0,0,0,0,0,0,0,0,0,0,0,0,0,0,0,0ZM20.9,39.7s0,0,0,0c0,0,0,0,0,0,0,0,0,0,0,0ZM21,39.7s0,0,0,0h0c0,0,0,0,0,0ZM21.3,39.3s0,0,0,0c0,0,0,0,0,0,0,0,0,0,0,0ZM23,38.7s0,0,0,0c0,0,0,0,0,0,0,0,0,0,0,0ZM23.3,38.6s0,0,0,0c0,0,0,0,0,0ZM24.4,38.1s0,0,0,0h0s0,0,0,0c0,0,0,0,0,0,0,0,0,0,0,0ZM25.4,37.1s0,0,0,0c0,0,0,0,0,0,0,0,0,0,0,0,0,0,0,0,0,0h0c0,0,.1,0,.1,0,0,0,0,0-.1,0h.1c0-.1,0-.1,0-.1,0,0,0,0,0,0h0s0,0,0,0c0,0,0,0,0,0,0,0,0,0,.1,0,0,0,0,0,0,0,0,0,.1,0,.2,0,0,.1-.2.3-.3.5,0,0-.2,0-.3-.1ZM26.3,36.6s0,0,0,0h0s0,0,0,0Z"/>
    <path class="cls-1" d="M25,33.5s0,0,0,0c0,0,0,0,0,0Z"/>
    <path class="cls-1" d="M24.9,33.4s0,0,0,0c0,0,0,0,0,0Z"/>
    <path class="cls-1" d="M25.2,37.6c0,0-.1,0-.2,0,0,0,.1,0,.2,0Z"/>
    <path class="cls-1" d="M25.1,37.6h-.1s0,0,0,0c0,0,0,0,.1,0Z"/>
    <path class="cls-1" d="M25.9,36.7s0,0,0,0c0,0,0,0,0,0Z"/>
    <path class="cls-1" d="M22.6,39.1s0,0,0,0c0,0,0,0,0,0,0,0,0,0-.1,0Z"/>
    <path class="cls-1" d="M22.7,39.2s.1,0,.2,0c0,0-.1,0-.2,0Z"/>
    <path class="cls-1" d="M26.7,37.4h0s0,0,0,0c0,0,0,0,0,0Z"/>
    <path class="cls-1" d="M26.7,37.4h0s0,0,0,0Z"/>
    <path class="cls-1" d="M23.3,38.8s0,0,0,0c0,0,0,0,0,0Z"/>
    <path class="cls-1" d="M21.3,39.8s0,0-.1-.1c0,0,0,.1.1.1Z"/>
    <path class="cls-1" d="M21.3,39.6s0,0,0,0c0,0,0,0,0,0Z"/>
    <path class="cls-1" d="M21,39.6s0,0,0,.1c0,0,0,0,0-.1Z"/>
    <path class="cls-1" d="M21.1,39.7s0,0,0,0c0,0,0,0,0,0Z"/>
  </g>
  <path class="cls-1" d="M31.4,18.2s-.6-1-.8-1.1-.5-1-.9-1.5c-.4-.3-1.7-.8-1.7-.8-.3-.1-.8-.2-1.1-.4-.1-.8-.2-1.9-.7-3.8-.2-1-1.2-1.9-1.7-1.9-.3,0-.5.2-.6.4-.3-.4-.7-.8-1-1-.8-.6-1.3-.5-1.3,0,0,.1,0,.3,0,.4-.7,4.5,2.8,7.6,2.8,7.6,0,0,.2-.5-.1.4-.4.9-.2,1.3-.2,1.3-.6-.2-1.3-.3-1.9-.4,0,0,0,0,0,0,0,0,0,0,0,0-1.4-.2-2.8-.1-3.7-.4,0,0-2.9-.3-5.8,1.6,0,0,0,0,0,0,0,0-1.1.6-2.2,1.8-.3.3-1.2,1.2-1.4,1.6s-.4,1.3-.4,1.3h0c-.2.9-.1,2,0,2.8h0s0,0,0,0c0,.4.1.7.2.8,0,0,0,.2,0,.2,0,.4.1.8,0,.9,0,0-1.4,0-1.7.1s-.9.6-.9.6c0,0-.3,1.2-.4,1.4,0,.2.6-.1.9,0,.3,0-.5.3-.4.4,0,0,1.3-.2,1.7-.3.4-.1-.1.4-.1.4s1.3-.2,1.5-.3c0,0,0,0,0,0,.3,0,.6-.1.8-.2.5,0,.2,0,.9,0,.7,0,.5.1.7,0,0,0,2.6-.2,3.1,0,.5.2.3.2,1.1.2,1.5,0,2.3,0,2.4,0,1.3,0,.4-1.1,0-1.3-.8-.4-1.8-.2-2.2-.2s-.6,0-.6,0c0,0,1.2-.5,1.5-.6.3-.1.6-.4,1-.5,0,0,0,0,.1,0,0,0,.1,0,.2,0,.5,0,1.1,0,1.3.4.2.4,1,2.2,1.4,2.3.5.1,1.7.2,2.2.1s.9.2,1,0c.1-.1.1-.5,0-.8s-.9-.6-1.3-.6c-.1,0-.3,0-.4-.1.4.1.8.1,1,.3.4.2.6.5.6.5,0,0,.6.3,1.3.2s-.2-.6-.3-.7c0-.1-.6-.5-.8-.5-.2,0-1.2,0-1.5-.1-.3-.1-.5-.5-.6-1.2,0-.7.6-1.4.6-1.4,0,0,.1,0,.2,0,.7-.2,1.5-.6,1.9-.9.4-.3,1.6-1.3,1.9-1.7s.4-1.2.6-1.5c.2-.3,1.2-1.1,1.2-1.1,1.6-.1,1.8-.6,2.2-1.2.6-.5.3-1.1.3-1.1ZM23.1,25.7"/>
  <g>
    <path class="cls-1" d="M33,29.7s0,0,0,0c0,0,0,0,0,0Z"/>
    <path class="cls-1" d="M38.1,19.9c0,0,0-.1,0-.1,0,0,0,0,0,.1Z"/>
    <path class="cls-1" d="M40.3,17.8s0,0,0,0c0,0,0,0,0,0Z"/>
    <path class="cls-1" d="M52.5,13.7c0,0-.7-1-.8-1.1,0,0-.4-.8-.9-2.2-.5-1.4-1.2-1.3-1.6-1.4s-.5,0-.6-.7c-.1-.6.2-1.8.3-2.1,0-.3.5-2.8.2-4.1-.6-2.8-1.3-2.1-1.7-1.9-.1,0-.2.2-.2.4-.3.8-.9,2.5-.9,2.5v.4c-.1-.4-.3-.8-.5-1.1-.4-.7-1.2-1.7-1.7-2.1h0s0,0,0,0c-.1-.1-.2-.2-.3-.2,0,0,0,0,0,0-.2-.1-.4-.3-.4-.1,0,.2.1,1.4,0,2,0,.6,0,3.4,0,3.8.2.5.9,1.4,1.1,1.6.1,0,.4.4.6.8,0,0,0,1.3-.1,1.5,0,.2-.1.7-.3,1.3-.2.5-.3,1.7-.3,2.2,0,0,0,0,0,.1,0,.3,0,.7,0,.7,0,0,0,0,0,0,0,.2,0,.4,0,.4v.7c-.2.2-.6.5-.6.5,0,0-1,.9-1.1,1.1-.1.2-1.2.6-1.5.6-.3,0-.4,0-.4,0,0,0,0,.3-.4.4-.2,0-.3,0-.3,0,0,0,.1.5,0,.6s-1.1,0-1.1,0c0,0,.5.5.2.5-.3,0-.8,0-.8,0,0,0,.4.5.3.6-.2.1-.4.2-.4.2v.3h-.1c0,0-.2,0-.2-.2,0,.2.2.5,0,.7-.2.2-.3-.4-.3-.4,0,0,0,.8-.1.8-.1,0,0-.3,0-.3,0,0,0,.1,0,.3,0,.2-.2.5-.4.7-.4.5-1,1.5-1.5,2.4-.5.9-1.4,2.4-1.6,2.7-.2.3-.5.8-.5.8l.3-.2s0,.4-.2.6c-.1.2-.4.3-.3.3s.2.3.1.5c0,.2-.3.4-.3.4,0,0,.3,0,.1.4-.1.2-.2.2-.2.3,0,0,.2,0,.2,0,0,.2-.4.5-.4.5h.3c-.4,3.3.6,5.1.6,5.1v.2s-1.8-2.1-1.8-2.1l-.4-.5s0,.7-.2.7c-.2,0-.3-.2-.3-.2,0,0,.4.8.2.9h-.1c0,.1.3.5.2.6s-.3.3-.3.3l.4.3-.2.3s.3-.1.3.1c0,.3,0,.5,0,.5,0,0,.3-.1.4.2,0,.3,0,.6,0,.6,0,0,.3,0,.4,0s-.2.8-.2.8c0,0,.6-.4.6-.2,0,.2,0,.5,0,.5,0,0,.6.3.5.3s-.2.2-.2.2c0,0,.6-.2.5,0,0,.2,0,.4,0,.4s1.1,0,1.4.1c.3,0,1.2-.5,1.2-.5l.2-.5v-.2c.5.2,1,.5,1.1.5.2,0,1,0,1,0,0,0,.3.4,0,.6-.2.2,0,.6,0,.6,0,0,7.2,0,7.8,0,0,0,.2,0,.2-.1,0,0,.1,0,.2,0h.9s2.1,0,2.9,0c.2,0,.4,0,.3-.1,0-.3.3-.2.3-.5,0-.3-.6-1.1-1-1.3-.4-.2-1.1,0-1.1,0v-1.5c-.1,0-.3-2.2-.4-3,0-.7-.3-3.4-.2-4.1,0-.6.3-1.9.3-2,.1-.3.2-.5.2-.5h-.1c.2-.2.4-.4.4-.3,0,.2.1-.9.2-.6s.1.4.1.4c0,0,.1-1.2.2-1,.1.2.1-.6.3-.3.2.2.3,0,.3,0,0,0-.1-1,0-.9.1.1.1-.8.1-.8l.2-.5-.2-.6v-.7s-.6-.4-.6-.4v-.7c-.1,0-.2,0-.2,0,0,0,0-.1,0-.2,0-.2.1-.3.1-.3,0,0-.3-.7-.4-1,0-.3-.1-.8-.2-1.1s.2-.5.2-.6.1-.5.2-.8c0-.2.1-.3.2-.5h.6c0,.1.4.1.8.1.4,0,.4-.3.4-.3,0,0,.2-.1.3-.2,0,0,0,0,0,0,0,0,0,0,0,0,.1-.1.3-.2.3-.3,0-.2.4-.6,0-1.3ZM45.8,38.4c-.1,0-.2,0-.3,0,0,0-.2-.1-.3-.1,0,0-.3,0-.5,0h0s-.7-.3-.7-.3c-.1,0-.3-.3-.2-.4.2-.3.4-.7.6-.6.1.2.1-.2.1-.4,0-.2.3,0,.3,0v-.6c-.1,0,.3-.8.3-.8l-.4.2v-.4c0,0,.2-.1.2-.1l.2.3.4-.6c.3,0,.6.2.6.6.1.7.3,1.6.2,2,0,.4,0,1.3,0,1.6,0,0,0,0,0,0-.2-.2-.4-.4-.5-.4Z"/>
  </g>
</svg>