<?xml version="1.0" encoding="UTF-8"?>
<svg id="Symptoms" xmlns="http://www.w3.org/2000/svg" viewBox="0 0 32 32">
  <defs>
    <style>
      .cls-1 {
        fill: #fff;
      }

      .cls-2 {
        fill: #d99898;
      }

      .cls-3 {
        fill: #c46769;
      }

      .cls-4 {
        fill: #c98d8d;
      }
    </style>
  </defs>
  <g id="ic_orchits">
    <path class="cls-1" d="m22.91,27.31c-2.5.45-5.02-.51-7.05-2.43-.59-.58-1.97-.66-2.74-.02-1.32,1.16-2.9,1.77-4.53,1.59-3.77-.42-6.37-4.87-5.81-9.94.56-5.06,4.08-8.83,7.85-8.42,1.33.15,2.17-.33,2.53-.94,1.24-2.13,3.1-3.61,5.36-4.02,4.96-.9,9.97,3.78,11.19,10.46s-1.82,12.82-6.78,13.72Z"/>
    <ellipse class="cls-2" cx="9.74" cy="17.49" rx="7.51" ry="5.55" transform="translate(-8.71 25.24) rotate(-83.67)"/>
    <path class="cls-4" d="m13.48,11.6s-2.89,3.54-1.44,8.07c.78,2.46,1.57,2.85,1.57,2.85.41-.58.82-1.28,1.14-2.18,1.85-5.24-1.26-8.74-1.26-8.74Z"/>
    <ellipse class="cls-3" cx="20.7" cy="15.22" rx="7.39" ry="9.99" transform="translate(-2.38 3.94) rotate(-10.28)"/>
  </g>
</svg>