<svg xmlns="http://www.w3.org/2000/svg" width="131.563" height="264.549" viewBox="0 0 131.563 264.549">
  <g id="qm" transform="translate(-775.303 -96.484)">
    <path id="Tracciato_24" data-name="Tracciato 24" d="M826.378,1665.539c.65-.833,1.363-6.091-2.389-7.958s-10.274-4.785-11.189-6.05-4.15-6.73,13.578-10.5,41.345-8.27,50.943-5.134,17.665,8.478,16.238,18.8,1.433,8.67-33.452,40.527-52.453,52.784-53.868,68.811,3.629,26.939,10.213,31.847,9.737,1.569,9.737,1.569,3.3-2.658,2.184-11-2.484-15.912,11.227-30.158,48.9-54.04,59.494-84.477,8.433-44.029,4.733-54.61-20.285-27.776-56.589-17.659-40.537,15.094-40.537,15.094a49.09,49.09,0,0,0-17.114,26.382c-4.459,17.486,3.848,19.089,3.848,19.089s11.837-.273,19.364,1.332A88.9,88.9,0,0,1,826.378,1665.539Z" transform="translate(0 -1500)" fill="#bfd7d3"/>
    <path id="Tracciato_25" data-name="Tracciato 25" d="M776.189,1834.53c3.1-11.261,7.712-28.021,18.811-33.864,5.656-3.11,12.318,8.128,12.318,8.128s7.734,12.983,4.752,21.843-13.568,37.257-23.633,28.863S773.084,1845.791,776.189,1834.53Z" transform="translate(0 -1500)" fill="#bfd7d3"/>
  </g>
</svg>
