<?xml version="1.0" encoding="UTF-8"?>
<svg id="Symptoms" xmlns="http://www.w3.org/2000/svg" viewBox="0 0 32 32">
  <defs>
    <style>
      .cls-1 {
        fill: #fff;
      }

      .cls-2 {
        fill: #d99898;
      }

      .cls-3 {
        fill: #c98d8d;
      }
    </style>
  </defs>
  <g id="ic_swelling_testicle">
    <path class="cls-1" d="m21.96,25.18c-1.95.35-3.91-.4-5.5-1.9-.46-.46-1.53-.52-2.14-.01-1.03.9-2.26,1.38-3.54,1.24-2.94-.33-4.97-3.8-4.53-7.75.44-3.95,3.18-6.89,6.12-6.57,1.04.12,1.69-.26,1.97-.73.97-1.66,2.42-2.82,4.18-3.14,3.87-.7,7.78,2.95,8.73,8.16s-1.42,10-5.29,10.7Z"/>
    <ellipse class="cls-2" cx="11.69" cy="17.51" rx="5.86" ry="4.33" transform="translate(-7.01 27.2) rotate(-83.67)"/>
    <path class="cls-3" d="m14.6,12.93s-2.25,2.76-1.13,6.29c.61,1.92,1.22,2.22,1.22,2.22.32-.46.64-1,.89-1.7,1.44-4.09-.99-6.82-.99-6.82Z"/>
    <ellipse class="cls-2" cx="20.24" cy="15.75" rx="5.76" ry="7.79" transform="translate(-2.48 3.86) rotate(-10.28)"/>
  </g>
</svg>