<?xml version="1.0" encoding="UTF-8"?><svg id="how_to_prevent" xmlns="http://www.w3.org/2000/svg" viewBox="0 0 32 32"><defs><style>.cls-1{fill:#77a8c7;}.cls-2{fill:#82b7d9;}</style></defs><g id="ic_slaugh"><path class="cls-1" d="M30.65,17.09c1.9,4.92-2.24,9.48-9.51,11.61-7.29,2.13-15.06,.6-16.66-3.83-1.8-4.96,2.7-10.12,10.02-12.09,7.13-1.92,14.36-.35,16.16,4.31Z"/><path class="cls-2" d="M11.52,17.66c-2.7,3.14-1.95,7.27,2.1,7.42s7.72,.52,9.45-1.35c1.72-1.87,3.62-4.49,2.92-6.16-.44-1.05-3.38-2.74-7.38-2.49-2.33,.14-6.1,1.43-7.09,2.58Z"/><path class="cls-1" d="M16.95,19.47c.61,3.32,5.55,1.88,5.06-.81s-5.67-2.51-5.06,.81Z"/></g></svg>