<?xml version="1.0" encoding="UTF-8"?><svg id="Various" xmlns="http://www.w3.org/2000/svg" viewBox="0 0 82.03 82.03"><defs><style>.cls-1{fill:#fff;}.cls-2{fill:#a1a1a1;}.cls-3{fill:#a63838;}.cls-4{fill:#c9c9c9;}.cls-5{fill:#c54343;}.cls-6{fill:#e0e0e0;}.cls-7{fill:#422715;}.cls-8{fill:#474747;}</style></defs><g id="ic_farm"><g><rect class="cls-4" x="57.93" y="25.45" width="16.92" height="56.39"/><path class="cls-6" d="M58.18,25.08l-.22,.32c-.86,1.23,17.73,1.21,16.86-.01l-.25-.36c-3.96-5.6-12.46-5.58-16.39,.05Z"/><path class="cls-2" d="M57.93,32.72s1.42,.62,8.46,.62,8.46-.62,8.46-.62c0,0,.15-.01,.15,.23s-.15,.27-.15,.27c0,0-2.56,.62-8.46,.62s-8.46-.62-8.46-.62c0,0-.15-.04-.15-.26s.15-.24,.15-.24Z"/><path class="cls-2" d="M57.93,40.89s1.42,.62,8.46,.62,8.46-.62,8.46-.62c0,0,.15-.01,.15,.23s-.15,.27-.15,.27c0,0-2.56,.62-8.46,.62s-8.46-.62-8.46-.62c0,0-.15-.04-.15-.26s.15-.24,.15-.24Z"/><path class="cls-2" d="M57.94,49.02s1.42,.62,8.46,.62,8.46-.62,8.46-.62c0,0,.15-.01,.15,.23s-.15,.27-.15,.27c0,0-2.56,.62-8.46,.62s-8.46-.62-8.46-.62c0,0-.15-.04-.15-.26s.15-.24,.15-.24Z"/><path class="cls-2" d="M57.95,57.17s1.42,.62,8.46,.62,8.46-.62,8.46-.62c0,0,.15-.01,.15,.23s-.15,.27-.15,.27c0,0-2.56,.62-8.46,.62s-8.46-.62-8.46-.62c0,0-.15-.04-.15-.26s.15-.24,.15-.24Z"/><path class="cls-2" d="M57.95,65.31s1.42,.62,8.46,.62,8.46-.62,8.46-.62c0,0,.15-.01,.15,.23s-.15,.27-.15,.27c0,0-2.56,.62-8.46,.62s-8.46-.62-8.46-.62c0,0-.15-.04-.15-.26s.15-.24,.15-.24Z"/><path class="cls-2" d="M57.95,73.45s1.42,.62,8.46,.62,8.46-.62,8.46-.62c0,0,.15-.01,.15,.23s-.15,.27-.15,.27c0,0-2.56,.62-8.46,.62s-8.46-.62-8.46-.62c0,0-.15-.04-.15-.26s.15-.24,.15-.24Z"/></g><polygon class="cls-7" points="5.74 61.66 8.74 61.66 8.74 58.59 17.93 39.59 36.42 32.44 55.12 39.59 64.11 58.59 64.11 61.66 67.31 61.66 56.36 38.38 36.42 30.72 16.59 38.38 5.74 61.66"/><g><polygon class="cls-5" points="8.59 81.56 8.59 58.53 17.85 39.39 36.53 32.17 55.41 39.39 64.46 58.53 64.46 81.56 8.59 81.56"/><path class="cls-1" d="M36.53,32.44l18.7,7.15,8.99,19v22.72H8.84v-22.72l9.19-19,18.49-7.15m0-.54l-.18,.07-18.49,7.15-.18,.07-.09,.18-9.19,19-.05,.1v23.33h56.37v-23.33l-.05-.1-8.99-19-.09-.18-.19-.07-18.7-7.15-.18-.07h0Z"/></g><g><polygon class="cls-3" points="64.21 79.8 17.93 79.8 8.84 79.8 8.84 80.1 17.93 80.1 64.21 80.1 64.21 79.8"/><polygon class="cls-3" points="64.21 78.49 17.93 78.49 8.84 78.49 8.84 78.79 17.93 78.79 64.21 78.79 64.21 78.49"/><polygon class="cls-3" points="64.21 77.18 17.93 77.18 8.84 77.18 8.84 77.48 17.93 77.48 64.21 77.48 64.21 77.18"/><polygon class="cls-3" points="64.21 75.87 17.93 75.87 8.84 75.87 8.84 76.17 17.93 76.17 64.21 76.17 64.21 75.87"/><polygon class="cls-3" points="64.21 74.56 17.93 74.56 8.84 74.56 8.84 74.86 17.93 74.86 64.21 74.86 64.21 74.56"/><polygon class="cls-3" points="64.21 73.25 17.93 73.25 8.84 73.25 8.84 73.55 17.93 73.55 64.21 73.55 64.21 73.25"/><polygon class="cls-3" points="64.21 71.94 17.93 71.94 8.84 71.94 8.84 72.24 17.93 72.24 64.21 72.24 64.21 71.94"/><polygon class="cls-3" points="64.21 70.63 17.93 70.63 8.84 70.63 8.84 70.93 17.93 70.93 64.21 70.93 64.21 70.63"/><polygon class="cls-3" points="64.21 69.32 17.93 69.32 8.84 69.32 8.84 69.62 17.93 69.62 64.21 69.62 64.21 69.32"/><polygon class="cls-3" points="64.21 68.01 17.93 68.01 8.84 68.01 8.84 68.31 17.93 68.31 64.21 68.31 64.21 68.01"/><polygon class="cls-3" points="64.21 66.7 17.93 66.7 8.84 66.7 8.84 67 17.93 67 64.21 67 64.21 66.7"/><polygon class="cls-3" points="64.21 65.39 17.93 65.39 8.84 65.39 8.84 65.69 17.93 65.69 64.21 65.69 64.21 65.39"/><polygon class="cls-3" points="64.21 64.08 17.93 64.08 8.84 64.08 8.84 64.38 17.93 64.38 64.21 64.38 64.21 64.08"/><polygon class="cls-3" points="64.21 62.77 17.93 62.77 8.84 62.77 8.84 63.07 17.93 63.07 64.21 63.07 64.21 62.77"/><polygon class="cls-3" points="64.21 61.46 17.93 61.46 8.84 61.46 8.84 61.76 17.93 61.76 64.21 61.76 64.21 61.46"/><polygon class="cls-3" points="64.21 60.15 17.93 60.15 8.84 60.15 8.84 60.45 17.93 60.45 64.21 60.45 64.21 60.15"/><polygon class="cls-3" points="64.21 58.84 17.93 58.84 8.84 58.84 8.84 59.14 17.93 59.14 64.21 59.14 64.21 58.84"/><polygon class="cls-3" points="63.8 57.73 17.93 57.73 9.36 57.73 9.21 58.03 17.93 58.03 63.95 58.03 63.8 57.73"/><polygon class="cls-3" points="63.18 56.42 17.93 56.42 9.89 56.42 9.75 56.72 17.93 56.72 63.33 56.72 63.18 56.42"/><polygon class="cls-3" points="62.56 55.11 17.93 55.11 10.53 55.11 10.38 55.41 17.93 55.41 62.71 55.41 62.56 55.11"/><polygon class="cls-3" points="61.94 53.8 17.93 53.8 11.16 53.8 11.01 54.1 17.93 54.1 62.09 54.1 61.94 53.8"/><polygon class="cls-3" points="61.32 52.49 17.93 52.49 11.79 52.49 11.65 52.79 17.93 52.79 61.47 52.79 61.32 52.49"/><polygon class="cls-3" points="60.7 51.18 17.93 51.18 12.43 51.18 12.28 51.48 17.93 51.48 60.85 51.48 60.7 51.18"/><polygon class="cls-3" points="60.08 49.87 17.93 49.87 13.06 49.87 12.92 50.17 17.93 50.17 60.23 50.17 60.08 49.87"/><polygon class="cls-3" points="59.46 48.56 17.93 48.56 13.7 48.56 13.55 48.86 17.93 48.86 59.61 48.86 59.46 48.56"/><polygon class="cls-3" points="58.85 47.25 17.93 47.25 14.33 47.25 14.18 47.55 17.93 47.55 58.99 47.55 58.85 47.25"/><polygon class="cls-3" points="58.23 45.94 17.93 45.94 14.96 45.94 14.82 46.24 17.93 46.24 58.37 46.24 58.23 45.94"/><polygon class="cls-3" points="57.61 44.63 17.93 44.63 15.6 44.63 15.45 44.93 17.93 44.93 57.75 44.93 57.61 44.63"/><polygon class="cls-3" points="56.99 43.32 17.93 43.32 16.23 43.32 16.09 43.62 17.93 43.62 57.13 43.62 56.99 43.32"/><polygon class="cls-3" points="56.37 42.01 17.93 42.01 16.87 42.01 16.72 42.31 17.93 42.31 56.51 42.31 56.37 42.01"/><polyline class="cls-3" points="19.28 40.7 17.93 40.7 17.5 40.7 17.35 41 17.93 41 19.28 41 55.89 41 55.75 40.7 19.28 40.7"/><polyline class="cls-3" points="53.78 39.39 19.28 39.39 19.28 39.69 53.78 39.69"/><polygon class="cls-3" points="51.27 38.08 21.94 38.08 21.16 38.38 52.06 38.38 51.27 38.08"/><polygon class="cls-3" points="47.85 36.77 25.33 36.77 24.55 37.07 48.64 37.07 47.85 36.77"/><polygon class="cls-3" points="44.69 35.56 28.45 35.56 27.67 35.86 45.48 35.86 44.69 35.56"/><polygon class="cls-3" points="41.27 34.25 31.84 34.25 31.06 34.55 42.06 34.55 41.27 34.25"/><polygon class="cls-3" points="37.84 32.94 35.22 32.94 34.44 33.24 38.63 33.24 37.84 32.94"/></g><polygon class="cls-1" points="5.74 61.66 16.59 38.38 36.42 30.72 56.36 38.38 67.31 61.66 69.06 61.66 57.6 36.87 36.42 29.21 15.56 36.87 4.09 61.66 5.74 61.66"/><rect class="cls-1" x="35.91" y="59.94" width="1.34" height="21.36"/><polygon class="cls-1" points="35.91 81.31 34.91 81.31 19.28 60.78 19.28 59.94 20.32 59.94 35.91 80.41 35.91 81.31"/><polygon class="cls-1" points="53.88 81.31 52.89 81.31 37.25 60.78 37.25 59.94 38.29 59.94 53.88 80.41 53.88 81.31"/><rect class="cls-1" x="35.87" y="42.04" width="1.31" height="34.5" transform="translate(95.82 22.76) rotate(90)"/><polygon class="cls-1" points="19.28 81.31 17.93 81.31 17.93 39.59 19.28 39.09 19.28 81.31"/><polygon class="cls-1" points="55.12 81.41 53.77 81.41 53.77 38.99 55.12 39.49 55.12 81.41"/><g><path class="cls-8" d="M36.58,41.85c-1.76,0-3.19-1.4-3.19-3.12s1.43-3.12,3.19-3.12,3.19,1.4,3.19,3.12-1.43,3.12-3.19,3.12Z"/><path class="cls-1" d="M36.58,35.86c1.63,0,2.94,1.29,2.94,2.87s-1.32,2.87-2.94,2.87-2.94-1.29-2.94-2.87,1.32-2.87,2.94-2.87m0-.5c-1.9,0-3.44,1.51-3.44,3.37s1.54,3.37,3.44,3.37,3.44-1.51,3.44-3.37-1.54-3.37-3.44-3.37h0Z"/></g><g><g><rect class="cls-8" x="24.5" y="48.51" width="9.11" height="6.24"/><path class="cls-1" d="M33.36,48.76v5.74h-8.61v-5.74h8.61m.5-.5h-9.61v6.74h9.61v-6.74h0Z"/></g><rect class="cls-1" x="28.69" y="48.76" width=".62" height="5.74"/><rect class="cls-1" x="24.75" y="51.42" width="8.61" height=".5"/></g><g><g><rect class="cls-8" x="39.56" y="48.51" width="9.11" height="6.24"/><path class="cls-1" d="M48.42,48.76v5.74h-8.61v-5.74h8.61m.5-.5h-9.61v6.74h9.61v-6.74h0Z"/></g><rect class="cls-1" x="43.75" y="48.76" width=".62" height="5.74"/><rect class="cls-1" x="39.81" y="51.42" width="8.61" height=".5"/></g><path class="cls-2" d="M74.85,27.63h2.09c.36,0,.65,.28,.65,.63v53.58h-1.37V29.21h-1.37v-1.58Z"/></g></svg>