<?xml version="1.0" encoding="UTF-8"?><svg id="Various" xmlns="http://www.w3.org/2000/svg" viewBox="0 0 82.03 82.03"><defs><style>.cls-1{fill:#fcfcfc;}.cls-2{fill:#fff;}.cls-3{fill:#f0a871;}.cls-4{fill:#7cbcd9;}.cls-5{fill:#6b6b6b;}.cls-6{fill:#666;}.cls-7{fill:#65a6a1;}.cls-8{fill:#dedede;}.cls-9{fill:#d6d6d6;}.cls-10{fill:#d6585b;}.cls-11{fill:#ad494c;}.cls-12{fill:#5c5c5c;}</style></defs><g id="ic_foodchain"><polygon class="cls-2" points="6.73 81.84 75.21 81.84 75.21 51.1 6.73 51.1 6.73 76.79 6.73 81.84"/><polygon class="cls-1" points="58.44 49.55 49.88 49.55 51.04 20.76 57.27 20.76 58.44 49.55"/><rect class="cls-12" x="12.56" y="62.02" width="33.58" height="19.82"/><rect class="cls-7" x="13.64" y="63.1" width="15.69" height="18.74"/><rect class="cls-7" x="29.5" y="63.1" width="15.69" height="18.74"/><polygon class="cls-2" points="16.74 49.61 7.03 49.61 7.03 41.93 16.74 49.61"/><polygon class="cls-2" points="26.45 49.61 16.74 49.61 16.74 41.93 26.45 49.61"/><polygon class="cls-2" points="36.16 49.61 26.45 49.61 26.45 41.93 36.16 49.61"/><polygon class="cls-2" points="45.87 49.61 36.16 49.61 36.16 41.93 45.87 49.61"/><rect class="cls-5" x="5.14" y="49.55" width="72.02" height="1.56" rx=".78" ry=".78"/><path class="cls-9" d="M53.15,38.29c-.4-14.02-.81-17.53-2.16-17.53l-1.11,28.79,3.54-.07s0-7.42-.27-11.19Z"/><polygon class="cls-10" points="50.86 24.23 57.41 24.23 57.46 25.75 50.8 25.73 50.86 24.23"/><polygon class="cls-10" points="50.77 26.46 50.71 27.93 57.56 27.93 57.5 26.46 50.77 26.46"/><path class="cls-11" d="M50.86,24.23h1.56s.14,.74,.16,1.47l-1.78,.03,.06-1.5Z"/><path class="cls-11" d="M50.77,26.46h1.86s.09,.68,.1,1.47c0-.02-2.02,0-2.02,0l.06-1.47Z"/><polygon class="cls-1" points="71.38 49.55 62.82 49.55 63.99 20.76 70.21 20.76 71.38 49.55"/><path class="cls-9" d="M66.09,38.29c-.4-14.02-.81-17.53-2.16-17.53l-1.11,28.79,3.54-.07s0-7.42-.27-11.19Z"/><polygon class="cls-10" points="63.8 24.23 70.35 24.23 70.41 25.75 63.74 25.73 63.8 24.23"/><polygon class="cls-10" points="63.71 26.46 63.66 27.93 70.5 27.93 70.44 26.46 63.71 26.46"/><path class="cls-11" d="M63.8,24.23h1.56s.14,.74,.16,1.47l-1.78,.03,.06-1.5Z"/><path class="cls-11" d="M63.71,26.46h1.86s.09,.68,.1,1.47c0-.02-2.02,0-2.02,0l.06-1.47Z"/><polygon class="cls-9" points="44.77 49.21 36.43 42.6 36.43 44.8 43.38 48.63 44.77 49.21"/><polygon class="cls-9" points="35.07 49.22 26.72 42.61 26.72 44.8 33.67 48.64 35.07 49.22"/><polygon class="cls-9" points="25.36 49.22 17.01 42.61 17.01 44.8 23.97 48.64 25.36 49.22"/><polygon class="cls-9" points="15.65 49.22 7.3 42.61 7.3 44.8 14.26 48.64 15.65 49.22"/><path class="cls-9" d="M7.69,76.26c0-3.27,0-22.72,1.06-23.4s13.12-.68,13.66-1.35c0,0-15.38,0-15.38,0v30.07s.66-2.05,.66-5.31Z"/><g><rect class="cls-4" x="52.45" y="55.66" width="17.3" height="21.75"/><path class="cls-6" d="M69.5,55.91v21.25h-16.8v-21.25h16.8m.5-.5h-17.8v22.25h17.8v-22.25h0Z"/></g><rect class="cls-8" x="55.95" y="55.97" width=".18" height="21.16"/><rect class="cls-8" x="59.41" y="55.97" width=".18" height="21.16"/><rect class="cls-8" x="62.74" y="55.97" width=".18" height="21.16"/><rect class="cls-8" x="66.04" y="55.97" width=".18" height="21.16"/><rect class="cls-8" x="52.74" y="71.52" width="16.72" height=".17"/><rect class="cls-8" x="52.74" y="68.44" width="16.72" height=".17"/><rect class="cls-8" x="52.74" y="65.19" width="16.72" height=".17"/><rect class="cls-8" x="52.74" y="62.12" width="16.72" height=".17"/><rect class="cls-8" x="52.74" y="58.86" width="16.72" height=".17"/><rect class="cls-8" x="52.74" y="74.33" width="16.72" height=".17"/><g><rect class="cls-3" x="13.37" y="53.79" width="32.23" height="5.66"/><rect class="cls-11" x="14.72" y="55.14" width="20.5" height="1.08"/><rect class="cls-11" x="14.72" y="57.03" width="28.86" height="1.08"/></g></g></svg>