<?xml version="1.0" encoding="UTF-8"?>
<svg id="how_to_prevent" data-name="how to prevent" xmlns="http://www.w3.org/2000/svg" xmlns:xlink="http://www.w3.org/1999/xlink" viewBox="0 0 32 32">
  <defs>
    <style>
      .cls-1 {
        font-family: ChalkboardSE-Regular, 'Chalkboard SE';
        font-size: 1.93px;
      }

      .cls-1, .cls-2 {
        fill: #77a8c7;
      }

      .cls-3 {
        fill: #82b7d9;
      }

      .cls-4 {
        filter: url(#drop-shadow-34);
      }
    </style>
    <filter id="drop-shadow-34" filterUnits="userSpaceOnUse">
      <feOffset dx="3" dy="3"/>
      <feGaussianBlur result="blur" stdDeviation="5"/>
      <feFlood flood-color="#000" flood-opacity=".25"/>
      <feComposite in2="blur" operator="in"/>
      <feComposite in="SourceGraphic"/>
    </filter>
  </defs>
  <g id="ic_milk_container" data-name="ic_milk container">
    <g class="cls-4">
      <polygon class="cls-3" points="16.9 28.05 23.89 29.76 29.78 28.25 29.78 9.89 26.86 4.51 26.76 3 19.92 2.7 19.92 4.11 16.9 9.69 16.9 28.05"/>
      <polygon class="cls-2" points="26.29 6.18 29.4 9.77 24.55 10 26.29 6.18"/>
      <polygon class="cls-2" points="26.76 5.12 26.29 6.17 29.4 9.77 26.76 5.12"/>
      <polygon class="cls-2" points="17.22 10 23.98 10.45 23.81 29.31 17.22 27.77 17.22 10"/>
      <polygon class="cls-2" points="24.19 10.39 29.59 10.09 29.56 27.94 24.06 29.31 24.19 10.39"/>
      <path class="cls-3" d="m17.22,9.89l6.77.46v1.91s.11.8-.56.75-.11-1.02-.11-1.02c0,0,.24-.57-.52-.6s-.45.71-.45.71c0,0,.69,1.02.3,1.64s-.58.6-1.01.62-1.11-.12-1.11-.87.93-1.85-.25-1.83-.42,1.67-.54,2.37-.59.77-.95.78-.89-.36-1.01-1.25.36-1.3.45-1.73-.18-.75-.56-.5-.45.61-.45.61v-2.06Z"/>
      <path class="cls-3" d="m24.19,10.39l5.4-.3v1.92s-.04.94-.45,1.24-1.37.1-1.32-.76c0-.26.5-1.24-.46-1.2s-.58,1.43-.6,2.14-.51.93-.51.93c0,0-.69.25-1-.38s.49-1.32.48-1.71-.33-.65-.77-.51-.77.88-.77.88l.02-2.24Z"/>
      <path class="cls-2" d="m21.57,7.84c-.67-.09-1.16-.62-1.08-1.2s.82-.98,1.5-.89,1.16.62,1.08,1.2-.82.98-1.5.89Z"/>
      <path class="cls-3" d="m23.06,18.93c-.11.95-1.16,1.63-2.66,1.45s-2.61-1.09-2.5-2.04,1.16-1.63,2.66-1.45,2.61,1.09,2.5,2.04Z"/>
      <text class="cls-1" transform="translate(18.63 19) rotate(6.81)"><tspan x="0" y="0">Milk</tspan></text>
      <polygon class="cls-3" points="29.3 27.78 29.3 21.6 24.35 22.43 24.35 28.96 29.3 27.78"/>
      <polygon class="cls-3" points="29.3 21.4 29.3 20.58 25.8 21.12 25.8 22.01 29.3 21.4"/>
      <polygon class="cls-3" points="18.82 27.33 18.82 27.94 23.59 29.02 23.6 28.42 18.82 27.33"/>
      <polygon class="cls-3" points="19.54 26.72 19.54 27.33 23.59 28.23 23.6 27.63 19.54 26.72"/>
    </g>
  </g>
</svg>