<?xml version="1.0" encoding="UTF-8"?>
<svg xmlns="http://www.w3.org/2000/svg" version="1.1" viewBox="0 0 221.6 283.5">
  <defs>
    <style>
      .cls-1, .cls-2, .cls-3, .cls-4, .cls-5, .cls-6, .cls-7, .cls-8, .cls-9, .cls-10, .cls-11, .cls-12, .cls-13, .cls-14, .cls-15, .cls-16, .cls-17, .cls-18, .cls-19, .cls-20, .cls-21 {
        stroke-width: 0px;
      }

      .cls-1, .cls-11 {
        fill: #bb7c46;
      }

      .cls-2 {
        fill: #6ca1bc;
      }

      .cls-3 {
        fill: #955a32;
        opacity: .4;
      }

      .cls-3, .cls-4, .cls-7, .cls-8, .cls-11, .cls-12, .cls-22, .cls-23, .cls-24, .cls-25, .cls-26, .cls-27, .cls-28, .cls-29, .cls-30 {
        mix-blend-mode: multiply;
      }

      .cls-4 {
        opacity: .3;
      }

      .cls-4, .cls-12 {
        fill: #603b21;
      }

      .cls-5 {
        fill: none;
      }

      .cls-6 {
        fill: #4c311e;
      }

      .cls-7 {
        fill: #a36a3d;
      }

      .cls-7, .cls-11 {
        opacity: .2;
      }

      .cls-8 {
        opacity: .4;
      }

      .cls-8, .cls-19 {
        fill: #56351d;
      }

      .cls-9 {
        fill: #4e6875;
        opacity: .5;
      }

      .cls-10 {
        fill: #98c9e5;
      }

      .cls-12 {
        opacity: .3;
      }

      .cls-22 {
        opacity: .1;
      }

      .cls-13 {
        fill: #684025;
      }

      .cls-14 {
        fill: #311e0f;
      }

      .cls-15 {
        fill: #82b7d9;
      }

      .cls-16 {
        fill: #506d7c;
      }

      .cls-17 {
        fill: #355159;
      }

      .cls-18 {
        fill: #5b798c;
      }

      .cls-31 {
        isolation: isolate;
      }

      .cls-23 {
        opacity: .1;
      }

      .cls-24 {
        opacity: .2;
      }

      .cls-20 {
        fill: #77a8c7;
      }

      .cls-25 {
        opacity: .2;
      }

      .cls-26 {
        opacity: .2;
      }

      .cls-27 {
        opacity: .3;
      }

      .cls-28 {
        opacity: .2;
      }

      .cls-29 {
        opacity: .2;
      }

      .cls-30 {
        opacity: .2;
      }

      .cls-21 {
        fill: #6c7541;
      }
    </style>
  </defs>
  <g class="cls-31">
    <g id="Livello_1" data-name="Livello 1">
      <path class="cls-10" d="M38.8,165.7c10.6,6.2,40.4,11.3,75.5,12.3,33.7.9,62.7-2.2,74.6-7.4-9.7-6.4-39.8-11.8-75.4-12.7-34.3-.9-63.6,2.4-74.7,7.9Z"/>
      <path class="cls-2" d="M183.5,167.8c-13.1-5.2-39.5-9.2-70-10-34.3-.9-63.6,2.4-74.7,7.9,4,2.3,10.7,4.5,19.5,6.4,2.9-1.3,7.7-2.6,14.8-4.1,43.3-9.1,97.3-2.1,110.5-.1Z"/>
      <path class="cls-18" d="M197,186.9l-8.1-.2c-2.2,1.1-4.7,2-7.5,3-6.7,2.2-15,4-24.5,5.3-8.3,1.1-17.5,1.9-27.3,2.2-6.3.2-12.9.2-19.6,0-2.8,0-5.5-.2-8.2-.3-10.9-.6-21.2-1.6-30.5-3.1-12.2-1.9-22.7-4.5-30.9-7.6-2.9-1.1-5.5-2.2-7.7-3.4l-7,2.9.5,11.6,1,22,.8,17.8,1,22.7c-.1,3,2.7,6,8,8.8,5.1,2.7,12.4,5.2,21.4,7.4,8.8,2.1,19.2,3.9,30.6,5.2,7.1.8,14.6,1.4,22.4,1.8,3,.1,6,.2,8.9.3,10.2.2,19.8,0,28.6-.6,9.7-.7,18.4-1.8,25.6-3.3,13-2.8,21-6.8,21.3-11.7l.9-23.2.9-23.4.8-19.7.5-12.2-1.8-2.5Z"/>
      <path class="cls-20" d="M29.5,260.9s-1.1-21.8-.6-21.7c.6.1,5.5,3.4,5.5,3.4,0,0,.6.9.6,2.5s.7,18.4.8,19.6c.1,1.2-.1,2.3-.8,2.3s-5.2-4.1-5.5-6.1Z"/>
      <path class="cls-20" d="M35.6,246.8s-.5-3.4,1.2-2.8c1.7.6,15.3,5.8,18,6.2,2.7.4,2.6,2.1,2.5,2.9-.1.8.3,18.9.6,20.1.2,1.1-1.1,2.3-1.8,2.1-.7-.1-17.9-5.6-18.5-6.5-.6-.9-2-6.1-2-22Z"/>
      <path class="cls-20" d="M58.1,253.8s.1-2.7,2.4-2.1c2.3.6,9.2,1.6,10.7,2,1.5.5,1.9,3.8,1.9,7.4s.6,9.5.6,9.5c0,0-.5-15.8.1-16.2.6-.5,1,0,3.6.2,2.6.2,7.4,1.1,8.8,1.1s2.3,1.8,2.1,6.1c-.1,4.3.2,13.6.2,14.7s.2,4.1-2.4,4.1-15.9-2-17.6-2.6c-1.7-.6-2.5-2.5-2.4-7.3,0,0-.2,6.7-1.7,6.4-1.5-.2-5.9-.1-6.2-4.3-.3-4.2-1-16-.2-18.9Z"/>
      <path class="cls-20" d="M88.8,261s-.9-5.1,3-4.5c3.9.6,18,1.6,22.7,1.8,4.6.2,6.1,1,6.1,5.9s.6,18.5-1.1,18.8c-1.7.3-24.2-1-25.7-1.4-1.5-.3-4.8,0-4.8-4.4s-.1-16.2-.1-16.2Z"/>
      <path class="cls-20" d="M121.5,263.3s-2.6-4.9.9-4.9,17.5-.2,20.8-.3c3.3-.1,5.3.2,5.5,3,.2,2.8.2,19.5,0,20.2-.2.7-1.5,1.7-6.8,1.6-5.3-.1-16.8.3-18.4-.2-1.6-.6-3.4-.6-3.2-4.6.2-4.1,1.1-14.8,1.1-14.8Z"/>
      <path class="cls-20" d="M149.1,261.7s-.3-3.8,2.4-4.1c2.7-.2,14.2-1.5,17.9-2.1,3.7-.7,5.3.3,5.3,2.8s.3,16.4.2,17.9c-.1,1.6-1,3-3.3,3.6-2.3.6-19.1,3.5-21,2.5-1.9-1-1.5-4.9-1.5-6.4s-.1-14.2-.1-14.2Z"/>
      <path class="cls-20" d="M175.1,257s-.3-2.5,1.4-2.9c1.7-.5,10.3-2.8,12-3.7,1.7-.9,1.8,3.9,1.8,3.9l.7,8.5s-.7-13-.3-13.4c.3-.5,2.8-1.6,3.6-2.1.8-.6,1.9-.8,1.9,2.8s-.9,16.8-.9,17.9-.3,5.3-8.7,8.1c-8.3,2.8-7-5.3-7-5.3,0,0,.1,6.4-.2,7.1-.3.7-3.4,1.4-3.4.2s-.6-9.1-.6-10.4-.2-10.7-.2-10.7Z"/>
      <path class="cls-20" d="M27.9,227.3s-.5-7.2.7-6.1c1.1,1.1,8.7,5.5,12.2,6.5,2.3.8,1.9,2,1.9,3.3s.2,11.3-.1,12.5c-.3,1.2-1.9,1.1-2.7.8-.8-.3-8.7-4.4-9.7-5.4-1-1-2.6-1.7-2.3-11.6Z"/>
      <path class="cls-20" d="M43.3,231.6s0-2.4,2.1-2.1c2.1.2,9.6,2.8,14.3,3.7,4.7.9,3.9,2.5,3.9,3.9.2.5.3-3.2,1.6-2.7,1.2.5,5.6.1,5.8,1.4.1,1.2,1,15.1.6,16.6-.5,1.5-.8.1-5.1-.1-4.3-.2-14.1-3.6-17.4-4.3-3.3-.7-6.2-.7-6-6.1.2-5.4.1-10.3.1-10.3Z"/>
      <path class="cls-20" d="M71.6,237.8s-.3-2.1,2-2.1,10.6,1,14.2,1.4c3.6.4,12.3,1.2,14.5,1.2s4.4,0,4.4,1.8-.4,14.9-.4,15.6c0,1.6-.8,1.6-11,.8-9-1-22.3-2.3-22.9-4.5-.6-2.2-.8-14.3-.8-14.3Z"/>
      <path class="cls-20" d="M107.3,240.9s-.3-2.3,1.9-2.4c2.2,0,9.5,0,13.7,0,4.2,0,11.8-1,12,.8.3,1.9-.3,13.4-.3,15.2s-.2,3.6-3.6,3.6-10.9.2-11.3-.3c-.4-.5-.6-4.2-.6-4.2,0,0,0,4.1-.8,4.2-.8,0-9.1.2-10.1-.3-.9-.5-1.4-3.3-1.4-5s.3-11.5.3-11.5Z"/>
      <path class="cls-20" d="M135.6,241.4s0-3,1.9-3.3c1.8-.3,8.5-.6,11.8-1.1,3.4-.5,4.1-.4,8-.8,3.8-.4,4.6.5,4.6,2.5v10.3c0,2.1.3-10.5.7-11.6.3-1.1.4-2.4,3.3-2.8,2.9-.4,7-1.4,10.7-2.2,3.7-.8,8.6-2.6,9.4-2.9.8-.3,1.4,1.9,1.4,2.5s-.2,11.7-.2,12.9.3,4.7-.9,5.4c-1.3.7-11.5,3.8-11.8,3.5-.3-.3-1.4-5.7-1.2-7.4.2-1.7-.3-2.9-.3-2.9,0,0-.2,4.5,0,5.2.2.8.8,5.2-.6,5.4-1.4.2-8.7,1.4-9.2,1.2-.5-.3-.7-1.1-.8-2.5,0-1.4-.3-.5-.3.3s.3,2.2-.8,2.3c-1,0-9.8,1.6-16.1,1.6s-10.8,1.9-10-2.7c.8-4.6,0-12.2.5-13.1Z"/>
      <path class="cls-20" d="M187.7,232.4s-.5-3.1.6-3.9c1.1-.8,4.7-2.3,6-3.6,1.3-1.3,2.3-2.3,2.7-.7.4,1.6,0,6.2,0,8.7-.2,2.5-.6,5-.6,7s0,4.6-.6,5.2c-.7.6-6.5,4.9-7.4,4.6-.9-.3-1.1-5.5-1-7.1,0-1.6.4-10.2.4-10.2Z"/>
      <path class="cls-20" d="M26.5,200.1s-.2-1.9.9-1.2c1.1.7,2.4,1.9,3,2.3.7.3.5,2.4.6,3.4,0,1,.3,11.5.3,12.3s.3-12.5.6-13.1c.3-.6,2.7,0,4.8,1.1,2.1,1.2,8.8,3.8,11.8,4.6,3,.8,6.3.2,6,7.3-.5,6-.5,11.7-1.1,12.7-.6,1-1.4,1.5-5.1.4-3.7-1.1-14-5.1-14.9-5.8-.8-.7-.8-3.2-.7-4.2.2-1-.4,2.3-.6,2.8-.2.5-1.6-.4-2.2-.8-.6-.4-2.6-2.7-2.6-3.6s-1.2-16.9-1-18Z"/>
      <path class="cls-20" d="M55.3,215.4s-.3-3.5,1.4-3.7c1.7-.3,7.2,1.3,9.9,1.8,2.7.5,9.8,1.9,14,2.2,4.2.3,6.1.3,6.2,3.8,0,3.5.2,13.2,0,15.3-.3,2-1.6,1.8-6.6,1.2-5-.7-9.2,0-9-3.6.3-4.4.3-8,.3-8,0,0-.4,6.6-.7,7.7-.3,1.1,0,2.3-1.3,2.3s-12.7-1.9-13.5-2.7c-.8-.8-1.9-.9-1.6-3,.3-2,.8-13.3.8-13.3Z"/>
      <path class="cls-20" d="M87.2,219.8s-.1-3.4,1.8-3.5c1.9,0,10.5,1.1,13.1,1.1s13.9.2,15.2.6c1.4.3,1.9.8,1.9,3s.3,10,.3,10c0,0,0-9.2.3-10.5.4-1.3.6-2.5,3.5-2.5s14.5-.3,17-.4c2.5-.2,4-.4,4.7.2.7.6.6,4.8.7,5.5,0,.7.3,4.4.3,5.9s.6-7.5.6-8.9-.5-3,2-3.4c2.5-.3,9-1.1,13.1-1.6,4.1-.5,7.3-1.3,8.4-1.7,1.1-.4,1.3,1.3,1.3,2.1s.4,6.6.4,8,.2,3.2.2,3.2c0,0,0-7.6,0-9.3s.3-4.1,2.1-4.7c1.8-.6,8.1-1.9,9.7-2.6,1.6-.7,8.7-3.6,10.7-5.1,2-1.5,3.3-2,3.3-.8s-.3,13.9-.7,15.6c-.4,1.7-3.4,5.3-6.8,6.8-3.5,1.4-3.2-.9-3.2-.9l-.5-3.8s.2,2.5.2,3.6.7,2.4-.3,3.1c-1,.8-12.8,4.1-13.9,3.6-1.1-.5-.6-2.5-.6-2.5,0,0-.6-.3-.5.8,0,1.1-.4,2.3-1.4,2.5-1,.2-11.7,2.8-17.5,3-5.8.3-6.6-.8-6.6-1.1s0-2.4,0-2.4c0,0-.5.8-.7,2.2-.2,1.4-3.9,2.1-7.2,2.4-3.3.3-14.4.8-16.2.7-1.9,0-16-.2-16.8-.3-.8,0-.8-.6-.9-1.6,0-1,0-3,0-3,0,0-.3,2.4-.5,3-.2.7-.5,1.4-2.9,1.4s-13.1,0-13.7-1.4c-.6-1.4.7-5.7.8-8.2,0-2.5-.6-7.4-.4-8.2Z"/>
      <path class="cls-18" d="M26.3,191.3s-.7-4,1.4-3.6c2,.3,4.6,2.2,8,2.9,3.5.7,3.9,1.5,4.1,4.1.3,2.5,1,10.3.2,10.5-.8.2-6.4-2.6-7.9-3.5-5.9-3.5-6.1-4-5.8-10.3Z"/>
      <path class="cls-18" d="M40.4,193.5s0-.9,1.5-.9,5.4,1.2,10.6,2.3c5.2,1.1,6.2,1.1,6,2.1-.2,1-.2,4.8-.2,5.4s-.2-6.2,1.2-6.2,7.2,1.4,9,1.4c1.8,0,2.4,1.3,2.5,2.7,0,1.4-.4,6.2-.4,8.8s.3,4.3-2.1,4c-2.6-.4-14.9-3-17.4-3.7-2.5-.8-2.5-3.3-2.3-6.1.2-2.8.3-4.3.3-4.3,0,0-.8,4.6-.8,5.4s1.5,5.8-2.8,3.2c-2-1.2-4.6-.5-4.6-2.5s-.3-11.6-.3-11.6Z"/>
      <path class="cls-18" d="M71.6,200.7s0-2.5,1.9-2.5,12,2,18.4,2.1c6.4,0,8.7,0,9.1.8.4.9.5,3.3.5,4.6s.2,5.2,0,6.8c-.2,1.6.6-.5.4-2.5-.2-1.9-.2-9.2.9-9.6s4.5.6,10.8.6,11.3.5,12.5.4c1.2,0,2.8-.4,3,.2.2.6.6,5.6.6,7.3s0,4,0,4c0,0,.4-11.2.8-11.7.4-.5,4-.3,7.6-.3s10.1-.7,13.7-.8c3.6-.2,4.4,0,4.6,1.1.2,1.2.7,6.3.8,9,.2,2.7,0-8,.2-9.4.2-1.4,1.5-1.7,4.1-1.8,2.6,0,9.8-.8,13.5-1.6,3.7-.8,5.6-1.6,5.7-1,0,.6.8,7.2.6,8.8-.2.9,0-8.9.8-9.5.8-.6,7.6-1.8,11.8-3.5,4.2-1.7,3.8-.6,4,1.6.2,2.2.2,7.5-.8,8.5-.9,1-8,5.8-13.1,7.1-3.5,1.2-3,.3-3-.8s-.3,1.1-.4,1.4c-.2.3-5.7,2.1-10.9,3.1-5.2,1-14,2.7-17.5,2.9-3.5.2-10.1.8-13.4.8s-14.9.8-22.4.5c-7.5-.3-22.5-1.1-29.4-1.6-6.9-.5-15.9-1-16.1-2.5-.2-1.4,0-10.9.7-12.6Z"/>
      <path class="cls-15" d="M29,242.3s.2-2,3.5-.3c1.1.9,1.6,2.5,1.7,4.2.1,1.7,1.5,17,1,18.4-.5,1.4-1.6,2.6-3.2.1-1.6-2.5-2.1-4.6-2.1-5.5s-.9-16.8-.9-16.8Z"/>
      <path class="cls-15" d="M36.1,249.9s-.8-5.9,1.8-5c2.6.9,7.1,2.6,9.4,3.4,2.3.8,3,2.9,3,3.4s.2,5,.2,5c0,0,0-6.9.9-7.1.9-.2,2.8,1.1,4.1,1.5,1.2.3,1,4.5,1,6.7s1.2,15.6.7,16.1c-.6.6-2,1.8-8.2-.8-6.2-2.6-11.5-5.7-11.5-6.5s-1.4-16.6-1.4-16.6Z"/>
      <path class="cls-15" d="M58.4,260.2s.1-8.2,2.4-8.2,7.4,1.2,9,1.8c1.6.6,2.9,2.5,3,7.9.1,5.4.6,7.7.3,10.5-.2,2.8.1,5.6-2.7,5.3-2.8-.3-3.2.3-3.7-5.6-.6-6-.3-3.2-.3-2.3s-.1-5.3-.2-3.7c-.1,1.6-.3,2-.3,3s-1,6.3-3.6,6.4c-2.6.1-3.2-1.5-3.2-1.5,0,0-.5-9.4-.7-13.6Z"/>
      <path class="cls-15" d="M75.1,260.2s.5-4.3,3.8-4.5c3.4-.2,6.8.5,7.9,1.4,1.1.9,1.4,11.4,1.1,13.8-.2,2.4,1.8,8.7-1.8,9-3.6.3-11.4-.9-11.7-1.2-.3-.3.7-18.4.7-18.4Z"/>
      <path class="cls-15" d="M89.9,262.1s.8-5.1,3.4-5c2.6.1,6.8,1,11.1,1.1,4.3.1,11.2.1,12.9,1.4,1.7,1.2,3.2,2.6,2.8,9.9-.3,7.3,2.7,12.5-2.7,12.5s-13.8-.7-19.7-1.1c-6-.5-7.3-1-7.7-6-.3-5,0-12.9,0-12.9Z"/>
      <path class="cls-15" d="M120.5,275.6s.5-3.7,1.2-5.5c.8-1.8,1-6.8,1.9-8.7.9-1.9,2.6-1.8,6.3-1.9,3.7-.1,2.7-.9,7.2-1,4.5-.1,10,.1,10.4.9.3.8,1.2,2.8,1.5,8.6.2,5.8.2,8,.2,8,0,0,0-8.5.3-10.7.3-2.3.5-6.3,2.1-6.8,1.7-.5,8-.9,11.7-1.5,3.7-.6,9-1.8,9.8-.3.8,1.5,1.5,3.6,1.7,6.7.2,3,.1,7.9.1,9s-.1,4.8-2.4,6.2c-2.3,1.4-9.7,2.8-15,2.9-5.3.1-7.6-.6-7.8-1.5-.2-.9-.9-2.1-.9-2.1,0,0-.5,2.7-.9,3.5-.5.8-5.4.9-12.7.9s-13.6-1-13.9-1.9c-.2-.9-1-4.7-1-4.7Z"/>
      <path class="cls-15" d="M175.7,266.3s.1-10.8,1.7-11.3c1.6-.4,9.4-3.9,10.8-3.6,1.5.3,1.6,2.3,1.8,4.3.2,2,.6,6.9,1.1,8.6.6,1.7-.1-4.1.1-5.2.2-1.1,1-1.5.2-3.3-.8-1.8.1-6.2.1-6.2,0,0,1-1.2,2.7-1.7,1.7-.5,1.4,4.3,1.2,6.2-.1,1.9-2,14.9-2,16s-3.8,4.2-7.6,4.7c-3.7.6-5.3-.2-5.3-.2,0,0-.6-1.4-1.1-3.9-.6-2.6-1.6-9-1.6-9,0,0,.9,8,1,10.3.1,2.3-.5,5.4-1.6,5.4s-1.1-1-1.1-1.4-.6-9.7-.6-9.7Z"/>
      <path class="cls-15" d="M28.6,227.7s0-5.3.9-4.8c.9.5,4.4,3.2,8.2,4.6,3.8,1.5,4.4,3.7,4.4,4.3s.8,2.9.6,6.3c-.2,3.4.6,5,.7,2.8.1-2.1.6-8.6,1.4-10.2.8-1.6,1.9-.1,4.1.2,2.1.3,10,2.1,11.8,2.8,1.8.7,2.7,1.2,2.6,3.2-.1,1.9.2,4.5.2,5.8s.9-5.1,1-6.4c.1-1.4,1.7-1.4,2.8-1.4s3.2,1.4,3.2,1.4c0,0,.6,5.8.6,9.6s-.7,6-1.7,6.1c-1,.1-9.1-1.4-12.3-1.9-3.2-.6-7.9-3-10-3.3-2.1-.2-3.5-2.8-3.5-2.8l-.2-.9s-.4-1.7-1.1-.2c-.7,1.5-2.3.5-2.9.3-.7-.1-5.1-1.2-7.4-3.3-2.4-2-3-3.8-3-6s-.1-6.2-.1-6.2Z"/>
      <path class="cls-15" d="M73.7,245.1s.8-7.2,3.4-7.4c2.6-.2,4.5-1.2,10.7-.6,6.3.6,11.6,1.8,14.9,1.8s3.8,3.5,3.8,8-.8,7.9-1.1,8.2c-.3.3-.2,1.5-10.6.8-10.4-.7-19.2-2.5-20.3-2.8-1.1-.3-.9-1.4-.8-8Z"/>
      <path class="cls-15" d="M107.4,247.4s.9-6.5,1.7-7c.8-.5,3.6-1.7,6.8-1.7s4.5.2,10.4.1c5.9-.1,7.7,1,7.7,2.1s.6,5,.6,7.9-.8,7.3-1.6,8.1c-.8.8-1.7.7-6.7.6-5-.1-5.3-.3-5.5-.9-.2-.6-1,.5-1-3.2s-.5-9-.5-9c0,0-.3,2.4-.3,3.9s-.6,7-1,7.8c-.5.8.5,1-3.7,1s-4.5-.1-5.3-.6c-.8-.4-1.9-3.5-1.6-8.8.3-5.3.1-.5.1-.5Z"/>
      <path class="cls-15" d="M135.8,245.3s1.1-6,4.3-6,3.8-1.5,10.4-2.3c6.5-.8,8.5-1.1,9.8,0,1.4,1.1,1.6,2.4,1.4,5.2-.2,2.8.3,6.5.3,7.7s.6-6.1,1.4-9.5c.8-3.4.5-5.4,3-5.4s7.9-.9,10.9-1.9c3-1,4.5-1,4.8-1s1.4,5.3,1.1,6.8c-.2,1.5-.1-7.2.5-7.7.6-.5.7-1,1.8-1s.9,3.7,1,4.5c.1.8.1,4.8.1,5.6s.5,3.5.5,3.5c0,0,.7-4.2.7-5s.5-8.9,2.1-9.8c1.7-.9,3.6-2.4,4.5-3.2.9-.8,1.6-2.1,2.1-1.4.6.8.2,6.7-.1,8.1-.3,1.5-.8,6.7-.7,8.9.1,2.3,0,2.1-1.4,3.6-1.4,1.5-3.5,2.6-4.5,3.3-1,.7-2,.2-2-.3s-.2-2.5-.2-2.8-.6-.3-.6-.3c0,0-.2,1.7-.2,2.5s-1.4,3.2-3,3.3c-1.7.1-7.3,1.6-7.7,1.9-.3.3-2.6-1-2.5-7.6.1-6.5-.8-5.2-.8-5.2,0,0-.2,3-.3,4.2-.1,1.1-.6,4.6-.5,6,.1,1.4-.1,3.8-1,3.9-.9.1-4.6.6-6.4.8-1.8.2-1.8-.2-1.8-1.1s-.5-1.9-.5-1.9c0,0-.8-.1-.8.6s.3,2.3-.9,2.7c-1.2.5-7.3,1-12.1,1.5-4.7.5-10,.1-11.4-.1-1.4-.2-1.4-1.6-1.4-3.2s-.1-7.9-.1-7.9Z"/>
      <path class="cls-15" d="M26.8,203.5s-.5-4.2.8-3.8c1.3.4,2.2,1.7,2.5,1.9.3.3.4.6.5,1.3,0,.7.3,5.8.3,7.4,0,1.6.3,5.8.3,7.7s.7-3.2.7-3.8.5-7.5,1.6-7.9c1.2-.4,2.6-1.6,4.3-.6,1.7,1,7.2,3.3,9,3.6,1.8.3,4.7,1,5.6,1.7.9.7,3.1,1.5,2,5.1-1.1,3.6-.3,7.2-.7,9.5-.4,2.3-.7,4.4-2.3,4.4s-5.6-1.8-7.6-2c-2-.3-5.1-1.9-6.8-2.5-1.7-.7-3-1.5-3-1.9s-1.4-.4-1.1-2.5c.3-2.1-.2-2.8-.2-2.8,0,0-.2,2.1-.2,2.5s-.4,1.4-1.4,1.2c-.9-.3-2.7-2-3.2-3.7-1-3.2-.5-4.3-.6-6.5,0-2.2-.7-8.2-.7-8.2Z"/>
      <path class="cls-15" d="M55.8,217.4s0-5.3,5-4.1c3.3.8,4.9.6,7.3,1,2.4.4,3.7.9,6.9,1.2,3.1.3,9.1.7,9.8.9.8.3,1.9,3.6,1.9,4.5s.3.8.2,4c0,3.2,0,4.5,0,4.8s2.2-.4,2.2-2.4,1.5-4.7,2-6.1c.5-1.4.3-3.5,1-3.7.8-.3,2.9.5,5.5.5s10.4.2,13.6.2,5.5.2,6.3,1c.8.8,1.4.6,1.4,2.9s0,5.6.2,6.9c0,1.3.5,1.3.3,2.8-.3,1.5.4-2.9.4-5s.3-7.7,3-8.1c2.7-.4,8.2-.3,10.7-.4,2.5-.2,7.7.3,8.9-.2,1.2-.5,2.7,0,2.9,1.1.2,1,.4,5.3.5,6.6,0,1.3.5,3.5.3,4.6-.2,1.1.8-3.6.8-4.7s1.1-7.2,2.7-7.7c1.5-.4,5-1.1,6.4-1.4,1.4-.3,8-.6,10.3-1.4,2.4-.8,3.9-1.6,4.3-.8.4.8.5,3,.5,3.2s.6,3.8.7,5.8c0,2,.4,3.4.4,4.1s.5-8.4.5-9.8.8-3.5,3.2-4.1c2.5-.6,6.1-1.9,7-2.2.8-.3,5.8-2.6,7-3.1,1.2-.5,2.5-.3,3.8-1.4,1.4-1.1,3.3-2.9,3.6-1.7.3,1.2-.2,4.9,0,7.2.2,2.3.3,6.9-.3,7.7-.7.8-1.8,3.4-4,4.9-2.2,1.5-4.7,1.8-5.2,1.8s-.3-1.9-1-4.5c-.7-2.5-.3-5.4-.3-5.4l-.6-2.2s0,4.8,0,6.4c0,1.6,0,4.1,0,5.2,0,1.1.2,2.3-1.1,2.8-1.3.5-8.9,2.8-10.4,2.9-1.5,0-2.3-.2-2.3-.5s-.2-.3-.2-1.6-1-1.9-1-1.6.8,1.7.5,2.7c-.3,1-1.5,2.1-3.4,2.5-1.9.4-5.4,1-7.9,1.2-2.5.2-5.7,1.5-9.6,1.3-4-.3-4.3-1.3-4.3-2.5s-.8-1.7-.8-1.7c0,0-.3,1.8-.3,2.5,0,.7,0,1.6-1.7,2.1-1.7.5-10.1,1.7-14.9,1.6-4.7,0-14.7-.3-19-.3s-4.6-.6-4.7-.9c-.2-.3-.8-1.5-.6-2.2.2-.7,0-5.5,0-5.5l-.3-.8s-.3,2.7-.3,3.4-.5,3.6-.9,4.7c-.4,1.1-1,1.2-3.1,1.2s-10.1-1.1-10.7-1.4c-.6-.3-1.4-1.1-1.4-2.4s-.2-3-.2-3c0,0-.5-.3-.5.8s-.3,3.8-1.9,4.2c-1.6.4-5.3.2-7.9-.2-2.5-.3-5.2-1-5.2-2s-.3-4.8,0-6.2c.3-1.4,0-4.4,0-4.4,0,0-.8,4.9-.9,6.6,0,1.7-.8,4.2-1.4,4.5-.7.3-4.7-.6-7.6-1.1-2.9-.5-6.3-.5-6.5-3-.2-2.5.3-11.3.5-12.3Z"/>
      <path class="cls-15" d="M26.7,192.1s-.6-4,1.1-4,3,1.2,5.5,2c2.5.8,5.7,1.2,5.8,2.6,0,1.4,1.3,7.1,1.2,9.4,0,2.3-.2,2.8-.9,2.5-.8-.3-3-1.3-5.2-2.5-2.1-1.2-5-3.2-6-4.9-1-1.7-1.4-5.2-1.4-5.2Z"/>
      <path class="cls-15" d="M41,195.3s-.3-2.2,1.9-2.1c2.2,0,4.6.8,7.6,1.6,3,.8,7.4,1.4,7.4,2.8,0,1.4.6,3.9.5,4.7,0,.8,0,2.1,0,2.1,0,0,0-5.7.8-6.8.8-1.1,1.2-1.1,2.3-.9,1.1.2,4.6,1,6.5,1.2,1.9.2,2.5,1.3,2.5,2.7,0,1.4-.3,3.7-.3,4.9s-.3,4.4-.3,5.1c0,.7,0,1.8-3.1,1.8s-7.5-1.5-10.6-2.3c-3-.8-6.1-1.5-6.1-1.5,0,0-.8-.8-.8-2.5s0-5.8.3-8c.3-2.2-.8-.8-.9.5-.2,1.4-.9,4.7-1.1,5.2-.2.6,0,3-1.3,3.1-1.4.2-3.6-1-3.8-1.2-.3-.2-1.5-10.5-1.5-10.5Z"/>
      <path class="cls-15" d="M71.8,212.6s-.8-2.4-.2-4.5c.6-2.1,0-5.3.5-6.4.4-1.2.9-2.4,2.8-2.4s6.7.8,9.1.9c2.5.1,8.3.6,10.8.6s6-.1,6,.9.7,6.8.7,8.1v4.4c0,1,.7-.8.7-.8l.3-8.5s.8-3.8,2.3-3.7c1.5.1,10.8,0,14.9.1,4.1.1,3.6.1,5.6.5,2,.3,3.5.3,3.5.3v3.3c0,.5.4,4.5.6,5.1.1.6.6,4.4.6,4.4,0,0,.5-6.3.5-6.8s1.2-5,1.2-5c0,0,.5-1.1,1.1-1.1s10.8-1.4,14-1.5c3.2-.1,6.4,0,7.6,0s1.8,1.6,1.8,1.6c0,0,.2,3.9.5,4.7.2.8.6,2.9.6,4.4s1,3.5,1,3.5l-.5-7.7s1.4-6.2,2.6-6.7c1.2-.5,4.8-1.5,8-1.8,3.2-.3,7.8-.6,9.1-1.2,1.4-.7,2.9-.9,3.2-.6.2.3,0,4.3.3,5.2.3.9,1,3.6.9,3.9-.1.3.1-5.5.1-5.5,0,0,.1-4.2,1.1-4.7,1-.6,7-1.4,9.1-2.4,2.1-1,3.6-1.7,4.6-1.4,1,.3,1.5,1,1,3.7-.5,2.7.2,4.7-.5,5.5-.7.8-5,3.7-8.1,5.5-3.2,1.8-6.1,2.8-6.8,2.8s-1.3-1.4-1.3-1.4l-.3-1.4s.3,1.4,0,2.1c-.3.8-3.3,1.8-4.7,2.1-1.5.3-13.3,2.8-14.7,3.3-1.4.5-3,.9-12.3,1.4-9.2.4-22.1,1.1-27.6,1.2-5.5.1-26.8-1.2-31.7-1.4-4.8-.1-17.7-1.8-18-3Z"/>
      <path class="cls-3" d="M25.5,187.9s7.5,11.3,89.7,15.2c38.6-.2,64.1-4.9,83.7-11.5,0-1.2.2-4.4.2-4.4,0,0-55.8,14.7-96.1,11-40.3-3.7-77.3-14.4-77.3-14.4l-.2,4.1Z"/>
      <path class="cls-18" d="M205.5,166.3c0,4.4-6.8,8.4-18,11.4-8.6,2.3-19.8,4.2-32.8,5.3-8.9.8-18.6,1.3-28.8,1.4-4.6,0-9.2,0-14,0-7.6-.2-14.9-.5-21.9-1-11-.8-21.2-2-30.3-3.6-10.2-1.7-18.9-3.8-25.6-6.2-9.5-3.4-15-7.3-14.9-11.4v15.2c0,.2,0,.5,0,.7,0,4,5.3,7.9,14.5,11.2,6.8,2.4,15.6,4.6,26,6.4,9.1,1.5,19.3,2.8,30.3,3.6,7,.5,14.4.9,21.9,1.1,4.7.1,9.4.1,14,0,10.6-.1,20.6-.6,29.7-1.5,12.6-1.2,23.5-3,31.8-5.2,11.3-3.1,18-7,18.1-11.5,0-.2,0-.5,0-.7h0v-15.2Z"/>
      <path class="cls-18" d="M121.5,200.6c-3.2,0-6.4,0-9.7-.1-7.4-.2-14.8-.5-21.9-1.1-10.9-.8-21-2-30.3-3.6-10.5-1.8-19.2-3.9-26.1-6.4-9.7-3.5-14.8-7.5-14.7-11.5,0-.2,0-.5,0-.7v-14.9c0,0,0-.2,0-.3h.5s0,.2,0,.2c.1,3.7,5.2,7.5,14.8,10.9,6.7,2.4,15.4,4.5,25.6,6.2,9.2,1.6,19.4,2.8,30.3,3.6,7.1.5,14.5.9,21.9,1,4.7.1,9.4.1,14,0,10.1-.1,19.8-.6,28.8-1.4,12.9-1.1,24.2-3,32.8-5.3,11.4-3.1,17.7-7.1,17.8-11.2h.5s0,15.4,0,15.4c0,.2,0,.3,0,.5,0,4.4-6.4,8.5-18.3,11.7-8.4,2.3-19.4,4.1-31.9,5.2-9.3.9-19.4,1.4-29.8,1.5-1.4,0-2.9,0-4.3,0ZM19.3,164.5v12.8c0,.3,0,.5,0,.7,0,3.7,4.9,7.5,14.4,11,6.8,2.4,15.5,4.6,26,6.4,9.2,1.6,19.4,2.8,30.3,3.6,7.1.5,14.5.9,21.9,1.1,4.7.1,9.4.1,14,0,10.4-.1,20.4-.6,29.7-1.5,12.4-1.1,23.4-3,31.8-5.2,11.5-3.1,17.8-7.1,17.9-11.2,0-.2,0-.4,0-.7v-.2s0,0,0,0v-12.9c-1.8,3.6-7.8,6.8-17.7,9.5-8.6,2.4-20,4.2-32.9,5.4-9,.8-18.8,1.3-28.8,1.4-4.6,0-9.3,0-14,0-7.4-.2-14.8-.5-21.9-1.1-10.8-.8-21-2-30.3-3.6-10.3-1.7-18.9-3.8-25.7-6.2-8-2.8-13-6-14.6-9.2Z"/>
      <path class="cls-18" d="M63.8,149.9h0c5.5-.7,11.7-1.3,18.4-1.7l.4-3.8c-8,.4-15.5,1.1-22.3,1.9,1.4,1.2,2.9,2.7,3.6,3.5Z"/>
      <path class="cls-18" d="M63.7,150.2h0c-.5-.8-1.7-2-3.5-3.6l-.4-.4h.6c6.9-.9,14.5-1.6,22.3-2h.3s-.5,4.3-.5,4.3h-.2c-6.6.4-12.8.9-18.3,1.7h-.2ZM60.9,146.6c1.5,1.3,2.5,2.4,3.1,3.1,5.5-.7,11.5-1.2,18-1.6l.3-3.3c-7.5.4-14.7,1-21.4,1.8Z"/>
      <path class="cls-18" d="M115.1,147.9c4.3.1,8.6.3,12.7.5h0s3.4-3.5,3.4-3.5c-6-.4-12.1-.7-18.5-.8-10.6-.2-20.7,0-30.2.4l-.4,3.8c10.1-.6,21.3-.7,33-.4Z"/>
      <path class="cls-18" d="M128.1,148.7h-.3c-4.2-.3-8.4-.4-12.7-.6h0c-11.5-.3-22.6-.2-33,.4h-.3s.5-4.3.5-4.3h.2c9.7-.5,19.9-.6,30.2-.4,6.2.1,12.4.4,18.5.8h.6s-3.7,3.9-3.7,3.9v.2ZM115.2,147.6c4.2.1,8.4.3,12.6.5l2.9-3c-5.9-.4-11.9-.6-17.9-.8-10.2-.2-20.3,0-29.9.4l-.3,3.3c10.3-.6,21.3-.7,32.7-.4h0Z"/>
      <path class="cls-16" d="M156.6,147.4l-5,3.1c25.8,3.2,43.4,8.8,43.3,14.6,0,1.9-2,3.7-5.5,5.3-.1,0-.2,0-.3.1-2.1.9-4.8,1.8-7.9,2.6-7.6,1.9-17.8,3.3-29.9,4.2-8.5.6-17.9.9-27.8.8-3,0-6,0-9.1-.2-8.5-.2-16.7-.7-24.4-1.4-9-.8-17.3-1.9-24.6-3.1-9.1-1.6-16.7-3.5-22-5.6-1.5-.6-2.8-1.2-4-1.8-.2-.1-.4-.2-.6-.3-2.7-1.6-4.2-3.3-4.2-5,0-.3,0-.5.1-.8,1.3-4.3,12.3-7.8,29-10h0c-.6-.9-2.2-2.3-3.6-3.5-23.3,2.9-39.2,8.2-41,14.6-.1.4-.2.8-.2,1.1,0,4.1,5.4,8,14.9,11.4,6.7,2.4,15.4,4.5,25.6,6.2,9.1,1.5,19.3,2.8,30.3,3.6,7,.5,14.4.9,21.9,1,4.7.1,9.4.1,14,0,10.2-.1,19.9-.6,28.8-1.4,13-1.2,24.3-3,32.8-5.3,11.2-3.1,17.9-7,18-11.4.2-7.7-19.6-14.8-48.9-18.9Z"/>
      <path class="cls-18" d="M121.5,184.7c-3.2,0-6.4,0-9.6-.1-7.4-.2-14.8-.5-21.9-1.1-10.8-.8-21-2-30.3-3.6-10.3-1.7-18.9-3.8-25.7-6.2-10-3.5-15.2-7.6-15.1-11.6,0-.4,0-.8.2-1.2,1.8-6.4,16.8-11.8,41.2-14.8h.1s0,0,0,0c1.9,1.6,3.1,2.8,3.6,3.6l.3.4h-.4c-17.1,2.3-27.6,5.8-28.8,9.9,0,.2-.1.5-.1.7,0,1.6,1.3,3.2,4,4.7.1,0,.2.1.4.2h.2c1.1.7,2.4,1.3,3.9,1.9,5.2,2.1,12.8,4,21.9,5.6,7.4,1.3,15.7,2.3,24.6,3.1,7.9.7,16.1,1.2,24.4,1.4,3,0,6,.1,9.1.2,9.7,0,19.1-.2,27.8-.8,12-.8,22.3-2.3,29.8-4.2,3.1-.8,5.8-1.6,7.9-2.6h.3c3.5-1.7,5.3-3.4,5.4-5.2.1-5.4-16.7-11.1-43-14.3h-.8c0,0,5.7-3.6,5.7-3.6h0c30.5,4.2,49.3,11.6,49.1,19.1,0,4.4-6.4,8.4-18.2,11.7-8.6,2.4-20,4.2-32.9,5.4-9,.8-18.8,1.3-28.8,1.4-1.4,0-2.9,0-4.3,0ZM60.1,146.7c-23.7,3-38.9,8.3-40.6,14.4-.1.4-.2.7-.2,1.1,0,3.8,5,7.6,14.8,11.1,6.7,2.4,15.4,4.5,25.6,6.2,9.2,1.6,19.4,2.8,30.3,3.6,7.1.5,14.5.9,21.9,1,4.7.1,9.4.1,14,0,10.1-.1,19.8-.6,28.8-1.4,12.9-1.1,24.2-3,32.8-5.3,11.4-3.1,17.7-7.1,17.8-11.2.2-7.3-18.4-14.4-48.6-18.6l-4.3,2.6c26.5,3.4,42.9,9,42.7,14.8,0,2-2,3.8-5.7,5.5h-.3c-2.1,1.1-4.8,1.9-8,2.7-7.6,1.9-17.9,3.3-29.9,4.2-8.7.6-18.1.9-27.8.8-3,0-6.1,0-9.1-.2-8.3-.2-16.6-.7-24.4-1.4-8.9-.8-17.2-1.8-24.6-3.1-9.1-1.6-16.8-3.5-22-5.6-1.5-.6-2.9-1.2-4-1.8h-.2c-.1-.2-.3-.3-.4-.3-2.9-1.7-4.3-3.5-4.3-5.2,0-.3,0-.6.1-.8,1.3-4.3,11.5-7.9,28.8-10.1-.6-.7-1.6-1.7-3.1-3Z"/>
      <path class="cls-18" d="M127.8,148.4c8.4.5,16.4,1.2,23.7,2.1l5-3.1c-7.9-1.1-16.4-1.9-25.4-2.5l-3.4,3.5h0Z"/>
      <path class="cls-18" d="M151.6,150.8h0c-7.4-.9-15.4-1.6-23.7-2.1h-.3v-.4l3.5-3.7h.1c8.9.6,17.4,1.4,25.4,2.5h.7c0,.1-5.7,3.6-5.7,3.6ZM128.4,148.2c8.1.5,15.8,1.2,23.1,2.1l4.3-2.6c-7.7-1-16-1.9-24.5-2.4l-2.9,3Z"/>
      <path class="cls-16" d="M193.7,162.4c-4.3-4.8-20.3-9.2-42.1-11.9-7.3-.9-15.3-1.6-23.7-2.1-4.1-.2-8.4-.4-12.7-.5-11.8-.3-22.9-.2-33,.4-6.6.4-12.8.9-18.4,1.7-17.7,2.3-29,6.1-29.2,10.8,0,1.7,1.4,3.4,4.2,5,5-2.5,13.8-4.5,25-5.9,5.6-.7,11.7-1.2,18.4-1.6,9.6-.5,20.2-.7,31.4-.4,5.1.1,10.1.4,15,.7,8.2.5,16,1.3,23.1,2.2,17.8,2.4,31.4,5.9,37.4,9.8,3.7-1.6,5.8-3.5,5.9-5.4,0-.9-.4-1.8-1.2-2.7Z"/>
      <path class="cls-20" d="M19.9,167s2.5,2.2,5.9,4.1c3.4,1.9,5.1,2.4,5.1,2.4l1.9,1s.3,0,.2,2.5c-.2,2.5.8,8.3.8,9.1s.2-8.6.3-10.5c.2-1.9,1.9-.5,3.2,0,1.4.5,12.9,3.4,17.4,3.9,4.6.5,4.7,2.7,4.6,3.4-.2.7,0,9,0,9,0,0,.3-4.4.7-5.8.3-1.4.7-5.1.7-5.1,0,0,10.5,1.5,16.4,1.7,5.9.2,8.5,1.2,10,1.2s2.2,1.4,2.2,1.4v4.2c0,1.2.3,3.7.5,5.6.2,1.9.3-5.8.3-6.9s.7-3.9.7-3.9c0,0,9.1.8,13.4.8h12.9c3,0,7.8.2,7.8.2l.8,1.9-.2,10.3s1.2-6.6,1.2-9,1.9-3.6,2.5-3.6,15.4-.2,18.6-.3c3.2-.2,5.4-.3,5.4-.3,0,0,1.9.2,1.9,1.4s.3,9,.3,10.1.3-9.5.5-10.1c.2-.7-1.5-1.5,2-1.9,3.6-.3,10-1,14.2-1.5,4.2-.5,12.5-2.7,13.2-2.9.7-.2,1.9-.3,2,.7.2,1,0,9,0,9.6s1.2-9.1,1.2-10.1,3.4-2.2,3.4-2.2c0,0,7.8-3.6,10.3-5.1,2.5-1.5,2.9-.7,2.9,1.5s-.3,9.6-.5,10.3c-.2.7-6.4,5.2-10,6.8-3.6,1.5-8.5,2.2-10.7,3-2.2.8-18.1,4.1-22.8,4.4-4.7.3-28.1,1.2-31.5,1.2s-27.7-.2-32.6-.3c-4.9-.2-28.9-2-33.8-3-4.9-1-19.5-3.2-28.4-7.1-9-3.9-14.2-8.5-14.7-10.3-.5-1.9-.2-4.1-.2-6.1v-5.6Z"/>
      <path class="cls-18" d="M199.4,159.7c-2.5-2.2-1.4,0-1.4,0l-3.4,1.2,2.2-1.9s-.3-.8-.8-1.2c-.5-.3-9.6-4.1-15.1-5.6-5.4-1.5-18.8-3.9-19.8-3.9s-4.3-.5-4.7-.3c-.3.1-1.2.7-2,1-.8.3-2.5.8-2.5.8,0,0,2.4-1.7,2.7-1.9.3-.2-1.4-.6-1.4-.6,0,0-15.4-1.8-18.5-1.9-3-.1-3.6-.2-3.9.1-.3.3-1.7,1.7-1.7,1.7l-1.2.6s1.7-2.1,1.8-2.6c.1-.4-18.4-.9-21.5-.9s-13.8.1-13.8.1c0,0-9.6.2-10.6.2s-1.1.6-1.1.6l-.3,2.3s-.2-1.5-.2-1.8-1.5-1-2-1-13.9,1.5-15.9,1.6c-2,.1-2.9.6-2.9.6,0,0,1.7,1.7,2,2.4.3.7-1-.5-1-.5,0,0-.2-.5-1.1-1-.9-.6-1.2-.5-2.1-.5s-2,.5-2,.5c0,0-.3.2-.3,1.2s-2.8,1.7-2.8,1.7c0,0-15.6,4.6-16.1,5.1-.6.5-1.4,1.5-1.4,1.5l-1.7.2s-5-.8-5.9-1.1c-.9-.3-2.5-.6-2.9-.2-.5.3-2.9,1.9-4.2,2.7,0,0-.3,1,.1,1s4.7-.3,5.1-.5c.3-.1,6.5.3,6.9.5s-7.6.1-8.1.2c-.6.1-5.5.7-5.9.9-.3.2,1,3.3,1,4.1s5.6,4.6,7.3,5.8c1.7,1.1,5,1.5,5,1.5,0,0,1-.5,3.2-1.2,2.1-.8,7-3,7.1-3.1-1.8-.7-3.3-1.4-4.5-2.1-2.7-1.6-4.2-3.3-4.2-5,.1-4.6,11.5-8.5,29.2-10.8,5.5-.7,11.7-1.3,18.4-1.7,10.1-.6,21.3-.7,33-.4,4.3.1,8.6.3,12.7.5,8.4.5,16.4,1.2,23.7,2.1,21.8,2.7,37.8,7.1,42.1,11.9.8.9,1.2,1.8,1.2,2.7,0,2-2.1,3.8-5.9,5.4-12,5.2-40.9,8.3-74.6,7.4-31-.9-57.8-4.9-71-10.1l-8.4,5s2.4,1.4,8.6,2.5c6.3,1.2,14.7,3.7,15.6,3.7s2.7-2.5,2.7-2.5l2.5-2.4s-3.2,4.4-3.7,4.7c-.5.3,8.6,1.7,14.9,2.5,6.3.8,13.7.8,13.7.8,0,0,.5-2.4.7-3.7l.2-1.4s.7,3.6.3,4.6c-.3,1,9.8,1,17.1,1.7,7.3.7,13.5.8,15.2.7,1.7-.2,1.5-1.5,1.5-1.5l-.9-4.6s1.6,3.1,1.7,4.6c.2,1.5,1.4,1.5,3.4,1.5s17.3-.8,20.6-1.2c3.4-.3,4.2-1,4.2-1,0,0-1.5-2.7-1.5-3.2s.3.3.8.8c.5.5,2.7,2.5,3.2,2.7.5.2,1.7-.2,3.2-.5,1.5-.3,8.6-.7,9.1-.7s26.2-5.2,30.5-8.6c4.2-3.4,6.1-5.1,6.1-6.4s-2.9-4.2-5.4-6.4Z"/>
      <path class="cls-15" d="M36.1,182s-.1-4.6,1.2-5.1c1.4-.5,5.9,1.4,9.4,1.7,3.6.3,8.8,1.9,10.3,2.4,1.5.5,1.5,3,1.5,4.2s-.3,4.7-.2,6.3c.2,1.5-.2,3.6.3,2.4.5-1.2,1.5-4.4,1.5-5.4s.8-6.1,1.4-6.4c.5-.3,2.5-.2,5.2.3,2.7.5,12.5,1.7,15.6,1.7s5.8.3,5.9,1.2c.2.8,0,8.5.2,9.6.2,1.2-.2,2.4-1.2,2.5-1,.2-13.5-.8-16.6-.8s-15.9-2.2-20.8-3c-4.9-.8-15.2-4.7-15.7-5.4-.5-.7,1.8-6.1,1.8-6.1Z"/>
      <path class="cls-15" d="M123.4,199c-.6,0-17.6-.3-20.8-.3s-11.3-.7-11.5-1c-.2-.3-.8-8.7-.8-8.7l1.4-3.6s7,0,11.7.2c4.7.2,13.4.8,16.8.8h4.3s.6,3.3.6,3.7v4.2c0,.8.2,3.9.2,3.9l1.2-4.6s1-7.3,1.4-7.8c.3-.5,2.4-.7,4.5-.7s12.7-.1,16.8-.1,5.5-.5,5.5,1.4.1,7.6.1,8.3.6,2.3.6,2.3c0,0,.6-7.7.6-8.3s.1-3.5.9-3.9c.8-.5,4.9-.9,7.1-.9s5.1-.7,6.8-.8c1.7-.1,8.9-.8,10.8-1.7,1.9-.9,4.3-2,4.6-1.5.3.6.8,1.1.8,2.5v7.7c0,.6.9,1.4.9,1.4,0,0,1-5.6,1.1-6.5.1-.9.1-4.3,1.4-5.4,1.2-1.1,3.5-2.3,3.5-2.3,0,0,3.3-1.7,5-2.7,1.7-1,4.2-2.6,4.8-1.8.7.8.9,4.6.8,6.2-.1,1.6-.3,5.2-.9,5.6-.6.5-7.2,4.6-9.4,6-2.1,1.4-11.3,3.2-13.5,3.5-2.3.3-16.5,3.2-20.3,3.5-3.8.3-31.8,1.8-37,1.6Z"/>
      <path class="cls-15" d="M20.4,172.6s-.2,4.3-.2,4.7,1.2,2.1,2.5,3.4c1.2,1.2,3.2,2.6,5.2,4.1,2,1.5,4.7,2.3,5.2,2.6.5.3-.7-4.8-.6-5.8.1-.9.3-7.2.3-7.2,0,0-.7.8-3.9-1.1-3.3-1.9-3.2-1.8-5-2.7-1.8-.9-2.6.3-3.5,2Z"/>
      <path class="cls-20" d="M39.1,164.9s-3.9-6.9,3.7-10c4.1-1.7,12.3-2.6,14.7-3.1,2.4-.4,4.3-1.3,5-.8.7.4,1.1,1.6,1,3.5,0,1.9.2,3.6.2,4.1s.2-3.3.2-4.4-.4-3.3,1.6-3.7c2-.4,12-1.1,13.8-.8,1.8.3,2.5.7,2.5,1.3s.2,3,.3,4.7c0,1.7.6-1.2.4-1.9-.2-.8.8-4.7,1.6-4.8.8,0,14.8-.4,17.4-.4s2.8,2.5,2.8,3.8.4,3.5.5,4.4c0,.9,2.3,1.3,2.3,1.3,0,0,1.3-5.8,1.7-7.6.4-1.9,4.3-2.1,5-2,.7,0,7.5.7,10,.7s3.7.5,3.6,2c-.2,1.5,1,6,1,6.4s0-3.1,0-3.5c0-.3.3-4.4,1.4-4.6,1.2-.2,11.2.5,14.8,1.1,3.6.6,6,.8,6.2,1.9.2,1.2.7,1.9.6,4.2,0,2.4.2,3.1.2,3.1,0,0,.3-7.5.9-7.8.7-.3,7.6.5,9.8,1,2.2.5,5,.8,5.1,2.5,0,1.6.4,6.5.3,6.9-.2.3-10.3-1.5-13.1-1.7-2.8-.2-9-1.4-13-1.4s-17.3-1.5-22.2-1.5-12.1.8-20.6,0c-8.6-.8-20.3,1.1-25.8,1.1s-19.5,2.9-22.2,3.2c-2.7.3-11.6,3.7-11.4,3Z"/>
      <path class="cls-15" d="M42.8,163s4.3-8.5,6.2-9.1c1.9-.7,6.4-1.4,9.8-1.9,3.4-.6,3.5-1.4,3.5,0s2.2,6,1.3,6.5c-.9.6-5.2,1.6-9.1,2-3.9.5-11.7,3.4-11.7,2.5Z"/>
      <path class="cls-15" d="M65.2,151.2s3.5-1.1,7.6-1.1,7.2.1,7.9.3c.7.2.2,1.8.5,3.3.2,1.5.2,3.6.2,3.6,0,0,1.1,0,1.6-.9.5-.9.6-6.8,1.7-7,1.1-.2,5-.8,8.5-.6,3.5.2,9.6-1.1,9.9.2.3,1.4.3,4.8.5,6.4.1,1.6-2.5,1.7-3.2,1.6-.7-.1-19.5.5-23.6.7-4.1.2-9.4.5-11.1.7-1.7.2-1-1.1-.9-2.1.1-1-.9-4.5.4-5.1Z"/>
      <path class="cls-15" d="M108.8,156.7s1-7.4,1.5-7.6c.5-.1,3.7-.2,6.1-.2s9.8-.3,9.9.7c.1,1,.3,2.7.5,3.9.1,1.2,1.6,3.7,1.6,3.7v-2.9s.8-4.7,2.2-4.8c1.4-.1,15.3,1.5,17.1,2.1,1.8.7,3,.8,3,1.8s.2,3.3.2,4.1.7,2.6.7,2.6c0,0,1.1-4.8,1.2-5.8.1-.9.4-2.1,1.7-2.1s9.4,1.6,9.8,2c.5.5.7,2.3,1.2,3.6.6,1.4,1,3.8,1,3.8,0,0-7.3-.7-8.6-.8-1.2-.1-8.7-1.1-11.7-1.5-3-.3-21.4-2.5-24.7-2.6-3.3-.1-12.7.3-12.7-.1Z"/>
      <path class="cls-18" d="M113.5,157.8c-34.3-.9-63.6,2.4-74.7,7.9,1.2.7,2.6,1.4,4.3,2,6.8-2.6,22.2-7.3,43.4-8,27.2-.8,72,0,94.2,7.7,1.1.2,2,.3,2.8.4-13.1-5.2-39.5-9.2-70-10Z"/>
      <path class="cls-15" d="M66.1,174.7s-2.9,1.9-3.4,2.9c-.5,1,2.7,1.9,10.8,2.9,8.1,1,15.1,1,15.1,1l1.4-4.1s1,.2,1,1-.4,2.5.9,2.8c1.4.3,15.3,1.1,20.9,1.8,5.6.7,9.8,2.5,10.3.2.5-2.4.8-4.2,0-4.4-.8-.2-23.9-.8-28.6-1.5-4.7-.7-15.4-1.4-20.1-2-4.7-.7-8.3-.5-8.3-.5Z"/>
      <path class="cls-15" d="M63,173.7s-3.7,3.6-5.1,3.9c-1.4.3-3.7-.3-7.4-1.4-3.7-1-6.9-3.2-9.1-3.4-2.2-.2-4.1-.8-4.1-.8l5.4-3.4s11.8,3.2,15.4,4.2c3.6,1,4.9.8,4.9.8Z"/>
      <path class="cls-15" d="M41.1,167.6s-5.9,2.2-7.3,2.9c-1.4.7-3.4-.2-3.4-.2,0,0-7.4-3.9-8.3-5.1-.8-1.2-1-4.2-1-4.2,0,0,5.2,0,8.5-.3,3.2-.3,3.7-.5,3.7.3s1,2.2,2.7,3.4c1.7,1.2,5.1,3.2,5.1,3.2Z"/>
      <path class="cls-15" d="M126,178.8h11c6.6,0,11.3.2,12.5-.3s1.2,1,1.9,2c.7,1-1.2,2-4.1,2s-9.6,0-12.5.2c-2.9.2-8,.2-8,.2,0,0-1-.3-1.2-1.5-.2-1.2-1.2-2.5.3-2.5Z"/>
      <path class="cls-15" d="M152.9,178.1s2.5,3.4,3.9,3.4,6.1-1,6.9-1.2c.8-.2-3.2-1-4.9-2-1.7-1-5.9-.2-5.9-.2Z"/>
      <path class="cls-15" d="M195.5,167.6s1-2.9.3-4.2c-.7-1.4-.5-2,.7-2s2.9-1.7,2.9-1.7c0,0,4.6,4.4,4.4,5.9-.2,1.5-6.3,6.4-7.6,6.9-1.4.5-.8-.7-.7-1.9.2-1.2,0-3,0-3Z"/>
      <path class="cls-15" d="M64.5,149.4l-1.8-2.1s.5-.9,4.4-1c3.9-.1,9.7-1.2,11.8-1.2s3.5.1,3.3.7c-.2.6.2,1.8.2,1.8l1-2.4s4.2-.1,6.7-.2c2.5-.1,12.1-.7,13.5-.7s15.3.7,18.4.8c3,.1,7.2.2,6.4.9-.8.7-1.2,1.7-1.6,1.7s-16.4-.3-19.6-.5c-3.3-.1-14.2.6-17.3.6s-11.7.3-15.2.7c-3.5.3-10.3,1-10.3,1Z"/>
      <path class="cls-15" d="M129.3,147.8s1.5-1.9,2.9-1.9,9.5.4,14.4,1c4.9.6,7.5.8,6.8,1.3-.8.5-2.9,1.8-3.8,1.8s-6.5-.8-12.5-1.1c-6-.3-7.9-.8-7.7-1Z"/>
      <path class="cls-15" d="M152.4,150.3s.1,0,.3-.2c.7-.3,2.3-1.1,3.3-1.4,1.4-.5,1.4,0,3.9,0,2.5.2,7.6.5,7.7,1.1,0,.6-.2,1.8-.2,2.2s-2.2.3-4.3-.2c-2.1-.4-10.7-1.6-10.7-1.6Z"/>
      <path class="cls-15" d="M187.3,154.9s.2,1.9,0,2.4c-.2.4,1.9.7,3.2,1.9,1.4,1.3,3,1.4,4.1.8,1.2-.5,1.6-1.1,1.4-1.4-.2-.3-8.7-4.8-8.8-3.8Z"/>
      <polygon class="cls-18" points="165.2 107.6 166.4 98.4 167.9 107.9 165.1 107.9 165.2 107.6"/>
      <path class="cls-2" d="M37.4,65.6l.3,7.4c1-1.4,4.2-2.5,10-1.5v-6.3c-.1,0-10.4.5-10.4.5Z"/>
      <path class="cls-4" d="M37.3,73.8c0-.3.2-.5.4-.8l-.3-7.4-8,.4.2,4.4c2.8.1,7.6.7,7.7,3.4Z"/>
      <path class="cls-18" d="M37.2,157.1s10.8-5.2,18.6-5.9v-3.6c-9.6,1.7-18.5,5.5-18.5,5.5v4.1Z"/>
      <polygon class="cls-18" points="27.5 151.2 27.5 154.6 37.2 157.1 37.2 153 27.5 151.2"/>
      <path class="cls-18" d="M48.9,145.4l-13.7,1.5-2,1.4-5.7,2.9,9.7,1.8s8.9-3.8,18.5-5.5c.1,0,.3,0,.4,0-1.3-.3-7.3-2-7.3-2Z"/>
      <polygon class="cls-18" points="173.2 166.6 168.8 168.1 159.1 170.6 169.3 176.6 194.8 168.5 186.5 164.5 173.2 166.6"/>
      <polygon class="cls-18" points="166.4 172.1 159.1 170.6 159.1 177.3 170.5 182 169.3 173.9 166.4 172.1"/>
      <polygon class="cls-18" points="194.8 168.5 169.3 173.9 170.5 182 194 174.2 194.8 168.5"/>
      <path class="cls-15" d="M38.3,154.2s-.4-1.6.7-1.7c1.1,0,4.1-1.5,5.9-1.9,1.8-.3,8.1-2,8.9-2.3.8-.3,1,.4,1.3,1.3.3.8,1.3,1-.7,1.4-1.9.3-8.1,2-9.6,2.8-1.5.8-5.9,1.8-6.4,2.4-.5.6-.8.9-1.3.4-.5-.5-5.6-1.8-7.3-1.9-1.7-.2-1.6-2.9-1.6-2.9,0,0,3.1.8,5.5.9,2.4,0,3.4,2.3,3.4,2.3v1l1.3-1.8Z"/>
      <path class="cls-15" d="M33.5,148.6s-3.8,1.9-4.3,2.3c-.5.3,2.9.7,4.4,1.1,1.5.4,4,.6,4.2.5.3,0,2.2-1.3,2.2-1.3l-6.5-2.6Z"/>
      <path class="cls-15" d="M48,145.6s5.3,1.4,5.5,1.7c.2.3-5.1,1.6-5.9,1.6s.4-3.3.4-3.3Z"/>
      <polygon class="cls-18" points="47.7 65.1 37.4 65.6 29.4 66 33.3 148 41.1 151.2 49 149 47.7 65.1"/>
      <polygon class="cls-2" points="47.7 65.1 37.4 65.6 41.1 151.2 49 149 47.7 65.1"/>
      <path class="cls-18" d="M44.9,136.3c-2.2-4.6-2.7-23.2-3.4-28.8-.7-5.6,1-11,3-10.3,2,.7,3,0,3.4-1.2.3-1.2-.3-9.3-.5-11.2-.2-1.9-1.2-2.5-4.1,0-2.9,2.5-2.9,5.1-2.9,2.9s-1.6-6.8,1.6-13.4c1.9-3.9,4.8-1.9,5.7-.7v-8.5c-.1,0-10.4.5-10.4.5l3.7,85.6,8-2.2-.2-13.7c-1.4,2.4-2.8,3.1-3.8,1Z"/>
      <path class="cls-2" d="M41.1,151.2l-3.7-85.6-8,.4.5,11.4c.5-1.8,1.5-4.3,2.8-5.2,2.2-1.4,3.9,9.5,4.1,12.2.2,2.7,2.4,46.5,2.2,54.1-.2,7.6-2.7,5.4-2.7,4.2s-.7-21-.8-28.6c-.2-7.6-1-20.5-1-20.5,0,0,.3,25.5.3,27.9s0,16.4-.2,20c-.1,2.5-.2,4-1.4,4.6v1.8c0,0,7.9,3.2,7.9,3.2Z"/>
      <path class="cls-8" d="M47.5,85.6s-1.5-1.2-2.9.5c-1.4,1.7-2.6,3.6-1.9,6.9.7,3.4,5.7,3.2,5.5,1.5-.2-1.7-.7-9.6-.7-9.6v.7Z"/>
      <path class="cls-15" d="M159.9,172s0,3.1,0,4.1c0,.9,1.9.9,3,1.6,1.1.7,7,3,7.2,3.3.2.3-.5-4.1-.8-4.7-.3-.6-9.6-5.8-9.2-4.2Z"/>
      <path class="cls-15" d="M170,175.8s.8,4.7,1,5.2,10.2-3.4,12.5-3.9c2.3-.5,10.3-3.1,10.3-3.1l.6-5.3s-10.2,2.5-12.2,3c-1.9.5-8.9,3.1-10.4,3.3-1.5.2-1.9.9-1.9.9Z"/>
      <path class="cls-15" d="M161,170.4l7.5-1.9s2.2.9,3.6,2.1c1.4,1.2,2.3,2.3,2.3,2.3l-4.9,2s-9.6-4.7-8.5-4.6Z"/>
      <path class="cls-15" d="M184.1,166.7l2.3-1.6s6.8,2.4,7,2.9c.2.6-6.9,1.4-8.8,1.4s-2.1-1.1-.4-2.7Z"/>
      <rect class="cls-18" x="102" y="148.4" width="4.1" height="29.3"/>
      <g>
        <polygon class="cls-20" points="108 177.8 104.7 177.6 104.5 101.8 107.9 101.8 107.9 177.1 108 177.8"/>
        <path class="cls-17" d="M104.8,107.6s1.8,4.7,3,6.3c-.3.2-2.8-3.3-3-6.3Z"/>
        <path class="cls-17" d="M104.8,116.9s1.8,4.7,3,6.3c-.3.2-2.8-3.3-3-6.3Z"/>
        <path class="cls-17" d="M104.8,126.2s1.8,4.7,3,6.3c-.3.2-2.8-3.3-3-6.3Z"/>
        <path class="cls-17" d="M104.8,135.5s1.8,4.7,3,6.3c-.3.2-2.8-3.3-3-6.3Z"/>
        <path class="cls-17" d="M104.8,144.8s1.8,4.7,3,6.3c-.3.2-2.8-3.3-3-6.3Z"/>
        <path class="cls-17" d="M104.8,154.1s1.8,4.7,3,6.3c-.3.2-2.8-3.3-3-6.3Z"/>
        <path class="cls-17" d="M104.8,163.4s1.8,4.7,3,6.3c-.3.2-2.8-3.3-3-6.3Z"/>
        <path class="cls-17" d="M104.8,172.7s1.1,2.6,2.4,4.2c-.3.2-2.1-1.2-2.4-4.2Z"/>
      </g>
      <g>
        <path class="cls-2" d="M46.6,85.8c-1.6-.2-3.2,1.8-3.5,4.4-.3,2.6.8,4.9,2.4,5.1l124.6,13.2,1-9.4-124.6-13.2Z"/>
        <g>
          <path class="cls-5" d="M140.9,95.2s-1.2-.6-2.4.3l2.1.2c.2-.3.3-.5.3-.5Z"/>
          <path class="cls-7" d="M171.2,99l-5.7-.6c-.1,5.8-1.7,7.7-7.2,7.2-5.8-.5-17.3-1.1-18.6-4.1-1-2.3.3-4.8.9-5.8l-2.1-.2c-1.2.9-2.3,3.3-1.9,9.4l33.6,3.6,1-9.4Z"/>
        </g>
        <path class="cls-18" d="M73.6,98.1s1.6-.5,2-2.7c.4-2.3,1.9-5.9,3.3-6,0,2-.7,8.1-.7,8.1,0,0,1.1,1.6-4.5.6Z"/>
        <g>
          <g>
            <path class="cls-20" d="M82.5,100.7c-1.4-1.1-2.1-3.4-1.7-5.8.3-1.9,1-3,2.2-4,.9-.7,1.7-.4,3.4-.1,1.3.2,1.6.6,2.5.4-.8-2.3-2.5-4.1-4.7-4.4-2.2-.4-4.4.8-5.9,2.9-.9,1.3-1.6,2.9-1.9,4.7-.3,1.9-.1,3.7.4,5.2.8,2.4,2.5,4.1,4.7,4.4,2.1.3,4.2-.7,5.7-2.6l-.9-.2-3.8-.7Z"/>
            <path class="cls-17" d="M81.3,87.3s-.8,2.7,1,4.4c-.7,0-2-1.5-1-4.4Z"/>
            <path class="cls-17" d="M76.9,92.4s.4,4.6,4.5,5.6c-.8.3-4.8-1.5-4.5-5.6Z"/>
            <path class="cls-17" d="M77.5,101.2c-.1-.2,1.9,2.3,5.1,1.2-.5.6-3.4,1.3-5.1-1.2Z"/>
            <g class="cls-30">
              <path class="cls-20" d="M83,91c.9-.7,1.7-.4,3.4-.1,1.3.2,1.6.6,2.5.4-.8-2.3-2.5-4.1-4.7-4.4,0,0-.2,0-.2,0-2.9,2.2-6.5,9.3-5.1,15.2.9,1.3,1.1,1.8,2.6,2.1,2.1.3,4.2-.7,5.7-2.6l-.9-.2-3.8-.7c-1.4-1.1-2.1-3.4-1.7-5.8.3-1.9,1-3,2.2-4Z"/>
            </g>
          </g>
          <path class="cls-17" d="M85.6,87.8s-4.5.9-5.6,6.4c-1.2,5.4,1.5,9.5,3.1,9.7,1.1,0,.2-.5.2-.5l2.3-15.6Z"/>
        </g>
        <g>
          <g>
            <path class="cls-20" d="M87.2,101.4c-1.5-1-2.4-3.1-2.2-5.5.1-1.8.8-3,1.9-4,.8-.7,1.7-.5,3.5-.4,1.4.1,1.7.4,2.6.2-1.1-2.2-2.9-3.7-5.2-3.9-2.3-.2-4.5,1.1-5.8,3.3-.9,1.3-1.4,2.9-1.6,4.7-.1,1.8.2,3.6.9,5,1,2.2,2.9,3.8,5.2,3.9,2.2.2,4.3-1,5.7-3h-1c0,0-3.9-.4-3.9-.4Z"/>
            <path class="cls-17" d="M85.9,88.1s-.9,2,.3,4c-.1.1-1.7-2.1-.3-4Z"/>
            <path class="cls-17" d="M81.5,91.9s-.6,4.2,3.7,6.3c-1.2-.3-4.2-1.8-3.7-6.3Z"/>
            <path class="cls-17" d="M81.4,100.5s2.1,2.7,5.9,2.6c-.2.3-4.2.1-5.9-2.6Z"/>
            <g class="cls-25">
              <path class="cls-20" d="M86.9,91.9c.8-.7,1.7-.5,3.5-.4,1.4.1,1.7.4,2.6.2-.9-1.9-2.4-3.3-4.3-3.8-2,1.5-6.1,5.2-6.2,10.1,0,2.4,0,3.7,0,4.6,1,1.2,2.4,2,4,2.1,2.2.2,4.3-1,5.7-3h-1c0,0-3.9-.4-3.9-.4-1.5-1-2.4-3.1-2.2-5.5.1-1.8.8-3,1.9-4Z"/>
            </g>
          </g>
          <path class="cls-17" d="M89.4,88.4s-4.4,1.2-5.1,6.9c-.3,6.7,1.7,9.3,3.4,9.4,1.1-.1.7-.5.7-.5l.9-15.8Z"/>
        </g>
        <g>
          <g>
            <path class="cls-20" d="M91.8,101.7c-1.6-.8-2.7-2.8-2.7-5.1,0-1.8.5-3,1.5-4.1.7-.8,1.6-.7,3.3-.7,1.3,0,1.7.3,2.6,0-1.2-2.1-3.2-3.4-5.4-3.3-2.3,0-4.2,1.5-5.4,3.7-.7,1.4-1.1,3-1.1,4.8,0,1.8.5,3.5,1.3,4.8,1.2,2.1,3.2,3.4,5.4,3.4,2.2,0,4.1-1.4,5.3-3.4h-1s-3.9,0-3.9,0Z"/>
            <path class="cls-17" d="M89.8,88.5s-1,2.4.6,4.1c0-.5-1-1.8-.6-4.1Z"/>
            <path class="cls-17" d="M85.7,92.2s-.9,4.2,3.5,6.5c-1-.2-4.4-1.8-3.5-6.5Z"/>
            <path class="cls-17" d="M85,99.6s1.9,3.7,6,3.6c-.3.3-4.2.6-6-3.6Z"/>
            <g class="cls-27">
              <path class="cls-20" d="M95.6,101.7h-3.9c-1.6-.8-2.7-2.8-2.7-5.1,0-1.8.5-3,1.5-4.1.7-.8,1.6-.7,3.3-.7,1.3,0,1.7.3,2.6,0-1.2-2.1-3.2-3.4-5.4-3.3-.3,0-.6,0-.9,0,0,.5-.2,1.1-.5,1.8-1.1,2.4-3.1,7.6-.5,12.1,1,1.6.6,2.1-.2,2.2.7.3,1.5.5,2.4.5,2.2,0,4.1-1.4,5.3-3.4h-1Z"/>
            </g>
          </g>
          <path class="cls-17" d="M93.5,88.6s-4.3,1.3-5,6.9c-.6,5.4,2.5,9.4,3.5,9.4,1.1-.1,1-.6,1-.6l.6-15.7Z"/>
        </g>
        <g>
          <g>
            <path class="cls-20" d="M95.7,101.8c-1.4-1.1-2.3-3.2-2.1-5.6.2-1.9.8-3.1,1.9-4.1.8-.7,1.7-.5,3.4-.3,1.3.1,1.7.5,2.5.3-1-2.3-2.8-3.9-5-4.1-2.2-.2-4.3,1.1-5.7,3.3-.9,1.3-1.4,3-1.6,4.8-.2,1.9.1,3.7.8,5.2,1,2.3,2.8,3.9,5,4.1,2.1.2,4.2-1,5.6-3h-.9c0-.1-3.8-.5-3.8-.5Z"/>
            <path class="cls-17" d="M90.4,91.5s-.6,5.2,3.4,7c-.7-.2-4.1-1.3-3.4-7Z"/>
            <path class="cls-17" d="M94.8,87.9s-.3,1.8,1.1,4.1c-.6-.2-2-2.2-1.1-4.1Z"/>
            <path class="cls-17" d="M89.8,100.8s1.1,2.3,5.7,2.7c-.7.2-4.5.3-5.7-2.7Z"/>
            <g class="cls-29">
              <path class="cls-20" d="M95.5,92c.8-.7,1.7-.5,3.4-.3,1.3.1,1.7.5,2.5.3-1-2.2-2.7-3.8-4.9-4.1,0,.4-.3,1-1,1.7-1.6,1.8-4.2,4.7-3,10.5.6,2.6-.3,3.4-1.3,3.4,1,1,2.2,1.7,3.5,1.8,2.1.2,4.2-1,5.6-3h-.9c0-.1-3.8-.5-3.8-.5-1.4-1.1-2.3-3.2-2.1-5.6.2-1.9.8-3.1,1.9-4.1Z"/>
            </g>
          </g>
          <path class="cls-17" d="M97.9,88.8s-4.3,1.3-5,6.9c-.6,5.4,1.8,9.3,3.5,9.4,1.1-.1.7-.6.7-.6l.8-15.8Z"/>
        </g>
        <g>
          <g>
            <path class="cls-20" d="M100.5,102.4c-1.6-1-2.6-3.1-2.5-5.5,0-1.9.7-3.2,1.8-4.2.8-.8,1.7-.6,3.5-.5,1.4,0,1.8.4,2.7.1-1.2-2.2-3.2-3.7-5.5-3.8-2.4,0-4.5,1.4-5.9,3.6-.8,1.4-1.3,3.1-1.4,4.9,0,1.9.3,3.7,1.1,5.1,1.2,2.2,3.2,3.8,5.5,3.8,2.3,0,4.3-1.2,5.7-3.3h-1s-4-.2-4-.2Z"/>
            <path class="cls-17" d="M99.8,88.5s-.8,2,.7,3.9c-.3,0-2.1-2-.7-3.9Z"/>
            <path class="cls-17" d="M95.4,91.3s-.7,4.7,3.9,7.6c-1-.4-4.8-2.5-3.9-7.6Z"/>
            <path class="cls-17" d="M93.5,100.3s1.9,3.9,7.5,3.5c-.6.6-5.6.7-7.5-3.5Z"/>
            <g class="cls-26">
              <path class="cls-20" d="M100.5,102.4c-1.6-1-2.6-3.1-2.5-5.5,0-1.9.7-3.2,1.8-4.2.8-.8,1.7-.6,3.5-.5,1.4,0,1.8.4,2.7.1-1-1.8-2.4-3.1-4.2-3.6-1.6.9-4.6,3.1-5.1,7.5-.5,4.5.4,7.3-.2,8.5,1,.8,2.1,1.2,3.4,1.3,2.3,0,4.3-1.2,5.7-3.3h-1s-4-.2-4-.2Z"/>
            </g>
          </g>
          <path class="cls-17" d="M102.6,89.3s-4.3,1.3-5,6.9c-.6,5.4,1.8,9.3,3.5,9.4,1.1-.1.7-.6.7-.6l.8-15.8Z"/>
        </g>
        <g>
          <g>
            <path class="cls-20" d="M105.2,102.6c-1.6-.9-2.7-2.9-2.7-5.2,0-1.8.5-3.1,1.6-4.2.8-.8,1.7-.7,3.4-.7,1.4,0,1.7.3,2.6,0-1.3-2.1-3.3-3.5-5.5-3.4-2.3,0-4.3,1.5-5.5,3.8-.7,1.4-1.2,3.1-1.1,4.8,0,1.8.5,3.5,1.3,4.9,1.3,2.1,3.3,3.5,5.5,3.4,2.2,0,4.2-1.4,5.4-3.5h-1s-3.9,0-3.9,0Z"/>
            <path class="cls-17" d="M99.6,91.9s-.6,5.1,3.8,7.6c-1-.2-4.5-2.1-3.8-7.6Z"/>
            <path class="cls-17" d="M98.2,100s1.2,3.4,6.5,4.2c-.2.5-5.4-.4-6.5-4.2Z"/>
            <g class="cls-29">
              <path class="cls-20" d="M109.1,102.5h-3.9c-1.6-.8-2.7-2.8-2.7-5.2,0-1.8.5-3.1,1.6-4.2.8-.8,1.7-.7,3.4-.7,1.4,0,1.7.3,2.6,0-1.2-2.1-3.2-3.4-5.4-3.4,0,.4-.1,1-.7,1.8-1.5,1.9-3.3,6.3-2.3,10.3.6,2.3.2,3.3-.7,3.5,1.1.9,2.4,1.4,3.8,1.4,2.2,0,4.2-1.4,5.4-3.5h-1Z"/>
            </g>
            <path class="cls-17" d="M103.3,89s-.3,3,1.1,4.8c-.3,0-2-2.1-1.1-4.8Z"/>
          </g>
          <path class="cls-17" d="M107,89.6s-4.3,1.3-5,6.9c-.6,5.4,1.8,9.3,3.5,9.4,1.1-.1.7-.6.7-.6l.8-15.8Z"/>
        </g>
        <g>
          <g>
            <path class="cls-20" d="M109.2,103.2c-1.5-1-2.5-3-2.4-5.4.1-1.8.7-3.1,1.8-4.1.8-.7,1.7-.6,3.4-.5,1.4,0,1.7.4,2.6.1-1.1-2.2-3-3.7-5.3-3.8-2.3-.1-4.4,1.3-5.8,3.4-.8,1.3-1.4,3-1.5,4.8-.1,1.8.3,3.6,1,5,1.1,2.2,3,3.7,5.3,3.8,2.2.1,4.2-1.1,5.6-3.1h-1c0,0-3.9-.3-3.9-.3Z"/>
            <path class="cls-17" d="M106.7,90.1s.6,3.2,3.8,4.4c-.7-.2-3.7-.9-3.8-4.4Z"/>
            <path class="cls-17" d="M103.7,93.1s-.7,4,4,7.1c-.6-.2-5-2.9-4-7.1Z"/>
            <path class="cls-17" d="M102.5,101s1.8,3.4,6.7,3.9c-.2.2-5.4-.1-6.7-3.9Z"/>
            <g class="cls-24">
              <path class="cls-20" d="M112.1,93.3c1.4,0,1.7.4,2.6.1-.9-1.8-2.4-3.1-4.1-3.6-1.2.6-4.1,2.8-5,8.5-.7,5.4,1.2,5.3.7,6.4-.1.3-.5.6-.8.7.9.6,1.9,1,3,1.1,2.2.1,4.2-1.1,5.6-3.1h-1c0,0-3.9-.3-3.9-.3-1.5-1-2.5-3-2.4-5.4.1-1.8.7-3.1,1.8-4.1.8-.7,1.7-.6,3.4-.5Z"/>
            </g>
          </g>
          <path class="cls-17" d="M111.4,89.9s-4.3,1.3-4.9,7.1c-.6,5.6,1.7,9.5,3.4,9.6,1.1-.1.7-.6.7-.6l.8-16.1Z"/>
        </g>
        <g>
          <g>
            <path class="cls-20" d="M114.1,103.7c-1.6-.9-2.7-3-2.6-5.4,0-1.9.6-3.1,1.7-4.2.8-.8,1.7-.6,3.5-.6,1.4,0,1.8.3,2.7,0-1.2-2.2-3.2-3.6-5.5-3.6-2.3,0-4.4,1.5-5.7,3.7-.8,1.4-1.3,3.1-1.3,4.9,0,1.9.4,3.6,1.2,5,1.2,2.2,3.2,3.6,5.5,3.6,2.2,0,4.2-1.3,5.5-3.4h-1s-4-.1-4-.1Z"/>
            <path class="cls-17" d="M108.3,93.3s-.8,6.3,4.1,8.8c-1,0-5.4-2.9-4.1-8.8Z"/>
            <path class="cls-17" d="M107.8,102.7s2.4,3.3,6.9,2.7c0,.4-5,.9-6.9-2.7Z"/>
            <g class="cls-30">
              <path class="cls-20" d="M114.1,103.7c-1.6-.9-2.7-3-2.6-5.4,0-1.9.6-3.1,1.7-4.2.8-.8,1.7-.6,3.5-.6,1.4,0,1.8.3,2.7,0-1.2-2.2-3.2-3.6-5.5-3.6,0,0-.2,0-.3,0-1.7,1.6-4.8,5.7-2.9,12.3.7,2.4,1.1,3.8,1.1,4.6.6.2,1.2.3,1.8.3,2.2,0,4.2-1.3,5.5-3.4h-1s-4-.1-4-.1Z"/>
            </g>
            <path class="cls-17" d="M112.4,90.1s-.6,2.2.8,4.3c0,0-2-1.9-.8-4.3Z"/>
          </g>
          <path class="cls-17" d="M115.3,90.2s-4.2,1.6-4.4,7.4c-.2,5.6,2.4,9.3,4.1,9.3,1.1-.2.7-.6.7-.6l-.4-16.1Z"/>
        </g>
        <g>
          <g>
            <path class="cls-20" d="M118.6,103.6c-1.6-1-2.7-3.2-2.5-5.7.1-1.9.8-3.2,1.9-4.3.9-.8,1.8-.6,3.6-.5,1.4,0,1.8.4,2.8.2-1.2-2.3-3.2-3.9-5.5-4-2.4-.1-4.7,1.3-6.1,3.6-.9,1.4-1.4,3.1-1.5,5-.1,1.9.3,3.8,1,5.3,1.2,2.3,3.2,3.9,5.6,4,2.3.1,4.5-1.2,5.9-3.3h-1c0,0-4.1-.3-4.1-.3Z"/>
            <path class="cls-17" d="M112,94.6s-.5,5.3,4.8,8.6c-.5.2-5.3-2.4-4.8-8.6Z"/>
            <path class="cls-17" d="M116.2,89.8s-.8,4.3,1.9,6c-.2-.1-3.3-1.9-1.9-6Z"/>
            <g class="cls-23">
              <path class="cls-20" d="M121.7,93.1c1.4,0,1.8.4,2.8.2-1-1.9-2.6-3.3-4.4-3.8-1.9,1-5.3,3.6-5.2,8.8.1,5.4.2,6.9-.4,7.5,1,.8,2.2,1.3,3.5,1.4,2.3.1,4.5-1.2,5.9-3.3h-1c0,0-4.1-.3-4.1-.3-1.6-1-2.7-3.2-2.5-5.7.1-1.9.8-3.2,1.9-4.3.9-.8,1.8-.6,3.6-.5Z"/>
            </g>
          </g>
          <path class="cls-17" d="M119,107s-4.6-3.7-3.8-9.2c.5-3.5,1.9-7.3,5.8-8-.5.3-.6,1.1-.6,1.1,0,0-3.7,3.3-3.7,5.9,0,2.6,2.5,7.8,2.5,7.8l.3.4,1,1.4s-1,.6-1.6.5Z"/>
        </g>
        <g>
          <g>
            <path class="cls-20" d="M123,103.8c-1.7-1-2.7-3.2-2.6-5.7.1-1.9.8-3.2,2-4.3.9-.8,1.9-.6,3.8-.5,1.5,0,1.9.4,2.9.2-1.2-2.3-3.3-3.9-5.7-4-2.5-.1-4.8,1.3-6.3,3.6-.9,1.4-1.5,3.1-1.6,5-.1,1.9.3,3.8,1.1,5.3,1.2,2.3,3.3,3.9,5.7,4,2.4.1,4.6-1.2,6.1-3.3h-1.1c0,0-4.3-.3-4.3-.3Z"/>
            <path class="cls-17" d="M120.3,90.1s-1.1,5.4,1.7,9c-.7-.5-3.4-4-1.7-9Z"/>
            <path class="cls-17" d="M116.5,93.9s-.9,7.4,5.5,10.5c0,0-6.4-1.6-5.5-10.5Z"/>
            <g class="cls-24">
              <path class="cls-20" d="M122.4,93.8c.9-.8,1.9-.6,3.8-.5,1.5,0,1.9.4,2.9.2-1.2-2.3-3.3-3.9-5.7-4-.1,0-.3,0-.4,0-.1.6-.4,1.2-.9,2-1.4,1.9-3.6,5.9-3.1,9.6.3,2.8.8,4.7-.3,4.8,1.1.9,2.3,1.4,3.7,1.5,2.4.1,4.6-1.2,6.1-3.3h-1.1c0,0-4.3-.3-4.3-.3-1.7-1-2.7-3.2-2.6-5.7.1-1.9.8-3.2,2-4.3Z"/>
            </g>
          </g>
          <path class="cls-17" d="M123.3,107.2s-4.7-2.6-3.5-8.7c.5-3.5,2.3-7.5,6.2-8.2-.5.3-.6,1.1-.6,1.1,0,0-3.7,3.3-3.7,5.9,0,2.6,2.5,7.8,2.5,7.8l.3.4v1.3c.1,0-.7.4-1.3.3Z"/>
        </g>
        <g>
          <g>
            <path class="cls-20" d="M127.4,104.3c-1.6-1.1-2.6-3.3-2.3-5.8.2-1.9,1-3.2,2.2-4.2.9-.7,1.9-.5,3.8-.3,1.5.2,1.8.5,2.8.3-1.1-2.4-3.1-4-5.5-4.2-2.5-.2-4.9,1.1-6.5,3.3-1,1.4-1.6,3-1.8,4.9-.2,1.9.1,3.8.8,5.3,1.1,2.4,3.1,4.1,5.5,4.3,2.4.2,4.7-1,6.2-3h-1.1c0-.1-4.2-.6-4.2-.6Z"/>
            <path class="cls-17" d="M126.6,90.2s-.8,2,.2,4.6c-.5-.1-1.4-3.3-.2-4.6Z"/>
            <path class="cls-17" d="M122.2,93.3s-.7,5.3,3.9,7.6c-.8,0-4.9-2.2-3.9-7.6Z"/>
            <path class="cls-17" d="M120.2,99.9s1.5,6.3,7.7,6.5c-.9.2-6.1.3-7.7-6.5Z"/>
            <g class="cls-24">
              <path class="cls-20" d="M127.3,94.3c.9-.7,1.9-.5,3.8-.3,1.5.2,1.8.5,2.8.3-.9-2-2.6-3.6-4.6-4.1-1.8.9-4.7,2.8-5.7,6-1.6,4.9,1,6.9.8,8.8-.1.9-.9,1.2-1.7,1.1,1,1,2.3,1.6,3.7,1.8,2.4.2,4.7-1,6.2-3h-1.1c0-.1-4.2-.6-4.2-.6-1.6-1.1-2.6-3.3-2.3-5.8.2-1.9,1-3.2,2.2-4.2Z"/>
            </g>
          </g>
          <path class="cls-17" d="M127.7,107.7s-4.1-4-3.4-8.7c.5-3.7,2.2-7.5,6.3-8.3-.5.3-.6,1.2-.6,1.2,0,0-3.9,3.6-3.8,6.3.1,2.7,2.9,8.2,2.9,8.2l.3.4-.2.4s-.9.6-1.5.5Z"/>
        </g>
        <g>
          <g>
            <path class="cls-20" d="M132.5,104.6c-1.7-.9-2.9-3.1-2.8-5.5,0-1.9.7-3.2,1.8-4.3.9-.8,1.8-.7,3.7-.6,1.5,0,1.9.3,2.9,0-1.3-2.2-3.4-3.7-5.9-3.7-2.5,0-4.8,1.5-6.1,3.9-.8,1.4-1.3,3.2-1.4,5,0,1.9.5,3.7,1.3,5.2,1.3,2.3,3.5,3.7,5.9,3.7,2.4,0,4.6-1.4,5.9-3.6h-1.1s-4.3,0-4.3,0Z"/>
            <path class="cls-17" d="M126.1,94.3s-.2,5.6,4.6,7.1c-.8,0-5.2-1.5-4.6-7.1Z"/>
            <path class="cls-17" d="M125.1,101.9s2.9,5.3,8.2,4.9c-1.9.5-5.6.4-8.2-4.9Z"/>
            <g class="cls-22">
              <path class="cls-20" d="M132.5,104.6c-1.7-.9-2.9-3.1-2.8-5.5,0-1.9.7-3.2,1.8-4.3.9-.8,1.8-.7,3.7-.6,1.5,0,1.9.3,2.9,0-1-1.6-2.4-2.8-4-3.4-1.5.5-4.1,2.2-5.4,5.9-2.2,6.1-.3,6.3.7,8.6.8,1.7-.8,1.8-2.4.6,1.3,1.5,3,2.5,5,2.5,2.4,0,4.6-1.4,5.9-3.6h-1.1s-4.3,0-4.3,0Z"/>
            </g>
            <path class="cls-17" d="M130.6,90.8s-.4,2.9,1.4,5c-.6,0-2.4-2.4-1.4-5Z"/>
          </g>
          <path class="cls-17" d="M132.3,108.2s-4.2-2.9-3.4-8.7c.5-3.7,2.2-7.5,6.3-8.3-.5.3-.6,1.2-.6,1.2,0,0-3.9,3.6-3.8,6.3.1,2.7,2.9,8.2,2.9,8.2l.3.4-.2.4s-.9.6-1.5.5Z"/>
        </g>
        <g>
          <g>
            <path class="cls-20" d="M135.9,105c-1.5-1.1-2.3-3.2-2.1-5.6.2-1.9.8-3.1,1.9-4.1.8-.7,1.7-.5,3.4-.3,1.3.1,1.7.5,2.5.3-1-2.3-2.8-3.9-5-4.1-2.2-.2-4.3,1.1-5.7,3.3-.9,1.3-1.4,3-1.6,4.8-.2,1.9.1,3.7.8,5.2,1,2.3,2.8,3.9,5,4.1,2.1.2,4.2-1,5.6-3h-.9c0-.1-3.8-.5-3.8-.5Z"/>
            <path class="cls-17" d="M130.3,96s0,4.1,3.7,5.3c-.6.3-3.7-3-3.7-5.3Z"/>
            <path class="cls-17" d="M129.7,102.2s1.7,3.5,5.7,3.9c-1.6.2-4.9-.8-5.7-3.9Z"/>
            <path class="cls-17" d="M134.9,91.5s-1.5,2.3-.3,6.1c0,0-2.1-3.3.3-6.1Z"/>
            <g class="cls-28">
              <path class="cls-20" d="M135.7,95.3c.8-.7,1.7-.5,3.4-.3,1.3.1,1.7.5,2.5.3-.8-1.8-2-3.1-3.6-3.7-1.9.9-5.9,4-6.1,8.3-.3,6.2.9,6.2,1,7.1,0,.4.9,1,.6,1.2.5.2,1,.4,1.6.4,2.1.2,4.2-1,5.6-3h-.9c0-.1-3.8-.5-3.8-.5-1.5-1.1-2.3-3.2-2.1-5.6.2-1.9.8-3.1,1.9-4.1Z"/>
            </g>
          </g>
          <path class="cls-17" d="M136.1,108.5s-3.6-4.6-2.7-8.5c.5-3.6,2-7.1,5.7-7.9-.5.3-.6,1.2-.6,1.2,0,0-4,3.4-3.9,6,.1,2.6,3,7.8,3,7.8l.3.4-.3.4s-1,.6-1.6.5Z"/>
        </g>
        <g>
          <path class="cls-20" d="M139.9,105.2c-1.4-1-2.2-2.9-2-5.1.2-1.7.8-2.8,1.8-3.7.8-.7,1.6-.5,3.2-.3,1.3.1,1.6.4,2.4.2-.9-2.1-2.6-3.5-4.7-3.7-2.1-.2-4.1,1-5.4,3-.8,1.2-1.4,2.7-1.5,4.4-.2,1.7.1,3.3.7,4.7.9,2.1,2.6,3.6,4.7,3.7,2,.2,3.9-.9,5.2-2.7h-.9c0,0-3.6-.5-3.6-.5Z"/>
          <path class="cls-17" d="M141.4,92.8s-3.3.9-3.2,5.6c0,0,0-3.2,3.2-5.6Z"/>
          <path class="cls-17" d="M136.2,94.6s-1.8,4,1.8,7c-.8,0-4.1-2.4-1.8-7Z"/>
          <path class="cls-17" d="M133.9,102.9s2.4,2.8,7.3,2.4c-.4.1-5.8,1.1-7.3-2.4Z"/>
          <g class="cls-26">
            <path class="cls-20" d="M137.5,97.6c-1.5,2.8-1.5,4.6-.2,6.8.9,1.5.5,2.6-.5,3.1.7.5,1.5.8,2.3.8,2,.2,3.9-.9,5.2-2.7h-.9c0,0-3.6-.5-3.6-.5-1.4-1-2.2-2.9-2-5.1.2-1.7.8-2.8,1.8-3.7.8-.7,1.6-.5,3.2-.3,1.3.1,1.6.4,2.4.2-.2-.4-.4-.8-.6-1.1-.4,0-.8,0-1.4-.2-3-.6-4.3-.2-5.8,2.7Z"/>
          </g>
        </g>
      </g>
      <polygon class="cls-19" points="183.8 63.3 172.2 66.1 165.4 67.8 168.8 168.1 175.5 172.9 186.9 169 183.8 63.3"/>
      <polygon class="cls-2" points="165.4 67.8 168.8 168.1 175.5 172.9 172.2 66.1 165.4 67.8"/>
      <polygon class="cls-2" points="183.8 63.3 172.2 66.1 175.5 172.9 186.9 169 183.8 63.3"/>
      <path class="cls-18" d="M172.2,66.1l.8,27.2c.6-6.3,1.1-10.1,1.1-10.1,0,0,1.4-12.7,5.2-13.7,3.9-1,3.4,8,3,14.2-.3,6.3.8,11.3-.5,13.2-1.4,1.9-4.7,2.5-5.2,6.9-.5,4.4-.4,5.6,1.6,6.8,2,1.2,4.6,5.8,5.9,25.5.5,8,1.1,13.6,2.1,17.1l-2.6-90-11.6,2.9Z"/>
      <path class="cls-18" d="M172.2,66.1l-6.9,1.7,3.4,100.3,6.8,4.7-3.3-106.7ZM171.6,142.6c-.8,13.4-1.4,14-1.5,12.5-.2-1.5-.8-27.9-1-33.5-.2-5.6-2.2-35.5-2-40.4,0,0-2-7.8.8-9,2.9-1.2,3.4,17.1,3.3,26.7,0,9.6,1.3,30.3.4,43.6Z"/>
      <path class="cls-12" d="M179.8,100.1s-2.5.5-2.7,4.2c-.1,2.5-.2,5.9,2.1,6.3,2.3.3,5.8.5,5.8.5l-.9-5.9s-2.9-5.9-4.3-5.1Z"/>
      <polygon class="cls-18" points="141.8 74.6 141.4 75.5 4.5 59.9 .5 61.4 1.5 65 143.7 80 142.4 75.8 141.8 74.6"/>
      <polygon class="cls-2" points="214.1 57 213.4 59.4 146.6 73.7 167.9 8.3 174.9 6.3 214.1 57"/>
      <polygon class="cls-18" points="153.1 58.6 204 47.7 205.1 49.1 152.7 60.2 153.1 58.6"/>
      <polygon class="cls-12" points="160.5 42.1 195 35.5 196.1 36.7 160.1 43.9 161 42.2 160.5 42.1"/>
      <polygon class="cls-12" points="168.9 25 184.6 21.7 185.5 23.2 168 27.1 168.9 25 168.9 25"/>
      <path class="cls-6" d="M206.4,49.8s-9.1,2.5-13.5,3.7c-4.5,1.3-7.2,2.5-10.9,3.3-3.7.8-15.3,4.5-15.9,4.7-.6.2,14.3-3.6,18.3-4.9,4-1.4,20.9-6.3,22.1-6.8Z"/>
      <path class="cls-6" d="M155.4,54.6s2.7-.5,6.2-1.4c3.5-.8,9.6-1.9,14.3-2.5,4.7-.5,9.2-1.4,14.3-2.6,5.1-1.3,13-2.3,13-2.3,0,0-22.4,4.7-27.3,5.2-6.3,1.3-9.1,1.2-20.5,3.5Z"/>
      <path class="cls-6" d="M156.8,51.3c-.9,0,10.4-.8,12.8-1.4,2.4-.5,7.4-2.6,9.1-2.8,1.8-.2,20.5-6.2,20.5-6.2,0,0-12.8,3.6-16.6,4.9-3.8,1.3-12.4,3.6-14.4,3.9-1.9.3-10.2,1.4-11.4,1.5Z"/>
      <path class="cls-6" d="M166.2,29.7c-.5,0,6.7-.4,9.5-1.2,2.8-.8,5-1.3,6.4-1.4,1.4,0,6.1-1.3,6.1-1.3,0,0-6.1,1.5-8.3,1.9-2.2.4-8.7,2.5-13.7,1.9Z"/>
      <path class="cls-6" d="M162.4,39.5s8.5-1.6,12.8-1.8c4.3-.2,8.3-1.8,11-2.2,2.7-.4,8.3-2.5,7.5-2.3-.8.3-8.8,2.5-10.8,2.7-2,.3-9.2,1.8-10.8,1.8s-9.6,1.8-9.6,1.8Z"/>
      <path class="cls-6" d="M151.9,61.7s3.4-.2,4.9-.2h5.2c3.9,0,4.6.5,2.5,1.7-2,1.2-7.8,4.3-9.2,4.9-1.4.6-3.2,1.2-4.1,1.8-.9.6-4.3,1-4.3,1,0,0,2.6,0,5.3-1.2,2.7-1.2,12.3-5.1,13.9-7.4.8-1.6.5-.9-1.4-.9s-12,0-12.9.3Z"/>
      <path class="cls-6" d="M151.6,63.4s2.3,0,3.7,0c1.4,0,2.2.2,3.9.2s-1.4,1.5-2.6,1.9c-1.2.4-4.1.2-5.2.9-1.2.8-2,.8-2,.8,0,0,1-1.1,2.2-1.4,1.2-.3,4-.5,5.5-1.1,1.5-.6,1.6-.9,1.6-.9,0,0-6-.4-7-.4Z"/>
      <path class="cls-18" d="M208.9,52.6s-8.9,1.3-12.1,2.7c-3.2,1.4-13,5.1-17.3,6.9-4.2,1.9-13.3,4.5-17,5.2-3.7.8-15.2,4.3-15.2,4.3,0,0,16.3-4.1,23-6.1,6.7-1.9,25.3-9.9,28-10.7,2.7-.8,10.6-2.5,10.6-2.5Z"/>
      <path class="cls-18" d="M174.9,6.3l-6.9,2-21.3,65.4,66.8-14.3.7-2.4L174.9,6.3ZM173.3,19.3c2.3-2.7,2.4-3.6,3.2-5.8.8-2.1,1.5,1.6,1.6,3,.1,1.5,2,1.7,3.5,2.7,1.5,1,1.8,1.6.8,1.8-1,.2-7.9,1.7-9.4,2,0,0,7.6-3.4,4.2-3.2-3.4.2-6.1,2-3.8-.7ZM172.4,25.3c2.7-.6,8.9-2.3,11.2-2.7,2.3-.5,1.4,1.8.7,2.6-.7.8-2.5,1.4-5.9,2.4-3.4,1-9.1,1.4-9.1,1.4,0,0,2-.7,6.2-1.5,4.2-.8,6.2-1.9-2-1-8.2.9-3.7-.6-1-1.1ZM172.8,34.9c3.6-.9.5-1.2-4.1-1.1-4.5.1-1.7-3.2-1.2-3.3.5-.1,8.3-1,11.8-1.8,3.5-.8,5-.9,2.7.5-2.3,1.4-5,2.7-6.1,3.4-1.1.7,2.4-.3,9.6-1.2,7.2-.9,5.4,1.2,2.7,2-2.7.8-8.6,3.2-13.9,3.6-5.3.5-9.5,1-9.5,1-2.7.4,4.3-2.1,7.9-3ZM160.4,46.3c.2-.9,1.9-2.7,2.3-3.3.3-.6-2.6-.3-1.7-.8,0,0,22.8-4.2,25.6-4.6,2.8-.5,8-1.4,8.5-1.4s2.6.5-2.5,3.4c-5.1,2.9-16,6.8-19.1,7.9-3,1.1-7.3,2.3-10.9,1.7-3.6-.6-2.4-2-2.1-2.9ZM157.9,51.8s10.4-.6,12.6-1.6c2.3-1,20.5-6.7,23.8-7.3,3.3-.7,4.7-.2,5.4.3.7.6,0,2.8-6.1,3.7-6.1.9-15.8,2.4-18.5,3.4-2.7,1-17.9,3.3-17.3,1.5ZM156.5,56c1.8-.3,10-3.3,15.2-3.7,5.2-.4,20.4-4.2,23.8-4.3,3.4-.1-8.5,2.9-13.9,4.1-5.4,1.1-24.5,5.3-25.5,5-1-.3.3-1,.3-1ZM204.3,47.9c-.3.2-.2,1.8-2.7,2.8-2.5,1-26.5,7.8-29.2,8.5-2.7.7-5.5,1.8-6.7,1.8s-4.4,0-7.8-.1c-3.4-.1-4.2-2.1-4.2-2.1,9.8-.6,46.5-10.6,50.5-10.8ZM207.1,60.2c-1.6.2-40.3,9.4-44.5,9.7-4.3.3-10.8,2-12.4,2s6.3-3.3,6.3-3.3c0,0,9.6-5.5,10.3-6.5.7-1,7.8-2.4,8.3-2.5.6-.1,25.3-8,28.6-8.2,3.4-.2,5.1.7,1.6,1.2-3.5.6-13.5,4.4-17.7,6.3-4.2,1.9-8.1,3.3-12.4,4.8-4.3,1.6.3.1,3-.7,2.7-.8,22.8-8.8,26.5-9,3.7-.2,4.1.8,5.4,2.1,1.4,1.4-1.5,3.7-3,3.9Z"/>
      <path class="cls-9" d="M174.9,6.3l-6.9,2-21.3,65.4,66.8-14.3.7-2.4L174.9,6.3ZM180.4,65.6c-5.5.6-29.8,7.8-28,5.3,1.8-2.5,6-3.9,9.9-6.4,3.9-2.5,3.2-2.4-2.9-2.8-6.1-.5-3.7-2.3-2-8.2,1.7-6,16.9-35.4,16.9-35.4,1.4-1.2,1.7-4.8,3-2.9,1.4,1.9,3.6,3.8,4.5,5.3.9,1.5,2.7,3.4,2.8,4.7.1,1.4-5.3,2.5-1.6,2.6,3.7.1,10,9,11.5,10.8,1.9,2.4,3.4,5.1,5.3,7.5,3.3,4.1,4.8,4.2,1.9,9.2-.9,1.6-1.9,1.7-2.9,3.2-3.7,5.2-13.2,6.7-18.5,7.2Z"/>
      <path class="cls-2" d="M142.4,75.8l-.6-1.2-.4.9L4.5,59.9l-4.1,1.5,1,3.6,142.3,15.1-1.4-4.2ZM5.1,64.2s30.9,2,62.9,5.6c32,3.6,65.6,6.1,69.5,7.9.5,1.6-131.7-12.6-132.4-13.5Z"/>
      <polygon class="cls-16" points="176.1 7.9 175.6 10.2 213.4 59.4 215.6 58.9 215.6 58.9 176.1 7.9"/>
      <polygon class="cls-20" points="175.5 4.6 167.9 6.3 173.7 7.8 175.6 10.2 176.1 7.9 215.6 58.9 215.6 58.9 218 58.4 175.5 4.6"/>
      <polygon class="cls-20" points="175.5 4.6 141.8 74.6 142.4 75.8 143.7 80 175.5 10.3 175.5 4.6"/>
      <g>
        <path class="cls-13" d="M40.4,0l-4.8,7.4h0l-11.1,16.9v.2c-.1,0-14.1,21.6-14.1,21.6.6,0-.9.1-.1.2L.5,61.4l141.9,14.4,8.8-19,9.8-21.1,9.9-21.3,4.6-9.9L40.4,0Z"/>
        <path class="cls-2" d="M10.4,46.1c18.5,1.4,122.4,9.3,140.8,10.7l9.8-21.1L24.6,24.3l-14.2,21.8Z"/>
        <path class="cls-2" d="M.5,61.4l141.9,14.4,8.8-19c-18.4-1.4-122.3-9.3-140.8-10.7L.5,61.4Z"/>
        <polygon class="cls-2" points="35.6 7.3 24.5 24.3 161 35.7 170.9 14.4 35.6 7.3"/>
        <polygon class="cls-16" points="175.5 4.6 40.4 0 35.6 7.4 170.9 14.4 175.5 4.6"/>
        <g>
          <path class="cls-12" d="M165.2,23.4s-6.2.3-9.2.1c-3-.2-2.6-.3-6.4-.5-3.8-.1-6.8-.5-9,.1-2.3.6.8,1.1,2.9,1.9,2.1.8,7.3,2.8,10.1,3,2.8.2,9.7,3,9.7,3,0,0-9.4-2.8-12.7-3.4-3.4-.6-11.5-3.3-11.4-4.3.1-1,9.4-.7,12.1-.7s14,.6,14,.6Z"/>
          <path class="cls-14" d="M70.2,28.5s9,1.9,11.6,2.9c2.5.9,11.6,2.4,17.8,3.6,6.3,1.3,15.6,1.4,20.1,1.9,4.6.4,10.4-1.1,12.4-1.1s9-1.4,9-1.4h1s-5.3,1.4-7.9,1.5c-2.5.2-8.6,1.1-10.1,1.3-1.5.2-15.6-.7-18.9-.9-3.3-.3-16.2-2.6-18.9-3.4-2.8-.8-15-4.1-16.2-4.3Z"/>
        </g>
        <path class="cls-12" d="M150,59.2s-50.2-4.3-55.2-4.3-32.7-2.9-40.7-2.9-21.1,1.9-8.1,5.6c13,3.7,51.6,11.5,62.4,12.9,10.8,1.4,28.8,3.3,33.8,3.3,0,0-21.3-1.3-35.7-3.3-14.4-1.9-63.5-11.5-66-14.8-1.1-2.6,5.2-4.1,9-4.2,3.8,0,40.8,2.3,43.4,2.6,2.7.4,54.3,4.1,57,5.1Z"/>
        <path class="cls-12" d="M35.6,7.3l-11.1,16.9,136.5,11.4,9.9-21.3L35.6,7.3ZM149,17.4c-13.5.3-7.9,1.9-20,1.7-12-.2-8.1,3.4-.2,5.2,8,1.9,7.1.7,16.2,3.7,9.1,3,.5,4.1-7.8,2.9-8.3-1.2-39.8-3-47.4-3.6-7.6-.5-33.7-2.5-46-3.6-12.4-1-9-2.9-3.7-3.2,5.2-.3,32.1,2.7,38.1,2.7s6.6.8,15.4.3c7.4-.4,11-1.2,14.5-1.4-3.2,0-8.1,0-11.1,0-5.6,0-23.9-.5-26.4-.5s-8.6.2-20.1-1.4c-11.5-1.5-14.7-7.4-7.6-7.8,7.1-.3,25.4,1.4,29.9,1.9,4.6.5,14,1,18.4,1.5,4.4.5,20.1,2.9,22.3,2.4,2.2-.5-11-1.9-17.8-2.5-6.8-.7-35.7-3.7-43.3-4.1-7.6-.3-18.9-2-6.9-2.4,0,0,29.4,1.2,37.7,2.2,8.3,1,30.5,3.4,48,3.9,17.6.5,31.1,1.5,17.6,1.9Z"/>
        <path class="cls-18" d="M10.4,46.1L.5,61.4l141.9,14.4,8.8-19c-18.4-1.4-122.3-9.3-140.8-10.7ZM129.5,57.7c-1.5.3-10-.3-19.5-.5-9.5-.2-36,0-38.6.5-2.5.5,27.4,2.2,32.1,3.6,4.7,1.4-5.4.2-13.7-.3-8.3-.5-1.4,3,10,5.4,11.3,2.4,20.5,1.7,27.2,3.7,6.8,2-13.2-.8-24-1.9-10.8-1-59.2-5.8-70.2-6.6-11-.8-12-.2-20.3-1.4-8.3-1.2,5.4-.2,9.6-.2s8.8.3,14.2.3,7.4-3,4-4.8c-3.4-1.8-10.1-3.7-13.3-4.3-3.2-.7-8.3-1.7-9.8-2.2-1.5-.5-5.4-1.5-5.4-1.5,0,0,12.3,1.4,16.2,2.8,3.8,1.4,8.9,2.3,12.3,2.5,3.4.3,14.7-1.6,18.6-1.3,3.9.3,47,4.1,51.8,4.4,4.7.3,14.4.8,22.2,1.2,7.8.3,15.4,1.4,16.2,1.5.8.2-18.1-1.4-19.6-1Z"/>
        <path class="cls-12" d="M24.6,24.3l-14.2,21.8c18.5,1.4,122.4,9.3,140.8,10.7l9.8-21.1L24.6,24.3ZM145.8,47.5c-10.8,0-38.1-4.1-46-3.9-8,.2-25.2-.7-27.4-.8-2.2-.2,23,2.4,32.3,2.7,9.3.3,29.6,3.4,33.7,3.9,4.1.5,5.6,3.4-.3,3.7-5.9.3-37.4-.3-49.6-1.2-12.2-.8-33.2-4.6-41.4-4.6s-16.4-.2-22-1.2c-5.6-1-10-2.5-10-2.5,0,0,2.5-3.2,10.1-2.9,7.6.3,20.5.8,26.2,1.4,5.8.5,2.2-.8-2.2-1.2-4.4-.3-14.4-.5-20-1.2-5.6-.7-8-4.2-7.1-5.6.8-1.4,2.2-1.2,10.3-.8,8.1.3,15.6.3,15.6.3,0,0-5.6-1.2-13.7-2.2-8.1-1-12.5-5.4-9.1-6.1,0,0,31.5,2,40.3,4.4,8.8,2.4,22.7,6.6,32,6.9,9.3.3,19.1,1.9,27.9,1.4,8.8-.5,13.4-1.9,15.7-2,2.4-.2,9,1,12.3,1s3.2,10.5-7.6,10.5Z"/>
        <path class="cls-18" d="M40.4,0l-4.8,7.4,135.4,7.1,4.6-9.9L40.4,0ZM169.1,12.7c-1.5.3-69-3-88.5-4.6-19.5-1.5-42.6-4.6-37-4.6s14.9,0,9.3-.5c-5.6-.5-7.3-2.5-4.6-2.5,0,0,92.5,3.9,104.7,4.4,12.2.5,14.7,2,11.2,2.9-3.6.8-32.6-.3-36.2.2-3.6.5-30.3-.3-32.5-.3s-20.1-1.4-24.7-1.7c-4.6-.3,26.4,2.5,33.8,2.7,7.4.2,36.5.5,40.3.5s17.6.3,21.8.2c4.2-.2,3.9,3,2.4,3.4Z"/>
        <path class="cls-2" d="M64.6,27.9s14.5,3.9,18.9,5.6c4.4,1.7,21.3,3.2,27.9,3.6,6.6.3,11.7,0,15.6-.2,3.9-.2,7.4-1,9.5-1.2,2-.2,6.6-.3,7.1-.5l.5-.2s-17.9-1.7-24.5-1.7-53.8-5.1-55-5.4Z"/>
        <path class="cls-20" d="M9.8,49.1s5.9.8,8.8,1.5c2.9.7,4.1.3,8,1.9,3.9,1.5,3.9,2.4,7.4,3,3.6.7,2,.5-4.2,1-6.3.5-8.3,1.5-13.4,1.5s-4.9.7-8.8.7H2.1l7.6-9.6Z"/>
        <path class="cls-9" d="M150.9,57.3s-7.9-.3-11.2,0c-3.4.3-7.3.5-13,.7-5.8.2-3.9,1.9,1.2,2.7,5.1.8,12.2,3.6,13.4,3.7,1.2.2,5.7,1.7,5.7,1.7l4-8.8Z"/>
        <path class="cls-16" d="M161,35.7L24.6,24.3l-1.1,1.7c16.6,1.5,108.4,9.7,136.3,12.4l1.2-2.6Z"/>
        <path class="cls-16" d="M171.1,14.5L36.3,6.7l-1.1,1.7c16.6,1.5,106.7,6.2,134.6,8.9l1.4-2.7Z"/>
        <path class="cls-16" d="M150.9,57.7L10.9,45.4l-1.1,1.8c17,1.6,111.2,10.4,139.8,13.3l1.3-2.8Z"/>
      </g>
      <path class="cls-21" d="M35.6,267.6c0,.3-.1.5-.1.7,0-.2.2-.3.3-.5.2-.2,0-.3-.1-.2Z"/>
      <path class="cls-21" d="M44.4,265.9c.2,0,.3.1.4.2,0,0-.2-.1-.4-.2Z"/>
      <path class="cls-21" d="M23.2,268.8c0,0,0-.1,0-.2,0,0,0-.2,0-.3-.2-.2-.1.1-.1.5Z"/>
      <path class="cls-21" d="M202,279.1c-.2,0-.3.1-.4.2,0,0,.2-.1.4-.2Z"/>
      <path class="cls-21" d="M187.5,276.3c0,0,0-.1,0-.2,0,0,0-.2,0-.3.2-.2.1.1.1.5Z"/>
      <path class="cls-21" d="M189,275.9s0,0-.1-.1c0,0,0,0,0,0,.1-.1.1,0,.1.2Z"/>
      <path class="cls-1" d="M180.5,100.8c-1.3-.2-2.7,1.9-3,4.7-.3,2.7.5,5.1,1.8,5.3l16.4,2.3,1.1-8.7-16.2-3.5Z"/>
      <path class="cls-20" d="M180.3,100.8c-1.2.1-2.4,2.1-2.8,4.7-.3,2.7.5,5.1,1.8,5.3l16.4,2.3,1.1-8.7-16.5-3.5Z"/>
      <path class="cls-18" d="M188.4,109.9c-1.6,1.8-4.7.3-9-1-1-.3-1.6-.9-2-1.6.1,1.9.8,3.3,1.8,3.4l16.4,2.3,1.1-8.7-2.9-.6c-2.7,1.1-4,4.7-5.4,6.2Z"/>
      <path class="cls-16" d="M190.7,110.1l.5,20.9s.3,3.4,4.4,2.6c3.7-.7,2.2-9.7,2.2-9.7l.3-16.4s0-3.3-3.7-3.3c-2.9.1-3.8,4-3.7,5.9Z"/>
      <path class="cls-20" d="M191.6,110.2l.5,20.9s.3,3.4,4.4,2.6c3.7-.7,2.2-9.7,2.2-9.7l.3-16.4s0-3.3-3.7-3.3c-2.9.1-3.8,4-3.7,5.9Z"/>
      <path class="cls-15" d="M199,107.6s0-3.3-3.7-3.3c-2.9.1-3.8,4-3.7,5.9v1.2c1.1-3.7,2.3-5.5,5-4.8,4.1,1,1.2,14.7.8,15.7-.5,1-3,1.1-3.9,5-.6,2.7.2,5.2.7,6.5.6.2,1.4.3,2.4,0,3.7-.7,2.2-9.7,2.2-9.7l.3-16.4Z"/>
      <path class="cls-11" d="M197.4,123.8s-2-.9-3.3,2.8c-1.3,3.7.5,7.3,2,7.1,1.5-.2,1.3-9.9,1.3-9.9Z"/>
      <path class="cls-20" d="M197.4,123.8c-1.3-.2-2.7,1.9-3,4.7-.4,2.7.4,5.1,1.8,5.3l21.7,3.1,1.1-8.7-21.5-4.4Z"/>
      <path class="cls-7" d="M215.2,132.1c-1,2.4-7.4,1-16.7-1.2-2.1-.5-3.4-1.1-4.2-1.8-.2,2.4.6,4.4,1.8,4.6l21.7,3.1,1.1-8.7-1.4-.3c-1,.5-1.4,2.1-2.3,4.2Z"/>
      <path class="cls-2" d="M220.2,132.7c-.3,2.4-1.5,4.2-2.7,4.1-1.2-.1-1.8-2.2-1.5-4.6.3-2.4,1.5-4.2,2.7-4.1,1.2.1,1.8,2.2,1.5,4.6Z"/>
      <path class="cls-16" d="M220.2,132.7c-.2,1.6-1,2.9-1.8,2.8-.8-.1-1.3-1.5-1-3.1.2-1.6,1-2.9,1.8-2.8.8.1,1.3,1.5,1,3.1Z"/>
    </g>
  </g>
</svg>