<?xml version="1.0" encoding="UTF-8"?>
<svg id="how_to_prevent" data-name="how to prevent" xmlns="http://www.w3.org/2000/svg" viewBox="0 0 32 32">
  <defs>
    <style>
      .cls-1 {
        fill: #fff;
      }

      .cls-2 {
        fill: #77a8c7;
      }

      .cls-3 {
        fill: #82b7d9;
      }
    </style>
  </defs>
  <g id="ic_slaugh">
    <path id="Tracciato_175" data-name="Tracciato 175" class="cls-3" d="m1.87,22.32l.43,3.5s1.85,6.9,10.18,2.53c8.33-4.37,3.36-4.83,17.62-10.91l-.34-4.04s-8.8-4.03-18.96-1.42C.64,14.6,1.62,19.99,1.87,22.32Z"/>
    <path id="Tracciato_176" data-name="Tracciato 176" class="cls-2" d="m2.92,20.88s3.03,9.92,14.6-.82c0,0,3.29-3.14,8.91-4.86,0,0,4.79-1.17-1.75-2.5s-16.33-.46-19.35,2.38-2.41,5.8-2.41,5.8Z"/>
    <path id="Tracciato_177" data-name="Tracciato 177" class="cls-2" d="m1.83,21.94s2.47,9.73,14.6.16c0,0,4.08-4.08,9.55-6.12,0,0,3.64-.94,3.87-1.88l.42,3.43s-.6.63-2.85,1.26-6.36,2.63-10.27,6.46c0,0-10.3,9.4-14.79,1.13l-.55-4.45Z"/>
    <path id="Tracciato_220" data-name="Tracciato 220" class="cls-1" d="m8.2,19.72c1.23-.15,2.26.28,2.36,1.08s-.81,1.5-2.04,1.65-2.31-.3-2.41-1.11.86-1.48,2.09-1.63Z"/>
  </g>
</svg>