<?xml version="1.0" encoding="UTF-8"?>
<svg id="Livello_1" data-name="Livello 1" xmlns="http://www.w3.org/2000/svg" version="1.1" viewBox="0 0 68.5 63">
  <defs>
    <style>
      .cls-1 {
        fill: #6ca1bc;
      }

      .cls-1, .cls-2, .cls-3, .cls-4, .cls-5 {
        stroke-width: 0px;
      }

      .cls-2 {
        fill: #98c9e5;
      }

      .cls-3 {
        fill: #82b7d9;
      }

      .cls-4 {
        fill: #5b798c;
      }

      .cls-5 {
        fill: #77a8c7;
      }
    </style>
  </defs>
  <g id="lattuce">
    <path id="Tracciato_217" data-name="Tracciato 217" class="cls-4" d="M40.6,15.7s1.2-2.2,4.1,2.3c2.8,4.5,3.7,5.3,6.1,6.2s7.7,8.5,2.7,8.5c-5,0-10.2,1.9-10.2,1.9l-4.4-18,1.8-.9Z"/>
    <path id="Tracciato_216" data-name="Tracciato 216" class="cls-1" d="M26.9,10.1s3.1-5.3,8.7.9c5.6,6.1,5.4,7.7,5.4,7.7l1,4.2-10.7-2.8-7.3-.6,2.9-9.4Z"/>
    <path id="Tracciato_215" data-name="Tracciato 215" class="cls-5" d="M27.5,15.9s3.1-4.7,7.6,1.2c4.5,5.9,10.5,7,10.5,7,0,0,7.3,1.7.5,8.2s-20.3.4-20.3.4l1.7-16.8Z"/>
    <path id="Tracciato_214" data-name="Tracciato 214" class="cls-3" d="M13.1,43.8s-4.7-2.5-4.2-12.3c.5-9.9,6-15.1,10-17.9s3.9-4.9,3.9-4.9c0,0,.8-3.4,3.1-.9s1.3,7.3,1.3,7.3c.2,1.4.8,2.6,1.6,3.7,1.4,1.6.2,10.1-2.3,13.5-2.6,3.4-6.7,4.9-7.1,14.1,0,0-3.4-2.7-6.3-2.5Z"/>
    <path id="Tracciato_219" data-name="Tracciato 219" class="cls-2" d="M14.6,46c-.8-1.5-4.2-7.1-3.8-10.6s.9-.9.9-.9c0,0,.3,5.4,3.1,8,2.7,2.6-4.9-7.5-1.4-16.6,3.5-9,2.8-4.3,2.8-4.3,0,0-4.1,11.2-.2,16.1,0,0-.5-12.2,3.2-18.7.6-1,1.1-1.9,1.6-2.7,2.4-3.8,3.1-3.6,3.4-2.6.3,1.2-2.3,4.8-3.9,9.9-1,3.4-1.8,6.9-2.2,10.4,2.8-4.7,9.9-11.1,9.5-8.3-.1,1.1-10.2,11.4-9.9,14.1,1.8,5.3-2.3,7.7-3.1,6.2Z"/>
    <path id="Tracciato_213" data-name="Tracciato 213" class="cls-3" d="M14.1,52.7s-2.1-1.7-2.6-2.2-1-1.5-.2-2.6c.8-1.1,1.6-2.2,1.3-3.4s1.9-2.1,6.8,1.5c0,0-.9-5.9,4.4-11.6s7.6-3.9,7.6-3.9c0,0,1.2.9,4-.1,2.8-1.1,5.5-.3,7.5,1.1,1.4,1,3.2,1.1,4.7.4.6-.3,2.3-3.1,4.1-1.6s1.6,3.7,2.3,5,1.8-.3,2.2,2.4-1.1,1.9-1.6,3.9-10.2,22.8-30.7,13c-1.9-.9-2.9-1.4-4.9-.3-2,1.1-5-1.5-5-1.5Z"/>
    <path id="Tracciato_218" data-name="Tracciato 218" class="cls-2" d="M13.9,45.3s-.3,2.1-1.3,3.3,3.1,3.7,3.1,3.7c0,0,1.4,1,2.2.9s1.9-2,3.9-1.3,9.8,3.7,13.4,2.7c3.6-1.1.6-1.1.6-1.1,0,0-6.1.5-10.2-2.3-4.1-2.7,10.5,4.4,18.8-.9,8.3-5.3,3.4-3.8,3.4-3.8,0,0-10.4,6.4-17.5,2.7,0,0,13.6-1.3,19-6.6.9-.8,1.6-1.6,2.2-2.3,3-3.3,2.5-4.1,1.3-4.2-1.4-.1-4.2,3.3-9,6-4.9,2.6-10.3,4.1-10.3,4.1,3.9-3.9,7.5-12.9,4.7-12.1-1.2.3-7.7,13.3-10.8,13.4-2.4,0-3.5-1.5.4-7.5,6.5-9.6,3.1-7.4,2.7-7.3-8.2,4.6-8.4,11.5-8.7,14.6-1,0-1.1.2-1.6,0-1.4-.3-3.1-1.9-4.3-2.5-.6-.3-1.6.4-1.6.4Z"/>
  </g>
</svg>