<?xml version="1.0" encoding="UTF-8"?>
<svg id="how_to_prevent" data-name="how to prevent" xmlns="http://www.w3.org/2000/svg" viewBox="0 0 32 32">
  <defs>
    <style>
      .cls-1 {
        fill: #6c99b5;
      }

      .cls-2 {
        fill: #82b7d9;
      }
    </style>
  </defs>
  <g id="ic_training-2" data-name="ic_training">
    <g id="man">
      <g id="Raggruppa_10" data-name="Raggruppa 10">
        <circle id="Ellisse_9-4" data-name="Ellisse 9-4" class="cls-2" cx="6.87" cy="4.77" r="3.15"/>
        <path id="Tracciato_15-4" data-name="Tracciato 15-4" class="cls-2" d="m11.08,8.75H2.66c-.73,0-1.32.67-1.32,1.5v8.41c0,.83.59,1.5,1.32,1.5h.5v10.21h7.37v-14.84s1.86-1.44,1.86-1.44v-3.85c0-.83-.59-1.5-1.32-1.5Z"/>
      </g>
    </g>
    <rect class="cls-1" x="13.91" y="1.62" width="18.09" height="15.65"/>
    <path class="cls-2" d="m12.07,17.11l3.96-2.95c.45-.34.54-.97.21-1.43h0c-.33-.45-.97-.54-1.42-.21l-4.17,3.11v.88s.32.43.32.43c.26.35.75.42,1.1.16Z"/>
    <rect class="cls-2" x="15.75" y="10.13" width="8.87" height=".16" transform="translate(-2.28 12.8) rotate(-33.4)"/>
  </g>
</svg>