<?xml version="1.0" encoding="UTF-8"?>
<svg id="how_to_prevent" data-name="how to prevent" xmlns="http://www.w3.org/2000/svg" viewBox="0 0 32 32">
  <defs>
    <style>
      .cls-1 {
        fill: #83b7da;
      }

      .cls-2 {
        fill: #78a8c8;
      }
    </style>
  </defs>
  <g id="ic_bottle">
    <path class="cls-2" d="m19.47,7.03h8.18c.26,0,.47.21.47.47v2.62h-9.13v-2.62c0-.26.21-.47.47-.47Z"/>
    <path class="cls-1" d="m29.87,18.36v9.45s-.18,1.74-2.03,1.78c-1.86.04-6.69.07-8.56,0-1.86-.07-2.02-1.78-2.02-1.78v-9.45c0-4.57.54-4.2,1.6-5.51,1.05-1.32.89-2.06.89-2.06v-.66h7.64v.66s-.18.74.89,2.06c1.05,1.31,1.6.94,1.6,5.51Z"/>
    <path class="cls-2" d="m17.25,18.05c4.2,0,8.41,0,12.61,0v6.58c-4.2.09-8.41.08-12.61-.04v-6.54Z"/>
  </g>
</svg>