<?xml version="1.0" encoding="UTF-8"?>
<svg id="how_to_prevent" data-name="how to prevent" xmlns="http://www.w3.org/2000/svg" viewBox="0 0 32 32">
  <defs>
    <style>
      .cls-1 {
        fill: #8bc3e8;
      }

      .cls-2 {
        fill: #77a8c7;
      }

      .cls-3 {
        fill: #82b7d9;
      }
    </style>
  </defs>
  <g id="ic_wash_hands">
    <path class="cls-3" d="m30.34,5.79v2.75h-7.62s-1.82-.18-1.89,2.77h-2.52s-1.03-5.61,4.06-5.59h2.49s.88-.65.97-1.8c.09-1.15-.23-.97-.23-.97l-1.69.3s-.69-.79.02-1.66l1.64.35s.38-.24.91-.24.87.24.87.24l2.06-.35s.39,1.09,0,1.57c0,0-1.78-.2-1.99-.22s-.2.64-.09.94c0,0,.37,1.69.85,1.92h2.17Z"/>
    <path class="cls-1" d="m24.84,5.72s.88-.65.97-1.8c.09-1.15-.23-.97-.23-.97l-1.69.3s-.69-.79.02-1.66l1.64.35s.38-.24.91-.24.87.24.87.24l2.06-.35s.39,1.09,0,1.57c0,0-1.78-.2-1.99-.22s-.2.64-.09.94c0,0,.37,1.69.85,1.92,0,0-.31.34-1.67.34s-1.65-.41-1.65-.41Z"/>
    <path class="cls-1" d="m18.21,10.34v-.15h-.2s-.08,0-.08.15.09,1.1.09,1.1h2.99s0-.88.05-1.07c.05-.14-.11-.17-.11-.17l-.05.15h-2.69Z"/>
    <path class="cls-3" d="m19.5,16.68c-1.38,0-2.14-1.34-1.23-2.55.78-1.04,1.23-2.31,1.23-2.31,0,0,.46,1.27,1.23,2.31.91,1.21.16,2.55-1.23,2.55Z"/>
    <path class="cls-2" d="m7.35,26.63s3.08-.38,6.09.34c3,.72,7.81.96,8.26.91s1.27-.03,1.25-.65-.75-.7-.92-.73-2.45-.07-3.1-.22c-.27-.05-.15-.26-.15-.26,0,0-.18-.13.51,0s4.55.07,5.28-.28.63-.91.63-.91c0,0,.04-.49-.62-.58s-3.73.2-3.73.2c0,0-.89.12-1.12-.14s.36-.38.36-.38c0,0,1.43.05,2.69-.03.93-.06,1.78-.26,1.94-.27.38-.03.93-.2.9-.75s-.44-.73-.56-.76-3.82.26-4.64.25-.72-.22-.72-.22c0,0-.08-.45,1.01-.41s3.97.28,4.04-.67-1.14-.95-1.14-.95c0,0-2.32-.49-5.66.29-2.45.37-1.49-.38-1.49-.38,0,0,.8-.77,2.85-.56.76.12.93-.27.93-.63s-.18-.59-.56-.64-3.07-.36-5.98.46c-2.93.92-5.61,1.01-6.15.86-.46.37-1.61,4.97-.22,7.12Z"/>
    <path class="cls-3" d="m6.84,28.67s3.01-1.18,6.51-.55c5.06.8,8.29.51,8.76.41s1.34-.16,1.26-.82-.86-.66-1.04-.68-2.59.18-3.29.09c-.29-.02-.19-.26-.19-.26,0,0-.2-.12.54-.05s4.81-.39,5.54-.83.57-1.02.57-1.02c0,0-.01-.52-.71-.55s-3.92.59-3.92.59c0,0-.93.22-1.19-.04s.35-.44.35-.44c0,0,1.51-.09,2.84-.31.98-.16,1.85-.46,2.02-.49.4-.07.96-.31.87-.88s-.54-.73-.67-.74-4.01.66-4.87.74-.78-.16-.78-.16c0,0-.13-.47,1.03-.53s4.22-.11,4.2-1.12-1.3-.89-1.3-.89c0,0-3.47.19-5.95.88-2.55.64-1.61-.25-1.61-.25,0,0,.77-.89,2.95-.89.82.05.95-.38.92-.76s-.25-.6-.66-.62-3.27-.06-6.26,1.09c-3,1.27-5.82,1.64-6.41,1.54-.45.43-1.19,5.41.5,7.54Z"/>
  </g>
</svg>