<?xml version="1.0" encoding="UTF-8"?>
<svg id="Livello_2" data-name="Livello 2" xmlns="http://www.w3.org/2000/svg" version="1.1" viewBox="0 0 393.6 274.8">
  <defs>
    <style>
      .cls-1 {
        fill: #56b79e;
        stroke-width: 0px;
      }
    </style>
  </defs>
  <path class="cls-1" d="M120.7,130.1l-1.5,1.1c-.8.6-1.5,1.1-2.3,1.7,0,0,0,0,0,0l-6.3,4.7c-29.5,22.8-68.8,61.2-110.6,124.3,2.8.7,5.5,1.4,8.3,2.1,72.8,17.2,141.7,10.9,191.9.5.5-.5,1-1.1,1.5-1.7,16.6-17.4,20.1-27.9,32.8-46.2l7.6-10.4c9.4-12.2,22.9-27.8,44.6-49.4,15.1-15.1,76.9-81.4,106.9-157-54.3,8.5-147.1,37.7-272.9,130.2h0Z"/>
</svg>