<?xml version="1.0" encoding="UTF-8"?><svg id="Livello_1" xmlns="http://www.w3.org/2000/svg" viewBox="0 0 25.38 22.61"><defs><style>.cls-1{fill:#8da2bf;}.cls-1,.cls-2,.cls-3,.cls-4,.cls-5{stroke-width:0px;}.cls-2{fill:#7187a0;}.cls-3{fill:#c3d5ec;}.cls-4{fill:#9ab3d3;}.cls-5{fill:#a4bfe2;}</style></defs><path class="cls-4" d="M18.23,3.26v2.13h-5.9s-1.41-.14-1.47,2.15h-1.95s-.8-4.35,3.14-4.33h1.93s.68-.5.75-1.4c.07-.89-.18-.75-.18-.75l-1.31.23s-.54-.61.02-1.29l1.27.27s.3-.19.7-.19.67.19.67.19l1.59-.27s.3.84,0,1.22c0,0-1.38-.15-1.54-.17s-.16.49-.07.73c0,0,.29,1.31.66,1.48h1.68Z"/><path class="cls-5" d="M13.97,3.2s.68-.5.75-1.4c.07-.89-.18-.75-.18-.75l-1.31.23s-.54-.61.02-1.29l1.27.27s.3-.19.7-.19.67.19.67.19l1.59-.27s.3.84,0,1.22c0,0-1.38-.15-1.54-.17s-.16.49-.07.73c0,0,.29,1.31.66,1.48,0,0-.24.26-1.3.26s-1.28-.32-1.28-.32Z"/><path class="cls-5" d="M8.84,6.78v-.11h-.15s-.06,0-.06.11.07.85.07.85h2.31s0-.68.04-.83c.03-.11-.09-.13-.09-.13l-.04.11h-2.08Z"/><path class="cls-4" d="M9.84,11.69c-1.07,0-1.66-1.04-.95-1.98.6-.8.95-1.79.95-1.79,0,0,.35.99.95,1.79.7.94.12,1.98-.95,1.98Z"/><path class="cls-1" d="M1.54,16.21s2.21.44,4.12,1.62,5.17,2.43,5.49,2.5.88.27,1.01-.16-.36-.65-.47-.71-1.67-.6-2.09-.85c-.18-.09-.05-.21-.05-.21,0,0-.09-.13.35.12s3.12,1.08,3.7,1.01.64-.48.64-.48c0,0,.14-.33-.3-.54s-2.62-.71-2.62-.71c0,0-.64-.12-.74-.35s.34-.18.34-.18c0,0,.97.36,1.87.59.66.17,1.28.23,1.4.25.27.06.69.07.79-.31s-.14-.61-.22-.65-2.69-.69-3.25-.88-.44-.32-.44-.32c0,0,.04-.33.79-.05s2.68,1.09,2.94.46-.57-.92-.57-.92c0,0-1.49-.86-3.97-1.09-1.77-.3-.94-.6-.94-.6,0,0,.73-.35,2.09.26.5.26.7.02.78-.23s0-.45-.24-.57-2.03-.94-4.22-1.04c-2.23-.03-4.1-.58-4.44-.8-.4.15-2.24,3.06-1.77,4.86Z"/><path class="cls-2" d="M14.1,15.2c-.07-.24-.15-.48-.17-.73-.35.09-.71.17-1.07.25.07.21.1.44.15.66.06.24.13.47.19.71.03-.01.06-.03.1-.04,0,0,0,0,0,0-.14-.33-.22-.68-.28-1.04,0-.02.02-.03.03,0,.08.35.19.68.32,1.02.27-.13.62-.3.92-.25-.08-.18-.13-.38-.18-.56Z"/><path class="cls-2" d="M12.9,15.41c-.05-.21-.11-.45-.11-.67,0,0,0,0,0,0-1.16.27-2.32.52-3.47.8-.61.15-1.22.29-1.83.43-.32.07-.75.11-1,.32-.05.04-.1.09-.13.14-.11.58.15,1.08.68,1.37,0,0,0,.02,0,.02-.51-.19-.81-.75-.74-1.27-.12.3,0,.66.21.92.21.25.52.5.85.53.36.03.67-.2.97-.37.46-.27.97-.44,1.48-.56.58-.13,1.18-.21,1.76-.35.55-.13,1.04-.36,1.55-.59-.08-.24-.14-.49-.2-.73ZM11.26,16.34c-.35.1-.71.17-1.06.25-.7.15-1.42.3-2.08.58-.18.08-.34.17-.51.26-.11.06-.23.12-.36.12-.25,0-.5-.17-.66-.35-.15-.17-.24-.4-.18-.62.07-.24.29-.34.51-.41.01,0,.02.02,0,.02-.16.07-.34.15-.43.31-.09.17-.06.39.04.55.21.34.63.48.99.31.29-.14.56-.29.87-.39.3-.1.61-.18.92-.25.64-.14,1.3-.22,1.93-.42.3-.09.71-.24.83-.57.17-.47-.43-.56-.74-.56-.01,0-.01-.02,0-.02.27-.02.59,0,.76.24.14.19.08.42-.08.57-.2.2-.49.3-.76.37Z"/><path class="cls-3" d="M15.43,16.9c.39-.09.78-.15,1.17-.24.38-.09.75-.18,1.12-.29,1.31-.39,2.57-.9,3.79-1.5.56-.28,1.11-.57,1.66-.87.58-.33,1.15-.66,1.65-1.1-.47-.18-.96-.35-1.45-.46-.38-.08-.83.08-1.2.16-.5.11-.99.22-1.49.33-.97.21-1.94.43-2.9.65-.98.22-1.96.45-2.93.67-.29.07-.57.14-.86.21.09.23.14.48.21.72.07.21.17.42.22.63,0,0,.02,0,.03.01.32.17.6.54.81.88.05.07.11.14.16.2Z"/><path class="cls-3" d="M24.9,12.93c-.55.51-1.2.86-1.85,1.22-1.15.63-2.33,1.22-3.55,1.69-.66.26-1.34.48-2.02.67-.65.18-1.34.37-2.01.43.11.13.24.12.38.11.05,0,.1-.02.16-.03.42-.08.84-.17,1.25-.28,2.85-.73,5.53-2.05,7.95-3.71-.1-.04-.2-.08-.3-.12Z"/><path class="cls-4" d="M12.1,15.39c-.17-.24-.49-.26-.76-.24-.01,0-.01.02,0,.02.31,0,.91.09.74.56-.12.33-.53.47-.83.57-.63.2-1.29.28-1.93.42-.31.07-.62.14-.92.25-.31.1-.58.25-.87.39-.36.18-.78.03-.99-.31-.1-.16-.13-.38-.04-.55.09-.16.27-.24.43-.31.01,0,0-.03,0-.02-.22.08-.44.17-.51.41-.06.22.03.45.18.62.16.18.41.35.66.35.13,0,.25-.06.36-.12.17-.09.34-.18.51-.26.66-.28,1.38-.43,2.08-.58.35-.08.71-.15,1.06-.25.27-.07.56-.17.76-.37.16-.16.21-.38.08-.57Z"/><path class="cls-4" d="M25.34,12.97c-.59-.24-1.19-.45-1.8-.62-.29-.08-.55-.06-.84,0-.49.11-.99.22-1.48.33-2,.44-3.99.89-5.98,1.35-.99.23-2,.45-2.98.73-.95.21-1.89.43-2.84.62-.68.14-1.37.29-2.05.44-.45.1-1.01.14-1.21.62-.31.79.58,1.82,1.4,1.7.23-.04.44-.16.63-.29.34-.21.67-.38,1.05-.49.62-.18,1.26-.25,1.89-.36.7-.12,1.33-.33,1.96-.64.33-.16.84-.49,1.22-.4.29.07.57.43.78.74.05.08.1.16.14.23.06.1.12.24.24.28.13.04.32-.03.45-.05.2-.04.4-.08.59-.12.78-.17,1.55-.38,2.3-.64,1.49-.5,2.92-1.15,4.29-1.92.77-.43,1.51-.9,2.24-1.41.04-.03.04-.09-.01-.11ZM11.55,16.73c-.58.14-1.18.21-1.76.35-.52.12-1.02.29-1.48.56-.3.17-.61.4-.97.37-.34-.03-.65-.28-.85-.53-.21-.26-.33-.62-.21-.92-.07.52.23,1.08.74,1.27.01,0,.02-.01,0-.02-.54-.29-.79-.79-.68-1.37.04-.05.08-.1.13-.14.26-.21.69-.24,1-.32.61-.14,1.22-.29,1.83-.43,1.15-.28,2.32-.53,3.47-.8,0,0,0,0,0,0,0,.22.07.46.11.67.05.24.12.49.2.73-.5.24-.99.46-1.55.59ZM13.36,16.02c-.13-.33-.24-.67-.32-1.02,0-.02-.03-.01-.03,0,.06.35.15.71.28,1.04,0,0,0,0,0,0-.03.01-.06.03-.1.04-.06-.24-.13-.47-.19-.71-.05-.22-.08-.45-.15-.66.36-.08.71-.17,1.07-.25.02.25.1.49.17.73.05.18.1.38.18.56-.3-.05-.65.12-.92.25ZM14.45,15.82s-.02,0-.03-.01c-.06-.21-.16-.42-.22-.63-.07-.24-.13-.49-.21-.72.29-.07.57-.14.86-.21.98-.23,1.96-.45,2.93-.67.97-.22,1.94-.43,2.9-.65.5-.11.99-.22,1.49-.33.37-.08.82-.25,1.2-.16.49.11.98.28,1.45.46-.5.44-1.07.78-1.65,1.1-.55.3-1.1.6-1.66.87-1.22.6-2.48,1.12-3.79,1.5-.37.11-.75.21-1.12.29-.39.09-.78.15-1.17.24-.05-.07-.11-.14-.16-.2-.22-.33-.49-.7-.81-.88ZM17.24,16.75c-.41.11-.83.2-1.25.28-.05,0-.1.02-.16.03-.14.01-.26.02-.38-.11.68-.07,1.36-.25,2.01-.43.69-.19,1.36-.42,2.02-.67,1.22-.48,2.4-1.06,3.55-1.69.65-.36,1.3-.72,1.85-1.22.1.04.2.08.3.12-2.42,1.66-5.1,2.98-7.95,3.71Z"/><path class="cls-4" d="M.46,21.1s2.46-.59,5.11.26c3.84,1.16,6.37,1.28,6.75,1.25s1.05.02,1.06-.5-.6-.61-.74-.64-2.03-.14-2.56-.28c-.22-.05-.12-.22-.12-.22,0,0-.14-.11.42.02s3.77.21,4.39-.06.55-.73.55-.73c0,0,.05-.41-.49-.5s-3.1.04-3.1.04c0,0-.74.07-.92-.16s.31-.31.31-.31c0,0,1.18.09,2.24.06.78-.02,1.48-.16,1.62-.16.31-.02.78-.13.77-.59s-.34-.62-.44-.65-3.17.09-3.85.06-.59-.21-.59-.21c0,0-.05-.38.85-.3s3.29.36,3.37-.42-.91-.83-.91-.83c0,0-2.71-.22-4.7.05-2.04.23-1.22-.37-1.22-.37,0,0,.69-.61,2.38-.37.63.12.78-.2.79-.49s-.13-.5-.44-.55-2.53-.4-4.97.18c-2.46.67-4.68.65-5.13.51-.39.29-1.5,4.06-.42,5.9Z"/></svg>