<?xml version="1.0" encoding="UTF-8"?><svg id="Livello_1" xmlns="http://www.w3.org/2000/svg" viewBox="0 0 17.79 26.79"><defs><style>.cls-1{fill:#85a5c3;}.cls-1,.cls-2{stroke-width:0px;}.cls-2{fill:#91b5d6;}</style></defs><path id="Tracciato_27-2" class="cls-2" d="M2.36,25.65c-.01.61.48,1.12,1.09,1.13h10.52c.61-.01,1.1-.52,1.09-1.13l1.83-17.42.89-7.7C14.86.2,11.91.02,8.97,0,5.97.02,2.98.2,0,.53l1.6,16.61.76,8.51Z"/><path id="Tracciato_28" class="cls-1" d="M2.8,16.44l-.26-2.79c1.38.28,2.79.41,4.21.4.05,0,.11,0,.16,0"/><path id="Tracciato_28-2" class="cls-1" d="M2.9,17.62l.64,6.96c0,.41.4.75.9.75h8.66c.5,0,.9-.34.9-.75l1.35-10.92c-1.16-.34-2.36-.47-3.57-.39-.86.04-1.39.15-1.97.29l-7.28.1.36,3.96Z"/></svg>