<?xml version="1.0" encoding="UTF-8"?><svg id="Livello_1" xmlns="http://www.w3.org/2000/svg" viewBox="0 0 53.93 53.93"><defs><style>.cls-1{fill:#4b6275;}.cls-1,.cls-2,.cls-3,.cls-4,.cls-5{stroke-width:0px;}.cls-2{fill:#96c7e2;}.cls-3{fill:#82b7d9;}.cls-4{fill:#5b798c;}.cls-5{fill:#77a8c7;}</style></defs><path class="cls-5" d="M41.3,25.51c.46.05,4.06-.52,5.03-.62s4.7-1.27,4.7-1.27c.93-.16,2.45-.61,2.64-.99.19-.38-.69-1.63-.91-1.83s-1.41-.05-1.83-.04-1.21.26-2.02.34-2.4.15-2.4.15c0,0-.86-.14-1.57-.03s-1.06-.18-2.09-.3-1.64-.68-2.55-1.3-1.51-1.28-2.12-1.57-1.21,0-1.43.05-1.33.07-2.12.06-1.37.01-2.34.38-1.9,1.21-2.33,1.48-1.82,1.33-2.81,1.53-2.46-.07-2.82-.1-2.81-.36-4.06-.43-3.31.21-5.37,1.44-4.21,3.12-4.36,3.3-.9-.2-.9-.2c0,0-1.15-.73-1.88-.52s-1.41.9-1.45,1.78,1.52,1.44,1.88,1.73.5,1.32.76,2.01c.27.69,1.61,1.3,2.46,1.7.86.4.89.99.89.99,0,0,.2.31.33.65s-.1.92-.1.92c-.06.04-.14.18-.31.46s-.92.85-1.09,1.13c-.27.52-.63,1.18-1,1.67s-.34.82-.34.82c.42.94,1.14.57,1.63.25s.7-.79,1.3-1.34.61-.39.94-.69.41-.43.52-.67c.11-.24,2.1-1.17,2.1-1.17.16-.02,1.43-.74,1.9-.53s.69,0,1.35-.17c.67-.17,0,0,1.1-.44,1.1-.44,4-1.69,4-1.69,1.56-.39,3.8-1.74,4.44-2.23s3.75-2.22,4.69-2.64,1.58-.23,3.79-.95c0,0,3.41-1.4,3.88-1.35l-.11.24Z"/><path class="cls-3" d="M41.61,21s.18-.12.46.05,1.76.6,2.18.59,1.13-.12,1.35-.17.89-.22.89-.22c0,0,.61-.13,1.09-.18s1.57.03,1.31.03-1.78.45-2.04.44-1.28.3-1.76.35-1.39-.15-1.75-.18-1.92-.58-1.72-.8l-.02.1Z"/><path class="cls-4" d="M17.03,33.66s0-.26.45-.11,1.93,1.27,1.93,1.27l.51-.15s-1.75-1.12-1.97-1.33-.21-.47.13-.34,1.85,1.15,2.17,1.11,1.5-.35,1.5-.35l-2.6-1.1-1.45-.11h-.42s-.35,1.35-.35,1.35l.11-.24Z"/><path class="cls-3" d="M13.97,36.82s.24-.84.48-1,.57-.19,1.22-.78.73-1.15.73-1.42-.02-2.06.81-2.93,1.89-.95,2.29-.86,2.52.72,3.06.89.98.32,1.57.29.66.09.95,0,.75-.31.73-.21-.39.33-1.68.47-2.51-.29-2.71-.34-1.9-.68-2.12-.63-.62-.03-.71.11.48.21,1.12.41c.64.19,1.62.78,1.82.82s.98.32.7.42-.96-.16-.96-.16c0,0-1.78-.76-2.12-.89s-.72-.32-1.15-.04-.77,1.09-.77,1.09l.03.32s.61-.39,1.25-.2,2.24.81,2.24.81c0,0,1.35.09,1.87.1s1.82-.39,1.82-.39c0,0,1.18-.32.71-.11s-2.93,1.35-3.63,1.2-2.3-.77-2.3-.77c0,0-.86-.4-1.28-.39s-.79.25-.77.41-.18,2.01-.33,2.19-.33.3-.33.3l-1.85.75-.86.55.16-.02Z"/><path class="cls-4" d="M12.76,33.71l-.35,1.34s.58-.03.86-.55c.27-.52.24-2.05.8-2.66s1.51-1.14,1.99-1.61,1.11-2.17,1.11-2.17c0,0,.28.85.54,1.12s.77.54.77.54c0,0-.63-.72-.82-1.29s-.15-.77.02-1.05.36-.92.62-.65.74,1.43.81,1.55,1.19,1.05,1.49,1.12,1.88.52,1.7.38-2.5-.82-3-1.87-.31-1.44-.29-1.8.1-1.19.28-1.04.5,1.06.7,1.36.84,1.45.84,1.45c0,0-.76-2.27-.83-2.66s-.59-1.6-.25-1.48,1.08,1.55,1.13,1.78.83,1.71,1.07,1.81,2.07,1.09,2.79,1.41,1.8.66,1.94.74-.75-.64-.75-.64c0,0-2.1-.73-1.53-.92s1.21-.26,1.79-.02,2.9.91,2.9.91c0,0,.18-.12-.23-.37s-2.75-.66-2.44-.86,2.13.1,2.46.07.92.1,1.39-.11.5-.57.5-.57l-4.26-.47-2.41.41-1.39-.15-1.3-1.5-.58-2.13-.75-.64-1.49.09-.31,2.35-1.22,2.41-1.03,2.03-1.27.98-1.09.86-.22.74-.72,1.84.02-.1Z"/><path class="cls-4" d="M11.25,30.8s-.38-2.08-.44-2.31.14-2.07.59-2.45,1.15-1.17,1.54-1.5.99-1.15.99-1.15c0,0-3.07,2.21-3.13,2.52-.07.3-.42.96-.43,1.48s.98,3.42.98,3.42l-.1-.02Z"/><path class="cls-4" d="M9.88,25.82l.66.09s-.72.89-.61,1.34.34,2.02.34,2.02c0,0,.51.8.29.59s-1.47-1.9-1.43-2.79.14-.86.18-1.06.63-.23.63-.23l-.06.04Z"/><path class="cls-4" d="M32.39,26.54s1.59.19,2.19.06,2.96-1.03,3.26-.96,1.23.17,1.14.31-1.3.66-1.46.68-3.11.52-3.4.62-1.73.93-1.99.93-2.06.02-1.58.23,1.12.41,1.12.41c0,0,1.9-1.21,3.13-1.31s3.1-.68,3.5-.86,1.85-1.01,1.85-1.01l.18-.12-.96-.16h-2.68s-2.29.58-2.29.58l-1.93.63-.1-.02Z"/><path class="cls-4" d="M34.15,20.51s1.17,1.15,1.35,1.03,1.1,1.19,1.26,1.44-.9-.46-1-.48-1.43-.9-1.32-.71,1.21.95,1.45,1.06,1.87,1.05,2.01,1.13-.65.07-1.07.08-1.86-.62-2.04-.77-1.79-.92-.98-.32,1.97,1.33,2.59,1.36,2.3.09,2.7.18.65-.07.66.09-.38.76-.38.76l6.9-.26,1.93-.63,2.43-.78.97-.1.55-.35.55-.35.55-.35-.05-.48s-2.06.28-2.68.25-5.21.74-5.7,1.05-1.66.37-1.66.37l-2.77-.56s-1.15.22-1.41.21-2.16-.95-2.16-.95l-1.18-1.58-1.5-.33h0Z"/><path class="cls-4" d="M34.43,18.52s1.34.35,1.85,1.15.87,1.77,1.09,1.98,1.37.93,1.63,1.2.71.84.98.58l.31-.2-1.21-1.9-.79-.96,1.39.83.83.76s-.09-.55-.66-1.04-1.96-1.59-2.07-2.04.38-.76.38-.76l-1.6.33-1.59-.19-.55.35.02-.1Z"/><path class="cls-4" d="M21.65,22.79s.96,1.37,1.36,1.72,1.28,1.34,1.54,1.34,1.7.38,1.7.38l-1.37-.93-3.19-2.44-.04-.06Z"/><path class="cls-4" d="M22.58,22.37s1.64,1.36,2.02,1.55,2.74,1.87,2.74,1.87l-.86-1.35-2.56-1.99-1.35-.09Z"/><path class="cls-4" d="M24.48,22.37s1.88,1.47,2.49,1.6,1.62.78,1.62.78l-2.73-2.39h-1.37Z"/><path class="cls-4" d="M26.93,22.7s1.76.86,2.13,1.05,1.52.76,1.52.76l-1.14-1.51-1.01-.65-1.44.31-.06.04Z"/><path class="cls-2" d="M52.76,20.79s-1.58.49-1.84.49c-.26,0-4.01,1.01-4.56,1.1-.48.05-2.62.89-2.98.87-.36-.03-.93.16-1.13.12s-1.26-.49-1.82-.82-1.49-1.12-1.34-1.3c.18-.12.82.34.82.34l1.62.78s1.42.47,1.7.38c.32-.03-.3-.33-.56-.33-.1-.02-.9-.2-1.42-.47-.66-.36-1.19-.79-1.83-1.25-1.17-.89-1.97-1.33-2.05-1.45s-.47-.73-.2-.99c.31-.2.95-.26.95-.26,0,0-.88-.3-1.51-.07s-1.21.26-1.41.21c-.14-.08-1.08-.34-1.63-.25-.58.03-1.54.55-1.85.75s-.94.69-1.19.84-.25.42-.5.57c.41-.17,1.42-.47,1.68-.47.4.09,1.06.18.98.32-.08.14-1.04.66-1.35.86s-.81.35-.91.32c0,0-.95,0-1.09-.08s-.54-.17-.54-.17c0,0-.97.36-.92.59.08.12.38.19.74.22s1.54.39,1.8.66.5.37.23.37-1.72-.54-2.18-.59c-.46-.05-1.45-.11-1.95-.22s-2.67-.54-2.97-.34-3.02-.14-3.99-.04c-.38.07-.91.06-1.45.15-.42.01-.95,0-1.11.02-.28.09-1.25.2-3.64,1.72-2.39,1.52-3.19,2.55-3.49,3.17s-.16,1.91.25,2.68c.35.81,1.41,2.89,1.45,2.95s.75,1.59.73,1.69c.04.06-.1.92.02.85h0c-.11.24-.29.62-.03.36.29-.36.65-1.28.84-1.66s.29-1.57.29-1.57c.39-.6.38-.76,1.09-1.13s1.34-.6,1.41-.9.61-1.08.9-1.69.36-.92,1.08-1.55.94-1.63.97-2,.16-.96.16-.96l-.22-.89s.45-.37,1.1.24c.65.62,1.37,3.09,1.88,3.62s1.55.82,2.02.87,1.75-.09,2.48-.29c.67-.17,1.48-.25,1.72-.15.2.04,2.05.24,2.74.24s2.38-.31,2.87-.63,2.49-.82,2.94-.93,2.18-.1,2.48-.03c.2.04.42-.01.69,0,0,0,.32-.03.3.07s-.49.31-.49.31c0,0,1.83-.65,2.43-.51s3.82-.37,4.14-.4c.32-.03,2.77-.65,3.24-.86s1.28-.56,1.6-.59c.38-.07,1.01-.04.77-.15s-2.14.16-2.71.35c-.53.25-1.66.63-2.09.64s-2.34.38-2.81.33c-.46-.05-1.57-.03-2.12.06s-.89.22-1.54.29-3.34-.11-4.02-.36-2.32-.67-3.38-1.38c-1.01-.65-1.47-1.22-1.54-1.34q-.12-.18.07-.3c.18-.12.31-.46.8-.77s1.24-.62,1.68-.47c.5.11,1.12.41,1.57.98s1.16,1.41,1.52,1.7,1.44.63,1.8.66c.42-.01.93-.16,1.19-.16s1.59.19,2.07.4c.48.21,2.65.38,2.94.28s3.4-.88,3.99-.91,1.55-.13,1.84-.22c.28-.09.87-.12,1.01-.04.14.08.69,0,.91-.06.18-.12.73-.21.49-.31-.24-.11-1.06-.18-1.49-.17s-2.12.06-3.58.47-2.17.52-2.61.63c-.38.07-1.9.26-1.59.07s2.56-.85,3.06-1.01,4.29-1.1,4.58-1.2c.24-.16,1.11-.28,1.2-.42.12-.08-.23-.37-.23-.37l.02-.1ZM12.34,31.83c.16.24.32.91.42,1.2-.23-.37-.6-1.08-.7-1.36-.23-.37-1.6-2.51-1.56-3.4,0-.95.17-1.49.3-1.83s1.46-1.62,1.85-1.96l2.51-1.6c.49-.31.61-.39,1.06-.5-.62.65-1.54,2.18-1.99,2.56s-1.26,1.4-1.65,1.74c-.39.33-.96,1.47-.95,1.89s.25,1.74.3,1.96c.16.24.24,1.05.4,1.3ZM12.49,30.45s-.47-1.68-.15-2.4c.32-.72,1.08-1.55,1.41-1.85s.67-.43.55-.35-.79,2.14-.99,2.36-.51,1.36-.53,1.46c.04.06-.28.78-.28.78ZM12.98,30.82s.07-1.25.53-2.41c.53-1.2,1.11-2.86,1.5-3.45s1.29-1.77,1.47-1.88.41-.43.37-.23-1.49,1.72-1.95,2.88-.62,1.6-.62,1.86c0,.26-.08.82-.14,1.13s-.16.7-.38,1.02-.92,1.53-.83,1.13l.06-.04ZM17.6,23.74c-.23.32-.55.35-1.17,1.27-.58.98-1.01,2.2-1.08,2.5-.07.3-.12,1.03-.15,1.39s-.32.72-.32.72c0,0-1.48,1.46-1.25,1.14,0,0,.96-1.47,1.08-1.81.13-.34-.45-1.52.5-2.99,1-1.41.98-1.83,1.52-2.35.6-.55,1.05-1.19,1.21-.94s.05.75-.28,1.04l-.06.04ZM23.31,26.47c-.2-.04-.94-.26-1.16-.47-.2-.31-.63-1.66-.63-1.66.28.17.51.8.94,1.21.37.45,1.07.87,1.21.95s-.18.12-.32.03l-.04-.06ZM25.89,26.21c-.31.2-.55.35-1.37.01s-1.53-.92-1.73-1.22-1.47-1.9-1.25-1.96c0,0,1.65,1.1,1.95,1.43.2.31,1.37,1.2,1.61,1.3.24.11,1.14.31.84.5l-.04-.06ZM24.97,24.9c-.33-.39-2.32-1.88-2.32-1.88l-.27-.43s2,.71,2.7,1.12,1.82,1.77,1.96,1.85c.12.18.32.23.32.23,0,0-2.08-.57-2.42-.96l.04.06ZM30.06,26.13c-.18.12-1.77-.34-1.91-.42-.08-.12-2.12-1.84-2.27-2.08-.12-.18-1.57-.98-1.19-1.05,0,0,1.28.39,2.23,1.07s1.6,1.56,1.6,1.56c0,0,.93.78,1.17.89.3.07.45-.11.3.07l.06-.04ZM32.62,25.96c-.18.12-1.45-.11-1.75-.18-.34-.13-1.43-.9-1.89-1.21s-1.28-1.34-1.28-1.34l-.51-.53s.96.16,1.46.53,1.64,1.36,1.9,1.63c.22.21,1.01.65,1.15.73s1.04.28.86.4l.06-.04ZM32.83,23.85s1.62.78,1.96.91c.3.07,1.3.29,1.34.35s-.45.11-.61.13-1.06-.18-1.48-.43c-.46-.31-1.51-1.02-1.27-.91l.06-.04ZM34.13,25.35s.44.15.38.19-1.35-.09-2.01-.44-1.63-.94-1.83-1.25-.85-.92-.85-.92c0,0,1.42.73,1.83.98.42.25,1.25.75,1.47.96s.94.52,1.04.54l-.04-.06ZM33.93,20.04c-.18-.14-1.13-.83-1.35-.77-.26,0-.99-.06-.99-.06,0,0,0-.26.27-.26.22-.06.52.01.9.2.38.19.8.44.98.58.08.12.37.45.23.37l-.04-.06ZM34.8,19.92c-.2-.04-.95-.68-1.09-.77-.14-.08-.98-.58-.98-.58,0,0,.14-.18.38-.07.3.07.81.6.91.62s.99.75.73.74l.04.06ZM39.77,23.12c-.16.02-1.57-.03-2.41-.53-.8-.44-1.08-1.55-1.19-1.74-.08-.12-1.29-1.76-1.29-1.76,0,0-.5-.37-.27-.43,0,0,.69-.27,1.35.09s1.4,1.26,1.62,1.46.54.43.59.66c.12.18.33.65.59.92s.89.72,1.01.91.13.35-.09.4l.1.02Z"/><path class="cls-3" d="M30.02,20.12l.12-.08c-.12.08-.18.12-.12.08Z"/><path class="cls-4" d="M10.14,31.77s-.71-.58-.62-1.24-.62-2.19-.78-2.43-1.24-.59-1.45-.8-.5-.37-.43-.67.06-.99.06-.99c0,0-.62.65-.65,1.28-.03.62.46,1,.96,1.11.5.11.68.26.88.56s.57,1.7.76,2.01,1.25,1.01,1.25,1.01l.02.16Z"/><path class="cls-4" d="M10.31,39.33s.72-.89.89-1.17.61-.39.58-.98.54-1.04.69-1.21.55-.35.25-.42-.66-.09-.87.12-.55.35-.85.97-1.08,1.81-1.17,1.95-.21.48-.06.72.48-.05.48-.05l.04.06Z"/><polygon class="cls-1" points="11.03 9.8 7.65 14.15 43.46 41.96 46.83 37.61 11.03 9.8 11.03 9.8"/><path class="cls-1" d="M27,6.99h0c10.02,0,18.53,7.52,19.78,17.48,1.37,10.93-6.4,20.93-17.33,22.3-.84.11-1.69.16-2.52.16-10.02,0-18.53-7.52-19.78-17.48-1.37-10.93,6.4-20.93,17.33-22.3.84-.11,1.69-.16,2.52-.16M27,0c-1.12,0-2.25.07-3.4.21C8.83,2.07-1.64,15.55.21,30.33c1.71,13.63,13.33,23.61,26.72,23.61,1.12,0,2.25-.07,3.4-.21,14.78-1.86,25.25-15.34,23.39-30.12C52.01,9.97,40.39,0,27,0h0Z"/></svg>