<?xml version="1.0" encoding="UTF-8"?><svg xmlns="http://www.w3.org/2000/svg" xmlns:xlink="http://www.w3.org/1999/xlink" viewBox="0 0 27.83 14.42"><defs><style>.cls-1{fill:#6c8aa2;}.cls-1,.cls-2,.cls-3,.cls-4,.cls-5,.cls-6,.cls-7,.cls-8,.cls-9,.cls-10,.cls-11,.cls-12,.cls-13,.cls-14,.cls-15,.cls-16,.cls-17,.cls-18{stroke-width:0px;}.cls-2{fill:#000;opacity:.4;}.cls-3,.cls-19{fill:none;}.cls-4{fill:#85a4c2;}.cls-5{fill:#e2ecf7;}.cls-6{fill:#6d8aa2;}.cls-7{fill:#7b9ab5;}.cls-8,.cls-9{fill:#233d5a;}.cls-9{opacity:.3;}.cls-19{stroke:#b6d6f3;stroke-dasharray:0 0 0 .4 .34 .46;stroke-miterlimit:10;stroke-width:.17px;}.cls-10{fill:#bfdaf2;}.cls-11{fill:url(#linear-gradient);mix-blend-mode:overlay;opacity:.51;}.cls-12{fill:#dde4f3;}.cls-20{isolation:isolate;}.cls-13{fill:#94b8ca;}.cls-14{fill:#a0bed5;}.cls-15{fill:#fff;}.cls-16{fill:#a1bfce;}.cls-17{fill:#b5d4f0;}.cls-18{fill:#dbebfa;}</style><linearGradient id="linear-gradient" x1="12.55" y1="6.11" x2="15.64" y2="11.16" gradientUnits="userSpaceOnUse"><stop offset="0" stop-color="#fff"/><stop offset="1" stop-color="#fff" stop-opacity="0"/></linearGradient></defs><g class="cls-20"><g id="Livello_1"><path class="cls-6" d="M17.84,1.44c-.67-.08-1.19.08-1.8.26-.55.17-1.08.35-1.61.56-.11.04-.45.15-.51.26-.12.2.3,1.1.57,1.17.16.04.57-.15.72-.2.44-.14.87-.26,1.33-.36.65-.14,1.32-.19,1.99-.25.37-.03.67.01.57-.4-.1-.42-.8-.9-1.25-1.04Z"/><path class="cls-6" d="M19.04,2.65c-.67-.08-1.19.08-1.8.26-.55.17-1.08.35-1.61.56-.11.04-.45.15-.51.26-.12.2.3,1.1.57,1.17.16.04.57-.15.72-.2.44-.14.87-.26,1.33-.36.65-.14,1.32-.19,1.99-.25.37-.03.67.01.57-.4-.1-.42-.8-.9-1.25-1.04Z"/><path class="cls-13" d="M19.62,4.05c-.67-.08-1.19.08-1.8.26-.55.17-1.08.35-1.61.56-.11.04-.45.15-.51.26-.12.2.3,1.1.57,1.17.16.04.57-.15.72-.2.44-.14.87-.26,1.33-.36.65-.14,1.32-.19,1.99-.25.37-.03.67.01.57-.4-.1-.42-.8-.9-1.25-1.04Z"/><path class="cls-10" d="M11.5,2.39c.09.17.17.34.27.51.08.13.2.42.33.45.06.01.34-.16.39-.19.2-.1.41-.21.62-.3.23-.1.45-.2.67-.32-.08-.21-.26-.42-.39-.6-.06-.09-.25-.43-.37-.45-.05-.01-.21.11-.24.13-.25.13-.49.26-.74.39-.24.12-.48.25-.54.39Z"/><path class="cls-5" d="M11.66,3.39c.62-.33,1.41-.73,2.03-1.06.08-.04.14-.1.21-.06.11.05.26.38.31.49-.48.28-.99.52-1.48.78-.24.13-.49.29-.74.4-.06-.11-.28-.42-.34-.54Z"/><path class="cls-17" d="M11.66,3.94c.75-.39,1.69-.88,2.44-1.28.09-.05.17-.1.24-.1.1,0,.17.17.19.23-.58.32-1.18.62-1.77.93-.29.15-.59.33-.89.47-.03-.05-.17-.19-.2-.25Z"/><path class="cls-7" d="M11.37,4.82c.06.24.23.48.33.7.26.56.57,1.08.85,1.63.23.45,3.17,5.88,3.7,6.62.22.3.19.31.43.59.32.37,2.86-1.16,3.81-1.62.17-.08.27-.15.36-.32.15-.31-.27-.82-.4-1.06-.48-.92-4.39-7.97-4.67-8.46-.07-.12-.17-.29-.3-.35-.1-.05-.14-.03-.25.01-.35.14-.68.36-1,.55-.93.53-1.86,1.09-2.86,1.72Z"/><path class="cls-14" d="M19.83,13.05c-.13-.23-.08-.62-.13-.88-.11-.5-.33-.92-.57-1.37-.24-.45-.45-.91-.72-1.34-.41-.66-.98-1.21-1.38-1.87-.1-.16-.12-.44-.29-.5-.29-.1-.7.02-1-.05-.74-.18-1.39-.66-2.06-1l.36-.16c.27-.25.82-.2,1.15-.35.12-.05.43-.22.41-.39-.02-.11-.07-.05-.13-.12-.25-.29-.2-.79-.57-1.01-.21-.13-.47-.08-.72-.08-.44,0-.92.15-1.35.08.19-.19.58-.33.83-.45.32-.15.6-.36.91-.51.2-.1.79-.34.92-.39.04-.02.09-.04.13-.06-.03-.03-.07-.06-.1-.07-.1-.05-.14-.03-.25.01-.35.14-.68.36-1,.55-.93.53-1.86,1.09-2.86,1.72.06.24.23.48.33.7.26.56.57,1.08.85,1.63.23.45,3.17,5.88,3.7,6.62.22.3.19.31.43.59.26.3,2.01-.67,3.16-1.28,0,0,0-.01-.01-.02Z"/><path class="cls-4" d="M14.54,3.06c-.31.15-.59.36-.91.51-.25.12-.63.25-.83.45.44.07.91-.08,1.35-.08.25,0,.51-.05.72.08.37.22.32.72.57,1.01.07.08.12.01.13.12.02.17-.29.34-.41.39-.33.15-.87.1-1.15.35l-.36.16c.67.34,1.33.81,2.06,1,.31.08.71-.05,1,.05.17.06.2.34.29.5.4.66.97,1.21,1.38,1.87.27.44.48.89.72,1.34.24.45.46.87.57,1.37.05.26,0,.65.13.88,0,0,0,.02.01.02.26-.14.48-.26.66-.34.17-.08.27-.15.36-.32.15-.31-.27-.82-.4-1.06-.48-.92-4.39-7.97-4.67-8.46-.05-.09-.12-.2-.2-.28-.04.02-.09.04-.13.06-.13.06-.72.3-.92.39Z"/><path class="cls-5" d="M11.1,4.53c.66-.35,1.45-.73,2.12-1.08.56-.29,1.11-.62,1.67-.91.14-.07.33-.18.49-.2.14-.02.24.11.29.27-.15.12-.4.16-.58.24-.27.13-2.87,1.48-3.3,1.73-.17.1-.32.24-.5.33-.04-.06-.27-.22-.2-.38Z"/><circle class="cls-15" cx="16.13" cy="8.77" r="1.42"/><path class="cls-8" d="M16.28,8.57s-.04-.03-.05-.08c-.01-.04.02-.06.06-.09.04-.03.05-.09.05-.09h0s.08.11.08.11h0c0,.08-.11.13-.15.15Z"/><path class="cls-8" d="M16.52,8.82s-.03.02-.08.05c-.05.02-.07.01-.08-.03,0-.04,0-.06.06-.08.05-.02.11-.07.11-.07v.03s0,0,0,0c0,0,0,.01,0,.02,0,.02,0,.05,0,.08Z"/><path class="cls-9" d="M16.07,7.9s.28.19.48.37.3.31.25.4-.12-.06-.31-.19-.25-.27-.3-.34-.14-.16-.14-.16l.03-.08Z"/><path class="cls-9" d="M15.94,8.03s.31.29.42.42.24.25.3.29.1,0,.1-.08-.14-.18-.24-.27-.42-.4-.47-.43-.07-.01-.07-.01l-.05.08Z"/><path class="cls-1" d="M16.5,9.08c-.08-.04-.05-.05-.11-.08-.06-.02-.05-.05-.14-.12-.09-.07-.11-.16-.17-.29-.05-.13-.02-.29-.02-.29l-.08-.23.07-.11s.14.15.26.3l-.09-.11s-.03.11-.07.15c-.04.04.03.13.05.12.03,0,.11-.16.11-.16.01.01.02.03.04.04,0,0,0,.06-.05.09-.04.03-.07.05-.06.09.01.04.02.09.05.08.03-.01.15-.07.15-.14.02.03.04.05.05.07,0,0-.06.06-.12.08-.06.02-.07.03-.05.08.02.05.02.07.07.06.05-.01.12-.08.14-.11,0,.03,0,.05,0,.07,0,0-.06.05-.11.07-.05.02-.07.04-.06.08,0,.04.03.05.08.03.05-.02.08-.05.08-.05,0,.06,0,.13,0,.18.03.07.05.12-.03.08Z"/><path class="cls-3" d="M16.2,8.43s-.09-.08-.05-.12c.04-.04.07-.15.07-.15l.09.11s-.08.16-.11.16Z"/><path class="cls-8" d="M16.53,8.61h0s-.1.09-.14.11c-.05.01-.05-.02-.07-.06-.02-.05-.01-.06.05-.08.06-.02.12-.08.12-.08t0,0s0,.02.01.02c.02.04.03.07.03.09,0,0,0,0,0,0Z"/><path class="cls-2" d="M16.5,9.08c-.08-.04-.05-.05-.11-.08-.06-.02-.05-.05-.14-.12-.09-.07-.11-.16-.17-.29-.05-.13-.02-.29-.02-.29l-.08-.23.07-.11s.14.15.26.3l-.09-.11s-.03.11-.07.15c-.04.04.03.13.05.12.03,0,.11-.16.11-.16.01.01.02.03.04.04,0,0,0,.06-.05.09-.04.03-.07.05-.06.09.01.04.02.09.05.08.03-.01.15-.07.15-.14.02.03.04.05.05.07,0,0-.06.06-.12.08-.06.02-.07.03-.05.08.02.05.02.07.07.06.05-.01.12-.08.14-.11,0,.03,0,.05,0,.07,0,0-.06.05-.11.07-.05.02-.07.04-.06.08,0,.04.03.05.08.03.05-.02.08-.05.08-.05,0,.06,0,.13,0,.18.03.07.05.12-.03.08Z"/><path class="cls-8" d="M15.77,8.02s0-.1.08-.13.12-.02.19-.03.13,0,.17.03c0,0-.07-.03-.11-.02s.09.02.13.05c0,0-.09-.03-.12-.02s-.03.05,0,.07.09.03.12.07c0,0-.04-.04-.1-.05s-.08.06-.1.08-.08,0-.12,0-.06.01-.08,0-.04-.03-.04-.05Z"/><path class="cls-8" d="M15.81,8.07s0,.06.04.09.02.09.08.14.09.04.13,0,.05-.15.05-.15l-.11-.11-.19.02Z"/><path class="cls-8" d="M16.31,8.27l-.09-.11s-.04.09-.05.11-.05.05-.03.09.05.08.08.07.09-.14.1-.17Z"/><path class="cls-8" d="M16.12,8.4l-.29.17s-.06.15-.14.22-.29.44-.3.52c0,0,.16-.34.3-.5s.15-.23.15-.23l.28-.17Z"/><path class="cls-8" d="M16.26,8.73l-.14.26s.15.51.19.62.32.47.32.47c0,0-.29-.4-.3-.46s-.18-.63-.18-.63l.11-.27Z"/><path class="cls-8" d="M15.79,8.01s-.04,0-.07.04-.06.06-.04.11.02.07.06.08.1-.06.11-.11-.02-.13-.06-.13Z"/><path class="cls-8" d="M15.71,8.13s-.3-.04-.51-.01c0,0,.44-.01.51.04s0-.03,0-.03Z"/><path class="cls-8" d="M15.72,8.11s-.1-.28-.11-.35.02-.26.02-.26c0,0-.03.21,0,.31s.1.29.1.29h-.02Z"/><path class="cls-8" d="M16.14,8.1s.31-.27.34-.29.05,0,.03.07-.07.4-.07.45.2.09.2.09c0,0-.2-.02-.23-.07s.07-.41.07-.46-.09.08-.19.16-.1.12-.1.12l-.05-.07Z"/><path class="cls-8" d="M16.1,8.08s.29-.26.33-.3.04-.04.06-.02,0,.03-.35.37l-.04-.06Z"/><path class="cls-8" d="M16.05,7.97s.12-.36.09-.38-.03.02-.05.07-.07.24-.07.24l.02.07Z"/><path class="cls-8" d="M16.13,7.59s0-.03-.05.03-.17.4-.3.4-.37-.09-.5-.26c0,0,.14.27.55.27,0,0,.18-.2.25-.36l.05-.07Z"/><path class="cls-6" d="M17.24,7.57c-.09-.09-.19-.16-.3-.22-.37-.21-.82-.28-1.26-.15-.37.11-.68.34-.89.63-.09.12-.16.26-.2.4-.05.15-.09.32-.09.49,0,.17.01.34.06.51.25.87,1.15,1.37,2.02,1.12.34-.1.62-.29.83-.55.09-.12.17-.25.23-.39.14-.33.17-.71.06-1.09-.09-.3-.25-.55-.46-.75ZM16.52,10.13c-.75.22-1.54-.22-1.75-.97-.08-.28-.07-.57.01-.82l2.43,1.35c-.18.21-.41.37-.69.45ZM17.44,9.3l-2.46-1.36c.18-.25.44-.44.75-.53.37-.11.75-.05,1.07.12h0c.15.08.28.19.39.32.13.15.23.33.29.53.09.31.07.64-.05.92Z"/><path class="cls-18" d="M14.92,4.64c-.35-.05-1.05.12-1.34.37-.47.4-.09,1.09.49,1.16.33.04.88.09,1.22.13.27.04,1.57,0,1.93.11.36.12.7.16,1.03.35.51.3.96.54,1.47.82.82.45,1.73.56,2.59.42.4-.07.93.11,1.18.47.69-.3,1.1-.87,1.68-1.28-.18-.37-.5-.67-.7-1.05-.32-.62-.7-1.19-1.02-1.8-.54-1.02-1.11-2.03-1.61-3.07-.4-.85-1.1-.9-2-.97-1.01-.08-2.04-.08-3.05-.22-.48-.06-1.1-.15-1.59,0-.59.19-1.3.37-1.89.58-.4.14-1,.27-1.41.37-.24.06-.88.18-.94.48-.05.28.44.83,1.07.84.49.01.86-.21,1.36-.31.58-.11,1.17-.27,1.72-.46.55-.19,1.12-.08,1.67.03.62.12,1.18.08,1.73.42.65.4,1.11,1.81.3,2.29-.51.3-3.12.41-3.88.31Z"/><path class="cls-12" d="M14.6,4.94c-.29,0-.61.1-.86.27-.21.14-.15.33-.04.53.11.2.24.21.45.25.13.03.45.06.53-.09.04-.07-.08-.26-.07-.36.01-.15.09-.31,0-.6Z"/><path class="cls-12" d="M11.17,1.24c.18-.09.36-.13.56-.17.23-.05.45-.12.68-.17.11.16-.68.57-.8.63-.11.05-.19.09-.3.02-.09-.06-.14-.2-.14-.31Z"/><path class="cls-3" d="M24.46,6.15c-.32-.62-.7-1.19-1.02-1.8-.54-1.02-1.11-2.03-1.61-3.07-.4-.85-1.1-.9-2-.97-1.01-.08-2.04-.08-3.05-.22-.48-.06-1.1-.15-1.59,0-.59.19-1.3.37-1.89.58-.4.14-1,.27-1.41.37-.24.06-.88.18-.94.48-.02.11.05.27.18.42,0-.03-.01-.06-.01-.09.08.17.42.24.58.28.2.05.45.06.66.06.37,0,.71-.14,1.02-.32-.04-.09-.08-.18-.04-.27.07.08.12.24.21.3.11.07.36-.08.47-.12.45-.15,1-.16,1.42-.41-.07-.18,0-.35.13-.47.06.09.03.21.09.3.05-.05.03-.14.1-.17.03.05.06.15.1.19.05.04.07.02.13.01.32-.04.67-.09,1-.05.25.03.52.04.77.1.1.03.18.08.27.13.2.11.38.19.54.36.13.14.27.31.34.5-.02.02-.05.03-.08.04.47.57.68,1.62,0,2.02-.51.3-3.12.41-3.88.31-.35-.05-1.05.12-1.34.37-.47.4-.09,1.09.49,1.16.18.02.43.05.67.07.2-.01.4,0,.59,0,.24,0,.47-.04.7,0,.29.06.6.03.89.08.14.02.3,0,.44-.03.28-.06.57,0,.84.07.12.04.21.09.33.11.1.02.15.08.25.05.09-.03.24-.18.34-.16.17.05-.06.32-.07.39-.07.27.28.06.37.02.09.12-.04.19-.06.3-.02.09.09.18.17.21.1.03.21.04.31.07.03.01.07.02.11.03.29,0,.58.07.85.17.39.13.8.26,1.21.28.35.02.69-.1,1,.12.06.05.15.14.2.24.11.07.2.16.27.26.69-.3,1.1-.87,1.68-1.28-.18-.37-.5-.67-.7-1.05ZM15.63,5.47c-.01.16-.04.31-.02.47,0,.06.02.11-.01.17-.07-.01-.09-.14-.1-.19-.03-.14-.03-.29,0-.43.02-.15.02-.34.09-.48.2-.02.05.39.05.47ZM16.66,5.42c.02.09.03.2.01.29-.02.08-.08.26-.17.27.02-.1.08-.18.08-.3,0-.11-.02-.24-.09-.33-.06.2-.26.4-.21.63-.1.09-.1-.02-.09-.1.04-.21.04-.49.15-.67.16-.15.29.11.32.21Z"/><path class="cls-16" d="M15.58,5c-.07.14-.07.33-.09.48-.02.14-.02.29,0,.43.01.05.03.18.1.19.03-.06.02-.1.01-.17-.02-.16,0-.31.02-.47,0-.08.15-.49-.05-.47Z"/><path class="cls-16" d="M16.34,5.22c-.11.18-.11.47-.15.67-.01.08,0,.19.09.1-.05-.22.14-.43.21-.63.08.08.09.22.09.33,0,.11-.06.2-.08.3.09-.02.15-.2.17-.27.02-.09.01-.2-.01-.29-.03-.1-.16-.36-.32-.21Z"/><path class="cls-16" d="M18.88,2.28c-.06-.19-.2-.36-.34-.5-.16-.17-.34-.25-.54-.36-.09-.05-.17-.1-.27-.13-.24-.06-.52-.07-.77-.1-.33-.04-.67.01-1,.05-.05,0-.08.03-.13-.01-.04-.04-.07-.14-.1-.19-.07.04-.05.13-.1.17-.06-.09-.02-.21-.09-.3-.13.12-.2.29-.13.47-.41.25-.96.26-1.42.41-.11.04-.36.19-.47.12-.09-.06-.14-.22-.21-.3-.04.09,0,.18.04.27-.31.18-.66.32-1.02.32-.21,0-.45-.01-.66-.06-.16-.04-.5-.12-.58-.28,0,.03,0,.06.01.09.19.22.52.41.89.42.49.01.86-.21,1.36-.31.58-.11,1.17-.27,1.72-.46.55-.19,1.12-.08,1.67.03.62.12,1.18.08,1.73.42.11.06.21.16.3.27.03,0,.06-.02.08-.04Z"/><path class="cls-16" d="M23.01,7.97c-.31-.22-.65-.1-1-.12-.41-.02-.82-.15-1.21-.28-.27-.09-.56-.18-.85-.17-.03-.01-.07-.02-.11-.03-.1-.03-.21-.04-.31-.07-.09-.03-.19-.11-.17-.21.02-.11.15-.18.06-.3-.09.05-.44.26-.37-.02.02-.06.24-.34.07-.39-.1-.03-.25.13-.34.16-.1.03-.16-.03-.25-.05-.12-.02-.21-.08-.33-.11-.27-.08-.56-.14-.84-.07-.14.03-.3.06-.44.03-.3-.05-.6-.02-.89-.08-.23-.05-.46,0-.7,0-.19,0-.39-.02-.59,0,.2.02.39.04.54.06.27.04,1.57,0,1.93.11.36.12.7.16,1.03.35.51.3.96.54,1.47.82.82.45,1.73.56,2.59.42.29-.05.64.03.9.21-.05-.1-.14-.2-.2-.24Z"/><path class="cls-14" d="M23.95,5.03c.01.53-.2,1.1-.33,1.61-.13.52-.38,1.05-.68,1.49-.24.36-.49.74-.84.99.19.27.57.36.77.62.27-.2.49-.58.71-.83.47-.54,1.01-1.03,1.44-1.6.27-.35.46-.86.46-1.31,0-.2,0-.29-.18-.39-.32-.18-.7-.31-1.04-.43-.08-.03-.15-.05-.29-.16Z"/><path class="cls-6" d="M24.86,5.29c.34,1.09-.61,2.09-1.2,2.88-.16.21-.32.4-.45.62-.05.08-.09.18-.16.26-.19.21-.51.36-.67.58-.14.19,0,.25.17.43.4.42.84.81,1.28,1.18.18.15.42.38.65.45.14.04.14,0,.25-.07.25-.15.44-.41.63-.62.47-.53.98-1.02,1.44-1.57.48-.58,1.09-1.17,1.03-1.97-.03-.41-.39-.63-.68-.9-.62-.57-1.26-.9-2-1.23"/><path class="cls-19" d="M1.43,4.16c1.35,0,9.26-1.31,9.76-1.35"/><path class="cls-19" d="M1.86.55c1.26.47,9.12,2.05,9.61,2.2"/><line class="cls-19" x1="11.12" y1="3.07" x2="5.68" y2="4.49"/><line class="cls-19" x1="7.29" y1="6.99" x2="11.34" y2="3.08"/><line class="cls-19" x1="10.96" y1="3.4" x2="3.8" y2="7.1"/><line class="cls-19" x1="10.96" y1="2.66" x2="6.32" y2="2.66"/><path class="cls-11" d="M11.94,5.41c.13.2,3.84,6.94,3.84,6.94l.63-.29-3.84-6.88-.63.23"/><path class="cls-8" d="M2.99,2.61s-.03,0-.06,0c-.03-.01-.02-.03-.02-.06,0-.03-.02-.05-.02-.05h0s.09,0,.09,0h0s.01.1,0,.12Z"/><path class="cls-8" d="M3.2,2.6s0,.02-.01.05c-.01.03-.02.04-.04.02-.02-.01-.02-.03-.01-.06.01-.03.01-.07.01-.07h.01s0,.01,0,.01c0,0,0,0,0,0,0,0,.02.02.03.03Z"/><path class="cls-9" d="M2.59,2.45s.21-.05.37-.08.27-.02.29.03-.08.03-.22.07-.23.01-.28,0-.13,0-.13,0l-.02-.04Z"/><path class="cls-9" d="M2.6,2.56s.26-.03.37-.03.21-.01.26-.02.04-.05,0-.07-.14,0-.22,0-.36.04-.39.05-.03.03-.03.03v.05Z"/><path class="cls-1" d="M3.31,2.71c-.05.02-.04,0-.08.02-.04.02-.04,0-.11.02-.07.01-.12,0-.2-.03-.08-.03-.14-.1-.14-.1l-.14-.05-.02-.07s.13,0,.25,0h-.09s.04.06.04.09c0,.03.07.03.08.02.01-.01-.03-.11-.03-.11.01,0,.02,0,.03,0,0,0,.02.03.02.05,0,.03,0,.05.02.06.02.01.05.03.06,0,0-.02.03-.09,0-.12.02,0,.04,0,.05,0,0,0,0,.05-.01.08-.02.03-.01.04.01.05.03.01.04.02.06,0,.01-.03.02-.08.01-.1.02,0,.03.02.04.02,0,0,0,.04-.01.07-.01.03-.01.05.01.06.02.01.03,0,.04-.02.01-.03.01-.05.01-.05.03.03.06.05.09.06.04.01.08.02.03.05Z"/><path class="cls-3" d="M2.89,2.6s-.08,0-.08-.02c0-.03-.04-.09-.04-.09h.09s.04.09.03.11Z"/><path class="cls-8" d="M3.11,2.52h0s0,.08-.01.1c-.01.03-.03.02-.06,0-.03-.01-.03-.02-.01-.05.02-.03.01-.08.01-.08t0,0s.01,0,.02,0c.02,0,.04.01.06.02,0,0,0,0,0,0Z"/><path class="cls-2" d="M3.31,2.71c-.05.02-.04,0-.08.02-.04.02-.04,0-.11.02-.07.01-.12,0-.2-.03-.08-.03-.14-.1-.14-.1l-.14-.05-.02-.07s.13,0,.25,0h-.09s.04.06.04.09c0,.03.07.03.08.02.01-.01-.03-.11-.03-.11.01,0,.02,0,.03,0,0,0,.02.03.02.05,0,.03,0,.05.02.06.02.01.05.03.06,0,0-.02.03-.09,0-.12.02,0,.04,0,.05,0,0,0,0,.05-.01.08-.02.03-.01.04.01.05.03.01.04.02.06,0,.01-.03.02-.08.01-.1.02,0,.03.02.04.02,0,0,0,.04-.01.07-.01.03-.01.05.01.06.02.01.03,0,.04-.02.01-.03.01-.05.01-.05.03.03.06.05.09.06.04.01.08.02.03.05Z"/><path class="cls-8" d="M2.52,2.64s-.04-.04-.03-.09.04-.06.07-.1.06-.06.09-.06c0,0-.04.02-.06.04s.05-.03.07-.04c0,0-.05.03-.06.05s0,.03.03.02.05-.03.08-.03c0,0-.03,0-.07.03s0,.06,0,.08-.03.04-.05.06-.02.03-.04.04-.03,0-.04,0Z"/><path class="cls-8" d="M2.56,2.64s.03.02.06.01.05.02.1.02.05-.02.06-.05-.04-.08-.04-.08h-.1s-.07.1-.07.1Z"/><path class="cls-8" d="M2.86,2.49h-.09s.03.05.03.07,0,.04.03.05.06,0,.06,0-.02-.09-.03-.11Z"/><path class="cls-8" d="M2.84,2.62l-.05.19s.04.08.04.14.08.29.11.33c0,0-.09-.2-.1-.32s-.04-.15-.04-.15l.04-.19Z"/><path class="cls-8" d="M3.05,2.68l.06.16s.3.12.36.15.35.03.35.03c0,0-.31-.02-.34-.04s-.36-.15-.36-.15l-.07-.15Z"/><path class="cls-8" d="M2.53,2.62s-.02.02-.01.05,0,.05.03.06.04.01.06,0,.02-.07,0-.09-.06-.04-.08-.02Z"/><path class="cls-8" d="M2.55,2.7s-.14.12-.22.23c0,0,.18-.2.23-.22s-.01,0-.01,0Z"/><path class="cls-8" d="M2.54,2.69s-.17-.06-.21-.08-.11-.1-.11-.1c0,0,.08.09.15.11s.17.06.17.06h0Z"/><path class="cls-8" d="M2.71,2.5s0-.24,0-.26.02-.02.04.01.15.18.17.2.13-.05.13-.05c0,0-.1.08-.13.08s-.16-.18-.18-.2,0,.07,0,.14.01.09.01.09h-.05Z"/><path class="cls-8" d="M2.69,2.51s0-.23,0-.26,0-.03.02-.03,0,.01.02.29h-.04Z"/><path class="cls-8" d="M2.61,2.49s-.11-.19-.14-.18,0,.02.01.05.08.12.08.12h.04Z"/><path class="cls-8" d="M2.48,2.31s-.02-.01,0,.03.11.22.06.28-.2.13-.33.12c0,0,.18.04.36-.14,0,0-.01-.16-.06-.24v-.05Z"/><path class="cls-8" d="M.51,6.39s-.02,0-.03-.02c-.01-.01,0-.03,0-.04,0-.02,0-.04,0-.04h0s.05.02.05.02h0s-.02.07-.03.08Z"/><path class="cls-8" d="M.64,6.44s0,.01-.02.03c-.01.02-.02.02-.03,0-.01-.01,0-.02,0-.04.01-.02.03-.05.03-.05h0s0,.01,0,.01c0,0,0,0,0,0,0,0,0,.02.01.03Z"/><path class="cls-9" d="M.31,6.19s.14.02.24.04.17.05.17.09-.05,0-.15,0-.14-.05-.17-.06-.08-.03-.08-.03v-.03Z"/><path class="cls-9" d="M.28,6.27s.17.04.23.07.13.04.16.05.04-.02.02-.05-.08-.04-.13-.05-.23-.06-.25-.06-.03,0-.03,0v.04Z"/><path class="cls-1" d="M.68,6.53s-.03,0-.05,0c-.03,0-.03,0-.07-.02-.04,0-.07-.04-.11-.07-.04-.04-.06-.1-.06-.1l-.07-.06v-.05s.08.03.15.06l-.05-.02s0,.04,0,.07c0,.02.03.04.04.03,0,0,0-.08,0-.08,0,0,.01,0,.02,0,0,0,0,.02,0,.04,0,.02-.02.03,0,.04.01.01.02.03.03.02,0-.01.04-.05.03-.08.01,0,.02.01.03.02,0,0,0,.03-.03.05-.02.02-.02.02,0,.04.01.01.02.02.04,0,.01-.01.03-.05.03-.07,0,0,.01.02.02.02,0,0-.01.03-.03.05-.01.02-.02.03,0,.04.01.01.02.01.03,0,.01-.02.02-.03.02-.03,0,.02.02.05.04.06.02.02.04.04,0,.04Z"/><path class="cls-3" d="M.45,6.36s-.05-.01-.04-.03c0-.02,0-.07,0-.07l.05.02s0,.07,0,.08Z"/><path class="cls-8" d="M.6,6.36h0s-.02.05-.03.07c-.01.01-.02,0-.04,0-.01-.01-.02-.02,0-.04.02-.02.03-.05.03-.05t0,0s0,0,0,0c.01,0,.02.02.03.03,0,0,0,0,0,0Z"/><path class="cls-2" d="M.68,6.53s-.03,0-.05,0c-.03,0-.03,0-.07-.02-.04,0-.07-.04-.11-.07-.04-.04-.06-.1-.06-.1l-.07-.06v-.05s.08.03.15.06l-.05-.02s0,.04,0,.07c0,.02.03.04.04.03,0,0,0-.08,0-.08,0,0,.01,0,.02,0,0,0,0,.02,0,.04,0,.02-.02.03,0,.04.01.01.02.03.03.02,0-.01.04-.05.03-.08.01,0,.02.01.03.02,0,0,0,.03-.03.05-.02.02-.02.02,0,.04.01.01.02.02.04,0,.01-.01.03-.05.03-.07,0,0,.01.02.02.02,0,0-.01.03-.03.05-.01.02-.02.03,0,.04.01.01.02.01.03,0,.01-.02.02-.03.02-.03,0,.02.02.05.04.06.02.02.04.04,0,.04Z"/><path class="cls-8" d="M.22,6.29s-.02-.04,0-.06.04-.03.06-.05.05-.02.07-.02c0,0-.03,0-.04.02s.04-.01.05,0c0,0-.04,0-.05.01s0,.02.01.02.04,0,.06,0c0,0-.02,0-.05,0s-.02.04-.02.05-.03.02-.04.03-.02.02-.03.01-.02,0-.02,0Z"/><path class="cls-8" d="M.25,6.3s.01.02.03.02.02.03.05.03.04,0,.05-.02,0-.06,0-.06l-.06-.02-.06.04Z"/><path class="cls-8" d="M.46,6.28l-.05-.02s0,.04,0,.05,0,.03,0,.04.03.02.04.01,0-.07,0-.08Z"/><path class="cls-8" d="M.42,6.36l-.07.11s0,.06,0,.1-.02.21,0,.24c0,0,0-.15.01-.23s0-.11,0-.11l.07-.11Z"/><path class="cls-8" d="M.53,6.46v.12s.15.15.18.18.21.11.21.11c0,0-.18-.09-.2-.11s-.18-.19-.18-.19v-.12Z"/><path class="cls-8" d="M.23,6.29s-.02,0-.02.03,0,.03,0,.05.02.02.04.02.03-.04.02-.06-.03-.04-.04-.03Z"/><path class="cls-8" d="M.22,6.34s-.11.04-.19.09c0,0,.16-.09.19-.08s0,0,0,0Z"/><path class="cls-8" d="M.22,6.33s-.09-.08-.11-.1-.04-.1-.04-.1c0,0,.03.08.06.11s.09.08.09.08h0Z"/><path class="cls-8" d="M.37,6.25s.06-.16.06-.17.02,0,.02.02.05.16.06.17.09,0,.09,0c0,0-.08.03-.09.02s-.05-.16-.06-.18-.02.04-.04.09-.01.06-.01.06h-.03Z"/><path class="cls-8" d="M.35,6.25s.05-.15.06-.17,0-.02.02-.02,0,.01-.05.2h-.02Z"/><path class="cls-8" d="M.31,6.22s-.02-.15-.04-.15,0,.01,0,.03.02.1.02.1l.02.02Z"/><path class="cls-8" d="M.27,6.07s0-.01-.01.02.01.17-.03.2-.15.04-.23,0c0,0,.1.07.25,0,0,0,.03-.11.02-.17v-.03Z"/><path class="cls-8" d="M3.85,5.49s-.02,0-.03-.02c-.01-.01,0-.03,0-.04,0-.02,0-.04,0-.04h0s.05.02.05.02h0s-.02.07-.03.08Z"/><path class="cls-8" d="M3.98,5.54s0,.01-.02.03c-.01.02-.02.02-.03,0-.01-.01,0-.02,0-.04.01-.02.03-.05.03-.05h0s0,.01,0,.01c0,0,0,0,0,0,0,0,0,.02.01.03Z"/><path class="cls-9" d="M3.65,5.29s.14.02.24.04.17.05.17.09-.05,0-.15,0-.14-.05-.17-.06-.08-.03-.08-.03v-.03Z"/><path class="cls-9" d="M3.63,5.36s.17.04.23.07.13.04.16.05.04-.02.02-.05-.08-.04-.13-.05-.23-.06-.25-.06-.03,0-.03,0v.04Z"/><path class="cls-1" d="M4.02,5.63s-.03,0-.05,0c-.03,0-.03,0-.07-.02-.04,0-.07-.04-.11-.07-.04-.04-.06-.1-.06-.1l-.07-.06v-.05s.08.03.15.06l-.05-.02s0,.04,0,.07c0,.02.03.04.04.03,0,0,0-.08,0-.08,0,0,.01,0,.02,0,0,0,0,.02,0,.04,0,.02-.02.03,0,.04.01.01.02.03.03.02,0-.01.04-.05.03-.08.01,0,.02.01.03.02,0,0,0,.03-.03.05-.02.02-.02.02,0,.04.01.01.02.02.04,0,.01-.01.03-.05.03-.07,0,0,.01.02.02.02,0,0-.01.03-.03.05-.01.02-.02.03,0,.04.01.01.02.01.03,0,.01-.02.02-.03.02-.03,0,.02.02.05.04.06.02.02.04.04,0,.04Z"/><path class="cls-3" d="M3.79,5.46s-.05-.01-.04-.03c0-.02,0-.07,0-.07l.05.02s0,.07,0,.08Z"/><path class="cls-8" d="M3.94,5.46h0s-.02.05-.03.07c-.01.01-.02,0-.04,0-.01-.01-.02-.02,0-.04.02-.02.03-.05.03-.05t0,0s0,0,0,0c.01,0,.02.02.03.03,0,0,0,0,0,0Z"/><path class="cls-2" d="M4.02,5.63s-.03,0-.05,0c-.03,0-.03,0-.07-.02-.04,0-.07-.04-.11-.07-.04-.04-.06-.1-.06-.1l-.07-.06v-.05s.08.03.15.06l-.05-.02s0,.04,0,.07c0,.02.03.04.04.03,0,0,0-.08,0-.08,0,0,.01,0,.02,0,0,0,0,.02,0,.04,0,.02-.02.03,0,.04.01.01.02.03.03.02,0-.01.04-.05.03-.08.01,0,.02.01.03.02,0,0,0,.03-.03.05-.02.02-.02.02,0,.04.01.01.02.02.04,0,.01-.01.03-.05.03-.07,0,0,.01.02.02.02,0,0-.01.03-.03.05-.01.02-.02.03,0,.04.01.01.02.01.03,0,.01-.02.02-.03.02-.03,0,.02.02.05.04.06.02.02.04.04,0,.04Z"/><path class="cls-8" d="M3.56,5.39s-.02-.04,0-.06.04-.03.06-.05.05-.02.07-.02c0,0-.03,0-.04.02s.04-.01.05,0c0,0-.04,0-.05.01s0,.02.01.02.04,0,.06,0c0,0-.02,0-.05,0s-.02.04-.02.05-.03.02-.04.03-.02.02-.03.01-.02,0-.02,0Z"/><path class="cls-8" d="M3.59,5.4s.01.02.03.02.02.03.05.03.04,0,.05-.02,0-.06,0-.06l-.06-.02-.06.04Z"/><path class="cls-8" d="M3.8,5.38l-.05-.02s0,.04,0,.05,0,.03,0,.04.03.02.04.01,0-.07,0-.08Z"/><path class="cls-8" d="M3.76,5.46l-.07.11s0,.06,0,.1-.02.21,0,.24c0,0,0-.15.01-.23s0-.11,0-.11l.07-.11Z"/><path class="cls-8" d="M3.87,5.55v.12s.15.15.18.18.21.11.21.11c0,0-.18-.09-.2-.11s-.18-.19-.18-.19v-.12Z"/><path class="cls-8" d="M3.57,5.39s-.02,0-.02.03,0,.03,0,.05.02.02.04.02.03-.04.02-.06-.03-.04-.04-.03Z"/><path class="cls-8" d="M3.56,5.44s-.11.04-.19.09c0,0,.16-.09.19-.08s0,0,0,0Z"/><path class="cls-8" d="M3.56,5.43s-.09-.08-.11-.1-.04-.1-.04-.1c0,0,.03.08.06.11s.09.08.09.08h0Z"/><path class="cls-8" d="M3.71,5.35s.06-.16.06-.17.02,0,.02.02.05.16.06.17.09,0,.09,0c0,0-.08.03-.09.02s-.05-.16-.06-.18-.02.04-.04.09-.01.06-.01.06h-.03Z"/><path class="cls-8" d="M3.69,5.35s.05-.15.06-.17,0-.02.02-.02,0,.01-.05.2h-.02Z"/><path class="cls-8" d="M3.65,5.32s-.02-.15-.04-.15,0,.01,0,.03.02.1.02.1l.02.02Z"/><path class="cls-8" d="M3.61,5.17s0-.01-.01.02.01.17-.03.2-.15.04-.23,0c0,0,.1.07.25,0,0,0,.03-.11.02-.17v-.03Z"/><path class="cls-8" d="M4.11,8.74s-.03,0-.05,0c-.02,0-.02-.03-.02-.05,0-.03-.03-.05-.03-.05h0s.07,0,.07,0h0s.03.09.02.11Z"/><path class="cls-8" d="M4.29,8.71s0,.02,0,.05c0,.03-.01.03-.03.03-.02,0-.02-.02-.02-.05,0-.03,0-.07,0-.07h.01s0,.01,0,.01c0,0,0,0,0,0,0,0,.02.02.03.03Z"/><path class="cls-9" d="M3.75,8.64s.17-.07.3-.11.22-.05.25,0-.06.04-.17.08-.19.03-.24.04-.11.02-.11.02l-.03-.03Z"/><path class="cls-9" d="M3.78,8.74s.22-.06.3-.07.18-.03.21-.05.03-.05,0-.07-.12.01-.19.03-.3.07-.32.09-.02.03-.02.03l.02.04Z"/><path class="cls-1" d="M4.4,8.79s-.04,0-.07.03c-.03.02-.04,0-.09.03-.06.02-.1,0-.18-.01-.07-.02-.13-.07-.13-.07l-.12-.03-.03-.06s.11-.02.21-.03h-.07s.04.06.05.08c0,.03.06.02.07.01,0-.01-.04-.09-.04-.09,0,0,.02,0,.03,0,0,0,.02.02.03.05,0,.03,0,.05.02.05.02,0,.04.02.05,0,0-.02.01-.08-.02-.11.02,0,.03,0,.04,0,0,0,.01.04,0,.07,0,.03,0,.04.02.04.03,0,.04.01.05-.01,0-.02,0-.07,0-.09.02,0,.03.01.03.02,0,0,0,.04,0,.07,0,.03,0,.04.02.05.02,0,.03,0,.03-.03,0-.03,0-.05,0-.05.03.02.06.04.08.05.04,0,.07.01.03.04Z"/><path class="cls-3" d="M4.03,8.74s-.06.02-.07-.01c0-.03-.05-.07-.05-.07h.07s.05.07.04.08Z"/><path class="cls-8" d="M4.2,8.65h0s.01.07,0,.09c0,.02-.02.02-.05.01-.03,0-.03-.01-.02-.04,0-.03,0-.07,0-.07t0,0s0,0,.01,0c.02,0,.04,0,.05.01,0,0,0,0,0,0Z"/><path class="cls-2" d="M4.4,8.79s-.04,0-.07.03c-.03.02-.04,0-.09.03-.06.02-.1,0-.18-.01-.07-.02-.13-.07-.13-.07l-.12-.03-.03-.06s.11-.02.21-.03h-.07s.04.06.05.08c0,.03.06.02.07.01,0-.01-.04-.09-.04-.09,0,0,.02,0,.03,0,0,0,.02.02.03.05,0,.03,0,.05.02.05.02,0,.04.02.05,0,0-.02.01-.08-.02-.11.02,0,.03,0,.04,0,0,0,.01.04,0,.07,0,.03,0,.04.02.04.03,0,.04.01.05-.01,0-.02,0-.07,0-.09.02,0,.03.01.03.02,0,0,0,.04,0,.07,0,.03,0,.04.02.05.02,0,.03,0,.03-.03,0-.03,0-.05,0-.05.03.02.06.04.08.05.04,0,.07.01.03.04Z"/><path class="cls-8" d="M3.72,8.81s-.04-.03-.04-.07.03-.06.04-.09.04-.06.06-.07c0,0-.03.02-.04.05s.04-.04.06-.04c0,0-.04.03-.05.05s.01.03.03.02.04-.03.07-.03c0,0-.03,0-.05.03s0,.05,0,.07-.02.04-.03.06-.01.03-.03.04-.02.01-.03,0Z"/><path class="cls-8" d="M3.76,8.81s.03.02.05,0,.05.01.08,0,.04-.03.04-.05-.05-.07-.05-.07l-.08.02-.04.09Z"/><path class="cls-8" d="M3.99,8.65h-.07s.03.05.04.06,0,.04.03.04.05,0,.05-.01-.03-.08-.04-.09Z"/><path class="cls-8" d="M3.99,8.76v.18s.04.07.05.12.11.25.15.28c0,0-.11-.17-.14-.28s-.06-.13-.06-.13v-.17Z"/><path class="cls-8" d="M4.18,8.8l.08.14s.27.08.33.09.3,0,.3,0c0,0-.26.01-.29,0s-.33-.1-.33-.1l-.09-.13Z"/><path class="cls-8" d="M3.72,8.8s-.01.02,0,.04.01.04.03.05.04,0,.06,0,0-.06-.01-.08-.06-.03-.07,0Z"/><path class="cls-8" d="M3.75,8.87s-.1.12-.15.22c0,0,.12-.2.16-.22s-.01,0-.01,0Z"/><path class="cls-8" d="M3.75,8.86s-.15-.04-.19-.05-.11-.08-.11-.08c0,0,.08.07.14.09s.16.04.16.04h0Z"/><path class="cls-8" d="M3.86,8.67s-.03-.22-.03-.23.01-.02.04,0,.16.14.18.16.1-.06.1-.06c0,0-.07.08-.1.08s-.16-.15-.18-.16,0,.06.02.13.02.08.02.08h-.04Z"/><path class="cls-8" d="M3.84,8.68s-.03-.2-.04-.23,0-.03,0-.03.01.01.07.26h-.04Z"/><path class="cls-8" d="M3.78,8.68s-.12-.15-.14-.15,0,.02.02.04.09.1.09.1h.04Z"/><path class="cls-8" d="M3.63,8.53s-.02,0,0,.03.13.19.09.25-.15.14-.26.15c0,0,.16.01.28-.17,0,0-.04-.14-.09-.21l-.02-.04Z"/></g></g></svg>