<?xml version="1.0" encoding="UTF-8"?><svg id="Livello_1" xmlns="http://www.w3.org/2000/svg" viewBox="0 0 19.45 28.93"><defs><style>.cls-1{fill:#85a5c3;}.cls-1,.cls-2,.cls-3{stroke-width:0px;}.cls-2{fill:#91b5d6;}.cls-3{fill:#657889;}</style></defs><rect class="cls-1" width="19.45" height="28.93" rx=".92" ry=".92"/><rect class="cls-2" x="1.25" y=".89" width="17.01" height="26.07"/><rect class="cls-1" x="5.36" y="8.16" width="8.8" height="1.18"/><rect class="cls-1" x="2.33" y="2.82" width="8.8" height="1.01"/><rect class="cls-1" x="2.33" y="4.18" width="13.95" height=".51"/><rect class="cls-1" x="2.33" y="5.03" width="13.95" height=".51"/><rect class="cls-1" x="2.33" y="5.88" width="13.95" height=".51"/><rect class="cls-1" x="2.33" y="7.75" width="2.1" height="2.1"/><rect class="cls-1" x="4.99" y="7.73" width="11.29" height=".33"/><rect class="cls-1" x="4.99" y="8.25" width="11.29" height=".33"/><rect class="cls-1" x="4.99" y="8.77" width="11.29" height=".33"/><rect class="cls-1" x="4.99" y="9.28" width="7.23" height=".33"/><rect class="cls-1" x="2.33" y="11.24" width="2.1" height="2.1"/><path class="cls-3" d="M2.62,8.35s.61.43.67.74.54-.97,1.41-1.68c.2-.17-.52.18-1.28,1.25,0,0-.46-.33-.81-.3Z"/><path class="cls-3" d="M2.62,11.84s.61.43.67.74.54-.97,1.41-1.68c.2-.17-.52.18-1.28,1.25,0,0-.46-.33-.81-.3Z"/><rect class="cls-1" x="4.99" y="11.22" width="11.29" height=".33"/><rect class="cls-1" x="4.99" y="11.73" width="11.29" height=".33"/><rect class="cls-1" x="4.99" y="12.25" width="11.29" height=".33"/><rect class="cls-1" x="4.99" y="12.77" width="7.23" height=".33"/><rect class="cls-1" x="2.33" y="14.74" width="2.1" height="2.1"/><rect class="cls-1" x="4.99" y="14.72" width="11.29" height=".33"/><rect class="cls-1" x="4.99" y="15.24" width="11.29" height=".33"/><rect class="cls-1" x="4.99" y="15.75" width="11.29" height=".33"/><rect class="cls-1" x="4.99" y="16.27" width="7.23" height=".33"/><rect class="cls-3" x="6.95" y="8.43" width="5.61" height=".45"/></svg>