<?xml version="1.0" encoding="UTF-8"?><svg id="Livello_1" xmlns="http://www.w3.org/2000/svg" viewBox="0 0 32.54 19.75"><defs><style>.cls-1{fill:#cdced6;}.cls-1,.cls-2,.cls-3,.cls-4,.cls-5,.cls-6,.cls-7,.cls-8,.cls-9,.cls-10,.cls-11,.cls-12,.cls-13,.cls-14,.cls-15,.cls-16,.cls-17,.cls-18,.cls-19,.cls-20,.cls-21,.cls-22,.cls-23,.cls-24,.cls-25{stroke-width:0px;}.cls-2{fill:#7796af;}.cls-3{fill:#81a4ca;opacity:.53;}.cls-4{opacity:.2;}.cls-4,.cls-13,.cls-24{fill:#000;}.cls-5{opacity:.63;}.cls-5,.cls-10,.cls-16{fill:#fff;}.cls-6{fill:#c2e0f2;}.cls-7{fill:#dbebeb;}.cls-8{fill:#86a9c4;}.cls-9{fill:#506776;}.cls-10{opacity:.57;}.cls-11{fill:#9bc1e5;}.cls-12{fill:#678aae;}.cls-13{opacity:.15;}.cls-14{fill:#85a5c3;}.cls-15{fill:#6083a7;}.cls-16{opacity:.28;}.cls-17{fill:#334b3e;}.cls-18{fill:#91b5d6;}.cls-19{fill:#5e7e99;}.cls-20{fill:#7da1bc;}.cls-21{fill:#2a3a3c;}.cls-22{fill:#bacbd5;}.cls-23{fill:#567796;}.cls-24{opacity:.3;}.cls-25{fill:#cfdde9;}</style></defs><path class="cls-7" d="M16.52,4.59H1.56l1.31,13.35c.1,1.04.75,1.82,1.52,1.82h24.27c.77,0,1.42-.78,1.52-1.82l1.31-13.35h-14.97Z"/><path class="cls-2" d="M3.46,8.22c-.02-.19-.03-.39.03-.57.11-.31.42-.51.73-.61.27-.08.56-.11.84-.14,1.6-.17,3.19-.33,4.79-.5.4-.04.81-.08,1.2.03.4.11.74.37,1.1.6.68.43,1.44.73,2.2,1,.06.02.12.05.13.1,0,.03,0,.07-.01.1-.72,2.2-2.12,4.18-3.95,5.6-.73.57-1.56,1.06-2.48,1.15-.54.06-1.09-.03-1.62.07-.56.1-1.08.38-1.65.44-.76.08-.69-.3-.74-.94-.12-1.34-.24-2.69-.36-4.03-.07-.77-.14-1.53-.21-2.3Z"/><path class="cls-6" d="M3.62,8.1l.72,7.33h10.42l-.22-7.27-10.28-.71c-.37-.03-.67.29-.64.65Z"/><path class="cls-8" d="M5.09,7.08c1.36.1,2.72.23,4.08.35.49.05.98.09,1.47.14.33.03.66.06.99.09.99.09,1.99.19,2.96.44-.78-.43-1.56-.85-2.34-1.28-.31-.17-.62-.34-.95-.42-.26-.06-.53-.07-.8-.08-1.74-.02-3.46.24-5.16.55-.47.09-.93-.02-1.42.27.57-.02.78-.1,1.18-.07Z"/><path class="cls-14" d="M5.23,8.81c-.2.19-.35.45-.38.73-.03.28.07.58.28.76.21.18.55.22.78.07-.24,0-.45-.19-.51-.42-.06-.23,0-.48.14-.68.09-.12.21-.23.36-.26.15-.03.32.05.36.2.07-.23.13-.63-.18-.71-.3-.08-.65.12-.85.31Z"/><path class="cls-14" d="M6.84,11.69c.25-.13.55-.15.83-.11.22.04.44.12.58.28.17.19.21.45.24.7.02-.14-.1-.26-.23-.33-.22-.11-.48-.11-.71-.06-.18.04-.36.13-.49.26-.13.13-.22.32-.2.5,0,0-.27-.2-.3-.25-.06-.09-.15-.24-.17-.35-.04-.27.24-.54.45-.65Z"/><path class="cls-15" d="M5.32,13.82c-.05.16-.05.34.02.5.07.15.22.28.39.3-.07-.11-.13-.22-.15-.35-.02-.13.02-.27.13-.34.05-.03.1-.05.16-.06.05-.01.1-.02.15-.01.05,0,.1.03.12.08,0-.12-.02-.25-.09-.35-.24-.36-.64-.08-.73.23Z"/><path class="cls-14" d="M10.79,9.69c.44-.39,1.11-.48,1.64-.23.13.06.26.15.35.27.09.12.13.27.11.42-.1-.1-.24-.14-.38-.16-.46-.07-.96.06-1.3.39-.34.32-.49.84-.35,1.29-.05-.15-.41-.23-.51-.37-.09-.14-.09-.38-.08-.54.03-.4.21-.8.51-1.06Z"/><path class="cls-14" d="M9.66,13.19c-.12.22-.13.51-.01.73.12.23.36.38.62.37-.18-.08-.29-.27-.3-.47-.01-.19.07-.39.21-.53.09-.09.2-.15.32-.16.12-.01.25.04.32.14-.07-.11-.04-.25-.16-.36-.06-.06-.21-.19-.3-.21-.26-.07-.6.29-.7.49Z"/><path class="cls-15" d="M19.13,8.91c-.07-.11-.12-.23-.19-.34-.11-.16-.26-.29-.43-.37.38,0,.67.36,1.05.45.19.05.39.02.58.02.5-.01.98.11,1.47.23-.21-.14-.42-.27-.64-.41-.22-.14-.46-.3-.55-.55-.11-.29,0-.61.13-.89.09-.18.21-.38.41-.42-.25.22-.25.63-.08.92.17.29.46.48.74.67.27.18.54.35.81.53.01,0,.03.02.04.02.02,0,.03-.01.04-.02.26-.23.49-.52.6-.85.11-.33.1-.71-.08-1.01.25.13.3.47.27.75-.04.37-.15.73-.32,1.06.16.06.33-.03.47-.13.14-.1.27-.23.38-.36.16-.2.3-.42.47-.61.29-.31.69-.51,1.11-.55-.37.17-.64.49-.86.82-.22.33-.42.69-.69.99-.26.28-.59.49-.93.67-.3.17-.63.33-.98.33-.3,0-.56-.11-.8-.28-.15-.11-.28-.25-.47-.25-.29,0-.52.14-.82.07-.29-.06-.56-.24-.72-.48Z"/><path class="cls-15" d="M21.43,6.52c.05-.15.11-.32.25-.4.22-.13.49,0,.7.13.06.04.13.09.12.16,0,.04-.03.07-.06.09-.27.29-.53.6-.61.98-.09.42.07.85.22,1.26.02.06.04.12.04.19-.02.31-.43.28-.6.13-.17-.14-.15-.38-.18-.58-.09-.67-.08-1.31.12-1.97Z"/><path class="cls-20" d="M28.63,14.66c-.08-.82-.37-1.61-.68-2.37-.6-1.45-1.41-2.91-2.75-3.72-.27-.17-.59-.31-.91-.25-.22.04-.41.17-.63.22-.21.05-.44,0-.65-.04-.31-.07-.63-.16-.95-.18-.32-.02-.66.05-.91.25-.12.1-.22.24-.35.33-.22.16-.5.21-.74.35-.16.09-.28.22-.38.37-.71.7-.94,1.81-.73,2.79.23,1.07.9,1.99,1.68,2.75.82.8,2.18,2,3.22,2.48,1.32.61,1.92.48,3.19.83.25-.54.73-.93,1.06-1.42.46-.69.59-1.55.51-2.37Z"/><path class="cls-15" d="M27.94,12.29c-.06-.15-.13-.31-.2-.46.03.11.05.22.07.33.14.75.49,1.83.21,2.54-.16.4-.62,2.4-3.22,1.38-1.07-.42-2.06-1.02-2.89-1.81-.88-.83-1.69-1.76-2.14-2.88-.15-.38-.26-.79-.25-1.21,0-.17.04-.34.09-.5-.65.7-.85,1.76-.65,2.71.23,1.07.9,1.99,1.68,2.75.82.8,2.18,2,3.22,2.48,1.32.61,1.92.48,3.19.83.25-.54.73-.93,1.06-1.42.46-.69.59-1.55.51-2.37-.08-.82-.37-1.61-.68-2.37Z"/><path class="cls-15" d="M21.3,8.46c-.38.18-.64.58-.71,1-.07.42.03.85.2,1.24.17.39.42.74.66,1.08-.27-.52-.49-1.07-.56-1.65-.07-.58.04-1.19.37-1.67-.08.05-.15.1-.23.15l.25-.14Z"/><path class="cls-15" d="M24.27,8.31c-.38.08-.67.42-.77.79s-.03.78.12,1.14c-.18-.16-.25-.4-.33-.62-.12-.36-.28-.71-.53-1-.1-.11-.21-.22-.35-.26.31-.09.64.04.96.04.23,0,.44-.08.66-.12.22-.04.46-.05.66.06-.14-.07-.32-.07-.46,0-.08.04-.16.09-.23.05l.28-.07Z"/><path class="cls-16" d="M24.32,9.31c.06.2.2.36.35.5.35.35.72.69,1.02,1.09.31.39.55.85.61,1.34.01.1.07.24.17.2.02-.01.04-.03.06-.06.11-.17.12-.38.12-.58-.02-1.07-.59-2.12-1.47-2.72-.15-.1-.46-.31-.65-.28-.21.04-.25.33-.21.51Z"/><path class="cls-16" d="M26.4,13.53c0,.21.05.43.17.61.02.03.05.07.09.07.04,0,.08-.02.12-.05.27-.25.31-.7.1-1.01-.24-.34-.48.15-.49.38Z"/><path class="cls-18" d="M17.58,9.25s2.54,2.83,7.03,3.55c3.52.67,3.89,3.77,2.38,5.32-1.96,2.02-5.63,2.38-8.77-1.15-2.68-3.02-4.84-5.37-4.36-7.83.54-3.04,3.72.11,3.72.11Z"/><path class="cls-15" d="M15.59,11.52s1.97,3.64,4.33,5.08c3.81,2.01,5.59.97,6.02.8.81-.33,1.34.13,1.31.41-.77,1.01-5.82,5.96-12.96-5.97l-.41-1.48,1.11-.28.6,1.43Z"/><path class="cls-8" d="M14.44,7.39s-.72-.78-.99-1.36-.53-.21-.53-.21c0,0-.39.24,0,.92s.58,1.51.58,1.51c0,0-.3.55-.31,1.18s.48,1.29.48,1.29c0,0,.52.71.15,1.51-.09.23.25-.06.25-.06,0,0,.38-.06.37-1.33,0,0,.72,1.01,2.23.66,0,0-1.02-.96-.67-2.43,0,0,.86.68,1.95.09.1-.06-.21-.22-.21-.22,0,0-.59-.2-1.1-.8s-1.05-.9-2.2-.74Z"/><path class="cls-15" d="M16.68,11.49s-.63,0-1.13-.2c-.25-.1-.51-.18-.95-.56-.17-.14-.15.1-.15.1,0,0,.63.99,2.23.66Z"/><path class="cls-15" d="M17.96,9.14s-.52.13-.96.06c-.22-.03-.45-.05-.86-.29-.16-.09-.12.14-.12.14,0,0,.88.69,1.95.09Z"/><path class="cls-15" d="M12.82,5.93s-.2.25.11.81c.38.73.58,1.51.58,1.51,0,0,.07.06.28-.11.04-.06-.07-.34-.32-.79-.12-.22-.3-.46-.46-.79-.1-.21-.1-.34-.2-.63Z"/><path class="cls-10" d="M25.88,16.65s0-.53-.53-.52-2.58-.04-3.84-.43c-1.55-.49-1.95-.86-1.95-.86,0,0,.79,1.13,1.85,1.74s2.58.67,3.34.59c.98-.1,1.13-.52,1.13-.52Z"/><path class="cls-10" d="M14.66,7.75s.24-.27.73-.15,1,.74,1,.74c0,0,.11.13.22.16s-.52-.07-1.09-.44c-.25-.16-.85-.32-.85-.32Z"/><path class="cls-22" d="M6.6,11.19c-.05.04-1.09.64-1.59,1.96-.5,1.32-.18,3.63.69,4.65,1.69,2,3.77.59,3.77.59l-2.87-7.21Z"/><path class="cls-1" d="M6.88,11.89l-.28-.7s-.03.02-.07.05l.35.66Z"/><path class="cls-22" d="M9.33,18.04c-.72.34-1.96.62-3.2-.56-.78-.74-1.3-2.33-1.3-3.63-.21,1.33.14,3.09.86,3.96,1.69,2,3.77.59,3.77.59l-.14-.36Z"/><path class="cls-25" d="M6.93,11.12c-.38-.22-1.49,1.12-1.25,3.46.23,2.35,1.53,3.39,2.45,3.81.92.42,2.03.11,1.75-1.46-.28-1.58-1.37-4.88-2.95-5.81Z"/><path class="cls-18" d="M7.57,13.98c-.52-.13-1.13.4-1.02,1.35.09.78.87,1.79,1.53,1.94s1.33-.31,1.16-1.22c-.16-.85-.78-1.85-1.67-2.08Z"/><path class="cls-14" d="M7.47,14.28c.89.23,1.5,1.23,1.67,2.08.03.17.04.33.02.47.1-.2.14-.46.08-.77-.16-.85-.78-1.85-1.67-2.08-.41-.11-.89.21-1.01.82.19-.41.57-.61.91-.52Z"/><path class="cls-10" d="M9.41,16.87c-.07.04-.11.12-.14.19-.07.16-.15.32-.27.45-.12.13-.29.22-.46.22-.14,0-.28-.07-.42-.08-.03,0-.06,0-.08.01-.07.04-.07.14-.03.21.08.15.24.23.4.28.19.06.39.07.58.02.11-.03.21-.09.31-.16.17-.13.3-.3.36-.5.04-.14.06-.82-.24-.64Z"/><path class="cls-10" d="M6.76,11.65c.03.08.09.14.15.18.07.04.14.07.22.11.4.19.69.56.98.9.02.02.03.04.06.04.04,0,.07-.03.07-.07,0-.04-.01-.07-.03-.1-.2-.37-.46-.7-.78-.98-.11-.1-.25-.24-.39-.31-.16-.07-.34.04-.28.22Z"/><path class="cls-22" d="M9.35,15.12c.01.06.08,1.26,1.03,2.31.95,1.05,3.15,1.81,4.46,1.5,2.55-.6,2.24-3.09,2.24-3.09l-7.73-.71Z"/><path class="cls-1" d="M10.11,15.19l-.75-.07s0,.04,0,.08h.75Z"/><path class="cls-22" d="M16.69,15.8c-.02.79-.34,2.03-1.95,2.6-1.01.36-2.66.1-3.83-.49,1.09.79,2.82,1.28,3.92,1.02,2.55-.6,2.24-3.09,2.24-3.09l-.39-.04Z"/><path class="cls-25" d="M9.44,14.8c-.37.24.32,1.83,2.52,2.69,2.2.86,3.72.17,4.5-.46.79-.63,1.02-1.76-.51-2.23-1.53-.47-4.97-.99-6.51,0Z"/><path class="cls-18" d="M12.28,15.52c-.35.4-.16,1.19.74,1.52.74.28,1.99.04,2.43-.49.44-.53.33-1.33-.56-1.58-.83-.24-2-.15-2.61.54Z"/><path class="cls-14" d="M12.51,15.75c.6-.69,1.78-.78,2.61-.54.17.05.31.12.42.2-.13-.18-.34-.34-.65-.42-.83-.24-2-.15-2.61.54-.28.32-.22.89.28,1.27-.28-.36-.28-.78-.05-1.05Z"/><path class="cls-10" d="M15.69,15.19c0,.08.06.15.11.21.11.14.21.28.27.45.06.16.07.36-.01.51-.07.13-.19.21-.26.34-.01.03-.03.05-.03.08,0,.08.1.12.18.12.17,0,.31-.11.43-.23.14-.14.24-.32.28-.51.02-.11.02-.23,0-.34-.04-.21-.13-.4-.28-.55-.1-.1-.71-.42-.68-.08Z"/><path class="cls-10" d="M9.84,15.18c.08.01.16-.02.23-.06.07-.04.13-.1.19-.14.36-.27.81-.36,1.25-.46.02,0,.05-.01.06-.03.02-.03,0-.07-.03-.09-.03-.02-.07-.02-.11-.02-.42,0-.84.09-1.22.25-.14.06-.33.11-.45.21-.14.11-.12.32.07.35Z"/><path class="cls-3" d="M29.74,4.59l-1.23,12.53c-.1,1.04-.75,1.82-1.52,1.82H3.18c.28.5.73.83,1.22.83h24.27c.77,0,1.42-.78,1.52-1.82l1.31-13.35h-1.76Z"/><path class="cls-5" d="M2.13,6.79c0,.55.12,1.09.22,1.63.29,1.58.49,3.18.6,4.78.05.8.09,1.61.36,2.36.04.11.09.22.17.29.09.07.23.1.32.02.06-.05.08-.13.1-.2.1-.53-.02-1.07-.12-1.6-.41-2.15-.48-4.36-.23-6.53.04-.32.08-.64,0-.95-.1-.35-.44-.64-.82-.66-.47-.02-.59.47-.59.87Z"/><path class="cls-5" d="M3.49,17.45c.04.5.18,1,.4,1.45.06.12.13.24.23.32.1.08.25.13.37.07.11-.05.18-.16.21-.28.02-.12.01-.24,0-.37-.06-.52-.02-1.56-.45-1.94-.54-.47-.8.3-.76.74Z"/><path class="cls-18" d="M2.04,3.07h28.41c.86,0,1.55.69,1.55,1.55H.49c0-.86.69-1.55,1.55-1.55Z"/><path class="cls-14" d="M31.34,3.07h-1.18c.37,0,.67.3.67.67v.88h1.18v-.88c0-.37-.3-.67-.67-.67Z"/><rect class="cls-19" y="4.56" width="32.54" height=".79"/><path class="cls-14" d="M24.68,5.11h5.03c0,.67-.54,1.21-1.21,1.21h-2.62c-.67,0-1.21-.54-1.21-1.21h0Z"/><rect class="cls-19" x="31.59" y="4.56" width=".95" height=".79"/><polygon class="cls-14" points=".92 4.56 31.83 4.56 31.83 3.84 .92 4.56 .92 4.56"/><g id="Virus"><path class="cls-9" d="M24.44,1.92s0,.19-.13.39c.01-.07-.07-.16-.28-.24-.17-.07-.17-.07-.29-.11-.02,0-.03-.01-.05-.02l.03-.1s.03.01.05.02c.12.04.12.04.3.09.22.06.34.05.37-.02Z"/><path class="cls-13" d="M24.44,1.92s0,.19-.13.39c.01-.07-.07-.16-.28-.24-.17-.07-.17-.07-.29-.11-.02,0-.03-.01-.05-.02l.03-.1s.03.01.05.02c.12.04.12.04.3.09.22.06.34.05.37-.02Z"/><path class="cls-4" d="M23.79,1.85s0,.03-.01.05c0,.02-.01.03-.02.05-.02,0-.04-.02-.06-.02l.03-.1s.04.01.06.02Z"/><path class="cls-9" d="M23.71,1.69s-.02,0-.03,0c0,0,0,0,0,0,0,0,0,0,0,0,0,0,0,0-.01,0,0,0,0,0,0,0,0,0,0,0,0,0,0,0,0,0,0,0-.03.02-.07.07-.09.13-.02.06-.02.12-.01.16,0,0,0,0,0,0,0,0,0,0,0,0,0,0,0,0,0,0,0,0,0,0,0,0,0,0,0,0,0,0,0,0,0,0,0,0,0,0,.02.01.03.02.01,0,.02,0,.03,0,.04,0,.09-.06.12-.14.03-.08.02-.16,0-.19,0,0-.02-.01-.03-.02Z"/><path class="cls-24" d="M23.66,1.75s.03.06.01.12c-.02.06-.06.1-.08.09-.02,0-.03-.03-.02-.06,0,.03.04.04.06,0,.02-.03.04-.09.04-.12,0-.02,0-.04-.03-.04,0,0,.02,0,.02,0Z"/><path class="cls-9" d="M24.26,2.64s.06.18.03.41c-.02-.07-.04-.12-.24-.12-.16,0-.17,0-.29,0-.02,0-.03,0-.05,0v-.11s.02,0,.04,0c.11-.01.12-.01.29-.04.2-.03.22-.09.22-.16Z"/><path class="cls-4" d="M23.77,2.83s0,.03,0,.05c0,.02,0,.04,0,.05-.02,0-.05,0-.07,0v-.11s.03,0,.06,0Z"/><path class="cls-9" d="M23.61,2.68s-.02,0-.04.01c0,0,0,0,0,0,0,0,0,0,0,0,0,0,0,0,0,0,0,0,0,0,0,0,0,0,0,0,0,0,0,0,0,0,0,0-.03.04-.04.11-.03.18,0,.08.03.14.06.18,0,0,0,0,0,0,0,0,0,0,0,0,0,0,0,0,0,0,0,0,0,0,.01,0,0,0,0,0,0,0,0,0,0,0,0,0,.01,0,.02,0,.04,0,.01,0,.02,0,.03-.01.05-.02.07-.11.06-.21,0-.1-.05-.19-.1-.2-.01,0-.02,0-.04,0Z"/><path class="cls-24" d="M23.59,2.77s.07.05.07.12c0,.07-.02.13-.05.13-.02,0-.04-.02-.06-.05.02.03.06.02.07-.02.01-.04,0-.12-.01-.14-.01-.03-.03-.04-.05-.03,0,0,.02-.01.02-.01Z"/><path class="cls-9" d="M24.4,3.39s.11.11.17.3c-.04-.05-.12-.05-.26.01-.03.01-.05.02-.13.06-.01,0-.02.01-.03.02l-.04-.08s.02-.01.03-.02c.08-.04.1-.07.12-.08.13-.08.17-.16.15-.22Z"/><path class="cls-4" d="M24.15,3.67s.02.02.02.04c0,.01.01.03.02.04-.02,0-.03.02-.05.03l-.04-.08s.03-.02.05-.03Z"/><path class="cls-9" d="M24.01,3.63s-.01.01-.02.02c0,0,0,0,0,0,0,0,0,0,0,0,0,0,0,0,0,0,0,0,0,0,0,0,0,0,0,0,0,0,0,0,0,0,0,0,0,.03,0,.08.03.13s.06.08.09.1c0,0,0,0,0,0,0,0,0,0,0,0,0,0,0,0,0,0,0,0,0,0,0,0,0,0,0,0,0,0,0,0,0,0,0,0,0,0,.02,0,.03,0,0,0,.01-.01.02-.02.02-.03.02-.09-.02-.16-.04-.06-.09-.11-.12-.1,0,0-.02,0-.02,0Z"/><path class="cls-24" d="M24.02,3.69s.06.01.08.06c.02.04.03.09,0,.1-.01,0-.03,0-.05-.02.03.01.05,0,.04-.03,0-.03-.03-.08-.05-.09-.02-.01-.03-.02-.04,0,0,0,0-.01.01-.02Z"/><path class="cls-9" d="M24.8,3.97s.18.07.33.25c-.06-.03-.17.02-.32.19-.12.14-.15.18-.23.28-.01.01-.02.03-.03.04l-.08-.06s.02-.03.03-.04c.08-.1.11-.15.21-.3.12-.18.15-.3.1-.35Z"/><path class="cls-4" d="M24.8,3.97s.18.07.33.25c-.06-.03-.17.02-.32.19-.12.14-.15.18-.23.28-.01.01-.02.03-.03.04l-.08-.06s.02-.03.03-.04c.08-.1.11-.15.21-.3.12-.18.15-.3.1-.35Z"/><path class="cls-4" d="M24.51,4.61s.03.02.04.03c.01.01.03.02.04.04-.01.02-.03.04-.04.05l-.08-.06s.03-.03.04-.05Z"/><path class="cls-9" d="M24.28,4.63s-.01.02-.02.04c0,0,0,0,0,0,0,0,0,0,0,0,0,0,0,0,0,.01,0,0,0,0,0,0,0,0,0,0,0,.01,0,0,0,0,0,0,.01.05.06.11.12.16.06.05.13.08.18.07,0,0,0,0,0,0,0,0,0,0,.01,0,0,0,0,0,0,0,0,0,0,0,.01,0,0,0,0,0,0,0,0,0,0,0,0,0,.01,0,.02-.01.03-.02,0-.01.01-.02.02-.03.02-.05-.03-.14-.12-.2-.09-.07-.18-.09-.23-.06-.01,0-.02.01-.03.02Z"/><path class="cls-24" d="M24.33,4.71s.09-.01.15.03c.06.05.09.11.07.13-.01.02-.04.02-.08,0,.04,0,.06-.03.04-.07-.02-.04-.09-.08-.12-.09-.03,0-.05,0-.06.02,0-.01,0-.02,0-.03Z"/><path class="cls-9" d="M25.44,4.37s.17.01.38.09c-.07,0-.13.03-.17.14-.03.09-.08.29-.1.36,0,0,0,.02,0,.03l-.1-.02s0-.02,0-.03c.01-.06.06-.27.07-.36.02-.11-.02-.18-.09-.2Z"/><path class="cls-4" d="M25.46,4.92s.03,0,.05,0c.02,0,.03,0,.05.01,0,.02,0,.03-.01.04l-.1-.02s0-.03,0-.04Z"/><path class="cls-9" d="M25.32,5s0,.02,0,.03c0,0,0,0,0,0,0,0,0,0,0,0,0,0,0,0,0,0,0,0,0,0,0,0,0,0,0,0,0,0,0,0,0,0,0,0,.02.03.07.05.12.07.06.01.11.01.14,0,0,0,0,0,0,0,0,0,0,0,0,0,0,0,0,0,0,0,0,0,0,0,0,0,0,0,0,0,0,0,0,0,0,0,0,0,0,0,0-.02.01-.02,0,0,0-.02,0-.03,0-.04-.06-.08-.14-.1-.08-.02-.15,0-.17.03,0,0,0,.02-.01.02Z"/><path class="cls-24" d="M25.38,5.04s.05-.04.11-.02c.05.01.09.04.08.07,0,.02-.02.03-.05.03.03-.01.03-.04,0-.06-.03-.02-.08-.03-.11-.02-.02,0-.04.01-.03.03,0,0,0-.01,0-.02Z"/><path class="cls-9" d="M26.19,4.46s.16-.1.39-.12c-.06.03-.09.15-.03.36.04.17.05.2.08.32,0,.02.01.03.01.05l-.1.03s0-.03-.02-.05c-.04-.12-.05-.14-.11-.31-.07-.21-.16-.29-.23-.29Z"/><path class="cls-4" d="M26.52,5.04s.03-.01.05-.02c.02,0,.04,0,.05-.01,0,.02.01.04.02.06l-.1.03s-.01-.04-.02-.06Z"/><path class="cls-9" d="M26.38,5.25s.01.03.02.04c0,0,0,0,0,0,0,0,0,0,0,0,0,0,0,0,.01,0,0,0,0,0,0,0,0,0,0,0,.01,0,0,0,0,0,0,0,.05.02.13.02.22,0,.09-.03.15-.07.18-.11,0,0,0,0,0,0,0,0,0,0,0,0,0,0,0,0,0,0,0,0,0,0,0-.01,0,0,0,0,0,0,0,0,0,0,0,0,0-.01,0-.03,0-.04,0-.01-.01-.03-.02-.04-.03-.05-.14-.06-.26-.02-.11.03-.2.1-.2.16,0,.01,0,.03,0,.04Z"/><path class="cls-24" d="M26.48,5.26s.04-.09.12-.11c.08-.02.15-.01.16.03,0,.02-.01.05-.05.07.03-.04.01-.07-.04-.08-.05,0-.13.03-.16.05-.03.02-.04.04-.02.06-.01,0-.02-.01-.02-.02Z"/><path class="cls-9" d="M26.87,4.26s.13-.14.35-.24c-.05.05-.06.14.02.28.06.11.13.21.18.28,0,.01.01.02.02.03l-.09.06s-.01-.02-.02-.03c-.05-.07-.12-.17-.2-.27-.1-.12-.19-.15-.25-.11Z"/><path class="cls-13" d="M26.87,4.26s.13-.14.35-.24c-.05.05-.06.14.02.28.06.11.13.21.18.28,0,.01.01.02.02.03l-.09.06s-.01-.02-.02-.03c-.05-.07-.12-.17-.2-.27-.1-.12-.19-.15-.25-.11Z"/><path class="cls-4" d="M27.32,4.63s.03-.02.04-.03c.02-.01.03-.02.05-.03.01.02.02.03.03.04l-.09.06s-.02-.03-.03-.04Z"/><path class="cls-9" d="M27.29,4.81s.01.02.02.02c0,0,0,0,0,0,0,0,0,0,0,0,0,0,0,0,.01,0,0,0,0,0,0,0,0,0,0,0,0,0,0,0,0,0,0,0,.04,0,.1-.02.15-.05.05-.04.09-.08.1-.12,0,0,0,0,0,0,0,0,0,0,0,0,0,0,0,0,0,0,0,0,0,0,0-.01,0,0,0,0,0,0,0,0,0,0,0,0,0,0,0-.02-.01-.03,0,0-.01-.02-.02-.02-.03-.02-.11,0-.18.04-.07.05-.11.12-.1.16,0,0,0,.02.01.03Z"/><path class="cls-24" d="M27.36,4.79s.01-.07.06-.11c.05-.03.1-.04.12-.02.01.01,0,.04-.01.06.01-.03,0-.05-.05-.04-.04,0-.09.05-.1.07-.01.02-.02.04,0,.05,0,0-.02,0-.02-.01Z"/><path class="cls-9" d="M27.47,3.74s.08-.15.16-.27c-.02.04-.03.1,0,.13.03.03.05.05.08.06,0,0,0,0,0,0l-.03.06s0,0,0,0c-.02-.01-.05-.03-.09-.03-.05-.01-.09.02-.11.06Z"/><path class="cls-4" d="M27.66,3.71s0-.02.02-.03c0,0,.01-.02.02-.03,0,0,.01,0,.02.01l-.03.06s-.01,0-.02-.01Z"/><path class="cls-9" d="M27.69,3.86s.01,0,.02,0c0,0,0,0,0,0,0,0,0,0,0,0,0,0,0,0,0,0,0,0,0,0,0,0,0,0,0,0,0,0,0,0,0,0,0,0,.03-.01.06-.04.09-.08.03-.04.04-.09.03-.12,0,0,0,0,0,0,0,0,0,0,0,0,0,0,0,0,0,0,0,0,0,0,0,0,0,0,0,0,0,0,0,0,0,0,0,0,0,0-.01-.01-.02-.02,0,0-.01,0-.02,0-.03,0-.08.03-.12.09-.03.06-.04.12-.02.14,0,0,0,.01.02.02Z"/><path class="cls-24" d="M27.73,3.82s-.01-.05,0-.09c.02-.04.06-.06.08-.05.01,0,.01.03,0,.05,0-.03-.02-.04-.05-.02-.02.02-.05.06-.05.08,0,.02,0,.03.02.03,0,0-.01,0-.02,0Z"/><path class="cls-9" d="M27.77,3.08s-.03-.18.04-.41c0,.07.02.13.21.16.16.03.17.03.28.04.02,0,.03,0,.05,0v.11s-.04,0-.06,0c-.11-.01-.12,0-.28-.02-.19,0-.22.04-.24.11Z"/><path class="cls-4" d="M28.27,2.99s0-.03,0-.05c0-.02,0-.04,0-.05.02,0,.05,0,.07,0v.11s-.05,0-.08,0Z"/><path class="cls-9" d="M28.4,3.16s.03,0,.04,0c0,0,0,0,0,0,0,0,0,0,0,0,0,0,0,0,.01,0,0,0,0,0,0,0,0,0,0,0,0,0,0,0,0,0,0,0,.03-.03.06-.1.07-.18,0-.08,0-.15-.03-.19,0,0,0,0,0,0,0,0,0,0,0,0,0,0,0,0,0,0,0,0,0,0,0,0,0,0,0,0,0,0,0,0,0,0,0,0-.01,0-.02-.01-.03-.01-.01,0-.02,0-.04,0-.05.01-.09.09-.1.2-.01.1.02.19.06.21.01,0,.02,0,.03.01Z"/><path class="cls-24" d="M28.44,3.08s-.06-.06-.05-.14c0-.07.04-.13.08-.12.02,0,.04.03.04.06-.02-.04-.05-.03-.08,0-.02.04-.02.12-.01.14,0,.03.02.05.04.04,0,0-.02,0-.03,0Z"/><path class="cls-9" d="M27.76,2.31s-.08-.13-.11-.33c.03.05.11.08.26.04.03,0,.05,0,.14-.03.01,0,.02,0,.03-.01l.03.09s-.02,0-.03.01c-.08.03-.11.05-.13.05-.14.06-.2.12-.19.18Z"/><path class="cls-4" d="M28.06,2.08s-.01-.03-.02-.04c0-.01,0-.03-.01-.04.02,0,.04-.01.05-.02l.03.09s-.03.01-.05.02Z"/><path class="cls-9" d="M28.19,2.15s.02,0,.02-.01c0,0,0,0,0,0,0,0,0,0,0,0,0,0,0,0,0,0,0,0,0,0,0,0,0,0,0,0,0,0,0,0,0,0,0,0,.01-.03.01-.08,0-.13-.02-.05-.05-.09-.07-.11,0,0,0,0,0,0,0,0,0,0,0,0,0,0,0,0,0,0,0,0,0,0,0,0,0,0,0,0,0,0,0,0,0,0,0,0,0,0-.02,0-.03,0,0,0-.02,0-.02.01-.03.02-.03.09-.01.16.02.07.07.12.1.12,0,0,.02,0,.03,0Z"/><path class="cls-24" d="M28.2,2.09s-.05-.03-.07-.07c-.02-.05,0-.09.01-.1.01,0,.03,0,.05.03-.02-.02-.05,0-.05.03,0,.03.02.08.03.1.01.02.03.02.04.01,0,0,0,.01-.01.01Z"/><path class="cls-9" d="M27.48,1.66s-.16-.1-.27-.3c.06.04.17.01.34-.13.14-.11.16-.12.25-.21.01-.01.03-.02.04-.03l.07.08s-.03.02-.04.04c-.09.08-.11.1-.23.23-.16.16-.2.27-.16.33Z"/><path class="cls-4" d="M27.48,1.66s-.16-.1-.27-.3c.06.04.17.01.34-.13.14-.11.16-.12.25-.21.01-.01.03-.02.04-.03l.07.08s-.03.02-.04.04c-.09.08-.11.1-.23.23-.16.16-.2.27-.16.33Z"/><path class="cls-4" d="M27.86,1.11s-.03-.02-.04-.04c-.01-.01-.02-.03-.03-.04.02-.02.03-.03.05-.04l.07.08s-.03.03-.05.04Z"/><path class="cls-9" d="M28.09,1.14s.02-.02.02-.03c0,0,0,0,0,0,0,0,0,0,0,0,0,0,0,0,0-.01,0,0,0,0,0,0,0,0,0,0,0-.01,0,0,0,0,0,0,0-.05-.03-.12-.09-.18-.05-.06-.12-.1-.17-.11,0,0,0,0,0,0,0,0,0,0-.01,0,0,0,0,0,0,0,0,0,0,0-.01,0,0,0,0,0,0,0,0,0,0,0,0,0-.01,0-.02,0-.03.02,0,0-.02.02-.02.03-.02.05,0,.14.08.22.07.08.16.12.21.1.01,0,.02,0,.03-.02Z"/><path class="cls-24" d="M28.06,1.05s-.09,0-.14-.06c-.05-.06-.07-.12-.04-.14.02-.01.05-.01.08,0-.04-.01-.07.02-.05.06.02.04.07.1.1.11.03.01.05.01.06,0,0,.01,0,.02-.01.03Z"/><path class="cls-9" d="M26.93,1.15s-.17-.04-.35-.16c.06.02.13,0,.19-.11.05-.08.09-.16.11-.22,0,0,0-.02.01-.02l.09.04s0,.02-.01.03c-.03.06-.06.14-.09.23-.04.11-.01.18.05.21Z"/><path class="cls-4" d="M26.96.72s-.03-.01-.05-.02c-.02,0-.03-.01-.05-.02,0-.01.01-.03.02-.04l.09.04s-.01.03-.02.04Z"/><path class="cls-9" d="M27.11.67s0-.02,0-.03c0,0,0,0,0,0,0,0,0,0,0,0,0,0,0,0,0,0,0,0,0,0,0,0,0,0,0,0,0,0,0,0,0,0,0,0-.02-.03-.06-.07-.11-.09-.05-.02-.11-.03-.14-.02,0,0,0,0,0,0,0,0,0,0,0,0,0,0,0,0,0,0,0,0,0,0,0,0,0,0,0,0,0,0,0,0,0,0,0,0,0,0-.01.01-.02.02,0,0,0,.02,0,.03,0,.04.05.09.12.12.07.03.14.03.17,0,0,0,.01-.01.02-.02Z"/><path class="cls-24" d="M27.07.62s-.06.02-.11,0c-.05-.02-.08-.06-.07-.08,0-.01.03-.02.05-.02-.03,0-.04.03-.01.06.02.02.08.04.1.04.02,0,.04,0,.04-.02,0,0,0,.01,0,.02Z"/><path class="cls-9" d="M26.29.99s-.19.04-.4-.06c.07,0,.15-.13.2-.41.01-.06.02-.07.05-.23,0-.02,0-.05.01-.07l.1.02s0,.04,0,.07c-.02.16-.01.19-.02.23-.03.28,0,.42.07.45Z"/><path class="cls-13" d="M26.29.99s-.19.04-.4-.06c.07,0,.15-.13.2-.41.01-.06.02-.07.05-.23,0-.02,0-.05.01-.07l.1.02s0,.04,0,.07c-.02.16-.01.19-.02.23-.03.28,0,.42.07.45Z"/><path class="cls-4" d="M26.24.31s-.03,0-.05,0c-.02,0-.04,0-.05-.01,0-.02,0-.05.01-.07l.1.02s0,.04,0,.07Z"/><path class="cls-9" d="M26.46.18s0-.03,0-.04c0,0,0,0,0,0,0,0,0,0,0,0,0,0,0,0,0-.01,0,0,0,0,0,0,0,0,0,0,0,0,0,0,0,0,0,0-.04-.04-.11-.07-.2-.09-.09-.01-.17,0-.21.03,0,0,0,0,0,0,0,0,0,0,0,0,0,0,0,0,0,0,0,0,0,0-.01.01,0,0,0,0,0,0,0,0,0,0,0,0,0,.01-.01.02-.02.04,0,.01,0,.03,0,.04.01.06.1.11.22.13.12.02.22,0,.25-.06,0-.01.01-.02.01-.04Z"/><path class="cls-24" d="M26.36.13s-.08.06-.16.05c-.08-.01-.14-.05-.14-.09,0-.02.03-.04.07-.05-.04.02-.04.06,0,.09.04.03.13.03.16.02.03,0,.05-.02.05-.05,0,0,.01.02,0,.03Z"/><path class="cls-9" d="M25.52,1s-.15.12-.39.17c.06-.04.08-.15,0-.34-.06-.15-.05-.14-.1-.24,0-.02-.01-.03-.02-.04l.1-.05s.01.03.02.04c.05.1.05.08.13.23.09.18.19.24.26.23Z"/><path class="cls-4" d="M25.13.54s-.03.02-.05.03c-.02,0-.04.01-.05.02,0-.02-.01-.03-.02-.05l.1-.05s.01.03.02.05Z"/><path class="cls-9" d="M25.2.37s-.01-.02-.02-.02c0,0,0,0,0,0,0,0,0,0,0,0,0,0,0,0,0,0,0,0,0,0,0,0,0,0,0,0,0,0,0,0,0,0,0,0-.04-.01-.1,0-.16.02-.06.03-.1.06-.12.1,0,0,0,0,0,0,0,0,0,0,0,0,0,0,0,0,0,0,0,0,0,0,0,.01,0,0,0,0,0,0,0,0,0,0,0,0,0,.01,0,.02,0,.03,0,0,.01.02.02.02.03.03.11.03.19,0,.08-.04.13-.09.13-.13,0,0,0-.02,0-.03Z"/><path class="cls-24" d="M25.12.38s-.02.07-.08.09c-.06.02-.11.02-.12,0,0-.02,0-.04.03-.06-.02.03,0,.05.04.05.04,0,.09-.03.11-.05.02-.02.02-.03,0-.05,0,0,.01,0,.02.02Z"/><path class="cls-9" d="M24.81,1.39s-.11.13-.21.23c.03-.03.05-.09.03-.13-.02-.03-.04-.06-.06-.08,0,0,0,0,0,0l.04-.05s0,0,0,0c.02.02.04.03.08.05.04.02.09,0,.12-.03Z"/><path class="cls-4" d="M24.62,1.38s-.01.02-.02.03c0,0-.02.02-.02.02,0,0-.01-.01-.02-.02l.04-.05s.01.01.02.02Z"/><path class="cls-9" d="M24.62,1.24s-.01,0-.02-.01c0,0,0,0,0,0,0,0,0,0,0,0,0,0,0,0,0,0,0,0,0,0,0,0,0,0,0,0,0,0,0,0,0,0,0,0-.03,0-.07.03-.1.07-.03.04-.05.08-.06.11,0,0,0,0,0,0,0,0,0,0,0,0,0,0,0,0,0,0,0,0,0,0,0,0,0,0,0,0,0,0,0,0,0,0,0,0,0,0,0,.01.01.02,0,0,.01,0,.02.01.03.01.09-.01.13-.06.05-.05.07-.11.05-.14,0,0,0-.01-.01-.02Z"/><path class="cls-24" d="M24.57,1.26s0,.06-.03.09c-.03.03-.07.05-.09.04-.01,0,0-.03,0-.05,0,.03.02.04.04.03.03-.01.06-.05.06-.07,0-.02,0-.03,0-.04,0,0,.01,0,.02,0Z"/><path class="cls-15" d="M26.62,1c.93.32,1.43,1.34,1.1,2.28-.32.93-1.34,1.43-2.28,1.1-.93-.32-1.43-1.34-1.1-2.28.32-.93,1.34-1.43,2.28-1.1Z"/><path class="cls-4" d="M27.16,1.3c.4.34.86,1.62-.05,2.55-.91.93-2.17.29-2.48-.04.2.26.48.46.82.58.93.32,1.95-.17,2.28-1.1.25-.73,0-1.52-.57-1.98Z"/><path class="cls-9" d="M26.33,3.73c.12-.06.26-.03.3.06.04.09-.02.21-.14.27-.12.06-.26.03-.3-.06-.04-.09.02-.21.14-.27Z"/><path class="cls-13" d="M26.33,3.73c.12-.06.26-.03.3.06.04.09-.02.21-.14.27-.12.06-.26.03-.3-.06-.04-.09.02-.21.14-.27Z"/><path class="cls-13" d="M26.28,4.02c-.06-.02-.05-.13.06-.19.09-.05.19-.05.23,0,.04.04,0,.1,0,.11.02-.04,0-.08-.06-.09-.06,0-.15,0-.21.08-.03.04-.03.08-.01.1Z"/><path class="cls-9" d="M26.09,1.58c-.13.02-.25-.04-.27-.14-.02-.1.08-.2.21-.22.13-.02.25.04.27.14.02.1-.08.2-.21.22Z"/><path class="cls-13" d="M26.09,1.58c-.13.02-.25-.04-.27-.14-.02-.1.08-.2.21-.22.13-.02.25.04.27.14.02.1-.08.2-.21.22Z"/><path class="cls-13" d="M26.22,1.31c.05.04.01.14-.11.17-.1.02-.2,0-.22-.06-.03-.06.02-.1.04-.1-.03.03-.02.08.04.1.05.02.15.03.22-.02.04-.03.05-.06.04-.09Z"/><path class="cls-9" d="M25.52,2.92c.06.1.05.21-.02.26-.07.05-.18,0-.24-.09-.06-.1-.05-.21.02-.26.07-.05.18,0,.24.09Z"/><path class="cls-13" d="M25.52,2.92c.06.1.05.21-.02.26-.07.05-.18,0-.24-.09-.06-.1-.05-.21.02-.26.07-.05.18,0,.24.09Z"/><path class="cls-13" d="M25.27,2.92c.01-.05.1-.06.16.03.05.07.06.15.03.19-.03.04-.09.02-.09,0,.03,0,.06-.01.07-.06,0-.05-.02-.12-.08-.16-.03-.02-.07-.02-.08,0Z"/><path class="cls-9" d="M26.53,2.8c.03-.13.13-.22.23-.2.1.02.16.14.13.27-.03.13-.13.22-.23.2-.1-.02-.16-.14-.13-.27Z"/><path class="cls-13" d="M26.53,2.8c.03-.13.13-.22.23-.2.1.02.16.14.13.27-.03.13-.13.22-.23.2-.1-.02-.16-.14-.13-.27Z"/><path class="cls-13" d="M26.74,3.01c-.05.04-.13-.04-.12-.16.01-.1.07-.18.13-.19.06,0,.09.06.08.07-.02-.04-.07-.04-.11,0-.04.04-.08.13-.06.21.01.05.04.07.07.07Z"/><path class="cls-9" d="M25.09,3.33c.07.12.05.25-.04.3-.09.05-.21,0-.28-.12-.07-.12-.05-.25.04-.3.09-.05.21,0,.28.12Z"/><path class="cls-13" d="M25.09,3.33c.07.12.05.25-.04.3-.09.05-.21,0-.28-.12-.07-.12-.05-.25.04-.3.09-.05.21,0,.28.12Z"/><path class="cls-13" d="M24.8,3.31c.02-.06.13-.06.19.05.05.08.06.19.02.23-.04.05-.1.01-.11,0,.04.01.08,0,.08-.07,0-.06-.02-.15-.09-.2-.04-.03-.08-.03-.1,0Z"/><path class="cls-9" d="M26.23,2.16c-.09-.08-.12-.2-.06-.26.06-.07.18-.06.27.02.09.08.12.2.06.26-.06.07-.18.06-.27-.02Z"/><path class="cls-13" d="M26.23,2.16c-.09-.08-.12-.2-.06-.26.06-.07.18-.06.27.02.09.08.12.2.06.26-.06.07-.18.06-.27-.02Z"/><path class="cls-13" d="M26.48,2.09c0,.06-.09.09-.17.02-.07-.05-.11-.14-.09-.18.02-.05.08-.04.09-.03-.04,0-.06.03-.05.08.01.05.06.12.14.14.04.01.07,0,.08-.03Z"/><path class="cls-9" d="M25.39,1.92c-.12.14-.31.18-.41.09-.11-.09-.09-.28.03-.42.12-.14.31-.18.41-.09.11.09.09.28-.03.42Z"/><path class="cls-13" d="M25.39,1.92c-.12.14-.31.18-.41.09-.11-.09-.09-.28.03-.42.12-.14.31-.18.41-.09.11.09.09.28-.03.42Z"/><path class="cls-13" d="M25.28,1.52c.09,0,.14.14.03.27-.08.11-.21.17-.29.14-.08-.03-.07-.13-.05-.14,0,.06.05.1.13.07.08-.02.19-.1.22-.21.02-.06,0-.12-.04-.13Z"/><path class="cls-9" d="M27.04,3.33c.05-.09.14-.13.21-.09.07.04.08.14.03.23s-.14.13-.21.09c-.07-.04-.08-.14-.03-.23Z"/><path class="cls-13" d="M27.04,3.33c.05-.09.14-.13.21-.09.07.04.08.14.03.23s-.14.13-.21.09c-.07-.04-.08-.14-.03-.23Z"/><path class="cls-13" d="M27.14,3.52s-.09-.06-.05-.14c.03-.07.09-.11.14-.1.05,0,.05.06.04.07,0-.03-.04-.04-.08-.02-.04.02-.09.07-.09.14,0,.04.01.06.04.07Z"/><path class="cls-9" d="M27.1,2.46c-.03-.13.04-.26.14-.28.1-.02.2.07.23.21.03.13-.04.26-.14.28-.1.02-.2-.07-.23-.21Z"/><path class="cls-13" d="M27.1,2.46c-.03-.13.04-.26.14-.28.1-.02.2.07.23.21.03.13-.04.26-.14.28-.1.02-.2-.07-.23-.21Z"/><path class="cls-13" d="M27.38,2.58c-.04.05-.14.02-.17-.11-.03-.1,0-.2.05-.23.06-.03.1.02.11.03-.03-.03-.08-.02-.1.04-.02.05-.03.15.02.22.03.04.07.05.09.04Z"/><path class="cls-9" d="M26.82,1.75c-.07-.05-.1-.13-.06-.19.04-.05.13-.06.2,0,.07.05.1.13.06.19-.04.05-.13.06-.2,0Z"/><path class="cls-13" d="M26.82,1.75c-.07-.05-.1-.13-.06-.19.04-.05.13-.06.2,0,.07.05.1.13.06.19-.04.05-.13.06-.2,0Z"/><path class="cls-13" d="M27,1.68s-.06.07-.13.03c-.06-.03-.09-.09-.08-.13.01-.04.06-.04.06-.03-.03,0-.04.03-.03.06.01.04.05.08.11.09.03,0,.05,0,.06-.03Z"/><path class="cls-9" d="M24.8,2.62c0,.09-.06.16-.12.16-.07,0-.12-.07-.12-.16,0-.09.06-.16.12-.16.07,0,.12.07.12.16Z"/><path class="cls-13" d="M24.8,2.62c0,.09-.06.16-.12.16-.07,0-.12-.07-.12-.16,0-.09.06-.16.12-.16.07,0,.12.07.12.16Z"/><path class="cls-13" d="M24.64,2.51s.09,0,.09.09c0,.06-.03.12-.06.14-.04.01-.06-.03-.06-.04.02.02.05.02.07-.01.02-.03.04-.09.02-.14-.01-.03-.03-.04-.05-.04Z"/><path class="cls-9" d="M25.99,3.27c.08-.03.17,0,.19.06.02.06-.03.14-.11.17-.08.03-.17,0-.19-.06-.02-.06.03-.14.11-.17Z"/><path class="cls-13" d="M25.99,3.27c.08-.03.17,0,.19.06.02.06-.03.14-.11.17-.08.03-.17,0-.19-.06-.02-.06.03-.14.11-.17Z"/><path class="cls-13" d="M25.95,3.46s-.02-.09.05-.12c.06-.02.13-.02.15.01.02.03,0,.07-.01.07.01-.02,0-.05-.03-.06-.04-.01-.1,0-.14.03-.02.02-.03.05-.02.06Z"/><path class="cls-9" d="M25.59,2.29c-.05.07-.14.09-.19.05-.05-.04-.05-.13,0-.2.05-.07.14-.09.19-.05.05.04.05.13,0,.2Z"/><path class="cls-13" d="M25.59,2.29c-.05.07-.14.09-.19.05-.05-.04-.05-.13,0-.2.05-.07.14-.09.19-.05.05.04.05.13,0,.2Z"/><path class="cls-13" d="M25.53,2.11s.07.06.02.13c-.04.05-.1.08-.13.07-.04-.01-.03-.06-.03-.07,0,.03.03.04.06.03.04-.01.09-.05.1-.1,0-.03,0-.05-.02-.06Z"/><path class="cls-9" d="M25.54,3.88c.08.03.13.11.11.17-.02.06-.11.09-.19.06-.08-.03-.13-.11-.11-.17.02-.06.11-.09.19-.06Z"/><path class="cls-13" d="M25.54,3.88c.08.03.13.11.11.17-.02.06-.11.09-.19.06-.08-.03-.13-.11-.11-.17.02-.06.11-.09.19-.06Z"/><path class="cls-13" d="M25.38,3.99s.04-.08.12-.06c.06.02.11.07.11.1,0,.04-.05.05-.05.05.03-.01.03-.04.01-.07-.02-.03-.07-.07-.13-.06-.03,0-.05.02-.05.04Z"/><path class="cls-9" d="M26.14,2.47c.08.08.07.22-.02.32-.09.09-.24.1-.32.02-.08-.08-.07-.22.02-.32.09-.09.24-.1.32-.02Z"/><path class="cls-13" d="M26.14,2.47c.08.08.07.22-.02.32-.09.09-.24.1-.32.02-.08-.08-.07-.22.02-.32.09-.09.24-.1.32-.02Z"/><path class="cls-13" d="M25.81,2.7c.02.07.11.12.22.07.1-.05.14-.22.05-.27.01.06,0,.15-.07.21-.07.06-.16.05-.2,0Z"/></g><g id="Virus-2"><path class="cls-9" d="M17.87,5.04s0,.19-.13.39c.01-.07-.07-.16-.28-.24-.17-.07-.17-.07-.29-.11-.02,0-.03-.01-.05-.02l.03-.1s.03.01.05.02c.12.04.12.04.3.09.22.06.34.05.37-.02Z"/><path class="cls-13" d="M17.87,5.04s0,.19-.13.39c.01-.07-.07-.16-.28-.24-.17-.07-.17-.07-.29-.11-.02,0-.03-.01-.05-.02l.03-.1s.03.01.05.02c.12.04.12.04.3.09.22.06.34.05.37-.02Z"/><path class="cls-4" d="M17.21,4.97s0,.03-.01.05c0,.02-.01.03-.02.05-.02,0-.04-.02-.06-.02l.03-.1s.04.01.06.02Z"/><path class="cls-9" d="M17.13,4.81s-.02,0-.03,0c0,0,0,0,0,0,0,0,0,0,0,0,0,0,0,0-.01,0,0,0,0,0,0,0,0,0,0,0,0,0,0,0,0,0,0,0-.03.02-.07.07-.09.13-.02.06-.02.12-.01.16,0,0,0,0,0,0,0,0,0,0,0,0,0,0,0,0,0,0,0,0,0,0,0,0,0,0,0,0,0,0,0,0,0,0,0,0,0,0,.02.01.03.02.01,0,.02,0,.03,0,.04,0,.09-.06.12-.14.03-.08.02-.16,0-.19,0,0-.02-.01-.03-.02Z"/><path class="cls-24" d="M17.08,4.87s.03.06.01.12c-.02.06-.06.1-.08.09-.02,0-.03-.03-.02-.06,0,.03.04.04.06,0,.02-.03.04-.09.04-.12,0-.02,0-.04-.03-.04,0,0,.02,0,.02,0Z"/><path class="cls-9" d="M17.68,5.75s.06.18.03.41c-.02-.07-.04-.12-.24-.12-.16,0-.17,0-.29,0-.02,0-.03,0-.05,0v-.11s.02,0,.04,0c.11-.01.12-.01.29-.04.2-.03.22-.09.22-.16Z"/><path class="cls-4" d="M17.19,5.95s0,.03,0,.05c0,.02,0,.04,0,.05-.02,0-.05,0-.07,0v-.11s.03,0,.06,0Z"/><path class="cls-9" d="M17.03,5.8s-.02,0-.04.01c0,0,0,0,0,0,0,0,0,0,0,0,0,0,0,0,0,0,0,0,0,0,0,0,0,0,0,0,0,0,0,0,0,0,0,0-.03.04-.04.11-.03.18,0,.08.03.14.06.18,0,0,0,0,0,0,0,0,0,0,0,0,0,0,0,0,0,0,0,0,0,0,.01,0,0,0,0,0,0,0,0,0,0,0,0,0,.01,0,.02,0,.04,0,.01,0,.02,0,.03-.01.05-.02.07-.11.06-.21,0-.1-.05-.19-.1-.2-.01,0-.02,0-.04,0Z"/><path class="cls-24" d="M17.01,5.88s.07.05.07.12c0,.07-.02.13-.05.13-.02,0-.04-.02-.06-.05.02.03.06.02.07-.02.01-.04,0-.12-.01-.14-.01-.03-.03-.04-.05-.03,0,0,.02-.01.02-.01Z"/><path class="cls-9" d="M17.83,6.51s.11.11.17.3c-.04-.05-.12-.05-.26.01-.03.01-.05.02-.13.06-.01,0-.02.01-.03.02l-.04-.08s.02-.01.03-.02c.08-.04.1-.07.12-.08.13-.08.17-.16.15-.22Z"/><path class="cls-4" d="M17.58,6.79s.02.02.02.04c0,.01.01.03.02.04-.02,0-.03.02-.05.03l-.04-.08s.03-.02.05-.03Z"/><path class="cls-9" d="M17.43,6.75s-.01.01-.02.02c0,0,0,0,0,0,0,0,0,0,0,0,0,0,0,0,0,0,0,0,0,0,0,0,0,0,0,0,0,0,0,0,0,0,0,0,0,.03,0,.08.03.13s.06.08.09.1c0,0,0,0,0,0,0,0,0,0,0,0,0,0,0,0,0,0,0,0,0,0,0,0,0,0,0,0,0,0,0,0,0,0,0,0,0,0,.02,0,.03,0,0,0,.01-.01.02-.02.02-.03.02-.09-.02-.16-.04-.06-.09-.11-.12-.1,0,0-.02,0-.02,0Z"/><path class="cls-24" d="M17.44,6.81s.06.01.08.06c.02.04.03.09,0,.1-.01,0-.03,0-.05-.02.03.01.05,0,.04-.03,0-.03-.03-.08-.05-.09-.02-.01-.03-.02-.04,0,0,0,0-.01.01-.02Z"/><path class="cls-9" d="M18.23,7.09s.18.07.33.25c-.06-.03-.17.02-.32.19-.12.14-.15.18-.23.28-.01.01-.02.03-.03.04l-.08-.06s.02-.03.03-.04c.08-.1.11-.15.21-.3.12-.18.15-.3.1-.35Z"/><path class="cls-4" d="M18.23,7.09s.18.07.33.25c-.06-.03-.17.02-.32.19-.12.14-.15.18-.23.28-.01.01-.02.03-.03.04l-.08-.06s.02-.03.03-.04c.08-.1.11-.15.21-.3.12-.18.15-.3.1-.35Z"/><path class="cls-4" d="M17.93,7.73s.03.02.04.03c.01.01.03.02.04.04-.01.02-.03.04-.04.05l-.08-.06s.03-.03.04-.05Z"/><path class="cls-9" d="M17.7,7.75s-.01.02-.02.04c0,0,0,0,0,0,0,0,0,0,0,0,0,0,0,0,0,.01,0,0,0,0,0,0,0,0,0,0,0,.01,0,0,0,0,0,0,.01.05.06.11.12.16.06.05.13.08.18.07,0,0,0,0,0,0,0,0,0,0,.01,0,0,0,0,0,0,0,0,0,0,0,.01,0,0,0,0,0,0,0,0,0,0,0,0,0,.01,0,.02-.01.03-.02,0-.01.01-.02.02-.03.02-.05-.03-.14-.12-.2-.09-.07-.18-.09-.23-.06-.01,0-.02.01-.03.02Z"/><path class="cls-24" d="M17.75,7.83s.09-.01.15.03c.06.05.09.11.07.13-.01.02-.04.02-.08,0,.04,0,.06-.03.04-.07-.02-.04-.09-.08-.12-.09-.03,0-.05,0-.06.02,0-.01,0-.02,0-.03Z"/><path class="cls-9" d="M18.86,7.49s.17.01.38.09c-.07,0-.13.03-.17.14-.03.09-.08.29-.1.36,0,0,0,.02,0,.03l-.1-.02s0-.02,0-.03c.01-.06.06-.27.07-.36.02-.11-.02-.18-.09-.2Z"/><path class="cls-4" d="M18.88,8.04s.03,0,.05,0c.02,0,.03,0,.05.01,0,.02,0,.03-.01.04l-.1-.02s0-.03,0-.04Z"/><path class="cls-9" d="M18.74,8.12s0,.02,0,.03c0,0,0,0,0,0,0,0,0,0,0,0,0,0,0,0,0,0,0,0,0,0,0,0,0,0,0,0,0,0,0,0,0,0,0,0,.02.03.07.05.12.07.06.01.11.01.14,0,0,0,0,0,0,0,0,0,0,0,0,0,0,0,0,0,0,0,0,0,0,0,0,0,0,0,0,0,0,0,0,0,0,0,0,0,0,0,0-.02.01-.02,0,0,0-.02,0-.03,0-.04-.06-.08-.14-.1-.08-.02-.15,0-.17.03,0,0,0,.02-.01.02Z"/><path class="cls-24" d="M18.8,8.16s.05-.04.11-.02c.05.01.09.04.08.07,0,.02-.02.03-.05.03.03-.01.03-.04,0-.06-.03-.02-.08-.03-.11-.02-.02,0-.04.01-.03.03,0,0,0-.01,0-.02Z"/><path class="cls-9" d="M19.61,7.58s.16-.1.39-.12c-.06.03-.09.15-.03.36.04.17.05.2.08.32,0,.02.01.03.01.05l-.1.03s0-.03-.02-.05c-.04-.12-.05-.14-.11-.31-.07-.21-.16-.29-.23-.29Z"/><path class="cls-4" d="M19.94,8.16s.03-.01.05-.02c.02,0,.04,0,.05-.01,0,.02.01.04.02.06l-.1.03s-.01-.04-.02-.06Z"/><path class="cls-9" d="M19.8,8.37s.01.03.02.04c0,0,0,0,0,0,0,0,0,0,0,0,0,0,0,0,.01,0,0,0,0,0,0,0,0,0,0,0,.01,0,0,0,0,0,0,0,.05.02.13.02.22,0,.09-.03.15-.07.18-.11,0,0,0,0,0,0,0,0,0,0,0,0,0,0,0,0,0,0,0,0,0,0,0-.01,0,0,0,0,0,0,0,0,0,0,0,0,0-.01,0-.03,0-.04,0-.01-.01-.03-.02-.04-.03-.05-.14-.06-.26-.02-.11.03-.2.1-.2.16,0,.01,0,.03,0,.04Z"/><path class="cls-24" d="M19.91,8.38s.04-.09.12-.11c.08-.02.15-.01.16.03,0,.02-.01.05-.05.07.03-.04.01-.07-.04-.08-.05,0-.13.03-.16.05-.03.02-.04.04-.02.06-.01,0-.02-.01-.02-.02Z"/><path class="cls-9" d="M20.29,7.38s.13-.14.35-.24c-.05.05-.06.14.02.28.06.11.13.21.18.28,0,.01.01.02.02.03l-.09.06s-.01-.02-.02-.03c-.05-.07-.12-.17-.2-.27-.1-.12-.19-.15-.25-.11Z"/><path class="cls-13" d="M20.29,7.38s.13-.14.35-.24c-.05.05-.06.14.02.28.06.11.13.21.18.28,0,.01.01.02.02.03l-.09.06s-.01-.02-.02-.03c-.05-.07-.12-.17-.2-.27-.1-.12-.19-.15-.25-.11Z"/><path class="cls-4" d="M20.74,7.75s.03-.02.04-.03c.02-.01.03-.02.05-.03.01.02.02.03.03.04l-.09.06s-.02-.03-.03-.04Z"/><path class="cls-9" d="M20.71,7.93s.01.02.02.02c0,0,0,0,0,0,0,0,0,0,0,0,0,0,0,0,.01,0,0,0,0,0,0,0,0,0,0,0,0,0,0,0,0,0,0,0,.04,0,.1-.02.15-.05.05-.04.09-.08.1-.12,0,0,0,0,0,0,0,0,0,0,0,0,0,0,0,0,0,0,0,0,0,0,0-.01,0,0,0,0,0,0,0,0,0,0,0,0,0,0,0-.02-.01-.03,0,0-.01-.02-.02-.02-.03-.02-.11,0-.18.04-.07.05-.11.12-.1.16,0,0,0,.02.01.03Z"/><path class="cls-24" d="M20.78,7.91s.01-.07.06-.11c.05-.03.1-.04.12-.02.01.01,0,.04-.01.06.01-.03,0-.05-.05-.04-.04,0-.09.05-.1.07-.01.02-.02.04,0,.05,0,0-.02,0-.02-.01Z"/><path class="cls-9" d="M20.89,6.86s.08-.15.16-.27c-.02.04-.03.1,0,.13.03.03.05.05.08.06,0,0,0,0,0,0l-.03.06s0,0,0,0c-.02-.01-.05-.03-.09-.03-.05-.01-.09.02-.11.06Z"/><path class="cls-4" d="M21.08,6.83s0-.02.02-.03c0,0,.01-.02.02-.03,0,0,.01,0,.02.01l-.03.06s-.01,0-.02-.01Z"/><path class="cls-9" d="M21.11,6.97s.01,0,.02,0c0,0,0,0,0,0,0,0,0,0,0,0,0,0,0,0,0,0,0,0,0,0,0,0,0,0,0,0,0,0,0,0,0,0,0,0,.03-.01.06-.04.09-.08.03-.04.04-.09.03-.12,0,0,0,0,0,0,0,0,0,0,0,0,0,0,0,0,0,0,0,0,0,0,0,0,0,0,0,0,0,0,0,0,0,0,0,0,0,0-.01-.01-.02-.02,0,0-.01,0-.02,0-.03,0-.08.03-.12.09-.03.06-.04.12-.02.14,0,0,0,.01.02.02Z"/><path class="cls-24" d="M21.15,6.94s-.01-.05,0-.09c.02-.04.06-.06.08-.05.01,0,.01.03,0,.05,0-.03-.02-.04-.05-.02-.02.02-.05.06-.05.08,0,.02,0,.03.02.03,0,0-.01,0-.02,0Z"/><path class="cls-9" d="M21.2,6.2s-.03-.18.04-.41c0,.07.02.13.21.16.16.03.17.03.28.04.02,0,.03,0,.05,0v.11s-.04,0-.06,0c-.11-.01-.12,0-.28-.02-.19,0-.22.04-.24.11Z"/><path class="cls-4" d="M21.7,6.1s0-.03,0-.05c0-.02,0-.04,0-.05.02,0,.05,0,.07,0v.11s-.05,0-.08,0Z"/><path class="cls-9" d="M21.82,6.28s.03,0,.04,0c0,0,0,0,0,0,0,0,0,0,0,0,0,0,0,0,.01,0,0,0,0,0,0,0,0,0,0,0,0,0,0,0,0,0,0,0,.03-.03.06-.1.07-.18,0-.08,0-.15-.03-.19,0,0,0,0,0,0,0,0,0,0,0,0,0,0,0,0,0,0,0,0,0,0,0,0,0,0,0,0,0,0,0,0,0,0,0,0-.01,0-.02-.01-.03-.01-.01,0-.02,0-.04,0-.05.01-.09.09-.1.2-.01.1.02.19.06.21.01,0,.02,0,.03.01Z"/><path class="cls-24" d="M21.86,6.2s-.06-.06-.05-.14c0-.07.04-.13.08-.12.02,0,.04.03.04.06-.02-.04-.05-.03-.08,0-.02.04-.02.12-.01.14,0,.03.02.05.04.04,0,0-.02,0-.03,0Z"/><path class="cls-9" d="M21.19,5.43s-.08-.13-.11-.33c.03.05.11.08.26.04.03,0,.05,0,.14-.03.01,0,.02,0,.03-.01l.03.09s-.02,0-.03.01c-.08.03-.11.05-.13.05-.14.06-.2.12-.19.18Z"/><path class="cls-4" d="M21.48,5.2s-.01-.03-.02-.04c0-.01,0-.03-.01-.04.02,0,.04-.01.05-.02l.03.09s-.03.01-.05.02Z"/><path class="cls-9" d="M21.62,5.27s.02,0,.02-.01c0,0,0,0,0,0,0,0,0,0,0,0,0,0,0,0,0,0,0,0,0,0,0,0,0,0,0,0,0,0,0,0,0,0,0,0,.01-.03.01-.08,0-.13-.02-.05-.05-.09-.07-.11,0,0,0,0,0,0,0,0,0,0,0,0,0,0,0,0,0,0,0,0,0,0,0,0,0,0,0,0,0,0,0,0,0,0,0,0,0,0-.02,0-.03,0,0,0-.02,0-.02.01-.03.02-.03.09-.01.16.02.07.07.12.1.12,0,0,.02,0,.03,0Z"/><path class="cls-24" d="M21.62,5.21s-.05-.03-.07-.07c-.02-.05,0-.09.01-.1.01,0,.03,0,.05.03-.02-.02-.05,0-.05.03,0,.03.02.08.03.1.01.02.03.02.04.01,0,0,0,.01-.01.01Z"/><path class="cls-9" d="M20.9,4.78s-.16-.1-.27-.3c.06.04.17.01.34-.13.14-.11.16-.12.25-.21.01-.01.03-.02.04-.03l.07.08s-.03.02-.04.04c-.09.08-.11.1-.23.23-.16.16-.2.27-.16.33Z"/><path class="cls-4" d="M20.9,4.78s-.16-.1-.27-.3c.06.04.17.01.34-.13.14-.11.16-.12.25-.21.01-.01.03-.02.04-.03l.07.08s-.03.02-.04.04c-.09.08-.11.1-.23.23-.16.16-.2.27-.16.33Z"/><path class="cls-4" d="M21.29,4.23s-.03-.02-.04-.04c-.01-.01-.02-.03-.03-.04.02-.02.03-.03.05-.04l.07.08s-.03.03-.05.04Z"/><path class="cls-9" d="M21.52,4.26s.02-.02.02-.03c0,0,0,0,0,0,0,0,0,0,0,0,0,0,0,0,0-.01,0,0,0,0,0,0,0,0,0,0,0-.01,0,0,0,0,0,0,0-.05-.03-.12-.09-.18-.05-.06-.12-.1-.17-.11,0,0,0,0,0,0,0,0,0,0-.01,0,0,0,0,0,0,0,0,0,0,0-.01,0,0,0,0,0,0,0,0,0,0,0,0,0-.01,0-.02,0-.03.02,0,0-.02.02-.02.03-.02.05,0,.14.08.22.07.08.16.12.21.1.01,0,.02,0,.03-.02Z"/><path class="cls-24" d="M21.48,4.17s-.09,0-.14-.06c-.05-.06-.07-.12-.04-.14.02-.01.05-.01.08,0-.04-.01-.07.02-.05.06.02.04.07.1.1.11.03.01.05.01.06,0,0,.01,0,.02-.01.03Z"/><path class="cls-9" d="M20.35,4.27s-.17-.04-.35-.16c.06.02.13,0,.19-.11.05-.08.09-.16.11-.22,0,0,0-.02.01-.02l.09.04s0,.02-.01.03c-.03.06-.06.14-.09.23-.04.11-.01.18.05.21Z"/><path class="cls-4" d="M20.39,3.84s-.03-.01-.05-.02c-.02,0-.03-.01-.05-.02,0-.01.01-.03.02-.04l.09.04s-.01.03-.02.04Z"/><path class="cls-9" d="M20.54,3.79s0-.02,0-.03c0,0,0,0,0,0,0,0,0,0,0,0,0,0,0,0,0,0,0,0,0,0,0,0,0,0,0,0,0,0,0,0,0,0,0,0-.02-.03-.06-.07-.11-.09-.05-.02-.11-.03-.14-.02,0,0,0,0,0,0,0,0,0,0,0,0,0,0,0,0,0,0,0,0,0,0,0,0,0,0,0,0,0,0,0,0,0,0,0,0,0,0-.01.01-.02.02,0,0,0,.02,0,.03,0,.04.05.09.12.12.07.03.14.03.17,0,0,0,.01-.01.02-.02Z"/><path class="cls-24" d="M20.49,3.74s-.06.02-.11,0c-.05-.02-.08-.06-.07-.08,0-.01.03-.02.05-.02-.03,0-.04.03-.01.06.02.02.08.04.1.04.02,0,.04,0,.04-.02,0,0,0,.01,0,.02Z"/><path class="cls-9" d="M19.72,4.11s-.19.04-.4-.06c.07,0,.15-.13.2-.41.01-.06.02-.07.05-.23,0-.02,0-.05.01-.07l.1.02s0,.04,0,.07c-.02.16-.01.19-.02.23-.03.28,0,.42.07.45Z"/><path class="cls-13" d="M19.72,4.11s-.19.04-.4-.06c.07,0,.15-.13.2-.41.01-.06.02-.07.05-.23,0-.02,0-.05.01-.07l.1.02s0,.04,0,.07c-.02.16-.01.19-.02.23-.03.28,0,.42.07.45Z"/><path class="cls-4" d="M19.66,3.43s-.03,0-.05,0c-.02,0-.04,0-.05-.01,0-.02,0-.05.01-.07l.1.02s0,.04,0,.07Z"/><path class="cls-9" d="M19.88,3.29s0-.03,0-.04c0,0,0,0,0,0,0,0,0,0,0,0,0,0,0,0,0-.01,0,0,0,0,0,0,0,0,0,0,0,0,0,0,0,0,0,0-.04-.04-.11-.07-.2-.09-.09-.01-.17,0-.21.03,0,0,0,0,0,0,0,0,0,0,0,0,0,0,0,0,0,0,0,0,0,0-.01.01,0,0,0,0,0,0,0,0,0,0,0,0,0,.01-.01.02-.02.04,0,.01,0,.03,0,.04.01.06.1.11.22.13.12.02.22,0,.25-.06,0-.01.01-.02.01-.04Z"/><path class="cls-24" d="M19.79,3.25s-.08.06-.16.05c-.08-.01-.14-.05-.14-.09,0-.02.03-.04.07-.05-.04.02-.04.06,0,.09.04.03.13.03.16.02.03,0,.05-.02.05-.05,0,0,.01.02,0,.03Z"/><path class="cls-9" d="M18.94,4.12s-.15.12-.39.17c.06-.04.08-.15,0-.34-.06-.15-.05-.14-.1-.24,0-.02-.01-.03-.02-.04l.1-.05s.01.03.02.04c.05.1.05.08.13.23.09.18.19.24.26.23Z"/><path class="cls-4" d="M18.56,3.66s-.03.02-.05.03c-.02,0-.04.01-.05.02,0-.02-.01-.03-.02-.05l.1-.05s.01.03.02.05Z"/><path class="cls-9" d="M18.62,3.49s-.01-.02-.02-.02c0,0,0,0,0,0,0,0,0,0,0,0,0,0,0,0,0,0,0,0,0,0,0,0,0,0,0,0,0,0,0,0,0,0,0,0-.04-.01-.1,0-.16.02-.06.03-.1.06-.12.1,0,0,0,0,0,0,0,0,0,0,0,0,0,0,0,0,0,0,0,0,0,0,0,.01,0,0,0,0,0,0,0,0,0,0,0,0,0,.01,0,.02,0,.03,0,0,.01.02.02.02.03.03.11.03.19,0,.08-.04.13-.09.13-.13,0,0,0-.02,0-.03Z"/><path class="cls-24" d="M18.54,3.5s-.02.07-.08.09c-.06.02-.11.02-.12,0,0-.02,0-.04.03-.06-.02.03,0,.05.04.05.04,0,.09-.03.11-.05.02-.02.02-.03,0-.05,0,0,.01,0,.02.02Z"/><path class="cls-9" d="M18.24,4.51s-.11.13-.21.23c.03-.03.05-.09.03-.13-.02-.03-.04-.06-.06-.08,0,0,0,0,0,0l.04-.05s0,0,0,0c.02.02.04.03.08.05.04.02.09,0,.12-.03Z"/><path class="cls-4" d="M18.05,4.5s-.01.02-.02.03c0,0-.02.02-.02.02,0,0-.01-.01-.02-.02l.04-.05s.01.01.02.02Z"/><path class="cls-9" d="M18.05,4.35s-.01,0-.02-.01c0,0,0,0,0,0,0,0,0,0,0,0,0,0,0,0,0,0,0,0,0,0,0,0,0,0,0,0,0,0,0,0,0,0,0,0-.03,0-.07.03-.1.07-.03.04-.05.08-.06.11,0,0,0,0,0,0,0,0,0,0,0,0,0,0,0,0,0,0,0,0,0,0,0,0,0,0,0,0,0,0,0,0,0,0,0,0,0,0,0,.01.01.02,0,0,.01,0,.02.01.03.01.09-.01.13-.06.05-.05.07-.11.05-.14,0,0,0-.01-.01-.02Z"/><path class="cls-24" d="M17.99,4.38s0,.06-.03.09c-.03.03-.07.05-.09.04-.01,0,0-.03,0-.05,0,.03.02.04.04.03.03-.01.06-.05.06-.07,0-.02,0-.03,0-.04,0,0,.01,0,.02,0Z"/><path class="cls-15" d="M20.05,4.12c.93.32,1.43,1.34,1.1,2.28-.32.93-1.34,1.43-2.28,1.1-.93-.32-1.43-1.34-1.1-2.28.32-.93,1.34-1.43,2.28-1.1Z"/><path class="cls-4" d="M20.58,4.42c.4.34.86,1.62-.05,2.55-.91.93-2.17.29-2.48-.04.2.26.48.46.82.58.93.32,1.95-.17,2.28-1.1.25-.73,0-1.52-.57-1.98Z"/><path class="cls-9" d="M19.75,6.84c.12-.06.26-.03.3.06.04.09-.02.21-.14.27-.12.06-.26.03-.3-.06-.04-.09.02-.21.14-.27Z"/><path class="cls-13" d="M19.75,6.84c.12-.06.26-.03.3.06.04.09-.02.21-.14.27-.12.06-.26.03-.3-.06-.04-.09.02-.21.14-.27Z"/><path class="cls-13" d="M19.71,7.14c-.06-.02-.05-.13.06-.19.09-.05.19-.05.23,0,.04.04,0,.1,0,.11.02-.04,0-.08-.06-.09-.06,0-.15,0-.21.08-.03.04-.03.08-.01.1Z"/><path class="cls-9" d="M19.52,4.7c-.13.02-.25-.04-.27-.14-.02-.1.08-.2.21-.22.13-.02.25.04.27.14.02.1-.08.2-.21.22Z"/><path class="cls-13" d="M19.52,4.7c-.13.02-.25-.04-.27-.14-.02-.1.08-.2.21-.22.13-.02.25.04.27.14.02.1-.08.2-.21.22Z"/><path class="cls-13" d="M19.64,4.43c.05.04.01.14-.11.17-.1.02-.2,0-.22-.06-.03-.06.02-.1.04-.1-.03.03-.02.08.04.1.05.02.15.03.22-.02.04-.03.05-.06.04-.09Z"/><path class="cls-9" d="M18.94,6.04c.06.1.05.21-.02.26-.07.05-.18,0-.24-.09-.06-.1-.05-.21.02-.26.07-.05.18,0,.24.09Z"/><path class="cls-13" d="M18.94,6.04c.06.1.05.21-.02.26-.07.05-.18,0-.24-.09-.06-.1-.05-.21.02-.26.07-.05.18,0,.24.09Z"/><path class="cls-13" d="M18.69,6.03c.01-.05.1-.06.16.03.05.07.06.15.03.19-.03.04-.09.02-.09,0,.03,0,.06-.01.07-.06,0-.05-.02-.12-.08-.16-.03-.02-.07-.02-.08,0Z"/><path class="cls-9" d="M19.95,5.92c.03-.13.13-.22.23-.2.1.02.16.14.13.27-.03.13-.13.22-.23.2-.1-.02-.16-.14-.13-.27Z"/><path class="cls-13" d="M19.95,5.92c.03-.13.13-.22.23-.2.1.02.16.14.13.27-.03.13-.13.22-.23.2-.1-.02-.16-.14-.13-.27Z"/><path class="cls-13" d="M20.16,6.13c-.05.04-.13-.04-.12-.16.01-.1.07-.18.13-.19.06,0,.09.06.08.07-.02-.04-.07-.04-.11,0-.04.04-.08.13-.06.21.01.05.04.07.07.07Z"/><path class="cls-9" d="M18.52,6.45c.07.12.05.25-.04.3-.09.05-.21,0-.28-.12-.07-.12-.05-.25.04-.3.09-.05.21,0,.28.12Z"/><path class="cls-13" d="M18.52,6.45c.07.12.05.25-.04.3-.09.05-.21,0-.28-.12-.07-.12-.05-.25.04-.3.09-.05.21,0,.28.12Z"/><path class="cls-13" d="M18.22,6.42c.02-.06.13-.06.19.05.05.08.06.19.02.23-.04.05-.1.01-.11,0,.04.01.08,0,.08-.07,0-.06-.02-.15-.09-.2-.04-.03-.08-.03-.1,0Z"/><path class="cls-9" d="M19.65,5.28c-.09-.08-.12-.2-.06-.26.06-.07.18-.06.27.02.09.08.12.2.06.26-.06.07-.18.06-.27-.02Z"/><path class="cls-13" d="M19.65,5.28c-.09-.08-.12-.2-.06-.26.06-.07.18-.06.27.02.09.08.12.2.06.26-.06.07-.18.06-.27-.02Z"/><path class="cls-13" d="M19.9,5.21c0,.06-.09.09-.17.02-.07-.05-.11-.14-.09-.18.02-.05.08-.04.09-.03-.04,0-.06.03-.05.08.01.05.06.12.14.14.04.01.07,0,.08-.03Z"/><path class="cls-9" d="M18.81,5.03c-.12.14-.31.18-.41.09-.11-.09-.09-.28.03-.42.12-.14.31-.18.41-.09.11.09.09.28-.03.42Z"/><path class="cls-13" d="M18.81,5.03c-.12.14-.31.18-.41.09-.11-.09-.09-.28.03-.42.12-.14.31-.18.41-.09.11.09.09.28-.03.42Z"/><path class="cls-13" d="M18.7,4.64c.09,0,.14.14.03.27-.08.11-.21.17-.29.14-.08-.03-.07-.13-.05-.14,0,.06.05.1.13.07.08-.02.19-.1.22-.21.02-.06,0-.12-.04-.13Z"/><path class="cls-9" d="M20.46,6.44c.05-.09.14-.13.21-.09.07.04.08.14.03.23s-.14.13-.21.09c-.07-.04-.08-.14-.03-.23Z"/><path class="cls-13" d="M20.46,6.44c.05-.09.14-.13.21-.09.07.04.08.14.03.23s-.14.13-.21.09c-.07-.04-.08-.14-.03-.23Z"/><path class="cls-13" d="M20.56,6.64s-.09-.06-.05-.14c.03-.07.09-.11.14-.1.05,0,.05.06.04.07,0-.03-.04-.04-.08-.02-.04.02-.09.07-.09.14,0,.04.01.06.04.07Z"/><path class="cls-9" d="M20.52,5.58c-.03-.13.04-.26.14-.28.1-.02.2.07.23.21.03.13-.04.26-.14.28-.1.02-.2-.07-.23-.21Z"/><path class="cls-13" d="M20.52,5.58c-.03-.13.04-.26.14-.28.1-.02.2.07.23.21.03.13-.04.26-.14.28-.1.02-.2-.07-.23-.21Z"/><path class="cls-13" d="M20.8,5.7c-.04.05-.14.02-.17-.11-.03-.1,0-.2.05-.23.06-.03.1.02.11.03-.03-.03-.08-.02-.1.04-.02.05-.03.15.02.22.03.04.07.05.09.04Z"/><path class="cls-9" d="M20.24,4.87c-.07-.05-.1-.13-.06-.19.04-.05.13-.06.2,0,.07.05.1.13.06.19-.04.05-.13.06-.2,0Z"/><path class="cls-13" d="M20.24,4.87c-.07-.05-.1-.13-.06-.19.04-.05.13-.06.2,0,.07.05.1.13.06.19-.04.05-.13.06-.2,0Z"/><path class="cls-13" d="M20.42,4.79s-.06.07-.13.03c-.06-.03-.09-.09-.08-.13.01-.04.06-.04.06-.03-.03,0-.04.03-.03.06.01.04.05.08.11.09.03,0,.05,0,.06-.03Z"/><path class="cls-9" d="M18.22,5.74c0,.09-.06.16-.12.16-.07,0-.12-.07-.12-.16,0-.09.06-.16.12-.16.07,0,.12.07.12.16Z"/><path class="cls-13" d="M18.22,5.74c0,.09-.06.16-.12.16-.07,0-.12-.07-.12-.16,0-.09.06-.16.12-.16.07,0,.12.07.12.16Z"/><path class="cls-13" d="M18.06,5.63s.09,0,.09.09c0,.06-.03.12-.06.14-.04.01-.06-.03-.06-.04.02.02.05.02.07-.01.02-.03.04-.09.02-.14-.01-.03-.03-.04-.05-.04Z"/><path class="cls-9" d="M19.42,6.39c.08-.03.17,0,.19.06.02.06-.03.14-.11.17-.08.03-.17,0-.19-.06-.02-.06.03-.14.11-.17Z"/><path class="cls-13" d="M19.42,6.39c.08-.03.17,0,.19.06.02.06-.03.14-.11.17-.08.03-.17,0-.19-.06-.02-.06.03-.14.11-.17Z"/><path class="cls-13" d="M19.37,6.58s-.02-.09.05-.12c.06-.02.13-.02.15.01.02.03,0,.07-.01.07.01-.02,0-.05-.03-.06-.04-.01-.1,0-.14.03-.02.02-.03.05-.02.06Z"/><path class="cls-9" d="M19.02,5.41c-.05.07-.14.09-.19.05-.05-.04-.05-.13,0-.2.05-.07.14-.09.19-.05.05.04.05.13,0,.2Z"/><path class="cls-13" d="M19.02,5.41c-.05.07-.14.09-.19.05-.05-.04-.05-.13,0-.2.05-.07.14-.09.19-.05.05.04.05.13,0,.2Z"/><path class="cls-13" d="M18.96,5.23s.07.06.02.13c-.04.05-.1.08-.13.07-.04-.01-.03-.06-.03-.07,0,.03.03.04.06.03.04-.01.09-.05.1-.1,0-.03,0-.05-.02-.06Z"/><path class="cls-9" d="M18.96,6.99c.08.03.13.11.11.17-.02.06-.11.09-.19.06-.08-.03-.13-.11-.11-.17.02-.06.11-.09.19-.06Z"/><path class="cls-13" d="M18.96,6.99c.08.03.13.11.11.17-.02.06-.11.09-.19.06-.08-.03-.13-.11-.11-.17.02-.06.11-.09.19-.06Z"/><path class="cls-13" d="M18.8,7.11s.04-.08.12-.06c.06.02.11.07.11.1,0,.04-.05.05-.05.05.03-.01.03-.04.01-.07-.02-.03-.07-.07-.13-.06-.03,0-.05.02-.05.04Z"/><path class="cls-9" d="M19.56,5.58c.08.08.07.22-.02.32-.09.09-.24.1-.32.02-.08-.08-.07-.22.02-.32.09-.09.24-.1.32-.02Z"/><path class="cls-13" d="M19.56,5.58c.08.08.07.22-.02.32-.09.09-.24.1-.32.02-.08-.08-.07-.22.02-.32.09-.09.24-.1.32-.02Z"/><path class="cls-13" d="M19.23,5.82c.02.07.11.12.22.07.1-.05.14-.22.05-.27.01.06,0,.15-.07.21-.07.06-.16.05-.2,0Z"/></g><g id="Virus-3"><path class="cls-12" d="M30.91,9.16s.03-.04.07-.04c.04,0,.07.02.07.04s-.03.04-.07.04c-.04,0-.07-.02-.07-.04Z"/><path class="cls-12" d="M30.95,9.08s.03-.04.07-.04c.04,0,.07.02.07.04,0,.02-.03.04-.07.04s-.07-.02-.07-.04Z"/><path class="cls-12" d="M30.82,9.1s.03-.04.07-.04.07.02.07.04-.03.04-.07.04c-.04,0-.07-.02-.07-.04Z"/><path class="cls-12" d="M30.55,9.1s-.01-.05-.05-.06c-.04-.01-.07,0-.08.01,0,.02.01.05.05.06.04.01.07,0,.08-.01Z"/><path class="cls-12" d="M30.53,9.01s-.01-.05-.05-.06c-.04-.01-.07,0-.08.01,0,.02.01.05.05.06.04.01.07,0,.08-.01Z"/><path class="cls-12" d="M30.65,9.07s-.01-.05-.05-.06-.07,0-.08.01c0,.02.01.05.05.06.04.01.07,0,.08-.01Z"/><path class="cls-12" d="M29.86,8.47s.05,0,.07.04.01.07,0,.08c-.02.01-.05,0-.07-.04s-.01-.07,0-.08Z"/><path class="cls-12" d="M29.95,8.48s.05,0,.07.04c.02.03.01.07,0,.08-.02.01-.05,0-.07-.04s-.01-.07,0-.08Z"/><path class="cls-12" d="M29.88,8.37s.05,0,.07.04.01.07,0,.08c-.02.01-.05,0-.07-.04s-.01-.07,0-.08Z"/><path class="cls-12" d="M29.76,8.13s.04-.03.04-.07c0-.04-.03-.07-.05-.06s-.04.03-.04.07c0,.04.03.07.05.06Z"/><path class="cls-12" d="M29.83,8.08s.04-.03.04-.07c0-.04-.03-.07-.05-.06s-.04.03-.04.07c0,.04.03.07.05.06Z"/><path class="cls-12" d="M29.83,8.21s.04-.03.04-.07c0-.04-.03-.07-.05-.06-.02,0-.04.03-.04.07,0,.04.03.07.05.06Z"/><path class="cls-12" d="M29.86,7.52s.03.04.01.08-.04.06-.07.05c-.02,0-.03-.04-.01-.08.01-.03.04-.06.07-.05Z"/><path class="cls-12" d="M29.92,7.59s.03.04.01.08-.04.06-.07.05c-.02,0-.03-.04-.01-.08.01-.03.04-.06.07-.05Z"/><path class="cls-12" d="M29.95,7.47s.03.04.01.08c-.01.03-.04.06-.07.05-.02,0-.03-.04-.01-.08.01-.03.04-.06.07-.05Z"/><path class="cls-12" d="M30.05,7.22s.05,0,.08-.02.03-.06.02-.08c-.02-.02-.05,0-.08.02-.03.03-.03.06-.02.08Z"/><path class="cls-12" d="M30.14,7.24s.05,0,.08-.02c.03-.03.03-.06.02-.08-.02-.02-.05,0-.08.02-.03.03-.03.06-.02.08Z"/><path class="cls-12" d="M30.04,7.32s.05,0,.08-.02c.03-.03.03-.06.02-.08-.02-.02-.05,0-.08.02-.03.03-.03.06-.02.08Z"/><path class="cls-17" d="M31.36,6.96c.6.2.91.82.71,1.39-.21.57-.86.87-1.45.68-.6-.2-.91-.82-.71-1.39s.86-.87,1.45-.68Z"/><path class="cls-4" d="M31.7,7.15c.26.21.55.99-.03,1.56-.58.57-1.38.18-1.58-.02.13.16.31.28.52.36.6.2,1.25-.1,1.45-.68.16-.45,0-.93-.36-1.21Z"/><path class="cls-21" d="M30.93,7.89s-.04.09-.09.09-.09-.04-.09-.09.04-.09.09-.09.09.04.09.09Z"/><path class="cls-21" d="M31.11,7.93s-.04.09-.09.09-.09-.04-.09-.09.04-.09.09-.09.09.04.09.09Z"/><path class="cls-21" d="M30.89,8.06s-.04.09-.09.09-.09-.04-.09-.09.04-.09.09-.09.09.04.09.09Z"/><path class="cls-21" d="M31.07,8.1s-.04.09-.09.09-.09-.04-.09-.09.04-.09.09-.09.09.04.09.09Z"/><path class="cls-21" d="M30.19,7.42s-.07.06-.11.04c-.03-.02-.04-.07-.01-.11.03-.04.07-.06.11-.04.03.02.04.07.01.11Z"/><path class="cls-21" d="M30.29,7.52s-.07.06-.11.04c-.03-.02-.04-.07-.01-.11.03-.04.07-.06.11-.04.03.02.04.07.01.11Z"/><path class="cls-21" d="M30.07,7.55s-.07.06-.11.04c-.03-.02-.04-.07-.01-.11.03-.04.07-.06.11-.04.03.02.04.07.01.11Z"/><path class="cls-21" d="M30.17,7.65s-.07.06-.11.04c-.03-.02-.04-.07-.01-.11.03-.04.07-.06.11-.04.03.02.04.07.01.11Z"/><path class="cls-21" d="M30.04,8.14s-.03.08-.08.08-.08-.04-.08-.08.03-.08.08-.08.08.04.08.08Z"/><path class="cls-21" d="M30.19,8.17s-.03.08-.08.08-.08-.04-.08-.08.03-.08.08-.08.08.04.08.08Z"/><path class="cls-21" d="M30,8.29s-.03.08-.08.08-.08-.04-.08-.08.03-.08.08-.08.08.04.08.08Z"/><path class="cls-21" d="M30.16,8.33s-.03.08-.08.08-.08-.04-.08-.08.03-.08.08-.08.08.04.08.08Z"/><path class="cls-21" d="M31.14,7.22s-.04.07-.09.07-.09-.03-.09-.07.04-.07.09-.07.09.03.09.07Z"/><ellipse class="cls-21" cx="31.23" cy="7.25" rx=".09" ry=".07"/><path class="cls-21" d="M31.11,7.35s-.04.07-.09.07-.09-.03-.09-.07.04-.07.09-.07.09.03.09.07Z"/><path class="cls-21" d="M31.29,7.37s-.04.07-.09.07-.09-.03-.09-.07.04-.07.09-.07.09.03.09.07Z"/><path class="cls-21" d="M31.8,7.84s-.08-.02-.09-.06,0-.09.04-.1c.04-.01.08.02.09.06.01.05,0,.09-.04.1Z"/><path class="cls-21" d="M31.82,8.01s-.08-.02-.09-.06c-.01-.05,0-.09.04-.1.04-.01.08.02.09.06.01.05,0,.09-.04.1Z"/><path class="cls-21" d="M31.66,7.84s-.08-.02-.09-.06c-.01-.05,0-.09.04-.1.04-.01.08.02.09.06.01.05,0,.09-.04.1Z"/><path class="cls-21" d="M31.68,8.01s-.08-.02-.09-.06c-.01-.05,0-.09.04-.1.04-.01.08.02.09.06.01.05,0,.09-.04.1Z"/><path class="cls-21" d="M31.57,8.62s-.03-.07,0-.11.08-.05.11-.03c.03.02.03.07,0,.11-.03.04-.08.05-.11.03Z"/><path class="cls-21" d="M31.43,8.74s-.03-.07,0-.11c.03-.04.08-.05.11-.03.03.02.03.07,0,.11s-.08.05-.11.03Z"/><path class="cls-21" d="M31.48,8.51s-.03-.07,0-.11c.03-.04.08-.05.11-.03s.03.07,0,.11c-.03.04-.08.05-.11.03Z"/><path class="cls-21" d="M31.35,8.63s-.03-.07,0-.11c.03-.04.08-.05.11-.03s.03.07,0,.11c-.03.04-.08.05-.11.03Z"/><path class="cls-21" d="M30.72,8.85s.05-.06.1-.05c.05,0,.09.04.08.08s-.05.06-.1.05-.09-.04-.08-.08Z"/><path class="cls-21" d="M30.54,8.8s.05-.06.1-.05c.05,0,.09.04.08.08,0,.04-.05.06-.1.05s-.09-.04-.08-.08Z"/><path class="cls-21" d="M30.77,8.72s.05-.06.1-.05c.05,0,.09.04.08.08,0,.04-.05.06-.1.05s-.09-.04-.08-.08Z"/><path class="cls-21" d="M30.6,8.67s.05-.06.1-.05c.05,0,.09.04.08.08,0,.04-.05.06-.1.05-.05,0-.09-.04-.08-.08Z"/><path class="cls-12" d="M30.86,7.5s-.03.07-.08.07-.08-.03-.08-.07.03-.07.08-.07.08.03.08.07Z"/><circle class="cls-12" cx="30.73" cy="7.64" r=".08"/><circle class="cls-12" cx="30.87" cy="7.62" r=".08"/><path class="cls-12" d="M30.67,7.13s-.03.07-.08.07-.08-.03-.08-.07.03-.07.08-.07.08.03.08.07Z"/><circle class="cls-12" cx="30.54" cy="7.27" r=".08"/><circle class="cls-12" cx="30.69" cy="7.24" r=".08"/><path class="cls-12" d="M31.01,6.86s-.03.05-.08.05-.08-.02-.08-.05.03-.05.08-.05.08.02.08.05Z"/><ellipse class="cls-12" cx="30.88" cy="6.94" rx=".08" ry=".05"/><ellipse class="cls-12" cx="31.02" cy="6.93" rx=".08" ry=".05"/><path class="cls-12" d="M31.4,6.93s.02.05.06.07.08,0,.09-.01c0-.02-.02-.05-.06-.07s-.08,0-.09.01Z"/><path class="cls-12" d="M31.42,7.02s.02.05.06.07.08,0,.09-.01c0-.02-.02-.05-.06-.07s-.08,0-.09.01Z"/><path class="cls-12" d="M31.29,6.96s.02.05.06.07.08,0,.09-.01c0-.02-.02-.05-.06-.07s-.08,0-.09.01Z"/><path class="cls-12" d="M32.11,7.57s-.06-.02-.07-.05c-.02-.04,0-.08.02-.09.02,0,.06.02.07.05.02.04,0,.08-.02.09Z"/><path class="cls-12" d="M32.01,7.55s-.06-.02-.07-.05c-.02-.04,0-.08.02-.09.02,0,.06.02.07.05.02.04,0,.08-.02.09Z"/><path class="cls-12" d="M32.08,7.67s-.06-.02-.07-.05c-.02-.04,0-.08.02-.09.02,0,.06.02.07.05.02.04,0,.08-.02.09Z"/><path class="cls-12" d="M32.19,7.95s-.05.03-.05.07c0,.04.02.07.05.08.03,0,.05-.03.05-.07,0-.04-.02-.07-.05-.08Z"/><path class="cls-12" d="M32.1,8s-.05.03-.05.07c0,.04.02.07.05.08s.05-.03.05-.07c0-.04-.02-.07-.05-.08Z"/><path class="cls-12" d="M32.12,7.86s-.05.03-.05.07c0,.04.02.07.05.08.03,0,.05-.03.05-.07,0-.04-.02-.07-.05-.08Z"/><path class="cls-12" d="M31.95,8.66s-.02-.05,0-.08c.02-.03.05-.05.07-.04s.02.05,0,.08c-.02.03-.05.05-.07.04Z"/><path class="cls-12" d="M31.91,8.58s-.02-.05,0-.08c.02-.03.05-.05.07-.04.02.01.02.05,0,.08s-.05.05-.07.04Z"/><path class="cls-12" d="M31.85,8.69s-.02-.05,0-.08.05-.05.07-.04c.02.01.02.05,0,.08s-.05.05-.07.04Z"/><path class="cls-12" d="M31.71,8.92s-.05-.01-.08,0c-.03.02-.04.06-.03.07.01.02.05.01.08,0,.03-.02.04-.06.03-.07Z"/><path class="cls-12" d="M31.62,8.89s-.05-.01-.08,0-.04.06-.03.07c.01.02.05.01.08,0s.04-.06.03-.07Z"/><path class="cls-12" d="M31.73,8.82s-.05-.01-.08,0c-.03.02-.04.06-.03.07.01.02.05.01.08,0,.03-.02.04-.06.03-.07Z"/><circle class="cls-12" cx="30.45" cy="7.85" r=".08"/><circle class="cls-12" cx="30.4" cy="7.99" r=".08"/><circle class="cls-12" cx="30.54" cy="7.97" r=".08"/><path class="cls-12" d="M30.63,8.26s-.03.07-.08.07-.08-.03-.08-.07.03-.07.08-.07.08.03.08.07Z"/><circle class="cls-12" cx="30.51" cy="8.4" r=".08"/><circle class="cls-12" cx="30.65" cy="8.38" r=".08"/><path class="cls-12" d="M31.18,8.45s-.08.03-.11,0c-.03-.03-.03-.08,0-.11.03-.03.08-.03.11,0s.03.08,0,.11Z"/><path class="cls-12" d="M31.04,8.52s-.08.03-.11,0-.03-.08,0-.11c.03-.03.08-.03.11,0,.03.03.03.08,0,.11Z"/><path class="cls-12" d="M31.16,8.59s-.08.03-.11,0c-.03-.03-.03-.08,0-.11.03-.03.08-.03.11,0,.03.03.03.08,0,.11Z"/><path class="cls-12" d="M31.36,8.87s-.08.03-.11,0c-.03-.03-.03-.08,0-.11.03-.03.08-.03.11,0,.03.03.03.08,0,.11Z"/><path class="cls-12" d="M31.23,8.93s-.08.03-.11,0-.03-.08,0-.11c.03-.03.08-.03.11,0,.03.03.03.08,0,.11Z"/><path class="cls-12" d="M31.35,9.01s-.08.03-.11,0c-.03-.03-.03-.08,0-.11.03-.03.08-.03.11,0,.03.03.03.08,0,.11Z"/><path class="cls-12" d="M30.3,8.7s-.08.03-.11,0c-.03-.03-.03-.08,0-.11.03-.03.08-.03.11,0s.03.08,0,.11Z"/><path class="cls-12" d="M30.16,8.76s-.08.03-.11,0-.03-.08,0-.11.08-.03.11,0c.03.03.03.08,0,.11Z"/><path class="cls-12" d="M30.28,8.84s-.08.03-.11,0c-.03-.03-.03-.08,0-.11.03-.03.08-.03.11,0,.03.03.03.08,0,.11Z"/><path class="cls-12" d="M31.38,8.03s.02.08-.02.1c-.03.02-.08.02-.11-.02s-.02-.08.02-.1.08-.02.11.02Z"/><path class="cls-12" d="M31.42,8.17s.02.08-.02.1c-.03.02-.08.02-.11-.02-.03-.03-.02-.08.02-.1s.08-.02.11.02Z"/><path class="cls-12" d="M31.53,8.07s.02.08-.02.1-.08.02-.11-.02-.02-.08.02-.1c.03-.02.08-.02.11.02Z"/><path class="cls-12" d="M31.82,8.19s.02.08-.02.1-.08.02-.11-.02-.02-.08.02-.1c.03-.02.08-.02.11.02Z"/><path class="cls-12" d="M31.87,8.33s.02.08-.02.1-.08.02-.11-.02-.02-.08.02-.1.08-.02.11.02Z"/><path class="cls-12" d="M31.97,8.23s.02.08-.02.1c-.03.02-.08.02-.11-.02-.03-.03-.02-.08.02-.1.03-.02.08-.02.11.02Z"/><path class="cls-12" d="M31.36,7.7s-.08.03-.11,0-.03-.08,0-.11.08-.03.11,0,.03.08,0,.11Z"/><path class="cls-12" d="M31.22,7.76s-.08.03-.11,0c-.03-.03-.03-.08,0-.11.03-.03.08-.03.11,0s.03.08,0,.11Z"/><path class="cls-12" d="M31.34,7.84s-.08.03-.11,0c-.03-.03-.03-.08,0-.11.03-.03.08-.03.11,0,.03.03.03.08,0,.11Z"/><path class="cls-12" d="M31.74,7.36s-.08.03-.11,0c-.03-.03-.03-.08,0-.11s.08-.03.11,0,.03.08,0,.11Z"/><path class="cls-12" d="M31.6,7.42s-.08.03-.11,0c-.03-.03-.03-.08,0-.11.03-.03.08-.03.11,0,.03.03.03.08,0,.11Z"/><path class="cls-12" d="M31.71,7.5s-.08.03-.11,0c-.03-.03-.03-.08,0-.11.03-.03.08-.03.11,0s.03.08,0,.11Z"/></g><g id="Virus-4"><path class="cls-12" d="M30.91,9.16s.03-.04.07-.04c.04,0,.07.02.07.04s-.03.04-.07.04c-.04,0-.07-.02-.07-.04Z"/><path class="cls-12" d="M30.95,9.08s.03-.04.07-.04c.04,0,.07.02.07.04,0,.02-.03.04-.07.04s-.07-.02-.07-.04Z"/><path class="cls-12" d="M30.82,9.1s.03-.04.07-.04.07.02.07.04-.03.04-.07.04c-.04,0-.07-.02-.07-.04Z"/><path class="cls-12" d="M30.55,9.1s-.01-.05-.05-.06c-.04-.01-.07,0-.08.01,0,.02.01.05.05.06.04.01.07,0,.08-.01Z"/><path class="cls-12" d="M30.53,9.01s-.01-.05-.05-.06c-.04-.01-.07,0-.08.01,0,.02.01.05.05.06.04.01.07,0,.08-.01Z"/><path class="cls-12" d="M30.65,9.07s-.01-.05-.05-.06-.07,0-.08.01c0,.02.01.05.05.06.04.01.07,0,.08-.01Z"/><path class="cls-12" d="M29.86,8.47s.05,0,.07.04.01.07,0,.08c-.02.01-.05,0-.07-.04s-.01-.07,0-.08Z"/><path class="cls-12" d="M29.95,8.48s.05,0,.07.04c.02.03.01.07,0,.08-.02.01-.05,0-.07-.04s-.01-.07,0-.08Z"/><path class="cls-12" d="M29.88,8.37s.05,0,.07.04.01.07,0,.08c-.02.01-.05,0-.07-.04s-.01-.07,0-.08Z"/><path class="cls-12" d="M29.76,8.13s.04-.03.04-.07c0-.04-.03-.07-.05-.06s-.04.03-.04.07c0,.04.03.07.05.06Z"/><path class="cls-12" d="M29.83,8.08s.04-.03.04-.07c0-.04-.03-.07-.05-.06s-.04.03-.04.07c0,.04.03.07.05.06Z"/><path class="cls-12" d="M29.83,8.21s.04-.03.04-.07c0-.04-.03-.07-.05-.06-.02,0-.04.03-.04.07,0,.04.03.07.05.06Z"/><path class="cls-12" d="M29.86,7.52s.03.04.01.08-.04.06-.07.05c-.02,0-.03-.04-.01-.08.01-.03.04-.06.07-.05Z"/><path class="cls-12" d="M29.92,7.59s.03.04.01.08-.04.06-.07.05c-.02,0-.03-.04-.01-.08.01-.03.04-.06.07-.05Z"/><path class="cls-12" d="M29.95,7.47s.03.04.01.08c-.01.03-.04.06-.07.05-.02,0-.03-.04-.01-.08.01-.03.04-.06.07-.05Z"/><path class="cls-12" d="M30.05,7.22s.05,0,.08-.02.03-.06.02-.08c-.02-.02-.05,0-.08.02-.03.03-.03.06-.02.08Z"/><path class="cls-12" d="M30.14,7.24s.05,0,.08-.02c.03-.03.03-.06.02-.08-.02-.02-.05,0-.08.02-.03.03-.03.06-.02.08Z"/><path class="cls-12" d="M30.04,7.32s.05,0,.08-.02c.03-.03.03-.06.02-.08-.02-.02-.05,0-.08.02-.03.03-.03.06-.02.08Z"/><path class="cls-23" d="M31.36,6.96c.6.2.91.82.71,1.39-.21.57-.86.87-1.45.68-.6-.2-.91-.82-.71-1.39s.86-.87,1.45-.68Z"/><path class="cls-4" d="M31.7,7.15c.26.21.55.99-.03,1.56-.58.57-1.38.18-1.58-.02.13.16.31.28.52.36.6.2,1.25-.1,1.45-.68.16-.45,0-.93-.36-1.21Z"/><path class="cls-11" d="M30.93,7.89s-.04.09-.09.09-.09-.04-.09-.09.04-.09.09-.09.09.04.09.09Z"/><path class="cls-11" d="M31.11,7.93s-.04.09-.09.09-.09-.04-.09-.09.04-.09.09-.09.09.04.09.09Z"/><path class="cls-11" d="M30.89,8.06s-.04.09-.09.09-.09-.04-.09-.09.04-.09.09-.09.09.04.09.09Z"/><path class="cls-11" d="M31.07,8.1s-.04.09-.09.09-.09-.04-.09-.09.04-.09.09-.09.09.04.09.09Z"/><path class="cls-11" d="M30.19,7.42s-.07.06-.11.04c-.03-.02-.04-.07-.01-.11.03-.04.07-.06.11-.04.03.02.04.07.01.11Z"/><path class="cls-11" d="M30.29,7.52s-.07.06-.11.04c-.03-.02-.04-.07-.01-.11.03-.04.07-.06.11-.04.03.02.04.07.01.11Z"/><path class="cls-11" d="M30.07,7.55s-.07.06-.11.04c-.03-.02-.04-.07-.01-.11.03-.04.07-.06.11-.04.03.02.04.07.01.11Z"/><path class="cls-11" d="M30.17,7.65s-.07.06-.11.04c-.03-.02-.04-.07-.01-.11.03-.04.07-.06.11-.04.03.02.04.07.01.11Z"/><path class="cls-11" d="M30.04,8.14s-.03.08-.08.08-.08-.04-.08-.08.03-.08.08-.08.08.04.08.08Z"/><path class="cls-11" d="M30.19,8.17s-.03.08-.08.08-.08-.04-.08-.08.03-.08.08-.08.08.04.08.08Z"/><path class="cls-11" d="M30,8.29s-.03.08-.08.08-.08-.04-.08-.08.03-.08.08-.08.08.04.08.08Z"/><path class="cls-11" d="M30.16,8.33s-.03.08-.08.08-.08-.04-.08-.08.03-.08.08-.08.08.04.08.08Z"/><path class="cls-11" d="M31.14,7.22s-.04.07-.09.07-.09-.03-.09-.07.04-.07.09-.07.09.03.09.07Z"/><ellipse class="cls-11" cx="31.23" cy="7.25" rx=".09" ry=".07"/><path class="cls-11" d="M31.11,7.35s-.04.07-.09.07-.09-.03-.09-.07.04-.07.09-.07.09.03.09.07Z"/><path class="cls-11" d="M31.29,7.37s-.04.07-.09.07-.09-.03-.09-.07.04-.07.09-.07.09.03.09.07Z"/><path class="cls-11" d="M31.8,7.84s-.08-.02-.09-.06,0-.09.04-.1c.04-.01.08.02.09.06.01.05,0,.09-.04.1Z"/><path class="cls-11" d="M31.82,8.01s-.08-.02-.09-.06c-.01-.05,0-.09.04-.1.04-.01.08.02.09.06.01.05,0,.09-.04.1Z"/><path class="cls-11" d="M31.66,7.84s-.08-.02-.09-.06c-.01-.05,0-.09.04-.1.04-.01.08.02.09.06.01.05,0,.09-.04.1Z"/><path class="cls-11" d="M31.68,8.01s-.08-.02-.09-.06c-.01-.05,0-.09.04-.1.04-.01.08.02.09.06.01.05,0,.09-.04.1Z"/><path class="cls-11" d="M31.57,8.62s-.03-.07,0-.11.08-.05.11-.03c.03.02.03.07,0,.11-.03.04-.08.05-.11.03Z"/><path class="cls-11" d="M31.43,8.74s-.03-.07,0-.11c.03-.04.08-.05.11-.03.03.02.03.07,0,.11s-.08.05-.11.03Z"/><path class="cls-11" d="M31.48,8.51s-.03-.07,0-.11c.03-.04.08-.05.11-.03s.03.07,0,.11c-.03.04-.08.05-.11.03Z"/><path class="cls-11" d="M31.35,8.63s-.03-.07,0-.11c.03-.04.08-.05.11-.03s.03.07,0,.11c-.03.04-.08.05-.11.03Z"/><path class="cls-11" d="M30.72,8.85s.05-.06.1-.05c.05,0,.09.04.08.08s-.05.06-.1.05-.09-.04-.08-.08Z"/><path class="cls-11" d="M30.54,8.8s.05-.06.1-.05c.05,0,.09.04.08.08,0,.04-.05.06-.1.05s-.09-.04-.08-.08Z"/><path class="cls-11" d="M30.77,8.72s.05-.06.1-.05c.05,0,.09.04.08.08,0,.04-.05.06-.1.05s-.09-.04-.08-.08Z"/><path class="cls-11" d="M30.6,8.67s.05-.06.1-.05c.05,0,.09.04.08.08,0,.04-.05.06-.1.05-.05,0-.09-.04-.08-.08Z"/><path class="cls-12" d="M30.86,7.5s-.03.07-.08.07-.08-.03-.08-.07.03-.07.08-.07.08.03.08.07Z"/><circle class="cls-12" cx="30.73" cy="7.64" r=".08"/><circle class="cls-12" cx="30.87" cy="7.62" r=".08"/><path class="cls-12" d="M30.67,7.13s-.03.07-.08.07-.08-.03-.08-.07.03-.07.08-.07.08.03.08.07Z"/><circle class="cls-12" cx="30.54" cy="7.27" r=".08"/><circle class="cls-12" cx="30.69" cy="7.24" r=".08"/><path class="cls-12" d="M31.01,6.86s-.03.05-.08.05-.08-.02-.08-.05.03-.05.08-.05.08.02.08.05Z"/><ellipse class="cls-12" cx="30.88" cy="6.94" rx=".08" ry=".05"/><ellipse class="cls-12" cx="31.02" cy="6.93" rx=".08" ry=".05"/><path class="cls-12" d="M31.4,6.93s.02.05.06.07.08,0,.09-.01c0-.02-.02-.05-.06-.07s-.08,0-.09.01Z"/><path class="cls-12" d="M31.42,7.02s.02.05.06.07.08,0,.09-.01c0-.02-.02-.05-.06-.07s-.08,0-.09.01Z"/><path class="cls-12" d="M31.29,6.96s.02.05.06.07.08,0,.09-.01c0-.02-.02-.05-.06-.07s-.08,0-.09.01Z"/><path class="cls-12" d="M32.11,7.57s-.06-.02-.07-.05c-.02-.04,0-.08.02-.09.02,0,.06.02.07.05.02.04,0,.08-.02.09Z"/><path class="cls-12" d="M32.01,7.55s-.06-.02-.07-.05c-.02-.04,0-.08.02-.09.02,0,.06.02.07.05.02.04,0,.08-.02.09Z"/><path class="cls-12" d="M32.08,7.67s-.06-.02-.07-.05c-.02-.04,0-.08.02-.09.02,0,.06.02.07.05.02.04,0,.08-.02.09Z"/><path class="cls-12" d="M32.19,7.95s-.05.03-.05.07c0,.04.02.07.05.08.03,0,.05-.03.05-.07,0-.04-.02-.07-.05-.08Z"/><path class="cls-12" d="M32.1,8s-.05.03-.05.07c0,.04.02.07.05.08s.05-.03.05-.07c0-.04-.02-.07-.05-.08Z"/><path class="cls-12" d="M32.12,7.86s-.05.03-.05.07c0,.04.02.07.05.08.03,0,.05-.03.05-.07,0-.04-.02-.07-.05-.08Z"/><path class="cls-12" d="M31.95,8.66s-.02-.05,0-.08c.02-.03.05-.05.07-.04s.02.05,0,.08c-.02.03-.05.05-.07.04Z"/><path class="cls-12" d="M31.91,8.58s-.02-.05,0-.08c.02-.03.05-.05.07-.04.02.01.02.05,0,.08s-.05.05-.07.04Z"/><path class="cls-12" d="M31.85,8.69s-.02-.05,0-.08.05-.05.07-.04c.02.01.02.05,0,.08s-.05.05-.07.04Z"/><path class="cls-12" d="M31.71,8.92s-.05-.01-.08,0c-.03.02-.04.06-.03.07.01.02.05.01.08,0,.03-.02.04-.06.03-.07Z"/><path class="cls-12" d="M31.62,8.89s-.05-.01-.08,0-.04.06-.03.07c.01.02.05.01.08,0s.04-.06.03-.07Z"/><path class="cls-12" d="M31.73,8.82s-.05-.01-.08,0c-.03.02-.04.06-.03.07.01.02.05.01.08,0,.03-.02.04-.06.03-.07Z"/><circle class="cls-12" cx="30.45" cy="7.85" r=".08"/><circle class="cls-12" cx="30.4" cy="7.99" r=".08"/><circle class="cls-12" cx="30.54" cy="7.97" r=".08"/><path class="cls-12" d="M30.63,8.26s-.03.07-.08.07-.08-.03-.08-.07.03-.07.08-.07.08.03.08.07Z"/><circle class="cls-12" cx="30.51" cy="8.4" r=".08"/><circle class="cls-12" cx="30.65" cy="8.38" r=".08"/><path class="cls-12" d="M31.18,8.45s-.08.03-.11,0c-.03-.03-.03-.08,0-.11.03-.03.08-.03.11,0s.03.08,0,.11Z"/><path class="cls-12" d="M31.04,8.52s-.08.03-.11,0-.03-.08,0-.11c.03-.03.08-.03.11,0,.03.03.03.08,0,.11Z"/><path class="cls-12" d="M31.16,8.59s-.08.03-.11,0c-.03-.03-.03-.08,0-.11.03-.03.08-.03.11,0,.03.03.03.08,0,.11Z"/><path class="cls-12" d="M31.36,8.87s-.08.03-.11,0c-.03-.03-.03-.08,0-.11.03-.03.08-.03.11,0,.03.03.03.08,0,.11Z"/><path class="cls-12" d="M31.23,8.93s-.08.03-.11,0-.03-.08,0-.11c.03-.03.08-.03.11,0,.03.03.03.08,0,.11Z"/><path class="cls-12" d="M31.35,9.01s-.08.03-.11,0c-.03-.03-.03-.08,0-.11.03-.03.08-.03.11,0,.03.03.03.08,0,.11Z"/><path class="cls-12" d="M30.3,8.7s-.08.03-.11,0c-.03-.03-.03-.08,0-.11.03-.03.08-.03.11,0s.03.08,0,.11Z"/><path class="cls-12" d="M30.16,8.76s-.08.03-.11,0-.03-.08,0-.11.08-.03.11,0c.03.03.03.08,0,.11Z"/><path class="cls-12" d="M30.28,8.84s-.08.03-.11,0c-.03-.03-.03-.08,0-.11.03-.03.08-.03.11,0,.03.03.03.08,0,.11Z"/><path class="cls-12" d="M31.38,8.03s.02.08-.02.1c-.03.02-.08.02-.11-.02s-.02-.08.02-.1.08-.02.11.02Z"/><path class="cls-12" d="M31.42,8.17s.02.08-.02.1c-.03.02-.08.02-.11-.02-.03-.03-.02-.08.02-.1s.08-.02.11.02Z"/><path class="cls-12" d="M31.53,8.07s.02.08-.02.1-.08.02-.11-.02-.02-.08.02-.1c.03-.02.08-.02.11.02Z"/><path class="cls-12" d="M31.82,8.19s.02.08-.02.1-.08.02-.11-.02-.02-.08.02-.1c.03-.02.08-.02.11.02Z"/><path class="cls-12" d="M31.87,8.33s.02.08-.02.1-.08.02-.11-.02-.02-.08.02-.1.08-.02.11.02Z"/><path class="cls-12" d="M31.97,8.23s.02.08-.02.1c-.03.02-.08.02-.11-.02-.03-.03-.02-.08.02-.1.03-.02.08-.02.11.02Z"/><path class="cls-12" d="M31.36,7.7s-.08.03-.11,0-.03-.08,0-.11.08-.03.11,0,.03.08,0,.11Z"/><path class="cls-12" d="M31.22,7.76s-.08.03-.11,0c-.03-.03-.03-.08,0-.11.03-.03.08-.03.11,0s.03.08,0,.11Z"/><path class="cls-12" d="M31.34,7.84s-.08.03-.11,0c-.03-.03-.03-.08,0-.11.03-.03.08-.03.11,0,.03.03.03.08,0,.11Z"/><path class="cls-12" d="M31.74,7.36s-.08.03-.11,0c-.03-.03-.03-.08,0-.11s.08-.03.11,0,.03.08,0,.11Z"/><path class="cls-12" d="M31.6,7.42s-.08.03-.11,0c-.03-.03-.03-.08,0-.11.03-.03.08-.03.11,0,.03.03.03.08,0,.11Z"/><path class="cls-12" d="M31.71,7.5s-.08.03-.11,0c-.03-.03-.03-.08,0-.11.03-.03.08-.03.11,0s.03.08,0,.11Z"/></g></svg>