<?xml version="1.0" encoding="UTF-8"?><svg id="Livello_1" xmlns="http://www.w3.org/2000/svg" viewBox="0 0 28.37 24.06"><defs><style>.cls-1{fill:#85a5c3;}.cls-1,.cls-2,.cls-3,.cls-4,.cls-5,.cls-6,.cls-7{stroke-width:0px;}.cls-2{fill:#bed7ee;}.cls-3{fill:#6e88a0;}.cls-4{fill:#91b5d6;}.cls-5{fill:#8eb0d1;}.cls-6{fill:#657889;}.cls-7{fill:#7a97b1;}</style></defs><path class="cls-4" d="M17.49,5.34c-1.52,0-2.35-1.47-1.35-2.8.85-1.14,1.35-2.54,1.35-2.54,0,0,.5,1.4,1.35,2.54,1,1.33.17,2.8-1.35,2.8Z"/><path class="cls-4" d="M21.72,8.36c-1.22,0-1.89-1.18-1.09-2.25.68-.91,1.09-2.04,1.09-2.04,0,0,.4,1.12,1.09,2.04.8,1.06.14,2.25-1.09,2.25Z"/><path id="Tracciato_217" class="cls-3" d="M6.29,6.77s-.5-.86,1.58-.89c2.07-.03,2.5-.15,3.27-.77s4.38-.83,3.38.82-1.42,3.78-1.42,3.78l-6.87-2.15.06-.79Z"/><path id="Tracciato_216" class="cls-7" d="M1.68,10.2s-1.12-2.09,2.05-2.73c3.17-.63,3.66-.25,3.66-.25l1.6.53-3.09,3-1.68,2.29-2.53-2.84Z"/><path id="Tracciato_215" class="cls-1" d="M3.73,11.19s-.94-1.96,1.92-2.28,4.43-2.09,4.43-2.09c0,0,2.04-2.06,2.84,1.48s-3.95,6.84-3.95,6.84l-5.24-3.94Z"/><path id="Tracciato_214" class="cls-5" d="M10.08,21.58s-1.77,1.07-4.94-1.09c-3.18-2.16-3.81-5.03-3.93-6.94s-.85-2.29-.85-2.29c0,0-.99-.95.32-1.22,1.3-.27,2.68,1.04,2.68,1.04.49.21,1.03.28,1.56.22.82-.12,3.4,1.95,4.01,3.5.62,1.55.29,3.21,3.26,5.18,0,0-1.57.58-2.11,1.6Z"/><path id="Tracciato_219" class="cls-2" d="M11.12,21.54c-.65-.04-3.23-.03-4.28-.89-1.05-.86-.14-.47-.14-.47,0,0,1.88.98,3.29.6,1.41-.38-3.47.1-5.78-2.87-2.3-2.97-.86-1.79-.86-1.79,0,0,2.9,3.63,5.31,3.32,0,0-4.15-2.29-5.57-4.85-.22-.41-.41-.75-.57-1.08-.78-1.57-.56-1.76-.19-1.64.44.15,1.13,1.72,2.51,3.3.92,1.03,1.92,1.97,3.01,2.83-1.02-1.87-1.7-5.51-.85-4.83.35.27,1.73,5.67,2.68,6.12,2.13.49,2.09,2.3,1.43,2.26Z"/><path id="Tracciato_213" class="cls-4" d="M13.25,23.05s-1,.34-1.26.4-.71.04-.91-.45-.41-.98-.87-1.12-.32-1.04,1.86-1.95c0,0-2.14-.88-2.97-3.81s.25-3.31.25-3.31c0,0,.55-.2.76-1.35.21-1.15,1.01-1.87,1.87-2.26.6-.26,1.01-.83,1.08-1.48.02-.28-.56-1.39.29-1.7s1.55.2,2.12.22.28-.67,1.25-.25.39.75.97,1.31,5.51,7.97-1.86,12.8c-.68.47-1.06.7-1.08,1.58-.02.89-1.51,1.36-1.51,1.36Z"/><path id="Tracciato_218" class="cls-2" d="M10.76,21.63s.65.54.85,1.11,1.85-.29,1.85-.29c0,0,.6-.27.74-.53s-.29-1.02.34-1.55,3.21-2.5,3.57-3.9c.36-1.4-.25-.43-.25-.43,0,0-1.08,2.12-2.81,2.94-1.73.82,3.57-2.6,3.46-6.42-.1-3.82-.6-1.89-.6-1.89,0,0,.04,4.73-2.63,6.37,0,0,2.3-4.77,1.64-7.63-.1-.45-.2-.83-.31-1.18-.5-1.68-.87-1.65-1.14-1.28-.32.44.26,2.06.16,4.21-.1,2.15-.72,4.26-.72,4.26-.5-2.08-2.78-5.11-3.08-3.98-.14.46,2.88,5.24,2.29,6.28-.47.82-1.22.85-2.42-1.64-1.89-4.08-1.85-2.52-1.87-2.35-.11,3.66,2.13,5.13,3.1,5.85-.18.36-.16.42-.29.53-.37.39-1.26.66-1.71.92-.22.13-.19.61-.19.61Z"/><path class="cls-4" d="M24.68,13.2c1.57-.01,4.52.25,3.48,5.13-1.47,4.97-2.66,5.3-2.86,5.5s-.68.36-1.85.13-2.36.05-2.36.05c0,0-3.1.41-4.18-3.64-1.08-4.05-.51-6.29,1.7-6.74,1.04-.18,1.69.22,2.47.25s2.04-.65,3.61-.67Z"/><path class="cls-1" d="M20.11,15.23s.27-.81,2.46-.47c.72.12,1.66.04,2.04.24s.27.39.12.5c-.23.16-1.06.18-1.64.02-.29-.08-1.35-.47-1.75-.52-.91-.11-1.12.16-1.22.24Z"/><path class="cls-6" d="M20.06,15.21s.79-.61,2.03-.06,2.41.44,2.41.44c0,0-1.2.41-2.25-.11-1.05-.52-2.19-.27-2.19-.27Z"/><path class="cls-6" d="M21.88,15.07s.06-3.06.61-3.89c0,0,.63.24.95.2,0,0-1.16,1.24-1.43,3.73l-.14-.05Z"/><path class="cls-1" d="M21.94,23.49c.57-.08,1.31-.14,2.02.08s1.13-.03,1.34-.21,2.11-2.17,2.69-6.44c.07-.36-1.33-.13-1.68,1.86s-.93,2.45-1.54,3.17-1.76.85-2.26.89-1.14.74-.57.66Z"/><path class="cls-1" d="M21.8,14.94s.24-2.68-1.67-2.98c-1.91-.3-2.65-1.29-2.65-1.29,0,0,.24,2.8,1.65,3.24s1.87.36,2.66,1.03Z"/><path class="cls-6" d="M19.74,13.12c1.41.42,1.77.56,2.06,1.83,0,0-.19-.56-2.06-.97-1.77-.39-2-2.56-2-2.56,0,0,.58,1.3,2,1.71Z"/></svg>