<?xml version="1.0" encoding="UTF-8"?><svg id="Livello_1" xmlns="http://www.w3.org/2000/svg" viewBox="0 0 29.64 26.83"><defs><style>.cls-1{fill:#4c6476;}.cls-1,.cls-2,.cls-3,.cls-4,.cls-5,.cls-6{stroke-width:0px;}.cls-2{fill:#000;opacity:.2;}.cls-3{fill:#6d8aa2;}.cls-4{fill:#b9d7eb;}.cls-5{fill:#83a6c5;}.cls-6{fill:#91b7cb;}</style></defs><path class="cls-4" d="M3.88,26.83c-1.4,0-2.65-.72-3.35-1.94-.7-1.21-.7-2.66,0-3.87L11.43,2.14c.7-1.21,1.95-1.93,3.35-1.93s2.65.72,3.35,1.93l10.9,18.88c.7,1.21.7,2.66,0,3.87-.7,1.21-1.95,1.94-3.35,1.94H3.88Z"/><path class="cls-1" d="M28.28,21.45L17.38,2.57c-.54-.94-1.52-1.51-2.6-1.51s-2.07.56-2.61,1.51L1.27,21.45c-.54.94-.54,2.07,0,3.01.54.94,1.52,1.5,2.61,1.5h21.8c1.09,0,2.06-.56,2.6-1.5.55-.94.55-2.07,0-3.01ZM23.99,24.25H5.56c-1.74,0-2.83-1.88-1.96-3.4L12.82,4.89c.87-1.51,3.05-1.51,3.92,0l9.21,15.96c.87,1.51-.22,3.4-1.96,3.4Z"/><g id="Virus"><path class="cls-5" d="M25.86,8.9c0-.07.09-.12.2-.12.11,0,.2.05.2.12s-.09.12-.2.12c-.11,0-.2-.05-.2-.12Z"/><path class="cls-5" d="M25.99,8.67c0-.07.09-.12.2-.12.11,0,.2.05.2.12,0,.07-.09.12-.2.12s-.2-.05-.2-.12Z"/><path class="cls-5" d="M25.62,8.71c0-.07.09-.12.2-.12s.2.05.2.12-.09.12-.2.12c-.11,0-.2-.05-.2-.12Z"/><path class="cls-5" d="M24.83,8.72c.02-.06-.04-.15-.14-.19-.1-.04-.21-.02-.23.04-.02.06.04.15.14.19.1.04.21.02.23-.04Z"/><path class="cls-5" d="M24.8,8.46c.02-.06-.04-.15-.14-.19-.1-.04-.21-.02-.23.04-.02.06.04.15.14.19.1.04.21.02.23-.04Z"/><path class="cls-5" d="M25.13,8.63c.02-.06-.04-.15-.14-.19s-.21-.02-.23.04c-.02.06.04.15.14.19.1.04.21.02.23-.04Z"/><path class="cls-5" d="M22.88,6.85c.06-.03.15.03.2.13s.04.2-.02.23c-.06.03-.15-.03-.2-.13s-.04-.2.02-.23Z"/><path class="cls-5" d="M23.14,6.86c.06-.03.15.03.2.13.05.1.04.2-.02.23-.06.03-.15-.03-.2-.13s-.04-.2.02-.23Z"/><path class="cls-5" d="M22.94,6.55c.06-.03.15.03.2.13s.04.2-.02.23c-.06.03-.15-.03-.2-.13s-.04-.2.02-.23Z"/><path class="cls-5" d="M22.59,5.84c.07,0,.11-.1.1-.21,0-.11-.07-.2-.14-.19s-.11.1-.1.21c0,.11.07.2.14.19Z"/><path class="cls-5" d="M22.8,5.7c.07,0,.11-.1.1-.21,0-.11-.07-.2-.14-.19s-.11.1-.1.21c0,.11.07.2.14.19Z"/><path class="cls-5" d="M22.8,6.07c.07,0,.11-.1.1-.21,0-.11-.07-.2-.14-.19-.07,0-.11.1-.1.21,0,.11.07.2.14.19Z"/><path class="cls-5" d="M22.88,4.03c.06.02.08.13.04.23s-.13.17-.19.14c-.06-.02-.08-.13-.04-.23.04-.1.13-.17.19-.14Z"/><path class="cls-5" d="M23.04,4.23c.06.02.08.13.04.23s-.13.17-.19.14c-.06-.02-.08-.13-.04-.23.04-.1.13-.17.19-.14Z"/><path class="cls-5" d="M23.14,3.88c.06.02.08.13.04.23-.04.1-.13.17-.19.14-.06-.02-.08-.13-.04-.23.04-.1.13-.17.19-.14Z"/><path class="cls-5" d="M23.43,3.14s.15.02.23-.06.1-.18.05-.23c-.05-.05-.15-.02-.23.06-.08.08-.1.18-.05.23Z"/><path class="cls-5" d="M23.68,3.2s.15.02.23-.06c.08-.08.1-.18.05-.23-.05-.05-.15-.02-.23.06-.08.08-.1.18-.05.23Z"/><path class="cls-5" d="M23.4,3.44s.15.02.23-.06c.08-.08.1-.18.05-.23-.05-.05-.15-.02-.23.06-.08.08-.1.18-.05.23Z"/><path class="cls-6" d="M27.16,2.38c1.7.59,2.6,2.44,2.01,4.14-.59,1.7-2.44,2.6-4.14,2.01-1.7-.59-2.6-2.44-2.01-4.14.59-1.7,2.44-2.6,4.14-2.01Z"/><path class="cls-3" d="M28.13,2.91c.73.63,1.57,2.94-.09,4.63-1.65,1.69-3.94.53-4.51-.07.37.47.88.84,1.49,1.06,1.7.59,3.55-.31,4.14-2.01.46-1.33,0-2.77-1.03-3.6Z"/><path class="cls-5" d="M25.92,5.14c0,.14-.12.26-.26.26s-.26-.12-.26-.26.12-.26.26-.26.26.12.26.26Z"/><path class="cls-5" d="M26.44,5.24c0,.14-.12.26-.26.26s-.26-.12-.26-.26.12-.26.26-.26.26.12.26.26Z"/><path class="cls-5" d="M25.82,5.64c0,.14-.12.26-.26.26s-.26-.12-.26-.26.12-.26.26-.26.26.12.26.26Z"/><path class="cls-5" d="M26.34,5.74c0,.14-.12.26-.26.26s-.26-.12-.26-.26.12-.26.26-.26.26.12.26.26Z"/><path class="cls-5" d="M23.82,3.72c-.08.12-.21.17-.31.12-.09-.06-.11-.2-.03-.33.08-.12.21-.17.31-.12.09.06.11.2.03.33Z"/><path class="cls-5" d="M24.1,4.02c-.08.12-.21.17-.31.12-.09-.06-.11-.2-.03-.33.08-.12.21-.17.31-.12.09.06.11.2.03.33Z"/><path class="cls-5" d="M23.49,4.1c-.08.12-.21.17-.31.12-.09-.06-.11-.2-.03-.33.08-.12.21-.17.31-.12.09.06.11.2.03.33Z"/><path class="cls-5" d="M23.77,4.4c-.08.12-.21.17-.31.12-.09-.06-.11-.2-.03-.33.08-.12.21-.17.31-.12.09.06.11.2.03.33Z"/><path class="cls-5" d="M23.38,5.88c0,.13-.1.24-.21.24s-.21-.11-.21-.24.1-.24.21-.24.21.11.21.24Z"/><path class="cls-5" d="M23.81,5.97c0,.13-.1.24-.21.24s-.21-.11-.21-.24.1-.24.21-.24.21.11.21.24Z"/><path class="cls-5" d="M23.29,6.33c0,.13-.1.24-.21.24s-.21-.11-.21-.24.1-.24.21-.24.21.11.21.24Z"/><path class="cls-5" d="M23.72,6.42c0,.13-.1.24-.21.24s-.21-.11-.21-.24.1-.24.21-.24.21.11.21.24Z"/><path class="cls-3" d="M26.53,3.13c0,.11-.12.2-.26.2s-.26-.09-.26-.2.12-.2.26-.2.26.09.26.2Z"/><ellipse class="cls-3" cx="26.79" cy="3.21" rx=".26" ry=".2"/><path class="cls-3" d="M26.43,3.52c0,.11-.12.2-.26.2s-.26-.09-.26-.2.12-.2.26-.2.26.09.26.2Z"/><path class="cls-3" d="M26.95,3.6c0,.11-.12.2-.26.2s-.26-.09-.26-.2.12-.2.26-.2.26.09.26.2Z"/><path class="cls-5" d="M28.39,4.97c-.11.03-.22-.05-.27-.19s.01-.27.12-.31c.11-.03.22.05.27.19.04.14-.01.27-.12.31Z"/><path class="cls-5" d="M28.47,5.49c-.11.03-.22-.05-.27-.19-.04-.14.01-.27.12-.31.11-.03.22.05.27.19.04.14-.01.27-.12.31Z"/><path class="cls-5" d="M28,4.98c-.11.03-.22-.05-.27-.19-.04-.14.01-.27.12-.31.11-.03.22.05.27.19.04.14-.01.27-.12.31Z"/><path class="cls-5" d="M28.07,5.5c-.11.03-.22-.05-.27-.19-.04-.14.01-.27.12-.31.11-.03.22.05.27.19.04.14-.01.27-.12.31Z"/><path class="cls-5" d="M27.74,7.28c-.09-.07-.09-.21,0-.33s.23-.15.32-.08c.09.07.09.21,0,.33-.09.11-.23.15-.32.08Z"/><path class="cls-5" d="M27.36,7.64c-.09-.07-.09-.21,0-.33.09-.11.23-.15.32-.08.09.07.09.21,0,.33s-.23.15-.32.08Z"/><path class="cls-5" d="M27.5,6.97c-.09-.07-.09-.21,0-.33.09-.11.23-.15.32-.08s.09.21,0,.33c-.09.11-.23.15-.32.08Z"/><path class="cls-5" d="M27.12,7.33c-.09-.07-.09-.21,0-.33.09-.11.23-.15.32-.08s.09.21,0,.33c-.09.11-.23.15-.32.08Z"/><path class="cls-5" d="M25.32,7.97c.01-.11.14-.18.28-.16.14.02.25.12.23.23s-.14.18-.28.16-.25-.12-.23-.23Z"/><path class="cls-5" d="M24.82,7.82c.01-.11.14-.18.28-.16.14.02.25.12.23.23-.01.11-.14.18-.28.16s-.25-.12-.23-.23Z"/><path class="cls-5" d="M25.48,7.6c.01-.11.14-.18.28-.16.14.02.25.12.23.23-.01.11-.14.18-.28.16s-.25-.12-.23-.23Z"/><path class="cls-5" d="M24.97,7.46c.01-.11.14-.18.28-.16.14.02.25.12.23.23-.01.11-.14.18-.28.16-.14-.02-.25-.12-.23-.23Z"/><path class="cls-5" d="M25.71,3.98c0,.12-.1.22-.22.22s-.22-.1-.22-.22.1-.22.22-.22.22.1.22.22Z"/><circle class="cls-5" cx="25.35" cy="4.39" r=".22"/><circle class="cls-5" cx="25.76" cy="4.32" r=".22"/><path class="cls-5" d="M25.19,2.86c0,.12-.1.22-.22.22s-.22-.1-.22-.22.1-.22.22-.22.22.1.22.22Z"/><circle class="cls-5" cx="24.83" cy="3.27" r=".22"/><circle class="cls-5" cx="25.24" cy="3.2" r=".22"/><path class="cls-3" d="M26.14,2.07c0,.07-.1.13-.22.13s-.22-.06-.22-.13.1-.13.22-.13.22.06.22.13Z"/><ellipse class="cls-3" cx="25.78" cy="2.32" rx=".22" ry=".13"/><ellipse class="cls-3" cx="26.18" cy="2.27" rx=".22" ry=".13"/><path class="cls-3" d="M27.28,2.27c-.03.07.04.16.16.21s.23.03.26-.04c.03-.07-.04-.16-.16-.21s-.23-.03-.26.04Z"/><path class="cls-3" d="M27.32,2.56c-.03.07.04.16.16.21s.23.03.26-.04c.03-.07-.04-.16-.16-.21s-.23-.03-.26.04Z"/><path class="cls-3" d="M26.96,2.37c-.03.07.04.16.16.21s.23.03.26-.04c.03-.07-.04-.16-.16-.21s-.23-.03-.26.04Z"/><path class="cls-5" d="M29.29,4.16c-.07.03-.16-.04-.2-.16-.04-.11-.02-.23.05-.26.07-.03.16.04.2.16.04.11.02.23-.05.26Z"/><path class="cls-5" d="M29.01,4.12c-.07.03-.16-.04-.2-.16-.04-.11-.02-.23.05-.26.07-.03.16.04.2.16.04.11.02.23-.05.26Z"/><path class="cls-5" d="M29.2,4.48c-.07.03-.16-.04-.2-.16-.04-.11-.02-.23.05-.26.07-.03.16.04.2.16.04.11.02.23-.05.26Z"/><path class="cls-5" d="M29.51,5.3c-.07,0-.14.1-.14.22,0,.12.06.22.13.22.07,0,.14-.1.14-.22,0-.12-.06-.22-.13-.22Z"/><path class="cls-5" d="M29.26,5.44c-.07,0-.14.1-.14.22,0,.12.06.22.13.22s.14-.1.14-.22c0-.12-.06-.22-.13-.22Z"/><path class="cls-5" d="M29.31,5.03c-.07,0-.14.1-.14.22,0,.12.06.22.13.22.07,0,.14-.1.14-.22,0-.12-.06-.22-.13-.22Z"/><path class="cls-5" d="M28.83,7.41c-.06-.04-.06-.14,0-.23.06-.09.15-.14.21-.11s.06.14,0,.23c-.06.09-.15.14-.21.11Z"/><path class="cls-5" d="M28.71,7.18c-.06-.04-.06-.14,0-.23.06-.09.15-.14.21-.11.06.04.06.14,0,.23s-.15.14-.21.11Z"/><path class="cls-5" d="M28.55,7.51c-.06-.04-.06-.14,0-.23s.15-.14.21-.11c.06.04.06.14,0,.23s-.15.14-.21.11Z"/><path class="cls-5" d="M28.14,8.19c-.04-.05-.14-.04-.23.02-.09.07-.13.16-.09.22.04.05.14.04.23-.02.09-.07.13-.16.09-.22Z"/><path class="cls-5" d="M27.9,8.08c-.04-.05-.14-.04-.23.02s-.13.16-.09.22c.04.05.14.04.23-.02s.13-.16.09-.22Z"/><path class="cls-5" d="M28.22,7.89c-.04-.05-.14-.04-.23.02-.09.07-.13.16-.09.22.04.05.14.04.23-.02.09-.07.13-.16.09-.22Z"/><circle class="cls-5" cx="24.56" cy="5.02" r=".22"/><circle class="cls-5" cx="24.42" cy="5.43" r=".22"/><circle class="cls-5" cx="24.83" cy="5.36" r=".22"/><path class="cls-5" d="M25.08,6.24c0,.12-.1.22-.22.22s-.22-.1-.22-.22.1-.22.22-.22.22.1.22.22Z"/><circle class="cls-5" cx="24.72" cy="6.65" r=".22"/><circle class="cls-5" cx="25.13" cy="6.58" r=".22"/><path class="cls-5" d="M26.64,6.79c-.09.09-.23.09-.31,0-.09-.09-.09-.23,0-.31.09-.09.23-.09.31,0s.09.23,0,.31Z"/><path class="cls-5" d="M26.25,6.99c-.09.09-.23.09-.31,0s-.09-.23,0-.31c.09-.09.23-.09.31,0,.09.09.09.23,0,.31Z"/><path class="cls-5" d="M26.6,7.22c-.09.09-.23.09-.31,0-.09-.09-.09-.23,0-.31.09-.09.23-.09.31,0,.09.09.09.23,0,.31Z"/><path class="cls-5" d="M27.16,8.03c-.09.09-.23.09-.31,0-.09-.09-.09-.23,0-.31.09-.09.23-.09.31,0,.09.09.09.23,0,.31Z"/><path class="cls-5" d="M26.77,8.22c-.09.09-.23.09-.31,0s-.09-.23,0-.31c.09-.09.23-.09.31,0,.09.09.09.23,0,.31Z"/><path class="cls-5" d="M27.11,8.45c-.09.09-.23.09-.31,0-.09-.09-.09-.23,0-.31.09-.09.23-.09.31,0,.09.09.09.23,0,.31Z"/><path class="cls-5" d="M24.13,7.52c-.09.09-.23.09-.31,0-.09-.09-.09-.23,0-.31.09-.09.23-.09.31,0s.09.23,0,.31Z"/><path class="cls-5" d="M23.74,7.71c-.09.09-.23.09-.31,0s-.09-.23,0-.31.23-.09.31,0c.09.09.09.23,0,.31Z"/><path class="cls-5" d="M24.09,7.95c-.09.09-.23.09-.31,0-.09-.09-.09-.23,0-.31.09-.09.23-.09.31,0,.09.09.09.23,0,.31Z"/><path class="cls-5" d="M27.21,5.54c.07.1.05.24-.05.31-.1.07-.24.05-.31-.05s-.05-.24.05-.31.24-.05.31.05Z"/><path class="cls-5" d="M27.33,5.95c.07.1.05.24-.05.31-.1.07-.24.05-.31-.05-.07-.1-.05-.24.05-.31s.24-.05.31.05Z"/><path class="cls-5" d="M27.62,5.66c.07.1.05.24-.05.31s-.24.05-.31-.05-.05-.24.05-.31c.1-.07.24-.05.31.05Z"/><path class="cls-5" d="M28.47,6.01c.07.1.05.24-.05.31s-.24.05-.31-.05-.05-.24.05-.31c.1-.07.24-.05.31.05Z"/><path class="cls-5" d="M28.6,6.43c.07.1.05.24-.05.31s-.24.05-.31-.05-.05-.24.05-.31.24-.05.31.05Z"/><path class="cls-5" d="M28.89,6.13c.07.1.05.24-.05.31-.1.07-.24.05-.31-.05-.07-.1-.05-.24.05-.31.1-.07.24-.05.31.05Z"/><path class="cls-5" d="M27.16,4.57c-.09.08-.23.07-.31-.02s-.07-.23.02-.31.23-.07.31.02.07.23-.02.31Z"/><path class="cls-5" d="M26.76,4.73c-.09.08-.23.07-.31-.02-.08-.09-.07-.23.02-.31.09-.08.23-.07.31.02s.07.23-.02.31Z"/><path class="cls-5" d="M27.09,4.99c-.09.08-.23.07-.31-.02-.08-.09-.07-.23.02-.31.09-.08.23-.07.31.02.08.09.07.23-.02.31Z"/><path class="cls-3" d="M28.24,3.55c-.09.08-.23.07-.31-.02-.08-.09-.07-.23.02-.31s.23-.07.31.02.07.23-.02.31Z"/><path class="cls-3" d="M27.84,3.72c-.09.08-.23.07-.31-.02-.08-.09-.07-.23.02-.31.09-.08.23-.07.31.02.08.09.07.23-.02.31Z"/><path class="cls-3" d="M28.16,3.97c-.09.08-.23.07-.31-.02-.08-.09-.07-.23.02-.31.09-.08.23-.07.31.02s.07.23-.02.31Z"/></g><g id="Virus-2"><path class="cls-5" d="M6.1,2.97s.04-.05.09-.05c.05,0,.09.02.09.05s-.04.05-.09.05c-.05,0-.09-.02-.09-.05Z"/><path class="cls-5" d="M6.15,2.87s.04-.05.09-.05c.05,0,.09.02.09.05,0,.03-.04.05-.09.05s-.09-.02-.09-.05Z"/><path class="cls-5" d="M5.99,2.89s.04-.05.09-.05.09.02.09.05-.04.05-.09.05c-.05,0-.09-.02-.09-.05Z"/><path class="cls-5" d="M5.66,2.89s-.02-.06-.06-.08c-.04-.02-.09,0-.1.02-.01.03.02.06.06.08.04.02.09,0,.1-.02Z"/><path class="cls-5" d="M5.64,2.78s-.02-.06-.06-.08c-.04-.02-.09,0-.1.02-.01.03.02.06.06.08.04.02.09,0,.1-.02Z"/><path class="cls-5" d="M5.78,2.85s-.02-.06-.06-.08-.09,0-.1.02c-.01.03.02.06.06.08.04.02.09,0,.1-.02Z"/><path class="cls-5" d="M4.83,2.09s.06.01.08.05.02.09,0,.1c-.03.01-.06-.01-.08-.05s-.02-.09,0-.1Z"/><path class="cls-5" d="M4.94,2.1s.06.01.08.05c.02.04.02.09,0,.1-.03.01-.06-.01-.08-.05s-.02-.09,0-.1Z"/><path class="cls-5" d="M4.85,1.97s.06.01.08.05.02.09,0,.1c-.03.01-.06-.01-.08-.05s-.02-.09,0-.1Z"/><path class="cls-5" d="M4.7,1.67s.05-.04.04-.09c0-.05-.03-.08-.06-.08s-.05.04-.04.09c0,.05.03.08.06.08Z"/><path class="cls-5" d="M4.79,1.6s.05-.04.04-.09c0-.05-.03-.08-.06-.08s-.05.04-.04.09c0,.05.03.08.06.08Z"/><path class="cls-5" d="M4.79,1.76s.05-.04.04-.09c0-.05-.03-.08-.06-.08-.03,0-.05.04-.04.09,0,.05.03.08.06.08Z"/><path class="cls-5" d="M4.83.89s.03.05.02.1-.05.07-.08.06c-.03-.01-.03-.05-.02-.1.02-.04.05-.07.08-.06Z"/><path class="cls-5" d="M4.89.98s.03.05.02.1-.05.07-.08.06c-.03-.01-.03-.05-.02-.1.02-.04.05-.07.08-.06Z"/><path class="cls-5" d="M4.94.83s.03.05.02.1c-.02.04-.05.07-.08.06-.03-.01-.03-.05-.02-.1.02-.04.05-.07.08-.06Z"/><path class="cls-5" d="M5.06.51s.06,0,.1-.03.04-.08.02-.1c-.02-.02-.06,0-.1.03-.03.03-.04.08-.02.1Z"/><path class="cls-5" d="M5.17.54s.06,0,.1-.03c.03-.03.04-.08.02-.1-.02-.02-.06,0-.1.03-.03.03-.04.08-.02.1Z"/><path class="cls-5" d="M5.05.64s.06,0,.1-.03c.03-.03.04-.08.02-.1-.02-.02-.06,0-.1.03-.03.03-.04.08-.02.1Z"/><path class="cls-6" d="M6.65.19c.72.25,1.11,1.04.86,1.77-.25.72-1.04,1.11-1.77.86-.72-.25-1.11-1.04-.86-1.77S5.92-.06,6.65.19Z"/><path class="cls-2" d="M7.06.42c.31.27.67,1.25-.04,1.97-.7.72-1.68.22-1.92-.03.16.2.37.36.63.45.72.25,1.51-.13,1.77-.86.2-.57,0-1.18-.44-1.54Z"/><path class="cls-5" d="M6.12,1.36c0,.06-.05.11-.11.11s-.11-.05-.11-.11.05-.11.11-.11.11.05.11.11Z"/><path class="cls-5" d="M6.34,1.41c0,.06-.05.11-.11.11s-.11-.05-.11-.11.05-.11.11-.11.11.05.11.11Z"/><path class="cls-5" d="M6.08,1.58c0,.06-.05.11-.11.11s-.11-.05-.11-.11.05-.11.11-.11.11.05.11.11Z"/><path class="cls-5" d="M6.3,1.62c0,.06-.05.11-.11.11s-.11-.05-.11-.11.05-.11.11-.11.11.05.11.11Z"/><path class="cls-5" d="M5.22.76c-.03.05-.09.07-.13.05-.04-.02-.05-.09-.01-.14.03-.05.09-.07.13-.05.04.02.05.09.01.14Z"/><path class="cls-5" d="M5.35.89c-.03.05-.09.07-.13.05-.04-.02-.05-.09-.01-.14.03-.05.09-.07.13-.05.04.02.05.09.01.14Z"/><path class="cls-5" d="M5.08.92c-.03.05-.09.07-.13.05-.04-.02-.05-.09-.01-.14.03-.05.09-.07.13-.05.04.02.05.09.01.14Z"/><path class="cls-5" d="M5.21,1.05c-.03.05-.09.07-.13.05-.04-.02-.05-.09-.01-.14.03-.05.09-.07.13-.05.04.02.05.09.01.14Z"/><path class="cls-5" d="M5.04,1.68c0,.06-.04.1-.09.1s-.09-.04-.09-.1.04-.1.09-.1.09.04.09.1Z"/><path class="cls-5" d="M5.22,1.72c0,.06-.04.1-.09.1s-.09-.04-.09-.1.04-.1.09-.1.09.04.09.1Z"/><path class="cls-5" d="M5,1.87c0,.06-.04.1-.09.1s-.09-.04-.09-.1.04-.1.09-.1.09.04.09.1Z"/><path class="cls-5" d="M5.18,1.91c0,.06-.04.1-.09.1s-.09-.04-.09-.1.04-.1.09-.1.09.04.09.1Z"/><path class="cls-5" d="M6.38.51s-.05.08-.11.08-.11-.04-.11-.08.05-.08.11-.08.11.04.11.08Z"/><ellipse class="cls-5" cx="6.49" cy=".54" rx=".11" ry=".08"/><path class="cls-5" d="M6.34.67s-.05.08-.11.08-.11-.04-.11-.08.05-.08.11-.08.11.04.11.08Z"/><path class="cls-5" d="M6.56.71s-.05.08-.11.08-.11-.04-.11-.08.05-.08.11-.08.11.04.11.08Z"/><path class="cls-5" d="M7.17,1.29s-.1-.02-.11-.08,0-.12.05-.13c.04-.01.1.02.11.08.02.06,0,.12-.05.13Z"/><path class="cls-5" d="M7.21,1.51s-.1-.02-.11-.08c-.02-.06,0-.12.05-.13.04-.01.1.02.11.08.02.06,0,.12-.05.13Z"/><path class="cls-5" d="M7.01,1.3s-.1-.02-.11-.08c-.02-.06,0-.12.05-.13.04-.01.1.02.11.08.02.06,0,.12-.05.13Z"/><path class="cls-5" d="M7.04,1.52s-.1-.02-.11-.08c-.02-.06,0-.12.05-.13.04-.01.1.02.11.08.02.06,0,.12-.05.13Z"/><path class="cls-5" d="M6.89,2.28s-.04-.09,0-.14.1-.06.13-.04c.04.03.04.09,0,.14-.04.05-.1.06-.13.04Z"/><path class="cls-5" d="M6.73,2.43s-.04-.09,0-.14c.04-.05.1-.06.13-.04.04.03.04.09,0,.14s-.1.06-.13.04Z"/><path class="cls-5" d="M6.79,2.14s-.04-.09,0-.14c.04-.05.1-.06.13-.04s.04.09,0,.14c-.04.05-.1.06-.13.04Z"/><path class="cls-5" d="M6.63,2.3s-.04-.09,0-.14c.04-.05.1-.06.13-.04s.04.09,0,.14c-.04.05-.1.06-.13.04Z"/><path class="cls-5" d="M5.87,2.57s.06-.08.12-.07c.06,0,.1.05.1.1s-.06.08-.12.07-.1-.05-.1-.1Z"/><path class="cls-5" d="M5.65,2.51s.06-.08.12-.07c.06,0,.1.05.1.1,0,.05-.06.08-.12.07s-.1-.05-.1-.1Z"/><path class="cls-5" d="M5.93,2.41s.06-.08.12-.07c.06,0,.1.05.1.1,0,.05-.06.08-.12.07s-.1-.05-.1-.1Z"/><path class="cls-5" d="M5.72,2.35s.06-.08.12-.07c.06,0,.1.05.1.1,0,.05-.06.08-.12.07-.06,0-.1-.05-.1-.1Z"/><path class="cls-5" d="M6.03.87c0,.05-.04.09-.09.09s-.09-.04-.09-.09.04-.09.09-.09.09.04.09.09Z"/><circle class="cls-5" cx="5.88" cy="1.05" r=".09"/><circle class="cls-5" cx="6.05" cy="1.02" r=".09"/><path class="cls-5" d="M5.81.4c0,.05-.04.09-.09.09s-.09-.04-.09-.09.04-.09.09-.09.09.04.09.09Z"/><circle class="cls-5" cx="5.66" cy=".57" r=".09"/><circle class="cls-5" cx="5.83" cy=".54" r=".09"/><path class="cls-5" d="M6.22.06s-.04.06-.09.06-.09-.03-.09-.06.04-.06.09-.06.09.03.09.06Z"/><ellipse class="cls-5" cx="6.06" cy=".16" rx=".09" ry=".06"/><ellipse class="cls-5" cx="6.23" cy=".14" rx=".09" ry=".06"/><path class="cls-5" d="M6.7.14s.02.07.07.09.1.01.11-.02c.01-.03-.02-.07-.07-.09s-.1-.01-.11.02Z"/><path class="cls-5" d="M6.72.26s.02.07.07.09.1.01.11-.02c.01-.03-.02-.07-.07-.09s-.1-.01-.11.02Z"/><path class="cls-5" d="M6.56.18s.02.07.07.09.1.01.11-.02c.01-.03-.02-.07-.07-.09s-.1-.01-.11.02Z"/><path class="cls-5" d="M7.56.95s-.07-.02-.09-.07c-.02-.05,0-.1.02-.11.03-.01.07.02.09.07.02.05,0,.1-.02.11Z"/><path class="cls-5" d="M7.44.93s-.07-.02-.09-.07c-.02-.05,0-.1.02-.11.03-.01.07.02.09.07.02.05,0,.1-.02.11Z"/><path class="cls-5" d="M7.52,1.09s-.07-.02-.09-.07c-.02-.05,0-.1.02-.11.03-.01.07.02.09.07.02.05,0,.1-.02.11Z"/><path class="cls-5" d="M7.65,1.43s-.06.04-.06.09c0,.05.02.09.06.1.03,0,.06-.04.06-.09,0-.05-.02-.09-.06-.1Z"/><path class="cls-5" d="M7.54,1.49s-.06.04-.06.09c0,.05.02.09.06.1s.06-.04.06-.09c0-.05-.02-.09-.06-.1Z"/><path class="cls-5" d="M7.56,1.32s-.06.04-.06.09c0,.05.02.09.06.1.03,0,.06-.04.06-.09,0-.05-.02-.09-.06-.1Z"/><path class="cls-5" d="M7.36,2.33s-.02-.06,0-.1c.02-.04.06-.06.09-.05s.02.06,0,.1c-.02.04-.06.06-.09.05Z"/><path class="cls-5" d="M7.31,2.23s-.02-.06,0-.1c.02-.04.06-.06.09-.05.02.02.02.06,0,.1s-.06.06-.09.05Z"/><path class="cls-5" d="M7.24,2.38s-.02-.06,0-.1.06-.06.09-.05c.02.02.02.06,0,.1s-.06.06-.09.05Z"/><path class="cls-5" d="M7.07,2.66s-.06-.02-.1,0c-.04.03-.05.07-.04.09.02.02.06.02.1,0,.04-.03.05-.07.04-.09Z"/><path class="cls-5" d="M6.96,2.62s-.06-.02-.1,0-.05.07-.04.09c.02.02.06.02.1,0s.05-.07.04-.09Z"/><path class="cls-5" d="M7.1,2.54s-.06-.02-.1,0c-.04.03-.05.07-.04.09.02.02.06.02.1,0,.04-.03.05-.07.04-.09Z"/><circle class="cls-5" cx="5.54" cy="1.31" r=".09"/><circle class="cls-5" cx="5.48" cy="1.49" r=".09"/><circle class="cls-5" cx="5.66" cy="1.46" r=".09"/><path class="cls-5" d="M5.76,1.83c0,.05-.04.09-.09.09s-.09-.04-.09-.09.04-.09.09-.09.09.04.09.09Z"/><circle class="cls-5" cx="5.61" cy="2.01" r=".09"/><circle class="cls-5" cx="5.78" cy="1.98" r=".09"/><path class="cls-5" d="M6.43,2.07s-.1.04-.13,0c-.04-.04-.04-.1,0-.13.04-.04.1-.04.13,0s.04.1,0,.13Z"/><path class="cls-5" d="M6.26,2.15s-.1.04-.13,0-.04-.1,0-.13c.04-.04.1-.04.13,0,.04.04.04.1,0,.13Z"/><path class="cls-5" d="M6.41,2.25s-.1.04-.13,0c-.04-.04-.04-.1,0-.13.04-.04.1-.04.13,0,.04.04.04.1,0,.13Z"/><path class="cls-5" d="M6.65,2.6s-.1.04-.13,0c-.04-.04-.04-.1,0-.13.04-.04.1-.04.13,0,.04.04.04.1,0,.13Z"/><path class="cls-5" d="M6.48,2.68s-.1.04-.13,0-.04-.1,0-.13c.04-.04.1-.04.13,0,.04.04.04.1,0,.13Z"/><path class="cls-5" d="M6.63,2.78s-.1.04-.13,0c-.04-.04-.04-.1,0-.13.04-.04.1-.04.13,0,.04.04.04.1,0,.13Z"/><path class="cls-5" d="M5.36,2.38s-.1.04-.13,0c-.04-.04-.04-.1,0-.13.04-.04.1-.04.13,0s.04.1,0,.13Z"/><path class="cls-5" d="M5.19,2.46s-.1.04-.13,0-.04-.1,0-.13.1-.04.13,0c.04.04.04.1,0,.13Z"/><path class="cls-5" d="M5.34,2.56s-.1.04-.13,0c-.04-.04-.04-.1,0-.13.04-.04.1-.04.13,0,.04.04.04.1,0,.13Z"/><path class="cls-5" d="M6.67,1.53s.02.1-.02.13c-.04.03-.1.02-.13-.02s-.02-.1.02-.13.1-.02.13.02Z"/><path class="cls-5" d="M6.72,1.71s.02.1-.02.13c-.04.03-.1.02-.13-.02-.03-.04-.02-.1.02-.13s.1-.02.13.02Z"/><path class="cls-5" d="M6.85,1.59s.02.1-.02.13-.1.02-.13-.02-.02-.1.02-.13c.04-.03.1-.02.13.02Z"/><path class="cls-5" d="M7.21,1.74s.02.1-.02.13-.1.02-.13-.02-.02-.1.02-.13c.04-.03.1-.02.13.02Z"/><path class="cls-5" d="M7.26,1.92s.02.1-.02.13-.1.02-.13-.02-.02-.1.02-.13.1-.02.13.02Z"/><path class="cls-5" d="M7.39,1.79s.02.1-.02.13c-.04.03-.1.02-.13-.02-.03-.04-.02-.1.02-.13.04-.03.1-.02.13.02Z"/><path class="cls-5" d="M6.65,1.12s-.1.03-.13,0-.03-.1,0-.13.1-.03.13,0,.03.1,0,.13Z"/><path class="cls-5" d="M6.48,1.19s-.1.03-.13,0c-.03-.04-.03-.1,0-.13.04-.03.1-.03.13,0s.03.1,0,.13Z"/><path class="cls-5" d="M6.62,1.3s-.1.03-.13,0c-.03-.04-.03-.1,0-.13.04-.03.1-.03.13,0,.03.04.03.1,0,.13Z"/><path class="cls-5" d="M7.11.69s-.1.03-.13,0c-.03-.04-.03-.1,0-.13s.1-.03.13,0,.03.1,0,.13Z"/><path class="cls-5" d="M6.94.76s-.1.03-.13,0c-.03-.04-.03-.1,0-.13.04-.03.1-.03.13,0,.03.04.03.1,0,.13Z"/><path class="cls-5" d="M7.08.87s-.1.03-.13,0c-.03-.04-.03-.1,0-.13.04-.03.1-.03.13,0s.03.1,0,.13Z"/></g><g id="Virus-3"><path class="cls-5" d="M3.28,11.6c0-.05.07-.09.15-.09.08,0,.15.04.15.09s-.07.09-.15.09c-.08,0-.15-.04-.15-.09Z"/><path class="cls-5" d="M3.37,11.43c0-.05.07-.09.15-.09.08,0,.15.04.15.09,0,.05-.07.09-.15.09s-.15-.04-.15-.09Z"/><path class="cls-5" d="M3.09,11.46c0-.05.07-.09.15-.09s.15.04.15.09-.07.09-.15.09c-.08,0-.15-.04-.15-.09Z"/><path class="cls-5" d="M2.5,11.46s-.03-.11-.11-.14c-.08-.03-.16-.02-.17.03-.02.05.03.11.11.14.08.03.16.02.17-.03Z"/><path class="cls-5" d="M2.47,11.27s-.03-.11-.11-.14c-.08-.03-.16-.02-.17.03-.02.05.03.11.11.14.08.03.16.02.17-.03Z"/><path class="cls-5" d="M2.72,11.4s-.03-.11-.11-.14-.16-.02-.17.03c-.02.05.03.11.11.14.08.03.16.02.17-.03Z"/><path class="cls-5" d="M1.02,10.05s.11.02.15.1.03.15-.01.18c-.05.02-.11-.02-.15-.1s-.03-.15.01-.18Z"/><path class="cls-5" d="M1.22,10.06s.11.02.15.1c.04.08.03.15-.01.18-.05.02-.11-.02-.15-.1s-.03-.15.01-.18Z"/><path class="cls-5" d="M1.07,9.82s.11.02.15.1.03.15-.01.18c-.05.02-.11-.02-.15-.1s-.03-.15.01-.18Z"/><path class="cls-5" d="M.8,9.29c.05,0,.09-.08.08-.16,0-.08-.05-.15-.1-.14s-.09.08-.08.16c0,.08.05.15.1.14Z"/><path class="cls-5" d="M.96,9.18c.05,0,.09-.08.08-.16,0-.08-.05-.15-.1-.14s-.09.08-.08.16c0,.08.05.15.1.14Z"/><path class="cls-5" d="M.96,9.46c.05,0,.09-.08.08-.16,0-.08-.05-.15-.1-.14-.05,0-.09.08-.08.16,0,.08.05.15.1.14Z"/><path class="cls-5" d="M1.02,7.92s.06.1.03.18-.09.13-.14.11c-.05-.02-.06-.1-.03-.18.03-.08.09-.13.14-.11Z"/><path class="cls-5" d="M1.14,8.07s.06.1.03.18-.09.13-.14.11c-.05-.02-.06-.1-.03-.18.03-.08.09-.13.14-.11Z"/><path class="cls-5" d="M1.22,7.8s.06.1.03.18c-.03.08-.09.13-.14.11-.05-.02-.06-.1-.03-.18.03-.08.09-.13.14-.11Z"/><path class="cls-5" d="M1.44,7.25s.11.01.17-.05.07-.14.04-.17c-.04-.03-.11-.01-.17.05-.06.06-.07.14-.04.17Z"/><path class="cls-5" d="M1.63,7.29s.11.01.17-.05c.06-.06.07-.14.04-.17-.04-.03-.11-.01-.17.05-.06.06-.07.14-.04.17Z"/><path class="cls-5" d="M1.42,7.48s.11.01.17-.05c.06-.06.07-.14.04-.17-.04-.03-.11-.01-.17.05-.06.06-.07.14-.04.17Z"/><path class="cls-6" d="M4.25,6.67c1.28.45,1.96,1.85,1.52,3.13-.45,1.28-1.85,1.96-3.13,1.52-1.28-.45-1.96-1.85-1.52-3.13s1.85-1.96,3.13-1.52Z"/><path class="cls-2" d="M4.99,7.08c.56.47,1.19,2.22-.06,3.5-1.25,1.27-2.98.4-3.41-.05.28.36.66.64,1.12.8,1.28.45,2.69-.23,3.13-1.52.35-1.01,0-2.09-.78-2.72Z"/><path class="cls-5" d="M3.32,8.76c0,.11-.09.2-.2.2s-.2-.09-.2-.2.09-.2.2-.2.2.09.2.2Z"/><path class="cls-5" d="M3.71,8.83c0,.11-.09.2-.2.2s-.2-.09-.2-.2.09-.2.2-.2.2.09.2.2Z"/><path class="cls-5" d="M3.24,9.13c0,.11-.09.2-.2.2s-.2-.09-.2-.2.09-.2.2-.2.2.09.2.2Z"/><path class="cls-5" d="M3.63,9.21c0,.11-.09.2-.2.2s-.2-.09-.2-.2.09-.2.2-.2.2.09.2.2Z"/><path class="cls-5" d="M1.73,7.69c-.06.09-.16.13-.23.09-.07-.04-.08-.15-.03-.25.06-.09.16-.13.23-.09.07.04.08.15.03.25Z"/><path class="cls-5" d="M1.95,7.91c-.06.09-.16.13-.23.09-.07-.04-.08-.15-.03-.25.06-.09.16-.13.23-.09.07.04.08.15.03.25Z"/><path class="cls-5" d="M1.48,7.97c-.06.09-.16.13-.23.09-.07-.04-.08-.15-.03-.25.06-.09.16-.13.23-.09.07.04.08.15.03.25Z"/><path class="cls-5" d="M1.7,8.2c-.06.09-.16.13-.23.09-.07-.04-.08-.15-.03-.25.06-.09.16-.13.23-.09.07.04.08.15.03.25Z"/><path class="cls-5" d="M1.4,9.31c0,.1-.07.18-.16.18s-.16-.08-.16-.18.07-.18.16-.18.16.08.16.18Z"/><path class="cls-5" d="M1.72,9.39c0,.1-.07.18-.16.18s-.16-.08-.16-.18.07-.18.16-.18.16.08.16.18Z"/><path class="cls-5" d="M1.33,9.66c0,.1-.07.18-.16.18s-.16-.08-.16-.18.07-.18.16-.18.16.08.16.18Z"/><path class="cls-5" d="M1.66,9.73c0,.1-.07.18-.16.18s-.16-.08-.16-.18.07-.18.16-.18.16.08.16.18Z"/><path class="cls-5" d="M3.78,7.24c0,.08-.09.15-.2.15s-.2-.07-.2-.15.09-.15.2-.15.2.07.2.15Z"/><ellipse class="cls-5" cx="3.98" cy="7.3" rx=".2" ry=".15"/><path class="cls-5" d="M3.7,7.53c0,.08-.09.15-.2.15s-.2-.07-.2-.15.09-.15.2-.15.2.07.2.15Z"/><path class="cls-5" d="M4.1,7.59c0,.08-.09.15-.2.15s-.2-.07-.2-.15.09-.15.2-.15.2.07.2.15Z"/><path class="cls-5" d="M5.19,8.63c-.08.02-.17-.04-.2-.14s0-.21.09-.23c.08-.02.17.04.2.14.03.1,0,.21-.09.23Z"/><path class="cls-5" d="M5.24,9.02c-.08.02-.17-.04-.2-.14-.03-.1,0-.21.09-.23.08-.02.17.04.2.14.03.1,0,.21-.09.23Z"/><path class="cls-5" d="M4.89,8.63c-.08.02-.17-.04-.2-.14-.03-.1,0-.21.09-.23.08-.02.17.04.2.14.03.1,0,.21-.09.23Z"/><path class="cls-5" d="M4.94,9.03c-.08.02-.17-.04-.2-.14-.03-.1,0-.21.09-.23.08-.02.17.04.2.14.03.1,0,.21-.09.23Z"/><path class="cls-5" d="M4.69,10.38c-.07-.05-.07-.16,0-.25s.17-.11.24-.06c.07.05.07.16,0,.25-.07.09-.17.11-.24.06Z"/><path class="cls-5" d="M4.4,10.65c-.07-.05-.07-.16,0-.25.07-.09.17-.11.24-.06.07.05.07.16,0,.25s-.17.11-.24.06Z"/><path class="cls-5" d="M4.51,10.14c-.07-.05-.07-.16,0-.25.07-.09.17-.11.24-.06s.07.16,0,.25c-.07.09-.17.11-.24.06Z"/><path class="cls-5" d="M4.22,10.41c-.07-.05-.07-.16,0-.25.07-.09.17-.11.24-.06s.07.16,0,.25c-.07.09-.17.11-.24.06Z"/><path class="cls-5" d="M2.87,10.89c.01-.08.11-.14.21-.12.11.01.19.09.17.18s-.11.14-.21.12-.19-.09-.17-.18Z"/><path class="cls-5" d="M2.49,10.78c.01-.08.11-.14.21-.12.11.01.19.09.17.18-.01.08-.11.14-.21.12s-.19-.09-.17-.18Z"/><path class="cls-5" d="M2.98,10.62c.01-.08.11-.14.21-.12.11.01.19.09.17.18-.01.08-.11.14-.21.12s-.19-.09-.17-.18Z"/><path class="cls-5" d="M2.6,10.51c.01-.08.11-.14.21-.12.11.01.19.09.17.18-.01.08-.11.14-.21.12-.11-.01-.19-.09-.17-.18Z"/><path class="cls-5" d="M3.16,7.88c0,.09-.08.17-.17.17s-.17-.08-.17-.17.08-.17.17-.17.17.08.17.17Z"/><circle class="cls-5" cx="2.89" cy="8.19" r=".17"/><circle class="cls-5" cx="3.2" cy="8.14" r=".17"/><path class="cls-5" d="M2.77,7.04c0,.09-.08.17-.17.17s-.17-.08-.17-.17.08-.17.17-.17.17.08.17.17Z"/><circle class="cls-5" cx="2.49" cy="7.35" r=".17"/><circle class="cls-5" cx="2.8" cy="7.29" r=".17"/><path class="cls-5" d="M3.49,6.44c0,.06-.08.1-.17.1s-.17-.05-.17-.1.08-.1.17-.1.17.05.17.1Z"/><ellipse class="cls-5" cx="3.21" cy="6.62" rx=".17" ry=".1"/><ellipse class="cls-5" cx="3.52" cy="6.59" rx=".17" ry=".1"/><path class="cls-5" d="M4.35,6.59c-.02.05.03.12.12.16s.17.02.19-.03c.02-.05-.03-.12-.12-.16s-.17-.02-.19.03Z"/><path class="cls-5" d="M4.38,6.8c-.02.05.03.12.12.16s.17.02.19-.03c.02-.05-.03-.12-.12-.16s-.17-.02-.19.03Z"/><path class="cls-5" d="M4.1,6.66c-.02.05.03.12.12.16s.17.02.19-.03c.02-.05-.03-.12-.12-.16s-.17-.02-.19.03Z"/><path class="cls-5" d="M5.87,8.02c-.05.02-.12-.03-.15-.12-.03-.09-.02-.17.03-.19.05-.02.12.03.15.12.03.09.02.17-.03.19Z"/><path class="cls-5" d="M5.65,7.98c-.05.02-.12-.03-.15-.12-.03-.09-.02-.17.03-.19.05-.02.12.03.15.12.03.09.02.17-.03.19Z"/><path class="cls-5" d="M5.79,8.26c-.05.02-.12-.03-.15-.12-.03-.09-.02-.17.03-.19.05-.02.12.03.15.12.03.09.02.17-.03.19Z"/><path class="cls-5" d="M6.03,8.88c-.06,0-.1.07-.1.17,0,.09.04.17.1.17.06,0,.1-.07.1-.17,0-.09-.04-.17-.1-.17Z"/><path class="cls-5" d="M5.84,8.98c-.06,0-.1.07-.1.17,0,.09.04.17.1.17s.1-.07.1-.17c0-.09-.04-.17-.1-.17Z"/><path class="cls-5" d="M5.88,8.67c-.06,0-.1.07-.1.17,0,.09.04.17.1.17.06,0,.1-.07.1-.17,0-.09-.04-.17-.1-.17Z"/><path class="cls-5" d="M5.52,10.47s-.04-.11,0-.18c.04-.07.11-.11.16-.08s.04.11,0,.18c-.04.07-.11.11-.16.08Z"/><path class="cls-5" d="M5.43,10.3s-.04-.11,0-.18c.04-.07.11-.11.16-.08.04.03.04.11,0,.18s-.11.11-.16.08Z"/><path class="cls-5" d="M5.31,10.55s-.04-.11,0-.18.11-.11.16-.08c.04.03.04.11,0,.18s-.11.11-.16.08Z"/><path class="cls-5" d="M4.99,11.06s-.11-.03-.18.02c-.07.05-.1.12-.07.16.03.04.11.03.18-.02.07-.05.1-.12.07-.16Z"/><path class="cls-5" d="M4.81,10.98s-.11-.03-.18.02-.1.12-.07.16c.03.04.11.03.18-.02s.1-.12.07-.16Z"/><path class="cls-5" d="M5.05,10.84s-.11-.03-.18.02c-.07.05-.1.12-.07.16.03.04.11.03.18-.02.07-.05.1-.12.07-.16Z"/><circle class="cls-5" cx="2.29" cy="8.67" r=".17"/><circle class="cls-5" cx="2.18" cy="8.98" r=".17"/><circle class="cls-5" cx="2.49" cy="8.92" r=".17"/><path class="cls-5" d="M2.69,9.59c0,.09-.08.17-.17.17s-.17-.08-.17-.17.08-.17.17-.17.17.08.17.17Z"/><circle class="cls-5" cx="2.41" cy="9.9" r=".17"/><circle class="cls-5" cx="2.72" cy="9.84" r=".17"/><path class="cls-5" d="M3.86,10.01c-.06.07-.17.07-.24,0-.07-.06-.07-.17,0-.24.06-.07.17-.07.24,0s.07.17,0,.24Z"/><path class="cls-5" d="M3.57,10.15c-.06.07-.17.07-.24,0s-.07-.17,0-.24c.06-.07.17-.07.24,0,.07.06.07.17,0,.24Z"/><path class="cls-5" d="M3.83,10.33c-.06.07-.17.07-.24,0-.07-.06-.07-.17,0-.24.06-.07.17-.07.24,0,.07.06.07.17,0,.24Z"/><path class="cls-5" d="M4.26,10.94c-.06.07-.17.07-.24,0-.07-.06-.07-.17,0-.24.06-.07.17-.07.24,0,.07.06.07.17,0,.24Z"/><path class="cls-5" d="M3.96,11.08c-.06.07-.17.07-.24,0s-.07-.17,0-.24c.06-.07.17-.07.24,0,.07.06.07.17,0,.24Z"/><path class="cls-5" d="M4.22,11.26c-.06.07-.17.07-.24,0-.07-.06-.07-.17,0-.24.06-.07.17-.07.24,0,.07.06.07.17,0,.24Z"/><path class="cls-5" d="M1.97,10.56c-.06.07-.17.07-.24,0-.07-.06-.07-.17,0-.24.06-.07.17-.07.24,0s.07.17,0,.24Z"/><path class="cls-5" d="M1.67,10.7c-.06.07-.17.07-.24,0s-.07-.17,0-.24.17-.07.24,0c.07.06.07.17,0,.24Z"/><path class="cls-5" d="M1.93,10.88c-.06.07-.17.07-.24,0-.07-.06-.07-.17,0-.24.06-.07.17-.07.24,0,.07.06.07.17,0,.24Z"/><path class="cls-5" d="M4.29,9.06c.05.08.04.18-.04.23-.08.05-.18.04-.23-.04s-.04-.18.04-.23.18-.04.23.04Z"/><path class="cls-5" d="M4.39,9.37c.05.08.04.18-.04.23-.08.05-.18.04-.23-.04-.05-.08-.04-.18.04-.23s.18-.04.23.04Z"/><path class="cls-5" d="M4.6,9.15c.05.08.04.18-.04.23s-.18.04-.23-.04-.04-.18.04-.23c.08-.05.18-.04.23.04Z"/><path class="cls-5" d="M5.25,9.42c.05.08.04.18-.04.23s-.18.04-.23-.04-.04-.18.04-.23c.08-.05.18-.04.23.04Z"/><path class="cls-5" d="M5.34,9.73c.05.08.04.18-.04.23s-.18.04-.23-.04-.04-.18.04-.23.18-.04.23.04Z"/><path class="cls-5" d="M5.56,9.51c.05.08.04.18-.04.23-.08.05-.18.04-.23-.04-.05-.08-.04-.18.04-.23.08-.05.18-.04.23.04Z"/><path class="cls-5" d="M4.26,8.32c-.07.06-.18.06-.24-.01s-.06-.18.01-.24.18-.06.24.01.06.18-.01.24Z"/><path class="cls-5" d="M3.95,8.45c-.07.06-.18.06-.24-.01-.06-.07-.06-.18.01-.24.07-.06.18-.06.24.01s.06.18-.01.24Z"/><path class="cls-5" d="M4.2,8.64c-.07.06-.18.06-.24-.01-.06-.07-.06-.18.01-.24.07-.06.18-.06.24.01.06.07.06.18-.01.24Z"/><path class="cls-5" d="M5.07,7.56c-.07.06-.18.06-.24-.01-.06-.07-.06-.18.01-.24s.18-.06.24.01.06.18-.01.24Z"/><path class="cls-5" d="M4.77,7.68c-.07.06-.18.06-.24-.01-.06-.07-.06-.18.01-.24.07-.06.18-.06.24.01.06.07.06.18-.01.24Z"/><path class="cls-5" d="M5.01,7.87c-.07.06-.18.06-.24-.01-.06-.07-.06-.18.01-.24.07-.06.18-.06.24.01s.06.18-.01.24Z"/></g><path class="cls-1" d="M13.64,20.44c0-.69.48-1.2,1.14-1.2.69,0,1.14.5,1.14,1.2s-.44,1.2-1.14,1.2-1.14-.52-1.14-1.2ZM14.12,17.69l-.27-9.25h1.85l-.27,9.25h-1.31Z"/></svg>