<?xml version="1.0" encoding="UTF-8"?><svg id="Livello_1" xmlns="http://www.w3.org/2000/svg" viewBox="0 0 36.47 54.8"><defs><style>.cls-1{fill:#85a5c3;}.cls-1,.cls-2{stroke-width:0px;}.cls-2{fill:#91b5d6;}</style></defs><path class="cls-2" d="M3.93,19.75s1.42,4.47,2.84,5.24S7.97,6.55,18.67,0c0,0-3.86,11.48-.48,15.59,0,0-.06-6.64,5.07-8.82,0,0,.87,7.64,6.55,15.06,5.67,7.42,7.53,14.24,6.33,19.64-1.2,5.4-6.07,12.99-15.86,13.31-9.79.33-16.33-5.02-18.63-11.57-2.29-6.55-2.73-17.35,2.29-23.46Z"/><path class="cls-1" d="M12.81,33.44s-1.36,8.22,4.24,8.9c5.59.68,6.95-5.76,5.93-8.9-1.02-3.14-3.39-6.77-.85-10.8,0,0-.62,3.85,1.9,6.82,2.51,2.97,5.65,9.58,2.34,16.61,0,0,2.2-2.8,2.2-4.07s.72,12.99-10.08,12.79c-10.8-.2-14.5-18.56-5.69-21.35Z"/></svg>