<?xml version="1.0" encoding="UTF-8"?><svg id="Livello_1" xmlns="http://www.w3.org/2000/svg" viewBox="0 0 21.28 27.37"><defs><style>.cls-1{fill:#4c6476;}.cls-1,.cls-2,.cls-3,.cls-4{stroke-width:0px;}.cls-5{stroke:#85a4c2;stroke-miterlimit:10;stroke-width:.52px;}.cls-5,.cls-6{fill:none;}.cls-6{stroke:#6d8aa2;stroke-linecap:round;stroke-linejoin:round;stroke-width:.26px;}.cls-2{fill:#bdd4e0;}.cls-3{fill:#8fb3d5;}.cls-4{fill:#fff;}</style></defs><path class="cls-1" d="M20.11,0H1.17C.52,0,0,.52,0,1.17v25.04c0,.65.52,1.17,1.17,1.17h18.94c.65,0,1.17-.52,1.17-1.17V1.17c0-.64-.52-1.17-1.17-1.17ZM20.48,24.61c0,.19-.17.35-.37.35H1.17c-.21,0-.37-.16-.37-.35V1.14c0-.19.17-.35.37-.35h18.94c.21,0,.37.16.37.35v23.46Z"/><path class="cls-2" d="M20.48,1.14v23.46c0,.19-.17.35-.37.35H1.17c-.21,0-.37-.16-.37-.35V1.14c0-.19.17-.35.37-.35h18.94c.21,0,.37.16.37.35Z"/><rect class="cls-5" x="1.58" y="1.58" width="18.1" height="22.58"/><line class="cls-6" x1="3.33" y1="4.61" x2="17.94" y2="4.61"/><line class="cls-6" x1="3.33" y1="6.4" x2="17.94" y2="6.4"/><line class="cls-6" x1="3.33" y1="8.22" x2="17.94" y2="8.22"/><line class="cls-6" x1="3.33" y1="10.2" x2="17.94" y2="10.2"/><path class="cls-6" d="M3.39,12.72c.11-.39.12-.81.01-1.2-.02.65-.03,1.34.27,1.93.27-.46.36-1.03.22-1.54,0,.37.05.75.25,1.06s.56.53.93.47.64-.48.5-.81c0,.26.09.52.26.71.02.02.04.04.07.04.03,0,.04-.03.05-.06.05-.17-.03-.38-.19-.46,0,.21.05.43.2.58s.4.2.57.08.15-.44-.05-.51c.36.2.75.34,1.15.4-.07-.49-.25-.95-.53-1.36-.03-.05-.11-.1-.14-.05-.04.06.04.12.1.14.59.22,1.27.4,1.81.08-.49.13-.93.45-1.21.87-.07.11-.11.29,0,.33.04.01.08,0,.12,0,.24-.04.47-.11.7-.2-.04,0-.04.06,0,.08s.08,0,.11-.01c.69-.27,1.45,0,2.19.07.71.07,1.41-.05,2.11-.18.25-.05.52-.1.76,0"/><path class="cls-1" d="M17.9,18.13h0c-.35.25-.34.76.02,1h0c.5.33.27,1.11-.34,1.11h0c-.42,0-.72.42-.57.82h0c.21.56-.44,1.06-.92.7h0c-.34-.25-.83-.08-.94.33h0c-.16.58-.98.6-1.16.02h0c-.13-.4-.62-.55-.95-.29h0c-.47.38-1.14-.09-.95-.66h0c.13-.4-.18-.81-.6-.79h0c-.6.03-.87-.74-.38-1.09h0c.35-.25.34-.76-.02-1h0c-.5-.33-.27-1.11.34-1.11h0c.42,0,.72-.42.57-.82h0c-.21-.56.44-1.06.92-.7h0c.34.25.83.08.94-.33h0c.16-.58.98-.6,1.16-.02h0c.13.4.62.55.95.29h0c.47-.38,1.14.09.95.66h0c-.13.4.18.81.6.79h0c.6-.03.87.74.38,1.09Z"/><path class="cls-3" d="M17.17,18.25h0c-.27.19-.26.6.02.78h0c.39.26.21.87-.26.87h0c-.33,0-.56.33-.45.64h0c.17.44-.35.83-.73.55h0c-.27-.2-.65-.07-.74.26h0c-.12.46-.77.47-.91.02h0c-.1-.32-.49-.44-.75-.23h0c-.37.3-.9-.07-.75-.52h0c.11-.32-.14-.64-.47-.62h0c-.47.02-.68-.58-.3-.86h0c.27-.19.26-.6-.02-.78h0c-.39-.26-.21-.87.26-.87h0c.33,0,.56-.33.45-.64h0c-.17-.44.35-.83.73-.55h0c.27.2.65.07.74-.26h0c.12-.46.77-.47.91-.02h0c.1.32.49.44.75.23h0c.37-.3.9.07.75.52h0c-.11.32.14.64.47.62h0c.47-.02.68.58.3.86Z"/><path class="cls-4" d="M15.73,17.55c-.15,0-.86.51-1.55,1.46-.17-.11-.55-.31-.92-.31h0s-.09.04-.1.08c-.01.05,0,.09.04.12.26.19.69.56.74.79.01.05.1.14.15.14.12,0,.2-.13.43-.49.28-.43.69-1.09,1.25-1.55.04-.03.09-.12.08-.17-.02-.04-.06-.08-.11-.08Z"/></svg>