<?xml version="1.0" encoding="UTF-8"?><svg id="Livello_1" xmlns="http://www.w3.org/2000/svg" viewBox="0 0 27.75 30.63"><defs><style>.cls-1{fill:#9bc1e5;}.cls-1,.cls-2,.cls-3{stroke-width:0px;}.cls-2{fill:#85a5c3;}.cls-3{fill:#91b5d6;}</style></defs><path class="cls-3" d="M27.75,4.75v3.11h-8.62s-2.06-.21-2.14,3.13h-2.85s-1.17-6.35,4.59-6.32h2.81s.99-.73,1.1-2.04c.1-1.31-.26-1.1-.26-1.1l-1.91.34s-.78-.89.03-1.88l1.85.39s.43-.27,1.03-.27.98.27.98.27l2.32-.39s.44,1.23,0,1.78c0,0-2.02-.23-2.25-.25s-.23.72-.1,1.06c0,0,.42,1.91.97,2.17h2.45Z"/><path class="cls-1" d="M21.54,4.67s.99-.73,1.1-2.04c.1-1.31-.26-1.1-.26-1.1l-1.91.34s-.78-.89.03-1.88l1.85.39s.43-.27,1.03-.27.98.27.98.27l2.32-.39s.44,1.23,0,1.78c0,0-2.02-.23-2.25-.25s-.23.72-.1,1.06c0,0,.42,1.91.97,2.17,0,0-.36.38-1.89.38s-1.87-.46-1.87-.46Z"/><path class="cls-1" d="M14.04,9.9v-.17h-.23s-.09,0-.09.17.1,1.24.1,1.24h3.38s0-1,.06-1.21c.05-.16-.13-.2-.13-.2l-.06.16h-3.04Z"/><path class="cls-3" d="M15.5,17.07c-1.57,0-2.42-1.52-1.39-2.89.88-1.17,1.39-2.61,1.39-2.61,0,0,.52,1.44,1.39,2.61,1.03,1.37.18,2.89-1.39,2.89Z"/><path class="cls-2" d="M1.76,28.32s3.49-.42,6.88.39c3.4.81,8.83,1.08,9.34,1.02s1.44-.03,1.42-.74-.85-.79-1.04-.82-2.77-.08-3.5-.25c-.31-.05-.17-.3-.17-.3,0,0-.2-.15.58,0s5.14.08,5.97-.31.71-1.03.71-1.03c0,0,.04-.55-.7-.65s-4.22.22-4.22.22c0,0-1.01.13-1.26-.16s.41-.43.41-.43c0,0,1.61.06,3.05-.03,1.06-.07,2.01-.29,2.19-.31.43-.04,1.05-.23,1.02-.85s-.5-.83-.64-.85-4.32.29-5.24.29-.81-.25-.81-.25c0,0-.09-.51,1.15-.46s4.49.31,4.57-.75c.07-1.07-1.29-1.08-1.29-1.08,0,0-2.63-.55-6.4.33-2.77.42-1.68-.43-1.68-.43,0,0,.91-.87,3.23-.64.86.13,1.05-.31,1.05-.72s-.21-.67-.63-.73-3.47-.4-6.76.52c-3.31,1.04-6.34,1.14-6.96.98-.52.42-1.82,5.61-.25,8.05Z"/><path class="cls-3" d="M1.19,30.63s3.4-1.33,7.36-.63c5.72.9,9.38.57,9.91.46s1.51-.18,1.42-.92-.97-.75-1.18-.76-2.93.2-3.72.1c-.33-.02-.21-.29-.21-.29,0,0-.23-.14.61-.05s5.44-.45,6.27-.94.65-1.16.65-1.16c0,0-.01-.59-.81-.62s-4.43.67-4.43.67c0,0-1.05.25-1.35-.04s.39-.5.39-.5c0,0,1.71-.1,3.21-.35,1.11-.18,2.09-.51,2.28-.55.45-.08,1.09-.35.99-1-.1-.65-.61-.83-.76-.84s-4.53.75-5.51.84-.88-.18-.88-.18c0,0-.15-.53,1.16-.6s4.78-.13,4.74-1.26-1.47-1.01-1.47-1.01c0,0-3.92.22-6.72,1-2.88.73-1.82-.28-1.82-.28,0,0,.87-1.01,3.34-1,.92.05,1.08-.43,1.04-.86s-.29-.68-.74-.7-3.7-.07-7.08,1.24c-3.39,1.44-6.58,1.85-7.25,1.74-.51.49-1.35,6.11.56,8.53Z"/></svg>