<?xml version="1.0" encoding="UTF-8"?>
<svg id="Livello_1" data-name="Livello 1" xmlns="http://www.w3.org/2000/svg" viewBox="0 0 59.49 30.36">
  <defs>
    <style>
      .cls-1 {
        fill: #3d3d3d;
      }

      .cls-1, .cls-2, .cls-3, .cls-4, .cls-5, .cls-6, .cls-7, .cls-8, .cls-9, .cls-10, .cls-11 {
        stroke-width: 0px;
      }

      .cls-2 {
        fill: #c29262;
      }

      .cls-3 {
        fill: #c1ac99;
      }

      .cls-4 {
        fill: #e5bc9c;
      }

      .cls-5 {
        fill: #000;
      }

      .cls-6 {
        fill: #a56731;
      }

      .cls-7 {
        fill: #925d55;
      }

      .cls-8 {
        fill: #7b4038;
      }

      .cls-9 {
        fill: #9d6638;
      }

      .cls-10 {
        fill: #b47a44;
      }

      .cls-11 {
        fill: #fff;
      }
    </style>
  </defs>
  <path class="cls-11" d="M58.73,13.25c.25.46.63,1.12.71,1.95,0,0-.1,1.44-.51,2.14-.31.53-.54.97-.69,1.34l-.13.33c-.21.57.04,1.7.04,1.7.01.1.34,1.09.3,1.71,0,.82-.61,1.15-1.53,1.66l-.54.29-.41-.14c-.79.28-1.69.58-2.76.58-.13,0-.26,0-.39-.02-.25.25-.76.71-1.61.71-.16,0-.33-.02-.5-.05-.06.04-.23-.04-.48-.2-1.57.45-3.7,3.01-3.69,2.21.02-.79.79-1.94.22-1.6-.56.33-3.32,2.64-1.99.54,1.34-2.1,3.32-2.82,3.32-2.82-.52-.45-.92-.8-.93-.81,0,0-.08-.05-.37-.11l-.17-.04c-.1-.03-.2-.05-.3-.09-.34-.09-.69-.23-1.07-.42-.86-.46-1.59-1.1-2.13-1.85-.24.11-.47.22-.72.33-.03.01-.06.03-.09.04.5.16.93.48,1.23.91.5.76.55,1.79.13,2.83-.5,1.21-1.46,1.89-2.65,1.89-.44,0-.9-.1-1.36-.29-.22.1-.5.2-.84.2-.41,0-.81-.13-1.2-.39-.37-.25-1.12-.74-1.85-3.94-.67-.09-1.38-.23-2.08-.41l-1.07-.27v-.04c-.47-.15-.92-.31-1.33-.48.1.33.21.66.34,1,.25.71.44,1.35.6,1.9.1.38.23.82.34,1.09.69.11,1.28.47,1.65,1.02.51.76.55,1.78.13,2.81-.49,1.21-1.46,1.9-2.65,1.9-.44,0-.9-.1-1.36-.29-.22.1-.5.2-.85.2-.4,0-.8-.13-1.19-.39-.99-.66-1.75-2.72-2.27-6.13-.11-.69-.65-1.92-1.11-2.95-.17,0-.39.02-.65.02-.66,0-1.67-.06-2.74-.35-.11-.03-.2-.05-.27-.06-.04.08-.08.18-.11.26-.74,1.55-.36,1.84-.44,1.99,0,.08-.75.06-.75.06.58.17,1.13.46,1.54.96.63.79.61,1.71.54,2.33-.13,1.17-.81,1.86-1.58,2.14-.35.42-.91.78-1.75.89-.16.02-.3.03-.43.03-.57,0-1.05-.16-1.44-.38h-.1c-.41,0-.81-.11-1.2-.32-.9-.51-1.17-1.6-1.36-2.4-.01-.03-.02-.06-.02-.08-.25-.24-.58-.59-1.09-1.14-.34-.37-.69-.74-.97-1.02-.61-.62-1.9-1.91-.23-3.73-.67-.45-1.4-1.11-2.07-1.85-.5.88-1.09,1.83-1.57,2.37-.43.49-.74.72-.94.87-.14.1-.2.15-.5.77-.42.91-.86,1.86-1.82,1.96-.01.28.1.46.24.65h.02s.12.01.24.01c.41,0,.91-.12,1.28-.2.34-.08.68-.16,1.05-.16,1.39,0,1.98,1.14,2.17,1.52.36.69.37,1.42.04,2.05-.63,1.18-2.2,1.48-3.32,1.61-.17.02-.35.03-.53.03C3.93,29.63.44,28.13.03,24.93c-.34-2.6,2.43-6.42,4.89-9.45l.13-.16c.78-.97,1.78-2.24,2.26-2.85.23-2.95,2.76-5.54,4.16-6.97l.36-.38c1.2-1.26,1.8-1.43,3.58-1.95l.92-.27c.62-.19,1.28-.41,1.96-.64,2.14-.72,4.57-1.55,6.93-1.65h.41c1.48,0,1.82.06,3.22.33.23.04,1.08.2,1.31.24l-.24-1.18c2.08.1,5.04,1.8,6.44,3.08.57.51,1.1,1,1.48,1.23.69.4.56.35.89.46l-.21-1.27c.85.35,3.08,1.58,3.71,2.25.25.27.63.67.78.76.29.09.96.14,1.37.17.15-.19.32-.36.49-.51.45-.4.82-.84,1.11-1.18.48-.58.94-1.13,1.74-1.13.68,0,1.26.44,1.49,1.12.04.1.14.24.24.41.02.03.03.05.05.08.32,0,.73.01,1.19.04.43-.73,1.17-1.45,2.31-1.75,1.95-.5,2.85-.96,3.26-1.26.61-.44,1.11-.71,1.67-.71.48,0,.92.21,1.21.58.5.62.34,1.35.28,1.59-.09.38-.26.76-.47,1.25-.23.54-.5,1.15-.64,1.71-.16.68-.51,1.31-.86,1.81.08.09.14.16.2.22.77.68.78,1.75.79,2.78,0,.34,0,.92.07,1.09.06.14.14.28.22.43Z"/>
  <g>
    <path class="cls-2" d="M8.71,12.98s-1.48,1.89-2.56,3.23S1.12,22.33,1.43,24.75s3.38,3.63,5.1,3.44,2.64-.7,2.18-1.59-.81-.83-1.64-.64-2.33.54-2.96-.29-.77-1.75-.16-2.93,1.53-1.48,1.27-1.02-.47.94-.47.94c0,0,.05.41.76-1.1s.77-.97,1.66-1.98,2.42-4.03,2.42-4.03c0,0,.16-2.86-.88-2.57Z"/>
    <path class="cls-6" d="M51.59,7.02s.29-1.51,1.77-1.89,2.87-.86,3.73-1.48,1.09-.57.95,0-.81,1.77-1.09,2.91-1.36,2.22-1.36,2.22l-3.99-1.76Z"/>
    <path class="cls-9" d="M36.29,6.12s-1.58-.06-1.7,1.4-.13,5.22,0,6.18,1.91,4.08,2.17,5.73.89,4.65,1.66,5.16.7-.45,1.66,0,1.85.32,2.29-.76.06-1.91-.89-1.91-1.02-1.59-1.85-3.89-.99-3.72-1.1-4.54.59-2.02-.49-2.88-.16-4.56-1.74-4.49Z"/>
    <path class="cls-2" d="M44.77,8.14s-2.13,1.25-2.51,3.99-.43,7.15-.43,7.15c-1.51.67-3.17,1.28-4.22,1.28-1.12,0-2.4-.21-3.57-.51h0c-2.28-1.43-2.26-5.16-3.69-6.02-1.43-.86-2.21-2.77-2.51-3.04.34,1.11.11,3.11.87,3.72,1.08.86.38,2.07.49,2.88.04.28.08.63.16,1.06h0c-.68.02-1.44.12-2.13.24-.56.1-1.07.21-1.45.3-.26-.6-.46-1.1-.5-1.39-.13-.96-.13-4.72,0-6.18.02-.26.09-.46.18-.63-.61.58-1.46,4.45-1.4,5.72.07,1.28,1.05,2.64,1.05,2.64,0,0-1.53.19-3.19-.25-1.66-.45-1.72.31-2.23,1.4-.49,1.04.31,1.72.38,1.78-.05-.03-.89-.46-.95-1.02-.07-.57-.77-1.78-.7-1.02.06.74-.54,1.31-.58,1.34.01-.01.03-.09.19-.57.19-.58-.25-1.98-.32-1.09-.06.89-.82.77-1.46,1.34-.64.58-1.98.45-1.15.89.83.45,1.4,1.53,3.38,1.72,1.97.19,2.29.83,2.17,1.98-.13,1.15-1.09,1.02-1.09,1.02,0,0-.06.63-1.02.76-.95.13-1.33-.51-1.33-.51,0,0-.39.32-.96,0s-.7-2.04-.89-2.1-1.47-1.53-2.23-2.29-.9-1.02-.19-1.79c.7-.76,1.33-1.59.51-1.72-.83-.12-4.66-3.37-4.72-6.24-.06-2.87,3.06-5.73,4.14-6.88.48-.5.8-.78,1.22-.99h.01c.17.03,4.07.78,4.52.16.46-.64,2.08-1.48,2-.64-.07.85-.06,2.83,0,1.7.07-1.13,1.42-1.63,1.14-.26-.28,1.37.35,2.87.42,2.07.06-.8.29-2.59,1.28-3.65s4.44-.7,6.3-.63c1.76.07,1.7-.89,1.69-1.01.8.12,1.32.13,1.3-.13-.06-.76-1.66-1.21-1.66-1.21,2.36.13,4.53,3.12,6.06,4.01,1.53.9,2.67,1.15,2.99.9.31-.25-.59-1.1-.63-1.15,1.08.45,2.22,2.29,2.99,2.55.76.25,1.97.25,2.29.32Z"/>
    <path class="cls-2" d="M52.35,16.11c-.53-.57-1.71-1.7-2.38-1.39-.67.31-1.18,1.01-1.85,1.04-.67.03-1.69.06-2.01.38-.32.32-.65.97-.45,1.73.2.76,1.22,1.68,1.25,2.32s-.18,1-.18,1c-.29-.08-.57-.2-.85-.35-.95-.5-1.78-1.35-2.18-2.44-.19-.5-.29-1.05-.27-1.65.05-1.82-.98-6.34,1.34-8.56,0,0,0,0,.01-.01.76-.72,1.87-1.19,3.5-1.26,0,0,.32-.02.83-.03.09.03,1.68.52,1.52,1.57-.16,1.08-1.07,2.2-.76,3.12s2.61,1.94,2.93,2.64c.32.7.88,1.59.95,1.88.07.29-.87.57-1.4,0Z"/>
    <path class="cls-10" d="M43.71,18.39c-.54.27-1.19.59-1.88.89h0s.06-4.42.44-7.16c.38-2.74,2.51-3.99,2.51-3.99v.04c-2.32,2.22-1.29,6.73-1.34,8.56-.02.6.08,1.15.27,1.65Z"/>
    <path class="cls-10" d="M56.72,17.01c.43-1.08-.16-1.88-.67-2.68s.04-1.93.4-2.68c.37-.76-.17-1.23-1.02-1.83-.84-.61-2.38-2.57-2.63-.4-.26,2.18,2.02,2.08,2.03,3.18.01,1.1-.34.83-.85.68-.52-.14-.24.2.32,1.3.57,1.1,1.04,2.52.94,3.54-.11,1.02-.37,2.23-.65,3.06-.26.74.46,1.02.62,1.07-.21-.1-.22-.34.16-.58.4-.25,1.28-.16,1.28-.16.07,0,.12.02.17.05.01.29-.03.56-.18.76-.09.15-.24.27-.46.34-.07.02-.15.05-.22.07-.96.32-1.98.75-3.16.63-1.27-.12-.7,1.41-2.74.32-2.04-1.08-1.15-2.04-2.99-2.42-.11-.02-.22-.05-.33-.08,0,0,.21-.37.17-1-.03-.64-1.05-1.56-1.25-2.32-.2-.75.14-1.41.46-1.73s1.34-.35,2-.38c.67-.03,1.18-.73,1.85-1.04.67-.31,1.85.82,2.38,1.39.54.57,1.48.29,1.4,0-.07-.29-.62-1.18-.94-1.88-.32-.7-2.61-1.72-2.93-2.64-.31-.93.6-2.04.76-3.12.15-1.06-1.44-1.55-1.53-1.57.97-.02,2.61.02,3.94.36,2.04.5,3.06,2.22,3.64,2.73.57.51.12,2.49.51,3.38.38.89,1.33,1.85.5,3.25-.75,1.28-1.24,2.46-1.17,3.28-.17-.15-.34-.33-.48-.54-.51-.76.23-1.26.67-2.34Z"/>
    <path class="cls-2" d="M45.22,17.6s-.61.34-1.51.8c-.19-.5-.29-1.05-.27-1.65.05-1.82-.98-6.34,1.34-8.56l.44,9.41Z"/>
    <path class="cls-10" d="M48.69,9.35c.18-.72-.37-1.55-.63-2.17-.26-.62-.45-1.29-.53-1.05-.07.23-.91,1.1-1.55,2.25-.65,1.15-.07,3.32-.17,4.13-.1.81.69,1.06.69,1.06-.37.83-.91,1.42-1.42,1.02,0,0-1.28-.23-1.08-2.1s.52-4.11,1.82-5.26c1.29-1.15,1.86-2.39,2.05-1.82s1.1,1.58,1.24,2.82c.05.39-.14.75-.42,1.11Z"/>
    <path class="cls-8" d="M57.03,22.34c0,.06-.79.48-.79.48l-.28-.09-.49-.16s0-.21-.23-.31c0,0-.01,0-.03-.01-.21-.1-.22-.34.16-.58.4-.25,1.28-.16,1.28-.16.07,0,.12.02.17.05.28.17.21.73.21.78Z"/>
    <path class="cls-2" d="M33.03,27.93c-.45,1.08-1.34,1.21-2.29.76-.96-.45-.89.51-1.66,0-.76-.51-1.4-3.5-1.66-5.16-.16-1.06-.95-2.71-1.53-4.02-.05-.11-.1-.22-.15-.33-.26-.6-.46-1.09-.49-1.39-.13-.96-.13-4.71,0-6.18.02-.25.09-.46.18-.63,0,0,0,0,0,0,.45-.81,1.52-.76,1.52-.76.47-.02.72.3.86.77.34,1.12.11,3.12.87,3.72,1.08.86.38,2.07.49,2.88.04.28.08.63.15,1.06.14.83.4,1.97.95,3.48.83,2.29.89,3.89,1.85,3.89s1.34.83.89,1.91Z"/>
    <path class="cls-10" d="M25.76,19.19c-.41.09-.67.16-.67.16,0,0-.98-1.36-1.04-2.64-.06-1.27.79-5.15,1.4-5.73-.09.17-.16.38-.18.63-.13,1.47-.13,5.22,0,6.18.04.29.24.79.49,1.39Z"/>
    <path class="cls-7" d="M48.69,9.35h0c-.61.79-1.67,1.55-1.73,2.47-.04.53-.21,1.18-.45,1.73,0,0,0,.01,0,.01,0,0-.79-.25-.69-1.06.09-.81-.48-2.99.17-4.13.64-1.15,1.48-2.02,1.55-2.25.07-.24.26.43.53,1.05.26.62.82,1.45.63,2.17Z"/>
    <path class="cls-3" d="M53.17,22.33s-5.27,1.33-7.5,3.75c0,0,1.98-2.15,7.5-3.75Z"/>
    <path class="cls-3" d="M56.59,21.3s.29.13.89-.25c0,0-.22.38-.89.25Z"/>
    <path class="cls-3" d="M52.35,23.11s-2.58.64-3.89,2.61c0,0,1.18-2.06,3.89-2.61Z"/>
    <path class="cls-3" d="M47.39,25.73s1.62-3.02,3.03-3.29c0,0-1.18-.12-3.03,3.29Z"/>
    <path class="cls-5" d="M51.25,17.87s1.19,1,2.51.86c0,0-1.1.72-2.51-.86Z"/>
    <path class="cls-5" d="M56.46,18.61s.37-.24.45-.44.21.39-.45.44Z"/>
    <path class="cls-1" d="M18.6,25.21s1.16.32.94,1.66c0,0,.61-1.33-.94-1.66Z"/>
    <path class="cls-1" d="M17.19,27.13s-.11-.82.1-1.35-.49.23-.1,1.35Z"/>
    <path class="cls-1" d="M30.38,28.58s.26-.82,0-1.45.84.6,0,1.45Z"/>
    <path class="cls-10" d="M34.04,20.05c-1.26-.32-2.4-.75-3.09-1.15-.36-.2-.94-.27-1.6-.25-.07-.43-.12-.78-.15-1.06-.11-.81.59-2.02-.49-2.88-.76-.61-.53-2.61-.87-3.72.31.27,1.08,2.19,2.51,3.04,1.43.86,1.41,4.58,3.7,6.02Z"/>
    <path class="cls-10" d="M16.4,10.99s2.12,3.74,4.8,5.58-.92.17-2.89-1.04-3.92-7.43-1.91-4.53Z"/>
    <path class="cls-10" d="M19.26,8.05s.9,3.64,2.72,5.81-.81-.07-2.18-1.56-1.55-7.15-.54-4.25Z"/>
    <path class="cls-10" d="M24.08,6.83s-.81,2.82-.4,5.08-.53-.41-.9-2.01,1.74-5.45,1.3-3.07Z"/>
    <path class="cls-4" d="M56.56,20.11c.1.41.25.96.26,1.45-.05-.03-.1-.05-.17-.05,0,0-.88-.09-1.28.16-.38.24-.37.48-.16.58-.16-.05-.88-.33-.62-1.07.28-.83.54-2.04.65-3.06.1-1.02-.37-2.44-.94-3.54-.56-1.1-.84-1.44-.32-1.3.51.15.86.42.85-.68-.01-1.1-2.29-1-2.03-3.18.25-2.17,1.79-.21,2.63.4.85.6,1.39,1.07,1.02,1.83-.36.75-.91,1.88-.4,2.68s1.1,1.6.67,2.68c-.44,1.08-1.18,1.58-.67,2.34.14.21.31.39.48.54,0,.07,0,.15.03.22Z"/>
    <path class="cls-4" d="M32.47,10.22s-.42,1.18,0,2.74,1.55,2.76,2.4,3.11-.5-1.07-.29-2.37.57.36,1.49,1.05c0,0-.78-3.29.42-5.32s2.02-2.2,2.02-2.2c0,0-1.95.54-2.58,1.55s-.5-.05-.53-.9.32-1.55.32-1.55c0,0-1.46,2.45-1.68,3.09s-.08-2.8-1.56.79Z"/>
    <path class="cls-4" d="M29.74,3.86c-1.86-.07-5.31-.43-6.3.63s-1.22,2.85-1.28,3.65c-.07.8-.7-.7-.42-2.07.28-1.37-1.07-.87-1.14.26-.06,1.13-.07-.85,0-1.7.08-.84-1.54,0-2,.64-.45.62-4.35-.13-4.52-.16.54-.26,1.24-.43,2.66-.86,2.55-.76,5.67-2.1,8.54-2.23,1.89-.09,4.58.59,6.15.83.01.12.07,1.08-1.69,1.01Z"/>
  </g>
</svg>