<?xml version="1.0" encoding="UTF-8"?>
<svg id="Livello_1" data-name="Livello 1" xmlns="http://www.w3.org/2000/svg" version="1.1" viewBox="0 0 56.7 56.7">
  <defs>
    <style>
      .cls-1 {
        opacity: .3;
      }

      .cls-1, .cls-2 {
        fill: #fff;
        stroke-width: 0px;
      }

      .cls-2 {
        opacity: .2;
      }
    </style>
  </defs>
  <path class="cls-2" d="M46.3,5.4c-1.2-.2-2.6-.3-3.8-.1-1.4.2-2.8.4-3.7,0-1.8-.8-3.5-1-5.2-.6-.6.1-1.1.3-1.6.5-.2,0-.4.1-.5.2-1.5.5-2.2,1.5-2.6,2.2-.4.7-.8,1.3-1.3,2l-1,1.4c-.3.4-.6.9-.9,1.5-.3.6-.4,1.3-.3,2-.5,0-.9,0-1.4,0-.4,0-.8,0-1.3-.1-.5,0-1.1-.1-1.7-.1-1,0-2,0-2.8.2-.9.2-1.8.5-2.6.8-.3.1-.6.2-1,.3-.2,0-.6.2-1,.4-.6.4-1.1.8-1.6,1.1h-.1c-.3.3-.7.6-1.1,1.1-.4.5-.7,1-1.1,1.6l-.4.5.6.4h0l-.8-.3c-.2.2-.4.5-.5.8l-.2.3c-.3.7-.7,1.3-1,2.1-.2.5-.3,1.1-.4,1.6,0,.2,0,.4-.1.5-.2.8,0,1.6.4,2.2.4.6,1.1.9,1.9.9s.3,0,.5,0c.2,0,.5,0,.9-.2,0,0,0,.1,0,.2v.4c0,.2,0,.6.2,1.1,0,.2.1.5.1.9-.3.2-.6.6-.9,1.1-.3.4-.6,1-.7,1.8-.1.8-.1,1.7,0,2.4,0,.4,0,.8.1,1.2,0,.1,0,.3,0,.4,0,.2,0,.4,0,.6,0,0,0,.2,0,.2-.2.7-.1,1.3,0,1.7-.1.7,0,1.3.2,1.7,0,0,0,.2,0,.2,0,.2,0,.4,0,.6,0,.6.1,1.2.3,1.9.2.6.2.7.2.8v.9c-.1,0,.5.7.5.7.1.1.2.3.4.4h0c.4.9,1.5,3,4.2,2.8,1.1,1.2,2.6,1.6,4.4,1.3.5,0,1.7-.3,2.2-1.4.6-1.1,0-2.1-.1-2.5l-.6-1.4c-.6-1.3-1.2-2.7-1.9-4-.6-1.3-.8-2.6-.6-4.2l.9-1.5,1.2-1.3c.2-.2.4-.5.6-.9h.1c0,0,0,0,0,0h.5c.2.1.4.1.6.1h.2s.2.2.2.2h.7c.3,0,.5,0,.8-.2.1,0,.3,0,.4,0h.4s.6-.3.6-.3c0,0,.1,0,.2,0,0,.1.2.2.3.3,0,.2.2.5.3.7v.9s-.7.9-.7.9l1.6.9.5.7c0,.2.1.3.2.5,0,.3.1.6.3.9,0,.2,0,.3,0,.5,0,.2,0,.5-.1.8,0,.4-.1.9-.2,1.3v.3c0,0,0,.1,0,.1h-.2c0,.1.6,4.2.6,4.2l.6.3c.5,1.8,1.6,3.2,3.3,4.1.5.2,1,.3,1.6.3s.7,0,1,0c.8,0,1.5-.5,1.9-1.2,0-.2.2-.3.2-.5.9-.2,1.6-.8,1.8-1.6.3-.8,0-1.7-.6-2.4,0,0-.2-.4-.3-.7,0-.3-.2-.6-.3-.9-.5-1.3-.6-2.8-.2-4.5.3-1.2.5-2.4.5-3.7v-.2c.1-.2.2-.4.3-.5,0-.1.1-.4.2-.5.1-.2.2-.4.3-.6h.3c0,0,.3-1.4.3-1.4l.9-1.3c.2-.1.3-.3.5-.4.4-.4.7-.9.8-1.3,0,0,0-.2.1-.2l.3-.4c0-.1.2-.2.3-.4.3-.4.7-.9,1-1.5.5-1.2.4-2.3.4-3.3,0-.2,0-.4,0-.7,0-.4,0-.9,0-1.3,0-.3,0-.7,0-1,0-.7,0-1.4,0-2.1,0-1.3.1-2.6,0-3.9,0-1.2-.3-2.3-.5-3.3.9-.3,1.7-.6,2.6-1,1.1-.5,1.8-1.4,2.4-2.3l1.9-2.7-3.7-.5Z"/>
  <path class="cls-1" d="M42.8,7.3c-1.7.3-3.3.5-4.9-.2-1.3-.6-2.6-.8-3.9-.5-.7.1-1.3.4-2,.7-.7.2-1.2.7-1.5,1.3-.6,1-1.3,2-2,3-.4.6-.9,1.2-1.2,1.8-.3.6,0,1.4.6,1.7-.3.5,0,.7.5.8.8.1,1.5.2,2.3.2.3,0,.6,0,.9,0,0,0,0,0,0,.1-.8.1-1.6.3-2.1.4-.8,0-1.3,0-1.8,0-1.3,0-2.7,0-4-.1-1,0-1.9-.2-2.9-.3-.8,0-1.5,0-2.3.2-1.1.3-2.2.7-3.4,1-.2,0-.4.1-.6.2-.5.3-1,.7-1.6,1.1-.3.2-.6.4-.8.6-.5.7-.9,1.4-1.4,2-.2.3-.4.5-.5.8-.4.7-.8,1.4-1.1,2.2-.2.6-.3,1.3-.5,1.9-.2.7.3.5.7.5.1,0,.3,0,.4,0,.5-.3,1-.6,1.4-1,0,0,0,0,.2,0,0,.1.2.2.3.3-.1.1-.2.2-.2.2.3.4.6.8.7,1.2.2.5.2,1,.3,1.5,0,.2,0,.5,0,.7.3.9.2,1.9.2,2.7-.2.1-.4.2-.6.3-.2.2-.4.4-.5.6-.2.3-.4.7-.5,1,0,.7,0,1.4,0,2.1,0,.5.1,1,.2,1.5,0,.5.2,1.1,0,1.5-.2.5.2.9,0,1.4-.1.4.1,1,.2,1.5.1.8.1,1.5.4,2.2.2.6.3,1.1.2,1.7.3.3.6.5.7.9.5,1.2,1.2,1.9,2.7,1.6.5-.1.8,0,1,.4.7,1,1.7,1.2,2.8,1,.9-.2,1-.3.6-1.1-.8-1.8-1.6-3.6-2.5-5.4-1-2.1-1.1-4.3-.6-6.5.1,0,.2,0,.2,0,.1-.2.2-.4.3-.6.2-.4.4-.8.7-1.3h.3s0,0,0-.1c.2-.2.4-.4.6-.6.1-.2.4-.4.4-.7,0-.7.6-.8,1.1-1.1.2,0,.3-.3.4-.5,0,0,0,.1,0,.2.4,0,.8.2,1.2.2.5,0,1-.1,1.4.2,0,0,.1,0,.2,0,.3-.2.6-.2.9,0,0,0,.2,0,.2,0,.5-.3.9-.5,1.5-.8.2.6.5-.2.6-.1.3.4.5.7.8,1.1-.3.5.4.6.6.9,0,.2-.2.4-.2.4.4.2.3.6.4.9,0,.2.1.5.2.7,0,0,0,0-.1,0,.2,0,.4.2.5.3,0,.1-.2.2-.3.4.2.1.3.2.5.3,0,.2,0,.3-.2.5.2,0,.4.1.6.2,0,.2,0,.6,0,.6.5.2.5.6.4,1,0,0,.1.2.2.3,0,0,.1.2.1.3,0,.4,0,.8,0,1.2,0,.7-.2,1.4-.3,2.1,0,.7,0,1.4-.8,1.9.2.1.4.2.5.3,0,.2-.1.5-.2.6.4.2.7.3.9.5.1,0,.3.2.3.4.2,1.5.9,2.6,2.3,3.3.4.2,1,.1,1.5,0,.4,0,.5-.4.4-.7,0-.2-.2-.5-.2-.7.6,0,1.2-.1,1.8-.3.4,0,.5-.3.2-.6-.6-.7-.7-1.5-1-2.3-.8-1.9-.8-3.8-.3-5.7.3-1.4.6-2.8.3-4.2.2,0,.3,0,.3,0,.2-.5.3-1,.5-1.4.3-.4,0-1.1.6-1.3.1-.4.2-.8.3-1.1.2,0,.4,0,.7-.1-.2-.2-.4-.4-.4-.5.5-.4,1.1-.7,1.5-1.1.3-.3.4-.8.7-1.1.1-.2.3-.4.4-.6.4-.5.8-.9,1-1.5.4-1,.2-2.1.2-3.1,0-.8-.1-1.5-.1-2.3,0-2,.2-4,.2-5.9,0-1.3-.4-2.5-.6-3.7-.2-1-.1-1.2,1-1.5,1-.3,2-.6,2.9-1.1.7-.3,1.1-.9,1.6-1.6-1.3-.2-2.5-.4-3.7-.2Z"/>
</svg>