<?xml version="1.0" encoding="UTF-8"?><svg id="Various" xmlns="http://www.w3.org/2000/svg" xmlns:xlink="http://www.w3.org/1999/xlink" viewBox="0 0 127.97 82.03"><defs><style>.cls-1{fill:#62b2c9;filter:url(#drop-shadow-16);}.cls-2{filter:url(#drop-shadow-14);}.cls-2,.cls-3{fill:#343434;}.cls-3{filter:url(#drop-shadow-15);}.cls-4{filter:url(#drop-shadow-12);}.cls-4,.cls-5{fill:#e0ca8d;}.cls-5{filter:url(#drop-shadow-13);}.cls-6{fill:#e8e8e8;filter:url(#drop-shadow-11);}.cls-7{fill:#fff;filter:url(#drop-shadow-10);}</style><filter id="drop-shadow-10" filterUnits="userSpaceOnUse"><feOffset dx="1" dy="1"/><feGaussianBlur result="blur" stdDeviation="3"/><feFlood flood-color="#000" flood-opacity=".15"/><feComposite in2="blur" operator="in"/><feComposite in="SourceGraphic"/></filter><filter id="drop-shadow-11" filterUnits="userSpaceOnUse"><feOffset dx="1" dy="1"/><feGaussianBlur result="blur-2" stdDeviation="3"/><feFlood flood-color="#000" flood-opacity=".15"/><feComposite in2="blur-2" operator="in"/><feComposite in="SourceGraphic"/></filter><filter id="drop-shadow-12" filterUnits="userSpaceOnUse"><feOffset dx="1" dy="1"/><feGaussianBlur result="blur-3" stdDeviation="3"/><feFlood flood-color="#000" flood-opacity=".15"/><feComposite in2="blur-3" operator="in"/><feComposite in="SourceGraphic"/></filter><filter id="drop-shadow-13" filterUnits="userSpaceOnUse"><feOffset dx="1" dy="1"/><feGaussianBlur result="blur-4" stdDeviation="3"/><feFlood flood-color="#000" flood-opacity=".15"/><feComposite in2="blur-4" operator="in"/><feComposite in="SourceGraphic"/></filter><filter id="drop-shadow-14" filterUnits="userSpaceOnUse"><feOffset dx="1" dy="1"/><feGaussianBlur result="blur-5" stdDeviation="3"/><feFlood flood-color="#000" flood-opacity=".15"/><feComposite in2="blur-5" operator="in"/><feComposite in="SourceGraphic"/></filter><filter id="drop-shadow-15" filterUnits="userSpaceOnUse"><feOffset dx="1" dy="1"/><feGaussianBlur result="blur-6" stdDeviation="3"/><feFlood flood-color="#000" flood-opacity=".15"/><feComposite in2="blur-6" operator="in"/><feComposite in="SourceGraphic"/></filter><filter id="drop-shadow-16" filterUnits="userSpaceOnUse"><feOffset dx="1" dy="1"/><feGaussianBlur result="blur-7" stdDeviation="3"/><feFlood flood-color="#000" flood-opacity=".15"/><feComposite in2="blur-7" operator="in"/><feComposite in="SourceGraphic"/></filter></defs><g id="ic_animals_complications"><path id="Tracciato_67-2" class="cls-7" d="M8.95,30.65s3.29-2.31,5.48-5.15c2.19-2.84,1.48-3.55,3.27-6.2-.29-.08-4.35-1.85,0-6.68s3.27-3.46,3.27-3.46c0,0-2.02,5.84-1.17,7.73,0,0,4.59-2.72,9.18-2.16,.25-.18-1.51-5.11-1.51-5.11l3.55,3.52s1.97,1.82,1.84,4.3l3.82,4.59,14.74,4.57,23.63,3.82s5.67,.92,13.55,.43,8.62-.42,14.24,0,13.17,.38,14.23,8.84c1.06,8.46,1.81,17.17,1.81,17.17,0,0,2.73-1.27,2.08,6.1-.65,7.37-3.34,4.8-3.34,4.8,0,0-3.26,1.35-.59-12.23,0,0,2.05-17.17-5.89-21.89,0,0,2.35,2.24,1.41,7.72-.95,5.48-1.82,8.86-2.63,17.87-.81,9.02,3.43,5.09,1.31,9.38,0,0,.45,.7-8.04,1.49-7.11,.66-12.66,2.69-20.76,.08-1.26-1.93-1.27-1.55-1.37-2.41l-17.27,.84s-.7,1.6-7.76,1.49-11.97-1.37-19.8-1.49c-4.27-.07-6.72-4.07-5.7-6.26,.84-2.08,1.72-1.71,9.31-1.11-6.51-8.1-10.93-21.23-10.93-21.23,0,0-2.83,1.64-5.99,1.36-3.16-.28-13.38-1.59-14.31-1.89-.92-.29-2.72-.73-3.19-2.86-.47-2.13,.05-3.87,.28-4.08s.87-.3,1.42-.65,1.84-1.21,1.84-1.21Z"/><path id="Tracciato_74" class="cls-6" d="M81.1,67.38c-.49-.61,.68-1.27,.98-1.68,2.21-1.56,1.97-1.68,4.14-2.17,3.63-.56,3.8-.87,7.8-.68-1.37-.72-5.54-2.61-4.91-10.39,.64-7.78,5.13-11.78,3.41-6.81s1.28,12.14,3.72,16.1c1.02,1.66,.73,1.1,.73,1.1,0,0,1.51,2.83-4.18,2.58-2.49-.15-4.98,.09-7.4,.71-2.51,.69-3.73,.76-4.3,1.24Z"/><path id="Tracciato_75" class="cls-4" d="M82.05,68.39c.25,.24,.72,1.1,.97,1.28s1.87,.75,3.57,.86c0,0-.46-3.79-.57-3.9,0,0-1.42,.35-2.49,.6-.57,.12-1.12,.31-1.64,.56-.05,.22,0,.45,.16,.61Z"/><path id="Tracciato_77" class="cls-5" d="M62.97,67.66c-.38,.49-.97,.63-1.28,.8s-2.3,.63-4.32,.56c0,0,.91-4.08,1.05-4.19,0,0,1.65,.53,2.9,.91,.66,.19,1.29,.45,1.89,.77,.08,.4,0,.81-.24,1.15Z"/><path id="Tracciato_82" class="cls-2" d="M87.52,48.33c-1.25,4.43,1.52,8.08-3.61,9.64-5.14,1.57-3.33-1.32-5.34-1.64-2.01-.32-2.2,1.3-3.01-.14-.84-1.49,1.16-2.89,.74-5.71-.42-2.82,1.7-5.66,3.02-8.1,1.32-2.43-.36-5.94,2.04-5.97,2.41-.03,2.18,.89,3.82,2.03,1.63,1.14,3.92-.43,4.38,2.27,.46,2.7-.78,3.18-2.04,7.61Z"/><path id="Tracciato_81" class="cls-3" d="M48.83,50.59c-1.38-2.22,.39-3.1,2.64-3.73,2.25-.62,3.15,1.06,5.41,.22,2.26-.84,3.25-3.17,3.25-3.17,0,0,.83-1.44,3.92,1.23,.83,.65,2.74-.15,3.99,1.42,1.3,1.63,1.01,4.27-1.38,4.09-4.28-.33-2.54,1.82-2.21,2.38s1.63,.91,4.16,1.84c.96,.33,1.77,3.07,.34,4.57s-4.02,1.72-6.07,1.42c-2.05-.29-3.56-1.15-5.86-2.82-2.3-1.67-3.15-1.46-3.83-3.44-.68-1.98-2.98-1.78-4.37-4Z"/><path class="cls-1" d="M58.21,27.61s-10,11.67-11.3,21.09c-1.3,9.43-5.38,12.71-5.38,12.71,0,0-8.9,4.82-4.15,7.61,3.23,1.9,7.08,1.86,11.98,1.86s7.55,2.3,10.94,2.24c13.81-.25,11.69-1.78,22.2-.51,10.51,1.27,15.82-1.79,24.72,.75,0,0-5.38-9.98-6.71-22.74s3.46-19.44,2.33-19.78c-6.56-1.32-11.79,.72-24.19-.17-5.95-.43-11.05-1.87-20.44-3.06Z"/></g></svg>