<?xml version="1.0" encoding="utf-8"?>
<!-- Generator: Adobe Illustrator 28.0.0, SVG Export Plug-In . SVG Version: 6.00 Build 0)  -->
<svg version="1.1" id="Livello_1" xmlns="http://www.w3.org/2000/svg" xmlns:xlink="http://www.w3.org/1999/xlink" x="0px" y="0px"
	 viewBox="0 0 216.28 146.82" style="enable-background:new 0 0 216.28 146.82;" xml:space="preserve">
<style type="text/css">
	.st0{fill:#FFFFFF;}
	.st1{fill:#C27272;}
</style>
<path class="st0" d="M116.66,87.62H97.21c-1.87,0-3.4-1.53-3.4-3.4V64.76c0-1.87,1.53-3.4,3.4-3.4h19.46c1.87,0,3.4,1.53,3.4,3.4
	v19.46C120.06,86.09,118.53,87.62,116.66,87.62z"/>
<path class="st1" d="M82.88,120.33H63.43c-1.87,0-3.4-1.53-3.4-3.4V97.47c0-1.87,1.53-3.4,3.4-3.4h19.46c1.87,0,3.4,1.53,3.4,3.4
	v19.46C86.28,118.8,84.75,120.33,82.88,120.33z"/>
<path class="st0" d="M190.04,68.94h-19.46c-1.87,0-3.4-1.53-3.4-3.4V46.09c0-1.87,1.53-3.4,3.4-3.4h19.46c1.87,0,3.4,1.53,3.4,3.4
	v19.46C193.44,67.41,191.91,68.94,190.04,68.94z"/>
<path class="st0" d="M26.77,97.38L8.31,91.25c-1.78-0.59-2.75-2.52-2.16-4.3l6.13-18.47c0.59-1.78,2.52-2.75,4.3-2.16l18.47,6.13
	c1.78,0.59,2.75,2.52,2.16,4.3l-6.13,18.47C30.49,97,28.55,97.97,26.77,97.38z"/>
<path class="st1" d="M146.86,58.21H127.4c-1.87,0-3.4-1.53-3.4-3.4V35.36c0-1.87,1.53-3.4,3.4-3.4h19.46c1.87,0,3.4,1.53,3.4,3.4
	v19.46C150.26,56.68,148.73,58.21,146.86,58.21z"/>
<path class="st1" d="M56.47,26.39L43.94,41.28c-1.21,1.43-3.36,1.62-4.79,0.41L24.26,29.15c-1.43-1.21-1.62-3.36-0.41-4.79
	L36.38,9.48c1.21-1.43,3.36-1.62,4.79-0.41L56.06,21.6C57.49,22.81,57.67,24.96,56.47,26.39z"/>
<path class="st0" d="M106.27,41.26l-17.91-7.6c-1.72-0.73-2.53-2.74-1.8-4.46l7.6-17.91c0.73-1.72,2.74-2.53,4.46-1.8l17.91,7.6
	c1.72,0.73,2.53,2.74,1.8,4.46l-7.6,17.91C110,41.18,107.99,41.99,106.27,41.26z"/>
<path class="st0" d="M159.37,102.44l-17.91-7.6c-1.72-0.73-2.53-2.74-1.8-4.46l7.6-17.91c0.73-1.72,2.74-2.53,4.46-1.8l17.91,7.6
	c1.72,0.73,2.53,2.74,1.8,4.46l-7.6,17.91C163.1,102.36,161.09,103.17,159.37,102.44z"/>
<path class="st0" d="M130.04,123.36l-14.28,13.21c-1.37,1.27-3.54,1.19-4.81-0.19l-13.21-14.28c-1.27-1.37-1.19-3.54,0.19-4.81
	l14.28-13.21c1.37-1.27,3.54-1.19,4.81,0.19l13.21,14.28C131.49,119.93,131.41,122.09,130.04,123.36z"/>
<path class="st0" d="M78.1,75.67l-17.67,8.13c-1.7,0.78-3.73,0.03-4.51-1.67l-8.13-17.67c-0.78-1.7-0.03-3.73,1.67-4.51l17.67-8.13
	c1.7-0.78,3.73-0.03,4.51,1.67l8.13,17.67C80.55,72.86,79.8,74.89,78.1,75.67z"/>
<path class="st1" d="M206.73,103.48l-18.47,6.11c-1.78,0.59-3.71-0.39-4.3-2.16l-6.11-18.47c-0.59-1.78,0.39-3.71,2.16-4.3
	l18.47-6.11c1.78-0.59,3.71,0.39,4.3,2.16l6.11,18.47C209.48,100.96,208.51,102.9,206.73,103.48z"/>
</svg>
