<?xml version="1.0" encoding="UTF-8"?>
<svg id="Livello_1" data-name="Livello 1" xmlns="http://www.w3.org/2000/svg" viewBox="0 0 58.64 31.92">
  <defs>
    <style>
      .cls-1 {
        fill: #bababa;
      }

      .cls-1, .cls-2, .cls-3, .cls-4, .cls-5, .cls-6, .cls-7, .cls-8, .cls-9, .cls-10, .cls-11, .cls-12, .cls-13, .cls-14 {
        stroke-width: 0px;
      }

      .cls-2 {
        fill: #7e7a77;
      }

      .cls-3 {
        fill: #99928c;
      }

      .cls-4 {
        fill: #000;
      }

      .cls-5 {
        fill: #75716e;
      }

      .cls-6 {
        fill: #958786;
      }

      .cls-15 {
        fill: none;
        stroke: #fff;
        stroke-miterlimit: 10;
        stroke-width: .35px;
      }

      .cls-7 {
        fill: #d5d1d0;
      }

      .cls-8 {
        fill: #544e47;
      }

      .cls-9 {
        fill: #562521;
      }

      .cls-10 {
        fill: #514840;
      }

      .cls-11 {
        fill: #9b7c77;
      }

      .cls-12 {
        fill: #774939;
      }

      .cls-13 {
        fill: #fff;
      }

      .cls-14 {
        fill: #383129;
      }
    </style>
  </defs>
  <g>
    <g>
      <polygon class="cls-13" points="45.75 7.99 45.75 6.55 47.1 4.86 45.79 4.86 45.79 3.05 49.83 3.05 49.83 4.45 48.45 6.18 49.84 6.18 49.84 7.99 45.75 7.99"/>
      <path class="cls-4" d="M49.27,7.42h-2.96v-.67l1.96-2.46h-1.91v-.67h2.9v.64l-1.99,2.49h1.99v.67Z"/>
    </g>
    <g>
      <polygon class="cls-13" points="40.61 5.7 40.61 4.13 42.36 1.94 40.67 1.94 40.67 0 45.29 0 45.29 1.53 43.51 3.76 45.3 3.76 45.3 5.7 40.61 5.7"/>
      <path class="cls-4" d="M44.73,5.14h-3.55v-.81l2.36-2.95h-2.3v-.81h3.49v.77l-2.39,3h2.4v.81Z"/>
    </g>
  </g>
  <path class="cls-13" d="M44.5,31.92c-.2,0-.41-.01-.63-.03-.15-.02-.49-.05-.56-.06-.17-.01-.3-.02-.39-.02-.15.02-.32.06-.57.07h-.16c-.49,0-1.48-.08-2.67-.66-.36-.18-.65-.36-.88-.54-.58.36-1.26.47-1.83.51-.4.03-.86.04-1.37.04-.82,0-1.94-.09-3.24-.2-1.57-.13-3.34-.28-4.87-.28-.45,0-.89.01-1.29.04-.46.04-.87.05-1.24.05-1.11,0-1.9-.14-2.46-.32-.2.06-.41.09-.63.09-.26,0-.5-.04-.74-.09-.31-.06-.69-.12-1.3-.14-.61-.02-1.76-.1-3.09-.19-2.34-.16-5.25-.35-6.61-.35-.12,0-.6.01-.75.01-1.88,0-4.11-.48-5.32-1.13-.72-.39-1.24-1.01-1.6-1.5l-.35.23c-1.28-1.46-1.95-3.61-1.95-4.97,0-1,.42-2.27,1.27-3.89.16-.28.36-.52.69-.85.16-.16.35-.34.54-.53.15-.14.34-.33.51-.5l-.35-.27c.39-.75,1.21-1.15,1.99-1.53.2-.1.4-.19.57-.29.34-.18,1.23-.97,1.74-1.47.02-.44.24-.87.64-1.17.29-.22.64-.35,1.05-.48.13-.3.42-.72,1.08-.89.04-.01.09-.02.13-.03l.11-.61h1.19s.19,0,.49.06c.06.01.15.03.24.04l-.03-.08c1.26-.51,2.9-.71,5.67-.94.27-.02.56-.03.89-.03,2.02,0,5.13.37,7.4.64,1.01.12,1.84.22,2.28.25,1.11.07,3.31.52,5.43.96.61.13,1.19.25,1.71.35l.46.09.5.09c.9.15,2.03.42,3.02.65.7.16,1.31.32,1.68.42.31-.08.62-.14.85-.19.43-.09.93-.13,1.53-.13.68,0,1.34.05,1.77.09l.19.02c.64.05,1.2.39,1.79.75.22.13.59.36.73.4l.7-.45c.59.38,1.05,1.12,1.31,1.62.7.19,1.14.83,1.39,1.2.3.42.39.91.43,1.29l.21-.11c.23.41.32.82.39,1.15.02.12.04.24.08.34l.04.07c.57.35,1.78,1.1,2.58,1.59.28.18.77.3,1.19.41.92.24,2.06.53,2.43,1.68.18.53.13,1.1-.14,1.58-.36.66-1.03.99-1.47,1.14l-.18.13h-.65c-.86,0-1.55.15-1.76.28-.5.32-.97.54-1.36.67-.62,1.62-1.63,3.1-2.68,3.9-1.05.78-2.12.89-2.76.96-.03,0-.07,0-.1,0-.49.44-1.43,1.02-2.94,1.02Z"/>
  <g>
    <path class="cls-2" d="M40.35,14.1c.14.08.28.17.41.26l-.61,1.66-.44,1.2-1.78,4.83s.01,1.13.06,2.46c.02.59.06,1.22.1,1.8.02.3.05.59.08.86-.15-.41-.37-.59-.37-.59-.24-.25-.5-.44-.78-.59-.29-.16-.6-.27-.94-.36-.04-.02-.09-.05-.16-.07-.05-.01-.09-.03-.14-.06-.19-.09-.36-.23-.45-.32-.08-.08-.1-.12-.02-.08.02.02.07.03.13.06.34.11,1.06.24.43-.01-.04-.01-.07-.03-.11-.05-.7-.35-1.34-1.31-1.67-1.83-.34-.54-.49-1.58-.44-2.32.05-.74.44-.59.59-1.68.06-.41.34-.98.74-1.57.07-.1.13-.19.21-.29l-.16-.39s-1.55,1.26-1.6,2.09c-.05.84-.89,2.03-.59,3.18.29,1.16,1.9,3,1.9,3l.41.12c-.13-.02-.27-.05-.41-.07-1.19-.2-2.47-.03-2.99-.36-.53-.33.43-.36.43-.36-1.05-.23-2.04-.03-2.8,0-.76.03-1.19-.33-.92-.52.26-.2,1.15-.03,0-.3-1.15-.26-1.28-1.19-1.65-2.47-.36-1.28-.59-2.83-2.21-4.6-1.61-1.78-6.97-2.47-6.97-2.47,0,0-2.69-.09-3.61.17-.92.26.24.72-.59,1.22-.7.42-2.7,1.74-3.41,3.15,0,0,.03-2.31.13-3,.1-.69,1.88-2.22,2.57-2.81.69-.59,1.88-.4,2.57-.74.69-.35,3.25-1.19,4.34-1.19s1.14.44.84.94c-.3.49-.49.79-1.33.94-.84.15-1.73.74-1.19.62.54-.12,1.33.03,2.76-.37,1.43-.4,1.09-1.48,2.27-1.68,1.19-.2,4.34,0,3.6.4-.74.4-2.32,1.03-1.58,1.38.74.35.35.89.69,1.48.35.59.64.94.64.29s-.35-1.18.3-1.92c.64-.74,1.53-1.09,2.61-.99,1.08.1,2.47.44,2.47.89s-1.04.2-1.63.84c-.59.64-1.09.99-1.06,1.9s.42,1.26,0,1.95c-.42.69.17,1.68.22.94.05-.73,1.03-1.24,1.05-1.8,0-.57-.7-.18.53-1.81,1.23-1.63,4.15-2.43,4.15-2.43.37.07.7.14.98.19.87.15,1.99.41,2.94.64,1.12.27,2.01.5,2.01.5-.18.05-.36.09-.56.15Z"/>
    <path class="cls-14" d="M34.98,12.64s-2.91.8-4.15,2.43c-1.23,1.63-.53,1.24-.53,1.81-.01.56-1,1.07-1.05,1.8-.05.73-.64-.25-.22-.94.42-.69.02-1.03,0-1.95s.47-1.26,1.06-1.9c.59-.64,1.63-.4,1.63-.84s-1.38-.79-2.47-.89c-1.09-.1-1.98.24-2.61.99-.64.74-.3,1.28-.3,1.92s-.3.3-.64-.29c-.34-.59.05-1.14-.69-1.48-.74-.35.84-.99,1.58-1.38.74-.4-2.42-.59-3.6-.4-1.19.2-.84,1.28-2.27,1.68-1.43.4-2.22.24-2.76.37-.54.13.35-.46,1.19-.62.84-.15,1.03-.44,1.33-.94.3-.49.24-.94-.84-.94s-3.65.84-4.34,1.19c-.69.35-1.88.15-2.57.74-.69.59-2.46,2.12-2.57,2.81-.1.69-.13,3-.13,3-.13.27-.22.53-.25.8-.16,1.63,1.83,3.53,1.94,3.63-.22.02-.44.03-.65.02-1.19-.03-1.84-.1-3.52-1.41-1.68-1.32-1.25-2.63-1.25-2.63,0,0,.23-.83-.05-1.49-.28-.65-1.01-.93-1.67-.76-.16-.29-.66.17-.66.17.23-.46,1.28-.86,2.01-1.25.72-.4,2.46-2.04,2.57-2.28.1-.24-.27-.29,0-.49.26-.2,1.35-.43,1.61-.66.26-.23-.4-.36,0-.46.4-.1,1.58-.07,1.61-.26.03-.2-.99-.43-.33-.3.66.13,1.94.16,1.94-.1s-.99,0-.99,0c1.12-.46,2.8-.66,5.33-.86,2.53-.2,8.82.76,10.36.86,1.32.08,4.79.86,6.95,1.29h0Z"/>
    <path class="cls-14" d="M42.29,14.25l-7.86,4.42s-.01-.49.03-1.14c.04-.58.13-1.29.32-1.88.4-1.23.69-1.78-.84-1.78s-3.01,1.11-3.1,1.18c.04-.08,1.42-2.75,4.14-2.43,2.77.33,7.3,1.62,7.3,1.62Z"/>
    <path class="cls-10" d="M22.24,28.98c-.56.49-.76.07-2.53,0-1.78-.07-8.36-.59-10.13-.53-1.78.07-3.98-.4-5-.95-1.02-.56-1.62-2.04-1.71-1.74-.09.28.14.74.16.79-.98-1.12-1.61-2.92-1.61-4.04s.86-2.73,1.12-3.23c.06-.12.23-.3.44-.51.65-.65,1.73-1.57,1.6-1.79.66-.16,1.39.11,1.67.76.28.66.05,1.49.05,1.49,0,0-.43,1.31,1.25,2.63,1.68,1.31,2.34,1.38,3.52,1.41.21,0,.43,0,.65-.02.77-.06,1.56-.21,2.17-.12.17.02.33.07.47.14,0,0-.17-.02-.34,0-.22.03-.44.13-.35.42.06.18.42.22.93.23h0c.98.02,2.53-.09,3.6.43,1.65.79,2.77,1.12,3.36,1.91.59.79.87,1.89.69,2.72Z"/>
    <path class="cls-7" d="M37.14,28.91c.03.41-.28.72-.45.86-.37.03-.79.04-1.25.04-2.04,0-6.58-.66-9.51-.43-2.93.23-3.68-.46-3.68-.46.08-.34.08-.71.01-1.1.05-.07.74-.97,1.48-1.21.76-.25.44-1.16,1.16-1.78.72-.62,1.83-.08,2.44.42.62.49.2-.3-.17-.55-.36-.24,1.36-.27,1.45-.27h0c.17.09.44.15.77.13.76-.03,1.74-.22,2.8,0,0,0-.95.03-.43.36.52.33,1.8.16,2.99.36,0,0,.02.82.72,1.26.69.44,1.63,1.78,1.68,2.35Z"/>
    <path class="cls-7" d="M38.32,28.05c-.37-.38-.8-.78-.87-.96-.1-.27-.71-.72-1.09-.94-.38-.22-.3-.21-.17-.21.11,0,.15-.19-.09-.32-.04-.02-.09-.05-.16-.07-.05-.01-.09-.03-.14-.06.76.17,1.44.43,2.01,1.02,0,0,.22.18.37.59h0c.03.34.08.63.13.87,0,.02,0,.04.01.06Z"/>
    <path class="cls-3" d="M28.61,24.5c-.09,0-1.81.03-1.45.27.37.25.79,1.04.17.55-.62-.5-1.73-1.04-2.44-.42-.71.62-.4,1.53-1.16,1.78-.73.23-1.42,1.13-1.48,1.21-.1-.57-.34-1.15-.7-1.63-.59-.79-1.71-1.12-3.36-1.91-1.64-.79-4.37-.13-4.54-.66-.16-.53.69-.43.69-.43-.65-.32-1.65-.09-2.64-.02-.1-.1-2.1-2-1.94-3.63.16-1.68,2.83-3.45,3.66-3.95.83-.49-.33-.95.59-1.22.92-.26,3.61-.17,3.61-.17,0,0-2.13.3-2.82,1.92-.69,1.62-.64,2.06-.64,2.63s.29-1.46,1.23-1.95c.94-.49.84-.16,1.68-.67.84-.51,1.78-.87,2.81-.54,1.04.33-.24,1.56-.79,2.25-.54.69-.79,1.19-.84,1.88-.05.69.4-1.53,1.78-1.98,1.38-.44,1.3-.2,2.25-.44.95-.25,1.1.29,1.59.69.49.4,1.82,2.13,2.37,2.72.53.55.75,1.29.77,1.36h0c.25.87.53,1.48,1.43,1.69,1.15.26.26.1,0,.3-.15.11-.08.28.15.39Z"/>
    <path class="cls-15" d="M11.72,23.24h0"/>
    <path class="cls-15" d="M38.18,27.17c.08.22.14.51.13.87"/>
    <path class="cls-15" d="M22.26,27.88h0"/>
    <path class="cls-3" d="M52.6,22.37l-.72,2.48c-.48,1.66-1.5,3.25-2.44,3.95-1.19.89-2.5.56-2.78.89-.28.33-1.07.95-2.65.79-.23-.02-.43-.04-.59-.05h0s-1.09-.08-1.14-1.03c0,0-.3.29-.91.1-.29-.09-.7-.23-1.12-.35-.47-.14-.95-.24-1.3-.22-.05-.09-.1-.17-.15-.27-.09-.17-.29-.38-.49-.6-.37-.38-.8-.78-.87-.96-.1-.27-.71-.72-1.09-.94-.38-.22-.3-.21-.17-.21.08,0,.12-.09.05-.2-.03-.04-.07-.09-.14-.13-.04-.02-.09-.05-.16-.07-.05-.01-.09-.03-.14-.06-.19-.09-.36-.23-.45-.32-.08-.08-.1-.12-.02-.08.02.02.07.03.13.06.34.11,1.06.24.43-.01-.04-.01-.07-.03-.11-.05-.7-.35-1.34-1.31-1.67-1.83-.34-.54-.49-1.58-.44-2.32.05-.74.44-.59.59-1.68.06-.41.34-.98.74-1.57.07-.1.13-.19.21-.29.26-.36.56-.72.87-1.05.45-.48.93-.89,1.34-1.14.09-.06.19-.11.29-.16.39-.2.86-.39,1.35-.56.43-.15.88-.29,1.31-.41.14.08.28.17.41.26.22.16.43.35.62.56,1.31,1.45,1.03,1.6.27,1.73-.28.04-.58.13-.88.22h0s1.1.03,1.71-.17c.62-.2.69-.32.62-1.03-.07-.72.72.43.84,1.25.12.82.24,2,0,2.92-.25.91.37.27.74-.59.37-.86.66-1.92.66-2.79s.27.13.74.46c.47.33.35,1.88.3,2.65-.05.77-.22,3.16-.79,3.7-.57.54.1-.91-.37-1.63-.47-.72-.89.54-.84.89.05.35.52-.54.62-.1.1.44-.02,1.38-.37,2.07-.34.69-.17.52.37.92.55.4.67.99,1.44,0s2.56-1.9,3.13-1.88c.57.03-.74-.42-1.36-.07-.62.35.72-1.06,1.26-2.1.54-1.03.52.3.42.84-.1.55-.02,1.25.3.86.32-.39,1.08-1.02,1.38-1.01.09,0,.96.21,1.03.31Z"/>
    <path class="cls-8" d="M52.15,22.91c-.03-.09-.31-.85-.59-.86-.3,0-1.06.62-1.38,1.01-.32.39-.4-.31-.3-.86.1-.54.12-1.87-.42-.84-.54,1.04-1.87,2.44-1.26,2.1.62-.35,1.93.1,1.36.07-.57-.02-2.37.89-3.13,1.88s-.89.4-1.44,0c-.54-.4-.71-.22-.37-.92.35-.69.47-1.63.37-2.07-.1-.44-.57.44-.62.1-.05-.35.37-1.6.84-.89.47.72-.2,2.17.37,1.63.57-.54.74-2.94.79-3.7.05-.77.17-2.32-.3-2.65-.47-.33-.74-1.32-.74-.46s-.3,1.92-.66,2.79c-.37.86-.99,1.51-.74.59.24-.92.12-2.1,0-2.92-.12-.82-.91-1.97-.84-1.25.07.71,0,.84-.62,1.03-.62.2-1.71.17-1.71.17h0c.3-.09.6-.18.88-.22.77-.12,1.04-.27-.27-1.73-.19-.21-.4-.4-.62-.56-.13-.09-.27-.18-.41-.26.19-.05.38-.1.56-.15.45-.12.85-.2,1.13-.26.99-.2,2.47-.05,3.11,0,.64.05,1.87,1.19,2.52,1.14.64-.05,0-.69,0-.69.49.3.99,1.38.99,1.38,0,0,.4.7.58.5.18-.2.46.13.77.58.31.44.08,1.4.41,1.38.26-.01.2-.21.17-.3.24.44.22,1.09.47,1.5.05.08.12.21.21.37.34.65.86,1.91.88,3.35Z"/>
    <path class="cls-3" d="M41.64,16.65c-.28.04-.58.13-.88.22-.41.13-.79.27-1.06.35-.07.02-.14.04-.19.05-.37.07-.36-1.5-.88-1.95-.21-.18-.56-.27-.94-.25-.57.03-1.21.31-1.5.92-.06.12-.1.25-.13.38-.17.84.19,1.89.31,2.21l.04.1s-.69.3-1.09,0c0,0-.31-.26-.34-.97,0-.19,0-.42.05-.68.2-1.23.23-2.39,1.6-3.08.65-.33,1.46-.45,2.26-.34.5.07,1,.24,1.46.5.14.08.28.17.41.26.22.16.43.35.62.56,1.31,1.45,1.03,1.6.27,1.73Z"/>
    <path class="cls-12" d="M39.52,17.27s-.37.2-.88.27c-.52.07-.57.27-.67-.05-.1-.32,0,0-.52.05-.52.05-.94-.54-.82-.27.13.27,1.04.71.77.94-.27.22-.99.47-.99.47l-.04-.1c-.14-.37-.6-1.73-.18-2.59.5-1.01,1.92-1.12,2.45-.66.53.45.51,2.02.88,1.95Z"/>
    <path class="cls-4" d="M42.48,25.41s-.05-.81-.64-1.21-1.58-1.28-1.58-1.28c0,0,.69.96,1.11,1.25s1.11,1.25,1.11,1.25Z"/>
    <path class="cls-4" d="M48.68,27.73s-1.65-.94-2.69-.72-.79.84-.57.86.1-.59.86-.59,2.39.44,2.39.44Z"/>
    <path class="cls-9" d="M42.04,27.6s.25.21.54.28.49.12.96.42.84.49.47.67-.96.39-1.31.42-.42-.1-.42-.44.05-.44-.25-.79-.29-.73,0-.55Z"/>
    <path class="cls-11" d="M43.42,30.42h0c-.93-.07-.79.04-1.13.05-.4.02-1.22-.07-2.15-.53-.75-.37-.98-.68-1.18-1.03.65-.04,1.8.37,2.42.57.62.2.91-.1.91-.1.05.95,1.14,1.03,1.14,1.03Z"/>
    <path class="cls-14" d="M56.32,23.65s-.02,0-.03,0c.1-.07,1.06-.66.34-.93-.77-.3-4.34-2.05-4.32-1.56.02.49-.15,1.75-.15,1.75,0,0,0,0,0,0h0c-.01-.78-.17-1.51-.37-2.12-.16-.51-.36-.94-.51-1.24,0,0,1.82,1.12,2.88,1.78,1.06.67,2.79.59,3.03,1.33.22.66-.67.93-.87.98Z"/>
    <path class="cls-6" d="M56.29,23.66s-1.84-.07-2.72.51c-.89.58-1.69.69-1.69.69h0c.13-.44.21-.88.26-1.31.02-.21.03-.43.02-.63,0,0,0,0,0,0,0,0,.17-1.26.15-1.75-.02-.49,3.55,1.26,4.32,1.56.72.28-.23.87-.34.93Z"/>
    <path class="cls-14" d="M27.03,22.12c-.02-.07-.24-.81-.77-1.36-.55-.58-1.87-2.32-2.37-2.72-.49-.4-.64-.94-1.59-.69-.95.24-.87,0-2.25.44-1.38.44-1.83,2.66-1.78,1.98.05-.69.3-1.19.84-1.88.55-.69,1.83-1.93.79-2.25-1.03-.33-1.98.03-2.81.54-.84.51-.74.18-1.68.67-.94.49-1.23,2.52-1.23,1.95s-.05-1.01.64-2.63c.69-1.61,2.82-1.92,2.82-1.92,0,0,5.36.69,6.97,2.47,1.62,1.78,1.84,3.32,2.21,4.6.08.28.15.54.22.78Z"/>
    <path class="cls-1" d="M36.68,29.78c.18-.15.49-.46.45-.86-.05-.56-.99-1.9-1.68-2.35-.69-.44-.72-1.26-.72-1.26.37.06.72.12,1.05.2.05.02.09.04.14.06.06.02.12.04.16.07.24.13.2.32.09.32-.13,0-.21-.02.17.21.38.22.99.66,1.09.94.07.17.5.57.87.96.23,1.27-.41,1.63-1.63,1.73Z"/>
    <path class="cls-5" d="M35.94,25.56c.06.02.12.04.16.07-.3-.08-.62-.14-.94-.2l-.41-.12s-1.6-1.85-1.9-3c-.3-1.15.54-2.35.59-3.18.03-.5.58-1.14,1.03-1.58-.05.65-.03,1.14-.03,1.14-.1.22-.16.43-.19.6-.15,1.08-.55.94-.59,1.68-.05.74.1,1.78.44,2.32.33.51.97,1.48,1.67,1.83.04.02.07.03.11.05.63.25-.09.13-.43.01-.06-.02-.1-.04-.13-.06-.07-.05-.05,0,.02.08.09.09.26.23.45.32.05.02.09.04.14.06Z"/>
  </g>
</svg>