<?xml version="1.0" encoding="UTF-8"?>
<svg id="Livello_1" data-name="Livello 1" xmlns="http://www.w3.org/2000/svg" version="1.1" viewBox="0 0 51.7 56.7">
  <defs>
    <style>
      .cls-1, .cls-2, .cls-3, .cls-4, .cls-5, .cls-6, .cls-7, .cls-8 {
        stroke-width: 0px;
      }

      .cls-1, .cls-6 {
        fill: #da6855;
      }

      .cls-2 {
        fill: #cea999;
      }

      .cls-3 {
        fill: #efd2c1;
      }

      .cls-4 {
        fill: #fbf2ea;
      }

      .cls-5 {
        fill: #b73023;
      }

      .cls-6 {
        opacity: .5;
      }

      .cls-7 {
        fill: #fff;
      }

      .cls-8 {
        fill: #e4c2af;
      }
    </style>
  </defs>
  <path class="cls-7" d="M18.8,56.7c-.9,0-1.9-.2-3.1-.5l-1.5-.5c-4.9-1.5-7-2.1-8.2-4-.8-1.2-2.2-1.5-2.2-1.6L0,49.3l3.6-1.6s2.8-1.2,4.4-3.2c.6-.7.9-1.3,1.3-1.8.7-1.1,1.4-2.2,3.7-3.9,2.1-1.6,2.7-8.1,2.9-11.6,0-.9.1-1.6.2-2.2.1-.9,0-2.1,0-3.2,0-2.6-.1-5.6,1.4-8,.7-1.1,1.3-2.2,1.9-3.1.4-.7.8-1.4,1.2-1.9.9-2,2-3.1,3.1-3.1s1.1.3,1.5.8c.2.3.3.6.4.9,0,0,0,0,0,0,1.1-1.2,2.6-2.7,4.5-4.6l2.5-2.4h.4s.1,0,.3,0c.8,0,1.5.2,1.9.7.3.3.4.7.5,1.1,0,0,0,0,0,.1.4-.3.8-.6,1.1-.8h0s.1-.1.1-.1c0,0,.3-.2.3-.2,0,0,.2-.1.3-.2.1,0,.5-.3.5-.3.6-.4,1.3-.6,1.9-.6,1.1,0,2,.6,2.4,1.7v.2c0,0,0,0,0,0,0,.1,0,.2,0,.4,0,.4,0,.8,0,1.1.4-.1.7-.2,1-.2,0,0,.1,0,.1,0,0,0,.2,0,.4,0,.8.2,1.4.7,1.8,1.4,0,.1.1.2.2.4v.2c0,0,0,.1,0,.1.1.4.1.8.1,1.3-.1,1.7-1.4,2.6-2.4,3.3-.6.4-1.2.8-1.4,1.3-.3.6-.8,1.3-1.4,2-1,1.4-2.3,3.2-2.4,4.4,0,2.5-.3,4.1-1.2,6.4-.3.8-.4,3.2-.4,6.5,1.7-2.2,3.8-4.9,4.8-5.8,1.6-1.3,3.2-1.9,4.9-1.9s1.8.2,2.7.6c2.2,1,2.1,2.7,2,3.3-.2.8-.7,1.7-1.7,2.7-.2.2-.4.4-.6.6-1.5,1.4-4.7,6-6.7,9.7-2.1,3.9-5.9,8.5-10.1,9.5-4.1,1-7.7,2.7-8.5,3.4,0,0-.3.4-.4.7-.6,1.1-1.7,3.3-4.8,3.3Z"/>
  <path class="cls-3" d="M4.1,48.9s3-1.3,4.9-3.6c1.9-2.3,1.6-3.1,4.7-5.5s3.3-11.4,3.7-14.6c.4-3.2-.7-7.6,1.2-10.7s3.3-5.6,4.4-6.9,2.3,1,1.7,2.5-2.8,4.7-2.8,4.7v2.5c0,0,1.8-5.8,4.1-8.5s7.2-7.2,7.2-7.2c0,0,1.6,0,1.5,1.6s-.7,2-.7,2c0,0,4-2.9,5.1-3.6s2.1-.5,2.4.9-1.9,2.4-3.2,4-4.5,4.9-5.2,5.5-.6,2.6-.6,2.6c0,0,4.3-6.1,6.8-7.6s4.6-2.6,4.6-2.6c0,0,1.5.2,1.3,2.1s-2.8,2.5-3.7,4.1-3.8,4.7-3.9,7-.2,3.8-1.1,5.9-.3,10.7-.3,10.7c0,0,5.1-7.2,6.8-8.5s3.8-2.3,6.2-1.2,1,3-.7,4.5-5,6.3-7,10c-2,3.7-5.5,7.9-9.3,8.9-3.7.9-7.9,2.6-9,3.7s-1.1,4.9-7,3.1c-5.9-1.8-7.9-2.3-9.1-4s-3-2.1-3-2.1Z"/>
  <path class="cls-6" d="M32.8,24.9s-.8,0-1,1.3-.8,2.8-.8,3.8-1.2,5.8-1.4,7.3,1.1,2.2,3,1.9,3.9-3.1,3.5-5.7c-.3-2.6-1.6-6.7-1.8-7.6s-.3-1.4-1.5-1.1Z"/>
  <path class="cls-1" d="M32.9,28s-.8.1-.7,1.6.2,2.2-.5,4.1c-.7,1.9-1,3.2-.4,3.7s1.9.1,3.2-1.2c1.3-1.3,1-2.8.4-4.7s-.7-4.4-2-3.5Z"/>
  <path class="cls-5" d="M33.6,29.2c0,.2.2,1.5.6,2.9s.8,2.6-.9,3.9-.8-1.9-.4-3.4,0-5.1.7-3.4Z"/>
  <path class="cls-2" d="M34,5.3s-5,5.2-5.4,6-1.4,2.5-2,4.8-1.4,5.9-2.3,6.3.8-1.9,1.2-3.7,1.8-6.3,2.5-7.5,6-5.9,6-5.9Z"/>
  <path class="cls-2" d="M32.4,14.8s-1.1,3.8-1.6,5.4-.8,4.2-2.5,5.4-.2-.6.5-1.6,1.2-2.5,1.6-4.1,2.1-5.1,2.1-5.1Z"/>
  <path class="cls-4" d="M45.4,27.6s-.7.7-.5,1.1,1.6,1.4,2.3,1.3,1-.7,1.8-1.3,1.8-1.5,1.6-1.9-1.9-1.1-2.6-1.5-2.2,1.6-2.6,2.2Z"/>
  <path class="cls-4" d="M40.6,6.3s.2.7,1.4.7,3.1-1.2,3.1-1.2c0,0-.3-1.1-1.2-1.2s-3.2,1.7-3.2,1.7Z"/>
  <path class="cls-4" d="M37.8,2.5s-.5.6,0,1.1,1.2.6,2,0,1.4-.9,1.4-1.4-.9-1.7-1.8-.9-1.6,1.2-1.6,1.2Z"/>
  <path class="cls-4" d="M31,3.7s-.3.2.3.8,1.9-.3,2.6-.8.5-.4.6-1.3-1.3-.8-1.3-.8l-2.1,2Z"/>
  <path class="cls-4" d="M21.8,9.4s-.1.4.4.6,1.4-1,1.9-1.4.4-.9,0-1.4-1.4,0-2.4,2.2Z"/>
  <path class="cls-8" d="M20.5,24.8s-.9,2.2-.8,3.5,1,2.1.4,2.6-1-1-1.3-1.8,1.8-4.3,1.8-4.3Z"/>
  <path class="cls-8" d="M23.9,26.4s-.9,1.9-.8,3.7.5,1.8.8,1.7-.2-2.2,0-3.4.7-2.7,0-2Z"/>
  <path class="cls-8" d="M28.6,28.3s-.5,1.4-.6,2.7-.1,1.7.6,2.1.2-1.8.3-2.8.2-2.7-.3-2Z"/>
</svg>