<?xml version="1.0" encoding="UTF-8"?>
<svg id="Livello_1" data-name="Livello 1" xmlns="http://www.w3.org/2000/svg" version="1.1" viewBox="0 0 76.5 76.5">
  <defs>
    <style>
      .cls-1 {
        fill: #85a4c2;
      }

      .cls-1, .cls-2, .cls-3 {
        stroke-width: 0px;
      }

      .cls-2 {
        fill: #4c6376;
      }

      .cls-3 {
        fill: #bdd4e0;
      }
    </style>
  </defs>
  <rect class="cls-3" x="36.1" y=".9" width="4.5" height="74.9" rx="1.2" ry="1.2"/>
  <path class="cls-3" d="M56.5,26.9c0,11.1-8.9,20-20,20s-20-8.9-20-20S25.4,6.9,36.5,6.9s20,9.1,20,20Z"/>
  <path class="cls-2" d="M50.9,13.1s-.5.4-.7.6c-.5.6-.5,1.2-.6,1.6s-.9,1.5-1.5,1.8c-.6.4-.8.6-.8.6l-.6.6s-.3.4-.5.2c-.3-.3.2-1.1.5-1.3.4-.3,1-1.3,1-1.3,0,0-1.7.2-1.8.2s-.7.2-1.1.4-.8.6-1,.9c-.2.1-.3.6-.7.7h-.1s-.1,0-.1,0,0,0,0,0v-.3s.2-.4.3-.6c.2-.5,1.8-1.8,1.8-1.8,0,0-.9.4-1,.5s-.7.7-.9,1-.3.7-.7.7h0c-.2,0-.1-.3,0-.5s0,0,0,0c0-.3,1.1-1.6,1.1-1.6,0,0-.7.7-.8.8s-.2.2-.3.2-.2,0-.1-.2.4-.6.4-.6c.2-.3.4-.5.7-.8s1.3-.8,1.4-.9-.5,0-.5,0c0,0-.6.5-.8.6s-.4,0-.4,0c0,0-.1-.1,0-.2,0,0,.1-.1.2-.3.3-.2.4-.4.9-.7s1.3-.2,1.8-.3c.4,0,1.8-.4,1.8-.4.2,0,.6-.3.7-.4.2-.4.3-.7.6-1,.7.6,1.5,1.2,2,1.9l.3.2Z"/>
  <g>
    <path class="cls-2" d="M50.7,27.1c0,.2,0,.4,0,.5-.1-.2-.3-.4-.5-.5,0,.3.1.6.2.9-.3,0-.6-.2-.8-.3,0,.3.2.5.3.7-.2,0-.4,0-.6,0-.3,0-1,.3-1.1.6,0,0,0,.2,0,.3,0,.4,0,.8-.3,1.1v-.4c-.2.4-.3.9-.5,1.3,0-.2,0-.4,0-.7-.2.5-.4,1-.7,1.5,0-.2,0-.4.1-.6-.4.4-.7.9-1.1,1.3,0-.2,0-.4.1-.6l-.9.9c0-.3.2-.5.3-.8-.2.4-.4.7-.8,1,0-.1.1-.3.1-.5-.3.2-.6.2-.9.2-.3,0-.6,0-.9,0,.5,0,.9.2,1.4.3,0,0,0,0,0,0,0,0,0,0,0,0,.2.4.5.7.7,1,.2.4.5.8.7,1.3.6.9.7,2,1.8,2.5.4,0,.8.8.3,1-.3.1-.9.2-1.2,0-.1-.1-.2-.3-.4-.4-.2,0-.4,0-.5-.2-.4-.3-.6-1-.9-1.3-.3-.5-.7-1.1-1.1-1.6-.3-.4-.7-.8-1.1-1.1-.4-.3-.4-.7-.4-1.2-.4.8-.4,1.7-.2,2.6.2.9.5,1.7.5,2.6,0,.2,0,.4.1.6.1.2.1,0,.3,0,.3,0,.5,0,.7.2.4.3.4.8-.2.8-.8.2-2,.2-2.1-.9,0,0,0,0,0,0-.3-.8-.3-1.7-.5-2.5,0-.5-.3-1-.5-1.5,0-.3-.1-.5-.2-.8,0-.2,0-.4-.1-.6,0,0,0-.1-.1-.2-.3-.5-.6-1.1-.7-1.6,0,.3,0,.5,0,.8-.2,0-1.4-.3-1.4-.2.1-.4.1-.8,0-1.2-.2.5-.2,1.1-.6,1.5-.1.2-.3.3-.5.4-.9.5-1.8,1.1-2.7,1.6,0,0-.1,0-.2.2,0,0,0,.1,0,.2,0,.7.2,1.2.5,1.8.2.4.3.8.6,1.1.2.2.4.2.6.2.3,0,.6.2.8.5.3.3-.2.6-.4.7-.4,0-.8,0-1.2,0-.5,0-.7-.1-.9-.6-.2-.6-.5-1.4-.9-1.9-.2-.3-.5-.5-.6-.9,0,0-.5-.9-.6-.8.2-.4.4-.8.5-1.3-.3.5-.6,1-.9,1.5-.5.6-.3,1.5,0,2.2,0,.2.1.4.2.5,0,0,0,0,.1.1,0,0,.1,0,.2,0,.3,0,.5,0,.8.1,0,0,.1,0,.1,0,0,0,0,0,0,.1,0,.2.2.4,0,.6-.1.1-.4.1-.5.1-.4,0-.7,0-1.1,0-.5,0-.7-.7-.7-1.1,0-.6-.3-1.2-.6-1.8-.2-.3-.2-.6-.4-.9-.3-.4,0-.8.3-1.2.2-.6.6-1.1.6-1.7,0,0,0,0,0-.1,0,0,0-.2,0-.3,0,0,0-.1-.1-.2-.3-.6-.6-1.2-.8-1.9-.3.6-.3,1.4-.3,2.1,0,.3-.2.6-.1.9,0,.4.1.9.2,1.3-.1-.1-.2-.2-.3-.3,0,.4.2.9.4,1.3-.2-.1-.4-.4-.5-.6,0,.4.1.9.2,1.3,0-.1-.2-.2-.3-.3,0,.4,0,.8,0,1.1,0-.2-.1-.3-.2-.4,0,.4,0,.8,0,1.1,0-.1-.2-.2-.3-.4,0,.4,0,.7.1,1.1,0,0-.1-.2-.2-.3,0,.5,0,.9-.2,1.4,0-.2-.1-.4-.2-.7-.1.6-.3,1.1-.6,1.6,0-.3,0-.7-.1-1-.1.3-.3.7-.4,1,0,0,0,.1-.1.2,0,0-.1,0-.1-.2,0,0,0-.2,0-.2-.2.3-.5.6-.7.9,0-.2,0-.5,0-.7-.2.2-.4.4-.7.5,0-.2,0-.3.2-.4-.5,0-.9,0-1.4,0,.3-.2.5-.4.8-.6-.3,0-.6,0-.9,0,.1-.1.2-.3.2-.5-.2,0-.3,0-.5,0,0-.1.2-.2.2-.3-.2,0-.5,0-.7,0,.2-.2.3-.4.4-.6-.1,0-.3.1-.4.2.1-.6.3-1.3.7-1.8.3-.4.8-.7,1-1.1-.2.2-.5.3-.7.5.2-.4.5-.9.7-1.3-.2.2-.4.4-.6.5.2-.3.3-.7.5-1-.2.2-.4.4-.7.6.2-.4.4-.8.6-1.2.2-.3.2-.7.3-1,.1-.4.2-.7.4-1.1.1-.3.3-.8.5-1-.2.2-.5.4-.7.6,0-.8.6-1.6,1.3-2.1-.3,0-.5.2-.8.3.3-.3.6-.6.9-.8-.2,0-.4.1-.6.2.4-.3.7-.7,1.1-1,.4-.3.8-.7,1.2-1,.6-.4,1.2-.7,1.8-1,.5-.2,1-.3,1.5-.4.9-.2,1.9-.4,2.8-.5.5,0,.9-.1,1.4-.2.4,0,.7,0,1.1,0,1.5.1,3,.4,4.5.3.5,0,1-.1,1.6-.2.4,0,.6,0,1,.1,0,.2-.2.5-.3.7,0,.3,0,.5.1.8,0-.3,0-.6.1-.9,0-.2.2-.3.3-.4,0-.2-.2-.7-.2-.8,0-.7.2-.9.2-1.6,0-.6-.3-.6,0-2.1s0-.4.1-.4c.3-.1.7.3,1,.5.2.1.3.3.5.5.1.2.3.4.4.5,0,0,0,0,.1.1,0,0,0,0,.1,0,.4,0,1.8.2,2.1,0,.2-.1.3-.3.5-.5.4-.4.8-.6,1.3-.7,0,0,.2,0,.2,0,0,0,0,.1,0,.2,0,.9-.4,1.9-.3,2.8,0,.6.2,1.1.3,1.6,0,.6.2,1.1.2,1.7,0,0-.2-.2-.3-.2,0,.1,0,.2.1.4Z"/>
    <polygon class="cls-1" points="23.3 11.9 20.3 15.8 51.7 40.2 54.7 36.3 23.3 11.9 23.3 11.9"/>
    <path class="cls-1" d="M37.3,7.9c9.6,0,17.7,7.2,18.9,16.7,1.3,10.4-6.1,20-16.5,21.3-.8.1-1.6.2-2.4.2-9.6,0-17.7-7.2-18.9-16.7-1.3-10.4,6.1-20,16.5-21.3.8-.1,1.6-.2,2.4-.2M37.3,3.3c-1,0-2,0-3,.2-13,1.6-22.2,13.5-20.5,26.4,1.5,12,11.7,20.7,23.4,20.7s2,0,3-.2c13-1.6,22.2-13.5,20.5-26.4-1.5-12-11.7-20.7-23.4-20.7h0Z"/>
  </g>
</svg>