<?xml version="1.0" encoding="UTF-8"?>
<svg id="Livello_1" data-name="Livello 1" xmlns="http://www.w3.org/2000/svg" version="1.1" viewBox="0 0 283.5 240">
  <defs>
    <style>
      .cls-1 {
        fill: #d9d8d9;
      }

      .cls-1, .cls-2, .cls-3, .cls-4, .cls-5, .cls-6, .cls-7, .cls-8, .cls-9, .cls-10, .cls-11, .cls-12 {
        stroke-width: 0px;
      }

      .cls-2 {
        fill: none;
      }

      .cls-3 {
        fill: #3b8fcc;
      }

      .cls-4 {
        fill: #5d6f80;
      }

      .cls-5 {
        fill: #6083a7;
      }

      .cls-6 {
        fill: #4a7a8d;
      }

      .cls-7 {
        fill: #dfdede;
      }

      .cls-8 {
        fill: #91b5d6;
      }

      .cls-9 {
        fill: #eeeeed;
      }

      .cls-10 {
        fill: #bccad3;
      }

      .cls-11 {
        fill: #d5e0e9;
      }

      .cls-12 {
        fill: #fff;
      }
    </style>
  </defs>
  <path class="cls-2" d="M134.1,67.2s-9.1-35.8-8.4-41.3c.7-5.6,4.9-19.6,8.4-14.7,3.5,4.9,6.3,26.6,12.6,16.9,6.3-9.8,7-27.3,9.1-17.8,2.1,9.5,2.8,20.7,5.7,16.5,2.8-4.2,6.3-5.7,8.4-2.1,2.1,3.5,7,13.7,0,19.2-7,5.4-10.5,1.2-14,8.9-3.5,7.7-4.9,13.4-11.2,18.2-6.3,4.9-10.5-3.5-10.5-3.5h0Z"/>
  <path class="cls-11" d="M3.5,164.4s-2.8-16.9,6.3-22.4c9.1-5.7,0-21.7,7-25.3,7-3.5,9.1-2.8,12.6-17.5,3.5-14.7,4.9-16.9,10.5-18.2,5.7-1.4,16.1-18.9,25.9-18.2,9.8.7,17.5,2.8,21.7,4.9,4.2,2.1,26.6,13.4,33,14.7,6.3,1.4,13.4,4.9,14.7,12.6,1.4,7.7.7,14.7,4.9,18.5,4.2,3.8,9.8,13.6,10.5,22.8.7,9.2,7,25.3,0,28.1-7,2.8-9.1,2.8-11.9,7.7-2.8,4.9-1.4,4.9-13.4,8.4-11.9,3.5-14.7,8.4-21.1,14-6.3,5.7-5.7,3.5-12.6,7.7-6.9,4.2-14,11.9-28.1,13.4-14,1.4-20.3,0-23.8-6.3-3.5-6.3-2.1-9.1-11.9-15.4-9.8-6.3-15.4-4.2-14.7-13.4.7-9.1-9.8-16.1-9.8-16.1h0Z"/>
  <path class="cls-10" d="M31.9,132.2c8.6,6.2,14.5,3.5,19.7,11,5.2,7.5,8.8,10.6,10.1,17.7,1.4,7.1,6.6,13.7,8.1,16.4,1.5,2.6.7,14.4-2.4,20-3.1,5.6-6.7,9.7-14,4.8-7.3-4.8-12.4-14.5-18.4-17.5-6-2.9-9.1,3.6-10.8-3.6-1.8-7.2-4-5.6-5.6-16.9-1.7-11.3-2.6-17.2,0-21.4,2.6-4.2,13.5-10.8,13.5-10.8v.2Z"/>
  <g>
    <path class="cls-10" d="M38.6,107.8c0,5.6-1.6,4.7-5.6,7.5-4,2.8-1.1,7,2.1,6.4,3.2-.6,6.4-6.1,6.4-7.4,0-3.1-1.9.2,0-6.7,2.9-10.2,6.9-9.4,9.4-14.4,3.8-8-12.4,9.2-12.4,14.7h0Z"/>
    <path class="cls-10" d="M62.3,119.6s2.1,6,8.7,5.6c6.5-.5,9,.8,10.8-1.3,1.9-2,8.4-11.4,9.7-9.3,1.3,2.1-1.3,8.2-5.6,8.7-4.2.5-5.8,5.3-8.9,5.7-3.2.4-5.6,0-9,0-3.4,0-4.5-1.8-5.8-3.3-1.3-1.6,0-6,0-6h0Z"/>
    <path class="cls-10" d="M70.7,109.3s1.9.8,2.9,2.3,4.5,2.2,6,2.8c1.6.6,2.3-.3,4.8-2.6,2.4-2.3,3.1-4.4,5-5.6s3.8-.4,2.4-2.8c-1.4-2.4-4.8-1.3-7.7-3.4-2.9-2.1,3.1-3.9,5.8-1.9,2.6,2.1,9.5.8,6.5,4.5-2.9,3.7-8.4,11.4-9.7,11.5-1.4,0-5.8,4.9-9.9,3.2-4.2-1.6-9-6.5-6-8.2h0Z"/>
    <path class="cls-10" d="M63.1,81s3.4-3.1,4.2-1.3c.8,1.9-5.8,6.3-4.2,1.3Z"/>
    <path class="cls-10" d="M73.3,75.7s5.3-3.1,6.3,0c1.1,3.1-2.9,2.8-4.5,3.4-1.6.6-1.9-3.4-1.9-3.4Z"/>
    <path class="cls-11" d="M36.8,168.5s.5,7.6,5,12.1c4.5,4.5,5.9,8.2,9.8,9,3.9.8,11.8-2.9,11.3,0-.6,2.9-2.6,4.5-6.3,4.5s-11.7-3.4-14.7-6.8c-3.1-3.4-10.2-14.2-5-18.7h0Z"/>
    <path class="cls-10" d="M79.9,171.6s2.8,9.7,0,9.6c-2.8,0-4.4,2.8-4.7,3.6s-.5,10.4,1.6,7.8c2-2.6,1.2-7.2,3-7.8,1.9-.6,2,1.3,3.7-1.4,1.7-2.6,2-11-3.7-11.8h0Z"/>
    <path class="cls-11" d="M45.9,197.4s7.1.3,11.6,0,8.8-3.4,9.7-5.8c1-2.3,3.6-9.4,4.2-6.8s-4.5,13.1-8.7,14.4c-4.2,1.3-19.2.8-16.9-1.9h0Z"/>
  </g>
  <path class="cls-10" d="M91.9,186.5c10.1-17.4-3.4-28.7,0-34.4,3.4-5.8,9.3-14.9,16.1-17.1,6.7-2.1,14.4-12.9,17.7-16,3.3-3.1,7-17.2,14.5-5.6,7.5,11.6,22.4,43.1,10.5,50.8-11.9,7.7,1.4-.7-11.9,7.7-13.4,8.4-24.2,4.7-29.2,13.6-5.1,8.9-17.7,16.6-17.7,16.6v-15.7h0Z"/>
  <g>
    <rect class="cls-8" x="115.5" y="8.9" width="113.8" height="174.5" rx="16.4" ry="16.4" transform="translate(-17.2 41.2) rotate(-13)"/>
    <path class="cls-4" d="M192.4,166.2c.4,1.9-.7,3.8-2.7,4.2h0c-1.9.4-3.8-.7-4.2-2.7L152.6,25.8c-.4-1.9.7-3.8,2.7-4.2h0c1.9-.4,3.8.7,4.2,2.7l32.9,141.9Z"/>
    <g>
      <g>
        <g>
          <path class="cls-7" d="M147.9,41.1c1.8,8.3-3.4,16.4-11.7,18.1-8.3,1.8-16.4-3.4-18.1-11.6-1.8-8.3,3.4-16.4,11.6-18.1,8.3-1.8,16.4,3.4,18.1,11.6h0,0Z"/>
          <path class="cls-12" d="M146.5,40.6c1.8,8.3-3.4,16.4-11.7,18.1-8.3,1.8-16.4-3.4-18.1-11.6-1.8-8.3,3.4-16.4,11.6-18.1,8.3-1.8,16.4,3.4,18.1,11.7h0,0Z"/>
          <path class="cls-7" d="M135.5,52.2c.2,1.1-.5,2.1-1.6,2.5h0c-1.1.2-2.1-.5-2.5-1.6l-3.9-17.5c-.2-1.1.5-2.1,1.6-2.5h0c1.1-.2,2.1.5,2.5,1.6l3.9,17.5Z"/>
        </g>
        <g>
          <path class="cls-7" d="M201.2,28.7c1.8,8.3-3.4,16.4-11.6,18.1-8.3,1.8-16.4-3.4-18.1-11.6-1.8-8.3,3.4-16.4,11.6-18.1,8.3-1.8,16.4,3.4,18.1,11.6Z"/>
          <path class="cls-12" d="M199.7,28.3c1.8,8.3-3.4,16.4-11.7,18.1-8.3,1.8-16.4-3.4-18.1-11.6-1.8-8.3,3.4-16.4,11.7-18.1,8.3-1.8,16.4,3.4,18.1,11.7h0Z"/>
          <path class="cls-7" d="M188.9,39.9c.2,1.1-.5,2.1-1.6,2.5h0c-1.1.2-2.1-.5-2.5-1.6l-3.9-17.5c-.2-1.1.5-2.1,1.6-2.5h0c1.1-.2,2.1.5,2.5,1.6l3.9,17.5Z"/>
        </g>
      </g>
      <g>
        <g>
          <path class="cls-7" d="M156.9,79.7c1.8,8.3-3.4,16.4-11.7,18.1-8.3,1.8-16.4-3.4-18.1-11.6-1.8-8.3,3.4-16.4,11.7-18.1,8.3-1.8,16.4,3.4,18.1,11.7h0Z"/>
          <path class="cls-12" d="M155.5,79.4c1.8,8.3-3.4,16.4-11.7,18.1-8.3,1.8-16.4-3.4-18.1-11.7-1.8-8.3,3.4-16.4,11.7-18.1,8.3-1.8,16.4,3.4,18.1,11.6h0Z"/>
          <path class="cls-7" d="M144.5,91c.2,1.1-.5,2.1-1.6,2.5h0c-1.1.2-2.1-.5-2.5-1.6l-3.9-17.5c-.2-1.1.5-2.1,1.6-2.5h0c1.1-.2,2.1.5,2.5,1.6l3.9,17.5Z"/>
        </g>
        <g>
          <path class="cls-7" d="M210.2,67.4c1.8,8.3-3.4,16.4-11.7,18.1-8.3,1.8-16.4-3.4-18.1-11.6-1.8-8.3,3.4-16.4,11.6-18.1,8.3-1.8,16.4,3.4,18.1,11.7h0Z"/>
          <path class="cls-12" d="M208.7,67c1.8,8.3-3.4,16.4-11.7,18.1-8.3,1.8-16.4-3.4-18.1-11.7-1.8-8.3,3.4-16.4,11.7-18.1,8.3-1.8,16.4,3.4,18.1,11.6h0Z"/>
          <path class="cls-7" d="M197.8,78.6c.2,1.1-.5,2.1-1.6,2.5h0c-1.1.2-2.1-.5-2.5-1.6l-3.9-17.5c-.2-1.1.5-2.1,1.6-2.5h0c1.1-.2,2.1.5,2.5,1.6l3.9,17.5Z"/>
        </g>
      </g>
      <g>
        <g>
          <path class="cls-7" d="M165.9,118.5c1.8,8.3-3.4,16.4-11.7,18.1-8.3,1.8-16.4-3.4-18.1-11.7-1.8-8.3,3.4-16.4,11.7-18.1,8.3-1.8,16.4,3.4,18.1,11.6h0Z"/>
          <path class="cls-12" d="M164.5,118c1.8,8.3-3.4,16.4-11.6,18.1-8.3,1.8-16.4-3.4-18.1-11.6-1.8-8.3,3.4-16.4,11.6-18.1,8.3-1.8,16.4,3.4,18.1,11.6Z"/>
          <path class="cls-7" d="M153.5,129.7c.2,1.1-.5,2.1-1.6,2.5h0c-1.1.2-2.1-.5-2.5-1.6l-3.9-17.5c-.2-1.1.5-2.1,1.6-2.5h0c1.1-.2,2.1.5,2.5,1.6l3.9,17.5Z"/>
        </g>
        <g>
          <path class="cls-7" d="M219.2,106.2c1.8,8.3-3.4,16.4-11.6,18.1-8.3,1.8-16.4-3.4-18.1-11.7-1.8-8.3,3.4-16.4,11.6-18.1,8.3-1.8,16.4,3.4,18.1,11.6h0Z"/>
          <path class="cls-12" d="M217.6,105.8c1.8,8.3-3.4,16.4-11.7,18.1-8.3,1.8-16.4-3.4-18.1-11.6-1.8-8.3,3.4-16.4,11.7-18.1,8.3-1.8,16.4,3.4,18.1,11.6Z"/>
          <path class="cls-7" d="M206.8,117.3c.2,1.1-.5,2.1-1.6,2.5h0c-1.1.2-2.1-.5-2.5-1.6l-3.9-17.5c-.2-1.1.5-2.1,1.6-2.5h0c1.1-.2,2.1.5,2.5,1.6l3.9,17.5Z"/>
        </g>
      </g>
      <g>
        <g>
          <path class="cls-7" d="M174.8,157.2c1.8,8.3-3.4,16.4-11.7,18.1s-16.4-3.4-18.1-11.6c-1.8-8.3,3.4-16.4,11.7-18.1,8.3-1.8,16.4,3.4,18.1,11.6Z"/>
          <path class="cls-12" d="M173.5,156.8c1.8,8.3-3.4,16.4-11.6,18.1-8.3,1.8-16.4-3.4-18.1-11.6-1.8-8.3,3.4-16.4,11.6-18.1,8.3-1.8,16.4,3.4,18.1,11.6Z"/>
          <path class="cls-7" d="M162.4,168.5c.2,1.1-.5,2.1-1.6,2.5h0c-1.1.2-2.1-.5-2.5-1.6l-3.9-17.5c-.2-1.1.5-2.1,1.6-2.5h0c1.1-.2,2.1.5,2.5,1.6l3.9,17.5Z"/>
        </g>
        <g>
          <path class="cls-7" d="M228.1,144.8c1.8,8.3-3.4,16.4-11.6,18.1-8.3,1.8-16.4-3.4-18.1-11.6-1.8-8.3,3.4-16.4,11.6-18.1,8.3-1.8,16.4,3.4,18.1,11.6Z"/>
          <path class="cls-12" d="M226.6,144.4c1.8,8.3-3.4,16.4-11.7,18.1-8.3,1.8-16.4-3.4-18.1-11.6-1.8-8.3,3.4-16.4,11.7-18.1,8.3-1.8,16.4,3.4,18.1,11.6Z"/>
          <path class="cls-7" d="M215.8,156.1c.2,1.1-.5,2.1-1.6,2.5h0c-1.1.2-2.1-.5-2.5-1.6l-3.9-17.5c-.2-1.1.5-2.1,1.6-2.5h0c1.1-.2,2.1.5,2.5,1.6l3.9,17.5Z"/>
        </g>
      </g>
    </g>
  </g>
  <g>
    <path class="cls-11" d="M127.4,189l44.4-132.6c2.8-8.4,12-13,20.5-10.1l75.8,25.3c8.4,2.8,13,12,10.1,20.5l-44.4,132.6c-2.8,8.4-12,13-20.5,10.1l-75.8-25.3c-8.4-2.8-13-12-10.1-20.5h0Z"/>
    <path class="cls-4" d="M178.9,211.6c-1.8-.6-2.8-2.6-2.1-4.4l45.4-136.2c.6-1.8,2.6-2.8,4.4-2.1h0c1.8.6,2.8,2.6,2.1,4.4l-45.4,136.2c-.6,1.8-2.6,2.8-4.4,2.1h0Z"/>
    <g>
      <g>
        <g>
          <path class="cls-3" d="M228.3,133.7h0c1.3,1.4,2.9,2.5,4.9,3.2h0c5.8,1.9,12.2-1.1,14.1-7.1l5.1-15.1,5.1-15.1c1.9-5.8-1.2-12.3-7.1-14.2h0c-1.9-.6-3.9-.7-5.8-.3h0c-3.8.8-7.2,3.5-8.5,7.5l-5.1,15.1-5.1,15.1c-1.3,4-.3,8.2,2.3,11h0Z"/>
          <g>
            <path class="cls-4" d="M228.3,133.7c-.3-2-.2-4.3.5-6.3l6.1-18.6-3.9-1.3-5.1,15.2c-1.3,4-.3,8.1,2.3,11h0Z"/>
            <path class="cls-5" d="M233.2,136.9c5.8,1.9,12.2-1.1,14.1-7.1l5.1-15.2-17.5-5.8-6.1,18.6c-.7,2-.8,4.3-.5,6.3,1.3,1.4,3,2.5,4.9,3.2h0Z"/>
            <path class="cls-1" d="M241.2,90.4c.7-2,1.9-4,3.4-5.5-3.8.8-7.1,3.5-8.5,7.5l-5,15,3.9,1.3,6.1-18.3h0Z"/>
            <path class="cls-9" d="M235.2,108.7l17.5,5.8,5-15c1.9-5.8-1.2-12.3-7.1-14.2h0c-1.9-.6-4-.7-5.8-.4-1.5,1.5-2.7,3.3-3.5,5.5l-6.1,18.3h0Z"/>
          </g>
          <g>
            <path class="cls-8" d="M244.4,125.6l-.6,1.8h0s-.4,1.3-1.4,2.7c-1.3,1.8-2.9,2.9-4.8,3.3,0,0-.3,0-.4.2-.3.2-.4.6-.4.9s.3.6.6.7h.5c2.4-.5,4.4-1.9,5.9-4.1,1.1-1.6,1.5-3,1.6-3.2l.6-1.8,4.2-12.5-1.6-.5-4.2,12.5h0Z"/>
            <path class="cls-12" d="M251.9,90.5c1.3,1.4,1.9,3.3,1.9,5.5,0,1.7-.5,3-.5,3h0l-.6,1.8-4.2,12.6,1.6.5,4.2-12.6.6-1.8c0-.2.6-1.6.7-3.5,0-2.7-.7-5.1-2.3-6.7,0,0-.2-.2-.4-.2s0,0,0,0h0c-.3,0-.6,0-.8.2-.3.3-.4.6-.2,1,0,0,0,.2.2.3h-.2,0Z"/>
          </g>
        </g>
        <g>
          <path class="cls-3" d="M175.4,116.1h0c1.3,1.4,2.9,2.5,4.9,3.2h0c5.8,1.9,12.2-1.1,14.1-7.1l5.1-15.1,5.1-15.1c1.9-5.8-1.2-12.3-7.1-14.2h0c-1.9-.6-3.9-.7-5.8-.3h0c-3.8.8-7.2,3.5-8.5,7.5l-5.1,15.1-5.1,15.1c-1.3,4-.3,8.2,2.3,11h0Z"/>
          <g>
            <path class="cls-4" d="M175.4,116.1c-.3-2-.2-4.3.5-6.3l6.1-18.6-3.9-1.3-5.1,15.2c-1.3,4-.3,8.1,2.3,11h0Z"/>
            <path class="cls-5" d="M180.3,119.2c5.8,1.9,12.2-1.1,14.1-7.1l5.1-15.2-17.5-5.8-6.1,18.6c-.7,2-.8,4.3-.5,6.3,1.3,1.4,3,2.5,4.9,3.2h0Z"/>
            <path class="cls-1" d="M188.3,72.7c.7-2,1.9-4,3.4-5.5-3.8.8-7.1,3.5-8.5,7.5l-5,15,3.9,1.3,6.1-18.3h0Z"/>
            <path class="cls-9" d="M182.1,91.1l17.5,5.8,5-15c1.9-5.8-1.2-12.3-7.1-14.2h0c-1.9-.6-4-.7-5.8-.4-1.5,1.5-2.7,3.3-3.5,5.5l-6.1,18.3h0Z"/>
          </g>
          <g>
            <path class="cls-8" d="M191.4,108l-.6,1.8h0s-.4,1.3-1.4,2.7c-1.3,1.8-2.9,2.9-4.8,3.3,0,0-.3,0-.4.2-.3.2-.4.6-.4.9s.3.6.6.7h.5c2.4-.5,4.4-1.9,5.9-4.1,1.1-1.6,1.5-3,1.6-3.2l.6-1.8,4.2-12.5-1.6-.5-4.2,12.5h0Z"/>
            <path class="cls-12" d="M198.9,72.8c1.3,1.4,1.9,3.3,1.9,5.5,0,1.7-.5,3-.5,3h0l-.6,1.8-4.2,12.6,1.6.5,4.2-12.6.6-1.8c0-.2.6-1.6.7-3.5,0-2.7-.7-5.1-2.3-6.7,0,0-.2-.2-.4-.2s0,0,0,0h0c-.3,0-.6,0-.8.2-.3.3-.4.6-.2,1,0,0,0,.2.2.3h-.2,0Z"/>
          </g>
        </g>
      </g>
      <g>
        <g>
          <path class="cls-3" d="M203,209.8h0c1.3,1.4,2.9,2.5,4.9,3.2h0c5.8,1.9,12.2-1.1,14.1-7.1l5.1-15.1,5.1-15.1c1.9-5.8-1.2-12.3-7.1-14.2h0c-1.9-.6-3.9-.7-5.8-.3h0c-3.8.8-7.2,3.5-8.5,7.5l-5.1,15.1-5.1,15.1c-1.3,4-.3,8.2,2.3,11h0Z"/>
          <g>
            <path class="cls-6" d="M203,209.8c-.3-2-.2-4.3.5-6.3l6.1-18.6-3.9-1.3-5.1,15.2c-1.3,4-.3,8.1,2.3,11h0Z"/>
            <path class="cls-5" d="M208,212.9c5.8,1.9,12.2-1.1,14.1-7.1l5.1-15.2-17.5-5.8-6.1,18.6c-.7,2-.8,4.3-.5,6.3,1.3,1.4,3,2.5,4.9,3.2h0Z"/>
            <path class="cls-1" d="M215.9,166.4c.7-2,1.9-4,3.4-5.5-3.8.8-7.1,3.5-8.5,7.5l-5,15,3.9,1.3,6.1-18.3h0Z"/>
            <path class="cls-9" d="M209.7,184.8l17.5,5.8,5-15c1.9-5.8-1.2-12.3-7.1-14.2h0c-1.9-.6-4-.7-5.8-.4-1.5,1.5-2.7,3.3-3.5,5.5l-6.1,18.3h0Z"/>
          </g>
          <g>
            <path class="cls-8" d="M219,201.7l-.6,1.8h0s-.4,1.3-1.4,2.7c-1.3,1.8-2.9,2.9-4.8,3.3,0,0-.3,0-.4.2-.3.2-.4.6-.4.9s.3.6.6.7h.5c2.4-.5,4.4-1.9,5.9-4.1,1.1-1.6,1.5-3,1.6-3.2l.6-1.8,4.2-12.5-1.6-.5-4.2,12.5h0Z"/>
            <path class="cls-12" d="M226.5,166.5c1.3,1.4,1.9,3.3,1.9,5.5,0,1.7-.5,3-.5,3h0l-.6,1.8-4.2,12.6,1.6.5,4.2-12.6.6-1.8c0-.2.6-1.6.7-3.5,0-2.7-.7-5.1-2.3-6.7s-.2-.2-.4-.2,0,0,0,0h0c-.3,0-.6,0-.8.2-.3.3-.4.6-.2,1,0,0,0,.2.2.3h-.2,0Z"/>
          </g>
        </g>
        <g>
          <path class="cls-3" d="M150.1,192.1h0c1.3,1.4,2.9,2.5,4.9,3.2h0c5.8,1.9,12.2-1.1,14.1-7.1l5.1-15.1,5.1-15.1c1.9-5.8-1.2-12.3-7.1-14.2h0c-1.9-.6-3.9-.7-5.8-.3h0c-3.8.8-7.2,3.5-8.5,7.5l-5.1,15.1-5.1,15.1c-1.3,4-.3,8.2,2.3,11h0Z"/>
          <g>
            <path class="cls-5" d="M150,192.1c-.3-2-.2-4.3.5-6.3l6.1-18.6-3.9-1.3-5.1,15.2c-1.3,4-.3,8.1,2.3,11h0Z"/>
            <path class="cls-5" d="M154.9,195.2c5.8,1.9,12.2-1.1,14.1-7.1l5.1-15.2-17.5-5.8-6.1,18.6c-.7,2-.8,4.3-.5,6.3,1.3,1.4,3,2.5,4.9,3.2h0Z"/>
            <path class="cls-1" d="M162.8,148.7c.7-2,1.9-4,3.4-5.5-3.8.8-7.1,3.5-8.5,7.5l-5,15,3.9,1.3,6.1-18.3h0Z"/>
            <path class="cls-9" d="M156.8,167l17.5,5.8,5-15c1.9-5.8-1.2-12.3-7.1-14.2h0c-1.9-.6-4-.7-5.8-.4-1.5,1.5-2.7,3.3-3.5,5.5l-6.1,18.3h0Z"/>
          </g>
          <g>
            <path class="cls-8" d="M166,184l-.6,1.8h0s-.4,1.3-1.4,2.7c-1.3,1.8-2.9,2.9-4.8,3.3,0,0-.3,0-.4.2-.3.2-.4.6-.4.9s.3.6.6.7h.5c2.4-.5,4.4-1.9,5.9-4.1,1.1-1.6,1.5-3,1.6-3.2l.6-1.8,4.2-12.5-1.6-.5-4.2,12.5h0Z"/>
            <path class="cls-12" d="M173.5,148.7c1.3,1.4,1.9,3.3,1.9,5.5,0,1.7-.5,3-.5,3h0l-.6,1.8-4.2,12.6,1.6.5,4.2-12.6.6-1.8c0-.2.6-1.6.7-3.5,0-2.7-.7-5.1-2.3-6.7s-.2-.2-.4-.2,0,0,0,0h0c-.3,0-.6,0-.8.2-.3.3-.4.6-.2,1,0,0,0,.2.2.3h-.2,0Z"/>
          </g>
        </g>
      </g>
    </g>
  </g>
</svg>