<?xml version="1.0" encoding="UTF-8"?>
<svg xmlns="http://www.w3.org/2000/svg" version="1.1" viewBox="0 0 56.7 28.3">
  <defs>
    <style>
      .cls-1 {
        mix-blend-mode: multiply;
      }

      .cls-2 {
        stroke-width: .3px;
      }

      .cls-2, .cls-3, .cls-4, .cls-5, .cls-6 {
        fill: none;
        stroke: #8faec7;
        stroke-miterlimit: 10;
      }

      .cls-3 {
        stroke-width: .3px;
      }

      .cls-7 {
        fill: #000;
      }

      .cls-7, .cls-8, .cls-9, .cls-10 {
        stroke-width: 0px;
      }

      .cls-8 {
        fill: #5d6f80;
      }

      .cls-4 {
        stroke-width: .2px;
      }

      .cls-9 {
        fill: #84a4c2;
      }

      .cls-10 {
        fill: #d5e0e9;
      }

      .cls-11 {
        isolation: isolate;
      }

      .cls-5 {
        stroke-width: .3px;
      }

      .cls-6 {
        stroke-width: .3px;
      }
    </style>
  </defs>
  <g class="cls-11">
    <g id="Livello_1" data-name="Livello 1">
      <g>
        <g>
          <polygon class="cls-10" points="6.3 9.2 6.3 26.6 2.9 26.6 2.9 11 6.3 9.2"/>
          <polygon class="cls-10" points="9.6 7.5 9.6 26.6 6.3 26.6 6.3 9.2 9.6 7.5"/>
          <polygon class="cls-10" points="13.1 5.8 13.1 26.6 9.6 26.6 9.6 7.5 13.1 5.8"/>
          <polygon class="cls-10" points="16.5 5.8 16.5 26.6 13.1 26.6 13.1 5.8 14.8 4.9 16.5 5.8"/>
          <polygon class="cls-10" points="19.9 7.6 19.9 26.6 16.5 26.6 16.5 5.8 19.9 7.6"/>
          <polygon class="cls-10" points="23.4 9.4 23.4 26.6 19.9 26.6 19.9 7.6 23.4 9.4"/>
          <polygon class="cls-10" points="26.8 11.2 26.8 26.6 23.4 26.6 23.4 9.4 26.8 11.2"/>
          <polygon class="cls-10" points="29.2 8.6 28.4 10.3 26.8 9.6 23.4 7.8 19.9 6.1 16.5 4.3 14.6 3.4 13.1 4.2 9.6 6 6.3 7.7 2.9 9.5 1.3 10.4 .4 8.6 2.9 7.4 6.3 5.6 9.6 3.8 11.8 2.7 13.1 2 14.6 1.2 16.5 2.2 17.5 2.7 19.9 3.9 23.4 5.6 26.8 7.4 29.2 8.6"/>
          <path class="cls-9" d="M19.8,16.9v9.6h-7v-8.5s0-5.2,4.9-5.2h0c1.2.8,2,2.2,2.1,3.7,0,.1,0,.2,0,.4Z"/>
          <path class="cls-7" d="M19.8,16.6v.4c0-.1,0-.2,0-.4h0Z"/>
          <path class="cls-8" d="M12.8,18.1v8.5h-3.1v-9c0-.2,0-.4,0-.6,0-2.8,2.3-5,5.1-5s2.1.3,3,.9c-5,0-4.9,5.2-4.9,5.2Z"/>
          <polygon class="cls-9" points="6.3 7.7 6.3 9.2 2.9 11 2.9 9.5 6.3 7.7"/>
          <polygon class="cls-9" points="9.6 6 9.6 7.5 6.3 9.2 6.3 7.7 9.6 6"/>
          <polygon class="cls-9" points="13.1 4.2 13.1 5.8 9.6 7.5 9.6 6 13.1 4.2"/>
          <polygon class="cls-9" points="16.5 4.3 16.5 5.8 14.8 4.9 13.1 5.8 13.1 4.2 14.6 3.4 16.5 4.3"/>
          <polygon class="cls-9" points="19.9 6.1 19.9 7.6 16.5 5.8 16.5 4.3 19.9 6.1"/>
          <polygon class="cls-9" points="23.4 7.8 23.4 9.4 19.9 7.6 19.9 6.1 23.4 7.8"/>
          <polygon class="cls-9" points="26.8 9.6 26.8 11.2 23.4 9.4 23.4 7.8 26.8 9.6"/>
          <line class="cls-2" x1="6.3" y1="26.6" x2="6.3" y2="9.2"/>
          <line class="cls-6" x1="9.6" y1="26.6" x2="9.6" y2="7.5"/>
          <line class="cls-4" x1="13.1" y1="12.3" x2="13.1" y2="5.3"/>
          <line class="cls-4" x1="16.5" y1="12.3" x2="16.5" y2="5.3"/>
          <line class="cls-5" x1="19.8" y1="26.6" x2="19.8" y2="6.8"/>
          <line class="cls-3" x1="23.4" y1="26.6" x2="23.4" y2="9.2"/>
          <g class="cls-1">
            <path class="cls-8" d="M14.1,10.7s.3.3,1.1,0c.8-.2.9-.6.9-.6.1-.2,0-.5,0-.7,0,0-.5-.4-1-.5,0,0-.2,0-.3,0h0s0,0,0,0h0s0,0,0,0c-.1,0-.3.2-.3.2-.4.3-.6.9-.6.9,0,.2.1.5.3.7Z"/>
            <path class="cls-8" d="M15.3,8c0,.3-.1.6-.3.6-.2,0-.4-.2-.5-.5,0-.3.1-.6.3-.6.2,0,.4.2.5.5Z"/>
            <path class="cls-8" d="M14.3,8.2c.2.3.2.6,0,.7-.2.1-.5,0-.6-.3-.2-.3-.2-.6,0-.7.2-.1.5,0,.6.3Z"/>
            <path class="cls-8" d="M13.7,9c.2.2.3.5.2.7-.1.2-.4.2-.7,0-.2-.2-.3-.5-.2-.7.1-.2.4-.2.7,0Z"/>
            <path class="cls-8" d="M15.4,8.4c0,.3.1.6.3.6.2,0,.4-.2.5-.5,0-.3-.1-.6-.3-.6-.2,0-.4.2-.5.5Z"/>
          </g>
        </g>
        <g>
          <polygon class="cls-10" points="33.3 9.2 33.3 26.6 29.9 26.6 29.9 11 33.3 9.2"/>
          <polygon class="cls-10" points="36.6 7.5 36.6 26.6 33.3 26.6 33.3 9.2 36.6 7.5"/>
          <polygon class="cls-10" points="40.1 5.8 40.1 26.6 36.6 26.6 36.6 7.5 40.1 5.8"/>
          <polygon class="cls-10" points="43.5 5.8 43.5 26.6 40.1 26.6 40.1 5.8 41.8 4.9 43.5 5.8"/>
          <polygon class="cls-10" points="46.9 7.6 46.9 26.6 43.5 26.6 43.5 5.8 46.9 7.6"/>
          <polygon class="cls-10" points="50.4 9.4 50.4 26.6 46.9 26.6 46.9 7.6 50.4 9.4"/>
          <polygon class="cls-10" points="53.8 11.2 53.8 26.6 50.4 26.6 50.4 9.4 53.8 11.2"/>
          <polygon class="cls-10" points="56.2 8.6 55.4 10.3 53.8 9.6 50.4 7.8 46.9 6.1 43.5 4.3 41.6 3.4 40.1 4.2 36.6 6 33.3 7.7 29.9 9.5 28.4 10.4 27.5 8.6 29.9 7.4 33.3 5.6 36.6 3.8 38.8 2.7 40.1 2 41.6 1.2 43.5 2.2 44.5 2.7 46.9 3.9 50.4 5.6 53.8 7.4 56.2 8.6"/>
          <path class="cls-9" d="M46.8,16.9v9.6h-7v-8.5s0-5.2,4.9-5.2h0c1.2.8,2,2.2,2.1,3.7,0,.1,0,.2,0,.4Z"/>
          <path class="cls-7" d="M46.8,16.6v.4c0-.1,0-.2,0-.4h0Z"/>
          <path class="cls-8" d="M39.8,18.1v8.5h-3.1v-9c0-.2,0-.4,0-.6,0-2.8,2.3-5,5.1-5s2.1.3,3,.9c-5,0-4.9,5.2-4.9,5.2Z"/>
          <polygon class="cls-9" points="33.3 7.7 33.3 9.2 29.9 11 29.9 9.5 33.3 7.7"/>
          <polygon class="cls-9" points="36.6 6 36.6 7.5 33.3 9.2 33.3 7.7 36.6 6"/>
          <polygon class="cls-9" points="40.1 4.2 40.1 5.8 36.6 7.5 36.6 6 40.1 4.2"/>
          <polygon class="cls-9" points="43.5 4.3 43.5 5.8 41.8 4.9 40.1 5.8 40.1 4.2 41.6 3.4 43.5 4.3"/>
          <polygon class="cls-9" points="46.9 6.1 46.9 7.6 43.5 5.8 43.5 4.3 46.9 6.1"/>
          <polygon class="cls-9" points="50.4 7.8 50.4 9.4 46.9 7.6 46.9 6.1 50.4 7.8"/>
          <polygon class="cls-9" points="53.8 9.6 53.8 11.2 50.4 9.4 50.4 7.8 53.8 9.6"/>
          <line class="cls-2" x1="33.3" y1="26.6" x2="33.3" y2="9.2"/>
          <line class="cls-6" x1="36.6" y1="26.6" x2="36.6" y2="7.5"/>
          <line class="cls-4" x1="40.1" y1="12.3" x2="40.1" y2="5.3"/>
          <line class="cls-4" x1="43.5" y1="12.3" x2="43.5" y2="5.3"/>
          <line class="cls-5" x1="46.8" y1="26.6" x2="46.8" y2="6.8"/>
          <line class="cls-3" x1="50.4" y1="26.6" x2="50.4" y2="9.2"/>
          <g class="cls-1">
            <path class="cls-8" d="M41.1,10.7s.3.3,1.1,0c.8-.2.9-.6.9-.6.1-.2,0-.5,0-.7,0,0-.5-.4-1-.5,0,0-.2,0-.3,0h0s0,0,0,0h0s0,0,0,0c-.1,0-.3.2-.3.2-.4.3-.6.9-.6.9,0,.2.1.5.3.7Z"/>
            <path class="cls-8" d="M42.3,8c0,.3-.1.6-.3.6-.2,0-.4-.2-.5-.5,0-.3.1-.6.3-.6.2,0,.4.2.5.5Z"/>
            <path class="cls-8" d="M41.3,8.2c.2.3.2.6,0,.7-.2.1-.5,0-.6-.3-.2-.3-.2-.6,0-.7.2-.1.5,0,.6.3Z"/>
            <path class="cls-8" d="M40.7,9c.2.2.3.5.2.7-.1.2-.4.2-.7,0-.2-.2-.3-.5-.2-.7.1-.2.4-.2.7,0Z"/>
            <path class="cls-8" d="M42.5,8.4c0,.3.1.6.3.6.2,0,.4-.2.5-.5,0-.3-.1-.6-.3-.6-.2,0-.4.2-.5.5Z"/>
          </g>
        </g>
      </g>
    </g>
  </g>
</svg>