<?xml version="1.0" encoding="UTF-8"?>
<svg id="Livello_1" data-name="Livello 1" xmlns="http://www.w3.org/2000/svg" version="1.1" viewBox="0 0 56.7 56.7">
  <defs>
    <style>
      .cls-1 {
        fill: #85a5c3;
      }

      .cls-1, .cls-2 {
        stroke-width: 0px;
      }

      .cls-2 {
        fill: #91b5d6;
      }
    </style>
  </defs>
  <path class="cls-1" d="M17.9.1h21.7c.3,0,.5.2.5.5v7.2h-22.6V.6c0-.3.2-.5.5-.5Z"/>
  <path class="cls-2" d="M44.4,28.2v23.4s-.4,4.3-5,4.4c-4.6,0-16.6.2-21.2,0-4.6-.2-5-4.4-5-4.4v-23.4c0-11.3,1.3-10.4,4-13.7,2.6-3.3,2.2-5.1,2.2-5.1v-1.6h18.9v1.6s-.4,1.8,2.2,5.1c2.6,3.3,4,2.3,4,13.7Z"/>
  <path class="cls-1" d="M13.1,27.4c10.4,0,20.9,0,31.3,0v16.3c-10.4.2-20.8.2-31.3-.1v-16.2Z"/>
</svg>