<?xml version="1.0" encoding="UTF-8"?><svg id="how_to_prevent" xmlns="http://www.w3.org/2000/svg" viewBox="0 0 32 32"><defs><style>.cls-1{fill:#8ec8ed;}.cls-2{fill:#5b798c;}.cls-3{fill:#77a8c7;}.cls-4{fill:#82b7d9;}</style></defs><g id="ic_slaugh"><rect class="cls-4" x="9.08" y="14.82" width="13" height="13.69"/><path class="cls-3" d="M9.01,12.95H30.92v1.88H8.4v-1.27c0-.34,.27-.61,.61-.61Z"/><rect class="cls-4" x="22.22" y="14.82" width="8.7" height="13.69"/><rect class="cls-2" x="9.08" y="28.51" width="2.31" height="1.03"/><rect class="cls-2" x="19.59" y="28.51" width="2.31" height="1.03"/><rect class="cls-2" x="22.34" y="28.51" width="2.31" height="1.03"/><rect class="cls-3" x="22.14" y="18.79" width="2.7" height="1.11" transform="translate(4.15 42.84) rotate(-90)"/><rect class="cls-3" x="19.39" y="18.79" width="2.7" height="1.11" transform="translate(1.4 40.08) rotate(-90)"/><path class="cls-1" d="M.84,11.91s6.83,4.88,7.55,8.27S14.47,9.32,24.26,1.28c2.3-1.89-5.79,1.98-14.33,14.02,0,0-5.21-3.72-9.08-3.39Z"/></g></svg>