<?xml version="1.0" encoding="UTF-8"?>
<svg id="Symptoms" xmlns="http://www.w3.org/2000/svg" viewBox="0 0 32.06 32">
  <defs>
    <style>
      .cls-1 {
        opacity: .21;
      }

      .cls-1, .cls-2 {
        fill: #fff;
      }

      .cls-2 {
        opacity: .34;
      }
    </style>
  </defs>
  <g id="ic_infertiliy">
    <path class="cls-1" d="m23.2,27.9c-1.05-.19-2.9-.09-3.06-1.33-.08-.61.66-1.45,1.35-2.68s1.29-2.57,1.23-2.99c-.12-.83-1.54-2.17-1.54-2.17,0,0-.31.15-1.61.28s-1.73.17-2.36.35-1.76,4.65-1.86,5.19-.37,1.92-.76,2.93c-.18.46-.54.66-1.01.82-1.5.49-3.02.19-3.02.19,0,0-.16-.52.1-.85,0,0-.36.2-1.14.26s-1.55-.64-1.6-1.07.81-2.47,1.16-4.41.1-2.76.19-4.05c0,0-1.28-1.75-1.77-2.76s-1.09-2.85-1.09-2.85c0,0-3.15.83-4.69-.24-.98-.5-1.12-1.72-1.04-2.26.13-.9.79-1.53,1.46-2.16.57-.53,1.17-1.46,1.67-2.12s.89-.92,1.18-1.29c.46-.59.23-2.16.42-2.28s2.27,1.12,2.27,1.12c0,0,.33.06.73.09.24.02.75.09.75.09,0,0,2.05-.75,2.64-.42,0,0,.85,1.24.1,2.35,0,0,.69.65,1.51.45s3.31-.46,4.85,0,5.48.06,5.48.06c0,0,4.28-.24,6.07,1.98s.93,3.12.4,6.85c-.12,1.68.8,3.26,1.05,4.68s-.8,2.38-1.06,4.02-.17,3.35-.61,3.96c-.31.44-1.07,1.13-1.86,1.17s-2.22-.13-2.47-.41-2.05-.5-2.05-.5Z"/>
    <path class="cls-2" d="m7.49,10.77s1.73,4.66,3.56,6.63c0,0,.09,6.28-1.61,8.86,0,0-.21.22.26.22s1.04-.22,1.14-.33.07-.52.07-.52c0,0,.39.04.46-.37s.09-2.12.65-3.56,1.18-3.07,1.18-3.07c0,0,.28,4.5-1.27,8.04-.09.25-.14.36.19.44s1.01-.1,1.01-.1c0,0,.17-.04.25-.41s.25-.32.25-.32c0,0,.11,0,.12-.39s-.09-.47.35-2.19.87-2.62,1.91-6.12c0,0,.85-.25,1.06-.37s1.39-.17,1.39-.17c0,0,1.75-.16,3-.63.33-.1.42-.03.64.42s1.11,1.84,1.49,2.29.94,1.11,0,3.45-1.79,3.16-1.79,3.59,1.13.26,1.13.26c0,0,.61-.09.59-.97,0,0,.08-.04.2.06s.42-.42.43-.5-.09-.72.48-1.54,1.44-2.86,1.44-2.86c0,0,.64-.42,0-1.82l1.53,1.75s.52.4.12,2.46-.71,2.79-1.3,3.71.33.92.33.92c0,0,1.04.28,1.25-1.23,0,0,.4.02.42-.73s.14-2.95.97-4.58.21-1.87.21-1.87c0,0-.74-.94-.93-2.69s.15-3.49.15-3.49l.39-1.79s-.12-2.21-2.29-3.04-3.73-.52-3.73-.52c0,0-2.95.36-4.67-.06s-4.49,0-4.49,0c0,0-1.72.53-3.92-.98,0,0,.92-1.39.4-1.7s-1.65.26-1.65.26c0,0-.92-.47-1.56-.35l-.87-.62v.94s-.92.66-1.75,2.17-1.94,2.12-1.94,2.12c0,0-1.11.97-.12,1.65.4.28.44.42.85.37s.34-.24.78-.15,1.26.3,3.24-.56Z"/>
  </g>
</svg>