<?xml version="1.0" encoding="UTF-8"?><svg id="Complications" xmlns="http://www.w3.org/2000/svg" viewBox="0 0 32 32"><defs><style>.cls-1,.cls-2{fill:#fff;}.cls-3{fill:#fed4c2;}.cls-4{fill:#d99898;}.cls-2{stroke:#fff;stroke-linecap:round;stroke-miterlimit:10;}</style></defs><g id="ic_arthritis"><path class="cls-2" d="M17.22,31.33c.15,0,.26-.14,.21-.29-.38-1.24-1.73-6.17,.52-8.22,2.11-1.92,1.61-3.64,1.35-4.2-.05-.11-.18-.15-.29-.09-2.13,1.1-4.36,.33-4.94,.09-.09-.04-.2-.02-.28,.03-1.98,1.28-4.13,.31-4.71,0-.1-.05-.21-.02-.27,.07-.36,.49-1.25,2.13,.9,4.1,2.25,2.05,.9,6.98,.52,8.22-.04,.14,.06,.29,.21,.29h6.76Z"/><path class="cls-1" d="M14.2,.84c1.27,.53,2.05,.33,2.65,.27s1.38-.39,1.25,.76-.54,3.38,.18,4.78,3.36,2.24,3.03,5.42c-.3,2.98-3.96,5.27-7.04,2.31,0,0-3.37,2.3-5.6-.73s-.05-5.8,1.87-6.62,2.31-3.45,2.41-4.12,.11-1.7,.11-1.7c0,0-.12-.89,1.14-.36Z"/><path class="cls-3" d="M11.01,15.75c2.38,.46,2.55-1.09,4.02-.08s3.61,.58,4.1,.28,.93-.59,1.1,.05-1.69,1.93-3.78,1.82-1.92-1.12-3.66-.11c-1.31,.8-3.18-.1-4.06-.61s-1.8-1.98-.65-2.35,1.12,.64,2.93,.99Z"/><g transform="matrix(1, 0, 0, 1, 1215.35, 373.57)"><path id="Tracciato_29-2" class="cls-4" d="M14.78,10.73c.47-.79,2.21-3.2,2.77-3.52s.5,.32,.5,.32l-.03,.6s3.11-3.55,4.06-4.05c.95-.5,.72,1.25,.29,1.62s-4.86,4.04-4.86,4.04c0,0-.25,.17-.11-.74s-.09-.53-.09-.53c0,0-3,3.05-2.53,2.26Z"/></g><g transform="matrix(1, 0, 0, 1, 1215.35, 373.57)"><path id="Tracciato_30-2" class="cls-4" d="M14.81,13.24c.95-.68,4.21-2.59,5.03-2.68s.42,.63,.42,.63l-.34,.69s5.44-2.54,6.8-2.63,.2,1.82-.49,2.03-7.73,2.21-7.73,2.21c0,0-.38,.07,.25-.92s.17-.66,.17-.66c0,0-5.06,2.01-4.11,1.34Z"/></g></g></svg>