<?xml version="1.0" encoding="UTF-8"?><svg id="Livello_2" xmlns="http://www.w3.org/2000/svg" viewBox="0 0 15.7040118492 24.0659179688"><defs><style>.cls-1{fill:#fff;}.cls-2{fill:#333;}.cls-3{fill:#bf5557;}.cls-4{fill:#d2d3d2;}.cls-5{fill:#c5686a;}.cls-6{fill:#dfcb8b;}.cls-7{fill:#e1e1e1;}.cls-8{fill:#3f3f3f;}.cls-9{fill:#6e6e6e;}.cls-10{fill:#6e6e6d;}.cls-11{fill:#2a2c2e;}</style></defs><g id="Who_is_at_risk"><g id="ic_Butchers_meat-packing_employees_personnel_in_slaughterhouses"><path class="cls-1" d="m14.9660045927,3.1215820312l-.30859375-.3935546875c-.0595703125-.0756835938-.1474609375-.1147460938-.236328125-.1147460938-.064453125,0-.1298828125.0205078125-.1845703125.0634765625-.228515625.1782226562-.51171875.400390625-.75.8876953125-.015625.0317382812-.0302734375.064453125-.044921875.0981445312-.017578125-1.2700195312-.4990234375-3.162109375-2.3046875-3.5849609375-.2197265625-.0517578125-.4404296875-.0776367188-.6572265625-.0776367188-2.1513671875,0-3.3173828125,2.4897460938-3.3818359375,2.6411132812-1.419921875,5.1591796875-3.0126953125,5.5766601562-3.0185546875,5.5786132812-.1142578125.0180664062-.20703125.1000976562-.240234375.2104492188l-.2509765625.8354492188-.0087890625-.0322265625c-.095703125-.322265625-.2392578125-.626953125-.3671875-.8974609375-.2099609375-.4482421875-.3916015625-.8349609375-.3662109375-1.2177734375.02734375-.4223632812.3310546875-.849609375.810546875-1.1430664062.4921875-.3012695312,1.1064453125-.4453125,1.7001953125-.5849609375.0771484375-.0180664062.1455078125-.0668945312.1865234375-.134765625.0419921875-.0673828125.056640625-.1494140625.0380859375-.2270507812l-.115234375-.486328125c-.033203125-.1376953125-.15625-.2309570312-.2919921875-.2309570312-.0224609375,0-.0458984375.0029296875-.068359375.0083007812-.6787109375.1591796875-1.3798828125.3237304688-2.0234375.7172851562-.78515625.48046875-1.283203125,1.2314453125-1.333984375,2.0092773438-.0439453125.6665039062.228515625,1.2470703125.4697265625,1.7607421875.119140625.25390625.2333984375.4931640625.306640625.7387695312.1220703125.4116210938.1162109375.876953125-.015625,1.310546875-.0625.2075195312-.18359375.4018554688-.3251953125.6303710938-.1552734375.25-.33203125.533203125-.4365234375.8715820312-.1083984375.3540039062-.0791015625.7045898438.0830078125.986328125.091796875.1640625.234375.3061523438.412109375.4150390625L.0128795927,21.203125c-.0234375.0771484375-.0146484375.16015625.0244140625.2309570312.0390625.0703125.1044921875.1225585938.1826171875.1440429688.033203125.0092773438,3.33984375.9340820312,5.3525390625,1.7846679688,1.4482421875.6118164062,3.3330078125.703125,4.3271484375.703125h.0009765625c.5146484375,0,.841796875-.0234375.841796875-.0234375.091796875-.0068359375.1767578125-.0556640625.2275390625-.1323242188.810546875-1.2094726562,1.6416015625-6.23046875,2.2060546875-10.3276367188.2861328125-.0517578125.55078125-.1811523438.7646484375-.376953125.1640625-.1518554688.271484375-.3232421875.3193359375-.509765625.0771484375-.302734375-.015625-.552734375-.0712890625-.701171875,0-.0004882812-.0341796875-.1049804688-.0341796875-.1049804688-.0185546875-.1137695312-.0205078125-.28515625-.00390625-.4594726562.025390625-.26953125.0703125-.5068359375.1162109375-.7509765625.0517578125-.2758789062.1025390625-.5522460938.1328125-.8715820312.056640625-.6147460938.060546875-1.2729492188.01171875-1.8525390625-.0244140625-.2973632812-.0625-.5859375-.1064453125-.9106445312-.068359375-.5126953125-.1337890625-.9970703125-.1220703125-1.5268554688.015625-.6748046875.1669921875-1.2138671875.2919921875-1.4697265625.1279296875-.2612304688.265625-.3686523438.439453125-.5048828125.0625-.048828125.103515625-.12109375.11328125-.2001953125s-.0126953125-.1586914062-.0615234375-.2211914062Zm-2.8193359375.4609375l-3.7392578125-.919921875c.3037109375-.6127929688,1.0771484375-1.91015625,2.1884765625-1.91015625.1201171875,0,.244140625.0151367188.3681640625.0458984375,1.3046875.3208007812,1.259765625,2.0629882812,1.1826171875,2.7841796875Zm1.1689453125,4.4643554688c.0439453125.5229492188.0390625,1.1123046875-.01171875,1.6591796875-.0029296875.0322265625-.005859375.064453125-.009765625.095703125-.380859375-1.3544921875-.33984375-2.7924804688-.20703125-3.8779296875.017578125.4453125.0732421875.861328125.1279296875,1.267578125.0380859375.28125.0751953125.5639648438.1005859375.85546875Z"/><path class="cls-8" d="m14.4184171075,2.9099739746c-.2099609375.1699829102-.4599609375.3599853516-.6599121094.7899780273-.2199707031.4400024414-.3599853516,1.1199951172-.3800048828,1.799987793-.0100097656.5900268555.0599365234,1.1300048828.1300048828,1.6500244141.0400390625.2899780273.080078125.5700073242.1099853516.8699951172.0399169922.5399780273.0399169922,1.1500244141-.0200195312,1.7100219727-.0198974609.299987793-.0699462891.549987793-.1199951172.799987793-.0500488281.2700195312-.0999755859.5299682617-.1199951172.8200073242-.0198974609.1499633789-.0299072266.4199829102.0100097656.6699829102.0100097656.0900268555.0399169922.1699829102.0699462891.25.0400390625.1099853516.0600585938.1699829102.0500488281.2299804688-.0100097656.0200195312-.0300292969.0599975586-.0899658203.1199951172-.1199951172.1000366211-.2700195312.1700439453-.4200439453.1800537109.1799316406-1.3000488281.2800292969-2.1800537109.2800292969-2.1800537109-1.1899414062-2.9099731445-.1300048828-6.4899902344-.1300048828-6.4899902344,0,0,.2899169922-3.2099609375-2.0599365234-3.7600097656-2.3500976562-.549987793-3.6800537109,2.3500366211-3.6800537109,2.3500366211-1.5200195312,5.5199584961-3.2600097656,5.799987793-3.2600097656,5.799987793l-1.3800048828,4.6099853516c-.1099853516-.049987793-.1899414062-.1099853516-.2199707031-.1799926758-.0500488281-.0899658203-.0600585938-.2199707031-.0200195312-.3599853516.080078125-.2399902344.2099609375-.450012207.3499755859-.6799926758.1600341797-.25.3199462891-.5100097656.4200439453-.8200073242.169921875-.5800170898.1799316406-1.2100219727.0100097656-1.7700195312-.0900878906-.299987793-.2199707031-.5800170898-.3500976562-.8499755859-.2199707031-.4700317383-.419921875-.9100341797-.3898925781-1.3699951172.0300292969-.5200195312.3898925781-1.0400390625.9499511719-1.3800048828.5300292969-.3300170898,1.169921875-.4800415039,1.7900390625-.6199951172l-.1101074219-.4899902344c-.6599121094.1599731445-1.33984375.3099975586-1.9399414062.6799926758-.6999511719.4299926758-1.1499023438,1.0899658203-1.1899414062,1.7799682617-.0400390625.5800170898.1999511719,1.1000366211.4399414062,1.6099853516.1300048828.2700195312.25.5200195312.3200683594.7800292969.1398925781.4699707031.1398925781.9899902344-.0100097656,1.4799804688-.080078125.25-.2099609375.4700317383-.3601074219.700012207-.1499023438.25-.3099365234.5100097656-.3999023438.8099975586-.0900878906.2700195312-.0700683594.5399780273.0500488281.75.1098632812.1799926758.2799072266.3300170898.5098876953.4100341797L.2985440606,21.2899788574s3.3399658203.9299926758,5.3898925781,1.799987793c2.0600585938.8599853516,5.0300292969.6499633789,5.0300292969.6499633789.830078125-1.2399902344,1.7199707031-6.9599609375,2.1899414062-10.4299926758.3000488281,0,.6000976562-.1099853516.830078125-.3200073242.1199951172-.1199951172.1999511719-.2399902344.2299804688-.3699951172.0500488281-.2099609375-.0100097656-.3800048828-.0600585938-.5199584961-.0198974609-.049987793-.0399169922-.1100463867-.0499267578-.1600341797-.0198974609-.1399536133-.0299072266-.3399658203-.0100097656-.5399780273.0300292969-.2800292969.0799560547-.5300292969.1199951172-.7800292969.0500488281-.2599487305.1000976562-.5299682617.1300048828-.8399658203.0599365234-.5900268555.0599365234-1.2299804688.0100097656-1.799987793-.0198974609-.3099975586-.0599365234-.6000366211-.0999755859-.9000244141-.0700683594-.5200195312-.1400146484-1.0200195312-.1300048828-1.5700073242.0200195312-.7199707031.1800537109-1.299987793.3299560547-1.5899658203.1500244141-.3300170898.330078125-.4700317383.5200195312-.6100463867l-.3100585938-.3999633789ZM5.8985196465,22.0699471191c-.1400146484.2100219727-.4200439453.2800292969-.6500244141.1799926758-1.7299804688-.8099975586-4.3699951172-1.2799682617-4.2700195312-1.5.1000976562-.2299804688.1500244141-.3099975586,2.8601074219.0800170898,2.1499023438.3099975586,3.7899169922-1.1300048828,4.1298828125-1.450012207-.7900390625.9100341797-1.6398925781,2.1000366211-2.0699462891,2.6900024414Zm3.2698974609-5.7699584961l-1.919921875.0399780273-1.6599121094-.9199829102.4899902344-2.8500366211s1.75.9800415039,3.9599609375.9700317383l-.8701171875,2.7600097656Zm3.2301025391-12.3500366211l-4.4100341797-1.0800170898S9.0885831231.0299690918,11.038534295.5099495605s1.3599853516,3.4400024414,1.3599853516,3.4400024414Z"/><path class="cls-8" d="m7.9684659356,19.3799446777c-.7900390625.9100341797-1.6398925781,2.1000366211-2.0699462891,2.6900024414-.1400146484.2100219727-.4200439453.2800292969-.6500244141.1799926758-1.7299804688-.8099975586-4.3699951172-1.2799682617-4.2700195312-1.5.1000976562-.2299804688.1500244141-.3099975586,2.8601074219.0800170898,2.1499023438.3099975586,3.7899169922-1.1300048828,4.1298828125-1.450012207Z"/><path class="cls-8" d="m10.038534295,13.5399788574l-.8701171875,2.7600097656-1.919921875.0399780273-1.6599121094-.9199829102.4899902344-2.8500366211s1.75.9800415039,3.9599609375.9700317383Z"/><path class="cls-5" d="m10.038534295,13.5399788574l-.8701171875,2.7600097656-1.919921875.0399780273-1.6599121094-.9199829102.4899902344-2.8500366211s1.75.9800415039,3.9599609375.9700317383Z"/><path class="cls-2" d="m7.9684659356,19.3799446777c-.7900390625.9100341797-1.6398925781,2.1000366211-2.0699462891,2.6900024414-.1400146484.2100219727-.4200439453.2800292969-.6500244141.1799926758-1.7299804688-.8099975586-4.3699951172-1.2799682617-4.2700195312-1.5.1000976562-.2299804688.1500244141-.3099975586,2.8601074219.0800170898,2.1499023438.3099975586,3.7899169922-1.1300048828,4.1298828125-1.450012207Z"/><path class="cls-1" d="m11.0461333441,9.8051591379l.0303933105.0479034994.0995829822.1841785292c.018491625.0346982113.7993606926,1.5675557583.8223413808,1.6100584958l.140396347.2606587415.7612253102,1.3695396846c.0620025718.1126816849.0942496063.1797923217.1804064665.3550748596.0793409436.1576966401.1396752368.3076298216.1928639523.4627728029l.7817887203,2.400776297.4711200419,1.4487830335c.0345942349.1073068678.1330661522.1773833332.2423084243.1767458525.0000411843.000045046.0033256598.0000193321.0036293968-.0000102669.0000823686.0000900921.0003371978.0001879077.0005096584.0001956312l.0243710138-.0001182092c.0293234643.0002331872.0723923047.0003043208.0723923047.0003043208l.0079718067-.0005070216.0549583338-.0001308327c.0064865825-.0001415199.0122730556-.0039433306.0187261773-.0043023572l.0562711207-.0033985662c.0221161919-.0047553609.0397896384-.0154555035.0598363261-.0231980548.0101057124-.0037811836.0217197728-.0026562343.0313879052-.0072778455.0090040271-.004262538.0249322634-.0136151846.0351821325-.0186859612.0052562109-.0025727108.0118457658-.0040488697.0171019766-.0066215805,0,0,.2236747442-.1171685064.2251162174-.1184864033.0070837896-.0038301147.1146174628-.0743579492.1217630405-.079567749.0014414732-.001317897.0446238797-.0394751208.0446238797-.0394751208.0229734784-.0210039829.0697853518-.0678549983.1054132082-.1379741405.0104867779-.0171134218.0149734612-.0333723107.0237948775-.0557445101.0029190205-.0072999545.012999019-.0143656136.015228197-.0216964622.0118846635-.0396452716.0072027694-.0749778725.0064102581-.1113027344.0016321343-.0239038113.0128035746-.037012021.010435677-.0642054881-.0152161087-.2004457828-.1547281962-.3110688608-.1878406377-.3125517751-.0032947424-.0036036829-.0514597697-.054837768-.0952796569-.1259228162-.0472174853-.0878266332-.3905044405-1.0349732422-.5943844055-1.6067618854l-.2917857444-.9241033854c-.0540123077-.1676219349-.1121015089-.3831210508-.1104125098-.4362698196l.0185756281-.1678272725c.0007207366-.0006589485.1487603285-.173056672.1488221166-.1744363571l-.0147439956-.0132319727c.0255346273-.0183835893.0546523337-.0386371898.0823517374-.0580902753l.0115497056.0015972851-.0055753248-.0057362936c.0254213647-.0177838388.0493008739-.0349023006.0763619096-.0536063456l.0146514069.0037234674.3930681869-.2416065403s.4141500588-.3014038985.4618653262-.3365932175c.0003114605-.0002020596.0008442894-.0005238104.0011557499-.00072587.0007130131-.0004864879.0014337496-.0011454363.0021467627-.0016319242.0017863944-.0013024499.0126849451-.0092818867.0128651292-.0094466238s.0000720783-.0006447965.0003423545-.0008919022c.0013024733-.0011081138.002810868-.0019909974.0039820649-.0030617887.0439649312-.0401958574.0586271888-.1052056989.034225748-.1622878117-.060468253-.136330667-1.3381418403-3.0306445662-1.7935076962-3.9726581561-.0122418813-.0314806107-.0397836643-.0869320943-.0794799201-.1603813652-.0150527493-.0294896132-.0313461605-.0621453059-.042332003-.0821212337-.0057528956-.0104532237-.0141107611-.0157957116-.0201905641-.0257019545-.0106872857-.0160312087-.0226204367-.0283596706-.0346204859-.0440176541-.042267835-.0594375037-.0886902422-.1100319258-.1417022977-.147572156-.0164917725-.0127918259-.0352049995-.0184252639-.053004402-.0290291662-.0316373908-.0170558457-.0596916557-.0417707192-.0944951727-.0517968867-.0262319832-.0075254182-.052793534-.0038331718-.0792597893-.0070921202-.0119177974-.0010953503-.020370865-.0110646762-.0325975562-.0110506176-.0178020627.0000667814-.0241882862.0037553295-.0405102816.0045364191-.0449890779.0003612897-.0892420189.0055077261-.1336803242.0147932177-.0481758079.0088156991-.0829923219.0145143433-.1081665108.0238849336-.0018867767.0006499299-.0036422771.0012625373-.0054878695.0019575133-.0149449237.0057245449-.040034154.0131980683-.0473985101.0165404001-.0051249345.0025353883-.0090555249.0063771116-.0137686167.0093629602-.1035745687.0419328537-.2024258488.0931927802-.2866745598.139620064l-.1296086342.069539225c-.2762470733.1334772011-1.4458149329.9209387424-1.4957104004.9546479706l-.0079281024.0072484333c-.051172297.0467853422-.0465811254.1603520338-.013366202.2212849818l.0209570779.0497063871"/><path class="cls-4" d="m11.1098871769,9.6245618309s1.2075434163-.8139663199,1.4774327006-.9439363659.7622992146-.519537265,1.0355330951-.0237996578,1.9095809011,4.2046346393,1.9095809011,4.2046346393c0,0-1.3136092008.8356124302-1.3367061007.9439694955s.0776268115.4751364649.0776268115.4751364649c0,0,.6121386227,1.760935702.6875956765,1.9567057711s.2797262345.8244624799.3518556113.9038992106.2929815511.2325977388.234488882.4263779694c-.0469775804.1556319194-.3832677466.3293209739-.5138538292.3916755761-.0329683949.0157423449-.0687963566.0239514127-.1053300781.0241052741l-.1590100381.0006696691c-.0509424726.0002145437-.0960217948-.0323577029-.1114689322-.0809022245-.0117544047-.0369396567-.0235175207-.0738765414-.0352870925-.1108113684-.0161274255-.0506104794-.032267212-.1012170199-.048417564-.1518201878-.0200204437-.0627291512-.0400572326-.1254530856-.0601091688-.188172177-.0234333883-.073295706-.0468875144-.146584782-.0703619157-.2198673631-.0263661833-.0823101701-.0527579662-.1646121403-.0791758047-.246905746-.0288187328-.0897725768-.0576684735-.1795352001-.0865508356-.2692873259-.0307909157-.0956829684-.0616188899-.1913540123-.0924870086-.2870121026-.0322825782-.1000413992-.0646090265-.2000686437-.0969843236-.3000800763-.03329352-.1028479406-.0666386333-.2056791828-.1000427806-.3084912468-.0338234774-.1041026879-.0677073754-.2081857503-.1016623797-.3122456142-.0338720934-.1038057718-.0678147835-.2075885169-.1018431208-.3113431785-.0334388821-.1019573734-.0669602021-.2038877255-.100585004-.3057839397-.0325231425-.0985577585-.0651426595-.1970837422-.0978880291-.2955678977-.0311238533-.0936073237-.0623606615-.1871771426-.0937521963-.2806950527-.0292394553-.0871066919-.0586118188-.1741688724-.0881775053-.2611654037-.0549817951-.1617885244-.1180112035-.3176742969-.2001159081-.4818133738-.0723163654-.1445707834-.1051096314-.2155511191-.1826969499-.3578854775-.0419163918-.0767729643-.1230232664-.2208236097-.1675594701-.2961102943-.0451732454-.0763635783-.085661862-.1561133245-.1320582374-.2316181349-.0064562121-.0115946117-.0129070908-.023192193-.0193536023-.0347922008-.0476428114-.0857296197-.095026762-.1716029939-.1422633189-.2575570524-.0502444342-.0914273461-.1003169913-.1829491054-.1502751989-.2745331416-.0500939051-.0918327985-.1000711078-.1837292401-.1499609091-.2756730722-.0471811698-.0869519909-.0942835819-.1739467112-.1413204494-.2609768443-.0415012497-.0767878363-.779412882-1.5317078209-.8208153449-1.6085489654-.0330513896-.0613419208-.0660726042-.1227001029-.0990610206-.1840759128-.0218299438-.0406151802-.0436461959-.0812377247-.0654420514-.1218712092-.0078360603-.0146085771-.0156715666-.0292174616-.0234975096-.0438314624Z"/><path class="cls-7" d="m13.0170373876,8.4627086861s.2129376086.0947481673.3718279892.4598637285,1.8429250245,4.1130346492,1.8429250245,4.1130346492l.2847758345-.2044455944-1.7693250327-3.9237406739s-.1780691083-.4944231331-.4562916017-.4935025789c-.1732716203.0005733613-.249892601.0372822859-.2739122138.0487904695Z"/><path class="cls-9" d="m15.2317904013,13.0356070638l-1.0243806833.6694329558s-.1057702022.0491811367-.0728831015.2073754712.0719919067.3054592181.0719919067.3054592181c0,0,.3128056913,1.0160809787.5121385584,1.5172621392s.421058993,1.1484472539.421059014,1.1484473011l.029623169.0667224838c.007522137.0140266504.0131063701.0295204598.0195674955.0440733367l.0204371593.0460321456c.0083540249.0188164152.0157209209.0380483742.0238013659.0569807271.0083938718.0196667068.0178683168.0366040054.0313620238.0532671907.0251778737.0310917954.054840346.0585654653.0850991715.0846054145.0240554138.0207014563.048910715.0404660603.0741952012.0596414162,0,0,.0874177146.0772889876.1079391001.1651846941s-.0566359738.2159663244-.0566359738.2159663244c0,0,.0989499185-.064390738.0848689245-.2320236698s-.1503592448-.2255873914-.1503592448-.2255873914c0,0-.0585011288-.0609069269-.1149674393-.152434547s-.6070656073-1.6344647926-.6070656073-1.6344647926l-.2905734748-.9238441231s-.1212068336-.3705595564-.1179283389-.4848997821c.001126252-.0392785745.0017562543-.0795638513.0054819955-.1186147781.0036666669-.038431746.01375297-.0850208446.0335801533-.1178799563.0131276106-.0217560716.0285229547-.0420536744.0448573135-.0614866174.0003210511-.0010636094.0020869523-.0024735394.0028174529-.0033329188.0011134664-.0013099099.0022311314-.0026162493.0033525449-.0039193615.0021565662-.0025059871.0043272657-.0049997974.0065094555-.0074834986.0042037934-.0047846281.0069019682-.0084945688.0111265117-.0132623827.0088036887-.0099358308.0176944846-.0197944797.0266710065-.029574445.017909545-.0195125384.0319640722-.0360527736.0498950834-.0555196617l.0196974369-.0213846168c.0251302073-.0272827303.0590338087-.051319832.0862688309-.0764699696.0327227211-.0302185002.0718145184-.0511988446.1095271849-.0743685729l.1038506578-.0638032721.2100332176-.1290392071c.0228349275-.0140292139.0456698579-.028058423.0685047824-.0420876417l.298162973-.2195674427.1730176457-.1235487868-.015867638-.0302989769-.2847758345.2044455944Z"/><path class="cls-11" d="m14.131014013,13.8191158766s-.5963869237.1439611395-.7044474189.3003534763l1.2310605879,3.7854265149c.0153973899.0473459133.0596169586.0793224033.1094032591.0791127288l.0545470975-.0002297245.0889828311-.0003747503c.0216539236-.0000913911.0427986895-.0003090454.0640937901-.0046767233.0384323821-.0078825713.0735968448-.0265982922.1086153102-.0439390498.0322957362-.0159924922.0644825472-.0322067448.0965208565-.0487091752.0336041306-.0173089604.0670618186-.0349149045.1001728821-.0531517213.0277925812-.0153075183.0554882605-.0309341241.082190436-.0480929645.0111455797-.0071621589.0222796031-.0145750475.0324390789-.0231096056.0669983226-.0562764477.1658977753-.1311175424.1508496502-.2848353517-.0066908651-.0683477256-.024995438-.1360885311-.2137609929-.2609433673-.1187083621-.0785170425-.2530338284-.5174609764-.2556292967-.5162520138-.6768582402-1.8645757075-.9509472338-2.6900339084-.9450380711-2.8805782727Z"/><circle class="cls-6" cx="13.8625819409" cy="14.5907140323" r=".1109962637"/><path class="cls-1" d="m6.5249438228,2.3712312747c.001953125-.0183105469.0085449219-.0360107422.0031738281-.0545654297l-.2034912109-.6637573242c.0568847656-.442199707-.4578857422-1.1698608398-.9459228516-1.4700317383-.111328125-.068359375-.2880859375-.103515625-.5234375-.103515625C3.889445776.0793611575,1.9685473385.6496736575.875773901,1.719009595c-.1396484375.1298828125-.2138671875.2939453125-.2197265625.4853515625-.0102539062.3560791016.2220458984.7168579102.3920898438.9384765625-.0231933594.0106811523-.0349121094.0065307617-.0610351562.0205078125-.2822265625.15234375-.66015625.73828125-.7099609375.8173828125-.0908203125.1806640625-.376953125.7919921875-.2412109375,1.0556640625.0244140625.0478515625.0732421875.0771484375.1259765625.0771484375.0048828125,0,.009765625,0,.015625-.0009765625.0576171875-.005859375.1064453125-.0478515625.12109375-.1044921875.0004882812-.0018310547.0017089844-.0056152344.0021972656-.0075073242.0079345703.094909668.029296875.1788330078.0729980469.2369995117.02734375.0361328125.0693359375.056640625.11328125.056640625.0126953125,0,.0263671875-.001953125.0390625-.0048828125.056640625-.0166015625.0966796875-.0654296875.1025390625-.1240234375.017578125-.1982421875.0927734375-.767578125.2236328125-1.0166015625.0769042969-.1449584961.2491455078-.4703369141.3771972656-.6427612305l.0856933594.4103393555c.0009765625.0044555664.0063476562.0062255859.0078125.0104980469.0015869141.0056152344-.0014648438.0113525391.0009765625.0168457031.00390625.0090942383.0168457031.0068359375.0223388672.0146484375.0124511719.0184936523.0190429688.0413208008.0391845703.052734375.0205078125.01171875.044921875.017578125.068359375.017578125.01171875,0,.0224609375-.0009765625.0341796875-.00390625.0146484375-.00390625,1.4248046875-.353515625,1.8271484375-.392578125.4045410156-.0399169922,1.5375976562-.3610229492,2.923828125-1.0415039062.1157226562-.0553588867.2028808594-.0980834961.216796875-.1049804688.0003662109-.0001831055.0004882812-.0007324219.0008544922-.0009155273.0001220703,0,.0001220703-.0000610352.0001220703-.0000610352.0007324219-.0003662109.0007324219-.0013427734.0014648438-.0017089844.0300292969-.0162963867.0521240234-.0416259766.0642089844-.0717773438.0053710938-.0127563477.0009765625-.026184082.0024414062-.0399169922Z"/><path class="cls-1" d="m6.418394711,2.3476076329l-.2131804295-.5985915532-.0139870009-.0455412719c.0051207223-.0066530093.0149573985-.0137489587.0194520543-.0203648189.0902521351-.3441382743-.3848452956-1.0922967835-.8919586234-1.4042754241-.2312657827-.1427651116-.8688006952-.1066754238-1.6230616196.0912817097-1.0959387438.2876310904-2.1217991342.8228955513-2.7434598838,1.4311229745-.1173422629.1091292616-.1792351424.2454152854-.1839237369.4058542291-.0110572982.3883656688.3090335552.8097358741.4704517168.9882221963-.0129581755.0010165851-.0184028095-.0066466347-.0342256333-.0024939062-.042828696.0112404681-.0981614048.0349183923-.1640946288.0705341961-.2612523318.1402862275-.6445857165.7398814323-.6626343083.7680163593-.0146937691.02928906-.3607767934.7223644158-.2422066552.9532018056.0057278105.0101957467.0170175177.0163884981.0283373112.0149435573.0015525173.0001011921.0029801405-.0002734901.0044077637-.0006481724.0099933624-.0026227759.017661141-.010230382.0201717914-.0200450621.002183372-.0071855199.1924676869-.7163403696.4145269763-1.0040227671.0285374306-.0368644152.0605303074-.078005545.0938716663-.1205496834-.0876657715.1722977176-.1504696645.3206172318-.1561666004.3347651482-.0100125153.0316210281-.2334485087.77338329-.076724544.9809821595.0070305396.00934519.0192482937.0132597616.0301934049.0103871975l.0004758744-.0001248941c.0112960915-.0034733326.019891917-.0133591186.0209512422-.0248275081.0006308547-.0072867121.0671486411-.7383846936.2370185619-1.060183287.1354825093-.2570760434.3819306395-.7221939336.5497573969-.7988577459l.1385985385.529787232.0063343849.0301919283c-.0030423032.0019747182-.0090235528.0058334467-.0095715605.0061680172-.0112486876.007530116-.015966412.0225019243-.0100900054.0352019371.0054005321.0128249068.0194442936.0198208111.0327687768.0163237765.014276232-.0037468227,1.433344627-.3548204408,1.8429029015-.3951675387.1190807256-.0114154801.291114788-.0458844139.4971684033-.0999635551.3545264282-.0930460974,1.317293281-.3803143953,2.6042920425-1.0349803982.0119490521-.0063151319.0149175161-.0197151651.0123918873-.0322454985.0002944588-.0003316078.0019462878-.0013055772.0021295838-.0015762193l-.0007326704-.0020648574c-.0000312235-.0001189686.0001394235-.000195546.0001082-.0003145146-.0000312235-.0001189686-.0002018705-.0000423912-.0002925784-.000145748Z"/><path class="cls-8" d="m1.3208859679,3.2563203947s-.8918209071-.9304166505-.3497337381-1.433967355C2.2612579451.5609971868,4.8027223316-.0048924613,5.3033573029.3032486694s.9663126193,1.0413283302.8791311996,1.3731170165c-.4608031567.6701428903-4.8616025346,1.5799547088-4.8616025346,1.5799547088Z"/><path class="cls-3" d="m1.4532331793,3.8863705623s1.4299778446-.3552117452,1.8468386991-.3955136821,1.6283088153-.3877471662,3.0916118867-1.1327691095L1.4945954891,3.8590895822l-.0413623097.0272809801Z"/><path class="cls-5" d="m1.4532331793,3.8863705623s.9298736655-.3418744046,2.0245813815-.476098504,2.9138692043-1.0521842876,2.9138692043-1.0521842876l-.2091952626-.6817220847s-1.6683635412.8329004625-2.950992427,1.0345192157-1.6910449773.3182672999-1.9106101076.5454354931l.1323472114.6300501676Z"/><path class="cls-10" d="m4.5552995246,2.1269459211c.0383929352-.0055125004.4167947424-.1904586068.9011779929-.3644986962s.3616456354-.7049992516.3616456354-.7049992516c0,0,.0036892419.2476383266-.4934517037.5149405076s-.7693719247.5545574401-.7693719247.5545574401Z"/><path class="cls-10" d="m1.0365492361,2.6054860625s.2411126196.4716440126.3434481007.4889568102c.0215036302.0036379171.0305978999-.0557686756.1443381867-.105732885s.4772493639-.2351334507.9645263737-.2423522089c0,0-.6949448702-.0674772683-.921290758.0517638688-.2034646248.0989931172-.5310219031-.1926355851-.5310219031-.1926355851Z"/><path class="cls-5" d="m1.3208859679,3.2563203947s-.0114120244-.0952930842-.2416447112.0854925792-.5120418015.8554502321-.5120418015.8554502321c0,0-.2301779647.7571912091-.0808789828.9554500227,0,0,.0659111238-.7401596488.2404235543-1.0705763939s.4296876353-.8072840107.5941419412-.8258164401Z"/><path class="cls-5" d="m1.3063221617,3.2451667959s.005004713-.095843409-.2526839294.0430346301-.6504156764.7556066132-.6504156764.7556066132c0,0-.3559247149.7068507763-.2426199396.9276646596,0,0,.1911594952-.718079821.4194594048-1.0138989636s.56105427-.7221890639.7262601406-.7124069393Z"/></g></g></svg>