<?xml version="1.0" encoding="UTF-8"?><svg id="Livello_2" xmlns="http://www.w3.org/2000/svg" viewBox="0 0 24.1531212775 21.4779347394"><defs><style>.cls-1{fill:#927056;}.cls-2{fill:#b67f5d;}.cls-3{fill:#a97753;}.cls-4{fill:#ddaa7a;}.cls-5{fill:#dbaa7f;}.cls-6{fill:#c99366;}.cls-7{fill:#1d1d1b;}.cls-8{fill:#191819;}.cls-9{fill:#3e2515;}.cls-10{fill:#6e4a35;}.cls-11{fill:#8a6248;}.cls-12{fill:#9b6d50;}</style></defs><g id="Where_is_found"><g id="ic_camel"><path class="cls-11" d="m6.8708899139,12.9986123539s-.9922829618,2.3369761046-1.6258005806,2.9282592154-.7461429732.7883774811-.7461429732.7883774811c0,0-.0703908465.0844690158,0,.5349704336s.4786577563,1.6753021474.4786577563,1.6753021474c0,0,.5490486029,1.1403317138.8728464969,1.3515042533s.8446901583.5704548063.7742993118.8835495987l-.0703908465.3130947923-1.8864746869-.0261473553s-.140781693-1.8040146545-.3941887404-2.240437903-1.1684880522-2.351054274-1.1684880522-2.351054274c0,0-.323797894-.3519542326.1126253545-1.0980972058s.4786577565-1.6703535441.4786577565-1.6703535441l-.1970943701-3.5667254374,3.1535099243,1.3233479148.2179836499,1.154409883Z"/><path class="cls-3" d="m15.691090958,14.0615141368s-.183016201,1.1192144598-.3589933173,1.2881524914-.4082669099.2815633861-.4082669099.2815633861l-.4364232486,2.5270313903s-.2111725396,1.2248007295-.0774299313,1.6049113008.3050575811.8487928623.4012211765.9291634682c.0951920371.0795644193.5564134771.3606548254.5561034053.7391077711l-1.865366502.0160789761s.021117254-.719995618.0703908466-1.1704970357.1684858328-2.1167554971.133516509-2.5225073563-.253180948-.673237076-.2742982019-1.1026212398.0563126773-1.3515042533-.0774299311-1.499325031-.2041334549-.3519542326-.2111725396-.5631267722c-.0070390846-.2111725396-.0422345078-1.5697158775-.0422345078-1.5697158775l.225250709-1.8512792636s.5631267722-.1689380316.6053612801.4927359257.2252507088,2.2806634275.6616739572,2.6044613215.9150810048.042234508,1.0980972058-.2041334549Z"/><path class="cls-10" d="m20.5620793978,1.1737722683s-.4082087694-.8710458634-1.0558045574-.5978329439-1.6893803167.9489650461-1.7738493326,2.1737657757.098547185,3.3083697867.1267035236,3.7729493738.0375417848,1.0417845286-.6710594036.8587683276-.430169289-.4176045437-.430169289-.4176045437c0,0-1.0386530417-2.1023877621-1.0386530539-2.102387798-.1510461809-.4442433459-.3143929767-.8846388907-.4830090743-1.3224626674-.2958179962-.7681126183-.6042166212-1.5421229877-1.0031358103-2.263575368-.0860634284-.1556472249-.1870844047-.3068938395-.3110888256-.4334465404-.1363716404-.1391740657-.239906043-.2530683975-.3790765702-.3355077651-.3168530385-.187691781-.6714412746-.3161612164-1.039210287-.3511609963-.5943831702-.0565670365-1.1697843996.1260635562-1.5672451589.5831158901-.2597795945.298729653-.3515098456.6496405124-.4635449412,1.0162239995-.0669751879.2191455972-.1251821996.4444175756-.1597063334.6712901935,0,0-.3097197248,1.0980972058-.506814095,1.0980972058s-.3801105712-.0422345079-.3801105712-.0422345079c0,0-.6053611397-1.2160060559-.7179865996-1.6286703157-.0855664467-.3135197527-.2444283481-.6012608247-.4135883156-.8766803452-.166113484-.2704593575-.3644885533-.528950474-.6302116182-.7083988109C7.2662558961-.0009350781,6.7460496237-.0626026178,6.281688704.0611710463c-.3345451373.0891718218-.6403066421.2693687914-.8953368095.5017746378-.258728763.2357763308-.4313013706.5342911612-.5495294717.8634115045-.5208922634,1.4500514364-.7320648026,2.4918359632-.7320648026,2.4918359632l-.515595681.9694507162,12.9747755161,2.4374662563.3660324019.0910634414s.9771060547.9357535998,1.4599467094,0,.2222164157-3.7447816643.2222164157-3.7447816643c0,0-.0946049008-1.3706534059.4633382638-2.0358193926.5344397235-.6371561691,1.4912178855-.4072689499,1.4866081517-.4618002406Z"/><path class="cls-3" d="m21.6790056364,1.4122790163s-1.9374572817-.6095228991-2.7105459106.1988658968c-.158880029.1661346844-.2685820929.3921559105-.3021823208.6956618249-.1970943704,1.7803244461-.084469016,2.7728353821-.084469016,2.7728353821,0,0,.0281563385,2.1609989884-.2604461323,2.4003278665s-.5138531797.4153059945-1.0206672746.2534070474-2.111727894-3.9700487936-2.111727894-3.9700487936c-.0038242186.0068009078-1.1980140083-2.5081913162-1.9568630161-2.7452308578-.7691640624-.2402642882-1.4852468805-.1478278851-1.8583183671.1830090935s-.7742993119,1.7879275017-1.5978722162,2.0483736338c0,0-.5701658569.1759771163-1.3303869993-1.2459179836s-1.7879275017-1.3726215073-1.7879275017-1.3726215073c0,0-1.1953188554-.0932817829-1.7386539093,1.5134032002-.5410834552,1.6000268267-1.0065891054,2.3017806814-1.0065891054,2.3017806814,0,0-.8869246663,1.2107225602-1.0910581212,1.3585433379s-1.5063641157,1.4922859463-1.6541848935,1.823122925-.7556789222.7374284089-.924616954,3.8346256561c0,0,.8823824459-1.2442425039.9950078004-1.3568678584l.0070390845,3.8996528976s-.0070390847.3871496559-.1478207777.5420095182-.3589933173.4997750103-.3589933173.4997750103c0,0-.0492735926.1055862698-.0351954233.2252507089s.1830162008,2.7311648452.2322897934,3.0620018239-.0070390847,1.7175366552-.0070390847,1.7175366552l-.0422345079.4927359257-.0070390847.4575405024s.0492735925.4540209601.0686310753.4645795871,2.0617284297-.0068544185,2.0617284297-.0068544185c0,0-.0795471545-.3841982815-.1725679085-.5159893678-.0900405043-.1275686915-.171623866-.2743325505-.171623866-.2743325505l-.5578474587-.8288522179s-.2217311665-.2041334549-.2534070474-1.0734604095-.0070390846-2.1293231074-.0070390846-2.1293231074c0,0,.0351954233-.689830296.6546348727-1.1579294253s1.7069780283-1.7069780282,2.0096586685-3.9242896938c0,0,2.1891553269,1.8418938175,4.0099318904,1.9451337259s3.3599897409.1501671394,4.5425559625-.46927231l.0656981234,1.6049113008s.0093854462.5443558798.2815633861.7226793577v1.1825662216s.0187708923.3472615095.1970943702.7977629273-.0563126774,3.0502700161-.0563126774,3.0502700161c0,0-.077954412.3127009841-.0792794162.4067762802-.0013250042.0940752961,0,.6479270391,0,.6479270391,0,0-.0013250042.0119250375.0344501084.0225250709s1.5091797495.0086604033,1.5091797495.0086604033l.361726779.0001408193c-.0103977404.0058913639.0121341424-.2020221017-.1298580623-.3427120049-.1431704775-.1418475045-.5273446466-.5551670157-.5273446466-.5551670157,0,0-.3476479691-.2303851001-.3406088844-1.0914997892s.1407816931-1.8301620097.1407816931-1.8301620097l.1689380317-.9408909819s.1055862698-.5021213719.1501671393-1.0488236132c0,0,.323797894-.0868153774.4106132714-.2369825166,0,0,.1501671392.1712843932.297987917.1431280546l-.0046927232,1.1379853522s.0234636155.3613396788.1595525854.6030149186.4035741867.6616739574.4270378022.7789920349.0821226542,1.0675945057.0821226542,1.0675945057l.0563126771,2.3155214726h.5373167952s1.269381599,0,1.269381599,0c0,0,.0915081005-.1615615688-.0328490617-.3117287081s-.4246914407-.4223450792-.6194394494-.6616739574-.3754178481-.7696065887-.4012278252-1.1591026062-.0680444849-1.5978722162-.0680444849-1.5978722162l-.0398881463-1.7527320785s-.0093854462-.4551941409.0563126772-.4903895641.3073733632-.4293841638.3543005942-1.2717279606c.0466177945-.8367894107.0492407106-1.4674975488.0492732447-1.475770639-.0005273538.1605601559,1.0417333095.3265022737,1.1717877529.3389551111,1.2015097141.1150458604,2.2396355691-.5328482425,2.7341466184-1.615832636.2891362683-.6332114667.3995496299-1.3362915773.4112884996-2.0322940322.0136503325-.8093369325-.0988813819-1.6040505865-.2275110696-2.3972503476-.0858562155-.5294355797-.128591213-1.0685185139-.0897944861-1.6044093278.0339490788-.4689312975.0910938516-1.1185895396.4135891105-1.4881153597.2252507089-.2580997706.2674852168-.2627924937.2721779399-.3848032943s0-.183016201,0-.183016201c0,0,.3636860404-.2393288782.668713042-.276870663s.4922234873-.0677566572.5602679723-.0396003186.1783234779.1173180776.2346361551.1220108007.4575129035-.0364207113.4228675498-.2536983447c-.0336531241-.2110141834-.1805444629-.2732352543-.1759967435-.279209304-.0067182219-.0016123733.6460862365-.1644000588.1774230737-.6006710561-.495329336-.4610974113-.6529905014-.6499724695-1.1675856309-.6804421899-.5153599732-.0305110634-.92719477.025871728-1.1004359897.0328446498Z"/><path class="cls-5" d="m23.855032939,2.6543814305s.3973970819.3955821081-.1026246737.5004690562c-.0100669972-.0138498729-.1971643105.1233465549-.4590922804-.0963496384,0,0-.5453169278-.0871703227-1.0342496252.2057458332s-.5691464175.2911399486-.8296899324.2981790332-.5778614411-.1759771163-.5778614411-.1759771163c0,0-.0295342741-.198893621-.7641500941-.6308977018s-.665956592-.9066607416-.665956592-.9066607416c-.0059120353-.0074417228-.0071109795-.7003694698.7619497257-.6992945542,0,0,.3764040284-.0002422922.7247498433.051217213.2568007326.0379359764.5747697316.1143923094.6493555592.1231839815.1757602311.0207174252,1.033264584.0152475709,1.033264584.0152475709,0,0,.6151036765-.0143267276.879636188.2131714227s.6009685311.5635086571.6009685311.5635086571c0,0,.2877839918.3132039115-.2162997924.5384569846Z"/><path class="cls-3" d="m21.7807482979,3.5263404588s-.6335803546.2054198013-1.0246427424-.2973395864l-.194024451-.1662968854-2.1177819839,4.340230908-2.2372815504,4.1514364422s1.9495148124,1.4864755251,2.7346650338,1.111057677,2.4088324148-3.1628953705,2.4088324148-3.1628953705l-.1595525853-2.9188737693-.0187708923-1.7738493325.6085567567-1.2834700832Z"/><path class="cls-7" d="m20.7466443688,1.9492369561c-.0039750125,0-.202725638-.1417754462-.5326516763-.007950025,0,0-.1106533566.0381139339-.1590471844.0267010243-.0018447754-.0004350607-.003599079-.0009420908-.0052533327-.0015259451-.0450501418-.01590005.2292257214.0967253044.3657011509.1126253545s.257050809.0371001168.3100509758-.0066250208.0212000667-.1232253878.0212000667-.1232253878Z"/><path class="cls-9" d="m22.738584081,2.3396120638c.3016250642.2236920921.7331926973.47170023,1.1121727156.3167936951-.3953023891.0325828891-.7448444111-.1948242823-1.1121727156-.3167936951h0Z"/><path class="cls-1" d="m23.866044079,1.9165110778s.0490441153.0448165415-.0823521315.0401238184-.5631267722-.0703908466-.6616739573-.1642453086-.0915081005-.1431280546.0281563386-.1431280546.4246914407.0328490617.4551941409.0516199541.1235332185.0832404967.1235332185.0832404967l.0964602007.0918892677"/><path class="cls-12" d="m2.0501024689,6.598630177s-.9252240185,1.8269235139-.8125986642,3.5069183843c0,0-.7414502501,1.0112818284-.8165338198,1.2459179835s-.2064798165.1126253544-.2064798165.1126253544c.0419873903-.6647986602.1263806673-1.3427894704.2425526167-2.0082038599.0862040172-.493762912.2235256815-.9902163792.4728838498-1.427942437.2416018076-.4241104573.4898669947-.8668643397.8385974609-1.214278849.0821426563-.0818326856.1864542273-.1485996794.281578373-.2150365764Z"/><path class="cls-6" d="m20.5832228824,3.1040222907s1.4275018033.2372806224,2.0156071744-.1868330043c.1175964886-.0848049948.2584462354-.168901172.4079807601-.1696087829.0693923135-.0003283707.1518945407.0211932026.2030567177.0708613004.0567570499.0550995848.1006714896.1136539566.1679854072.1586543714.0731967724.0489331704.1516758409.0770550936.2354742375.1014631291.0879798673.0256259763.1805824921.0497631179.2715787045.0234556372.0171237313-.0049505606.0336255166-.0122277572.0475659808-.023507375.1138583584-.0921326622.032826266-.272491082.032826266-.272491082.0034728024.0006201433.1514182559.2088848395-.0503347226.3284278755-.1518547837.0899772516-.3464643614.1221097583-.504580892.0297245403-.0293980547-.0171769986-.0546280319-.0392313958-.0812656718-.0600749002-.0153621961-.0120206597-.0332016767-.0201498416-.052694856-.0196743982-.1067887217.0025839315-.4054085193.0046510767-.5348944954.0281958607-.206652507.0375600285-.5112050113.1906321316-.6208463934.2753437424-.1348192108.1041634473-.5491577974.2763153007-.8439947192.185257554-.2863202835-.0884324722-.3790317463-.1622915707-.5314837058-.3272704302-.1494959418-.1617747844-.161979792-.1419240381-.161979792-.1419240381Z"/><path class="cls-12" d="m18.2719624862,1.159224252c-.2437260292-.0125089779-.4920356925.0382500512-.7312261621.0730059797-.0856214185.0124419471-.1711029057.0258971441-.2563579586.0406475163-.0091117386.0015764642-.0899448244.0242028441-.0963085983.0173906167.1858206795.1992824927.3792962427.3826579322.5864885002.559186437.0898160432.0765235729.2240466315.1156213315.3372913499.1471998895.1269146406.0353904482.2581044071.055511305.3898079376.0595024853.0802174027.0024307224.1730276943.0138251868.2487549944-.0178122226.2068136879-.0864027811.2725118114-.428603859.2725118114-.428603859-.0822895399-.1196628821-.1710376366-.2423173125-.2960623763-.3198052876-.1212259564-.0751335609-.2628712748-.1145577544-.4041995983-.1271641212-.0168748083-.001505217-.0337763042-.0026788487-.0506999-.0035474342Z"/><path class="cls-4" d="m18.7583844524,1.6071462291c-.0090738336-.0371815395-.0406239079-.0636003486-.0656454938-.0904864438-.02549514-.0273949367-.0535853973-.0524071472-.0841452891-.0740331117-.0604813173-.0428001129-.1299017464-.0710060525-.2025546855-.084955887-.0963367067-.0184972804-.1952564043-.0168534822-.2933378991-.0151414815-.1103547456.0019262418-.2207094913.0038524801-.3310642369.0057787167-.0551773385.0009631177-.1103546771.001926235-.1655326863.0028893637-.0596803588.0010416977-.1168842798-.004169408-.1761931478.0056440238.0207213406.0147415956.0358577441.032876824.0532848549.050931925.0173686813.0179945661.0385398091.0336562119.057674188.049815207.0692859245.0585780306.1367408888.1184182931.2128239653.1683608439.0746055432.0489726665.1541292736.0904166652.2368916154.1237871317.1655019914.0667317832.3441738634.1012680702.5226965817.0989567922.0307949899-.0003963068.0688165106.0028503759.098677923-.0052203145.0217556809-.0058799418.0402633272-.030807365.0552531524-.0466166365.0326889262-.0344759273.0604005832-.0786946351.0759652425-.1237138676.0069307068-.0200463817.0101666225-.0418636925.0052059153-.0659962615Z"/><path class="cls-11" d="m15.2505615768,15.4294429209s.5851700893-.5017265324.7189126978-1.5927846536.2375432957-1.6940730397.2375432957-1.6940730397c0,0,.8115654835.4471595444,1.1671198489.6132560967,0,0,.0430419322,2.3103103958-.3413470655,2.6736015967l-.0445596356.0584083118s-.0427589549.0394961926-.0509245258.0883125263-.0211147321.2180445072-.0211147321.2180445072l.011668473.8015866375.0163840451.7199342193.022451933.7779026734.0321281901.7971727215.0238454461.4609154793s.0656467578.4544544567.1463620331.6549118647.2087853641.4498957832.3113483663.5634165678.4601477867.4466735134.4601477867.4466735134l-1.2581184032.4352321652-.4135268408.023725151-.029576637-1.1865267271-.0281563386-1.0370918055-.0610054003-.9338518973s-.0011656667-.2381448435-.0856421966-.3601664981c-.1638421921-.2366712385-.3945123533-.6084630422-.4687409283-.8855582557-.0694269467-.2591706197-.069355687-.448348286-.0616460413-.71779209.007511127-.2625057897.0027844363-.5196947733.0144345461-.7821210103,0,0-.1226056154.0433302954-.297987917-.1431280546Z"/><path class="cls-8" d="m6.5543590785,21.4736702756s.337385986-.538797937-.2027422812-.8241160556-1.7858677589.7965530601-1.6837324057.7979687003l1.8864746869.0261473553Z"/><path class="cls-2" d="m.7486343448,15.37978183c.0054575538-.0791211745.0366354613-.1539353568.0921615164-.2105639923.1420147041-.1448346889.4601607116-.345052937.659500437.4807830684,0,0,.3378760632,2.8156338611.3941887404,3.228593494s.1740251682.8742254964.4129657221,1.1637899749c.2965615294.3593935112.7078938783,1.2331554771.6586544793,1.221310735,0,0-.4770646659-.2823659208-.6530417822-.2682877515s-.8234638051.1484841926-1.1342186922.2084313385c-.2720146093.0524738312-.2317032042.2627924879-.2317032042.2627924879-.0189569501-.1069750102-.037560954-.2140137289-.0559174327-.3210922432-.0169894254-.0991041068-.0251632662-.1997109351-.0213267615-.3001875283.0019230393-.050363666.0042885732-.1007123765.0067258659-.151051973.00804036-.1660647796.0174095969-.3320660312.0270380345-.4980452421.0090243767-.1555661462.018395117-.3111122273.027990384-.4666441603.0041351473-.0670275726.0082937191-.134053917.0125569591-.2010734883,0,0-.0321015402-1.2654267457-.0520908344-1.6403448731-.0169712622-.3182163342-.0459733095-.5466772231-.0637300869-.8430851753-.0053125632-.0886598582-.0718880026-.5527617985-.0836198104-.9610287083-.0080935374-.2816551013-.0066347313-.5520543008.0038664661-.704295963Z"/><path class="cls-12" d="m15.8197196379,13.2754944044l.3834647287-1.7022966923s2.8437901996.6124003649,3.4632296492-2.287702512.2956415556-3.2520571095.4786577566-3.9841219134.4082669099-.971393682.4927359257-1.1121753751.3378760634-.830611989,0-1.0840190365-.7742993118-.4853043658-.7742993118-.4853043658c0,0-.5229543616-.451569051-.4384853457-.8564886126s.4783265054-.5830018347.4783265054-.5830018347c0,0-.7443764452-.0515015153-.9355250658.3651944317-.0544765985.1187566917-.1649053237.2318254825-.2155654058.3563117451-.1270970663.3123137218-.1728732616.6628428428-.1804227218,1.1082609933-.010558627.6229589918-.0070390847,2.0202172953-.0070390847,2.0202172953,0,0-.0011731319,1.3361971944-.0011731821,1.336252937-.0001858929.2083271736-.0315379544.4259885763-.0679211704.6311345072-.0278331008.1569363019-.0756278778.3138104107-.1693451925.4427318957-.0905345288.1245431418-.2226319303.2183185948-.3700669114.2627090261-.2275381436.0685081694-.4788055241.0157365573-.6777647721-.1078541193-.1995392836-.1239509865-.3243473832-.3632863442-.4546602175-.5537117613-.1332068375-.1946423933-.2435470623-.404017102-.3463501805-.6284328163-.8037251503-1.7545046972-1.3299779123-2.8436262107-1.3299779123-2.8436262107,0,0-1.2250167895-2.9562290782-2.6609900586-2.8436037239s-1.9380504297,1.7769783778-1.9380504297,1.7769783778c.0037415328-.0106251264-.7896288001,1.4656059563-1.7926283291-.0545726337-.4818308778-.730281061-1.0377978067-1.892842318-2.0517216566-1.8765328664-.4996835295.0080376633-.8943714871.2395718061-1.2305347875.5639620521-.3675906001.3547169041-.6071279676.8598847285-.7358298387,1.3596777108-.2476351516.9616522496-.7371466159,1.7663184481-.8681852885,1.9426288557-.1310386763.1763104126-.921416559,1.1899851683-1.0477128983,1.299686776-.1262958095.1097011476-1.1769700416,1.2044549926-1.1769788541,1.2044641844-.0077517454.0080835545.0162943717.0873725804.01890158.1004562879.0069250196.0347517038.0142285403.0694277361.0218728936.1040282377.0152699372.0691160473.0319080195.1379264673.0496236794.2064552783.0177153567.0685276381.0365132981.13677276.0561026926.2047874874.0174896303.0607243087.0416786043.1207718746.0562496971.1815704888.0548284938.2287746357.152489114.4469760131.2848157147.6413859158.1478909299.2172766836.3424166348.3933240563.5456960707.5575613486.0022008792.0017775748.0044031363.0035534409.0066067713.0053275983.3716166945.2990967082.7862681271.5386809414,1.1990121929.7754413738.4503517397.2583330781.930744296.4939342365,1.3618160728.7810726185.489111763.3257989881,1.0271483345.5341420484,1.5869728358.7032205402.3765861614.1137367513.7613233179.2004021712,1.1501945181.2597688636.7117295704.1086555918,1.43694498.1237009491,2.152723089.0465091923,2.8719465383-.3097197246,3.7166366966-.6898302958,3.7447930352-.0281563384s.2111725395,2.0131782107.4082669097,2.3369761047.334356521.571925628.7285452615.5560876876.668713042-.6159199071.668713042-.6159199071l.1339079934-.4833390923Z"/><path class="cls-2" d="m15.3090932745,21.1922304983c-.0093895109-.0240326574-.019130712-.0475157897-.0322816829-.0697145171-.0614609989-.1037456455-.1835418371-.2343724135-.2550327813-.2809112518-.1138376869-.0741071559-.2733533638-.2032264357-.3084705987-.2896597035-.0547776314-.1348229634-.3549482625-.7191139362-.3188748377-1.3444667181.028979324-.5023726187.0659403748-.966826849.079356944-1.1300746421.003527082-.0429162143.0023646678-.0843674486-.0036666894-.1270038706-.0403796775-.285449014-.2188840926-1.4174740565-.5261459629-1.5444756296-.3519542326-.1454744162-.5442260094-.0234796154-.5443347074,0-.0001086981.0234796154-.0041842496.4872187976.0882145034.7132939115s.2009945229.5018400247.1960201385.816575915-.0692431382,1.4972056487-.0692431382,1.4972056487l-.0750242055.9811340283c-.0025066081.0327803338-.0077924348.0647265093-.0156766995.0966431466-.0224711202.0909663265-.0680300138.2962233562-.0539209247.4142396969.0001851236.0015484778.0023416549.3362742381.0023463615.3378760633.0007453148.2536554858-.0542423582.193367796.2239327764.2119980821l1.680994674.0007901942c.000640815.0011162584-.005167863-.1175378768-.0198652655-.1617954559-.0314206072-.094592565-.0483279041-.121654898-.0483279041-.121654898Z"/><path class="cls-8" d="m15.0392639403,20.9485528762c-.012497266-.0061599659-.0251977247-.0119084292-.0380788858-.0172261582-.0746858389-.0308325509-.1583145953-.0350635883-.2386200108-.0299755663-.2502852827.0158576956-.4933633671.1122007868-.7178238174.2181235132-.1099227123.051872461-.395377135.0753069149-.4954491779.1446601023-.0822758986.0570198793-.0805208627.1285134586-.0775127439.2137999719h1.9131052277c.0143798691,0-.0196446471-.1711115273-.0231357887-.1814679203-.0153920886-.0456602884-.0462585939-.09145137-.0734103225-.1314103605-.0280171107-.0412325668-.0609297921-.0791173322-.0976780825-.1127930071-.0452415183-.0414587197-.0963477066-.0765767953-.1513963981-.1037105751Z"/><path class="cls-8" d="m2.6338858158,20.9485528757c-.0134366461-.0061599659-.0270917582-.0119084292-.0409411556-.0172261582-.0802997379-.0308325509-.1702146043-.0350635883-.2565563248-.0299755663-.2690984384.0158576956-.5304479361.1122007868-.7717803709.2181235132-.118185256.051872461-.4250963879.0753069149-.5326905307.1446601023-.0884603185.0570198793-.0865733621.1285134586-.0833391326.2137999719h2.0569073168c.0154607585,0-.0211212733-.1711115272-.024874833-.1814679202-.0165490633-.0456602884-.0497357065-.09145137-.078928345-.1314103605-.0301230686-.0412325668-.0655096925-.0791173322-.1050202361-.1127930071-.0486421806-.0414587197-.1035898599-.0765767953-.1627763881-.1037105751Z"/><path class="cls-8" d="m17.831387428,20.9485528764c-.012497266-.0061599659-.0251977247-.0119084292-.0380788858-.0172261582-.0746858389-.0308325509-.1583145953-.0350635883-.2386200108-.0299755663-.2502852827.0158576956-.4933633671.1122007868-.7178238174.2181235132-.1099227123.051872461-.395377135.0753069149-.4954491779.1446601023-.0822758986.0570198793-.0805208627.1285134586-.077512744.2137999719h1.9131052277c.0143798691,0-.0196446471-.1711115273-.0231357887-.1814679203-.0153920886-.0456602884-.0462585939-.09145137-.0734103225-.1314103605-.0280171107-.0412325668-.0609297921-.0791173322-.0976780825-.1127930071-.0452415183-.0414587197-.0963477066-.0765767953-.1513963981-.1037105751Z"/><path class="cls-10" d="m.2089117872,12.5829235122c-.1036640005-.1310302828-.2013362341-.2689854948-.2082741408-.4426343156-.0025531351-.063902401.0032598191-.1278073178.0051455095-.1917328959.0022171442-.0751614964-.0009796877-.1507027715.0084917095-.2252980718.0094713252-.0745947333.0328050236-.1496681101.0815695952-.2069052496.0591631266-.0694423841.1852649105-.1198233556.2620106126-.0482627698.0200887262.0187314857.028356747.0502720485.0383422645.0757099787.0124561375.0317317908.0236148624.0640041959.032621599.0968919906.0177396249.0647756411.0272400476.1323844516.0210344075.1995338601-.0006210109.0067197763-.0013932188.0134254577-.0023237671.0201094912-.0205713074.1477617291-.1156535922.2728564548-.1733256811.4104451095-.0413430333.0986323237-.0636360944.2052090651-.0652921089.3121428725Z"/></g></g></svg>