<?xml version="1.0" encoding="UTF-8"?>
<svg id="Symptoms" xmlns="http://www.w3.org/2000/svg" viewBox="0 0 32 32">
  <defs>
    <style>
      .cls-1 {
        fill: #fff;
      }

      .cls-2 {
        fill: #fafafa;
      }

      .cls-3 {
        fill: #d99898;
      }

      .cls-4 {
        fill: #86c0dc;
      }
    </style>
  </defs>
  <g id="ic_recurrent_fever">
    <circle id="Ellisse_7" data-name="Ellisse 7" class="cls-1" cx="15.15" cy="22.73" r="4.54"/>
    <path id="Rettangolo_3" data-name="Rettangolo 3" class="cls-1" d="m13.86,4.73l3.2.05c.52,0,.94.44.93.96h0s-.23,13.52-.23,13.52c0,.07-.06.13-.14.13l-4.95-.08h0l.23-13.66c0-.52.44-.94.96-.93Z"/>
    <circle id="Ellisse_8" data-name="Ellisse 8" class="cls-3" cx="15.15" cy="22.73" r="3.6"/>
    <path id="Rettangolo_4" data-name="Rettangolo 4" class="cls-1" d="m21.35,17.94h0c0,.19-.16.35-.36.35h0l-2.79-.05h0v-.7h.01l2.79.05c.19,0,.35.16.35.36h0Z"/>
    <path id="Rettangolo_7" data-name="Rettangolo 7" class="cls-1" d="m21.39,15.18h0c0,.19-.16.35-.36.35h0l-2.79-.05h0v-.7h.01l2.79.05c.19,0,.35.16.35.36h0Z"/>
    <path id="Rettangolo_5" data-name="Rettangolo 5" class="cls-1" d="m20.75,16.55h0c0,.19-.16.35-.36.35h0l-2.18-.04h0v-.7h.01l2.18.04c.19,0,.35.16.35.36h0Z"/>
    <path id="Rettangolo_6" data-name="Rettangolo 6" class="cls-1" d="m20.8,13.78h0c0,.19-.16.35-.36.35h0l-2.18-.04h0v-.7h.01l2.18.04c.19,0,.35.16.35.36h0Z"/>
    <path id="Tracciato_7" data-name="Tracciato 7" class="cls-3" d="m13.55,12.92s.58-.2,1.78-.08c1.2.12,1.75-.23,1.75-.23l-.16,9.93-3.52-.06.16-9.56Z"/>
    <g>
      <path class="cls-4" d="m7.48,25.31c-.83-1.25-.89-2.87-.16-4.16l-.81-.49,2.68-1.09.31,2.87-.75-.45c-.49.84-.45,1.72.1,2.44l.08.11-1.38.87-.07-.1Z"/>
      <path class="cls-2" d="m9.08,19.75l.26,2.46-.64-.39c-.63,1-.51,1.97.05,2.69l-1.16.73c-.8-1.21-.89-2.81-.1-4.14l-.7-.42,2.29-.93m.21-.36l-.31.12-2.29.93-.46.19.43.26.49.3c-.69,1.32-.61,2.93.23,4.19l.14.2.21-.13,1.16-.73.23-.15-.17-.22c-.5-.65-.56-1.42-.16-2.19l.43.26.43.26-.05-.5-.26-2.46-.04-.33h0Z"/>
    </g>
    <g>
      <path class="cls-4" d="m11.95,21.8l.79-.38c-.4-.82-1.08-1.28-1.92-1.28-.05,0-.3.02-.3.02l.04-1.63h.12c1.5,0,2.88.85,3.55,2.18l.86-.4-.58,2.83-2.56-1.34Z"/>
      <path class="cls-2" d="m10.68,18.66c1.45,0,2.84.82,3.49,2.22l.74-.35-.5,2.43-2.19-1.15.68-.32c-.45-1.02-1.25-1.46-2.09-1.46-.06,0-.11,0-.17,0l.03-1.37m-.24-.25v.24s-.04,1.37-.04,1.37v.27s.27-.02.27-.02c.05,0,.1,0,.15,0h0c.75,0,1.37.39,1.75,1.09l-.45.21-.45.21.44.23,2.19,1.15.29.15.07-.33.5-2.43.1-.49-.45.21-.52.24c-.71-1.3-2.1-2.14-3.61-2.14h-.24Z"/>
    </g>
    <g>
      <path class="cls-4" d="m8.71,26.09l2.41-1.59-.05.88s.09,0,.14,0c.91,0,1.61-.43,1.98-1.22l.06-.12,1.41.82-.06.11c-.7,1.27-2.04,2.07-3.49,2.07-.04,0-.09,0-.13,0l-.06.94-2.2-1.88Z"/>
      <path class="cls-2" d="m13.3,24.21l1.18.69c-.66,1.2-1.94,2-3.38,2-.08,0-.16,0-.25,0l-.05.82-1.88-1.61,2.06-1.36-.05.75c.09,0,.18.01.27.01,1.03,0,1.74-.53,2.09-1.29m-.11-.35l-.12.25c-.34.74-1,1.15-1.86,1.15h0l.03-.5.03-.5-.42.28-2.06,1.36-.28.18.25.22,1.88,1.61.38.32.03-.5.04-.58s0,0,.01,0c1.49,0,2.87-.82,3.6-2.13l.12-.21-.21-.12-1.18-.69-.24-.14h0Z"/>
    </g>
  </g>
</svg>