<?xml version="1.0" encoding="utf-8"?>
<!-- Generator: Adobe Illustrator 26.3.1, SVG Export Plug-In . SVG Version: 6.00 Build 0)  -->
<svg version="1.1" id="Various" xmlns="http://www.w3.org/2000/svg" xmlns:xlink="http://www.w3.org/1999/xlink" x="0px" y="0px"
	 viewBox="0 0 128 82" style="enable-background:new 0 0 128 82;" xml:space="preserve">
<style type="text/css">
	.st0{fill:#FFFFFF;}
	.st1{fill:#E8E8E8;}
	.st2{fill:#E0CA8D;}
	.st3{fill:#343434;}
</style>
<g id="ic_animals_complications">
	<path id="Tracciato_67-2" class="st0" d="M117.3,30.6c0,0-3.3-2.3-5.5-5.1s-1.5-3.5-3.3-6.2c0.3-0.1,4.3-1.9,0-6.7
		c-4.4-4.8-3.3-3.5-3.3-3.5s2,5.8,1.2,7.7c0,0-4.6-2.7-9.2-2.2c-0.2-0.2,1.5-5.1,1.5-5.1l-3.5,3.5c0,0-2,1.8-1.8,4.3L89.6,22
		l-14.7,4.6l-23.6,3.8c0,0-5.7,0.9-13.6,0.4s-8.6-0.4-14.2,0s-13.2,0.4-14.2,8.8S7.4,56.9,7.4,56.9S4.7,55.6,5.3,63s3.3,4.8,3.3,4.8
		s3.3,1.3,0.6-12.2c0,0-2.1-17.2,5.9-21.9c0,0-2.3,2.2-1.4,7.7c0.9,5.5,1.8,8.9,2.6,17.9c0.8,9-3.4,5.1-1.3,9.4c0,0-0.4,0.7,8,1.5
		c7.1,0.7,12.7,2.7,20.8,0.1c1.3-1.9,1.3-1.6,1.4-2.4l17.3,0.8c0,0,0.7,1.6,7.8,1.5s12-1.4,19.8-1.5c4.3-0.1,6.7-4.1,5.7-6.3
		c-0.8-2.1-1.7-1.7-9.3-1.1C93,53.1,97.4,40,97.4,40s2.8,1.6,6,1.4c3.2-0.3,13.4-1.6,14.3-1.9c0.9-0.3,2.7-0.7,3.2-2.9
		s-0.1-3.9-0.3-4.1c-0.2-0.2-0.9-0.3-1.4-0.6C118.6,31.5,117.3,30.7,117.3,30.6L117.3,30.6z"/>
	<path id="Tracciato_74" class="st1" d="M45.2,67.4c0.5-0.6-0.7-1.3-1-1.7c-2.2-1.6-2-1.7-4.1-2.2c-3.6-0.6-3.8-0.9-7.8-0.7
		c1.4-0.7,5.5-2.6,4.9-10.4c-0.6-7.8-5.1-11.8-3.4-6.8S32.5,57.8,30,61.8c-1,1.7-0.7,1.1-0.7,1.1s-1.5,2.8,4.2,2.6
		c2.5-0.2,5,0.1,7.4,0.7C43.4,66.8,44.6,66.9,45.2,67.4L45.2,67.4z"/>
	<path id="Tracciato_75" class="st2" d="M44.2,68.4c-0.2,0.2-0.7,1.1-1,1.3s-1.9,0.8-3.6,0.9c0,0,0.5-3.8,0.6-3.9
		c0,0,1.4,0.3,2.5,0.6c0.6,0.1,1.1,0.3,1.6,0.6C44.4,68,44.4,68.2,44.2,68.4L44.2,68.4z"/>
	<path id="Tracciato_77" class="st2" d="M63.3,67.7c0.4,0.5,1,0.6,1.3,0.8s2.3,0.6,4.3,0.6c0,0-0.9-4.1-1-4.2c0,0-1.7,0.5-2.9,0.9
		c-0.7,0.2-1.3,0.4-1.9,0.8C63,66.9,63.1,67.3,63.3,67.7z"/>
	<path id="Tracciato_82" class="st3" d="M38.8,48.3c1.2,4.4-1.5,8.1,3.6,9.6c5.1,1.6,3.3-1.3,5.3-1.6s2.2,1.3,3-0.1
		c0.8-1.5-1.2-2.9-0.7-5.7c0.4-2.8-1.7-5.7-3-8.1c-1.3-2.4,0.4-5.9-2-6c-2.4,0-2.2,0.9-3.8,2c-1.6,1.1-3.9-0.4-4.4,2.3
		S37.5,43.9,38.8,48.3L38.8,48.3z"/>
	<path id="Tracciato_81" class="st3" d="M77.5,50.6c1.4-2.2-0.4-3.1-2.6-3.7c-2.2-0.6-3.2,1.1-5.4,0.2c-2.3-0.8-3.2-3.2-3.2-3.2
		s-0.8-1.4-3.9,1.2c-0.8,0.7-2.7-0.2-4,1.4c-1.3,1.6-1,4.3,1.4,4.1c4.3-0.3,2.5,1.8,2.2,2.4s-1.6,0.9-4.2,1.8
		c-1,0.3-1.8,3.1-0.3,4.6s4,1.7,6.1,1.4c2.1-0.3,3.6-1.2,5.9-2.8c2.3-1.7,3.2-1.5,3.8-3.4S76.1,52.8,77.5,50.6L77.5,50.6z"/>
	<path class="st0" d="M68.1,27.6c0,0,10,11.7,11.3,21.1c1.3,9.4,5.4,12.7,5.4,12.7s8.9,4.8,4.2,7.6c-3.2,1.9-7.1,1.9-12,1.9
		c-4.9,0-7.6,2.3-10.9,2.2c-13.8-0.2-11.7-1.8-22.2-0.5S28,70.8,19.1,73.4c0,0,5.4-10,6.7-22.7s-3.5-19.4-2.3-19.8
		c6.6-1.3,11.8,0.7,24.2-0.2C53.6,30.2,58.7,28.8,68.1,27.6z"/>
</g>
</svg>
