<?xml version="1.0" encoding="UTF-8"?>
<svg id="Livello_1" data-name="Livello 1" xmlns="http://www.w3.org/2000/svg" version="1.1" viewBox="0 0 40.5 65.2">
  <defs>
    <style>
      .cls-1 {
        fill: #e28a7f;
      }

      .cls-1, .cls-2, .cls-3, .cls-4, .cls-5, .cls-6, .cls-7, .cls-8, .cls-9, .cls-10, .cls-11, .cls-12, .cls-13, .cls-14, .cls-15, .cls-16, .cls-17, .cls-18, .cls-19, .cls-20, .cls-21 {
        stroke-width: 0px;
      }

      .cls-2 {
        fill: #7e5239;
      }

      .cls-3 {
        fill: #b2a8a7;
      }

      .cls-4 {
        fill: #6b412c;
      }

      .cls-5 {
        fill: #895940;
      }

      .cls-6 {
        fill: #000;
      }

      .cls-7 {
        fill: #cf7553;
      }

      .cls-8 {
        fill: #fad3c2;
      }

      .cls-9 {
        fill: #a37d76;
      }

      .cls-10 {
        fill: #e0b7af;
      }

      .cls-11 {
        fill: #be5456;
      }

      .cls-11, .cls-13, .cls-15 {
        isolation: isolate;
        opacity: .7;
      }

      .cls-12 {
        fill: #2b0500;
      }

      .cls-13 {
        fill: #c4676a;
      }

      .cls-14 {
        fill: #90817c;
      }

      .cls-15 {
        fill: #b5393d;
      }

      .cls-16 {
        fill: #d8d3d0;
      }

      .cls-17 {
        fill: #cea19b;
      }

      .cls-18 {
        fill: #fff;
      }

      .cls-19 {
        fill: #efc6bb;
      }

      .cls-20 {
        fill: #af9fa0;
      }

      .cls-21 {
        fill: #7c6f67;
      }
    </style>
  </defs>
  <path class="cls-18" d="M5.3,64.8l.4-1.9c.2-1.1.2-2.5,0-3-.6-1-1.2-2-1.4-3.1s-.3-2.5-.6-3.8v-.2c-.1-.4-.3-.9-.4-1.3v-.3h0c-1-2.9-3.8-14.1-3.2-21.6-.2-1-.1-2,0-3,.6-3.1,4.2-5.5,7.3-7.2,1.4-.8,3.5-4.9,5.3-8.6.9-1.8,1.8-3.6,2.7-5.3C18,.7,21.5,0,23.4,0s1.6.2,2.2.4c.6.3,2.4,1.1,3.4,1.7s1.1.6,1.6,1.1h0c.3.3.5.6.7.8l.6.7c.5.7,1,1.4,1.2,2.1,0,.2.2.4.2.6.4.8,1.1,2.3.2,3.8v.9c-.2,1.3-.4,2.1-.6,2.7,0,.5,0,.9-.4,1.3l-.5.7h0c0,.5-.2.8-.4,1.1,0,.4-.2.8-.3,1.1,0,.7,0,1.5-.6,2.1-.4.5-1.1.9-1.8.9s0,0-.2,0c0,.2-.2.3-.3.4,0,.1,0,.2-.2.3,0,.2-.3.3-.4.4-.4.8-1,1.8-2,2.2,1.9,1.3,3.8,2.4,4.9,2.8,3.8,1.4,6.3,4.9,6,8.2,0,.5,0,.9-.2,1.3v.7h0c0,0,0,.4,0,.4-.3.8-.8,1.5-1.2,2.2.4.2.7.5.9.8.2,0,.5.2.6.4.6.5.8,1.2.6,1.9,0,0-.6.6-.7.7.9,1.1,1.3,2,2.2,3.6,2.3,4.2,1.8,9.3,1.7,9.5-.2,1.2-.6,2.2-1,2.9-1,1.6-2.3,2.7-3.7,3.3l-.5,1.2H5.7l-.4-.4Z"/>
  <g>
    <path class="cls-10" d="M38.7,55.1v.3h0s0,.9,0,1.3c-.2,1-.4,2.1-.9,2.8-.8,1.2-2.4,3.2-5,2.9h0c0,0-.5-.2-.8-.5-.5.4-.8.6-.8.6l-4.3-3.7-9.6,1.1.5-8.3v-2.7s3.3-2.7,7.1-4.4c.2,0,.4-.2.6-.3.2,0,.3,0,.5-.2.5-.2,1-.4,1.5-.5h.6c2-.5,3.9-.5,5.3.5,0,0,.2.2.4.3-.8.4-1.4.9-2.2,1.2-.7.3-2.6.3-3.4.3,0,1-.3,2-.6,2.6-.8,1.3-1.2,2.8-1.9,2.9-.7,0-1.2-1-2.5-1.1h0c-.8,0-2.5.6-3.5.9h-.7c0,0-.3,0-.5.2l.9,1s3-1.4,4.1-1.3c1.1.2,1.2,1.5,2.9.2s1.9-3.8,3-4.6,5.2-1.8,5.2-1.8c4,3.7,4.2,10.3,4.2,10.3Z"/>
    <path class="cls-17" d="M34.5,44.8s-4,1-5.2,1.8c-1.1.8-1.4,3.3-3,4.6-1.7,1.3-1.8,0-2.9-.2-1-.2-4.1,1.3-4.1,1.3l-.9-1c.2,0,.3,0,.5-.2h.7c1-.3,2.8-.9,3.5-.9h0c1.3,0,1.9,1.3,2.5,1.1.7,0,1.1-1.6,1.9-2.9.3-.5.5-1.5.6-2.6.8,0,2.7,0,3.4-.3s1.4-.8,2.2-1.2c.2,0,.4.3.5.4l.2.2h.1Z"/>
    <path class="cls-9" d="M33.6,45.4s-4.8-.4-5,2,.8,5.9.5,7.4-.8,5,2.6,6.1,5.2-1.2,5.7-3.1.8-7.4-1.4-10.5c0,0-.8-1.5-2.3-1.8h0Z"/>
    <path class="cls-10" d="M34.5,44.8h0Z"/>
    <path class="cls-6" d="M34.1,62.4l-.4.9H14.2l4-4.1h.4l.4-2.7s.4,0,2.4.2c1.9,0,5.3,1.9,5.3,1.9,0,0,3.4,3.1,7.3,3.8h0Z"/>
    <path class="cls-20" d="M32.6,40.7s1.6-1.9,1.9-3.1-6,0-7.5,1.5-2.9,2.6-2.9,2.6l8.4-1.1h.1Z"/>
    <path class="cls-10" d="M17,28.7l-2.5,3.8s0,2.4.2,2.9,1.5-.3,2-1.2,1.1-2.1,1.2-3.2-.3-3.6-.8-2.3h-.1Z"/>
    <path class="cls-19" d="M29.3,29.6h-.5s-4.7-.5-6.8-.7c-2.2-.2-4.5-3.2-4.7-1.8s-.6,1.6-1.7,2.4c-1.1.9-1.3-1.5-1.3-2.5s1.4-1.7,2.7-3.3c1.2-1.6-.3-2.9,0-3.9.4-1,1-3.3,1.3-1.3.2,2,2.9,3.7,2.9,3.7l-.5,1s3.4,3.3,5.5,4.4,3.2,1.7,3.2,1.7v.3Z"/>
    <path class="cls-10" d="M28.7,29.7c-2.3.4-10.9,1.9-10.9,1.3s-.7-2.1-1.4-1c-.6,1.1-2.6,2.5-2.6,2.5v-2.4c0-2.2-3.4-7.5-3.4-7.5l4.6-1.9,3.1-5.7c2-1.7,3.3,6.2,3.3,6.2l-.5,1.1s-2.7-1.8-2.9-3.7c-.2-2-.9.4-1.3,1.3-.3,1,1.2,2.3,0,3.9s-2.7,2.4-2.7,3.3.2,3.3,1.3,2.5c1.1-.9,1.6-1.1,1.7-2.4.2-1.4,2.5,1.6,4.7,1.8s6.8.7,6.8.7h.2Z"/>
    <path class="cls-17" d="M16.5,30s-.6,1.6-1.2,2.3-.8.9-.7,1.9.7.8,1.5,0,1.7-3.3,1.7-3.3c0,0,.2,3.4-3.2,5.6,0,0-.5-.4-.7-4.1v-1.1c0-.5,1.7-.8,2.2-1.6s.6-.5.4.2h0Z"/>
    <path class="cls-20" d="M14.5,36s1.8-.8,2.8-3.4,6.9-1.7,8.6,1,.8,6.8-1,7.9-7.8,2.3-9,2.4-1.4-7.9-1.4-7.9Z"/>
    <path class="cls-14" d="M5.2,52.5h0c-.1-.5-.3-1-.5-1.5h0c-1.3-3.5-6.2-23.7-.7-27,2.8-1.7,4.4-2,5.4-1.9-1.6.3-3.2,1.1-1.8,2.5,0,0,1.8,2.4,3.3,5.3.1.3.3.5.3.6-.5-.8-2.1-3.4-3.7-4.1-2.3-1.1,1.8,1.8,2.8,5.3,1.1,3.5-1,2.5-3.8,1.7s4.6,2.9,4.8,4.2c.2,1.3-3.7.2-5.4.4-1.8.2,3.6,1.2,4.5,2.6.8,1.4-3.9,2.3-5.2,3.4-1.2,1.1,2.7-.8,4.4-.4,1.7.4-2.5,3.4-3.1,6.2h0v.2c-.4,2.8,3-4.1,4.4-5,.4-.3.8-.6,1-.9h0c.5-.7.6-1.5.5-2.8-.1-1.9-.1-3,0-4.3s-.8-4.8-.9-5c0,0,1.5,1.6,2,6,.5,4.5.7,6,.7,6l.5-7.9c0,1.1.2,2,.4,2.6.3,1.1.7,2.9,1.4,5,0,.2,0,.3.2.5.5,1.3,1.1,2.7,1.9,4.1.2.3.3.6.4,1,.2.6.3,1.2.4,1.8h0c-.2,0-.3,0-.4,0h0c-1.7.7-5.2,1.5-7.6,1.8-2.3.3-3.5,1.3-4.6,1.2h-.1c-.3,0-.4,0-.3,0-.5-.3-.9-.9-1.1-1.5h-.1Z"/>
    <path class="cls-14" d="M17.8,63.3H7.2s.8-3.2-.5-4.5c-.7-.7-.8-1.8-1-3.2.6.2,1.6.4,2.9,0,2.2-.8,3.3-1.5,6.1-1.7,2.7,0,4.6-1.4,4.7-1.5,0,4.4-1.6,11-1.6,11h0Z"/>
    <path class="cls-19" d="M31.9,11.7c-.4,2.4-.6,2.6-1.2,3.6,0,0,0,.1,0,.2h-.3s-.7.3-.8.6c0,.4,0,2.4,0,2.4,0,0,0,1.1-.2,1.5s-.7.4-1.1.2c-.3-.1-.3-.5-.6-.2-.2.3-.8.7-1.1,1.4-.3.7-1.1,2.6-1.9,2.3-.8-.2-1.8-.2-3.8-2s-2.3-3-2.1-4.7l.2-1.7s-1,.2-1.1-.9-.2-3.3.5-4.1c.7-.8,1.8.4,1.9.8,0,.4,3.1-1.1,5.6-1.5,1.8-.3,2.9-.8,3.8-1,.3,0,.7-.2,1-.2,0,0,1.1.7,1.3,2.3h0v1.1h-.1Z"/>
    <path class="cls-17" d="M19.7,11.7s-.2-1.1-1-1-.6,2.7-.5,3.3.8.5.9-.2-.7-.6-.5-1.2,1.1.2,1-.8h0Z"/>
    <path class="cls-16" d="M12,23.3s3.3,3.1,4.1,4.3,2,3.6.5,6.6,1,1.3,2.7-.7,3.4-.7,4.9.9.5,5.7-1.1,6.9,1.8.8,4.1-.9,3.2-2.3,4.8-1.6,2.6,0,2.9-2.8c.3-2.8-2-5.5-5-6.6s-9.3-5.9-9.3-5.9c0,0,2.8,3.9,6.1,4.9,0,0,1.5.6-2.5,1s-4.9-.2-6.5-1-2.7-4.1-5.7-5.1Z"/>
    <path class="cls-10" d="M34.5,43.9c-.2,0-.4,0-.7.2h0c-.8.4-1.4.9-2.2,1.2-.7.3-2.6.3-3.4.3h-.4s.2-1,0-2.1h0c-.2-.8-.7-1.7-1.7-2.2h.2c.5-.5,1.8-1.4,2.5-2,.8-.7,1.7-1.2,1.9-.8.2.3.5,1,1.1,1.3.7.3.9.9.9,1.3s0,.8,1,.9c.9.2.4.9.3,1,0,0,.9-.2,1.1,0,.3.2.3.7-.7.9h.1Z"/>
    <path class="cls-3" d="M14.7,35.9l-.5,7.9s-.2-1.5-.7-6c-.5-4.4-1.9-5.9-2-6,0,.2,1,3.8.9,5-.1,1.3-.1,2.4,0,4.3.1,1.9,0,2.8-1.5,3.7-1.4.9-4.8,7.8-4.4,5s4.9-6,3.2-6.4c-1.7-.4-5.6,1.5-4.4.4s6-2,5.2-3.4-6.2-2.5-4.5-2.6c1.8-.2,5.6.9,5.4-.4-.2-1.3-7.6-5-4.8-4.2s4.9,1.8,3.8-1.7-5.2-6.4-2.8-5.3c1.6.8,3.3,3.5,3.7,4.2,0,0-.2-.4-.4-.7-1.5-2.9-3.3-5.3-3.3-5.3-1.4-1.5.2-2.2,1.8-2.5.9.1,1.2.6,1.2.6,0,0,3.9,3,3.9,6.4s0,4.9.2,6.9h0Z"/>
    <path class="cls-5" d="M29.1,4s-2-1.9-4.3-2.3-5.1-1.1-8.2,4.5c-3.1,5.6-6,13-8.6,14.5s-6,3.7-6.5,6.1.4,4.1.4,4.1c0,0-.8-3,.5-5s3.3-3,5.3-2.7-2.9-.9-5.2,3.3c0,0,2.5-3,6.4-2.8,4,.3,5.6,1.1,7,0s2.8-7,3-8.5-1.6-2.9.8-6.5,9.2-4.7,9.2-4.7h.2Z"/>
    <path class="cls-4" d="M31.9,10.6h0c-.2-1.6-1.3-2.3-1.3-2.3-.4,0-.7,0-1,.2l-.7-.7-1.5-3.8s.7-.8,1.5-.3c.7.5,2.4,2.4,2.7,3.4s1.4,2.3.4,3.5h-.1Z"/>
    <path class="cls-21" d="M26,47.1c-.7,1.1-1.8,2.9-2.8,2.9h0c-.8,0-2.5.6-3.5.9h-.7s-.4,0-.9-.3h-.2c-1-.3-2.5-.6-3.7-.6s-1.1,0-1.3.3h0c-1.1,1-4.3,3.6-5.8,3.6s0,0-.1,0h-.1s-.2,0-.3,0c-.5-.3-.9-.9-1.1-1.5h0c-.3-.7-.4-1.4-.5-1.5h0c.6,0,1.2-.5,1.8-1.2.8-.9,1.5-2.2,2.1-2.9,1-1.3,3.1-2.6,3.3-2.7h4.8c2.9,0,6.1-.3,6.6-1,.9-1.3.8-1.4,1.7-1.1.4.2.8,1.1,1.1,2.1v.2c.2,1.1.3,2.3,0,2.8h-.4Z"/>
    <path class="cls-3" d="M28.2,45.6c0,1-.3,2-.6,2.6-.8,1.3-1.2,2.8-1.9,2.9-.7,0-1.2-1-2.5-1.1h0c-1.2,0,1.7-.7,2.4-3.4.2-.8.2-1.4,0-2v-.3c-.3-1.2-1-1.9-1-1.9,0,0,.3,1,.3,2.1v.5c0,1.2-.3,2.4-1.3,3.2-1.8,1.5-2.8,2.1-4.1,2.6,0,0-.2,0-.3,0,0,0-.2,0-.3,0h0c0,0-.3,0-.5.2-.2,0-.5.2-.7.3-1.9.6-4.5,1.2-6.4,1.4-2.2.3-3.4,1.2-4.5,1.2h-.2c-.3,0-.4,0-.3,0,.3,0,1.7-.2,2.7-1.6.2-.3.4-.7.6-1.1,1.1-2.3,2.3-5.9,2.3-7.2,0,0,1.2-.5,1.7-.2.4.3,1.6-.3,3-.3s9.2-2.4,9.2-2.4h.6c.4,0,.9.2,1.4.8.2.3.4.8.5,1.4h0c0,.7,0,1.5,0,2.2h-.1Z"/>
    <path class="cls-2" d="M30.7,9.1c-.4.7-3.7,2.3-6.9,2.5,0,0-1.5.7-2.3,1.9-.7,1.2-1,3.1-2.2,3.1,0,0,1.1-.7,1.1-2s0-3.4,0-3.4c0,0-.6-1-1.3-1.2,0,0,2-4.6,3.7-5.8,1.7-1.1,4.2-1.4,4.8-.2,0,0,1.5,1.8,2.4,2.9.9,1.1,1.2,1.2.7,2.2h0Z"/>
    <path class="cls-2" d="M25.2,13.5s1.9.2,2.9.5,1.3.3,1.5.1,0,.6-.6.9-1.7-.8-2.1-.8-1.5-.5-1.9-.4-.7-.5.2-.4h0Z"/>
    <path class="cls-12" d="M28,15.8s-.9.4-2-.2-.2.4.6.4,1.4-.3,1.4-.3h0Z"/>
    <path class="cls-10" d="M26.9,19.4s-.6-.1-.5-.7.6-.7.9-.6c0,0-.6.1-.7.6s.3.7.3.7Z"/>
    <path class="cls-1" d="M26.8,21.2s0,.5-.5.5-1.7-1.5-2.3-1.5-.2-.3-.2-.3c0,0,1.3,0,1.9.3s1.1,1,1.1,1Z"/>
    <path class="cls-7" d="M27.2,20.7s-.4,0-.5-.2-2.2-.6-2.9-.5.7.2,1.2.4.9.7,1.3.7.3.2.5.1c.3,0,.4-.5.4-.5Z"/>
    <path class="cls-10" d="M30.6,15.5c-.5.8-.5.9-.6,1.3,0,.5,0,1.3-.4,1.6,0,0-.2-2,0-2.4,0-.4.8-.6.8-.6h.3Z"/>
    <path class="cls-12" d="M29.6,16.2s.5.3.7.3,0,.2,0,.2-.5-.5-.5-.5h-.1Z"/>
    <path class="cls-2" d="M30.9,14.6s-.6.5-.6.7.5.2.5.2c0,0,.4-.5.5-.6s0-.5-.3-.3h-.1Z"/>
    <path class="cls-21" d="M19.4,52.3c0,0-2,1.4-4.7,1.5-2.8.2-4,.9-6.1,1.7-1.3.5-2.3.3-2.9,0-.1-.9-.2-1.9-.5-2.9h0c.3.5.6,1.1,1.1,1.4h.3q0,0,.1,0c1.1.2,2.4-.9,4.6-1.2,2.4-.3,5.9-1.1,7.6-1.8h0s.2,0,.4,0v1.3h0Z"/>
    <path class="cls-8" d="M33,60.5c.9,0,.9-.3,1.5-.8h0c0,0,0-.3.2-.3h0c0,0,0-.2.2-.4h0c.4-.6.4-1.7,0-1.8-.4,0,.5-.6.9-1.1,1.8-2.3.3-9.3-1.9-9.2h-.3c-1.4.3-2.4,1.5-2.5,1.6,0,0,.4-.6.5-1.4.2-.9-.5-.8-1-.8s-1.4,0-1.6.8c-.3.8.9,1,.9,1,0,0-.5.9-.3,1.5.2.9,2.7.2,2.8.2h0c-.2.5-.3,1.1-.3,1.8s0,.2,0,.3,0,0,0,0c-1.1-.3-1.7-.2-2,0h0s0,0,0,0c-.2,0-.3.3-.3.5,0,.4.3.7.8.7s.4,0,.6-.3c.2,0,.6.3,1,.4.3,0,.6.2.6.2,0,.3.3.5.4.8h-.2c-.6,0-1.4,0-1.3.3v.2h-.2c0,.2-.2.4-.4.4-.3,0-.2,0,0,.6,0,.5-.2.7-.2.7-.9,1.1,0,2.4,0,2.4.4.8,1.4,1.5,2.6,1.5l-.3.2Z"/>
    <g>
      <circle class="cls-13" cx="32.5" cy="58.6" r="1.1"/>
      <circle class="cls-11" cx="32.5" cy="58.6" r=".8"/>
      <circle class="cls-15" cx="32.5" cy="58.6" r=".5"/>
    </g>
  </g>
</svg>