<?xml version="1.0" encoding="UTF-8"?>
<svg id="Livello_1" data-name="Livello 1" xmlns="http://www.w3.org/2000/svg" version="1.1" viewBox="0 0 56.7 47.6">
  <defs>
    <style>
      .cls-1 {
        fill: #d99898;
        stroke: #fff;
        stroke-miterlimit: 10;
        stroke-width: 1.6px;
      }

      .cls-2 {
        fill: #c46769;
      }

      .cls-2, .cls-3, .cls-4, .cls-5 {
        stroke-width: 0px;
      }

      .cls-3 {
        fill: #d68e91;
      }

      .cls-4 {
        fill: #fff;
      }

      .cls-5 {
        fill: #bf5456;
      }
    </style>
  </defs>
  <g>
    <path class="cls-4" d="M56.7,22.9c0-3.7-1.6-7.1-3.9-8.9-.2-4.1-3.6-7.5-7.5-7.7-1.8-3.2-5.3-5.3-9.1-5.3s-1.8,0-2.6.4c-1.4-.8-3.2-1.2-4.7-1.2-2.8,0-5.1,1-6.9,2.8-.8,0-1.4-.2-2.2-.2-3.7,0-7.1,2.2-8.9,5.3h-.8c-2.4,0-4.1,1.8-4.5,3.9C2.4,14,.3,17.4.3,21.1c0,5.7,5.9,10.8,11.8,11.4,1.8,3,4.5,5.1,8.1,5.7,1.4.6,3.2.8,5.1.8s2.6,0,3.7-.4c0,0,4.7-2.6,4.7-1s.8,4.7,2,4.9c1,.2,2,.4,3.2.4,6.1,0,11.2-2.4,12.2-7.7,2.8,0,5.1-1.8,5.5-4.1,0-1-.2-2.2-1-3,.6-1.6,1-3.2,1-4.9h0v-.4Z"/>
    <path class="cls-1" d="M55.7,22.3c0-3.6-1.6-6.7-3.7-8.3-.2-3.9-3.4-7.1-7.3-7.3-1.8-3-5.1-5.1-8.9-5.1s-1.6,0-2.4.4c-1.4-.8-3-1.2-4.7-1.2-2.6,0-4.9,1-6.7,2.6-.6,0-1.4-.2-2.2-.2-3.7,0-6.9,2-8.5,4.9h-.8c-2.2,0-4.1,1.6-4.5,3.7-3,1.8-5.1,4.9-5.1,8.7,0,5.3,5.7,10.3,11.4,10.8,1.6,3,4.5,4.9,7.9,5.5,1.4.4,3.2.8,5.1.8s2.6,0,3.7-.4c0,0,5.1,7.1,4.9,8.7,0,1.6,3.4,2.8,2.6,0-.4-1.4-.8-3.2-1.2-4.9,1,.2,2,.4,3,.4,5.9,0,10.8-2.4,11.8-7.3,2.8,0,4.9-1.8,5.3-3.9,0-1-.2-2-1-3,.6-1.4,1-3,1-4.7h0l.2-.2Z"/>
    <path class="cls-4" d="M11.3,7.3c.6,1.4.8,3.2.2,4.3v.4c.2.4.6,1,1,1.4-1-.4-2-.8-2-2.2.4-1.4.2-2.8.6-4.1h0l.2.2Z"/>
    <path class="cls-4" d="M22.8,2.4c-.6,1.8-1.4,3.4-1.8,5.1,0,1.8.2,3.6.4,5.3-1-1.8-1.6-3.6-1.4-5.5.6-2,1.6-3.4,2.8-4.9h0Z"/>
    <path class="cls-4" d="M21,5.7c0,1.8-2.6,3.4-3.7,1.6,1.6,0,2.4-.8,3.7-1.6h0Z"/>
    <path class="cls-4" d="M30.7,11c-3.7-3.2.6-7.7,3.2-10.1l.6.8c-.4.4-.8.8-1,1.2-1.2,1.8,1.4,2.6,2.8,3-1.2,0-2.6,0-3.6-1.2-.8-1.4.2-2.8,1.2-3.6l.6.8c-2.4,2.4-6.5,5.7-3.9,9.3h0l.2-.2Z"/>
    <path class="cls-4" d="M44.1,5.7c1.8,2.2,0,4.5-2.4,5.3h-.6c-.6-.8-1.8-.8-2.8-.8s-2.2,0-3.4.2c2-.6,3.9-1.2,5.9-.8.4,0,.6,0,1,.6l-.6-.2c2.4-.4,3.9-2.2,2.6-4.3h.2Z"/>
    <path class="cls-4" d="M41.5,10.6c1.4.8,2.8,3.4,1.4,4.5,0-1.8-1-3-1.4-4.5h0Z"/>
    <path class="cls-4" d="M11.1,30.6c0-7.1,5.3-10.7,12-8.5,1,.4,1.6.8,2.4.6.8,0,1.8-.6,2.6-1h-.2c.2-.8.6-1.6,1.2-2.4.8-1.2,2.4-2.2,3.9-1.8l1.4.4,2.8.8-2.8-.4c-1,0-2-.4-2.8,0-1.8.6-2.6,2.6-3,4.3-2,1-3.7,1.8-5.9.6-6.3-2.2-10.8,1-11.8,7.5h0l.2-.2Z"/>
    <path class="cls-4" d="M14.7,23.5c-1.8-.4-3-2.2-4.5-2.4,1.8-1,3.7,1,4.5,2.4h0Z"/>
    <path class="cls-4" d="M18.6,22.1c-1-1.4-1.6-3-1.6-4.5s0-1.2.6-1.6c0,2,1.2,3.9,1,6.3h0v-.2Z"/>
    <path class="cls-4" d="M27.1,22.1c-.8-1.2-1.6-1.8-2-3,0-.4,0-1,.2-1.4,0,.4.2.8.4,1,.8.8,1.8,2,1.4,3.4h0Z"/>
    <path class="cls-4" d="M26.3,29.2c.6-1.6,2.6-2.2,4.1-2.4,3.4-.4,6.9.6,9.9-1.6,1.6-1.4,3.4-2,5.5-1.2h0c.4,0,.8-.4,1.2-.8.2-.4.4-1,.6-1.4.2-1,0-2.2,0-3.4.4,1,.6,2.2.6,3.4s-.6,2.6-2.2,3c-1,0-1.8-.2-2.6,0-1.6.6-3,2.4-4.7,2.8-3.6,1.4-9.5-1.6-12,2h0l-.4-.4Z"/>
    <path class="cls-4" d="M44.9,29.8c2,0,3.6,0,4.9-1.6,1.4-1.2,4.1-2.6,5.3-.6-1.8-1.2-3.4.4-4.7,1.4-1.6,1.4-3.7,1.6-5.5.8h0Z"/>
    <path class="cls-4" d="M38.1,26.8c1.6,0,2.6,1.8,1.8,3-.8-1.2-1-2-1.8-3h0Z"/>
    <path class="cls-4" d="M34,26.4c-1.4-1-3-3.9-.4-4.5-.2.4-.4.8-.4,1,0,1,1,2.2.8,3.4h0v.2Z"/>
    <path class="cls-4" d="M34,17.7c0-.8.4-2,1.4-1.8h0s0-.4.2-.8c.4.4.8,1.2,0,1.6-1,.2-.8.2-1.8,1h.2Z"/>
  </g>
  <g>
    <path class="cls-2" d="M15.4,28.6c-1.6-.9-2.5-2.1-2.5-3.4,0-2.3,2.8-3.9,6-3.7,1.1,0,2.3.5,3.2.9,1.6.9,2.5,2.1,2.5,3.4s-.7,2.1-1.8,2.8c-1.1.7-2.5.9-4.1.9s-2.3-.5-3.2-.9h0Z"/>
    <path class="cls-5" d="M24.6,25.4c0,1.6-3.9,3.4-7.3,2.8-3.4-.7-4.4-2.5-4.1-3.9,0,0-1.4,3.4,3.7,4.8,5,1.4,1.1.2,2.8.2s2.3-.2,3.7-1.1c2.1-1.1,1.6-3,1.6-3l-.2.2Z"/>
    <path class="cls-3" d="M23.9,25.6c0-.5-2.1-2.1-3.4-2.3-2.1-.2-3.2,0-5.5.5.7-.7,2.1-1.6,5-1.4,2.3,0,4.1,1.4,3.9,3h0v.2Z"/>
  </g>
  <g>
    <path class="cls-2" d="M29.7,31.3c-.9-.5-1.4-1.1-1.4-2.1,0-1.4,1.6-2.3,3.4-2.1.7,0,1.4,0,1.8.5.9.5,1.4,1.1,1.4,2.1s-.5,1.1-1.1,1.6-1.6.7-2.5.5c-.7,0-1.4,0-1.8-.5h.2Z"/>
    <path class="cls-5" d="M35.2,29.3c0,.9-2.3,2.1-4.4,1.6-2.1-.5-2.5-1.4-2.5-2.3,0,0-.7,2.1,2.1,2.8,2.8.7.7,0,1.6,0s1.4,0,2.1-.7c1.1-.7.9-1.8.9-1.8l.2.5Z"/>
    <path class="cls-3" d="M34.5,29.5c0-.2-1.4-1.1-2.1-1.4-1.1,0-1.8,0-3.2.2.5-.5,1.1-.9,3-.7,1.4,0,2.3.9,2.3,1.8h0Z"/>
  </g>
  <g>
    <path class="cls-2" d="M21.4,34.6c-1.1-.5-1.6-1.4-1.6-2.3,0-1.6,2.1-2.8,4.1-2.5.7,0,1.6.2,2.3.7,1.1.5,1.6,1.4,1.6,2.3s-.5,1.4-1.4,1.8c-.7.5-1.8.7-3,.7s-1.6-.2-2.3-.7h.2Z"/>
    <path class="cls-5" d="M27.6,32.3c0,1.1-2.5,2.3-5,1.8-2.5-.5-3-1.6-2.8-2.5,0,0-.9,2.5,2.5,3.4,3.4.9.7,0,1.8,0s1.6,0,2.5-.7c1.4-.9,1.1-2.1,1.1-2.1h-.2Z"/>
    <path class="cls-3" d="M27.1,32.5c0-.5-1.4-1.4-2.5-1.6-1.4,0-2.3,0-3.7.5.5-.5,1.4-1.1,3.4-.9,1.6,0,2.8.9,2.8,2.1h0Z"/>
  </g>
</svg>