<?xml version="1.0" encoding="UTF-8"?>
<svg id="Livello_1" data-name="Livello 1" xmlns="http://www.w3.org/2000/svg" version="1.1" viewBox="0 0 57.2 76.5">
  <defs>
    <style>
      .cls-1 {
        fill: #ba7e6c;
      }

      .cls-1, .cls-2, .cls-3, .cls-4, .cls-5, .cls-6, .cls-7, .cls-8, .cls-9, .cls-10, .cls-11, .cls-12, .cls-13 {
        stroke-width: 0px;
      }

      .cls-2 {
        fill: #a65557;
      }

      .cls-2, .cls-7, .cls-8 {
        opacity: .7;
      }

      .cls-3 {
        fill: #efd2c1;
      }

      .cls-4 {
        fill: #ddaa9e;
      }

      .cls-5 {
        fill: #e3c4b9;
      }

      .cls-6 {
        fill: #cfab9c;
      }

      .cls-7 {
        fill: #9c3c3f;
      }

      .cls-8 {
        fill: #ad676a;
      }

      .cls-9 {
        fill: #949494;
      }

      .cls-10 {
        fill: #b9b9bc;
      }

      .cls-11 {
        fill: #fff;
      }

      .cls-12 {
        fill: #b89886;
      }

      .cls-13 {
        fill: #c4a090;
      }
    </style>
  </defs>
  <path class="cls-11" d="M3.1,75.4c-1,0-1.8-.8-1.8-1.8V2.6c0-1,.8-1.8,1.8-1.8h35.7c0,0,.1,0,.2,0,0,0,12.5,0,12.5,0,.8,0,1.6.6,1.8,1.4,0,.4.9,3.7.2,5.9,0,.3,0,.4,0,.5,1.5,1.3,2.2,3.2,1.9,5.3,0,1.2-.3,2-.4,2.4,0,0,0,0,0,0,0,.5,0,1.4-.3,2.6,0,0,0,0,0,0,2.1,5.8,1.8,13.6,1.6,19.4,0,1.3,0,2.4-.1,3.5,0,5.1-.8,9.6-1.4,13.2-.2,1.5-.5,2.7-.6,3.8-.5,3.8-3.2,6-7.4,6h0c-.3,0-.7,0-1,0-.7,0-1.3-.1-1.8-.2-.8,0-1.4-.2-2.2-.2s-1.6,0-2.7.2c-.8,0-1.6.1-2.6.1,0,.8,0,1.4.1,2,.2,2.5-.8,6.8-1,7.2-.2.8-.9,1.4-1.8,1.4H3.1Z"/>
  <path class="cls-10" d="M26.7,70c-6.1.1-11.8,1.5-11.8,1.5,0,0,12-1.1,13.9-.5,1.9.6,1.8,2.5,1.8,2.6H3.1v-10.5s6.8,1.6,13.1,1.6,16,.7,15.8,2.8c-.1,2.1.8,2.2-5.3,2.4Z"/>
  <path class="cls-9" d="M33.8,73.6h-3.1c0-.1.1-2-1.8-2.6-2-.6-13.9.5-13.9.5,0,0,5.7-1.4,11.8-1.5,6.1-.1,5.2-.2,5.3-2.4.1-2.1-9.6-2.8-15.8-2.8s-13.1-1.6-13.1-1.6v-3.1l17-.2,14.4,1.9s0,3.1.2,5.3c.2,2.3-.9,6.6-.9,6.6Z"/>
  <polygon class="cls-10" points="20.1 59.8 3.1 60.1 3.1 57.6 20.1 59.8"/>
  <polygon class="cls-10" points="3.1 2.6 3.1 54.2 35.4 51.7 38.8 2.6 3.1 2.6"/>
  <path class="cls-9" d="M3.1,42s9.2-4.8,11-9,3.4-10.6,7.5-18,2.1-3.9,2.8-5.5.3-.6.4-.9c.4-.9.7-1.7.9-2.2s.4-1,.4-1c0,0,2.4,3.1,2.2,7s3.9,14.1,3.9,14.1l2.3,14.2h-9.5l-21.9,1.4Z"/>
  <path class="cls-12" d="M3.1,55.1v6.6s10.8,1,16.8,1.1,14.9.4,18.8,0c3.9-.4,4.2,0,7.1.2,2.8.2,5.9-.6,6.4-4.4.4-3.7,1.9-9.8,2-16.8,0-7,1.5-20-3.5-26s-6.2,13.9-6.3,18.9c0,5-3.2,7.6-12.5,9S3.1,55.1,3.1,55.1Z"/>
  <path class="cls-5" d="M50.8,36.3c-.1,2.9-.2,5.3-.1,6.5.3,3.4,2.1,10.9-3.5,13.4-5.7,2.5-16.8-2.1-23.8-1.6-7.1.5-20.2.6-20.2.6v-11.3s18-3.1,20.9-3.1c.3,0,.6,0,1,0,1.4-.1,3.2-.4,4.8-.6,1.9-.3,3.5-.6,3.5-.6,0,0,2.8-5.7,5.5-6.7.4-.1.5-.6.5-1.4.2-.1.3-.3.5-.4.9-1.2.5-3.4.5-3.9,0,0,0,0,0,0,.6-.6-.3-2.8-.4-4.2,0-.2,0-.4-.2-.6h0c-.5-1.1-1.7-2-1.7-2,0,0,.9-.7,1.2-1.9.2-.5,0-1-.4-1.5-.5-.5-1.2-.9-2-1-1.4-.2-4.2-1.3-4.2-1.3,0,0-.2-.2-.6-.4,0,0,.5-1.3,3.4-1.2,2.8,0,7.6.8,10.9.9,3.3.1,5.5,1.7,5.4,5.8,0,.6,0,1.6-.1,2.7-.2,3.7-.6,9.5-.8,14.1Z"/>
  <path class="cls-1" d="M52.7,29c-.1,3-.7,5.7-2,7.3.2-4.6.6-10.4.8-14.1,0,0,0,.2.1.3.7,1.8,1.2,3.1,1.1,6.5Z"/>
  <path class="cls-4" d="M51.5,22.2c-.2,3.7-.6,9.5-.8,14.1-.2.2-.4.4-.6.6-1.7,1.4-5.4.5-7,1.5-1.6,1-9.6,1.9-10,1-.3-.9,2.4-10,3.2-14.8.8-4.8,2.2-7.8,2.2-7.8,0,0,3-.4,4,.6,1.1.9,4.6,2.1,5.8,2.3,1.2.2,2.2,1,2.9,2.6Z"/>
  <path class="cls-1" d="M30.7,32.1c.2.3,2.6,7.3,2.6,7.3,0,0,1.9-1.9,3.9-3.7,2-1.7,5.2-3.1,5-6.7-.3-3.6,0-6.7-1.7-7.4-1.7-.8-1-2.1-1.3-3.4s-10.5-1.9-10.5-1.9l2.1,15.7Z"/>
  <path class="cls-13" d="M39.7,30.9c-.1.2-.3.3-.5.4-1,.7-2.3,0-2.5-.8l-.2-1s-3.1,1.9-3.5,2.6c-.4.7-2.7,5.1-3,6-.1.3,0,1-.3,1.9-1.6.2-3.4.5-4.8.6.3-.5.6-1.1.8-1.7,1.3-4.3.1-6,2.8-6.6,2.6-.5,3.8-1.2,4.9-2.3,1.1-1.1,2.4-1.8,3.7-2.9,1.1-1,.7-1.6.6-1.7,0,0,.8.7,0,1.9-.6.8.1.9.8.9h0c0,0,.2,0,.2,0,.2,0,.3,0,.4,0,0,0,0,0,0,0,.4.3.9-.8.9-1.3,0,.4.4,2.7-.5,3.9Z"/>
  <g>
    <circle class="cls-8" cx="41.1" cy="22.1" r=".8"/>
    <circle class="cls-2" cx="41.1" cy="22.1" r=".5"/>
    <circle class="cls-7" cx="41.1" cy="22.1" r=".3"/>
  </g>
  <g>
    <circle class="cls-8" cx="43.9" cy="24.4" r=".6"/>
    <circle class="cls-2" cx="43.9" cy="24.4" r=".5"/>
    <circle class="cls-7" cx="43.9" cy="24.4" r=".3"/>
  </g>
  <g>
    <circle class="cls-8" cx="45.2" cy="29.9" r=".6"/>
    <circle class="cls-2" cx="45.2" cy="29.9" r=".5"/>
    <circle class="cls-7" cx="45.2" cy="29.9" r=".3"/>
  </g>
  <g>
    <circle class="cls-8" cx="42.9" cy="32.1" r=".6"/>
    <circle class="cls-2" cx="42.9" cy="32.1" r=".5"/>
    <circle class="cls-7" cx="42.9" cy="32.1" r=".3"/>
  </g>
  <g>
    <circle class="cls-8" cx="41.7" cy="25.9" r=".6"/>
    <circle class="cls-2" cx="41.7" cy="25.9" r=".5"/>
    <circle class="cls-7" cx="41.7" cy="25.9" r=".3"/>
  </g>
  <g>
    <circle class="cls-8" cx="43.3" cy="20.3" r=".3"/>
    <circle class="cls-2" cx="43.3" cy="20.3" r=".2"/>
    <circle class="cls-7" cx="43.3" cy="20.3" r=".1"/>
  </g>
  <g>
    <circle class="cls-8" cx="43.4" cy="22.8" r=".3"/>
    <circle class="cls-2" cx="43.4" cy="22.8" r=".2"/>
    <circle class="cls-7" cx="43.4" cy="22.8" r=".1"/>
  </g>
  <g>
    <circle class="cls-8" cx="45.8" cy="26.7" r=".3"/>
    <circle class="cls-2" cx="45.8" cy="26.7" r=".2"/>
    <circle class="cls-7" cx="45.8" cy="26.7" r=".1"/>
  </g>
  <g>
    <circle class="cls-8" cx="43.3" cy="28.6" r=".3"/>
    <circle class="cls-2" cx="43.3" cy="28.6" r=".2"/>
    <circle class="cls-7" cx="43.3" cy="28.6" r=".1"/>
  </g>
  <g>
    <circle class="cls-8" cx="46.4" cy="24.1" r=".3"/>
    <circle class="cls-2" cx="46.4" cy="24.1" r=".2"/>
    <circle class="cls-7" cx="46.4" cy="24.1" r=".1"/>
  </g>
  <g>
    <circle class="cls-8" cx="41.2" cy="29.9" r=".3"/>
    <circle class="cls-2" cx="41.2" cy="29.9" r=".2"/>
    <circle class="cls-7" cx="41.2" cy="29.9" r=".1"/>
  </g>
  <g>
    <circle class="cls-8" cx="39.1" cy="32.7" r=".3"/>
    <circle class="cls-2" cx="39.1" cy="32.7" r=".2"/>
    <circle class="cls-7" cx="39.1" cy="32.7" r=".1"/>
  </g>
  <g>
    <circle class="cls-8" cx="42.1" cy="34.5" r=".3"/>
    <circle class="cls-2" cx="42.1" cy="34.5" r=".2"/>
    <circle class="cls-7" cx="42.1" cy="34.5" r=".1"/>
  </g>
  <g>
    <circle class="cls-8" cx="46" cy="32.4" r=".3"/>
    <circle class="cls-2" cx="46" cy="32.4" r=".2"/>
    <circle class="cls-7" cx="46" cy="32.4" r=".1"/>
  </g>
  <g>
    <circle class="cls-8" cx="48" cy="28.2" r=".3"/>
    <circle class="cls-2" cx="48" cy="28.2" r=".2"/>
    <circle class="cls-7" cx="48" cy="28.2" r=".1"/>
  </g>
  <g>
    <circle class="cls-8" cx="38" cy="35.1" r=".3"/>
    <circle class="cls-2" cx="38" cy="35.1" r=".2"/>
    <circle class="cls-7" cx="38" cy="35.1" r=".1"/>
  </g>
  <path class="cls-9" d="M52.7,19.1s.4-2.1.3-2.7.5-1,.5-2.6c0-1.6-1.5-4.3-5.1-5.1s-15.2.4-15.2.4l-2.6,3.2,1.4,1.1s17.7-3,20.7,5.9Z"/>
  <path class="cls-10" d="M31.5,14.3s1.7-1.1,4.1-.9,11.3.9,13.2,1.7,3.9,4.1,3.9,4.1c0,0,.8-2.9-2.7-4.9-3.5-2-6.2-2-8.8-2s-6.3-.9-8-.5c-1.7.4,0-1.2,3.5-.6,3.6.6,6.6.5,8.9.5s5.9,2.3,6.6,3.4.4-2.8-2.9-3.8c-3.2-1.1-5.7-.8-8.6-1.1s-5.2,0-5.2,0c0,0,2.4-.6,5.7-.5,3.4.2,9.9.4,10.9,2.7s.9,2.7.9,2.7c0,0,1.4-3.2-1-5.1,0,0-1-.6-.4-2.4s-.2-4.9-.2-4.9h-20.3s-2.9,9.8-2.9,9.8l3.2,1.9Z"/>
  <path class="cls-3" d="M40.2,27s0,0,0,0c-.1-.4-1-1.1-1.6-1.4-.4-.2-1.1-.5-1.4-.7-.1,0-.2,0-.2,0l-.6-.3c-.8-.2-1.3,0-2,.3l-1.1.8-2.3,1.7s-1.4,1-2.4,1.2h0c-1,.2-1.9.2-1.2-.7,0,0,3-2.6,3.8-4.1.9-1.5,2.3-3.3,2.3-4.4s.9,1.3,1.5,1.9c.2.2.5.3.7.5.7.3,1.5.7,2,1.1.8.6,1.6,0,1.7-.7h0c-.5-1.1-1.7-2-1.7-2,0,0,.9-.7,1.2-1.9.4-1.1-1-2.3-2.4-2.5-1.4-.2-4.2-1.3-4.2-1.3,0,0-.2-.2-.6-.4-.6-.5-1.7-1.2-2.2-1.7-.8-.8-2.3-.6-3.4.7-1.1,1.3-4,5-5.5,6.4-1.5,1.3-1.8,2-1.9,3.3,0,1.2-1.1,6-2.5,9.7-1.4,3.7-2.5,5.3-4.7,6.6-2.2,1.3-8.8,3-8.8,3v1.7s18-3.1,20.9-3.1c.3,0,.6,0,1,0,.3-.5.6-1.1.8-1.7,1.3-4.3.1-6,2.8-6.6,2.6-.5,3.8-1.2,4.9-2.3,1.1-1.1,2.4-1.8,3.7-2.9.4-.3.6-.6.7-.8.2-.5,0-.8,0-.8,0,0,.6.5.3,1.3,0,.2-.2.4-.3.6-.6.8.1.9.8.9.3,0,.7,0,.8,0,.4.3.9-.8.9-1.3Z"/>
  <path class="cls-6" d="M26.7,23.3s2.9-3.7,3.5-4.4,1.5-1.8,3.2-1.1,4,1.9,4.5,2.3c0,0,.6-.6.9-1s0,.5-2-.5-4.4-2.4-5.6-1.5-4.5,6.2-4.5,6.2Z"/>
  <path class="cls-6" d="M24.1,19.8s4-3.8,4.5-4.5,2-2.1,3.4-1.3c0,0-1.6-1-3.2.8-1.6,1.9-4.8,5-5.3,5.2s0,.5.5-.2Z"/>
  <path class="cls-13" d="M40.2,26.9c-.1-.4-1-1.1-1.6-1.4-.2,0-.4-.2-.6-.3,0,0-.2,0-.3-.1-.1,0-.2-.1-.3-.2,0,0,0,0,0,0,0,0,0,0-.1,0-.1,0-.2,0-.2,0,0,0,.1,0,0-.2,0,0,0-.2,0-.2s0,0,0,0c0-.2-.2-.3-.2-.3,0,0-2.3-.6-2.6-1.2,0,0-2,1.9-2.8,2.2,0,0-1,.4-.8.9.2.4.4,1.4.4,1.4-.6.7-2.4,1.2-2.4,1.2-1,.2-1.9.2-1.2-.7,0,0,3-2.6,3.8-4.1.9-1.5,2.3-3.3,2.3-4.4s.9,1.3,1.5,1.9c.2.2.5.3.7.5,0,0,0,0,0,0,.1,0,.2.1.4.2.1,0,.3.1.4.2,0,0,0,0,0,0,0,0,.2,0,.3.1,0,0,0,0,.1,0,0,0,.2,0,.3.1.1,0,.3.1.4.2,0,0,0,0,.1,0,0,0,0,0,.1,0,.8.6,1.6,0,1.7-.7,0,.2.2.4.2.6.2,1.4,1.1,3.6.4,4.2Z"/>
  <polygon class="cls-10" points="30.6 73.6 33.8 73.6 30.6 73.6 30.6 73.6"/>
</svg>