<?xml version="1.0" encoding="UTF-8"?>
<svg id="Livello_1" data-name="Livello 1" xmlns="http://www.w3.org/2000/svg" version="1.1" viewBox="0 0 37.6 47">
  <defs>
    <style>
      .cls-1 {
        fill: #a65557;
      }

      .cls-1, .cls-2, .cls-3, .cls-4, .cls-5, .cls-6, .cls-7, .cls-8, .cls-9, .cls-10, .cls-11 {
        stroke-width: 0px;
      }

      .cls-1, .cls-3, .cls-9 {
        opacity: .7;
      }

      .cls-2 {
        fill: #272727;
      }

      .cls-3 {
        fill: #9c3b3f;
      }

      .cls-4 {
        fill: #837663;
      }

      .cls-5 {
        opacity: .1;
      }

      .cls-5, .cls-11 {
        fill: #fff;
      }

      .cls-6 {
        fill: #3e3e3d;
      }

      .cls-7 {
        fill: #91826e;
      }

      .cls-8 {
        fill: #232321;
        opacity: 0;
      }

      .cls-9 {
        fill: #ae676a;
      }

      .cls-10 {
        fill: #ececeb;
      }
    </style>
  </defs>
  <g>
    <g>
      <g>
        <g>
          <path class="cls-11" d="M25.9,45c.6-1.1,1-2.3,1.1-3.6h0c0-.5,0-1,0-1.5-.1-1.9-.9-3.7-.8-5.6.1-1.8,1-3.5,2.1-5,.6-.8,1.3-1.5,1.9-2.3-1-.3-2.1-.6-3-1-1-.4-2-.9-3-1.5-1.3-.7-2.5-1.5-3.7-2.4-.7-.5-1.4-1-2-1.5-1.1-.8-2.1-1.6-3.2-2.3-1-.7-1.9-1.3-2.9-1.9,0,0-.2-.1-.3-.2-.4-.2-.8-.4-1.2-.3-.3,0-.6.2-.9.5-.1.1-.2.2-.4.4-.2.3-.5.5-.7.8-.4.4-.8.8-1.2,1.2-1.2,1.2-2.4,2.5-3.5,3.7-.3.3-.7.7-1,1-.3.3-.6.6-.9.9,0,0,0,0-.1.1h0c0,.4,0,.9.1,1.2v2.7s0,0,0,0c0,0,0,0,0,0v16.4s.5,0,.5,0h.3s22.5,0,22.5,0Z"/>
          <path class="cls-11" d="M25.9,46.4H2.5c-.8,0-1.4-.6-1.4-1.4v-16.1c0-.2,0-.4,0-.6v-2.2c-.2-.5-.2-1.1-.1-1.7,0-.3.2-.5.3-.7,0,0,0,0,.1-.1.3-.3.5-.5.7-.7l.2-.2c.3-.3.7-.7,1-1,.9-1,1.9-1.9,2.8-2.9l.7-.8c.4-.4.8-.8,1.2-1.2l.7-.8c.1-.1.3-.3.4-.4.5-.5,1-.7,1.6-.8,1-.1,1.8.3,2,.5.1,0,.2.1.4.2,1.1.7,2.1,1.4,3,2,.8.6,1.6,1.2,2.4,1.7l.8.6c.7.5,1.3,1,2,1.4,1.3,1,2.5,1.7,3.6,2.3,1,.6,1.9,1,2.9,1.4,1,.4,1.9.7,2.8.9.5.1.8.5,1,.9s0,1-.3,1.3c-.6.6-1.3,1.4-1.8,2.2-1.2,1.6-1.8,2.9-1.9,4.2,0,.9.1,1.8.4,2.8.2.8.3,1.7.4,2.6,0,.6,0,1.1,0,1.7,0,0,0,0,0,0-.2,1.4-.6,2.8-1.3,4.1-.2.4-.7.7-1.2.7ZM3.9,43.6h21.1c.3-.8.5-1.5.6-2.3,0,0,0,0,0,0,0-.4,0-.8,0-1.3,0-.7-.2-1.4-.4-2.2-.2-1.1-.5-2.3-.4-3.6.1-1.9.9-3.7,2.4-5.7.2-.2.4-.5.6-.7-.4-.1-.8-.3-1.1-.4-1.1-.4-2.1-1-3.2-1.6-1.1-.7-2.3-1.4-3.8-2.4-.7-.5-1.4-1-2.1-1.5l-.8-.6c-.8-.6-1.6-1.1-2.3-1.7-.8-.6-1.8-1.3-2.8-1.9,0,0-.2,0-.2-.1-.2-.1-.3-.1-.3-.1,0,0,0,0-.2.1-.1,0-.2.2-.3.3l-.7.8c-.4.4-.8.8-1.2,1.2l-.7.8c-.9,1-1.9,1.9-2.8,2.9-.3.3-.6.7-1,1l-.2.2c-.1.2-.3.3-.4.5,0,0,0,0,0,.1,0,.2.1.4.1.6v2.7s0,0,0,0c0,0,0,0,0,0v15ZM2.4,24.5h0,0s0,0,0,0Z"/>
        </g>
        <g>
          <path class="cls-11" d="M25.5,45c.3-1,.4-2.1.2-3.1-.2-1.6-1-3.1-2-4.3-.8-.9-1.7-1.7-2.7-2.4-.4-.3-.9-.5-1.4-.8-.9-.4-1.8-.6-2.8-.5-.6,0-1.1.3-1.6.6-.7.4-1.2.9-1.7,1.4-1.4,1.5-2.4,3.4-3,5.3h0c-.2.5-.4,1.1-.5,1.6h0c0,.3-.2.6-.2.9,0,.4-.2.8-.3,1.1h16Z"/>
          <path class="cls-11" d="M25.5,46.4H9.5c-.4,0-.8-.2-1.1-.5-.3-.3-.4-.7-.3-1.1,0-.4.2-.8.3-1.2,0-.3.1-.5.2-.8v-.2s0,0,0,0c.2-.6.3-1.1.5-1.7,0,0,0,0,0,0,.8-2.4,1.9-4.3,3.3-5.8.7-.7,1.4-1.3,2.1-1.7.7-.4,1.4-.6,2.1-.7,1.1-.2,2.3,0,3.5.6.5.2,1,.5,1.5.9,1.2.8,2.2,1.6,3,2.6,1.3,1.5,2.1,3.2,2.3,5,.1,1.1,0,2.3-.3,3.6-.2.6-.7,1-1.3,1ZM11.2,43.6h13.1c0-.5,0-1.1,0-1.6-.2-1.2-.7-2.5-1.7-3.6-.7-.8-1.5-1.5-2.4-2.1-.4-.3-.8-.5-1.2-.7-.8-.3-1.4-.5-2-.4-.4,0-.7.2-1.1.4-.5.3-1,.7-1.4,1.2-1.1,1.2-2,2.8-2.7,4.8,0,0,0,0,0,0-.2.5-.3,1-.5,1.5,0,0,0,0,0,0v.2c0,0,0,0,0,.1Z"/>
        </g>
        <g>
          <path class="cls-11" d="M18.5,38.7c0-.5,0-1.1,0-1.5-.2-.4-.5-.7-.8-1-.1-.1-.3-.2-.4-.3-.6-.5-1.2-.9-1.9-1.3-2.3-1.6-4.7-3.1-6.6-5-1.4-1.4-2.5-3-3.3-4.7-.4-.8-.7-1.5-1-2.3-.3.3-.7.7-1,1-.3.3-.6.6-.9.9,0,0,0,0-.1.1h0c0,.4,0,.9.1,1.2v2.7s0,0,0,0c0,0,0,0,0,0v16.4s.5,0,.5,0h.3s14.5,0,14.5,0c0-.4,0-.9.1-1.3,0-.6.1-1.1.2-1.7,0-.5,0-.9.1-1.4,0-.5,0-1,.1-1.4,0-.1,0-.3,0-.4Z"/>
          <path class="cls-11" d="M17.8,46.4H2.5c-.8,0-1.4-.6-1.4-1.4v-16.1c0-.2,0-.4,0-.6v-2.2c-.2-.5-.2-1.1-.1-1.7,0-.3.2-.5.3-.7,0,0,0,0,.1-.1.3-.3.5-.5.7-.7l.2-.2c.3-.3.7-.7,1-1,.3-.3.8-.5,1.3-.4.5.1.8.4,1,.9.3.7.6,1.5.9,2.2.8,1.6,1.9,3.1,3.1,4.3,1.6,1.6,3.5,2.9,5.5,4.3l.9.6c.6.4,1.3.9,1.9,1.3.2.1.3.3.5.4.6.4.9,1,1.2,1.5.3.8.2,1.5.2,2.1h-1.4c0-.1,1.4,0,1.4,0l-.2,1.9c0,.3,0,.6,0,.9v.5c-.1.6-.2,1.1-.2,1.7v1.3c-.2.7-.8,1.2-1.5,1.2ZM3.9,43.6h12.7c0-.6.1-1.1.2-1.7v-.6c0-.3.1-.6.2-.9l.2-1.8h0c0-.4,0-.7,0-.9,0,0-.1-.2-.4-.4-.1-.1-.3-.2-.4-.3-.6-.4-1.2-.9-1.8-1.3l-.9-.6c-2-1.4-4.2-2.8-6-4.6-1.4-1.5-2.7-3.2-3.6-5,0-.2-.2-.3-.2-.5,0,0,0,.1-.1.2,0,0,0,0,0,.1,0,.2.1.4.1.6v2.7s0,0,0,0c0,0,0,0,0,0v15ZM2.4,24.5h0,0s0,0,0,0Z"/>
        </g>
        <g>
          <path class="cls-11" d="M2.5,25.8c0,0,0,.1.1.2.2.4.6.7,1,1.1,0,0,.2.2.2.3.4.6.5,1.4.6,2.2.2,1.1.5,2.3,1.2,3.2.7.9,1.8,1.6,3,1.5-.5-2.3-3.2-3.6-3.6-6,0-.3,0-.7-.1-1-.1-.4-.3-.8-.6-1.2-.1-.2-.2-.4-.4-.5-.4-.6-.6-1.3-.6-2-.3.3-.6.6-.9.9,0,0,0,0-.1.1h0c0,.4,0,.9.1,1.2Z"/>
          <path class="cls-11" d="M8.6,35.6c-1.5,0-3-.8-4-2.1-.8-1-1.3-2.3-1.5-3.8v-.4c-.1-.5-.2-1-.4-1.2,0,0,0-.1-.1-.2,0,0-.2-.2-.3-.3-.3-.3-.6-.6-.9-1,0-.1-.1-.2-.2-.3,0,0,0,0,0,0-.3-.6-.4-1.3-.2-2,0-.3.2-.5.3-.7,0,0,0,0,.1-.1.3-.3.5-.5.7-.7l.2-.2c.4-.4,1-.5,1.5-.3.5.2.9.7.9,1.2,0,.5.2,1,.4,1.4,0,.1.2.3.3.4.3.4.6,1,.8,1.6,0,.3,0,.5.1.8,0,.1,0,.2,0,.3.1.8.7,1.5,1.5,2.4.8,1,1.8,2,2.1,3.5,0,.4,0,.8-.3,1.1-.3.3-.6.5-1,.5,0,0,0,0,0,0Z"/>
        </g>
        <g>
          <path class="cls-11" d="M2.5,28.6v4.8c0,.2.1.3.2.5.3.6.8,1.2,1.4,1.5.4-1-.5-2.1-.7-3.2-.2-1.1.2-2.2-.4-3.2-.1-.2-.3-.4-.4-.5Z"/>
          <path class="cls-11" d="M4,36.8c-.2,0-.5,0-.7-.2-.9-.5-1.5-1.3-1.9-2.2,0-.2-.2-.5-.2-.7,0-.1,0-.2,0-.3v-4.8c0-.5.3-1,.8-1.3.5-.2,1.1-.1,1.5.2.3.2.5.5.7.8.5.9.5,1.8.5,2.6,0,.4,0,.7,0,1,0,.3.2.6.3.9.3.8.8,1.8.4,3-.1.4-.4.7-.8.8-.2,0-.3,0-.5,0Z"/>
        </g>
        <g>
          <path class="cls-11" d="M2.5,42.1v2.4c.2.2.4.3.5.5h.3c1.1,0-.5-2.1-.9-2.9Z"/>
          <path class="cls-11" d="M3.4,46.4h-.3c-.3,0-.6-.1-.8-.3-.2-.2-.5-.4-.7-.6s-.4-.6-.4-1v-2.4c0-.6.4-1.2,1.1-1.3.6-.1,1.3.2,1.5.8,0,.2.2.4.4.6.7,1.1,1.4,2.3.8,3.4-.3.5-.9.8-1.5.8Z"/>
        </g>
        <g>
          <path class="cls-11" d="M18.1,42c0,.6-.1,1.1-.2,1.7-1.7,0-3.4.2-5.1.6-1,.3-2.1.6-3.1.2v-.6c1.3-.2,2.6-.4,3.9-.6.4,0,.7-.1,1.1-.2.4-.1.7-.3,1.1-.5.7-.3,1.5-.5,2.2-.6Z"/>
          <path class="cls-11" d="M10.8,46.1c-.5,0-1,0-1.5-.3-.5-.2-.8-.7-.8-1.3v-.6c0-.7.5-1.2,1.2-1.3,1.3-.2,2.6-.4,3.9-.6.3,0,.6-.1.9-.2.2,0,.4-.2.6-.2.1,0,.3-.1.4-.2.9-.4,1.8-.6,2.7-.7.4,0,.8.1,1.1.4.3.3.4.7.4,1.1,0,.6-.1,1.1-.2,1.7,0,.7-.7,1.2-1.4,1.2h0c-1.6,0-3.2.1-4.7.6h-.2c-.7.2-1.4.5-2.2.5Z"/>
        </g>
        <g>
          <path class="cls-11" d="M18.4,39.1c0,.5,0,1-.1,1.4-1.6,0-3.2,0-4.8,0,0-.1.1-.2.2-.3,1.3-.5,2.6-.9,4-1.1.3,0,.5,0,.8,0Z"/>
          <path class="cls-11" d="M13.5,42c-.5,0-.9-.3-1.2-.7-.2-.4-.3-.9,0-1.4l.2-.3c.1-.3.4-.5.7-.6,1.4-.6,2.8-1,4.3-1.2.3,0,.6,0,1,0,.4,0,.7.2,1,.5.2.3.4.7.3,1v1.4c-.2.7-.8,1.2-1.5,1.2h-4.8s0,0,0,0Z"/>
        </g>
        <g>
          <path class="cls-11" d="M11.7,41.3c-1.2,0-2.4.2-3.4-.5-.3-.2-.6-.4-.9-.6-.8-.5-1.8-.6-2.7-.2-.2.5.4,1,.7,1.4.4.6.4,1.4,0,2,1.3-.3,2.6-.5,3.8-.5.6,0,1.2,0,1.8-.2.6-.3,1-.9.7-1.5Z"/>
          <path class="cls-11" d="M5.4,44.8c-.5,0-.9-.2-1.1-.6-.3-.5-.3-1.1,0-1.6,0,0,0-.3,0-.4,0,0-.1-.2-.2-.2-.4-.4-1.1-1.4-.6-2.5.1-.3.4-.6.7-.7,1.3-.6,2.8-.5,4,.3.2.1.4.2.5.4.1,0,.2.2.3.2.6.4,1.5.3,2.5.3.5,0,1.1.2,1.3.7.3.5.3,1.2.1,1.8-.2.7-.8,1.3-1.4,1.6-.8.4-1.6.3-2.2.3h-.2c-1.2,0-2.3.1-3.5.4-.1,0-.2,0-.4,0ZM7,41.5c0,0,0,.1,0,.2,0,0,.1,0,.2,0,0,0-.1,0-.2-.1h0Z"/>
        </g>
      </g>
      <g>
        <path class="cls-11" d="M32.7,5.4s0,0,0,.1c-.2,1.8-.6,3.6-1,5.4,0,.2-.1.5-.2.7,0,.3-.1.5-.2.8,0,.2,0,.4-.2.5,0,0,0,.2-.1.3-.2.2-.4.4-.6.6-.1,0-.2.2-.3.3-.5.3-.9.7-1.4.8-.5.2-.9.3-1.4.1-.7-.2-1.3-.7-1.8-1.2-.4-.4-.8-.8-1.3-1.2-.1-.1-.3-.2-.4-.4,0-.1.1-.3.2-.4.3-.5.6-.9,1-1.2h.1c0-.2.2-.3.2-.4,0,0,.1-.1.2-.2.3-.3.5-.5.8-.7.2-.2.5-.4.7-.6,0,0,.2-.1.3-.2.2-.2.4-.4.7-.5.4-.3.9-.7,1.3-1,.7-.5,1.5-1,2.2-1.5.4-.2.9-.5,1.3-.3Z"/>
        <path class="cls-11" d="M27.7,16.5c-.3,0-.5,0-.8,0-1.1-.2-1.9-1-2.5-1.6l-1.6-1.6c-.4-.4-.5-1-.3-1.5,0-.2.2-.4.3-.6.4-.6.9-1.2,1.2-1.5l.6-.6c.3-.3.6-.5.9-.8.2-.2.5-.4.7-.6.1,0,.2-.2.3-.3.2-.2.4-.3.7-.5.4-.3.9-.7,1.3-1,.7-.5,1.5-1,2.3-1.5,1-.6,1.9-.7,2.6-.3.5.3.8.8.7,1.4l-1.4-.2,1.3.2c-.3,2-.7,4-1.1,5.6l-.4,1.5c0,.2-.1.5-.2.7,0,.2-.1.3-.2.5-.3.5-.7.8-.9,1l-.4.3c-.5.4-1.1.8-1.8,1-.5.2-1,.3-1.5.3ZM25.5,12.1l.8.8c.4.4.8.8,1.2.9.1,0,.3,0,.6,0,.4-.2.8-.5,1.1-.7l.3-.2c.1,0,.3-.2.3-.3,0-.2,0-.3.1-.4l.4-1.5c.2-.9.5-2,.7-3.1-.3.2-.7.5-1,.7-.4.3-.8.6-1.2.9-.2.2-.4.3-.6.5-.1,0-.2.1-.2.2-.2.2-.5.4-.7.6-.3.2-.5.5-.8.7l-.5.5c-.2.2-.3.3-.4.5Z"/>
      </g>
      <g>
        <path class="cls-11" d="M32.7,5.4s0,0,0,.1c0,0,0,0,0,0-.7.8-1.8,1.4-2.5,2.2-.2.2-.4.4-.5.6-.1.2-.2.3-.3.5,0,.1-.2.2-.3.2-.3.1-.6,0-.9-.1-.3-.1-.6-.2-.9-.3,0,0,0,0,0,0,0,0-.1,0-.1,0,0,0,0-.1,0-.2,0-.2.2-.4.3-.5.2,0,.4.1.6.2.4-.3.9-.7,1.3-1,.7-.5,1.5-1,2.2-1.5.4-.2.9-.5,1.3-.3Z"/>
        <path class="cls-11" d="M28.8,10.5c-.5,0-.9-.2-1.1-.2l-.9-.3c-.4-.2-.7-.4-.9-.7-.2-.4-.3-.8-.1-1.2.1-.4.3-.8.6-1.1.3-.3.8-.5,1.3-.3.2-.2.5-.4.7-.5.7-.5,1.5-1,2.3-1.5,1-.6,1.9-.7,2.6-.3.5.3.8.8.7,1.4l-1.4-.2,1.3.2c0,.2-.1.6-.3.8-.5.6-1.1,1.1-1.6,1.5-.4.3-.7.6-1,.8-.1.1-.2.3-.3.4h0c-.1.3-.2.5-.3.6-.2.3-.5.5-.9.6-.3.1-.5.1-.8.1ZM28.3,7.9s0,0,0,0t0,0Z"/>
      </g>
      <g>
        <path class="cls-11" d="M35.9,25c0,.1,0,.2,0,.4,0,.4-.1.8-.3,1.1-.2.5-.5,1-.8,1.4-1,1.2-2.4,1.9-4,1.8-.8,0-1.6-.3-2.4-.4,0,0,0,0,0,0-1.1,0-2.3.3-3.4,0-.6-.1-1.2-.5-1.8-.8-.3-.2-.6-.3-.9-.5,0,0-.1,0-.2-.1-.6-.4-1.3-.7-1.9-1.1-1.1-.6-2.2-1.2-3.3-2-.1,0-.2-.1-.3-.2-1.7-1.2-3.2-2.7-4.5-4.3-.3-.4-.6-.7-.8-1.1-.2-.4-.5-.6-.8-.9,0,0-.1-.1-.2-.2-.3-.4-.6-.8-.6-1.4,0-.1.1-.3.2-.4.3-.5.6-1.1,1-1.8.3-.4.6-.9.9-1.4.1-.2.3-.4.4-.6.3-.5.7-.9,1-1.3.3-.3.6-.6.8-.9.1-.1.3-.2.4-.3h0c1.1-1,2.9-2,5.4-2.5.5,0,.9-.2,1.5-.2h0c.4,0,.9,0,1.3-.1.5,0,1,0,1.6,0h0c.1,0,.3,0,.4,0h0c.4,0,.7,0,1.1.1.4,0,.7.1,1.1.2.1,0,.3,0,.4.1.2,0,.4.1.6.2,0,0,.1,0,.2,0,.5.3.9.4,1.3.6.2.1.4.2.6.3.6.4,1.1.8,1.7,1.8,0,0,0,0,0,0,0,.1.2.2.3.4.9,1.2,2.2,2.3,2.5,3.7.3,1.4,0,3.5.6,6.1.3,1.3.8,2.6.8,3.9Z"/>
        <path class="cls-11" d="M31.1,31.1c-.1,0-.2,0-.3,0-.5,0-.9-.1-1.4-.2-.4,0-.7-.1-1-.2,0,0,0,0,0,0-.4,0-.8,0-1.2,0-.7,0-1.5.1-2.4,0-.8-.2-1.5-.6-2.1-.9l-3.2-1.8c-1.1-.6-2.2-1.2-3.2-2,0,0-.2-.1-.3-.2-1.8-1.3-3.5-2.8-4.8-4.6-.3-.4-.6-.8-.9-1.2-.1-.2-.3-.4-.5-.6l-.3-.4c-.4-.5-1-1.2-.9-2.3,0-.2,0-.4.2-.6l.2-.4c.3-.5.6-1.1,1.1-1.8.3-.5.6-.9.9-1.4.1-.2.3-.4.4-.6.4-.5.7-1,1.1-1.4.3-.4.6-.7.9-1,.1-.1.3-.3.5-.4,0,0,0,0,0,0,1.1-.9,3-2.1,5.9-2.7.5-.1,1.1-.2,1.6-.3h0c.4,0,.9,0,1.4-.1.5,0,1.1,0,1.7,0h.5c.4,0,.8,0,1.2.2.5,0,.9.2,1.2.3.2,0,.4.1.5.2.2,0,.4.2.7.3l1.5.7c.2.1.5.3.7.4.8.5,1.4,1.1,2.1,2.1,0,.1.2.2.2.3.2.3.5.6.7.9.8.9,1.7,2,2.1,3.4.2.8.2,1.6.2,2.5,0,1.1,0,2.3.4,3.7,0,.3.2.7.3,1,.3,1,.5,2,.5,3.2,0,.2,0,.3,0,.5,0,.5-.2,1-.4,1.5-.2.6-.6,1.2-1,1.7-1.2,1.5-3,2.3-4.7,2.3ZM28.6,28c.5,0,.9.1,1.3.2.4,0,.7.1,1,.2,1,0,2.1-.5,2.8-1.3.3-.3.4-.6.6-1,.1-.3.2-.5.2-.8,0,0,0-.2,0-.2h0c0-.8-.2-1.6-.4-2.5-.1-.4-.2-.8-.3-1.1-.4-1.6-.4-3-.4-4.2,0-.8,0-1.5-.2-1.9-.2-.8-.8-1.5-1.5-2.2-.3-.3-.6-.7-.8-1-.1-.2-.2-.3-.3-.4-.6-.8-.9-1.1-1.3-1.4-.1,0-.3-.2-.5-.3l-1.3-.6s-.1,0-.1,0c-.1,0-.3-.1-.4-.2-.1,0-.3,0-.4-.1-.3,0-.6-.1-.9-.2-.3,0-.7,0-1-.1h-.4c-.5,0-1,0-1.5,0-.4,0-.8,0-1.2,0,0,0,0,0,0,0-.5,0-.9.1-1.3.2-2.4.5-3.9,1.5-4.8,2.2,0,0,0,0,0,0,0,0-.2.2-.3.2-.2.2-.5.5-.7.8-.3.4-.6.8-1,1.2l-.4.6c-.3.4-.6.9-.9,1.3-.4.6-.7,1.2-1,1.7,0,0,0,.1.2.2l.3.3c.2.2.5.5.8.9.2.4.5.7.8,1.1,1.2,1.5,2.6,2.9,4.2,4l.3.2c1,.7,2,1.2,3.1,1.8l3.1,1.8c.5.3,1,.5,1.4.6.5.1,1,0,1.6,0,.5,0,1,0,1.6,0,0,0,0,0,0,0Z"/>
      </g>
      <g>
        <path class="cls-11" d="M33.3,18.6c0,.5-.1,1-.1,1.5,0,1.2,0,2.4-.6,3.5-1.9-.3-5.2-.3-7,.5-.4.2-.8.4-1.3.6-.4.2-.8.3-1.2.3-1.4,0-2.7-1-3.5-2.2-.4-.6-.7-1.3-1-1.9-.3-.6-.6-1.3-1.1-1.8-.3-.4-.7-.8-1.1-.8-.4,0-.7.1-1,.3-.4.3-.7.7-1,1-.6.6-1.4.9-2.2.9-.9,0-1.9-.1-2.8-.6-.1,0-.2-.1-.3-.2-.4-.2-.8-.5-1.1-.8.4-.4.8-.8,1.2-1.2.2-.3.5-.5.7-.8,0-.1.1-.3.2-.4.3-.5.6-1.1,1-1.8.3-.4.6-.9.9-1.4.1-.2.3-.4.4-.6.3-.5.7-.9,1-1.3.3-.3.6-.6.8-.9.1-.1.3-.2.4-.3h0c1.1-1,2.9-2,5.4-2.5.5,0,.9-.2,1.5-.2h0c.4,0,.9,0,1.3-.1.5,0,1,0,1.6,0h0c.1,0,.3,0,.4,0h0c.4,0,.7,0,1.1.1.4,0,.7.1,1.1.2.1,0,.3,0,.4.1.2,0,.4.1.6.2,0,0,.1,0,.2,0,.5.3.9.4,1.3.6.2.1.4.2.6.3.6.4,1.1.8,1.7,1.8,0,0,0,0,0,0,0,.1.2.2.3.4-.2.1-.3.2-.4.4-.3.3-.6.7-.4,1.1,0,0,0,.2,0,.2.2.3.5.6.8.8,1.3,1.2,1.6,3.1,1.3,4.8Z"/>
        <path class="cls-11" d="M22.9,26.3c-1.7,0-3.3-1-4.5-2.8-.4-.6-.7-1.2-1-1.8v-.2c-.4-.6-.7-1.1-1-1.6,0-.1-.1-.2-.2-.2-.2.1-.3.3-.5.5-.2.2-.3.3-.5.5-.8.8-1.9,1.2-3.1,1.3-1.2,0-2.4-.2-3.5-.7-.2,0-.3-.2-.5-.3-.4-.3-.9-.6-1.3-1-.3-.2-.4-.6-.4-1,0-.4.1-.7.4-1l1.8-1.8v-.2c.4-.5.8-1.1,1.2-1.8.3-.5.6-.9.9-1.4.1-.2.3-.4.4-.6.4-.5.7-1,1.1-1.4.3-.4.6-.7.9-1,.1-.1.3-.3.5-.4,0,0,0,0,0,0,1.1-.9,3-2.1,5.9-2.7.5-.1,1.1-.2,1.6-.3h0c.4,0,.9,0,1.4-.1.5,0,1.1,0,1.7,0h.5c.4,0,.8,0,1.2.2.5,0,.9.2,1.2.3.2,0,.4.1.5.2.2,0,.4.2.7.3l1.5.7c.2.1.5.3.7.4.8.5,1.4,1.1,2.1,2.1,0,.1.2.2.2.3.4.6.3,1.4-.2,1.9,0,0-.1.1-.2.2,0,0,0,0,0,0l.2.2c1.5,1.4,2.2,3.7,1.7,6.1,0,.4-.1.9-.1,1.3v.4c0,1.2,0,2.5-.8,3.7-.3.5-.8.7-1.4.6-1.9-.3-4.9-.2-6.2.4-.2,0-.3.1-.5.2-.3.1-.6.3-.8.4-.6.2-1.1.4-1.6.4,0,0-.1,0-.2,0ZM16.2,16.7c0,0,.2,0,.3,0,1.2.1,1.9,1.1,2.1,1.4.5.6.8,1.3,1.2,2v.2c.4.6.6,1.1,1,1.6.5.8,1.4,1.6,2.2,1.6.2,0,.5,0,.8-.2.2,0,.5-.2.7-.3.2,0,.3-.2.5-.2,1.8-.8,4.6-.8,6.6-.7.1-.5.1-1,.1-1.6v-.4c0-.5,0-1.1.2-1.7h0c.3-1.4,0-2.8-.9-3.5h-.2c-.3-.4-.7-.7-.9-1.2,0-.1-.1-.3-.2-.5-.1-.5-.1-1.2.4-2-.3-.4-.6-.6-.9-.8-.2,0-.3-.2-.5-.3l-1.3-.6s-.1,0-.1,0c-.1,0-.3-.1-.4-.2-.1,0-.3,0-.4-.1-.3,0-.6-.1-.9-.2-.3,0-.7,0-1-.1h-.4c-.5,0-1,0-1.5,0-.4,0-.8,0-1.2,0,0,0,0,0,0,0-.5,0-.9.1-1.3.2-2.4.5-3.9,1.5-4.8,2.2,0,0,0,0,0,0,0,0-.2.2-.3.2-.2.2-.5.5-.7.8-.3.4-.6.8-1,1.2l-.4.6c-.3.4-.6.9-.9,1.3-.4.6-.7,1.2-1,1.7l-.2.4c0,.1-.1.2-.2.3l-.8.8s0,0,0,0c.6.3,1.4.5,2,.4.4,0,1-.2,1.4-.6.1-.1.2-.2.3-.4.2-.2.5-.5.8-.8.5-.4,1.1-.6,1.7-.6Z"/>
      </g>
      <g>
        <path class="cls-11" d="M35.8,25.4c0,.4-.1.8-.3,1.1-.2.5-.5,1-.8,1.4,0,0-.1,0-.2-.1,0,0,0-.1,0-.1.1-.3.2-.6.3-.9,0-.4.1-.8,0-1.3,0,0,0-.1,0-.2,0,0,0,0,.1,0,.2,0,.4,0,.7.1Z"/>
        <path class="cls-11" d="M34.8,29.3c0,0-.1,0-.2,0-.7,0-1.2-.6-1.3-1.3,0-.4,0-.8.1-.9,0-.2.1-.4.2-.6,0-.3,0-.6,0-.9,0-.7.3-1.1.5-1.3.2-.2.6-.4,1.1-.4.3,0,.7,0,1,.2.6.2,1,.8.9,1.4,0,.5-.2,1-.4,1.5-.2.6-.6,1.2-1,1.7-.3.3-.6.5-1.1.5ZM35.9,28.1s0,0,0,0c0,0,0,0,0,0Z"/>
      </g>
      <g>
        <path class="cls-11" d="M12,18.2c-.4.3-.9.3-1.4.1,0,0-.2,0-.2,0-.2,0-.4-.2-.6-.3-.2-.1-.4-.2-.7-.4.2-.3.5-.5.7-.8,0-.1.1-.3.2-.4,0,0,.1,0,.1,0,.4,0,.7.2,1.1.4.1,0,.3.1.4.2.4.3.7.7.4,1.1Z"/>
        <path class="cls-11" d="M11.2,19.7c-.3,0-.6,0-.9-.1,0,0-.2,0-.3,0-.3,0-.6-.2-.8-.3l-.7-.4c-.4-.2-.7-.6-.7-1,0-.4,0-.9.4-1.2l.6-.6v-.2c.4-.5,1-.8,1.6-.7.1,0,.2,0,.3,0,.4.1.8.3,1.2.4.2,0,.4.2.6.3.6.4,1,1,1.1,1.6,0,.5,0,1-.3,1.4-.1.2-.3.3-.4.4-.5.3-1,.4-1.5.4ZM12,18.2h0,0Z"/>
      </g>
      <g>
        <path class="cls-11" d="M19.7,18.2c-.9-.7-1.4-2-2.5-2.5-1.4-.6-3.2.5-4.6,0,0,0-.1,0-.2,0-.5-.2-1-.7-1.4-1,.3-.4.6-.9.9-1.4.6.5,1.1,1,1.7,1.2,0,0,0,0,.1,0,.9.2,1.8-.2,2.6,0,.9,0,1.7.7,2.4,1.4.6.6,1.1,1.5.9,2.3Z"/>
        <path class="cls-11" d="M19.7,19.6c-.3,0-.6-.1-.8-.3-.5-.4-.9-.9-1.2-1.4-.3-.4-.6-.8-.9-1-.4-.2-1,0-1.6,0-.9.2-1.8.4-2.9,0,0,0-.2,0-.3-.1-.7-.3-1.2-.7-1.6-1.1l-.2-.2c-.5-.4-.6-1.2-.2-1.7.3-.5.6-.9.9-1.4.2-.3.6-.5.9-.6.4,0,.8,0,1.1.3l.3.3c.3.3.7.6.9.7.3,0,.6,0,1,0,.4,0,.9-.1,1.5,0,1.1.1,2.2.7,3.2,1.8,1.4,1.5,1.4,2.7,1.3,3.6-.1.5-.4.8-.9,1-.2,0-.3,0-.5,0Z"/>
      </g>
      <g>
        <path class="cls-11" d="M19.5,15.1c-.8-.9-2-1.5-3.2-1.5-.7,0-1.3.1-2,0-.1,0-.3,0-.4,0-.6-.1-1.2-.5-1.6-.9.3-.5.7-.9,1-1.3.4.1.8.3,1.1.5.3.2.7.3,1,.5.2,0,.4.2.6.3.9.4,1.8.8,2.6,1.2.5.2,1.1.7.8,1.2Z"/>
        <path class="cls-11" d="M19.5,16.4c-.4,0-.8-.2-1-.5-.5-.6-1.3-1-2.2-1-.3,0-.5,0-.8,0-.4,0-.8,0-1.3,0-.2,0-.4,0-.6,0-.8-.2-1.5-.5-2.3-1.2-.5-.5-.6-1.3-.2-1.8.4-.5.7-1,1.1-1.4.3-.4.9-.6,1.4-.4.5.1.9.3,1.3.5l4.2,2c.4.2,1.3.7,1.6,1.6.2.5,0,1-.2,1.5-.2.4-.6.6-1.1.7,0,0,0,0-.1,0Z"/>
      </g>
      <g>
        <path class="cls-11" d="M24.5,8.6c-.2.2-.5.3-.8.4h0c-.2,0-.4.2-.6.3-.1.1-.3.2-.4.3-.6.7-.6,1.7-.6,2.7,0,.3,0,.6.1.9,0,.2,0,.4,0,.6-.1.2-.4.2-.7.2-.9-.2-1.3-1.2-1.9-1.9-.6-.7-1.4-1.1-2.3-1.4-.9-.3-1.8-.4-2.7-.5,0,0-.1,0-.2,0,1.1-1,2.9-2,5.4-2.5.5,0,.9-.2,1.5-.2h0c0-.2.2-.3.3-.5h0c.4,0,.8,0,1.2.1.5,0,1,.1,1.5.2h0c.1,0,.3,0,.4,0h0s0,0,.1,0c.3.4,0,1-.4,1.3Z"/>
        <path class="cls-11" d="M21.8,15.4c-.2,0-.4,0-.5,0-1.2-.3-1.8-1.2-2.2-1.9-.1-.2-.2-.4-.4-.5-.3-.4-.9-.7-1.6-.9-.8-.2-1.6-.3-2.4-.4-.1,0-.2,0-.3,0-.5-.1-.9-.5-1-1-.1-.5,0-1,.5-1.4,1.1-.9,3-2.2,6-2.8.3,0,.6-.1.9-.2.3-.4.8-.6,1.2-.6.4,0,.8,0,1.2.1.5,0,1,.1,1.5.2,0,0,0,0,0,0h.3c0,0,0,0,0,0,.3,0,.7.3.9.5.3.4.5,1,.4,1.5-.1.6-.5,1.3-1.1,1.7h0c-.3.2-.7.4-1,.5,0,0,0,0,0,0-.1,0-.2,0-.3.2,0,0,0,0-.1.1-.1.2-.3.6-.2,1.6,0,.3,0,.5,0,.7,0,.3.2.9-.2,1.6-.3.5-.9.8-1.6.8ZM18.4,9.5c1,.4,1.8.9,2.4,1.6,0,0,0,0,0,0,0-1,.4-1.8.9-2.5,0,0,0,0,0,0,0,0-.1,0-.2,0h0c-.5,0-.9.1-1.3.2-.7.1-1.3.3-1.9.5Z"/>
      </g>
      <g>
        <path class="cls-11" d="M24.6,10.5c.8.4,1.7.8,2.4,1.4.7.6,1.3,1.4,1.4,2.3,0,.3,0,.6.3.7.2.1.5,0,.8,0,1.1-.1,1.6,1.5,2.7,1.6,0-1-.9-1.6-1.7-2.2-.8-.6-1.6-1.5-1.2-2.4.4,0,.6-.6.5-1-.2-.4-.6-.6-.9-.9-.3-.2-.7-.6-.7-1-.5-.3-1,.4-1.4.8-.5.5-1.3.7-2,.5Z"/>
        <path class="cls-11" d="M32.1,17.9c0,0-.2,0-.2,0-.9-.2-1.5-.8-2-1.2s-.3-.3-.4-.4c-.4,0-1,.2-1.6-.2-.8-.5-.8-1.3-.9-1.7,0-.5-.4-1-.9-1.5-.6-.5-1.3-.8-2.1-1.2-.6-.3-.9-1-.7-1.7.2-.7.9-1,1.6-.9.3,0,.6,0,.8-.2l.2-.2c.4-.4,1.5-1.5,2.8-.8.4.2.7.6.7,1,0,0,0,0,.2.1h.1c.4.4,1,.7,1.3,1.4.3.6.2,1.4-.2,2,0,0,0,.1-.1.2.1.1.3.3.6.6.9.6,2.3,1.7,2.3,3.4,0,.4-.2.8-.5,1-.2.2-.5.3-.9.3Z"/>
      </g>
      <g>
        <path class="cls-11" d="M16.4,24.2c0,.2.1.4.2.5.7,1.4,2.4,2.1,3.9,2.6.5.2,1.1.4,1.6.7,1.1.6,2.1,1.4,2.3,2.6.2,1.2-.4,2.4-.8,3.7-.1.4-.2.9-.2,1.3,0,.6.1,1.3.3,1.9.3,1.1.6,2.2.2,3.1-.2.4-.5.8-.6,1.2-.2.7,0,1.5.2,2.2,0,.3,0,.6,0,.9h2.4c.6-1.1,1-2.3,1.1-3.6h0c0-.5,0-1,0-1.5-.1-1.9-.9-3.7-.8-5.6.1-1.8,1-3.5,2.1-5,.8,0,1.6.3,2.4.4,1.5,0,3-.7,4-1.8.3-.4.6-.9.8-1.4-.2,0-.4.1-.7.2-1.7.5-3.6.4-5.4-.1-.5-.2-1-.4-1.6-.5-.2,0-.4,0-.7,0-.6,0-1.2,0-1.7.1-3.2.3-6.4-.4-9.1-2Z"/>
        <path class="cls-11" d="M25.9,46.4h-2.4c-.4,0-.7-.2-1-.4-.3-.3-.4-.6-.4-1,0-.2,0-.4,0-.6,0-.2,0-.4-.1-.5-.1-.6-.3-1.4,0-2.3.1-.4.3-.7.5-1,0-.1.1-.2.2-.3.2-.5,0-1.2-.2-2.1v-.2c-.2-.7-.4-1.5-.4-2.3,0-.5.1-1.1.3-1.7,0-.3.2-.6.3-1,.3-.8.5-1.5.4-2.1-.1-.6-.6-1.2-1.6-1.7-.4-.2-.8-.4-1.4-.6-1.8-.7-3.7-1.5-4.6-3.3-.1-.2-.2-.5-.3-.7-.2-.5,0-1.1.5-1.5.4-.3,1.1-.4,1.5,0,2.5,1.5,5.4,2.1,8.3,1.9h.5c.7-.1,1.5-.2,2.3,0,.5,0,1,.2,1.4.4h.4c1.5.6,3.1.6,4.6.2.2,0,.4-.1.6-.2.5-.2,1.1,0,1.4.3.4.4.5.9.3,1.4-.2.6-.6,1.2-1,1.8-1.3,1.6-3.2,2.4-5.1,2.3-.5,0-.9-.1-1.4-.2,0,0-.2,0-.3,0-.9,1.3-1.3,2.5-1.4,3.6,0,.9.1,1.8.4,2.8.2.8.3,1.7.4,2.6,0,.6,0,1.1,0,1.7,0,0,0,0,0,0-.2,1.4-.6,2.8-1.3,4.1-.2.4-.7.7-1.2.7ZM24.8,43.6h.3c.3-.8.5-1.5.6-2.3,0,0,0,0,0,0,0-.4,0-.8,0-1.3,0-.7-.2-1.4-.4-2.2-.2-.9-.4-1.9-.4-2.9,0,.3-.1.6-.1.8,0,.4.1,1,.3,1.5v.2c.3,1.2.7,2.5,0,3.9,0,.2-.2.4-.3.6,0,.2-.2.3-.2.4,0,.2,0,.6.1.9,0,.1,0,.3,0,.4ZM24.1,27.7c1,.8,1.5,1.7,1.7,2.8,0,.1,0,.3,0,.4.4-.8.9-1.5,1.5-2.3.3-.4.7-.6,1.2-.5.5,0,.9.1,1.3.2.4,0,.7.1,1,.2.2,0,.3,0,.5,0-.7,0-1.5-.2-2.2-.4h-.5c-.3-.3-.7-.4-.9-.4-.6,0-1,0-1.6,0h-.5c-.5.1-1.1.1-1.6.1Z"/>
      </g>
      <g>
        <path class="cls-11" d="M2.4,24.5c0,.4,0,.8.1,1.2v2.7c.3-.5.7-1,1.1-1.5.2-.3.5-.6.7-.9.3-.4.7-.9,1-1.3,0,0,.2-.2.2-.3,1.3-1.6,2.5-3.1,3.8-4.7.4-.5.8-1,1.2-1.5,0,0,0,0,0-.1.3-.4.7-.8,1-1.2.2-.3.4-.5.6-.8.1-.2.3-.3.4-.5.3-.4.7-.8,1-1.3.2-.3.5-.6.7-.9,0,0,.1-.1.2-.2.3-.4.6-.7.9-1.1.6-.7,1.2-1.2,2-1.7,0,0,0,0,0,0,.5-.3,1-.4,1.5-.5.4,0,.7-.1,1.1-.2.5,0,1,0,1.4-.1,0,0,.1,0,.2,0,.4,0,.7,0,1.1,0,.3,0,.5,0,.8,0h0c.7,0,1.5-.1,2.2-.2h0c.2,0,.4,0,.6,0,.2,0,.5,0,.7,0,0,0,.1,0,.2,0h0c.3,0,.5,0,.8,0h0c.7,0,1.3,0,2-.1-.2-.1-.4-.2-.6-.3-.4-.2-.8-.4-1.3-.6,0,0-.1,0-.2,0-.2,0-.4-.2-.6-.2-.1,0-.3-.1-.4-.1,0-.5,0-1.1-.1-1.6-.4-.1-.8-.2-1.3-.3-.2,0-.4,0-.6-.1-.4,0-.8-.1-1.2-.1-.3,0-.7,0-1,0-.3.5-.6.9-.9,1.4-.1.2-.2.3-.3.5h0c-.5,0-1,.1-1.5.2-2.5.5-4.2,1.5-5.4,2.5h0c-.1.1-.3.2-.4.3-.3.3-.6.6-.8.9-.3.4-.7.9-1,1.3-.1.2-.3.4-.4.6-.3.5-.6.9-.9,1.4-.4.7-.8,1.3-1,1.8,0,.1-.1.3-.2.4-.2.3-.5.5-.7.8-.4.4-.8.8-1.2,1.2-1.2,1.2-2.4,2.5-3.5,3.7-.3.3-.7.7-1,1-.3.3-.6.6-.9.9,0,0,0,0-.1.1h0Z"/>
        <path class="cls-11" d="M2.5,29.9c-.1,0-.3,0-.4,0-.6-.2-1-.7-1-1.3v-2.5c-.2-.5-.2-1.1-.1-1.7,0-.3.2-.5.3-.7,0,0,0,0,.1-.1.3-.3.5-.5.7-.7l.2-.2c.3-.3.7-.7,1-1,.9-1,1.9-1.9,2.8-2.9l.7-.8c.4-.4.8-.8,1.2-1.2l.6-.6v-.2c.4-.5.8-1.1,1.2-1.8.3-.5.6-.9.9-1.4l.4-.6c.4-.5.7-1,1.1-1.4.3-.4.6-.7.9-1,.2-.1.3-.3.5-.4,0,0,0,0,0,0,1.1-.9,3-2.1,5.9-2.7.3,0,.6-.1.9-.2.3-.5.6-.9.9-1.4.3-.4.7-.6,1.1-.6h0c.4,0,.8,0,1.1,0,.4,0,.9,0,1.3.1.2,0,.5,0,.7.1.5.1,1,.2,1.4.3.5.2.9.6,1,1.2,0,.2,0,.5,0,.7.1,0,.2,0,.3.1l-.2.7s0,0,0,0h0s0,.3,0,.3c0,0,0,0,0,0l.4-1c.4.2.6.3.8.4l.6.3c.2.1.5.2.7.4.5.3.7.9.6,1.5-.1.6-.6,1-1.2,1-.7,0-1.3,0-2,.1,0,0,0,0-.1,0h-.7c0,0,0,0-.1,0h-.8c-.2,0-.4,0-.6.1,0,0,0,0-.1,0l-4,.3-.2-1.4v1.4c-.4,0-.9,0-1.3.1-.3,0-.6,0-.9.2-.5.1-.9.2-1.2.4,0,0,0,0,0,0-.5.3-1,.7-1.6,1.4-.3.3-.6.7-.9,1.1l-1.9,2.4c-.1.2-.3.3-.4.5l-.6.7c-.3.4-.6.7-.9,1.1v.2c-.1,0-.2.1-.2.1l-5.1,6.4c-.4.5-.7.9-1.1,1.3-.2.3-.5.6-.7.9-.4.5-.7.9-1,1.4-.3.4-.7.6-1.1.6ZM2.4,24.5h0,0ZM2.4,24.5h0,0s0,0,0,0ZM23.4,6.9c-.2.2-.3.5-.5.7,0,.1-.2.2-.2.3h0c0,.2,0,.2-.1.3l3.2-.2c0,0,0-.2,0-.3,0-.2,0-.4,0-.6,0,0-.2,0-.2,0-.2,0-.4,0-.6,0-.4,0-.7,0-1.1-.1,0,0-.2,0-.2,0Z"/>
      </g>
      <g>
        <path class="cls-11" d="M27,9.3s0,0,0,.1c0,.1,0,.2,0,.3,0,.3-.2.5-.4.8s-.3.5-.5.7c-.5.7-1.2,1.3-2,1.4,0,0-.1,0-.2,0-.6,0-1.2-.1-1.7-.4-.1,0-.3-.1-.4-.2l-.5-.2c-.5-.3-1-.5-1.5-.8,0-.4.2-.8.3-1.2.2-.5.4-.9.7-1.4.2-.4.4-.7.6-1.1h0c0-.2.2-.3.3-.5h0c.3-.5.6-.9.9-1.4.8-1.1,1.6-2.1,2.4-3.1.2-.2.4-.4.6-.5.2,0,.3-.1.5,0,.3,1.4.5,2.9.6,4.4,0,.5,0,1,.1,1.6,0,.4,0,.7,0,1.1,0,0,0,0,0,0,0,.1,0,.3,0,.4Z"/>
        <path class="cls-11" d="M23.7,14.1c-.8,0-1.5-.3-2.1-.5l-2.5-1.2c-.5-.3-.8-.8-.8-1.4,0-.5.2-1,.4-1.6.2-.6.5-1.1.8-1.5.2-.4.4-.7.7-1.1,0,0,0,0,0,0,0-.2.2-.3.3-.4,0,0,0,0,0,0,.3-.5.6-.9.9-1.4.8-1.1,1.6-2.2,2.5-3.3.4-.4.7-.7,1.1-.9.4-.2.9-.3,1.4-.2.5.1,1,.5,1.1,1.1.3,1.3.4,2.7.6,4.5,0,.5,0,1.1.1,1.6v1.1c.1.2.1.4.1.6s0,.2,0,.2c0,.2,0,.4,0,.6-.1.5-.4.8-.6,1.2-.2.3-.4.5-.6.8-.5.7-1.4,1.7-2.8,1.9-.1,0-.2,0-.3,0-.1,0-.2,0-.3,0ZM21.4,10.4l1.4.7c.3.1.7.3,1,.3.4,0,.8-.4,1.2-.9.2-.2.3-.4.5-.6,0,0,.2-.3.2-.4h0c0-.2,0-.3,0-.4,0,0,0-.1,0-.1v-1.1c-.1-.5-.2-1-.2-1.5,0-.7-.1-1.3-.2-1.9-.5.6-1,1.3-1.5,2-.3.4-.6.9-.9,1.4,0,0,0,0,0,0,0,.1-.1.2-.2.4,0,0,0,0,0,0-.2.3-.4.7-.6,1-.2.4-.4.8-.6,1.2Z"/>
      </g>
      <g>
        <path class="cls-11" d="M25.7,1.9c0,0,0,.2-.1.3-.6,1.2-1.3,2.3-1.9,3.5-.2.3-.3.6-.5.9-.1.2-.2.4-.3.6,0,0,0,.2-.1.3-.4.8-.8,1.6-1.1,2.4-.2.7-.4,1.4-.4,2.1,0,.2,0,.5,0,.7-.2-.3-.6-.4-.9-.6-.8-.3-1.3-1.1-1.4-2,0-.4,0-.8.2-1.2.2-.4.4-.7.6-1,0,0,.1-.2.2-.2.5,0,.9-.2,1.5-.2h0c0-.2.2-.3.3-.5h0c.3-.5.6-.9.9-1.4.8-1.1,1.6-2.1,2.4-3.1.2-.2.4-.4.6-.5Z"/>
        <path class="cls-11" d="M21.3,14c-.4,0-.8-.2-1.1-.5,0,0,0,0-.1,0h-.2c-1.2-.6-2.1-1.8-2.3-3.1,0-.7,0-1.3.3-1.9.2-.5.5-.9.8-1.2l.2-.3c.2-.2.5-.4.8-.5.3,0,.6-.1.9-.2,0,0,0,0,0,0,.3-.5.6-.9.9-1.4.8-1.1,1.6-2.2,2.5-3.3.4-.4.7-.7,1.1-.9.5-.3,1.1-.1,1.6.3.4.4.5,1,.3,1.6,0,.1-.1.2-.2.3l-2.8,5.1c-.5,1-.8,1.6-1,2.3-.2.6-.3,1.2-.3,1.7,0,.2,0,.3,0,.5,0,.7-.3,1.3-1,1.5-.1,0-.3,0-.4,0ZM20.1,13.2s0,0,0,0c0,0,0,0,0,0Z"/>
      </g>
      <g>
        <path class="cls-11" d="M25.9,7.9c0-.2.4-.2.5,0,0,.2,0,.4-.1.6-.2.4-.4.8-.6,1.2-.3.7-.7,1.4-1.2,1.9-.2.2-.5.4-.8.3-.4-.1-.5-.6-.4-1,0-.8.4-1.6.6-2.4.6-1.7,1.3-3.5,1.9-5.2-.2,1.1-.3,2.3-.2,3.4,0-.2.1-.4.3-.4,0,.5,0,1,0,1.5Z"/>
        <path class="cls-11" d="M23.8,13.3c-.2,0-.4,0-.5,0-1-.3-1.5-1.2-1.4-2.4,0-1,.4-1.9.7-2.7l1.9-5.2c.2-.7.9-1,1.6-.9s1.1.8,1,1.5c-.1.6-.2,1.3-.2,1.9.2.2.3.5.3.9v.4c.1.1.3.3.3.5.4.8,0,1.6-.1,1.9l-.6,1.2c-.4.7-.8,1.6-1.5,2.3-.6.6-1.2.8-1.6.8Z"/>
      </g>
      <g>
        <path class="cls-11" d="M31.9,19.9s-1.5-.2-2.6-1.5-.2.9,1.5,1.5,1.1,0,1.1,0Z"/>
        <path class="cls-11" d="M31.9,21.5c-.6,0-1.1-.2-1.5-.4-1.5-.6-2.9-2.1-2.9-3.2,0-.6.4-1.1.9-1.3,1-.3,1.7.5,2,.8.7.9,1.7,1,1.8,1,.3,0,.6.2.8.4.5.6.6,1.3.2,1.9-.3.5-.8.6-1.3.6Z"/>
      </g>
      <g>
        <path class="cls-11" d="M31.8,24.9s-4.6-5-7.7-5.5c0,0,3.1.9,7.7,5.5Z"/>
        <path class="cls-11" d="M31.8,26.3c-.4,0-.7-.1-1-.4-4.2-4.3-7.1-5.2-7.1-5.2-.7-.2-1.1-.9-.9-1.6.2-.7.8-1.2,1.6-1,3.5.6,8,5.4,8.5,6,.5.5.5,1.4,0,1.9-.3.3-.6.4-.9.4Z"/>
      </g>
      <g>
        <path class="cls-11" d="M31.7,25s-6.3-2.3-9.4-1.4c0,0,3.2-.6,9.4,1.4Z"/>
        <path class="cls-11" d="M31.7,26.4c-.1,0-.3,0-.4,0-5.7-1.9-8.7-1.4-8.7-1.4-.7.1-1.4-.3-1.6-1-.2-.7.2-1.4.9-1.6,3.4-1,9.6,1.2,10.3,1.4.7.3,1.1,1,.8,1.7-.2.6-.7.9-1.3.9Z"/>
      </g>
      <g>
        <path class="cls-11" d="M32.1,25.8s-5.1-4.4-8.3-4.6c0,0,3.2.5,8.3,4.6Z"/>
        <path class="cls-11" d="M32.1,27.2c-.3,0-.6,0-.9-.3-4.7-3.7-7.7-4.3-7.7-4.3-.7-.1-1.2-.8-1.1-1.5,0-.7.7-1.2,1.4-1.2,3.5.2,8.6,4.4,9.1,4.9.6.5.6,1.3.2,1.9-.3.3-.7.5-1.1.5Z"/>
      </g>
    </g>
    <g>
      <g>
        <circle class="cls-11" cx="22" cy="12.1" r="5.1"/>
        <path class="cls-11" d="M22,18.6c-3.6,0-6.5-2.9-6.5-6.5s2.9-6.5,6.5-6.5,6.5,2.9,6.5,6.5-2.9,6.5-6.5,6.5ZM22,8.3c-2.1,0-3.8,1.7-3.8,3.8s1.7,3.8,3.8,3.8,3.8-1.7,3.8-3.8-1.7-3.8-3.8-3.8Z"/>
      </g>
      <g>
        <circle class="cls-11" cx="22" cy="12.1" r="3.7"/>
        <path class="cls-11" d="M22,17.2c-2.8,0-5.1-2.3-5.1-5.1s2.3-5.1,5.1-5.1,5.1,2.3,5.1,5.1-2.3,5.1-5.1,5.1ZM22,9.7c-1.3,0-2.4,1.1-2.4,2.4s1.1,2.4,2.4,2.4,2.4-1.1,2.4-2.4-1.1-2.4-2.4-2.4Z"/>
      </g>
      <g>
        <circle class="cls-11" cx="22" cy="12.1" r="2.3"/>
        <path class="cls-11" d="M22,15.8c-2,0-3.7-1.7-3.7-3.7s1.7-3.7,3.7-3.7,3.7,1.7,3.7,3.7-1.7,3.7-3.7,3.7ZM22,11.1c-.5,0-1,.4-1,1s.4,1,1,1,1-.4,1-1-.4-1-1-1Z"/>
      </g>
    </g>
  </g>
  <g>
    <g>
      <path class="cls-10" d="M25.9,45c.6-1.1,1-2.3,1.1-3.6h0c0-.5,0-1,0-1.5-.1-1.9-.9-3.7-.8-5.6.1-1.8,1-3.5,2.1-5,.6-.8,1.3-1.5,1.9-2.3-1-.3-2.1-.6-3-1-1-.4-2-.9-3-1.5-1.3-.7-2.5-1.5-3.7-2.4-.7-.5-1.4-1-2-1.5-1.1-.8-2.1-1.6-3.2-2.3-1-.7-1.9-1.3-2.9-1.9,0,0-.2-.1-.3-.2-.4-.2-.8-.4-1.2-.3-.3,0-.6.2-.9.5-.1.1-.2.2-.4.4-.2.3-.5.5-.7.8-.4.4-.8.8-1.2,1.2-1.2,1.2-2.4,2.5-3.5,3.7-.3.3-.7.7-1,1-.3.3-.6.6-.9.9,0,0,0,0-.1.1h0c0,.4,0,.9.1,1.2v2.7s0,0,0,0c0,0,0,0,0,0v16.4s.5,0,.5,0h.3s22.5,0,22.5,0Z"/>
      <path class="cls-10" d="M25.5,45c.3-1,.4-2.1.2-3.1-.2-1.6-1-3.1-2-4.3-.8-.9-1.7-1.7-2.7-2.4-.4-.3-.9-.5-1.4-.8-.9-.4-1.8-.6-2.8-.5-.6,0-1.1.3-1.6.6-.7.4-1.2.9-1.7,1.4-1.4,1.5-2.4,3.4-3,5.3h0c-.2.5-.4,1.1-.5,1.6h0c0,.3-.2.6-.2.9,0,.4-.2.8-.3,1.1h16Z"/>
      <path class="cls-7" d="M18.5,38.7c0-.5,0-1.1,0-1.5-.2-.4-.5-.7-.8-1-.1-.1-.3-.2-.4-.3-.6-.5-1.2-.9-1.9-1.3-2.3-1.6-4.7-3.1-6.6-5-1.4-1.4-2.5-3-3.3-4.7-.4-.8-.7-1.5-1-2.3-.3.3-.7.7-1,1-.3.3-.6.6-.9.9,0,0,0,0-.1.1h0c0,.4,0,.9.1,1.2v2.7s0,0,0,0c0,0,0,0,0,0v16.4s.5,0,.5,0h.3s14.5,0,14.5,0c0-.4,0-.9.1-1.3,0-.6.1-1.1.2-1.7,0-.5,0-.9.1-1.4,0-.5,0-1,.1-1.4,0-.1,0-.3,0-.4Z"/>
      <path class="cls-6" d="M2.5,25.8c0,0,0,.1.1.2.2.4.6.7,1,1.1,0,0,.2.2.2.3.4.6.5,1.4.6,2.2.2,1.1.5,2.3,1.2,3.2.7.9,1.8,1.6,3,1.5-.5-2.3-3.2-3.6-3.6-6,0-.3,0-.7-.1-1-.1-.4-.3-.8-.6-1.2-.1-.2-.2-.4-.4-.5-.4-.6-.6-1.3-.6-2-.3.3-.6.6-.9.9,0,0,0,0-.1.1h0c0,.4,0,.9.1,1.2Z"/>
      <path class="cls-6" d="M2.5,28.6v4.8c0,.2.1.3.2.5.3.6.8,1.2,1.4,1.5.4-1-.5-2.1-.7-3.2-.2-1.1.2-2.2-.4-3.2-.1-.2-.3-.4-.4-.5Z"/>
      <path class="cls-6" d="M2.5,42.1v2.4c.2.2.4.3.5.5h.3c1.1,0-.5-2.1-.9-2.9Z"/>
      <path class="cls-6" d="M18.1,42c0,.6-.1,1.1-.2,1.7-1.7,0-3.4.2-5.1.6-1,.3-2.1.6-3.1.2v-.6c1.3-.2,2.6-.4,3.9-.6.4,0,.7-.1,1.1-.2.4-.1.7-.3,1.1-.5.7-.3,1.5-.5,2.2-.6Z"/>
      <path class="cls-6" d="M18.4,39.1c0,.5,0,1-.1,1.4-1.6,0-3.2,0-4.8,0,0-.1.1-.2.2-.3,1.3-.5,2.6-.9,4-1.1.3,0,.5,0,.8,0Z"/>
      <path class="cls-6" d="M11.7,41.3c-1.2,0-2.4.2-3.4-.5-.3-.2-.6-.4-.9-.6-.8-.5-1.8-.6-2.7-.2-.2.5.4,1,.7,1.4.4.6.4,1.4,0,2,1.3-.3,2.6-.5,3.8-.5.6,0,1.2,0,1.8-.2.6-.3,1-.9.7-1.5Z"/>
    </g>
    <path class="cls-4" d="M32.7,5.4s0,0,0,.1c-.2,1.8-.6,3.6-1,5.4,0,.2-.1.5-.2.7,0,.3-.1.5-.2.8,0,.2,0,.4-.2.5,0,0,0,.2-.1.3-.2.2-.4.4-.6.6-.1,0-.2.2-.3.3-.5.3-.9.7-1.4.8-.5.2-.9.3-1.4.1-.7-.2-1.3-.7-1.8-1.2-.4-.4-.8-.8-1.3-1.2-.1-.1-.3-.2-.4-.4,0-.1.1-.3.2-.4.3-.5.6-.9,1-1.2h.1c0-.2.2-.3.2-.4,0,0,.1-.1.2-.2.3-.3.5-.5.8-.7.2-.2.5-.4.7-.6,0,0,.2-.1.3-.2.2-.2.4-.4.7-.5.4-.3.9-.7,1.3-1,.7-.5,1.5-1,2.2-1.5.4-.2.9-.5,1.3-.3Z"/>
    <path class="cls-6" d="M32.7,5.4s0,0,0,.1c0,0,0,0,0,0-.7.8-1.8,1.4-2.5,2.2-.2.2-.4.4-.5.6-.1.2-.2.3-.3.5,0,.1-.2.2-.3.2-.3.1-.6,0-.9-.1-.3-.1-.6-.2-.9-.3,0,0,0,0,0,0,0,0-.1,0-.1,0,0,0,0-.1,0-.2,0-.2.2-.4.3-.5.2,0,.4.1.6.2.4-.3.9-.7,1.3-1,.7-.5,1.5-1,2.2-1.5.4-.2.9-.5,1.3-.3Z"/>
    <path class="cls-10" d="M35.9,25c0,.1,0,.2,0,.4,0,.4-.1.8-.3,1.1-.2.5-.5,1-.8,1.4-1,1.2-2.4,1.9-4,1.8-.8,0-1.6-.3-2.4-.4,0,0,0,0,0,0-1.1,0-2.3.3-3.4,0-.6-.1-1.2-.5-1.8-.8-.3-.2-.6-.3-.9-.5,0,0-.1,0-.2-.1-.6-.4-1.3-.7-1.9-1.1-1.1-.6-2.2-1.2-3.3-2-.1,0-.2-.1-.3-.2-1.7-1.2-3.2-2.7-4.5-4.3-.3-.4-.6-.7-.8-1.1-.2-.4-.5-.6-.8-.9,0,0-.1-.1-.2-.2-.3-.4-.6-.8-.6-1.4,0-.1.1-.3.2-.4.3-.5.6-1.1,1-1.8.3-.4.6-.9.9-1.4.1-.2.3-.4.4-.6.3-.5.7-.9,1-1.3.3-.3.6-.6.8-.9.1-.1.3-.2.4-.3h0c1.1-1,2.9-2,5.4-2.5.5,0,.9-.2,1.5-.2h0c.4,0,.9,0,1.3-.1.5,0,1,0,1.6,0h0c.1,0,.3,0,.4,0h0c.4,0,.7,0,1.1.1.4,0,.7.1,1.1.2.1,0,.3,0,.4.1.2,0,.4.1.6.2,0,0,.1,0,.2,0,.5.3.9.4,1.3.6.2.1.4.2.6.3.6.4,1.1.8,1.7,1.8,0,0,0,0,0,0,0,.1.2.2.3.4.9,1.2,2.2,2.3,2.5,3.7.3,1.4,0,3.5.6,6.1.3,1.3.8,2.6.8,3.9Z"/>
    <path class="cls-7" d="M33.3,18.6c0,.5-.1,1-.1,1.5,0,1.2,0,2.4-.6,3.5-1.9-.3-5.2-.3-7,.5-.4.2-.8.4-1.3.6-.4.2-.8.3-1.2.3-1.4,0-2.7-1-3.5-2.2-.4-.6-.7-1.3-1-1.9-.3-.6-.6-1.3-1.1-1.8-.3-.4-.7-.8-1.1-.8-.4,0-.7.1-1,.3-.4.3-.7.7-1,1-.6.6-1.4.9-2.2.9-.9,0-1.9-.1-2.8-.6-.1,0-.2-.1-.3-.2-.4-.2-.8-.5-1.1-.8.4-.4.8-.8,1.2-1.2.2-.3.5-.5.7-.8,0-.1.1-.3.2-.4.3-.5.6-1.1,1-1.8.3-.4.6-.9.9-1.4.1-.2.3-.4.4-.6.3-.5.7-.9,1-1.3.3-.3.6-.6.8-.9.1-.1.3-.2.4-.3h0c1.1-1,2.9-2,5.4-2.5.5,0,.9-.2,1.5-.2h0c.4,0,.9,0,1.3-.1.5,0,1,0,1.6,0h0c.1,0,.3,0,.4,0h0c.4,0,.7,0,1.1.1.4,0,.7.1,1.1.2.1,0,.3,0,.4.1.2,0,.4.1.6.2,0,0,.1,0,.2,0,.5.3.9.4,1.3.6.2.1.4.2.6.3.6.4,1.1.8,1.7,1.8,0,0,0,0,0,0,0,.1.2.2.3.4-.2.1-.3.2-.4.4-.3.3-.6.7-.4,1.1,0,0,0,.2,0,.2.2.3.5.6.8.8,1.3,1.2,1.6,3.1,1.3,4.8Z"/>
    <path class="cls-6" d="M35.8,25.4c0,.4-.1.8-.3,1.1-.2.5-.5,1-.8,1.4,0,0-.1,0-.2-.1,0,0,0-.1,0-.1.1-.3.2-.6.3-.9,0-.4.1-.8,0-1.3,0,0,0-.1,0-.2,0,0,0,0,.1,0,.2,0,.4,0,.7.1Z"/>
    <path class="cls-6" d="M12,18.2c-.4.3-.9.3-1.4.1,0,0-.2,0-.2,0-.2,0-.4-.2-.6-.3-.2-.1-.4-.2-.7-.4.2-.3.5-.5.7-.8,0-.1.1-.3.2-.4,0,0,.1,0,.1,0,.4,0,.7.2,1.1.4.1,0,.3.1.4.2.4.3.7.7.4,1.1Z"/>
    <path class="cls-6" d="M19.7,18.2c-.9-.7-1.4-2-2.5-2.5-1.4-.6-3.2.5-4.6,0,0,0-.1,0-.2,0-.5-.2-1-.7-1.4-1,.3-.4.6-.9.9-1.4.6.5,1.1,1,1.7,1.2,0,0,0,0,.1,0,.9.2,1.8-.2,2.6,0,.9,0,1.7.7,2.4,1.4.6.6,1.1,1.5.9,2.3Z"/>
    <path class="cls-6" d="M19.5,15.1c-.8-.9-2-1.5-3.2-1.5-.7,0-1.3.1-2,0-.1,0-.3,0-.4,0-.6-.1-1.2-.5-1.6-.9.3-.5.7-.9,1-1.3.4.1.8.3,1.1.5.3.2.7.3,1,.5.2,0,.4.2.6.3.9.4,1.8.8,2.6,1.2.5.2,1.1.7.8,1.2Z"/>
    <path class="cls-6" d="M24.5,8.6c-.2.2-.5.3-.8.4h0c-.2,0-.4.2-.6.3-.1.1-.3.2-.4.3-.6.7-.6,1.7-.6,2.7,0,.3,0,.6.1.9,0,.2,0,.4,0,.6-.1.2-.4.2-.7.2-.9-.2-1.3-1.2-1.9-1.9-.6-.7-1.4-1.1-2.3-1.4-.9-.3-1.8-.4-2.7-.5,0,0-.1,0-.2,0,1.1-1,2.9-2,5.4-2.5.5,0,.9-.2,1.5-.2h0c0-.2.2-.3.3-.5h0c.4,0,.8,0,1.2.1.5,0,1,.1,1.5.2h0c.1,0,.3,0,.4,0h0s0,0,.1,0c.3.4,0,1-.4,1.3Z"/>
    <path class="cls-6" d="M24.6,10.5c.8.4,1.7.8,2.4,1.4.7.6,1.3,1.4,1.4,2.3,0,.3,0,.6.3.7.2.1.5,0,.8,0,1.1-.1,1.6,1.5,2.7,1.6,0-1-.9-1.6-1.7-2.2-.8-.6-1.6-1.5-1.2-2.4.4,0,.6-.6.5-1-.2-.4-.6-.6-.9-.9-.3-.2-.7-.6-.7-1-.5-.3-1,.4-1.4.8-.5.5-1.3.7-2,.5Z"/>
    <path class="cls-8" d="M16.4,24.2c0,.2.1.4.2.5.7,1.4,2.4,2.1,3.9,2.6.5.2,1.1.4,1.6.7,1.1.6,2.1,1.4,2.3,2.6.2,1.2-.4,2.4-.8,3.7-.1.4-.2.9-.2,1.3,0,.6.1,1.3.3,1.9.3,1.1.6,2.2.2,3.1-.2.4-.5.8-.6,1.2-.2.7,0,1.5.2,2.2,0,.3,0,.6,0,.9h2.4c.6-1.1,1-2.3,1.1-3.6h0c0-.5,0-1,0-1.5-.1-1.9-.9-3.7-.8-5.6.1-1.8,1-3.5,2.1-5,.8,0,1.6.3,2.4.4,1.5,0,3-.7,4-1.8.3-.4.6-.9.8-1.4-.2,0-.4.1-.7.2-1.7.5-3.6.4-5.4-.1-.5-.2-1-.4-1.6-.5-.2,0-.4,0-.7,0-.6,0-1.2,0-1.7.1-3.2.3-6.4-.4-9.1-2Z"/>
    <path class="cls-5" d="M2.4,24.5c0,.4,0,.8.1,1.2v2.7c.3-.5.7-1,1.1-1.5.2-.3.5-.6.7-.9.3-.4.7-.9,1-1.3,0,0,.2-.2.2-.3,1.3-1.6,2.5-3.1,3.8-4.7.4-.5.8-1,1.2-1.5,0,0,0,0,0-.1.3-.4.7-.8,1-1.2.2-.3.4-.5.6-.8.1-.2.3-.3.4-.5.3-.4.7-.8,1-1.3.2-.3.5-.6.7-.9,0,0,.1-.1.2-.2.3-.4.6-.7.9-1.1.6-.7,1.2-1.2,2-1.7,0,0,0,0,0,0,.5-.3,1-.4,1.5-.5.4,0,.7-.1,1.1-.2.5,0,1,0,1.4-.1,0,0,.1,0,.2,0,.4,0,.7,0,1.1,0,.3,0,.5,0,.8,0h0c.7,0,1.5-.1,2.2-.2h0c.2,0,.4,0,.6,0,.2,0,.5,0,.7,0,0,0,.1,0,.2,0h0c.3,0,.5,0,.8,0h0c.7,0,1.3,0,2-.1-.2-.1-.4-.2-.6-.3-.4-.2-.8-.4-1.3-.6,0,0-.1,0-.2,0-.2,0-.4-.2-.6-.2-.1,0-.3-.1-.4-.1,0-.5,0-1.1-.1-1.6-.4-.1-.8-.2-1.3-.3-.2,0-.4,0-.6-.1-.4,0-.8-.1-1.2-.1-.3,0-.7,0-1,0-.3.5-.6.9-.9,1.4-.1.2-.2.3-.3.5h0c-.5,0-1,.1-1.5.2-2.5.5-4.2,1.5-5.4,2.5h0c-.1.1-.3.2-.4.3-.3.3-.6.6-.8.9-.3.4-.7.9-1,1.3-.1.2-.3.4-.4.6-.3.5-.6.9-.9,1.4-.4.7-.8,1.3-1,1.8,0,.1-.1.3-.2.4-.2.3-.5.5-.7.8-.4.4-.8.8-1.2,1.2-1.2,1.2-2.4,2.5-3.5,3.7-.3.3-.7.7-1,1-.3.3-.6.6-.9.9,0,0,0,0-.1.1h0Z"/>
    <path class="cls-7" d="M27,9.3s0,0,0,.1c0,.1,0,.2,0,.3,0,.3-.2.5-.4.8s-.3.5-.5.7c-.5.7-1.2,1.3-2,1.4,0,0-.1,0-.2,0-.6,0-1.2-.1-1.7-.4-.1,0-.3-.1-.4-.2l-.5-.2c-.5-.3-1-.5-1.5-.8,0-.4.2-.8.3-1.2.2-.5.4-.9.7-1.4.2-.4.4-.7.6-1.1h0c0-.2.2-.3.3-.5h0c.3-.5.6-.9.9-1.4.8-1.1,1.6-2.1,2.4-3.1.2-.2.4-.4.6-.5.2,0,.3-.1.5,0,.3,1.4.5,2.9.6,4.4,0,.5,0,1,.1,1.6,0,.4,0,.7,0,1.1,0,0,0,0,0,0,0,.1,0,.3,0,.4Z"/>
    <path class="cls-6" d="M25.7,1.9c0,0,0,.2-.1.3-.6,1.2-1.3,2.3-1.9,3.5-.2.3-.3.6-.5.9-.1.2-.2.4-.3.6,0,0,0,.2-.1.3-.4.8-.8,1.6-1.1,2.4-.2.7-.4,1.4-.4,2.1,0,.2,0,.5,0,.7-.2-.3-.6-.4-.9-.6-.8-.3-1.3-1.1-1.4-2,0-.4,0-.8.2-1.2.2-.4.4-.7.6-1,0,0,.1-.2.2-.2.5,0,.9-.2,1.5-.2h0c0-.2.2-.3.3-.5h0c.3-.5.6-.9.9-1.4.8-1.1,1.6-2.1,2.4-3.1.2-.2.4-.4.6-.5Z"/>
    <path class="cls-6" d="M25.9,7.9c0-.2.4-.2.5,0,0,.2,0,.4-.1.6-.2.4-.4.8-.6,1.2-.3.7-.7,1.4-1.2,1.9-.2.2-.5.4-.8.3-.4-.1-.5-.6-.4-1,0-.8.4-1.6.6-2.4.6-1.7,1.3-3.5,1.9-5.2-.2,1.1-.3,2.3-.2,3.4,0-.2.1-.4.3-.4,0,.5,0,1,0,1.5Z"/>
    <path class="cls-2" d="M31.9,19.9s-1.5-.2-2.6-1.5-.2.9,1.5,1.5,1.1,0,1.1,0Z"/>
    <path class="cls-10" d="M31.8,24.9s-4.6-5-7.7-5.5c0,0,3.1.9,7.7,5.5Z"/>
    <path class="cls-10" d="M31.7,25s-6.3-2.3-9.4-1.4c0,0,3.2-.6,9.4,1.4Z"/>
    <path class="cls-10" d="M32.1,25.8s-5.1-4.4-8.3-4.6c0,0,3.2.5,8.3,4.6Z"/>
  </g>
  <g>
    <circle class="cls-9" cx="19.7" cy="12" r="6.8"/>
    <circle class="cls-1" cx="19.7" cy="12" r="5"/>
    <circle class="cls-3" cx="19.7" cy="12" r="3.1"/>
  </g>
</svg>