<?xml version="1.0" encoding="UTF-8"?>
<svg id="Livello_1" data-name="Livello 1" xmlns="http://www.w3.org/2000/svg" version="1.1" viewBox="0 0 52 56.5">
  <defs>
    <style>
      .cls-1 {
        fill: #a14f29;
      }

      .cls-1, .cls-2, .cls-3, .cls-4, .cls-5, .cls-6, .cls-7, .cls-8, .cls-9, .cls-10, .cls-11, .cls-12, .cls-13, .cls-14, .cls-15, .cls-16 {
        stroke-width: 0px;
      }

      .cls-2 {
        fill: #e1c4b4;
      }

      .cls-3 {
        fill: #a6563f;
      }

      .cls-4 {
        fill: #9b3e15;
      }

      .cls-5 {
        fill: #573529;
      }

      .cls-6 {
        fill: #d3c3b4;
      }

      .cls-7 {
        fill: #ddd1cc;
      }

      .cls-8 {
        fill: #623424;
      }

      .cls-9 {
        fill: #d8a578;
      }

      .cls-10 {
        fill: #be5456;
      }

      .cls-10, .cls-11, .cls-14 {
        isolation: isolate;
        opacity: .7;
      }

      .cls-11 {
        fill: #c4676a;
      }

      .cls-12 {
        fill: #e5a067;
      }

      .cls-13 {
        fill: #cc8062;
      }

      .cls-14 {
        fill: #b5393d;
      }

      .cls-15 {
        fill: #fff;
      }

      .cls-16 {
        fill: #c4754a;
      }
    </style>
  </defs>
  <path class="cls-15" d="M24.2,56.3c-.5,0-.9-.2-1.3-.5-.8,0-1.4-.7-1.6-1.6-.2-1.3.6-2.2,1.2-2.8,0-.2.3-.3.4-.5.3-.3.7-1.4.9-2h0v-.2l-.5.5c-.8.8-1.6.8-1.9.8h-.3c-.6.3-1.1.3-1.4.3h-.7c-.7,0-1.3-.3-1.6-.9-.6-.6-.8-1.7,0-3.2.8-1.7,4.4-2.5,4.4-2.5,0,0,.2,0,.4,0h0c-1.1-1.1-3.2-3-3.1-6.1,0-2.3.6-3.8,1.1-4.7v-.2c.2,0,.2,0,.2-.2,0,0,0,0,.2-.2.4-.5.8-.9,1.3-1.2,0,0,0-.2-.2-.3-.2,0-.4.2-.7.3-.4,0-1.1,0-2,.7-.7.5-2.4,1.4-4.1,2.4-1.1.6-2.1,1.2-2.6,1.5-.3.2-.5.3-.7.4-.2,0-.4.3-.7.4,0,0,0,.2-.2.4-.2.5-.5,1.1-.9,1.8s-1.2,2.1-1.2,2.5c0,1.2-.2,2.1-.7,2.6-.3.6-.8,1.2-1.6,1.7,0,.3-.1.5-.2.7s-.5.7-1.3.7h-.6c-.3,0-.6,0-1,0h-1l-.3.6-.8-.8s-.1,0-.2,0l-.7-.9-.2-.9c0-.7.2-1.4.5-2.1v-.3c.4-.6.8-1,1.1-1.4,0-.4.1-.9.3-1.6.4-1.2,1.5-3.4,1.9-4.3.1-.2.2-.4.2-.5.2-.4.5-1.1,1.1-1.5,1.2-1.5,4.8-4.4,6.9-6h-.8c-.4,0-1.8,0-2.4-1.4-.4-.9-.2-2.1,0-2.5,0-.3,0-1.1.2-1.8,0-.3,0-.7.2-1.2v-.5c0-.8-.2-1.6-.3-1.9,0,0-.1-.2-.2-.3-.4-.7-1.1-1.8-1.2-3.2v-.2h0v-1h0c-.1-1.5-.2-3.1.6-4.9v-.3h.1c.3-1,.8-2,1.5-3.1,1.1-1.8,3.1-2.5,4-2.7h.5c1-.5,4.1-2.1,7.3-2.1s.5,0,.7,0c3.7.3,6,2,7,2.9l.5.4.4.4c.6.5,1.4,1,2.1,1.1h.4c1.6.2,4.2.6,4.4,4,0,1.6,1.4,3.1,2.4,4.3.2.2.3.4.5.5.4.5,1.2,1.6,1.8,3.2.8.9,3,4.3,1.7,10-.2,1-.5,1.9-.8,2.7-.3,2.2-.4,3.8-.5,4.4,0,.5,0,.8-.2,1.1,0,.4-.2.7,0,1.3.9-.5,1.7-.8,2.4-.9v.3c.5,0,1-.2,1.5-.2s1,0,1.5.2c.3,0,.5.2.8.2,1.5.4,3,.9,3.7,2.5h-.3c.3.7.6,1.4.5,2.2,0,1.2-1,2-2.2,2h0c-1.1,0-2.4-.8-3-2h-.6c-.5,0-.9,0-1.2-.2-.3,0-1.1.5-1.7,1-.5.4-1.3.9-1.8,1.2,0,.3-.2.5-.3.8v.2c-.6,1.8-1.2,3.7-2.8,5-.4.3-.8.7-1,1.1,0,0,0,.2-.2.2,0,.2-.3.5-.3.6-.2,1-1.2,2.1-2.3,2.1s-.2,0-.2,0c-.3.2-.7.3-1.2.3s-.9,0-1.1-.2h0c-1.1-.2-1.6-.7-1.8-1.2,0,.6-.2,1.1-.2,1.4,0,2.3-1.3,3.6-3.6,3.6h-1.9l-.3-.2Z"/>
  <g>
    <path class="cls-6" d="M25.3,49.1s-.6,1.9-1.2,2.7-1.5,1.3-1.3,2.1.9.4.9.4c0,0,0,.5.7.6s.7,0,1.7,0,2.3,0,2.3-2.3-3-3.5-3-3.5h-.1Z"/>
    <path class="cls-8" d="M40.8,38.4s2.2-1.7,3.6-1.9c0,0-.7.4-.9.6s1.6-.9,3.4-.3,3.1.7,3.6,1.9c0,0-.5-.7-.8-.7s1.1.9.9,2.2-1.9.7-2.5-.5-1.7-1.6-2.5-1.6.8.8,1.3.8-.8.3-1.5,0-2.2.5-3.1,1.2-3,1.9-3,1.9l1.5-3.7h0Z"/>
    <path class="cls-16" d="M21.7,33s-1.2,1.4-1.2,4.4,2.6,4.8,3.3,5.7-.9,1.7-1.7,1.9-3,1-3.4,1.8-.4,1.5-.2,1.6.2.6.7.5c.5,0,.8,0,1.4-.2s1.1.2,1.7-.5,2.7-2.8,3.1-3,1.6.5,1.6.5c0,0,2.8-5,.7-8.7s-5.5-4.5-6.1-4h.1Z"/>
    <path class="cls-16" d="M34,33.5c0,0-2.6.7-3.6,3.9s-.2,9.1,1.7,9.8c0,0,1.3,0,1.1.5s.8,0,1,.6,1.1,0,1.2.6.7-.7,2-1.7,1.7-2.7,2.3-4.4,2.2-3.2,1.2-5.4-.3-2.8-.2-3.9.5-5.1.5-5.1c0,0-7.2,5.1-7.2,5.1Z"/>
    <path class="cls-8" d="M25.3,31s-2.2.2-3.7,2,2.2,1.1,3.4,2.3,1.9,2.7,1.9,5.1v5.7s3.8,1.1,5.1,1.1-1.8-2.2-1.6-4.4,1-7.9,3.3-8.9,4.5-.3,5.3.5,0-2.9,0-2.9l-13.8-.5h0Z"/>
    <path class="cls-1" d="M40.3,17.2s2.9,3,1.6,8.9-4,7.5-5.5,7.8-6.4,1-9,0-4.7-3.7-5.5-6,15.9-14.5,18.4-10.7Z"/>
    <path class="cls-16" d="M27.6,30.5s1.5,1,1.2,2.7-1.5,7.8-1.9,9.6-1.4,5.2-1.7,6.3.7.7,1.3,1.3-1.6.3-2,1.2.7-.4,1.1.3,0,1.6.6,1.7,2,.2,2-.9.6-4.3.9-6,2.8-10.6,3.1-12.4,1-4,2.2-5.9c1.2-2,3.9-1.8,4.2-5.3s-2.4-7.5-2.4-7.5l-11.2,2.4-2.5,7.4s4.4,2.2,4.9,5.3l.2-.2Z"/>
    <path class="cls-12" d="M8,32.1c.3.5.5,1.2.5,1.9s0,.2,0,.3v.2c-.3,0-.6-.2-.9-.2h-1.5s0,0,.1-.2c0,0,.2-.3.4-.5l.7-.7h0c.2-.2.5-.4.7-.7h0Z"/>
    <path class="cls-12" d="M20.7,27.8c-.4,1,.8,1.6,0,1.7-.6,0-1.5.2-2.6.9-1.2.7-5.4,3.1-6.6,3.8-.8.4-1.3.9-1.7,1h0v-.2h0c0-.4.1-.8.1-1.2,0-1-.3-2-.9-2.8,2.1-1.8,4.7-3.9,5.4-4.4,1.3-1,1.7-1.3,1.7-2.5s1.2-3.9,1.2-3.9c.6-1.4,3.3.9,3.8,2.4s.7,3.4.7,3.4c0,0-.9.7-1.3,1.7h0Z"/>
    <path class="cls-12" d="M28.6,3.9s1.6,1.7,3.4,2,3.4.2,3.5,2.7,2.1,4.3,3.2,5.7,2.7,4.4,2.1,8c-.6,3.7-4.8,6.6-6.4,7.2s2-2.6,2-5.2-.3-4.1.2-5.7-1.1,1.7-.9,3.7-.3,2.9-1.4,4.2-1.6,2.4-3,2.4-4.1-4.9-4.7-5.9-2.7-4.9-2.7-4.9l-2.1-12.4s1.3-6,6.9-1.8h0Z"/>
    <path class="cls-6" d="M17.5,22.5s2.5,0,3.1,1.3.7,3.7,2.1,5.2,3,3.5,2.6,2,0-2.3.9-2.4,1.3,1.5,1.4,1.8.3-2.8-.7-3.7-1.5-.9-2.4-1.6.3-1.3,1.4-1-.7-2.3-.7-2.3c0,0,0-3.3-1.4-3.8s-4.4-.2-4.4-.2l-1.8,4.6h0Z"/>
    <path class="cls-1" d="M14.6,3.1s3.8-2.3,7.5-2,5.7,2.1,6.5,2.8-1-1.2-3-.8-3.7,1.6-1.7,4.3,3.1,3.9,3.1,3.9c0,0,.3,1.2-.5,2.2s1.6,3,3,2.7,2.6-1.1,3.3-2.3-.6,2.7-3.2,5c-2.6,2.3-3.5,3.3-3.1,4.3s-2.7-.3-3.4,0,1.3-1.8.7-2.9-2.7-.9-2.8.2-.9-.4-2.2-.4-.9-2.4.7-4.3c1.6-1.9-4.9-12.4-4.9-12.4v-.3Z"/>
    <path class="cls-4" d="M13.2,25.3s-.8-1.6-1.8-2l-1-.3s-.3,1.1,0,1.8.9.5,1.4.5,1.7.3,1.5,0h-.1Z"/>
    <path class="cls-9" d="M14.1,25.2s1,0,1.7-.7.7-2.1,1.2-2.8,1.1-1,1.1-.6-1.2,2-1.2,2c0,0,1.5-1,1.6-1.8s.4-1.7.8-2.9.9-1.5.9-1.5l-.3-3.7-.2-3s-1-1.7-.7-2.6-1.2,1-1.1,1.6-1.2.2-.7-1.9-1.4-2.5-1.4-2.5l-3.8,5.3-.7,4.8.8,7.9s.4,2.3,2,2.2v.2Z"/>
    <path class="cls-16" d="M13.8,3.2s-1.9.2-3,2c-1.1,1.8-2,3.7-2,6s.1,3.1.6,3.5,1-.2,1.3.5-.2.8,0,1.9-.2,3.1-.3,3.9-.2,1.9-.2,1.9c0,0,1.5.8,2,1.6s.9.9,1.7.7-1.1-.2-1.1-1.5,1.8-3.7,2.3-4-1.5-1-1.5-2.2.7-2.8,1.6-2.8,3.2.2,3.4,1-1.3,1.5-1.1,2.7.2-1,1.1-1.1,1.5-.6,2.2-1.2,2.1-3.3,1.6-4.7-5-1.6-5.6-.6-2.1-1.3-3.6-1.1.8-3.1,2.4-3.3,4.1-1.8,5.8-.2c1.7,1.6-1.8-4-7.8-3h.2Z"/>
    <path class="cls-4" d="M26.9,11.2c0,.7-.4,1.2-.9,1.3h-.4c-.4,0-.8-.1-1.2-.4-1.3-.8-1.4-.5-1.7-2.5-.3-1.9-1-2.3-2.4-3-1.5-.6-2.5-.6-2.9.3s-1.1,2.3-1.1,2.6-1-.2-.5-1.5c0,0,.9-2.1.9-3.1s2.8-.2,4.3-.3c1.5-.2,2,2.1,3.9,3.7s2.3,1.5,2.1,2.8h0Z"/>
    <path class="cls-13" d="M25.7,12.5c-2.2,0-2.5-1.3-3.2-2-.8-.7-1.6-1.2-2.8-1.3-1.2-.2-1.3.7-2.3,1s-1.1-.5-1.1-.5c0-.4.7-1.8,1.1-2.6.4-.9,1.5-.9,2.9-.3,1.5.6,2.1,1,2.4,3,.3,1.9.5,1.7,1.7,2.5.4.3.8.4,1.2.4v-.2Z"/>
    <path class="cls-12" d="M6.7,42.6c0,.4-.4,1-1.2,1.5-.5.3-.6.4-.7.4,0,0,0,0-.1-.3,0-.4-.8-.8-1,0-.1.5.3.8.4,1h0s0,0-.2.2c-.6.2-1.4,0-1.7,0s-.5-.2-.7-.6c-.2-.4.3-1.3.6-2.1s1.1-1.3,1.1-1.3c0,0,3.6.9,3.6,1.3h0Z"/>
    <path class="cls-7" d="M9.3,36.4c-.6,1.2-2.1,3.4-2.1,4.5s-.3,1.7-.5,1.8h0c-.2,0-1.1-.6-2.2-1-1.1-.3-1.3-.5-1.3-.5,0,0-.2-.6.2-1.7,0-.3.2-.6.4-1,.4,0,.9.2,1.3.2,1.8,0,3.3-1,4.2-2.4h0Z"/>
    <path class="cls-7" d="M7.6,34c.3,0,.6,0,.9.2v.2c-.3,1.6-1.7,2.9-3.4,2.9s-.5,0-.8,0c.1-.3.3-.6.4-.9h0c.2-.4.3-.7.5-.9h0c.4-.8.5-1.4,1-1.5h.5c.3,0,.6,0,1,0h-.1Z"/>
    <path class="cls-7" d="M9.9,35.1v.4-.4Z"/>
    <path class="cls-3" d="M1.6,44.4s-.4.7-.4,1.2.2-.4.6-.5,0-1-.3-.7h0Z"/>
    <path class="cls-3" d="M4.7,45.2c-.3,0-.5,0-.7-.2h0c0-.2-.5-.5-.4-1,.2-.7.9-.3,1,0,0,.2,0,.3.1.3-.3.5.4.8,0,.8Z"/>
    <path class="cls-2" d="M34.3,50.8s-.6,0-.8.2-.9,0-1.3,0-1,0-1-.7-.3-.9,0-1.6.7-1.5,1.5-1.7,3.3,1.7,3.3,1.7c0,0-.4.6-.5,1.1s-.8,1.1-1.1.9h-.1Z"/>
    <path class="cls-5" d="M11.8,16.6s1.1.4,1.5-.3.6-1,1.2-1.2-.5.3-.7,1-1.1,1.2-2,.5Z"/>
    <path class="cls-6" d="M10.7,19.3s-.2-1.9-.5-2.5-1.2-1.7-1.3-3.2-.4-3.3.4-5.2.9.8,2,1.7.5,3.7.1,4.8,0,3-.1,3.7,0,1.1-.2,1.3-.4,0-.3-.6h-.1Z"/>
    <g>
      <path class="cls-7" d="M9.8,35.2v.2h0c0,0-.2.4-.3.7v.2h0c-.8,1.4-2.4,2.4-4.2,2.4s-.9,0-1.3-.2c.2-.4.4-.9.6-1.3h.8c1.7,0,3.2-1.3,3.4-2.9.3,0,.6.2.7.5.2.3.4.4.6.3h-.3Z"/>
      <path class="cls-15" d="M9.4,36.1c.1-.3.2-.6.3-.7,0,.3-.2.6-.4.9v-.2h.1Z"/>
      <path class="cls-12" d="M10,33.9c0,.4,0,.8-.1,1.2,0,0-.1-.2-.3-.3-.2-.2-.6-.4-1-.5v-.3c0-.7-.2-1.3-.5-1.9.3-.3.7-.6,1.1-.9.6.8.9,1.8.9,2.8h-.1Z"/>
      <path class="cls-7" d="M9.9,35.1h0v.2c-.2,0-.4,0-.6-.3-.1-.2-.4-.3-.7-.5v-.2c.4,0,.8.3,1,.5s.3.3.3.3Z"/>
      <path class="cls-15" d="M8,32.1c.3.5.5,1.2.5,1.9s0,.2,0,.3v.2c-.3,1.6-1.7,2.9-3.4,2.9s-.5,0-.8,0c-.2.5-.4.9-.6,1.3-2.1-.6-3.6-2.5-3.6-4.7s2.2-4.9,4.9-4.9,3.1.8,4,2.1c-.4.3-.7.6-1.1.9h.1Z"/>
      <path class="cls-11" d="M8.6,33.9v.5c-.3,1.6-1.7,2.9-3.4,2.9s-.5,0-.8,0c-1.6-.3-2.7-1.7-2.7-3.4s1.5-3.5,3.5-3.5,2.3.6,2.9,1.6c.3.5.5,1.2.5,1.9Z"/>
      <circle class="cls-10" cx="5.1" cy="33.9" r="2.5"/>
      <circle class="cls-14" cx="5.1" cy="33.9" r="1.6"/>
    </g>
  </g>
</svg>