<?xml version="1.0" encoding="utf-8"?>
<!-- Generator: Adobe Illustrator 26.3.1, SVG Export Plug-In . SVG Version: 6.00 Build 0)  -->
<svg version="1.1" id="Livello_1" xmlns="http://www.w3.org/2000/svg" xmlns:xlink="http://www.w3.org/1999/xlink" x="0px" y="0px"
	 viewBox="0 0 66.4 86.6" style="enable-background:new 0 0 66.4 86.6;" xml:space="preserve">
<style type="text/css">
	.st0{fill:#FFFFFF;}
	.st1{fill:#1F6A99;}
</style>
<g id="ic_hum" transform="matrix(1, 0.017, -0.017, 1, 1.491, 0)">
	<path id="Tracciato_2" class="st0" d="M32.1,0c11.2,11.6,32.8,35.7,32.8,53.4c-0.1,17.8-14.6,32.2-32.5,32.1c0,0,0,0,0,0
		C14.6,85.5,0.1,71.2,0,53.4C0,35.7,22.1,11,32.1,0z"/>
	<path id="Tracciato_3" class="st1" d="M6.8,47.1c0,0,12.6,9.2,26.7,10.1c17,0.5,18.9,0,25.6,3c-3.9,10.7-13.5,19.9-25.8,19.9
		c-15.2,0-27.4-11.9-27.4-26.3C5.9,51.6,6.2,49.3,6.8,47.1z"/>
</g>
</svg>
