<?xml version="1.0" encoding="utf-8"?>
<!-- Generator: Adobe Illustrator 26.3.1, SVG Export Plug-In . SVG Version: 6.00 Build 0)  -->
<svg version="1.1" id="Livello_1" xmlns="http://www.w3.org/2000/svg" xmlns:xlink="http://www.w3.org/1999/xlink" x="0px" y="0px"
	 viewBox="0 0 147 109.3" style="enable-background:new 0 0 147 109.3;" xml:space="preserve">
<style type="text/css">
	.st0{fill:#FFFFFF;}
	.st1{fill:#1F6A99;}
</style>
<g id="ic_oxi" transform="matrix(1, 0.017, -0.017, 1, 9.712, 4.073)">
	<g transform="matrix(1, -0.02, 0.02, 1, -9.78, -3.9)">
		<circle id="Ellisse_5-2" class="st0" cx="44.5" cy="62" r="27.9"/>
	</g>
	<path id="Tracciato_40" class="st1" d="M12.1,51.3c3.8-11.7,49.4,3.1,45.6,14.8S40.6,84,28,79.9S8.3,63,12.1,51.3z"/>
	<g transform="matrix(1, -0.02, 0.02, 1, -9.78, -3.9)">
		
			<ellipse id="Ellisse_6-2" transform="matrix(-0.9446 0.3281 -0.3281 -0.9446 213.8867 45.8458)" class="st0" cx="103.1" cy="41" rx="27.9" ry="27.6"/>
	</g>
	<g transform="matrix(1, -0.02, 0.02, 1, -9.78, -3.9)">
		<path id="Tracciato_1-2" class="st0" d="M73.3,44.1c0.4,2.4,1,4.7,1.6,7.1c0.9,2.5,2.1,4.8,3.8,6.9l-5.4,2
			c-0.1-2.6-0.6-5.2-1.5-7.6c-0.8-2.3-2-4.5-3.4-6.6L73.3,44.1z"/>
	</g>
	<path id="Tracciato_41" class="st1" d="M70.7,28.2c3.8-11.7,49.4,3.1,45.6,14.8S99.1,61,86.6,56.9S66.8,40,70.7,28.2z"/>
</g>
</svg>
