<?xml version="1.0" encoding="utf-8"?>
<!-- Generator: Adobe Illustrator 26.3.1, SVG Export Plug-In . SVG Version: 6.00 Build 0)  -->
<svg version="1.1" id="Livello_1" xmlns="http://www.w3.org/2000/svg" xmlns:xlink="http://www.w3.org/1999/xlink" x="0px" y="0px"
	 viewBox="0 0 72.2 108.5" style="enable-background:new 0 0 72.2 108.5;" xml:space="preserve">
<style type="text/css">
	.st0{fill:#FFFFFF;}
	.st1{fill:#1F6A99;}
	.st2{fill:#89B9D8;}
</style>
<g id="ic_ph" transform="matrix(1, 0.017, -0.017, 1, 1.666, -0.541)">
	<path id="Tracciato_4" class="st0" d="M36,3.4l33.6,9.2c0,0-2.4,22.4-35.9,93.9L0.7,93.3C0.7,93.3,17.1,73.1,36,3.4z"/>
	<path id="Tracciato_5" class="st1" d="M24.9,48.6c0,0,2.2,2.2,13.2,2.9s15.1,4,15.1,4s-3.9,10.8-20.8,47.3L5.3,92
		C5.3,92,12.5,83.9,24.9,48.6z"/>
	<path id="Tracciato_6" class="st2" d="M53.8,54.5c0,0-3.8-3.3-14.8-4s-13.6-2.9-13.6-2.9l2-5.7c0,0,4.5,2.9,13.5,2.8
		c5.3-0.1,10.6,1.4,15,4.3L53.8,54.5z"/>
</g>
</svg>
