<?xml version="1.0" encoding="UTF-8"?><svg id="Livello_1" xmlns="http://www.w3.org/2000/svg" viewBox="0 0 53.46 53.46"><defs><style>.cls-1{fill:#4b6275;}.cls-1,.cls-2,.cls-3,.cls-4{stroke-width:0px;}.cls-2{fill:#85a5c3;}.cls-3{fill:#91b5d6;}.cls-4{fill:#fff;}</style></defs><path id="Tracciato_175" class="cls-3" d="M9.45,30.6l.54,4.37s2.31,8.62,12.73,3.17c10.42-5.46,4.2-6.04,22.03-13.63l-.43-5.05s-11.01-5.03-23.71-1.77c-12.7,3.26-11.48,10-11.16,12.92Z"/><path id="Tracciato_176" class="cls-2" d="M10.76,28.79s3.79,12.4,18.25-1.02c0,0,4.12-3.93,11.14-6.07,0,0,5.99-1.46-2.19-3.13-8.18-1.67-20.41-.57-24.19,2.97-3.78,3.54-3.01,7.25-3.01,7.25Z"/><path id="Tracciato_177" class="cls-2" d="M9.92,30.12s2.99,11.8,17.72.19c0,0,4.95-4.95,11.58-7.42,0,0,4.42-1.14,4.7-2.28l.51,4.16s-.72.77-3.45,1.53c-2.73.76-7.71,3.2-12.45,7.83,0,0-12.5,11.4-17.94,1.37l-.66-5.39Z"/><path id="Tracciato_220" class="cls-4" d="M17.36,27.34c1.54-.19,2.83.35,2.95,1.35.12,1-1.01,1.88-2.55,2.07s-2.89-.38-3.02-1.39,1.08-1.85,2.61-2.03Z"/><polygon class="cls-1" points="10.93 9.72 7.59 14.03 43.08 41.6 46.43 37.29 10.93 9.72 10.93 9.72"/><path class="cls-1" d="M26.77,6.93c9.94,0,18.37,7.45,19.61,17.33.66,5.25-.76,10.44-4.01,14.61-3.24,4.18-7.92,6.84-13.17,7.5-.83.1-1.67.16-2.5.16-9.94,0-18.37-7.45-19.61-17.33-.66-5.25.76-10.44,4.01-14.61,3.24-4.18,7.92-6.84,13.17-7.5.83-.1,1.67-.16,2.5-.16M26.77,0c-1.11,0-2.23.07-3.37.21C8.75,2.05-1.63,15.42.21,30.06c1.7,13.52,13.21,23.4,26.49,23.4,1.11,0,2.23-.07,3.37-.21,14.65-1.84,25.03-15.21,23.19-29.85C51.55,9.88,40.04,0,26.77,0h0Z"/></svg>