<?xml version="1.0" encoding="UTF-8"?><svg id="Livello_1" xmlns="http://www.w3.org/2000/svg" viewBox="0 0 54.81 35.7"><defs><style>.cls-1{fill:#5b6e7c;}.cls-1,.cls-2,.cls-3,.cls-4,.cls-5,.cls-6,.cls-7{stroke-width:0px;}.cls-2{fill:#85a5c3;}.cls-3{fill:#7b9cb7;}.cls-4{fill:#91b5d6;}.cls-8{opacity:.26;}.cls-5{fill:#41515b;}.cls-6{fill:#657889;}.cls-7{fill:#fff;}</style></defs><g id="Where_is_found"><g id="ic_Wild_boar"><path class="cls-2" d="M28,25.8c.05.36-.86,1.2-.9,2.22,0,0-.38,2.25.2,3.7.21.55.34.97.16,1.09,0,0,.78.92.75,1.09s-1.69.8-2.47.27-.8-1.56-.8-1.56l-.18.52-.15.43s-.43-.41-.7-1.97c0,0-.16-1.04.25-2.38,0,0-.02-4.9.32-5.03,1.56-.26,2.45-.88,2.45-.88,0,0,.87,1.47,1.07,2.5Z"/><path class="cls-2" d="M10,24.29s-.09,1.11-.36,2.01.09,1.57.09,1.57c0,0,1.62,2.51,2.38,3.05.76.54.6,1.03.6,1.03l1.86,1.5s.77.52.03.75-2.38.26-2.38.26c0,0-.53.15-1.1-.51s-.84-.99-.84-.99c0,0,.15.6.1.73s-.64.39-1.33-1.18-1.27-1.7-1.27-1.7c0,0-.86-1.05-1.03-1.48s-.98-1.07-.98-1.07c0,0-.62-.79-.67-1.24,0,0,.87-.37,1.93-1.61.55-.67,1.66-2.45,1.66-2.45,0,0,.27.42.62.72s.7.59.7.59Z"/><path class="cls-2" d="M10.22,25.69s-.06-.02-.09-.03c0,.05.06.05.09.03ZM2.62,11.99c-.09.13-.18.28-.24.43-.84,1.87-.8,3.4-.68,4.46h0c.16,1.51.93,2.38,1.12,3.1.33,1.25.02,2.09.02,2.09,0,0-.65,1.81-1.56,2.54-.9.75-.53,1.51-.53,1.51l.79,4.27s.19,1.37-.02,1.71c-.22.34.02.53.02.53,0,0-.12.56,0,.73.2.5,1.03.98,1.03.98.06.36.53.9.93,1.14.41.25,1.73.28,2.46.17.73-.09.23-.53.23-.53l-.95-1.23c.39.08-.02-.48-.02-.48-.03,0-.2-.08-.69-2.37-.51-2.46.42-3.52.42-3.52.02.09,1.45-.89,2.32-2.07.61-.84,1-1.48,1.17-1.78.05.11.12.19.22.26-.11.02-.23.02-.34.03.22.17.45.36.69.53-.11,0-.2-.02-.31-.03.37.11.73.31,1.01.58-.08.02-.17.02-.26.03.23.14.45.3.69.44.05.03.09.08.09.14,0,.02,0,.03-.02.05.55.17,1.09.36,1.64.51-.08.03-.16.06-.22.11.39.14.81.26,1.22.37-.11.02-.22.08-.3.17l1.36.19c-.14.08-.26.16-.41.23.7.02,1.39-.06,2.07-.23-.11.08-.2.17-.31.25.48.03.97-.06,1.42-.25-.12.09-.23.17-.36.26.61-.06,1.22-.17,1.81-.33-.11.06-.23.14-.34.22.55-.08,1.07-.2,1.6-.37-.14.12-.26.25-.41.39.75-.2,1.48-.44,2.21-.72-.17.09-.33.17-.5.26.55-.14,1.06-.41,1.5-.75-.06.08-.12.17-.19.26.42-.05.83-.25,1.12-.56l-.09.28c.42-.2.78-.51,1.04-.9-.05.09-.08.17-.11.26.61-.22,1.17-.55,1.67-.97-.05.16-.09.31-.14.45.44-.22.7-.64,1.09-.87.41-.25.61.41.79.75.25.45.53.97.65,1.48.7,2.99,2.54,5.05,2.54,5.05.19,1.93,1.04,2.59,1.06,2.41.02-.19.23-.53.23-.53,0,0-.08.84,1.34,1.46,1.4.64,2.55-.16,2.62-.34.06-.2-.98-1.11-.98-1.11.02-.28-.05-.37-.28-.58-1.29-1.11-1.79-2.77-1.85-3.54-.05-.78-.11-2.87-.11-2.87,0,0-.42-2.79,1.17-4,1.6-1.2,2.84-3.58,2.84-3.58,0,0,1.4-.33,2.07-1.57.69-1.25,1.03-1.28,2.4-2.06,1.37-.76,2.87-2.45,3.83-4.02.95-1.56,1.84-2.54,1.84-2.54.5,0,.31-.42.31-.42,0,0-.14-.31-.28-1.85-.16-1.54-.47-1.74-.86-1.7-.41.06-.44.48-.44.48-1.9.76-4.07-.33-4.07-.33,0,0-.67-.64-1.01-.69-.36-.05-.95-.36-1.25-.84-.53-.86-1.79-1.26-2.74-1.29-.34-.53-1.18-1.34-1.74-.7-.19.22-.28.48-.51.64-.34.26-.83.17-1.23.17.05.3-.62.3-.84.34.12.17.06.41-.11.53-.17.11-.39.09-.59.09.11.06.2.14.28.23-.08.03-.16.05-.22.08.14.05.26.12.37.22-.25.02-.5.03-.75.03.09.12.19.26.26.39-.28.03-.56.08-.84.11.09.09.17.17.26.25-.5.17-1,.28-1.51.36.12.06.23.14.34.2-.23.08-.48.17-.72.25.16.08.3.14.44.2-.31.11-.62.17-.95.16.02.09.05.19.06.28l-.93.19c.06.05.14.11.22.16l-.51.05c.06.08.11.16.16.22-.41-.02-.83.03-1.23.14.12.09.23.17.36.25-.19.06-.41.09-.61.11.06.03.09.09.09.17-.33.05-.65.06-.97.03.02.06.05.12.08.17-.61-.06-1.23-.06-1.84,0,.06.09.14.17.2.26-.31.09-.64.14-.97.14.05.06.09.12.14.17-.3-.06-.61.02-.84.17-.28.02-.56.03-.84.03-.14.3-.51.47-.83.37,0,.17-.23.23-.42.25-.42.06-.81.3-1.25.33-.42.02-.87,0-1.29-.03-.45-.02-1.01-.03-1.45-.2,0,0-1.95-.72-3.32-.9-5.41-.72-8.44,2.77-8.44,2.77l-.61.53h-.02l-.03.03c-.1.17-.47.7-.67.99Z"/><path class="cls-2" d="M26.54,24.01s-.06-.04-.05-.08c.03-.13.05-.28,0-.41-.07-.16-.52-.04-.66,0-.36.12-.63.34-1.03.38l.15-.23c-.62.67-1.6.84-2.5.97l.17-.14-1.74.22.24-.23c-.48.05-.96.11-1.45.16-.09.01-.19.02-.27-.02s-.13-.16-.07-.23c-.63,0-1.26-.02-1.89-.05.03-.05.06-.09.09-.14-1.66.15-3.34.13-5-.05l.16-.21c-.43-.04-.87-.06-1.3-.08l.15-.3c-.65.01-1.31-.07-1.94-.25-.27-.08-.71-.22-.97-.03-.22.17-.21.48,0,.65-.11.02-.23.02-.34.03.22.17.45.36.69.53-.11,0-.2-.02-.31-.03.37.11.73.31,1.01.58-.08.02-.17.02-.26.03.23.14.45.3.69.44.05.03.09.08.09.14,0,.02,0,.03-.02.05.55.17,1.09.36,1.64.51-.08.03-.16.06-.22.11.39.14.81.26,1.21.37-.11.02-.22.08-.3.17.45.06.9.12,1.36.19-.14.08-.26.16-.4.23.7.02,1.39-.06,2.07-.23-.11.08-.2.17-.31.25.48.03.97-.06,1.42-.25-.12.09-.23.17-.36.26.61-.06,1.21-.17,1.81-.33-.11.06-.23.14-.34.22.55-.08,1.07-.2,1.6-.37-.14.12-.26.25-.41.39.75-.2,1.48-.44,2.21-.72-.17.09-.33.17-.5.26.55-.14,1.06-.41,1.5-.75-.06.08-.12.17-.19.26.42-.05.83-.25,1.12-.56-.03.09-.06.19-.09.28.42-.2.78-.51,1.04-.9-.05.09-.08.17-.11.26.61-.22,1.17-.55,1.67-.97-.05.16-.09.31-.14.45.43-.22.7-.63,1.08-.86Z"/><path class="cls-2" d="M47.03,7.98s-.14-.31-.28-1.85c-.16-1.54-.47-1.74-.86-1.7-.41.06-.44.48-.44.48-1.9.76-4.07-.33-4.07-.33,0,0-.67-.64-1.01-.69-.36-.05-.95-.36-1.25-.84-.53-.86-1.79-1.26-2.74-1.29-.34-.53-1.18-1.34-1.74-.7-.19.22-.28.48-.51.64-.34.26-.83.17-1.23.17.05.3-.62.3-.84.34.12.17.06.41-.11.53-.17.11-.39.09-.59.09.11.06.2.14.28.23-.08.03-.16.05-.22.08.14.05.26.12.37.22-.25.02-.5.03-.75.03.09.12.19.26.26.39-.28.03-.56.08-.84.11.09.09.17.17.26.25-.5.17-1,.28-1.51.36.12.06.23.14.34.2-.23.08-.48.17-.72.25.16.08.3.14.44.2-.31.11-.62.17-.95.16.02.09.05.19.06.28-.31.06-.62.12-.93.19.06.05.14.11.22.16-.17.02-.34.03-.51.05.06.08.11.16.16.22-.4-.02-.83.03-1.23.14.05-.01.29.21.34.25-1.02.17-1.96.62-3.02.71,1.5.74,3.12,1.51,4.77,1.26-.28.2-.55.4-.83.6.81.08,1.64-.03,2.4-.32-.3.26-.6.53-.9.79.72.07,1.46-.06,2.12-.36-.13.31-.27.62-.4.93.69.11,1.4.03,2.04-.24-.14.48-.33.94-.57,1.38.78.17,1.59.16,2.36-.03-.22.52-.49,1.02-.81,1.49.75-.23,1.48-.51,2.19-.85-.13.31-.26.62-.39.93.79.07,1.59-.01,2.35-.24-.28.27-.52.59-.71.94.35.03.7-.07.99-.26-.08.53-.36,1.02-.79,1.35.72.14,1.48.05,2.15-.25-.06.57-.35,1.11-.78,1.47.28,0,.56-.11.76-.31-.21.25-.29.61-.2.92.48-.23.92-.54,1.29-.92-.05.24-.11.49-.16.73.47-.38.86-.85,1.16-1.38-.04.21-.08.41-.13.62.62-.26,1.16-.73,1.5-1.32-.1.22-.14.47-.12.71.51-.4.85-1.01.93-1.65.06.29.12.57.18.86-.05-.74.02-1.49.19-2.21.08.29.16.58.24.87-.07-.24.73-1.35.87-1.61.3-.59.58-1.19.83-1.79.19-.45.29-.69.62-1,.17-.16.65-.01.46-.45Z"/><path class="cls-6" d="M38.8,4.43s.15.75.08,1.01c0,0,.41-.01.57.19.13.17-.12.27-.24.32-.08.03-.12.02-.17.11-.08.13-.09.29-.18.42,0-.02,0-.04,0-.07-.04.1-.11.2-.21.26,0-.02,0-.05,0-.07-.04.04-.09.08-.13.12-.02-.03-.03-.07-.02-.11-.04.04-.07.08-.11.12,0-.03-.03-.06-.05-.08-.05.04-.1.08-.16.11,0-.04-.02-.09-.03-.13l-.14.11-.07-.14c-.05.06-.11.1-.17.13,0-.03,0-.06-.01-.08-.03.03-.07.05-.11.06l-.03-.13s-.09.08-.14.09c0,0,.1-.32.15-.37.09-.09.22-.12.2-.29l.05.11c.08-.11.13-.25.15-.39.01.05.02.1.04.16.08-.08.15-.19.19-.3.01.05.03.1.04.14.06-.1.1-.21.1-.32.01.11.02.22.03.34.09-.3.14-.62.14-.94-.03.06-.06.13-.09.19.06-.16.12-.32.18-.48.02-.05.13-.24.16-.08Z"/><path class="cls-1" d="M39.15,5.99s.29-.02.36-.22c.01-.04.32.29.32.29,0,0-.19-.07-.31-.07s-.31.14-.42.11c-.04-.01.02-.11.05-.12Z"/><path class="cls-6" d="M45.49,4.98s0-.5.38-.54c.36-.08.58.15.72.6.15.5.26,1.73.26,1.73,0,0,.12.96.22,1.2s-.05.34-.05.34c0,0-.13.09-.26.09s-.24-.03-.25-.04-.18.15-.64-1.33c-.27-.77-.38-2.05-.38-2.05Z"/><path class="cls-3" d="M33.72,7.21c-.3-.29-.55-.7-.66-1.29-.35-1.81-.01-1.9-.25-2.57,0,0-.17-.52-.32-.89-.08-.18-.08-.18-.14-.39s.01-.14.14-.13.36-.1,1.63.24c.42.06.91,0,1.34.17,1.29.52,1.48,2.04,1.09,3.07s-.61,1.23-.61,1.23c0,0,.25,1.02-.34,1.14-.49.09-1.03-.02-1.46-.26-.22-.12-.46-.27-.61-.47-.21-.29-.41-.57-.66-.82.05.03.09.07.13.12-.2-.48-.41-.96-.62-1.43l.13.11c0-.24-.03-.47-.12-.69.07.13.18.25.31.32-.08-.34-.2-.66-.36-.97.02.05.06.08.11.09,0-.18-.04-.35-.12-.51.07.12.16.23.27.33,0-.16-.02-.31-.08-.46,0-.25-.08-.5-.23-.7.15.14.33.26.52.34-.12-.18-.24-.35-.37-.53-.09-.14-.19-.27-.25-.43.04.07.11.13.19.15.02-.08,0-.18-.04-.25.12.14.28.25.45.31.04-.07.02-.16-.03-.21.07.1.16.19.27.25.05-.06.08-.13.09-.2.2.18.42.34.66.46l.06-.2c.18.16.4.28.63.34.03-.06.04-.13.02-.2.09.06.19.1.29.15l.09-.18c.05.08.11.16.2.17s.17-.13.09-.18c.13.1.25.22.36.35l.1-.36c.13.18.22.39.27.6.08-.1.14-.22.19-.34.13.25.2.53.2.81.05-.1.1-.2.14-.3.06.2.08.42.07.63"/><path class="cls-2" d="M34.48.86l-.14-.15c.02.17.03.34.05.51l-.06-.06c.06.15.11.31.17.46-.06,0-.11-.02-.15-.06,0,.16,0,.37.18.38.11,0,.28-.07.38-.1.27-.06.54-.1.82-.12.17,0,.31.02.42-.12-.02.02-.05.04-.07.06-.01-.06-.06-.36-.01-.41-.05.05-.11.1-.16.14,0-.16-.04-.31-.09-.46-.02.07-.05.14-.1.19-.09-.13-.13-.29-.12-.44-.02.09-.03.18-.05.26-.07-.23-.17-.44-.31-.64.08.09.02.24-.04.35-.1-.14-.19-.29-.25-.44l-.05.14c-.1-.1-.18-.23-.23-.36l-.04.27c-.08-.07-.14-.16-.19-.25.11.16.16.36.13.56-.07-.04-.13-.1-.17-.17.05.15.08.3.09.46Z"/><path class="cls-5" d="M38.84,5.03s-.17.55.03.74c.05.04.22-.28.2-.34s-.15-.17-.15-.26-.04-.21-.09-.13Z"/><path class="cls-6" d="M41.79,9.84s4.31-1.68,4.54-1.63c0,0,.04.19.43.19,0,0-.23.32-.49.3-.08,0-.5-.04-1.02.15-1.15.4-3.13.97-3.45,1Z"/><path class="cls-6" d="M2.7,34.22s-.81-.45-1.05-.94c-.08-.17-.03-.6-.03-.6,0,0,.81.06.97,0,0,0,.13.59.46.71.33.13.93.42,2.02.5l1.06,1.38s.16.2-.52.23-1.15.11-1.81-.17c-.44-.19-.89-.59-1.1-1.11Z"/><path class="cls-6" d="M11.31,33.82s.36.42.97.42,1.45-.15,1.85-.23.42-.27.27-.42-1.72-1.44-1.85-1.48-.64-.09-1.17.06-1.1.39-1.1.39l1.03,1.26Z"/><path class="cls-6" d="M10.06,32.58s.22.99.1.99-.39-.09-.64-.62-.43-.68-.27-.67.47-.15.81.3Z"/><path class="cls-6" d="M24.1,31.48s.19-.15.22-.21.1-.16.17-.08.13.33.41.62c.05.05.24.4-.03.69-.16.17-.27.75-.27.75,0,0-.58-1.18-.49-1.76Z"/><path class="cls-6" d="M25.11,32.13s-.01.3.03.56c.03.23.12.48.15.6.07.25.29.75.93.89s1.86-.24,1.76-.39c-.13-.24-.58-.73-.63-.91,0,0-.2.18-.7.17s-1.54-.91-1.54-.91Z"/><path class="cls-6" d="M30.87,31.59s.86.79.91,1.3c0,0-.26.28-.26.39s-.11-.06-.11-.06c0,0-.38-.71-.55-1.63Z"/><path class="cls-6" d="M34.62,33.21s-1.19.34-2.23-.19c-.36-.17-.23.15-.23.15,0,0,.14.77.95,1.06s.9.26,1.18.26.82-.07,1.04-.28c.16-.12,0-.25,0-.25,0,0-.72-.75-.72-.75Z"/><path class="cls-7" d="M43.06,7.66c.03.29.05.6,0,.9-.05.34-.22.57-.34.87-.01.03-.02.06-.01.09.02.04.07.05.12.05.25,0,.52,0,.71-.16.43-.36.31-1.24.21-1.72-.15-.78-.59-1.95-1.52-2.01.33.5.62.94.75,1.54.03.14.06.29.07.44Z"/><path class="cls-6" d="M33.94,5.11l.14.08c-.14-.38.07-.86-.19-1.17l.12.16-.07-.34.1.08c-.05-.2-.13-.38-.26-.55l.22.33c.03-.15.02-.3-.02-.45.09.18.19.35.32.5.08-.03.14-.1.17-.17.06.11.12.21.19.31.02.02.04.05.06.05.03,0,.06-.02.08-.05.07-.09.11-.2.11-.31.07.19.19.36.34.5.04-.03.05-.1.05-.15.29.3.38.78.24,1.17-.01.03-.03.06-.06.07-.03,0-.05-.01-.07-.03-.14-.13-.26-.29-.33-.47-.1.18-.04.41.02.61l-.37-.26c0,.15.05.3.14.42-.07,0-.15-.04-.18-.11-.04.09-.07.18-.08.28,0,.1.03.18.1.25-.37,0-.71-.42-.79-.76Z"/><path class="cls-2" d="M44.38,11.68c-.25.71-.66,1.37-1.17,1.92.1-.06.13-.2.06-.29-.28.31-.55.62-.83.93.04-.08.05-.17.04-.26-.14.44-.44.82-.83,1.04.05-.11.06-.24.03-.36-.32.44-.73.83-1.18,1.13.07-.13.1-.28.1-.43-.25.53-.62,1.01-1.06,1.4.06-.16.08-.34.06-.51-.22.41-.51.79-.86,1.11.1-.07.11-.23.02-.31-.35.7-.88,1.31-1.51,1.77.03-.23.03-.47,0-.7-.13-.8.27-1.6.44-2.39.15-.69.3-1.39.72-1.96.26-.35.61-.63.97-.89.39-.29.79-.57,1.19-.85.3-.21.61-.43.95-.55.55-.2,1.14-.15,1.72-.11.42.03.78.11,1.16.3Z"/><path class="cls-2" d="M1.51,11.89c.26-.22.58-.42.9-.58.3-.17.61-.28.92-.34.13,0-.1.47-.12.5-.12.19-.24.37-.37.55-.01-.04-.02-.09-.03-.13-.14.18-.24.39-.27.62,0-.02-.01-.05-.02-.07-.2.37,0,.84-.1,1.25-.06-.09-.1-.19-.13-.29l-.34,1.11-.04-.07c-.02.33.2.65.13.97-.05-.07-.1-.14-.13-.22.05.34.02.69-.09,1.02-.07-.06-.12-.14-.14-.23.05.27-.01.56-.17.79,0-.06,0-.12,0-.18.06.24,0,.51-.13.72.02-.04.04-.08.06-.12-.07.2-.09.4-.15.6-.05.2-.16.41-.24.6-.08-.06-.14-.17-.14-.26-.16.53-.39,1.15-.92,1.29.36-.45.62-.98.75-1.54-.05.06-.08.11-.12.17.09-.23.08-.5-.06-.7-.12.08-.23.16-.36.23.31-.25.41-.7.23-1.06-.12.12-.26.23-.41.36.17-.44.33-.86.48-1.28-.16.14-.3.31-.39.5.11-.36.22-.7.34-1.06-.11.14-.25.25-.42.3.17-.37.39-.72.65-1.03-.12.14-.3.25-.48.3.33-.3.59-.64.83-1.01-.08.05-.2-.02-.23-.11-.02-.12.08-.23.17-.33.09-.08.2-.16.25-.28-.08.02-.16.02-.23.03.2-.23.42-.47.64-.7-.17.05-.34.08-.5.12.08-.09.14-.17.23-.26.03-.05.08-.11.12-.16"/></g></g><g class="cls-8"><path class="cls-7" d="M41.96,28.11s-2.28-1.91-2.12-3.13.29-1.53-.63-2.37-.7-1.52-.17-2.24c.35-.47.42-1.58,1.21-.92.66.54.94.74.86.28s-.86-1.14.52-1.68c1.39-.58,1.46-.62,1.87.29s.88.98.81.29c-.09-.91-.71-1.37.38-1.72s2.18-.36,1.74,1.24.32.64.32.64c0,0,.82-1.14,1.38-.34.28.4.04.75,1.15.93.27.04.63.21.95-.3s1.05-.46,1.7-.14c.73.37.79.81,1.12,1.02.29.19.6-.04,1.24.53.63.64.79,1.48-.07,1.99-.92.7-1.02.82-1.02.82,0,0,.56,1.01.67,1.89.31,2.13.19,6.06-2.41,8.67-.91.74-3.2.36-4.81-.55-2.58-1.45-4.03-3.24-4.67-5.19Z"/><path class="cls-6" d="M50.97,21.79c.41-.6,1.03-1.37,1.24-1.61.04-.05.07-.11.07-.18-.03-.61-.9-.9-1.44-.8-.4.08-1.12,1.39-1.47,2.33,0,0,.65.06.98.12s.63.14.63.14Z"/><path class="cls-6" d="M52.7,23.05c.64-.48,1.32-1.1,1.54-1.3.04-.04.07-.11.05-.17-.19-.98-.86-1.06-1.14-1.04-.07,0-.15.03-.21.06-.77.41-1.19.93-1.43,1.36,0,0,.44.24.69.49s.5.6.5.6Z"/><path class="cls-4" d="M41.79,26.95s-1.5-1.36-1.29-2.18c.21-.83.5-1.11-1.13-2.81,0,0-.5-.5-.14-.97s.35-.88.56-1.04c.21-.16.42.44,1.28.89.87.46,1.05.02.62-1.11,0,0-.76-.89-.14-1.15.62-.26,1.12-.87,1.53.06s1.41,1.52,1.64.51c.23-1.01-.5-1.6-.08-1.79.42-.19,1.8-.55,1.25.68-.39.89-.06,1.63.1,1.9.04.07.01.15-.05.19-1.15.73-1.52,1.36-1.62,1.82-.03.15-.1.53-.37.94-.22.33-.45.48-.66.65-.16.13-1.15.93-1.46,1.98-.09.29-.17.77-.03,1.43Z"/><path class="cls-4" d="M48.15,21.62c-.16-.04-.33-.05-.5-.05h0c-.14-.35,1.29-1.43,1.29-1.43.55-.48-.72-.38-.94-.56-.23-.17-.21-.72-.47-.64s-.67,1.11-1.54,1.74c-.87.63-1.22,1.46-1.22,1.46-.12.92-.92,1.65-1.13,1.77-.21.11-.65.51-1.18,1.53-.53,1.02.31,2.51.31,2.51,1.36,3.62,5.31,5.99,7.53,5.57,1.99-.38,3.73-5.94,2.66-9.05-1.07-3.12-2.89-2.34-4.83-2.85Z"/><path class="cls-2" d="M52.94,29.48s-.77,2.84-1.79,3.58c-.88.7-1.22.52-2.19.43s-3.15-1.29-4.28-2.55-1.47-1.84-1.9-2.97c0,0-1.1-2.21.07-2.36,1.17-.16,2.01,1.67,2.72,2.25.64.78,1.58,1.49,3.06,1.43s2.17-.66,3.62-.58c1.01.02.69.78.69.78Z"/><path class="cls-2" d="M44.31,21.95c-.03.15-.1.53-.37.94-.22.33-.45.48-.66.65-.16.13-1.15.93-1.46,1.98-.09.29-.17.77-.03,1.43,0,0-1.5-1.36-1.29-2.18.21-.83.67-1.28,1.82-1.72.51-.19.87-.54,1.13-1s.97-.56.87-.1Z"/></g></svg>