<?xml version="1.0" encoding="UTF-8"?><svg id="Livello_1" xmlns="http://www.w3.org/2000/svg" viewBox="0 0 54.77 40.12"><defs><style>.cls-1,.cls-2,.cls-3{fill:none;stroke:#657889;stroke-miterlimit:10;stroke-width:.22px;}.cls-2{stroke-dasharray:0 0 1.86 .46;}.cls-4{fill:#a6cce8;}.cls-4,.cls-5,.cls-6,.cls-7,.cls-8,.cls-9,.cls-10{stroke-width:0px;}.cls-5{fill:#a6c6dd;}.cls-6{fill:#7f9db5;}.cls-7{fill:#8cadce;}.cls-8{fill:#85a5c3;}.cls-9{fill:#91b5d6;}.cls-10{fill:#d9d9d9;}.cls-3{stroke-dasharray:0 0 1.41 .35;}</style></defs><path class="cls-7" d="M12.66,35.06l-.85.28-1.05.46h-1.2s-.83.11-1.39.14-1.87-.13-1.99-.11-.91-.04-.81-.05.4-.05.48-.16.18-.56.09-.51-.03-.19-.23-.11-.49.32-.49.32c0,0-.13,0-.01-.35s.24-.71.13-.75-.34.2-.34.2c0,0-.27-.19-.57-.82s-.35-1.3-.48-1.1-.24.95-.26.81.04-1.02-.07-.64-.39,1.45-.4,1.3.08-3.88.08-3.88c0,0,.1-.53-.08-.3s-.38,1.42-.4,1.09.14-1,0-.78-.24.76-.27.62.11-1.51.11-1.51c0,0-.08-1.68-.03-2.2s-.29-1.56-.29-1.56c0,0-.25.53-.3.61s-.06-.19,0-.34-.57.44-.39.2.2-.83.21-1.19-.04-1.33-.13-1.19-.66.7-.72.73-.11-.09,0-.19.42-.59.48-.76.09-1.26-.01-1.18-.43.47-.39.37.15-.3.14-.39-.2.08-.2.08c0,0,.18-1.16.24-1.61s.24-2.01.1-1.85-1.07,1.29-1.07,1.29c0,0-.39.37-.25.13s.57-1.14.57-1.14c0,0,.4-1.04.59-1.3s.59-1.39.4-1.26-.52.35-.38.2.53-1.05.54-1.16.28-.75.37-1.01.38-.87.13-.68-.87.54-.58.32.34-.52.34-.52c0,0-.59.62-.52.42s.76-1.76.76-1.76l.39-.97s-.54.56-.8.9.2-.4.33-.63.86-1.71,1.07-2.09.64-.94.64-.94c0,0-.05-.18-.33-.11s-.64.09-.59.04.4-.33.4-.33c.21-.13.3-.19.32-.32s-.09-.25-.24-.18-.99.3-.66.14.86-.56.97-.71,1.2-1.45,1.14-1.62-.24-.19-.44-.19-.79-.14-.79-.14c0,0,1.43-1.68,2.3-2.19s1.33-.62,1.33-.62c0,0-.46-.51-1.3-.43s-1.11,0-1.11,0c0,0,.97-.32,1.46-.29s1.22.3,1.22.3c0,0-.79-.57-1.25-.6s-.7,0-.7,0c0,0,.95-.32,1.52-.14s2.41.89,2.41.89c0,0-1.35-.88-1.57-.95,0,0,1.19.38,1.43.55s.57.46.57.46l-.54-.84s.43.16.54.32.54.43.54.43c0,0,.11-.57,0-.79s-.24-.6-.24-.6c0,0,.41.43.57.76s.19.49.19.49v-.95s.22.38.41.62l.19.24.25-.55s.51.54.98.84,3.04,1.72,3.04,1.72l4.15,5.06.51,13.42-4.32,8.87-1.92,3-1.65.94Z"/><path class="cls-9" d="M18.39,33.32l16.07-.68,8.02-.39,3.52.11,5.12-3.96s1.71-2.1,1.94-2.56.32-2.61.32-2.61c.08-.43.25,1.45.25,1.45,0,0,.1-.43.13-.71s-.18-1.17-.16-1.57.81.6.81.6c0,0-.03-.02-.38-.93-.27-.71.05-1.08-.02-1.36s.65,1.08.71,1.3c.28,1.14-.48-1.84-.48-1.84,0,0-.33-2.07-.4-2.53s.08-.56.28-.1.56,1.14.56,1.14c0,0-.23-3.24-.25-3.74s-.76-2.23-.73-2.68.73,1.37.73,1.37c0,0-.05-.48-.15-1.01s-1.21-3.16-1.01-3.04.63.81.63.81c0,0-.03-.23-.22-.71s-1.35-2.23-1.27-2.48,1.26.63,1.26.63c0,0,.1-.08-.56-.51s-1.44-.89-1.37-1.01,1.37,0,1.37,0c0,0-1.42-.3-1.95-.33s.99-1.59.99-1.59c0,0-1.11,1.01-1.54,1.09s.2-.56.2-.56c0,0-.91.4-1.16.28s.91-1.52.91-1.52c0,0-1.24.81-1.42.73s.71-.78.71-.78c0,0-.68.18-.56.03s.73-.58.73-.58c0,0-1.75.15-1.92.03s1.92-.83,1.92-.83c0,0-3.04.13-3.59.2s.89-1.11.89-1.11c0,0-1.42.61-2.55.96s1.52-.94,1.52-.94c0,0-2.93.89-3.84.86s.08-.43.25-.66-2.68,1.48-2.68,1.48c0,0,.12-.47.32-.76s1.03-1.21,1.03-1.21c0,0-.65.47-1,.62s.28-.67.28-.67l-1.63,1.69s.37-1.05.43-1.25.42-.93.42-.93c0,0-2.42,1.89-2.4,1.8s.73-1.23.73-1.23l-.53.25c-.53.25-1.8,1.43-1.8,1.43,0,0,.03-.64.05-.73s.13-.49.33-.78.53-.98.53-.98c0,0-.65.52-1.08.96s-1.55,1.45-1.55,1.45c0,0,.28-.83.47-1.13s1.17-1.37,1.17-1.37c0,0-.08.05-.19.13-.29.2-.82.6-1.11,1-.4.56-.68,1.6-.68,1.6,0,0-.05-.17-.07-.34s.03-.64.03-.64l-.4.12s.08-.39.17-.59.55-1.53.55-1.53c0,0-.78.66-1.02.99s-1.33,2.12-1.33,2.12c0,0-.15-.88.17-1.37s.82-1.43.82-1.43c0,0-.12.03-.45.34s-.68,1.59-.68,1.59l-.12-.2-.5.73-.63-1.08-.43.86s-.02-.89.07-1.1.28-.44.28-.44l-.2.07c-.2.07-.43.88-.43.88,0,0-.05-.35-.05-.61s.17-.69.17-.69c0,0-.03.08-.22.35s-.1,1.21-.1,1.21c0,0-.18-.12-.37-.26s-.98-.83-1.1-.94.12,1.1.12,1.1c0,0-.63-.78-.58-.93s-.05.15-.05.15c0,0,.63,1.05.48,1.01s-1.03-.67-1.03-.67l-.25-.07,1.13.85s.5.58.38.7-.6-.35-.83-.49-1.47-1.18-1.47-1.18l1.1,1.94s-1.8-1.1-2.1-1.3-.72-.51-.72-.51l.55,1.21s-.4-.54-1.02-.89-2.02-.54-1.65-.39,1.07.27,1.85.85c.47.35.87.92.82.92s-2.03-1.3-2.9-1.54-1.27-.31-1.27-.31l1.52,1.23s-.32-.19-.92-.61-2.23-.63-2.23-.63c0,0,.43.05.8.15s1.62.94,1.62.94l-.25-.08c-.25-.08-2.81-1.01-2.81-1.01,0,0,.3.13.74.44s1.13,1.41,1.13,1.41l-.95-.74s-.79-.41-1-.6-1.57-.57-1.57-.57c0,0,.14.14.38.27s1.19.89,1.19.89c0,0-.89-.41-1.3-.51s-1.49-.35-2.08-.51-.68-.08-.68-.08l.68.41s-.51-.16-1.38-.11l-1.08.13s.4.27.71,1.08.27,1.05.27,1.05l1.18-.67-.94,1.72s.4-.67,1.75.61,1.38,1.65,1.38,1.65c0,0-.81-1.01-1.28-.98s1.15,1.79,1.18,1.89-.98-.71-1.05-.44,1.82,2.39,1.92,3.17.07,2.56.07,2.56c0,0-.51-1.42-.74-1.62s-.27.44-.13.81.24.81.24.81c0,0-.2-.44-.61-1.05s.94,1.79.91,2.56.03,2.06,0,2.7.24,1.52.37,1.72-.13.13-.4-.24-.54-.74-.27-.37.13.78.13.78c0,0-.34-.54-.67-.84s-.47-.98-.34-.3.34,1.59.44,2.16.3,1.37.07.97-.51-2.12-.61-1.44.71,3.34.74,3.68-.13.47-.34-.2-.37-1.55-.4-1.32.34,2.46.34,2.73-.09-.18-.17.74c-.04.49-.3,3.81-.3,3.81l-.07,2.19-1.75,1.62,4.49-.11Z"/><path class="cls-8" d="M16.39,19.26s1.28,1.15,1.28.91-.3-1.11-.4-1.38.2-.94.2-.94l.2.69s.27-1.84.4-1.7.57,1.7.57,1.7c0,0,.34.9.44.9s.61-.84.57-1.65.34-2.43.44-2.33.91,2.46.98,2.56.71,1.35.71,1.35c0,0,.13-.94.34-.64s.13-1.59.27-1.52,1.05,2.77,1.15,2.83.27-1.01.4-.94.44,1.11.44,1.11c0,0-.17,1.79-.54,2.03s-.98,1.11-.91.54.17-2.29-.1-1.62-.81,1.28-.78,1.01.44-3.51-.17-1.85-1.52,3.95-1.5,3.54-.02-1.96-.19-1.69-.51,3.07-.78,2.9-.34-4.82-.78-3.95.37,1.82.24,1.89-.44.07-.47-.3-.67-1.15-.81-.51-.27,1.65-.51,1.82-.98-2.66-.84-2.56.13-2.19.13-2.19Z"/><path class="cls-6" d="M52.59,27.54c.35-.18.78-1.64.78-1.64,0,0,.03.58-.03.96s-.38,1.67-.51,2-1.62,2.28-1.11,2.05,1.52-1.64,1.52-1.64c0,0-.68,1.21-.94,1.52s-.81.51-.58.61,1.42-1.09,1.42-1.09c0,0-1.21,1.52-1.06,1.52s1.04-.76,1.04-.76c0,0-.94,1.54-1.39,2.05s-.76.91-1.06,1.11-1.44.76-1.44.76c0,0,.78.46,1.01.76s.2.51.08.46-1.21-.91-.99-.66.25.46.25.46c0,0-1.34-.3-1.59-.48s.1.38.18.56.53.48.25.43-.99-.96-1.24-.91.28.53.28.53c0,0-1.01-.53-1.57-.63s-2.33-.38-2.07-.25,1.64.48,1.09.58-1.82-.25-2.61-.38-2.58-.2-2.53-.05,1.85.38,1.06.46-2.18-.08-2.45-.03-.83.1-.71.2.73.33.73.33c0,0,.15.1-.78-.08s-.89-.73-1.11-.66-.28.35-.23.48-.53.05-.86-.03-1.47-.63-1.16-.28.46.48.46.48c0,0-1.16-.33-1.77-.25s-1.47.37-1.95.49-1.39.47-.94.3,1.9-1.04,1.59-1.06-3.19,1.16-2.78.78.89-.68.71-.66-2.98.68-2.98.68c0,0,1.82-.76,1.04-.81s-2.4.61-2.4.61c0,0,2.07-.76,1.09-.71-.99.05-3.59.76-3.59.76,0,0,2.1-.68,1.52-.91s-6.07.76-6.42.89-1.04.43-.81.25,1.32-.73,1.32-.73c0,0-1.52.4-1.85.51s.56-.46.66-.51-3.74.53-4.07.58-1.72.33-.86.03,1.47-.43,1.34-.53-2.12-.08-3.04-.03-2.07-.1-2.07-.1l1.9-.68.15.53s2.63-2.05,2.98-2.58,1.14-2,1.34-3.01.33.89.51,1.42.25-1.04.2-1.21.48-4.12.48-4.12c0,0,.05,3.52-.05,3.64s1.06-.53,1.32-.81,1.49-2.38,1.49-2.38c0,0-.28,1.44-.53,2.45s.4-.46.63-.68-.05.51-.08.96.56-.81.76-1.24.05.63-.1.89.2.71.4.56.78-.96.83-1.01-.1,2.58-.2,2.98.33-.23.56-.51.13.48-.1.81,1.44-.73,2.35-1.24,1.9-2.1,2.55-2.86,1.14-2.1,1.16-3.77.03,1.09-.03,1.67.2.05.46-.58.03.63-.05,1.64.51-.33.66-1.37.23.03.18.89-.38,4.15-.2,4,.38-.58.73-.99.15.71.15.71c0,0,1.92-2.93,2.23-3.36s-.68,2.33-.68,2.33c0,0,.94-1.8,1.11-2.2s-.64,2.71-.64,2.71c0,0,.41-.38.67-.78s.18.58.05,1.11.4-.33.89-1.01-.03.58-.23.89.66.05,1.01-.46.81-1.44.81-1.44c0,0-.63,1.77-.35,1.59s1.44-2.02,1.54-2.45-.76,2.35-.76,2.35c0,0,.68-1.06.96-1.8s-.13,1.37-.73,2.33c-.61.96-.48.96-.13.73s.89-.71,1.57-1.47.35-.2.08.23-.1.56.15.38,1.06-1.06,1.49-2.2.03.76-.2,1.04.13.38.35.08,1.06-1.21.86-.89-.43.96-.33.83,1.42-1.52,2-2.83.51-1.95.58-1.47.05,1.59.18.78.58-3.47.58-3.47c0,0,.28,5.62.25,6.32s-.38,1.09.25.43.43-.48.4-.35.23.56.48.1.46-1.54.81-2.1-.08,1.87-.3,2.48.18.68.35.05.38-.61.28-.33.08,1.11.28.94.83-1.85,1.06-2.35-.23,2.81-.3,3.49.23.05.91-.33,1.52-1.54,2.15-2.12.94-1.06,1.42-1.82-.68,1.64-.68,1.64c0,0,1.01-1.24,1.47-1.82s.91-2.63.91-2.63c0,0-.46,2.53-.33,2.45s1.06-1.34,1.21-1.82-.96,2.35-.96,2.35l1.49-2.2s-.23,1.01-.33,1.29.23.28.38.05-.2.83-.2,1.04-.35,1.29-.35,1.29Z"/><path class="cls-8" d="M5.32,5.84s.16-.4.76-.74c.12-.07.27-.14.43-.2.96-.35,1.34-.3,1.16-.2s-1.42.53-1.69.78-.66.35-.66.35Z"/><path class="cls-8" d="M5.92,5.97s1.24-.86,1.64-.96.51-.35.4-.1-1.46.94-1.46.94l-.59.13Z"/><path class="cls-8" d="M4.73,7.46s.76-.94.81-.68-.4.68-.4.68h-.4Z"/><path class="cls-8" d="M12.78,4.8s.09-.21.15-.08.08.49,0,.52-.15-.44-.15-.44Z"/><path class="cls-8" d="M11.55,5.55s.6.08.74.18.14.27.07.24-1.09-.33-.81-.42Z"/><path class="cls-8" d="M13.16,6.39s.34-.08.43,0,.53.34.38.34-.35.11-.44,0-.37-.34-.37-.34Z"/><path class="cls-8" d="M13.58,8.02s.74.44.96.64.76,1.14.64,1.23-.2-.01-.3-.25-.43-.78-.75-1.04-.8-.49-.55-.58Z"/><path class="cls-8" d="M14.55,11.15s.94,1.05,1.06,1.33.3,1.05.17.96-.27-.46-.34-.62-.89-1.67-.89-1.67Z"/><path class="cls-8" d="M15.31,13.99s.1,1.57.27,1.97.52,1.02.52,1.02c0,0-.21-.43-.27-.75s-.25-1.03-.28-1.25-.24-.99-.24-.99Z"/><path class="cls-8" d="M15.46,16.73s.61.69.51.79-.17.1-.25,0-.26-.79-.26-.79Z"/><path class="cls-8" d="M14.73,18.64s.29,1.5.32,1.74-.17.56-.16.64-.16,1.52,0,1.84-.04.54,0,.62.2.78,0,.57-.65-1.75-.55-1.74.38.96.35.67-.06-2.06,0-2.19.14-.29.09-.57-.37-1.77-.05-1.59Z"/><path class="cls-8" d="M14.24,24.93s.15-1.18.22-.64-.12,1.74-.11,1.79-.01.39-.11.08,0-1.23,0-1.23Z"/><path class="cls-8" d="M13.76,25.97s.12.93.08,1.21-.19,1.45-.27,1.3-.02-.49,0-.66.02-1.96.19-1.85Z"/><path class="cls-8" d="M14.2,27.24s-.11,1.5-.35,1.82-.56.98-.41.91.77-.83.76-.99.29-2.01,0-1.74Z"/><path class="cls-8" d="M5.55,8.52c.04-.07,1.11-1.79,1.06-1.43s-.53,1.17-.53,1.17c0,0,1.11-.95,2.27-1.22s1.67-.72,1.69-.65-.63.53-.28.53,2.28.66,1.9.66-.99-.18-.89.05,1.05.81,1.51,1.77,1.2,2.83,1.37,3.24.46,2.23.56,2.43.35,2.58.2,2.48-.2-.81-.25-.35,0,1.37.08,1.62-.03,1.95-.15,2.33-.2,1.82-.38,1.52-.2-.99-.18-.3-.33.89-.28,1.11-.33.73-.35.94.05,1.26-.13,1.95-.47,1.59-.49,1.06.27-1.67,0-1.24-.9.94-.88.73.48-.63.2-.51-1.37.43-.91.18,1.57-1.44,1.69-1.85.23-.78.4-1.09.33-1.16.15-.94-.99.4-.99.4c0,0,.51-.53.76-.73s-.13-.3.05-.58.33-.48.53-.81.33-.33.38-.68-.15-1.26-.08-.63-.25.61-.28.28.25-1.32.23-1.54-.23-.03-.28-.25c-.1-.46.53-1.75.48-1.9s-.51.51-.51.51c0,0-.15-.25-.05-.51s.25-1.44.18-1.52-.38.56-.33.23.03-1.85.03-2.12.15-.66-.4-1.9-.83-2-.96-1.97.13.99.15,1.19-.25,1.04-.25.68-.33-1.75-.46-2.05-.91-1.54-.88-1.16.23.66.15.66-.43-.35-.78-.56-.91-.53-1.39-.28-1.35.73-1.28.68,1.01-.43,1.23-.35.28.2-.19.3-1.33.58-1.5.71,1.08-.35.85-.08-.76.38-1.24.73-.78.94-.98,1.11-1.01,1.24-.81.73.99-1.52.99-1.52c0,0-.06-.79.23-1.26Z"/><path class="cls-8" d="M4.58,12.11s.66-1.26,1.34-1.92,1.25-.78,1.04-.58-1.52,1.34-1.65,1.62-.94,1.25-.73.89Z"/><path class="cls-8" d="M4.15,10.55c.03-.11.81-1.19.81-1.02s-1.04,1.93-.81,1.02Z"/><path class="cls-8" d="M6.3,17.17c-.03-.22.25-1.87.89-2.5l.63-.63s-1.44.66-1.52,1.01-.54,1.09-.52,1.21-.39.23-.41.05.18-.63,0-.56,0,.82,0,.98-.25.28-.23.43.1.43.2.56-.1.68-.2.43-.67-1.09-.59-.78.61,1.29.66,1.59.32,2.02.56,2.39.6.8.78.93.73.43.76.63-.03,1.11.1.58,0-.99-.41-1.37-.93-1.64-.93-1.85-.14-1.59.11-2.12,1.28-1.86.7-1.42l-.58.43Z"/><path class="cls-8" d="M7.64,18.26s.2-.96.4-.66.43.73.51.56-.1-.76-.3-.83-.43-.16-.43-.16c0,0,.12-.15.29-.19s.4-.33.12-.25-.71.31-.78.54-.08.79.2.99Z"/><path class="cls-8" d="M8.43,19.07s-.63-.39-.86-.45-.64-1.1-.56-.72.39.94.39.94h-.39s0,.37.39.42.98.23,1.03.25-.35-.46,0-.46Z"/><path class="cls-8" d="M7.98,19.78s.3.35.59.58.94.35,1.2.23.61-.76.73-.81.05-1.05.15-.93.33.91.33.68-.3-2.05-.2-2.25-.05-.91-.13-1.14-.23-.78-.23-.78c0,0,.56.56.73.89s.61.71.3.35-.68-1.26-.83-1.52-.38-.61-.63-.78-.48-.15-.94-.3-1-.25-.49.05.63.08,1.2.89.5,1.42.5,1.42c0,0-.61-.97-.66-.85s.59.85.66,1.11.23.9.23.9c0,0-.63-.87-.53-.65s.21.77.31.98.1,1.15,0,1.4-.41.63-.5.53.02.1-.29.25-.53.33-.78.13-.72-.35-.72-.35Z"/><path class="cls-8" d="M9.62,19s.18-.7.2-.84.06-.32.09-.25,0,.53,0,.72-.1.6-.21.62-.08-.24-.08-.24Z"/><path class="cls-8" d="M7.59,20.64s.07-.35.12-.38.51.2.62.38.66.3.82.3.68-.09.78-.14.37-.28.4-.19-.36.36-.4.4-.53.19-.65.2-.46-.09-.6-.19-.21-.07-.47-.28-.39-.52-.39-.27-.35.34-.23.19Z"/><path class="cls-8" d="M4.54,22.86s.09,3.31.82,4.37c.73,1.07,1.29,1.57,1.16,1.57s-.62-.05-.35.37.96,1.46,1.13,1.71.48.48.16.46-.34.35-.16.36.71.28.51.29-1.04,0-1.42-.4-.71-.98-.78-1.61-.43-2.18-.58-1.6.03,2.44-.23,1.6-.56-1.5-.38-2.56.34-1.67-.13-1.34-.6-.13-.4-.43.21-3.04.4-3.04.24.25.24.25Z"/><path class="cls-8" d="M9.51,27.95s-.78-.24-.9-.74-.25-2.47-.4-2.19-.52-.05-.34-.4.6-1.87.31-1.52-.89,2-.82,2.25-.38-1.04-.63-1.25-.13-.01,0,.44-.03.73-.33.48-.71.02-.1.48.85,1.23,1.41,1.81,1.07.82,1.42.9.64-.14.37-.25Z"/><path class="cls-8" d="M11.23,27.77s-.94.89-1.31.96-1.45-.28-1.22,0,1.62.61,1.82.44,1.27-1.43,1.04-1.28-.33-.13-.33-.13Z"/><path class="cls-8" d="M11.21,31.23s1.09-1.11,1.32-1.41.46-2.38.61-2.05.1,1.53,0,1.71-.15.54-.28.74-.27.56-.64.81-1.37.58-1,.2Z"/><path class="cls-8" d="M3.81,12.59c.02.1-.69,2.33-.74,3.14s-.28,1.47-.28,1.62.08-.23.35.25-.1,1.06-.23,1.37-.4,1.69-.28,2.02.58-1.45.57-.74.01,1.87,0,1.95-.11,1.96,0,1.94.56-2.65.6-2.79-.14-.82-.21-.63-.1-1-.13-1.2-.38,0-.38,0c0,0,.51-1.46.51-1.7s-.05-1.18-.13-1.41.3-1.57.2-1.64.13-2.18.13-2.18Z"/><path class="cls-8" d="M17.47,4.97c.57.54,1.27,2.18,1.43,2.82.3,1.18.44.88.44.88,0,0-.84-3.47-.62-3.3s.98,2.34.98,2.34c0,0-.45-3.36,0-3.2s1.24,1.68,1.24,1.68c0,0-.67-1.85-.38-1.61s.56,1.67.71,1.16-.48-2.63-.27-2.2c.74,1.48.96,2.59.96,2.59,0,0-.44-.07-.64.24s.1,1.36.1,1.8-.71-1.84-1.38-2.56c-.18-.19.3,2.38.15,3.09,0,0,.04,1.1-.13,1.2s-.43-1.8-.43-1.52-.24,1.15-.48,1.15-.19-.86-.47-1.64c-.4-1.09-1.47-3.16-1.2-2.9Z"/><path class="cls-8" d="M45.22,20.16c-.02-.1-.22-4.43,0-4.07s.39,4.17.49,3.58,0-2.39,0-2.39c0,0,.41,1.01.45,1.64s.49.4.45.15.12-.4.18-.05.33,1.14.33,1.14c0,0,0-1.97.12-1.67s.67,2.33.67,2.33c0,0-.1-3.67.08-3.19s.65,2.03.65,2.03l.3.34s.37-2.43.47-1.67.22.84.24.96.57-4.01.72-3.23.76,2.06.82,2.14.22.43.22.43c0,0-.06-1.79.3-.87s.37,2.08.35,1.89-.41-1.3-.41-1.02-.2,1.32-.22.66-1.03-2.35-1.06-2.05-.44,4.25-.48,4.12-.35-1.44-.37-1.37-.33,2.66-.39,2.05-.91-2.98-.89-2.61.06,2.55.06,2.55l-.85-1.87-.33,1.34s-.49-1.93-.57-1.81-.47-.99-.49-.36-.16,4.48-.16,4.6-.18-4.1-.3-3.52-.24,4.15-.24,4.15c0,0-.78-2.91-.8-2.78s-.26-2.81-.16-2.58.33,1.37.43,1.49.39-.51.39-.51Z"/><path class="cls-8" d="M31.42,22.89c0-.1.45-4.41.68-4.02s-.2,4.19.02,3.63.4-2.35.4-2.35c0,0,.35,1.08.29,1.72s.55.5.54.25.22-.37.24-.01.22,1.19.22,1.19c0,0,.33-1.95.43-1.62s.46,2.44.46,2.44c0,0,.48-3.64.63-3.13s.49,2.14.49,2.14l.33.41s.87-2.32.87-1.55.14.87.15,1,1.4-3.83,1.46-3.03.62,2.19.69,2.29.21.48.21.48c0,0,.22-1.78.53-.79s.12,2.13.12,1.94-.3-1.37-.35-1.09-.48,1.26-.39.6-.92-2.54-1.01-2.25-1.26,4.1-1.3,3.96-.2-1.5-.24-1.43-.85,2.55-.83,1.94-.66-3.14-.7-2.76-.35,2.53-.35,2.53l-.77-2.03-.64,1.25s-.3-2.01-.42-1.91-.43-1.08-.56-.46-.95,4.38-.97,4.5.45-4.08.2-3.53-.99,4.04-.99,4.04c0,0-.5-3.03-.55-2.91s.13-2.82.22-2.58.19,1.42.29,1.56.57-.42.57-.42Z"/><path class="cls-8" d="M25.1,16.24s.13,1.8,0,2.39c-.13.59-.33-3.22-.61-3.58-.28-.35-.03,3.97,0,4.07,0,0-.35.63-.48.51-.13-.13-.4-1.26-.53-1.49-.07-.13,0,.76.07,1.53-.08.05-.21.13-.25.24-.07.19-.13-.89-.35-1.64-.22-.75-.1.85-.2,1.14s-.17-1.38-.39-2.23,0,1.68,0,1.68c.05.64-.56-.69-.64-.85-.08-.15-.03.54-.1.62-.07.09-.25-.74-.4-1.02s.62,3.82.73,4.14c.1.32.2-.81.32-1.18.12-.37.13.79.42,1.16s0-.54.08-.86.22.56.34.98c.12.42.2.37.22.32s.03-1.18.16-1.1.19,1.59.22,1.45c.03-.13.17-.74.27-.59.1.15.54,1.74.7,1.57.04-.04.04-.17.01-.33.04-.9.16-3.35.28-3.82.15-.58.38,3.64.38,3.52s.18-3.97.2-4.6c0-.22.07-.23.16-.15-.03-.06-.05-.13-.05-.23-.05-.63-.56-1.64-.56-1.64Z"/><path class="cls-8" d="M25.71,18.11c.03.07.08.12.12.15-.04-.06-.09-.11-.12-.15Z"/><path class="cls-8" d="M32.58,16.73c-.46-.92-.38.87-.38.87,0,0-.2-.35-.28-.43-.08-.08-.83-1.36-1.02-2.14-.19-.78-.88,3.36-.9,3.23-.03-.13-.18-.2-.3-.96-.13-.76-.58,1.67-.58,1.67l-.38-.34s-.58-1.55-.81-2.03c-.23-.48-.1,3.19-.1,3.19,0,0-.68-2.02-.83-2.33-.15-.3-.15,1.67-.15,1.67,0,0-.33-.78-.4-1.14-.08-.35-.28-.2-.23.05.03.17-.2.32-.38.22.13.18.28.43.33.37.1-.12.71,1.81.71,1.81l.4-1.34,1.06,1.87s-.05-2.18-.08-2.55,1.04,2,1.11,2.61c.08.61.46-1.97.48-2.05s.4,1.24.46,1.37c.05.13.56-3.82.6-4.12.04-.3,1.3,1.39,1.32,2.05.03.66.28-.38.28-.66s.48.83.51,1.02c.03.19.03-.97-.43-1.89Z"/><path class="cls-8" d="M25.1,15.86s.13,1.8,0,2.39c-.13.59-.33-3.22-.61-3.58-.28-.35-.03,3.97,0,4.07,0,0-.35.63-.48.51-.13-.13-.4-1.26-.53-1.49-.07-.13,0,.76.07,1.53-.08.05-.21.13-.25.24-.07.19-.13-.89-.35-1.64-.22-.75-.1.85-.2,1.14s-.17-1.38-.39-2.23,0,1.68,0,1.68c.05.64-.56-.69-.64-.85-.08-.15-.03.54-.1.62-.07.09-.25-.74-.4-1.02s.62,3.82.73,4.14c.1.32.2-.81.32-1.18.12-.37.13.79.42,1.16s0-.54.08-.86.22.56.34.98c.12.42.2.37.22.32s.03-1.18.16-1.1.19,1.59.22,1.45c.03-.13.17-.74.27-.59.1.15.54,1.74.7,1.57.04-.04.04-.17.01-.33.04-.9.16-3.35.28-3.82.15-.58.38,3.64.38,3.52s.18-3.97.2-4.6c0-.22.07-.23.16-.15-.03-.06-.05-.13-.05-.23-.05-.63-.56-1.64-.56-1.64Z"/><path class="cls-8" d="M25.71,17.73c.03.07.08.12.12.15-.04-.06-.09-.11-.12-.15Z"/><path class="cls-8" d="M32.58,16.36c-.46-.92-.38.87-.38.87,0,0-.2-.35-.28-.43-.08-.08-.83-1.36-1.02-2.14-.19-.78-.88,3.36-.9,3.23-.03-.13-.18-.2-.3-.96-.13-.76-.58,1.67-.58,1.67l-.38-.34s-.58-1.55-.81-2.03c-.23-.48-.1,3.19-.1,3.19,0,0-.68-2.02-.83-2.33-.15-.3-.15,1.67-.15,1.67,0,0-.33-.78-.4-1.14-.08-.35-.28-.2-.23.05.03.17-.2.32-.38.22.13.18.28.43.33.37.1-.12.71,1.81.71,1.81l.4-1.34,1.06,1.87s-.05-2.18-.08-2.55,1.04,2,1.11,2.61c.08.61.46-1.97.48-2.05s.4,1.24.46,1.37c.05.13.56-3.82.6-4.12.04-.3,1.3,1.39,1.32,2.05.03.66.28-.38.28-.66s.48.83.51,1.02c.03.19.03-.97-.43-1.89Z"/><path class="cls-8" d="M37.6,11s.13,1.8,0,2.39c-.13.59-.33-3.22-.61-3.58-.28-.35-.03,3.97,0,4.07,0,0-.35.63-.48.51-.13-.13-.4-1.26-.53-1.49-.07-.13,0,.76.07,1.53-.08.05-.21.13-.25.24-.07.19-.13-.89-.35-1.64-.22-.75-.1.85-.2,1.14s-.17-1.38-.39-2.23,0,1.68,0,1.68c.05.64-.56-.69-.64-.85-.08-.15-.03.54-.1.62-.07.09-.25-.74-.4-1.02s.62,3.82.73,4.14c.1.32.2-.81.32-1.18.12-.37.13.79.42,1.16s0-.54.08-.86.22.56.34.98c.12.42.2.37.22.32s.03-1.18.16-1.1.19,1.59.22,1.45c.03-.13.17-.74.27-.59.1.15.54,1.74.7,1.57.04-.04.04-.17.01-.33.04-.9.16-3.35.28-3.82.15-.58.38,3.64.38,3.52s.18-3.97.2-4.6c0-.22.07-.23.16-.15-.03-.06-.05-.13-.05-.23-.05-.63-.56-1.64-.56-1.64Z"/><path class="cls-8" d="M38.21,12.88c.03.07.08.12.12.15-.04-.06-.09-.11-.12-.15Z"/><path class="cls-8" d="M45.09,11.5c-.46-.92-.38.87-.38.87,0,0-.2-.35-.28-.43-.08-.08-.83-1.36-1.02-2.14-.19-.78-.88,3.36-.9,3.23-.03-.13-.18-.2-.3-.96-.13-.76-.58,1.67-.58,1.67l-.38-.34s-.58-1.55-.81-2.03c-.23-.48-.1,3.19-.1,3.19,0,0-.68-2.02-.83-2.33-.15-.3-.15,1.67-.15,1.67,0,0-.33-.78-.4-1.14-.08-.35-.28-.2-.23.05.03.17-.2.32-.38.22.13.18.28.43.33.37.1-.12.71,1.81.71,1.81l.4-1.34,1.06,1.87s-.05-2.18-.08-2.55,1.04,2,1.11,2.61c.08.61.46-1.97.48-2.05s.4,1.24.46,1.37c.05.13.56-3.82.6-4.12.04-.3,1.3,1.39,1.32,2.05.03.66.28-.38.28-.66s.48.83.51,1.02c.03.19.03-.97-.43-1.89Z"/><path class="cls-8" d="M21.31,24.93s-.33,1.77-.59,2.31c-.27.54.48-3.2.3-3.61-.18-.41-1.01,3.84-1.01,3.94,0,0-.5.52-.59.37-.09-.15-.08-1.33-.14-1.58-.04-.14-.19.73-.31,1.5-.09.02-.23.07-.3.17-.11.16.09-.9.07-1.68-.03-.78-.31.8-.48,1.05s.18-1.38.18-2.26-.42,1.62-.42,1.62c-.11.63-.37-.81-.41-.98-.04-.17-.17.51-.25.58-.09.07-.06-.78-.14-1.09s-.35,3.85-.33,4.19c.02.34.4-.73.61-1.06.21-.33-.07.8.11,1.23s.13-.52.3-.81.07.59.08,1.03c0,.44.1.41.13.36s.33-1.13.43-1.02-.21,1.58-.14,1.46c.07-.12.35-.68.41-.5.06.17.09,1.82.29,1.69.05-.03.08-.15.1-.31.26-.86.99-3.2,1.23-3.63.29-.53-.54,3.62-.51,3.5s1.16-3.8,1.34-4.41c.06-.21.13-.2.19-.11-.01-.06-.01-.14,0-.23.11-.62-.13-1.73-.13-1.73Z"/><path class="cls-8" d="M21.43,26.9c.01.08.04.13.08.17-.03-.07-.06-.13-.08-.17Z"/><path class="cls-8" d="M28.43,27.28c-.21-1-.58.75-.58.75,0,0-.11-.39-.16-.49-.05-.1-.47-1.53-.46-2.33.01-.8-1.69,3.04-1.68,2.91,0-.13-.12-.24-.05-1.01.07-.77-.98,1.47-.98,1.47l-.28-.43s-.18-1.65-.28-2.17c-.1-.52-.89,3.06-.89,3.06,0,0-.16-2.13-.23-2.46-.07-.33-.56,1.58-.56,1.58,0,0-.12-.84-.11-1.2.01-.36-.22-.27-.23,0,0,.17-.28.26-.42.12.08.21.16.48.23.44.13-.09.23,1.93.23,1.93l.73-1.2.56,2.08s.49-2.12.56-2.49.51,2.19.43,2.8c-.08.61.93-1.8.98-1.86s.08,1.3.1,1.44c.02.14,1.49-3.56,1.61-3.84.12-.28.91,1.67.77,2.32-.14.64.36-.3.43-.57s.26.93.24,1.11c-.02.19.27-.93.05-1.94Z"/><path class="cls-4" d="M23.62,4.39s.98,1.1,1.13,1.32.2.59.1.49-.67-.98-.83-1.11-.78-.88-.4-.69Z"/><path class="cls-4" d="M23.56,5.18s.74.81.89,1.03.21.59.11.49-.69-.97-.84-1.1-.54-.59-.16-.41Z"/><path class="cls-4" d="M23.11,5.97s.74.81.89,1.03-.05.25-.15.15-.43-.63-.58-.76-.54-.59-.16-.41Z"/><path class="cls-4" d="M45.58,4.38s.97,1.1,1.12,1.32.2.59.1.49-.67-.98-.82-1.12-.77-.88-.4-.69Z"/><path class="cls-4" d="M46.31,4.22s.72.82.87,1.04.2.59.1.49-.67-.98-.82-1.12-.52-.6-.15-.41Z"/><path class="cls-4" d="M39.27,18.11s.31,1.43.34,1.7-.11.61-.15.48-.11-1.18-.17-1.38-.25-1.14-.01-.8Z"/><path class="cls-4" d="M40.19,18.61s.24,1.07.26,1.34-.11.61-.15.48-.11-1.18-.17-1.38-.17-.78.06-.44Z"/><path class="cls-4" d="M44.95,24.24s.03,1.1,0,1.36-.23.58-.24.44.12-1.18.09-1.38-.02-.8.15-.42Z"/><path class="cls-4" d="M46.72,20.69s.31,1.43.34,1.7-.11.61-.15.48-.11-1.18-.17-1.38-.25-1.14-.01-.8Z"/><path class="cls-4" d="M51.74,15.57s.31,1.43.34,1.7-.11.61-.15.48-.11-1.18-.17-1.38-.25-1.14-.01-.8Z"/><path class="cls-4" d="M51.08,12.27s.31,1.43.34,1.7-.11.61-.15.48-.11-1.18-.17-1.38-.25-1.14-.01-.8Z"/><path class="cls-4" d="M47.39,13.01s.31,1.43.34,1.7-.11.61-.15.48-.11-1.18-.17-1.38-.25-1.14-.01-.8Z"/><path class="cls-4" d="M47.89,8.82s.31,1.43.34,1.7-.11.61-.15.48-.11-1.18-.17-1.38-.25-1.14-.01-.8Z"/><path class="cls-4" d="M50.6,7.95s.65,1.32.74,1.57.04.62-.03.5-.39-1.12-.5-1.29-.51-1.05-.21-.77Z"/><path class="cls-4" d="M47.65,21.19s.24,1.07.26,1.34-.11.61-.15.48-.11-1.18-.17-1.38-.17-.78.06-.44Z"/><path class="cls-4" d="M52.23,14.62s.24,1.07.26,1.34-.11.61-.15.48-.11-1.18-.17-1.38-.17-.78.06-.44Z"/><path class="cls-8" d="M43.07,20.83s.47,2.15.51,2.55-.17.92-.23.71-.16-1.77-.26-2.06-.37-1.72-.02-1.2Z"/><path class="cls-8" d="M43.85,21.73s.35,1.61.39,2-.17.92-.23.71-.16-1.77-.26-2.06-.25-1.17.1-.66Z"/><path class="cls-8" d="M52.7,12.92s.47,2.15.51,2.55-.17.92-.23.71-.16-1.77-.26-2.06-.37-1.72-.02-1.2Z"/><path class="cls-8" d="M53.48,13.83s.35,1.61.39,2-.17.92-.23.71-.16-1.77-.26-2.06-.25-1.17.1-.66Z"/><path class="cls-8" d="M46.82,24.46s.16,2.2.14,2.6-.3.89-.33.67.09-1.78.03-2.08-.12-1.75.15-1.19Z"/><path class="cls-8" d="M47.47,25.47s.12,1.64.1,2.04-.3.89-.33.67.09-1.78.03-2.08-.08-1.19.19-.64Z"/><path class="cls-8" d="M29.5,24.33s.12,1.64.1,2.04-.3.89-.33.67.09-1.78.03-2.08-.08-1.19.19-.64Z"/><path class="cls-8" d="M49.17,7.97s.72,2.08.8,2.47-.06.93-.14.73-.37-1.74-.5-2.02-.57-1.66-.16-1.19Z"/><path class="cls-8" d="M50.05,8.78s.54,1.55.62,1.94-.06.93-.14.73-.37-1.74-.5-2.02-.39-1.13.02-.66Z"/><path class="cls-8" d="M51.42,10.84s.33.92.41,1.32-.06.93-.14.73-.15-1.11-.29-1.39-.39-1.13.02-.66Z"/><path class="cls-4" d="M43.38,5.13s-1.09-.09-1.35-.14-.55-.29-.41-.28,1.16.24,1.37.23.8.07.4.19Z"/><path class="cls-4" d="M46.54,3.71s1.16.9,1.35,1.09.31.54.19.46-.84-.84-1.02-.94-.92-.72-.52-.61Z"/><path class="cls-4" d="M48.72,9.77s.57,1.35.64,1.61,0,.62-.06.5-.32-1.14-.42-1.32-.45-1.08-.16-.79Z"/><path class="cls-4" d="M38.94,5.16s.65,1.32.74,1.57.04.62-.03.5-.39-1.12-.5-1.29-.51-1.05-.21-.77Z"/><path class="cls-8" d="M37.51,5.18s.72,2.08.8,2.47-.06.93-.14.73-.37-1.74-.5-2.02-.57-1.66-.16-1.19Z"/><path class="cls-8" d="M38.39,5.99s.54,1.55.62,1.94-.06.93-.14.73-.37-1.74-.5-2.02-.39-1.13.02-.66Z"/><path class="cls-4" d="M37.06,6.98s.57,1.35.64,1.61,0,.62-.06.5-.32-1.14-.42-1.32-.45-1.08-.16-.79Z"/><path class="cls-4" d="M16.59,4.72s.57,1.35.64,1.61,0,.62-.06.5-.32-1.14-.42-1.32-.45-1.08-.16-.79Z"/><path class="cls-4" d="M28.41,11.73s.65,1.32.74,1.57.04.62-.03.5-.39-1.12-.5-1.29-.51-1.05-.21-.77Z"/><path class="cls-4" d="M17.69,7s.65,1.32.74,1.57.04.62-.03.5-.39-1.12-.5-1.29-.51-1.05-.21-.77Z"/><path class="cls-8" d="M26.99,11.75s.72,2.08.8,2.47-.06.93-.14.73-.37-1.74-.5-2.02-.57-1.66-.16-1.19Z"/><path class="cls-8" d="M27.86,12.56s.54,1.55.62,1.94-.06.93-.14.73-.37-1.74-.5-2.02-.39-1.13.02-.66Z"/><path class="cls-4" d="M26.54,13.55s.57,1.35.64,1.61,0,.62-.06.5-.32-1.14-.42-1.32-.45-1.08-.16-.79Z"/><path class="cls-4" d="M27.03,9.37s.57,1.35.64,1.61,0,.62-.06.5-.32-1.14-.42-1.32-.45-1.08-.16-.79Z"/><path class="cls-4" d="M18.62,3.76s.57,1.35.64,1.61,0,.62-.06.5-.32-1.14-.42-1.32-.45-1.08-.16-.79Z"/><path class="cls-8" d="M16.45,8.47s.81,1.32,1.01,1.85.35,1.82.43,1.85-.03-1.32,0-1.54-.56-1.39-1.44-2.15Z"/><path class="cls-8" d="M18.37,11.71s-.08,1.49.13,1.52l.2.03-.33-1.54Z"/><path class="cls-8" d="M28.48,8.86s.81,1.32,1.01,1.85.35,1.82.43,1.85-.03-1.32,0-1.54-.56-1.39-1.44-2.15Z"/><path class="cls-8" d="M30.4,12.1s-.08,1.49.13,1.52l.2.03-.33-1.54Z"/><path class="cls-8" d="M44.66,8.23s.81,1.32,1.01,1.85.35,1.82.43,1.85-.03-1.32,0-1.54-.56-1.39-1.44-2.15Z"/><path class="cls-8" d="M46.58,11.47s-.08,1.49.13,1.52l.2.03-.33-1.54Z"/><path class="cls-8" d="M39.13,4s.81,1.32,1.01,1.85.35,1.82.43,1.85-.03-1.32,0-1.54-.56-1.39-1.44-2.15Z"/><path class="cls-8" d="M41.05,7.24s-.08,1.49.13,1.52l.2.03-.33-1.54Z"/><path class="cls-8" d="M21.67,3.82s.81,1.32,1.01,1.85.35,1.82.43,1.85-.03-1.32,0-1.54-.56-1.39-1.44-2.15Z"/><path class="cls-8" d="M23.59,7.06s-.08,1.49.13,1.52l.2.03-.33-1.54Z"/><path class="cls-5" d="M18.42,17.22v1.14s-1.04,5.12-.8,9.22c.16,2.13-1.23,4.66-1.23,4.66,0,0-.41,2.05-.33,3.27s-1.06,1.88-.82,2.78,2.45,1.96,10.06,1.8c7.61-.16,5.99.02,5.99.02,0,0,1.54.39,2.11-2.55.57-2.95.53-5.56.16-7.96s0-5.3,0-5.3c0,0,.82-3.19.74-3.6s.49-1.72.49-1.72c0,0-1.06-.82-1.8-.9s-1.23-.25-1.31-.33-.9-.25-1.23-.08-1.88.16-2.13,0-.65-.16-1.15-.08-1.31.33-1.8.08-.74-.49-1.35-.37-.85.16-1.35.18-.89-.22-1.27-.18-1.24-.12-1.38,0-1.32-.53-1.63-.08Z"/><path class="cls-1" d="M33.97,20.2c-.15,0-.47-.25-.76-.42"/><path class="cls-3" d="M32.89,19.63c-.07-.02-.13-.02-.18,0-.29.13-.43-.13-1.26-.13-.04,0-.08,0-.12,0"/><path class="cls-1" d="M31.15,19.5c-.61-.04-.85-.18-.85-.18,0,0-.44.13-.85,0,0,0,0,0-.01,0"/><path class="cls-2" d="M29,19.18c-.23-.07-.46-.11-.71-.11h-1.14c-.38,0-.76,0-1.39-.13s-2.08.25-2.96.13c-.88-.13-1.64,0-2.02,0-.15,0-.47-.04-.8-.09"/><path class="cls-1" d="M19.75,18.95c-.45-.07-.86-.13-.86-.13"/><path class="cls-8" d="M18,26.95s.38,1.89-.38,3.41-1.07,1.88.47,1.44c1.55-.43,2.56-1.44,3.82-1.32s3.16-.13,3.79-.63,2.65-2.02,3.66-2.27-2.94-1.87-7.78-.87c-1.94.49-2.95.36-2.95.36,0,0-.63-.37-.63-.12Z"/><path class="cls-8" d="M30.62,39.58c.13,0,1.26.25,1.64-.25s1.11-2.28,1.26-4.04c.38-4.29-.53-5.67-.38-7.2s-.5-.25-.63,1.26-.13,4.92-1.14,6.31c-1.77,2.78-2.65,3.91-.76,3.91Z"/><path class="cls-10" d="M23.77,34.74l4.18.33c-.07.93-2.02,1.54-4.32,1.35-2.29-.18-4.12-1.1-4.05-2.02s2.02-1.54,4.32-1.35c1.99.16,3.67.87,3.99,1.69h-4.13Z"/></svg>