<?xml version="1.0" encoding="UTF-8"?><svg id="Various" xmlns="http://www.w3.org/2000/svg" xmlns:xlink="http://www.w3.org/1999/xlink" viewBox="0 0 32 32"><defs><style>.cls-1{fill:#fff;filter:url(#drop-shadow-4);}</style><filter id="drop-shadow-4" filterUnits="userSpaceOnUse"><feOffset dx="1" dy="1"/><feGaussianBlur result="blur" stdDeviation="3"/><feFlood flood-color="#000" flood-opacity=".15"/><feComposite in2="blur" operator="in"/><feComposite in="SourceGraphic"/></filter></defs><g id="ic_animal_symptoms"><path class="cls-1" d="M26.51,7.92s-2.05-.28-2.41-.94-1.27-2.33-2.63-2.36c-.91-.02-1.87-.04-2.36,.12s-.52,.63-.69,.98c-.5,1.08-1.03,4.07-2.47,5.27s-1.94,1.75-2.36,2.52-4.88,4.13-4.88,4.13c0,0-2.47,2.44-2.02,5.04s0,2.3,0,2.3c0,0-3.09,.49-1.46,2.18,2.49,2.08,5.43,1.66,8.73,1.27,1.4-.23,.17-.44,.17-.44-.81,.22-6.52,.08-7.38-1.12,0,0,2.21,.08,5.31,.36s5.36-.3,5.36-.3c0,0,.44-1.14,.3-1.25s-.67-.67-1.36-.53-1.49,.3-1.49,.3c0,0,2.75-2.89,2.89-3.32,.06-.17,.12-.58,.03-1.16-.14-.85-.43-2.03-.43-2.03,0,0,.55,1.75,.53,2.63s.17,4.02,.17,4.02c0,0-.14,1.25,.22,1.27s2.24,.06,2.24,.06c0,0,.8-.42,.42-.83s-.44-.67-.97-.61,.11-4.07,.11-4.07c0,0,1.86-3.8,2.58-4.8s-.72-4.57-.72-4.57c0,0,.47-1.3,.44-1.52s.61,.58,1.91,.39,2.27-2.44,2.22-2.99Z"/></g></svg>