<?xml version="1.0" encoding="UTF-8"?>
<svg id="how_to_prevent" data-name="how to prevent" xmlns="http://www.w3.org/2000/svg" version="1.1" viewBox="0 0 32 32">
  <defs>
    <style>
      .cls-1 {
        fill: none;
      }

      .cls-1, .cls-2, .cls-3, .cls-4, .cls-5 {
        stroke-width: 0px;
      }

      .cls-2 {
        fill: #3c6277;
      }

      .cls-3 {
        fill: #82b7d9;
      }

      .cls-4 {
        fill: #77a8c7;
      }

      .cls-5 {
        fill: #fff;
      }
    </style>
  </defs>
  <g>
    <path id="Tracciato_175" data-name="Tracciato 175" class="cls-3" d="M12.5,21l.3,1.8s1,3.6,5.4,1.3c4.4-2.3,1.7-2.6,9.3-5.8l-.2-2.2s-4.7-2.2-10-.8c-5.4,1.4-4.8,4.2-4.7,5.4v.2Z"/>
    <path id="Tracciato_176" data-name="Tracciato 176" class="cls-4" d="M13.1,20.3s1.6,5.3,7.7-.4c0,0,1.7-1.6,4.7-2.6,0,0,2.5-.6-1-1.3s-8.6-.3-10.2,1.3c-1.6,1.6-1.3,3-1.3,3h0Z"/>
    <path id="Tracciato_177" data-name="Tracciato 177" class="cls-4" d="M12.5,20.8s1.3,5.1,7.7,0c0,0,2.2-2.2,5-3.2,0,0,1.9-.5,2.1-1l.3,1.8s-.3.3-1.5.7-3.4,1.4-5.4,3.4c0,0-5.4,4.9-7.8.6l-.3-2.3h0Z"/>
    <path id="Tracciato_220" data-name="Tracciato 220" class="cls-5" d="M15.9,19.7c.6,0,1.2.2,1.2.6s-.4.8-1,.9-1.2-.2-1.3-.6.4-.8,1.1-.9h0Z"/>
  </g>
  <g>
    <polygon class="cls-2" points="13.2 12.7 11.8 14.5 27.1 26.4 28.5 24.5 13.2 12.7 13.2 12.7"/>
    <path class="cls-2" d="M20,11.5c4.3,0,7.9,3.2,8.5,7.5.3,2.3-.3,4.5-1.7,6.3-1.4,1.8-3.4,3-5.7,3.2h-1.1c-4.3,0-7.9-3.2-8.5-7.5-.6-4.7,2.7-8.9,7.4-9.5h1.1M20,8.5h-1.5c-6.3.8-10.8,6.6-10,12.9.7,5.8,5.7,10.1,11.4,10.1s1,0,1.5,0c6.3-.8,10.8-6.6,10-12.9-.7-5.8-5.7-10.1-11.4-10.1h0Z"/>
  </g>
  <rect class="cls-1" y="-.2" width="32" height="32"/>
</svg>