<?xml version="1.0" encoding="UTF-8"?><svg id="Livello_1" xmlns="http://www.w3.org/2000/svg" viewBox="0 0 24.25 51.26"><defs><style>.cls-1{fill:#85a5c3;}.cls-1,.cls-2{stroke-width:0px;}.cls-2{fill:#91b5d6;}</style></defs><circle id="Ellisse_7" class="cls-2" cx="10.34" cy="40.93" r="10.34"/><path id="Rettangolo_3" class="cls-2" d="M6.68,0h7.28c1.19,0,2.15.96,2.15,2.15h0s0,30.79,0,30.79c0,.17-.14.31-.31.31H4.54s0-31.09,0-31.09C4.53.97,5.5,0,6.68,0Z"/><circle id="Ellisse_8" class="cls-1" cx="10.34" cy="40.93" r="8.19"/><path id="Rettangolo_4" class="cls-2" d="M24.25,29.79h0c0,.44-.36.8-.8.8h-6.36s0-1.6,0-1.6h6.36c.44,0,.8.36.8.8h0Z"/><path id="Rettangolo_7" class="cls-2" d="M24.25,23.48h0c0,.44-.36.8-.8.8h-6.36s0-1.6,0-1.6h6.36c.44,0,.8.36.8.8h0Z"/><path id="Rettangolo_5" class="cls-2" d="M22.84,26.63h0c0,.44-.36.8-.8.8h-4.95s0-1.6,0-1.6h4.95c.44,0,.8.36.8.8h0Z"/><path id="Rettangolo_6" class="cls-2" d="M22.84,20.33h0c0,.44-.36.8-.8.8h-4.95s0-1.6,0-1.6h4.95c.44,0,.8.36.8.8h0Z"/><path id="Tracciato_7" class="cls-1" d="M6.32,18.65s1.31-.48,4.04-.26c2.73.22,3.97-.59,3.97-.59l.03,22.61H6.33s-.02-21.76-.02-21.76Z"/></svg>