<?xml version="1.0" encoding="UTF-8"?><svg id="Livello_1" xmlns="http://www.w3.org/2000/svg" viewBox="0 0 36.62 54.45"><defs><style>.cls-1{fill:#85a5c3;}.cls-1,.cls-2,.cls-3{stroke-width:0px;}.cls-2{fill:#91b5d6;}.cls-3{fill:#657889;}</style></defs><rect class="cls-1" width="36.62" height="54.45" rx=".92" ry=".92"/><rect class="cls-2" x="2.36" y="1.67" width="32.03" height="49.07"/><rect class="cls-1" x="10.09" y=".74" width="16.56" height="2.22"/><rect class="cls-1" x="4.38" y="5.3" width="16.56" height="1.91"/><rect class="cls-1" x="4.38" y="7.86" width="26.26" height=".95"/><rect class="cls-1" x="4.38" y="9.47" width="26.26" height=".95"/><rect class="cls-1" x="4.38" y="11.08" width="26.26" height=".95"/><rect class="cls-1" x="4.38" y="14.6" width="3.95" height="3.95"/><rect class="cls-1" x="9.39" y="14.55" width="21.25" height=".62"/><rect class="cls-1" x="9.39" y="15.53" width="21.25" height=".62"/><rect class="cls-1" x="9.39" y="16.5" width="21.25" height=".62"/><rect class="cls-1" x="9.39" y="17.48" width="13.6" height=".62"/><rect class="cls-1" x="4.38" y="21.15" width="3.95" height="3.95"/><path class="cls-3" d="M4.92,15.72s1.15.82,1.27,1.39c.12.57,1.02-1.82,2.66-3.17.38-.32-.97.33-2.4,2.35,0,0-.87-.62-1.52-.57Z"/><path class="cls-3" d="M4.92,22.28s1.15.82,1.27,1.39c.12.57,1.02-1.82,2.66-3.17.38-.32-.97.33-2.4,2.35,0,0-.87-.62-1.52-.57Z"/><rect class="cls-1" x="9.39" y="21.11" width="21.25" height=".62"/><rect class="cls-1" x="9.39" y="22.08" width="21.25" height=".62"/><rect class="cls-1" x="9.39" y="23.06" width="21.25" height=".62"/><rect class="cls-1" x="9.39" y="24.03" width="13.6" height=".62"/><rect class="cls-1" x="4.38" y="27.74" width="3.95" height="3.95"/><rect class="cls-1" x="9.39" y="27.7" width="21.25" height=".62"/><rect class="cls-1" x="9.39" y="28.68" width="21.25" height=".62"/><rect class="cls-1" x="9.39" y="29.65" width="21.25" height=".62"/><rect class="cls-1" x="9.39" y="30.62" width="13.6" height=".62"/><rect class="cls-3" x="13.09" y="1.24" width="10.57" height=".85"/></svg>