<?xml version="1.0" encoding="UTF-8"?><svg id="Complications" xmlns="http://www.w3.org/2000/svg" viewBox="0 0 32 32"><defs><style>.cls-1{fill:none;}.cls-1,.cls-2,.cls-3{stroke-width:0px;}.cls-2{fill:#85a5c3;}.cls-3{fill:#91b5d6;}</style></defs><rect class="cls-1" width="32" height="32"/><circle id="Ellisse_7" class="cls-3" cx="15.52" cy="24.82" r="5.96"/><path id="Rettangolo_3" class="cls-3" d="M13.41,1.24h4.19c.69,0,1.24.55,1.24,1.24h0v17.74c0,.1-.08.18-.18.18h-6.49V2.48c0-.69.55-1.24,1.23-1.24Z"/><circle id="Ellisse_8" class="cls-2" cx="15.52" cy="24.82" r="4.72"/><path id="Rettangolo_4" class="cls-3" d="M23.54,18.4h0c0,.25-.21.46-.46.46h-3.66v-.92h3.66c.25,0,.46.21.46.46h0Z"/><path id="Rettangolo_7" class="cls-3" d="M23.54,14.77h0c0,.25-.21.46-.46.46h-3.66v-.92h3.66c.25,0,.46.21.46.46h0Z"/><path id="Rettangolo_5" class="cls-3" d="M22.73,16.58h0c0,.25-.21.46-.46.46h-2.85v-.92h2.85c.25,0,.46.21.46.46h0Z"/><path id="Rettangolo_6" class="cls-3" d="M22.73,12.95h0c0,.25-.21.46-.46.46h-2.85v-.92h2.85c.25,0,.46.21.46.46h0Z"/><path id="Tracciato_7" class="cls-2" d="M13.21,11.98s.75-.28,2.33-.15c1.57.13,2.29-.34,2.29-.34l.02,13.03h-4.63v-12.54s0,0,0,0Z"/></svg>