<?xml version="1.0" encoding="UTF-8"?><svg id="how_to_prevent" xmlns="http://www.w3.org/2000/svg" viewBox="0 0 32 32"><defs><style>.cls-1{fill:#6c99b5;}.cls-2{fill:#82b7d9;}</style></defs><g id="ic_facilities"><g id="man" transform="translate(1119.835 1388.687)"><g id="Raggruppa_10" transform="translate(0)"><g transform="matrix(1, 0, 0, 1, -1119.83, -1388.69)"><circle id="Ellisse_9-4" class="cls-2" cx="6.87" cy="4.77" r="3.15"/></g><g transform="matrix(1, 0, 0, 1, -1119.83, -1388.69)"><path id="Tracciato_15-4" class="cls-2" d="M11.08,8.75H2.66c-.73,0-1.32,.67-1.32,1.5v8.41c0,.83,.59,1.5,1.32,1.5h.5v10.21h7.37V15.54l1.86-1.44v-3.85c0-.83-.59-1.5-1.32-1.5Z"/></g></g></g><rect class="cls-1" x="13.91" y="1.62" width="18.09" height="15.65"/><path class="cls-2" d="M12.07,17.11l3.96-2.95c.45-.34,.54-.97,.21-1.43h0c-.33-.45-.97-.54-1.42-.21l-4.17,3.11v.88l.32,.43c.26,.35,.75,.42,1.1,.16Z"/><rect class="cls-2" x="15.75" y="10.13" width="8.87" height=".16" transform="translate(-2.28 12.8) rotate(-33.4)"/></g></svg>