<?xml version="1.0" encoding="UTF-8"?>
<svg id="how_to_prevent" data-name="how to prevent" xmlns="http://www.w3.org/2000/svg" version="1.1" viewBox="0 0 32 32">
  <defs>
    <style>
      .cls-1 {
        fill: none;
      }

      .cls-1, .cls-2, .cls-3, .cls-4 {
        stroke-width: 0px;
      }

      .cls-2 {
        fill: #82b7d9;
      }

      .cls-3 {
        fill: #5b798c;
      }

      .cls-4 {
        fill: #77a8c7;
      }
    </style>
  </defs>
  <g id="ic_slaugh" data-name="ic slaugh">
    <rect class="cls-4" x="12.4" y="4.1" width="17.8" height="26.5" rx=".9" ry=".9"/>
    <rect class="cls-2" x="13.5" y="4.9" width="15.6" height="23.9"/>
    <rect class="cls-4" x="17.3" y="4.5" width="8.1" height="1.1"/>
    <rect class="cls-4" x="14.5" y="6.7" width="8.1" height=".9"/>
    <rect class="cls-4" x="14.5" y="7.9" width="12.8" height=".5"/>
    <rect class="cls-4" x="14.5" y="8.7" width="12.8" height=".5"/>
    <rect class="cls-4" x="14.5" y="9.5" width="12.8" height=".5"/>
    <rect class="cls-4" x="14.5" y="11.2" width="1.9" height="1.9"/>
    <g>
      <rect class="cls-4" x="16.9" y="11.2" width="10.4" height=".3"/>
      <rect class="cls-4" x="16.9" y="11.7" width="10.4" height=".3"/>
      <rect class="cls-4" x="16.9" y="12.1" width="10.4" height=".3"/>
      <rect class="cls-4" x="16.9" y="12.6" width="6.6" height=".3"/>
    </g>
    <rect class="cls-4" x="14.5" y="14.4" width="1.9" height="1.9"/>
    <path class="cls-3" d="M14.8,11.8s.6.4.6.7.5-.9,1.3-1.5c.2-.1-.5.2-1.2,1.1,0,0-.4-.3-.7-.3Z"/>
    <path class="cls-3" d="M14.8,14.9s.6.4.6.7.5-.9,1.3-1.5c.2-.1-.5.2-1.2,1.1,0,0-.4-.3-.7-.3Z"/>
    <g>
      <rect class="cls-4" x="16.9" y="14.4" width="10.4" height=".3"/>
      <rect class="cls-4" x="16.9" y="14.9" width="10.4" height=".3"/>
      <rect class="cls-4" x="16.9" y="15.3" width="10.4" height=".3"/>
      <rect class="cls-4" x="16.9" y="15.8" width="6.6" height=".3"/>
    </g>
    <rect class="cls-4" x="14.5" y="17.6" width="1.9" height="1.9"/>
    <g>
      <rect class="cls-4" x="16.9" y="17.6" width="10.4" height=".3"/>
      <rect class="cls-4" x="16.9" y="18.1" width="10.4" height=".3"/>
      <rect class="cls-4" x="16.9" y="18.5" width="10.4" height=".3"/>
      <rect class="cls-4" x="16.9" y="19" width="6.6" height=".3"/>
    </g>
    <rect class="cls-3" x="18.7" y="4.7" width="5.1" height=".4"/>
  </g>
  <rect class="cls-1" y="0" width="32" height="32"/>
</svg>