<?xml version="1.0" encoding="UTF-8"?><svg id="how_to_prevent" xmlns="http://www.w3.org/2000/svg" viewBox="0 0 32 32"><defs><style>.cls-1{fill:#77a8c7;}.cls-2{fill:#82b7d9;}</style></defs><g id="ic_slaugh"><path id="Tracciato_2-2" class="cls-2" d="M21.18,13.73c-.95-1.11-2.3,.09-5.23,1.34-1.71,.26-3.65-.14-5.87,.91-2.74,1.3-5.46,3.57-6.72,7.31-2.53,9.85,7.97,7.27,7.97,7.27,0,0,7.78-1.84,11-9.21,1.79-4.73,1.69-4.26,.61-5.6l-1.76-2.03Z"/><path id="Tracciato_3-2" class="cls-2" d="M21.59,13.66l1.76,2.03,1.31-1.08s1.31-.97,2.29-.55c.98,.42,3.06-.33,3.1-1.58s-.39-2.3-2.66-1.79c0,0,.91-3.19-1.86-2.98-1.09,.11-1.85,.82-1.74,2.11,.11,1.29,.08,2.24-2.2,3.84Z"/><path class="cls-1" d="M3.58,25.08s-.47,3.46,1.48,4.56,5.81,.88,7.78-.12,4.94-2.07,7.49-5.77,2.35-5.05,2.35-5.05c0,0-.55-.87-.95,.32s-4.11,6.27-8.15,8.27-6.05,.89-6.53,.67c-.85-.42-.1-1.88-3.46-2.88Z"/><path class="cls-1" d="M1.2,12.54s6.83,4.88,7.55,8.27S14.83,9.95,24.61,1.91C26.91,.02,18.82,3.88,10.28,15.93c0,0-5.21-3.72-9.08-3.39Z"/></g></svg>