<?xml version="1.0" encoding="UTF-8"?><svg id="how_to_prevent" xmlns="http://www.w3.org/2000/svg" viewBox="0 0 32 32"><defs><style>.cls-1{fill:#dedede;}.cls-2{fill:#5b798c;}.cls-3{fill:#77a8c7;}.cls-4{fill:#82b7d9;}</style></defs><g id="ic_slaugh"><path class="cls-4" d="M10.45,22.76s-.7-1.44,1.76-.93c0,0,.6-.2,.92-.27s.94-.04,1.01-.03,.27,.14,.55,.12,1.52,0,2.52,.79c.71,.56,.88,.62,.88,.62,0,0,.38,.2,.1,1s-1.1,.88-1.1,.88c0,0-1.51,.34-2.76,1.24s-2.46,2.08-2.46,2.08c0,0-.7,.39-.81,.67,0,0-1.11,.57-2.2,.9-1.41,.44-4.44,.78-4.76-1.42s1.91-4.34,1.91-4.34c0,0,1.17-1.28,4.43-1.31Z"/><path class="cls-2" d="M4.04,27.16s-1.4,.59-2.15,.51-.76-1,.81-1.89,1.92-.99,1.92-.99c0,0-1.82,.45-3.14,1.45s-.68,1.57-.68,1.57c0,0,.36,.69,2.04,.67,.6-.04,1.14-.15,1.14-.15,0,0-.05-.64,.06-1.17Z"/><path class="cls-3" d="M18.15,23.28s.03,.22-.38,.27-.63,.05-.61,.25,.32,.12,.32,.12c0,0,.22-.03,.35,.09s.25,.04,.25,.04c0,0,.16-.29,.15-.56-.01-.2-.02-.28-.09-.2Z"/><path class="cls-3" d="M17.05,23.85s-.23,.09-.31,.31-.02,.22-.17,.46,.1,.37,.1,.37c0,0,.07-.03,.42-.1s.6-.26,.69-.34c.18-.16,.22-.32,.26-.42,0,0-.1,.03-.2-.03s-.18-.13-.35-.11-.26,.04-.45-.14Z"/><path class="cls-3" d="M16.5,24.6c.12-.17,.19-.39,.16-.38-.07,.02-.34,.33-.54,.4-.36,.13-.88,.29-1.43,.35-1.03,.1-1.66-.29-2.75,.96s-1.54,1.58-2.3,1.71-1.23,.53-1.6,.84-1.07,1.51-2.5,1.42c0,0,1.92,.75,5.37-1.07,0,0-.07-.17-.04-.34s-.43-.01-.52-.11c-.08-.07,.05-.4,.63-.75,.16-.08,.28-.11,.58,.21,.27,.28,.36,.19,.42,.14s.58-.51,1.18-1.03c.87-.74,1.86-1.47,3.43-1.93-.07-.04-.21-.25-.09-.41Z"/><path class="cls-3" d="M12.09,23.96s1.25-.26,1-1.1c-.27-.89-1.7-.93-1.7-.93,0,0-.68-.02-.81,.36s.17,.61,.17,.61c0,0,.32,.13,.39,.32s.62,.71,.94,.73Z"/><path class="cls-2" d="M13.11,21.49s.26-.09,.98-.04c0,0-.6-.74-.73-.83s-.4-.28-.38,.15,.13,.72,.13,.72Z"/><path class="cls-4" d="M11.43,28.67s.3,.16,.44,.34,.23,.24,.28,.24-.09-.19,.05-.16,.13,.14,.13,.14l.07-.02s-.11-.15-.02-.19c.04-.01,.1-.01,.14,.05s-.03-.48-.31-.67-.55-.29-.62-.35-.32-.41-.6-.3-.53,.53-.53,.53c0,0-.11,.08,.28,.03,.27-.05,.21,.26,.23,.37s.04,.33,.29,.38c0,0-.05-.15,.04-.18s.12,.01,.12,.01c0,0,.04-.06,0-.21Z"/><path class="cls-4" d="M11.3,29.05s-.08-.21,.11-.16c0,0,.09,.04,.12,.23s.02,.21,.02,.21c0,0-.13-.24-.25-.28Z"/><path class="cls-4" d="M13.61,28.25s-.08-.28,.1-.13c0,0,.07,.05,.07,.23s-.01,.2-.01,.2c0,0-.06-.24-.16-.3Z"/><path class="cls-4" d="M12.2,29.25s0-.06-.02-.1,.05-.02,.05-.02c0,0,.05,.04,.07,.1s.04,.11,.02,.19c-.02,.1-.07,.14-.07,.14,0,0,.03-.16-.05-.3Z"/><path class="cls-4" d="M14.5,28.51s-.04-.04-.03-.13,.06-.05,.14,.07c.03,.07,.06,.21,.03,.29-.05-.17-.14-.23-.14-.23Z"/><path class="cls-4" d="M12.43,29.2s-.07-.04-.06-.13c0-.05,.1-.05,.18,.07,.04,.07,.07,.23,.04,.31-.05-.18-.15-.25-.15-.25Z"/><path class="cls-4" d="M14.69,28.41s-.05-.07,0-.15c.02-.05,.11,0,.13,.14,0,.08-.04,.23-.1,.3,.03-.18-.04-.29-.04-.29Z"/><path class="cls-4" d="M7.37,30.98s-.11-.08-.1-.19c.01-.07,.19-.04,.24,.12,.05,.15,.08,.27,.04,.37-.06-.22-.18-.3-.18-.3Z"/><path class="cls-4" d="M7.04,31.08s-.1-.07-.09-.18c0-.08,.15-.05,.25,.09,.04,.08,.06,.28,.02,.38-.06-.22-.18-.3-.18-.3Z"/><path class="cls-4" d="M7.59,30.69s-.07-.05-.05-.14c0-.05,.1-.05,.17,.08,.03,.07,.05,.23,.02,.31-.04-.18-.14-.26-.14-.26Z"/><path class="cls-4" d="M12.3,29.08s-.25-.38-.61-.56c0,0,.32,.11,.45,.28s.21,.31,.16,.28Z"/><path class="cls-4" d="M12.49,28.98s-.18-.42-.5-.67c0,0,.3,.17,.39,.36s.15,.35,.1,.31Z"/><ellipse class="cls-2" cx="14.94" cy="22.88" rx=".56" ry=".42" transform="translate(-2.71 2.02) rotate(-7.09)"/><ellipse class="cls-1" cx="15.21" cy="22.77" rx=".17" ry=".13" transform="translate(-2.69 2.05) rotate(-7.09)"/><path class="cls-4" d="M12.89,27.5s.46-.47,.68-.58c0,0,.24,.34,.6,.47s.56,.41,.62,.64,.04,.28,.04,.28c0,0-.07-.18-.14-.11s0,.24,0,.24h-.05s-.15-.24-.19-.12,.03,.17,.03,.17c0,0-.43-.13-.7-.61,0,0,.03,.24,0,.28,0,0-.15-.22-.22-.08-.03,.07,.02,.17,.02,.17,0,0-.33-.08-.31-.52,0-.33-.38-.23-.38-.23Z"/><path class="cls-4" d="M14.57,28.31s-.3-.46-.64-.69c0,0,.3,.14,.45,.35s.25,.38,.2,.34Z"/><path class="cls-4" d="M14.77,28.2s-.26-.5-.66-.78c0,0,.37,.18,.5,.4s.21,.41,.16,.37Z"/><path class="cls-4" d="M5.9,30.17s.02,.35,.24,.46,.42,.22,.52,.31,.26,.12,.3,.11-.1-.12-.04-.2,.25,.01,.31,.13c0,0,.08-.01,.11-.02,0,0-.19-.17-.06-.23s.23,.07,.23,.07c0,0,.07-.03,.06-.07s-.14-.18-.01-.24c.05-.02,.07,.02,.07,.02,0,0-.22-.32-.49-.3s-.87,0-1.1-.04c-.08-.02-.1-.03-.12,0Z"/><path class="cls-4" d="M7.15,30.83s-.31-.34-.69-.47c0,0,.33,.06,.49,.21s.25,.28,.2,.26Z"/><path class="cls-4" d="M7.46,30.68s-.33-.32-.72-.42c0,0,.34,.04,.5,.18s.27,.26,.21,.25Z"/><path class="cls-3" d="M9.96,27.91c-.76,.13-1.42,.68-1.79,.99s-1.19,1.08-2.63,.99c0,0,1.92,.75,5.37-1.07,0,0-.07-.17-.04-.34s-.43-.01-.52-.11c-.08-.07,.05-.4,.63-.75,.16-.08,.28-.11,.58,.21,.27,.28,.36,.19,.42,.14,.06-.05,1.65-1.44,2.06-1.73s.88-.58,1.41-.82c.05-.08-.8,.24-1.36,.52-.43,.21-1.37,.77-1.76,1.07s-.66,.1-1.03,.22c-.23,.07-.26,.13-.64,.36s-.6,.29-.7,.31Z"/><path class="cls-2" d="M10.66,23.05c.11,.02,.28,.13,.32,.28s.61,.69,.76,.73c0,0,0,.39,.33,.65,.19,.16,.8,.31,.8,.31,0,0-.5,0-.78-.14-.36-.17-.51-.51-.52-.67-.03-.17-.61-.66-.66-.87-.07-.3-.36-.32-.25-.3Z"/><path class="cls-2" d="M17.27,24.26s.05,0,.06,.03-.99,.68-1.67,1.71c0,0,.55-.97,1.61-1.74Z"/><path class="cls-2" d="M17.44,24.25s.05-.02,.07,.02-.97,.96-1.52,2.26c0,0,.42-1.2,1.45-2.28Z"/><path class="cls-2" d="M17.54,24.41s.03-.01,.04,0-.49,.61-.73,1.37c0,0,.17-.71,.69-1.38Z"/><path class="cls-4" d="M22.55,13.77c.36-.07,1.18-1.54-1.32-1.48,0,0-.56-.31-.86-.43s-.91-.21-.99-.21-.29,.09-.56,.02-1.5-.27-2.62,.32c-.8,.42-.98,.45-.98,.45,0,0-.41,.13-.28,.96s.92,1.07,.92,1.07c0,0,1.42,.61,2.48,1.72,.86,.9,1.16,2.17,1.26,2.68,.02,.12,.3,.13,.3,.13,0,0,.21,.88,.17,1.17,0,0,.72,1.02,1.53,1.82,1.04,1.04,3.56,2.76,4.87,.96s.73-3.45,.33-4.73c-.71-2.22-2.74-3.19-3.44-3.45s-1.16-.67-1.16-.67c0,0,.07-.17,.16-.24s.12-.07,.2-.08Z"/><path class="cls-2" d="M26.9,22.48s.72,.6,1.64,.43c.94-.2,.81-.75,.44-1.32-.21-.33-.4-.74,0-1s1.9-.42,1.9-.42c0,0-.76,.12-1.23,.26-.17,.05-.44,.14-.53,.43s.15,.5,.17,.52c1.16,1.18,.45,1.65,.45,1.65,0,0-.45,.63-2.11,.37-.58-.13-1.1-.31-1.1-.31,0,0,.27-.17,.4-.62Z"/><path class="cls-3" d="M15.12,12.64s-.07,.21,.32,.33,.61,.16,.56,.35-.34,.06-.34,.06c0,0-.21-.07-.36,.03s-.25,0-.25,0c0,0-.11-.31-.05-.58,.05-.2,.07-.27,.12-.18Z"/><path class="cls-3" d="M16.09,13.4s.21,.13,.25,.36-.02,.22,.08,.48-.17,.34-.17,.34c0,0-.07-.05-.4-.18s-.54-.37-.61-.46c-.15-.19-.16-.35-.18-.46,0,0,.09,.05,.2,0s.2-.09,.36-.04,.25,.09,.46-.06Z"/><path class="cls-3" d="M16.49,14.24c-.09-.18-.12-.42-.08-.4,.07,.03,.27,.38,.46,.49,.33,.19,.81,.45,1.34,.6,1,.29,1.95,.37,2.25,1.5,.14,.58-.13,.62-.04,1.08s.1,.51,1,1.05,1.21,1.59,1.53,2.6,.24,1.83,1.55,2.42c0,0-1.96-.13-4.16-3.34,0,0,.04-.22,.1-.39s.38,.19,.51,.15c.1-.02,.14-.38-.2-.96-.1-.14-.22-.39-.63-.25-.37,.12-.46-.04-.51-.09-.03-.08-.18-.54-.47-1.28-.42-1.06-1.34-2.06-2.8-2.81,.07-.03,.25-.21,.16-.39Z"/><path class="cls-3" d="M20.95,14.4s-1.19-.48-.78-1.26c.43-.83,1.84-.6,1.84-.6,0,0,.67,.11,.73,.5s-.28,.57-.28,.57c0,0-.34,.07-.44,.25s-.74,.58-1.06,.55Z"/><path class="cls-2" d="M20.4,11.79s-.24-.13-.96-.22c0,0,.73-.62,.87-.68s.44-.2,.35,.22-.26,.69-.26,.69Z"/><path class="cls-4" d="M19.73,19.9s-.25,.21-.35,.4-.17,.27-.22,.28,.05-.19-.08-.14-.1,.16-.1,.16h-.07s.08-.17-.01-.19c-.04,0-.09,0-.13,.08s-.06-.46,.16-.7,.46-.38,.52-.45,.22-.45,.51-.4,.6,.4,.6,.4c0,0,.12,.06-.26,.08-.26,0-.15,.28-.15,.39s.03,.32-.2,.42c0,0,.02-.15-.07-.16s-.11,.04-.11,.04c0,0-.05-.05-.04-.19Z"/><path class="cls-4" d="M19.92,20.24s.03-.22-.13-.13c0,0-.08,.06-.07,.24s.02,.2,.02,.2c0,0,.08-.25,.18-.32Z"/><path class="cls-4" d="M18.82,18.31s.04-.22-.09-.09c0,0-.05,.05-.03,.19s.03,.15,.03,.15c0,0,.02-.19,.09-.25Z"/><path class="cls-4" d="M19.11,20.61s-.01-.06,0-.1-.05-.01-.05-.01c0,0-.04,.04-.05,.1s-.01,.11,.02,.18c.04,.09,.09,.12,.09,.12,0,0-.06-.14,0-.29Z"/><path class="cls-4" d="M18.17,18.6s.02-.04,0-.1-.05-.03-.1,.07c-.02,.05-.03,.17,0,.23,.02-.13,.09-.19,.09-.19Z"/><path class="cls-4" d="M18.88,20.6s.06-.05,.03-.14c-.01-.05-.1-.03-.15,.1-.02,.07-.02,.23,.02,.3,.01-.18,.1-.26,.1-.26Z"/><path class="cls-4" d="M18,18.54s.03-.06-.02-.11c-.02-.03-.09,0-.09,.12,0,.06,.05,.18,.11,.22-.04-.14,0-.23,0-.23Z"/><path class="cls-4" d="M22.38,23.69s.14-.02,.18-.12c.02-.07-.15-.12-.27,0-.11,.11-.2,.2-.21,.31,.15-.16,.3-.18,.3-.18Z"/><path class="cls-4" d="M22.63,23.94s.12-.01,.16-.12c.03-.07-.11-.12-.27-.03-.08,.05-.18,.22-.2,.33,.15-.16,.3-.18,.3-.18Z"/><path class="cls-4" d="M22.32,23.34s.08-.01,.11-.1c.02-.05-.07-.09-.19,0-.06,.05-.15,.18-.16,.27,.12-.14,.24-.16,.24-.16Z"/><path class="cls-4" d="M18.98,20.47s.17-.41,.47-.65c0,0-.28,.17-.38,.35s-.14,.34-.1,.3Z"/><path class="cls-4" d="M18.79,20.4s.09-.43,.34-.73c0,0-.25,.22-.31,.41s-.08,.36-.04,.31Z"/><ellipse class="cls-2" cx="18.34" cy="12.82" rx=".42" ry=".56" transform="translate(.58 26.44) rotate(-72.42)"/><ellipse class="cls-1" cx="18.1" cy="12.67" rx=".13" ry=".17" transform="translate(.56 26.1) rotate(-72.42)"/><path class="cls-4" d="M19.02,17.29c-.09,0-.2,0-.27,.03-.17,.03-.17,.24-.44,.39s-.39,.37-.41,.56,0,.22,0,.22c0,0,.03-.15,.1-.1s.02,.18,.02,.18h.04s.09-.2,.13-.12,0,.14,0,.14c0,0,.32-.15,.48-.55,0,0,0,.19,.02,.22,0,0,.1-.19,.16-.09,.03,.05,0,.13,0,.13,0,0,.24-.09,.18-.43-.02-.14,.06-.19,.14-.21l-.08-.19-.08-.18Z"/><path class="cls-4" d="M18.09,18.45s.18-.39,.43-.6c0,0-.22,.14-.31,.32s-.15,.32-.12,.29Z"/><path class="cls-4" d="M17.92,18.39s.15-.41,.43-.67c0,0-.26,.18-.35,.36s-.12,.34-.08,.3Z"/><path class="cls-4" d="M24.05,23.67s-.19,.3-.42,.3-.48,0-.6,.03-.28-.02-.31-.04,.15-.06,.13-.15-.23-.11-.34-.03c0,0-.06-.05-.08-.07,0,0,.25-.06,.16-.17s-.23-.05-.23-.05c0,0-.05-.06-.02-.09s.21-.1,.12-.2c-.04-.04-.07-.02-.07-.02,0,0,.34-.18,.57-.04s.77,.41,1,.48c.08,.02,.1,.02,.1,.06Z"/><path class="cls-4" d="M22.64,23.67s.43-.16,.83-.09c0,0-.32-.1-.53-.04s-.35,.13-.3,.14Z"/><path class="cls-4" d="M22.44,23.39s.44-.13,.83-.04c0,0-.32-.12-.53-.07s-.36,.11-.3,.12Z"/><path class="cls-3" d="M21.52,19.78c.61,.47,.94,1.27,1.12,1.71s.55,1.51,1.86,2.1c0,0-1.17-.11-2.7-1.58-.53-.48-1.52-1.82-1.48-1.78,.16-.42-.05-.56,.04-.64s.31-.08,.44-.12c.1-.02-.04-.18-.15-.28s-.41-.37-.64-.33-.36-.08-.39-.15c-.01-.04-.13-.38-.32-.9-.16-.43-.32-.82-.65-1.29-.82-1.03-1.55-1.46-1.55-1.46,0,0,1.04,.57,1.53,.95,.38,.29,1,1.43,1.22,1.88s.54,.39,.81,.67c.17,.17,.17,.24,.4,.62s.39,.53,.48,.6Z"/><path class="cls-2" d="M22.52,13.77c-.11,0-.3,.08-.36,.21s-.73,.57-.89,.58c0,0-.08,.38-.44,.58-.22,.12-.85,.16-.85,.16,0,0,.49,.09,.8,0,.39-.11,.59-.4,.64-.56,.06-.17,.72-.54,.81-.73,.13-.28,.41-.25,.3-.25Z"/><path class="cls-2" d="M15.81,13.76s-.05-.02-.06,.02,.85,.85,1.33,1.99c0,0-.37-1.06-1.27-2Z"/><path class="cls-2" d="M15.64,13.72s-.05-.03-.08,0,.78,1.12,1.09,2.5c0,0-.2-1.26-1.01-2.5Z"/><path class="cls-2" d="M15.51,13.86s-.03-.02-.04,0,.37,.69,.47,1.48c0,0-.04-.73-.42-1.48Z"/></g></svg>