<?xml version="1.0" encoding="UTF-8"?><svg id="Complications" xmlns="http://www.w3.org/2000/svg" viewBox="0 0 32 32"><defs><style>.cls-1{fill:#8aa3bf;}.cls-1,.cls-2,.cls-3,.cls-4,.cls-5,.cls-6,.cls-7,.cls-8{stroke-width:0px;}.cls-2{fill:none;}.cls-3{fill:#4b6275;}.cls-4{fill:#c1d6e6;}.cls-5{fill:#9ab3d3;}.cls-6{fill:#5c7381;}.cls-7{fill:#82b7d9;}.cls-8{fill:#5b798c;}</style></defs><rect class="cls-2" width="32" height="32"/><path class="cls-5" d="M13.63,23.12c-.09.18-1.1,1.38-1.36,1.72s-1.52,1.45-1.52,1.45c-.27.31-.78.77-.96.75-.18-.01-.45-.62-.47-.75s.3-.53.4-.69.37-.39.58-.67.59-.85.59-.85c0,0,.14-.35.34-.59s.17-.43.35-.84.12-.76.09-1.23-.14-.84-.11-1.14.27-.45.34-.52.32-.48.49-.77.31-.5.66-.78.87-.43,1.07-.53.9-.37,1.2-.7.52-.92.59-1.06.5-1.12.75-1.6.82-1.17,1.73-1.66,2.09-.86,2.19-.87.13-.38.13-.38c0,0-.01-.59.23-.81s.65-.32.98-.14.19.88.22,1.08.38.48.57.73c.2.25.12.88.08,1.29-.04.41.17.55.17.55,0,0,.07.14.17.27s.36.17.36.17c.03-.01.1-.01.24-.01s.52-.15.66-.15c.25.02.57.03.84,0s.38.06.38.06c.25.37-.04.55-.27.66s-.45.08-.79.18-.28.14-.46.19-.25.05-.36.04c-.11-.01-.9.51-.9.51-.04.06-.59.36-.62.59s-.16.25-.37.46c-.21.21,0,0-.41.31-.41.31-1.52,1.1-1.52,1.1-.49.49-1.49,1.02-1.82,1.14s-1.66.89-2.03,1.14-.44.53-1.2,1.19c0,0-1.28.95-1.37,1.13h.11Z"/><path class="cls-7" d="M11.9,22.23s-.08.04-.09.18-.17.78-.27.94-.3.39-.37.46-.28.28-.28.28c0,0-.18.2-.31.36s-.34.59-.28.49.56-.56.62-.66.39-.4.52-.57.26-.55.33-.69.21-.84.09-.81h.04Z"/><path class="cls-4" d="M22.07,15.98s-.1-.06-.14.14.04,1,.04,1l-.17.15s-.02-.9-.05-1.02-.13-.18-.15-.03,0,.94-.08,1.05-.47.47-.47.47l.17-1.21.28-.56.1-.15.57.17h-.11Z"/><path class="cls-6" d="M23.92,15.55s-.36-.1-.48-.04-.2.17-.56.28-.59.01-.69-.05-.76-.47-1.26-.36-.77.49-.83.66-.3,1.09-.36,1.33-.1.43-.24.64-.11.27-.21.35-.28.21-.24.22.21-.07.55-.52.45-.99.48-1.08.17-.85.24-.92.13-.24.2-.24-.03.22-.1.5c-.07.28-.07.77-.1.86s-.1.43,0,.35.16-.39.16-.39c0,0,.12-.83.15-.98s.04-.34.24-.43.58-.04.58-.04l.11.08s-.28.14-.35.42-.2,1.01-.2,1.01c0,0-.27.52-.38.71s-.55.59-.55.59c0,0-.38.36-.2.24s1.15-.78,1.25-1.07.23-1.02.23-1.02c0,0,.04-.41.14-.56s.27-.24.32-.19.78.38.88.37.18-.06.18-.06l.69-.52.39-.19-.04.06Z"/><path class="cls-1" d="M23.05,14.41l.57.17s-.14.21-.39.19c-.25-.02-.81-.37-1.16-.3s-.76.3-1.04.37-1.05-.08-1.05-.08c0,0,.25.3.29.45s.03.41.03.41c0,0-.12-.39-.29-.59s-.25-.23-.39-.23-.42-.07-.38.08.36.59.39.65.12.67.08.8-.23.81-.24.71.26-1.11-.02-1.53-.46-.44-.6-.51-.46-.23-.45-.13.28.42.35.56.35.63.35.63c0,0-.67-.79-.79-.9s-.46-.58-.49-.42.33.75.4.82.45.69.43.8-.06,1.01-.1,1.35-.16.81-.16.88-.07-.42-.07-.42c0,0,.2-.94,0-.77s-.37.39-.41.66-.32,1.27-.32,1.27c0,0-.08.04-.08-.17s.37-1.16.23-1.09-.44.81-.52.92-.17.36-.35.49-.32.05-.32.05l.78-1.68.69-.8.26-.55-.26-.81-.66-.69-.07-.42.37-.53.94.41,1.16.09.98.08.65-.25.56-.21.32.09.84.14h-.04Z"/><path class="cls-8" d="M22.31,13.2s-.68-.61-.75-.68-.8-.41-1.04-.33-.69.16-.9.23-.65.11-.65.11c0,0,1.5-.64,1.63-.59.13.04.45.06.64.17s1.05,1.13,1.05,1.13v-.04Z"/><path class="cls-4" d="M20.77,11.58l-.11.27s.49-.07.63.07.67.58.67.58c0,0,.18.37.15.24s-.37-.97-.71-1.15-.35-.14-.43-.17-.23.18-.23.18h.03Z"/><path class="cls-8" d="M16,20.06s-.28.63-.47.83-1.04.86-1.08.99-.21.49-.14.49.53-.33.58-.39.89-1.03.99-1.12.73-.43.79-.53.47-.76.44-.53-.1.5-.1.5c0,0-.87.43-1.18.86s-.94.99-1.1,1.1-.79.46-.79.46l-.08.04.16-.39.59-.99.73-.71.66-.57v-.04Z"/><path class="cls-8" d="M13.38,19.36s.16.69.08.73.19.67.25.79.03-.43.04-.48-.01-.73.03-.65.08.66.07.77-.03.93-.03,1,.17-.22.27-.38.19-.83.17-.92.06-.87.1-.43.05,1.02-.08,1.26-.48.87-.54,1.04-.17.22-.11.27.36.03.36.03l-1.64,2.49-.66.57-.83.73-.25.34-.25.12-.25.12-.25.12-.17-.13s.56-.7.69-.94,1.44-1.76,1.66-1.87.51-.53.51-.53l.41-1.15s.34-.38.4-.47.13-1.01.13-1.01l-.32-.79.21-.63h0Z"/><path class="cls-4" d="M12.59,19.02s-.17.57,0,.94.46.72.49.84.04.72.08.87.15.45,0,.49l-.14.07-.43-.87-.18-.51v.7s.09.48.09.48c0,0-.18-.16-.24-.48s-.15-1.08-.29-1.22-.36-.03-.36-.03l.48-.52.28-.63.25-.12h-.04Z"/><path class="cls-8" d="M17.02,15.25s.29.66.33.89.21.77.15.87-.24.71-.24.71l-.04-.72-.19-1.73v-.03Z"/><path class="cls-8" d="M16.66,15.5s.14.91.12,1.09.08,1.43.08,1.43l-.31-.62-.16-1.39.27-.52Z"/><path class="cls-8" d="M16.23,16.2s.12,1.02.04,1.28-.07.77-.07.77l-.27-1.54.31-.5Z"/><path class="cls-8" d="M15.81,17.18s-.07.84-.09,1.02-.06.73-.06.73l-.3-.76v-.52s.43-.46.43-.46h.03Z"/><path class="cls-6" d="M9.37,26.31s.03.2.08.17c.07,0,.31-.29.42-.35.1-.08,1.3-1.27,1.47-1.42s.92-.84,1.06-.91-.27.45-.38.57c-.14.14-.34.38-.82.82s-.87,1.06-.97,1.22-.25.48-.27.59c-.01.11.14-.07.22-.11.07-.07.23-.25.23-.32,0-.07.14-.28.24-.36.1-.08.35-.42.49-.63s1.13-1.19,1.23-1.27.52-.92.55-1.15c.03-.22.26-.76.31-.85s.23-.25.32-.41c.07-.14.19-.62.16-.81s-.18-.65-.29-.94-.08-.59,0-.8c.04-.2.32-.41.55-.52s.38-.08.46-.12.08-.04.13.04c.03.06.14.35.15.87.03.55-.19,1.25-.25,1.56s-.6,1.34-.77,1.57-.3.32-.45.5-.41.59-.49.77c-.09.18-.65.81-.75.96s-.49.49-.7.63c-.2.17-.72.81-.73.92s.11-.13.23-.25c.08-.11.39-.33.58-.46s.96-.89,1.04-1c.08-.11.99-1.19,1.07-1.44s.73-.78.73-.78c0,0-.18.13-.22.11s.04-.13.04-.13c.06-.1.13-.17.16-.25.04-.13.42-.77.57-.91s.78-.77,1-.88.72-.67.87-.92.5-.98.52-1.06c.01-.11.23-.39.44-.6.24-.22.58-.67.66-.85s.21-.63.13-.94-.84-1.13-.92-1.51c-.08-.38.16-.46.16-.46l.28.28s.25.09.39.16.56.21.95.09.52-.08.81-.05.7,0,.83.05.35-.14.65-.32.35-.14.66-.15c0,0,.46.23.64.24s.6.09.8.06c.15-.04-.03-.06-.14-.07h0c.06-.03-.29-.17-.31-.2-.04-.01-.45-.62-.46-.65s-.54-.89-.77-1.2c-.19-.32-.64-.66-.94-.69s-.86.04-1.95.58-1.35.88-1.45.96c-.04.06-.16.25-.25.41-.16.18-.27.38-.38.5-.25.34-.74,1.41-.88,1.48s-.47.97-.54,1.18-.27.59-.35.77c-.09.18-.21.84-.27.94s-.04-.01-.08-.17.09-.67.16-.81.11-.27.09-.32c-.07-.07-.42.21-.42.21,0,0-.06.17-.06.24s-.21.42-.21.42c-.01.04-.18.2-.32.26s-.55.31-.62.31c-.07,0,.04-.27.1-.43.06-.1.39-.4.55-.52-.11.06-.21,0-.32.05s-.44.18-.58.25-.55.31-.69.52c-.16.18-.27.59-.27.66-.03.08-.17.29-.4.47s-.31.57-.31.57c0,0,.17-.22.31-.29.15-.04.29.24.32.3s.01.45.08,1.08c.03.34.07.63.05.95-.02.25-.13.59-.14.63-.06.1-.09.39,0,.28.1-.08.24-.71.24-.71l.07-.77s-.03-.34.06-.38c.1-.01.18.51.18.79s-.07.77-.1.86-.23.25-.3.39c-.07.14-.86.74-.99.91-.16.18-1.37,1.34-1.42,1.44-.06.1-.59.57-.59.57h.04ZM22.05,13.4c-.07-.07-.5-.45-.66-.55s-.7-.14-.91-.07c-.21.07-.77.14-1.01.22s-1.01.08-1.39.16c.14-.14.2-.17.42-.28l1.15-.57c.21-.07.98-.28,1.14-.25s.39.09.74.3c.34.18.82,1.17.9,1.34.08.1.26.39.35.56-.08-.1-.29-.31-.35-.42-.06-.11-.33-.32-.39-.44ZM21.55,13.51s-.53-.16-.66-.13-1.04-.19-1.09-.16.07-.07.25-.12.66-.15,1-.11c.34.04.85.59.85.59,0,0-.34-.04-.35-.07ZM21.95,13.83c.17.06-.43.04-.6.05s-.34-.04-.46-.09-.35-.14-.45-.2c-.1-.06-.29-.1-.83-.19s-1.42.11-1.5.08.08-.04.17-.08.72-.11,1.02-.12,1.05.15,1.61.22c.53.09,1.01.34,1.01.34h.03ZM18.25,13.98c-.18.06-.39-.02-.45-.13s.28-.14.62-.24c.31-.08.46.02,1.21-.04.76-.02,1.06.45,1.22.48.15.03.91,0,.91,0,.17-.01-.7.21-.7.21,0,0-.2.03-.34-.04s-.42-.21-.55-.26c-.13-.04-.67-.16-1.16-.16-.48.03-.56.14-.73.15h-.03ZM18.03,16.72c0,.07-.09.18-.08.11s0-.42-.08-.66c-.05-.25-.24-.48-.24-.62,0,0,.4.46.47.61.03.13-.06.45-.09.53v.03ZM17.35,17.61c-.14.07-.01-.31,0-.42.01-.11-.05-.74-.12-.88-.06-.18-.09-1.04-.09-1.04.07-.07.37.76.44.9s.12.53.07.91-.17.43-.31.5v.03ZM17.04,16.92c.07.21-.19,1.11-.19,1.11,0,0,.03-.08-.01-.17,0-.07-.25-.79-.25-1.14s.19-1.25.19-1.25l.1.2s.11,1.07.18,1.28v-.03ZM16.4,19.09c-.1.01,0,0,.04-.13.01-.11-.07-.63-.07-.63,0,0-.18-.44-.22-.94s.1-1.07.1-1.07c.11-.13.08.59.12.67.06.11.23,1.25.26,1.31,0,.07-.19.76-.27.8h.03ZM15.77,20c-.08.04.04-.34.04-.41s.02-.46-.01-.59c-.04-.15-.15-.8-.18-1.07s.13-.66.13-.66l.08.31s.19.53.21.77.05.81.02.97c-.04.13-.24.64-.33.69h.03ZM14.94,19.6c.01-.11.04.43.05.67,0,.21-.13.59-.17.64s-.17.22-.18.2.13-.45.17-.57c.03-.15.1-.93.1-.93h.03ZM15.19,20.46s.06-.38.03-.5-.03-.55-.02-.76c0-.21.05-.9.05-.9,0,0,.08.38.15.52s.07.63.05.95-.26.83-.28.84.01-.18.01-.18v.03ZM13.27,19.2c0,.07-.06-.11-.08-.17-.01-.1-.01-.31,0-.49.01-.18.06-.31.13-.38.06-.1.15-.04.15-.04,0,0-.14.28-.2.38-.07.07-.03.57-.02.67v.03ZM13.01,19.44c-.06.1-.12-.39-.11-.44s-.07-.35-.03-.48c.01-.11.11-.13.11-.13,0,0,0,.42,0,.49,0,.07.07.49.04.58v-.03ZM13.11,21.98c-.07.07-.13.03-.17-.06s-.07-.42-.11-.58-.17-.34-.21-.42c-.07-.07-.08-.24-.11-.37s-.19-.6-.18-.93.27-.52.27-.52c.07-.07.1.2.1.2,0,0,.33.82.36.87.04.08.39.44.37.83,0,.42-.3.95-.34,1.01v-.04Z"/><path class="cls-7" d="M14.16,17.75l-.06.03c.06-.03.08-.04.06-.03Z"/><path class="cls-6" d="M22.91,13.01s-.05-.39-.32-.51-.67-.72-.73-.83.06-.59.03-.72-.03-.27-.15-.31-.38-.2-.38-.2c0,0,.38-.08.62.05.24.13.26.39.19.6-.07.21-.06.31.01.45s.5.59.57.73.09.69.09.69l.06.04Z"/><path class="cls-6" d="M25.67,14.76s-.49.07-.63.07-.28.14-.49,0-.5-.03-.6-.02-.25.12-.21,0,.11-.27.24-.29.25-.12.55-.1.91,0,.98,0,.22.03.28.14-.13.17-.13.17v.03Z"/><polygon class="cls-3" points="9.91 9.85 8.29 11.93 25.44 25.26 27.06 23.17 9.91 9.85 9.91 9.85"/><path class="cls-3" d="M17.56,8.51h0c4.8,0,8.87,3.6,9.47,8.37.32,2.54-.37,5.04-1.94,7.06-1.57,2.02-3.83,3.3-6.36,3.62-.4.05-.81.08-1.21.08-4.8,0-8.88-3.6-9.48-8.37-.32-2.54.37-5.04,1.94-7.06,1.57-2.02,3.83-3.3,6.36-3.62.4-.05.81-.08,1.21-.08M17.56,5.16c-.54,0-1.08.03-1.63.1-7.08.89-12.09,7.35-11.2,14.43.82,6.53,6.38,11.31,12.8,11.31.54,0,1.08-.03,1.63-.1,7.08-.89,12.09-7.35,11.2-14.43-.82-6.53-6.38-11.31-12.8-11.31h0Z"/></svg>