<?xml version="1.0" encoding="UTF-8"?><svg id="Complications" xmlns="http://www.w3.org/2000/svg" viewBox="0 0 32 32"><defs><style>.cls-1{fill:#8aa3bf;}.cls-1,.cls-2,.cls-3,.cls-4,.cls-5,.cls-6,.cls-7,.cls-8{stroke-width:0px;}.cls-2{fill:none;}.cls-3{fill:#85a4c2;}.cls-4{fill:#c1d6e6;}.cls-5{fill:#9ab3d3;}.cls-6{fill:#738ea5;}.cls-7{fill:#a0b3be;}.cls-8{fill:#5c7381;}</style></defs><rect class="cls-2" width="32" height="32"/><path class="cls-5" d="M18.37,23.39l-2.79-4.96c.43-.43.62-.58.69-.87.09-.36-.76-1.84-1.14-2.04-.34-.17-.5-.06-1.1.13l-2.79-4.96c-.07-.13-.24-.17-.36-.1l-.03.02c-.13.07-.17.24-.1.36l.11.2c-.15.87-1.12,5.32-5.52,7.79-2.74,1.54-3.84,1.29-4.36,2.54-.13.3-.06.81.12,1.4-.26.11-.42.22-.52.49-.2.55.91,2.61,1.45,2.59.21,0,.38-.08.58-.2.45.56.91.94,1.27.91.52-.04.96-.26,1.5-.61.81,1.53,2.42,4.85,2.97,5.05.55.2,2.56-1.7,2.53-2.24-.02-.38-1.1-.37-2.32-1.56.01-.05,0-.11-.02-.17l-.5-.88c-.06-.11-.2-.15-.31-.09l-.07.04c-.23-.35-.46-.76-.68-1.23.38-.24.8-.51,1.3-.79,0,0,0,0,0,0,4.26-2.39,8.67-1.02,9.49-.72l.11.19c.07.13.24.17.36.1l.03-.02c.13-.07.17-.24.1-.36Z"/><path class="cls-3" d="M7.34,22.54h0s-2.01-3.58-2.01-3.58c-.24.13-.46.25-.68.36-.03.01-.06.03-.08.04-.05.02-.09.04-.13.07-.03.01-.05.03-.08.04-.06.03-.11.05-.17.08-.03.02-.07.03-.1.05-1.85.86-2.68.86-3.11,1.9-.13.3-.06.81.12,1.4.18.57.46,1.21.8,1.8.01.02.02.04.04.06,0,0,0,0,0,0,0,0,0,0,0,0,0,.02.02.03.03.04.01.02.02.04.03.06,0,.02.02.03.03.05.01.02.02.04.03.05.01.02.02.03.03.05.01.02.02.03.03.05.01.02.02.03.03.05.01.02.02.03.03.05.01.02.02.03.03.05.01.02.02.03.03.05.01.02.02.03.03.05.01.02.02.03.03.05.01.02.02.03.03.04.01.02.02.03.03.05.01.01.02.03.03.04.01.02.02.03.03.05.01.01.02.03.03.04.01.02.02.03.03.05.01.01.02.03.03.04.01.02.02.03.03.04.01.01.02.03.03.04,0,0,0,0,0,0,.01.01.02.03.03.04.01.01.02.03.03.04.01.01.02.03.04.04,0,.01.02.02.03.03.01.02.03.03.04.04,0,.01.02.02.03.03.01.02.03.03.04.05,0,0,.01.02.02.02.02.02.04.05.07.07,0,0,.01.01.02.02.02.02.03.03.05.05,0,0,.02.02.03.02.01.01.03.03.04.04,0,0,.02.02.03.03.01.01.03.02.04.03,0,0,.02.02.03.02.01.01.02.02.04.03,0,0,.02.02.03.02.01,0,.02.02.04.03,0,0,.02.01.03.02.01,0,.02.02.03.02,0,0,.02.01.03.02.01,0,.02.02.03.02,0,0,.02.01.03.02.01,0,.02.01.03.02,0,0,.02.01.03.02.01,0,.02.01.03.02,0,0,.02,0,.03.01.01,0,.02,0,.03.01,0,0,.02,0,.03.01.01,0,.02,0,.03.01,0,0,.02,0,.03,0,.01,0,.02,0,.03,0,0,0,.02,0,.02,0,.01,0,.02,0,.03,0,0,0,.02,0,.02,0,.01,0,.02,0,.04,0,0,0,.01,0,.02,0,.02,0,.04,0,.05,0,.04,0,.07,0,.11-.01.07,0,.14-.02.21-.04.03,0,.07-.02.1-.03.07-.02.14-.04.2-.07.03-.01.07-.03.1-.04.2-.09.41-.2.63-.34.05-.03.09-.06.14-.09,0,0,0,0,0,0,.05-.03.1-.06.15-.1,0,0,.01,0,.02-.01.05-.03.1-.07.16-.11.04-.03.08-.06.13-.09.09-.06.17-.12.27-.18.14-.1.29-.2.44-.3.05-.04.11-.07.16-.11.08-.05.16-.1.24-.16,0,0,.02-.01.03-.02.01,0,.02-.02.04-.02,0,0,0,0,0,0,0,0,0,0,0,0,.03-.02.06-.04.09-.06,0,0,0,0,0,0,.03-.02.05-.03.08-.05,0,0,0,0,0,0,.03-.02.06-.04.1-.06,0,0,0,0,0,0,.03-.02.05-.03.08-.05,0,0,0,0,0,0,.03-.02.07-.04.1-.06.03-.02.05-.03.08-.05.04-.02.07-.04.11-.07.06-.03.11-.07.17-.1.14-.08.29-.17.45-.26l-.93-1.66Z"/><path class="cls-4" d="M6.78,22.95s0,0,0,0c0,0,0,0,0,0l-2.06-3.66s-.05.02-.07.04c-.03.01-.06.03-.08.04-.05.02-.09.04-.13.07-.03.01-.05.03-.08.04-.06.03-.11.05-.17.08-.03.02-.07.03-.1.05-.03.01-.06.03-.09.04l2.11,3.76s0,0,0,0c0,0,0,0,0,0l.88,1.57s.01,0,.02-.01c0,0,0,0,0,0,.03-.02.06-.04.09-.06,0,0,0,0,0,0,.03-.02.05-.03.08-.05,0,0,0,0,0,0,.03-.02.06-.04.1-.06,0,0,0,0,0,0,.03-.02.05-.03.08-.05,0,0,0,0,0,0,.03-.02.07-.04.1-.06.03-.02.05-.03.08-.05.04-.02.07-.04.11-.07,0,0,.02,0,.02-.01l-.9-1.59Z"/><path class="cls-6" d="M2.6,25.76s-.02-.03-.03-.04c-.01-.01-.02-.03-.03-.04-.01-.01-.02-.03-.03-.04-.01-.02-.02-.03-.03-.05-.01-.01-.02-.03-.03-.04-.01-.02-.02-.03-.03-.05-.01-.01-.02-.03-.03-.04-.01-.02-.02-.03-.03-.05-.01-.01-.02-.03-.03-.04-.01-.02-.02-.03-.03-.05-.01-.02-.02-.03-.03-.05-.01-.02-.02-.03-.03-.05-.01-.02-.02-.03-.03-.05-.01-.02-.02-.03-.03-.05-.01-.02-.02-.03-.03-.05-.01-.02-.02-.03-.03-.05-.01-.02-.02-.03-.03-.05-.01-.02-.02-.04-.03-.05,0-.02-.02-.03-.03-.05-.01-.02-.02-.04-.03-.06,0-.01-.02-.03-.03-.04,0,0,0,0,0,0,0,0,0,0,0,0-.01-.02-.02-.04-.04-.06-.34-.59-.63-1.23-.8-1.8-.26.11-.42.22-.52.49-.1.29.14.98.48,1.57,0,0,0,0,0,0,.1.17.2.34.31.48,0,0,0,0,0,0,.02.03.04.05.06.08,0,0,0,0,0,0,.02.03.04.05.06.07,0,0,0,0,0,0,.02.02.04.04.06.07,0,0,0,0,0,0,.02.02.04.04.06.06,0,0,0,0,0,0,.02.02.04.04.06.05,0,0,0,0,0,0,.02.02.04.03.05.05,0,0,0,0,0,0,.02.01.04.03.05.04,0,0,0,0,0,0,.02.01.03.02.05.03,0,0,0,0,0,0,.02,0,.03.02.05.02,0,0,0,0,0,0,.02,0,.03.01.05.01,0,0,0,0,0,0,.02,0,.03,0,.05,0,.21,0,.38-.08.58-.2,0,0,0,0,0,0Z"/><path class="cls-6" d="M18.37,23.39l-2.79-4.96-.57-1.02-.99-1.75-2.79-4.96c-.07-.13-.24-.17-.36-.1h-.02s-.02.02-.02.02c-.13.07-.17.24-.1.36l.11.2,4.34,7.73,2.57,4.58.11.19c.07.13.24.17.36.1h.02s.02-.02.02-.02c.13-.07.17-.24.1-.36Z"/><path class="cls-6" d="M8.7,27.46s0,0,0,0c0,0,0,0,0,0-.05-.04-.1-.09-.15-.14.01-.05,0-.11-.02-.17l-.5-.88c-.06-.11-.2-.15-.31-.09l-.07.04c-.04-.06-.07-.11-.11-.17-.19-.31-.39-.66-.57-1.05,0,0-.02.01-.03.02-.08.05-.15.1-.23.15,0,0,0,0-.01,0-.05.04-.11.07-.16.11-.16.11-.3.21-.44.3-.09.06-.18.12-.27.18-.04.03-.08.06-.13.09-.05.04-.1.07-.16.11,0,0-.01,0-.02.01-.05.03-.1.07-.15.1,0,0,0,0,0,0,.14.27.31.6.5.96.04.07.07.14.11.21.04.07.07.14.11.22.04.07.08.15.11.22.02.04.04.07.06.11.04.07.08.15.12.22.04.07.08.15.12.22.02.04.04.07.06.11.04.07.08.15.12.22.04.07.08.15.12.22.04.07.08.15.12.22.06.11.12.22.18.32.04.07.08.14.12.21.02.03.04.07.06.1.08.13.15.26.22.38.04.06.07.12.11.18.04.06.07.11.1.16.03.05.07.1.1.15.03.05.06.09.1.14.03.04.06.08.09.12.15.19.27.32.36.35.01,0,.02,0,.03,0,0,0,0,0,.01,0,.01,0,.02,0,.03,0,0,0,0,0,0,0,.01,0,.03,0,.04,0,0,0,0,0,.01,0,.01,0,.02,0,.04,0,0,0,0,0,.01,0,.02,0,.03,0,.05-.01,0,0,0,0,0,0,.01,0,.03,0,.04-.01,0,0,0,0,.01,0,.02,0,.03-.01.05-.02,0,0,0,0,0,0,.02,0,.04-.02.06-.02,0,0,0,0,.01,0,.02,0,.03-.01.05-.02,0,0,0,0,.01,0,.02,0,.04-.02.06-.03,0,0,0,0,.01,0,.02,0,.03-.02.05-.03,0,0,.01,0,.02,0,.02-.01.04-.03.06-.04,0,0,0,0,0,0,.02-.01.04-.03.06-.04,0,0,.01,0,.02-.01.02-.01.04-.03.06-.04,0,0,0,0,0,0,.02-.02.05-.03.07-.05,0,0,0,0,.01,0,.02-.01.04-.03.06-.04,0,0,0,0,.01,0,.02-.02.05-.04.07-.05,0,0,0,0,0,0,.02-.02.04-.04.07-.05,0,0,0,0,.01,0,.05-.04.1-.08.14-.12,0,0,0,0,0,0,.05-.04.1-.09.15-.13,0,0,0,0,0,0,.02-.02.05-.04.07-.07,0,0,0,0,0,0,.05-.05.1-.09.15-.14,0,0,0,0,0,0,.05-.05.09-.09.14-.14,0,0,0,0,0,0,.12-.12.22-.24.32-.35,0,0,0,0,0,0,.25-.3.41-.57.4-.73-.02-.36-1.01-.37-2.17-1.41Z"/><path class="cls-1" d="M15.58,18.43c.43-.43.62-.58.69-.87.05-.18-.13-.62-.36-1.03,0,0,0,0,0,0-.2.27-.49.56-.9.87l.57,1.02Z"/><path class="cls-1" d="M14.27,19.09c-2.23.62-4.14,1.66-6.03,2.83-.31.19-.61.4-.9.62h0s.93,1.66.93,1.66c0,0,0,0,0,0,4.26-2.39,8.67-1.02,9.49-.72l-2.57-4.58c-.31.04-.61.1-.92.19Z"/><path class="cls-8" d="M2.57,25.72s-.02-.03-.03-.04c-.01-.01-.02-.03-.03-.04-.01-.02-.02-.03-.03-.05-.01-.01-.02-.03-.03-.04-.01-.02-.02-.03-.03-.05-.01-.01-.02-.03-.03-.04-.01-.02-.02-.03-.03-.05-.01-.01-.02-.03-.03-.04-.01-.02-.02-.03-.03-.05-.01-.02-.02-.03-.03-.05-.01-.02-.02-.03-.03-.05-.01-.02-.02-.03-.03-.05-.01-.02-.02-.03-.03-.05-.01-.02-.02-.03-.03-.05-.01-.02-.02-.03-.03-.05-.01-.02-.02-.03-.03-.05-.01-.02-.02-.04-.03-.05,0-.02-.02-.03-.03-.05-.01-.02-.02-.04-.03-.06,0-.01-.02-.03-.03-.04,0,0,0,0,0,0,0,0,0,0,0,0-.01-.02-.02-.04-.04-.06-.27.1-.55.19-.84.26,0,0,0,0,0,0,.1.17.2.34.31.48,0,0,0,0,0,0,.02.03.04.05.06.08,0,0,0,0,0,0,.02.03.04.05.06.07,0,0,0,0,0,0,.02.02.04.04.06.07,0,0,0,0,0,0,.02.02.04.04.06.06,0,0,0,0,0,0,.02.02.04.04.06.05,0,0,0,0,0,0,.02.02.04.03.05.05,0,0,0,0,0,0,.02.01.04.03.05.04,0,0,0,0,0,0,.02.01.03.02.05.03,0,0,0,0,0,0,.02,0,.03.02.05.02,0,0,0,0,0,0,.02,0,.03.01.05.01,0,0,0,0,0,0,.02,0,.03,0,.05,0,.21,0,.38-.08.58-.2,0,0,0,0,0,0-.01-.01-.02-.03-.03-.04Z"/><path class="cls-7" d="M6.78,22.95s0,0,0,0c-.05.03-.09.07-.14.1,0,0-.01.01-.02.02-.16.11-.33.22-.5.32,0,0,0,0,0,0l.88,1.57s.01,0,.02-.01c0,0,0,0,0,0,.03-.02.06-.04.09-.06,0,0,0,0,0,0,.03-.02.05-.03.08-.05,0,0,0,0,0,0,.03-.02.06-.04.1-.06,0,0,0,0,0,0,.03-.02.05-.03.08-.05,0,0,0,0,0,0,.03-.02.07-.04.1-.06.03-.02.05-.03.08-.05.04-.02.07-.04.11-.07,0,0,.02,0,.02-.01l-.9-1.59Z"/><path class="cls-6" d="M7.34,22.54c-.19.14-.37.28-.56.41,0,0,0,0,0,0,0,0,0,0,0,0l.9,1.59s-.02,0-.02.01c.06-.03.11-.07.17-.1.14-.08.29-.17.45-.26l-.93-1.66Z"/><path class="cls-6" d="M6.99,24.97l-.88-1.57s0,0,0,0c0,0,0,0,0,0-.2.12-.41.23-.63.33-1.14.51-2.32.94-3.55,1.04,0,0,0,0,0,0,0,0,0,0,0,0,0,.02.02.03.03.04.01.02.02.04.03.06,0,.02.02.03.03.05.01.02.02.04.03.05.01.02.02.03.03.05.01.02.02.03.03.05.01.02.02.03.03.05.01.02.02.03.03.05.01.02.02.03.03.05.01.02.02.03.03.05.01.02.02.03.03.05.01.02.02.03.03.05.01.02.02.03.03.04.01.02.02.03.03.05.01.01.02.03.03.04.01.02.02.03.03.05.01.01.02.03.03.04.01.02.02.03.03.05.01.01.02.03.03.04.01.02.02.03.03.04.01.01.02.03.03.04,0,0,0,0,0,0,.01.01.02.03.03.04.01.01.02.03.03.04.01.01.02.03.04.04,0,.01.02.02.03.03.01.02.03.03.04.04,0,.01.02.02.03.03.01.02.03.03.04.05,0,0,.01.02.02.02.02.02.04.05.07.07,0,0,.01.01.02.02.02.02.03.03.05.05,0,0,.02.02.03.02.01.01.03.03.04.04,0,0,.02.02.03.03.01.01.03.02.04.03,0,0,.02.02.03.02.01.01.02.02.04.03,0,0,.02.02.03.02.01,0,.02.02.04.03,0,0,.02.01.03.02.01,0,.02.02.03.02,0,0,.02.01.03.02.01,0,.02.02.03.02,0,0,.02.01.03.02.01,0,.02.01.03.02,0,0,.02.01.03.02.01,0,.02.01.03.02,0,0,.02,0,.03.01.01,0,.02,0,.03.01,0,0,.02,0,.03.01.01,0,.02,0,.03.01,0,0,.02,0,.03,0,.01,0,.02,0,.03,0,0,0,.02,0,.02,0,.01,0,.02,0,.03,0,0,0,.02,0,.02,0,.01,0,.02,0,.04,0,0,0,.01,0,.02,0,.02,0,.04,0,.05,0,.04,0,.07,0,.11-.01.07,0,.14-.02.21-.04.03,0,.07-.02.1-.03.07-.02.14-.04.2-.07.03-.01.07-.03.1-.04.2-.09.41-.2.63-.34.05-.03.09-.06.14-.09,0,0,0,0,0,0,.05-.03.1-.06.15-.1,0,0,.01,0,.02-.01.05-.03.1-.07.16-.11.04-.03.08-.06.13-.09.09-.06.17-.12.27-.18.14-.1.29-.2.44-.3.05-.04.11-.07.16-.11.08-.05.16-.1.24-.16,0,0,.02-.01.03-.02.01,0,.02-.02.04-.02,0,0,0,0,0,0,0,0-.01,0-.02.01Z"/><path class="cls-8" d="M7.55,28.2c-.66-.87-1.17-2-.84-3.04,0,0,0,0-.01,0-.05.04-.11.07-.16.11-.16.11-.3.21-.44.3-.09.06-.18.12-.27.18-.04.03-.08.06-.13.09-.05.04-.1.07-.16.11,0,0-.01,0-.02.01-.05.03-.1.07-.15.1,0,0,0,0,0,0,.14.27.31.6.5.96.04.07.07.14.11.21.04.07.07.14.11.22.04.07.08.15.11.22.02.04.04.07.06.11.04.07.08.15.12.22.04.07.08.15.12.22.02.04.04.07.06.11.04.07.08.15.12.22.04.07.08.15.12.22.04.07.08.15.12.22.06.11.12.22.18.32.04.07.08.14.12.21.02.03.04.07.06.1.08.13.15.26.22.38.04.06.07.12.11.18.04.06.07.11.1.16.03.05.07.1.1.15.03.05.06.09.1.14.03.04.06.08.09.12.15.19.27.32.36.35.01,0,.02,0,.03,0,0,0,0,0,.01,0,.01,0,.02,0,.03,0,0,0,0,0,0,0,.01,0,.03,0,.04,0,0,0,0,0,.01,0,.01,0,.02,0,.04,0,0,0,0,0,.01,0,.02,0,.03,0,.05-.01,0,0,0,0,0,0,.01,0,.03,0,.04-.01,0,0,0,0,.01,0,.02,0,.03-.01.05-.02,0,0,0,0,0,0,.02,0,.04-.02.06-.02,0,0,0,0,.01,0,.02,0,.03-.01.05-.02,0,0,0,0,.01,0,.02,0,.04-.02.06-.03,0,0,0,0,.01,0,.02,0,.03-.02.05-.03,0,0,.01,0,.02,0,.02-.01.04-.03.06-.04,0,0,0,0,0,0,.02-.01.04-.03.06-.04,0,0,.01,0,.02-.01.02-.01.04-.03.06-.04,0,0,0,0,0,0,.02-.02.05-.03.07-.05,0,0,0,0,.01,0,.02-.01.04-.03.06-.04,0,0,0,0,.01,0,.02-.02.05-.04.07-.05,0,0,0,0,0,0,.02-.02.04-.04.07-.05,0,0,0,0,.01,0,.05-.04.1-.08.14-.12,0,0,0,0,0,0,.05-.04.1-.09.15-.13,0,0,0,0,0,0,.02-.02.05-.04.07-.07,0,0,0,0,0,0,.05-.05.1-.09.15-.14,0,0,0,0,0,0,.05-.05.09-.09.14-.14,0,0,0,0,0,0,.12-.12.22-.24.32-.35,0,0,0,0,0,0-1.11-.01-2.16-.4-2.91-1.4Z"/><path class="cls-4" d="M17.08,17.12c2.01-.34,3.87-3.01,3.87-3.01.9.26,1.89.41,2.93.41,4.19,0,7.59-2.35,7.59-5.26s-3.4-5.26-7.59-5.26c-4.19,0-7.59,2.36-7.59,5.26,0,1.66,1.11,3.14,2.85,4.1.56,2.27-2.05,3.76-2.05,3.76Z"/><path class="cls-8" d="M23.56,7.81l-.32,2.72h-.59s-.33-2.72-.33-2.72v-1.48s1.24,0,1.24,0v1.48ZM23.52,10.99v1.14s-1.18,0-1.18,0v-1.14s1.18,0,1.18,0Z"/><path class="cls-8" d="M25.42,7.75l-.32,2.72h-.59s-.33-2.72-.33-2.72v-1.48s1.24,0,1.24,0v1.48ZM25.39,10.94v1.14s-1.18,0-1.18,0v-1.14s1.18,0,1.18,0Z"/></svg>