<?xml version="1.0" encoding="UTF-8"?><svg id="Livello_1" xmlns="http://www.w3.org/2000/svg" viewBox="0 0 27.37 24.02"><defs><style>.cls-1{fill:#85a4c2;}.cls-1,.cls-2,.cls-3,.cls-4,.cls-5,.cls-6,.cls-7,.cls-8,.cls-9{stroke-width:0px;}.cls-2{fill:#4c6376;}.cls-3{fill:#c1d6e6;}.cls-4{fill:#738ea5;}.cls-5{fill:#a0b3be;}.cls-6{fill:#dbe3e8;}.cls-7{fill:#5c7381;}.cls-8{fill:#cad6db;}.cls-9{fill:#fff;}</style></defs><path class="cls-6" d="M15.78,17.17l-2.47-4.39c.38-.38.55-.51.61-.77.08-.32-.67-1.63-1.01-1.8-.3-.15-.44-.05-.98.12l-2.47-4.4c-.06-.11-.21-.15-.32-.09l-.03.02c-.11.06-.15.21-.09.32l.1.18c-.13.77-.99,4.71-4.89,6.9-2.43,1.37-3.4,1.15-3.86,2.25-.11.27-.06.72.1,1.24-.23.09-.37.19-.46.43-.18.49.81,2.31,1.29,2.29.18,0,.34-.07.52-.18.4.5.81.83,1.13.8.46-.04.85-.23,1.32-.54.72,1.36,2.14,4.3,2.63,4.47.49.18,2.26-1.5,2.24-1.98-.02-.33-.98-.33-2.06-1.38.01-.05,0-.1-.02-.15l-.44-.78c-.05-.1-.18-.13-.27-.08l-.07.04c-.21-.31-.41-.67-.6-1.09.33-.21.71-.45,1.16-.7,0,0,0,0,0,0,3.77-2.12,7.67-.9,8.41-.64l.1.17c.06.11.21.15.32.09l.03-.02c.11-.06.15-.21.09-.32Z"/><path class="cls-1" d="M6.02,16.42h0s-1.78-3.17-1.78-3.17c-.21.12-.41.22-.6.32-.02.01-.05.03-.07.04-.04.02-.08.04-.12.06-.02.01-.04.02-.07.03-.05.02-.1.05-.15.07-.03.01-.06.03-.09.04-1.64.76-2.38.77-2.76,1.68-.11.27-.06.72.1,1.24.16.51.41,1.07.71,1.6.01.02.02.04.03.05,0,0,0,0,0,0,0,0,0,0,0,0,0,.01.02.03.02.04.01.02.02.03.03.05,0,.01.02.03.03.04,0,.02.02.03.03.05,0,.01.02.03.03.04,0,.02.02.03.03.05,0,.01.02.03.03.04,0,.02.02.03.03.04,0,.01.02.03.03.04,0,.01.02.03.03.04,0,.01.02.03.03.04,0,.01.02.03.03.04,0,.01.02.03.03.04.01.01.02.03.03.04,0,.01.02.03.03.04.01.01.02.03.03.04,0,.01.02.03.03.04.01.01.02.03.03.04,0,.01.02.02.03.04.01.01.02.03.03.04,0,.01.02.02.03.04,0,0,0,0,0,0,0,.01.02.02.03.03,0,.01.02.02.03.03.01.01.02.03.03.04,0,.01.02.02.03.03.01.01.02.03.03.04,0,0,.02.02.02.03.01.01.03.03.04.04,0,0,.01.01.02.02.02.02.04.04.06.06,0,0,.01.01.02.02.01.01.03.03.04.04,0,0,.02.01.02.02.01.01.02.02.04.03,0,0,.02.01.02.02.01,0,.02.02.03.03,0,0,.02.01.03.02.01,0,.02.02.03.03,0,0,.02.01.03.02.01,0,.02.02.03.02,0,0,.02.01.03.02.01,0,.02.01.03.02,0,0,.02.01.03.02.01,0,.02.01.03.02,0,0,.02.01.03.02.01,0,.02.01.03.02,0,0,.02,0,.02.01,0,0,.02.01.03.02,0,0,.02,0,.02.01,0,0,.02,0,.03.01,0,0,.02,0,.02,0,0,0,.02,0,.03.01,0,0,.02,0,.02,0,0,0,.02,0,.03,0,0,0,.01,0,.02,0,.01,0,.02,0,.03,0,0,0,.01,0,.02,0,.01,0,.02,0,.03,0,0,0,.01,0,.02,0,.02,0,.03,0,.05,0,.03,0,.06,0,.1-.01.06,0,.13-.02.19-.03.03,0,.06-.02.09-.02.06-.02.12-.04.18-.06.03-.01.06-.02.09-.04.18-.08.36-.18.56-.3.04-.03.08-.05.12-.08,0,0,0,0,0,0,.04-.03.09-.06.13-.09,0,0,.01,0,.02-.01.05-.03.09-.06.14-.09.04-.02.07-.05.11-.08.08-.05.15-.11.24-.16.12-.08.25-.17.39-.27.05-.03.09-.06.14-.09.07-.05.14-.09.21-.14,0,0,.02-.01.02-.02.01,0,.02-.01.03-.02,0,0,0,0,0,0,0,0,0,0,0,0,.03-.02.05-.04.08-.05,0,0,0,0,0,0,.02-.01.05-.03.07-.04,0,0,0,0,0,0,.03-.02.06-.04.09-.05,0,0,0,0,0,0,.02-.01.05-.03.07-.04,0,0,0,0,0,0,.03-.02.06-.04.09-.06.02-.01.05-.03.07-.04.03-.02.06-.04.1-.06.05-.03.1-.06.15-.09.13-.07.26-.15.4-.23l-.83-1.47Z"/><path class="cls-3" d="M5.52,16.78s0,0,0,0c0,0,0,0,0,0l-1.82-3.24s-.04.02-.06.03c-.02.01-.05.03-.07.04-.04.02-.08.04-.12.06-.02.01-.04.02-.07.03-.05.02-.1.05-.15.07-.03.01-.06.03-.09.04-.03.01-.06.03-.08.04l1.87,3.33s0,0,0,0c0,0,0,0,0,0l.78,1.39s.01,0,.02-.01c0,0,0,0,0,0,.03-.02.05-.04.08-.05,0,0,0,0,0,0,.02-.01.05-.03.07-.04,0,0,0,0,0,0,.03-.02.06-.04.09-.05,0,0,0,0,0,0,.02-.01.05-.03.07-.04,0,0,0,0,0,0,.03-.02.06-.04.09-.06.02-.01.05-.03.07-.04.03-.02.06-.04.1-.06,0,0,.01,0,.02-.01l-.79-1.41Z"/><path class="cls-4" d="M1.82,19.27s-.02-.02-.03-.04c-.01-.01-.02-.03-.03-.04,0-.01-.02-.02-.03-.04-.01-.01-.02-.03-.03-.04,0-.01-.02-.03-.03-.04-.01-.01-.02-.03-.03-.04,0-.01-.02-.03-.03-.04-.01-.01-.02-.03-.03-.04,0-.01-.02-.03-.03-.04,0-.01-.02-.03-.03-.04,0-.01-.02-.03-.03-.04,0-.01-.02-.03-.03-.04,0-.01-.02-.03-.03-.04,0-.01-.02-.03-.03-.04,0-.01-.02-.03-.03-.04,0-.02-.02-.03-.03-.05,0-.01-.02-.03-.03-.04,0-.02-.02-.03-.03-.05,0-.01-.02-.03-.03-.04-.01-.02-.02-.03-.03-.05,0-.01-.02-.03-.02-.04,0,0,0,0,0,0,0,0,0,0,0,0-.01-.02-.02-.04-.03-.05-.3-.52-.56-1.09-.71-1.6-.23.09-.37.19-.46.43-.09.25.13.87.43,1.39,0,0,0,0,0,0,.09.15.18.3.27.43,0,0,0,0,0,0,.02.02.04.05.05.07,0,0,0,0,0,0,.02.02.04.04.05.06,0,0,0,0,0,0,.02.02.03.04.05.06,0,0,0,0,0,0,.02.02.03.04.05.05,0,0,0,0,0,0,.02.02.03.03.05.05,0,0,0,0,0,0,.02.01.03.03.05.04,0,0,0,0,0,0,.02.01.03.02.05.03,0,0,0,0,0,0,.02,0,.03.02.05.03,0,0,0,0,0,0,.02,0,.03.01.05.02,0,0,0,0,0,0,.02,0,.03,0,.04.01,0,0,0,0,0,0,.01,0,.03,0,.04,0,.18,0,.34-.07.52-.18,0,0,0,0,0,0Z"/><path class="cls-3" d="M15.79,17.17l-2.47-4.39-.51-.9-.87-1.55-2.47-4.4c-.06-.11-.21-.15-.32-.09h-.01s-.01.02-.01.02c-.11.06-.15.21-.09.32l.1.18,3.85,6.84,2.28,4.05.1.17c.06.11.21.15.32.09h.01s.01-.02.01-.02c.11-.06.15-.21.09-.32Z"/><path class="cls-4" d="M7.22,20.77s0,0,0,0c0,0,0,0,0,0-.04-.04-.09-.08-.13-.12.01-.05,0-.1-.02-.15l-.44-.78c-.05-.1-.18-.13-.27-.08l-.06.04s-.07-.1-.1-.15c-.17-.27-.34-.58-.5-.93,0,0-.02.01-.02.02-.07.04-.14.09-.2.13,0,0,0,0-.01,0-.05.03-.1.06-.14.09-.14.09-.27.18-.39.27-.08.06-.16.11-.24.16-.04.03-.08.05-.11.08-.05.03-.09.06-.14.09,0,0-.01,0-.02.01-.04.03-.09.06-.13.09,0,0,0,0,0,0,.13.24.28.53.44.85.03.06.06.12.1.19.03.06.07.13.1.19.03.06.07.13.1.19.02.03.03.07.05.1.03.07.07.13.1.2.03.07.07.13.1.2.02.03.03.07.05.1.03.07.07.13.1.2.04.07.07.13.11.2.04.07.07.13.1.19.05.1.1.19.16.28.03.06.07.12.1.18.02.03.03.06.05.09.07.12.13.23.2.34.03.05.06.11.09.16.03.05.06.1.09.15.03.05.06.09.09.13.03.04.06.08.08.12.03.04.05.08.08.11.13.17.24.28.32.31,0,0,.02,0,.03,0,0,0,0,0,0,0,0,0,.02,0,.03,0,0,0,0,0,0,0,.01,0,.02,0,.04,0,0,0,0,0,0,0,.01,0,.02,0,.03,0,0,0,0,0,.01,0,.01,0,.03,0,.04,0,0,0,0,0,0,0,.01,0,.03,0,.04-.01,0,0,0,0,.01,0,.01,0,.03-.01.04-.02,0,0,0,0,0,0,.02,0,.03-.01.05-.02,0,0,0,0,.01,0,.01,0,.03-.01.04-.02,0,0,0,0,.01,0,.02,0,.04-.02.05-.03,0,0,0,0,.01,0,.01,0,.03-.02.05-.03,0,0,0,0,.01,0,.02-.01.04-.02.06-.03,0,0,0,0,0,0,.02-.01.04-.02.06-.04,0,0,0,0,.01,0,.02-.01.04-.02.05-.04,0,0,0,0,0,0,.02-.01.04-.03.06-.04,0,0,0,0,.01,0,.02-.01.04-.03.05-.04,0,0,0,0,0,0,.02-.02.04-.03.06-.05,0,0,0,0,0,0,.02-.02.04-.03.06-.05,0,0,0,0,.01,0,.04-.03.09-.07.13-.11,0,0,0,0,0,0,.04-.04.09-.08.13-.11,0,0,0,0,0,0,.02-.02.04-.04.06-.06,0,0,0,0,0,0,.04-.04.09-.08.13-.12,0,0,0,0,0,0,.04-.04.08-.08.12-.12,0,0,0,0,0,0,.1-.11.2-.21.28-.31,0,0,0,0,0,0,.22-.27.36-.51.36-.65-.02-.32-.9-.33-1.92-1.25Z"/><path class="cls-8" d="M13.32,12.78c.38-.38.55-.51.61-.77.04-.16-.12-.55-.32-.91,0,0,0,0,0,0-.18.24-.43.49-.8.77l.51.9Z"/><path class="cls-8" d="M12.16,13.36c-1.97.55-3.67,1.47-5.34,2.51-.28.17-.54.36-.79.55h0s.83,1.47.83,1.47c0,0,0,0,0,0,3.77-2.12,7.67-.9,8.41-.64l-2.28-4.05c-.27.03-.54.09-.82.17Z"/><path class="cls-7" d="M1.79,19.23s-.02-.03-.03-.04c0-.01-.02-.02-.03-.04-.01-.01-.02-.03-.03-.04,0-.01-.02-.03-.03-.04-.01-.01-.02-.03-.03-.04,0-.01-.02-.03-.03-.04-.01-.01-.02-.03-.03-.04,0-.01-.02-.03-.03-.04,0-.01-.02-.03-.03-.04,0-.01-.02-.03-.03-.04,0-.01-.02-.03-.03-.04,0-.01-.02-.03-.03-.04,0-.01-.02-.03-.03-.04,0-.01-.02-.03-.03-.04,0-.02-.02-.03-.03-.05,0-.01-.02-.03-.03-.04,0-.02-.02-.03-.03-.05,0-.01-.02-.03-.03-.04-.01-.02-.02-.03-.03-.05,0-.01-.02-.03-.02-.04,0,0,0,0,0,0,0,0,0,0,0,0-.01-.02-.02-.04-.03-.05-.24.09-.49.17-.74.23,0,0,0,0,0,0,.09.15.18.3.27.43,0,0,0,0,0,0,.02.02.04.05.05.07,0,0,0,0,0,0,.02.02.04.04.05.06,0,0,0,0,0,0,.02.02.03.04.05.06,0,0,0,0,0,0,.02.02.03.04.05.05,0,0,0,0,0,0,.02.02.03.03.05.05,0,0,0,0,0,0,.02.01.03.03.05.04,0,0,0,0,0,0,.02.01.03.02.05.03,0,0,0,0,0,0,.02,0,.03.02.05.03,0,0,0,0,0,0,.02,0,.03.01.05.02,0,0,0,0,0,0,.02,0,.03,0,.04.01,0,0,0,0,0,0,.01,0,.03,0,.04,0,.18,0,.34-.07.52-.18,0,0,0,0,0,0,0-.01-.02-.02-.03-.04Z"/><path class="cls-5" d="M5.52,16.78s0,0,0,0c-.04.03-.08.06-.13.09,0,0-.01,0-.02.01-.14.1-.29.2-.44.29,0,0,0,0,0,0l.78,1.39s.01,0,.02-.01c0,0,0,0,0,0,.03-.02.05-.04.08-.05,0,0,0,0,0,0,.02-.01.05-.03.07-.04,0,0,0,0,0,0,.03-.02.06-.04.09-.05,0,0,0,0,0,0,.02-.01.05-.03.07-.04,0,0,0,0,0,0,.03-.02.06-.04.09-.06.02-.01.05-.03.07-.04.03-.02.06-.04.1-.06,0,0,.01,0,.02-.01l-.79-1.41Z"/><path class="cls-4" d="M6.02,16.42c-.17.12-.33.24-.5.36,0,0,0,0,0,0,0,0,0,0,0,0l.79,1.41s-.01,0-.02.01c.05-.03.1-.06.15-.09.13-.07.26-.15.4-.23l-.83-1.47Z"/><path class="cls-4" d="M5.71,18.57l-.78-1.39s0,0,0,0c0,0,0,0,0,0-.18.11-.36.21-.56.29-1.01.45-2.05.83-3.14.92,0,0,0,0,0,0,0,0,0,0,0,0,0,.01.02.03.02.04.01.02.02.03.03.05,0,.01.02.03.03.04,0,.02.02.03.03.05,0,.01.02.03.03.04,0,.02.02.03.03.05,0,.01.02.03.03.04,0,.02.02.03.03.04,0,.01.02.03.03.04,0,.01.02.03.03.04,0,.01.02.03.03.04,0,.01.02.03.03.04,0,.01.02.03.03.04.01.01.02.03.03.04,0,.01.02.03.03.04.01.01.02.03.03.04,0,.01.02.03.03.04.01.01.02.03.03.04,0,.01.02.02.03.04.01.01.02.03.03.04,0,.01.02.02.03.04,0,0,0,0,0,0,0,.01.02.02.03.03,0,.01.02.02.03.03.01.01.02.03.03.04,0,.01.02.02.03.03.01.01.02.03.03.04,0,0,.02.02.02.03.01.01.03.03.04.04,0,0,.01.01.02.02.02.02.04.04.06.06,0,0,.01.01.02.02.01.01.03.03.04.04,0,0,.02.01.02.02.01.01.02.02.04.03,0,0,.02.01.02.02.01,0,.02.02.03.03,0,0,.02.01.03.02.01,0,.02.02.03.03,0,0,.02.01.03.02.01,0,.02.02.03.02,0,0,.02.01.03.02.01,0,.02.01.03.02,0,0,.02.01.03.02.01,0,.02.01.03.02,0,0,.02.01.03.02.01,0,.02.01.03.02,0,0,.02,0,.02.01,0,0,.02.01.03.02,0,0,.02,0,.02.01,0,0,.02,0,.03.01,0,0,.02,0,.02,0,0,0,.02,0,.03.01,0,0,.02,0,.02,0,0,0,.02,0,.03,0,0,0,.01,0,.02,0,.01,0,.02,0,.03,0,0,0,.01,0,.02,0,.01,0,.02,0,.03,0,0,0,.01,0,.02,0,.02,0,.03,0,.05,0,.03,0,.06,0,.1-.01.06,0,.13-.02.19-.03.03,0,.06-.02.09-.02.06-.02.12-.04.18-.06.03-.01.06-.02.09-.04.18-.08.36-.18.56-.3.04-.03.08-.05.12-.08,0,0,0,0,0,0,.04-.03.09-.06.13-.09,0,0,.01,0,.02-.01.05-.03.09-.06.14-.09.04-.02.07-.05.11-.08.08-.05.15-.11.24-.16.12-.08.25-.17.39-.27.05-.03.09-.06.14-.09.07-.05.14-.09.21-.14,0,0,.02-.01.02-.02.01,0,.02-.01.03-.02,0,0,0,0,0,0,0,0-.01,0-.02.01Z"/><path class="cls-7" d="M6.21,21.43c-.59-.77-1.04-1.77-.75-2.69,0,0,0,0-.01,0-.05.03-.1.06-.14.09-.14.09-.27.18-.39.27-.08.06-.16.11-.24.16-.04.03-.08.05-.11.08-.05.03-.09.06-.14.09,0,0-.01,0-.02.01-.04.03-.09.06-.13.09,0,0,0,0,0,0,.13.24.28.53.44.85.03.06.06.12.1.19.03.06.07.13.1.19.03.06.07.13.1.19.02.03.03.07.05.1.03.07.07.13.1.2.03.07.07.13.1.2.02.03.03.07.05.1.03.07.07.13.1.2.04.07.07.13.11.2.04.07.07.13.1.19.05.1.1.19.16.28.03.06.07.12.1.18.02.03.03.06.05.09.07.12.13.23.2.34.03.05.06.11.09.16.03.05.06.1.09.15.03.05.06.09.09.13.03.04.06.08.08.12.03.04.05.08.08.11.13.17.24.28.32.31,0,0,.02,0,.03,0,0,0,0,0,0,0,0,0,.02,0,.03,0,0,0,0,0,0,0,.01,0,.02,0,.04,0,0,0,0,0,0,0,.01,0,.02,0,.03,0,0,0,0,0,.01,0,.01,0,.03,0,.04,0,0,0,0,0,0,0,.01,0,.03,0,.04-.01,0,0,0,0,.01,0,.01,0,.03-.01.04-.02,0,0,0,0,0,0,.02,0,.03-.01.05-.02,0,0,0,0,.01,0,.01,0,.03-.01.04-.02,0,0,0,0,.01,0,.02,0,.04-.02.05-.03,0,0,0,0,.01,0,.01,0,.03-.02.05-.03,0,0,0,0,.01,0,.02-.01.04-.02.06-.03,0,0,0,0,0,0,.02-.01.04-.02.06-.04,0,0,0,0,.01,0,.02-.01.04-.02.05-.04,0,0,0,0,0,0,.02-.01.04-.03.06-.04,0,0,0,0,.01,0,.02-.01.04-.03.05-.04,0,0,0,0,0,0,.02-.02.04-.03.06-.05,0,0,0,0,0,0,.02-.02.04-.03.06-.05,0,0,0,0,.01,0,.04-.03.09-.07.13-.11,0,0,0,0,0,0,.04-.04.09-.08.13-.11,0,0,0,0,0,0,.02-.02.04-.04.06-.06,0,0,0,0,0,0,.04-.04.09-.08.13-.12,0,0,0,0,0,0,.04-.04.08-.08.12-.12,0,0,0,0,0,0,.1-.11.2-.21.28-.31,0,0,0,0,0,0-.98-.01-1.91-.36-2.58-1.24Z"/><path class="cls-9" d="M14.64,11.61c1.78-.3,3.42-2.66,3.42-2.66.8.23,1.67.36,2.59.36,3.71,0,6.72-2.08,6.72-4.66S24.37,0,20.65,0s-6.72,2.09-6.72,4.66c0,1.47.98,2.78,2.52,3.63.5,2.01-1.82,3.33-1.82,3.33Z"/><path class="cls-2" d="M20.38,3.37l-.28,2.41h-.52s-.29-2.41-.29-2.41v-1.31s1.1,0,1.1,0v1.31ZM20.35,6.19v1.01s-1.04,0-1.04,0v-1.01s1.04,0,1.04,0Z"/><path class="cls-2" d="M22.03,3.32l-.28,2.41h-.52s-.29-2.41-.29-2.41v-1.31s1.1,0,1.1,0v1.31ZM22,6.14v1.01s-1.04,0-1.04,0v-1.01s1.04,0,1.04,0Z"/></svg>