<?xml version="1.0" encoding="UTF-8"?><svg id="Complications" xmlns="http://www.w3.org/2000/svg" viewBox="0 0 32 32"><defs><style>.cls-1{fill:none;}.cls-1,.cls-2,.cls-3,.cls-4,.cls-5,.cls-6{stroke-width:0px;}.cls-2{fill:#52707f;}.cls-3{fill:#91b5d6;}.cls-4{fill:#6d8fa0;}.cls-5{fill:#5b798c;}.cls-6{fill:#648693;}</style></defs><rect class="cls-1" width="32" height="32"/><polygon class="cls-3" points="10.46 24.94 10.41 24.9 13.96 22.1 14.01 22.14 10.46 24.94"/><polygon class="cls-3" points="14.35 23.52 10.43 23.07 10.44 23.01 14.36 23.46 14.35 23.52"/><polygon class="cls-3" points="10.46 22.5 10.41 22.47 12.79 20.58 12.84 20.62 10.46 22.5"/><polygon class="cls-3" points="13.02 20.93 10.43 20.63 10.44 20.58 13.03 20.87 13.02 20.93"/><polygon class="cls-3" points="22.88 22.13 20.6 21.96 20.61 21.91 22.89 22.08 22.88 22.13"/><polygon class="cls-3" points="22.85 23.99 20.57 20.07 20.64 20.05 22.92 23.97 22.85 23.99"/><polygon class="cls-3" points="22.88 24.57 20.6 24.4 20.61 24.35 22.89 24.51 22.88 24.57"/><polygon class="cls-3" points="22.85 26.43 20.57 22.5 20.64 22.48 22.92 26.41 22.85 26.43"/><polygon class="cls-3" points="18.06 22.99 18.03 22.94 20.37 22.32 20.4 22.37 18.06 22.99"/><polygon class="cls-3" points="20.25 24.19 17.93 23.12 17.97 23.07 20.29 24.14 20.25 24.19"/><polygon class="cls-3" points="20.25 21.75 19.21 21.28 19.25 21.23 20.29 21.71 20.25 21.75"/><path class="cls-5" d="M22.69,15.66v.77c-.48.61-1.34,1.05-2.2,1.35v-.2c.36-.13.69-.29,1.02-.48.7-.4,1.12-1,1.18-1.45Z"/><path class="cls-3" d="M11.11,2.61S15.44.57,15.44.57c-.34.17-.3.42.06.58.39.16,1,.16,1.38,0,.37-.16.37-.4.07-.56,1.42.67,2.84,1.34,4.26,2.01,0,0,1.46.62,1.77,1.56.15.46,0,.95-.3,1.36-1.7,2.3-9.23,2.78-12.36.61-1.5-1.03-1.37-2.49.78-3.5Z"/><path class="cls-3" d="M20.48,19.61v-1.83c.87-.3,1.72-.74,2.2-1.35,0,.01-2.2,3.17-2.2,3.18Z"/><path class="cls-3" d="M22.69,13.36v2.3c-.02.15-.08.3-.16.45-.31.55-.84,1.03-2.04,1.48v-2.3c.37-.14.7-.3,1-.47.71-.41,1.13-1,1.2-1.45Z"/><path class="cls-3" d="M22.69,11.06v2.3c-.02.16-.08.32-.18.48-.32.54-.86,1.01-2.02,1.44v-2.3c.35-.13.68-.29,1.02-.48.7-.41,1.12-1,1.18-1.45Z"/><path class="cls-3" d="M22.69,8.76v2.3c-.02.15-.08.3-.16.45-.31.54-.84,1.03-2.04,1.48v-2.3c.36-.14.7-.29,1.01-.48.71-.41,1.12-1,1.19-1.45Z"/><path class="cls-3" d="M22.69,6.46v2.3c-.02.15-.08.31-.16.45-.31.54-.84,1.02-2.04,1.47v-2.3c.36-.13.69-.29,1.01-.47.71-.41,1.12-1,1.19-1.45Z"/><path class="cls-3" d="M22.69,5.5v.96c-.02.16-.08.31-.17.46-.31.54-.85,1.02-2.03,1.46,0-1.63,0-1.51,0-1.52.88-.3,1.74-.74,2.2-1.37Z"/><path class="cls-5" d="M20.8,19.14v7.37l-.23.11v-7.15c.08-.11.15-.22.23-.33Z"/><path class="cls-5" d="M19.94,17.95c-1.59.45-3.45.56-5.17.41v-.15c1.73.16,3.62.03,5.17-.44v.18Z"/><path class="cls-3" d="M19.94,15.47v2.3c-1.56.47-3.45.61-5.17.44v-2.31c1.76.17,3.6.05,5.17-.44Z"/><path class="cls-3" d="M19.94,13.17v2.3c-1.58.49-3.41.61-5.17.44v-2.3c1.75.17,3.6.05,5.17-.44Z"/><path class="cls-3" d="M19.94,10.87v2.3c-1.57.49-3.42.61-5.17.44v-2.3c1.75.17,3.59.05,5.17-.44Z"/><path class="cls-3" d="M19.94,8.55v2.32c-1.58.49-3.42.61-5.17.44v-2.29c1.75.17,3.59.03,5.17-.46Z"/><path class="cls-3" d="M19.94,7.04v1.52c-1.58.49-3.42.63-5.17.46v-1.56c1.74.16,3.61.03,5.17-.41Z"/><path class="cls-2" d="M17.12.72c.1.13.05.3-.24.43-.38.16-.99.17-1.38,0-.39-.16-.4-.43-.03-.59.49-.22,1.42-.16,1.65.16Z"/><path class="cls-5" d="M15.11,24.25v1.69l-.33.03v-2.2c.11.16.22.32.33.48Z"/><path class="cls-3" d="M17.13,24.43c-.28.42-1.64.4-1.9,0-.02-.03-.46-.66-.46-.67v-5.4c1.72.15,3.58.04,5.17-.41v2.43c-.11.16-1.94,2.8-2.81,4.05Z"/><path class="cls-2" d="M14.68,7.44v24.11l.09-.14V7.45s-.06,0-.09,0Z"/><path class="cls-3" d="M10.33,17.36v-.34c1.06.76,2.5,1.11,3.95,1.29v4.74c-.15-.22-3.8-5.47-3.95-5.69Z"/><path class="cls-5" d="M14.28,18.16v.15c-1.45-.17-2.89-.53-3.95-1.29v-.31c.24.21.52.39.83.55.97.49,1.96.74,3.12.9Z"/><path class="cls-3" d="M14.28,15.86v2.3c-1.16-.15-2.15-.41-3.12-.9-.31-.16-.59-.34-.83-.55v-2.3c.24.21.52.39.83.55.97.49,1.96.74,3.12.9Z"/><path class="cls-3" d="M14.28,13.56v2.3c-1.16-.15-2.15-.41-3.12-.9-.31-.16-.59-.34-.83-.55v-2.3c.24.21.52.39.83.55.97.49,1.96.74,3.12.9Z"/><path class="cls-3" d="M14.28,11.26v2.3c-1.16-.15-2.15-.41-3.12-.9-.31-.16-.59-.34-.83-.55v-2.3c.24.21.52.39.83.55.97.49,1.96.74,3.12.9Z"/><path class="cls-3" d="M14.28,8.96v2.3c-1.16-.15-2.15-.41-3.12-.9-.31-.16-.59-.34-.83-.55v-2.3c.24.21.52.39.83.55.97.49,1.96.74,3.12.9Z"/><path class="cls-3" d="M14.28,7.4v1.56c-1.16-.15-2.15-.41-3.12-.9-.31-.16-.59-.34-.83-.55v-1.4c1.04.72,2.56,1.12,3.95,1.29Z"/><path class="cls-5" d="M10.5,17.6v9.73l-.17.13v-10.1c.05.08.11.16.17.24Z"/><path class="cls-2" d="M10.33,29.91l-.32.06V5.86c.1.09.21.17.32.25v23.8Z"/><path class="cls-3" d="M9.85,16.62v.06c-.39-.56-.19-.26,0-.06Z"/><path class="cls-5" d="M9.35,15.71c-.06-.38.08-.79.33-1.13v.92c0,.24.05.44.17.65v.47c-.26-.27-.45-.58-.5-.9Z"/><path class="cls-3" d="M9.68,13.19c0,.21.05.42.17.64v2.31c-.12-.2-.17-.41-.17-.65v-2.3Z"/><path class="cls-3" d="M9.68,13.19c0-2.33,0-2.3,0-2.3,0,.21.06.42.17.64v2.3c-.12-.21-.17-.43-.17-.64Z"/><path class="cls-3" d="M9.68,10.89s0,.03,0-2.3h0c0,.21.06.43.17.64v2.3c-.12-.21-.17-.43-.17-.64Z"/><path class="cls-3" d="M9.68,8.59s0,.03,0-2.3h0c0,.21.06.42.17.64v2.3c-.12-.21-.17-.43-.17-.64Z"/><path class="cls-3" d="M9.68,6.29h0v-.78c.05.07.11.13.17.2v1.22c-.12-.21-.17-.43-.17-.64Z"/><path class="cls-5" d="M20.48,17.78c.86-.35,1.66-.75,2.2-1.35-.43.62-1.32,1.09-2.2,1.35Z"/><path class="cls-2" d="M14.77,18.36c1.76.11,3.53,0,5.17-.41-1.57.49-3.49.6-5.17.41Z"/><path class="cls-5" d="M10.33,17.02c1.11.74,2.49,1.07,3.95,1.29-1.45-.13-2.95-.51-3.95-1.29Z"/><path class="cls-5" d="M9.68,13.19c.04.31.09.45.2.69-.15-.19-.23-.46-.2-.69Z"/><path class="cls-5" d="M10.33,14.41c.71.6,1.85,1.02,2.86,1.25.39.09.7.14,1.09.2-1.25-.15-2.21-.42-3.13-.88-.31-.16-.59-.34-.83-.56Z"/><path class="cls-5" d="M14.72,15.9c1.36.12,2.72.09,4.07-.15.42-.08.63-.14.98-.22.42-.12.43-.13,0,0-.26.07-.5.14-.97.24-1.2.23-2.6.3-4.07.13Z"/><path class="cls-5" d="M20.48,15.29c.86-.34,1.55-.73,1.97-1.39.14-.2.22-.43.24-.66,0,.45-.32.91-.71,1.24-.38.33-.98.62-1.5.8Z"/><path class="cls-5" d="M9.68,10.89c.04.33.11.48.22.72-.16-.2-.25-.48-.22-.72Z"/><path class="cls-5" d="M10.33,12.11c.7.59,1.84,1.02,2.86,1.25.39.09.7.14,1.09.2-1.27-.15-2.22-.43-3.13-.88-.31-.16-.59-.34-.83-.56Z"/><path class="cls-5" d="M14.71,13.6c1.93.15,3.55.07,5.38-.48-.53.17-.68.21-1.29.34-1.29.25-2.74.29-4.09.14Z"/><path class="cls-5" d="M20.48,12.99c.88-.35,1.57-.74,1.99-1.42.13-.21.22-.44.22-.67.01.46-.3.92-.7,1.27-.39.34-1,.63-1.52.82Z"/><path class="cls-5" d="M9.68,8.59c.04.34.11.49.23.74-.16-.2-.26-.49-.23-.74Z"/><path class="cls-5" d="M10.33,9.81c.71.6,1.85,1.02,2.86,1.25.38.09.7.14,1.09.2-1.27-.15-2.22-.43-3.13-.88-.31-.16-.59-.34-.83-.56Z"/><path class="cls-5" d="M14.71,11.3c1.38.12,2.73.09,4.07-.16.49-.09.72-.16.98-.23.42-.12.43-.13,0,0-.26.07-.46.13-.98.24-1.21.24-2.63.3-4.08.13Z"/><path class="cls-5" d="M20.48,10.69c.88-.35,1.57-.74,1.99-1.41.13-.21.22-.44.23-.67.01.46-.31.92-.7,1.27-.38.33-.98.63-1.51.81Z"/><path class="cls-5" d="M9.68,6.29c.04.35.12.5.22.72-.15-.2-.25-.48-.22-.72Z"/><path class="cls-5" d="M10.33,7.51c.71.6,1.85,1.02,2.86,1.25.39.09.7.14,1.09.2-1.26-.15-2.21-.43-3.13-.88-.31-.16-.59-.34-.83-.56Z"/><path class="cls-5" d="M14.71,9.01c1.74.15,3.35.05,5.05-.4.42-.12.43-.13,0,0-.52.15-.56.15-.97.24-1.32.26-2.76.3-4.08.15Z"/><path class="cls-5" d="M20.48,8.39c1.16-.46,1.67-.9,1.98-1.41.14-.21.22-.43.23-.66,0,.46-.31.92-.7,1.26-.38.33-.98.62-1.51.81Z"/><path class="cls-2" d="M19.94,7.04v23.92l.2.12V6.98c-.07.02-.14.04-.2.06Z"/><path class="cls-6" d="M14.28,7.4v24.1l.4.05V7.44c-.13-.01-.27-.03-.4-.04Z"/><path class="cls-4" d="M9.85,5.71v24.09l.16.16V5.86c-.06-.05-.11-.1-.16-.15Z"/><polygon class="cls-3" points="20.06 28.75 14.54 27.28 14.57 27.22 20.09 28.69 20.06 28.75"/><polygon class="cls-3" points="14.57 29.13 14.54 29.08 20.05 26.55 20.09 26.6 14.57 29.13"/><polygon class="cls-3" points="14.37 29.1 9.98 25.8 10.04 25.76 14.43 29.06 14.37 29.1"/><polygon class="cls-3" points="10.02 27.69 10.01 27.63 14.39 27.18 14.4 27.23 10.02 27.69"/><polygon class="cls-3" points="20.07 26.3 14.54 24.81 14.57 24.76 20.1 26.25 20.07 26.3"/><polygon class="cls-3" points="14.57 26.79 14.54 26.75 20.01 24.23 20.05 24.28 14.57 26.79"/><polygon class="cls-3" points="14.37 26.67 9.98 23.36 10.04 23.33 14.43 26.63 14.37 26.67"/><polygon class="cls-3" points="10.02 25.25 10.01 25.2 14.39 24.74 14.4 24.79 10.02 25.25"/><polygon class="cls-3" points="20.52 26.2 20.45 26.18 22.77 22.26 22.84 22.29 20.52 26.2"/><polygon class="cls-3" points="20.49 24.34 20.48 24.28 22.8 24.13 22.81 24.18 20.49 24.34"/><polygon class="cls-3" points="20.47 28.72 20.4 28.7 22.77 24.7 22.84 24.72 20.47 28.72"/><polygon class="cls-3" points="20.49 26.78 20.48 26.72 22.8 26.56 22.81 26.62 20.49 26.78"/><path class="cls-2" d="M23.03,28.85h-.35V5.5c.2-.26.32-.56.35-.85.02,25.87.02,23.94,0,24.2Z"/><path class="cls-5" d="M9.68,5.51c.34.43.9.79,1.48,1.05,3.03,1.38,8.29,1.17,10.74-.4.79-.5,1.3-1.28,1.08-2.02h.01c.18.5,0,1.04-.35,1.48-.35.44-.93.78-1.52,1.05-3.72,1.62-9.9.85-11.44-1.16h0Z"/><path class="cls-5" d="M15.38,1.09c-1.06,1.11-3.8,3.85-5.05,5.02,1.06-1.11,3.81-3.85,5.05-5.02Z"/><path class="cls-5" d="M14.77,7.45c.2-1.35.82-4.73,1.15-6.2-.2,1.35-.82,4.73-1.15,6.2Z"/><path class="cls-5" d="M19.18,7.18c-.62-1.28-2.07-4.51-2.65-5.94.62,1.28,2.07,4.52,2.65,5.94Z"/><path class="cls-5" d="M22.69,5.5c-1.24-.96-4.27-3.43-5.56-4.54,1.24.96,4.27,3.43,5.56,4.54Z"/><path class="cls-4" d="M20.48,6.87c-.11.04-.22.07-.33.11v24.1l.34-.1c0-24.64,0-24.1,0-24.1Z"/></svg>