<?xml version="1.0" encoding="UTF-8"?>
<svg id="how_to_prevent" data-name="how to prevent" xmlns="http://www.w3.org/2000/svg" version="1.1" viewBox="0 0 32 32">
  <defs>
    <style>
      .cls-1 {
        fill: none;
      }

      .cls-1, .cls-2, .cls-3 {
        stroke-width: 0px;
      }

      .cls-2 {
        fill: #85a5c3;
      }

      .cls-3 {
        fill: #91b5d6;
      }
    </style>
  </defs>
  <rect class="cls-1" y="0" width="32" height="32"/>
  <path class="cls-3" d="M17,16.4s.6,1.9,1.2,2.2.5-7.8,5-10.6c0,0-1.6,4.9-.2,6.6,0,0,0-2.8,2.1-3.7,0,0,.4,3.2,2.8,6.4,2.4,3.1,3.2,6,2.7,8.3-.5,2.3-2.6,5.5-6.7,5.6-4.1.1-6.9-2.1-7.9-4.9-1-2.8-1.2-7.3,1-9.9Z"/>
  <path class="cls-2" d="M20.7,22.2s-.6,3.5,1.8,3.8,2.9-2.4,2.5-3.8-1.4-2.9-.4-4.6c0,0-.3,1.6.8,2.9s2.4,4,1,7c0,0,.9-1.2.9-1.7s.3,5.5-4.3,5.4c-4.6,0-6.1-7.8-2.4-9h0Z"/>
</svg>