<?xml version="1.0" encoding="UTF-8"?>
<svg id="Livello_2" data-name="Livello 2" xmlns="http://www.w3.org/2000/svg" viewBox="0 0 801.52 872.44">
  <defs>
    <style>
      .cls-1 {
        fill: #fad4c4;
      }

      .cls-2 {
        fill: #fff;
      }

      .cls-3 {
        fill: #e5b9a6;
      }

      .cls-4 {
        fill: #c46767;
      }

      .cls-5 {
        fill: #82b9d9;
      }
    </style>
  </defs>
  <g id="Livello_1-2" data-name="Livello 1">
    <g>
      <path class="cls-2" d="M435.7,872.44c-9,0-18.21-.38-28.17-1.17-73.44-5.81-147.67-26.31-226.93-62.67-41.29-18.94-76.96-40.04-109.05-64.49-20.51-15.62-36.06-30.31-48.93-46.21-3.06-3.79-5.63-7.69-7.89-11.14-2.08-3.16-4.04-6.15-6-8.48-10.91-12.9-8.92-26.97-7.85-34.53,2.39-16.94,8.6-31.9,14.35-44.3,18.17-39.15,42.54-73.98,72.41-103.52,9.24-9.14,18.37-16.79,27.73-23.22,1.31-3.02,2.65-5.99,3.96-8.88,1.63-3.61,3.17-7.01,4.63-10.45,2.99-7.02,5.44-13.16,7.5-18.77,3.9-10.63,7.69-21.35,11.26-31.88,.89-2.61,1.75-5.14,2.44-7.53-4.48-9.96-6.67-20.57-6.54-31.67-8.76-10.77-15.91-23.29-21.26-37.26-6.04-15.78-9.69-32.83-10.84-50.7-2.97-46.19,8.92-90.85,35.33-132.76,28-44.43,66.02-76.56,112.98-95.48,22.8-9.19,45.95-13.88,68.8-13.95,2.07-3.17,4.13-6.13,6.02-8.82,2.6-3.69,5.81-7.02,9.31-9.62,4.03-3.01,8.03-4.04,10.18-4.6,.12-.03,.24-.06,.36-.09L379.89,0s-1.55,11.35-1.55,11.35c1.99-.22,4.25-1.47,6.24-1.97,8.77-2.23,17.91-2.66,26.91-2.18,4.37,.23,8.7,.77,13.05,1.26,1.54,.17,12.37,2.31,13.08,1.36,0,0-11.11,16.56-11.11,16.56l-10.52,17.31c-.6,.34-1.18,.7-1.77,1.08,16.12,5.64,31.97,13.81,48.02,24.72,39.08,26.56,70.27,61.06,92.7,102.54,.22,.41,.35,.56,.36,.57,0,0,.21,.17,.85,.47,8.24,3.9,15.69,5.8,22.79,5.8,2.12,0,4.26-.17,6.36-.51,.53-.17,1.71-.67,2.59-1.05,1.33-.57,2.83-1.21,4.54-1.83l.16-.06c1.61-.62,4.97-1.91,9.37-1.91,1.8,0,3.59,.22,5.31,.65,7.24,1.81,15.22,8.28,16,21,.23,3.8,.49,8.09,.43,12.62-.06,4.75-.6,8.69-1.69,12.4-6.14,20.74-18.13,38.75-35.65,53.55-9.89,8.35-20.78,14.79-32.54,19.24,1.5,18.51-.23,36.82-5.15,54.57-4.76,17.16-10.32,32.19-16.97,45.9,6.18,18.94,10.01,39.42,12.4,66.26,.66,7.4-.14,15.32-2.54,24.9-1.3,5.22-3.34,9.76-6.03,13.58,.99-.08,1.98-.12,2.98-.12,5.83,0,11.67,1.33,17.34,3.96,16.21,7.5,30.45,18.65,42.33,33.12,23.55,28.69,35.77,61.65,36.34,97.98v.69s-.03,.69-.03,.69c-.06,1.17-.11,2.35-.15,3.52-.13,3.3-.27,7.05-.76,10.97-.63,5.02-2.57,8.82-3.73,11.09-.13,.26-.27,.52-.39,.78-.78,1.64-1.63,2.95-2.29,3.87-3.61,7.61-8.79,14.3-16.13,20.82-2.49,2.95-5.17,5.57-8.02,7.85-1.42,5.3-3.1,10.74-5.08,16.47-1.38,3.97-2.98,7.83-4.79,11.53,1.61,5.13,2.96,10.42,4.04,15.81,3.22,16.11,2.35,31.71-2.59,46.37-6.9,20.48-20.75,35.19-40.17,42.73-6.02,10.66-15,19.38-27.37,26.59-12.64,7.37-27.09,12.35-45.46,15.67-14.52,2.62-29.53,3.9-45.9,3.9Zm-102.71-258.86c9.9,10.92,20.29,22.73,32.16,36.56,11.87,13.83,26.85,25.24,45.5,34.62,1.53-6.66,3.91-13.05,7.14-19.13,4.68-8.81,11.13-16.39,19.7-23.15,.61-.48,1.23-.95,1.86-1.4-1.5-9.37-2.3-18.31-2.42-26.99-4.72,5.09-10.33,9.53-16.8,13.3-8.59,5.01-17.64,7.56-26.88,7.56-8.01,0-16-1.92-23.75-5.72-13.68-6.69-23.87-14.01-32.07-23.01-.83-.91-1.65-1.82-2.47-2.72-.52,2.39-1.04,4.78-1.54,7.15-.17,.81-.31,1.82-.43,2.93Z"/>
      <g>
        <path class="cls-2" d="M777.55,549.52l-1.09-.26c-.41-.1-.91-.21-1.49-.33-1.84-.4-4.37-.94-6.96-1.72-9.59-2.91-19.31-5.91-28.72-8.8-19.76-6.09-40.19-12.39-60.35-18.16-10.55-3.02-21.63-5.44-32.35-7.77-5.13-1.12-10.44-2.27-15.67-3.49-2.31-.54-4.8-1.16-7.37-2.07-7.33-2.6-11.5-9.12-10.38-16.22,1.14-7.24,7.14-12.11,14.92-12.11,.34,0,.69,0,1.04,.03l2,.1c6.78,.35,13.79,.71,20.76,1.4,37.64,3.71,75.65,10.76,112.99,20.94,7,1.91,13.69,4.36,18.74,6.29,3.3,1.26,6.63,3.22,9.9,5.84,7.13,5.71,9.82,15.08,6.69,23.32-3.1,8.16-11.04,13.04-21.24,13.04h-1.43Z"/>
        <path class="cls-4" d="M778.77,539.53c-1.7-.4-4.83-.97-7.86-1.89-29.73-9.02-59.35-18.46-89.21-27.01-15.95-4.57-32.33-7.63-48.5-11.39-2.12-.49-4.24-1.03-6.29-1.76-2.83-1.01-4.2-3.01-3.85-5.24,.38-2.4,2.3-3.82,5.56-3.65,7.44,.39,14.89,.74,22.3,1.47,37.7,3.72,74.81,10.67,111.34,20.63,6.03,1.65,11.96,3.75,17.81,5.98,2.58,.98,5.04,2.56,7.21,4.3,3.9,3.13,5.15,7.86,3.59,11.97-1.56,4.11-5.66,6.65-12.11,6.59Z"/>
        <path class="cls-2" d="M625.45,379.16c-3.75,0-7.22-1.74-9.53-4.78-3.56-4.68-2.94-11.4-.55-15.35,.46-.77,.93-1.54,1.39-2.31,2.66-4.44,5.4-9.03,9.07-13.29,11.7-13.6,23.21-26.87,35.45-39.82,12.98-13.73,26.47-27.33,39.52-40.48,3.27-3.3,6.55-6.6,9.82-9.91,2.93-2.96,6.26-5.78,10.2-8.62,3.87-2.79,8.29-4.26,12.8-4.26,2.43,0,4.87,.42,7.25,1.26,7.5,2.63,12.65,9.44,13.78,18.21l.36,2.82-1.17,2.59c-.28,.62-.57,1.36-.88,2.15-.91,2.31-2.04,5.18-4.05,7.9-3.27,4.4-6.8,8.25-10.49,11.43-10.3,8.89-20.83,17.84-31.01,26.49-7.29,6.2-14.59,12.4-21.86,18.63-10.65,9.12-21.45,18.45-31.89,27.47-5.04,4.36-10.09,8.72-15.13,13.07l-.6,.52c-1.09,.94-2.33,2.02-3.69,3.04-2.9,2.18-5.78,3.24-8.78,3.24Z"/>
        <path class="cls-4" d="M744.72,261.09c-1.25,2.76-2.08,5.83-3.85,8.21-2.64,3.55-5.65,6.93-8.99,9.82-17.53,15.13-35.25,30.03-52.84,45.1-15.73,13.47-31.36,27.04-47.05,40.57-1.24,1.07-2.46,2.16-3.77,3.14-1.36,1.02-3.15,1.98-4.35,.41-.67-.89-.59-3.06,.04-4.1,2.96-4.88,5.79-9.96,9.49-14.26,11.49-13.35,23.04-26.68,35.14-39.47,16.1-17.02,32.7-33.57,49.18-50.23,2.73-2.76,5.78-5.26,8.94-7.54,3.24-2.34,6.98-3.04,10.89-1.68,4.01,1.41,6.56,5.28,7.17,10.05Z"/>
        <path class="cls-2" d="M661.15,436.53c-.81,0-1.61-.05-2.39-.14-4.03-.5-9.14-3.13-11.48-7.88-.83-1.68-4.42-10.38,6.12-16.62l.1-.06c16.75-9.94,35.34-17.35,55.26-22.02,14.61-3.42,29.16-8.06,44.49-14.18,2.9-1.16,5.8-1.92,7.73-2.42,.53-.14,.98-.25,1.34-.36l1.38-.41h1.44c13.81,0,18.92,7.51,20.74,11.99,3.35,8.25,.74,17.4-6.5,22.77-3.74,2.77-8.21,5.17-12.93,6.94-12.46,4.66-26.46,7.91-44.07,10.22-16.05,2.11-33.19,5.63-53.94,11.1-1.9,.5-4.45,1.08-7.29,1.08Z"/>
        <path class="cls-4" d="M765.16,382.43c6.38,0,9.98,2.13,11.46,5.76,1.51,3.71,.57,8.18-3.19,10.97-3.15,2.34-6.79,4.23-10.48,5.61-13.51,5.06-27.62,7.8-41.87,9.67-18.68,2.45-37,6.55-55.19,11.34-1.91,.5-3.99,.92-5.9,.68-1.36-.17-3.16-1.21-3.73-2.37-.89-1.8,.88-2.79,2.35-3.66,16.38-9.72,33.9-16.54,52.43-20.88,15.68-3.67,30.95-8.66,45.92-14.63,3.17-1.27,6.55-1.99,8.21-2.48Z"/>
      </g>
      <path class="cls-1" d="M492.91,487.76c-1.12,2.93-2.25,5.76-3.26,8.62-1.15,3.25-2.02,6.6-3.32,9.78-1.38,3.38-2.51,3.83-5.89,2.88-1.56-.44-3.18-.9-4.58-1.69-10.5-6.03-20.62-3.77-30.48,1.52-1.97,1.05-3.66,3.03-4.9,4.95-2.13,3.3-1.63,7.35,1.38,9.84,3.04,2.51,6.47,4.59,9.87,6.62,2.01,1.2,4.3,1.92,6.45,2.89,3.17,1.43,5.11,3.99,6.33,7.15,1.3,3.4,.8,6.22-2.32,8.09-2.89,1.73-6.19,3.27-9.47,3.73-7.29,1.04-11.89,5.03-14.63,11.5-1.77,4.17-3.02,8.57-4.92,12.68-2.81,6.07-5.79,12.08-9.09,17.9-2.73,4.82-6.95,8.3-11.72,11.15-2.91,1.74-5.53,3.94-8.43,5.69-1.15,.69-2.73,1.1-4.06,.99-10.24-.92-20.23-3.12-28.68-9.2-11.48-8.28-22.67-16.97-31.85-27.96-4.61-5.52-9.64-10.71-14.79-16.4-.27,1.15-.55,2.26-.8,3.38-3.33,14.87-6.74,29.73-9.91,44.63-.86,4.04-.96,8.25-1.53,12.36-.13,.97-.6,2.53-1.19,2.67-1.02,.24-2.26-.38-3.37-.73-.3-.09-.49-.52-.72-.79-22.44-25.66-47.65-48.3-74.61-69.06-13.38-10.3-26.59-20.84-40.22-30.79-14.49-10.59-28.85-21.55-46.15-27.43-4.56-1.55-9.29-2.6-14.73-4.1,.43-1.71,.7-3.97,1.56-5.99,3.06-7.18,6.43-14.23,9.48-21.41,2.77-6.51,5.43-13.07,7.87-19.71,3.94-10.73,7.75-21.52,11.43-32.34,1.75-5.15,3.52-10.36,4.43-15.69,1.02-5.97,4.19-10.49,7.94-14.81,2.49-2.87,5.66-4.58,9.48-4.71,2.16-.07,4.55-.29,6.46,.5,6.02,2.48,10.24,.14,14.48-3.99,6.37-6.2,13.07-12.07,19.72-17.99,12.73-11.32,27.78-18.01,44.48-20.12,9.1-1.15,18.48-.43,27.7-.04,10.5,.44,20.98,1.46,31.48,2.23,5.24,.38,9.49-1.31,12.96-5.45,5.48-6.54,11.58-12.59,16.76-19.35,5.29-6.89,10.36-14.06,14.52-21.66,11.55-21.11,26.02-39.76,44.15-55.6,11.66-10.18,24.63-17.91,39.66-21.92,8.8-2.34,17.58-2.19,26.34,.38,12.84,3.77,24.48,10.04,35.61,17.31,2.08,1.36,3.75,3.4,5.52,5.21,2.69,2.76,3.61,5.73,1.18,9.28-.6,.88-.55,2.35-.46,3.52,.9,12.88,3.64,25.47,5.83,38.15,.8,4.63,1.04,9.38,1.14,14.09,.15,6.88,0,13.77-.16,20.65-.05,2.16-.42,4.35-.92,6.46-2.54,10.58-5.07,21.17-7.81,31.7-2.54,9.73-6.82,18.79-11.98,27.34-2.39,3.96-2.75,7.64-1.65,11.91,3.39,13.18,6.83,26.35,9.9,39.61,2.84,12.24,3.98,24.71,4.07,37.29,.04,5.06-1.86,9.4-5.02,12.9-3.34,3.69-8.4,4.03-13.04,3.85-3.54-.14-7.03-1.45-11.5-2.45Z"/>
      <g>
        <path d="M405.95,26.39c-12.45,7.22-21.27,17.79-28.86,29.9,4.85,.88,9.31,1.54,13.7,2.52,21.93,4.94,41.74,14.66,60.21,27.21,36.52,24.82,65.36,56.7,86.35,95.51,2.55,4.72,5.84,7.52,10.24,9.61,13.08,6.19,26.76,9.32,41.23,6.9,3.58-.6,6.93-2.51,10.41-3.76,1.05-.38,2.26-.96,3.21-.73,.5,.13,.81,1.81,.87,2.81,.22,3.72,.44,7.44,.4,11.16-.03,2.33-.22,4.75-.88,6.97-5.23,17.68-15.29,32.04-29.37,43.94-12.86,10.86-27.45,17.65-43.88,20.48-16.91,2.91-32.12-1.71-45.42-12.17-6.68-5.25-12.7-11.37-18.79-17.33-4.3-4.21-8.35-8.67-14.14-10.83-7.13-2.66-13.54-1.54-19.09,3.88-6.57,6.42-11.92,13.84-15.88,22.01-6.41,13.21-12.11,26.78-18.05,40.22-6.78,15.36-13.59,30.71-20.22,46.14-6.53,15.2-16.56,27.9-27.96,39.63-5.62,5.78-10.66,12.21-17.71,16.49-.41,.25-.55,.95-.96,1.22-.94,.63-1.96,1.12-2.95,1.67-.45-1.06-1.23-2.11-1.29-3.19-.4-6.68,.22-13.54-1.09-20.02-3.58-17.67-12.56-32.23-27.62-42.54-7.15-4.9-15.09-7.81-23.93-6.03-8.67,1.74-14.18,7.44-17.41,15.39-4.65,11.48-3.85,23.11-.35,34.7,4.18,13.83,11.92,25.39,22.49,35.15,.8,.74,1.39,1.7,2.29,2.84-6.38,2.21-12.08,4.96-18.1,6.14-36.6,7.17-67.68-2.55-91.6-31.73-9.63-11.75-14.25-25.69-13-41.08,.28-3.43-1.67-4.95-3.43-7.03-8.42-9.95-14.7-21.18-19.35-33.3-5.53-14.42-8.56-29.4-9.56-44.82-2.82-43.92,9.07-83.97,32.29-120.82,25.23-40.03,59.4-69.81,103.54-87.59,22.16-8.93,45.18-13.48,69.16-12.33,2.53,.12,3.73-.75,5-2.93,2.91-5.01,6.21-9.81,9.54-14.56,1.34-1.91,3.03-3.7,4.89-5.08,1.3-.97,3.18-1.17,4.8-1.72-.19,1.43-.21,2.91-.62,4.27-1.64,5.46-3.44,10.88-5.09,16.34-.36,1.19-.34,2.49-.6,4.65,1.19-1.2,1.82-1.85,2.46-2.48,13.88-13.62,30.31-22.59,49.29-26.83,1.37-.31,2.86-.04,4.3-.04,.17,.4,.34,.8,.5,1.2Z"/>
        <path d="M453.77,317c3.43,1.08,6.96,1.91,10.26,3.3,3.83,1.63,7.5,3.67,11.15,5.68,3.91,2.16,7.16,5.12,8.66,9.43,3.09,8.91,6.05,17.86,8.87,26.86,.57,1.83,.61,4.02,.22,5.91-.29,1.4-1.44,3.28-2.62,3.66-1.19,.39-3.23-.44-4.3-1.4-1.52-1.35-2.73-3.19-3.65-5.03-3.11-6.25-6.61-12.39-8.87-18.95-2.97-8.62-8.55-14.56-16.04-19.16-2.32-1.42-4.57-2.97-6.93-4.31-1.45-.82-2.93-1.87-2.23-3.49,.42-.96,2.2-1.41,3.43-1.92,.54-.22,1.26-.04,1.89-.04,.05-.18,.11-.37,.16-.55Z"/>
      </g>
      <g>
        <path class="cls-3" d="M280.08,434.68c.07,.87,.29,1.77,.18,2.62-1.51,11.71-2.69,23.48-4.73,35.1-1.9,10.84-.54,20.54,6.65,29.17,6.97,8.37,13.75,16.91,20.71,25.3,13.8,16.64,27.5,33.37,41.55,49.8,9.75,11.41,21.23,20.88,34.56,27.93,2.08,1.1,4.26,2.01,6.4,3,9.91,4.6,19.16,3.14,27.44-3.62,4.04-3.3,7.67-7.2,11.02-11.21,2.3-2.75,3.42-6.16,3.94-9.94,1.26-9.25,3.77-18.07,10.23-25.38,4-4.54,8.49-7.84,14.51-8.94,2.13-.39,4.22-.99,6.29-1.63,2.72-.84,3.26-3.04,3.45-5.57,.19-2.55-.86-4.25-3.1-5.17-2.34-.96-4.92-1.44-7.14-2.61-3.8-2.02-7.74-4.03-11.01-6.77-4.33-3.63-4.82-8.08-2.49-13.35,4.68-10.57,16.81-15.5,28.47-11.51,4.46,1.53,8.84,3.27,13.29,4.81,1.32,.46,2.76,.59,4.13,.87,1.81-6.22,3.51-12.09,5.4-18.59-4.18-2.32-8.94-4.97-13.7-7.62,3.77-1.29,6.61,.35,9.39,1.7,7.36,3.56,15.07,4.97,23.2,4.97,3.49,0,5.82-1.27,7.76-4,3.54-4.97,5.03-10.72,4.6-16.51-.71-9.57-1.87-19.16-3.73-28.56-2.73-13.88-6.24-27.61-9.41-41.41-.08-.35-.01-.8-.21-1.06-3.48-4.64-1.12-8.84,.97-13.05,7.7-15.51,13.67-31.65,17.89-48.44,3.45-13.71,4.31-27.6,3.14-41.66-.26-3.08-.61-6.15-.68-9.24-.03-1.25,.59-2.52,.93-3.83,3.15,.86,2.53,3.07,2.77,4.68,2.88,19.3,1.85,38.36-3.38,57.22-4.14,14.92-9.28,29.44-16.09,43.33-2.22,4.53-2.45,8.58-.85,13.45,6.69,20.28,9.83,41.33,11.72,62.51,.54,6-.54,12.37-2.02,18.28-2.37,9.49-7.53,12.77-17.18,12.12-3.42-.23-6.82-.82-10.45-1.27-2.87,3.7-3.55,8.21-4.45,12.61-1.47,7.15-3.14,8.62-10.43,7.44-4.25-.69-8.42-2.14-12.49-3.61-4.6-1.67-9.12-2.36-13.82-.63-4.68,1.72-8.03,4.87-9.98,9.46-1.2,2.81-.96,5.55,1.64,7.31,2.96,2.01,6.18,3.69,9.39,5.28,2.26,1.12,4.86,1.58,7.05,2.81,6.83,3.83,6.84,14.53,.05,18.54-1.69,1-3.62,1.78-5.54,2.17-13.07,2.62-19.33,11.81-21.62,23.77-2.94,15.34-10.96,26.61-24.26,34.37-10.37,6.05-21.03,6.4-31.76,1.15-9.68-4.74-18.79-10.51-26.08-18.51-11.25-12.35-22.17-25.01-33.03-37.72-10.85-12.71-21.49-25.61-32.12-38.5-3.12-3.78-5.85-7.88-8.89-11.72-6.82-8.62-9.32-18.28-7.48-29.14,1.91-11.28,3.6-22.6,5.56-33.87,.44-2.55,1.6-4.97,2.43-7.45,.46,.11,.92,.21,1.39,.32Z"/>
        <path class="cls-3" d="M447.53,387.12c5.58-5.14,12.13-2.4,16.93-5.71-2.12-4.42-4.49-8.71-6.27-13.23-1.77-4.51-3.1-9.22-4.28-13.93-.27-1.06,.88-2.47,1.37-3.72,1.14,.7,2.79,1.12,3.34,2.13,7.1,13.13,16.65,24.56,25.16,36.71,.41,.59,1.06,1.18,1.14,1.82,.16,1.32,.41,2.91-.17,3.93-.36,.62-2.28,.69-3.38,.46-6.54-1.36-13.04-2.94-19.58-4.33-3.18-.68-6.44-1.01-9.6-1.75-1.37-.32-2.58-1.29-4.66-2.38Z"/>
        <path class="cls-3" d="M305.18,402.33c-3.23,1.13-3.96-.94-4.88-2.69-1.26-2.4-2.25-4.99-3.8-7.18-3.02-4.26-7.04-6.76-12.57-5.58-1.54,.33-3.08,.36-3.52-1.46-.48-1.99,.95-3.3,2.61-3.45,2.63-.23,5.35-.07,7.97,.31,1.48,.22,2.85,1.22,4.9,2.15-1.26-7.23-3.46-13.1-9.12-17.2-5.77-4.17-11.66-4.2-17.69-.19,.03-3.81,1.74-6.04,5.38-6.92,3.78-.92,7.58-.79,11.16,.92,5.56,2.66,10.01,6.53,12.53,12.29,3.74,8.53,5.8,17.52,7.25,26.68,.11,.67-.13,1.4-.22,2.31Z"/>
      </g>
      <path class="cls-5" d="M428.65,713.11c0-4.94-.11-8.74,.02-12.53,.32-9.03,2.54-17.59,6.78-25.58,3.55-6.68,8.48-12.14,14.43-16.83,7.4-5.84,16.1-6.95,24.99-7.8,15.89-1.51,30.65,1.86,44.42,9.86,31.46,18.27,51.13,45.08,58.29,80.86,2.43,12.14,2.05,24.24-1.93,36.06-5.21,15.44-15.38,26.14-30.9,31.36-3.18,1.07-5.08,2.68-6.57,5.72-4.64,9.43-12.23,16.13-21.18,21.35-12.08,7.04-25.3,10.8-38.95,13.26-22.86,4.13-45.9,4.29-68.94,2.47-77.29-6.11-150.07-28.75-220.17-60.91-37.22-17.08-72.62-37.34-105.27-62.22-16.67-12.7-32.29-26.56-45.5-42.89-5.12-6.33-8.92-13.74-14.16-19.95-5.01-5.93-4.26-12.18-3.32-18.82,1.93-13.65,6.95-26.31,12.69-38.68,16.99-36.61,39.61-69.32,68.33-97.72,9.45-9.34,19.59-17.84,30.94-24.86,2.59-1.6,4.95-2.17,7.67-1.24,5.14,1.75,10.39,3.28,15.3,5.54,14.56,6.72,27.87,15.59,40.84,24.94,32.22,23.23,61.39,49.96,89.3,78.15,22.38,22.61,43.5,46.35,64.22,70.49,18.63,21.7,42.2,36.4,68.46,47.04,2.97,1.2,6.19,1.78,10.21,2.91Z"/>
      <path class="cls-1" d="M614.53,633.42c-.23,4.36-.25,8.74-.79,13.05-.25,2-1.46,3.91-2.36,5.8-.46,.96-1.34,1.73-1.76,2.71-4.31,9.93-12.32,16.46-20.72,22.58-1.98,1.44-3.25,2.77-3.87,5.39-1.62,6.87-3.67,13.66-5.98,20.34-3.42,9.87-8.49,18.89-15.62,26.59-9.48,10.23-20.97,15.37-35.13,13.11-7.14-1.14-13.42-4.36-19.27-8.46-9.03-6.34-16.33-14.37-22.53-23.44-12.69-18.57-20.32-39.24-25.09-61.06-2.95-13.51-4.73-27.18-4.45-41.07,.06-2.99,.51-5.68,1.81-8.37,7.93-16.46,18.05-31.47,29.63-45.55,7.64-9.29,15.8-18.1,25.46-25.26,5.06-3.75,10.62-6.96,16.29-9.73,5.58-2.72,11.37-2.64,17.31,.11,13.97,6.47,25.62,15.9,35.28,27.66,20.37,24.82,31.3,53.3,31.81,85.6Z"/>
      <path class="cls-3" d="M584.59,559.92c.39,1.84,1.04,3.66,1.12,5.51,.51,12.01-2.07,23.56-6.57,34.52-3.78,9.2-7.82,18.39-14.34,26.17-3.35,3.99-7.04,7.33-12.34,8.37-3.13,.62-4.96,2.58-6.19,5.47-2.05,4.81-4.48,9.49-3.46,15.1,6.28,2.29,12.07,2.69,18.7,1.26,13.31-2.86,22.2-10.7,29.22-21.66,5.53-8.63,10.27-17.54,12.25-27.71,.17-.86,.48-1.78,1-2.46,.37-.49,1.31-1.01,1.8-.86,.73,.22,1.71,.95,1.82,1.59,.24,1.38,.28,2.94-.11,4.27-1.37,4.69-2.49,9.54-4.57,13.92-2.88,6.05-6.29,11.88-9.92,17.51-4.52,7.02-10.81,12.28-18.45,15.62-3.45,1.51-4.99,3.74-5.24,7.37-.34,5.02-.94,10.02-1.42,15.04,4.2,1.8,7.55,1.77,11.1,.12,5.63-2.61,11.01-5.52,15.51-9.89,1.1-1.07,2.53-1.8,4.58-2.08-.33,.86-.5,1.85-1.02,2.57-4.54,6.36-10.24,11.28-17.91,13.42-2.22,.62-4.6,.98-6.91,.94-6.72-.1-8.72-2.29-8.22-9.03,.26-3.42,1-6.81,1.57-10.21,.29-1.73,.66-3.45,1.14-5.91-2.86,.61-5.16,.92-7.34,1.59-6.51,2-12.54,0-18.55-2.1-2.22-.78-2.95-2.79-2.53-4.89,.73-3.71,1.63-7.4,2.75-11.01,.58-1.87,1.76-3.56,2.93-5.82-1.73-.47-3.29-.9-5.12-1.39-3.32,23.65-6.95,46.94-24.46,64.93,.28-3.92,2.93-6.83,4.61-10.15,1.8-3.56,3.99-6.96,5.49-10.64,1.49-3.68,2.37-7.61,3.45-11.45,1.08-3.84,2.23-7.68,3.07-11.57,.84-3.89,1.45-7.85,1.94-11.8,.49-3.96,.75-7.95,1.02-11.94,.27-3.96,.42-7.93,.64-12.18-3.04-.61-5.85-1.09-8.62-1.75-9.31-2.22-17.8-6.19-25.3-12.17-1.42-1.13-2.5-2.7-3.92-4.27,2.76-1.61,4.14,.04,5.65,.76,5.07,2.43,10.01,5.14,15.14,7.42,6.72,2.98,13.78,4.47,21.19,3.97,10.01-.67,15-7.4,12.67-17.17-1.82-7.6-5.63-14.16-10.77-19.93-9.46-10.63-20.85-18.52-34.09-23.75-1.55-.61-2.99-1.52-4.48-2.29,1.65-3.53,3.64-2,5.38-1.39,10.07,3.5,19.04,8.89,27.1,15.84,2.31,1.99,4.56,4.06,7.16,6.38,2.27-5.66,3.62-11.07,3.97-16.66,.34-5.43,.07-10.9,.36-16.33,.29-5.52-3.32-10.51-2.7-17.17,3.78,2.47,4.93,5.45,5.17,8.29,.6,7.03,.88,14.11,.77,21.16-.12,7.9-2.74,15.31-5.8,22.82,1.71,2.26,3.5,4.5,5.16,6.85,3.79,5.38,7.06,11,7.92,17.71,1.44,11.19-3.41,18.26-14.3,20.81-.88,.21-1.79,.28-3.45,.53,0,2.41-.08,4.88,.02,7.35,.16,4.01,2.57,6.29,6.36,5.27,5.39-1.45,10.77-3.03,14.49-7.92,7.46-9.82,12.59-20.81,16.08-32.51,2.75-9.22,4.54-18.7,4.55-28.43,0-1.36,.86-2.73,1.32-4.09,.66,.05,1.32,.09,1.97,.14Z"/>
    </g>
  </g>
</svg>