<?xml version="1.0" encoding="UTF-8"?>
<svg id="Symptoms" xmlns="http://www.w3.org/2000/svg" viewBox="0 0 32 32">
  <defs>
    <style>
      .cls-1 {
        fill: #fff;
      }

      .cls-2 {
        fill: #946666;
      }

      .cls-3 {
        fill: #d99898;
      }

      .cls-4 {
        fill: #b37c7c;
      }

      .cls-5 {
        fill: #deadad;
      }

      .cls-6 {
        fill: #c98d8d;
      }
    </style>
  </defs>
  <g id="ic_swelling_liver">
    <path class="cls-1" d="m30.7,11.07c.26,1.28-3.77,1.5-5.06,2.29-3.04,1.61-1.35,3.04-4.21,4.47-.81.29-1.61.38-2.38.96s-2.89,1.14-3.67,1.5-1.91,1.84-2.75,1.95c-1.49.21-3.25,2.66-4.51,4.55-.31.49-2.05.73-2.75.18s-1.14-1.8-1.15-2.69.08-2.99-.76-5.63c-.26-.82-.86-4.05-.3-5.46,1.29-3.25,3.66-5.53,5.26-6.09,2.36-.82,4.84-1,7.15-.89,0,0,1.55.04,2.22.35.66.3.89.22,1.32.2h.07c.38-.26.79-.45,1.31-.4,1.51.15,5.99,1.36,7.95,2.54s2.07,1.38,2.26,2.18Z"/>
    <path class="cls-2" d="m15.33,14.4s.09-.09.02.13-.17.82-.13.95-.07.15-.09.12-.05-.25-.07-.32-.44-.46-.6-.49-.06-.08,0-.09.81-.34.88-.31Z"/>
    <path class="cls-2" d="m15.22,15.54s.47,2.22,2.45,2.11c.63-.03.18.35.04.46-.33.24-2.78,1.41-2.86.01,0,0,.51-1.87.34-2.33,0,0-.04-.28.04-.25Z"/>
    <path class="cls-4" d="m15.26,14.47s-.65,1.78,1.31,3.01c1.39.71,2.88-.28,3.84-.59,2.48-1.15,1.31-3.03,3.95-4.32,1.12-.63,4.8-.91,4.64-1.55s-1.41-1.35-1.41-1.35l-3.89.03-6.54,2.7-1.9,2.08Z"/>
    <path class="cls-5" d="m15.71,7.38s1.35.03,1.93.27.77.18,1.16.16.59.25.59.25l-2.3,1.37-1.65,5.02s-.17-.08-.35.05-.46.29-.68.26,1.3-7.39,1.3-7.39Z"/>
    <path class="cls-3" d="m18.86,12.79c1.28-1.06,4.2-2.21,5.08-2.56,1.87-.75,3.68-.21,3.65-.56-4.69-1.95-6.28-2.06-7.59-2.17-1.13-.1-1.65.93-2.78,1.32s-1.48,4.71-1.9,5.47c-.28.41,1.14-.06,1.84-.24s1.29-.91,1.7-1.25Z"/>
    <path class="cls-6" d="m7.29,23.91c-.06,0-.08-.04-.05-.05.02.02.03.04.05.05Z"/>
    <path class="cls-3" d="m16.23,9.53c.07-.62-.17-2.13-.52-2.15-2.01-.1-4.56-.04-6.62.61-1.4.45-3.39,2.72-4.51,5.33-.48,1.13-.03,3.29.2,3.95.73,2.12.88,5,.78,5.52-.03.19.06,1.23.12,1.33.03.05,0-.64.02-.79,0,0,.44-1.93,1.97-3.89.49-.63,2.2-2.06,2.66-3,1.06-1.41,4.15-1.5,4.41-1.79.8-.53,1.46-4.84,1.49-5.12Z"/>
    <path class="cls-4" d="m14.38,19.47c-.35.55-1.4,1.24-2.14,1.33-1.28.16-3.78,3.18-4.87,4.7-.28.39-.83.39-1.15.21-.73-.32-.5-2.35-.52-2.37,0,0,.43-1.94,1.97-3.89.49-.62,2.2-2.06,2.66-3,.55-.72,1.5-1.08,2.33-1.27.01,0,1.74-.44,1.89-.4,1.03.26.58,1.8.6,2.41.02.85-.52,1.91-.76,2.29Z"/>
  </g>
</svg>