<?xml version="1.0" encoding="utf-8"?>
<!-- Generator: Adobe Illustrator 27.9.0, SVG Export Plug-In . SVG Version: 6.00 Build 0)  -->
<svg version="1.1" id="Where_is_found" xmlns="http://www.w3.org/2000/svg" xmlns:xlink="http://www.w3.org/1999/xlink" x="0px"
	 y="0px" viewBox="0 0 32 32" style="enable-background:new 0 0 32 32;" xml:space="preserve">
<style type="text/css">
	.st0{fill:#FBD7C9;}
	.st1{fill:#EBBBA9;}
	.st2{fill:#D9A491;}
	.st3{fill:#404040;}
</style>
<g id="ic_swine">
	<g>
		<path class="st0" d="M31.6,9c0,0-0.1-0.2-0.2-1.2s-0.3-1.1-0.5-1.1S30.6,7,30.6,7C29.4,7.5,28,6.8,28,6.8s-0.4-0.4-0.7-0.4
			c-0.2,0-0.6-0.2-0.8-0.5C26,5.1,24.7,5,24.7,5c-0.4-0.7-1.4-0.8-1.4-0.7c0,0.1,0,0.2,0,0.4s-0.1,0.4-0.1,0.4
			c-0.8-0.3-1-0.1-1.2-0.2c-0.3-0.1,0.2,1.2,0.2,1.2c-1.2,1-3.7,2.6-4.9,2.6c-1.2,0-2.5,0.5-3.7,0.7s-2.2-0.1-2.2-0.1
			s-1.2-0.5-2.1-0.6c-3.5-0.5-5.4,1.8-5.4,1.8L3.4,11c0,0-0.4,0.2-0.8,0.2s-0.6,0-0.6,0L1.5,11C1.9,11.9,3,11.9,3,11.9
			c-1.4,3-0.1,4.1,0.1,4.9c0.2,0.8,0,1.3,0,1.3s-0.4,1.2-1,1.6c-0.6,0.5-0.3,1-0.3,1l0.5,2.7c0,0,0.1,0.9,0,1.1s0,0.3,0,0.3
			s-0.1,0.4,0,0.5C2.4,25.7,3,26,3,26c0,0.2,0.3,0.6,0.6,0.7s1.1,0.2,1.6,0.1s0.2-0.3,0.2-0.3l-0.6-0.8c0.2,0,0-0.3,0-0.3
			s-0.1,0-0.4-1.5s0.3-2.3,0.3-2.3c0,0.1,0.9-0.6,1.5-1.3S6.8,19,6.8,19s0.5,0.6,0.8,0.9c0.4,0.3,0.5,0.5,2.4,1
			c2.4,0.6,4.5,0.1,5.4-0.4s1.6-0.6,1.6-0.6s1-0.2,1.5-0.6c0.5,0.7,0.8,1.5,0.8,1.5C19.8,22.7,21,24,21,24c0.1,1.2,0.7,1.7,0.7,1.5
			s0.1-0.3,0.1-0.3s0,0.5,0.9,0.9s1.6-0.1,1.7-0.2s-0.6-0.7-0.6-0.7c0-0.2,0-0.2-0.2-0.4c-0.8-0.7-1.1-1.8-1.2-2.3
			c0-0.5-0.1-1.8-0.1-1.8S22,18.9,23,18.2s1.8-2.3,1.8-2.3s0.9-0.2,1.3-1s0.7-0.8,1.5-1.3c0.9-0.5,1.8-1.6,2.5-2.6
			c0.6-1,1.2-1.6,1.2-1.6C31.6,9.3,31.5,9,31.6,9L31.6,9z"/>
		<path class="st1" d="M26.3,6.8c0,0,0.1,0.5,0,0.7c0,0,0.3,0,0.4,0.1s-0.2,0.2-0.2,0.2S26.2,8.3,25.6,8c-0.1-0.1,0-0.2,0-0.2
			s0.5-0.5,0.5-0.9S26.3,6.8,26.3,6.8z"/>
		<path class="st2" d="M26.5,7.8c0,0,0.2,0,0.2-0.1l0.2,0.2c0,0-0.1,0-0.2,0S26.5,7.9,26.5,7.8C26.4,7.8,26.4,7.8,26.5,7.8L26.5,7.8
			z"/>
		<path class="st1" d="M30.5,7.1c0,0,0-0.3,0.2-0.3c0.2-0.1,0.4,0.1,0.5,0.4s0.2,1.1,0.2,1.1s0.1,0.6,0.1,0.8s0,0.2,0,0.2
			s-0.1,0.1-0.2,0.1s-0.1,0-0.2,0S31,9.5,30.7,8.5C30.6,7.9,30.6,7.1,30.5,7.1L30.5,7.1z"/>
		<path class="st1" d="M22.4,6.1c0,0-0.1-0.3-0.2-0.6c0-0.1,0-0.1-0.1-0.2s0-0.1,0.1-0.1s0.2-0.1,1,0.2c0.3,0,0.6,0,0.9,0.1
			c0.8,0.3,1,1.3,0.7,2s-0.4,0.8-0.4,0.8S24.6,9,24.2,9s-1.4,0-1.6-1.2S22.6,6.5,22.4,6.1L22.4,6.1z"/>
		<path class="st1" d="M23.5,4.5c-0.1,0,0,0.2,0,0.3c0,0.1,0,0.3-0.1,0.4c0,0,0.5-0.2,1.1-0.2C24.5,5,24.2,4.6,23.5,4.5z"/>
		<path class="st3" d="M26.3,7.1c0,0-0.1,0.3,0,0.5l0.1-0.2C26.4,7.4,26.3,7.3,26.3,7.1C26.3,7.2,26.3,7.1,26.3,7.1L26.3,7.1z"/>
		<path class="st2" d="M28.2,10.2c0,0,2.8-1.1,2.9-1.1c0,0,0,0.1,0.3,0.1c0,0-0.1,0.2-0.3,0.2c0,0-0.3,0-0.7,0.1
			C29.6,9.8,28.4,10.2,28.2,10.2L28.2,10.2z"/>
		<path class="st0" d="M19.2,21c0,0.2-0.5,0.7-0.6,1.3c0,0-0.2,1.3,0.1,2.2c0.1,0.3,0.2,0.6,0.1,0.6c0,0,0.5,0.5,0.5,0.6
			s-1.1,0.5-1.6,0.2S17.3,25,17.3,25l-0.1,0.3l-0.1,0.2c0,0-0.3-0.2-0.5-1.2c0,0-0.1-0.6,0.2-1.4c0,0,0-2.9,0.2-2.9
			c1-0.1,1.6-0.5,1.6-0.5S19.1,20.3,19.2,21L19.2,21z"/>
		<path class="st0" d="M7.8,20.1c0,0-0.1,0.6-0.2,1.2s0.1,0.9,0.1,0.9s1,1.5,1.5,1.8s0.4,0.6,0.4,0.6l1.2,0.9c0,0,0.5,0.3,0,0.4
			S9.2,26,9.2,26s-0.3,0.1-0.7-0.3S8,25.1,8,25.1s0,0.4,0,0.5s-0.4,0.2-0.8-0.7s-0.8-1-0.8-1S5.8,23.3,5.7,23S5,22.4,5,22.4
			s-0.4-0.5-0.4-0.7c0,0,0.6-0.2,1.2-0.9c0.3-0.4,1.1-1.4,1.1-1.4s0.2,0.2,0.4,0.4S7.7,20.1,7.8,20.1L7.8,20.1z"/>
		<path class="st0" d="M2,10.4c0,0-0.1-1.1,0.7-0.9s0.4,1,0.4,1S2.5,11.3,1.4,10C1,9.5,1,9.5,0.8,9.6s-0.2,0.4,0.4,1s1.3,0.7,2,0.4
			s0.7-1.1,0.7-1.1s0-1.1-1.2-1s-1.1,1-1.1,1L2,10.4L2,10.4z"/>
		<path class="st1" d="M6.9,18.8c0,0,0.7-0.1,0.9-0.5C8,18,8,17.9,8.5,17.3c0,0,1.6,2,4.1,2.2s4.5-0.2,5.4-1.2
			c0.7-1,0.7-1.2,0.7-1.2s-0.2,1.5-0.1,1.8c0.1,0.1-0.4,0.4-0.9,0.5c-0.6,0.2-1.2,0.3-1.6,0.5c-1.1,0.6-3.4,1.8-7.5,0.2
			C7.8,20,6.9,18.8,6.9,18.8L6.9,18.8z"/>
		<path class="st1" d="M3.1,25.9c0,0-0.5-0.3-0.7-0.6c0-0.1,0-0.4,0-0.4s0.5,0,0.6,0c0,0,0.1,0.4,0.3,0.5s0.6,0.3,1.3,0.3l0.7,0.9
			c0,0,0.1,0.1-0.3,0.1s-0.7,0.1-1.2-0.1C3.5,26.5,3.2,26.2,3.1,25.9L3.1,25.9z"/>
		<path class="st1" d="M8.6,25.7c0,0,0.2,0.2,0.6,0.2s0.9-0.1,1.2-0.1s0.3-0.2,0.2-0.2s-1.1-0.9-1.2-0.9s-0.4-0.1-0.8,0
			s-0.7,0.2-0.7,0.2L8.6,25.7L8.6,25.7z"/>
		<path class="st1" d="M7.8,24.9l0.1,0.6c0,0-0.2,0-0.4-0.4s-0.3-0.4-0.2-0.4S7.6,24.7,7.8,24.9z"/>
		<path class="st1" d="M16.7,24.3l0.1-0.1c0,0,0.1-0.1,0.1,0s0.1,0.2,0.3,0.4c0,0,0.1,0.2,0,0.4c-0.1,0-0.2,0.3-0.2,0.3
			S16.7,24.6,16.7,24.3L16.7,24.3z"/>
		<path class="st1" d="M17.4,24.7c0,0,0,0.2,0,0.3c0,0.1,0.1,0.3,0.1,0.4s0.2,0.4,0.6,0.5s1.2-0.1,1.1-0.2s-0.4-0.4-0.4-0.5
			c0,0-0.1,0.1-0.5,0.1S17.4,24.7,17.4,24.7L17.4,24.7z"/>
		<path class="st1" d="M21.2,24.2c0,0,0.5,0.5,0.6,0.8l-0.2,0.2h-0.1C21.5,25.2,21.3,24.8,21.2,24.2L21.2,24.2z"/>
		<path class="st1" d="M23.6,25.2c0,0-0.8,0.2-1.4-0.1C21.9,25,22,25.2,22,25.2s0.1,0.5,0.6,0.7s0.6,0.2,0.8,0.2s0.5,0,0.7-0.2
			c0.1-0.1,0-0.2,0-0.2L23.6,25.2L23.6,25.2z"/>
	</g>
</g>
</svg>
