<?xml version="1.0" encoding="UTF-8"?><svg xmlns="http://www.w3.org/2000/svg" viewBox="0 0 32 32"><defs><style>.cls-1{fill:#82b5dd;}.cls-1,.cls-2,.cls-3,.cls-4,.cls-5,.cls-6,.cls-7,.cls-8,.cls-9,.cls-10,.cls-11,.cls-12,.cls-13{stroke-width:0px;}.cls-2{fill:none;}.cls-3{fill:#6791a8;}.cls-4{fill:#3c6277;}.cls-5{fill:#e6e2e6;}.cls-6{fill:#ced8e0;mix-blend-mode:multiply;}.cls-7{fill:#b2e1ed;}.cls-8{fill:#82b7d9;}.cls-9{fill:#c0efff;}.cls-10{fill:#5b798c;}.cls-14{isolation:isolate;}.cls-11{fill:#77a8c7;}.cls-12{fill:#fff;}.cls-13{fill:#8dc4e2;}</style></defs><g class="cls-14"><g id="how_to_prevent"><rect class="cls-2" width="32" height="32"/><rect class="cls-4" x="11.52" y="19.17" width="17.31" height="2.1" transform="translate(16.65 -8.12) rotate(37.84)"/><path class="cls-4" d="M20.08,13.01h0c3.83,0,7.08,2.87,7.55,6.68.52,4.17-2.44,7.99-6.62,8.52-.32.04-.64.06-.96.06-3.83,0-7.08-2.87-7.55-6.68-.52-4.17,2.44-7.99,6.62-8.52.32-.04.64-.06.96-.06M20.08,10.34c-.43,0-.86.03-1.3.08-5.64.71-9.64,5.86-8.93,11.5.65,5.21,5.09,9.02,10.2,9.02.43,0,.86-.03,1.3-.08,5.64-.71,9.64-5.86,8.93-11.5-.65-5.21-5.09-9.02-10.2-9.02h0Z"/><path class="cls-12" d="M22.61,20.43l-.02.04c-.06.05-.12.11-.17.18-.17.19-.29.41-.48.57-.33.29-.83.41-1.26.44-.77.06-1.56-.2-2.15-.7-.36-.3-.64-.68-1.02-.94-.33-.23-.73-.36-1.13-.37-.22,0-.45.02-.67.02-.2,0-.41-.03-.61-.07-.19-.04-.37-.09-.53-.19-.16-.1-.29-.27-.3-.45,0-.07,0-.14.03-.2.22-.12.49-.23.85-.34.17-.05.42-.1.72-.16.02,0,.05,0,.07,0,.07-.02.16-.03.24-.04v.05h0v-.05c.07,0,2.38-.15,4.43-.06.57.03,1.18.07,1.8.12.99.09,1.99.22,2.83.42h.01c.56.14,1.04.3,1.4.5h-1.02c-.07.1-.18.18-.29.26h0s-.07.04-.11.07c-.14.07-.27.15-.4.22-.02,0-.04,0-.07,0-.03,0-.06,0-.08.01-.24.03-.49.06-.75.09-.03,0-.06,0-.1,0-.07,0-.14.01-.2.02-.03,0-.07,0-.11,0-.02,0-.04,0-.06,0-.06,0-.11.01-.17.02-.2.02-.38.1-.52.24h.03c-.07.07-.14.17-.17.27Z"/><path class="cls-11" d="M27.86,18.86c0,.07-.03.14-.06.2h0c-.14.31-.43.57-.43.57l-.22-.02h0l-.47-.04s0,0,0,0l-.61-.05h0l-.73-.05c.11-.07.22-.15.29-.26h1.02c-.36-.2-.84-.36-1.4-.49h0s0,0,0,0c-.84-.2-1.84-.33-2.83-.42-.62-.06-1.23-.1-1.8-.12-2.05-.1-4.35.05-4.43.06v.05h0v-.05c-.08.01-.16.03-.24.04h0s-.07-.68-.07-.68c.03-.04.13-.08.3-.11.94-.19,3.86-.26,5.56-.2,2,.07,4.53.48,5.65.94.41.17.52.41.49.64Z"/><path class="cls-11" d="M25.62,19.21c-.07.1-.18.18-.29.26h0s-.07.04-.11.07c-.14.07-.27.15-.4.22-.02,0-.04,0-.07,0-.03,0-.06,0-.08.01-.24.03-.49.06-.75.09-.03,0-.06,0-.1,0-.07,0-.14.01-.2.02-.03,0-.07,0-.11,0-.02,0-.04,0-.06,0-.06,0-.11.01-.17.02-.2.02-.38.1-.52.24h.03c-.07.07-.14.17-.17.27l-.02.04c-.06.05-.12.11-.17.18-.17.19-.29.41-.48.57-.33.29-.83.41-1.26.44-.77.06-1.56-.2-2.15-.7-.36-.3-.64-.68-1.02-.94-.33-.23-.73-.36-1.13-.37-.22,0-.45.02-.67.02-.2,0-.41-.03-.61-.07-.19-.04-.37-.09-.53-.19-.16-.1-.29-.27-.3-.45,0-.07,0-.14.03-.2.22-.12.49-.23.85-.34.17-.05.42-.1.72-.16.02,0,.05,0,.07-.01.07-.01.15-.03.24-.04v.05h0v-.05c0-.05,0-.11,0-.17s0-.11,0-.17c0-.11,0-.23,0-.34v-.2c-.14.01-.27.03-.39.04-2.2.28-3.65.76-3.65,1.31,0,.02,0,.04,0,.06h0s.04,2.69,1.19,3.04c.52.29,1.44.54,2.61.72,1.17.17,2.6.28,4.14.28,1.16,0,2.25-.06,3.21-.16.35-.09.69-.2,1.03-.31.65-.21,1.29-.47,1.82-.89.54-.42.95-1.02,1.02-1.7,0-.06,0-.11,0-.15,0-.04-.01-.08-.03-.11,0-.02-.02-.04-.03-.06.1-.04.19-.08.28-.12.04-.02.08-.03.11-.05.03-.02.07-.04.1-.06h-1.96Z"/><path class="cls-9" d="M26.64,19.21h-1.02c-.07.1-.18.18-.29.26h0s-.07.04-.11.07c-.14.07-.27.15-.4.22-.02,0-.04,0-.07,0-.03,0-.06,0-.08.01-.24.03-.49.06-.75.09-.03,0-.06,0-.1,0-.07,0-.14.01-.2.02-.03,0-.07,0-.11,0-.02,0-.04,0-.06,0-.06,0-.11.01-.17.02-.2.02-.38.1-.52.24h.03c-.07.07-.14.17-.17.27l-.02.04c-.06.05-.12.11-.17.18-.17.19-.29.41-.48.57-.33.29-.83.41-1.26.44-.77.06-1.56-.2-2.15-.7-.36-.3-.64-.68-1.02-.94-.33-.23-.73-.36-1.13-.37-.22,0-.45.02-.67.02-.2,0-.41-.03-.61-.07-.19-.04-.37-.09-.53-.19-.16-.1-.29-.27-.3-.45,0-.07,0-.14.03-.2.22-.12.49-.23.85-.34.17-.05.42-.1.72-.16.02,0,.05,0,.07,0,.07-.02.16-.03.24-.04v.05h0v-.05c.07,0,2.38-.15,4.43-.06.57.03,1.18.07,1.8.12.99.09,1.99.22,2.83.42h.01c.56.14,1.04.3,1.4.5Z"/><path class="cls-5" d="M22.6,20.48l-.55,1.36c-.07.17-.23.31-.41.34-1.06.19-2.11.18-3.15,0-.19-.03-.34-.16-.42-.34l-.57-1.41c-.04-.1-.1-.19-.17-.26-.01-.02-.03-.03-.05-.05-.02-.01-.03-.03-.06-.04-.01-.01-.03-.02-.04-.03,0,0-.02,0-.02,0,0,0-.02-.01-.03-.02-.05-.03-.1-.05-.15-.06l-.16-.03s0,0,0,0h0c-.07,0-.13-.01-.19-.02-.01,0-.02,0-.03,0-.07,0-.15-.01-.23-.02-.03,0-.07,0-.1-.01-.07,0-.14-.01-.21-.02-.24-.03-.48-.06-.7-.09-.03,0-.06,0-.09-.01-.01,0-.03,0-.04,0-.01,0-.03,0-.04,0-.01,0-.03,0-.04,0-.06,0-.11-.02-.16-.03-.03,0-.06,0-.08-.02h0s-.06,0-.09-.01c-.03,0-.06-.01-.09-.02-.02,0-.05,0-.07-.01-.04,0-.09-.02-.14-.03,0,0,0,0,0,0-.01,0-.03,0-.03,0-.03,0-.05,0-.07-.02-.03,0-.07-.01-.1-.02h-.07s-.09-.03-.13-.04c-.01,0-.03,0-.04,0-.02,0-.03,0-.05-.01-.06-.02-.12-.03-.17-.05,0,0-.02,0-.03,0-.01,0-.03,0-.04-.01-.03,0-.06-.01-.08-.02h0s-.02,0-.03-.01c.09-.19.29-.41.68-.62h0c-.03.07-.04.14-.03.2.01.19.14.35.3.45.16.1.34.15.53.19.2.04.41.07.61.07.22,0,.45-.03.67-.02.4,0,.8.14,1.13.37.38.26.66.64,1.02.94.59.5,1.38.75,2.15.7.44-.03.93-.15,1.26-.44.19-.17.31-.38.48-.57.05-.07.11-.13.17-.18Z"/><path class="cls-5" d="M26.72,19.33s0,0-.01,0c-.01,0-.02,0-.03.01-.01,0-.02,0-.03,0h0s-.06.02-.09.03c0,0-.01,0-.02,0-.02,0-.03,0-.05.02-.03,0-.07.02-.1.03-.02,0-.04,0-.07.02-.04,0-.08.02-.12.03-.02,0-.05.01-.07.02-.02,0-.04,0-.06.01h0s0,0-.01,0c-.03,0-.05.01-.08.02-.03,0-.05.01-.08.02-.03,0-.06.01-.08.02-.03,0-.05,0-.07.01,0,0-.01,0-.02,0-.05,0-.11.02-.17.03-.07.01-.14.03-.22.04-.03,0-.06,0-.09.02-.08.01-.17.03-.25.04h-.08s-.06.02-.09.03c.13-.07.26-.15.4-.22.04-.02.08-.04.11-.07h0c.11-.07.22-.15.29-.26h1.02s.05.08.07.12Z"/><path class="cls-5" d="M23.2,17.8s.03-.07.05-.1c-.01.03-.03.07-.05.1h0Z"/><path class="cls-13" d="M17.33,20.17c-2.92-.21-5.07-.76-5.2-1.4,0-.02,0-.04,0-.06,0-.55,1.45-1.03,3.65-1.31.13-.02.26-.03.39-.04v.09s0,.11,0,.11c0,.11,0,.22,0,.34,0,.05,0,.11,0,.17v.17c-.08.01-.16.03-.24.04-.03,0-.05,0-.07.01-.3.05-.54.11-.72.16-.35.1-.63.22-.85.34h0c-.4.21-.59.44-.68.62,0,0,.02,0,.03,0h0s0,0,0,0c.03,0,.06.02.08.02.12.03.31.08.54.14.07.01.14.03.21.04,0,0,0,0,0,0,.05,0,.09.02.14.03.03,0,.05,0,.07.01.03,0,.06.01.09.02.04,0,.08.02.12.03,0,0,.02,0,.03,0,.05,0,.1.02.16.03.03,0,.06,0,.08.01.01,0,.03,0,.04,0,.03,0,.06,0,.09.01.23.03.46.07.7.09.07,0,.14.02.21.02.03,0,.07,0,.11.01.07,0,.15.02.22.02,0,0,.02,0,.03,0,0,0,.02,0,.03,0,.07,0,.14.02.2.02l.16.03c.05.01.1.03.15.06h0s.02,0,.03.02c0,0,.01,0,.02,0h0s.03.02.04.03c.02.01.04.03.06.04.02.02.03.03.05.05Z"/><path class="cls-13" d="M27.58,19.21s-.07.04-.1.06c-.03.02-.07.03-.11.05-.09.04-.18.08-.28.12-.01,0-.03,0-.04.01-.11.04-.24.08-.37.12,0,0,0,0,0,0-.12.04-.24.07-.37.1-.9.22-2.11.4-3.51.5h-.03c.14-.14.32-.23.52-.24.06,0,.11,0,.17-.02.02,0,.03,0,.06,0,.03,0,.07,0,.11,0,.07,0,.14-.01.2-.02.03,0,.07,0,.1,0,.26-.03.51-.06.75-.09.03,0,.05,0,.08-.01.02,0,.04,0,.07,0,.03,0,.06,0,.09-.01h.08c.09-.03.17-.04.25-.05.03,0,.06-.01.09-.02.08-.01.15-.03.22-.04.06-.01.11-.02.17-.03,0,0,.01,0,.02,0,.03,0,.05,0,.07-.01.03,0,.06-.01.08-.02.03,0,.05,0,.08-.02.03,0,.06,0,.08-.02,0,0,0,0,.01,0h0s.03,0,.06-.01c.03,0,.05-.01.07-.02.04-.01.08-.02.12-.03.02,0,.04-.01.07-.02.03-.01.07-.02.1-.03.02,0,.03-.01.05-.02,0,0,.01,0,.02,0,.03,0,.06-.02.09-.03h0s.02,0,.03,0c0,0,.02,0,.03-.01,0,0,0,0,.01,0-.02-.04-.04-.08-.07-.12h.93Z"/><path class="cls-7" d="M26.72,19.33s0,0-.01,0c-.01,0-.02,0-.03.01-.01,0-.02,0-.03,0h0s-.06.02-.09.03c0,0-.01,0-.02,0-.02,0-.03,0-.05.02-.03,0-.07.02-.1.03-.02,0-.04,0-.07.02-.04,0-.08.02-.12.03-.02,0-.05.01-.07.02-.02,0-.04,0-.06.01h0s0,0-.01,0c-.03,0-.05.01-.08.02-.03,0-.05.01-.08.02-.03,0-.06.01-.08.02-.03,0-.05,0-.07.01,0,0-.01,0-.02,0-.05,0-.11.02-.17.03-.07.01-.14.03-.22.04-.03,0-.06,0-.09.02-.08.01-.17.03-.25.04h-.08s-.06.02-.09.03c.13-.07.26-.15.4-.22.04-.02.08-.04.11-.07h0c.11-.07.22-.15.29-.26h1.02s.05.08.07.12Z"/><path class="cls-7" d="M22.6,20.48l-.55,1.36c-.07.17-.23.31-.41.34-1.06.19-2.11.18-3.15,0-.19-.03-.34-.16-.42-.34l-.57-1.41c-.04-.1-.1-.19-.17-.26-.01-.02-.03-.03-.05-.05-.02-.01-.03-.03-.06-.04-.01-.01-.03-.02-.04-.03h0s-.02-.01-.02-.01c0,0-.02,0-.03-.01h0s-.1-.05-.15-.07l-.16-.03s0,0,0,0h0c-.07,0-.13-.01-.19-.02-.01,0-.02,0-.03,0-.07,0-.15-.01-.23-.02-.03,0-.07,0-.1-.01-.07,0-.14-.01-.21-.02-.24-.03-.48-.06-.7-.09-.03,0-.06,0-.09-.01-.01,0-.03,0-.04,0-.01,0-.03,0-.04,0-.01,0-.03,0-.04,0-.06,0-.11-.02-.16-.03-.03,0-.06,0-.08-.02h0s-.06,0-.09-.01c-.03,0-.06-.01-.09-.02-.02,0-.05,0-.07-.01-.04,0-.09-.02-.14-.03,0,0,0,0,0,0-.01,0-.03,0-.03,0-.03,0-.05,0-.07-.02-.03,0-.07-.01-.1-.02h-.07s-.09-.03-.13-.04c-.01,0-.03,0-.04,0-.02,0-.03,0-.05-.01-.06-.02-.12-.03-.17-.05,0,0-.02,0-.03,0-.01,0-.03,0-.04-.01-.03,0-.06-.01-.08-.02h0s-.02,0-.03-.01c.09-.19.29-.41.68-.62h0c-.03.07-.04.14-.03.2.01.19.14.35.3.45.16.1.34.15.53.19.2.04.41.07.61.07.22,0,.45-.03.67-.02.4,0,.8.14,1.13.37.38.26.66.64,1.02.94.59.5,1.38.75,2.15.7.44-.03.93-.15,1.26-.44.19-.17.31-.38.48-.57.05-.07.11-.13.17-.18Z"/><path class="cls-11" d="M16.17,18.05v.17c-.08.01-.16.03-.24.04-.03,0-.05,0-.07.01-.3.05-.54.11-.72.16-.35.1-.63.22-.85.34h0c-.4.21-.59.44-.68.62h-.01s-.03-.01-.05-.02c-.05-.02-.1-.03-.15-.05,0,0-.02,0-.03-.01-.06-.02-.11-.04-.16-.06,0,0-.02,0-.03,0-.01,0-.03-.01-.03-.02,0,0-.02,0-.03,0-.03-.02-.07-.03-.1-.05-.01,0-.03-.01-.04-.02-.03-.02-.07-.04-.1-.06,0,0-.02-.01-.03-.02-.02,0-.03-.02-.05-.03,0,0,0,0-.01,0,0,0-.01,0-.02-.01h-.01c-.06-.06-.1-.1-.13-.14,0,0,0,0,0-.01,0-.01-.02-.03-.02-.03h0v-.02s0,0,0-.02c0,0,0,0,0-.02h-.03s0-.04,0-.06c0-.47,1.32-.88,3.32-1.12.1-.01.2-.03.3-.03,0,.11,0,.22,0,.34,0,.05,0,.11,0,.17Z"/><path class="cls-11" d="M27.03,19.2s-.02,0-.03.01c0,0-.02,0-.03.01,0,0-.02,0-.03.01-.01,0-.02.01-.04.01-.02,0-.05.02-.07.03,0,0-.02,0-.03.01-.03.01-.06.02-.09.03,0,0,0,0-.01,0-.02-.04-.05-.08-.07-.12h.39Z"/><path class="cls-13" d="M28.02,18.67v.08c-.06.27-.44.46-.44.46h-.54s.73-.07.6-.66c-.07-.34-2.43-.82-3.09-.92-.54-.08-1.25-.14-1.22-.13,0,0-2.02-.28-7.17.06v-.11s0-.09,0-.09c0,0,3.86-.42,7.24-.06.81.08,1.35.19,1.41.2,0,0,0,0,0,0,.62.1,2.7.46,3.1.92.07.08.1.16.11.24,0,0,0,0,0,0Z"/><path class="cls-3" d="M16.06,22.11s.14.14.58,0c.44-.11.49-.3.49-.3.06-.12.05-.29-.04-.39,0,0-.25-.22-.55-.25,0,0-.11-.01-.17,0h0s0,0,0,0h0s0,0,0,0c-.07.02-.15.09-.15.09-.24.18-.33.5-.33.5-.02.13.05.29.17.36Z"/><path class="cls-3" d="M16.69,20.7c.02.16-.05.31-.17.33-.12.02-.23-.1-.25-.27-.02-.16.05-.31.17-.33.12-.02.23.1.25.27Z"/><path class="cls-3" d="M16.14,20.79c.09.14.08.31-.02.37-.1.06-.25,0-.34-.14-.09-.14-.08-.31.02-.37.1-.06.25,0,.34.14Z"/><path class="cls-3" d="M15.81,21.19c.13.1.18.26.1.36-.07.09-.24.08-.37-.02-.13-.1-.18-.26-.1-.36.07-.09.24-.08.37.02Z"/><path class="cls-3" d="M16.77,20.9c-.02.16.05.31.17.33.12.02.23-.1.25-.27.02-.16-.05-.31-.17-.33-.12-.02-.23.1-.25.27Z"/><path class="cls-3" d="M28.01,18.75l-.04.46-.02.16c-.01.11-.03.23-.05.35,0,.02,0,.05-.01.07,0,0,0,0,0,0,0,.03,0,.06-.02.08,0,.02,0,.04-.01.06,0,.03,0,.05-.01.08,0,.05-.02.09-.03.14,0,.04-.02.07-.03.11-.05.18-.1.37-.17.54,0,.02-.02.04-.02.05-.02.05-.04.09-.06.13-.01.02-.02.04-.03.06-.02.03-.04.07-.05.1-.01.02-.02.04-.04.06-.01.02-.03.05-.04.07-.02.03-.04.06-.06.08,0,0,0,0,0,.01-.02.02-.04.05-.06.07s-.04.05-.06.07c0,0,0,0-.01.01-.02.02-.04.04-.06.06,0,0,0,0,0,0-.02.02-.05.04-.08.06-.54.43-1.93.79-3.76.99.35-.09.7-.2,1.04-.31.65-.21,1.29-.47,1.82-.89.54-.42.96-1.02,1.03-1.69.01-.12,0-.2-.03-.27,0-.02-.02-.04-.04-.06.1-.04.2-.08.28-.12.04-.02.08-.04.11-.05.04-.02.07-.04.1-.06,0,0,.38-.18.44-.46Z"/><path class="cls-13" d="M28.02,18.66h0s0,.09,0,.09c-.06.27-.44.46-.44.46l.44-.54h0Z"/><path class="cls-6" d="M19.29,19.58s-.08.03.09.2,1.47.86,1.68.76,1.06-.7,1.5-1.06c.17-.14.42-1.18.42-1.18l.27-.94-1.11,1.06-1.7.25-1.16.92Z"/><path class="cls-1" d="M22.28,18.87c-.11.27-.74.78-.86.88.14-.12.98-.87.7-1.16-.09-.09-.24-.14-.45-.14-.41,0-1.04.23-1.78.81-.16.12-.32.26-.49.42l-.1-.03s.1-.09.27-.23c0,0,0,0,0,0,.44-.36,1.3-1.02,1.88-1.1.23-.03.41-.02.54,0,.34.08.38.32.29.54Z"/><polygon class="cls-1" points="22.37 17.6 22.37 17.6 22.37 17.6 22.37 17.6"/><path class="cls-11" d="M25.55,14.76c-.07-.25-.6-.56-.89-.25-.08.08-.3.37-.59.76-.14.19-.3.41-.47.63-.23.32-.47.65-.69.95-.11.15-.21.28-.3.41-.02.03-.04.06-.06.08-.04.06-.08.11-.12.16-.03.04-.05.07-.07.1,0,0,0,0,0,0h0c-.15.21-.24.34-.24.34-1.43-.25-2.9,1.61-2.94,1.66h0s.12.04.12.04c0,0,.1-.09.27-.23,0,0,0,0,0,0,.44-.36,1.3-1.02,1.88-1.1.23-.03.41-.02.54,0,.34.08.38.32.29.54-.11.27-.74.78-.86.88.14-.12.98-.87.7-1.16-.09-.09-.24-.14-.45-.14-.41,0-1.04.23-1.78.81-.16.12-.32.26-.49.42l1.58.55s1.17-.82,1.58-1.18c.39-.34.03-.8,0-.84,0,0,0,0,0,0,0,0,.1-.1.26-.27.02-.03.05-.05.08-.08.05-.05.1-.11.16-.17,0,0,.01-.01.02-.02.14-.15.3-.32.47-.5.01-.01.02-.02.03-.04.63-.68,1.38-1.51,1.76-1.99.15-.2.24-.34.23-.38Z"/><path class="cls-3" d="M22.28,18.87c-.11.27-.74.78-.86.88.14-.12.98-.87.7-1.16-.09-.09-.24-.14-.45-.14-.41,0-1.04.23-1.78.81-.16.12-.32.26-.49.42l-.1-.03s.1-.09.27-.23c0,0,0,0,0,0,.44-.36,1.3-1.02,1.88-1.1.23-.03.41-.02.54,0,.34.08.38.32.29.54Z"/><path class="cls-3" d="M22.8,19.09c-.17.24-1.81,1.24-1.81,1.24l-1.78-.62-.04-.09.12.04.1.03,1.58.55s1.17-.82,1.58-1.18c.39-.34.03-.8,0-.84.3.17.42.63.25.87Z"/><path class="cls-11" d="M22.81,21.47s-.93.45-1.95.55-2.56.55-2.7.61-.4.15-.32.34.31.14.37.13.78-.24,1-.27c.09-.02.08.06.08.06,0,0,.07.02-.16.05s-1.44.47-1.63.66-.1.36-.1.36c0,0,.04.16.26.12s1.15-.47,1.15-.47c0,0,.27-.14.37-.08s-.07.16-.07.16c0,0-.45.14-.84.3-.29.12-.53.27-.58.3-.12.05-.27.16-.2.33s.22.18.26.17,1.17-.5,1.43-.58.25,0,.25,0c0,0,.08.13-.27.24s-1.28.35-1.2.65.46.18.46.18c0,0,.78-.1,1.75-.71.73-.38.51-.04.51-.04,0,0-.17.33-.84.49-.25.05-.26.19-.22.3s.12.16.25.14,1.01-.22,1.83-.8c.82-.61,1.65-.93,1.84-.94.1-.16-.04-1.74-.71-2.27h0Z"/><path class="cls-10" d="M22.8,21.55s.33.34.51.91.16,1.2.16,1.2c0,0-.34-.35-.55-1s-.11-1.12-.11-1.12Z"/><path class="cls-8" d="M22.79,23.33s-.77.78-1.21,1.78-1.41,2.4-1.52,2.51-.28.35-.45.21-.04-.36,0-.41.51-.7.6-.91c.05-.09-.04-.1-.04-.1,0,0,0-.08-.11.15s-.96,1.29-1.21,1.42-.39-.02-.39-.02c0,0-.15-.1-.03-.3s.86-1,.86-1c0,0,.22-.23.2-.34s-.18.02-.18.02c0,0-.29.41-.59.75-.22.25-.45.44-.49.48-.09.1-.26.22-.4.09s-.11-.28-.09-.32.89-1.01,1.07-1.25.09-.25.09-.25c0,0-.11-.12-.33.2s-.78,1.17-1.06.99-.02-.52-.02-.52c0,0,.36-.76,1.3-1.52.63-.6.21-.5.21-.5,0,0-.39.06-.77.68-.13.24-.28.2-.38.12s-.13-.18-.06-.29.56-.94,1.41-1.58c.89-.62,1.49-1.35,1.57-1.54.2-.05,1.74.62,2.05,1.47h0Z"/><path class="cls-11" d="M22.71,23.31s-.23-.44-.75-.82-1.16-.56-1.16-.56c0,0,.24.46.83.89s1.09.49,1.09.49h0Z"/></g></g></svg>