<?xml version="1.0" encoding="UTF-8"?>
<svg id="how_to_prevent" data-name="how to prevent" xmlns="http://www.w3.org/2000/svg" version="1.1" viewBox="0 0 32 32">
  <defs>
    <style>
      .cls-1 {
        fill: none;
      }

      .cls-1, .cls-2, .cls-3, .cls-4, .cls-5 {
        stroke-width: 0px;
      }

      .cls-2 {
        fill: #3c6277;
      }

      .cls-3 {
        fill: #82b7d9;
      }

      .cls-4 {
        fill: #77a8c7;
      }

      .cls-5 {
        fill: #fff;
      }
    </style>
  </defs>
  <g id="ic_avoid_raw_meat" data-name="ic avoid raw meat">
    <g>
      <polygon class="cls-2" points="13.2 12.7 11.8 14.5 27.1 26.4 28.5 24.5 13.2 12.7 13.2 12.7"/>
      <path class="cls-2" d="M20,11.5c4.3,0,7.9,3.2,8.5,7.5.3,2.3-.3,4.5-1.7,6.3-1.4,1.8-3.4,3-5.7,3.2-.4,0-.7,0-1.1,0-4.3,0-7.9-3.2-8.5-7.5-.6-4.7,2.7-8.9,7.4-9.5.4,0,.7,0,1.1,0M20,8.5c-.5,0-1,0-1.5,0-6.3.8-10.8,6.6-10,12.9.7,5.8,5.7,10.1,11.4,10.1s1,0,1.5,0c6.3-.8,10.8-6.6,10-12.9-.7-5.8-5.7-10.1-11.4-10.1h0Z"/>
    </g>
    <g>
      <path id="Tracciato_175" data-name="Tracciato 175" class="cls-3" d="M13.1,20.5l.3,2.1s1.1,4.2,6.2,1.5,2-3,10.8-6.7l-.2-2.5s-5.4-2.5-11.6-.9c-6.2,1.6-5.6,4.9-5.4,6.3Z"/>
      <path id="Tracciato_176" data-name="Tracciato 176" class="cls-4" d="M13.8,19.7s1.9,6.1,8.9-.5c0,0,2-1.9,5.4-3,0,0,2.9-.7-1.1-1.5s-10-.3-11.8,1.5-1.5,3.5-1.5,3.5h0Z"/>
      <path id="Tracciato_177" data-name="Tracciato 177" class="cls-4" d="M13.1,20.3s1.5,5.9,8.9,0c0,0,2.5-2.5,5.8-3.7,0,0,2.2-.6,2.4-1.1l.3,2.1s-.4.4-1.7.8-3.9,1.6-6.3,3.9c0,0-6.3,5.7-9,.7l-.3-2.7h0Z"/>
      <path id="Tracciato_220" data-name="Tracciato 220" class="cls-5" d="M17,19c.7,0,1.4.2,1.4.7,0,.5-.5.9-1.2,1s-1.4-.2-1.5-.7.5-.9,1.3-1h0Z"/>
    </g>
  </g>
  <rect class="cls-1" y="-.2" width="32" height="32"/>
</svg>