<?xml version="1.0" encoding="UTF-8"?><svg id="how_to_prevent" xmlns="http://www.w3.org/2000/svg" viewBox="0 0 32 32"><defs><style>.cls-1{fill:none;}.cls-1,.cls-2,.cls-3,.cls-4{stroke-width:0px;}.cls-2{fill:#6791a8;}.cls-3{fill:#5b798c;}.cls-4{fill:#77a8c7;}</style></defs><rect class="cls-1" width="32" height="32"/><path class="cls-2" d="M25.26,15.53c0,.13,0,7.96,0,9.09,0,.25-.1.43-.29.56-.44.29-.94.43-1.45.55-1.71.39-3.45.5-5.19.51-1.77.01-3.54-.07-5.27-.44-.51-.11-1-.29-1.49-.45-.12-.04-.22-.11-.32-.18-.18-.13-.28-.29-.28-.53.01-1.15-.02-8.73.01-9.06.2.12.58.16.88.21,1.15.21,2.31.28,3.48.34,1.87.08,3.75.09,5.62,0,1.2-.06,2.39-.12,3.57-.37.25-.05.49-.16.74-.24ZM22.84,16.44v9.05c.24-.05.47-.11.69-.14.14-.03.2-.08.2-.24,0-1.87,0-6.7,0-8.56,0-.06,0-.12,0-.19-.31.04-.59.07-.87.1Z"/><path class="cls-2" d="M10.7,15.03s-.15-.33.38-.51c.49-.18,4.64-.56,5.55-.58s5.47.11,6.39.24,2.55.59,2.39.87-6.38.53-6.38.53l-7.26-.32-1.08-.23Z"/><path class="cls-3" d="M24.77,14.82c0,.37-3.09.67-6.91.67s-6.92-.36-6.92-.73c0-.08.12-.09.39-.16.97-.24,3.55-.45,6.53-.45,3.81,0,6.91.3,6.91.67Z"/><path class="cls-2" d="M18.59,15.3c1.21-.01,2.42-.05,3.62-.13.86-.06,1.71-.21,2.56-.32.25-.03.45.06.64.19.11.07.07.17-.03.22-.16.07-.32.16-.48.18-.78.12-1.57.26-2.35.33-2.05.18-4.1.2-6.15.15-1.03-.02-2.07-.06-3.09-.16-.53-.05-1.82-.13-2.48-.44-.23,0-.17-.62-.02-.62,1.49.31,5.2.63,7.78.6Z"/><path class="cls-3" d="M18.17,30.89c-1.17-.01-2.43-.09-3.67-.41-.36-.09-.72-.2-1.02-.43-.31-.23-.29-.52.04-.72.03-.02.09-.03.12,0,.49.23,1.02.31,1.55.38,1.7.23,3.41.24,5.13.12.74-.05,1.47-.13,2.19-.34.11-.03.23-.07.34-.12.19-.08.25-.06.39.11.12.15.14.29.03.42-.1.11-.22.21-.35.28-.42.23-.89.34-1.35.43-1.09.21-2.18.28-3.39.28Z"/><path class="cls-2" d="M25.15,25.45c-.14.28-.27.57-.44.84-.09.14-.25.26-.41.34-.57.3-1.2.43-1.83.53-2.18.37-4.38.41-6.58.25-1.13-.08-2.26-.21-3.35-.55-.13-.04-.26-.09-.38-.14-.36-.14-.64-.36-.78-.74-.07-.2-.18-.38-.28-.57.83.55,1.79.67,2.73.81,1.86.28,3.74.32,5.62.25,1.51-.05,3.02-.17,4.49-.55.42-.11.83-.24,1.21-.48ZM23.73,26.18c-.3.06-.56.11-.82.17-.04,0-.09.04-.11.08-.07.15-.14.3-.2.46.4-.15.91-.14,1.13-.7Z"/><path class="cls-4" d="M18.22,28.36c.24.17.45.41.53.74.06.29-.07.51-.33.57-.06-.2-.11-.41-.17-.62-.12.1-.18.24-.17.4,0,.21-.03.24-.23.21-.32-.05-.41-.24-.24-.52.06-.1.16-.19.23-.29.13-.16.25-.32.39-.5Z"/><path class="cls-4" d="M16.92,29.65c-.1-.21-.2-.42-.3-.62-.2.15-.06.37-.03.6-.2-.02-.39-.04-.51-.21-.11-.16-.07-.33.04-.48.08-.11.18-.21.26-.32.08-.1.15-.21.23-.32.27.25.47.55.53.93.03.18-.02.39-.23.42Z"/><path class="cls-4" d="M19.88,29.62c0-.1,0-.21,0-.31,0-.1-.01-.2-.02-.3-.13.11-.2.26-.23.42-.02.12-.07.23-.23.23-.29,0-.38-.14-.24-.38.1-.18.25-.34.37-.51.09-.14.18-.28.27-.43.19.13.37.3.46.55.12.35-.04.64-.38.75Z"/><path class="cls-4" d="M21.25,28.86c-.07.14-.14.28-.23.41-.06.1-.14.19-.23.25-.05.03-.16,0-.22-.04-.03-.02-.03-.13,0-.17.12-.21.26-.41.38-.62.09-.16.18-.33.27-.49.25.12.44.41.43.69-.01.26-.21.49-.49.58.03-.09.08-.19.1-.29.02-.1.02-.2.03-.31-.01,0-.03-.01-.04-.02Z"/><path class="cls-4" d="M15.6,29.55c-.13-.21-.27-.43-.41-.64-.06.06-.07.16-.03.27.04.1.09.19.15.31-.2-.03-.35-.09-.48-.22-.14-.14-.14-.36,0-.57.12-.18.25-.35.38-.53.26.35.43.74.49,1.17,0,.07-.03.14-.05.21-.02,0-.04,0-.07,0Z"/><path class="cls-4" d="M22.27,29.25c.07-.19.14-.37.21-.55-.01,0-.02,0-.03-.01-.09.14-.17.29-.27.43-.07.1-.17.18-.27.25-.03.02-.09,0-.14,0,0-.04,0-.09.01-.13.15-.27.32-.53.47-.8.07-.13.09-.28.13-.41.17.06.34.29.35.52.01.36-.2.56-.47.72Z"/><path class="cls-4" d="M14.07,27.94c.17.48.33.93.5,1.38-.02,0-.03.02-.05.03-.19-.19-.4-.38-.47-.68-.08.19-.07.2.19.58-.42-.08-.72-.48-.46-.88.09-.14.18-.27.28-.43Z"/><path class="cls-4" d="M23.21,27.73c.41.24.35.82-.12,1.18.06-.13.12-.26.19-.39-.19.22-.29.5-.6.61.24-.45.6-.84.54-1.4Z"/><path class="cls-4" d="M13.24,27.72c.08.48.16.95.48,1.37-.22-.11-.37-.3-.54-.67,0,.25.14.4.29.56-.61-.34-.62-.8-.23-1.25Z"/><path class="cls-4" d="M22.84,16.44c.28-.03.57-.07.87-.1,0,.07,0,3.1,0,3.16,0,1.87,0,3.73,0,5.6,0,.16-.05.22-.2.24-.22.04-.45.09-.69.14v-9.05Z"/><path class="cls-4" d="M23.73,26.18c-.22.56-.72.56-1.13.7.07-.15.13-.31.2-.46.02-.04.07-.07.11-.08.26-.06.52-.11.82-.17Z"/><path class="cls-2" d="M25.46,15.7s.27-.34.84-.36,1.85-.09,2.32.16.54.57.54.57c0,0,.38.31.52.99s1.2,6.74,1.2,6.74c0,0,.13.75-.07.85s-.18.13-.29.09-.31-.14-.37-.4-.43-2-.43-2l-.61-3.7-.36-1.87s.09-.31-.34-.36-1.78-.05-1.91,0-.48.21-.52.4-.08,2.89-.08,2.89c0,0-.07.06-.14.06s-.24,0-.24,0c0,0-.08-.02-.09-.08s.04-3.97.04-3.97Z"/><path class="cls-4" d="M26.29,15.76s.07-.09.8-.1,1.12.01,1.24.1.26.2.31.27-.2-.12-.75-.19-1.19-.08-1.4,0-.53.27-.53.27c0,0,.12-.3.32-.36Z"/></svg>