<?xml version="1.0" encoding="UTF-8"?><svg id="how_to_prevent" xmlns="http://www.w3.org/2000/svg" viewBox="0 0 32 32"><defs><style>.cls-1{fill:none;}.cls-1,.cls-2,.cls-3{stroke-width:0px;}.cls-2{fill:#6791a8;}.cls-3{fill:#77a8c7;}</style></defs><rect class="cls-1" width="32" height="32"/><path class="cls-3" d="M17.99,17.54s.55,1.75,1.11,2.05.47-7.21,4.65-9.77c0,0-1.51,4.49-.19,6.09,0,0-.02-2.59,1.98-3.45,0,0,.34,2.99,2.56,5.89,2.22,2.9,2.94,5.57,2.47,7.68-.47,2.11-2.37,5.08-6.2,5.2-3.82.13-6.38-1.96-7.28-4.52-.9-2.56-1.07-6.78.9-9.17Z"/><path class="cls-2" d="M21.46,22.89s-.53,3.21,1.66,3.48,2.72-2.25,2.32-3.48-1.33-2.65-.33-4.22c0,0-.24,1.5.74,2.66s2.21,3.74.92,6.49c0,0,.86-1.09.86-1.59s.28,5.08-3.94,5c-4.22-.08-5.67-7.25-2.22-8.35Z"/></svg>