<?xml version="1.0" encoding="UTF-8"?><svg id="how_to_prevent" xmlns="http://www.w3.org/2000/svg" viewBox="0 0 32 32"><defs><style>.cls-1{fill:#77a8c7;}</style></defs><g id="ic_slaugh"><g><rect class="cls-1" x="14.49" y="2.06" width="2.3" height="28.52" rx="1.04" ry="1.04"/><rect class="cls-1" x="16.63" y="2.72" width="1.51" height="5.69" rx=".75" ry=".75" transform="translate(9.03 -10.66) rotate(45)"/><rect class="cls-1" x="13.47" y="2.72" width="1.51" height="5.69" rx=".75" ry=".75" transform="translate(28.21 -.56) rotate(135)"/><rect class="cls-1" x="16.47" y="24.63" width="1.51" height="5.69" rx=".75" ry=".75" transform="translate(-14.38 20.23) rotate(-45)"/><rect class="cls-1" x="13.31" y="24.63" width="1.51" height="5.69" rx=".75" ry=".75" transform="translate(4.57 56.84) rotate(-135)"/><rect class="cls-1" x="17.63" y="4.7" width="1.34" height="7.21" rx=".67" ry=".67" transform="translate(11.23 -10.5) rotate(45)"/><rect class="cls-1" x="12.76" y="4.7" width="1.34" height="7.21" rx=".67" ry=".67" transform="translate(28.81 4.68) rotate(135)"/><rect class="cls-1" x="17.4" y="21.08" width="1.34" height="7.21" rx=".67" ry=".67" transform="translate(-12.16 20.01) rotate(-45)"/><rect class="cls-1" x="12.54" y="21.08" width="1.34" height="7.21" rx=".67" ry=".67" transform="translate(5.1 51.49) rotate(-135)"/><g><rect class="cls-1" x="14.89" y="2.55" width="2.3" height="28.52" rx="1.04" ry="1.04" transform="translate(-6.65 21.8) rotate(-58.77)"/><rect class="cls-1" x="6.99" y="6.89" width="1.51" height="5.69" rx=".75" ry=".75" transform="translate(-2.1 2.12) rotate(-13.77)"/><rect class="cls-1" x="5.35" y="9.6" width="1.51" height="5.69" rx=".75" ry=".75" transform="translate(16.74 3.56) rotate(76.23)"/><rect class="cls-1" x="25.64" y="18.39" width="1.51" height="5.69" rx=".75" ry=".75" transform="translate(12.05 51.92) rotate(-103.77)"/><rect class="cls-1" x="24" y="21.1" width="1.51" height="5.69" rx=".75" ry=".75" transform="translate(54.48 41.31) rotate(166.23)"/><rect class="cls-1" x="9.89" y="6.78" width="1.34" height="7.21" rx=".67" ry=".67" transform="translate(-2.17 2.81) rotate(-13.77)"/><rect class="cls-1" x="7.37" y="10.94" width="1.34" height="7.21" rx=".67" ry=".67" transform="translate(20.25 3.27) rotate(76.23)"/><rect class="cls-1" x="23.78" y="15.46" width="1.34" height="7.21" rx=".67" ry=".67" transform="translate(11.75 47.35) rotate(-103.77)"/><rect class="cls-1" x="21.26" y="19.62" width="1.34" height="7.21" rx=".67" ry=".67" transform="translate(48.75 40.56) rotate(166.23)"/></g><g><rect class="cls-1" x="14.97" y="1.84" width="2.3" height="28.52" rx="1.04" ry="1.04" transform="translate(21.53 -6.03) rotate(58.77)"/><rect class="cls-1" x="7.07" y="20.32" width="1.51" height="5.69" rx=".75" ry=".75" transform="translate(5.74 -1.2) rotate(13.77)"/><rect class="cls-1" x="5.43" y="17.61" width="1.51" height="5.69" rx=".75" ry=".75" transform="translate(-15.16 21.59) rotate(-76.23)"/><rect class="cls-1" x="25.72" y="8.82" width="1.51" height="5.69" rx=".75" ry=".75" transform="translate(44.11 -11.26) rotate(103.77)"/><rect class="cls-1" x="24.08" y="6.12" width="1.51" height="5.69" rx=".75" ry=".75" transform="translate(46.82 23.58) rotate(-166.23)"/><rect class="cls-1" x="9.97" y="18.92" width="1.34" height="7.21" rx=".67" ry=".67" transform="translate(5.67 -1.89) rotate(13.77)"/><rect class="cls-1" x="7.45" y="14.76" width="1.34" height="7.21" rx=".67" ry=".67" transform="translate(-11.65 21.88) rotate(-76.23)"/><rect class="cls-1" x="23.86" y="10.23" width="1.34" height="7.21" rx=".67" ry=".67" transform="translate(43.81 -6.69) rotate(103.77)"/><rect class="cls-1" x="21.34" y="6.08" width="1.34" height="7.21" rx=".67" ry=".67" transform="translate(41.09 24.32) rotate(-166.23)"/></g></g></g></svg>