<?xml version="1.0" encoding="UTF-8"?><svg id="how_to_prevent" xmlns="http://www.w3.org/2000/svg" viewBox="0 0 32 32"><defs><style>.cls-1{fill:none;}.cls-1,.cls-2,.cls-3,.cls-4,.cls-5,.cls-6,.cls-7,.cls-8,.cls-9,.cls-10,.cls-11,.cls-12{stroke-width:0px;}.cls-2{fill:#6791a8;}.cls-3{fill:#d7e6f1;}.cls-4{fill:#3c6277;}.cls-5{fill:#e6e2e6;}.cls-6{fill:#b2e1ed;}.cls-7{fill:#c0efff;}.cls-8{fill:#e6f3fc;}.cls-9{fill:#a0c8ec;}.cls-10{fill:#77a8c7;}.cls-11{fill:#fff;}.cls-12{fill:#8dc4e2;}</style></defs><path class="cls-11" d="M20.94,27.51l-.02.06c-.09.07-.16.16-.24.25-.23.26-.41.57-.67.8-.46.4-1.16.57-1.77.62-1.07.08-2.18-.28-3-.98-.5-.42-.9-.95-1.43-1.31-.46-.32-1.02-.5-1.58-.51-.31-.01-.63.03-.94.02-.29,0-.58-.05-.86-.1-.26-.05-.52-.12-.75-.26-.22-.14-.4-.37-.42-.64-.01-.1,0-.2.05-.29.31-.16.69-.32,1.18-.47.24-.07.59-.15,1-.22.03,0,.07,0,.1-.01.1-.02.22-.04.33-.06v.07h0v-.07c.1,0,3.33-.21,6.2-.08.79.04,1.65.09,2.52.17,1.39.13,2.78.31,3.96.59h.02c.78.19,1.46.42,1.96.7h-1.44c-.1.15-.25.26-.41.36h0s-.1.06-.16.09c-.19.1-.37.21-.56.31-.03,0-.06,0-.09.01-.04,0-.08.01-.12.02-.34.04-.68.09-1.05.13-.04,0-.09,0-.13.01-.09.01-.19.02-.29.03-.05,0-.1,0-.15.01-.03,0-.05,0-.08,0-.08.01-.16.02-.24.02-.28.02-.54.15-.73.34h.04c-.1.1-.19.23-.24.37Z"/><path class="cls-10" d="M28.29,25.3c-.01.1-.04.19-.08.27h0c-.19.44-.6.79-.6.79l-.31-.02h0l-.66-.05s0,0,0,0l-.86-.07h0l-1.02-.07c.16-.1.31-.21.41-.36h1.44c-.5-.28-1.18-.51-1.96-.69h0s0,0-.01,0c-1.17-.28-2.57-.46-3.96-.59-.87-.08-1.73-.13-2.52-.17-2.87-.13-6.09.07-6.2.08v.07h0v-.07c-.11.02-.23.04-.33.06h0s-.1-.95-.1-.95c.04-.05.18-.11.42-.15,1.32-.27,5.4-.37,7.79-.27,2.8.1,6.35.67,7.91,1.31.57.24.73.57.68.89Z"/><path class="cls-10" d="M25.15,25.79c-.1.15-.25.26-.41.36h0s-.1.06-.16.09c-.19.1-.37.21-.56.31-.03,0-.06,0-.09.01-.04,0-.08.01-.12.02-.34.04-.68.09-1.05.13-.04,0-.09,0-.13.01-.09.01-.19.02-.29.03-.05,0-.1,0-.15.01-.03,0-.05,0-.08,0-.08.01-.16.02-.24.02-.28.02-.54.15-.73.34h.04c-.1.1-.19.23-.24.37l-.02.06c-.09.07-.16.16-.24.25-.23.26-.41.57-.67.8-.46.4-1.16.57-1.77.62-1.07.08-2.18-.28-3-.98-.5-.42-.9-.95-1.43-1.31-.46-.32-1.02-.5-1.58-.51-.31-.01-.63.03-.94.02-.29,0-.58-.05-.86-.1-.26-.05-.52-.12-.75-.26-.22-.14-.4-.37-.42-.64-.01-.1,0-.2.05-.29.31-.16.69-.32,1.18-.47.24-.07.59-.15,1-.22.03,0,.07-.01.1-.02.1-.02.21-.04.33-.05v.07h0v-.07c0-.07,0-.15,0-.23s0-.16,0-.23c0-.16,0-.32-.01-.47v-.28c-.19.02-.37.04-.55.06-3.08.39-5.11,1.06-5.11,1.84,0,.03,0,.06,0,.09h0s.06,3.76,1.67,4.26c.73.41,2.02.76,3.65,1.01,1.64.24,3.64.39,5.8.39,1.62,0,3.15-.08,4.5-.23.49-.13.97-.27,1.45-.43.9-.3,1.8-.65,2.55-1.24.75-.59,1.34-1.43,1.44-2.38,0-.09.01-.15,0-.21,0-.06-.02-.11-.04-.16-.01-.03-.03-.05-.05-.08.14-.05.27-.11.39-.16.05-.02.11-.05.16-.07.05-.02.1-.05.14-.08h-2.74Z"/><path class="cls-7" d="M26.58,25.79h-1.44c-.1.15-.25.26-.41.36h0s-.1.06-.16.09c-.19.1-.37.21-.56.31-.03,0-.06,0-.09.01-.04,0-.08.01-.12.02-.34.04-.68.09-1.05.13-.04,0-.09,0-.13.01-.09.01-.19.02-.29.03-.05,0-.1,0-.15.01-.03,0-.05,0-.08,0-.08.01-.16.02-.24.02-.28.02-.54.15-.73.34h.04c-.1.1-.19.23-.24.37l-.02.06c-.09.07-.16.16-.24.25-.23.26-.41.57-.67.8-.46.4-1.16.57-1.77.62-1.07.08-2.18-.28-3-.98-.5-.42-.9-.95-1.43-1.31-.46-.32-1.02-.5-1.58-.51-.31-.01-.63.03-.94.02-.29,0-.58-.05-.86-.1-.26-.05-.52-.12-.75-.26-.22-.14-.4-.37-.42-.64-.01-.1,0-.2.05-.29.31-.16.69-.32,1.18-.47.24-.07.59-.15,1-.22.03,0,.07,0,.1-.01.1-.02.22-.04.33-.06v.07h0v-.07c.1,0,3.33-.21,6.2-.08.79.04,1.65.09,2.52.17,1.39.13,2.78.31,3.96.59h.02c.78.19,1.46.42,1.96.7Z"/><path class="cls-5" d="M20.92,27.57l-.77,1.91c-.1.24-.32.43-.58.47-1.49.26-2.96.26-4.42,0-.26-.04-.48-.22-.59-.47l-.79-1.97c-.05-.14-.13-.26-.24-.37-.02-.02-.04-.04-.07-.07-.02-.02-.05-.04-.08-.06-.02-.02-.04-.03-.06-.05-.01,0-.02-.01-.03-.01-.01-.01-.02-.02-.04-.02-.07-.04-.13-.07-.21-.09l-.22-.04s0,0-.01,0h-.01c-.09-.01-.18-.02-.26-.02-.02,0-.03,0-.04,0-.1-.01-.21-.02-.32-.03-.05,0-.1-.01-.15-.02-.1,0-.2-.02-.3-.03-.34-.04-.67-.08-.98-.13-.04,0-.09-.01-.13-.02-.02,0-.04,0-.05,0-.02,0-.04,0-.06-.01-.02,0-.04,0-.05,0-.08-.01-.15-.02-.23-.04-.04,0-.08-.01-.12-.02h-.01s-.08-.01-.12-.02c-.04,0-.08-.02-.12-.02-.03,0-.07-.01-.1-.02-.06-.01-.12-.02-.19-.04,0,0,0,0,0,0-.02,0-.04,0-.05,0-.04,0-.07-.01-.1-.02-.05,0-.09-.02-.14-.03l-.09-.02c-.06-.01-.12-.02-.18-.04-.02,0-.04,0-.06-.01-.02,0-.05-.01-.07-.02-.08-.02-.16-.04-.24-.07-.01,0-.03,0-.05-.01-.02,0-.04,0-.05-.02-.04,0-.08-.02-.12-.03h-.01s-.03-.01-.04-.02c.13-.26.4-.57.96-.87h0c-.04.09-.06.19-.05.29.02.26.2.49.42.64.23.14.48.21.75.26.28.05.57.1.86.1.31,0,.63-.04.94-.02.56.01,1.12.2,1.58.51.53.37.93.9,1.43,1.31.82.7,1.93,1.06,3,.98.61-.05,1.31-.21,1.77-.62.26-.23.44-.54.67-.8.07-.09.15-.18.24-.25Z"/><path class="cls-5" d="M26.69,25.96s-.01,0-.02,0c-.02,0-.03.01-.04.02-.02,0-.03.01-.04.01h0s-.08.03-.12.04c0,0-.02,0-.02,0-.02,0-.05.01-.07.02-.05.01-.1.02-.15.04-.03,0-.06.01-.09.02-.05.01-.11.02-.17.04-.03,0-.07.02-.1.02-.03.01-.05.01-.08.02h0s-.01,0-.02,0c-.04.01-.07.02-.12.02-.04.01-.07.02-.11.02-.04.01-.08.02-.12.03-.04,0-.07.01-.1.02-.01,0-.02,0-.03.01-.07.01-.15.02-.23.04-.1.02-.2.04-.31.05-.04,0-.08.01-.12.02-.12.02-.23.04-.35.05l-.11.02s-.08.01-.12.02c.18-.1.37-.21.56-.31.05-.03.11-.06.16-.09h0c.16-.1.31-.21.41-.36h1.44c.04.05.07.11.1.17Z"/><path class="cls-5" d="M21.76,23.82s.04-.1.06-.14c-.02.05-.04.1-.06.14h0Z"/><path class="cls-12" d="M13.53,27.14c-4.09-.3-7.1-1.06-7.29-1.96,0-.02,0-.05,0-.09,0-.78,2.03-1.45,5.11-1.84.18-.02.36-.04.54-.06v.13s0,.15,0,.15c0,.15.01.31.01.47,0,.07,0,.15,0,.23v.23c-.12.02-.23.04-.33.05-.04,0-.07.01-.1.02-.42.07-.76.15-1,.22-.49.15-.88.31-1.18.47h0c-.56.3-.83.61-.96.87.01,0,.02.01.04.01h0s0,0,0,0c.04.01.08.02.12.03.16.04.43.11.76.19.09.02.19.04.29.06,0,0,0,0,0,0,.07.01.13.02.19.04.04,0,.07.01.1.02.04,0,.09.02.12.02.05.01.12.02.17.04.01,0,.02,0,.04,0,.07.01.15.02.22.04.04,0,.08.01.12.02.02,0,.04,0,.05,0,.04,0,.09.01.13.02.32.05.64.09.98.13.1.01.2.02.3.03.05,0,.1.01.15.02.1.01.21.02.31.03.01,0,.02,0,.04,0,.01,0,.02,0,.04,0,.09.01.2.02.29.03l.22.04c.07.02.14.05.21.09h0s.02.01.04.02c0,0,.02.01.03.01h0s.04.03.06.05c.03.02.05.04.08.06.02.02.05.04.07.07Z"/><path class="cls-12" d="M27.89,25.79s-.09.05-.14.08c-.05.02-.1.05-.16.07-.12.05-.25.11-.39.16-.02,0-.04.01-.05.02-.16.05-.33.12-.51.16,0,0,0,0,0,0-.16.05-.34.1-.53.15-1.26.31-2.96.56-4.92.7h-.04c.19-.2.45-.32.73-.34.08,0,.16-.01.24-.02.02,0,.05,0,.08,0,.05,0,.1,0,.15-.01.1-.01.2-.02.29-.03.05,0,.09,0,.13-.01.37-.04.71-.09,1.05-.13.04,0,.07-.01.12-.02.03,0,.06,0,.09-.01.04,0,.08-.01.12-.02l.11-.02c.12-.02.24-.04.35-.05.04-.01.09-.02.12-.02.11-.02.21-.04.31-.05.08-.02.16-.03.23-.04.01,0,.02,0,.03-.01.04,0,.07-.01.1-.02.04-.01.08-.02.12-.03.04,0,.07-.01.11-.02.04,0,.08-.01.12-.02,0,0,.01,0,.02,0h0s.05,0,.08-.02c.04,0,.07-.02.1-.02.06-.02.12-.03.17-.04.03-.01.06-.02.09-.02.05-.02.1-.03.15-.04.02-.01.05-.02.07-.02,0,0,.02,0,.02,0,.04-.01.08-.03.12-.04h0s.02,0,.04-.01c.01,0,.02-.01.04-.02,0,0,.01,0,.02,0-.03-.06-.06-.12-.1-.17h1.31Z"/><path class="cls-6" d="M26.69,25.96s-.01,0-.02,0c-.02,0-.03.01-.04.02-.02,0-.03.01-.04.01h0s-.08.03-.12.04c0,0-.02,0-.02,0-.02,0-.05.01-.07.02-.05.01-.1.02-.15.04-.03,0-.06.01-.09.02-.05.01-.11.02-.17.04-.03,0-.07.02-.1.02-.03.01-.05.01-.08.02h0s-.01,0-.02,0c-.04.01-.07.02-.12.02-.04.01-.07.02-.11.02-.04.01-.08.02-.12.03-.04,0-.07.01-.1.02-.01,0-.02,0-.03.01-.07.01-.15.02-.23.04-.1.02-.2.04-.31.05-.04,0-.08.01-.12.02-.12.02-.23.04-.35.05l-.11.02s-.08.01-.12.02c.18-.1.37-.21.56-.31.05-.03.11-.06.16-.09h0c.16-.1.31-.21.41-.36h1.44c.04.05.07.11.1.17Z"/><path class="cls-6" d="M20.92,27.57l-.77,1.91c-.1.24-.32.43-.58.47-1.49.26-2.96.26-4.42,0-.26-.04-.48-.22-.59-.47l-.79-1.97c-.05-.14-.13-.26-.24-.37-.02-.02-.04-.04-.07-.07-.02-.02-.05-.04-.08-.06-.02-.02-.04-.03-.06-.04h0s-.02-.02-.03-.02c-.01-.01-.02-.01-.04-.02h0c-.07-.04-.13-.07-.21-.09l-.22-.04s0,0-.01,0h-.01c-.09-.01-.18-.02-.26-.02-.02,0-.03,0-.04,0-.1-.01-.21-.02-.32-.03-.05,0-.1-.01-.15-.02-.1,0-.2-.02-.3-.03-.34-.04-.67-.08-.98-.13-.04,0-.09-.01-.13-.02-.02,0-.04,0-.05,0-.02,0-.04,0-.06-.01-.02,0-.04,0-.05,0-.08-.01-.15-.02-.23-.04-.04,0-.08-.01-.12-.02h-.01s-.08-.01-.12-.02c-.04,0-.08-.02-.12-.02-.03,0-.07-.01-.1-.02-.06-.01-.12-.02-.19-.04,0,0,0,0,0,0-.02,0-.04,0-.05,0-.04,0-.07-.01-.1-.02-.05,0-.09-.02-.14-.03l-.09-.02c-.06-.01-.12-.02-.18-.04-.02,0-.04,0-.06-.01-.02,0-.05-.01-.07-.02-.08-.02-.16-.04-.24-.07-.01,0-.03,0-.05-.01-.02,0-.04,0-.05-.02-.04,0-.08-.02-.12-.03h-.01s-.03-.01-.04-.02c.13-.26.4-.57.96-.87h0c-.04.09-.06.19-.05.29.02.26.2.49.42.64.23.14.48.21.75.26.28.05.57.1.86.1.31,0,.63-.04.94-.02.56.01,1.12.2,1.58.51.53.37.93.9,1.43,1.31.82.7,1.93,1.06,3,.98.61-.05,1.31-.21,1.77-.62.26-.23.44-.54.67-.8.07-.09.15-.18.24-.25Z"/><path class="cls-10" d="M11.92,24.17v.23c-.12.02-.23.04-.33.05-.04,0-.07.01-.1.02-.42.07-.76.15-1,.22-.49.15-.88.31-1.18.47h0c-.56.3-.83.61-.96.87h-.02s-.05-.02-.07-.02c-.07-.02-.14-.05-.21-.07-.01,0-.02-.01-.04-.02-.08-.02-.15-.05-.23-.09-.01,0-.02,0-.04-.01-.02,0-.04-.02-.05-.02-.01,0-.02,0-.04-.01-.05-.02-.1-.05-.14-.07-.02,0-.04-.02-.05-.02-.05-.03-.1-.05-.14-.08-.01-.01-.02-.02-.04-.03-.02-.01-.05-.03-.07-.05,0,0-.01,0-.02-.01-.01,0-.02-.01-.02-.02l-.02-.02c-.08-.06-.13-.12-.18-.18,0,0,0-.01,0-.02-.01-.02-.02-.04-.03-.05v-.02s0,0,0,0c0,0,0-.01-.01-.02,0,0,0-.01,0-.02h-.04s-.01-.05-.01-.09c0-.65,1.84-1.23,4.65-1.57.13-.02.27-.04.42-.05,0,.15.01.31.01.47,0,.07,0,.15,0,.23Z"/><path class="cls-10" d="M27.13,25.78s-.02.01-.04.02c-.01,0-.02.01-.04.02-.01,0-.02.01-.04.02-.02,0-.03.01-.05.02-.03.01-.06.03-.1.04-.01,0-.03.01-.04.02-.04.01-.08.03-.12.04,0,0-.01,0-.02,0-.03-.06-.07-.12-.1-.17h.55Z"/><path class="cls-12" d="M28.52,25.03v.11c-.09.38-.62.64-.62.64h-.76s1.02-.1.85-.93c-.1-.48-3.41-1.15-4.32-1.29-.76-.11-1.75-.19-1.71-.18,0,0-2.83-.39-10.04.08v-.15s0-.13,0-.13c0,0,5.41-.59,10.14-.08,1.14.11,1.89.26,1.98.29,0,0,0,0,0,0,.87.14,3.78.64,4.34,1.29.1.12.15.23.15.33,0,0,0,0,0,0Z"/><path class="cls-4" d="M11.76,29.85s.2.19.81,0c.62-.16.69-.43.69-.43.09-.16.06-.4-.06-.55,0,0-.35-.31-.76-.35,0,0-.15-.02-.24,0h0s0,0,0,0h0s0,0,0,0c-.09.03-.21.12-.21.12-.33.26-.47.7-.47.7-.03.19.08.4.24.5Z"/><path class="cls-4" d="M12.64,27.88c.03.23-.08.44-.24.46-.16.02-.32-.15-.36-.38-.03-.23.08-.44.24-.46.16-.02.32.15.36.38Z"/><path class="cls-4" d="M11.88,28c.13.2.11.43-.03.52-.14.09-.36,0-.48-.19-.13-.2-.11-.43.03-.52.14-.09.36,0,.48.19Z"/><path class="cls-4" d="M11.41,28.57c.18.14.25.37.14.5-.1.13-.34.12-.52-.03-.18-.14-.25-.37-.14-.5.1-.13.34-.12.52.03Z"/><path class="cls-4" d="M12.76,28.15c-.03.23.08.44.24.46.17.02.32-.15.36-.38.03-.23-.08-.44-.24-.46-.16-.02-.32.15-.36.38Z"/><path class="cls-2" d="M28.5,25.15l-.06.64-.02.22c-.02.15-.04.32-.06.5,0,.03,0,.07-.02.1,0,0,0,0,0,.01,0,.04-.01.08-.02.12,0,.03,0,.05-.02.08,0,.04-.01.07-.02.11-.01.06-.03.13-.04.2-.01.05-.02.1-.04.15-.06.26-.14.51-.24.76,0,.03-.02.05-.03.08-.03.06-.06.13-.08.19-.02.03-.03.06-.05.09-.02.05-.05.09-.08.14-.02.03-.03.06-.05.08-.02.03-.04.06-.06.09-.03.04-.05.08-.08.11,0,0,0,.01-.01.02-.03.03-.05.07-.08.1s-.06.06-.09.09c0,0-.01.01-.02.02-.03.03-.06.06-.09.08,0,0,0,0-.01.01-.03.03-.07.06-.11.08-.76.61-2.71,1.11-5.27,1.39.49-.13.97-.27,1.45-.43.9-.3,1.8-.66,2.55-1.24.75-.58,1.34-1.43,1.44-2.37.02-.17,0-.28-.04-.37-.01-.03-.03-.06-.05-.08.14-.05.27-.11.39-.16.06-.02.11-.05.16-.08.05-.02.1-.05.14-.08,0,0,.53-.26.61-.64Z"/><path class="cls-12" d="M28.52,25.02h0s-.01.12-.01.12c-.08.38-.61.64-.61.64l.62-.76h0Z"/><path class="cls-12" d="M21.72,14.32c-.09-.3-.26-.68-.43-.96.12-.05.21-.13.25-.18.02-.02.02-.05,0-.07-.18-.11-.31-.2-.45-.35,0,0,0,0,0,0-.07-.07-.14-.16-.2-.26-.12-.19-.21-.42-.29-.62-.37-.95-1.22-.78-1.42-.34,0,0,0,.02-.01.02,0,.01-.01.03-.01.04,0,.03-.01.06-.02.09,0,.02-.02.04-.02.06,0,.02,0,.04,0,.06,0,.04,0,.09.01.13,0,.01,0,.02,0,.04,0,0,0,.02,0,.03,0,.01,0,.02.02.02.02,0,.03.03.04.05,0,.02.01.04,0,.06-.01.07-.03.13-.04.2,0,.04.05.05.08.04.01,0,.02,0,.02.01,0,.01,0,.03,0,.04,0,.02,0,.03.01.04,0,0,.01,0,.02.01,0,0,0,0,0,0,0,0,0,.01,0,.02,0,0,0,.02,0,.02,0,0,.01.01.02.01.02,0,.04.02.05.04,0,.02,0,.03.02.05.07.11.16.03.24-.02.03-.02.06-.04.1-.05.01,0,.03,0,.04,0,.05.02.05.15.03.19-.04.08-.1.14-.17.2-.06.07-.13.13-.2.18-.16.13-.44.27-.46.5-.01.14.04.23.1.29.07.07.08.18.03.26-.31.47-.65.68-.63,1.09.02.55.45.79.58.85.03.01.05.03.07.05.08.08.11.14.11.21.02.57.21,1.52.28,1.91h.97c.03-.37.1-1.12.1-1.43.26-.13.45-.67.21-1.11.15-.22-.08-.31-.18-.59.03-.06.7-.4.88-.56.06-.05.26-.2.23-.32ZM21.29,14.32s0,0,0,0c0,0,0,0,0,0,0,0,0,0,0,0-.06.04-.11.09-.17.13-.02.01-.03.03-.05.04,0,0-.02.01-.03.02-.03.02-.05.04-.07.06-.02.02-.05.04-.07.06-.02.01-.03.03-.05.04-.02.01-.03.03-.05.04-.05.04-.09.07-.14.1-.03.02-.06.04-.09.05-.02,0-.03.02-.05.02,0,0-.02,0-.02,0-.24-.57.18-.74.35-1.27,0,0,0,0,0,0,0,0,0,0,0,0,0,0,0,.01.01.02,0,0,0,.01.02.02,0,0,0,.01.01.02,0,0,0,.01.01.02,0,0,0,0,0,0,0,0,.01.01.02.02,0,0,.01.01.02.02,0,0,.01.01.02.02.04.05.09.11.14.17,0,0,.01.02.02.03,0,0,.01.02.02.03,0,0,.01.02.02.02,0,0,.01.02.02.02,0,0,.01.02.02.02,0,0,0,0,0,.01,0,0,.01.02.02.02.01.02.02.03.03.05.04.06.06.11.04.14Z"/><path class="cls-4" d="M23.9,11.92c-.18-.29-.39-.56-.62-.81-.81-.83-1.93-1.34-3.17-1.34-1.06,0-2.02.37-2.79.98-.32.26-.6.55-.83.89-.26.36-.46.77-.6,1.2-.14.43-.21.89-.21,1.37,0,2.45,1.99,4.44,4.44,4.44.96,0,1.84-.3,2.57-.82.33-.24.63-.52.89-.84.62-.76.98-1.73.98-2.78,0-.84-.23-1.62-.64-2.29ZM20.1,18.06c-2.12,0-3.85-1.73-3.85-3.85,0-.79.24-1.53.65-2.14l5.33,5.33c-.61.41-1.35.65-2.14.65ZM23.13,16.57l-5.4-5.4c.65-.51,1.47-.81,2.36-.81,1.05,0,2,.42,2.7,1.11h0c.33.32.6.7.79,1.12.23.49.36,1.04.36,1.61,0,.89-.3,1.71-.81,2.36Z"/><path class="cls-12" d="M10.79,9.77c-2.45,0-4.44,1.99-4.44,4.44s1.99,4.44,4.44,4.44,4.44-1.99,4.44-4.44-1.99-4.44-4.44-4.44ZM10.86,18.11c-2.19,0-3.97-1.78-3.97-3.97s1.78-3.97,3.97-3.97,3.97,1.78,3.97,3.97-1.78,3.97-3.97,3.97Z"/><path class="cls-12" d="M11.13,14.21s-.01.09-.03.14l2.75-1.48-2.92,1.03c.12.05.2.17.2.31Z"/><path class="cls-12" d="M10.79,13.87s.09,0,.12.02l-.79-1.81.41,1.9c.06-.07.15-.11.25-.11Z"/><path class="cls-12" d="M11.13,14.21c0-.14-.08-.26-.2-.31,0,0,0,0-.01,0-.04-.01-.08-.02-.12-.02-.1,0-.19.04-.25.11-.06.06-.09.14-.09.23,0,.19.15.34.34.34.14,0,.26-.08.31-.2.02-.04.03-.09.03-.14Z"/><path class="cls-12" d="M10.74,11.28h0s-.08-.04-.08-.08v-.5s.04-.08.08-.08.08.04.08.08v.5s-.04.08-.08.08Z"/><path class="cls-12" d="M13.63,14.18h0s.04-.08.08-.08h.5s.08.04.08.08-.04.08-.08.08h-.5s-.08-.04-.08-.08Z"/><path class="cls-12" d="M12.79,12.13h0s-.03-.09,0-.12l.35-.35s.09-.03.12,0h0s.03.09,0,.12l-.35.35s-.09.03-.12,0Z"/><path class="cls-12" d="M12.79,16.22h0s.09-.03.12,0l.35.35s.03.09,0,.12c-.03.03-.09.03-.12,0l-.35-.35s-.03-.09,0-.12Z"/><path class="cls-12" d="M8.23,11.66h0s.09-.03.12,0l.35.35s.03.09,0,.12-.09.03-.12,0l-.35-.35s-.03-.09,0-.12Z"/><path class="cls-12" d="M10.74,17.73h0s-.08-.04-.08-.08v-.5s.04-.08.08-.08.08.04.08.08v.5s-.04.08-.08.08Z"/><path class="cls-12" d="M7.18,14.18h0s.04-.08.08-.08h.5s.08.04.08.08-.04.08-.08.08h-.5s-.08-.04-.08-.08Z"/><path class="cls-12" d="M8.23,16.69h0s-.03-.09,0-.12l.35-.35s.09-.03.12,0,.03.09,0,.12l-.35.35s-.09.03-.12,0Z"/><path class="cls-6" d="M22.74,25.94c-.3.16-.6.32-.85.45-.92.48-1.07.18-1.83-.29-.31-.19-.67-.33-.99-.44l3.68.28Z"/><path class="cls-6" d="M24.41,25.04s-.85.46-1.67.9l-3.68-.28c-.47-.16-.84-.24-.74-.28.16-.07.9-.31.9-.31,0,0,.58-.38,1.27-.62,1.37.12,2.75.31,3.91.58,0,0,0,0,.01,0,0,0,0,0,0,0Z"/><path class="cls-9" d="M23.31,23.57c-.17.42-1.14,1.2-1.33,1.35.21-.18,1.51-1.33,1.07-1.77-.14-.14-.37-.22-.69-.22-.64,0-1.6.35-2.73,1.24-.24.19-.49.41-.75.65l-.15-.05s.16-.15.42-.36c0,0,0,0,0,0,.67-.56,1.99-1.57,2.88-1.68.36-.05.63-.04.84.01.52.12.58.5.45.83Z"/><path class="cls-9" d="M23.45,21.63h0,0Z"/><path class="cls-10" d="M25.23,20.96c-.26.28-.51.54-.72.77,0,0-.02.02-.03.03-.09.09-.17.18-.25.26-.05.05-.09.09-.12.13-.24.26-.39.41-.39.41,0,0,0,0,0,0,.05.06.6.76,0,1.29-.63.55-2.42,1.8-2.42,1.8l-2.42-.84c.26-.24.51-.46.75-.65,1.14-.89,2.1-1.24,2.73-1.24.32,0,.55.08.69.22.44.44-.86,1.59-1.07,1.77.19-.15,1.16-.93,1.33-1.35.13-.34.07-.71-.45-.83-.2-.05-.48-.06-.84-.01-.89.11-2.21,1.13-2.88,1.68,0,0,0,0,0,0-.26.21-.42.36-.42.36l-.18-.06h0c.07-.08,2.32-2.93,4.51-2.55,0,0,.14-.2.38-.52h0s0,0,0,0c.03-.05.07-.1.11-.15.06-.08.12-.16.18-.25.02,0,.04,0,.06,0,.27-.02.87-.03.99-.02.12,0,.3-.18.3-.18,0,0,0,0,0,0,.02,0,.07-.02.14-.05Z"/><path class="cls-10" d="M27.98,17.86c-.57.74-1.73,2.01-2.69,3.05-.02.02-.03.04-.05.05-.07.02-.12.04-.14.05,0,0,0,0,0,0,0,0-.18.19-.3.18-.12,0-.73,0-.99.02-.02,0-.04,0-.06,0,.03-.04.06-.08.09-.13.14-.19.29-.4.45-.63.33-.46.7-.97,1.06-1.46.25-.34.5-.67.72-.97.44-.59.78-1.04.9-1.16.44-.46,1.25,0,1.36.39.02.07-.12.28-.35.59Z"/><path class="cls-2" d="M23.31,23.57c-.17.42-1.14,1.2-1.33,1.35.21-.18,1.51-1.33,1.07-1.77-.14-.14-.37-.22-.69-.22-.64,0-1.6.35-2.73,1.24-.24.19-.49.41-.75.65l-.15-.05s.16-.15.42-.36c0,0,0,0,0,0,.67-.56,1.99-1.57,2.88-1.68.36-.05.63-.04.84.01.52.12.58.5.45.83Z"/><path class="cls-8" d="M23.56,21.47c-.04.05-.08.11-.11.15,0,0,0,0,0,0h0s-.03,0-.04,0c0,0-.02,0-.02,0h0s-.02,0-.04,0c-.03,0-.05-.01-.07-.02-.14-.03-.23-.12-.16-.26h0s.02-.03.03-.05c.1-.15.36-.06.61-.07-.06.09-.12.17-.18.25Z"/><path class="cls-3" d="M30.86,20.51s-.4-.16-.78-.13c-.38.03-.44.14-.94.06-.5-.08-1.36.75-1.69,1-.33.26-.64.77-1.11.87-.3.06-.56.14-.76.18,0,0,0,0,0,0-.1.02-.19.04-.27.04-.11,0-.14-.07-.11-.16,0,0,0,0,0,0,.02-.09.09-.18.18-.22.19-.08.7-.18.7-.18l.24-.22s-.72.36-1.17.39c-.26.02-.65.02-.94.01h-.08s.08-.08.12-.13c.08-.08.16-.17.25-.26,0,0,.02-.02.03-.03.21-.23.46-.49.72-.77-.07.02-.12.04-.14.05,0,0,0,0,0,0,0,0-.85.14-1.26.08-.02,0-.05,0-.07-.01-.07-.02-.15-.04-.21-.05-.25-.07-.42-.13-.45-.14t0,0s0,0,0,0c-.02-.03-.05-.1-.01-.19,0-.01,0-.02,0-.02.02-.03.04-.06.08-.1.19-.16.49.03.72-.04.09-.03.24-.05.39-.07.23-.04.48-.09.62-.21.22-.21.38-.33.65-.44.28-.11,1.02-.95,1.02-.95,0,0-.81.13-1.23.15-.08,0-.14,0-.18,0-.27-.03-.56-.15-.68-.47-.05-.15-.02-.24.06-.29.08-.05.19-.07.32-.07h0s.06,0,.1,0c.22.01.67-.05,1.1-.15.17-.04.33-.08.48-.12.44-.13,1.01-.2,1.44-.06.08.03.16.06.24.1.43.26.98.49,1.17.5.19,0,.56-.35.93.37.38.71.52.94.47,1.21-.05.26.08.47.08.47Z"/><path class="cls-2" d="M26.1,21.31c-.2.13-.76.41-.93.45-.09.02-.41.01-.68,0,0,0,.02-.02.03-.03.26,0,.55-.02.61-.04.12-.04.36-.1.63-.25.27-.15.67-.41.8-.37.13.04-.25.1-.46.23Z"/><path class="cls-2" d="M26.28,20.51c-.15.04-.34.12-.52.23-.12.07-.37.16-.53.22-.07.02-.12.04-.14.05.02-.01.09-.05.19-.1.15-.08.35-.19.46-.25.2-.1.47-.31.73-.26.26.05-.04.07-.2.11Z"/><path class="cls-2" d="M25.08,18.63s.13,0,.15-.06-.01-.28-.09-.33-.15-.03-.29-.05-.31-.03-.32.02.08.28.1.37.35.06.45.04Z"/><path class="cls-2" d="M23.55,21.03s.05-.08-.06-.19-.4-.17-.4-.17c0,0-.08.13,0,.22s.45.14.45.14Z"/><path class="cls-2" d="M23.56,21.47c-.04.05-.08.11-.11.15,0,0-.02,0-.04,0,0,0-.02,0-.02,0h0s-.02,0-.04,0c-.04,0-.09-.01-.15-.02-.15-.02-.13-.21-.08-.25h0s.13-.03.26,0c.11.02.17.07.19.14Z"/><path class="cls-2" d="M24.24,22.05c0,.09-.04.1-.05.1h-.08s.08-.08.12-.13c0,0,0,.02,0,.03Z"/><path class="cls-2" d="M25.57,22.49s.05-.03.02-.1-.22-.05-.31-.06-.12.04-.13.13.12.13.42.02Z"/><path class="cls-2" d="M27.12,21.19s.29-.12.4-.25.1-.28.2-.28,0,.19-.04.29-.57.24-.57.24Z"/><path class="cls-2" d="M26.95,20.73s.26-.09.41-.27.12-.21.09-.23-.18.22-.32.31-.31.19-.18.18Z"/><path class="cls-2" d="M26.7,20.11s.18-.09.3-.19.16-.14.14-.24-.19.14-.29.23-.27.23-.15.21Z"/><path class="cls-2" d="M24.11,23.9c-.25.37-2.77,1.9-2.77,1.9l-2.73-.96-.06-.14.18.06.15.05,2.42.84s1.79-1.25,2.42-1.8c.6-.53.05-1.23,0-1.29.46.25.64.97.39,1.34Z"/><rect class="cls-1" width="32" height="32"/></svg>