<?xml version="1.0" encoding="UTF-8"?>
<svg id="Livello_1" data-name="Livello 1" xmlns="http://www.w3.org/2000/svg" version="1.1" viewBox="0 0 76.5 76.5">
  <defs>
    <style>
      .cls-1 {
        fill: #ede6ea;
      }

      .cls-1, .cls-2, .cls-3, .cls-4, .cls-5, .cls-6, .cls-7, .cls-8, .cls-9, .cls-10, .cls-11, .cls-12, .cls-13, .cls-14 {
        stroke-width: 0px;
      }

      .cls-2 {
        fill: #3b6377;
      }

      .cls-3 {
        fill: #a6c2d1;
      }

      .cls-4 {
        fill: #d6edfc;
      }

      .cls-5 {
        fill: #75a7c6;
      }

      .cls-6 {
        fill: #e2f4fd;
      }

      .cls-7 {
        fill: #06528d;
      }

      .cls-8 {
        fill: #77a7c6;
      }

      .cls-9 {
        fill: #8fcaef;
      }

      .cls-10 {
        fill: #d2e8f3;
      }

      .cls-11 {
        fill: #d8f0fd;
      }

      .cls-12 {
        fill: #b3d4e2;
      }

      .cls-13 {
        fill: #adc9d8;
      }

      .cls-14 {
        fill: #fff;
      }
    </style>
  </defs>
  <g>
    <path class="cls-14" d="M38.7,34c-5.4,0-9.7-4.4-9.7-9.7s.2-2,.5-3c.3-1,.8-1.8,1.3-2.6.5-.7,1.1-1.4,1.8-1.9,1.8-1.4,3.9-2.1,6.1-2.1s5.1,1,7,2.9c.5.5,1,1.1,1.4,1.8.9,1.5,1.4,3.2,1.4,5s-.7,4.4-2.1,6.1c-.6.7-1.2,1.3-1.9,1.8-1.7,1.2-3.6,1.8-5.6,1.8Z"/>
    <path class="cls-14" d="M19.7,34c-5.4,0-9.7-4.4-9.7-9.7s4.4-9.7,9.7-9.7,9.7,4.4,9.7,9.7-4.4,9.7-9.7,9.7Z"/>
    <path class="cls-14" d="M36.7,62c-4.8,0-9.5-.3-13.4-.9-4-.6-6.9-1.4-8.7-2.4-4.3-1.5-4.6-9.3-4.6-10.9v-.9c0,0,.2-.6.2-.6.7-1.3,3.3-3.2,12.6-4.4l1.3-.2c.8,0,6.4-.7,13.3-.7s4.4,0,6.5.2c1.6-1,3.1-1.5,4.6-1.6,0-.3,0-.6.1-.8h0c0,0,0-.1,0-.1h0v-.3h0s0-.4,0-.4c0,0,0-.1,0-.1,0,0,0-.1,0-.2v-.6s.2-.2.2-.2c0,0,0,0,0,0,0-.2.2-.3.4-.5h0c0,0,0,0,0,0,.4-.3.8-.5,1.4-.5s.4,0,.7,0c0,0,.1,0,.2,0,.1,0,.3,0,.4,0,.3-.4.6-.9.9-1.3-.5-.3-.8-.8-1-1.4-.3-.7-.1-1.4.2-1.9,0,0,0,0,0,0,.2-.3.6-.9,1.6-.9s.4,0,.6,0h.3c.3,0,.9,0,1.6-.2,1.1-1.5,1.6-2.1,1.9-2.4.5-.6,1.3-.9,2.1-.9,1.5,0,3.1,1.1,3.4,2.4.1.4,0,.8-.1,1.2.5.3,1,.4,1.2.5.2,0,.5-.2.9-.2,1,0,1.9.6,2.5,1.8l.2.3c.8,1.5,1.2,2.3,1,3.4l-1.7,2.1c-.1,0-.6-.2-1-.2s0,0-.1,0c-.2,0-.4,0-.5,0-.3,0-.6.1-1,.1s-.6,0-1,0c-.4,0-1.8,1.2-2.3,1.6-.2.2-.4.3-.5.4-.2.1-.4.3-.6.6-.6.6-1.4,1.5-2.5,1.7-.4,0-.7.1-1,.2,4.8,1.1,5.7,2.1,6,2.5.4.5.6,1,.7,1.6v.2s0,.3,0,.3l-.2,2c0,.4,0,.8-.2,1.2v.6c0,0-.1,0-.1,0,0,0,0,.3,0,.4,0,.1,0,.3,0,.4,0,.1,0,.2,0,.3-.2.7-.4,1.3-.6,2,0,0,0,.2-.1.3,0,.2-.1.3-.2.4,0,0,0,.2-.1.3,0,0-.2.4-.3.5,0,.1-.1.2-.2.3h0c0,0-.3.5-.3.5h0c0,0,0,.1-.1.2h0c0,0-.4.4-.4.4,0,0-.1.1-.2.2h-.1c0,.1,0,.1,0,.1,0,0-.1,0-.2.1-2.6,2.1-9.1,3.1-12.7,3.5-3.2.3-6.7.5-10.4.5Z"/>
  </g>
  <g>
    <g>
      <circle class="cls-14" cx="38.7" cy="24.3" r="7.2"/>
      <path class="cls-2" d="M41.7,24.5c-.2-.6-.5-1.3-.8-1.8.2-.1.4-.2.5-.3,0,0,0,0,0-.1-.3-.2-.6-.4-.8-.6,0,0,0,0,0,0-.1-.1-.3-.3-.4-.5-.2-.4-.4-.8-.5-1.2-.7-1.8-2.3-1.5-2.7-.6,0,0,0,0,0,0,0,0,0,0,0,0,0,0,0,.1,0,.2,0,0,0,0,0,.1,0,0,0,0,0,.1,0,0,0,.2,0,.2,0,0,0,0,0,0,0,0,0,0,0,0,0,0,0,0,0,0,0,0,0,0,0,0,0,0,0,0,0,.1,0,.1,0,.2,0,.4,0,0,0,0,.2,0,0,0,0,0,0,0,0,0,0,0,0,0,0,0,0,0,0,0,0,0,0,0,0,0,0,0,0,0,0,0,0,0,0,0,0,0,0,0,0,0,0,0,0,0,0,0,0,0,0,0,0,0,0,0,0,0,0,0,0,0,.1.2.3,0,.4,0,0,0,.1,0,.2,0,0,0,0,0,0,0,0,0,0,.3,0,.4,0,.2-.2.3-.3.4-.1.1-.2.2-.4.3-.3.2-.8.5-.9.9,0,.3,0,.4.2.5.1.1.2.3,0,.5-.6.9-1.2,1.3-1.2,2,0,1,.8,1.5,1.1,1.6,0,0,0,0,.1,0,.2.1.2.3.2.4,0,1.1.4,2.8.5,3.6h1.8c0-.7.2-2.1.2-2.7.5-.2.8-1.2.4-2.1.3-.4-.1-.6-.3-1.1,0-.1,1.3-.8,1.6-1.1.1,0,.5-.4.4-.6ZM40.9,24.5s0,0,0,0c0,0,0,0,0,0,0,0,0,0,0,0-.1,0-.2.2-.3.2,0,0,0,0,0,0,0,0,0,0,0,0,0,0,0,0-.1.1,0,0,0,0-.1.1,0,0,0,0,0,0,0,0,0,0,0,0,0,0-.2.1-.3.2,0,0-.1,0-.2,0,0,0,0,0,0,0,0,0,0,0,0,0-.4-1.1.3-1.4.7-2.4,0,0,0,0,0,0,0,0,0,0,0,0,0,0,0,0,0,0,0,0,0,0,0,0,0,0,0,0,0,0,0,0,0,0,0,0,0,0,0,0,0,0,0,0,0,0,0,0,0,0,0,0,0,0,0,0,0,0,0,0,0,0,.2.2.3.3,0,0,0,0,0,0,0,0,0,0,0,0,0,0,0,0,0,0,0,0,0,0,0,0,0,0,0,0,0,0,0,0,0,0,0,0,0,0,0,0,0,0,0,0,0,0,0,0,0,.1.1.2,0,.3Z"/>
      <path class="cls-8" d="M45.8,20c-.3-.6-.7-1.1-1.2-1.5-1.5-1.5-3.6-2.5-5.9-2.5s-3.8.7-5.2,1.8c-.6.5-1.1,1-1.6,1.7-.5.7-.9,1.4-1.1,2.2-.3.8-.4,1.7-.4,2.6,0,4.6,3.7,8.3,8.3,8.3s3.4-.6,4.8-1.5c.6-.4,1.2-1,1.7-1.6,1.2-1.4,1.8-3.2,1.8-5.2s-.4-3-1.2-4.3ZM38.7,31.5c-4,0-7.2-3.2-7.2-7.2s.4-2.9,1.2-4l10,10c-1.1.8-2.5,1.2-4,1.2ZM44.3,28.7l-10.1-10.1c1.2-1,2.8-1.5,4.4-1.5s3.8.8,5,2.1h0c.6.6,1.1,1.3,1.5,2.1.4.9.7,1.9.7,3,0,1.7-.6,3.2-1.5,4.4Z"/>
    </g>
    <g>
      <path class="cls-9" d="M61.6,47.9h0c0,.2,0,.4-.2.6,0,0,0,0,0,0-.4,1-1.4,1.8-1.4,1.8h-.7c0,0-1.5-.2-1.5-.2h0l-2-.2h0l-2.3-.2-4.1-.3c1.9-1,3.9-2.1,3.9-2.1,0,0,0,0,0,0,0,0,0,0,0,0-2.7-.6-5.9-1.1-9-1.4-1.6.6-2.9,1.4-2.9,1.4,0,0-1.7.6-2.1.7-.2,0,.6.3,1.7.6l-17.2-1.3-.2-1.6-.2-2.2c0-.1.4-.2,1-.4,3-.6,12.3-.8,17.8-.6,6.4.2,14.5,1.5,18.1,3,1.3.5,1.7,1.3,1.6,2Z"/>
      <g>
        <path class="cls-8" d="M54.5,49.1c-.3.4-.8.8-1.3,1-.4.2-.8.5-1.3.7,0,0-.1,0-.2,0,0,0-.2,0-.3,0-.8.1-1.6.2-2.4.3,0,0-.2,0-.3,0-.2,0-.4,0-.7,0-.1,0-.2,0-.4,0,0,0-.1,0-.2,0-.2,0-.4,0-.5,0-.6,0-1.2.3-1.7.8,0,0,0,0,.1,0,0,0,0,0,0,0-.2.2-.4.5-.6.8h0c-.2.3-.4.5-.6.7-.5.6-.9,1.3-1.5,1.8-1.1.9-2.6,1.3-4,1.4-2.5.2-5-.6-6.9-2.2-1.1-1-2-2.2-3.3-3-1.1-.7-2.3-1.1-3.6-1.2-.7,0-1.4,0-2.1,0-.7,0-1.3-.1-2-.2-.6-.1-1.2-.3-1.7-.6-.5-.3-.9-.8-1-1.4,0-.2,0-.5.1-.7.7-.4,1.6-.7,2.7-1.1.7-.2,1.9-.4,3.3-.7v.2h0v-.2c0-.2,0-.4,0-.5,0-.2,0-.4,0-.5,0-.4,0-.7,0-1.1v-.4c0-.1,0-.2,0-.3-.4,0-.8,0-1.2.1-7,.9-11.7,2.4-11.7,4.2s0,.1,0,.2h0s.1,8.6,3.8,9.7c1.7.9,4.6,1.7,8.3,2.3,3.7.6,8.3.9,13.2.9s7.2-.2,10.3-.5c1.1-.3,2.2-.6,3.3-1,2.1-.7,4.1-1.5,5.8-2.8,1.7-1.3,3.1-3.3,3.3-5.4,0-.4,0-.6,0-.8,0,0,0-.1-.1-.2.3-.1.6-.2.9-.4.1,0,.2-.1.4-.2.1,0,.2-.1.3-.2h-6.3Z"/>
        <path class="cls-4" d="M53.3,47.5s-2,1.1-3.9,2.1c-.7.4-1.4.7-2,1-2.1,1.1-2.5.4-4.2-.7-.7-.4-1.6-.8-2.3-1-1.1-.4-1.9-.5-1.7-.6.4-.2,2.1-.7,2.1-.7,0,0,1.3-.9,2.9-1.4-2-.2-3.9-.3-5.7-.4-6.6-.3-13.9.2-14.1.2v.2h0v-.2c-.3,0-.5,0-.8.1-.1,0-.3,0-.4,0-.2,0-.5,0-.7.1-.1,0-.2,0-.3,0-.2,0-.3,0-.5.1-.2,0-.4.1-.6.2-1.1.3-2,.7-2.7,1.1,0,.2-.1.4-.1.7,0,.6.5,1.1,1,1.4.5.3,1.1.5,1.7.6.6.1,1.3.2,2,.2.7,0,1.4,0,2.1,0,1.3,0,2.5.4,3.6,1.2,1.2.8,2.1,2,3.3,3,1.9,1.6,4.4,2.4,6.9,2.2,1.4-.1,3-.5,4-1.4.6-.5,1-1.2,1.5-1.8.2-.2.4-.4.6-.6h0c.1-.5.3-.7.6-1,0,0,0,0,0,0,0,0,0,0-.1,0,.4-.4,1-.7,1.7-.8.2,0,.4,0,.5,0,0,0,.1,0,.2,0,.1,0,.2,0,.4,0,.2,0,.4,0,.7,0,.1,0,.2,0,.3,0,.8,0,1.6-.2,2.4-.3,0,0,.2,0,.3,0,0,0,.1,0,.2,0,.4-.2.8-.5,1.3-.7.1,0,.3-.1.4-.2,0,0,.1,0,.2-.1,0,0,.1,0,.2-.1.1,0,.2-.2.3-.3,0,0,0-.1.1-.2s0-.1.1-.2h3.3c-1.2-.6-2.7-1.2-4.5-1.6Z"/>
        <path class="cls-1" d="M44.8,53.1l-1.8,4.4c-.2.6-.7,1-1.3,1.1-3.4.6-6.8.6-10.1,0-.6-.1-1.1-.5-1.3-1.1l-1.8-4.5c-.1-.3-.3-.6-.5-.8h0c0,0-.1-.1-.2-.2,0,0-.1,0-.2-.1,0,0,0,0-.1-.1,0,0,0,0,0,0,0,0,0,0-.1,0h0c-.3-.2-.6-.3-1-.3h0c-.2,0-.5,0-.7,0-.2,0-.5,0-.7,0-.1,0-.2,0-.3,0-.2,0-.5,0-.7,0-.8,0-1.5-.2-2.2-.3-.1,0-.2,0-.3,0,0,0,0,0-.1,0,0,0,0,0-.1,0,0,0,0,0-.1,0-.2,0-.3,0-.5,0,0,0-.2,0-.3,0h0c0,0-.2,0-.3,0,0,0-.2,0-.3,0,0,0-.2,0-.2,0,0,0-.2,0-.3,0,0,0-.1,0-.2,0,0,0,0,0,0,0,0,0,0,0-.1,0,0,0-.1,0-.2,0-.1,0-.2,0-.3,0,0,0-.1,0-.2,0-.1,0-.3,0-.4,0,0,0,0,0-.1,0,0,0-.1,0-.2,0-.2,0-.4,0-.6-.1,0,0,0,0-.1,0-.1,0-.3,0-.4-.1,0,0,0,0,0,0t0,0s0,0-.1,0c.3-.6.9-1.3,2.2-2h0c0,.2-.1.4-.1.7,0,.6.5,1.1,1,1.4.5.3,1.1.5,1.7.6.6.1,1.3.2,2,.2.7,0,1.4,0,2.1,0,1.3,0,2.5.4,3.6,1.2,1.2.8,2.1,2,3.3,3,1.9,1.6,4.4,2.4,6.9,2.2,1.4-.1,3-.5,4-1.4.6-.5,1-1.2,1.5-1.8.2-.2.4-.4.6-.6Z"/>
        <path class="cls-1" d="M54.5,49.1h3.3c0,.1.2.3.2.4,0,0,0,0,0,0,0,0,0,0,0,0,0,0,0,0-.1,0h0c0,0-.2,0-.3,0,0,0,0,0,0,0,0,0-.1,0-.2,0-.1,0-.2,0-.3,0,0,0-.1,0-.2,0-.1,0-.3,0-.4.1,0,0-.2,0-.2,0,0,0-.2,0-.2,0,0,0-.2,0-.3,0,0,0-.2,0-.3,0,0,0-.2,0-.3,0,0,0-.2,0-.2,0,0,0,0,0,0,0-.2,0-.3,0-.5.1-.2,0-.5,0-.7.1,0,0-.2,0-.3,0-.3,0-.5,0-.8.1,0,0-.2,0-.3,0,0,0-.2,0-.3,0,.4-.2.8-.5,1.3-.7.5-.3,1-.6,1.3-1Z"/>
        <path class="cls-1" d="M46.7,44.6c0-.1.1-.2.1-.3,0,.1,0,.2-.1.3h0Z"/>
        <path class="cls-4" d="M28,52.1c-9.3-.7-16.2-2.4-16.6-4.5,0,0,0-.1,0-.2,0-1.8,4.6-3.3,11.7-4.2.4,0,.8-.1,1.2-.1h0v.3s0,.4,0,.4c0,.4,0,.7,0,1.1,0,.2,0,.4,0,.5,0,.2,0,.4,0,.5-1.4.2-2.5.4-3.3.7-1.1.3-2,.7-2.7,1.1h0c-1.3.7-1.9,1.4-2.2,2,0,0,0,0,.1,0t0,0s0,0,0,0c0,0,0,0,0,0,.4.1,1.4.4,2.6.6,0,0,0,0,0,0,0,0,.1,0,.2,0,.4,0,.7.2,1.1.2,0,0,0,0,0,0,.2,0,.3,0,.5,0,0,0,.2,0,.3,0,0,0,0,0,.1,0,.1,0,.2,0,.3,0,.7.1,1.5.2,2.2.3.2,0,.4,0,.7,0,.1,0,.2,0,.3,0,.2,0,.5,0,.7,0,.2,0,.6,0,.8,0,.3,0,.7.1,1,.3h0s0,0,0,0c0,0,0,0,0,0h0s0,0,.1.1c0,0,.1,0,.2.1,0,0,.1.1.2.2Z"/>
        <path class="cls-4" d="M60.7,49.1c-.1,0-.2.1-.3.2-.1,0-.2.1-.4.2-.3.1-.6.2-.9.4,0,0,0,0-.1,0-.7.2-1.5.5-2.4.7-2.9.7-6.8,1.3-11.2,1.6,0,0,0,0-.1,0,.4-.4,1-.7,1.7-.8.2,0,.4,0,.5,0,0,0,.1,0,.2,0,.1,0,.2,0,.4,0,.2,0,.4,0,.7,0,.1,0,.2,0,.3,0,.8,0,1.6-.2,2.4-.3,0,0,.2,0,.3,0,0,0,.1,0,.2,0,0,0,.2,0,.3,0,0,0,.2,0,.3,0,.3,0,.5,0,.8-.1,0,0,.2,0,.3,0,.2,0,.5,0,.7-.1.2,0,.4,0,.5-.1,0,0,0,0,0,0,0,0,.2,0,.2,0,0,0,.2,0,.3,0,0,0,.2,0,.3,0,0,0,.2,0,.3,0,0,0,.2,0,.2,0,0,0,.2,0,.2,0,.1,0,.3,0,.4-.1,0,0,.1,0,.2,0,.1,0,.2,0,.3,0,0,0,.1,0,.2,0,0,0,0,0,0,0,0,0,.2,0,.3,0h0s0,0,.1,0c0,0,0,0,0,0,0,0,0,0,0,0,0-.1-.1-.3-.2-.4h3Z"/>
        <path class="cls-4" d="M58,49.4s0,0,0,0c0,0,0,0,0,0,0,0,0,0-.1,0h0c0,0-.2,0-.3,0,0,0,0,0,0,0,0,0-.1,0-.2,0-.1,0-.2,0-.3,0,0,0-.1,0-.2,0-.1,0-.3,0-.4.1,0,0-.2,0-.2,0,0,0-.2,0-.2,0,0,0-.2,0-.3,0,0,0-.2,0-.3,0,0,0-.2,0-.3,0,0,0-.2,0-.2,0,0,0,0,0,0,0-.2,0-.3,0-.5.1-.2,0-.5,0-.7.1,0,0-.2,0-.3,0-.3,0-.5,0-.8.1,0,0-.2,0-.3,0,0,0-.2,0-.3,0,.4-.2.8-.5,1.3-.7.5-.3,1-.6,1.3-1h3.3c0,.1.2.3.2.4Z"/>
        <path class="cls-13" d="M44.8,53.1l-1.8,4.4c-.2.6-.7,1-1.3,1.1-3.4.6-6.8.6-10.1,0-.6-.1-1.1-.5-1.3-1.1l-1.8-4.5c-.1-.3-.3-.6-.5-.8,0,0-.1-.1-.2-.2,0,0-.1,0-.2-.1,0,0,0,0-.1,0h0s0,0,0,0c0,0,0,0-.1,0h0s0,0,0,0c-.3-.2-.6-.3-1-.3h0c-.2,0-.5,0-.7,0-.2,0-.5,0-.7,0-.1,0-.2,0-.3,0-.2,0-.5,0-.7,0-.8,0-1.5-.2-2.2-.3-.1,0-.2,0-.3,0,0,0,0,0-.1,0,0,0,0,0-.1,0,0,0,0,0-.1,0-.2,0-.3,0-.5,0,0,0-.2,0-.3,0h0c0,0-.2,0-.3,0,0,0-.2,0-.3,0,0,0-.2,0-.2,0-.1,0-.3,0-.4,0,0,0,0,0,0,0,0,0,0,0-.1,0,0,0-.2,0-.2,0-.1,0-.2,0-.3,0,0,0-.1,0-.2,0-.1,0-.3,0-.4,0,0,0,0,0-.1,0,0,0-.1,0-.2,0-.2,0-.4,0-.6-.1,0,0,0,0-.1,0-.1,0-.3,0-.4-.1,0,0,0,0,0,0t0,0s0,0-.1,0c.3-.6.9-1.3,2.2-2h0c0,.2-.1.4-.1.7,0,.6.5,1.1,1,1.4.5.3,1.1.5,1.7.6.6.1,1.3.2,2,.2.7,0,1.4,0,2.1,0,1.3,0,2.5.4,3.6,1.2,1.2.8,2.1,2,3.3,3,1.9,1.6,4.4,2.4,6.9,2.2,1.4-.1,3-.5,4-1.4.6-.5,1-1.2,1.5-1.8.2-.2.4-.4.6-.6Z"/>
        <path class="cls-9" d="M24.3,45.9c-1.4.2-2.5.4-3.3.7-1.1.3-2,.7-2.7,1.1h0c-1.3.7-1.9,1.4-2.2,2,0,0,0,0,0,0,0,0-.1,0-.2,0-.2,0-.3-.1-.5-.2,0,0,0,0,0,0-.2,0-.4-.1-.5-.2,0,0,0,0,0,0,0,0,0,0-.1,0,0,0,0,0,0,0-.1,0-.2-.1-.3-.1,0,0,0,0-.1,0-.1,0-.2-.1-.3-.2,0,0,0,0-.1,0,0,0-.1,0-.2-.1,0,0,0,0,0,0,0,0,0,0,0,0h0c-.2-.2-.3-.3-.4-.5,0,0,0,0,0,0,0,0,0,0,0-.1h0s0,0,0,0c0,0,0,0,0,0,0,0,0,0,0,0h0c0,0,0-.1,0-.2,0-1.5,4.2-2.8,10.6-3.6.3,0,.6,0,1-.1,0,.4,0,.7,0,1.1,0,.2,0,.4,0,.5,0,.2,0,.4,0,.5Z"/>
        <path class="cls-9" d="M59,49.1s0,0,0,0c0,0,0,0,0,0,0,0,0,0,0,0,0,0,0,0-.1,0,0,0-.1,0-.2,0,0,0,0,0,0,0,0,0-.2,0-.3,0,0,0,0,0,0,0,0-.1-.1-.3-.2-.4h1.2Z"/>
        <path class="cls-4" d="M62.1,47.3v.3c-.2.9-1.4,1.5-1.4,1.5h-1.7s2.3-.2,1.9-2.1c-.2-1.1-7.8-2.6-9.9-2.9s-4-.4-3.9-.4c0,0-6.4-.9-22.9.2v-.4s0-.3,0-.3c0,0,12.3-1.4,23.1-.2,2.6.3,4.3.6,4.5.7,0,0,0,0,0,0,2,.3,8.6,1.5,9.9,3,.2.3.3.5.3.8,0,0,0,0,0,0Z"/>
        <g>
          <path class="cls-2" d="M24.7,56.9s.2.2.9,0c.7-.2.8-.5.8-.5.1-.2,0-.5,0-.6,0,0-.4-.4-.9-.4,0,0-.2,0-.3,0h0s0,0,0,0h0s0,0,0,0c-.1,0-.2.1-.2.1-.4.3-.5.8-.5.8,0,.2,0,.5.3.6Z"/>
          <path class="cls-2" d="M25.8,54.6c0,.3,0,.5-.3.5-.2,0-.4-.2-.4-.4,0-.3,0-.5.3-.5.2,0,.4.2.4.4Z"/>
          <path class="cls-2" d="M24.9,54.8c.1.2.1.5,0,.6-.2.1-.4,0-.6-.2-.1-.2-.1-.5,0-.6.2-.1.4,0,.6.2Z"/>
          <path class="cls-2" d="M24.3,55.4c.2.2.3.4.2.6-.1.2-.4.1-.6,0-.2-.2-.3-.4-.2-.6.1-.2.4-.1.6,0Z"/>
          <path class="cls-2" d="M25.9,54.9c0,.3,0,.5.3.5.2,0,.4-.2.4-.4,0-.3,0-.5-.3-.5-.2,0-.4.2-.4.4Z"/>
        </g>
      </g>
      <path class="cls-2" d="M62.1,47.6v1.5c-.1,0-.2.5-.2.5,0,.3,0,.7-.1,1.1,0,0,0,.2,0,.2,0,0,0,0,0,0,0,0,0,.2,0,.3,0,0,0,.1,0,.2,0,0,0,.2,0,.2,0,.1,0,.3,0,.4,0,.1,0,.2,0,.3-.1.6-.3,1.2-.6,1.7,0,0,0,.1,0,.2,0,.1-.1.3-.2.4,0,0,0,.1-.1.2,0,.1-.1.2-.2.3,0,0,0,.1-.1.2,0,0,0,.1-.1.2,0,0-.1.2-.2.3,0,0,0,0,0,0,0,0-.1.2-.2.2s-.1.1-.2.2c0,0,0,0,0,0,0,0-.1.1-.2.2,0,0,0,0,0,0,0,0-.2.1-.2.2-1.7,1.4-6.2,2.5-12,3.2,1.1-.3,2.2-.6,3.3-1,2.1-.7,4.1-1.5,5.8-2.8,1.7-1.3,3.1-3.3,3.3-5.4,0-.4,0-.6,0-.8,0,0,0-.1-.1-.2.3-.1.6-.2.9-.4.1,0,.2-.1.4-.2.1,0,.2-.1.3-.2,0,0,1.2-.6,1.4-1.5Z"/>
      <path class="cls-4" d="M62.1,47.3h0s0,.3,0,.3c-.2.9-1.4,1.5-1.4,1.5l1.4-1.7h0Z"/>
    </g>
    <g>
      <circle class="cls-8" cx="19.6" cy="24.3" r="8.3"/>
      <circle class="cls-2" cx="19.8" cy="24.1" r="7.4"/>
      <circle class="cls-14" cx="19.6" cy="24.3" r="6.9"/>
      <path class="cls-2" d="M20.3,24.3c0,0,0,.2,0,.3l5.1-2.8-5.5,1.9c.2,0,.4.3.4.6Z"/>
      <path class="cls-2" d="M19.6,23.6c0,0,.2,0,.2,0l-1.5-3.4.8,3.6c.1-.1.3-.2.5-.2Z"/>
      <path class="cls-11" d="M20.3,24.3c0-.3-.2-.5-.4-.6,0,0,0,0,0,0,0,0-.1,0-.2,0-.2,0-.4,0-.5.2-.1.1-.2.3-.2.4,0,.4.3.6.6.6s.5-.2.6-.4c0,0,0-.2,0-.3Z"/>
      <path class="cls-7" d="M19.6,18.8h0c0,0-.2,0-.2-.2v-.9c0,0,0-.2.2-.2s.2,0,.2.2v.9c0,0,0,.2-.2.2Z"/>
      <path class="cls-7" d="M25,24.2h0c0,0,0-.2.2-.2h.9c0,0,.2,0,.2.2s0,.2-.2.2h-.9c0,0-.2,0-.2-.2Z"/>
      <path class="cls-7" d="M23.4,20.4h0c0,0,0-.2,0-.2l.7-.7c0,0,.2,0,.2,0h0c0,0,0,.2,0,.2l-.7.7c0,0-.2,0-.2,0Z"/>
      <path class="cls-10" d="M20.5,30.3c-.3,0-.5,0-.8,0v.4c0,0,0,.2-.2.2s-.2,0-.2-.2v-.5c-1.5-.2-2.8-.9-3.8-1.9l-.6.6c0,0-.2,0-.2,0s0-.2,0-.2l.6-.6c-.9-1-1.6-2.3-1.8-3.8h-.6c0,0-.2,0-.2-.2s0-.2.2-.2h.5c0-.2,0-.4,0-.7,0-1.6.6-3.1,1.5-4.3-1.4,1.3-2.3,3.1-2.3,5.2,0,3.8,3.1,6.9,6.9,6.9s4.2-1,5.4-2.6c-1.2,1.1-2.8,1.7-4.6,1.7Z"/>
      <path class="cls-7" d="M23.4,28h0c0,0,.2,0,.2,0l.7.7c0,0,0,.2,0,.2,0,0-.2,0-.2,0l-.7-.7c0,0,0-.2,0-.2Z"/>
      <path class="cls-7" d="M14.8,19.5h0c0,0,.2,0,.2,0l.7.7c0,0,0,.2,0,.2s-.2,0-.2,0l-.7-.7c0,0,0-.2,0-.2Z"/>
      <path class="cls-11" d="M20.2,24.3c0,.2-.2.3-.3.1-.1-.3-.2-.3-.4-.4-.2-.1-.1-.3,0-.3s.5.1.5.5Z"/>
      <path class="cls-7" d="M19.6,30.9h0c0,0-.2,0-.2-.2v-.9c0,0,0-.2.2-.2s.2,0,.2.2v.9c0,0,0,.2-.2.2Z"/>
      <path class="cls-7" d="M12.9,24.2h0c0,0,0-.2.2-.2h.9c0,0,.2,0,.2.2s0,.2-.2.2h-.9c0,0-.2,0-.2-.2Z"/>
      <path class="cls-7" d="M14.8,28.9h0c0,0,0-.2,0-.2l.7-.7c0,0,.2,0,.2,0s0,.2,0,.2l-.7.7c0,0-.2,0-.2,0Z"/>
    </g>
    <path class="cls-13" d="M49.4,49.6c-.7.4-1.4.7-2,1-2.1,1.1-2.5.4-4.2-.7-.7-.4-1.6-.8-2.3-1l8.5.6Z"/>
    <path class="cls-13" d="M53.3,47.5s-2,1.1-3.9,2.1l-8.5-.6c-1.1-.4-1.9-.5-1.7-.6.4-.2,2.1-.7,2.1-.7,0,0,1.3-.9,2.9-1.4,3.2.3,6.4.7,9,1.4,0,0,0,0,0,0,0,0,0,0,0,0Z"/>
    <g>
      <path class="cls-9" d="M50.6,44.4c-.4,1-2.6,2.8-3.1,3.1.5-.4,3.5-3.1,2.5-4.1-.3-.3-.9-.5-1.6-.5-1.5,0-3.7.8-6.3,2.9-.6.4-1.1.9-1.7,1.5h-.3c0-.1.4-.5,1-1,0,0,0,0,0,0,1.5-1.3,4.6-3.6,6.7-3.9.8-.1,1.5,0,1.9,0,1.2.3,1.3,1.1,1,1.9Z"/>
      <path class="cls-9" d="M50.9,39.9h0,0Z"/>
      <path class="cls-9" d="M55,38.4c-.6.6-1.2,1.3-1.7,1.8,0,0,0,0,0,0-.2.2-.4.4-.6.6-.1.1-.2.2-.3.3-.6.6-.9,1-.9,1,0,0,0,0,0,0,.1.1,1.4,1.8,0,3-1.4,1.3-5.6,4.2-5.6,4.2l-5.6-1.9c.6-.6,1.2-1.1,1.7-1.5,2.6-2.1,4.9-2.9,6.3-2.9.7,0,1.3.2,1.6.5,1,1-2,3.7-2.5,4.1.4-.3,2.7-2.2,3.1-3.1.3-.8.2-1.6-1-1.9-.5-.1-1.1-.1-1.9,0-2.1.3-5.1,2.6-6.7,3.9,0,0,0,0,0,0-.6.5-1,.8-1,.8h-.4q0-.1,0-.1c.2-.2,5.4-6.8,10.4-5.9,0,0,.3-.5.9-1.2h0s0,0,0,0c0-.1.2-.2.3-.4.1-.2.3-.4.4-.6,0,0,0,0,.1,0,.6,0,2,0,2.3,0,.3,0,.7-.4.7-.4,0,0,0,0,0,0,0,0,.2,0,.3-.1Z"/>
      <path class="cls-9" d="M61.3,31.2c-1.3,1.7-4,4.7-6.2,7.1,0,0,0,0-.1.1-.2,0-.3,0-.3.1,0,0,0,0,0,0,0,0-.4.4-.7.4-.3,0-1.7,0-2.3,0,0,0,0,0-.1,0,0,0,.1-.2.2-.3.3-.4.7-.9,1.1-1.4.8-1.1,1.6-2.2,2.4-3.4.6-.8,1.2-1.6,1.7-2.2,1-1.4,1.8-2.4,2.1-2.7,1-1.1,2.9,0,3.2.9,0,.2-.3.7-.8,1.4Z"/>
      <path class="cls-5" d="M50.6,44.4c-.4,1-2.6,2.8-3.1,3.1.5-.4,3.5-3.1,2.5-4.1-.3-.3-.9-.5-1.6-.5-1.5,0-3.7.8-6.3,2.9-.6.4-1.1.9-1.7,1.5h-.3c0-.1.4-.5,1-1,0,0,0,0,0,0,1.5-1.3,4.6-3.6,6.7-3.9.8-.1,1.5,0,1.9,0,1.2.3,1.3,1.1,1,1.9Z"/>
    </g>
    <g>
      <path class="cls-6" d="M51.1,39.6c0,.1-.2.2-.3.4,0,0,0,0,0,0h0s0,0,0,0c0,0,0,0,0,0h0s0,0,0,0c0,0-.1,0-.2,0-.3,0-.5-.3-.4-.6h0s0,0,0-.1c.2-.4.8-.1,1.4-.2-.1.2-.3.4-.4.6Z"/>
      <path class="cls-6" d="M68,37.3s-.9-.4-1.8-.3c-.9,0-1,.3-2.2.1-1.2-.2-3.1,1.7-3.9,2.3-.8.6-1.5,1.8-2.6,2-.7.1-1.3.3-1.8.4,0,0,0,0,0,0-.2,0-.4,0-.6.1-.2,0-.3-.2-.3-.4,0,0,0,0,0,0,0-.2.2-.4.4-.5.4-.2,1.6-.4,1.6-.4l.5-.5c0,0-1.7.8-2.7.9-.6,0-1.5,0-2.2,0h-.2c0,0,.2-.2.3-.3.2-.2.4-.4.6-.6,0,0,0,0,0,0,.5-.5,1.1-1.1,1.7-1.8-.2,0-.3,0-.3.1,0,0,0,0,0,0,0,0-2,.3-2.9.2,0,0-.1,0-.2,0-.2,0-.3,0-.5-.1-.6-.2-1-.3-1-.3t0,0s0,0,0,0c0,0-.1-.2,0-.4,0,0,0,0,0,0,0,0,.1-.1.2-.2.4-.4,1.1,0,1.7,0,.2,0,.5-.1.9-.2.5,0,1.1-.2,1.4-.5.5-.5.9-.8,1.5-1,.6-.3,2.4-2.2,2.4-2.2,0,0-1.9.3-2.8.3-.2,0-.3,0-.4,0-.6,0-1.3-.3-1.6-1.1-.1-.3,0-.5.1-.7.2-.1.4-.2.7-.2h0c0,0,.1,0,.2,0,.5,0,1.5-.1,2.5-.3.4,0,.8-.2,1.1-.3,1-.3,2.3-.5,3.3-.1.2,0,.4.1.5.2,1,.6,2.3,1.1,2.7,1.2.4,0,1.3-.8,2.2.8.9,1.6,1.2,2.2,1.1,2.8-.1.6.2,1.1.2,1.1Z"/>
      <path class="cls-12" d="M57,39.2c-.5.3-1.7,1-2.1,1-.2,0-1,0-1.6,0,0,0,0,0,0,0,.6,0,1.3,0,1.4,0,.3,0,.8-.2,1.5-.6.6-.4,1.6-1,1.9-.8.3.1-.6.2-1.1.5Z"/>
      <path class="cls-12" d="M57.4,37.4c-.4,0-.8.3-1.2.5-.3.2-.8.4-1.2.5-.2,0-.3,0-.3.1,0,0,.2-.1.4-.2.3-.2.8-.4,1.1-.6.5-.2,1.1-.7,1.7-.6.6.1,0,.2-.5.2Z"/>
      <path class="cls-3" d="M54.6,33s.3,0,.4-.1,0-.7-.2-.8-.3,0-.7-.1-.7,0-.8,0,.2.6.2.9.8.1,1,0Z"/>
      <path class="cls-3" d="M51.1,38.6s.1-.2-.1-.4-.9-.4-.9-.4c0,0-.2.3,0,.5s1,.3,1,.3Z"/>
      <path class="cls-3" d="M51.1,39.6c0,.1-.2.2-.3.4,0,0,0,0,0,0,0,0,0,0,0,0h0s0,0,0,0c0,0-.2,0-.3,0-.4,0-.3-.5-.2-.6h0c.1-.1.3,0,.6,0,.3,0,.4.2.4.3Z"/>
      <path class="cls-3" d="M52.7,40.9c0,.2,0,.2-.1.2h-.2c0,0,.2-.2.3-.3,0,0,0,0,0,0Z"/>
      <path class="cls-3" d="M55.8,41.9s.1,0,0-.2-.5-.1-.7-.1-.3,0-.3.3.3.3,1,0Z"/>
      <path class="cls-12" d="M59.4,38.9s.7-.3.9-.6.2-.7.5-.6,0,.4,0,.7-1.3.5-1.3.5Z"/>
      <path class="cls-12" d="M59,37.9s.6-.2,1-.6.3-.5.2-.5-.4.5-.7.7-.7.4-.4.4Z"/>
      <path class="cls-12" d="M58.4,36.4s.4-.2.7-.4.4-.3.3-.6-.4.3-.7.5-.6.5-.4.5Z"/>
    </g>
    <path class="cls-5" d="M52.4,45.2c-.6.9-6.4,4.4-6.4,4.4l-6.3-2.2v-.3c-.1,0,.3.1.3.1h.3c0,.1,5.6,2.1,5.6,2.1,0,0,4.1-2.9,5.6-4.2,1.4-1.2.1-2.8,0-3,1.1.6,1.5,2.2.9,3.1Z"/>
  </g>
</svg>