<?xml version="1.0" encoding="UTF-8"?><svg id="Various" xmlns="http://www.w3.org/2000/svg" viewBox="0 0 82.03 82.03"><defs><style>.cls-1{fill:#ededed;}.cls-2{fill:#fff;}.cls-3{fill:#e8e8e4;}.cls-4{fill:#9ec285;}.cls-5{fill:#b5b4a9;}.cls-6{fill:#9e9e9e;}.cls-7{fill:#bababa;}.cls-8{fill:#a6a6a6;}.cls-9,.cls-10{fill:#71a7c2;}.cls-11{fill:#94c3e0;}.cls-12{fill:#7a7a7a;}.cls-13{fill:#517c7e;}.cls-10{opacity:.8;}</style></defs><g id="ic_house"><polygon class="cls-3" points="75.38 24.56 75.38 81.84 9.75 81.84 9.75 24.56 17.22 17.51 67.91 17.51 75.38 24.56"/><polygon class="cls-13" points="78.69 23.55 78.69 26.41 75.38 26.39 75.38 25.14 9.75 25.14 9.75 26.41 6.43 26.41 6.43 23.55 16.38 14.26 68.74 14.26 78.69 23.55"/><rect class="cls-8" x="18.34" y="67.4" width="12.04" height="11.97"/><path class="cls-4" d="M43.98,81.84s.44-1.03-.58-1.13c0,0,.26-1.78-1.05-2.09,0,0-.26-2.29-2.39-2.3s-2.92,1.49-3.11,2.36c0,0-.47-.73-1.78-.45s-2.59,2.33-1.54,3.6h10.45Z"/><path class="cls-4" d="M6.41,81.84s-.44-1.03,.58-1.13c0,0-.26-1.78,1.05-2.09,0,0,.26-2.29,2.39-2.3s2.92,1.49,3.11,2.36c0,0,2.13,.14,1.34,3.15H6.41Z"/><rect class="cls-1" x="23.89" y="71.93" width=".94" height="15.83" transform="translate(-55.48 104.2) rotate(-90)"/><rect class="cls-1" x="23.89" y="71.71" width=".94" height="18.16" transform="translate(-56.44 105.15) rotate(-90)"/><rect class="cls-1" x="23.89" y="71.49" width=".94" height="20.51" transform="translate(-57.39 106.11) rotate(-90)"/><rect class="cls-8" x="47.87" y="69.5" width="21.3" height="12.34"/><rect class="cls-2" x="46.52" y="69.5" width="1.34" height="12.29"/><rect class="cls-2" x="69.17" y="69.5" width="1.34" height="12.35"/><rect class="cls-2" x="57.63" y="55.94" width="1.7" height="25.44" transform="translate(-10.18 127.13) rotate(-90)"/><rect class="cls-9" x="18.37" y="48.7" width="3.57" height="10.43"/><rect class="cls-9" x="22.51" y="48.7" width="3.57" height="10.43"/><rect class="cls-2" x="17.82" y="48.15" width=".56" height="10.99"/><rect class="cls-2" x="26.08" y="48.15" width=".56" height="10.99"/><rect class="cls-2" x="21.95" y="48.15" width=".56" height="10.99"/><rect class="cls-2" x="21.95" y="44.57" width=".56" height="7.71" transform="translate(-26.2 70.65) rotate(-90)"/><rect class="cls-11" x="19.1" y="68.01" width="4.88" height="11.36"/><rect class="cls-11" x="24.74" y="68.01" width="4.88" height="11.36"/><rect class="cls-2" x="18.34" y="67.4" width=".76" height="11.97"/><rect class="cls-2" x="29.62" y="67.4" width=".76" height="11.97"/><rect class="cls-2" x="23.98" y="67.4" width=".76" height="11.97"/><rect class="cls-2" x="23.95" y="62.55" width=".82" height="10.52" transform="translate(-43.45 92.17) rotate(-90)"/><rect class="cls-10" x="16.4" y="55.91" width="19.94" height="3.23"/><rect class="cls-5" x="14.85" y="55.91" width="1.56" height="4.79"/><rect class="cls-5" x="36.34" y="55.91" width="1.56" height="4.79"/><rect class="cls-5" x="25.59" y="49.95" width="1.56" height="19.94" transform="translate(-33.54 86.29) rotate(-90)"/><rect class="cls-9" x="18.36" y="31.29" width="3.57" height="10.43"/><rect class="cls-9" x="22.49" y="31.29" width="3.57" height="10.43"/><rect class="cls-2" x="17.8" y="30.73" width=".56" height="10.99"/><rect class="cls-2" x="26.07" y="30.73" width=".56" height="10.99"/><rect class="cls-2" x="21.93" y="30.73" width=".56" height="10.99"/><rect class="cls-2" x="21.93" y="27.16" width=".56" height="7.71" transform="translate(-8.8 53.23) rotate(-90)"/><rect class="cls-10" x="16.39" y="38.49" width="19.94" height="3.23"/><rect class="cls-5" x="14.83" y="38.49" width="1.56" height="4.79"/><rect class="cls-5" x="36.33" y="38.49" width="1.56" height="4.79"/><rect class="cls-5" x="25.58" y="32.53" width="1.56" height="19.94" transform="translate(-16.14 68.86) rotate(-90)"/><rect class="cls-9" x="50.77" y="48.7" width="3.57" height="10.43"/><rect class="cls-9" x="54.9" y="48.7" width="3.57" height="10.43"/><rect class="cls-2" x="50.21" y="48.15" width=".56" height="10.99"/><rect class="cls-2" x="58.47" y="48.15" width=".56" height="10.99"/><rect class="cls-2" x="54.34" y="48.15" width=".56" height="10.99"/><rect class="cls-2" x="54.34" y="44.57" width=".56" height="7.71" transform="translate(6.2 103.05) rotate(-90)"/><rect class="cls-10" x="48.8" y="55.91" width="19.94" height="3.23"/><rect class="cls-5" x="47.24" y="55.91" width="1.56" height="4.79"/><rect class="cls-5" x="68.74" y="55.91" width="1.56" height="4.79"/><rect class="cls-5" x="57.99" y="49.95" width="1.56" height="19.94" transform="translate(-1.15 118.68) rotate(-90)"/><rect class="cls-9" x="50.76" y="31.29" width="3.57" height="10.43"/><rect class="cls-9" x="54.89" y="31.29" width="3.57" height="10.43"/><rect class="cls-2" x="50.2" y="30.73" width=".56" height="10.99"/><rect class="cls-2" x="58.46" y="30.73" width=".56" height="10.99"/><rect class="cls-2" x="54.33" y="30.73" width=".56" height="10.99"/><rect class="cls-2" x="54.33" y="27.16" width=".56" height="7.71" transform="translate(23.6 85.62) rotate(-90)"/><rect class="cls-10" x="48.79" y="38.49" width="19.94" height="3.23"/><rect class="cls-5" x="47.23" y="38.49" width="1.56" height="4.79"/><rect class="cls-5" x="68.72" y="38.49" width="1.56" height="4.79"/><rect class="cls-5" x="57.97" y="32.53" width="1.56" height="19.94" transform="translate(16.25 101.25) rotate(-90)"/><polygon class="cls-12" points="69.17 80.92 51.37 80.92 47.87 80.92 47.87 81.25 51.37 81.25 69.17 81.25 69.17 80.92"/><polygon class="cls-12" points="69.17 79.5 51.37 79.5 47.87 79.5 47.87 79.83 51.37 79.83 69.17 79.83 69.17 79.5"/><polygon class="cls-12" points="69.17 78.07 51.37 78.07 47.87 78.07 47.87 78.4 51.37 78.4 69.17 78.4 69.17 78.07"/><polygon class="cls-12" points="69.17 76.64 51.37 76.64 47.87 76.64 47.87 76.97 51.37 76.97 69.17 76.97 69.17 76.64"/><polygon class="cls-12" points="69.17 75.21 51.37 75.21 47.87 75.21 47.87 75.54 51.37 75.54 69.17 75.54 69.17 75.21"/><polygon class="cls-12" points="69.17 73.79 51.37 73.79 47.87 73.79 47.87 74.12 51.37 74.12 69.17 74.12 69.17 73.79"/><polygon class="cls-12" points="69.17 72.36 51.37 72.36 47.87 72.36 47.87 72.69 51.37 72.69 69.17 72.69 69.17 72.36"/><polygon class="cls-12" points="69.17 70.93 51.37 70.93 47.87 70.93 47.87 71.26 51.37 71.26 69.17 71.26 69.17 70.93"/><polygon class="cls-12" points="69.17 69.5 51.37 69.5 47.87 69.5 47.87 69.83 51.37 69.83 69.17 69.83 69.17 69.5"/><rect class="cls-6" x="73.7" y="25.15" width=".66" height="56.69"/><rect class="cls-6" x="9.1" y="24.49" width=".66" height="1.91" transform="translate(18.85 50.9) rotate(180)"/><rect class="cls-6" x="7.25" y="24.56" width=".66" height="3.04" transform="translate(-18.51 33.65) rotate(-90)"/><rect class="cls-6" x="42.24" y="-7.99" width=".66" height="65.63" transform="translate(17.74 67.39) rotate(-90)"/><rect class="cls-6" x="75.38" y="24.49" width=".66" height="1.91"/><rect class="cls-6" x="77.23" y="24.56" width=".66" height="3.04" transform="translate(51.48 103.63) rotate(-90)"/><rect class="cls-7" x="24.31" y="72.14" width=".09" height="18.16" transform="translate(-56.86 105.58) rotate(-90)"/><rect class="cls-7" x="24.31" y="72.35" width=".09" height="15.82" transform="translate(-55.91 104.62) rotate(-90)"/></g></svg>