<?xml version="1.0" encoding="UTF-8"?><svg id="how_to_prevent" xmlns="http://www.w3.org/2000/svg" viewBox="0 0 32 32"><defs><style>.cls-1{fill:none;}.cls-1,.cls-2,.cls-3,.cls-4,.cls-5,.cls-6,.cls-7,.cls-8{stroke-width:0px;}.cls-2{fill:#6d99bc;}.cls-3{fill:#4b6275;}.cls-4{fill:#c4e9f7;}.cls-5{fill:#5b798c;}.cls-6{fill:#77a8c7;}.cls-7{fill:#fff;}.cls-8{fill:#3f607e;}</style></defs><rect class="cls-1" width="32" height="32"/><path class="cls-4" d="M29.9,22.9s0-.02,0-.03c.02-.08.02-.16.03-.23,0-.07,0-.13,0-.19,0-.09-.02-.16-.07-.22-.03-.03-.1-.03-.13,0-.02.03-.04.06-.06.1-.01.03-.01.06-.02.09-.01.06-.03.12-.04.18-.01.06-.03.12-.05.18,0,.01,0,.03-.01.04-.02-.02-.05-.04-.08-.07-.07-.05-.14-.11-.21-.15-.08-.05-.16-.08-.25-.11-.08-.03-.18-.07-.26-.03-.01,0-.02.02-.02.04.02.08.11.12.17.17.08.06.13.11.2.16.03.02.06.04.09.07h-2.36s.02-.03.03-.04c.06-.08.12-.17.16-.25.03-.05.04-.09.06-.14.02-.05.04-.1.07-.15,0-.01-.01-.03-.02-.02-.04.03-.08.07-.13.09-.05.03-.09.05-.13.08-.09.06-.16.14-.24.21,0,0,0,0-.01.01,0,0,0-.02,0-.03,0-.08-.01-.17-.03-.25,0-.04-.01-.08-.02-.12,0-.04-.03-.08-.03-.12,0-.03-.06-.04-.07,0,0,.04-.03.08-.03.12s-.02.08-.03.12c-.02.07-.03.15-.05.23,0,0,0,.02,0,.03-.07-.05-.15-.08-.22-.12-.06-.03-.13-.06-.19-.07-.07-.01-.15-.04-.21,0-.02.02-.03.03-.03.06.01.06.07.09.12.13h0s0,0,0,0c0,0,0,0,.01.01.02.01.03.02.05.03.03.01.05.03.07.04.07.05.14.09.21.14h-5.38c.01-.06.02-.13.03-.19.01-.08.02-.16.02-.24,0-.03,0-.07,0-.1,0-.02-.01-.03-.01-.05,0-.03,0-.05,0-.07,0-.05-.06-.07-.07-.02-.01.04-.02.07-.05.11-.02.03-.04.06-.05.09-.04.07-.06.14-.09.22-.02.07-.04.14-.06.21-.03-.02-.05-.03-.07-.05-.02-.01-.03-.02-.05-.03l-.03-.02s0,0,0,0h0c-.07-.05-.13-.09-.19-.14-.03-.03-.07-.05-.1-.07-.03-.02-.05-.03-.08-.03,0,0,0,0-.01-.01-.02-.02-.05,0-.03.03,0,0,0,0,0,0,0,0,0,0,0,0,0,0,0,.02,0,.03,0,.02.01.04.02.06.02.04.03.07.06.11.05.07.1.13.15.19h-3.64s.06-.07.1-.11c.03-.04.07-.07.11-.11.02-.02.04-.04.06-.07.01-.02.02-.05.03-.06.03-.03,0-.08-.04-.07,0,0-.02,0-.04,0-.05,0-.1.02-.15.04-.05.03-.09.05-.13.08-.1.06-.18.14-.27.22-.02.02-.04.04-.06.07h-.05s0,0,0,0c.04-.07.08-.14.11-.21.04-.08.08-.16.11-.24.02-.04.02-.08.04-.12.01-.04.03-.09.05-.13.01-.03-.03-.06-.06-.03-.03.03-.05.05-.08.08-.03.03-.06.05-.09.07-.06.05-.11.12-.16.19-.05.06-.09.12-.14.18-.03-.08-.05-.15-.08-.23-.02-.06-.05-.16-.11-.19,0,0,0,0,0,0-.02-.03-.07-.03-.08.01,0,0,0,0,0,.01-.04.05-.04.15-.03.21,0,.09.02.18.03.27,0,.03.01.05.01.07-.03-.03-.07-.05-.1-.08-.05-.04-.09-.07-.14-.11-.05-.04-.08-.07-.13-.09-.05-.03-.09-.06-.15-.08-.05-.01-.12-.02-.14.04-.03.1.08.22.14.28.03.04.07.07.11.11h-1.16v2.92h16.59v-2.92h-.74Z"/><rect class="cls-6" x="14.04" y="25.82" width="16.58" height="5.2"/><rect class="cls-4" x="14.07" y="27.29" width="16.58" height=".9"/><rect class="cls-2" x="14.07" y="27.74" width="16.58" height=".45"/><rect class="cls-2" x="21.92" y="18.71" width=".66" height="3.63"/><path class="cls-3" d="M21.92,18.71v.69c.47-.03.66-.28.66-.28v-.41h-.66Z"/><rect class="cls-2" x="21.55" y="21.43" width="1.4" height="5.81" rx=".26" ry=".26"/><path class="cls-2" d="M21.05,17.99s0,1.16,1.22,1.16,1.17-1.16,1.17-1.16h-2.39Z"/><path class="cls-4" d="M23.44,17.99c0,.15-.53.28-1.19.28s-1.19-.13-1.19-.28.53-.28,1.19-.28,1.19.13,1.19.28Z"/><polygon class="cls-3" points="22.58 21.43 21.92 21.43 21.92 21.25 22.58 21.43"/><rect class="cls-5" x="20.87" y="26.82" width="2.8" height="1.89" rx=".23" ry=".23"/><polygon class="cls-3" points="22.95 26.82 21.55 26.82 21.55 26.48 22.95 26.82"/><rect class="cls-5" x="21.37" y="21.78" width="1.76" height=".53" rx=".12" ry=".12"/><path class="cls-8" d="M22.11,18.16s-.03.03-.08.03-.08-.01-.08-.03.03-.03.08-.03.08.01.08.03Z"/><path class="cls-8" d="M21.59,18.08s-.03.03-.08.03-.08-.01-.08-.03.03-.03.08-.03.08.01.08.03Z"/><path class="cls-8" d="M21.83,18.12s-.03.03-.08.03-.08-.01-.08-.03.03-.03.08-.03.08.01.08.03Z"/><path class="cls-8" d="M22.4,18.15s-.03.03-.08.03-.08-.01-.08-.03.03-.03.08-.03.08.01.08.03Z"/><path class="cls-8" d="M22.33,17.99s-.03.03-.08.03-.08-.01-.08-.03.03-.03.08-.03.08.01.08.03Z"/><path class="cls-8" d="M22.03,17.98s-.03.03-.08.03-.08-.01-.08-.03.03-.03.08-.03.08.01.08.03Z"/><path class="cls-8" d="M21.91,17.8s-.03.03-.08.03-.08-.01-.08-.03.03-.03.08-.03.08.01.08.03Z"/><path class="cls-8" d="M21.75,17.96s-.03.03-.08.03-.08-.01-.08-.03.03-.03.08-.03.08.01.08.03Z"/><path class="cls-8" d="M21.56,17.86s-.03.03-.08.03-.08-.01-.08-.03.03-.03.08-.03.08.01.08.03Z"/><path class="cls-8" d="M21.35,17.98s-.03.03-.08.03-.08-.01-.08-.03.03-.03.08-.03.08.01.08.03Z"/><path class="cls-8" d="M22.56,17.83s-.03.03-.08.03-.08-.01-.08-.03.03-.03.08-.03.08.01.08.03Z"/><path class="cls-8" d="M22.26,17.8s-.03.03-.08.03-.08-.01-.08-.03.03-.03.08-.03.08.01.08.03Z"/><path class="cls-8" d="M22.63,17.98s-.03.03-.08.03-.08-.01-.08-.03.03-.03.08-.03.08.01.08.03Z"/><path class="cls-8" d="M22.67,18.15s-.03.03-.08.03-.08-.01-.08-.03.03-.03.08-.03.08.01.08.03Z"/><path class="cls-8" d="M22.95,18.12s-.03.03-.08.03-.08-.01-.08-.03.03-.03.08-.03.08.01.08.03Z"/><path class="cls-8" d="M22.91,17.83s-.03.03-.08.03-.08-.01-.08-.03.03-.03.08-.03.08.01.08.03Z"/><path class="cls-8" d="M22.93,17.95s-.03.03-.08.03-.08-.01-.08-.03.03-.03.08-.03.08.01.08.03Z"/><path class="cls-8" d="M23.33,17.99s-.03.03-.08.03-.08-.01-.08-.03.03-.03.08-.03.08.01.08.03Z"/><path class="cls-8" d="M23.18,18.09s-.03.03-.08.03-.08-.01-.08-.03.03-.03.08-.03.08.01.08.03Z"/><path class="cls-8" d="M23.15,17.89s-.03.03-.08.03-.08-.01-.08-.03.03-.03.08-.03.08.01.08.03Z"/><path class="cls-4" d="M22.25,17.52s-.05-.02-.05-.05v-.19s.02-.05.05-.05.05.02.05.05v.19s-.02.05-.05.05Z"/><path class="cls-4" d="M22.25,16.94s-.05-.02-.05-.05v-.39s.02-.05.05-.05.05.02.05.05v.39s-.02.05-.05.05ZM22.25,16.15s-.05-.02-.05-.05v-.39s.02-.05.05-.05.05.02.05.05v.39s-.02.05-.05.05ZM22.25,15.37s-.05-.02-.05-.05v-.39s.02-.05.05-.05.05.02.05.05v.39s-.02.05-.05.05ZM22.25,14.58s-.05-.02-.05-.05v-.39s.02-.05.05-.05.05.02.05.05v.39s-.02.05-.05.05ZM22.25,13.79s-.05-.02-.05-.05v-.39s.02-.05.05-.05.05.02.05.05v.39s-.02.05-.05.05ZM22.25,13.01s-.05-.02-.05-.05v-.39s.02-.05.05-.05.05.02.05.05v.39s-.02.05-.05.05ZM22.25,12.22s-.05-.02-.05-.05v-.39s.02-.05.05-.05.05.02.05.05v.39s-.02.05-.05.05ZM22.25,11.44s-.05-.02-.05-.05v-.39s.02-.05.05-.05.05.02.05.05v.39s-.02.05-.05.05ZM22.25,10.65s-.05-.02-.05-.05v-.39s.02-.05.05-.05.05.02.05.05v.39s-.02.05-.05.05ZM22.25,9.87s-.05-.02-.05-.05v-.39s.02-.05.05-.05.05.02.05.05v.39s-.02.05-.05.05ZM22.25,9.08s-.05-.02-.05-.05v-.39s.02-.05.05-.05.05.02.05.05v.39s-.02.05-.05.05Z"/><path class="cls-4" d="M22.25,8.3s-.05-.02-.05-.05v-.19s.02-.05.05-.05.05.02.05.05v.19s-.02.05-.05.05Z"/><path class="cls-4" d="M22.47,17.53s0,0,0,0c-.03,0-.04-.03-.04-.06l.03-.19s.03-.04.06-.04c.03,0,.04.03.04.06l-.03.19s-.02.04-.05.04Z"/><path class="cls-4" d="M22.57,16.95s0,0,0,0c-.03,0-.04-.03-.04-.06l.06-.38s.03-.04.06-.04c.03,0,.04.03.04.06l-.06.38s-.02.04-.05.04ZM22.7,16.18s0,0,0,0c-.03,0-.04-.03-.04-.06l.06-.38s.03-.04.06-.04c.03,0,.04.03.04.06l-.06.38s-.02.04-.05.04ZM22.82,15.42s0,0,0,0c-.03,0-.04-.03-.04-.06l.06-.38s.03-.04.06-.04c.03,0,.04.03.04.06l-.06.38s-.02.04-.05.04ZM22.95,14.65s0,0,0,0c-.03,0-.04-.03-.04-.06l.06-.38s.03-.04.06-.04c.03,0,.04.03.04.06l-.06.38s-.02.04-.05.04ZM23.08,13.88s0,0,0,0c-.03,0-.04-.03-.04-.06l.06-.38s.03-.04.06-.04c.03,0,.04.03.04.06l-.06.38s-.02.04-.05.04ZM23.21,13.12s0,0,0,0c-.03,0-.04-.03-.04-.06l.06-.38s.03-.04.06-.04c.03,0,.04.03.04.06l-.06.38s-.02.04-.05.04ZM23.34,12.35s0,0,0,0c-.03,0-.04-.03-.04-.06l.06-.38s.03-.04.06-.04c.03,0,.04.03.04.06l-.06.38s-.02.04-.05.04ZM23.47,11.58s0,0,0,0c-.03,0-.04-.03-.04-.06l.06-.38s.03-.04.06-.04c.03,0,.04.03.04.06l-.06.38s-.02.04-.05.04ZM23.6,10.81s0,0,0,0c-.03,0-.04-.03-.04-.06l.06-.38s.03-.04.06-.04c.03,0,.04.03.04.06l-.06.38s-.02.04-.05.04ZM23.73,10.05s0,0,0,0c-.03,0-.04-.03-.04-.06l.06-.38s.03-.04.06-.04c.03,0,.04.03.04.06l-.06.38s-.02.04-.05.04ZM23.86,9.28s0,0,0,0c-.03,0-.04-.03-.04-.06l.06-.38s.03-.04.06-.04c.03,0,.04.03.04.06l-.06.38s-.02.04-.05.04Z"/><path class="cls-4" d="M23.99,8.51s0,0,0,0c-.03,0-.04-.03-.04-.06l.03-.19s.03-.04.06-.04c.03,0,.04.03.04.06l-.03.19s-.02.04-.05.04Z"/><path class="cls-4" d="M22.73,17.55s0,0-.01,0c-.03,0-.04-.04-.03-.06l.06-.18s.04-.04.06-.03c.03,0,.04.04.03.06l-.06.18s-.03.03-.05.03Z"/><path class="cls-4" d="M22.91,17s0,0-.01,0c-.03,0-.04-.04-.03-.06l.12-.37s.04-.04.06-.03c.03,0,.04.04.03.06l-.12.37s-.03.03-.05.03ZM23.15,16.26s0,0-.01,0c-.03,0-.04-.04-.03-.06l.12-.37s.04-.04.06-.03c.03,0,.04.04.03.06l-.12.37s-.03.03-.05.03ZM23.39,15.53s0,0-.01,0c-.03,0-.04-.04-.03-.06l.12-.37s.04-.04.06-.03c.03,0,.04.04.03.06l-.12.37s-.03.03-.05.03ZM23.63,14.79s0,0-.01,0c-.03,0-.04-.04-.03-.06l.12-.37s.04-.04.06-.03c.03,0,.04.04.03.06l-.12.37s-.03.03-.05.03ZM23.87,14.05s0,0-.01,0c-.03,0-.04-.04-.03-.06l.12-.37s.04-.04.06-.03c.03,0,.04.04.03.06l-.12.37s-.03.03-.05.03ZM24.11,13.32s0,0-.01,0c-.03,0-.04-.04-.03-.06l.12-.37s.04-.04.06-.03c.03,0,.04.04.03.06l-.12.37s-.03.03-.05.03ZM24.35,12.58s0,0-.01,0c-.03,0-.04-.04-.03-.06l.12-.37s.04-.04.06-.03c.03,0,.04.04.03.06l-.12.37s-.03.03-.05.03ZM24.59,11.84s0,0-.01,0c-.03,0-.04-.04-.03-.06l.12-.37s.04-.04.06-.03c.03,0,.04.04.03.06l-.12.37s-.03.03-.05.03ZM24.83,11.11s0,0-.01,0c-.03,0-.04-.04-.03-.06l.12-.37s.04-.04.06-.03c.03,0,.04.04.03.06l-.12.37s-.03.03-.05.03ZM25.07,10.37s0,0-.01,0c-.03,0-.04-.04-.03-.06l.12-.37s.04-.04.06-.03c.03,0,.04.04.03.06l-.12.37s-.03.03-.05.03ZM25.31,9.64s0,0-.01,0c-.03,0-.04-.04-.03-.06l.12-.37s.04-.04.06-.03c.03,0,.04.04.03.06l-.12.37s-.03.03-.05.03Z"/><path class="cls-4" d="M25.55,8.9s0,0-.01,0c-.03,0-.04-.04-.03-.06l.06-.18s.04-.04.06-.03c.03,0,.04.04.03.06l-.06.18s-.03.03-.05.03Z"/><path class="cls-4" d="M23.25,17.65s-.02,0-.03,0c-.02-.02-.03-.04-.01-.07l.11-.16s.05-.03.07-.01c.02.02.03.04.01.07l-.11.16s-.02.02-.04.02Z"/><path class="cls-4" d="M23.57,17.18s-.02,0-.03,0c-.02-.02-.03-.04-.01-.07l.21-.31s.05-.03.07-.01c.02.02.03.04.01.07l-.21.31s-.02.02-.04.02ZM24,16.56s-.02,0-.03,0c-.02-.02-.03-.04-.01-.07l.21-.31s.04-.03.07-.01c.02.02.03.04.01.07l-.21.31s-.02.02-.04.02ZM24.43,15.93s-.02,0-.03,0c-.02-.02-.03-.04-.01-.07l.21-.31s.05-.03.07-.01c.02.02.03.04.01.07l-.21.31s-.02.02-.04.02ZM24.85,15.31s-.02,0-.03,0c-.02-.02-.03-.04-.01-.07l.21-.31s.05-.03.07-.01c.02.02.03.04.01.07l-.21.31s-.02.02-.04.02ZM25.28,14.69s-.02,0-.03,0c-.02-.02-.03-.04-.01-.07l.21-.31s.05-.03.07-.01c.02.02.03.04.01.07l-.21.31s-.02.02-.04.02ZM25.7,14.07s-.02,0-.03,0c-.02-.02-.03-.04-.01-.07l.21-.31s.05-.03.07-.01c.02.02.03.04.01.07l-.21.31s-.02.02-.04.02ZM26.13,13.45s-.02,0-.03,0c-.02-.02-.03-.04-.01-.07l.21-.31s.05-.03.07-.01c.02.02.03.04.01.07l-.21.31s-.02.02-.04.02ZM26.56,12.83s-.02,0-.03,0c-.02-.02-.03-.04-.01-.07l.21-.31s.04-.03.07-.01c.02.02.03.04.01.07l-.21.31s-.02.02-.04.02ZM26.98,12.21s-.02,0-.03,0c-.02-.02-.03-.04-.01-.07l.21-.31s.05-.03.07-.01c.02.02.03.04.01.07l-.21.31s-.02.02-.04.02ZM27.41,11.58s-.02,0-.03,0c-.02-.02-.03-.04-.01-.07l.21-.31s.05-.03.07-.01c.02.02.03.04.01.07l-.21.31s-.02.02-.04.02ZM27.84,10.96s-.02,0-.03,0c-.02-.02-.03-.04-.01-.07l.21-.31s.05-.03.07-.01c.02.02.03.04.01.07l-.21.31s-.02.02-.04.02Z"/><path class="cls-4" d="M28.26,10.34s-.02,0-.03,0c-.02-.02-.03-.04-.01-.07l.11-.16s.05-.03.07-.01c.02.02.03.04.01.07l-.11.16s-.02.02-.04.02Z"/><path class="cls-4" d="M22.97,17.6s-.01,0-.02,0c-.02-.01-.03-.04-.02-.06l.09-.17s.04-.03.06-.02c.02.01.03.04.02.06l-.09.17s-.03.03-.04.03Z"/><path class="cls-4" d="M23.23,17.08s-.01,0-.02,0c-.02-.01-.03-.04-.02-.06l.17-.34s.04-.03.06-.02c.02.01.03.04.02.06l-.17.34s-.03.03-.04.03ZM23.57,16.4s-.01,0-.02,0c-.02-.01-.03-.04-.02-.06l.17-.34s.04-.03.06-.02c.02.01.03.04.02.06l-.17.34s-.03.03-.04.03ZM23.92,15.71s-.01,0-.02,0c-.02-.01-.03-.04-.02-.06l.17-.34s.04-.03.06-.02c.02.01.03.04.02.06l-.17.34s-.03.03-.04.03ZM24.26,15.02s-.01,0-.02,0c-.02-.01-.03-.04-.02-.06l.17-.34s.04-.03.06-.02c.02.01.03.04.02.06l-.17.34s-.03.03-.04.03ZM24.61,14.34s-.01,0-.02,0c-.02-.01-.03-.04-.02-.06l.17-.34s.04-.03.06-.02c.02.01.03.04.02.06l-.17.34s-.03.03-.04.03ZM24.95,13.65s-.01,0-.02,0c-.02-.01-.03-.04-.02-.06l.17-.34s.04-.03.06-.02c.02.01.03.04.02.06l-.17.34s-.03.03-.04.03ZM25.29,12.97s-.01,0-.02,0c-.02-.01-.03-.04-.02-.06l.17-.34s.04-.03.06-.02c.02.01.03.04.02.06l-.17.34s-.03.03-.04.03ZM25.64,12.28s-.01,0-.02,0c-.02-.01-.03-.04-.02-.06l.17-.34s.04-.03.06-.02c.02.01.03.04.02.06l-.17.34s-.03.03-.04.03ZM25.98,11.6s-.01,0-.02,0c-.02-.01-.03-.04-.02-.06l.17-.34s.04-.03.06-.02c.02.01.03.04.02.06l-.17.34s-.03.03-.04.03ZM26.33,10.91s-.01,0-.02,0c-.02-.01-.03-.04-.02-.06l.17-.34s.04-.03.06-.02c.02.01.03.04.02.06l-.17.34s-.03.03-.04.03ZM26.67,10.23s-.01,0-.02,0c-.02-.01-.03-.04-.02-.06l.17-.34s.04-.03.06-.02c.02.01.03.04.02.06l-.17.34s-.03.03-.04.03Z"/><path class="cls-4" d="M27.02,9.54s-.01,0-.02,0c-.02-.01-.03-.04-.02-.06l.09-.17s.04-.03.06-.02c.02.01.03.04.02.06l-.09.17s-.03.03-.04.03Z"/><path class="cls-4" d="M23.48,17.75s-.02,0-.03-.01c-.02-.02-.02-.05,0-.07l.13-.14s.05-.02.07,0c.02.02.02.05,0,.07l-.13.14s-.02.02-.04.02Z"/><path class="cls-4" d="M23.86,17.33s-.02,0-.03-.01c-.02-.02-.02-.05,0-.07l.25-.28s.05-.02.07,0c.02.02.02.05,0,.07l-.25.28s-.02.02-.04.02ZM24.35,16.78s-.02,0-.03-.01c-.02-.02-.02-.05,0-.07l.25-.28s.05-.02.07,0c.02.02.02.05,0,.07l-.25.28s-.02.02-.04.02ZM24.84,16.23s-.02,0-.03-.01c-.02-.02-.02-.05,0-.07l.25-.28s.05-.02.07,0c.02.02.02.05,0,.07l-.25.28s-.02.02-.04.02ZM25.33,15.68s-.02,0-.03-.01c-.02-.02-.02-.05,0-.07l.25-.28s.05-.02.07,0c.02.02.02.05,0,.07l-.25.28s-.02.02-.04.02ZM25.82,15.12s-.02,0-.03-.01c-.02-.02-.02-.05,0-.07l.25-.28s.05-.02.07,0c.02.02.02.05,0,.07l-.25.28s-.02.02-.04.02ZM26.32,14.57s-.02,0-.03-.01c-.02-.02-.02-.05,0-.07l.25-.28s.05-.02.07,0c.02.02.02.05,0,.07l-.25.28s-.02.02-.04.02ZM26.81,14.02s-.02,0-.03-.01c-.02-.02-.02-.05,0-.07l.25-.28s.05-.02.07,0c.02.02.02.05,0,.07l-.25.28s-.02.02-.04.02ZM27.3,13.47s-.02,0-.03-.01c-.02-.02-.02-.05,0-.07l.25-.28s.05-.02.07,0c.02.02.02.05,0,.07l-.25.28s-.02.02-.04.02ZM27.79,12.92s-.02,0-.03-.01c-.02-.02-.02-.05,0-.07l.25-.28s.05-.02.07,0c.02.02.02.05,0,.07l-.25.28s-.02.02-.04.02ZM28.28,12.37s-.02,0-.03-.01c-.02-.02-.02-.05,0-.07l.25-.28s.05-.02.07,0c.02.02.02.05,0,.07l-.25.28s-.02.02-.04.02ZM28.77,11.82s-.02,0-.03-.01c-.02-.02-.02-.05,0-.07l.25-.28s.05-.02.07,0c.02.02.02.05,0,.07l-.25.28s-.02.02-.04.02Z"/><path class="cls-4" d="M29.27,11.27s-.02,0-.03-.01c-.02-.02-.02-.05,0-.07l.13-.14s.05-.02.07,0c.02.02.02.05,0,.07l-.13.14s-.02.02-.04.02Z"/><path class="cls-7" d="M23.61,17.89s-.03,0-.04-.02c-.02-.02-.01-.05,0-.07l.15-.12s.05-.01.07,0c.02.02.01.05,0,.07l-.15.12s-.02.01-.03.01Z"/><path class="cls-4" d="M24.07,17.5s-.03,0-.04-.02c-.02-.02-.01-.05,0-.07l.31-.26s.05-.01.07,0c.02.02.01.05,0,.07l-.31.26s-.02.01-.03.01ZM24.68,16.99s-.03,0-.04-.02c-.02-.02-.01-.05,0-.07l.31-.26s.05-.01.07,0c.02.02.01.05,0,.07l-.31.26s-.02.01-.03.01ZM25.3,16.47s-.03,0-.04-.02c-.02-.02-.01-.05,0-.07l.31-.26s.05-.01.07,0c.02.02.01.05,0,.07l-.31.26s-.02.01-.03.01ZM25.91,15.95s-.03,0-.04-.02c-.02-.02-.01-.05,0-.07l.31-.26s.05-.01.07,0c.02.02.01.05,0,.07l-.31.26s-.02.01-.03.01ZM26.53,15.43s-.03,0-.04-.02c-.02-.02-.01-.05,0-.07l.31-.26s.05-.01.07,0c.02.02.01.05,0,.07l-.31.26s-.02.01-.03.01ZM27.15,14.92s-.03,0-.04-.02c-.02-.02-.01-.05,0-.07l.31-.26s.05-.01.07,0c.02.02.01.05,0,.07l-.31.26s-.02.01-.03.01ZM27.76,14.4s-.03,0-.04-.02c-.02-.02-.01-.05,0-.07l.31-.26s.05-.01.07,0c.02.02.01.05,0,.07l-.31.26s-.02.01-.03.01ZM28.38,13.88s-.03,0-.04-.02c-.02-.02-.01-.05,0-.07l.31-.26s.05-.01.07,0c.02.02.01.05,0,.07l-.31.26s-.02.01-.03.01ZM28.99,13.36s-.03,0-.04-.02c-.02-.02-.01-.05,0-.07l.31-.26s.05-.01.07,0c.02.02.01.05,0,.07l-.31.26s-.02.01-.03.01ZM29.61,12.85s-.03,0-.04-.02c-.02-.02-.01-.05,0-.07l.31-.26s.05-.01.07,0c.02.02.01.05,0,.07l-.31.26s-.02.01-.03.01Z"/><path class="cls-4" d="M30.22,12.33s-.03,0-.04-.02c-.02-.02-.01-.05,0-.07l.15-.12s.05-.01.07,0c.02.02.01.05,0,.07l-.15.12s-.02.01-.03.01Z"/><path class="cls-4" d="M22.04,17.53s-.04-.02-.05-.04l-.03-.19s.01-.05.04-.06c.03,0,.05.01.06.04l.03.19s-.01.05-.04.06c0,0,0,0,0,0Z"/><path class="cls-4" d="M21.94,16.95s-.04-.02-.05-.04l-.06-.38s.01-.05.04-.06c.03,0,.05.01.06.04l.06.38s-.01.05-.04.06c0,0,0,0,0,0ZM21.81,16.18s-.04-.02-.05-.04l-.06-.38s.01-.05.04-.06c.03,0,.05.01.06.04l.06.38s-.01.05-.04.06c0,0,0,0,0,0ZM21.69,15.42s-.04-.02-.05-.04l-.06-.38s.01-.05.04-.06c.03,0,.05.01.06.04l.06.38s-.01.05-.04.06c0,0,0,0,0,0ZM21.56,14.65s-.04-.02-.05-.04l-.06-.38s.01-.05.04-.06c.03,0,.05.01.06.04l.06.38s-.01.05-.04.06c0,0,0,0,0,0ZM21.43,13.88s-.04-.02-.05-.04l-.06-.38s.01-.05.04-.06c.03,0,.05.01.06.04l.06.38s-.01.05-.04.06c0,0,0,0,0,0ZM21.3,13.12s-.04-.02-.05-.04l-.06-.38s.01-.05.04-.06c.03,0,.05.01.06.04l.06.38s-.01.05-.04.06c0,0,0,0,0,0ZM21.17,12.35s-.04-.02-.05-.04l-.06-.38s.01-.05.04-.06c.03,0,.05.01.06.04l.06.38s-.01.05-.04.06c0,0,0,0,0,0ZM21.04,11.58s-.04-.02-.05-.04l-.06-.38s.01-.05.04-.06c.03,0,.05.01.06.04l.06.38s-.01.05-.04.06c0,0,0,0,0,0ZM20.91,10.81s-.04-.02-.05-.04l-.06-.38s.01-.05.04-.06c.03,0,.05.01.06.04l.06.38s-.01.05-.04.06c0,0,0,0,0,0ZM20.78,10.05s-.04-.02-.05-.04l-.06-.38s.01-.05.04-.06c.03,0,.05.01.06.04l.06.38s-.01.05-.04.06c0,0,0,0,0,0ZM20.65,9.28s-.04-.02-.05-.04l-.06-.38s.01-.05.04-.06c.03,0,.05.01.06.04l.06.38s-.01.05-.04.06c0,0,0,0,0,0Z"/><path class="cls-4" d="M20.52,8.51s-.04-.02-.05-.04l-.03-.19s.01-.05.04-.06c.03,0,.05.01.06.04l.03.19s-.01.05-.04.06c0,0,0,0,0,0Z"/><path class="cls-4" d="M21.78,17.55s-.04-.01-.05-.03l-.06-.18s0-.05.03-.06c.03,0,.05,0,.06.03l.06.18s0,.05-.03.06c0,0,0,0-.01,0Z"/><path class="cls-4" d="M21.6,17s-.04-.01-.05-.03l-.12-.37s0-.05.03-.06c.03,0,.05,0,.06.03l.12.37s0,.05-.03.06c0,0,0,0-.01,0ZM21.36,16.26s-.04-.01-.05-.03l-.12-.37s0-.05.03-.06c.03,0,.05,0,.06.03l.12.37s0,.05-.03.06c0,0,0,0-.01,0ZM21.12,15.53s-.04-.01-.05-.03l-.12-.37s0-.05.03-.06c.03,0,.05,0,.06.03l.12.37s0,.05-.03.06c0,0,0,0-.01,0ZM20.88,14.79s-.04-.01-.05-.03l-.12-.37s0-.05.03-.06c.03,0,.05,0,.06.03l.12.37s0,.05-.03.06c0,0,0,0-.01,0ZM20.64,14.05s-.04-.01-.05-.03l-.12-.37s0-.05.03-.06c.03,0,.05,0,.06.03l.12.37s0,.05-.03.06c0,0,0,0-.01,0ZM20.4,13.32s-.04-.01-.05-.03l-.12-.37s0-.05.03-.06c.03,0,.05,0,.06.03l.12.37s0,.05-.03.06c0,0,0,0-.01,0ZM20.16,12.58s-.04-.01-.05-.03l-.12-.37s0-.05.03-.06c.03,0,.05,0,.06.03l.12.37s0,.05-.03.06c0,0,0,0-.01,0ZM19.92,11.84s-.04-.01-.05-.03l-.12-.37s0-.05.03-.06c.03,0,.05,0,.06.03l.12.37s0,.05-.03.06c0,0,0,0-.01,0ZM19.68,11.11s-.04-.01-.05-.03l-.12-.37s0-.05.03-.06c.03,0,.05,0,.06.03l.12.37s0,.05-.03.06c0,0,0,0-.01,0ZM19.44,10.37s-.04-.01-.05-.03l-.12-.37s0-.05.03-.06c.03,0,.05,0,.06.03l.12.37s0,.05-.03.06c0,0,0,0-.01,0ZM19.2,9.64s-.04-.01-.05-.03l-.12-.37s0-.05.03-.06c.03,0,.05,0,.06.03l.12.37s0,.05-.03.06c0,0,0,0-.01,0Z"/><path class="cls-4" d="M18.96,8.9s-.04-.01-.05-.03l-.06-.18s0-.05.03-.06c.03,0,.05,0,.06.03l.06.18s0,.05-.03.06c0,0,0,0-.01,0Z"/><path class="cls-4" d="M21.26,17.65s-.03,0-.04-.02l-.11-.16s0-.05.01-.07c.02-.01.05,0,.07.01l.11.16s0,.05-.01.07c0,0-.02,0-.03,0Z"/><path class="cls-4" d="M20.94,17.18s-.03,0-.04-.02l-.21-.31s0-.05.01-.07c.02-.01.05,0,.07.01l.21.31s0,.05-.01.07c0,0-.02,0-.03,0ZM20.51,16.56s-.03,0-.04-.02l-.21-.31s0-.05.01-.07c.02-.01.05,0,.07.01l.21.31s0,.05-.01.07c0,0-.02,0-.03,0ZM20.08,15.93s-.03,0-.04-.02l-.21-.31s0-.05.01-.07c.02-.01.05,0,.07.01l.21.31s0,.05-.01.07c0,0-.02,0-.03,0ZM19.66,15.31s-.03,0-.04-.02l-.21-.31s0-.05.01-.07c.02-.01.05,0,.07.01l.21.31s0,.05-.01.07c0,0-.02,0-.03,0ZM19.23,14.69s-.03,0-.04-.02l-.21-.31s0-.05.01-.07c.02-.01.05,0,.07.01l.21.31s0,.05-.01.07c0,0-.02,0-.03,0ZM18.81,14.07s-.03,0-.04-.02l-.21-.31s0-.05.01-.07c.02-.01.05,0,.07.01l.21.31s0,.05-.01.07c0,0-.02,0-.03,0ZM18.38,13.45s-.03,0-.04-.02l-.21-.31s0-.05.01-.07c.02-.01.05,0,.07.01l.21.31s0,.05-.01.07c0,0-.02,0-.03,0ZM17.95,12.83s-.03,0-.04-.02l-.21-.31s0-.05.01-.07c.02-.01.05,0,.07.01l.21.31s0,.05-.01.07c0,0-.02,0-.03,0ZM17.53,12.21s-.03,0-.04-.02l-.21-.31s0-.05.01-.07c.02-.01.05,0,.07.01l.21.31s0,.05-.01.07c0,0-.02,0-.03,0ZM17.1,11.58s-.03,0-.04-.02l-.21-.31s0-.05.01-.07c.02-.01.05,0,.07.01l.21.31s0,.05-.01.07c0,0-.02,0-.03,0ZM16.67,10.96s-.03,0-.04-.02l-.21-.31s0-.05.01-.07c.02-.01.05,0,.07.01l.21.31s0,.05-.01.07c0,0-.02,0-.03,0Z"/><path class="cls-4" d="M16.25,10.34s-.03,0-.04-.02l-.11-.16s0-.05.01-.07c.02-.01.05,0,.07.01l.11.16s0,.05-.01.07c0,0-.02,0-.03,0Z"/><path class="cls-4" d="M21.54,17.6s-.03,0-.04-.03l-.09-.17s0-.05.02-.06c.02-.01.05,0,.06.02l.09.17s0,.05-.02.06c0,0-.01,0-.02,0Z"/><path class="cls-4" d="M21.28,17.08s-.03,0-.04-.03l-.17-.34s0-.05.02-.06c.02-.01.05,0,.06.02l.17.34s0,.05-.02.06c0,0-.01,0-.02,0ZM20.94,16.4s-.03,0-.04-.03l-.17-.34s0-.05.02-.06c.02-.01.05,0,.06.02l.17.34s0,.05-.02.06c0,0-.01,0-.02,0ZM20.59,15.71s-.03,0-.04-.03l-.17-.34s0-.05.02-.06c.02-.01.05,0,.06.02l.17.34s0,.05-.02.06c0,0-.01,0-.02,0ZM20.25,15.02s-.03,0-.04-.03l-.17-.34s0-.05.02-.06c.02-.01.05,0,.06.02l.17.34s0,.05-.02.06c0,0-.01,0-.02,0ZM19.9,14.34s-.03,0-.04-.03l-.17-.34s0-.05.02-.06c.02-.01.05,0,.06.02l.17.34s0,.05-.02.06c0,0-.01,0-.02,0ZM19.56,13.65s-.03,0-.04-.03l-.17-.34s0-.05.02-.06c.02-.01.05,0,.06.02l.17.34s0,.05-.02.06c0,0-.01,0-.02,0ZM19.22,12.97s-.03,0-.04-.03l-.17-.34s0-.05.02-.06c.02-.01.05,0,.06.02l.17.34s0,.05-.02.06c0,0-.01,0-.02,0ZM18.87,12.28s-.03,0-.04-.03l-.17-.34s0-.05.02-.06c.02-.01.05,0,.06.02l.17.34s0,.05-.02.06c0,0-.01,0-.02,0ZM18.53,11.6s-.03,0-.04-.03l-.17-.34s0-.05.02-.06c.02-.01.05,0,.06.02l.17.34s0,.05-.02.06c0,0-.01,0-.02,0ZM18.18,10.91s-.03,0-.04-.03l-.17-.34s0-.05.02-.06c.02-.01.05,0,.06.02l.17.34s0,.05-.02.06c0,0-.01,0-.02,0ZM17.84,10.23s-.03,0-.04-.03l-.17-.34s0-.05.02-.06c.02-.01.05,0,.06.02l.17.34s0,.05-.02.06c0,0-.01,0-.02,0Z"/><path class="cls-4" d="M17.49,9.54s-.03,0-.04-.03l-.09-.17s0-.05.02-.06c.02-.01.05,0,.06.02l.09.17s0,.05-.02.06c0,0-.01,0-.02,0Z"/><path class="cls-4" d="M21.03,17.75s-.03,0-.04-.02l-.13-.14s-.02-.05,0-.07c.02-.02.05-.02.07,0l.13.14s.02.05,0,.07c0,0-.02.01-.03.01Z"/><path class="cls-4" d="M20.65,17.33s-.03,0-.04-.02l-.25-.28s-.02-.05,0-.07c.02-.02.05-.02.07,0l.25.28s.02.05,0,.07c0,0-.02.01-.03.01ZM20.16,16.78s-.03,0-.04-.02l-.25-.28s-.02-.05,0-.07c.02-.02.05-.02.07,0l.25.28s.02.05,0,.07c0,0-.02.01-.03.01ZM19.67,16.23s-.03,0-.04-.02l-.25-.28s-.02-.05,0-.07c.02-.02.05-.02.07,0l.25.28s.02.05,0,.07c0,0-.02.01-.03.01ZM19.18,15.68s-.03,0-.04-.02l-.25-.28s-.02-.05,0-.07c.02-.02.05-.02.07,0l.25.28s.02.05,0,.07c0,0-.02.01-.03.01ZM18.69,15.12s-.03,0-.04-.02l-.25-.28s-.02-.05,0-.07c.02-.02.05-.02.07,0l.25.28s.02.05,0,.07c0,0-.02.01-.03.01ZM18.19,14.57s-.03,0-.04-.02l-.25-.28s-.02-.05,0-.07c.02-.02.05-.02.07,0l.25.28s.02.05,0,.07c0,0-.02.01-.03.01ZM17.7,14.02s-.03,0-.04-.02l-.25-.28s-.02-.05,0-.07c.02-.02.05-.02.07,0l.25.28s.02.05,0,.07c0,0-.02.01-.03.01ZM17.21,13.47s-.03,0-.04-.02l-.25-.28s-.02-.05,0-.07c.02-.02.05-.02.07,0l.25.28s.02.05,0,.07c0,0-.02.01-.03.01ZM16.72,12.92s-.03,0-.04-.02l-.25-.28s-.02-.05,0-.07c.02-.02.05-.02.07,0l.25.28s.02.05,0,.07c0,0-.02.01-.03.01ZM16.23,12.37s-.03,0-.04-.02l-.25-.28s-.02-.05,0-.07c.02-.02.05-.02.07,0l.25.28s.02.05,0,.07c0,0-.02.01-.03.01ZM15.74,11.82s-.03,0-.04-.02l-.25-.28s-.02-.05,0-.07c.02-.02.05-.02.07,0l.25.28s.02.05,0,.07c0,0-.02.01-.03.01Z"/><path class="cls-4" d="M15.24,11.27s-.03,0-.04-.02l-.13-.14s-.02-.05,0-.07c.02-.02.05-.02.07,0l.13.14s.02.05,0,.07c0,0-.02.01-.03.01Z"/><path class="cls-7" d="M20.9,17.89s-.02,0-.03-.01l-.15-.12s-.02-.05,0-.07c.02-.02.05-.02.07,0l.15.12s.02.05,0,.07c0,.01-.02.02-.04.02Z"/><path class="cls-4" d="M20.44,17.5s-.02,0-.03-.01l-.31-.26s-.02-.05,0-.07c.02-.02.05-.02.07,0l.31.26s.02.05,0,.07c0,.01-.02.02-.04.02ZM19.83,16.99s-.02,0-.03-.01l-.31-.26s-.02-.05,0-.07c.02-.02.05-.02.07,0l.31.26s.02.05,0,.07c0,.01-.02.02-.04.02ZM19.21,16.47s-.02,0-.03-.01l-.31-.26s-.02-.05,0-.07c.02-.02.05-.02.07,0l.31.26s.02.05,0,.07c0,.01-.02.02-.04.02ZM18.6,15.95s-.02,0-.03-.01l-.31-.26s-.02-.05,0-.07c.02-.02.05-.02.07,0l.31.26s.02.05,0,.07c0,.01-.02.02-.04.02ZM17.98,15.43s-.02,0-.03-.01l-.31-.26s-.02-.05,0-.07c.02-.02.05-.02.07,0l.31.26s.02.05,0,.07c0,.01-.02.02-.04.02ZM17.36,14.92s-.02,0-.03-.01l-.31-.26s-.02-.05,0-.07c.02-.02.05-.02.07,0l.31.26s.02.05,0,.07c0,.01-.02.02-.04.02ZM16.75,14.4s-.02,0-.03-.01l-.31-.26s-.02-.05,0-.07c.02-.02.05-.02.07,0l.31.26s.02.05,0,.07c0,.01-.02.02-.04.02ZM16.13,13.88s-.02,0-.03-.01l-.31-.26s-.02-.05,0-.07c.02-.02.05-.02.07,0l.31.26s.02.05,0,.07c0,.01-.02.02-.04.02ZM15.52,13.36s-.02,0-.03-.01l-.31-.26s-.02-.05,0-.07c.02-.02.05-.02.07,0l.31.26s.02.05,0,.07c0,.01-.02.02-.04.02ZM14.9,12.85s-.02,0-.03-.01l-.31-.26s-.02-.05,0-.07c.02-.02.05-.02.07,0l.31.26s.02.05,0,.07c0,.01-.02.02-.04.02Z"/><path class="cls-4" d="M14.29,12.33s-.02,0-.03-.01l-.15-.12s-.02-.05,0-.07c.02-.02.05-.02.07,0l.15.12s.02.05,0,.07c0,.01-.02.02-.04.02Z"/><polygon class="cls-3" points="20.87 27.29 20.87 28.19 20.53 28.19 20.87 27.29"/><polygon class="cls-3" points="23.68 28.19 23.68 27.29 24.02 27.29 23.68 28.19"/></svg>