<?xml version="1.0" encoding="UTF-8"?><svg id="how_to_prevent" xmlns="http://www.w3.org/2000/svg" viewBox="0 0 32 32"><defs><style>.cls-1{fill:none;}.cls-1,.cls-2,.cls-3,.cls-4,.cls-5,.cls-6{stroke-width:0px;}.cls-2{fill:#6791a8;}.cls-3{fill:#3c6277;}.cls-4{fill:#000;}.cls-5{fill:#77a8c7;}.cls-6{fill:#9dd5ed;}</style></defs><rect class="cls-1" width="32" height="32"/><rect class="cls-4" x="13.34" y="28.98" width="8.26" height=".83"/><polygon class="cls-3" points="22.62 17.52 22.62 16.69 18.34 16.69 18.34 11.86 17.47 11.86 17.47 16.69 13.68 16.69 13.68 17.52 17.47 17.52 17.47 22.83 13.68 22.83 13.68 23.66 17.47 23.66 17.47 28.98 18.34 28.98 18.34 23.66 22.62 23.66 22.62 22.83 18.34 22.83 18.34 17.52 22.62 17.52"/><path class="cls-1" d="M25.94,16.69h2.53v-4.37h-2.53v4.37Z"/><path class="cls-1" d="M22.38,28.43h2.73v-4.77h-2.73v4.77Z"/><path class="cls-1" d="M25.93,22.83h2.52v-5.32h-2.52v5.32Z"/><path class="cls-1" d="M25.94,28.42h2.51v-4.76h-2.51v4.76Z"/><path class="cls-1" d="M22.38,22.83h2.72v-5.31h-2.72v5.31Z"/><path class="cls-1" d="M25.1,12.32h-2.72v4.37h2.72v-4.37Z"/><path class="cls-1" d="M14.43,28.73h6.51V12.17h-6.51v16.57Z"/><path class="cls-1" d="M20.59,10.73h0s-5.8,0-5.8,0c0,0,0,0,0,0h5.8Z"/><path class="cls-3" d="M22.62,10.73h-2.03,0c-1.93,0-3.85,0-5.8,0,0,0,0,0,0,0h-1.4c-.02.13-.03.26-.05.4v18.32c.07-.04.14-.07.2-.11,0,.03,0,.06,0,.1.13.03.25.09.38.09,2.22,0,4.45,0,6.67,0h.33c.03.11.06.2.08.28h8.86v-.4c0-5.66,0-11.32,0-16.98,0-.57-.03-1.14-.09-1.71h-7.16ZM20.94,28.73h-6.51V12.17h6.51v16.57ZM22.38,12.32h2.72v4.37h-2.72v-4.37ZM25.1,17.51v5.31h-2.72v-5.31h2.72ZM25.11,28.43h-2.73v-4.77h2.73v4.77ZM28.45,28.42h-2.51v-4.76h2.51v4.76ZM28.45,22.83h-2.52v-5.32h2.52v5.32ZM28.46,16.69h-2.53v-4.37h2.53v4.37Z"/><polygon class="cls-5" points="13.34 29.45 12.06 29.82 12.06 30.78 31.11 30.78 31.11 29.91 29.55 29.4 13.34 29.45"/><path class="cls-6" d="M27.89,28.92c-.09-.53.1-1,.1-1,0,0,.49-.79.55-2.31.06-1.53-.77-2.15-.77-2.15.34-.77-.27-1.41-.27-1.41-.25.13-.52.95-.52.95-.1-.58-.36-.74-.5-.8-.22.27-.19.93-.19.93-.4.21-.33.38-.35.53-.01.15-.36.26-.36.26h0c-.08.61.6.85.6.85-.15.12-.09.21-.09.21-2.23,1.31-2.34,3.32-2.34,3.32-.57-.72.1-1.28.92-2.81.82-1.53.31-2.72-1.04-2.93-1.35-.21-1.76,1.02-1.81,1.14,0,0-.17.45.2.56s.52-.22.52-.22c.15-.34.34-.96,1.21-.7.87.26.76,1.43-.37,2.86-1.16,1.83-.44,2.7.72,3.24,1.16.53,2.5.14,2.5.14.36.07.72.05,1.07-.05.79.06.79-.12.79-.12-.1-.53-.56-.48-.56-.48Z"/><g id="S6NMiE"><path class="cls-5" d="M13.23,25.46c.39.24.76.47,1.14.71-.09-.51-.23-.98-.41-1.44-.09.05-.18.11-.27.15-.29.14-.58.12-.86-.05-.23-.14-.4-.33-.56-.53-.1-.13-.19-.26-.28-.4.61.18,1.22.37,1.85.56-.06-.12-.11-.23-.17-.33-.01-.02-.05-.03-.07-.03-.1-.01-.2,0-.29-.03-.29-.07-.47-.28-.49-.62-.02-.2,0-.41,0-.63.07.03.12.06.18.08.02-.12.03-.23.05-.34.12.05.23.1.35.15,0-.06,0-.11.01-.16.2.03.39.09.55.21.23.17.28.4.21.66-.04.16-.12.31-.18.46-.01.03-.02.08-.01.1.16.37.33.73.49,1.09.09-.4.19-.82.29-1.23,0,0,.01,0,.02,0,.07.18.16.35.21.53.09.34.28.62.44.92.08-.65.19-1.29.37-1.92-.01,0-.03-.02-.04-.02-.37-.13-.55-.4-.61-.78-.05-.38.01-.74.09-1.12.08.15.16.3.25.46.18-.24.41-.41.7-.52.04.18.08.35.12.53.06-.07.12-.14.19-.23.03.11.05.2.07.27.11-.1.22-.22.34-.34.17.24.28.47.32.74.07-.04.14-.08.22-.13,0,.09-.01.16-.03.23-.13.55-.71,1.05-1.25,1.02-.02,0-.06.02-.07.04-.05.18-.1.36-.14.54-.04.16-.06.32-.08.48l1.05-1.12s.01,0,.02,0c-.01.13-.02.26-.05.39-.04.21-.08.42-.16.61-.15.38-.44.55-.85.53-.03,0-.06,0-.1,0-.03.4-.06.81-.1,1.21,0,0,.02,0,.03,0,.18-.33.36-.66.55-1.02.06.33.12.64.03.95-.07.26-.25.41-.51.46-.08.02-.12.05-.1.13,0,.03,0,.06,0,.1h-.32s0-.06,0-.09c0-.27.01-.55.02-.82,0-.03-.02-.08-.04-.08-.2-.07-.35-.19-.42-.39-.11.08-.22.16-.32.24.07.38.14.76.21,1.15h-.34c-.02-.13-.04-.25-.06-.39-.04,0-.07.02-.1.03-.31.09-.55,0-.74-.25-.16-.21-.25-.45-.34-.71Z"/><path class="cls-5" d="M17.61,26.78c-.16.91-.31,2.16-.46,3.06h-2.54c-.15-.9-.3-2.15-.46-3.06h3.46Z"/><path class="cls-5" d="M17.55,24.79c.19-.19.38-.39.59-.57.14-.12.31-.22.47-.33.04-.03.06-.05.06-.11-.05-.29.08-.49.36-.58.09-.03.18-.05.28-.06.2-.03.38.03.52.18.1.1.2.2.34.17-.09.15-.19.31-.28.47-.15.25-.36.4-.66.4-.14,0-.26-.06-.36-.16-.02-.02-.06-.03-.08-.02-.28.15-.52.34-.74.57,0,0,0,.01,0,.03.6-.02,1.2-.04,1.8-.06-.34.3-.68.6-1.13.7-.31.07-.58-.02-.81-.23-.04-.04-.07-.08-.12-.12-.3.42-.49.88-.59,1.38.27-.29.54-.58.83-.88-.03.34-.05.65-.22.93-.11.18-.27.29-.49.28-.17-.01-.34,0-.53,0,.04-.18.06-.35.11-.51.07-.23.15-.45.23-.67.02-.05.02-.09-.01-.13-.13-.18-.22-.37-.24-.59-.01-.24.08-.44.21-.62.23-.31.54-.52.87-.76-.14.45-.26.88-.39,1.29Z"/></g><rect class="cls-2" x="12.06" y="29.96" width="19.05" height=".82"/></svg>