<?xml version="1.0" encoding="UTF-8"?>
<svg id="how_to_prevent" data-name="how to prevent" xmlns="http://www.w3.org/2000/svg" version="1.1" viewBox="0 0 32 32">
  <defs>
    <style>
      .cls-1 {
        fill: none;
      }

      .cls-1, .cls-2, .cls-3, .cls-4, .cls-5, .cls-6 {
        stroke-width: 0px;
      }

      .cls-2 {
        fill: #b7e4f7;
      }

      .cls-3 {
        fill: #3c6277;
      }

      .cls-4 {
        fill: #82b7d9;
      }

      .cls-5 {
        fill: #5b798c;
      }

      .cls-6 {
        fill: #77a8c7;
      }
    </style>
  </defs>
  <rect class="cls-1" y="0" width="32" height="32"/>
  <polygon class="cls-3" points="13.5 13.1 12.1 14.9 27 26.4 28.4 24.6 13.5 13.1 13.5 13.1"/>
  <path class="cls-3" d="M20.2,11.9h0c4.2,0,7.7,3.1,8.2,7.3.6,4.5-2.7,8.7-7.2,9.3-.4,0-.7,0-1,0-4.2,0-7.7-3.1-8.2-7.3-.3-2.2.3-4.4,1.7-6.1,1.4-1.8,3.3-2.9,5.5-3.1.4,0,.7,0,1,0M20.2,9c-.5,0-.9,0-1.4,0-6.1.8-10.5,6.4-9.7,12.5.7,5.7,5.5,9.8,11.1,9.8s.9,0,1.4,0c6.1-.8,10.5-6.4,9.7-12.5-.7-5.7-5.5-9.8-11.1-9.8h0Z"/>
  <g id="Where_is_found" data-name="Where is found">
    <g id="ic_pets_1" data-name="ic pets 1">
      <path id="Tracciato_34-2" data-name="Tracciato 34-2" class="cls-4" d="M20.3,17.2s.6-.2.6-.5,0-.6.6-.9c0,0,0-1.2.3-1.6.3.1.7.4.9,1.4,0,0,.5-1.5.9-1.7,0,0,1.1,1.1.5,2.5,0,0,1.5,1.1,1.4,3.8s-1,4.1-1,4.1c0,0-.3.8-.2,1.8,0,0,.8,0,1,.8,0,0,0,.3-1.4.2-.6.2-1.3.2-1.9,0,0,0-2.4.7-4.4-.2s-3.3-2.5-1.3-5.7c2-2.5,2.2-4.6.6-5s-1.9.6-2.1,1.2c0,0-.3.6-.9.4s-.4-1-.4-1c0-.2.8-2.4,3.2-2,2.4.4,3.3,2.5,1.8,5.1-1.4,2.7-2.6,3.7-1.6,4.9,0,0,.2-3.5,4.1-5.8,0,0-.1-.1.2-.4,0,0-1.2-.4-1.1-1.5h0Z"/>
      <path id="Tracciato_36" data-name="Tracciato 36" class="cls-2" d="M21,16.9c0,0,0,.2,0,.5,0,.1-.1.3,0,.6s.6.6.5.7c0,0-.5-.1-.8-.5s-.3-.7-.3-.8c.2,0,.4-.2.6-.4h0Z"/>
      <path id="Tracciato_44" data-name="Tracciato 44" class="cls-5" d="M20.7,17.2c0,.1,0,.4-.3.4,0,0,0-.2,0-.3.1,0,.2,0,.3-.1h0Z"/>
      <path id="Tracciato_37" data-name="Tracciato 37" class="cls-2" d="M21.3,19s0-.2.2-.3c0,0,1.9.5,2.5,1.1s1.3,2.1-.4,4.8c-.2.3-.5.2-.7,0s-1-1-.8-2.5.2-2-.8-3.1Z"/>
      <path id="Tracciato_38" data-name="Tracciato 38" class="cls-2" d="M25.2,26.8c0,0-.7.2-1.1,0,0,0,.2-.5,0-.7,0,0,.5,0,.8,0s.4.5.4.5h0Z"/>
      <path id="Tracciato_39" data-name="Tracciato 39" class="cls-2" d="M23.9,26.9c0,0-.9.3-1.6,0,0,0,.7-.2.3-.9,0,0,.6-.3,1.1,0,.5.3.2.8.2.8h0Z"/>
      <path id="Tracciato_40" data-name="Tracciato 40" class="cls-6" d="M23.6,14.3c0,0-.5.7-.7,1.4,0,0,.3.1.5.2,0,0,.4-1.1.2-1.6h0Z"/>
      <path id="Tracciato_41" data-name="Tracciato 41" class="cls-6" d="M22,14.5c0,0-.2.7-.2,1.2,0,0,.4-.1.6-.1,0,0,0-.8-.4-1.1h0Z"/>
      <path id="Tracciato_42" data-name="Tracciato 42" class="cls-2" d="M22.4,16.2s-.1.3-.4.3c-.3,0-.3,0-.4,0s.1-.4.4-.4c.1,0,.3,0,.4,0h0Z"/>
      <path id="Tracciato_43" data-name="Tracciato 43" class="cls-2" d="M14.1,16.3c-.1.2-.2.4-.3.6,0,.4,0,.6.3.7.3.1.6,0,.7-.2.1-.2.1-.3.2-.5,0-.1.1-.2.2-.3-.2-.1-.4-.2-.5-.2-.2,0-.4,0-.5-.1h0Z"/>
      <path id="Tracciato_55" data-name="Tracciato 55" class="cls-5" d="M21.6,16.3s0,0,0,.1c0,.1,0,.1,0,.1,0,0,0,0,0,0,0,0,0,0,0-.1h0Z"/>
    </g>
  </g>
</svg>