<?xml version="1.0" encoding="UTF-8"?><svg id="how_to_prevent" xmlns="http://www.w3.org/2000/svg" viewBox="0 0 32 32"><defs><style>.cls-1{fill:none;}.cls-1,.cls-2,.cls-3,.cls-4,.cls-5,.cls-6{stroke-width:0px;}.cls-2{fill:#3c6277;}.cls-3{fill:#82b7d9;}.cls-4{fill:#77a8c7;}.cls-5{fill:#fff;}.cls-6{fill:#9dd5ed;}</style></defs><polygon class="cls-2" points="13.2 12.9 11.8 14.7 27.1 26.6 28.5 24.7 13.2 12.9 13.2 12.9"/><path class="cls-2" d="M20,11.7c4.3,0,7.9,3.2,8.5,7.5.3,2.3-.3,4.5-1.7,6.3-1.4,1.8-3.4,3-5.7,3.2h-1.1c-4.3,0-7.9-3.2-8.5-7.5-.6-4.7,2.7-8.9,7.4-9.5h1.1M20,8.7h-1.5c-6.3.8-10.8,6.6-10,12.9.7,5.8,5.7,10.1,11.4,10.1s1,0,1.5,0c6.3-.8,10.8-6.6,10-12.9-.7-5.8-5.7-10.1-11.4-10.1h0Z"/><path id="Tracciato_175" class="cls-3" d="M11.93,19.28l.29,1.24s.87,2.46,3.78.58c2.91-1.87,1.04-1.9,6.12-4.55l-.25-1.49s-3.36-1.22-6.98.05c-3.63,1.27-3.1,3.21-2.91,4.04l-.05.12Z"/><path id="Tracciato_176" class="cls-4" d="M12.31,18.76s1.45,3.55,5.3-.75c0,0,1.1-1.24,3.08-2.07,0,0,1.7-.57-.73-.84s-6,.33-6.98,1.49c-.99,1.17-.72,2.17-.72,2.17h.06Z"/><path id="Tracciato_177" class="cls-4" d="M11.92,19.16s1.2,3.45,5.32-.45c0,0,1.37-1.62,3.28-2.51,0,0,1.29-.47,1.38-.78l.29,1.24s-.22.26-.98.56-2.25,1.15-3.57,2.65c0,0-3.48,3.73-5.35.87l-.32-1.6h-.06Z"/><path id="Tracciato_220" class="cls-5" d="M14.19,18.18c.42-.04.85.05.87.35s-.25.56-.67.66-.85-.05-.93-.34.25-.56.73-.66h0Z"/><rect class="cls-1" width="32" height="32"/><path class="cls-6" d="M26.03,26c-.16-.91.18-1.73.18-1.73,0,0,.84-1.36.94-4,.1-2.64-1.33-3.72-1.33-3.72.6-1.32-.46-2.43-.46-2.43-.43.22-.9,1.65-.9,1.65-.18-1-.61-1.27-.87-1.39-.38.47-.33,1.61-.33,1.61-.69.37-.58.66-.6.92-.02.26-.63.46-.63.46h0c-.13,1.06,1.04,1.47,1.04,1.47-.25.2-.16.35-.16.35-3.85,2.27-4.05,5.74-4.05,5.74-.98-1.25.18-2.21,1.59-4.85,1.41-2.64.53-4.7-1.79-5.05-2.33-.35-3.04,1.77-3.13,1.97,0,0-.29.77.34.97s.9-.38.9-.38c.26-.58.59-1.66,2.1-1.21,1.51.45,1.32,2.46-.64,4.93-2,3.16-.76,4.67,1.24,5.59,2,.92,4.31.24,4.31.24.61.12,1.25.09,1.85-.09,1.37.1,1.36-.2,1.36-.2-.17-.92-.97-.83-.97-.83Z"/></svg>