<?xml version="1.0" encoding="UTF-8"?><svg id="how_to_prevent" xmlns="http://www.w3.org/2000/svg" viewBox="0 0 32 32"><defs><style>.cls-1{fill:none;}.cls-1,.cls-2,.cls-3,.cls-4{stroke-width:0px;}.cls-2{fill:#6791a8;}.cls-3{fill:#5b798c;}.cls-4{fill:#77a8c7;}</style></defs><rect class="cls-1" width="32" height="32"/><path class="cls-4" d="M24.4,30.63c-5.3,0-8.2-5.15-4.72-9.78,2.97-3.97,4.72-8.85,4.72-8.85,0,0,1.75,4.88,4.72,8.85,3.48,4.63.6,9.78-4.72,9.78Z"/><circle class="cls-3" cx="26.67" cy="22.85" r=".55"/><circle class="cls-3" cx="22.96" cy="20.57" r=".45"/><circle class="cls-3" cx="22.34" cy="27.87" r=".45"/><circle class="cls-3" cx="28.48" cy="24.63" r=".45"/><circle class="cls-3" cx="24.11" cy="26.17" r=".67"/><path class="cls-2" d="M23.62,21.44c-.47,0-.85.38-.85.85,0,.05.03.2.02.33s-.06.24-.09.31c-.08.18-.42.53-.76.68-.26.12-.52.07-.55.07-.47,0-.85.38-.85.85s.38.85.85.85.85-.38.85-.85c0-.1-.04-.43-.03-.47.01-.1.18-.27.47-.66.29-.38.77-.28.77-.28,0,0,0,0,0,0,.06.01.12.02.18.02.47,0,.85-.38.85-.85s-.38-.85-.85-.85Z"/><path class="cls-2" d="M27.57,26.21c0-.47-.38-.85-.85-.85-.05,0-.2.03-.33.02s-.24-.06-.31-.09c-.18-.08-.53-.42-.68-.76-.12-.26-.07-.52-.07-.55,0-.47-.38-.85-.85-.85s-.85.38-.85.85.38.85.85.85c.1,0,.43-.04.47-.03.1.01.27.18.66.47.38.29.28.77.28.77,0,0,0,0,0,0-.01.06-.02.12-.02.18,0,.47.38.85.85.85s.85-.38.85-.85Z"/></svg>