<?xml version="1.0" encoding="UTF-8"?>
<svg id="how_to_prevent" data-name="how to prevent" xmlns="http://www.w3.org/2000/svg" version="1.1" viewBox="0 0 32 32">
  <defs>
    <style>
      .cls-1 {
        fill: none;
      }

      .cls-1, .cls-2, .cls-3, .cls-4, .cls-5, .cls-6, .cls-7, .cls-8, .cls-9, .cls-10, .cls-11, .cls-12, .cls-13 {
        stroke-width: 0px;
      }

      .cls-2 {
        fill: #d19257;
      }

      .cls-3 {
        fill: #405367;
      }

      .cls-4 {
        fill: #6791a8;
      }

      .cls-5 {
        fill: #accddd;
      }

      .cls-6 {
        fill: #686358;
      }

      .cls-7 {
        fill: #9ab3d3;
      }

      .cls-8 {
        fill: #d5cfc8;
      }

      .cls-9 {
        fill: #5b798c;
      }

      .cls-10 {
        fill: #666084;
      }

      .cls-11 {
        fill: #282235;
      }

      .cls-12 {
        fill: #3b4b5b;
      }

      .cls-13 {
        fill: #77a8c7;
      }
    </style>
  </defs>
  <rect class="cls-1" y="0" width="32" height="32"/>
  <polygon class="cls-11" points="22.1 25.9 26.9 23.3 26.9 23.9 24.5 25.3 22.1 25.9"/>
  <polygon class="cls-3" points="20.6 26.7 20.9 27.2 21.7 27.7 21.8 26.9 20.6 26.7"/>
  <rect class="cls-3" x="19.2" y="27.7" width="2.4" height=".7" transform="translate(-14.1 31.7) rotate(-60)"/>
  <path class="cls-3" d="M20.9,27.4c0,.5-.4,1.2-.9,1.5-.5.3-.9,0-.9-.5s.4-1.2.9-1.5c.5-.3.9,0,.9.5Z"/>
  <path class="cls-3" d="M20.2,28.5c0-.3.2-.6.5-.8.2-.1.5,0,.5.3s-.2.6-.5.8c-.2.1-.5,0-.5-.3Z"/>
  <path class="cls-9" d="M20.7,29.2c.5-.3.9-.9.9-1.5s-.4-.8-.9-.5c-.5.3-.9.9-.9,1.5s.4.8.9.5ZM20.7,27.6c.3-.2.5,0,.5.3s-.2.7-.5.9c-.3.2-.5,0-.5-.3s.2-.7.5-.9Z"/>
  <path class="cls-7" d="M20.7,28.9c.3-.2.6-.7.6-1s-.3-.5-.6-.4-.6.7-.6,1,.3.5.6.4ZM20.7,27.6c.3-.2.5,0,.5.3s-.2.8-.5.9c-.3.2-.5,0-.5-.3s.2-.8.5-.9Z"/>
  <path class="cls-9" d="M20.7,28.6c.2-.1.4-.4.4-.6s-.2-.3-.4-.2c-.2.1-.4.4-.4.6s.2.3.4.2ZM20.7,28c.1,0,.2,0,.2.1s-.1.3-.2.4-.2,0-.2-.1.1-.3.2-.4Z"/>
  <path class="cls-8" d="M20.7,28.5c.1,0,.2-.2.2-.4s-.1-.2-.2-.1c-.1,0-.2.2-.2.4s.1.2.2.1ZM20.6,28.4s0,0,0,0,0,0,0,0c0,0,0,0,0,0s0,0,0,0ZM20.7,28.4s0,0,0,0,0,0,0,0,0,0,0,0,0,0,0,0ZM20.8,28.3s0,0,0,0,0,0,0,0c0,0,0,0,0,0s0,0,0,0ZM20.9,28.1s0,0,0,0,0,0,0,0,0,0,0,0,0,0,0,0ZM20.8,28s0,0,0,0,0,0,0,0c0,0,0,0,0,0s0,0,0,0ZM20.7,28s0,0,0,0,0,0,0,0,0,0,0,0,0,0,0,0ZM20.7,28.1s0,0,0,0,0,.1,0,.1c0,0,0,0,0,0s0-.1,0-.1ZM20.6,28.1s0,0,0,0,0,0,0,0c0,0,0,0,0,0s0,0,0,0ZM20.6,28.3s0,0,0,0,0,0,0,0,0,0,0,0,0,0,0,0Z"/>
  <path class="cls-5" d="M20.7,28.5c.1,0,.2-.2.2-.4s-.1-.2-.2-.1c-.1,0-.2.2-.2.4s.1.2.2.1Z"/>
  <path class="cls-5" d="M20.7,28.8c.3-.2.5-.6.5-.9s-.2-.5-.5-.3c-.3.2-.5.6-.5.9s.2.5.5.3ZM20.3,28.7s0,0,0,0c0,0,0,0,0-.1s0,0,0,0c0,0,0,0,0,.1ZM20.3,28.4c0-.2.2-.5.4-.6.2-.1.4,0,.4.2s-.2.5-.4.6c-.2.1-.4,0-.4-.2ZM20.5,28.8s0,0,0,0,0,0,0,0c0,0,0,0,0,0s0,0,0,0ZM20.7,28.8s0,0,0,0,0,0,0-.1c0,0,0,0,0,0s0,0,0,.1ZM21,28.6s0,0,0,0c0,0,0,0,0-.1s0,0,0,0c0,0,0,0,0,.1ZM21.1,28.3s0,0,0,0,0,0,0,0c0,0,0,0,0,0s0,0,0,0ZM21.2,27.9s0,0,0,0c0,0,0,0,0,0,0,0,0,0,0,0,0,0,0,0,0,0ZM21.1,27.7s0,0,0,0c0,0,0,0,0,.1s0,0,0,0c0,0,0,0,0-.1ZM20.9,27.6s0,0,0,0,0,0,0,0c0,0,0,0,0,0s0,0,0,0ZM20.7,27.6s0,0,0,0,0,0,0,.1c0,0,0,0,0,0s0,0,0-.1ZM20.5,27.9s0,0,0,0c0,0,0,0,0,.1s0,0,0,0c0,0,0,0,0-.1ZM20.3,28.2s0,0,0,0,0,0,0,0c0,0,0,0,0,0s0,0,0,0ZM20.2,28.4s0,0,0,0,0,0,0,0c0,0,0,0,0,0,0,0,0,0,0,0Z"/>
  <path class="cls-12" d="M20.9,26.2c-.9.2-2.1.5-2.3,1.8l1.3.7c.2-1.1.7-1.8,1.8-2,0,0-.8-.5-.8-.5Z"/>
  <path class="cls-9" d="M19.9,28.7h.3c0-.1,0-.4,0-.4v-.4s0,0,0,0c0-.2.1-.4.3-.5,0,0,.1,0,.1-.1l.4-.2h.1c0-.1.1-.1.1-.1.1,0,.2,0,.3.2v.4h0v.2s.2,0,.2,0h.1c0,0,0-.3,0-.3h0s0,0,0,0v-.3c0-.1-.1-.2-.2-.2-.1-.1-.3-.1-.5,0h0s-.4.3-.4.3c-.2.1-.4.4-.6.7,0,.1-.1.3-.1.4v.4c0,0-.1.2-.1.2h0Z"/>
  <polygon class="cls-3" points="28.6 22.1 29 22.7 29.8 23.1 29.9 22.4 28.6 22.1"/>
  <rect class="cls-3" x="27.2" y="23.1" width="2.4" height=".7" transform="translate(-6.1 36.4) rotate(-60)"/>
  <path class="cls-3" d="M29,22.8c0,.5-.4,1.2-.9,1.5-.5.3-.9,0-.9-.5s.4-1.2.9-1.5c.5-.3.9,0,.9.5Z"/>
  <path class="cls-3" d="M28.3,24c0-.3.2-.6.5-.8.2-.1.5,0,.5.3s-.2.6-.5.8c-.2.1-.5,0-.5-.3Z"/>
  <path class="cls-9" d="M28.8,24.7c.5-.3.9-.9.9-1.5s-.4-.8-.9-.5c-.5.3-.9.9-.9,1.5s.4.8.9.5ZM28.8,23.1c.3-.2.5,0,.5.3s-.2.7-.5.9c-.3.2-.5,0-.5-.3s.2-.7.5-.9Z"/>
  <path class="cls-7" d="M28.8,24.4c.3-.2.6-.7.6-1s-.3-.5-.6-.4-.6.7-.6,1,.3.5.6.4ZM28.8,23.1c.3-.2.5,0,.5.3s-.2.8-.5.9c-.3.2-.5,0-.5-.3s.2-.8.5-.9Z"/>
  <path class="cls-9" d="M28.8,24.1c.2-.1.4-.4.4-.6s-.2-.3-.4-.2c-.2.1-.4.4-.4.6s.2.3.4.2ZM28.8,23.4c.1,0,.2,0,.2.1s-.1.3-.2.4-.2,0-.2-.1.1-.3.2-.4Z"/>
  <path class="cls-8" d="M28.8,24c.1,0,.2-.2.2-.4s-.1-.2-.2-.1c-.1,0-.2.2-.2.4s.1.2.2.1ZM28.7,23.9s0,0,0,0,0,0,0,0c0,0,0,0,0,0s0,0,0,0ZM28.8,23.9s0,0,0,0,0,0,0,0,0,0,0,0,0,0,0,0ZM28.9,23.8s0,0,0,0,0,0,0,0c0,0,0,0,0,0s0,0,0,0ZM28.9,23.6s0,0,0,0,0,0,0,0,0,0,0,0,0,0,0,0ZM28.9,23.5s0,0,0,0,0,0,0,0c0,0,0,0,0,0s0,0,0,0ZM28.8,23.5s0,0,0,0,0,0,0,0,0,0,0,0,0,0,0,0ZM28.8,23.6s0,0,0,0,0,.1,0,.1c0,0,0,0,0,0s0-.1,0-.1ZM28.6,23.6s0,0,0,0,0,0,0,0c0,0,0,0,0,0s0,0,0,0ZM28.6,23.7s0,0,0,0,0,0,0,0,0,0,0,0,0,0,0,0Z"/>
  <path class="cls-5" d="M28.8,24c.1,0,.2-.2.2-.4s-.1-.2-.2-.1c-.1,0-.2.2-.2.4s.1.2.2.1Z"/>
  <path class="cls-5" d="M28.8,24.3c.3-.2.5-.6.5-.9s-.2-.5-.5-.3c-.3.2-.5.6-.5.9s.2.5.5.3ZM28.4,24.2s0,0,0,0c0,0,0,0,0-.1s0,0,0,0c0,0,0,0,0,.1ZM28.4,23.9c0-.2.2-.5.4-.6.2-.1.4,0,.4.2s-.2.5-.4.6c-.2.1-.4,0-.4-.2ZM28.6,24.3s0,0,0,0,0,0,0,0c0,0,0,0,0,0s0,0,0,0ZM28.8,24.3s0,0,0,0,0,0,0-.1c0,0,0,0,0,0s0,0,0,.1ZM29,24s0,0,0,0c0,0,0,0,0-.1,0,0,0,0,0,0,0,0,0,0,0,.1ZM29.2,23.7s0,0,0,0,0,0,0,0c0,0,0,0,0,0s0,0,0,0ZM29.3,23.4s0,0,0,0c0,0,0,0,0,0,0,0,0,0,0,0,0,0,0,0,0,0ZM29.1,23.2s0,0,0,0c0,0,0,0,0,.1s0,0,0,0c0,0,0,0,0-.1ZM29,23.1s0,0,0,0,0,0,0,0c0,0,0,0,0,0s0,0,0,0ZM28.8,23.1s0,0,0,0,0,0,0,.1c0,0,0,0,0,0s0,0,0-.1ZM28.5,23.3s0,0,0,0c0,0,0,0,0,.1,0,0,0,0,0,0,0,0,0,0,0-.1ZM28.3,23.6s0,0,0,0,0,0,0,0c0,0,0,0,0,0s0,0,0,0ZM28.3,23.9s0,0,0,0,0,0,0,0c0,0,0,0,0,0,0,0,0,0,0,0Z"/>
  <path class="cls-12" d="M29,21.6c-.9.2-2.1.5-2.3,1.8l1.3.7c.2-1.1.7-1.8,1.8-2,0,0-.8-.5-.8-.5Z"/>
  <path class="cls-9" d="M28,24.1h.3c0-.1,0-.4,0-.4v-.4s0,0,0,0c0-.2.1-.4.3-.5,0,0,.1,0,.1-.1l.4-.2h.1c0-.1.1-.1.1-.1.1,0,.2,0,.3.2v.4h0v.2s.2,0,.2,0h.1c0,0,0-.3,0-.3h0s0,0,0,0v-.3c0-.1-.1-.2-.2-.2-.1-.1-.3-.1-.5,0h0s-.4.3-.4.3c-.2.1-.4.4-.6.7,0,.1-.1.3-.1.4v.4c0,0-.1.2-.1.2h0Z"/>
  <polygon class="cls-3" points="18.4 28.8 19 29.1 19.3 27.5 18.4 27.4 18.4 28.8"/>
  <polygon class="cls-3" points="17.5 28.4 17.9 29 18.7 29.4 18.8 28.7 17.5 28.4"/>
  <rect class="cls-3" x="16.1" y="29.4" width="2.4" height=".7" transform="translate(-17.2 29.9) rotate(-60)"/>
  <path class="cls-3" d="M17.9,29.1c0,.5-.4,1.2-.9,1.5-.5.3-.9,0-.9-.5s.4-1.2.9-1.5c.5-.3.9,0,.9.5Z"/>
  <path class="cls-3" d="M17.2,30.3c0-.3.2-.6.5-.8.2-.1.5,0,.5.3s-.2.6-.5.8c-.2.1-.5,0-.5-.3Z"/>
  <path class="cls-9" d="M17.6,31c.5-.3.9-.9.9-1.5s-.4-.8-.9-.5c-.5.3-.9.9-.9,1.5s.4.8.9.5ZM17.6,29.4c.3-.2.5,0,.5.3s-.2.7-.5.9c-.3.2-.5,0-.5-.3s.2-.7.5-.9Z"/>
  <path class="cls-7" d="M17.6,30.7c.3-.2.6-.7.6-1s-.3-.5-.6-.4-.6.7-.6,1,.3.5.6.4ZM17.6,29.4c.3-.2.5,0,.5.3s-.2.8-.5.9c-.3.2-.5,0-.5-.3s.2-.8.5-.9Z"/>
  <path class="cls-9" d="M17.6,30.4c.2-.1.4-.4.4-.6s-.2-.3-.4-.2c-.2.1-.4.4-.4.6s.2.3.4.2ZM17.6,29.7c.1,0,.2,0,.2.1s-.1.3-.2.4-.2,0-.2-.1.1-.3.2-.4Z"/>
  <path class="cls-8" d="M17.6,30.3c.1,0,.2-.2.2-.4s-.1-.2-.2-.1c-.1,0-.2.2-.2.4s.1.2.2.1ZM17.5,30.2s0,0,0,0,0,0,0,0c0,0,0,0,0,0s0,0,0,0ZM17.6,30.2s0,0,0,0,0,0,0,0,0,0,0,0,0,0,0,0ZM17.8,30.1s0,0,0,0,0,0,0,0c0,0,0,0,0,0s0,0,0,0ZM17.8,29.9s0,0,0,0,0,0,0,0,0,0,0,0,0,0,0,0ZM17.7,29.8s0,0,0,0,0,0,0,0c0,0,0,0,0,0s0,0,0,0ZM17.6,29.8s0,0,0,0,0,0,0,0,0,0,0,0,0,0,0,0ZM17.6,29.9s0,0,0,0,0,.1,0,.1c0,0,0,0,0,0s0-.1,0-.1ZM17.5,29.9s0,0,0,0,0,0,0,0c0,0,0,0,0,0s0,0,0,0ZM17.5,30s0,0,0,0,0,0,0,0,0,0,0,0,0,0,0,0Z"/>
  <path class="cls-5" d="M17.6,30.3c.1,0,.2-.2.2-.4s-.1-.2-.2-.1c-.1,0-.2.2-.2.4s.1.2.2.1Z"/>
  <path class="cls-5" d="M17.6,30.6c.3-.2.5-.6.5-.9s-.2-.5-.5-.3c-.3.2-.5.6-.5.9s.2.5.5.3ZM17.3,30.5s0,0,0,0c0,0,0,0,0-.1s0,0,0,0c0,0,0,0,0,.1ZM17.3,30.2c0-.2.2-.5.4-.6.2-.1.4,0,.4.2s-.2.5-.4.6c-.2.1-.4,0-.4-.2ZM17.5,30.6s0,0,0,0,0,0,0,0c0,0,0,0,0,0s0,0,0,0ZM17.6,30.6s0,0,0,0,0,0,0-.1c0,0,0,0,0,0s0,0,0,.1ZM17.9,30.4s0,0,0,0c0,0,0,0,0-.1s0,0,0,0c0,0,0,0,0,.1ZM18.1,30s0,0,0,0,0,0,0,0c0,0,0,0,0,0s0,0,0,0ZM18.1,29.7s0,0,0,0c0,0,0,0,0,0,0,0,0,0,0,0,0,0,0,0,0,0ZM18,29.5s0,0,0,0c0,0,0,0,0,.1s0,0,0,0c0,0,0,0,0-.1ZM17.8,29.4s0,0,0,0,0,0,0,0c0,0,0,0,0,0s0,0,0,0ZM17.6,29.4s0,0,0,0,0,0,0,.1c0,0,0,0,0,0s0,0,0-.1ZM17.4,29.6s0,0,0,0c0,0,0,0,0,.1s0,0,0,0c0,0,0,0,0-.1ZM17.2,30s0,0,0,0,0,0,0,0c0,0,0,0,0,0s0,0,0,0ZM17.2,30.2s0,0,0,0,0,0,0,0c0,0,0,0,0,0,0,0,0,0,0,0Z"/>
  <polygon class="cls-9" points="22.9 26 23.9 26.5 23.8 25.5 22.9 26"/>
  <path class="cls-9" d="M23.9,26.5l2.1-1.2c0,0,.1-.2.1-.3v-.9c0-.1,0-.1-.1,0l-2.1,1.2c0,0-.1.2-.1.3v.9c0,.1,0,.1.1,0Z"/>
  <polygon class="cls-9" points="16.5 29.3 29.6 21.7 29.6 22 16.5 29.5 11.4 26.6 11.6 26.5 16.5 29.3"/>
  <polygon class="cls-10" points="29.6 21.7 16.5 29.3 11.6 26.5 11.4 26.4 24.6 18.8 29.6 21.7"/>
  <polygon class="cls-4" points="19.2 22.7 19.2 28.3 14 25.3 14 19.7 19.2 22.7"/>
  <polygon class="cls-13" points="30.7 16.2 30.7 21.8 19.2 28.3 19.2 22.7 30.7 16.2"/>
  <polygon class="cls-13" points="25.5 13.3 14 19.8 19.2 22.7 30.7 16.2 25.5 13.3"/>
  <polygon class="cls-2" points="11.2 28.5 11.1 28.6 11.3 28.7 11.3 28.6 11.2 28.5"/>
  <path class="cls-3" d="M11.2,28.1l1.5-.8h0c0-.2,0-.3.1-.4.1-.3.3-.5.6-.7l.5-.3c.2-.1.4-.1.6,0,0,0,.1.1.1.2v.4c0,0,0,0,0,0v.2s0,.2,0,.2h-.2c0,0,0-.3,0-.3v-.4c0-.2-.2-.2-.3-.2,0,0,0,0-.1,0l-.5.3c0,0-.1,0-.1.1-.1.1-.3.4-.3.5h0s0,.4,0,.4v.2s-.3.1-.3.1l-1.1.6c-.2.1-.4.1-.4,0v-.3c0,0,0-.1.1-.2h0Z"/>
  <path class="cls-6" d="M11.3,28.2l1.5-.8h0c0-.2,0-.3.1-.4.1-.3.3-.5.6-.7l.5-.3c.2-.1.4-.1.6,0,0,0,.1.1.1.2v.4c0,0,0,0,0,0v.2s-.2.1-.2.1v-.2s0-.4,0-.4c0-.2-.1-.2-.3-.2,0,0,0,0-.1,0l-.5.3c0,0-.1,0-.1.1-.1.1-.3.4-.3.5h0s0,.4,0,.4v.2s-.3.1-.3.1l-1.1.6c-.2.1-.4.1-.4,0v-.3c0,0,0-.1.1-.2h0Z"/>
  <polygon class="cls-13" points="11.4 27 11.5 28.8 15.5 31.1 15.4 29.3 11.4 27"/>
  <path class="cls-13" d="M18.5,24.6l-4.1-2.3c0,0-.1,0-.2,0l-2.1,1.2c-.2.1-.4.4-.4.6h0c0,.1,4.1,2.5,4.1,2.5l2.7-2h0Z"/>
  <path class="cls-4" d="M15.9,26.6l-4.2-2.4c0,0,0,.1,0,.2v.2s4,2.4,4,2.4l.2-.3h0Z"/>
  <path class="cls-13" d="M15.4,30.7v-1.2c0-.3,0-.6,0-.9l.3-1.9c0-.2.2-.4.3-.5l2.1-1.2c.2-.1.4-.3.4,0h0s-.7.4-.7.4v3.4l-.4.2c-.3.1-.5.5-.5.8v.6c0,0-1.3.7-1.3.7-.2.1-.4,0-.4-.2v-.2h0Z"/>
  <polygon class="cls-13" points="18 28.6 18 25.3 18.6 24.9 18.6 28.6 18 28.6"/>
  <path class="cls-13" d="M16.2,25.8l2.1-1.2c.2-.1.3,0,.3.2h0c0,.1-2.8,1.7-2.8,1.7h0c0-.4.2-.6.4-.7h0Z"/>
  <path class="cls-5" d="M11.4,27l4.1,2.4.3-.2c0,0,.1-.1.1-.2v-2c0,0,0-.1-.1,0h0l-4.1-2.3c-.1.5-.3,1.7-.3,2.5h0Z"/>
  <path class="cls-4" d="M17,29.4c0,.1-.1.2-.2.2l-.4.2c-.1,0-.2,0-.2-.1v-2.8c0-.1.1-.3.2-.4l1-.6c.1,0,.2,0,.2.1v2.2c0,.2-.1.4-.2.5-.1.1-.3.3-.4.5h0Z"/>
  <path class="cls-5" d="M16.4,28.3l.9-.7c.1-.1.2-.3.2-.5v-.9c0-.1,0-.1-.2,0l-1,.6c0,0-.2.2-.2.3v1.3c0,.1,0,.1.2,0h0Z"/>
  <path class="cls-13" d="M17.2,27.8s0,0,0,0h.2c0-.1,0-.1,0-.2s0,0,0,0h-.2c0,.1,0,.1,0,.2h0Z"/>
  <rect class="cls-3" x="15.4" y="31" width=".1" height=".2" transform="translate(-19.2 28.9) rotate(-60)"/>
  <path class="cls-3" d="M15.3,30.7v.3c0,0,0,.1.2,0,0,0,.1,0,.2,0l1.1-.6h.3c0-.1,0-.4,0-.4v-.4s0,0,0,0c0-.1,0-.2.1-.3,0,0,.1-.1.2-.2s.1,0,.1-.1l.5-.3s.1,0,.1,0c0,0,.2,0,.2,0,.1,0,.2,0,.2.2v.4c0,0,0,.2,0,.2v-.2c.1,0,0-.2,0-.2h0s0-.4,0-.4c0-.1,0-.2-.1-.2-.1-.1-.3-.1-.5,0l-.5.3c-.2.1-.4.4-.6.7,0,.1-.1.3-.1.4h0s-1.5.9-1.5.9c0,0-.1.1-.1.2h0Z"/>
  <path class="cls-9" d="M15.4,30.8v.3c0,.1.2.1.4,0l1.1-.6h.3c0-.1,0-.4,0-.4v-.4s0,0,0,0c0-.2.1-.4.3-.5,0,0,.1,0,.1-.1l.5-.3s.1,0,.1,0h0c.1,0,.2,0,.2.2v.4c0,0,0,.2,0,.2h.3c0-.1,0-.4,0-.4h0s0-.4,0-.4c0-.1,0-.2-.1-.2,0,0-.1,0-.2,0-.1,0-.2,0-.4,0l-.5.3c-.2.1-.4.3-.5.5,0,0,0,0,0,.1,0,.1-.1.3-.1.4h0s-1.5.9-1.5.9c0,0-.1.1-.1.2h0Z"/>
  <path class="cls-9" d="M11.4,28.2c-.3,0-.3.2-.3.5l4.2,2.4v-.6c.1,0-3.9-2.3-3.9-2.3h0Z"/>
  <path class="cls-13" d="M14.8,28.7c0,0,0,.1.1,0,0,0,0,0,0,0v-.7s0,0,0,0h0c0,0-.1.1-.1.2v.5h0Z"/>
  <polygon class="cls-13" points="14.9 28 14.8 28.8 15.1 29 15.2 28.2 14.9 28"/>
  <path class="cls-3" d="M15.1,28.9c0,0,0,.1.1,0,0,0,0,0,0,0v-.7s0,0,0,0h0c0,0-.1.1-.1.2v.5h0Z"/>
  <path class="cls-13" d="M15.7,26.5l-.4.2c-.1,0-.2.2-.3.3s-.1.3-.1.4v.6s.2,0,.2,0v-.2s0-.6,0-.6c0-.2,0-.4.2-.4l.3-.2.2-.2h-.1c0,0,0,0,0,0Z"/>
  <path class="cls-3" d="M15.9,26.6l-.4.2c-.1,0-.2.2-.3.3s-.1.3-.1.4v.6s0,0,0,0v-.7c0-.2.2-.4.3-.5l.3-.2s0-.3,0-.3Z"/>
  <path class="cls-13" d="M10.9,26.4c0,0,0,.1.1,0,0,0,0,0,0,0v-.7s0,0,0,0h0c0,0-.1.1-.1.2v.5h0Z"/>
  <polygon class="cls-13" points="11 25.8 10.9 26.5 11.2 26.7 11.3 25.9 11 25.8"/>
  <path class="cls-3" d="M11.1,26.6c0,0,0,.1.1,0,0,0,0,0,0,0v-.7s0,0,0,0h0c0,0-.1.1-.1.2v.5h0Z"/>
  <path class="cls-13" d="M11.8,24.3l-.4.2c-.1,0-.2.2-.3.3s-.1.3-.1.4v.6s.2,0,.2,0v-.2s0-.6,0-.6c0-.2,0-.4.2-.4l.3-.2.2-.2h-.1c0,0,0,0,0,0Z"/>
  <path class="cls-3" d="M11.9,24.3l-.4.2c-.1,0-.2.2-.3.3s-.1.3-.1.4v.6s0,0,0,0v-.7c0-.2.2-.4.3-.5l.3-.2s0-.3,0-.3Z"/>
  <path class="cls-5" d="M12.2,28.1l-.6-.3s0,0,0,0v-.4s0,0,0,0l.6.3s0,0,0,0v.4s0,0,0,0Z"/>
  <path class="cls-9" d="M12.2,28.2h0l-.6-.3s0,0,0-.1v-.4s0,0,0,0l.6.3s0,0,0,.1v.4s0,0,0,0h0ZM12.2,28.1h0s0,0,0,0h0ZM11.6,27.3h0v.4s0,0,0,0l.6.3h0v-.4s0,0,0,0l-.6-.3h0Z"/>
  <path class="cls-5" d="M15.2,29.9l-.6-.3s0,0,0,0v-.4s0,0,0,0l.6.3s0,0,0,0v.4s0,0,0,0Z"/>
  <path class="cls-9" d="M15.2,29.9h0l-.6-.3s0,0,0-.1v-.4s0,0,0,0l.6.3s0,0,0,.1v.4s0,0,0,0h0ZM15.2,29.9h0s0,0,0,0h0ZM14.6,29.1h0v.4s0,0,0,0l.6.3h0v-.4s0,0,0,0l-.6-.3h0Z"/>
  <path class="cls-5" d="M11.9,28.3l-.3-.2s0,0,0,0h0c0-.1,0-.2,0-.2l.3.2s0,0,0,0h0c0,.1,0,.2,0,.2Z"/>
  <path class="cls-5" d="M15.2,30.2l-.3-.2s0,0,0,0h0c0-.1,0-.2,0-.2l.3.2s0,0,0,0h0c0,.1,0,.2,0,.2Z"/>
  <path class="cls-4" d="M14.1,28.8s0,0,0,0l-1.3-.8s0,0,0,0,0,0,0,0l1.3.8s0,0,0,0h0Z"/>
  <path class="cls-4" d="M14.1,29s0,0,0,0l-1.3-.8s0,0,0,0,0,0,0,0l1.3.8s0,0,0,0h0Z"/>
  <path class="cls-4" d="M14.1,29.1s0,0,0,0l-1.3-.8s0,0,0,0,0,0,0,0l1.3.8s0,0,0,0h0Z"/>
  <path class="cls-4" d="M14.1,29.3s0,0,0,0l-1.3-.8s0,0,0,0,0,0,0,0l1.3.8s0,0,0,0h0Z"/>
  <path class="cls-4" d="M14.1,29.4s0,0,0,0l-1.3-.8s0,0,0,0,0,0,0,0l1.3.8s0,0,0,0h0Z"/>
  <line class="cls-1" x1="30.7" y1="21.8" x2="30.7" y2="16.3"/>
  <path class="cls-4" d="M19.2,22.7l11.4-6.5s.1-.1.1.2c0,0,0,.1,0,.1l-11.5,6.5v-.3h0Z"/>
  <polygon class="cls-9" points="19.2 27.8 30.7 21.4 30.7 21.8 19.2 28.3 19.2 27.8"/>
</svg>