<?xml version="1.0" encoding="UTF-8" standalone="no"?>
<svg
   id="Various"
   viewBox="0 0 82.03 82.03"
   version="1.1"
   sodipodi:docname="ic_scratcher.svg"
   inkscape:version="1.3 (0e150ed, 2023-07-21)"
   xmlns:inkscape="http://www.inkscape.org/namespaces/inkscape"
   xmlns:sodipodi="http://sodipodi.sourceforge.net/DTD/sodipodi-0.dtd"
   xmlns:xlink="http://www.w3.org/1999/xlink"
   xmlns="http://www.w3.org/2000/svg"
   xmlns:svg="http://www.w3.org/2000/svg">
  <sodipodi:namedview
     id="namedview187"
     pagecolor="#ffffff"
     bordercolor="#000000"
     borderopacity="0.25"
     inkscape:showpageshadow="2"
     inkscape:pageopacity="0.0"
     inkscape:pagecheckerboard="0"
     inkscape:deskcolor="#d1d1d1"
     inkscape:zoom="3.5109107"
     inkscape:cx="-11.962708"
     inkscape:cy="74.4821"
     inkscape:window-width="2368"
     inkscape:window-height="1212"
     inkscape:window-x="135"
     inkscape:window-y="120"
     inkscape:window-maximized="0"
     inkscape:current-layer="Various" />
  <defs
     id="defs1">
    <style
       id="style1">.cls-1{font-family:Verdana-Bold, Verdana;font-size:6px;}.cls-1,.cls-2{fill:#fff;}.cls-3{fill:#facc62;}.cls-4{fill:#6a3164;}.cls-5{fill:#f1c6ab;}.cls-6{fill:#edb35b;}.cls-7{fill:#825e3e;}.cls-8{fill:#7caa55;}.cls-9{fill:#8abc60;}.cls-10{fill:#9ec285;}.cls-11{fill:#a0d177;}.cls-12{fill:#c43939;}.cls-13{fill:#8fc981;}.cls-14{fill:#a62626;}.cls-15{fill:#aa7b51;}.cls-16{fill:#dead8e;}.cls-17,.cls-18{fill:#c4e6a7;}.cls-19{fill:#d65e3a;}.cls-20{fill:#d7a16f;}.cls-21{fill:#6e4f34;}.cls-22{fill:#71a7c2;}.cls-23{fill:#6e954d;}.cls-24{fill:#82685b;}.cls-25{fill:#5c3057;}.cls-26{fill:#608640;}.cls-27{fill:#5d8222;}.cls-28{fill:#780001;}.cls-29{fill:#50701d;}.cls-18{isolation:isolate;opacity:.8;}</style>
    <linearGradient
       id="linear-gradient"
       x1="8.79"
       y1="4.8899999"
       x2="10.02"
       y2="5.96"
       gradientUnits="userSpaceOnUse">
      <stop
         offset="0"
         stop-color="#efa66b"
         id="stop1" />
      <stop
         offset=".23"
         stop-color="#df9363"
         id="stop2" />
      <stop
         offset=".68"
         stop-color="#b8634f"
         id="stop3" />
      <stop
         offset="1"
         stop-color="#9a3e40"
         id="stop4" />
    </linearGradient>
    <linearGradient
       id="linear-gradient-2"
       x1="12.56"
       y1="15"
       x2="15.09"
       y2="15"
       gradientUnits="userSpaceOnUse">
      <stop
         offset="0"
         stop-color="#fce19f"
         id="stop5" />
      <stop
         offset=".02"
         stop-color="#fce4a4"
         id="stop6" />
      <stop
         offset=".08"
         stop-color="#fceeb3"
         id="stop7" />
      <stop
         offset=".15"
         stop-color="#fcf4bd"
         id="stop8" />
      <stop
         offset=".25"
         stop-color="#fcf6c0"
         id="stop9" />
      <stop
         offset=".32"
         stop-color="#f7eab8"
         id="stop10" />
      <stop
         offset=".44"
         stop-color="#ebcca4"
         id="stop11" />
      <stop
         offset=".58"
         stop-color="#dba388"
         id="stop12" />
      <stop
         offset=".78"
         stop-color="#b36b6b"
         id="stop13" />
      <stop
         offset=".86"
         stop-color="#b46d6c"
         id="stop14" />
      <stop
         offset=".91"
         stop-color="#ba7670"
         id="stop15" />
      <stop
         offset=".95"
         stop-color="#c58478"
         id="stop16" />
      <stop
         offset=".99"
         stop-color="#d49982"
         id="stop17" />
      <stop
         offset="1"
         stop-color="#dba388"
         id="stop18" />
    </linearGradient>
    <linearGradient
       id="linear-gradient-3"
       x1="4.6300001"
       y1="13.75"
       x2="7.1599998"
       y2="13.75"
       xlink:href="#linear-gradient-2" />
    <clipPath
       id="clippath">
      <rect
         class="cls-2"
         x="4.6300001"
         y="1.15"
         width="2.53"
         height="25.950001"
         id="rect18" />
    </clipPath>
    <clipPath
       id="clippath-1">
      <rect
         class="cls-2"
         x="12.56"
         y="11.48"
         width="2.53"
         height="7.04"
         id="rect19-9" />
    </clipPath>
    <linearGradient
       id="linear-gradient-4"
       x1="8.79"
       y1="4.8899999"
       x2="10.02"
       y2="5.96"
       gradientUnits="userSpaceOnUse">
      <stop
         offset="0"
         stop-color="#efa66b"
         id="stop1-0" />
      <stop
         offset=".23"
         stop-color="#df9363"
         id="stop2-0" />
      <stop
         offset=".68"
         stop-color="#b8634f"
         id="stop3-9" />
      <stop
         offset="1"
         stop-color="#9a3e40"
         id="stop4-3" />
    </linearGradient>
    <linearGradient
       inkscape:collect="always"
       xlink:href="#linear-gradient-2"
       id="linearGradient33"
       gradientUnits="userSpaceOnUse"
       x1="12.56"
       y1="15"
       x2="15.09"
       y2="15" />
    <linearGradient
       id="linear-gradient-3-5"
       x1="4.6300001"
       y1="13.75"
       x2="7.1599998"
       y2="13.75"
       xlink:href="#linear-gradient-2" />
    <clipPath
       id="clippath-5">
      <rect
         class="cls-2"
         x="4.6300001"
         y="1.15"
         width="2.53"
         height="25.950001"
         id="rect18-4" />
    </clipPath>
    <clipPath
       id="clippath-1-2">
      <rect
         class="cls-2"
         x="12.56"
         y="11.48"
         width="2.53"
         height="7.04"
         id="rect19" />
    </clipPath>
  </defs>
  <g
     class="cls-22"
     id="g246"
     style="isolation:isolate;fill:#71a7c2"
     transform="matrix(2.1503003,0,0,2.1503003,19.017427,22.101127)">
    <g
       id="Livello_1">
      <rect
         class="cls-13"
         x="9.3199997"
         y="0.68000001"
         width="0.16"
         height="4.3699999"
         id="rect20-3"
         style="fill:#6d6464;stroke-width:0px" />
      <path
         class="cls-4"
         d="m 10.15,5.41 c 0,0.42 -0.34,0.76 -0.77,0.76 -0.43,0 -0.77,-0.34 -0.77,-0.76 0,-0.42 0.34,-0.76 0.77,-0.76 0.43,0 0.77,0.34 0.77,0.76 z"
         id="path20"
         style="fill:url(#linear-gradient-4);stroke-width:0px" />
      <path
         class="cls-8"
         d="m 9.38,4.65 c 0,0 -0.04,0 -0.07,0 0.32,0.03 0.57,0.3 0.57,0.62 0,0.35 -0.29,0.63 -0.64,0.63 -0.33,0 -0.6,-0.25 -0.63,-0.57 0,0.02 0,0.04 0,0.06 0,0.42 0.34,0.76 0.77,0.76 0.43,0 0.77,-0.34 0.77,-0.76 0,-0.42 -0.34,-0.76 -0.77,-0.76 z"
         id="path21"
         style="opacity:0.2;mix-blend-mode:multiply;fill:#65009b;stroke-width:0px" />
      <g
         class="cls-20"
         id="g26"
         style="opacity:0.3;mix-blend-mode:multiply;fill:#d7a16f">
        <path
           class="cls-10"
           d="m 8.97,5.07 c 0,0 -0.02,0 -0.03,-0.01 C 8.92,5.04 8.91,5.01 8.94,4.99 9.03,4.88 9.17,4.81 9.31,4.81 c 0.03,0 0.05,0.02 0.05,0.05 0,0.03 -0.02,0.05 -0.05,0.05 -0.11,0 -0.23,0.06 -0.3,0.15 0,0.01 -0.02,0.02 -0.04,0.02 z"
           id="path22"
           style="fill:#9788a6;stroke-width:0px" />
        <path
           class="cls-10"
           d="M 9.01,5.4 C 9.01,5.4 8.97,5.38 8.96,5.36 8.95,5.28 8.98,5.19 9.04,5.13 c 0.02,-0.02 0.05,-0.02 0.07,0 0.02,0.02 0.02,0.05 0,0.07 -0.04,0.03 -0.06,0.09 -0.05,0.14 0,0.03 -0.01,0.05 -0.04,0.06 0,0 0,0 0,0 z"
           id="path23"
           style="fill:#9788a6;stroke-width:0px" />
        <path
           class="cls-10"
           d="m 9.71,6.01 c 0,0 -0.03,0 -0.04,-0.03 C 9.66,5.96 9.67,5.93 9.69,5.91 9.89,5.8 10,5.56 9.97,5.34 c 0,-0.03 0.01,-0.05 0.04,-0.06 0.03,0 0.05,0.01 0.06,0.04 0.04,0.26 -0.1,0.55 -0.33,0.67 0,0 -0.02,0 -0.02,0 z"
           id="path24"
           style="fill:#9788a6;stroke-width:0px" />
        <path
           class="cls-10"
           d="m 9.65,5.55 c 0,0 -0.02,0 -0.03,-0.01 C 9.6,5.52 9.6,5.49 9.62,5.47 9.68,5.4 9.68,5.28 9.62,5.21 9.56,5.14 9.44,5.13 9.36,5.19 9.34,5.21 9.31,5.2 9.29,5.19 9.27,5.17 9.28,5.14 9.29,5.12 9.41,5.03 9.58,5.05 9.68,5.15 c 0.1,0.11 0.1,0.28 0,0.39 0,0.01 -0.02,0.02 -0.04,0.02 z"
           id="path25"
           style="fill:#9788a6;stroke-width:0px" />
        <path
           class="cls-10"
           d="M 9.22,5.78 C 9.15,5.78 9.08,5.76 9.02,5.73 8.92,5.68 8.84,5.58 8.81,5.47 c 0,-0.03 0,-0.05 0.03,-0.06 0.03,0 0.05,0 0.06,0.03 0.02,0.08 0.08,0.16 0.16,0.2 0.08,0.04 0.17,0.05 0.25,0.02 0.03,0 0.05,0 0.06,0.03 0,0.03 0,0.05 -0.03,0.06 C 9.3,5.76 9.25,5.77 9.2,5.77 Z"
           id="path26"
           style="fill:#9788a6;stroke-width:0px" />
      </g>
      <rect
         class="cls-14"
         x="12.56"
         y="11.48"
         width="2.53"
         height="7.04"
         id="rect26-8"
         style="fill:url(#linearGradient33);stroke-width:0px" />
      <rect
         class="cls-15"
         x="4.6300001"
         y="0.38999999"
         width="2.53"
         height="26.719999"
         id="rect27-0"
         style="fill:url(#linear-gradient-3-5);stroke-width:0px" />
      <g
         class="cls-20"
         id="g92"
         style="opacity:0.3;mix-blend-mode:multiply;fill:#d7a16f">
        <g
           class="cls-19"
           clip-path="url(#clippath-5)"
           id="g91"
           style="fill:#d65e3a">
          <path
             class="cls-3"
             d="m 5.02,14.31 c -0.27,0 -0.47,0 -0.5,0 L 4.46,14.25 H 4.58 4.52 v -0.06 c 0.07,0 2.67,0 2.73,0 v 0.06 c 0,0 0.06,0 0.06,0 q 0,0.06 -1.39,0.06 c -0.31,0 -0.64,0 -0.91,0 z"
             id="path27"
             style="fill:#af635d;stroke-width:0px" />
          <path
             class="cls-3"
             d="m 5.03,13.92 c -0.28,0 -0.48,0 -0.51,0 L 4.46,13.86 H 4.58 4.52 V 13.8 c 0.07,0 2.67,0 2.73,0 v 0.06 c 0,0 0.06,0 0.06,0 q 0,0.06 -1.39,0.06 c -0.31,0 -0.63,0 -0.89,0 z"
             id="path28"
             style="fill:#af635d;stroke-width:0px" />
          <path
             class="cls-3"
             d="m 5.03,13.53 c -0.28,0 -0.48,0 -0.51,0 L 4.46,13.47 H 4.58 4.52 v -0.06 c 0.07,0 2.67,0 2.73,0 v 0.06 c 0,0 0.06,0 0.06,0 q 0,0.06 -1.39,0.06 c -0.31,0 -0.63,0 -0.89,0 z"
             id="path29-2"
             style="fill:#af635d;stroke-width:0px" />
          <path
             class="cls-3"
             d="m 5.02,13.14 c -0.27,0 -0.47,0 -0.49,0 L 4.47,13.08 H 4.59 4.53 v -0.06 c 0.07,0 2.67,0 2.73,0 v 0.06 c 0,0 0.06,0 0.06,0 q 0,0.06 -1.39,0.06 c -0.32,0 -0.65,0 -0.91,0 z"
             id="path30-4"
             style="fill:#af635d;stroke-width:0px" />
          <path
             class="cls-3"
             d="m 5.03,12.75 c -0.28,0 -0.48,0 -0.51,0 L 4.46,12.69 H 4.58 4.52 v -0.06 c 0.07,0 2.67,0 2.73,0 v 0.06 c 0,0 0.06,0 0.06,0 q 0,0.06 -1.39,0.06 c -0.31,0 -0.64,0 -0.9,0 z"
             id="path31-8"
             style="fill:#af635d;stroke-width:0px" />
          <path
             class="cls-3"
             d="m 5.03,12.36 c -0.28,0 -0.48,0 -0.51,0 L 4.46,12.3 H 4.58 4.52 v -0.06 c 0.07,0 2.67,0 2.73,0 v 0.06 c 0,0 0.06,0 0.06,0 q 0,0.06 -1.39,0.06 c -0.31,0 -0.64,0 -0.9,0 z"
             id="path32-3"
             style="fill:#af635d;stroke-width:0px" />
          <path
             class="cls-3"
             d="m 5.01,11.97 c -0.27,0 -0.46,0 -0.48,0 L 4.47,11.91 H 4.59 4.53 v -0.06 c 0.07,0 2.67,0 2.73,0 v 0.06 c 0,0 0.06,0 0.06,0 q 0,0.06 -1.39,0.06 c -0.32,0 -0.65,0 -0.92,0 z"
             id="path33-9"
             style="fill:#af635d;stroke-width:0px" />
          <path
             class="cls-3"
             d="m 5.02,11.58 c -0.27,0 -0.47,0 -0.5,0 L 4.46,11.52 H 4.58 4.52 v -0.06 c 0.07,0 2.67,0 2.73,0 v 0.06 c 0,0 0.06,0 0.06,0 q 0,0.06 -1.39,0.06 c -0.31,0 -0.64,0 -0.91,0 z"
             id="path34-0"
             style="fill:#af635d;stroke-width:0px" />
          <path
             class="cls-3"
             d="m 5.03,11.18 c -0.28,0 -0.48,0 -0.51,0 L 4.46,11.12 H 4.58 4.52 v -0.06 c 0.07,0 2.67,0 2.73,0 v 0.06 c 0,0 0.06,0 0.06,0 q 0,0.06 -1.39,0.06 c -0.31,0 -0.63,0 -0.89,0 z"
             id="path35-5"
             style="fill:#af635d;stroke-width:0px" />
          <path
             class="cls-3"
             d="m 5.03,10.79 c -0.28,0 -0.48,0 -0.51,0 L 4.46,10.73 H 4.58 4.52 v -0.06 c 0.07,0 2.67,0 2.73,0 v 0.06 c 0,0 0.06,0 0.06,0 q 0,0.06 -1.39,0.06 c -0.31,0 -0.63,0 -0.89,0 z"
             id="path36-2"
             style="fill:#af635d;stroke-width:0px" />
          <path
             class="cls-3"
             d="m 5.02,10.4 c -0.27,0 -0.47,0 -0.49,0 L 4.47,10.34 H 4.59 4.53 v -0.06 c 0.07,0 2.67,0 2.73,0 v 0.06 c 0,0 0.06,0 0.06,0 q 0,0.06 -1.39,0.06 c -0.32,0 -0.65,0 -0.91,0 z"
             id="path37-2"
             style="fill:#af635d;stroke-width:0px" />
          <path
             class="cls-3"
             d="m 5.03,10.01 c -0.28,0 -0.48,0 -0.51,0 L 4.46,9.95 H 4.58 4.52 V 9.89 c 0.07,0 2.67,0 2.73,0 v 0.06 c 0,0 0.06,0 0.06,0 q 0,0.06 -1.39,0.06 c -0.31,0 -0.64,0 -0.9,0 z"
             id="path38-7"
             style="fill:#af635d;stroke-width:0px" />
          <path
             class="cls-3"
             d="m 5.03,9.62 c -0.28,0 -0.48,0 -0.51,0 L 4.46,9.56 H 4.58 4.52 V 9.5 c 0.07,0 2.67,0 2.73,0 v 0.06 c 0,0 0.06,0 0.06,0 q 0,0.06 -1.39,0.06 c -0.31,0 -0.64,0 -0.9,0 z"
             id="path39-3"
             style="fill:#af635d;stroke-width:0px" />
          <path
             class="cls-3"
             d="m 5.01,9.23 c -0.27,0 -0.46,0 -0.48,0 L 4.47,9.17 H 4.59 4.53 V 9.11 c 0.07,0 2.67,0 2.73,0 v 0.06 c 0,0 0.06,0 0.06,0 q 0,0.06 -1.39,0.06 c -0.32,0 -0.65,0 -0.92,0 z"
             id="path40-7"
             style="fill:#af635d;stroke-width:0px" />
          <path
             class="cls-3"
             d="m 5.02,8.84 c -0.27,0 -0.47,0 -0.49,0 L 4.47,8.78 H 4.59 4.53 V 8.72 c 0.07,0 2.67,0 2.73,0 v 0.06 c 0,0 0.06,0 0.06,0 q 0,0.06 -1.39,0.06 c -0.32,0 -0.65,0 -0.91,0 z"
             id="path41-9"
             style="fill:#af635d;stroke-width:0px" />
          <path
             class="cls-3"
             d="m 5.03,8.44 c -0.28,0 -0.48,0 -0.51,0 L 4.46,8.38 H 4.58 4.52 V 8.32 c 0.07,0 2.67,0 2.73,0 v 0.06 c 0,0 0.06,0 0.06,0 q 0,0.06 -1.39,0.06 c -0.31,0 -0.63,0 -0.89,0 z"
             id="path42-0"
             style="fill:#af635d;stroke-width:0px" />
          <path
             class="cls-3"
             d="m 5.03,8.05 c -0.28,0 -0.48,0 -0.51,0 L 4.46,7.99 H 4.58 4.52 V 7.93 c 0.07,0 2.67,0 2.73,0 v 0.06 c 0,0 0.06,0 0.06,0 q 0,0.06 -1.39,0.06 c -0.31,0 -0.63,0 -0.89,0 z"
             id="path43-2"
             style="fill:#af635d;stroke-width:0px" />
          <path
             class="cls-3"
             d="m 5.02,7.66 c -0.27,0 -0.47,0 -0.49,0 L 4.47,7.6 H 4.59 4.53 V 7.54 c 0.07,0 2.67,0 2.73,0 V 7.6 c 0,0 0.06,0 0.06,0 q 0,0.06 -1.39,0.06 c -0.32,0 -0.65,0 -0.91,0 z"
             id="path44-3"
             style="fill:#af635d;stroke-width:0px" />
          <path
             class="cls-3"
             d="m 5.02,7.27 c -0.27,0 -0.47,0 -0.5,0 L 4.46,7.21 H 4.58 4.52 V 7.15 c 0.07,0 2.67,0 2.73,0 v 0.06 c 0,0 0.06,0 0.06,0 q 0,0.06 -1.39,0.06 c -0.31,0 -0.64,0 -0.91,0 z"
             id="path45-9"
             style="fill:#af635d;stroke-width:0px" />
          <path
             class="cls-3"
             d="m 5.03,6.88 c -0.28,0 -0.48,0 -0.51,0 L 4.46,6.82 H 4.58 4.52 V 6.76 c 0.07,0 2.67,0 2.73,0 v 0.06 c 0,0 0.06,0 0.06,0 q 0,0.06 -1.39,0.06 c -0.31,0 -0.64,0 -0.9,0 z"
             id="path46-9"
             style="fill:#af635d;stroke-width:0px" />
          <path
             class="cls-3"
             d="m 5.01,6.49 c -0.27,0 -0.46,0 -0.48,0 L 4.47,6.43 H 4.59 4.53 V 6.37 c 0.07,0 2.67,0 2.73,0 v 0.06 c 0,0 0.06,0 0.06,0 q 0,0.06 -1.39,0.06 c -0.32,0 -0.65,0 -0.92,0 z"
             id="path47-7"
             style="fill:#af635d;stroke-width:0px" />
          <path
             class="cls-3"
             d="m 5.02,6.1 c -0.27,0 -0.47,0 -0.49,0 L 4.47,6.04 H 4.59 4.53 V 5.98 c 0.07,0 2.67,0 2.73,0 v 0.06 c 0,0 0.06,0 0.06,0 q 0,0.06 -1.39,0.06 c -0.32,0 -0.65,0 -0.91,0 z"
             id="path48-0"
             style="fill:#af635d;stroke-width:0px" />
          <path
             class="cls-3"
             d="m 5.03,5.7 c -0.28,0 -0.48,0 -0.51,0 L 4.46,5.64 H 4.58 4.52 V 5.58 c 0.07,0 2.67,0 2.73,0 v 0.06 c 0,0 0.06,0 0.06,0 q 0,0.06 -1.39,0.06 c -0.31,0 -0.63,0 -0.89,0 z"
             id="path49-3"
             style="fill:#af635d;stroke-width:0px" />
          <path
             class="cls-3"
             d="m 5.03,5.31 c -0.28,0 -0.48,0 -0.51,0 L 4.46,5.25 H 4.58 4.52 V 5.19 c 0.07,0 2.67,0 2.73,0 v 0.06 c 0,0 0.06,0 0.06,0 q 0,0.06 -1.39,0.06 c -0.31,0 -0.63,0 -0.89,0 z"
             id="path50-9"
             style="fill:#af635d;stroke-width:0px" />
          <path
             class="cls-3"
             d="m 5.02,4.92 c -0.27,0 -0.47,0 -0.49,0 L 4.47,4.86 H 4.59 4.53 V 4.8 c 0.07,0 2.67,0 2.73,0 v 0.06 c 0,0 0.06,0 0.06,0 q 0,0.06 -1.39,0.06 c -0.32,0 -0.65,0 -0.91,0 z"
             id="path51-8"
             style="fill:#af635d;stroke-width:0px" />
          <path
             class="cls-3"
             d="m 5.02,4.53 c -0.27,0 -0.47,0 -0.5,0 L 4.46,4.47 H 4.58 4.52 V 4.41 c 0.07,0 2.67,0 2.73,0 v 0.06 c 0,0 0.06,0 0.06,0 q 0,0.06 -1.39,0.06 c -0.31,0 -0.64,0 -0.91,0 z"
             id="path52-6"
             style="fill:#af635d;stroke-width:0px" />
          <path
             class="cls-3"
             d="m 5.03,4.14 c -0.28,0 -0.48,0 -0.51,0 L 4.46,4.08 H 4.58 4.52 V 4.02 c 0.07,0 2.67,0 2.73,0 v 0.06 c 0,0 0.06,0 0.06,0 q 0,0.06 -1.39,0.06 c -0.31,0 -0.64,0 -0.9,0 z"
             id="path53-5"
             style="fill:#af635d;stroke-width:0px" />
          <path
             class="cls-3"
             d="m 5.01,3.75 c -0.27,0 -0.46,0 -0.48,0 L 4.47,3.69 H 4.59 4.53 V 3.63 c 0.07,0 2.67,0 2.73,0 v 0.06 c 0,0 0.06,0 0.06,0 q 0,0.06 -1.39,0.06 c -0.32,0 -0.65,0 -0.92,0 z"
             id="path54-7"
             style="fill:#af635d;stroke-width:0px" />
          <path
             class="cls-3"
             d="m 5.02,3.36 c -0.27,0 -0.47,0 -0.49,0 L 4.47,3.3 H 4.59 4.53 V 3.24 c 0.07,0 2.67,0 2.73,0 V 3.3 c 0,0 0.06,0 0.06,0 q 0,0.06 -1.39,0.06 c -0.32,0 -0.65,0 -0.91,0 z"
             id="path55-6"
             style="fill:#af635d;stroke-width:0px" />
          <path
             class="cls-3"
             d="m 5.03,2.97 c -0.28,0 -0.48,0 -0.51,0 L 4.46,2.91 H 4.58 4.52 V 2.85 c 0.07,0 2.67,0 2.73,0 v 0.06 c 0,0 0.06,0 0.06,0 q 0,0.06 -1.39,0.06 c -0.31,0 -0.63,0 -0.89,0 z"
             id="path56-2"
             style="fill:#af635d;stroke-width:0px" />
          <path
             class="cls-3"
             d="m 5.03,2.57 c -0.28,0 -0.48,0 -0.51,0 L 4.46,2.51 H 4.58 4.52 V 2.45 c 0.07,0 2.67,0 2.73,0 v 0.06 c 0,0 0.06,0 0.06,0 q 0,0.06 -1.39,0.06 c -0.31,0 -0.63,0 -0.89,0 z"
             id="path57-7"
             style="fill:#af635d;stroke-width:0px" />
          <path
             class="cls-3"
             d="m 5.02,2.18 c -0.27,0 -0.47,0 -0.49,0 L 4.47,2.12 H 4.59 4.53 V 2.06 c 0.07,0 2.67,0 2.73,0 v 0.06 c 0,0 0.06,0 0.06,0 q 0,0.06 -1.39,0.06 c -0.32,0 -0.65,0 -0.91,0 z"
             id="path58-0"
             style="fill:#af635d;stroke-width:0px" />
          <path
             class="cls-3"
             d="m 5.02,1.79 c -0.27,0 -0.47,0 -0.5,0 L 4.46,1.73 H 4.58 4.52 V 1.67 c 0.07,0 2.67,0 2.73,0 v 0.06 c 0,0 0.06,0 0.06,0 q 0,0.06 -1.39,0.06 c -0.31,0 -0.64,0 -0.91,0 z"
             id="path59-3"
             style="fill:#af635d;stroke-width:0px" />
          <path
             class="cls-3"
             d="m 5.03,1.4 c -0.28,0 -0.48,0 -0.51,0 L 4.46,1.34 H 4.58 4.52 V 1.28 c 0.07,0 2.67,0 2.73,0 v 0.06 c 0,0 0.06,0 0.06,0 q 0,0.06 -1.39,0.06 c -0.31,0 -0.64,0 -0.9,0 z"
             id="path60-9"
             style="fill:#af635d;stroke-width:0px" />
          <path
             class="cls-3"
             d="M 4.53,26.47 4.47,26.41 H 4.59 4.53 v -0.06 c 0.05,0 2.7,-0.05 2.75,-0.05 v 0.06 h 0.06 q 0,0.06 -0.47,0.07 l -0.92,0.02 c -0.64,0.01 -1.36,0.03 -1.41,0.03 z"
             id="path61-9"
             style="fill:#af635d;stroke-width:0px" />
          <path
             class="cls-3"
             d="M 4.53,26.08 4.47,26.02 H 4.59 4.53 v -0.06 c 0.05,0 2.7,-0.05 2.75,-0.05 v 0.06 h 0.06 q 0,0.06 -0.47,0.07 l -0.92,0.02 c -0.64,0.01 -1.36,0.03 -1.41,0.03 z"
             id="path62-9"
             style="fill:#af635d;stroke-width:0px" />
          <path
             class="cls-3"
             d="M 4.53,25.69 4.47,25.63 H 4.59 4.53 v -0.06 c 0.05,0 2.7,-0.05 2.75,-0.05 v 0.06 h 0.06 q 0,0.06 -0.47,0.07 L 5.95,25.67 C 5.31,25.68 4.59,25.7 4.54,25.7 Z"
             id="path63-1"
             style="fill:#af635d;stroke-width:0px" />
          <path
             class="cls-3"
             d="M 4.53,25.3 4.47,25.24 H 4.59 4.53 v -0.06 c 0.07,0 2.68,-0.05 2.75,-0.05 v 0.06 h 0.06 q 0,0.06 -0.47,0.07 l -0.92,0.02 c -0.64,0.01 -1.36,0.03 -1.42,0.03 z"
             id="path64-7"
             style="fill:#af635d;stroke-width:0px" />
          <path
             class="cls-3"
             d="M 4.53,24.91 4.47,24.85 H 4.59 4.53 v -0.06 c 0.07,0 2.68,-0.05 2.75,-0.05 v 0.06 h 0.06 q 0,0.06 -0.47,0.07 L 5.95,24.89 C 5.31,24.9 4.59,24.92 4.53,24.92 Z"
             id="path65-2"
             style="fill:#af635d;stroke-width:0px" />
          <path
             class="cls-3"
             d="M 4.53,24.51 4.47,24.45 H 4.59 4.53 v -0.06 c 0.07,0 2.68,-0.05 2.75,-0.05 v 0.06 h 0.06 q 0,0.06 -0.47,0.07 L 5.95,24.49 C 5.31,24.5 4.59,24.52 4.53,24.52 Z"
             id="path66-3"
             style="fill:#af635d;stroke-width:0px" />
          <path
             class="cls-3"
             d="M 4.53,24.12 4.47,24.06 H 4.59 4.53 V 24 c 0.05,0 2.7,-0.05 2.75,-0.05 v 0.06 h 0.06 q 0,0.06 -0.47,0.07 L 5.95,24.1 c -0.64,0.01 -1.36,0.03 -1.41,0.03 z"
             id="path67-6"
             style="fill:#af635d;stroke-width:0px" />
          <path
             class="cls-3"
             d="M 4.53,23.73 4.47,23.67 H 4.59 4.53 v -0.06 c 0.05,0 2.7,-0.05 2.75,-0.05 v 0.06 h 0.06 q 0,0.06 -0.47,0.07 l -0.92,0.02 c -0.64,0.01 -1.36,0.03 -1.41,0.03 z"
             id="path68-5"
             style="fill:#af635d;stroke-width:0px" />
          <path
             class="cls-3"
             d="M 4.53,23.34 4.47,23.28 H 4.59 4.53 v -0.06 c 0.05,0 2.7,-0.05 2.75,-0.05 v 0.06 h 0.06 q 0,0.06 -0.47,0.07 l -0.92,0.02 c -0.64,0.01 -1.36,0.03 -1.41,0.03 z"
             id="path69-5"
             style="fill:#af635d;stroke-width:0px" />
          <path
             class="cls-3"
             d="M 4.53,22.95 4.47,22.89 H 4.59 4.53 v -0.06 c 0.05,0 2.7,-0.05 2.75,-0.05 v 0.06 h 0.06 q 0,0.06 -0.47,0.07 l -0.92,0.02 c -0.64,0.01 -1.36,0.03 -1.41,0.03 z"
             id="path70-8"
             style="fill:#af635d;stroke-width:0px" />
          <path
             class="cls-3"
             d="M 4.53,22.56 4.47,22.5 H 4.59 4.53 v -0.06 c 0.07,0 2.68,-0.05 2.75,-0.05 v 0.06 h 0.06 q 0,0.06 -0.47,0.07 l -0.92,0.02 c -0.64,0.01 -1.36,0.03 -1.42,0.03 z"
             id="path71-1"
             style="fill:#af635d;stroke-width:0px" />
          <path
             class="cls-3"
             d="M 4.53,22.17 4.47,22.11 H 4.59 4.53 V 22.05 C 4.6,22.05 7.21,22 7.28,22 v 0.06 h 0.06 q 0,0.06 -0.47,0.07 l -0.92,0.02 c -0.64,0.01 -1.36,0.03 -1.42,0.03 z"
             id="path72-4"
             style="fill:#af635d;stroke-width:0px" />
          <path
             class="cls-3"
             d="M 4.53,21.78 4.47,21.72 H 4.59 4.53 v -0.06 c 0.07,0 2.68,-0.05 2.75,-0.05 v 0.06 h 0.06 q 0,0.06 -0.47,0.07 l -0.92,0.02 c -0.64,0.01 -1.36,0.03 -1.42,0.03 z"
             id="path73-7"
             style="fill:#af635d;stroke-width:0px" />
          <path
             class="cls-3"
             d="M 4.53,21.38 4.47,21.32 H 4.59 4.53 v -0.06 c 0.07,0 2.68,-0.05 2.75,-0.05 v 0.06 h 0.06 q 0,0.06 -0.47,0.07 l -0.92,0.02 c -0.64,0.01 -1.36,0.03 -1.42,0.03 z"
             id="path74-1"
             style="fill:#af635d;stroke-width:0px" />
          <path
             class="cls-3"
             d="M 4.53,20.99 4.47,20.93 H 4.59 4.53 v -0.06 0 c 0.09,0 2.69,-0.05 2.74,-0.05 v 0.06 h 0.06 q 0,0.06 -0.47,0.07 L 5.94,20.97 C 5.3,20.98 4.58,21 4.53,21 Z"
             id="path75-3"
             style="fill:#af635d;stroke-width:0px" />
          <path
             class="cls-3"
             d="M 4.53,20.6 4.47,20.54 H 4.59 4.53 v -0.06 c 0.05,0 2.7,-0.05 2.75,-0.05 v 0.06 h 0.06 q 0,0.06 -0.47,0.07 l -0.92,0.02 c -0.64,0.01 -1.36,0.03 -1.41,0.03 z"
             id="path76-8"
             style="fill:#af635d;stroke-width:0px" />
          <path
             class="cls-3"
             d="M 4.53,20.21 4.47,20.15 H 4.59 4.53 v -0.06 c 0.05,0 2.7,-0.05 2.75,-0.05 v 0.06 h 0.06 q 0,0.06 -0.47,0.07 L 5.95,20.19 C 5.31,20.2 4.59,20.22 4.54,20.22 Z"
             id="path77-4"
             style="fill:#af635d;stroke-width:0px" />
          <path
             class="cls-3"
             d="M 4.53,19.82 4.47,19.76 H 4.59 4.53 V 19.7 c 0.07,0 2.68,-0.05 2.75,-0.05 v 0.06 h 0.06 q 0,0.06 -0.47,0.07 L 5.95,19.8 c -0.66,0.01 -1.36,0.03 -1.41,0.03 z"
             id="path78-8"
             style="fill:#af635d;stroke-width:0px" />
          <path
             class="cls-3"
             d="M 4.53,19.43 4.47,19.37 H 4.59 4.53 v -0.06 c 0.07,0 2.68,-0.05 2.75,-0.05 v 0.06 h 0.06 q 0,0.06 -0.47,0.07 l -0.92,0.02 c -0.64,0.01 -1.36,0.03 -1.42,0.03 z"
             id="path79-0"
             style="fill:#af635d;stroke-width:0px" />
          <path
             class="cls-3"
             d="M 4.53,19.04 4.47,18.98 H 4.59 4.53 v -0.06 c 0.07,0 2.68,-0.05 2.75,-0.05 v 0.06 h 0.06 q 0,0.06 -0.47,0.07 l -0.92,0.02 c -0.64,0.01 -1.36,0.03 -1.42,0.03 z"
             id="path80-4"
             style="fill:#af635d;stroke-width:0px" />
          <path
             class="cls-3"
             d="M 4.53,18.64 4.47,18.58 H 4.59 4.53 v -0.06 0 c 0.11,0 2.68,-0.05 2.74,-0.05 v 0.06 h 0.06 q 0,0.06 -0.47,0.07 L 5.94,18.62 C 5.3,18.63 4.58,18.65 4.52,18.65 Z"
             id="path81-6"
             style="fill:#af635d;stroke-width:0px" />
          <path
             class="cls-3"
             d="M 4.53,18.25 4.47,18.19 H 4.59 4.53 v -0.06 0 c 0.09,0 2.69,-0.05 2.74,-0.05 v 0.06 h 0.06 q 0,0.06 -0.47,0.07 L 5.94,18.23 C 5.3,18.24 4.58,18.26 4.53,18.26 Z"
             id="path82-0"
             style="fill:#af635d;stroke-width:0px" />
          <path
             class="cls-3"
             d="M 4.53,17.86 4.47,17.8 H 4.59 4.53 v -0.06 0 c 0.09,0 2.69,-0.05 2.74,-0.05 v 0.06 h 0.06 q 0,0.06 -0.47,0.07 L 5.94,17.84 C 5.3,17.85 4.58,17.87 4.53,17.87 Z"
             id="path83-3"
             style="fill:#af635d;stroke-width:0px" />
          <path
             class="cls-3"
             d="M 4.53,17.47 4.47,17.41 H 4.59 4.53 v -0.06 0 c 0.11,0 2.68,-0.05 2.74,-0.05 v 0.06 h 0.06 q 0,0.06 -0.47,0.07 L 5.94,17.45 C 5.3,17.46 4.58,17.48 4.53,17.48 Z"
             id="path84-2"
             style="fill:#af635d;stroke-width:0px" />
          <path
             class="cls-3"
             d="M 4.53,17.08 4.47,17.02 H 4.59 4.53 v -0.06 0 c 0.11,0 2.68,-0.05 2.74,-0.05 v 0.06 h 0.06 q 0,0.06 -0.47,0.07 L 5.94,17.06 C 5.3,17.07 4.58,17.09 4.53,17.09 Z"
             id="path85-6"
             style="fill:#af635d;stroke-width:0px" />
          <path
             class="cls-3"
             d="M 4.53,16.69 4.47,16.63 H 4.59 4.53 v -0.06 0 c 0.11,0 2.68,-0.05 2.74,-0.05 v 0.06 h 0.06 q 0,0.06 -0.47,0.07 L 5.94,16.67 C 5.3,16.68 4.58,16.7 4.53,16.7 Z"
             id="path86-9"
             style="fill:#af635d;stroke-width:0px" />
          <path
             class="cls-3"
             d="M 4.53,16.3 4.47,16.24 H 4.59 4.53 v -0.06 0 c 0.11,0 2.68,-0.05 2.74,-0.05 v 0.06 h 0.06 q 0,0.06 -0.47,0.07 L 5.94,16.28 C 5.3,16.29 4.58,16.31 4.53,16.31 Z"
             id="path87-4"
             style="fill:#af635d;stroke-width:0px" />
          <path
             class="cls-3"
             d="M 4.53,15.9 4.47,15.84 H 4.59 4.53 v -0.06 0 c 0.11,0 2.68,-0.05 2.74,-0.05 v 0.06 h 0.06 q 0,0.06 -0.47,0.07 L 5.94,15.88 C 5.3,15.89 4.58,15.91 4.53,15.91 Z"
             id="path88-1"
             style="fill:#af635d;stroke-width:0px" />
          <path
             class="cls-3"
             d="M 4.53,15.51 4.47,15.45 H 4.59 4.53 v -0.06 0 c 0.11,0 2.68,-0.05 2.74,-0.05 v 0.06 h 0.06 q 0,0.06 -0.47,0.07 L 5.94,15.49 C 5.3,15.5 4.58,15.52 4.53,15.52 Z"
             id="path89-3"
             style="fill:#af635d;stroke-width:0px" />
          <path
             class="cls-3"
             d="M 4.53,15.12 4.47,15.06 H 4.59 4.53 V 15 c 0.06,0 2.68,-0.05 2.75,-0.05 v 0.06 h 0.06 q 0,0.06 -0.47,0.07 L 5.95,15.1 c -0.64,0.01 -1.36,0.03 -1.41,0.03 z"
             id="path90-7"
             style="fill:#af635d;stroke-width:0px" />
          <path
             class="cls-3"
             d="M 4.53,14.73 4.47,14.67 H 4.59 4.53 v -0.06 0 c 0.11,0 2.68,-0.05 2.74,-0.05 v 0.06 h 0.06 q 0,0.06 -0.47,0.07 L 5.94,14.71 C 5.3,14.72 4.58,14.74 4.53,14.74 Z"
             id="path91-8"
             style="fill:#af635d;stroke-width:0px" />
        </g>
      </g>
      <g
         class="cls-20"
         id="g109"
         style="opacity:0.3;mix-blend-mode:multiply;fill:#d7a16f">
        <g
           class="cls-21"
           clip-path="url(#clippath-1-2)"
           id="g108"
           style="fill:#6e4f34">
          <path
             class="cls-3"
             d="m 12.49,18.11 c 0,0 -0.03,0 -0.03,0 L 12.4,18.05 h 0.12 -0.06 v -0.06 c 0.07,0 2.68,-0.01 2.75,-0.02 v 0.06 c 0,0 0.06,0 0.06,0 q 0,0.06 -1.4,0.07 c -0.58,0 -1.23,0 -1.38,0 z"
             id="path92-8"
             style="fill:#af635d;stroke-width:0px" />
          <path
             class="cls-3"
             d="m 12.49,17.72 c 0,0 -0.02,0 -0.03,0 L 12.4,17.66 h 0.12 -0.06 V 17.6 c 0.06,0 2.7,-0.01 2.75,-0.02 v 0.06 c 0,0 0.06,0 0.06,0 q 0,0.06 -0.48,0.06 h -0.93 c -0.59,0 -1.24,0.01 -1.38,0.01 z"
             id="path93-3"
             style="fill:#af635d;stroke-width:0px" />
          <path
             class="cls-3"
             d="m 12.49,17.33 c 0,0 -0.02,0 -0.03,0 L 12.4,17.27 h 0.12 -0.06 v -0.06 c 0.07,0 2.68,-0.01 2.75,-0.02 v 0.06 c 0,0 0.06,0 0.06,0 q 0,0.06 -0.48,0.06 h -0.93 c -0.59,0 -1.23,0.01 -1.38,0.01 z"
             id="path94-8"
             style="fill:#af635d;stroke-width:0px" />
          <path
             class="cls-3"
             d="m 12.49,16.94 c 0,0 -0.02,0 -0.03,0 L 12.4,16.88 h 0.12 -0.06 v -0.06 c 0.07,0 2.68,-0.01 2.75,-0.02 v 0.06 c 0,0 0.06,0 0.06,0 q 0,0.06 -0.48,0.06 h -0.93 c -0.59,0 -1.23,0.01 -1.38,0.01 z"
             id="path95-1"
             style="fill:#af635d;stroke-width:0px" />
          <path
             class="cls-3"
             d="m 12.49,16.55 c 0,0 -0.02,0 -0.03,0 L 12.4,16.49 h 0.12 -0.06 v -0.06 c 0.07,0 2.68,-0.01 2.75,-0.02 v 0.06 c 0,0 0.06,0 0.06,0 q 0,0.06 -0.48,0.06 h -0.93 c -0.59,0 -1.23,0.01 -1.38,0.01 z"
             id="path96-5"
             style="fill:#af635d;stroke-width:0px" />
          <path
             class="cls-3"
             d="m 12.49,16.16 c 0,0 -0.02,0 -0.03,0 L 12.4,16.1 h 0.12 -0.06 v -0.06 c 0.07,0 2.68,-0.01 2.75,-0.02 v 0.06 c 0,0 0.06,0 0.06,0 q 0,0.06 -0.48,0.06 h -0.93 c -0.59,0 -1.23,0.01 -1.38,0.01 z"
             id="path97-3"
             style="fill:#af635d;stroke-width:0px" />
          <path
             class="cls-3"
             d="m 12.49,15.77 c 0,0 -0.03,0 -0.03,0 L 12.4,15.71 h 0.12 -0.06 v -0.06 c 0.07,0 2.68,-0.01 2.75,-0.02 v 0.06 c 0,0 0.06,0 0.06,0 q 0,0.06 -0.48,0.06 h -0.93 c -0.59,0 -1.23,0.01 -1.38,0.01 z"
             id="path98-5"
             style="fill:#af635d;stroke-width:0px" />
          <path
             class="cls-3"
             d="m 12.49,15.37 c 0,0 -0.02,0 -0.03,0 L 12.4,15.31 h 0.12 -0.06 v -0.06 c 0.07,0 2.68,-0.01 2.75,-0.02 v 0.06 c 0,0 0.06,0 0.06,0 q 0,0.06 -0.48,0.06 h -0.93 c -0.59,0 -1.23,0.01 -1.38,0.01 z"
             id="path99-4"
             style="fill:#af635d;stroke-width:0px" />
          <path
             class="cls-3"
             d="m 12.49,14.98 c 0,0 -0.02,0 -0.03,0 L 12.4,14.92 h 0.12 -0.06 v -0.06 c 0.07,0 2.68,-0.01 2.75,-0.02 v 0.06 c 0,0 0.06,0 0.06,0 q 0,0.06 -0.48,0.06 h -0.93 c -0.59,0 -1.23,0.01 -1.38,0.01 z"
             id="path100-3"
             style="fill:#af635d;stroke-width:0px" />
          <path
             class="cls-3"
             d="m 12.49,14.59 c 0,0 -0.02,0 -0.03,0 L 12.4,14.53 h 0.12 -0.06 v -0.06 c 0.07,0 2.68,-0.01 2.75,-0.02 v 0.06 c 0,0 0.06,0 0.06,0 q 0,0.06 -0.48,0.06 h -0.93 c -0.59,0 -1.23,0.01 -1.38,0.01 z"
             id="path101-6"
             style="fill:#af635d;stroke-width:0px" />
          <path
             class="cls-3"
             d="m 12.49,14.2 c 0,0 -0.02,0 -0.03,0 L 12.4,14.14 h 0.12 -0.06 v -0.06 c 0.07,0 2.68,-0.01 2.75,-0.02 v 0.06 c 0,0 0.06,0 0.06,0 q 0,0.06 -0.48,0.06 h -0.93 c -0.59,0 -1.23,0.01 -1.38,0.01 z"
             id="path102-5"
             style="fill:#af635d;stroke-width:0px" />
          <path
             class="cls-3"
             d="m 12.49,13.81 c 0,0 -0.02,0 -0.03,0 L 12.4,13.75 h 0.12 -0.06 v -0.06 c 0.07,0 2.68,-0.01 2.75,-0.02 v 0.06 c 0,0 0.06,0 0.06,0 q 0,0.06 -0.48,0.06 h -0.93 c -0.59,0 -1.23,0.01 -1.38,0.01 z"
             id="path103-9"
             style="fill:#af635d;stroke-width:0px" />
          <path
             class="cls-3"
             d="m 12.49,13.42 c 0,0 -0.02,0 -0.03,0 L 12.4,13.36 h 0.12 -0.06 V 13.3 c 0.07,0 2.68,-0.01 2.75,-0.02 v 0.06 c 0,0 0.06,0 0.06,0 q 0,0.06 -0.48,0.06 h -0.93 c -0.59,0 -1.23,0.01 -1.38,0.01 z"
             id="path104-5"
             style="fill:#af635d;stroke-width:0px" />
          <path
             class="cls-3"
             d="m 12.49,13.03 c 0,0 -0.02,0 -0.03,0 L 12.4,12.97 h 0.12 -0.06 v -0.06 c 0.07,0 2.68,-0.01 2.75,-0.02 v 0.06 c 0,0 0.06,0 0.06,0 q 0,0.06 -0.48,0.06 h -0.93 c -0.59,0 -1.23,0.01 -1.38,0.01 z"
             id="path105-4"
             style="fill:#af635d;stroke-width:0px" />
          <path
             class="cls-3"
             d="m 12.49,12.63 c 0,0 -0.02,0 -0.03,0 L 12.4,12.57 h 0.12 -0.06 v -0.06 c 0.07,0 2.68,-0.01 2.75,-0.02 v 0.06 c 0,0 0.06,0 0.06,0 q 0,0.06 -0.48,0.06 h -0.93 c -0.59,0 -1.23,0.01 -1.38,0.01 z"
             id="path106-9"
             style="fill:#af635d;stroke-width:0px" />
          <path
             class="cls-3"
             d="m 12.49,12.24 c 0,0 -0.02,0 -0.03,0 L 12.4,12.18 h 0.12 -0.06 v -0.06 c 0.07,0 2.68,-0.01 2.75,-0.02 v 0.06 c 0,0 0.06,0 0.06,0 q 0,0.06 -0.48,0.06 h -0.93 c -0.59,0 -1.23,0.01 -1.38,0.01 z"
             id="path107-1"
             style="fill:#af635d;stroke-width:0px" />
          <path
             class="cls-3"
             d="m 12.49,11.85 c 0,0 -0.02,0 -0.03,0 L 12.4,11.79 h 0.12 -0.06 v -0.06 c 0.07,0 2.68,-0.01 2.75,-0.02 v 0.06 c 0,0 0.06,0 0.06,0 q 0,0.06 -0.48,0.06 h -0.93 c -0.59,0 -1.23,0.01 -1.38,0.01 z"
             id="path108-7"
             style="fill:#af635d;stroke-width:0px" />
        </g>
      </g>
      <rect
         class="cls-18"
         x="12.56"
         y="11.48"
         width="2.53"
         height="0.89999998"
         id="rect109"
         style="opacity:0.3;isolation:isolate;mix-blend-mode:multiply;fill:#990036;stroke-width:0px" />
      <path
         class="cls-17"
         d="m 15.09,18.52 -2.53,-0.04 v -0.59 c 2.21,0 1.69,-2.23 1.69,-6.41 h 0.84 z"
         id="path109-5"
         style="opacity:0.2;mix-blend-mode:multiply;fill:#995300;stroke-width:0px" />
      <rect
         class="cls-16"
         x="15.77"
         y="19.42"
         width="3.76"
         height="7.3400002"
         id="rect110"
         style="fill:#965b51;stroke-width:0px" />
      <rect
         class="cls-6"
         x="8.2399998"
         y="19.42"
         width="7.6599998"
         height="7.3400002"
         id="rect111"
         style="fill:#b2705f;stroke-width:0px" />
      <rect
         class="cls-18"
         x="4.6300001"
         y="0.38999999"
         width="2.53"
         height="1.59"
         id="rect112"
         style="opacity:0.3;isolation:isolate;mix-blend-mode:multiply;fill:#990036;stroke-width:0px" />
      <path
         class="cls-17"
         d="M 7.16,27.11 4.63,27.07 V 26.36 C 7.09,25.89 6.24,21.02 6.24,0.39 h 0.92 z"
         id="path112-5"
         style="opacity:0.2;mix-blend-mode:multiply;fill:#995300;stroke-width:0px" />
      <path
         class="cls-12"
         d="M 11.02,1.16 H 8.01 V 0 h 3.01 c 0.32,0 0.58,0.26 0.58,0.58 v 0 c 0,0.32 -0.26,0.58 -0.58,0.58 z"
         id="path113-4"
         style="fill:#93584e;stroke-width:0px" />
      <path
         class="cls-1"
         d="M 8.01,1.16 H 0.77 C 0.45,1.16 0.19,0.9 0.19,0.58 v 0 C 0.19,0.26 0.45,0 0.77,0 H 8.02 C 8.34,0 8.6,0.26 8.6,0.58 v 0 C 8.6,0.9 8.34,1.16 8.02,1.16 Z"
         id="path114-1"
         style="font-size:6px;font-family:Verdana-Bold, Verdana;fill:#a36457;stroke-width:0px" />
      <path
         class="cls-12"
         d="M 0.77,0.13 H 8.38 C 8.28,0.05 8.15,0 8.01,0 H 0.77 C 0.45,0 0.19,0.26 0.19,0.58 v 0 c 0,0 0,0.04 0,0.07 C 0.23,0.36 0.47,0.13 0.77,0.13 Z"
         id="path115-8"
         style="fill:#93584e;stroke-width:0px" />
      <rect
         class="cls-18"
         x="4.6300001"
         y="11.48"
         width="2.53"
         height="0.81999999"
         id="rect115"
         style="opacity:0.3;isolation:isolate;mix-blend-mode:multiply;fill:#990036;stroke-width:0px" />
      <path
         class="cls-12"
         d="M 19.48,11.63 H 15.9 v -1.16 h 3.58 c 0.32,0 0.58,0.26 0.58,0.58 v 0 c 0,0.32 -0.26,0.58 -0.58,0.58 z"
         id="path116-8"
         style="fill:#93584e;stroke-width:0px" />
      <path
         class="cls-1"
         d="M 15.9,11.63 H 0.79 c -0.32,0 -0.58,-0.26 -0.58,-0.58 v 0 c 0,-0.32 0.26,-0.58 0.58,-0.58 H 15.9 c 0.32,0 0.58,0.26 0.58,0.58 v 0 c 0,0.32 -0.26,0.58 -0.58,0.58 z"
         id="path117-3"
         style="font-size:6px;font-family:Verdana-Bold, Verdana;fill:#a36457;stroke-width:0px" />
      <path
         class="cls-12"
         d="m 0.79,10.6 h 15.47 c -0.1,-0.08 -0.23,-0.13 -0.37,-0.13 H 0.79 c -0.32,0 -0.58,0.26 -0.58,0.58 v 0 c 0,0 0,0.04 0,0.07 0.03,-0.29 0.28,-0.51 0.57,-0.51 z"
         id="path118-5"
         style="fill:#93584e;stroke-width:0px" />
      <rect
         class="cls-12"
         x="8.2399998"
         y="19.42"
         width="11.27"
         height="0.56999999"
         id="rect118"
         style="fill:#93584e;stroke-width:0px" />
      <rect
         class="cls-11"
         x="8.2399998"
         y="26.459999"
         width="11.27"
         height="0.17"
         id="rect119"
         style="fill:#7a443d;stroke-width:0px" />
      <path
         class="cls-11"
         d="M 19.48,19.53 H 15.9 v -1.16 h 3.58 c 0.32,0 0.58,0.26 0.58,0.58 v 0 c 0,0.32 -0.26,0.58 -0.58,0.58 z"
         id="path119-2"
         style="fill:#7a443d;stroke-width:0px" />
      <path
         class="cls-1"
         d="M 15.9,19.53 H 8.17 c -0.32,0 -0.58,-0.26 -0.58,-0.58 v 0 c 0,-0.32 0.26,-0.58 0.58,-0.58 h 7.73 c 0.32,0 0.58,0.26 0.58,0.58 v 0 c 0,0.32 -0.26,0.58 -0.58,0.58 z"
         id="path120-2"
         style="font-size:6px;font-family:Verdana-Bold, Verdana;fill:#a36457;stroke-width:0px" />
      <path
         class="cls-12"
         d="m 8.17,18.5 h 8.09 c -0.1,-0.08 -0.23,-0.13 -0.37,-0.13 H 8.16 c -0.32,0 -0.58,0.26 -0.58,0.58 v 0 c 0,0 0,0.04 0,0.07 0.03,-0.29 0.28,-0.51 0.57,-0.51 z"
         id="path121-6"
         style="fill:#93584e;stroke-width:0px" />
      <path
         class="cls-9"
         d="m 12.07,20.69 v 0 c -2.86,0 -2.52,2.64 -2.52,5.96 h 5.05 c 0,-3.44 0.33,-5.96 -2.52,-5.96 z"
         id="path122-6"
         style="fill:#7c4a43;stroke-width:0px" />
      <path
         class="cls-7"
         d="m 12.07,20.69 v 0 c -0.07,0 -0.14,0 -0.21,0 v 5.95 h 2.73 c 0,-3.44 0.33,-5.96 -2.52,-5.96 z"
         id="path123-7"
         style="fill:#663935;stroke-width:0px" />
      <path
         class="cls-5"
         d="m 12.56,21.7 c 0.7,-0.1 1.35,0 1.67,0.16 -0.34,-0.74 -0.97,-1.17 -2.15,-1.17 v 0 c -2.56,0 -2.56,2.1 -2.53,4.91 0.05,-2.14 0.92,-3.6 3.02,-3.9 z"
         id="path124-8"
         style="opacity:0.3;mix-blend-mode:multiply;fill:#493515;stroke-width:0px" />
      <path
         class="cls-12"
         d="m 12.07,20.53 v 0 c -2.86,0 -2.67,2.75 -2.67,6.12 H 9.8 C 9.79,22.81 9.55,20.82 12.12,20.82 v 0 c 2.56,0 2.33,2.14 2.32,5.83 h 0.3 c 0,-3.49 0.18,-6.12 -2.67,-6.12 z"
         id="path125-4"
         style="fill:#93584e;stroke-width:0px" />
      <path
         class="cls-12"
         d="M 9.8,26.65 C 9.79,22.82 9.55,20.82 12.12,20.82 v 0 c 2.56,0 2.33,2.14 2.32,5.83 h 0.3 c 0,-3.49 0.19,-6.11 -2.67,-6.11 v 0 c -2.86,0 -2.67,2.74 -2.67,6.11 z"
         id="path126-1"
         style="fill:#93584e;stroke-width:0px" />
      <path
         class="cls-12"
         d="M 9.8,26.65 C 9.79,22.82 9.55,20.83 12.12,20.83 v 0 c 2.56,0 2.33,2.13 2.32,5.82 h 0.29 c 0,-3.49 0.2,-6.1 -2.66,-6.1 v 0 c -2.86,0 -2.66,2.74 -2.66,6.1 z"
         id="path127-7"
         style="fill:#93584e;stroke-width:0px" />
      <path
         class="cls-12"
         d="M 9.8,26.65 C 9.79,22.82 9.55,20.83 12.12,20.83 v 0 c 2.56,0 2.33,2.13 2.32,5.82 h 0.28 c 0,-3.49 0.2,-6.1 -2.65,-6.1 v 0 c -2.86,0 -2.65,2.73 -2.65,6.1 z"
         id="path128-1"
         style="fill:#93584e;stroke-width:0px" />
      <path
         class="cls-12"
         d="M 9.8,26.65 C 9.79,22.82 9.55,20.83 12.12,20.83 v 0 c 2.56,0 2.33,2.13 2.32,5.82 h 0.28 c 0,-3.48 0.21,-6.09 -2.65,-6.09 v 0 c -2.86,0 -2.65,2.73 -2.65,6.09 z"
         id="path129"
         style="fill:#93584e;stroke-width:0px" />
      <path
         class="cls-12"
         d="M 9.8,26.65 C 9.79,22.83 9.55,20.84 12.12,20.84 v 0 c 2.56,0 2.33,2.13 2.32,5.81 h 0.27 c 0,-3.48 0.22,-6.08 -2.64,-6.08 v 0 c -2.86,0 -2.64,2.72 -2.64,6.08 z"
         id="path130"
         style="fill:#93584e;stroke-width:0px" />
      <path
         class="cls-12"
         d="M 9.8,26.65 C 9.79,22.83 9.55,20.84 12.12,20.84 v 0 c 2.56,0 2.33,2.13 2.32,5.81 h 0.26 c 0,-3.48 0.22,-6.07 -2.63,-6.07 v 0 c -2.86,0 -2.63,2.72 -2.63,6.07 z"
         id="path131"
         style="fill:#93584e;stroke-width:0px" />
      <path
         class="cls-12"
         d="m 9.8,26.65 c -0.01,-3.82 -0.25,-5.8 2.32,-5.8 v 0 c 2.56,0 2.33,2.13 2.32,5.8 h 0.25 c 0,-3.48 0.23,-6.07 -2.62,-6.07 v 0 c -2.86,0 -2.62,2.71 -2.62,6.07 z"
         id="path132"
         style="fill:#93584e;stroke-width:0px" />
      <path
         class="cls-12"
         d="m 9.8,26.65 c -0.01,-3.81 -0.25,-5.8 2.32,-5.8 v 0 c 2.56,0 2.33,2.13 2.32,5.8 h 0.25 c 0,-3.47 0.24,-6.06 -2.62,-6.06 v 0 c -2.86,0 -2.62,2.71 -2.62,6.06 z"
         id="path133"
         style="fill:#93584e;stroke-width:0px" />
      <path
         class="cls-12"
         d="M 9.8,26.65 C 9.79,22.84 9.55,20.86 12.12,20.86 v 0 c 2.56,0 2.33,2.12 2.32,5.79 h 0.24 c 0,-3.47 0.25,-6.05 -2.61,-6.05 v 0 c -2.86,0 -2.61,2.7 -2.61,6.05 z"
         id="path134"
         style="fill:#93584e;stroke-width:0px" />
      <path
         class="cls-12"
         d="M 9.8,26.65 C 9.79,22.84 9.55,20.86 12.12,20.86 v 0 c 2.56,0 2.33,2.12 2.32,5.79 h 0.23 c 0,-3.47 0.25,-6.04 -2.6,-6.04 v 0 c -2.86,0 -2.6,2.7 -2.6,6.04 z"
         id="path135"
         style="fill:#93584e;stroke-width:0px" />
      <path
         class="cls-12"
         d="M 9.8,26.65 C 9.79,22.84 9.55,20.86 12.12,20.86 v 0 c 2.56,0 2.33,2.12 2.32,5.79 h 0.22 c 0,-3.47 0.26,-6.04 -2.6,-6.04 v 0 c -2.86,0 -2.6,2.69 -2.6,6.04 h 0.32 z"
         id="path136"
         style="fill:#93584e;stroke-width:0px" />
      <path
         class="cls-12"
         d="m 9.8,26.65 c -0.01,-3.8 -0.25,-5.78 2.32,-5.78 v 0 c 2.56,0 2.33,2.12 2.32,5.78 h 0.22 c 0,-3.46 0.27,-6.03 -2.59,-6.03 v 0 c -2.86,0 -2.59,2.69 -2.59,6.03 z"
         id="path137"
         style="fill:#93584e;stroke-width:0px" />
      <path
         class="cls-12"
         d="m 9.8,26.65 c -0.01,-3.8 -0.25,-5.78 2.32,-5.78 v 0 c 2.56,0 2.33,2.12 2.32,5.78 h 0.21 c 0,-3.46 0.27,-6.02 -2.58,-6.02 v 0 c -2.86,0 -2.58,2.68 -2.58,6.02 z"
         id="path138"
         style="fill:#93584e;stroke-width:0px" />
      <path
         class="cls-12"
         d="m 9.8,26.65 c -0.01,-3.8 -0.25,-5.77 2.32,-5.77 v 0 c 2.56,0 2.33,2.12 2.32,5.77 h 0.2 c 0,-3.46 0.28,-6.01 -2.57,-6.01 v 0 c -2.86,0 -2.57,2.68 -2.57,6.01 z"
         id="path139"
         style="fill:#93584e;stroke-width:0px" />
      <path
         class="cls-12"
         d="m 9.8,26.65 c -0.01,-3.8 -0.25,-5.77 2.32,-5.77 v 0 c 2.56,0 2.33,2.11 2.32,5.77 h 0.2 c 0,-3.46 0.29,-6.01 -2.57,-6.01 v 0 c -2.86,0 -2.57,2.67 -2.57,6.01 z"
         id="path140-8"
         style="fill:#93584e;stroke-width:0px" />
      <path
         class="cls-12"
         d="M 9.8,26.65 C 9.79,22.86 9.55,20.88 12.12,20.88 v 0 c 2.56,0 2.33,2.11 2.32,5.77 h 0.19 c 0,-3.45 0.3,-6 -2.56,-6 v 0 c -2.86,0 -2.56,2.67 -2.56,6 z"
         id="path141-7"
         style="fill:#93584e;stroke-width:0px" />
      <path
         class="cls-12"
         d="M 9.8,26.65 C 9.79,22.86 9.55,20.89 12.12,20.89 v 0 c 2.56,0 2.33,2.11 2.32,5.76 h 0.18 c 0,-3.45 0.3,-5.99 -2.55,-5.99 v 0 c -2.86,0 -2.55,2.66 -2.55,5.99 z"
         id="path142-8"
         style="fill:#93584e;stroke-width:0px" />
      <path
         class="cls-12"
         d="M 9.8,26.65 C 9.79,22.86 9.55,20.89 12.12,20.89 v 0 c 2.56,0 2.33,2.11 2.32,5.76 h 0.17 c 0,-3.45 0.31,-5.98 -2.54,-5.98 v 0 c -2.86,0 -2.54,2.66 -2.54,5.98 z"
         id="path143-7"
         style="fill:#93584e;stroke-width:0px" />
      <path
         class="cls-12"
         d="M 9.8,26.65 C 9.79,22.87 9.55,20.9 12.12,20.9 v 0 c 2.56,0 2.33,2.11 2.32,5.75 h 0.17 c 0,-3.45 0.32,-5.98 -2.54,-5.98 v 0 c -2.86,0 -2.54,2.65 -2.54,5.98 z"
         id="path144-7"
         style="fill:#93584e;stroke-width:0px" />
      <path
         class="cls-12"
         d="M 9.8,26.65 C 9.79,22.87 9.55,20.9 12.12,20.9 v 0 c 2.56,0 2.33,2.11 2.32,5.75 h 0.16 c 0,-3.44 0.33,-5.97 -2.53,-5.97 v 0 c -2.86,0 -2.53,2.65 -2.53,5.97 z"
         id="path145-4"
         style="fill:#93584e;stroke-width:0px" />
      <path
         class="cls-12"
         d="m 12.07,20.69 v 0 c -2.86,0 -2.52,2.64 -2.52,5.96 H 9.8 C 9.79,22.87 9.55,20.91 12.12,20.91 v 0 c 2.56,0 2.33,2.11 2.32,5.74 h 0.15 c 0,-3.44 0.33,-5.96 -2.52,-5.96 z"
         id="path146-4"
         style="fill:#93584e;stroke-width:0px" />
      <g
         class="cls-20"
         id="g158"
         style="opacity:0.3;mix-blend-mode:multiply;fill:#d7a16f">
        <path
           class="cls-10"
           d="M 1.22,0.64 H 1 C 1,0.64 0.95,0.62 0.95,0.59 0.95,0.56 0.97,0.54 1,0.54 h 0.22 c 0,0 0.05,0.02 0.05,0.05 0,0.03 -0.02,0.05 -0.05,0.05 z"
           id="path147-9"
           style="fill:#9788a6;stroke-width:0px" />
        <path
           class="cls-10"
           d="M 1.95,0.99 H 1.22 c 0,0 -0.05,-0.02 -0.05,-0.05 0,-0.03 0.02,-0.05 0.05,-0.05 H 1.95 C 1.95,0.89 2,0.91 2,0.94 2,0.97 1.98,0.99 1.95,0.99 Z"
           id="path148-1"
           style="fill:#9788a6;stroke-width:0px" />
        <path
           class="cls-10"
           d="M 2.55,0.45 H 2.25 C 2.25,0.45 2.2,0.43 2.2,0.4 2.2,0.37 2.22,0.35 2.25,0.35 h 0.3 c 0,0 0.05,0.02 0.05,0.05 0,0.03 -0.02,0.05 -0.05,0.05 z"
           id="path149-5"
           style="fill:#9788a6;stroke-width:0px" />
        <path
           class="cls-10"
           d="M 3.35,0.75 H 3.08 c 0,0 -0.05,-0.02 -0.05,-0.05 0,-0.03 0.02,-0.05 0.05,-0.05 h 0.27 c 0,0 0.05,0.02 0.05,0.05 0,0.03 -0.02,0.05 -0.05,0.05 z"
           id="path150-5"
           style="fill:#9788a6;stroke-width:0px" />
        <path
           class="cls-10"
           d="M 6.05,0.55 H 5.15 C 5.15,0.55 5.1,0.53 5.1,0.5 5.1,0.47 5.12,0.45 5.15,0.45 h 0.9 c 0,0 0.05,0.02 0.05,0.05 0,0.03 -0.02,0.05 -0.05,0.05 z"
           id="path151-5"
           style="fill:#9788a6;stroke-width:0px" />
        <path
           class="cls-10"
           d="M 4.86,0.95 H 4.51 c 0,0 -0.05,-0.02 -0.05,-0.05 0,-0.03 0.02,-0.05 0.05,-0.05 h 0.35 c 0,0 0.05,0.02 0.05,0.05 0,0.03 -0.02,0.05 -0.05,0.05 z"
           id="path152-8"
           style="fill:#9788a6;stroke-width:0px" />
        <path
           class="cls-10"
           d="M 7.23,0.95 H 6.91 c 0,0 -0.05,-0.02 -0.05,-0.05 0,-0.03 0.02,-0.05 0.05,-0.05 h 0.32 c 0,0 0.05,0.02 0.05,0.05 0,0.03 -0.02,0.05 -0.05,0.05 z"
           id="path153-2"
           style="fill:#9788a6;stroke-width:0px" />
        <path
           class="cls-12"
           d="M 8.09,0.42 H 7.61 c 0,0 -0.05,-0.02 -0.05,-0.05 0,-0.03 0.02,-0.05 0.05,-0.05 h 0.48 c 0,0 0.05,0.02 0.05,0.05 0,0.03 -0.02,0.05 -0.05,0.05 z"
           id="path154-9"
           style="fill:#93584e;stroke-width:0px" />
        <path
           class="cls-10"
           d="M 9.24,0.85 H 9.01 c 0,0 -0.05,-0.02 -0.05,-0.05 0,-0.03 0.02,-0.05 0.05,-0.05 h 0.23 c 0,0 0.05,0.02 0.05,0.05 0,0.03 -0.02,0.05 -0.05,0.05 z"
           id="path155-8"
           style="fill:#9788a6;stroke-width:0px" />
        <path
           class="cls-10"
           d="M 9.91,0.54 H 9.36 c 0,0 -0.05,-0.02 -0.05,-0.05 0,-0.03 0.02,-0.05 0.05,-0.05 h 0.55 c 0,0 0.05,0.02 0.05,0.05 0,0.03 -0.02,0.05 -0.05,0.05 z"
           id="path156-2"
           style="fill:#9788a6;stroke-width:0px" />
        <path
           class="cls-10"
           d="m 10.96,0.97 h -0.62 c 0,0 -0.05,-0.02 -0.05,-0.05 0,-0.03 0.02,-0.05 0.05,-0.05 h 0.62 c 0,0 0.05,0.02 0.05,0.05 0,0.03 -0.02,0.05 -0.05,0.05 z"
           id="path157-0"
           style="fill:#9788a6;stroke-width:0px" />
        <path
           class="cls-10"
           d="m 11.06,0.32 h -0.28 c 0,0 -0.05,-0.02 -0.05,-0.05 0,-0.03 0.02,-0.05 0.05,-0.05 h 0.28 c 0,0 0.05,0.02 0.05,0.05 0,0.03 -0.02,0.05 -0.05,0.05 z"
           id="path158-7"
           style="fill:#9788a6;stroke-width:0px" />
      </g>
      <g
         class="cls-20"
         id="g178"
         style="opacity:0.3;mix-blend-mode:multiply;fill:#d7a16f">
        <path
           class="cls-10"
           d="m 1.29,11 h -0.4 c 0,0 -0.05,-0.02 -0.05,-0.05 0,-0.03 0.02,-0.05 0.05,-0.05 h 0.4 c 0,0 0.05,0.02 0.05,0.05 0,0.03 -0.02,0.05 -0.05,0.05 z"
           id="path159-4"
           style="fill:#9788a6;stroke-width:0px" />
        <path
           class="cls-10"
           d="M 1.99,11.38 H 1.27 c 0,0 -0.05,-0.02 -0.05,-0.05 0,-0.03 0.02,-0.05 0.05,-0.05 h 0.72 c 0,0 0.05,0.02 0.05,0.05 0,0.03 -0.02,0.05 -0.05,0.05 z"
           id="path160-8"
           style="fill:#9788a6;stroke-width:0px" />
        <path
           class="cls-10"
           d="M 2.97,11.08 H 2.69 c 0,0 -0.05,-0.02 -0.05,-0.05 0,-0.03 0.02,-0.05 0.05,-0.05 h 0.28 c 0,0 0.05,0.02 0.05,0.05 0,0.03 -0.02,0.05 -0.05,0.05 z"
           id="path161-5"
           style="fill:#9788a6;stroke-width:0px" />
        <path
           class="cls-10"
           d="m 4.94,10.88 h -0.9 c 0,0 -0.05,-0.02 -0.05,-0.05 0,-0.03 0.02,-0.05 0.05,-0.05 h 0.9 c 0,0 0.05,0.02 0.05,0.05 0,0.03 -0.02,0.05 -0.05,0.05 z"
           id="path162-8"
           style="fill:#9788a6;stroke-width:0px" />
        <path
           class="cls-10"
           d="M 7.21,11.33 H 6.59 c 0,0 -0.05,-0.02 -0.05,-0.05 0,-0.03 0.02,-0.05 0.05,-0.05 h 0.62 c 0,0 0.05,0.02 0.05,0.05 0,0.03 -0.02,0.05 -0.05,0.05 z"
           id="path163-3"
           style="fill:#9788a6;stroke-width:0px" />
        <path
           class="cls-10"
           d="M 8.01,10.95 H 7.66 c 0,0 -0.05,-0.02 -0.05,-0.05 0,-0.03 0.02,-0.05 0.05,-0.05 h 0.35 c 0,0 0.05,0.02 0.05,0.05 0,0.03 -0.02,0.05 -0.05,0.05 z"
           id="path164-0"
           style="fill:#9788a6;stroke-width:0px" />
        <path
           class="cls-10"
           d="m 9.86,11.3 h -1.1 c 0,0 -0.05,-0.02 -0.05,-0.05 0,-0.03 0.02,-0.05 0.05,-0.05 h 1.1 c 0,0 0.05,0.02 0.05,0.05 0,0.03 -0.02,0.05 -0.05,0.05 z"
           id="path165-6"
           style="fill:#9788a6;stroke-width:0px" />
        <path
           class="cls-10"
           d="m 10.08,11 h -0.4 c 0,0 -0.05,-0.02 -0.05,-0.05 0,-0.03 0.02,-0.05 0.05,-0.05 h 0.4 c 0,0 0.05,0.02 0.05,0.05 0,0.03 -0.02,0.05 -0.05,0.05 z"
           id="path166-2"
           style="fill:#9788a6;stroke-width:0px" />
        <path
           class="cls-10"
           d="m 11.83,11.03 h -0.45 c 0,0 -0.05,-0.02 -0.05,-0.05 0,-0.03 0.02,-0.05 0.05,-0.05 h 0.45 c 0,0 0.05,0.02 0.05,0.05 0,0.03 -0.02,0.05 -0.05,0.05 z"
           id="path167-2"
           style="fill:#9788a6;stroke-width:0px" />
        <path
           class="cls-10"
           d="m 12.7,11.35 h -0.57 c 0,0 -0.05,-0.02 -0.05,-0.05 0,-0.03 0.02,-0.05 0.05,-0.05 h 0.57 c 0,0 0.05,0.02 0.05,0.05 0,0.03 -0.02,0.05 -0.05,0.05 z"
           id="path168-5"
           style="fill:#9788a6;stroke-width:0px" />
        <path
           class="cls-10"
           d="m 13.83,11 h -0.2 c 0,0 -0.05,-0.02 -0.05,-0.05 0,-0.03 0.02,-0.05 0.05,-0.05 h 0.2 c 0,0 0.05,0.02 0.05,0.05 0,0.03 -0.02,0.05 -0.05,0.05 z"
           id="path169-2"
           style="fill:#9788a6;stroke-width:0px" />
        <path
           class="cls-10"
           d="m 15.25,11.4 h -0.72 c 0,0 -0.05,-0.02 -0.05,-0.05 0,-0.03 0.02,-0.05 0.05,-0.05 h 0.72 c 0,0 0.05,0.02 0.05,0.05 0,0.03 -0.02,0.05 -0.05,0.05 z"
           id="path170-2"
           style="fill:#9788a6;stroke-width:0px" />
        <path
           class="cls-10"
           d="m 15.78,11.1 h -0.32 c 0,0 -0.05,-0.02 -0.05,-0.05 0,-0.03 0.02,-0.05 0.05,-0.05 h 0.32 c 0,0 0.05,0.02 0.05,0.05 0,0.03 -0.02,0.05 -0.05,0.05 z"
           id="path171-7"
           style="fill:#9788a6;stroke-width:0px" />
        <path
           class="cls-10"
           d="M 17.75,11 H 17.4 c 0,0 -0.05,-0.02 -0.05,-0.05 0,-0.03 0.02,-0.05 0.05,-0.05 h 0.35 c 0,0 0.05,0.02 0.05,0.05 0,0.03 -0.02,0.05 -0.05,0.05 z"
           id="path172-1"
           style="fill:#9788a6;stroke-width:0px" />
        <path
           class="cls-10"
           d="M 19.05,11.15 H 18.6 c 0,0 -0.05,-0.02 -0.05,-0.05 0,-0.03 0.02,-0.05 0.05,-0.05 h 0.45 c 0,0 0.05,0.02 0.05,0.05 0,0.03 -0.02,0.05 -0.05,0.05 z"
           id="path173-5"
           style="fill:#9788a6;stroke-width:0px" />
        <path
           class="cls-10"
           d="m 19.47,11.4 h -0.23 c 0,0 -0.05,-0.02 -0.05,-0.05 0,-0.03 0.02,-0.05 0.05,-0.05 h 0.23 c 0,0 0.05,0.02 0.05,0.05 0,0.03 -0.02,0.05 -0.05,0.05 z"
           id="path174-2"
           style="fill:#9788a6;stroke-width:0px" />
        <path
           class="cls-10"
           d="m 19.57,10.83 h -0.22 c 0,0 -0.05,-0.02 -0.05,-0.05 0,-0.03 0.02,-0.05 0.05,-0.05 h 0.22 c 0,0 0.05,0.02 0.05,0.05 0,0.03 -0.02,0.05 -0.05,0.05 z"
           id="path175-1"
           style="fill:#9788a6;stroke-width:0px" />
        <path
           class="cls-10"
           d="M 6.11,11.08 H 5.78 c 0,0 -0.05,-0.02 -0.05,-0.05 0,-0.03 0.02,-0.05 0.05,-0.05 h 0.33 c 0,0 0.05,0.02 0.05,0.05 0,0.03 -0.02,0.05 -0.05,0.05 z"
           id="path176-1"
           style="fill:#9788a6;stroke-width:0px" />
        <path
           class="cls-10"
           d="m 17.42,11.43 h -0.6 c 0,0 -0.05,-0.02 -0.05,-0.05 0,-0.03 0.02,-0.05 0.05,-0.05 h 0.6 c 0,0 0.05,0.02 0.05,0.05 0,0.03 -0.02,0.05 -0.05,0.05 z"
           id="path177-0"
           style="fill:#9788a6;stroke-width:0px" />
        <path
           class="cls-10"
           d="M 4.86,11.43 H 4.59 c 0,0 -0.05,-0.02 -0.05,-0.05 0,-0.03 0.02,-0.05 0.05,-0.05 h 0.27 c 0,0 0.05,0.02 0.05,0.05 0,0.03 -0.02,0.05 -0.05,0.05 z"
           id="path178-1"
           style="fill:#9788a6;stroke-width:0px" />
      </g>
      <g
         class="cls-20"
         id="g190"
         style="opacity:0.3;mix-blend-mode:multiply;fill:#d7a16f">
        <path
           class="cls-10"
           d="M 8.78,19.17 H 8.06 c 0,0 -0.05,-0.02 -0.05,-0.05 0,-0.03 0.02,-0.05 0.05,-0.05 h 0.72 c 0,0 0.05,0.02 0.05,0.05 0,0.03 -0.02,0.05 -0.05,0.05 z"
           id="path179-8"
           style="fill:#9788a6;stroke-width:0px" />
        <path
           class="cls-10"
           d="m 9.18,18.87 h -0.3 c 0,0 -0.05,-0.02 -0.05,-0.05 0,-0.03 0.02,-0.05 0.05,-0.05 h 0.3 c 0,0 0.05,0.02 0.05,0.05 0,0.03 -0.02,0.05 -0.05,0.05 z"
           id="path180-7"
           style="fill:#9788a6;stroke-width:0px" />
        <path
           class="cls-10"
           d="m 10.66,19.27 h -0.7 c 0,0 -0.05,-0.02 -0.05,-0.05 0,-0.03 0.02,-0.05 0.05,-0.05 h 0.7 c 0,0 0.05,0.02 0.05,0.05 0,0.03 -0.02,0.05 -0.05,0.05 z"
           id="path181-6"
           style="fill:#9788a6;stroke-width:0px" />
        <path
           class="cls-10"
           d="m 11.61,18.97 h -0.3 c 0,0 -0.05,-0.02 -0.05,-0.05 0,-0.03 0.02,-0.05 0.05,-0.05 h 0.3 c 0,0 0.05,0.02 0.05,0.05 0,0.03 -0.02,0.05 -0.05,0.05 z"
           id="path182-0"
           style="fill:#9788a6;stroke-width:0px" />
        <path
           class="cls-10"
           d="m 13.3,19.34 h -0.67 c 0,0 -0.05,-0.02 -0.05,-0.05 0,-0.03 0.02,-0.05 0.05,-0.05 h 0.67 c 0,0 0.05,0.02 0.05,0.05 0,0.03 -0.02,0.05 -0.05,0.05 z"
           id="path183-0"
           style="fill:#9788a6;stroke-width:0px" />
        <path
           class="cls-10"
           d="m 14.13,18.92 h -0.38 c 0,0 -0.05,-0.02 -0.05,-0.05 0,-0.03 0.02,-0.05 0.05,-0.05 h 0.38 c 0,0 0.05,0.02 0.05,0.05 0,0.03 -0.02,0.05 -0.05,0.05 z"
           id="path184-9"
           style="fill:#9788a6;stroke-width:0px" />
        <path
           class="cls-10"
           d="m 15.63,19.29 h -0.57 c 0,0 -0.05,-0.02 -0.05,-0.05 0,-0.03 0.02,-0.05 0.05,-0.05 h 0.57 c 0,0 0.05,0.02 0.05,0.05 0,0.03 -0.02,0.05 -0.05,0.05 z"
           id="path185"
           style="fill:#9788a6;stroke-width:0px" />
        <path
           class="cls-10"
           d="m 17.22,18.72 h -0.48 c 0,0 -0.05,-0.02 -0.05,-0.05 0,-0.03 0.02,-0.05 0.05,-0.05 h 0.48 c 0,0 0.05,0.02 0.05,0.05 0,0.03 -0.02,0.05 -0.05,0.05 z"
           id="path186"
           style="fill:#9788a6;stroke-width:0px" />
        <path
           class="cls-10"
           d="M 17.55,19.17 H 17.3 c 0,0 -0.05,-0.02 -0.05,-0.05 0,-0.03 0.02,-0.05 0.05,-0.05 h 0.25 c 0,0 0.05,0.02 0.05,0.05 0,0.03 -0.02,0.05 -0.05,0.05 z"
           id="path187"
           style="fill:#9788a6;stroke-width:0px" />
        <path
           class="cls-10"
           d="m 19.1,19.37 h -0.65 c 0,0 -0.05,-0.02 -0.05,-0.05 0,-0.03 0.02,-0.05 0.05,-0.05 h 0.65 c 0,0 0.05,0.02 0.05,0.05 0,0.03 -0.02,0.05 -0.05,0.05 z"
           id="path188"
           style="fill:#9788a6;stroke-width:0px" />
        <path
           class="cls-10"
           d="m 19.47,18.89 h -0.4 c 0,0 -0.05,-0.02 -0.05,-0.05 0,-0.03 0.02,-0.05 0.05,-0.05 h 0.4 c 0,0 0.05,0.02 0.05,0.05 0,0.03 -0.02,0.05 -0.05,0.05 z"
           id="path189"
           style="fill:#9788a6;stroke-width:0px" />
        <path
           class="cls-10"
           d="m 15.93,18.84 h -0.3 c 0,0 -0.05,-0.02 -0.05,-0.05 0,-0.03 0.02,-0.05 0.05,-0.05 h 0.3 c 0,0 0.05,0.02 0.05,0.05 0,0.03 -0.02,0.05 -0.05,0.05 z"
           id="path190"
           style="fill:#9788a6;stroke-width:0px" />
      </g>
      <g
         class="cls-20"
         id="g220"
         style="opacity:0.3;mix-blend-mode:multiply;fill:#d7a16f">
        <path
           class="cls-10"
           d="M 9.62,20.52 H 8.8 c 0,0 -0.05,-0.02 -0.05,-0.05 0,-0.03 0.02,-0.05 0.05,-0.05 h 0.82 c 0,0 0.05,0.02 0.05,0.05 0,0.03 -0.02,0.05 -0.05,0.05 z"
           id="path191"
           style="fill:#9788a6;stroke-width:0px" />
        <path
           class="cls-10"
           d="M 9.86,21.02 H 9.59 c 0,0 -0.05,-0.02 -0.05,-0.05 0,-0.03 0.02,-0.05 0.05,-0.05 h 0.27 c 0,0 0.05,0.02 0.05,0.05 0,0.03 -0.02,0.05 -0.05,0.05 z"
           id="path192"
           style="fill:#9788a6;stroke-width:0px" />
        <path
           class="cls-10"
           d="m 12.5,20.33 h -0.74 c 0,0 -0.05,-0.02 -0.05,-0.05 0,-0.03 0.02,-0.05 0.05,-0.05 h 0.74 c 0,0 0.05,0.02 0.05,0.05 0,0.03 -0.02,0.05 -0.05,0.05 z"
           id="path193"
           style="fill:#9788a6;stroke-width:0px" />
        <path
           class="cls-10"
           d="m 13.74,20.62 h -0.27 c 0,0 -0.05,-0.02 -0.05,-0.05 0,-0.03 0.02,-0.05 0.05,-0.05 h 0.27 c 0,0 0.05,0.02 0.05,0.05 0,0.03 -0.02,0.05 -0.05,0.05 z"
           id="path194"
           style="fill:#9788a6;stroke-width:0px" />
        <path
           class="cls-10"
           d="M 15.17,20.3 H 14.5 c 0,0 -0.05,-0.02 -0.05,-0.05 0,-0.03 0.02,-0.05 0.05,-0.05 h 0.67 c 0,0 0.05,0.02 0.05,0.05 0,0.03 -0.02,0.05 -0.05,0.05 z"
           id="path195"
           style="fill:#9788a6;stroke-width:0px" />
        <path
           class="cls-10"
           d="m 15.37,21.2 h -0.28 c 0,0 -0.05,-0.02 -0.05,-0.05 0,-0.03 0.02,-0.05 0.05,-0.05 h 0.28 c 0,0 0.05,0.02 0.05,0.05 0,0.03 -0.02,0.05 -0.05,0.05 z"
           id="path196"
           style="fill:#9788a6;stroke-width:0px" />
        <path
           class="cls-10"
           d="m 15.19,22.13 h -0.48 c 0,0 -0.05,-0.02 -0.05,-0.05 0,-0.03 0.02,-0.05 0.05,-0.05 h 0.48 c 0,0 0.05,0.02 0.05,0.05 0,0.03 -0.02,0.05 -0.05,0.05 z"
           id="path197"
           style="fill:#9788a6;stroke-width:0px" />
        <path
           class="cls-10"
           d="m 15.49,22.48 h -0.2 c 0,0 -0.05,-0.02 -0.05,-0.05 0,-0.03 0.02,-0.05 0.05,-0.05 h 0.2 c 0,0 0.05,0.02 0.05,0.05 0,0.03 -0.02,0.05 -0.05,0.05 z"
           id="path198"
           style="fill:#9788a6;stroke-width:0px" />
        <path
           class="cls-10"
           d="m 15.58,23.98 h -0.53 c 0,0 -0.05,-0.02 -0.05,-0.05 0,-0.03 0.02,-0.05 0.05,-0.05 h 0.53 c 0,0 0.05,0.02 0.05,0.05 0,0.03 -0.02,0.05 -0.05,0.05 z"
           id="path199"
           style="fill:#9788a6;stroke-width:0px" />
        <path
           class="cls-10"
           d="m 15.17,24.58 h -0.2 c 0,0 -0.05,-0.02 -0.05,-0.05 0,-0.03 0.02,-0.05 0.05,-0.05 h 0.2 c 0,0 0.05,0.02 0.05,0.05 0,0.03 -0.02,0.05 -0.05,0.05 z"
           id="path200"
           style="fill:#9788a6;stroke-width:0px" />
        <path
           class="cls-10"
           d="m 15.59,25.64 h -0.5 c 0,0 -0.05,-0.02 -0.05,-0.05 0,-0.03 0.02,-0.05 0.05,-0.05 h 0.5 c 0,0 0.05,0.02 0.05,0.05 0,0.03 -0.02,0.05 -0.05,0.05 z"
           id="path201"
           style="fill:#9788a6;stroke-width:0px" />
        <path
           class="cls-10"
           d="m 15.08,26.18 h -0.23 c 0,0 -0.05,-0.02 -0.05,-0.05 0,-0.03 0.02,-0.05 0.05,-0.05 h 0.23 c 0,0 0.05,0.02 0.05,0.05 0,0.03 -0.02,0.05 -0.05,0.05 z"
           id="path202"
           style="fill:#9788a6;stroke-width:0px" />
        <path
           class="cls-10"
           d="m 8.88,26.16 h -0.3 c 0,0 -0.05,-0.02 -0.05,-0.05 0,-0.03 0.02,-0.05 0.05,-0.05 h 0.3 c 0,0 0.05,0.02 0.05,0.05 0,0.03 -0.02,0.05 -0.05,0.05 z"
           id="path203"
           style="fill:#9788a6;stroke-width:0px" />
        <path
           class="cls-10"
           d="M 9.21,25.44 H 8.73 c 0,0 -0.05,-0.02 -0.05,-0.05 0,-0.03 0.02,-0.05 0.05,-0.05 h 0.48 c 0,0 0.05,0.02 0.05,0.05 0,0.03 -0.02,0.05 -0.05,0.05 z"
           id="path204"
           style="fill:#9788a6;stroke-width:0px" />
        <path
           class="cls-10"
           d="M 8.76,24.21 H 8.49 c 0,0 -0.05,-0.02 -0.05,-0.05 0,-0.03 0.02,-0.05 0.05,-0.05 h 0.27 c 0,0 0.05,0.02 0.05,0.05 0,0.03 -0.02,0.05 -0.05,0.05 z"
           id="path205"
           style="fill:#9788a6;stroke-width:0px" />
        <path
           class="cls-10"
           d="M 9.09,23.51 H 8.74 c 0,0 -0.05,-0.02 -0.05,-0.05 0,-0.03 0.02,-0.05 0.05,-0.05 h 0.35 c 0,0 0.05,0.02 0.05,0.05 0,0.03 -0.02,0.05 -0.05,0.05 z"
           id="path206"
           style="fill:#9788a6;stroke-width:0px" />
        <path
           class="cls-10"
           d="M 8.93,22 H 8.55 c 0,0 -0.05,-0.02 -0.05,-0.05 0,-0.03 0.02,-0.05 0.05,-0.05 h 0.38 c 0,0 0.05,0.02 0.05,0.05 0,0.03 -0.02,0.05 -0.05,0.05 z"
           id="path207"
           style="fill:#9788a6;stroke-width:0px" />
        <path
           class="cls-10"
           d="m 16.8,25.99 h -0.4 c 0,0 -0.05,-0.02 -0.05,-0.05 0,-0.03 0.02,-0.05 0.05,-0.05 h 0.4 c 0,0 0.05,0.02 0.05,0.05 0,0.03 -0.02,0.05 -0.05,0.05 z"
           id="path208"
           style="fill:#9788a6;stroke-width:0px" />
        <path
           class="cls-10"
           d="m 17.08,25.48 h -0.22 c 0,0 -0.05,-0.02 -0.05,-0.05 0,-0.03 0.02,-0.05 0.05,-0.05 h 0.22 c 0,0 0.05,0.02 0.05,0.05 0,0.03 -0.02,0.05 -0.05,0.05 z"
           id="path209"
           style="fill:#9788a6;stroke-width:0px" />
        <path
           class="cls-11"
           d="M 18.33,26.19 H 17.8 c 0,0 -0.05,-0.02 -0.05,-0.05 0,-0.03 0.02,-0.05 0.05,-0.05 h 0.53 c 0,0 0.05,0.02 0.05,0.05 0,0.03 -0.02,0.05 -0.05,0.05 z"
           id="path210"
           style="fill:#7a443d;stroke-width:0px" />
        <path
           class="cls-10"
           d="m 18.86,25.64 h -0.35 c 0,0 -0.05,-0.02 -0.05,-0.05 0,-0.03 0.02,-0.05 0.05,-0.05 h 0.35 c 0,0 0.05,0.02 0.05,0.05 0,0.03 -0.02,0.05 -0.05,0.05 z"
           id="path211"
           style="fill:#9788a6;stroke-width:0px" />
        <path
           class="cls-10"
           d="M 18.93,24.63 H 18 c 0,0 -0.05,-0.02 -0.05,-0.05 0,-0.03 0.02,-0.05 0.05,-0.05 h 0.93 c 0,0 0.05,0.02 0.05,0.05 0,0.03 -0.02,0.05 -0.05,0.05 z"
           id="path212"
           style="fill:#9788a6;stroke-width:0px" />
        <path
           class="cls-10"
           d="m 19.13,24.08 h -0.3 c 0,0 -0.05,-0.02 -0.05,-0.05 0,-0.03 0.02,-0.05 0.05,-0.05 h 0.3 c 0,0 0.05,0.02 0.05,0.05 0,0.03 -0.02,0.05 -0.05,0.05 z"
           id="path213"
           style="fill:#9788a6;stroke-width:0px" />
        <path
           class="cls-10"
           d="m 17.67,23.86 h -0.85 c 0,0 -0.05,-0.02 -0.05,-0.05 0,-0.03 0.02,-0.05 0.05,-0.05 h 0.85 c 0,0 0.05,0.02 0.05,0.05 0,0.03 -0.02,0.05 -0.05,0.05 z"
           id="path214"
           style="fill:#9788a6;stroke-width:0px" />
        <path
           class="cls-10"
           d="M 16.87,23.51 H 16.5 c 0,0 -0.05,-0.02 -0.05,-0.05 0,-0.03 0.02,-0.05 0.05,-0.05 h 0.37 c 0,0 0.05,0.02 0.05,0.05 0,0.03 -0.02,0.05 -0.05,0.05 z"
           id="path215"
           style="fill:#9788a6;stroke-width:0px" />
        <path
           class="cls-10"
           d="m 18.51,22.7 h -0.4 c 0,0 -0.05,-0.02 -0.05,-0.05 0,-0.03 0.02,-0.05 0.05,-0.05 h 0.4 c 0,0 0.05,0.02 0.05,0.05 0,0.03 -0.02,0.05 -0.05,0.05 z"
           id="path216"
           style="fill:#9788a6;stroke-width:0px" />
        <path
           class="cls-10"
           d="m 18.91,22.06 h -0.28 c 0,0 -0.05,-0.02 -0.05,-0.05 0,-0.03 0.02,-0.05 0.05,-0.05 h 0.28 c 0,0 0.05,0.02 0.05,0.05 0,0.03 -0.02,0.05 -0.05,0.05 z"
           id="path217"
           style="fill:#9788a6;stroke-width:0px" />
        <path
           class="cls-10"
           d="m 17.19,21.73 h -0.54 c 0,0 -0.05,-0.02 -0.05,-0.05 0,-0.03 0.02,-0.05 0.05,-0.05 h 0.54 c 0,0 0.05,0.02 0.05,0.05 0,0.03 -0.02,0.05 -0.05,0.05 z"
           id="path218"
           style="fill:#9788a6;stroke-width:0px" />
        <path
           class="cls-10"
           d="m 17.4,21.25 h -0.23 c 0,0 -0.05,-0.02 -0.05,-0.05 0,-0.03 0.02,-0.05 0.05,-0.05 h 0.23 c 0,0 0.05,0.02 0.05,0.05 0,0.03 -0.02,0.05 -0.05,0.05 z"
           id="path219"
           style="fill:#9788a6;stroke-width:0px" />
        <path
           class="cls-10"
           d="m 18.8,20.52 h -0.82 c 0,0 -0.05,-0.02 -0.05,-0.05 0,-0.03 0.02,-0.05 0.05,-0.05 h 0.82 c 0,0 0.05,0.02 0.05,0.05 0,0.03 -0.02,0.05 -0.05,0.05 z"
           id="path220"
           style="fill:#9788a6;stroke-width:0px" />
      </g>
      <path
         class="cls-11"
         d="m 19.85,27.87 h -3.97 v -1.22 h 3.97 c 0.34,0 0.61,0.27 0.61,0.61 v 0 c 0,0.34 -0.27,0.61 -0.61,0.61 z"
         id="path221"
         style="fill:#7a443d;stroke-width:0px" />
      <path
         class="cls-1"
         d="M 15.9,27.87 H 0.61 C 0.27,27.87 0,27.6 0,27.26 v 0 C 0,26.92 0.27,26.65 0.61,26.65 H 15.9 c 0.34,0 0.61,0.27 0.61,0.61 v 0 c 0,0.34 -0.27,0.61 -0.61,0.61 z"
         id="path222"
         style="font-size:6px;font-family:Verdana-Bold, Verdana;fill:#a36457;stroke-width:0px" />
      <path
         class="cls-11"
         d="m 0.02,27.4 c 0,-0.34 0.27,-0.61 0.61,-0.61 H 16.28 C 16.18,26.71 16.04,26.65 15.9,26.65 H 0.61 C 0.27,26.65 0,26.92 0,27.26 c 0,0.06 0.01,0.12 0.03,0.18 0,-0.01 0,-0.03 0,-0.04 z"
         id="path223"
         style="fill:#7a443d;stroke-width:0px" />
      <g
         class="cls-20"
         id="g245"
         style="opacity:0.3;mix-blend-mode:multiply;fill:#d7a16f">
        <path
           class="cls-10"
           d="m 19.57,27.21 h -0.4 c 0,0 -0.05,-0.02 -0.05,-0.05 0,-0.03 0.02,-0.05 0.05,-0.05 h 0.4 c 0,0 0.05,0.02 0.05,0.05 0,0.03 -0.02,0.05 -0.05,0.05 z"
           id="path224"
           style="fill:#9788a6;stroke-width:0px" />
        <path
           class="cls-10"
           d="m 19.2,27.58 h -0.72 c 0,0 -0.05,-0.02 -0.05,-0.05 0,-0.03 0.02,-0.05 0.05,-0.05 h 0.72 c 0,0 0.05,0.02 0.05,0.05 0,0.03 -0.02,0.05 -0.05,0.05 z"
           id="path225"
           style="fill:#9788a6;stroke-width:0px" />
        <path
           class="cls-10"
           d="m 17.77,27.28 h -0.28 c 0,0 -0.05,-0.02 -0.05,-0.05 0,-0.03 0.02,-0.05 0.05,-0.05 h 0.28 c 0,0 0.05,0.02 0.05,0.05 0,0.03 -0.02,0.05 -0.05,0.05 z"
           id="path226"
           style="fill:#9788a6;stroke-width:0px" />
        <path
           class="cls-10"
           d="m 16.26,27.45 h -0.9 c 0,0 -0.05,-0.02 -0.05,-0.05 0,-0.03 0.02,-0.05 0.05,-0.05 h 0.9 c 0,0 0.05,0.02 0.05,0.05 0,0.03 -0.02,0.05 -0.05,0.05 z"
           id="path227"
           style="fill:#9788a6;stroke-width:0px" />
        <path
           class="cls-10"
           d="m 13.88,27.53 h -0.62 c 0,0 -0.05,-0.02 -0.05,-0.05 0,-0.03 0.02,-0.05 0.05,-0.05 h 0.62 c 0,0 0.05,0.02 0.05,0.05 0,0.03 -0.02,0.05 -0.05,0.05 z"
           id="path228"
           style="fill:#9788a6;stroke-width:0px" />
        <path
           class="cls-10"
           d="m 12.8,27.16 h -0.35 c 0,0 -0.05,-0.02 -0.05,-0.05 0,-0.03 0.02,-0.05 0.05,-0.05 h 0.35 c 0,0 0.05,0.02 0.05,0.05 0,0.03 -0.02,0.05 -0.05,0.05 z"
           id="path229"
           style="fill:#9788a6;stroke-width:0px" />
        <path
           class="cls-10"
           d="m 11.71,27.51 h -1.1 c 0,0 -0.05,-0.02 -0.05,-0.05 0,-0.03 0.02,-0.05 0.05,-0.05 h 1.1 c 0,0 0.05,0.02 0.05,0.05 0,0.03 -0.02,0.05 -0.05,0.05 z"
           id="path230"
           style="fill:#9788a6;stroke-width:0px" />
        <path
           class="cls-10"
           d="m 10.78,27.21 h -0.4 c 0,0 -0.05,-0.02 -0.05,-0.05 0,-0.03 0.02,-0.05 0.05,-0.05 h 0.4 c 0,0 0.05,0.02 0.05,0.05 0,0.03 -0.02,0.05 -0.05,0.05 z"
           id="path231"
           style="fill:#9788a6;stroke-width:0px" />
        <path
           class="cls-10"
           d="M 9.08,27.23 H 8.63 c 0,0 -0.05,-0.02 -0.05,-0.05 0,-0.03 0.02,-0.05 0.05,-0.05 h 0.45 c 0,0 0.05,0.02 0.05,0.05 0,0.03 -0.02,0.05 -0.05,0.05 z"
           id="path232"
           style="fill:#9788a6;stroke-width:0px" />
        <path
           class="cls-10"
           d="M 8.33,27.56 H 7.76 c 0,0 -0.05,-0.02 -0.05,-0.05 0,-0.03 0.02,-0.05 0.05,-0.05 h 0.57 c 0,0 0.05,0.02 0.05,0.05 0,0.03 -0.02,0.05 -0.05,0.05 z"
           id="path233"
           style="fill:#9788a6;stroke-width:0px" />
        <path
           class="cls-10"
           d="m 6.84,27.21 h -0.2 c 0,0 -0.05,-0.02 -0.05,-0.05 0,-0.03 0.02,-0.05 0.05,-0.05 h 0.2 c 0,0 0.05,0.02 0.05,0.05 0,0.03 -0.02,0.05 -0.05,0.05 z"
           id="path234"
           style="fill:#9788a6;stroke-width:0px" />
        <path
           class="cls-10"
           d="M 5.94,27.61 H 5.22 c 0,0 -0.05,-0.02 -0.05,-0.05 0,-0.03 0.02,-0.05 0.05,-0.05 h 0.72 c 0,0 0.05,0.02 0.05,0.05 0,0.03 -0.02,0.05 -0.05,0.05 z"
           id="path235"
           style="fill:#9788a6;stroke-width:0px" />
        <path
           class="cls-10"
           d="M 5.01,27.31 H 4.69 c 0,0 -0.05,-0.02 -0.05,-0.05 0,-0.03 0.02,-0.05 0.05,-0.05 h 0.32 c 0,0 0.05,0.02 0.05,0.05 0,0.03 -0.02,0.05 -0.05,0.05 z"
           id="path236"
           style="fill:#9788a6;stroke-width:0px" />
        <path
           class="cls-10"
           d="M 3.06,27.21 H 2.71 c 0,0 -0.05,-0.02 -0.05,-0.05 0,-0.03 0.02,-0.05 0.05,-0.05 h 0.35 c 0,0 0.05,0.02 0.05,0.05 0,0.03 -0.02,0.05 -0.05,0.05 z"
           id="path237"
           style="fill:#9788a6;stroke-width:0px" />
        <path
           class="cls-10"
           d="M 1.87,27.36 H 1.42 c 0,0 -0.05,-0.02 -0.05,-0.05 0,-0.03 0.02,-0.05 0.05,-0.05 h 0.45 c 0,0 0.05,0.02 0.05,0.05 0,0.03 -0.02,0.05 -0.05,0.05 z"
           id="path238"
           style="fill:#9788a6;stroke-width:0px" />
        <path
           class="cls-10"
           d="M 1.22,27.61 H 0.99 c 0,0 -0.05,-0.02 -0.05,-0.05 0,-0.03 0.02,-0.05 0.05,-0.05 h 0.23 c 0,0 0.05,0.02 0.05,0.05 0,0.03 -0.02,0.05 -0.05,0.05 z"
           id="path239"
           style="fill:#9788a6;stroke-width:0px" />
        <path
           class="cls-10"
           d="M 1.12,27.03 H 0.9 c 0,0 -0.05,-0.02 -0.05,-0.05 0,-0.03 0.02,-0.05 0.05,-0.05 h 0.22 c 0,0 0.05,0.02 0.05,0.05 0,0.03 -0.02,0.05 -0.05,0.05 z"
           id="path240"
           style="fill:#9788a6;stroke-width:0px" />
        <path
           class="cls-10"
           d="m 14.68,27.28 h -0.33 c 0,0 -0.05,-0.02 -0.05,-0.05 0,-0.03 0.02,-0.05 0.05,-0.05 h 0.33 c 0,0 0.05,0.02 0.05,0.05 0,0.03 -0.02,0.05 -0.05,0.05 z"
           id="path241"
           style="fill:#9788a6;stroke-width:0px" />
        <path
           class="cls-10"
           d="m 3.64,27.63 h -0.6 c 0,0 -0.05,-0.02 -0.05,-0.05 0,-0.03 0.02,-0.05 0.05,-0.05 h 0.6 c 0,0 0.05,0.02 0.05,0.05 0,0.03 -0.02,0.05 -0.05,0.05 z"
           id="path242"
           style="fill:#9788a6;stroke-width:0px" />
        <path
           class="cls-10"
           d="m 20.07,27.51 h -0.22 c 0,0 -0.05,-0.02 -0.05,-0.05 0,-0.03 0.02,-0.05 0.05,-0.05 h 0.22 c 0,0 0.05,0.02 0.05,0.05 0,0.03 -0.02,0.05 -0.05,0.05 z"
           id="path243"
           style="fill:#9788a6;stroke-width:0px" />
        <path
           class="cls-10"
           d="m 17.46,26.93 h -0.74 c 0,0 -0.05,-0.02 -0.05,-0.05 0,-0.03 0.02,-0.05 0.05,-0.05 h 0.74 c 0,0 0.05,0.02 0.05,0.05 0,0.03 -0.02,0.05 -0.05,0.05 z"
           id="path244"
           style="fill:#9788a6;stroke-width:0px" />
        <path
           class="cls-10"
           d="M 0.59,27.38 H 0.25 c 0,0 -0.05,-0.02 -0.05,-0.05 0,-0.03 0.02,-0.05 0.05,-0.05 h 0.34 c 0,0 0.05,0.02 0.05,0.05 0,0.03 -0.02,0.05 -0.05,0.05 z"
           id="path245"
           style="fill:#9788a6;stroke-width:0px" />
      </g>
    </g>
  </g>
  <rect
     style="fill:none;stroke:none;stroke-width:17.7477;-inkscape-stroke:none"
     id="rect188"
     width="82.029999"
     height="82.029999"
     x="0"
     y="0" />
</svg>
