<?xml version="1.0" encoding="UTF-8"?><svg id="how_to_prevent" xmlns="http://www.w3.org/2000/svg" viewBox="0 0 32 32"><defs><style>.cls-1{fill:#77a8c7;}.cls-2{fill:#82b7d9;}</style></defs><g id="ic_facilities"><circle id="Ellisse_7" class="cls-2" cx="22.72" cy="25.06" r="5.37"/><path id="Rettangolo_3" class="cls-2" d="M20.82,3.79h3.78c.62,0,1.12,.5,1.12,1.12h0v16c0,.09-.07,.16-.16,.16h-5.86V4.91c0-.62,.5-1.12,1.11-1.12Z"/><circle id="Ellisse_8" class="cls-1" cx="22.72" cy="25.06" r="4.26"/><path id="Rettangolo_4" class="cls-2" d="M29.95,19.27h0c0,.23-.19,.42-.42,.42h-3.31v-.83h3.31c.23,0,.42,.19,.42,.41h0Z"/><path id="Rettangolo_7" class="cls-2" d="M29.95,15.99h0c0,.23-.19,.42-.42,.42h-3.31v-.83h3.31c.23,0,.42,.19,.42,.41h0Z"/><path id="Rettangolo_5" class="cls-2" d="M29.22,17.63h0c0,.23-.19,.42-.42,.42h-2.57v-.83h2.57c.23,0,.42,.19,.42,.41h0Z"/><path id="Rettangolo_6" class="cls-2" d="M29.21,14.35h0c0,.23-.19,.42-.42,.42h-2.57v-.83h2.57c.23,0,.42,.19,.42,.41h0Z"/><path id="Tracciato_7" class="cls-1" d="M20.63,13.48s.68-.25,2.1-.13c1.42,.12,2.06-.3,2.06-.3v11.75h-4.15V13.48Z"/></g></svg>