<?xml version="1.0" encoding="UTF-8"?>
<svg xmlns="http://www.w3.org/2000/svg" xmlns:xlink="http://www.w3.org/1999/xlink" version="1.1" viewBox="0 0 283.5 107.7">
  <defs>
    <style>
      .cls-1 {
        fill: #6ca1bc;
      }

      .cls-1, .cls-2, .cls-3, .cls-4, .cls-5, .cls-6, .cls-7, .cls-8, .cls-9 {
        stroke-width: 0px;
      }

      .cls-2 {
        fill: #3b525b;
      }

      .cls-10 {
        clip-path: url(#clippath);
      }

      .cls-11, .cls-6 {
        fill: #506d7c;
      }

      .cls-3 {
        fill: #96c7e2;
      }

      .cls-4 {
        fill: #84604c;
      }

      .cls-5 {
        fill: #efeceb;
        mix-blend-mode: overlay;
        opacity: .1;
      }

      .cls-7 {
        fill: #5b798c;
      }

      .cls-12 {
        isolation: isolate;
      }

      .cls-8 {
        fill: #916953;
        mix-blend-mode: multiply;
        opacity: .2;
      }

      .cls-9 {
        fill: #abdcf4;
      }
    </style>
    <clipPath id="clippath">
      <path class="cls-6" d="M279.1,51.3l4.2-4.3s.3,6.3,0,13.6c-.3,7.3-5.9,17.1-14.4,24-4.4,3.6-36.2,15.3-70,20.4-36.9,5.6-77.3,1-94.6-.5-36-3.1-70.2-7.9-83.1-17.4C8.4,77.7,1.7,65.8.3,61.9s1.6-21.9,1.6-21.9c0,0,28,32.3,37.5,33.8,9.4,1.5,137.9,13.3,137.9,13.3l60.3-13.3,41.5-22.6Z"/>
    </clipPath>
  </defs>
  <g class="cls-12">
    <g id="Livello_1" data-name="Livello 1">
      <g>
        <path class="cls-4" d="M279.1,51.3l4.2-4.3s.3,6.3,0,13.6c-.3,7.3-5.9,17.1-14.4,24-4.4,3.6-36.2,15.3-70,20.4-36.9,5.6-77.3,1-94.6-.5-36-3.1-70.2-7.9-83.1-17.4C8.4,77.7,1.7,65.8.3,61.9s1.6-21.9,1.6-21.9c0,0,28,32.3,37.5,33.8,9.4,1.5,137.9,13.3,137.9,13.3l60.3-13.3,41.5-22.6Z"/>
        <g>
          <path class="cls-11" d="M279.1,51.3l4.2-4.3s.3,6.3,0,13.6c-.3,7.3-5.9,17.1-14.4,24-4.4,3.6-36.2,15.3-70,20.4-36.9,5.6-77.3,1-94.6-.5-36-3.1-70.2-7.9-83.1-17.4C8.4,77.7,1.7,65.8.3,61.9s1.6-21.9,1.6-21.9c0,0,28,32.3,37.5,33.8,9.4,1.5,137.9,13.3,137.9,13.3l60.3-13.3,41.5-22.6Z"/>
          <g class="cls-10">
            <g>
              <path class="cls-5" d="M223.4,119.1c-7.7-3.1-5.9-14.8-13.4-18.7-6.8-3.5-21.8-.5-28.6-4.6-3.8-2.3-7.6-4.6-11.5-6.7-2.5.4-5.1.7-7.8.9,6,4.2,13.2,6.9,19.2,11.1,7.8,5.4,20-2.6,27.8,2.2,7.6,4.7,11,19.6,19,23.3,3.5,1.6,7,3.3,10.6,5.1.9-1.3,1.8-2.6,2.6-3.8-2.2-.7-4.5-1.1-6.8-2-4-1.5-7.4-5.1-11.3-6.6Z"/>
              <path class="cls-5" d="M265.3,105.2c-7.7-3.1-2.8-12.1-10.3-16-6.8-3.5-22.7-.2-29.5-4.3-3.8-2.3,0-.1-3.8-2.3-2.5.4-1.9,2-4.6,2.3,6,4.2,0-1.9,6.1,2.3,7.8,5.4,21.6,2,29.5,6.8,7.6,4.7,9.4,15,17.4,18.7,3.5,1.6,7,3.3,10.6,5.1.9-1.3,1.8-2.6,2.6-3.8-2.2-.7-4.5-1.1-6.8-2-4-1.5-7.4-5.1-11.3-6.6Z"/>
              <g>
                <path class="cls-5" d="M50.5,91.6c-4-9.2-30.4-29.9-39.6-45.2.1.5.2,1,.3,1.5.4,1.6.8,3.2,1.3,5,8.6,10,33.1,30.2,37.3,43.9,4.8,15.9,24.1,22.3,41.8,30.5,7.8,3.7,22.2,12.7,36,23.4,2.1-.4,4.1-.8,6.2-1.3-14.2-10.9-30.1-20.1-41.6-25.1-22.9-10-34.8-17.1-41.6-32.6Z"/>
                <path class="cls-5" d="M112.4,106.8c-4-9.2-22.2-11.3-31.4-26.6.1.5-5.2-1.8-5.1-1.2.4,1.6-.9,1.9-.4,3.6,8.6,10,36,24.9,40.2,38.6,4.8,15.9,24.1,22.3,41.8,30.5,7.8,3.7,22.2,12.7,36,23.4,2.1-.4,4.1-.8,6.2-1.3-14.2-10.9-30.1-20.1-41.6-25.1-22.9-10-38.8-26.2-45.6-41.8Z"/>
                <path class="cls-5" d="M86.8,104c-8-4.6-15.5-10.7-22.5-17.9-.3-.3-2.1-3.3-2.4-3.7-2.3-.2-3.2.4-5.7,0-1.1-.2-3-3.3-4.1-3.5,4.1,4.3,9.3,12.8,13.8,16.2,6.8,5.1,12.6,10.8,19.9,14.1,5.8,2.6,11.8,4.4,17.4,7.4,9.2,4.9,17.5,13.4,26.5,18.7,3.6,2.1,7.1,4.2,10.6,6,1.3-1.4,2.6-2.9,3.8-4.4-9-4.6-17-10.6-26.4-17.9-10.4-8.1-20.5-8.9-31.1-15.1Z"/>
                <path class="cls-6" d="M102.1,85.5c-8-4.6-15.5-10.7-22.5-17.9-.3-.3-2.1-3.3-2.4-3.7-2.3-.2-3.2.4-5.7,0-1.1-.2-3-3.3-4.1-3.5,4.1,4.3,9.3,12.8,13.8,16.2,6.8,5.1,12.6,10.8,19.9,14.1,5.8,2.6,11.8,4.4,17.4,7.4,9.2,4.9,17.5,13.4,26.5,18.7,3.6,2.1,7.1,4.2,10.6,6,1.3-1.4,2.6-2.9,3.8-4.4-9-4.6-17-10.6-26.4-17.9-10.4-8.1-20.5-8.9-31.1-15.1Z"/>
                <path class="cls-5" d="M250.4,73.7c-6.2-3.6-12.1-8.3-17.5-14-.2-.3-.5-.5-.7-.8-1.8-.1-3.7-.3-5.6-.6-.9-.1-1.7-.3-2.6-.5,3.2,3.4,6.7,6.3,10.2,8.9,5.3,4,9.9,8.4,15.6,11,4.6,2,9.2,3.5,13.6,5.8,7.2,3.8,13.7,10.4,20.7,14.6,2.8,1.7,5.5,3.2,8.3,4.7,1-1.1,2-2.2,3-3.4-7.1-3.6-13.3-8.2-20.6-13.9-8.1-6.3-16-7-24.3-11.8Z"/>
                <path class="cls-5" d="M40.9,89.9c-4-7.7-32-8.1-42.5-43.5-1.4,0,.2,9.1-1.3,9.1,8.9,19.8,36.3,29.3,44.9,43,7.6,12.1,62.7,47.1,97.1,65.4,2.4-1.2,4.7-2.6,6.9-4-18.3-8.2-39-15.3-54.3-23.8-30.9-17.3-46.5-37.7-50.9-46.1Z"/>
                <path class="cls-5" d="M118.6,80.9h-6c33,26.9,48.2,28.7,73.3,42,.8-1.7,1.5-3.3,2.2-5-14.1-5.8-18.1-3.9-29.5-10.2-12.4-6.9-32.4-20.9-40-26.9Z"/>
                <path class="cls-5" d="M216,92.8c-.8-.7-7.6-7.8-8.4-8.3-2.3.3-3.5.5-5.7.9,13.3,20.5,49.1,23.3,62.9,27.9,1-1.7,2-3.5,3-5.2.3-.6.6-1.2.9-1.8-.3-.5-20.6,12.8-52.6-13.5Z"/>
                <path class="cls-5" d="M248.4,58.5c-.8-.7-1.7-1.1-2.5-1.6-2.3.3-4.6.6-6.9,1.1,9.1,5.1,25.3,14,36.8,19.8,4.8,2.4,3.9-2.3,5.2-2.6,1.3-.3,4.6-1.1-3.5-4.5-7.5-3.1-19-3.8-29.1-12.1Z"/>
                <path class="cls-5" d="M219.4,125.2c-1.2-.6-2.3-1.2-3.5-1.9-1.2-.6-2.4-1.2-3.5-1.7-2.4-1.1-4.7-2.3-7.1-3.4-4.7-2.3-9.5-4.6-14.1-7-4.6-2.4-9.2-4.8-13.5-7.3-4.3-2.5-8.5-5-12.2-7.7-.9-.7-1.9-1.4-2.7-2.1-.5-.3-.9-.7-1.3-1.1l-.6-.6-.4-.3-.3-.3c-.4-.4-1-.8-1.5-1.1-.5-.3-1.1-.5-1.7-.7-1.1-.3-2.3-.3-3.3,0-.6.2-1.2.4-1.7.6,0,0,.1.2.2.3.7.9,1.4,1.8,2.1,2.7,1.6-.3,3.1,0,4.5,1.4.4.4.9.8,1.3,1.1.5.4.9.8,1.4,1.2.9.8,1.9,1.5,2.9,2.2,3.9,2.8,8.2,5.2,12.6,7.4,4.4,2.2,9.1,4.4,13.8,6.5,4.7,2.1,9.5,4.2,14.3,6.3,4.8,2.1,9.6,4.2,14.1,6.7,4.6,2.5,9,5.2,13.2,8.1.4.2.7.5,1.1.8.5,0,.9,0,1.4,0-.7-.5-1.4-1.1-2.1-1.6-4.2-3-8.7-5.8-13.3-8.3Z"/>
              </g>
            </g>
          </g>
        </g>
        <ellipse class="cls-1" cx="141.8" cy="47" rx="141.5" ry="46.9"/>
        <path class="cls-7" d="M28.4,65.4s52.5,4.2,61.5,3.9c9-.3,17.1-2.3,32.2-1.6,15.1.8,19.1,4.4,25.2,6.2,6.1,1.8-37.6,6.5-45.4,6.2-7.8-.3-75.5-14.3-73.5-14.8Z"/>
        <path class="cls-7" d="M148.9,25.7s61.7-2.8,70.6-3.1c9-.3,7.9,4.6,23,5.4,15.1.8,27,8.4,21.6,12.6s-2.5-3.7-6.3-6c-5.4-3.2-24.9-4.4-32.2-6.2-7.7-1.9-78.8-2.3-76.8-2.8Z"/>
        <path class="cls-7" d="M128.6,49.5s52.5,4.2,61.5,3.9c9-.3,17.1-2.3,32.2-1.6,11.2.6,24.9,4.4,35.2,3.8,2.1-.1,12.7-.6,15.5-5s-3.4-10.8-2.8-10.6c1.9.6,12.5,13.4,4.5,15.4-17.6,4.5-67.3,9-72.6,8.8-7.8-.3-75.5-14.3-73.5-14.8Z"/>
        <path class="cls-5" d="M114.3,69.7s52.5,4.2,61.5,3.9c9-.3,8.1,3.5,23.2,4.3,15.1.8,43-11.8,49-10,6.1,1.8-52.4,16.9-60.2,16.6-7.8-.3-75.5-14.3-73.5-14.8Z"/>
      </g>
      <path class="cls-8" d="M25.9,43s31.8-10.2,36.7-9.6c4.9.6,133.8-7.6,133.8-7.6,0,0,24.2-12,24.8-4.9.6,7.1-20.7,20.7-20.7,20.7,0,0,17,9.1,21.8,10.2s18.8-.5,18.8-.5c0,0,1.4,2.7-12,7.4s-43.8,8.2-43.8,8.2c0,0-74.3,1-78.8,1.2-4.5.1-32.2,9.1-38.4,3.1-6.3-6-66.2-14.6-42.1-28.3Z"/>
      <g id="Raggruppa_23" data-name="Raggruppa 23">
        <path id="Tracciato_208-2" data-name="Tracciato 208-2" class="cls-7" d="M46,17.1l74.5-4.5c1.2,0,2.3.6,2.3,1.5l.7,16.7c0,.9.4,4.5-5.8,4.9-6.2.4-33.3-4.3-54.5-3.5-21.2.8-26.6,3.6-26.6,3.6-1.2,0-2.3-.6-2.3-1.5,0,0,.4-13.8,11.7-17.3Z"/>
        <path id="Tracciato_211" data-name="Tracciato 211" class="cls-2" d="M42.2,26.9s5.8-3.6,24.6-1.6c18.8,2,46.4,2.2,46.4,2.2,1.1,0,4.2-.3,4.1,1.7-.2,2,.6,5.8-4.7,6.2-5.3.4-30.1-3.9-48.2-3.2-18.1.7-25.7,3-25.7,3-1.1,0-1.8-1.7-.9-3.8s4.5-4.5,4.5-4.5Z"/>
        <path id="Tracciato_209-2" data-name="Tracciato 209-2" class="cls-9" d="M122.9,14.3l89.7-3.6s-1.3,8.7-23.7,13.6c-22.4,4.9-65.4,6.1-65.4,6.1l-.6-16.1Z"/>
        <path id="Tracciato_210" data-name="Tracciato 210" class="cls-3" d="M122.9,14.3l84.7-3.4s-1.3,7.5-22.4,11.9c-21.1,4.4-61.7,5.6-61.7,5.6l-.6-14Z"/>
        <circle id="Ellisse_5" data-name="Ellisse 5" class="cls-9" cx="113.9" cy="18.1" r="2.1"/>
        <path id="Tracciato_212" data-name="Tracciato 212" class="cls-9" d="M102.4,16.4c1.1,0,2,1.1,1.9,2.3s-1.1,2-2.3,1.9-2-1.1-1.9-2.3h0c0-1.1,1.1-2,2.3-1.9Z"/>
      </g>
      <g>
        <path class="cls-9" d="M117.6,53.7c-.4-1.9-.4-4.4-.3-6.9s-.1-5.9.3-9c-4.4.4-9.4.3-13.4,0,.6,2.9.1,5.9.1,8.4-.4,3.1.1,5.9-.3,9l1-.2h0c-.7-3.8-.7-8.8-.5-12.9h0c-.2,4,.1,8.4.5,12.9,3.8-.7,9-2.2,11.9-.3l.8-1.1ZM106.6,53.8c-.6-2.9-.5-5.4-.5-7.9h0c0,2.5.5,5.4.5,7.9h0ZM107.2,51.7h0l-.6-2.9h0c-.4.6,0,2.5,0,2.5l.6.4ZM107.2,51.7c-.2-1-.9-2.3-.6-2.9h0c.2,1,.9,2.3.6,2.9h0Z"/>
        <path class="cls-7" d="M102.6,56.1c-.2-3.5-.7-6.3-.3-9.4,0-2.5-.5-5.4.4-8.1h0c-14.6-.7-29.2-1.4-43.5-1.1-8.1-.4-15.5-.5-23-.6-4-.2-9.2-1.2-12.9.5-1,.2-1.3.8-1.7,1.3-3.1,7.1-1.4,13.2,4.1,18.6h0c-5.7-3.9-7.2-11.6-4.9-17.5-2.3,3.4-2,7.9-.3,11.5,1.3,4.2,4,7.7,8.2,8.9,4.2,1.2,8.4-.1,12.7-1.4,6.2-1.7,12.5-2.4,19-2.2,7.1.6,14.2,1.3,21.7,1.3,6.5.2,13.2-1.1,20-2.3l.6.4ZM90.9,49.8c-3.1,2.1-6.5,2.3-10,2.4-4-.2-9-.3-13-.5-9-.3-17.6-1.1-26.3.6-2.5,0-4.4.4-6.7,1.3-1.3.8-3.3,1.1-4.4.4-2.7-1-5.2-3.5-6.7-6.2-1.5-2.7-2.1-5.6-.5-7.9,1.9-2.9,4.4-2.8,7.3-3.4h0c-1.9.4-4.8.9-6,2.6s-2.1,4.4-1.2,6.7c.9,4.8,5.5,7.9,10.3,7,3.8-.7,7.7-1.5,11.5-2.2,4.4-.4,7.9-.5,11.9-.3,7.5,0,15.7,1.5,23.6.9,3.5-.2,8.8-.7,11.2-4.1,3.5-5.2-3.6-8.3-7.2-9.1h0c2.7,1,6.9,2.2,8,5.4.9,2.3,0,5-2.7,6.5l1-.2ZM91.1,50.8h0c2.1-1.9,3.3-3.6,2.7-6.5h0c.4,1.9-.4,5.6-2.7,6.5ZM98.2,53.9h0c1.2-1.7,1.4-3.3,1.4-5.7h0c0,2.5-.6,4.6-1.8,6.3l.4-.6ZM99,55.3h0c1.8-3.8,2.6-7.5,1.2-11.7h0c1.7,3.7,1.1,8.3-1.2,11.7Z"/>
        <path class="cls-3" d="M126.9,70.8c-.6-.4-.9-2.3-1.5-2.7-1.5-5.2-3.6-10.8-7-13.1h0c0-2.5-.5-5.4-.5-7.9-.2-3.5.2-6.5-.3-9.4,3.5-.2,7.5,0,10.9-.1,12.5,0,24.6.8,37,.9,12.1.7,24,.4,36.1,1,6.1.8,12.1.7,18.6.9,5,0,10.8-1.1,14.8,1.6,5.5,2.9,10.7,6.4,15.8,9.9-7.3,3.4-14.8,5.8-22.9,7.9-7.1,1.9-14.2,3.7-21.9,5.2-16.7,3.7-33.2,5.9-49.5,6.5-5,0-9.4.3-14.4.3-5,0-9.6-.6-14.6-.7l-.6-.4Z"/>
        <path class="cls-9" d="M250.4,52.6c1.1.8,2.3,1.6,3.4,2.3-33.5,12.4-68.8,20.2-104.7,20.1-5,0-10.5-.5-15.5-.5-.4.6-1.5-.2-1.5-.2-1.1-.8-2.7-1-4-2.7,8.2,1.4,16.7,1.3,25.1,1.1,8.4-.1,17.3-.8,25.5-1.9,16.1-1.6,31.9-5.1,47.1-9,8.5-2.6,17.1-4.3,25.2-8.8l-.6-.4Z"/>
        <g>
          <path class="cls-2" d="M93.7,43.3c.9,2.3,0,5-2.7,6.5-3.1,2.1-6.5,2.3-10,2.4-4-.2-9-.3-13-.5-9-.3-17.6-1.1-26.3.6-2.5,0-4.4.4-6.7,1.3-1.3.8-3.3,1.1-4.4.4-2.7-1-5.2-3.5-6.7-6.2-1.5-2.7-2.1-5.6-.5-7.9,1.9-2.9,4.4-2.8,7.3-3.4h0c-1.9.4-4.8.9-6,2.6s-2.1,4.4-1.2,6.7c.9,4.8,5.5,7.9,10.3,7,3.8-.7,7.7-1.5,11.5-2.2,4.4-.4,7.9-.5,11.9-.3,7.5,0,15.7,1.5,23.6.9,3.5-.2,8.8-.7,11.2-4.1,3.5-5.2-3.6-8.3-7.2-9.1h0c2.7,1,6.9,2.2,8,5.4l1-.2Z"/>
          <path class="cls-2" d="M105.2,46.1c0,2.5.5,5.4.5,7.9h0c-.6-2.9-.5-5.4-.5-7.9h0Z"/>
          <path class="cls-2" d="M106.3,49.4h0c-.4.6,0,2.5,0,2.5h0l-.6-2.9.6.4Z"/>
          <path class="cls-2" d="M106.7,48.8c.2,1,.9,2.3.6,2.9h0c-.2-1-.9-2.3-.6-2.9h0Z"/>
          <path class="cls-2" d="M99.8,44.1c1.7,3.7,1.1,8.3-1.2,11.7h0c1.8-3.8,2.6-7.5,1.2-11.7h0Z"/>
          <path class="cls-2" d="M100,47.6c0,2.5-.6,4.6-1.8,6.3h0c1.2-1.7,1.4-3.3,1.4-5.7h0l.4-.6Z"/>
          <path class="cls-2" d="M92.9,44.5c.4,1.9-.4,5.6-2.7,6.5h0c2.1-1.9,3.3-3.6,2.7-6.5h0Z"/>
          <path class="cls-2" d="M255.1,56.6c1.3-.8.8-1.1.8-1.1-6.9-4.7-13.2-8.9-19.5-13.2-2.9-1.9-6.5-2.7-10-2.6-6.1-.8-12.1-.7-18.6-.9-25.1-1.1-49.7-1.9-74.6-2.1-12.5,0-24.6-.8-37.4-.3-11.5-.3-23-.6-35.1-1.2-8.4.1-17.1-.7-25.5-.6-5.9.1-12.7-1.1-16.1,4.1-6.4,8.2,1,23.2,11.1,24.3,3.1.4,5.8-1.1,8.6-1.7,4.2-1.3,8.5-2.6,13.4-2.6,7.5,0,15.1,1.1,23.2,1.5,8.6.8,16.5.3,25.1-1.3,4.8-.9,11.7-3.7,15.7-1,2.9,1.9,5.3,6.9,6.6,11.2.2,1,.6,2.9,1.1,3.3.8,1.3,1.1,3.3,2.3,4s4,.2,5.6.4c2.5,0,5,0,7.5,0,9.6.6,19,.3,28.8-.5,19-2.2,37.8-5.3,56.3-10.3,11-2.6,20.8-6,31-9.9l-.4.6ZM101.5,55.3c-6.7,1.3-13.4,2.6-20,2.3-7.1-.6-14.2-1.3-21.7-1.3-6.5-.2-12.9.5-19,2.2-4.2,1.3-8.5,2.6-12.7,1.4-3.3-1.4-6.5-5.2-8.2-8.9-1.7-3.7-2-8.1.3-11.5-2.7,6.5-.9,13.6,4.9,17.5h0c-5.5-5.4-6.8-12.1-4.1-18.6.4-.6,1.3-.8,1.7-1.3,3.7-1.7,8.8-.7,12.9-.5,8.1.4,15.5.5,23,.6,14.6.7,29,.4,43.5,1.1h0c-.6,2.1-.4,5.6-.4,8.1.2,3.5-.2,6.5.3,9.4l-.6-.4ZM116,56c-3.8-1.8-8.1-.4-11.9.3-.4-4.4-.7-8.8-.5-12.9h0c-.2,4,.1,8.4.5,12.9h0l-1,.2c.4-3.1-.1-5.9.3-9-.6-2.9-.1-5.9-.1-8.4,4.4-.4,9,.3,13.4,0-.4,3.1-.8,6.1-.3,9,.4,1.9,0,5,.3,6.9l-.8,1.1ZM125.3,68.1c-1.5-5.2-3.6-10.8-7-13.1h0c0-2.5-.5-5.4-.5-7.9-.2-3.5.2-6.5-.3-9.4,3.5-.2,7.5,0,10.9-.1,12.5,0,24.6.8,37,.9,12.1.7,24,.4,36.1,1,6.1.8,12.1.7,18.6.9,5,0,10.8-1.1,14.8,1.6,5.5,2.9,10.7,6.4,15.8,9.9-7.3,3.4-14.8,5.8-22.9,7.9-7.1,1.9-14.2,3.7-21.9,5.2-16.7,3.7-33.2,5.9-49.5,6.5-5,0-9.4.3-14.4.3-5,0-9.6-.6-14.6-.7-.6-.4-.9-2.3-1.5-2.7l-.6-.4ZM253.8,54.9c-33.5,12.4-68.8,20.2-104.7,20.1-5,0-10.5-.5-15.5-.5-.4.6-1.5-.2-1.5-.2-1.1-.8-2.7-1-4-2.7,8.2,1.4,16.7,1.3,25.1,1.1,8.4-.1,17.3-.8,25.5-1.9,16.1-1.6,31.9-5.1,47.1-9,8.5-2.6,17.1-4.3,25.2-8.8,1.1.8,2.3,1.6,3.4,2.3l-.6-.4Z"/>
        </g>
      </g>
    </g>
  </g>
</svg>