<?xml version="1.0" encoding="UTF-8"?><svg id="how_to_prevent" xmlns="http://www.w3.org/2000/svg" viewBox="0 0 32 32"><defs><style>.cls-1{fill:none;}.cls-1,.cls-2,.cls-3,.cls-4{stroke-width:0px;}.cls-2{fill:#93c8e5;}.cls-3{fill:#82b7d9;}.cls-4{fill:#77a8c7;}</style></defs><g id="ic_slaugh"><path class="cls-4" d="M23.98,13.39h5.42c.17,0,.31.14.31.31v1.73h-6.05v-1.73c0-.17.14-.31.31-.31h0Z"/><path class="cls-3" d="M30.87,20.9v6.26s-.12,1.15-1.34,1.18c-1.23.03-4.43.05-5.67,0-1.23-.05-1.34-1.18-1.34-1.18v-6.26c0-3.03.36-2.78,1.06-3.65.7-.87.59-1.36.59-1.36v-.44h5.06v.44s-.12.49.59,1.36c.7.87,1.06.62,1.06,3.65h0Z"/><path class="cls-4" d="M22.51,20.69h8.35v4.36c-2.78.06-5.57.05-8.35-.03v-4.33Z"/></g><g id="ic_slaugh-2"><path class="cls-4" d="M11.64,13.39h5.42c.17,0,.31.14.31.31v1.73h-6.05v-1.73c0-.17.14-.31.31-.31h0Z"/><path class="cls-3" d="M18.53,20.9v6.26s-.12,1.15-1.34,1.18c-1.23.03-4.43.05-5.67,0-1.23-.05-1.34-1.18-1.34-1.18v-6.26c0-3.03.36-2.78,1.06-3.65.7-.87.59-1.36.59-1.36v-.44h5.06v.44s-.12.49.59,1.36c.7.87,1.06.62,1.06,3.65h0Z"/><path class="cls-4" d="M10.17,20.69h8.35v4.36c-2.78.06-5.57.05-8.35-.03v-4.33Z"/></g><rect class="cls-1" width="32" height="32"/><g id="ic_slaugh-3"><path class="cls-4" d="M18.03,16.08h5.42c.17,0,.31.14.31.31v1.73h-6.05v-1.73c0-.17.14-.31.31-.31h0Z"/><path class="cls-2" d="M24.92,23.58v6.26s-.12,1.15-1.34,1.18c-1.23.03-4.43.05-5.67,0-1.23-.05-1.34-1.18-1.34-1.18v-6.26c0-3.03.36-2.78,1.06-3.65.7-.87.59-1.36.59-1.36v-.44h5.06v.44s-.12.49.59,1.36c.7.87,1.06.62,1.06,3.65h0Z"/><path class="cls-4" d="M16.56,23.37h8.35v4.36c-2.78.06-5.57.05-8.35-.03v-4.33Z"/></g></svg>