<?xml version="1.0" encoding="UTF-8"?><svg id="how_to_prevent" xmlns="http://www.w3.org/2000/svg" viewBox="0 0 32 32"><defs><style>.cls-1{fill:none;}.cls-1,.cls-2,.cls-3,.cls-4{stroke-width:0px;}.cls-2{fill:#6791a8;}.cls-3{fill:#5b798c;}.cls-4{fill:#77a8c7;}</style></defs><rect class="cls-1" width="32" height="32"/><path class="cls-4" d="M26.71,19.7c1.58.09,4.54.56,3.15,5.4-1.82,4.91-3.04,5.15-3.25,5.34s-.7.32-1.87,0-2.38-.11-2.38-.11c0,0-3.15.2-3.96-3.95s-.08-6.37,2.17-6.67c1.06-.11,1.68.34,2.47.42s2.1-.52,3.68-.42Z"/><path class="cls-2" d="M21.76,20.7s.33-.8,2.51-.31c.71.17,1.67.15,2.03.38s.24.41.08.51c-.24.15-1.08.11-1.66-.09-.29-.1-1.33-.57-1.72-.64-.91-.18-1.14.09-1.25.16Z"/><path class="cls-3" d="M21.71,20.68s.83-.56,2.05.08,2.39.6,2.39.6c0,0-1.24.33-2.26-.27s-2.18-.42-2.18-.42Z"/><path class="cls-3" d="M23.55,20.66s.27-3.08.88-3.87c0,0,.61.29.94.27,0,0-1.26,1.17-1.69,3.66l-.13-.06Z"/><path class="cls-2" d="M23.04,29.15c.58-.04,1.33-.05,2.03.22s1.14.04,1.36-.12,2.27-2.05,3.15-6.3c.09-.36-1.33-.22-1.82,1.75s-1.1,2.4-1.77,3.08-1.83.73-2.34.74-1.2.66-.62.62Z"/><path class="cls-4" d="M23.48,20.53s.42-2.68-1.47-3.12-2.58-1.48-2.58-1.48c0,0,.05,2.83,1.44,3.37s1.86.49,2.61,1.22Z"/><path class="cls-3" d="M21.53,18.55c1.39.51,1.75.69,1.95,1.98,0,0-.15-.58-2-1.12-1.75-.52-1.84-2.72-1.84-2.72,0,0,.5,1.34,1.89,1.86Z"/><path class="cls-4" d="M28.86,18.73c-1.1,0-1.71-1.07-.98-2.03.62-.83.98-1.84.98-1.84,0,0,.36,1.02.98,1.84.72.96.12,2.03-.98,2.03Z"/><path class="cls-4" d="M25.28,15.28c-.55,0-.85-.54-.49-1.02.31-.41.49-.92.49-.92,0,0,.18.51.49.92.36.48.06,1.02-.49,1.02Z"/></svg>