<?xml version="1.0" encoding="UTF-8"?><svg id="how_to_prevent" xmlns="http://www.w3.org/2000/svg" viewBox="0 0 32 32"><defs><style>.cls-1{fill:#5b798c;}.cls-2{fill:#77a8c7;}.cls-3{fill:#82b7d9;}</style></defs><g id="ic_slaugh"><g><path class="cls-2" d="M25.96,26.27s-2.1-2.85-3.07-6.24c-.97-3.39-3.43-8.29-3.73-8.71s-.74-1.25-1.35-.88-.28,1.14-.21,1.32,1.3,2.47,1.52,3.2c.11,.3-.17,.3-.17,.3,0,0-.03,.25-.28-.51s-2.48-4.55-3.24-5.09-1.26-.11-1.26-.11c0,0-.51,.24-.23,.94s2.29,3.6,2.29,3.6c0,0,.62,.82,.48,1.19s-.59-.15-.59-.15c0,0-.75-1.44-1.54-2.66-.58-.89-1.25-1.62-1.36-1.77-.25-.36-.72-.81-1.25-.47s-.48,.85-.43,.98,2.4,3.65,2.85,4.46,.18,.84,.18,.84c0,0-.4,.34-.97-.78s-1.95-4.1-2.93-3.64-.31,1.67-.31,1.67c0,0,.82,2.58,3.46,5.46,1.74,2.22,.46,1.69,.46,1.69,0,0-1.21-.37-2.16-2.52-.31-.82-.79-.77-1.15-.57s-.48,.51-.32,.92,1.37,3.25,3.81,5.68c2.56,2.39,4.15,5,4.31,5.63,.62,.25,5.83-1.19,7.2-3.78Z"/><path class="cls-1" d="M25.69,26.31s-.95,1.31-2.77,2.27-3.96,1.28-3.96,1.28c0,0,.96-1.37,3.04-2.48s3.69-1.07,3.69-1.07Z"/></g><g><path class="cls-3" d="M16.17,24.02s1.28-3.53,1.26-7.27,1-9.47,1.19-9.98,.38-1.49,1.11-1.3,.62,1.07,.61,1.28-.59,2.9-.59,3.71c-.02,.33,.27,.25,.27,.25,0,0,.11,.24,.13-.61s1.16-5.38,1.77-6.15,1.24-.49,1.24-.49c0,0,.59,.09,.51,.89s-1.25,4.35-1.25,4.35c0,0-.38,1.02-.14,1.36s.55-.32,.55-.32c0,0,.33-1.69,.77-3.17,.33-1.08,.79-2.02,.85-2.21,.14-.44,.49-1.04,1.13-.86s.74,.72,.74,.87-1.35,4.43-1.56,5.4,.07,.91,.07,.91c0,0,.51,.22,.76-1.08s.76-4.76,1.89-4.58,.81,1.6,.81,1.6c0,0-.06,2.87-1.88,6.59-1.11,2.78,.04,1.86,.04,1.86,0,0,1.12-.74,1.44-3.21,.07-.93,.58-1.02,1-.92s.65,.38,.61,.83-.42,3.71-2.17,6.92c-1.88,3.2-2.72,6.33-2.7,7.02-.56,.44-6.29,.54-8.46-1.68Z"/><path class="cls-2" d="M16.46,23.97s1.36,1.05,3.5,1.48c2.14,.43,4.41,.11,4.41,.11,0,0-1.39-1.1-3.84-1.61s-4.08,.02-4.08,.02Z"/></g></g></svg>