<?xml version="1.0" encoding="UTF-8"?>
<svg id="Livello_1" data-name="Livello 1" xmlns="http://www.w3.org/2000/svg" version="1.1" viewBox="0 0 146.8 159.2">
  <defs>
    <style>
      .cls-1 {
        fill: #fff;
        stroke-width: 0px;
      }
    </style>
  </defs>
  <path class="cls-1" d="M81,108c-1,.7-1.9,1.4-1.9,1.4,0,0,.8-.5,1.9-1.4Z"/>
  <path class="cls-1" d="M128.3,76.4c.2.4.4.6.4.6,0,0-.1-.3-.4-.6Z"/>
  <path class="cls-1" d="M137.8,59.7v.2c0,.1,0,0,0-.2Z"/>
  <path class="cls-1" d="M117.7,94.5v.9s.3-.5,0-.9Z"/>
  <path class="cls-1" d="M144.9,7h0c.6.1,1.3.4,1.9.6-.5-1.2-1.8-1.2-2.6-1.7.5.1,1.2.2,1.7.3v-.2c-3.5-.9-7-1.9-10.5-2.8v-.2c1.4.1,2.6.3,4,.4h0c-1.4-.4-2.8-.8-4.1-1.2.3,0,.8-.2,1.3-.3v-.2c-2.4,0-4.8-.7-7,.9l-.2-.2c.6-.5,1.2-1,1.9-1.7-1.8.7-3.1,1.9-3.9,3.7,0-.7,0-1.5.1-2.2-.3.5-.5.9-.9,1.5-.2-.4-.3-.6-.5-.9-.4.7,0,1.7-.9,2.3v1.3h-5c-2.2.1-4.4.4-6.6.5-.7,0-1.3-.2-1.4-1-.1-.9-.4-1.9-.6-2.7h-.2v1.3c-.7-1-1.5-2.2-2.3-3.2,0,0-.1,0-.2.1.1.4.2.8.3,1.3,0,.4,0,.8.1,1.4-.9-1.2-1.9-2.1-2.8-3.1h-.2c.4.8.7,1.6,1.2,2.2h-.1c-.8-.7-1.7-1.4-2.4-2.1h-.1c.3.5.7,1,1,1.5-1.4-1-2.7-2-4.6-2.3.9.5,1.7.8,2.4,1.3h0l-3-.6v.2c.3,0,.6.2.9.3h0c-.9.2-2,.4-3,.6.3,0,.5.1.7.2-2.4.9-4.8,1.9-7.3,2.9v.2h1.3v.2c-.8.2-1.6.4-2.6.7.7,0,1.4.2,1.9.2h0c-.3.1-.6.3-1.2.4,1,.2,1.3.7.9,1.5-.2.3-.4.7-.6,1l-.2.2s-.9,1.5-1.3,1.9c-.2.2,0,.5.3.7v.2c.2.3.9.4,1.5.5.4,0,.8,0,1.2-.3,1.3-.7,2.3,0,3.5.4-.3,0-.7,0-1-.1h0c.5.4,1,.7,1.7,1h0c-.6,0-1.3-.2-2-.3.4.3.6.5,1.2.9-.5-.1-.7-.2-1-.2.4.8.8,1.6,1.3,2.2h-.6v.2c.5.2,1.2.4,1.8.6-.4,0-.8.1-1.5.3.9.3,1.7.5,2.3.7-.9,1.3-1.8,2.4-2.6,3.6l.2.2c.3-.3.7-.6,1-.9h0c-.2.4-.4.7-.8,1.3.5-.2.8-.4,1-.5-.3.9-.6,1.8-.9,2.6h.1c.4-.5.9-1,1.4-1.5h0c-.2.6-.5,1.2-.7,1.8h.2c.2-.3.4-.5.6-.8-.4,2.2-1.2,4.1-3.6,4.8,2-.1,3-1.5,3.8-3.2,0,0,.2.1.3.2-.5,1.3-.9,2.4-1.5,3.5,0,0,.4-.3.7-.6-.2,1.6-1,2.5-2.3,3.2,0,0,.1.1.2.2.7-.6,1.5-1.4,2.2-2-.1,1.4-.7,2.4-1.8,3.4-5,4.3-11,6.7-17,9.1-.3.1-.6.2-.9.2-2.1.2-4.1.5-6.2.6-7.4.4-14.9-.3-22.2-1.4-10.3-1.5-20.1.2-29.5,4.2-.2,0-.3.2-.6.4.8-.1,1.5-.2,2.4-.4-.5.3-.7.5-1,.6-2.8,1.8-5.1,4.1-6.8,7-2.1,3.6-3,7.4-3.5,11.4,0,.7-.3,1.2-1,1.6-.9.5-1.9,1.2-2.8,1.9-.9.7-1.9,1.6-2.7,2.4h.1c1.6-.6,3.1-1.4,4.9-2.2-1.6,1.5-3,2.7-4.3,4.1-1.4,1.6-2.3,3.8-2.4,4.9,1.3-2.2,2.5-3.5,3.8-3.8-2.3,2.5-3.5,4.5-3.5,5.9.3-.4.6-.9.9-1.4h.1c-.4,1-.8,2.2-1.4,3.2h.1c.4-.6.8-1.3,1.3-2-2.1,4.1-3.2,8.4-3.5,13,.6-1.5,1.2-2.9,1.9-4.4.8-1.8,2.2-3.1,2.9-3.6C1.8,90.1.1,94.6.4,97.3c.8-3.4,2.1-6.3,4.5-8.8-2.6,3.8-3.7,8.1-3.8,12.3.8-2,1.8-4.2,2.7-6.4.1,0,.2,0,.4.1-1.5,3.2-2.6,6.6-2.8,10.2-.3,3.5,1.2,8.3,2.6,9.6-.6-1.8-1.5-3.9-2.2-6,0,0,.2,0,.3-.1,1.4,2.6,4,4.5,4.3,7.8.1,0,.2-.1.4-.2-.6-1.8-1.2-3.7-1.8-5.4,2.2,2,3.4,4.5,4,7.3,0,0,.2,0,.3-.1-.5-2.1-1-4.2-1.7-6.6,1,1.5,2,2.7,2.9,4,0,0,0-.2.1-.3,0,.1.1.2.3.4v-3.1h.1c0,.4.2.7.3,1.2.2-.5.3-.9.5-1.4.3,3-.9,5.4-2.8,7.5-1,1.3-1.4,2.4-.9,4,.7,2.8.9,5.7.9,8.5s0,4.3.2,6.4c0,.3.2.6.3.9v1.7h0c-.2,1.7-.5,4.3-.5,5.1,0,1.3.6,3.6.6,3.6h0c-.3.5-.6,1-.6,1.6s.3,1.3,1,1.6c2.7.9,5.4,1.7,8.3,1.5.8,0,1.7-.1,2.4-.3h.2c.4,0,.7-.2,1.2-.3,1.5-.5,2-2.2,1.3-3.6,0-.6,0-1.3-.3-1.6h0c-.3-.8-.9-2-1.3-2.4-.6-.7-1.7-1.2-2.3-1.3,0,0-1.6-.3-2-1.6-.3-.8-.6-3-.7-4.3h0c-.9-7.8,0-15.1,3.8-21.8,0,.9-.2,2,0,2.9,1.2,4.1,2.3,8.1,3.6,12.2.9,2.9.9,6.3,3,8.9v.3c0,1.9,3.4,3.5,7.8,2.7,1.6,0,3,0,4.6-.2.6,0,2.1-.6,1.9-1.4v-.5c0-.5.1-1,0-1.5-.8-2.9-2.7-5-6.1-4.7h-.5c-.6-.2-1.4-.4-1.8-.8-.5-.5-.9-1.3-1.2-2-.7-2.5-1.5-4.9-1.9-7.4-.7-4.3-.3-8.4,2.6-11.8,2.2-2.6,4.6-5.1,6.9-7.6,2.2-2.4,4.5-4.7,6.6-7.2,1.3-1.5,2-3.2,2.1-5.2h0s0-.2.1-.4v2.2c0,.9.8-.5.8-.5,0,0,.5-2.4.7-3.8h.1c.2.5-.2,3.5-.2,3.5,0,0,1.3-2.3,2.2-3.7.9-1.5,1.3-1.8,1.3-1.8,0,0-.2,2.2-.3,2.7,0,.5,0,1.7.2,1.4.3-.3.6-2.5.9-3.5s.3-1,.7-.4,1.2,2.7,1.2,2.7l.5-.4h0c0,1,.2,2.1.3,3,.5-1.4.4-2.7,0-4,0-.3.2-.5.4-.7.5-.5.2-.7,0-1.3v-.8c.4,1,.9,2,1.4,3,0-.6-.1-1.4-.2-2h0c.2,2.2.5,4.7.9,5.8.8,2.2-.6,4-.6,4l3.9-3.6c-.2,1.5-.3,2.5,0,2.2.6-.6,1-1.5,1.3-2.2.4.6,1,1.5,1.2,2.2,0,.3-.1.6-.2,1,0-.2.1-.3.2-.5,0,.2,0,.4-.2.5-1,.9.7,1.8.7,1.8l3.6-4.4-1.7,6.7s.4-.3,1.2-.7h0c0,.1,0,0,.2-.1,2.8-1.7,9.7-5.8,9.6-4.4,0,1.8-3,6-3,6,0,0,3.1-3.5,3.7-2.7s-1.9,5.9-1.9,5.9c0,0,2.4-3.1,3.5-2.1s-1.2,3.4-1.2,3.4l5-4.3h.3c-.3.4-.6,1-.9,1.7-.7,1.3-1.7,2.3-2.6,3,1.4-.9,3.1-2.2,3.8-2.4,1-.4-3.7,4.3-3.7,4.3,0,0,1.9-.7,2.2-.5.3.1-1.8,1.4-2.8,1.6s-2.3,1.7-2.3,1.7c0,0,4.3-.9,6.4-.8,2.1,0,.7.5-.5.9s-4.5,3-4.5,3c0,0,2.4-.9,3-.7.6.2-1.4,1.5-1.4,1.5,0,0,.6,0,1-.3s3.7-.6,5.2,0c.4.2.8.3,1.3.3-.6.2-1.2.4-1.4.4-.7.1-5,1-5,1,0,0,1.8,0,2,.3s-.7.6-1.4.9c-.6.3-2.7,1.7-2.7,1.7,0,0,2-.4,3.6-.6s2.8,0,3.6,0,.2.5-.3.6c-.5,0-2,.7-2,.7,0,0,1.3,0,2.7.5,1.5.4,2.5,2.1,2.4,2.5,0,.4-.9-.6-1.6-.8-.5-.2-2-.3-2-.3.5,0,3.1,1.2,3.2,1.6,0,.4,0,0-.9,0s-3.9.7-3.9.7h2.9c.6,0,1.9.8,1.8,1.3,0,.4-1.7.2-3,.4-1.4.2-3,1.3-3,1.3,0,0,1.5,0,2.3-.1.8,0,2.9.6,2.9.6,0,0,.5,2,.2,2.4-.7.4-1.6.9-1.6.9l.5.7-2.2,1.8,2.3.3,1.9-.9-1.2,3.1,1.9-1.8s-.2.1-.2.2c0,0,.3-.3.5-.7l-.3.5s-.2.9-.5,1.4c-.2.5-.4,2.1-.4,2.1,0,0,.2-.3.3-.6.1-.3.7-.8.9-1,.2-.2-.4,1.3-.8,1.9-.4.5-2,2.2-2,2.2,0,0,.7-.4,1.9-1.4,1-1,2-2.6,2-2.6,0,0-.6,4.5-.7,5.2s-1.8,3.1-1.5,3.1,1.7-2.4,2.1-2.3c.1,0,.2.3.1.7s-.4.8-.7.9c-.8.3,0,0,.4-.1,0,0,.2,0,.3-.1-.1,1-.4,2.3-.4,2.3,0,0,.6-.8.6-1s.2-1,.3-1.7c.1-.1.3-.3.4-.5.1-.1.2-.3.3-.5,0,0,.2.9.2,1.5s.5,6.3.5,6.9.4,2.2.5,2.8c-.6.9-.5,2.1.2,2.7,2.6.9,3.7.9,5.9,1.3h0c.3,0,.6.1,1.2.2,2.1.3,4,.1,5.9-.4.3,0,.5-.2.7-.3h0s.1,0,.2-.1c.9-.7,1-1.9,0-3-.4-.7-1.7-3.1-2.1-3.9s-2.2-1.6-2.5-1.9c-.3-.2-1.6-2.8-1.8-3.5s-1.6-7.3-1.9-8.6c-.1-.7-.3-4.4-.5-7.6h0c-.3-8.7-.7-17.3-1-26h.3c.6.5.8,1.4.6,2.1-.1.8-.4,1.6-.6,2.6.5-.7.8-1.2,1.3-1.8.7,2,0,3.7-.6,5.7.6-.7,1.2-1.4,1.7-1.9,0,.1.1.3.2.4v3.5c-.3,1-.9,4-1,4.9-.1.8-.2,1.7-.2,1.7,0,0,.9-2.3,1.2-1.8s-.7,4.6-.7,4.6c0,0,.7-1.7.9-1.3.3.3-.8,1.8-.7,2.2v1.8c0,.4-.2,1.8-.3,2.1-.1.3,1.2-.7,1.7-1.2.4-.4,1.2-1.5,1.2-.8s-2.7,4.1-3.1,4.5c-.4.5,0,1.3,0,1.3,0,0,1.4-2.2,1.5-1.9s-.2,1.8-.4,2.1c-.1.3-.4,2.5-.4,2.5,0,0,2.2-2.7,2.4-2.5.3.3-.9,2.3-1,2.5s0,3,.1,3.9c0,.8.2,1.2.6.7.4-.4,1.5-3.1,1.5-3.1,0,0,.3,1.4,0,2.4s-.3,2.1-.3,2.1c0,0,.5-1.5.7-1.4.2.1,1.5,3.4,1.5,3.4h0c.4,1.7.8,3.4,1.3,5,0,.8,2.3,1.8,4.2,2.5,1.2,1.9,6.7,2.3,10.9,1.9.5,0,1-.2,1.5-.3.1,0,.2,0,.3-.1,1.5-.6,1.9-2.3.6-3.8v.6c0-.3,0-.6-.2-.9.1.2.2.3.2.3,0,0-.7-1.9-1.6-2.9-.9-1-3.1-2.1-4.4-1.9s-3.7,0-3.7,0c0,0-1-1.2-1.5-1.8-.4-.6-1.7-4.9-1.8-5.2s-.8-6.4-.8-7.1c.1,1.2.3,2.2.4,3.4.1-.3.2-.6.1-.8,0-3.1-.3-6.3-.2-9.4.3-8.4,1-16.7,2.2-24.9,0-.4.3-.9.6-1.4.4-.4.9-.8,1.5-1.4h0c.1,0,.2-.2.3-.3h0l.3-.3h.1c.3,0,.4.2.5.3,0-.3,0-.7.1-1.2h0c.1-.1.2-.3.4-.4h0c.3-.3.7-.8.9-1.3.3.7,0,2,0,2l.8-2.4v.5s0,.7.2.5.8-2.8,1-3.1.3-.4.3,0,.1,3,.2,3.1c0,.2.2,1,.3.6,0-.3,0-3.7.2-4.7.3-1,1.5-2.8,1.7-3,.2-.2.4-.6.4-.8v-.4c.2-.2.3-.5.4-.6.4-1.2.5,1.6.5,1.6,0,0,.3-1.5.6-2.7.3,1.2.4,2.6.5,2.9.2.3,0-1.7,0-1.7,0,0,0-1.3-.2-2.3.1-.3.2-.6.3-.6.3-.2,1,.7,1,.7,0,0-1.2-3.1-1-4s.6,1.9.6,1.9c0,0-.4-3.6-.2-4.2,0-.4.8.8,1.4,1.7-.6-1.2-1.7-3.2-.6-3.5,1.4-.2,3,1.5,3,1.5l-.4-1.8c1.5.3,1.9,1.8,1.9,1.8.1-1.2-1.3-2-1.3-2,.5-.2,1.6-.4,2.4,0s1.4,1.6,1.4,1.4,0-.5-.2-1v-.2s0-.2-.2-.3c-.3-.8-.6-1.8-.6-1.8,0,0,0-2,.7-1.9.7,0,1.3,4,1.3,4,0,0,0-1.6-.6-3.4s.2-2.5,0-2.8c-.2-.4,1.3-5.3,1.3-4.8s.2,2.6.5,1.3c.2-1.3-.4-4,0-4.5.3-.4.7.9.9,1.6-.2-.8-.9-3-.9-3-.3-1.2-.7-6.1-.9-9.3h0c.1.8.3,1.8.4,2.6.2.8.4,1.8.6,2.6.2.8.5,1.7.7,2.5-.6-3.5-.5-6.8.3-10.3,0,.9.2,1.9.3,2.9h.2v-8.3c.3.5.7,1.3,1,1.7-.3-1.4-.8-2.8-.9-4.4-.2-2.4-.2-4.9-.2-7.3,1,1.6,1,3.4.8,5.1.8-2.6,1.7-5.3-.8-7.8,2.7,1.5,3.4,1.8,4.7,1.3-.7-.3-1.4-.6-2.1-.9v-.2h1.3c-.8-.5-1.8-.9-2.7-1.5v-.3c.9.3,1.8.5,2.5.8-.6-.7-1.4-1.5-1.9-2.2s-.8-1.6-1.3-2.4c.9,0,1.8.2,2.7.3-1.3-.7-2.5-1.4-3.5-2.6.7,0,1.5,0,2.2.1v-.2c-.4-.2-.8-.3-1.3-.5.7-.3,1.5-.6,2.2-.8-.8,0-1.6-.2-2.4-.3.6-.4.9-.7,1.4-1,.4-.3.7-.5,1.3-.9.2.2.3.4.5.6.9.8,2.2,1.3,2.9.7.9-.7.7-1.8.6-2.7-.2-1.8-.3-3.6-.5-5.4h1.2c-.5-.5-.9-1-1.5-1.5v-.2ZM15.9,132.3v-1.7,1.7ZM34.3,141.4c-.6,0,.2.7.1.8-.1-.1-.8-1.2-.1-.8ZM91.6,125.7h0ZM123,145c.2.1.4.3.6.5-.2-.2-.4-.3-.6-.5h0ZM118.9,144.5h0c-.5.1-.9.3-1.3.3h-.4c.4,0,1-.1,1.7-.3ZM113.9,96.5v-.3.3h0ZM126.9,37.9s0-.1.1-.2h0s-.1.1-.1.2ZM127.8,35.2h0Z"/>
</svg>