<?xml version="1.0" encoding="UTF-8"?>
<svg id="Livello_1" data-name="Livello 1" xmlns="http://www.w3.org/2000/svg" version="1.1" viewBox="0 0 630.9 67.6">
  <defs>
    <style>
      .cls-1 {
        fill: #fff;
        stroke-width: 0px;
      }
    </style>
  </defs>
  <g>
    <path class="cls-1" d="M500.9,34.1s.1.1.2.2c0,0-.2-.2-.2-.2Z"/>
    <path class="cls-1" d="M498.7,56.3h0Z"/>
    <path class="cls-1" d="M520.8,50.9c0-.4,0-2.5-.2-2.8-.2-.3-.5-1.4-.7-1.9-.2-.5-1.4-2.8-1.5-3.1-.1-.3-.9-1.3-.9-1.3l-.5-1s.3.8,0,.6c-.3-.2-.7-1.4-.7-1.4,0,0,.1.4-.1.3-.3-.1-1.2-1.3-1.2-1.3l-.2-.8s0,.5-.2.4c-.3-.1-.9-1.3-.9-1.3,0,0-.1.6-.3.5-.2,0-1.2-1-1.2-1,0,0,0,.3-.2.3s-.9-.5-1-.6-1.1-.4-1.1-.4c0,0,.4.4.1.4s-1.8-.7-1.8-.7c0,0,.2.2,0,.3h-.8c-.8,0-2.4,0-2.5,0s-.4-.3-1.2-.5c-.8-.3-1.1-.3-1.1-.2s-1.1-.7-1.2-.8c0,0-.2-.2-.3-.3h-.2c-.4,0-2-1.5-2-1.5-.4.3-2.2-.9-2.2-.9,0,0-1.2-.1-1.6-.4s-.6-.4-.6-.4c0,0,.2.4,0,.3s-1.9-.4-2-.3c-.2,0-1-.2-1-.2-.5.3-3.3,0-3.3,0,0,0,.5.1.4.2s-2.9.2-3,.3-.3.2-.3.2c0,0,.8-.4.8-.1,0,.3-.8.5-.8.5h-1.9c0,0-.7.3-.7.3,0,0,.9,0,.8.2s-1.2.4-1.4.5c-.2,0-1.9.5-2,.6s0,.3-.3.4c-.3,0-2.3.9-2.3.9,0,0,.6,0,.5,0,0,.1-.1.5-.3.6-.1,0-1.9.9-1.9.9,0,0,.9-.3.9-.2,0,.2-2,1.6-2.4,2-.3.4-.7.9-.7.9,0,0,.7-.4.8-.3s-.2.8-.4,1-1,1.3-1,1.3c0,0,.9-.5,1.1-.3.1.2.1.4-.2.7-.3.2-1.1,1.6-1.1,1.6,0,0,.7-.6.8-.3s0,1-.2,1.2-.8,1.2-.8,1.2c0,0,1.2-1.3,1.4-1s-.1.7-.3.9c-.2.2-1.1,1.9-1.2,2.2s0,.4,0,.4c0,0,.9-1,.9-.7,0,.3-.3.8-.4,1.1-.1.3-.8,1.9-.8,1.9,0,0,.5-.9.6-.4s-.6,1.7-.6,1.7c0,0,.9-.5,1-.4s-1,2.1-1,2.1c0,0,1.6-2.5,1.5-1.6,0,.8-.6,1.5-.7,1.7,0,.2-.6.8-.6.8,0,0,.9-.4.5.2,0,0-4.4.2-5.4,0s-5.9-.8-8.2-3c-2.6-2.5-3.8-3.6-.9-6.2,0,0,2.2-1.7,4.5-2.4,2.3-.7,3.9-1.3,3.7-1.5-.2-.3-.9-1-1.8-.9s-4.7.5-5.9,1.3c-1.2.8-3.9,3.6-4.1,4.8-.2,1.2-.4,2.7.5,4.3.9,1.5,3.5,4.1,5.4,4.7,1.9.7,6.1,1.5,7,1.5h4.3l.3.2s.2-.1.3-.2h.3l.2-.2c.3-.1.6-.2.5,0-.1.4-.2.3-.2.4s.5,0,1.4,0,.9.3.9.3c0,0,.4-.4.7-.2s-.3.5-.3.5c0,0,2,.2,2.2.4.1.2.9.6.8.6s1.6,0,2.1.2c.5.1,2.2-.2,2.2-.2,0,0,.2,0,0,.3-.2.2-1.9.8-1.9.8,0,0,2.8-.2,3.5-.3.7-.2,1.6-.5,1.3-.2-.3.3-1.4.8-1.4.8,0,0,1.8-.3,2.4-.5.6-.2,1-.4,1-.2s-.2.4-.2.4c0,0,.3-.1.8-.3.2.4.5.8.9.8.7,0,2,.2,2.7,0s1.5-.2,2.5-.3c0,0,1.5.2,1.9.3s.8.2,1.2.2h1.6c.3,0,.5.2.5.2h0c.2,0,.3.1.4.2.2,0,.2,0,.1-.2,0-.1-.5-.6-.5-.6h-.1q0,.1,0,0h.2v-.6c.4.1,1,.4,1,.4,0,0,.4.1.5,0,.1-.1-.3-.3-.3-.3-.3-.3-.3-.7-.3-.7v-.8s-.4-.9-.9-1-3.3.1-3.5,0c0,0,0-.2.1-.4.1,0,.3-.1.3-.1,0,0,1.4-1.2,1.3-.8s.7.1.7.1c0,0,.5-.3.5,0,0,.3-.6.5-.7.5.3,0,1.7-.5,1.8-.3,0,.3.3.3.3.3,0,0,1.4,0,1.9-.1s.8-.2.9,0-.3.5-.3.5c0,0,1.8-.8,2-.8.2,0,.2.6.2.6,0,0,1.3-1.3,1.5-1h.1c0,.2-.1.3-.1.3,0,0,.7.3.9.3s.8-.2,1.2-.2,1.2.1,1.4.2,1.1,0,1.3-.1,0-.4,0-.4c0,0,.3,0,.4-.2s-.3-.3-.3-.3v-.4c-.1,0,0-.2,0-.3,0-.2-.2-.3-.4-.4s-2.3,0-2.6.1c.5-.3,1.2-.8,1.1-.7,0,.2.9-.2.9-.2-.1.1,0,.2.2.1h.2c0,.1.9-.4.9-.4,0,0,.8-.4.8-.2s-.3.4-.3.4c0,0,.2,0,.4-.1h0c.3-.1.7-.2.7-.3.2-.2,1.4-.2,1.5-.2h.3c-1,1-2.9,3-3.3,3.3-.4.3-1.9,1.8-2,1.9,0,0,0,.2,0,.2h.2s1.5-1.5,2-1.9c.4-.3,3.2-3.2,3.3-3.3v-.2c.4,0,.9.1,1.1.1s0,0,.1,0c-.3.4-1.9,3-2.1,3.3-.2.4-1.2,1.5-1.2,1.5v.2h.2s1-1.2,1.2-1.6c.2-.4,2.1-3.4,2.1-3.4h0c.2,0,.5,0,.8,0-.2.5-.5,1.3-1,2.1-.8,1.3-1.2,2.1-1.2,2.1,0,0,0,.2,0,.2h0s.1,0,.1,0c0,0,.4-.8,1.2-2.1.5-.9.9-1.9,1.1-2.4h.1c0,0,.2-.2.3-.3,0,.2.2.5.1,1,0,.8-.1,1.9-.1,1.9,0,0,0,.2.2.2h0c0,0,.2,0,.2-.2,0,0,0-1.2.1-1.9,0-.7-.1-1.1-.2-1.2h0c.2.3.7.9.7,1.3.1.4,0,.8,0,.8,0,0,0,.2.1.2h0c0,0,.1,0,.1-.1,0,0,.1-.4,0-.9-.1-.4-.7-1.2-.8-1.4.1-.1.2-.2.3-.2,0,0,.2,0,.2,0,.3,0,.8,0,.9-.1.2-.1.2-.3.3-.5h0q0,0,0,0ZM496.5,56h-.1.1Z"/>
  </g>
  <g>
    <path class="cls-1" d="M508.1,24.7h.1c.7-.7,2.3-.7,3.3-.8h.5c1.3,0,1.9,0,2.2,0,0,0,0,0,0,.1-1.8.1-3.6.4-5,1,0,0,0,0,0,.1,0,0,0,0,.1,0s0,0,0,0c1.4-.5,3.1-.9,4.9-1-.1.3-.2.5-.1.8h0c0,.2,0,.7.2,1.2.2.4.3.5.4.5,0,0,0,.1.1.1.2.3.3.5.4.8-.7,1-1.2,2.2-1.4,3.2,0,0,0,.1,0,.1h0s.1,0,.1,0c.2-1,.7-2.2,1.3-3.1.2.2.4.4.9.5-.3,1.5-.4,3.1-.2,4.3,0,0,0,0,.1,0s0,0,0,0c0,0,.1,0,0-.1-.2-1.2-.1-2.7.2-4.2h.1c.2,0,.5.1.8.1v.4c0,.9.2,1.9.4,3.1,0,.1,0,.3.1.4,0,.2.1.5.2.7v.2h0c0,0,0,.1.1.1s0,0,0,0c0,0,0-.1,0-.2v-.2c0-.3-.1-.5-.2-.8,0-.1,0-.3-.1-.4-.2-1.2-.3-2.1-.4-3v-.4c.3,0,.7.1,1.1.2,0,.2.2.5.2.7.3.8.5,1.5.7,2.2,0,0,0,0,.1,0s0,0,0,0c0,0,0,0,0-.1-.2-.7-.5-1.5-.7-2.2,0-.2-.1-.3-.2-.5.4,0,.8.1,1.2.2.4.9.8,1.8.9,2.6,0,0,0,0,.1,0s0,0,0,0c0,0,.1,0,0-.1-.1-.8-.4-1.7-.8-2.6h0c.2,0,.4,0,.6.1-.1,0-.2.2-.3.2h.3c.1,0,.3,0,.4.1-.1.1-.2.2-.3.3.2,0,.4,0,.5,0,0,0,0,.1.1.2,0,0-.1,0-.2.1h.3c0,0,.1.1.1.2h0c.8,1.2,1.8,2.8,1.7,3.9,0,0,0,.1.1.1h0s.1,0,.1-.1c0-.4-.1-.9-.3-1.4.4-.2,1.2-.4,1.8-.4h.3-.1.2-.2c.1,0,.2,0,.3.1-.4.2-.9.4-1.3.7.5-.3,1-.3,1.8,0,0,.1,0,.3,0,.3.2,0,.3,0,.4,0,.2.2.3.4.5.6-.1,0-.3,0-.4.1h.4s0,0,.1.1h-.2.2c0,0,.1.2.2.2-.1,0-.3,0-.4.1-.2.1-.3.1-.4.1h.1-.5c.4.2,1,.4,1.5.4-.2,0-.3.2-.4.2h.2-.2c0,.1,0,.1-.1.1h-.5c-.9.2-2.8.9-3.3,1.4-.4,0-1.2.3-1.3.7-.2.4.5-.3,1.1-.2,0,.2.1.3,0,.4-.5,0-1,.4-1.2.9-.2.5.5-.5,1.1-.4v.2c-.3.3-.4.7-.4.9,0,.4.3-.3.7-.6.1,0,.2.1.3.2.8.2,1.4-.8,1.8-.7.1,0,0,.2,0,.4-.5-.2-1.2.8-1.2,1.4s.3-.6.9-.7c0,.2,0,.3.4.3,1,0,1.4-1,2.1-1.2.1,0,.3,0,.4-.1h0c.2,0,.6-.2.9-.5.2-.2.4-.4.5-.7.2,0,.3.1.4.1h0c.2,0,0,.2.2.3.2.1.3,0,.5,0,0,.1.1.2.1.3,0,0,.2-.1.2-.1s.1,0,.2.1h0c.2.1.4.2.6.3,0,0-.1.1-.2.2,0,0,.2-.1.3-.1s.1,0,.2,0c0,.1,0,.2-.1.3.2,0,.4-.1.5,0,0,0-.1.1-.2.2h.4c0,0,0,.2,0,.2.7,0,.9.3,1.5.5v.2c.2,0,.1.2.2.3.2.1.4,0,.6,0,0,.1.1.2.2.3.1-.1.3-.1.4-.3h0c.1,0,.2,0,.3-.2h0c.2-.1.2-.4.1-.4.1,0,.2,0,.3,0,0,.1-.1.3-.2.4h0c0,.1,0,.2,0,.3h0v.4c0-.1,0-.2.1-.3v.9c.1-.2.2-.5.4-.7,0,.2,0,.4,0,.7.1,0,.3-.2.4-.3.1,0,.2-.1.3-.2,0,.1-.1.2-.2.3.4-.1.8-.3,1.2-.4,0,.1-.1.2-.2.3h0c0,0-.1.1-.2.2,0,0,.2-.1.2-.2.2,0,.5-.1.8-.3h0c-.1.1-.2.3-.3.4h.7,0c.2.1.5.1.8,0h0c-.1,0-.2.1-.2.2h.3c-.3.4-.7,1-.8,1.2.2-.3.6-.5.9-.8-.1.3-.4.7-.8,1,0,.2-.2.3-.3.3,0,0,.1,0,.2,0-.2,0-.3.2-.4.3.4,0,1-.2,1.4-.4-.1.1-.2.3-.3.4.1,0,.2,0,.3-.1,0,0-.1.1-.2.2,0,0-.2.1-.2.1h0c-.1,0-.2,0-.3,0-.7.1-1.7.2-2,.2h.2-.2,0-.1c-2.4.2-5.6.2-6.3.1-.6,0-1.6,0-2.2.3-.3,0-.7.2-1,.4-.3.3,0,.2.4.1,0,.1,0,.2-.1.3h0c-.3.2-.4.5-.5.7,0,.3.2,0,.5-.3h0c0,.2.1.3.3.4h0c0,.1,0,.2-.1.3,0,.3.1,0,.3-.2.2,0,.4.1.6.1s.4,0,.7,0h0c.7.1,1.2.1,1.6.2v.2c0,.3.1,0,.3-.2h1.5c.4,0,1,0,1.6.1.3,0,.6,0,1,0h.2c.7,0,1.4.1,2,.1h1.8c.3,0,.5,0,.8-.2.1,0,.2,0,.3-.1.6-.3,1.3-.9,1.4-.9h0c.2-.1,1.5-.9,1.5-1.4v-.7h0c0,0,.2.1.2.2,0-.1.2-.2.2-.4,0,0,0,0,0,.1,0,0,0-.1,0-.2.2,0,.3-.2.4-.2-.1.3-.2.5-.3.8.2-.2.3-.3.4-.4h0c0,.1,0,.2,0,.3h0c0,0,0,.2,0,.2h0c-.1.2-.2.4-.2.5,0-.1.1-.2.2-.4,0,.1.1.2.2.2h.1c0,.1,0,0,0,0,0,0,.2.1.2.3h0c0,.2.1.3.2.5,0-.1.2-.2.3-.3,0,.2,0,.3-.1.5,0-.2.1-.4.2-.5,0,0,.2,0,.2-.1v.3c.2,0,.3-.2.4-.3.1.2,0,.6-.1.9.3-.2.7-.3.9-.4,0,.2-.1.4-.2.7.2-.1.3-.2.4-.3,0,.2,0,.3-.1.4.2-.2.4-.4.5-.5,0,.1,0,.2-.1.3.1-.1.2-.2.3-.3-.1.3-.2.7-.2,1,0-.3.2-.6.4-.9v.8c-.2.1-.3.2-.4.3.1,0,.3-.2.4-.2h0v.8c0-.3,0-.5.1-.8.1,0,.2-.1.3-.2-.1,0-.2.1-.3.2h0c0-.1.1-.2.2-.2h.2s0,0-.1.1c0,0,.1,0,.2-.1-.2.1-.3.2-.4.4.4-.2,1-.5,1.3-.8,0,.2-.1.3-.2.4.1,0,.2-.1.3-.2v.2c0,.2,0,.3-.1.5,0,0,0,.2-.1.2-.1.2-.3.4-.5.5-.4.2-.8.4-.9.4-.8.3-1.8.8-3,1-1.2.2-2.6.2-3.2.2-.9,0-1.9.1-2.1.5-.3,0-.6.2-.9.4-.5.4.3.2.8.1h.1c0,.1.1.2.2.3,0,0-.2.2-.2.2-.2.3,0,.1.4,0h0c.5.5,1.1.4,1.6.5.8.3,1.8.6,2.8.6s2.6-.4,3.4-.7h0s.1,0,.2,0c.3-.2.7-.3,1-.5.2-.1.4-.3.6-.4h0c0,0,.2-.1.2-.2.9-.5,2.7-1.8,3-2h0c.2-.2.3-.3.4-.5s.2-.4.1-.8v-.2c0-.2,0-.3-.1-.5,0-.2-.1-.3-.2-.4,0,0,0-.2,0-.2h0c0,0,.2,0,.3.1,0-.2.1-.3.1-.4h0v-.3h0q0,0,0,0h0c.3-.1.5-.2.8-.3,0,0,.2.1.3.1h0c.1,0,.2.1.4.2-.1,0-.2-.1-.3-.2.3,0,.5.2.8.3-.2-.2-.4-.4-.6-.5.2,0,.4.1.6.2,0-.2-.2-.5-.3-.7h0c.1,0,.2,0,.3.1v-.7c0-.1.1-.3.1-.4h0c0-.1,0-.3,0-.4v-.2c0,0,.1.2.2.2,0-.2.2-.4.2-.7h0c.2-.2.3-.4.3-.8,0,.1,0,.2.2.3.2-.5.1-1.1.2-1.6.3,0,.7-.1,1-.2,1-.1,2.2-.3,2.7-.3,2.7-.5,5-1.4,5-1.4.4-.2.9-.3,1.4-.4,1.8-.4,3.6-1.8,4.4-3.4s-.2-3.6-1.3-4.9c-1-1.3-4.8-3.1-5.6-4.5-.8-1.4-1.3-3.3-.9-4.6.4-1.3.9-4.4,1.6-5.3.6-1-1,.3-2,1.8-.9,1.5-1.6,4.9-.5,7.5s4.2,4.7,5.5,6.2c1.3,1.5,1.6,2.5,1.2,3.5-.3.9-3.1,2-7.3,2.8-.8.2-1.5.2-2.1.3h-2.7c0-.3,0-.5,0-.7h0c.1-.2.1-.5,0-.8,0,.1.2.2.3.2,0-.6-.3-1.2-.4-1.8,0,0-.2-.2-.2-.2v-.2c.1,0,.3,0,.4.1,0-.5-.4-.9-.4-1.4.2.1.4.2.5.3,0-.4-.4-.8-.7-1.2,0,0,.2.1.2.1v-.3c.1,0,.2.2.3.3,0-.2-.2-.3-.3-.5-.1-.8-.5-1.5-1.1-2.2.4.3,1,.5,1.5.7-.4-1.2-1.7-2.4-3-3.1.5.3,1.3.4,1.9.6-.8-.8-1.8-1.6-2.9-2.1,0,0,0-.1-.1-.2.7.2,1.4.2,2.1.2-.8-.8-1.9-1-3-1.4,0-.1-.2-.2-.2-.3.8.1,1.6.2,2.5.2-.9-.6-1.9-1.2-3.1-1.5h1.2c-.7-.3-1.5-.3-2.1-.7.4,0,.8-.1,1.2-.1-.8-.2-1.5-.5-2.2-.7,0,0,0,0-.1-.1h.2c-.1,0-.2,0-.3-.1-.4-.3-.8-.7-1.2-.9h.2c-.1,0-.3,0-.4-.1-2.9-1.9-5.5-2-6.5-2.2-1.1-.2-4.1.8-5.1,1.2h0c-.2,0-.3.1-.3.1-.1,0-.5,0-.9-.1,0,0,0-.1,0-.2.4-.9-.1-1.5-.8-1.6h-.2c-.4-.1-1.8,0-3,.6h-.2c-1-.3-2.2,0-3.2.2,0-.2,0-.3,0-.4,0,0,0,.1.1.2v-1c.1.1,0,0,.2.2,0-.2,0-.4-.1-.7v-.2c0,0,.2,0,.2.2q-.1-.3-.2-.5c0-.1-.1-.4-.2-.5,0,0,0-.1-.1-.1s-.2,0-.2,0h0s0,0-.1-.1c0,0,0,.2-.1.2v.2c0,0-.1.3-.2.2,0,0,0,.2,0,.2,0,0-.1-.1,0-.1v.3c-.1,0-.2-.2-.2-.2,0,0,.1.3.1.3h-.1q0,0,0,.1c0,0-.1,0-.2-.2v.4c-.1,0-.2,0-.3-.2.2.3,0,.2,0,.2v.2c0-.1,0-.2-.1-.3h0c0,.2,0,.5,0,.4,0,.1-.1.5-.2.4h0c0,.1-.1,0-.2,0,0,0-.2.4-.2.4h0c-.2,0-.3,0-.3,0,0,.3-.3.4-.3.4-.1.2-.2.7-.4.4.3.4,0,0-.1.5,0,0-.2.1-.2.1h0c-.5.1-.9.2-1.3.3-1.3.3-3.4,1.5-4.9,2.5-.4.3-.9.7-1.3,1h0c0-.1,0,0,0,0h0c0-.3.1-.7.2-1-.1.4-.2.8-.3,1.2,0,0-.1.1-.2.2-.4,0-1.1.8-1.5,1.3-1.4-2.6-4.4-4.7-7-5.6,0,0-.1,0-.1,0,0,0,0,.1,0,.1,2.5.9,5.6,3.1,6.8,5.6,0,0,0,.1-.1.1,0,0,0,0,.1-.1,0,0,.1.2.1.2,0,0-.1,0-.1.1h0c-.7-.9-2.7-2-3.2-2.2h-.1c.8.5,2.5,1.5,3.1,2.3-.1,0-.3.2-.4.2.1,0,.3-.1.4-.2h0c0,0-.1.1-.2.2,0,0,.1,0,.2,0-.2,0-.3.2-.4.3h0c.1,0,.3-.1.4-.2-.1,0-.3.1-.4.1-.4-.3-.9-.5-1.5-.7-1.4-.6-2.9-1.2-4.4-1.3h0s-.1,0-.1.1c0,0,0,.1.1.1,1.5.1,3.1.8,4.4,1.3.3.1.8.4,1.3.7-.1,0-.2,0-.3.1.1,0,.2,0,.3-.1.3.2.5.3.7.4,0,.1-.2.2-.2.3-1.9-1-4.8-1.2-6.6-1.1,0,0-.1,0-.1.1,0,0,0,.1.1.1,1.7-.2,4.6,0,6.4,1-.1.1-.2.3-.3.4-.3,0-1-.1-2.4,0h-.5c-1.1,0-2.8.1-3.5.8h0c0,.1.4.2.4.2ZM545.6,42.9h0ZM545.5,43h-.2c0,0,.2-.1.2-.2,0,0,0,.1,0,.2h0ZM524.6,31.2c0,0,.1,0,.2,0,0,0-.2.1-.3.2-.1-.2-.2-.4-.4-.7h.3c0,0,.1,0,.2.1,0,0,0,0,.1.1,0,0,0,.2-.1.2h0ZM523.9,30.5h0,0ZM514.7,22.5c.2,0,.4,0,.6-.2h0c0,.2-.1.3-.2.5-.1-.1-.3-.2-.4-.3h0ZM516.1,21c-.1.2-.3.5-.5.7,0,0,0-.2-.1-.2.2-.2.4-.3.6-.5h0ZM556.5,39.4h0c0,0,0,0,0,.1h0ZM548.5,45.3c0-.3.2-.6.4-.8h0c0,0,0,.1-.1.2,0,0,0-.1.1-.2h0c-.1.2-.2.4-.3.5,0,0-.1.2-.2.2h0ZM548.4,45.5c0-.2.1-.3.2-.5,0,.2,0,.3-.1.5h0ZM529.8,37c0,0,0-.1.1-.2.1,0,.2.1.4.2h0c-.2,0-.3,0-.4,0h0ZM522.3,30.1c.3,0,.5-.1.8,0-.1.1-.3.2-.5.2.2,0,.4,0,.6,0,0,0-.1.1-.2.1h.7c0,0,.1.2.1.2-.1,0-.2.1-.3.2h.3c.2.3.3.5.4.8-.2.1-.4.2-.6.3.2,0,.4-.2.7-.2,0,0,0,.1,0,.2h.1c.1,0,0,0,0,0,0,0,0,0,0-.1h0c0-.1.2-.1.2-.1.1,0,.3,0,.4.2-.1,0-.2.2-.3.2-.4.2-.9.4-1.3.7-.3-.8-.9-1.8-1.4-2.5h0ZM522.2,30h.2s0,0-.1,0h.3c-.2,0-.3,0-.4.1,0,0,0,0,0-.1h0ZM522,29.7h0,0ZM520.5,29.1h0ZM519,28.8h.2c0,0-.1,0-.2,0h0c0-.1,0,0,0,0Z"/>
    <path class="cls-1" d="M526.7,34.5h.7-.7Z"/>
    <path class="cls-1" d="M525.9,34.3c.3,0,.7.2.9.3-.3,0-.7-.2-.9-.3Z"/>
    <path class="cls-1" d="M539,42.8c-.3.2-.7.2-.9.3.3-.1.7-.2.9-.3Z"/>
    <path class="cls-1" d="M539.4,42.5h0c-.2.2-.4.3-.5.3.2-.2.4-.3.5-.3h0Z"/>
    <path class="cls-1" d="M555.5,43.6c.1,0,.3.1.4.2-.1,0-.3-.1-.4-.2Z"/>
    <path class="cls-1" d="M536.1,40.5c0,.2,0,.3,0,.4,0-.2,0-.3,0-.4Z"/>
    <path class="cls-1" d="M543.8,44.2c.1-.2.5-.5.8-.9-.2.3-.4.7-.8.9Z"/>
    <path class="cls-1" d="M547.4,45.3c0,.2,0,.3-.1.4,0-.1,0-.3.1-.4Z"/>
    <path class="cls-1" d="M546.4,45.9c0-.2.4-.4.7-.7-.1.3-.3.5-.7.7Z"/>
    <path class="cls-1" d="M547.8,45c-.1.2-.2.4-.2.5,0-.2.1-.4.2-.5Z"/>
    <path class="cls-1" d="M546.2,45.3c0-.1.1-.2.2-.3,0,.2-.2.3-.2.3Z"/>
  </g>
  <g>
    <path class="cls-1" d="M621.5,32.1c-1.5-.7-5.7-.6-7.1-1.5-1.4-.9-2.7-2.3-2.9-3.6-.3-1.3-1.2-4.3-1.1-5.4.1-1.1-.8.7-.9,2.5-.1,1.8.8,5.1,3,6.9,2.2,1.7,5.9,2.2,7.7,2.9s2.5,1.5,2.7,2.5-1.9,3.2-5.2,5.8c-.6.5-1.2.9-1.8,1.2h0s0,0-.3.2c-.7.4-1.3.7-1.8.9h-.3c0,0-.2-.3-.4-.4,0,0,0,0,.1,0,0-.3-.2-.6-.4-.8.1,0,.2,0,.3.1-.3-.5-.9-.9-1.2-1.4,0,0-.2,0-.3-.1,0,0,0-.2,0-.2.1,0,.3,0,.4,0-.2-.4-.7-.6-1-1.1.2,0,.4,0,.6,0-.3-.4-.7-.5-1.1-.8,0,0,.2,0,.2,0,0-.1-.1-.2-.2-.3.1,0,.3,0,.4.1-.1-.1-.3-.3-.6-.4-.5-.6-1.2-1.1-2-1.5.5,0,1.2,0,1.7,0-.9-.8-2.6-1.3-4.1-1.4.6,0,1.3-.2,2-.4-1.1-.4-2.3-.6-3.5-.6,0,0-.1,0-.2-.1.7-.2,1.4-.4,2-.8-1.1-.3-2.1,0-3.3.1-.1,0-.2,0-.3-.1.8-.3,1.6-.6,2.3-1-1.1-.1-2.2-.2-3.4.1.3-.2.7-.4,1.1-.6-.7,0-1.5.4-2.2.4.3-.2.7-.5,1-.6-.8.2-1.6.3-2.4.4,0,0,0,0-.1,0,0,0,.1,0,.2,0-.1,0-.2,0-.3,0-.5-.1-1-.2-1.4-.2,0,0,.1,0,.2-.1-.1,0-.3,0-.5,0-3.4-.3-5.7.7-6.7,1-1.1.3-3.2,2.5-4,3.4,0,0,0,0,0,0,0,0,0,0,0,0-.1.1-.2.2-.2.3,0,.1-.4.2-.9.3,0,0,0-.1,0-.2,0-1-.8-1.3-1.4-1,0,0,0,0,0,0h0s0,0,0,0c0,0-.1,0-.2,0-.4,0-1.6.8-2.4,1.9,0,0-.1,0-.2,0-1,.2-2,1-2.7,1.7,0-.1-.1-.3-.1-.4,0,0,0,0,.2.2-.1-.4-.4-.6-.5-.9.2,0,0,0,.2.1-.1-.2-.2-.4-.4-.6,0,0,0,0,0-.1,0,0,.2,0,.3,0-.2-.2-.2-.2-.4-.4,0,0-.3-.3-.4-.3,0,0,0,0-.1,0,0,0-.2,0-.2,0,0,0,0,.1,0,.1,0,0,0,0,0,0,0,0-.1,0-.1,0,0,0,0,.2,0,.2h-.1c0,0,0,.2,0,.1,0,0,0,.2,0,.2,0,0-.1,0-.1,0v.2s0,0-.2-.1c0,0,.2.2.2.2,0,0-.1,0-.2,0,0,0,.1,0,.2.2,0,0-.1,0-.2,0,.1.2.1.2.2.4-.1,0-.2,0-.3,0,.3.2.1.1,0,.1,0,0,.2.1.2.1-.1,0-.2-.1-.3-.2,0,0,0,0,0,0,.2.2.2.5.1.4.1,0,.1.5,0,.5,0,0,0,0,0,0,0,0,0,0,0,0,0,0-.1,0-.2,0,0,0,0,.4,0,.5,0,0,0,0,0,0-.2,0-.2.2-.2.2,0,.2-.1.6-.1.6,0,.2.2.6-.2.5.5.2,0,0,.2.5,0,0,0,.2-.2.2,0,0,0,0,0,0-.4.3-.8.6-1.1.9-1,.8-2.3,2.9-3.2,4.5-.5.9-.8,2-1,3-.2.2-.3.4-.4.5,0-.1.2-.3.3-.4,0,.2,0,.3,0,.5,0,0,0,0-.1.1,0,.1-.1.2-.2.3,0,0,0,0,0,0,.1,0,.2-.2.3-.3,0,0,0,0,0,0-.1,0-.2.1-.3.2-2.4-1.6-6.1-2.2-8.7-1.8,0,0,0,0,0,.1,0,0,0,0,.1,0,2.6-.4,6.2.1,8.5,1.7,0,0,0,0,0,0,0,0,0,0,0,0,0,0,0,0,.1,0,0,0-.2,0-.3.1-1.1-.4-3-.4-3.4-.4,0,0,0,0,0,0,0,0,0,0,0,0h0c.7,0,2.2,0,3.2.3,0,0-.2,0-.3.1.1,0,.2,0,.3-.1.4.1.7.3.9.5,0,.1,0,.3,0,.4-.5-.1-1.4-.1-2.3,0-1.5,0-3.1.2-4.5.8,0,0,0,0,0,.1,0,0,0,0,0,0s0,0,0,0c1.4-.6,3-.7,4.5-.8.5,0,1.7-.1,2.3,0,0,.1,0,.2,0,.4-2.1,0-4.9,1.1-6.3,2,0,0,0,0,0,.1,0,0,0,0,0,0s0,0,0,0c1.4-.9,4.1-2.1,6.2-2,0,.2,0,.3,0,.5-.4.1-1.1.5-2.1,1-.1,0-.3.2-.4.3-1,.6-2.4,1.4-2.7,2.3,0,0,0,0,0,.1,0,0,0,0,0,0,0,0,0,0,0,0,.3-.9,1.7-1.7,2.6-2.2.2,0,.3-.2.4-.3,1-.6,1.6-.9,2-1,0,0,0,0,0,.1-1.5.9-3,2-4,3.2,0,0,0,0,0,.1,0,0,0,0,0,0s0,0,0,0c1-1.1,2.4-2.2,3.9-3.1,0,.3.1.5.3.7,0,0,0,0,0,0,0,0,.2.5.7.9.4.2.5.3.6.3,0,0,.1,0,.2,0,.3.2.5.4.7.5-.2,1.2,0,2.5.3,3.5,0,0,0,0,0,0s0,0,0,0c0,0,0,0,0-.1-.3-1-.4-2.2-.3-3.4.3.1.6.1,1.1,0,.4,1.5,1,3,1.8,3.9,0,0,0,0,0,0s0,0,0,0c0,0,0,0,0-.1-.7-.9-1.3-2.4-1.7-3.8,0,0,0,0,.1,0,.2,0,.5-.2.8-.3,0,.1.2.3.2.4.5.8,1,1.6,1.7,2.5,0,0,.2.2.2.3.2.2.3.4.5.6,0,0,0,0,0,0,0,0,0,0,0,0,0,0,0,0,.1,0s0,0,0,0c0,0,0-.1,0-.1s0,0,0-.1c-.1-.2-.3-.4-.5-.6,0,0-.2-.2-.2-.3-.7-.9-1.3-1.7-1.7-2.5,0-.1-.1-.3-.2-.4.3-.1.7-.2,1.1-.4.2.2.4.4.6.6.6.5,1.1,1.1,1.6,1.6,0,0,0,0,0,0s0,0,0,0c0,0,0,0,0-.1-.5-.5-1.1-1-1.6-1.6-.1-.1-.3-.3-.4-.4.4-.1.8-.3,1.2-.4.8.6,1.5,1.2,2,1.9,0,0,0,0,0,0s0,0,0,0c0,0,0,0,0-.1-.5-.7-1.2-1.3-1.9-1.9,0,0,0,0,0,0,.2,0,.4,0,.6-.2,0,.1-.1.2-.2.3,0,0,.2-.1.2-.2,0,0,0,0,0,0,0-.1.2-.2.4-.2,0,.1,0,.3-.1.4.2,0,.3-.2.5-.3,0,0,0,0,.1,0,0,0,0,.1-.1.2,0,0,.2,0,.3-.1,0,0,.1,0,.2.1,0,0,0,0,0,0,0,0,0,0,0,0,1.2.7,2.8,1.7,3.3,2.7,0,0,0,0,0,0s0,0,0,0c0,0,0,0,0-.1-.2-.4-.5-.7-.9-1.1.3-.4.8-.8,1.4-1.1,0,0,.2,0,.2-.1,0,0,0,0,0,0,0,0,.1,0,.2,0,0,0,0,0-.1,0,.1,0,.2,0,.3,0-.3.4-.6.8-.8,1.1.3-.6.8-.7,1.5-.8,0,.1.1.2.1.3.1,0,.3,0,.4-.1.2,0,.5.2.7.3,0,0-.2.2-.3.3,0,0,0,0,0,0-.2.2-.5.4-.8.7,0,0,0,0,0,0,0,0,0,0,0,0-.6.6-1.2,1.4-1.4,1.8-.4.3-.9.8-.9,1.2,0,.5.3-.5.9-.7,0,.1.2.2.2.3-.4.3-.7.9-.7,1.3,0,.5.2-.7.8-.8,0,0,0,.1.1.2,0,.4-.1.8,0,1,.2.4,0-.4.3-.9.1,0,.2,0,.3,0,.8-.2.8-1.4,1.2-1.4.1,0,.1.2.1.4-.6,0-.7,1.3-.5,1.7.2.5,0-.7.5-1.1,0,.2.2.2.5,0,.9-.5.8-1.6,1.3-2,.1,0,.2-.2.3-.3,0,0,0,0,0,0,0,0,.2-.2.4-.5.4-.1.7,0,1.2,0,0,0,0,0,0,0-.2,0-.4.1-.5.2.2,0,.4,0,.6-.1,0,0,0,0,0,0,.2,0,.2.2.3.2.2,0,.3,0,.5-.2,0,0,.2.1.2.2,0,0,0-.1.1-.2,0,0,.2,0,.2,0,0,0,0,0,0,0,0,0,0,0,.1,0,.2,0,.4,0,.6,0,0,0,0,.2,0,.2,0,0,.1-.2.2-.2,0,0,0,0,.1,0,0,.1,0,.3,0,.4.1-.2.3-.3.5-.3,0,0,0,.2,0,.2,0,0,.3-.1.4-.2,0,0,0,.2,0,.2.6-.4.9-.1,1.6-.3,0,0,0,.1,0,.2.2,0,.2.2.3.2.2,0,.3-.1.5-.2,0,0,.2.1.3.2,0-.1.2-.2.2-.4,0,0,0,0,0,0,.1-.2.1-.4,0-.5,0,0,0,.2,0,.2,0-.2,0-.5-.1-.5.1,0,.2,0,.3,0,0,.1,0,.2,0,.4h0c0,.1,0,.2,0,.2,0,0,0,.1,0,.2,0,0,0,0,0,0,0,.1,0,.3.1.4,0-.1,0-.3,0-.4.1.2.3.5.4.8,0-.3,0-.5,0-.8,0,.2.2.4.2.6,0,0,.1-.2.2-.3,0-.1.2-.3.3-.4,0,.1,0,.2,0,.4.3-.3.6-.6.9-.9,0,.1,0,.2,0,.3,0,0,0,0,0,0,0,0,0,.2,0,.3,0-.1,0-.2.1-.3.2,0,.4-.3.5-.5,0,0,0,0,0,0,0,.2,0,.3,0,.5.2,0,.5-.2.7-.4,0,0,0,0,0,.1.3,0,.6-.2.8-.3,0,.1-.1.2-.1.3,0,0,.1-.1.2-.2,0,.5,0,1.2-.2,1.5,0-.4.3-.7.4-1,0,.3,0,.8-.2,1.2,0,.2,0,.3-.1.5.2-.2.4-.4.5-.6-.2.3-.5.6-.6.9.1,0,.3-.2.4-.4-.1.1-.2.3-.2.4-.3.2-.5.4-.6.8-.2.6.3,0,.7-.3,0,0,0,0,0,0,0,0,.2.2.4.2-.1.2-.2.4-.2.5,0,.4.2,0,.5-.4.6.2,1-.1,1.5-.3-.1.2-.2.4-.2.5.1.3.8-.7,1.4-.7.1,0,.2,0,.3-.1.4-.1.9-.3,1.3-.5.7-.4,1.5-1,2.2-1.6,0,0,0,0,0,0,0,0,0,0,0-.1.2-.2.4-.4.5-.5,0,0,0,0,0,0,0,0,0,0,0,0,0,.2,0,.4,0,.5,0-.2.1-.4.2-.5,0,.2,0,.3.1.5,0-.3.1-.6.3-.8,0,.1,0,.2,0,.3,0-.2,0-.4.2-.5,0,.3.1.7.3.9,0-.3,0-.6-.1-1,0,.2.2.4.3.7,0,.1-.2.3-.3.4,0-.1.2-.3.3-.4,0,0,0,0,0,0,0,0,0,0,0,0,0,0,0,0,0,0,.1.2.2.5.3.7,0-.3-.2-.5-.3-.8,0,0,0-.2.1-.2,0,0,0,.1-.1.2,0,0,0,0,0-.1,0,0,0-.1,0-.2,0,0,0,0,0,0,0,0,0,0,.1,0,0,0,0,.1,0,.2,0,0,0-.1.1-.2,0,.2-.1.3-.2.5.3-.3.6-.9.8-1.3,0,.2,0,.3,0,.5.1-.2.3-.5.3-.7,0,.1.1.3.2.4,0-.2,0-.3,0-.5.1.1.3.2.4.3,0-.2,0-.4.2-.5,0,0,0,.1.1.2,0,0,.1-.3.1-.4,0,0,.1,0,.2.1.2-.7.6-.7.9-1.2,0,0,0,0,.1,0,.1-.2.2,0,.3,0,.1-.1.2-.3.2-.5,0,0,.2,0,.3,0,0-.1,0-.3-.1-.4,0,0,0,0,.1,0,0-.1,0-.2-.2-.3,0,0,0,0,0,0,0,0,0,0,0,0,0,0,0,0,0,0,0,0,0,0,0,0,.2-.2.4-.5.6-.7,0,0,0,0,0,0,0,0,.1,0,.2,0,0,0,0,0,0,0,.3,0,.6,0,.8,0-.2,0-.5,0-.8,0,.3,0,.6-.1.9-.1-.3,0-.5-.1-.8-.2.2,0,.4,0,.6,0-.2-.2-.4-.3-.6-.5,0,0,0,0,0-.1.1,0,.2,0,.3,0,0-.2-.2-.4-.3-.5,0-.1,0-.3,0-.4,0,0,0,0,0,0,0-.1,0-.3-.1-.4,0,0,0-.2,0-.3,0,0,.2,0,.3.1,0-.2,0-.5-.2-.7,0,0,0,0,0,0,0-.4,0-1-.3-1.2,0,.3.3.5.5.6-.1-.5-.4-1-.6-1.5.3-.2.5-.4.8-.6.8-.5,1.8-1.2,2.3-1.6,2.2-1.7,3.7-3.5,3.8-3.5.3-.3.6-.6,1-1,1.4-1.2,2.3-3.2,2.4-5,0-1.8-1.8-3-3.3-3.7ZM581.3,55.8s0,0,0,0c0,0,0,0,0,0,0,0,0,0,0,0ZM570,51.9s0,0,0,0c0,0,0,0,0,0,0,0,0,0,0,0ZM601.2,59.2c-.1,0-.2.2-.3.2.1-.1.2-.2.3-.4,0,0,0,0,0,.1ZM569.8,51.7s0,0,0,0c0,0,0,0,0,0,0,0,0,0,0,0ZM569.6,51.9s0,0,0,0c0,0-.1,0-.2.1,0,0,0,0,0,0,0,0,.2,0,.2-.1ZM569.5,52c0,0,.2,0,.3,0,0,0,.1,0,.2.1,0,0,0,0,0,0s0,0,0,0c0,0,0,.2,0,.2-.1,0-.3-.2-.5-.3ZM576.1,56.5c0,0,.1,0,.2,0,0,0,0,0-.1.1,0,0,0,0,0,0ZM579.2,55.9s0,0,0,0c0,0,0,0,0,0,0,0,0,0,0,0ZM579.6,56s0,0,0,.1c0,0,0,0,0,0l.2-.2c-.1.1-.2.2-.3.3,0,0,0,0-.1,0,0,0,.1,0,.2-.1ZM582.8,56.6c-.3.4-.6.8-.8,1.2-.7-.6-1.6-1.2-2.4-1.6.2-.2.4-.4.7-.4,0,.1-.2.3-.3.4.1-.1.3-.2.5-.2,0,0,0,.1,0,.2.2-.1.4-.2.5-.3,0,0,.1,0,.2.1,0,0-.1.2-.2.2,0,0,.2-.1.3-.2.3.2.5.3.7.5-.1.2-.3.4-.4.6.2-.2.3-.3.5-.5,0,0,0,0,.1,0,0,0,0,0,0,0,0,0,0,0,0,0,0,0,0,0,0-.1,0,0,0,0,0,0,0,0,.1,0,.2-.1.1,0,.3,0,.4,0,0,0,0,.2-.1.3ZM582.3,56.1c0,0-.1.2-.2.3-.2-.1-.4-.3-.7-.4,0,0,.2-.1.3-.1,0,0,0,0,0,0,0,0,0,0,0,0,0,0,.1,0,.2,0,0,0,0,0,.1,0,0,0,0,.1,0,.2,0,0,.1,0,.2,0ZM609.8,57.8c0-.2,0-.4-.1-.5,0,.2,0,.3.2.5,0,0,0,0,0,0ZM609.8,57.5c0-.3,0-.6,0-.9,0,0,0,.1,0,.2,0,0,0-.1,0-.2,0,0,0,0,0,0,0,.2,0,.5,0,.7,0,0,0,.1,0,.2ZM614.2,48.7s0,0,0,.1c0,0,0,0,0,0,0,0,0,0,0,0Z"/>
    <path class="cls-1" d="M600.3,59.8c-.2.2-.5.5-.7.7.2-.2.5-.4.7-.7Z"/>
    <path class="cls-1" d="M600.1,59.9c.1-.1.3-.3.3-.5,0,0,0,0,0,0-.1.1-.3.4-.4.6Z"/>
    <path class="cls-1" d="M596.6,59.1c0,.1,0,.3.1.4,0-.1,0-.3-.1-.4Z"/>
    <path class="cls-1" d="M608.9,58.5c0-.1,0-.2,0-.3,0,.1,0,.2,0,.3Z"/>
    <path class="cls-1" d="M609.1,58.3c0-.2,0-.4,0-.6,0,.2,0,.4,0,.6Z"/>
    <path class="cls-1" d="M608.5,58.2c-.1.3-.2.7-.2.9.2-.3.3-.6.2-.9Z"/>
    <path class="cls-1" d="M607.8,58.7c0,0,0-.2,0-.4,0,.1-.1.3,0,.4Z"/>
  </g>
</svg>