<?xml version="1.0" encoding="UTF-8"?>
<svg id="Livello_1" data-name="Livello 1" xmlns="http://www.w3.org/2000/svg" version="1.1" viewBox="0 0 283.5 158.4">
  <defs>
    <style>
      .cls-1 {
        fill: #fff;
        stroke-width: 0px;
      }
    </style>
  </defs>
  <g>
    <path class="cls-1" d="M83.8,47.5s.2.2.4.4c0-.1-.4-.4-.4-.4Z"/>
    <path class="cls-1" d="M79.9,88s0,0,0,0c0,0,0,0,0,0Z"/>
    <path class="cls-1" d="M120.2,78.2c0-.8,0-4.6-.3-5.1-.3-.6-.9-2.6-1.3-3.5-.3-.9-2.5-5.1-2.8-5.7-.2-.6-1.7-2.3-1.7-2.3l-.9-1.8s.5,1.4,0,1.1c-.5-.3-1.3-2.6-1.3-2.6,0,0,.2.8-.2.6-.5-.2-2.1-2.3-2.1-2.3l-.3-1.4s0,.9-.4.7c-.5-.2-1.7-2.3-1.7-2.3,0,0-.2,1.1-.6,1-.4,0-2.1-1.9-2.1-1.9,0,0,.1.6-.3.6-.5,0-1.6-.9-1.9-1.1s-2-.8-2-.8c0,0,.7.7.2.8s-3.2-1.2-3.2-1.2c0,0,.4.4,0,.5-.4,0,0,0-1.4,0s-4.3-.1-4.5-.1-.8-.5-2.2-1c-1.4-.5-2-.6-2-.4s-2-1.2-2.2-1.4c-.1,0-.4-.4-.6-.6,0,0-.1,0-.4,0-.8,0-3.6-2.7-3.6-2.7-.7.5-4.1-1.7-4.1-1.7,0,0-2.2-.2-3-.7-.8-.5-1.1-.7-1.1-.7,0,0,.3.7,0,.6s-3.4-.7-3.7-.6c-.3,0-1.9-.4-1.9-.4-.9.5-6.1,0-6.1,0,0,0,.9.2.8.4s-5.3.4-5.5.6-.6.4-.6.4c0,0,1.4-.8,1.5-.2,0,.6-1.5.9-1.5.9s-3.5.1-3.5.1l-1.2.4s1.7,0,1.4.3-2.2.8-2.6,1c-.4.1-3.4.9-3.6,1.1-.2.2,0,.6-.5.7-.5.1-4.2,1.7-4.2,1.7,0,0,1.1-.1,1,0-.1.2-.2.9-.5,1.1-.2.1-3.4,1.7-3.4,1.7,0,0,1.6-.6,1.7-.3,0,.3-3.7,3-4.3,3.7-.5.7-1.3,1.7-1.3,1.7,0,0,1.2-.8,1.5-.5.3.3-.4,1.4-.8,1.8-.4.4-1.9,2.3-1.9,2.3,0,0,1.7-.9,2-.6.2.3.2.8-.3,1.2-.5.3-2,3-2,3,0,0,1.2-1.1,1.4-.6.2.5-.1,1.9-.4,2.2s-1.4,2.1-1.4,2.1c0,0,2.1-2.3,2.5-1.8.4.5-.2,1.3-.6,1.7-.4.4-2,3.5-2.1,4s0,.8,0,.8c0,0,1.7-1.9,1.6-1.3,0,.6-.5,1.5-.8,2-.2.5-1.4,3.5-1.4,3.5,0,0,1-1.6,1.1-.7.1.9-1.1,3.1-1.1,3.1,0,0,1.7-.9,1.8-.7s-1.8,3.8-1.8,3.8c0,0,2.9-4.5,2.7-2.9-.1,1.5-1.1,2.8-1.3,3.1-.1.3-1.1,1.4-1.1,1.4,0,0,1.6-.8.9.3,0,0-8,.3-9.9,0-1.9-.3-10.8-1.5-14.9-5.4-4.8-4.6-6.9-6.6-1.7-11.4,0,0,4-3.1,8.2-4.4s7.1-2.3,6.8-2.8c-.3-.5-1.6-1.8-3.2-1.6-1.6.2-8.6,1-10.7,2.3-2.1,1.4-7.1,6.6-7.4,8.7-.4,2.1-.7,5,1,7.8,1.6,2.8,6.3,7.4,9.8,8.6,3.5,1.2,11.2,2.8,12.7,2.8h7.8l.5.3s.3-.2.6-.3h.6l.3-.4c.6-.2,1.1-.4,1,0-.2.7-.3.6-.4.8s.9,0,2.6,0c1.7,0,1.7.5,1.7.5,0,0,.8-.7,1.2-.4s-.5,1-.5,1c0,0,3.7.3,4,.7.2.4,1.7,1.1,1.4,1.1-.3,0,2.9,0,3.8.3,1,.2,4.1-.4,4.1-.4,0,0,.4.1,0,.5-.3.3-3.5,1.4-3.5,1.4,0,0,5.1-.3,6.3-.6,1.3-.3,2.9-1,2.3-.4-.6.6-2.6,1.5-2.6,1.5,0,0,3.3-.5,4.4-.9,1.1-.4,1.9-.8,1.8-.4s-.4.8-.4.8c0,0,.6-.2,1.4-.5.3.7.9,1.5,1.6,1.5,1.2,0,3.7.3,4.9,0s2.8-.4,4.6-.5c0,0,2.8.4,3.4.6.6.2,1.5.3,2.2.3s2.4,0,2.9,0c.5,0,.9.4.9.4,0,0,0,0,0,0,.3,0,.6.2.8.3.4.1.3-.1.2-.4,0-.2-1-1.1-1-1.1l-.2.2s0,0,0-.1h.3c0,0,0-1.1,0-1.1.7.2,1.8.7,1.8.7,0,0,.7.2.9,0,.2-.2-.5-.5-.5-.5-.5-.5-.6-1.2-.6-1.2v-1.5s-.8-1.7-1.7-1.8-6.1.2-6.3,0c0,0,0-.4.2-.8.2,0,.5-.2.5-.2,0,0,2.6-2.1,2.4-1.5s1.3.2,1.3.2c0,0,1-.5.9,0,0,.5-1.1.9-1.3.9.5-.1,3.1-.9,3.2-.5,0,.5.5.6.5.6,0,0,2.5,0,3.5-.2s1.5-.3,1.6,0-.5,1-.5,1c0,0,3.3-1.5,3.6-1.4.3.1.4,1.1.4,1.1,0,0,2.3-2.4,2.7-1.9,0,0,.1.1.2.2-.1.2-.2.4-.2.4,0,0,1.3.5,1.7.6s1.4-.3,2.1-.3c.7,0,2.1.2,2.5.3s2,0,2.4-.2,0-.8,0-.8c0,0,.5,0,.7-.4.2-.4-.6-.6-.6-.6l-.2-.8s.3-.3.2-.6c0-.3-.4-.5-.8-.7-.4-.2-4.2.1-4.7.2.9-.6,2.1-1.4,2-1.2-.1.4,1.6-.4,1.6-.4-.2.2,0,.3.4.2l.3.2,1.6-.9s1.5-.7,1.5-.3c0,.4-.5.8-.5.8,0,0,.4,0,.8-.2,0,0,0,0,0,0h0c.5-.2,1.2-.4,1.3-.6.3-.4,2.5-.3,2.8-.3s.3,0,.6,0c0,0,0,0,0,0-1.8,1.9-5.3,5.5-6,6-.8.6-3.5,3.3-3.7,3.4-.1.1-.1.3,0,.4,0,0,.1,0,.2,0s.1,0,.2,0c0,0,2.8-2.8,3.6-3.4.8-.6,5.8-5.8,6-6,0-.1,0-.3,0-.4.7,0,1.7.2,2,.2s.1,0,.2,0c-.5.8-3.4,5.5-3.8,6.1-.4.7-2.2,2.8-2.2,2.8,0,.1,0,.3,0,.4,0,0,.1,0,.2,0s.1,0,.2,0c0,0,1.8-2.2,2.2-2.9.4-.7,3.9-6.2,3.9-6.2,0,0,0,0,0-.1.4,0,1,0,1.4,0-.4.9-1,2.4-1.9,3.9-1.4,2.4-2.2,3.9-2.2,3.9,0,.1,0,.3.1.4,0,0,0,0,.1,0,0,0,.2,0,.2-.1,0,0,.8-1.5,2.2-3.9,1-1.7,1.7-3.4,2-4.3,0,0,.1,0,.2,0,.1-.1.3-.4.6-.6.1.3.3.9.2,1.8,0,1.4-.2,3.5-.2,3.5,0,.1.1.3.3.3h0c.1,0,.3-.1.3-.3,0,0,0-2.1.2-3.5,0-1.2-.2-2-.3-2.2,0,0,0,0,0,0,.4.6,1.2,1.7,1.3,2.3.2.8,0,1.4,0,1.4,0,.1,0,.3.2.3,0,0,0,0,0,0,.1,0,.2,0,.2-.2,0,0,.2-.8,0-1.7-.2-.8-1.2-2.1-1.5-2.6.2-.2.4-.3.5-.4.1,0,.3,0,.4-.1.5,0,1.4,0,1.7-.2.4-.2.3-.5.5-.9,0,0,0,0,0-.1ZM75.9,87.4h-.2c0,0,.2,0,.2,0Z"/>
  </g>
  <g>
    <path class="cls-1" d="M110.8,121.8v.3s.1,0,.1,0c4.1-2.3,8.5-1.2,10.4-.4-.2.3-.3.6-.4.9-1.8-.4-4.9-.6-7.7.9v.3s.1,0,.1,0c2.7-1.4,5.7-1.2,7.5-.8-.1.7,0,1.3.3,1.7,0,0-.2.1-.3.2-.1.1,0,.4.1.5.2.3.4.6.7.8,0,0,0,0,0,0h.1c.6,1.8,2.6,2.5,3.7,2.7.9,1.3,2.7,4.5,2.2,8.2h.4c.5-3.5-1.1-6.6-2.1-8.1.1,0,.2,0,.2,0,0,0,.4,0,.8-.2,1.3,1.5,4,5.4,3.1,10.1h.3c.8-4.9-2-8.8-3.2-10.3,0,0,0-.2.1-.3.6.1,1.2.3,1.7.5,1.6,1.5,3.5,4,3.9,7.4h0c0,.1.4.1.4.1-.3-3.1-1.9-5.5-3.5-7,2.9,1.8,6.3,1,8.2.5,1.1-.3,2.3-.3,3.4,0,4,1.1,6.9,3.2,8.7,5.5,1.5,2.2,3,5.2,3.5,8.2,0,0-.2,0-.3,0-1.2-.3-3.5-.5-4.6,1.1,0,.1.3.1.5.1h.3c-1.1.5-1.6,1.1-1.6,1.3h0c.1.3.7.8,1.9.8h-.3c-.4.1-.7.3-.4.4,1.5.9,3.4,0,4.5-.7-.2,1.2-.6,2.3-1.4,3.4-.1.1-.1.4-.1.5,0,0,0,.2,0,.3-1.2.3-3.2,1-3.5,2.8,0,.3.3.1.5-.1h.3c-.9.9-.9,1.6-.9,1.9h0c.2.1.8.3,1.7.2-.1.3-.4.5-.1.5h.1c1.7.3,3.2-1.5,3.9-2.6.4-.4.5-.8.5-.8,0-.3,0-.7-.2-1,0,0,.2,0,.2,0,.1-.3.8-.8,1.6-1.5.3,0,.5-.1.8,0,3.5,2,3.4,0,3.4,0v-1.2c0-.7.5-.9,1.1-.7,1.6.8,4.6,2.3,5.5,1.9h.5c1.9.8,1.9-.7,1.9-.7v-1.2c0-.7.5-.9,1.1-.7,2,1.1,6.5,3.1,5.7.8-.4-.8-.3-1.3,0-1.7.3.4.7.8,1.3,1.3,5,3.6,4.8,1.1,4.8,1.1v-1.2c0-.7.5-.9,1.1-.7,2,1.1,6.5,3.1,5.7.8-.3-.8.7-1.3,1.2-.8.1.1.4.4.7.5.1,0,.2.1.3.2,0,0-.1,0-.1,0-2,1.2-4,3.2-5.1,4.7-.3.3,0,.7.1.5,1.5-.9,3.8-2.4,5-2.8.1,0,.3.4,0,.5-.8,1.2-2.8,3.9-3.6,5.5-.1.3,0,.7.3.5l5.2-4.3c.3-.1.4.1.1.5-.8,1.2-1.9,3-2.4,4.2-.1.3,0,.7.3.4,1.7-1.5,6.6-5,7.3-4.8.8.3,12.8-.7,12.8-.7,0,0,2-.9.7-3,0,0-.6-.7-.5-1.8,2,.9,4.2,1.5,3.6-.2-.8-2,.8-2.6,2-2.7h.9c.1,0,.3,0,.4,0,2-.3,12.8,0,15.7,0,.2,0,.6-.2.6-.5,52.6,16.5,50.7,3.3,47.4-3.4-.1-.3-.4-.1-.4.1,1,17.5-35.6,3.1-46-1,0,0,0,0,0,0,.1-.3-.1-.7-.4-.9-.5-.4-.9-1.2-.9-1.2-6.3-4.4-18.2-8.5-22.1-15.5-.3-.4-.4-.7-.7-1.1h2s-1.7-2.3-3.6-2.6h0c0-.1,2.7-1.1,2.7-1.1,0,0-2.7-2.6-5.2-2.2l1.5-.5s-2.8-2.7-4.3-2.2l1.6-1.7s-3.1.4-4-.9c-.9-1.3-3.8-1.3-3.8-1.3-.9-.4-14.1-13.7-33.9.1-2.4,1.6-9.6,3.9-12,2.4l-1.9-1.9c0-.3.1-.7.3-1.1l2.2-4.6c1.2-2.6-.8-5.4-3.6-5.1-1.6.1-3.8,1.5-4.7,3l-1.5,2.5-1.7-2.6c-.4-.7-1.3-.5-1.6,0-.8,1.7-1.8,4.6,0,7.3l-5.7,1.9c-1.6.7-3.1,1.9-4,3.4-.9,1.5-2.2,2.7-3.5,3.6-1.6,1.2-3.1,2.3-4,3.2,0,0,0,0,0,0v-.6c0,.2-.1.3-.3.4-1.9-1.3-5.6-3.2-10-2.2v.4c4.2-1,7.8.8,9.7,2.1-.3.3-.5.6-.6.9-1.9-.7-6.3-2-10.7.4ZM197,146.7c.1,0,.2.1.4.2-.4,0-.8,0-1.3,0,.2-.3.5-.3.9-.2ZM203.3,147.1c.3.2.5.4.7.5-.4,0-.9-.1-1.4-.2-.1-.4-.1-.7-.1-1,.1.1.4.4.8.7Z"/>
    <path class="cls-1" d="M130.4,138.9s0,0,0-.1h.1-.1Z"/>
  </g>
  <g>
    <path class="cls-1" d="M189.7,56s0,0,0,0c0,0,0,0,0,0,0,0,0,0,0,0ZM209.6,49.5s0,0,0-.1c0,0,0,.2,0,.3,0,0,0-.1,0-.2Z"/>
    <path class="cls-1" d="M186.4,58.3"/>
    <path class="cls-1" d="M192.4,60"/>
    <path class="cls-1" d="M193.7,59.7"/>
  </g>
  <g>
    <path class="cls-1" d="M121.2,22.7s0,0,.1,0,0,0,.1,0c1.2-1.2,4.2-1.3,6.1-1.4.3,0,.7,0,.9,0,2.3-.1,3.4,0,4,0,0,0,0,.1-.1.2-3.3.2-6.5.8-9.2,1.8,0,0-.1.1,0,.2,0,0,0,.1.2.1s0,0,0,0c2.6-1,5.7-1.6,8.9-1.8-.2.5-.3,1-.2,1.4,0,0,0,0,0,.2,0,.1-.1,1,.4,2,.4.7.6.9.8,1,0,.1.1.2.2.2.3.5.5,1,.7,1.4-1.2,1.8-2.2,4-2.5,5.9,0,0,0,.2.1.2,0,0,0,0,0,0,0,0,.2,0,.2-.1.3-1.8,1.2-4,2.3-5.7.3.4.8.7,1.7,1-.6,2.7-.8,5.7-.4,7.8,0,0,0,.1.2.1s0,0,0,0c0,0,.2-.1.1-.2-.4-2.1-.2-5,.4-7.7,0,0,.1,0,.2,0,.4,0,.9.2,1.5.2,0,.3,0,.6,0,.8,0,1.7.3,3.5.7,5.6,0,.2,0,.5.2.7.1.4.2.9.3,1.3,0,.1,0,.2,0,.3h0c0,.1.1.2.2.2s0,0,0,0c.1,0,.1-.2,0-.3,0,0,0-.1,0-.3,0-.5-.2-.9-.3-1.4,0-.2-.1-.5-.2-.7-.4-2.1-.6-3.8-.7-5.5,0-.3,0-.5,0-.8.6,0,1.3.2,2,.3.1.4.3.9.4,1.3.5,1.4.9,2.8,1.3,4,0,0,0,.1.2.1s0,0,0,0c0,0,.1-.1.1-.2-.4-1.3-.9-2.7-1.3-4.1,0-.3-.2-.6-.3-.9.7.1,1.5.2,2.2.4.8,1.6,1.4,3.2,1.6,4.8,0,0,0,.1.2.1s0,0,0,0c0,0,.2,0,.1-.2-.2-1.5-.8-3.1-1.5-4.7,0,0,0,0,0,0,.4,0,.7.1,1.1.2-.2.1-.4.3-.6.3.2,0,.4,0,.5,0,0,0,0,.1,0,.2.2-.1.5-.2.8,0-.2.2-.4.3-.6.5.3,0,.7-.1,1-.1,0,.1.1.2.2.3-.1,0-.2.1-.4.2.2,0,.4,0,.5,0,0,.1.2.2.2.4,0,0,0,0,0,0,0,0,0,0,0,0,1.4,2.2,3.2,5.1,3.1,7.1,0,0,0,.2.2.2,0,0,0,0,0,0,0,0,.2,0,.2-.2,0-.7-.2-1.6-.5-2.5.8-.3,2.1-.7,3.2-.7.2,0,.3,0,.5,0,0,0-.1,0-.2,0,.1,0,.3,0,.4,0,0,0-.2,0-.3,0,.2,0,.4.1.6.2-.7.4-1.6.7-2.3,1.2,1-.6,1.9-.5,3.2,0,0,.2,0,.5-.1.6.3,0,.5,0,.8.1.3.4.6.7.9,1.1-.2,0-.5.1-.7.2.3,0,.5,0,.8,0,0,0,.1.1.2.2-.1,0-.2,0-.3,0,.1,0,.2,0,.3,0,.1.1.2.3.3.4-.2,0-.5.1-.7.2-.3.2-.5.2-.8.2,0,0,.1,0,.2,0-.3,0-.6,0-.9,0,.7.3,1.9.7,2.7.7-.3.1-.5.3-.8.4.1,0,.2,0,.4,0h-.3c0,.2-.1.2-.2.2l-.9.2c-1.6.2-5.1,1.5-6.1,2.3-.8,0-2.1.6-2.4,1.2-.4.8,1-.6,2-.4,0,.3.2.5.1.7-1,.1-1.9.8-2.2,1.6-.3.9,1-.9,2-.7,0,.1,0,.3,0,.4-.5.5-.8,1.2-.8,1.6,0,.8.5-.6,1.2-1.1.2.1.3.2.6.3,1.4.3,2.5-1.5,3.2-1.3.2,0,0,.4-.1.7-.9-.4-2.2,1.5-2.2,2.5,0,.9.6-1.1,1.7-1.3,0,.3.1.5.7.5,1.9,0,2.6-1.9,3.8-2.1.2,0,.5-.1.8-.2,0,0,0,0,.1,0,.3,0,1.1-.4,1.7-.9.3-.3.7-.8,1-1.3.3,0,.5.2.8.2,0,0,0,0,0,0,.4.1.1.4.3.5.3.2.6.1,1,.1,0,.2.2.4.2.5.1,0,.3-.2.4-.2.1,0,.2.1.4.2,0,0,0,0,0,0,0,0,0,0,.1,0,.3.2.7.3,1.1.5,0,0-.2.2-.3.3.1,0,.3-.2.5-.2.1,0,.2,0,.3.1,0,.2-.1.4-.2.6.3-.1.7-.2,1,0-.1,0-.2.2-.3.3,0,0,.6,0,.8,0,0,.1,0,.3-.1.4,1.3-.1,1.6.6,2.8.9,0,0,0,.2,0,.3.4.1.2.4.4.5.3.2.7,0,1.1,0,0,.2.2.4.3.5.2-.2.5-.2.7-.5,0,0,0,.1,0,.2.2-.1.4-.3.5-.5,0,0,0,0,0,.1.3-.3.4-.8.2-.9.2,0,.4,0,.5.1-.1.2-.2.5-.3.7h0s0,0,0,0c0,.2-.1.4-.1.6,0,0,0,0,0,0,0,.2,0,.4,0,.7,0-.2.1-.4.2-.6,0,.5,0,1.1,0,1.6.2-.4.4-.9.7-1.3,0,.3,0,.8-.1,1.2.2-.1.5-.3.7-.6.2-.1.4-.2.6-.4,0,.2-.2.4-.3.6.7-.2,1.5-.5,2.2-.8-.1.2-.2.4-.3.5,0,0,0,0,0,0-.1.1-.2.2-.4.3.1-.1.3-.2.4-.3.4,0,.9-.2,1.4-.5,0,0,0,0,0,0-.2.2-.4.5-.5.8.4,0,.9,0,1.3,0,0,0,0,0-.1,0,.4.2,1,.2,1.5.1,0,0,0,0,0,0-.2.1-.3.2-.4.4.2,0,.3,0,.5,0-.5.8-1.2,1.9-1.5,2.2.4-.5,1.1-.9,1.6-1.4-.2.6-.8,1.3-1.4,1.8-.1.3-.3.5-.6.6,0,0,.2,0,.3-.1-.3.1-.6.3-.8.5.8-.1,1.9-.4,2.6-.8-.2.2-.3.5-.5.8.2,0,.3-.1.5-.2,0,.1-.2.2-.3.3-.1,0-.3.2-.4.2,0,0,0,0,0,0-.2,0-.3.1-.5.1-1.2.2-3.1.3-3.7.4,0,0,.2,0,.3,0-.1,0-.3,0-.4,0,0,0,0,0,.1,0,0,0-.1,0-.2,0-4.3.3-10.2.4-11.5.2-1.1-.1-2.9,0-4.1.6-.6,0-1.2.3-1.8.7-.6.5,0,.3.7.2,0,.2-.1.3-.2.5,0,0,0,0,0,0-.5.4-.8.9-.9,1.3,0,.6.3,0,.9-.6,0,0,0,0,0,.1,0,.3.2.5.5.7,0,0,0,0,0,0s0,0,0,0c0,0,0,0,0,0,0,0,0,0,0,0,0,.2-.1.4-.2.5,0,.5.2.1.6-.3.4.1.8.2,1.1.2.3,0,.7,0,1.2.1,0,0,0,0,0,0,1.3.2,2.2.2,3,.3,0,.1,0,.2,0,.3,0,.5.2.1.6-.3,1.3,0,2,0,2.7,0,.7,0,1.9.1,3,.2.5,0,1.1,0,1.8.1.1,0,.2,0,.3,0,0,0,0,0,.1,0,1.2,0,2.5.2,3.7.2,1.4,0,2.7,0,3.2,0,.5,0,.9,0,1.4-.3.2,0,.4-.1.5-.2,1.1-.6,2.3-1.6,2.5-1.7,0,0,0,0,0,0,.3-.2,2.7-1.7,2.7-2.6,0-.3,0-.7,0-1.2,0,0,0,0,0,0,0,0,0,0,0,0,0,0,0,0,0,0,0,0,0,0,0,0,0,0,0,0,0,0,0,0,0,0,0,0,0,0,0,0,0,0,.1.1.3.2.4.3,0-.2.3-.4.3-.7,0,0,0,.1.1.2,0,0,0-.2.1-.3.3-.1.5-.3.7-.4-.2.5-.4,1-.6,1.4.3-.3.6-.5.8-.7,0,0,0,.2,0,.2,0,0-.1.2-.1.3,0,0,0,0-.1-.1-.1.2-.1.4-.1.5,0,0,0,0,0-.1,0,.1,0,.2,0,.3-.2.2-.3.5-.3.7.1-.2.2-.4.3-.7,0,.2.2.3.3.3,0,0,0,0,.2,0,0,0,0,.1,0,.2,0,0,0-.1,0-.2.1,0,.3.2.4.5,0,0,0,0,0,0,0,.3.2.6.4.9.1-.2.4-.4.6-.6,0,.3-.1.6-.2,1,.1-.3.2-.7.3-1,.1,0,.3-.1.4-.2,0,.2,0,.3,0,.5.3-.1.5-.3.7-.6.2.4,0,1.1-.2,1.7.5-.3,1.2-.6,1.6-.8-.1.4-.2.8-.4,1.2.3-.2.5-.4.7-.6,0,.3-.1.5-.2.8.3-.4.7-.7,1-.9,0,.2,0,.3-.2.5.2-.2.4-.4.6-.6-.2.6-.3,1.2-.3,1.8.1-.6.4-1.1.7-1.7,0,.4,0,.9,0,1.4-.3.2-.5.3-.8.5.2-.1.5-.3.8-.4,0,0,0,0,0,0,0,0,0,0,0,0,0,0,0,0,.1,0,0,.5,0,.9,0,1.4,0-.5.1-1,.2-1.4.2-.1.3-.2.5-.4-.2,0-.3.2-.5.3,0,0,0-.2,0-.2.1,0,.2-.1.3-.2,0,0,.2,0,.3,0,0,0-.1.1-.2.2,0,0,.2-.1.3-.2-.3.2-.5.4-.7.7.7-.3,1.8-.9,2.4-1.4,0,.3-.2.6-.3.8.2-.1.3-.2.5-.3,0,.1,0,.3,0,.4,0,.3,0,.6-.2.9,0,.1-.1.3-.2.4-.2.4-.5.7-.9,1-.7.4-1.4.7-1.6.8-1.4.6-3.3,1.4-5.4,1.8-2.1.4-4.8.3-5.8.3-1.6,0-3.4.2-3.9,1-.6,0-1.1.4-1.7.8-.9.7.5.3,1.4.2,0,0,.1,0,.2,0,0,.2.2.4.4.6-.1.1-.3.3-.3.4-.3.5.1.2.7,0,0,0,0,0,.1.1.9.9,2,.6,2.9.9,1.5.5,3.2,1.1,5.1,1.1,1.9,0,4.8-.7,6.2-1.3,0,0,0,0,0,0,0,0,0,0,0,0,0,0,.2,0,.3-.1.6-.3,1.2-.6,1.8-1,.4-.2.8-.5,1.1-.7,0,0,0,0,.1,0,.1,0,.3-.2.4-.3,1.6-1,5-3.2,5.5-3.7,0,0,0,0,0,0,.3-.3.6-.5.8-.9.2-.4.3-.8.2-1.4,0-.1,0-.2,0-.3,0-.3,0-.5-.2-.9,0-.3-.2-.6-.3-.8,0-.1,0-.3-.1-.4,0,0,0,0,0,0,.1.1.4.1.5.2,0-.3.2-.5.2-.8,0,0,0,0,.1.1,0-.2,0-.4,0-.6,0,0,0,0,0,0,0,0,0,0,0,.1,0,0,0,0,0-.1,0,0,0,0,0,0,.6-.2,1-.4,1.5-.6.1,0,.3.2.5.2,0,0,0,0,0,0,.2,0,.4.2.7.3-.2-.1-.4-.2-.6-.4.5.1,1,.3,1.5.5-.4-.3-.7-.7-1.1-1,.3.1.7.2,1.1.4-.1-.4-.3-.9-.6-1.3,0,0,0-.1,0-.2.2.1.3.3.5.4,0-.4,0-.8,0-1.2,0-.2.2-.5.2-.7,0,0,0,0,0,0,.1-.2.1-.5.1-.8,0-.1,0-.3,0-.4.1.1.2.3.3.4.1-.3.3-.8.3-1.3,0,0,0,0,0,.1.3-.4.5-.9.6-1.5,0,.2.1.4.3.6.3-.9.2-2,.4-3,.6,0,1.2-.2,1.8-.3,1.8-.2,4-.5,5-.6,5-.9,9.1-2.5,9.1-2.6.8-.3,1.6-.5,2.5-.7,3.3-.7,6.5-3.3,8.1-6.2,1.6-2.9-.4-6.5-2.3-8.9-1.8-2.4-8.8-5.7-10.2-8.3-1.5-2.6-2.4-6.1-1.7-8.4.7-2.3,1.7-8,2.9-9.7,1.1-1.8-1.9.5-3.6,3.3-1.7,2.8-3,9-.9,13.7,2.1,4.7,7.7,8.5,10.1,11.3,2.4,2.7,2.9,4.5,2.2,6.3-.6,1.7-5.7,3.7-13.4,5.1-1.5.3-2.8.4-3.9.5,0,0,0,0,0,0,0,0-.1,0-.8,0-1.4,0-2.6,0-3.5,0h-.6c0-.5,0-.9-.1-1.2,0,0,0,0,0,.1.2-.5.2-1.1,0-1.6.1.2.3.3.5.4,0-1.1-.6-2.2-.7-3.2-.1-.1-.3-.3-.4-.4,0-.2,0-.3,0-.4.2,0,.5.1.7.2,0-.9-.7-1.6-.7-2.6.3.2.8.3,1,.5-.1-.8-.7-1.5-1.2-2.2.1,0,.3.2.4.2,0-.2,0-.4,0-.6.2.1.4.3.5.5,0-.3-.3-.6-.6-1-.2-1.4-1-2.8-2-4.1.8.6,1.8,1,2.7,1.2-.8-2.1-3.1-4.3-5.4-5.7,1,.5,2.3.8,3.5,1.1-1.4-1.5-3.2-2.9-5.3-3.9,0,0-.1-.2-.2-.3,1.2.3,2.6.4,3.8.3-1.5-1.4-3.4-1.8-5.4-2.5-.1-.2-.3-.3-.4-.5,1.5.2,3,.3,4.5.3-1.7-1.1-3.5-2.2-5.7-2.7.7,0,1.6,0,2.2,0-1.2-.5-2.8-.5-3.9-1.2.7,0,1.5-.2,2.1-.2-1.4-.4-2.8-.9-4.1-1.3,0,0-.1-.1-.2-.2.1,0,.2,0,.3,0-.2,0-.3-.1-.5-.2-.7-.6-1.4-1.2-2.1-1.6.1,0,.2,0,.3,0-.2,0-.5-.1-.7-.2-5.3-3.5-10-3.7-11.9-4.1-2-.4-7.4,1.4-9.3,2.1,0,0,0,0,0,0,0,0,0,0,0,0-.3.1-.5.2-.6.2-.2,0-.9,0-1.7-.2,0-.1,0-.2.1-.3.7-1.6-.2-2.8-1.5-2.9,0,0,0,0,0,0h0c-.1,0-.3,0-.4,0-.7-.2-3.3,0-5.5,1.1-.1,0-.2,0-.3,0-1.8-.5-4.1,0-5.8.4,0-.3,0-.5.1-.8.1.1,0,.2.2.4,0-.7,0-1.3,0-1.9.2.2.1,0,.3.4,0-.4,0-.7-.2-1.2,0-.1,0-.2,0-.4.1,0,.3.1.4.3-.2-.5-.2-.5-.3-1,0-.2-.2-.7-.3-.9,0,0,0-.2-.2-.2-.2,0-.3,0-.3-.1,0,0,0,0,0,.1,0,0,0,0,0,0,0-.1-.1-.2-.2-.3,0-.1-.1.3-.2.3V0c-.1,0-.2.6-.4.3,0-.1,0,.3,0,.3,0,0-.2-.2-.1-.2v.5c-.2-.1-.3-.3-.4-.4,0,.1.2.5.2.6,0,0-.2-.2-.2-.2.1.2.1.2.1.4-.1-.1-.2-.1-.3-.3,0,.4,0,.4,0,.8-.2-.1-.3-.1-.5-.3.3.6,0,.3,0,.3,0,0,.1.3.1.3-.1-.2-.2-.3-.3-.5,0,0,0,0-.1-.1.1.4,0,1-.1.8.1.2-.2.9-.3.8,0,0,0,0,0,.2,0,0,0,0,0,0,0,0-.2-.2-.3-.3,0,0-.3.7-.3.8h0c-.3,0-.5.1-.5.1,0,.5-.6.8-.6.8-.2.4-.3,1.2-.7.7.6.7,0,0-.2,1-.1,0-.3.2-.4.2,0,0,0,0,0,0-.9.2-1.7.4-2.4.5-2.3.5-6.2,2.7-8.9,4.6-.8.5-1.6,1.2-2.4,1.9,0,0,0-.1,0-.2,0,0,0,.2,0,.3,0,0,0,0-.1,0,.1-.6.2-1.3.3-1.9-.2.7-.3,1.4-.5,2.1-.1.1-.2.2-.3.3-.7,0-2,1.5-2.8,2.4-2.5-4.7-8.1-8.6-12.7-10.2,0,0-.2,0-.2.1,0,0,0,.2.1.2,4.5,1.6,10.2,5.6,12.5,10.2,0,0-.1.2-.2.2,0,0,.1-.1.2-.2,0,.1.2.3.2.4,0,0-.2.1-.2.2,0,0,0,0,0,0,0,0,0,0,0,0,0,0,0,0,0,0-1.3-1.7-4.9-3.7-5.8-4.1,0,0-.2,0-.2,0s0,.2,0,.2c1.4.7,4.5,2.6,5.6,4-.2.1-.5.3-.7.4.2,0,.5-.2.8-.4,0,0,0,0,0,0-.1.1-.2.2-.4.3,0,0,.2,0,.3-.1-.3.1-.6.3-.8.5,0,0,0,0-.1,0,.2,0,.5-.2.7-.3-.2,0-.5.2-.7.2-.8-.5-1.7-.9-2.7-1.3-2.5-1.1-5.3-2.2-8.1-2.4,0,0,0,0,0,0,0,0-.2,0-.2.2,0,0,0,.2.2.2,2.7.2,5.6,1.4,8,2.4.5.2,1.5.7,2.4,1.2-.2,0-.4.1-.5.2.2,0,.4,0,.6-.2.5.3.9.5,1.2.8-.1.2-.3.3-.4.5-3.4-1.9-8.8-2.2-12-2,0,0-.2,0-.2.2,0,0,0,.2.2.2,3.1-.3,8.4,0,11.7,1.9-.2.2-.4.5-.5.7-.6-.1-1.8-.2-4.3,0-.3,0-.6,0-.9,0-2,0-5.1.2-6.4,1.5,0,0,0,.2,0,.2ZM189.7,56s0,0,0,0c0,0,0,0,0,0,0,0,0,0,0,0ZM189.5,56.1c0,0-.1,0-.2,0,0,0,0,0-.1,0,.1-.1.3-.2.4-.3,0,0,0,.2-.1.3ZM151.3,34.5c.1,0,.2,0,.3.1-.1.1-.3.2-.5.3-.2-.4-.4-.8-.7-1.2.2,0,.4,0,.5,0,0,0,0,0,0,0,0,0,0,0,0,.1.1,0,.2,0,.3.1,0,0,.1.1.2.2,0,0-.1.3-.2.3ZM150.1,33.2s0,0,.1,0c0,0,0,0,0,0,0,0,0,0,0,0ZM133.3,18.6c.3,0,.7-.1,1.1-.3,0,0,0,.1,0,.2,0,.2-.2.4-.4.7-.2-.2-.5-.4-.8-.6ZM135.8,15.9c-.2.4-.5.9-.9,1.3,0-.1-.1-.3-.2-.4.4-.3.7-.6,1.1-.9ZM209.6,49.5s0,0,0-.1c0,0,0,.2,0,.3,0,0,0-.1,0-.2ZM195,60.2c.1-.5.3-1.1.7-1.5,0,0,0,0,0,0,0,.1-.1.2-.2.3,0-.1.1-.2.2-.3,0,0,0,0,.1,0-.2.3-.4.7-.5,1-.1.1-.2.3-.3.4ZM194.7,60.6c0-.3.2-.6.3-1,0,.3-.1.6-.2.9,0,0,0,0-.1,0ZM160.8,45.1c0-.1.1-.2.2-.3.2.1.4.2.7.3,0,0,0,0,0,.1-.3,0-.6-.1-.8-.2ZM147.1,32.6c.5,0,1-.2,1.5,0-.2.2-.5.4-.9.4.3-.1.7,0,1.1,0,0,0-.2.2-.3.2.4,0,.8,0,1.2,0,0,.1.2.3.2.4-.2.1-.3.2-.5.3.2,0,.4,0,.6,0,.3.5.5.9.8,1.4-.4.2-.8.4-1.1.6.4-.1.8-.3,1.2-.3,0,0,.1.2.1.3,0,0,0,0,.2,0s0,0,0,0c0,0,.1-.1,0-.2,0,0,0-.1,0-.2.1,0,.3,0,.4,0,.2,0,.5.1.7.3-.2,0-.3.3-.5.4-.8.4-1.6.7-2.3,1.2-.6-1.5-1.6-3.2-2.5-4.6ZM146.9,32.3c.1,0,.3,0,.4,0,0,0-.1,0-.2.1,0,0,0,0,.1,0h.5c-.3,0-.5,0-.8.2,0,0,0-.1-.1-.2ZM146.6,31.8s0,0,0,0c0,0,0,0,.1,0,0,0,0,0,0,0ZM143.8,30.8s0,0,0,0c0,0,0,0,0,0,0,0,0,0,0,0ZM141.1,30.1c.1,0,.3,0,.4,0-.1,0-.2,0-.3.1,0,0,0-.1,0-.2Z"/>
    <path class="cls-1" d="M155.1,40.5c.4,0,.8,0,1.2,0,0,0,0,0,0,0-.4,0-.8,0-1.1,0Z"/>
    <path class="cls-1" d="M153.7,40.3c.6.1,1.2.3,1.7.5-.6,0-1.2-.3-1.7-.5Z"/>
    <path class="cls-1" d="M177.7,55.8c-.5.3-1.2.4-1.7.6.6-.2,1.2-.4,1.7-.6Z"/>
    <path class="cls-1" d="M178.3,55.2s0,0,0,0c-.3.3-.7.5-1,.5.3-.3.7-.5,1-.6Z"/>
    <path class="cls-1" d="M207.8,57.2c.2.1.5.2.7.3-.2,0-.5-.2-.7-.3Z"/>
    <path class="cls-1" d="M172.3,51.5c0,.3,0,.5-.1.8,0-.3,0-.5.1-.8Z"/>
    <path class="cls-1" d="M186.4,58.3c.2-.4.9-1,1.5-1.6-.3.6-.7,1.2-1.5,1.6Z"/>
    <path class="cls-1" d="M192.9,60.2c0,.3-.1.5-.2.7,0-.2,0-.5.2-.7Z"/>
    <path class="cls-1" d="M191.2,61.3c.1-.3.7-.8,1.2-1.3-.2.5-.5.9-1.2,1.3Z"/>
    <path class="cls-1" d="M193.7,59.7c-.2.3-.4.7-.4,1,0-.4.2-.7.4-1Z"/>
    <path class="cls-1" d="M190.7,60.3c0-.2.2-.4.4-.6-.1.3-.3.5-.4.6Z"/>
  </g>
</svg>