<?xml version="1.0" encoding="UTF-8"?>
<svg id="Livello_1" data-name="Livello 1" xmlns="http://www.w3.org/2000/svg" version="1.1" viewBox="0 0 146.8 111.2">
  <defs>
    <style>
      .cls-1 {
        fill: #fff;
        stroke-width: 0px;
      }
    </style>
  </defs>
  <path class="cls-1" d="M11.6,7C-3.2,13.1-.4,33.5,1.9,35.8s4.6.9,4.6.9c0,0-2.8,6.1-.9,9.3,4.6,10.6.4,12.5.9,19.9.4,5.9,3.1,7.1,4.2,7.4h.5s.5,1.4,0,2.3c-6.5,5.5-2.3,12.5-2.3,12.5v15.8c-.5,0,3.2,1.9,3.2,2.8s.4,2.3.9,3.7c.4,1.4,6.5,0,7.4,0s0-.9,0-.9h2.3s1,0,.5-1.9c-.4-1.9-6.5-5.6-7.4-7-.9-1.4,0-9,0-10.2s4.4-12.8,5.7-16.2h6.8c.4.8,2.1,1.9,2.6,2.8h-.8c0,4.2,4.6,11.2,6,13.5s1.4,7,1.4,9.3,1.8,1.8,3.2,2.3.9,3.7.9,3.7c0,0,3.3,2.3,6.5,2.8,3.3.5,1.9-.9,1.9-.9,2.3,0,2.3-.5,2.3-.5-.9-5.1-7.4-8.8-7.4-8.8,0,0-5.8-17.2-5.2-20.9h1.1c1.4-1.4.9-6,.9-6,7-2.7,9.3-9.7,9.3-9.7,3.7-.5,14.4,0,14.4,0,3.3,8.7,9.2,11.8,10.4,12.4.7,2.9.6,9.5.2,11.2-.5,1.8,0,5.1.9,7.4s0,7-1.4,9.3c-1.3,2.3,1.4,2.3,1.9,2.3s1.4,0,.5.9-1,3.3-.5,4.2c.5,1,6.1,2.4,7,1.9.5,0,.5-1.4.5-1.4,0,0,3.7,1.8,3.2-.5-.4-2.3-3.2-4.6-4.6-7.4-1.4-2.3,0-9.3,0-9.3,0,0,2.8-3.2,1.9-8.3-.6-3.3-.4-5.1-.2-5.9l1.6.8c2.5,1.7,5.9,1,6.4.9l-1.3.9.9-.5c-.4,5.1.5,7.9.5,7.9,0,0,1.8,3.7-.5,6.5-2.3,2.7-1.4,2.7-.9,3.2s0,1.9,0,1.9c-.9,0-2.8.5-3.7,1.9s1.4,6.1,1.9,7c.4.9.9,0,.9,0,0,.4,2.3,2.3,2.3,2.3,2.3-2.8,3.2-12.1,3.7-14.4.5-2.4,3.7-6.1,4.2-10.7,0-3.2-1.3-7.6-1.8-10l1.8-1.2v-1.9c5.1-2.8,4.2-9.3,4.2-9.3,2.3,0,2.3,1.8,5.1,4.6,4.7,2.7,5.6,4.6,5.6,4.6,1.9.9,4.2,13.9,4.2,15.3s1.9,2.3,1.9,2.3h2.3c2.3,2.3,6.5,0,6.5,0,0,0,.9-4.1,3.7-8.3,2.8-4.2,5.6-14.4,5.6-14.4,8.3.9,7.4-4.2,5.1-12.1-2.3-7.9-2.3-9.8-4.2-10.7s-3.8-20.9-10.7-24.1c-6.9-3.2-20.4-10.7-25.5-13.9C99.9,3.9,85.6-1.2,61.9.2,38.2,1.6,26.6.7,11.8,6.7l-.2.3Z"/>
</svg>