<?xml version="1.0" encoding="UTF-8"?>
<svg id="Livello_1" data-name="Livello 1" xmlns="http://www.w3.org/2000/svg" version="1.1" viewBox="0 0 146.8 111.2">
  <defs>
    <style>
      .cls-1 {
        fill: #fff;
        stroke-width: 0px;
      }
    </style>
  </defs>
  <path class="cls-1" d="M135.2,6.7C120.4.7,108.8,1.6,85.1.2c-23.7-1.4-38,3.7-43.1,7-5.1,3.2-18.6,10.7-25.5,13.9s-8.8,23.2-10.7,24.1-1.9,2.8-4.2,10.7c-2.3,7.9-3.2,13,5.1,12.1,0,0,2.8,10.2,5.6,14.4,2.8,4.2,3.7,8.3,3.7,8.3,0,0,4.2,2.3,6.5,0h2.3s1.9-.9,1.9-2.3,2.3-14.4,4.2-15.3c0,0,.9-1.9,5.6-4.6,2.8-2.8,2.8-4.6,5.1-4.6,0,0-.9,6.5,4.2,9.3v1.9l1.8,1.2c-.5,2.4-1.8,6.8-1.8,10,.5,4.6,3.7,8.3,4.2,10.7.5,2.3,1.4,11.6,3.7,14.4,0,0,2.3-1.9,2.3-2.3,0,0,.5.9.9,0,.5-.9,2.8-5.6,1.9-7s-2.8-1.9-3.7-1.9c0,0-.5-1.4,0-1.9.5-.5,1.4-.5-.9-3.2-2.3-2.8-.5-6.5-.5-6.5,0,0,.9-2.8.5-7.9l.9.5-1.3-.9c.5.1,3.9.8,6.4-.9l1.6-.8c.2.8.4,2.6-.2,5.9-.9,5.1,1.9,8.3,1.9,8.3,0,0,1.4,7,0,9.3-1.4,2.8-4.2,5.1-4.6,7.4-.5,2.3,3.2.5,3.2.5,0,0,0,1.4.5,1.4.9.5,6.5-.9,7-1.9.5-.9,0-3.7-.5-4.2-.9-.9,0-.9.5-.9s3.2,0,1.9-2.3c-1.4-2.3-2.3-7-1.4-9.3.9-2.3,1.4-5.6.9-7.4-.4-1.7-.5-8.3.2-11.2,1.2-.6,7.1-3.7,10.4-12.4,0,0,10.7-.5,14.4,0,0,0,2.3,7,9.3,9.7,0,0-.5,4.6.9,6h1.1c.6,3.7-5.2,20.9-5.2,20.9,0,0-6.5,3.7-7.4,8.8,0,0,0,.5,2.3.5,0,0-1.4,1.4,1.9.9,3.2-.5,6.5-2.8,6.5-2.8,0,0-.5-3.2.9-3.7,1.4-.5,3.2,0,3.2-2.3s0-7,1.4-9.3c1.4-2.3,6-9.3,6-13.5h0s-.8,0-.8,0c.5-.9,2.2-2,2.6-2.8h6.8c1.3,3.4,5.7,15,5.7,16.2s.9,8.8,0,10.2c-.9,1.4-7,5.1-7.4,7-.5,1.9.5,1.9.5,1.9h2.3s-.9.9,0,.9,7,1.4,7.4,0c.5-1.4.9-2.8.9-3.7s3.7-2.8,3.2-2.8v-15.8s4.2-7-2.3-12.5c-.5-.9,0-2.3,0-2.3,0,0,0,0,0,0h.5c1.1-.3,3.8-1.5,4.2-7.4.5-7.4-3.7-9.3.9-19.9,1.9-3.2-.9-9.3-.9-9.3,0,0,2.3,1.4,4.6-.9s5.1-22.7-9.7-28.8Z"/>
</svg>