<?xml version="1.0" encoding="UTF-8"?>
<svg id="Livello_1" data-name="Livello 1" xmlns="http://www.w3.org/2000/svg" version="1.1" viewBox="0 0 227.7 170.8">
  <defs>
    <style>
      .cls-1 {
        fill: #fff;
        isolation: isolate;
        stroke-width: 0px;
      }
    </style>
  </defs>
  <path class="cls-1" d="M218.3,41.6c0-.5-.4-.6-.7-.7-2.3-1.7-9.6-5.3-9.6-5.3,0,0-3.6-3.1-4.3-3.7-.7-.6-1.7-3.6-2.6-4.8s-5.2-4.1-8.3-6.3l-.2-4.3-.9-6.4c-.9-5.5-5.4,4.3-7,7.9h0v-.5l-4.2-9.4h0c.6,1.2.4.7,0,0,0,0,0-.2-.6-1.1-1.5-2.4-3.2,1.5-3.2,1.5l-5.3,12.6h0c-.6.6-1.1,1.3-1.7,2.1-5,7.2-15.4,22.5-18.7,25.6-6.6,5.9-18.7,6-18.7,6l-22.7,2.3-26.7,2.3s-11.4,3.4-15.3,6.5c-1.7,1.4-2.8,2.6-3.7,4l-8.5,5.4-4.8,5.4-1.1,1.7-5.1,3.4-1.7,1.7-2.6,2.3s-9.4,8.8-9.7,9.7c-.3.9.6,1.4.6,1.4,0,0-3.7,3.4-4.6,4.3-.8.9-6.8,8.5-6.8,8.5l-7.1,9.9-3.5,8.9h0l-.8,1.9-1.1,13.3h0v1.7h0s0,.3.2.6c.2.4.4.7.9.8h.3c.3,0,6.2-.9,7.1-1.4.9-.6,12.8-2.6,12.8-2.6l2.4-1.9h0l6.9-5.5s11.4-12.2,11.6-13.1c.3-.9,4.8-5.1,5.1-6s3.1-2.6,3.1-3.7.6-10.2.6-10.2l2.4-8.5.7,2.8s3.6,9.3,4,13.6c.3,3.4-.4,6.2-.7,7.2v-.2.6c0,0-6.9,5.2-6.9,8.5s4.3,15.1,4.3,15.1l.6,10.8,2,1.7s3.9,4,4.5,4h7.1l2.8-.3s1-3.6-.9-5.1l-.9-.8c-.4-.4-.8-.7-1.1-.9l-.6-.5c0-.1-.3-.2-.3-.3h0l-3.4-1.2-.4-3.9h0l-1.6-13.8,3.4-3.1,12.8-6.5s.9-.6,2.1-1.6c-.5,1.6-1,3-1.6,3.3-1.6.9-3.4,1.2-4.8,2.6s-1.1,4-1.1,4l4.5,8.2,3.1,6,.3,2.8,1.4,1.7.6,4,4.8.3h7.4l.6-2.3s-1.5-3-2.8-3.4l-.8-.2c-.2,0-.4-.1-.6-.2h-.5c-.2-.2-.5-.3-.7-.3l-.6-.2-1.1-1.1-3.7-8-.9-5.7.6-2v-.2l.3-.9,4.8-4,5.4-6s3.4-5.3,3.4-8.8-.3-7.5-.4-10.2l15.8,2.3,15.3.3,8.5-2,3.7,2.8.2,1.8h0l2.6,20.3,2,5.8.6,6.4.5,6.5,2.8,10.8,2.1.2h0l9,.9,1.4-1.1-2.6-4.8-3.7-.8-2-6.5.6-3.7v-2.2l2,7.3,3.7,3.7,7.4.3.3-2.8-2.6-3.1-3.7-1.4-2-7.4.3-7.1,1.1-13.1.4-4.9h0l.8-9.5,4.2-5.2s2.8-2.3,5.6-7.4,9.5-34.4,10.3-35.8c.9-1.6,3.5-3.6,5.2-4.4s4.6-.7,7.3-.7,7.4.9,8.3.9,4.2-2.2,5-3.3c.6-.8.8-1.4.9-1.7,0,0,1.5-2,1.2-3.5l.3.3ZM217,44.9h0Z"/>
</svg>