<?xml version="1.0" encoding="UTF-8"?>
<svg id="Livello_1" data-name="Livello 1" xmlns="http://www.w3.org/2000/svg" version="1.1" viewBox="0 0 229 168.9">
  <defs>
    <style>
      .cls-1 {
        fill: #fff;
        isolation: isolate;
        stroke-width: 0px;
      }
    </style>
  </defs>
  <path class="cls-1" d="M228.9,38.4c0-.5-.4-.7-.8-.8-2.5-1.8-10.4-5.7-10.4-5.7,0,0-3.9-3.4-4.7-4-.8-.7-1.8-3.9-2.8-5.2s-5.6-4.4-9-6.8l-.2-4.7-1-6.9c-1-6-5.9,4.7-7.6,8.6h0v-.5l-4.6-10.2h0c.7,1.3.4.8,0,0,0,0,0-.2-.7-1.2-1.6-2.6-3.5,1.6-3.5,1.6l-5.7,13.7h0c-.7.7-1.2,1.4-1.8,2.3-5.4,7.8-16.7,24.4-20.3,27.7-7.2,6.4-20.3,6.5-20.3,6.5l-24.6,2.5-28.9,2.5s-12.4,3.7-16.6,7c-1.8,1.5-3,2.8-4,4.3l-9.2,5.9-5.2,5.9-1.2,1.8-5.5,3.7-1.8,1.8-2.8,2.5s-10.2,9.5-10.5,10.5c-.3,1,.7,1.5.7,1.5,0,0-4,3.7-5,4.7-.9,1-7.4,9.2-7.4,9.2l-7.7,10.7-3.8,9.6h0l-.9,2.1-1.2,14.4h0v1.8h0s0,.3.2.7c.2.4.4.8,1,.9h.3c.3,0,6.7-1,7.7-1.5,1-.7,13.9-2.8,13.9-2.8l2.6-2.1h0l7.5-6s12.4-13.2,12.6-14.2c.3-1,5.2-5.5,5.5-6.5s3.4-2.8,3.4-4,.7-11.1.7-11.1l2.6-9.2.8,3s3.9,10.1,4.3,14.7c.3,3.7-.4,6.7-.8,7.8v-.2.7s-7.5,5.6-7.5,9.2,4.7,16.4,4.7,16.4l.7,11.7,2.2,1.8s4.2,4.3,4.9,4.3h7.7l3-.3s1.1-3.9-1-5.5l-1-.9c-.4-.4-.9-.8-1.2-1l-.7-.5c0-.1-.3-.2-.3-.3h0l-3.7-1.3-.4-4.2h0l-1.7-15,3.7-3.4,13.9-7s1-.7,2.3-1.7c-.5,1.7-1.1,3.3-1.7,3.6-1.7,1-3.7,1.3-5.2,2.8s-1.2,4.3-1.2,4.3l4.9,8.9,3.4,6.5.3,3,1.5,1.8.7,4.3,5.2.3h8l.7-2.5s-1.6-3.3-3-3.7l-.9-.2c-.2,0-.4-.1-.7-.2h-.5c-.2-.2-.5-.3-.8-.3l-.7-.2-1.2-1.2-4-8.7-1-6.2.7-2.2v-.2l.3-1,5.2-4.3,5.9-6.5s3.7-5.7,3.7-9.5-.3-8.1-.4-11.1l17.1,2.5,16.6.3,9.2-2.2,4,3,.2,2h0l2.8,22,2.2,6.3.7,6.9.5,7,3,11.7,2.3.2h0l9.8,1,1.5-1.2-2.8-5.2-4-.9-2.2-7,.7-4v-2.4l2.2,7.9,4,4,8,.3.3-3-2.8-3.4-4-1.5-2.2-8,.3-7.7,1.2-14.2.4-5.3h0l.9-10.3,4.6-5.6s3-2.5,6.1-8,10.3-37.3,11.2-38.8c1-1.7,3.8-3.9,5.6-4.8s5-.8,7.9-.8,8,1,9,1,4.6-2.4,5.4-3.6c.7-.9.9-1.5,1-1.8,0,0,1.6-2.2,1.3-3.8l.3.3h-.1ZM227.5,42h0Z"/>
</svg>