<?xml version="1.0" encoding="UTF-8"?>
<svg id="Livello_1" data-name="Livello 1" xmlns="http://www.w3.org/2000/svg" xmlns:xlink="http://www.w3.org/1999/xlink" version="1.1" viewBox="0 0 376 227">
  <defs>
    <style>
      .cls-1 {
        filter: url(#drop-shadow-4);
      }

      .cls-2 {
        filter: url(#drop-shadow-2);
      }

      .cls-3 {
        filter: url(#drop-shadow-3);
      }

      .cls-4 {
        filter: url(#drop-shadow-1);
      }

      .cls-4, .cls-5 {
        fill: #fff;
        stroke-width: 0px;
      }
    </style>
    <filter id="drop-shadow-1" filterUnits="userSpaceOnUse">
      <feOffset dx=".5" dy=".5"/>
      <feGaussianBlur result="blur" stdDeviation="4"/>
      <feFlood flood-color="#8c8b8b" flood-opacity=".3"/>
      <feComposite in2="blur" operator="in"/>
      <feComposite in="SourceGraphic"/>
    </filter>
    <filter id="drop-shadow-2" filterUnits="userSpaceOnUse">
      <feOffset dx=".5" dy=".5"/>
      <feGaussianBlur result="blur-2" stdDeviation="4.1"/>
      <feFlood flood-color="#8c8b8b" flood-opacity=".3"/>
      <feComposite in2="blur-2" operator="in"/>
      <feComposite in="SourceGraphic"/>
    </filter>
    <filter id="drop-shadow-3" filterUnits="userSpaceOnUse">
      <feOffset dx=".7" dy=".7"/>
      <feGaussianBlur result="blur-3" stdDeviation="5.1"/>
      <feFlood flood-color="#8c8b8b" flood-opacity=".3"/>
      <feComposite in2="blur-3" operator="in"/>
      <feComposite in="SourceGraphic"/>
    </filter>
    <filter id="drop-shadow-4" filterUnits="userSpaceOnUse">
      <feOffset dx="1.8" dy="1.8"/>
      <feGaussianBlur result="blur-4" stdDeviation="13.7"/>
      <feFlood flood-color="#8c8b8b" flood-opacity=".3"/>
      <feComposite in2="blur-4" operator="in"/>
      <feComposite in="SourceGraphic"/>
    </filter>
  </defs>
  <path class="cls-5" d="M276.8,148.1c-1,.7-1.9,1.3-1.9,1.3,0,0,.8-.5,1.9-1.3Z"/>
  <path class="cls-4" d="M310.8,48.8c-1.7-.8-3.3-1.8-4.6-3.2-2.1-2.2-4.1-4.4-6.2-6.6-1.2-1.3-2.2-2.8-2.6-4.5-.6-2.5-1.8-4.7-3.5-6.6-1.6-1.9-3.4-3.7-5.1-5.6-.5-.6-.5-.7,0-1.2.5-.4,1-.8,1.4-1.2,2.2-2.5,3-5.3,2-8.5,0-.2-.2-.4-.5-.8-.3.6-.5,1.1-.7,1.5-1.1,2.4-2.6,4.5-5.1,5.7-.7.3-1.3.4-2,0-1.6-.7-3.3-.8-4.9,0-.2.1-.5.2-.9.3,4.6-3.9,4.1-8.9,2.1-11-.1.4-.3.8-.4,1.2-1.1,3.1-3.4,5.1-6.1,6.8-1.1.7-2.3,1.5-3.3,2.3-1.7,1.5-2.2,3.4-1.5,5.5,0,.2,0,.4,0,.9-.4-.3-.5-.5-.7-.6-1-.8-1.9-1.8-3-2.5-2.8-1.8-5.7-2.2-8.7-.6-1.6.8-2,2.1-1,3.5.7,1.1,1.7,2,2.7,2.8.9.8,1.9,1.4,3,2.1-1.4.4-2.6.9-3.9,1.2-3.6,1-7.3,1.3-11,1.6-4.8.4-9.5,0-14.2-1.4-4.5-1.4-9.1-1.4-13.6-.2-18.2,4.5-44.5-.8-50.6-.5-7.8.4-9.8.7-17.6,1.2-2.3.1-16.7-1.3-21.5-2.5-22.7-3.7-31,1.7-34.1,3.1-3.5,1.6-6.1,4-7,7.9-1,4.2-1.9,8.4-2.4,12.7-.3,2.7-.6,5.5-.3,8.2.4,3,.7,6.1.9,9.1.3,6.9.4,13.8,0,20.7-.1,2.7-1,5.1-3.1,6.9-1.3,1.2-2.2,2.7-2.8,4.3-1.1,2.9-1,5.8-.4,8.8.5,2.6-5.2,2.6-5.1,5.2,0,.6,1.6.6,1.8,1.3,1.7-1.2,7.2-2.9,7.8-4.7,0,.5.2,2.3.2,2.9.6-1.1,1.2-.2,1.8-1.1,1.6-3,2.7-6.2,2.8-9.6,0-1.4-.1-2.8-.3-4.2-.2-2.3.4-4.6.6-6.8.5-4.4,1.1-8.8,1.4-13.2.3-3.7.1-7.5.2-11.3,0-2,.1-4,.2-6,.6,3.1,1.1,6.2,1.6,9.3,1,5.8,2,11.5,2.1,17.4,0,3.3-.2,6.5-1.7,9.5-1.3,2.7.1,16.1-.2,19.1-.6,5.3-1.1,15.7-1.6,21.3-.3,3.3-3.4,3.6-3.7,6.9-.2,2,.2,3.9,1.8,5.3.8.7,10.1-2.5,10.1-2.5-.4-1-.7-2.1-.8-3.3,0-2-.2-3.9-.2-5.9,0-4.1-.3-8.2.4-12.2.8-4.6,2.4-8.9,5.1-12.7.2-.3.5-.6.7-.9.2.1.2.2.3.3.1.2.2.3.3.5,2.3,4.1,4.1,8.4,5.2,13,.9,3.4,1.7,6.7,2,10.2l9.2,1.3c0,0,0-.2,0-.3-1.2-4.3-1.8-8.7-2.1-13.1-.2-4.3-.2-8.6-.2-12.8,0-.2,0-.4,0-.7.6.2,1.1.4,1.6.5,1.1.3,1.3.5,1.2,1.6,0,.9,0,1.8.1,2.6.1.9.7,1.2,1.6,1.1.8,0,1.2-.4,1.3-1.3,0-.8,0-1.6.2-2.4.1-1.6,1.4-2.3,2.8-1.7.3.1.6.2.8.2.8,0,1.2.4,1.3,1.1.2.7.3,1.4.5,2,.3.9.8,1.3,1.6,1.2.8-.1,1.2-.6,1.2-1.6,0-.8,0-1.6-.2-2.4,0-.8.2-1.4.9-1.8.2-.1.5-.3.7-.4,3.1-1.7,5.3-4.1,6.2-7.5.2-.7.4-.8,1.1-.5,3,1.3,5.9,2.7,8.9,3.8,6.6,2.5,13.4,4.2,20.5,4.5,4.6.2,9.3.2,13.8-.9,2.9-.7,5.8-1.6,8.7-2.3,4-1.1,7.9-.7,11.7,1.2.8.4,1.2,1,1.4,1.8.5,2.5.9,4.9.7,7.4,0,1.6.2,3.2.7,4.7.4,1.2.6,2.4.8,3.6.5,4,.4,8.1.2,12.1,0,2.5-.8,11.6-1.6,13.9-.5,1.5-.9,3-1.4,4.5-.4,1.4-.2,2.6.9,3.7.7.7,1,1.5,1.1,2.5,0,.5,0,1,.1,1.5.4,3.1,2.4,5.3,5.4,5.9,3.2.7,6.2-.2,9.2-1.2.4-.1.6-.5.4-.9-.9-2-1.8-4.1-3.5-5.7-1.4-1.3-2-3-2.1-4.8-.2-1.9-.2-3.9-.4-5.8-.4-4.2,0-15.1,1.2-19.3.2-.6.5-1.2.9-1.6,1-.8,1.7-1.8,2.1-2.9,1.1-2.8,1.7-5.8,2-8.8.1-1.2.2-2.5.4-3.7,0,0,.2,0,.2,0,0,.1,0,.3,0,.4.4,3,.8,6.1,1.6,9,1.2,4.4,1.7,8.8,1.4,13.4-.2,3.4-.7,13.4-.8,16.7,0,1,0,2.1.9,2.7,1.9,1.5,3.1,3.4,4.1,5.5.8,1.5,2,2.3,3.7,2.4,2.5.2,5,0,7.5-.5.8-.1.9-.4.8-1.2-.2-2.1-1.2-3.7-2.9-5-2.8-2-4.6-4.7-5-8.2-.7-5.1-.4-16.9.2-22.1,0-.6.4-1.2.7-1.7.6-1.1,1.3-2,1.7-3.1.9-2.7,1.6-5.5,2.3-8.2.3-1.1.9-1.8,1.9-2.3,1.6-.9,3.3-1.9,4.7-3,2.9-2.2,4.7-5.3,6.2-8.6,1.4-3.1,2.9-6.2,5.2-8.7,1.4-1.6,2.5-3.4,3-5.5.7-2.5,1.4-5.1,2-7.7.7-2.7,1.6-5.2,3.5-7.3.9-1,1.9-2.1,2.7-3.2,1.3-1.7,3-3.1,5-4,1.2-.5,2.4-.8,3.7-.7,4.4.4,8.6.2,12.9-1,2.2-.6,4.4-.6,6.6,0,1.3.4,2.6.7,3.9.9,3.6.5,4.7,0,6.6-3.2.3-.5.7-.9,1.2-1.2,1.4-.7,2.4-1.8,2.8-3.3.3-1.3.4-2.6.6-3.9.2-2.4-.8-4-2.9-5Z"/>
  <g class="cls-2">
    <path class="cls-5" d="M58.8,173s0,0,0,0c0,0,0,0,0,0Z"/>
    <path class="cls-5" d="M7.5,97.7c.1.5.5.9.9,1.1,0,0,0,0,0,.1,0,.3.2.6.5.8,0,0,0,0,0,0,0,0,0,.2,0,.2,0,.3.5.8,1.3,1.2.8.4,2,.6,3.5.5.8,0,1.7-.2,2.6-.4l3.3-.6c.5-.2,1-.5,1.4-.7.2,0,.4-.1.6-.1.2,0,.4,0,.7,0,.3,0,.6,0,.9,0,.2.1.5.3.8.6.1.1.3.3.5.4.2.2.4.5.6.6.1.2.3.4.4.7-.1-.2-.2-.2.1.3,0,0,0,.2.1.3.3.7.8,2.1,1.3,2.5,0-.1,0-.2.2-.3,0,0,0,0,0,0,.4,1,1,1.9,1.7,2.7-.1-.3-.2-.6-.3-.8,0,0,0,0,0,0,.4.6.8,1.2,1,1.7.1.4.3.8.4,1.1,0,0,.2.3.3.6.1.3.3.5.4.8,0,.2.2.3.2.5,0,0,0,0,0,0,0,.1,0,.3.1.3,0,0,0,0,0,0,0,0,0,0,0,0,0,0,0,0,.1.1,0,0,0,.1.1.2,0,0,.1.2.2.3,0,0,0,0,0,0,0,0,.1.2.2.2,0,0,.1.1.2.2,2.4,3,5.4,6.8,6,9.8.2,1,.3,2.1.8,3.1,0,.4.1.9.2,1.3,0,.6.1,1.2.2,1.7.2.5.5,1.2,1.2,3.6,0,.2,0-.8.1-.8.3,0,.2,0,.5.3,0,0,.6,1.3.6,2.1,0,.1.5-.4.6-.4,1.3,1.8,1.8,1.5,3,2.3.7,1.5,1.3,3.1,1.5,4.8.1-.3.2-.6.3-.9.3,1.1.6,2.2.9,3.3,0-.2,0-.4.1-.7.3,1.3.5,2.6.6,3.9,0-.1,0-.3.1-.4,0,.7,0,1.3,0,2,0,.4-.1.8-.2,1.1,0,0,0,0,0,0,0-.3,0-.4,0-.4,0,0,0,0-.1,0,0,0,0-.1,0-.2,0,0,0,.2,0,.3,0,0-.1.1-.2.2-.2.3-.4,1-.2,2.1.1.5.2.9.3,1.1,0,.5.3.9.5,1.4.2.8.5,1.6.7,2.5.6,2.5.7,5.1.3,7.7-.2.9-.4,1.8-.4,2.8,0,.5,0,1-.1,1.4-.2.6-.9,1-1.4,1.4-1.1.8-1.9,2-2.4,3.3.3-.6.8-.9,1.4-1-.4.6-.5,1.3-.5,2,.4-.8.9-1.5,1.4-2.2-.3.6-.4,1.4-.2,2.1,0-.4.2-.8.3-1.2,0,0,.1.1.2,0,0,0,0-.1.1-.2.2-.4.3-.8.5-1.2-.3.8-.3,2,0,2.9,0-.8.3-1.6.5-2.4.1.4.2.9.3,1.3,0-.3.2-.7.2-1,.2.3.4.6.4,1,0-.2.1-.3.3-.5.1,0,.2.2.2.3-.5.7-1,1.4-1.5,2.1.6-.2.9-.3,1.3-.7-.2.5-.5.9-.8,1.3.8-.2,1.4-.9,2-1.5,0,.4-.1,1-.3,1.3.2-.2.5-.3.7-.4,0,.2,0,.5.1.7.1-.2.3-.4.4-.6.2.6.3,1.3.3,1.9.6-.3,1.1-1,1.1-1.8.2.3.4.7.6,1,0,0,0,.2.2.2.1,0,.2-.1.3-.3,0-.3.2-.6.2-.9.2.4.2,1.1.2,1.5.5-.6.7-1.3.7-2,.2.5.4.9.6,1.4,0,0,.1.2.2.1,0,0,0,0,0,0,.1-.5.2-1.1.1-1.7.2.3.4.7.5,1,0,0,0,.2.2.2.1,0,.2,0,.3-.2,0-.1,0-.2,0-.4,0-.9-.2-1.8-.5-2.6.3.5.5,1,.7,1.5,0-.2,0-.4-.1-.6,0,0,0,0,0,0,0,0,0,0,0-.1,0,0,0,0,0,0,0,0,0-.1,0-.2,0-.2-.2-.4-.3-.7.3.4.8.6,1.2.7-.5-.6-.9-1.4-1.1-2.2.3.4.8.7,1.2.8-.4-.8-.7-1.5-1-2.4.3.6.8,1.2,1.4,1.5-.5-.8-.8-1.8-.8-2.8.4.6.7,1.1.9,1.8-.2-1.3-.4-2.5-.7-3.7.2.3.4.5.5.8-1-4.6-1-9.4.1-14,0-.1,0-.3,0-.4,0,0-.2,0-.3,0,.3-1.1.6-2.1.8-3.2,0,.4.1.9.2,1.3.2-.7.3-1.4.5-2.1,0-.2.2-.4.2-.7.3-1,.7-2.8.9-5.9,0-1.4.1-2.5,0-3.5,0,0,0-.1,0-.2.2-.1.5,0,.8,0,.6.1,1.3.2,1.9.3,0-.1,0-.2,0-.3.9.6,2,1,3.1,1.2,1.1.2,2.3,0,3.4,0-.2-.1-.3-.3-.5-.4,1,.5,2,.9,3,.7,0,0-.1-.1,0-.2,0,0,.2,0,.3,0,2.1.6,4.4.5,6.4-.3-.2,0-.4,0-.6,0,1.9,0,3.8-.5,5.5-1.4,0,0-.2,0-.2,0,.8,0,1.6-.4,2.5-.5.5-.1,1.1-.2,1.6-.2.2.2.3.4.4.6.8.9,1.8,1.5,3,1.7.2.5.3,1.1.3,1.7,0,0,0,0,0,0-.2.4,0,1.2,0,1.7,0,.4.2,1.1.5,1.2.2,0,.5,0,.6-.2.2-.2.4-.5.5-.8.1-.5.2-.6.5-1.3,0-.3.3-.4.5-.5.2,0,.3,0,.5,0,0,0,0,0,.1,0,.2,0,.6.1.9.2.2,0,.4.2.6.3,0,0,0,0,0,0,0,0,0,0,0,0,.2.3.4.6.5,1,0,.2.2.5.4.7,1.8,4.5,2.1,9.6,1.6,14.4-.1,1.1-.3,2.1-.7,3.1-.2.4-.4.8-.5,1.3,0,.3,0,.6-.2.9-.3,1.1-1.4,1.7-2.1,2.5-.8,1-1.1,2.3-.8,3.6.3-.2.8-.1,1.1-.3,0,.1,0,.3.1.4.4-.2.7-.6.9-1,0,.5,0,1.1.3,1.4,0-.4,0-.9.3-1.3.1.3.3.6.6.8,0-.2,0-.4.1-.6.2.4.4.7.6,1,0-.4.1-.8,0-1.2,0,.2.2.5.4.6,0-.2.2-.3.3-.5,0,.5.4,1,.8,1.2,0-.3,0-.5,0-.8,0,.1.1.3.2.4.3.4.4.8.9,1,0,0,.2,0,.3,0,.3-.1.2-.7.5-.8,0,.2,0,.4.2.5.1.1.4.2.5,0,0,0,0-.1.1-.2l.4-.8c0,.3.2.7.3,1,.2-.5.6-1.2.9-1.6,0,.6.4,1.3.9,1.6,0-.5-.1-.9-.2-1.4.2.5.7.7,1.1.9-.3-.8-.5-1.7-.6-2.6,0-.5,0-1.1.3-1.4.1-.1.3-.2.5-.4.5-.4.4-1.2.4-1.8-.3-4.4.5-9,0-13.4-.2-1.7,1-3.3.8-5,0-1-.6-1.9-.9-2.8-.7-2.1-.3-4.3,0-6.4.3-2.1.7-4.1,1-6.2.3-1.9.7-3.9,1.1-5.8,1.2-4.6,3.3-9.1,3.2-13.9.3.5.5,1.1.5,1.7.4-.9.6-1.8.5-2.8,0,0,0-.2,0-.4,0-.7-.2-1.4-.6-2.1.3.4.7.8,1.2,1,0-.4,0-.8-.2-1.2.5.6.9,1.2,1.2,1.9,0-.6-.2-1.1-.5-1.6.4.4.5.8.6,1,0,.2,0,.3,0,.3,0,0,.2,0,.3-.3,0,0,0-.2,0-.3.3.4.7.7,1,1.1,0-.9-.2-1.9-.7-2.7.2.2.4.4.6.6,0-.3-.1-.5-.3-.8.3.2.5.3.8.5-.2-.5-.4-.9-.7-1.3,0,0,0-.1,0-.2,0-.2,0-.6-.5-1,.8.3,1.4.8,2,1.5,0-1.1-.4-2.2-1.1-3,0,0,.2,0,.3,0,0,0,0,0,.1,0,.2.1.2.2.2.2,0,0,0,0,0-.2.8,0,1.6.4,2.2,1,0-.5-.4-1-.8-1.2.9.3,1.8.9,2.4,1.7-.2-1.1-.9-2.1-1.9-2.7,1.1.5,2.2,1.3,3,2.3-.4-1.1-.9-2.1-1.5-3.1-.4-.7-.8-1.3-1.4-1.8-.6-.5-1.4-.8-2.1-.7.8-.3,1.6-.4,2.4-.6-.8-.7-1.9-.9-2.9-.6.6-.7,1.5-1.2,2.4-1.3-.7-.4-1.6-.4-2.3,0,.5-.6.8-1.3,1.1-2.1-.6.7-1.2,1.4-1.8,2.1,0-.8.4-1.6.9-2.2-.7.5-1.2,1.1-1.6,1.8.3-1.2.2-2.5-.2-3.6,0,.8-.2,1.6-.5,2.3,0-.1,0-.2,0-.4,0,0,0-.1,0-.2,0-.7,0-1.4-.2-2-.2-.8-.7-1.5-1.3-2.1.1.4.2.8.2,1.2-.4-.6-1-1.2-1.6-1.5.2.3.4.7.5,1,0,0,0,.2,0,.3,0-.1-.1-.3-.2-.3-.1-.3-.1-.4-.1-.4,0,0,0,0,0,.2,0-.2-.2-.3-.2-.4,0-.2-.1-.2-.1-.2,0,0,0,0,0,.3,0,.2,0,.5.2,1,.1,1,.5,2.6-.1,5.4-.3,1.5-.9,2.6-1.4,3.5-.5.9-1,1.5-1.3,2,0,.1-.2.2-.2.3-.1.1-.3.2-.4.3-2.1-.6-3.8-2-5.7-3.1-5.9-3.5-13-4.2-19.8-3.8-3.1.2-6.2.6-9.3,1-.4,0-1.2,0-3,.2-1.3,0-3.1.3-5.5.5-.6,0-1.2,0-1.9-.1-.7-.2-1.4-.4-2.1-.6-1.6-.4-3.4-.5-5.3-.6-1.8-.1-3.3-.1-4.8,0-1.4.2-2.6.4-3.7.7-.1,0-.2,0-.3,0-.7,0-1.6.2-2.6.6-.4.1-.7.2-1.1.3-.3,0-.6,0-.8,0-.3,0-.6,0-.9,0-.2,0-.5,0-.9-.2,0,0-.2,0-.3-.1,0,0,0,0,0,0,0,0,0,0,0,0,0,0,0-.1,0-.2,0,0,.2,0,.2,0,0,0-.1,0-.2,0,0,0,0,0,0,0,.3,0,.5,0,.6,0,.3,0,.4,0,.4,0,0,0-.1,0-.4-.2-.2,0-.4-.1-.9-.3-.2-.2-.5-.4-.7-.6h.3c.2,0,.4,0,.5-.1.4-.1.6-.2.6-.2,0,0-.2,0-.6,0-.1,0-.3,0-.5,0l-.5-.2c-.2,0-.4-.2-.6-.3-1-.7-1.6-1.7-2.2-2.6-.2-.3-.4-.5-.6-.7-.3-.4-.6-.8-1-1.2-.5-.5-1.1-.9-1.6-1.2-.5-.3-.8-.6-1.1-.9-.1-.2-.3-.4-.4-.5-.3-.4-.5-.7-.6-1,0,0,0-.1,0-.2-.2-.4-.3-.7-.4-.8.4-.3.8-.5,1.3-.7.3-.1.5-.2.7-.3-.1,0-.3,0-.4,0,.9-.4,1.7-.9,2.4-1.7-.2.2-.5.3-.8.4,1-.7,1.7-1.6,2.2-2.7-.2.3-.3.5-.6.7.6-.7.7-1.6.7-2.5,0,.3-.1.6-.3.8.2-.8.3-1.6.3-2.4,0,.2,0,.4-.2.6.1-.4,0-.8,0-1.3,0-.2,0-.4-.1-.6,0,0,0,0,0,0,0,0,0,.1,0,.2.1.5.1.9.1,1.1,0,.2,0,.3,0,.3,0,0,.1-.2.1-1.3,0-.3,0-.6-.4-1-.3-.4-.9-.6-1.6-.4-.3.1-.6.3-.8.7-.2.3-.2.6-.3.8-.2.4-.8.8-1.4,1.3-.8.7-1.5,1.3-2.1,1.8,0,0-.2,0-.3,0-.3,0-.6,0-1.3.2-.7.1-1,.2-1.3.3-.4-.1-.8-.2-1-.1,0,0,0-.1.1-.2,1.1-1.4,2-2.9,3.2-4.3.8-.9,1.7-1.6,2.5-2.4.8-.7,1.6-1.4,2.5-2,.8-.5,1.7-.9,1.9-1.8,0-.2,0-.4,0-.5,0-.2-.3-.3-.4-.3,0,0,0,0,0,0,0,0-.1,0-.2,0-.1,0-.2,0-.4,0-.2,0-.4,0-.6,0-.8,0-2,.4-3.5,1.2-1,.5-1.9,1-2.8,1.7-2.1,1.5-3.9,3.5-5.7,5.4-.3.4-.7.7-1,1.2-.1.1-.3.4-.4.7.1-3.1.4-6.2,1.6-9.1,0-.3.2-.5.2-.8,0,0,0-.2,0-.2,0,0,0,0,0,0-.1-.3-.5-.4-.8-.3-.2,0-.5.2-.6.4-.9.6-1.9,2-2.7,4.4,0,0,0,.2-.1.2-.7,1.8-1.2,3.7-1.3,5.6,0,0,0,0,0,0,0,0,0,0,0,0,0,.6-.3,1.2-.7,1.6-.9-.8-2-1.2-3.2-1.4-.8-.1-1.5-.1-2.3-.3-.8-.1-1.5-.4-2.1-.9-.3-.3-.6-.6-1-.8-.1,0-.3-.1-.5,0-.1,0-.2.1-.3.3-.1.1-.2.3-.2.5,0,.3,0,.6,0,.9.1.4.3.8.5,1.2,0,0-.1,0-.2,0,.6.5,1.2,1.1,1.6,1.7,0,0-.2,0-.3,0,.4.4.8.7,1.3,1.1,0,0,0,.1,0,.2.4.3.9.6,1.4.7-.2.1-.4.3-.5.5.2-.2.5-.3.7-.5-.1.1-.2.3-.2.4.3-.2.6-.3,1-.2-.1,0-.2.2-.3.4.2,0,.4,0,.6,0-.2.8-.2,1.7,0,2.5.1,0,.2,0,.3-.1-.1.6-.3,1.2-.6,1.7-1.3,2.3-3.4,4.1-5,6.1-.2.2-.3.4-.5.6,0,0-.1.1-.1.2,0,.1-.1.3-.1.5,0,.1-.1.2-.1.4,0,.3.1.5.3.7,0,0,0,0,0,0-.1.1-.2.3-.3.5-.3.5-.4,1.1-.3,1.7ZM35.8,74.1c0,0,.2,0,.3,0,0,0,0,0-.1,0,0,0-.1,0-.2,0ZM113.8,91.4s0,0,0,0c0,0,0,0,0,.1,0,0,0-.1,0-.2ZM103,163.6c0-.3.2-.6.4-.9,0,.6-.1,1.2,0,1.9,0,.2,0,.3,0,.5-.2-.5-.5-.9-.4-1.4ZM68.7,96.5c.1,0,.2,0,.4,0,.9-.1,1.7-.2,2.4-.3.9-.1,1.5-.2,2.1-.3-1.6.2-3.2.4-4.8.6ZM63.1,96.4c1,.2,1.9.5,2.7.4,0,0,.1,0,.2,0-.7,0-1.5.1-2.2.2-.2,0-.5,0-.7-.2-.1-.1,0-.3,0-.4ZM54.3,155.1c0,0,0,.2,0,.2.3,1.1.5,2.2.5,3.4,0-.1,0-.2.1-.3,0,0,0,0,0,0,0,1.2.2,2.5.2,3.7-.2-.7-.5-1.4-.6-2.2-.3-1.6-.3-3.3-.2-4.9ZM23.2,79.1c0,0,0-.1.1-.2,0,0,.1,0,.2,0-.1,0-.2,0-.4.2ZM21.8,79.2s0,0,0,0c0,0,0,0,0,0,0,0,0,0,0,0ZM19.5,79.4c0-.1,0-.2.1-.3,0,0,0,0,.1,0,0,0-.2.2-.2.3ZM9,99.7s0,0,0,0c0,.5.9.9,1.3,1,.9.4,1.9.5,2.8.5-1.1,0-1.9,0-2.6-.2-.8-.2-1.3-.6-1.5-1,0,0,0-.2,0-.3Z"/>
  </g>
  <g class="cls-3">
    <g>
      <path class="cls-5" d="M217.3,104.4c-15.4-6.3-27.8-5.5-52.7-6.9-24.9-1.4-39.7,4.1-45.5,7.5-5.7,3.4-19.5,11-27,14.5-7.4,3.5-9,24.5-11,25.4-2,.9-2,3-4.1,11.1-2.2,8.1-3.6,13.6,5.6,12.9,0,0,3,10.9,6.1,15,3.1,4.1,3.7,9,3.7,9,0,0,4.1,2.7,6.7,0l2.2-.2s2-.9,2.2-2.3c.2-1.4,2.3-15,4.5-16.1,0,0,1.1-1.9,5.9-5,3.1-2.9,3.2-5.1,5.5-5.1,0,0-1,6.9,4.4,10l.3,1.7,7.9,5.3s3.7,1.1,6.9-1c.1.2.9,1.9,0,6.8-1,5.3,2.1,8.5,2.1,8.5,0,0,1.8,6.9.3,9.5-1.5,2.6-4.4,5.1-5,7.7-.6,2.6,3.5.5,3.5.5,0,0,0,1.4.6,1.6s6.7-1.1,7.2-2.1.1-3.9-.5-4.4c-.6-.5,0-1,.7-.9.7,0,3.7,0,2.1-2.6-1.7-2.6-2.2-7.2-1.3-9.7.9-2.5,1.4-5.9.8-7.7-.6-1.7-.5-9.9.6-12.6h0s7.3-3.1,11.3-13.4c0,0,11.2-.7,15.1.3,0,0,2.6,7.1,10,10.2,0,0-.6,5.1,1,6.1l10.4-.2c0-.9,2.6-2.3,2.8-3,0,0,3.8.3,5.4.3h0c.6,1.7,6.1,16.2,6.5,17.9.4,1.8,1.4,9.6.4,11-1,1.4-7.5,5.8-7.7,7.1s.5,1.6.5,1.6h2.7c0,0-1.1,1-.4,1,.7,0,7,.7,7.6-.3s1.1-2.7,1.1-3.6,4-3.1,4-3.1l-.5-16.7s4.4-7.6-2.2-13.3c-.7-.6-.4-1.7-.3-2.1h0s4.6,0,4.7-7.9c.2-7.9-3.8-9.7,1.1-21.2,1.8-3.2-.9-9.9-.9-9.9,0,0,2.7,1.4,4.8-1.1,2.2-2.5,5.4-23.9-10-30.1Z"/>
      <path class="cls-5" d="M187.2,178.8c1.1,2-5.4,22.2-5.4,22.2,0,0-6.6,3.4-7.7,9,0,0,.2.7,2.7.7,0,0-1.8,1.1,1.7.9,3.5-.3,6.8-2.9,6.8-2.9,0,0-.5-3.7.9-4.1,1.3-.4,3.4-.3,3.3-2.3s-.2-7.1,1.5-9.6c1.7-2.5,6.5-9.6,6.5-14.1l-10.2.2s-.1,0,0,.1Z"/>
      <path class="cls-5" d="M136.3,205c-.8-1.4-2.8-2.3-4-2.2,0,0-.3-.9.3-1.7.5-.7,1.6-.6-.9-3.6-2.6-3-.5-6.9-.5-6.9,0,0,1.4-2.9.7-8.2l-7.9-5.3c-.6,2.5-2.3,7.2-1.9,10.7.6,5.1,3.6,8.4,4.4,11.3.7,2.8,1.4,12.3,4,15.3,0,0,2.6-2,2.6-2.6,0,0,.7,1.1,1.1.3.5-.8,2.9-5.7,2.1-7.1Z"/>
    </g>
  </g>
  <g class="cls-1">
    <path class="cls-5" d="M312.2,177.9c-.9.6-1.5,1.1-1.5,1.1,0,0,.7-.4,1.5-1.1Z"/>
    <path class="cls-5" d="M350.1,152.5c.2.3.3.5.3.5,0,0-.1-.2-.3-.5Z"/>
    <path class="cls-5" d="M357.8,139.2c0,0,0,.2,0,.2,0,.1,0,0,0-.2Z"/>
    <path class="cls-5" d="M341.6,167c0,.4,0,.7,0,.7,0,0,.3-.4,0-.7Z"/>
    <path class="cls-5" d="M363.5,96.9s0,0,0-.1c.5.2,1,.4,1.5.6-.4-.9-1.4-.9-2.1-1.4.5,0,.9.2,1.4.3,0,0,0-.1,0-.2-2.8-.8-5.6-1.5-8.4-2.3,0,0,0,0,0-.1,1.1.1,2.1.2,3.2.4,0,0,0,0,0-.1-1.1-.3-2.2-.6-3.3-.8.3,0,.6-.1,1-.2,0,0,0-.1,0-.2-1.9,0-3.9-.6-5.7.8,0,0-.1-.1-.2-.2.5-.4,1-.9,1.5-1.3-1.4.6-2.5,1.5-3.1,2.9,0-.6,0-1.1.1-1.8-.2.4-.5.7-.7,1.2-.2-.3-.3-.5-.4-.8-.3.6,0,1.4-.8,1.8v1c-1.4,0-2.7,0-4,0-1.8,0-3.5.3-5.3.4-.6,0-1-.2-1.1-.9-.1-.7-.3-1.5-.5-2.2,0,0-.1,0-.2,0v1c-.6-.8-1.2-1.7-1.8-2.6,0,0-.1,0-.2.1,0,.3.2.7.3,1,0,.3,0,.7.1,1.1-.8-.9-1.5-1.7-2.2-2.5h-.1c.3.7.6,1.2.9,1.8,0,0,0,0,0,0-.7-.6-1.3-1.1-2-1.7,0,0,0,0-.1.1.3.4.6.7.8,1.1-1.1-.8-2.2-1.6-3.7-1.9.7.4,1.3.7,1.9,1,0,0,0,0,0,0-.8-.2-1.6-.3-2.4-.5,0,0,0,.1,0,.2.3,0,.5.2.8.2,0,0,0,0,0,.1-.8.1-1.6.2-2.4.4.3,0,.4.1.6.1-1.9.8-3.9,1.5-5.8,2.3h0c.3.2.6.2.9.2,0,0,0,0,0,.1-.6.2-1.3.3-2.1.6.6,0,1.1.1,1.5.2,0,0,0,0,0,0-.3,0-.5.2-1,.3.9.2,1,.6.7,1.2-.1.3-.3.5-.5.8v.2c-.1,0-.9,1.2-1.2,1.5-.2.2,0,.4.2.6,0,0,0,.1,0,.1.2.3.7.4,1.1.4.3,0,.7,0,1-.2,1-.6,1.9,0,2.8.3-.3,0-.6,0-.9-.1,0,0,0,0,0,0,.4.2.9.5,1.3.7,0,0,0,0,0,.1-.5-.1-1-.2-1.6-.4.3.3.5.4.9.7-.4-.1-.6-.1-.8-.2.4.7.7,1.2,1,1.8,0,0-.3,0-.5,0,0,0,0,0,0,.1.5.2.9.3,1.4.5-.4,0-.7.1-1.2.2.8.3,1.4.5,1.8.6-.7,1-1.4,1.9-2.1,2.8,0,0,.1,0,.2.1.3-.3.6-.5.8-.8,0,0,0,0,0,0-.2.3-.4.5-.7.9.4-.2.6-.3.9-.4-.3.7-.5,1.4-.7,2.1,0,0,0,0,0,0,.4-.4.7-.8,1.1-1.2,0,0,0,0,0,0-.2.5-.4,1-.6,1.4,0,0,.1,0,.2,0,.2-.2.3-.4.5-.7-.3,1.8-.9,3.3-2.8,3.8,1.6-.1,2.5-1.2,3-2.6,0,0,.2.1.2.2-.4,1-.8,1.9-1.1,2.8,0,0,.3-.2.6-.5-.1,1.3-.9,2-1.8,2.6,0,0,.1.1.2.2.6-.5,1.2-1.1,1.8-1.6,0,1.1-.6,1.9-1.5,2.7-4,3.4-8.8,5.4-13.6,7.3-.2,0-.5.2-.8.2-1.6.2-3.3.4-4.9.5-6,.3-11.9-.3-17.8-1.1-8.2-1.1-16.1.2-23.7,3.4-.1,0-.3.2-.5.3.7-.1,1.2-.2,1.9-.3-.4.3-.6.4-.8.5-2.3,1.4-4.1,3.3-5.4,5.6-1.6,2.8-2.4,6-2.8,9.2,0,.6-.3,1-.8,1.3-.8.4-1.6.9-2.3,1.5-.8.6-1.5,1.3-2.2,1.9h0c1.3-.5,2.5-1.1,4-1.8-1.3,1.2-2.5,2.2-3.5,3.3-1.1,1.2-1.9,3.1-1.9,4,1-1.8,2-2.8,3-3.1-1.8,2-2.8,3.6-2.7,4.7.2-.4.5-.7.7-1.1,0,0,0,0,.1,0-.4.9-.7,1.7-1.1,2.6,0,0,0,0,.1,0,.3-.5.7-1,1-1.6-1.7,3.3-2.6,6.8-2.7,10.4.5-1.2,1-2.4,1.5-3.5.7-1.4,1.8-2.5,2.4-2.8-2.5,4.1-3.9,7.7-3.6,9.9.7-2.7,1.7-5.1,3.6-7-2.1,3.1-2.9,6.4-3,9.9.7-1.6,1.4-3.4,2.1-5.1,0,0,.2,0,.3.1-1.2,2.6-2.1,5.3-2.3,8.1-.2,2.8.9,6.6,2.1,7.8-.5-1.5-1.2-3.1-1.8-4.8,0,0,.2,0,.2,0,1.1,2.1,3.2,3.6,3.4,6.3.1,0,.2,0,.3-.1-.5-1.5-.9-2.9-1.4-4.4,1.7,1.6,2.7,3.6,3.2,5.9,0,0,.2,0,.2,0-.4-1.7-.9-3.4-1.4-5.3.8,1.1,1.6,2.2,2.3,3.2,0,0,0-.2.1-.3,0,0,.1.2.2.3v-2.5s0,0,.1,0c0,.3.2.6.3,1,.1-.4.3-.7.4-1.1.2,2.4-.8,4.4-2.3,6.1-.9,1-1.1,2-.8,3.2.6,2.2.8,4.5.8,6.8,0,1.7,0,3.4.2,5.1,0,.3.1.5.3.8v1.3s0,0,0,0c-.2,1.3-.4,3.5-.4,4.1,0,1,.5,2.9.5,2.9h0s0,0,0,0c0,0,0,0,0,0-.3.4-.5.8-.5,1.2,0,.5.3,1,.9,1.2,2.2.7,4.4,1.3,6.6,1.2.7,0,1.3-.1,2-.2,0,0,.1,0,.1,0,0,0,0,0,0,0,.3,0,.6-.1.9-.2,1.1-.4,1.6-1.8,1-2.9,0-.5,0-1-.3-1.3,0,0,0,0,0,0-.3-.7-.7-1.6-1-2-.5-.6-1.3-.9-1.8-1,0,0-1.2-.3-1.6-1.2-.2-.7-.5-2.4-.6-3.5,0,0,0,0,0,0-.8-6.2,0-12.1,3-17.5,0,.7-.2,1.6,0,2.3.9,3.3,1.9,6.5,2.9,9.7.8,2.4.8,5,2.4,7.1,0,0,0,0,0,.2,0,1.5,2.7,2.8,6.2,2.2,1.3,0,2.5,0,3.7-.2.5,0,1.7-.5,1.5-1.1,0,0,0-.3,0-.4,0-.4.1-.8,0-1.2-.7-2.4-2.2-4-4.9-3.8-.1,0-.3,0-.4,0-.5-.2-1.1-.3-1.4-.6-.4-.4-.8-1-.9-1.6-.6-2-1.2-4-1.5-6-.6-3.4-.2-6.7,2.1-9.5,1.8-2.1,3.7-4.1,5.5-6.1,1.8-1.9,3.6-3.8,5.3-5.8,1-1.2,1.6-2.6,1.7-4.2h0s0-.2,0-.4c0,.9,0,1.7,0,1.7,0,.7.7-.5.7-.5,0,0,.4-1.9.6-3,0,0,0,0,0,.1.2.3-.2,2.7-.2,2.7,0,0,1-1.8,1.8-3,.7-1.2,1-1.4,1-1.4,0,0-.2,1.8-.2,2.2,0,.4,0,1.3.2,1.1.2-.2.5-2,.7-2.8s.3-.8.6-.3c.3.5.9,2.2.9,2.2l.4-.4h0c0,.8.2,1.6.3,2.5.4-1.1.4-2.2,0-3.2,0-.2.2-.4.4-.6.4-.4.2-.6,0-1,0-.1,0-.4,0-.7.4.8.7,1.6,1.1,2.4,0-.5-.1-1.1-.2-1.6,0,0,0,0,0,0,.2,1.8.4,3.7.7,4.6.7,1.8-.5,3.2-.5,3.2l3.1-2.9c-.1,1.2-.2,2,0,1.8.5-.5.8-1.1,1-1.8.4.5.8,1.2,1,1.8,0,.3,0,.5-.1.8,0-.1.1-.3.2-.4,0,.2,0,.3-.2.4-.8.7.6,1.4.6,1.4l2.8-3.5-1.4,5.4s.3-.2.9-.6c0,0,0,0,0,.1,0,0,0,0,.1-.2,2.3-1.4,7.8-4.6,7.8-3.5,0,1.4-2.4,4.8-2.4,4.8,0,0,2.6-2.8,3-2.2s-1.5,4.7-1.5,4.7c0,0,2-2.6,2.8-1.7.8.9-.9,2.7-.9,2.7l4-3.4c0,0,.2,0,.2,0-.2.4-.5.8-.8,1.4-.6,1-1.4,1.8-2.1,2.4,1.1-.8,2.5-1.7,3-1.9.9-.4-3,3.4-3,3.4,0,0,1.5-.6,1.8-.5.3.1-1.4,1.1-2.3,1.2s-1.8,1.4-1.8,1.4c0,0,3.5-.7,5.1-.7,1.6,0,.6.5-.4.8-1,.3-3.6,2.5-3.6,2.5,0,0,1.9-.8,2.4-.6.5.1-1.1,1.2-1.1,1.2,0,0,.5,0,.9-.3.4-.3,2.9-.5,4.2,0,.4.1.7.2,1,.3-.5.2-.9.3-1.1.3-.6.1-4,.8-4,.8,0,0,1.5,0,1.6.2s-.6.5-1.1.8c-.5.3-2.2,1.3-2.2,1.3,0,0,1.6-.3,2.8-.5,1.2-.2,2.2,0,2.8,0,.6,0,.2.5-.3.5-.4,0-1.6.6-1.6.6,0,0,1,0,2.2.4,1.2.3,2,1.7,1.9,2,0,.3-.8-.5-1.2-.7-.5-.2-1.6-.2-1.6-.2.4,0,2.5.9,2.6,1.2,0,.3,0,0-.7,0s-3.1.6-3.1.6c0,0,1.8,0,2.4,0s1.5.7,1.5,1c0,.3-1.4.2-2.5.3-1.1.2-2.5,1-2.5,1,0,0,1.2,0,1.9,0,.7,0,2.4.5,2.4.5,0,0,.4,1.6.1,1.9-.6.3-1.2.8-1.2.8l.4.6-1.8,1.4,1.8.3,1.5-.7-.9,2.5,1.5-1.5s-.1,0-.2.2c0,0,.2-.3.4-.6l-.2.4s-.2.7-.4,1.1c-.2.4-.4,1.7-.4,1.7,0,0,.2-.3.3-.5.1-.3.6-.7.7-.8.1-.2-.3,1-.7,1.5-.4.5-1.6,1.7-1.6,1.7,0,0,.6-.3,1.5-1.1.9-.8,1.6-2.1,1.6-2.1,0,0-.5,3.6-.6,4.2-.1.6-1.4,2.6-1.2,2.5.2,0,1.3-1.9,1.7-1.9.1,0,.1.2.1.6-.1.3-.3.6-.6.8-.6.3,0,0,.3-.1,0,0,.1,0,.2-.1-.1.8-.3,1.8-.3,1.8,0,0,.5-.7.5-.9,0-.1.2-.8.3-1.4.1-.1.3-.3.4-.4,0-.1.2-.2.3-.4,0,0,.2.8.1,1.2s.4,5,.4,5.6c0,.4.3,1.7.4,2.3-.5.8-.4,1.7.2,2.2,2.1.8,3,.8,4.7,1,0,0,0,0,0,0,.2,0,.5.1.9.2,1.6.3,3.2,0,4.7-.3.2,0,.4-.2.6-.3,0,0,0,0,0,0,0,0,.1,0,.2-.1.7-.6.8-1.5,0-2.4-.4-.6-1.4-2.6-1.7-3.1-.4-.6-1.8-1.3-2-1.5-.3-.2-1.2-2.3-1.4-2.8s-1.3-5.9-1.5-6.9c-.1-.6-.2-3.5-.4-6.1,0,0,0,0,0,0-.3-6.9-.6-13.9-.8-20.8,0,0,.2,0,.3,0,.5.5.6,1.1.5,1.7-.1.6-.3,1.3-.5,2.1.4-.6.7-.9,1-1.4.6,1.6,0,3-.5,4.5.5-.6.9-1.1,1.4-1.5,0,.1,0,.3.1.4,0,1.1,0,2.3,0,2.8-.2.8-.7,3.2-.8,3.9-.1.7-.2,1.3-.2,1.3,0,0,.7-1.8.9-1.4.2.4-.6,3.7-.6,3.7,0,0,.6-1.3.8-1,.2.3-.7,1.5-.6,1.8,0,.3,0,1.1,0,1.4,0,.3-.2,1.4-.3,1.7-.1.2,1-.6,1.3-.9.3-.3,1-1.2.9-.7,0,.5-2.2,3.3-2.5,3.6-.3.4,0,1,0,1,0,0,1.1-1.7,1.2-1.5,0,.2-.2,1.4-.3,1.7-.1.3-.3,2-.3,2,0,0,1.7-2.2,2-2,.2.2-.8,1.8-.9,2s0,2.5.1,3.1c0,.7.2.9.5.6.3-.3,1.2-2.5,1.2-2.5,0,0,.3,1.1,0,1.9s-.2,1.7-.2,1.7c0,0,.4-1.2.6-1.1.2,0,1.2,2.7,1.2,2.7,0,0,0,0,0,0,.3,1.3.7,2.7,1,4,0,.7,1.9,1.4,3.3,2,1,1.5,5.4,1.8,8.7,1.5.4,0,.8-.1,1.2-.3,0,0,.2,0,.3-.1,1.2-.5,1.5-1.9.5-3,0,.2,0,.3,0,.5,0-.3,0-.5-.1-.7,0,.2.1.3.1.3,0,0-.6-1.5-1.3-2.4-.7-.8-2.6-1.6-3.5-1.5-1,.1-3,0-3,0,0,0-.8-.9-1.2-1.4-.4-.5-1.3-3.9-1.4-4.2-.1-.3-.6-5.1-.7-5.7.1.9.2,1.8.3,2.7.1-.2.1-.5.1-.7,0-2.5-.2-5.1-.1-7.6.3-6.7.8-13.3,1.7-20,0-.4.3-.8.5-1.1.3-.4.7-.7,1.2-1.1h0s0,0,0,0c0,0,.2-.2.3-.2,0,0,0,0,0,0l.2-.2s0,0,0,0c.2,0,.3.2.4.3,0-.3,0-.6.1-.9,0,0,0,0,0,0h0s0,0,0,0c0-.1.2-.2.3-.4,0,0,0,0,0,0,.2-.3.5-.7.8-1,.3.6,0,1.6,0,1.6l.6-1.9v.5s0,.6.2.4.7-2.2.8-2.5c.2-.3.2-.4.2,0s.1,2.4.2,2.6c0,.2.2.8.3.5,0-.3,0-2.9.2-3.8.2-.8,1.2-2.3,1.3-2.5.1-.2.3-.5.3-.7,0,0,0-.2,0-.4.1-.2.2-.4.3-.5.3-.9.4,1.3.4,1.3,0,0,.2-1.2.5-2.2.2.9.3,2.1.4,2.3.1.3,0-1.4,0-1.4,0,0,0-1-.2-1.9,0-.3.2-.5.2-.5.3-.2.8.6.8.6,0,0-.9-2.5-.8-3.2s.5,1.5.5,1.5c0,0-.3-2.8-.2-3.3,0-.4.7.7,1.1,1.3-.5-.9-1.3-2.6-.5-2.8,1.1-.2,2.5,1.2,2.5,1.2l-.3-1.4c1.2.2,1.5,1.4,1.5,1.4.1-.9-1-1.6-1-1.6.4-.2,1.3-.4,1.9,0,.6.4,1.1,1.3,1.1,1.1,0-.1,0-.5-.2-.9,0,0,0,0,0-.2,0,0,0-.2-.2-.3-.2-.7-.5-1.4-.5-1.4,0,0,0-1.6.6-1.5.6,0,1,3.2,1,3.2,0,0,0-1.3-.5-2.7-.5-1.4.2-2,0-2.3-.2-.3,1-4.3,1-3.9s.2,2.1.4,1c.2-1-.3-3.2,0-3.6.2-.3.6.8.8,1.3-.2-.7-.8-2.4-.8-2.4-.3-.9-.6-4.8-.7-7.5,0,0,0,0,0,0,.1.7.2,1.4.4,2.1.1.7.3,1.4.5,2.1.2.7.4,1.3.6,2-.5-2.8-.4-5.5.2-8.2,0,.8.1,1.5.2,2.3,0,0,.1,0,.2,0v-6.7c.3.4.6,1,.8,1.4-.2-1.1-.7-2.3-.8-3.5-.2-2-.1-3.9-.2-5.9.8,1.2.8,2.6.7,4.1.6-2.1,1.3-4.3-.6-6.2,2.2,1.2,2.7,1.4,3.8,1-.6-.2-1.1-.5-1.7-.7,0,0,0-.1,0-.2h1c-.7-.4-1.4-.8-2.2-1.2v-.2c.8.2,1.4.5,2,.7-.5-.6-1.1-1.1-1.5-1.8-.4-.6-.7-1.3-1-1.9.7,0,1.5.2,2.2.2-1-.6-2.1-1.1-2.7-2.1.6,0,1.2,0,1.8.1,0,0,0,0,0-.1-.3-.1-.6-.3-1-.4.6-.3,1.1-.5,1.7-.7-.7,0-1.2-.1-1.9-.2.5-.4.8-.6,1.1-.8.3-.2.6-.4,1-.7.1.2.3.3.4.5.8.7,1.8,1,2.3.6.8-.6.6-1.4.5-2.2-.2-1.4-.3-2.9-.4-4.3.4,0,.6,0,.9,0-.4-.4-.8-.8-1.1-1.2ZM260.1,197.4c0-.6,0-1.1,0-1.3,0,.4,0,.9,0,1.3ZM274.7,204.7c-.5,0,.1.6.1.7,0,0-.7-.9-.1-.7ZM320.7,192.1h0s0,0,0,0h0ZM345.9,207.5c.2.1.3.2.5.4-.2-.1-.3-.3-.5-.4,0,0,0,0,0,0ZM342.6,207.1s0,0,0,0c-.4.1-.8.2-1,.3,0,0-.2,0-.3,0,.4,0,.8-.1,1.3-.2ZM338.6,168.7v-.3c0,0,0,.2,0,.3,0,0,0,0,0,0ZM349,121.7c0,0,0-.1.1-.2,0,0,0,0,0,0,0,0,0,.1-.1.2ZM349.8,119.5s0,0,0,0c0,0,0,0,0,0,0,0,0,0,0,0Z"/>
  </g>
</svg>