<?xml version="1.0" encoding="UTF-8"?>
<svg id="Livello_1" data-name="Livello 1" xmlns="http://www.w3.org/2000/svg" xmlns:xlink="http://www.w3.org/1999/xlink" version="1.1" viewBox="0 0 320.1 190.5">
  <defs>
    <style>
      .cls-1 {
        filter: url(#drop-shadow-2);
      }

      .cls-2 {
        filter: url(#drop-shadow-3);
      }

      .cls-3 {
        filter: url(#drop-shadow-1);
      }

      .cls-4 {
        filter: url(#drop-shadow-4);
      }

      .cls-4, .cls-5 {
        fill: #fff;
        stroke-width: 0px;
      }
    </style>
    <filter id="drop-shadow-1" filterUnits="userSpaceOnUse">
      <feOffset dx="2.8" dy="0"/>
      <feGaussianBlur result="blur" stdDeviation="2.8"/>
      <feFlood flood-color="#aaa8a5" flood-opacity=".3"/>
      <feComposite in2="blur" operator="in"/>
      <feComposite in="SourceGraphic"/>
    </filter>
    <filter id="drop-shadow-2" filterUnits="userSpaceOnUse">
      <feOffset dx="2.8" dy="0"/>
      <feGaussianBlur result="blur-2" stdDeviation="2.8"/>
      <feFlood flood-color="#aaa8a5" flood-opacity=".3"/>
      <feComposite in2="blur-2" operator="in"/>
      <feComposite in="SourceGraphic"/>
    </filter>
    <filter id="drop-shadow-3" filterUnits="userSpaceOnUse">
      <feOffset dx="2.8" dy="0"/>
      <feGaussianBlur result="blur-3" stdDeviation="2.8"/>
      <feFlood flood-color="#aaa8a5" flood-opacity=".3"/>
      <feComposite in2="blur-3" operator="in"/>
      <feComposite in="SourceGraphic"/>
    </filter>
    <filter id="drop-shadow-4" filterUnits="userSpaceOnUse">
      <feOffset dx="2.8" dy="-5.7"/>
      <feGaussianBlur result="blur-4" stdDeviation="5.7"/>
      <feFlood flood-color="#aaa8a5" flood-opacity=".3"/>
      <feComposite in2="blur-4" operator="in"/>
      <feComposite in="SourceGraphic"/>
    </filter>
  </defs>
  <g class="cls-3">
    <path class="cls-5" d="M243.8,145.6v.2c.1,0,0-.2,0-.2Z"/>
    <path class="cls-5" d="M242.3,160.8h0Z"/>
    <path class="cls-5" d="M257.5,157.1c0-.3,0-1.7-.1-1.9s-.3-1-.5-1.3c-.1-.3-.9-1.9-1-2.2,0-.2-.7-.9-.7-.9l-.3-.7s.2.5,0,.4-.5-1-.5-1c0,0,0,.3,0,.2-.2,0-.8-.9-.8-.9v-.5c-.1,0-.1.3-.3.3s-.6-.9-.6-.9c0,0,0,.4-.2.4s-.8-.7-.8-.7c0,0,0,.2-.1.2-.2,0-.6-.3-.7-.4s-.7-.3-.7-.3c0,0,.3.3,0,.3s-1.2-.4-1.2-.4c0,0,.1.2,0,.2h-2.2c0,0-.3-.2-.8-.4s-.7-.2-.7-.2c0,0-.7-.5-.8-.5l-.2-.2h-.1c-.3,0-1.3-1-1.3-1-.3.2-1.5-.7-1.5-.7,0,0-.8,0-1.1-.3-.3-.2-.4-.3-.4-.3,0,0,.1.3,0,.2s-1.3-.3-1.4-.2c-.1,0-.7-.1-.7-.1-.3.2-2.3,0-2.3,0,0,0,.3,0,.3.2s-2,.2-2.1.2-.2.1-.2.1c0,0,.5-.3.6,0,0,.2-.6.3-.6.3h-1.7c0,.1.7.2.5.3s-.8.3-1,.4c-.1,0-1.3.3-1.3.4,0,0,0,.2-.2.3-.2,0-1.6.6-1.6.6h.4s0,.3-.2.4l-1.3.6s.6-.2.7-.1c0,.1-1.4,1.1-1.6,1.4-.2.3-.5.7-.5.7,0,0,.5-.3.6-.2s-.1.5-.3.7-.7.9-.7.9c0,0,.7-.3.7-.2s0,.3-.1.4c-.2.1-.8,1.1-.8,1.1,0,0,.4-.4.5-.2,0,.2,0,.7-.1.8s-.5.8-.5.8c0,0,.8-.9.9-.7.1.2,0,.5-.2.6s-.8,1.3-.8,1.5v.3s.7-.7.6-.5c0,.2-.2.6-.3.8,0,.2-.5,1.3-.5,1.3,0,0,.4-.6.4-.3s-.4,1.2-.4,1.2c0,0,.6-.3.7-.3s-.7,1.4-.7,1.4c0,0,1.1-1.7,1-1.1s-.4,1.1-.5,1.2c0,.1-.4.5-.4.5,0,0,.6-.3.3.1,0,0-3,.1-3.7,0s-4.1-.6-5.6-2c-1.8-1.8-2.6-2.5-.7-4.3,0,0,1.5-1.2,3.1-1.7s2.7-.9,2.6-1.1c-.1-.2-.6-.7-1.2-.6-.6,0-3.2.4-4,.9s-2.7,2.5-2.8,3.3-.3,1.9.4,3,2.4,2.8,3.7,3.2,4.2,1.1,4.8,1.1h3.1c0,.1.1,0,.2,0h.2v-.2c.3,0,.5-.1.5,0,0,.3-.1.2-.2.3s.3,0,1,0,.7.2.7.2c0,0,.3-.3.4-.2s-.2.4-.2.4c0,0,1.4.1,1.5.3,0,.1.6.4.5.4s1.1,0,1.4.1c.4,0,1.6-.2,1.6-.2,0,0,.1,0,0,.2-.1.1-1.3.5-1.3.5,0,0,1.9-.1,2.4-.2.5-.1,1.1-.4.9-.1-.2.2-1,.6-1,.6,0,0,1.3-.2,1.7-.3.4-.2.7-.3.7-.1s-.1.3-.1.3c0,0,.2,0,.5-.2.1.2.3.6.6.6.5,0,1.4.1,1.9,0s1-.1,1.8-.2c0,0,1,.2,1.3.2h1.9c.2,0,.3.1.3.1h0c.1,0,.2,0,.3.1.2,0,0,0,0-.1l-.4-.4h.1v-.4c.3,0,.7.3.7.3h.3l-.2-.2c-.2-.2-.2-.5-.2-.5v-.6s-.3-.7-.7-.7h-2.4v-.3h.2s1-.8.9-.6.5,0,.5,0c0,0,.4-.2.3,0,0,.2-.4.3-.5.4.2,0,1.2-.4,1.2-.2s.2.2.2.2h1.3c.4,0,.6-.1.6,0s-.2.4-.2.4c0,0,1.3-.6,1.4-.5.1,0,.1.4.1.4,0,0,.9-.9,1-.7h0v.2s.5.2.6.2.5-.1.8-.1.8,0,1,.1.8,0,.9,0,0-.3,0-.3c0,0,.2,0,.3-.2,0-.1-.2-.2-.2-.2v-.5s-.1-.2-.3-.3h-1.8c.3-.2.8-.5.7-.4,0,.1.6-.1.6-.1,0,0,0,.1.1,0h.1l.6-.3s.6-.3.6-.1-.2.3-.2.3h.3c.2,0,.4-.1.5-.2.1-.1.9-.1,1-.1h.2c-.7.7-2,2.1-2.2,2.2-.3.2-1.3,1.2-1.4,1.3h0c0,.1,1.1-1,1.4-1.2.3-.2,2.2-2.2,2.3-2.3h0c.3-.1.6-.1.8-.1s0,0,0,0c-.2.3-1.3,2.1-1.4,2.3-.2.2-.8,1.1-.8,1.1h0c0,.1.7-.7.8-1,.2-.3,1.5-2.3,1.5-2.4h.5c-.1.4-.4.9-.7,1.5-.5.9-.8,1.5-.8,1.5h0c0,.1.3-.5.8-1.4.4-.6.6-1.3.8-1.6h0s.1-.1.2-.2v2h0c0,.1,0-.7,0-1.2s0-.8-.1-.8h0c.2.2.5.7.5.9v.5h0c0,.1,0-.2,0-.5s-.4-.8-.6-1c0,0,.1-.1.2-.1h.9c.2,0,.1-.2.2-.3h0l.3-.2ZM240.8,160.6h0Z"/>
  </g>
  <g class="cls-1">
    <path class="cls-5" d="M253.9,173.6h0c1.6-.8,3.2-.3,3.9,0,0,.1-.1.2-.1.4-.7-.1-1.8-.2-2.9.3h0c1-.4,2.2-.3,2.8-.2,0,.3,0,.5.1.6h-.1v.2c0,.1.2.2.3.3h0c.2.7,1,.9,1.4,1,.3.5,1,1.7.8,3.1h.2c.2-1.3-.4-2.5-.8-3.1h.3c.5.6,1.5,2,1.2,3.8h.1c.3-1.8-.7-3.3-1.2-3.9h0c.2,0,.4,0,.6.2.6.6,1.3,1.5,1.5,2.8h.2c-.1-1.2-.7-2.1-1.3-2.7,1.1.7,2.4.4,3.1.2.4-.1.9-.1,1.3,0,1.5.4,2.6,1.2,3.3,2.1.6.8,1.1,2,1.3,3.1h-.1c-.5-.1-1.3-.2-1.7.4h.3c-.4.2-.6.4-.6.5h0c0,.1.3.3.7.3h-.1c-.2,0-.3.1-.2.2.6.3,1.3,0,1.7-.3,0,.4-.2.9-.5,1.3v.2h0c-.5.2-1.2.5-1.3,1.1,0,.1.1,0,.2,0h.1c-.4.4-.4.6-.4.7h0s.3.1.6,0c0,0-.1.2,0,.2h0c.7.1,1.2-.6,1.5-1,.2-.2.2-.3.2-.3v-.4h0c0-.1.3-.3.6-.6h.3c1.3.8,1.3,0,1.3,0v-.5c0-.3.2-.4.4-.3.6.3,1.7.9,2.1.7h.2c.7.3.7-.3.7-.3v-.5c0-.3.2-.4.4-.3.8.4,2.4,1.2,2.1.3-.2-.3-.1-.5,0-.7.1.2.3.3.5.5,1.9,1.4,1.8.4,1.8.4v-.5c0-.3.2-.4.4-.3.8.4,2.4,1.2,2.1.3-.1-.3.3-.5.5-.3,0,0,.2.2.3.2h.1c-.8.5-1.5,1.2-1.9,1.8-.1.1,0,.3,0,.2.6-.4,1.4-.9,1.9-1.1,0,0,.1.2,0,.2-.3.5-1.1,1.5-1.4,2.1,0,.1,0,.3.1.2l2-1.6c.1,0,.2,0,0,.2-.3.5-.7,1.1-.9,1.6,0,.1,0,.3.1.2.7-.6,2.5-1.9,2.7-1.8.3.1,4.8-.3,4.8-.3,0,0,.8-.4.3-1.1,0,0-.2-.3-.2-.7.8.3,1.6.6,1.4,0-.3-.8.3-1,.8-1h.5c.8-.1,4.8,0,5.9,0s.2,0,.2-.2c19.8,6.2,19.1,1.2,17.9-1.3,0-.1-.2,0-.2,0,.4,6.6-13.4,1.2-17.4-.4h0c0-.1,0-.3-.2-.4-.2-.2-.4-.5-.4-.5-2.4-1.7-6.9-3.2-8.3-5.8-.1-.2-.2-.3-.3-.4h.8s-.7-.9-1.4-1h0l1-.4s-1-1-2-.8l.6-.2s-1.1-1-1.6-.8l.6-.7s-1.2.2-1.5-.4-1.4-.5-1.4-.5c-.4-.2-5.3-5.2-12.8,0-.9.6-3.6,1.5-4.5.9l-.7-.7c0-.1,0-.3.1-.4l.8-1.7c.5-1-.3-2-1.4-1.9-.6,0-1.4.6-1.8,1.1l-.6.9-.6-1c-.2-.3-.5-.2-.6,0-.3.6-.7,1.7,0,2.7l-2.2.7c-.6.3-1.2.7-1.5,1.3-.4.6-.8,1-1.3,1.4-.6.5-1.2.9-1.5,1.2h0v-.2s0,.1-.1.2c-.7-.5-2.1-1.2-3.8-.8v.2c1.6-.4,3,.3,3.7.8-.1.1-.2.2-.2.3-.7-.3-2.4-.7-4,.1l.3.7ZM286.5,183h.1-.5s.2-.1.3,0h.1ZM288.9,183.1s.2.1.3.2h-.5v-.4s.2.2.3.3h0Z"/>
    <path class="cls-5" d="M261.4,180h0Z"/>
  </g>
  <g>
    <path class="cls-5" d="M283.7,148.8h0ZM291.2,146.3h0c0,.1,0,0,0,0Z"/>
    <path class="cls-5" d="M282.5,149.6"/>
    <path class="cls-5" d="M284.7,150.3"/>
    <path class="cls-5" d="M285.3,150.2"/>
  </g>
  <g class="cls-2">
    <path class="cls-5" d="M257.9,136.2h0c.4-.4,1.6-.5,2.3-.5h1.9c-1.2,0-2.5.3-3.5.7h0c1-.4,2.2-.6,3.4-.7,0,.2-.1.4,0,.5h0s0,.4.2.8c.1.3.2.3.3.4h0c.1.2.2.4.3.5-.5.7-.8,1.5-.9,2.2h0c0-.7.4-1.5.9-2.2.1.2.3.3.6.4-.2,1-.3,2.1-.2,3h0c-.1-.8,0-1.9.2-2.9h.6v.3c0,.7,0,1.3.3,2.1v.8h0c0-.3,0-.4-.1-.6v-.3c-.2-.8-.2-1.4-.3-2.1v-.3c.2,0,.5,0,.8.1,0,.2.1.3.2.5.2.5.3,1,.5,1.5h0c-.2-.5-.3-1-.5-1.5,0-.1,0-.2-.1-.3.3,0,.5,0,.8.1.3.6.5,1.2.6,1.8h0c0-.6-.3-1.2-.6-1.8h.4s-.1,0-.2.1h.5s-.1.1-.2.2h.4q0,.1-.1.1h.2c.5.9,1.2,2,1.2,2.8h0c0-.3,0-.6-.2-1,.3-.1.8-.2,1.2-.3h.6c-.3.1-.6.3-.9.4.4-.2.7-.2,1.2,0v.2h.3c.1.1.2.3.3.4h-.3.3-.1.1s0,.1.1.2h-.9c.3.1.7.3,1,.3,0,0-.2.1-.3.1h.1-.3c-.6.2-1.9.7-2.3,1-.3,0-.8.2-.9.5-.2.3.4-.2.7-.1v.3c-.4,0-.7.3-.8.6-.1.3.4-.3.8-.3h0c-.2.3-.3.6-.3.7,0,.3.2-.2.5-.4h.2c.5.1,1-.6,1.2-.5v.3c-.4-.2-.8.6-.8.9s.2-.4.6-.5c0,.1,0,.2.3.2.7,0,1-.7,1.4-.8h.3l.6-.3c.1-.1.3-.3.4-.5h.3c.1,0,0,.2.1.2h.4v.2h.3c.1,0,.3.1.4.2h-.1c0,.1.1.1.2.1h.1v.2h.4-.1c0,.1.2.1.3.1v.2c.5,0,.6.2,1,.3h0c.2.1,0,.3.1.3h.4s0,.1.1.2c0,0,.2,0,.3-.2h0s.1-.1.2-.2h0c.1-.1.2-.3,0-.3h.2s0,.2-.1.3h0v.2h0v.2-.2.6c0-.2.2-.3.3-.5v.4s.2-.1.3-.2c0,0,.1,0,.2-.1,0,0,0,.2-.1.2.3,0,.6-.2.8-.3,0,0,0,.1-.1.2h-.1q0,.1.1,0c.2,0,.4,0,.5-.2h0s-.1.2-.2.3h1.1s-.1,0-.2.1h.2c-.2.3-.4.7-.6.8.2-.2.4-.3.6-.5,0,.2-.3.5-.5.7,0,0-.1.2-.2.2h.1c-.1,0-.2.1-.3.2.3,0,.7-.2,1-.3,0,0-.1.2-.2.3h.2-.1c0,.1-.1.1-.2.1h-.2c-.4,0-1.2.1-1.4.1h.1-.2c-1.6.1-3.9.1-4.3,0-.4,0-1.1,0-1.5.2-.2,0-.5,0-.7.3-.2.2,0,.1.3,0v.2h0c-.2.1-.3.3-.3.5s.1,0,.3-.2h0c0,.1,0,.2.2.3h0v.2c0,.2,0,0,.2-.1h.8c.5,0,.8,0,1.1.1h0c0,.3,0,.1.2,0h6.2c.4-.2.9-.6.9-.6h0c.1,0,1-.7,1-1v-.5h0s.1,0,.2.1c0,0,.1-.2.1-.3h0c.1-.1.2-.1.3-.2,0,.2-.2.4-.2.5.1-.1.2-.2.3-.3h0v.3h0c0,.1-.1.3-.1.4,0,0,0-.2.1-.3,0,0,0,.1.1.1h0s.1,0,.2.2h0c0,.1,0,.2.1.3,0,0,.1-.2.2-.2v.4c0-.1,0-.3.1-.4h.2v.2s.2-.1.3-.2v.6c.2-.1.5-.2.6-.3,0,.2,0,.3-.1.4.1,0,.2-.2.3-.2v.3c0-.1.3-.3.4-.3v.2s.1-.2.2-.2c0,.2-.1.4-.1.7,0-.2.1-.4.2-.6v.5c-.1,0-.2.1-.3.2,0,0,.2-.1.3-.2h0v.5-.5s.1,0,.2-.1c0,0-.1,0-.2.1h.2s-.2.2-.3.3c.3-.1.7-.3.9-.5,0,.1,0,.2-.1.3,0,0,.1,0,.2-.1v.5h0c0,.2-.2.4-.3.5-.2.1-.5.3-.6.3-.5.2-1.2.5-2,.7s-1.8.1-2.2.1c-.6,0-1.3,0-1.5.4-.2,0-.4.1-.6.3-.3.3.2,0,.5,0h0s0,.1.1.2c0,0,0,.1-.1.2,0,.2,0,0,.2,0h0c.4.3.7.2,1.1.3.6.2,1.2.4,1.9.4s1.8-.3,2.3-.5h.1c.2-.1.4-.2.7-.4.2,0,.3-.2.4-.2h.1c.6-.4,1.9-1.2,2.1-1.4h0c.1,0,.2-.2.3-.3,0-.1.1-.3,0-.5h0v-.4c0-.1,0-.2-.1-.3h0c0-.1.2-.1.2-.1v-.3h0v-.2h0c.2,0,.4-.1.6-.2h.2s.2,0,.3.1c0,0-.2,0-.2-.1.2,0,.4.1.6.2-.1-.1-.3-.2-.4-.4.1,0,.3,0,.4.2,0-.2-.1-.3-.2-.5h0s.1.1.2.2v-.8h0v-.5s0,.1.1.1c0-.1.1-.3.1-.5h0c.1-.1.2-.4.2-.6,0,0,0,.2.1.2,0-.4,0-.8.1-1.1.2,0,.4,0,.7-.1.7,0,1.5-.2,1.9-.2,1.9-.3,3.4-1,3.4-1,.3,0,.6-.2.9-.3,1.2-.3,2.4-1.2,3-2.3s-.2-2.4-.9-3.4c-.7-.9-3.3-2.1-3.9-3.1s-.9-2.3-.6-3.2c.2-.9.7-3,1.1-3.7s-.7.2-1.4,1.2c-.6,1.1-1.1,3.4-.4,5.2s2.9,3.2,3.8,4.3c.9,1,1.1,1.7.8,2.4-.2.7-2.2,1.4-5,1.9-.6.1-1,.2-1.5.2h-1.8v-.5h0v-.6s.1.1.2.2c0-.4-.2-.8-.3-1.2,0,0-.1-.1-.2-.2v-.2h.3c0-.3-.2-.6-.3-1,.1,0,.3,0,.4.2,0-.3-.3-.6-.5-.8h.1v-.2s.1.1.2.2c0-.1-.1-.2-.2-.4,0-.5-.4-1.1-.7-1.5.3.2.7.4,1,.4-.3-.8-1.2-1.6-2-2.2.4.2.9.3,1.3.4-.5-.6-1.2-1.1-2-1.5h0c.5.1,1,.1,1.4.1-.5-.5-1.3-.7-2-.9,0,0-.1-.1-.2-.2.6,0,1.1.1,1.7.1-.6-.4-1.3-.8-2.1-1h.8c-.5-.2-1.1-.2-1.5-.5h.8c-.5-.1-1-.3-1.6-.5h.1-.2c-.3-.2-.5-.4-.8-.6h.1-.3c-2-1.3-3.8-1.4-4.5-1.5-.8-.2-2.8.5-3.5.8h-.9c.3-.7,0-1.2-.6-1.2h-.1c-.3,0-1.2,0-2.1.4h-.1c-.7-.2-1.6,0-2.2.2v-.3.2-.7h0v-.4h0c0,0,.1,0,.1,0q0-.2-.1-.4s0-.3-.1-.3h-.1c0,0,0,0,0,0h0v.2s-.1,0-.1-.2v.2h0v.2h-.1v.2s-.1,0-.2,0c.1.2,0,0,0,0h0c0,0,0,0-.1,0h0c0,.2,0,.4,0,.3,0,0,0,.3-.1.3h0c0,0,0,.2-.1.2h-.2c0,.2-.2.3-.2.3,0,.2,0,.4-.2.3.2.3,0,0,0,.4h-.2c-.3,0-.7.1-.9.2-.9.2-2.3,1-3.4,1.7-.3.2-.6.5-.9.7h0c0,0,0-.4.1-.6,0,.3-.1.5-.2.8h-.1c-.3.1-.8.7-1.1,1-.9-1.8-3.1-3.3-4.8-3.9h0c1.7.6,3.8,2.1,4.7,3.8h0v.2h0c-.5-.7-1.9-1.4-2.2-1.6h0c.5.3,1.7,1,2.1,1.5,0,0-.2.1-.3.2,0,0,.2,0,.3-.1h-.1q0,.1.1.1c-.1,0-.2.1-.3.2h0s.2,0,.2-.1h-.3c-.3-.2-.7-.3-1-.5-.9-.4-2-.8-3.1-.9h0c1,0,2.1.5,3,.9.2,0,.6.3.9.4h-.2.2c.2.1.3.2.4.3,0,0,0,.1-.1.2-1.3-.7-3.3-.8-4.5-.7h0c1.2,0,3.2,0,4.4.7,0,0-.1.2-.2.3h-2c-.8,0-1.9,0-2.4.6h0l1,2.4ZM283.7,148.8h0ZM283.6,148.8h0s.1,0,.2-.1h-.2ZM269.2,140.7h.1s-.1,0-.2.1c0-.2-.2-.3-.3-.5h.3c0,.1,0,.4,0,.4ZM268.8,140.2h0ZM262.4,134.7h.4s0,.2-.2.3c0,0-.2-.1-.3-.2h.1ZM263.4,133.6c0,.2-.2.3-.3.5v-.2c.1-.1.3-.2.4-.3h-.1ZM291.2,146.3h0c0,.1,0,0,0,0ZM285.7,150.3c0-.2.1-.4.3-.6h0q0,.1,0,0h0c0,.1-.1.3-.2.4v.2q-.1,0,0,0ZM285.6,150.5c0-.1,0-.2.1-.4v.3h-.1ZM272.8,144.6h0c0-.1.2-.1.3,0h-.3ZM267.7,139.9h.6s-.2.1-.3.2h.4-.1.4c0,.1-.1.1-.2.2h.2c.1.2.2.3.3.5-.1,0-.3.2-.4.2.1,0,.3,0,.5-.1h0q0,.1.1.1h.3s-.1,0-.2.1c-.3.2-.6.3-.9.5-.2-.6-.6-1.2-.9-1.7h.2ZM267.6,139.8h.3-.3ZM267.5,139.6h0ZM266.4,139.2h0ZM265.4,139h.1-.1Z"/>
    <path class="cls-5" d="M270.7,142.9h.5-.5Z"/>
    <path class="cls-5" d="M270.1,142.8c.2,0,.4.1.7.2-.2,0-.5-.1-.7-.2Z"/>
    <path class="cls-5" d="M279.2,148.7c-.2.1-.4.2-.7.2.2,0,.4-.1.7-.2Z"/>
    <path class="cls-5" d="M279.4,148.5h0c-.1.1-.3.2-.4.2.1,0,.3-.2.4-.2Z"/>
    <path class="cls-5" d="M290.6,149.2s.2,0,.3.1c0,0-.2,0-.3-.1Z"/>
    <path class="cls-5" d="M277.2,147.1v.3-.3Z"/>
    <path class="cls-5" d="M282.5,149.6c0-.1.3-.4.6-.6-.1.2-.3.4-.6.6Z"/>
    <path class="cls-5" d="M284.9,150.4v.3-.3Z"/>
    <path class="cls-5" d="M284.3,150.8c0-.1.3-.3.4-.5,0,.2-.2.4-.4.5Z"/>
    <path class="cls-5" d="M285.3,150.2c0,.1-.1.3-.2.4,0-.1,0-.3.2-.4Z"/>
    <path class="cls-5" d="M284.1,150.4s0-.2.2-.2c0,0-.1.2-.2.2Z"/>
  </g>
  <path class="cls-4" d="M258.9,43.9c-.1-.6-.5-.8-.8-.9-2.7-2.1-11.6-6.4-11.6-6.4,0,0-4.4-3.8-5.2-4.5s-2.1-4.4-3.1-5.9c-.7-1-6.3-5-10.1-7.7l-.2-5.2-1-7.8c-1-6.7-6.6,5.3-8.5,9.7h0v-.6l-5.1-11.4h0c.8,1.4.5.8,0,0,0,0,0-.3-.7-1.3-1.8-2.9-3.9,1.8-3.9,1.8l-6.5,15.4h0c-.7.7-1.4,1.6-2.1,2.6-6,8.7-18.7,27.4-22.8,31.1-8,7.2-22.8,7.3-22.8,7.3l-27.7,2.8-32.5,2.8s-13.9,4.1-18.7,8c-2.1,1.7-3.4,3.1-4.5,4.8l-10.4,6.6-5.9,6.6-1.4,2.1-6.2,4.2-2.1,2.1-3.1,2.8s-11.4,10.7-11.8,11.8c-.3,1,.7,1.7.7,1.7,0,0-4.5,4.2-5.5,5.2s-8.3,10.4-8.3,10.4l-8.6,12.1-4.3,10.8h0l-.9,2.3-1.4,16.2h0v2.1h0s0,.3.2.7c.2.5.5.9,1.1,1h.4c.4,0,7.6-1,8.6-1.7,1-.7,15.6-3.1,15.6-3.1l3-2.3h0l8.5-6.7s13.8-14.9,14.2-15.9c.3-1,5.9-6.2,6.2-7.3.3-1,3.8-3.1,3.8-4.5s.7-12.5.7-12.5l2.9-10.3.9,3.4s4.4,11.4,4.8,16.6c.4,4.1-.5,7.6-.9,8.8v-.2l-.2.7s-8.3,6.4-8.3,10.4,5.2,18.3,5.2,18.3l.7,13.1,2.4,2.1s4.7,4.8,5.5,4.8h8.6l3.5-.3s1.2-4.4-1-6.2l-2.4-2c-.6-.5-1-.8-1.2-1h-.2c0-.1-4.1-1.5-4.1-1.5l-.5-4.7h0l-1.9-16.8,4.2-3.8,15.6-7.9s1.1-.8,2.6-1.9c-.6,2-1.2,3.6-1.9,4-2,1-4.1,1.4-5.9,3.1-1.7,1.7-1.4,4.8-1.4,4.8l5.5,10,3.8,7.3.3,3.5,1.7,2.1.7,4.8,5.9.3h9l.7-2.8s-1.8-3.7-3.5-4.1l-.9-.3c-.2,0-.5-.1-.7-.2l-.6-.2c-.3,0-.6-.2-.8-.2l-.8-.2-1.4-1.4-4.5-9.7-1-6.9.7-2.5v-.2l.3-1.2,5.9-4.8,6.6-7.3s4.2-6.4,4.2-10.7-.3-9.1-.5-12.5l19.2,2.8,18.7.3,10.4-2.4,4.5,3.5.3,2.2h0l3.2,24.7,2.4,7.1.8,7.8.6,8,3.5,13.1,2.6.3h0l10.9,1.1,1.7-1.4-3.1-5.9-4.5-1-2.4-8,.7-4.5v-2.6c.1,0,2.4,8.9,2.4,8.9l4.5,4.5,9,.3.3-3.5-3.1-3.8-4.5-1.7-2.4-9,.3-8.6,1.4-15.9.5-6h0l.9-11.6,5.2-6.3s3.4-2.8,6.8-9c3.5-6.2,11.6-41.8,12.5-43.6,1.1-2,4.3-4.4,6.3-5.4,2-.9,5.5-.9,8.9-.8,2.8,0,9.1,1.1,10.1,1.1s5.2-2.7,6.1-4c.7-1,1-1.7,1.1-2.1,0,0,1.8-2.4,1.4-4.3h0ZM257.3,47.9h0Z"/>
</svg>