<?xml version="1.0" encoding="UTF-8"?>
<svg id="Livello_1" data-name="Livello 1" xmlns="http://www.w3.org/2000/svg" xmlns:xlink="http://www.w3.org/1999/xlink" version="1.1" viewBox="0 0 327.8 227">
  <defs>
    <style>
      .cls-1 {
        filter: url(#drop-shadow-2);
      }

      .cls-2 {
        filter: url(#drop-shadow-1);
      }

      .cls-3 {
        filter: url(#drop-shadow-3);
      }

      .cls-3, .cls-4, .cls-5 {
        fill: #fff;
        stroke-width: 0px;
      }

      .cls-4 {
        filter: url(#drop-shadow-4);
      }
    </style>
    <filter id="drop-shadow-1" filterUnits="userSpaceOnUse">
      <feOffset dx=".4" dy=".4"/>
      <feGaussianBlur result="blur" stdDeviation="3.1"/>
      <feFlood flood-color="#8c8b8b" flood-opacity=".3"/>
      <feComposite in2="blur" operator="in"/>
      <feComposite in="SourceGraphic"/>
    </filter>
    <filter id="drop-shadow-2" filterUnits="userSpaceOnUse">
      <feOffset dx=".6" dy=".6"/>
      <feGaussianBlur result="blur-2" stdDeviation="4.3"/>
      <feFlood flood-color="#8c8b8b" flood-opacity=".3"/>
      <feComposite in2="blur-2" operator="in"/>
      <feComposite in="SourceGraphic"/>
    </filter>
    <filter id="drop-shadow-3" filterUnits="userSpaceOnUse">
      <feOffset dx=".6" dy=".6"/>
      <feGaussianBlur result="blur-3" stdDeviation="4.3"/>
      <feFlood flood-color="#8c8b8b" flood-opacity=".3"/>
      <feComposite in2="blur-3" operator="in"/>
      <feComposite in="SourceGraphic"/>
    </filter>
    <filter id="drop-shadow-4" filterUnits="userSpaceOnUse">
      <feOffset dx="1" dy="1"/>
      <feGaussianBlur result="blur-4" stdDeviation="7.4"/>
      <feFlood flood-color="#8c8b8b" flood-opacity=".3"/>
      <feComposite in2="blur-4" operator="in"/>
      <feComposite in="SourceGraphic"/>
    </filter>
  </defs>
  <g class="cls-2">
    <path class="cls-5" d="M46.1,178.1l2.7-.5c0,.1,0,.3,0,.4,0,0,0,0,0,0,0,0,0,.3.1.6.1.2.2.3.2.3,0,0,0,0,0,0,0,.2.2.3.2.5-.3.5-.6,1.1-.7,1.7l.7-1.7c.1.1.3.2.6.3-.2.8-.2,1.7-.1,2.3l.3-2.3c.1,0,.3,0,.4,0,0,0,0,.2,0,.2,0,.6,0,1.1.2,1.7,0,.2,0,.3.1.5v.2c0,0,0,0,0,0,0,0,0,0,0-.1l-.2-2.3c.2,0,.4,0,.6,0,.2.5.3,1.1.5,1.6l-.5-1.6c0,0,.1,0,.2,0,0,0,0,0-.1,0,.2,0,.4,0,.6,0l.6,1.4c0-.5-.2-.9-.5-1.4,0,0,0,0,0,0,0,0,0,0,0,0h0s0,0,0,0c0,0,.2,0,.2,0h0c0,0,0,0-.1.1,0,0,.1,0,.2,0h0s0,0,0,0c0,0,0,0,0,0h0c0,.1,0,.1,0,.1,0,0,0,0,0,0l1.4,2.3c0-.6-.5-1.5-.9-2.1.2,0,.3,0,.5,0,0,0-.2.1-.3.1,0,0,.2,0,.3,0,0,0,0,0,0,0,0,0,.1,0,.2,0v.2c0,0,0,0,0,0,0,0,0,0,.1,0l.3.4c-.1,0-.2.1-.3.2.1,0,.3,0,.4-.1h0s0,0,0,0c0,0,.1,0,.2,0,0,0,.1,0,.2,0,0,0,0,0-.1.1-.2.1-.5.2-.7.4.2-.1.6-.2,1-.2,0,0,0,0,.1,0,0,0,0,0,0,0,0,0,0,0,.1,0,0,0,0,0,0,0,0,0,.1,0,.2,0-.2.1-.5.2-.7.3.3-.2.6-.1.9,0,0,0,0,.1,0,.2,0,0,.2,0,.2,0,0,.1.2.2.3.3,0,0-.1,0-.2,0,0,0,.2,0,.2,0,0,0,0,0,0,0,0,0,0,0,0,0,0,0,0,0,0,0,0,0,0,0,0,.1,0,0-.1,0-.2,0,0,0-.2,0-.3,0,0,0,0,0,.1,0,0,0-.2,0-.3,0,.2.1.5.2.8.2,0,0-.2,0-.2.1,0,0,0,0,.1,0h0c0,0,0,0,0,0h-.3c-.5.1-1.5.5-1.8.8-.3,0-.6.2-.7.4-.1.2.3-.2.6,0,0,0,0,.2,0,.2-.3,0-.6.2-.6.5,0,.3.3-.3.6-.2,0,0,0,0,0,.1-.1.2-.2.4-.2.5,0,.2.1-.2.4-.3,0,0,.1,0,.2,0,.4,0,.8-.5.9-.4,0,0,0,.1,0,.2-.3-.1-.7.5-.7.7,0,.3.2-.3.5-.4,0,0,0,.2.2.2.6,0,.8-.6,1.1-.6,0,0,.1,0,.2,0,0,0,0,0,0,0,0,0,.3-.1.5-.3,0,0,.2-.2.3-.4,0,0,.2,0,.2,0,0,0,0,0,0,0,.1,0,0,.1,0,.2,0,0,.2,0,.3,0,0,0,0,.1,0,.1,0,0,0,0,.1,0,0,0,0,0,.1,0,0,0,0,0,0,0,0,0,0,0,0,0,0,0,.2,0,.3.1,0,0,0,0,0,0,0,0,0,0,.1,0,0,0,0,0,0,0,0,0,0,.1,0,.2,0,0,.2,0,.3,0,0,0,0,0,0,0,0,0,.2,0,.2,0,0,0,0,0,0,.1.4,0,.5.2.8.3,0,0,0,0,0,0,.1,0,0,.1.1.2,0,0,.2,0,.3,0,0,0,0,.1,0,.2,0,0,.1,0,.2-.1,0,0,0,0,0,0,0,0,.2-.1.2-.2,0,0,0,0,0,.1.1,0,.1-.2,0-.3,0,0,.1,0,.2,0,0,0,0,.1,0,.2h0c0,0,0,0,0,.1,0,0,0,0,0,.1,0,0,0,0,0,0,0,0,0,.1,0,.2,0,0,0-.1,0-.2,0,.2,0,.3,0,.5,0-.1.1-.3.2-.4,0,0,0,.2,0,.3,0,0,.1,0,.2-.1,0,0,.1,0,.2-.1,0,0,0,.1,0,.2.2,0,.4-.1.6-.2,0,0,0,.1,0,.2,0,0,0,0,0,0,0,0,0,0-.1.1,0,0,0,0,.1-.1.1,0,.3,0,.4-.1,0,0,0,0,0,0,0,0-.1.1-.2.2.1,0,.3,0,.4,0,0,0,0,0,0,0,.1,0,.3,0,.4,0,0,0,0,0,0,0,0,0,0,0-.1.1,0,0,0,0,.1,0-.1.2-.3.6-.4.7.1-.1.3-.3.5-.4,0,.2-.2.4-.4.5,0,0-.1.2-.2.2,0,0,0,0,.1,0,0,0-.2,0-.3.1.2,0,.6-.1.8-.2,0,0,0,.2-.1.2,0,0,0,0,.1,0,0,0,0,0,0,0,0,0,0,0,0,0,0,0-.1,0-.2,0-.4,0-.9,0-1.1.1,0,0,0,0,0,0,0,0,0,0-.1,0,0,0,0,0,0,0,0,0,0,0,0,0-1.3,0-3,.1-3.4,0-.3,0-.9,0-1.2.2-.2,0-.4,0-.5.2-.2.2,0,0,.2,0,0,0,0,0,0,.1,0,0,0,0,0,0-.1.1-.2.3-.3.4,0,.2,0,0,.3-.2,0,.1,0,.2.2.3,0,0,0,0,0,0,0,0,0,0,0,0,0,0,0,0,0,0,0,0,0,0,0,0,0,0,0,.1,0,.2,0,.2,0,0,.2,0,.1,0,.2,0,.3,0,.1,0,.2,0,.4,0,0,0,0,0,0,0,.4,0,.7,0,.9,0,0,0,0,0,0,0,0,.2,0,0,.2,0,.4,0,.6,0,.8,0,.2,0,.6,0,.9,0,.2,0,.3,0,.5,0,0,0,0,0,0,0,0,0,0,0,0,0,.4,0,.8,0,1.1,0,.4,0,.8,0,.9,0,.1,0,.3,0,.4,0,0,0,.1,0,.2,0,.3-.2.7-.5.7-.5,0,0,.8-.5.8-.8,0,0,0-.2,0-.4,0,0,0,0,0,0,0,0,0,0,0,0,0,0,0,0,0,0,0,0,0,0,0,0,0,0,0,0,0,0,0,0,0,0,0,0,0,0,.1,0,.1,0,0,0,0-.1.1-.2,0,0,0,0,0,0,0,0,0,0,0,0,0,0,.2,0,.2-.1,0,.2-.1.3-.2.4,0,0,.2-.2.3-.2,0,0,0,0,0,.1,0,0,0,0,0,0,0,0,0,0,0,0,0,0,0,.1,0,.2,0,0,0,0,0,0,0,0,0,0,0,0,0,0,0,0,0,.1,0,0,0,.1,0,.2,0,0,0-.1,0-.2,0,0,0,.1,0,0,0,0,0,0,0,0,0,0,0,0,0,0,0,0,0,0,0,0,0,0,0,0,.1.2,0,0,0-.1,0-.2,0,.1,0,.3.1.4,0,0,.1-.1.2-.2,0,0,0,.2,0,.3,0,0,0-.2,0-.3,0,0,0,0,.1,0,0,0,0,0,0,.1,0,0,.1-.1.2-.2,0,.1,0,.3,0,.5.1,0,.4-.2.5-.2,0,.1,0,.2-.1.4,0,0,.2-.1.2-.2,0,0,0,.2,0,.3,0-.1.2-.3.3-.3,0,0,0,.1,0,.2,0,0,.1-.2.2-.2,0,.2-.1.3,0,.5,0-.2.1-.3.2-.5,0,.1,0,.3,0,.4,0,0-.2,0-.2.1,0,0,.2,0,.2-.1,0,0,0,0,0,0,0,0,0,0,0,0,0,0,0,0,0,0,0,.1,0,.3,0,.4,0-.1,0-.3,0-.4,0,0,0,0,.1,0,0,0,0,0-.1,0,0,0,0,0,0,0,0,0,0,0,0,0,0,0,0,0,0,0,0,0,0,0,0,0,0,0,0,0,0,0,0,0,0,0,.1,0,0,0-.2.1-.2.2.2,0,.5-.3.7-.4,0,0,0,.2,0,.2,0,0,0,0,.1-.1,0,0,0,0,0,0,0,.2,0,.3,0,.4,0,0,0,0,0,0,0,.1-.2.2-.3.3-.2,0-.3.2-.4.2-.4.2-1,.4-1.6.6-.6.1-1.4,0-1.7,0-.5,0-1,0-1.2.3-.2,0-.3.1-.5.2-.3.2.1,0,.4,0,0,0,0,0,0,0,0,0,0,.1.1.2,0,0,0,0-.1.1,0,.1,0,0,.2,0,0,0,0,0,0,0,.3.3.6.2.9.3.5.1.9.3,1.5.3.6,0,1.4-.2,1.8-.4,0,0,0,0,0,0,0,0,0,0,0,0,0,0,0,0,0,0,.2,0,.4-.2.5-.3.1,0,.2-.1.3-.2,0,0,0,0,0,0,0,0,0,0,.1,0,.5-.3,1.5-.9,1.6-1.1,0,0,0,0,0,0,0,0,.2-.1.2-.2,0-.1.1-.2,0-.4,0,0,0-.1,0-.2,0,0,0,0,0-.1,0,0,0,0,0,0,0-.1,0-.2,0-.3,0,0,0,0,0,0,0,0,.1,0,.2,0,0,0,0-.1,0-.2,0,0,0,0,0,0,0,0,0-.1,0-.2,0,0,0,0,0,0,0,0,0,0,0,0,0,0,0,0,0,0,0,0,0,0,0,0,.2,0,.3-.1.4-.2,0,0,0,0,0,0,0,0,0,0,0,0,0,0,0,0,0,0,0,0,.1,0,.2,0,0,0-.1,0-.2-.1.1,0,.3,0,.4.1-.1,0-.2-.2-.3-.3,0,0,.2,0,.3.1,0-.1,0-.3-.2-.4,0,0,0,0,0,0,0,0,0,0,.1.1,0-.1,0-.2,0-.3,0,0,0-.2,0-.2,0,0,0,0,0,0,0,0,0-.1,0-.2,0,0,0,0,0-.1,0,0,0,0,0,.1,0-.1,0-.3,0-.4,0,0,0,0,0,0,0-.1.2-.3.2-.4,0,0,0,.1,0,.2,0-.3,0-.6.1-.9.2,0,.3,0,.5,0,.5,0,1.2-.1,1.5-.2,1.5-.3,2.7-.7,2.7-.8.2,0,.5-.2.7-.2,1-.2,1.9-1,2.4-1.8.5-.9-.1-1.9-.7-2.6-.5-.7-2.6-1.7-3-2.5-.4-.8-.7-1.8-.5-2.5s.5-2.4.8-2.9-.6.1-1.1,1-.9,2.7-.3,4.1c.6,1.4,2.3,2.5,3,3.3.7.8.8,1.3.7,1.9-.2.5-1.7,1.1-4,1.5-.4,0-.8.1-1.2.2,0,0,0,0,0,0,0,0,0,0-.2,0-.4,0-.8,0-1.1,0h-.2c0-.1,0-.3,0-.4,0,0,0,0,0,0,0-.1,0-.3,0-.5,0,0,0,.1.1.1,0-.3-.2-.6-.2-1,0,0,0,0-.1-.1,0,0,0,0,0-.1,0,0,.1,0,.2,0,0-.3-.2-.5-.2-.8,0,0,.2,0,.3.1,0-.2-.2-.4-.4-.6,0,0,0,0,.1,0,0,0,0-.1,0-.2,0,0,.1,0,.2.1,0,0,0-.2-.2-.3,0-.4-.3-.8-.6-1.2.2.2.5.3.8.3-.3-.6-.9-1.3-1.6-1.7.3.2.7.3,1,.3-.4-.4-.9-.8-1.6-1.2,0,0,0,0,0,0,.4,0,.8.1,1.1,0-.4-.4-1-.5-1.6-.7,0,0,0-.1-.1-.2.4,0,.9,0,1.3,0-.5-.3-1-.7-1.7-.8.2,0,.5,0,.7,0-.4-.1-.8-.2-1.2-.4.2,0,.4,0,.6,0-.4-.1-.8-.3-1.2-.4,0,0,0,0,0,0,0,0,0,0,0,0,0,0,0,0-.1,0-.2-.2-.4-.3-.6-.5,0,0,0,0,0,0,0,0-.1,0-.2,0-1.6-1.1-3-1.1-3.5-1.2-.6-.1-2.2.4-2.8.6,0,0,0,0,0,0,0,0,0,0,0,0,0,0-.1,0-.2,0,0,0-.3,0-.5,0,0,0,0,0,0,0,.2-.5,0-.8-.4-.9,0,0,0,0,0,0h0s0,0-.1,0c-.2,0-1,0-1.6.3,0,0,0,0,0,0-.5-.2-1.2,0-1.7.1,0,0,0-.2,0-.2,0,0,0,0,0,.1,0-.2,0-.4,0-.6,0,0,0,0,0,.1,0-.1,0-.2,0-.4,0,0,0,0,0-.1,0,0,0,0,.1,0,0-.1,0-.2-.1-.3,0,0,0-.2-.1-.3,0,0,0,0,0,0,0,0,0,0-.1,0,0,0,0,0,0,0,0,0,0,0,0,0,0,0,0,0,0,0,0,0,0,0,0,0h0c0,0,0,.1,0,0,0,0,0,0,0,.1,0,0,0,0,0,0h0c0,.1,0,0,0,0,0,0,0,.1,0,.2,0,0,0,0,0,0,0,0,0,0,0,.1,0,0,0,0,0,0,0,.1,0,.1,0,.2,0,0,0,0-.1-.1,0,.2,0,0,0,0,0,0,0,.1,0,.1,0,0,0,0,0-.1,0,0,0,0,0,0,0,.1,0,.3,0,.2,0,0,0,.3,0,.2,0,0,0,0,0,0,0,0,0,0,0,0,0,0,0,0,0,0,0,0,0,.2,0,.2h0c0,0-.1,0-.1,0,0,.1-.2.2-.2.2,0,.1,0,.3-.2.2.2.2,0,0,0,.3,0,0,0,0-.1,0,0,0,0,0,0,0-.3,0-.5.1-.7.2-.7.2-1.8.8-2.6,1.3-.2.2-.5.4-.7.6,0,0,0,0,0,0,0,0,0,0,0,0,0,0,0,0,0,0,0-.2,0-.4,0-.6,0,.2,0,.4-.1.6,0,0,0,0,0,0-.2,0-.7.5-.9.8-.7-1.4-2.4-2.5-3.7-3l3.7,3.1s0,0,0,0c0,0,0,0,0,0h.1c0,.1,0,.1,0,.2,0,0,0,0,0,0,0,0,0,0,0,0,0,0,0,0,0,0,0,0,0,0,0,0,0,0,0,0,0,0-.4-.5-1.4-1.1-1.7-1.2l1.5,1.3s0,0,0,0c0,0,0,0,0,0h0c0,0,0,0,0,0,0,0,0,0,0,0h0c0,0-.1,0-.2.1,0,0,.2,0,.3,0h0c0,.1,0,.2-.1.3,0,0-.2-.1-.3-.2,0,0,.2,0,.2,0,0,0-.2,0-.3,0-.3-.2-.6-.3-.8-.4-.7-.3-1.6-.7-2.4-.7l3.4,1.4c0,0,0,.1-.1.2-.9-.5-2.5-.7-3.5-.6l3.4.7c0,0,0,.1-.1.2-.3,0-1,0-1.2,0-.6,0-1.7,0-2.1.4l3.3-.3s0,0,0,0c-.9,0-1.9.2-2.7.5ZM65.6,187.8s0,0,0,0c0,0,0,0,.1,0,0,0,0,0,0,0,0,0,0,0,0,0ZM65.8,187.7s0,0,0,0c0,0,0,0,0,0,0,0,0,0,0,0ZM65,187.2s0,0,0,.1c0,0,0,0,0-.1,0,0,0,0,0,0ZM49.7,175.8c0,.1-.2.3-.3.4,0,0,0,0,0-.1.1-.1.2-.2.4-.3ZM71.6,185.8s0,0,0,0c0,0,0,0,0,0,0,0,0,0,0,0ZM67.3,188.9c0-.2,0-.3.2-.4,0,0,0,0,0,0,0,0,0,0,0,0,0,0,0,0,0,0,0,0,0,0,0,0,0,0-.1.2-.2.3,0,0,0,0-.1.1ZM67.2,189.1c0,0,0-.2,0-.3,0,0,0,.2,0,.3,0,0,0,0,0,0ZM65.3,188s0,0,0,0c0,0,0,0,0,0,0,0,0,0,0,0ZM57.2,184.5s0,0,0,0c0,0,.1,0,.2,0,0,0,0,0,0,0,0,0-.2,0-.3,0ZM54.3,181.5c0-.1-.1-.3-.2-.4,0,0,.1,0,.2,0,0,0,0,0,0,0,0,0,0,0,0,0,0,0,0,0,0,0,0,0,0,0,0,0,0,0,0,0,0,0,0,0,0,0,0,0,0,0-.1,0-.2.1ZM54,181s0,0,0,0c0,0,0,0,.1,0,0,0,0,0,0,0ZM53,180.8s0,0,0,0c0,0,.1,0,.2,0,0,0,0,0,0,0,0,0,0,0,0,0h.2c0,0-.2,0-.3,0,0,0,0,0,0,0ZM52.9,180.5s0,0,0,0c0,0,0,0,0,0,0,0,0,0,0,0Z"/>
    <path class="cls-5" d="M55.5,183.1c.1,0,.2,0,.4,0,0,0,0,0,0,0-.1,0-.3,0-.4,0Z"/>
    <path class="cls-5" d="M55.5,183.2c-.2,0-.3,0-.5-.1.2,0,.3,0,.5.1Z"/>
    <path class="cls-5" d="M62.1,187.7c-.1,0-.3.1-.5.2.2,0,.3-.1.5-.2Z"/>
    <path class="cls-5" d="M62.4,187.5s0,0,0,0c0,0-.2.2-.3.2,0,0,.2-.1.3-.2Z"/>
    <path class="cls-5" d="M71.1,188.1c0,0,.1,0,.2,0,0,0-.1,0-.2,0Z"/>
    <path class="cls-5" d="M60.6,186.4c0,0,0,.2,0,.2,0,0,0-.1,0-.2Z"/>
    <path class="cls-5" d="M64.8,188.4c0-.1.2-.3.4-.5,0,.2-.2.3-.4.5Z"/>
    <path class="cls-5" d="M66.7,189c0,0,0,.1,0,.2,0,0,0-.1,0-.2Z"/>
    <path class="cls-5" d="M66.9,188.8c0,0,0,.2-.1.3,0,0,0-.2.1-.3Z"/>
    <path class="cls-5" d="M66.2,189.3c0,0,.2-.2.3-.4,0,.1-.2.3-.3.4Z"/>
    <path class="cls-5" d="M66.2,188.8c0,0,0,.1-.1.2,0,0,0-.1.1-.2Z"/>
  </g>
  <g class="cls-1">
    <path class="cls-5" d="M52.2,201.4s0,0,0,0l-2.2,3.2s0,0,0,0h0s.6-.8.8-1c.2-.2,1.4-2.2,1.4-2.2h0Z"/>
    <path class="cls-5" d="M51.3,201.4s0,0,0,0l-2.7,2.7s0,0,0,0h0c.2-.2.5-.4.6-.5.3-.2,2.1-2.1,2.1-2.1h0Z"/>
    <path class="cls-5" d="M41.9,189.4s0,0,0,0c0,0,0,0,0,0,0,0,0,0,0,0,0,0,0,0,0,0,0,0,0,0,0,0,0,0,0,0,0,0,0,0,0,0,0,0,0,0,0,0,0,0,0,0,0,0,0,0,0,0,0,0,.1.2,0,0,0,0,0,0,0,0,0,0,0,0Z"/>
    <path class="cls-5" d="M48.5,204.1c-.3.3-.7.7-.7.7h0s0,0,0,0l.7-.7s0,0,0,0h0Z"/>
    <path class="cls-5" d="M54.7,200.1s0,0,0,0c0-.3,0-1.6-.1-1.8-.1-.2-.3-.9-.4-1.2-.1-.3-.9-1.8-1-2,0-.2-.6-.8-.6-.8l-.3-.6s0,0,0,0h0s.1.4,0,.4c0,0,0,0,0,0-.2-.1-.5-.9-.5-.9,0,0,0,0,0,0,0,0,0,0,0,0,0,0,0,.2,0,.2,0,0,0,0,0,0-.2,0-.8-.8-.8-.8v-.5c-.1,0-.1,0-.1,0h0s0,.2,0,.3c0,0,0,0,0,0-.2,0-.6-.8-.6-.8,0,0,0,0,0,0,0,0,0,0,0,0,0,0,0,.4-.2.3-.2,0-.8-.7-.8-.7,0,0,0,0,0,0,0,0,0,0,0,0,0,0,0,.2-.1.2-.2,0-.6-.3-.7-.4-.1,0-.7-.3-.7-.3,0,0,0,0,0,0,0,0,0,0,0,0,0,0,.3.2,0,.3,0,0,0,0,0,0-.2,0-1.1-.4-1.1-.4,0,0,0,0,0,0,0,0,0,0,0,0,0,0,.1.2,0,.2,0,0,0,0,0,0,0,0,0,0-.4,0-.5,0-1.5,0-1.6,0s-.3-.2-.8-.4c-.4-.1-.6-.2-.7-.2,0,0,0,0,0,0s0,0,0,0c-.1,0-.7-.4-.8-.5,0,0-.1-.1-.2-.2,0,0,0,0,0,0,0,0,0,0,0,0,0,0,0,0,0,0,0,0,0,0,0,0,0,0,0,0,0,0,0,0,0,0,0,0,0,0,0,0,0,0h0c-.3,0-1.3-.9-1.3-.9,0,0,0,0,0,0h0s0,0-.1,0c-.4,0-1.3-.6-1.3-.6,0,0-.8,0-1.1-.3-.3-.2-.4-.2-.4-.2,0,0,0,0,0,0,0,0,0,0,0,0,0,0,.1.2,0,.2-.1,0-1.1-.2-1.3-.2,0,0,0,0,0,0,0,0,0,0,0,0-.2,0-.6-.1-.6-.1,0,0,0,0,0,0h0c-.1,0-.4,0-.8,0,0,0-.1,0-.2,0,0,0,0,0,0,0-.6,0-1.2,0-1.2,0h0s0,0,0,0c0,0,.3,0,.3.2s-1.9.2-1.9.2c0,0-.2.1-.2.1,0,0,0,0,0,0,0,0,0,0,0,0,0,0,.3-.2.4-.1,0,0,0,0,.1,0,0,.2-.5.3-.5.3s-1.3,0-1.3,0h-.4c0,.1.6.2.5.2s-.8.3-.9.3-1.2.3-1.3.4,0,.2-.2.3-1.5.6-1.5.6c0,0,0,0,0,0h0s.2,0,.3,0c0,0,.1,0,0,0,0,0,0,.3-.2.4s-1.2.6-1.2.6c0,0,0,0,0,0,0,0,0,0,0,0,0,0,.3-.1.5-.1,0,0,.1,0,.1,0,0,.1-1.3,1.1-1.5,1.3-.2.2-.5.6-.5.6,0,0,0,0,0,0,0,0,0,0,0,0,0,0,.3-.2.5-.2,0,0,0,0,0,0,.1.1-.1.5-.3.6-.1.1-.7.8-.7.8,0,0,0,0,0,0h0s.5-.2.6-.2c0,0,0,0,0,0,0,.1,0,.3-.1.4-.2.1-.7,1.1-.7,1.1,0,0,0,0,0,0,0,0,0,0,0,0,0,0,.2-.2.4-.3,0,0,0,0,.1,0,0,.2,0,.7-.1.8,0,0-.5.8-.5.8,0,0,0,0,0,0,0,0,0,0,0,0,0,0,.6-.6.8-.7,0,0,0,0,0,0,.1.2,0,.5-.2.6s-.7,1.2-.8,1.4,0,.3,0,.3c0,0,0,0,0,0,0,0,0,0,0,0,0,0,.5-.5.6-.5,0,0,0,0,0,0,0,.2-.2.5-.3.7s-.5,1.3-.5,1.3c0,0,0,0,0,0,0,0,0,0,0,0,0,0,.2-.4.3-.4,0,0,0,0,0,0,0,.3-.4,1.1-.4,1.1h0s0,0,0,0c0,0,.5-.2.6-.3,0,0,0,0,0,0,0,0-.7,1.4-.7,1.4,0,0,0,0,0,0,0,0,0,0,0,0,0,0,.8-1.2.9-1.1,0,0,0,0,0,.1,0,.5-.4,1-.4,1.1s-.4.5-.4.5c0,0,0,0,0,0,0,0,0,0,0,0,0,0,.2,0,.3,0,0,0,.1,0,0,.2,0,0-1.3,0-2.4,0,0,0,0,0,0,0-.2,0-.3,0-.5,0-.2,0-.5,0-.6,0-.7-.1-3.8-.5-5.3-1.9-1.7-1.6-2.4-2.3-.6-4,0,0,1.4-1.1,2.9-1.6,1.5-.5,2.5-.8,2.4-1,0-.2-.4-.5-.9-.6,0,0-.1,0-.2,0-.6,0-3.1.3-3.8.8-.8.5-2.5,2.3-2.6,3.1-.1.8-.2,1.8.3,2.8s2.2,2.6,3.5,3.1c1.2.4,4,1,4.5,1h3c0,.1,0,.1,0,.1h0s0,0,.2-.1h.3c0-.2,0-.2.1-.2,0,0,0,0,0,0,0,0,0,0,0,0,0,0,0,0,0,0,0,0,0,0,0,0,0,0,0,0,0,0,0,0,0,0,0,0,0,0,0,0,0,0,0,0,0,0,0,0,0,0,0,0,0,0,0,0,0,0,0,0,0,0,0,0,0,0,0,.3-.1.2-.2.3s0,0,0,0c0,0,.3,0,.7,0,0,0,.1,0,.2,0,.6,0,.6.2.6.2,0,0,0,0,0,0,0,0,0,0,0,0,0,0,.2-.2.4-.2,0,0,0,0,0,0,.1.1-.2.3-.2.3,0,0,1.3.1,1.4.3,0,.1.6.4.5.4s1,0,1.4.1c0,0,0,0,.2,0,.4,0,1.3-.2,1.3-.2,0,0,.1,0,0,.2-.1.1-1.3.5-1.3.5,0,0,0,0,0,0h0s1.8-.1,2.2-.2c.3,0,.7-.2.8-.2,0,0,0,0,0,0,0,0,0,0,0,0,0,0,0,0,0,0-.2.2-.9.5-.9.5,0,0,0,0,0,0h0s1.2-.2,1.6-.3c.3-.1.5-.2.6-.2,0,0,0,0,0,0,0,.2-.1.3-.1.3,0,0,0,0,0,0h0s.2,0,.5-.2c0,.1.1.2.2.3,0,0,0,0,0,0,0,0,0,0,0,0,0,0,0,0,0,0,0,0,0,0,0,0,0,0,0,0,0,0,0,0,0,0,0,0,0,0,0,0,0,0,0,0,0,0,0,0,.3,0,.7,0,1.1,0,.2,0,.5,0,.6,0,.4-.1,1-.1,1.6-.2,0,0,1,.1,1.2.2.2,0,.4,0,.6,0,0,0,.1,0,.2,0,.2,0,.6,0,.8,0,0,0,.2,0,.2,0,.2,0,.3.1.3.1h0s0,0,0,0c0,0,0,0,0,0,.1,0,.2,0,.3,0,0,0,0,0,0,0,0,0,0,0,0-.1,0,0-.4-.4-.4-.4h0s0,0,0,0h0s0-.4,0-.4c.3,0,.7.3.7.3,0,0,0,0,.2,0,0,0,.1,0,.1,0,0,0-.2-.2-.2-.2-.2-.2-.2-.4-.2-.4v-.5s-.3-.6-.6-.6c0,0-.1,0-.2,0-.4,0-1.1,0-1.6,0-.3,0-.5,0-.5,0,0,0,0,0,0,0,0,0,0,0,0,0,0,0,0,0,0,0,0,0,0,0,0,0,0,0,0,0,0,0,0,0,0,0,0,0,0,0,0,0,0,0,0,0,0,0,.1,0,0,0,0,0,0,0,0,0,0,0,0,0,0,0,0,0,0,0,0,0,.7-.6.8-.6,0,0,0,0,0,0,0,.1,0,.1.2.1.1,0,.2,0,.2,0,0,0,.1,0,.2,0,0,0,.1,0,0,0,0,0,0,0,0,0,0,0,0,0,0,0,0,0,0,0,0,0,0,0,0,0,0,0,0,0,0,0,0,0,0,0,0,0,0,0,0,0,0,0,0,0,0,0,0,0,0,0,0,0-.2,0-.2,0,0,0,0,0,0,0,0,0,0,0,0,0,0,0,.3,0,.5-.1,0,0,0,0,0,0,0,0,0,0,0,0,0,0,0,0,0,0,0,0,0,0,0,0,0,0,0,0,0,0,0,0,0,0,0,0,0,0,0,0,0,0,0,0,0,0,0,0,0,0,0,0,0,0,0,0,0,0,0,0,0,0,0,0,0,0,0,0,0,0,0,0,0,0,0,0,0,0,0,0,0,0,0,0,0,0,0,0,0,0,0,0,0,0,0,0,0,0,0,0,0,0,0,.2.2.2.2.2h0s.9,0,1.2,0c.2,0,.3,0,.4,0,0,0,.2,0,.2.1,0,.2-.2.4-.2.4,0,0,0,0,0,0,0,0,0,0,0,0,0,0,1-.5,1.3-.5,0,0,0,0,0,0,.1,0,.1.4.1.4h0s0,0,0,0c0,0,.7-.7.9-.7,0,0,0,0,0,0,0,0,0,0,0,0,0,0,0,0,0,.1,0,0,0,0,0,0,0,0,0,0,0,0,0,0,.5.2.6.2,0,0,0,0,0,0,.2,0,.5-.1.7-.1.3,0,.8,0,.9.1,0,0,0,0,0,0,.2,0,.7,0,.8,0,.1,0,0-.3,0-.3,0,0,.2,0,.3-.1s-.2-.2-.2-.2v-.3c0,0,0-.1,0-.2,0,0-.1-.2-.3-.2,0,0,0,0,0,0,0,0,0,0,0,0,0,0,0,0,0,0,0,0,0,0,0,0,0,0,0,0,0,0,0,0,0,0,0,0,0,0,0,0,0,0,0,0,0,0,0,0,0,0,0,0,0,0,0,0,0,0,0,0,0,0,0,0,0,0,0,0,0,0,0,0,0,0,0,0,0,0,0,0,0,0,0,0,0,0,0,0,0,0,0,0,0,0,0,0,0,0,0,0,0,0,0,0,0,0,0,0,0,0,0,0,0,0,0,0,0,0-.1,0,0,0,0,0,0,0-.2,0-.4,0-.4,0,.2-.2.5-.4.6-.4,0,0,0,0,0,0,0,0,0,0,0,0,0,0,0,0,0,0,0,0,0,0,0,0,0,0,0,0,0,0,0,0,0,0,0,0,.2,0,.5-.2.5-.2,0,0,0,0,0,0,0,0,0,0,0,0,0,0,0,0,0,0,0,0,0,0,0,0,0,0,0,0,0,0,0,0,0,0,0,0h.1c0,0,0,0,0,0h0s.6-.3.6-.3c0,0,.3-.1.5-.2,0,0,0,0,0,0,0,.1-.2.3-.2.3,0,0,0,0,0,0h0s0,0,0,0c0,0,0,0,0,0,0,0,0,0,0,0,0,0,0,0,0,0,0,0,0,0,0,0h0s0,0,0,0c0,0,0,0,0,0,0,0,0,0,0,0h0s0,0,0,0c0,0,0,0,0,0,0,0,0,0,0,0,0,0,0,0,0,0,0,0,0,0,0,0,0,0,0,0,0,0,0,0,0,0,0,0,0,0,0,0,0,0,0,0,0,0,0,0,0,0,.4-.1.7-.1.2,0,.3,0,.3,0,0,0,.9.1,1,.1h0s0,0,0,0c0,0,0,0,0,0,0,0,0,0,0,0s0,0,0,0c0,0,0,0,0,0,0,0,0,0,0,0,0,0,.1,0,.2,0,0,0,0,0,0,0,0,0,0,0,0,0,0,0,0,0,0,0,0,0,.1,0,.2,0,0,0,0,0,0,0l-1.4,2.8s0,0,0,0h0s.3-.5.8-1.4c0-.1.1-.2.2-.3,0,0,0,0,0,0,.2-.4.4-.9.5-1.1,0,0,0,0,0,0,0,0,0,0,0,0,0,0,0,0,0,0,0,0,.1-.2.2-.3v1.9c0,0,0,0,0,0h0s0-.7,0-1.2c0,0,0,0,0,0,0,0,0-.1,0-.2,0,0,0,0,0,0,0,0,0,0,0-.1,0,0,0,0,0,0,0,0,0,0,0-.1,0,0,0,0,0,0,0,0,0,0,0,0,0,0,0,0,0,0,0,0,0,0,.1-.1l.5,1.4s0,0,0,0h0s0-.2,0-.5c0,0,0,0,0-.1,0,0,0,0,0,0,0,0,0,0,0-.1,0,0,0,0,0,0-.1-.2-.3-.5-.4-.6,0,0,0,0,0,0,0,0,0,0,0,0,0,0,0,0,0,0,0,0,0,0,0,0,0,0,0,0,0,0,0,0,0,0,0,0,0,0,0,0,0,0,0,0,0,0,.1,0,0,0,0,0,0,0,0,0,0,0,0,0,0,0,0,0,0,0,0,0,0,0,0,0,0,0,0,0,0,0,0,0,0,0,0,0,0,0,0,0,0,0,0,0,0,0,.1,0,0,0,0,0,0,0,0,0,0,0,0,0,0,0,0,0,0,0,0,0,0,0,0,0,.1,0,.1-.2.2-.3,0,0,0,0,0,0,0,0,0,0,0,0ZM41.3,206h0c0,0,0,0,0,0h.1Z"/>
  </g>
  <path class="cls-5" d="M231.8,166.1c-1.1.7-1.9,1.4-1.9,1.4,0,0,.9-.5,1.9-1.4Z"/>
  <path class="cls-3" d="M139.5,42.1h0c.6,0,1.1.4,1.7.6-.5-1.1-1.6-1.1-2.4-1.5.5,0,1.1.2,1.5.3v-.2c-3.2-.9-6.4-1.7-9.6-2.6v-.2c1.2,0,2.4.3,3.6.4h0c-1.2-.4-2.6-.8-3.7-1.1.3,0,.8-.2,1.1-.3v-.2c-2.2,0-4.4-.7-6.4.9l-.2-.2c.6-.5,1.1-1,1.7-1.5-1.6.7-2.9,1.7-3.5,3.3,0-.7,0-1.3,0-2-.3.5-.5.9-.9,1.3-.2-.4-.3-.6-.5-.9-.4.7,0,1.5-.9,2.1v1.1h-4.6c-2,0-4,.4-6,.5-.7,0-1.1-.2-1.2-1,0-.9-.4-1.7-.6-2.5h-.2v1.1c-.7-1-1.3-2-2.1-3,0,0,0,0-.2,0,0,.4.2.8.3,1.1,0,.4,0,.8,0,1.2-.9-1.1-1.7-1.9-2.6-2.9h-.2c.4.8.7,1.4,1.1,2h0c-.8-.7-1.5-1.2-2.2-1.9h0c.3.5.7,1,1,1.3-1.2-1-2.5-1.8-4.2-2.1.9.5,1.5.8,2.2,1.1h0l-2.8-.6v.2c.3,0,.6.2.9.3h0c-.9.2-1.8.4-2.8.6.3,0,.5,0,.7.2-2.2.9-4.4,1.7-6.7,2.7v.2h1.1v.2c-.8.2-1.4.4-2.4.7.7,0,1.2.2,1.7.2h0c-.3,0-.6.3-1.1.4,1,.2,1.1.7.9,1.3-.2.3-.4.7-.6,1l-.2.2s-.9,1.3-1.1,1.7c-.2.2,0,.5.3.7v.2c.2.3.9.4,1.3.5.4,0,.8,0,1.1-.3,1.1-.7,2.1,0,3.2.4-.3,0-.7,0-1,0h0c.5.4,1,.7,1.5,1h0c-.6,0-1.1-.2-1.8-.3.4.3.6.5,1.1.9-.5,0-.7-.2-1-.2.4.8.8,1.4,1.1,2h-.6v.2c.5.2,1.1.4,1.6.6-.4,0-.8,0-1.3.3.9.3,1.5.5,2.1.7-.9,1.1-1.6,2.2-2.4,3.3l.2.2c.3-.3.7-.6,1-.9h0c-.2.4-.4.7-.8,1.1.5-.2.8-.4,1-.5-.3.9-.6,1.6-.9,2.4h0c.4-.5.9-1,1.2-1.3h0c-.2.6-.5,1.1-.7,1.6h.2c.2-.3.4-.5.6-.8-.4,2-1.1,3.7-3.3,4.4,1.8,0,2.8-1.3,3.4-3,0,0,.2,0,.3.2-.5,1.1-.9,2.2-1.3,3.2,0,0,.4-.3.7-.6-.2,1.4-1,2.3-2.1,3,0,0,0,0,.2.2.7-.6,1.3-1.2,2-1.8,0,1.2-.7,2.2-1.6,3.1-4.6,3.9-10,6.1-15.5,8.3-.3,0-.6.2-.9.2-1.9.2-3.7.5-5.6.6-6.8.4-13.6-.3-20.3-1.2-9.4-1.3-18.4.2-27,3.8-.2,0-.3.2-.6.4.8,0,1.3-.2,2.2-.4-.5.3-.7.5-1,.6-2.6,1.6-4.7,3.7-6.2,6.4-1.9,3.3-2.8,6.8-3.2,10.4,0,.7-.3,1.1-1,1.4-.9.5-1.7,1.1-2.6,1.7-.9.7-1.7,1.4-2.5,2.2h0c1.4-.6,2.9-1.2,4.5-2-1.4,1.3-2.8,2.5-3.9,3.7-1.2,1.4-2.1,3.4-2.2,4.5,1.1-2,2.3-3.2,3.4-3.4-2.1,2.3-3.2,4.1-3.2,5.4.3-.4.6-.9.9-1.2h0c-.4,1-.8,2-1.2,3h0c.4-.6.8-1.1,1.1-1.8-1.9,3.7-3,7.7-3.2,11.9.6-1.3,1.1-2.7,1.7-4,.8-1.6,2-2.9,2.7-3.3-2.9,4.7-4.4,8.8-4.1,11.3.8-3.1,1.9-5.7,4.1-8-2.4,3.4-3.3,7.4-3.4,11.2.8-1.8,1.6-3.8,2.5-5.8,0,0,.2,0,.4,0-1.3,3-2.4,6-2.6,9.3-.3,3.2,1.1,7.6,2.4,8.8-.6-1.6-1.3-3.5-2-5.5,0,0,.2,0,.3,0,1.2,2.4,3.6,4.1,3.9,7.1,0,0,.2,0,.4-.2-.6-1.6-1.1-3.3-1.6-5,2,1.8,3.1,4.1,3.6,6.7,0,0,.2,0,.3,0-.5-1.9-1-3.8-1.5-6,1,1.3,1.8,2.5,2.7,3.6,0,0,0-.2,0-.3,0,0,0,.2.3.4v-2.9h0c0,.4.2.7.3,1.1.2-.5.3-.9.5-1.2.3,2.8-.9,5-2.6,6.9-1,1.1-1.2,2.2-.9,3.6.7,2.6.9,5.2.9,7.7s0,3.9.2,5.8c0,.3.2.6.3.9v1.5h0c-.2,1.5-.5,3.9-.5,4.7,0,1.1.6,3.3.6,3.3h0c-.3.5-.6,1-.6,1.4s.3,1.1,1,1.4c2.5.9,5,1.5,7.6,1.3.8,0,1.5,0,2.2-.3h.2c.4,0,.7-.2,1.1-.3,1.3-.5,1.8-2,1.1-3.3,0-.6,0-1.1-.3-1.4h0c-.3-.8-.9-1.8-1.1-2.2-.6-.7-1.5-1.1-2.1-1.1,0,0-1.4-.3-1.8-1.4-.3-.8-.6-2.8-.7-3.9h0c-.9-7.1,0-13.8,3.4-19.9,0,.9-.2,1.8,0,2.7,1.1,3.7,2.1,7.4,3.3,11.1.9,2.7.9,5.7,2.8,8.1v.3c0,1.7,3.1,3.2,7.1,2.5,1.4,0,2.8,0,4.2-.2.6,0,1.9-.6,1.7-1.2v-.5c0-.5,0-1,0-1.3-.8-2.7-2.5-4.6-5.5-4.3h-.5c-.6-.2-1.2-.4-1.6-.8-.5-.5-.9-1.1-1.1-1.8-.7-2.3-1.3-4.5-1.7-6.8-.7-3.9-.3-7.7,2.4-10.8,2-2.4,4.2-4.7,6.3-7,2-2.2,4.1-4.3,6-6.6,1.1-1.3,1.8-3,1.9-4.8h0s0-.2,0-.4v2c0,.9.8-.5.8-.5,0,0,.5-2.2.7-3.4h0c.2.5-.2,3.2-.2,3.2,0,0,1.1-2.1,2-3.3.9-1.3,1.1-1.6,1.1-1.6,0,0-.2,2-.3,2.5,0,.5,0,1.5.2,1.2.3-.3.6-2.3.9-3.2s.3-1,.7-.4,1.1,2.5,1.1,2.5l.5-.4h0c0,1,.2,1.9.3,2.8.5-1.2.4-2.5,0-3.6,0-.3.2-.5.4-.7.5-.5.2-.7,0-1.1v-.8c.4,1,.9,1.8,1.2,2.8,0-.6,0-1.2-.2-1.8h0c.2,2,.5,4.3.9,5.3.8,2-.6,3.6-.6,3.6l3.5-3.3c-.2,1.3-.3,2.3,0,2,.6-.6,1-1.3,1.1-2,.4.6,1,1.3,1.1,2,0,.3,0,.6-.2,1,0-.2,0-.3.2-.5,0,.2,0,.4-.2.5-1,.9.7,1.6.7,1.6l3.3-4-1.5,6.1s.4-.3,1.1-.7h0c0,0,0,0,.2,0,2.6-1.5,8.9-5.3,8.8-4,0,1.6-2.8,5.5-2.8,5.5,0,0,2.9-3.2,3.3-2.5s-1.7,5.4-1.7,5.4c0,0,2.2-2.9,3.2-1.9,1,1-1.1,3.1-1.1,3.1l4.6-3.9h.3c-.3.4-.6,1-.9,1.5-.7,1.1-1.5,2.1-2.4,2.8,1.2-.9,2.9-2,3.4-2.2,1-.4-3.3,3.9-3.3,3.9,0,0,1.7-.7,2-.5.3,0-1.6,1.2-2.6,1.4-1,.2-2.1,1.5-2.1,1.5,0,0,3.9-.9,5.8-.8,1.9,0,.7.5-.5.9s-4.1,2.8-4.1,2.8c0,0,2.2-.9,2.8-.7.6.2-1.2,1.3-1.2,1.3,0,0,.6,0,1-.3s3.3-.6,4.8,0c.4.2.8.3,1.1.3-.6.2-1.1.4-1.2.4-.7,0-4.6,1-4.6,1,0,0,1.6,0,1.8.3s-.7.6-1.2.9c-.6.3-2.5,1.5-2.5,1.5,0,0,1.8-.4,3.3-.6,1.4-.2,2.6,0,3.3,0s.2.5-.3.6c-.5,0-1.8.7-1.8.7,0,0,1.1,0,2.5.5,1.3.4,2.3,1.9,2.2,2.3,0,.4-.9-.6-1.4-.8-.5-.2-1.8-.3-1.8-.3.5,0,2.9,1.1,3,1.4,0,.4,0,0-.9,0s-3.5.7-3.5.7h2.7c.6,0,1.7.8,1.6,1.1,0,.4-1.5.2-2.8.4-1.2.2-2.8,1.1-2.8,1.1,0,0,1.3,0,2.1,0,.8,0,2.7.6,2.7.6,0,0,.5,1.8.2,2.2-.7.4-1.4.9-1.4.9l.5.7-2,1.6,2.1.3,1.7-.9-1.1,2.9,1.7-1.6s-.2,0-.2.2c0,0,.3-.3.5-.7l-.3.5s-.2.9-.5,1.2c-.2.5-.4,1.9-.4,1.9,0,0,.2-.3.3-.6,0-.3.7-.8.9-1,.2-.2-.4,1.1-.8,1.7-.4.5-1.8,2-1.8,2,0,0,.7-.4,1.7-1.2,1-1,1.8-2.4,1.8-2.4,0,0-.6,4.1-.7,4.8s-1.6,2.9-1.3,2.9,1.5-2.2,1.9-2.1c0,0,.2.3,0,.7s-.4.8-.7.9c-.8.3,0,0,.4,0,0,0,.2,0,.3,0,0,1-.4,2.1-.4,2.1,0,0,.6-.8.6-1s.2-1,.3-1.5c0,0,.3-.3.4-.5,0,0,.2-.3.3-.5,0,0,.2.9.2,1.3s.5,5.7.5,6.3.4,2,.5,2.6c-.6.9-.5,1.9.2,2.5,2.4.9,3.3.9,5.4,1.1h0c.3,0,.6,0,1.1.2,1.9.3,3.6,0,5.4-.4.3,0,.5-.2.7-.3h0s0,0,.2,0c.9-.7,1-1.7,0-2.8-.4-.7-1.5-2.9-1.9-3.5s-2-1.4-2.3-1.7c-.3-.2-1.4-2.6-1.6-3.2s-1.4-6.7-1.7-7.8c0-.7-.3-4-.5-7h0c-.3-7.9-.7-15.8-1-23.7h.3c.6.5.8,1.2.6,1.9,0,.8-.4,1.4-.6,2.4.5-.7.8-1.1,1.1-1.6.7,1.8,0,3.3-.6,5.2.6-.7,1.1-1.2,1.5-1.7,0,0,0,.3.2.4v3.2c-.3,1-.9,3.6-1,4.5,0,.8-.2,1.5-.2,1.5,0,0,.9-2.1,1.1-1.6s-.7,4.2-.7,4.2c0,0,.7-1.5.9-1.1.3.3-.8,1.6-.7,2v1.6c0,.4-.2,1.6-.3,1.9,0,.3,1.1-.7,1.5-1.1.4-.4,1.1-1.3,1.1-.8s-2.5,3.7-2.9,4.1c-.4.5,0,1.1,0,1.1,0,0,1.2-2,1.3-1.7s-.2,1.6-.4,1.9c0,.3-.4,2.3-.4,2.3,0,0,2-2.5,2.2-2.3.3.3-.9,2.1-1,2.3s0,2.8,0,3.5c0,.8.2,1.1.6.7.4-.4,1.3-2.9,1.3-2.9,0,0,.3,1.2,0,2.2s-.3,1.9-.3,1.9c0,0,.5-1.3.7-1.2.2,0,1.3,3.1,1.3,3.1h0c.4,1.5.8,3.1,1.1,4.6,0,.8,2.1,1.6,3.8,2.3,1.1,1.7-.3,1.6,3.5,1.2.5,0,4.3-2.7-1.5-9.3-.5-.5-1.5-4.5-1.6-4.8s-.8-5.8-.8-6.5c0,1.1.3,2,.4,3.1,0-.3.2-.6,0-.8,0-2.9-.3-5.7-.2-8.6.3-7.7,1-15.2,2-22.8,0-.4.3-.9.6-1.2.4-.4.9-.8,1.3-1.2h0c0,0,.2-.2.3-.3h0l.3-.3h0c.3,0,.4.2.5.3,0-.3,0-.7,0-1.1h0c0,0,.2-.3.4-.4h0c.3-.3.7-.8.9-1.1.3.7,0,1.8,0,1.8l.8-2.2v.5s0,.7.2.5.8-2.6,1-2.9.3-.4.3,0,0,2.8.2,2.9c0,.2.2,1,.3.6,0-.3,0-3.3.2-4.3.3-1,1.3-2.6,1.5-2.8.2-.2.4-.6.4-.8v-.4c.2-.2.3-.5.4-.6.4-1.1.5,1.4.5,1.4,0,0,.3-1.3.6-2.5.3,1.1.4,2.4.5,2.7.2.3,0-1.5,0-1.5,0,0,0-1.1-.2-2.1,0-.3.2-.6.3-.6.3-.2,1,.7,1,.7,0,0-1.1-2.9-1-3.6s.6,1.7.6,1.7c0,0-.4-3.3-.2-3.8,0-.4.8.8,1.2,1.5-.6-1.1-1.5-3-.6-3.2,1.2-.2,2.8,1.3,2.8,1.3l-.4-1.6c1.3.3,1.7,1.6,1.7,1.6,0-1.1-1.1-1.8-1.1-1.8.5-.2,1.4-.4,2.2,0s1.2,1.4,1.2,1.2,0-.5-.2-1v-.2s0-.2-.2-.3c-.3-.8-.6-1.6-.6-1.6,0,0,0-1.8.7-1.7.7,0,1.1,3.6,1.1,3.6,0,0,0-1.4-.6-3.1s.2-2.3,0-2.6c-.2-.4,1.1-4.9,1.1-4.4s.2,2.4.5,1.1c.2-1.1-.4-3.6,0-4.1.3-.4.7.9.9,1.4-.2-.8-.9-2.8-.9-2.8-.3-1.1-.7-5.5-.9-8.5h0c0,.8.3,1.6.4,2.4.2.8.4,1.6.6,2.4.2.8.5,1.5.7,2.3-.6-3.2-.5-6.2.3-9.4,0,.9.2,1.7.3,2.7h.2v-7.6c.3.5.7,1.1,1,1.5-.3-1.2-.8-2.6-.9-4-.2-2.2-.2-4.5-.2-6.7,1,1.4,1,3.1.8,4.7.8-2.4,1.5-4.9-.8-7.1,2.5,1.3,3.1,1.6,4.3,1.1-.7-.3-1.2-.6-1.9-.9v-.2h1.1c-.8-.5-1.6-.9-2.5-1.3v-.3c.9.3,1.6.5,2.3.8-.6-.7-1.2-1.3-1.7-2s-.8-1.4-1.1-2.2c.9,0,1.6.2,2.5.3-1.1-.7-2.3-1.2-3.2-2.4.7,0,1.3,0,2,0v-.2c-.4-.2-.8-.3-1.1-.5.7-.3,1.3-.6,2-.8-.8,0-1.4-.2-2.2-.3.6-.4.9-.7,1.2-1,.4-.3.7-.5,1.1-.9.2.2.3.4.5.6.9.8,2,1.1,2.7.7.9-.7.7-1.6.6-2.5-.2-1.6-.3-3.3-.5-5h1.1c-.5-.5-.9-1-1.3-1.3v-.2ZM21.7,156.5v-1.5,1.5ZM38.5,164.8c-.6,0,.2.7,0,.8,0,0-.8-1.1,0-.8ZM90.8,150.5h0ZM111.2,123.8v-.3.3h0ZM123,70.3s0,0,0-.2h0s0,0,0,.2ZM123.9,67.8h0Z"/>
  <path class="cls-4" d="M320.4,70.8c-.1-.5-.4-.7-.7-.8-2.5-2-10.7-5.9-10.7-5.9,0,0-4-3.5-4.8-4.1-.7-.6-1.9-4.1-2.9-5.4-.6-.9-5.8-4.6-9.3-7.1l-.2-4.8-1-7.2c-1-6.2-6.1,4.9-7.8,8.9,0,0,0,0,0,0v-.5s-4.7-10.5-4.7-10.5c0,0,0,0,0,0,.7,1.3.5.8,0,0,0,0,0-.2-.6-1.2-1.7-2.7-3.6,1.7-3.6,1.7l-6,14.2s0,0,0,0c-.6.7-1.3,1.5-1.9,2.4-5.6,8-17.2,25.2-21,28.7-7.4,6.7-21,6.7-21,6.7l-25.5,2.6-29.9,2.5s-12.8,3.8-17.2,7.3c-1.9,1.5-3.1,2.9-4.2,4.4l-9.5,6.1-5.4,6-1.3,1.9-5.7,3.8-1.9,1.9-2.9,2.5s-10.5,9.9-10.8,10.8c-.3,1,.6,1.6.6,1.6,0,0-4.1,3.8-5.1,4.8-1,1-7.6,9.6-7.6,9.6l-8,11.1-3.9,10h0s-.8,2.1-.8,2.1l-1.3,15h0c0,.4,0,1.2,0,1.9h0s0,.3.2.6c.2.4.5.8,1,.9,0,0,0,0,.2,0,0,0,0,0,.1,0,.4,0,7-1,7.9-1.6,1-.6,14.3-2.9,14.3-2.9l10.5-8.3s12.7-13.7,13.1-14.6c.3-1,5.4-5.7,5.7-6.7.3-1,3.5-2.9,3.5-4.1s.6-11.5.6-11.5l2.7-9.5.8,3.2s4,10.5,4.5,15.3c.3,3.8-.5,7-.8,8.1v-.2c0,0-.2.7-.2.7,0,0-7.6,5.9-7.6,9.6s4.8,16.9,4.8,16.9l.6,12.1,2.2,1.9s4.4,4.5,5.1,4.5h8l3.2-.3s1.1-4.1-1-5.7l-1.1-.9c-.5-.4-.9-.7-1.3-1l-.7-.6c-.2-.1-.3-.2-.4-.3h-.1c0-.1-3.8-1.4-3.8-1.4l-.5-4.3h0s-1.7-15.4-1.7-15.4l3.8-3.5,14.3-7.3s1-.7,2.4-1.7c-.5,1.8-1.1,3.3-1.7,3.6-1.8,1-3.8,1.3-5.4,2.9-1.6,1.6-1.3,4.5-1.3,4.5l5.1,9.2,3.5,6.7.3,3.2,1.6,1.9.6,4.5,5.4.3h8.3l.6-2.5s-1.7-3.4-3.2-3.8l-.9-.2c-.2,0-.4-.1-.7-.2h-.5c-.3-.2-.5-.3-.8-.4l-.7-.2-1.3-1.3-4.1-8.9-1-6.4.6-2.3s0,0,0-.2l.3-1.1,5.4-4.5,6.1-6.7s3.8-5.9,3.8-9.9-.3-8.4-.5-11.5l17.7,2.6,17.2.3,9.6-2.2,4.1,3.2.3,2.1h0s2.9,22.8,2.9,22.8l2.2,6.5.7,7.2.6,7.3,3.2,12.1,2.4.2h0s10.1,1,10.1,1l1.6-1.3-2.9-5.4-4.1-1-2.2-7.3.6-4.1v-2.4c.1,0,2.2,8.2,2.2,8.2l4.1,4.1,8.3.3.3-3.2-2.9-3.5-4.1-1.6-2.2-8.3.3-8,1.3-14.6.4-5.5h0s.9-10.7.9-10.7l4.7-5.8s3.1-2.6,6.3-8.3c3.2-5.7,10.7-38.5,11.5-40.1,1-1.8,4-4.1,5.8-4.9,1.8-.9,5.1-.8,8.2-.8,2.5,0,8.3,1,9.3,1,.9,0,4.8-2.5,5.6-3.7.6-.9.9-1.6,1-1.9,0,0,1.7-2.2,1.3-4ZM319,74.6h0s0,0,0,0h0Z"/>
</svg>