<?xml version="1.0" encoding="utf-8"?>
<!-- Generator: Adobe Illustrator 26.3.1, SVG Export Plug-In . SVG Version: 6.00 Build 0)  -->
<svg version="1.1" id="Livello_1" xmlns="http://www.w3.org/2000/svg" xmlns:xlink="http://www.w3.org/1999/xlink" x="0px" y="0px"
	 viewBox="0 0 232 213.3" style="enable-background:new 0 0 232 213.3;" xml:space="preserve">
<style type="text/css">
	.st0{fill:#FFFFFF;}
</style>
<circle id="Ellisse_9-6" class="st0" cx="96.8" cy="22.5" r="16.5"/>
<path id="Tracciato_15-6" class="st0" d="M73.4,43.4h44.2c3.8,0,6.9,3.1,6.9,6.9V89c0,3.8-3.1,6.9-6.9,6.9H115v46.9H76.3V95.9h-2.8
	c-3.8,0-6.9-3.1-6.9-6.9V50.3C66.5,46.5,69.6,43.4,73.4,43.4C73.4,43.4,73.4,43.4,73.4,43.4z"/>
<circle id="Ellisse_9-7" class="st0" cx="170.3" cy="22.5" r="16.5"/>
<path id="Tracciato_15-7" class="st0" d="M146.9,43.4h44.2c3.8,0,6.9,3.1,6.9,6.9V89c0,3.8-3.1,6.9-6.9,6.9h-2.6v46.9h-38.7V95.9
	h-2.8c-3.8,0-6.9-3.1-6.9-6.9V50.3C140,46.5,143.1,43.4,146.9,43.4C146.9,43.4,146.9,43.4,146.9,43.4z"/>
<circle id="Ellisse_9-8" class="st0" cx="117.3" cy="81" r="16.5"/>
<path id="Tracciato_15-8" class="st0" d="M93.9,101.9h44.2c3.8,0,6.9,3.1,6.9,6.9v38.7c0,3.8-3.1,6.9-6.9,6.9h-2.6v46.9H96.8v-46.9
	h-2.8c-3.8,0-6.9-3.1-6.9-6.9v-38.7C87,105,90.1,101.9,93.9,101.9C93.9,101.9,93.9,101.9,93.9,101.9z"/>
<circle id="Ellisse_9-9" class="st0" cx="195.3" cy="81" r="16.5"/>
<path id="Tracciato_15-9" class="st0" d="M171.9,101.9h44.2c3.8,0,6.9,3.1,6.9,6.9v38.7c0,3.8-3.1,6.9-6.9,6.9h-2.6v46.9h-38.7
	v-46.9h-2.8c-3.8,0-6.9-3.1-6.9-6.9v-38.7C165,105,168.1,101.9,171.9,101.9C171.9,101.9,171.9,101.9,171.9,101.9z"/>
<circle id="Ellisse_9-10" class="st0" cx="39.3" cy="81" r="16.5"/>
<path id="Tracciato_15-10" class="st0" d="M15.9,101.9h44.2c3.8,0,6.9,3.1,6.9,6.9v38.7c0,3.8-3.1,6.9-6.9,6.9h-2.6v46.9H18.8v-46.9
	h-2.8c-3.8,0-6.9-3.1-6.9-6.9v-38.7C9,105,12.1,101.9,15.9,101.9C15.9,101.9,15.9,101.9,15.9,101.9z"/>
</svg>
