<?xml version="1.0" encoding="UTF-8"?>
<svg xmlns="http://www.w3.org/2000/svg" xmlns:xlink="http://www.w3.org/1999/xlink" version="1.1" viewBox="0 0 76.5 76.5">
  <defs>
    <style>
      .cls-1 {
        fill: #333;
      }

      .cls-1, .cls-2, .cls-3, .cls-4, .cls-5, .cls-6, .cls-7, .cls-8, .cls-9, .cls-10, .cls-11, .cls-12, .cls-13, .cls-14, .cls-15, .cls-16, .cls-17, .cls-18, .cls-19, .cls-20 {
        stroke-width: 0px;
      }

      .cls-2, .cls-4, .cls-6, .cls-10, .cls-12, .cls-15, .cls-16, .cls-17, .cls-19 {
        mix-blend-mode: multiply;
      }

      .cls-2, .cls-6, .cls-10, .cls-15 {
        opacity: .5;
      }

      .cls-2, .cls-14, .cls-17 {
        fill: #8c6239;
      }

      .cls-3, .cls-12 {
        fill: #dba7cf;
      }

      .cls-4, .cls-10, .cls-18 {
        fill: #fff;
      }

      .cls-4, .cls-17 {
        opacity: .3;
      }

      .cls-21 {
        clip-path: url(#clippath);
      }

      .cls-5 {
        fill: none;
      }

      .cls-6 {
        fill: #00adee;
      }

      .cls-7, .cls-19 {
        fill: #8c3f72;
      }

      .cls-8 {
        fill: #5b3617;
      }

      .cls-9 {
        fill: #ffb012;
      }

      .cls-11 {
        fill: #1a1a1a;
      }

      .cls-22 {
        clip-path: url(#clippath-1);
      }

      .cls-13 {
        fill: #000;
      }

      .cls-15, .cls-16 {
        fill: #b3b3b3;
      }

      .cls-16 {
        opacity: .7;
      }

      .cls-23 {
        isolation: isolate;
      }

      .cls-20 {
        fill: #231f20;
      }
    </style>
    <clipPath id="clippath">
      <path class="cls-5" d="M42.8,10.2c-1.2.4-22.3,7.4-27.8,16s-10.2,13.5-10.2,13.5c0,0,18.9,17.9,30.8,23.9s12-6.8,22.5-8.4c10.5-1.6,19.3-16.1,11.2-26-8.1-9.8-14.7-23.5-26.5-18.9Z"/>
    </clipPath>
    <clipPath id="clippath-1">
      <path class="cls-5" d="M42.8,10.2c-1.2.4-22.3,7.4-27.8,16s-10.2,13.5-10.2,13.5c0,0,18.9,17.9,30.8,23.9s12-6.8,22.5-8.4c10.5-1.6,19.3-16.1,11.2-26-8.1-9.8-14.7-23.5-26.5-18.9Z"/>
    </clipPath>
  </defs>
  <g class="cls-23">
    <g id="Livello_1" data-name="Livello 1">
      <path class="cls-18" d="M5.8,40.4l-.9.3c-.7.2-.8,1.1-.3,1.6,3.2,2.9,12.3,11.2,14.7,13s9.1,6.2,12.1,8.2,1.6,0,1.7-.8v-.5s-9-13-9-13l-18.3-8.8Z"/>
      <g class="cls-21">
        <g>
          <path class="cls-10" d="M-1.9,118.7c-19,0-37-.5-50.4-1.5-22.2-1.5-22.2-3.4-22.2-4.9s2-2.6,8.2-3.6c1.4-.2,3-.4,4.7-.6,2-.2,4.2-.4,6.4-.6,13.5-1.1,32.9-1.7,53.3-1.7s9.9,0,15,.1c3.1,0,6.1.1,9,.2,13.7.3,25.5,1,34.1,1.8,13.5,1.3,14.6,2.7,14.6,4.3s0,3.4-22.2,4.9c-13.5.9-31.4,1.5-50.4,1.5Z"/>
          <path class="cls-10" d="M69.3,112.4c0,2.7-31.9,5-71.2,5s-71.2-2.2-71.2-5,2.5-1.5,7-2.2c1.4-.2,2.9-.4,4.6-.6,1.9-.2,4.1-.4,6.4-.6,13-1,32-1.7,53.2-1.7s10.1,0,14.9.1c3.1,0,6.1.1,9,.2,27.5.7,47.3,2.5,47.3,4.7Z"/>
          <g>
            <path class="cls-18" d="M-64.5,89.6h-.3c-.2-.1-.3-.2-.5-.3-1.7-1-1.5-3.8-.5-10,.7-4.6,5.2-23.2,10.2-27.2,2-1.6,4.5-2.5,7.6-2.6.2,0,.4,0,.6,0,.6,0,1.2,0,1.8,0h.6c1,.2,1.7.4,1.7.4l2.2.6-1.5,1.7c0,.1-8.5,10.1-10.7,13.1-1.1,1.4-1.8,2.6-2.4,4-.7,1.6-1.4,3.5-2.5,6.6-.6,1.7-1.2,3.5-1.7,5.2-2.1,6.5-2.7,8.4-4.5,8.4h-.2Z"/>
            <path class="cls-18" d="M-43.5,51.3s-8.5,10.1-10.8,13.2c-1.1,1.5-1.9,2.7-2.6,4.3-.8,1.7-1.5,3.7-2.6,6.7-2,5.8-3.8,13-4.9,12.7,0,0-.1,0-.2,0-.9-.6-.6-3.6.2-8.5.9-5.3,5.3-22.8,9.7-26.4,2.1-1.7,4.7-2.2,6.8-2.3.9,0,1.7,0,2.3,0,0,0,0,0,0,0,1.2.1,2,.3,2,.3Z"/>
            <path class="cls-10" d="M-64.5,89.6h-.3c-.2-.1-.3-.2-.5-.3l-.9-.5.2-1c.3-1.5.9-3.8,1.8-6.4.6-1.5,1.1-4.2,1.6-7.1,1-5.7,2.3-12.8,5.3-16.9,2.6-3.6,6.1-6.2,8.6-7.7l.3-.2h.4c.2,0,.4,0,.6,0,.6,0,1.2,0,1.8,0h.6c1,.2,1.7.4,1.7.4l2.2.6-1.5,1.7c0,.1-8.5,10.1-10.7,13.1-1.1,1.4-1.8,2.6-2.4,4-.7,1.6-1.4,3.5-2.5,6.6-.6,1.7-1.2,3.5-1.7,5.2-2.1,6.5-2.7,8.4-4.5,8.4h-.2Z"/>
            <path class="cls-10" d="M-43.5,51.3s-8.5,10.1-10.8,13.2c-1.1,1.5-1.9,2.7-2.6,4.3-.8,1.7-1.5,3.7-2.6,6.7-2,5.8-3.8,13-4.9,12.7,0,0-.1,0-.2,0,.4-1.7.9-3.9,1.8-6.2,1.8-4.8,2.4-17.7,6.7-23.6,2.4-3.3,5.7-5.8,8.2-7.4.9,0,1.7,0,2.3,0,0,0,0,0,0,0,1.2.1,2,.3,2,.3Z"/>
            <path class="cls-18" d="M-58.3,68.9c0-1-.1-2.2-.2-3.4-.1-4.7,2.1-7.1,5-9.7.3-.2.5-.5.8-.7h.1c.1-.2.2-.3.3-.4l1.3-1.2c.6-.5,1.3-1.1,2-1.8.2-.2.5-.4.7-.6.4-.4,1-.7,1.5-1.1.2,0,.3-.2.4-.2l.4-.2h.4c1.3.2,2.2.4,2.2.4l2.2.6-1.5,1.7c0,.1-8.5,10.1-10.7,13.1-1.1,1.4-1.8,2.6-2.4,4l-2.7-.5Z"/>
            <path class="cls-18" d="M-56.9,68.8c0-1.1-.1-2.3-.2-3.4-.1-4,1.6-6,4.5-8.6.3-.2.5-.5.8-.7.1-.1.3-.2.4-.4.3-.2.6-.5.9-.8.2-.1.3-.3.5-.4.6-.5,1.3-1.2,2-1.8.2-.2.4-.4.7-.6.4-.4.9-.7,1.4-1,0,0,.2-.1.3-.2,1.2.1,2,.3,2,.3,0,0-8.5,10.1-10.8,13.2-1.1,1.5-1.9,2.7-2.6,4.3Z"/>
            <path class="cls-18" d="M-60.6,113.5c-.8,0-1.5,0-2.1,0-2.1-.2-4.5-.7-4.8-3l-.2-1.4,1.4-.2c1.2-.2,2.4-.3,3.8-.5,0-3.5.2-8,.5-10.4.4-4,3.6-7.2,7-10.5l.9-.9c.6-.6,1.2-1.1,1.8-1.7,3.2-3,6.9-6.4,8-14.1,1.4-9.8,5.1-16.2,5.3-16.4l2.6.9c-.6,4.2-.3,8.6.8,11.8,1,2.9.8,6.9.6,8.5,0,0,1.3,2,1.3,2l-1.7.2c-2.6,5.8-11.4,12.4-15.2,15.3-.4.3-.7.6-1,.8-2.2,1.7-4.6,5.3-5.3,6.4v1.3c0,1.1,0,3.2,0,4.3,1,.6,2,1.5,2.8,2.4.4.5.7,1,1,1.4.5,1.1.4,1.9.1,2.4-.3.7-1,1.1-1.5,1.2h0s0,0,0,0c-.3,0-.5,0-.7,0h-.9c-1.7.2-3.2.3-4.4.3Z"/>
            <path class="cls-18" d="M-36.1,76.3c-.4,0-.3.2-.3.2-2.4,6.2-13.1,13.8-15.9,16-2.8,2.2-5.9,7.1-5.9,7.1v1.7c0,1.7,0,5.2,0,5.2,1,.4,2.2,1.4,3.1,2.4.3.4.6.8.8,1.2.6,1.3-.4,1.5-.4,1.5-.2,0-.4,0-.6,0-.3,0-.7,0-1,0-2.8.2-4.8.2-6.3.1-2.7-.2-3.4-.9-3.5-1.8,1.4-.2,2.9-.4,4.6-.6.1-.2.2-.4.4-.5,0-3,.2-8.3.5-11,.4-3.8,4-7,7.5-10.6,3.6-3.6,8.8-6.9,10.2-16.5,1.4-9.7,5.1-15.9,5.1-15.9-.6,4.5-.3,9.1.9,12.4,1.1,3.3.5,8.5.5,8.5,0,0,.2.1.3.4Z"/>
            <path class="cls-18" d="M20.6,114.3c-3.8,0-8.4-.4-9-2.2-.4-1.1-.3-2-.2-2.9,0-.4,0-.8.1-1.4,0-.1,0-.2,0-.3v-1.4h1.4c3.1,0,6.1.1,9,.2h.5s.4.3.4.3c1.9,1.6,3.2,3.8,3.3,5.4.1,1.9-2.3,2.1-3.1,2.2,0,0-.5,0-.6,0-.1,0-.4,0-.6,0-.4,0-.8,0-1.2,0Z"/>
            <path class="cls-18" d="M24.8,112c0,.4-.7.6-1.9.7-.2,0-.4,0-.5,0-.2,0-.4,0-.6,0-3.4.1-8.5-.4-8.8-1.2-.4-1.2,0-1.9,0-3.8,0-.1,0-.3,0-.4,3.1,0,6.1.1,9,.2,1.6,1.3,2.7,3.2,2.8,4.4Z"/>
            <path class="cls-18" d="M-67.5,110.5c0-.2,0-.4,0-.6s0-.5,0-.8c0-.9.3-1.7.5-2.7.3-1.2.5-2.6.7-4.5.1-1.5,0-3-.1-4.3-.2-1.8-.3-3.3.2-4.6.3-.9,1.3-1.9,2.5-3.2,1.9-2,4.6-4.8,5.2-7.8.8-3.6.5-7.5.3-11.7v-1.8c-.1,0,0-.3,0-.3.7-1.6,1.5-2.9,2.7-4.5,1.7-2.3,6.6-8.2,9.2-11.3l-3.7-.4,3.7-2.2c.4-.2.8-.4,1.3-.7.8-.4,1.6-.7,2.5-.9.5-.2,1.1-.3,1.6-.4h.1c.5-.1.9-.2,1.4-.2.9-.1,1.9-.2,2.8-.2,1.9,0,3.3.2,3.8.3,6.9-.5,23.3-1.6,26.3-1.8.4-.3.7-.6,1.1-.9.5-.3,1-.7,1.6-1,2.1-1.2,4.2-1.9,6.3-2.5h.2c.9-.3,1.7-.6,2.4-.8.3,0,.5-.2.7-.3h.1s0,0,0,0c0,0,.2,0,.2,0h0s.2,0,.2,0h.2c0-.1,0-.1,0-.1h0c0,0,.2-.2.2-.2.2-.1.4-.3.6-.4h.1c.2-.3.4-.4.6-.5.9-.7,1.8-1.6,4.1-4.2.5-.5,1-1.1,1.6-1.8l1.1-1.2c4.8-5.4,10.6-8,13.3-8.9.9-1,3.2-3,6.9-3.3l.4-.3c1.1-1.2,2.2-2.3,3.2-3.3,1.2-1.1,2.2-2,3-2.6.3-.2.7-.4,1.1-.4s1.1.2,1.4.7c.4.4.5,1,.4,1.5-.2,1.3-.4,3.1-.4,4.8,5.5,2.2,8.5,6.5,9.5,8.3,0,0,.1.2.2.3.5,1,.5,1.9.4,2.5.5,0,.9.2,1.3.5h.2c0,.1.3.6.3.6.3.4.4.8.5,1.2,0,0,.1,0,.2,0,.3,0,.6,0,.8.2.6.3,1,.8,1.1,1.4,0,0,0,.1,0,.2.3,0,.6.2.9.3.8.3,1.5.7,1.9,1.3.1.1.3.3.4.5.3.5.4.9.4,1.5s0,.3,0,.4h0c0,.2,0,.3,0,.3,0,.2-.1.4-.2.6,0,0,0,0,0,0,.3.3.5.6.7.9.6,1.1.6,2.4,0,3.5-1.1,2.2-3.5,5.8-8.2,6.4-.3.4-.8.7-1.4.8-.1,0-.3,0-.5,0h0c-.7,0-1.4-.3-1.8-.9h-3.5c-.4.2-1,.4-1.6.4s-.2,0-.3,0h-.6c-1.1-.3-2-1.2-2-2.3h0c0,0-.8-.4-.8-.4l-.6-.3c-.3-.1-.6-.3-.9-.4-1.1-.4-2.7-.7-3.9-.8,0,.3-.1.6-.3.9l-.3.5c-.3.5-.8.9-1.4,1h0c0,0,0,.1,0,.1,0,.2-.2.4-.3.6-.2.4-.3.7-.4,1-.1.3-.2.6-.3.9-.1.3-.2.7-.3,1-.3,1.2-.4,2.6-.4,4.3,0,2.3,0,4.8-.9,7.8-1,3.5-3.8,6.1-6,8.1-1.2,1.1-2.4,2.1-2.9,3-.7,1.2-1.4,3-2,5.1-.5,2-.9,4.1-1,5.7-.2,3.4-.5,11.3-.5,14s0,3.6,1.4,4.4c.5.3.9.6,1.3.9l3,2.6h-4c-2.9-.2-5.9-.2-9-.3h-1.4s0-1.4,0-1.4c0-2.1-.6-5.6-1.9-10.4-1.6-6.1-2.8-13.9-2.8-14.3h0c0,0,0-.2,0-.2,0-.5-.6-4.6-2.2-8.3-1-2.3-2.4-5.5-4.3-9.5h0c0,2.9.1,6.6.8,9.2.3,1.2.7,2.6,1.4,4.4l.7,1.9H1.2s-1.1,0-1.1,0c-2.9,0-6.1,0-8.9-1.4-3.7-1.9-6.4-2.1-8.9-2.1s-.9,0-1.3,0c-.4,0-.8,0-1.2,0s-.8,0-1.1,0c-.2,0-.3,0-.4,0-.8,0-1.4.1-2,.3-.7.2-1.5.4-2.7.4s-2-.1-3.2-.4c-.9-.2-1.8-.3-2.5-.3s-.8,0-1.1,0l-1.5.2-1.1,1.9-1.2-1.9s0,0,0,0l-.6-.4v-.9c.1,0,.7-4.9-.3-7.8-.6-1.7-1-3.6-1.2-5.6-.8,2.4-1.6,5.4-2.1,8.8-1.3,8.7-5.5,12.6-8.9,15.7-.6.5-1.2,1.1-1.7,1.6l-1,.9c-3,3-5.9,5.8-6.2,8.8-.3,2.5-.4,7.4-.5,10.9v.5s-.3.4-.3.4c0,.1-.2.3-.3.4l-.4.6h-.7c-1.6.2-3.1.4-4.5.6l-1.3.2-.3-1.3Z"/>
            <path class="cls-18" d="M-62.7,113.4c-2.1-.2-4.5-.7-4.8-3l-.2-1.4,1.4-.2c1.4-.2,3-.4,4.7-.6l2.9-.3-1.6,2.5c-.3.5-.6,1.2-.9,2l-.4,1h-1.1Z"/>
            <path class="cls-18" d="M-66.1,110.2c1.4-.2,2.9-.4,4.6-.6-.4.6-.8,1.4-1.1,2.3-2.7-.2-3.4-.9-3.5-1.8Z"/>
            <path class="cls-18" d="M-58.3,68.9c0-1-.1-2.2-.2-3.4-.1-4.7,2.1-7.1,5-9.7h.1c.2-.3.5-.5.7-.7h.1c.1-.2.2-.3.3-.4l1.3-1.2c.6-.6,1.3-1.1,2-1.8.2-.2.5-.4.8-.7.3-.3.7-.5,1.1-.8v-.6h2s0,0,0,0c1,.1,1.7.3,1.7.3l2.2.6-1.5,1.7c0,.1-8.5,10.1-10.7,13.1-1.1,1.4-1.8,2.6-2.4,4l-2.7-.5Z"/>
            <path class="cls-18" d="M-56.9,68.8c0-1.1-.1-2.3-.2-3.4-.1-4,1.6-6,4.5-8.6.3-.2.5-.5.8-.7.1-.1.3-.2.4-.4.3-.2.6-.5.9-.8.2-.1.3-.3.5-.4.6-.6,1.3-1.2,2-1.8.2-.2.4-.4.7-.6.4-.4.9-.7,1.4-1,0,0,.2-.1.3-.2,0,0,0,0,0,0,1.2.1,2,.3,2,.3,0,0-8.5,10.1-10.8,13.2-1.1,1.5-1.9,2.7-2.6,4.3Z"/>
            <path class="cls-18" d="M-42.6,48.2c.5-.2,1-.3,1.6-.4l.5,2.8c-.4,0-.9.2-1.3.3l-.8-2.7Z"/>
            <path class="cls-18" d="M-40.7,49.2c-.5,0-1,.2-1.5.3.5-.2,1-.3,1.5-.3Z"/>
            <path class="cls-18" d="M-62.5,109.1c0-3.5.2-8.5.5-11.1.4-4,3.6-7.2,7-10.5l.9-.9c.6-.6,1.2-1.1,1.8-1.7,3.2-3,6.9-6.4,8-14.1,1.4-9.8,5.1-16.2,5.3-16.4l2.6.9c-.6,4.2-.3,8.6.8,11.8,1,2.9.8,6.9.6,8.5,0,0,1.3,2,1.3,2l-1.7.2c-2.6,5.8-11.4,12.4-15.2,15.3-.4.3-.7.6-1,.8-2.2,1.7-4.6,5.3-5.3,6.4v1.3c0,1.6,0,5.1,0,5.1v.8s-.7.4-.7.4c-1.3.8-2,1.4-2.6,2.1l-2.6,3.5v-4.4Z"/>
            <path class="cls-18" d="M-36.1,76.3c-.4,0-.3.2-.3.2-2.4,6.2-13.1,13.8-15.9,16-2.8,2.2-5.9,7.1-5.9,7.1v1.7c0,1.7,0,5.2,0,5.2-1.3.8-2.2,1.5-2.9,2.5,0-3,.2-8.3.5-11,.4-3.8,4-7,7.5-10.6,3.6-3.6,8.8-6.9,10.2-16.5,1.4-9.7,5.1-15.9,5.1-15.9-.6,4.5-.3,9.1.9,12.4,1.1,3.3.5,8.5.5,8.5,0,0,.2.1.3.4Z"/>
            <path class="cls-18" d="M-37.3,75.6c1.9-3.1,5.6-5.2,7.9-5.4.1,0,.2,0,.3,0,1.4,0,3.8.8,7,2.3h0s-1.1,2.7-1.1,2.7c-1.1-.4-3.8-1.2-5.6-1.2s-.9,0-1.1.1c-.8.3-1.8,1.2-2.9,2.4l-.4.4h-.5c-1,.2-1.6.5-1.9.7l-1.9-1.9Z"/>
            <path class="cls-18" d="M-22.5,73.8c-.6-.2-5.4-2-7.7-1.1-1.2.5-2.5,1.7-3.4,2.8-1.3.2-2.1.5-2.5.8,1.6-2.6,4.9-4.6,6.8-4.7,1.8-.2,6.2,1.9,6.8,2.2Z"/>
            <path class="cls-18" d="M-57.6,112.4c-.4-1-1.2-1.9-1.2-1.9l-2.7-3.2,4.1.9c1.4.3,2.6,1.3,3.4,3l.9,1.9-2.1.2c-.3,0-2,.1-2,.1l-.4-.9Z"/>
            <path class="cls-18" d="M-55.3,111.8c-.3,0-.7,0-1,0-.5-1.2-1.4-2.3-1.4-2.3,1.2.3,2,1.3,2.4,2.2Z"/>
            <path class="cls-18" d="M20.4,113.2c-.3-1-1.2-2.3-1.6-2.7l-2.7-3.2,4.1.9c2.4.5,3.5,2.8,4,4.1l.6,1.7-1.8.2c-.4,0-.8,0-1.2,0h-1.1s-.3-1-.3-1Z"/>
            <path class="cls-18" d="M22.9,112.8c-.3,0-.7,0-1.1,0-.4-1.6-1.9-3.3-1.9-3.3,1.7.4,2.6,2.2,3,3.2Z"/>
            <path class="cls-4" d="M-62.5,109.1c0-3.5.2-8.5.5-11.1.4-4,3.6-7.2,7-10.5l.9-.9c.6-.6,1.2-1.1,1.8-1.7,3.2-3,6.9-6.4,8-14.1,1.4-9.8,5.1-16.2,5.3-16.4l2.6.9c-.6,4.2-.3,8.6.8,11.8,1,2.9.8,6.9.6,8.5,0,0,1.3,2,1.3,2l-1.7.2c-2.6,5.8-11.4,12.4-15.2,15.3-.4.3-.7.6-1,.8-2.2,1.7-4.6,5.3-5.3,6.4v1.3c0,1.6,0,5.1,0,5.1v.8s-.7.4-.7.4c-1.3.8-2,1.4-2.6,2.1l-2.6,3.5v-4.4Z"/>
            <path class="cls-4" d="M-36.4,76.6c-2.4,6.2-13.1,13.8-15.9,16-2.8,2.2-5.9,7.1-5.9,7.1v1.7c0,1.7,0,5.2,0,5.2-1.3.8-2.2,1.5-2.9,2.5,0-3,.2-8.3.5-11,.4-3.8,4-7,7.5-10.6,3.6-3.6,8.8-6.9,10.2-16.5,1.4-9.7,5.1-15.9,5.1-15.9-.6,4.5-.3,9.1.9,12.4,1.1,3.3.5,8.5.5,8.5,0,0,.2.1.3.4-.4,0-.3.2-.3.2Z"/>
            <path class="cls-18" d="M-37.3,75.6c1.9-3.1,5.6-5.2,7.9-5.4.1,0,.2,0,.3,0,1.4,0,3.8.8,7,2.3h0s-1.1,2.7-1.1,2.7c-1.1-.4-3.8-1.2-5.6-1.2s-.9,0-1.1.1c-.8.3-1.8,1.2-2.9,2.4-.3.3-.5.7-.8.9l-.6.8-.9-.2c-.7-.2-1-.2-1.1-.2l-3,.4,1.5-2.6Z"/>
            <path class="cls-18" d="M-22.5,73.8c-.6-.2-5.4-2-7.7-1.1-1.2.5-2.5,1.7-3.4,2.8-.3.4-.6.7-.8,1-.9-.2-1.4-.3-1.7-.2,1.6-2.6,4.9-4.6,6.8-4.7,1.8-.2,6.2,1.9,6.8,2.2Z"/>
          </g>
        </g>
      </g>
      <g class="cls-22">
        <g>
          <ellipse class="cls-6" cx="-1.9" cy="112.4" rx="71.2" ry="5"/>
          <g>
            <path class="cls-14" d="M-43.5,51.3s-8.5,10.1-10.8,13.2c-2.3,3.1-3.1,5.2-5.1,10.9-2,5.8-3.8,13-4.9,12.7,0,0-.1,0-.2,0-.9-.6-.6-3.6.2-8.6.9-5.3,5.3-22.8,9.7-26.4,2.1-1.7,4.7-2.2,6.8-2.3,2.4,0,4.3.4,4.3.4Z"/>
            <path class="cls-2" d="M-43.5,51.3s-8.5,10.1-10.8,13.2c-2.3,3.1-3.1,5.2-5.1,10.9-2,5.8-3.8,13-4.9,12.7,0,0-.1,0-.2,0,.4-1.7.9-3.9,1.8-6.2,1.8-4.8,2.4-17.7,6.7-23.6,2.4-3.3,5.7-5.8,8.2-7.4,2.4,0,4.3.4,4.3.4Z"/>
            <path class="cls-14" d="M36.1,20.9s3.8-4.2,6.7-6.4c.3-.2.8,0,.7.4-.3,1.8-.7,5.6-.2,7.9.6,3-7.2,4.1-7.2-1.9Z"/>
            <path class="cls-2" d="M36.1,20.9s3.8-4.2,6.7-6.4c.3-.2.8,0,.7.4-.3,1.8-.7,5.6-.2,7.9.6,3-7.2,4.1-7.2-1.9Z"/>
            <path class="cls-18" d="M61.2,39.5c-.3.7-.7,1.3-1.1,1.8-.3.3-.4.5-.4.5,0,0,0,.7-.4,1.5-.2.6-.5,1.2-.9,1.7-.8,1-2,2.4-4.6,3.1-.5.1-1.1.3-1.8.4-.4,0-.9.1-1.4.1-1.2,0-2.2,0-3.1,0-.7,0-1.3-.2-1.9-.3,0,0-.2,0-.3,0-.2,0-.3-.1-.5-.2-.5-.2-.9-.3-1.3-.5-.7-.3-1.3-.6-2-.9-2.2-.9-5.5-1.2-6-.4,0,0,0,0,0,.1-.1.2-.3.4-.4.7-.3.5-.7,1.2-1.1,2-.5,1.1-1.1,2.5-1.5,3.9-.8,3.1,0,7.1-1.3,12.1-1.4,5-7.1,7.9-8.8,10.8-.8,1.4-1.6,3.4-2.1,5.4-.6,2.1-1,4.3-1,6-.2,3.3-.5,11.3-.5,14.1s0,4.3,2.1,5.6c2.1,1.3,3.8,3.7,3.9,5.2,0,.4-.7.6-1.9.7-.3,0-.7,0-1.1,0-3.4.1-8.5-.4-8.8-1.2-.4-1.2,0-1.9,0-3.7,0-1.9-.3-5.1-2-11.1-1.6-6-2.8-14.1-2.8-14.1-.4,0-.8,0-1.1,0-13.2.9-19.4-3.2-19.4-3.2-2.9-.2-8.8-1.4-8.8-1.4-1,2-5.4,1.2-10.5-.7-1.2-.5-2.1-.7-2.8-.9-.9-.2-1.4-.3-1.7-.2h0c-.4,0-.3.2-.3.2-2.4,6.2-13.1,13.8-15.9,16-2.8,2.2-5.9,7.1-5.9,7.1v1.7c0,1.7,0,5.2,0,5.2,1.3.6,3.2,2.3,3.9,3.6s-.4,1.5-.4,1.5c-.2,0-.4,0-.6,0-.3,0-.7,0-1,0-2.8.2-4.8.2-6.3.1h0c-3.7-.3-3.6-1.5-3.5-2.8.2-1.9.8-3.7,1.2-7.2.3-3.4-.7-6.6,0-8.5.7-1.9,6.6-6,7.8-11.2,1.2-5.3.2-11.2,0-16.9-.2-5.7,3.4-7.4,9.2-12.7s15-3.5,15-3.5c7.6-.6,27-1.9,27-1.9,3.6-3.3,8.4-4.2,11.5-5.3.9-.3,1.6-.6,2.1-.9.6-.4,1.1-.7,1.5-1,1-.8,2-1.7,4.3-4.4.7-.8,1.6-1.8,2.7-3,5.5-6.2,12.4-8.5,14.2-9,.1,0,.3,0,.3,0,.2,0,.6-.3,1.1-.6.8-.5,1.8-1.2,3.1-1.7h0c2-.8,4.6-1.4,7.5-.6.2,0,.5.1.7.2,5.7,1.9,8.7,6.2,9.8,8,0,0,0,.1.1.2.7,1.3,0,2.2,0,3,0,.3,0,.5.3.8.2.3.5.6.7.9.4.5,1,.9,1.5,1.3.5.3,1,.6,1.5.8.4.2.8.3,1.2.4,1.2.3,2.3.6,2.9,1.6.3.5.2,1,0,1.6Z"/>
            <path class="cls-15" d="M61.2,39.5c-.3.7-.7,1.3-1.1,1.8-.3.3-.4.5-.4.5,0,0-.2,1.9-1.3,3.2-1.1,1.4-2.8,3.3-7.8,3.6-2.2.1-3.7,0-5-.4,0,0-.2,0-.3,0-.7-.2-1.3-.4-1.8-.7-.7-.3-1.3-.6-2-.9-2.2-.9-5.5-1.2-6-.4,0,0,0,0,0,.1-.6.9-2.2,3.7-3,6.6-.8,3.1,0,7.1-1.3,12.1-1.4,5-7.1,7.9-8.8,10.8-.8,1.4-1.6,3.4-2.1,5.4,0-3.4.9-6.8,2.5-9.7,2.1-3.9,4.2-5.5,4.8-10.1,0-.5-.4-1.3-.8-1.5-1-.4.8-.2,0,0-.4.1-.9-.2-1.1-.6-.2-.4-.2-.9-.2-1.4.2-5.5,3.3-10.8,8.1-13.5,1-.6,2.2-1.1,3.3-1.3,1.1-.2,2.2,0,3.4,0,1.3.2,2.8.5,3.7,1.4.6.7,1.2,1.7,2.1,1.5.3,0,.6-.3.8-.6.9-.9,1.8-1.8,3.1-2.2,1.4-.4,2.9,0,4.3-.4,1.2-.4,2.1-1.6,2.8-2.7.4-.6.8-1.3,1.5-1.7.9-.4,2,0,2.5.7,0,0,.1.2.2.3Z"/>
            <path class="cls-14" d="M53,32.2c-.6.2-1.2.2-1.8,0,.4,1.5.5,3,0,4.4-1.3,3.4-5.8,4.8-6.7,8.3-.1.5-.2,1.1,0,1.7.1.6.5,1.1.9,1.6-1.5-.4-2.6-1.1-3.8-1.5-2.2-.9-5.5-1.2-6-.4,0,0,0,0,0,.1-.6-.6-1-1.3-1.5-2-.4-.7-.6-1.4-.9-2.2-.4-1.4-.8-2.8-1.5-4.1-.2-.4-.4-.8-.7-1.2-.4-.5-.8-.8-1.4-.8-.5,0-.8.2-1.1.5-.4.4-.7,1.1-1.1,1.5-.8,1-1.7,1.9-2.9,2.2-1.9.4-3.8-1.2-4.2-3.1-.5-1.9.1-3.9,1.1-5.5,1.4-2.5,3.5-4.6,6-6,1.2-.6,2.4-1.4,3.7-1.6.4,0,.8,0,1.1,0,.4,0,.7.3.9.6.4.7,0,1.7.3,2.5.3.7,1.1,1,1.9,1.1,1.3.1,2.6-.2,3.6-.9,1.2-.8,2-2,2.9-3,.6-.7,1.4-1.5,2.4-1.5,1.1,0,1.7.7,2.3,1.5.6.9,1.5,1.7,2.3,2.4,1.4,1.2,2.7,1.9,4.2,2.3.7,1.3,0,2.2,0,3Z"/>
            <path class="cls-17" d="M53,32.2c-.6.2-1.2.2-1.8,0,.4,1.5.5,3,0,4.4-1.3,3.4-5.8,4.8-6.7,8.3-.1.5-.2,1.1,0,1.7.1.6.5,1.1.9,1.6-1.5-.4-2.6-1.1-3.8-1.5-2.2-.9-5.5-1.2-6-.4,0,0,0,0,0,.1-.6-.6-1-1.3-1.5-2-.4-.7-.6-1.4-.9-2.2.7-.6,1.3-1.2,1.9-1.9.7-.8,1.4-1.8,2.4-2.1,1.8-.5,3.7,1.2,5.6,1,1.2-.1,2.2-1.1,2.4-2.2.2-.9,0-2,.8-2.4.2-.1.4-.2.7-.2.7,0,1.4,0,2-.2.7-.2,1.3-.5,1.5-1.2.3-1-.5-2-1.4-2.7-.8-.7-1.7-1.5-2.8-1.7-1.6-.3-3.1.6-4.4,1.5-1.9,1.3-3.9,2.6-5.8,3.9-1.6,1.1-3.2,2.1-5,2.8,0,0,0,0,0,0-.4-.5-.8-.8-1.4-.8-.5,0-.8.2-1.1.5-.2-.3-.3-.6-.4-1-.4-1.3-.8-2.6-.7-4,0-2.3,1.2-4.4,2.9-6,.6-.6,1.3-1.1,2-1.6.4,0,.7.3.9.6.4.7,0,1.7.3,2.5.3.7,1.1,1,1.9,1.1,1.3.1,2.6-.2,3.6-.9,1.2-.8,2-2,2.9-3,.6-.7,1.4-1.5,2.4-1.5,1.1,0,1.7.7,2.3,1.5.6.9,1.5,1.7,2.3,2.4,1.4,1.2,2.7,1.9,4.2,2.3.7,1.3,0,2.2,0,3Z"/>
            <path class="cls-16" d="M52.1,45.6c-1.2,0-2.9-.1-4.1-.2.3-1.1.7-2.1,1.1-3l3.5.3c-.3,1-.5,1.9-.6,2.8ZM53.2,41.3l-3.2-.3c.7-1.1,1.4-2,2.2-2.8l2.1.9c-.4.7-.8,1.4-1.1,2.1ZM53.8,45.6c0-1,.2-1.8.5-2.7l2.7.2c-.7,1.5-2.1,2.2-3.2,2.4ZM54.8,41.4c.9-2.2,2.1-3.7,2.8-4.5.3-.3.2-.7-.2-.9-.2,0-.4,0-.6.1-.6.6-1.2,1.2-1.6,1.8l-1.8-.8c.6-.5,1.2-.9,1.7-1.2.3-.2.5-.5.5-.8-.6-.4-1.1-.8-1.5-1.3-.1,0-.2,0-.3.2-3.7,2.4-5.9,5.3-7.2,7.9h-13.3s0,0,0,0c-.7-.2-2.2-.9-4.1-3.9-2.5-3.8-1.1-8.5.8-11.5,1.7-2.2,3.6-4.1,5-5.3-1.3.5-2.4,1.2-3.1,1.7-.5.3-.9.6-1.1.6,0,0-.2,0-.3,0-.9,1.1-1.4,1.9-1.4,1.9-.5.6-1.1,1.4-1.6,2.4-.5,1-1,2.2-1.3,3.7-.9,4.3,1.5,9.5,4.9,11.6.7,2.6,2,4.6,2.9,5.7.4-.8.8-1.5,1.1-2-.9-1.3-1.3-2.3-1.5-2.9h12.1c-.5,1.5-.7,2.8-.8,3.9.2,0,.3.1.5.2,0,0,.2,0,.3,0,.6.1,1.2.3,1.9.3,0-.5.1-1.1.2-1.6,1.2,0,3,.1,4.3.2,0,.5,0,.9,0,1.4.7,0,1.2-.2,1.8-.4,0-.3,0-.7,0-1,1.7-.2,3.9-1.3,4.8-3.9h.8c.3-.8.4-1.4.4-1.4l-4.9-.4Z"/>
            <path class="cls-13" d="M60.1,41.3c-1,.5-2.1,0-2.9-.6-.5-.4-.9-.8-1.2-1.3-.4-.7-.4-1.5,0-2.2.4-.6,1.3-.9,2.3-1,1.2.3,2.3.6,2.9,1.6.6,1-.4,2.6-1.1,3.4Z"/>
            <path class="cls-7" d="M59.9,39.8c-.2.2-.4.3-.6.5-.2.1-.5.3-.6.5-.3.3-.5.3-.6-.1,0,0,0,0,0-.1,0-.3,0-.8.3-1,.1-.2.3-.4.6-.5.2-.1.4-.2.6-.2,0,0,0,0,0,0,0,0,0,0,0,0,.2,0,.4.2.5.4,0,.2,0,.5-.2.7Z"/>
            <path class="cls-19" d="M59.8,39c0,0,0,.1,0,.2-.2.3-.5.5-.8.8-.2.2-.3.5-.5.5,0,0-.2,0-.3,0,0-.3,0-.8.3-1,.1-.2.3-.4.6-.5.2-.1.4-.2.6-.2,0,0,0,0,0,0,0,0,0,0,.1,0,0,0,.2.1.2.2Z"/>
            <path class="cls-14" d="M23.4,57.5c-.3,13.9-4.8,15.6-5.3,21.8-.5,6.1-5.4,6-9.9,3.4,0-.4-.2-.7-.3-1-.9-2.4-3.6-2.7-6.8-2.7-3.1,0-6.6.2-9.4-1.2-6-3-9.8-2.1-13.2-2.2-3.3-.2-3.2,1.3-8.1.3-3.8-.8-5.8.1-6.6.6h0c-.4,0-.3.2-.3.2-2.4,6.2-13.1,13.8-15.9,16-2.8,2.2-5.9,7.1-5.9,7.1v1.7c0,1.7,0,5.2,0,5.2-1.3.8-2.2,1.5-2.9,2.5-.6.7-1,1.7-1.5,2.9h0c-3.7-.3-3.6-1.5-3.5-2.8.2-1.9.8-3.7,1.2-7.2.3-3.4-.7-6.6,0-8.5.7-1.9,6.6-6,7.8-11.2,1.2-5.3.2-11.2,0-16.9-.2-5.7,3.4-7.4,9.2-12.7,5.8-5.3,15-3.5,15-3.5,7.6-.6,27-1.9,27-1.9,3.6-3.3,8.4-4.2,11.5-5.3h0c.3-.1.6-.2.9-.3,0,0,0,0,0,0,0,0,.1,0,.2,0,0,0,0,0,.1,0,0,0,0,0,.1,0,0,0,0,0,.1,0,0,0,0,0,.1,0,0,0,.1,0,.2,0,0,0,0,0,0,0,0,0,.2,0,.2-.1.6-.4,1.1-.7,1.5-1,1-.8,2-1.7,4.3-4.4.6.9.9,2.1,1,3.2.1,1.3,0,2.5-.2,3.8,4.6,2.9,9.2,7.6,9,14.8Z"/>
            <path class="cls-14" d="M31.8,28.1s4-7.5,7.5-11c.3-.3.8,0,.8.3,0,1.7-.1,6.3.7,8,0,0-1.1,2.7-3.6,4.2-2.6,1.5-8,2.9-5.4-1.5Z"/>
            <path class="cls-3" d="M38.8,25.6c-.8,1.1-1.6,1.9-2.2,2.2-.2,0-.3.2-.4.2-.6,0,.5-1.8.9-2.8.4-1-1.3,1-2,2.9-.7,1.9-2.1.6-2.1.6,0,0,3.7-7.4,5-8.3,0,0,0,0,0,0,1.2-.6,1.7,3.9.7,5.3Z"/>
            <path class="cls-18" d="M50.4,32.6c-.2-.3-.5-.5-.9-.6-.4-.1-.8,0-1.2.1-.4.2-.7.4-1,.7-.3.2-.5.5-.6.8,0,0,0,.1,0,.2,0,0,0,.2.1.2.3.3.6.6,1,.7.4.2.8.3,1.2.2.2,0,.4-.1.6-.2.1,0,.3-.1.4-.2.1,0,.3-.2.4-.3.2-.2.3-.3.5-.5.2-.2.2-.3,0-.5-.2-.2-.3-.5-.5-.7Z"/>
            <path class="cls-9" d="M50.4,33.6c0,.7-.6,1.3-1.4,1.3s-1.4-.6-1.4-1.3.6-1.3,1.4-1.3,1.4.6,1.4,1.3Z"/>
            <path class="cls-20" d="M49.6,33.6c0,.3-.3.6-.6.6s-.6-.3-.6-.6.3-.6.6-.6.6.3.6.6Z"/>
            <circle class="cls-18" cx="48.8" cy="33.1" r=".3"/>
            <path class="cls-20" d="M47,33.6h.3c0,0,.6-1,1.8-.9,1.1,0,1.8.9,1.8.9,0,0,0-.4-.4-.9s-1.4-.7-1.4-.7c0,0-1.5.4-2.1,1.6Z"/>
            <path class="cls-8" d="M51.5,33.3c0-.2-.3-.2-.4-.3-.3-.3-.5-.6-.8-.9-.2-.2-.4-.4-.6-.5-.7-.3-1.4.1-2,.5-.6.4-1.1,1-1.5,1.5,0,0-.1.2,0,.2,0,0,0,0,.1.1.2.1.4.3.7.4.6.4,1.2.8,1.9.8.4,0,.9,0,1.2-.3.1,0,.2-.2.3-.3h0s1.2-.6,1.2-1.2c0,0,0-.2,0-.2ZM47.2,33.7c0-.1.2-.3.3-.4.4-.3,1-.6,1.7-.5,0,0,.9.1,1.5.7.3.3.2.5.1.6,0,0,0,0,0,0,0,0,0,0,0,0-.2.2-.5.3-.7.5-1.5.6-2.8-.5-2.8-.5h0c0-.1-.1-.2,0-.3Z"/>
            <path class="cls-8" d="M-55.3,111.8c-.3,0-.7,0-1,0-.5-1.2-1.4-2.3-1.4-2.3,1.2.3,2,1.3,2.4,2.2Z"/>
            <path class="cls-8" d="M22.9,112.8c-.3,0-.7,0-1.1,0-.4-1.6-1.9-3.3-1.9-3.3,1.7.4,2.6,2.2,3,3.2Z"/>
            <path class="cls-17" d="M-36.4,76.6c-2.4,6.2-13.1,13.8-15.9,16-2.8,2.2-5.9,7.1-5.9,7.1v1.7c0,1.7,0,5.2,0,5.2-1.3.8-2.2,1.5-2.9,2.5,0-3,.2-8.3.5-11,.4-3.8,4-7,7.5-10.6,3.6-3.6,8.8-6.9,10.2-16.5,1.4-9.7,5.1-15.9,5.1-15.9-.6,4.5-.3,9.1.9,12.4,1.1,3.3.5,8.5.5,8.5,0,0,.2.1.3.4-.4,0-.3.2-.3.2Z"/>
            <path class="cls-17" d="M8,81.7c-.9-2.4-3.6-2.7-6.8-2.7-.6-1.6-1.2-3.2-1.5-4.6-1.3-5.4-.6-14.6-.6-14.6,0,0,5.1,8.2,8.9,21.9Z"/>
            <g>
              <path class="cls-11" d="M62,41.7c-.4-.7-1-1.1-1.8-1.2l-5.4-.4c.9-2.2,2.1-3.7,2.8-4.5.3-.3.2-.7-.2-.9-.2,0-.4,0-.6.1-.6.6-1.2,1.2-1.6,1.8l-1.8-.8c.6-.5,1.2-.9,1.7-1.2.6-.4.7-1.2.3-1.7v-.2c-.6-.3-1.2-.3-1.7,0-8.7,5.6-9,13.8-8.9,16.3,0,.5.4.8.8.9h.6c.5.1.9-.1,1.1-.5l5,.2s0,0,0,0c0,.5.6.9,1.1.8.4,0,.7-.4.7-.8,4.5-.3,6.8-3.6,7.9-5.7.3-.7.3-1.5,0-2.1ZM56.9,41.8c-.7,1.5-2.1,2.2-3.2,2.4,0-1,.3-1.8.5-2.7l2.7.2ZM49.2,41.2l3.5.3c-.3,1-.5,1.9-.6,2.8-1.2,0-2.9-.1-4.1-.2.3-1.1.7-2.1,1.1-3ZM52.2,37l2.1.9c-.4.7-.8,1.4-1.1,2.1l-3.2-.3c.7-1.1,1.4-2,2.2-2.8ZM47.4,47.8c0-.8.1-1.5.2-2.2,1.2,0,3,.1,4.3.2,0,.8,0,1.5,0,2.2l-4.6-.2ZM60.7,43.2c-1.1,2.2-3.1,4.7-6.7,4.9-.1-.8-.2-1.5-.2-2.2,1.7-.2,3.9-1.3,4.8-3.9h1.5c.3.1.5.3.6.5.1.2.1.5,0,.7Z"/>
              <path class="cls-11" d="M33.4,42.3s.4,2,2.3,4.2c.2.2.2.6,0,.8l-.3.5c-.3.5-.9.5-1.2.1-1-1.2-2.8-3.8-3.4-7.1l2.6,1.3Z"/>
              <path class="cls-11" d="M33.2,40.6s0,0,0,0c-.7-.2-2.2-.9-4.1-3.9-2.5-3.8-1.1-8.5.8-11.5,2.9-3.9,5.8-4.3,5.8-4.3-4.6.3-6.7,3.3-6.7,3.3h0c-1,1.2-2.3,3.2-2.9,6.1-1.1,5,2.4,11.2,6.7,12.4h13.9c.2,0,.4-.1.5-.3l.5-1.1c.1-.3-.1-.7-.5-.7h-13.9Z"/>
              <path class="cls-1" d="M48.3,40.7c-.4.8-.7,1.7-.9,2.2,0,.2-.3.4-.5.4h-.1c-.3,0-.6-.3-.5-.7.2-.7.6-1.8,1.1-2.5,0-.1.3-.2.4-.2h0c.4,0,.6.4.5.7Z"/>
            </g>
            <path class="cls-8" d="M8.2,82.7c-.4,0-.8,0-1.1,0-.4-2.5-.8-5.1-1.3-6.4-1-2.7-3.7-9.7-4.5-12.9,0,.2,2.9,6.2,4.7,10.3,1.8,4.2,2.3,8.8,2.3,8.8Z"/>
            <path class="cls-8" d="M-22.5,73.8c-.3-.1-5.4-2-7.7-1.1-1.6.6-3.3,2.6-4.2,3.9-.9-.2-1.4-.3-1.7-.2,1.6-2.6,4.9-4.6,6.8-4.7,1.9-.2,6.5,2.1,6.8,2.2Z"/>
            <path class="cls-12" d="M38.1,22.7c-.1,1.8-.6,3.6-1.5,5.1-.2,0-.3.2-.4.2-.6,0,.5-1.8.9-2.8.4-1-1.3,1-2,2.9-.7,1.9-2.1.6-2.1.6,0,0,3.7-7.4,5-8.3.3.6.2,1.8.1,2.3Z"/>
          </g>
        </g>
        <g>
          <ellipse class="cls-6" cx="-1.9" cy="112.4" rx="71.2" ry="5"/>
          <g>
            <path class="cls-14" d="M-43.5,51.3s-8.5,10.1-10.8,13.2c-2.3,3.1-3.1,5.2-5.1,10.9-2,5.8-3.8,13-4.9,12.7,0,0-.1,0-.2,0-.9-.6-.6-3.6.2-8.6.9-5.3,5.3-22.8,9.7-26.4,2.1-1.7,4.7-2.2,6.8-2.3,2.4,0,4.3.4,4.3.4Z"/>
            <path class="cls-2" d="M-43.5,51.3s-8.5,10.1-10.8,13.2c-2.3,3.1-3.1,5.2-5.1,10.9-2,5.8-3.8,13-4.9,12.7,0,0-.1,0-.2,0,.4-1.7.9-3.9,1.8-6.2,1.8-4.8,2.4-17.7,6.7-23.6,2.4-3.3,5.7-5.8,8.2-7.4,2.4,0,4.3.4,4.3.4Z"/>
            <path class="cls-14" d="M36.1,20.9s3.8-4.2,6.7-6.4c.3-.2.8,0,.7.4-.3,1.8-.7,5.6-.2,7.9.6,3-7.2,4.1-7.2-1.9Z"/>
            <path class="cls-2" d="M36.1,20.9s3.8-4.2,6.7-6.4c.3-.2.8,0,.7.4-.3,1.8-.7,5.6-.2,7.9.6,3-7.2,4.1-7.2-1.9Z"/>
            <path class="cls-18" d="M61.2,39.5c-.3.7-.7,1.3-1.1,1.8-.3.3-.4.5-.4.5,0,0,0,.7-.4,1.5-.2.6-.5,1.2-.9,1.7-.8,1-2,2.4-4.6,3.1-.5.1-1.1.3-1.8.4-.4,0-.9.1-1.4.1-1.2,0-2.2,0-3.1,0-.7,0-1.3-.2-1.9-.3,0,0-.2,0-.3,0-.2,0-.3-.1-.5-.2-.5-.2-.9-.3-1.3-.5-.7-.3-1.3-.6-2-.9-2.2-.9-5.5-1.2-6-.4,0,0,0,0,0,.1-.1.2-.3.4-.4.7-.3.5-.7,1.2-1.1,2-.5,1.1-1.1,2.5-1.5,3.9-.8,3.1,0,7.1-1.3,12.1-1.4,5-7.1,7.9-8.8,10.8-.8,1.4-1.6,3.4-2.1,5.4-.6,2.1-1,4.3-1,6-.2,3.3-.5,11.3-.5,14.1s0,4.3,2.1,5.6c2.1,1.3,3.8,3.7,3.9,5.2,0,.4-.7.6-1.9.7-.3,0-.7,0-1.1,0-3.4.1-8.5-.4-8.8-1.2-.4-1.2,0-1.9,0-3.7,0-1.9-.3-5.1-2-11.1-1.6-6-2.8-14.1-2.8-14.1-.4,0-.8,0-1.1,0-13.2.9-19.4-3.2-19.4-3.2-2.9-.2-8.8-1.4-8.8-1.4-1,2-5.4,1.2-10.5-.7-1.2-.5-2.1-.7-2.8-.9-.9-.2-1.4-.3-1.7-.2h0c-.4,0-.3.2-.3.2-2.4,6.2-13.1,13.8-15.9,16-2.8,2.2-5.9,7.1-5.9,7.1v1.7c0,1.7,0,5.2,0,5.2,1.3.6,3.2,2.3,3.9,3.6s-.4,1.5-.4,1.5c-.2,0-.4,0-.6,0-.3,0-.7,0-1,0-2.8.2-4.8.2-6.3.1h0c-3.7-.3-3.6-1.5-3.5-2.8.2-1.9.8-3.7,1.2-7.2.3-3.4-.7-6.6,0-8.5.7-1.9,6.6-6,7.8-11.2,1.2-5.3.2-11.2,0-16.9-.2-5.7,3.4-7.4,9.2-12.7s15-3.5,15-3.5c7.6-.6,27-1.9,27-1.9,3.6-3.3,8.4-4.2,11.5-5.3.9-.3,1.6-.6,2.1-.9.6-.4,1.1-.7,1.5-1,1-.8,2-1.7,4.3-4.4.7-.8,1.6-1.8,2.7-3,5.5-6.2,12.4-8.5,14.2-9,.1,0,.3,0,.3,0,.2,0,.6-.3,1.1-.6.8-.5,1.8-1.2,3.1-1.7h0c2-.8,4.6-1.4,7.5-.6.2,0,.5.1.7.2,5.7,1.9,8.7,6.2,9.8,8,0,0,0,.1.1.2.7,1.3,0,2.2,0,3,0,.3,0,.5.3.8.2.3.5.6.7.9.4.5,1,.9,1.5,1.3.5.3,1,.6,1.5.8.4.2.8.3,1.2.4,1.2.3,2.3.6,2.9,1.6.3.5.2,1,0,1.6Z"/>
            <path class="cls-15" d="M61.2,39.5c-.3.7-.7,1.3-1.1,1.8-.3.3-.4.5-.4.5,0,0-.2,1.9-1.3,3.2-1.1,1.4-2.8,3.3-7.8,3.6-2.2.1-3.7,0-5-.4,0,0-.2,0-.3,0-.7-.2-1.3-.4-1.8-.7-.7-.3-1.3-.6-2-.9-2.2-.9-5.5-1.2-6-.4,0,0,0,0,0,.1-.6.9-2.2,3.7-3,6.6-.8,3.1,0,7.1-1.3,12.1-1.4,5-7.1,7.9-8.8,10.8-.8,1.4-1.6,3.4-2.1,5.4,0-3.4.9-6.8,2.5-9.7,2.1-3.9,4.2-5.5,4.8-10.1,0-.5-.4-1.3-.8-1.5-1-.4.8-.2,0,0-.4.1-.9-.2-1.1-.6-.2-.4-.2-.9-.2-1.4.2-5.5,3.3-10.8,8.1-13.5,1-.6,2.2-1.1,3.3-1.3,1.1-.2,2.2,0,3.4,0,1.3.2,2.8.5,3.7,1.4.6.7,1.2,1.7,2.1,1.5.3,0,.6-.3.8-.6.9-.9,1.8-1.8,3.1-2.2,1.4-.4,2.9,0,4.3-.4,1.2-.4,2.1-1.6,2.8-2.7.4-.6.8-1.3,1.5-1.7.9-.4,2,0,2.5.7,0,0,.1.2.2.3Z"/>
            <path class="cls-14" d="M53,32.2c-.6.2-1.2.2-1.8,0,.4,1.5.5,3,0,4.4-1.3,3.4-5.8,4.8-6.7,8.3-.1.5-.2,1.1,0,1.7.1.6.5,1.1.9,1.6-1.5-.4-2.6-1.1-3.8-1.5-2.2-.9-5.5-1.2-6-.4,0,0,0,0,0,.1-.6-.6-1-1.3-1.5-2-.4-.7-.6-1.4-.9-2.2-.4-1.4-.8-2.8-1.5-4.1-.2-.4-.4-.8-.7-1.2-.4-.5-.8-.8-1.4-.8-.5,0-.8.2-1.1.5-.4.4-.7,1.1-1.1,1.5-.8,1-1.7,1.9-2.9,2.2-1.9.4-3.8-1.2-4.2-3.1-.5-1.9.1-3.9,1.1-5.5,1.4-2.5,3.5-4.6,6-6,1.2-.6,2.4-1.4,3.7-1.6.4,0,.8,0,1.1,0,.4,0,.7.3.9.6.4.7,0,1.7.3,2.5.3.7,1.1,1,1.9,1.1,1.3.1,2.6-.2,3.6-.9,1.2-.8,2-2,2.9-3,.6-.7,1.4-1.5,2.4-1.5,1.1,0,1.7.7,2.3,1.5.6.9,1.5,1.7,2.3,2.4,1.4,1.2,2.7,1.9,4.2,2.3.7,1.3,0,2.2,0,3Z"/>
            <path class="cls-17" d="M53,32.2c-.6.2-1.2.2-1.8,0,.4,1.5.5,3,0,4.4-1.3,3.4-5.8,4.8-6.7,8.3-.1.5-.2,1.1,0,1.7.1.6.5,1.1.9,1.6-1.5-.4-2.6-1.1-3.8-1.5-2.2-.9-5.5-1.2-6-.4,0,0,0,0,0,.1-.6-.6-1-1.3-1.5-2-.4-.7-.6-1.4-.9-2.2.7-.6,1.3-1.2,1.9-1.9.7-.8,1.4-1.8,2.4-2.1,1.8-.5,3.7,1.2,5.6,1,1.2-.1,2.2-1.1,2.4-2.2.2-.9,0-2,.8-2.4.2-.1.4-.2.7-.2.7,0,1.4,0,2-.2.7-.2,1.3-.5,1.5-1.2.3-1-.5-2-1.4-2.7-.8-.7-1.7-1.5-2.8-1.7-1.6-.3-3.1.6-4.4,1.5-1.9,1.3-3.9,2.6-5.8,3.9-1.6,1.1-3.2,2.1-5,2.8,0,0,0,0,0,0-.4-.5-.8-.8-1.4-.8-.5,0-.8.2-1.1.5-.2-.3-.3-.6-.4-1-.4-1.3-.8-2.6-.7-4,0-2.3,1.2-4.4,2.9-6,.6-.6,1.3-1.1,2-1.6.4,0,.7.3.9.6.4.7,0,1.7.3,2.5.3.7,1.1,1,1.9,1.1,1.3.1,2.6-.2,3.6-.9,1.2-.8,2-2,2.9-3,.6-.7,1.4-1.5,2.4-1.5,1.1,0,1.7.7,2.3,1.5.6.9,1.5,1.7,2.3,2.4,1.4,1.2,2.7,1.9,4.2,2.3.7,1.3,0,2.2,0,3Z"/>
            <path class="cls-16" d="M52.1,45.6c-1.2,0-2.9-.1-4.1-.2.3-1.1.7-2.1,1.1-3l3.5.3c-.3,1-.5,1.9-.6,2.8ZM53.2,41.3l-3.2-.3c.7-1.1,1.4-2,2.2-2.8l2.1.9c-.4.7-.8,1.4-1.1,2.1ZM53.8,45.6c0-1,.2-1.8.5-2.7l2.7.2c-.7,1.5-2.1,2.2-3.2,2.4ZM54.8,41.4c.9-2.2,2.1-3.7,2.8-4.5.3-.3.2-.7-.2-.9-.2,0-.4,0-.6.1-.6.6-1.2,1.2-1.6,1.8l-1.8-.8c.6-.5,1.2-.9,1.7-1.2.3-.2.5-.5.5-.8-.6-.4-1.1-.8-1.5-1.3-.1,0-.2,0-.3.2-3.7,2.4-5.9,5.3-7.2,7.9h-13.3s0,0,0,0c-.7-.2-2.2-.9-4.1-3.9-2.5-3.8-1.1-8.5.8-11.5,1.7-2.2,3.6-4.1,5-5.3-1.3.5-2.4,1.2-3.1,1.7-.5.3-.9.6-1.1.6,0,0-.2,0-.3,0-.9,1.1-1.4,1.9-1.4,1.9-.5.6-1.1,1.4-1.6,2.4-.5,1-1,2.2-1.3,3.7-.9,4.3,1.5,9.5,4.9,11.6.7,2.6,2,4.6,2.9,5.7.4-.8.8-1.5,1.1-2-.9-1.3-1.3-2.3-1.5-2.9h12.1c-.5,1.5-.7,2.8-.8,3.9.2,0,.3.1.5.2,0,0,.2,0,.3,0,.6.1,1.2.3,1.9.3,0-.5.1-1.1.2-1.6,1.2,0,3,.1,4.3.2,0,.5,0,.9,0,1.4.7,0,1.2-.2,1.8-.4,0-.3,0-.7,0-1,1.7-.2,3.9-1.3,4.8-3.9h.8c.3-.8.4-1.4.4-1.4l-4.9-.4Z"/>
            <path class="cls-13" d="M60.1,41.3c-1,.5-2.1,0-2.9-.6-.5-.4-.9-.8-1.2-1.3-.4-.7-.4-1.5,0-2.2.4-.6,1.3-.9,2.3-1,1.2.3,2.3.6,2.9,1.6.6,1-.4,2.6-1.1,3.4Z"/>
            <path class="cls-7" d="M59.9,39.8c-.2.2-.4.3-.6.5-.2.1-.5.3-.6.5-.3.3-.5.3-.6-.1,0,0,0,0,0-.1,0-.3,0-.8.3-1,.1-.2.3-.4.6-.5.2-.1.4-.2.6-.2,0,0,0,0,0,0,0,0,0,0,0,0,.2,0,.4.2.5.4,0,.2,0,.5-.2.7Z"/>
            <path class="cls-19" d="M59.8,39c0,0,0,.1,0,.2-.2.3-.5.5-.8.8-.2.2-.3.5-.5.5,0,0-.2,0-.3,0,0-.3,0-.8.3-1,.1-.2.3-.4.6-.5.2-.1.4-.2.6-.2,0,0,0,0,0,0,0,0,0,0,.1,0,0,0,.2.1.2.2Z"/>
            <path class="cls-14" d="M23.4,57.5c-.3,13.9-4.8,15.6-5.3,21.8-.5,6.1-5.4,6-9.9,3.4,0-.4-.2-.7-.3-1-.9-2.4-3.6-2.7-6.8-2.7-3.1,0-6.6.2-9.4-1.2-6-3-9.8-2.1-13.2-2.2-3.3-.2-3.2,1.3-8.1.3-3.8-.8-5.8.1-6.6.6h0c-.4,0-.3.2-.3.2-2.4,6.2-13.1,13.8-15.9,16-2.8,2.2-5.9,7.1-5.9,7.1v1.7c0,1.7,0,5.2,0,5.2-1.3.8-2.2,1.5-2.9,2.5-.6.7-1,1.7-1.5,2.9h0c-3.7-.3-3.6-1.5-3.5-2.8.2-1.9.8-3.7,1.2-7.2.3-3.4-.7-6.6,0-8.5.7-1.9,6.6-6,7.8-11.2,1.2-5.3.2-11.2,0-16.9-.2-5.7,3.4-7.4,9.2-12.7,5.8-5.3,15-3.5,15-3.5,7.6-.6,27-1.9,27-1.9,3.6-3.3,8.4-4.2,11.5-5.3h0c.3-.1.6-.2.9-.3,0,0,0,0,0,0,0,0,.1,0,.2,0,0,0,0,0,.1,0,0,0,0,0,.1,0,0,0,0,0,.1,0,0,0,0,0,.1,0,0,0,.1,0,.2,0,0,0,0,0,0,0,0,0,.2,0,.2-.1.6-.4,1.1-.7,1.5-1,1-.8,2-1.7,4.3-4.4.6.9.9,2.1,1,3.2.1,1.3,0,2.5-.2,3.8,4.6,2.9,9.2,7.6,9,14.8Z"/>
            <path class="cls-14" d="M31.8,28.1s4-7.5,7.5-11c.3-.3.8,0,.8.3,0,1.7-.1,6.3.7,8,0,0-1.1,2.7-3.6,4.2-2.6,1.5-8,2.9-5.4-1.5Z"/>
            <path class="cls-3" d="M38.8,25.6c-.8,1.1-1.6,1.9-2.2,2.2-.2,0-.3.2-.4.2-.6,0,.5-1.8.9-2.8.4-1-1.3,1-2,2.9-.7,1.9-2.1.6-2.1.6,0,0,3.7-7.4,5-8.3,0,0,0,0,0,0,1.2-.6,1.7,3.9.7,5.3Z"/>
            <path class="cls-18" d="M50.4,32.6c-.2-.3-.5-.5-.9-.6-.4-.1-.8,0-1.2.1-.4.2-.7.4-1,.7-.3.2-.5.5-.6.8,0,0,0,.1,0,.2,0,0,0,.2.1.2.3.3.6.6,1,.7.4.2.8.3,1.2.2.2,0,.4-.1.6-.2.1,0,.3-.1.4-.2.1,0,.3-.2.4-.3.2-.2.3-.3.5-.5.2-.2.2-.3,0-.5-.2-.2-.3-.5-.5-.7Z"/>
            <path class="cls-9" d="M50.4,33.6c0,.7-.6,1.3-1.4,1.3s-1.4-.6-1.4-1.3.6-1.3,1.4-1.3,1.4.6,1.4,1.3Z"/>
            <path class="cls-20" d="M49.6,33.6c0,.3-.3.6-.6.6s-.6-.3-.6-.6.3-.6.6-.6.6.3.6.6Z"/>
            <circle class="cls-18" cx="48.8" cy="33.1" r=".3"/>
            <path class="cls-20" d="M47,33.6h.3c0,0,.6-1,1.8-.9,1.1,0,1.8.9,1.8.9,0,0,0-.4-.4-.9s-1.4-.7-1.4-.7c0,0-1.5.4-2.1,1.6Z"/>
            <path class="cls-8" d="M51.5,33.3c0-.2-.3-.2-.4-.3-.3-.3-.5-.6-.8-.9-.2-.2-.4-.4-.6-.5-.7-.3-1.4.1-2,.5-.6.4-1.1,1-1.5,1.5,0,0-.1.2,0,.2,0,0,0,0,.1.1.2.1.4.3.7.4.6.4,1.2.8,1.9.8.4,0,.9,0,1.2-.3.1,0,.2-.2.3-.3h0s1.2-.6,1.2-1.2c0,0,0-.2,0-.2ZM47.2,33.7c0-.1.2-.3.3-.4.4-.3,1-.6,1.7-.5,0,0,.9.1,1.5.7.3.3.2.5.1.6,0,0,0,0,0,0,0,0,0,0,0,0-.2.2-.5.3-.7.5-1.5.6-2.8-.5-2.8-.5h0c0-.1-.1-.2,0-.3Z"/>
            <path class="cls-8" d="M-55.3,111.8c-.3,0-.7,0-1,0-.5-1.2-1.4-2.3-1.4-2.3,1.2.3,2,1.3,2.4,2.2Z"/>
            <path class="cls-8" d="M22.9,112.8c-.3,0-.7,0-1.1,0-.4-1.6-1.9-3.3-1.9-3.3,1.7.4,2.6,2.2,3,3.2Z"/>
            <path class="cls-17" d="M-36.4,76.6c-2.4,6.2-13.1,13.8-15.9,16-2.8,2.2-5.9,7.1-5.9,7.1v1.7c0,1.7,0,5.2,0,5.2-1.3.8-2.2,1.5-2.9,2.5,0-3,.2-8.3.5-11,.4-3.8,4-7,7.5-10.6,3.6-3.6,8.8-6.9,10.2-16.5,1.4-9.7,5.1-15.9,5.1-15.9-.6,4.5-.3,9.1.9,12.4,1.1,3.3.5,8.5.5,8.5,0,0,.2.1.3.4-.4,0-.3.2-.3.2Z"/>
            <path class="cls-17" d="M8,81.7c-.9-2.4-3.6-2.7-6.8-2.7-.6-1.6-1.2-3.2-1.5-4.6-1.3-5.4-.6-14.6-.6-14.6,0,0,5.1,8.2,8.9,21.9Z"/>
            <g>
              <path class="cls-11" d="M62,41.7c-.4-.7-1-1.1-1.8-1.2l-5.4-.4c.9-2.2,2.1-3.7,2.8-4.5.3-.3.2-.7-.2-.9-.2,0-.4,0-.6.1-.6.6-1.2,1.2-1.6,1.8l-1.8-.8c.6-.5,1.2-.9,1.7-1.2.6-.4.7-1.2.3-1.7v-.2c-.6-.3-1.2-.3-1.7,0-8.7,5.6-9,13.8-8.9,16.3,0,.5.4.8.8.9h.6c.5.1.9-.1,1.1-.5l5,.2s0,0,0,0c0,.5.6.9,1.1.8.4,0,.7-.4.7-.8,4.5-.3,6.8-3.6,7.9-5.7.3-.7.3-1.5,0-2.1ZM56.9,41.8c-.7,1.5-2.1,2.2-3.2,2.4,0-1,.3-1.8.5-2.7l2.7.2ZM49.2,41.2l3.5.3c-.3,1-.5,1.9-.6,2.8-1.2,0-2.9-.1-4.1-.2.3-1.1.7-2.1,1.1-3ZM52.2,37l2.1.9c-.4.7-.8,1.4-1.1,2.1l-3.2-.3c.7-1.1,1.4-2,2.2-2.8ZM47.4,47.8c0-.8.1-1.5.2-2.2,1.2,0,3,.1,4.3.2,0,.8,0,1.5,0,2.2l-4.6-.2ZM60.7,43.2c-1.1,2.2-3.1,4.7-6.7,4.9-.1-.8-.2-1.5-.2-2.2,1.7-.2,3.9-1.3,4.8-3.9h1.5c.3.1.5.3.6.5.1.2.1.5,0,.7Z"/>
              <path class="cls-11" d="M33.4,42.3s.4,2,2.3,4.2c.2.2.2.6,0,.8l-.3.5c-.3.5-.9.5-1.2.1-1-1.2-2.8-3.8-3.4-7.1l2.6,1.3Z"/>
              <path class="cls-11" d="M33.2,40.6s0,0,0,0c-.7-.2-2.2-.9-4.1-3.9-2.5-3.8-1.1-8.5.8-11.5,2.9-3.9,5.8-4.3,5.8-4.3-4.6.3-6.7,3.3-6.7,3.3h0c-1,1.2-2.3,3.2-2.9,6.1-1.1,5,2.4,11.2,6.7,12.4h13.9c.2,0,.4-.1.5-.3l.5-1.1c.1-.3-.1-.7-.5-.7h-13.9Z"/>
              <path class="cls-1" d="M48.3,40.7c-.4.8-.7,1.7-.9,2.2,0,.2-.3.4-.5.4h-.1c-.3,0-.6-.3-.5-.7.2-.7.6-1.8,1.1-2.5,0-.1.3-.2.4-.2h0c.4,0,.6.4.5.7Z"/>
            </g>
            <path class="cls-8" d="M8.2,82.7c-.4,0-.8,0-1.1,0-.4-2.5-.8-5.1-1.3-6.4-1-2.7-3.7-9.7-4.5-12.9,0,.2,2.9,6.2,4.7,10.3,1.8,4.2,2.3,8.8,2.3,8.8Z"/>
            <path class="cls-8" d="M-22.5,73.8c-.3-.1-5.4-2-7.7-1.1-1.6.6-3.3,2.6-4.2,3.9-.9-.2-1.4-.3-1.7-.2,1.6-2.6,4.9-4.6,6.8-4.7,1.9-.2,6.5,2.1,6.8,2.2Z"/>
            <path class="cls-12" d="M38.1,22.7c-.1,1.8-.6,3.6-1.5,5.1-.2,0-.3.2-.4.2-.6,0,.5-1.8.9-2.8.4-1-1.3,1-2,2.9-.7,1.9-2.1.6-2.1.6,0,0,3.7-7.4,5-8.3.3.6.2,1.8.1,2.3Z"/>
          </g>
        </g>
      </g>
    </g>
  </g>
</svg>