<?xml version="1.0" encoding="UTF-8"?>
<svg id="Livello_1" data-name="Livello 1" xmlns="http://www.w3.org/2000/svg" version="1.1" viewBox="0 0 76.5 76.5">
  <defs>
    <style>
      .cls-1 {
        fill: #8c5840;
      }

      .cls-1, .cls-2, .cls-3, .cls-4, .cls-5, .cls-6, .cls-7, .cls-8, .cls-9, .cls-10 {
        stroke-width: 0px;
      }

      .cls-2 {
        fill: #161213;
      }

      .cls-3 {
        fill: #d19b6f;
      }

      .cls-4 {
        fill: #b17954;
      }

      .cls-5 {
        fill: #e0ba96;
      }

      .cls-6 {
        fill: #332026;
      }

      .cls-7 {
        fill: #a3714f;
      }

      .cls-8 {
        fill: #a98666;
      }

      .cls-9 {
        fill: #b27f59;
      }

      .cls-10 {
        fill: #fff;
      }
    </style>
  </defs>
  <path class="cls-10" d="M26.5,62.2l-.4-.6c0,0,0-.2,0-.2-.3-.1-.6-.4-.8-.7-.3-.5-.3-1.1,0-1.6.5-.8,1.6-1.4,2.5-1.7.2-.7.4-2.2.3-3.2,0-.4-.1-.6-.2-1-.3-.9-.5-1.8-.3-3.9.2-2.6-.7-6.4-1.7-8.2-.1-.2-.2-.4-.3-.5-.5-.7-1.1-1.5-1.8-2.5,0,.2-.2.3-.2.4,0,0,0,0,0,0-.1.2-.2.5-.3.7-.2.5-.5.9-.6,1.6,0,.4,0,.7,0,1,0,.6,0,1.2-.5,2.2,0,.1-.2.3-.2.4-.2.5-.7,1-1.7,1.4-.3,0-.7.2-1.1.2-.8,0-1.6-.2-2.1-.7l-.8-.5c-.6-.5-.9-1-1-1.4-.1-.5-.9-1.9-1.4-3.1-.3-.5-.5-1.1-.8-1.5l-.5-1.2c-.3-.8-.4-1.5-.5-2.3,0,0-.2.1-.2.2h-.1c-1.2,1.2-1.9,1.9-2.8,1.9s-1.3-.5-1.5-1.2c-.2-.6-.2-1.6.6-4.5.5-2,2-3.2,3.9-3.2s.8,0,1.1.1c.2,0,.3,0,.5,0s.5,0,.9-.1c.4-.2.8-.4,1.2-.5.6-.3,3.1-1.6,4.9-3.3.5-.4.9-.8,1.2-1.2,1.4-1.4,2.6-2.6,4.7-2.8.9-.1,2.4-.2,4.3-.2,2.3,0,5.2-.2,6.5-.4.6-.1,1.3-.3,2.2-.5,2.4-.6,5.3-1.3,7.6-1.3h.3c1,0,3.5,0,5.9,0s3.1,0,3.9,0c.1,0,.2,0,.3,0,2.6,0,4.9,2.2,5.6,4.3l1,.5c3.4,1.7,7.2,3.6,5.5,8.9-.6,1.8-1.1,3.2-1.6,4.3-.5,1.1-.8,2-.8,2.5,0,.9-.3,1.4-.5,1.6-.3.3-.8.5-1.2.5h0c-.5,0-1-.2-1.4-.7-.5-.5-.8-1.2-1-2.1-.8,2.5-1.4,5.2-1.3,7.2.1,2.6.8,5,1.2,6.6.3,1.2.5,1.8.5,2.4,0,1-.8,1.6-1.6,2.4-.6.6-1.3,1.2-1.8,2-1,1.8-2,3.3-3.8,3.7-.3,0-.6,0-.9,0s-2.4,0-3.1-1.2c-.3-.5-.3-1,0-1.5.2-.4.5-.8.9-1.2-.4,0-.8,0-1,0h-.2c-.1,0-.2,0-.3,0,0,0-.2,0-.2,0-1.2,0-1.7-.8-1.9-1.1h0c-1.2-.6-1.2-1.6-1.1-1.8.1-1.4,1.9-1.8,2.8-2,.4,0,.4-.1.4-.1,0,0,.3-.6.5-1.1.2-.5.5-1.2.9-2,.4-.9.7-2.1.7-3.5,0-1.5-.2-2.8-.3-3.2-.6-1-.9-1.9-.9-3.3s0-1.1.1-1.7c.4-2.6.6-4.9-1.5-6.7-.3-.3-.7-.4-1.1-.4-2,0-4.7,2.1-5.8,3.2-1.3,1.5-3.7,2.4-6.4,2.4s-1.1,0-1.7-.1c.7,1.1.4,2.2.2,3,0,.2-.1.5-.2.8,0,.1,0,.3,0,.4h0s0,.2,0,.2c0,.8,1,2.8,1.8,4.5.3.7.6,1.3.9,2,.6,1.3.5,2.5.5,3.4,0,.6,0,1,0,1.2.5.7.5,1.6,0,2.5-.6,1.2-2,2.1-3.3,2.1s-.6,0-.8,0c-.3,0-.5,0-.7,0-.5,0-1-.1-1.4-.4-.5.4-.6.6-.7,1.3,0,.4,0,.7,0,1,0,.8,0,2.2-1.4,2.8-.9.4-2.6.5-3.2.5l-.9-.3ZM56.7,52.6c-.9,1.5-1.6,2.7-1.9,3.9-.1.4-.3.8-.5,1,.2,0,.4-.1.6-.1.6-.4,1.8-2.8,1.8-4.8h0ZM33.1,49.4c0,1.6.4,2.8.6,3.6,0,0,.5-.3.7-.3,0-.4-.2-1-.3-1.3v-.3c-.1-.2-.5-1-1-2.2,0,.2,0,.4,0,.6Z"/>
  <g>
    <path class="cls-5" d="M23.1,34.9c-.2,1.6-.9,2.9-1,3.1,0-.1.5-1.8,0-2.8-.5-1.1-2.1-.2-3-.7-.8-.4-.5-2-.6-3.1,0-.1,0-.2,0-.3,0-.6-.4-.7-.7-.2-.2.4-.4,1-.4,2.1,0,2.7-2.1,3.3-.4,4.1,1.7.8,2.4,6.8,1.8,6.8s-.4,0-.7,0c0-.2,0-.6-.5-.8-.6-.2-1.4-1.2-1.5-2.5-.1-1.3-.5-1.7-1.2-2-.6-.3-1.2-1.3-1.3-1.4,0,0,0,0,0,0,0,0,0,0,0,0h0c-.8-1.7-.7-4.5,0-6.3.3-.9,1.3-1.3,2.2-1.5,1-.2,1.9-.2,1.9-.2,2.8.2,3.9,0,5.1,2.7.4,1,.4,2.1.3,3.1Z"/>
    <path class="cls-7" d="M18.2,43.9c-.7,0-1.7-.3-1.9-1-.3-1-1.9-4-2.7-5.7,0,.2.7,1.2,1.3,1.4.7.3,1.1.7,1.2,2,.1,1.3.9,2.3,1.5,2.5.4.2.5.6.5.8Z"/>
    <path class="cls-8" d="M54.6,47.1c.5.6,1.3,1.6,1.8,2.5-.2.8-.5,1.6-.8,2.2-.9,1.5-1.8,2.9-2.2,4.3-.4,1.4-1.5,1.1-2.4,1.1-.9,0-.6-.6-1.4-1-.8-.4-.3-.8,1.3-1.2,1.6-.4,1.3-.8,2.9-3.9.6-1.2.8-2.7.9-4.1Z"/>
    <path class="cls-8" d="M56.8,46.8s0,.3-.1.9c-.5-1.2-1.2-2.3-1.7-3.1-.3-.5-.5-.9-.8-1.2h0s0,0,0,0l2.6,3.5Z"/>
    <path class="cls-3" d="M56.5,21.2s2.7,1.2,6.5,3.1c3.8,1.9,6.1,3.3,4.8,7.2-1.3,4-2.6,5.8-2.5,7.2,0,1.4-1.4.5-1.4-1.7,0-2.1,2-4.9,2-4.9,0,0-1.3.8-1.7,1.5s-.4-.9.8-2.6,1.3-3.4-.4-4.4c-2.4-1.6-4.6-2.7-5.8-2.6s-2.3-1.2-2.4-2.8Z"/>
    <path class="cls-8" d="M32.1,43.5s-3.3-6.6-2.2-8.6c0,0,0-.1.1-.2.6-.8,1.3-.6,1.7-.1.4.4.7.8.7.8-.8,0-1.3.3-1.3,1.1,0,1.6,3.4,3.5,2.1,4.6-.5.5-.9,1.3-1.1,2.4Z"/>
    <path class="cls-8" d="M33.2,36.5c.3.5.7,1,1.1,1.4.7.8,0,1.7,0,2.9-.1-.3-.4-.7-.7-1.3-1.5-2.3-1.4-2-1.4-2.5,0-.3.6-.4,1.1-.5Z"/>
    <path class="cls-8" d="M35.6,55.8c-1.2,0-1.8.4-2.4-.3-.6-.7,1.9-1.4,2.4-1.9.5-.5,0-1.8-.2-2.9-.2-.8-2-4.5-2.8-6.3h0c0,0,.3-1.9.9-2.4.3-.2.5-.3.7-.4.1,1.6,1.7,4.4,2.9,7.1.9,1.9-.2,3.4.6,4.7.6.9-.9,2.4-2.1,2.4Z"/>
    <path class="cls-4" d="M18.5,31.1c0,0,0,.2,0,.3l-.7-.5c.3-.5.6-.3.7.2Z"/>
    <path class="cls-4" d="M63.5,31.6c-1.1,2.4-3.9,9.5-3.7,13.9.2,4.3,1.8,8,1.7,8.8,0,.9-2.2,1.9-3.2,3.8-1.1,1.9-1.8,2.8-2.9,3-1.1.2-2.8-.2-2.6-.6.2-.4,1-1.5,2.2-1.7,1.2-.1,2.9-3.7,2.9-6.1,0-1.3-.5-2.9-1.1-4.4,0-.2-.2-.4-.3-.6-.5-1.2-1.2-2.3-1.7-3.1-.3-.5-.5-.9-.8-1.2h0c-.8-1.3-1.1-2.1-.7-4.3.4-2.8.6-5.7-1.9-8-2.6-2.3-7.5,1.3-8.9,2.9-1.4,1.7-4.4,2.2-7,1.8-1-.1-1.9-.3-2.6-.4h0c-.2,0-.4,0-.6,0-.8,0-1.3.3-1.3,1.1,0,1.6,3.4,3.5,2.1,4.6-.5.5-.9,1.3-1.1,2.4h0s0,0,0,0c-.3,1.5-.4,3.6-.4,5.9,0,4,1.9,5.2.7,6-1.1.8-1.6,1.3-1.7,2.7-.1,1.4.2,2.3-.6,2.7-.8.4-2.7.3-2.7.3,0,0-.1-.3.4-.7.6-.4-1.7,0-1.3-.6.4-.6,1.6-1.1,2.1-1.1s.9-2.9.8-4.6c-.1-1.6-.9-1.5-.6-4.7.3-2.8-.7-6.9-1.9-9.1,0,0-.6-2.3,0-4.2.6-1.9.8-3.7-.4-5.1-1.2-1.4-3.8-3.5-5-2.9-1.2.6-3.9,1-3.9,1,0,0-.9,0-1.9.2.2,0,3.2-1.6,5.4-3.6,2.2-2.1,3.1-3.4,5.1-3.6,2-.2,8.6-.2,10.8-.7,2.2-.4,6.8-1.8,9.7-1.7,2.9,0,7.8.1,10,0,2.2-.1,4.5,2.2,4.6,4,.1,1.8,2.7,4.5,3.2,5,.5.6,0,.5-1.1,2.9Z"/>
    <path class="cls-1" d="M27,40.4h0c-.1-.3-.3-.5-.4-.7-1.4-1.9-3.1-4.5-3.1-4.5l-.4-.3c.1-1,.1-2.1-.3-3.1-1.1-2.7-2.3-2.5-5.1-2.7,0,0,2.7-.4,3.9-1,1.2-.6,3.7,1.6,5,2.9,1.2,1.4,1,3.2.4,5.1-.6,1.9,0,4.2,0,4.2Z"/>
    <path class="cls-3" d="M18.9,44s1.1.4,1.7-.6c.5-1.1.3-1.3.5-2.7s.7-1.9,1-2.7c1-2.5,1.5-3.4,0-4.7-1.7-1.5-3.3-4.3-5.2-3s-1.8,6.1,0,8.9c1.8,2.8,2.1,4.8,2.1,4.8Z"/>
    <path class="cls-3" d="M14.7,29.8c-.2.1-.3.3-.4.5,0,0,0,0,0,0-.1,0-1.2.8-1.4,1.5-.2.6-2.3.7-3,1.7s-.8-1.5-.8-1.5c.5-2,2.1-2.3,3.3-2,1.2.3,2.3-.1,2.3-.1Z"/>
    <path class="cls-3" d="M19.8,29.3s2.3-1.5,4.2,0,2.7,1.7,2.6,3c0,1.3-1.5,3.1-1.8,3.7s-1.2.4-1.3-.9c0-1.3-1.3-2.6-1.7-4.2-.4-1.6-1.9-1.7-1.9-1.7Z"/>
    <path class="cls-1" d="M32.1,28.6s3.4,5.7,7,5.6-.6,1.5-3.1,0-3.9-5.6-3.9-5.6Z"/>
    <path class="cls-1" d="M33.2,27.8s5.4,4.8,8.1,4.9-.6,1.5-3.1.6c-2.5-.9-5-5.5-5-5.5Z"/>
    <path class="cls-1" d="M35.6,27.6s5.2,4,7.1,4,0,1.1-2.1.1-5-4.1-5-4.1Z"/>
    <path class="cls-1" d="M37.7,27s5.3,3.3,7,3.5-3.3,1.4-7-3.5Z"/>
    <path class="cls-1" d="M40.2,26.1c.1,0,4.2,3.2,6.4,3.3s-2.3,1-4.3-1.1-2.1-2.2-2.1-2.2Z"/>
    <path class="cls-1" d="M43.4,25.6s3.7,2.6,5.3,2.9-3.3.7-5.3-2.9Z"/>
    <path class="cls-1" d="M46.9,24.6s2,.8,4.7.7,4.3.1,4.6-1.6c.4-1.8.8-2.3,2.2-1.9s2,1.4,2.2,2.2-2.2-2.9-3.3-1-.9,4.2-1.3,5.1-4.1-.4-5.9-1.1c-1.8-.7-4.5-2.9-3.2-2.5Z"/>
    <path class="cls-6" d="M17.4,43.8c0,0-.5-.6,0-1.3s1.8-.5,2.4-.3.8,1,.6,1.4-.6.6-.9.7-1.6.2-2.1-.6Z"/>
    <path class="cls-6" d="M15,35.5s.7.4,1.4.3.6-.2.4.1-1.5.2-1.8-.4Z"/>
    <path class="cls-6" d="M19.7,35.8s.4.2,1.5.1-.3.3-.8.2-.8-.3-.8-.3Z"/>
    <path class="cls-2" d="M18.2,44s-.2,0-.2-.2.5-.4.7-.2,0,.4.3.4.2-.5.7-.4,0,.6-.4.6-.3,0-1-.2Z"/>
    <path class="cls-9" d="M19.1,29.2s1.8.6,1.9,1.5-.4,1.3.6,2.4,1.3,2.7,1.3,2.7c0,0,.9-2.1.5-4.1s-2.9-2.4-4.3-2.5Z"/>
    <path class="cls-7" d="M56.7,47.7c0,.5-.2,1.2-.4,1.9-.4-.9-1.3-2-1.8-2.5,0-2-.3-3.6-.3-3.7.2.4.5.8.8,1.2.5.9,1.2,2,1.7,3.1Z"/>
    <path class="cls-7" d="M34.2,41.5s0,0,0,0c-.2.2-.4.2-.7.4-.7.5-.9,2.3-.9,2.4h0c-.3-.5-.4-.9-.4-.9h0c.2-1.1.6-1.9,1.1-2.4,1.3-1.1-2.2-2.9-2.1-4.6,0-.8.5-1.1,1.3-1.1,0,0,.3.5.7,1.1-.5,0-1.1.2-1.1.5,0,.5,0,.2,1.4,2.5.4.6.6,1,.7,1.3,0,.2,0,.5,0,.8Z"/>
    <path class="cls-9" d="M14.2,30.3c-.5.8-.6,1.8-1,2.2-.5.5-2,1.3-2.7,1.9-.7.6-2,1.9-2.1,1.3-.1-.5,0-1.8.6-3.8,0,0,.2,2.5.8,1.5s2.8-1.1,3-1.7c.2-.6,1.3-1.4,1.4-1.5Z"/>
  </g>
</svg>