<?xml version="1.0" encoding="utf-8"?>
<!-- Generator: Adobe Illustrator 27.9.0, SVG Export Plug-In . SVG Version: 6.00 Build 0)  -->
<svg version="1.1" id="Who_is_at_risk" xmlns="http://www.w3.org/2000/svg" xmlns:xlink="http://www.w3.org/1999/xlink" x="0px"
	 y="0px" viewBox="0 0 32 32" style="enable-background:new 0 0 32 32;" xml:space="preserve">
<style type="text/css">
	.st0{fill:#CAB19A;stroke:#FFFFFF;stroke-width:0.7;stroke-miterlimit:10;}
	.st1{fill:#FFFFFF;}
	.st2{fill:#010101;}
</style>
<path class="st0" d="M24.2,21.8c-0.3,0-0.7,0-1,0.1c0-1.7-0.8-3.4-1.9-4.8c0.4-0.2,0.7-0.4,1-0.6c2.1-1.4,3.4-3.6,2.9-6.2
	c-0.1-0.7-0.4-1.4-0.7-2c1.5-0.6,2.3-2.1,2-3.7C26.1,2.9,24,1,22.1,1.4c-1.2,0.2-2.1,1.1-2.5,2.2c-1.7-0.8-3.5-1.2-5.2-0.9
	c-0.8,0.2-1.6,0.4-2.3,0.8c-0.8-1.2-2.2-2-3.7-1.8C6.5,2.2,5.3,4.7,5.6,6.5c0.2,1,0.8,1.8,1.7,2.2c-0.6,1.3-0.8,2.8-0.5,4.1
	c0.4,2,1.6,3.4,3.3,4.3c-1.2,1.3-1.9,3-1.9,4.8c0,0.1,0,0.2,0,0.4C7.6,22,7,21.8,6.4,21.8c-2.3,0-3.9,1.9-3.9,4.4s1.6,4.5,3.9,4.5
	c0.8,0,1.6-0.3,2.3-0.7c1.1,0,2.6-0.9,2.6-0.9c1.9,0.8,3.4-0.9,3.4-0.9s0.6,0,0.9,0c0.1,0,0.2,0,0.3,0c0,0,1.5,1.7,3.4,0.9
	c0,0,1.3,0.7,2.4,0.9c0.7,0.4,1.5,0.7,2.3,0.7c2.3,0,4-2.1,4-4.5S26.5,21.8,24.2,21.8L24.2,21.8z"/>
<path class="st1" d="M20.4,14.9c-0.2-1.8-2.6-3.7-4.7-3.5s-4,1.8-3.9,3.6c0.1,0.8,0.6,1.5,1.3,2c-0.4,0.6-2,3.5,0.6,6.2
	c0,0,2,2.1,1.2,4h0.8c0,0-0.6-1.3,2.2-4c2.6-2.5,1.6-5,1.1-6.3C19.9,16.5,20.4,15.8,20.4,14.9L20.4,14.9z"/>
<path class="st2" d="M17.4,12.6c-0.1,0.4-0.8,1-1.4,1.1s-1.4-0.6-1.5-1s0.7-0.6,1.3-0.7S17.5,12.2,17.4,12.6z"/>
<ellipse transform="matrix(1 -5.410494e-03 5.410494e-03 1 -5.632963e-02 7.257965e-02)" class="st2" cx="13.4" cy="10.4" rx="0.8" ry="1.2"/>
<ellipse transform="matrix(0.9881 -0.1538 0.1538 0.9881 -1.3784 2.9959)" class="st2" cx="18.7" cy="10.4" rx="0.8" ry="1.2"/>
<circle class="st1" cx="13.5" cy="10.2" r="0.4"/>
<circle class="st1" cx="18.6" cy="10" r="0.4"/>
<ellipse transform="matrix(0.6629 -0.7487 0.7487 0.6629 -18.293 12.1185)" class="st1" cx="4.3" cy="26.4" rx="0.7" ry="0.9"/>
<ellipse transform="matrix(0.9162 -0.4008 0.4008 0.9162 -9.49 4.2111)" class="st1" cx="5.3" cy="24.8" rx="0.7" ry="0.9"/>
<ellipse transform="matrix(0.9881 -0.154 0.154 0.9881 -3.6533 1.3883)" class="st1" cx="7.1" cy="24.3" rx="0.7" ry="0.9"/>
<ellipse transform="matrix(0.2365 -0.9716 0.9716 0.2365 -17.8994 27.7432)" class="st1" cx="8.7" cy="25.3" rx="0.9" ry="0.7"/>
<ellipse transform="matrix(0.9504 -0.311 0.311 0.9504 -6.7227 8.0472)" class="st1" cx="21.9" cy="25.1" rx="0.7" ry="0.9"/>
<ellipse transform="matrix(0.1172 -0.9931 0.9931 0.1172 -3.2931 44.7813)" class="st1" cx="23.5" cy="24.2" rx="0.9" ry="0.7"/>
<ellipse transform="matrix(0.3665 -0.9304 0.9304 0.3665 -6.9188 39.2527)" class="st1" cx="25.4" cy="24.7" rx="0.9" ry="0.7"/>
<ellipse transform="matrix(0.6952 -0.7189 0.7189 0.6952 -10.9586 26.8902)" class="st1" cx="26.2" cy="26.4" rx="0.9" ry="0.7"/>
<path class="st1" d="M8.2,26.8c-0.7-0.5-1.4-0.6-1.8-0.4c-0.5,0.1-0.9,0.6-1.1,1.3c-0.2,0.9,0.1,1.8,0.8,1.9
	c0.5,0.1,0.7-0.6,1.4-0.8c0.8-0.3,1.5,0.3,1.7-0.1C9.5,28.2,9.1,27.3,8.2,26.8L8.2,26.8z"/>
<path class="st1" d="M22.4,26.8c0.7-0.5,1.4-0.6,1.8-0.4c0.5,0.1,0.9,0.6,1.1,1.3c0.2,0.9-0.1,1.8-0.8,1.9c-0.5,0.1-0.7-0.6-1.4-0.8
	c-0.8-0.3-1.5,0.3-1.7-0.1C21.1,28.2,21.5,27.3,22.4,26.8L22.4,26.8z"/>
<g>
	<path class="st1" d="M10.9,4.3c-1.2,0.8-2.2,1.9-3,3.2C7.6,7.1,7.3,6.6,7.2,6.1C6.9,4.7,7.6,3.5,8.7,3.2C9.6,3.1,10.4,3.5,10.9,4.3
		z"/>
	<path class="st1" d="M25,4.9C25.2,6,24.8,7,24,7.5c-0.8-1.2-1.8-2.2-3-3.1c0.2-0.8,0.8-1.4,1.5-1.5C23.6,2.6,24.8,3.5,25,4.9z"/>
</g>
</svg>
