<?xml version="1.0" encoding="UTF-8"?>
<svg id="Livello_1" data-name="Livello 1" xmlns="http://www.w3.org/2000/svg" version="1.1" viewBox="0 0 76.5 76.5">
  <defs>
    <style>
      .cls-1 {
        fill: #68595f;
      }

      .cls-1, .cls-2, .cls-3, .cls-4, .cls-5, .cls-6, .cls-7, .cls-8, .cls-9, .cls-10, .cls-11, .cls-12, .cls-13, .cls-14 {
        stroke-width: 0px;
      }

      .cls-2 {
        fill: #febc7a;
      }

      .cls-3 {
        fill: #9b5e2c;
      }

      .cls-4 {
        fill: #ad6b3e;
      }

      .cls-5 {
        fill: #302726;
      }

      .cls-6 {
        fill: #000;
      }

      .cls-7 {
        fill: #d7d9cd;
      }

      .cls-8 {
        fill: #8e562f;
      }

      .cls-9 {
        fill: #140f07;
      }

      .cls-10 {
        fill: #736e85;
      }

      .cls-11 {
        fill: #b4b5a9;
      }

      .cls-12 {
        fill: #050505;
      }

      .cls-13 {
        fill: #d89766;
      }

      .cls-14 {
        fill: #fff;
      }
    </style>
  </defs>
  <path class="cls-14" d="M13,68.6c-1.1-.2-3.6-.9-4.7-2.1-1.5-.8-2.5-1.6-3.1-2.5-.4,0-.9-.1-1.3-.7-.5-.7-1-2-.6-3.2q0-.1,0-.3c-.3-1-.2-1.8.9-3.1.3-.4.3-.6.3-1,0-.6,0-1.7,1.4-2.7.5-.3.9-.8,1.4-1.5h0c0-.1,0-.1,0-.1h0c0,0,.2-.2.2-.2.2-.6.5-1.8.9-3,.9-2.4,2-4.2,3.2-5.3.8-1.6,1.5-2.7,2.3-3.7.9-1.1,1.9-2.1,3.1-3.1,3.1-2.8,4.7-3.7,6.4-3.8.3,0,.7-.1,1.1-.2.5-.1,1.1-.3,1.7-.3s.6,0,.9.1c.4-.1,1.3-1,2-1.6.3-.3.7-.6,1.1-1,.3-.3.6-.6,1-.9.6-.6,1.2-1.2,1.9-1.7,1-1.1,2.1-1.6,3.2-1.6s2,.6,2.6,1.5c.4.7.7,1.5.9,1.9,1.7,2,1.2,4.2.9,5.7-.1.5-.2.9-.2,1.3,0,.9,0,1.6-.3,2.3h.5c.5,0,1,.3,1.5.7.3,0,.6.2.8.4.2.2.3.3.4.5,0,0,0,0,0,0,0,0,.1,0,.2,0,.7,0,1.4.5,1.6,1.3.4,1.5-.6,4.8-3.2,6.3-2.9,1.7-4.6,2.8-5.6,5v.2c-1.5,3.3-4.9,5.2-6.3,5.9-1.5.7-1.5.9-1.4,1.1.2,1.7-1.4,4.3-1.8,5l-.3.4-13,4.1h-.4Z"/>
  <g>
    <path class="cls-11" d="M40.9,40.6c0,0-.1-1-.3-1.4s1,.7,1.1,1-.8.4-.8.4Z"/>
    <path class="cls-1" d="M38.5,42.4s-1.5-.3-.6-2.4,1.1-2.9,1.2-4.7c0-1.8,1.4-4.1-.5-6.2s-2.5,5.3-3.7,7.5c-1.2,2.2-3.8,5-2.6,6.9s6.2-1.1,6.2-1.1Z"/>
    <path class="cls-12" d="M43.1,41.3c0-.3-.4-.9-1-.9s-3.6,1.3-3.6,1.3l-1.5.6s-1.9.6-3.3.5-.4,1.9,1.2,1.9,8.3-1.8,8.3-3.5Z"/>
    <path class="cls-2" d="M42.2,41.9v.2s-1.6,2.7-3.5,2.5c-2-.2-3.6,1.8-6.2,2-2.6.3-3.5-1.2-3.7-3.1-.2-1.9,2.1-6.2,0-4.1-2,2.1-1.8,5.5-2.8,8-1,2.5-4.3,5-5.7.8-1.4-4.1.4-7,.5-7.1,0,0-1.4,1.4-1.6,3.2-.2,1.9-2.7,3.5-2.2,2.5.5-.9-1.5-5.7-1.5-4.8,0,.9.1,1.2-1.3,2.8-.7.8-.7,1.4-.6,1.8.1.2.3.5.5.7,1.6,2,2.9,7.6,1.8,10.5-.3,1-.7,1.4-1.1,1.5-.1.8-.4,1.5-1.2,1.8-1.9.7-4.3-.3-2.7.8,1.6,1.1,6.8.7,3,2.2-3.8,1.5-5.2-.2-4.6.9-1.9-.9-3.5-2.2-3.4-4.4,0,0-.5.7-.5,1.4,0,.7-1-.7-.6-1.9.3-1.3-.8-1.2.6-2.8,1.4-1.6,0-2.4,1.5-3.4.7-.5,1.3-1.2,2-2.2,0,0,0,0,0,0,0,0,0,0,0,0h0c.8-1.3,1.8-3.1,2.9-5.8.4-.9.7-1.7,1.1-2.4h0c1.5-3.1,2.7-4.5,5.1-6.7,3-2.7,4.3-3.4,5.5-3.5,1.2,0,2.3-.7,3.4-.4,1.1.3,2.5-1.4,4.3-2.9,1.7-1.5,4.4-4.7,5.8-3.2.2.2.5.5.7.7l-3.9,1.6s0,1.1,1.3,1.1c1.2,0,2.1-.5,2.3.7.3,1.2-2.1,4.7-2.2,6,0,1.3-.7,2.4-1.4,3.3-.7,1-1.1,1.6-.2,3,.8,1.4,2.8.5,2.8.5.3,0,.6-.1.9-.2,1.6-.4,3.6-.9,4.9-1.8Z"/>
    <path class="cls-9" d="M22.1,37.4s.5-.4.7-1,.9-1.2,2.2-1.4-.4.2-1.1.8-1,1.3-1.9,1.6Z"/>
    <path class="cls-5" d="M38.7,32.5c-.7,2.3-2,3.3-2.9,5.5-.9,2.2-2.2,2.3-2.3,4.1,0,1.6,1.2,2,2.9,1.8,0,0-2,.9-2.8-.5-.8-1.4-.5-2,.2-3,.7-1,1.3-2,1.4-3.3,0-1.3,2.5-4.8,2.2-6-.3-1.2-1.1-.7-2.3-.7-1.2,0-1.3-1.1-1.3-1.1l3.9-1.6c1.1,1.3,1.6,2.8,1.1,4.7Z"/>
    <path class="cls-9" d="M34.1,27.6s-.8,1-.3,1.7,1.2.5,2,.2,1.5-.3,1.9-.2.9-.3.9-.3c0,0-.4-1-.9-2s-1.9-1.4-3.6.5Z"/>
    <path class="cls-10" d="M34.9,51.5c-1.2,2.8-4,4.5-5.5,5.2s-2.4,1.3-2.2,2.6c.2,1.3-1.6,4-1.6,4l-10.3,3.2s4.6-2.2,5.7-4.5c1.1-2.3-.1.3-1.2.7,0,0,1.8-1.7,2-3.6.2-1.9,2.6-2.8,4.6-3.3,2.1-.5,3.4-.1,5.4-1.3,2-1.2,3.1-2.9,3.2-3.1Z"/>
    <path class="cls-13" d="M41.2,45.7c-2.9,1.7-5,3.1-6.2,5.8,0,0,0,0,0,0,0,.1-1.2,1.9-3.2,3.1-2,1.2-3.4.8-5.4,1.3-2.1.5-4.4,1.4-4.6,3.3-.2,1.9-2,3.6-2,3.6,1.1-.3,2.3-2.9,1.2-.7-1.1,2.3-5.7,4.5-5.7,4.5h-.5c0,.1-3-.1-5.5-1.3-.6-1.1.8.6,4.6-.9,3.8-1.5-1.4-1.1-3-2.2-1.6-1.1.8-.1,2.7-.8.8-.3,1.1-1,1.2-1.8.4,0,.7-.5,1.1-1.5,1-3-.2-8.6-1.8-10.5-.2-.2-.3-.5-.5-.7-.1-.4,0-1,.6-1.8,1.4-1.6,1.3-1.9,1.3-2.8,0-.9,2,3.9,1.5,4.8-.5.9,2-.6,2.2-2.5.2-1.9,1.5-3.2,1.6-3.2,0,0-1.9,3-.5,7.1,1.4,4.2,4.8,1.7,5.7-.8,1-2.5.8-5.9,2.8-8,2-2.1-.2,2.2,0,4.1.2,1.9,1.1,3.3,3.7,3.1,2.6-.3,4.3-2.2,6.2-2,2,.2,3.5-2.5,3.5-2.5v-.2c.4-.2.7-.5,1-.8,1.2-1.5,1,2.9-1.9,4.6Z"/>
    <path class="cls-3" d="M9.3,65.3c2.5,1.2,5.5,1.4,5.5,1.4l-1.4.4s-3.4-.8-4-1.9Z"/>
    <path class="cls-3" d="M13.6,46.8c.1.2.3.5.5.7,0,0-.3-.2-.5-.7Z"/>
    <path class="cls-4" d="M12.5,51.4c-2.2.7-.2,2.5-1.2,4.2-1,1.6-3,.3-3,.3h0c-.2-.4-.3-.9-.2-1.5.3-1.6.7-2.3.8-2.5,0,0,0,0,0,0,0,0,0,0,0,0h0s1.3-6,4-8.2c0,0-.2.8.6,2.2.1.4.3.9.6,1.6.8,2,.6,3.3-1.6,4Z"/>
    <path class="cls-7" d="M39.1,41.3s0-.5-.3-1.2.1-.8.6-.4.6,1.1,1,1,.3-.3.7-.4.5-.9.7-.6.3.9.3.9c0,0-.4.6-1,.7s-1.6.2-2.2.5-1.6.7-2.8,1-2.5,0-2.5,0c0,0,1.9-.1,3-.5s1.8-.9,2.5-1.1Z"/>
    <path class="cls-1" d="M35.4,28.8s.5,0,.6-.6.5-.8.9-.5.3,1,.3,1c0,0,0-.7-.5-.7s-.3.8-.7,1-.7-.1-.7-.1Z"/>
    <path class="cls-8" d="M15.9,58c-.3,1-.7,1.4-1.1,1.5-.8.2-1.8-1-3.4-1.6-1.6-.6-2.7-1.2-3.1-2,0,0,2,1.3,3-.3,1-1.6-1-3.5,1.2-4.2s2.4-1.9,1.6-4c-.2-.6-.4-1.1-.6-1.6,0,0,0,.2.1.2.1.2,1.2,1.6,1.4,1.9,1.6,2,1.8,7,.8,10Z"/>
  </g>
  <path class="cls-14" d="M42.9,36.2c4.3-.7,8.3-6.5,8.3-6.5,1.9.6,4.1.9,6.3.9,9,0,16.4-5.1,16.4-11.3s-7.3-11.3-16.4-11.3-16.4,5.1-16.4,11.3,2.4,6.8,6.1,8.8c1.2,4.9-4.4,8.1-4.4,8.1Z"/>
  <g>
    <path class="cls-6" d="M49.4,18.8h2.9v1.4h-2.9v-1.4Z"/>
    <path class="cls-6" d="M56.1,18.8h2.9v1.4h-2.9v-1.4Z"/>
    <path class="cls-6" d="M62.8,18.8h2.9v1.4h-2.9v-1.4Z"/>
  </g>
</svg>