<?xml version="1.0" encoding="UTF-8"?>
<svg id="Livello_1" data-name="Livello 1" xmlns="http://www.w3.org/2000/svg" version="1.1" viewBox="0 0 76.5 76.5">
  <defs>
    <style>
      .cls-1 {
        fill: #baaeb2;
      }

      .cls-1, .cls-2, .cls-3, .cls-4, .cls-5, .cls-6, .cls-7, .cls-8, .cls-9, .cls-10, .cls-11, .cls-12, .cls-13, .cls-14, .cls-15, .cls-16, .cls-17, .cls-18, .cls-19, .cls-20, .cls-21, .cls-22, .cls-23, .cls-24 {
        stroke-width: 0px;
      }

      .cls-2 {
        fill: #efc6b9;
      }

      .cls-3 {
        fill: #6b381b;
      }

      .cls-4 {
        fill: #e89295;
      }

      .cls-5 {
        fill: #352921;
      }

      .cls-6 {
        fill: #fbd4c3;
      }

      .cls-7 {
        fill: #000;
      }

      .cls-8 {
        fill: #9191b7;
      }

      .cls-9 {
        fill: #e5b8a8;
      }

      .cls-10 {
        fill: #b76976;
      }

      .cls-11 {
        fill: #c4676a;
      }

      .cls-12 {
        fill: #c8c2c4;
      }

      .cls-13 {
        fill: #f9f9fb;
      }

      .cls-14 {
        fill: #46382d;
      }

      .cls-15 {
        fill: #3d1f17;
      }

      .cls-16 {
        fill: #42180c;
      }

      .cls-17 {
        fill: #6d6d9b;
      }

      .cls-18 {
        fill: #cea193;
      }

      .cls-19 {
        fill: #f18c9a;
      }

      .cls-20 {
        fill: #fcf5eb;
      }

      .cls-21 {
        fill: #ffea52;
      }

      .cls-22 {
        fill: #fff;
      }

      .cls-23 {
        fill: #b6b6d3;
      }

      .cls-24 {
        fill: #ba9085;
      }
    </style>
  </defs>
  <g>
    <path class="cls-22" d="M59.1,34c-.2,0-.3,0-.4-.2-.1-.2,0-.5,0-.5.4-.5,2-2.6,2.6-2.9.1,0,.3-.1.4-.1.2,0,.3,0,.5.2,0,0,0,0,0,.1.7-.7,1.8-1.7,2.4-1.9.2,0,.4-.1.6-.1.4,0,.8.2.9.6.1.4,0,.7-.3.9-.4.3-4.2,3.1-4.2,3.1,0,0-.2,0-.3,0-.1,0-.3,0-.4-.2,0,0-.1-.2-.1-.4-1.5,1.3-1.7,1.3-1.8,1.3Z"/>
    <g id="Tracciato_28-2" data-name="Tracciato 28-2">
      <path class="cls-11" d="M59.2,33.4c.4-.6,2-2.5,2.5-2.8s.4.3.4.3v.5c0,0,2.1-2.1,2.9-2.5s1.1.4.7.7c-.4.3-4.2,3.1-4.2,3.1,0,0-.2.1,0-.6s0-.4,0-.4c0,0-2.6,2.4-2.2,1.8Z"/>
    </g>
    <path class="cls-22" d="M57.3,30.2c-.1,0-.4,0-.5-.5-.1-.6-.4-3.3-.1-3.9.2-.5.5-.5.6-.5s.1,0,.2,0c0-1.3.1-3.3.4-3.9.2-.5.6-.6.7-.6.3,0,.5.1.7.4.3.3.5.9.5,1.2,0,.5-.9,5.2-.9,5.2,0,.2-.3.4-.5.4s-.3,0-.4-.2c-.2,2.3-.3,2.3-.7,2.3Z"/>
    <g id="Tracciato_29-2" data-name="Tracciato 29-2">
      <path class="cls-11" d="M57.2,29.7c-.1-.8-.3-3.2-.2-3.7s.5,0,.5,0l.3.4s0-3.9.4-4.7c.3-.8,1.1.4,1.1.9s-.9,5.2-.9,5.2c0,0,0,.2-.5-.4s-.3-.3-.3-.3c0,0-.2,3.5-.4,2.8Z"/>
    </g>
    <path class="cls-22" d="M58.6,31.8c-.1,0-.3,0-.3-.2-.1-.2,0-.4,0-.5.2-.8,1.2-4,1.8-4.6.2-.2.4-.3.6-.3s.4.1.5.3c.7-1.4,1.9-3.9,2.5-4.5.2-.2.4-.3.7-.3s.5,0,.7.5c.3.5.3,1.4,0,1.9-.3.5-3.7,5.6-3.7,5.6,0,.1-.3.2-.4.2-.3,0-.5-.3-.6-.6-1.4,2.6-1.5,2.6-1.8,2.6Z"/>
    <g id="Tracciato_30-2" data-name="Tracciato 30-2">
      <path class="cls-11" d="M58.6,31.2c.2-.9,1.3-3.9,1.7-4.4s.6.2.6.2l.2.6s2.1-4.5,2.9-5.3,1.1,1,.8,1.5-3.7,5.6-3.7,5.6c0,0-.2.2-.3-.7s-.3-.5-.3-.5c0,0-2.1,4-1.9,3.1Z"/>
    </g>
  </g>
  <g>
    <path class="cls-22" d="M21,21.3c.2,0,.3,0,.4-.2.1-.2,0-.5,0-.5-.3-.5-2-2.7-2.6-3-.1,0-.3-.1-.4-.1-.2,0-.3,0-.5.2,0,0,0,0,0,.1-.7-.7-1.8-1.7-2.4-2-.2,0-.4-.1-.6-.1-.4,0-.8.2-.9.6-.1.3,0,.7.3,1,.4.3,4.2,3.2,4.2,3.2,0,0,.2,0,.3,0,.1,0,.3,0,.4-.2,0,0,.1-.2.1-.4,1.5,1.4,1.6,1.4,1.8,1.4Z"/>
    <g id="Tracciato_28-2-2" data-name="Tracciato 28-2">
      <path class="cls-11" d="M21,20.8c-.4-.6-1.9-2.6-2.4-2.8s-.4.3-.4.3v.5s-2.1-2.2-2.9-2.6-1.1.4-.8.7c.4.3,4.2,3.2,4.2,3.2,0,0,.2.1,0-.6s0-.4,0-.4c0,0,2.6,2.4,2.2,1.8Z"/>
    </g>
    <path class="cls-22" d="M23,17.6c.1,0,.4,0,.5-.5.1-.6.4-3.3.2-3.9-.2-.5-.5-.5-.6-.5s-.1,0-.2,0c0-1.3,0-3.3-.3-3.9-.2-.5-.5-.6-.7-.6-.3,0-.5.1-.7.4-.3.3-.5.8-.5,1.2,0,.5.8,5.2.8,5.2,0,.2.3.4.5.4s.3,0,.4-.2c.1,2.3.2,2.3.6,2.3Z"/>
    <g id="Tracciato_29-2-2" data-name="Tracciato 29-2">
      <path class="cls-11" d="M23.1,17.1c.1-.7.4-3.2.2-3.7s-.5,0-.5,0l-.3.4s0-3.9-.3-4.8c-.3-.8-1.1.4-1.1.8s.8,5.2.8,5.2c0,0,0,.2.5-.4s.3-.3.3-.3c0,0,.2,3.6.3,2.8Z"/>
    </g>
    <path class="cls-22" d="M21.6,19.2c.1,0,.3,0,.4-.2.1-.2.1-.4,0-.5-.2-.8-1.2-4-1.7-4.6-.2-.2-.4-.3-.6-.3s-.4,0-.5.2c-.6-1.4-1.8-3.9-2.4-4.5-.2-.2-.4-.3-.7-.3s-.5,0-.7.5c-.3.5-.4,1.4,0,1.9.3.5,3.6,5.6,3.6,5.6,0,.1.3.2.4.2.3,0,.5-.3.6-.6,1.3,2.6,1.5,2.6,1.7,2.6Z"/>
    <g id="Tracciato_30-2-2" data-name="Tracciato 30-2">
      <path class="cls-11" d="M21.6,18.6c-.2-.9-1.2-3.9-1.6-4.4s-.6.2-.6.2l-.2.6s-2-4.6-2.7-5.4-1.1,1-.8,1.5,3.6,5.6,3.6,5.6c0,0,.2.2.4-.7s.3-.5.3-.5c0,0,2,4,1.8,3.1Z"/>
    </g>
  </g>
  <g>
    <polygon class="cls-22" points="54.4 13.4 51.6 12.4 54.4 11.3 55.4 8.6 56.4 11.3 59.2 12.4 56.4 13.4 55.4 16.2 54.4 13.4"/>
    <polygon class="cls-21" points="54.6 11.6 55.4 9.5 56.1 11.6 58.2 12.4 56.1 13.1 55.4 15.2 54.6 13.1 52.6 12.4 54.6 11.6"/>
  </g>
  <g>
    <polygon class="cls-22" points="16.2 28.6 13.5 27.5 16.2 26.5 17.3 23.8 18.3 26.5 21 27.5 18.3 28.6 17.3 31.3 16.2 28.6"/>
    <polygon class="cls-21" points="16.6 26.9 17.3 25.1 17.9 26.9 19.7 27.5 17.9 28.2 17.3 30 16.6 28.2 14.8 27.5 16.6 26.9"/>
  </g>
  <g>
    <polygon class="cls-22" points="11 32.7 9 32 11 31.3 11.7 29.3 12.4 31.3 14.4 32 12.4 32.7 11.7 34.7 11 32.7"/>
    <polygon class="cls-21" points="11.2 31.5 11.7 30.3 12.2 31.5 13.4 32 12.2 32.5 11.7 33.7 11.2 32.5 10 32 11.2 31.5"/>
  </g>
  <path class="cls-22" d="M25.2,70.8l-.2-1.2c0,0-.3-2.4-.6-4.7,0-.1,0-.3,0-.5-.2,0-.4-.1-.7-.2-1.5-.6-2.4-1.3-3.1-2.2h0s0-.1,0-.1c-.5-.6-.9-1.2-1.2-1.9-.3-.5-1.6-2.6-1.5-5.8,0-1.4,0-3.8-.1-5.7-.4-.3-.6-.6-.8-.9h0s-.2-.5-.2-.5h0c-.3-.8-.8-2.8-.7-6.6.2-4.9,3-6,6.9-7.5.6-.2,1.1-.4,1.8-.7.5-.2,1.1-.4,1.6-.6-.1-1-.2-2,0-2.8,0-.1,0-.4.1-.8-.6-2.5-1-6.1.2-9.2,1.9-5.2,5.5-10.7,9.7-10.7s1.4.2,2.1.5c.3,0,.6,0,1.1,0,1.5,0,3.6.4,5.6,2.5,1.6,1.8,6.7,7.2,8.2,16,.5,3.2,1.4,5.1,2.2,7.2,1.1,2.6,2.2,5.3,2.6,10.2.7,8.8-3.6,14.4-3.8,14.6l-.8-.4c-.3.8-1.1,1.1-1.8,1.1s-.5,0-.7,0l5.3,11h-30.9Z"/>
  <g>
    <path class="cls-1" d="M18.9,43.7s-1.4,2-.9,3,2.4,1.2,2.4,1.2c0,0,.5-6.2-1.5-4.3Z"/>
    <path class="cls-18" d="M43.7,40c-.2,1-.5,2.3-.9,3.7,0,0,0,0,0,0,0,0,0,0,0,0,0,0,0,.1,0,.2,0,0,0,0,0,0-.2.7-.4,1.5-.7,2.3-1.4,4.6-3.1,9.4-3.1,9.4,0,0-.2-.1-.6-.4-1.2-.8-3.9-2.8-5.4-5.8.2-.3.3-.5.4-.6,1.1-.7,3.4-.8,6.4-2.2.1-.3.2-.5.3-.8-1.6.4-3.9.6-5-.8-1.6-2.2-1.7-13-1.7-13,0,0-.2,0-.7,0,0,1,.2,2.1.1,2.6,0,.9-.9,1.6-.9,1.6-.1.4-.3.8-.5,1.5-.2.9-.5,1.6-.7,2.7-.2-.7-.4-1.4-.5-2.1-.5-2.1-1-4-1.1-5.1h0c0-.3,0-.6,0-.8,0-.2.1-.3.3-.3.2,0,.5-.1.9-.2h0c.7-.1,1.6-.2,2.4-.2.9,0,1.6,0,1.6,0l6.6.4s1,1.1,1.8,2.8c.7,1.4,1.2,3.2.9,5.2Z"/>
    <path class="cls-6" d="M43.7,29.4c-.5.9-1,1.1-1.4,1.4-.3.3-.6.6-.7,1.3-.3,1.6-1.2,4.4-2.2,4.9,0,0,0,0,0,0,0,0,0,0,0,0-.7.4-1.6.4-2.7-.5,0,0,0,0-.1-.1,0,0-.1,0-.2-.1h0c-.8-.9-1.5-3.6-1.8-5.7-.2-2-1.7-4.3-2.2-6.2,0-.3-.1-.5-.1-.8,0-.3,0-.5,0-.8,0-.3.2-.6.3-1,.5-1.4,1.5-2.6,1.6-3.2,0-.4.3-.9.5-1.5.3-.6.6-1.2.6-1.3h0c1.3-1.2,2.3-1.4,2.3-1.4.5,0,1-.1,1.5,0,.2,0,.4,0,.6,0,0,0,2.6,1.3,3.1,3,.5,1.7-.1-.3-3.1-.3s2.6.5,3.7,2c1,1.5.2,3.4.6,4.3.1.3.2.8.3,1.4.1,1.4,0,3.4-.6,4.5Z"/>
    <path class="cls-14" d="M39.1,14.5c-.1.6-.4,1-1.2,1.1-1.3.2-2.4.6-3.4,1.6-.5.6-1,1.3-1.4,2.2-.7.3-1,.9-1,.9,0,0,.4-.3.8-.5-.2.6-.4,1.2-.6,2-.1.5-.2,1.1-.4,1.7-1,6.1.7,6.1,1,7.2,0,.2.1.7.2,1.2h0c.1,1.8,0,4.8-1.4,4.2-2-.8-6.5-10.7-4.1-16.9,2.3-6.2,6.6-11.6,10.2-9.2,0,0,1.4,2.7,1.2,4.3Z"/>
    <path class="cls-23" d="M25.5,63.1h0c-.7-2.9-2.4-7.4-2.4-7.4,0,0,2.9-3.3,5-6.3h0c.6-.9,1.1-1.7,1.5-2.4.4-.8.7-1.5.7-2,0-.9-.3-2.3-.7-3.5-.6-1.9-1.2-3.4-.9-1.9.3,1.5.4,3.3.4,4.4,0,.7,0,1.2,0,1.2,0,0,0-.2-.1-.6-.2-.8-.6-2.4-1.4-3.9-.2-.5-.6-1-1.1-1.4-1.9-1.9-5-3.4-2.4-1.3,1,.8,1.7,1.6,2.2,2.4,1.3,1.8,1.5,3.5,1.6,3.6,0,0-.5-.7-1.9-1.7-.3-.2-.7-.5-1.2-.8-2.5-1.6-4.8-1.4-4.8-1.4,0,0,2,.3,4.7,2,.4.2.8.5,1.1.8,1.3,1.1,2.3,2.5,2.8,3.3h0c0,0,0,.1.1.2.2.3.3.4.3.5,0,0,0,0,0,0,0,0-.2-.1-.5-.2-.6-.2-1.6-.6-2.6-.7,0,0-.1,0-.2,0-.1,0-.3,0-.4,0-1.5,0-2.8-.5-4.7-1.2-.8-.3-1.4,0-1.9.4-.7.6-.9,1.7-.9,1.7,0,0-.9-1.7-.7-6.2.2-4.5,2.8-4.9,7.8-6.9.9-.4,1.8-.7,2.6-.9.4-.1.8-.2,1.1-.3.1,0,.3,0,.4,0,.5,0,.9-.2,1.3-.2.3,0,.6,0,.9,0h0c.6,0,1,0,1.4,0,0,1,.2,2.1.1,2.6,0,.9-.9,1.6-.9,1.6-.1.4-.3.8-.5,1.5-.2.9-.5,1.6-.7,2.7s-.3,2.5,0,4.7c.5,4.4-2.4,15.1-3.2,16.5-.6,1-.9,1.7-2,1.6Z"/>
    <path class="cls-23" d="M53.8,69.3h-27.4s-.3-2.3-.6-4.6c0,0,1.7.5,2.7-2.2.9-2.4,3.1-10.6,4.4-12.9.2-.3.3-.5.4-.6,1.1-.7,3.4-.8,6.4-2.2.1-.3.2-.5.3-.8h0c.9-.2,1.5-.4,1.5-.4h0s.5.8.5.8l2.3,4.2,3.4,6.1,6.1,12.6Z"/>
    <path class="cls-17" d="M50.8,50l-6.7-3.2.3-11s.2-1.3,2.9,0,4.2,1.4,4.4,2.6-.8,11.5-.8,11.5Z"/>
    <path class="cls-9" d="M51.6,48.4s0,.1-.1.4c-.4,1.2-1.8,5-2.6,7.9-.2.7-.4,1.4-.6,2-.8,3.1-2.6,4.5-2.6,4.5,0,0-3.4-15.1-.9-15.7.2,0,.3,0,.5,0,0,0,.1,0,.2,0,.2,0,.5,0,.7,0h0c1.8,0,3.8.5,4.9.8.4.1.7.2.7.2Z"/>
    <path class="cls-8" d="M53.8,42.5c0,1.7-1.3,5.4-1.2,6.2,0,.3-.4.2-1.1,0-.2,0-.4-.1-.6-.2-1.2-.4-2.9-1-4.8-1.2h0s-.4-1.5,1-1.7c1.4-.2,2.8.3,3.3.5.5.2-.7-1-2.9-.9-2.2,0,1.7-3.1,3.2-3.4,1.5-.3-.6-.5-3,1.4s1.2-3.3,2.2-3.8c1-.5-1.2,0-2.8,2.4-1.6,2.4-.8-1.4.6-2.8,1.4-1.3,2.6-1.5,2.6-1.5,0,0-3.1-1.5-4.7-2.4-.2,0-.3-.2-.4-.2,0,0,0,0-.1,0,0,0,0,0,.1,0,.8.2,5.2,1.5,6.7,3,1.7,1.6,2,2.9,1.9,4.6Z"/>
    <path class="cls-24" d="M46.6,28.9s-.4,5.4-2.2,6.9c-1.8,1.5-3.4,2.1-3.4,2.1,0,0-.7-.9-.4-1.8.2-.9,1.6-4.5,1.6-4.5l.3-.8c.4-.3.9-.5,1.4-1.4.6-1.1.7-3.1.6-4.5l.5-1.5s.5-.8,1.1-.8c.6,0,.4,1.1.4,1.3,0,.3.3,5,.3,5Z"/>
    <path class="cls-16" d="M36.6,28.9s-1.5.5-1.6,1.1.2,1.9.8,2.7,2.8,1,2.9,1,2.2-1.6,2.3-1.7,1.1-2.8.3-3.2-4.6,0-4.6,0Z"/>
    <path class="cls-9" d="M34.6,17.2c-.2.5-.5,1.1-.5,1.5,0,.6-1.1,1.8-1.6,3.2.5-2.2,1.2-3.7,2.1-4.7Z"/>
    <path class="cls-6" d="M33.3,32h0c-.3-.5-.5-1.1-.8-1.6,0-.4,0-.6,0-.6l-.2-5.3c.5,1.8,2,4.2,2.2,6.2.2,2.1.9,4.8,1.8,5.7-.9-.9-2-2.4-2.9-4.2Z"/>
    <path class="cls-9" d="M44.9,27.2c-.2,2.3-3.1,7.3-4,8.5-.4.5-.9,1.1-1.5,1.4,0,0,0,0,0,0,1-.6,1.9-3.3,2.2-4.9.3-1.6,1.3-1.1,2.1-2.7.8-1.6.8-5,.3-5.9-.5-.9.4-2.9-.6-4.3-1-1.5-6.7-2-3.7-2s3.7,2,3.1.3c-.5-1.7-3.1-3-3.1-3,1.9.3,3.6,1.3,4.5,3.4,1.2,2.9.9,7,.7,9.3Z"/>
    <path class="cls-20" d="M35.3,31.5s-.1-.5.2-.7.3,0,.4.2,1,1.9,2.2,2,2.1-2,2.1-2c0,0,.5-.2.6.5s-.9,2-1.6,2.3-2,.3-2.7-.1-1.3-2.3-1.3-2.3Z"/>
    <path class="cls-19" d="M35,30s0,1.6,1,2.8,1,1.2,2.5,1,2.9-2.9,2.9-4.3h.2c0,0-.4,5.2-3.1,5.1s-3.1-1-3.6-4.4v-.2Z"/>
    <path class="cls-10" d="M35.6,29.6s0,1.4.6,2.6.7,1.4,1.4,1.4,1.9.2,2.2-.5.7-2.7.4-3.5-4.6-1-4.6,0Z"/>
    <path class="cls-20" d="M35.4,29.7s0,.2.2.1.2-.1.3,0,.3,0,.3,0c0,0,0,.2.3.1s.2-.2.3,0,.4,0,.4,0c0,0,0,.2.4.2,0,0,.2,0,.3-.1,0,0,0,.2.3.3s.5,0,.5-.2c0,0,0,.3.5.2s.4-.4.4-.4c0,0,0,.2.3.2s.3-.3.3-.3c0,0,0,.1.2.1s.2-.2.2-.2c0,0,.1.1.2.1s.4-.2.5-.4,0-.4,0-.4c0,0-.4-.3-1.1-.3s-4,0-4.6.9Z"/>
    <path class="cls-4" d="M34.9,30.2s.1-1.1,1.4-1.5,1.3-.5,1.7-.3.7-.1,1.6,0,1.9.3,2,.9,0,.5-.2.2-.4-.7-2.1-.4-3.6-.2-4.4,1.1Z"/>
    <path class="cls-9" d="M36.6,27s-.7,0-.7-.6.5-.7.5-.7c0,0-.5,0-1.5,1s-.5,2.3-.5,2.3c0,0-.2-1,.4-1.7s.9-1,1-.7.6.3.9.3Z"/>
    <path class="cls-9" d="M40.6,26.8s.6-.4.3-.7-.7-.3-1.1-.2-.4,0-.4-.7,0-1.6,0-1.6c0,0,.3.8.3,1.3s0,.7.6.7,1.1.2,1,.8-.5.5-.5.5Z"/>
    <path class="cls-9" d="M41.8,26.3s.7.5.7,1.1-.1.7,0,1.5-.6,1.9-.6,1.9c0,0,.6-.7.7-1.8s0-.9,0-1.9-1.3-1.2-.9-.8Z"/>
    <path class="cls-3" d="M40.3,26.5s-.5-.2-.9.1-.4.4-.2.4.2-.2.5-.1.8-.2.6-.3Z"/>
    <path class="cls-3" d="M38.2,26.8s-.7-.5-1.4-.1c0,0-.2,0,.2.1s.7-.1,1.1,0Z"/>
    <path class="cls-14" d="M40.1,20.2s-.4.4-.1.6,2.2-.7,3-.6,1.2.6,1.3,1,.2-.5-.5-1-2.1-1-3.7,0Z"/>
    <path class="cls-14" d="M33.2,19.5c0,.1-.1.3-.2.5-.4.2-.8.4-.8.5,0,0,.3-.7,1-.9Z"/>
    <path class="cls-14" d="M36.6,20.6c-.5,0-1.3-.3-2.3-.7-.4-.2-.9,0-1.2,0,0-.2.1-.3.2-.5,0,0,0,0,0,0,.8-.3,2.1.2,2.9.3.9.1.9.7.4.8Z"/>
    <g>
      <path class="cls-9" d="M40.5,21.9s.7-.7,1.6-.6,1.3.6,1.3.8.1.5.6.6.6.4.6.4c0,0-.5-.4-1.1-.2s-1.6.3-2.2,0,0-.8,0-.8c0,0,1-.3,1.3-.1s.2-.3-.3-.4-1,0-1.7.4Z"/>
      <path class="cls-12" d="M40.3,22.7s.4-.2.7-.5.9-.5,1.4-.2.6.4.6.6-.7.4-1.4.4-.9,0-1.1,0-.4-.1-.2-.2Z"/>
      <path class="cls-3" d="M41.4,22.1s-.2.4.2.7.8,0,.9-.3,0-.4,0-.4c0,0-.5-.2-1.1,0Z"/>
      <circle class="cls-7" cx="41.9" cy="22.4" r=".2"/>
      <circle class="cls-22" cx="41.7" cy="22.3" r="0"/>
      <path class="cls-15" d="M41.2,22.9s.8,0,1.3-.2.3-.3.7-.2.5.3.5.3c0,0-.3-.3-.5-.2s-.6.5-2,.3Z"/>
      <path class="cls-15" d="M40.5,22.6s.3-.4.5-.5.5-.1.6-.5,0-.2,0,0,.4,0,.5,0,.3-.3.3-.3c0,0,0,.2-.2.3s.1,0,.3,0,.4-.2.4-.2c0,0-.2.3-.3.3s.2,0,.3.1.4,0,.4,0c0,0-.2.2-.3.2s.2.3.5.3-.3.2-.6.1,0-.6-1.2-.5c0,0-.5,0-1.3.6Z"/>
    </g>
    <path class="cls-6" d="M45.2,43.3s.2,4.5.2,5.9.4,2.5,1.2,5,.7,5.1.5,5.9-.5,2.8-2.9,4.3-4.6-7.1-2.1-13.7,3.3-7.5,3.3-7.5Z"/>
    <path class="cls-8" d="M30.3,45c0,.5-.2,1.2-.7,2l-.5-.3s0,0,0,0c0-.2-.1-.3-.3-.5-.6-.9-2-3.1-4.1-4.3-2.7-1.6-4.7-2-4.7-2,0,0,2.2-.2,4.8,1.4,2.5,1.6,3.1,2.5,3.1,2.5,0,0-.5-3.4-3.8-6-3.3-2.6,2.4.5,3.5,2.8,1.1,2.3,1.5,4.6,1.5,4.6,0,0,0-3.2-.5-5.6-.5-2.4,1.5,2.9,1.6,5.4Z"/>
    <path class="cls-9" d="M26,45.9c-.3,3.8-5.6,13.4-5.6,13.4,0,0-1.4-1.9-1.3-5.1,0-2.3-.2-6.7-.3-9.1.4-.4,1-.7,1.9-.4,2.1.7,3.4,1.2,5.1,1.2s.1,0,.2,0Z"/>
    <path class="cls-18" d="M32.8,34.6c0,.9-.9,1.6-.9,1.6,0,0-.5-.4-1.2-1.1-.5-.5-1-1.1-1.6-1.9,0,0,0,0,0,0h0c-.1-.2-.2-.4-.3-.7-.7-2.3.1-6.4.1-6.4,0,0,0-.2.2-.4.4-1.1,1.5-4.1,1.5-4.3,0-.3.2-1.4.7-1.2.2,0,.3.2.4.3.3.3.4.8.4.8v1.7c0,0,.1,1.6.1,1.6l.2,5.3s0,.2,0,.6c0,.3,0,.8.1,1.3,0,0,0,.1,0,.2,0,0,0,.1,0,.2,0,1,.2,2.1.1,2.6Z"/>
    <path class="cls-9" d="M26.3,40.3s-1.4,4.3-1.8,5.7-1,2.3-2.5,4.5-2.1,4.7-2.1,5.6-.3,2.8,1.6,5,6.4-5.6,5.8-12.6c-.6-7-1.1-8.1-1.1-8.1Z"/>
    <path class="cls-6" d="M31.9,36.2c-.1.4-.3.8-.5,1.5-.2.9-.5,1.6-.7,2.7s-.3,2.5,0,4.7c.5,4.4-2.4,15.1-3.2,16.5-.6,1-.9,1.7-2,1.6h0c-.4,0-.8-.1-1.3-.4-2.1-.8-2.8-1.8-3.2-3.2-.3-1.4,2.9-3.9,3.4-6.9.2-1.2.6-4,1-6.9.2-1,.3-2.1.5-3.1,0-.2,0-.4,0-.6.1-.7.2-1.3.3-1.9,0-.4.1-.7.2-1,.2-1.1.4-1.9.5-2.1.6-1,1.2-1.5.9-3.3,0-.4-.1-.8-.2-1.1-.3-1.4-.4-2.5-.2-3.4.3-1.1.3-4.2.3-4.8,0-.5,0-.9,0-.9,0,0,.4-.1.6,0,.3.2.5.5.5,1.2,0,.3,0,.5.1.8,0,.4.2.6.2.6,0,0,.8-2,1-2.6.2-.6.6-2.1.6-2.2,0,0,.1-.3.6-.1.5.2.5.6.3,1.3-.2.7-.6,3.9-1.1,4.6-.5.7-1.1,1.1-1.1,1.1,0,0,.6,1.4.3,2.3,0,.3.1.7.4,1.1h0c0,0,.1.2.2.3.2.3.4.6.7.9.4.5.8,1,.9,1.5.2.7,0,1.1-.1,1.7Z"/>
    <path class="cls-5" d="M52.9,58.3c0-.2,1.5-4.3.9-6.4-.6-2.1-1.8,4.3-1.8,5.8s-1.4.2-2.5.6c-.5.2-.6-.7-.6-1.6.9-2.9,2.2-6.7,2.6-7.9.7.2,1.1.3,1.1,0,0-.8,1.2-4.5,1.2-6.2,0-1.7-.2-3-1.9-4.6-1.5-1.5-5.9-2.8-6.7-3,.8-8.4.5-19.2-6.3-19.8,0,0-1.8-3.5-.9-5,0,0,3.1-1,5.8,1.9,2.7,2.9,6.5,7.8,7.8,15.3,1.3,7.5,4.1,8.8,4.8,17.3.6,8.3-3.3,13.4-3.5,13.6Z"/>
    <g>
      <path class="cls-9" d="M36.3,21.7s-.7-.6-1.6-.4-1.2.7-1.2,1,0,.5-.5.6-.6.5-.6.5c0,0,.4-.5,1.1-.4s1.7,0,2.2-.2,0-.8,0-.8c0,0-1-.2-1.3,0s-.2-.3.2-.4,1-.1,1.7.1Z"/>
      <path class="cls-12" d="M36.5,22.4s-.5-.2-.8-.4-1-.4-1.5,0-.5.5-.5.6.8.3,1.4.2.9-.2,1.1-.2.4-.2.2-.2Z"/>
      <path class="cls-3" d="M35.7,22.1s.2.5-.3.6-.8,0-.8-.4,0-.4,0-.4c0,0,.5-.1,1.1.2Z"/>
      <circle class="cls-7" cx="35.2" cy="22.4" r=".2"/>
      <circle class="cls-22" cx="35.4" cy="22.2" r="0"/>
      <path class="cls-15" d="M35.7,22.8s-.8.2-1.3,0-.3-.2-.7-.1-.4.4-.4.4c0,0,.2-.3.4-.3s.7.4,2,0Z"/>
      <path class="cls-15" d="M36.3,22.3s-.3-.3-.6-.4-.6,0-.6-.4,0-.2,0,0-.3,0-.5.1-.3-.2-.3-.2c0,0,0,.2.2.3s-.1,0-.3.1-.4-.1-.4-.1c0,0,.2.3.4.3s-.2,0-.3.2-.4,0-.4,0c0,0,.2.1.4.1s-.1.3-.5.3.4.1.6,0,0-.6,1.1-.7c0,0,.5,0,1.4.4Z"/>
    </g>
    <path class="cls-2" d="M48.3,26.9s0,.3-.2.8c-.2.5-1,3.5-1,4.7s-.8,2.6-1.6,4.3c-.8,1.7-.4,2.3,0,3.4.2.7-.5,6.1-1,10.4-.3,2.2-.6,4.2-.7,5.2-.3,3,2.1,6.3,1.4,7.5-.7,1.2-1.6,2-3.9,2.2-2.3.2-2.5-.6-2.8-2.1-.2-.8-.3-4.3,0-8.1.2-3.3.6-6.7,1.4-8.6.1-.3.2-.5.3-.8h0c.8-2.3,1-3.6,1-4.7,0-.6,0-1.2,0-1.8,0-1.8-.4-2.1.3-3.2.3-.5.9-.9,1.5-1.4.8-.6,1.6-1.2,1.6-1.7,0-.9.9-2.1.9-2.1,0,0-.5-.6-.8-1.4-.3-.8.2-4,.2-4.7s.1-1.1.6-1.2c.5,0,.6.2.6.3s0,1.6,0,2.2c0,.6.2,2.7.2,2.7,0,0,.5-.7.7-1.3.2-.6.5-.9.8-1,.3,0,.6.2.6.2Z"/>
    <path class="cls-22" d="M45.9,24.1s-.4,0-.4.2-.2,1,0,.9.3,0,.4-.2.2-1.2,0-1Z"/>
    <path class="cls-22" d="M47.7,28s-.1-.9.2-1h.4c0,0,0,.8-.3,1s-.4.2-.3,0Z"/>
    <path class="cls-22" d="M27.8,23.6s.4,0,.3.3-.2.9-.2.9h-.2s-.1-.8,0-1.2Z"/>
    <path class="cls-22" d="M30.6,22.5s.2-1.2.4-1.2.3.4.3.4l-.4.9s-.2.1-.4,0Z"/>
    <path class="cls-22" d="M30.6,21.3s0-1.6.4-1.4l.4.2-.6,1.2h-.2Z"/>
    <path class="cls-6" d="M32.5,21.9s-1.3,3.1-.8,5.6,1.7,4.5,1.7,4.5c0,0-1.2-7.6-.8-10.1Z"/>
    <g>
      <path class="cls-9" d="M40.5,21.9s.7-.7,1.6-.6,1.3.6,1.3.8.1.5.6.6.6.4.6.4c0,0-.5-.4-1.1-.2s-1.6.3-2.2,0,0-.8,0-.8c0,0,1-.3,1.3-.1s.2-.3-.3-.4-1,0-1.7.4Z"/>
      <path class="cls-12" d="M40.3,22.7s.4-.2.7-.5.9-.5,1.4-.2.6.4.6.6-.7.4-1.4.4-.9,0-1.1,0-.4-.1-.2-.2Z"/>
      <path class="cls-3" d="M41.4,22.1s-.2.4.2.7.8,0,.9-.3,0-.4,0-.4c0,0-.5-.2-1.1,0Z"/>
      <circle class="cls-7" cx="41.9" cy="22.4" r=".2"/>
      <circle class="cls-22" cx="41.7" cy="22.3" r="0"/>
      <path class="cls-15" d="M41.2,22.9s.8,0,1.3-.2.3-.3.7-.2.5.3.5.3c0,0-.3-.3-.5-.2s-.6.5-2,.3Z"/>
      <path class="cls-15" d="M40.5,22.6s.3-.4.5-.5.5-.1.6-.5,0-.2,0,0,.4,0,.5,0,.3-.3.3-.3c0,0,0,.2-.2.3s.1,0,.3,0,.4-.2.4-.2c0,0-.2.3-.3.3s.2,0,.3.1.4,0,.4,0c0,0-.2.2-.3.2s.2.3.5.3-.3.2-.6.1,0-.6-1.2-.5c0,0-.5,0-1.3.6Z"/>
    </g>
    <path class="cls-8" d="M32.9,49.6c-1.3,2.4-3.5,10.6-4.4,12.9-1,2.7-2.7,2.2-2.7,2.2,0-.4-.1-.9-.3-1.5h0c1,0,1.4-.6,2-1.7.8-1.4,3.7-12.1,3.2-16.5-.3-2.2-.2-3.6,0-4.7.5,2,.9,4,1.2,5.9.1,1.2.5,2.3,1,3.3Z"/>
    <path class="cls-13" d="M25.5,63.2c.2.6.3,1.1.3,1.5l-.3-1.5Z"/>
    <path class="cls-8" d="M40,45.9c0,.2-.2.5-.3.8-2.9,1.5-5.3,1.5-6.4,2.2-.1,0-.3.3-.4.6-.5-1-.9-2.1-1-3.3-.2-1.9-.7-4-1.2-5.9.2-1.1.5-1.8.7-2.7.2-.7.3-1.1.5-1.5,0,0,.9-.7.9-1.6,0-.4,0-1.5-.1-2.6.4,0,.7,0,.7,0,0,0,0,10.8,1.7,13,1,1.4,3.4,1.2,5,.8Z"/>
  </g>
</svg>