<?xml version="1.0" encoding="UTF-8"?>
<svg id="Livello_1" data-name="Livello 1" xmlns="http://www.w3.org/2000/svg" version="1.1" viewBox="0 0 56.7 56.7">
  <defs>
    <style>
      .cls-1 {
        fill: #6a2800;
      }

      .cls-1, .cls-2, .cls-3, .cls-4, .cls-5, .cls-6, .cls-7, .cls-8, .cls-9, .cls-10, .cls-11, .cls-12, .cls-13, .cls-14, .cls-15, .cls-16, .cls-17, .cls-18, .cls-19, .cls-20, .cls-21, .cls-22, .cls-23, .cls-24, .cls-25 {
        stroke-width: 0px;
      }

      .cls-2 {
        fill: #9e633b;
      }

      .cls-3 {
        fill: #eae6df;
      }

      .cls-4 {
        fill: #6d4626;
      }

      .cls-5 {
        fill: #4f2b10;
      }

      .cls-6 {
        fill: #424445;
      }

      .cls-7 {
        fill: #b77641;
      }

      .cls-8 {
        fill: #ba7e4d;
      }

      .cls-9 {
        fill: #d6e5e7;
      }

      .cls-10 {
        fill: #a8654e;
      }

      .cls-11 {
        fill: #6f4218;
      }

      .cls-12 {
        fill: #704217;
      }

      .cls-13 {
        fill: #e3c4b9;
      }

      .cls-14 {
        fill: #7b1317;
      }

      .cls-15 {
        fill: #986435;
      }

      .cls-16 {
        fill: #5c3310;
      }

      .cls-17 {
        fill: #cc595d;
      }

      .cls-18 {
        fill: #3f220f;
      }

      .cls-19 {
        fill: #905922;
      }

      .cls-20 {
        fill: #8e5935;
      }

      .cls-21 {
        fill: #a0b9ba;
      }

      .cls-22 {
        fill: #101015;
      }

      .cls-23 {
        fill: #724214;
      }

      .cls-24 {
        fill: #744315;
      }

      .cls-25 {
        fill: #fff;
      }
    </style>
  </defs>
  <path class="cls-25" d="M55.6,36.2h0c-.4-1.1-4-5-4.3-5.2-.7-.6-9.4-9.5-10-10.2-.4-.6-1.5-2-1.7-2.4,0-.2,0-.6-.1-1.4v-.2c0-.9-.4-2.7-.5-3.2,0-.1,0-.4,0-.8v-.2c0-.7-.1-1.4-.2-2-.2-1.2-1.2-2.7-1.7-3.4-.2-.7-.3-1.5-.4-1.8,0-.2.2-.4.2-.6.3-.8.7-1.7.4-2.6-.3-.7-.8-1.1-1.4-1.3-1-.3-1.8.4-2.1.6-.7.6-1.9,2.4-2.3,3.1-.2.5-.3,1-.3,1.4-.4.4-.8.8-.9,1-.3.4-.5,1.1-.6,1.9l-1.3,3c-.2.3-.4.5-.6.7h-.1c-.2,0-.4,0-.7,0-.4,0-.8.1-1.3.2-.3,0-.7.1-1,.2-.9.1-3.9,1-5.1,1.6-1.2.6-2,1.7-2.3,2.3,0,.1-.5.8-.9,1.2-.3.3-2.3,1.4-3,1.5-.5,0-.8.2-1.2.3-.3,0-.6.2-1.1.2-1.2.2-2.7.7-3.3.9-.2,0-1.2.4-2.1.7h0c0,0-.1,0-.3.1h-.1c0,.1-.1.1-.2.2h0s-2,.6-2.4.7c-1.1.4-1.5,1.6-1.6,1.9,0,.3,0,.6,0,.8,0,0,0,.3.2.7,0,.4.7,1.9,1.7,2.6,0,0,0,.1,0,.1.2.5.5,1.3,1.1,2.1,1.2,1.6,3.6,2.4,5.4,2.9.5.1,1,.2,1.7.3-1.7,1.2-2.7,2.4-2.9,2.6-.4.5-.4,1-.5,1.6,0,.3,0,.6-.1.8,0,.4-.2.7-.5,1-.6.8-.8,1.9-.6,2.9,0,.6.2,1.1.6,1.5.3.3.8.4,1.2.4h.1c1.1-.1,2.3-1.5,2.5-1.8.1-.2.3-.4.4-.6.7.4,1.9.9,3.2.9s.8,0,1.2-.2l.7-.2c1-.3,1.6-.5,2-.8,0,0,0,0,.1,0,.3,1,1,2.4,1.4,3.1.7,1.5.7,4.7.7,5.8-.2.6-.2,1.1-.2,1.4,0,.2,0,.3,0,.5.1.3.5,1.1,1.3,1.5.3.1.5.2.8.2s.4,0,.6,0h.1c.4-.1.8-.5,1.2-1,.9-.3,2.3-.6,3.9-.9,1.1-.1,4.2.5,6.1,1,.3.4.8.7,1.3.9.2,0,.4,0,.5,0,.5,0,.9-.2,1.4-.5,1-.8,2.1-2.3,2.4-3,.2-.3,1.9-1.4,3.1-1.9l3.5-1.5c.3-.1.6-.4.7-.7.5-.3,1.1-.8,1.3-1.1.1,0,.3,0,.5-.1.3,0,.6-.2.9-.3.7-.3,2-.8,3-2.1.8-1.1,1.9-2.9,2.3-4.2.4-1.3.6-2.3.3-3.4Z"/>
  <g>
    <path class="cls-18" d="M29.7,14v-1.2c0,0,1.5-3.4,1.5-3.4,0,0,0-1,.3-1.3s1.2-1.4,1.4-1.5.4-.4.4-.4l.4,5.9-4.1,2Z"/>
    <path class="cls-8" d="M30.3,13.1s1.4-3.3,1.7-4,.5-1.2.7-1.4,0-1.7.3-2.3,1.4-2.1,1.8-2.5.7-.4.9,0-.8,1.9-.7,2.5.5,2.6.6,3.2,1.2,2.7,1.2,2.7l.6,4.6-.5,5-5.6-.5-.9-7.3Z"/>
    <path class="cls-5" d="M30.4,43.3l-.2,1.5s1.6,2.9,1.8,3.4,1.5,2.3,1.8,2.5,1.1.8,1.2,1.1.8,1.9,1.5,1.3,1.6-1.8,2-2.6,2.9-2.2,3.8-2.6,3.5-1.5,3.5-1.5l.7-1.3-8.3-17.5-1.8-7.7-5.8-3-1.5-.9-2.6,3.9-6.2,1.1-1.1,4.6,3.3,7.1,6.2,6.6,1.7,4Z"/>
    <path class="cls-7" d="M4.4,25.5l.8-1.5s.3-.5.7-.6,4.2-.9,4.2-.9c0,0,2.3-1.2,3.1-.8s3.9,2.5,3.9,2.5l4.9,3.2s1.2.7.9.9-4.3,2-5.5,2.2-3.5.4-4,.6-2.6.3-3.6.3-2.2-.5-2.9-1.1-2.2-1.9-2.4-2.1-.6-2.4,0-2.8Z"/>
    <path class="cls-6" d="M2.6,25.1s.1-.6.5-.7,2.3-.7,2.3-.7c0,0,1,.6.9,1.4s-1.4,2.1-1.4,2.1c0,0-.7.3-1,.3s-1-1.1-1.1-1.6-.2-.8-.2-.8Z"/>
    <path class="cls-22" d="M3,26.2s.4-.4.7-.1.3.6.7.9.6-.2.8-.5.3-1,.6-1,.2.6-.2,1-.9.9-1.4,1-1.3-.9-1.2-1.3Z"/>
    <path class="cls-4" d="M6,23.4s1.9-.6,2.4-.8,1.8-.7,2.9-.8,1.4-.3,2.3-.5,3.4-1.4,3.9-2,1.2-1.5,1.2-1.6.6-1.1,1.6-1.6,3.7-1.3,4.5-1.4,1.7-.3,2.3-.4,1.1,0,1.4-.2,1.2-1.5,1.2-1.5c0,0,.4-.4.8-.1s.8,2,.8,2.6,0,1.7.2,1.9.9,0,1-.2.2-1.5.6-1.4.3.8.6.9,1-.3,1.2,0,.4.5-.1.7-1.4.8-1.5.9-.4.5-.5.7-.2.3-.5,0-.7,0-.8-.1.9,2,1.1,2.3.6-.5,1-.8,1.3-.9,1.7-1.3.9-.7,1-1.6.4-1.3.6-1.8-.2-3.1-.4-4-.4-1.6-.4-1.9-.7-1.8-.5-1.6,1.4,1.7,1.5,2.8.2,2.7.4,3.1.4,2.1.4,2.9,0,1.9.3,2.3,1.5,2.1,1.9,2.7,9.7,10.1,10.2,10.4,3.6,3.9,3.8,4.4,0,1.2-.3,2.4-1.3,2.8-2,3.7-1.7,1.3-2.3,1.5-1.6.4-1.8.7-1,1-1.4,1.1-.6,0-.8,0-1.1-2.4-2.1-2.7-1.5-1.1-1.8-1.8-2.4-5.2-2.9-6.2-2-3.5-2.5-4.4-1.3-5.6-1.5-6.5,0-1.2.2-1.7.8-2.1.3-2.3-1,.2-1.5.7-.7.2-1,.2-1.6-2.3-1.6-2.3c0,0-.2-2.2-.5-2.2s0,2.2,0,2.5.5,3.2.6,3.7-.2,1.3-.8,1.4-2.6,0-3.3-.7-2.6-2.5-3.9-2.2-2,1-2,1.5.7,2.6.7,3.3.3,1.6.3,1.6c0,0-1.3-.5-1.7-.8s-2.7-1.8-3.1-1.4-1.3,1.5-2.1,1.3-1.6-1.1-1.7-2.8-.6-2.1-1.1-2.1-1.5,0-2.3.7-2.5.5-2.4.8,0,.7-.2.6-1.7-.9-1.7-.9Z"/>
    <path class="cls-3" d="M20.9,19.7c.3.3.5.2.6.4s0,0-.2.5-.5.4-.9.4-.8-.7-.8-.7v-.6s.5-.9.7-.9.2,0,.3.1,0,.3.4.7Z"/>
    <path class="cls-15" d="M18,20.5s.2-.7.5-.8,1-.2,1-.2l.3-.6s0-.6.3-.6.4.4.4.6-.5-.2-.7.5,0,.9.2,1.2.9.3.9.3c0,0-.1.4-.3.4s-2.3-.1-2.1-.4.7-.7.4-.7-1,.2-1,.2Z"/>
    <ellipse class="cls-22" cx="20.7" cy="20.1" rx=".3" ry=".5"/>
    <path class="cls-19" d="M24.4,26.1s0-.5.3-.5-.5-1-.1-1.1,2.1,1.2,2.4,1.6.5,1.2.5,1.4,0,.7,0,.9-.2.5-.4.4-.5,0-.5,0c0,0-.5.4-.6,0s-.5-2-.8-2-.8-.6-.8-.6Z"/>
    <path class="cls-16" d="M20.3,39.4l.2.7s2.5-.3,2.9-.9,2.9-3,2.9-3l-1.3-3.1-1.6-.5-1.1,2.3-2,4.6Z"/>
    <path class="cls-12" d="M10.9,38.4s.1,2.2.6,2.6,2.3,1.5,3.7,1,2.1-.7,2.4-.8.7-.8,1.3-.7,1.7,0,1.7-.4,1-1.7,1.7-2,1.1-.6,1.2-.9-.2-1.9-.2-1.9l-12.3,3.2Z"/>
    <path class="cls-13" d="M14.7,38.2l-1.3-.5,3.2-1.9,3.7-2.1,1.6-.9h.7s.8,1.4.7,1.9-2.6,2.2-2.6,2.2l-4.1,1.4h-1.9Z"/>
    <path class="cls-14" d="M11.9,38.6s.5-.2.6-.2.1-.4,0-.4,0-1,.3-1,.4.4.5.5.4,0,.5,0,.4-.4.5-.4.4.1.5,0,.3-.5.4-.5.3,0,.3,0c0,0,.3-.4.4-.4s.4,0,.5-.2.2-.3.4-.3.6-.4.8-.5.5-.4.7-.4.6-.8,1-.8.8-.1.8-.1c0,0,0-.8.2-.8s.5,0,.5,0v-1.1l-1.8.7-6,4.1-.8.4-.4,1.7Z"/>
    <path class="cls-17" d="M9.5,37.9s1.1-1.6,3.5-2.9,5.5-3.2,5.5-3.2h2.6s-.5.6-1,.9-3.1,2.1-3.3,2.2-2.8,1.6-2.9,1.7-.5.2-.7.2-.6,0-.8.2-.3.7-.3.9,0,.4-.3.5-.9,1-1.2,1.3-.8,1.8-1.2,2.1-1.2,1.6-1.3,1.2-.3-1.2.2-1.9.6-.9.8-1.7.1-1.7.3-1.8Z"/>
    <path class="cls-3" d="M12.5,38.4s-.2-1.4.3-1.4,1.1.4,1.1.4c0,0,.2-.7.5-.7s.5.2.5.2c0,0,.2-.9.3-.7s.4.2.4.2c0,0,.2-.6.4-.6s.3.1.3.1c0,0,.2-.6.4-.6s.4,0,.4,0c0,0,0-.4.2-.4s.4,0,.4,0c0,0,0-.5.4-.6s.5,0,.5,0c0,0,.6-.4.8-.6s.8-.1.8-.1l.2-.8h.5s0-.7,0-.7c0,0,1.5.6,1.6.6s-.4.5-.6.5-.7.9-.9,1-.7,0-.7,0c0,0-.5,1.1-.8.9s-.6-.3-.6-.3c0,0-.9.3-.7.4s.9.2.6.5-1,.7-1.2.4-.3-.3-.8-.3-.6.3-.4.4,1.1,0,.7.3-1,.4-1.2.3,0-.3-.5-.1-.8.7-.9.7-.3.5-.8.7-1.1.2-1.1.2Z"/>
    <path class="cls-10" d="M22.5,32.3s.4,2.5.2,2.7-.8.2-.8.2c0,0,.3.3,0,.4s-.7-.2-.7,0,0,.5-.3.6-.1-.2-.3,0-.4.5-.6.5-.7-.4-.9-.2-.4.5-.6.5-1.9-.2-2,0-1-.2-1.2,0-.9.5-1,.6-1.6.7-1.6.7c0,0-.3,0-.6.2s0,.4.3.4,2-.2,3.2-.2,3.7-.7,4.8-1,2.1-1.2,2.7-1.6.9-1.8.9-1.8v-1l-1.3-1Z"/>
    <path class="cls-2" d="M4.4,28.1s.2,1,.9,2,2.4,1.8,4.4,2.2,5.2.4,5.6.4,1.8-.4,1.8-.4c0,0,2.9-.4,4.2-.2s2.5,1.9,2.6,2.2,1.1.9,1.2,1.6-.5,1.6-.6,1.8-1.8,1.3-2,1.5.8.2,1,0,2-.7,2.7-.4,2.1,1.3,2.5,1.4.7,0,.6.4-.3,1.1,0,1.9.7,2,.9,2.3.8.3,1.1.7.8.7,1,.6,0-1.3,0-1.6.3-.9,0-1.2-.8-1.3-.8-1.8.4-1.2.3-1.6-1.5-1.3-1.8-1.6-.3-.7-.2-.9-1-1.6-.8-2.3.3-1.1.3-1.2-1.6-1.9-1.8-2.1-.8-.2-1.2-.6-.3-.7-.8-1.3-2-1.9-2.6-1.6-3.7,1-3.7,1l-5,1.1-6.6-.2-3.2-2.2Z"/>
    <path class="cls-14" d="M8.3,42.8s-.3.6-.1.7,1.2-.9,1.3-1.1.4-.6.5-.8.2-.7.3-.9,0-.3,0-.3l-2,2.3Z"/>
    <circle class="cls-1" cx="8.6" cy="26.6" r=".2"/>
    <circle class="cls-1" cx="6.6" cy="27.6" r=".2"/>
    <circle class="cls-1" cx="9.8" cy="26.7" r=".2"/>
    <circle class="cls-1" cx="7.6" cy="27.5" r=".2"/>
    <circle class="cls-1" cx="8.4" cy="28.8" r=".2"/>
    <circle class="cls-1" cx="9.2" cy="29.1" r=".2"/>
    <circle class="cls-1" cx="10.5" cy="26.9" r=".2"/>
    <circle class="cls-1" cx="8.5" cy="27.6" r=".2"/>
    <circle class="cls-1" cx="12" cy="27.5" r=".2"/>
    <circle class="cls-1" cx="9.3" cy="27.9" r=".2"/>
    <circle class="cls-1" cx="12.5" cy="29.1" r=".2"/>
    <circle class="cls-1" cx="11.5" cy="29.2" r=".2"/>
    <circle class="cls-1" cx="10.7" cy="28.6" r=".2"/>
    <circle class="cls-23" cx="9.8" cy="29.9" r=".2"/>
    <circle class="cls-23" cx="8.2" cy="30.3" r=".2"/>
    <circle class="cls-24" cx="11" cy="30.5" r=".2"/>
    <circle class="cls-11" cx="9" cy="30.8" r=".2"/>
    <circle class="cls-11" cx="6.9" cy="28.9" r=".2"/>
    <circle class="cls-11" cx="6.8" cy="30" r=".2"/>
    <circle class="cls-1" cx="10.2" cy="28" r=".2"/>
    <path class="cls-20" d="M32.4,16.4s-.5-1-.2-1.6.5-1.6.7-2.1.8-1.9.9-2.3.1-1.8.5-1.3.2,2.8.4,3.3.8,2.3.9,2.7,0,2.1-.2,2.9-.8.8-1,.8-2-2.5-2-2.5Z"/>
    <g>
      <path class="cls-9" d="M21.2,37.4s-.4.5-.4.7,0,.5,0,.6.4.1.5,0,.1-.5.1-.5l-.3-.9Z"/>
      <path class="cls-21" d="M21.1,37.7s.2-.2.2,0,0,.6,0,.7-.3.1-.4.1-.1.2,0,.3.4,0,.5-.1.2-.4.2-.6-.3-.8-.3-1,0-.2,0-.1-.2.6-.2.6"/>
    </g>
    <path class="cls-9" d="M22.6,33.1s-.4,3.1,0,4.2,0,1.5.2,1.7.6-.8.5-1-1-1.1-.6-2,.7-1.1.3-1.7-.4-1.1-.4-1.1Z"/>
    <path class="cls-21" d="M22.3,38.8s-.4.9-.5,1.1-.2.8,0,1.2.6.7.9.5.6-.8.6-1.2-.7-.9-.8-1.1,0-.7-.2-.5Z"/>
    <path class="cls-9" d="M22.2,39.8s.2-.5.3-.2.2.4.4.7.2.7,0,.8-.7.1-.7,0,0-.8.1-1.3Z"/>
    <g>
      <path class="cls-21" d="M21.8,52.7s0-.8.1-1.2.2-.6.3-.5.2.7.2.9.4,1.2,0,1.4-.7-.6-.7-.6Z"/>
      <path class="cls-9" d="M22.3,52.2v.7s.2.3.2,0-.2-.7-.2-.7Z"/>
      <path class="cls-21" d="M21.7,43.5s-.2,2.1-.1,2.5.1.5.4.4.4-.2.4-.4c0-.8-.6-2.5-.6-2.5Z"/>
      <path class="cls-21" d="M22.4,41.9s-.1,1.8,0,2.1.1.4.3.3.3-.2.3-.4c0-.7-.6-2.1-.6-2.1Z"/>
      <path class="cls-21" d="M22.8,45.5s-.4,3.1,0,4.2,0,1.5.2,1.7.6-.8.5-1-1-1.1-.6-2,.7-1.1.3-1.7-.4-1.1-.4-1.1Z"/>
    </g>
    <g>
      <path class="cls-21" d="M20.7,42.6s-.2-.3-.1-.8.3-.6.3-.8.1-.4.2-.2.2.5.3.7,0,.8,0,1-.5.4-.6.1Z"/>
      <path class="cls-21" d="M21.1,42.3s0-.2,0-.5,0-.5,0-.5,0,.1.2.2.2.5,0,.7-.3.1-.3.1Z"/>
    </g>
  </g>
</svg>