<?xml version="1.0" encoding="UTF-8"?>
<svg id="Livello_1" data-name="Livello 1" xmlns="http://www.w3.org/2000/svg" version="1.1" viewBox="0 0 76.5 76.5">
  <defs>
    <style>
      .cls-1 {
        fill: #ddae9e;
      }

      .cls-1, .cls-2, .cls-3, .cls-4, .cls-5, .cls-6, .cls-7, .cls-8, .cls-9, .cls-10, .cls-11, .cls-12, .cls-13, .cls-14, .cls-15, .cls-16 {
        stroke-width: 0px;
      }

      .cls-2 {
        fill: #bcbbbf;
      }

      .cls-3 {
        fill: #b5393d;
      }

      .cls-3, .cls-4, .cls-15 {
        opacity: .7;
      }

      .cls-4 {
        fill: #c4676a;
      }

      .cls-5 {
        fill: #c59a87;
      }

      .cls-6 {
        fill: #ecebf0;
      }

      .cls-7 {
        fill: #fbd4c3;
      }

      .cls-8 {
        fill: #d3a292;
      }

      .cls-9 {
        fill: #dcd9dd;
      }

      .cls-10 {
        fill: #efada0;
      }

      .cls-11 {
        fill: #969696;
      }

      .cls-12 {
        fill: #d0cfd4;
      }

      .cls-13 {
        fill: #fff;
      }

      .cls-14 {
        fill: #cf7f6c;
      }

      .cls-15 {
        fill: #be5456;
      }

      .cls-16 {
        fill: #efc6bb;
      }
    </style>
  </defs>
  <path class="cls-13" d="M18.7,67.9c-.8,0-1.4-.6-1.4-1.4V11.8c0-.8.6-1.4,1.4-1.4h27.5c0,0,.1,0,.2,0,0,0,9.6,0,9.6,0,.6,0,1.2.4,1.4,1,0,.3.7,2.8.2,4.6,0,.2,0,.3,0,.4,1.2,1,1.7,2.5,1.5,4.1,0,.9-.2,1.5-.3,1.9,0,0,0,0,0,0,0,.4,0,1-.2,2,0,0,0,0,0,0,1.6,4.5,1.4,10.5,1.2,14.9,0,1,0,1.9,0,2.7,0,3.9-.6,7.4-1.1,10.2-.2,1.1-.4,2.1-.5,2.9-.4,2.9-2.5,4.6-5.7,4.6h0c-.3,0-.5,0-.8,0-.6,0-1-.1-1.4-.2-.6,0-1.1-.1-1.7-.1s-1.2,0-2.1.1c-.6,0-1.3,0-2,.1,0,.6,0,1.1,0,1.5.2,1.9-.6,5.2-.7,5.6-.2.6-.7,1.1-1.4,1.1h-23.6Z"/>
  <g>
    <path class="cls-2" d="M36.9,63.7c-4.7,0-9.1,1.2-9.1,1.2,0,0,9.2-.8,10.7-.4,1.5.4,1.4,1.9,1.4,2h-21.2v-8.1s5.2,1.3,10.1,1.3,12.3.5,12.2,2.2c-.1,1.6.6,1.7-4.1,1.8Z"/>
    <path class="cls-11" d="M42.4,66.5h-2.4c0,0,0-1.6-1.4-2-1.5-.5-10.7.4-10.7.4,0,0,4.4-1.1,9.1-1.2,4.7,0,4-.2,4.1-1.8.1-1.6-7.4-2.2-12.2-2.2s-10.1-1.3-10.1-1.3v-2.4l13.1-.2,11.1,1.5s0,2.4.1,4.1c.2,1.7-.7,5.1-.7,5.1Z"/>
    <polygon class="cls-2" points="31.8 55.9 18.7 56.1 18.7 54.2 31.8 55.9"/>
    <polygon class="cls-9" points="18.7 11.8 18.7 51.6 43.6 49.7 46.2 11.8 18.7 11.8"/>
    <path class="cls-5" d="M18.7,52.3v5.1s8.3.7,13,.9c4.6.1,11.5.3,14.5,0s3.3,0,5.5.2c2.2.2,4.6-.5,4.9-3.4.3-2.9,1.5-7.6,1.6-12.9s1.1-15.4-2.7-20.1-4.8,10.7-4.9,14.6-2.5,5.9-9.6,6.9-22.3,8.7-22.3,8.7Z"/>
    <path class="cls-16" d="M55.5,37.8c0,2.2-.1,4.1,0,5,.2,2.7,1.6,8.4-2.7,10.3-4.4,1.9-12.9-1.6-18.3-1.2-5.4.4-15.6.5-15.6.5v-8.7s13.9-2.4,16.1-2.4c.2,0,.5,0,.8,0,1.1,0,2.5-.3,3.7-.5,1.5-.2,2.7-.5,2.7-.5,0,0,2.2-4.4,4.3-5.1.3-.1.4-.5.4-1.1.1,0,.2-.2.4-.3.7-.9.4-2.7.4-3,0,0,0,0,0,0,.5-.5-.2-2.1-.3-3.2,0-.2,0-.3-.1-.5h0c-.4-.9-1.3-1.6-1.3-1.6,0,0,.7-.5,1-1.4.1-.4,0-.8-.3-1.1-.4-.4-.9-.7-1.5-.8-1.1-.1-3.2-1-3.2-1,0,0-.2-.1-.4-.3,0,0,.4-1,2.6-.9,2.2,0,5.9.6,8.4.7,2.5.1,4.2,1.3,4.2,4.5,0,.5,0,1.2,0,2-.1,2.8-.4,7.3-.6,10.8Z"/>
    <path class="cls-14" d="M57,32.2c0,2.3-.5,4.4-1.5,5.6.2-3.5.4-8,.6-10.8,0,0,0,.1,0,.2.6,1.4.9,2.4.8,5Z"/>
    <path class="cls-10" d="M56,26.9c-.1,2.8-.4,7.3-.6,10.8-.1.2-.3.3-.4.5-1.3,1-4.1.4-5.4,1.2-1.2.8-7.4,1.5-7.7.8-.2-.7,1.9-7.7,2.5-11.4s1.7-6,1.7-6c0,0,2.3-.3,3.1.4.8.7,3.5,1.6,4.5,1.8.9.1,1.7.8,2.3,2Z"/>
    <path class="cls-14" d="M40,34.5c.1.2,2,5.7,2,5.7,0,0,1.4-1.5,3-2.8,1.6-1.3,4-2.4,3.8-5.1-.2-2.8,0-5.1-1.3-5.7s-.8-1.6-1-2.6-8.1-1.4-8.1-1.4l1.6,12.1Z"/>
    <path class="cls-8" d="M47,33.6c-.1.1-.2.3-.4.3-.8.5-1.8,0-1.9-.6v-.8c-.1,0-2.5,1.4-2.9,2-.3.5-2.1,4-2.3,4.6,0,.3,0,.8-.2,1.4-1.2.2-2.6.4-3.7.5.3-.4.5-.9.6-1.3,1-3.3.1-4.7,2.1-5.1,2-.4,2.9-.9,3.8-1.8.8-.8,1.9-1.4,2.8-2.2.9-.8.5-1.2.5-1.3,0,0,.6.5,0,1.4-.5.7.1.7.6.7h0c0,0,.1,0,.2,0,.1,0,.3,0,.3,0,0,0,0,0,0,0,.3.2.7-.6.7-1,0,.3.3,2.1-.4,3Z"/>
    <g>
      <circle class="cls-4" cx="48" cy="26.8" r=".6"/>
      <circle class="cls-15" cx="48" cy="26.8" r=".4"/>
      <circle class="cls-3" cx="48" cy="26.8" r=".3"/>
    </g>
    <g>
      <circle class="cls-4" cx="50.2" cy="28.6" r=".5"/>
      <circle class="cls-15" cx="50.2" cy="28.6" r=".4"/>
      <circle class="cls-3" cx="50.2" cy="28.6" r=".2"/>
    </g>
    <g>
      <circle class="cls-4" cx="51.1" cy="32.8" r=".5"/>
      <circle class="cls-15" cx="51.1" cy="32.8" r=".4"/>
      <circle class="cls-3" cx="51.1" cy="32.8" r=".2"/>
    </g>
    <g>
      <circle class="cls-4" cx="49.4" cy="34.5" r=".5"/>
      <circle class="cls-15" cx="49.4" cy="34.5" r=".4"/>
      <circle class="cls-3" cx="49.4" cy="34.5" r=".2"/>
    </g>
    <g>
      <circle class="cls-4" cx="48.5" cy="29.8" r=".5"/>
      <circle class="cls-15" cx="48.5" cy="29.8" r=".4"/>
      <circle class="cls-3" cx="48.5" cy="29.8" r=".2"/>
    </g>
    <g>
      <circle class="cls-4" cx="49.7" cy="25.4" r=".2"/>
      <circle class="cls-15" cx="49.7" cy="25.4" r=".2"/>
      <circle class="cls-3" cx="49.7" cy="25.4" r=".1"/>
    </g>
    <g>
      <circle class="cls-4" cx="49.8" cy="27.4" r=".2"/>
      <circle class="cls-15" cx="49.8" cy="27.4" r=".2"/>
      <circle class="cls-3" cx="49.8" cy="27.4" r=".1"/>
    </g>
    <g>
      <circle class="cls-4" cx="51.7" cy="30.4" r=".2"/>
      <circle class="cls-15" cx="51.7" cy="30.4" r=".2"/>
      <circle class="cls-3" cx="51.7" cy="30.4" r=".1"/>
    </g>
    <g>
      <circle class="cls-4" cx="49.7" cy="31.8" r=".2"/>
      <circle class="cls-15" cx="49.7" cy="31.8" r=".2"/>
      <circle class="cls-3" cx="49.7" cy="31.8" r=".1"/>
    </g>
    <g>
      <circle class="cls-4" cx="52.1" cy="28.4" r=".2"/>
      <circle class="cls-15" cx="52.1" cy="28.4" r=".2"/>
      <circle class="cls-3" cx="52.1" cy="28.4" r=".1"/>
    </g>
    <g>
      <circle class="cls-4" cx="48.1" cy="32.8" r=".2"/>
      <circle class="cls-15" cx="48.1" cy="32.8" r=".2"/>
      <circle class="cls-3" cx="48.1" cy="32.8" r=".1"/>
    </g>
    <g>
      <circle class="cls-4" cx="46.5" cy="35" r=".2"/>
      <circle class="cls-15" cx="46.5" cy="35" r=".2"/>
      <circle class="cls-3" cx="46.5" cy="35" r=".1"/>
    </g>
    <g>
      <circle class="cls-4" cx="48.8" cy="36.4" r=".2"/>
      <circle class="cls-15" cx="48.8" cy="36.4" r=".2"/>
      <circle class="cls-3" cx="48.8" cy="36.4" r=".1"/>
    </g>
    <g>
      <circle class="cls-4" cx="51.8" cy="34.8" r=".2"/>
      <circle class="cls-15" cx="51.8" cy="34.8" r=".2"/>
      <circle class="cls-3" cx="51.8" cy="34.8" r=".1"/>
    </g>
    <g>
      <circle class="cls-4" cx="53.3" cy="31.6" r=".2"/>
      <circle class="cls-15" cx="53.3" cy="31.6" r=".2"/>
      <circle class="cls-3" cx="53.3" cy="31.6" r=".1"/>
    </g>
    <g>
      <circle class="cls-4" cx="45.6" cy="36.8" r=".2"/>
      <circle class="cls-15" cx="45.6" cy="36.8" r=".2"/>
      <circle class="cls-3" cx="45.6" cy="36.8" r=".1"/>
    </g>
    <path class="cls-12" d="M57,24.5s.3-1.6.2-2.1.4-.8.3-2-1.1-3.3-3.9-4-11.7.3-11.7.3l-2,2.5,1.1.8s13.6-2.3,16,4.5Z"/>
    <path class="cls-6" d="M40.6,20.8s1.3-.8,3.2-.7,8.7.7,10.2,1.3,3,3.1,3,3.1c0,0,.6-2.3-2.1-3.8-2.7-1.5-4.8-1.5-6.8-1.5s-4.9-.7-6.1-.4,0-.9,2.7-.5,5.1.4,6.9.4,4.5,1.8,5.1,2.6.3-2.1-2.2-3-4.4-.6-6.6-.8-4,0-4,0c0,0,1.8-.5,4.4-.4s7.6.3,8.4,2.1.7,2.1.7,2.1c0,0,1-2.5-.8-4,0,0-.8-.5-.3-1.9s-.2-3.8-.2-3.8h-15.6s-2.2,7.6-2.2,7.6l2.5,1.5Z"/>
    <path class="cls-7" d="M47.3,30.6s0,0,0,0c0-.3-.8-.9-1.2-1.1-.3-.1-.8-.4-1.1-.5,0,0-.1,0-.1,0l-.4-.2c-.6-.1-1,0-1.5.2l-.9.6-1.8,1.3s-1.1.8-1.8.9h0c-.8.1-1.4.1-.9-.5,0,0,2.3-2,3-3.2.7-1.2,1.8-2.6,1.8-3.4s.7,1,1.2,1.4c.1.1.4.3.6.4.5.3,1.1.5,1.6.8.6.5,1.3,0,1.3-.5h0c-.4-.9-1.3-1.6-1.3-1.6,0,0,.7-.5,1-1.4.3-.9-.8-1.8-1.8-1.9-1.1-.1-3.2-1-3.2-1,0,0-.2-.1-.4-.3-.5-.4-1.3-.9-1.7-1.3-.6-.6-1.8-.5-2.6.5-.8,1-3.1,3.9-4.2,4.9-1.2,1-1.4,1.6-1.4,2.5,0,1-.8,4.6-1.9,7.5-1.1,2.9-1.9,4.1-3.6,5.1-1.7,1-6.8,2.3-6.8,2.3v1.3s13.9-2.4,16.1-2.4c.2,0,.5,0,.8,0,.3-.4.5-.9.6-1.3,1-3.3.1-4.7,2.1-5.1,2-.4,2.9-.9,3.8-1.8.8-.8,1.9-1.4,2.8-2.2.3-.3.4-.5.5-.7.2-.4,0-.6,0-.6,0,0,.5.4.2,1,0,.1-.1.3-.2.4-.5.7.1.7.6.7.3,0,.5,0,.6,0,.3.2.7-.6.7-1Z"/>
    <path class="cls-1" d="M36.9,27.8s2.2-2.9,2.7-3.4,1.2-1.4,2.5-.8,3.1,1.4,3.4,1.8c0,0,.5-.4.7-.8s0,.4-1.5-.4c-1.5-.8-3.4-1.8-4.3-1.1s-3.5,4.8-3.5,4.8Z"/>
    <path class="cls-1" d="M34.9,25.1s3.1-3,3.5-3.4,1.5-1.6,2.6-1c0,0-1.2-.8-2.4.6-1.2,1.4-3.7,3.9-4.1,4s0,.4.4-.2Z"/>
    <path class="cls-8" d="M47.3,30.6c0-.3-.8-.9-1.2-1.1-.1,0-.3-.1-.5-.2,0,0-.1,0-.2,0,0,0-.2,0-.2-.1,0,0,0,0,0,0,0,0,0,0-.1,0,0,0-.1,0-.1,0,0,0,0,0,0-.1,0,0,0-.1,0-.2s0,0,0,0c0-.1-.1-.2-.1-.3,0,0-1.8-.5-2-1,0,0-1.5,1.5-2.2,1.7,0,0-.8.3-.6.7.1.3.3,1.1.3,1.1-.5.5-1.9.9-1.9.9-.8.1-1.4.1-.9-.5,0,0,2.3-2,3-3.2.7-1.2,1.8-2.6,1.8-3.4s.7,1,1.2,1.4c.1.1.4.3.6.4,0,0,0,0,0,0,0,0,.2,0,.3.1,0,0,.2,0,.3.1,0,0,0,0,0,0,0,0,.1,0,.2.1,0,0,0,0,.1,0,0,0,.1,0,.2.1,0,0,.2.1.3.2,0,0,0,0,0,0,0,0,0,0,0,0,.6.5,1.3,0,1.3-.5,0,.2.1.3.1.5.1,1.1.8,2.8.3,3.2Z"/>
    <polygon class="cls-2" points="39.9 66.5 42.4 66.5 39.9 66.5 39.9 66.5"/>
  </g>
</svg>