<?xml version="1.0" encoding="UTF-8"?>
<svg id="Livello_1" data-name="Livello 1" xmlns="http://www.w3.org/2000/svg" version="1.1" viewBox="0 0 76.5 76.5">
  <defs>
    <style>
      .cls-1 {
        fill: #9d8e85;
      }

      .cls-1, .cls-2, .cls-3, .cls-4, .cls-5, .cls-6, .cls-7, .cls-8, .cls-9 {
        stroke-width: 0px;
      }

      .cls-2, .cls-5 {
        fill: #000;
      }

      .cls-2, .cls-10 {
        opacity: .2;
      }

      .cls-3 {
        fill: #f8d5c8;
      }

      .cls-4 {
        fill: #f0c4b1;
      }

      .cls-6 {
        fill: #37643d;
      }

      .cls-11 {
        opacity: .3;
      }

      .cls-7 {
        fill: #2b4e31;
      }

      .cls-8 {
        fill: #fff;
      }

      .cls-9 {
        fill: #8a73d2;
      }
    </style>
  </defs>
  <path class="cls-8" d="M63.3,45.4c.2-.8.5-1.5.3-2.3,0-.4-.2-.8-.4-1.1.1-.3.3-.6.4-1,.3-1.1.4-3.6.4-5,0-1-.2-1.8-.4-2.2,0-1.4-.1-4-1.5-5,0-.4-.1-1-.4-1.5-.2-.4-.3-.9-.4-1.4-.1-.7-.3-1.4-.7-2.1,0-.2-.2-.3-.3-.5,0-.2-.2-.4-.4-.6l-.7-1c-.2-.2-.4-.4-.6-.5,0-.7-.3-1.5-.9-2.6-.3-.5-.5-.9-.7-1.3-.6-1.2-1.1-2.1-2.8-2.7-1.2-.4-1.5-.7-2.3-1.3l-.5-.4c-.2-.1-.3-.3-.5-.5-1.1-1-3.3-3-6.3-3s-1.2,0-1.8.2c-2,.5-3.1,1.6-3.6,2.8-.5-1.2-1.6-2.3-3.6-2.8-.6-.1-1.2-.2-1.7-.2-3,0-5.1,1.9-6.3,3-.2.2-.4.4-.6.5l-.5.4c-.8.6-1.1.9-2.3,1.3-1.7.6-2.2,1.6-2.8,2.7-.2.4-.4.8-.7,1.3-.6,1-.9,1.9-.9,2.6-.2.2-.4.3-.6.5l-.7,1c-.1.2-.3.5-.4.7-.1.2-.2.3-.3.5-.4.7-.6,1.4-.7,2.1-.1.5-.2,1-.4,1.4-.3.6-.5,1.1-.5,1.5-1.4,1.1-1.5,3.6-1.5,5-.1.4-.3,1.2-.4,2.2,0,1.4.1,3.9.4,5,.1.4.2.7.4,1-.2.3-.3.7-.4,1.1-.1.8,0,1.5.3,2.2.2.5.4,1.2.5,1.9,0,0,0,0,0,.1l.2.8c.1.5.3.9.5,1.2-.1.5-.2,1,0,1.8.2,1.2.8,2.1,1.3,3,.2.4.5.8.7,1.2.5,1.1,1.3,1.8,1.8,2.3.3,3,2.5,4.5,3.3,5,1.2,1.2,2.7,2.3,6.3,3.5,1,.3,2,.5,3,.5,3.2,0,5.3-1.8,6.2-2.8.2-.3.4-.7.6-1.3.2.6.3,1,.6,1.3.9,1,3,2.8,6.2,2.8s2-.2,3-.5c3.6-1.2,5.2-2.3,6.3-3.5.8-.5,3-2,3.3-5,.5-.4,1.2-1.2,1.8-2.2.2-.5.5-.8.7-1.2.5-.9,1.1-1.8,1.3-3,.1-.7,0-1.3,0-1.8.2-.3.3-.7.4-1.2v-.7c.2,0,.2-.2.2-.2.1-.8.3-1.4.5-1.9ZM55.2,20.7s0,0,0,0h0s0,0,0,0Z"/>
  <g>
    <g>
      <g>
        <path class="cls-4" d="M62.2,43.4c.1.8-.5,1.9-.8,3.7-.3,1.9-.9,2.1-.9,2.1,0,0,.5.4.3,1.8-.2,1.4-1.1,2.4-1.9,3.8-.7,1.4-1.9,2.2-1.9,2.2,0,3.4-2.8,4.6-2.8,4.6-.9,1-2.1,2.1-5.9,3.3-3.8,1.3-6.4-.5-7.7-1.9-1.3-1.4-.8-14.6-.8-14.6v-14.4s.3-5,0-5.9-.3-3.1,0-4.7c.3-1.5-.1-4.5,0-6.2.1-1.8-.7-5.2,3.1-6.1,3.8-.9,6.2,2.1,7.4,3,0,0,0,0,0,0,1.1.9,1.5,1.3,3.1,1.9,1.6.6,1.6,1.3,2.7,3.1,0,0,.1.2.2.3,1.1,1.8.6,2.7.5,2.8h0s0,0,0,0c0,0,0,0,0,0h0c1.2,0,1.8,1.5,2.3,2.4.6.9.5,2.3,1.1,3.5s0,1.6,0,1.6l.6.2c1.3.5,1.2,4.2,1.2,4.2,0,0,.3.7.4,2,0,1.3-.1,3.7-.3,4.6-.2,1-.8,1.2-.8,1.2,0,0,.6.6.7,1.4Z"/>
        <g>
          <g>
            <g class="cls-11">
              <path class="cls-5" d="M57.1,47.9s0,0,0,0c0,0,0,0,0,0Z"/>
            </g>
            <g class="cls-11">
              <path class="cls-5" d="M57.1,47.9s0,0,0,0h0Z"/>
            </g>
            <g class="cls-11">
              <path class="cls-5" d="M57.1,47.9s0,0,0,0h0Z"/>
            </g>
            <g class="cls-11">
              <path class="cls-5" d="M57.4,49.2c0-.4-.2-.8-.3-1.3.5.6.8,1.5.8,2.4.4,0,1-.3,1.2-.3-.5.6-1.7,1.3-1.9,2.1-.2.8.8,1.4.4,2.3-.3-.2-.2-.4-.2-.7-.3-1.5-2-1.4-2.8-1.2.5-.3.9-.5,1.4-.7,1.4-.6,1.5-1.2,1.4-2.6Z"/>
            </g>
            <g class="cls-11">
              <path class="cls-5" d="M53.8,53c0,0,.2,0,.2-.1l-1.1,1c-.3,0-.8.2-1.7-.3,1.6.6,1.9-.2,2.5-.5Z"/>
            </g>
            <g class="cls-11">
              <path class="cls-5" d="M54.7,52.5c-.2.1-.4.2-.6.3l.2-.2s.2-.1.4-.2Z"/>
            </g>
          </g>
          <g class="cls-11">
            <path class="cls-5" d="M51.5,59.8c-.8.8-1.5,1.8-2.5,2.4-.9.5-2.1.5-3.1.8,1.4.4,2.6.1,3.8-.7,1.1-.8,2.2-1.5,3.3-2.2,1.1-.7,2-1.7,2.4-3,0-.2,0-.5-.3-.8-.1.3-.3.6-.3.9-.3,1.2-1.1,2-2.2,2.5-.3.2-.8,0-1.1,0Z"/>
          </g>
          <g class="cls-11">
            <path class="cls-5" d="M44.3,24c1.4,2-.5,4.5.4,5.4,0-.3-.1-.5,0-.7,1.2-1.6.8-3.9-.5-4.7Z"/>
          </g>
          <g class="cls-11">
            <path class="cls-5" d="M43.6,59.4c.6.4,1.1.7,1.5.9.6-.3,1.3-.6,2-.9h-3.5Z"/>
          </g>
        </g>
        <path class="cls-1" d="M39.7,42.8s0,0,0,0c0,0,0,0,.2,0,0,0,.2,0,.3,0,.1,0,.2,0,.4,0,.6.1,1.4.3,2.5.2.5,0,1.1-.1,1.7-.3.6-.2,1.2-.4,1.8-.8.6-.4,1.2-.9,1.6-1.5.4-.6.7-1.4,1.1-2.1,0-.2.2-.3.3-.5.1-.1.3-.3.4-.4.3-.2.6-.5.9-.7.6-.4,1.2-.7,1.9-.9,1.3-.4,2.5-.5,3.5-.6h0c.2-.6.3-1.1.5-1.6.2-.5.3-.9.5-1.2.3-.6.5-1,.5-1,0,0,0,0,0,0,0,0,0,.1-.1.2,0,.2-.2.4-.3.7-.1.3-.3.7-.4,1.2-.1.5-.3,1-.5,1.6h0s0,0,0,0c-1,0-2.2.2-3.4.6-.6.2-1.2.5-1.8.9-.3.2-.6.4-.8.6-.1.1-.3.3-.4.4-.1.1-.2.3-.3.4-.4.7-.6,1.5-1.1,2.1-.5.6-1,1.1-1.6,1.5-.6.4-1.2.6-1.9.8-.6.2-1.2.2-1.7.2-1.1,0-1.9-.1-2.5-.3-.1,0-.3,0-.4-.1-.1,0-.2,0-.3,0,0,0-.1,0-.2,0,0,0,0,0,0,0Z"/>
        <path class="cls-1" d="M43.7,52.2s0,0,0,0c0,0,0,0,0-.1,0-.1,0-.3,0-.5,0-.4.4-1,1-1.5.3-.3.6-.5.9-.8.3-.3.7-.6.9-1,.1-.2.2-.4.3-.7,0-.2.1-.5.2-.8,0-.3.1-.5.2-.8,0-.3.2-.5.4-.8.3-.5.8-.8,1.3-1.1.5-.3,1-.4,1.5-.5,1-.2,1.8-.3,2.6-.6.7-.2,1.3-.5,1.6-.7.2-.1.3-.2.4-.3,0,0,0,0,0,0,0,0,0,0,0,0,0,0-.1.2-.5.4-.3.3-.9.5-1.6.8-.7.2-1.6.4-2.6.6-.5.1-1,.3-1.4.5-.5.2-.9.6-1.3,1-.2.2-.3.5-.4.7,0,.3-.1.5-.2.8,0,.3-.1.5-.2.8,0,.3-.2.5-.3.7-.3.4-.6.7-1,1-.3.3-.7.5-.9.8-.5.5-.9,1-1,1.4-.1.4,0,.6,0,.6Z"/>
        <path class="cls-1" d="M57.2,42s-.5,0-1.1,0c-.6,0-1.1,0-1.1,0,0,0,.1,0,.3,0,.2,0,.5,0,.8,0,.3,0,.6,0,.8,0,.2,0,.3,0,.3,0Z"/>
        <path class="cls-1" d="M55,40.5s.2.3.2.7c0,.4-.2.7-.2.7,0,0,.1-.3.1-.7,0-.4-.1-.7-.1-.7Z"/>
        <path class="cls-1" d="M51.4,50.1s.3-.3.6-.9c.1-.3.3-.7.3-1.1,0-.4,0-.9,0-1.4-.1-.5-.3-.9-.6-1.3-.2-.4-.5-.6-.8-.8-.5-.4-.9-.5-.9-.5,0,0,0,0,0,0,0,0,.1,0,.2,0,.2,0,.4.2.7.4.3.2.6.5.8.8.3.4.5.8.6,1.3.1.5.1,1,0,1.4,0,.4-.2.8-.3,1.1-.1.3-.3.5-.4.7,0,0-.1.1-.1.2,0,0,0,0,0,0Z"/>
        <path class="cls-1" d="M51.2,53.4s.1.1.4.3c.1,0,.3.2.5.2.2,0,.5,0,.7,0,.3,0,.5-.3.7-.5.2-.2.4-.5.7-.7.3-.2.7-.3,1.1-.4.4,0,.8-.1,1.1-.3.2-.1.3-.2.5-.4.1-.1.3-.3.4-.5.2-.3.3-.7.4-1,0-.4,0-.7,0-1,0-.3-.2-.6-.3-.8-.2-.5-.5-.8-.8-1-.1-.1-.2-.2-.3-.2,0,0,0,0,0,0,0,0,0,0,.1,0,0,0,.2.1.3.2.2.2.5.5.8,1,.1.2.2.5.3.8,0,.3,0,.7,0,1,0,.4-.2.7-.4,1.1-.1.2-.2.3-.4.5-.1.1-.3.3-.5.4-.2.1-.4.2-.6.2-.2,0-.4,0-.6.1-.4,0-.8.1-1,.3-.3.2-.5.5-.7.7-.2.2-.5.4-.7.5-.3,0-.5,0-.7,0-.2,0-.4-.1-.5-.2-.3-.2-.4-.3-.4-.3Z"/>
        <path class="cls-1" d="M49.8,56.7s.2,0,.5-.1c.3-.1.7-.3,1-.7.3-.4.5-.8.5-1.1,0-.3,0-.5,0-.5,0,0,0,0,0,.1,0,0,0,.2,0,.4,0,.3-.2.8-.5,1.2-.3.4-.7.6-1.1.7-.2,0-.3,0-.4,0,0,0-.1,0-.1,0Z"/>
        <path class="cls-1" d="M44.5,62.3s0,0,.1,0c0,0,.2,0,.4.1.3.1.8.2,1.4.3.6,0,1.3,0,2.1-.3.7-.3,1.5-.7,2.1-1.4.2-.3.5-.5.6-.8h0s0,0,0,0c.8,0,1.5-.2,2.1-.6.6-.4,1-.9,1.2-1.3.2-.4.3-.8.4-1.1,0-.1,0-.2,0-.3,0,0,0-.1,0-.1,0,0,0,0,0,.1,0,0,0,.2,0,.3,0,.3-.1.7-.4,1.1-.2.4-.6.9-1.2,1.3-.6.4-1.3.6-2.1.6h0c-.2.3-.4.6-.6.8-.6.7-1.4,1.2-2.2,1.4-.8.3-1.5.3-2.1.3-.6,0-1.1-.2-1.4-.3-.2,0-.3-.1-.4-.1,0,0-.1,0-.1,0Z"/>
        <path class="cls-1" d="M57.5,55s0-.2.1-.5c0-.3,0-.7,0-1.2-.1-.5-.4-.8-.6-1-.2-.2-.4-.3-.4-.4,0,0,0,0,.1,0,0,0,.2.1.3.2.2.2.5.6.6,1.1.1.5.1.9,0,1.2,0,.2,0,.3-.1.4,0,0,0,.1,0,.1Z"/>
        <path class="cls-1" d="M57.6,50.5s.2,0,.4,0c.3,0,.6-.1.9-.3.3-.2.5-.5.6-.8,0-.2.1-.4.1-.4,0,0,0,0,0,.1,0,0,0,.2,0,.3,0,.3-.3.6-.6.8-.3.2-.7.3-1,.3-.1,0-.2,0-.3,0,0,0-.1,0-.1,0Z"/>
        <path class="cls-1" d="M58.2,41.4s0,0,.1.1c0,0,.2.2.3.4.1.2.2.4.4.7.1.3.2.6.3.9,0,.3.1.6.1.9,0,.3,0,.5,0,.8,0,.2,0,.4,0,.5,0,.1,0,.2,0,.2,0,0,0-.3,0-.7,0-.2,0-.5,0-.8,0-.3,0-.6-.1-.9,0-.3-.2-.6-.3-.9-.1-.3-.2-.5-.3-.7-.2-.4-.4-.6-.4-.6Z"/>
        <g class="cls-11">
          <path class="cls-5" d="M60.5,37.7c.1-.8,0-1.6-.4-2.2.7.5.9,1.4.7,2.3-.1.8-.5,1.8-1.3,2,.4-.6.8-1.3.9-2.1Z"/>
        </g>
        <path class="cls-1" d="M59.6,39.7s.2-.2.5-.5c.3-.3.6-.9.7-1.5,0-.7,0-1.3-.3-1.7-.2-.4-.4-.6-.4-.6,0,0,0,0,.1.1,0,0,.2.2.3.4.2.4.4,1,.3,1.7,0,.7-.4,1.2-.7,1.6-.2.2-.3.3-.4.3-.1,0-.2.1-.2,0Z"/>
        <path class="cls-1" d="M56,31s.3-.1.8-.5c.2-.2.4-.5.6-.8.2-.3.2-.8.2-1.2,0-.4-.2-.8-.4-1.1-.2-.3-.5-.5-.7-.7-.5-.3-.9-.3-.8-.3,0,0,0,0,0,0,0,0,.1,0,.2,0,.2,0,.4.1.6.3.3.1.5.4.7.7.2.3.4.7.5,1.1,0,.4,0,.9-.2,1.2-.2.3-.4.6-.6.8-.2.2-.4.3-.6.4,0,0-.1,0-.2,0,0,0,0,0,0,0Z"/>
        <path class="cls-1" d="M51.3,34s0,0,0,0c0,0,0-.1,0-.2,0-.2,0-.5,0-.8,0-.3.2-.7.4-1.1.2-.4.6-.7,1-1,.4-.3.9-.4,1.4-.4.4,0,.8,0,1.1.2.3.1.5.2.7.3,0,0,.1,0,.2.1,0,0,0,0,0,0,0,0-.3-.3-.9-.5-.3,0-.7-.2-1.1-.1-.4,0-.9.1-1.3.4-.4.3-.8.6-1,1-.2.4-.4.7-.4,1-.1.6,0,1,0,1Z"/>
        <path class="cls-1" d="M47.5,19.9s0,0,0,0c0,0,0,0,0,0,0,0,.1.2.2.3.2.3.4.6.7,1.2.1.3.2.6.3.9,0,.3,0,.7,0,1.1,0,.2,0,.4-.1.6,0,.2-.2.4-.3.6-.2.4-.6.7-1,.9h0c.5.2,1,.5,1.4.9.4.4.7,1,.9,1.6.1.5,0,1.1-.1,1.6-.2.5-.5.9-.9,1.2h0c.3.3.5.8.6,1.2,0,.5,0,.9,0,1.3,0,.4-.2.8-.4,1.1-.2.3-.4.6-.6.8-.4.5-.7.8-.9,1.1-.1.1-.2.2-.3.3,0,0,0,0,0,0,0,0,0,0,0,0,0,0,0,0,0,0,0,0,0,0,0,0,0,0,.1-.2.3-.3.2-.2.6-.6.9-1.1.2-.2.4-.5.5-.8.2-.3.3-.7.4-1.1,0-.4.1-.8,0-1.3,0-.4-.3-.9-.6-1.3h0s0,0,0,0c.4-.2.7-.6.9-1.1.2-.5.2-1,.1-1.5-.1-.6-.5-1.1-.8-1.5-.4-.4-.9-.7-1.3-1h0s0,0,0,0c.4-.2.7-.5,1-.9.1-.2.2-.4.3-.6,0-.2.1-.4.1-.6.1-.8,0-1.5-.3-2-.2-.5-.5-.9-.6-1.2,0-.1-.2-.2-.2-.3,0,0,0,0,0,0,0,0,0,0,0,0Z"/>
        <path class="cls-1" d="M47.6,18.9s0,0,.1,0c0,0,.2,0,.3-.1.3-.1.7-.2,1.3-.2.5,0,1.2.1,1.8.4.7.3,1.3.7,2,1.2.4.3.8.7,1,1.2.2.5.3,1,0,1.4h0c.4-.2.8-.4,1.1-.5.4,0,.7-.1.9-.2.3,0,.5,0,.6,0,0,0,.1,0,.2,0,0,0,0,0,0,0,0,0,0,0,0,0,0,0,0,0-.2,0-.1,0-.3,0-.6,0-.3,0-.6,0-.9.2-.3,0-.7.2-1.1.4h0s0,0,0,0c.1-.4.1-.9-.1-1.3-.2-.4-.6-.8-1-1.2-.6-.5-1.3-.9-1.9-1.2-.6-.3-1.3-.4-1.8-.5-.5,0-1,0-1.2.2-.1,0-.2,0-.3.1,0,0-.1,0-.1,0Z"/>
        <path class="cls-1" d="M52,17.3s0,0,.1,0c0,0,.2,0,.3,0,.3,0,.6,0,1,.3.3.2.6.5.7.8,0,.1,0,.2.1.3,0,0,0,.1,0,.1,0,0,0-.2-.2-.4-.1-.2-.3-.5-.7-.7-.3-.2-.7-.3-.9-.3-.3,0-.4,0-.4,0Z"/>
        <path class="cls-1" d="M44.3,15.2s.3,0,.7,0c.4,0,.7,0,.7,0,0,0-.3,0-.7,0-.4,0-.7,0-.7,0Z"/>
        <path class="cls-1" d="M44.5,21.5s0-.1.1-.3c0-.2.2-.5.2-.9,0-.4,0-.8-.2-1.3,0-.2-.2-.4-.4-.7-.1-.2-.3-.5-.4-.7,0-.1,0-.3,0-.4,0-.1,0-.3,0-.4,0-.3.2-.5.3-.7.2-.5.1-.9,0-1.3,0-.4-.2-.6-.4-.8-.1-.2-.2-.2-.2-.3,0,0,0,0,0,0,0,0,0,0,.2.2.1.2.3.4.4.8,0,.4.1.8,0,1.3,0,.2-.2.5-.3.7,0,.3,0,.5,0,.8.2.5.6.9.8,1.4.2.5.2.9.2,1.3,0,.4-.1.7-.2.9,0,0,0,.2-.1.2,0,0,0,0,0,0Z"/>
        <path class="cls-1" d="M44.8,29.4s0,0,0,0c0,0,0,0,0-.2,0-.1,0-.4,0-.6,0-.2.3-.5.4-.8.1-.3.2-.6.3-1,0-.8-.1-1.4-.4-1.9-.2-.4-.5-.7-.4-.7,0,0,0,0,.2.2,0,.1.2.3.3.5.2.4.5,1.1.4,1.9,0,.4-.1.7-.3,1-.1.3-.3.5-.4.8-.1.2-.1.4-.1.6,0,.1,0,.2,0,.2Z"/>
        <path class="cls-1" d="M40.5,31.9s.1.2.4.4c.2.2.6.5,1.1.6.5,0,1,0,1.3,0,.3-.1.5-.2.5-.2,0,0,0,0-.1,0,0,0-.2.1-.4.2-.3.1-.8.2-1.3.1-.5-.1-.9-.4-1.2-.6-.1-.1-.2-.2-.3-.3,0,0,0-.1,0-.1Z"/>
        <path class="cls-1" d="M45.8,37.4s0,0-.1,0c0,0-.2,0-.4-.1-.3-.2-.7-.4-1.1-.8-.4-.3-.7-.7-.9-1-.1-.1-.2-.2-.2-.3,0,0,0-.1,0-.1,0,0,.1.2.4.4.2.3.5.6.9.9.4.3.8.6,1,.8.1,0,.3.1.4.1,0,0,.1,0,.1,0Z"/>
        <path class="cls-1" d="M43.3,38.5s.1,0,.3-.2c.2-.2.3-.4.4-.7,0-.3,0-.6,0-.8,0-.2,0-.3,0-.3,0,0,0,.1.1.3,0,.2,0,.5,0,.9-.1.3-.3.6-.5.7-.2.2-.3.2-.3.2Z"/>
        <g class="cls-11">
          <path class="cls-5" d="M56,31c-1-.5-2.2-.5-3.2,0-.9.6-1.6,1.7-1.5,2.8-.3-.9,0-1.9.5-2.7.6-.7,1.5-1.2,2.5-1.1.6,0,1.2.3,1.8,0,.3,0,.6-.3.9-.6.3-.3.6-.8.6-1.3,0,0,.4,1.1-.3,1.8-.7.7-1.2.9-1.2.9Z"/>
        </g>
        <g class="cls-11">
          <path class="cls-5" d="M52.9,19.6c.4.3.8.6,1.1,1.1.3.4.4.9.4,1.5,1-.2,1.6-.2,2.6,0-1.1,0-1.9,0-2.8.6,0-.8-.3-1.6-.8-2.3-.5-.6-1.3-1.1-2-1.3-.8-.3-1.6-.5-2.4-.6,1.4-.1,2.9.3,4,1.1Z"/>
        </g>
        <g class="cls-11">
          <path class="cls-5" d="M44.2,15.2c.3,0,.7,0,1,0,.1,0,.3,0,.4-.1-.3,0-.5-.1-.8-.1,0,0-.1,0-.2,0,0,0-.1-.1-.1-.2-.2-.3-.4-.6-.7-.8,0,.2.1.4.2.7.1.2.2.4.2.7h0Z"/>
        </g>
        <g class="cls-11">
          <path class="cls-5" d="M44.2,36.5c.6.6,1.4,1,2.3,1-.5.2-1.1.2-1.6,0-.2.3-.5.7-.8.9-.3.3-.8.3-1.2.3.4-.2.9-.3,1.1-.6.2-.3.2-.6.2-.9,0-.3,0-.6-.1-.8h.2Z"/>
        </g>
        <g class="cls-11">
          <path class="cls-5" d="M57.1,41.9c-.2-.2-.4-.3-.7-.4-.3,0-.5,0-.8,0,0-.3-.1-.5-.4-.7,0,0,0,0,0,0,0,0,0,0,0,.1,0,.3,0,.6,0,.9,0,0,0,0,0,.1,0,0,0,0,0,0,.3,0,.7,0,1,0,.3,0,.7,0,1,0h0Z"/>
        </g>
        <g class="cls-11">
          <path class="cls-5" d="M43.7,51.4c.5-.6.2-.6.8-1.1,1.4-1.2,1.7-1.6,2.3-2.5.2-.3.2-.6.2-1,.1-.4,0-.9.3-1.2.6-.9,1.3-1.5,2.1-1.6.4-.3,1.3-.5,1.8-.6.8-.1,1.2-.2,2-.5.7-.3,1.3-.5,1.8-1.1h.1c-.5,1-1.5,1.6-2.5,1.9-.8.2-1.7.3-2.5.3.1,0,.2,0,.3.1,2.4,1.8,2.3,3.7,1.3,5.2-.9,1.3-1.4,2.9-3,3.5-1.1.5-2.2.9-3.3,1.3.2-.4.5-.8.9-.9.7-.3,1.5-.5,2.2-.9,1-.5,1.8-1.1,1.6-2.4,2-1,2.4-3.6.8-5.1-.3-.2-1-.4-1.3-.2-.8.6-1.6,1.3-2,2.2-.7,1.4-1.3,2.8-2.6,3.7-.4.3-.7.9-1.1,1.3-.1.2-.3.3-.5.4,0,0,.4-.9.3-1Z"/>
        </g>
        <g class="cls-11">
          <path class="cls-5" d="M46.6,42.4c1.2-.7,2-2,2.5-3.2-.3,1.6-1.3,3.2-2.8,3.9-1.5.7-3.3.8-4.8,0,1.7,0,3.5,0,5-.8Z"/>
        </g>
      </g>
      <g class="cls-10">
        <path class="cls-8" d="M53.5,26.6c.2-.1.4-.2.7-.2.1,0,.3,0,.4,0,.5.1.9.3,1.3.5.5.3.9.6,1.2,1.1.1.2.2.6,0,.8-.1.2-.4.3-.6.2-.2,0-.4-.1-.6-.2-.6-.4-1.2-.9-1.9-1.2-.3-.1-.7-.2-.8-.6,0-.2,0-.4.3-.6Z"/>
      </g>
      <g class="cls-10">
        <path class="cls-8" d="M49.5,19.3c.2-.1.4-.2.7-.2.1,0,.3,0,.4,0,.5.1.9.3,1.3.5.5.3.9.6,1.2,1.1.1.2.2.6,0,.8-.1.2-.4.3-.6.2-.2,0-.4-.1-.6-.2-.6-.4-1.2-.9-1.9-1.2-.3-.1-.7-.2-.8-.6,0-.2,0-.4.3-.6Z"/>
      </g>
      <g class="cls-10">
        <path class="cls-8" d="M41.1,12.9c.2-.3.3-.8.6-1,.5-.3,1-.5,1.8-.6h0c1.4-.2,2.7.5,3.9,1.3,1.1.8,2.1,1.8,3.4,2.4.2,0,.4.1.5.3.1.1.3.3.2.5,0,.3-.4.5-.7.6-1.1.2-2.2-.4-3.1-1-.9-.6-1.7-1.4-2.8-1.9-.5-.2-1.1-.3-1.6,0-.3.2-.5.6-.8.7-.4.2-.9.2-1.2-.1-.3-.3-.4-.8-.2-1.2Z"/>
      </g>
      <path class="cls-8" d="M59.9,29.2s0,0,0-.2c0-.2,0-.4-.1-.7,0-.3-.2-.6-.3-1-.1-.4-.3-.8-.5-1.2-.2-.4-.4-.8-.6-1.1-.2-.3-.4-.6-.6-.8-.2-.2-.3-.4-.4-.5-.1-.1-.2-.2-.2-.2,0,0,0,0,.2.2.1.1.3.3.5.5.2.2.4.5.6.8.2.3.4.7.6,1.1.2.4.3.8.5,1.2.1.4.2.7.3,1,0,.3.1.5.1.7,0,.2,0,.3,0,.3Z"/>
      <path class="cls-8" d="M56.5,29.6s.1-.1.3-.4c.2-.3.3-.7.2-1.1-.1-.4-.4-.8-.7-.9-.3-.2-.5-.2-.5-.2,0,0,0,0,.1,0,0,0,.2,0,.3.1.3.1.6.5.7.9.1.5,0,.9-.2,1.2,0,.1-.2.2-.2.3,0,0-.1,0-.1,0Z"/>
      <path class="cls-8" d="M48.6,29.3s0-.1,0-.3c0-.2,0-.4,0-.7,0-.3-.2-.5-.3-.6-.1-.1-.2-.2-.2-.2,0,0,.1,0,.2.2.1.1.3.4.4.7,0,.3,0,.6,0,.7,0,.2,0,.3,0,.3Z"/>
      <path class="cls-8" d="M55.8,20s0,0,.1,0c0,0,.1.2.2.3,0,.2,0,.3,0,.4,0,.1,0,.2,0,.2,0,0,0-.2,0-.5,0-.3-.3-.4-.2-.5Z"/>
      <path class="cls-8" d="M59.7,38.1s0-.3.1-.6c0-.3,0-.6,0-.6,0,0,.1.3,0,.6,0,.3-.2.6-.2.6Z"/>
      <path class="cls-8" d="M61,45.5s0-.1.2-.4c0-.2.2-.6.2-1,0-.4,0-.7-.2-1,0-.2-.2-.4-.2-.4,0,0,0,0,0,0,0,0,0,.2.1.3.1.2.2.6.2,1,0,.4,0,.8-.2,1,0,.1-.1.2-.1.3,0,0,0,0,0,0Z"/>
      <path class="cls-8" d="M56.3,50.7s.1-.1.2-.3c.1-.2.3-.5.2-.9,0-.4-.2-.7-.3-.9-.1-.2-.3-.3-.3-.3,0,0,0,0,0,0,0,0,.1.1.2.2.2.2.3.5.3.9,0,.4-.1.7-.3,1,0,.1-.1.2-.2.2,0,0,0,0,0,0Z"/>
      <path class="cls-8" d="M56.7,54.4s0-.3-.1-.6c-.1-.3-.3-.6-.3-.6,0,0,.2.2.3.6.1.4,0,.7,0,.7Z"/>
      <path class="cls-8" d="M50.4,48.9s.2,0,.4-.3c.2-.2.5-.6.6-1.1,0-.5,0-1-.3-1.3-.2-.3-.3-.4-.3-.4,0,0,0,0,.1,0,0,0,.2.2.3.3.2.3.4.8.3,1.3,0,.5-.4.9-.6,1.2-.1.1-.3.2-.3.2,0,0-.1,0-.1,0Z"/>
      <path class="cls-8" d="M51.4,59.5s.2,0,.5-.2c.2,0,.4-.2.6-.3.2-.1.4-.3.6-.5.2-.2.4-.4.5-.6.1-.2.3-.4.4-.5.2-.3.3-.5.3-.5,0,0,0,0,0,.2,0,0,0,.2-.2.4,0,.2-.2.3-.3.5-.1.2-.3.4-.5.6-.2.2-.4.3-.6.5-.2.1-.4.2-.6.3-.2,0-.3.1-.4.1,0,0-.2,0-.2,0Z"/>
      <path class="cls-8" d="M53,42.1s.4-.2.7-.6c.4-.4.5-.8.5-.8,0,0,0,.4-.5.8-.4.4-.8.5-.8.5Z"/>
      <path class="cls-8" d="M47.3,34.3s.3-.3.6-.7c.3-.4.5-.8.5-.8,0,0-.1.4-.4.8-.3.4-.7.6-.7.6Z"/>
      <g class="cls-10">
        <path class="cls-8" d="M59.2,34c-.2-.1-.5,0-.7,0-.2.1-.3.4-.5.6-.7.8-.7,1.7-1.7,1.9-1,.2-2.1.3-3,.8-.2.1-.5.3-.5.6,0,.3.1.6.4.7.3.1.6.2.9.1,1,0,2-.5,2.9-1,1.3-.6,1.8-1.6,2.4-2.9,0,0,.3-.6-.1-.9Z"/>
      </g>
      <g class="cls-10">
        <path class="cls-8" d="M50.8,39.1h.2c.3,0,.6.2.6.6,0,.3-.2.6-.6.7-.3,0-.7-.2-.7-.5,0-.3.1-.7.5-.8Z"/>
      </g>
    </g>
    <g>
      <g>
        <path class="cls-3" d="M21.2,22.1s-.7-.8.5-2.8c1.2-2,1.2-2.8,2.8-3.4,1.6-.6,2-1,3.1-1.9s3.6-3.9,7.4-3c3.8.9,3,4.3,3.1,6.1.1,1.8-.3,4.7,0,6.2s.3,3.8,0,4.7c-.3.9,0,5.9,0,5.9v14.4s.5,13.1-.8,14.6c-1.3,1.4-3.9,3.2-7.7,1.9-3.8-1.3-5-2.4-5.9-3.3,0,0-2.8-1.2-2.8-4.6,0,0-1.2-.7-1.9-2.2-.7-1.4-1.6-2.4-1.9-3.8-.2-1.4.3-1.8.3-1.8,0,0-.6-.2-.9-2.1-.3-1.9-.9-2.9-.8-3.7.2-.8.7-1.4.7-1.4,0,0-.5-.3-.7-1.2-.2-1-.4-3.3-.3-4.6,0-1.3.4-2,.4-2,0,0-.2-3.7,1.2-4.2l.6-.3s-.6-.5,0-1.6c.6-1.1.5-2.5,1.1-3.5s1.1-2.6,2.4-2.4Z"/>
        <g>
          <g>
            <g class="cls-11">
              <path class="cls-5" d="M20.9,47.9s0,0,0,0c0,0,0,0,0,0Z"/>
            </g>
            <g class="cls-11">
              <path class="cls-5" d="M20.9,47.9s0,0,0,0h0Z"/>
            </g>
            <g class="cls-11">
              <path class="cls-5" d="M20.9,47.9s0,0,0,0h0Z"/>
            </g>
            <g class="cls-11">
              <path class="cls-5" d="M20.7,49.2c0-.4.2-.8.3-1.3-.5.6-.8,1.5-.8,2.4-.4,0-1-.3-1.2-.3.5.6,1.7,1.3,1.9,2.1.2.8-.8,1.4-.4,2.3.3-.2.2-.4.2-.7.3-1.5,2-1.4,2.8-1.2-.5-.3-.9-.5-1.4-.7-1.4-.6-1.5-1.2-1.4-2.6Z"/>
            </g>
            <g class="cls-11">
              <path class="cls-5" d="M24.2,53c0,0-.2,0-.2-.1l1.1,1c.3,0,.8.2,1.7-.3-1.6.6-1.9-.2-2.5-.5Z"/>
            </g>
            <g class="cls-11">
              <path class="cls-5" d="M23.4,52.5c.2.1.4.2.6.3l-.2-.2s-.2-.1-.4-.2Z"/>
            </g>
          </g>
          <g class="cls-11">
            <path class="cls-5" d="M26.6,59.8c.8.8,1.5,1.8,2.5,2.4.9.5,2.1.5,3.1.8-1.4.4-2.6.1-3.8-.7-1.1-.8-2.2-1.5-3.3-2.2-1.1-.7-2-1.7-2.4-3,0-.2,0-.5.3-.8.1.3.3.6.3.9.3,1.2,1.1,2,2.2,2.5.3.2.8,0,1.1,0Z"/>
          </g>
          <g class="cls-11">
            <path class="cls-5" d="M33.7,24c-1.4,2,.5,4.5-.4,5.4,0-.3.1-.5,0-.7-1.2-1.6-.8-3.9.5-4.7Z"/>
          </g>
          <g class="cls-11">
            <path class="cls-5" d="M34.5,59.4c-.6.4-1.1.7-1.5.9-.6-.3-1.3-.6-2-.9h3.5Z"/>
          </g>
        </g>
        <path class="cls-1" d="M38.3,42.8s0,0,0,0c0,0,0,0-.2,0,0,0-.2,0-.3,0-.1,0-.2,0-.4.1-.6.1-1.4.3-2.5.3-.5,0-1.1,0-1.7-.2-.6-.2-1.2-.4-1.9-.8-.6-.4-1.2-.9-1.6-1.5-.4-.7-.7-1.4-1.1-2.1,0-.2-.2-.3-.3-.4-.1-.1-.3-.3-.4-.4-.3-.2-.5-.5-.8-.6-.6-.4-1.2-.7-1.8-.9-1.2-.4-2.4-.5-3.4-.6h0s0,0,0,0c-.2-.6-.3-1.2-.5-1.6-.1-.5-.3-.9-.4-1.2-.1-.3-.3-.6-.3-.7,0,0,0-.1-.1-.2,0,0,0,0,0,0,0,0,.2.3.5,1,.1.3.3.7.5,1.2.2.5.3,1,.5,1.6h0c1,0,2.2.2,3.5.6.6.2,1.3.5,1.9.9.3.2.6.4.9.7.1.1.3.3.4.4.1.1.2.3.3.5.4.7.7,1.5,1.1,2.1.4.6,1,1.1,1.6,1.5.6.4,1.2.6,1.8.8.6.2,1.2.2,1.7.3,1.1,0,1.9-.1,2.5-.2.1,0,.3,0,.4,0,.1,0,.2,0,.3,0,0,0,.1,0,.2,0,0,0,0,0,0,0Z"/>
        <path class="cls-1" d="M34.3,52.2s0-.2,0-.6c-.1-.4-.4-.9-1-1.4-.3-.3-.6-.5-.9-.8-.3-.3-.7-.6-1-1-.1-.2-.3-.4-.3-.7,0-.2-.1-.5-.2-.8,0-.3-.1-.5-.2-.8,0-.3-.2-.5-.4-.7-.3-.5-.8-.8-1.3-1-.5-.2-1-.4-1.4-.5-1-.2-1.8-.4-2.6-.6-.7-.2-1.3-.5-1.6-.8-.3-.3-.5-.4-.5-.4,0,0,0,0,0,0,0,0,0,0,0,0,0,0,.2.2.4.3.3.2.9.5,1.6.7.7.2,1.6.3,2.6.6.5.1,1,.3,1.5.5.5.2.9.6,1.3,1.1.2.2.3.5.4.8,0,.3.1.5.2.8,0,.3.1.5.2.8,0,.2.2.5.3.7.3.4.6.7.9,1,.3.3.7.5.9.8.5.5.9,1.1,1,1.5,0,.2,0,.4,0,.5,0,0,0,0,0,.1,0,0,0,0,0,0Z"/>
        <path class="cls-1" d="M20.8,42s.1,0,.3,0c.2,0,.5,0,.8,0,.3,0,.6,0,.8,0,.2,0,.3,0,.3,0,0,0-.5,0-1.1,0-.6,0-1.1.1-1.1,0Z"/>
        <path class="cls-1" d="M23.1,40.5s-.1.3-.1.7c0,.4.2.7.1.7,0,0-.2-.3-.2-.7,0-.4.2-.7.2-.7Z"/>
        <path class="cls-1" d="M26.7,50.1s0,0,0,0c0,0,0,0-.1-.2-.1-.1-.3-.4-.4-.7-.1-.3-.3-.7-.3-1.1,0-.4,0-.9,0-1.4.1-.5.3-.9.6-1.3.3-.4.5-.6.8-.8.3-.2.5-.3.7-.4,0,0,.2,0,.2,0,0,0,0,0,0,0,0,0-.4.1-.9.5-.3.2-.5.5-.8.8-.2.4-.5.8-.6,1.3-.1.5-.1,1,0,1.4,0,.4.2.8.3,1.1.3.6.6.9.6.9Z"/>
        <path class="cls-1" d="M26.8,53.4s-.1.1-.4.3c-.1,0-.3.2-.5.2-.2,0-.5,0-.7,0-.3,0-.5-.3-.7-.5-.2-.2-.4-.5-.7-.7-.3-.2-.7-.3-1-.3-.2,0-.4,0-.6-.1-.2,0-.4-.1-.6-.2-.2-.1-.3-.2-.5-.4-.1-.1-.3-.3-.4-.5-.2-.3-.3-.7-.4-1.1,0-.4,0-.7,0-1,0-.3.2-.6.3-.8.3-.5.6-.8.8-1,.1-.1.2-.2.3-.2,0,0,.1,0,.1,0,0,0,0,0,0,0,0,0-.2.1-.3.2-.2.2-.5.5-.8,1-.1.2-.2.5-.3.8,0,.3,0,.7,0,1,0,.3.2.7.4,1,.1.2.2.3.4.5.1.1.3.3.5.4.3.2.8.3,1.1.3.4,0,.8.1,1.1.4.3.2.5.5.7.7.2.2.4.4.7.5.3,0,.5,0,.7,0,.2,0,.4-.1.5-.2.3-.2.4-.3.4-.3Z"/>
        <path class="cls-1" d="M28.2,56.7s0,0-.1,0c0,0-.2,0-.4,0-.3,0-.7-.3-1.1-.7-.3-.4-.5-.8-.5-1.2,0-.2,0-.3,0-.4,0,0,0-.1,0-.1,0,0,0,.2,0,.5,0,.3.2.7.5,1.1.3.4.7.6,1,.7.3.1.5.1.5.1Z"/>
        <path class="cls-1" d="M33.6,62.3s0,0-.1,0c0,0-.2,0-.4.1-.3.1-.8.2-1.4.3-.6,0-1.3,0-2.1-.3-.8-.3-1.5-.8-2.2-1.4-.2-.3-.5-.6-.6-.8h0c-.8,0-1.6-.2-2.1-.6-.6-.4-1-.9-1.2-1.3-.2-.5-.3-.9-.4-1.1,0-.1,0-.2,0-.3,0,0,0-.1,0-.1,0,0,0,0,0,.1,0,0,0,.2,0,.3,0,.3.2.7.4,1.1.2.4.6.9,1.2,1.3.6.4,1.3.6,2.1.6h0s0,0,0,0c.2.3.4.6.6.8.6.7,1.4,1.2,2.1,1.4.8.3,1.5.3,2.1.3.6,0,1.1-.2,1.4-.3.2,0,.3,0,.4-.1,0,0,.1,0,.1,0Z"/>
        <path class="cls-1" d="M20.5,55s0,0,0-.1c0,0,0-.2-.1-.4,0-.3,0-.8,0-1.2.1-.5.4-.8.6-1.1.1-.1.2-.2.3-.2,0,0,.1,0,.1,0,0,0-.2.1-.4.4-.2.2-.5.6-.6,1-.1.5-.1.9,0,1.2,0,.3.1.5.1.5Z"/>
        <path class="cls-1" d="M20.4,50.5s0,0-.1,0c0,0-.2,0-.3,0-.3,0-.6,0-1-.3-.3-.2-.5-.6-.6-.8,0-.1,0-.2,0-.3,0,0,0-.1,0-.1,0,0,0,.2.1.4,0,.2.3.6.6.8.3.2.7.3.9.3.3,0,.4,0,.4,0Z"/>
        <path class="cls-1" d="M19.9,41.4s-.2.2-.4.6c-.1.2-.2.4-.3.7-.1.3-.2.6-.3.9,0,.3-.1.6-.1.9,0,.3,0,.5,0,.8,0,.4,0,.7,0,.7,0,0,0,0,0-.2,0-.1,0-.3,0-.5,0-.2,0-.5,0-.8,0-.3,0-.6.1-.9,0-.3.2-.6.3-.9.1-.3.2-.5.4-.7.1-.2.2-.3.3-.4,0,0,.1-.1.1-.1Z"/>
        <g class="cls-11">
          <path class="cls-5" d="M17.5,37.7c-.1-.8,0-1.6.4-2.2-.7.5-.9,1.4-.7,2.3.1.8.5,1.8,1.3,2-.4-.6-.8-1.3-.9-2.1Z"/>
        </g>
        <path class="cls-1" d="M18.5,39.7s0,0-.2,0c-.1,0-.2-.2-.4-.3-.3-.3-.7-.9-.7-1.6,0-.7.1-1.3.3-1.7.1-.2.2-.3.3-.4,0,0,.1-.1.1-.1,0,0-.2.2-.4.6-.2.4-.4,1-.3,1.7,0,.7.4,1.2.7,1.5.3.3.5.5.5.5Z"/>
        <path class="cls-1" d="M22,31s0,0,0,0c0,0-.1,0-.2,0-.1,0-.3-.2-.6-.4-.2-.2-.4-.5-.6-.8-.2-.3-.3-.8-.2-1.2,0-.4.2-.8.5-1.1.2-.3.5-.5.7-.7.3-.1.5-.2.6-.3,0,0,.1,0,.2,0,0,0,0,0,0,0,0,0-.4,0-.8.3-.2.1-.5.4-.7.7-.2.3-.4.7-.4,1.1,0,.4,0,.8.2,1.2.2.3.4.6.6.8.4.4.8.5.8.5Z"/>
        <path class="cls-1" d="M26.8,34s0-.4,0-1c0-.3-.2-.7-.4-1-.2-.4-.6-.7-1-1-.4-.2-.9-.4-1.3-.4-.4,0-.8,0-1.1.1-.6.2-.9.5-.9.5,0,0,0,0,0,0,0,0,0,0,.2-.1.2-.1.4-.2.7-.3.3-.1.7-.2,1.1-.2.4,0,.9.1,1.4.4.4.3.8.6,1,1,.2.4.4.7.4,1.1,0,.3,0,.6,0,.8,0,0,0,.2,0,.2,0,0,0,0,0,0Z"/>
        <path class="cls-1" d="M30.5,19.9s0,0,0,0c0,0,0,0,0,0,0,0-.1.2-.2.3-.2.3-.4.6-.6,1.2-.2.5-.4,1.2-.3,2,0,.2,0,.4.1.6,0,.2.2.4.3.6.2.4.5.7,1,.9h0s0,0,0,0c-.5.2-.9.6-1.3,1-.4.4-.7.9-.8,1.5-.1.5,0,1.1.1,1.5.2.5.5.9.9,1.1h0s0,0,0,0c-.3.4-.5.8-.6,1.3,0,.4,0,.9,0,1.3,0,.4.2.8.4,1.1.2.3.4.6.5.8.4.5.7.8.9,1.1.1.1.2.2.3.3,0,0,0,0,0,0,0,0,0,0,0,0,0,0,0,0,0,0,0,0,0,0,0,0,0,0-.2-.2-.3-.3-.2-.2-.6-.6-.9-1.1-.2-.2-.4-.5-.6-.8-.2-.3-.3-.7-.4-1.1,0-.4-.1-.9,0-1.3,0-.5.3-.9.6-1.3h0c-.4-.2-.8-.6-.9-1.1-.2-.5-.2-1.1-.1-1.6.1-.6.5-1.2.9-1.6.4-.4.9-.8,1.4-1h0c-.4-.1-.8-.5-1-.9-.1-.2-.2-.4-.3-.6,0-.2-.1-.4-.1-.6,0-.4,0-.8,0-1.1,0-.3.2-.6.3-.9.2-.5.5-.9.7-1.2,0-.1.2-.2.2-.3,0,0,0,0,0,0,0,0,0,0,0,0Z"/>
        <path class="cls-1" d="M30.5,18.9s0,0-.1,0c0,0-.2,0-.3-.1-.3,0-.7-.2-1.2-.2-.5,0-1.2.2-1.8.5-.6.3-1.3.7-1.9,1.2-.4.3-.8.7-1,1.2-.2.4-.2.9-.1,1.3h0c0,0,0,0,0,0-.4-.2-.8-.3-1.1-.4-.3,0-.7-.1-.9-.2-.3,0-.5,0-.6,0,0,0-.1,0-.2,0,0,0,0,0,0,0,0,0,0,0,0,0,0,0,0,0,.2,0,.1,0,.3,0,.6,0,.3,0,.6,0,.9.2.4,0,.7.2,1.1.4h0c-.2-.4-.1-.9,0-1.3.2-.5.6-.9,1-1.2.7-.5,1.3-.9,2-1.2.7-.3,1.3-.4,1.8-.4.5,0,1,0,1.3.2.1,0,.2.1.3.1,0,0,.1,0,.1,0Z"/>
        <path class="cls-1" d="M26,17.3s-.2,0-.4,0c-.3,0-.6,0-.9.3-.3.2-.5.5-.7.7-.1.2-.2.4-.2.4,0,0,0,0,0-.1,0,0,0-.2.1-.3.1-.2.3-.6.7-.8.3-.2.7-.3,1-.3.1,0,.2,0,.3,0,0,0,.1,0,.1,0Z"/>
        <path class="cls-1" d="M33.8,15.2s-.3,0-.7,0c-.4,0-.7,0-.7,0,0,0,.3,0,.7,0,.4,0,.7,0,.7,0Z"/>
        <path class="cls-1" d="M33.5,21.5s0,0,0,0c0,0,0-.1-.1-.2,0-.2-.2-.5-.2-.9,0-.4,0-.8.2-1.3.2-.5.6-.9.8-1.4.1-.3.1-.5,0-.8,0-.3-.2-.5-.3-.7-.2-.5-.1-1,0-1.3,0-.4.3-.6.4-.8,0,0,.1-.1.2-.2,0,0,0,0,0,0,0,0,0,0-.2.3-.1.2-.3.4-.4.8,0,.4-.1.8,0,1.3,0,.2.2.5.3.7,0,.1,0,.3,0,.4,0,.1,0,.3,0,.4-.1.3-.3.5-.4.7-.2.2-.3.4-.4.7-.2.4-.2.9-.2,1.3,0,.4.1.7.2.9,0,.2.1.3.1.3Z"/>
        <path class="cls-1" d="M33.3,29.4s0,0,0-.2c0-.1,0-.3-.1-.6,0-.2-.3-.5-.4-.8-.1-.3-.2-.7-.3-1,0-.8.1-1.5.4-1.9.1-.2.2-.4.3-.5,0-.1.1-.2.2-.2,0,0-.2.2-.4.7-.2.4-.4,1.1-.4,1.9,0,.4.1.7.3,1,.1.3.3.5.4.8.1.2.1.4,0,.6,0,0,0,.1,0,.2,0,0,0,0,0,0Z"/>
        <path class="cls-1" d="M37.5,31.9s0,0,0,.1c0,0-.1.2-.3.3-.2.2-.7.5-1.2.6-.5.1-1,0-1.3-.1-.2,0-.3-.1-.4-.2,0,0-.1,0-.1,0,0,0,.2,0,.5.2.3.1.8.2,1.3,0,.5,0,.9-.3,1.1-.6.3-.2.4-.4.4-.4Z"/>
        <path class="cls-1" d="M32.2,37.4s0,0,.1,0c0,0,.2,0,.4-.1.3-.2.7-.5,1-.8.4-.3.7-.7.9-.9.2-.3.3-.4.4-.4,0,0,0,0,0,.1,0,0-.1.2-.2.3-.2.3-.5.6-.9,1-.4.3-.8.6-1.1.8-.2,0-.3.1-.4.1,0,0-.1,0-.1,0Z"/>
        <path class="cls-1" d="M34.7,38.5s-.1,0-.3-.2c-.2-.1-.4-.4-.5-.7-.1-.3,0-.7,0-.9,0-.2.1-.3.1-.3,0,0,0,.1,0,.3,0,.2,0,.5,0,.8,0,.3.3.6.4.7.2.2.3.2.3.2Z"/>
        <g class="cls-11">
          <path class="cls-5" d="M22.1,31c1-.5,2.2-.5,3.2,0s1.6,1.7,1.5,2.8c.3-.9,0-1.9-.5-2.7-.6-.7-1.5-1.2-2.5-1.1-.6,0-1.2.3-1.8,0-.3,0-.6-.3-.9-.6-.3-.3-.6-.8-.6-1.3,0,0-.4,1.1.3,1.8.7.7,1.2.9,1.2.9Z"/>
        </g>
        <g class="cls-11">
          <path class="cls-5" d="M25.1,19.6c-.4.3-.8.6-1.1,1.1-.3.4-.4.9-.4,1.5-1-.2-1.6-.2-2.6,0,1.1,0,1.9,0,2.8.6,0-.8.3-1.6.8-2.3.5-.6,1.3-1.1,2-1.3.8-.3,1.6-.5,2.4-.6-1.4-.1-2.9.3-4,1.1Z"/>
        </g>
        <g class="cls-11">
          <path class="cls-5" d="M33.8,15.2c-.3,0-.7,0-1,0-.1,0-.3,0-.4-.1.3,0,.5-.1.8-.1,0,0,.1,0,.2,0,0,0,.1-.1.1-.2.2-.3.4-.6.7-.8,0,.2-.1.4-.2.7-.1.2-.2.4-.2.7h0Z"/>
        </g>
        <g class="cls-11">
          <path class="cls-5" d="M33.9,36.5c-.6.6-1.4,1-2.3,1,.5.2,1.1.2,1.6,0,.2.3.5.7.8.9.3.3.8.3,1.2.3-.4-.2-.9-.3-1.1-.6-.2-.3-.2-.6-.2-.9,0-.3,0-.6.1-.8h-.2Z"/>
        </g>
        <g class="cls-11">
          <path class="cls-5" d="M21,41.9c.2-.2.4-.3.7-.4.3,0,.5,0,.8,0,0-.3.1-.5.4-.7,0,0,0,0,0,0,0,0,0,0,0,.1,0,.3,0,.6,0,.9,0,0,0,0,0,.1,0,0,0,0,0,0-.3,0-.7,0-1,0-.3,0-.7,0-1,0h0Z"/>
        </g>
        <g class="cls-11">
          <path class="cls-5" d="M34.4,51.4c-.5-.6-.2-.6-.8-1.1-1.4-1.2-1.7-1.6-2.3-2.5-.2-.3-.2-.6-.2-1-.1-.4,0-.9-.3-1.2-.6-.9-1.3-1.5-2.1-1.6-.4-.3-1.3-.5-1.8-.6-.8-.1-1.2-.2-2-.5-.7-.3-1.3-.5-1.8-1.1h-.1c.5,1,1.5,1.6,2.5,1.9.8.2,1.7.3,2.5.3-.1,0-.2,0-.3.1-2.4,1.8-2.3,3.7-1.3,5.2.9,1.3,1.4,2.9,3,3.5,1.1.5,2.2.9,3.3,1.3-.2-.4-.5-.8-.9-.9-.7-.3-1.5-.5-2.2-.9-1-.5-1.8-1.1-1.6-2.4-2-1-2.4-3.6-.8-5.1.3-.2,1-.4,1.3-.2.8.6,1.6,1.3,2,2.2.7,1.4,1.3,2.8,2.6,3.7.4.3.7.9,1.1,1.3.1.2.3.3.5.4,0,0-.4-.9-.3-1Z"/>
        </g>
        <g class="cls-11">
          <path class="cls-5" d="M31.5,42.4c-1.2-.7-2-2-2.5-3.2.3,1.6,1.3,3.2,2.8,3.9,1.5.7,3.3.8,4.8,0-1.7,0-3.5,0-5-.8Z"/>
        </g>
      </g>
      <g class="cls-10">
        <path class="cls-8" d="M24.6,26.6c-.2-.1-.4-.2-.7-.2-.1,0-.3,0-.4,0-.5.1-.9.3-1.3.5-.5.3-.9.6-1.2,1.1-.1.2-.2.6,0,.8.1.2.4.3.6.2.2,0,.4-.1.6-.2.6-.4,1.2-.9,1.9-1.2.3-.1.7-.2.8-.6,0-.2,0-.4-.3-.6Z"/>
      </g>
      <g class="cls-10">
        <path class="cls-8" d="M28.6,19.3c-.2-.1-.4-.2-.7-.2-.1,0-.3,0-.4,0-.5.1-.9.3-1.3.5-.5.3-.9.6-1.2,1.1-.1.2-.2.6,0,.8.1.2.4.3.6.2.2,0,.4-.1.6-.2.6-.4,1.2-.9,1.9-1.2.3-.1.7-.2.8-.6,0-.2,0-.4-.3-.6Z"/>
      </g>
      <g class="cls-10">
        <path class="cls-8" d="M37,12.9c-.2-.3-.3-.8-.6-1-.5-.3-1-.5-1.8-.6h0c-1.4-.2-2.7.5-3.9,1.3-1.1.8-2.1,1.8-3.4,2.4-.2,0-.4.1-.5.3-.1.1-.3.3-.2.5,0,.3.4.5.7.6,1.1.2,2.2-.4,3.1-1,.9-.6,1.7-1.4,2.8-1.9.5-.2,1.1-.3,1.6,0,.3.2.5.6.8.7.4.2.9.2,1.2-.1.3-.3.4-.8.2-1.2Z"/>
      </g>
      <path class="cls-8" d="M18.2,29.2s0,0,0-.3c0-.2,0-.4.1-.7,0-.3.2-.6.3-1,.1-.4.3-.8.5-1.2.2-.4.4-.8.6-1.1.2-.3.4-.6.6-.8.2-.2.3-.4.5-.5.1-.1.2-.2.2-.2,0,0,0,0-.2.2-.1.1-.3.3-.4.5-.2.2-.4.5-.6.8-.2.3-.4.7-.6,1.1-.2.4-.3.8-.5,1.2-.1.4-.2.7-.3,1,0,.3-.1.5-.1.7,0,.2,0,.2,0,.2Z"/>
      <path class="cls-8" d="M21.6,29.6s0,0-.1,0c0,0-.2-.2-.2-.3-.2-.3-.3-.7-.2-1.2.1-.5.5-.8.7-.9.1,0,.3-.1.3-.1,0,0,.1,0,.1,0,0,0-.2,0-.5.2-.3.2-.6.5-.7.9-.1.4,0,.9.2,1.1.2.3.3.4.3.4Z"/>
      <path class="cls-8" d="M29.5,29.3s0-.1,0-.3c0-.2,0-.5,0-.7,0-.3.2-.5.4-.7.1-.1.2-.2.2-.2,0,0,0,0-.2.2-.1.1-.2.4-.3.6,0,.3,0,.5,0,.7,0,.2,0,.3,0,.3Z"/>
      <path class="cls-8" d="M22.2,20s-.2.2-.2.5c0,.3,0,.5,0,.5,0,0,0,0,0-.2,0,0,0-.2,0-.4,0-.2.1-.3.2-.3,0,0,.1-.1.1,0Z"/>
      <path class="cls-8" d="M18.4,38.1s-.2-.2-.2-.6c0-.3,0-.6,0-.6,0,0,0,.3,0,.6,0,.3.1.6.1.6Z"/>
      <path class="cls-8" d="M17.1,45.5s0,0,0,0c0,0,0-.2-.1-.3-.1-.2-.2-.6-.2-1,0-.4.1-.8.2-1,0-.1.1-.2.1-.3,0,0,0,0,0,0,0,0,0,.1-.2.4,0,.2-.2.6-.2,1,0,.4,0,.7.2,1,0,.2.2.4.2.4Z"/>
      <path class="cls-8" d="M21.7,50.7s0,0,0,0c0,0-.1-.1-.2-.2-.1-.2-.3-.6-.3-1,0-.4.2-.7.3-.9,0,0,.2-.2.2-.2,0,0,0,0,0,0,0,0-.1.1-.3.3-.1.2-.3.5-.3.9,0,.4.1.7.2.9.1.2.2.3.2.3Z"/>
      <path class="cls-8" d="M21.4,54.4s0-.3,0-.7c.1-.4.3-.6.3-.6,0,0-.2.2-.3.6-.1.3,0,.6-.1.6Z"/>
      <path class="cls-8" d="M27.6,48.9s0,0-.1,0c0,0-.2-.1-.3-.2-.3-.2-.6-.6-.6-1.2,0-.5.1-1,.3-1.3,0-.1.2-.2.3-.3,0,0,.1,0,.1,0,0,0-.2.1-.3.4-.2.3-.3.7-.3,1.3,0,.5.4.9.6,1.1.2.2.4.3.4.3Z"/>
      <path class="cls-8" d="M26.7,59.5s0,0-.2,0c0,0-.2,0-.4-.1-.2,0-.4-.2-.6-.3-.2-.1-.4-.3-.6-.5-.2-.2-.4-.4-.5-.6-.1-.2-.3-.4-.3-.5,0-.2-.1-.3-.2-.4,0,0,0-.1,0-.2,0,0,0,.2.3.5,0,.2.2.3.4.5.2.2.3.4.5.6.2.2.4.3.6.5.2.1.4.2.6.3.3.1.5.2.5.2Z"/>
      <path class="cls-8" d="M25.1,42.1s-.4-.1-.8-.5c-.4-.4-.5-.8-.5-.8,0,0,.2.4.5.8.4.4.7.6.7.6Z"/>
      <path class="cls-8" d="M30.8,34.3s-.4-.2-.7-.6c-.3-.4-.4-.8-.4-.8,0,0,.2.4.5.8.3.4.6.7.6.7Z"/>
      <g class="cls-10">
        <path class="cls-8" d="M18.9,34c.2-.1.5,0,.7,0,.2.1.3.4.5.6.7.8.7,1.7,1.7,1.9,1,.2,2.1.3,3,.8.2.1.5.3.5.6,0,.3-.1.6-.4.7s-.6.2-.9.1c-1,0-2-.5-2.9-1-1.3-.6-1.8-1.6-2.4-2.9,0,0-.3-.6.1-.9Z"/>
      </g>
      <g class="cls-10">
        <path class="cls-8" d="M27.3,39.1h-.2c-.3,0-.6.2-.6.6,0,.3.2.6.6.7.3,0,.7-.2.7-.5,0-.3-.1-.7-.5-.8Z"/>
      </g>
    </g>
  </g>
  <g id="Virus">
    <path class="cls-8" d="M56.7,17.2c0,.3-.2.7-.4.9,0,0,0,.2,0,.3,0,0,0,0,0,.1,0,.2,0,.4,0,.5-1-1.8-1.1-2.5-2.7-3.1-1.6-.6-2-1-3.1-1.9,0,0,.1,0,.2,0s0,0,.1,0c.3-.2.6-.3,1-.4.2-.2.5-.4.8-.4s.5.1.8.3c0,0,.1,0,.2,0,.1,0,.2,0,.4,0s.3,0,.3,0c0,0,.1,0,.2,0,.3.1.5.4.6.6,0,0,0,0,.1,0,0,0,.3.2.3.3,0,0,.1.1.2.2.4,0,.7.3.8.7,0,.3,0,.6,0,.8,0,0,0,0,0,0,0,0,0,0,0,0,.2.2.3.5.3.8Z"/>
  </g>
  <g id="Virus-2" data-name="Virus">
    <g>
      <path class="cls-9" d="M52.5,20.3c0,0,0-.1.2-.1.1,0,.2,0,.2.1s0,.1-.2.1c-.1,0-.2,0-.2-.1Z"/>
      <path class="cls-9" d="M52.6,20.1c0,0,0-.1.2-.1.1,0,.2,0,.2.1,0,0,0,.1-.2.1s-.2,0-.2-.1Z"/>
      <path class="cls-9" d="M52.3,20.1c0,0,0-.1.2-.1s.2,0,.2.1,0,.1-.2.1c-.1,0-.2,0-.2-.1Z"/>
    </g>
    <g>
      <path class="cls-9" d="M51.5,20.1c0,0,0-.1-.1-.2,0,0-.2,0-.2,0,0,0,0,.1.1.2,0,0,.2,0,.2,0Z"/>
      <path class="cls-9" d="M51.5,19.9c0,0,0-.1-.1-.2,0,0-.2,0-.2,0,0,0,0,.1.1.2,0,0,.2,0,.2,0Z"/>
      <path class="cls-9" d="M51.8,20.1c0,0,0-.1-.1-.2s-.2,0-.2,0c0,0,0,.1.1.2,0,0,.2,0,.2,0Z"/>
    </g>
    <g>
      <path class="cls-9" d="M49.7,18.4c0,0,.1,0,.2.1s0,.2,0,.2c0,0-.1,0-.2-.1s0-.2,0-.2Z"/>
      <path class="cls-9" d="M50,18.4c0,0,.1,0,.2.1,0,0,0,.2,0,.2,0,0-.1,0-.2-.1s0-.2,0-.2Z"/>
      <path class="cls-9" d="M49.8,18.1c0,0,.1,0,.2.1s0,.2,0,.2c0,0-.1,0-.2-.1s0-.2,0-.2Z"/>
    </g>
    <g>
      <path class="cls-9" d="M49.5,17.5c0,0,.1,0,0-.2,0-.1,0-.2-.1-.2s-.1,0,0,.2c0,.1,0,.2.1.2Z"/>
      <path class="cls-9" d="M49.7,17.4c0,0,.1,0,0-.2,0-.1,0-.2-.1-.2s-.1,0,0,.2c0,.1,0,.2.1.2Z"/>
      <path class="cls-9" d="M49.7,17.7c0,0,.1,0,0-.2,0-.1,0-.2-.1-.2,0,0-.1,0,0,.2,0,.1,0,.2.1.2Z"/>
    </g>
    <g>
      <path class="cls-9" d="M49.7,15.8c0,0,0,.1,0,.2s-.1.2-.2.1c0,0,0-.1,0-.2,0,0,.1-.2.2-.1Z"/>
      <path class="cls-9" d="M49.9,16c0,0,0,.1,0,.2s-.1.2-.2.1c0,0,0-.1,0-.2,0,0,.1-.2.2-.1Z"/>
      <path class="cls-9" d="M50,15.7c0,0,0,.1,0,.2,0,0-.1.2-.2.1,0,0,0-.1,0-.2,0,0,.1-.2.2-.1Z"/>
    </g>
    <g>
      <path class="cls-9" d="M50.2,15s.1,0,.2,0,0-.2,0-.2c0,0-.1,0-.2,0,0,0,0,.2,0,.2Z"/>
      <path class="cls-9" d="M50.5,15.1s.1,0,.2,0c0,0,0-.2,0-.2,0,0-.1,0-.2,0,0,0,0,.2,0,.2Z"/>
      <path class="cls-9" d="M50.2,15.3s.1,0,.2,0c0,0,0-.2,0-.2,0,0-.1,0-.2,0,0,0,0,.2,0,.2Z"/>
    </g>
    <path class="cls-7" d="M53.7,14.3c1.6.5,2.4,2.3,1.9,3.8-.5,1.6-2.3,2.4-3.8,1.9-1.6-.5-2.4-2.3-1.9-3.8s2.3-2.4,3.8-1.9Z"/>
    <path class="cls-2" d="M54.6,14.8c.7.6,1.5,2.7,0,4.3-1.5,1.6-3.6.5-4.2,0,.3.4.8.8,1.4,1,1.6.5,3.3-.3,3.8-1.9.4-1.2,0-2.6-1-3.3Z"/>
    <g>
      <path class="cls-6" d="M52.5,16.8c0,.1-.1.2-.2.2s-.2-.1-.2-.2.1-.2.2-.2.2.1.2.2Z"/>
      <path class="cls-6" d="M53,16.9c0,.1-.1.2-.2.2s-.2-.1-.2-.2.1-.2.2-.2.2.1.2.2Z"/>
      <path class="cls-6" d="M52.4,17.3c0,.1-.1.2-.2.2s-.2-.1-.2-.2.1-.2.2-.2.2.1.2.2Z"/>
      <path class="cls-6" d="M52.9,17.4c0,.1-.1.2-.2.2s-.2-.1-.2-.2.1-.2.2-.2.2.1.2.2Z"/>
    </g>
    <g>
      <path class="cls-6" d="M50.6,15.5c0,.1-.2.2-.3.1,0,0-.1-.2,0-.3,0-.1.2-.2.3-.1,0,0,.1.2,0,.3Z"/>
      <path class="cls-6" d="M50.9,15.8c0,.1-.2.2-.3.1,0,0-.1-.2,0-.3,0-.1.2-.2.3-.1,0,0,.1.2,0,.3Z"/>
      <path class="cls-6" d="M50.3,15.9c0,.1-.2.2-.3.1,0,0-.1-.2,0-.3,0-.1.2-.2.3-.1,0,0,.1.2,0,.3Z"/>
      <path class="cls-6" d="M50.6,16.2c0,.1-.2.2-.3.1,0,0-.1-.2,0-.3,0-.1.2-.2.3-.1,0,0,.1.2,0,.3Z"/>
    </g>
    <g>
      <path class="cls-6" d="M50.2,17.5c0,.1,0,.2-.2.2s-.2,0-.2-.2,0-.2.2-.2.2,0,.2.2Z"/>
      <path class="cls-6" d="M50.6,17.6c0,.1,0,.2-.2.2s-.2,0-.2-.2,0-.2.2-.2.2,0,.2.2Z"/>
      <path class="cls-6" d="M50.1,17.9c0,.1,0,.2-.2.2s-.2,0-.2-.2,0-.2.2-.2.2,0,.2.2Z"/>
      <path class="cls-6" d="M50.5,18c0,.1,0,.2-.2.2s-.2,0-.2-.2,0-.2.2-.2.2,0,.2.2Z"/>
    </g>
    <g>
      <path class="cls-6" d="M53.1,15c0,.1-.1.2-.2.2s-.2,0-.2-.2.1-.2.2-.2.2,0,.2.2Z"/>
      <ellipse class="cls-6" cx="53.3" cy="15.1" rx=".2" ry=".2"/>
      <path class="cls-6" d="M53,15.3c0,.1-.1.2-.2.2s-.2,0-.2-.2.1-.2.2-.2.2,0,.2.2Z"/>
      <path class="cls-6" d="M53.5,15.4c0,.1-.1.2-.2.2s-.2,0-.2-.2.1-.2.2-.2.2,0,.2.2Z"/>
    </g>
    <g>
      <path class="cls-6" d="M54.8,16.7c0,0-.2,0-.2-.2s0-.3.1-.3c0,0,.2,0,.2.2,0,.1,0,.3-.1.3Z"/>
      <path class="cls-6" d="M54.9,17.2c0,0-.2,0-.2-.2,0-.1,0-.3.1-.3,0,0,.2,0,.2.2,0,.1,0,.3-.1.3Z"/>
      <path class="cls-6" d="M54.5,16.7c0,0-.2,0-.2-.2,0-.1,0-.3.1-.3,0,0,.2,0,.2.2,0,.1,0,.3-.1.3Z"/>
      <path class="cls-6" d="M54.5,17.2c0,0-.2,0-.2-.2,0-.1,0-.3.1-.3,0,0,.2,0,.2.2,0,.1,0,.3-.1.3Z"/>
    </g>
    <g>
      <path class="cls-6" d="M54.2,18.8c0,0,0-.2,0-.3s.2-.1.3,0c0,0,0,.2,0,.3,0,.1-.2.1-.3,0Z"/>
      <path class="cls-6" d="M53.9,19.1c0,0,0-.2,0-.3,0-.1.2-.1.3,0,0,0,0,.2,0,.3s-.2.1-.3,0Z"/>
      <path class="cls-6" d="M54,18.5c0,0,0-.2,0-.3,0-.1.2-.1.3,0s0,.2,0,.3c0,.1-.2.1-.3,0Z"/>
      <path class="cls-6" d="M53.6,18.9c0,0,0-.2,0-.3,0-.1.2-.1.3,0s0,.2,0,.3c0,.1-.2.1-.3,0Z"/>
    </g>
    <g>
      <path class="cls-6" d="M52,19.4c0-.1.1-.2.3-.2.1,0,.2.1.2.2s-.1.2-.3.2-.2-.1-.2-.2Z"/>
      <path class="cls-6" d="M51.5,19.3c0-.1.1-.2.3-.2.1,0,.2.1.2.2,0,.1-.1.2-.3.2s-.2-.1-.2-.2Z"/>
      <path class="cls-6" d="M52.1,19.1c0-.1.1-.2.3-.2.1,0,.2.1.2.2,0,.1-.1.2-.3.2s-.2-.1-.2-.2Z"/>
      <path class="cls-6" d="M51.7,19c0-.1.1-.2.3-.2.1,0,.2.1.2.2,0,.1-.1.2-.3.2-.1,0-.2-.1-.2-.2Z"/>
    </g>
    <g>
      <path class="cls-9" d="M52.4,15.8c0,.1,0,.2-.2.2s-.2,0-.2-.2,0-.2.2-.2.2,0,.2.2Z"/>
      <circle class="cls-9" cx="52" cy="16.1" r=".2"/>
      <circle class="cls-9" cx="52.4" cy="16.1" r=".2"/>
    </g>
    <g>
      <path class="cls-9" d="M51.9,14.7c0,.1,0,.2-.2.2s-.2,0-.2-.2,0-.2.2-.2.2,0,.2.2Z"/>
      <circle class="cls-9" cx="51.5" cy="15.1" r=".2"/>
      <circle class="cls-9" cx="51.9" cy="15.1" r=".2"/>
    </g>
    <g>
      <path class="cls-9" d="M52.7,14c0,0,0,.1-.2.1s-.2,0-.2-.1,0-.1.2-.1.2,0,.2.1Z"/>
      <ellipse class="cls-9" cx="52.4" cy="14.2" rx=".2" ry=".1"/>
      <ellipse class="cls-9" cx="52.8" cy="14.2" rx=".2" ry=".1"/>
    </g>
    <g>
      <path class="cls-9" d="M53.8,14.2c0,0,0,.1.1.2s.2,0,.2,0c0,0,0-.1-.1-.2s-.2,0-.2,0Z"/>
      <path class="cls-9" d="M53.8,14.5c0,0,0,.1.1.2s.2,0,.2,0c0,0,0-.1-.1-.2s-.2,0-.2,0Z"/>
      <path class="cls-9" d="M53.5,14.3c0,0,0,.1.1.2s.2,0,.2,0c0,0,0-.1-.1-.2s-.2,0-.2,0Z"/>
    </g>
    <g>
      <path class="cls-9" d="M55.7,15.9c0,0-.1,0-.2-.1,0-.1,0-.2,0-.2,0,0,.1,0,.2.1,0,.1,0,.2,0,.2Z"/>
      <path class="cls-9" d="M55.4,15.9c0,0-.1,0-.2-.1,0-.1,0-.2,0-.2,0,0,.1,0,.2.1,0,.1,0,.2,0,.2Z"/>
      <path class="cls-9" d="M55.6,16.2c0,0-.1,0-.2-.1,0-.1,0-.2,0-.2,0,0,.1,0,.2.1,0,.1,0,.2,0,.2Z"/>
    </g>
    <g>
      <path class="cls-9" d="M55.9,17c0,0-.1,0-.1.2,0,.1,0,.2.1.2,0,0,.1,0,.1-.2,0-.1,0-.2-.1-.2Z"/>
      <path class="cls-9" d="M55.6,17.1c0,0-.1,0-.1.2,0,.1,0,.2.1.2s.1,0,.1-.2c0-.1,0-.2-.1-.2Z"/>
      <path class="cls-9" d="M55.7,16.7c0,0-.1,0-.1.2,0,.1,0,.2.1.2,0,0,.1,0,.1-.2,0-.1,0-.2-.1-.2Z"/>
    </g>
    <g>
      <path class="cls-9" d="M55.2,18.9c0,0,0-.1,0-.2,0,0,.1-.1.2,0s0,.1,0,.2c0,0-.1.1-.2,0Z"/>
      <path class="cls-9" d="M55.1,18.7c0,0,0-.1,0-.2,0,0,.1-.1.2,0,0,0,0,.1,0,.2s-.1.1-.2,0Z"/>
      <path class="cls-9" d="M55,19c0,0,0-.1,0-.2s.1-.1.2,0c0,0,0,.1,0,.2s-.1.1-.2,0Z"/>
    </g>
    <g>
      <path class="cls-9" d="M54.6,19.6s-.1,0-.2,0c0,0-.1.2,0,.2,0,0,.1,0,.2,0,0,0,.1-.2,0-.2Z"/>
      <path class="cls-9" d="M54.4,19.6s-.1,0-.2,0-.1.2,0,.2c0,0,.1,0,.2,0s.1-.2,0-.2Z"/>
      <path class="cls-9" d="M54.7,19.4s-.1,0-.2,0c0,0-.1.2,0,.2,0,0,.1,0,.2,0,0,0,.1-.2,0-.2Z"/>
    </g>
    <g>
      <circle class="cls-9" cx="51.3" cy="16.7" r=".2"/>
      <circle class="cls-9" cx="51.2" cy="17.1" r=".2"/>
      <circle class="cls-9" cx="51.5" cy="17" r=".2"/>
    </g>
    <g>
      <path class="cls-9" d="M51.8,17.9c0,.1,0,.2-.2.2s-.2,0-.2-.2,0-.2.2-.2.2,0,.2.2Z"/>
      <circle class="cls-9" cx="51.4" cy="18.2" r=".2"/>
      <circle class="cls-9" cx="51.8" cy="18.2" r=".2"/>
    </g>
    <g>
      <path class="cls-9" d="M53.2,18.4c0,0-.2,0-.3,0,0,0,0-.2,0-.3,0,0,.2,0,.3,0s0,.2,0,.3Z"/>
      <path class="cls-9" d="M52.8,18.5c0,0-.2,0-.3,0s0-.2,0-.3c0,0,.2,0,.3,0,0,0,0,.2,0,.3Z"/>
      <path class="cls-9" d="M53.2,18.8c0,0-.2,0-.3,0,0,0,0-.2,0-.3,0,0,.2,0,.3,0,0,0,0,.2,0,.3Z"/>
    </g>
    <g>
      <path class="cls-9" d="M53.7,19.5c0,0-.2,0-.3,0,0,0,0-.2,0-.3,0,0,.2,0,.3,0,0,0,0,.2,0,.3Z"/>
      <path class="cls-9" d="M53.3,19.7c0,0-.2,0-.3,0s0-.2,0-.3c0,0,.2,0,.3,0,0,0,0,.2,0,.3Z"/>
      <path class="cls-9" d="M53.6,19.9c0,0-.2,0-.3,0,0,0,0-.2,0-.3,0,0,.2,0,.3,0,0,0,0,.2,0,.3Z"/>
    </g>
    <g>
      <path class="cls-9" d="M50.9,19c0,0-.2,0-.3,0,0,0,0-.2,0-.3,0,0,.2,0,.3,0s0,.2,0,.3Z"/>
      <path class="cls-9" d="M50.5,19.2c0,0-.2,0-.3,0s0-.2,0-.3.2,0,.3,0c0,0,0,.2,0,.3Z"/>
      <path class="cls-9" d="M50.8,19.4c0,0-.2,0-.3,0,0,0,0-.2,0-.3,0,0,.2,0,.3,0,0,0,0,.2,0,.3Z"/>
    </g>
    <g>
      <path class="cls-9" d="M53.7,17.2c0,0,0,.2,0,.3,0,0-.2,0-.3,0s0-.2,0-.3.2,0,.3,0Z"/>
      <path class="cls-9" d="M53.8,17.6c0,0,0,.2,0,.3,0,0-.2,0-.3,0,0,0,0-.2,0-.3s.2,0,.3,0Z"/>
      <path class="cls-9" d="M54.1,17.3c0,0,0,.2,0,.3s-.2,0-.3,0,0-.2,0-.3c0,0,.2,0,.3,0Z"/>
    </g>
    <g>
      <path class="cls-9" d="M54.9,17.6c0,0,0,.2,0,.3s-.2,0-.3,0,0-.2,0-.3c0,0,.2,0,.3,0Z"/>
      <path class="cls-9" d="M55,18c0,0,0,.2,0,.3s-.2,0-.3,0,0-.2,0-.3.2,0,.3,0Z"/>
      <path class="cls-9" d="M55.3,17.8c0,0,0,.2,0,.3,0,0-.2,0-.3,0,0,0,0-.2,0-.3,0,0,.2,0,.3,0Z"/>
    </g>
    <g>
      <path class="cls-9" d="M53.7,16.3c0,0-.2,0-.3,0s0-.2,0-.3.2,0,.3,0,0,.2,0,.3Z"/>
      <path class="cls-9" d="M53.3,16.5c0,0-.2,0-.3,0,0,0,0-.2,0-.3,0,0,.2,0,.3,0s0,.2,0,.3Z"/>
      <path class="cls-9" d="M53.6,16.7c0,0-.2,0-.3,0,0,0,0-.2,0-.3,0,0,.2,0,.3,0,0,0,0,.2,0,.3Z"/>
    </g>
    <g>
      <path class="cls-9" d="M54.7,15.4c0,0-.2,0-.3,0,0,0,0-.2,0-.3s.2,0,.3,0,0,.2,0,.3Z"/>
      <path class="cls-9" d="M54.3,15.5c0,0-.2,0-.3,0,0,0,0-.2,0-.3,0,0,.2,0,.3,0,0,0,0,.2,0,.3Z"/>
      <path class="cls-9" d="M54.6,15.8c0,0-.2,0-.3,0,0,0,0-.2,0-.3,0,0,.2,0,.3,0s0,.2,0,.3Z"/>
    </g>
  </g>
  <g id="Virus-3" data-name="Virus">
    <g>
      <path class="cls-9" d="M38.8,41.3c0,0,0-.1.2-.1.1,0,.2,0,.2.1s0,.1-.2.1c-.1,0-.2,0-.2-.1Z"/>
      <path class="cls-9" d="M39,41.1c0,0,0-.1.2-.1.1,0,.2,0,.2.1,0,0,0,.1-.2.1s-.2,0-.2-.1Z"/>
      <path class="cls-9" d="M38.6,41.1c0,0,0-.1.2-.1s.2,0,.2.1,0,.1-.2.1c-.1,0-.2,0-.2-.1Z"/>
    </g>
    <g>
      <path class="cls-9" d="M37.9,41.1c0,0,0-.1-.1-.2,0,0-.2,0-.2,0,0,0,0,.1.1.2,0,0,.2,0,.2,0Z"/>
      <path class="cls-9" d="M37.8,40.9c0,0,0-.1-.1-.2,0,0-.2,0-.2,0,0,0,0,.1.1.2,0,0,.2,0,.2,0Z"/>
      <path class="cls-9" d="M38.2,41.1c0,0,0-.1-.1-.2s-.2,0-.2,0c0,0,0,.1.1.2,0,0,.2,0,.2,0Z"/>
    </g>
    <g>
      <path class="cls-9" d="M36.1,39.4c0,0,.1,0,.2.1s0,.2,0,.2c0,0-.1,0-.2-.1s0-.2,0-.2Z"/>
      <path class="cls-9" d="M36.3,39.4c0,0,.1,0,.2.1,0,0,0,.2,0,.2,0,0-.1,0-.2-.1s0-.2,0-.2Z"/>
      <path class="cls-9" d="M36.1,39.1c0,0,.1,0,.2.1s0,.2,0,.2c0,0-.1,0-.2-.1s0-.2,0-.2Z"/>
    </g>
    <g>
      <path class="cls-9" d="M35.8,38.5c0,0,.1,0,0-.2,0-.1,0-.2-.1-.2s-.1,0,0,.2c0,.1,0,.2.1.2Z"/>
      <path class="cls-9" d="M36,38.4c0,0,.1,0,0-.2,0-.1,0-.2-.1-.2s-.1,0,0,.2c0,.1,0,.2.1.2Z"/>
      <path class="cls-9" d="M36,38.7c0,0,.1,0,0-.2,0-.1,0-.2-.1-.2,0,0-.1,0,0,.2,0,.1,0,.2.1.2Z"/>
    </g>
    <g>
      <path class="cls-9" d="M36.1,36.8c0,0,0,.1,0,.2s-.1.2-.2.1c0,0,0-.1,0-.2,0,0,.1-.2.2-.1Z"/>
      <path class="cls-9" d="M36.2,37c0,0,0,.1,0,.2s-.1.2-.2.1c0,0,0-.1,0-.2,0,0,.1-.2.2-.1Z"/>
      <path class="cls-9" d="M36.3,36.7c0,0,0,.1,0,.2,0,0-.1.2-.2.1,0,0,0-.1,0-.2,0,0,.1-.2.2-.1Z"/>
    </g>
    <g>
      <path class="cls-9" d="M36.6,36s.1,0,.2,0,0-.2,0-.2c0,0-.1,0-.2,0,0,0,0,.2,0,.2Z"/>
      <path class="cls-9" d="M36.8,36.1s.1,0,.2,0c0,0,0-.2,0-.2,0,0-.1,0-.2,0,0,0,0,.2,0,.2Z"/>
      <path class="cls-9" d="M36.6,36.3s.1,0,.2,0c0,0,0-.2,0-.2,0,0-.1,0-.2,0,0,0,0,.2,0,.2Z"/>
    </g>
    <path class="cls-7" d="M40,35.3c1.6.5,2.4,2.3,1.9,3.8-.5,1.6-2.3,2.4-3.8,1.9-1.6-.5-2.4-2.3-1.9-3.8.5-1.6,2.3-2.4,3.8-1.9Z"/>
    <path class="cls-2" d="M40.9,35.8c.7.6,1.5,2.7,0,4.3-1.5,1.6-3.6.5-4.2,0,.3.4.8.8,1.4,1,1.6.5,3.3-.3,3.8-1.9.4-1.2,0-2.6-1-3.3Z"/>
    <g>
      <path class="cls-6" d="M38.9,37.8c0,.1-.1.2-.2.2s-.2-.1-.2-.2.1-.2.2-.2.2.1.2.2Z"/>
      <path class="cls-6" d="M39.4,37.9c0,.1-.1.2-.2.2s-.2-.1-.2-.2.1-.2.2-.2.2.1.2.2Z"/>
      <path class="cls-6" d="M38.8,38.3c0,.1-.1.2-.2.2s-.2-.1-.2-.2.1-.2.2-.2.2.1.2.2Z"/>
      <path class="cls-6" d="M39.3,38.4c0,.1-.1.2-.2.2s-.2-.1-.2-.2.1-.2.2-.2.2.1.2.2Z"/>
    </g>
    <g>
      <path class="cls-6" d="M36.9,36.5c0,.1-.2.2-.3.1,0,0-.1-.2,0-.3,0-.1.2-.2.3-.1,0,0,.1.2,0,.3Z"/>
      <path class="cls-6" d="M37.2,36.8c0,.1-.2.2-.3.1,0,0-.1-.2,0-.3,0-.1.2-.2.3-.1,0,0,.1.2,0,.3Z"/>
      <path class="cls-6" d="M36.6,36.9c0,.1-.2.2-.3.1,0,0-.1-.2,0-.3,0-.1.2-.2.3-.1,0,0,.1.2,0,.3Z"/>
      <path class="cls-6" d="M36.9,37.2c0,.1-.2.2-.3.1,0,0-.1-.2,0-.3,0-.1.2-.2.3-.1,0,0,.1.2,0,.3Z"/>
    </g>
    <g>
      <path class="cls-6" d="M36.5,38.5c0,.1,0,.2-.2.2s-.2,0-.2-.2,0-.2.2-.2.2,0,.2.2Z"/>
      <path class="cls-6" d="M36.9,38.6c0,.1,0,.2-.2.2s-.2,0-.2-.2,0-.2.2-.2.2,0,.2.2Z"/>
      <path class="cls-6" d="M36.5,38.9c0,.1,0,.2-.2.2s-.2,0-.2-.2,0-.2.2-.2.2,0,.2.2Z"/>
      <path class="cls-6" d="M36.9,39c0,.1,0,.2-.2.2s-.2,0-.2-.2,0-.2.2-.2.2,0,.2.2Z"/>
    </g>
    <g>
      <path class="cls-6" d="M39.5,36c0,.1-.1.2-.2.2s-.2,0-.2-.2.1-.2.2-.2.2,0,.2.2Z"/>
      <ellipse class="cls-6" cx="39.7" cy="36.1" rx=".2" ry=".2"/>
      <path class="cls-6" d="M39.4,36.3c0,.1-.1.2-.2.2s-.2,0-.2-.2.1-.2.2-.2.2,0,.2.2Z"/>
      <path class="cls-6" d="M39.8,36.4c0,.1-.1.2-.2.2s-.2,0-.2-.2.1-.2.2-.2.2,0,.2.2Z"/>
    </g>
    <g>
      <path class="cls-6" d="M41.2,37.7c0,0-.2,0-.2-.2s0-.3.1-.3c0,0,.2,0,.2.2,0,.1,0,.3-.1.3Z"/>
      <path class="cls-6" d="M41.2,38.2c0,0-.2,0-.2-.2,0-.1,0-.3.1-.3,0,0,.2,0,.2.2,0,.1,0,.3-.1.3Z"/>
      <path class="cls-6" d="M40.8,37.7c0,0-.2,0-.2-.2,0-.1,0-.3.1-.3,0,0,.2,0,.2.2,0,.1,0,.3-.1.3Z"/>
      <path class="cls-6" d="M40.9,38.2c0,0-.2,0-.2-.2,0-.1,0-.3.1-.3,0,0,.2,0,.2.2,0,.1,0,.3-.1.3Z"/>
    </g>
    <g>
      <path class="cls-6" d="M40.6,39.8c0,0,0-.2,0-.3s.2-.1.3,0c0,0,0,.2,0,.3,0,.1-.2.1-.3,0Z"/>
      <path class="cls-6" d="M40.2,40.1c0,0,0-.2,0-.3,0-.1.2-.1.3,0,0,0,0,.2,0,.3s-.2.1-.3,0Z"/>
      <path class="cls-6" d="M40.3,39.5c0,0,0-.2,0-.3,0-.1.2-.1.3,0s0,.2,0,.3c0,.1-.2.1-.3,0Z"/>
      <path class="cls-6" d="M40,39.9c0,0,0-.2,0-.3,0-.1.2-.1.3,0s0,.2,0,.3c0,.1-.2.1-.3,0Z"/>
    </g>
    <g>
      <path class="cls-6" d="M38.3,40.4c0-.1.1-.2.3-.2.1,0,.2.1.2.2s-.1.2-.3.2-.2-.1-.2-.2Z"/>
      <path class="cls-6" d="M37.9,40.3c0-.1.1-.2.3-.2.1,0,.2.1.2.2,0,.1-.1.2-.3.2s-.2-.1-.2-.2Z"/>
      <path class="cls-6" d="M38.5,40.1c0-.1.1-.2.3-.2.1,0,.2.1.2.2,0,.1-.1.2-.3.2s-.2-.1-.2-.2Z"/>
      <path class="cls-6" d="M38,40c0-.1.1-.2.3-.2.1,0,.2.1.2.2,0,.1-.1.2-.3.2-.1,0-.2-.1-.2-.2Z"/>
    </g>
    <g>
      <path class="cls-9" d="M38.7,36.8c0,.1,0,.2-.2.2s-.2,0-.2-.2,0-.2.2-.2.2,0,.2.2Z"/>
      <circle class="cls-9" cx="38.4" cy="37.1" r=".2"/>
      <circle class="cls-9" cx="38.7" cy="37.1" r=".2"/>
    </g>
    <g>
      <path class="cls-9" d="M38.2,35.7c0,.1,0,.2-.2.2s-.2,0-.2-.2,0-.2.2-.2.2,0,.2.2Z"/>
      <circle class="cls-9" cx="37.9" cy="36.1" r=".2"/>
      <circle class="cls-9" cx="38.3" cy="36.1" r=".2"/>
    </g>
    <g>
      <path class="cls-9" d="M39.1,35c0,0,0,.1-.2.1s-.2,0-.2-.1,0-.1.2-.1.2,0,.2.1Z"/>
      <ellipse class="cls-9" cx="38.8" cy="35.2" rx=".2" ry=".1"/>
      <ellipse class="cls-9" cx="39.1" cy="35.2" rx=".2" ry=".1"/>
    </g>
    <g>
      <path class="cls-9" d="M40.1,35.2c0,0,0,.1.1.2s.2,0,.2,0c0,0,0-.1-.1-.2s-.2,0-.2,0Z"/>
      <path class="cls-9" d="M40.2,35.5c0,0,0,.1.1.2s.2,0,.2,0c0,0,0-.1-.1-.2s-.2,0-.2,0Z"/>
      <path class="cls-9" d="M39.8,35.3c0,0,0,.1.1.2s.2,0,.2,0c0,0,0-.1-.1-.2s-.2,0-.2,0Z"/>
    </g>
    <g>
      <path class="cls-9" d="M42,36.9c0,0-.1,0-.2-.1,0-.1,0-.2,0-.2,0,0,.1,0,.2.1,0,.1,0,.2,0,.2Z"/>
      <path class="cls-9" d="M41.7,36.9c0,0-.1,0-.2-.1,0-.1,0-.2,0-.2,0,0,.1,0,.2.1,0,.1,0,.2,0,.2Z"/>
      <path class="cls-9" d="M41.9,37.2c0,0-.1,0-.2-.1,0-.1,0-.2,0-.2,0,0,.1,0,.2.1,0,.1,0,.2,0,.2Z"/>
    </g>
    <g>
      <path class="cls-9" d="M42.2,38c0,0-.1,0-.1.2,0,.1,0,.2.1.2,0,0,.1,0,.1-.2,0-.1,0-.2-.1-.2Z"/>
      <path class="cls-9" d="M42,38.1c0,0-.1,0-.1.2,0,.1,0,.2.1.2s.1,0,.1-.2c0-.1,0-.2-.1-.2Z"/>
      <path class="cls-9" d="M42,37.7c0,0-.1,0-.1.2,0,.1,0,.2.1.2,0,0,.1,0,.1-.2,0-.1,0-.2-.1-.2Z"/>
    </g>
    <g>
      <path class="cls-9" d="M41.6,39.9c0,0,0-.1,0-.2,0,0,.1-.1.2,0s0,.1,0,.2c0,0-.1.1-.2,0Z"/>
      <path class="cls-9" d="M41.5,39.7c0,0,0-.1,0-.2,0,0,.1-.1.2,0,0,0,0,.1,0,.2s-.1.1-.2,0Z"/>
      <path class="cls-9" d="M41.3,40c0,0,0-.1,0-.2s.1-.1.2,0c0,0,0,.1,0,.2s-.1.1-.2,0Z"/>
    </g>
    <g>
      <path class="cls-9" d="M40.9,40.6s-.1,0-.2,0c0,0-.1.2,0,.2,0,0,.1,0,.2,0,0,0,.1-.2,0-.2Z"/>
      <path class="cls-9" d="M40.7,40.6s-.1,0-.2,0-.1.2,0,.2c0,0,.1,0,.2,0s.1-.2,0-.2Z"/>
      <path class="cls-9" d="M41,40.4s-.1,0-.2,0c0,0-.1.2,0,.2,0,0,.1,0,.2,0,0,0,.1-.2,0-.2Z"/>
    </g>
    <g>
      <circle class="cls-9" cx="37.6" cy="37.7" r=".2"/>
      <circle class="cls-9" cx="37.5" cy="38.1" r=".2"/>
      <circle class="cls-9" cx="37.9" cy="38" r=".2"/>
    </g>
    <g>
      <path class="cls-9" d="M38.1,38.9c0,.1,0,.2-.2.2s-.2,0-.2-.2,0-.2.2-.2.2,0,.2.2Z"/>
      <circle class="cls-9" cx="37.8" cy="39.2" r=".2"/>
      <circle class="cls-9" cx="38.2" cy="39.2" r=".2"/>
    </g>
    <g>
      <path class="cls-9" d="M39.5,39.4c0,0-.2,0-.3,0,0,0,0-.2,0-.3,0,0,.2,0,.3,0s0,.2,0,.3Z"/>
      <path class="cls-9" d="M39.2,39.5c0,0-.2,0-.3,0s0-.2,0-.3c0,0,.2,0,.3,0,0,0,0,.2,0,.3Z"/>
      <path class="cls-9" d="M39.5,39.8c0,0-.2,0-.3,0,0,0,0-.2,0-.3,0,0,.2,0,.3,0,0,0,0,.2,0,.3Z"/>
    </g>
    <g>
      <path class="cls-9" d="M40,40.5c0,0-.2,0-.3,0,0,0,0-.2,0-.3,0,0,.2,0,.3,0,0,0,0,.2,0,.3Z"/>
      <path class="cls-9" d="M39.7,40.7c0,0-.2,0-.3,0s0-.2,0-.3c0,0,.2,0,.3,0,0,0,0,.2,0,.3Z"/>
      <path class="cls-9" d="M40,40.9c0,0-.2,0-.3,0,0,0,0-.2,0-.3,0,0,.2,0,.3,0,0,0,0,.2,0,.3Z"/>
    </g>
    <g>
      <path class="cls-9" d="M37.2,40c0,0-.2,0-.3,0,0,0,0-.2,0-.3,0,0,.2,0,.3,0s0,.2,0,.3Z"/>
      <path class="cls-9" d="M36.9,40.2c0,0-.2,0-.3,0s0-.2,0-.3.2,0,.3,0c0,0,0,.2,0,.3Z"/>
      <path class="cls-9" d="M37.2,40.4c0,0-.2,0-.3,0,0,0,0-.2,0-.3,0,0,.2,0,.3,0,0,0,0,.2,0,.3Z"/>
    </g>
    <g>
      <path class="cls-9" d="M40.1,38.2c0,0,0,.2,0,.3,0,0-.2,0-.3,0s0-.2,0-.3.2,0,.3,0Z"/>
      <path class="cls-9" d="M40.2,38.6c0,0,0,.2,0,.3,0,0-.2,0-.3,0,0,0,0-.2,0-.3s.2,0,.3,0Z"/>
      <path class="cls-9" d="M40.5,38.3c0,0,0,.2,0,.3s-.2,0-.3,0,0-.2,0-.3c0,0,.2,0,.3,0Z"/>
    </g>
    <g>
      <path class="cls-9" d="M41.2,38.6c0,0,0,.2,0,.3s-.2,0-.3,0,0-.2,0-.3c0,0,.2,0,.3,0Z"/>
      <path class="cls-9" d="M41.4,39c0,0,0,.2,0,.3s-.2,0-.3,0,0-.2,0-.3.2,0,.3,0Z"/>
      <path class="cls-9" d="M41.6,38.8c0,0,0,.2,0,.3,0,0-.2,0-.3,0,0,0,0-.2,0-.3,0,0,.2,0,.3,0Z"/>
    </g>
    <g>
      <path class="cls-9" d="M40,37.3c0,0-.2,0-.3,0s0-.2,0-.3.2,0,.3,0,0,.2,0,.3Z"/>
      <path class="cls-9" d="M39.7,37.5c0,0-.2,0-.3,0,0,0,0-.2,0-.3,0,0,.2,0,.3,0s0,.2,0,.3Z"/>
      <path class="cls-9" d="M40,37.7c0,0-.2,0-.3,0,0,0,0-.2,0-.3,0,0,.2,0,.3,0,0,0,0,.2,0,.3Z"/>
    </g>
    <g>
      <path class="cls-9" d="M41,36.4c0,0-.2,0-.3,0,0,0,0-.2,0-.3s.2,0,.3,0,0,.2,0,.3Z"/>
      <path class="cls-9" d="M40.7,36.5c0,0-.2,0-.3,0,0,0,0-.2,0-.3,0,0,.2,0,.3,0,0,0,0,.2,0,.3Z"/>
      <path class="cls-9" d="M41,36.8c0,0-.2,0-.3,0,0,0,0-.2,0-.3,0,0,.2,0,.3,0s0,.2,0,.3Z"/>
    </g>
  </g>
  <g id="Virus-4" data-name="Virus">
    <g>
      <path class="cls-9" d="M46.7,35.3c0,0,0,0,.2,0,0,0,.2,0,.2,0s0,0-.2,0c0,0-.2,0-.2,0Z"/>
      <path class="cls-9" d="M46.8,35.1c0,0,0,0,.2,0,0,0,.2,0,.2,0,0,0,0,0-.2,0s-.2,0-.2,0Z"/>
      <path class="cls-9" d="M46.5,35.2c0,0,0,0,.2,0s.2,0,.2,0,0,0-.2,0c0,0-.2,0-.2,0Z"/>
    </g>
    <g>
      <path class="cls-9" d="M45.9,35.2s0-.1-.1-.1c0,0-.2,0-.2,0,0,0,0,.1.1.1,0,0,.2,0,.2,0Z"/>
      <path class="cls-9" d="M45.9,35s0-.1-.1-.1c0,0-.2,0-.2,0,0,0,0,.1.1.1,0,0,.2,0,.2,0Z"/>
      <path class="cls-9" d="M46.1,35.1s0-.1-.1-.1-.2,0-.2,0c0,0,0,.1.1.1,0,0,.2,0,.2,0Z"/>
    </g>
    <g>
      <path class="cls-9" d="M44.4,33.8s.1,0,.2,0,0,.2,0,.2c0,0-.1,0-.2,0s0-.2,0-.2Z"/>
      <path class="cls-9" d="M44.6,33.8s.1,0,.2,0c0,0,0,.2,0,.2,0,0-.1,0-.2,0s0-.2,0-.2Z"/>
      <path class="cls-9" d="M44.4,33.5s.1,0,.2,0,0,.2,0,.2c0,0-.1,0-.2,0s0-.2,0-.2Z"/>
    </g>
    <g>
      <path class="cls-9" d="M44.2,33c0,0,0,0,0-.2,0,0,0-.1-.1-.1s0,0,0,.2c0,0,0,.1.1.1Z"/>
      <path class="cls-9" d="M44.3,32.9c0,0,0,0,0-.2,0,0,0-.1-.1-.1s0,0,0,.2c0,0,0,.1.1.1Z"/>
      <path class="cls-9" d="M44.3,33.2c0,0,0,0,0-.2,0,0,0-.1-.1-.1,0,0,0,0,0,.2,0,0,0,.1.1.1Z"/>
    </g>
    <g>
      <path class="cls-9" d="M44.4,31.6s0,0,0,.2,0,.1-.1.1c0,0,0,0,0-.2,0,0,0-.1.1-.1Z"/>
      <path class="cls-9" d="M44.5,31.8s0,0,0,.2,0,.1-.1.1c0,0,0,0,0-.2,0,0,0-.1.1-.1Z"/>
      <path class="cls-9" d="M44.6,31.5s0,0,0,.2c0,0,0,.1-.1.1,0,0,0,0,0-.2,0,0,0-.1.1-.1Z"/>
    </g>
    <g>
      <path class="cls-9" d="M44.8,30.9s.1,0,.2,0,0-.1,0-.2c0,0-.1,0-.2,0,0,0,0,.1,0,.2Z"/>
      <path class="cls-9" d="M45,31s.1,0,.2,0c0,0,0-.1,0-.2,0,0-.1,0-.2,0,0,0,0,.1,0,.2Z"/>
      <path class="cls-9" d="M44.8,31.1s.1,0,.2,0c0,0,0-.1,0-.2,0,0-.1,0-.2,0,0,0,0,.1,0,.2Z"/>
    </g>
    <path class="cls-7" d="M47.7,30.3c1.3.5,2,1.9,1.5,3.2-.5,1.3-1.9,2-3.2,1.5-1.3-.5-2-1.9-1.5-3.2s1.9-2,3.2-1.5Z"/>
    <path class="cls-2" d="M48.4,30.7c.6.5,1.2,2.3,0,3.5-1.3,1.3-3,.4-3.5,0,.3.4.7.6,1.1.8,1.3.5,2.7-.2,3.2-1.5.4-1,0-2.1-.8-2.8Z"/>
    <g>
      <path class="cls-6" d="M46.7,32.4c0,.1,0,.2-.2.2s-.2,0-.2-.2,0-.2.2-.2.2,0,.2.2Z"/>
      <path class="cls-6" d="M47.1,32.5c0,.1,0,.2-.2.2s-.2,0-.2-.2,0-.2.2-.2.2,0,.2.2Z"/>
      <path class="cls-6" d="M46.6,32.8c0,.1,0,.2-.2.2s-.2,0-.2-.2,0-.2.2-.2.2,0,.2.2Z"/>
      <path class="cls-6" d="M47,32.9c0,.1,0,.2-.2.2s-.2,0-.2-.2,0-.2.2-.2.2,0,.2.2Z"/>
    </g>
    <g>
      <path class="cls-6" d="M45.1,31.4c0,0-.2.1-.2,0,0,0,0-.2,0-.2,0,0,.2-.1.2,0,0,0,0,.2,0,.2Z"/>
      <path class="cls-6" d="M45.3,31.6c0,0-.2.1-.2,0,0,0,0-.2,0-.2,0,0,.2-.1.2,0,0,0,0,.2,0,.2Z"/>
      <path class="cls-6" d="M44.9,31.7c0,0-.2.1-.2,0,0,0,0-.2,0-.2,0,0,.2-.1.2,0,0,0,0,.2,0,.2Z"/>
      <path class="cls-6" d="M45.1,31.9c0,0-.2.1-.2,0,0,0,0-.2,0-.2,0,0,.2-.1.2,0,0,0,0,.2,0,.2Z"/>
    </g>
    <g>
      <path class="cls-6" d="M44.8,33c0,0,0,.2-.2.2s-.2,0-.2-.2,0-.2.2-.2.2,0,.2.2Z"/>
      <path class="cls-6" d="M45.1,33.1c0,0,0,.2-.2.2s-.2,0-.2-.2,0-.2.2-.2.2,0,.2.2Z"/>
      <path class="cls-6" d="M44.7,33.4c0,0,0,.2-.2.2s-.2,0-.2-.2,0-.2.2-.2.2,0,.2.2Z"/>
      <path class="cls-6" d="M45,33.4c0,0,0,.2-.2.2s-.2,0-.2-.2,0-.2.2-.2.2,0,.2.2Z"/>
    </g>
    <g>
      <path class="cls-6" d="M47.2,30.9c0,0,0,.2-.2.2s-.2,0-.2-.2,0-.2.2-.2.2,0,.2.2Z"/>
      <ellipse class="cls-6" cx="47.4" cy="31" rx=".2" ry=".2"/>
      <path class="cls-6" d="M47.1,31.2c0,0,0,.2-.2.2s-.2,0-.2-.2,0-.2.2-.2.2,0,.2.2Z"/>
      <path class="cls-6" d="M47.5,31.3c0,0,0,.2-.2.2s-.2,0-.2-.2,0-.2.2-.2.2,0,.2.2Z"/>
    </g>
    <g>
      <path class="cls-6" d="M48.6,32.3c0,0-.2,0-.2-.1s0-.2,0-.2c0,0,.2,0,.2.1,0,.1,0,.2,0,.2Z"/>
      <path class="cls-6" d="M48.7,32.7c0,0-.2,0-.2-.1,0-.1,0-.2,0-.2,0,0,.2,0,.2.1,0,.1,0,.2,0,.2Z"/>
      <path class="cls-6" d="M48.3,32.3c0,0-.2,0-.2-.1,0-.1,0-.2,0-.2,0,0,.2,0,.2.1,0,.1,0,.2,0,.2Z"/>
      <path class="cls-6" d="M48.4,32.7c0,0-.2,0-.2-.1,0-.1,0-.2,0-.2,0,0,.2,0,.2.1,0,.1,0,.2,0,.2Z"/>
    </g>
    <g>
      <path class="cls-6" d="M48.1,34.1c0,0,0-.2,0-.3s.2-.1.2,0c0,0,0,.2,0,.3,0,0-.2.1-.2,0Z"/>
      <path class="cls-6" d="M47.8,34.4c0,0,0-.2,0-.3,0,0,.2-.1.2,0,0,0,0,.2,0,.3s-.2.1-.2,0Z"/>
      <path class="cls-6" d="M47.9,33.8c0,0,0-.2,0-.3,0,0,.2-.1.2,0s0,.2,0,.3c0,0-.2.1-.2,0Z"/>
      <path class="cls-6" d="M47.6,34.1c0,0,0-.2,0-.3,0,0,.2-.1.2,0s0,.2,0,.3c0,0-.2.1-.2,0Z"/>
    </g>
    <g>
      <path class="cls-6" d="M46.3,34.6c0,0,.1-.1.2-.1.1,0,.2,0,.2.2s-.1.1-.2.1-.2,0-.2-.2Z"/>
      <path class="cls-6" d="M45.9,34.5c0,0,.1-.1.2-.1.1,0,.2,0,.2.2,0,0-.1.1-.2.1s-.2,0-.2-.2Z"/>
      <path class="cls-6" d="M46.4,34.3c0,0,.1-.1.2-.1.1,0,.2,0,.2.2,0,0-.1.1-.2.1s-.2,0-.2-.2Z"/>
      <path class="cls-6" d="M46,34.2c0,0,.1-.1.2-.1.1,0,.2,0,.2.2,0,0-.1.1-.2.1-.1,0-.2,0-.2-.2Z"/>
    </g>
    <g>
      <path class="cls-9" d="M46.6,31.6c0,0,0,.2-.2.2s-.2,0-.2-.2,0-.2.2-.2.2,0,.2.2Z"/>
      <circle class="cls-9" cx="46.3" cy="31.9" r=".2"/>
      <circle class="cls-9" cx="46.6" cy="31.8" r=".2"/>
    </g>
    <g>
      <path class="cls-9" d="M46.2,30.7c0,0,0,.2-.2.2s-.2,0-.2-.2,0-.2.2-.2.2,0,.2.2Z"/>
      <circle class="cls-9" cx="45.9" cy="31" r=".2"/>
      <circle class="cls-9" cx="46.2" cy="31" r=".2"/>
    </g>
    <g>
      <path class="cls-9" d="M46.9,30.1c0,0,0,.1-.2.1s-.2,0-.2-.1,0-.1.2-.1.2,0,.2.1Z"/>
      <ellipse class="cls-9" cx="46.6" cy="30.3" rx=".2" ry=".1"/>
      <ellipse class="cls-9" cx="46.9" cy="30.3" rx=".2" ry=".1"/>
    </g>
    <g>
      <path class="cls-9" d="M47.8,30.3c0,0,0,.1.1.2s.2,0,.2,0c0,0,0-.1-.1-.2s-.2,0-.2,0Z"/>
      <path class="cls-9" d="M47.8,30.5c0,0,0,.1.1.2s.2,0,.2,0c0,0,0-.1-.1-.2s-.2,0-.2,0Z"/>
      <path class="cls-9" d="M47.5,30.3c0,0,0,.1.1.2s.2,0,.2,0c0,0,0-.1-.1-.2s-.2,0-.2,0Z"/>
    </g>
    <g>
      <path class="cls-9" d="M49.3,31.7c0,0-.1,0-.2-.1,0,0,0-.2,0-.2,0,0,.1,0,.2.1,0,0,0,.2,0,.2Z"/>
      <path class="cls-9" d="M49.1,31.7c0,0-.1,0-.2-.1,0,0,0-.2,0-.2,0,0,.1,0,.2.1,0,0,0,.2,0,.2Z"/>
      <path class="cls-9" d="M49.2,31.9c0,0-.1,0-.2-.1,0,0,0-.2,0-.2,0,0,.1,0,.2.1,0,0,0,.2,0,.2Z"/>
    </g>
    <g>
      <path class="cls-9" d="M49.5,32.6c0,0-.1,0-.1.2,0,0,0,.2.1.2,0,0,.1,0,.1-.2,0,0,0-.2-.1-.2Z"/>
      <path class="cls-9" d="M49.3,32.7c0,0-.1,0-.1.2,0,0,0,.2.1.2s.1,0,.1-.2c0,0,0-.2-.1-.2Z"/>
      <path class="cls-9" d="M49.3,32.4c0,0-.1,0-.1.2,0,0,0,.2.1.2,0,0,.1,0,.1-.2,0,0,0-.2-.1-.2Z"/>
    </g>
    <g>
      <path class="cls-9" d="M48.9,34.2s0-.1,0-.2c0,0,.1-.1.2,0s0,.1,0,.2c0,0-.1.1-.2,0Z"/>
      <path class="cls-9" d="M48.9,34s0-.1,0-.2c0,0,.1-.1.2,0,0,0,0,.1,0,.2s-.1.1-.2,0Z"/>
      <path class="cls-9" d="M48.7,34.3s0-.1,0-.2.1-.1.2,0c0,0,0,.1,0,.2s-.1.1-.2,0Z"/>
    </g>
    <g>
      <path class="cls-9" d="M48.4,34.8s-.1,0-.2,0c0,0,0,.1,0,.2,0,0,.1,0,.2,0,0,0,0-.1,0-.2Z"/>
      <path class="cls-9" d="M48.2,34.7s-.1,0-.2,0,0,.1,0,.2c0,0,.1,0,.2,0s0-.1,0-.2Z"/>
      <path class="cls-9" d="M48.5,34.6s-.1,0-.2,0c0,0,0,.1,0,.2,0,0,.1,0,.2,0,0,0,0-.1,0-.2Z"/>
    </g>
    <g>
      <circle class="cls-9" cx="45.7" cy="32.4" r=".2"/>
      <circle class="cls-9" cx="45.6" cy="32.7" r=".2"/>
      <circle class="cls-9" cx="45.9" cy="32.6" r=".2"/>
    </g>
    <g>
      <path class="cls-9" d="M46.1,33.3c0,0,0,.2-.2.2s-.2,0-.2-.2,0-.2.2-.2.2,0,.2.2Z"/>
      <circle class="cls-9" cx="45.8" cy="33.6" r=".2"/>
      <circle class="cls-9" cx="46.1" cy="33.5" r=".2"/>
    </g>
    <g>
      <path class="cls-9" d="M47.3,33.7c0,0-.2,0-.2,0,0,0,0-.2,0-.2,0,0,.2,0,.2,0s0,.2,0,.2Z"/>
      <path class="cls-9" d="M47,33.9c0,0-.2,0-.2,0s0-.2,0-.2c0,0,.2,0,.2,0,0,0,0,.2,0,.2Z"/>
      <path class="cls-9" d="M47.2,34c0,0-.2,0-.2,0,0,0,0-.2,0-.2,0,0,.2,0,.2,0,0,0,0,.2,0,.2Z"/>
    </g>
    <g>
      <path class="cls-9" d="M47.7,34.7c0,0-.2,0-.2,0,0,0,0-.2,0-.2,0,0,.2,0,.2,0,0,0,0,.2,0,.2Z"/>
      <path class="cls-9" d="M47.4,34.8c0,0-.2,0-.2,0s0-.2,0-.2c0,0,.2,0,.2,0,0,0,0,.2,0,.2Z"/>
      <path class="cls-9" d="M47.6,35c0,0-.2,0-.2,0,0,0,0-.2,0-.2,0,0,.2,0,.2,0,0,0,0,.2,0,.2Z"/>
    </g>
    <g>
      <path class="cls-9" d="M45.4,34.3c0,0-.2,0-.2,0,0,0,0-.2,0-.2,0,0,.2,0,.2,0s0,.2,0,.2Z"/>
      <path class="cls-9" d="M45.1,34.4c0,0-.2,0-.2,0s0-.2,0-.2.2,0,.2,0c0,0,0,.2,0,.2Z"/>
      <path class="cls-9" d="M45.3,34.6c0,0-.2,0-.2,0,0,0,0-.2,0-.2,0,0,.2,0,.2,0,0,0,0,.2,0,.2Z"/>
    </g>
    <g>
      <path class="cls-9" d="M47.7,32.7c0,0,0,.2,0,.2,0,0-.2,0-.2,0s0-.2,0-.2.2,0,.2,0Z"/>
      <path class="cls-9" d="M47.8,33.1c0,0,0,.2,0,.2,0,0-.2,0-.2,0,0,0,0-.2,0-.2s.2,0,.2,0Z"/>
      <path class="cls-9" d="M48,32.8c0,0,0,.2,0,.2s-.2,0-.2,0,0-.2,0-.2c0,0,.2,0,.2,0Z"/>
    </g>
    <g>
      <path class="cls-9" d="M48.7,33.1c0,0,0,.2,0,.2s-.2,0-.2,0,0-.2,0-.2c0,0,.2,0,.2,0Z"/>
      <path class="cls-9" d="M48.8,33.4c0,0,0,.2,0,.2s-.2,0-.2,0,0-.2,0-.2.2,0,.2,0Z"/>
      <path class="cls-9" d="M49,33.2c0,0,0,.2,0,.2,0,0-.2,0-.2,0,0,0,0-.2,0-.2,0,0,.2,0,.2,0Z"/>
    </g>
    <g>
      <path class="cls-9" d="M47.7,32c0,0-.2,0-.2,0s0-.2,0-.2.2,0,.2,0,0,.2,0,.2Z"/>
      <path class="cls-9" d="M47.4,32.1c0,0-.2,0-.2,0,0,0,0-.2,0-.2,0,0,.2,0,.2,0s0,.2,0,.2Z"/>
      <path class="cls-9" d="M47.6,32.3c0,0-.2,0-.2,0,0,0,0-.2,0-.2,0,0,.2,0,.2,0,0,0,0,.2,0,.2Z"/>
    </g>
    <g>
      <path class="cls-9" d="M48.5,31.2c0,0-.2,0-.2,0,0,0,0-.2,0-.2s.2,0,.2,0,0,.2,0,.2Z"/>
      <path class="cls-9" d="M48.2,31.4c0,0-.2,0-.2,0,0,0,0-.2,0-.2,0,0,.2,0,.2,0,0,0,0,.2,0,.2Z"/>
      <path class="cls-9" d="M48.4,31.6c0,0-.2,0-.2,0,0,0,0-.2,0-.2,0,0,.2,0,.2,0s0,.2,0,.2Z"/>
    </g>
  </g>
  <g id="Virus-5" data-name="Virus">
    <g>
      <path class="cls-9" d="M26.7,29.5c0,0,.1-.2.3-.2.1,0,.3,0,.3.2s-.1.2-.3.2c-.1,0-.3,0-.3-.2Z"/>
      <path class="cls-9" d="M26.8,29.2c0,0,.1-.2.3-.2.1,0,.3,0,.3.2,0,0-.1.2-.3.2s-.3,0-.3-.2Z"/>
      <path class="cls-9" d="M26.3,29.2c0,0,.1-.2.3-.2s.3,0,.3.2-.1.2-.3.2c-.1,0-.3,0-.3-.2Z"/>
    </g>
    <g>
      <path class="cls-9" d="M25.3,29.2c0,0,0-.2-.2-.2-.1,0-.3,0-.3,0,0,0,0,.2.2.2.1,0,.3,0,.3,0Z"/>
      <path class="cls-9" d="M25.3,28.9c0,0,0-.2-.2-.2-.1,0-.3,0-.3,0,0,0,0,.2.2.2.1,0,.3,0,.3,0Z"/>
      <path class="cls-9" d="M25.7,29.1c0,0,0-.2-.2-.2s-.3,0-.3,0c0,0,0,.2.2.2.1,0,.3,0,.3,0Z"/>
    </g>
    <g>
      <path class="cls-9" d="M22.8,26.8c0,0,.2,0,.3.2s0,.3,0,.3c0,0-.2,0-.3-.2s0-.3,0-.3Z"/>
      <path class="cls-9" d="M23.2,26.8c0,0,.2,0,.3.2,0,.1,0,.3,0,.3,0,0-.2,0-.3-.2s0-.3,0-.3Z"/>
      <path class="cls-9" d="M22.9,26.4c0,0,.2,0,.3.2s0,.3,0,.3c0,0-.2,0-.3-.2s0-.3,0-.3Z"/>
    </g>
    <g>
      <path class="cls-9" d="M22.5,25.5c0,0,.1-.1.1-.3,0-.1,0-.3-.2-.2s-.1.1-.1.3c0,.1,0,.3.2.2Z"/>
      <path class="cls-9" d="M22.7,25.4c0,0,.1-.1.1-.3,0-.1,0-.3-.2-.2s-.1.1-.1.3c0,.1,0,.3.2.2Z"/>
      <path class="cls-9" d="M22.7,25.8c0,0,.1-.1.1-.3,0-.1,0-.3-.2-.2,0,0-.1.1-.1.3,0,.1,0,.3.2.2Z"/>
    </g>
    <g>
      <path class="cls-9" d="M22.8,23.2c0,0,.1.2,0,.3s-.2.2-.2.2c0,0-.1-.2,0-.3,0-.1.2-.2.2-.2Z"/>
      <path class="cls-9" d="M23,23.5c0,0,.1.2,0,.3s-.2.2-.2.2c0,0-.1-.2,0-.3,0-.1.2-.2.2-.2Z"/>
      <path class="cls-9" d="M23.2,23c0,0,.1.2,0,.3,0,.1-.2.2-.2.2,0,0-.1-.2,0-.3,0-.1.2-.2.2-.2Z"/>
    </g>
    <g>
      <path class="cls-9" d="M23.5,22.1c0,0,.2,0,.3,0s.1-.2,0-.3c0,0-.2,0-.3,0,0,.1-.1.2,0,.3Z"/>
      <path class="cls-9" d="M23.9,22.2c0,0,.2,0,.3,0,0-.1.1-.2,0-.3,0,0-.2,0-.3,0,0,.1-.1.2,0,.3Z"/>
      <path class="cls-9" d="M23.5,22.5c0,0,.2,0,.3,0,0-.1.1-.2,0-.3,0,0-.2,0-.3,0,0,.1-.1.2,0,.3Z"/>
    </g>
    <path class="cls-7" d="M28.3,21.1c2.2.8,3.3,3.1,2.6,5.3-.8,2.2-3.1,3.3-5.3,2.6-2.2-.8-3.3-3.1-2.6-5.3s3.1-3.3,5.3-2.6Z"/>
    <path class="cls-2" d="M29.6,21.8c.9.8,2,3.8-.1,5.9-2.1,2.2-5,.7-5.8,0,.5.6,1.1,1.1,1.9,1.4,2.2.8,4.6-.4,5.3-2.6.6-1.7,0-3.5-1.3-4.6Z"/>
    <g>
      <path class="cls-6" d="M26.7,24.6c0,.2-.1.3-.3.3s-.3-.1-.3-.3.1-.3.3-.3.3.1.3.3Z"/>
      <path class="cls-6" d="M27.4,24.8c0,.2-.1.3-.3.3s-.3-.1-.3-.3.1-.3.3-.3.3.1.3.3Z"/>
      <path class="cls-6" d="M26.6,25.3c0,.2-.1.3-.3.3s-.3-.1-.3-.3.1-.3.3-.3.3.1.3.3Z"/>
      <path class="cls-6" d="M27.3,25.4c0,.2-.1.3-.3.3s-.3-.1-.3-.3.1-.3.3-.3.3.1.3.3Z"/>
    </g>
    <g>
      <path class="cls-6" d="M24,22.8c0,.2-.3.2-.4.1-.1,0-.1-.3,0-.4,0-.2.3-.2.4-.1.1,0,.1.3,0,.4Z"/>
      <path class="cls-6" d="M24.4,23.2c0,.2-.3.2-.4.1-.1,0-.1-.3,0-.4,0-.2.3-.2.4-.1.1,0,.1.3,0,.4Z"/>
      <path class="cls-6" d="M23.6,23.3c0,.2-.3.2-.4.1-.1,0-.1-.3,0-.4,0-.2.3-.2.4-.1.1,0,.1.3,0,.4Z"/>
      <path class="cls-6" d="M24,23.7c0,.2-.3.2-.4.1-.1,0-.1-.3,0-.4,0-.2.3-.2.4-.1.1,0,.1.3,0,.4Z"/>
    </g>
    <g>
      <path class="cls-6" d="M23.5,25.6c0,.2-.1.3-.3.3s-.3-.1-.3-.3.1-.3.3-.3.3.1.3.3Z"/>
      <path class="cls-6" d="M24,25.7c0,.2-.1.3-.3.3s-.3-.1-.3-.3.1-.3.3-.3.3.1.3.3Z"/>
      <path class="cls-6" d="M23.4,26.2c0,.2-.1.3-.3.3s-.3-.1-.3-.3.1-.3.3-.3.3.1.3.3Z"/>
      <path class="cls-6" d="M23.9,26.3c0,.2-.1.3-.3.3s-.3-.1-.3-.3.1-.3.3-.3.3.1.3.3Z"/>
    </g>
    <g>
      <path class="cls-6" d="M27.5,22.1c0,.1-.1.3-.3.3s-.3-.1-.3-.3.1-.3.3-.3.3.1.3.3Z"/>
      <ellipse class="cls-6" cx="27.8" cy="22.2" rx=".3" ry=".3"/>
      <path class="cls-6" d="M27.4,22.6c0,.1-.1.3-.3.3s-.3-.1-.3-.3.1-.3.3-.3.3.1.3.3Z"/>
      <path class="cls-6" d="M28,22.7c0,.1-.1.3-.3.3s-.3-.1-.3-.3.1-.3.3-.3.3.1.3.3Z"/>
    </g>
    <g>
      <path class="cls-6" d="M29.9,24.4c-.1,0-.3,0-.3-.2s0-.4.1-.4c.1,0,.3,0,.3.2,0,.2,0,.4-.1.4Z"/>
      <path class="cls-6" d="M30,25.1c-.1,0-.3,0-.3-.2,0-.2,0-.4.1-.4.1,0,.3,0,.3.2,0,.2,0,.4-.1.4Z"/>
      <path class="cls-6" d="M29.4,24.4c-.1,0-.3,0-.3-.2,0-.2,0-.4.1-.4.1,0,.3,0,.3.2,0,.2,0,.4-.1.4Z"/>
      <path class="cls-6" d="M29.5,25.1c-.1,0-.3,0-.3-.2,0-.2,0-.4.1-.4.1,0,.3,0,.3.2,0,.2,0,.4-.1.4Z"/>
    </g>
    <g>
      <path class="cls-6" d="M29.1,27.4c-.1,0-.1-.3,0-.4s.3-.2.4-.1c.1,0,.1.3,0,.4-.1.1-.3.2-.4.1Z"/>
      <path class="cls-6" d="M28.6,27.8c-.1,0-.1-.3,0-.4.1-.1.3-.2.4-.1.1,0,.1.3,0,.4s-.3.2-.4.1Z"/>
      <path class="cls-6" d="M28.8,27c-.1,0-.1-.3,0-.4.1-.1.3-.2.4-.1s.1.3,0,.4c-.1.1-.3.2-.4.1Z"/>
      <path class="cls-6" d="M28.3,27.4c-.1,0-.1-.3,0-.4.1-.1.3-.2.4-.1s.1.3,0,.4c-.1.1-.3.2-.4.1Z"/>
    </g>
    <g>
      <path class="cls-6" d="M26,28.3c0-.1.2-.2.4-.2.2,0,.3.2.3.3s-.2.2-.4.2-.3-.2-.3-.3Z"/>
      <path class="cls-6" d="M25.3,28.1c0-.1.2-.2.4-.2.2,0,.3.2.3.3,0,.1-.2.2-.4.2s-.3-.2-.3-.3Z"/>
      <path class="cls-6" d="M26.2,27.8c0-.1.2-.2.4-.2.2,0,.3.2.3.3,0,.1-.2.2-.4.2s-.3-.2-.3-.3Z"/>
      <path class="cls-6" d="M25.5,27.6c0-.1.2-.2.4-.2.2,0,.3.2.3.3,0,.1-.2.2-.4.2-.2,0-.3-.2-.3-.3Z"/>
    </g>
    <g>
      <path class="cls-9" d="M26.5,23.2c0,.2-.1.3-.3.3s-.3-.1-.3-.3.1-.3.3-.3.3.1.3.3Z"/>
      <circle class="cls-9" cx="26" cy="23.7" r=".3"/>
      <circle class="cls-9" cx="26.5" cy="23.6" r=".3"/>
    </g>
    <g>
      <path class="cls-9" d="M25.8,21.7c0,.2-.1.3-.3.3s-.3-.1-.3-.3.1-.3.3-.3.3.1.3.3Z"/>
      <circle class="cls-9" cx="25.3" cy="22.2" r=".3"/>
      <circle class="cls-9" cx="25.9" cy="22.2" r=".3"/>
    </g>
    <g>
      <path class="cls-9" d="M27,20.7c0,0-.1.2-.3.2s-.3,0-.3-.2.1-.2.3-.2.3,0,.3.2Z"/>
      <ellipse class="cls-9" cx="26.5" cy="21" rx=".3" ry=".2"/>
      <ellipse class="cls-9" cx="27.1" cy="21" rx=".3" ry=".2"/>
    </g>
    <g>
      <path class="cls-9" d="M28.5,21c0,0,0,.2.2.3s.3,0,.3,0c0,0,0-.2-.2-.3s-.3,0-.3,0Z"/>
      <path class="cls-9" d="M28.5,21.3c0,0,0,.2.2.3s.3,0,.3,0c0,0,0-.2-.2-.3s-.3,0-.3,0Z"/>
      <path class="cls-9" d="M28.1,21.1c0,0,0,.2.2.3s.3,0,.3,0c0,0,0-.2-.2-.3s-.3,0-.3,0Z"/>
    </g>
    <g>
      <path class="cls-9" d="M31.1,23.4c0,0-.2,0-.3-.2,0-.1,0-.3,0-.3,0,0,.2,0,.3.2,0,.1,0,.3,0,.3Z"/>
      <path class="cls-9" d="M30.7,23.3c0,0-.2,0-.3-.2,0-.1,0-.3,0-.3,0,0,.2,0,.3.2,0,.1,0,.3,0,.3Z"/>
      <path class="cls-9" d="M30.9,23.8c0,0-.2,0-.3-.2,0-.1,0-.3,0-.3,0,0,.2,0,.3.2,0,.1,0,.3,0,.3Z"/>
    </g>
    <g>
      <path class="cls-9" d="M31.3,24.8c0,0-.2.1-.2.3,0,.2,0,.3.2.3,0,0,.2-.1.2-.3,0-.2,0-.3-.2-.3Z"/>
      <path class="cls-9" d="M31,25c0,0-.2.1-.2.3,0,.2,0,.3.2.3s.2-.1.2-.3c0-.2,0-.3-.2-.3Z"/>
      <path class="cls-9" d="M31.1,24.5c0,0-.2.1-.2.3,0,.2,0,.3.2.3,0,0,.2-.1.2-.3,0-.2,0-.3-.2-.3Z"/>
    </g>
    <g>
      <path class="cls-9" d="M30.5,27.5c0,0,0-.2,0-.3,0-.1.2-.2.3-.1s0,.2,0,.3c0,.1-.2.2-.3.1Z"/>
      <path class="cls-9" d="M30.3,27.2c0,0,0-.2,0-.3,0-.1.2-.2.3-.1,0,0,0,.2,0,.3s-.2.2-.3.1Z"/>
      <path class="cls-9" d="M30.1,27.7c0,0,0-.2,0-.3s.2-.2.3-.1c0,0,0,.2,0,.3s-.2.2-.3.1Z"/>
    </g>
    <g>
      <path class="cls-9" d="M29.6,28.5c0,0-.2,0-.3,0-.1,0-.2.2-.1.3,0,0,.2,0,.3,0,.1,0,.2-.2.1-.3Z"/>
      <path class="cls-9" d="M29.3,28.4c0,0-.2,0-.3,0s-.2.2-.1.3c0,0,.2,0,.3,0s.2-.2.1-.3Z"/>
      <path class="cls-9" d="M29.7,28.2c0,0-.2,0-.3,0-.1,0-.2.2-.1.3,0,0,.2,0,.3,0,.1,0,.2-.2.1-.3Z"/>
    </g>
    <g>
      <circle class="cls-9" cx="25" cy="24.5" r=".3"/>
      <circle class="cls-9" cx="24.8" cy="25" r=".3"/>
      <circle class="cls-9" cx="25.3" cy="24.9" r=".3"/>
    </g>
    <g>
      <path class="cls-9" d="M25.7,26c0,.2-.1.3-.3.3s-.3-.1-.3-.3.1-.3.3-.3.3.1.3.3Z"/>
      <circle class="cls-9" cx="25.2" cy="26.6" r=".3"/>
      <circle class="cls-9" cx="25.7" cy="26.5" r=".3"/>
    </g>
    <g>
      <path class="cls-9" d="M27.7,26.8c-.1.1-.3.1-.4,0-.1-.1-.1-.3,0-.4.1-.1.3-.1.4,0s.1.3,0,.4Z"/>
      <path class="cls-9" d="M27.2,27c-.1.1-.3.1-.4,0s-.1-.3,0-.4c.1-.1.3-.1.4,0,.1.1.1.3,0,.4Z"/>
      <path class="cls-9" d="M27.6,27.3c-.1.1-.3.1-.4,0-.1-.1-.1-.3,0-.4.1-.1.3-.1.4,0,.1.1.1.3,0,.4Z"/>
    </g>
    <g>
      <path class="cls-9" d="M28.3,28.3c-.1.1-.3.1-.4,0-.1-.1-.1-.3,0-.4.1-.1.3-.1.4,0,.1.1.1.3,0,.4Z"/>
      <path class="cls-9" d="M27.8,28.6c-.1.1-.3.1-.4,0s-.1-.3,0-.4c.1-.1.3-.1.4,0,.1.1.1.3,0,.4Z"/>
      <path class="cls-9" d="M28.3,28.9c-.1.1-.3.1-.4,0-.1-.1-.1-.3,0-.4.1-.1.3-.1.4,0,.1.1.1.3,0,.4Z"/>
    </g>
    <g>
      <path class="cls-9" d="M24.4,27.7c-.1.1-.3.1-.4,0-.1-.1-.1-.3,0-.4.1-.1.3-.1.4,0s.1.3,0,.4Z"/>
      <path class="cls-9" d="M23.9,27.9c-.1.1-.3.1-.4,0s-.1-.3,0-.4.3-.1.4,0c.1.1.1.3,0,.4Z"/>
      <path class="cls-9" d="M24.4,28.2c-.1.1-.3.1-.4,0-.1-.1-.1-.3,0-.4.1-.1.3-.1.4,0,.1.1.1.3,0,.4Z"/>
    </g>
    <g>
      <path class="cls-9" d="M28.4,25.1c0,.1,0,.3,0,.4-.1,0-.3,0-.4,0s0-.3,0-.4.3,0,.4,0Z"/>
      <path class="cls-9" d="M28.5,25.7c0,.1,0,.3,0,.4-.1,0-.3,0-.4,0,0-.1,0-.3,0-.4s.3,0,.4,0Z"/>
      <path class="cls-9" d="M28.9,25.3c0,.1,0,.3,0,.4s-.3,0-.4,0,0-.3,0-.4c.1,0,.3,0,.4,0Z"/>
    </g>
    <g>
      <path class="cls-9" d="M30,25.8c0,.1,0,.3,0,.4s-.3,0-.4,0,0-.3,0-.4c.1,0,.3,0,.4,0Z"/>
      <path class="cls-9" d="M30.2,26.3c0,.1,0,.3,0,.4s-.3,0-.4,0,0-.3,0-.4.3,0,.4,0Z"/>
      <path class="cls-9" d="M30.5,25.9c0,.1,0,.3,0,.4-.1,0-.3,0-.4,0,0-.1,0-.3,0-.4.1,0,.3,0,.4,0Z"/>
    </g>
    <g>
      <path class="cls-9" d="M28.3,23.9c-.1.1-.3,0-.4,0s0-.3,0-.4.3,0,.4,0,0,.3,0,.4Z"/>
      <path class="cls-9" d="M27.8,24.1c-.1.1-.3,0-.4,0-.1-.1,0-.3,0-.4.1-.1.3,0,.4,0s0,.3,0,.4Z"/>
      <path class="cls-9" d="M28.2,24.4c-.1.1-.3,0-.4,0-.1-.1,0-.3,0-.4.1-.1.3,0,.4,0,.1.1,0,.3,0,.4Z"/>
    </g>
    <g>
      <path class="cls-9" d="M29.7,22.6c-.1.1-.3,0-.4,0-.1-.1,0-.3,0-.4s.3,0,.4,0,0,.3,0,.4Z"/>
      <path class="cls-9" d="M29.2,22.8c-.1.1-.3,0-.4,0-.1-.1,0-.3,0-.4.1-.1.3,0,.4,0,.1.1,0,.3,0,.4Z"/>
      <path class="cls-9" d="M29.6,23.1c-.1.1-.3,0-.4,0-.1-.1,0-.3,0-.4.1-.1.3,0,.4,0s0,.3,0,.4Z"/>
    </g>
  </g>
  <g id="Virus-6" data-name="Virus">
    <g>
      <path class="cls-9" d="M32.7,22.1c0,0,0-.1.2-.1.1,0,.2,0,.2.1s0,.1-.2.1c-.1,0-.2,0-.2-.1Z"/>
      <path class="cls-9" d="M32.8,21.9c0,0,0-.1.2-.1.1,0,.2,0,.2.1,0,0,0,.1-.2.1s-.2,0-.2-.1Z"/>
      <path class="cls-9" d="M32.5,22c0,0,0-.1.2-.1s.2,0,.2.1,0,.1-.2.1c-.1,0-.2,0-.2-.1Z"/>
    </g>
    <g>
      <path class="cls-9" d="M31.8,22c0,0,0-.1-.1-.2,0,0-.2,0-.2,0,0,0,0,.1.1.2,0,0,.2,0,.2,0Z"/>
      <path class="cls-9" d="M31.7,21.7c0,0,0-.1-.1-.2,0,0-.2,0-.2,0,0,0,0,.1.1.2,0,0,.2,0,.2,0Z"/>
      <path class="cls-9" d="M32.1,21.9c0,0,0-.1-.1-.2s-.2,0-.2,0c0,0,0,.1.1.2,0,0,.2,0,.2,0Z"/>
    </g>
    <g>
      <path class="cls-9" d="M30,20.3c0,0,.1,0,.2.1s0,.2,0,.2c0,0-.1,0-.2-.1s0-.2,0-.2Z"/>
      <path class="cls-9" d="M30.2,20.3c0,0,.1,0,.2.1,0,0,0,.2,0,.2,0,0-.1,0-.2-.1s0-.2,0-.2Z"/>
      <path class="cls-9" d="M30.1,20c0,0,.1,0,.2.1s0,.2,0,.2c0,0-.1,0-.2-.1s0-.2,0-.2Z"/>
    </g>
    <g>
      <path class="cls-9" d="M29.7,19.3c0,0,.1,0,0-.2,0-.1,0-.2-.1-.2s-.1,0,0,.2c0,.1,0,.2.1.2Z"/>
      <path class="cls-9" d="M29.9,19.2c0,0,.1,0,0-.2,0-.1,0-.2-.1-.2s-.1,0,0,.2c0,.1,0,.2.1.2Z"/>
      <path class="cls-9" d="M29.9,19.5c0,0,.1,0,0-.2,0-.1,0-.2-.1-.2,0,0-.1,0,0,.2,0,.1,0,.2.1.2Z"/>
    </g>
    <g>
      <path class="cls-9" d="M30,17.7c0,0,0,.1,0,.2s-.1.2-.2.1c0,0,0-.1,0-.2,0,0,.1-.2.2-.1Z"/>
      <path class="cls-9" d="M30.1,17.9c0,0,0,.1,0,.2s-.1.2-.2.1c0,0,0-.1,0-.2,0,0,.1-.2.2-.1Z"/>
      <path class="cls-9" d="M30.2,17.5c0,0,0,.1,0,.2,0,0-.1.2-.2.1,0,0,0-.1,0-.2,0,0,.1-.2.2-.1Z"/>
    </g>
    <g>
      <path class="cls-9" d="M30.5,16.9s.1,0,.2,0,0-.2,0-.2c0,0-.1,0-.2,0,0,0,0,.2,0,.2Z"/>
      <path class="cls-9" d="M30.7,16.9s.1,0,.2,0c0,0,0-.2,0-.2,0,0-.1,0-.2,0,0,0,0,.2,0,.2Z"/>
      <path class="cls-9" d="M30.5,17.1s.1,0,.2,0c0,0,0-.2,0-.2,0,0-.1,0-.2,0,0,0,0,.2,0,.2Z"/>
    </g>
    <path class="cls-7" d="M33.9,16.2c1.6.5,2.4,2.2,1.8,3.8-.5,1.6-2.2,2.4-3.8,1.8-1.6-.5-2.4-2.2-1.8-3.8s2.2-2.4,3.8-1.8Z"/>
    <path class="cls-2" d="M34.8,16.7c.7.6,1.4,2.7,0,4.2-1.5,1.5-3.6.5-4.1,0,.3.4.8.8,1.4,1,1.6.5,3.3-.3,3.8-1.8.4-1.2,0-2.5-.9-3.3Z"/>
    <g>
      <path class="cls-6" d="M32.8,18.7c0,.1-.1.2-.2.2s-.2-.1-.2-.2.1-.2.2-.2.2.1.2.2Z"/>
      <path class="cls-6" d="M33.3,18.8c0,.1-.1.2-.2.2s-.2-.1-.2-.2.1-.2.2-.2.2.1.2.2Z"/>
      <path class="cls-6" d="M32.7,19.1c0,.1-.1.2-.2.2s-.2-.1-.2-.2.1-.2.2-.2.2.1.2.2Z"/>
      <path class="cls-6" d="M33.2,19.2c0,.1-.1.2-.2.2s-.2-.1-.2-.2.1-.2.2-.2.2.1.2.2Z"/>
    </g>
    <g>
      <path class="cls-6" d="M30.9,17.4c0,.1-.2.2-.3.1,0,0-.1-.2,0-.3,0-.1.2-.2.3-.1,0,0,.1.2,0,.3Z"/>
      <path class="cls-6" d="M31.1,17.7c0,.1-.2.2-.3.1,0,0-.1-.2,0-.3,0-.1.2-.2.3-.1,0,0,.1.2,0,.3Z"/>
      <path class="cls-6" d="M30.5,17.7c0,.1-.2.2-.3.1,0,0-.1-.2,0-.3,0-.1.2-.2.3-.1,0,0,.1.2,0,.3Z"/>
      <path class="cls-6" d="M30.8,18c0,.1-.2.2-.3.1,0,0-.1-.2,0-.3,0-.1.2-.2.3-.1,0,0,.1.2,0,.3Z"/>
    </g>
    <g>
      <path class="cls-6" d="M30.5,19.4c0,.1,0,.2-.2.2s-.2,0-.2-.2,0-.2.2-.2.2,0,.2.2Z"/>
      <path class="cls-6" d="M30.8,19.5c0,.1,0,.2-.2.2s-.2,0-.2-.2,0-.2.2-.2.2,0,.2.2Z"/>
      <path class="cls-6" d="M30.4,19.8c0,.1,0,.2-.2.2s-.2,0-.2-.2,0-.2.2-.2.2,0,.2.2Z"/>
      <path class="cls-6" d="M30.8,19.9c0,.1,0,.2-.2.2s-.2,0-.2-.2,0-.2.2-.2.2,0,.2.2Z"/>
    </g>
    <g>
      <path class="cls-6" d="M33.3,16.9c0,.1-.1.2-.2.2s-.2,0-.2-.2.1-.2.2-.2.2,0,.2.2Z"/>
      <ellipse class="cls-6" cx="33.6" cy="16.9" rx=".2" ry=".2"/>
      <path class="cls-6" d="M33.2,17.2c0,.1-.1.2-.2.2s-.2,0-.2-.2.1-.2.2-.2.2,0,.2.2Z"/>
      <path class="cls-6" d="M33.7,17.3c0,.1-.1.2-.2.2s-.2,0-.2-.2.1-.2.2-.2.2,0,.2.2Z"/>
    </g>
    <g>
      <path class="cls-6" d="M35,18.5c0,0-.2,0-.2-.2s0-.3.1-.3c0,0,.2,0,.2.2,0,.1,0,.3-.1.3Z"/>
      <path class="cls-6" d="M35.1,19c0,0-.2,0-.2-.2,0-.1,0-.3.1-.3,0,0,.2,0,.2.2,0,.1,0,.3-.1.3Z"/>
      <path class="cls-6" d="M34.7,18.5c0,0-.2,0-.2-.2,0-.1,0-.3.1-.3,0,0,.2,0,.2.2,0,.1,0,.3-.1.3Z"/>
      <path class="cls-6" d="M34.8,19c0,0-.2,0-.2-.2,0-.1,0-.3.1-.3,0,0,.2,0,.2.2,0,.1,0,.3-.1.3Z"/>
    </g>
    <g>
      <path class="cls-6" d="M34.4,20.7c0,0,0-.2,0-.3s.2-.1.3,0c0,0,0,.2,0,.3,0,.1-.2.1-.3,0Z"/>
      <path class="cls-6" d="M34.1,21c0,0,0-.2,0-.3,0-.1.2-.1.3,0,0,0,0,.2,0,.3s-.2.1-.3,0Z"/>
      <path class="cls-6" d="M34.2,20.4c0,0,0-.2,0-.3,0-.1.2-.1.3,0s0,.2,0,.3c0,.1-.2.1-.3,0Z"/>
      <path class="cls-6" d="M33.9,20.7c0,0,0-.2,0-.3,0-.1.2-.1.3,0s0,.2,0,.3c0,.1-.2.1-.3,0Z"/>
    </g>
    <g>
      <path class="cls-6" d="M32.2,21.3c0,0,.1-.2.3-.1.1,0,.2.1.2.2s-.1.2-.3.1-.2-.1-.2-.2Z"/>
      <path class="cls-6" d="M31.8,21.2c0,0,.1-.2.3-.1.1,0,.2.1.2.2,0,0-.1.2-.3.1s-.2-.1-.2-.2Z"/>
      <path class="cls-6" d="M32.4,21c0,0,.1-.2.3-.1.1,0,.2.1.2.2,0,0-.1.2-.3.1s-.2-.1-.2-.2Z"/>
      <path class="cls-6" d="M31.9,20.8c0,0,.1-.2.3-.1.1,0,.2.1.2.2,0,0-.1.2-.3.1-.1,0-.2-.1-.2-.2Z"/>
    </g>
    <g>
      <path class="cls-9" d="M32.6,17.6c0,.1,0,.2-.2.2s-.2,0-.2-.2,0-.2.2-.2.2,0,.2.2Z"/>
      <circle class="cls-9" cx="32.3" cy="18" r=".2"/>
      <circle class="cls-9" cx="32.6" cy="17.9" r=".2"/>
    </g>
    <g>
      <path class="cls-9" d="M32.1,16.6c0,.1,0,.2-.2.2s-.2,0-.2-.2,0-.2.2-.2.2,0,.2.2Z"/>
      <circle class="cls-9" cx="31.8" cy="17" r=".2"/>
      <circle class="cls-9" cx="32.2" cy="16.9" r=".2"/>
    </g>
    <g>
      <path class="cls-9" d="M33,15.9c0,0,0,.1-.2.1s-.2,0-.2-.1,0-.1.2-.1.2,0,.2.1Z"/>
      <ellipse class="cls-9" cx="32.6" cy="16.1" rx=".2" ry=".1"/>
      <ellipse class="cls-9" cx="33" cy="16.1" rx=".2" ry=".1"/>
    </g>
    <g>
      <path class="cls-9" d="M34,16.1c0,0,0,.1.1.2s.2,0,.2,0c0,0,0-.1-.1-.2s-.2,0-.2,0Z"/>
      <path class="cls-9" d="M34.1,16.3c0,0,0,.1.1.2s.2,0,.2,0c0,0,0-.1-.1-.2s-.2,0-.2,0Z"/>
      <path class="cls-9" d="M33.7,16.2c0,0,0,.1.1.2s.2,0,.2,0c0,0,0-.1-.1-.2s-.2,0-.2,0Z"/>
    </g>
    <g>
      <path class="cls-9" d="M35.9,17.8c0,0-.1,0-.2-.1,0-.1,0-.2,0-.2,0,0,.1,0,.2.1,0,.1,0,.2,0,.2Z"/>
      <path class="cls-9" d="M35.6,17.8c0,0-.1,0-.2-.1,0-.1,0-.2,0-.2,0,0,.1,0,.2.1,0,.1,0,.2,0,.2Z"/>
      <path class="cls-9" d="M35.8,18.1c0,0-.1,0-.2-.1,0-.1,0-.2,0-.2,0,0,.1,0,.2.1,0,.1,0,.2,0,.2Z"/>
    </g>
    <g>
      <path class="cls-9" d="M36.1,18.8c0,0-.1,0-.1.2,0,.1,0,.2.1.2,0,0,.1,0,.1-.2,0-.1,0-.2-.1-.2Z"/>
      <path class="cls-9" d="M35.8,19c0,0-.1,0-.1.2,0,.1,0,.2.1.2s.1,0,.1-.2c0-.1,0-.2-.1-.2Z"/>
      <path class="cls-9" d="M35.9,18.6c0,0-.1,0-.1.2,0,.1,0,.2.1.2,0,0,.1,0,.1-.2,0-.1,0-.2-.1-.2Z"/>
    </g>
    <g>
      <path class="cls-9" d="M35.4,20.8c0,0,0-.1,0-.2,0,0,.1-.1.2,0s0,.1,0,.2c0,0-.1.1-.2,0Z"/>
      <path class="cls-9" d="M35.3,20.6c0,0,0-.1,0-.2,0,0,.1-.1.2,0,0,0,0,.1,0,.2s-.1.1-.2,0Z"/>
      <path class="cls-9" d="M35.2,20.9c0,0,0-.1,0-.2s.1-.1.2,0c0,0,0,.1,0,.2s-.1.1-.2,0Z"/>
    </g>
    <g>
      <path class="cls-9" d="M34.8,21.5s-.1,0-.2,0c0,0-.1.2,0,.2,0,0,.1,0,.2,0,0,0,.1-.2,0-.2Z"/>
      <path class="cls-9" d="M34.6,21.4s-.1,0-.2,0-.1.2,0,.2c0,0,.1,0,.2,0s.1-.2,0-.2Z"/>
      <path class="cls-9" d="M34.9,21.2s-.1,0-.2,0c0,0-.1.2,0,.2,0,0,.1,0,.2,0,0,0,.1-.2,0-.2Z"/>
    </g>
    <g>
      <circle class="cls-9" cx="31.5" cy="18.6" r=".2"/>
      <circle class="cls-9" cx="31.4" cy="19" r=".2"/>
      <circle class="cls-9" cx="31.8" cy="18.9" r=".2"/>
    </g>
    <g>
      <path class="cls-9" d="M32,19.7c0,.1,0,.2-.2.2s-.2,0-.2-.2,0-.2.2-.2.2,0,.2.2Z"/>
      <circle class="cls-9" cx="31.7" cy="20.1" r=".2"/>
      <circle class="cls-9" cx="32.1" cy="20" r=".2"/>
    </g>
    <g>
      <path class="cls-9" d="M33.4,20.2c0,0-.2,0-.3,0,0,0,0-.2,0-.3,0,0,.2,0,.3,0s0,.2,0,.3Z"/>
      <path class="cls-9" d="M33.1,20.4c0,0-.2,0-.3,0s0-.2,0-.3c0,0,.2,0,.3,0,0,0,0,.2,0,.3Z"/>
      <path class="cls-9" d="M33.4,20.6c0,0-.2,0-.3,0,0,0,0-.2,0-.3,0,0,.2,0,.3,0,0,0,0,.2,0,.3Z"/>
    </g>
    <g>
      <path class="cls-9" d="M33.9,21.3c0,0-.2,0-.3,0,0,0,0-.2,0-.3,0,0,.2,0,.3,0,0,0,0,.2,0,.3Z"/>
      <path class="cls-9" d="M33.6,21.5c0,0-.2,0-.3,0s0-.2,0-.3c0,0,.2,0,.3,0,0,0,0,.2,0,.3Z"/>
      <path class="cls-9" d="M33.9,21.7c0,0-.2,0-.3,0,0,0,0-.2,0-.3,0,0,.2,0,.3,0,0,0,0,.2,0,.3Z"/>
    </g>
    <g>
      <path class="cls-9" d="M31.1,20.9c0,0-.2,0-.3,0,0,0,0-.2,0-.3,0,0,.2,0,.3,0s0,.2,0,.3Z"/>
      <path class="cls-9" d="M30.8,21.1c0,0-.2,0-.3,0s0-.2,0-.3.2,0,.3,0c0,0,0,.2,0,.3Z"/>
      <path class="cls-9" d="M31.1,21.3c0,0-.2,0-.3,0,0,0,0-.2,0-.3,0,0,.2,0,.3,0,0,0,0,.2,0,.3Z"/>
    </g>
    <g>
      <path class="cls-9" d="M34,19.1c0,0,0,.2,0,.3,0,0-.2,0-.3,0s0-.2,0-.3.2,0,.3,0Z"/>
      <path class="cls-9" d="M34.1,19.4c0,0,0,.2,0,.3,0,0-.2,0-.3,0,0,0,0-.2,0-.3s.2,0,.3,0Z"/>
      <path class="cls-9" d="M34.3,19.2c0,0,0,.2,0,.3s-.2,0-.3,0,0-.2,0-.3c0,0,.2,0,.3,0Z"/>
    </g>
    <g>
      <path class="cls-9" d="M35.1,19.5c0,0,0,.2,0,.3s-.2,0-.3,0,0-.2,0-.3c0,0,.2,0,.3,0Z"/>
      <path class="cls-9" d="M35.2,19.9c0,0,0,.2,0,.3s-.2,0-.3,0,0-.2,0-.3.2,0,.3,0Z"/>
      <path class="cls-9" d="M35.5,19.6c0,0,0,.2,0,.3,0,0-.2,0-.3,0,0,0,0-.2,0-.3,0,0,.2,0,.3,0Z"/>
    </g>
    <g>
      <path class="cls-9" d="M33.9,18.2c0,0-.2,0-.3,0s0-.2,0-.3.2,0,.3,0,0,.2,0,.3Z"/>
      <path class="cls-9" d="M33.6,18.3c0,0-.2,0-.3,0,0,0,0-.2,0-.3,0,0,.2,0,.3,0s0,.2,0,.3Z"/>
      <path class="cls-9" d="M33.8,18.6c0,0-.2,0-.3,0,0,0,0-.2,0-.3,0,0,.2,0,.3,0,0,0,0,.2,0,.3Z"/>
    </g>
    <g>
      <path class="cls-9" d="M34.9,17.2c0,0-.2,0-.3,0,0,0,0-.2,0-.3s.2,0,.3,0,0,.2,0,.3Z"/>
      <path class="cls-9" d="M34.5,17.4c0,0-.2,0-.3,0,0,0,0-.2,0-.3,0,0,.2,0,.3,0,0,0,0,.2,0,.3Z"/>
      <path class="cls-9" d="M34.8,17.6c0,0-.2,0-.3,0,0,0,0-.2,0-.3,0,0,.2,0,.3,0s0,.2,0,.3Z"/>
    </g>
  </g>
  <g id="Virus-7" data-name="Virus">
    <g>
      <path class="cls-9" d="M43.6,64.3c0,0,0,0,.2,0,0,0,.2,0,.2,0s0,0-.2,0c0,0-.2,0-.2,0Z"/>
      <path class="cls-9" d="M43.7,64.2c0,0,0,0,.2,0,0,0,.2,0,.2,0,0,0,0,0-.2,0s-.2,0-.2,0Z"/>
      <path class="cls-9" d="M43.5,64.2c0,0,0,0,.2,0s.2,0,.2,0,0,0-.2,0c0,0-.2,0-.2,0Z"/>
    </g>
    <g>
      <path class="cls-9" d="M42.8,64.2s0-.1-.1-.1c0,0-.2,0-.2,0,0,0,0,.1.1.1,0,0,.2,0,.2,0Z"/>
      <path class="cls-9" d="M42.8,64s0-.1-.1-.1c0,0-.2,0-.2,0,0,0,0,.1.1.1,0,0,.2,0,.2,0Z"/>
      <path class="cls-9" d="M43.1,64.1s0-.1-.1-.1-.2,0-.2,0c0,0,0,.1.1.1,0,0,.2,0,.2,0Z"/>
    </g>
    <g>
      <path class="cls-9" d="M41.4,62.8s.1,0,.2,0,0,.2,0,.2c0,0-.1,0-.2,0s0-.2,0-.2Z"/>
      <path class="cls-9" d="M41.6,62.8s.1,0,.2,0c0,0,0,.2,0,.2,0,0-.1,0-.2,0s0-.2,0-.2Z"/>
      <path class="cls-9" d="M41.4,62.5s.1,0,.2,0,0,.2,0,.2c0,0-.1,0-.2,0s0-.2,0-.2Z"/>
    </g>
    <g>
      <path class="cls-9" d="M41.1,62c0,0,0,0,0-.2,0,0,0-.1-.1-.1s0,0,0,.2c0,0,0,.1.1.1Z"/>
      <path class="cls-9" d="M41.3,61.9c0,0,0,0,0-.2,0,0,0-.1-.1-.1s0,0,0,.2c0,0,0,.1.1.1Z"/>
      <path class="cls-9" d="M41.3,62.2c0,0,0,0,0-.2,0,0,0-.1-.1-.1,0,0,0,0,0,.2,0,0,0,.1.1.1Z"/>
    </g>
    <g>
      <path class="cls-9" d="M41.4,60.6s0,0,0,.2,0,.1-.1.1c0,0,0,0,0-.2,0,0,0-.1.1-.1Z"/>
      <path class="cls-9" d="M41.5,60.8s0,0,0,.2,0,.1-.1.1c0,0,0,0,0-.2,0,0,0-.1.1-.1Z"/>
      <path class="cls-9" d="M41.6,60.5s0,0,0,.2c0,0,0,.1-.1.1,0,0,0,0,0-.2,0,0,0-.1.1-.1Z"/>
    </g>
    <g>
      <path class="cls-9" d="M41.8,59.9s.1,0,.2,0,0-.1,0-.2c0,0-.1,0-.2,0,0,0,0,.1,0,.2Z"/>
      <path class="cls-9" d="M42,60s.1,0,.2,0c0,0,0-.1,0-.2,0,0-.1,0-.2,0,0,0,0,.1,0,.2Z"/>
      <path class="cls-9" d="M41.8,60.2s.1,0,.2,0c0,0,0-.1,0-.2,0,0-.1,0-.2,0,0,0,0,.1,0,.2Z"/>
    </g>
    <path class="cls-7" d="M44.6,59.3c1.3.5,2,1.9,1.5,3.2-.5,1.3-1.9,2-3.2,1.5-1.3-.5-2-1.9-1.5-3.2s1.9-2,3.2-1.5Z"/>
    <path class="cls-2" d="M45.4,59.8c.6.5,1.2,2.3,0,3.5-1.3,1.3-3,.4-3.5,0,.3.4.7.6,1.1.8,1.3.5,2.7-.2,3.2-1.5.4-1,0-2.1-.8-2.8Z"/>
    <g>
      <path class="cls-6" d="M43.7,61.5c0,.1,0,.2-.2.2s-.2,0-.2-.2,0-.2.2-.2.2,0,.2.2Z"/>
      <path class="cls-6" d="M44.1,61.5c0,.1,0,.2-.2.2s-.2,0-.2-.2,0-.2.2-.2.2,0,.2.2Z"/>
      <path class="cls-6" d="M43.6,61.8c0,.1,0,.2-.2.2s-.2,0-.2-.2,0-.2.2-.2.2,0,.2.2Z"/>
      <path class="cls-6" d="M44,61.9c0,.1,0,.2-.2.2s-.2,0-.2-.2,0-.2.2-.2.2,0,.2.2Z"/>
    </g>
    <g>
      <path class="cls-6" d="M42.1,60.4c0,0-.2.1-.2,0,0,0,0-.2,0-.2,0,0,.2-.1.2,0,0,0,0,.2,0,.2Z"/>
      <path class="cls-6" d="M42.3,60.6c0,0-.2.1-.2,0,0,0,0-.2,0-.2,0,0,.2-.1.2,0,0,0,0,.2,0,.2Z"/>
      <path class="cls-6" d="M41.8,60.7c0,0-.2.1-.2,0,0,0,0-.2,0-.2,0,0,.2-.1.2,0,0,0,0,.2,0,.2Z"/>
      <path class="cls-6" d="M42,60.9c0,0-.2.1-.2,0,0,0,0-.2,0-.2,0,0,.2-.1.2,0,0,0,0,.2,0,.2Z"/>
    </g>
    <g>
      <path class="cls-6" d="M41.7,62c0,0,0,.2-.2.2s-.2,0-.2-.2,0-.2.2-.2.2,0,.2.2Z"/>
      <path class="cls-6" d="M42.1,62.1c0,0,0,.2-.2.2s-.2,0-.2-.2,0-.2.2-.2.2,0,.2.2Z"/>
      <path class="cls-6" d="M41.7,62.4c0,0,0,.2-.2.2s-.2,0-.2-.2,0-.2.2-.2.2,0,.2.2Z"/>
      <path class="cls-6" d="M42,62.4c0,0,0,.2-.2.2s-.2,0-.2-.2,0-.2.2-.2.2,0,.2.2Z"/>
    </g>
    <g>
      <path class="cls-6" d="M44.1,59.9c0,0,0,.2-.2.2s-.2,0-.2-.2,0-.2.2-.2.2,0,.2.2Z"/>
      <ellipse class="cls-6" cx="44.3" cy="60" rx=".2" ry=".2"/>
      <path class="cls-6" d="M44.1,60.2c0,0,0,.2-.2.2s-.2,0-.2-.2,0-.2.2-.2.2,0,.2.2Z"/>
      <path class="cls-6" d="M44.5,60.3c0,0,0,.2-.2.2s-.2,0-.2-.2,0-.2.2-.2.2,0,.2.2Z"/>
    </g>
    <g>
      <path class="cls-6" d="M45.6,61.3c0,0-.2,0-.2-.1s0-.2,0-.2c0,0,.2,0,.2.1,0,.1,0,.2,0,.2Z"/>
      <path class="cls-6" d="M45.6,61.7c0,0-.2,0-.2-.1,0-.1,0-.2,0-.2,0,0,.2,0,.2.1,0,.1,0,.2,0,.2Z"/>
      <path class="cls-6" d="M45.3,61.3c0,0-.2,0-.2-.1,0-.1,0-.2,0-.2,0,0,.2,0,.2.1,0,.1,0,.2,0,.2Z"/>
      <path class="cls-6" d="M45.3,61.7c0,0-.2,0-.2-.1,0-.1,0-.2,0-.2,0,0,.2,0,.2.1,0,.1,0,.2,0,.2Z"/>
    </g>
    <g>
      <path class="cls-6" d="M45.1,63.1c0,0,0-.2,0-.3s.2-.1.2,0c0,0,0,.2,0,.3,0,0-.2.1-.2,0Z"/>
      <path class="cls-6" d="M44.8,63.4c0,0,0-.2,0-.3,0,0,.2-.1.2,0,0,0,0,.2,0,.3s-.2.1-.2,0Z"/>
      <path class="cls-6" d="M44.9,62.9c0,0,0-.2,0-.3,0,0,.2-.1.2,0s0,.2,0,.3c0,0-.2.1-.2,0Z"/>
      <path class="cls-6" d="M44.6,63.1c0,0,0-.2,0-.3,0,0,.2-.1.2,0s0,.2,0,.3c0,0-.2.1-.2,0Z"/>
    </g>
    <g>
      <path class="cls-6" d="M43.2,63.6c0,0,.1-.1.2-.1.1,0,.2,0,.2.2s-.1.1-.2.1-.2,0-.2-.2Z"/>
      <path class="cls-6" d="M42.8,63.5c0,0,.1-.1.2-.1.1,0,.2,0,.2.2,0,0-.1.1-.2.1s-.2,0-.2-.2Z"/>
      <path class="cls-6" d="M43.3,63.3c0,0,.1-.1.2-.1.1,0,.2,0,.2.2,0,0-.1.1-.2.1s-.2,0-.2-.2Z"/>
      <path class="cls-6" d="M43,63.2c0,0,.1-.1.2-.1.1,0,.2,0,.2.2,0,0-.1.1-.2.1-.1,0-.2,0-.2-.2Z"/>
    </g>
    <g>
      <path class="cls-9" d="M43.5,60.6c0,0,0,.2-.2.2s-.2,0-.2-.2,0-.2.2-.2.2,0,.2.2Z"/>
      <circle class="cls-9" cx="43.2" cy="60.9" r=".2"/>
      <circle class="cls-9" cx="43.6" cy="60.8" r=".2"/>
    </g>
    <g>
      <path class="cls-9" d="M43.1,59.7c0,0,0,.2-.2.2s-.2,0-.2-.2,0-.2.2-.2.2,0,.2.2Z"/>
      <circle class="cls-9" cx="42.8" cy="60" r=".2"/>
      <circle class="cls-9" cx="43.2" cy="60" r=".2"/>
    </g>
    <g>
      <path class="cls-9" d="M43.8,59.1c0,0,0,.1-.2.1s-.2,0-.2-.1,0-.1.2-.1.2,0,.2.1Z"/>
      <ellipse class="cls-9" cx="43.6" cy="59.3" rx=".2" ry=".1"/>
      <ellipse class="cls-9" cx="43.9" cy="59.3" rx=".2" ry=".1"/>
    </g>
    <g>
      <path class="cls-9" d="M44.7,59.3c0,0,0,.1.1.2s.2,0,.2,0c0,0,0-.1-.1-.2s-.2,0-.2,0Z"/>
      <path class="cls-9" d="M44.8,59.5c0,0,0,.1.1.2s.2,0,.2,0c0,0,0-.1-.1-.2s-.2,0-.2,0Z"/>
      <path class="cls-9" d="M44.5,59.3c0,0,0,.1.1.2s.2,0,.2,0c0,0,0-.1-.1-.2s-.2,0-.2,0Z"/>
    </g>
    <g>
      <path class="cls-9" d="M46.3,60.7c0,0-.1,0-.2-.1,0,0,0-.2,0-.2,0,0,.1,0,.2.1,0,0,0,.2,0,.2Z"/>
      <path class="cls-9" d="M46,60.7c0,0-.1,0-.2-.1,0,0,0-.2,0-.2,0,0,.1,0,.2.1,0,0,0,.2,0,.2Z"/>
      <path class="cls-9" d="M46.2,61c0,0-.1,0-.2-.1,0,0,0-.2,0-.2,0,0,.1,0,.2.1,0,0,0,.2,0,.2Z"/>
    </g>
    <g>
      <path class="cls-9" d="M46.4,61.6c0,0-.1,0-.1.2,0,0,0,.2.1.2,0,0,.1,0,.1-.2,0,0,0-.2-.1-.2Z"/>
      <path class="cls-9" d="M46.2,61.7c0,0-.1,0-.1.2,0,0,0,.2.1.2s.1,0,.1-.2c0,0,0-.2-.1-.2Z"/>
      <path class="cls-9" d="M46.3,61.4c0,0-.1,0-.1.2,0,0,0,.2.1.2,0,0,.1,0,.1-.2,0,0,0-.2-.1-.2Z"/>
    </g>
    <g>
      <path class="cls-9" d="M45.9,63.2s0-.1,0-.2c0,0,.1-.1.2,0s0,.1,0,.2c0,0-.1.1-.2,0Z"/>
      <path class="cls-9" d="M45.8,63s0-.1,0-.2c0,0,.1-.1.2,0,0,0,0,.1,0,.2s-.1.1-.2,0Z"/>
      <path class="cls-9" d="M45.7,63.3s0-.1,0-.2.1-.1.2,0c0,0,0,.1,0,.2s-.1.1-.2,0Z"/>
    </g>
    <g>
      <path class="cls-9" d="M45.4,63.8s-.1,0-.2,0c0,0,0,.1,0,.2,0,0,.1,0,.2,0,0,0,0-.1,0-.2Z"/>
      <path class="cls-9" d="M45.2,63.7s-.1,0-.2,0,0,.1,0,.2c0,0,.1,0,.2,0s0-.1,0-.2Z"/>
      <path class="cls-9" d="M45.4,63.6s-.1,0-.2,0c0,0,0,.1,0,.2,0,0,.1,0,.2,0,0,0,0-.1,0-.2Z"/>
    </g>
    <g>
      <circle class="cls-9" cx="42.6" cy="61.4" r=".2"/>
      <circle class="cls-9" cx="42.5" cy="61.7" r=".2"/>
      <circle class="cls-9" cx="42.8" cy="61.6" r=".2"/>
    </g>
    <g>
      <path class="cls-9" d="M43,62.3c0,0,0,.2-.2.2s-.2,0-.2-.2,0-.2.2-.2.2,0,.2.2Z"/>
      <circle class="cls-9" cx="42.8" cy="62.6" r=".2"/>
      <circle class="cls-9" cx="43.1" cy="62.6" r=".2"/>
    </g>
    <g>
      <path class="cls-9" d="M44.2,62.7c0,0-.2,0-.2,0,0,0,0-.2,0-.2,0,0,.2,0,.2,0s0,.2,0,.2Z"/>
      <path class="cls-9" d="M43.9,62.9c0,0-.2,0-.2,0s0-.2,0-.2c0,0,.2,0,.2,0,0,0,0,.2,0,.2Z"/>
      <path class="cls-9" d="M44.2,63.1c0,0-.2,0-.2,0,0,0,0-.2,0-.2,0,0,.2,0,.2,0,0,0,0,.2,0,.2Z"/>
    </g>
    <g>
      <path class="cls-9" d="M44.6,63.7c0,0-.2,0-.2,0,0,0,0-.2,0-.2,0,0,.2,0,.2,0,0,0,0,.2,0,.2Z"/>
      <path class="cls-9" d="M44.3,63.8c0,0-.2,0-.2,0s0-.2,0-.2c0,0,.2,0,.2,0,0,0,0,.2,0,.2Z"/>
      <path class="cls-9" d="M44.6,64c0,0-.2,0-.2,0,0,0,0-.2,0-.2,0,0,.2,0,.2,0,0,0,0,.2,0,.2Z"/>
    </g>
    <g>
      <path class="cls-9" d="M42.3,63.3c0,0-.2,0-.2,0,0,0,0-.2,0-.2,0,0,.2,0,.2,0s0,.2,0,.2Z"/>
      <path class="cls-9" d="M42,63.4c0,0-.2,0-.2,0s0-.2,0-.2.2,0,.2,0c0,0,0,.2,0,.2Z"/>
      <path class="cls-9" d="M42.3,63.6c0,0-.2,0-.2,0,0,0,0-.2,0-.2,0,0,.2,0,.2,0,0,0,0,.2,0,.2Z"/>
    </g>
    <g>
      <path class="cls-9" d="M44.7,61.8c0,0,0,.2,0,.2,0,0-.2,0-.2,0s0-.2,0-.2.2,0,.2,0Z"/>
      <path class="cls-9" d="M44.8,62.1c0,0,0,.2,0,.2,0,0-.2,0-.2,0,0,0,0-.2,0-.2s.2,0,.2,0Z"/>
      <path class="cls-9" d="M45,61.9c0,0,0,.2,0,.2s-.2,0-.2,0,0-.2,0-.2c0,0,.2,0,.2,0Z"/>
    </g>
    <g>
      <path class="cls-9" d="M45.6,62.1c0,0,0,.2,0,.2s-.2,0-.2,0,0-.2,0-.2c0,0,.2,0,.2,0Z"/>
      <path class="cls-9" d="M45.7,62.4c0,0,0,.2,0,.2s-.2,0-.2,0,0-.2,0-.2.2,0,.2,0Z"/>
      <path class="cls-9" d="M45.9,62.2c0,0,0,.2,0,.2,0,0-.2,0-.2,0,0,0,0-.2,0-.2,0,0,.2,0,.2,0Z"/>
    </g>
    <g>
      <path class="cls-9" d="M44.6,61c0,0-.2,0-.2,0s0-.2,0-.2.2,0,.2,0,0,.2,0,.2Z"/>
      <path class="cls-9" d="M44.3,61.1c0,0-.2,0-.2,0,0,0,0-.2,0-.2,0,0,.2,0,.2,0s0,.2,0,.2Z"/>
      <path class="cls-9" d="M44.6,61.3c0,0-.2,0-.2,0,0,0,0-.2,0-.2,0,0,.2,0,.2,0,0,0,0,.2,0,.2Z"/>
    </g>
    <g>
      <path class="cls-9" d="M45.5,60.2c0,0-.2,0-.2,0,0,0,0-.2,0-.2s.2,0,.2,0,0,.2,0,.2Z"/>
      <path class="cls-9" d="M45.1,60.4c0,0-.2,0-.2,0,0,0,0-.2,0-.2,0,0,.2,0,.2,0,0,0,0,.2,0,.2Z"/>
      <path class="cls-9" d="M45.4,60.6c0,0-.2,0-.2,0,0,0,0-.2,0-.2,0,0,.2,0,.2,0s0,.2,0,.2Z"/>
    </g>
  </g>
  <g id="Virus-8" data-name="Virus">
    <g>
      <path class="cls-9" d="M22.9,49.2s0,0,.1,0c0,0,.1,0,.1,0s0,0-.1,0c0,0-.1,0-.1,0Z"/>
      <path class="cls-9" d="M23,49s0,0,.1,0c0,0,.1,0,.1,0,0,0,0,0-.1,0s-.1,0-.1,0Z"/>
      <path class="cls-9" d="M22.7,49.1s0,0,.1,0,.1,0,.1,0,0,0-.1,0c0,0-.1,0-.1,0Z"/>
    </g>
    <g>
      <path class="cls-9" d="M22.2,49.1s0,0,0-.1c0,0-.1,0-.2,0,0,0,0,0,0,.1,0,0,.1,0,.2,0Z"/>
      <path class="cls-9" d="M22.2,48.9s0,0,0-.1c0,0-.1,0-.2,0,0,0,0,0,0,.1,0,0,.1,0,.2,0Z"/>
      <path class="cls-9" d="M22.4,49s0,0,0-.1-.1,0-.2,0c0,0,0,0,0,.1,0,0,.1,0,.2,0Z"/>
    </g>
    <g>
      <path class="cls-9" d="M20.9,47.8s0,0,.1,0,0,.1,0,.2c0,0,0,0-.1,0s0-.1,0-.2Z"/>
      <path class="cls-9" d="M21.1,47.8s0,0,.1,0c0,0,0,.1,0,.2,0,0,0,0-.1,0s0-.1,0-.2Z"/>
      <path class="cls-9" d="M21,47.6s0,0,.1,0,0,.1,0,.2c0,0,0,0-.1,0s0-.1,0-.2Z"/>
    </g>
    <g>
      <path class="cls-9" d="M20.8,47.2s0,0,0-.1c0,0,0-.1,0-.1s0,0,0,.1c0,0,0,.1,0,.1Z"/>
      <path class="cls-9" d="M20.9,47.1s0,0,0-.1c0,0,0-.1,0-.1s0,0,0,.1c0,0,0,.1,0,.1Z"/>
      <path class="cls-9" d="M20.9,47.3s0,0,0-.1c0,0,0-.1,0-.1,0,0,0,0,0,.1,0,0,0,.1,0,.1Z"/>
    </g>
    <g>
      <path class="cls-9" d="M20.9,46s0,0,0,.2,0,.1-.1,0c0,0,0,0,0-.2,0,0,0-.1.1,0Z"/>
      <path class="cls-9" d="M21,46.1s0,0,0,.2,0,.1-.1,0c0,0,0,0,0-.2,0,0,0-.1.1,0Z"/>
      <path class="cls-9" d="M21.1,45.9s0,0,0,.2c0,0,0,.1-.1,0,0,0,0,0,0-.2,0,0,0-.1.1,0Z"/>
    </g>
    <g>
      <path class="cls-9" d="M21.3,45.4s0,0,.1,0,0-.1,0-.2c0,0,0,0-.1,0,0,0,0,.1,0,.2Z"/>
      <path class="cls-9" d="M21.5,45.4s0,0,.1,0c0,0,0-.1,0-.2,0,0,0,0-.1,0,0,0,0,.1,0,.2Z"/>
      <path class="cls-9" d="M21.3,45.6s0,0,.1,0c0,0,0-.1,0-.2,0,0,0,0-.1,0,0,0,0,.1,0,.2Z"/>
    </g>
    <path class="cls-7" d="M23.7,44.9c1.1.4,1.7,1.6,1.3,2.7-.4,1.1-1.6,1.7-2.7,1.3-1.1-.4-1.7-1.6-1.3-2.7s1.6-1.7,2.7-1.3Z"/>
    <path class="cls-2" d="M24.4,45.3c.5.4,1,1.9,0,3-1.1,1.1-2.6.3-3,0,.2.3.6.6,1,.7,1.1.4,2.3-.2,2.7-1.3.3-.9,0-1.8-.7-2.4Z"/>
    <g>
      <path class="cls-6" d="M22.9,46.7c0,0,0,.2-.2.2s-.2,0-.2-.2,0-.2.2-.2.2,0,.2.2Z"/>
      <path class="cls-6" d="M23.3,46.8c0,0,0,.2-.2.2s-.2,0-.2-.2,0-.2.2-.2.2,0,.2.2Z"/>
      <path class="cls-6" d="M22.9,47c0,0,0,.2-.2.2s-.2,0-.2-.2,0-.2.2-.2.2,0,.2.2Z"/>
      <path class="cls-6" d="M23.2,47.1c0,0,0,.2-.2.2s-.2,0-.2-.2,0-.2.2-.2.2,0,.2.2Z"/>
    </g>
    <g>
      <path class="cls-6" d="M21.6,45.8c0,0-.1.1-.2,0,0,0,0-.1,0-.2,0,0,.1-.1.2,0,0,0,0,.1,0,.2Z"/>
      <path class="cls-6" d="M21.7,46c0,0-.1.1-.2,0,0,0,0-.1,0-.2,0,0,.1-.1.2,0,0,0,0,.1,0,.2Z"/>
      <path class="cls-6" d="M21.3,46c0,0-.1.1-.2,0,0,0,0-.1,0-.2,0,0,.1-.1.2,0,0,0,0,.1,0,.2Z"/>
      <path class="cls-6" d="M21.5,46.2c0,0-.1.1-.2,0,0,0,0-.1,0-.2,0,0,.1-.1.2,0,0,0,0,.1,0,.2Z"/>
    </g>
    <g>
      <path class="cls-6" d="M21.3,47.2c0,0,0,.2-.1.2s-.1,0-.1-.2,0-.2.1-.2.1,0,.1.2Z"/>
      <path class="cls-6" d="M21.6,47.3c0,0,0,.2-.1.2s-.1,0-.1-.2,0-.2.1-.2.1,0,.1.2Z"/>
      <path class="cls-6" d="M21.2,47.5c0,0,0,.2-.1.2s-.1,0-.1-.2,0-.2.1-.2.1,0,.1.2Z"/>
      <path class="cls-6" d="M21.5,47.6c0,0,0,.2-.1.2s-.1,0-.1-.2,0-.2.1-.2.1,0,.1.2Z"/>
    </g>
    <g>
      <path class="cls-6" d="M23.3,45.4c0,0,0,.1-.2.1s-.2,0-.2-.1,0-.1.2-.1.2,0,.2.1Z"/>
      <ellipse class="cls-6" cx="23.5" cy="45.5" rx=".2" ry=".1"/>
      <path class="cls-6" d="M23.3,45.7c0,0,0,.1-.2.1s-.2,0-.2-.1,0-.1.2-.1.2,0,.2.1Z"/>
      <path class="cls-6" d="M23.6,45.7c0,0,0,.1-.2.1s-.2,0-.2-.1,0-.1.2-.1.2,0,.2.1Z"/>
    </g>
    <g>
      <path class="cls-6" d="M24.6,46.6c0,0-.1,0-.2-.1s0-.2,0-.2c0,0,.1,0,.2.1,0,0,0,.2,0,.2Z"/>
      <path class="cls-6" d="M24.6,46.9c0,0-.1,0-.2-.1,0,0,0-.2,0-.2,0,0,.1,0,.2.1,0,0,0,.2,0,.2Z"/>
      <path class="cls-6" d="M24.3,46.6c0,0-.1,0-.2-.1,0,0,0-.2,0-.2,0,0,.1,0,.2.1,0,0,0,.2,0,.2Z"/>
      <path class="cls-6" d="M24.3,46.9c0,0-.1,0-.2-.1,0,0,0-.2,0-.2,0,0,.1,0,.2.1,0,0,0,.2,0,.2Z"/>
    </g>
    <g>
      <path class="cls-6" d="M24.1,48.1c0,0,0-.1,0-.2s.1,0,.2,0c0,0,0,.1,0,.2,0,0-.1,0-.2,0Z"/>
      <path class="cls-6" d="M23.9,48.4c0,0,0-.1,0-.2,0,0,.1,0,.2,0,0,0,0,.1,0,.2s-.1,0-.2,0Z"/>
      <path class="cls-6" d="M24,47.9c0,0,0-.1,0-.2,0,0,.1,0,.2,0s0,.1,0,.2c0,0-.1,0-.2,0Z"/>
      <path class="cls-6" d="M23.7,48.2c0,0,0-.1,0-.2,0,0,.1,0,.2,0s0,.1,0,.2c0,0-.1,0-.2,0Z"/>
    </g>
    <g>
      <path class="cls-6" d="M22.5,48.6c0,0,0-.1.2-.1,0,0,.2,0,.2.2s0,.1-.2.1-.2,0-.2-.2Z"/>
      <path class="cls-6" d="M22.2,48.5c0,0,0-.1.2-.1,0,0,.2,0,.2.2,0,0,0,.1-.2.1s-.2,0-.2-.2Z"/>
      <path class="cls-6" d="M22.6,48.3c0,0,0-.1.2-.1,0,0,.2,0,.2.2,0,0,0,.1-.2.1s-.2,0-.2-.2Z"/>
      <path class="cls-6" d="M22.3,48.2c0,0,0-.1.2-.1,0,0,.2,0,.2.2,0,0,0,.1-.2.1,0,0-.2,0-.2-.2Z"/>
    </g>
    <g>
      <path class="cls-9" d="M22.8,46c0,0,0,.1-.1.1s-.1,0-.1-.1,0-.1.1-.1.1,0,.1.1Z"/>
      <circle class="cls-9" cx="22.6" cy="46.2" r=".1"/>
      <circle class="cls-9" cx="22.8" cy="46.2" r=".1"/>
    </g>
    <g>
      <path class="cls-9" d="M22.5,45.2c0,0,0,.1-.1.1s-.1,0-.1-.1,0-.1.1-.1.1,0,.1.1Z"/>
      <circle class="cls-9" cx="22.2" cy="45.5" r=".1"/>
      <circle class="cls-9" cx="22.5" cy="45.4" r=".1"/>
    </g>
    <g>
      <path class="cls-9" d="M23.1,44.7s0,0-.1,0-.1,0-.1,0,0,0,.1,0,.1,0,.1,0Z"/>
      <ellipse class="cls-9" cx="22.8" cy="44.9" rx=".1" ry="0"/>
      <ellipse class="cls-9" cx="23.1" cy="44.8" rx=".1" ry="0"/>
    </g>
    <g>
      <path class="cls-9" d="M23.8,44.8s0,.1.1.1.1,0,.2,0c0,0,0-.1-.1-.1s-.1,0-.2,0Z"/>
      <path class="cls-9" d="M23.9,45s0,.1.1.1.1,0,.2,0c0,0,0-.1-.1-.1s-.1,0-.2,0Z"/>
      <path class="cls-9" d="M23.6,44.9s0,.1.1.1.1,0,.2,0c0,0,0-.1-.1-.1s-.1,0-.2,0Z"/>
    </g>
    <g>
      <path class="cls-9" d="M25.1,46.1s-.1,0-.1-.1c0,0,0-.2,0-.2,0,0,.1,0,.1.1,0,0,0,.2,0,.2Z"/>
      <path class="cls-9" d="M25,46s-.1,0-.1-.1c0,0,0-.2,0-.2,0,0,.1,0,.1.1,0,0,0,.2,0,.2Z"/>
      <path class="cls-9" d="M25.1,46.3s-.1,0-.1-.1c0,0,0-.2,0-.2,0,0,.1,0,.1.1,0,0,0,.2,0,.2Z"/>
    </g>
    <g>
      <path class="cls-9" d="M25.3,46.8s0,0,0,.1c0,0,0,.1,0,.1,0,0,0,0,0-.1,0,0,0-.1,0-.1Z"/>
      <path class="cls-9" d="M25.1,46.9s0,0,0,.1c0,0,0,.1,0,.1s0,0,0-.1c0,0,0-.1,0-.1Z"/>
      <path class="cls-9" d="M25.2,46.6s0,0,0,.1c0,0,0,.1,0,.1,0,0,0,0,0-.1,0,0,0-.1,0-.1Z"/>
    </g>
    <g>
      <path class="cls-9" d="M24.8,48.2s0,0,0-.2c0,0,0,0,.1,0s0,0,0,.2c0,0,0,0-.1,0Z"/>
      <path class="cls-9" d="M24.8,48.1s0,0,0-.2c0,0,0,0,.1,0,0,0,0,0,0,.2s0,0-.1,0Z"/>
      <path class="cls-9" d="M24.7,48.3s0,0,0-.2,0,0,.1,0c0,0,0,0,0,.2s0,0-.1,0Z"/>
    </g>
    <g>
      <path class="cls-9" d="M24.4,48.7s0,0-.2,0c0,0,0,.1,0,.1,0,0,0,0,.2,0,0,0,0-.1,0-.1Z"/>
      <path class="cls-9" d="M24.2,48.6s0,0-.2,0,0,.1,0,.1c0,0,0,0,.2,0s0-.1,0-.1Z"/>
      <path class="cls-9" d="M24.4,48.5s0,0-.2,0c0,0,0,.1,0,.1,0,0,0,0,.2,0,0,0,0-.1,0-.1Z"/>
    </g>
    <g>
      <circle class="cls-9" cx="22" cy="46.6" r=".1"/>
      <circle class="cls-9" cx="22" cy="46.9" r=".1"/>
      <circle class="cls-9" cx="22.2" cy="46.9" r=".1"/>
    </g>
    <g>
      <path class="cls-9" d="M22.4,47.4c0,0,0,.1-.1.1s-.1,0-.1-.1,0-.1.1-.1.1,0,.1.1Z"/>
      <circle class="cls-9" cx="22.2" cy="47.7" r=".1"/>
      <circle class="cls-9" cx="22.4" cy="47.7" r=".1"/>
    </g>
    <g>
      <path class="cls-9" d="M23.4,47.8c0,0-.1,0-.2,0,0,0,0-.1,0-.2,0,0,.1,0,.2,0s0,.1,0,.2Z"/>
      <path class="cls-9" d="M23.2,47.9c0,0-.1,0-.2,0s0-.1,0-.2c0,0,.1,0,.2,0,0,0,0,.1,0,.2Z"/>
      <path class="cls-9" d="M23.4,48.1c0,0-.1,0-.2,0,0,0,0-.1,0-.2,0,0,.1,0,.2,0,0,0,0,.1,0,.2Z"/>
    </g>
    <g>
      <path class="cls-9" d="M23.7,48.6c0,0-.1,0-.2,0,0,0,0-.1,0-.2,0,0,.1,0,.2,0,0,0,0,.1,0,.2Z"/>
      <path class="cls-9" d="M23.5,48.7c0,0-.1,0-.2,0s0-.1,0-.2c0,0,.1,0,.2,0,0,0,0,.1,0,.2Z"/>
      <path class="cls-9" d="M23.7,48.9c0,0-.1,0-.2,0,0,0,0-.1,0-.2,0,0,.1,0,.2,0,0,0,0,.1,0,.2Z"/>
    </g>
    <g>
      <path class="cls-9" d="M21.8,48.3c0,0-.1,0-.2,0,0,0,0-.1,0-.2,0,0,.1,0,.2,0s0,.1,0,.2Z"/>
      <path class="cls-9" d="M21.5,48.4c0,0-.1,0-.2,0s0-.1,0-.2.1,0,.2,0c0,0,0,.1,0,.2Z"/>
      <path class="cls-9" d="M21.7,48.6c0,0-.1,0-.2,0,0,0,0-.1,0-.2,0,0,.1,0,.2,0,0,0,0,.1,0,.2Z"/>
    </g>
    <g>
      <path class="cls-9" d="M23.8,47c0,0,0,.2,0,.2,0,0-.2,0-.2,0s0-.2,0-.2.2,0,.2,0Z"/>
      <path class="cls-9" d="M23.9,47.3c0,0,0,.2,0,.2,0,0-.2,0-.2,0,0,0,0-.2,0-.2s.2,0,.2,0Z"/>
      <path class="cls-9" d="M24.1,47.1c0,0,0,.2,0,.2s-.2,0-.2,0,0-.2,0-.2c0,0,.2,0,.2,0Z"/>
    </g>
    <g>
      <path class="cls-9" d="M24.6,47.3c0,0,0,.2,0,.2s-.2,0-.2,0,0-.2,0-.2c0,0,.2,0,.2,0Z"/>
      <path class="cls-9" d="M24.7,47.6c0,0,0,.2,0,.2s-.2,0-.2,0,0-.2,0-.2.2,0,.2,0Z"/>
      <path class="cls-9" d="M24.9,47.4c0,0,0,.2,0,.2,0,0-.2,0-.2,0,0,0,0-.2,0-.2,0,0,.2,0,.2,0Z"/>
    </g>
    <g>
      <path class="cls-9" d="M23.8,46.3c0,0-.2,0-.2,0s0-.2,0-.2.2,0,.2,0,0,.2,0,.2Z"/>
      <path class="cls-9" d="M23.5,46.5c0,0-.2,0-.2,0,0,0,0-.2,0-.2,0,0,.2,0,.2,0s0,.2,0,.2Z"/>
      <path class="cls-9" d="M23.7,46.6c0,0-.2,0-.2,0,0,0,0-.2,0-.2,0,0,.2,0,.2,0,0,0,0,.2,0,.2Z"/>
    </g>
    <g>
      <path class="cls-9" d="M24.5,45.7c0,0-.2,0-.2,0,0,0,0-.2,0-.2s.2,0,.2,0,0,.2,0,.2Z"/>
      <path class="cls-9" d="M24.2,45.8c0,0-.2,0-.2,0,0,0,0-.2,0-.2,0,0,.2,0,.2,0,0,0,0,.2,0,.2Z"/>
      <path class="cls-9" d="M24.4,46c0,0-.2,0-.2,0,0,0,0-.2,0-.2,0,0,.2,0,.2,0s0,.2,0,.2Z"/>
    </g>
  </g>
</svg>