<?xml version="1.0" encoding="UTF-8"?>
<svg id="Livello_1" data-name="Livello 1" xmlns="http://www.w3.org/2000/svg" version="1.1" viewBox="0 0 76.5 76.5">
  <defs>
    <style>
      .cls-1 {
        fill: #764e3b;
      }

      .cls-1, .cls-2, .cls-3, .cls-4, .cls-5, .cls-6, .cls-7, .cls-8, .cls-9, .cls-10, .cls-11, .cls-12, .cls-13, .cls-14, .cls-15, .cls-16, .cls-17, .cls-18, .cls-19, .cls-20, .cls-21, .cls-22, .cls-23, .cls-24, .cls-25, .cls-26, .cls-27, .cls-28, .cls-29, .cls-30, .cls-31, .cls-32, .cls-33, .cls-34, .cls-35, .cls-36, .cls-37, .cls-38, .cls-39, .cls-40, .cls-41, .cls-42, .cls-43, .cls-44, .cls-45, .cls-46, .cls-47, .cls-48, .cls-49, .cls-50, .cls-51 {
        stroke-width: 0px;
      }

      .cls-2 {
        fill: #c4968a;
      }

      .cls-3 {
        fill: #c9c3ca;
      }

      .cls-4 {
        fill: none;
      }

      .cls-5 {
        fill: #291f22;
      }

      .cls-6 {
        fill: #b58251;
      }

      .cls-7 {
        fill: #4a362a;
      }

      .cls-8 {
        fill: #694534;
      }

      .cls-9 {
        fill: #d0965e;
      }

      .cls-10 {
        fill: #545e61;
      }

      .cls-11 {
        fill: #57422e;
      }

      .cls-12 {
        fill: #887258;
      }

      .cls-13 {
        fill: #cc8478;
      }

      .cls-14 {
        fill: #25292d;
      }

      .cls-15 {
        fill: #f2c4b1;
      }

      .cls-16 {
        fill: #907e72;
      }

      .cls-17 {
        fill: #a39993;
      }

      .cls-18 {
        fill: #a46030;
      }

      .cls-19 {
        fill: #342e3d;
      }

      .cls-20 {
        fill: #e5a467;
      }

      .cls-21 {
        fill: #fbd4c3;
      }

      .cls-22 {
        fill: #3d3d3b;
      }

      .cls-23 {
        fill: #321e10;
      }

      .cls-24 {
        fill: #c2c6d2;
      }

      .cls-25 {
        fill: #363e4d;
      }

      .cls-26 {
        fill: #766b65;
      }

      .cls-27 {
        fill: #3c413f;
      }

      .cls-28 {
        fill: #49333d;
      }

      .cls-29 {
        fill: #51534e;
      }

      .cls-30 {
        fill: #1c1c1b;
      }

      .cls-31 {
        fill: #728e5a;
      }

      .cls-32 {
        fill: #181711;
      }

      .cls-33 {
        fill: #2d2d24;
      }

      .cls-34 {
        fill: #96582a;
      }

      .cls-35 {
        fill: #535856;
      }

      .cls-36 {
        fill: #1a130e;
      }

      .cls-37 {
        fill: #713112;
      }

      .cls-38 {
        fill: #3e2c21;
      }

      .cls-39 {
        fill: #6c555f;
      }

      .cls-40 {
        fill: #241000;
      }

      .cls-41 {
        fill: #d8ab9c;
      }

      .cls-42 {
        fill: #597042;
      }

      .cls-43 {
        fill: #c78f5a;
      }

      .cls-44 {
        fill: #503528;
      }

      .cls-45 {
        fill: #bbaca6;
      }

      .cls-46 {
        fill: #fff;
      }

      .cls-47 {
        fill: #080000;
      }

      .cls-48 {
        fill: #c07d70;
      }

      .cls-49 {
        fill: #c18656;
      }

      .cls-50 {
        fill: #58404b;
      }

      .cls-51 {
        fill: #632a0d;
      }
    </style>
  </defs>
  <path class="cls-46" d="M57.4,58.2c0-.3,0-.6.1-.9v-.7c.1,0,.1,0,.1-.2h.1c0,.1.7,1.2.7,1.2l.4-3.1.6.3v-.4s.6.6.6.6l-1-4.7c0-.4-.1-.8-.2-1.2h.2s0-.5,0-.5l1,.4-1.1-3c0-.2-.1-.3-.2-.5,0,0-.2-.5-.2-.6.2-.5.2-1.1.2-1.6h.6s-.6-1.8-.6-1.8c0-.2-.1-.4-.1-.6,0,0,0-.1,0-.2h0c0-.2,0-.3,0-.4v-.8c0,0,0,0,0,0,0-.2.1-.5.3-.8h0c.9-.7.8-1.7.8-2.1h0c0-.2,0-.4.1-.6,0-.3.2-.6.2-.9h0v-.2c0-.2,0-.5,0-.8,0-.1,0-.2,0-.3,0-.7,0-1.7-1-2.5l-.4-.4h-.5s-.1,0-.1,0c-.6,0-1.1.3-1.3.5h-.1c-.7.6-1.2,1.3-1.7,1.9,0,0-.6.9-.8,1.1-.1,0-.2,0-.3,0h-.1c-.1,0-.2,0-.3,0-.1-.1-.8-1.1-.8-1.1-.4-.6-.9-1.3-1.7-1.8h-.1c-.2-.3-.7-.6-1.3-.6h-.7c0,.1-.3.4-.3.4-.9.8-.9,1.8-1,2.5,0,0,0,.2,0,.4,0,.2,0,.5,0,.7h0c0,.1,0,.2,0,.2,0,.3.1.6.2.9,0,.2.1.4.1.4h0c0,.5-.1,1.6.8,2.2h0c.1.3.2.6.3.8v.9c0,0,0,.2-.1.3h0c0,.2,0,.3,0,.4,0,.2,0,.4-.1.6l-.6,1.7h.2c0,.3-.1.6-.2.9,0,.3-.2.6-.2.9-.3.8-.6,1.3-.9,1.6h-.2c-.2.3-.4.5-.7.8-.4.4-.6,1-.7,1.6,0,.3,0,.6,0,.9,0,.3,0,.5-.2.8-.2.6-.6,1.2-1.1,1.9,0-.6-.2-1.2-.3-1.7,0-.5-.2-1-.2-1.2s.2-.7.3-1c.3-1,.8-2.3.5-3.7-.2-1.1-.9-3.2-1.5-4.6.2-.7.1-1.4,0-1.8,0-.3-.2-1.3-.6-2.1,0,0,0-.4,0-.7,0-.5,0-1.2,0-2.2,0-2.3-.5-4-.7-4.8,0-.2-.1-.5-.2-.8l.5-.2-.2-1.1c0-.5-.9-4.8-1.2-5.8-.4-1.2-1.4-2.1-1.7-2.4-.3-.3-1-.7-1.9-1.2h0c-.2-.4-.4-.6-.6-.8,0,0,0,0,0-.1,0,0,.1-.1.2-.2.2-.3.2-.9.3-1.5,0-.6,0-1.2,0-1.7,0-.4.3-.2.8-.5.5-.2,2.3-1,1.8-1.3-.5-.2-1.7-.6-2.4-.9-.7-.2-.7-1.1-1.2-1.9-.5-.8-.9-1-1.9-.9-.9.2-2,0-2.9,0-.9,0-.8.6-1.1,1.5-.3.9-.3.8-1,1.2-.7.4-2.1.7-2.4,1.2-.3.5.8.9,1.3,1.2.5.2,1.1.4,1,.5-.1.1.4.7.4,1.1,0,.4.3.6.3.7s-.3,1-.3,1c0,0,0,0-.1.1-.1,0-.2,0-.3,0-.7,0-1.3,0-1.8.4l-.4.2c-.6.3-2,1.1-2.7,2.5,0,0-2.4,5.4-2.2,6.5v.4c0,.5-.1,1-.2,1.2-.3.8-.8,2.4.3,3.2.1,0,.5.5.7,1,.4.9,1.9,2.5,2.9,3.4-.4,2.7-.4,4.3-.2,5,.2.6.3,1,.1,1.8,0,.2,0,.4-.1.6-.2,1-.5,2.5.5,3.4.1.1.4.7.5,1.6.1,1.3.2,4,0,4.5,0,.2,0,.3-.1.4-.2.7-.4,1.2-.1,2.2,0,.1,0,.5,0,.7,0,.1,0,.3,0,.4-5.9.6-16.3,2.4-16.3,6.9s7.9,5.8,14.5,6.7h.1c3.2.4,6.5.6,10,.7.7,0,1.3,0,2,0,9.2,0,26.6-1.6,26.6-7.4s-2.4-3.7-5.5-4.8ZM33.3,50c0-.5,0-1.3,0-1.5.3-.5.5-1.3.8-2.6.1-.4.3-.9.4-1.4,0,0,0,0,0,0,.2.1.4.6.6,1h0c0,.1,0,.3,0,.3.3.6.8,1.2,1.4,1.9l.3.3c.1.2,0,.8,0,1.4v.5c-.1.7-.1,1.2,0,1.9,0,.6,0,1.4,0,2.7,0,.3,0,.6,0,.9h-.5c-1,0-1.9,0-2.8,0,.2-.8,0-1.6,0-2.3,0-.5-.1-1-.1-1.5,0-.6,0-1.2,0-1.8Z"/>
  <path class="cls-31" d="M61.5,63c0,3.3-11.3,6-25.2,6s-1.3,0-2,0c0-.2,0-2.1,1.5-3.7,1.6-1.6,2.7-4.4,7.7-4.4,5.1,0,2.8-1.6,2.5-1.6-.3,0-8.5-.2-8.5-.2,0,0-2.1.5-2.4,1.4-.4.9-2.8-.8-6.4-.7,0,0-9.4-.3-6.8,1.9,2.7,2.1,2.4,6.8,2.4,6.8-7.9-1-13.3-3-13.3-5.3,0-3.3,11.3-6,25.2-6s25.2,2.7,25.2,6Z"/>
  <path class="cls-42" d="M46.7,60.3c-.9-.4-1.9-.8-2.7-1.2,1.1,0,2,0,2.1,0,.2,0,1,.6.6,1.1Z"/>
  <path class="cls-42" d="M57.6,64.1c-1.1.4-3.3,0-5.3,0-2,.1-1.2,1-3.4,1.2-2.3.2-1.8-.7-3.5,0-1.7.7-3.1,0-5.8,0-2.7,0-4.6,1.2-4.6,1.2-.6,1.2-.6,2.3-.6,2.5-3.6,0-6.9-.3-9.9-.7h0s.2-4.6-2.4-6.8c-2.6-2.2,6.8-1.9,6.8-1.9,3.5,0,6,1.6,6.4.7.4-.9,2.4-1.4,2.4-1.4,0,0,1.8,0,3.7,0,.9,0,1.9,0,2.8,0h0c.8.3,1.8.8,2.7,1.2,1.5.6,2.9,1.2,2.9,1.2.2,0,3.6.2,4.6.8,1,.5,3,.8,3.9.7.8-.1.6.8-.5,1.1Z"/>
  <path class="cls-42" d="M44,59.1c-.8,0-1.8,0-2.8,0,.7-.4,1.2-.6,1.2-.6,0,0,.6.3,1.5.7Z"/>
  <g>
    <path class="cls-22" d="M32.4,19.3l2.5-1.9s.5,1.6-.2,2.6-1.1,1.1-1.1,1.1l-1.1-1.9Z"/>
    <path class="cls-5" d="M38.2,34.6h0c-.3-.2-1-.3-2.2-.2-1.1,0-2.4.4-3.7,0-.8-.3-2.6-.4-3.7-.6-.5,0-.9-.2-.9-.4,0-.5,0-2.2,0-2.2l6.2-.3,3.8,1s.7,2.7.5,2.6Z"/>
    <path class="cls-45" d="M40.4,27.1s-.2,0-.5.2c-.1,0-.3,0-.4.1,0,0,0,0,0,0-.2,0-.4.1-.5.1-.2,0-.2-.2,0-.6.1-.4.3-.9.3-1.4,0-1-.2-2.7-.7-3.2-.6-.5-.7-1.8-.7-1.8,0,0,0,0,0-.2h0c0-.2,0-.6.1-.6,0,0,0,0,0,0,0,0,1,.7,1.3,1.7.3,1,1.2,5.7,1.2,5.7Z"/>
    <path class="cls-16" d="M39.6,27.4s0,0,0,0c0,0-.8.3-1.2.4,0,0,0,0,0,0,0,0-.1-.1-.2-.4-.3-1.5-.3-7-.3-7h0s0,0,0,0c0,.1,1,1.6,1.3,2.3.2.6.4,3.3.4,4.3,0,.3,0,.4,0,.4Z"/>
    <path class="cls-35" d="M38.4,26.5c0,.1,0,.2,0,.4,0,.3,0,.6,0,.9,0,.4,0,.7,0,1.1,0,1.1-.2,2.1-.4,2.7-.3,1-.7,1.5-2.6,1-1.8-.5-2.1-6-2.1-6l.8-5.9,2-2.1s1.6.8,1.9,1.2c0,0,0,0,0,0,0,0-.1.1-.1.6,0,0,0,0,0,.2,0,.8.6,3.9.6,5.9Z"/>
    <path class="cls-22" d="M37,20s0,.2-.4.1-.8-.3-.8-.3c0,0-1,.7-1.1,1s.3,2.3.4,2.9.6,5.3.4,6.6.5-1.5,1.2-1.5,1.1.1,1.1.1c0,0-1.2-.2-1.5.8s-1,3-1,3c0,0-.6-.2-.9.1s-.7-4.1-.7-4.1v-8.1s1.5-1.5,1.5-1.5c0,0,.6-.4,1.7.9Z"/>
    <path class="cls-21" d="M30.8,13.7s-.4-.2-.4,0,.2.5.2.8.2,1,.5.9-.3-1.7-.3-1.7Z"/>
    <path class="cls-15" d="M35.4,13.8s.2-.2.3,0,0,.8-.1,1.1-.2.8-.4.8.3-1.9.3-1.9Z"/>
    <path class="cls-15" d="M31.6,16.8c0,0,.4.9,1.4,1.1,1,.2,1.1.2,1.2.6.1.3-.4,1.1-.4,1.1h0c-.5.1-1-.1-1-.1l-1.4-1.8v-1.2h1.2c0,0,.8.1.8.1h1.5c-.2.6-.5,1-.9,1s-.4,0-.6,0c-.3,0-.7,0-1.3-.3-.2-.1-.3-.3-.5-.5Z"/>
    <path class="cls-21" d="M34.3,12.6c-.9,0-.9.6-.9.9s.1,1.4,0,1.5c-.1.1-.1.3-.1.6,0,.1,0,.4,0,.6,0,.1,0,.2,0,.3,0,.2,0,.4,0,.5,0,.2,0,.5,0,.5-.3,0-.7,0-1.3-.3-.2-.1-.3-.3-.5-.5,0,0,0,0,0,0,0-.1-.2-.3-.2-.4-.3-.6-.3-1.3-.4-1.7-.2-.7-.2-1.7,0-2.8.2-1.1,1-1.1,1.6-1.1.6,0,1.4-.1,1.4-.1,0,0,.8.1.8.7,0,.6.5,1.3-.4,1.3Z"/>
    <path class="cls-15" d="M35.5,14.1c0,.5-.2,1.6-.5,2.2,0,.1,0,.2-.1.3-.2.5-.5.9-.9.9s-.4,0-.6,0c0,0,0-.3,0-.5,0,0,0-.3,0-.5,0,0,0-.2,0-.3,0-.3,0-.5,0-.6,0-.2,0-.5.1-.6.1-.1,0-1.2,0-1.5s0-.9.9-.9c.9,0,.5-.7.4-1.3,0-.6-.8-.7-.8-.7.8-.2,1.2.5,1.3.9.1.4.2,1.9.2,2.6Z"/>
    <path class="cls-41" d="M34.9,17.8c0,.3-.1,1.3-.8,1.6-.1,0-.2.1-.4.1h0s.5-.7.4-1.1c-.1-.3-.2-.3-1.2-.6-1-.2-1.3-1-1.4-1.1.1.2.3.3.5.5.5.3.9.3,1.3.3.2,0,.4,0,.6,0,.4,0,.7-.4.9-.9,0,0,0,.8,0,1.1Z"/>
    <path class="cls-17" d="M33.5,20.9l1.9-1.5.4-.5s-.7-1.4-.9-1.6c0,0,.2,1.2-.4,2s-1.2,1.2-.9,1.5Z"/>
    <path class="cls-24" d="M35.4,19.5s.2-.3.5-.2.7.4,1.1.7.2,0-.2-.5-1.2-1.5-1.5-1.8-.4-.3-.4-.3c0,0,.4.7.5,1s.3.7,0,1.1Z"/>
    <path class="cls-26" d="M33.5,20.9s-1.8-.8-2.4-2.1c0,0,.9-.8,1.6.6,0,0,1.1.8.9,1.1v.4Z"/>
    <path class="cls-10" d="M34.3,32.9c-.5.5-2.2.6-3.2.2-1-.4-2.2-1.3-3-1.5-.8-.3-.8-1.2-.8-1.8s-.1-2.7-.1-3.1,0,0,0,0c0-.1,0-.2,0-.4,0,0,0,0,0,0,0-.2.1-.3.2-.4,0-.2.2-.3.2-.3h0s1.2.9,1.6-1.1c0-.5.1-1,0-1.5,0-.6-.2-1.2-.3-1.8,0,0,0,0,0,0-.1-.4-.2-.7-.4-1-.1-.3-.2-.5-.3-.7-.5-1-.8-.9-.9-.9,0,0,0,0,0,0,.3-.3.7-.4,1.5-.4.8,0,1.5-.2,1.5-.2,0,0,1.1,1.6,1.9,2.2.8.6,1.3.6,1.3.6,0,0,.4.7.7,1.7.3,1,.7,5.1.7,5.9,0,.8-.2,4.2-.7,4.7Z"/>
    <path class="cls-24" d="M31.3,16.6s-.7.1-1.1,1-.8,1.2-.6,1.3.9,0,1.5,0,.8-.2,1.2,0c0,0-.7-1.1-.8-1.2s-.2-.2-.2-.4,0-.7,0-.7Z"/>
    <path class="cls-3" d="M29.1,21s-.4-.7-.5.3c0,.2,0,.4,0,.6,0,0,0,0,0,.1,0,0,0,.1,0,.2,0,0,0,0,0,0,0,0,0,0,0,.1-.1.2-.3.2-.3-.2,0,0,0,0,0-.1,0,0,0,0,0,0,0,0,0,0,0-.1,0,0,0,0,0,0,0-.2,0-.5-.2-.7,0,0,0,0,0-.1,0,0,0,0,0,0,0,0,0,0,0,0,0-.1,0-.2-.1-.3,0,0,0,0,0,0,0,0,0,0,0,0,0,0,0,0,0,0,0-.1-.1,0-.1.3,0,1.1-.2,3.1-.2,3.1,0,0,0-1,0-1.9-.2-.9-.3-1-.2-.4.1.6,0,2.2-.2,2.7-.1.6,0-.9-.2-1.5-.1-.6-.7-.6-.5.5.2,1,.1,2.4.2,3.1,0,.3,0,.4-.2.4,0,0,0,0,0,0,0,0,0,0,0,0,0,0-.2,0-.3-.1,0,0,0,0,0,0h0c-.2-.1-.5-.3-.9-.5-.6-.3-1.1-.3-1.3-.3h0c-.2,0-.3,0-.3,0,0-.2,1.5-4.3,2.1-5.5.6-1.3,2.2-1.9,2.2-1.9t0,0s0,0,0,0c0,0,.5-.2.9.9,0,.2.2.5.3.7.1.3.3.7.4,1,0,0,0,0,0,0Z"/>
    <path class="cls-12" d="M29.4,24.3c-.3.7-.8,1-1.1.8-.3-.1-.2-.5-.2-1.2,0-.6-.3-2.4-.3-1.9,0,.5,0,3.3,0,3.3h0s-.1.2-.2.3c0,.1-.2.3-.2.4,0,0,0,0,0,0,0,.1,0,.3,0,.4-.1.5-.4,1.4-.5,1.2,0,0,0,0,0,0,0,0,0-.2-.2-.2-.1-.2-.3-.4-.5-.5-.2-.1-.3-.2-.3-.2.1,0,.2,0,.3.1,0,0,0,0,0,0,0,0,0,0,0,0,0,0,0,0,0,0,0,0,.1,0,.1-.2,0,0,0-.1,0-.2,0-.8,0-2.1-.2-3.1-.2-1,.4-1.1.5-.5.1.6.1,2.1.2,1.5.1-.6.3-2.1.2-2.7-.1-.6,0-.6.2.4.2.9,0,1.9,0,1.9,0,0,.2-2,.2-3.1,0-.4,0-.4.1-.3,0,0,0,0,0,0,0,0,0,0,0,0,0,0,0,0,0,0,0,0,0,.2.1.3,0,0,0,0,0,0,0,0,0,0,0,0,0,0,0,0,0,.1,0,.2.1.5.2.7,0,0,0,0,0,0,0,0,0,0,0,.1,0,0,0,0,0,0,0,0,0,0,0,.1,0,.5.2.5.3.2,0,0,0,0,0-.1,0,0,0,0,0,0,0,0,0-.1,0-.2,0,0,0,0,0-.1,0-.2,0-.4,0-.6,0-1,.5-.3.5-.3.2.5.3,1.1.3,1.8,0,.5,0,1,0,1.5Z"/>
    <path class="cls-12" d="M27.3,26.6c0-.1,0-.2,0-.4,0,0,0,.2,0,.4Z"/>
    <path class="cls-12" d="M27.4,26.2c.1-.4.4-.7.4-.8l-.4.8Z"/>
    <path class="cls-11" d="M29.4,24.3c-.4,2-1.6,1.1-1.6,1.1,0,0,0-2.8,0-3.3,0-.5.3,1.2.3,1.9,0,.6,0,1.1.2,1.2.3.1.8-.2,1.1-.8Z"/>
    <path class="cls-41" d="M32.4,37.2c-.1.7-.4.3-.5.7,0,0,0,0,0,0h0s0,0,0,0h0c-.2.2-.5.2-.5.2-.2.3-.5.2-.6.3,0,0-.3.2-.4.1-.1,0-.7-.7-1.1-1.1-.4-.4-.6-.4-.8-.8-.2-.5-.5-1.2-1.4-1.8-.9-.6-2.9-2.6-3.2-3.4-.3-.8-.9-1.4-1.2-1.6s0-1.1.2-1.7c.2-.6.6-2.4.6-2.4h0c.3,0,.7,0,1.3.3.4.2.7.4.9.5h0s0,0,0,0c0,0,.1.1.3.2.2.1.3.3.5.5-.2.4-.8,1.3-.9,1.2-.1-.2-1.1-.5-.2.1.2.1.3.2.4.4.6.6.9,1.3,1.7,2.7.4.8,1,1.6,1.5,2.2.6.7,1.2,1.2,1.6,1.3.1,0,.3.1.5.3h0c.6.4,1.3,1.1,1.2,1.6Z"/>
    <path class="cls-2" d="M26.7,27.6c-.3.6-.9,1.5-.9,1.5h0c-.1-.1-.3-.3-.4-.4-.9-.7.1-.3.2-.1.1.2.7-.8.9-1.2,0,0,.1.2.2.2Z"/>
    <path class="cls-2" d="M41.4,40.4s0,0,0,.2c-.1.3,0,.8-.2.8-.2,0-.3-.2-.3-.2,0,0-.3.1-.4.2-.2,0-.4-.1-.3-.3,0-.1.2-.3.3-.3,0,0-.3.2-.4.2,0,0-.3-.2-.1-.5.2-.2.8-.9.8-1,0,0,0,0,0,0,0-.1-.1-.4-.2-.6,0-.3-.4-.5-.5-.6,0,0,0,0-.1.1,0,.2-.1.5-.2.7,0,.4,0,.7-.4.7-.3,0-.2-.7-.1-1,0-.2,0-1,0-1.6,0-.2,0-.3.1-.4.3-.4.1-1.1,0-1.6,0-.6-.6-1.7-.6-3,0-.9-.4-2.4-.6-3.4,0-.4,0-.7,0-1.1.4,0,1.1-.3,1.2-.4,0,0,0,0,0,0,.1,0,.3,0,.4-.1,0,.5.3,1.5.5,2.1.2.7.6,2.2.7,4.3,0,2.1-.3,2.9,0,3.4.3.6.4,1.3.5,1.8,0,.5.1,1.1-.1,1.5Z"/>
    <path class="cls-29" d="M32.9,39c0,1.5-1.3,3.1-1.1,6.1.2,3-.4,2.8-1.2,4.6-.9,1.8.5,4.4.4,5.5,0,1.1-1.8,1.4-.8,1.8s1,1.7.8,2.2c-.2.5-2.2.5-2.2.5,0,0,1.3.2,2.2,0,.9-.3.8.5.5.8,0,0-.3.2-.7.3-.2,0-.5.1-.7.2-.5,0-1.1,0-1.5,0-.1,0-.2,0-.3-.1-.6-.3-.3-.8-.4-1.8-.1-1.1,0-1.5-.4-1.9-.3-.4.2-1.5,0-2.3-.2-.8,0-.9.2-1.8.3-.9,0-4.2,0-5.1,0-.9-.4-2-.9-2.5-.6-.5-.2-1.7,0-2.7.2-1.1,0-1.7-.2-2.5-.2-.8.4-5.2.4-5.2.9.6,1.2,1.3,1.4,1.8.2.5.4.5.8.8.4.4,1,1,1.1,1.1.1,0,.3,0,.4-.1,0,0,.4,0,.6-.3,0,0,.3,0,.5-.2,0,0,0,0,0-.1.1-.3.4,0,.5-.7,0-.5-.6-1.2-1.2-1.6,1.8.1,1.8,2,1.7,3.4Z"/>
    <path class="cls-33" d="M42.2,49.8c0,1,.7,3.1.5,4.7-.1,1,0,2.4,0,3.2,0,.5,0,.8-.1.9-.3.2-1.9.5-3.7,0-.2,0-.4-.1-.5-.2-1-.5,0-1.5,0-3.8,0-2.6-.1-3.3,0-4.4.1-1.2.4-2.2-.2-2.9-.6-.8-1.2-1.4-1.5-2,0,0-.4-1.4-1.2-1.9-.8-.5-.2-1.2,0-2.3.2-1,1-1.2,1.9-1.2s-1.3-.8-2.2.4c-.8,1.2-1.1,2-1.5,2.7-.4.8-1.1,4.1-1.5,4.8-.4.7-.2,2.3-.3,3.8-.1,1.5.5,2.9,0,4.1-.5,1.2.6,3.9-.5,4.6.3-.3.3-1.1-.5-.8-.9.3-2.2,0-2.2,0,0,0,2,0,2.2-.5.2-.5.2-1.8-.8-2.2s.8-.8.8-1.8c0-1.1-1.3-3.7-.4-5.5.9-1.8,1.4-1.6,1.2-4.6-.2-3,1-4.6,1.1-6.1,0-1.5,0-3.3-1.7-3.4h0c-.2-.1-.4-.2-.5-.3-.4-.1-1-.6-1.6-1.3,1.1.2,2.6.3,3.3.5,1.2.4,2.5,0,3.7,0,1.1,0,1.9,0,2.2.2h0c0,0,1.2,1.1.9,1.5-.1.2,0,.6.3,1,0,.5,0,1.3,0,1.6,0,.3-.2,1,.1,1,.3,0,.3-.3.4-.7,0-.2,0-.5.2-.7.3.4.5.8.7,1.1,0,0,0,0,0,0,0,.1-.6.7-.8,1-.2.2,0,.5.1.5,0,0,.3-.2.4-.2,0,0-.2.2-.3.3,0,.1.2.4.3.3.2,0,.4-.2.4-.2,0,0,0,.3.3.2.2,0,0-.5.2-.8.6,1.3,1.4,3.7,1.6,4.9.3,1.5-.8,3.4-.8,4.3Z"/>
    <path class="cls-32" d="M37.3,40c-.9,0-1.7.1-1.9,1.2-.2,1-.9,1.8,0,2.3-.9-.5-1.7-.3-1.7-.3.4-.8.7-1.5,1.5-2.7.8-1.2,3-.4,2.2-.4Z"/>
    <path class="cls-25" d="M32,64.3c-.1.5-1,1.2-1.9,1-.9-.2-1.2-.9-1.4-1.7-.2-.7-.4-3-.4-3,0,0,.2,0,.3.1.4.1,1,.2,1.5,0,.3,0,.5,0,.7-.2.1.3.3.6.5.9.4.7,0,.9-.4.8-.5,0-1.1.4-.3.4.8,0,1.6,1,1.5,1.5Z"/>
    <path class="cls-14" d="M31.8,65.1c-1,.6-1.7.2-1.7.2.9.2,1.8-.4,1.9-1,.1-.5-.7-1.5-1.5-1.5-.8,0-.2-.5.3-.4.5,0,.8,0,.4-.8-.2-.3-.3-.7-.5-.9.3,0,.6-.2.7-.3,0,0,1.4,4.1.4,4.7Z"/>
    <path class="cls-14" d="M45.7,59.9c-1,.4-1.8,0-3.7,0-1.9,0-3.4.2-3.7-.3-.3-.5,0-1.2,0-1.2.1,0,.3.1.5.2,1.8.5,3.4.2,3.7,0,0,0,.1-.4.1-.9h0s1.9.7,2.9.7c1,0,1.2,1.1.2,1.5Z"/>
    <path class="cls-19" d="M30.6,13.6l.3,1s.1.4,0-.5,0-1.5,0-1.9.2-1.2.8-1.2,1.9-.1,2.4-.1.9.3,1.1,1.4,0,2.6,0,2.5.2-.9.2-.9c0,0,.2,0,.2-.6s0-1.8-.2-2.1-.5-1-1.3-1.2-1.5-.2-2.1,0-1.6.7-1.6,1.6.1,2.1.1,2.1Z"/>
    <path class="cls-19" d="M31.2,12.8s.3-.3.7-.2.7,0,.8.2-.1.2-.3,0-.5-.2-1.2,0Z"/>
    <path class="cls-19" d="M33.6,12.7s0,.2,0,.3.5-.2,1.1-.1c0,0,.4,0,.4.3s.3-.7-1.5-.4Z"/>
    <path class="cls-48" d="M32.1,15.6s.5.2,1.2.3,1.2-.1,1.2-.1c0,0-1.1-.2-2.4-.1Z"/>
    <path class="cls-13" d="M32.1,15.6s.8-.2,1,0,.4-.1.8,0,.7.2.7.2c0,0-1.5-.3-2.5-.2Z"/>
    <path class="cls-27" d="M33.7,13.4s.4-.2.8,0,.4.2.4.2c0,0-.4-.3-1.2-.2Z"/>
    <path class="cls-27" d="M31.4,13.3s.7-.3,1.2.1c0,0-.5-.3-1.2-.1Z"/>
    <g>
      <path class="cls-39" d="M35.7,11.1c0,0,0-.2,0-.3h0s0,0,0,0c0,0,0,0-.1,0,0,0,0,.2,0,.3,0,0,.1,0,.2,0h0s0,0,0,0Z"/>
      <g>
        <path class="cls-35" d="M37.9,11.6c-.6-.1-1.1-.2-1.7-.4-.2,0-.3,0-.5-.1h0s0,0,0,0c-.3.2-.7.2-1,.3-.7,0-1.4.1-2.3,0-.3,0-.7,0-1.1,0h0c-.2,0-.3,0-.5,0-.2,0-.3,0-.5-.1h0s0,0,0,0c-.2,0-.4,0-.5.1-.3,0-.5.1-.8.2,0,0-.1,0-.2,0h0s-.6.2-.6.2h0s0,0,0,0c.6.2,1.2.4,1.9.5.7,0,1.5.2,2.3.2.2,0,.5,0,.8,0,0,0,.2,0,.3,0,.2,0,.4,0,.6,0,.7,0,1.3-.1,2-.3.7-.1,1.3-.3,1.9-.6h0s0,0,0,0h0s0,0,0,0Z"/>
        <path class="cls-35" d="M35.5,10.7c0-.3-.2-.6-.3-.8-.1-.3-.2-.5-.3-.7,0,0-.1-.2-.2-.3,0,0-.2,0-.3-.1-.3,0-.6,0-.9,0-.1,0-.2,0-.4,0h0c0,0-.1,0-.2,0-.2,0-.4,0-.6-.1-.2,0-.4,0-.6,0h0c-.2,0-.4,0-.5.2-.2.2-.3.5-.4.7l-.3,1.2v.2c.1,0,.2,0,.4.1.2,0,.4,0,.6,0,.8,0,1.4,0,2.1,0h0c.4,0,.7,0,1.1,0,.3,0,.6,0,.8-.2h0s0-.2,0-.2Z"/>
      </g>
      <g>
        <path class="cls-10" d="M35.6,11.2s0,0,.1,0c0,0,.1,0,.2,0,.1,0,.3,0,.4,0,.1,0,.3,0,.4,0,.2,0,.4,0,.7.1,0,0,.2,0,.3,0,0,0,0,0,0,0,0,0,0,0,0,0h0s0,0,0,0c0,0,0,0,0,0h0s0,0,0,0c-.6-.1-1.1-.2-1.7-.4-.2,0-.3,0-.5-.1h0s0,0,0,0c0,0,0,0,0,0,0,0,0,0,0,0Z"/>
        <path class="cls-10" d="M35.6,10.8c0,0-.1-.3-.1-.3,0,0,0,0,0,0,0,0,0,0,0,0,0-.1,0-.3-.1-.4-.1-.3-.2-.5-.3-.7,0,0-.1-.2-.2-.3,0,0-.2,0-.3-.1,0,0,0,0,0,0,.1,0,.2.2.3.3,0,0,0,.1.1.2,0,0,0,.1.1.2,0,.2.1.3.2.5,0,0,0,0,0,0,0,.3.2.7.3,1,0,0,0,0,.1,0,0,0,0,0,0,0Z"/>
      </g>
      <g>
        <path class="cls-22" d="M35.8,11.2s0,0,0,0,0,0,0,0c0,0,0,0-.1,0-1,.3-2,.3-3.1.3-.3,0-.6,0-1,0h-.2c0,0-.2,0-.2,0-.2,0-.3,0-.4,0,0,0-.2,0-.2,0h0c0,0,0,0,0,0-.2,0-.4,0-.5.1-.3,0-.5.1-.8.2,0,0-.1,0-.2,0h0s-.6.2-.6.2h0s0,0,0,0c0,0,.2,0,.2,0,0,0,0,0,.1,0,.3,0,.6-.2.9-.2.1,0,.3,0,.4-.1.1,0,.3,0,.4-.1,0,0,.1,0,.2,0,.9.1,1.8.2,2.7.2.7,0,1.5,0,2.2-.2.2,0,.3,0,.5-.2,0,0,0,0,0,0Z"/>
        <path class="cls-22" d="M30.6,10.9c0-.1,0-.2.1-.3,0-.2.1-.4.2-.6,0-.2.1-.3.2-.5,0-.1.1-.3.2-.4,0,0,0,0,.1-.1-.1,0-.2,0-.3.1-.2.2-.3.5-.4.7l-.4,1.3h0c0,0,0,0,.1,0,0,0,0-.1,0-.1Z"/>
        <path class="cls-22" d="M32.1,8.9c.2,0,.4,0,.6.1.2,0,.4,0,.5.1.1,0,.2,0,.4,0,.1,0,.3,0,.4,0,0,0,.1,0,.2,0,0,0,0,0,0,0,0,0,0,0,0,0,0,0,0,0,0,0,0,0,0,0,0,0,0,0,0,0,0,0,0,0,0,0,0,0,0,0,0,0,0,0,0,0,0,0,0,0,0,0,0,0,0,0,0,0,0,0,0,0,0,0,0,0,0,0,0,0,0,0,0,0,0,0,0,0,0,0,0,0,0,0,0,0,0,0,0,0,0,0,0,0,0,0,0,0,0,0,0,0,0,0,0,0,0,0,0,0,0,0,0,0,0,0,0,0,0,0,0,0,0,0,0,0,0,0,0,0,0,0,0,0,0,0,0,0,0,0,0,0,0,0,0,0,0,0,0,0,0,0,0,0,0,0,0,0,0,0,0,0,0,0,0,0,0,0,0,0,0,0,0,0,0,0,0,0,0,0,0,0,0,0,0,0,0,0,0,0,0,0,0,0,0,0,0,0,0,0,0,0,0,0,0,0,0,0,0,0,0,0,0,0,0,0,0,0,0,0,0,0,0,0,0,0,0,0,0,0,0,0,0,0,0,0,0,0,0,0,0,0,0,0,0,0,0,0,0,0,0,0,0,0,0,0,0,0,0,0,0,0,0,0,0,0,0,0,0,0,0,0,0,0,0,0,0,0-.3,0-.5,0-.8.1-.1,0-.2,0-.4,0h0c0,0-.1,0-.2,0-.2,0-.4,0-.6-.1-.1,0-.2,0-.3,0,0,0,.1,0,.2,0Z"/>
      </g>
      <polygon class="cls-30" points="38 11.7 38 11.7 38 11.7 38 11.7 38 11.7"/>
      <path class="cls-50" d="M35.7,11.1h0c0,0,0-.2,0-.3h0s0,0,0,0c-.3.2-.6.2-1,.3-.7,0-1.4,0-2.2,0-.3,0-.7,0-1.1,0h0c-.2,0-.3,0-.5,0-.2,0-.3,0-.4-.1h0s0,0,0,0c0,0,0,0,0,0,0,0,0,0,0,0,0,0,0,0,0,0,0,0,0,0,0,.1h0s0,0,0,0c.2,0,.4,0,.5.1.2,0,.4,0,.6,0,.8,0,1.5,0,2.2,0h0c.4,0,.7,0,1.1,0,.3,0,.6,0,.9-.2h0s0,0,0,0Z"/>
      <path class="cls-28" d="M30.6,11c0,0-.1,0-.2,0h0s0,0,0,0c0,0,0,0,0,0,0,0,0,0,0,0,0,0,0,0,0,0,0,0,0,0,0,.1h0s0,0,0,0c0,0,0,0,.1,0,0,0,0,0,0,0,0,0,0,0,0,0,0,0,0-.2,0-.3,0,0,0,0,0,0Z"/>
      <path class="cls-22" d="M37.9,11.7h0s0,0,0,0c-.2,0-.4.2-.7.2-.4.1-.7.2-1,.2-.7.1-1.4.2-2.2.3-.3,0-.7,0-1,0-.3,0-.7,0-1,0-.7,0-1.5-.1-2.2-.2-.6,0-1.2-.2-1.7-.4h0s0,0,0,0c0,0,0,0,0,0,0,0,0,0,0,0,.6.2,1.3.3,2,.4.7,0,1.4.2,2.2.2.3,0,.6,0,1,0s.3,0,.5,0c.7,0,1.4-.1,2.1-.3.7-.1,1.4-.3,2-.5,0,0,0,0,0,0h0s0,0,0,0c0,0,0,0,0,0,0,0,0,0,0,0Z"/>
    </g>
  </g>
  <g>
    <g>
      <path class="cls-49" d="M57.1,41.9c.5.9.5,2.1,0,3l.4,1.1c0,.2.1.4.2.6,0,0,0,0-.1,0,.2.3.3.7.3,1,0,0-.2,0-.3,0-.1,1.1,0,2.2.2,3.3,0,0-.2-.1-.3-.2.4.5.6,1.2.6,1.8-.1,0-.2-.2-.3-.3,0,.6,0,1.2,0,1.8-.1-.2-.2-.3-.3-.5v.5c0,0-.2-.1-.2-.2-.1.4-.2.8-.2,1.2,0,0,0-.1-.1-.2-.1.6-.4,1.1-.5,1.7,0,.2,0,.5-.1.7-.1.7-.2,1.5-.2,2.2,0,1,.3,2,.7,2.9,0,0,0,.2.2.2.1,0,.3,0,.4,0,.2,0,.5,0,.7.2.2.1.4.4.3.7,0,.1-.3.2-.4.3-.5.2-1.1.3-1.7.2s-1.1-.5-1.3-1c0-.3,0-.7-.2-.9-.2-.3-.5-.6-.3-.9h-.2c0-.3.1-.8.1-1.2,0,0-.1,0-.2,0,.2-.6.1-1.2,0-1.7-.5.6-.7,1.5-.3,2.2,0,0-.2,0-.3-.1,0,.1,0,.2,0,.4,0,0-.2-.2-.3-.2,0,.4,0,.7,0,1.1,0-.1-.2-.2-.3-.3v.2c-.1,0-.2-.2-.3-.2,0,.3-.1.7-.3,1,0-.1-.1-.2-.2-.3-.1.1-.3.2-.4.4.1,0,.3.2.4.3.1.1.1.3,0,.5-.1.2-.4.2-.6.2-.7,0-1.4,0-2.1-.2.2,0,.4.4.3.6-.1.2-.4.3-.7.2,0,.3.5.4.5.7,0,.2-.3.3-.5.3-.5,0-1.1.1-1.6,0-.1,0-.3,0-.4-.1-.2-.1-.2-.3-.1-.5,0-.2.2-.4.3-.5-.9,0-1.7-.2-2.6.1-.3.1-.5.2-.8.3-.5.1-1.1,0-1.4-.4-.4-.4-.5-1-.2-1.4-.4.1-.9.4-1.2.7,0,0-.2-.1-.3-.2,0,0-.1.2-.2.2-.2,0-.3-.2-.4-.3-.1,0-.2,0-.4.1,0,0,0-.2,0-.3-.3,0-.7.1-1,.3,0-.1,0-.2.1-.3-.8,0-1.7.1-2.5.2,0,0,.1-.2.2-.3-.7.1-1.4.1-2.1,0-.4,0-.8-.2-1.2,0,.1-.2.2-.5.3-.7,0,0,0-.1,0-.2,0,0-.1,0,0,0,.4-.5.9-.9,1.5-1.1.4-.1.8-.1,1.3-.1.3,0,.7,0,1,0l-.2-.3c.4,0,.9.1,1.3,0,0,0,0-.2,0-.2.5.2,1,.4,1.5.6.6.2,1.3.3,1.7-.1.1-.1.2-.3.2-.4.2-.5.4-.9.6-1.4,0,0,0-.2,0-.3,0-.1,0-.3,0-.4,0-.6.2-1.3.7-1.7.1-.1.2-.2.3-.3.1-.1.2-.3.3-.5,1-1.9,3-3.6,2.9-5.7,0-.3,0-.7.1-1,0-.2.2-.3.4-.4.4-.4.7-.7,1.1-1.1,0,0,.2-.2.3-.3,0,0,0-.2.1-.3.4-1.2,1.7-3.7,2.1-4.9,0-.2,6.4-.2,6.1,0Z"/>
      <path class="cls-9" d="M50.7,49.1c0-.2.1-.3.2-.5.1.3.3.7.4,1,0,0,.1-.2.2-.3.1.3.2.6.4.9,0-.1,0-.3,0-.4.1.5.5,1,1,1.2-.3.2-.5.4-.8.7.1,0,.3,0,.4,0-.7.7-1.2,1.6-1.3,2.6,0-.1-.1-.2-.2-.3,0,.3,0,.6,0,.9-.1-.2-.3-.3-.5-.4-1.6,2.3-2.4,5.1-2.3,7.9,0,.4,0,.9.3,1.3,0,.2.2.3.2.5s0,.4-.1.5c0,0-.2,0-.3,0-.3,0-.8.1-1-.1-.3-.3-.2-.7-.1-1.1.3-1.4.3-2.9,0-4.4,0,0,0,0,0,0,0,0,0,0,0-.1,0-.4,0-.7,0-1.1l-.4.2c0-.5,0-.9.1-1.4,0,0-.2.1-.3.2.2-.6.3-1.3.5-1.9,0,0-.2.1-.3.2.8-.9,1.3-2,1.4-3.2,0-1-.1-2.1.2-3.1.2-.9.8-1.6,1.4-2.3,0,.5,0,.7.3,1.2,0,.2.7,1.2.7,1.3Z"/>
      <path class="cls-9" d="M53.2,45.6c0,0,0-.2,0-.3,0,.3.2.6.2.9,0-.1.1-.3.2-.4.1.7.3,1.3.5,1.9.3-.4.5-.8.6-1.3,0,.1,0,.2,0,.3.2-.6.2-1.3.1-1.9,0,.2,0,.3.2.4,0-.6-.2-1.1-.6-1.5.2.2-1.4.4-1.4.4-.5.3-.1,1,0,1.4Z"/>
      <path class="cls-9" d="M55.7,49c.3.3.7.6,1,.9-.1,0-.3,0-.4,0,.2.1.3.3.3.5-.1,0-.3,0-.4,0,.2.3.3.6.4.9,0-.1-.1-.2-.2-.3.2.5.4,1.1,0,1.6l-.3-.6c0,.3-.1.5-.3.8-.1-.5-.4-.9-.8-1.3,0,.2,0,.3,0,.5,0-.3-.4-.6-.6-.8-.5-.5-.8-1.2-.7-1.9,0,.2.1.4.3.5,0-.5.1-1,.4-1.4,0,.1,0,.2,0,.4,0-.4,0-.9.2-1.2.3.5.3.9.8,1.3Z"/>
      <path class="cls-9" d="M51.8,57.8c.2-.3.3-.5.5-.8,0,.2,0,.4,0,.5.3-.6.7-1.1,1.1-1.7,0,.4,0,.7-.1,1.1.3-.4.5-.7.8-1.1,0,.6.1,1.2.5,1.7,0-.3,0-.5,0-.8.1.2.3.3.4.5,0-.2,0-.4,0-.7.1.1.3.3.5.3-.1-.4-.2-.9,0-1.3,0,.2.2.4.4.5,0-.5.1-1,.4-1.5,0,.2,0,.3.1.4,0-.4,0-.8.2-1.2-.4.2-.8.5-1,.9-.1-.5-.2-1-.3-1.4,0,.2,0,.5-.1.7-.3-.4-.5-.9-.6-1.4.1,1.1-.4,2.3-1.3,2.9,0-.3,0-.6,0-.9-.3.6-.7,1.1-1.3,1.5,0-.3,0-.7,0-.9,0,.3,0,.6,0,.9,0,.3.4,1.4.3,1.7Z"/>
      <path class="cls-1" d="M54.6,60.7c0,0,.2,0,.3-.1,0,.7.3,1.4.8,1.9,0,0,0,0,0-.1.2.4.6.8,1.1.9.1,0,.3.1.3.3,0,.1-.2.2-.3.2-.4,0-.9,0-1.3-.3-.3-.1-.6-.3-.7-.5-.2-.3-.1-.8-.3-1.1,0-.2-.2-.3-.3-.5,0-.2,0-.3,0-.5,0,0-.2,0-.2.1,0-.5.3-.9.6-1.2,0,.3,0,.6,0,1Z"/>
      <path class="cls-18" d="M50.9,41.9c0,.3.4.5.5.8,0,.1,0,.3.1.5,0,.7.2,1.4.3,2.1-.1,0-.3,0-.4-.2,0,.3,0,.6.1.8,0-.1-.2-.2-.3-.3.1.6.3,1.2.4,1.8.1-.1.2-.3.2-.4.6.4,1,1.2.9,2,0,0,0-.2-.1-.2,0,.6,0,1.2.4,1.7-.5-.4-.9-1-1-1.7,0,.1-.1.2-.2.3-.1-.3-.3-.7-.4-1,0,.2-.1.3-.2.5-.2-.4-.4-.8-.5-1.2,0,.2,0,.3,0,.5-.3-.4-.4-.9-.5-1.4-.1.3-.2.7,0,1.1-.1-.3-.2-.6-.3-1-.9.7-1.3,1.8-1.4,2.8s-.1,2.2-.3,3.3c0,.4-.1.8-.3,1.1-.1.3-.3.5-.5.8-.1.2-.2.4-.3.6,0,0,0,.1,0,.2,0,0,.1,0,0,0-.2.6-.5,1.3-.7,1.9-.2-.8-2,0-2.9.3.2-.3.4-.5.6-.8,0,0-.2.1-.3.2.6-.9,1.2-1.9,1.7-2.8-.2.3-.5.5-.9.5,1.1-1,1.8-2.5,1.9-4,0-.8,0-1.6.5-2.2.2-.2.4-.4.7-.6.6-.6,1-1.4,1.3-2.2.3-.8.4-1.7.7-2.5.2-.4,1.1-.7,1-1.2Z"/>
      <path class="cls-18" d="M54.8,43.4c.2,0,.3.2.4.3,0,.1.1.3.2.4,0-.2,0-.3.1-.5.2.3.3.6.3.9.2-.4.4-.9.5-1.3,0,.2,0,.4.1.6,0-.1.2-.3.2-.5,0,.1,0,.3,0,.4.3-.4.3-1,.3-1.5,0,.2,0,.3,0,.5,0-.3,0-.6,0-.9-.2,0-.4,0-.5-.2-.1-.1-.2-.3-.3-.4-.1.2-.3.3-.4.4-.2.2-.5.4-.6.6-.2.3-.3.7-.3,1Z"/>
      <path class="cls-1" d="M50.6,55.8c.2,0,.3-.1.4-.2,0,.8,0,1.6,0,2.4.1-.1.3-.3.4-.4,0,.5,0,1.1,0,1.6.4-.3.7-.6,1-.9,0,.4,0,.8-.2,1.2.1,0,.2,0,.3-.2,0,.1,0,.2,0,.4.2,0,.3-.2.5-.3.2.6,0,1.3-.5,1.8-.4.5-1,.8-1.6,1,.8-.4,1.3-1.3,1.1-2.2-.7.3-1.4.6-2,1.1,0-.2.1-.5.2-.7-.2.2-.4.5-.6.7-.2-.8-.1-1.6.3-2.3,0,.1,0,.2,0,.3.2-.5.4-1,.5-1.5-.2,0-.4.2-.5.4.1-1,.5-2.2.8-3.2,0,0,0,.9,0,.9Z"/>
      <g>
        <path class="cls-44" d="M47.6,64.1c0,.2.2.4,0,.6,0-.2,0-.4,0-.6h0Z"/>
        <path class="cls-44" d="M48.6,64.1c0,.2.1.4,0,.6,0-.2,0-.4,0-.6,0,0,0,.2,0,0Z"/>
        <path class="cls-44" d="M50.8,62.6c.2,0,.3.3.3.5-.1-.2-.1-.3-.3-.5h0Z"/>
        <path class="cls-44" d="M51.2,62.3c.3,0,.8.3.8.6,0-.3-.6-.6-.8-.6h0Z"/>
        <path class="cls-44" d="M55.3,62.5c0,.2-.1.4-.3.5.1-.2.3-.3.3-.5h0Z"/>
        <path class="cls-44" d="M56.9,63c.3-.2.7.3.6.6,0,0,0,0,0,0-.1-.3-.3-.6-.6-.6h0Z"/>
        <path class="cls-44" d="M57.4,62.7c.3,0,.8.1.9.4-.2-.3-.6-.3-.9-.4h0Z"/>
      </g>
    </g>
    <g>
      <path class="cls-34" d="M56.7,38c-.1-.3-.3-.5-.5-.9,0,0,0-.1-.1-.2-.3-.4-.7-.8-1.3-1.1-.3-.1-.6-.2-.9-.2h0v3.2s0,0,0,0c.2,0,.4,0,.5.2,0,0,0,0,0,0,0-.2,0-.3,0-.4.1-.3.2-.5.2-.8,0-.2,0-.3,0-.4.4-.2.9.4,1.2.6.3.2.5.6.5.9,0,.1,0,.3,0,.4,0-.2,0-.4-.2-.5-.4.2-.7.6-.8,1.4,0,0,0,0,0,0,0,.1.2.3.3.4.1,0,.2.2.2.3,0-.1,0-.4,0-.6,0,0-.2-.5.1-.8,0,0,.5-.3.9.3,0,0,.2-.6,0-1.8Z"/>
      <path class="cls-18" d="M52.8,35.8c-.6.2-1.1.7-1.3,1.1,0,0-.1.2-.1.2-.2.4-.4.6-.5.9-.3,1.2,0,1.8,0,1.8.4-.7.9-.3.9-.3.3.2.1.8.1.8-.1.3,0,.5,0,.6,0-.1.1-.2.2-.3.1,0,.2-.2.3-.4,0,0,0,0,0,0-.1-.7-.4-1.1-.8-1.4-.1,0-.2.3-.2.5,0-.1,0-.3,0-.4,0-.3.2-.7.5-.9.3-.2.8-.8,1.2-.6,0,.1,0,.3,0,.4,0,.3,0,.5.2.8,0,.1.1.3,0,.4,0,0,0,0,0,0,.1,0,.4-.1.5-.2v-3.2c-.3,0-.6,0-.9.2Z"/>
      <path class="cls-23" d="M51.6,34.1c-.4-.6-.8-1.2-1.4-1.6-.2-.1-.4-.3-.7-.3.3.2.6.5.9.7.6.6,1.1,1.3,1.3,2.2.1.5,0,1.2-.1,1.8.3-.4.7-.8,1.3-1.1-.4-.5-.9-1.2-1.3-1.7Z"/>
      <path class="cls-1" d="M51.6,35.1c-.2-.8-.7-1.6-1.3-2.2-.2-.3-.5-.6-.9-.7,0,0,0,0,0,0-.5.5-.5,1.2-.5,1.9,0,.2,0,.4,0,.7,0,.5.3,1,.4,1.5,0,.3-.2.9.2,1.1.2.1.3.2.4.4.3.4.5,1.1.6,1.7,0-.6.2-1,.4-1.4.1-.3.3-.6.5-.9,0,0,0-.1.1-.2.2-.5.3-1.2.1-1.8Z"/>
      <path class="cls-40" d="M57.4,32.5c-.6.4-1,1-1.4,1.6-.4.5-.8,1.2-1.3,1.7.6.2,1.1.7,1.3,1.1-.2-.5-.3-1.2-.1-1.8.2-.8.7-1.6,1.3-2.2.2-.3.5-.6.9-.7-.2,0-.5.2-.7.3Z"/>
      <path class="cls-20" d="M52,42.8c0-.2,0-.3-.1-.5,0-.2-.1-.4-.2-.6,0-.2-.1-.5,0-.8,0-.1,0-.4,0-.6,0,0,.2-.5-.1-.8,0,0-.5-.3-.9.3,0,0-.2-.6,0-1.8-.2.4-.4.8-.4,1.4,0,0,0,.1,0,.2,0,.8,0,1.8-.4,2.5.6,0,1.2.1,1.7.5.1,0,.2.2.3.3,0,0,0,0,0,0ZM51.2,41.2c-.2-.2-.2-.5-.2-.7.2.2.2.4.2.7Z"/>
      <path class="cls-47" d="M56.2,38.9c0-.3-.2-.7-.5-.9-.3-.2-.8-.8-1.2-.6,0,.1,0,.3,0,.4,0,.3,0,.5-.2.8,0,.1-.1.3,0,.4.4.2.6.8.8,1.1.1-.7.4-1.1.8-1.4.1,0,.2.3.2.5,0-.1,0-.3,0-.4ZM55.2,38.9c0,0-.2,0-.2-.2,0-.3,0-.6.4-.5,0,0,.1,0,.2.1.3.3,0,.6-.4.5Z"/>
      <path class="cls-36" d="M53.2,38.6c-.1-.3-.2-.5-.2-.8,0-.2,0-.3,0-.4-.4-.2-.9.4-1.2.6-.3.2-.5.6-.5.9,0,.1,0,.3,0,.4,0-.2,0-.4.2-.5.4.2.7.6.8,1.4.2-.4.4-1,.8-1.1,0-.2,0-.3,0-.4ZM52.3,38.9c-.3.1-.7-.2-.4-.5,0,0,.1,0,.2-.1.3,0,.4.2.4.5,0,0-.1.1-.2.2Z"/>
      <path class="cls-8" d="M58.2,36.3c0-.5.3-1,.4-1.5,0-.2,0-.4,0-.7,0-.6,0-1.4-.5-1.9,0,0,0,0,0,0-.3.2-.6.5-.9.7-.6.6-1.1,1.3-1.3,2.2-.1.5,0,1.2.1,1.8,0,0,.1.2.1.2.2.3.4.6.5.9.2.4.3.8.4,1.4,0-.6.3-1.2.6-1.7.1-.2.2-.2.4-.4.3-.2.1-.8.2-1.1Z"/>
      <path class="cls-9" d="M57.1,39.6c0,0,0-.1,0-.2,0-.6-.2-1-.4-1.4.3,1.2,0,1.8,0,1.8-.4-.7-.9-.3-.9-.3-.3.2-.1.8-.1.8.1.3,0,.5,0,.6.1.3,0,.6,0,.8,0,.2-.1.4-.2.6,0,.1,0,.3-.1.5,0,0,0,0,0,0,.1,0,.2-.2.3-.3.5-.3,1.1-.6,1.7-.5-.3-.8-.3-1.7-.4-2.5ZM56.3,41.2c0-.3,0-.5.2-.7,0,.3,0,.6-.2.7Z"/>
      <path class="cls-34" d="M56.3,41.2c.2-.2.2-.5.2-.7-.2.2-.2.4-.2.7Z"/>
      <path class="cls-18" d="M51.2,41.2c0-.3,0-.5-.2-.7,0,.3,0,.6.2.7Z"/>
      <path class="cls-36" d="M52.4,43.1c-.2,0-.3-.1-.3-.3,0,0,0,0,0-.1,0,0,0,0,0,0,0,.3.2.7.6.7.4,0,.8-.2,1.1-.2v-.3c-.4,0-.9.2-1.3.1Z"/>
      <path class="cls-47" d="M55.5,42.9c0,.1-.2.2-.3.3-.4.1-.9-.2-1.3-.1,0,0,0,0,0,0v.3s0,0,0,0c.3,0,.7.3,1.1.2.4,0,.5-.4.6-.7,0,0,0,0,0,0,0,0,0,0,0,.1Z"/>
      <path class="cls-4" d="M52.7,41.6c0,.2.3.3.4.1,0,0,0,0,0-.2.5-.1.6.6.2.6-.1,0-.3-.2-.4-.2,0,0,0,.1,0,.2.2.3.6.3.8.2v-1.3c-.5,0-1.1,0-1.1.6Z"/>
      <path class="cls-4" d="M53.8,42.3h0c.2,0,.6,0,.8-.2,0,0,0,0,0-.2,0,0-.3.2-.4.2-.4,0-.3-.7.2-.6,0,0,0,0,0,.2,0,.2.3.1.4-.1,0-.7-.6-.6-1.1-.6,0,0,0,0,0,0v1.3s0,0,0,0Z"/>
      <path class="cls-7" d="M52.9,42.1s0,0,0-.2c0,0,.3.2.4.2.4,0,.3-.7-.2-.6,0,0,0,0,0,.2,0,.2-.3.1-.4-.1,0-.7.6-.6,1.1-.6v-2.1c-.2,0-.4,0-.5.2,0,0,0,0,0,0-.4.2-.6.8-.8,1.1,0,0,0,0,0,0,0,.1-.2.3-.3.4-.1,0-.2.2-.2.3-.1.3,0,.6,0,.8,0,.2.1.4.2.6,0,.1,0,.3.1.5,0,0,0,0,0,.1,0,.1.2.2.3.3.4.1,1-.2,1.3-.1v-.7c-.2,0-.6,0-.8-.2Z"/>
      <path class="cls-38" d="M55.8,40.9c0-.1-.1-.2-.2-.3-.1,0-.2-.2-.3-.4,0,0,0,0,0,0-.2-.4-.4-1-.8-1.1,0,0,0,0,0,0-.1,0-.4-.1-.5-.2,0,0,0,0,0,0v2.1s0,0,0,0c.5,0,1.1,0,1.1.6,0,.2-.3.3-.4.1,0,0,0,0,0-.2-.5-.1-.6.6-.2.6.1,0,.3-.2.4-.2,0,0,0,.1,0,.2-.2.3-.6.3-.8.2h0s0,0,0,0v.7s0,0,0,0c.5,0,.9.2,1.3.1.1,0,.3-.1.3-.3,0,0,0,0,0-.1,0-.2,0-.3.1-.5,0-.2.1-.4.2-.6,0-.2.1-.5,0-.8Z"/>
      <path class="cls-36" d="M52.7,41.6c0,.2.3.3.4.1,0,0,0,0,0-.2.5-.1.6.6.2.6-.1,0-.3-.2-.4-.2,0,0,0,.1,0,.2.2.3.6.3.8.2v-1.3c-.5,0-1.1,0-1.1.6Z"/>
      <path class="cls-47" d="M54.4,41.6c0,0,0,0,0,.2,0,.2.3.1.4-.1,0-.7-.6-.6-1.1-.6,0,0,0,0,0,0v1.3s0,0,0,0h0c.2,0,.6,0,.8-.2,0,0,0,0,0-.2,0,0-.3.2-.4.2-.4,0-.3-.7.2-.6Z"/>
      <path class="cls-51" d="M55.6,38.3c0,0-.1,0-.2-.1-.3,0-.4.2-.4.5,0,0,.1.1.2.2.3.1.7-.2.4-.5ZM55.3,38.5c0,0,0,0,0,0s0,0,0,0,0,0,0,0,0,0,0,0Z"/>
      <path class="cls-46" d="M55.3,38.5c0,0,0,0,0,0s0,0,0,0,0,0,0,0,0,0,0,0Z"/>
      <path class="cls-37" d="M52.1,38.2c0,0-.1,0-.2.1-.3.3,0,.6.4.5,0,0,.2,0,.2-.2,0-.3,0-.6-.4-.5ZM52.2,38.5c0,0,0,0,0,0s0,0,0,0,0,0,0,0,0,0,0,0Z"/>
      <path class="cls-46" d="M52.2,38.4c0,0,0,0,0,0s0,0,0,0,0,0,0,0,0,0,0,0Z"/>
      <path class="cls-4" d="M52,42.9c0,.3.2.7.6.7.4,0,.8-.2,1.1-.2.3,0,.7.3,1.1.2.4,0,.5-.4.6-.7.1,0,.2-.2.3-.3.3-.2.6-.3.9-.4.2,0,.5-.1.7-.2-.3-.8-.3-1.7-.4-2.4,0,0,0-.1,0-.2,0-.6.3-1.2.6-1.7.1-.2.2-.2.4-.4.3-.2.1-.8.2-1.1,0-.5.3-1,.4-1.5,0-.2,0-.4,0-.7,0-.6,0-1.4-.5-1.9,0,0,0,0,0,0-.2,0-.5.2-.7.3-.6.4-1,1-1.4,1.6-.4.5-.8,1.2-1.3,1.7-.3-.1-.6-.2-.9-.2-.3,0-.6,0-.9.2-.4-.5-.9-1.2-1.3-1.7-.4-.6-.8-1.2-1.4-1.6-.2-.1-.4-.3-.7-.3,0,0,0,0,0,0-.5.5-.5,1.2-.5,1.9,0,.2,0,.4,0,.7,0,.5.3,1,.4,1.5,0,.3-.2.9.2,1.1.2.1.3.2.4.4.3.4.5,1.1.6,1.7,0,0,0,.1,0,.2,0,.8,0,1.7-.4,2.4.2,0,.5,0,.7.2.3,0,.7.2.9.4.1,0,.2.2.3.3Z"/>
      <path class="cls-4" d="M57.5,42.1s0,0,0-.1c-.2,0-.5,0-.7.2.3,0,.5,0,.8,0Z"/>
      <path class="cls-4" d="M53.8,44.4c.1,0,.2,0,.3,0h-.6c0,0,.2,0,.3,0Z"/>
      <path class="cls-4" d="M50,42.1c.2,0,.5,0,.8,0-.2,0-.5-.1-.7-.2,0,0,0,0,0,.1Z"/>
      <path class="cls-43" d="M52.6,43.6c-.4,0-.5-.4-.6-.7-.1,0-.2-.2-.3-.3-.3-.2-.6-.3-.9-.4,0,0,0,0,0,0,1,.4,1.6,2,2.6,2.2h.3v-1c-.3,0-.7.3-1.1.2Z"/>
      <path class="cls-6" d="M55.8,42.6c-.1,0-.2.2-.3.3,0,.3-.2.7-.6.7-.4,0-.8-.2-1.1-.2,0,0,0,0,0,0v1h.3c1.1-.2,1.7-1.8,2.7-2.2,0,0,0,0,0,0-.3,0-.7.2-.9.4Z"/>
    </g>
  </g>
</svg>