<?xml version="1.0" encoding="UTF-8"?>
<svg id="Livello_1" data-name="Livello 1" xmlns="http://www.w3.org/2000/svg" viewBox="0 0 41.03 42.03">
  <defs>
    <style>
      .cls-1 {
        fill: #86aebc;
      }

      .cls-1, .cls-2, .cls-3, .cls-4 {
        stroke-width: 0px;
      }

      .cls-2 {
        opacity: .6;
      }

      .cls-2, .cls-4 {
        fill: #fff;
      }

      .cls-3 {
        fill: #6d94a5;
      }
    </style>
  </defs>
  <g>
    <path class="cls-2" d="M5.43,22.18s0,0,0,.01c0-.03-.01-.06-.02-.09,0,0,0,0,0-.01,0,.03.01.06.02.09Z"/>
    <path class="cls-4" d="M31.97,19.82c1.52,3.86-1.25,8.39,1.2,11.95,2.23,2.15,1.83,5.47,1.62,8.3.01,1.97-2.3,1.89-3.74,1.72-4.06-.6,1.5-4.41-4.54-8.37.01,1.36.37,3.79-.72,4.78-.97,1.07-.96,3.01-2.27,3.73-1.43.08-3.35.33-4.6-.45-1.34-2.39,4.01-3.78,2.26-8.1-1.08-.03-2.7-.45-3.73-.74-.29,2.39,2.31,8.63-.98,9.22-1.68-.36-5.1.97-5.4-1.46-.12-.94.44-1.67,1.27-1.99,2.2-.22,1.05-.25.22-6.63-.93-7-2.07,4.48-2.06,7.57-.03.63-.07,1.34-.54,1.76-1,.57-5.02.57-5.92-.25-1.11-.97-.34-2.2.76-2.73,2.15-2.79,1.64-8.23,2.21-11.75-.79-1.28-1.25-2.77-1.57-4.3,0,0,0,0,0-.01,0-.03-.01-.06-.02-.09,0,0,0,0,0,.01-.2-.98-.35-1.98-.49-2.94h0c0-.08-.01-.17-.02-.25-.01-.02-2.46,1.04-2.54.96.1-.13,2.29-.91,2.52-1.03l-.23.09c-.32-.28-.61-.61-.84-.96-.02.13-.03.26-.05.39-.42-.36-.8-1.25-1.27-1.35-1.49-1.99-1.34-4.84-.71-7.13C.48,7.6-.2,4.46.05,1.98c1.25-1.21,4.37,1.96,6.36,1.86,2.18-1.49,4.98-1.23,7.35-.38,2.22-.36,3.61-2.14,5.22-3.46,2.9.06.86,6.81.24,8.51.45,1,.69,2.08.8,3.17,2.52,1.86,5.76,2.15,8.4,3.67,9.21.01,7.7-8.05,12.62-12.47-3.86,5.43-1.54,14.06-9.06,16.95Z"/>
    <path class="cls-4" d="M5.07,20.25c-.65.47-1.23,1.14-1.84,1.61.47-.63,1.21-1.16,1.82-1.69h0s0,.05.01.08Z"/>
    <path class="cls-4" d="M5.43,22.18s0,0,0,.01c-.43.48-.78,1.12-1.22,1.55.28-.57.81-1.1,1.2-1.64,0,0,0,0,0-.01,0,.03.01.06.02.09Z"/>
  </g>
  <path class="cls-1" d="M15.32,30.03s5.18,2.73,11.24,1.79,4.69-10.03,3.47-12.16c-1.05-1.84-3.36-1.8-4.62-.54s-4.62-.81-6.72,1.07c-2.1,1.87-1.58,5.45-3.36,5.97s-3.15,1.89,0,3.89Z"/>
  <path class="cls-3" d="M21.2,28.12s.22-1.05,1.58-1.2,2.81-.18,3.96-1.17,1.35-1.39,2.55-1.73c0,0-1.04.45-1.36.92s-1.15,1.56-2.21,1.98-3.04.63-3.4.86-1.32.89-1.12.34Z"/>
  <path class="cls-3" d="M16.06,27.7s2.12.02,3.17-1.22,1.21-1.64,2.63-1.71-1.11.34-1.53,1.18-1.25,1.75-2.77,2.02-2.24-.21-1.5-.27Z"/>
  <path class="cls-3" d="M26.33,20.12s-1.93,1.18-3.16,1.1-2.13-.12-3.47,1.23-2.24,2-2.24,2c0,0,.9-.35,1.74-.98s1.95-1.25,3.56-1.25,2.39-.46,3.3-1.14,1.22-1.68.28-.96Z"/>
</svg>