<?xml version="1.0" encoding="UTF-8"?>
<svg id="Livello_1" data-name="Livello 1" xmlns="http://www.w3.org/2000/svg" version="1.1" viewBox="0 0 68.7 60.4">
  <defs>
    <style>
      .cls-1 {
        fill: #f6f9f6;
      }

      .cls-1, .cls-2, .cls-3, .cls-4, .cls-5, .cls-6, .cls-7, .cls-8, .cls-9, .cls-10, .cls-11, .cls-12, .cls-13, .cls-14, .cls-15, .cls-16, .cls-17, .cls-18, .cls-19, .cls-20, .cls-21, .cls-22, .cls-23, .cls-24 {
        stroke-width: 0px;
      }

      .cls-2 {
        fill: #a38982;
      }

      .cls-3 {
        fill: #2b3121;
      }

      .cls-4 {
        fill: #d7b3c1;
      }

      .cls-5 {
        fill: #5c6a3c;
      }

      .cls-6 {
        fill: #c3a8b3;
      }

      .cls-7 {
        fill: #876f6a;
      }

      .cls-8 {
        fill: #1e2019;
      }

      .cls-9 {
        fill: #686f4b;
      }

      .cls-10 {
        fill: #e4e7e5;
      }

      .cls-25 {
        stroke-width: 3.4px;
      }

      .cls-25, .cls-26 {
        fill: #fff;
        stroke: #fff;
        stroke-linecap: round;
        stroke-linejoin: round;
      }

      .cls-11 {
        fill: #4a4342;
      }

      .cls-12 {
        fill: #ecf4f8;
      }

      .cls-13 {
        fill: #d0c1b1;
      }

      .cls-14 {
        fill: #d4d6d5;
      }

      .cls-15 {
        fill: #d6bfca;
      }

      .cls-16 {
        fill: #c2c6c4;
      }

      .cls-17 {
        fill: #d16f89;
      }

      .cls-18 {
        fill: #b2b7b4;
      }

      .cls-19 {
        fill: #1b1c1c;
      }

      .cls-26 {
        stroke-width: 2.1px;
      }

      .cls-20 {
        fill: #f6e6e9;
      }

      .cls-21 {
        fill: #0f0c0c;
      }

      .cls-22 {
        fill: #361619;
      }

      .cls-23 {
        fill: #898584;
      }

      .cls-24 {
        fill: #911f1f;
      }
    </style>
  </defs>
  <g>
    <path class="cls-25" d="M36,57.6h0s0,0,0,0Z"/>
    <path class="cls-25" d="M65.9,35c-.3,0,.7-1.3.7-1.3,0,0-.8,0-1.2.3-.4.3.9-1.9.9-1.9l-1.5.8.8-1.6-1.6.3,1.5-1h-1.7c0,0,1.5-1.3,1.5-1.3h-2.2c0,0,1.5-1.4,1.5-1.4l-2.7.9.3-1.6-2.3.9.9-1.5-2,.5v-1s-1.4.2-1.4.2l.3-.7-.7.4v-.9c0,0-.5.7-.5.7,0,0-.2,0-.2-.3s.3-.9.3-.9c0,0-.4,0-.5.2-.1.2-.3-.2-.3-.2,0,0,0,0,0,0l-.2-.4-1.4-3.5s1.5-4,2-4.7,2-6.8,1.9-7.6c0-.8-.9-2.9-3.7-2.3-2.8.6-8,4.5-9.1,5-1.1.5-2.9.5-3.9,0-1-.5-4,.4-4.6,0s-6.6-1.1-8.4-1.2c-1.8,0-5.6-4.4-6-4.8-.4-.4-2.3-1.2-2.9.4-.6,1.6.2,8,0,9.2s-4,3.4-4.7,4.3c-.5.6-1.6,1.8-2.2,3.1-.2.4-.5,1-.3,1.2,0,0,0,0,0,0-5.4,1.4-8.7,3.6-8.7,3.6,3-1.4,5.8-2.4,8.2-3.1-.2.2-.3.4-.4.6-2.6.9-5.5,2.3-8.2,4.4.8-.6,3.5-2.3,8.5-4.1.2,0,.4,0,.4.1,0,.2,0,.5-.2.8-6.2,2.7-10.1,6.7-10.1,6.7,3.4-2.8,7-4.8,9.9-6.2-.3.7-.6,1.4-.6,1.6,0,.2.6-.5.6-.3,0,.1,0,.3,0,.5-2.1,1.5-4.7,3.7-7.5,6.8,1-1.1,3.6-3.7,7.4-6.3-.2.8-.5,1.8-.1,1.6,1.2-.7.9.9,1.1,2.1.1,1.1.8,1.7.7,2,0,0,0,0,.1,0l.6-.5c0,0,0,.1,0,.4,0,1.2-.4,2.1-.4,2.1,0,0,.9-2.7,1-1.3,0,1.4-.6,2.6-.6,2.6,0,0,1.4-1.7,1.4-.7s-.3,2.2-.3,2.2l1.1-.3s.8,1,.5,2.2c0,.1.5-.3.5-.2.2.4.3.9.4.9l.5-.4s.4.9.7,1.1c0,0-.2-.9,0-.8.3,0,.4,1.2.9,1.4.2,0,0-.9.2-.7.4.3.7,1,1.1,1.1.2,0,0-1,.1-1.1.2,0,.8,1.6.9,1.6,0,0,.2-1.5.3-1.4.4.2.9,1.3.9,1.6,0,.2.2-.9.4-.9.2,0,.9,1.2.9,1.2.3,0,.4-.6.8-.6.2,0,.2.7.4.7,0,0,0-.4.5-.4,0,0,0,.8.4.9.9-.5,1.2-.5,1.3.2,0,.2-.3.5-.6.6-.1,0-.2.1-.2.1h0,0s3.2-.7,3-.3c0,.2-.4.5-.8.8-.3.3-.6.5-.6.5h0,0s0,0,.2,0c0,0,0,0,.2,0,.1,0,.3-.1.5-.1.4-.1.8-.2.9,0,0,0,0,.1,0,.2,0,.6-.8,2.1-.8,2.1h0,0s1.5-.5,1.7-.2c0,0,0,0,0,0,0,0,0,.2,0,.3,0,0,0,.1-.1.2,0,.1-.2.3-.3.4-.1.1-.2.2-.3.3,0,0,0,0,0,0,0,0,.1,0,.3-.1.6-.2,1.8-.7,1.9-.6.1.1-.9,2-.9,2,0,0,1.4,0,2.1.2.1,0,.2,0,.3,0,0,0,.1,0,.1,0,0,.3-1.3,1.1-1.3,1.1h0,0s0,0,0,0c0,0,0,0,0,0,0,0,0,0,.1,0,0,0,0,0,.1,0,0,0,0,0,.1,0,.1,0,.2,0,.3,0,0,0,0,0,.1,0,0,0,.2,0,.3,0,0,0,0,0,.1,0,.1,0,.3,0,.4,0,0,0,0,0,.1,0,.4,0,.6,0,.5.4-.4.7-1.2,1.3-1.2,1.3l1.8-.3.2,2s2.3-.9,1.5.5c-.7,1.2-1.4,1.4-1.6,1.4l3-.2-1.2.9s3.7.4,5.9-.5c2.3-.9,6.2-2.4,6.2-2.4h0c2.7-.8,6-2.2,9.2-5,6.4-5.5,7.1-12.8,7.1-13.4,0-.3,0-1-.2-1.1-.4,0,0-1-.2-.9ZM37.9,43.2h0s.2-.1.2-.1h-.1Z"/>
    <path class="cls-25" d="M3.1,28.9c-.2.1-.3.2-.3.2,0,0,.2-.1.3-.2Z"/>
    <path class="cls-25" d="M4.1,34.9c-.3.3-.5.5-.5.5.2-.2.3-.3.5-.5Z"/>
  </g>
  <g>
    <path class="cls-26" d="M30.5,20.8s1.1-.6,2-.9c1.9-.7,3.9-.4,4.8-.3s1.6.3,1.4.4c-.2.2-.4.6-1.2.8-1,.2-2.9.4-4.1.4s-2,.1-2.6,0-.5-.2-.3-.4Z"/>
    <path class="cls-26" d="M33.2,19.7s-.2.3-.1.7.4.8.4.8c0,0,2.4,0,2.8-.1s.7-.1.7-.1c0,0,.2-.2,0-.7s-.6-.6-.6-.6c0,0-1.2-.3-2.4-.1s-.9.3-.9.3Z"/>
    <path class="cls-26" d="M33.3,20.6s.6-.2.8-.2.7,0,.8,0,.9-.2,1.2-.2.6.2.7.3.4.3.4.3,0-.9-.4-1.2-1.6-.3-1.9-.3-1.2.1-1.4.3-.4.3-.4.5.1.5.1.5h.2Z"/>
    <ellipse class="cls-26" cx="35.1" cy="19.9" rx=".3" ry="0"/>
    <path class="cls-26" d="M34,21.1s.1-.5.2-.5.2.1.2.3,0,.3,0,.3h-.3Z"/>
    <ellipse class="cls-26" cx="20.8" cy="18.4" rx=".4" ry=".3"/>
    <path class="cls-26" d="M21.8,24.3s.1-.1.3-.3c.4-.4,1.2-1.2,1.3-1.2s.3-.8.3-.8l1.3.5s-.4-1.4-.7-1.9-1.6-.6-2-.7-.8-.4-1.1-.2-.6.7-.6.8,0,.6.1.7.6.1.6.1c0,0-.2.9-.3,1.5s-.3,1.6,0,1.8"/>
    <path class="cls-26" d="M23.8,21.1s-.2-.6-.5-.5-.6,0-.6.3,0,1-.1,1.1-.1.5,0,.7.4.4.4.4l.7-.6v-.8c.1,0,.2-.5.2-.5Z"/>
    <path class="cls-26" d="M23.5,22.4s-.7-.3-.4-.5.3-.3.2-.6.2-.5.4-.3.4.7.7.9.2.2.7,0,.7-.6.9-.3.7.3.4.6-.9.2-1.3.2-.7-.2-.8-.2-.6.2-.6.2Z"/>
    <path class="cls-26" d="M21.2,20.4s0-.2-.2-.2-.2,0-.2.2,0,.3,0,.3,0,.2,0,.2.2.3.2.3.3,0,.3,0v-.8Z"/>
    <path class="cls-26" d="M21.3,21.3s.2-1,0-1-.3.1-.3.2,0,.3,0,.4h0c0,0,.4.3.4.3Z"/>
    <path class="cls-26" d="M29.2,35s.4-.9,0-1.3-.1-.5-1.2-.8c-1.1-.3-2.6-2.2-2.6-2.2l-.6,1.1s1.2.6,1.7,1,.4.4,1.6,1.2l1.2.9Z"/>
    <path class="cls-26" d="M19.4,29l1.2-.6,2.5.5,1.4,1.4v.2s-.2.3-.4.2-1.6-.8-2.1-1.1-.9-.3-1.2-.2-.5.2-.5.2h-.3c0,0-.6-.6-.6-.6Z"/>
    <path class="cls-26" d="M19.4,30.1s-.7-1.1-.5-1.5.7-.5.8-.5,1,.3,1,.3c0,0,0,0-.2.3s-.3.7-.4.8,0,.2,0,.2c0,0-.3.1-.3.2s0,.3,0,.3h-.3Z"/>
    <path class="cls-26" d="M18.7,28.3s.2-.6.8-.6,1.5.4,2,.5,1.6,0,1.8.2.7.8,1,1.2.6.9.3,1-.9-.3-1.2-.6-.6-.8-1.2-1-.5,0-1-.2-.8-.4-1-.5-.8,0-.9.1-.5.7-.5.7v-.8Z"/>
    <path class="cls-26" d="M19.6,27.9s.7,0,.9.1.7.4.9.4.5,0,.6,0,.3,0,.3.1-.3,0-.5,0-.6-.1-.7-.2-.5-.3-.8-.4-1-.1-.7-.2Z"/>
    <path class="cls-26" d="M19.9,27.6s.3-.6.6-.8.4-.3.6-.4.3-.3.3-.4.5.1.6.3.4.8.6,1.1.7,1,.7,1l-1.8-.2s-1.7-.4-1.6-.6Z"/>
    <path class="cls-26" d="M19,28s.5-.9.9-1.1.9-.7,1.1-.9.4-.4.5-.6,0-1.4.2-1.3.3,1.2.3,1.4,0,.4,0,.4c0,0,0-.4-.4,0s-1.2,1-1.4,1.3-.6.4-.6.4l-.6.3Z"/>
    <path class="cls-26" d="M21.2,21.7s.1.4.3.6.5,0,.6,0,.5-.8.6-.6.3,1.1.3,1.1,0,.2-.2.3-.4.4-.6.6-.6.7-.5.7-.1.2-.1.2c0,0-.4,0-.6-.3s-.3-.4-.3-.7,0-.8.1-1.1.4-.8.4-.8Z"/>
    <path class="cls-26" d="M21.5,23.9s.2-2.3.4-2.2,0,1.5,0,1.5c0,0-.4,1.2-.4.8Z"/>
    <path class="cls-26" d="M19.6,29.8s-.9.4-.7.7,1.8-.3,2.7,0,2.7,1.2,3,1.4.5.4.5.3.5-1.1-.7-1.7-2.9-1.3-3.7-1.2-1.2.5-1.2.5Z"/>
    <path class="cls-26" d="M20.3,30s.3,0,.5,0,.4,0,.5,0,.5.2.5.2-.4-.2-.6-.2-.2,0-.3,0-.6,0-.5-.2Z"/>
    <path class="cls-26" d="M20.7,29.5s.2-.2.3-.1.1.1,0,.2-.5,0-.3,0Z"/>
    <path class="cls-26" d="M22,29.7s.2-.1.2,0,.1.2,0,.2-.2-.2-.2-.2Z"/>
    <path class="cls-26" d="M23,30.2s.2,0,.3,0,.2,0,0,0-.4,0-.3,0Z"/>
    <path class="cls-26" d="M20,29.6s.3,0,.3,0,0,.2-.1.1-.1-.2-.1-.2Z"/>
    <path class="cls-26" d="M19.6,29.8s.2,0,.2,0,0,.2-.1.1,0-.2,0-.2Z"/>
    <path class="cls-26" d="M28.9,19.6s-.6-2.1,0-3.1,1.3-1.2,1.5-.9.7,2.1.6,2.2-.2,1.6-.6,1.4-.6-1.4-.6-1.4c0,0-.2.9-.4,1.1s-.5.6-.5.6Z"/>
    <path class="cls-26" d="M32.3,18.1s.6-1.8,1.2-2.7,1-1.2,1.3-1.2,1.4-.5,1.4-.3-.7,1.1-.9,1.3-1.7,1.8-2,2.1-1,.7-1,.7Z"/>
    <path class="cls-26" d="M26.3,25.3s10.9,5,17.1,14.1c0,0-4.2-8.2-17.1-14.1Z"/>
    <path class="cls-26" d="M25.3,25.2s10.3,6.2,15.5,15.8c0,0-3.3-8.6-15.5-15.8Z"/>
    <path class="cls-26" d="M25.9,24.2s11.1,4.4,17.9,13.1c0,0-6.6-9.6-17.9-13.1Z"/>
  </g>
  <path class="cls-26" d="M48,13.9s3.4-.8,3.7-.4l.3.4s-.7-.5-1.3-.3-2.5.7-2.5.7c0,0,3.2.3,3.2.6s-2.6-.2-2.9,0-.6.7-.4.9,1.1.6,1.1.6c0,0-.1-.1-.5.2s.1.9.1.9c0,0-.5-.3-.7.3s.7.9.7.9c0,0-.3,0-.4.4s.8.8.8.8c0,0-.2,0-.1.3s.8,1.3,1.4.9.9-1.2,1.4-1.4,1,0,1.3-.3,1-2.1,1.1-2.2.7-2.3,1-2.8,1.1-2.4,1.2-3-.5-3.7-1-3.6-2.7,1.7-3.4,2.3c-.6.6.4,1.2.4,1.2,0,0-1.8-.5-1.6-.3s.1.6.1.6h-1.5c0,0,.8.4.8.4l-1.8.3.7.3s-1.3.7-1.1,1.1Z"/>
  <path class="cls-19" d="M13.1,34.4c.1-.3-.5-.9-.7-2s0-2.8-1.1-2.1c-.5.3.4-2.1.3-2.6s-.6.5-.6.3,1.1-2.4,1.1-2.9-.9.1-.8-.3c.3-.8,1.1-1.2,1-1.4-.2-.3,0-.8.3-1.2.6-1.3,1.7-2.5,2.2-3.1s4.5-3.1,4.7-4.3-.6-7.6,0-9.2c.6-1.6,2.5-.8,2.9-.4s4.2,4.7,6,4.8,7.8.8,8.4,1.2,3.6-.5,4.6,0c1,.5,2.8.5,3.9,0,1.1-.5,6.3-4.4,9.1-5,2.8-.6,3.6,1.6,3.7,2.3s-1.4,6.9-1.9,7.6c-.5.7-2,4.7-2,4.7l1.4,3.5,1.1,2.1-1.3,12.6-9.6,1.4-18.8-16-10.2,6.7-3.9,3.4Z"/>
  <path class="cls-14" d="M25.7,43.5s3.3,1.3,3,1.4-1.5.9-1.5.9c0,0,3.2-.7,3-.3s-1.4,1.3-1.4,1.3c0,0,1.6-.7,1.7-.2s-.8,2.3-.8,2.3c0,0,1.5-.5,1.7-.2s-.8,1.2-.8,1.2c0,0,2.1-.8,2.2-.7s-.9,2-.9,2c0,0,2.5.2,2.4.4s-1.3,1.1-1.3,1.1c0,0,2.7-.6,2.3.1s-1.2,1.3-1.2,1.3l1.8-.3.2,2s2.3-.9,1.5.5c-.8,1.4-1.7,1.4-1.7,1.4l3-.2-1.2.9s3.7.4,5.9-.5l6.2-2.4-2.7-2.4-2.6-6.1-5.5-3.2-8-3.4-3,.5s-1.8,2.9-2.5,2.7Z"/>
  <path class="cls-10" d="M30.4,20.9s.2-.9.8-1.3,1.1-1.7,1.3-2.1.4-1.5,0-2.1-.8-1.3-.9-2,1.6-2.6.7-2.2c-.9.4-1.4,1.4-1.9,1.3s-.9-1.3-.9-1.3c0,0-.5,1.5-1,1.3l-.5-.2-2.1.6s-1.2,0-1,.7,0,3.1-1,4.4-.7.5-1.1.8c-1.5,1.1-3.9,2.1-4.3,2.4-.5.4-2.4,1.1-3,1.8s-.6,1-.7,1.4,0,1.6,0,2.4.3.8.5,1.6,0,3-.4,3.4-1.6,1.1-1.4,1.6-.3.7-.4,1,.9-1.4.8-.2-.4,2.1-.4,2.1c0,0,.9-2.7,1-1.3s-.6,2.6-.6,2.6c0,0,1.4-1.7,1.4-.7s-.3,2.2-.3,2.2l1.1-.3s.8,1,.5,2.2.5-.3.5-.2c.2.4.3.9.4.9l.5-.4s.4.9.7,1.1c0,0-.2-.9,0-.8.3,0,.4,1.2.9,1.4s0-.9.2-.7c.4.3.7,1,1.1,1.1s0-1,.1-1.1c.2,0,.8,1.6.9,1.6s.2-1.5.3-1.4c.4.2.9,1.3.9,1.6s.2-.9.4-.9.9,1.2.9,1.2c.3,0,.4-.6.8-.6s.2.7.4.7c0,0,0-.4.5-.4,0,0,0,.8.4.9s.7-.6.7-.5c.2.2.1-.3.2-.2.2.2.8,0,1.1,0s.4-1.1.5-1.1c.3,0,.3,1,.8.6s.8.1,1.3-.4c.7-.7,1.3-2,1.3-2,0,0-.4,3.2-.9,3.1s3-1.2,3-1.2l-1.5,1.9,4.6-1.9-4,3,5.2-2.3-2.8,2.6,4.3-1-3.3,1.8,4.3-.6-1.7,1.4,3.1-.6-.7,1.5,2.6-.2-1.9,1.7,1.9-.3-2,1.1h2.3s-.2.2-1.7,1.2c-.3.2,2,.4,2.9.5,1,0-.6,3.6-.6,3.6,2.4-.3,8-1.3,13.1-5.8,6.4-5.5,7.1-12.8,7.1-13.4s0-1-.2-1.1c-.4,0,0-1-.2-.9-.3,0,.7-1.3.7-1.3,0,0-.8,0-1.2.3s.9-1.9.9-1.9l-1.5.8.8-1.6-1.6.3,1.5-1h-1.7c0,0,1.5-1.3,1.5-1.3h-2.2c0,0,1.5-1.4,1.5-1.4l-2.7.9.3-1.6-2.3.9.9-1.5-2,.5v-1s-1.4.2-1.4.2l.3-.7-.7.4v-.9c0,0-.5.7-.5.7,0,0-.2,0-.2-.3s.3-.9.3-.9c0,0-.4,0-.5.2s-.3-.2-.3-.2c0,0-.2.8-.1,1.2.2.7-.3,3.2-.1,4.3s-.9,3.5-1.3,4.2-.8,2.1-1.1,2.4-1.6,1.2-2.1,1.8-1.5.9-2,.9-2.8,0-2.1-1,1.6-1.7,1.6-1.7c0,0-1.7.2-1.4,0,1.1-.5,1.6-1.5,1.5-1.7s-.7.7-.8.6c-.3-.3.4-1.7.4-1.7l-1.6,1s.6-.6.4-.9-.9.3-1.2.2.5-.4.4-.7-1,.3-1.2.2.2-.7.1-.8c-.2-.2-2.4-.6-2.8-.8s-3.1-1.3-3.8-2.5-.7-4.4-2.1-5.4c-1.4-1-1.7-1.6-2.7-2.1s-3.4-1.2-3.4-1.2Z"/>
  <path class="cls-13" d="M30.5,20.8s1.1-.6,2-.9c1.9-.7,2.6-.5,3.5-.4s2.3.7,2.5.8-.4.3-.9.5c-1,.3-2.8.4-4.1.4s-1.9,0-2.6-.2-.6,0-.4-.2Z"/>
  <path class="cls-9" d="M33.2,19.7s-.2.3-.1.7.4.8.4.8c0,0,2.4,0,2.8-.1s.7-.1.7-.1c0,0,.2-.2,0-.7s-.6-.6-.6-.6c0,0-1.2-.3-2.4-.1s-.9.3-.9.3Z"/>
  <path class="cls-8" d="M33.9,20.4c.2,0,.7,0,1,0,.4-.1,1-.2,1.2-.2s.5.1.6.2.4.3.4.3.2-.8-.4-1.2-1.6-.2-1.9-.2c-.5,0-1.3,0-1.6.3-.4.3-.1,1-.1,1,0,0,.3,0,.8-.2Z"/>
  <ellipse class="cls-12" cx="34.8" cy="19.7" rx=".6" ry=".2"/>
  <path class="cls-12" d="M34,21.1s.1-.5.2-.5.2.1.2.3,0,.3,0,.3h-.3Z"/>
  <g>
    <path class="cls-13" d="M19.2,17.8s1.1-.3,1.9-.2c.8.1,1.6.4,1.9.6s.3.3.3.3c0,0-.3.2-.6.4s-.8.5-1,.5-1.2,0-1.9-.7-.8-.7-.5-.8Z"/>
    <path class="cls-8" d="M20.2,18.2s.1-.5.4-.7.4,0,.7,0c1,0,1.8.8,1.9.9s0,.2-.3.3-.4.3-.4.3l-1.6-.8h-.7Z"/>
    <path class="cls-5" d="M20.3,18c.3-.2.6,0,.9.2s.9.3,1.1.6.1.3,0,.4-.6.2-.7.2c-.3,0-1-.1-1.3-.3s-.2-.2-.2-.3c0-.2,0-.6.1-.7Z"/>
  </g>
  <path class="cls-1" d="M22.1,17.9c0,.2-.3.2-.5.2s-.4-.2-.4-.4.2-.2.4-.1.5.1.5.3Z"/>
  <path class="cls-14" d="M22.5,20.2s1.5.6,1.8.8,0,1.1.7,1.1,1-.4,1-.4c0,0,1.3-.5,1.6-.5s.9.3,1.2.2.8-.3.7-.6-.4-.7-1.4-1.1c-1-.5-2.2-1.4-2.2-.8s-.6.9-.8.8-.8,0-1.3-.2-.6-.6-.7-.6c-.2.1-.9.4-1.3.6s-.4.3-.4.3l1.4.5Z"/>
  <path class="cls-7" d="M21.1,19.6s.3-.2.3-.3.6.2.8.3,1.1.3,1.2.3.7.2.8.4.6,1.7.6,1.7h-.1s-.8-1.8-1.3-1.9-2.4-.6-2.4-.6Z"/>
  <path class="cls-6" d="M21.7,24.4s.3,0,.4-.2c.4-.4,1.2-1.3,1.2-1.4s.3-.8.3-.8l1.3.5s-.4-1.4-.7-1.9-1.6-.6-2-.7-.8-.4-1.1-.2-.6.7-.6.8,0,.6.1.7.6.1.6.1c0,0-.2.9-.3,1.5s-.3,1,0,1.2"/>
  <path class="cls-7" d="M23.8,21.1s-.2-.6-.5-.5-.6,0-.6.3,0,1-.1,1.1-.1.5,0,.7.4.4.4.4l.7-.6v-.8c.1,0,.2-.5.2-.5Z"/>
  <path class="cls-21" d="M23.5,22.4s-.7-.3-.4-.5.3-.3.2-.6.2-.5.4-.3.4.7.7.9.2.2.7,0,.7-.6.9-.3.7.3.4.6-.9.2-1.3.2-.7-.2-.8-.2-.6.2-.6.2Z"/>
  <path class="cls-7" d="M21.2,20.4s0-.2-.2-.2-.2,0-.2.2,0,.3,0,.3,0,.2,0,.2.2.3.2.3.3,0,.3,0v-.8Z"/>
  <path class="cls-21" d="M21.3,21.3s.2-1,0-1-.3.1-.3.2,0,.3,0,.4h0c0,0,.4.3.4.3Z"/>
  <path class="cls-22" d="M29.2,35s.4-.9,0-1.3-.1-.5-1.2-.8c-1.1-.3-3.3-2.8-3.3-2.8l-.5,1.4s2,1.3,2.4,1.6.2,0,1.4,1l1.2.9Z"/>
  <path class="cls-22" d="M19.4,29l1.2-.6,2.5.5,1.4,1.4v.2s-.2.3-.4.2-1.5-.7-2-1-1-.4-1.3-.3-.5.2-.5.2h-.3c0,0-.6-.6-.6-.6Z"/>
  <path class="cls-24" d="M19.4,30.1s-.8-.8-.7-1.3.8-.7.9-.7,1,.3,1,.3c0,0,0,0-.2.3s-.3.7-.4.8,0,.2,0,.2c0,0-.3.1-.3.2s0,.3,0,.3h-.3Z"/>
  <path class="cls-4" d="M19,28s.5-.9.9-1.1.9-.7,1.1-.9.4-.4.5-.6,0-1.4.2-1.3.3,1.2.3,1.4.1.7.1.7c0,0-.3-.4-.6,0s-1.1,1.1-1.3,1.4-.6,0-.6,0l-.6.3Z"/>
  <path class="cls-17" d="M18.5,28.4c0-.5.2-.8.8-.9s1.3.4,2.1.4c.5,0,1.7.2,1.9.4s.7.8,1,1.2.6.9.3,1-.9-.3-1.2-.6-.6-.8-1.2-1-.5,0-1-.2-.8-.4-1-.5-.8,0-.9.1-.5.7-.5.7c0,0-.2-.4-.2-.7Z"/>
  <path class="cls-20" d="M19.6,27.9s.7,0,.9.1.7.4.9.4.5,0,.6,0,.3,0,.3.1-.3,0-.5,0-.6-.1-.7-.2-.5-.3-.8-.4-1-.1-.7-.2Z"/>
  <path class="cls-22" d="M19.9,27.6s.3-.6.6-.8.4-.3.6-.4.3-.3.3-.4.5.1.6.3.2.4.6,1.1.7,1,.7,1c0,0-1.5,0-2-.3s-1.4-.4-1.4-.4Z"/>
  <path class="cls-15" d="M21.2,21.7s.1.4.3.6.5,0,.6,0,.5-.8.6-.6.3,1.1.3,1.1,0,.2-.2.3-.4.4-.6.6-.6.7-.5.7-.1.2-.1.2c0,0-.2.2-.4-.2s-.4-.7-.4-1,0-1,.2-1.2.2-.5.2-.5Z"/>
  <path class="cls-2" d="M21.5,23.9s.2-2.3.4-2.2,0,1.5,0,1.5c0,0-.4,1.2-.4.8Z"/>
  <path class="cls-4" d="M19.6,29.8s-.9.4-.7.7,1.8-.3,2.7,0,2.7,1.2,3,1.4.5.4.5.3.5-1.1-.7-1.7-2.9-1.3-3.7-1.2-1.2.5-1.2.5Z"/>
  <path class="cls-20" d="M20.3,30s.3,0,.5,0,.4,0,.5,0,.5.2.5.2-.4-.2-.6-.2-.2,0-.3,0-.6,0-.5-.2Z"/>
  <path class="cls-20" d="M20.7,29.5s.2-.2.3-.1.1.1,0,.2-.5,0-.3,0Z"/>
  <path class="cls-20" d="M22,29.7s.2-.1.2,0,.1.2,0,.2-.2-.2-.2-.2Z"/>
  <path class="cls-20" d="M23,30.2s.2,0,.3,0,.2,0,0,0-.4,0-.3,0Z"/>
  <path class="cls-20" d="M20,29.6s.3,0,.3,0,0,.2-.1.1-.1-.2-.1-.2Z"/>
  <path class="cls-20" d="M19.6,29.8s.2,0,.2,0,0,.2-.1.1,0-.2,0-.2Z"/>
  <path class="cls-14" d="M28.9,19.6s-.6-2.1,0-3.1,1.3-1.2,1.5-.9.7,2.1.6,2.2-.2,1.6-.6,1.4-.6-1.4-.6-1.4c0,0-.2.9-.4,1.1s-.5.6-.5.6Z"/>
  <path class="cls-11" d="M32.3,18.1s.6-1.8,1.2-2.7,1-1.2,1.3-1.2,1.4-.5,1.4-.3-.7,1.1-.9,1.3-1.7,1.8-2,2.1-1,.7-1,.7Z"/>
  <path class="cls-23" d="M25.4,24.8s10.9,5,17.1,14.1c0,0-4.2-8.2-17.1-14.1Z"/>
  <path class="cls-23" d="M24.3,24.8s10.3,6.2,15.5,15.8c0,0-3.3-8.6-15.5-15.8Z"/>
  <path class="cls-23" d="M24.9,25.6s8.7,8.2,11.8,18.7c0,0-1.4-9.1-11.8-18.7Z"/>
  <path class="cls-23" d="M27.4,24.8s11.1,4.4,17.9,13.1c0,0-6.6-9.6-17.9-13.1Z"/>
  <g>
    <path class="cls-23" d="M18.5,23s-8.7.5-15.6,6.2c0,0,4.5-3.7,15.6-6.2Z"/>
    <path class="cls-23" d="M18.4,23.8s-8.6,2.2-16.7,8.8c0,0,6.8-7,16.7-8.8Z"/>
    <path class="cls-23" d="M18.4,24.9s-6.1.8-14.8,10.6c0,0,5.9-6.8,14.8-10.6Z"/>
    <path class="cls-23" d="M18.4,22.4s-6.7.9-14.8,4.6c0,0,6-4,14.8-4.6Z"/>
  </g>
  <path class="cls-11" d="M48,13.9s3.4-.8,3.7-.4l.3.4s-.7-.5-1.3-.3-2.5.7-2.5.7c0,0,3.2.3,3.2.6s-2.6-.2-2.9,0-.6.7-.4.9,1.1.6,1.1.6c0,0-.1-.1-.5.2s.1.9.1.9c0,0-.5-.3-.7.3s.7.9.7.9c0,0-.3,0-.4.4s.8.8.8.8c0,0-.2,0-.1.3s.8,1.3,1.4.9.9-1.2,1.4-1.4,1,0,1.3-.3,1-2.1,1.1-2.2.7-2.3,1-2.8,1.1-2.4,1.2-3-.5-3.7-1-3.6-2.7,1.7-3.4,2.3c-.6.6.4,1.2.4,1.2,0,0-1.8-.5-1.6-.3s.1.6.1.6h-1.5c0,0,.8.4.8.4l-1.8.3.7.3s-1.3.7-1.1,1.1Z"/>
  <path class="cls-11" d="M21.3,15c.3.4,2-.7,2-.7,0,0,.3-1.4.3-1.7s-.3-1.4.2-1.4,1.2-.2,1.1-.5-1.3-4.2-1.3-3.6,0,1.3,0,1.3c0,0-1.4-2.9-1.6-2.7s.2,1,.2,1c0,0-.2-.2-.5-.4-.5-.4-1.1-.9-.9-.7.4.4-.6.3-.6.3,0,0,.4.5.6.8s-1.1,0-1.1,0c0,0,.4.4.6.7s-.8.4-.8.4c0,0,.4.3.7.8s-.7,1.1-.7,1.1c0,0,.1,0,.5.6s-.3,1.2-.3,1.2c0,0,.5.3.7.6s.3,2.1.8,2.9Z"/>
  <path class="cls-3" d="M35.8,21s-.3-.5-.3-.7.8.6.8.6h-.5Z"/>
  <path class="cls-3" d="M20.3,19s.6-.6.7-.5-.3.6-.3.6h-.3Z"/>
  <path class="cls-14" d="M49.3,40.3l-4,.3s1-.4,1,.5-1,1.2-1,1.2c0,0,1.5-1.4,1.5-.3s-.5,2.3-.5,2.3c0,0,2.7-3.1,3.1-2.4s.5,2.2.5,2.2c0,0,.8-2.3,1.2-1.8.5.5.9,1.6.9,1.6,0,0-.8-2.3,0-2s.9-4.2.9-4.2l-3.7,2.7Z"/>
  <path class="cls-18" d="M50.6,38.9c-1.2.8-2.5.8-4.6,1.4s-2.6,1.8-2.6,1.8c0,0,1.8-.7,2.9-1s2.6-.7,2.1,0-1.6,2-1.6,2c0,0,3.2-3.2,3.5-2.3s.4,1,.4,1c0,0,1.2-1.9,2-3.3.2-.3.6-1.8.6-1.8,0,0-1.5,1.4-2.7,2.2Z"/>
  <path class="cls-16" d="M35.5,49.4s1.5,1.6,2.8,1.5,2.1-.3,2.1-.3l-2.1,1.1s1.3.2,2,0l.7-.2-2,1.4s2.5,1.6,2.9,1.4-2-.1-2-.1l-1.7,1.1s1.4-1.2.7-1.5-1.8.5-1.8.5c0,0,1.4-1.4.8-1.7-.6-.3-1.1.1-1.1.1,0,0,0-2.4-.8-2-.8.4-.3-1.6-.3-1.6Z"/>
  <g>
    <path class="cls-14" d="M25.2,63.7h0s0,0,0,0Z"/>
    <path class="cls-18" d="M38.4,53.6l-1.8-1.6s1.5-.4,1.2-.4c-.4,0-2-1.1-2-1.1h2l-2.3-1.1,2.9-.6h-3.1l1.4-.5h-2.2l1.4-1.4-3.2,1.1s1.5-1.2.3-.8c-1.2.4-1.8-.3-1.8-.3l1.8-1-.6.2c-.6.2-1.6-.6-1.6-.6l1.2-.8h-1.9l1.6-1s-.8.4-1.4.6c-.2,0-.8-.6-.8-.6,0-.2-.8.3-1.4.1-.3-.1-.3-.8-.3-.8l-.6,1-.5.7c.9-.5,1.2-.5,1.3.2,0,.3-.8.8-.8.8,0,0,3.2-.7,3-.3-.2.4-1.4,1.3-1.4,1.3,0,0,1.6-.7,1.7-.2.1.4-.8,2.3-.8,2.3,0,0,1.5-.5,1.7-.2.2.3-.8,1.2-.8,1.2,0,0,2.1-.8,2.2-.7s-.9,2-.9,2c0,0,2.5.2,2.4.4,0,.3-1.3,1.1-1.3,1.1,0,0,1.3-.3,2-.2l.6-.5,2.8,1.6Z"/>
  </g>
  <g>
    <path class="cls-14" d="M47.9,47.5h0s0,0,0,0Z"/>
    <path class="cls-14" d="M63.2,37.8l-.2-1s1.3,0,.9,0c-.4-.1-1.3-.8-1.3-.8l2.2.5-2.2-1.7h3.3c0,0-3.3-.7-3.3-.7l1.7-.2-2.4-.6,1.8-1.1-3.7.4s1.9-.9.5-.8c-1.4,0-1.9-.8-1.9-.8l2.2-.7h-.7c-.7.2-1.6-.9-1.6-.9l1.5-.5-2-.5,2-.7s-.9.2-1.6.3c-.7,0-1.3-.4-1.3-.4l-1.3-1c.7.5.5,1.3.4,1.3-.3,0-.5.9-.5.9,0,0,2.5,0,2.2.4-.3.4-1.8,1.1-1.8,1.1,0,0,1.9-.3,1.9.2,0,.5-1.4,2.2-1.4,2.2,0,0,1.7-.2,1.8.2.1.4-1.2,1.1-1.2,1.1,0,0,2.4-.4,2.5-.2s-1.4,1.9-1.4,1.9c0,0,2.6.8,2.5,1.1,0,.3-1.7.8-1.7.8,0,0,1.5,0,2.2.3l.8-.3,1.2.3Z"/>
  </g>
  <path class="cls-14" d="M17,31.4s-.6,2.4,2.2,4.7c1.4,1.2,4.9,1.4,4.9,1.4,0,0-3.3.5-3,.9.8,1.1,2.4,2.1,1.4,2.4,0,0-3.3-.6-5-3.2-1.9-2.8-.4-6.2-.4-6.2Z"/>
</svg>