<?xml version="1.0" encoding="utf-8"?>
<!-- Generator: Adobe Illustrator 27.9.0, SVG Export Plug-In . SVG Version: 6.00 Build 0)  -->
<svg version="1.1" id="Symptoms" xmlns="http://www.w3.org/2000/svg" xmlns:xlink="http://www.w3.org/1999/xlink" x="0px" y="0px"
	 viewBox="0 0 32.1 32" style="enable-background:new 0 0 32.1 32;" xml:space="preserve">
<style type="text/css">
	.st0{fill:#FFFFFF;}
	.st1{fill:#DBDBDB;}
</style>
<g id="ic_diarrhoea_animal">
	<path class="st0" d="M2.4,25.4l12,4.2c0,0,7.8-5.5,8.4-6.2c0.5-0.8-0.1-5-0.1-5L19.1,17c0,0,2.6-4.7,4.2-6.4s5.8-5.3,5.8-5.3
		s1.2-1.6,0.2-2.5S27,1.7,25.6,2.7c-1.4,1-6.3,5.1-10.1,13.2l-3.4-0.9c0,0-0.7-0.3-1.2,0.1C10.5,15.5,2.4,25.4,2.4,25.4z"/>
	<path class="st1" d="M11.8,15.8l0.4,3.3l8.7,2.9c0,0,1.3-2.3,1.2-3.2c0,0-9.9-3.1-10.1-3.2S11.8,15.8,11.8,15.8L11.8,15.8z"/>
	<path class="st1" d="M11.5,19C11.3,19.1,3.7,25,3.7,25l7.4-9.1c0,0,0.2-0.3,0.4-0.3c0.2,0,0.4,0.1,0.4,0.1l0.4,3.5
		C12.3,19.1,11.8,18.9,11.5,19L11.5,19z"/>
	<path class="st1" d="M29.5,3.7c-0.1-0.4-0.6-0.1-0.9,0c-0.3,0.1-4.7,4.1-6.4,6c-1.7,1.9-3.8,5.8-3.9,6.5c-0.1,0.7,0.5,0.7,0.5,0.7
		s3-5.2,4.3-6.4s4.9-4.4,5.6-5.1C29.5,4.7,29.7,4.1,29.5,3.7L29.5,3.7z"/>
</g>
</svg>
