<?xml version="1.0" encoding="utf-8"?>
<!-- Generator: Adobe Illustrator 27.9.0, SVG Export Plug-In . SVG Version: 6.00 Build 0)  -->
<svg version="1.1" id="Complications" xmlns="http://www.w3.org/2000/svg" xmlns:xlink="http://www.w3.org/1999/xlink" x="0px"
	 y="0px" viewBox="0 0 32 32" style="enable-background:new 0 0 32 32;" xml:space="preserve">
<style type="text/css">
	.st0{fill:#FFFFFF;stroke:#FFFFFF;stroke-width:2;stroke-miterlimit:10;}
	.st1{fill:#D99898;}
	.st2{fill:#FFFFFF;}
	.st3{fill:#FFFFFF;stroke:#FFFFFF;stroke-linecap:round;stroke-linejoin:round;stroke-miterlimit:10;}
	.st4{fill:#C46769;}
</style>
<path class="st0" d="M19.6,10c0.7,0,1.3,0.2,1.9,0.5c0.3-0.1,0.6-0.1,1-0.1c1.5,0,2.9,0.8,3.6,2.1c1.6,0.1,2.9,1.4,3,3
	c0.9,0.7,1.5,1.9,1.5,3.4c0,0.7-0.2,1.4-0.4,1.9c0.3,0.4,0.4,0.8,0.4,1.2c-0.1,0.9-1,1.5-2.1,1.6c-0.4,2-2.4,2.9-4.8,2.9
	c-0.4,0-0.8-0.1-1.2-0.2c0.1,0.7,0.3,1.5,0.5,2c0.1,0.5,0,0.7-0.3,0.7s-0.8-0.3-0.7-0.7c0-0.6-2-3.5-2-3.5c-0.5,0.1-1,0.2-1.5,0.2
	c-0.8,0-1.5-0.1-2-0.3c-1.4-0.2-2.5-1.1-3.2-2.2c-2.3-0.2-4.6-2.2-4.6-4.4c0-1.5,0.8-2.7,2.1-3.5c0.2-0.9,0.9-1.5,1.8-1.5
	c0.1,0,0.2,0,0.3,0c0.7-1.2,2-2,3.5-2c0.3,0,0.6,0,0.9,0.1C17.6,10.4,18.5,10,19.6,10"/>
<g id="ic_meningits">
	<g>
		<path class="st1" d="M22.5,29.1c-0.2,0-0.5-0.1-0.7-0.3c-0.2-0.2-0.2-0.4-0.2-0.6c0-0.4-1.4-2.5-1.9-3.2c-0.5,0.1-0.9,0.1-1.4,0.1
			c-0.8,0-1.5-0.1-2.1-0.3c-1.3-0.2-2.5-1-3.2-2.2c-2.5-0.3-4.7-2.4-4.7-4.6c0-1.5,0.8-2.8,2.1-3.6c0.2-0.9,1.1-1.6,2-1.6
			c0.1,0,0.1,0,0.2,0c0.8-1.2,2.1-2,3.6-2c0.2,0,0.5,0,0.8,0.1c0.8-0.6,1.8-1,2.8-1c0.6,0,1.3,0.1,1.9,0.5c0.3-0.1,0.6-0.1,0.9-0.1
			c1.5,0,2.9,0.8,3.7,2.1c1.6,0.2,2.9,1.4,3,3.1c1,0.7,1.5,2.1,1.5,3.5c0,0.7-0.1,1.3-0.4,1.9c0.3,0.4,0.4,0.8,0.3,1.2
			c-0.1,0.9-1,1.6-2.2,1.8c-0.5,1.8-2.3,2.9-5,2.9c-0.3,0-0.6,0-0.9-0.1c0.1,0.7,0.3,1.2,0.4,1.6c0.1,0.3,0.1,0.6-0.1,0.7
			C22.8,29,22.7,29.1,22.5,29.1L22.5,29.1z"/>
		<path class="st2" d="M19.6,10c0.7,0,1.3,0.2,1.9,0.5c0.3-0.1,0.6-0.1,1-0.1c1.5,0,2.9,0.8,3.6,2.1c1.6,0.1,2.9,1.4,3,3
			c0.9,0.7,1.5,1.9,1.5,3.4c0,0.7-0.2,1.4-0.4,1.9c0.3,0.4,0.4,0.8,0.4,1.2c-0.1,0.9-1,1.5-2.1,1.6c-0.4,2-2.4,2.9-4.8,2.9
			c-0.4,0-0.8-0.1-1.2-0.2c0.1,0.7,0.3,1.5,0.5,2c0.1,0.5,0,0.7-0.3,0.7s-0.8-0.3-0.7-0.7c0-0.6-2-3.5-2-3.5c-0.5,0.1-1,0.2-1.5,0.2
			c-0.8,0-1.5-0.1-2-0.3c-1.4-0.2-2.5-1.1-3.2-2.2c-2.3-0.2-4.6-2.2-4.6-4.4c0-1.5,0.8-2.7,2.1-3.5c0.2-0.9,0.9-1.5,1.8-1.5
			c0.1,0,0.2,0,0.3,0c0.7-1.2,2-2,3.5-2c0.3,0,0.6,0,0.9,0.1C17.6,10.4,18.5,10,19.6,10 M19.6,9.6c-1,0-2,0.4-2.8,1
			c-0.2,0-0.5-0.1-0.7-0.1c-1.5,0-2.9,0.8-3.7,2h-0.1c-1,0-1.9,0.7-2.2,1.7C8.8,15.1,8,16.4,8,18c0,2.2,2.3,4.5,4.8,4.8
			c0.8,1.2,2,2,3.4,2.2c0.6,0.2,1.4,0.3,2.1,0.3c0.4,0,0.9,0,1.3-0.1c0.6,0.9,1.7,2.6,1.8,3c0,0.2,0.1,0.5,0.3,0.7
			c0.2,0.2,0.6,0.4,0.9,0.4s0.5-0.1,0.6-0.3c0.2-0.2,0.2-0.5,0.1-0.9c-0.1-0.3-0.2-0.7-0.3-1.3c0.2,0,0.4,0,0.6,0
			c2.7,0,4.7-0.8,5.2-2.7c1.2-0.2,2-1.2,2.1-2.2c0-0.4,0-0.9-0.3-1.3c0.2-0.6,0.4-1.2,0.4-1.9c0-1.5-0.6-2.8-1.6-3.6
			c-0.2-1.6-1.5-3-3.1-3.2c-0.9-1.3-2.3-2.1-3.8-2.1c-0.3,0-0.6,0-0.9,0.1C20.9,9.7,20.2,9.6,19.6,9.6L19.6,9.6L19.6,9.6z"/>
	</g>
	<path class="st2" d="M12.6,12.7c0.1,0.2,0.2,0,0.3,0.3c0.1,0.4,0,1.2-0.1,1.5c0,0,0,0.1,0,0.2c0.1,0.2,0.2,0.4,0.3,0.6
		c-0.4-0.1-0.8-0.3-0.9-0.9C12.4,13.8,12.4,13.4,12.6,12.7L12.6,12.7L12.6,12.7z"/>
	<path class="st2" d="M17.2,10.7c-0.1,0.3,0.2,0.2,0.1,0.5c-0.1,0.4-0.7,1.1-0.8,1.5c-0.1,0.7,0.1,1.4,0.1,2.1
		c-0.4-0.7-0.7-1.4-0.6-2.2C16.2,11.9,16.7,11.3,17.2,10.7L17.2,10.7L17.2,10.7z"/>
	<path class="st2" d="M16.5,12.1c0.1,0.8-1.1,1.4-1.5,0.6C15.6,12.7,15.9,12.4,16.5,12.1L16.5,12.1z"/>
	<path class="st2" d="M20.4,14.3c-1.5-1.3,0.2-3.2,1.3-4.1l0.7,0.1c-1.4,0.9-0.7,1.7,0.3,1.9c-0.5,0-1.1,0-1.5-0.5
		c-0.4-0.6,0.1-1.1,0.5-1.5l0.3,0.4C21,11.5,19.4,12.8,20.4,14.3L20.4,14.3L20.4,14.3z"/>
	<path class="st2" d="M26,12c0.7,0.9-0.1,2-1.1,2.3l-0.3-0.1c-0.1-0.1-0.7-0.2-1-0.2c-0.4,0-0.9,0-1.3,0.1c0.4-0.1,0.9-0.3,1.3-0.3
		c0.5-0.1,1.1-0.2,1.5,0.2l-0.3-0.1c0.9-0.2,1.4-1.1,0.9-2l0.1,0.2L26,12z"/>
	<path class="st2" d="M24.8,14.1c0.6,0.3,1.2,1.4,0.5,1.9C25.3,15.2,24.9,14.8,24.8,14.1L24.8,14.1z"/>
	<path class="st2" d="M29.3,15.6c-0.2,0.1-0.5,0-0.7,0.1c-0.2,0.1-0.3,0.2-0.5,0.5C27.8,15.5,28.8,15.1,29.3,15.6L29.3,15.6z"/>
	<path class="st2" d="M12.5,22.2c0-2.9,2.2-4.4,4.9-3.5c0.4,0.2,0.6,0.3,1,0.2c0.3-0.1,0.7-0.2,1-0.4l-0.1,0.1
		c0.4-1.3,1.3-2.2,2.7-1.6l1.1,0.3L22,17.2c-1.4-0.4-1.9,0.4-2.2,1.7c-0.8,0.4-1.6,0.8-2.5,0.3C14.7,18.3,13,19.5,12.5,22.2
		L12.5,22.2L12.5,22.2z"/>
	<path class="st2" d="M13.9,19.2c-0.1,0-0.1,0.2-0.2,0.1c-0.6-0.2-1.1-1-1.6-1.1C12.8,17.8,13.6,18.6,13.9,19.2L13.9,19.2z"/>
	<path class="st2" d="M15.5,18.7c-0.5-0.5-0.7-1.2-0.7-1.9c0-0.2,0-0.5,0.3-0.6C15.2,17,15.7,17.8,15.5,18.7L15.5,18.7z"/>
	<path class="st2" d="M19,19c-0.4-0.5-0.7-1-0.8-1.5c0-0.2,0-0.4,0.1-0.5c0,0.2,0.1,0.3,0.2,0.4c0.3,0.3,0.7,0.8,0.5,1.3l0,0L19,19z
		"/>
	<path class="st2" d="M18.6,21.6c0.6-1.3,2.6-1.1,3.7-1c1.4,0,1.8-0.8,3-1.2c0.4-0.1,0.8,0,1.2,0.1h-0.1c0.9-0.2,0.7-1.5,0.6-2.2
		c0.3,0.9,0.6,2.2-0.6,2.6c-0.4-0.1-0.7-0.1-1,0c-0.6,0.2-1.2,0.9-1.9,1.1C21.9,21.4,19.8,20.2,18.6,21.6L18.6,21.6L18.6,21.6z"/>
	<path class="st2" d="M26.2,21.8c0.8-0.1,1.4-0.1,2-0.7c0.5-0.5,1.7-1,2.2-0.2c-0.7-0.4-1.3,0.2-1.9,0.6
		C27.9,22.1,26.9,22.2,26.2,21.8L26.2,21.8L26.2,21.8z"/>
	<path class="st2" d="M28.7,20.9c0.1-0.7,0-1,0-1.7C29.3,19.5,29.4,20.6,28.7,20.9L28.7,20.9z"/>
	<path class="st2" d="M23.4,20.7c0.6-0.1,1.4,0.7,0.5,1.4c-0.1-0.2,0-0.7-0.1-0.9C23.8,21,23.6,20.9,23.4,20.7L23.4,20.7z"/>
	<path class="st2" d="M21.7,20.5c-0.6-0.4-1.2-1.7-0.1-1.8c-0.1,0.2-0.2,0.3-0.2,0.5C21.5,19.6,21.8,20,21.7,20.5L21.7,20.5z"/>
	<path class="st2" d="M21.7,17c-0.1-0.4,0.1-0.8,0.5-0.8c0,0-0.1,0.1,0,0c0-0.1,0.1-0.2,0.2-0.3c0.2,0.2,0.3,0.5,0.1,0.7
		C22,16.8,22.3,16.7,21.7,17L21.7,17L21.7,17z"/>
	<path class="st3" d="M9.1,4.1c0.1,0,0.3,0.1,0.3,0.2c0.2,0.4,2.1,4.3,2.1,4.3s0,0.1-0.1,0.1s-0.2,0-0.5-0.1
		c-0.2-0.1-0.4-0.1-0.4-0.1c-0.1,0,0,0.1,0,0.1s1.4,2.3,1.3,2.3c0,0,0,0-0.1-0.1c-0.5-0.5-1.9-2.2-2.1-2.7c0-0.3,0.1-0.4,0.3-0.4
		c0.1,0,0.2,0,0.2,0l0.4,0.1c0,0-1.6-2.3-1.8-3.1C8.6,4.3,8.8,4.1,9.1,4.1"/>
	<path class="st3" d="M1.7,8.8c0.1,0,0.1,0,0.2,0c0.4,0.1,4.5,1.6,4.5,1.6s0.2,0.1-0.4,0.4c-0.6,0.3-0.3,0.3-0.3,0.3
		s3.1,0.8,2.4,0.8l0,0c-0.7,0-2.9-0.2-3.3-0.5s0-0.4,0-0.4l0.4-0.2c0,0-3.5-0.7-4.2-1.1C0.4,9.3,1.2,8.8,1.7,8.8"/>
	<path class="st3" d="M3.2,4c0.3,0,0.7,0.1,0.9,0.2c0.4,0.4,4.4,4.2,4.4,4.2S8.7,8.6,8,8.6c-0.1,0-0.1,0-0.2,0s-0.1,0-0.2,0
		C7,8.6,7.3,8.7,7.3,8.7S10.1,11,9.8,11H9.7C8.9,10.6,6.4,9.2,6,8.7s0.2-0.5,0.2-0.5h0.6c0,0-3.7-2.6-4.3-3.4C2.2,4.2,2.7,4,3.2,4"
		/>
	<g id="Tracciato_28-2">
		<path class="st4" d="M11.8,10.9l-0.1-0.1c-0.4-0.4-2-2.2-2.1-2.7c-0.1-0.2,0-0.3,0-0.4s0.1-0.1,0.2-0.1c0.1,0,0.2,0,0.2,0l0.2,0.1
			C9.8,7.1,8.7,5.5,8.6,4.9c-0.1-0.3,0-0.6,0.1-0.7C8.8,4,8.9,4,9.1,4c0.2,0,0.4,0.1,0.4,0.3c0.2,0.4,2.1,4.3,2.1,4.3v0.1v0.1
			c0,0-0.1,0.1-0.2,0.1c-0.1,0-0.3,0-0.5-0.1c-0.1,0-0.2-0.1-0.2-0.1C12,10.9,12,11,11.9,11v0.1L11.8,10.9L11.8,10.9z"/>
		<path class="st2" d="M9.1,4.1c0.1,0,0.3,0,0.4,0.2c0.2,0.4,2,4.3,2,4.3s0.1,0.2-0.1,0.2c-0.1,0-0.9-0.3-0.9-0.3
			c-0.1,0,0.1,0.3,0.1,0.3s1.3,2.2,1.2,2.2c0,0,0,0-0.1-0.1c-0.5-0.5-1.9-2.2-2.1-2.7c0-0.3,0.1-0.4,0.3-0.4c0.1,0,0.2,0,0.2,0
			l0.4,0.1c0,0-1.6-2.3-1.8-3.1C8.6,4.3,8.8,4.1,9.1,4.1 M9.1,3.9C8.9,3.9,8.7,4,8.6,4.1C8.5,4.3,8.4,4.5,8.5,4.9
			c0.1,0.6,1,2,1.5,2.7L9.8,7.5c-0.2,0-0.2,0.1-0.2,0.1C9.5,7.6,9.4,8,9.5,8.1c0.2,0.5,1.7,2.3,2.1,2.8c0.1,0.1,0.2,0.3,0.3,0.3
			L12,11l0.1-0.1c0.1-0.1,0.2,0-1-2C11.3,9,11.5,9,11.6,9s0.1-0.3,0.2-0.3l0.1-0.1V8.5c0,0-1.9-3.9-2.1-4.3C9.5,4,9.3,3.9,9.1,3.9
			L9.1,3.9L9.1,3.9z"/>
	</g>
	<g id="Tracciato_29-2">
		<path class="st4" d="M8.1,12c-0.6,0-2.9-0.2-3.4-0.5c-0.2-0.1-0.2-0.2-0.2-0.3c0-0.2,0.2-0.3,0.3-0.3L5,10.8
			c-1-0.2-3.5-0.7-4.1-1.1C0.7,9.6,0.6,9.4,0.7,9.3C0.8,9,1.4,8.7,1.8,8.7c0.1,0,0.1,0,0.2,0c0.4,0.1,4.5,1.6,4.5,1.6h0.1v0.1
			c0,0.1-0.2,0.2-0.5,0.4C5.9,11,5.8,11,5.8,11c2.5,0.6,2.5,0.8,2.5,0.9V12H8.1L8.1,12L8.1,12z"/>
		<path class="st2" d="M1.7,8.8c0.1,0,0.2,0,0.4,0.1c0.4,0.1,4.3,1.5,4.3,1.5s0.2,0.1-0.4,0.4c-0.6,0.3-0.3,0.3-0.3,0.3
			s3.1,0.8,2.4,0.8l0,0c-0.7,0-2.9-0.2-3.3-0.5s0-0.4,0-0.4l0.4-0.2c0,0-3.5-0.7-4.2-1.1C0.4,9.3,1.2,8.8,1.7,8.8 M1.7,8.6L1.7,8.6
			c-0.4,0-1,0.2-1.2,0.6c0,0.1-0.1,0.4,0.3,0.6c0.5,0.3,2.7,0.8,3.7,1c-0.1,0.1-0.2,0.2-0.2,0.3c0,0.2,0.1,0.3,0.3,0.4
			c0.5,0.3,2.9,0.6,3.5,0.6c0.2,0,0.3-0.2,0.3-0.3c0-0.2-0.1-0.4-2.4-1c0.4-0.2,0.7-0.2,0.7-0.4c0-0.1-0.2-0.3-0.2-0.3
			S2.3,8.7,1.9,8.6C1.9,8.6,1.8,8.6,1.7,8.6L1.7,8.6L1.7,8.6z"/>
	</g>
	<g id="Tracciato_30-2">
		<path class="st4" d="M9.8,11.1l-0.1,0C8.9,10.7,6.4,9.3,6,8.7C5.8,8.5,5.8,8.4,5.8,8.3C5.9,8.1,6.2,8,6.3,8l0.4,0.1
			C5.8,7.5,3.2,5.6,2.5,4.8C2.3,4.6,2.3,4.3,2.4,4.2C2.5,4,2.8,3.9,3.2,3.9c0.3,0,0.8,0.1,1,0.3c0.4,0.4,4.4,4.2,4.4,4.2l0.1,0.1
			v0.1c-0.2,0-0.4,0.1-0.8,0.1l-0.3,0c-0.2,0-0.4,0-0.4,0c2.7,2,2.7,2.2,2.7,2.2L9.8,11.1L9.8,11.1z"/>
		<path class="st2" d="M3.2,3.9c0.3,0,0.7,0.2,0.9,0.3c0.4,0.4,4.4,4.2,4.4,4.2S8.7,8.6,8,8.6c-0.1,0-0.1,0-0.2,0s-0.1,0-0.2,0
			C7,8.6,7.3,8.7,7.3,8.7S10.1,11,9.8,11c0,0-0.3-0.1-0.4-0.2c-1-0.5-3.1-1.7-3.4-2.2C5.6,8.2,6.2,8.2,6.2,8.2h0.6
			c0,0-3.7-2.6-4.3-3.4C1.9,3.9,3.2,3.9,3.2,3.9z M3.2,3.8c-0.3,0-0.7,0-0.9,0.4C2.2,4.3,2.2,4.5,2.4,4.8C2.9,5.5,5.3,7.2,6.3,8l0,0
			C6.2,8,5.9,8,5.8,8.3c-0.1,0.2,0,0.4,0.1,0.6c0.4,0.6,3,2,3.7,2.3c0.1,0,0.1,0.1,0.2,0.1h0.1L10,11c0.1-0.1,0.1-0.3-2.3-2.2h0.1
			c0.1,0,0.1,0,0.2,0c0.4,0,0.7-0.1,0.7-0.2c0.1-0.1,0-0.2,0-0.3c-0.1-0.1-4-3.8-4.4-4.2C4,3.9,3.5,3.8,3.2,3.8L3.2,3.8L3.2,3.8z"/>
	</g>
</g>
</svg>
