<?xml version="1.0" encoding="UTF-8"?>
<svg id="Livello_1" data-name="Livello 1" xmlns="http://www.w3.org/2000/svg" version="1.1" viewBox="0 0 56.7 38">
  <defs>
    <style>
      .cls-1 {
        fill: #f2d2c0;
      }

      .cls-1, .cls-2 {
        stroke-width: 0px;
      }

      .cls-2 {
        fill: #fff;
      }
    </style>
  </defs>
  <path class="cls-2" d="M55.2,7.7c1.9,4.5-.9,8.1-2.5,10.6-1.7,2.5-6.3,4.2-7.4,4-.3,1.2-.5,3.1-1.2,4.5-5,10.5-33.3,15.2-35.8,7.3-2.1-6.8,0-9.2.2-9.8-.2.2-.7.9-2.3,1.8-3.4,1.9-4.3-1.3-5.1-3.2-.8-1.8-1.9-5.7.6-8,3.2-2.8,5.7.8,5.7.8,0,0,2.2-2.7,4.4-3,4.4-.7,5.6,8.3,5.7,8.4,1.1-1,2-2,3.8-2.4-5.4-6.6-2.5-9.5-.6-10.4,1.4-.6,4.1-.1,4.9,1.3s.8,2.4.5,3.2c1,.6,4,3.9,4,3.9,1.2,0,1.3.2,1.3.2-.8-.5-1.9-4.7-1-5.6s1.7-2,1.5-3c-.2-1.1.4-1.5,2.3-2,1.9-.6,2-1.8,2-1.8C38.6-.8,45.2,0,45.2,0c3.6.2,8,3,10,7.6Z"/>
  <path class="cls-1" d="M53.6,8.2c1.4,3,.4,3.6-.6,6.1h0c0,.2,0,.2-.1.3,0,.1-.2.2-.2.4-.2.3-.4.6-.6.9,0,0-.2.2-.2.3,0,0,0,.1,0,.1-.3.3-.5.7-.9,1.1,0,0,0,0,0,0-1.6,2.1-5.1,3.9-5.8,3.2-1.1-1.1-1.1,2.5-2.3,4.8-5.1,9.5-30.7,15.2-33.5,7.4-.1-.4-.2-.8-.3-1.2,0,0,0-.1,0-.1,0,0,0-.1,0-.3-.9-5,1.3-10.1,1.6-10.7-.2.2-1.4,2.1-4,4-2.7,2-3.4-.4-4.1-2s-2.2-4.5.3-6.6c2.4-2.2,4.5,1.4,4.5,1.4,0,0,2.4-3,4.4-3.4,3.3-.5,4.7,8.6,4.7,9,0,0,0,0,.1,0,1.5-1.4,3.3-2.7,5.5-3.7.3-.2.7-.3,1.1-.4q0,0,0,0c-2.5-3.3-3.3-5.3-3.4-6.5,0-.2,0-.4,0-.5,0-.3,0-.5.1-.6.2-.7.7-1.3,1.4-1.7,1.4-.6,3,0,3.6,1.4s.3,1.6,0,2.3c.8.5,1.9,1.5,2.9,2.5.9,1,1.7,1.8,1.7,1.8,1.2,0,2.2,0,3.2.3h0c0-.4,0-.8,0-.8-1.2-1.7-1.9-4.8-1.1-4.9.7,0,.6-.6.6-.6-.5-.6,0-.9,0-.9.6-.5.9-1.2.8-2.1-.2-.9,0-.9,1.9-1.4,1.8-.6,2-1.7,2-1.7,2.3-4.5,8-3.7,8-3.7,3.4,0,7,2.5,8.8,6.5Z"/>
</svg>