<?xml version="1.0" encoding="UTF-8"?>
<svg id="Livello_1" data-name="Livello 1" xmlns="http://www.w3.org/2000/svg" version="1.1" viewBox="0 0 76.5 76.5">
  <defs>
    <style>
      .cls-1 {
        fill: #5e564f;
      }

      .cls-1, .cls-2, .cls-3, .cls-4, .cls-5, .cls-6, .cls-7, .cls-8, .cls-9, .cls-10 {
        stroke-width: 0px;
      }

      .cls-2 {
        fill: #918277;
      }

      .cls-3 {
        fill: #4f4f4f;
      }

      .cls-4 {
        fill: #000;
      }

      .cls-11 {
        fill: none;
        stroke: #000;
        stroke-miterlimit: 10;
        stroke-width: .2px;
      }

      .cls-5 {
        fill: #b2968b;
      }

      .cls-6 {
        fill: #c1b6ac;
      }

      .cls-7 {
        fill: #ada299;
      }

      .cls-8 {
        fill: #967368;
      }

      .cls-9 {
        fill: #b5aca5;
      }

      .cls-10 {
        fill: #fff;
      }
    </style>
  </defs>
  <path class="cls-10" d="M42.8,66.1c-1.8,0-3.9-1.6-4.8-3.9-.2-.4-.4-.9-.5-1.3-.8-1.8-1.6-3.7-2.1-5.8-.6-2.4-2.7-6.3-5.8-6.5-1.2,0-2.3-.2-3.3-.3-2.3-.2-4-.4-5.8-.4s-1.1,0-1.9,0c-1.3,0-3,.1-4.7.1-4.1,0-8.3-.4-8.7-3-.2-.5-.2-1.1-.1-1.7.4-2.6,2.9-6.8,5.6-8.2.6-.3,1.2-.9,1.9-1.6,1.5-1.4,3.5-3.4,7.3-4.4,3.8-1.1,7.5-1.7,10.2-1.7s1.8,0,2.4.2c.4,0,1.3.2,3.2.2s4.1-.2,4.8-.3c.6,0,1-.1,1.5-.1s.7,0,1.1,0c.5,0,1.1,0,2,0h.2c.5,0,1-.6,1-.6,2,0,3.4.5,4.2,1,.7-.3,1.6-.5,2.7-.5s.6,0,.9,0c.6-.5,1.8-1.4,2.3-1.8.8-.7,1.6-1,2.7-1s.4,0,.6,0c.7,0,1.2.4,1.6.9.8,1.1.5,3,.3,3.7,0,.4-.2.7-.3,1.1.1,0,.2.1.4.2.2.1.4.3.6.5l.2-.3c.9.4,1.5,1.2,2,2.6.3.8.3,1.4.3,1.8.6,0,1,.2,1.4.3.4.1.8.2,1.2.2,1.1,0,3.7.2,4.1,1.7.2.5,0,1.4-.8,1.9-.3.2-.6.4-.9.7-.5.4-1,.8-1.7,1.3-.6.4-1,.5-1.4.6-.4.1-.7.2-1.3.8-.6.5-1.2.8-1.7.9-.7,1.8-1.9,2.4-2.8,2.5-.7.1-1.9.2-3.7.2-.3,0-.6,0-.9,0,1.3,3.3.4,7.4-.5,8.7-.5.8-1.3,1.2-2.2,1.2s-1.3-.2-1.9-.5h-.3c0-.1-.3-.2-.3-.2-.7-.2-1.3-.7-1.6-1.2-.7-.2-1.2-.6-1.6-1.3-.6-1.1-.4-1.9-.2-2.5,0-.3.1-.6.2-1,0-1-.5-2-1.5-2.8-.5-.4-1-.6-1.4-.7-.5.6-1.4.7-2.3.8l-.5.3c.5.7,1.1,1.5,1.4,2.3.2.7.4,1.8.5,3.9.1,1.8.4,5.5.9,6.2.8,1.1,1.2,2.3.9,3.6-.2,1-.9,1.9-1.8,2.4-.4.2-.8.3-1.3.3Z"/>
  <g>
    <path class="cls-6" d="M54.6,54.5c-.8,1.1-1.9.4-3,0-1.1-.4-1-1.2-1-1.2,0,0-.9.3-1.4-.6-.5-.9,0-1.3.1-2.7.1-1.5-.6-2.9-2.1-4-1.4-1.1-3-1.1-3.1-1.1-.1.7-.4.9-2.6,1-2.2.1-27.5,0-30.6,0s-4.8-.1-4.4-2.2c.3-2.1,2.6-5.9,4.9-7.1,2.3-1.2,3.7-4.4,9-5.9,5.3-1.5,9.9-1.9,11.9-1.4,2,.5,7.1.2,8.6,0,1.5-.2,1.8,0,4.4,0,2.5,0,1-.6,1-.6,3,0,4.4,1.2,4.4,1.2,0,0,0,1,.1,2.5,0,.4,0,.9.1,1.4,0,.7.1,1.5.2,2.3.4,3.6,1.2,7.6,2.7,9.1-.2,0-.4,0-.6,0-1.9,0-4.9-4-5.2-4.6-.3-.6-.6-1.7-.6-2.9,0-1.2.4-.6.6-2.5.2-1.5.9-3.2,1.9-4.4,0,0-2.4,1.7-2.6,3.7-.2,2-1.4,4.6-.9,6.3.5,1.7,2.8,4.9,3.9,5.5s4.7.7,4.7.7c1.3,2.9.4,6.7-.2,7.7Z"/>
    <path class="cls-3" d="M70,38.2c-.8.5-1.5,1.3-2.7,2s-1.5.3-2.9,1.6c-1.4,1.2-1.7.1-1.8.5,0,.4-.4,2.3-2,2.6-.8.1-2.1.2-3.5.2,0-.5-.2-1.2-.6-1.8-.7-1,1.3-1.4,1.3-2.1,0-.7,1.1-1.9,1.4-2.7.3-.7-.6-.8-.4-1.2.2-.3.4-1.1.4-1.2,0,0-.8,1.3-1.6,1.9-.8.6-1.4.3-3,.4-1.5.1-2.4-.8-3.1-1.5-.7-.7-1.3-3.2-1.2-4.1,0-1,2.3-1.4,2.2-2.1-.1-.7-1.6.1-.8-.4,1.6-1.2,6.7,0,8.3.4,0,.4-.2.7-.2.7,0,0,.6.2,1.3.6.7.4.7,1.4,1.3,1.2.5-.2-.3-.9-.4-1,.5.2.9.7,1.3,1.8.4,1.1,0,1.7.3,1.8.4.1.9-.3.9-.3-.3.7-1.8,1.3-.4,1.2,1.4,0,2.1.6,3.4.6s3.4.4,2.5.9Z"/>
    <path class="cls-6" d="M60.2,29.2c-.1.5-.3,1.1-.4,1.6-1.6-.4-6.6-1.6-8.3-.4-.8.5.7-.3.8.4,0,.5-1.2.9-1.9,1.5-.1,0-.2.2-.2.3,0,0,0,.2,0,.3,0,.7.2,2.1.6,3.1.2.4.4.8.6,1,0,0,.2.2.3.3.7.7,1.5,1.4,2.9,1.3,1.5-.1,2.2.2,3-.4.8-.6,1.6-1.8,1.6-1.9,0,0-.2.8-.4,1.2-.2.4.7.4.4,1.2-.3.7-1.4,2-1.4,2.7,0,.7-2.1,1.2-1.3,2.1.5.6.6,1.3.6,1.8-1,0-2,0-2.8,0-.2,0-.4,0-.6,0-.2,0-.4,0-.6,0-1.9,0-4.9-4-5.2-4.6-.3-.6-.6-1.7-.6-2.9,0-1.2.4-.6.6-2.5.2-1.5.9-3.2,1.9-4.4.2-.3.5-.5.8-.7,1.4-1.1,3.9-.7,4-.7,0,0,2-1.5,2.8-2.2.8-.6,1.3-.7,2.3-.6,1,0,.9,1.8.7,2.8Z"/>
    <path class="cls-2" d="M30.4,31.6s3.6,2.9,4.1,5.4,2.6,3.5,2.4,4.8,2.6.5,3.7-.3c0,0-2.9,1.4-2.7-.6s.3-3.4-.5-4.6.3,1.7,0,2.5-2-.8-2.2-1.8-1.8-4.4-4.8-5.5Z"/>
    <path class="cls-3" d="M6.5,44.8s-.6-2.4,3-3,7.2.3,10-.5,3.7-1.7,5.5-1.5c0,0-1.3.3-.4.8s4.4-.6,6.9,0c0,0-1.1-.1-1.5.1s4.6.8,6.3,2c0,0-1.3-.6-1.8-.3s5.7,2.2,6.8,5.2c0,0-.8-1.1-1.1-.8s1.5,2,2,3.4.4,9,1.7,10.5.7,3.2-.4,3.8-3.2-.6-4.1-2.9-2-4.4-2.6-6.9-3-7.2-7.1-7.6-6.6-.6-9.2-.6-13.8,1.1-13.9-1.7Z"/>
    <path class="cls-5" d="M57.5,33.4s-1.6-.7-2.4-1.6-.6-1.5,0-2.2,2.2-2.1,3-2.5,1.4-.5,1.7,0,.3,1.7-.1,3-1.8,3.6-2.2,3.3Z"/>
    <path class="cls-8" d="M63.3,41.8s-1.1,0-1.2-1,.3-1.4,1-1.8,2.6-.2,2.9-.1-.9-.3-1.9-.3.7-.6,2.3-.5,3.1,0,3.1,0c0,0-1.6,1.3-2.8,1.9s-1.8.7-2.2,1.3-.8.6-1,.6Z"/>
    <path class="cls-11" d="M59.2,36.2s0,0,0,0"/>
    <path class="cls-4" d="M53.5,39.9s.7-.4.3-1.3-.9-1.2-.8-2.2.3.8.6,1.3,1.2,1.5,0,2.2Z"/>
    <path class="cls-4" d="M55.7,42.8s1.2-.7,2.2,0,1.6,1.2,1.6,1.2c0,0-1.4-1-2.2-1.1s-1.6,0-1.6,0Z"/>
    <path class="cls-8" d="M51.7,41.9s-.1.8,0,1.2.7.5.9.8.6.5,1.1.4.3-.6,0-.9-1-.8-1.2-1.1-.6-.7-.7-.4Z"/>
    <path class="cls-7" d="M54.8,46.8s-3.6,0-4.7-.7-3.3-3.9-3.9-5.5c-.5-1.7.7-4.3.9-6.3.2-2,2.6-3.7,2.6-3.7-1,1.2-1.7,2.9-1.9,4.4-.2,1.9-.7,1.3-.6,2.5,0,1.2.3,2.3.6,2.9.3.6,3.3,4.6,5.2,4.6.2,0,.4,0,.6,0,.5.5.9,1.1,1.2,1.7Z"/>
    <path class="cls-9" d="M50.6,40.5s-2.5-4.9-3.9-5.9c0,0,1.9,2,3.9,5.9Z"/>
    <path class="cls-9" d="M50.1,39.8s-3.3-4.3-5-5.1c0,0,2.3,1.6,5,5.1Z"/>
    <path class="cls-9" d="M50.6,41.4s-3.3-4.3-5-5.1c0,0,2.3,1.6,5,5.1Z"/>
    <path class="cls-1" d="M50.5,53.2s.8-1,.9-2.1.1,1.7-.9,2.1Z"/>
    <path class="cls-1" d="M52.2,54.7s.9-.9,1-1.9.5,1.5-1,1.9Z"/>
  </g>
  <g>
    <g>
      <polygon class="cls-10" points="53.2 21.2 53.2 19.7 54.6 18 53.3 18 53.3 16.2 57.3 16.2 57.3 17.6 56 19.4 57.3 19.4 57.3 21.2 53.2 21.2"/>
      <path class="cls-4" d="M56.8,20.6h-3v-.7l2-2.5h-1.9v-.7h2.9v.6l-2,2.5h2v.7Z"/>
    </g>
    <g>
      <polygon class="cls-10" points="48.1 18.9 48.1 17.3 49.9 15.1 48.2 15.1 48.2 13.2 52.8 13.2 52.8 14.7 51 16.9 52.8 16.9 52.8 18.9 48.1 18.9"/>
      <path class="cls-4" d="M52.2,18.3h-3.6v-.8l2.4-3h-2.3v-.8h3.5v.8l-2.4,3h2.4v.8Z"/>
    </g>
  </g>
</svg>