<?xml version="1.0" encoding="UTF-8"?>
<svg id="Livello_1" data-name="Livello 1" xmlns="http://www.w3.org/2000/svg" version="1.1" viewBox="0 0 76.5 76.5">
  <defs>
    <style>
      .cls-1 {
        fill: #fec8be;
      }

      .cls-1, .cls-2, .cls-3, .cls-4, .cls-5, .cls-6, .cls-7, .cls-8 {
        stroke-width: 0px;
      }

      .cls-2 {
        fill: #b5393d;
      }

      .cls-2, .cls-3, .cls-8 {
        opacity: .7;
      }

      .cls-3 {
        fill: #c4676a;
      }

      .cls-4 {
        fill: #f5aca3;
      }

      .cls-5 {
        fill: #c36667;
      }

      .cls-6 {
        fill: #dd908a;
      }

      .cls-7 {
        fill: #fff;
      }

      .cls-8 {
        fill: #be5456;
      }
    </style>
  </defs>
  <path class="cls-7" d="M47.2,65.7c-.1,0-.3,0-.4,0-.1,0-.2,0-.3,0-.3,0-.6,0-.8-.2-.6,0-1-.2-1.3-.4-.4,0-.7-.3-1-.5-.8-.3-1.6-1-1.7-1.8,0-.9.5-1.6,1.3-1.8.2,0,.6-.4,1-.6.4-.3,1-.7,1.7-1.1q.9-.5,1.2-2.4l.2-.9c.5-2.6-.3-5.6-2.4-9.6-.9-1.7-2.3-3.7-3.7-5.7-1.7-2.4-3.2-4.5-3.6-5.9-.3-.9-1.9-3-3.3-4.7,0,0,0,0,0,0,.4.8.7,1.6.9,2.5,1.7,1,2.8,2.9,2.8,5s-.5,2.8-1.5,3.9c.2,2.3.5,3.6.9,5.9.1.7.3,1.4.4,2.2.5,2.6,1.6,4.8,2.5,6.5.7,1.3,1.2,2.4,1.4,3.3.2,1.3-.1,2.5-.8,3.3-.5.6-1.5,1.3-3.1,1.3-.5,0-1,0-1.6-.2-.7-.2-1.3-.2-1.8-.2-.9,0-1.4.2-2.2.6-.2.1-.5.2-.8.3-1.7.7-2.9.7-4.2.8h-.4c-.3,0-.7,0-1,.1-.5,0-1.1.1-1.6.1s-1,0-1.3-.3c-.7-.3-1.1-1-1.1-1.7,0-1.7,1-2,1.9-2.3.4-.1.9-.3,1.6-.6,1.3-.5,2.5-1.7,3.5-2.8.7-.7,1.3-1.3,1.9-1.7.5-.3.5-.7.5-.7h0c-.1-2.6-2.9-9.1-5.5-14.1-.9-1.8-1.6-4.3-2.2-6.4-.3-1.3-.7-2.4-1-3.3-.2-.5-.4-1-.6-1.5-.7-1.6-1.5-3.3-1.1-6,.4-3.1,4.4-10.1,4.9-10.9l.2-.4.4-.2c.6-.3,2-.8,5.8-.8s4,.1,4,.1h0s0,0,0,0c8.9,1.5,12.1,4.7,12.2,4.8l1,1-1.1,1c-.1.1-3.3,3.1-4.4,4.1l1.9,2.4c.4.3.7.7,1,1.1,3.2,0,5.8,2.6,5.8,5.8s-.6,2.9-1.6,4c0,.4.2.8.3,1.1.2,1.1.5,2.2.8,3.2,1.6,5.6,3.7,7.4,5.4,8.3,1.2.7,1.9,1.7,2,3,.2,1.9-1,3.9-2.1,4.9-.5.4-1.6,2.5-3,6.2-.8,2.2-2.9,2.2-3.5,2.2s-.8,0-.9,0h-.2c-.9,0-1.4.1-1.7.2h-.2c-.2,0-.3,0-.4,0Z"/>
  <g>
    <path class="cls-4" d="M35.7,13.6l-3.5,11.4c-.3-.5-.6-1-.8-1.5-.9-2.5,3.7-9.1,4.2-9.9,0,0,0,0,0,0Z"/>
    <path class="cls-4" d="M40.1,60.6c-.2,1.3-1.3,2.3-3.9,1.8-3.1-.7-4,0-5.6.8-1.6.7-2.6.7-4.1.7-1.5,0-3.5.6-3.5-.3s.2-.6,2.7-1.6c2.5-1,4.3-3.8,5.6-4.6,1.3-.8,1.1-2.1,1.1-2.1-.2-3.4-4.3-11.8-5.7-14.5-1.4-2.7-2.2-7.2-3.1-9.6-.9-2.4-2.1-3.8-1.6-6.8.4-3,4.7-10.4,4.7-10.4,2-1,9.1-.5,9.1-.5,0,0,0,0,0,0s0,0,0,0c-.6.7-5.4,6.6-6.4,8.8-1.1,2.3-1.8,4.9,0,7.2.5.6,1,1.9,1.7,3.5.1.4.3.7.4,1.1.1.4.3.8.4,1.2.4,1.2.8,2.5,1.2,3.7h0c.1.4.2.8.3,1.2.1.4.2.8.3,1.2.8,2.8,1.4,5.3,1.6,6.6.4,3.4.8,6.8,1.7,8.3.9,1.5,3.2,4.1,3.2,4.1Z"/>
    <path class="cls-1" d="M56.2,56c-1.2,1-2.8,5.2-3.4,6.8-.6,1.6-2.2,1.2-3.4,1.2-1.2,0-1.7.2-2.2.3-.4,0-.4-.2-.4-.2-.6.4-1,0-1,0-1,0-1-.2-1-.2-1,0-.7-.5-.7-.5,0,0,2.3-1.7,3.1-2.2.8-.5,1.7-2.1,2.4-3.5.7-1.4,3.1-5.6,1.2-5.9-1.9-.3-3.3-2.5-3.3-2.5-.4-1.1-1-2.3-1.6-3.5-1.2-2.2-3.3-5.1-4.9-7.5-1.1-1.6-2-3-2.3-3.9-.6-1.9-4.7-6.3-6.6-9.3-.3-.5-.6-1-.8-1.5-.9-2.5,3.7-9.1,4.2-9.9,0,0,0,0,0,0s0,0,0,0c8.5,1.4,11.4,4.4,11.4,4.4,0,0-4,3.7-4.6,4.3-.7.6,0,1.6,0,1.6l2.1,2.6c.5.5,1,1,1.4,1.6.3.4.5.8.8,1.2.3.5.5,1,.8,1.5.4.8.7,1.5.9,2.3.2.5.3,1,.5,1.6h0c.1.4.2.9.3,1.3.4,1.7.8,3.5,1.3,5.2,1.5,5.3,3.5,7.8,6,9.2,2.5,1.4.9,4.6-.3,5.6Z"/>
    <g>
      <circle class="cls-3" cx="46.5" cy="32.5" r="4.4"/>
      <circle class="cls-8" cx="46.5" cy="32.5" r="3.2"/>
      <circle class="cls-2" cx="46.5" cy="32.5" r="2"/>
    </g>
  </g>
  <path class="cls-7" d="M57.6,33.2h.2c.3-.2.6-.2.9,0,1.4,1,3.5,3.5,2.5,6.7h0c0,.1-.2.3-.2.3-.2.2-.5.3-.8.2-.2,0-.4-.2-.5-.4-.1-.2-.1-.4,0-.6.9-2.9-1.7-4.8-1.8-4.8-.4-.3-.5-.8-.2-1.2h0c0-.1,0-.2,0-.2Z"/>
  <path class="cls-5" d="M58,33.5c.1,0,.2,0,.3,0,0,0,3.4,2.4,2.3,6.1,0,.2-.2.3-.4.2-.2,0-.3-.2-.2-.4,1-3.3-1.9-5.3-2-5.4-.1-.1-.2-.3,0-.5,0,0,0,0,.1-.1Z"/>
  <path class="cls-7" d="M60.8,34.2h.1c.3-.2.8-.2,1,.1,0,0,3,3.4.8,7.1h0c0,0,0,.2,0,.2-.3.3-.7.3-1,.1-.4-.2-.5-.8-.3-1.2,1.5-2.5-.4-4.9-.6-5.2-.3-.3-.3-.8,0-1.1h0Z"/>
  <path class="cls-5" d="M61.2,34.6c.1,0,.3,0,.4,0,0,0,2.7,3.2.8,6.5,0,.2-.3.2-.4.1-.2,0-.2-.3-.1-.4,1.7-2.9-.6-5.6-.7-5.8-.1-.1-.1-.3,0-.5,0,0,0,0,0,0Z"/>
  <path class="cls-7" d="M15.3,48.7h-.2c-.3-.1-.5-.4-.6-.7-.3-1.7,0-4.9,3-6.5h.1c0,0,.3,0,.3,0,.3,0,.6.2.7.4.1.2.1.4,0,.6,0,.2-.2.4-.4.5-2.7,1.4-2.1,4.6-2.1,4.7,0,.5-.2.9-.7,1h-.2s0,0,0,0Z"/>
  <path class="cls-5" d="M15.2,48.2c-.1,0-.2-.1-.2-.3,0,0-.7-4.1,2.7-6,.2,0,.4,0,.4.1,0,.2,0,.4-.1.4-3,1.6-2.4,5.1-2.4,5.3,0,.2,0,.3-.3.4,0,0-.1,0-.2,0Z"/>
  <path class="cls-7" d="M13.7,45.8h-.1c-.4-.1-.6-.5-.6-.9,0,0,.3-4.5,4.5-5.6h0s.1,0,.1,0c.4,0,.7.3.8.6.1.5-.2.9-.6,1-2.9.7-3.2,3.7-3.2,4.1,0,.4-.4.8-.8.8h-.1Z"/>
  <path class="cls-5" d="M13.8,45.2c-.1,0-.2-.2-.2-.3,0,0,.3-4.2,4.1-5.1.2,0,.3,0,.4.2,0,.2,0,.4-.2.4-3.3.8-3.6,4.4-3.6,4.5,0,.2-.2.3-.3.3,0,0,0,0,0,0Z"/>
  <path class="cls-7" d="M44.8,63.1s-.5.1-.3.3.3.1.5,0,.3-.3-.1-.4Z"/>
  <path class="cls-7" d="M45.4,63.4s-.2.2-.2.3.4,0,.4,0,.1-.2.2-.2-.3-.2-.4-.1Z"/>
  <path class="cls-7" d="M46.4,63.6s-.1.1-.2.2.2,0,.3,0,.2-.2.2-.2c0,0,0,0-.4,0Z"/>
  <path class="cls-7" d="M47.3,63.8s-.2,0-.2.1.2,0,.3,0,.2,0,0,0-.2,0-.2,0Z"/>
  <path class="cls-7" d="M23.3,62.8s.2.2.2.4,1.2-.2,1.5-.2-.4-.5-.9-.5-.9.3-.9.3Z"/>
  <path class="cls-6" d="M40.1,60.6h0s-2.3-2.6-3.2-4.1c-.9-1.5-1.3-4.9-1.7-8.3-.1-1.2-.8-3.8-1.6-6.6-.1-.4-.2-.8-.3-1.2-.1-.4-.2-.8-.3-1.2h0c-.4-1.3-.8-2.5-1.2-3.7-.1-.4-.3-.8-.4-1.2-.1-.4-.3-.8-.4-1.1-.6-1.6-1.2-2.9-1.7-3.5-1.8-2.4-1.1-4.9,0-7.2,1.1-2.2,5.9-8.1,6.4-8.8-.5.8-5.2,7.4-4.2,9.9.2.4.4.9.8,1.5l-.9,2.9c1.2,1.8,2,3.6,2.6,5.6.2.5.3,1.1.4,1.7.2,1.2.4,2.5.5,3.9,0,0,0,.2,0,.2,0,.5,0,1,.1,1.5.3,3.5.6,4.8,1.4,8.9.8,4.6,3.6,8,3.9,9.8,0,.4,0,.7,0,1Z"/>
  <g>
    <circle class="cls-3" cx="31.9" cy="37.5" r="4.4"/>
    <circle class="cls-8" cx="31.9" cy="37.5" r="3.2"/>
    <circle class="cls-2" cx="31.9" cy="37.5" r="2"/>
  </g>
  <path class="cls-4" d="M49.7,57.6c-.7,1.4-1.6,3-2.4,3.5-.8.5-3.1,2.2-3.1,2.2-.6.2-1.7-.7-1-.9.7-.2,1.5-.9,3.1-1.9,1.7-1,1.5-1.1,2.1-4.4.4-2.2,0-4.5-.9-7,0,0,1.5,2.2,3.3,2.5,1.9.3-.5,4.5-1.2,5.9Z"/>
  <path class="cls-7" d="M43.2,62.6s.4.4.6.4.6-.2.7-.3-.4-.4-.7-.5c0,0-1,.2-.7.4Z"/>
</svg>