<?xml version="1.0" encoding="UTF-8"?>
<svg id="Livello_1" data-name="Livello 1" xmlns="http://www.w3.org/2000/svg" version="1.1" viewBox="0 0 76.5 76.5">
  <defs>
    <style>
      .cls-1 {
        fill: #bfa196;
      }

      .cls-1, .cls-2, .cls-3, .cls-4, .cls-5, .cls-6, .cls-7, .cls-8, .cls-9, .cls-10 {
        stroke-width: 0px;
      }

      .cls-2 {
        fill: #1a1006;
      }

      .cls-3 {
        fill: #af8b84;
      }

      .cls-4 {
        fill: #e1c6bb;
      }

      .cls-5 {
        fill: #f2e0da;
      }

      .cls-6 {
        fill: #846f76;
      }

      .cls-7 {
        fill: #8b583b;
      }

      .cls-8 {
        fill: #7f500c;
      }

      .cls-9 {
        fill: #9d7a5e;
      }

      .cls-10 {
        fill: #fff;
      }
    </style>
  </defs>
  <path class="cls-10" d="M57.6,57.8c.6.3,1.2.6,1.7.8,1.2.7,2.1,1.7,2.7,2.9h0c.2.5-.3,1.1-.8.8-3.1-1.4-8.2-3.2-10-3.6-.7,1-1.5,1.6-2.2,1.9-.5.2-1.3.7-2,1.2-.5.3-1,.7-1.5,1l-.3.2h0c-.9.5-2,1-3,1-3.2,0-5.3-.4-6.5-1.3-.3-.2-.7-.6-1-1-.3-.4-.7-.8-1-1.2-.7-.8-1.4-1.7-2.1-2.3-2.1.3-7.3,2.2-11,3.9s-1.5-.5-1-1.2h0c1.1-1.7,2.6-3.1,4.5-3.8s1.5-.6,2.5-.9c-4.5.7-9.3,2.5-7.1.4,1-1,2.5-1.5,4-1.9-1.9,0,.4-.8-5.5-.4,0,0,2.8-1.4,3.7-1.7s2.5-.8,3.1-.8c-.4-.5-.7-1-1-1.5-.6-1-1.5-2.2-2.5-3.5-2-2.6-4.1-5.4-4.5-7.8l.8-.2c-.1-.1-.3-.2-.4-.2,0,0-.3,0-.4,0-1.2,0-1.5-.9-1.5-1.4,0-.9.6-1.2,1.2-1.4-.2-.4-.3-.9-.3-1.5,0-.5.1-1.1.2-1.7.2-1,.4-2.1.4-3.2-.2-.3-.5-.8-.6-1.5-.2-.8-.5-2.4-.9-4-.3-1.5-.6-3-.9-4-.1-.6-.2-1.1-.1-1.7h.6c0,0,0,0,0,0h-.5c0-.3,0-.5.1-.7h0s0,0,0-.1h0s0,0,0,0c0-.4.3-1.5,1.4-2.4.6-.5,1.3-.7,2.2-.7s2.4.4,4,1.2c1.5.7,3,2,4.4,3.2h.2c.3.2,1.1.3,2,.5v-.3h1.1c.4,0,.6,0,1.1.4.5.2,1.3.7,1.8.9,0,0,.2-.2.4-.3.6-.4,1.6-1,3-1.1.9,0,1.7-.3,2.4-.6.8-.2,1.5-.5,2.2-.5h0c.1,0,.2-.2.3-.4.5-.6,1.4-1.6,2.9-1.7l4.4-.4-1,.9c.2,0,.4,0,.6,0h.3c.6,0,1.4,0,2.2.3.7-.9,1.5-1.9,2-2.4,1.7-1.6,5-1.9,5.7-2,0,0,.1,0,.2,0,.8,0,1.4.4,1.8,1,.1.2.2.3.2.5.4,1.2.2,3-.1,4.8v.2h0c0,.2,0,.3,0,.4,0,.3,0,.6-.1,1h0c0,.1,0,.2,0,.2-.3,2-.5,5-.6,6.8,1,2.6,1.8,5.3,1.9,6.5.2,2.3-1.6,9.5-2.7,11.2-.7,1-2.8,5.4-3.7,7.7.5,0,1,0,1.5,0,.7,0,2,.2,3.1.4s1.7.5,2.4,1.1h0c.5.4.3,1.2-.4,1.2-1,0-2.2.2-3.1.2,1.7.4,3.5,1,4.9,2.3,3.3,3-2.5.7-5.1.5Z"/>
  <g>
    <path class="cls-4" d="M56.8,43.7c-.9,1.3-3.8,7.6-4.3,9.3-.5,1.7-2.3,5.8-4.1,6.5-1.1.4-2.4,1.5-3.7,2.3h0c-1.5.3-3.1-.3-3.6-.7s-1.1-.1-1.1-.1c-1.4.5-4.4,0-4.4,0-1.1-1.3-2.6-3.4-4.1-4.4-2-1.3-5.1-3.7-7-6.9s-6.3-7.6-6.9-10.9c0,0,.8,1.8,1.2,1.1.4-.7-.9-2.7-2.2-2.7s.2,0,1.3,0c1,0-1-1.5-.9-2.8,0-1.3.8-3.4.6-5.8-.2-2.5,4.9-9.5,8.3-8.4,0,0,2.5.4,3.4,1.1.9.7.7-.5,0-.9-.7-.5,1.4.8,2.5,1.1,1,.4,1.7-1.1,3.8-1.4,2.1-.2,3.5-1.1,4.6-1,1.1,0,1.5-1.9,3.2-2.1,0,0-1,.8-.9,1.5,0,.7,3.2-1.1,4.9-1,1.6,0,3.5,0,6.1,2.8,2.6,2.7,5.5,11.2,5.7,13.2.1,2-1.6,8.9-2.5,10.3Z"/>
    <path class="cls-9" d="M38.5,35.5s.8-2.2.4-4.1.4.4-.4.9-.3-3.2-1.2-4.5.1-3.2,1.2-3.4,2,0,2.9,1.9,3.1,3.8,4.9,3.6,4.9-1.2,6.2-.6c0,0-1.8,0-2.1.5s3.5,0,4.6,1.4,0,1.9,1.3,4.3,0,5.2-.7,6.1-2.9,3.8-4.6,3.6-1.6-1.6-.4-3.1-.7-.7-3-.5-2.7,0-2.8-1.1,1.8-3.4,1.8-3.4c0,0-2.8,1.9-2.7,3.5s-1.5-1.7-3.1-2.1-2.5-1.4-2.1-2.9Z"/>
    <path class="cls-3" d="M37.6,55.2c0,.1.5.6,1.3,1s1,.3.8.8.5.9.8,1.2.3,0,.8-.3.7-.4.6-.9.3-1,1-1.1.8-.7,1-1.2-1-.3-1.6,0-2.2.4-3.2,0-1.8-.3-1.3.6Z"/>
    <path class="cls-7" d="M34.1,49c0-.1,0-.4.4-.9s.9-1,0-1.5-1.9-.4-3.4-.3-2.4-.4-3.3-1.2,1.2.6,3.3.6,3.6-.1,4.2.9,0,1.5-.4,1.8-.7,1.6-.7,1.6v-1Z"/>
    <path class="cls-8" d="M47.7,44.7c-.2.2-.4.3-.6.4h0c-1.9-.2-1.9-1.9-1.9-1.9.2-.1.3-.2.6-.3,0,0,.1,1.7,2,1.8Z"/>
    <path class="cls-6" d="M47.1,45.1c-1.3.8-2.1.5-2.7.5-.2,0-.2-1.5.8-2.4,0,0,0,1.7,1.9,1.9Z"/>
    <path class="cls-2" d="M48.9,43.5c-.4.5-.9.9-1.2,1.2-1.8-.1-2-1.7-2-1.8h0c0,0,.2,0,.3-.1,1.9-.5,3.5-1.5,3.5-1.5,0,0,1.7-.6-.6,2.1Z"/>
    <path class="cls-10" d="M47.4,42.3s0,.3.5.3.4-.7.4-.7l-.8.4Z"/>
    <path class="cls-3" d="M16.2,16.5s-1.6.9-1.1,3.1,1.4,6.6,1.8,8,1.3,1.6.9,2.7,4.1-.4,5.5-.5,3.8-.9,4-2.9-.4-3.7-2.7-6.2-6.4-6-8.4-4.2Z"/>
    <path class="cls-1" d="M30.6,27.6c0-.1.3-3.1-2.1-4.9s-5.2-4.8-7.6-6-3.9-1.3-4.7-.6-.9,1.5-.9,1.5c0,0,1-1.9,2.9-1.1s-2.2,1.4-3.6,2.1c0,0,3.8-1,4.2-1.2s2.2.6,2.7,1.4-2.7-.2-4.7.3c0,0,3.5-.3,4.7.6s-2.2.4-3.2.2,2,.8,3.8.9,3.3,1.3,3.3,1.3c0,0-3.2-.3-5.1.9s-2.8,3.1-2.8,3.1c0,0,1.6-2.9,4.3-2.9s.7,1.4-1,1.5-3.2-.4-3.2-.4c0,0,2.9,1,5.3.8s3.1,2,3,2.4-2.1,1.9-4,1.8,1.9,1,4.2,0,3,0,4.3-1.8Z"/>
    <path class="cls-3" d="M47.1,27.8s2,.7,4,.6,4-.3,5.2.3,1,.7,1-1.7.5-6.7.8-8.5,1-5.4-.5-5.2-5.1,2.6-6.6,4.8-6.5,7.8-4,9.6Z"/>
    <path class="cls-1" d="M47.1,27.8s-.7-2.8,1.3-3.1,6.3,2.5,6.3,2.5c0,0-3.4-2.5-5.1-2.9s3.2-.4,5.1,1.4-.4-1.5-3.1-2.3,3.3-.6,4.1-2,2.6-1.6,2.6-1.6c0,0-1.7,0-2.3.9s-2.6,1-3,.9.8-1.1,1.7-.9,1.6,2,1.6,2c0,0-.3-1.8-1.6-2.4s.2-1.1,0-1.8,1.1-.7,1.7,0,.6,2.9.6,2.9c0,0,.4-2.6-.7-3.5s.5-1.1,1.2-.7.7,1.3.7,1.3c0,0,.3-1.4-1.4-1.9s1.2-1.5,1.8-2.6-.6.7-1.8.7.9-1.1.9-1.1c0,0-3.4.2-4.8,1.6s-6.2,7.9-7.1,9.2-1.5,2-.8,2.8,2.2.8,2.2.8Z"/>
    <path class="cls-1" d="M44.7,61.8c-.9.6-1.8,1-2.7,1-1.9,0-4.4-.1-5.6-1-.3-.2-.5-.5-.8-.8,0,0,2.9.5,4.4,0,0,0,.6-.3,1.1.1s2.1,1,3.6.7Z"/>
    <path class="cls-5" d="M43.7,56.3s8.2-3.7,14.9-2.5c0,0-6.4-.9-14.9,2.5Z"/>
    <path class="cls-5" d="M47.8,55.7s6-.7,10.8.8c1.6.5-.9-1.7-10.8-.8Z"/>
    <path class="cls-5" d="M45.7,56.8s7.7,0,13.7,3.7c0,0-4.6-3.7-13.7-3.7Z"/>
    <path class="cls-5" d="M36.9,56.1s-8.2-3.7-14.9-2.5c0,0,6.4-.9,14.9,2.5Z"/>
    <path class="cls-5" d="M32.8,55.5s-6-.7-10.8.8.9-1.7,10.8-.8Z"/>
    <path class="cls-5" d="M34.9,56.6s-7.7,0-13.7,3.7c0,0,4.6-3.7,13.7-3.7Z"/>
  </g>
</svg>