<?xml version="1.0" encoding="UTF-8"?>
<svg id="Livello_1" data-name="Livello 1" xmlns="http://www.w3.org/2000/svg" version="1.1" viewBox="0 0 56.7 52.3">
  <defs>
    <style>
      .cls-1 {
        fill: #bd505d;
      }

      .cls-1, .cls-2, .cls-3, .cls-4, .cls-5, .cls-6, .cls-7, .cls-8 {
        stroke-width: 0px;
      }

      .cls-2 {
        fill: #cf989b;
      }

      .cls-3 {
        fill: #bad1dc;
      }

      .cls-4 {
        fill: #376076;
      }

      .cls-5 {
        fill: #080d03;
      }

      .cls-6 {
        fill: #ac394d;
      }

      .cls-7 {
        fill: #fff;
      }

      .cls-8 {
        fill: #393026;
      }
    </style>
  </defs>
  <path class="cls-7" d="M30.2,52.1c-.5,0-.9-.2-1.2-.5-.5-.6-.5-1.3-.5-2,0-1.2-.2-2.4-.5-3.3-1.6,0-3.1-.2-4.7-.5-.4.8-.9,1.9-.8,3,.1.9-.5,1.7-1.4,1.8,0,0-.2,0-.2,0-.8,0-1.5-.6-1.6-1.4,0-.3-.3-2.4.5-4.4-1.8-.6-3.6-1.4-5.4-2.4,0,0,0,0,0,0-.4-.2-.7-.4-1.1-.6-.9-.5-1.7-1-2.5-1.4-.2.6-.3,1.3-.2,2.1.2.9-.4,1.7-1.2,1.9-.1,0-.3,0-.4,0-.7,0-1.4-.5-1.6-1.2,0-.3-.7-2.5.1-4.6,0,0-.2-.1-.3-.1,0,0,0,0-.1,0-1.6-.6-2.8-1-4.1-1.3-1.7-.4-2.4-1.4-2.6-2.1-.4-1.2,0-2.3.3-2.9.2-.9.7-3,2.5-6,0,0,0,0,0-.1,0-.1.1-.2.2-.3,0,0,0,0,.1-.2.7-1.2,4.3-7.1,6.4-9.8,1.2-1.5.9-3.7.7-4.9,0-.5,0-1,.4-1.4,0-.1.2-.2.3-.3,2.5-2.6,5-4.5,7.5-5.6.2,0,.3-.2.5-.2.2,0,.3,0,.5,0,.7,0,1.3.4,1.5,1.1.6,1.4,1.3,1.5,1.6,1.5.1,0,.5-.7.8-2.6,0-.7.5-1.2,1.2-1.4.2,0,.5-.1.7-.1.9,0,1.6.7,1.7,1.6,0,.5,0,1,0,1.4.3,0,.5-.1.8-.2,1.1-.3,2.2-.6,3.1-.6.1-.2.4-.6.6-1.6.2-.7.8-1.2,1.6-1.2s.3,0,.5,0c.9.1,1.5,1,1.4,1.9,0,.6-.2,1-.2,1.5.3,0,.7,0,1,.1,1.8.2,4.1.5,5.7,1.6,0,0,.1,0,.1,0,.3,0,1-.3,2-1.5,0,0,0,0,0,0,.7-.8,1.2-1.6,1.2-1.6.3-.5.9-.8,1.4-.8s.4,0,.6.1c.8.3,1.2,1.1,1,1.9,0,0-.3,1.2-.8,2.5,0,0,0,0,0,.1-.4,1-.9,1.7-1.4,2.3,0,0,.2,0,.3,0,.3,0,1.7-.8,4.1-3.8.3-.4.8-.6,1.3-.6s.7.1,1,.3c.7.5.9,1.6.3,2.3-1.6,2.2-2.8,3.6-3.6,4.5.5.3,1.1.6,1.5,1,0,0,.2,0,.5,0,.8,0,2.2-.2,3.6-.5.1,0,.3,0,.4,0,.7,0,1.3.4,1.6,1.1.3.8,0,1.7-.8,2,0,0-1.2.6-2.6,1.1,0,2.5,0,7.8-1.4,10.5-.2.3-.4.8-.6,1.3-.8,1.6-2,4.1-3.7,6.7,0,0,0,.1-.1.2,0,0-.1.2-.2.3,1.9.8,2.9,2.3,3.2,3.3.3.8-.1,1.7-.9,2-.2.1-.5.2-.7.2-.6,0-1.1-.3-1.4-.8-.5-.8-1.1-1.2-1.8-1.5,1.5,1.4,2,3.2,2.1,3.7.2.9-.3,1.7-1.2,2s-.3,0-.5,0c-.7,0-1.3-.4-1.6-1.1-.3-1-1.2-1.7-2-2.2-.5.5-1.1.9-1.6,1.3,0,0,0,0,0,0-.2.2-.5.4-.7.5.2.1.4.3.6.5.7.6.8,1.6.2,2.3-.3.4-.8.6-1.3.6s-.7-.1-1-.3c-.7-.5-1.8-.9-3.2-1-1.2.3-2.4.6-3.6.7.6,2.2.3,4.5-.1,5.2-.3.5-.9.9-1.5.9Z"/>
  <g>
    <path class="cls-2" d="M2.1,33s-1.5,2.1,1.1,2.7c2.6.7,4.9,1.3,10.7,4.6,5.7,3.3,12.7,5.6,21.4,3.2s13.3-13.8,14.9-16.9c1.6-3.1,1.1-10.9,1.1-10.9l-11.1-3.8L2.1,33Z"/>
    <path class="cls-1" d="M2.1,33s.4-4.2,5.5-10c5.1-5.8,10.7-12.5,18.5-13.8,7.8-1.3,15.5.7,18.3,5.1,2.9,4.4,3.2,7.1,1.8,10.5s-4.3,7.6-5.3,10-11.2,8-18.9,5.7c-7.7-2.3-14.7-6.8-16.8-6.8s-3.5,1.1-3.1-.7Z"/>
    <path class="cls-3" d="M10.6,19.6s-1.9,2.5.6,3.8c2.5,1.3,3.1,1.1,8.9,3,5.8,1.9,14.3,3.3,19.4.9,5.2-2.4,7.1-6.8,6.7-9.5s-4.3-7.6-10.9-8.5-12.5-.3-16.8,3.1c-4.3,3.4-8,7.3-8,7.3Z"/>
    <path class="cls-4" d="M18.6,12.3s.2,7.6,10,10.4c9.8,2.9,12.6-7.5,12.7-11.4,0,0-3.7-2.9-11.4-2.5s-10.1,2.4-11.4,3.5Z"/>
    <path class="cls-5" d="M24.5,9.5s-1.4,6.5,4.3,7.5c5.7,1,6.6-5.8,5.3-8.2,0,0-6-.5-9.6.7Z"/>
    <path class="cls-6" d="M6.9,27.4s2.7-2.8,5.9-1.2c3.2,1.5,6.4,3.4,9.4,3.6,3.1.2,5.5-.3,7.3.9s6.2,2.3,9.5,1.8c3.4-.5-.8,2.3-4.4,2.5-3.6.2-6.6-.4-10.3,0s-5.9-1.6-10.9-3.2c-5.1-1.5-11-.4-6.6-4.4Z"/>
    <path class="cls-8" d="M8.2,37s-2.4,1.2-2.9,3.1c0,0,.2-2.7,2.9-3.1Z"/>
    <path class="cls-8" d="M10.5,37.6s-2.4,2.1-1.8,5.4c0,0-1.2-3.8,1.8-5.4Z"/>
    <path class="cls-8" d="M15.4,40.3s-2.4,3.9-1,6.5c0,0-.5-3.9,1-6.5Z"/>
    <path class="cls-8" d="M22.8,43.5s-2.3,2.6-2,5.5c0,0-.6-4,2-5.5Z"/>
    <path class="cls-8" d="M28.6,43.5s1.8,3.2,1.6,6.1,1.6-3.3-1.6-6.1Z"/>
    <path class="cls-8" d="M32.5,43.6s7.3-.7,8.3,3.2c0,0-1.2-4.2-8.3-3.2Z"/>
    <path class="cls-8" d="M39.5,41.2s4.2,1.8,4.2,5.5c0,0,.3-4.8-4.2-5.5Z"/>
    <path class="cls-8" d="M41.3,39s3.8,1.1,4.8,4.1c0,0-.8-3.9-4.8-4.1Z"/>
    <path class="cls-8" d="M43.4,37.1s3.6-.4,5.4,2.5c0,0-1.1-3.3-5.4-2.5Z"/>
    <path class="cls-8" d="M45.5,34.4s3.1.2,3.7,2.7c.5,2.5.5-1.4-3.7-2.7Z"/>
    <path class="cls-7" d="M2,27.3c-.2,0-.5,0-.7-.2-.8-.4-1.2-1.4-.8-2.2C8.8,6.6,19.2,2.3,19.7,2.2,23.8.7,27.7,0,31.3,0,39.7,0,44.8,3.7,47.2,5.9c.4.4.8.8,1.2,1.2l-.7.6c0,.2-.2.4-.3.5-.3.3-.6.5-1,.5l-.5.4s-.3-.3-.8-.8c-2.5-2.2-7.3-3.5-12.9-3.5s-6.6.4-9.9,1.3C12.3,8.6,3.6,26.2,3.5,26.4c-.3.6-.9.9-1.5.9Z"/>
    <path class="cls-2" d="M2.1,25.7S11,7.2,21.8,4.5s21.7-1,25.2,3.6c0,0-8.4-10.9-26.8-4.4,0,0-10.2,4-18.2,21.9Z"/>
    <path class="cls-8" d="M4.5,27.4s4.4-7.3,6.7-10.2c2.3-3,.7-7.6.7-7.6,0,0,1.3,2.6,1.3,4s3.2-3.1,5.5-4,.8-3,.6-5.8c0,0,.4,3.8,3.4,4.1,3,.2,2.6-6.8,2.6-6.8,0,0,.4,3.7,0,5.4s3.9-.4,5.9-.3c2,.1,2.5-5.6,2.5-5.6,0,0-.2,3.7-.8,5.2s5.1.7,7.6,2.4c2.5,1.8,5.8-3.6,5.8-3.6,0,0-.9,3.8-2.3,4.5s-.2,2.3,1.9,2.5,5.6-4.6,5.6-4.6c0,0-3.9,5.5-5.1,5.7s2.3,1.2,3.1,2.2,5.5-.2,5.5-.2c0,0-5.2,2.5-6.6,1.6-1.4-.9-3.5-1.4-3.5-1.4,0,0-3.9-6.3-16.7-5.6,0,0-6.1,0-11.8,5.3-5.7,5.4-11.9,13.1-11.9,13.1Z"/>
    <path class="cls-3" d="M10.5,26.3s-3.2.8-3.8,2,2.3-1.5,3.8-2Z"/>
    <path class="cls-3" d="M11.9,26.8s-1.7,0-1.3.7,3.5.2,4.8.8-2.2-2.1-3.5-1.5Z"/>
    <path class="cls-3" d="M18.6,30.3s3.2.9,5.7.4c2.5-.5-2.5,1.6-5.7-.4Z"/>
  </g>
</svg>