<?xml version="1.0" encoding="UTF-8"?>
<svg id="Livello_2" data-name="Livello 2" xmlns="http://www.w3.org/2000/svg" version="1.1" viewBox="0 0 693.1 872.4">
  <defs>
    <style>
      .cls-1 {
        fill: #c46767;
      }

      .cls-1, .cls-2, .cls-3, .cls-4, .cls-5, .cls-6, .cls-7, .cls-8 {
        stroke-width: 0px;
      }

      .cls-2 {
        fill: #e5b9a6;
      }

      .cls-3 {
        fill: #fed4c2;
      }

      .cls-4 {
        fill: #000;
      }

      .cls-5 {
        fill: #ebbeab;
      }

      .cls-6 {
        fill: #82b9d9;
      }

      .cls-7 {
        fill: #fad4c4;
      }

      .cls-9 {
        stroke-linejoin: round;
      }

      .cls-9, .cls-10 {
        stroke: #fff;
        stroke-width: 36px;
      }

      .cls-9, .cls-10, .cls-8 {
        fill: #fff;
      }

      .cls-10 {
        stroke-miterlimit: 10;
      }
    </style>
  </defs>
  <path class="cls-8" d="M599.3,788l-.9-.6c-.3-.2-.8-.5-1.3-.8-1.6-1-3.7-2.5-5.9-4.1-7.9-6.2-15.8-12.5-23.6-18.6-16.2-12.9-32.9-26.2-49.6-38.9-8.7-6.7-18.2-12.9-27.3-19-4.4-2.9-8.9-5.9-13.3-8.9-2-1.3-4-2.8-6.1-4.6-5.9-5.1-7.4-12.7-3.8-18.9,3.7-6.3,11.1-8.7,18.3-5.9s.6.3,1,.4l1.8.8c6.2,2.8,12.6,5.7,18.8,8.9,33.7,17.1,66.6,37.5,97.6,60.6,5.8,4.3,11.2,9,15.2,12.7,2.6,2.4,5,5.4,7.1,9,4.6,7.9,3.7,17.6-2.2,24.2-5.9,6.5-15,8.1-24.5,4.4l-1.3-.5h0Z"/>
  <path class="cls-1" d="M604,779.1c-1.4-1-4.1-2.7-6.6-4.6-24.4-19.2-48.6-38.8-73.3-57.6-13.2-10.1-27.3-18.9-41-28.2-1.8-1.2-3.6-2.5-5.2-3.9-2.3-2-2.8-4.3-1.7-6.3,1.2-2.1,3.5-2.7,6.5-1.4,6.8,3.1,13.6,6.1,20.2,9.5,33.8,17.2,65.8,37.1,96.2,59.7,5,3.7,9.8,7.8,14.4,12,2,1.9,3.8,4.2,5.2,6.6,2.5,4.3,1.9,9.2-1,12.5-2.9,3.3-7.7,4.1-13.7,1.7h0Z"/>
  <path class="cls-8" d="M500.4,612.3c-3.5-1.4-6.1-4.2-7.1-7.9-1.6-5.7,1.4-11.7,5.1-14.5.7-.5,1.4-1.1,2.1-1.6,4.1-3.2,8.3-6.4,13.3-9.1,15.8-8.4,31.4-16.6,47.5-24.2,17.1-8.1,34.6-15.8,51.5-23.3,4.2-1.9,8.5-3.8,12.8-5.7,3.8-1.7,7.9-3.1,12.6-4.3,4.6-1.2,9.3-1,13.5.7s4.4,2.2,6.3,3.8c6,5.2,8.4,13.4,6.2,22l-.7,2.8-2,2c-.5.5-1,1.1-1.6,1.7-1.7,1.8-3.8,4.1-6.6,5.9-4.6,2.9-9.3,5.2-13.9,6.8-12.8,4.5-25.9,9-38.5,13.4-9,3.1-18.1,6.2-27.1,9.4-13.2,4.6-26.7,9.4-39.7,14-6.3,2.2-12.6,4.5-18.8,6.7l-.7.3c-1.4.5-2.9,1-4.5,1.5-3.5,1-6.6.9-9.4-.2h0Z"/>
  <path class="cls-1" d="M654.5,545.7c-2.2,2.1-4.1,4.7-6.6,6.2-3.8,2.3-7.8,4.4-11.9,5.9-21.8,7.7-43.8,15.2-65.6,22.8-19.6,6.8-39,13.8-58.6,20.7-1.5.5-3.1,1.1-4.7,1.6-1.6.5-3.7.7-4.2-1.2-.3-1.1.6-3.1,1.5-3.8,4.5-3.5,9-7.2,14-9.8,15.6-8.3,31.2-16.5,47.1-24,21.2-10,42.7-19.4,64.1-28.9,3.5-1.6,7.3-2.8,11.1-3.8,3.9-1,7.6-.3,10.8,2.4,3.2,2.8,4.2,7.3,3,12h0Z"/>
  <path class="cls-8" d="M537.1,662.7c-.8-.3-1.5-.6-2.2-1-3.6-1.9-7.4-6.2-7.8-11.5-.2-1.9-.3-11.3,11.7-13.3h.1c19.2-3.2,39.2-3.3,59.5-.4,14.9,2.1,30.1,3.1,46.6,3,3.1,0,6.1.3,8.1.6.5,0,1,.1,1.4.2h1.4c0,.1,1.3.6,1.3.6,12.9,5,14.9,13.9,15,18.7.1,8.9-5.6,16.5-14.3,18.8-4.5,1.2-9.5,1.8-14.6,1.8-13.3-.2-27.5-2.3-44.8-6.5-15.7-3.9-33-6.8-54.3-9.3-2-.2-4.5-.6-7.2-1.6h0Z"/>
  <path class="cls-1" d="M653.7,650.1c5.9,2.3,8.5,5.6,8.6,9.5,0,4-2.4,7.8-7,9.1-3.8,1-7.9,1.5-11.8,1.4-14.4-.2-28.6-2.8-42.5-6.2-18.3-4.5-36.8-7.4-55.5-9.5-2-.2-4.1-.6-5.7-1.5-1.2-.7-2.5-2.3-2.6-3.6-.2-2,1.8-2.3,3.5-2.6,18.8-3.1,37.6-3.1,56.4-.4,15.9,2.3,32,3.2,48.1,3.1,3.4,0,6.8.5,8.5.7h0Z"/>
  <g>
    <path class="cls-10" d="M519.4,486.9c-1.1,2.9-2.2,5.8-3.3,8.6-1.1,3.2-2,6.6-3.3,9.8-1.4,3.4-2.5,3.8-5.9,2.9-1.6-.4-3.2-.9-4.6-1.7-10.5-6-20.6-3.8-30.5,1.5-2,1-3.7,3-4.9,5-2.1,3.3-1.6,7.3,1.4,9.8,3,2.5,6.5,4.6,9.9,6.6,2,1.2,4.3,1.9,6.5,2.9,3.2,1.4,5.1,4,6.3,7.2,1.3,3.4.8,6.2-2.3,8.1-2.9,1.7-6.2,3.3-9.5,3.7-7.3,1-11.9,5-14.6,11.5-1.8,4.2-3,8.6-4.9,12.7-2.8,6.1-5.8,12.1-9.1,17.9-2.7,4.8-7,8.3-11.7,11.2-2.9,1.7-5.5,3.9-8.4,5.7-1.1.7-2.7,1.1-4.1,1-10.2-.9-20.2-3.1-28.7-9.2-11.5-8.3-22.7-17-31.9-28-4.6-5.5-9.6-10.7-14.8-16.4-.3,1.2-.5,2.3-.8,3.4-3.3,14.9-6.7,29.7-9.9,44.6-.9,4-20.1,69.6-20.6,73.8-.1,1-.6,2.5-1.2,2.7-1,.2-2.3-.4-3.4-.7-.3,0-.5-.5-.7-.8-22.4-25.7-74.9-66.7-101.9-87.4-13.4-10.3-26.6-20.8-40.2-30.8-14.5-10.6-28.9-21.5-46.2-27.4-4.6-1.5-9.3-2.6-14.7-4.1.4-1.7.7-4,1.6-6,3.1-7.2,44.7-40.3,55.9-64.4,2.8-6.5,5.4-13.1,7.9-19.7,3.9-10.7,7.8-21.5,11.4-32.3,1.8-5.1,3.5-10.4,4.4-15.7,1-6,4.2-10.5,7.9-14.8,2.5-2.9,5.7-4.6,9.5-4.7,2.2,0,4.6-.3,6.5.5,6,2.5,10.2.1,14.5-4,6.4-6.2,13.1-12.1,19.7-18,12.7-11.3,27.8-18,44.5-20.1,9.1-1.1,18.5-.4,27.7,0,10.5.4,21,1.5,31.5,2.2,5.2.4,9.5-1.3,13-5.5,5.5-6.5,11.6-12.6,16.8-19.4,5.3-6.9,10.4-14.1,14.5-21.7,11.5-21.1,26-39.8,44.1-55.6,11.7-10.2,24.6-17.9,39.7-21.9,8.8-2.3,17.6-2.2,26.3.4,12.8,3.8,24.5,10,35.6,17.3,2.1,1.4,3.8,3.4,5.5,5.2,2.7,2.8,3.6,5.7,1.2,9.3-.6.9-.5,2.4-.5,3.5.9,12.9,3.6,25.5,5.8,38.2.8,4.6,1,9.4,1.1,14.1.2,6.9,0,13.8-.2,20.6,0,2.2-.4,4.4-.9,6.5-2.5,10.6-5.1,21.2-7.8,31.7-2.5,9.7-6.8,18.8-12,27.3-2.4,4-2.8,7.6-1.6,11.9,3.4,13.2,6.8,26.4,9.9,39.6,2.8,12.2,4,24.7,4.1,37.3,0,5.1-1.9,9.4-5,12.9-3.3,3.7-8.4,4-13,3.9-3.5-.1-7-1.5-11.5-2.5h0Z"/>
    <g>
      <path class="cls-9" d="M432.5,25.5c-12.5,7.2-21.3,17.8-28.9,29.9,4.9.9,9.3,1.5,13.7,2.5,21.9,4.9,41.7,14.7,60.2,27.2,36.5,24.8,65.4,56.7,86.4,95.5,2.5,4.7,5.8,7.5,10.2,9.6,13.1,6.2,26.8,9.3,41.2,6.9,3.6-.6,6.9-2.5,10.4-3.8,1-.4,2.3-1,3.2-.7.5.1.8,1.8.9,2.8.2,3.7.4,7.4.4,11.2,0,2.3-.2,4.8-.9,7-5.2,17.7-15.3,32-29.4,43.9-12.9,10.9-27.5,17.6-43.9,20.5-16.9,2.9-32.1-1.7-45.4-12.2-6.7-5.2-12.7-11.4-18.8-17.3-4.3-4.2-8.4-8.7-14.1-10.8-7.1-2.7-13.5-1.5-19.1,3.9-6.6,6.4-11.9,13.8-15.9,22-6.4,13.2-12.1,26.8-18,40.2-6.8,15.4-13.6,30.7-20.2,46.1-6.5,15.2-16.6,27.9-28,39.6-5.6,5.8-10.7,12.2-17.7,16.5-.4.2-.5,1-1,1.2-.9.6-2,1.1-3,1.7-.5-1.1-1.2-2.1-1.3-3.2-.4-6.7.2-13.5-1.1-20-3.6-17.7-12.6-32.2-27.6-42.5-7.1-4.9-15.1-7.8-23.9-6-8.7,1.7-14.2,7.4-17.4,15.4-4.6,11.5-3.9,23.1-.4,34.7,4.2,13.8,11.9,25.4,22.5,35.1.8.7,1.4,1.7,2.3,2.8-6.4,2.2-12.1,5-18.1,6.1-36.6,7.2-67.7-2.5-91.6-31.7-9.6-11.8-14.2-25.7-13-41.1.3-3.4-1.7-5-3.4-7-8.4-10-14.7-21.2-19.4-33.3-5.5-14.4-8.6-29.4-9.6-44.8-2.8-43.9,9.1-84,32.3-120.8,25.2-40,59.4-69.8,103.5-87.6,22.2-8.9,45.2-13.5,69.2-12.3,2.5.1,3.7-.8,5-2.9,2.9-5,6.2-9.8,9.5-14.6,1.3-1.9,3-3.7,4.9-5.1,1.3-1,3.2-1.2,4.8-1.7-.2,1.4-.2,2.9-.6,4.3-1.6,5.5-3.4,10.9-5.1,16.3-.4,1.2-.3,2.5-.6,4.7,1.2-1.2,1.8-1.8,2.5-2.5,13.9-13.6,30.3-22.6,49.3-26.8,1.4-.3,2.9,0,4.3,0,.2.4.3.8.5,1.2h0Z"/>
      <path class="cls-9" d="M480.3,316.2c3.4,1.1,7,1.9,10.3,3.3,3.8,1.6,7.5,3.7,11.1,5.7,3.9,2.2,7.2,5.1,8.7,9.4,3.1,8.9,6,17.9,8.9,26.9.6,1.8.6,4,.2,5.9-.3,1.4-1.4,3.3-2.6,3.7-1.2.4-3.2-.4-4.3-1.4-1.5-1.4-2.7-3.2-3.6-5-3.1-6.2-6.6-12.4-8.9-19-3-8.6-8.5-14.6-16-19.2-2.3-1.4-4.6-3-6.9-4.3-1.5-.8-2.9-1.9-2.2-3.5.4-1,2.2-1.4,3.4-1.9.5-.2,1.3,0,1.9,0,0-.2.1-.4.2-.5h0Z"/>
    </g>
    <g>
      <path class="cls-9" d="M306.6,433.8c0,.9.3,1.8.2,2.6-1.5,11.7-2.7,23.5-4.7,35.1-1.9,10.8-.5,20.5,6.6,29.2,7,8.4,13.8,16.9,20.7,25.3,13.8,16.6,27.5,33.4,41.5,49.8,9.8,11.4,21.2,20.9,34.6,27.9,2.1,1.1,4.3,2,6.4,3,9.9,4.6,19.2,3.1,27.4-3.6,4-3.3,7.7-7.2,11-11.2,2.3-2.8,3.4-6.2,3.9-9.9,1.3-9.2,3.8-18.1,10.2-25.4,4-4.5,8.5-7.8,14.5-8.9,2.1-.4,4.2-1,6.3-1.6,2.7-.8,3.3-3,3.5-5.6.2-2.5-.9-4.2-3.1-5.2-2.3-1-4.9-1.4-7.1-2.6-3.8-2-7.7-4-11-6.8-4.3-3.6-4.8-8.1-2.5-13.3,4.7-10.6,16.8-15.5,28.5-11.5,4.5,1.5,8.8,3.3,13.3,4.8,1.3.5,2.8.6,4.1.9,1.8-6.2,3.5-12.1,5.4-18.6-4.2-2.3-8.9-5-13.7-7.6,3.8-1.3,6.6.4,9.4,1.7,7.4,3.6,15.1,5,23.2,5s5.8-1.3,7.8-4c3.5-5,5-10.7,4.6-16.5-.7-9.6-1.9-19.2-3.7-28.6-2.7-13.9-6.2-27.6-9.4-41.4,0-.4,0-.8-.2-1.1-3.5-4.6-1.1-8.8,1-13,7.7-15.5,13.7-31.6,17.9-48.4,3.5-13.7,4.3-27.6,3.1-41.7-.3-3.1-.6-6.1-.7-9.2,0-1.2.6-2.5.9-3.8,3.2.9,2.5,3.1,2.8,4.7,2.9,19.3,1.8,38.4-3.4,57.2-4.1,14.9-9.3,29.4-16.1,43.3-2.2,4.5-2.5,8.6-.8,13.5,6.7,20.3,9.8,41.3,11.7,62.5.5,6-.5,12.4-2,18.3-2.4,9.5-7.5,12.8-17.2,12.1-3.4-.2-6.8-.8-10.5-1.3-2.9,3.7-3.5,8.2-4.5,12.6-1.5,7.1-3.1,8.6-10.4,7.4-4.2-.7-8.4-2.1-12.5-3.6-4.6-1.7-9.1-2.4-13.8-.6-4.7,1.7-8,4.9-10,9.5-1.2,2.8-1,5.5,1.6,7.3,3,2,6.2,3.7,9.4,5.3,2.3,1.1,4.9,1.6,7,2.8,6.8,3.8,6.8,14.5,0,18.5-1.7,1-3.6,1.8-5.5,2.2-13.1,2.6-19.3,11.8-21.6,23.8-2.9,15.3-11,26.6-24.3,34.4-10.4,6-21,6.4-31.8,1.2-9.7-4.7-18.8-10.5-26.1-18.5-11.2-12.3-22.2-25-33-37.7-10.9-12.7-21.5-25.6-32.1-38.5-3.1-3.8-5.9-7.9-8.9-11.7-6.8-8.6-9.3-18.3-7.5-29.1,1.9-11.3,3.6-22.6,5.6-33.9.4-2.5,1.6-5,2.4-7.5.5.1.9.2,1.4.3h0Z"/>
      <path class="cls-9" d="M474.1,386.3c5.6-5.1,12.1-2.4,16.9-5.7-2.1-4.4-4.5-8.7-6.3-13.2-1.8-4.5-3.1-9.2-4.3-13.9-.3-1.1.9-2.5,1.4-3.7,1.1.7,2.8,1.1,3.3,2.1,7.1,13.1,16.6,24.6,25.2,36.7.4.6,1.1,1.2,1.1,1.8.2,1.3.4,2.9-.2,3.9-.4.6-2.3.7-3.4.5-6.5-1.4-13-2.9-19.6-4.3-3.2-.7-6.4-1-9.6-1.8-1.4-.3-2.6-1.3-4.7-2.4Z"/>
      <path class="cls-9" d="M331.7,401.5c-3.2,1.1-4-.9-4.9-2.7-1.3-2.4-2.2-5-3.8-7.2-3-4.3-7-6.8-12.6-5.6-1.5.3-3.1.4-3.5-1.5-.5-2,1-3.3,2.6-3.5,2.6-.2,5.4,0,8,.3,1.5.2,2.9,1.2,4.9,2.1-1.3-7.2-3.5-13.1-9.1-17.2-5.8-4.2-11.7-4.2-17.7-.2,0-3.8,1.7-6,5.4-6.9,3.8-.9,7.6-.8,11.2.9,5.6,2.7,10,6.5,12.5,12.3,3.7,8.5,5.8,17.5,7.2,26.7.1.7-.1,1.4-.2,2.3h0Z"/>
    </g>
    <path class="cls-9" d="M271,588.3s29.7,7.6,39.4,9.5,21.9,4.1,24.1,6,5.8,1.8,5.8,1.8l-3.3,12-71-23.6,4.9-5.8Z"/>
    <path class="cls-9" d="M435.6,850.5c-55.4,2.8-150.1-28.8-220.2-60.9-132.7-69.2-173.2-113.2-183.1-127.4-5-5.9-14.9-21.1-13.9-27.8,1.9-13.7,7-26.3,12.7-38.7,40.7-61.4,83.5-81.3,94.8-88.4,2.6-1.6,4.9-2.2,7.7-1.2,5.1,1.8,12.2,4.1,17.1,6.4,14.6,6.7,27.9,15.6,40.8,24.9,32.2,23.2,50.3,31.4,89.6,57.6,40.7,20.8,49.8,16.6,61.9,28.8,0,0,115.6,228.5,92.6,226.7Z"/>
    <g>
      <path class="cls-9" d="M386.5,632.8s-28.7-32-35.4-33.8c-6.8-1.8-10.7,7.2-10.7,7.2,0,0,46.1,26.6,46.1,26.6Z"/>
      <path class="cls-9" d="M385.6,634.8s45.3,18.4,60.6,66.4c15.3,48,20.9,59.8,46.9,94.8,5.1,23.9-46,62.2-57.4,54.4-19.4-13.2-22.8-36.2-57.9-59.4-23.8-15.8-40.5-31.5-61-62.3-11.9-9-55.2-15.1-61-19.6s-13.1-9.3-11.4-18.1c1.7-8.8,19.3-5.9,19.3-5.9,0,0,45.5,8.1,57.1,14.4,0,0,0-2.7,1.1-4.1,0,0-20.3-6.6-35.2-18.2-15-11.6-55.3-4.4-67.3-27.5s10.4-19.7,10.4-19.7c0,0-13.6-11.1-3.6-21.7,4.7-5.1,27.7,2.5,37.4,4.3,0,0-8.8-15.5.3-20.5,2.7-1.5,8.1-.8,15.2,1,7,1.8,15.8,4.5,25.2,7,13.7,3.7,30.3,5.4,35.3,8,5.1,2.7,46.1,26.6,46.1,26.6Z"/>
      <path class="cls-9" d="M340.6,664.5c-5.7-.9-14.5-5.4-14.5-5.4,0,0-17.8-14.8-25-17.6-3.2-1.9-27.6-1.7-28.7-1.6s-8.6-1.3-14.2-3.7-11.5-1.5-19.7-4.6c-8.1-3.2-16.6-1.4-12-1.8s19.1,5,21.5,5.2,8.5,1.2,10.4,2.8,9.8,3.6,21.3,4.2c11.4.7,9.6.4,16.9.1,7.2-.3,19.7,9.4,29.6,18.1,9.9,8.6,9.5,5.8,11,5.8,1.5,0,3.7-1.5,3.7-1.5h-.3Z"/>
      <path class="cls-9" d="M341.3,635.6c-4.3-3.3-30.2-15.3-31.3-16s-11.5-2.2-13.8-2.1c-2.3,0-32.9-5.5-32.9-5.5,2.8,2.3,38.5,6.9,45.3,9s34,19.1,36.2,20.7,15.2,5,12.3,3.6c-2.9-1.4,3.4-3.2,3.4-3.2,0,0-14.9-3.2-19.1-6.5Z"/>
    </g>
  </g>
  <g>
    <path class="cls-7" d="M519.4,486.9c-1.1,2.9-2.2,5.8-3.3,8.6-1.1,3.2-2,6.6-3.3,9.8-1.4,3.4-2.5,3.8-5.9,2.9-1.6-.4-3.2-.9-4.6-1.7-10.5-6-20.6-3.8-30.5,1.5-2,1-3.7,3-4.9,5-2.1,3.3-1.6,7.3,1.4,9.8,3,2.5,6.5,4.6,9.9,6.6,2,1.2,4.3,1.9,6.5,2.9,3.2,1.4,5.1,4,6.3,7.2,1.3,3.4.8,6.2-2.3,8.1-2.9,1.7-6.2,3.3-9.5,3.7-7.3,1-11.9,5-14.6,11.5-1.8,4.2-3,8.6-4.9,12.7-2.8,6.1-5.8,12.1-9.1,17.9-2.7,4.8-7,8.3-11.7,11.2-2.9,1.7-5.5,3.9-8.4,5.7-1.1.7-2.7,1.1-4.1,1-10.2-.9-20.2-3.1-28.7-9.2-11.5-8.3-22.7-17-31.9-28-4.6-5.5-9.6-10.7-14.8-16.4-.3,1.2-.5,2.3-.8,3.4-3.3,14.9-6.7,29.7-9.9,44.6-.9,4-20.1,69.6-20.6,73.8-.1,1-.6,2.5-1.2,2.7-1,.2-2.3-.4-3.4-.7-.3,0-.5-.5-.7-.8-22.4-25.7-74.9-66.7-101.9-87.4-13.4-10.3-26.6-20.8-40.2-30.8-14.5-10.6-28.9-21.5-46.2-27.4-4.6-1.5-9.3-2.6-14.7-4.1.4-1.7.7-4,1.6-6,3.1-7.2,44.7-40.3,55.9-64.4,2.8-6.5,5.4-13.1,7.9-19.7,3.9-10.7,7.8-21.5,11.4-32.3,1.8-5.1,3.5-10.4,4.4-15.7,1-6,4.2-10.5,7.9-14.8,2.5-2.9,5.7-4.6,9.5-4.7,2.2,0,4.6-.3,6.5.5,6,2.5,10.2.1,14.5-4,6.4-6.2,13.1-12.1,19.7-18,12.7-11.3,27.8-18,44.5-20.1,9.1-1.1,18.5-.4,27.7,0,10.5.4,21,1.5,31.5,2.2,5.2.4,9.5-1.3,13-5.5,5.5-6.5,11.6-12.6,16.8-19.4,5.3-6.9,10.4-14.1,14.5-21.7,11.5-21.1,26-39.8,44.1-55.6,11.7-10.2,24.6-17.9,39.7-21.9,8.8-2.3,17.6-2.2,26.3.4,12.8,3.8,24.5,10,35.6,17.3,2.1,1.4,3.8,3.4,5.5,5.2,2.7,2.8,3.6,5.7,1.2,9.3-.6.9-.5,2.4-.5,3.5.9,12.9,3.6,25.5,5.8,38.2.8,4.6,1,9.4,1.1,14.1.2,6.9,0,13.8-.2,20.6,0,2.2-.4,4.4-.9,6.5-2.5,10.6-5.1,21.2-7.8,31.7-2.5,9.7-6.8,18.8-12,27.3-2.4,4-2.8,7.6-1.6,11.9,3.4,13.2,6.8,26.4,9.9,39.6,2.8,12.2,4,24.7,4.1,37.3,0,5.1-1.9,9.4-5,12.9-3.3,3.7-8.4,4-13,3.9-3.5-.1-7-1.5-11.5-2.5h0Z"/>
    <g>
      <path class="cls-4" d="M432.5,25.5c-12.5,7.2-21.3,17.8-28.9,29.9,4.9.9,9.3,1.5,13.7,2.5,21.9,4.9,41.7,14.7,60.2,27.2,36.5,24.8,65.4,56.7,86.4,95.5,2.5,4.7,5.8,7.5,10.2,9.6,13.1,6.2,26.8,9.3,41.2,6.9,3.6-.6,6.9-2.5,10.4-3.8,1-.4,2.3-1,3.2-.7.5.1.8,1.8.9,2.8.2,3.7.4,7.4.4,11.2,0,2.3-.2,4.8-.9,7-5.2,17.7-15.3,32-29.4,43.9-12.9,10.9-27.5,17.6-43.9,20.5-16.9,2.9-32.1-1.7-45.4-12.2-6.7-5.2-12.7-11.4-18.8-17.3-4.3-4.2-8.4-8.7-14.1-10.8-7.1-2.7-13.5-1.5-19.1,3.9-6.6,6.4-11.9,13.8-15.9,22-6.4,13.2-12.1,26.8-18,40.2-6.8,15.4-13.6,30.7-20.2,46.1-6.5,15.2-16.6,27.9-28,39.6-5.6,5.8-10.7,12.2-17.7,16.5-.4.2-.5,1-1,1.2-.9.6-2,1.1-3,1.7-.5-1.1-1.2-2.1-1.3-3.2-.4-6.7.2-13.5-1.1-20-3.6-17.7-12.6-32.2-27.6-42.5-7.1-4.9-15.1-7.8-23.9-6-8.7,1.7-14.2,7.4-17.4,15.4-4.6,11.5-3.9,23.1-.4,34.7,4.2,13.8,11.9,25.4,22.5,35.1.8.7,1.4,1.7,2.3,2.8-6.4,2.2-12.1,5-18.1,6.1-36.6,7.2-67.7-2.5-91.6-31.7-9.6-11.8-14.2-25.7-13-41.1.3-3.4-1.7-5-3.4-7-8.4-10-14.7-21.2-19.4-33.3-5.5-14.4-8.6-29.4-9.6-44.8-2.8-43.9,9.1-84,32.3-120.8,25.2-40,59.4-69.8,103.5-87.6,22.2-8.9,45.2-13.5,69.2-12.3,2.5.1,3.7-.8,5-2.9,2.9-5,6.2-9.8,9.5-14.6,1.3-1.9,3-3.7,4.9-5.1,1.3-1,3.2-1.2,4.8-1.7-.2,1.4-.2,2.9-.6,4.3-1.6,5.5-3.4,10.9-5.1,16.3-.4,1.2-.3,2.5-.6,4.7,1.2-1.2,1.8-1.8,2.5-2.5,13.9-13.6,30.3-22.6,49.3-26.8,1.4-.3,2.9,0,4.3,0,.2.4.3.8.5,1.2h0Z"/>
      <path class="cls-4" d="M480.3,316.2c3.4,1.1,7,1.9,10.3,3.3,3.8,1.6,7.5,3.7,11.1,5.7,3.9,2.2,7.2,5.1,8.7,9.4,3.1,8.9,6,17.9,8.9,26.9.6,1.8.6,4,.2,5.9-.3,1.4-1.4,3.3-2.6,3.7-1.2.4-3.2-.4-4.3-1.4-1.5-1.4-2.7-3.2-3.6-5-3.1-6.2-6.6-12.4-8.9-19-3-8.6-8.5-14.6-16-19.2-2.3-1.4-4.6-3-6.9-4.3-1.5-.8-2.9-1.9-2.2-3.5.4-1,2.2-1.4,3.4-1.9.5-.2,1.3,0,1.9,0,0-.2.1-.4.2-.5h0Z"/>
    </g>
    <g>
      <path class="cls-2" d="M306.6,433.8c0,.9.3,1.8.2,2.6-1.5,11.7-2.7,23.5-4.7,35.1-1.9,10.8-.5,20.5,6.6,29.2,7,8.4,13.8,16.9,20.7,25.3,13.8,16.6,27.5,33.4,41.5,49.8,9.8,11.4,21.2,20.9,34.6,27.9,2.1,1.1,4.3,2,6.4,3,9.9,4.6,19.2,3.1,27.4-3.6,4-3.3,7.7-7.2,11-11.2,2.3-2.8,3.4-6.2,3.9-9.9,1.3-9.2,3.8-18.1,10.2-25.4,4-4.5,8.5-7.8,14.5-8.9,2.1-.4,4.2-1,6.3-1.6,2.7-.8,3.3-3,3.5-5.6.2-2.5-.9-4.2-3.1-5.2-2.3-1-4.9-1.4-7.1-2.6-3.8-2-7.7-4-11-6.8-4.3-3.6-4.8-8.1-2.5-13.3,4.7-10.6,16.8-15.5,28.5-11.5,4.5,1.5,8.8,3.3,13.3,4.8,1.3.5,2.8.6,4.1.9,1.8-6.2,3.5-12.1,5.4-18.6-4.2-2.3-8.9-5-13.7-7.6,3.8-1.3,6.6.4,9.4,1.7,7.4,3.6,15.1,5,23.2,5s5.8-1.3,7.8-4c3.5-5,5-10.7,4.6-16.5-.7-9.6-1.9-19.2-3.7-28.6-2.7-13.9-6.2-27.6-9.4-41.4,0-.4,0-.8-.2-1.1-3.5-4.6-1.1-8.8,1-13,7.7-15.5,13.7-31.6,17.9-48.4,3.5-13.7,4.3-27.6,3.1-41.7-.3-3.1-.6-6.1-.7-9.2,0-1.2.6-2.5.9-3.8,3.2.9,2.5,3.1,2.8,4.7,2.9,19.3,1.8,38.4-3.4,57.2-4.1,14.9-9.3,29.4-16.1,43.3-2.2,4.5-2.5,8.6-.8,13.5,6.7,20.3,9.8,41.3,11.7,62.5.5,6-.5,12.4-2,18.3-2.4,9.5-7.5,12.8-17.2,12.1-3.4-.2-6.8-.8-10.5-1.3-2.9,3.7-3.5,8.2-4.5,12.6-1.5,7.1-3.1,8.6-10.4,7.4-4.2-.7-8.4-2.1-12.5-3.6-4.6-1.7-9.1-2.4-13.8-.6-4.7,1.7-8,4.9-10,9.5-1.2,2.8-1,5.5,1.6,7.3,3,2,6.2,3.7,9.4,5.3,2.3,1.1,4.9,1.6,7,2.8,6.8,3.8,6.8,14.5,0,18.5-1.7,1-3.6,1.8-5.5,2.2-13.1,2.6-19.3,11.8-21.6,23.8-2.9,15.3-11,26.6-24.3,34.4-10.4,6-21,6.4-31.8,1.2-9.7-4.7-18.8-10.5-26.1-18.5-11.2-12.3-22.2-25-33-37.7-10.9-12.7-21.5-25.6-32.1-38.5-3.1-3.8-5.9-7.9-8.9-11.7-6.8-8.6-9.3-18.3-7.5-29.1,1.9-11.3,3.6-22.6,5.6-33.9.4-2.5,1.6-5,2.4-7.5.5.1.9.2,1.4.3h0Z"/>
      <path class="cls-2" d="M474.1,386.3c5.6-5.1,12.1-2.4,16.9-5.7-2.1-4.4-4.5-8.7-6.3-13.2-1.8-4.5-3.1-9.2-4.3-13.9-.3-1.1.9-2.5,1.4-3.7,1.1.7,2.8,1.1,3.3,2.1,7.1,13.1,16.6,24.6,25.2,36.7.4.6,1.1,1.2,1.1,1.8.2,1.3.4,2.9-.2,3.9-.4.6-2.3.7-3.4.5-6.5-1.4-13-2.9-19.6-4.3-3.2-.7-6.4-1-9.6-1.8-1.4-.3-2.6-1.3-4.7-2.4Z"/>
      <path class="cls-2" d="M331.7,401.5c-3.2,1.1-4-.9-4.9-2.7-1.3-2.4-2.2-5-3.8-7.2-3-4.3-7-6.8-12.6-5.6-1.5.3-3.1.4-3.5-1.5-.5-2,1-3.3,2.6-3.5,2.6-.2,5.4,0,8,.3,1.5.2,2.9,1.2,4.9,2.1-1.3-7.2-3.5-13.1-9.1-17.2-5.8-4.2-11.7-4.2-17.7-.2,0-3.8,1.7-6,5.4-6.9,3.8-.9,7.6-.8,11.2.9,5.6,2.7,10,6.5,12.5,12.3,3.7,8.5,5.8,17.5,7.2,26.7.1.7-.1,1.4-.2,2.3h0Z"/>
    </g>
    <path class="cls-5" d="M271,588.3s29.7,7.6,39.4,9.5,21.9,4.1,24.1,6,5.8,1.8,5.8,1.8l-3.3,12-71-23.6,4.9-5.8Z"/>
    <path class="cls-6" d="M435.6,850.5c-55.4,2.8-150.1-28.8-220.2-60.9-132.7-69.2-173.2-113.2-183.1-127.4-5-5.9-14.9-21.1-13.9-27.8,1.9-13.7,7-26.3,12.7-38.7,40.7-61.4,83.5-81.3,94.8-88.4,2.6-1.6,4.9-2.2,7.7-1.2,5.1,1.8,12.2,4.1,17.1,6.4,14.6,6.7,27.9,15.6,40.8,24.9,32.2,23.2,50.3,31.4,89.6,57.6,40.7,20.8,49.8,16.6,61.9,28.8,0,0,115.6,228.5,92.6,226.7Z"/>
    <g>
      <path class="cls-3" d="M386.5,632.8s-28.7-32-35.4-33.8c-6.8-1.8-10.7,7.2-10.7,7.2,0,0,46.1,26.6,46.1,26.6Z"/>
      <path class="cls-3" d="M385.6,634.8s45.3,18.4,60.6,66.4c15.3,48,20.9,59.8,46.9,94.8,5.1,23.9-46,62.2-57.4,54.4-19.4-13.2-22.8-36.2-57.9-59.4-23.8-15.8-40.5-31.5-61-62.3-11.9-9-55.2-15.1-61-19.6s-13.1-9.3-11.4-18.1c1.7-8.8,19.3-5.9,19.3-5.9,0,0,45.5,8.1,57.1,14.4,0,0,0-2.7,1.1-4.1,0,0-20.3-6.6-35.2-18.2-15-11.6-55.3-4.4-67.3-27.5s10.4-19.7,10.4-19.7c0,0-13.6-11.1-3.6-21.7,4.7-5.1,27.7,2.5,37.4,4.3,0,0-8.8-15.5.3-20.5,2.7-1.5,8.1-.8,15.2,1,7,1.8,15.8,4.5,25.2,7,13.7,3.7,30.3,5.4,35.3,8,5.1,2.7,46.1,26.6,46.1,26.6Z"/>
      <path class="cls-5" d="M340.6,664.5c-5.7-.9-14.5-5.4-14.5-5.4,0,0-17.8-14.8-25-17.6-3.2-1.9-27.6-1.7-28.7-1.6s-8.6-1.3-14.2-3.7-11.5-1.5-19.7-4.6c-8.1-3.2-16.6-1.4-12-1.8s19.1,5,21.5,5.2,8.5,1.2,10.4,2.8,9.8,3.6,21.3,4.2c11.4.7,9.6.4,16.9.1,7.2-.3,19.7,9.4,29.6,18.1,9.9,8.6,9.5,5.8,11,5.8,1.5,0,3.7-1.5,3.7-1.5h-.3Z"/>
      <path class="cls-5" d="M341.3,635.6c-4.3-3.3-30.2-15.3-31.3-16s-11.5-2.2-13.8-2.1c-2.3,0-32.9-5.5-32.9-5.5,2.8,2.3,38.5,6.9,45.3,9s34,19.1,36.2,20.7,15.2,5,12.3,3.6c-2.9-1.4,3.4-3.2,3.4-3.2,0,0-14.9-3.2-19.1-6.5Z"/>
    </g>
  </g>
</svg>