<?xml version="1.0" encoding="UTF-8"?>
<svg id="Livello_1" data-name="Livello 1" xmlns="http://www.w3.org/2000/svg" version="1.1" viewBox="0 0 76.5 76.5">
  <defs>
    <style>
      .cls-1 {
        fill: #68111a;
      }

      .cls-1, .cls-2, .cls-3, .cls-4, .cls-5, .cls-6, .cls-7, .cls-8, .cls-9, .cls-10, .cls-11, .cls-12, .cls-13 {
        stroke-width: 0px;
      }

      .cls-14 {
        fill: none;
        stroke: #afafaf;
        stroke-linecap: round;
        stroke-linejoin: round;
        stroke-width: .8px;
      }

      .cls-2 {
        fill: #ffe1d7;
      }

      .cls-3 {
        fill: #5f3f34;
      }

      .cls-4 {
        fill: #fbd4c3;
      }

      .cls-5 {
        fill: #e5b8a8;
      }

      .cls-6 {
        fill: #d19d8c;
      }

      .cls-7 {
        fill: #44271f;
      }

      .cls-8 {
        fill: #811920;
      }

      .cls-9 {
        fill: #4c0c15;
      }

      .cls-10 {
        fill: #d1363e;
      }

      .cls-11 {
        fill: #fff;
      }

      .cls-12 {
        fill: #a42d2f;
      }

      .cls-13 {
        fill: #221004;
      }
    </style>
  </defs>
  <path class="cls-11" d="M11,68.2v-1.5c.1-2.1.2-5.5.1-6.5-.1-1.1,0-2.6,0-3.5-1.7-2-1.8-4.1-2-5.8,0-.7-.1-1.4-.3-1.9,0-.3-2.3-7.7-1.6-10.8.5-2.5,3-3.6,4.4-3.8h.1s.1,0,.1,0c0,0,1.1,0,2.3,0s1.2,0,1.6,0c.5,0,1.1,0,1.7-.2,0,0,0,0,0-.1-.4-1.2-.3-2.1,0-2.8-.2-.2-.5-.5-.7-.8-.6-.7-1-2-.1-4-.1,0-.2-.2-.3-.3-.8-.9-.8-1.7-.7-2.2,0-.5.4-.9.7-1.2,0-.2,0-.5,0-.7.1-1.7,0-3-.2-4.4v-.2c-.3-2.1,1.3-3.5,2.3-4.5l.3-.3c.1-.1.3-.3.4-.5.8-.9,1.7-1.9,3.5-2,.4,0,.9-.2,1.3-.3.6-.2,1.2-.3,1.9-.3s.9.1,1.3.3c.1,0,.2,0,.4,0,1.5,0,3.3.5,4.5,1.3,1.4.9,2.4,2.9,3.3,4.7.2.4.4.7.5,1,.8,1.4.6,2.7.4,3.6,0,.4-.1.8-.1,1.2,0,1-.3,2.2-.5,3.3,0,.4-.2.9-.3,1.3,0,0,0,0,0,0,.3.3.4.7.4,1.1v.5l-.3.3c0,0,0,.2-.2.6-.1.3-.2.8-.4,1.3-.3.8-.7,2-1,3.1.8.5,1.4.7,1.8.8.4-.2.8-.3,1.2-.3.2,0,.4,0,.6,0,.8,0,1.7.1,2.5.3.8.1,1.5.3,2.1.3,1.5,0,2.9,1,3.9,1.9h0c.2.2.4.3.5.5h0c.7.7,1.3,2.1.2,4.7v.3h0c-.2,1-.6,3.2-1.7,5.7-.4.8-.6,1.6-.8,2.3-.4,1.1-.7,2.3-1.5,3.6v.2l-.2.2c-.1.4-.3,1.2-.8,2.9-.7,2.4-.2,8,0,10l.2,1.6H11Z"/>
  <g>
    <path class="cls-3" d="M18.9,25.2s-2.2,3-1.1,4.4,2.3,1.3,2.3,1.3c0,0-3.1-1.2-2-2.8s2.8-.5,2.4,1.2-2.6,2.1-1.8,4.3,3.2,1.7,3.2,1.7c0,0-3.3-.2-2.8-2.3s1.9-1.7,2.8-4.4,0-4,0-4l-3,.7Z"/>
    <path class="cls-8" d="M12.5,56.2s-.2,2.5,0,3.9,0,6.7,0,6.7h28s-.9-7.3,0-10.6l.9-3.3-25.9-1-2.9,4.3Z"/>
    <path class="cls-9" d="M18.1,60.4s2.6,2.3,4.6,1.8,2-.7,4.3,0,3.9.6,6.3-.7,4-4,4.1-2.2-.5,7.3-.5,7.3h2s-.6-7.7,0-9.2,2.4-4.6,2.4-4.6l-17.3-1.5-5.9,9Z"/>
    <path class="cls-1" d="M31.7,60.6s4.5-1.9,7.8-5.3,3-5.3,4.4-8.4,1.7-5.7,1.7-5.7l-13.8,19.5Z"/>
    <path class="cls-1" d="M35.5,57.5s3-4.1,4.6-7.4,4.1-6.7,5-8.2,1.4-3.5.7-4.2-2.5-2.5-4.6-1.1-9.3,9-9.3,9v10.6l3.7,1.2Z"/>
    <path class="cls-6" d="M22.7,33.9l-3.3,1.9s2.3,3,6.5,3.4,8.3-2,9.2-2.7,1.1-.9,1.1-.9c0,0-2.2-.2-4.6-2.4s-7.1-.7-8.9.6Z"/>
    <path class="cls-5" d="M24.9,16.9s-3.2.7-4.1,2.3-.6,4.2-.6,5.6,1.7,7.6,1.9,9,5,1.5,6.2,1.3,3-2.7,3.6-5.5,1.3-6.7-.4-9.2-1.8-3.7-6.7-3.6Z"/>
    <path class="cls-3" d="M24.7,17.2s-.4,1.3-1.6,1.7-2.3,1.5-2.6,2.4-.4,4.7-.4,4.7c0,0-1.9.2-2.7-.8s0-1.4,0-1.4c0,0-.6.4,0,.9s.3-.6.5-2.5,0-3.4-.2-4.9,1.3-2.7,2.2-3.6,1.6-2,3-2.1,3-1,3.8-.4-1,.1-1.3,2.2-.3,3.2-.6,3.9Z"/>
    <path class="cls-4" d="M24.9,36.2c-.2.5-.2,1.4-.2,2.3,0,.4,0,.8,0,1.2,0,.8.1,1.5.1,1.5h-.6c0,0,0-.1,0-.2,0,0,0-.1,0-.2,0,0,0,0,0-.1,0-.1,0-.2,0-.3,0,0,0-.2,0-.3,0-.1,0-.3,0-.4,0-.2,0-.4,0-.6,0,0,0-.1,0-.2,0-.2,0-.4,0-.6,0,0,0-.1,0-.2,0,0,0-.1,0-.2,0,0,0-.1,0-.2,0-.2,0-.4,0-.7h0c0,0,0-.2,0-.3,0,0,0,0,0-.1,0-.1,0-.3.1-.4.1-.3.3-.6.5-.9,1.1-1.4.4-4.5.4-5.4s0-.5.2-.9c-.2.8.4,3,.4,4.4s-.3,1.5-.8,2.6Z"/>
    <path class="cls-4" d="M29.1,26.4s0-.3-.2-.8c.1.3.2.6.2.8Z"/>
    <path class="cls-3" d="M20.5,23.5s1-1,2.1-1,1.7.7,2.7.7.3.7,0,.7-1.6-.7-2.6-.7-2.1.3-2.1.3Z"/>
    <path class="cls-3" d="M27.1,22.7s0,.5.2.7,1.7-.4,2.9-.2,1.5.7,1.5.7c0,0-.4-.9-1.3-1s-3.3-.6-3.2-.2Z"/>
    <path class="cls-13" d="M21.2,24.6s1.1.9,2.8.5l.3-.2s-2.1.4-3.1-.3Z"/>
    <path class="cls-13" d="M30.8,24.5s-1.1.9-2.8.5l-.3-.2s2.1.4,3.1-.3Z"/>
    <path class="cls-4" d="M26.8,24.5c0,.2,0,.3,0,.6-.1.5-.4,1.3-.7,2.1-.2.7-.5,1.3-.7,1.9,0,0,0,0,0,0,0,0,0,0,0,0-.1.4-.2.7-.2.9,0,.9.7,4-.4,5.4-.8,1.1-.8,2-.7,2.8,0,.3,0,.5,0,.8,0,.2,0,.4,0,.6,0,.5,0,1.1.1,1.3,0,0,0,.1,0,.2h0s-.6-.1-1.3-.3c-.1,0-.3,0-.4,0-.9-.2-1.9-.3-2.4,0,0,0,.4-2.7.4-4.3,0-.3,0-.6,0-.8,0-1.2-.6-5.1-.8-6.5-.3-1.4-.2-4.3-.2-5.5s-.4-2.8,0-2.9c.4,0,.9.2,1.1,1.1.2.8.2,3.7.2,3.7,0,0,.4-1.3.7-2.4.3-1.1,1-3.5,1.5-3.4.5,0,1,.2.8,1.2-.2,1-.6,3.4-1.1,4.8-.6,1.5-.4,1.4,0,1.2.3-.2.8-1,1.6-2.6.8-1.6,1-3,1.5-3,.4,0,.7.5.5,1.5-.2.9-2,4.8-2.4,5.6.4-.8,2.2-4.6,2.4-4.7.2,0,.5,0,.5.7Z"/>
    <path class="cls-7" d="M24.7,16.3s0,1.4.7,1.8,2,1.1,2.7,2.1.7,1.9.7,1.9c0,0,0-2.3-2.4-3.6,0,0-.6-.3-.6-.8s2.5.5,3.3,1.3,1,2.5,2.1,3.1.4,1.8.6,2.8.5,3.6.3,4.2.4,1.7.7.8,1.2-2.3,1.2-3.3.9-3.4.9-4.9.7-2.7-.1-4.3-2.1-4.3-3.4-5.2-3.8-1.4-4.9-.9-2.1.4-1.7,4.9Z"/>
    <path class="cls-8" d="M20.7,36.5c0,1.6-.4,4.3-.4,4.3,0,0-1,.7-1.6,3.3-.5,2.6-2.9,5.6-3.2,7.9s.5-3.2-1.9-6.2c-2.4-2.9-.3-2.7,1.2-1.8,1.4.9,1.2-.2-2.5-2.9-3.7-2.7.4-3.5,2.5-1.7,2.1,1.8,2.2,2.1,2.2,2.1,0,0-.4-5.8-5.2-5.8,0,0,2.6,0,3.9,0,1.3,0,3.3-.4,3.4-.4,0,0,.4.1,1,.7.1.1.3.3.6.5Z"/>
    <path class="cls-8" d="M24.8,39.8c0-.4,0-.8,0-1.2.3,0,.5.2.8.2,1.7.4.5.9-.7,1Z"/>
    <path class="cls-8" d="M25.5,38.8s2.6,0,5.1-.6,5-2.9,6.5-3.1,3.4.5,5.1.5,3.5,2.1,3.5,2.1c0,0-2-2.4-4-1s-4.8,4.6-6.1,6.3-10.3,9.8-10.3,9.8l-.6-14.3.8.2Z"/>
    <path class="cls-5" d="M30.6,39.1l1.3.2s-.4-3.2,0-4.5,1.2-3.8,1.6-5.2.7-2.1.8-2.3-.9-.3-1.3.3-.7,1.5-.7,1.5l-.3-.8-1.7-.6-1.5,1.9v7l1.8,2.3Z"/>
    <path class="cls-4" d="M31.9,21.1c-.7,0-.9,1.3-1,2.6,0,1.3-.4,3.7-.4,3.7,0,0-.2-1.2-.2-2.3,0-1.2-1.1-3.6-1.2-4.5,0-.9-.9-.8-1.1-.4s0,.6,0,1.7c0,.8.5,2.6.8,3.7-.3-.9-.8-2.1-1-3.1-.4-1.4-.9-1.5-1.1-1.2-.2.3,0,.7,0,1.5,0,.8.8,5.8.8,5.9,0,0,0,0,0,0,0-.5-.7-4-.7-4h0c0,.2,0,.4,0,.6-.1.5-.4,1.3-.7,2.1,0,1,0,2.6,0,4.1-.1,2.5,0,3.2.5,4.6.5,1.3.3,4.6.4,4.5,1.3-1.3,3.6-1.2,3.6-1.2,0,0,0-1.1-.2-2-.2-.9-1.3-2-1-2.9.4-.8.7-4.4.8-5.1,0-.7.7-.8,1.1-.3.4.5.5.7.7-.4.2-1.2.3-3.7.4-4.8.1-1.2,0-2.5-.6-2.5ZM28.9,25.6c.1.3.2.6.2.8,0,0,0-.3-.2-.8Z"/>
    <path class="cls-12" d="M26.3,42.2c0-.1-.6-1.6.9-2.6s4.3-1.1,5.4-.2.6,6.3.7,7.4,1.1,3.3,1.5,5.2-1.7,4.1-1.5,4,1.9-1.7,2.3-3.1,1,1.5.7,3.1-2.6,4-4.6,4.6-4,2-5-.6-2.1-11.7-1.7-13.9,1.4-4,1.4-4Z"/>
    <path class="cls-10" d="M27.7,42.8s-.6,2.6-1.5,5.4c0,0,0,0,0,0,0,0,0,0,0,0-.6,2.2-1.4,4.4-2,5.8-1.4,3-4.9,3.5-2.4,3.4,2.4,0,3.4-3.6,3-1.7,0,0,0,0,0,0,0,0,0,0,0,0,0,0,0,0,0,0s0,0,0,0c0,0,0,0,0,0-.5,2.2-1.3,5.1-3,5.6-1.7.5-4.9-1.6-8.5-4.5-3.6-2.9-2.5-6.1-3.2-8.5-.7-2.4-2.1-7.9-1.6-10.2.4-2.2,3.2-2.7,3.2-2.7,4.7,0,5.2,5.8,5.2,5.8,0,0-.2-.4-2.2-2.1-2.1-1.8-6.2-1-2.5,1.7,3.7,2.7,3.9,3.8,2.5,2.9-1.4-.9-3.6-1.2-1.2,1.8,2.4,2.9,1.5,8.4,1.9,6.2s2.7-5.3,3.2-7.9c.5-2.6,1.6-3.3,1.6-3.3.9,0,1.7,0,2.4,0,.1,0,.3,0,.4,0,.5,0,.9.1,1.3.2,3,.5,3.4,1.7,3.4,1.7Z"/>
    <path class="cls-12" d="M26.3,48.2c0,.2-.4,1.3-.6,3-.2,1.6-.7,3.9-.8,4.5.4-1.9-.6,1.6-3,1.7-2.5,0,1-.4,2.4-3.4.6-1.3,1.4-3.6,2-5.8Z"/>
    <path class="cls-4" d="M33.5,28.3s.2-1,.5-1.1.5-.1.4,0-.3,1-.3,1c0,0-.4.2-.6,0Z"/>
    <path class="cls-2" d="M31.4,22.5s0-1.1.3-1.3.7,0,.7.4,0,.9,0,.9h-1Z"/>
    <path class="cls-2" d="M28.2,20.9c0,0-.2-.6,0-.8s.5-.2.6,0,.1.7.1.7h-.7Z"/>
    <path class="cls-2" d="M26.8,22c0,0-.2-.5,0-.8s.4-.1.6,0,.1.6.1.6l-.6.2Z"/>
    <path class="cls-2" d="M26,24.5c0,0,.1-.5.3-.7s.4,0,.4.3-.2.5-.2.5l-.5-.2Z"/>
    <path class="cls-2" d="M25.4,22.3s.2-1,.3-1,.7,0,.6.5-.2.7-.2.7c0,0-.5-.1-.7,0Z"/>
    <path class="cls-2" d="M22.7,20.6s.3-.7.4-.9.8,0,.7.4-.2.7-.2.7c0,0-.7-.3-.9-.3Z"/>
    <path class="cls-2" d="M19.5,22s.3,0,.5-.2,0-.9,0-.9c0,0-.5-.4-.5,0s0,1,0,1Z"/>
  </g>
  <g>
    <path class="cls-11" d="M69.2,25.5c0,.6-.5,1.1-1.1,1.1h-14.7v-2.3h14.7c.6,0,1.1.5,1.1,1.1Z"/>
    <line class="cls-14" x1="68.1" y1="25.5" x2="53.3" y2="25.5"/>
    <path class="cls-11" d="M54.5,31c0,.6-.5,1.1-1.1,1.1-2.1,0-3.9-1.7-3.9-3.9s1.7-3.9,3.9-3.9v2.3c-.9,0-1.6.7-1.6,1.6s.7,1.6,1.6,1.6,1.1.5,1.1,1.1Z"/>
    <path class="cls-14" d="M53.3,31c-1.5,0-2.7-1.2-2.7-2.7s1.2-2.7,2.7-2.7"/>
  </g>
  <g>
    <path class="cls-11" d="M69.3,17.3c0-.6-.5-1.1-1.1-1.1h-14.7v2.3h14.7c.6,0,1.1-.5,1.1-1.1Z"/>
    <line class="cls-14" x1="68.2" y1="17.3" x2="53.4" y2="17.3"/>
    <path class="cls-11" d="M54.6,11.8c0-.6-.5-1.1-1.1-1.1-2.1,0-3.9,1.7-3.9,3.9s1.7,3.9,3.9,3.9v-2.3c-.9,0-1.6-.7-1.6-1.6s.7-1.6,1.6-1.6,1.1-.5,1.1-1.1Z"/>
    <path class="cls-14" d="M53.4,11.8c-1.5,0-2.7,1.2-2.7,2.7s1.2,2.7,2.7,2.7"/>
  </g>
  <g>
    <path class="cls-11" d="M62,21.2c0-.6-.5-1.1-1.1-1.1h-14.7v2.3h14.7c.6,0,1.1-.5,1.1-1.1Z"/>
    <line class="cls-14" x1="60.8" y1="21.2" x2="46.1" y2="21.2"/>
    <path class="cls-11" d="M47.2,15.7c0-.6-.5-1.1-1.1-1.1-2.1,0-3.9,1.7-3.9,3.9s1.7,3.9,3.9,3.9v-2.3c-.9,0-1.6-.7-1.6-1.6s.7-1.6,1.6-1.6,1.1-.5,1.1-1.1Z"/>
    <path class="cls-14" d="M46.1,15.7c-1.5,0-2.7,1.2-2.7,2.7s1.2,2.7,2.7,2.7"/>
  </g>
</svg>