<?xml version="1.0" encoding="UTF-8"?>
<svg id="Livello_1" data-name="Livello 1" xmlns="http://www.w3.org/2000/svg" xmlns:xlink="http://www.w3.org/1999/xlink" version="1.1" viewBox="0 0 327.8 227">
  <defs>
    <style>
      .cls-1 {
        filter: url(#drop-shadow-2);
      }

      .cls-2 {
        filter: url(#drop-shadow-1);
      }

      .cls-3 {
        filter: url(#drop-shadow-3);
      }

      .cls-3, .cls-4, .cls-5 {
        fill: #fff;
        stroke-width: 0px;
      }

      .cls-4 {
        filter: url(#drop-shadow-4);
      }
    </style>
    <filter id="drop-shadow-1" filterUnits="userSpaceOnUse">
      <feOffset dx=".4" dy=".4"/>
      <feGaussianBlur result="blur" stdDeviation="3.1"/>
      <feFlood flood-color="#8c8b8b" flood-opacity=".3"/>
      <feComposite in2="blur" operator="in"/>
      <feComposite in="SourceGraphic"/>
    </filter>
    <filter id="drop-shadow-2" filterUnits="userSpaceOnUse">
      <feOffset dx=".6" dy=".6"/>
      <feGaussianBlur result="blur-2" stdDeviation="4.3"/>
      <feFlood flood-color="#8c8b8b" flood-opacity=".3"/>
      <feComposite in2="blur-2" operator="in"/>
      <feComposite in="SourceGraphic"/>
    </filter>
    <filter id="drop-shadow-3" filterUnits="userSpaceOnUse">
      <feOffset dx=".6" dy=".6"/>
      <feGaussianBlur result="blur-3" stdDeviation="4.9"/>
      <feFlood flood-color="#8c8b8b" flood-opacity=".3"/>
      <feComposite in2="blur-3" operator="in"/>
      <feComposite in="SourceGraphic"/>
    </filter>
    <filter id="drop-shadow-4" filterUnits="userSpaceOnUse">
      <feOffset dx="1" dy="1"/>
      <feGaussianBlur result="blur-4" stdDeviation="7.4"/>
      <feFlood flood-color="#8c8b8b" flood-opacity=".3"/>
      <feComposite in2="blur-4" operator="in"/>
      <feComposite in="SourceGraphic"/>
    </filter>
  </defs>
  <g class="cls-2">
    <path class="cls-5" d="M49.7,175.8c0,.1-.2.3-.3.4,0,0,0,0,0-.1.1-.1.2-.2.4-.3ZM71.6,185.8s0,0,0,0c0,0,0,0,0,0,0,0,0,0,0,0ZM67.3,188.9c0-.2,0-.3.2-.4,0,0,0,0,0,0,0,0,0,0,0,0,0,0,0,0,0,0,0,0,0,0,0,0,0,0-.1.2-.2.3,0,0,0,0-.1.1ZM67.2,189.1c0,0,0-.2,0-.3,0,0,0,.2,0,.3,0,0,0,0,0,0Z"/>
    <path class="cls-5" d="M71.1,188.1c0,0,.1,0,.2,0,0,0-.1,0-.2,0Z"/>
    <path class="cls-5" d="M66.7,189c0,0,0,.1,0,.2,0,0,0-.1,0-.2Z"/>
    <path class="cls-5" d="M66.9,188.8c0,0,0,.2-.1.3,0,0,0-.2.1-.3Z"/>
  </g>
  <g class="cls-1">
    <path class="cls-5" d="M41.9,189.4s0,0,0,0c0,0,0,0,0,0,0,0,0,0,0,0,0,0,0,0,0,0,0,0,0,0,0,0,0,0,0,0,0,0,0,0,0,0,0,0,0,0,0,0,0,0,0,0,0,0,0,0,0,0,0,0,.1.2,0,0,0,0,0,0,0,0,0,0,0,0Z"/>
  </g>
  <path class="cls-5" d="M231.8,166.1c-1.1.7-1.9,1.4-1.9,1.4,0,0,.9-.5,1.9-1.4Z"/>
  <path class="cls-3" d="M158,17.8h0c.7.1,1.3.4,2,.7-.5-1.2-1.8-1.2-2.7-1.7.5.1,1.2.2,1.7.3v-.2c-3.6-1-7.3-2-10.9-2.9v-.2c1.4.1,2.7.3,4.1.4h0c-1.4-.4-2.9-.9-4.2-1.2.3,0,.9-.2,1.3-.3v-.2c-2.5,0-5-.8-7.3,1l-.2-.2c.7-.5,1.2-1.1,2-1.7-1.8.8-3.3,2-4,3.8,0-.8,0-1.5.1-2.3-.3.5-.5,1-1,1.5-.2-.4-.3-.7-.5-1-.4.8,0,1.7-1,2.4v1.3h-5.2c-2.3.1-4.6.4-6.9.5-.8,0-1.3-.2-1.4-1.1-.1-1-.4-2-.7-2.8h-.2v1.3c-.8-1.1-1.5-2.3-2.4-3.4,0,0-.1,0-.2.1.1.4.2.9.3,1.3,0,.4,0,.9.1,1.4-1-1.2-2-2.2-2.9-3.3h-.2c.4.9.8,1.6,1.2,2.3h-.1c-.9-.8-1.7-1.4-2.5-2.2h-.1c.3.5.8,1.1,1.1,1.5-1.4-1.1-2.8-2.1-4.8-2.4,1,.5,1.7.9,2.5,1.3h0l-3.2-.7v.2c.3,0,.7.2,1,.3h0c-1,.2-2.1.4-3.2.7.3,0,.5.1.8.2-2.5,1-5,2-7.6,3v.2h1.3v.2c-.9.2-1.6.4-2.7.8.8,0,1.4.2,2,.2h0c-.3.1-.7.3-1.2.4,1.1.2,1.3.8,1,1.5-.2.3-.4.8-.7,1.1l-.2.2s-1,1.5-1.3,2c-.2.2,0,.5.3.8v.2c.2.3,1,.4,1.5.5.4,0,.9,0,1.2-.3,1.3-.8,2.4,0,3.6.4-.3,0-.8,0-1.1-.1h0c.5.4,1.1.8,1.7,1.1h0c-.7,0-1.3-.2-2.1-.3.4.3.7.5,1.2,1-.5-.1-.8-.2-1.1-.2.4.9.9,1.6,1.3,2.3h-.7v.2c.5.2,1.2.4,1.8.7-.4,0-.9.1-1.5.3,1,.3,1.7.5,2.4.8-1,1.3-1.8,2.5-2.7,3.7l.2.2c.3-.3.8-.7,1.1-1h0c-.2.4-.4.8-.9,1.3.5-.2.9-.4,1.1-.5-.3,1-.7,1.8-1,2.7h.1c.4-.5,1-1.1,1.4-1.5h0c-.2.7-.5,1.2-.8,1.8h.2c.2-.3.4-.5.7-.9-.4,2.3-1.2,4.2-3.7,5,2.1-.1,3.2-1.5,3.9-3.4,0,0,.2.1.3.2-.5,1.3-1,2.5-1.5,3.6,0,0,.4-.3.8-.7-.2,1.6-1.1,2.6-2.4,3.4,0,0,.1.1.2.2.8-.7,1.5-1.4,2.3-2.1-.1,1.4-.8,2.5-1.8,3.5-5.2,4.5-11.4,7-17.6,9.5-.3.1-.7.2-1,.2-2.2.2-4.2.5-6.4.7-7.7.4-15.4-.3-23.1-1.4-10.7-1.5-20.9.2-30.7,4.4-.2,0-.3.2-.7.4.9-.1,1.5-.2,2.5-.4-.5.3-.8.5-1.1.7-2.9,1.8-5.3,4.2-7.1,7.3-2.2,3.7-3.2,7.7-3.6,11.9,0,.8-.3,1.2-1.1,1.6-1,.5-2,1.2-2.9,2-1,.8-2,1.6-2.8,2.5h.1c1.6-.7,3.3-1.4,5.1-2.3-1.6,1.5-3.2,2.8-4.5,4.2-1.4,1.6-2.4,3.9-2.5,5.1,1.3-2.3,2.6-3.6,3.9-3.9-2.4,2.6-3.6,4.7-3.6,6.1.3-.4.7-1,1-1.4h.1c-.4,1.1-.9,2.3-1.4,3.4h.1c.4-.7.9-1.3,1.3-2.1-2.2,4.2-3.4,8.7-3.6,13.5.7-1.5,1.2-3,2-4.6.9-1.8,2.3-3.3,3-3.7-3.3,5.3-5,10-4.7,12.8.9-3.5,2.2-6.5,4.7-9.1-2.7,3.9-3.8,8.4-3.9,12.7.9-2.1,1.8-4.4,2.8-6.6.1,0,.2,0,.4.1-1.5,3.4-2.7,6.9-2.9,10.6-.3,3.6,1.2,8.6,2.7,10-.7-1.8-1.5-4-2.3-6.2,0,0,.2,0,.3-.1,1.4,2.7,4.1,4.7,4.5,8.1.1,0,.2-.1.4-.2-.7-1.8-1.2-3.8-1.8-5.7,2.3,2.1,3.5,4.7,4.1,7.6,0,0,.2,0,.3-.1-.5-2.2-1.1-4.4-1.7-6.9,1.1,1.5,2.1,2.8,3,4.1,0,0,0-.2.1-.3,0,.1.1.2.3.4v-3.3h.1c0,.4.2.8.3,1.2.2-.5.3-1,.5-1.4.3,3.2-1,5.7-2.9,7.8-1.1,1.3-1.4,2.5-1,4.1.8,2.9,1,5.9,1,8.8s0,4.5.2,6.6c0,.3.2.7.3,1v1.7h0c-.2,1.7-.5,4.5-.5,5.3,0,1.3.7,3.7.7,3.7h0c-.3.5-.7,1.1-.7,1.6s.3,1.3,1.1,1.6c2.8,1,5.7,1.7,8.6,1.5.9,0,1.7-.1,2.5-.3h.2c.4,0,.8-.2,1.2-.3,1.5-.5,2.1-2.3,1.3-3.7,0-.7,0-1.3-.3-1.6h0c-.3-.9-1-2.1-1.3-2.5-.7-.8-1.7-1.2-2.4-1.3,0,0-1.6-.3-2.1-1.6-.3-.9-.7-3.2-.8-4.5h0c-1-8.1,0-15.7,3.9-22.6,0,1-.2,2.1,0,3,1.2,4.2,2.4,8.4,3.7,12.6,1,3,1,6.5,3.2,9.2v.3c0,2,3.5,3.6,8.1,2.8,1.6,0,3.2,0,4.8-.2.7,0,2.2-.7,2-1.4v-.5c0-.5.1-1.1,0-1.5-.9-3-2.8-5.2-6.3-4.9h-.5c-.7-.2-1.4-.4-1.8-.9-.5-.5-1-1.3-1.2-2.1-.8-2.6-1.5-5.1-2-7.7-.8-4.5-.3-8.7,2.7-12.3,2.3-2.7,4.8-5.3,7.2-7.9,2.3-2.5,4.7-4.9,6.9-7.5,1.3-1.5,2.1-3.4,2.2-5.4h0s0-.2.1-.4v2.3c0,1,.9-.5.9-.5,0,0,.5-2.5.8-3.9h.1c.2.5-.2,3.6-.2,3.6,0,0,1.3-2.4,2.3-3.8,1-1.5,1.3-1.8,1.3-1.8,0,0-.2,2.3-.3,2.8,0,.5,0,1.7.2,1.4.3-.3.7-2.6,1-3.6s.3-1.1.8-.4,1.2,2.8,1.2,2.8l.5-.4h0c0,1.1.2,2.2.3,3.2.5-1.4.4-2.8,0-4.1,0-.3.2-.5.4-.8.5-.5.2-.8,0-1.3v-.9c.4,1.1,1,2.1,1.4,3.2,0-.7-.1-1.4-.2-2.1h0c.2,2.3.5,4.9,1,6,.9,2.3-.7,4.1-.7,4.1l4-3.7c-.2,1.5-.3,2.6,0,2.3.7-.7,1.1-1.5,1.3-2.3.4.7,1.1,1.5,1.2,2.3,0,.3-.1.7-.2,1.1,0-.2.1-.3.2-.5,0,.2,0,.4-.2.5-1.1,1,.8,1.8.8,1.8l3.7-4.6-1.7,7s.4-.3,1.2-.8h0c0,.1,0,0,.2-.1,2.9-1.7,10.1-6,10-4.6,0,1.8-3.2,6.2-3.2,6.2,0,0,3.3-3.6,3.8-2.8.5.8-2,6.1-2,6.1,0,0,2.5-3.3,3.6-2.2,1.1,1.1-1.2,3.5-1.2,3.5l5.2-4.5h.3c-.3.4-.7,1.1-1,1.7-.8,1.3-1.7,2.4-2.7,3.2,1.4-1,3.3-2.3,3.9-2.5,1.1-.4-3.8,4.5-3.8,4.5,0,0,2-.8,2.3-.5.3.1-1.8,1.4-2.9,1.6-1.1.2-2.4,1.7-2.4,1.7,0,0,4.5-1,6.6-.9,2.2,0,.8.5-.5,1s-4.7,3.2-4.7,3.2c0,0,2.5-1,3.2-.8.7.2-1.4,1.5-1.4,1.5,0,0,.7,0,1.1-.3s3.8-.7,5.4,0c.4.2.9.3,1.3.3-.7.2-1.2.4-1.4.4-.8.1-5.2,1.1-5.2,1.1,0,0,1.8,0,2.1.3s-.8.7-1.4,1c-.7.3-2.8,1.7-2.8,1.7,0,0,2.1-.4,3.7-.7,1.6-.2,2.9,0,3.7,0s.2.5-.3.7c-.5,0-2.1.8-2.1.8,0,0,1.3,0,2.8.5,1.5.4,2.6,2.2,2.5,2.6,0,.4-1-.7-1.6-.9-.5-.2-2.1-.3-2.1-.3.5,0,3.3,1.2,3.4,1.6,0,.4,0,0-1,0s-4,.8-4,.8h3c.7,0,2,.9,1.8,1.3,0,.4-1.7.2-3.2.4-1.4.2-3.2,1.3-3.2,1.3,0,0,1.5,0,2.4-.1.9,0,3,.7,3,.7,0,0,.5,2.1.2,2.5-.8.4-1.6,1-1.6,1l.5.8-2.3,1.8,2.4.3,2-1-1.2,3.3,2-1.8s-.2.1-.2.2c0,0,.3-.3.5-.8l-.3.5s-.2,1-.5,1.4c-.2.5-.4,2.2-.4,2.2,0,0,.2-.3.3-.7.1-.3.8-.9,1-1.1.2-.2-.4,1.3-.9,2-.4.5-2.1,2.3-2.1,2.3,0,0,.8-.4,2-1.4,1.1-1.1,2.1-2.7,2.1-2.7,0,0-.7,4.7-.8,5.4s-1.8,3.3-1.5,3.3,1.7-2.5,2.2-2.4c.1,0,.2.3.1.8s-.4.9-.8,1c-.9.3,0,0,.4-.1,0,0,.2,0,.3-.1-.1,1.1-.4,2.4-.4,2.4,0,0,.7-.9.7-1.1s.2-1.1.3-1.7c.1-.1.3-.3.4-.5.1-.1.2-.3.3-.5,0,0,.2,1,.2,1.5s.5,6.5.5,7.2.4,2.3.5,2.9c-.7,1-.5,2.2.2,2.8,2.7,1,3.8,1,6.1,1.3h0c.3,0,.7.1,1.2.2,2.2.3,4.1.1,6.1-.4.3,0,.5-.2.8-.3h0s.1,0,.2-.1c1-.8,1.1-2,0-3.2-.4-.8-1.7-3.3-2.2-4s-2.3-1.6-2.6-2c-.3-.2-1.6-2.9-1.8-3.6s-1.6-7.6-2-8.9c-.1-.8-.3-4.6-.5-7.9h0c-.3-9-.8-17.9-1.1-27h.3c.7.5.9,1.4.7,2.2-.1.9-.4,1.6-.7,2.7.5-.8.9-1.2,1.3-1.8.8,2.1,0,3.8-.7,5.9.7-.8,1.2-1.4,1.7-2,0,.1.1.3.2.4v3.6c-.3,1.1-1,4.1-1.1,5.1-.1.9-.2,1.7-.2,1.7,0,0,1-2.4,1.2-1.8s-.8,4.8-.8,4.8c0,0,.8-1.7,1-1.3.3.3-.9,1.8-.8,2.3v1.8c0,.4-.2,1.8-.3,2.2-.1.3,1.2-.8,1.7-1.2.4-.4,1.2-1.5,1.2-.9s-2.8,4.2-3.3,4.7c-.4.5,0,1.3,0,1.3,0,0,1.4-2.3,1.5-2s-.2,1.8-.4,2.2c-.1.3-.4,2.6-.4,2.6,0,0,2.3-2.8,2.5-2.6.3.3-1,2.4-1.1,2.6s0,3.2.1,4c0,.9.2,1.2.7.8.4-.4,1.5-3.3,1.5-3.3,0,0,.3,1.4,0,2.5s-.3,2.2-.3,2.2c0,0,.5-1.5.8-1.4.2.1,1.5,3.5,1.5,3.5h0c.4,1.7.9,3.5,1.3,5.2,0,.9,2.4,1.8,4.4,2.6,1.2,2-.3,1.8,4,1.3.5,0,4.8-3-1.7-10.6-.5-.6-1.7-5.1-1.8-5.4s-.9-6.6-.9-7.4c.1,1.2.3,2.3.4,3.5.1-.3.2-.7.1-.9,0-3.3-.3-6.5-.2-9.8.3-8.7,1.1-17.3,2.3-25.9,0-.4.3-1,.7-1.4.4-.4,1-.9,1.5-1.4h0c.1,0,.2-.2.3-.3h0l.3-.3h.1c.3,0,.4.2.5.3,0-.3,0-.8.1-1.2h0c.1-.1.2-.3.4-.4h0c.3-.3.8-.9,1-1.3.3.8,0,2.1,0,2.1l.9-2.5v.5s0,.8.2.5.9-2.9,1.1-3.3.3-.4.3,0,.1,3.2.2,3.3c0,.2.2,1.1.3.7,0-.3,0-3.8.2-4.9.3-1.1,1.5-2.9,1.7-3.2.2-.2.4-.7.4-.9v-.4c.2-.2.3-.5.4-.7.4-1.2.5,1.6.5,1.6,0,0,.3-1.5.7-2.8.3,1.2.4,2.7.5,3,.2.3,0-1.7,0-1.7,0,0,0-1.3-.2-2.4.1-.3.2-.7.3-.7.3-.2,1.1.8,1.1.8,0,0-1.2-3.3-1.1-4.1s.7,2,.7,2c0,0-.4-3.7-.2-4.4,0-.4.9.9,1.4,1.7-.7-1.2-1.7-3.4-.7-3.6,1.4-.2,3.2,1.5,3.2,1.5l-.4-1.8c1.5.3,2,1.8,2,1.8.1-1.2-1.3-2.1-1.3-2.1.5-.2,1.6-.4,2.5,0s1.4,1.6,1.4,1.4,0-.5-.2-1.1v-.2s0-.2-.2-.3c-.3-.9-.7-1.8-.7-1.8,0,0,0-2.1.8-2,.8,0,1.3,4.1,1.3,4.1,0,0,0-1.6-.7-3.5s.2-2.6,0-2.9c-.2-.4,1.3-5.5,1.3-5s.2,2.7.5,1.3c.2-1.3-.4-4.1,0-4.7.3-.4.8,1,1,1.6-.2-.9-1-3.2-1-3.2-.3-1.2-.8-6.3-1-9.7h0c.1.9.3,1.8.4,2.7.2.9.4,1.8.7,2.7.2.9.5,1.7.8,2.6-.7-3.6-.5-7.1.3-10.7,0,1,.2,2,.3,3h.2v-8.6c.3.5.8,1.3,1.1,1.7-.3-1.4-.9-2.9-1-4.6-.2-2.5-.2-5.1-.2-7.6,1.1,1.6,1.1,3.5.9,5.3.9-2.7,1.7-5.5-.9-8.1,2.8,1.5,3.5,1.8,4.9,1.3-.8-.3-1.4-.7-2.2-1v-.2h1.3c-.9-.5-1.8-1-2.8-1.5v-.3c1,.3,1.8.5,2.6.9-.7-.8-1.4-1.5-2-2.3s-.9-1.6-1.3-2.5c1,0,1.8.2,2.8.3-1.3-.8-2.6-1.4-3.6-2.7.8,0,1.5,0,2.3.1v-.2c-.4-.2-.9-.3-1.3-.5.8-.3,1.5-.7,2.3-.9-.9,0-1.6-.2-2.5-.3.7-.4,1-.8,1.4-1.1.4-.3.8-.5,1.3-1,.2.2.3.4.5.7,1,.9,2.3,1.3,3,.8,1-.8.8-1.8.7-2.8-.2-1.8-.3-3.7-.5-5.7h1.2c-.5-.5-1-1.1-1.5-1.5v-.2ZM24.1,147.9v-1.7,1.7ZM43.1,157.4c-.7,0,.2.8.1.9-.1-.1-.9-1.2-.1-.9ZM102.7,141.1h0ZM125.8,110.7v-.3.3h0ZM139.3,49.9s0-.1.1-.2h0s-.1.1-.1.2ZM140.3,47.1h0Z"/>
  <path class="cls-4" d="M320.4,81c-.1-.5-.4-.7-.7-.8-2.5-2-10.7-5.9-10.7-5.9,0,0-4-3.5-4.8-4.1-.7-.6-1.9-4.1-2.9-5.4-.6-.9-5.8-4.6-9.3-7.1l-.2-4.8-1-7.2c-1-6.2-6.1,4.9-7.8,8.9,0,0,0,0,0,0v-.5s-4.7-10.5-4.7-10.5c0,0,0,0,0,0,.7,1.3.5.8,0,0,0,0,0-.2-.6-1.2-1.7-2.7-3.6,1.7-3.6,1.7l-6,14.2s0,0,0,0c-.6.7-1.3,1.5-1.9,2.4-5.6,8-17.2,25.2-21,28.7-7.4,6.7-21,6.7-21,6.7l-25.5,2.6-29.9,2.5s-12.8,3.8-17.2,7.3c-1.9,1.5-3.1,2.9-4.2,4.4l-9.5,6.1-5.4,6-1.3,1.9-5.7,3.8-1.9,1.9-2.9,2.5s-10.5,9.9-10.8,10.8c-.3,1,.6,1.6.6,1.6,0,0-4.1,3.8-5.1,4.8-1,1-7.6,9.6-7.6,9.6l-8,11.1-3.9,10h0s-.8,2.1-.8,2.1l-1.3,15h0c0,.4,0,1.2,0,1.9h0s0,.3.2.6c.2.4.5.8,1,.9,0,0,0,0,.2,0,0,0,0,0,.1,0,.4,0,7-1,7.9-1.6,1-.6,14.3-2.9,14.3-2.9l10.5-8.3s12.7-13.7,13.1-14.6c.3-1,5.4-5.7,5.7-6.7.3-1,3.5-2.9,3.5-4.1s.6-11.5.6-11.5l2.7-9.5.8,3.2s4,10.5,4.5,15.3c.3,3.8-.5,7-.8,8.1v-.2c0,0-.2.7-.2.7,0,0-7.6,5.9-7.6,9.6s4.8,16.9,4.8,16.9l.6,12.1,2.2,1.9s4.4,4.5,5.1,4.5h8l3.2-.3s1.1-4.1-1-5.7l-1.1-.9c-.5-.4-.9-.7-1.3-1l-.7-.6c-.2-.1-.3-.2-.4-.3h-.1c0-.1-3.8-1.4-3.8-1.4l-.5-4.3h0s-1.7-15.4-1.7-15.4l3.8-3.5,14.3-7.3s1-.7,2.4-1.7c-.5,1.8-1.1,3.3-1.7,3.6-1.8,1-3.8,1.3-5.4,2.9-1.6,1.6-1.3,4.5-1.3,4.5l5.1,9.2,3.5,6.7.3,3.2,1.6,1.9.6,4.5,5.4.3h8.3l.6-2.5s-1.7-3.4-3.2-3.8l-.9-.2c-.2,0-.4-.1-.7-.2h-.5c-.3-.2-.5-.3-.8-.4l-.7-.2-1.3-1.3-4.1-8.9-1-6.4.6-2.3s0,0,0-.2l.3-1.1,5.4-4.5,6.1-6.7s3.8-5.9,3.8-9.9-.3-8.4-.5-11.5l17.7,2.6,17.2.3,9.6-2.2,4.1,3.2.3,2.1h0s2.9,22.8,2.9,22.8l2.2,6.5.7,7.2.6,7.3,3.2,12.1,2.4.2h0s10.1,1,10.1,1l1.6-1.3-2.9-5.4-4.1-1-2.2-7.3.6-4.1v-2.4c.1,0,2.2,8.2,2.2,8.2l4.1,4.1,8.3.3.3-3.2-2.9-3.5-4.1-1.6-2.2-8.3.3-8,1.3-14.6.4-5.5h0s.9-10.7.9-10.7l4.7-5.8s3.1-2.6,6.3-8.3c3.2-5.7,10.7-38.5,11.5-40.1,1-1.8,4-4.1,5.8-4.9,1.8-.9,5.1-.8,8.2-.8,2.5,0,8.3,1,9.3,1,.9,0,4.8-2.5,5.6-3.7.6-.9.9-1.6,1-1.9,0,0,1.7-2.2,1.3-4ZM319,84.7h0s0,0,0,0h0Z"/>
</svg>