<?xml version="1.0" encoding="UTF-8"?>
<svg id="Livello_1" data-name="Livello 1" xmlns="http://www.w3.org/2000/svg" version="1.1" viewBox="0 0 64 65.1">
  <defs>
    <style>
      .cls-1 {
        fill: #d7ad9b;
      }

      .cls-1, .cls-2, .cls-3, .cls-4, .cls-5, .cls-6, .cls-7, .cls-8 {
        stroke-width: 0px;
      }

      .cls-2 {
        fill: #d9dde3;
      }

      .cls-9 {
        stroke-width: 1.3px;
      }

      .cls-9, .cls-10, .cls-11 {
        fill: #fff;
        stroke: #fff;
        stroke-linecap: round;
        stroke-linejoin: round;
      }

      .cls-3 {
        fill: #ebbfac;
      }

      .cls-4 {
        fill: #fbd7c9;
      }

      .cls-5 {
        fill: #c5686a;
      }

      .cls-5, .cls-7, .cls-8 {
        isolation: isolate;
        opacity: .5;
      }

      .cls-6 {
        fill: #e9f0f4;
      }

      .cls-10 {
        stroke-width: 1.5px;
      }

      .cls-11 {
        stroke-width: 1.4px;
      }

      .cls-7 {
        fill: #b63a3e;
      }

      .cls-8 {
        fill: #bf5557;
      }
    </style>
  </defs>
  <path class="cls-10" d="M57.5,11.7c-3.6-6-7.1-7.7-9.8-8.1-2.7-.4-5.6-1.2-7.1-1.2-.2,0-1.8,3.1-4.6,4.9-4.6,2.3-9.6,1.3-12.2-1.2-1.6-1.5-2.3-3.2-2.3-3.3,0,0,0-.1,0-.2l-5.8.9c-.7,0-1.3.3-2,.6h0s0,0,0,0h-.1c0,0,0,0,0,0-2.1,1.1-4.4,3.8-7.1,9.9-1.1,2.6-3.5,8.6-3.3,9,0,.3,2.9,1.8,5.8,2.9,3.2,1.2,5.4,2.4,5.5,1.6.1-.4.6-1.3.8-1.9.2,3.2.8,11.8,1.2,15.5.2,1.6.2,3.4,0,5.4-.5-.7-.8-1.3-1.1-1.6-.1-.1-.2-.2-.3-.2h0c-.2,0-.8.5-1.4,1.1-.6.7-1.2,1.5-1.6,2.3-.2.5-.3,1-.2,1.4,0,.8.7,1.9,1.9,3.1.5.5,1.1.9,1.7,1.4.1,0,.3.2.4.3-.1,1.2-.2,2.3-.3,3.3,0,.5,0,1.5.2,1.8.3.3.9.4,1.9.6.9.2,2.8.7,5.2,1,.1.1.2.2.2.2,0,0,.4.7,1.9,1.1,1.5.5,2.1.6,2.1.6,0,0,.2,0,.6,0,.2,0,.4,0,.7,0,.3,0,.6,0,.7-.2.2-.3.4-.8-.5-1.3,1.6.1,3.4.2,5.2.1,14-.4,13.1-.4,16.3-1.2,1-.3,1.7-.5,1.9-.7.4-.4,0-1.8,0-3.7-.1-1.9-.3-3.6-.4-5.2.6-.8,1.1-1.5,1.3-1.7,2.4-1.4,3.9-3,4.6-4.3.2-.4.4-.8.4-1.1.3-1.1-.8-2.8-1.9-3.9-.6-.7-1.2-1.2-1.5-1.2-.2,0-.5.3-.8.7-.3.4-.6,1-1.1,1.6-.3.4-.8.8-1.3,1.1-.3.2-.6.3-.9.4-.3-1.4-.5-2.3-.5-2.6,0-.8.5-15,.8-15.6.3-.6,1.7,2.2,2.3,2.7.3.3,2.9-1,5.4-2.9,2.3-1.8,4.3-4.3,4.3-4.6,0-.5-1.3-2.1-5-8.1Z"/>
  <g>
    <path class="cls-6" d="M50.4,24.6c.3-.6,1.7,2.2,2.3,2.7s2.9-1,5.4-2.9c2.3-1.8,4.3-4.3,4.3-4.6,0-.5-1.3-2.1-5-8.1-3.6-6-7.1-7.7-9.8-8.1-2.7-.4-5.6-1.2-7.1-1.2-.2,0-1.8,3.1-4.6,4.9-4.6,2.3-9.6,1.3-12.2-1.2s-2.3-3.2-2.3-3.3c0,0,0-.1,0-.2l-5.8.9c-2.7.3-5.7,2.2-9.4,10.6-1.1,2.6-3.5,8.6-3.3,9s2.9,1.8,5.8,2.9c3.2,1.2,5.4,2.4,5.5,1.6s.6-1.4.8-2,0-1.4,0-1.1c0,.5.8,12.2,1.2,16.6s-.5,12.2-.7,16.5,0,1.5.2,1.8.9.4,1.9.6c2,.5,8.6,2,16.1,1.8,14-.4,13.1-.4,16.3-1.2,1-.3,1.7-.5,1.9-.7.4-.4,0-1.8,0-3.7-.5-9.2-2.2-15.3-2.2-16.1s.5-15,.8-15.6Z"/>
    <path class="cls-2" d="M50,4.3s-.4,1.8,0,4.6c0,0-1.2-3.5-.4-4.8l.4.2h0Z"/>
    <path class="cls-2" d="M13.7,4.1s-.6,1.4-.5,4.2c0,0-.8-2.8,0-4.1h.2c0,0,.2,0,.2,0Z"/>
    <g>
      <g>
        <circle class="cls-5" cx="33.5" cy="50.4" r="10.6"/>
        <circle class="cls-8" cx="33.5" cy="50.4" r="7.7"/>
        <circle class="cls-7" cx="33.5" cy="50.4" r="4.8"/>
      </g>
      <path class="cls-11" d="M54.2,39c-.5,0-.9,1.2-1.8,2.3s-2.9,1.9-3.6,1.5c-.7-.4-2.5-.6-2.8-.8s-1.5-.5-1.9-.2c-.4.3-2.8,1.2-2.8,1.2,0,0-.9.1-1.5.6-.5.4-1.1.7-1.1.7,0,0-1.8.3-1.7,1.4s3.1.6,3.8.2c.3-.2,1.1-.4,1.7-.6.2,0,.5.2.5.3,0,.2.2.8.2,1.2,0,0,0,0,0,.1,0,0,0,.1,0,.2-.3.3-1.8,1-2.1,1.2-.4.2-1.8.5-2.4.7-.7.2-3,.7-3.2.8s-1.3.5-1.1,1.4c0,.2.3.3.6.4-.2,0-.3.1-.4.2-1,1.1-.4,1.6,0,1.7.4.1,2.4-.2,2.7-.1s1.8.4,2.5,0,3.1-.7,3.1-.7c0,0-1.8.5-2.1.5-.4,0-3,.7-3.5.7-.5,0-1.1,0-1.4.9-.4.9,2,.9,2,.9,0,0,1.9-.2,2.8-.2s3.1-1,3.7-1.4c.6-.4.8-.2.8-.2,0,0-1.1.5-2,1.4-.8.2-2,.8-3.1,1.3-.2,0-.2.2-.4.2h0s0,0,0,0c-.6.4-.4.9-.2,1.2.2.4,2,0,2,0,0,0,.7-.2,2.2-.6,1.6-.5,2-1.2,2-1.2,0,0,1.4-1.5,2-1.7.2,0,1.4-.6,2-1.4,1.4-1.5,2.6-3.5,3-3.8,3.2-1.8,4.8-4.1,4.9-5.4.5-1.7-2.7-5.1-3.4-5.1ZM39.8,50.7c-1,.2-2.1.5-2.3.6.2,0,.7-.3,1.2-.4.5-.2,2.9-.4,3.1-.5.2,0,.3,0,.3,0-.6.2-1.4.1-2.3.3Z"/>
      <g>
        <path class="cls-1" d="M42.3,45.3s.6.1.7.4.3,1.3,0,1.5.5-.2.5-.2l.4-2.1h-1c.2-.1-.6.3-.6.3Z"/>
        <path class="cls-4" d="M57.6,44.1c-.1,1.3-1.8,3.6-4.9,5.4-.4.3-1.7,2.3-3,3.8-.6.7-1.8,1.4-2,1.4-.7.2-2,1.7-2,1.7,0,0-.4.7-2,1.2s-2.2.6-2.2.6c0,0-1.8.3-2,0s-.5-.9.6-1.4c1.1-.5,2.3-1.1,3.1-1.3.9-.9,2-1.4,2-1.4,0,0-.2-.2-.8.2s-2.8,1.4-3.7,1.4-2.8.2-2.8.2c0,0-2.4,0-2-.9s.9-1,1.4-.9,3.1-.7,3.5-.7,2.1-.5,2.1-.5c0,0-2.4.4-3.1.7s-2.2,0-2.5,0-2.3.3-2.7.1-1-.6,0-1.7c.4-.3,2.4-.5,2.9-.4.2,0,1.3-.3,2.3-.6,1-.2,2-.1,2.5-.4,0,0,0,.1-.6,0-.2,0-2.7.3-3.1.5s-1,.4-1.2.4-3,.7-3.2-.1.9-1.4,1.1-1.4,2.5-.6,3.2-.8,2.1-.4,2.4-.7,1.9-.9,2.2-1.2,0-1.2.5-1.7c0,0,0-.2-.1-.3s-2.1.4-2.7.8-3.6.9-3.8-.2,1.7-1.4,1.7-1.4c0,0,.5-.3,1.1-.7s1.5-.6,1.5-.6c0,0,2.4-.9,2.8-1.2s1.6,0,1.9.2,2.1.4,2.8.8,2.7-.3,3.6-1.5,1.4-2.4,1.8-2.3c.7,0,3.9,3.4,3.4,5.1h0Z"/>
        <path class="cls-3" d="M42.9,52.8h1.1c.4-.2,1.7-1.4,1.7-1.4,0,0-1.1,1.4-1.7,1.4q-.2,0-1.2,0Z"/>
        <path class="cls-3" d="M42.4,50.7s1.3.3,2.4,0c.5-.2.8-1,1.5-1.7s.9-.7.9-.7c0,0-1.1.5-1.8,1.4s-.7.8-1.4.9c-.8,0-1.6,0-1.6,0h0Z"/>
        <path class="cls-3" d="M43.4,45s.5,0,.8-.2c.4-.2.8,0,.8,0l-.6.7c-.4.5-.8,1-1.2,1.5,0,0,0-.1.2-.5,0-.1,0-.5.1-.6,0-.3.2-.7.2-.7,0,.1-.2-.2-.4-.1Z"/>
        <path class="cls-1" d="M39.6,57s1.1-.3,1.4-.5,1.8-.8,2-.8c0,0,.5-.4,1-.8,0-.1.5-.3,1-.4h0c0-.1-.1-.2-.1-.2,0,0-.5.3-1.2.6-.4.3-1,.8-1,.8,0,0-.5.2-.8.2l-2.4,1h0Z"/>
        <path class="cls-1" d="M37.5,54.2s2-.1,2.5-.3,2.9-1.1,2.9-1.1c0,0-.2,0-.4,0-.3.1-.8.2-1.3.3-.5.2-1.3.3-1.7.4-1,.2-2.3.6-2.3.6h.3Z"/>
      </g>
      <path class="cls-9" d="M11.6,49.7c.1,1.2,1.7,3.4,4.7,5.2.4.3,1.6,2.2,2.9,3.7.6.7,1.7,1.3,1.9,1.3.6.2,1.9,1.6,1.9,1.6,0,0,.4.7,1.9,1.1s2.1.6,2.1.6c0,0,1.7.3,1.9,0,.2-.3.3-.7-.2-1.1h0s0,0,0,0c-.1,0-.2-.1-.3-.2-1-.5-2.2-1.1-3-1.3-.8-.8-1.9-1.3-1.9-1.3,0,0,.2-.2.8.2.6.3,2.7,1.3,3.5,1.3s2.6.2,2.6.2c0,0,2.3,0,1.9-.9-.4-.9-.9-.9-1.4-.9-.5,0-3-.6-3.3-.7-.4,0-2.1-.5-2.1-.5,0,0,2.3.4,3,.6s2.1,0,2.4,0,2.2.3,2.6.1c.4-.1,1-.6,0-1.7,0,0-.2-.1-.4-.2.3,0,.6-.1.6-.4.2-.8-.9-1.3-1-1.3s-2.4-.6-3-.7c-.6-.2-2-.4-2.3-.6-.3-.2-1.7-.8-2-1.1,0,0,0,0,0-.1,0,0,0,0,0-.1,0-.4,0-1,.2-1.1,0-.2.3-.3.5-.3.6.2,1.3.4,1.7.6.6.3,3.5.9,3.6-.2s-1.6-1.4-1.6-1.4c0,0-.5-.2-1-.7-.5-.4-1.4-.5-1.4-.5,0,0-2.3-.8-2.7-1.1-.4-.3-1.6,0-1.9.2s-2,.4-2.7.8c-.7.4-2.5-.3-3.4-1.4s-1.3-2.3-1.8-2.2c-.6,0-3.7,3.2-3.2,4.9ZM26.4,55.7c0,0,.2,0,.3,0,.2,0,2.5.3,3,.4.4.1,1,.4,1.1.4-.2,0-1.3-.3-2.2-.5-.9-.2-1.7-.2-2.2-.3Z"/>
      <g>
        <path class="cls-1" d="M25.6,50.5h-.9c0,0,.4,2.1.4,2.1,0,0,.8.4.4.1s-.1-1.2,0-1.5.7-.4.7-.4c0,0-.8-.4-.6-.3Z"/>
        <path class="cls-4" d="M11.6,49.7c-.5-1.6,2.6-4.9,3.2-4.9.5,0,.9,1.1,1.8,2.2s2.7,1.8,3.4,1.4,2.4-.6,2.7-.8,1.4-.5,1.9-.1,2.7,1.1,2.7,1.1c0,0,.9.1,1.4.5s1,.7,1,.7c0,0,1.7.3,1.6,1.4s-3,.6-3.6.2-2.5-.8-2.6-.8-.1.3-.1.3c.4.5.2,1.3.5,1.6s1.7.9,2.1,1.2,1.7.5,2.3.6,2.9.7,3,.7,1.2.5,1,1.3-2.9.1-3.1.1-.7-.3-1.1-.4-2.8-.4-3-.4c-.5,0-.5,0-.5,0,.5.2,1.5.2,2.4.4,1,.2,2.1.5,2.2.5.5,0,2.4,0,2.8.4,1,1,.4,1.5,0,1.7s-2.3-.2-2.6-.1-1.7.4-2.4,0-3-.6-3-.6c0,0,1.7.5,2.1.5s2.9.7,3.3.7,1,0,1.4.9-1.9.9-1.9.9c0,0-1.8-.2-2.6-.2s-2.9-1-3.5-1.3-.8-.2-.8-.2c0,0,1,.5,1.9,1.3.8.2,1.9.8,3,1.3s.8,1,.6,1.4-1.9,0-1.9,0c0,0-.6-.2-2.1-.6s-1.9-1.1-1.9-1.1c0,0-1.3-1.4-1.9-1.6-.2,0-1.3-.6-1.9-1.3-1.3-1.4-2.5-3.3-2.9-3.7-3-1.7-4.6-3.9-4.7-5.2h0Z"/>
        <path class="cls-3" d="M24.5,58.1c-.5,0-1.6-1.4-1.6-1.4,0,0,1.2,1.2,1.6,1.2s1.1.1,1.1.1q-.9,0-1.1,0Z"/>
        <path class="cls-3" d="M26.1,56s-.8,0-1.6,0q-.7,0-1.4-.9c-.6-.8-1.7-1.3-1.7-1.3,0,0,.1,0,.8.7s1,1.5,1.5,1.6c1.1.3,2.3,0,2.3,0h0Z"/>
        <path class="cls-3" d="M24.7,50.7s.1.4.2.7c0,.1,0,.5.1.6.1.4.2.5.2.5-.4-.5-.7-.9-1.1-1.4l-.6-.7s.4-.1.7,0c.3.2.8.2.8.2-.2,0-.3.2-.4.1Z"/>
        <path class="cls-1" d="M28.7,62l-2.3-1c-.4,0-.8-.2-.8-.2,0,0-.5-.4-.9-.8-.6-.3-1.1-.6-1.1-.6h-.1c0,0,0,.2,0,.2.4.1.9.3,1,.4.4.3.9.8.9.8.2,0,1.7.7,1.9.8s1.3.4,1.3.4h0Z"/>
        <path class="cls-1" d="M31.1,59.4s-1.3-.3-2.2-.5c-.4,0-1.2-.2-1.6-.4s-1-.2-1.3-.3c-.2,0-.4,0-.4,0,0,0,2.4.9,2.8,1.1s2.4.3,2.4.3h.3Z"/>
      </g>
    </g>
    <path class="cls-2" d="M14.2,16.8s0,1.4,0,3.3.7,4.5.7,4.5c0,0-2.8-2.4-2.4-2.5,0,0,.3-.3.5,0s1,1.3,1,.9-.7-2.3-.5-2,.5,1,.5.7-.1-4.4.2-4.8Z"/>
    <path class="cls-2" d="M51.4,16.9s0,1.4,0,3.3-.9,4.4-.9,4.4c0,0,2.9-2.3,2.5-2.4,0,0-.3-.4-.5,0s-1,1.2-1,.9.8-2.3.6-2-.5,1-.5.7.3-4.4,0-4.8Z"/>
    <path class="cls-2" d="M28.2,34s3.6-2,6-1.8,7.4,0,6.6.7-6.1-.6-7.5,0-5.2,1.1-5.2,1.1Z"/>
  </g>
</svg>