<?xml version="1.0" encoding="UTF-8"?>
<svg id="Livello_1" data-name="Livello 1" xmlns="http://www.w3.org/2000/svg" version="1.1" viewBox="0 0 56.7 46.3">
  <defs>
    <style>
      .cls-1 {
        fill: #665b53;
      }

      .cls-1, .cls-2, .cls-3 {
        stroke-width: 0px;
      }

      .cls-2 {
        fill: #6e6761;
      }

      .cls-3 {
        fill: #2e261f;
      }
    </style>
  </defs>
  <path class="cls-2" d="M55.9,41.5l-.2,3.8s-.5-.9-1.7-1.9c-1.2-1-2.5-2.7-4-2.8s-3.2-.1-3.2-.1c0,0-2.5-4-6.8-4.9-4.3-.9-5.4-.7-5.4-.7,0,0,.7-4.3-1.4-6.2s-5.3-2.9-9.6-2-5.7,1.1-5.7,1.1l-.3-2-2.7.6v-6.6s-.5-6.3-1.3-7.2-8-1.3-8-1.3c0,0,.6-.9.3-2.6-.4-3.1-3.8-4.4-3.8-4.4,0,0,.4-1.2,0-2s-1-1-1-1c0,0,4.4-.6,7,0s7.1,2.8,7.1,2.8l6.3,2.1,1.1,2.5,6.4,6.7,3.3,1.8,6.1,4.7,6.4,3.4s2.8,2.9,3.8,3.7c1.1.7,4,4.6,4.5,6.1s2.7,6.4,2.7,6.4Z"/>
  <path class="cls-1" d="M21.2,6.7s0,1.7,0,2.1-.2,1.5-.2,2,.7,1.7.9,1.8,1.4.7,1.6.9,1.8,2.3,2,2.6.3.8-.7,1-3,1.7-3.5,2.2-1.2,1.4-1.6,1.9-3.8,2.7-4.3,3.1-.8,1-.8,1l.2,1.1s2.3-.5,2.6,0,.4,1.4.4,1.4c0,0,2-.3,2.3-.6s3.1-2,4-2,3.6-1.3,4-1.6,3.7-1.3,4.1-1.4.4-.5,1.3-.5,2,1.3,2.6,1.5,4.9.6,5.3.8,1,.1,1,.1l-9.8-6.5-7.5-5.9-3.9-4.9Z"/>
  <path class="cls-1" d="M34.7,33.1s3.7-2.4,4.6-2.8,3.7-2.6,4.3-3.1,1.1-.7,1.1-.7l2.3.9,4.5,6.7s-2.9-3.1-2.9-2.7,1,4.9,1,4.9l-1.1,2.4-1.8,1.6s1.5-2.5,1.3-4.8c-.1-2.4-.6-6.5-2-6.9-1.5-.4-10.5,6-10.5,6h-.8l-.2-1.6Z"/>
  <path class="cls-3" d="M21.8,8.8c.2.4,2.5,3.4,2.8,3.7s3.3,3.8,3.3,3.8c0,0-.4.3-.9.4s-2.3,1.1-3.7,2.4-3.2,2.6-4.2,3.4-4.8,3.9-4.8,3.9c0,0-1.7,1.2-1.7,1.3s.6,0,.6,0c0,0-.2.3-.3.4s.6-.1.6,0-.2.4-.2.5.8-.4,1.1-.7,1.1-1.4,1.5-1.6,1.1.4,1,.8-1.8,1.4-2.5,2,.1.2,0,.5.3.1.5,0,0,.4-.2.6,1-.5,1.3-.8,2-1.6,2-1.6c0,0,4.5-2.6,4.8-2.7s2.8-.5,3.3-.7,1.3-1.4,2.8-1.6,4.1-1.6,4.7-1.7,1.2.2,2,.6,3.4.7,5,1.7c1.6,1,4,2.3,4.3,3.1s-1.7,1.9-2.1,2.2-2.6,1.7-2.9,2-2.6,1.3-3.4,2-1.7,2.1-1.5,2.1,3.9-2.5,4.4-2.7,1.7-.5,2-.8,3.7-3,4.2-3.4,2.1-.3,2.1-.3c0,0,.7.4.9.4s.5,0,.7,0,.3.6.5.7.2-.1,0-.8-1.1-.7-1.5-1-1.6-.5-1.9-.6-3.7-2.8-4.3-3.1-4.8-2.8-5.4-3.2-.5-.8-.3-1.3,1-.2,1.3-.2,1.1-.6,1.2-.9-.5-1-1.1-1.4-.7-1.1-1.2-1.6-2.8-.7-2.8-.7c0,0-1.2-.8-1.8-1.1s0,1.4,0,1.4c0,0-.7.6-1.6.8s-2.4-1.9-2.9-2.5-3.5-3.3-4.9-4.6c0,0-1-1.9-.2-1.5s1.5.9,1.5.9c0,0,0-.4-.2-.7s-1.4-1-1.9-1.1-.8-.5-.9,0,0,1.6,1,3.1Z"/>
  <path class="cls-1" d="M6.1,10.5s3.2-.9,4.6-1.8,5.8-3.2,5.8-3.2c0,0-2.2-.9-2.7-1s-9.7-.2-9.7-.2l6.2-.7,4.2.3,4.3,1.3-.5.3-8.8,4.8-2.6,1h-1.4l.5-.8Z"/>
  <path class="cls-3" d="M5.6,11.3s2.2-.7,4.5-1.6c2.2-1,8.2-4.7,8.4-4.7s.7,0,.4.3-4.7,2.3-5.3,2.9-4.8,2.6-4.9,2.7-1.6.5-1.6.5c0,0-2,.2-1.4,0Z"/>
  <path class="cls-3" d="M2.4,3.9c.3,0,7.9-.2,7.9-.2,0,0,3.5.2,3.2,0s-1.7-1.1-4.6-1.7c-.6-.1-3.4-.7-3.8-.7-1.3-.1-4.1,0-4.1,0C1,1.3,0,.8.8.8s5.6-.2,9.9,1.2,4.6,1.9,5.7,2.2,5.3,1.6,5.3,1.6l-.2.4s-4-1.1-4.8-1.4-1.3-.9-2.1-.7-9.9.3-9.9.3c0,0-2.3.2-2.6.2s0-.3,0-.3c0,0,.2-.4.4-.4Z"/>
  <path class="cls-3" d="M9.8,11.4s3.4.2,4.2,2.9c.7,2.7.4,12.2.4,12.2l.7-.6s.2-2.9,0-6.6c-.2-3.7-.4-7.4-2.6-7.6-2.7-.2-2.7-.3-2.7-.3Z"/>
  <path class="cls-3" d="M27.8,26.4s2.2-.3,4.2.8,2.4,3.1,2.5,3.9.4,3.7.4,3.7h-.5s.3-4.8-1.6-6.5c-2-1.7-4.9-1.8-4.9-1.8Z"/>
  <path class="cls-3" d="M34.6,34.6s.1-.5,3.7.1,6,2.7,6.6,3.2,1.9,1.9,2,2.2,0,.5,0,.4-1.6-2.1-3.4-3.2-4-2-5.8-2.3-3,0-3.1-.1-.3,0,0-.3Z"/>
  <path class="cls-3" d="M46.8,40.1s2-1.8,2.3-2.6-.9-4.6-1.2-5.2-3-4.9-2.5-5,.4-.1.6,0,3,5.4,3.6,7.4.3,2.8.1,3.3-1.8,2.3-1.8,2.3c0,0-1.1.5-1.1.2v-.4Z"/>
  <path class="cls-3" d="M45.8,26.9s5.9,8.3,6.5,8.9,2.2,2.2,2.5,3,.9,3.2.9,4.4-.2,2.4,0,2.1.4-1.8.4-2.7-1.5-5.3-1.8-5.8-1.3-2.1-1.8-2.3-5.6-6.6-5.6-6.6c0,0,2.4,2.2,3.4,3.3,1,1.1,2,2.3,2,2.3,0,0-1.1-2.2-2-3.1s-2.7-2.8-2.7-2.8l-1.7-.6Z"/>
</svg>