<?xml version="1.0" encoding="UTF-8"?><svg id="Livello_2" xmlns="http://www.w3.org/2000/svg" viewBox="0 0 19.43 22.03"><defs><style>.cls-1{fill:#f2f7e5;}.cls-2{fill:#fff;}.cls-3{fill:#e5e5e5;}.cls-4{fill:#1f1e1e;}.cls-5{fill:#2b2929;}.cls-6{fill:#3b3b3b;}</style></defs><g id="Where_is_found"><g id="ic_pets_1"><path id="Tracciato_34-2" class="cls-4" d="M10.91,5.41s1-.33,1.04-.76-.15-.92,1-1.53c0,0-.08-1.9,.55-2.68,.43,.19,1.15,.64,1.45,2.31,0,0,.77-2.38,1.49-2.74,0,0,1.76,1.85,.77,4.05,0,0,2.39,1.8,2.22,6.19s-1.57,6.65-1.57,6.65c0,0-.56,1.36-.3,2.88,0,0,1.33-.15,1.62,1.38,0,0,.01,.5-2.27,.34-1,.3-2.06,.35-3.08,.15,0,0-3.84,1.13-7.17-.4s-5.39-4.05-2.06-9.3c3.25-4.11,3.57-7.46,1.06-8.21s-3.05,1.05-3.49,2.02c0,0-.45,.96-1.5,.63S.1,4.78,.1,4.78c.15-.33,1.34-3.86,5.21-3.27,3.87,.59,5.33,4.02,2.98,8.41s-4.28,5.99-2.65,8.07c0,0,.32-5.78,6.73-9.55,0,0-.16-.25,.26-.59,0,0-1.95-.68-1.73-2.44Z"/><path id="Tracciato_36" class="cls-2" d="M12.02,4.87c.01,.09,.01,.27-.09,.76-.05,.25-.16,.48,.02,.95s.96,.92,.82,1.13c0,0-.74-.25-1.24-.81s-.52-1.11-.49-1.38c.38-.12,.72-.34,.98-.64Z"/><path id="Tracciato_44" class="cls-4" d="M11.52,5.34c.03,.2-.11,.61-.42,.63-.03-.14-.04-.28-.03-.42,.16-.04,.31-.11,.44-.21Z"/><path id="Tracciato_37" class="cls-3" d="M12.55,8.42s-.04-.31,.31-.51c0,0,3.12,.8,4.1,1.85s2.1,3.49-.69,7.79c-.31,.45-.83,.37-1.14,.04s-1.58-1.59-1.3-4.11,.36-3.3-1.28-5.06Z"/><path id="Tracciato_38" class="cls-2" d="M18.9,21.07c-.02,.09-1.16,.29-1.8,.08,0,0,.27-.8-.09-1.1,0,0,.81-.11,1.29,.14s.62,.79,.6,.88Z"/><path id="Tracciato_39" class="cls-2" d="M16.7,21.21c-.02,.09-1.52,.42-2.62,.13,0,0,1.17-.39,.55-1.48,0,0,.97-.46,1.76,0s.33,1.27,.31,1.35Z"/><path id="Tracciato_40" class="cls-6" d="M16.32,.74c-.13-.06-.8,1.21-1.08,2.22,0,0,.54,.18,.76,.4,0,0,.67-1.81,.32-2.62Z"/><path id="Tracciato_41" class="cls-6" d="M13.58,.94c-.11-.01-.35,1.2-.29,2.03,0,0,.59-.23,.92-.19,0,0-.15-1.33-.63-1.84Z"/><path id="Tracciato_42" class="cls-1" d="M14.24,3.84s-.16,.53-.68,.54c-.51,.01-.5-.09-.71-.03s.25-.63,.66-.65c.25-.01,.5,.03,.72,.14Z"/><path id="Tracciato_43" class="cls-2" d="M.77,3.9c-.24,.32-.4,.68-.49,1.07-.13,.63,.04,.97,.47,1.14,.43,.18,.92,.02,1.16-.38,.23-.41,.23-.53,.34-.76,.08-.17,.17-.34,.27-.5-.28-.16-.57-.29-.87-.4-.28-.09-.58-.15-.88-.17Z"/><path id="Tracciato_55" class="cls-5" d="M12.99,3.99c.06,.04,.1,.1,.11,.18,0,.21,0,.18-.1,.17-.09,0-.12-.02-.14-.15,.02-.08,.06-.15,.12-.2Z"/></g></g></svg>