<?xml version="1.0" encoding="utf-8"?>
<!-- Generator: Adobe Illustrator 27.9.0, SVG Export Plug-In . SVG Version: 6.00 Build 0)  -->
<svg version="1.1" id="Complications" xmlns="http://www.w3.org/2000/svg" xmlns:xlink="http://www.w3.org/1999/xlink" x="0px"
	 y="0px" viewBox="0 0 32 32" style="enable-background:new 0 0 32 32;" xml:space="preserve">
<style type="text/css">
	.st0{fill:#FFFFFF;stroke:#FFFFFF;stroke-linecap:round;stroke-linejoin:round;stroke-miterlimit:10;}
	.st1{fill:#C5686A;}
	.st2{fill:#FFFFFF;}
</style>
<g>
	<path class="st0" d="M26.7,20c-0.1-0.4-0.5-0.9-1.3-0.9l0,0c-0.3,0-0.6,0.1-1,0.2c-1.5,0.7-5.2,4.1-6.3,5.3l0.1-0.6
		c0,0,0.1-0.5-0.2-0.8c-0.1-0.1-0.3-0.2-0.5-0.2c-0.2,0-0.3,0-0.6,0.2c-1.2,0.6-4.8,5-5.6,6.3c-0.1,0.2-0.2,0.3-0.1,0.4l0.1,0.1h0.1
		c0.4,0,3.3-2.5,5.1-4.1c0,0.1,0,0.4-0.1,0.7c-0.2,1.1-0.1,1.4,0,1.5c0.1,0.1,0.2,0.1,0.3,0.1c0.1,0,0.1,0,0.2,0
		c0.1-0.1,8.7-6.4,9.5-7C26.7,20.9,26.8,20.4,26.7,20z"/>
	<path class="st0" d="M11.8,4.8C12,4.1,11.5,3.2,11,2.6C10.8,2.3,10.4,2,10,2l0,0C9.7,2,9.3,2.1,9.1,2.7c-0.6,1.6-0.8,8.2-0.8,10.2
		l-0.4-0.4c0,0-0.3-0.5-0.8-0.5c-0.3,0-0.5,0.2-0.7,0.7c-0.4,1.2,0.1,6.9,0.3,8.5c0,0.1,0.1,0.4,0.3,0.4c0.2,0,0.5,0,0.9-6.6
		c0.1,0.1,0.2,0.3,0.4,0.6c0.6,1,0.9,1.1,1.1,1.1c0.2,0,0.3-0.1,0.3-0.2C9.9,16.3,11.7,5.8,11.8,4.8z"/>
	<path class="st0" d="M14.7,18.9c0.2,1.3,0.4,1.8,0.8,1.8c0.2,0,0.3-0.1,0.3-0.1c0.1-0.1,7.6-11.4,8.3-12.5c0.5-0.7,0.4-2.5-0.1-3.5
		c-0.3-0.6-0.7-0.7-1-0.7c-0.3,0-0.6,0.2-1,0.5c-1.6,1.6-5.3,9.4-6.2,11.5L15.5,15c-0.1-0.3-0.3-1-0.9-1c-0.3,0-0.5,0.2-0.8,0.5
		c-1.2,1.2-3.5,8.1-3.9,10c-0.1,0.3-0.1,0.4,0,0.5l0.1,0.1h0.1c0.1,0,0.5,0,4.4-7.3C14.5,18,14.6,18.3,14.7,18.9z"/>
	<polygon class="st0" points="23,3.8 23,3.9 23,3.8 	"/>
</g>
<g id="Tracciato_28-2">
	<path class="st1" d="M11.3,29.9L11.3,29.9c-0.1-0.1-0.1-0.2,0.1-0.4c1-1.5,4.5-5.8,5.6-6.3c0.2-0.1,0.4-0.1,0.5-0.1
		c0.2,0,0.3,0,0.4,0.2C18.1,23.5,18,24,18,24l-0.1,0.8c0.9-0.9,4.9-4.7,6.5-5.4c0.3-0.1,0.6-0.2,0.9-0.2c0.7,0,1.1,0.4,1.2,0.8
		c0.1,0.4,0,0.9-0.3,1.2c-0.8,0.6-9.4,6.9-9.5,7l0,0l-0.1,0c-0.1,0-0.1,0-0.2-0.1c-0.1-0.2-0.1-0.7,0-1.4c0.1-0.7,0.1-0.9,0.1-1
		c0,0,0,0,0,0.1C15.4,26.7,11.8,29.9,11.3,29.9C11.4,29.9,11.3,29.9,11.3,29.9z"/>
	<path class="st2" d="M25.4,19.3c1.1,0,1.5,1.3,0.8,1.8c-0.9,0.6-9.5,7-9.5,7s0,0-0.1,0c-0.1,0-0.3-0.2-0.1-1.4
		c0.2-0.9,0.1-1.1,0-1.1c-0.1,0-0.2,0.1-0.2,0.1s-4.6,4.2-5.1,4.2c-0.1,0,0-0.1,0.1-0.2c1-1.4,4.5-5.7,5.6-6.3
		c0.2-0.1,0.4-0.1,0.5-0.1c0.5,0,0.4,0.8,0.4,0.8l-0.1,1.1c0,0,4.9-4.8,6.7-5.6C24.8,19.3,25.1,19.3,25.4,19.3 M25.4,19.1
		c-0.3,0-0.6,0.1-1,0.2c-1.5,0.7-5.1,4.1-6.4,5.3l0.1-0.6c0,0,0.1-0.5-0.2-0.8c-0.1-0.1-0.3-0.2-0.5-0.2c-0.2,0-0.4,0-0.6,0.2
		c-1.2,0.6-4.8,5-5.6,6.3c-0.1,0.1-0.2,0.3-0.1,0.4l0.1,0.1h0.1c0.4,0,3.3-2.5,5.1-4.1c0,0.1,0,0.4-0.1,0.7c-0.2,1.1-0.1,1.4,0,1.5
		c0.1,0.1,0.2,0.1,0.3,0.1c0.1,0,0.1,0,0.2,0c0.1-0.1,8.7-6.4,9.5-7c0.4-0.3,0.5-0.8,0.4-1.3C26.5,19.5,26.1,19.1,25.4,19.1
		L25.4,19.1L25.4,19.1z"/>
</g>
<g id="Tracciato_29-2">
	<path class="st1" d="M7.1,21.4c-0.1,0-0.2-0.2-0.2-0.3c-0.3-1.7-0.8-7.3-0.3-8.4c0.2-0.4,0.3-0.6,0.6-0.6c0.4,0,0.7,0.4,0.7,0.4
		l0.5,0.7c0-1.6,0.2-8.7,0.8-10.4C9.4,2.2,9.8,2.1,10,2.1c0.4,0,0.7,0.3,1,0.6c0.5,0.6,0.9,1.6,0.8,2.1c-0.2,1-2,11.5-2,11.6
		c0,0.1-0.1,0.2-0.2,0.2c-0.2,0-0.6-0.4-1-1.1c-0.4-0.6-0.6-0.8-0.6-0.8c0,0,0,0.1,0,0.1C7.5,21.4,7.2,21.4,7.1,21.4L7.1,21.4z"/>
	<path class="st2" d="M10,2.2c0.8,0,1.8,1.8,1.7,2.6c-0.2,1-2,11.6-2,11.6s0,0.1-0.1,0.1c-0.1,0-0.4-0.2-0.9-1
		c-0.4-0.7-0.6-0.9-0.7-0.9c-0.1,0-0.1,0.2-0.1,0.2s-0.4,6.5-0.8,6.5c0,0-0.1-0.1-0.1-0.2c-0.3-1.7-0.8-7.2-0.3-8.4
		c0.2-0.4,0.3-0.6,0.5-0.6c0.3,0,0.6,0.4,0.6,0.4l0.7,0.9c0,0,0.1-8.8,0.8-10.7C9.5,2.3,9.7,2.1,10,2.2 M10,1.9
		c-0.3,0-0.6,0.1-0.9,0.8c-0.6,1.6-0.8,8.2-0.8,10.2l-0.3-0.4c0,0-0.3-0.5-0.8-0.5c-0.3,0-0.5,0.2-0.7,0.7c-0.4,1.2,0.1,6.9,0.3,8.5
		c0,0.1,0.1,0.4,0.3,0.4s0.5,0,0.9-6.6c0.1,0.1,0.2,0.3,0.4,0.6c0.6,1,0.9,1.1,1.1,1.1c0.2,0,0.3-0.1,0.3-0.2c0-0.1,1.8-10.6,2-11.7
		C12,4.1,11.5,3.2,11,2.6C10.8,2.3,10.4,2,10,1.9L10,1.9L10,1.9z"/>
</g>
<g id="Tracciato_30-2">
	<path class="st1" d="M10.1,25L10.1,25c-0.1-0.1-0.1-0.2-0.1-0.4c0.5-2.2,2.9-8.8,3.9-10c0.3-0.3,0.5-0.4,0.8-0.4
		c0.6,0,0.8,0.9,0.8,0.9l0.3,1.1c0.8-1.6,4.7-10.1,6.3-11.8c0.3-0.3,0.6-0.5,0.9-0.5c0.3,0,0.6,0.2,0.9,0.6C24.4,5.5,24.4,7.3,24,8
		c-0.7,1.1-8.2,12.4-8.3,12.5c0,0-0.1,0.1-0.2,0.1c-0.3,0-0.6-0.6-0.7-1.8c-0.2-1.1-0.3-1.3-0.3-1.3c0,0,0,0.1,0,0.2
		C13.2,20,10.5,25,10.1,25L10.1,25L10.1,25z"/>
	<path class="st2" d="M23,4.1c1.2,0,1.5,3,0.9,3.9c-0.7,1.1-8.3,12.5-8.3,12.5s-0.1,0.1-0.1,0.1c-0.2,0-0.4-0.2-0.6-1.7
		c-0.2-1.1-0.3-1.4-0.4-1.4c-0.1,0-0.2,0.2-0.2,0.2s-3.8,7.2-4.2,7.2c-0.1,0-0.1-0.1,0-0.3c0.5-2.1,2.8-8.8,3.9-9.9
		c0.3-0.3,0.5-0.4,0.7-0.4c0.5,0,0.7,0.8,0.7,0.8l0.4,1.4c0,0,4.6-10.2,6.4-12C22.5,4.2,22.8,4,23,4.1 M23,3.8c-0.3,0-0.6,0.2-1,0.5
		c-1.6,1.6-5.3,9.4-6.2,11.5L15.6,15c-0.1-0.4-0.3-0.9-0.9-0.9c-0.3,0-0.6,0.2-0.9,0.5c-1.1,1.2-3.5,8.1-3.9,10
		c-0.1,0.3-0.1,0.4,0,0.5l0.1,0.1h0.1c0.1,0,0.5,0,4.4-7.3c0.1,0.2,0.1,0.5,0.2,1c0.2,1.3,0.4,1.8,0.8,1.8c0.2,0,0.3-0.1,0.3-0.1
		c0.1-0.1,7.6-11.4,8.3-12.5c0.5-0.7,0.4-2.5-0.1-3.5C23.6,4,23.2,3.8,23,3.8L23,3.8L23,3.8z"/>
</g>
</svg>
