<?xml version="1.0" encoding="UTF-8"?>
<svg id="Livello_1" data-name="Livello 1" xmlns="http://www.w3.org/2000/svg" version="1.1" viewBox="0 0 76.5 76.5">
  <defs>
    <style>
      .cls-1 {
        fill: #424242;
      }

      .cls-1, .cls-2, .cls-3, .cls-4 {
        stroke-width: 0px;
      }

      .cls-2 {
        fill: #070707;
      }

      .cls-3 {
        fill: #212121;
      }

      .cls-4 {
        fill: #fff;
      }
    </style>
  </defs>
  <g>
    <path class="cls-4" d="M22.7,55.1l.4-.7c.4-.7,1.6-2.4,3.1-4.8,4.3-6.5,15.9-23.8,15.9-27.2s-1.6-4.8-3.1-6.2l-3.4-3.4,4.7,1c6,1.3,9.7,6.5,9.1,12.9-.6,6.8-17.5,33.9-19.4,36.9l-1.3,2-6.1-10.5Z"/>
    <path class="cls-4" d="M45.3,64c-1.9-3-18.7-29.7-19.4-36.5-.6-6.3,3.2-11.8,9.2-13.3l4.9-1.2-4,4c-1.5,1.5-2.9,2.9-2.9,5.2,0,3.5,11.7,21.3,16.1,27.9,1.5,2.3,2.6,3.9,3,4.6l.4.7-.4.7c-2.4,4.6-4.5,7.8-4.6,7.9l-1.2,1.8-1.2-1.8Z"/>
    <path class="cls-4" d="M26.3,29.5c-.6-1.2-.8-2.7-.8-4.6,0-8,6.5-14.2,12-14.2s12,7.6,12,14.2,0,3.1-.7,4.6l-1.3,2.9-1.3-3c-2.3-5.4-5.9-10.9-8.7-10.9s-5.7,4.2-8.6,10.9l-1.3,3-1.3-2.9Z"/>
  </g>
  <g>
    <path class="cls-2" d="M24.3,55.1c1.9,3.3,4.5,7.8,4.5,7.8,0,0,18.6-29.6,19.2-36.3.5-6.1-3-10.3-8-11.4,1.7,1.7,3.5,4,3.5,7.2,0,4.9-17.4,29.7-19.2,32.7Z"/>
    <path class="cls-3" d="M51,55.4c-2.4,4.6-4.5,7.8-4.5,7.8,0,0-18.5-29.2-19.2-35.9-.6-6.1,3.3-10.6,8.2-11.8-1.7,1.7-3.7,3.5-3.7,6.6,0,4.9,17.5,30.2,19.3,33.3Z"/>
    <path class="cls-1" d="M48.1,24.9c0,1.3,0,2.8-.6,4-1.6-3.9-5.7-11.8-10-11.8s-8.2,7.9-9.9,11.8c-.6-1.3-.7-2.8-.7-4,0-7,5.6-12.8,10.6-12.8s10.6,5.8,10.6,12.8Z"/>
  </g>
</svg>