<svg xmlns="http://www.w3.org/2000/svg" xmlns:xlink="http://www.w3.org/1999/xlink" width="169.965" height="158.234" viewBox="0 0 169.965 158.234">
  <defs>
    <filter id="Tracciato_33" x="0" y="0" width="149.003" height="158.234" filterUnits="userSpaceOnUse">
      <feOffset dy="3" input="SourceAlpha"/>
      <feGaussianBlur stdDeviation="3" result="blur"/>
      <feFlood flood-opacity="0.161"/>
      <feComposite operator="in" in2="blur"/>
      <feComposite in="SourceGraphic"/>
    </filter>
    <filter id="Tracciato_37" x="128.27" y="36.512" width="41.695" height="105.306" filterUnits="userSpaceOnUse">
      <feOffset dy="3" input="SourceAlpha"/>
      <feGaussianBlur stdDeviation="3" result="blur-2"/>
      <feFlood flood-opacity="0.161"/>
      <feComposite operator="in" in2="blur-2"/>
      <feComposite in="SourceGraphic"/>
    </filter>
  </defs>
  <g id="Raggruppa_20" data-name="Raggruppa 20" transform="translate(-1619.547 -633.181)">
    <g transform="matrix(1, 0, 0, 1, 1619.55, 633.18)" filter="url(#Tracciato_33)">
      <path id="Tracciato_33-2" data-name="Tracciato 33" d="M0,0C-.075-5.213,13.731-22.037,67.761-22.015S130.853-2.9,131,0s-5.29,25.3-5.29,50.909S131,102.424,131,102.424s-7.114,15.249-64.95,15.783S0,102.424,0,102.424,6.384,75.089,6.384,49.483.075,5.213,0,0Z" transform="translate(9 28.02)" fill="#fff"/>
    </g>
    <path id="Tracciato_34" data-name="Tracciato 34" d="M112.229,14.667C64.071,14.994,55.768.917,55.768.917S61.25,23.148,61.25,46.585s-4.884,47.151-4.884,47.151,5.609,12.484,55.269,13.612c1.2.027,3.9-.336,3.907-2.491,0,0,.472-76,.487-82.157S116.351,14.638,112.229,14.667Z" transform="translate(1577.72 667.076)" fill="#dbdbdb"/>
    <ellipse id="Ellisse_17" data-name="Ellisse 17" cx="23.5" cy="6.5" rx="23.5" ry="6.5" transform="translate(1671 652)" fill="#dbdbdb"/>
    <g transform="matrix(1, 0, 0, 1, 1619.55, 633.18)" filter="url(#Tracciato_37)">
      <path id="Tracciato_37-2" data-name="Tracciato 37" d="M14.929-.089,35.512,4.673C24.191,24.067,27.357,65.9,33.451,87.218H16.867a262.134,262.134,0,0,1-5-42.829C11.364,22.585,14.929-.089,14.929-.089Z" transform="translate(125.45 42.6)" fill="#fff"/>
    </g>
  </g>
</svg>
