<?xml version="1.0" encoding="UTF-8"?>
<svg xmlns="http://www.w3.org/2000/svg" version="1.1" viewBox="0 0 150.6 111.3">
  <defs>
    <style>
      .cls-1 {
        mix-blend-mode: multiply;
      }

      .cls-1, .cls-2, .cls-3, .cls-4, .cls-5, .cls-6, .cls-7, .cls-8, .cls-9, .cls-10, .cls-11, .cls-12, .cls-13 {
        stroke-width: 0px;
      }

      .cls-1, .cls-13 {
        fill: #d6c9c3;
      }

      .cls-2 {
        fill: #e3b871;
      }

      .cls-3 {
        fill: #f6dfbb;
      }

      .cls-4 {
        fill: #473220;
      }

      .cls-5 {
        fill: #e49645;
      }

      .cls-6 {
        fill: #cf661d;
      }

      .cls-7 {
        fill: #d7853b;
      }

      .cls-8 {
        fill: #d4793c;
      }

      .cls-9 {
        fill: #222221;
      }

      .cls-10 {
        fill: #44352e;
      }

      .cls-11 {
        fill: #67524a;
      }

      .cls-14 {
        isolation: isolate;
      }

      .cls-12 {
        fill: #fff;
      }
    </style>
  </defs>
  <g class="cls-14">
    <g id="Livello_1" data-name="Livello 1">
      <g>
        <path class="cls-7" d="M-127.4-35.2l1.8-8.4-5.3-6.3-7.5-4.4-4.2,2.5s2.7,6.1,5,8.1,5.9,1.3,6.6,2.1.5,3.6.2,4.3c-1.8,5.2-6.3,8.7-6.3,8.7l8-2.6,1.8-4.1Z"/>
        <path class="cls-9" d="M-187.4-28s1.4-2.2,3.5-2.5,3.8-.7,3.8-.7c0,0,1.8-2.1,1.8-2.9s-.6-8.5.6-7.5c0,0,1.5,12.1,1.2,12.9s-2.5.7-2.5.7c0,0-.2,1.2-1.2,1.5s-8.4-.1-7.2-1.5Z"/>
        <path class="cls-7" d="M-183.9-44.4s1.6,2.9,2,6.8c.7,6.7-1.2,7.8,0,8s3.6-1.9,3.6-1.9l.6-10.2s-.1-7.7,0-8.9,0-4.8,0-4.8l-6.2,11Z"/>
        <path class="cls-3" d="M-177.6-55.4s.3,1.2,0,2.3,1.6,3.7,1.6,3.7c0,0,1.1-2.5,2.4,0s2.5,1.9,2.5,1.9c0,0-1-2.5,1-2.3s3.3,2.3,3.3,2.3c0,0,0-2.4,1.2-2.2s1.7,2.2,1.7,2.2c0,0,1-2.1,3.1-1.5s3.4,1.5,3.4,1.5c0,0,0-1,1-1,3-.1,4,1,4,1,0,0,.6-2.6,1.6-1.9s.5,1.9.5,1.9c0,0,2.1-2.6,2.7-1.7s.4,1.7.4,1.7c0,0,2.2-3.4,2.7-2.6s0,1.7,0,1.7c0,0,1.1-1.4,2-1.2s.9-2.3,1.7-1.7.7,1.3,1.5,1.3,1-3.2,1.5-2.7c.8.8,4.2,2.3,4.2,2.3l.8-7.6h-45v2.7Z"/>
        <path class="cls-9" d="M-203.9-28s1.3-2.6,3.4-3,5.2-1.8,5.2-1.8c0,0,4.5-3.7,5.4-4.9s3.4-5.8,4.6-7.3,5.7-6.4,6.9-5.3c0,0-3.5,6-4.5,7s-8.1,11.2-8.5,12.1-1.2,2.6-1.8,3.2-3.5.8-4.1.8-7.3.5-6.5-.8Z"/>
        <path class="cls-9" d="M-141.6-27.1s1.3-2.2,3-2.2,4.4-.2,5.4-.7,2.5-3.3,3-4.1,3-4.9,3.4-4.2-1.2,5.2-1.7,6.1-2.5,4.4-2.6,5.1-2.5,1.4-3.8,1.4-8,.3-6.6-1.4Z"/>
        <path class="cls-9" d="M-126-27.1s0-.4,1-1.5,1-1.4,3-1.5,1.9-.4,1.9-.4v-5.9c0-.7-1.3-4.6-1.1-5.4,0,0,.9.3,2.4,1.9s2.7,3.5,2.7,4.6-.4,5.1-.7,5.8-1.7,2.7-2.6,3c-1.6.4-6.8,1.3-6.6-.7Z"/>
        <path class="cls-7" d="M-105.9-51.6"/>
        <path class="cls-5" d="M-115.6-38.9c-.5-1.7-1.7-4.4-1.7-4.4,0,0-.8-26.3-7.8-34.7-3.1-3.7-9.8-4.3-9.8-4.3,0,0-1.3,0-3.4,0,.1-.4.4-.9,0-1.1,0,0-1,.7-2.4,1.1-.9,0-1.9,0-2.9,0-1.3-.5.6-1.6-.4-1.5-2.5.1-2.2.4-4.2.7-4,.7-5.2-3.2-5.1-2.1.2,1.7-7.4,2.5-6.7.7.3-.7-5.4,1.4-7,.8-1.6-.5,1-1.2.5-1.5s-4.6.7-6.6.2c-4.8-1.3-5.1-1.3-5.9-1.5-2.7-1.1-4.9-2.3-6.1-3-3-1.9-4-5.2-4-5.2,0,0,1.4-12.2.8-14s-4,.6-5.6,1.6c-1.6,1-4.8,6.2-4.8,6.2l-2.5-.2c-2.5-.2-5.6.6-5.6.6l-1.3-2.4c-1.3-2.4-5.7-7.1-7.8-6.5-2.1.6,0,14.8,0,14.8,0,0-1.9,1.2-3.5,2.8-.6.6,1.3.9,1.4,1.9.3,1.7-3.4,3.8-3.4,3.8-.2,1.3,11,.7,11,.7,0,0,2.7,4.1,3.3,4.8.6.6,2.5,1.9,4.1,1.9s3-.8,4.3-1.9c1.3-1.1,2.9-4.3,2.9-4.3l1.4.2c1.4.2,4.1,1.3,4.9,1s-1,1.3-.5,2.5c.5,1.3.3,5-3.3,10.2s-1,9-.6,12.2c.3,3.2,3.3,2.2,4.9,3.6,1.6,1.4-.5,10.6-1.3,12.3-1,1.9-5.2,10-4.5,9.7,4.2-1.8,13.6-15.1,15.2-15.8l3.5-6.4s5.7,1.9,8.9,2.4,13.5.5,17.3.3c3.8-.2,12.7-3.2,12.7-3.2,0,0,1.1,1.9,2.7,4.3,1.6,2.4,7.9,7.5,8.6,7.8s4.2,1.2,5.7,3.3c.9,1.4,1.6,1.7,2.3,2.5.6.8,1.5,3.7,1.5,3.7,0,0,1-3,.5-4.8Z"/>
        <path class="cls-3" d="M-213.3-82.4l-1.6,2.9s1-.5,1.4,0,.2,2.1.2,2.1c0,0,.8-.6,1.1,0s-.7,5.7-.3,6,.8-.5,1.2-.3-.3,2.4,0,2.7,1.3-.7,1.4,0-.8,2.6-.8,2.6c0,0,1.2-1.3,1.6,0s.6,1.8.6,1.8c0,0,1.4-1.6,1.5-1.1s.1,3.2.4,3,1.3-.6,1.4,0,.9.2,1.1,0,.4,2.4.6,2.8.8-1.4,1.3-.8-.2,2.1.3,2.4,1.6-1.1,1.7-.3-.3,1.9,0,2.3.5-.3.9.3.4,1.7.8,2.1,2.1,0,2.7.2-.4.8,0,1.2,1.9-1.1,2.1-.7c.5,1.1-.7,2.8-.2,3.1s2.6-1,3-.5.4,1.2.6,1.4,2-.8,2.2-1.7-.1,1.5.2-1.6-.6-3.5-1.4-3.9-4.3-.6-3.9-1.4l2-.6s-3.4-2.6-2.4-2.8,1.6,0,1.6,0c0,0-1.9-4.8-1.3-5.1s1.7.3,1.7.3c0,0,.2-1.7.1-2.9s.2-2.3.5-1.9.9,1.1.9,1.1c0,0,.2-.6.3-1.7s.9-2.8,1.2-2.1,0,1.5,0,1.5c0,0,.3-3.1.6-3.8s1,1.1,1.2,1.4.8-1.1.6-1.5-.9-3.8,0-3.4,1.4.8,1.4.8c0,0-.8-2-.6-2.5s1.6-.7,1.6-.7c0,0-2.1-2.3-1.6-2.1s1.2-.6,1.2-.6c0,0-4.1-.8-5.1-.7s-11.8,4.9-11.8,4.9l-9-2.9-4.7-.8,1.6,1.5Z"/>
        <path class="cls-2" d="M-195.2-101.1s3.8-5.2,4.1-4.4,0,6.7,0,6.7c0,0-1.8-1.1-4.1-2.2Z"/>
        <path class="cls-2" d="M-208.7-99.9s-3.5-7.3-4.3-5.6,0,8.8,0,8.8l4.3-3.2Z"/>
        <path class="cls-4" d="M-198.6-86.9s.2-1.4,1.6-1.9,2.1.3,1.8.8c-.7,1.1-3.4,1.1-3.4,1.1Z"/>
        <path class="cls-4" d="M-205.2-86.9s-.2-1.4-1.6-1.9-2.1.3-1.8.8c.7,1.1,3.4,1.1,3.4,1.1Z"/>
        <path class="cls-12" d="M-202.2-81s4-3.8,5.4-3.8,3.7-.9,3.7-.9l4.8.2s2.6,1.1,1.8,1.1-2.9.3-2.6.8,2.2,2,1.2,1.6-1.1-.2-1.4-.2.2,1.1-.2,1.1-1.6-1.2-2.3-1.1c-1.4,0-2.6.2-2.9.6-.6.8-3.7,7.1-6.6,7.4s-5.9-4.1-6.7-4.9-1.5-2.5-3.1-2.8-4.8.7-4.8.7c0,0,1.4-1.3.7-1.6s-2.6.7-2.6.7c0,0,1.7-1.4.6-1.5s-3,.5-3,.5c0,0,.8-2.2,1.9-2.5s6.5-1.3,6.5-1.3l5.2,1.9,4.4,4Z"/>
        <path class="cls-9" d="M-203.8-79.5s.4-.6,1.9-.7,2,.7,2,1.2-1,2.3-2,2.3-2.3-2-2-2.9Z"/>
        <path class="cls-3" d="M-114-41.5s.4,4,.6,4.8c.7,2.7,4.5,3.6,4.5,3.6,0-1.7,1.3-.4,1.5.4s.2,1.3.7,1.9.3-1.5,1.7-.9.7,1.4,2,2.3-.7-2,1.2-1.5,2,1.5,2,1.5c0,0-.3-5,1.1-3.3s.6,3.3,1.6,4.1l.7-3.2s1.3,1.5,1.2.4-1.3-3-.4-2.3,1.3.4,1.3.4c0,0-2-4.3-1.3-3.7s1.3,0,1.3,0c0,0-2.6-2.4-3.6-4.4s-2-3.3-2-3.3l-14.2,3.3Z"/>
        <path class="cls-7" d="M-98.3-42.5c.3.4-3.1-6-3.1-6,0,0,.1,0-.7-1.2s.1-1.6-2-4.4-2.9-2.6-2.9-3.1c0,0,1.7.5,1.6,0-.2-1-1.4-2-2.2-2.6s-4.8-3.5-4.9-4.1,2.6-.7,2.6-.7c-.9-1.3-4.5-1.9-5-2.4-2.4-2.3-2.5-3.7-1.9-3.5s1.8,1.3,1.8,1.3c0,0-.6-1.5-1.5-2.5s-4.1-1.9-4.1-1.9c0,0,1.7-.4,2.4-1s-1.7.1-4.2-1.8-2.5-2.4-1.6-1.7,3.9.7,3.9.7c0,0-2.3-1.4-5-3.3s-4.3-.4-4.3-.4l1.8,3.6s6.8,10,7,12.8-.5,11.8-.5,14.2,1.4,5,1.8,5.7,2.5,1.1,3.8,3.2,1.7,3.5,2,4.9.4-1.6.7-1.4c.6.4.8.3,1.2.8s2.6-.5,2.8-.4,1.7,3.6,2.7,3.2c0,0,0-1.9.7-1.7,2,.8,3.6,1.1,4,1.5,0,0-1-1.4,0-1.5s1.8,2,1.8,2c0,0-.7-3,.8-2.5s2.1,1.5,2.1,1.5c0,0-.2-3.2,0-2.9s-1.9-4.5-1.9-4.5Z"/>
      </g>
      <g>
        <path class="cls-6" d="M43.4,43.6l-8.9,5.7-3.4,3.8-.8,1.2-3.6,2.4-1.2,1.2-1.8,1.6s-6.7,6.3-6.9,6.9c-.2.6.4,1,.4,1,0,0-2.6,2.4-3.2,3-.6.6-4.9,6.1-4.9,6.1l-5.1,7.1-3,7.7L0,100.9l.8,2.2s4.7-.6,5.3-1c.6-.4,9.1-1.8,9.1-1.8l6.7-5.3s8.1-8.7,8.3-9.3c.2-.6,3.4-3.7,3.6-4.3.2-.6,2.2-1.8,2.2-2.6s.4-7.3.4-7.3l1.8-6.5s2.8-4.9,2.8-5.7,2.2-15.8,2.2-15.8Z"/>
        <path class="cls-13" d="M14.4,97.7s1.2-.6,1.2-1.8-4.1-.8-4.1-.8c0,0-1.8-2.3-2.4-4.5s-3.2.2-3.2.2l-2.8,1.4-1.7-2.2-.5,1.4L0,100.9c.1,0-.4,1.9.8,2.2,0,0,4.7-.6,5.3-1,.6-.4,9.1-1.8,9.1-1.8l1.7-1.4-2.5-1.3Z"/>
        <path class="cls-1" d="M41.5,56.3l-4,1.3-3.4,12.6-4.5,7.3-7.1,8.5-6.1,6.3-4.9,2.8-4.7,2.8-6.7.7-.2,3.6s0,.8,1,1,4.4-.6,5-1c.6-.4,9.1-1.8,9.1-1.8l6.7-5.3s8.1-8.7,8.3-9.3c.2-.6,3.4-3.7,3.6-4.3.2-.6,2.2-1.8,2.2-2.6s.4-7.3.4-7.3l1.8-6.5s2.8-4.9,2.8-5.7.2-1.4.4-3.1Z"/>
        <path class="cls-11" d="M126.5,9.2c.2-.5,4.6-11.2,5.3-6.5l.6,4.6.2,3.9-6.1-2Z"/>
        <path class="cls-6" d="M70.1,68.1s.4,6.2.4,8.7-2.4,6.3-2.4,6.3l-3.9,4.3-3.4,2.8-.6,2.2.6,4.1,2.6,5.7.8.8,2.2.6,2,2.4-.4,1.6h-5.3s-3.4-.2-3.4-.2l-.4-2.8-1-1.2-.2-2-2.2-4.3-3.2-5.9s-.2-1.8.8-2.8,2.3-1.2,3.4-1.8,2.2-7.7,2.2-7.7l2-14.6,9.3,3.8Z"/>
        <path class="cls-10" d="M64.3,103l-.8-.8-2.6-5.7-.6-4.1.4-1.4s.4-.3-1.4-.6-1.8,1.2-1.8,1.2l-2.8-.6-2-.4-.2.6,3.2,5.9,2.2,4.3.2,2,1,1.2.4,2.8,3.4.2h5.3s.4-1.6.4-1.6c0,0-1.1-2.2-2-2.4l-2.2-.6Z"/>
        <polygon class="cls-6" points="116.6 66.5 115.5 79 114.7 88.4 114.5 93.4 115.9 98.7 118.6 99.7 120.4 102 120.2 104 114.9 103.8 112.3 101.1 109.9 91.8 109.9 68.5 116.6 66.5"/>
        <polygon class="cls-11" points="120.4 102 118.6 99.7 115.9 98.7 114.5 93.4 114.7 88.4 115.5 79 115.8 75.5 112.5 74.6 109.9 76.4 109.9 91.8 112.3 101.1 114.9 103.8 120.2 104 120.4 102"/>
        <path class="cls-6" d="M150.6,25.1c.2.8-1.6,3.4-1.6,3.4l-3.1,1.9h-6.5c0-.1-4.8.2-4.8.2l-3.8,3-4.3,13.4-3,11.4-4.1,6.7-4.7,5.7-2.6,1.8-.8,15.2-.4,9.7-.4,2.6,1.4,4.7,2.6.6,1.8,3.4-1,.8-7.9-.8-2-7.7-.4-4.7-.5-4.6-1.4-4.2-2-15.8-2.6-2-6.1,1.4-10.9-.2-14-2-3.9,5.7-2.2,5.9-5.3,4.7-9.1,4.7-2.4,2.2,1.4,12.6,2.4.8,2.2,1.8.6,3.6-2,.2h-5.1s-3.2-2.8-3.2-2.8l-1.4-1.2-.4-7.7-3-10.7,4.9-6.1s.9-2.4.6-5.5-2.8-9.7-2.8-9.7l-2.4-9.3s-.4-4.1,1.6-7.9,2.5-5.5,5.3-7.7,10.9-4.7,10.9-4.7l19.1-1.6,14-.9,7.2.2h5.7c0,.1.5-2,3.3-4.4,2.8-2.4,6.3-8.3,6.3-8.3l6.4-10.8,7.1-3.9,7.3.6s7.3,5,7.9,5.9,1.3,3,1.8,3.4l3,2.6s7.1,3.4,7.3,4.3Z"/>
        <polygon class="cls-10" points="114.5 105.4 111.9 104.8 110.5 100.1 110.9 97.5 111.3 87.8 112 74.6 109.3 74 108.4 72.2 103.8 70.5 101.3 73.3 103.2 87.8 104.6 91.9 105 96.5 105.4 101.1 107.4 108.8 115.3 109.7 116.4 108.8 114.5 105.4"/>
        <path class="cls-10" d="M56.1,85.3l1.2-1.1h-1.8c0,0-9.3,1.7-9.3,1.7l-4.1-.8-1.2-2.9v.4s-4.9,3.7-4.9,6.1,3,10.7,3,10.7l.4,7.7,1.4,1.2s2.8,2.8,3.2,2.8h5.1s2-.2,2-.2c0,0,.7-2.6-.6-3.6l-2.2-1.8-2.4-.8-1.4-12.6,2.4-2.2,9.1-4.7Z"/>
        <polygon class="cls-13" points="101.8 68.3 100.7 66.5 90.8 67.5 79.1 67.5 70.1 66.9 66.9 66.7 67.5 69.1 81.5 71.1 92.4 71.3 98.5 69.9 100.5 71.4 101.8 68.3"/>
        <path class="cls-13" d="M145.1,26.5l-4.7-2.2s-1.9-1.2-3.7-1.6-5.5.8-5.5.8l-6.9,2.8s-3,1-4.5,1.4-1,2.4-1,2.4l1.2,5.5s.9,6.6,1,10.5-1.3,8-2.3,10.1l-3.4,7-2,5.3s-.3,2.3-.3,3.3,1.5-1,1.5-1l4.7-5.7s2-1.6,4-5.3,6.8-24.5,7.3-25.5c.6-1.2,2.5-2.6,3.7-3.1s3.2-.5,5.2-.5,5.3.6,5.9.6,3-1.6,3.6-2.4.7-1.3.7-1.3l-4.7-1Z"/>
        <path class="cls-1" d="M108.4,106.8l-1.4-6.7-.2-7.7-1.6-6.1v-17s.8-3.9.1-5.6-3-1.5-3-1.5l-13.6,2.8-14.2-.8s-8-2.9-10.1-3.9-2.6,1.2-2.6,1.2c0,0,1.6,2.4,1.4,4.7s-1.4,6.7-5.5,11.4-8.1,7.3-8.1,7.3l-6.7,6.9,1.4,9.1,1.3,1.1-1.1-9.8,2.4-2.2,9.1-4.7s4.1-2.8,5.3-4.7.8-2.5,2.2-5.9,3.9-5.7,3.9-5.7l14,2,10.9.2,6.1-1.4,2.6,2,2,15.8,1.4,4.2.5,4.6.4,4.7,2,7.7,1.5.2-.5-2.2Z"/>
        <path class="cls-8" d="M125.7,10.3s2.6-.5,3.7-.6,2.4,0,1.2-.8-7.3-.6-7.3-.6c0,0-3.6-1.3-7.1,3.9s-11,16.1-13.4,18.2c-4.7,4.2-13.4,4.3-13.4,4.3l-16.2,1.6-19.1,1.6-8.1,3.5,4.7-.4,17.4-2.6,16-.8s8.5.9,16-1.8c7.4-2.7,10.9-10.1,10.9-10.1l8.8-13.2,5.9-2Z"/>
        <polygon class="cls-11" points="135.8 17.6 139 19.3 141.2 20.5 139.9 19.1 137.1 17.3 135.8 17.6"/>
        <polygon class="cls-8" points="123.4 .6 121.2 1.6 117.4 11.3 118.1 13.2 122.8 16.2 123.8 14.2 125.4 12.4 126.9 12.3 126.8 8 123.4 .6"/>
        <path class="cls-6" d="M122.7,2.5s.3-2.7,1.1-1.2-.3-.8-.3-.8l-2.3,1.1-3.8,9s-.5,2.3-.3,5.8c.1,2,5.8-.2,5.8-.2l.5-1.1s0,.2-.5-2.9c-.5-3.1-.1-5.9-.1-5.9v-3.8Z"/>
        <path class="cls-1" d="M126,10.5s-.1-2.6-.5-3.9-1.2-3-1.7-3.6-.3,2.7-.3,2.7l.2,4.3.5,3.7,1.2-1.3h.5s0-.3,0-.3v-1.6Z"/>
        <path class="cls-10" d="M123.4.6c-1.1-1.7-2.3,1.1-2.3,1.1l-2.3,5.8s1.1-.9,2.1-.9,1.7.6,1.7.6v-.8s0-2,0-3.8,1.1-1.2,1.1-1.2c0,0,.3.2-.3-.8Z"/>
        <polygon class="cls-11" points="148 29.9 146.3 29.7 143.5 29.2 139.3 28 135.3 28.4 135.3 28.8 137.4 28.7 139.4 28.6 142.6 29.4 145.3 30.1 147.2 30.4 148 29.9"/>
        <path class="cls-11" d="M149.1,26.5l.6,1.1s1.1-1.4.8-2.5-.9-.5-.9-.5l-1.2.2v.9s1,.2,1,.2v.6h-.4Z"/>
        <polygon class="cls-10" points="137.5 16.4 137.4 17 137.5 17.7 138 18.3 136.3 18 134.8 18 135.9 17 137.5 16.4"/>
      </g>
    </g>
  </g>
</svg>