<?xml version="1.0" encoding="UTF-8"?>
<svg id="Livello_1" data-name="Livello 1" xmlns="http://www.w3.org/2000/svg" version="1.1" viewBox="0 0 76.5 76.5">
  <defs>
    <style>
      .cls-1 {
        fill: #484929;
      }

      .cls-1, .cls-2, .cls-3, .cls-4, .cls-5, .cls-6, .cls-7, .cls-8, .cls-9, .cls-10, .cls-11, .cls-12 {
        stroke-width: 0px;
      }

      .cls-2 {
        fill: #af6361;
      }

      .cls-3 {
        fill: #a8656a;
      }

      .cls-4 {
        fill: #fbd4c3;
      }

      .cls-5 {
        fill: #c69687;
      }

      .cls-6 {
        fill: #312323;
      }

      .cls-7 {
        fill: #e5b8a8;
      }

      .cls-8 {
        fill: #e9f1e6;
      }

      .cls-9 {
        fill: #a5786b;
      }

      .cls-10 {
        fill: #ffefeb;
      }

      .cls-11 {
        fill: #fff;
      }

      .cls-12 {
        fill: #eaf1e9;
      }
    </style>
  </defs>
  <path class="cls-11" d="M38.4,67c-5.8,0-7.4-2.2-9.1-4.6l-.8-1.1c-1.4-1.9-3.2-4.2-4.3-6.3h0c-1-1.7-1.6-3.4-1.9-5.3s-.2-.7-.4-.9c-.7-.6-1-1.4-1.1-2.3,0-1.6-.9-6.7-1.1-8-.1-.4-.2-.8-.2-1.2,0,0-.2,0-.2,0-.7,0-1.9-.1-2.8-1.1-1.4-1.5-.5-3,0-3.8.3-.5.5-.8.5-1.2,0,0-.3-.2-.5-.2-.7-.3-1.7-.8-2.3-2.1s-.1-2.5.8-2.7h0c.6-.1,1.6.8,2,1.3s.3.3.4.4c0-.2-.2-.4-.3-.6-.6-1.1-1.3-2.5-1-4.2.1-.6.1-1.2.1-1.9,0-2,0-4.5,3.1-6.2.9-.5,1.4-1.1,1.9-1.8,1-1.2,2.1-2.7,5.3-2.7s1,0,1.6,0c.6,0,1.2.1,1.8.1,2,0,3.8-.4,5.7-.8,2.1-.4,4.3-.9,7-.9s.5,0,.8,0c6.1.2,12.7,1.2,14.4,7.1.6,2,1.2,3,1.8,3.9.7,1.2,1.4,2.3,1.4,4.7,0,3.1-.7,4.7-1.1,5.4s0,.2-.1.2c-.2.5-.5,2,0,3.4,0,.3.3.7.5.9s.5.6.5,1l.2,2c-.2,0-.4,0-.7,0-1,0-1.9-.2-2.6-.7,0,.4-.1.9-.1,1.4,0,.8-.3,1.6-.8,2.4s-.2.5-.2.8c0,2-.2,4.3-.5,5.7-.3,1.2-.7,1.9-1.2,2.3s-.4.5-.5.9c-.4,2.2-1.3,3.3-2.1,4.2s-.9,1.2-1.2,1.7c-1,1.7-2.1,3.4-2.6,4.2h0c0,.1,0,.2,0,.2-.1.2-.3.4-.5.7-.5.6-.8,1.1-1.1,1.6-1.3,2.2-2.3,3.5-7.3,3.6-.2,0-.4,0-.6,0Z"/>
  <g>
    <path class="cls-4" d="M52.2,49.2s1.6.4,2.1-2,.5-7.9.5-7.9l-1.4,1s-1.7,7.8-1.3,8.9Z"/>
    <path class="cls-4" d="M24.3,48.5s-2.1-.3-2.2-2-.9-7.2-1.1-8.2,3.3,1,3.3,1v9.2Z"/>
    <path class="cls-4" d="M46.8,60.1s1.7-2.6,2.9-4.7,3-2.3,3.1-7.5,1.7-6.2.6-9.9-1.2-7.6-1.2-9.4-.6-6.4-3-7.4-13.7,0-13.7,0l-7.7,2.7-2,3.7-.4,5-2.9,8s.8,3,.8,5.7.5,5.3,2,7.7,8.7,8.5,8.7,8.5l5.7,1.4h4l3-4Z"/>
    <path class="cls-7" d="M35.6,21.3s-4.9.5-6.9.6-4.1,1.9-4.4,5-1.8,10.4-1.6,13.9c0,0,.1-1.1.6-1.6s.7,4,.8,5.3,0,5.7.7,8.1,3.8,6.4,5.6,8.8,3,4.4,8.7,4.2c5.7-.1,5.1-1.9,7.3-4.7s-2.1,1.7-3.3,2.4-3.9-1.3-5.6-1.1.4-1.4,2.1-1.1,0-.6-2.3-.5-4.8-2.4-5.4-3.5,2.8-3.1,4.3-3.2,0-1.3,2.4-1.1-.1-1.4,0-2.4,1.9-1.7,1.9-1.7c0,0,1.4-.4,1.2,0s1.5-.6-.5-.9-2.3.6-4,.2-.5-1.4-.4-3.1-.7-2.9-.2-4.9,0-2.6.1-4.9-3.1-3.2-5.6-4.7-3.2-2.4-4.3-1.8,0-1.7,3.6-.4,5.7,2,9.4,1.2,7.5-2.1,9.3-.6c0,0-.1-1.9-8-.4,0,0-2.6.9-5.9-.4s2.4,0,5-.4,5.2-1.4,7.7-.6,3,2.1,3,2.1c0,0-.6-2.7-5.6-2.8s-6.5.1-8.6-.2,3.8.1,6.5-.6,4.4-.4,5.6.4c0,0-2.1-1.8-6.7-.7s-8-.8-8-.8c0,0,5.4,1.1,9.4-.3,0,0-4.5.6-6.9,0s-1.2-2.6-1.2-2.6Z"/>
    <path class="cls-6" d="M34,54.8s-2.8,1.1-2.2,2,5.6,1.6,8.7,1.4c3.1-.2,3.9-1.4,3.9-1.4,0,0-1.6-1.8-3.9-2.3s-6.5.3-6.5.3Z"/>
    <path class="cls-6" d="M41.5,34.3s-.9.5-.6-.9.9-1.8,3.5-2.8,5.5-1.7,6.4,0,1,4,1.4,5.1-.6-.8-1.2-2.3-1.6-2.5-3.2-2.2-4.3,2.7-6.2,3.1Z"/>
    <path class="cls-12" d="M41.7,38.3s.8-.5,1.4-1.6,3-1.4,4.2-.4.9,2.2.9,2.2c0,0-.6,1.7-2.5,1.7s-2.9-.9-3.3-1.1-1-.2-.8-.9Z"/>
    <path class="cls-5" d="M41.6,37.7s1.3-2.9,3.1-3.3,3.2.5,3.2.5c0,0-1.7-.5-2.5-.3s2.1-.1,3,1.7c0,0,.5,1.3.5,1.7s-.5-2.1-1.9-2.5-3.1-.9-5.5,2.2Z"/>
    <path class="cls-6" d="M43.1,36.8s.8-1,1.6-1.1,1.6,0,1.8-.6c0,0,0,.2-.2.5,0,0,.6,0,1.1.5s.9.8,1.4.7c0,0-.5.3-.7,0,0,0,.3.6.3,1s-.3.8-.3.8c0,0,.3-1.8-1.8-2.6s-3.4.7-3.4.7Z"/>
    <circle class="cls-1" cx="45.4" cy="38.6" r="1.5"/>
    <circle class="cls-6" cx="45.3" cy="38.6" r=".6"/>
    <ellipse class="cls-8" cx="45.7" cy="37.9" rx=".6" ry=".3"/>
    <path class="cls-7" d="M41.6,39s1.8,1.7,3.8,1.7,3-1,3-1c0,0-.7,1-1.8,1.2s-.4.6.2.8,1.8.3,2.6.1-1,.8-2.6.7-3.4-.7-2.2.1,2,.9,2.4.9-.6.8-2.5-.3-2.9-2.7-3.1-3.4,0-1.2.4-.9Z"/>
    <path class="cls-6" d="M34.6,34.4s.9.5.6-.9-.9-1.8-3.5-2.8-5.5-1.7-6.4,0-1,4-1.4,5.1.6-.8,1.2-2.3,1.6-2.5,3.2-2.2,4.3,2.7,6.2,3.1Z"/>
    <path class="cls-12" d="M34.4,38.5s-.8-.5-1.4-1.6-3-1.4-4.2-.4-.9,2.2-.9,2.2c0,0,.6,1.7,2.5,1.7s2.9-.9,3.3-1.1,1-.2.8-.9Z"/>
    <path class="cls-5" d="M34.5,37.9s-1.3-2.9-3.1-3.3-3.2.5-3.2.5c0,0,1.7-.5,2.5-.3s-2.1-.1-3,1.7c0,0-.5,1.3-.5,1.7s.5-2.1,1.9-2.5,3.1-.9,5.5,2.2Z"/>
    <path class="cls-6" d="M33,37s-.8-1-1.6-1.1-1.6,0-1.8-.6c0,0,0,.2.2.5,0,0-.6,0-1.1.5s-.9.8-1.4.7c0,0,.5.3.7,0,0,0-.3.6-.3,1s.3.8.3.8c0,0-.3-1.8,1.8-2.6s3.4.7,3.4.7Z"/>
    <circle class="cls-1" cx="30.7" cy="38.7" r="1.5"/>
    <circle class="cls-6" cx="30.8" cy="38.7" r=".6"/>
    <ellipse class="cls-8" cx="30.4" cy="38.1" rx=".6" ry=".3"/>
    <path class="cls-5" d="M34.5,39.2s-1.8,1.7-3.8,1.7-3-1-3-1c0,0,.7,1,1.8,1.2s.4.6-.2.8-1.8.3-2.6.1,1,.8,2.6.7,3.4-.7,2.2.1-2,.9-2.4.9.6.8,2.5-.3,2.9-2.7,3.1-3.4,0-1.2-.4-.9Z"/>
    <path class="cls-5" d="M39,49.5s.8.2,1.6,0,1.3-.8,1.3-.8c0,0-1.1-.8-2.9.8Z"/>
    <path class="cls-9" d="M36.7,49.6c-.1.1-1.5-1-2.6-.9s.5.9,1.1.9,1.5,0,1.5,0Z"/>
    <path class="cls-3" d="M32.1,56.1s0,.5,2,1,3.1.1,5,.4,3.4-.2,4.1-.5.8-.8.8-.8l.4.7s-.3,2-3,3.3-7,.4-8-.8-3-2.4-1.3-3.1Z"/>
    <path class="cls-5" d="M33.2,47.2s-1,1.3,0,2.3c0,0,.4.4,1.1.4,0,0-2-.6-1.1-2.7Z"/>
    <path class="cls-10" d="M32.4,55.8s2.1-.3,3.7-.3,7.5.5,7.5.5c0,0-1.7-1.5-4-1.8s-6.4.7-7.2,1.5Z"/>
    <path class="cls-2" d="M31.1,56.6s2.8-3.2,4.6-3,2.7.1,3.8,0,2.9.9,4.4,1.9.4,1.6,0,1.1-2.2-1.6-4.6-1.6-2.8-.4-4.5,0c-1.7.4-3.7,1.6-3.7,1.6Z"/>
    <path class="cls-6" d="M36.7,22s0,2.6,2.8,3.4,4.9-2.7,4.9-2.7c0,0-2,3.1-3.2,3.5s.7,2,2.4,1,1.5-3.8,1.5-3.8c0,0,.7,4.4-3.2,4.8s-6.3-1.3-7-3.6l-.7-2.3s-2.9,1.7-4.7,1.4-2.5.7-3.2,3.1-2.5,2.4-2.5,2.4c0,0,1.8-1.2,1.7-2.6s-1.3,1.9-1.3,3.8-1.7,8.9-1.7,9.7-1.7-.8-1.8-2.8-2.1-.6-3.4-1.9,1.1-2.3.9-4.1-3-.8-3.2-4.1c0,0,.9,3.1,3,2.2s-1.3-3.1-.8-5.8-.6-5.3,2.6-7.2,2.2-4.8,7.9-4.2c5.6.6,9.3-1.8,15.4-1.6,6.1.2,11.6,1.2,13.1,6.1s3.1,4.6,3.1,8.2-1,4.9-1,4.9c0,0-1,2.3-.1,4.7s2.6,2,2.6,2c0,0-2.5.4-3.4-1.3s-1.4,1.5-1.5,3.4-2.2,3.5-2.2,3.5c0,0-.1-3.3-.9-5.1s-1-4.8-1-7.4-1.4-2.4-2.8-3.6-2.7-4.5-2.9-4.9-.6,1.9-3.3,1.8-4.7-.7-3.7.6,3.4.2,3.4.2c0,0-2.5,1.7-4.5-1.1,0,0-1.1-1.8-1.2-.5Z"/>
  </g>
</svg>