<?xml version="1.0" encoding="utf-8"?>
<!-- Generator: Adobe Illustrator 27.9.0, SVG Export Plug-In . SVG Version: 6.00 Build 0)  -->
<svg version="1.1" id="Where_is_found" xmlns="http://www.w3.org/2000/svg" xmlns:xlink="http://www.w3.org/1999/xlink" x="0px"
	 y="0px" viewBox="0 0 32 32" style="enable-background:new 0 0 32 32;" xml:space="preserve">
<style type="text/css">
	.st0{fill:#6A5F51;}
	.st1{fill:#9C5F40;}
	.st2{fill:#FFFFFF;}
	.st3{fill:#6C412C;}
	.st4{fill:#E3E3E3;}
	.st5{fill:#383838;}
	.st6{fill:#3C3026;}
	.st7{fill:#3D2F24;}
</style>
<g id="ic_horses">
	<path class="st0" d="M21.6,29.9c0.4,0.4,1,1.4,0.5,1.5s-1.5,0.2-1.7-0.2c-0.2-0.4-0.1-1.2-0.1-1.2s0.3,0.1,0.7,0
		C21.4,29.9,21.6,29.9,21.6,29.9z"/>
	<path class="st0" d="M13.6,27.6c0.3,0.3,0.7,0.9,0.4,1c-0.3,0.1-1,0.1-1.2-0.1c-0.2-0.2-0.1-0.8-0.1-0.8s0.2,0,0.5,0
		S13.6,27.6,13.6,27.6L13.6,27.6z"/>
	<path class="st1" d="M11.7,25.8c-0.1-1-0.2-4.1,0-4.5c0.3-0.5,1-2.2,1-2.2c1.2,1,3.6,0.8,3.6,0.8s0.2,1.2,0.4,2.3
		c0.2,0.7,0.1,3.8,0.1,5.3c0,0-0.1,1,0,1c0,0,0.1-0.2,0.2-0.4c0-0.1,0-0.4,0-0.5c0-0.2,0.1-0.4,0.1-0.4c0.1-0.2,0.1-0.5,0.2-0.5
		c0,0.2,0.1,0.3,0.3,0.5c0.1,0.1,0.1,0.1,0.1,0.3c0,0.2,0.1,0.5,0.1,0.6v-0.4c0-0.8,0-1.7,0.1-2.6c0.2-1.4,0.2-4.5,0.2-4.5
		c0.6-0.8,0.7-1.4,0.8-1.4c0.1,0,0.2,0,0.4,0c0.2,0,0.5,0,0.5,0s-0.1,3.2,0,5c0.1,1,0,2.3,0,3.2c0,0,0.4-0.7,0.4-1
		c0-0.3,0.4-0.8,0.4-0.8s0.2,0.1,0.2,0.3c0,0.2,0.2,0.2,0.2,0.2v-0.8c0-0.9,0.1-2,0.2-2.8c1.1-4.5,1.2-8.5,1.2-8.5
		c-0.2-2.8,0-3.8,0-5.2c-0.4-3.5-1.4-5.5-1.4-5.6c-0.3-0.3-1.1-0.7-1.2-0.9c-0.1-0.2-1.3-0.2-1.3-0.2S17.4,2.9,17.3,3
		s-0.4,0.8-0.4,0.8s-0.5,0.4-0.8,1c-0.3,0.6,0,2.6-0.6,2.9S15,8.5,15,8.5V9c-0.6,0.1-1.3-0.3-2.9-0.3c-1.4-0.1-3,0.9-3.8,3
		c-1.1,2.8,1.9,7.8,1.8,8.9C10,21.7,11,25.4,11,25.4s0,0.1,0,0.4c0,0,0.3-0.2,0.3-0.4c0-0.1,0.1-0.3,0.1-0.3l0,0
		c0,0,0.1,0.1,0.1,0.2s0.1,0.2,0.1,0.3S11.7,25.8,11.7,25.8L11.7,25.8z"/>
	<path class="st2" d="M11.7,25.9c0,0.2,0,0.3,0,0.3s0.2,1.1,0.2,1.5c0,0.1,0,0.1,0,0.2c0,0-0.2,0-0.4,0c-0.2,0-0.5-0.1-0.5-0.1
		c0.1-0.6,0.1-1.5,0.1-2c0,0,0.2-0.1,0.3-0.2c0,0,0.1-0.2,0.1-0.3c0-0.1,0-0.1,0-0.1s0.1,0,0.1,0.1s0.1,0.2,0.1,0.2s0,0,0.1,0.1
		C11.7,25.8,11.7,25.9,11.7,25.9z"/>
	<path class="st2" d="M21.1,26c0,0.9,0,1,0,1.3c0,0.3-0.1,0.8,0.1,1.4c0.1,0.5,0.4,0.8,0.3,1c0,0,0.1,0.1-0.4,0.1
		c-0.5,0-0.9,0-0.9,0s-0.1-0.5-0.2-1c0-0.2-0.2-0.7-0.1-1.4c0,0,0.5-0.7,0.5-0.9c0-0.2,0.3-0.9,0.3-0.9s0,0,0.1,0.1
		c0,0.1,0.1,0.2,0.1,0.2C20.9,25.9,21.1,26,21.1,26L21.1,26z"/>
	<path class="st2" d="M17.8,28.8c0,0,0.1,1.3,0.2,1.6c0,0-0.2,0-0.6,0s-0.6-0.1-0.6-0.1c0.2-0.7,0.1-1.6,0.1-1.6s0.1-0.1,0.2-0.4
		c0.1-0.3,0-0.4,0.1-0.7l0.2-0.6c0,0,0.1,0.2,0.2,0.3s0.1,0.1,0.1,0.2S17.8,28.8,17.8,28.8L17.8,28.8z"/>
	<path class="st0" d="M18,30.5c0.1,0.3,0.5,1.3-0.3,1.3c-0.8,0-1.6,0.3-1-1.2c0-0.1,0-0.1,0-0.2c0,0,0.1,0.1,0.6,0.1
		C17.8,30.5,18,30.5,18,30.5L18,30.5z"/>
	<path class="st0" d="M11.9,28.1c0.1,0.2,0.4,1-0.2,1.1c-0.6,0.1-1.3,0.3-0.8-1v-0.1c0,0,0.1,0,0.5,0.1S11.9,28.1,11.9,28.1
		L11.9,28.1z"/>
	<path class="st3" d="M13.6,25.6c0-0.3,0-0.7,0-1.1c0-1-0.1-2.2,0.1-2.6c0.6-1.3,0.8-1.8,0.8-1.8c-1.3-0.1-1.8-0.6-1.8-0.6
		s-0.4,1-0.5,1.2c0,0.7,0.4,1.1,0.4,1.3c-0.1,1-0.1,2.7,0,3.7c0,0,0.4-0.2,0.4-0.4c0-0.1,0.1-0.3,0.1-0.4h0.1c0,0,0.1,0.2,0.1,0.3
		c0,0.1,0.1,0.1,0.2,0.2C13.6,25.5,13.7,25.6,13.6,25.6L13.6,25.6z"/>
	<path class="st4" d="M13.6,25.6c-0.1,0.8-0.1,1.4-0.1,1.4s0.1,0.2,0.1,0.5c0,0-0.2,0.1-0.4,0.1c-0.2,0-0.4,0-0.4,0c0.1-0.4,0-1,0-1
		s0-0.4-0.1-1c0,0,0.3-0.2,0.4-0.3c0.1-0.1,0-0.2,0.1-0.3c0-0.1,0.1-0.2,0.1-0.2s0.1,0.2,0.1,0.3c0,0,0.1,0.1,0.2,0.2
		C13.6,25.5,13.6,25.6,13.6,25.6L13.6,25.6z"/>
	<path class="st3" d="M20.3,6.1c0,0,0.3,1-0.9,1.9c-0.4,0.1-0.8,0.3-1.2,0.8c0,0,0.1,0.2-0.2,0.6c-0.1,0.1-0.2,0.2-0.3,0.4
		c-0.2,0.3-0.5,0.6-0.7,0.7c0,0,0.4-0.1,0.8-0.4c0.3-0.2,0.6-0.6,0.8-0.9C18.7,8.1,20.6,8.5,20.3,6.1L20.3,6.1z"/>
	<path class="st5" d="M15.4,7.8C15.6,7.7,16,7,16.7,7.5c0.4,0.3,0.3,0.7,0.7,1.2c0.4,0.5,0.3,0.6,0,1c-0.3,0.4-0.5,0.9-1.8,0.6
		C15,10.1,15,8.5,15,8.5S15,7.9,15.4,7.8z"/>
	<path class="st6" d="M10.2,9.2c0,0-3.6,0.2-2.9,5.6c0.2,1.3,0.3,3.9,0.4,4.7c0,0,0.3-0.5,0.2-1.9C8.1,18.5,8.1,19,7.5,22
		c0,0,0.5-0.8,0.7-1.3c0.2-0.5,0.4-1,0.4-1s-0.1,0.5-0.2,0.8c-0.1,0.3-0.3,0.9-0.3,0.9s1-1.1,1.5-2.5c0.5-1.3-1.1-3.4-1.3-4.7
		C7.9,12.4,8.6,10.4,10.2,9.2L10.2,9.2z"/>
	<path class="st2" d="M17.5,5.8c0.2-0.3,0.8-0.9,0.9-1.1c0.1-0.2,0.2-0.5-0.2-0.8C18,3.8,17.3,4,17,4.8c-0.3,0.8-0.5,2-0.5,2h0.1
		c0,0,0.1,0.1,0.1,0C16.8,7,17.4,6.1,17.5,5.8L17.5,5.8z"/>
	<path id="Tracciato_42" d="M18.6,6.3c0-0.1,0-0.4,0.2-0.6c0.2-0.1,0.4-0.2,0.5-0.2l0,0c0,0.1,0,0.4-0.2,0.6
		C18.9,6.3,18.8,6.3,18.6,6.3C18.6,6.4,18.6,6.4,18.6,6.3z"/>
	<circle class="st2" cx="18.8" cy="6.1" r="0.1"/>
	<path class="st7" d="M15.9,4.7c0,0,0-0.7,0.8-1.2c0.4-0.2,0.7-0.9,0.9-1c0.2-0.1,0.9-0.6,2-0.3c0.2,0.1,0.1,0.1,0.2,0.1
		c0.3,0.2,0.5,0.7,0.6,0.9c0.1,0.2,0.3,0.5,0.4,0.7c0.2,0.2,0.2,0.6,0.2,0.6s-0.2-0.2-0.5-0.4c-0.3-0.2-0.8-0.7-0.8-0.7
		S20,3.9,20.1,4c0.1,0.1,0.4,1.1-0.1,1.6c0,0,0.1-0.8-0.4-1.2C19,4,19,3.4,19,3.4s-0.3,1.5-1.6,1.8c0,0,0.8-0.8,1-1.8
		c0,0-1,0.7-1.5,1.6s-1.2,1-1.4,1c-0.2,0,0.2,0.1,0.5-1c0.1-0.3,0.1-0.6,0.2-0.8C16.5,4.1,16.3,4.2,15.9,4.7L15.9,4.7z"/>
	<path class="st6" d="M21.3,3.5C21.7,4.2,22,5,22,5.4c0,0.4,0.4,1.4,0.4,1.9s0.2,1.1,0.4,1.3c0,0-0.2-0.1-0.3-0.2c0,0,0.1,1.4,0,2.4
		c0,0.5,0.1,1.3,0.1,1.3s0.2,0.9-0.1,2c-0.3,1.1,0.2,1.4,0.2,1.4s-1.1-1.2-1-3.5c0,0-0.3,0.2-0.4,0.8c-0.1,0.6,0-2.2,0.3-3.1
		c0,0-0.6,1.3-0.9,1.6c0,0,0.4-1.4,0.6-2.5c0,0-0.3,0.8-0.7,1.3c-0.4,0.5-0.5,1.4-0.5,1.4S19.6,9,20.7,6c0.3-0.1,0.4-1,0.4-0.7
		c0,0.3-0.4,1-0.4,1c0.1-0.7-0.1-1.1-0.3-1.4c-0.6-1.5-0.6-2.7-0.6-2.7S20.9,2.8,21.3,3.5L21.3,3.5z"/>
	<path class="st3" d="M16.2,19.9c0,0-2.3,0.1-3.5-0.8c0,0,0.9-1.4,0.8-4c0,0,0.5,2.2,0.1,3.5c0,0,0.3,0.1,0.6,0.2
		c0.4,0.2,0.9,0.5,1.4,0.5c0-0.1,0-1,0.2-1.3c0,0,0,0.8,0.1,1.2C16.1,19.6,16.2,19.9,16.2,19.9L16.2,19.9z"/>
	<path class="st3" d="M17.2,10.4c0,0,0.3-0.1,0.5-0.4c0,0,0.1,1.9,0.6,4.1S17.1,11.1,17.2,10.4z"/>
	<path class="st3" d="M18.9,19c0,0,0.3-2.2,0.1-3.6c0,0,0.4,1,0.2,2.7c0,0,0.1-0.1,0.3-0.1c0,0,0,0.4,0.2,1
		C19.9,19,19.6,19.1,18.9,19L18.9,19z"/>
	<path class="st1" d="M17.2,2.8c0,0-0.9-1.3,0-2.5c0.1-0.1,0.2-0.3,0.3,0.1s0,0.3,0.2,0.7c0.2,0.4,0.3,1,0.3,1s-0.2,0.1-0.5,0.2
		C17.4,2.5,17.3,2.7,17.2,2.8L17.2,2.8z"/>
	<path class="st1" d="M19.8,2.3c0,0-0.1-0.6,0.3-1c0.2-0.2,0.2-0.7,0.2-0.7s0-0.4,0.3,0c0.3,0.4,0.5,1.2,0.4,1.7S20.5,3,20.5,3
		s-0.2,0-0.4-0.2c-0.2-0.2-0.1-0.3-0.2-0.4L19.8,2.3L19.8,2.3z"/>
	<path class="st7" d="M19.9,2.3c0,0,0-0.3,0.3-0.5s0.4-0.8,0.4-0.8s0.2,0.5,0,1.1l0.1-0.2c0,0,0,0.8-0.2,1c0,0-0.3,0-0.4-0.4
		C20.1,2.4,19.9,2.3,19.9,2.3L19.9,2.3z"/>
	<path class="st7" d="M17.3,2.7c0,0-0.1-0.2-0.1-0.5s-0.1-0.7-0.1-0.7s0-0.4,0.2-0.6c0,0-0.1,0.3,0.1,0.5s0.5,0.4,0.5,0.7
		c0,0.1-0.1,0.2-0.1,0.2C17.5,2.4,17.3,2.7,17.3,2.7L17.3,2.7z"/>
</g>
</svg>
