<?xml version="1.0" encoding="UTF-8"?>
<svg id="Livello_1" data-name="Livello 1" xmlns="http://www.w3.org/2000/svg" version="1.1" viewBox="0 0 76.5 76.5">
  <defs>
    <style>
      .cls-1 {
        fill: #68111a;
      }

      .cls-1, .cls-2, .cls-3, .cls-4, .cls-5, .cls-6, .cls-7, .cls-8, .cls-9, .cls-10, .cls-11, .cls-12, .cls-13, .cls-14, .cls-15 {
        stroke-width: 0px;
      }

      .cls-2 {
        fill: #ffe1d7;
      }

      .cls-3 {
        fill: #5f3f34;
      }

      .cls-4 {
        fill: #fbd4c3;
      }

      .cls-5 {
        fill: #3abeff;
      }

      .cls-6 {
        fill: #e5b8a8;
      }

      .cls-7 {
        fill: #d19d8c;
      }

      .cls-8 {
        fill: #44271f;
      }

      .cls-9 {
        fill: #811920;
      }

      .cls-10 {
        fill: #2551b0;
      }

      .cls-11 {
        fill: #4c0c15;
      }

      .cls-12 {
        fill: #d1363e;
      }

      .cls-13 {
        fill: #fff;
      }

      .cls-14 {
        fill: #a42d2f;
      }

      .cls-15 {
        fill: #221004;
      }
    </style>
  </defs>
  <path class="cls-13" d="M13.3,70v-1.5c.1-2.1.2-5.5.1-6.5-.1-1.1,0-2.6,0-3.5-1.7-2-1.8-4.1-2-5.8,0-.7-.1-1.4-.3-1.9,0-.3-2.3-7.7-1.6-10.8.5-2.5,3-3.6,4.4-3.8h.1s.1,0,.1,0c0,0,1.1,0,2.3,0s1.2,0,1.6,0c.5,0,1.1,0,1.7-.2,0,0,0,0,0-.1-.4-1.2-.3-2.1,0-2.8-.2-.2-.5-.5-.7-.8-.6-.7-1-2-.1-4-.1,0-.2-.2-.3-.3-.8-.9-.8-1.7-.7-2.2,0-.5.4-.9.7-1.2,0-.2,0-.5,0-.7.1-1.7,0-3-.2-4.4v-.2c-.3-2.1,1.3-3.5,2.3-4.5l.3-.3c.1-.1.3-.3.4-.5.8-.9,1.7-1.9,3.5-2,.4,0,.9-.2,1.3-.3.6-.2,1.2-.3,1.9-.3s.9.1,1.3.3c.1,0,.2,0,.4,0,1.5,0,3.3.5,4.5,1.3,1.4.9,2.4,2.9,3.3,4.7.2.4.4.7.5,1,.8,1.4.6,2.7.4,3.6,0,.4-.1.8-.1,1.2,0,1-.3,2.2-.5,3.3,0,.4-.2.9-.3,1.3,0,0,0,0,0,0,.3.3.4.7.4,1.1v.5l-.3.3c0,0,0,.2-.2.6-.1.3-.2.8-.4,1.3-.3.8-.7,2-1,3.1.8.5,1.4.7,1.8.8.4-.2.8-.3,1.2-.3.2,0,.4,0,.6,0,.8,0,1.7.1,2.5.3.8.1,1.5.3,2.1.3,1.5,0,2.9,1,3.9,1.9h0c.2.2.4.3.5.5h0c.7.7,1.3,2.1.2,4.7v.3h0c-.2,1-.6,3.2-1.7,5.7-.4.8-.6,1.6-.8,2.3-.4,1.1-.7,2.3-1.5,3.6v.2l-.2.2c-.1.4-.3,1.2-.8,2.9-.7,2.4-.2,8,0,10l.2,1.6H13.3Z"/>
  <g>
    <path class="cls-3" d="M21.2,27s-2.2,3-1.1,4.4,2.3,1.3,2.3,1.3c0,0-3.1-1.2-2-2.8s2.8-.5,2.4,1.2-2.6,2.1-1.8,4.3,3.2,1.7,3.2,1.7c0,0-3.3-.2-2.8-2.3s1.9-1.7,2.8-4.4,0-4,0-4l-3,.7Z"/>
    <path class="cls-9" d="M14.8,58s-.2,2.5,0,3.9,0,6.7,0,6.7h28s-.9-7.3,0-10.6l.9-3.3-25.9-1-2.9,4.3Z"/>
    <path class="cls-11" d="M20.4,62.2s2.6,2.3,4.6,1.8,2-.7,4.3,0,3.9.6,6.3-.7,4-4,4.1-2.2-.5,7.3-.5,7.3h2s-.6-7.7,0-9.2,2.4-4.6,2.4-4.6l-17.3-1.5-5.9,9Z"/>
    <path class="cls-1" d="M34,62.4s4.5-1.9,7.8-5.3,3-5.3,4.4-8.4,1.7-5.7,1.7-5.7l-13.8,19.5Z"/>
    <path class="cls-1" d="M37.8,59.3s3-4.1,4.6-7.4,4.1-6.7,5-8.2,1.4-3.5.7-4.2-2.5-2.5-4.6-1.1-9.3,9-9.3,9v10.6l3.7,1.2Z"/>
    <path class="cls-7" d="M25,35.7l-3.3,1.9s2.3,3,6.5,3.4,8.3-2,9.2-2.7,1.1-.9,1.1-.9c0,0-2.2-.2-4.6-2.4s-7.1-.7-8.9.6Z"/>
    <path class="cls-6" d="M27.2,18.7s-3.2.7-4.1,2.3-.6,4.2-.6,5.6,1.7,7.6,1.9,9,5,1.5,6.2,1.3,3-2.7,3.6-5.5,1.3-6.7-.4-9.2-1.8-3.7-6.7-3.6Z"/>
    <path class="cls-3" d="M27,19s-.4,1.3-1.6,1.7-2.3,1.5-2.6,2.4-.4,4.7-.4,4.7c0,0-1.9.2-2.7-.8s0-1.4,0-1.4c0,0-.6.4,0,.9s.3-.6.5-2.5,0-3.4-.2-4.9,1.3-2.7,2.2-3.6,1.6-2,3-2.1,3-1,3.8-.4-1,.1-1.3,2.2-.3,3.2-.6,3.9Z"/>
    <path class="cls-4" d="M27.2,38c-.2.5-.2,1.4-.2,2.3,0,.4,0,.8,0,1.2,0,.8.1,1.5.1,1.5h-.6c0,0,0-.1,0-.2,0,0,0-.1,0-.2,0,0,0,0,0-.1,0-.1,0-.2,0-.3,0,0,0-.2,0-.3,0-.1,0-.3,0-.4,0-.2,0-.4,0-.6,0,0,0-.1,0-.2,0-.2,0-.4,0-.6,0,0,0-.1,0-.2,0,0,0-.1,0-.2,0,0,0-.1,0-.2,0-.2,0-.4,0-.7h0c0,0,0-.2,0-.3,0,0,0,0,0-.1,0-.1,0-.3.1-.4.1-.3.3-.6.5-.9,1.1-1.4.4-4.5.4-5.4s0-.5.2-.9c-.2.8.4,3,.4,4.4s-.3,1.5-.8,2.6Z"/>
    <path class="cls-4" d="M31.4,28.2s0-.3-.2-.8c.1.3.2.6.2.8Z"/>
    <path class="cls-3" d="M22.8,25.3s1-1,2.1-1,1.7.7,2.7.7.3.7,0,.7-1.6-.7-2.6-.7-2.1.3-2.1.3Z"/>
    <path class="cls-3" d="M29.4,24.5s0,.5.2.7,1.7-.4,2.9-.2,1.5.7,1.5.7c0,0-.4-.9-1.3-1s-3.3-.6-3.2-.2Z"/>
    <path class="cls-15" d="M23.5,26.4s1.1.9,2.8.5l.3-.2s-2.1.4-3.1-.3Z"/>
    <path class="cls-15" d="M33.2,26.3s-1.1.9-2.8.5l-.3-.2s2.1.4,3.1-.3Z"/>
    <path class="cls-4" d="M29.1,26.3c0,.2,0,.3,0,.6-.1.5-.4,1.3-.7,2.1-.2.7-.5,1.3-.7,1.9,0,0,0,0,0,0,0,0,0,0,0,0-.1.4-.2.7-.2.9,0,.9.7,4-.4,5.4-.8,1.1-.8,2-.7,2.8,0,.3,0,.5,0,.8,0,.2,0,.4,0,.6,0,.5,0,1.1.1,1.3,0,0,0,.1,0,.2h0s-.6-.1-1.3-.3c-.1,0-.3,0-.4,0-.9-.2-1.9-.3-2.4,0,0,0,.4-2.7.4-4.3,0-.3,0-.6,0-.8,0-1.2-.6-5.1-.8-6.5-.3-1.4-.2-4.3-.2-5.5s-.4-2.8,0-2.9c.4,0,.9.2,1.1,1.1.2.8.2,3.7.2,3.7,0,0,.4-1.3.7-2.4.3-1.1,1-3.5,1.5-3.4.5,0,1,.2.8,1.2-.2,1-.6,3.4-1.1,4.8-.6,1.5-.4,1.4,0,1.2.3-.2.8-1,1.6-2.6.8-1.6,1-3,1.5-3,.4,0,.7.5.5,1.5-.2.9-2,4.8-2.4,5.6.4-.8,2.2-4.6,2.4-4.7.2,0,.5,0,.5.7Z"/>
    <path class="cls-8" d="M27,18.1s0,1.4.7,1.8,2,1.1,2.7,2.1.7,1.9.7,1.9c0,0,0-2.3-2.4-3.6,0,0-.6-.3-.6-.8s2.5.5,3.3,1.3,1,2.5,2.1,3.1.4,1.8.6,2.8.5,3.6.3,4.2.4,1.7.7.8,1.2-2.3,1.2-3.3.9-3.4.9-4.9.7-2.7-.1-4.3-2.1-4.3-3.4-5.2-3.8-1.4-4.9-.9-2.1.4-1.7,4.9Z"/>
    <path class="cls-9" d="M23,38.3c0,1.6-.4,4.3-.4,4.3,0,0-1,.7-1.6,3.3-.5,2.6-2.9,5.6-3.2,7.9s.5-3.2-1.9-6.2c-2.4-2.9-.3-2.7,1.2-1.8,1.4.9,1.2-.2-2.5-2.9-3.7-2.7.4-3.5,2.5-1.7,2.1,1.8,2.2,2.1,2.2,2.1,0,0-.4-5.8-5.2-5.8,0,0,2.6,0,3.9,0,1.3,0,3.3-.4,3.4-.4,0,0,.4.1,1,.7.1.1.3.3.6.5Z"/>
    <path class="cls-9" d="M27.1,41.6c0-.4,0-.8,0-1.2.3,0,.5.2.8.2,1.7.4.5.9-.7,1Z"/>
    <path class="cls-9" d="M27.8,40.6s2.6,0,5.1-.6,5-2.9,6.5-3.1,3.4.5,5.1.5,3.5,2.1,3.5,2.1c0,0-2-2.4-4-1s-4.8,4.6-6.1,6.3-10.3,9.8-10.3,9.8l-.6-14.3.8.2Z"/>
    <path class="cls-6" d="M32.9,40.9l1.3.2s-.4-3.2,0-4.5,1.2-3.8,1.6-5.2.7-2.1.8-2.3-.9-.3-1.3.3-.7,1.5-.7,1.5l-.3-.8-1.7-.6-1.5,1.9v7l1.8,2.3Z"/>
    <path class="cls-4" d="M34.2,22.9c-.7,0-.9,1.3-1,2.6,0,1.3-.4,3.7-.4,3.7,0,0-.2-1.2-.2-2.3,0-1.2-1.1-3.6-1.2-4.5,0-.9-.9-.8-1.1-.4s0,.6,0,1.7c0,.8.5,2.6.8,3.7-.3-.9-.8-2.1-1-3.1-.4-1.4-.9-1.5-1.1-1.2-.2.3,0,.7,0,1.5,0,.8.8,5.8.8,5.9,0,0,0,0,0,0,0-.5-.7-4-.7-4h0c0,.2,0,.4,0,.6-.1.5-.4,1.3-.7,2.1,0,1,0,2.6,0,4.1-.1,2.5,0,3.2.5,4.6.5,1.3.3,4.6.4,4.5,1.3-1.3,3.6-1.2,3.6-1.2,0,0,0-1.1-.2-2-.2-.9-1.3-2-1-2.9.4-.8.7-4.4.8-5.1,0-.7.7-.8,1.1-.3.4.5.5.7.7-.4.2-1.2.3-3.7.4-4.8.1-1.2,0-2.5-.6-2.5ZM31.2,27.4c.1.3.2.6.2.8,0,0,0-.3-.2-.8Z"/>
    <path class="cls-14" d="M28.7,44c0-.1-.6-1.6.9-2.6s4.3-1.1,5.4-.2.6,6.3.7,7.4,1.1,3.3,1.5,5.2-1.7,4.1-1.5,4,1.9-1.7,2.3-3.1,1,1.5.7,3.1-2.6,4-4.6,4.6-4,2-5-.6-2.1-11.7-1.7-13.9,1.4-4,1.4-4Z"/>
    <path class="cls-12" d="M30,44.6s-.6,2.6-1.5,5.4c0,0,0,0,0,0,0,0,0,0,0,0-.6,2.2-1.4,4.4-2,5.8-1.4,3-4.9,3.5-2.4,3.4,2.4,0,3.4-3.6,3-1.7,0,0,0,0,0,0,0,0,0,0,0,0,0,0,0,0,0,0s0,0,0,0c0,0,0,0,0,0-.5,2.2-1.3,5.1-3,5.6-1.7.5-4.9-1.6-8.5-4.5-3.6-2.9-2.5-6.1-3.2-8.5-.7-2.4-2.1-7.9-1.6-10.2.4-2.2,3.2-2.7,3.2-2.7,4.7,0,5.2,5.8,5.2,5.8,0,0-.2-.4-2.2-2.1-2.1-1.8-6.2-1-2.5,1.7,3.7,2.7,3.9,3.8,2.5,2.9-1.4-.9-3.6-1.2-1.2,1.8,2.4,2.9,1.5,8.4,1.9,6.2s2.7-5.3,3.2-7.9c.5-2.6,1.6-3.3,1.6-3.3.9,0,1.7,0,2.4,0,.1,0,.3,0,.4,0,.5,0,.9.1,1.3.2,3,.5,3.4,1.7,3.4,1.7Z"/>
    <path class="cls-14" d="M28.6,50c0,.2-.4,1.3-.6,3-.2,1.6-.7,3.9-.8,4.5.4-1.9-.6,1.6-3,1.7-2.5,0,1-.4,2.4-3.4.6-1.3,1.4-3.6,2-5.8Z"/>
    <path class="cls-4" d="M35.8,30.1s.2-1,.5-1.1.5-.1.4,0-.3,1-.3,1c0,0-.4.2-.6,0Z"/>
    <path class="cls-2" d="M33.7,24.3s0-1.1.3-1.3.7,0,.7.4,0,.9,0,.9h-1Z"/>
    <path class="cls-2" d="M30.5,22.7c0,0-.2-.6,0-.8s.5-.2.6,0,.1.7.1.7h-.7Z"/>
    <path class="cls-2" d="M29.1,23.8c0,0-.2-.5,0-.8s.4-.1.6,0,.1.6.1.6l-.6.2Z"/>
    <path class="cls-2" d="M28.3,26.3c0,0,.1-.5.3-.7s.4,0,.4.3-.2.5-.2.5l-.5-.2Z"/>
    <path class="cls-2" d="M27.7,24.1s.2-1,.3-1,.7,0,.6.5-.2.7-.2.7c0,0-.5-.1-.7,0Z"/>
    <path class="cls-2" d="M25,22.4s.3-.7.4-.9.8,0,.7.4-.2.7-.2.7c0,0-.7-.3-.9-.3Z"/>
    <path class="cls-2" d="M21.8,23.8s.3,0,.5-.2,0-.9,0-.9c0,0-.5-.4-.5,0s0,1,0,1Z"/>
  </g>
  <g>
    <path class="cls-13" d="M55.5,35.1h0c0-1.1.3-2.1,1-3.3l1.5.8c-.4.7-.6,1.5-.7,2.2,0,.1,0,.3,0,.4h-1.7Z"/>
    <path class="cls-13" d="M57.2,32.2c-.4.8-.7,1.6-.8,2.4,0,.2,0,.3,0,.5h0c0-1,.3-1.9.9-2.9Z"/>
    <path class="cls-13" d="M61.5,42.5c-.2,0-.5,0-.7,0-2.7-.7-3.8-4.4-2.7-9,1-4.1,7.2-9.2,7.5-9.4l.6.6.7.3h0c0,0,0,.1,0,.1,0,.2-1,1.8-1.4,4h0c0,.1,0,.1,0,.1-.3,1.5-.3,3,0,4.3.6,2.9,0,5.8-1.3,7.6-.7.9-1.7,1.4-2.6,1.4Z"/>
    <path class="cls-13" d="M44.7,30.2c-.7,0-1.2-.4-1.4-1.1-.1-.5,0-1,.2-1.4.8-1.1,3.2-1.3,4.6-1.3h2.2l-1.6,1.5c-.6.5-2.6,2.3-4,2.3Z"/>
    <path class="cls-13" d="M48.2,27.3s-3.6,3.2-4.1,1.6c-.5-1.7,4.1-1.6,4.1-1.6Z"/>
    <path class="cls-13" d="M49.9,14.1c-.2-.6-1.4-3.4-.5-5,.3-.6.8-.9,1.5-1,.1,0,.2,0,.3,0,.6,0,1,.2,1.3.7.8,1.3-.5,4.2-1.1,5.4l-.8,1.7-.7-1.7Z"/>
    <path class="cls-13" d="M63.9,24c-2.6,0-6.4-.5-9.3-2.9-2.1-1.7-3.3-3.6-3.4-5.4-.1-1.5.5-3,1.7-4.2.6-.6,1.3-.9,2.2-.9,1.7,0,3.6,1.4,4.5,3.2.6,1.3,1.5,2.3,1.9,2.6,0-.3,0-.6-.4-1.1-.4-.6-.9-1.4-1.1-2.6-.2-1.3.2-2.2.6-2.6.5-.6,1.4-1,2.3-1s.6,0,.9.2c1.6.6,2.6,3.2,1.7,6.1-.5,1.5-.5,3.4,0,5,.3,1.2.8,1.9,1.2,2l2.8,1.1-3,.5s-1,.2-2.4.2Z"/>
    <path class="cls-13" d="M51.5,19.9c-.6-.1-5.9-1.4-6-4.5,0-1.2.4-1.9.7-2.3.4-.4.9-.6,1.5-.6.8,0,1.6.5,2.2,1.2.4.6.8,1.5,1.1,2.3.4,1,.8,2,1.3,2.4l-.7,1.5Z"/>
    <path class="cls-13" d="M53.9,39.8c-1,0-1.8-.4-2.3-1-.7-.9-.8-2.3-.2-4.2,0-.3.2-.6.4-1,.2-.4.4-.9.4-1.2-.2,0-.6.3-.8.4-.7.4-1.6.8-2.3.8s-.1,0-.2,0c-.5,0-1.3-.3-1.7-1.6-.6-2,1.4-3.9,2.9-4.7.7-.4,1.5-.6,2.3-.9.3-.1.6-.2,1-.3-1.4-.1-2.3-.3-2.9-.7-.9-.7-1.3-2-1.1-3,.2-.9.9-1.6,1.9-1.8.2,0,.4,0,.7,0,.6,0,1.3.2,2.2.5.6.1,1.2.4,1.8.7,1.3.7,4.2,1.4,8.1,1.9,0,0,0,0,0,0,0,0,.2,0,.2,0l1.7.4-1.3,1.1s-4.5,3.7-6.5,7.2h0s-.1.2-.1.2c-.5.9-.8,1.7-.8,2.4v.2c0,.1,0,.3,0,.4,0,0,0,.2,0,.3,0,1.3-.3,3.6-2.7,3.9-.2,0-.4,0-.6,0Z"/>
    <path class="cls-13" d="M57.8,46c0,0-.2,0-.3,0-.6,0-1.2-.4-1.5-.9-1.2-1.8,0-6.1.2-6.9l.9-2.9.7,3c.1.5.5,2,.9,2.7.8,1.5,1.5,3.2.8,4.3-.2.4-.7.8-1.7.8Z"/>
    <path class="cls-13" d="M57.9,41.3c.5.9,2.2,4.1-.4,3.9-2.6-.2-.6-6.7-.6-6.7,0,0,.5,1.9,1,2.9Z"/>
    <path class="cls-13" d="M63.8,28.7c.5-2.4,1.4-4.1,1.6-4.5l1.5.7c-.6,1.6-1.1,3-1.5,4.1l-1.7-.4Z"/>
    <path class="cls-13" d="M66.1,24.6c-.1.3-.9,2.3-1.5,4.2.5-2.3,1.3-4,1.5-4.2Z"/>
    <path class="cls-13" d="M65.8,23.8c-1.3-.5-1.9-2.2-2.2-3.1l1.6-.6c.5,1.2,1.2,2,1.5,2.3l-.9,1.4Z"/>
    <path class="cls-13" d="M66.2,23c-.7-.3-1.3-1.3-1.7-2.6.5,1.3,1.3,2.1,1.7,2.6Z"/>
  </g>
  <g>
    <path class="cls-5" d="M66.1,24.6s-6.3,5.1-7.2,9c-1,3.9-.4,7.4,2.1,8,2.4.6,4.6-3.4,3.6-7.9-1-4.5,1.6-9.1,1.6-9.1Z"/>
    <path class="cls-5" d="M66.2,23s-6.5,1.1-11-2.6c-4.5-3.7-3.2-6.8-1.7-8.4,1.5-1.6,4.3,0,5.2,2,1,2.1,3,4.2,3.5,2.7.5-1.5-1-2-1.5-4.3-.4-2.3,1.6-2.9,2.6-2.6,1,.4,2,2.4,1.2,5.1-1,3.1,0,7.4,1.7,8Z"/>
    <path class="cls-5" d="M48.9,32.7c-.4,0-.8-.3-1-1-.4-1.4,1.2-3,2.5-3.7,1-.5,2.1-.8,3.2-1.2.4-.2,1.7-.5,1.9-1,.3-.8-3.7-.5-4.6-1.2-1-.7-1.4-2.9.5-3.3,1.8-.4,4.5,1.5,6.1,2.1,1.7.7,6.6,1,6.6,1,0,0-6.6,4.7-7.6,10.1-.3,1.5.1,4-2.1,4.3-1.4.2-3.2-.4-2.2-4.1.3-.9,1-2,.8-2.9-.3-1.5-2.6.9-4.1.7Z"/>
    <path class="cls-5" d="M51.7,19.1s-5.2-1.2-5.3-3.7,1.9-2.5,2.8-1.2c.9,1.3,1.3,3.8,2.5,4.9Z"/>
    <path class="cls-5" d="M57,38.4s-2,6.5.6,6.7c2.6.2.9-2.9.4-3.9-.5-.9-1-2.9-1-2.9Z"/>
    <path class="cls-5" d="M48.2,27.3s-4.6,0-4.1,1.6c.5,1.6,4.1-1.6,4.1-1.6Z"/>
    <path class="cls-5" d="M50.7,13.7s-1.9-4.5.3-4.9c2.2-.4-.3,4.9-.3,4.9Z"/>
    <path class="cls-10" d="M56.5,26.2c.4-.5.7-.9-.4-1.2-1.1-.3-4.4-.9-4.3-2s1.3-1.8,3.6-.5,8.6,2,8.6,2c0,0-7.6,6.2-7.7,10.5s-2.9,1.9-2.6,0c.2-1.9,2.6-5,1.1-5.2-1.4-.2-3.3,1.4-3.7.2-.4-1.2,4.9-3.1,5.3-3.6Z"/>
    <path class="cls-10" d="M66.1,24.6s-5.5,5.4-5.9,8c-.5,2.6.1,3.8,1.9,3.1,1.7-.8,1.9-4.1,2.5-6.4.6-2.3,1.6-4.7,1.6-4.7Z"/>
    <path class="cls-10" d="M66.2,23s-7.7,0-9.4-2.3c-1.7-2.3-1-4.6.7-4.3,1.7.3,3.8,2.6,5.1,1.1,1.3-1.6-.7-3.9.5-4.2s1,1.1.8,3.3c-.3,3.7,1.6,5.8,2.3,6.5Z"/>
  </g>
</svg>