<?xml version="1.0" encoding="UTF-8"?>
<svg id="Livello_1" data-name="Livello 1" xmlns="http://www.w3.org/2000/svg" version="1.1" viewBox="0 0 76.5 76.5">
  <defs>
    <style>
      .cls-1 {
        fill: #d2ae9e;
      }

      .cls-1, .cls-2, .cls-3, .cls-4, .cls-5, .cls-6, .cls-7, .cls-8, .cls-9, .cls-10, .cls-11, .cls-12, .cls-13, .cls-14, .cls-15, .cls-16, .cls-17, .cls-18, .cls-19, .cls-20 {
        stroke-width: 0px;
      }

      .cls-2 {
        fill: #a09e91;
      }

      .cls-3 {
        fill: #55594b;
      }

      .cls-4 {
        fill: #b47942;
      }

      .cls-5 {
        fill: #e3c2af;
      }

      .cls-6 {
        fill: #818074;
      }

      .cls-7 {
        fill: #704335;
      }

      .cls-8 {
        fill: #c09f91;
      }

      .cls-9 {
        fill: #2f2a30;
      }

      .cls-10 {
        fill: #000;
      }

      .cls-11 {
        fill: #cecdd2;
      }

      .cls-12 {
        fill: #ac897f;
      }

      .cls-13 {
        fill: #171721;
      }

      .cls-14 {
        fill: #f7e536;
      }

      .cls-15 {
        fill: #80402e;
      }

      .cls-16 {
        fill: #d3a865;
      }

      .cls-17 {
        fill: #3a343a;
      }

      .cls-18 {
        fill: #5d5b52;
      }

      .cls-19 {
        fill: #493837;
      }

      .cls-20 {
        fill: #fff;
      }
    </style>
  </defs>
  <g>
    <path class="cls-20" d="M14,65.4l.5-3.6c-.2,0-.4-.3-.6-.5-1.8-1.5-2.7-3.1-3-3.8l-.2-.2v-.3c-.8-1.8-.8-3.9-.7-6v-1.8c0-2.3,0-3.6.1-4.1-.2-1.1-.1-2.1-.1-2.7,0-2.3,1.2-3.8,2.3-4.5.6-1.2,1.5-1.9,1.9-2.2l1.1-1.4c.1-1.1.4-2.9,1.5-3.7.1,0,.2-.1.3-.2.2-.2.5-.4.8-.6,1-.5,2.1-.7,2.9-.7s.3,0,.4,0c.3,0,.4-.2.5-.2,0-.2.3-.7.5-1.7,0-.1,0-.2-.1-.2-.1-.1-1-.7-1.7-1.1h-.1v-.2c-1.2-.9-1.1-2-1-2.6v-.8c-.1-.6,0-1.1,0-1.6s.2-.5.3-.7q.1-.2,0-.3c0-.5,0-1,.3-1.4l-.2-.2c-.3-.4-1.4-1.6-1.2-3.2.1-1,.7-1.9,1.8-2.6.7-.5,1.5-.7,2.3-.7s.4,0,.5,0v-.2h.6c1.1,0,2.1.6,2.8,1.5h.4c1.5,0,3,.6,4.3,1.7h0l.5.4h0c.3.3.6.7.9,1,.2.2.3.5.4.7,1.4,1.6.9,5.4.9,5.5v2.1c0,1.7-1.3,4.3-1.8,5.1,0,.1-.2.2-.2.4,2.3.5,3.8,1.4,4.5,2.8,1.2,1.1,1.8,2.8,1.7,4.9v1.8c-.4,8-.3,12.6.3,13.5.3.4.5,1,.8,1.9h0v.3h0v.2c.9,3.2,1.7,8.1,1.7,8.3l.2,1.6H14v.3Z"/>
    <path class="cls-20" d="M52.9,65.4c-1.2,0-2.2-1-2.2-2.2v-20.9h-7.5c-1.8,0-3.3-.9-4.2-2.4s-.9-3.4,0-4.9l9.7-16.9c.9-1.5,2.4-2.4,4.2-2.4s3.4.9,4.2,2.4l9.7,16.9c.9,1.5.9,3.3,0,4.9-.9,1.5-2.5,2.4-4.2,2.4h-7.5v20.9c0,1.2-1,2.2-2.2,2.2Z"/>
  </g>
  <g>
    <g>
      <path class="cls-20" d="M13,66l.6-3.8c-.2-.1-.4-.3-.7-.5-1.9-1.6-2.9-3.3-3.2-4l-.2-.2v-.3c-.8-1.9-.8-4.1-.7-6.3,0-.6,0-1.3,0-1.9,0-2.4,0-3.8.1-4.3-.2-1.1-.2-2.2-.1-2.8,0-2.4,1.3-4,2.4-4.7.6-1.2,1.5-2,2-2.4l1.1-1.5c.1-1.1.5-3.1,1.6-3.9.1,0,.2-.2.4-.2.3-.3.5-.5.8-.6,1.1-.6,2.2-.7,3-.7s.3,0,.4,0c.3,0,.5-.2.5-.2,0-.2.3-.7.5-1.8,0-.1,0-.2-.1-.3-.1-.1-1-.7-1.8-1.1h-.1c0,0-.1-.2-.1-.2-1.1-1-1-2.1-1-2.7,0-.3,0-.6,0-.8-.1-.6,0-1.2,0-1.6,0-.3.2-.6.3-.8.1-.2.1-.2.1-.3,0-.5.1-1,.3-1.5,0,0-.1-.1-.2-.2-.4-.4-1.4-1.7-1.2-3.3.1-1,.8-2,1.9-2.7.7-.5,1.5-.8,2.4-.8s.4,0,.6,0v-.2c0,0,.3,0,.7,0,1.1,0,2.2.6,3,1.6.1,0,.3,0,.4,0,1.6,0,3.2.6,4.5,1.7h0s0,0,0,0l.5.4h0c.3.4.6.7.9,1.1.2.2.3.5.5.7,1.5,1.7,1,5.7,1,5.7,0,.3,0,.5,0,1,0,.3,0,.7,0,1.2,0,1.8-1.3,4.5-1.9,5.3,0,.1-.2.3-.3.4,2.4.5,4,1.5,4.7,3,1.2,1.2,1.8,2.9,1.8,5.2,0,.5,0,1.1,0,1.9-.4,8.4-.3,13.2.3,14.2.3.4.5,1,.8,1.9h0s0,.4,0,.4h0v.2c1,3.3,1.7,8.5,1.8,8.7l.2,1.7H13Z"/>
      <path class="cls-20" d="M53.7,66c-1.3,0-2.3-1.1-2.3-2.3v-21.9h-7.9c-1.8,0-3.5-1-4.4-2.6-.9-1.6-.9-3.5,0-5.1l10.2-17.7c.9-1.6,2.6-2.6,4.4-2.6s3.5,1,4.4,2.6l10.2,17.7c.9,1.6.9,3.5,0,5.1-.9,1.6-2.6,2.6-4.4,2.6h-7.9v21.9c0,1.3-1.1,2.3-2.3,2.3Z"/>
    </g>
    <path class="cls-15" d="M30.6,31l2,.8,2.8.9s-.7-1.9-4.8-1.7Z"/>
    <polygon class="cls-6" points="15.2 61.5 14.7 64.5 35.4 64.5 31.2 40.4 25 39 15.2 61.5"/>
    <path class="cls-12" d="M30.9,43s-2.5-1.9-1.9-3.1,2.6-1.7,2.6-.5-.7,3.6-.7,3.6Z"/>
    <path class="cls-8" d="M39.9,64.5h-.7s-1.4-7.5-1.7-8.5c-.3-1-1.5-2.6-1.5-4.1,0-1.5-.9-3.9-1.7-5.6-.7-1.4-2.7-1.4-3.5-2-.2-.2-.4-.4-.4-.7,0-.2,0-.4,0-.6,0-.2,0-.3,0-.5,0-.5.2-.8.4-1.3,0-.2.1-.5.2-.8.4-1.5-.3-1.5-1.3-.7-.4.3-.6.6-.7.9h0c-.1,0-1.8-1-1.9-1.8-.2-.8-1.1-3.1-.2-4,.9-.8,3.4-2,3.7-2.1,0,0,0,0,0,0,0,0,0,0,0,0,.8-.6,1.7-.8,1.8-.8-.4,0-.9,0-1.4.1,0,0,0,0,0,0-.3,0-.7.1-1,.2-4,1.2-5.4,2.7-5.4,2.7.6,1.1,1.1,3,1.5,4.8l-1.2-.7-9.4-5.1s.1-2.6,1-3.2c.9-.7,4.9-1.1,5.5-2,.6-.8.9-2.9.9-2.9l6.6-7.1,1.3,1.6-1.7,8.1v1.6s2.3,1.2,4.4,1.8c.1,0,.3,0,.4.1.2,0,.4.1.5.2,1.6.7,2.5,2.2,2.4,4.8,0,3.1-.8,14.9.4,16.9.3.4.5,1.1.8,1.9,0,0,0,0,0,0,0,0,0,.1,0,.2.9,3.3,1.7,8.6,1.7,8.6Z"/>
    <path class="cls-2" d="M30.6,42.5v1c0-.2,0-.4,0-.6,0-.2,0-.3,0-.5h0Z"/>
    <path class="cls-2" d="M27.1,34.8c.9-.8,3.4-2,3.7-2.1-.5.4-1,1-1.3,1.8-.6,1.7-1.1,4.1-.3,6.1-.1,0-1.8-1-1.9-1.8-.2-.8-1.1-3.1-.2-4Z"/>
    <path class="cls-2" d="M32.6,31.8c-.4,0-.9,0-1.4.1,0,0,0,0,0,0-.3,0-.7.1-1,.2-4,1.2-5.4,2.7-5.4,2.7.6,1.1,1.1,3,1.5,4.8.3,1.6.6,3,.7,3.7,0,.4.2.7.2,1-.4-.1-.7-.3-.7-.3l-1.4-5.1-1.4-5.1s5.3-3,9-2.1Z"/>
    <path class="cls-13" d="M11,56.9s.7,2,2.9,3.7,3.2,1.5,6.1,2.3,4.4,1.3,6.1,0,2.7-3.2,3.6-5c.9-1.8-.9,2.3-3.1,2.9s-4.3.2-4.9-1.4-.8-6.2.9-6.2,4,0,4.8-.6,1.2-2.6,1.2-2.6l-1.3-5.5-4.1-5-7.1,8.7-5,8.6Z"/>
    <path class="cls-16" d="M17.4,33.9l-1.8,1.5,9.7,4.8s.2-4.9-2.2-6.1-5.7-.2-5.7-.2Z"/>
    <path class="cls-19" d="M25.5,12.7l-2.5,1.1-1.1,2s-.7,1.5-.2,2.5,6,0,6,0c0,0,2.8-1.5,2.8-1.7s-.1-4.5-5-3.8Z"/>
    <path class="cls-17" d="M22.2,17.7s-1,2.3,1,4.6c0,0-1.7.1-1.9-2.5,0,0-.6,1.4.4,2.8,1,1.4-1.3,0-1.4-1.2-.1-1.2-.4-1.7-.4-1.7.1-.6.5-.9.5-1.6,0-1,1.6-2.3,1.6-2.3,0,0-.2,1.5.3,2Z"/>
    <path class="cls-17" d="M30.8,16.1c-.5,1.4-2,1.8-1.9,2.6,0,.8-1.7-1-1.8-1.4,0,0,0,0,0,0,0,0,.3,1.1.6,1.7.4.7-.9.3-2.2,1-1.3.7-2.3-.8-2.4-1.4,0-.6-.2,1.4.8,2.9,1,1.4-.6.7-1.3-.8-.6-1.5-.4-2.6-.4-2.6.2.2.4.2.9,0,1.6-.8,3.8,0,3.2-.7-.6-.7-1.8-2.7-.7-1.5,1.1,1.2,3.7,1.3,2.8,1-.9-.3-3.3-1.9-1.8-1.3,1.5.6,3.1-.4,2.1-.4-1.1,0-3.3-1.3-2.4-1.1,1,.3,3.4,1.1,2.7,0-.7-1.2-3.4-.9-3.4-.9,2.1-.4,3.7.4,4.7,1.3,0,0,0,0,0,0,.1.1.3.2.4.3.2.3.5.9.2,1.7Z"/>
    <path class="cls-19" d="M25.5,12.7s-.8-1.5-2.4-1.7.7,0,.9.6-1.6-1.3-3.6,0-1.3,2.7-.4,3.8c.9,1.1,1.8.2,1.8.2,0,0,.8.5,1.6-.1s1.5-.6,1.6-1.4.6-.6.3-1.4Z"/>
    <path class="cls-5" d="M29.1,28.4s1.1.5,1.8-.7,1.7-3.3,1.7-4.6-.1-1.6,0-2.5.2-4.1-.8-4.6-2.5,5.4-2.3,7.1-.4,5.3-.4,5.3Z"/>
    <path class="cls-9" d="M31.5,21.1c-.1-.8-1-1-1.6-.9-.6.1-2.2,2.7-2.9,4.1-.6,1.4-.4,2.3-1.3,2.3-.8,0-2,.6-2.3.3-.3-.3-.6-1.4-.9-1.9-.4-.6-2.3-1.6-2.3-1.6-.9-.8-.2-1.4-.5-2.7,0-.4,0-.7,0-.9,0,0,.3.5.4,1.7.1,1.2,2.4,2.6,1.4,1.2-1-1.4-.4-2.8-.4-2.8.2,2.6,1.9,2.5,1.9,2.5-2-2.3-1-4.6-1-4.6,0,0-.2,1.1.4,2.6.6,1.5,2.3,2.2,1.3.8-1-1.4-.8-3.5-.8-2.9,0,.6,1.1,2.1,2.4,1.4,1.3-.7,2.5-.2,2.2-1-.3-.6-.6-1.6-.6-1.7,0,0,0,0,0,0,.1.4,1.9,2.2,1.8,1.4,0-.8,1.4-1.2,1.9-2.6.3-.8,0-1.3-.2-1.7.4.4.7.7.8,1,.7.9.3,1.4.6,2.8.3,1.4-.4,3.7-.5,2.9Z"/>
    <path class="cls-1" d="M29.3,23.4s-.4-1.2.1-2.1.1-1.9.8-1.9,0,.9,0,2.2.3,2.1,0,2.5-.7.5-.7.1-.2-.8-.2-.8Z"/>
    <path class="cls-16" d="M35.4,32.7s-.5-.6-1.1-.8c-.6-.3-1.5-.3-3.1,0,0,0,0,0,0,0-.4,0-2.4.4-3.2.1,0,0-.1,0-.2,0-.8-.4-2.8.3-2.3-.7.4-1,3.7-1.4,3.7-1.4,4.1.3,5.8,1.4,6.3,2.7Z"/>
    <path class="cls-15" d="M15.7,33.9s.7-3.2,2-4c1.4-.7,3-.5,3-.5,0,0-1.7,1.1-1.7,3,0,0-2.1,0-3.2,1.5Z"/>
    <path class="cls-4" d="M31.1,32c-.3,0-.7.1-1,.2-4,1.2-5.4,2.7-5.4,2.7,0,0,0-.1,0-.2-.1-.2-.3-.5-.7-.8-.5-.4-1.2-.9-2.2-1,0,0,0,0,.2-.1.7-.6,3.6-3,7.2-2.8,0,0-3.3.4-3.7,1.4-.4,1,1.5.2,2.3.7,0,0,0,0,.2,0,.9.3,2.8,0,3.2-.1Z"/>
    <path class="cls-7" d="M10.4,44.7s-.2,1.2-.2,4.3-.5,6.9,1.5,9,2.6,2.6,5,1.6c2.4-1,2.3-3.9,2.3-6.2s1-8.8,1-8.8l-.8-2.3-8.9,2.3Z"/>
    <path class="cls-3" d="M14.2,35.9s-1.2.8-1.9,2.3c0,0,3-1.1,6.2.5,3.2,1.6,4.3,4.1,4.7,6.7s.3,3,.3,3c0,0,.8-4.5.9-6.3s-1.2-4-2.5-5.4-3-1.6-5.4-1.6-2.3.6-2.3.6Z"/>
    <path class="cls-4" d="M27.3,45.3c0,.5-.2.8-.8,1.1-1.2.6-1,.3-1.4-2.5-.4-2.8-4.4-8.1-6.7-8.4-2.3-.3,2.8-.9,4.9,2.2,2.2,3.1,1.2-1,.5-2.3-.7-1.3-5.6-1.6-6.7-.7-1,1-2.1.5-3.1,1.1l1.5-2s.6-1.5,3.2-1.5c1.1,0,2.2,0,3.1.3.8.2,1.5.6,2.1,1.2.2.2.4.5.6.9,0,0,0,0,0,.2,1.1,2.2,1.9,7,2.2,8.5.1.8.3,1.4.3,1.9Z"/>
    <path class="cls-3" d="M19.9,43.8s-.7,0-2.9,1.6c-2.2,1.7-3.5,2.3-5.2,1.5-1.7-.8-1.6-4.2-1.5-5.1s.8-2.2,2-2.5,5.8-1.5,7.7,4.5Z"/>
    <path class="cls-4" d="M12.3,38.3s-2.1,1-2,3.6c0,0,.7-2,3.3-1.8s3.9.7,5.3,3.6c1.4,2.9,2.9,6.2,2.9,6.2,0,0,.9.8,1.4-.6s1.1-3.3,0-6.3c-1.1-3-6.2-6.8-10.9-4.6Z"/>
    <path class="cls-18" d="M23.2,52.8s2.7,0,3.9-.8,1.5-2,1.5-2c0,0,.9-.4,1,1.4s1.1,3.8.1,6.4c-.9,2.6-3.4,3.2-4.8,3.2l-1.6-8.2Z"/>
    <path class="cls-15" d="M22.2,52.8s-1.2-.2-1.5,1.8c-.3,2,0,5.5,1.5,6.1,1.5.6,2.6.3,2.6.3,0,0-.7-4.7-.7-6.7s-1-1.2-1.8-1.5Z"/>
    <path class="cls-12" d="M39.2,64.5h-4.7s-1.3-3.9-1.9-5.5c-.6-1.6-1.2-1.6-1.7-5.4-.5-3.9-.4-10.1-.4-10.1,0,0,0-.6,0-.6,0,.2,0,.3,0,.6,0,1.4,3,1,3.9,2.7.8,1.7,1.8,4.1,1.7,5.6,0,1.6,1.2,3.1,1.5,4.1.3,1,1.7,8.5,1.7,8.5Z"/>
    <path class="cls-6" d="M32.6,31.8c-.1,0-1,.2-1.8.8,0,0,0,0,0,0,0,0,0,0,0,0-.3.1-2.8,1.3-3.7,2.1-.9.9,0,3.2.2,4,.2.8,1.8,1.8,1.9,1.8h0c.3.7.7,1.4,1.4,1.9,0,.1,0,.3,0,.5,0,.2,0,.3,0,.6,0,0-1.7-.4-2.2-1.9s-.6,1.3-.1,2.4c.3.7-.4.6-.9.4,0-.3-.1-.6-.2-1-.1-.7-.4-2.1-.7-3.7-.4-1.8-.9-3.7-1.5-4.8,0,0,1.3-1.6,5.4-2.7.4-.1.7-.2,1-.2,0,0,0,0,0,0,.5-.1,1-.1,1.4-.1Z"/>
    <rect class="cls-11" x="52.9" y="36.9" width="1.7" height="27.6" rx=".5" ry=".5"/>
    <g>
      <path class="cls-14" d="M43.5,40.2c-1.3,0-2.5-.7-3.1-1.8-.7-1.1-.7-2.5,0-3.6l10.2-17.7c.7-1.1,1.8-1.8,3.1-1.8s2.5.7,3.1,1.8l10.2,17.7c.7,1.1.7,2.5,0,3.6-.7,1.1-1.8,1.8-3.1,1.8h-20.4Z"/>
      <path class="cls-10" d="M43.5,39.4c-1,0-1.9-.5-2.4-1.4s-.5-1.9,0-2.8l10.2-17.7c.5-.9,1.4-1.4,2.4-1.4s1.9.5,2.4,1.4l10.2,17.7c.5.9.5,1.9,0,2.8s-1.4,1.4-2.4,1.4h-20.4Z"/>
      <path class="cls-14" d="M52.7,18.2l-10.3,17.8c-.5.8.1,1.8,1,1.8h20.6c.9,0,1.5-1,1-1.8l-10.3-17.8c-.5-.8-1.6-.8-2,0Z"/>
    </g>
    <path class="cls-10" d="M52.5,34.4c0-.8.5-1.3,1.2-1.3s1.2.5,1.2,1.3-.5,1.3-1.2,1.3-1.2-.6-1.2-1.3ZM53,31.4l-.3-10.1h2l-.3,10.1h-1.4Z"/>
  </g>
</svg>