<?xml version="1.0" encoding="UTF-8"?>
<svg id="Livello_1" data-name="Livello 1" xmlns="http://www.w3.org/2000/svg" version="1.1" viewBox="0 0 56.7 56.7">
  <defs>
    <style>
      .cls-1 {
        fill: #13394e;
      }

      .cls-1, .cls-2, .cls-3, .cls-4, .cls-5, .cls-6, .cls-7, .cls-8, .cls-9, .cls-10 {
        stroke-width: 0px;
      }

      .cls-2 {
        fill: #1e526e;
      }

      .cls-3 {
        fill: #12475f;
      }

      .cls-4 {
        fill: #236d8f;
      }

      .cls-5 {
        fill: none;
      }

      .cls-6 {
        fill: #bcb9b1;
      }

      .cls-7 {
        fill: #ded8cb;
      }

      .cls-11 {
        stroke-miterlimit: 10;
        stroke-width: 2.9px;
      }

      .cls-11, .cls-12 {
        fill: #fff;
        stroke: #fff;
      }

      .cls-8 {
        fill: #cc595d;
      }

      .cls-12 {
        stroke-linecap: round;
        stroke-linejoin: round;
        stroke-width: 1.9px;
      }

      .cls-9 {
        fill: #f2ecdc;
      }

      .cls-10 {
        fill: #e1646a;
      }
    </style>
  </defs>
  <path class="cls-11" d="M54.2,24.9c-1.7-13.2-12.9-22.8-25.8-22.8-1.1,0-2.2,0-3.3.2C10.8,4.1.7,17.1,2.5,31.4c1.7,13.2,12.9,22.8,25.8,22.8s2.2,0,3.3-.2c14.3-1.8,24.4-14.8,22.6-29.1ZM30.8,47.3c-.8.1-1.6.2-2.4.2-9.7,0-17.9-7.3-19.1-16.9-.6-4.7.6-9.2,3-12.9l30.4,23.6c-3.1,3.3-7.2,5.5-11.8,6ZM45.6,36.9L15.6,13.7c2.8-2.5,6.3-4.1,10.3-4.6.8-.1,1.6-.2,2.4-.2,9.7,0,17.9,7.3,19.1,16.9.5,3.9-.2,7.7-1.9,11.2Z"/>
  <path class="cls-8" d="M54.2,24.9c-1.7-13.2-12.9-22.8-25.8-22.8-1.1,0-2.2,0-3.3.2C10.8,4.1.7,17.1,2.5,31.4c1.7,13.2,12.9,22.8,25.8,22.8s2.2,0,3.3-.2c14.3-1.8,24.4-14.8,22.6-29.1ZM30.8,47.3c-.8.1-1.6.2-2.4.2-9.7,0-17.9-7.3-19.1-16.9-.6-4.7.6-9.2,3-12.9l30.4,23.6c-3.1,3.3-7.2,5.5-11.8,6ZM45.6,36.9L15.6,13.7c2.8-2.5,6.3-4.1,10.3-4.6.8-.1,1.6-.2,2.4-.2,9.7,0,17.9,7.3,19.1,16.9.5,3.9-.2,7.7-1.9,11.2Z"/>
  <path class="cls-12" d="M41.1,38.5s0-28.5,0-28.6c0,0,0,0,0,0h0s0,0-.2-.1c-.2,0-.4,0-.4,0l-.3.2s0,0,0,0c0,0-.5-.2-1.1-.5h0s-.1,0-.1,0h0c-.1,0-.2-.1-.4-.2h0s-.2,0-.2,0c0,0,0,0,0,0-.3-.2-.6-.3-.8-.4-.6-.3-2.8-1.8-2.8-1.8h.1c0,0,0-.7,0-.7,0,0,0,0-.2-.1-.1,0-.3,0-.3,0,0,0-16.5,9.4-16.7,9.6-.3.1-.4.4-.4.4,0,0,0,.2,0,.3h0s0,7.8,0,7.8v15.2c0,0,0,0,0,0v.6s0,0,0,0v5s0,.8.7,1.5c.8.8,2.7,1.9,3.6,2.2,1,.3,2,.7,2.4.4l.4-.4.6-.2h0c1.8-1.2,15.7-9.7,15.9-9.7.2,0,.1-.3.1-.3Z"/>
  <g>
    <path class="cls-9" d="M34.6,6.8s2.2,1.5,2.8,1.8c.6.3,2.5,1.2,2.6,1.2h.1s-16,9.6-16,9.6l-.5.3-1.9-.3-2.9-1.7-1.1-1.2.4-.5,14.1-8.1,2.3-1.1Z"/>
    <path class="cls-3" d="M17.8,16.7s.4-.5.7-.7c.3-.2,16.1-9.2,16.1-9.2h.1c0,0,0-.7,0-.7l-16.1,9.1s-.5.3-.7.3c-.2,0-.6.4-.6.5s.3.6.3.6Z"/>
    <path class="cls-10" d="M18,16.5v-.2c.1,0,1.3,1.4,2.4,2,1.1.6,2.3,1,2.6,1s1.1.2,1.1.2l-.4.3s-2.3-.6-3.2-1c-.9-.4-2.7-2-2.7-2v-.2Z"/>
    <path class="cls-2" d="M24.8,19.3l16-9.6h.1s0,0,0,0c0,0,0,28.6,0,28.6,0,0,0,.2-.1.3-.2,0-16.1,9.8-16.1,9.8v-29.1Z"/>
    <polygon class="cls-1" points="24.3 19.5 25 19.2 24.9 48.3 24.3 48.6 24.3 19.5"/>
    <polygon class="cls-3" points="24 48.9 24.4 48.5 24.4 19.5 23.8 19.9 24 48.9"/>
    <polygon class="cls-10" points="31.5 12.2 31.5 10 34.5 8.2 34.4 10.5 31.5 12.2"/>
    <polygon class="cls-7" points="34.4 10.5 36 10.8 33.4 12.4 31.5 12.2 34.4 10.5"/>
    <path class="cls-6" d="M38.2,9s-2.6,1.6-2.7,1.6c0,0,0,0,0,0,0,0,2.8-1.5,2.8-1.5h-.2Z"/>
    <polygon class="cls-6" points="36 10.9 38.8 9.2 38.9 9.3 36.2 10.9 36 10.9"/>
    <path class="cls-6" d="M19.7,17.2l1.9-.9s.6-.2.2,0c-.4.2-1.6.8-1.9,1-.3.1-.2,0-.2,0Z"/>
    <polygon class="cls-5" points="20.2 17.8 23.7 15.6 23.5 15.9 20.4 17.8 20.2 17.8"/>
    <path class="cls-6" d="M20.1,17.9l3.8-2.2s.2-.1.2,0c0,0-3.6,2.2-3.6,2.2,0,0-.5.2-.4,0Z"/>
    <path class="cls-2" d="M17.2,16.1v7.8s0,20.8,0,20.8c0,0,0,.8.7,1.5.8.8,2.7,1.9,3.6,2.2,1,.3,2,.7,2.4.4v-29c0,0-1-.2-2-.5-1-.3-3-1.4-3.3-1.7-.3-.3-1.2-1.2-1.2-1.2l-.3-.4Z"/>
    <path class="cls-1" d="M17.2,24.2v-.6s1.2,1.6,2.6,2.4c1.3.7,2.4,1.2,3.3,1.2.3,0,.8,0,.8,0v.4s-.5,0-1.1,0c-.7,0-1.8-.5-3.1-1.2-1.4-.8-2.4-1.9-2.5-2.2Z"/>
    <path class="cls-1" d="M17.2,31.8s1,1.4,2.7,2.4c1.3.8,2.7,1.1,3.2,1.2.4,0,.8,0,.8,0v.4c0,0-1,0-2.4-.5-1.4-.4-2.4-1.2-3.1-1.7-.7-.5-1.2-1.1-1.2-1.1v-.7Z"/>
    <path class="cls-1" d="M17.2,39.1s.8,1.3,2.7,2.3c2.6,1.3,3.9,1.4,3.9,1.4v.5s-1.4,0-3.4-1c-2-1-3.2-2.5-3.2-2.5v-.6Z"/>
    <path class="cls-4" d="M17.2,15.9s.1-.3.4-.4c.3-.1,16.7-9.6,16.7-9.6,0,0,.1,0,.3,0s.2.1.2.1l-16.1,9.2s0,0-.3.3c-.3.2-.7.3-.7.3,0,0-.2.2,0,.5.2.3,1.1,1.4,2.3,2.1,1.1.7,3.3,1.1,3.6,1.1s.4-.4.7-.4.6-.1.6-.1l15.5-9.4s.2-.1.4,0c.2,0,.2.2.2.2l-16,9.6s-.5.2-.6.3c-.1.1-.2.4-.4.4,0,0-.1,0-1,0-.8-.2-3.1-.9-4.2-1.8-1.1-.9-1.7-1.8-1.5-2.2Z"/>
  </g>
</svg>