<?xml version="1.0" encoding="UTF-8"?>
<svg id="Livello_1" data-name="Livello 1" xmlns="http://www.w3.org/2000/svg" version="1.1" viewBox="0 0 76.5 76.5">
  <defs>
    <style>
      .cls-1 {
        fill: none;
      }

      .cls-1, .cls-2, .cls-3, .cls-4, .cls-5, .cls-6, .cls-7, .cls-8 {
        stroke-width: 0px;
      }

      .cls-2 {
        fill: #b5393d;
      }

      .cls-2, .cls-3, .cls-8 {
        opacity: .7;
      }

      .cls-3 {
        fill: #c4676a;
      }

      .cls-4 {
        fill: #e0e0e0;
      }

      .cls-5 {
        fill: #000;
      }

      .cls-6 {
        fill: #663a0e;
      }

      .cls-7 {
        fill: #fff;
      }

      .cls-8 {
        fill: #be5456;
      }
    </style>
  </defs>
  <path class="cls-7" d="M39.2,61.2c-6.6-6.9-15.8-11.6-27.2-13.8l-3.3-.6,2.8-1.9c2.4-1.7,4.9-4.1,7.3-7.3,2.9-3.9,5-6.5,5.4-6.9.3-.5.7-1,1-1.5,1.8-2.8,3.7-5.7,6.6-7,1.4-2.2,3.8-3.5,6.4-3.5s4.1.8,5.5,2.3c2.8.4,5.2,1.4,7.2,2.8h.1c0,.1.1.2.1.2.7.8,1.3,1.7,1.9,2.7.5.9,1.4,1.6,2.4,1.8,2.9.7,5.8,1.2,8.7,1.4h0c.6,0,1.4.4,1.9,1.2,1.2,1.9.6,5.5-2,11.4-1.5,3.4-6.9,5.2-11.2,5.2s-1.6,0-2.4-.2c-.2,0-.4,0-.6,0-3.3,0-5.8,4.4-6.1,5.1l-2.7,10.4-1.8-1.8Z"/>
  <g>
    <g>
      <path class="cls-4" d="M64,31.4c-3-.2-5.9-.7-8.9-1.4-1.4-.3-2.6-1.2-3.3-2.5-.5-.9-1.1-1.8-1.8-2.6-5.1-3.7-12.3-2.9-15.5-2.2-.2,0-.4,0-.6.1-.5.1-1,.3-1,.3h0c-3.5,1.2-5.5,5.1-7.7,8.4,0,0-2.2,2.6-5.4,6.9-2.1,2.7-4.6,5.5-7.6,7.6,9.1,1.8,19.8,5.7,27.9,14.2l2.1-8.1s3.2-6.8,8.3-6c5.1.8,10.9-1.3,12.2-4.2,4.7-10.7,1.3-10.6,1.3-10.6ZM50.8,30.3h0s-.3,1.9-.6,2.4c-1.1,1.6-1.8,3.5-1.8,4.5,0,6.4.7,5.1-5.2,8.2-.7.4-1.5.5-2.4.5-.1,7.2-7.1,4.3-8.8,4.1-3.7-.5-6-6.9-6-10.6s0-1.1.2-1.7c-.8-.8-1.1-2-.7-3,.9-2,3.9-6.7,4-6.9,0,0,.3-.3.5-.6.2-.3.5-.5.6-.7,2.3-2.3,5.5-3.6,8.7-3.6,9.5,0,12.6,3.3,11.5,7.3ZM63.2,37.2c-1.5,0-1.6-.9-1.6-2.4s-1.3-3.4.2-3.4,3.2.3,3.2,1.8-.3,3.9-1.8,3.9Z"/>
      <path class="cls-5" d="M65,33.3c0,1.5-.3,3.9-1.8,3.9s-1.6-.9-1.6-2.4-1.3-3.4.2-3.4,3.2.3,3.2,1.8Z"/>
      <path class="cls-5" d="M40.8,46c-.1,7.2-7.1,4.3-8.8,4.1-3.7-.5-6-6.9-6-10.6s0-1.1.2-1.7c1-5.7,6.6-12.7,9.5-10.9,4.7,3,2.9,8.9,4,12.5h0c.8,2.8,1.1,4.9,1.1,6.5Z"/>
      <path class="cls-1" d="M40.8,46c-5,0-11.8-5.7-14.6-8.2h0c1-5.7,6.6-12.7,9.5-10.9,4.7,3,2.9,8.9,4,12.5h0c.8,2.8,1.1,4.9,1.1,6.5Z"/>
      <path class="cls-6" d="M50.8,30.3h0s-.3,1.9-.6,2.4c-1,1.6-1.8,3.5-1.8,4.5,0,6.4.7,5.1-5.2,8.2-.7.4-1.5.5-2.4.5,0-1.6-.3-3.8-1.1-6.5h0c-1.1-3.6.7-9.5-4-12.5-2.9-1.9-8.5,5.2-9.5,10.8-.8-.8-1.1-2-.7-3,.9-2,3.9-6.6,4-6.9,0,0,.3-.3.5-.6.2-.3.4-.5.6-.6,2.3-2.3,5.5-3.6,8.7-3.6,9.5,0,12.6,3.2,11.5,7.3Z"/>
      <path class="cls-5" d="M44.8,30.8s2.6-.4,3.5-1.7.5.2,0,.9-3.5.9-3.5.9Z"/>
    </g>
    <g>
      <circle class="cls-3" cx="38.2" cy="26.3" r="6.2"/>
      <circle class="cls-8" cx="38.2" cy="26.3" r="4.5"/>
      <circle class="cls-2" cx="38.2" cy="26.3" r="2.8"/>
    </g>
  </g>
</svg>