<?xml version="1.0" encoding="utf-8"?>
<!-- Generator: Adobe Illustrator 27.9.0, SVG Export Plug-In . SVG Version: 6.00 Build 0)  -->
<svg version="1.1" id="Livello_2_00000071557467670069528790000010836547671530433702_"
	 xmlns="http://www.w3.org/2000/svg" xmlns:xlink="http://www.w3.org/1999/xlink" x="0px" y="0px" viewBox="0 0 24 20.8"
	 style="enable-background:new 0 0 24 20.8;" xml:space="preserve">
<style type="text/css">
	.st0{fill:#FFFFFF;stroke:#FFFFFF;stroke-width:1.4;stroke-linecap:round;stroke-linejoin:round;stroke-miterlimit:10;}
	.st1{fill:#C5686A;}
	.st2{fill:#A85454;}
	.st3{fill:#D99998;}
	.st4{fill:#CA8E8E;}
</style>
<g id="Complications">
	<g id="ic_Orchitis_and_epididymitis">
		<path class="st0" d="M22.7,9.1c0.2-0.5,1.2-3.1-0.6-4.9l0,0c-0.5-0.5-0.8-1.3-1-2.4L21,1.7c-0.1-0.1-0.2-0.3-0.4-0.6l-0.5,0.1
			c0,0.4,0,0.9,0,1.2c0,0.1,0,0.2,0,0.3c-0.6-0.6-1.4-1.2-2.5-1.6c-0.6-0.2-1.2-0.3-1.8-0.3c-1.2,0-2.3,0.4-3,1.1
			c-0.4,0.5-0.6,1.1-0.5,1.7c-0.5,0.5-1,1-1.4,1.7c0.1-0.6-0.1-1.2-0.5-1.6c-0.6-0.6-1.6-1-2.8-1C7.1,2.6,6.5,2.7,6,2.9
			C4.9,3.3,4.1,4,3.7,4.5c0-0.1,0-0.2,0-0.3c0-0.6,0-1.2,0.1-1.8L3.2,2.3C3.1,2.7,3,3,2.9,3.2l0,0.1c-0.1,1.2-0.5,2.1-1,2.6
			c-1.7,1.7-0.8,4.1-0.6,4.6c0,0.2-0.1,0.4-0.1,0.6c-0.7,3.9,1.2,7.5,4.1,8c0.2,0,0.5,0.1,0.7,0.1c1.5,0,2.9-0.8,4-2.1h0
			c0.1-0.2,0.3-0.4,0.4-0.6c0,0,0.1-0.1,0.1-0.1c0.1-0.1,0.2-0.3,0.3-0.4c0,0,0,0,0,0c0.1-0.1,0.1-0.2,0.2-0.3
			c1.4,2.7,3.7,4.4,6.1,4.4c0.3,0,0.6,0,0.9-0.1c3.6-0.7,5.8-5.1,4.9-9.9C22.8,9.7,22.8,9.5,22.7,9.1L22.7,9.1z"/>
		<g>
			<ellipse transform="matrix(0.1709 -0.9853 0.9853 0.1709 -6.3024 16.2993)" class="st1" cx="6.5" cy="11.9" rx="7" ry="5.1"/>
			<path class="st2" d="M10.3,6.7c0,0-2.9,3.1-1.8,7.4c0.6,2.3,1.3,2.7,1.3,2.7c0.4-0.5,0.8-1.1,1.2-1.9C13,10.1,10.3,6.7,10.3,6.7
				L10.3,6.7z"/>
			<ellipse transform="matrix(0.9839 -0.1785 0.1785 0.9839 -1.7318 3.099)" class="st3" cx="16.4" cy="11.2" rx="6.4" ry="8.6"/>
			<path class="st4" d="M20.4,1.2c0,0.4,0,0.9,0,1.2s-0.1,0.9-0.3,0.7l1.7,1.3c-0.6-0.6-0.9-1.5-1.1-2.6C20.7,1.7,20.6,1.4,20.4,1.2
				L20.4,1.2z"/>
			<path class="st1" d="M21.9,4.4c1.9,1.9,0.5,4.7,0.5,4.7c-0.2-0.8-0.6-1.6-0.6-1.6c-3.2-1.1-3.4-2.7-4.5-3.3s-1.5,0-1.5,0
				s-0.5,1-1.8,1s-1.5-1.5-1.5-1.5c-0.3-2.4,2.8-3.2,5-2.4c1.2,0.4,2.1,1.2,2.6,1.7C20.2,3.1,21.9,4.4,21.9,4.4z"/>
			<path class="st4" d="M3.1,3.3C3,4.4,2.7,5.4,2.1,6c-1.8,1.8-0.5,4.4-0.5,4.4c0.2-0.7,0.5-1.5,0.5-1.5c3-1,3.2-2.5,4.2-3.1
				s1.4,0,1.4,0s0.5,0.9,1.6,0.9s1.4-1.4,1.4-1.4c0.3-2.2-2.6-3-4.6-2.2C5,3.6,4.1,4.3,3.7,4.8C3.5,5,3.4,4.5,3.4,4.2
				c0-0.6,0-1.2,0.1-1.8C3.4,2.7,3.3,3.1,3.1,3.3L3.1,3.3z"/>
		</g>
	</g>
</g>
</svg>
