<?xml version="1.0" encoding="UTF-8"?>
<svg id="Livello_1" data-name="Livello 1" xmlns="http://www.w3.org/2000/svg" version="1.1" viewBox="0 0 56.7 56.7">
  <defs>
    <style>
      .cls-1 {
        fill: #f2d2c0;
      }

      .cls-1, .cls-2, .cls-3, .cls-4 {
        stroke-width: 0px;
      }

      .cls-5 {
        stroke: #fff;
        stroke-linecap: round;
        stroke-linejoin: round;
        stroke-width: 1.1px;
      }

      .cls-5, .cls-4 {
        fill: #fff;
      }

      .cls-2 {
        fill: #ddbca9;
      }

      .cls-3 {
        fill: #c5686a;
      }
    </style>
  </defs>
  <g>
    <path class="cls-4" d="M24.3,38.4s7,3.8,8.2,7,3.1,7.1,6.6,7.6,4.1-2,4.1-2c0,0,1.4,3.8,5,4.5,3.6.7,4.1-2.4,4.1-2.4,0,0,.2.3,1,.2s2.3-.9,2.4-2.6-2-4.5-2-4.5c0,0,.2,0,1.1,0s1.6-.7,1.6-2.2-2.6-5.5-3.5-7.2-1.5-3.5-1.5-3.5l.6-1.1c.6-1.1,0-2.1-.7-2.9s-7.3-4.2-7.3-4.2c0,0-1.2-2-5.1-3.9s-8.9-1.9-8.9-1.9c-.5-.1-4.7-.2-9.6-1.3-4.9-1.1-9.9-3.2-9.9-3.2,0,0-3.3-1-5.9.7C0,20.1.3,32.6.3,32.6h3.9c0-.1,8.3.8,11.1,1.8s9,3.9,9,3.9Z"/>
    <path class="cls-1" d="M50.1,32.7s1.3-1,.7-2-6.8-4.3-6.8-4.3l6.1,6.3Z"/>
    <path class="cls-1" d="M24.1,36.1c1.2,1,6.6,4,8.6,6.9,1.9,2.9,3.5,6.6,4.4,7.3s2,1.7,3.3,1.1.2-3.3.2-3.3c0,0-3.1-6.9-4.6-8.5,0,0,.4-.1.6-.3,0,0,1.9,3,4.3,4.9,2.4,1.9,2.9,8.6,7.1,9.6,4.2,1,2.7-2.4,2.7-2.4,0,0,2.3,1.7,3.6-.3.6-.9-1.5-4.3-2.2-5.8,0,0,2.8.8,3.2-.9s-.2-1.3-.8-2.4-1.3-2.3-2.1-3.7c-1.1-2-2.1-4.6-2.7-5.3s-6.1-6.3-6.1-6.3c0,0-3.6-5.4-11.8-5.9s-14.4-2.3-14.4-2.3c0,0-6.5-2.6-10.6-2.4S1.9,31,1.9,31h2.5c0,0,3.8,0,8.6,1.2s10.2,3.1,11.1,3.9Z"/>
    <path class="cls-2" d="M40.9,35s-.1.4,0,.6-.4.3,1.4,1.5,3.8,2.8,4.1,4,.1.9.7,2.7,1.2,3,1.5,3.2.7,1.2.8,1.5,1.5,2.5,1.7,3.2,0-.7-.8-1.8-.9-2.2-1.5-3-1.1-1.9-1.1-2.1-1-4.1-1.4-4.5c-.7-1-3.8-3.3-3.8-3.3,0,0-1.1-1.2-1.4-2.1Z"/>
    <path class="cls-2" d="M36.7,39.2s-.2.2-.6.3c0,0-1.1-1.7-1.5-2,0,0-.3-.6-.2-.8.2-.2.8,0,1.1,0,.2,0,.2.7.5.8.3.4.7,1,.7,1.3v.4Z"/>
    <path class="cls-2" d="M43.6,30.9s0,1.1-.4.7.7,1.5,1.1,1.8,4.1,3.9,4.7,4.9,2.8,6.5,3.2,6.8c0,0-2.1-4.6-2.2-5s-.7-2-.9-2.1-3.1-3.8-3.8-4.4-1.8-2.8-1.8-2.8Z"/>
  </g>
  <g>
    <g>
      <path class="cls-5" d="M39.5,20.3c-.1-.4-.5-1-1.4-1h0c-.3,0-.6.1-1.1.2-1.6.7-5.5,4.4-6.7,5.7v-.6c.1,0,.2-.5-.1-.9-.1-.1-.3-.2-.5-.2s-.3,0-.6.2c-1.3.6-5.1,5.3-6,6.7-.1.2-.2.3-.1.4h.1c0,.1.1.1.1.1.4,0,3.5-2.7,5.4-4.4,0,.1,0,.4-.1.7-.2,1.2-.1,1.5,0,1.6s.2.1.3.1h.2c.1-.1,9.3-6.8,10.1-7.5.3-.3.4-.9.3-1.3Z"/>
      <path class="cls-5" d="M23.6,4.1c.2-.7-.3-1.7-.9-2.3-.2-.3-.6-.6-1.1-.6h0c-.3,0-.7.1-1,.7-.6,1.7-.9,8.7-.9,10.9l-.4-.4s-.3-.5-.9-.5-.5.2-.7.7c-.4,1.3.1,7.4.3,9.1,0,.1.1.4.3.4s.5,0,1-7c.1.1.2.3.4.6.6,1.1,1,1.2,1.2,1.2s.3-.1.3-.2c.2-.2,2.1-11.4,2.2-12.5Z"/>
      <path class="cls-5" d="M26.7,19.2c.2,1.4.4,1.9.9,1.9s.3-.1.3-.1c.1-.1,8.1-12.2,8.9-13.3.5-.7.4-2.7-.1-3.7-.3-.6-.7-.7-1.1-.7s-.6.2-1.1.5c-1.7,1.7-5.7,10-6.6,12.3l-.3-1c-.1-.3-.3-1.1-1-1.1s-.5.2-.9.5c-1.3,1.3-3.7,8.6-4.2,10.7-.1.3-.1.4,0,.5h.1c0,.1.1.1.1.1.1,0,.5,0,4.7-7.8,0,.2.1.5.2,1.2Z"/>
      <path class="cls-5" d="M35.6,3.1h0c0,.1,0,0,0,0Z"/>
    </g>
    <g id="Tracciato_28-2" data-name="Tracciato 28-2">
      <path class="cls-3" d="M23.1,30.9h0c-.1-.1-.1-.2.1-.4,1.1-1.6,4.8-6.2,6-6.7.2-.1.4-.1.5-.1.2,0,.3,0,.4.2.2.2.1.7.1.7v.9c.9-1,5.1-5,6.8-5.8.3-.1.6-.2,1-.2.7,0,1.2.4,1.3.9s0,1-.3,1.3c-.9.6-10,7.4-10.1,7.5h-.1q-.1,0-.2-.1c-.1-.2-.1-.7,0-1.5.1-.7.1-1,.1-1.1h0c-1.2,1.1-5,4.5-5.5,4.5.1,0,0,0,0,0Z"/>
      <path class="cls-4" d="M38.1,19.6c1.2,0,1.6,1.4.9,1.9-1,.6-10.1,7.5-10.1,7.5h-.1c-.1,0-.3-.2-.1-1.5.2-1,.1-1.2,0-1.2s-.2.1-.2.1c0,0-4.9,4.5-5.4,4.5s0-.1.1-.2c1.1-1.5,4.8-6.1,6-6.7.2-.1.4-.1.5-.1.5,0,.4.9.4.9v1.2c-.1,0,5.1-5.1,7-6,.4-.3.7-.3,1.1-.3M38.1,19.4c-.3,0-.6.1-1.1.2-1.6.7-5.4,4.4-6.8,5.7v-.6c.1,0,.2-.5-.1-.9-.1-.1-.3-.2-.5-.2s-.4,0-.6.2c-1.3.6-5.1,5.3-6,6.7-.1.1-.2.3-.1.4h.1c0,.1.1.1.1.1.4,0,3.5-2.7,5.4-4.4,0,.1,0,.4-.1.7-.2,1.2-.1,1.5,0,1.6s.2.1.3.1h.2c.1-.1,9.3-6.8,10.1-7.5.4-.3.5-.9.4-1.4-.2-.4-.6-.9-1.4-.9h0Z"/>
    </g>
    <g id="Tracciato_29-2" data-name="Tracciato 29-2">
      <path class="cls-3" d="M18.6,21.8c-.1,0-.2-.2-.2-.3-.3-1.8-.9-7.8-.3-9,.2-.4.3-.6.6-.6s.7.4.7.4l.5.7c0-1.7.2-9.3.9-11.1.2-.6.6-.7.9-.7.4,0,.7.3,1.1.6.5.6,1,1.7.9,2.2-.2,1.1-2.1,12.3-2.1,12.4s-.1.2-.2.2c-.2,0-.6-.4-1.1-1.2-.4-.6-.6-.9-.6-.9h0c-.5,7.1-.9,7.1-1,7.1h0Z"/>
      <path class="cls-4" d="M21.7,1.4c.9,0,1.9,1.9,1.8,2.8-.2,1.1-2.1,12.4-2.1,12.4,0,0,0,.1-.1.1s-.4-.2-1-1.1c-.4-.7-.6-1-.7-1s-.1.2-.1.2c0,0-.4,6.9-.9,6.9,0,0-.1-.1-.1-.2-.3-1.8-.9-7.7-.3-9,.2-.4.3-.6.5-.6.3,0,.6.4.6.4l.7,1s.1-9.4.9-11.4c.2-.4.4-.6.7-.5M21.7,1c-.3,0-.6.1-1,.9-.6,1.7-.9,8.7-.9,10.9l-.3-.4s-.3-.5-.9-.5-.5.2-.7.7c-.4,1.3.1,7.4.3,9.1,0,.1.1.4.3.4s.5,0,1-7c.1.1.2.3.4.6.6,1.1,1,1.2,1.2,1.2s.3-.1.3-.2,1.9-11.3,2.1-12.5c.2-.7-.3-1.7-.9-2.3-.2-.3-.6-.6-1.1-.7h0Z"/>
    </g>
    <g id="Tracciato_30-2" data-name="Tracciato 30-2">
      <path class="cls-3" d="M21.8,25.7h0c-.1-.1-.1-.2-.1-.4.5-2.3,3.1-9.4,4.2-10.7.3-.3.5-.4.9-.4.6,0,.9,1,.9,1l.3,1.2c.9-1.7,5-10.8,6.7-12.6.3-.3.6-.5,1-.5s.6.2,1,.6c.5,1.1.5,3,.1,3.7-.7,1.2-8.7,13.2-8.9,13.3,0,0-.1.1-.2.1-.3,0-.6-.6-.7-1.9-.2-1.2-.3-1.4-.3-1.4v.2c-1.4,2.5-4.3,7.8-4.7,7.8h0Z"/>
      <path class="cls-4" d="M35.6,3.4c1.3,0,1.6,3.2,1,4.2-.7,1.2-8.9,13.3-8.9,13.3h-.1c-.2.1-.4-.1-.6-1.7-.2-1.2-.3-1.5-.4-1.5s-.2.2-.2.2c0,0-4.1,7.7-4.5,7.7s-.1-.1,0-.3c.5-2.2,3-9.4,4.2-10.6.3-.3.5-.4.7-.4.5,0,.7.9.7.9l.4,1.5s4.9-10.9,6.8-12.8c.3-.3.6-.5.9-.4M35.6,3.1c-.3,0-.6.2-1.1.5-1.7,1.7-5.7,10-6.6,12.3l-.2-.9c-.1-.4-.3-1-1-1s-.6.2-1,.5c-1.2,1.3-3.7,8.6-4.2,10.7-.1.3-.1.4,0,.5h.1c0,.1.1.1.1.1.1,0,.5,0,4.7-7.8.1.2.1.5.2,1.1.2,1.4.4,1.9.9,1.9s.3-.1.3-.1c.1-.1,8.1-12.2,8.9-13.3.5-.7.4-2.7-.1-3.7-.4-.6-.9-.9-1.1-.9h0Z"/>
    </g>
  </g>
</svg>