<?xml version="1.0" encoding="UTF-8"?>
<svg id="Livello_1" data-name="Livello 1" xmlns="http://www.w3.org/2000/svg" version="1.1" viewBox="0 0 56.7 56.7">
  <defs>
    <style>
      .cls-1 {
        fill: #f2d2c0;
      }

      .cls-1, .cls-2, .cls-3 {
        stroke-width: 0px;
      }

      .cls-2 {
        fill: #ddbca9;
      }

      .cls-3 {
        fill: #fff;
      }
    </style>
  </defs>
  <path class="cls-3" d="M10.7,9.7s.9-1.5,2.2-2.6,2-2,4.1-2c2,0,18.8.1,18.8.1,0,0-2.1,6.8-5.9,8.2,0,0,.3.2.3.7,0,0,5.1,0,8.9,1.8,3.8,1.9,5,3.9,5,3.9,0,0,6.7,3.4,7.2,4.2s1.3,1.8.7,2.9l-.6,1.1s.6,1.8,1.5,3.5,3.5,5.6,3.5,7.1-.8,2.1-1.6,2.2-1,0-1,0c0,0,2,2.8,1.9,4.5s-1.6,2.4-2.4,2.6-1-.2-1-.2c0,0-.5,3.1-4.1,2.4s-5-4.5-5-4.5c0,0-.6,2.4-4,1.9-3.5-.5-5.4-4.4-6.5-7.5s-8.2-6.9-8.2-6.9c0,0-1.6,2.6-5,1.8-.5-.1-1.3-.4-2-1.2-.8-.2-2.1,0-2.8-.3-1.4-.2-1.1-.8-2.2-1.2-1.8-.5-3.7-.5-5.8-1-1.8-1.1-1.5-1.8-2.2-4.1H.6c0,.1-.2-12.3,4.4-16.8,2.5-1.7,5.8-.7,5.8-.7Z"/>
  <path class="cls-1" d="M50,27.4s1.3-1,.7-2-6.7-4.2-6.7-4.2l6,6.2Z"/>
  <path class="cls-1" d="M49.7,27.7c.6.7,1.5,3.2,2.7,5.3s1.5,2.7,2.1,3.7.9,1.9.8,2.3c-.4,1.6-3.2.9-3.2.9.7,1.5,2.8,4.8,2.2,5.7-1.3,2-3.6.3-3.6.3,0,0,1.4,3.4-2.7,2.4-4.1-1-4.6-7.6-7-9.5-2.4-1.9-4.3-4.8-4.3-4.8-.2.2-.6.3-.6.3,1.4,1.6,4.5,8.4,4.5,8.4,0,0,1.2,2.6-.2,3.3-1.3.6-2.4-.4-3.3-1.1s-2.5-4.4-4.4-7.2c-1.9-2.9-7.3-5.9-8.5-6.8s-1.5-.8-1.5-.8c0,0,1.2-6.2-1.3-7.8-.7-.3-1.2-.4-1.2-.4,0,0,.4-2.2-.2-3.2s-1.4-1.5-2.1-1.9-1.4-.5-2-.2-1.2,1.2-1.2,1.2c0,0-.1-.5-.7-1.2s-1-.8-1.6-.8-1.7.2-2.6.8-1.3,4.1-1.4,4.8c-.7,0-1.4,0-2.2.8-1,1-1.4,3.5-1.4,3.5h-2.5c0,0,1.1-14.6,5.1-14.8,4-.1,10.4,2.4,10.4,2.4,0,0,6,1.8,14.2,2.3s11.7,5.8,11.7,5.8c0,0,5.4,5.5,6,6.2Z"/>
  <path class="cls-1" d="M23.9,31.2s-1.8,2.1-2.4,2.2-3.1.7-3.5-1.4c0,0-3.8.6-4.9-1.6,0,0-3.2.3-3.7-1,0,0-2.1.9-3.1-.9s-.8-2.7-.8-2.7c0,0,.6-4.5,3.4-3.4,0,0,.4-4.9,1.3-5.3s3.3-1.8,4.2,1.9c0,0,1.2-2.5,2.8-1.8s2.3,1.6,2.5,2.8-.3,2.4-.3,2.4c0,0,1.8-.4,2.6,2.1s0,6,0,6c0,0,.6,0,1.9.8Z"/>
  <path class="cls-1" d="M12.4,10.3s2-3.2,3.3-3.5,17.8,0,17.8,0c0,0-1.7,4.2-5.2,5.2,0,0,.8.7.8,2,0,0-2.6-.3-5.2-.7s-5.7-1.2-5.7-1.2c0,0-2.2-1-5.7-1.9Z"/>
  <path class="cls-2" d="M19.2,9.3s6.8.5,9,2.8c0,0,3.2-.8,5.2-5.2h-2.2c-.9-.1-1.7.9-3.2.9-2.6,0-5.8.4-8.7,1.5Z"/>
  <path class="cls-2" d="M8.9,22.4s-.4,2.4-.3,3,.8,4,.8,4c0,0-.2.2-.5-.5-.2-.5-.9-3.1-.9-3.6s.6-3,.8-2.9Z"/>
  <path class="cls-2" d="M14.4,19s-1.1,2.1-1.5,2.7-.4,1.1-.4,1.1c0,0-.4,2.6.6,7.6,0,0-.4.1-.5-.6s-1-5.8-.5-7.1,1-1.3,2.3-3.7Z"/>
  <path class="cls-2" d="M19.4,22.4s-1,.5-1.2,1.5-.6,2.9-.6,4.1c0,1.8.4,4.1.4,4.1,0,0-.2,0-.3,0s-.2-2-.3-3.2c-.1-1.9.3-3,.4-3.6s.2-1.2.4-1.7.8-1,1.2-1.1Z"/>
  <path class="cls-2" d="M40.8,29.7s-.1.4,0,.6-.4.3,1.4,1.5c1.7,1.2,3.8,2.8,4,3.9s.1.9.7,2.7,1.2,2.9,1.5,3.2.7,1.2.8,1.5,1.5,2.4,1.7,3.2,0-.7-.8-1.8c-.8-1.2-.9-2.1-1.5-2.9s-1.1-1.9-1.1-2.1-1-4-1.4-4.5c-.7-1-3.7-3.2-3.7-3.2,0,0-1.1-1.2-1.4-2.1Z"/>
  <path class="cls-2" d="M36.7,33.9s-.2.2-.6.3c0,0-1.1-1.7-1.5-2,0,0-.3-.6-.2-.8.2-.2.8,0,1.1,0,.2,0,.2.7.5.8.3.4.7,1,.7,1.3v.4Z"/>
  <path class="cls-2" d="M43.5,25.7s0,1-.4.7.7,1.5,1,1.8,4.1,3.9,4.7,4.9,2.7,6.4,3.2,6.8c0,0-2.1-4.6-2.2-5s-.7-1.9-.9-2.1-3.1-3.7-3.7-4.3-1.8-2.7-1.8-2.7Z"/>
</svg>