<?xml version="1.0" encoding="UTF-8"?>
<svg id="Livello_1" data-name="Livello 1" xmlns="http://www.w3.org/2000/svg" version="1.1" viewBox="0 0 76.5 76.5">
  <defs>
    <style>
      .cls-1 {
        fill: #bf7058;
      }

      .cls-1, .cls-2, .cls-3, .cls-4, .cls-5, .cls-6, .cls-7, .cls-8, .cls-9, .cls-10, .cls-11 {
        stroke-width: 0px;
      }

      .cls-2 {
        fill: #ce846a;
      }

      .cls-3 {
        fill: #728472;
      }

      .cls-4 {
        fill: #f2c4b1;
      }

      .cls-5 {
        fill: #fbd4c3;
      }

      .cls-6 {
        fill: #dba897;
      }

      .cls-7 {
        fill: #f2f2f2;
      }

      .cls-8 {
        fill: #3c3c3c;
      }

      .cls-9 {
        fill: #fff;
      }

      .cls-10 {
        fill: #2c1c1c;
      }

      .cls-11 {
        fill: #fff6f3;
      }
    </style>
  </defs>
  <path class="cls-9" d="M35.7,68.6c-.4,0-.8,0-1.1,0-1.6-.1-3.1-.4-4.4-1-3.5-1.4-4.7-3.8-4.8-4v-.3c-.1,0-.1-11.5-.1-11.5-.2-.4-.4-.8-.6-1.2v-.2c-.5-1.1-1-2.2-1.4-3.6-3.3-1-4.2-10.6-4.2-10.7,0-1.5.3-2.4.6-3-.6-2-2-7.1-1-10.4.3-1,.4-1.8.4-2.6.1-2,.4-3.5,3.1-6.2,3.8-3.7,9.6-7.6,14-7.9.3,0,.7,0,1.1,0,3.8,0,11.3,1.3,13.6,6.3,1.8.8,6.8,3.9,6.8,12.3s-.1,7-.5,8.5c.2.3.4.6.6,1,.9,2.4-.5,5.8-1,6.8-.4.8-.6,1.6-.8,2.2-.4,1.4-.8,2.9-2.6,3.3-.2,0-.5,0-.7,0h0c-.2,1.4-.7,2.7-1.2,4.1l-.6,14-.8.4c-.3.2-8.1,3.7-14.5,3.7Z"/>
  <g>
    <path class="cls-4" d="M50.2,49.6v.6s-.6,13.4-.6,13.4c0,0-8.7,4-15,3.6-1.6-.1-2.9-.4-4-.9,0-.1-1-3.1,0-4.8,1.1-1.7,5.8.5,11,0,5.2-.5,5.8-6.9,5.8-7-.8,1.1-1.7,2-2.3,2.8-2.2,2.4-2.7,2.9-9.4,2.7-6.7-.3-7.2-5.2-9.2-8.5l9.8-.8,13.7-1.1Z"/>
    <path class="cls-5" d="M51.7,44s.1,1.3,1.6,1,1.2-2.2,2.4-4.7,1.9-5.9,0-6.7-4.3,4.2-4.3,4.2l.3,6.2Z"/>
    <path class="cls-4" d="M21.3,33.6s-.9.2-.8,2.6,2.2,12.1,4.3,8.7c2.1-3.4.2-14-3.5-11.2Z"/>
    <path class="cls-5" d="M51.6,44.7c-.1,2-.7,3.9-1.4,5.5-.7,1.6-1.7,3-2.6,4.3h0c-.8,1.1-1.7,2-2.3,2.8-2.2,2.4-2.7,2.9-9.4,2.7-6.7-.3-7.2-5.2-9.2-8.5-.3-.4-.5-.9-.7-1.3-1.4-3.2-2.9-6.8-1.3-12.8s.5-15.5.5-15.5c.7-4.9,10.9-6.1,16.9-5.6,6,.4,8.8,4.1,9.5,9.6.8,5.5.3,13.1,0,18.9Z"/>
    <path class="cls-10" d="M25.9,31.9s2-2.3,4.6-2.3,4.4.7,5.3,1.7-.8.6-3.1,0-6.8.7-6.8.7Z"/>
    <path class="cls-10" d="M41.9,31.9s1.7-3,5.9-1.9c0,0,2.9.7,3.6,2.5,0,0-1.4-1.4-4-1.4s-6.5,1.9-5.5.8Z"/>
    <path class="cls-6" d="M27.9,33s3.6-1.6,5.6-.5c0,0-2-2-5.6.5Z"/>
    <path class="cls-8" d="M35.2,34.8s-.7-.3-1.7,0-3.4.6-4.9,0c0,0,.3.9,2.9.9,0,0,1.1,0,1.8-.5s1.9-.4,1.9-.4Z"/>
    <path class="cls-7" d="M49.3,34.7s-1.3,1.2-3.3,1.1-3.3-1-3.3-1c.7-.6,1.4-1,2-1.2,0,.1,0,.2,0,.3,0,.8.7,1.5,1.5,1.5s1.5-.7,1.5-1.5,0-.3,0-.4c1.2.4,1.8,1.2,1.8,1.2Z"/>
    <path class="cls-3" d="M47.6,33.9c0,.8-.7,1.5-1.5,1.5s-1.5-.7-1.5-1.5,0-.2,0-.3c.9-.3,1.8-.3,2.6-.1,0,0,.2,0,.2,0h0c0,.1,0,.3,0,.4Z"/>
    <path class="cls-10" d="M46.7,34c0,.4-.3.7-.7.7s-.7-.3-.7-.7,0-.3.1-.4c.4,0,.7,0,1.1,0,0,.1.1.3.1.4Z"/>
    <circle class="cls-11" cx="45.6" cy="33.9" r=".4"/>
    <path class="cls-6" d="M35,35.9s-1.6,1.5-4.3,1.7-2,.2-1.2.5.8.8,2.4.5,3.1-2.6,3.1-2.6Z"/>
    <path class="cls-10" d="M47.6,18s-.4.6-1.6.3-5.7.3-9.7,2.9c-4,2.7-8.1,2.5-9.6,2.1s-1.6,1.6-1,2.5-.5,6.1-.3,7.5-.7,4.8-.7,4.8c0,0-1.3-4.7-3.3-4.5,0,0-2.4-6.7-1.3-10.4s-.6-4.5,3.2-8.1,9.3-7.2,13.2-7.5,11.8,1.2,13.5,5.9c0,0,6.5,2.1,6.5,11.2s-.8,8.9-.8,8.9c0,0-2.9.1-3.7,4.5,0,0-.4-5.3-.4-7.3s-.9-4.1-2.7-6-1.3-6.7-1.3-6.7Z"/>
    <path class="cls-6" d="M35.2,39.3s.7,2.1-1.7,3.8-3,3.5-3.2,5,.3,2.5.3,2.5c0,0-1-4.3,2.1-6.3,3.1-2,2.4-5,2.4-5Z"/>
    <path class="cls-4" d="M35.2,42.5s-.4.5-.2,1.5,1.3.8,1.3.8c0,0-.8.5-1.4-.3s-.1-1.8.3-2Z"/>
    <path class="cls-4" d="M37.8,44.9s.8.7,1.7,0,1.5-.9,1.9-.5-.1.7-.1.7c0,0,1.5-.8,1-2.3s-.9-1.1-1.2-2.1c0,0,.4.5,1.3,1.4s.6,2.7-.9,3.2-3.6.6-3.6-.5Z"/>
    <path class="cls-4" d="M42.4,37.2s1.5,1.7,4.2,1.4,3.7,1,3.7,1c0,0-2-.6-3.7-.3s-4-.2-4.2-2.1Z"/>
    <path class="cls-1" d="M31.9,49.2s.6,2,2.3,2.6,2.7.6,4.4.8,3.2-1.9,3.2-1.9c0,0-1.2-1.3-3.7-1.5s-4.2-1.2-6.2,0Z"/>
    <path class="cls-2" d="M42.4,50.4s-2-1.7-3.7-2c-1.6-.3-.9.2-2.7-.4s-2.8,0-4.1.3-.2.9.5.9,1.8-.3,2.8.3,2.3.5,3.4.4,3.6.9,4,1.1.3-.2-.3-.6Z"/>
    <path class="cls-8" d="M48.9,34.4c-.6-.5-1.5-.8-2.3-.8-.4,0-.8,0-1.1,0-.6,0-1.1.2-1.4.4-.8.6-1.3.8-1.4.8,0,0,.2-.2,1.4-1.1,1.4-1.1,2.9-.9,4.3-.2,1.5.8,1.8,1.9.5.9Z"/>
    <path class="cls-4" d="M52.7,38s1.2-3.4,2.5-3.4,1,2,.3,4-1.2,3.2-1.5,3.8-1.4.6-1.4-.3,1.5-1.4.9-2.5-1.4-.3-.9-1.6Z"/>
    <path class="cls-6" d="M23.5,37.2s-1.4-3.1-2.1-3-.3,3,0,4.4,1,4.1,1.4,3.8-.9-2.6.2-2.8.8-1.7.5-2.4Z"/>
    <path class="cls-6" d="M47.6,54.5c0,.2-.6,6.6-5.8,7-5.3.5-10-1.7-11,0-1,1.7,0,4.7,0,4.8-3.1-1.2-4-3.3-4-3.3v-11.6c2,3.3,2.5,8.2,9.2,8.5,6.7.3,7.2-.3,9.4-2.7.7-.7,1.5-1.7,2.3-2.8Z"/>
    <path class="cls-6" d="M44,50.5s.3,1-.3,1.7,0,.5.5,0,.4-1.5.2-1.8-.6-.5-.4,0Z"/>
  </g>
</svg>