<?xml version="1.0" encoding="UTF-8"?>
<svg id="Livello_1" data-name="Livello 1" xmlns="http://www.w3.org/2000/svg" version="1.1" viewBox="0 0 76.5 76.5">
  <defs>
    <style>
      .cls-1 {
        fill: #eaf0f0;
      }

      .cls-1, .cls-2, .cls-3, .cls-4, .cls-5, .cls-6, .cls-7, .cls-8, .cls-9, .cls-10, .cls-11, .cls-12, .cls-13, .cls-14 {
        stroke-width: 0px;
      }

      .cls-2 {
        fill: #5b3617;
      }

      .cls-3 {
        fill: #2f3c4f;
      }

      .cls-4 {
        fill: #a26842;
      }

      .cls-5 {
        fill: #2a0f06;
      }

      .cls-6 {
        fill: #8e3b45;
      }

      .cls-7 {
        fill: #c36667;
      }

      .cls-8 {
        fill: #006a74;
      }

      .cls-9 {
        fill: #d4d8d8;
      }

      .cls-10 {
        fill: #592e3f;
      }

      .cls-11 {
        fill: #fff;
      }

      .cls-12 {
        fill: #a85a67;
      }

      .cls-13 {
        fill: #231f20;
      }

      .cls-14 {
        fill: #aeafaf;
      }
    </style>
  </defs>
  <g>
    <path class="cls-11" d="M21.6,30.8h0c0-.3.2-.4.4-.4.9,0,2.7.2,3.4,1.9h0c0,0,0,.2,0,.2,0,.2-.1.3-.3.4-.1,0-.2,0-.4,0-.1,0-.2-.1-.3-.2-.7-1.5-2.4-1.4-2.5-1.4-.3,0-.5-.2-.5-.4h0c0,0,0-.1,0-.1Z"/>
    <path class="cls-7" d="M21.9,30.9c0,0,0-.1.1-.1,0,0,2.3-.2,3.2,1.8,0,0,0,.2,0,.2,0,0-.2,0-.2,0-.8-1.7-2.7-1.5-2.8-1.5,0,0-.2,0-.2-.2,0,0,0,0,0,0Z"/>
    <path class="cls-11" d="M23.3,30.2h0c0-.3.3-.4.5-.4,0,0,2.5.4,2.9,2.7h0s0,.1,0,.1c0,.2-.2.4-.4.4-.3,0-.5-.1-.5-.4-.3-1.6-1.9-1.9-2.1-1.9-.2,0-.4-.2-.4-.5h0Z"/>
    <path class="cls-7" d="M23.6,30.2c0,0,.1-.1.2-.1,0,0,2.3.3,2.6,2.5,0,0,0,.2-.1.2,0,0-.2,0-.2-.1-.3-1.9-2.3-2.2-2.3-2.2,0,0-.2-.1-.1-.2,0,0,0,0,0,0Z"/>
  </g>
  <g>
    <path class="cls-11" d="M9.1,47h0c-.1.1-.3.1-.5,0-.8-.5-1.9-1.9-1.5-3.7h0c0,0,0-.2,0-.2.1-.1.3-.2.5-.1.1,0,.2.1.3.2,0,.1,0,.2,0,.4-.4,1.6,1,2.6,1.1,2.6.2.1.3.4.1.6h0c0,0,0,0,0,0Z"/>
    <path class="cls-7" d="M8.9,46.8c0,0-.1,0-.2,0,0,0-1.9-1.3-1.3-3.3,0,0,.1-.2.2-.1,0,0,.2.1.1.2-.5,1.8,1.1,2.9,1.2,2.9,0,0,.1.2,0,.2,0,0,0,0,0,0Z"/>
    <path class="cls-11" d="M7.3,46.5h0c-.2.1-.4.1-.6,0,0,0-1.7-1.8-.5-3.9h0s0,0,0,0c.1-.2.4-.2.6,0,.2.1.3.4.2.6-.8,1.4.3,2.7.4,2.8.2.2.2.4,0,.6h0Z"/>
    <path class="cls-7" d="M7.1,46.3c0,0-.2,0-.2,0,0,0-1.5-1.7-.5-3.6,0,0,.2-.1.2,0,0,0,.1.2,0,.2-.9,1.6.4,3.1.5,3.2,0,0,0,.2,0,.3,0,0,0,0,0,0Z"/>
  </g>
  <path class="cls-11" d="M63.7,45.4h0c0,.3,0,.4-.1.6-.7.7-2.2,1.6-3.9.8h0s-.1-.1-.1-.1c-.1-.1-.1-.3,0-.5,0-.1.1-.2.3-.2.1,0,.2,0,.4,0,1.5.7,2.7-.5,2.8-.6.2-.2.5-.2.7,0h0c0,0,0,0,0,0Z"/>
  <path class="cls-7" d="M63.4,45.6c0,0,0,.1,0,.2,0,0-1.6,1.6-3.5.7,0,0-.1-.1,0-.2,0,0,.2-.1.2,0,1.7.8,3.1-.6,3.1-.6,0,0,.2,0,.3,0,0,0,0,0,0,0Z"/>
  <path class="cls-11" d="M62.8,47.1h0c0,.3,0,.5-.2.6,0,0-2.1,1.3-3.9-.2h0s0,0,0,0c-.1-.2-.1-.4,0-.6.2-.2.5-.2.7,0,1.2,1,2.7.2,2.9.1.2-.1.5,0,.6.1h0Z"/>
  <path class="cls-7" d="M62.6,47.2c0,0,0,.2,0,.2,0,0-2,1.2-3.6-.2,0,0,0-.2,0-.3,0,0,.2,0,.3,0,1.4,1.2,3.1.2,3.2.1,0,0,.2,0,.2,0,0,0,0,0,0,0Z"/>
  <path class="cls-11" d="M11.3,64.6c-1.9,0-2.4-3-2.5-3.6,0-.4,0-.7.1-1.1,0,0-.2,0-.3.1-.5.2-.9.3-1.3.3-.6,0-1.5-.3-1.8-1.6,0,0,0-.2,0-.3-.4-1.3.4-2.5.9-3.2,0-.1.2-.3.2-.4.4-.8,1.1-1,1.4-1.2.2-.1.3-.1.4-.3.3-.4.9-1.1,1.5-1.8.6-.7,1.1-1.5,1.7-2.1.7-.8,1.4-1,2-1s.5,0,.7,0c-.2-1,.3-2.6,1-3.6.6-.9,1.3-1.5,2.1-1.6h.2c.2,0,.5-.2.6-.2,0,0,.2-.2.4-1.3.1-.6,0-.6-.3-1.2-.4-.5-1.1-1.4-1.1-2.8,0-.6-.4-1-1.1-1.8-.7-.8-1.6-1.8-2.3-3.3-1.4-3.3-.8-5-.3-6.4.7-2,3-2.7,4.1-3.1.2,0,.2-.4.2-.4v-4.5c-.1,0,2.5,3.5,2.5,3.5.1.2.9,1.2,1.1,3.5.3,2.1-1.2,2.9-1.9,3.3,0,0-.1,0-.2,0,0,1.1.8,4.6,2.9,7.6.2.3.4.6.6.8,0,0,.3.4.3.4h.1c.7.8,1.1,1,1.4,1h0s.2,0,.2,0h0c.3,0,.7,0,1.1-.2h.4c.3-.1.7-.2,1.1-.3,2.3-.4,6.4-1.1,9.2-2.8,3.3-2.1,5.9-5.8,6.4-6.6.3-.6.8-.9,1.2-1.2-.2-.3-.4-.8-.3-1.3.1-.7.7-1.1,1.5-1.4.4-.1.9-.4,1.3-.7-.4-.9-.4-1.9-.4-2.7s0-.5,0-.7c0-.2,0-.5,0-.7,0-.7,0-1.5.6-2.1.2-.2.7-.5,1.3-.5s.9.1,1.3.3c.5.2,1,.5,1.4.9,0,0,0,0,0,0,0-.2-.1-.4-.2-.7-.2-.7-.3-1.9.3-2.7.3-.4.7-.6,1.2-.6s1,.3,1.3.7h0c.4.4,1.2,1.2,1.5,3,.2,1.2.4,1.4.8,1.8l.2.2c0,0,.2.2.2.2.3.3.5.4,1.1.5,1.9.3,2,1.6,2.1,2.1,0,.2,0,.3,0,.4.3.4,2.2,1.2,3.2,1.4.3,0,.6.1.8.2.6.2,1.8.9,1.4,2.7v.2c-.1.4-.2,1-.6,1.5-.3.4-.8.8-1.3,1,.1.4.1.9,0,1.3-.1.4-.4.7-.8.9-.5.5-1.3,1-2.3,1s-.4,0-.7,0c0,0,0,0,0,0-.7,1-1.4,1.3-2,1.3s-.5,0-.8-.2c0,0,0,0,0,0-.2,0-.4,0-.7-.1,0,.2.2.3.3.5,1.2,0,2.4-.1,3-.4.6-.2.9-.3,1.1-.5.4-.2.8-.5,1.6-.5s.3,0,.5,0c.2,0,.4,0,.6,0,1.1,0,2.3-.3,3.3-.7.5-.2.9-.4,1.3-.6.6-.3,1.1-.6,1.7-.6s.8.1,1.1.4c.8.6,1,1.6.5,2.7,0,.5-.2,1.1-.5,1.5.2.1.3.3.4.5.6.8.3,1.7.2,2.2,0,.1,0,.2-.1.4-.2.8-.8,1.3-1.4,1.6-.8,1-2.3,1.1-3.5,1.1-.6,0-.9.1-1.1.2-.2,0-.5.2-.9.2h0c-.4,0-.8,0-1.3-.3,0,0-.1,0-.6,0-1.8,0-5.2.8-7.3,1.5-.6.2-1.1.3-1.6.3s-.9,0-1.1-.1c-.2,0-.3,0-.4,0-.1,0-.7.1-2.4,1.9-3.8,4-10.4,4.1-12.6,4.2-.2,0-.4,0-.5,0,0,0-.2,0-.2,0-.6,0-1.2-.1-1.8-.3-.6-.2-1.3-.3-1.9-.3s-.2,0-.2,0c-.9,0-1.8.8-2.1,1l-4,3.8.5-1.7c0,0,0,.1-.1.2-1,1.4-2,2.8-3.6,3.3-.5.2-1.2.3-2,.5-1.3.3-2.8.6-4,1.1-1,.4-2.6,3.6-3.2,4.8-.5,1-.7,1.4-1,1.7-.3.4-.8.6-1.3.6Z"/>
  <g>
    <path class="cls-10" d="M61.5,31.5s.5-.2.2-.8-1.5-1.3-1.5-1.3c0,0-4.2-1-4.9-.7s1.5,1.1,2.6,1.5,2.1.5,2.8.7.9.2.8.6Z"/>
    <path class="cls-5" d="M52.4,22.8c0,.7-.9,2.7-1.9,3.8-1.1,1.1-1.4.5-1.9-.2-.5-.7-.1-2,0-2h0c-1-1.4-.7-3.1-.7-4.4,0-1.3.2-1.4,1.4-1,1.2.4,2.3,2.3,2.3,2.3.7,1,.9.7,1,1.4Z"/>
    <path class="cls-5" d="M55.3,21.5s-.6.2-1.2,0c-.6-.2-2.1.4-2.1.5h0c-.1-.1-.3-.3-.5-.6,0,0,.3-.7.9-1.4.5-.7.2-1.3-.1-2.4-.3-1.1,0-1.7.2-1.4.2.3,1,.7,1.3,2.4.3,1.7.7,2.1,1.2,2.6.1.1.3.3.4.4Z"/>
    <path class="cls-3" d="M63.7,27.5c0,.4-.1.8-.4,1.1h0s-.2.1-.5-.3c-.3-.5-.6-.7-.9-1.1-.3-.3,1.2-.8,1.2-.8.6.2.6.6.5,1.1Z"/>
    <path class="cls-4" d="M58.1,27.3c.6.4,1.1.6,1.1,1.2,0,0,0,.1,0,.2-.1.4-.4.7-.4.7,0,0,0,0,0,0-.2,0-.9-.3-1.4-.4,0,0-.2,0-.2,0,0,0-.1,0-.2,0,0,0-.2,0-.3,0,0,0-.2,0-.3,0-.3,0-.6,0-.7.1-.3.2,0,.5.4.9.2.2.5.4.9.5,0,0,0,0,0,0,0,0,0,0,0,0,0,0-.3,0-.5.1-.4,0-.9,0-1.3-.2-1-.5-2.5,0-3.1-.9-.6-.8-1.4-3-1.4-3,1.1-1.1,2-3.1,1.9-3.8,0-.1,0-.2,0-.3,0,0,2-.8,3.2,0,1.1.8,1.8,2.1,3,2.7,1.2.5,1.5.5,1.1,1.1-.5.6-2.1.7-1.6,1.1Z"/>
    <path class="cls-9" d="M63.3,28.7c-.2.2-.4.5-.9.6-1.1.4-1.8.6-3,.3-.2,0-.4,0-.6-.1,0,0,.4-.4.4-.9,0-.5-.5-.8-1.1-1.2-.6-.4,1.1-.4,1.6-1.1.5-.6.1-.6-1.1-1.1-1.2-.6-1.9-1.9-3.1-2.7-1.1-.8-3.2,0-3.2,0,0-.2-.2-.3-.4-.5,0,0,1.5-.7,2.1-.5.6.2,1.2,0,1.2,0,.4.4,1,.7,1.9.9,1.3.2.6.9,1.2,1.8.5.9,3.2,1.9,4.2,2.1.2,0,.4,0,.5.1,0,0-1.6.5-1.2.8.4.3.6.6.9,1.1.3.5.4.4.5.3Z"/>
    <path class="cls-9" d="M69.6,39.2c-.2.8-1,.8-1,.8-.2.7-.7.9-2.6.9-1.9,0-1.5.6-2.9.2-1.4-.5-6.1.5-8.8,1.4-2.7.9-2.3-1.7-6.1,2.4-3.8,4-11.1,3.7-12.1,3.7s-2.5-.7-4.1-.6c-1.6.1-2.9,1.4-3,1.4.3-.8,2.3-1.8,1-1.6-1.3.3-2.3,2.2-2.1,1.7.1-.5.7-1.3.8-1.4-.1.1-1.8,1.5-2.9,3-1.1,1.5-2,3.1-3.4,3.5-1.4.4-4.2.7-6.2,1.6-2,.9-4.2,6.2-4.7,6.8-.5.5-1.2-1-1.3-2.2-.2-1.1,2.9-5.1,3.5-7.1,0-.2.1-.4.1-.5.2-1.6,3.1-.7,3.7-1.5.3-.5.3-1.6,0-2.6-.1-.6-.4-1.1-.6-1.3-.6-.5-1.3,1-1.4.3s.6-3.3,2-3.6,1.7-.3,2.3-2.5c.6-2.2-1.3-2.2-1.4-4.3s-2.3-2.9-3.5-5.7c-1.2-2.8-.7-4.1-.3-5.3.5-1.3,1.9-1.8,3.2-2.2,1.3-.4,1.2-1.8,1.2-1.8,0,0,.6.8.8,2.8.2,2-1.8,1.8-2,2.8-.2,1,.7,5.3,3.1,8.9,2.4,3.6,3.9,2.9,5.8,2.6,1.8-.4,7.3-1,10.8-3.2,3.5-2.3,6.3-6.2,6.8-7.1.5-1,2-.9,2-1.6,0-.7-1.7-1.2-.4-1.6,1.3-.4,2.6-1.7,2.7-1.8,0,0-.4,1.3,0,2,.5.7.8,1.3,1.9.2,0,0,.8,2.1,1.4,3,.6.8,2.2.4,3.1.9.5.2,1,.2,1.3.2.4,0,.6-.1.6-.1.5.2,1.1.3,2,.6,1.6.6,2.6.4,2.6.4-.6.6-1.2.9-2.3.6-1.1-.3-1.5-.7-2.7-.4s-1.6-.5-2.4,0c-.8.4-.4,2-.4,2,0,0,.7,1.6,1.6,3h0c0,0,.1.2.2.2,1,1.4,3.3,1.7,4.8,1.4.7-.1,1-.1,1.3,0,.4.1.6.3,1.2.4,1,.1,3,0,4.7-.5,1.8-.5,1.9-.6,2.1-.2.2.4,0,.7-.2,1.4Z"/>
    <path class="cls-14" d="M17.5,49.1c.2,1,.3,2.1,0,2.6-.6.8-3.5-.2-3.7,1.5,0,.1,0,.3-.1.5h-.6c-.6,0-1.5,1.1-2.5,2.3-1,1.2-1.4,2.1-2.6,2.6-1.2.5-1,.1-1.3-.7-.3-.8.6-1.9,1-2.5.3-.6,1-.4,1.7-1.2.7-.8,2.1-2.7,3.1-4,1.1-1.3,1.9.4,3.2.2,1.2-.1,1.8-1.4,1.8-1.4Z"/>
    <path class="cls-4" d="M21.5,38s0,1-.8,1.8-1,1.2-.3,2.1-1.3,1.5-.2,2.3,3.6.7,4.6-.7-.3-3.6-.3-3.6c0,0-1.9-.4-3-2Z"/>
    <path class="cls-14" d="M69.5,34.7s0,1-.5,1.4c-.6.4-1.4,1.1-2.1,1-.7,0-2,0-2.5.4-.5.4-.6,1-1.3.7-.5-.2-1-.1-1.3,0-.3,0-.7-.1-1.3,0-1.5.3-3.8,0-4.8-1.4,0,0-.1-.2-.2-.2h0s2.6.1,4.3-.4c1.7-.6,1.4-1,2.6-.8,1.2.1,3,0,4.6-.8,1.6-.7,2.3-1.4,2.7-1s0,1.2,0,1.2Z"/>
    <path class="cls-6" d="M61.5,31.5s-1,.2-2.6-.4c-.9-.3-1.5-.5-2-.6-.4-.1-.7-.3-1-.5-.4-.4-.7-.7-.4-.9,1.6,1.1,4.2,1.6,5.1,1.7,1,.1,1.3.3.8.8Z"/>
    <g>
      <path class="cls-11" d="M55.7,24.5c-.1,0-.2,0-.4,0-.1,0-.3,0-.4.2-.1,0-.2.2-.2.4,0,.1,0,.2-.1.4,0,0,0,0,0,0,0,0,0,0,0,0,.1,0,.3.1.4.1.2,0,.3,0,.4,0,0,0,.1,0,.2-.1,0,0,0,0,.1-.1,0,0,0-.1,0-.2,0,0,0-.1,0-.2,0,0,0-.1,0-.2,0,0-.2-.1-.3-.2Z"/>
      <path class="cls-8" d="M55.8,24.8c0,.2,0,.5-.3.6s-.5,0-.6-.3,0-.5.3-.6.5,0,.6.3Z"/>
      <path class="cls-13" d="M55.5,24.9c0,.1,0,.2-.1.3s-.2,0-.3-.1,0-.2.1-.3.2,0,.3.1Z"/>
      <circle class="cls-11" cx="55.2" cy="24.9" r=".1"/>
      <path class="cls-2" d="M56.1,24.6s-.1,0-.2,0c-.1,0-.2-.1-.4-.2,0,0-.2,0-.3,0-.3,0-.5.2-.6.4-.1.2-.2.5-.3.7,0,0,0,0,0,0,0,0,0,0,0,0,0,0,.2,0,.3,0,.2,0,.5.1.7,0,.1,0,.3-.1.4-.3,0,0,0,0,0-.1h0s.3-.4.2-.5c0,0,0,0,0,0ZM54.7,25.3c0,0,0-.1,0-.2,0-.1,0-.4.5-.6,0,0,.3,0,.6.2s.1.1.1.2c0,0,0,0,0,0,0,0,0,0,0,0,0,0-.2.3-.3.4-.4.4-.9,0-.9,0h0s0,0,0,0Z"/>
    </g>
    <path class="cls-2" d="M55.1,23.8s-.8,0-1.1.7-.2-.2,0-.6,1.5-.3,1-.1Z"/>
    <path class="cls-1" d="M60.6,31.2s.3-.3.4-.6.2.6.1.7-.5,0-.8,0-1.4-.4-1.7-.5.2,0,.4,0,.2-.2.2,0,0,.2.3.2.6-.4.6-.2,0,.3.1.3.4,0,.4,0Z"/>
    <path class="cls-12" d="M58.5,30.4c0,.4-.2,2-.2,2,0,.2-.1.3-.2.4-.4.6-.8.7-1.1.5-.3-.2-.7.2-1.1-.4-.3-.6.3-1.3.7-1.9,0-.2.2-.4.2-.6,0,0,0,0,0,0,0-.3,0-.7,0-1,0,0,.8-.2,1,.3.2.4-.4,2.2-.6,2.5-.2.3.4-.3.7-1.4.3-1.1.5-.9.6-.5Z"/>
    <path class="cls-6" d="M59,30.3c0,.4-.3,1.4-.6,2.1h0s.2-1.6.2-2c0-.4-.3-.6-.6.5-.3,1.1-.8,1.7-.7,1.4.2-.3.8-2.1.6-2.5-.2-.4-1-.3-1-.3,0-.3,0-.5,0-.5,0,0,.1,0,.2,0,0,0,.2,0,.2,0,.5,0,1.2.3,1.4.4,0,0,0,0,0,0,0,0,.2.4.2.9Z"/>
  </g>
</svg>