<?xml version="1.0" encoding="UTF-8"?>
<svg id="Livello_1" data-name="Livello 1" xmlns="http://www.w3.org/2000/svg" version="1.1" viewBox="0 0 56.7 32.5">
  <defs>
    <style>
      .cls-1 {
        fill: #736250;
      }

      .cls-1, .cls-2, .cls-3, .cls-4, .cls-5, .cls-6, .cls-7, .cls-8, .cls-9, .cls-10, .cls-11, .cls-12, .cls-13, .cls-14, .cls-15, .cls-16, .cls-17, .cls-18, .cls-19, .cls-20, .cls-21, .cls-22, .cls-23 {
        stroke-width: 0px;
      }

      .cls-2 {
        fill: #684f48;
      }

      .cls-3 {
        fill: #be9e67;
      }

      .cls-4 {
        fill: #746753;
      }

      .cls-5 {
        fill: #dbc49f;
      }

      .cls-6 {
        fill: #2c271b;
      }

      .cls-7 {
        fill: #614226;
      }

      .cls-8 {
        fill: #211b16;
      }

      .cls-9 {
        fill: #776b5b;
      }

      .cls-10 {
        fill: #b79d67;
      }

      .cls-11 {
        fill: #716655;
      }

      .cls-12 {
        fill: #51493e;
      }

      .cls-13 {
        fill: #e2c9a6;
      }

      .cls-14 {
        fill: #7a6e63;
      }

      .cls-15 {
        fill: #917140;
      }

      .cls-16 {
        fill: #0f0000;
      }

      .cls-17 {
        fill: #372122;
      }

      .cls-18 {
        fill: #e1c394;
      }

      .cls-19 {
        fill: #695f4a;
      }

      .cls-20 {
        fill: #43352e;
      }

      .cls-21 {
        fill: #d8c296;
      }

      .cls-22 {
        fill: #3e3227;
      }

      .cls-23 {
        fill: #fff;
      }
    </style>
  </defs>
  <g>
    <path class="cls-8" d="M40.5,29s-.6.2-.7,0,0-.2-.2-.2-.2,0-.3-.1,0-.3,0-.4.7-.9.9-1.1.4-.4,0-1.2-1-2-1.2-2.2-1.2-.9-1.6-1-1.1-.8-1.1-.8l4,.5,1.3.4,1.1,2.1-.6,3.8-1,.4-.8-.2Z"/>
    <path class="cls-12" d="M36.8,22.1l3.1.6,3-1.2,2.6-1.2.9.2s.5.5,0,1.2-1.3,1.7-1.4,2.3.2,1.3.2,1.3c0,0-.5-.7-.7-.4s.1.8.2.9.3.2.1.3-.6.1-.7.4-.4.7-.4,1.1-.7,1.9-.9,2.2-1.1.7-1.7.8-1.8.3-1.9,0,0-.2-.2-.4-.3-.7,0-.7.9,0,1.2-.2,1.4-1.3,1.6-2.1,0-2.2-.1-2.5-1.2-1.7-1.2-1.7l-3.9-.9Z"/>
    <path class="cls-8" d="M40,29.9s-1,0-.8.4l.2.4s0-.6.6-.8Z"/>
    <path class="cls-13" d="M21,8.6l-.6-.7s-.6.4-1.3.4-2.4,0-2.4,0l-.9.2s-1.6.1-2.2.1-1.2.3-1.6.6-1.3,1.5-1.3,1.8-.2,1.5-.1,1.5.1-.4.4-.3.8-.4.8-.4h3.1c0,0,2.5.5,2.5.5l-.5,2.9-.8,1.5s.5.5,1,.2,2.4-1.6,2.4-1.6l1.4-3.6s0-1.1,0-1.2.4,0,.1-.3-.2-.5-.2-.5v-.9Z"/>
    <path class="cls-4" d="M19.5,15.1s-.3-.4-.4-.2-.5.6-.6.7-.2-.1-.3,0-.2.5-.4.7-1,.1-.8.3-.4,0-.4,0l-2,1.3-1.1.8s1.8,0,1.8,0,2.2-.7,2.3-.8,1.1-1.2,1.2-1.3.9-1.5.9-1.5Z"/>
    <path class="cls-3" d="M55.3,14c0,0-.8-1.8-1.5-2.7s-2.2-2-2.4-2.3-1-2.7-3.4-4.7c-2.4-1.9-3.1-2.5-6.2-3-3.1-.5-5.8-.9-9.1-.8s-7.1.8-7.1.8c0,0-4.4.7-6.4.8s-2.8.1-3.6,0-2,0-2.6,0-.5-.3-.5-.3c0,0,.1,0-.4.1s-.8,0-.8,0-.2.2-.5.3-.5-.3-.5-.3c0,0,0,.3-.1.3s-.6-.2-.6-.3-.2.3-.4.4-.6,0-.6-.1,0,.2-.2.3-1,0-1,0c0,0,.8.4.5.5s-1,0-1,0c0,0,0,0,0,.3s-.5.4-.6.4.2,0,0,.3-.7,0-.7,0c0,0,.3.4.1.5s-1.1.2-1.1.2c0,0,.5.2.4.4s-.6.2-.7.2.3.2.2.4-.5.1-.5.1c0,0,.2.3.1.4s-.3.2-.3.2c0,0-.5-.4-.7-.3s-.5.6-.6,1.1,0,1.5,0,1.8,0,.6,0,.6c0,0-.4,1-.5,1.3s-.6,0-.6,0c0,0,.4.4.4.7s-.9.6-.9.6c0,0,.9.1.8.3s-1.3.5-1.3.5c0,0,1,0,.8.4s-.8.5-.8.5c0,0,.6,0,.5.3s-.5.7-.5.7c0,0,.7-.4.6,0s-.3.7-.3.7c0,0,.2,0,.3.2s0,.7,0,.7c0,0,.7.1.8.3s.1.7.1.7c0,0,.3-.2.5-.1s-.3.4-.3.4c0,0,1.2,0,1.3.2s-.3.3-.3.3c0,0,1,0,1.1.2s.4.4.4.4c0,0,.4-.1.7,0s1.2.4,1.2.4c0,0-.2-.5-.6-.8s-1.5-1-1.7-1.4-.2-.5-.2-.5c0,0,.7,0,.5-.3s-1.1-.7-1.1-.7c0,0,.3-.4.7-.8s.9-2,1.7-2.2,1.2-.3,1.6-.3-.5,2.7-.5,2.7l.7,3.7,2.5.8,4-1s.7,0,1.1,0,1.4-.1,1.5-.3,1.1-.8,1.3-1.2,1.3-1.4,1.3-1.4c0,0-.1,1.4,0,2.1s1,1.6,1.2,2,.4.7.4.7v-1.2c0,0,1.1.6,1.2,1.2s.9,2,.9,2l.2-.6s2.1,0,2.6.1,2.2.3,3,.4,3-.1,4-.2,1.6-.2,2.1,0,1.4.4,1.7.7.6.5.7.8l.2.6.2-.7.4.3v-.6c.1,0-.3-.5-.3-.5,0,0,.4-.2,1.1,0s1.4.6,1.4.7,0-.5,0-.5c0,0,.2.7.2.8s0-.3.5-.7,1.5-.7,2.4-1,1.4-.6,1.5-.7.6-.7.6-.7c0,0,0,.1.5.2s.7.2.7.2c0,0-.4-.6-.5-1s0-.8,0-.8l1.1.6s0-.8-.3-1-.4-.7-.4-.7h.5c.1,0,0-.4,0-.4l.6.2-.3-.9h.3s0-.6-.2-.7-.4-.7-.4-.7h.3s0-.6-.2-1-.2-1.5-.2-1.5c0,0,.7.7.9,1s1.2,1.3,1.4,1.9.6,1.5.7,1.8.4.9.4.9c0,0,.1-.7.2-.4s.5.8.5.8v-.2c.1,0,.4.4.6.5s.3-.1.3-.1c0,0,.4.6.4.8s.3.1.3.1v.5c.1,0,.4,0,.4,0,0,0,.3.2.4.3s.3.3.3.3c0,0,.3.8.3.9s.2.3.2.3v.2s.6-.4.6-.7,0-.5,0-.5l.2.3s.2-.7.2-.9.4-.5.4-.5c0,0,0-.5,0-.8s.4-.6.3-.5,0-.7,0-.9,0-1.3,0-1.3c0,0-.5-2.3-.5-2.4s-.2-.7-.2-.7Z"/>
    <path class="cls-15" d="M23.5,4.1s1.8,1.6,2.2,2.3.8,2.1,1,2.4c.6,1.2.6,1.5.4,1.2,0,0-.4-.5-.3,0s.4,1.1.4,1.1c0,0-.6-.3-.7-.1s-.3.2-.3.2c0,0-.1-.4,0-.5s.4,0,.4,0c0,0-.5-1.4-.3-1.3s.3.3.3.3c0,0-.6-1.6-.7-1.8s-.7-1-.7-1c0,0,.2,0,.3,0s-1.1-1.2-1.1-1.2l-.6-.7-.5-.6v-.3Z"/>
    <path class="cls-18" d="M21,5.1s.5-.6.8-.7.8-.4.8-.4c0,0-.4-.2-.8,0s-.8.5-.8.8v.3Z"/>
    <path class="cls-18" d="M24.5,2.2s-1.8,1-2.1,1.2-.9.3-.9.3l.7-.7s-.4,0-.7.3-.9.5-.5,0,.5-.5,1-.6,2-.5,2-.5h.6Z"/>
    <path class="cls-18" d="M20.2,3.8s-.5-.2-.7.2,0,.6,0,.6c0,0,.4-.7.7-.8Z"/>
    <path class="cls-18" d="M19.1,3.8s-.4.2-.5.5-.2.8,0,.6.5-1,.5-1Z"/>
    <path class="cls-15" d="M22.2,7.7s-.8-1-.9-.8.4,1.1.7,1.2.2-.4.2-.4Z"/>
    <path class="cls-1" d="M26.7,11.7c.3-.2-.4-.2-.5,0s-.1.2,0,.2,0,0,.4-.1Z"/>
    <path class="cls-1" d="M26.7,13.2c0,0-.3-.3-.4-.1s.2.3.3.4.3,0,0-.2Z"/>
    <path class="cls-15" d="M35.7,13.4s-.8,0-.8,0,.3.2.4.2.6-.2.4-.3Z"/>
    <path class="cls-15" d="M35.6,14.1s-.9.2-.9.2,0,0,0,0,.6.2.7.1,0-.4,0-.4Z"/>
    <path class="cls-1" d="M35.4,16.5s-1,.3-1,.4,0,.1.3,0,1.2-.4.8-.5Z"/>
    <path class="cls-1" d="M34.4,17.8s-.6.2-1,.3-.9.2-.8.3.2,0,.6,0,1.7-.5,1.2-.6Z"/>
    <path class="cls-1" d="M34.6,19.2s-1.4.3-1.6.3-.4-.4-.5-.2.9.2.8.4-.4.5-.8.6-2,.4-2.1.3-1.2-.3-1,0,.6.3,1.3.2,2-.2,2-.3.9-.6.9-.6c0,0,0-.4.2-.4s.7-.4.7-.4Z"/>
    <path class="cls-18" d="M36.7,19.6s-2.3,0-2.4.3.3.7.5.8,1.5.8,1.8.8,0-.3-.3-.4-1.1-.8-.6-.6,1.9.3,1.5.1-1.6-.5-1.3-.6,1.3-.2.8-.4Z"/>
    <path class="cls-18" d="M42.9,9.7s-1.2-.8-1.4-.7.2.4.4.5,1.7.7,1,.2Z"/>
    <path class="cls-18" d="M42.9,8.5s-1.3.1-.9.3,1.6,0,.9-.3Z"/>
    <path class="cls-18" d="M42.2,7.4s-1.1-.3-1,0,.7.3.7.3c0,0-.4.2-.2.3s.8-.5.5-.6Z"/>
    <path class="cls-18" d="M41.3,18.5s-.4-1.8-.7-1.7-.2,2.1,0,2.1.2-1.2.3-.9.6.9.5.5Z"/>
    <path class="cls-18" d="M41.2,20.8s-.8-.6-1-.9-.5-1.4-.6-1,0,.7,0,.5-.5-.3-.4,0,1,1.1,1.2,1.2,1.4.6.9.1Z"/>
    <path class="cls-18" d="M44.3,12.5c0,0-1.6-.5-1.9-.1s0,.4,0,.4,0,.4-.2.5,0,.4.2.5.8.4.5.4-1.4.4-1.2.5-.4,0-.5,0-.2.3,0,.5.3.9.5.7-.2-.6,0-.6.4.5.7.3.7,0,.5-.4-.5-.5.3-.5,1.1-.5.6-.7-1.3-.2-1.2-.4.6-.3.5-.3-.4-.3-.1-.3,1.8-.3,1.2-.5Z"/>
    <path class="cls-18" d="M41.1,16.1s-.3-1.3-.5-1,.2.5.2.6-.1.6,0,.6.3-.2.3-.2Z"/>
    <path class="cls-1" d="M43.4,18.6s-.3-.8-.5-1.1-.6-.2-.5,0,.3.1.4.4.8,1.1.7.7Z"/>
    <path class="cls-1" d="M43,19.6s-.2-.9-.3-.6.5,1,.3.6Z"/>
    <path class="cls-1" d="M42.5,20.5s-.3-.4-.3-.1.2.8.3.7,0-.6,0-.6Z"/>
    <path class="cls-1" d="M39.2,15.3s-.3-.1-.4.2-.3.4-.3.3.1-1.3.1-1.6,0-.6-.2-.3-.2,1.5-.2,1.7.5,1.1.2,1-.5-.5-.5-.2.4.6.4.8,0,1.4,0,1.8.2,1.1.3.8,0-1.5,0-2.1.1-.8,0-1.3.3-1.1.3-1.1Z"/>
    <path class="cls-15" d="M40.3,22.5s-1-.8-1.4-1.6-.7-2.2-.8-1.9.5,1.6.3,1.6-.2.1,0,.3,1.2,1,.9.9-1-.8-.9-.5.5.6.5.7.7.3.8.4,1.1.6.6.1Z"/>
    <path class="cls-1" d="M51.7,14.3s.2-1,0-.9-.2,1.3,0,.9Z"/>
    <path class="cls-15" d="M51.1,14.7s0-.6-.2-.3-.1.8,0,.8.2-.5.2-.5Z"/>
    <path class="cls-15" d="M55.4,16.7s-.6-1.7-.7-2-.1-.6,0-.5.3,0,.3-.2,0-.6,0-.6c0,0,.5.7.6.9s.4,2.1.4,2.1v.7c0,0-.4-.5-.4-.5Z"/>
    <path class="cls-20" d="M52,12.9s-.8-2.7-.9-3-1-2.4-.7-2.1,1,1.1,1,1.1l1.1.7s-.5-.1-.2,0,1.2.8,1.2.8c0,0-.6-.2-.1.3s1.2,1.3,1.2,1.3c0,0,0,.2.1.4s.4.6.5,1,0,.3.3.8.3,1.4.3,1.4c0,0-.7-2.5-1.2-2.5s-.4-.6-.5-.8-.3-.5-.6-.6-.3,0-.4-.4,0-.7-.4-.8-.7-.8-.8-.6,0,1.1,0,1.1c0,0,0,.1,0,.4s.3.9.3.9l-.2.5Z"/>
    <path class="cls-20" d="M48.7,7s-.3-.8-.3-.4,0,.7.2.9.1-.5.1-.5Z"/>
    <path class="cls-20" d="M49.1,7c0-.1-.5-1.4-.7-1.3s-.3.2-.4-.2-.3-.8-.6-1-.8-.7-.9-.8-1.7-1.2-2.1-1.3-.8-.4-.9-.4-.5-.4-.5-.4c0,0,5.3,3.1,5.5,3.3s.8,1.1.8,1.2-.3-.2-.3,0,0,.9,0,.9Z"/>
    <path class="cls-15" d="M46.3,4.7s-.6-.6-.6-.4.2.4.3.6.3-.2.3-.2Z"/>
    <path class="cls-15" d="M45.4,4.6s-.2-.8-.3-.6.6,1.1.3.6Z"/>
    <path class="cls-15" d="M43.5,4.1c0-.2-.8-.7-.7-.4s1.1.9.6.2"/>
    <path class="cls-15" d="M44,5.6c0-.1-.7-.6-.4-.7s.9.5.9.7-.5,0-.5,0Z"/>
    <path class="cls-15" d="M41.1,1.8s-1-.2-.8-.4,1.2-.1,1.1.1-.4.2-.4.2Z"/>
    <path class="cls-18" d="M39,2.6s-.9-.2-1,0,.3.4.4.4,1,0,.8,0,.8,0,.3-.2l-.5-.2Z"/>
    <path class="cls-18" d="M37.8,1.8s-.6-.1-.7.2-.5.4,0,.3.3,0,.5-.3l.2-.2Z"/>
    <path class="cls-15" d="M49.9,17.2s-1.1-4-1.2-3.8,0,.7-.4.5-.5-.6-.8-.7-.6-1.2-.8-.9.2.7.3,1,0,2.4.2,1.5.4-1.3.5-.9,1,1.3,1.1,1.5.2,1.1.3,1.1.2.3.3.6.2.5.2.5l.2-.3Z"/>
    <path class="cls-15" d="M47.5,15.8s-.5-.3-.6-.5-.2-1.1-.3-.8-.1.9,0,1.2.8.2.8.2Z"/>
    <path class="cls-15" d="M47.5,17.2s-.7-1.4-.7-.9,1,1.1.7,1.3-.6,0-.9-.3-.9-1-.9-.6,1.1,1.6,1.1,1.6c0,0-.4.2-.3.3s.7.9.5.9,0,.2.2.4.3.4.3.2-.8-1.1-.5-1.4.9-.5.9-.5v-.8s-.2-.3,0-.5-.3.4-.3.4Z"/>
    <path class="cls-15" d="M46.3,19.4s-.6-1.5-.7-1,.9,2.7.9,2.4-.2-1.4-.2-1.4Z"/>
    <path class="cls-15" d="M38,22.9s-1-.9-1.5-1.2-2-.5-2.3-.7-.7-.6-.7-.4-.6.6-.9.7-.1-.2-.3-.2-.6.4-1.1.4-.8,0-1.4,0-.6-.2-1.2-.1-.9.1-1.4,0-.9,0-1.5-.2-.9-.3-1.1-.4-.7-.5-.8-.3-.6.3-.6.6-.3.5.1.5,1.2,0,1.1.1.2.1.6.1.5.2.7.2.1-.3,1.1-.2,1.8.1,2,.2,1.1-.2,1.7,0,1.6-.2,2.3-.1,1.1.2,1.6.2,1.2-.2,1.7.1.8.5.8.6.6,1.4.6,1.1l.2-.7s.5.4.5,0-.2-.6-.2-.6Z"/>
    <path class="cls-15" d="M54,21.1s-.6-1-.8-1.3-.5-1.2-.5-.9.2.9.2,1.1.5,1,.5,1l.5.2Z"/>
    <path class="cls-15" d="M52.4,19.7s-.8-2.1-.8-1.8.4,1,0,1-.6-.9-.6-.6-.2.5-.2.5c0,0,.4.3.6.5s0,.3.2.2.1-.5.3-.1.3.3.3.3Z"/>
    <path class="cls-7" d="M55.6,16.4s-.7,1.3-.8,1.6-.3.8-.2.8.3-.4.3-.4.7-.3.7-.5c.2-1.4,0-1.5,0-1.5Z"/>
    <path class="cls-22" d="M55.6,18.3s0,1.1-.1.9-.3-.1-.2,0,.2.8,0,.7-.4,0-.4.2-.2.4-.2.3,0,0-.2.2-.5.3-.5.3c0,0,.2.9.2,1.1s-.3.7.2.5.7-.6.7-.8,0,.1.2,0,.2-.2.3-.6.5-.2.4-.5-.2-.8-.1-1,.4,0,.3-.2,0-.4,0-.6,0-.1,0-.4-.1-.4-.1-.5,0-.6,0-1,0-.9,0-1-.2-.4-.2-.4v2.6Z"/>
    <path class="cls-18" d="M54.2,13.8s-.4-.6-.6-.5-.3-.3-.5-.3.7,1.4.5,1.6-.6-.4-.6,0,.5,2,.5,1.6.2-.2.3.3.5,1.7.4,1-.4-2.4-.2-2,.6.8.5.4-.4-2.1-.4-2.1Z"/>
    <path class="cls-9" d="M16.6,4.7s0-.7.9-1,2-.7,2.4-1,1.5-.8,1.5-.8c0,0-1.5.2-2.4.2s-1.8-.5-2.5-.4-1.4.4-1.8.4-1.2-.6-1.6-.2-.8.4-1,.5h-.1s1.1.5,1.4.7,1.2.8,1.2.8c0,0,.7-.1,1,.2s.6.6.6.6h.4Z"/>
    <path class="cls-17" d="M17.9,2.3s-1.1.4-1.5.5-.7.6-.7.6c-.1-.3.4-.7.9-.9s1.3-.3,1.3-.3Z"/>
    <path class="cls-17" d="M16.2,2.1s-1.1.4-1.5.5-.7.6-.7.6c-.1-.3.4-.7.9-.9s1.3-.3,1.3-.3Z"/>
    <path class="cls-18" d="M24.3,11.8s-1.1-.5-1.2-.9-.4-1.5-.7-1.3-.2,1.5-.1,2,1.1,2.2,1.1,2.2c0,0-.8-1.1-.8-.7s.5,1.5.9,1.9.7,1.2,1.1,1.4,1.5.8.6.5-2-.9-1.8-.6,2,1.2,1.1,1.1-1.8-.7-1.3-.3,2,2.3,2.3,2.3.5,0,.2-.3-.6-.9-.2-.7.8.4.9.3-.5-.7-.1-.6,1.1.3.8,0-1.4-.9-.6-1,1.6-.2,1.3-.3-1.3-.6-1.8-1-.1-.4-.2-.8-.1-.6-.1-.6c0,0,1.4-.2,1-.4s-1.3,0-1.7-.4-1.3-1.6-1.3-1.6c0,0,.8.3.9.2s.3-.4,0-.6Z"/>
    <path class="cls-1" d="M22.9,9.9s0-.5-.2-.3-.3.6,0,.6.3-.3.3-.3Z"/>
    <path class="cls-15" d="M23.9,12.3s-.8-.6-.9-.8-.4-.8-.4-.6,0,1.1.5,1.7,1.3,1.4,1.4,1.4.5,0,.2-.2-1.2-1-1.3-1.2-.4-.7,0-.5.8.5.6.1Z"/>
    <path class="cls-15" d="M24.8,14.7s-.6-.4-.7-.2.2.3.4.4.6,0,.3-.2Z"/>
    <path class="cls-15" d="M28,16.7l-2.2-1.1s-.6-.4-.6-.2,1.6,1.1,1.7,1.2.9.2.6.3-1.6,0-1.5.3.7.7.9.8.4,0,.2-.1-.8-.4-.3-.5,1.4,0,1.4-.2-.2-.4-.2-.4Z"/>
    <path class="cls-18" d="M24.7,19.8s-1.8-2.8-1.9-2.2.7,2.8.8,2.7.7.2.7.2l.4-.7Z"/>
    <path class="cls-15" d="M26.7,18.3s-.7-.1-.6,0,.4.3.3.5-.7,0-.7.2.3.6,0,.6-.5-.1-.5,0,0,.4-.2.4-.3-.2-.4,0-1.1-1-.9-.7.4.7.5.9.1.2.2.2c.2,0,.8.2.7,0s.3-.3.4-.3,0-.2,0-.3.6-.2.6-.2v-.6c0,0,.6,0,.5,0s-.2-.4-.2-.4c0,0,.2,0,.5,0s.3-.3.1-.3-.3,0-.3,0Z"/>
    <path class="cls-22" d="M23.8,20.3c-.2.2-.3.3-.4.2s-.2-.2-.3-.3-.6-1-.6-.7.5.9.5,1.1,0,.2,0,.4,0,.5.1.5,0-.4.2-.4.8.6.6.2,0-.7,0-.6.5-.2.5-.2l-.5-.2Z"/>
    <path class="cls-15" d="M21.2,17.8s-.4-.5-.6-1-.2-.7-.2-.9-.1-1-.1-1.2-.3.8-.5,1-.5.3-.5.8.3,1.5.4,1.7,1,1.4,1.1,1.3.2,0-.2-.5-.3-1.5-.2-1.4,1.1.6.8.2Z"/>
    <path class="cls-15" d="M20.1,14s.4-1.2.5-1.7.3-1.7.4-1.3-.3,2.2-.3,2.4-.5.7-.5.7Z"/>
    <path class="cls-15" d="M19.6,9.9s.7,0,.9-.2.4-.4.3-.7-.2-1.3,0-1,.4,1.3.3,1.4-1,.5-1.2.5-.3-.2-.3-.2Z"/>
    <path class="cls-15" d="M20.1,10.4s1.3-.3,1.1,0-1.1.4-1.1.4c0,0-.3,0,0-.3Z"/>
    <path class="cls-19" d="M17.7,6.3s0,.4-.4.6-.8.4-.4.4,1.1-.2,1.1,0-1.3.5-1.6.6-1.5.3-1.5.3c0,0-.4.1.2.2s.9.2,1.1,0,.9-.3,1.2-.3.2.1.6,0,1.9-.3,1.6-.4-1.3,0-.9-.4.6-.5.3-.6-1.3-.7-1.3-.7Z"/>
    <path class="cls-22" d="M19.2,7s-1.1-.7-1.3-.9-2.3-1.7-2.3-1.7l.5,1.3v.8c.1,0,.2-1,.5-.8s1.2,1,1.2,1c0,0,1.9.9,1.4.3Z"/>
    <path class="cls-2" d="M15.1,7.8s.8-.2,1-1,.3-3.3-1.5-3.1c-1.8.3-2.4,2.6-2.4,2.6,0,0,.3.1.6,0s.3,0,.3,0c0,0,0,.5-.2.7s-.2.2-.2.2.8-.2.6,0-.2.2,0,.3.5.2.5.3.5.4.6.4.3,0,.3,0,.5-.5.5-.5Z"/>
    <path class="cls-5" d="M13.8,7.6s-.3-1.1-.2-1.6.5-1.4,1.3-1.5,1.2.6,1.2,1.2-.3,1.5-.5,1.6-.7,0-.8.2.4.5.2.5-1.1-.5-1.1-.5Z"/>
    <path class="cls-9" d="M15.5,6.4s0,.4-.4.5-.7.3-.5.2.5,0,.6,0,.4-.4.3-.7Z"/>
    <path class="cls-22" d="M14.5,3.5s-.4.2-.4,0,.5-.3.5-.3c0,0-1.1,0-1.2-.1s0-.4,0-.4c0,0-.5,0-.7,0s0-.4,0-.4h-.6c0,.1-.8.2-.8.2h-.6c0,.1,1.5.2,1.3.3s-1.2.5-1.3.7-.2.4,0,.3.8-.6,1.3-.7,1.1-.1,1,.1.2.2.4.3-.5.2.1.3.7.2.7.2h.4c0,0-.1-.4-.1-.4Z"/>
    <path class="cls-15" d="M10.4,5.9s.3-1.1.9-1.4,1.8-.3,1.6-.2-1.2.3-1.3.6.8.3.5.4-1.2,0-1.1.2.9.4.7.4-1.2,0-1.2,0Z"/>
    <path class="cls-15" d="M8.4,4.7s-.4-1-.5-1.2-.4-.4-.4-.4l.5-.4s0,.4.1.3.4-.3.4-.3c0,0,0,.4,0,.5s.1,1.6.1,1.6c0,0-.2.2-.2,0Z"/>
    <path class="cls-15" d="M7.5,4.2s-.7-.5-.8-.5,0,.3,0,.3c0,0,1.1.4.8.2Z"/>
    <path class="cls-15" d="M6.1,5.3c0,0-.6-.7-.7-.6s-.2.4,0,.4,1,.5.8.2Z"/>
    <path class="cls-15" d="M10.9,2.6s-.6.4-.7.6-.3.7-.4.6.2-.9.3-1,.8-.3.8-.3Z"/>
    <path class="cls-15" d="M9.8,2.7c0,0-.6.8-.7,1.1s-.3.7-.3.4.3-1,.3-1.1.6-.4.6-.4Z"/>
    <path class="cls-15" d="M6.5,7.7s-.2-.3-.4-.2-.1.4.1.4.3-.2.3-.2Z"/>
    <path class="cls-15" d="M5.5,6.6s-.6-.4-.9-.4-.5,0-.4,0,.8.3,1,.4.2-.1.2-.1Z"/>
    <path class="cls-15" d="M11.6,6.5s-.6.2-.6.5,0,.2.1.1.5-.6.5-.6Z"/>
    <path class="cls-15" d="M10.7,6.5s-.4.4-.2.5.2,0,.3-.1-.1-.4-.1-.4Z"/>
    <path class="cls-15" d="M10.2,7.5s-.3.2-.5.5-.5-1.3-.6-.7-.2,1.3-.4,1.2-1.4-.7-1.3-.4.7.6.6.6-1.7,0-1.6,0,.7.1.8.3.7.7.9.8.9,0,.2-.3-.9-.6-.6-.6.8.4.8.1-.1-.7,0-.4.2.9.3.4.2.4.4,0,.4-.8.6-.9-.6,1.2-.3,1,.6-.7.9-.8.5,0,.2.3-.9.9-.8,1,.6-.1.8-.5,1.9-1.3,1.3-1.3-.9.4-1.1.3-.1-.3-.4-.2-.5.4-.5.4l.2-1Z"/>
    <path class="cls-13" d="M9.3,13.6c-.1-.2-.8-2.2-1.2-2.6s-1.2-.5-1.4-.5-3.6,1.2-3.6,1.2l-1.9,2.1s-1,.4-.8.5.7.4.7.4-.8.2-.6.4.6.4.5.4,0,.8.1.9,0,.5.3.6.5.2.6.4.7.2.7.2c0,0,0,.3.3.4s-.2.1-.1.3.4.1.8.2,1.1.3,1.1.3h1.2c0,0,.2-1.4.2-1.4l3.3-3.6Z"/>
    <path class="cls-2" d="M5.8,8.2s-2.4-1.8-2.6-1.9-.5.3-.5.3c0,0,1.2.8,1.3,1.4s.4,1.2.3,1.5-.4.7-.5.7-.8-.1-.9-.2-.3-.5-.3-.5l-.5.2s.3.3.2.5-.2.4-.2.4v.4c-.1,0-.3.1-.3.1,0,0,0,.2,0,.4s-.6.7-.6.7c0,0,.6-.2.6.1s-1.3.6-1.3.6l.6.6-.8.5s.3-.1.3,0,1.8-1.7,1.9-1.8,1.6-1.3,1.6-1.3c0,0,1.1-1.5,1-1.7s.8-.7.7-1Z"/>
    <path class="cls-12" d="M16.5,16.1s-1.1,0-1.4-.3-.5-.4-.7-.2-.2.5-.4.3-.4-.6-.4-.7-.5-1.2-.5-1.2l-1.4-.2.3,1.7.6,1.7.6.7h2s1.2-1.8,1.2-1.8Z"/>
    <path class="cls-12" d="M12,16.8s-1.7-.2-1.7-.2l-.8.6-.7.4,1.1,1.7h1.8s1-.8,1-.8l-.2-1.1-.4-.5Z"/>
    <path class="cls-21" d="M11.1,14.2s-.2,1.3-.6,1.1-.7-.2-.7-.2l-.5-.4s-.5.5-.7,1-.5.6,0,1.3,1.3,1.1,1.3,1.1c0,0-.2-.9.5-1.2s1.5,0,1.6.2.2.4.2.5,0,.5,0,.5l-.3.3s1-.2,1.4-1.1.3-1.8,0-2-.6-1.1-.6-1.1l-.9-.6-.5.5Z"/>
    <path class="cls-14" d="M20.8,30.7s-.6.6-.7.7-.4,0-.4,0c0,0-.4.2-.6.2s-.4,0-.4,0c0,0-.3.2-.4,0h-.1c0,0-.4-1-.4-1.4s.8-1.2,1-1.3.5-1.2.5-1.4.2-1.1.2-1.1l1.9-1.3.8-.8s-.1,1.4,0,2.4,0,2-.1,2.2-1.1,1.7-1.1,1.7Z"/>
    <path class="cls-8" d="M20.4,29.8s-.6.4-.7.6,0,.9,0,.9c0,0,0,0-.2,0s-.1-.8-.1-.8c0,0,.2-.4,0-.5s-.5.2-.5.4,0,1-.1,1,0-1.1,0-1.1c0,0,0-.4-.2-.3s-.3.3-.3.4.2,1.1,0,1-.5-1.2-.4-1.3.7-.3.8-.3.4,0,.5,0,.3-.1.3-.1l.6-.4.5.3Z"/>
    <path class="cls-12" d="M22.3,23.6s-1.1,4.1-1.2,4.5,0,.8,0,.9.4.5,0,.6-.9.1-1.1.2-.4.2-.6.1-.3-.6-.3-.7.1-2.8.1-2.8l.5-2.1.7-1.9h1.2c0,0,.5,1.2.5,1.2Z"/>
    <path class="cls-6" d="M9.3,13.8s0-1.2-1-1.3-1.5,0-2.5.5c-1,.5-1.8,2.3-2.1,2.3s-.3.4-.3.4c0,0,1.3.4,1.1.7s-.5.3-.5.3c0,0,.3.7.8,1.1s1.7,1.5,1.7,1.5c0,0,1.7.6,2.5.8s2.9.8,3.4.8,1.4.2,1.5.6.3.8.3,1-.2.3,0,.6.7.4.7.6.5,2.9.5,2.9c0,0-.7,1-.8,1.2s-.3.7,0,.8.9.3,1.4.1.9-.6,1-.7.8-.8.7-1.1-.2-1.3-.2-1.8.2-2.2.7-1.9,1,.6,1.1,1.5.4,2.4.8,2.4,1.6-2.1,1.6-2.6.1-1.4.1-1.4c0,0,.2,0,.3,0s.5,0,.5,0c0,0,.6-.3.5-.5s0-.8,0-.8l-1.6-2.1-1-1-.8-1.3v-1s.4-1.5.4-1.5c0,0,.1-1.3,0-1s-.9,1.4-1,1.7-1.5,1.9-1.9,2.2-1.9.6-1.9.6c0,0-1.2.3-1.1,0s.8-.4,1.2-.6,2.2-1.9,2.5-2.9.2-.7.2-1.1.4-1,.2-1.1-.5,0-.5-.1.7-.6.6-.8-.7-.1-1.1,0-1.7-.1-2.1-.3-1.1-.2-1.4-.3-1.7.2-1.9.4-.8.6-.8,1.2.5.6.5.9-.3.6-.1.6.4-.1.5,0,.5.4.5.5-.2.4,0,.4.4,0,.7.2.5,1.1.3,1.4-.6,1.2-.9,1.4-.7.6-1.2.7-.7.1-.9,0-.8-.5-1-1-.6-.9-.8-1.1-.3-.6-.2-.8.3-1.1.5-1,.4.4.3.2-.1-.4,0-.7,0-.8,0-.8Z"/>
    <path class="cls-10" d="M9.3,18.4s-.5-.3-.6-.6-.3-.4-.6-.3-.4.4,0,1,1.1.6,1.2.5,0-.5,0-.5Z"/>
    <path class="cls-10" d="M15.1,16.5s0,0-.4,0-1.1.9-1.3,1.1-.4.4-.1.5,1.3-.4,1.5-.6.6-.8.4-1.1Z"/>
    <path class="cls-21" d="M13.5,11.6s-1.2,0-1.6.3-.5.9-.5,1.2.3.7.5.7.9.4,1.1.4.4-.1.3-.2-.7-.3-.8-.3,0,0,0-.1.4-.3.5-.3.5-.7.5-.9-.1-.7-.1-.7Z"/>
    <path class="cls-16" d="M12.9,12.1s-.5,0-.6.3,0,.7,0,.8.2.2.3,0,.4-.3.4-.5,0-.4-.1-.7Z"/>
    <circle class="cls-23" cx="12.7" cy="12.5" r=".1"/>
    <path class="cls-11" d="M8.2,14.5s-1.2,0-1.1,0,.6.3.5.3,0,.4-.6.2-1.1-.3-1.3-.3,0,.2.2.3-.7-.1-.8,0,.4.4.6.4,1,.1,1.2.2,1.2-.3,1.2-.3l.8-1h-.7Z"/>
    <path class="cls-21" d="M8.8,14.3s-.2.1-.6,0-.5-.2-.6-.4-.1-.9,0-1,.7-.2,1-.1.7.6.8.8.3,1,0,1-.9.5-1,.5-.5,0-.3-.2.8-.3.9-.5-.1-.2-.1-.2Z"/>
    <path class="cls-16" d="M8.8,13.8s-.2-.5-.4-.6-.5,0-.5,0,0,.4.2.6.8.2.7,0Z"/>
    <circle class="cls-23" cx="8.4" cy="13.4" r=".1"/>
    <path class="cls-15" d="M10.6,12.6s-.1-.3-.2-.2,0,.5-.2.5-.4-.5-.5-.4,0,.7-.1.7,0,.2,0,.3.3.4.3.5.1.7.3.6.2,0,.3-.3.1-.6.2-.7.2-.2,0-.3-.2-.8-.2-.8Z"/>
    <path class="cls-2" d="M13.8,8.8s-1.1,0-1.7.6-1.2,1.7-1.2,1.9,0,.8.1.8.4-.5.4-.6.2-.5,0-.4-.2.5-.3.2.2-.5.4-.9.5-.8.7-1,1.7-.4,1.4-.6Z"/>
    <path class="cls-15" d="M12,10.4s1.4-.7,2-.9,3.3-.5,3.6-.5,1.5-.2,1.7-.2.5-.3.6-.3.7-.6.6-.3-.5.7-1.3.9-2.2.5-3.1.5-1.7,0-2.2.4-1.6.8-1.8.9,0-.3,0-.3Z"/>
    <path class="cls-2" d="M8.6,11.9s-1.3-1.4-1.6-1.4-1.1,0-1.5,0-1.4.5-1.3.6,1.1-.3,1.8-.4.7,0,1,.1,1.4,1.2,1.5,1.2.1-.3.1-.3Z"/>
    <path class="cls-15" d="M6.9,11.8s-.9-.4-1.4-.3-2,.6-2.3,1-2.3,1.6-2.3,1.8.4.2.5,0,2.1-1.9,3.4-2.3,1.6,0,1.6,0c0,0,.8,0,.4,0Z"/>
    <path class="cls-4" d="M1.8,14.8s-.9.2-.9.3.4.1.3.2-.8,0-.6.3,1.2,0,1.2,0-.2-.4-.3-.3-.1,0,0-.2l.2-.2Z"/>
    <path class="cls-4" d="M2.6,17.4s.9-.1.8,0-.5.2-.6.2-.2-.2-.2-.2Z"/>
    <path class="cls-4" d="M4.5,17.9c0,0-1.1,0-1,.1s.4.2.4.3.8-.4.6-.4Z"/>
    <path class="cls-4" d="M5.4,18.2s-.9.3-.8.3.5,0,.6.1.4.2.6.3.4-.3.3-.3-.8-.4-.8-.4Z"/>
    <path class="cls-11" d="M11.7,17.3s-.3-.3-.7-.3-.8,0-.9.3-.1.5,0,.6.5,0,.4.2-.3.3-.4.3.1.2.3.2,1.1-.2,1.2-.2,0-.2-.3-.3-.4,0-.3-.2.9-.3.6-.5Z"/>
    <path class="cls-11" d="M11.8,18.4l-1.4.3s0,.1.3.2,0,0,.4,0,.7-.5.7-.5Z"/>
    <path class="cls-11" d="M16.6,20.5s-1.4-.3-1.6-.6-.4-.5-.5-.5-.1-.7-.2-.5-.2.5,0,.9.8.6.9.7,2.1.6,1.4.1Z"/>
    <path class="cls-11" d="M18.2,22.7s-1.6-1.3-1.7-1.3,0,.3.2.5,1,.9.6.9-1.6-1.3-1.6-1.1.8,1.3.4,1-.7-1.3-.8-.9.3,1,.5,1.1.3.2.4.1,0-.1.2-.2,0-.3,0-.3c0,0,.3.5.6.5s.5.2.6,0,0-.4.2-.3.7.3.3,0Z"/>
    <path class="cls-11" d="M14.8,22.7s-.5-1.6-.6-1.1.4,1.5.5,1.5.3,0,.1-.4Z"/>
    <path class="cls-12" d="M19.9,19.3s-2.4-.6-2.6-.6-1,0-.6.2,1.7.6,1.6.7-3.1-.5-2.9-.3,2.5.6,2.3.6-1.1.1-.9.3,1.4,0,2,0,.9,0,1.2,0-.4-.9.1-.6,1.7,1.8,1.4,1.2"/>
    <path class="cls-11" d="M6.6,14.1s-.8-.9-.9-.6,1.2,1.2.9.6Z"/>
    <path class="cls-11" d="M14.5,12.4s-.8.5-.6.6.2,0,.3,0,.4-.7.3-.6Z"/>
    <path class="cls-11" d="M16,12.1s-1.5.9-1.6,1,0,.3.2.2,1.4-.9,1.4-.9c0,0,.2-.3,0-.3Z"/>
    <path class="cls-11" d="M16.6,12.5s-1.5.8-1.9.9-1.6.3-1.7.3-.5,0-.3.2.1.3.3.4.4.1.6.1.7,0,.8-.2.9-.2.8-.3-.2-.2,0-.3.9,0,.8-.1-.8.2-.5-.1,1.6-.8,1.2-.9"/>
    <path class="cls-12" d="M7.2,16.8s.2.4.2.7.7.6.7.6c0,0,.4,1.4.4,1.5s-.3-.4-.6-.4-.7,0-.7-.1-.3-.7-.4-.6-.2-.5-.3-.6,0-.3,0-.6-.1-1.5.2-.5.7,1.8.6,1.2,0-1.3,0-1.3Z"/>
    <path class="cls-15" d="M7,11.3s-.7-.2-.7,0,1,.4.7,0Z"/>
  </g>
  <g>
    <path class="cls-15" d="M29.3,3.4s2-.6,2-.6-.1.2-.3.2-2.1.5-1.7.3Z"/>
    <path class="cls-15" d="M28.4,2.9s2-.6,2-.6-.1.2-.3.2-2.1.5-1.7.3Z"/>
    <path class="cls-15" d="M29.6,3.9s1.5-.6,1.6-.5-.1.2-.3.3-1.6.4-1.3.2Z"/>
    <path class="cls-15" d="M27.7,2.8s1.4-.8,1.5-.7,0,.3-.2.3-1.5.6-1.3.4Z"/>
    <path class="cls-15" d="M26.6,2.3s1.1-.7,1.1-.6,0,.2-.1.3-1.2.5-1,.3Z"/>
    <path class="cls-15" d="M27.7,2.3s1.1-.7,1.1-.6,0,.2-.1.3-1.2.5-1,.3Z"/>
    <path class="cls-15" d="M29.8,4.3s2.1-.5,1.9-.4-2.6.7-1.9.4Z"/>
  </g>
  <g>
    <path class="cls-15" d="M36.3,5.5s1.6,0,1.9.1.8.1.7.2-1.4-.1-1.7-.1-1.2,0-.9-.2Z"/>
    <path class="cls-15" d="M36.9,6.5s1.1.3,1.3.7.3.5.2.5-.1-.3-.7-.6-.8-.6-.8-.6Z"/>
    <path class="cls-15" d="M36,6.8s1,.4,1.2.6.7.5.5.5-.8-.4-.9-.4-.9-.7-.8-.7Z"/>
    <path class="cls-15" d="M35.6,7.4s.9.2,1.1.5.5.6.3.6-.3-.3-.5-.5-.9-.7-.9-.7Z"/>
  </g>
</svg>