<?xml version="1.0" encoding="UTF-8"?>
<svg id="Livello_1" data-name="Livello 1" xmlns="http://www.w3.org/2000/svg" version="1.1" viewBox="0 0 56.7 43.9">
  <defs>
    <style>
      .cls-1 {
        fill: #282828;
      }

      .cls-1, .cls-2, .cls-3, .cls-4, .cls-5, .cls-6, .cls-7, .cls-8, .cls-9, .cls-10, .cls-11, .cls-12 {
        stroke-width: 0px;
      }

      .cls-2 {
        fill: #4f2f19;
      }

      .cls-3 {
        fill: #331d0e;
      }

      .cls-4 {
        fill: #5a5f6d;
      }

      .cls-5 {
        fill: #3a3230;
      }

      .cls-6 {
        fill: #060606;
      }

      .cls-7 {
        fill: #dddbe7;
      }

      .cls-8 {
        fill: #000;
      }

      .cls-9 {
        fill: #514744;
      }

      .cls-10 {
        fill: #332c2a;
      }

      .cls-11 {
        fill: #fff;
      }

      .cls-12 {
        fill: #7f6a58;
      }
    </style>
  </defs>
  <path class="cls-11" d="M12.6,7.4l-.4.2.4-2.2-.5-.3-1.8,1.6-2.6,2.8-.4,4.3-2,.7.7,3.5.5,1.9,1.5,1.8-.2.9.9,1.9,1.8,1.1,4,.7,2.3.7.8.8,2.5.2-.7.5,1.2.7.2,1.4s.4.8.4.8,1.9-.9,1.9-.9l4.4-2h2.1c0,0,4.8-.3,4.8-.3h3c0,.1,2.8,1.8,2.8,1.8l1.5.2,4-1.9v-.6c0,0-.3,0-.3,0l.3-.4s-.8.4-1,.4.5-.4.5-.4c0,0-.7.2-1,.3s.1-.2.1-.2l-1.4.5-1.7.5-.4.2h-.6c0,0-.6-.2-.6-.2l-.6-.5-1.1-1.1s.2.3,0,.3-.6-.4-.6-.4c0,0,0,.2-.1.1s-.9-.4-.9-.4l-1.4-.3h-1.3c0,0-4.2.3-4.2.3l-3.5.4-2.2.4-2.4-.7-1.4-.4h-.6s-.8-.4-1.1-.8-.5-.6-.5-.6l.3.6-1.5-1.1-.6-.5s-1.1-1.2-1.2-1.4-.2-.4-.2-.4v.4s-1-1.3-1-1.3c0,0-.7-1.2-.8-1.5s-.7-2.4-.7-2.4l-.3-3,.3-3.2.6-2.8v-.7Z"/>
  <g>
    <path class="cls-8" d="M2.6,23.8c.3,0,2.9-.3,3.1-.3-.2,0-4.2-.6-3.7-.7,0,0,3.1-.2,2.9-.2-.1,0-.3,0-.4-.1-.3,0-1.5-.1-1.6-.1.1,0,.6,0,.7,0,0,0-1.3-.2-1.4-.3.3,0,1.9.3,2.1,0-.4,0-.8-.2-1.2-.3-.2,0-1-.2-1.5-.4.8,0,2.7.1,3.5.3-1.4-.6-2.8-1.2-4.2-1.6,0,0,.2,0,.3,0,.7.1,1.4.2,2.1.3.5,0,.9.2,1.4.3.1,0,.3,0,.4,0,0,0,0,0,0,0-1.3-.6-2.6-1-3.9-1.5,1.5.1,3,.5,4.4,1-.5-.4-1-.8-1.5-1-.5-.3-1.2-.4-1.7-.5,0,0,0,0,0,0,.3,0,.5,0,.8,0,0,0,0,0,0,0-.8-.5-1.7-.8-2.6-1.2.6.1,1.1.2,1.7.4.5.2,1.1.4,1.7.6-.4-.3-.7-.8-1.2-.9,0,0,0,0,.1,0-.7-.6-1.5-1.2-2.4-1.5,1.2.1,2.3.7,3.4,1.2-1-.9-2.1-1.7-3.3-2.3.5.1,1.1.3,1.5.5.3.2.7.3,1.1.2-.2-.3-.4-.5-.6-.7-.2-.2-.5-.4-.7-.6-.3-.2-.5-.3-.8-.5,1.1.3,2.1.8,3,1.6-.7-1.1-1.6-2-2.7-2.8,0,0,0,0,0,0,.6.3,1.2.7,1.7,1,.2.1.4.2.6.3,0,0,0,0,0,0-.6-.8-1.3-1.4-2-2.2.9.5,1.7,1.1,2.3,1.8-.4-.9-.8-1.9-1.5-2.5,0,0,0,0,.1,0,0,0,0,0,0,0-.5-.6-1-1.3-1.5-1.9.5.3.9.6,1.3.9.4.3.8.7,1.2,1.1.4.4.7.8,1.1,1.2-.2-.6-.6-1-1-1.4-.6-.7-1.2-1.5-1.4-2.4,0-.3-.1-.5-.2-.8.2.4.4.8.6,1.2.2.4.5.8.8,1.1-.6-1.2-.9-2.5-.9-3.8.4,1.4,1.1,2.6,2.1,3.6-.4-.7-.7-1.3-.9-2-.2-.6-.4-2-.4-2.2.3.9.6,1.9,1.1,2.7-.4-1.1-.5-2.2-.4-3.3.1.8.3,1.5.7,2.2.3.7.7,1.4,1.2,2-.1-.7-.3-1.3-.4-2-.1-.7,0-1.8,0-2.1.1,1,.3,2,.7,2.9,0-.6,0-1.3,0-1.9,0-.6.2-1.2.4-1.8,0,1,0,1.9,0,2.8.2-.8.4-1.6.6-2.5,0,0,0,.1,0,.2.2-.3.3-.6.5-.9,0,.5-.2,1-.2,1.5,0,.5,0,1,0,1.5.1-1.5.6-3,1.5-4.2-.1.4-.2.8-.3,1.2-.1.4-.2.8-.2,1.2.7-1.3,1.1-2.6,2-3.8-.4,1.2-.7,2.3-.8,3.6.5-1.4,1.7-3.5,2.3-4.1-.6,1.1-.9,2.3-.9,3.5.3-.6.6-1.2.9-1.8.3-.6.9-1.1,1.5-1.4-.4.6-.7,1.3-.9,2,.1-.1.2-.3.3-.5.1-.1.2-.3.4-.4.1-.1.3-.2.4-.4-.6.9-1,1.8-1,2,.1-.2.2-.3.4-.5,0,0,0,0,0,0,0,0,0,.2-.1.2.3-.4.7-.7,1.1-1-.2.4-.5.7-.7,1-.3.5-.5.9-.5,1.1,0-.1.2-.3.3-.4.4-.4,1.6-1.3,1.6-1.3.2,0,.4-.2.6-.3,0,0,0,0,0,0-1.1,1-1.9,2.2-2.4,3.7.6-.9,1.3-1.6,2.3-2-.4.4-.8.8-1.1,1.3.5-.4.9-.7,1.5-.9-.8.8-1.6,1.6-2.3,2.5.6-.6,1.3-1.2,2.1-1.6-.7.6-1.4,1.2-2,2,.4-.3.9-.6,1.4-.7-.8.6-2.5,2.6-2.7,2.9,0,0,.3-.3.4-.3,0,.1-.3.5-.4.6.4-.4.8-.8,1.3-1.2.4-.4.9-.7,1.5-1,0,0,0,0,0,0-.7.5-2.3,2.1-2.5,2.4-.1.2-.3.4-.4.5,0,0,0,0,0,0,0,0,.2-.2.3-.3.5-.4.9-.7,1-.8,0,0,.7-.5.6-.5s.2-.1.1,0c-.2.2-.7.7-.7.7-.5.5-1,1.1-1.3,1.7,0,.2-.2.3-.3.5.1,0,.2-.2.3-.3,0-.1.2-.2.3-.3,0,0,.5-.4.5-.4-.5.6-.8,1.2-1,1.8-.2.6-.3,1.2-.3,1.8.2-.4.4-.8.7-1.1-.1.3-.3.6-.4.9-.2.5-.3,1-.3,1.5,0,.7.2,1.4.3,2.1.2.7.4,1.4.6,2.1,0,.2.1.3.2.4h0c0-.4-.1-.7-.2-1.1,0,0,0,0,0,0,0,0,0,0,0,.1.3,1,.7,1.9,1.3,2.7,0,.1.2.3.3.4h0c-.2-.2-.4-.4-.6-.6-.1-.1-.3-.3-.4-.4.6.9,1.2,1.8,2,2.6-.1,0-.2-.1-.3-.2-1.3-1-2.1-2.3-2.6-3.9-.2-.8-.4-1.6-.6-2.3,0,1.1.3,2.3.5,3.4-.8-2.1-1.1-4.3-1.1-6.6-.4,1.5-.3,3-.2,4.5,0,0,0,0,0,0-.3-.9-.4-1.8-.4-2.8,0-1.5.3-3,.5-4.5,0-.1,0-.3,0-.4-.1.2-.2.4-.2.6-.4,1.5-.6,3.1-.7,4.6,0,0,0,0,0,0,0-1.4,0-2.7.4-4.1.1-.6.3-1.1.4-1.7.2-.7.4-1.5.7-2.2,0,0,0,0,0,0,.3-.2.1-.6.3-.9-.1.2-.2.3-.3.5,0,.1-.1.2-.2.3,0,0,0,0,0,.1,0,0,0,.1,0,.2-.1.4-.3.7-.4,1.1-.2.6-.4,1.3-.6,1.9-.2.8-.3,1.5-.5,2.3.2-2.9,1-5.7,1.8-8.5-.5,1-.9,2-1.3,3.1-.3,1.1-.5,2.2-.6,3.3-.3-1.6,0-3.2.3-4.8-.2.3-.3.6-.4.9-.7,2-.8,4-.7,6.1-.2-.6-.3-1.2-.4-1.8,0-.6,0-1.2-.1-1.8,0-.6,0-1.2,0-1.8,0,.5-.1,1.1-.2,1.6,0,.5-.1,1.1-.1,1.6,0,.5,0,1.1,0,1.6,0,.5,0,1.1.2,1.6,0,.5.2,1,.4,1.5,0,0,0,0,0,0-.8-1.3-1-2.7-1.3-4.2,0,2.9.9,5.3,2.7,7.4,0,0,0,0-.1,0-.7-.6-1.3-1.4-1.8-2.2-.5-.8-1.1-1.6-1.8-2.2-.2-.2-.4-.3-.6-.5,0,0,0,0,0,0,1.2,1.1,2.1,2.4,2.9,3.8-1.1-.9-2-1.9-3.2-2.6.5.5,1.1,1.1,1.6,1.6.5.5,1.1,1.1,1.6,1.7.5.6,1,1.1,1.5,1.7,0,0,0,0,0,0-.9-.6-1.8-1.1-2.8-1.4.6.4,1.2.7,1.7,1.1.6.4,1.1.9,1.6,1.3.5.4,1,.9,1.5,1.4-.7-.3-1.4-.5-2.1-.8-.4-.2-2-.5-2.2-.4.5.1,1,.3,1.5.5.5.2,1,.4,1.4.6.5.2.9.4,1.4.6.5.2.9.4,1.4.7,0,0,0,0,0,0-1.6-.5-3.3-.8-5-.6,2.2,0,4.2.6,6.3,1.4-1.5-.2-3-.2-4.5,0,.7,0,1.5,0,2.2,0,.7,0,1.5.2,2.2.3.7.1,1.4.3,2.1.6-.9-.2-1.7-.3-2.6-.3.6.1,1.2.3,1.8.4.6.2,1.2.3,1.8.5.6.2,1.2.4,1.8.6-.3,0-.7,0-1,0-.6,0-.8,0-.9.1,1.3,0,2.6.2,3.9.6-.2,0-.5,0-.7,0-.2,0-.5,0-.7,0-.2,0-.5,0-.7.1.7,0,1.3,0,1.9.1,0,0,0,0,0,0-.3,0-.8.2-1.1.3,0,0,.3,0,.3,0,.4,0,.9-.1,1.3-.2,0,0,0,0,0,0-.4.1-.8.3-1.1.6.3,0,.7-.2,1-.3,0,0-.1,0-.1.1-.4.3-.7.6-.9,1.1.3-.3.7-.5,1.1-.6-.4.4-.7.9-.8,1.4.3-.3.5-.6.8-.9.3-.3.7-.6,1-.9,0,0,0,0,0,0-.4.4-.7.9-.9,1.4.5-.5.9-1,1.3-1.4.5-.5,1-.8,1.6-1.1-.4.4-.8.8-1.1,1.3.4-.3.9-.7,1.3-1,.6-.4,1.3-.7,1.5-.6-.3.2-.9.5-1.3.8,0,0,.3-.1.3-.1.8-.4,1.6-.7,2.5-.9-.3.1-.5.2-.8.3.7-.1,1.3-.2,2-.2-.3.2-.9.4-1.2.6,0,0,.4-.1.4,0,1-.4,2.1-.6,3.3-.7-.3,0-.5.2-.8.3,0,0-.4.1-.4.2.8-.2,2.1-.4,3-.4-.3,0-.6.2-.9.2,0,0,.1,0,.2,0,.6,0,1.1-.2,1.7-.2.6,0,1.3,0,1.9,0,.2,0,.5,0,.7.1-.4,0-.9,0-1.3.1.9,0,1.8,0,2.6.6-.1,0-.3-.1-.4-.2,0,0,0,0,0,0,.4.3.8.6,1.2.9-.1,0-.2,0-.4-.1.3.3.7.5,1.1.5,0,0-.3,0-.5,0,0,0,0,0,.2.1.2,0,.6,0,.7,0,0,0,0,0,0,0,0,0-.2,0-.2,0,.1,0,.4,0,.6,0,0,0,0,0,0,0,.1,0,.2-.1.4-.2,0,0,0,0,0,.1.2-.1.3-.3.5-.4,0,0-.2.3-.2.3,0,0,.2-.1.2-.1.2-.2.5-.4.7-.6,0,0,0,.1-.1.2.6-.3,1-.9,1.6-1.1,0,0-.1.1-.2.2,0,0-.1.1-.1.2.5-.3,1.1-.6,1.6-.9,0,0,0,0,0,.1.4-.2.9-.4,1.3-.6,0,0,0,0,0,0l-.2.2c.5-.2.9-.5,1.4-.6-.3.2-.6.4-.6.4.3-.1.9-.4,1.3-.5,0,0-.1.1-.1.1-.1,0-.3.2-.4.3.5-.2.9-.4,1.4-.4,0,0-.1,0-.2.1,0,0-.4.1-.4.2,0,0,.2,0,.2,0,.2,0,.3-.1.5-.2,0,0,0,0,0,0,0,0,0,0-.2.1.2,0,.5,0,.7,0,0,0,0,0,0,0,0,0,.1,0,.2,0,0,0-.1-.1-.2-.2.2,0,.3,0,.4,0,0,0,0,0-.1-.1.2,0,.3,0,.4,0h0c.2,0,.3,0,.4,0,.2,0,.5.2.7.3.4.3,1,.6,1.4.9.3.2,1,.9,1.2,1.2,0,0,0,0,0,0,0,0,0,0-.1,0-.8-.7-1.6-1.4-2.6-1.8-.1,0-.3-.2-.7,0,.1,0,.5.1.6.2.2,0,.4.1.5.2.3.2.5.4.8.6.5.3,1,.6,1.4,1,.3.3.6.5,1,.8.1,0,.3.1.4.2.2.2.3.4.5.6,0,.1,0,0,0,.2-.6.4-.5.7-.9.9,0,0,0,.1,0,.2-.1.3-.3.4-.6.4-.5,0-1,0-1.5,0-.6,0-1.1,0-1.7,0-.3,0-.5,0-.8,0-.4,0-.8.2-1.2.3.2-.1.4-.2.6-.3,0,0,0,0,0,0-1.2.4-2.4,1-2.9,2.4,0-.4.2-.7.4-1-.2.2-.5.5-.6.8-.2.3-.3.6-.5.9,0,0,0,0,0,0,0-.2.1-.4.2-.6,0,0,0,0-.1,0-.1.4-.2.8-.4,1.2,0,.2-.1.3-.2.5,0,0,0,0-.1,0,0,.4-.2.8-.3,1.3-.2.6-.3,1.3-.2,1.9,0,0,0,.2,0,.2.2.3.6.4.9.6.3.1.5.2.8.3.1,0,.3.1.4.2.1,0,.2.2.3.3,0,0,.1.2.2.3,0,0,0,0,0,0-.2-.3-.4,0-.6,0,0,0,0,.1,0,.2-.2-.3-.4,0-.6-.2,0,0,0,.1,0,.2-.1,0-.3,0-.4-.1,0,0,0,0-.1,0-.3-.2-.7-.2-1-.2-.3,0-.6-.2-.7-.5-.2-.5-.4-.9-.6-1.4,0,0,0,0,0,.1,0,.4,0,.7,0,1.1,0,0,0,.1,0,.1.5.4,1,.7,1.6.9.2,0,.4,0,.5.3,0,.1.2.2.3.3,0,0,0,.1.1.2,0,0,0,0,0,0-.2-.3-.4,0-.6,0,0,0,0,.1,0,.3-.1-.3-.4-.1-.6-.2,0,0,0,.1,0,.2,0,0-.2-.1-.3-.1,0,0-.2,0-.3,0-.3-.1-.5-.2-.8-.2-.4,0-.7-.2-.8-.5-.2-.4-.4-.8-.5-1.3-.1-.4-.2-.7,0-1.1,0,0,0,0,0,0,0,0,0,0-.2,0,0-.4,0-.7,0-1,0,0,0,0-.2.1v-1s0,0,0,0c0,.2,0,.4-.1.5,0,0,0,0,0,0v-.9c0,0,0,.1-.1.2,0-.2,0-.3,0-.5,0-.2,0-.3.1-.5h0c0,0-.2.2-.3.3,0,0,0,0,0,0,0-.2.1-.4.2-.6-.4,0-.8.3-1.1.5,0,0,0,0,0,0l.5-.5s0,0,0,0c-.4,0-.8.1-1.3.2.2-.1.3-.2.5-.3-.2,0-.5,0-.7,0-.2,0-.4.1-.7.2,0,0,0,0,0,0,.3-.1.7-.3,1-.4-.3,0-.7,0-1,0-.3,0-.7.1-1,.2,0,0,0,0,0,0,.3-.1.6-.2.9-.4-.8,0-1.5.2-2.2.5,0,0,0,0,0,0,.4-.2.9-.4,1.3-.7h0c-.3,0-.6.2-.9.3,0,0,.1-.1.2-.2,0,0,.1,0,.2-.1-.7.1-1.3.4-1.9.8,0,0,0,0,0,0,.2-.2.4-.4.6-.6-.7.1-1.3.3-1.8.6.3-.4.8-.7,1.2-1-.8,0-1.5.3-2.1.8.3-.4.7-.7,1.1-1-1.1,0-1.9.5-2.7,1,.2-.2.4-.5.6-.7.2-.2.5-.3.8-.5-.5.1-.9.4-1.3.7,0,0,0,0,0,0,.2-.3.4-.5.7-.8-.2,0-.3.1-.4.2-.3.2-.7.3-.9.6-.3.3-.6.6-1,1,.1-.3.2-.6.3-.8-.5,1-1.1,1.9-1.3,2,0-.2.1-.4.2-.6,0-.2,0-.4.1-.6,0,0,0,0,0,0-.2.8-.5,1.6-.8,2.3,0-.2,0-.4,0-.6-.1.2-.2.4-.3.6-.2.3-.4.6-.6.9-.2.4-.2.6.2.8.3.1.6.2,1,.3.5.1.9.3,1.4.4.3,0,.5.1.7.3.3.2.5.5.8.7,0,0,0,.2,0,.2-.2,0-.3-.2-.4-.2-.3,0-.5,0-.8,0,0,.2,0,.3,0,.4-.2-.2-.3-.3-.6-.3-.2,0-.3,0-.5,0,0,0,0,0-.1,0-.7,0-1.4-.1-2.1-.2-.3,0-.6-.1-.9-.4-.2-.2-.4-.3-.6-.5-.4-.3-.9-.6-1-1.2,0,0-.1.1-.2.2-.3.4-.3.6.1.9.6.3,1.3.6,2,1,.3.2.7.3.9.5.3.2.5.5.7.8,0,0,0,.2,0,.2-.1,0-.3-.2-.4-.2-.3,0-.6,0-.8-.2v.5c-.2-.4-.2-.3-.6-.4-.1,0-.3,0-.4-.1,0,0-.1,0-.2,0-.7,0-1.4-.3-2.1-.5-.3-.1-.6-.2-.8-.4-.4-.3-.7-.7-1-1.1-.4-.5-.5-1.1-.2-1.7,0,0,0-.2,0-.3,0,0,0,0,0,0,0,.1-.1.3-.2.4.1-.5.2-1,.3-1.4,0,0,0,0,0,0-.1.3-.3.5-.4.8,0,0,0,0,0,0l.2-.7s0,0,0,0l-.4.5s0,0,0,0l.5-1.1s0,0,0,0c-.1.2-.2.3-.3.5h0c0-.2.2-.4.2-.5,0,0,0,0,0,0-.2.2-.3.4-.5.7,0-.6.4-1.1.8-1.6,0,0,0,0,0,0-.2.2-.5.5-.7.7.1-1,.6-1.8,1.1-2.7-.6.6-1.1,1.3-1.5,2.1.2-1.2.7-2.1,1.4-3.1-.7.6-1.2,1.3-1.7,2.1,0-.6.3-1.2.6-1.7-.3.3-.6.7-.8,1.1,0-.7.3-1.3.7-1.9-.5.4-1,1-1.3,1.6,0,0,0,0,0,0,.2-.5.4-1,.6-1.5-.3.2-.5.5-.7.8,0-.5.3-.8.6-1.2,0,0,0,0,0,0-.2.1-.3.2-.5.4,0,0,0,0,0,0,.2-.3.4-.7.7-1,0,0,0,0,0,0-.2.2-.4.3-.5.5,0,0,0,0,0,0,0-.2.1-.4.2-.7.1-.2.3-.4.4-.6h0c-.2.2-.4.3-.7.5,0-.5.4-.9.7-1.3-.3,0-.5.3-.7.5,0,0,0,0,0,0,0-.1.2-.2.3-.4-.2,0-.4.1-.5.2,0,0,0,0,0,0,.2-.2.5-.5.7-.8-.3,0-.5.1-.8.2.1-.3.4-.5.7-.6,0,0,0,0,0,0-.3,0-.6,0-.9.1,0,0,0,0,0,0,.1,0,.3-.1.4-.2,0,0,0,0,0,0-.6,0-1.2,0-1.8,0,.3-.2.7-.3,1.1-.3-.8-.3-1.7-.3-2.6-.2,0,0,0,0,0,0,.4-.1.9-.2,1.3-.3-.7-.2-1.5,0-2.2,0h.4c0-.1,0-.2,0-.2-.5,0-1.2,0-1.8,0,.4-.2.9-.2,1.3-.2-.5-.2-1.1-.1-1.7-.2,0,0,.1,0,.2,0,0,0,.1,0,.1,0-.6,0-1.4,0-2.1,0,.8-.3,1.6-.3,2.4-.3-.9-.2-1.8,0-2.8,0l.5-.2s.2,0,.2,0c-.6,0-1.4.2-2,.3.5-.2,1-.3,1.5-.4-1.2,0-2.4,0-3.6.5.6-.4,1.2-.6,1.8-.8-1.1.2-2.1.2-3.1.9,0,0,0-.1.1-.2,0,0,0,0,0,0-.8.3-1.6.5-2.3.8.7-.6,1.6-1,2.4-1.4-1.1.2-2.1.5-3.1,1,0,0,0,0,0,0,.5-.3,1.1-.6,1.6-.9.2-.1.7-.5.7-.5-1,.2-2.2.5-3.2.8,1-.6,2.1-1,3.2-1.2,0,0-.7,0-.9,0-.7,0-1.3,0-2,0-.4,0-.8,0-1.2,0,.9-.4,1.8-.5,2.7-.5-.9-.3-1.8-.4-2.8-.4h0c.9-.1,1.7-.2,2.6-.2l-2.2-.4ZM52.8,30c0,0-.1-.1-.2-.2,0,0-.1.1-.1.2,0,0,0,0,.1.2,0,0,.1,0,.2-.1Z"/>
    <path class="cls-8" d="M22.1,27.7s.1,0,.4.3c0,0,1.4.2,2.1-.1-.4,0-1.4,0-1.4,0,.5-.1,1.3-.3,1.8-.4.5,0,1-.1,1.4-.2-.2,0-.6,0-.9,0h0c.8-.1,1.7-.1,2.5-.2,0,0-.2,0-.2,0,0,0-.4,0-.4,0,.8,0,2.1,0,2.9.1,0,0,0,0,0,0-.3,0-.7,0-1.1,0,.2,0,.5,0,.7,0,.4,0,.8-.1,1.2-.2.6,0,1.1-.1,1.7-.2.1,0,.3,0,.4,0h-.3c.9,0,2,0,2.9.4,0,0-.2-.1-.2-.2-.4-.1-.7-.2-1.1-.3,0,0-.3-.1-.3-.1.8.2,1.9.4,2.6.6-.5-.3-1-.4-1.5-.6.9,0,1.6.4,2.3.9h0c-.2-.2-.5-.4-.7-.5-.3-.2-.6-.4-1-.5,0,0-.2,0-.3,0-.7-.2-1.3-.4-2-.4-.1,0-.3,0-.4,0,0,0,0,0,0,0,.1,0,.3,0,.4,0,0,0,0,0,0,0-1.8-.4-3.6-.4-5.4,0,.4,0,.8,0,1.1,0-.8.1-1.6.3-2.4.4h0c.2,0,.4,0,.6,0-.3.2-1,.2-2.5.2h.8c-1.3.2-2.5,0-3.8-.4h0c.4.2.9.4,1.3.5h0c-.6-.1-1.2-.2-1.8-.4-.6-.2-1.2-.4-1.8-.6h0s1.5.6,1.5.6h0c-.2,0-.4,0-.6,0-.2,0-.5-.1-.7-.2-.2,0-.4-.2-.6-.2-.2,0-.4-.2-.6-.3h0c.3.2.5.4.8.6h0c-.4-.1-.7-.3-1.1-.5h0c.7.6,1.3,1.1,2.1,1.6-.2,0-.1-.4-.1-.3,0,0,1.1.8,1.5,1s.3,0,.3-.1Z"/>
    <path class="cls-8" d="M38.8,27.8c.2.2.4.4.6.6,0,0,.1.2.2.3,0,0-.1-.3-.1-.3.2.2.7.6.9.8,0,0,0,0,0-.1,0,0,0-.1-.1-.2,0,0,0,0,0,0,.2,0,.6.2.7.3,0,0,0,0,0,0,0,0-.1,0-.2,0,.4,0,.8,0,1.1,0-.3,0-.5,0-.8-.1.6,0,1.1,0,1.6-.3-.3,0-.6,0-.9.1,0,0-.2,0-.2,0,.8-.2,1.5-.5,2.2-.7,0,0,0,0,0,0-.6,0-1.3.2-1.9.2,0,0,.2,0,.2,0,.1,0,.2,0,.3,0-.5.2-1.1.2-1.7.2,0,0,.2,0,.2,0,0,0,.2,0,.3,0h-.4c0,0,0,0,.1.1-.4,0-.6-.2-.9-.4,0,0,0,.1.1.2,0,0,.1,0,.2.1,0,0,0,0,0,0-.3-.2-.5-.4-.8-.5-.2-.1-.4-.2-.6-.3,0,0,0,0,0,0Z"/>
    <path class="cls-8" d="M14.7,22.6c.2.2.4.5.6.7.8.7,1.6,1.4,2.4,2.1.2.1.3.3.5.4h0c-.1-.2-.3-.3-.4-.4-.7-.7-1.4-1.5-2.1-2.2-.2-.2-.4-.4-.5-.7,0,0,0,0,0-.1,0,0,0,0,0,0,.2.3.4.7.6,1-.2-.2-.3-.3-.5-.4-.1-.1-.3-.3-.4-.4,0,0,0,0,0,0Z"/>
    <path class="cls-8" d="M38.8,27.8s0,0,0,0c-.2-.2-.4-.3-.6-.5,0,0-.2-.1-.2-.2,0,0,0,0,0,0,.3.3.7.7,1,1,0,0,0,0,0,0,0-.1-.1-.2-.2-.3Z"/>
    <path class="cls-8" d="M32.6,26.8h-1.5s-.4,0-.4.1c.6,0,2,0,2.6.1,0,0-.8-.2-.8-.2Z"/>
    <path class="cls-11" d="M52.6,30.1c0,0,.1,0,.2-.1,0,0-.1-.1-.2-.2,0,0-.1.1-.1.2,0,0,0,0,.1.2Z"/>
  </g>
  <g>
    <path class="cls-5" d="M54.4,30.2s-.4-.2-.4-.3-.2-.3-.3-.3-.5,0-.6,0-.2-.2-.4-.2-.4,0-.5.3,0,.6.2.6.5.1.6,0,.2-.1.2,0,.2.2.2.2c0,0,.3,0,.3-.2s0-.2,0-.1.2.2.2.3.1.1,0,.3,0,.3,0,.3.2.3.1.3-.2.4-.2.4c0,0,0,0,0,.1s.5,0,.7,0,.6,0,.7,0,0,0,.5-.3.6-.6.5-.9-.4-.4-.4-.4c0,0-.6.2-.9.1s-.5-.3-.5-.3Z"/>
    <path class="cls-8" d="M53.2,29.9s-.1-.2-.4-.3-.4.2-.4.2v.2s0,.2.4.2.4-.2.4-.2c0,0,0,0,0,0Z"/>
    <path class="cls-7" d="M52.8,29.9s0-.1-.2-.2-.1,0-.1.2,0,0,.1,0,.2,0,.2,0Z"/>
    <path class="cls-4" d="M52.9,29.9s0-.1,0-.1-.2,0-.2,0,0,0,.2,0,.2.1.2.2,0,.1-.1,0Z"/>
    <g>
      <path class="cls-3" d="M56.1,30.6s0,0,.1.1,0,.3,0,.4-.3.4-.3.3-.2-.2-.3-.2,0-.2-.1-.2,0-.3,0-.3.1-.2.2-.1.4,0,.5,0,0,0,.1,0Z"/>
      <path class="cls-6" d="M55.8,30.9s.1.1.1.2,0,0,0,.1,0,0-.1,0-.1-.1-.2-.2,0-.2,0-.2h.2Z"/>
      <path class="cls-2" d="M56.2,30.8s0-.2-.2-.2-.1,0-.2,0-.1,0-.2,0-.2,0-.1.1,0,.2,0,.1,0-.1.1,0,0,.2.1.2,0,0,0,0c0,0,0-.2.1-.2s.3,0,.3,0Z"/>
    </g>
    <g>
      <path class="cls-9" d="M54.7,30.8s-.1,0-.2,0,0,0,0,0,.2,0,.2,0,0,0,0,0Z"/>
      <path class="cls-9" d="M54.9,31.2s-.1,0-.2,0,0,0,0,0,.2,0,.1,0,0,0,0,0Z"/>
      <path class="cls-9" d="M54.4,30.8s-.1,0-.2,0,0,0,0,0,.2,0,.1,0,0,0,0,0Z"/>
      <path class="cls-9" d="M54.5,31s-.1,0-.2,0,0,0,0,0,.2,0,.1,0,0,0,0,0Z"/>
      <path class="cls-9" d="M54.6,31.2s-.1,0-.2,0,0,0,0,0,.2,0,.1,0,0,0,0,0Z"/>
      <path class="cls-9" d="M54.8,31s-.1,0-.2,0,0,0,0,0,.2,0,.1,0,0,0,0,0Z"/>
      <path class="cls-9" d="M54.3,31.1s-.1,0-.2,0,0,0,0,0,.2,0,.1,0,0,0,0,0Z"/>
      <path class="cls-9" d="M54.3,31.5s-.1,0-.1,0,0,0,0,0,.2,0,.1,0,0,0,0,0Z"/>
      <path class="cls-9" d="M54.5,31.5s-.1,0-.1,0,0,0,0,0,.2,0,.1,0,0,0,0,0Z"/>
      <path class="cls-9" d="M54.7,31.5s-.1,0-.1,0,0,0,0,0,.2,0,.1,0,0,0,0,0Z"/>
      <path class="cls-9" d="M54.4,31.3s-.1,0-.2,0,0,0,0,0,.2,0,.1,0,0,0,0,0Z"/>
      <path class="cls-9" d="M55.1,30.7s0,0,0,0,0,0,0,0,.1,0,0,0,0,0,0,0Z"/>
      <path class="cls-9" d="M55.2,30.8s0,0,0,0,0,0,0,0,.1,0,0,0,0,0,0,0Z"/>
      <path class="cls-9" d="M55.1,31.4s0,0,0,0,0,0,0,0,.1,0,0,0,0,0,0,0Z"/>
      <path class="cls-9" d="M54.9,31.4s0,0,0,0,0,0,0,0,.1,0,0,0,0,0,0,0Z"/>
      <path class="cls-9" d="M55.3,30.9s0,0,0,0,0,0,0,0,.1,0,0,0,0,0,0,0Z"/>
      <path class="cls-9" d="M55.3,31.2s0,0,0,0,0,0,0,0,.1,0,0,0,0,0,0,0Z"/>
      <path class="cls-9" d="M55.1,31s0,0,0,0,0,0,0,0,.1,0,0,0,0,0,0,0Z"/>
      <path class="cls-9" d="M55.1,31.2s0,0,0,0,0,0,0,0,.1,0,0,0,0,0,0,0Z"/>
      <path class="cls-9" d="M54.9,30.7s0,0,0,0,0,0,0,0,.1,0,0,0,0,0,0,0Z"/>
      <path class="cls-9" d="M54.9,30.9s0,0,0,0,0,0,0,0,.1,0,0,0,0,0,0,0Z"/>
    </g>
    <path class="cls-10" d="M55.2,32.1s-1.1,0-1.1,0-.2,0-.3,0,0,0,0,0-.5,0-.5.1,1.1.1,1.1.1c0,0,.6,0,.7,0s.2-.2.2-.3Z"/>
    <path class="cls-1" d="M52,32.2s-.6-.2-1.1-.3-.7-.3-.7-.3l1.3.2s-1.1-.3-1.3-.3-.6-.1-.6-.1h1.5c0,0-1-.1-1.4-.1s-.9,0-.9,0c0,0,.4-.2.8-.2s.8,0,.8,0c0,0-1.4-.1-1.6,0s-1,.4-1,.4c0,0,.9-.6,1.2-.6s.7-.2.7-.2c0,0-1.1.2-1.4.3s-.4.2-.4.2c0,0,1-.6,1.1-.6s.4-.1.4-.1c0,0-1.4.4-1.4.5s.3-.3.5-.4.7-.3.7-.3l-.8.3.6-.5s-1.3.7-1.7,1.1-.8,1.3-.8,1.3c0,0,.9-1.7.9-1.9s.2-.3.2-.3c0,0-1.1,1.9-1.3,2.2s-.6,1.3-.6,1.3h0c0,0,.4-1.1.5-1.2s.4-.8.4-.8c0,0-.8,1.3-.9,1.6s-.6,1.1-.7,1.5-.7,2.3-.7,2.5,0,1.2,0,1.2l-.2-1s-.2,2.4-.2,2.6,0,.6,0,.6c0,0-.2-1.7-.2-2s-.2,1.9-.2,1.9v-3.1s-.5,1.5-.5,1.6.2-2.8.2-2.8c0,0-.4,1.8-.4,1.9v1.1s.3,1.7.3,1.7c0,0,0-2.2,0-1.5s.5,1.8.5,1.8v-.4c0,0,.2.4.6.5s.6,0,.6,0c0,0-.7-.4-.8-.7s.1-1.6.1-1.6c0,0,.6-2,.6-2.1s.1.5.1.5c0,0,.3-1.5.4-1.6s.3-.5.3-.5v.8c0,0,.2-1,.4-1.2s.4-.4.4-.4c0,0-.5,1.2-.5,1.3,0,0,.6-.9.8-1.3s.8-1,.8-1l-.3.9.9-1s-.5,1-.6,1.4c0,0,.5-.8.7-1.1s.5-.8.6-.8.5-.2.5-.2l-.7.6s.3-.1.5-.3.6-.4.8-.5.8-.2.8-.2l-1.1.6s.7-.5,1-.5,1.6-.2,1.6-.2Z"/>
    <path class="cls-1" d="M51,28s-.3-.3-.4-.3.1.2.1.2c0,0-.3-.2-.8-.2s-.8.3-.9.4.2,1,.3,1.1.6.4.6.4-.4-.2-.5-.4-.4-.9-.2-1.1.3-.3.8-.2.8.2.8.2h0Z"/>
    <path class="cls-11" d="M55.7,30.2s-.2,0-.6-.3-.8-.6-1-.7-1.2-.9-1.5-1.1-.8-.6-1-.6-.2,0-.3,0-.4-.4-.4-.4h.4c0,0,.3,0,.3,0s.6.3.6.3l1.7,1.2.9.7.9.8Z"/>
    <path class="cls-1" d="M43.1,30.3s-1.9,2.1-2.1,2.3.4-1.1.4-1.1c0,0-.6.7-1.1.8s.3-.8.3-.8l-3.3,1-2.2.7s2.5-.8,2.4-.4-2.4,1.6-2.4,1.6c0,0,2.2-1.1,2-.7s-1,1.2-1,1.2c0,0,2.7-1.9,2.5-1.6s-.8,1.4-.8,1.4c0,0,1-1.7,1.2-1.5s-.7,1.8-.7,1.8c0,0,1.9-2.6,1.6-2s-.5,1.7-.5,1.7c0,0,1-2.3,1-1.7s0,1.8,0,1.8c0,0,.5-2.5.5-2s-.1,1.1-.1,1.1l2.3-3.7Z"/>
    <path class="cls-1" d="M24.6,40.8s-.4,0-.2.2.7.6.8.7,1.3.3,1.4.3,1.2.3,1.2.3c0,0-1.5-.7-2.1-1s-1.1-.5-1.1-.5Z"/>
    <path class="cls-1" d="M25.7,38.6l-.2.8,1.2-2.4-.2,1.3,1.1-1.6-.3.7,1.4-1.8-.4,1.1s1-.8,1.1-1,.9-.9.9-.9l-.4.8,1.2-1-.4.8s1.4-1,1.5-1,2.2-1.2,2.2-1.2c0,0-2.7.9-2.9,1s1.8-1.4,1.8-1.4c0,0-1.9.3-2.3.7s-.5.3-.5.3l1.5-1.4s-1.3.7-1.4.8.8-1.3.8-1.3l-1.2,1.3.7-1.5-1.4,2.4v-1.1s-1.8,2.9-1.8,2.9l.2-1.1-1.4,1.9-1.5,1.6,1.1-1.9-2.4,2-.4.5,1.9-2.6-2.2,2,2.1-3.2-2.4,2.7.3-1.5-.7,1.1s0,1.5-.1,1.7,0,.8.1.9.2-1.5.2-1.5v.8c.1,0,1.2-1.5.7-.9s-.3,1.2-.3,1.2c0,0,2.3-2,1.7-1.4s-.6,1.4-.6,1.4c0,0,1.6-1.6,1.2-1.2s-.7,1.1-.7,1.1l1.1-1.1Z"/>
    <path class="cls-12" d="M48.1,41.7s0-.1,0-.2-.3-.3-.3-.3,0,.1,0,.2,0,0,.1.2.1.2.2.1Z"/>
    <path class="cls-12" d="M47.4,41.9s0-.2,0-.3-.3-.3-.3-.2.2.1.2.2,0,.2,0,.2,0,0,0,0Z"/>
    <path class="cls-12" d="M46.7,41.7s-.2-.3-.3-.3,0,0,0,.1.2.2.2.3,0,.2,0,.2,0-.1,0-.2Z"/>
    <path class="cls-12" d="M46.5,42.6s0-.2,0-.3-.3-.2-.3-.2,0,.2,0,.2.2,0,.2.1,0,.2,0,.1Z"/>
    <path class="cls-12" d="M45.8,42.8s0-.1,0-.2-.2-.3-.3-.2,0,.1,0,.2.2.1.2.2c0,0,0,.2,0,.1Z"/>
    <path class="cls-12" d="M45.2,42.8s0-.2,0-.3-.2-.3-.3-.2,0,.1,0,.1,0,0,.1.1,0,.2,0,.2,0,0,0,0Z"/>
    <path class="cls-12" d="M31.9,42.3s0-.2-.1-.3-.2-.2-.2-.2c0,0,0,.2,0,.2s.2,0,.2.1,0,.3.1.2Z"/>
    <path class="cls-12" d="M30.8,42.5s0-.2,0-.3-.2-.3-.2-.3c0,0,0,.1,0,.2s.1,0,.2.1,0,.3,0,.4,0,0,0,0Z"/>
    <path class="cls-12" d="M28.5,43.4s0-.2,0-.3-.2-.3-.2-.3v.2s0,0,.1.1.1.3.2.2Z"/>
    <path class="cls-12" d="M27.4,43.3s0-.2,0-.3-.1-.2-.1-.2v.2c0,0,0,.2,0,.2v.2h.2Z"/>
  </g>
</svg>