<?xml version="1.0" encoding="UTF-8"?>
<svg id="Who_is_at_risk" data-name="Who is at risk" xmlns="http://www.w3.org/2000/svg" viewBox="0 0 32 32">
  <defs>
    <style>
      .cls-1 {
        fill: #eeeded;
      }

      .cls-2 {
        fill: #eadfd8;
      }

      .cls-3 {
        fill: #edf4f1;
      }

      .cls-4 {
        fill: #fff;
      }

      .cls-5 {
        fill: #d3d0ce;
      }

      .cls-6 {
        fill: #d4e8e7;
      }

      .cls-7 {
        fill: #5c7a8c;
      }

      .cls-8 {
        fill: #83b7da;
      }

      .cls-9 {
        fill: #78a8c8;
      }
    </style>
  </defs>
  <g id="ic_Veterinarians_and_laboratory_personnel" data-name="ic_Veterinarians and laboratory personnel">
    <path class="cls-4" d="m1.17,21.79c-.42-1.47-1.17-4,2.37-5.65,4.31-2.28,6.83-2.99,6.83-2.99,0,0,1.86-.78,1.81-3.15s1.48-5.39,7.95-5.91,6.86,2.73,6.93,2.82.35,1.62,1.66,2.26,2.33,2.02,1.84,3.98-3.13,2.58-3.13,2.58c0,0,1.11,1.18,1.16,1.75s-.82,1.69-1.32,3.4-2.04,5.14-3.18,5.71-1.38,0-1.38,0c0,0-1.37,1.67-3.56,1.47s-2.21-2.35-3.04-3.2c-.12-.12-.97.31-1.81.44-1.52.22-1.85-1.19-2.79-1.23-.62,0-.91.72-1.32,1.07s-2.66,1.05-5.39.21-3.21-2.08-3.62-3.55Z"/>
    <g>
      <path class="cls-4" d="m19.46,16.62c-.06-.02-.11-.06-.14-.11-.03-.05-.09-.22-.07-.28s0-.21.06-.24c1.45-.79,3.09-.98,4.67-1.17.23-.12.52-.24.78-.35l.24-.1c.47-.19.95-.38,1.38-.64.55-.32.93-.71,1.15-1.14.17-.33.25-.71.22-1.08-.02-.21-.06-.36-.14-.45-.07-.09-.19-.17-.33-.21-.38-.06-.61-.02-.82.01-.02.03-.96.65-1.53,1.26-.76.8-1.16,1.34-1.29,2.03-.14.82-3.38,1.23-5.3,1.4-.07,0-1.15-.02-2.27-.34-1-.29-1.7-.73-2.08-1.3l-.85-4.38c-.01-.18-.17-3.68,6.32-4.45,1.5-.18,2.78-.12,3.82.18,1.68.49,2.69,1.57,3,3.22.06.24.12.55.19.9.04.21.08.44.13.65.47-.08.95-.06,1.4.07.37.11.69.28.97.51.79.67,1.06,1.87.6,2.72-.21.4-.56.75-1.08,1.05-.97.57-2.08.8-2.94.93-.45.07-.92.12-1.38.18-.67.29-1.22.6-1.69.93-.33.23-.48.42-.47.59,0,.06-.02.12-.06.17-.04.04-.1.07-.16.08-.05,0-.13-.01-.21-.03-.13-.04-.26-.1-.26-.18-.02-.57.43-.95.77-1.19.04-.03.08-.06.13-.09-.87.16-1.76.39-2.57.83-.06.03-.12.04-.18.02Zm8.91-5.57c.04.12.06.26.07.41.04.5-.06,1-.29,1.45-.28.55-.76,1.03-1.42,1.42-.04.02-.08.04-.11.07.51-.13,1.04-.32,1.51-.6.4-.24.67-.49.82-.78.31-.58.11-1.4-.44-1.86-.04-.04-.09-.07-.13-.1Z"/>
      <g>
        <path class="cls-5" d="m28.81,10.8c-.62-.52-1.52-.7-2.4-.48-.14-.59-.26-1.41-.34-1.66-.1-.32-.27-4.09-6.58-3.34-6.35.76-6.12,4.17-6.12,4.17l.82,4.29c.99,1.49,4.13,1.54,4.13,1.54,0,0,4.96-.44,5.09-1.21.13-.77.58-1.34,1.35-2.15.56-.6,1.44-1.19,1.67-1.33.24-.04.48-.07.72-.04.28.03.52.15.66.33.11.14.17.33.19.58.03.42-.05.83-.24,1.21-.24.47-.66.89-1.24,1.23-.44.26-.93.46-1.41.66l-.25.1c-.26.11-.54.23-.84.36-1.57.18-3.18.38-4.58,1.14l.11.2c1.17-.64,2.51-.87,3.84-1.04-.38.2-.78.43-1.15.69-.3.21-.69.53-.67.99h.23c-.01-.27.17-.52.57-.8.56-.39,1.15-.7,1.71-.96,0,0,0,0,0,0,.48-.06.97-.11,1.45-.19.84-.13,1.92-.35,2.85-.9.48-.28.8-.6.99-.96.4-.76.16-1.83-.55-2.43Zm.35,2.33c-.17.32-.47.61-.91.87-.89.53-1.95.74-2.77.87-.23.03-.46.07-.69.09.04-.02.09-.04.13-.06l.24-.1c.48-.2.98-.4,1.44-.67.62-.37,1.07-.82,1.33-1.33.21-.41.3-.87.27-1.33-.02-.3-.1-.53-.23-.7-.08-.11-.19-.19-.32-.26.37.08.72.23,1,.47.63.53.85,1.48.49,2.15Z"/>
        <path class="cls-2" d="m23.91,6.7c.14-.99-2.46-1.16-5.22-.82-2.62.33-4.79,1.62-4.56,2.68.2.91,2.59,1.23,5.22.82,2.65-.41,4.38-1.45,4.56-2.68Z"/>
      </g>
    </g>
    <g>
      <path class="cls-4" d="m27.65,17.5c-.3.4-1.28,1.94-1.86,4.01-.69,2.17-2.02,3.69-2.08,3.75-.24.28-.57.32-.88.12-.12-.08-.21-.18-.27-.28-.05-.1-.08-.23-.05-.38-.7,1.36-1.41,2.07-1.45,2.1,0,.01-.28.41-.69.48-.21.03-.41-.02-.6-.16-.03-.02-.14-.15-.15-.18-.06-.12-.08-.27-.06-.43-.17.29-.19.33-.22.35-.15.16-.53.32-.94.08-.11-.07-.2-.16-.26-.27-.16-.31-.02-.66.08-.85,0,0,0-.02.01-.03-.33.35-.69.24-.84.13h0s-.18-.08-.29-.31c-.09-.17-.12-.38-.09-.62.04-.29.34-.87.63-1.37-.34.25-.59.19-.77.08-.93.31-1.89.59-2.09.62-.45.08-1,.16-1.21-.26-.1-.35-.08-.66.26-.91-.68.13-1.3.21-1.57.15-.43-.09-.63-.31-.72-.49-.01-.03-.08-.23-.08-.25-.05-.13-.04-.55.48-.75h0c-.59.07-.93-.07-1.08-.36-.17-.73.18-1.02.33-1.09.04-.02.09-.03.51-.11-.27-.04-.47-.14-.57-.34-.11-.31-.09-.53.01-.72.21-.39.7-.53.75-.54.02-.01,1.03-.5,2.74-.72-.39.03-.57-.21-.64-.35-.17-.57-.01-.88.35-1.02.08-.03,2.07-.83,4.47-.78,1.93.11,3.41-.18,3.82-.28.27-.53.49-.98.49-.98.04-.08.12-.12.2-.12,1.76.02,3.88,2.18,4.23,2.86,0,0,.07.18.07.21Zm-4.88,6.76c.66-.82.72-1.43.72-1.63-.06.1-.18.31-.37.71-.13.36-.28.69-.42,1,.02-.03.05-.06.07-.09Zm-8.04-6.31c.42-.05.88-.09,1.37-.1.83-.08.98-.2.99-.21-.11.08-.76-.26-2.07.22-.11.05-.21.08-.3.09Zm.05,1.73c-.08,0-.19.03-.35.08l-.16.05c.16-.03.48-.11.51-.12Z"/>
      <path class="cls-4" d="m14.45,16.81c-.26.11-.35.31-.29.56s.26.51.78.29c1.44-.52,2.15-.11,2.15-.11,0,0,.83.37-1,.54-2.54.05-4.12.82-4.12.82,0,0-.86.23-.65.89.22.67,2.24-.03,3.02-.25.78-.23.8.11.8.11,0,0,.11.14-.48.29-.59.15-3.3.62-3.38.66-.08.04-.35.24-.27.65.08.4.51.42.78.38.12-.02.76-.03,1.44-.16.93-.17,1.94-.47,1.94-.47,0,0,.45-.02.33.21s-.78.31-.78.31c0,0-2.27.35-2.72.54-.45.18-.34.53-.34.53,0,0,.03.42.62.54s3.38-.54,3.85-.76.37-.1.37-.1c0,0,.12.13-.06.22-.44.23-2.07.67-2.19.72s-.63.24-.53.69.69.29,1.02.24c.16-.02,1.06-.28,2.17-.67.02.03.03.06.06.08.37.23.7-.17.78-.26.01-.01.07-.1.13-.17.15-.06.3-.12.45-.17-.5.79-1.06,1.77-1.11,2.12-.08.56.29.72.29.72,0,0,.27.21.58-.14.3-.35,1.32-2.26,1.32-2.26,0,0,.27-.57.51-.6.24-.03.08.36.08.36,0,0-.58.81-1.02,1.59-.32.57-.53,1.14-.58,1.24-.13.23-.24.62.09.81.33.19.6.02.66-.04.06-.06,1.32-2.33,1.63-2.81.32-.48.41-.33.41-.33,0,0,.29.12-.15.75-.45.63-1.69,2.22-1.16,2.62.53.4.99-.3.99-.3,0,0,1.18-1.17,2.01-3.42.72-1.57.79-.72.79-.72,0,0,.14.76-.77,1.88-.36.4-.2.65.01.79.21.14.42.12.59-.08.17-.2,1.39-1.65,2.03-3.67.59-2.06,1.56-3.66,1.86-3.93-.04-.41-2.28-2.85-4.08-2.86,0,0-.23.46-.64,1.1-.84.19-2.27.37-3.87.28-2.24-.06-4.12.65-4.38.76Z"/>
      <g>
        <path class="cls-9" d="m23.35,14.66s-.97,1.95-2.54,3.43-3.56,4.2-3.7,4.48-.47.75-.1.98.7-.17.78-.26.98-1.4,1.32-1.73c.13-.14.21.01.21.01,0,0,.14-.05-.2.3s-1.79,2.63-1.86,3.19.29.72.29.72c0,0,.27.21.58-.14s1.32-2.26,1.32-2.26c0,0,.27-.57.51-.6s.08.36.08.36c0,0-.58.81-1.02,1.59-.32.57-.53,1.14-.58,1.24-.13.23-.24.62.09.81s.6.02.66-.04,1.32-2.33,1.63-2.81.41-.33.41-.33c0,0,.29.12-.15.75s-1.69,2.22-1.16,2.62.99-.3.99-.3c0,0,1.18-1.17,2.01-3.42.72-1.57.79-.72.79-.72,0,0,.14.76-.77,1.88-.36.4-.2.65.01.79s.42.12.59-.08,1.39-1.65,2.03-3.67c.59-2.06,1.56-3.66,1.86-3.93-.04-.41-2.28-2.85-4.08-2.86Z"/>
        <path class="cls-7" d="m23.44,14.8s.98.15,2.02.88,1.81,1.8,1.81,1.8c0,0-1.02-.14-2.2-.96-1.19-.82-1.62-1.71-1.62-1.71Z"/>
      </g>
      <g>
        <path class="cls-8" d="m24.87,20.63s-2.29.29-4.32,1.35-5.44,2.11-5.77,2.15-.92.21-1.02-.24.41-.64.53-.69,1.75-.49,2.19-.72c.19-.08.06-.22.06-.22,0,0,.1-.13-.37.1s-3.26.88-3.85.76-.62-.54-.62-.54c0,0-.11-.35.34-.53s2.72-.54,2.72-.54c0,0,.66-.08.78-.31s-.33-.21-.33-.21c0,0-1.02.3-1.94.47-.68.13-1.33.14-1.44.16-.28.04-.7.03-.78-.38s.19-.61.27-.65,2.79-.51,3.38-.66.48-.29.48-.29c0,0-.02-.34-.8-.11s-2.81.92-3.03.25.65-.89.65-.89c0,0,1.58-.77,4.12-.82,1.83-.18,1-.54,1-.54,0,0-.72-.41-2.15.11-.53.22-.72-.03-.78-.29s.02-.46.29-.56,2.14-.81,4.38-.76c2.27.13,4.22-.29,4.58-.5.4.18,2.06,3.28,1.45,5.08Z"/>
        <path class="cls-9" d="m24.76,20.49s.19-1.04-.18-2.32c-.36-1.29-1.18-2.44-1.18-2.44,0,0-.21,1.07.2,2.54s1.16,2.22,1.16,2.22Z"/>
      </g>
    </g>
    <g>
      <path class="cls-4" d="m17.9,20.72c-.35.3-.71.52-1.09.67-1.02.34-1.75-.13-2.14-.39-.46-.31-.95-.61-1.43-.88-.46-.25-.81-.44-1.22-.46-.22-.01-.32.05-.39.1-.4.6-.58,1.04-.7,1.48-.06.22-.1.44-.14.67-.04.26-.08.51-.15.77-.11.43-.29.79-.53,1.08-.09.1-.19.2-.3.29-.26.22-.57.39-.91.5-.62.21-1.35.26-2.11.14-.73-.11-1.58-.26-2.32-.57-.58-.25-1.04-.79-1.33-1.57-.35.03-.57-.15-.64-.41l-.43-1.81c-.05-.23.02-.47.21-.63.01-.01.05-.03.1-.06,0-.08,0-.16,0-.24.05-.56.38-.94.63-1.17l.21-.19c.18-.15.36-.28.54-.41.71-.52,1.47-.93,2.11-1.28,1.64-.88,3.42-1.66,5.29-2.31,1.47-.51,2.91-.93,4.29-1.24.47-.11.84-.19,1.23-.22.63-.03,1.12.05,1.46.24.15.08.25.19.33.29.24-.02.48.1.6.32l.88,1.64c.11.19.09.42-.03.61.11.23.22.47.29.72.08.25.21.67.04,1.08-.37.87-.94,1.62-1.45,2.23-.28.34-.59.69-.96.99Z"/>
      <g>
        <g>
          <path class="cls-6" d="m3.1,19.48c0,.09,0,.18.02.28.14.72.37,1.44.54,2.16.15.64.48,1.3,1.1,1.57.66.28,1.45.42,2.15.53.59.09,1.21.08,1.78-.11.34-.11.66-.31.89-.58.19-.23.32-.52.39-.81.13-.48.16-.97.29-1.45.14-.51.36-1,.63-1.46.27-.45.66-.66,1.18-.63.57.03,1.03.28,1.52.55.49.27.98.59,1.46.9.37.24.86.55,1.32.4.8-.26,1.42-.89,1.94-1.53s1.02-1.3,1.34-2.06c.08-.18,0-.42-.06-.6-.1-.31-.23-.6-.38-.89-.3-.61-.64-1.21-1.01-1.77-.11-.17-.2-.41-.38-.52-.28-.16-.75-.17-1.07-.15-.38.02-.75.12-1.12.2-1.43.32-2.83.74-4.21,1.22-1.78.62-3.53,1.37-5.19,2.27-.69.37-1.37.75-2,1.2-.25.18-.49.35-.71.56-.23.22-.39.44-.42.73Z"/>
          <path class="cls-1" d="m16.72,21.15c-.07.03-.14.05-.21.08-.68.22-1.32-.2-1.7-.45-.46-.3-.95-.61-1.43-.88-.49-.27-.87-.47-1.33-.5-.36-.02-.59.1-.77.41-.26.44-.45.9-.58,1.36-.06.22-.1.46-.14.7-.04.24-.08.49-.15.74-.1.39-.27.72-.48.98-.27.32-.64.57-1.09.72-.58.2-1.27.24-1.99.13-.72-.11-1.54-.25-2.25-.56-.66-.28-1.15-.95-1.36-1.88-.07-.29-.15-.59-.23-.88-.11-.42-.23-.85-.31-1.29-.03-.14-.03-.27-.02-.4h0c.04-.46.32-.78.55-1.01.23-.22.48-.4.72-.58l.04-.03c.67-.48,1.41-.89,2.05-1.23,1.63-.88,3.39-1.65,5.25-2.29,1.46-.51,2.89-.93,4.26-1.24l.12-.03c.34-.08.7-.16,1.07-.18.39-.02.94,0,1.32.21.24.14.37.37.46.54.02.04.05.08.07.12.36.56.71,1.17,1.03,1.82.15.29.3.61.4.95.07.24.18.58.04.9-.36.84-.91,1.57-1.41,2.17-.5.6-1.12,1.26-1.94,1.59Zm-5.4-2.52c.23-.09.49-.13.78-.12.7.04,1.24.34,1.72.61.51.28,1.01.61,1.48.92.28.18.67.44.94.35.71-.23,1.28-.83,1.74-1.39.48-.58.96-1.21,1.27-1.95,0-.04-.04-.2-.07-.28-.09-.3-.22-.58-.35-.84-.31-.62-.64-1.2-.98-1.73-.03-.05-.07-.11-.1-.17-.04-.07-.1-.17-.13-.2-.1-.06-.38-.12-.82-.09-.3.02-.61.09-.93.16l-.12.03c-1.34.3-2.74.71-4.17,1.21-1.81.63-3.54,1.38-5.12,2.24-.64.35-1.33.72-1.95,1.17l-.04.03c-.23.16-.44.32-.63.5-.19.18-.27.31-.28.45,0,.05,0,.09,0,.15.08.41.19.82.3,1.23.08.3.16.61.23.91.09.37.31,1.03.85,1.26.62.26,1.38.39,2.04.5.57.09,1.12.05,1.57-.1.29-.1.53-.25.69-.44.13-.16.24-.38.31-.64.06-.21.09-.43.13-.66.04-.26.09-.53.16-.8.15-.54.38-1.07.67-1.57.21-.35.48-.6.81-.73Z"/>
        </g>
        <rect class="cls-6" x="2.55" y="19.79" width=".73" height="2.6" rx=".14" ry=".14" transform="translate(-4.83 1.26) rotate(-13.45)"/>
        <rect class="cls-6" x="18.64" y="13.26" width=".73" height="2.6" rx=".14" ry=".14" transform="translate(42.65 18.33) rotate(151.64)"/>
        <path class="cls-3" d="m5.9,22.42s-.05.01-.07,0c-.06-.02-.09-.08-.08-.14l1.15-4.01c.02-.06.08-.09.14-.08.06.02.09.08.08.14l-1.15,4.01s-.03.06-.07.07Z"/>
        <path class="cls-3" d="m7.5,21.47s-.05.01-.07,0c-.06-.02-.09-.08-.08-.14l1.15-4.01c.02-.06.08-.09.14-.08.06.02.09.08.08.14l-1.15,4.01s-.03.06-.07.07Z"/>
        <path class="cls-3" d="m18.08,17.12s-.06.01-.09,0l-3.7-1.93c-.05-.03-.08-.1-.05-.15.03-.05.1-.08.15-.05l3.7,1.93c.05.03.08.1.05.15-.01.02-.03.04-.06.05Z"/>
        <path class="cls-3" d="m16.17,17.64s-.06.01-.09,0l-3.7-1.93c-.05-.03-.08-.1-.05-.15s.1-.08.15-.05l3.7,1.93c.05.03.08.1.05.15-.01.02-.03.04-.06.05Z"/>
      </g>
    </g>
  </g>
</svg>