<?xml version="1.0" encoding="UTF-8"?>
<svg id="Livello_1" data-name="Livello 1" xmlns="http://www.w3.org/2000/svg" version="1.1" viewBox="0 0 56.7 39">
  <defs>
    <style>
      .cls-1 {
        fill: #fff;
        stroke: #fff;
        stroke-linecap: round;
        stroke-linejoin: round;
        stroke-width: 2px;
      }

      .cls-2 {
        fill: #8a7b5d;
      }

      .cls-2, .cls-3, .cls-4, .cls-5, .cls-6, .cls-7, .cls-8, .cls-9, .cls-10, .cls-11, .cls-12 {
        stroke-width: 0px;
      }

      .cls-3 {
        fill: #beb093;
      }

      .cls-4 {
        fill: #d8cbad;
      }

      .cls-5 {
        fill: #fffdfd;
      }

      .cls-6 {
        fill: #d9797b;
      }

      .cls-7 {
        fill: #9b896b;
      }

      .cls-8 {
        fill: #cfb167;
      }

      .cls-9 {
        fill: #636363;
      }

      .cls-10 {
        fill: #ad9779;
      }

      .cls-11 {
        fill: #8c7c5e;
      }

      .cls-12 {
        fill: #cbbea0;
      }
    </style>
  </defs>
  <g>
    <path class="cls-1" d="M55.6,32c-.1-1.9-.7-2.6-1.7-3.5s-3-1.3-3-1.3l.2-.6c.2-.6.2-1.3-.3-3.2s-.3-1-.5-1.5c0,0,0,0,0,0,0,0,0,0,0,0-.8-1.8-1.9-3.9-2.3-4.8-.3-.7-2.2-4.1-3.9-7,0,0,0,0,0,0,0,0-2-3.4-2.6-3.9-.5-.4-1.2-.9-2-1.4-1.2-.7-2.6-1.4-3.3-1.7-1.3-.5-2.7-.9-2.7-.9h0c-.5-.2-.8-.3-1-.3-1.1-.3-2.5.5-3.2.8-.7.3-7.4,3.8-8.2,4.1s-1.1.3-2,.5c-.7.1-1.5.6-2.3,1.1,0,0,0,0,0,0,0,0-.2.1-.4.3-.2.1-.4.2-.6.3-.2.1-.4.3-.5.4,0,0,0,0,0,0,0,0,0,0,0,.1,0,0-.1.1-.2.2-.4.6-.7,1.4-.8,1.6,0,0,0,0,0,0,0,0,0,.2,0,.2h0s0,.2,0,.2c0,0,0,0,0,.1h0s0,0,0,0c0,0,0,.2,0,.2,0,.1,0,.2-.1.3,0,.1-.2.3-.3.5,0,0,0,.1-.1.2-.2.2-.6.6-.6.6-.7.6-2.5,1.8-2.5,1.8h0c-.6.2-.9.5-.9.5,0,0-.1.5.3.8.1,0,.2.2.3.3,0,.1,0,.7.1.9,0,.3.3.4.6.6.3.2,1.2,0,1.5,0,.3,0,.7.2,1.2.3.5,0,1.1-.4,1.1-.4,0,0-.4.7-.6,1.2s-.5,1.7-.5,1.7c0,0-.1.6-.1.9,0,.1.1.3.3.5,0,.3,0,.7,0,.8.1.1,0,0,.1-.1,0-.2,0-.4,0-.5.1,0,.2,0,.3,0,.3-.1.5-.8.5-1,0-.1.2-.4.4-.6h.4c.2,0,.5-.1.6-.3s.9-.7,1.3-.9c.4-.3,1.2-1,1.5-1.4.4-.4,2.7-2,2.7-2,0,0,1.9-.5,2.2-.6.2,0,.7-.2,1.1-.4.4.2.8.3,1.1.4l.3.8.5,1s.9,2.4.9,2.7c0,.3-1.3,3.3-1.3,3.3l-2.3,4.5s-.9,2-1.1,2.1c-.2,0-1.7.8-2,.9-.3.1-.7.7-.4.8s1.4,0,1.6,0c.1,0,.5.2.7.2s1,.1,1.2,0c.2-.1.3,0,.4-.2s.7-1.9.8-1.7c.2.2.1.3.3,0,.2-.3.3-.8.4-1.1.1-.2,1.8-3.3,2.4-4.5.4-.6,1.4-2.1,1.5-2.3.2-.3.6-.7.9-1,.2-.3.4-.4.4-.4h0c0,0,.2-.2.3-.3.1-.2.1-.6.1-1s.2-1.4.2-1.4c0,0,.4.5.7.6.2.2.8.4.9.5s.2.2.2.2c-.1.2-.1.4-.1.4h0s-1,1.5-1,1.5c0,0-2.3,3.7-2.6,4.3s-.5,2.1-.6,2.7,0,3.1,0,3.3,0,0,0,.1c0,0,0,0,0-.1,0,0,0-.2,0-.2v-1.2s-.2.2-.2.3c0,0-.5.7-.5.7-.2.3.1.3.3.2.1,0,.2-.1.2.1s0,.3,0,.3h.3s0,0,0,0c.1.2.4.5.5.7.2.3.4.5.6.6.1,0,.2-.2.2-.2,0,0,.2.3.3.4s.3,0,.4-.1.1-.5.1-.5c0,0,.2,0,.4,0,.1,0,.2-.7.2-1.2,0,0,0,0,0,0,0,0,.4-.4,1.4-.6,1-.3,2.7-.7,3.4-.9.7-.1,2.3-.5,2.5-.5.1,0,.6,0,1-.1,0,0,0,0,0,0,0,0,.1.2.3.4,0,0,.2.2.3.3,0,0,0,0,0,0,.1.1.2.2.3.3,0,0-1.5.6-2.1.8-.6.2-2.9,1-3.3,1.3s-1,1.3-1.1,1.5c0,.2.5.1.5.1,0,0,0,.3,0,.4s.6,0,.6,0c0,0-.1.3,0,.3s1.1-.2,1.3-.3.9-.3,1.1-.5,1.3-.6,2.1-.8,4.6-1.1,6.1-1.3c.9-.1,2.1-.2,2.9-.5.5-.1.9-.4,1.1-.5.3-.3-.2-1.5-.2-1.6s0-.2,0-.2c0,0,1.6,0,2.6.7,0,0,0,0,0,0,0,0,.2.2.3.2,0,0,.1.1.2.2.9,1,1.2,2.8.1,4-1.3,1.5-3.9,1.8-4.6,1.9s-3.2.4-3.1.7c0,0,5.2.1,7.5-.9,2.4-1.1,3-2.3,2.9-4.2ZM23.1,14.9c0,0,.2,0,.2,0l-.5.2s0,0,0,0l.2-.2ZM34,18.6c0,0,0,.1,0,.2,0,0,0-.2,0-.2,0,0,0,0,0,0ZM33.3,17c0,0-1.2-1-1.9-1.7h0c.7.6,1.7,1.4,1.9,1.7ZM14.9,20.9s0,0,0,0h0s0,0,0,0ZM33.6,19.5s0,0,0,0c0,.1-.2.2-.2.3l.2-.2ZM32.8,26.5c.1-.2.3-.5.4-.7l.3.5h0c0,.2.2.4.3.5.2.4,1,1.1,1,1.1l-1.3.5-2,.7h-.1s0,0,0,0c0,0,0-.2,0-.2,0-.2.3-.6.3-.6,0,0-.3.4,1.2-1.7ZM31.6,30s0,0,0,0c0,0,0,.2,0,.4,0-.1,0-.3,0-.4Z"/>
    <path class="cls-1" d="M13.3,27.2c0-.2-.3.1-.3.1,0,0,.5.8.6.9,0,0,.2-.3.2-.6s0-.7-.2-.8,0,.3,0,.4c0,0-.2.2-.3,0Z"/>
    <path class="cls-1" d="M22.8,33s-3.2,0-3.8,0,.8-.5.9-.8c0-.3-1.5-.3-1.5-.3,0,0-.4,0-.2-.2.2-.1-.5-.3-.7-.3s-1.4,0-1.9.1-2.7,0-3.7,0-1.6.3-1.6.3c-.3,0,.7.5.6.5,0,0-3.1-.3-3.9,0s0,.6,0,.6c0,0-1.2.2-1.7.1s-1.9,0-2,.3,1.1.5,1.1.5c0,0-2.3.3-3.3.8s1.6,1.4,1.8,1.4,4.2-.1,4.4,0-.9.3-1.4.4,0,.2.4.6,1.7.3,2,.3c0,0,2.7-.2,3.3-.1s2.6-.1,2.8-.3-.7-.4-.8-.5.6-.2,1.1-.2c.5,0,1.3,0,4.3.4s4-.3,4.3-.5-.3-.3-.6-.5-2.6-.4-3.2-.4-.8-.2-.7-.3,4.2-.3,4.2-.3c0,0,2.6,0,2.4-.7s-2.9-.6-2.9-.6Z"/>
  </g>
  <g>
    <path class="cls-12" d="M31.5,29l2-.7,1.3-.5s-.8-.7-1-1.1-.4-1-.4-1l.8-.5h1.9l2.1,1.6.5.9-.6,1.1-3.1,1.2-3,.8h-.3s-.4-1.2-.3-1.7Z"/>
    <path class="cls-3" d="M33.6,26.2s.7-.8,1.2-.8,1.7.4,2.1.7,1.3,1,1.3,1.3-.3.9-1,1.3-2.5,1.1-2.7,1.1-2.8.6-2.8.6v1.2c0,0,.4-.4,1.5-.6s2.7-.7,3.4-.9,2.3-.5,2.5-.5,1.5-.2,1.5-.2l-.5-2.5-2.4-3.2-1.7-1.9-2,1.3-.7,2.4.5.8Z"/>
    <path class="cls-4" d="M9.9,15.5s2.3-1.6,2.7-2,.8-.8,1-1.3.7-2.6,1.9-3.3,2.4-1.5,3.3-1.7,1.2-.2,2-.5,7.5-3.8,8.2-4.1,2.2-1.1,3.2-.8,7.2,2.5,9.1,4.3,5.9,9.7,6.4,10.9,2.4,4.5,2.9,6.4.5,2.6.3,3.2l-.2.6s2.1.4,3,1.3,1.6,1.6,1.7,3.5-.5,3.1-2.9,4.2-7.5.9-7.5.9c0-.2,2.4-.5,3.1-.7s3.3-.5,4.6-1.9.6-3.6-.6-4.5-2.6-.7-2.6-.7c0,0,0,0,0,.2s.5,1.3.2,1.6-.6.4-1.1.5c-.9.2-2,.4-2.9.5-1.5.2-5.2,1.1-6.1,1.3s-1.9.7-2.1.8-.9.4-1.1.5-1.1.3-1.3.3,0-.3,0-.3c0,0-.5.2-.6,0s0-.4,0-.4c0,0-.6,0-.5-.1s.7-1.2,1.1-1.5,2.7-1.1,3.3-1.3,2.1-.8,2.1-.8c0,0-.4-.3-.7-.5s-.3-.5-.3-.5c0,0-.8-1.7-.8-2.1s-.8-1-.9-1.4-1.2-2.1-1.5-2.4-1-1-1-1c0,0-.6.4-1.6,1.7s-.9,1.6-1.3,2.2c-1.5,2.1-1.2,1.7-1.2,1.7,0,0-.3.4-.3.6s.4,1.7.4,2.3,0,1.5-.2,1.6-.4,0-.4,0c0,0,0,.3-.1.5s-.3.2-.4.1-.3-.4-.3-.4c0,0,0,.3-.2.2s-.4-.3-.6-.6-.6-.7-.6-.9-.1-2.7,0-3.3.2-2,.6-2.7,2.6-4.3,2.6-4.3l1.1-1.7s.8-.8.8-1.2-.2-1.1-.7-1.6-2.9-2.7-2.9-2.7c0,0-1.1-.8-1.4-.9s-.8.2-1.5-.4-1.1-1.5-1.3-2.1-1.2-1.6-1.2-1.6l-1.7,5.2-2.2,1.9s-2.3,1.7-2.7,2-1.2,1.1-1.5,1.4-1.1.8-1.3.9-.4.3-.6.3h-.4l.6-.7-1.2-2.1s-.6.5-1.1.4-.9-.2-1.2-.3-1.2.2-1.5,0-.5-.3-.6-.6-.1-1-.1-1l.3-1.6Z"/>
    <path class="cls-11" d="M10.3,17.7s.3.4.3.5,0,.1-.2,0-.3-.5-.3-.5h.2Z"/>
    <path class="cls-9" d="M9,16s.4-.5,1.2-.5,1.9.1,2,.3-.1.8-.2.9-.3.3-.5.3-.5-.1-.6,0,0,.6-.2.7-.7.1-.8,0-.2-.2-.2-.3-.1-.5-.5-.8-.3-.8-.3-.8Z"/>
    <path class="cls-6" d="M13.1,21.2s.3-1.2.5-1.7.6-1.2.6-1.2c0,0,1.3-.7,2-1.1s1.3-.9,1.3-.9l.5-.5s.6.1.8.2.5.3.5.5-.1.6-.1.6c0,0-1,.7-1.7,1.2s-1.5,1.4-1.5,1.4c0,0-.8.9-1,1.1s-.5.7-.5.9-.2.9-.5,1-.8-.4-.9-.7.1-.9.1-.9Z"/>
    <path class="cls-8" d="M13,21.7s.2-.6.3-.5,0,.3,0,.3.2-.5.3-.4,0,1.4,0,1.5,0,.2,0,.2,0,.3-.1.5,0,.3-.1.1,0-1,0-1.1-.2-.2-.2-.3,0-.3,0-.3Z"/>
    <path class="cls-5" d="M15.3,20.4s0-1.2,0-1.2.2.2.2.3.3.6.2.7-.4.3-.5.1Z"/>
    <path class="cls-2" d="M17.5,15.7s0,0,.8,0,1,.5,1.1.6,0,.5,0,.6-.1.3-.2.3,0-.1,0-.2,0-.4,0-.6-.4-.4-.8-.5-.7-.1-.7-.1c0,0-.2,0,0-.1Z"/>
    <path class="cls-12" d="M21.3,15.8v.7c-.1,0,1.8-.5,2.1-.6s1.1-.4,1.4-.4,2.8-.5,3-.4,3.4,3.3,3.4,3.3h.3c0,0,.4.4.7.6s.8.4.9.5.2.2.2.2c0,0,.8-.4.7-.7s0-1.2-.3-1.4-2.2-2-2.2-2l-.6-1.3-3-2.1-1.3-2.6-2.2-.7v4.8c.1,0-3.1,2.2-3.1,2.2Z"/>
    <path class="cls-4" d="M26.2,16.3l.2,1.5s.9,2.4.9,2.7-1.3,3.3-1.3,3.3l-2.3,4.5s-.9,2-1.1,2.1-1.7.8-2,.9-.7.7-.4.8,1.4,0,1.6,0,.5.2.7.2,1,.1,1.2,0,.3,0,.4-.2.7-1.9.8-1.7.1.3.3,0,.3-.8.4-1.1,2.7-5.1,2.7-5.1l.9-4.2-3.1-3.7Z"/>
    <path class="cls-12" d="M26.4,16.4l-.5.4.5,1s1,.4,1.5,1.5.5,2.5.4,2.9-.4,2.9-.4,2.9c0,0,1.5-2.3,1.6-2.6s.6-.7.9-1,.4-.4.4-.4l-.4-2.8-1.7-1.7-2.4-.2Z"/>
    <path class="cls-3" d="M26.4,15.2s.8-.3,1.3-.3,1.4,1.1,2,1.7,1.8,1.8,1.8,1.8c0,0-.2.9-.2,1.4s0,.9-.1,1-.4.4-.4.4c0,0-.2-1.1-.7-2.1s-1.7-1.9-2.2-2-1.9-.3-1.9-.3l-.5-1.4h1Z"/>
    <path class="cls-10" d="M17.7,15.2s.9-.5,1.7-.2,1.8,1.5,1.8,1.5c0,0,1.2-.9,1.4-1.1s.3-.5.5-.6.4,0,.7.3,1.2.7,1.8.7.8,0,.9-.2.5-.6-.3-2.7-.9-2.7-1-3.1-.6-1.8-1.1-2-2.8-.7-4.5.1-3.1,1.4-3,2.4,0,1.6-.3,1.8-1.6,1-1.6,1c0,0-.4.3-.3.5s.3.6,1.1.6,1.4.1,1.7.3.6.5.6.5Z"/>
    <path class="cls-2" d="M17.5,13.5s.2.2.7.2.8-.4.8-.3-.3.3-.4.4-.6.1-.7.1-.7-.5-.3-.4Z"/>
    <path class="cls-2" d="M17.2,11.3s0-.4.3-.3.2.3.5.6.9.5.9.5.9-.1.9,0-.6.2-.8.3-.9-.2-1.1-.3-.8-.6-.8-.7Z"/>
    <path class="cls-10" d="M12.3,13.6s.3.3.7.1.8-.6,1.1-.8.5-.4.6-.6.3-.7.3-1.1.2-1.4.4-1.8.6-.9.7-1,.4-.4.4-.4c0,0-1.3.7-1.6,1.1-.6.7-1,1.7-1.1,2s-.3.9-.3,1-.3.5-.5.7-.6.6-.6.6Z"/>
    <path class="cls-2" d="M13.7,11.6s.5-.2.6-.3.5-.3.5-.2,0,.4-.1.4-.6.1-.7.2-.4.2-.4.2v-.3Z"/>
    <path class="cls-2" d="M13.3,12.7s0,.2.2.2.6,0,.6,0c0,0-.1.2-.3.2s-.5,0-.6,0-.1-.2-.1-.2l.2-.2Z"/>
    <path class="cls-2" d="M23.5,14.9s-.6-1.2-.8-2.2-.5-2.6-.5-2.4,0,2.5.1,2.8.2,1,.5,1.4.6.5.6.5Z"/>
    <path class="cls-7" d="M30.5,14.5s0-.1.4.2,2.4,2.2,2.5,2.3.5.6.7,1,0,.6,0,.9-.4.6-.4.6l-.4.5s0-.1.1-.4.5-.6.5-.9,0-.9-.3-1.1-1.6-1.5-1.7-1.6-1.4-1.3-1.3-1.5Z"/>
    <path class="cls-10" d="M33.4,2s.4.5.2,1-.7,1.9-.7,2.5.5,1.5,1,1.7,2.6,1,2.8,1.2,2.2,1.1,2.6,2,1.3,3.6,1.5,3.9,1,1,1.6,1.4,1.6.5,1.8,1.1,1,1.9,1.8,2.8,2.2,1.7,2.6,1.8,1.4.3,1.4.3c0,0-1.4-2.9-2.1-4.3s-4.1-7.6-4.1-7.6c0,0-2-3.4-2.6-3.9-.9-.8-4.1-2.6-5.4-3.1s-2.7-.9-2.7-.9Z"/>
    <path class="cls-12" d="M37.5,13.2s1.2,2.4,1.5,2.9,1.1,1.2,1.5,1.3.9,0,1.1,0,.7-.3.7-.3c0,0-.3,1.4-.3,1.5s0,1,0,1c0,0-.8.3-1.1.6s-1.3,2.9-1.3,2.9l-.6,2.5v1.4c.1,0-1.8-3.5-1.8-3.5l-1.4-1.1,1.6-2s1-1.2,1.1-1.6-.2-1.9-.2-2.1-.7-3.7-.7-3.7Z"/>
    <path class="cls-7" d="M37.3,12.1s0,1.5.2,2.3.7,2.7.8,3.1,0,1.3,0,1.4-.3.8-.1.8.4-.5.4-.8-.1-1.4-.2-1.5-.6-2.3-.6-2.6-.4-1.6-.4-1.8-.2-.9-.2-.9Z"/>
    <path class="cls-7" d="M37.9,19.2v.7c0,.1-.1.7,0,.5s.1-.5.2-.6-.1-.9-.2-.6Z"/>
    <path class="cls-7" d="M40.3,21s.6-1.1.9-1.3,1.1-.5,1-.4-1,.5-1.2.9-1.2,2.2-1.5,3.1-.4,2.4-.4,2.8,0,1.3.2,1.8.6,1.6.9,1.9.8.8,1.3.9,2,0,2.7-.1,2.2-.5,2.1-.4-2.1.6-2.3.7-.9.1-1.3,0-1.2,0-2.1-.7-1.5-2.4-1.5-2.7,0-.4,0-.4c0,0-.4-.3-.8-1.2s-1.3-2.2-1.5-2.4-1-1-1-1v-.2c0,0,1,.7,1.3,1s1.3,2.1,1.3,2.1l.6,1.1v.2c0,0,0-1.4,0-2s.8-3,.9-3.3.4-.6.4-.6Z"/>
    <path class="cls-7" d="M33.4,25.7s1.4-1.9,1.7-2.3,1.3-1.7,1.6-2,.5-.6.7-.9.3-.6.2-.7-.1-.1-.2,0,0,.4-.4.9-1.5,1.8-1.5,1.8l-1.2,1.5s-.7.8-.8,1.1-.3.5-.2.7Z"/>
    <path class="cls-7" d="M28.3,31.4s.4-.7.5-.7.2-.3.2-.3v1.2s0,.1,0,.2,0,.2,0,.2h-.3s-.1,0,0-.2,0-.2-.2-.1-.5,0-.3-.2Z"/>
    <path class="cls-7" d="M31.5,29s0,.6.1.9.1.5.2.6.1.7,0,.7,0,.3,0,.3c0,0-.1-1.3-.2-1.6s-.2-1-.2-1h.1Z"/>
    <path class="cls-3" d="M50.9,27.1s-.1.5-.3.8-.8,1.5-.8,1.5c0,0,1.9,0,2.7.9s.8,1.2.8,1.2c0,0,0-1.1-.3-1.8s-1-2.1-1-2.1l-1.2-.3Z"/>
    <path class="cls-8" d="M13,27.3s.1-.5.2-.3.2-.2.1-.3.3-.3.4-.2,0,.9,0,1.1-.3,1.1-.4,1-.4-1.3-.4-1.3Z"/>
    <path class="cls-8" d="M10.5,31.8s.6-.2,1.6-.3,3.1,0,3.7,0,1.7-.2,1.9-.1,1,.2.7.3.2.2.2.2c0,0,1.6,0,1.5.3s-1.4.7-.9.8,3.8,0,3.8,0c0,0,2.6,0,2.9.6s-2.4.7-2.4.7c0,0-4.1.2-4.2.3s0,.3.7.3,2.9.2,3.2.4.8.4.6.5-1.3.8-4.3.5c-3-.4-3.8-.4-4.3-.4s-1.2.1-1.1.2,1,.3.8.5-2.2.4-2.8.3-3.3.1-3.3.1c-.3,0-1.5.2-2-.3s-.9-.5-.4-.6,1.5-.3,1.4-.4-4.2,0-4.4,0-2.8-.9-1.8-1.4,3.3-.8,3.3-.8c0,0-1.3-.3-1.1-.5s1.5-.3,2-.3,1.7-.1,1.7-.1c0,0-.8-.4,0-.6s3.8.1,3.9,0-.9-.4-.6-.5Z"/>
  </g>
</svg>