<?xml version="1.0" encoding="UTF-8"?>
<svg id="Complications" xmlns="http://www.w3.org/2000/svg" viewBox="0 0 32 32">
  <defs>
    <style>
      .cls-1 {
        fill: #fff;
      }

      .cls-2 {
        fill: #d99898;
      }
    </style>
  </defs>
  <g id="ic_abortion">
    <path class="cls-1" d="m15.58,29.95C6.03,23.15,3.06,16.75,2.54,15.37s-1.81-6.14,1.38-9c3.48-3.2,9.41-1.72,10.75,1.96,0,0,.29-2.92,3.85-4.38,4.1-1.68,8.52-.46,10.49,2.86s2.48,11.61-13.43,23.13Z"/>
    <path class="cls-2" d="m15.17,28.21C6.81,22.44,4.4,16.15,3.95,14.98s-1.61-5.31,1.16-7.72c3.03-2.69,8.45-.79,9.21,3.64l-.95,4.22,3.17,6.55-1.37,6.54Z"/>
    <path class="cls-2" d="m15.75,28.21c13.53-9.89,13.58-17.81,11.85-20.61s-5.5-3.81-8.92-2.1-3.78,5.41-3.78,5.41l-.91,4.15,3.04,6.52-1.29,6.63Z"/>
  </g>
</svg>