<?xml version="1.0" encoding="UTF-8"?>
<svg id="Where_is_found" data-name="Where is found" xmlns="http://www.w3.org/2000/svg" viewBox="0 0 32 32">
  <defs>
    <style>
      .cls-1 {
        fill: #fad0c0;
      }

      .cls-2 {
        fill: #f28d57;
      }

      .cls-3 {
        fill: #f5a275;
      }

      .cls-4 {
        fill: #f5fbff;
      }

      .cls-5 {
        fill: #fce1d6;
      }

      .cls-6 {
        fill: #fffdf8;
      }

      .cls-7 {
        fill: #e47c67;
      }

      .cls-8 {
        fill: #e69461;
      }

      .cls-9 {
        fill: #fde3ca;
      }

      .cls-10 {
        fill: #8cbd60;
      }

      .cls-11 {
        fill: #cbced3;
      }

      .cls-12 {
        fill: #c85555;
      }

      .cls-13 {
        fill: #d9dde3;
      }

      .cls-14 {
        fill: #db5d5d;
      }

      .cls-15, .cls-16 {
        fill: #c5dda6;
      }

      .cls-17 {
        fill: #a1cb78;
      }

      .cls-16 {
        isolation: isolate;
        opacity: .8;
      }
    </style>
  </defs>
  <ellipse class="cls-13" cx="14.86" cy="15.98" rx="8.24" ry="14.51" transform="translate(-1.31 30.65) rotate(-89.31)"/>
  <ellipse class="cls-4" cx="14.92" cy="15.51" rx="8.24" ry="14.51" transform="translate(-.76 30.24) rotate(-89.31)"/>
  <path class="cls-13" d="m25.78,15.66s-.79-1.88-3.67-3.88c-1.72-1.2-5.16-1.82-7.36-1.84-5.86-.06-9.55,3.12-8.43,2.18,1.92-1.61,5.18-2.65,8.88-2.61,5.86.06,10.59,2.82,10.56,6.15Z"/>
  <g>
    <path class="cls-13" d="m15.79,14.15l7.42,2.23s-.15.5,1.12,1.11,7.02,1.35,7.26,1.93-.23.91-2.23.43-6.25-1.99-6.46-2.36c-.44.05-.68.02-1.05-.08-.72-.18-6.13-2.49-6.05-3.27Z"/>
    <path class="cls-11" d="m22.78,17.35s.07-.07.09-.23c0-.05.02.15.4.36s2.72,1.24,4.85,1.78c2.13.54,2.98.28,3.07.43s-.14.28-1.08.19c-.94-.09-6.17-1.59-7.33-2.52Z"/>
  </g>
  <path id="Tracciato_213" data-name="Tracciato 213" class="cls-17" d="m5.05,14.15s-.4-.81-.47-1.02-.12-.61.23-.84.71-.49.76-.91.77-.42,1.75,1.32c0,0,.41-1.96,2.58-3.07,2.17-1.12,2.6-.26,2.6-.26,0,0,.23.44,1.15.46.92.02,1.58.6,2,1.28.28.47.77.74,1.29.71.22-.03,1.01-.67,1.36,0s.04,1.35.1,1.84.56.14.36,1.03-.54.44-.89,1.02-5.48,5.83-10.18.23c-.45-.52-.68-.81-1.37-.7s-1.25-1.1-1.25-1.1Z"/>
  <path id="Tracciato_218" data-name="Tracciato 218" class="cls-15" d="m5.83,11.82s-.33.63-.75.88c-.42.25.47,1.54.47,1.54,0,0,.29.48.5.56s.76-.39,1.25.07,2.36,2.39,3.49,2.5.3-.27.3-.27c0,0-1.79-.62-2.64-1.98s2.48,2.68,5.43,2.05c2.95-.63,1.39-.78,1.39-.78,0,0-3.67.71-5.29-1.34,0,0,4,1.29,6.13.32.34-.15.62-.29.88-.43,1.24-.66,1.17-.98.85-1.15-.38-.21-1.57.52-3.24.73-1.68.22-3.4,0-3.4,0,1.55-.72,3.61-3.1,2.7-3.19-.37-.05-3.7,3.2-4.58,2.84-.7-.28-.82-.92.96-2.3,2.93-2.19,1.72-1.94,1.58-1.93-2.86.42-3.71,2.55-4.15,3.48-.3-.1-.35-.07-.45-.17-.35-.26-.67-.98-.93-1.33-.13-.17-.5-.08-.5-.08Z"/>
  <path id="Tracciato_214" data-name="Tracciato 214" class="cls-10" d="m14.73,20.86s-1.28,1.56-4.68.38c-3.39-1.18-4.71-3.8-5.33-5.63-.62-1.83-1.36-1.99-1.36-1.99,0,0-1.13-.64-.04-1.28,1.09-.65,2.66.24,2.66.24.49.06.99-.03,1.44-.24.7-.36,3.53.91,4.49,2.24.96,1.33,1.11,3.05,4.27,4.11,0,0-1.24,1.02-1.45,2.18Z"/>
  <path id="Tracciato_219" data-name="Tracciato 219" class="cls-16" d="m15.65,20.52c-.59.15-2.87.91-4.03.38s-.25-.42-.25-.42c0,0,1.93.41,3.08-.37s-3.06,1.11-5.89-1.12c-2.83-2.22-1.23-1.5-1.23-1.5,0,0,3.54,2.7,5.59,1.69,0,0-4.29-1.02-6.23-3.11-.31-.33-.56-.62-.79-.89-1.1-1.31-.96-1.56-.61-1.54.43.01,1.46,1.35,3.1,2.49,1.09.74,2.23,1.37,3.42,1.89-1.4-1.53-2.97-4.89-2.04-4.47.38.16,3.04,5.03,4,5.19,2.02-.14,2.46,1.63,1.87,1.79Z"/>
  <g>
    <path class="cls-6" d="m13.12,13.56s.52-.61,1.2-.44.9,1,2.16.9c1.26-.11,1.8,1.35,1.8,1.35,0,0-.54.05-.72,0s-.46-.4-.84-.58c-.55-.25-1.52-.42-1.74-.47-.32-.08-1.8-.16-1.86-.75Z"/>
    <path class="cls-9" d="m13.52,13.45s.1-.22.54-.18.65.13.84.31.39.33.39.33c0,0-.25-.03-.45-.21s-.49-.33-.76-.31-.56.05-.56.05Z"/>
  </g>
  <g>
    <path class="cls-6" d="m7.11,14.5s.17-.81.83-1.04,1.24.37,2.28-.41c1.04-.79,2.17.18,2.17.18,0,0-.45.35-.63.39s-.58-.1-.99-.04c-.59.09-1.51.48-1.72.55-.32.11-1.63.86-1.95.37Z"/>
    <path class="cls-9" d="m7.4,14.18s-.02-.25.38-.45.62-.25.87-.2.49.07.49.07c0,0-.23.11-.48.07s-.57-.01-.8.15-.46.35-.46.35Z"/>
  </g>
  <g>
    <path class="cls-6" d="m8.29,15.22s.17-.81.83-1.04,1.24.37,2.28-.41,2.17.18,2.17.18c0,0-.45.35-.63.39s-.58-.1-.99-.04c-.59.09-1.51.48-1.72.55-.32.11-1.63.86-1.95.37Z"/>
    <path class="cls-9" d="m8.59,14.9s-.02-.25.38-.45.62-.25.87-.2.49.07.49.07c0,0-.23.11-.48.07s-.57-.01-.8.15-.46.35-.46.35Z"/>
  </g>
  <g>
    <path class="cls-6" d="m14.21,12.03s.24-.79.92-.95c.68-.16,1.2.51,2.3-.16s2.15.42,2.15.42c0,0-.48.3-.66.32s-.57-.16-.98-.14c-.6.02-1.54.31-1.76.36-.33.08-1.7.67-1.98.16Z"/>
    <path class="cls-9" d="m14.54,11.75s0-.25.42-.41.64-.18.88-.1.48.13.48.13c0,0-.24.09-.49.01s-.56-.08-.81.06-.49.3-.49.3Z"/>
  </g>
  <g>
    <path class="cls-6" d="m7.33,15.93s.59-.53,1.24-.25.76,1.13,2.02,1.22c1.26.09,1.61,1.62,1.61,1.62,0,0-.55-.03-.71-.12s-.4-.47-.75-.7c-.51-.33-1.45-.65-1.66-.74-.31-.13-1.76-.43-1.75-1.03Z"/>
    <path class="cls-9" d="m7.74,15.88s.12-.21.55-.09.63.23.8.44.34.39.34.39c0,0-.24-.07-.42-.28s-.44-.4-.72-.42-.56-.03-.56-.03Z"/>
  </g>
  <g>
    <path class="cls-6" d="m5.56,15.28s.68-.37,1.26.06.51,1.29,1.72,1.69c1.21.4,1.24,1.97,1.24,1.97,0,0-.52-.17-.67-.29s-.3-.56-.59-.87c-.43-.45-1.28-.99-1.47-1.13-.28-.2-1.63-.86-1.49-1.44Z"/>
    <path class="cls-9" d="m5.97,15.33s.16-.17.56.05.57.38.69.62.25.47.25.47c0,0-.22-.13-.35-.37s-.35-.5-.61-.59-.54-.17-.54-.17Z"/>
  </g>
  <g>
    <path class="cls-6" d="m13.06,12.24s.59-.53,1.24-.25c.65.27.76,1.13,2.02,1.22,1.26.09,1.61,1.62,1.61,1.62,0,0-.55-.03-.71-.12s-.4-.47-.75-.7c-.51-.33-1.45-.65-1.66-.74-.31-.13-1.76-.43-1.75-1.03Z"/>
    <path class="cls-9" d="m13.47,12.2s.12-.21.55-.09.63.23.8.44.34.39.34.39c0,0-.24-.07-.42-.28s-.44-.4-.72-.42-.56-.03-.56-.03Z"/>
  </g>
  <g>
    <path class="cls-13" d="m29.66,22.08c-.2.25-.44.51-.55.52s-1.32-.23-2.34-.85-5.51-3.26-6.53-3.44c-.91-.16-1.23.17-1.5.25-.18.07-.96.19-1.99-.8-1-.96-2.38-2.71-2.38-2.71l.88-.76s2.99,2.37,3.83,2.78.77.67.77.67c.09-.02.84-.07,2.01.42,2.17.91,5.62,2.7,7.85,3.11.41.23-.02.74-.06.79Z"/>
    <path class="cls-11" d="m18.78,18.51c-.45.22-1.18-.16-1.18-.16-.8-.3-3.23-3.29-3.23-3.29.03-.03,2.23,2.65,3.17,3.17s1.67-.11,1.96-.21c.18-.03,1.04.03,1.99.4,1.57.61,5.23,2.8,5.75,3.09,1.09.61,1.69.65,1.83.65.02,0,.05-.03.05-.03l.58-.74c.12.07.14.23.03.42-.11.2-.54.68-.62.68-.07,0-.55-.02-1.59-.48-.55-.24-4.18-2.45-6.23-3.37-.5-.23-.92-.38-1.25-.42-.49-.05-.81.05-1.25.27Z"/>
    <path class="cls-11" d="m14.61,14.86s1.93,2.09,2.25,2.31.5.25.5.25l-.14-.13-2.6-2.43Z"/>
    <path class="cls-11" d="m14.85,14.68s1.97,2.04,2.29,2.26.5.24.5.24l-.14-.13-2.65-2.37Z"/>
    <path class="cls-11" d="m15.12,14.48s2.03,1.98,2.35,2.19.51.22.51.22l-.15-.12-2.71-2.28Z"/>
  </g>
  <g>
    <path class="cls-5" d="m8.43,13.3s-.07.23-.21.32-.24.14-.35.3-.16.24-.28.25-.23.04-.23.04c0,0-.3-.01-.39-.15s-.07-.27-.07-.27c0,0,.01-.05-.02-.14s-.09-.22.04-.38.21-.21.37-.19.31-.02.36-.02.25.11.25.11c0,0,.14.04.19.03s.39-.04.33.11Z"/>
    <path class="cls-7" d="m4.44,12.49s-.06-.03-.04-.1.29-.76.3-.78.18-.49.25-.58c0,0,.01.09.05.02s.04-.26.2-.46.17-.1.17-.1c0,0,.04.15.1.03s.08-.15.13-.04.17,0,.17,0c0,0,.12-.07,0,.32s-.18,1.71-.65,1.74c0,0-.08-.1-.31-.14s-.36.09-.36.09Z"/>
    <path class="cls-3" d="m4.45,12.52s-.17-.13-.24.53c-.09.68.22,1.09.22,1.09-.27.61.27.91.27.91,0,0-.18.58.77,1.04s.83.11.92.19.58-.03.95-.18c.37-.15.52-.63.52-.63.61-.56.48-1.18.48-1.18.08-.07.02-.22.09-.51s-.02-.48-.02-.48c0,0-.07.23-.21.32s-.24.14-.35.3-.16.24-.28.25-.23.04-.23.04c0,0-.28-.01-.39-.15-.07.04-.04.17-.04.17-.21.12-.33.38-.33.38-.21-.1-.45.14-.45.14,0,0-.3-.35-.47-.32.09-.31-.18-.44-.18-.44.26-.33-.4-1.42-.39-1.42,0,0-.07-.1-.32-.14s-.36.09-.36.09Z"/>
    <path class="cls-2" d="m6.98,14.11s-.04.05,0,.11.33.12.41.11.22-.12.26-.12-.02-.04-.2,0-.38-.03-.45-.11Z"/>
    <path class="cls-2" d="m8.31,14.33s-.21.23-.5.31c0,0,.05.04.14,0s.36-.14.37-.23c0-.1,0-.09,0-.09Z"/>
    <path class="cls-2" d="m7.82,15.47s-.22.11-.59-.17c0,0,0,.05.06.09.16.13.4.26.47.21.03-.04.06-.05.06-.12Z"/>
    <path class="cls-2" d="m6.34,16.24c-.1-.24-.15-.51-.18-.78,0,0-.06.76.03.83.09.03.15-.05.15-.05Z"/>
    <path class="cls-2" d="m4.74,14.98s.29-.33.5-.36c0,0-.24-.04-.57.29,0,0,0,.05.07.07Z"/>
    <path class="cls-2" d="m4.49,14.09s.29-.23.53-.18c0,0-.24-.09-.53.04-.09.05,0,.14,0,.14Z"/>
    <path class="cls-1" d="m8.33,13.24s.1,0,.05.08-.05.1-.09.17c-.05.09-.19.14-.3.23-.04-.04.11-.17.17-.21.08-.05.09-.1.11-.14s0-.12.05-.12Z"/>
  </g>
  <g>
    <path class="cls-12" d="m9.36,10.72s-.17.77.65,1.07,1.39.2,1.39.2c0,0,.33-.05.61-.26s.65-.61.6-1.01c0,0-.41.73-1.17.79s-1.46.02-2.08-.79Z"/>
    <ellipse class="cls-14" cx="10.99" cy="10.66" rx="1.63" ry="1.08" transform="translate(-.54 .59) rotate(-3.01)"/>
    <path class="cls-12" d="m10.47,9.85s.67-.31,1.21.04c.13.09-.02.16-.08.18-.03,0-.15.06-.22.14-.09.08-.11.1-.12.14-.02.06-.07-.05-.17-.06s-.22.13-.26.08c-.06-.08-.16-.11-.18-.16-.03-.09-.29-.18-.16-.35Z"/>
    <path class="cls-12" d="m12.15,10.06s.25.16.26.48c0,.16-.11.41-.26.6-.11.14-.38.26-.4.18,0-.04.01-.15-.07-.25-.04-.06-.09-.1-.13-.14-.05-.04-.05-.08.06-.09.09-.01.18-.05.19-.17.02-.26-.11-.14-.14-.17s.03-.15.08-.17c.1-.02.23-.46.4-.27Z"/>
    <path class="cls-12" d="m11.45,11.48s-.79.27-1.38-.18c-.15-.11.05-.2.12-.22.04,0,.18-.06.28-.15.08-.07.13-.15.17-.21.02-.03-.01.1.19.1s.22-.07.23-.04c.03.07.05.14.06.19.02.11.49.31.33.5Z"/>
    <path class="cls-12" d="m9.8,11.08s-.21-.17-.18-.45c.01-.15.14-.36.29-.52.11-.12.36-.2.36-.13,0,.03-.02.13.03.23.06.12.16.19.19.22.06.04-.11.02-.15.12s.16.16.12.19c-.09.05-.19.07-.25.08-.09.01-.28.44-.41.26Z"/>
    <ellipse class="cls-8" cx="10.25" cy="10.39" rx=".02" ry=".06" transform="translate(-4.08 13.14) rotate(-56.25)"/>
    <ellipse class="cls-8" cx="10.23" cy="10.43" rx=".02" ry=".06" transform="translate(-3.46 15.54) rotate(-66.05)"/>
    <ellipse class="cls-8" cx="10.21" cy="10.49" rx=".02" ry=".06" transform="translate(-1.85 18.79) rotate(-80.31)"/>
    <ellipse class="cls-8" cx="10.2" cy="10.55" rx=".06" ry=".02" transform="translate(-1.44 1.61) rotate(-8.42)"/>
    <ellipse class="cls-8" cx="10.2" cy="10.6" rx=".06" ry=".02" transform="translate(-2.84 3.8) rotate(-18.58)"/>
    <ellipse class="cls-8" cx="10.22" cy="10.66" rx=".06" ry=".02" transform="translate(-4.11 7.12) rotate(-32.33)"/>
    <ellipse class="cls-8" cx="10.94" cy="10.96" rx=".02" ry=".06" transform="translate(-2.36 3.03) rotate(-14.26)"/>
    <ellipse class="cls-8" cx="10.9" cy="10.98" rx=".02" ry=".06" transform="translate(-1.14 1.26) rotate(-6.3)"/>
    <ellipse class="cls-8" cx="10.85" cy="10.98" rx=".06" ry=".02" transform="translate(-1 20.88) rotate(-85.25)"/>
    <ellipse class="cls-8" cx="10.79" cy="10.98" rx=".06" ry=".02" transform="translate(-3.07 17.69) rotate(-71.32)"/>
    <ellipse class="cls-8" cx="10.75" cy="10.96" rx=".06" ry=".02" transform="translate(-3.88 15.61) rotate(-63.16)"/>
    <ellipse class="cls-8" cx="10.7" cy="10.93" rx=".06" ry=".02" transform="translate(-4.52 12.43) rotate(-51.24)"/>
    <ellipse class="cls-8" cx="10.91" cy="10.17" rx=".02" ry=".06" transform="translate(-2.97 4.73) rotate(-21.57)"/>
    <ellipse class="cls-8" cx="10.95" cy="10.15" rx=".02" ry=".06" transform="translate(-2.06 2.83) rotate(-13.46)"/>
    <ellipse class="cls-8" cx="11.01" cy="10.13" rx=".02" ry=".06" transform="translate(-.4 .45) rotate(-2.32)"/>
    <ellipse class="cls-8" cx="11.06" cy="10.13" rx=".06" ry=".02" transform="translate(-1.07 18.95) rotate(-78.51)"/>
    <ellipse class="cls-8" cx="11.1" cy="10.14" rx=".06" ry=".02" transform="translate(-2.16 17.22) rotate(-70.51)"/>
    <ellipse class="cls-8" cx="11.15" cy="10.16" rx=".06" ry=".02" transform="translate(-3.3 14.47) rotate(-58.95)"/>
    <ellipse class="cls-8" cx="11.91" cy="10.54" rx=".06" ry=".02" transform="translate(-3.58 6.94) rotate(-28.45)"/>
    <ellipse class="cls-8" cx="11.93" cy="10.58" rx=".06" ry=".02" transform="translate(-2.75 4.35) rotate(-18.58)"/>
    <ellipse class="cls-8" cx="11.94" cy="10.64" rx=".06" ry=".02" transform="translate(-.76 .92) rotate(-4.26)"/>
    <ellipse class="cls-8" cx="11.94" cy="10.7" rx=".02" ry=".06" transform="translate(-1.3 19.74) rotate(-76.16)"/>
    <ellipse class="cls-8" cx="11.93" cy="10.75" rx=".02" ry=".06" transform="translate(-2.73 17.29) rotate(-66.04)"/>
    <ellipse class="cls-8" cx="11.91" cy="10.81" rx=".02" ry=".06" transform="translate(-3.92 13.65) rotate(-52.39)"/>
  </g>
  <g>
    <path class="cls-12" d="m9.95,14.6s-.25.74.52,1.15c.78.42,1.36.39,1.36.39,0,0,.33,0,.64-.17s.72-.51.71-.92c0,0-.49.66-1.25.62s-1.45-.18-1.98-1.07Z"/>
    <ellipse class="cls-14" cx="11.58" cy="14.76" rx="1.07" ry="1.63" transform="translate(-4.32 24.72) rotate(-83.96)"/>
    <path class="cls-12" d="m11.16,13.88s.7-.21,1.19.21c.12.11-.04.16-.1.17-.03,0-.15.04-.24.11-.1.07-.12.09-.14.12-.03.06-.06-.06-.17-.09s-.23.09-.27.04c-.05-.08-.15-.13-.16-.18-.02-.09-.26-.22-.12-.37Z"/>
    <path class="cls-12" d="m12.8,14.33s.23.2.2.51c-.02.16-.16.39-.33.56-.12.13-.41.21-.41.13,0-.04.03-.14-.04-.26-.03-.06-.07-.11-.11-.15-.04-.05-.04-.08.07-.08.09,0,.19-.03.21-.14.05-.26-.09-.16-.12-.19s.04-.15.1-.15c.1,0,.28-.42.43-.21Z"/>
    <path class="cls-12" d="m11.94,15.65s-.82.16-1.35-.37c-.13-.13.07-.19.15-.2.04,0,.19-.04.3-.11.08-.05.15-.13.19-.18.02-.02-.03.1.18.12s.22-.04.23,0c.02.08.04.15.04.2.01.11.46.37.27.54Z"/>
    <path class="cls-12" d="m10.36,15.02s-.18-.2-.13-.47c.03-.14.18-.33.34-.47.12-.1.38-.15.37-.08,0,.03-.04.13,0,.24.05.12.13.22.16.24.05.05-.11,0-.16.1s.14.18.09.2c-.09.04-.2.05-.25.05-.09,0-.33.39-.44.2Z"/>
    <ellipse class="cls-8" cx="10.88" cy="14.39" rx=".02" ry=".06" transform="translate(-7.11 13.08) rotate(-48.73)"/>
    <ellipse class="cls-8" cx="10.85" cy="14.43" rx=".02" ry=".06" transform="translate(-7.13 16.07) rotate(-58.27)"/>
    <ellipse class="cls-8" cx="10.83" cy="14.48" rx=".02" ry=".06" transform="translate(-6.27 20.38) rotate(-72.26)"/>
    <ellipse class="cls-8" cx="10.81" cy="14.54" rx=".06" ry=".02" transform="translate(-.07 .05) rotate(-.29)"/>
    <ellipse class="cls-8" cx="10.81" cy="14.59" rx=".06" ry=".02" transform="translate(-2.49 2.23) rotate(-10.55)"/>
    <ellipse class="cls-8" cx="10.82" cy="14.65" rx=".06" ry=".02" transform="translate(-5.11 5.83) rotate(-24.58)"/>
    <ellipse class="cls-8" cx="11.5" cy="15.06" rx=".02" ry=".06" transform="translate(-1.91 1.67) rotate(-7.68)"/>
    <ellipse class="cls-8" cx="11.46" cy="15.06" rx=".06" ry=".02" transform="translate(-3.65 26.46) rotate(-89.77)"/>
    <ellipse class="cls-8" cx="11.4" cy="15.07" rx=".06" ry=".02" transform="translate(-5.61 23.29) rotate(-78.69)"/>
    <ellipse class="cls-8" cx="11.35" cy="15.05" rx=".06" ry=".02" transform="translate(-7.12 18.84) rotate(-64.58)"/>
    <ellipse class="cls-8" cx="11.31" cy="15.03" rx=".06" ry=".02" transform="translate(-7.47 16.08) rotate(-56.24)"/>
    <ellipse class="cls-8" cx="11.27" cy="14.99" rx=".06" ry=".02" transform="translate(-7.25 12.04) rotate(-44)"/>
    <ellipse class="cls-8" cx="11.56" cy="14.27" rx=".02" ry=".06" transform="translate(-3.28 3.45) rotate(-14.9)"/>
    <ellipse class="cls-8" cx="11.61" cy="14.25" rx=".02" ry=".06" transform="translate(-1.62 1.49) rotate(-6.88)"/>
    <ellipse class="cls-8" cx="11.66" cy="14.24" rx=".06" ry=".02" transform="translate(-3.4 24.83) rotate(-85.79)"/>
    <ellipse class="cls-8" cx="11.71" cy="14.24" rx=".06" ry=".02" transform="translate(-5.47 20.95) rotate(-71.88)"/>
    <ellipse class="cls-8" cx="11.75" cy="14.26" rx=".06" ry=".02" transform="translate(-6.23 18.5) rotate(-63.75)"/>
    <ellipse class="cls-8" cx="11.8" cy="14.29" rx=".06" ry=".02" transform="translate(-6.73 14.77) rotate(-51.92)"/>
    <ellipse class="cls-8" cx="12.51" cy="14.77" rx=".06" ry=".02" transform="translate(-4.4 5.34) rotate(-20.6)"/>
    <ellipse class="cls-8" cx="12.52" cy="14.82" rx=".06" ry=".02" transform="translate(-2.5 2.54) rotate(-10.55)"/>
    <ellipse class="cls-8" cx="12.53" cy="14.88" rx=".02" ry=".06" transform="translate(-3.16 26.37) rotate(-86.11)"/>
    <ellipse class="cls-8" cx="12.52" cy="14.94" rx=".02" ry=".06" transform="translate(-6 21.01) rotate(-68.17)"/>
    <ellipse class="cls-8" cx="12.51" cy="14.98" rx=".02" ry=".06" transform="translate(-6.81 17.74) rotate(-58.27)"/>
    <ellipse class="cls-8" cx="12.48" cy="15.04" rx=".02" ry=".06" transform="translate(-6.98 13.22) rotate(-44.98)"/>
  </g>
  <g>
    <path class="cls-12" d="m8.56,15.56s-.25.74.52,1.15,1.36.39,1.36.39c0,0,.33,0,.64-.17s.72-.51.71-.92c0,0-.49.66-1.25.62s-1.45-.18-1.98-1.07Z"/>
    <ellipse class="cls-14" cx="10.18" cy="15.72" rx="1.07" ry="1.63" transform="translate(-6.52 24.19) rotate(-83.96)"/>
    <path class="cls-12" d="m9.77,14.84s.7-.21,1.19.21c.12.11-.04.16-.1.17-.03,0-.15.04-.24.11-.1.07-.12.09-.14.12-.03.06-.06-.06-.17-.09s-.23.09-.27.04c-.05-.08-.15-.13-.16-.18-.02-.09-.26-.22-.12-.37Z"/>
    <path class="cls-12" d="m11.4,15.29s.23.2.2.51c-.02.16-.16.39-.33.56-.12.13-.41.21-.41.13,0-.04.03-.14-.04-.26-.03-.06-.07-.11-.11-.15-.04-.05-.04-.08.07-.08.09,0,.19-.03.21-.14.05-.26-.09-.16-.12-.19s.04-.15.1-.15c.1,0,.28-.42.43-.21Z"/>
    <path class="cls-12" d="m10.55,16.6s-.82.16-1.35-.37c-.13-.13.07-.19.15-.2.04,0,.19-.04.3-.11.08-.05.15-.13.19-.18.02-.02-.03.1.18.12s.22-.04.23,0c.02.08.04.15.04.2.01.11.46.37.27.54Z"/>
    <path class="cls-12" d="m8.96,15.97s-.18-.2-.13-.47c.03-.14.18-.33.34-.47.12-.1.38-.15.37-.08,0,.03-.04.13,0,.24.05.12.13.22.16.24.05.05-.11,0-.16.1s.14.18.09.2c-.09.04-.2.05-.25.05-.09,0-.33.39-.44.2Z"/>
    <ellipse class="cls-8" cx="9.48" cy="15.35" rx=".02" ry=".06" transform="translate(-8.31 12.35) rotate(-48.73)"/>
    <ellipse class="cls-8" cx="9.46" cy="15.39" rx=".02" ry=".06" transform="translate(-8.6 15.34) rotate(-58.27)"/>
    <ellipse class="cls-8" cx="9.43" cy="15.44" rx=".02" ry=".06" transform="translate(-8.15 19.72) rotate(-72.26)"/>
    <ellipse class="cls-8" cx="9.41" cy="15.5" rx=".06" ry=".02" transform="translate(-.08 .05) rotate(-.29)"/>
    <ellipse class="cls-8" cx="9.41" cy="15.55" rx=".06" ry=".02" transform="translate(-2.69 1.99) rotate(-10.55)"/>
    <ellipse class="cls-8" cx="9.42" cy="15.61" rx=".06" ry=".02" transform="translate(-5.64 5.33) rotate(-24.58)"/>
    <ellipse class="cls-8" cx="10.1" cy="16.01" rx=".02" ry=".06" transform="translate(-2.05 1.49) rotate(-7.68)"/>
    <ellipse class="cls-8" cx="10.06" cy="16.02" rx=".06" ry=".02" transform="translate(-6 26.02) rotate(-89.77)"/>
    <ellipse class="cls-8" cx="10.01" cy="16.02" rx=".06" ry=".02" transform="translate(-7.67 22.69) rotate(-78.69)"/>
    <ellipse class="cls-8" cx="9.95" cy="16.01" rx=".06" ry=".02" transform="translate(-8.78 18.13) rotate(-64.58)"/>
    <ellipse class="cls-8" cx="9.92" cy="15.99" rx=".06" ry=".02" transform="translate(-8.89 15.35) rotate(-56.24)"/>
    <ellipse class="cls-8" cx="9.87" cy="15.95" rx=".06" ry=".02" transform="translate(-8.31 11.33) rotate(-44)"/>
    <ellipse class="cls-8" cx="10.17" cy="15.22" rx=".02" ry=".06" transform="translate(-3.57 3.13) rotate(-14.9)"/>
    <ellipse class="cls-8" cx="10.21" cy="15.21" rx=".02" ry=".06" transform="translate(-1.75 1.33) rotate(-6.88)"/>
    <ellipse class="cls-8" cx="10.26" cy="15.2" rx=".06" ry=".02" transform="translate(-5.65 24.32) rotate(-85.79)"/>
    <ellipse class="cls-8" cx="10.32" cy="15.2" rx=".06" ry=".02" transform="translate(-7.34 20.28) rotate(-71.88)"/>
    <ellipse class="cls-8" cx="10.36" cy="15.22" rx=".06" ry=".02" transform="translate(-7.87 17.78) rotate(-63.75)"/>
    <ellipse class="cls-8" cx="10.41" cy="15.25" rx=".06" ry=".02" transform="translate(-8.01 14.03) rotate(-51.92)"/>
    <ellipse class="cls-8" cx="11.11" cy="15.72" rx=".06" ry=".02" transform="translate(-4.82 4.91) rotate(-20.6)"/>
    <ellipse class="cls-8" cx="11.12" cy="15.77" rx=".06" ry=".02" transform="translate(-2.7 2.3) rotate(-10.55)"/>
    <ellipse class="cls-8" cx="11.13" cy="15.83" rx=".02" ry=".06" transform="translate(-5.42 25.86) rotate(-86.11)"/>
    <ellipse class="cls-8" cx="11.13" cy="15.89" rx=".02" ry=".06" transform="translate(-7.76 20.31) rotate(-68.17)"/>
    <ellipse class="cls-8" cx="11.11" cy="15.94" rx=".02" ry=".06" transform="translate(-8.29 17.01) rotate(-58.27)"/>
    <ellipse class="cls-8" cx="11.09" cy="15.99" rx=".02" ry=".06" transform="translate(-8.06 12.52) rotate(-44.98)"/>
  </g>
  <g>
    <path class="cls-5" d="m6.89,11.83s.21-.06.36.02.24.15.42.16.27.02.34.12.15.19.15.19c0,0,.15.28.09.44s-.17.21-.17.21c0,0-.04.01-.1.09s-.12.2-.31.17-.27-.08-.35-.24-.18-.27-.21-.33-.05-.29-.05-.29c0,0-.05-.16-.09-.19s-.24-.34-.1-.36Z"/>
    <path class="cls-7" d="m8.42,15.96s0,.07-.05.1-.74.14-.76.14-.47.09-.58.08c0,0,.06-.06,0-.06s-.22.1-.46.06-.17-.1-.17-.1c0,0,.09-.11-.03-.11s-.16,0-.1-.1-.09-.16-.09-.16c0,0-.12-.07.25-.17s1.41-.75,1.68-.33c0,0-.03.13.06.36s.26.29.26.29Z"/>
    <path class="cls-3" d="m8.43,15.94s0,.22.53-.07c.57-.28.72-.8.72-.8.61-.08.55-.74.55-.74,0,0,.54-.14.38-1.27-.16-1.13-.36-.83-.35-.95s-.33-.52-.65-.78-.76-.15-.76-.15c-.75-.26-1.17.19-1.17.19-.09-.03-.18.1-.44.19s-.36.27-.36.27c0,0,.21-.06.36.02s.24.15.42.16.27.02.34.12.15.19.15.19c0,0,.14.26.09.44.07.04.15-.05.15-.05.2.14.47.1.47.1.03.25.35.34.35.34,0,0-.11.47,0,.61-.29.08-.24.4-.24.4-.39-.06-.87,1.14-.88,1.12,0,0-.04.12.06.37s.26.28.26.28Z"/>
    <path class="cls-2" d="m8.29,12.73s.06.01.09-.05-.09-.37-.14-.43-.21-.14-.23-.17-.02.03.12.18.18.36.16.48Z"/>
    <path class="cls-2" d="m7.74,11.38s.29.07.51.3c0,0,0-.06-.07-.13s-.3-.26-.37-.22c-.08.04-.07.05-.06.05Z"/>
    <path class="cls-2" d="m8.88,11.22s.21.15.19.63c0,0,.03-.03.03-.1.01-.21-.01-.51-.1-.55-.05-.01-.07-.03-.13.01Z"/>
    <path class="cls-2" d="m10.26,12.18c-.14.22-.31.41-.5.59,0,0,.62-.36.62-.48-.03-.1-.12-.11-.12-.11Z"/>
    <path class="cls-2" d="m10.16,14.34s-.41-.09-.55-.27c0,0,.1.24.53.38,0,0,.04-.02.02-.11Z"/>
    <path class="cls-2" d="m9.61,15.06s-.33-.14-.42-.4c0,0,.06.28.32.47.09.05.11-.07.11-.07Z"/>
    <path class="cls-1" d="m6.89,11.95s-.05-.09.03-.09.1-.01.18-.01c.1,0,.21.1.34.15-.01.06-.19,0-.25-.04-.09-.05-.13-.03-.17-.02s-.1.06-.12.02Z"/>
  </g>
  <g>
    <path class="cls-12" d="m23.16,14.68s-.06.79.8.95,1.4-.04,1.4-.04c0,0,.32-.11.57-.36s.56-.71.45-1.1c0,0-.3.79-1.05.98s-1.44.27-2.17-.43Z"/>
    <ellipse class="cls-14" cx="24.77" cy="14.34" rx="1.64" ry="1.07" transform="translate(-2.72 6.37) rotate(-13.91)"/>
    <path class="cls-12" d="m24.15,13.62s.62-.42,1.2-.16c.14.06,0,.16-.06.19-.03.01-.14.09-.2.18-.07.1-.1.12-.1.15-.01.07-.08-.04-.18-.03s-.2.16-.25.12c-.07-.07-.17-.08-.2-.13-.04-.08-.31-.13-.21-.32Z"/>
    <path class="cls-12" d="m25.83,13.55s.27.12.32.43c.02.16-.06.42-.18.64-.09.16-.34.32-.36.25-.01-.04,0-.15-.1-.24-.05-.05-.1-.09-.14-.11-.05-.03-.06-.07.05-.1.09-.03.17-.08.16-.2-.02-.26-.13-.12-.16-.14s0-.16.06-.18c.09-.04.16-.49.36-.34Z"/>
    <path class="cls-12" d="m25.34,15.08s-.74.4-1.39.05c-.16-.09.02-.21.09-.23.03-.01.17-.09.26-.2.07-.08.11-.17.14-.23.01-.03,0,.1.2.06s.2-.11.22-.07c.04.07.07.13.09.18.04.11.53.22.39.44Z"/>
    <path class="cls-12" d="m23.65,14.96s-.23-.13-.24-.41c0-.15.09-.37.21-.56.09-.14.33-.26.34-.19,0,.03,0,.13.07.23.08.1.18.17.22.18.06.03-.11.04-.13.15s.18.13.14.16c-.08.06-.18.11-.23.12-.09.03-.21.48-.37.32Z"/>
    <ellipse class="cls-8" cx="24" cy="14.2" rx=".02" ry=".06" transform="translate(1.17 30.21) rotate(-65.66)"/>
    <ellipse class="cls-8" cx="23.98" cy="14.24" rx=".02" ry=".06" transform="translate(4.27 33.97) rotate(-75.72)"/>
    <ellipse class="cls-8" cx="23.97" cy="14.3" rx=".06" ry=".02" transform="translate(-.05 .08) rotate(-.2)"/>
    <ellipse class="cls-8" cx="23.97" cy="14.36" rx=".06" ry=".02" transform="translate(-3.29 8.21) rotate(-18.21)"/>
    <ellipse class="cls-8" cx="23.98" cy="14.41" rx=".06" ry=".02" transform="translate(-3.96 13.02) rotate(-28.16)"/>
    <ellipse class="cls-8" cx="24.01" cy="14.47" rx=".06" ry=".02" transform="translate(-3.56 19.54) rotate(-41.49)"/>
    <ellipse class="cls-8" cx="24.76" cy="14.65" rx=".02" ry=".06" transform="translate(-3.71 10.53) rotate(-22.38)"/>
    <ellipse class="cls-8" cx="24.72" cy="14.67" rx=".02" ry=".06" transform="translate(-2.86 6.56) rotate(-14.3)"/>
    <ellipse class="cls-8" cx="24.67" cy="14.68" rx=".02" ry=".06" transform="translate(-.78 1.39) rotate(-3.19)"/>
    <ellipse class="cls-8" cx="24.62" cy="14.69" rx=".06" ry=".02" transform="translate(5.64 36.18) rotate(-79.38)"/>
    <ellipse class="cls-8" cx="24.58" cy="14.68" rx=".06" ry=".02" transform="translate(2.82 33.28) rotate(-71.38)"/>
    <ellipse class="cls-8" cx="24.52" cy="14.66" rx=".06" ry=".02" transform="translate(-.48 28.47) rotate(-59.77)"/>
    <ellipse class="cls-8" cx="24.63" cy="13.87" rx=".02" ry=".06" transform="translate(-3.63 14.1) rotate(-29.86)"/>
    <ellipse class="cls-8" cx="24.66" cy="13.84" rx=".02" ry=".06" transform="translate(-3.36 10.03) rotate(-21.56)"/>
    <ellipse class="cls-8" cx="24.71" cy="13.81" rx=".02" ry=".06" transform="translate(-2.07 4.63) rotate(-10.28)"/>
    <ellipse class="cls-8" cx="24.76" cy="13.8" rx=".06" ry=".02" transform="translate(9.47 37.67) rotate(-86.48)"/>
    <ellipse class="cls-8" cx="24.81" cy="13.8" rx=".06" ry=".02" transform="translate(6.37 35.39) rotate(-78.58)"/>
    <ellipse class="cls-8" cx="24.86" cy="13.82" rx=".06" ry=".02" transform="translate(2.51 31.41) rotate(-67.26)"/>
    <ellipse class="cls-8" cx="25.66" cy="14.06" rx=".06" ry=".02" transform="translate(-3.24 18.64) rotate(-37.73)"/>
    <ellipse class="cls-8" cx="25.68" cy="14.1" rx=".06" ry=".02" transform="translate(-3.62 13.79) rotate(-28.15)"/>
    <ellipse class="cls-8" cx="25.7" cy="14.16" rx=".06" ry=".02" transform="translate(-2.68 6.69) rotate(-14.1)"/>
    <ellipse class="cls-8" cx="25.72" cy="14.22" rx=".02" ry=".06" transform="translate(9.74 38.88) rotate(-86.01)"/>
    <ellipse class="cls-8" cx="25.71" cy="14.27" rx=".02" ry=".06" transform="translate(5.55 35.67) rotate(-75.72)"/>
    <ellipse class="cls-8" cx="25.7" cy="14.33" rx=".02" ry=".06" transform="translate(.9 30.16) rotate(-61.68)"/>
  </g>
  <g>
    <path class="cls-12" d="m5.73,17.3s-.17.77.65,1.07,1.39.2,1.39.2c0,0,.33-.05.61-.26s.65-.61.6-1.01c0,0-.41.73-1.17.79s-1.46.02-2.08-.79Z"/>
    <ellipse class="cls-14" cx="7.36" cy="17.23" rx="1.63" ry="1.08" transform="translate(-.9 .41) rotate(-3.01)"/>
    <path class="cls-12" d="m6.85,16.42s.67-.31,1.21.04c.13.09-.02.16-.08.18-.03,0-.15.06-.22.14-.09.08-.11.1-.12.14-.02.06-.07-.05-.17-.06s-.22.13-.26.08c-.06-.08-.16-.11-.18-.16-.03-.09-.29-.18-.16-.35Z"/>
    <path class="cls-12" d="m8.52,16.63s.25.16.26.48c0,.16-.11.41-.26.6-.11.14-.38.26-.4.18,0-.04.01-.15-.07-.25-.04-.06-.09-.1-.13-.14-.05-.04-.05-.08.06-.09.09-.01.18-.05.19-.17.02-.26-.11-.14-.14-.17s.03-.15.08-.17c.1-.02.23-.46.4-.27Z"/>
    <path class="cls-12" d="m7.83,18.06s-.79.27-1.38-.18c-.15-.11.05-.2.12-.22.04,0,.18-.06.28-.15.08-.07.13-.15.17-.21.02-.03-.01.1.19.1s.22-.07.23-.04c.03.07.05.14.06.19.02.11.49.31.33.5Z"/>
    <path class="cls-12" d="m6.18,17.65s-.21-.17-.18-.45c.01-.15.14-.36.29-.52.11-.12.36-.2.36-.13,0,.03-.02.13.03.23.06.12.16.19.19.22.06.04-.11.02-.15.12s.16.16.12.19c-.09.05-.19.07-.25.08-.09.01-.28.44-.41.26Z"/>
    <ellipse class="cls-8" cx="6.63" cy="16.96" rx=".02" ry=".06" transform="translate(-11.16 13.05) rotate(-56.25)"/>
    <ellipse class="cls-8" cx="6.61" cy="17" rx=".02" ry=".06" transform="translate(-11.61 16.14) rotate(-66.05)"/>
    <ellipse class="cls-8" cx="6.59" cy="17.06" rx=".02" ry=".06" transform="translate(-11.34 20.68) rotate(-80.31)"/>
    <ellipse class="cls-8" cx="6.58" cy="17.12" rx=".06" ry=".02" transform="translate(-2.44 1.15) rotate(-8.42)"/>
    <ellipse class="cls-8" cx="6.58" cy="17.17" rx=".06" ry=".02" transform="translate(-5.13 2.99) rotate(-18.58)"/>
    <ellipse class="cls-8" cx="6.6" cy="17.23" rx=".06" ry=".02" transform="translate(-8.19 6.2) rotate(-32.33)"/>
    <ellipse class="cls-8" cx="7.32" cy="17.53" rx=".02" ry=".06" transform="translate(-4.09 2.34) rotate(-14.26)"/>
    <ellipse class="cls-8" cx="7.28" cy="17.55" rx=".02" ry=".06" transform="translate(-1.88 .9) rotate(-6.3)"/>
    <ellipse class="cls-8" cx="7.22" cy="17.56" rx=".06" ry=".02" transform="translate(-10.87 23.3) rotate(-85.25)"/>
    <ellipse class="cls-8" cx="7.17" cy="17.55" rx=".06" ry=".02" transform="translate(-11.75 18.72) rotate(-71.32)"/>
    <ellipse class="cls-8" cx="7.13" cy="17.53" rx=".06" ry=".02" transform="translate(-11.74 15.98) rotate(-63.16)"/>
    <ellipse class="cls-8" cx="7.08" cy="17.5" rx=".06" ry=".02" transform="translate(-11 12.07) rotate(-51.24)"/>
    <ellipse class="cls-8" cx="7.29" cy="16.74" rx=".02" ry=".06" transform="translate(-5.64 3.85) rotate(-21.57)"/>
    <ellipse class="cls-8" cx="7.33" cy="16.72" rx=".02" ry=".06" transform="translate(-3.69 2.17) rotate(-13.46)"/>
    <ellipse class="cls-8" cx="7.38" cy="16.7" rx=".02" ry=".06" transform="translate(-.67 .31) rotate(-2.32)"/>
    <ellipse class="cls-8" cx="7.44" cy="16.7" rx=".06" ry=".02" transform="translate(-10.41 20.66) rotate(-78.51)"/>
    <ellipse class="cls-8" cx="7.48" cy="16.71" rx=".06" ry=".02" transform="translate(-10.77 18.19) rotate(-70.51)"/>
    <ellipse class="cls-8" cx="7.53" cy="16.73" rx=".06" ry=".02" transform="translate(-10.69 14.55) rotate(-58.95)"/>
    <ellipse class="cls-8" cx="8.28" cy="17.11" rx=".06" ry=".02" transform="translate(-7.15 6.01) rotate(-28.45)"/>
    <ellipse class="cls-8" cx="8.3" cy="17.15" rx=".06" ry=".02" transform="translate(-5.03 3.54) rotate(-18.58)"/>
    <ellipse class="cls-8" cx="8.32" cy="17.21" rx=".06" ry=".02" transform="translate(-1.25 .67) rotate(-4.26)"/>
    <ellipse class="cls-8" cx="8.32" cy="17.27" rx=".02" ry=".06" transform="translate(-10.44 21.22) rotate(-76.16)"/>
    <ellipse class="cls-8" cx="8.31" cy="17.32" rx=".02" ry=".06" transform="translate(-10.89 17.88) rotate(-66.04)"/>
    <ellipse class="cls-8" cx="8.29" cy="17.38" rx=".02" ry=".06" transform="translate(-10.53 13.34) rotate(-52.39)"/>
  </g>
  <g>
    <path class="cls-12" d="m13.76,10.42s-.17.77.65,1.07,1.39.2,1.39.2c0,0,.33-.05.61-.26s.65-.61.6-1.01c0,0-.41.73-1.17.79s-1.46.02-2.08-.79Z"/>
    <ellipse class="cls-14" cx="15.39" cy="10.36" rx="1.63" ry="1.08" transform="translate(-.52 .82) rotate(-3.01)"/>
    <path class="cls-12" d="m14.88,9.55s.67-.31,1.21.04c.13.09-.02.16-.08.18-.03,0-.15.06-.22.14-.09.08-.11.1-.12.14-.02.06-.07-.05-.17-.06s-.22.13-.26.08c-.06-.08-.16-.11-.18-.16-.03-.09-.29-.18-.16-.35Z"/>
    <path class="cls-12" d="m16.55,9.76s.25.16.26.48c0,.16-.11.41-.26.6-.11.14-.38.26-.4.18,0-.04.01-.15-.07-.25-.04-.06-.09-.1-.13-.14-.05-.04-.05-.08.06-.09.09-.01.18-.05.19-.17.02-.26-.11-.14-.14-.17s.03-.15.08-.17c.1-.02.23-.46.4-.27Z"/>
    <path class="cls-12" d="m15.86,11.18s-.79.27-1.38-.18c-.15-.11.05-.2.12-.22.04,0,.18-.06.28-.15.08-.07.13-.15.17-.21.02-.03-.01.1.19.1s.22-.07.23-.04c.03.07.05.14.06.19.02.11.49.31.33.5Z"/>
    <path class="cls-12" d="m14.21,10.78s-.21-.17-.18-.45c.01-.15.14-.36.29-.52.11-.12.36-.2.36-.13,0,.03-.02.13.03.23.06.12.16.19.19.22.06.04-.11.02-.15.12s.16.16.12.19c-.09.05-.19.07-.25.08-.09.01-.28.44-.41.26Z"/>
    <ellipse class="cls-8" cx="14.66" cy="10.09" rx=".02" ry=".06" transform="translate(-1.87 16.67) rotate(-56.25)"/>
    <ellipse class="cls-8" cx="14.63" cy="10.13" rx=".02" ry=".06" transform="translate(-.57 19.39) rotate(-66.05)"/>
    <ellipse class="cls-8" cx="14.61" cy="10.19" rx=".02" ry=".06" transform="translate(2.11 22.88) rotate(-80.31)"/>
    <ellipse class="cls-8" cx="14.61" cy="10.25" rx=".06" ry=".02" transform="translate(-1.34 2.25) rotate(-8.42)"/>
    <ellipse class="cls-8" cx="14.61" cy="10.3" rx=".06" ry=".02" transform="translate(-2.52 5.19) rotate(-18.58)"/>
    <ellipse class="cls-8" cx="14.63" cy="10.36" rx=".06" ry=".02" transform="translate(-3.27 9.43) rotate(-32.33)"/>
    <ellipse class="cls-8" cx="15.35" cy="10.66" rx=".02" ry=".06" transform="translate(-2.15 4.11) rotate(-14.26)"/>
    <ellipse class="cls-8" cx="15.31" cy="10.68" rx=".02" ry=".06" transform="translate(-1.08 1.74) rotate(-6.3)"/>
    <ellipse class="cls-8" cx="15.25" cy="10.68" rx=".06" ry=".02" transform="translate(3.34 25) rotate(-85.25)"/>
    <ellipse class="cls-8" cx="15.2" cy="10.68" rx=".06" ry=".02" transform="translate(.21 21.66) rotate(-71.32)"/>
    <ellipse class="cls-8" cx="15.16" cy="10.66" rx=".06" ry=".02" transform="translate(-1.2 19.37) rotate(-63.16)"/>
    <ellipse class="cls-8" cx="15.11" cy="10.63" rx=".06" ry=".02" transform="translate(-2.64 15.76) rotate(-51.24)"/>
    <ellipse class="cls-8" cx="15.32" cy="9.87" rx=".02" ry=".06" transform="translate(-2.56 6.32) rotate(-21.57)"/>
    <ellipse class="cls-8" cx="15.36" cy="9.85" rx=".02" ry=".06" transform="translate(-1.87 3.85) rotate(-13.46)"/>
    <ellipse class="cls-8" cx="15.41" cy="9.83" rx=".02" ry=".06" transform="translate(-.39 .63) rotate(-2.32)"/>
    <ellipse class="cls-8" cx="15.47" cy="9.83" rx=".06" ry=".02" transform="translate(2.76 23.03) rotate(-78.51)"/>
    <ellipse class="cls-8" cx="15.51" cy="9.84" rx=".06" ry=".02" transform="translate(1.06 21.18) rotate(-70.51)"/>
    <ellipse class="cls-8" cx="15.56" cy="9.86" rx=".06" ry=".02" transform="translate(-.91 18.1) rotate(-58.95)"/>
    <ellipse class="cls-8" cx="16.31" cy="10.24" rx=".06" ry=".02" transform="translate(-2.91 9.01) rotate(-28.45)"/>
    <ellipse class="cls-8" cx="16.33" cy="10.28" rx=".06" ry=".02" transform="translate(-2.42 5.74) rotate(-18.58)"/>
    <ellipse class="cls-8" cx="16.35" cy="10.34" rx=".06" ry=".02" transform="translate(-.72 1.24) rotate(-4.26)"/>
    <ellipse class="cls-8" cx="16.35" cy="10.4" rx=".02" ry=".06" transform="translate(2.34 23.79) rotate(-76.16)"/>
    <ellipse class="cls-8" cx="16.34" cy="10.45" rx=".02" ry=".06" transform="translate(.16 21.14) rotate(-66.04)"/>
    <ellipse class="cls-8" cx="16.32" cy="10.51" rx=".02" ry=".06" transform="translate(-1.96 17.02) rotate(-52.39)"/>
  </g>
  <g>
    <path class="cls-12" d="m14.95,15.04s-.17.77.65,1.07,1.39.2,1.39.2c0,0,.33-.05.61-.26s.65-.61.6-1.01c0,0-.41.73-1.17.79s-1.46.02-2.08-.79Z"/>
    <ellipse class="cls-14" cx="16.59" cy="14.97" rx="1.63" ry="1.08" transform="translate(-.76 .89) rotate(-3.01)"/>
    <path class="cls-12" d="m16.07,14.16s.67-.31,1.21.04c.13.09-.02.16-.08.18-.03,0-.15.06-.22.14-.09.08-.11.1-.12.14-.02.06-.07-.05-.17-.06s-.22.13-.26.08c-.06-.08-.16-.11-.18-.16-.03-.09-.29-.18-.16-.35Z"/>
    <path class="cls-12" d="m17.75,14.38s.25.16.26.48c0,.16-.11.41-.26.6-.11.14-.38.26-.4.18,0-.04.01-.15-.07-.25-.04-.06-.09-.1-.13-.14-.05-.04-.05-.08.06-.09.09-.01.18-.05.19-.17.02-.26-.11-.14-.14-.17s.03-.15.08-.17c.1-.02.23-.46.4-.27Z"/>
    <path class="cls-12" d="m17.05,15.8s-.79.27-1.38-.18c-.15-.11.05-.2.12-.22.04,0,.18-.06.28-.15.08-.07.13-.15.17-.21.02-.03-.01.1.19.1s.22-.07.23-.04c.03.07.05.14.06.19.02.11.49.31.33.5Z"/>
    <path class="cls-12" d="m15.4,15.4s-.21-.17-.18-.45c.01-.15.14-.36.29-.52.11-.12.36-.2.36-.13,0,.03-.02.13.03.23.06.12.16.19.19.22.06.04-.11.02-.15.12s.16.16.12.19c-.09.05-.19.07-.25.08-.09.01-.28.44-.41.26Z"/>
    <ellipse class="cls-8" cx="15.85" cy="14.7" rx=".02" ry=".06" transform="translate(-5.18 19.71) rotate(-56.25)"/>
    <ellipse class="cls-8" cx="15.83" cy="14.75" rx=".02" ry=".06" transform="translate(-4.08 23.22) rotate(-66.05)"/>
    <ellipse class="cls-8" cx="15.81" cy="14.81" rx=".02" ry=".06" transform="translate(-1.45 27.89) rotate(-80.31)"/>
    <ellipse class="cls-8" cx="15.8" cy="14.86" rx=".06" ry=".02" transform="translate(-2.01 2.47) rotate(-8.42)"/>
    <ellipse class="cls-8" cx="15.8" cy="14.91" rx=".06" ry=".02" transform="translate(-3.93 5.81) rotate(-18.58)"/>
    <ellipse class="cls-8" cx="15.82" cy="14.97" rx=".06" ry=".02" transform="translate(-5.56 10.78) rotate(-32.33)"/>
    <ellipse class="cls-8" cx="16.54" cy="15.28" rx=".02" ry=".06" transform="translate(-3.25 4.55) rotate(-14.26)"/>
    <ellipse class="cls-8" cx="16.5" cy="15.29" rx=".02" ry=".06" transform="translate(-1.58 1.9) rotate(-6.3)"/>
    <ellipse class="cls-8" cx="16.44" cy="15.3" rx=".06" ry=".02" transform="translate(-.17 30.42) rotate(-85.25)"/>
    <ellipse class="cls-8" cx="16.39" cy="15.3" rx=".06" ry=".02" transform="translate(-3.35 25.93) rotate(-71.32)"/>
    <ellipse class="cls-8" cx="16.35" cy="15.28" rx=".06" ry=".02" transform="translate(-4.67 22.97) rotate(-63.16)"/>
    <ellipse class="cls-8" cx="16.3" cy="15.25" rx=".06" ry=".02" transform="translate(-5.79 18.41) rotate(-51.24)"/>
    <ellipse class="cls-8" cx="16.51" cy="14.49" rx=".02" ry=".06" transform="translate(-4.17 7.09) rotate(-21.57)"/>
    <ellipse class="cls-8" cx="16.55" cy="14.47" rx=".02" ry=".06" transform="translate(-2.91 4.25) rotate(-13.46)"/>
    <ellipse class="cls-8" cx="16.61" cy="14.45" rx=".02" ry=".06" transform="translate(-.57 .68) rotate(-2.32)"/>
    <ellipse class="cls-8" cx="16.66" cy="14.44" rx=".06" ry=".02" transform="translate(-.81 27.89) rotate(-78.51)"/>
    <ellipse class="cls-8" cx="16.7" cy="14.45" rx=".06" ry=".02" transform="translate(-2.5 25.38) rotate(-70.51)"/>
    <ellipse class="cls-8" cx="16.75" cy="14.48" rx=".06" ry=".02" transform="translate(-4.29 21.36) rotate(-58.95)"/>
    <ellipse class="cls-8" cx="17.51" cy="14.85" rx=".06" ry=".02" transform="translate(-4.96 10.13) rotate(-28.45)"/>
    <ellipse class="cls-8" cx="17.52" cy="14.9" rx=".06" ry=".02" transform="translate(-3.83 6.36) rotate(-18.58)"/>
    <ellipse class="cls-8" cx="17.54" cy="14.96" rx=".06" ry=".02" transform="translate(-1.06 1.34) rotate(-4.26)"/>
    <ellipse class="cls-8" cx="17.54" cy="15.02" rx=".02" ry=".06" transform="translate(-1.24 28.46) rotate(-76.16)"/>
    <ellipse class="cls-8" cx="17.53" cy="15.07" rx=".02" ry=".06" transform="translate(-3.35 24.97) rotate(-66.04)"/>
    <ellipse class="cls-8" cx="17.51" cy="15.12" rx=".02" ry=".06" transform="translate(-5.15 19.77) rotate(-52.39)"/>
  </g>
  <g>
    <path class="cls-5" d="m15.7,14.83s.09.22.05.39-.08.29-.06.48.04.29-.04.39-.14.21-.14.21c0,0-.22.22-.38.19s-.22-.14-.22-.14c0,0-.02-.04-.1-.09s-.2-.09-.21-.3.01-.31.15-.42.21-.25.25-.29.24-.11.24-.11c0,0,.13-.08.16-.13s.26-.33.3-.18Z"/>
    <path class="cls-7" d="m12.33,17.3s-.06.02-.1-.04-.27-.77-.28-.79-.18-.49-.19-.61c0,0,.07.06.05-.02s-.14-.21-.14-.49.06-.2.06-.2c0,0,.12.08.09-.05s-.04-.17.07-.13.12-.13.12-.13c0,0,.04-.14.2.23s.95,1.37.63,1.74c0,0-.13-.01-.31.14s-.2.34-.2.34Z"/>
    <path class="cls-3" d="m12.35,17.31s-.2.04.16.56c.36.56.85.61.85.61.19.65.77.45.77.45,0,0,.24.56,1.21.16.97-.4.67-.56.78-.57s.4-.46.57-.86-.02-.85-.02-.85c.08-.86-.4-1.22-.4-1.22,0-.11-.13-.17-.26-.44s-.31-.33-.31-.33c0,0,.09.22.05.39s-.08.29-.06.48.04.29-.04.39-.14.21-.14.21c0,0-.21.2-.38.19-.02.08.08.15.08.15-.08.25,0,.52,0,.52-.22.09-.23.45-.23.45,0,0-.44-.02-.54.12-.13-.29-.41-.18-.41-.18-.02-.43-1.19-.71-1.18-.72,0,0-.11-.02-.31.14s-.2.34-.2.34Z"/>
    <path class="cls-2" d="m15.18,16.52s0,.07.06.08.32-.17.36-.24.08-.25.11-.28-.03-.01-.14.16-.29.27-.39.27Z"/>
    <path class="cls-2" d="m16.28,15.66s0,.32-.16.61c0,0,.06-.01.1-.11s.17-.38.12-.45c-.06-.08-.06-.06-.06-.06Z"/>
    <path class="cls-2" d="m16.64,16.86s-.09.25-.53.33c0,0,.03.03.1.02.19-.03.46-.12.47-.21,0-.05.01-.08-.04-.13Z"/>
    <path class="cls-2" d="m16.07,18.53c-.22-.1-.43-.25-.63-.42,0,0,.44.59.55.57.08-.05.07-.15.07-.15Z"/>
    <path class="cls-2" d="m14.12,18.85s0-.46.13-.64c0,0-.19.16-.23.65,0,0,.03.04.1,0Z"/>
    <path class="cls-2" d="m13.38,18.41s.06-.39.27-.54c0,0-.23.12-.35.44-.03.11.08.1.08.1Z"/>
    <path class="cls-1" d="m15.6,14.86s.07-.07.09.01.03.11.04.19c.02.1-.05.25-.07.39-.05,0-.03-.2-.01-.28.03-.1,0-.14-.01-.19s-.07-.09-.04-.13Z"/>
  </g>
  <g>
    <path class="cls-5" d="m16.8,15.32s.09.22.05.39-.08.29-.06.48.04.29-.04.39-.14.21-.14.21c0,0-.22.22-.38.19s-.22-.14-.22-.14c0,0-.02-.04-.1-.09s-.2-.09-.21-.3.01-.31.15-.42.21-.25.25-.29.24-.11.24-.11c0,0,.13-.08.16-.13s.26-.33.3-.18Z"/>
    <path class="cls-7" d="m13.43,17.8s-.06.02-.1-.04-.27-.77-.28-.79-.18-.49-.19-.61c0,0,.07.06.05-.02s-.14-.21-.14-.49.06-.2.06-.2c0,0,.12.08.09-.05s-.04-.17.07-.13.12-.13.12-.13c0,0,.04-.14.2.23s.95,1.37.63,1.74c0,0-.13-.01-.31.14s-.2.34-.2.34Z"/>
    <path class="cls-3" d="m13.45,17.81s-.2.04.16.56c.36.56.85.61.85.61.19.65.77.45.77.45,0,0,.24.56,1.21.16s.67-.56.78-.57.4-.46.57-.86-.02-.85-.02-.85c.08-.86-.4-1.22-.4-1.22,0-.11-.13-.17-.26-.44s-.31-.33-.31-.33c0,0,.09.22.05.39s-.08.29-.06.48.04.29-.04.39-.14.21-.14.21c0,0-.21.2-.38.19-.02.08.08.15.08.15-.08.25,0,.52,0,.52-.22.09-.23.45-.23.45,0,0-.44-.02-.54.12-.13-.29-.41-.18-.41-.18-.02-.43-1.19-.71-1.18-.72,0,0-.11-.02-.31.14s-.2.34-.2.34Z"/>
    <path class="cls-2" d="m16.27,17.02s0,.07.06.08.32-.17.36-.24.08-.25.11-.28-.03-.01-.14.16-.29.27-.39.27Z"/>
    <path class="cls-2" d="m17.37,16.15s0,.32-.16.61c0,0,.06-.01.1-.11s.17-.38.12-.45c-.06-.08-.06-.06-.06-.06Z"/>
    <path class="cls-2" d="m17.74,17.35s-.09.25-.53.33c0,0,.03.03.1.02.19-.03.46-.12.47-.21,0-.05.01-.08-.04-.13Z"/>
    <path class="cls-2" d="m17.16,19.03c-.22-.1-.43-.25-.63-.42,0,0,.44.59.55.57.08-.05.07-.15.07-.15Z"/>
    <path class="cls-2" d="m15.22,19.35s0-.46.13-.64c0,0-.19.16-.23.65,0,0,.03.04.1,0Z"/>
    <path class="cls-2" d="m14.47,18.91s.06-.39.27-.54c0,0-.23.12-.35.44-.03.11.08.1.08.1Z"/>
    <path class="cls-1" d="m16.69,15.35s.07-.07.09.01.03.11.04.19c.02.1-.05.25-.07.39-.05,0-.03-.2-.01-.28.03-.1,0-.14-.01-.19s-.07-.09-.04-.13Z"/>
  </g>
  <g>
    <path class="cls-12" d="m19.24,12.03s-.17.77.65,1.07,1.39.2,1.39.2c0,0,.33-.05.61-.26s.65-.61.6-1.01c0,0-.41.73-1.17.79s-1.46.02-2.08-.79Z"/>
    <ellipse class="cls-14" cx="20.87" cy="11.96" rx="1.63" ry="1.08" transform="translate(-.6 1.11) rotate(-3.01)"/>
    <path class="cls-12" d="m20.36,11.15s.67-.31,1.21.04c.13.09-.02.16-.08.18-.03,0-.15.06-.22.14-.09.08-.11.1-.12.14-.02.06-.07-.05-.17-.06s-.22.13-.26.08c-.06-.08-.16-.11-.18-.16-.03-.09-.29-.18-.16-.35Z"/>
    <path class="cls-12" d="m22.03,11.37s.25.16.26.48c0,.16-.11.41-.26.6-.11.14-.38.26-.4.18,0-.04.01-.15-.07-.25-.04-.06-.09-.1-.13-.14-.05-.04-.05-.08.06-.09.09-.01.18-.05.19-.17.02-.26-.11-.14-.14-.17s.03-.15.08-.17c.1-.02.23-.46.4-.27Z"/>
    <path class="cls-12" d="m21.33,12.79s-.79.27-1.38-.18c-.15-.11.05-.2.12-.22.04,0,.18-.06.28-.15.08-.07.13-.15.17-.21.02-.03-.01.1.19.1s.22-.07.23-.04c.03.07.05.14.06.19.02.11.49.31.33.5Z"/>
    <path class="cls-12" d="m19.69,12.39s-.21-.17-.18-.45c.01-.15.14-.36.29-.52.11-.12.36-.2.36-.13,0,.03-.02.13.03.23.06.12.16.19.19.22.06.04-.11.02-.15.12s.16.16.12.19c-.09.05-.19.07-.25.08-.09.01-.28.44-.41.26Z"/>
    <ellipse class="cls-8" cx="20.13" cy="11.69" rx=".02" ry=".06" transform="translate(-.78 21.94) rotate(-56.25)"/>
    <ellipse class="cls-8" cx="20.11" cy="11.74" rx=".02" ry=".06" transform="translate(1.22 25.35) rotate(-66.05)"/>
    <ellipse class="cls-8" cx="20.09" cy="11.8" rx=".02" ry=".06" transform="translate(5.08 29.61) rotate(-80.31)"/>
    <ellipse class="cls-8" cx="20.08" cy="11.85" rx=".06" ry=".02" transform="translate(-1.52 3.07) rotate(-8.42)"/>
    <ellipse class="cls-8" cx="20.09" cy="11.9" rx=".06" ry=".02" transform="translate(-2.75 7.02) rotate(-18.58)"/>
    <ellipse class="cls-8" cx="20.1" cy="11.96" rx=".06" ry=".02" transform="translate(-3.28 12.61) rotate(-32.33)"/>
    <ellipse class="cls-8" cx="20.83" cy="12.27" rx=".02" ry=".06" transform="translate(-2.38 5.51) rotate(-14.26)"/>
    <ellipse class="cls-8" cx="20.78" cy="12.28" rx=".02" ry=".06" transform="translate(-1.22 2.36) rotate(-6.3)"/>
    <ellipse class="cls-8" cx="20.73" cy="12.29" rx=".06" ry=".02" transform="translate(6.76 31.93) rotate(-85.25)"/>
    <ellipse class="cls-8" cx="20.68" cy="12.29" rx=".06" ry=".02" transform="translate(2.41 27.94) rotate(-71.32)"/>
    <ellipse class="cls-8" cx="20.64" cy="12.27" rx=".06" ry=".02" transform="translate(.37 25.14) rotate(-63.16)"/>
    <ellipse class="cls-8" cx="20.59" cy="12.24" rx=".06" ry=".02" transform="translate(-1.85 20.63) rotate(-51.24)"/>
    <ellipse class="cls-8" cx="20.8" cy="11.48" rx=".02" ry=".06" transform="translate(-2.76 8.45) rotate(-21.57)"/>
    <ellipse class="cls-8" cx="20.84" cy="11.46" rx=".02" ry=".06" transform="translate(-2.09 5.16) rotate(-13.46)"/>
    <ellipse class="cls-8" cx="20.89" cy="11.44" rx=".02" ry=".06" transform="translate(-.45 .86) rotate(-2.32)"/>
    <ellipse class="cls-8" cx="20.94" cy="11.43" rx=".06" ry=".02" transform="translate(5.57 29.68) rotate(-78.51)"/>
    <ellipse class="cls-8" cx="20.99" cy="11.44" rx=".06" ry=".02" transform="translate(3.2 27.41) rotate(-70.51)"/>
    <ellipse class="cls-8" cx="21.04" cy="11.47" rx=".06" ry=".02" transform="translate(.36 23.57) rotate(-58.95)"/>
    <ellipse class="cls-8" cx="21.79" cy="11.84" rx=".06" ry=".02" transform="translate(-3.01 11.81) rotate(-28.45)"/>
    <ellipse class="cls-8" cx="21.81" cy="11.89" rx=".06" ry=".02" transform="translate(-2.65 7.57) rotate(-18.58)"/>
    <ellipse class="cls-8" cx="21.82" cy="11.95" rx=".06" ry=".02" transform="translate(-.83 1.65) rotate(-4.26)"/>
    <ellipse class="cls-8" cx="21.83" cy="12.01" rx=".02" ry=".06" transform="translate(4.95 30.33) rotate(-76.16)"/>
    <ellipse class="cls-8" cx="21.82" cy="12.06" rx=".02" ry=".06" transform="translate(1.94 27.1) rotate(-66.04)"/>
    <ellipse class="cls-8" cx="21.8" cy="12.11" rx=".02" ry=".06" transform="translate(-1.1 21.99) rotate(-52.39)"/>
  </g>
  <g>
    <path class="cls-5" d="m12.81,15.34s-.21.08-.29.23-.13.26-.28.38-.22.17-.23.3-.04.26-.04.26c0,0,.01.33.14.43s.25.08.25.08c0,0,.04-.01.13.02s.2.1.34-.04.19-.23.18-.41.02-.34.02-.4-.1-.27-.1-.27c0,0-.04-.16-.02-.21s.03-.43-.1-.36Z"/>
    <path class="cls-7" d="m13.52,19.73s.03.06.09.05.69-.32.71-.33.45-.2.53-.27c0,0-.08-.01-.02-.05s.23-.04.42-.22.09-.19.09-.19c0,0-.13-.04-.03-.11s.14-.08.03-.15,0-.19,0-.19c0,0,.06-.13-.29,0s-1.56.19-1.58.7c0,0,.09.09.13.34s-.08.4-.08.4Z"/>
    <path class="cls-3" d="m13.5,19.72s.11.18-.48.26c-.62.1-.99-.25-.99-.25-.56.29-.83-.3-.83-.3,0,0-.53.2-.94-.85s-.1-.92-.17-1.01.03-.64.17-1.04.57-.57.57-.57c.51-.66,1.08-.52,1.08-.52.06-.08.2-.02.46-.1s.43.02.43.02c0,0-.21.08-.29.23s-.13.26-.28.38-.22.17-.23.3-.04.26-.04.26c0,0,0,.31.14.43-.04.07-.15.04-.15.04-.11.24-.35.36-.35.36.09.23-.13.49-.13.49,0,0,.32.33.29.51.28-.1.4.2.4.2.3-.28,1.29.45,1.29.43,0,0,.09.08.12.35s-.08.39-.08.39Z"/>
    <path class="cls-2" d="m12.06,16.93s-.04.05-.1,0-.11-.37-.09-.45.11-.24.11-.28.03.02,0,.22.03.41.1.5Z"/>
    <path class="cls-2" d="m11.86,15.46s-.21.23-.29.55c0,0-.03-.05,0-.15s.13-.4.21-.4c.09,0,.08,0,.08,0Z"/>
    <path class="cls-2" d="m10.82,16.01s-.1.24.15.65c0,0-.04,0-.08-.07-.11-.17-.24-.44-.19-.52.04-.04.05-.07.11-.06Z"/>
    <path class="cls-2" d="m10.12,17.62c.22.11.46.17.71.21,0,0-.69.06-.76-.04-.03-.1.05-.16.05-.16Z"/>
    <path class="cls-2" d="m11.26,19.39s.3-.31.33-.55c0,0,.03.26-.27.63,0,0-.05,0-.07-.08Z"/>
    <path class="cls-2" d="m12.07,19.67s.21-.31.16-.59c0,0,.08.27-.04.58-.05.1-.12,0-.12,0Z"/>
    <path class="cls-1" d="m12.86,15.45s0-.11-.07-.06-.09.05-.15.1c-.08.06-.13.21-.21.32.04.04.16-.12.19-.18.05-.09.09-.1.13-.12s.11,0,.11-.06Z"/>
  </g>
  <g>
    <path class="cls-5" d="m15.84,10.13s.2-.09.36-.03.25.11.43.09.27-.02.35.07.18.17.18.17c0,0,.18.26.15.42s-.14.24-.14.24c0,0-.04.02-.08.11s-.1.22-.29.21-.28-.04-.37-.19-.21-.24-.25-.29-.09-.28-.09-.28c0,0-.06-.15-.11-.18s-.28-.3-.14-.34Z"/>
    <path class="cls-7" d="m17.87,13.99s.01.07-.04.1-.72.25-.74.25-.46.16-.56.17c0,0,.06-.07-.02-.06s-.2.14-.45.13-.18-.08-.18-.08c0,0,.08-.13-.04-.1s-.15.03-.11-.09-.11-.14-.11-.14c0,0-.12-.05.22-.2s1.3-.96,1.62-.58c0,0-.02.14.1.35s.3.24.3.24Z"/>
    <path class="cls-3" d="m17.88,13.97s.02.22.52-.15c.53-.36.61-.9.61-.9.6-.17.45-.82.45-.82,0,0,.52-.22.22-1.32s-.46-.77-.47-.89-.4-.46-.74-.68-.77-.03-.77-.03c-.78-.14-1.13.36-1.13.36-.1-.02-.17.13-.41.25s-.32.32-.32.32c0,0,.2-.09.36-.03s.25.11.43.09.27-.02.35.07.18.17.18.17c0,0,.17.24.15.42.07.03.14-.08.14-.08.22.1.48.03.48.03.06.24.39.28.39.28,0,0-.05.48.08.6-.27.12-.19.43-.19.43-.39,0-.72,1.26-.73,1.25,0,0-.02.13.11.35s.29.24.29.24Z"/>
    <path class="cls-2" d="m17.34,10.81s.06,0,.08-.06-.13-.36-.19-.41-.22-.11-.25-.14-.02.04.14.16.22.33.22.45Z"/>
    <path class="cls-2" d="m16.63,9.55s.29.02.55.22c0,0,0-.06-.09-.12s-.33-.21-.4-.16c-.07.06-.06.06-.06.06Z"/>
    <path class="cls-2" d="m17.74,9.23s.22.11.27.6c0,0,.03-.04.02-.1-.01-.21-.08-.51-.16-.53-.05,0-.07-.02-.12.03Z"/>
    <path class="cls-2" d="m19.22,9.97c-.11.24-.25.46-.42.66,0,0,.56-.45.55-.57-.04-.09-.13-.09-.13-.09Z"/>
    <path class="cls-2" d="m19.39,12.12s-.41-.02-.58-.18c0,0,.13.22.57.29,0,0,.04-.03,0-.11Z"/>
    <path class="cls-2" d="m18.94,12.91s-.35-.09-.47-.33c0,0,.09.26.37.42.1.04.1-.08.1-.08Z"/>
    <path class="cls-1" d="m15.86,10.25s-.06-.08.02-.09.1-.03.17-.04c.09-.01.22.07.35.1,0,.06-.19.02-.25,0-.09-.04-.13-.01-.17,0s-.09.07-.12.04Z"/>
  </g>
  <g>
    <path class="cls-5" d="m14.78,11.31s.1.21.07.39-.07.29-.04.49.05.29-.02.4-.13.21-.13.21c0,0-.21.23-.37.21s-.23-.13-.23-.13c0,0-.02-.04-.1-.08s-.21-.08-.22-.29,0-.31.13-.43.2-.26.23-.31.24-.13.24-.13c0,0,.13-.09.15-.14s.24-.34.3-.19Z"/>
    <path class="cls-7" d="m11.52,13.98s-.06.02-.1-.03-.31-.75-.31-.78-.2-.48-.22-.59c0,0,.07.05.05-.02s-.15-.21-.17-.48.05-.2.05-.2c0,0,.12.07.09-.05s-.05-.16.07-.13.12-.14.12-.14c0,0,.03-.14.21.22s1.01,1.32.71,1.71c0,0-.13,0-.31.15s-.19.35-.19.35Z"/>
    <path class="cls-3" d="m11.55,13.99s-.2.05.19.55c.39.54.88.56.88.56.22.63.79.4.79.4,0,0,.26.54,1.22.09.95-.46.64-.6.75-.61s.37-.49.53-.89-.06-.85-.06-.85c.04-.87-.46-1.19-.46-1.19,0-.11-.13-.17-.28-.42s-.33-.31-.33-.31c0,0,.1.21.07.39s-.07.29-.04.49.05.29-.02.4-.13.21-.13.21c0,0-.2.22-.37.21-.02.08.08.15.08.15-.07.25.03.52.03.52-.21.1-.21.46-.21.46,0,0-.44,0-.53.16-.14-.29-.41-.16-.41-.16-.04-.43-1.22-.64-1.21-.66,0,0-.12,0-.31.16s-.18.35-.18.35Z"/>
    <path class="cls-2" d="m14.33,13.03s0,.06.07.08.31-.18.35-.26.07-.26.1-.28-.03-.01-.13.17-.28.28-.38.29Z"/>
    <path class="cls-2" d="m15.39,12.11s.01.32-.13.62c0,0,.06-.02.1-.11s.15-.39.1-.45c-.06-.07-.06-.06-.06-.06Z"/>
    <path class="cls-2" d="m15.81,13.29s-.08.26-.51.36c0,0,.04.02.1.01.19-.04.45-.14.46-.24,0-.05,0-.08-.04-.13Z"/>
    <path class="cls-2" d="m15.31,15c-.23-.09-.44-.22-.64-.38,0,0,.47.56.58.54.08-.05.07-.16.07-.16Z"/>
    <path class="cls-2" d="m13.38,15.42s-.03-.46.1-.65c0,0-.18.17-.2.66,0,0,.03.04.1,0Z"/>
    <path class="cls-2" d="m12.62,15.03s.04-.39.25-.55c0,0-.23.13-.33.46-.03.11.09.1.09.1Z"/>
    <path class="cls-1" d="m14.67,11.35s.07-.08.09,0,.04.11.05.19c.02.1-.04.25-.05.4-.05,0-.04-.2-.02-.28.02-.11,0-.14-.02-.19s-.07-.09-.05-.13Z"/>
  </g>
  <g>
    <path class="cls-5" d="m13.89,8.91s-.19.11-.25.28-.09.28-.21.43-.19.21-.18.34,0,.26,0,.26c0,0,.06.32.2.39s.26.03.26.03c0,0,.04-.02.13,0s.21.06.33-.11.15-.26.11-.44-.04-.33-.04-.4-.14-.25-.14-.25c0,0-.06-.15-.06-.21s-.04-.43-.15-.34Z"/>
    <path class="cls-7" d="m15.3,13.09s.04.06.1.03.63-.45.65-.46.41-.28.48-.37c0,0-.08,0-.03-.05s.22-.08.38-.3.06-.2.06-.2c0,0-.14-.01-.05-.1s.12-.11,0-.15-.03-.19-.03-.19c0,0,.04-.14-.28.06s-1.5.5-1.44,1c0,0,.11.07.18.31s-.02.41-.02.41Z"/>
    <path class="cls-3" d="m15.27,13.08s.14.16-.43.35c-.59.22-1.02-.06-1.02-.06-.5.4-.86-.14-.86-.14,0,0-.49.3-1.06-.66s-.24-.88-.33-.96-.07-.63,0-1.06.47-.67.47-.67c.39-.75.98-.73.98-.73.05-.09.2-.06.44-.19s.43-.07.43-.07c0,0-.19.11-.25.28s-.09.28-.21.43-.19.21-.18.34,0,.26,0,.26c0,0,.06.3.2.39-.03.08-.14.07-.14.07-.07.25-.28.42-.28.42.13.21-.05.51-.05.51,0,0,.36.27.37.45.26-.16.42.12.42.12.25-.33,1.34.19,1.34.17,0,0,.1.06.18.32s-.02.4-.02.4Z"/>
    <path class="cls-2" d="m13.41,10.62s-.03.05-.1.03-.17-.34-.16-.42.07-.26.06-.3.03.01.03.22.09.4.18.47Z"/>
    <path class="cls-2" d="m12.98,9.21s-.17.26-.19.6c0,0-.04-.05-.02-.15s.07-.42.14-.44c.09-.03.08-.01.08-.01Z"/>
    <path class="cls-2" d="m12.04,9.95s-.06.26.25.61c0,0-.04,0-.09-.05-.14-.15-.31-.39-.27-.47.03-.04.03-.07.1-.08Z"/>
    <path class="cls-2" d="m11.61,11.67c.23.06.48.08.73.06,0,0-.67.19-.75.11-.04-.09.02-.17.02-.17Z"/>
    <path class="cls-2" d="m13.02,13.19s.25-.37.24-.6c0,0,.07.25-.16.67,0,0-.05.01-.08-.07Z"/>
    <path class="cls-2" d="m13.86,13.31s.16-.35.07-.61c0,0,.13.25.05.58-.03.11-.12.03-.12.03Z"/>
    <path class="cls-1" d="m13.95,9s-.02-.11-.08-.04-.08.07-.14.12c-.07.07-.09.23-.16.36.04.03.13-.14.16-.22.03-.1.07-.12.11-.14s.11-.03.1-.08Z"/>
  </g>
  <g>
    <path class="cls-5" d="m16.06,9.82s-.18.14-.22.31-.06.29-.17.45-.16.23-.14.36.03.26.03.26c0,0,.09.31.24.37s.26,0,.26,0c0,0,.04-.02.13-.02s.22.03.32-.15.13-.28.06-.45-.07-.33-.08-.39-.16-.23-.16-.23c0,0-.08-.14-.08-.2s-.08-.42-.19-.32Z"/>
    <path class="cls-7" d="m17.87,13.8s.04.05.1.02.58-.52.6-.54.38-.33.44-.42c0,0-.08.01-.03-.04s.21-.11.34-.34.04-.21.04-.21c0,0-.14,0-.06-.09s.11-.12,0-.15-.05-.18-.05-.18c0,0,.03-.14-.27.09s-1.44.67-1.34,1.17c0,0,.11.06.21.29s.02.41.02.41Z"/>
    <path class="cls-3" d="m17.85,13.8s.16.14-.39.4c-.56.29-1.02.07-1.02.07-.46.46-.87-.03-.87-.03,0,0-.46.36-1.12-.52s-.33-.85-.42-.92-.14-.62-.11-1.05.4-.73.4-.73c.32-.79.9-.84.9-.84.04-.1.19-.08.42-.24s.42-.12.42-.12c0,0-.18.14-.22.31s-.06.29-.17.45-.16.23-.14.36.03.26.03.26c0,0,.09.29.24.37-.02.08-.14.09-.14.09-.04.26-.24.45-.24.45.15.19,0,.52,0,.52,0,0,.39.22.41.4.24-.19.43.06.43.06.22-.36,1.35.03,1.35.01,0,0,.11.05.21.3s.02.4.02.4Z"/>
    <path class="cls-2" d="m15.75,11.58s-.03.06-.09.04-.2-.32-.21-.4.04-.26.03-.3.04,0,.05.22.13.39.22.45Z"/>
    <path class="cls-2" d="m15.18,10.23s-.14.28-.13.62c0,0-.04-.04-.04-.15s.02-.42.1-.45c.08-.04.08-.02.08-.02Z"/>
    <path class="cls-2" d="m14.33,11.07s-.04.27.31.57c0,0-.04,0-.09-.04-.15-.13-.34-.35-.31-.44.02-.05.03-.08.09-.1Z"/>
    <path class="cls-2" d="m14.07,12.84c.24.03.48.02.73-.02,0,0-.65.27-.74.2-.05-.09,0-.17,0-.17Z"/>
    <path class="cls-2" d="m15.62,14.18s.21-.39.18-.63c0,0,.1.24-.09.69,0,0-.05.02-.09-.06Z"/>
    <path class="cls-2" d="m16.47,14.2s.12-.37,0-.61c0,0,.15.23.11.57-.02.11-.12.04-.12.04Z"/>
    <path class="cls-1" d="m16.13,9.9s-.03-.1-.08-.03-.08.08-.12.14c-.06.08-.07.24-.12.38.05.03.12-.16.14-.24.02-.1.06-.13.1-.16s.1-.04.09-.09Z"/>
  </g>
  <g>
    <path class="cls-12" d="m16.48,12.65s-.17.77.65,1.07,1.39.2,1.39.2c0,0,.33-.05.61-.26s.65-.61.6-1.01c0,0-.41.73-1.17.79s-1.46.02-2.08-.79Z"/>
    <ellipse class="cls-14" cx="18.11" cy="12.58" rx="1.63" ry="1.08" transform="translate(-.64 .97) rotate(-3.01)"/>
    <path class="cls-12" d="m17.6,11.77s.67-.31,1.21.04c.13.09-.02.16-.08.18-.03,0-.15.06-.22.14-.09.08-.11.1-.12.14-.02.06-.07-.05-.17-.06s-.22.13-.26.08c-.06-.08-.16-.11-.18-.16-.03-.09-.29-.18-.16-.35Z"/>
    <path class="cls-12" d="m19.27,11.99s.25.16.26.48c0,.16-.11.41-.26.6-.11.14-.38.26-.4.18,0-.04.01-.15-.07-.25-.04-.06-.09-.1-.13-.14-.05-.04-.05-.08.06-.09.09-.01.18-.05.19-.17.02-.26-.11-.14-.14-.17s.03-.15.08-.17c.1-.02.23-.46.4-.27Z"/>
    <path class="cls-12" d="m18.57,13.41s-.79.27-1.38-.18c-.15-.11.05-.2.12-.22.04,0,.18-.06.28-.15.08-.07.13-.15.17-.21.02-.03-.01.1.19.1s.22-.07.23-.04c.03.07.05.14.06.19.02.11.49.31.33.5Z"/>
    <path class="cls-12" d="m16.92,13.01s-.21-.17-.18-.45c.01-.15.14-.36.29-.52.11-.12.36-.2.36-.13,0,.03-.02.13.03.23.06.12.16.19.19.22.06.04-.11.02-.15.12s.16.16.12.19c-.09.05-.19.07-.25.08-.09.01-.28.44-.41.26Z"/>
    <ellipse class="cls-8" cx="17.37" cy="12.31" rx=".02" ry=".06" transform="translate(-2.52 19.91) rotate(-56.25)"/>
    <ellipse class="cls-8" cx="17.35" cy="12.35" rx=".02" ry=".06" transform="translate(-.98 23.19) rotate(-66.05)"/>
    <ellipse class="cls-8" cx="17.33" cy="12.41" rx=".02" ry=".06" transform="translate(2.18 27.4) rotate(-80.31)"/>
    <ellipse class="cls-8" cx="17.32" cy="12.47" rx=".06" ry=".02" transform="translate(-1.64 2.67) rotate(-8.42)"/>
    <ellipse class="cls-8" cx="17.33" cy="12.52" rx=".06" ry=".02" transform="translate(-3.09 6.17) rotate(-18.58)"/>
    <ellipse class="cls-8" cx="17.34" cy="12.58" rx=".06" ry=".02" transform="translate(-4.04 11.23) rotate(-32.33)"/>
    <ellipse class="cls-8" cx="18.06" cy="12.89" rx=".02" ry=".06" transform="translate(-2.62 4.85) rotate(-14.26)"/>
    <ellipse class="cls-8" cx="18.02" cy="12.9" rx=".02" ry=".06" transform="translate(-1.31 2.06) rotate(-6.3)"/>
    <ellipse class="cls-8" cx="17.97" cy="12.91" rx=".06" ry=".02" transform="translate(3.62 29.74) rotate(-85.25)"/>
    <ellipse class="cls-8" cx="17.91" cy="12.9" rx=".06" ry=".02" transform="translate(-.05 25.74) rotate(-71.32)"/>
    <ellipse class="cls-8" cx="17.87" cy="12.89" rx=".06" ry=".02" transform="translate(-1.69 23.02) rotate(-63.16)"/>
    <ellipse class="cls-8" cx="17.83" cy="12.86" rx=".06" ry=".02" transform="translate(-3.36 18.71) rotate(-51.24)"/>
    <ellipse class="cls-8" cx="18.04" cy="12.09" rx=".02" ry=".06" transform="translate(-3.18 7.48) rotate(-21.57)"/>
    <ellipse class="cls-8" cx="18.08" cy="12.07" rx=".02" ry=".06" transform="translate(-2.31 4.54) rotate(-13.46)"/>
    <ellipse class="cls-8" cx="18.13" cy="12.05" rx=".02" ry=".06" transform="translate(-.47 .74) rotate(-2.32)"/>
    <ellipse class="cls-8" cx="18.18" cy="12.05" rx=".06" ry=".02" transform="translate(2.75 27.47) rotate(-78.51)"/>
    <ellipse class="cls-8" cx="18.22" cy="12.06" rx=".06" ry=".02" transform="translate(.77 25.22) rotate(-70.51)"/>
    <ellipse class="cls-8" cx="18.28" cy="12.08" rx=".06" ry=".02" transform="translate(-1.5 21.51) rotate(-58.95)"/>
    <ellipse class="cls-8" cx="19.03" cy="12.46" rx=".06" ry=".02" transform="translate(-3.64 10.57) rotate(-28.45)"/>
    <ellipse class="cls-8" cx="19.05" cy="12.5" rx=".06" ry=".02" transform="translate(-2.99 6.72) rotate(-18.58)"/>
    <ellipse class="cls-8" cx="19.06" cy="12.56" rx=".06" ry=".02" transform="translate(-.88 1.45) rotate(-4.26)"/>
    <ellipse class="cls-8" cx="19.07" cy="12.62" rx=".02" ry=".06" transform="translate(2.25 28.11) rotate(-76.16)"/>
    <ellipse class="cls-8" cx="19.06" cy="12.67" rx=".02" ry=".06" transform="translate(-.26 24.94) rotate(-66.04)"/>
    <ellipse class="cls-8" cx="19.04" cy="12.73" rx=".02" ry=".06" transform="translate(-2.67 20.04) rotate(-52.39)"/>
  </g>
</svg>