<?xml version="1.0" encoding="UTF-8"?><svg id="Livello_2" xmlns="http://www.w3.org/2000/svg" viewBox="0 0 29.0773532794 19.1943359375"><defs><style>.cls-1{fill:#fff;}.cls-2{fill:#999;}.cls-3{fill:#7d6b5e;}.cls-4{fill:#bf5557;}.cls-5{fill:#ddd;}.cls-6{fill:#d2d3d2;}.cls-7{fill:#c5686a;}.cls-8{fill:#dfcb8b;}.cls-9{fill:#e1e1e1;}.cls-10{fill:#180607;}.cls-11{fill:#3f3f3f;}.cls-12{fill:#6e6e6e;}.cls-13{fill:#6e6e6d;}.cls-14{fill:#5a5a5a;}</style></defs><g id="Who_is_at_risk"><g id="ic__black_Butchers_meat-packing_employees_personnel_in_slaughterhouses"><path class="cls-1" d="m25.0452612906,10.8090820312c1.2487792969-.8436889648,2.4178466797-1.6423339844,3.0915527344-2.1240234375.0616455078-.0367431641.2288818359-.1447143555.4139404297-.303894043.0206298828-.0159301758.0532226562-.0394897461.0701904297-.0530395508.0336914062-.0270385742.0489501953-.0589599609.0791015625-.0869750977.0480957031-.048828125.095703125-.0983886719.1387939453-.1527099609.0491943359-.0619506836.0943603516-.1245117188.1273193359-.1904907227.0524902344-.0946044922.0869140625-.1942749023.1027832031-.2974243164.0007324219-.0051269531.0046386719-.0094604492.0051269531-.0145874023.0017089844-.0155029297-.0048828125-.0301513672-.00390625-.0455932617.0035400391-.0522460938.0124511719-.1039428711.0029296875-.1575317383-.0076904297-.0440063477-.017578125-.0750732422-.0262451172-.1137084961-.0091552734-.0448608398-.0167236328-.0892333984-.0308837891-.1333007812-.0668945312-.2315063477-.1446533203-.3432006836-.1752929688-.3858032227-.0009765625-.0014648438-.0032958984-.0008544922-.0043945312-.0022583008-.126953125-.2109985352-.2819824219-.4102172852-.4252929688-.5875854492-.076171875-.09375-.146484375-.181640625-.203125-.259765625-.2238769531-.3145751953-1.0427246094-1.2026977539-1.7058105469-1.9092407227.2197265625-.1321411133.4715576172-.2413330078.7370605469-.3417358398.5146484375-.20703125,1.09765625-.4423828125,1.4267578125-.9287109375.1455078125-.224609375.2314453125-.4912109375.2421875-.7509765625.03515625-.859375-.666015625-1.513671875-1.3330078125-1.7587890625-.28125-.1044921875-.580078125-.16796875-.888671875-.1884765625h-.0046386719c-.0083007812-.0012207031-.0118408203-.0026245117-.0207519531-.00390625-.107421875-.0126953125-.21875-.0185546875-.3310546875-.0185546875-.1572265625,0-.3173828125.0107421875-.4775390625.0224609375-1.9482421875.18359375-3.8212890625.685546875-5.568359375,1.494140625l-.3017578125.1416015625.0076904297.0150146484c-.0693359375.0180664062-.1475830078.018737793-.2059326172.0543212891-.4262695312.2647094727-1.4229736328.8396606445-2.736328125,1.35546875-.2004394531-.5992431641-.5321044922-1.2133789062-.9423828125-1.642578125-.4033203125-.423828125-1.654296875-.6865234375-3.2646484375-.6865234375-2.2724609375,0-4.537109375.517578125-6.0556640625,1.3818359375-.314453125.1689453125-.525390625.4287109375-.6259765625.771484375-.2080078125.7099609375.107421875,1.5751953125.310546875,2.0244140625-.0654296875.0087890625-.1376953125.0234375-.2177734375.04296875-.5751953125.138671875-1.5341796875,1.0009765625-1.732421875,1.1845703125-.1845703125.2099609375-1.0986328125,1.283203125-.9755859375,1.837890625.0007324219.0029907227.00390625.0045776367.0048828125.0075073242l-2.7998046875,1.2053833008C.2342261344,9.5419921875-.0440941781,10.1044921875.0057105094,10.7158203125s.4150390625,1.1220703125.9677734375,1.361328125c.1444091797.0760498047,3.4918212891,1.8294677734,5.4945068359,2.395690918.0258789062.029296875.0452880859.0570068359.0728759766.086730957.0056152344.0062866211.0148925781.0043334961.021484375.0092773438.0047607422.004699707.0192871094.0222167969.0224609375.0249023438,2.4365234375,1.0380859375,5.36328125,2.279296875,5.4755859375,2.2919921875.005859375.0009765625.0478515625.00390625.052734375.00390625.0173339844,0,.0471191406-.0089111328.0756835938-.0186157227.8405761719.4005737305,1.4272460938.69140625,1.4379882812.6963500977,1.13671875.7998046875,3.2392578125,1.626953125,4.791015625,1.626953125.623046875,0,1.130859375-.1279296875,1.5078125-.3798828125.0080566406-.0053710938.0065917969-.0170898438.0131835938-.0238647461.0068359375-.0064086914.0183105469-.0043945312.0239257812-.0122680664.0185546875-.02734375,1.919921875-2.7353515625,2.900390625-4.6220703125.0876464844-.1688842773.2019042969-.366027832.3280029297-.5758056641.2917480469-.4448852539.4193115234-.6413574219.4666748047-.7407226562.4044189453-.6207885742.8859863281-1.319519043,1.3874511719-2.0306396484ZM27.5791968375.8184204102c.0205078125.0263671875.0441894531.052734375.0622558594.0614624023.0888671875.1669921875.14453125.30859375.17578125.4404296875.09765625.5087890625-.1591796875,1.068359375-.61328125,1.3310546875-.1494140625.0888671875-.3154296875.146484375-.4912109375.2080078125-.236328125.08203125-.48046875.1669921875-.6845703125.3330078125-.0249023438.0197753906-.0400390625.0487060547-.0628662109.0705566406-.0805664062-.1181640625-.1932373047-.2097167969-.3375244141-.2404785156-.072265625-.015625-.5-.1328125-1.0888671875-.2939453125-.9899902344-.2714233398-2.3503417969-.6444091797-3.3061523438-.8870849609.10546875-.0466308594.2431640625-.0968017578.4809570312-.1510009766l.3037109375-.080078125c.130859375-.033203125.2158203125-.0537109375.3828125-.1083984375.7646484375-.24609375,1.677734375-.525390625,2.654296875-.7294921875.3974609375-.0810546875.79296875-.126953125,1.17578125-.13671875l.1220703125-.001953125c.35546875,0,.701171875.04296875,1.04296875.130859375.0502929688.0108642578.1120605469.0280761719.1838378906.0537719727ZM4.2596167594,7.4794921875c-.0363769531.0863037109-.0690917969.1741943359-.0988769531.2615356445l-.0861816406.037109375c.0615234375-.1000366211.1171875-.1959838867.1850585938-.2986450195Zm1.158203125-.8193359375c.2470703125-.2705078125.84375-.921875,1.2109375-1.1416015625l-.0029296875.85546875c-.044921875.044921875-.068359375.109375-.0576171875.171875.0061035156.0396118164.0462646484.0836791992.0925292969.1188354492l-.2373046875.1021728516c-.0375976562-.0119018555-.0836181641-.0198364258-.1433105469-.0198364258h-.013671875c-.0085449219.0008544922-.7987060547.3283081055-1.0393066406.5069580078-.0061035156.0028076172-.0090332031.0004882812-.0153808594.0037841797-.0096435547.0069580078-.0119628906.0219116211-.0205078125.0319824219-.0041503906.0043334961-.0092773438.008972168-.0124511719.0129394531l-.2322998047.0999755859c.1495361328-.2933959961.3135986328-.5706176758.4713134766-.7425537109Z"/><path class="cls-11" d="m28.7633442077,1.9640324702c-.0100097656.2399902344-.0899658203.4799804688-.2199707031.6799926758-.3100585938.4599609375-.8798828125.6799926758-1.3999023438.8900146484-.5300292969.1999511719-1.0900878906.4599609375-1.3500976562.9599609375-.1499023438-.4099731445-.0200195312-.9199829102.3200683594-1.1900024414.3299560547-.2699584961.7900390625-.3099975586,1.1599121094-.5299682617.5-.2900390625.7900390625-.9100341797.6800537109-1.4800415039-.0399169922-.1699829102-.1099853516-.3299560547-.1900634766-.4799804688-.0200195312-.0399780273-.0499267578-.0800170898-.0899658203-.0999755859-.1500244141-.3000488281-.4599609375-.4299926758-.7899169922-.5100097656-.0700683594-.0200195312-.1401367188-.0300292969-.2100830078-.0400390625.2900390625.0200195312.5799560547.0800170898.8499755859.1800537109.6800537109.25,1.2700195312.8899536133,1.2399902344,1.6199951172Z"/><path class="cls-10" d="m27.6830305842.7109876786s.0002354985.0030447916-.0096521968.0030447916c-.0700683594-.0500488281-.1700439453-.0700073242-.2598876953-.0900268555-.3901367188-.0999755859-.7900390625-.1400146484-1.1900634766-.1300048828s-.8099365234.0599975586-1.2000732422.1400146484c-.9099121094.1900024414-1.7829057351.4478452513-2.6692934894.7337408441-.2117486665.0682974356-.2878558342.083135259-.5010733219.1374176928l-.1796087746.0488243733c-.6501464844.147064209-.6274414062.2860717773-.9959716797.3443603516-.3432617188.0542907715-.6366237258-.0662609452-.7540283203-.0543212891.0400390625-.0200195312.0799560547-.0400390625.1199951172-.0599975586.1000976562-.0500488281.1999511719-.0900268555.3000488281-.1400146484,1.7299804688-.799987793,3.6099853516-1.299987793,5.5200195312-1.4800415039.2600097656-.0199584961.5283196016-.0347745067.7783196016-.0048062449l.0316169219.0048062449c.0699462891.0100097656.1400146484.0200195312.2100830078.0400390625.3299560547.0800170898.6495447749.2069161459.799569189.506964974Z"/><path class="cls-14" d="m19.8433385349,18.6963704549s1.9037120675-2.7050040472,2.8905935028-4.6053523604c.6339555524-1.2207505482,2.322846031-3.5542020673,3.6744832662-5.4382352341.8545403637-1.1912390951,1.2965971098-2.3207314,1.4403317651-2.5833197461.3299206996-.6028212064-1.2176905558-.8174381275-1.2176905558-.8174381275l-2.2803518384-.6166771642-5.5093352448,13.5375392236,1.0019691048.5234834086Z"/><path class="cls-11" d="m1.036797456,11.9522252285s3.5544804387,1.8689690319,5.5539623497,2.4107911128,7.1151676255,3.0884624081,7.1151676255,3.0884624081c1.4363616552,1.0107569154,4.6914852971,2.2113781925,6.1374111038,1.2448917055-.9308690941-.7104000981.656683116-1.5958245436,1.4406892554-3.0012049306,1.079503979-1.9350788767,2.5421025462-3.963326044,3.5898432562-5.3698324167-1.1589840039-2.1556587835.275874568-5.0437131566.9697108952-6.393216215.2075909104-.4037617483.0244121204-.7134396934-.2477373537-.7708552004-.2322713705-.0490024041-4.115467129-1.1453384263-5.2303562276-1.380547122-.1914125832-.0403824058-.3746894392-.0155745892-.5088803808.0676642788-.7973879412.4946210884-3.8034040753,2.2208094754-7.1107632425,2.3500985796l-1.4134085148.6081939542s-1.105196379.166056446-1.2589002542.0861304309c-.1543799244-.0802775607-.4074395981.630900642-.4074395981.630900642L.822844324,9.328980529c-1.0024720283.6457909019-.8799158459,2.1484324044.213953132,2.6232446995Z"/><path class="cls-11" d="m6.2449178795,11.8296539627c.3524368376-.5132549939,4.0974317566-4.304937465,4.0974317566-4.304937465,0,0,3.5519741206,2.324197133,8.0839356567,3.1374338652-1.8771759169,1.6410038701-5.1566895979,3.9053449816-5.4383538433,4.0890595183s-.7308111734.7067704762-.8063205095,1.9579047844c0,0,.0074907565.0499385236-.1077871499.0361051748s-5.4365060655-2.2825025466-5.4365060655-2.2825025466c0,0-.5573686774-.6178895783-.6553548978-1.2792965662s-.089481785-.8405117711.2629550527-1.353766765Z"/><path class="cls-7" d="m10.3533644239,7.4071451528c2.3257358968,1.4757555261,5.1218589026,2.4850883637,8.2230699197,3.1914015832l-1.0264401738.8535569674c-3.5212477152-.7815239352-5.9929979085-1.9111782234-8.0682851546-3.1577471006l.8716554087-.88721145Z"/><path class="cls-2" d="m15.0248661451,13.1209545122l.2552247488.0665408768c.026460817.0085309819.3216330545.115881793.3544512786.1259732269.3630262812.1116287007.7868437598.2802453937,1.9090021299.4357504862.6170915294.0998527133,2.0780763926.3043336729,3.233929534.1075927126.6866493596-.1168764867,1.353797679-.3589653651,1.7030389371-.4795560906.2386448291-.0824025009.2768142319-.0708479797.2768142319-.0708479797l.0948939133-.1419611367s-.8966670921.4369834068-2.2726709282.6353780895-4.5232397048-.3064122046-5.3138971184-.7053841035c-1.7573742042-.5261447212-3.1219270185-1.003704451-4.0652813075-1.1616254211-2.2058368002-.3692651758-3.260240214-.1634624591-3.260240214-.1634624591l-.0135802902.0526809893c1.2493542767-.0498160061,2.7574051177.0492955154,3.7147644348.3141454476,1.2764758432.3531323449,1.623112922.5588437515,3.38355065.9847753618Z"/><path class="cls-10" d="m20.214518202,12.7508746007c-1.0518837257-.1308749324-2.1037674235-.2617498992-3.1556511213-.392624866-.1125095975-.0139983999-.2290911744-.0278878146-.3571386754-.0057728377s-.2716865494.0901048645-.3268135757.1788029229c-.0444147435.0714621567-.0219106522.1405812419.0318182119.185559414s.134706458.0702054502.214210945.0946823514c.7649458103.2355024238,1.5298915499.4710048542,2.2948372896.7065072846.303993794.093590008.6110973908.1878082441.9628377657.2234812.3101711133.0314570839.6620905492.0143806775,1.0089612212-.0956272658.2233065218-.0708203093.442602013-.1839222592.6091554138-.3226123039.216611495-.1803737287.1580268959-.2398169642-.0330049377-.316478823-.3616023529-.1451125081-.8098289214-.2012491127-1.2492125369-.2559170766Z"/><path id="stringa_destra" class="cls-11" d="m8.2383934638,10.779911251c.9476867763-.0211835112,2.8106693297.0207301032,4.5172751264.5511616346,2.4169934374.75122769,5.5852145647,1.7964140413,7.6102631203,1.6657657474,1.6558578796-.1068295406,2.9075475031-.6443087703,3.0021955343-.5756439734.1113385972.0807733882.1290620202.2743775336.1716519449.3521932736.0036951195.0067513258-.5010096816.7765552322-.5010096816.7765552322.0226032783-.0686176611-.1988147899-.2364359049-.1865485895-.3854965577.0011440542-.0139027126-.0280874432-.0406461764-.1478661804.005040891-.419950314.1601811706-1.5063745018.64746199-2.3588368236.639820212-2.6578762293.0694069061-5.0498927869-.5010266007-8.0471183531-1.5800278045-1.5220033816-.5455363087-3.3360011187-.5310321487-4.358268211-.4599271927"/><path class="cls-7" d="m7.9234821528,11.7724267911c-.388175042.0269999587-.6621927255.062161023-.762718347.0779195178-.0441120866.0072103818-.0214755473-.0339382887-.0214755473-.0339382887l.4463519992-.992109208s.0121390302-.0132813098.0246032285-.014216594c.0631768059-.0047406395.2820220524-.0197320972.6115007798-.0270968896"/><path class="cls-4" d="m7.1347186736,11.827999201s-.0120208011.0629904837.0186778783.0722127162c.029245626.0087857188.598445842-.0564081548.7532641273-.0572836523.007692064-.0000434986.0198903811-.020894562.0198903811-.020894562v-.0498160061s-.7142400353.03981419-.7918323867.0557815042Z"/><polyline class="cls-4" points="8.191547727 10.8175612072 7.8968004735 11.7471483902 7.9184878424 11.7471483902 8.2060338846 10.8073269309"/><polygon class="cls-5" points="19.9819823929 2.271498745 25.0488265686 3.6654014632 25.0209197088 3.6869680382 19.8839961725 2.271498745 19.9819823929 2.271498745"/><path class="cls-5" d="m9.8706468529,5.578321097s2.2778914303.7101119034,3.9102265848.7470008334c0,0-2.01966892-.1475557202-3.4860038893-.8207786935,0,0-.3043336729-.1198890226-.4242226955.0737778601Z"/><path class="cls-10" d="m6.6777852508,7.8804076937c.5372024992.518086196,1.0744049685,1.0361724008,1.6116074377,1.5542586055.0574592364.0554145575.1172536433.1124693609.198444141.1529584253s.190195163.0602822035.2580216184.0307266251c.0546463797-.0238122816.0706874308-.0742527472.059146197-.1234407007s-.0466061572-.0980638577-.0811541999-.1458776733c-.3324011392-.4600366245-.664802236-.9200732234-.9972033328-1.3801098223-.1320980889-.1828211652-.2656841854-.367317209-.4486787687-.5357593386-.1613679724-.1485353691-.3663634379-.285748844-.6071024708-.3656990498-.1549816668-.0514699153-.3252619414-.0761687744-.4765056413-.0635997025-.1967004205.0163467419-.1884340347.0761519326-.1128332166.2016305047.1431040743.2375172035.3718627502.4585016959.5962582359.6749121265Z"/><path class="cls-11" d="m11.1494099829,12.6950229019c-.7090612522-1.2144087019-1.4178309757-1.8140858742-2.9433760982-2.6214398452-1.767834727-.9355792666-2.79945814-2.7169960067-2.79945814-2.7169960067,0,0-.0762212836,0-.1174941823.0187004616-.0162940058-.0187004616.8839181942-.4741593692.9918112856-.487409398.1314168133-.0161389069.1351010081.0343532632.1351010081.0343532632,0,0,.716406109,1.5713238754,2.5835362843,2.5073930513,1.5021286658.6011438641,2.4486511546,1.6677960946,3.0349979364,2.5431051289.0192769013.0287769054.1708964013.1819070431.1891569917.2100068945.0446470767.0687040338.0013009597.0798254022.040665363.1443472684.0576360661.0944707969.1096591702.1840123084.1562142563.2673171785l-1.271154705.1006220035Z"/><path class="cls-7" d="m11.1601161425,12.7027080957c.1126142831.1928744025.1432154751.2393054684.2591177729.4664869451l1.2395481218-.1024211446s-.0166687804-.0874100244-.2275111898-.464687804l-1.271154705.1006220035Z"/><path class="cls-4" d="m11.1601161425,12.7027080957c.1126142831.1928744025.1432154751.2393054684.2591177729.4664869451l1.2395481218-.1024211446s.0072739703.0645841797,0,.065324147c-.8307744629.0845131151-1.2090854463.1075173614-1.2342963193.1079184235s-.035009495-.019298533-.035009495-.019298533l-.2400662401-.4644258654.0107061596-.0535839726Z"/><path class="cls-2" d="m11.1494099829,12.6950229019c-.7090612522-1.2144087019-1.4178309757-1.8140858742-2.9433760982-2.6214398452-1.767834727-.9355792666-2.79945814-2.7169960067-2.79945814-2.7169960067,0,0-.0693546549-.0057960935-.1174941823.0187004616-.0162627685.0110780037,0,.0318576413,0,.0318576413,0,0,1.0498221471,1.8001118614,2.9169523224,2.7361810373.4340856267.2068219606.8079360499.4238495768,1.1320824145.6471463801.0133058707.0091661012.049057601-.0061659443.0621966957.003021012.4755455473.3325051122.8631038927.6875262673,1.1497049864,1.040575235h-.018444465c.2132653058.2761294591.4572089024.6527023598.6048247489.9168436155l.0130117177-.0558895307Z"/><path class="cls-2" d="m15.2928428983,13.1782307751c-1.1597948981.8431147589-2.130117942,1.4589706417-2.3049114487,1.5729791062-.2816642454.1837145367-.7308111734.7067704762-.8063205095,1.9579047844,0,0,.172415388.0439928056.0571374816.0301594568s.1260866331-1.681845682,1.1855320257-2.1877207919c.4335742603-.2070275902,1.2032565492-.7637086148,1.9613286681-1.349180694"/><path class="cls-2" d="m16.3851584613,12.4117152801c.6653930032-.5371626146,1.1648357086-.9596115767,1.1648357086-.9596115767l-.0558492233-.0124471717c-.3757632663.32848758-.7703673151.6507976203-1.1634716624.9577143911"/><path class="cls-2" d="m8.6407447589,9.2274832008c.3402022322-.3493128365.6434483372-.6604524695.879313316-.9098740705l.0300165812.0176826458c-.2623730755.2678972918-.5658215677.5785810344-.8852393943.9074545679l-.0240905029-.0152631433Z"/><path class="cls-2" d="m7.9345489439,9.998135137c-.8061846432.8384362742-1.5388039221,1.6181821431-1.6852958348,1.8315188257-.3524368376.5132549939-.3609412731.6923597771-.2629550527,1.353766765s.6553420497,1.2792994866.6553420497,1.2792994866c-.3970166668-.4269882292-.6223780794-.8156055966-.6865994033-1.2430095797-.0064901314-.0431929433-.2634738389-.8082904691.272414833-1.415071475.4641142285-.5457238386,1.0806885449-1.1997714594,1.6803211314-1.8218080924l.0267722767.0153040698Z"/><path class="cls-6" d="m25.4927569564,3.1347904962s2.2148459374,2.31207045,2.5973067522,2.8482413435,1.410530721,1.4574374417.4385768556,2.2347019962-8.3961325801,5.7087259075-8.3961325801,5.7087259075c0,0-2.3013848441-2.5337838213-2.5447844408-2.543329257s-1.0004239176.345760944-1.0004239176.345760944c0,0-3.5864854421,1.9843845924-3.9824421497,2.2210362427s-1.681746167.9141860918-1.8268975229,1.1001504249-.3944519645.7217061664-.8361588193.6673972964c-.354750768-.0436174199-.8567497991-.7073139397-1.0406521746-.9669391597-.0464288844-.0655462406-.0776048058-.1401034776-.091591999-.2192003132l-.0608781155-.3442625139c-.0195036852-.1102923055.0342200773-.2201349344.1336240435-.2717455226.0756408399-.0392727613.1512724182-.0785633606.2268971254-.117867178.103625846-.0538566227.207238538-.1077385547.3108399744-.1616421177.1284273384-.0668204164.2568372653-.133674297.3852310381-.2005591858.1500454172-.0781640015.3000687193-.1563704557.4500703719-.2346184111.1684801678-.0878872227.3369330019-.175826845.5053579759-.2638197937.1837316979-.095989885.3674302417-.1920432319.55109385-.2881633335.1958001447-.1024717417.3915606038-.2050193181.5872779941-.3076490306.2046856833-.1073324798.4093243031-.2147547189.6139104084-.322276885.2103885432-.1105716923.4207216254-.2212489262.6309910929-.3320468966.2129090294-.1121888432.4257529568-.2245012595.6385200474-.3369590654.2122475586-.1121832078.4244188429-.2245107654.6364972721-.3370133915.2084047046-.1105538014.4167200547-.221276115.6249227668-.3322098748.2013813052-.1072992043.4026577489-.2147953394.6037965317-.3225485153.1911786018-.102417352.3822337306-.2050654164.5731185667-.3080293132.1777985264-.0959050991.355450942-.1920815231.5328888703-.2886522673.3299842097-.179589739.6441718023-.3744094704.9691120331-.6136424629.2862015835-.2107121704.427732406-.3082900505.7071186021-.5295864978.1506715837-.1195090318.4324609327-.3490724178.5789332188-.4737020901.148567412-.1264123636.3062221278-.2439404828.4524718012-.372681943.0227081097-.018321378.0454246469-.0366323101.0681480733-.0549346874.1679370171-.135263344.336282239-.2700195633.5048573579-.4044865919.1793094594-.1430294718.3588877112-.2857218381.538643629-.4281897285.1802441743-.1428548645.3606698537-.2854806659.5412308748-.427934814.1707579497-.1347199861.3416379115-.2692853046.5126190953-.4037218483.1508589575-.1186151387,3.0273221364-2.2611328437,3.1783335119-2.379553873.1205516641-.0945349454.2411498373-.1890105908.3617984607-.2834217634.0798387117-.0624761905.1596984957-.1249254689.2395896055-.1873346442.0287225044-.0224373878.0574458819-.0448736902.0861839184-.0672911847Z"/><path class="cls-9" d="m28.7228038097,6.832619674s-.125700674.4967632822-.8573813363.9774723378-8.2225825565,5.5300747124-8.2225825565,5.5300747124l.5493838931.5405903213,7.8399629762-5.2998669179s1.0046720713-.5705883144.8986968283-1.1730440014c-.0659994694-.3751977986-.1741691478-.527486292-.2080798048-.5752264522Z"/><path class="cls-12" d="m19.6428399168,13.3401667242l-1.8332446099-1.9692449822s-.1460861104-.2107822283-.4765406144-.0804063474-.6349053887.2701384159-.6349053887.2701384159c0,0-2.0845459206,1.0574704266-3.0959130483,1.6766547142s-2.3308742932,1.3414827142-2.3308743877,1.3414827773l-.1334904844.089118218c-.0275790192.0215397535-.0590610579.0394291492-.0881767395.0588667719l-.0920956935.0614830647c-.0376456697.0251322206-.076560583.0482810198-.1145596902.0728638292-.0394730282.0255363349-.0726286471.0523937826-.103688241.0878569598-.0579540178.0661706526-.1063929278.1407054721-.1515026471.2159965287-.0358617014.0598555131-.0693946651.1210939382-.1014905577.1830420189,0,0-.1347842864.2182855223-.3175505251.2955968415s-.4890815675-.0419944726-.4890815675-.0419944726c0,0,.1764904287.1903210102.5344231465.097163125s.4325658504-.4100792104.4325658504-.4100792104c0,0,.1100978094-.149512042.2872992066-.3060593709s3.3143682136-1.9261270681,3.3143682136-1.9261270681l1.8930134964-.9748299751s.7575592411-.4010980907,1.0065152348-.4367275174c.085522282-.0122395268.1730402311-.0259304705.2590408027-.0324528379.08463697-.0064189504.1893469706-.0019777177.2679499222.0286995478.0520431429.0203114679.1017738777.0460813074.1499821719.0742087775.0024244144.0002980873.0061391578.0035971706.0082741096.0048587029.0032542027.001922892.0065022389.0038562152.0097446839.0057988661.0062354762.0037358701.0124498522.0075069122.0186466199.0113066276.0119375186.0073198117.0209839097.0117791799.0328927534.019150233.0248172973.015360821.0494999263.0309392147.0740441173.0467327498.0489694446.0315105373.0900583212.0557795992.138936882.0873537065l.053693702.034684546c.068503018.0442509263.1332529252.1087233757.1979220834.1583316346.0777012557.0596037528.137767358.1364594101.2020615761.2095087846l.1770491842.2011585576.3580738979.4068340058c.038929992.0442312179.0778599747.088462444.1167899761.1326936536l.5871502534.5639435091.3323443779.3286876334.0597158259-.0457026978-.5493838931-.5405903213Z"/><path class="cls-3" d="m17.5338858267,11.2480358627s-.5347968094-1.2383351263-.9140237699-1.4140112275l-7.7414569545,4.0819651293c-.0968256412.0510548458-.1495799492.1588120706-.1305189126.2666012214l.0208837413.1180964494.034067705.1926510646c.0082907818.0468814587.016664838.0926125825.0340865631.1371184246.031441887.0803220236.0851336602.1495150406.13579186.2189056063.0467194618.063995363.0938786832.1276718487.1416067736.1909188876.0500607248.0663381371.1007101672.1322479977.1525969202.1971710805.0435524155.0544947778.0877599538.1086603538.1349159427.1601007483.0196830716.0214713972.039905058.0428240507.062193045.0616460349.1469685769.1241269259.3460819958.3104329594.6735046171.22038021.145582295-.0400402571.285509212-.1050160677.4854731853-.5606597664.125750674-.2865391263,1.0265693557-.7416176398,1.0229799942-.7467891798,3.7868451302-2.1633404123,5.4728554562-3.0656849331,5.8878992895-3.1240946832Z"/><circle class="cls-8" cx="15.7618115299" cy="10.9548193949" r=".2440372502"/><path class="cls-1" d="m17.0690096909,6.0641634082l-.1076660156-1.256652832-.00390625-.0944824219c.0131835938-.0101928711.0356445312-.0188598633.0476074219-.029296875.3466796875-.615234375-.1884765625-2.291015625-1.0048828125-3.1455078125-.3720703125-.390625-1.6142578125-.642578125-3.162109375-.642578125-2.2490234375,0-4.48828125.5107421875-5.98828125,1.365234375-.2802734375.150390625-.4677734375.380859375-.5576171875.6865234375-.2169189453.7400512695.1853027344,1.7103271484.4052734375,2.1343383789-.025390625-.0045776367-.0319824219-.0220336914-.064453125-.0220336914-.087890625,0-.2060546875.017578125-.3505859375.052734375-.572265625.1376953125-1.6103515625,1.095703125-1.6591796875,1.140625-.04296875.048828125-1.056640625,1.205078125-.9453125,1.7080078125.005859375.0224609375.0244140625.0400390625.046875.04296875.0029296875.0009765625.005859375.0009765625.0087890625.0009765625.0205078125,0,.0390625-.0107421875.048828125-.0283203125.0078125-.0126953125.73046875-1.2783203125,1.3017578125-1.71875.0733642578-.0563964844.1555175781-.1192626953.2409667969-.1841430664-.2551269531.2866210938-.4504394531.5397338867-.4685058594.5640258789-.03515625.0556640625-.837890625,1.3671875-.6416015625,1.8447265625.0087890625.021484375.0302734375.03515625.052734375.03515625h.0009765625c.0234375-.0009765625.044921875-.015625.052734375-.037109375.0048828125-.013671875.5009765625-1.3837890625.9892578125-1.916015625.3896484375-.4252929688,1.0971679688-1.1940917969,1.4580078125-1.2567138672l-.0008544922,1.0869750977-.0030517578.0611572266c-.0068359375.0022583008-.0202636719.006652832-.021484375.007019043-.025390625.0087890625-.0419921875.03515625-.037109375.0625.00390625.02734375.02734375.0478515625.0546875.0478515625.029296875,0,2.9306640625.041015625,3.7373046875.169921875.234375.0380859375.58203125.05859375,1.0048828125.05859375.7275390625,0,2.720703125-.06640625,5.521484375-.6748046875.0261230469-.0061035156.0385742188-.0303344727.0400390625-.0556640625.0007324219-.0004882812.0043945312-.0015258789.0048828125-.001953125l-.0003662109-.0043334961c0-.0002441406.0003662109-.0003051758.0003662109-.0005493164s-.0003662109-.0001831055-.0004882812-.0004272461Z"/><path class="cls-11" d="m6.8244250985,5.2402626719s-1.2433868059-2.2356774686.0510953608-2.929296545c3.1124457268-1.7716160952,8.2769414738-1.5774716116,9.0828435821-.7336113754s1.3305170851,2.4861516359.9959555825,3.0792233252c-1.2223677023,1.0544166982-10.1298945254.5836845952-10.1298945254.5836845952Z"/><path class="cls-4" d="m6.7610481099,6.5165825477s2.9243973515.0385679026,3.7450354362.1712404879,3.3215667474.0760383747,6.5063630871-.6169979582l-10.1582407039.4142224245-.0931578194.0315350457Z"/><path class="cls-7" d="m6.7610481099,6.5165825477s1.9575274429-.1878187052,4.1268885757.1060869211,6.1245099477-.5518443913,6.1245099477-.5518443913l-.0581270094-1.4142470008s-3.622772025.7584281494-6.1868816904.499223555c-2.5641096654-.2592045944-3.4070042585-.2410442506-3.943012835.0844610402l-.0633769886,1.2763198758Z"/><path class="cls-13" d="m13.6032424664,4.7017371084c.0764881989.0087620239.896172237-.155646357,1.9138346007-.2457142601s1.049558739-1.1713009719,1.049558739-1.1713009719c0,0-.1176972563.4772994964-1.2068460934.7399928302s-1.7565472462.6770224018-1.7565472462.6770224018Z"/><path class="cls-13" d="m6.6064703137,3.8474546814s.2252594411,1.0270008825.4130096332,1.1118046005c.0394517196.0178197021.0868456467-.0916525225.3303915132-.1302671943s1.0347498014-.2109556116,1.9739098047.0207146902c0,0-1.3002234033-.4797189953-1.7948679644-.3648394381-.4405122579.0875348372-.9224429867-.6374126583-.9224429867-.6374126583Z"/><path class="cls-7" d="m6.8244250985,5.2402626719s.0261064334-.1887033915-.5070115014.0423769518-1.4141135553,1.3843698896-1.4141135553,1.3843698896c0,0-.8234526304,1.337748306-.6367125086,1.793614098,0,0,.4994950205-1.3878203585,1.001031942-1.9342536292s1.2317318401-1.3333923057,1.5568056232-1.2861073103Z"/><path class="cls-7" d="m6.8020841482,5.2115104654s.0579022082-.1814878787-.5068119341-.0447004705-1.629468115,1.1229562774-1.629468115,1.1229562774c0,0-1.0395080977,1.1777383749-.9332382838,1.6587708271,0,0,.7288336305-1.2823190562,1.3162040037-1.7352259425s1.4410647811-1.1038254679,1.7533143291-1.0018006915Z"/></g></g></svg>