<?xml version="1.0" encoding="utf-8"?>
<!-- Generator: Adobe Illustrator 27.9.0, SVG Export Plug-In . SVG Version: 6.00 Build 0)  -->
<svg version="1.1" id="Where_is_found" xmlns="http://www.w3.org/2000/svg" xmlns:xlink="http://www.w3.org/1999/xlink" x="0px"
	 y="0px" viewBox="0 0 32 32" style="enable-background:new 0 0 32 32;" xml:space="preserve">
<style type="text/css">
	.st0{fill:#FFFFFF;stroke:#FFFFFF;stroke-linecap:round;stroke-linejoin:round;stroke-miterlimit:10;}
	.st1{fill:#E9F0F4;}
	.st2{opacity:0.52;fill:#C5686A;enable-background:new    ;}
	.st3{opacity:0.52;fill:#BF5557;enable-background:new    ;}
	.st4{opacity:0.52;fill:#B63A3E;enable-background:new    ;}
	.st5{fill:#FFFFFF;}
	.st6{fill:#FBD7C9;}
	.st7{fill:#D7AD9B;}
	.st8{fill:#EBBFAC;}
	.st9{fill:#D9DDE3;}
</style>
<path class="st0" d="M27.2,9.8c-2.8-3.7-5.2-4.6-7-4.7s-6.4-1.3-6.8-1.5s-1.2,2.9-2.6,4C9.3,9,7.2,9.3,6.3,9.4
	c-1.9,0-3.4-0.8-3.9-0.7C1.6,9,1.4,11.2,1.3,12c-0.5,4.7,0.2,7.9,0.7,9.3c0.1,0.3,0.2,0.5,0.3,0.8c-0.4,0.2-0.7,0.3-0.7,0.3
	s-1,2.2,1.7,4.5l0,0c0,0,0.4-0.3,0.9-0.6c0.9,1.7,1.6,3,1.6,3l17.6-0.6c0,0-0.3-1.4-0.5-1.7c-0.1-0.1-0.1-0.8-0.1-1.7
	c0.8-1.1,1.1-3.5,0.9-3.8c-0.1-0.1-0.4-0.1-0.9,0c0.1-1.1,0.5-3,0.5-3c0.5,0.5,2,1.5,2,1.5c5.5-1.8,6-5.7,6-5.7S30.1,13.5,27.2,9.8z
	"/>
<path class="st1" d="M13.4,3.6c0.4,0.1,5,1.4,6.8,1.5s4.2,1,7,4.7s4.1,4.5,4.1,4.5s-0.4,3.9-6,5.7c0,0-1.5-1-2-1.5
	c0,0-0.4,2.1-0.5,3.2S22.8,26.7,23,27s0.5,1.7,0.5,1.7L5.9,29.4c0,0-2.6-4.8-3.9-8.1c-0.6-1.5-1.3-4.7-0.7-9.3
	c0.1-0.8,0.3-3,1.1-3.3c0.5-0.2,1.9,0.7,3.9,0.7c0.9,0,3-0.4,4.6-1.7C12.2,6.5,13.1,3.5,13.4,3.6z"/>
<g>
	<circle class="st2" cx="13.5" cy="16.1" r="6.6"/>
	<circle class="st3" cx="13.5" cy="16.1" r="4.8"/>
	<circle class="st4" cx="13.5" cy="16.1" r="3"/>
</g>
<path class="st5" d="M2,21.9c0,0,0.9-0.4,1.5-0.7c0.6-0.4,1.1-1,1.3-1.5c0.2-0.4,1.1-2.4,1.1-2.6c0-0.3-0.1-0.6,0.1-0.9
	c0.2-0.5,0.8-0.5,1.2-0.5c0.4,0-0.2-0.5,0.5-0.8c0.5-0.2,0.6,0.1,0.7-0.1c0.1-0.2,0.2-1.1,0.3-1.4c0.1-0.3,0.5-0.5,0.9-0.2
	c0.4,0.3,0.6,0.9,0.7,1.2c0.1,0.6,0.1,1.1,0,1.3c0,0.2,0.1,0.5,0.2,0.6s1.9,1.6,2.4,1.9c0.5,0.2,1.1,0.5,1.4,0.2
	c0.1-0.2,0-0.7-0.3-0.9c-0.3-0.2-1.3-0.6-1.9-1.5c-0.6-0.9-0.6-1.6-0.2-1.9c0.3-0.3,0.9-0.2,1.2,0c0.8,0.6,1.6,0.6,2.4,1.3
	c1.4,1.1,2.5,1.3,3,1.7c0.5,0.5,0.5,1.3,0.7,1.8c0.1,0.5,0.5,1.6,0.8,1.8c0.4,0.3,1.9,0.6,2.6,0.5s1,0,1,0s0.5,0.4,0.5,0.9
	s-0.7,3.2-0.8,3.4c-0.2,0.2-0.6,1-1.4,1.1c-0.8,0.1-2.4,0.1-3.5-0.2c-1-0.3-1.8-0.7-2.2-0.6c-0.4,0-2.2,0.1-2.7,0s-1.9-0.3-2.2-0.3
	S9.3,26,8.4,26c-0.9,0-2-0.1-2.4,0c-0.4,0.1-1.8,1-1.8,1s-0.4,0.3-0.8,0.2s-2-2.3-2-3c0-0.7-0.1-2,0.2-2S2,21.9,2,21.9z"/>
<path class="st6" d="M9.9,16.1c0.3-0.6,0.1-1,0-1.7c-0.2-1.1-0.8-1.1-0.9-1s-0.2,1.3-0.3,1.5c0,0-0.1,0.1-0.1,0.2
	c0,0,0.4,0.1,0.4,0.2s0.4,0.3,0.5,0.4S9.9,16.1,9.9,16.1z"/>
<path class="st7" d="M14.7,17.5c0,0,0.2,0.4,0.1,0.6s-0.6,0.8-0.9,0.7s0.3,0.2,0.3,0.2l1.4-0.7l-0.4-0.6
	C15.3,17.8,14.7,17.5,14.7,17.5z"/>
<path class="st6" d="M22.4,25.8c-0.8,0.5-2.9,0.6-5.4-0.4c-0.4-0.1-2.1,0.1-3.6,0c-0.7,0-1.6-0.4-1.7-0.5c-0.4-0.3-1.9-0.4-1.9-0.4
	s-0.6,0.1-1.6-0.6s-1.4-1-1.4-1S5.8,22,5.9,21.7s0.3-0.7,1.1-0.3s1.7,0.8,2.2,1.2c0.9,0.1,1.7,0.5,1.7,0.5s0-0.2-0.5-0.4
	s-2.1-1-2.5-1.5s-1.4-1.5-1.4-1.5s-1.1-1.4-0.4-1.6s1,0.1,1.2,0.4s1.8,1.5,2,1.7s1.3,1,1.3,1s-1.3-1.2-1.8-1.5s-1-1.3-1.1-1.5
	s-1.2-1.2-1.3-1.5s-0.1-0.9,1-0.8c0.4,0.1,1.4,1.2,1.6,1.5c0.1,0.1,0.8,0.6,1.4,1.1c0.6,0.5,1,1.1,1.4,1.3c0,0-0.1,0-0.3-0.3
	c-0.1-0.1-1.4-1.4-1.7-1.6S9.1,17.5,9,17.4S7.2,16,7.6,15.5c0.4-0.5,1.2-0.1,1.3,0s1.5,1.2,1.9,1.5s1.2,1,1.5,1.1s1.4,0.7,1.7,0.7
	s0.7-0.5,1.2-0.5c0,0,0.1-0.1,0.1-0.2s-1.2-1-1.7-1.2s-2.2-1.7-1.6-2.3s1.6,0.3,1.6,0.3s0.4,0.2,0.9,0.3s1,0.6,1,0.6s1.6,1,2,1.1
	s0.8,0.9,0.8,1.2s0.7,1.4,0.8,2s1.4,1.4,2.5,1.4s2-0.3,2.2,0C24.1,21.9,23.6,25.3,22.4,25.8L22.4,25.8z"/>
<path class="st8" d="M10.6,21.3c0,0,0.4,0.4,0.6,0.6s1.5,0.4,1.5,0.4s-1.3,0-1.6-0.3C11,21.9,11,21.9,10.6,21.3z"/>
<path class="st8" d="M11.6,20c0,0,0.4,0.9,1.1,1.4c0.3,0.2,0.9,0,1.7,0.1s0.8,0.2,0.8,0.2s-0.8-0.4-1.6-0.4s-0.8,0-1.2-0.4
	S11.6,20,11.6,20L11.6,20z"/>
<path class="st8" d="M15.4,18c0,0,0.2,0.3,0.5,0.4s0.4,0.4,0.4,0.4s-0.2,0-0.7,0s-0.9,0-1.4,0c0,0,0.1,0,0.4-0.1
	c0.1,0,0.3-0.2,0.4-0.2c0.2-0.1,0.5-0.2,0.5-0.2C15.4,18.3,15.5,18.1,15.4,18z"/>
<path class="st6" d="M3.5,27c0,0,2-1.6,3-1.5s0.7,0.2,2.1,0.1s1.5-0.2,2-0.4s0.8-0.3,0.8-0.3s-0.8-0.1-1.7-0.2s-1.5-0.6-1.9-0.9
	S6.8,23.2,6.5,23s-0.9-0.8-0.9-1.2s0.2-0.7,0.4-0.8s0.5-0.1,0.8,0.1s1.2,0.7,1.2,0.7c0.1,0,0.9,0.5,1,0.6c0,0,0.7,0.2,1.3,0.5
	c0,0-1.2-0.5-1.4-0.6s-0.6-0.4-0.8-0.5s-0.7-0.3-0.9-0.7s-1-1-1.2-1.2s-0.5-0.6-0.6-1.2c0,0-0.4,0.9-0.6,1.5s-0.9,0.9-1.6,1.4
	s-1.6,0.9-1.6,0.9S0.7,24.7,3.5,27L3.5,27z"/>
<path class="st6" d="M5.9,18.2c0,0,0.2-0.5,0.4-0.7c0.1-0.1,0.2-0.2,0.2-0.3c0,0,0.1,0.1,0.2,0.3c0.2,0.3,0.6,0.6,0.7,0.7
	c0.2,0.1,0.5,0.8,0.6,1c0,0,0.2,0.3,0.1,0.2C8,19.2,7.7,19,7.6,18.9c-0.1,0-0.3-0.3-0.4-0.4C7,18.2,6.7,17.8,5.9,18.2L5.9,18.2z"/>
<path class="st7" d="M6.7,21.3c0,0,0.7,0.5,0.9,0.6s1.3,0.7,1.4,0.8c0,0,0.5,0.1,0.9,0.2c0.1,0,0.4,0.2,0.7,0.4c0,0,0.1,0,0.1,0
	c0,0,0-0.1,0-0.1s-0.4-0.2-0.9-0.4c-0.4-0.1-0.9-0.2-0.9-0.2s-0.3-0.2-0.5-0.4L6.7,21.3L6.7,21.3z"/>
<path class="st7" d="M7.3,18.8c0,0,1,1.1,1.3,1.3s2,1.2,2,1.2s-0.1-0.1-0.2-0.2c-0.2-0.1-0.5-0.4-0.8-0.6c-0.3-0.2-0.8-0.6-1-0.8
	c-0.6-0.5-1.4-1.1-1.4-1.1L7.3,18.8z"/>
<path class="st9" d="M23.3,18.4c0,0-1.1-1.6-1.4-3.7c0,0.1,1.4,3.3,1.8,3.7c0,0,1,0.9,1.6,1.6C25.4,20,24.3,19.2,23.3,18.4
	L23.3,18.4z"/>
<path class="st9" d="M23.3,18.4c0,0-0.9-0.7-1.1-1.6c0,0,0.5,1,1.1,1.4L23.3,18.4L23.3,18.4z"/>
<path class="st9" d="M23.3,18.4c0,0-0.4,0-0.7-0.3C22.6,18.1,23,18.3,23.3,18.4L23.3,18.4z"/>
<path class="st9" d="M23,26.7c0,0-0.7,0.5-3.6,0.3S16,27,16,27s3.1,0.1,4,0.2s3.1-0.1,3.1-0.1S23,26.7,23,26.7z"/>
<path class="st9" d="M21.7,5.4c0,0-0.6,0.9-0.6,1.9c0,0-0.2-1.1,0.3-2L21.7,5.4L21.7,5.4z"/>
</svg>
