<?xml version="1.0" encoding="UTF-8"?><svg id="Symptoms" xmlns="http://www.w3.org/2000/svg" viewBox="0 0 32.06 32"><defs><style>.cls-1{fill:#fff;}.cls-2{fill:#dbdbdb;}</style></defs><g id="ic_diarrhoea_animal"><path class="cls-1" d="M1.23,26.21l13.08,4.57s8.51-5.94,9.1-6.77-.16-5.45-.16-5.45l-3.83-1.41s2.8-5.12,4.53-6.95,6.31-5.72,6.31-5.72c0,0,1.36-1.79,.26-2.73s-2.51-1.35-4.05-.23-6.89,5.6-11.03,14.34l-3.68-1.03s-.79-.32-1.3,.15S1.23,26.21,1.23,26.21Z"/><path class="cls-2" d="M11.41,15.77l.4,3.59,9.43,3.2s1.38-2.48,1.35-3.51c0,0-10.8-3.43-11.03-3.44s-.16,.16-.16,.16Z"/><path class="cls-2" d="M11.13,19.31c-.3,.11-8.56,6.46-8.56,6.46L10.59,15.91s.25-.34,.49-.38,.48,.07,.48,.07l.4,3.81s-.54-.21-.84-.1Z"/><path class="cls-2" d="M30.73,2.65c-.15-.39-.64-.13-.93,.03s-5.13,4.43-6.97,6.52c-1.85,2.09-4.12,6.3-4.26,7.05s.58,.77,.58,.77c0,0,3.32-5.64,4.69-7.01s5.32-4.82,6.08-5.54,.95-1.42,.8-1.81Z"/></g></svg>