<?xml version="1.0" encoding="UTF-8"?>
<svg id="Livello_1" data-name="Livello 1" xmlns="http://www.w3.org/2000/svg" version="1.1" viewBox="0 0 148.3 335.7">
  <defs>
    <style>
      .cls-1 {
        fill: #ffddcf;
      }

      .cls-1, .cls-2, .cls-3, .cls-4, .cls-5, .cls-6, .cls-7 {
        stroke-width: 0px;
      }

      .cls-2 {
        opacity: .3;
      }

      .cls-2, .cls-3, .cls-6 {
        fill: #c46769;
      }

      .cls-3 {
        opacity: .7;
      }

      .cls-4 {
        fill: #e5b9a6;
      }

      .cls-8 {
        fill: none;
        stroke: #fff;
        stroke-linecap: round;
        stroke-linejoin: round;
        stroke-width: 4px;
      }

      .cls-5 {
        fill: #fad4c4;
      }

      .cls-7 {
        fill: #f5eee6;
      }
    </style>
  </defs>
  <path class="cls-8" d="M124.6,96.9c.8-1.6,6.3-27.2,5.4-39.6-1.8-24.5-6.8-34.4-8.2-39.6-.6-2.4-8.4,1.7-39.8,1.7s-52.6-3.7-53.7-2.1c-2.7,4-9.2,16.3-10,37.8-.6,15.4,1,40,1.7,41.7.1.3,1.4.6,3.4.9,5.2,23.4,18.4,50.1,16.7,66.2-1.9,17.3-2.2,35.9,4,54.2,4.5,13.2,10.5,27.3,13.2,37.8.3,2.6-1.3,2.7-1.2,7.7,0,1.1,2.2,5.2,2,6.6-2.1,10.9-8.8,27.7-10.4,30.9-1.6,3.4-.8,4.9,6.2,9.3,4.8,3.1,9.3,4.1,13,4,0,0,0,0,0,0,0,0,0,0,0,0,.6,0,1.2,0,1.7-.1,5.3-.6,7.8-2.6,9-4.3,0,0,0-.1.1-.2,3.3.3,7.6.3,13.3-.2,8.9-.8,15.6-4,9.7-12.1-2-2.7-10.4-16.4-12.5-27.4-.3-1.4,1.9-5.4,2-6.6.1-5-1.5-5.1-1.2-7.7,2.7-10.6,8.7-24.7,13.2-37.8,6.2-18.3,5.9-36.9,4-54.2-1.7-16.2,11.7-43.2,16.8-66.8.9,0,1.4-.2,1.5-.3ZM71.2,197.7c-.3-20.7-5.3-30.7-5.4-32.8-.3-3.2.3-5.9,1.5-11.9,1.4-6.9.8-14.2.5-23.4-.2-6.2,2.6-21.6,4.2-30.9.7,0,1.4,0,2.2,0,1,5.6,4.7,23.2,4.5,30.9-.3,9.2-.8,16.5.5,23.4,1.2,6,1.8,8.7,1.5,11.9-.2,2-5.1,12.1-5.4,32.8-.3,19.7,2.7,27.2-.1,47.8,0-.1.1-.3.2-.4-.5,3.2-1,6.1-1.5,8.7-.2,1.1-.4,2.1-.6,3.2-.2-1-.4-2.1-.6-3.2-.5-2.5-1-5.5-1.5-8.7,0,.1.1.3.2.4-2.9-20.7.1-28.1-.1-47.8Z"/>
  <g>
    <g>
      <path class="cls-5" d="M81.2,126.6c-1.8-23.6-2.4-40.9-2.8-52.3-.5-11.4-6.5-53.2-6.5-53.2h44.4s15,28.5,7.8,71.2c-4.1,24.6-19.6,54.3-17.8,71.7,1.9,17.3,2.2,35.9-4,54.2-4.9,14.6-11.7,27.2-13.2,37.8-.4,2.7,1.3,2.8,1.2,7.8s-2.2,5.2-2,6.6c2.1,10.9,10.6,24.7,12.5,27.4,5.9,8.1-.7,11.3-9.7,12.1-20.9,1.8-23.6-3.1-22.3-5.2,0,0,1.4-6.9,2.5-18.1.7-7-1.3-13.5,2.4-32.7,3.7-19.2,8.3-59.6,7.4-82.2-.9-22.6,0-45,0-45Z"/>
      <path class="cls-4" d="M70.3,294.8c-.6,3.4-1.3,5.7-1.9,7.4-1.1,3.1-.4,4.9.1,5.2,1.6,1,5.3,2.6,13.9,2.7-3.6-11.1-9.1-25.8-11-37.2-.1,4.1,0,15.7-1.2,21.9Z"/>
      <path class="cls-1" d="M116.3,109.4c-5,17.3-13.6,31.6-15.5,49.6-3.1,29.1-3.7,57-13,84.9-2.2,6.4-1.9,13.1,0,19.8.7-10.6,8.9-28.8,14.6-45.6,6.2-18.3,5.9-36.9,4-54.2-1.9-17.4,13.6-47.1,17.8-71.7,4.8-28.5-5.3-56.3-10.7-72.7,5.8,30.5,12,60.1,2.9,89.9Z"/>
      <path class="cls-4" d="M85.6,178.5c2.8-9.6,7.1-18.9,6.5-29.1-.6-11.2-5-22.3-7.4-33.2-2.6-11.3-11-77-12.7-88.5.1,10.8-4,25.4,1.9,69.5.4,2.9,5,23.7,4.7,32.3-.3,9.2-.8,16.5.5,23.4s1.7,8.7,1.5,11.9-5.1,12.1-5.4,32.8,2.7,27.2-.1,47.8c3.6-8.4,6.2-17.3,7-27,.9-13.3-.3-26.6,3.4-40Z"/>
    </g>
    <g>
      <path class="cls-5" d="M65.3,126.6c1.8-23.6,2.4-40.9,2.8-52.3.5-11.4,6.5-53.2,6.5-53.2H30.6s-15.4,28.5-8.2,71.2c4.1,24.6,19.6,54.3,17.8,71.7-1.9,17.3-2.2,35.9,4,54.2,4.9,14.6,11.7,27.2,13.2,37.8s-1.3,2.8-1.2,7.8,2.2,5.2,2,6.6c-2.1,10.9-8.8,27.7-10.4,30.9s-.8,4.9,6.2,9.3c15.9,10.2,27.2-2,24.9-3.7,0,0-1.2-17.2-2.9-24-1.7-6.8.4-9.9-3.3-29.1-3.7-19.2-8.3-59.6-7.4-82.2.9-22.6,0-45,0-45Z"/>
      <path class="cls-4" d="M75.9,282.9c1.7,6.8,2.9,24,2.9,24,0,0,.3,7.1-11.9,7.7,3.6-11.1,6.2-30.2,8.1-41.6.1,4.1,0,6.6.9,10Z"/>
      <path class="cls-1" d="M30.2,109.4c5,17.3,13.6,31.6,15.5,49.6,3.1,29.1,3.7,57,13,84.9,2.2,6.4,1.9,13.1,0,19.8-.7-10.6-8.9-28.8-14.6-45.6-6.2-18.3-5.9-36.9-4-54.2,1.9-17.4-13.6-47.1-17.8-71.7-4.8-28.5,2.8-54.8,8.2-71.2-5.8,30.5-9.5,58.5-.4,88.4Z"/>
      <path class="cls-4" d="M60.9,178.5c-2.8-9.6-7.1-18.9-6.5-29.1.6-11.2,5-22.3,7.4-33.2,2.6-11.3,9.6-75.4,11.2-86.9-.1,10.8,3.2,19,.2,62.1-.2,3-5.7,29.5-5.4,38.1.3,9.2.8,16.5-.5,23.4s-1.7,8.7-1.5,11.9,5.1,12.1,5.4,32.8-2.7,27.2.1,47.8c-3.6-8.4-6.2-17.3-7-27-.9-13.3.3-26.6-3.4-40Z"/>
    </g>
    <ellipse class="cls-2" cx="30.9" cy="99.6" rx="2.2" ry="6.3" transform="translate(-17.4 7.2) rotate(-10.4)"/>
    <ellipse class="cls-6" cx="39.3" cy="104.6" rx="4.8" ry="11.5" transform="translate(-18.2 8.8) rotate(-10.4)"/>
    <ellipse class="cls-2" cx="89.9" cy="98.6" rx="3.7" ry="5.3"/>
    <ellipse class="cls-6" cx="101.6" cy="103" rx="4.3" ry="7.5"/>
    <path class="cls-7" d="M28.3,17.4c-2.7,4-9.2,16.3-10,37.8-.6,15.4,1,40,1.7,41.7,1.3,3.3,104,1.3,104.6,0s6.3-27.2,5.4-39.6c-1.8-24.5-6.8-34.4-8.2-39.6s-8.4,1.7-39.8,1.7-52.6-3.7-53.7-2.1Z"/>
    <path class="cls-6" d="M93.1,191.4c0,4.1-1.9,7.5-4.3,7.5s-4.3-3.3-4.3-7.5,1.9-7.5,4.3-7.5,4.3,3.3,4.3,7.5Z"/>
    <ellipse class="cls-2" cx="58.6" cy="233.2" rx="3.7" ry="5.3" transform="translate(-31.1 10.1) rotate(-7.8)"/>
    <ellipse class="cls-6" cx="58.6" cy="232.8" rx="2.1" ry="3.2" transform="translate(-31.1 10.1) rotate(-7.8)"/>
    <ellipse class="cls-6" cx="97.4" cy="200.7" rx="1.2" ry="1.8" transform="translate(-26.3 15.1) rotate(-7.8)"/>
    <ellipse class="cls-3" cx="50.7" cy="115.8" rx="2.7" ry="7.3" transform="translate(-20 11) rotate(-10.4)"/>
    <ellipse class="cls-3" cx="95" cy="116" rx="3.7" ry="10.1"/>
    <ellipse class="cls-3" cx="99.2" cy="184.7" rx="3.7" ry="10.1"/>
    <ellipse class="cls-2" cx="48.3" cy="103" rx="1.9" ry="2.7" transform="translate(-17.7 10.4) rotate(-10.4)"/>
    <ellipse class="cls-2" cx="97.3" cy="200.6" rx="2.4" ry="3.4"/>
    <ellipse class="cls-2" cx="102.9" cy="113.9" rx="1.3" ry="1.9"/>
    <ellipse class="cls-2" cx="108.5" cy="100.9" rx="1.6" ry="2.3"/>
    <path class="cls-2" d="M69.9,193.3c0,1-.6,1.9-1.3,1.9s-1.3-.8-1.3-1.9.6-1.9,1.3-1.9,1.3.8,1.3,1.9Z"/>
    <path class="cls-2" d="M87.5,218.5c0,1-.6,1.9-1.3,1.9s-1.3-.8-1.3-1.9.6-1.9,1.3-1.9,1.3.8,1.3,1.9Z"/>
    <ellipse class="cls-3" cx="62.9" cy="196.2" rx="3.7" ry="10.1" transform="translate(-34.3 14.5) rotate(-10.4)"/>
    <ellipse class="cls-2" cx="66.1" cy="184.9" rx="1.5" ry="4.3" transform="translate(-32.2 14.9) rotate(-10.4)"/>
    <ellipse class="cls-2" cx="60.3" cy="175.1" rx="1.5" ry="4.3" transform="translate(-30.5 13.7) rotate(-10.4)"/>
    <ellipse class="cls-2" cx="92.8" cy="178.8" rx="4.3" ry="1.5" transform="translate(-93.2 256.2) rotate(-85.2)"/>
    <ellipse class="cls-2" cx="56.7" cy="124.2" rx="4.3" ry="1.5" transform="translate(-71.8 170.2) rotate(-85.2)"/>
    <ellipse class="cls-2" cx="63.9" cy="215.4" rx="2.2" ry="6.3" transform="translate(-37.7 15) rotate(-10.4)"/>
  </g>
  <ellipse class="cls-6" cx="95" cy="116" rx="2.1" ry="6.4"/>
  <ellipse class="cls-6" cx="50.8" cy="116.4" rx="1.5" ry="4.6" transform="translate(-16.3 8.6) rotate(-8.3)"/>
  <path class="cls-3" d="M92.7,208.8c-.3,3.8-2,6.7-3.7,6.4s-3-3.7-2.7-7.5c.3-3.8,2-6.7,3.7-6.4s3,3.7,2.7,7.5Z"/>
  <ellipse class="cls-6" cx="89.5" cy="208.3" rx="1.8" ry="4.3"/>
  <path class="cls-3" d="M107.3,135.2c-1.2,3.7-3.5,6.1-5.1,5.3s-2.1-4.3-.9-7.9c1.2-3.7,3.5-6.1,5.1-5.3s2.1,4.3.9,7.9Z"/>
  <ellipse class="cls-6" cx="104.3" cy="133.9" rx="4.3" ry="1.8" transform="translate(-50.4 203.8) rotate(-76.4)"/>
</svg>