<?xml version="1.0" encoding="UTF-8"?><svg id="Who_is_at_risk" xmlns="http://www.w3.org/2000/svg" viewBox="0 0 32 31.1"><defs><style>.cls-1{fill:#fff;}.cls-2{fill:#d99898;}.cls-3{fill:#a63838;}.cls-4{fill:#c54343;}.cls-5{fill:#422715;}.cls-6{fill:#474747;}</style></defs><g id="ic_env_stress"><polygon class="cls-5" points=".94 21.56 2.17 21.56 2.17 20.3 5.95 12.5 13.54 9.56 21.22 12.5 24.91 20.3 24.91 21.56 26.23 21.56 21.73 12 13.54 8.86 5.4 12 .94 21.56"/><g><polygon class="cls-4" points="1.97 29.88 1.97 20.24 5.81 12.3 13.59 9.29 21.45 12.3 25.21 20.25 25.21 29.88 1.97 29.88"/><path class="cls-1" d="M13.59,9.56l7.68,2.94,3.69,7.8v9.33H2.22v-9.33l3.78-7.8,7.59-2.94m0-.54l-.18,.07-7.59,2.94-.18,.07-.09,.18-3.78,7.8-.05,.1v9.95H25.46v-9.94l-.05-.1-3.69-7.8-.09-.18-.19-.07-7.68-2.94-.18-.07h0Z"/></g><g><polygon class="cls-3" points="24.96 29.01 5.95 29.01 2.22 29.01 2.22 29.14 5.95 29.14 24.96 29.14 24.96 29.01"/><polygon class="cls-3" points="24.96 28.47 5.95 28.47 2.22 28.47 2.22 28.6 5.95 28.6 24.96 28.6 24.96 28.47"/><polygon class="cls-3" points="24.96 27.94 5.95 27.94 2.22 27.94 2.22 28.06 5.95 28.06 24.96 28.06 24.96 27.94"/><polygon class="cls-3" points="24.96 27.4 5.95 27.4 2.22 27.4 2.22 27.52 5.95 27.52 24.96 27.52 24.96 27.4"/><polygon class="cls-3" points="24.96 26.86 5.95 26.86 2.22 26.86 2.22 26.98 5.95 26.98 24.96 26.98 24.96 26.86"/><polygon class="cls-3" points="24.96 26.32 5.95 26.32 2.22 26.32 2.22 26.45 5.95 26.45 24.96 26.45 24.96 26.32"/><polygon class="cls-3" points="24.96 25.78 5.95 25.78 2.22 25.78 2.22 25.91 5.95 25.91 24.96 25.91 24.96 25.78"/><polygon class="cls-3" points="24.96 25.25 5.95 25.25 2.22 25.25 2.22 25.37 5.95 25.37 24.96 25.37 24.96 25.25"/><polygon class="cls-3" points="24.96 24.71 5.95 24.71 2.22 24.71 2.22 24.83 5.95 24.83 24.96 24.83 24.96 24.71"/><polygon class="cls-3" points="24.96 24.17 5.95 24.17 2.22 24.17 2.22 24.29 5.95 24.29 24.96 24.29 24.96 24.17"/><polygon class="cls-3" points="24.96 23.63 5.95 23.63 2.22 23.63 2.22 23.76 5.95 23.76 24.96 23.76 24.96 23.63"/><polygon class="cls-3" points="24.96 23.09 5.95 23.09 2.22 23.09 2.22 23.22 5.95 23.22 24.96 23.22 24.96 23.09"/><polygon class="cls-3" points="24.96 22.56 5.95 22.56 2.22 22.56 2.22 22.68 5.95 22.68 24.96 22.68 24.96 22.56"/><polygon class="cls-3" points="24.96 22.02 5.95 22.02 2.22 22.02 2.22 22.14 5.95 22.14 24.96 22.14 24.96 22.02"/><polygon class="cls-3" points="24.96 21.48 5.95 21.48 2.22 21.48 2.22 21.6 5.95 21.6 24.96 21.6 24.96 21.48"/><polygon class="cls-3" points="24.96 20.94 5.95 20.94 2.22 20.94 2.22 21.07 5.95 21.07 24.96 21.07 24.96 20.94"/><polygon class="cls-3" points="24.96 20.4 5.95 20.4 2.22 20.4 2.22 20.53 5.95 20.53 24.96 20.53 24.96 20.4"/><polygon class="cls-3" points="24.79 19.95 5.95 19.95 2.43 19.95 2.37 20.07 5.95 20.07 24.85 20.07 24.79 19.95"/><polygon class="cls-3" points="24.54 19.41 5.95 19.41 2.65 19.41 2.59 19.53 5.95 19.53 24.59 19.53 24.54 19.41"/><polygon class="cls-3" points="24.28 18.87 5.95 18.87 2.91 18.87 2.85 19 5.95 19 24.34 19 24.28 18.87"/><polygon class="cls-3" points="24.03 18.33 5.95 18.33 3.17 18.33 3.11 18.46 5.95 18.46 24.09 18.46 24.03 18.33"/><polygon class="cls-3" points="23.77 17.8 5.95 17.8 3.43 17.8 3.37 17.92 5.95 17.92 23.83 17.92 23.77 17.8"/><polygon class="cls-3" points="23.52 17.26 5.95 17.26 3.69 17.26 3.63 17.38 5.95 17.38 23.58 17.38 23.52 17.26"/><polygon class="cls-3" points="23.26 16.72 5.95 16.72 3.95 16.72 3.89 16.84 5.95 16.84 23.32 16.84 23.26 16.72"/><polygon class="cls-3" points="23.01 16.18 5.95 16.18 4.21 16.18 4.15 16.31 5.95 16.31 23.07 16.31 23.01 16.18"/><polygon class="cls-3" points="22.75 15.64 5.95 15.64 4.47 15.64 4.41 15.77 5.95 15.77 22.81 15.77 22.75 15.64"/><polygon class="cls-3" points="22.5 15.11 5.95 15.11 4.73 15.11 4.67 15.23 5.95 15.23 22.56 15.23 22.5 15.11"/><polygon class="cls-3" points="22.25 14.57 5.95 14.57 4.99 14.57 4.93 14.69 5.95 14.69 22.3 14.69 22.25 14.57"/><polygon class="cls-3" points="21.99 14.03 5.95 14.03 5.25 14.03 5.19 14.15 5.95 14.15 22.05 14.15 21.99 14.03"/><polygon class="cls-3" points="21.74 13.49 5.95 13.49 5.51 13.49 5.45 13.62 5.95 13.62 21.79 13.62 21.74 13.49"/><polyline class="cls-3" points="6.5 12.95 5.95 12.95 5.77 12.95 5.71 13.08 5.95 13.08 6.5 13.08 21.54 13.08 21.48 12.95 6.5 12.95"/><polyline class="cls-3" points="20.67 12.42 6.5 12.42 6.5 12.54 20.67 12.54"/><polygon class="cls-3" points="19.64 11.88 7.6 11.88 7.28 12 19.97 12 19.64 11.88"/><polygon class="cls-3" points="18.24 11.34 8.99 11.34 8.67 11.46 18.56 11.46 18.24 11.34"/><polygon class="cls-3" points="16.94 10.84 10.27 10.84 9.95 10.97 17.26 10.97 16.94 10.84"/><polygon class="cls-3" points="15.53 10.31 11.66 10.31 11.34 10.43 15.86 10.43 15.53 10.31"/><polygon class="cls-3" points="14.13 9.77 13.05 9.77 12.73 9.89 14.45 9.89 14.13 9.77"/></g><polygon class="cls-1" points=".94 21.56 5.4 12 13.54 8.86 21.73 12 26.23 21.56 26.95 21.56 22.24 11.38 13.54 8.24 4.98 11.38 .27 21.56 .94 21.56"/><rect class="cls-1" x="13.33" y="20.86" width=".55" height="8.77"/><polygon class="cls-1" points="13.33 29.63 12.92 29.63 6.5 21.2 6.5 20.86 6.93 20.86 13.33 29.27 13.33 29.63"/><polygon class="cls-1" points="20.71 29.63 20.31 29.63 13.88 21.2 13.88 20.86 14.31 20.86 20.71 29.27 20.71 29.63"/><rect class="cls-1" x="13.32" y="13.51" width=".54" height="14.17" transform="translate(34.18 7) rotate(90)"/><polygon class="cls-1" points="6.5 29.63 5.95 29.63 5.95 12.5 6.5 12.29 6.5 29.63"/><polygon class="cls-1" points="21.23 29.67 20.67 29.67 20.67 12.25 21.23 12.46 21.23 29.67"/><g><path class="cls-6" d="M13.61,13.58c-.8,0-1.46-.64-1.46-1.43s.65-1.43,1.46-1.43,1.46,.64,1.46,1.43-.65,1.43-1.46,1.43Z"/><path class="cls-1" d="M13.61,10.97c.67,0,1.21,.53,1.21,1.18s-.54,1.18-1.21,1.18-1.21-.53-1.21-1.18,.54-1.18,1.21-1.18m0-.5c-.94,0-1.71,.75-1.71,1.68s.77,1.68,1.71,1.68,1.71-.75,1.71-1.68-.77-1.68-1.71-1.68h0Z"/></g><g><g><rect class="cls-6" x="8.5" y="16.02" width="4.04" height="2.86"/><path class="cls-1" d="M12.29,16.27v2.36h-3.54v-2.36h3.54m.5-.5h-4.54v3.36h4.54v-3.36h0Z"/></g><rect class="cls-1" x="10.37" y="16.27" width=".26" height="2.36"/><rect class="cls-1" x="8.75" y="17.36" width="3.54" height=".21"/></g><g><g><rect class="cls-6" x="14.68" y="16.02" width="4.04" height="2.86"/><path class="cls-1" d="M18.47,16.27v2.36h-3.54v-2.36h3.54m.5-.5h-4.54v3.36h4.54v-3.36h0Z"/></g><rect class="cls-1" x="16.55" y="16.27" width=".26" height="2.36"/><rect class="cls-1" x="14.93" y="17.36" width="3.54" height=".21"/></g><g id="Tracciato_28-2"><path class="cls-2" d="M20.86,19.92l-.06-.1c-.05-.11,.04-.22,.1-.29,.62-.72,3.1-3.18,3.86-3.46,.12-.04,.22-.06,.31-.06,.18,0,.27,.08,.33,.15,.15,.2,.07,.52,.06,.56l-.06,.26c.87-.67,3.19-2.41,4.16-2.72,.17-.06,.34-.08,.49-.08,.52,0,.78,.31,.86,.6,.09,.33-.04,.66-.32,.82-.56,.33-6.24,3.59-6.24,3.59l-.03,.02h-.07c-.08,0-.14-.03-.19-.09-.07-.1-.12-.3,.1-.96,.06-.18,.09-.3,.11-.38-1.18,.87-3.02,2.16-3.31,2.16h-.1Z"/><path class="cls-1" d="M30.05,14.32c.79,0,.95,.86,.47,1.14-.56,.33-6.24,3.59-6.24,3.59,0,0-.01,0-.03,0-.07,0-.21-.08,.05-.86,.19-.56,.16-.68,.11-.68-.04,0-.1,.07-.1,.07,0,0-3.05,2.19-3.34,2.19-.04,0-.03-.04,.06-.14,.68-.79,3.1-3.16,3.8-3.41,.11-.04,.19-.05,.26-.05,.38,0,.24,.51,.24,.51l-.15,.67s3.28-2.58,4.44-2.95c.16-.05,.31-.08,.44-.08m0-.3c-.17,0-.35,.03-.53,.09-.88,.28-2.85,1.72-3.88,2.5,.02-.14,.02-.37-.12-.55-.1-.13-.26-.21-.44-.21-.11,0-.23,.02-.36,.07-.8,.29-3.28,2.75-3.92,3.5-.07,.08-.21,.25-.12,.45l.08,.17h.21c.1,0,.35,0,3.03-1.89-.17,.54-.19,.84-.05,1.02,.07,.1,.19,.16,.31,.16h.06l.09-.03c.26-.15,5.72-3.27,6.27-3.6,.34-.2,.49-.6,.38-.99-.12-.43-.51-.71-1.01-.71h0Z"/></g><g id="Tracciato_29-2"><path class="cls-2" d="M18.96,14.48c-.17,0-.18-.2-.19-.29-.05-.95,.02-4.44,.38-5.17,.12-.26,.28-.39,.46-.39,.28,0,.47,.32,.49,.36l.13,.22c.17-1.29,.7-5.12,1.19-6.04,.18-.34,.4-.42,.55-.42,.2,0,.41,.13,.6,.38,.3,.39,.54,1.08,.43,1.48-.17,.62-2,6.92-2,6.92l-.03,.11-.19,.05c-.14,0-.32-.09-.64-.76-.07-.15-.13-.26-.18-.34-.71,3.88-.87,3.88-1.01,3.88Z"/><path class="cls-1" d="M21.98,2.91c.51,0,1.02,1.19,.89,1.67-.17,.62-2,6.91-2,6.91,0,0-.02,.05-.08,.05-.08,0-.24-.11-.51-.68-.22-.46-.33-.57-.38-.57-.05,0-.05,.13-.05,.13,0,0-.71,3.9-.9,3.9-.02,0-.03-.05-.04-.15-.06-1.04,.04-4.43,.36-5.09,.11-.23,.22-.3,.33-.3,.2,0,.35,.28,.35,.28l.36,.59s.66-5.34,1.23-6.41c.13-.24,.27-.34,.42-.34m0-.3c-.19,0-.46,.09-.68,.5-.46,.86-.94,4.12-1.16,5.68-.1-.13-.28-.3-.53-.3-.17,0-.41,.08-.6,.47-.37,.76-.45,4.26-.39,5.24,.02,.38,.22,.43,.34,.43,.28,0,.42,0,1.08-3.56,.28,.56,.49,.78,.74,.78,.18,0,.3-.12,.35-.24,.08-.29,1.84-6.33,2.01-6.95,.13-.46-.14-1.2-.46-1.61-.28-.36-.54-.44-.72-.44h0Z"/></g><g id="Tracciato_30-2"><path class="cls-2" d="M20.46,16.87l-.06-.07c-.06-.08-.03-.18,.02-.33,.42-1.13,2.3-5.14,3.07-5.8,.19-.16,.36-.24,.52-.24,.37,0,.51,.42,.53,.67l.06,.44c.79-1.31,3.47-5.67,4.54-6.5,.21-.16,.4-.24,.58-.24s.42,.08,.6,.44c.3,.62,.22,1.79-.14,2.24-.52,.64-5.87,7.02-5.87,7.02l-.04,.05-.14,.03c-.27,0-.4-.37-.43-1.2,0-.28-.03-.46-.04-.58-2.76,4.07-3.01,4.07-3.11,4.07h-.08Z"/><path class="cls-1" d="M29.72,4.95c.75,0,.78,1.9,.34,2.44-.52,.64-5.87,7.02-5.87,7.02,0,0-.03,.03-.07,.03-.1,0-.25-.14-.28-1.05-.02-.7-.1-.86-.16-.86-.06,0-.11,.13-.11,.13,0,0-2.77,4.08-3.04,4.08-.03,0-.03-.06,.02-.19,.46-1.24,2.32-5.13,3.03-5.74,.18-.15,.31-.21,.42-.21,.33,0,.38,.53,.38,.53l.12,.87s3.5-5.87,4.72-6.83c.19-.15,.35-.21,.49-.21m0-.3c-.21,0-.44,.09-.68,.28-1,.78-3.36,4.56-4.35,6.18v-.03c-.04-.39-.26-.79-.68-.79-.19,0-.4,.09-.62,.28-.8,.68-2.69,4.73-3.12,5.86-.04,.11-.11,.3,0,.46l.09,.13h.17c.17,0,.41,0,3-3.78,0,.05,0,.1,0,.15,.02,.66,.11,1.34,.58,1.34,.15,0,.25-.09,.28-.11,.08-.09,5.38-6.41,5.89-7.04,.4-.49,.48-1.72,.16-2.4-.22-.46-.55-.53-.73-.53h0Z"/></g></g></svg>