<?xml version="1.0" encoding="UTF-8"?><svg id="Complications" xmlns="http://www.w3.org/2000/svg" viewBox="0 0 32 32"><defs><style>.cls-1{fill:#fff;}.cls-2{fill:#ebbeab;}.cls-3{fill:#fed4c2;}</style></defs><g id="ic_gb"><path class="cls-1" d="M6.44,6.6s.5-.79,1.17-1.43,1.1-1.08,2.21-1.09,10.24,.06,10.24,.06c0,0-1.12,3.69-3.22,4.48,0,0,.18,.13,.15,.38,0,0,2.76-.05,4.82,1.01s2.72,2.12,2.72,2.12c0,0,3.62,1.83,3.93,2.27s.7,.95,.36,1.57l-.34,.62s.34,.98,.83,1.88,1.88,3.04,1.88,3.87-.44,1.16-.88,1.21-.57,0-.57,0c0,0,1.08,1.52,1.06,2.43s-.85,1.32-1.29,1.39-.55-.1-.55-.1c0,0-.27,1.67-2.21,1.3s-2.7-2.43-2.7-2.43c0,0-.32,1.32-2.2,1.06s-2.92-2.4-3.56-4.1-4.44-3.77-4.44-3.77c0,0-.85,1.39-2.71,.98-.3-.07-.72-.21-1.1-.65-.43-.13-1.13,.01-1.53-.15-.75-.12-.61-.46-1.18-.63-.99-.29-2-.28-3.16-.54-.95-.59-.84-.98-1.19-2.21l-2.09,.07s-.13-6.76,2.37-9.22c1.37-.93,3.16-.38,3.16-.38Z"/><path class="cls-3" d="M27.81,16.24s.7-.52,.39-1.07-3.66-2.31-3.66-2.31l3.27,3.39Z"/><path class="cls-3" d="M27.66,16.38c.33,.38,.83,1.77,1.44,2.86,.42,.75,.84,1.45,1.14,2.02s.48,1.02,.41,1.28c-.23,.89-1.74,.46-1.74,.46,.37,.79,1.51,2.61,1.17,3.12-.7,1.08-1.93,.15-1.93,.15,0,0,.77,1.86-1.47,1.32s-2.49-4.15-3.81-5.19-2.33-2.63-2.33-2.63c-.1,.11-.33,.18-.33,.18,.79,.86,2.46,4.59,2.46,4.59,0,0,.64,1.44-.09,1.79s-1.28-.19-1.8-.58-1.34-2.37-2.39-3.94-3.97-3.2-4.63-3.72c-.5-.39-.8-.43-.8-.43,0,0,.67-3.37-.69-4.27-.37-.18-.68-.22-.68-.22,0,0,.22-1.2-.13-1.72s-.78-.84-1.14-1.01-.77-.25-1.11-.11-.67,.65-.67,.65c0,0-.06-.28-.39-.63s-.56-.43-.89-.44-.91,.12-1.42,.45-.69,2.26-.74,2.61c-.41-.05-.78-.01-1.19,.45-.53,.57-.77,1.89-.77,1.89l-1.36,.04s.62-8.01,2.79-8.09,5.69,1.32,5.69,1.32c0,0,3.29,.97,7.74,1.24s6.39,3.17,6.39,3.17c0,0,2.94,3.01,3.27,3.39Z"/><path class="cls-3" d="M13.63,18.3s-1.01,1.16-1.32,1.21-1.7,.4-1.91-.74c0,0-2.09,.33-2.68-.86,0,0-1.73,.15-2.04-.57,0,0-1.14,.49-1.68-.52s-.41-1.5-.41-1.5c0,0,.31-2.48,1.83-1.83,0,0,.21-2.66,.72-2.89s1.78-.95,2.3,1.06c0,0,.64-1.34,1.52-1.01s1.24,.88,1.34,1.55-.15,1.29-.15,1.29c0,0,.98-.21,1.39,1.14s.05,3.25,.05,3.25c0,0,.34-.05,1.03,.41Z"/><path class="cls-3" d="M7.34,6.93s1.08-1.73,1.77-1.92,9.67,.05,9.67,.05c0,0-.9,2.28-2.82,2.85,0,0,.46,.37,.46,1.1,0,0-1.41-.16-2.84-.4s-3.13-.68-3.13-.68c0,0-1.22-.52-3.12-1.01Z"/><path class="cls-2" d="M11.07,6.37s3.72,.26,4.9,1.55c0,0,1.73-.42,2.81-2.85l-1.19-.03c-.48-.03-.91,.5-1.76,.53-1.4,.05-3.15,.24-4.76,.8Z"/><path class="cls-2" d="M5.43,13.5s-.19,1.3-.17,1.64,.43,2.2,.43,2.2c0,0-.1,.09-.25-.28-.14-.29-.49-1.68-.47-1.97s.31-1.61,.46-1.6Z"/><path class="cls-2" d="M8.45,11.67s-.59,1.14-.83,1.47-.22,.62-.22,.62c0,0-.21,1.43,.32,4.16,0,0-.2,.07-.26-.33s-.53-3.15-.28-3.89,.55-.72,1.26-2.03Z"/><path class="cls-2" d="M11.16,13.5s-.57,.25-.63,.8-.34,1.57-.32,2.25c.03,.98,.21,2.21,.21,2.21,0,0-.12,.02-.15-.01s-.13-1.08-.18-1.76c-.08-1.02,.14-1.64,.21-1.95s.1-.66,.22-.94c.15-.37,.45-.55,.65-.6Z"/><path class="cls-2" d="M22.8,17.47s-.08,.22-.04,.35-.21,.16,.74,.83,2.05,1.52,2.19,2.15,.07,.48,.37,1.45,.64,1.6,.82,1.73,.4,.63,.46,.84,.84,1.33,.91,1.73,.03-.36-.42-.99-.51-1.16-.83-1.59-.6-1.04-.62-1.15-.52-2.19-.76-2.43c-.39-.55-2.04-1.77-2.04-1.77,0,0-.58-.66-.78-1.14Z"/><path class="cls-2" d="M20.55,19.76s-.09,.13-.33,.18c0,0-.58-.93-.8-1.1,0,0-.18-.35-.12-.44,.09-.13,.45-.01,.6,0,.1,.01,.11,.36,.25,.44,.14,.23,.38,.53,.38,.72v.19Z"/><path class="cls-2" d="M24.3,15.3s-.03,.57-.21,.36,.39,.83,.57,.98,2.23,2.12,2.56,2.66,1.49,3.51,1.75,3.69c0,0-1.14-2.51-1.18-2.71s-.39-1.06-.48-1.13-1.68-2.04-2.04-2.35-.96-1.5-.96-1.5Z"/></g></svg>