<?xml version="1.0" encoding="utf-8"?>
<!-- Generator: Adobe Illustrator 27.9.0, SVG Export Plug-In . SVG Version: 6.00 Build 0)  -->
<svg version="1.1" id="Livello_2_00000176728541721821815320000015877020139728153278_"
	 xmlns="http://www.w3.org/2000/svg" xmlns:xlink="http://www.w3.org/1999/xlink" x="0px" y="0px" viewBox="0 0 30.5 29.2"
	 style="enable-background:new 0 0 30.5 29.2;" xml:space="preserve">
<style type="text/css">
	.st0{fill:#FFFFFF;}
	.st1{fill:#EBBEAB;}
	.st2{fill:#FED4C2;}
	.st3{fill:#82B7D9;}
	.st4{fill:#212121;}
	.st5{opacity:0.52;fill:#C46769;enable-background:new    ;}
	.st6{opacity:0.52;fill:#BF5456;enable-background:new    ;}
	.st7{opacity:0.52;fill:#B53A3D;enable-background:new    ;}
</style>
<g id="Symptoms">
	<g id="ic_headache">
		<path class="st0" d="M3.6,8.1C2.9,8,2.3,8.2,2.1,8.7c-0.7-0.1-2,1.7-0.8,3c-1,0.4-1.3,1.1-0.8,2.1L2,16.4
			c-0.3,1.2-0.1,2.8,0.2,4.5c-0.3,1-0.1,1.9,0.1,3c0,0-1.1,3.1,0.5,3.9c1.3,0.6,3.9,1.3,8.9,1.3c8.5,0,12-0.8,12-0.8s5.4-1.1,5.9-1
			c0.5,0.1,0.9-3,0.5-3.4c-0.4-0.3-3.3-1.6-6.5-1.2c0,0,0.4-0.8,1.5-1.8c1.7-1.4,3.9-2.8,4.1-4.6c0.2-1.8,0.4-2.8,0.6-4.8
			c0-0.6-1-4.1-1-4.1s-0.2-0.8-1.1-0.4c0-0.8-0.5-1-0.5-1S24.7,1.8,19,1.6c0,0,1.3-1.2,0.4-1.3c-0.9-0.1-1.9-0.1-2.4,0.1
			c-1.2,0.5-1.5,0.6-2,1.6c-4.2,1.5-4.8,4.9-4.7,7.1C9,9.9,9.4,10.5,9.6,11.7c0.1,0.4-1.3,0-1.6-0.1C7.4,11.4,6.7,9.9,5.6,9
			C5,8.3,4.5,8.9,4.4,9C3.9,8.3,3.5,8.1,3.6,8.1L3.6,8.1z"/>
		<path class="st1" d="M21.1,20.8c-0.6,0.4,0.3,2.8,0.3,2.8c-7.4,0.3-9.6-2.3-9.6-2.3c0.9-0.2,1.1-1.6,1.1-1.6L21.1,20.8L21.1,20.8z
			"/>
		<g>
			<path class="st2" d="M7.6,12.4c0,0,0.5-0.2,0.7,0.1C8.5,12.8,8.5,15,8.5,15L7.6,12.4L7.6,12.4z"/>
			<path class="st2" d="M7.5,12.5c-0.1-0.3-0.7-0.9-1.1-1.5c-0.3-0.4-0.5-0.8-0.7-1.1C5.4,9.5,5.3,9.3,5.1,9.3
				c-0.5-0.1-0.7,0.8-0.7,0.8c-0.3-0.4-1-1.4-1.3-1.4c-0.7,0.1-0.6,1-0.6,1S1.8,8.8,1.5,10s1.5,2.4,1.7,3.3s0.8,1.9,0.8,1.9
				c-0.1,0-0.2,0.1-0.2,0.1C3.5,14.7,2,12.9,2,12.9s-0.6-0.7-0.9-0.4s-0.2,0.7-0.2,1.1s1.5,2,1.7,2.8c-0.2,1.9-0.1,3,0.3,4.4
				c-0.3,0.7-0.1,2.8,0.1,3.3c0.6,0.7,3,1.4,3.6,0.3c0.2-1.8,0.9-2.5,1.9-4.8S8.4,15,8.4,15S7.6,12.7,7.5,12.5L7.5,12.5z"/>
			<path class="st1" d="M5.7,14.7c0,0-0.1,0-0.2-0.1S5.4,14.7,5.3,14c-0.1-0.7-0.3-1.4-0.5-1.7s-0.2-0.2-0.7-0.6
				c-0.4-0.4-0.7-0.7-0.7-0.9c0-0.1-0.2-0.4-0.3-0.5C3,10.4,2.6,9.7,2.4,9.5C2.2,9.4,2.6,9.6,2.8,10c0.2,0.4,0.5,0.6,0.6,0.8
				c0.1,0.3,0.4,0.6,0.4,0.6c0,0,1,0.8,1.1,1C5.1,12.8,5.3,14,5.3,14S5.5,14.5,5.7,14.7z"/>
			<path class="st1" d="M7.2,14.5c0,0-0.3-0.1-0.2,0c0.1,0.1-0.3-0.4-0.4-0.5s-0.5-1.7-0.7-2s-1.4-1.7-1.4-1.9c0,0,1,1.2,1.1,1.3
				C5.6,11.5,6,11.9,6,11.9c0,0.1,0.6,1.4,0.7,1.7C6.7,13.8,7.2,14.5,7.2,14.5L7.2,14.5z"/>
		</g>
		<path class="st3" d="M22.1,23.3c0,0-6.5,0.4-10.1-2c-1.8-0.7-4.8-0.2-6.2,0.2S3.2,22,3,23.1c-0.2,1.3-1,3.2,0,4
			c3.5,1.5,13.9,1.7,19.7,0.6c5.8-1.1,6.8-1.2,6.8-1.2s0.4-2.2,0-2.4C29.4,24,26,22.3,22.1,23.3z"/>
		<path class="st2" d="M11.1,10.4c0,0,0.1-0.6-0.8-0.5c-0.7,0.2,0.3,4.1,0.4,5.3s0.6,0.7,0.6,0.7L11.1,10.4L11.1,10.4z"/>
		<path class="st2" d="M25.2,13.9c0,0,0.2-0.6,0.9-0.1c0.6,0.4-1.8,3.7-2.4,4.8c-0.6,1.1-0.9,0.4-0.9,0.4S25.2,13.9,25.2,13.9z"/>
		<path class="st4" d="M13.4,20.1c0,0-1.6-0.8-2-4.3c-0.4-3.4-0.6-3-0.6-3S10,11.6,10.7,9s0.5-4.8,4.7-6.4c0,0,0.4-1,1.1-1.4
			c0,0-0.3,0.9-0.2,1.2c0,0,0.6-1.4,2.7-1.4c0,0-0.6,0.3-1,1.1c0,0,3.2,0.1,6,1.9s2.7,6,2,8.1s-2.5,5.7-2.5,5.7S22,22.1,19,21.7
			C16,21.2,13.4,20.1,13.4,20.1L13.4,20.1z"/>
		<g>
			<circle class="st5" cx="23.2" cy="8.2" r="6.5"/>
			<circle class="st6" cx="23.2" cy="8.2" r="4.7"/>
			<circle class="st7" cx="23.2" cy="8.2" r="2.9"/>
		</g>
		<g>
			<path class="st2" d="M29,11.5c0-0.3-0.2-1.1-0.4-1.8c-0.1-0.5-0.1-1-0.2-1.3s-0.1-0.6-0.3-0.7c-0.4-0.3-1,0.4-1,0.4
				c-0.1-0.5-0.2-1.7-0.6-1.8C26,6,25.7,6.9,25.7,6.9s-0.3-1.1-1.1-0.1s0.3,2.8,0.1,3.7c-0.2,0.9-0.1,2-0.1,2c0,1-1.9,2.4-2.2,1.7
				c-0.3-0.6-0.2-1.6-0.1-2.6c0,0,0-1.5-0.7-1.4c-0.3,0-0.4,0.2-0.5,0.7c-0.1,0.3-0.2,0.8-0.3,1.1c-0.1,0.3,0.1,2,0,2.7
				c-0.6,1.1-1,4.8-0.8,5.4c0.2,0.9,2.1,2.5,3.1,1.8c1-1.6,1.9-1.8,3.8-3.5s1.9-4.2,1.9-4.2S29,11.8,29,11.5L29,11.5z"/>
			<path class="st1" d="M26.4,12.8c0,0-0.1-0.1-0.1-0.1s-0.1,0,0-0.6c0.2-0.6,0.4-1.4,0.2-1.8c-0.2-0.3-0.1-0.2-0.3-0.8
				c-0.2-0.6-0.3-1-0.2-1.1c0-0.1,0-0.4-0.1-0.5c0-0.1-0.1-0.9-0.2-1.1c-0.1-0.2,0.1,0.1,0.2,0.6c0,0.5,0.2,0.7,0.2,1
				s0.1,0.7,0.1,0.7c0,0,0.5,1.2,0.5,1.4c0,0.4-0.3,1.5-0.3,1.5S26.3,12.5,26.4,12.8L26.4,12.8z"/>
			<path class="st1" d="M27.9,13.2c0,0-0.2-0.2-0.2-0.1s-0.1-0.5-0.1-0.7s0.3-1.8,0.2-2.1c0-0.4-0.6-2.1-0.5-2.3
				c0,0,0.4,1.5,0.4,1.7c0,0.1,0.2,0.6,0.2,0.7c0,0.1,0,1.5-0.1,1.8C27.7,12.5,27.9,13.2,27.9,13.2L27.9,13.2z"/>
		</g>
	</g>
</g>
</svg>
