<?xml version="1.0" encoding="UTF-8"?><svg id="Who_is_at_risk" xmlns="http://www.w3.org/2000/svg" viewBox="0 0 32 32"><defs><style>.cls-1{fill:#fff;}.cls-2{fill:#dbdbdb;}.cls-3{fill:#999;}.cls-3,.cls-4{stroke:#fff;stroke-miterlimit:10;stroke-width:.5px;}.cls-4{fill:#d99898;}</style></defs><g id="ic_immune"><path class="cls-1" d="M26.63,4.22L16.92,1.41c-.48-.14-1-.14-1.48,0L5.73,4.21c-.61,.18-1.03,.73-1.03,1.37-.11,9.74-1.76,18.76,10.91,24.98,.35,.17,.78,.17,1.13,0,12.67-6.22,11.03-15.24,10.91-24.98,0-.63-.42-1.19-1.03-1.37Z"/><path class="cls-2" d="M16.85,29.33c-.16,.08-.35,.12-.52,.12V2.51c.24,0,.46,.03,.69,.1l8.62,2.45c.56,.16,.95,.68,.95,1.26,.11,9.04,2.03,17.23-9.74,23Z"/><g><path class="cls-4" d="M24.87,3.89l-3.14-1.81c-.1-.06-.22-.06-.31,0l-3.14,1.81c-.1,.06-.16,.16-.16,.27v3.63c0,.09,.05,.18,.12,.24,.01,.01,.03,.02,.04,.03l3.14,1.81s.03,.02,.04,.02c.07,.04,.16,.04,.23,0,.02,0,.03,0,.04-.02l3.14-1.81s.03-.02,.04-.03c.07-.06,.11-.15,.11-.24v-3.63c0-.11-.06-.22-.16-.27Zm-3.45,3.07l-.62-.36c-.1-.06-.16-.16-.16-.27v-.71c0-.11,.06-.21,.16-.27l.62-.36c.09-.06,.21-.06,.31,0l.62,.36c.1,.06,.16,.16,.16,.27v.71c0,.11-.06,.22-.16,.27l-.62,.36c-.1,.05-.22,.05-.31,0Z"/><path class="cls-4" d="M21.03,10.55s-.02-.02-.04-.03l-3.14-1.81s-.03-.02-.04-.02c-.09-.04-.19-.04-.27,.02l-3.14,1.81c-.1,.06-.16,.16-.16,.27v3.63c0,.11,.06,.22,.16,.27l3.14,1.81c.1,.06,.22,.06,.32,0l3.14-1.81c.09-.05,.16-.16,.16-.27v-3.63c0-.09-.05-.18-.12-.24Zm-2.4,2.41c0,.11-.06,.21-.16,.27l-.61,.36c-.1,.06-.22,.06-.32,0l-.62-.36c-.1-.06-.16-.16-.16-.27v-.72c0-.11,.06-.21,.16-.27l.62-.36c.1-.05,.22-.05,.32,0l.61,.36c.1,.06,.16,.16,.16,.27v.72Z"/><path class="cls-3" d="M28.79,10.55s-.02-.02-.04-.03l-3.14-1.81s-.03-.02-.04-.02c-.09-.04-.19-.04-.27,.02l-3.14,1.81c-.1,.06-.16,.16-.16,.27v3.63c0,.11,.06,.22,.16,.27l3.14,1.81c.1,.06,.22,.06,.32,0l3.14-1.81c.09-.05,.16-.16,.16-.27v-3.63c0-.09-.05-.18-.12-.24Zm-2.4,2.41c0,.11-.06,.21-.16,.27l-.61,.36c-.1,.06-.22,.06-.32,0l-.62-.36c-.1-.06-.16-.16-.16-.27v-.72c0-.11,.06-.21,.16-.27l.62-.36c.1-.05,.22-.05,.32,0l.61,.36c.1,.06,.16,.16,.16,.27v.72Z"/></g></g></svg>