<?xml version="1.0" encoding="UTF-8"?><svg id="Who_is_at_risk" xmlns="http://www.w3.org/2000/svg" viewBox="0 0 32 32"><defs><style>.cls-1{fill:#fff;}.cls-2{fill:#dbdbdb;}</style></defs><g id="ic_immunecomp"><path class="cls-1" d="M13.14,12.59l-.69-.25-4.36-.56-3.15-1.23c-.07-1.67-.08-3.39-.16-5.13-.02-.59,.33-1.13,.89-1.32L14.53,1.04c.44-.15,.92-.18,1.37-.07l5.38,1.25-2.85,4.04-3.39,3.44-1.9,2.9Z"/><path class="cls-2" d="M15.34,9.4l-.25-7.7c.22-.01,.43,0,.64,.06l5.06,1.17-2.35,3.33-3.1,3.14Z"/><path class="cls-1" d="M23.03,3.02l4,1.19c.56,.17,.94,.69,.94,1.28,0,4.05,.28,7.97-.47,11.57l-7.22-1.91-5.73-2.21,1.94-2.78,3.55-3.35,2.99-3.78Z"/><path class="cls-2" d="M16.95,9.71l.14,4.19,3.19,1.23,6.1,1.62c.68-3.37,.31-7.12,.32-10.97,0-.54-.35-1.02-.87-1.18l-3.23-1.05-2.57,3.24-3.09,2.92Z"/><path class="cls-1" d="M26.18,18.25c-.87,4.44-3.31,8.41-9.79,11.59-.33,.16-.73,.16-1.05,0C5.85,25.19,5.02,18.84,5.1,11.81l3.1,1.36,4.33,.69,6.54,2.61,7.11,1.78Z"/><path class="cls-2" d="M25.26,18.02c-.75,3.98-2.93,7.48-8.83,10.37-.15,.08-.32,.11-.48,.11V15.23l3.13,1.24,6.19,1.55Z"/></g></svg>