<?xml version="1.0" encoding="UTF-8"?>
<svg id="Livello_2" data-name="Livello 2" xmlns="http://www.w3.org/2000/svg" viewBox="0 0 17.58 31.16">
  <defs>
    <style>
      .cls-1, .cls-2 {
        fill: #fff;
      }

      .cls-3 {
        fill: #fed4c2;
      }

      .cls-2 {
        stroke: #fff;
        stroke-linecap: round;
        stroke-miterlimit: 10;
      }

      .cls-4 {
        fill: #c46769;
      }

      .cls-4, .cls-5, .cls-6 {
        opacity: .52;
      }

      .cls-5 {
        fill: #bf5456;
      }

      .cls-6 {
        fill: #b53a3d;
      }
    </style>
  </defs>
  <g id="Symptoms">
    <g id="ic__joint_pain" data-name="ic_ joint pain">
      <path class="cls-2" d="m9.68,30.66c.15,0,.26-.14.21-.29-.38-1.24-1.73-6.17.52-8.22,2.11-1.92,1.61-3.64,1.35-4.2-.05-.11-.18-.15-.29-.09-2.13,1.1-4.36.33-4.94.09-.09-.04-.2-.02-.28.03-1.98,1.28-4.13.31-4.71,0-.1-.05-.21-.02-.27.07-.36.49-1.25,2.13.9,4.1,2.25,2.05.9,6.98.52,8.22-.04.14.06.29.21.29h6.76Z"/>
      <path class="cls-1" d="m6.66.17c1.27.53,2.05.33,2.65.27s1.38-.39,1.25.76-.54,3.38.18,4.78,3.36,2.24,3.03,5.42c-.3,2.98-3.96,5.27-7.04,2.31,0,0-3.37,2.3-5.6-.73s-.05-5.8,1.87-6.62,2.31-3.45,2.41-4.12.11-1.7.11-1.7c0,0-.12-.89,1.14-.36Z"/>
      <path class="cls-3" d="m3.47,15.08c2.38.46,2.55-1.09,4.02-.08s3.61.58,4.1.28.93-.59,1.1.05-1.69,1.93-3.78,1.82-1.92-1.12-3.66-.11c-1.31.8-3.18-.1-4.06-.61s-1.8-1.98-.65-2.35,1.12.64,2.93.99Z"/>
      <g>
        <circle class="cls-4" cx="12.43" cy="16.36" r="5.15"/>
        <circle class="cls-5" cx="12.43" cy="16.36" r="3.75"/>
        <circle class="cls-6" cx="12.43" cy="16.36" r="2.33"/>
      </g>
    </g>
  </g>
</svg>