<?xml version="1.0" encoding="UTF-8"?>
<svg id="Livello_1" data-name="Livello 1" xmlns="http://www.w3.org/2000/svg" xmlns:xlink="http://www.w3.org/1999/xlink" version="1.1" viewBox="0 0 101.5 71.5">
  <defs>
    <style>
      .cls-1 {
        fill: #dfaf53;
      }

      .cls-1, .cls-2, .cls-3, .cls-4, .cls-5, .cls-6, .cls-7, .cls-8, .cls-9 {
        stroke-width: 0px;
      }

      .cls-10 {
        stroke-dasharray: 0 0 4.7 1.2;
      }

      .cls-10, .cls-3, .cls-7 {
        fill: #b68d53;
      }

      .cls-10, .cls-11, .cls-12 {
        stroke: #666;
        stroke-miterlimit: 10;
        stroke-width: .6px;
      }

      .cls-2 {
        fill: #d59e2f;
      }

      .cls-4 {
        fill: #d19e3b;
      }

      .cls-11 {
        stroke-dasharray: 0 0 4.3 1.1;
      }

      .cls-11, .cls-13, .cls-12 {
        fill: none;
      }

      .cls-5 {
        fill: #dfae50;
      }

      .cls-6 {
        fill: #efc569;
      }

      .cls-13 {
        stroke: #fff;
        stroke-linecap: round;
        stroke-linejoin: round;
        stroke-width: 2px;
      }

      .cls-7 {
        filter: url(#drop-shadow-1);
      }

      .cls-8 {
        fill: #d9d9d9;
      }

      .cls-9 {
        fill: #8e6c3a;
      }
    </style>
    <filter id="drop-shadow-1" filterUnits="userSpaceOnUse">
      <feOffset dx=".6" dy=".6"/>
      <feGaussianBlur result="blur" stdDeviation="2.9"/>
      <feFlood flood-color="#000" flood-opacity=".2"/>
      <feComposite in2="blur" operator="in"/>
      <feComposite in="SourceGraphic"/>
    </filter>
  </defs>
  <g>
    <path class="cls-13" d="M36.4,5.5c-.5-.2-1-.2-1-.2,0,0,.4,0,1,.2Z"/>
    <path class="cls-13" d="M49.9,4.9s0,0,0,.2c0-.2,0-.4,0-.2Z"/>
    <path class="cls-13" d="M95.5,40.5c.5,1.9-.8-3.1-.8-3.1,0,0-.6-3.5-.7-4.3-.1-.8,0-.9.5-.2.4.7.9,1.9.9,1.9,0,0-.4-5.4-.4-6.3s-1.3-3.7-1.2-4.5c.1-.8,1.2,2.3,1.2,2.3,0,0,0-.8-.3-1.7-.3-.9-2-5.3-1.7-5.1.3.2,1.1,1.4,1.1,1.4,0,0,0-.4-.4-1.2-.4-.8-2.3-3.7-2.1-4.2s2.1,1.1,2.1,1.1c0,0,.2-.1-.9-.9s-2.4-1.5-2.3-1.7c0-.2,2.3,0,2.3,0,0,0-2.4-.5-3.3-.6-.9-.1,1.7-2.7,1.7-2.7,0,0-1.9,1.7-2.6,1.8-.7.1.3-.9.3-.9,0,0-1.5.7-2,.5s1.5-2.6,1.5-2.6c0,0-2.1,1.4-2.4,1.2-.3-.2,1.2-1.3,1.2-1.3,0,0-1.1.3-.9,0s1.2-1,1.2-1c0,0-2.9.3-3.2,0s3.2-1.4,3.2-1.4c0,0-5.1.2-6,.3-.9,0,1.5-1.9,1.5-1.9,0,0-2.4,1-4.3,1.6-1.9.6,2.6-1.6,2.6-1.6,0,0-4.9,1.5-6.5,1.4-1.6-.1,0-.7.4-1.1.3-.4-4.5,2.5-4.5,2.5,0,0,.2-.8.5-1.3.3-.5,1.7-2,1.7-2,0,0-1.1.8-1.7,1-.6.2.5-1.1.5-1.1l-2.7,2.8s.6-1.8.7-2.1c.1-.3.7-1.6.7-1.6,0,0-4.1,3.2-4,3s1.2-2.1,1.2-2.1l-.9.4c-.9.4-3,2.4-3,2.4v-1.2c0,0,.2-.8.6-1.3.4-.5.9-1.6.9-1.6,0,0-1.1.9-1.8,1.6s-2.6,2.4-2.6,2.4c0,0,.5-1.4.8-1.9s2-2.3,2-2.3c0,0-.1,0-.3.2-.5.3-1.4,1-1.9,1.7s-1.1,2.7-1.1,2.7c0,0,0-.3-.1-.6,0-.3,0-1.1,0-1.1l-.7.2s.1-.7.3-1c.2-.3.9-2.6.9-2.6,0,0-1.3,1.1-1.7,1.7-.4.6-2.2,3.6-2.2,3.6,0,0-.3-1.5.3-2.3.6-.8,1.4-2.4,1.4-2.4,0,0-.2,0-.8.6-.6.6-1.1,2.7-1.1,2.7l-.2-.3-.8,1.2-1.1-1.8-.7,1.4s0-1.5,0-1.8.5-.7.5-.7h-.3c-.3.2-.7,1.6-.7,1.6v-1c0-.3.2-1,.3-1.2,0,0-.1.2-.4.6-.4.5-.2,2-.2,2,0,0-.3-.2-.6-.4-.3-.2-1.7-1.4-1.8-1.6,0-.2.2,1.8.2,1.8,0,0-.8-1-1-1.4,0,0,0,.1,0,.1,0,0,1.1,1.8.8,1.7-.3-.1-1.7-1.1-1.7-1.1h-.4c0,0,1.9,1.3,1.9,1.3,0,0,.8,1,.6,1.2-.2.2-1-.6-1.4-.8-.4-.2-2.5-2-2.5-2l1.8,3.3s-3-1.8-3.5-2.2c-.5-.4-1.2-.9-1.2-.9l.9,2s-.7-.9-1.7-1.5-3.4-.9-2.8-.7c.6.2,1.8.5,3.1,1.4,1.3.9,1.5,1.5,1.4,1.6,0,.1-3.4-2.2-4.9-2.6-1.5-.4-2.1-.5-2.1-.5l2.5,2.1s-.5-.3-1.5-1c-.6-.4-1.9-.7-2.8-.9.1,0,.2,0,.3.1.6.3,2.7,1.6,2.7,1.6h-.4c-.4-.3-4.7-1.8-4.7-1.8,0,0,.5.2,1.2.7.7.5,1.9,2.4,1.9,2.4l-1.6-1.2s-1.3-.7-1.7-1c-.4-.3-2.6-1-2.6-1,0,0,.2.2.6.5.4.3,2,1.5,2,1.5,0,0-1.5-.7-2.2-.9s-2.5-.6-3.5-.9c-1-.3-1.1-.1-1.1-.1l1.1.7s-.9-.3-2.3-.2l-1.5.2c-.5-.5-1-1-1-1l-.4.9-.3-.4c-.3-.4-.7-1-.7-1v1.6s0-.2-.3-.8c-.3-.6-1-1.3-1-1.3,0,0,.2.7.4,1s0,1.3,0,1.3c0,0-.7-.5-.9-.7-.2-.2-.9-.5-.9-.5l.9,1.4s-.6-.5-1-.8c-.4-.3-2.4-.9-2.4-.9.3.1,2.6,1.6,2.6,1.6,0,0-3.1-1.2-4-1.5-.9-.3-2.5.2-2.5.2h1.2c.8,0,2.1,1,2.1,1,0,0-1.1-.5-2-.5s-2.5.5-2.5.5c0,0,.5.2,1.9,0,1.4-.2,2.2.7,2.2.7,0,0-.7.1-2.2,1-1.5.9-3.9,3.7-3.9,3.7,0,0,1,.2,1.3.2s.6,0,.7.3c.1.3-1.7,2.4-1.9,2.7s-1,.9-1.6,1.2c-.6.3.8-.1,1.1-.2.3-.1.4,0,.4.3s0,.3-.5.5c0,0-.6.5-.7.6s.4.1,1,0c.6,0,.6.2.6.2,0,0-.7,1-1.1,1.6-.4.6-1.5,3.1-1.8,3.5-.3.4-1,1.7-.6,1.1s1.3-1.5,1.3-1.5l-.7,1.6s-1.2,2.7-1.3,3c0,.3.9-.7.9-.7,0,0-.1.5-.6.9s.6,0,1-.5c.4-.4,0,.7-.2,1.1-.1.4-.6,1.5-.6,1.7s-.6,1.7-.9,2c-.3.3.3,0,.6-.3s-.4,1.6-.7,2.1-1,2.2-1,2.2c0,0-.7,1.5-1,1.9-.3.4.4-.2.4-.2,0,0,1.6-1.9,1.8-2.2s0,2.4-.2,3.1c0,.7-.4,2.7-.4,2.7,0,0,.2-.3.3,0,0,.2-.2.5-.2.7s.6-.5.7-.6,0,1.7,0,2c-.1.3-.6,1.1-.8,1.3-.2.2-.1.3,0,.3s1-1,1.2-1.2c.2-.2.3,1.4.2,2,0,.6,0,1.6-.4,2-.3.4.8-.6.7-.3,0,.3,0,.7,0,.6.1,0,.5-1,.5-1,0,0,.6,1.7.5,2.6,0,.9,0,3.7,0,3.7,0,0-.2,2.2-.2,2.5s.2-.6.4-1c.2-.4,0,.7,0,1.3.1.6.4-1.4.7-1.8.3-.4,0,.5,0,.5,0,0,0,6.3,0,6.5s.6-1.6.7-2.2c0-.6,0,.9,0,1.1s.2-1,.4-1.4c.2-.4.2.7.8,1.8.6,1.1,1,1.4,1,1.4,0,0,.4-.4.6-.3.2,0,0,.7-.2,1.3-.2.6,0,.6,0,.6,0,0,.4-.4.8-.5.4,0,.2.2.4.2s0,.6,0,.9-.7.3-.8.3,1.2,0,1.4,0,2.4.2,3.3.2.4,0,.5,0h-.3c0,.1,2,.4,3.5.3,1.5-.1,4.9-.2,5.1,0s-.8.3-2.3.9c-1.5.6.9.1,1.4,0,.5,0,7-1.1,6.8-1-.2.1-1.6,1.1-1.1.9s3.1-.9,3.1-.9c0,0-1.9.9-2.2,1.2-.3.3.8-.2,1.4-.4.6-.2,9.9-1.9,10.8-1.5.9.4-2.6,1.5-2.6,1.5,0,0,4.3-1.2,6-1.3,1.2,0-.2.6-1.2,1,.9-.3,2.4-.8,3.4-.8,1.4,0-1.7,1.4-1.7,1.4,0,0,4.7-1.1,5-1.1s-.5.4-1.2,1.1c-.7.7,4.2-1.4,4.7-1.3.5.1-2,1.5-2.7,1.8-.7.3.8-.3,1.6-.5.8-.2,2.3-.6,3.3-.8.3,0,.6,0,1,0,0,.3,0,.6.2.9.8,4.1,3,3.6,3,3.6,0,0-2.3-.3,8.5,0,10.9.2,14-1.3,14.4-2.5.3-.9-.6-1.7-1-2.7.8.3,2,.5,2,.5,0,0,0-.4-.4-.8-.3-.4,1.5,1,1.7,1.1s.3-.3,0-.8c-.4-.5-1.7-1.3-1.7-1.3,0,0,1.9-.9,2.4-1.3.5-.4,1.1-1.1,1.8-1.9s2.3-3.4,2.3-3.4c0,0-1.5,1.3-1.7,1.3s1.8-2.6,1.8-2.6c0,0-2,1.9-2.4,1.8-.4,0,.5-.4,1-1,.5-.6,1.6-2.6,1.6-2.6,0,0-1.8,2.4-2.6,2.8s1.6-2.8,1.9-3.4c.3-.6.9-2.8.9-3.4v-1.6s-.4,1.6-.9,2.4c.2-.5.5-1.8.5-2s.5-2.2.3-1.7c0,0,0,0,0,0,.2-1.3.2-3.3.2-3.3,0-.7.4,2.4.4,2.4,0,0,.2-.7.2-1.2s-.3-2-.3-2.6,1.4,1,1.4,1l-.6-1.6c-.6-1.6,0-1.8,0-2.3s1.1,1.8,1.2,2.2ZM20.9,63.8h.2c0,0-.1.1-.1.1h0Z"/>
    <path class="cls-13" d="M53.7,4.1s0,0,0,0c0,0,0,0,0,0Z"/>
    <path class="cls-13" d="M46.1,64.6c-.4.1-.6.2-.6.2,0,0,.3-.1.6-.2Z"/>
  </g>
  <g>
    <g>
      <path class="cls-6" d="M24.7,62.5l-1.4.5-1.8.8h-2s-1.4.2-2.3.2-3.1-.2-3.3-.2-1.5,0-1.4,0,.7,0,.8-.3.3-.9.1-.9,0-.3-.4-.2-.8.5-.8.5c0,0-.2,0,0-.6s.4-1.2.2-1.3-.6.3-.6.3c0,0-.4-.3-1-1.4s-.6-2.2-.8-1.8-.4,1.6-.4,1.4,0-1.7-.1-1.1-.7,2.4-.7,2.2.1-6.5.1-6.5c0,0,.2-.9-.1-.5s-.6,2.4-.7,1.8.2-1.7,0-1.3-.4,1.3-.4,1,.2-2.5.2-2.5c0,0-.1-2.8,0-3.7s-.5-2.6-.5-2.6c0,0-.4.9-.5,1s0-.3,0-.6-1,.7-.7.3.3-1.4.4-2,0-2.2-.2-2-1.1,1.2-1.2,1.2-.2,0,0-.3.7-1,.8-1.3,0-2.1,0-2-.7.8-.7.6.3-.5.2-.7-.3,0-.3,0c0,0,.3-2,.4-2.7s.4-3.4.2-3.1-1.8,2.2-1.8,2.2c0,0-.7.6-.4.2.3-.4,1-1.9,1-1.9,0,0,.7-1.7,1-2.2s1-2.3.7-2.1-.9.6-.6.3.9-1.8.9-2,.5-1.3.6-1.7.6-1.5.2-1.1-1.5.9-1,.5.6-.9.6-.9c0,0-1,1-.9.7s1.3-3,1.3-3l.7-1.6s-.9.9-1.3,1.5.3-.7.6-1.1,1.4-2.9,1.8-3.5,1.1-1.6,1.1-1.6c0,0,0-.3-.6-.2s-1.1.1-1,0,.7-.6.7-.6c.4-.2.5-.3.5-.5s-.1-.4-.4-.3-1.7.5-1.1.2,1.4-.9,1.6-1.2,2-2.4,1.9-2.7-.4-.3-.7-.3-1.3-.2-1.3-.2c0,0,2.4-2.8,3.9-3.7s2.2-1,2.2-1c0,0-.8-.9-2.2-.7s-1.9,0-1.9,0c0,0,1.6-.5,2.5-.5s2,.5,2,.5c0,0-1.3-1-2.1-1h-1.2s1.6-.5,2.5-.2c.9.3,4,1.5,4,1.5,0,0-2.3-1.5-2.6-1.6,0,0,2,.6,2.4.9s1,.8,1,.8l-.9-1.4s.7.3.9.5.9.7.9.7c0,0,.2-1,0-1.3s-.4-1-.4-1c0,0,.7.7,1,1.3s.3.8.3.8v-1.6s.4.6.7,1l.3.4.4-.9s.9.9,1.6,1.4,5.1,2.9,5.1,2.9l7,8.5.9,22.6-7.3,14.9-3.2,5-2.8,1.6-.2.4Z"/>
      <path class="cls-5" d="M34.4,59.6l27-1.1,13.5-.7,5.9.2,8.6-6.7s2.9-3.5,3.3-4.3.5-4.4.5-4.4c0-.7.4,2.4.4,2.4,0,0,.2-.7.2-1.2s-.3-2-.3-2.6,1.4,1,1.4,1l-.6-1.6c-.6-1.6,0-1.8,0-2.3s1.1,1.8,1.2,2.2c.5,1.9-.8-3.1-.8-3.1,0,0-.6-3.5-.7-4.3s0-.9.5-.2.9,1.9.9,1.9c0,0-.4-5.4-.4-6.3s-1.3-3.7-1.2-4.5,1.2,2.3,1.2,2.3c0,0,0-.8-.3-1.7s-2-5.3-1.7-5.1,1.1,1.4,1.1,1.4c0,0,0-.4-.4-1.2s-2.3-3.7-2.1-4.2,2.1,1.1,2.1,1.1c0,0,.2-.1-.9-.9s-2.4-1.5-2.3-1.7,2.3,0,2.3,0c0,0-2.4-.5-3.3-.6s1.7-2.7,1.7-2.7c0,0-1.9,1.7-2.6,1.8s.3-.9.3-.9c0,0-1.5.7-2,.5s1.5-2.6,1.5-2.6c0,0-2.1,1.4-2.4,1.2s1.2-1.3,1.2-1.3c0,0-1.1.3-.9,0s1.2-1,1.2-1c0,0-2.9.3-3.2,0s3.2-1.4,3.2-1.4c0,0-5.1.2-6,.3s1.5-1.9,1.5-1.9c0,0-2.4,1-4.3,1.6-1.9.6,2.6-1.6,2.6-1.6,0,0-4.9,1.5-6.5,1.4s0-.7.4-1.1-4.5,2.5-4.5,2.5c0,0,.2-.8.5-1.3s1.7-2,1.7-2c0,0-1.1.8-1.7,1s.5-1.1.5-1.1l-2.7,2.8s.6-1.8.7-2.1.7-1.6.7-1.6c0,0-4.1,3.2-4,3s1.2-2.1,1.2-2.1l-.9.4c-.9.4-3,2.4-3,2.4v-1.2c0,0,.2-.8.6-1.3s.9-1.6.9-1.6c0,0-1.1.9-1.8,1.6s-2.6,2.4-2.6,2.4c0,0,.5-1.4.8-1.9s2-2.3,2-2.3c0,0,0,0-.3.2-.5.3-1.4,1-1.9,1.7s-1.1,2.7-1.1,2.7c0,0,0-.3,0-.6s0-1.1,0-1.1l-.7.2s0-.7.3-1,.9-2.6.9-2.6c0,0-1.3,1.1-1.7,1.7s-2.2,3.6-2.2,3.6c0,0-.3-1.5.3-2.3s1.4-2.4,1.4-2.4c0,0-.2,0-.8.6s-1.1,2.7-1.1,2.7l-.2-.3-.8,1.2-1.1-1.8-.7,1.4s0-1.5,0-1.8.5-.7.5-.7h-.3c-.3.2-.7,1.6-.7,1.6v-1c0-.4.3-1.2.3-1.2,0,0,0,0-.4.6s-.2,2-.2,2c0,0-.3-.2-.6-.4s-1.7-1.4-1.8-1.6.2,1.8.2,1.8c0,0-1.1-1.3-1-1.6s0,.3,0,.3c0,0,1.1,1.8.8,1.7s-1.7-1.1-1.7-1.1h-.4c0,0,1.9,1.3,1.9,1.3,0,0,.8,1,.6,1.2s-1-.6-1.4-.8-2.5-2-2.5-2l1.8,3.3s-3-1.8-3.5-2.2-1.2-.9-1.2-.9l.9,2s-.7-.9-1.7-1.5-3.4-.9-2.8-.7,1.8.5,3.1,1.4,1.5,1.5,1.4,1.6-3.4-2.2-4.9-2.6-2.1-.5-2.1-.5l2.5,2.1s-.5-.3-1.5-1-3.8-1.1-3.8-1.1c0,0,.7,0,1.3.3s2.7,1.6,2.7,1.6h-.4c-.4-.3-4.7-1.8-4.7-1.8,0,0,.5.2,1.2.7s1.9,2.4,1.9,2.4l-1.6-1.2s-1.3-.7-1.7-1-2.6-1-2.6-1c0,0,.2.2.6.5s2,1.5,2,1.5c0,0-1.5-.7-2.2-.9s-2.5-.6-3.5-.9-1.1,0-1.1,0l1.1.7s-.9-.3-2.3-.2l-1.8.2s.7.5,1.2,1.8c.5,1.3.5,1.8.5,1.8l2-1.1-1.6,2.9s.7-1.1,2.9,1c2.2,2.1,2.3,2.8,2.3,2.8,0,0-1.4-1.7-2.2-1.6s1.9,3,2,3.2c.1.2-1.6-1.2-1.8-.7s3.1,4,3.2,5.3,0,4.3,0,4.3c0,0-.9-2.4-1.2-2.7s-.5.7-.2,1.4.4,1.4.4,1.4c0,0-.3-.7-1-1.8s1.6,3,1.5,4.3,0,3.5,0,4.5.4,2.6.6,2.9-.2.2-.7-.4-.9-1.2-.5-.6c.4.6.2,1.3.2,1.3,0,0-.6-.9-1.1-1.4s-.8-1.6-.6-.5.6,2.7.7,3.6.5,2.3.1,1.6-.9-3.6-1-2.4,1.2,5.6,1.2,6.2-.2.8-.6-.3-.6-2.6-.7-2.2.6,4.1.6,4.6-.1-.3-.3,1.2-.5,6.4-.5,6.4v3.7c-.1,0-3.1,2.7-3.1,2.7l7.5-.2.2.4Z"/>
      <path class="cls-4" d="M31,35.9s2.2,1.9,2.2,1.5-.5-1.9-.7-2.3.3-1.6.3-1.6l.3,1.2s.5-3.1.7-2.9,1,2.9,1,2.9c0,0,.6,1.5.7,1.5s1-1.4,1-2.8.6-4.1.7-3.9,1.5,4.1,1.6,4.3,1.2,2.3,1.2,2.3c0,0,.2-1.6.6-1.1s.2-2.7.5-2.6,1.8,4.6,1.9,4.8.5-1.7.7-1.6.7,1.9.7,1.9c0,0-.3,3-.9,3.4s-1.6,1.9-1.5.9.3-3.9-.2-2.7-1.4,2.2-1.3,1.7.7-5.9-.3-3.1-2.6,6.6-2.5,6,0-3.3-.3-2.8-.9,5.2-1.3,4.9-.6-8.1-1.3-6.6.6,3.1.4,3.2-.7,0-.8-.5-1.1-1.9-1.4-.9-.5,2.8-.9,3.1-1.6-4.5-1.4-4.3.2-3.7.2-3.7v-.2Z"/>
      <path class="cls-4" d="M91.8,49.9c.6-.3,1.3-2.8,1.3-2.8v1.6c0,.6-.6,2.8-.9,3.4s-2.7,3.8-1.9,3.4,2.6-2.8,2.6-2.8c0,0-1.1,2-1.6,2.6s-1.4.9-1,1,2.4-1.8,2.4-1.8c0,0-2,2.6-1.8,2.6s1.7-1.3,1.7-1.3c0,0-1.6,2.6-2.3,3.4s-1.3,1.5-1.8,1.9-2.4,1.3-2.4,1.3c0,0,1.3.8,1.7,1.3s.3.9,0,.8-2-1.5-1.7-1.1.4.8.4.8c0,0-2.3-.5-2.7-.8s.2.6.3.9.9.8.4.7-1.7-1.6-2.1-1.5.5.9.5.9c0,0-1.7-.9-2.6-1.1s-3.9-.6-3.5-.4,2.8.8,1.8,1-3.1-.4-4.4-.6-4.3-.3-4.3,0,3.1.6,1.8.8-3.7,0-4.1,0-1.4.2-1.2.3,1.2.6,1.2.6c0,0,.3.2-1.3,0s-1.5-1.2-1.9-1.1-.5.6-.4.8-.9,0-1.4,0-2.5-1.1-2-.5.8.8.8.8c0,0-2-.6-3-.4s-2.5.6-3.3.8-2.3.8-1.6.5,3.2-1.7,2.7-1.8-5.4,2-4.7,1.3,1.5-1.1,1.2-1.1-5,1.1-5,1.1c0,0,3.1-1.3,1.7-1.4s-4,1-4,1c0,0,3.5-1.3,1.8-1.2s-6,1.3-6,1.3c0,0,3.5-1.1,2.6-1.5s-10.2,1.3-10.8,1.5-1.7.7-1.4.4,2.2-1.2,2.2-1.2c0,0-2.6.7-3.1.9s.9-.8,1.1-.9-6.3.9-6.8,1-2.9.6-1.4,0,2.5-.7,2.3-.9-3.6,0-5.1,0-3.5-.2-3.5-.2l3.2-1.1.3.9s4.4-3.4,5-4.3,1.9-3.4,2.3-5.1.6,1.5.9,2.4.4-1.7.3-2,.8-6.9.8-6.9v6.1c0,.2,1.8-.9,2.2-1.4s2.5-4,2.5-4c0,0-.5,2.4-.9,4.1s.7-.8,1.1-1.1,0,.9,0,1.6.9-1.4,1.3-2.1,0,1.1-.2,1.5.3,1.2.7.9,1.3-1.6,1.4-1.7-.2,4.3-.3,5,.6-.4.9-.9.2.8-.2,1.4,2.4-1.2,4-2.1,3.2-3.5,4.3-4.8,1.9-3.5,2-6.3,0,1.8,0,2.8.3,0,.8-1,0,1.1,0,2.8.9-.6,1.1-2.3.4,0,.3,1.5-.6,7-.3,6.7.6-1,1.2-1.7.3,1.2.3,1.2c0,0,3.2-4.9,3.7-5.7s-1.1,3.9-1.1,3.9c0,0,1.6-3,1.9-3.7s-1.1,4.5-1.1,4.5c0,0,.7-.6,1.1-1.3s.3,1,0,1.9.7-.6,1.5-1.7,0,1-.4,1.5,1.1,0,1.7-.8,1.4-2.4,1.4-2.4c0,0-1.1,3-.6,2.7s2.4-3.4,2.6-4.1-1.3,4-1.3,4c0,0,1.1-1.8,1.6-3s-.2,2.3-1.2,3.9-.8,1.6-.2,1.2,1.5-1.2,2.6-2.5.6-.3,0,.4-.2.9.3.6,1.8-1.8,2.5-3.7,0,1.3-.3,1.7.2.6.6,0,1.8-2,1.4-1.5-.7,1.6-.6,1.4,2.4-2.6,3.4-4.8.9-3.3,1-2.5,0,2.7.3,1.3,1-5.8,1-5.8c0,0,.5,9.4.4,10.6s-.6,1.8.4.7.7-.8.7-.6.4.9.8.2.8-2.6,1.4-3.5,0,3.1-.5,4.2.3,1.1.6,0,.6-1,.5-.6,0,1.9.5,1.6,1.4-3.1,1.8-4-.4,4.7-.5,5.9.4,0,1.5-.6,2.6-2.6,3.6-3.6,1.6-1.8,2.4-3.1-1.1,2.8-1.1,2.8c0,0,1.7-2.1,2.5-3.1s1.5-4.4,1.5-4.4c0,0-.8,4.3-.6,4.1s1.8-2.3,2-3.1-1.6,4-1.6,4l2.5-3.7s-.4,1.7-.6,2.2.4.5.6,0-.3,1.4-.3,1.7-.6,2.2-.6,2.2l-.3.2Z"/>
      <path class="cls-1" d="M12.4,13.4s.3-.7,1.3-1.2.4-.2.7-.3c1.6-.6,2.3-.5,2-.3s-2.4.9-2.8,1.3-1.1.6-1.1.6h0Z"/>
      <path class="cls-1" d="M13.4,13.6s2.1-1.4,2.8-1.6.9-.6.7-.2-2.5,1.6-2.5,1.6l-1,.2Z"/>
      <path class="cls-1" d="M11.4,16.1s1.3-1.6,1.4-1.1-.7,1.1-.7,1.1h-.7Z"/>
      <path class="cls-1" d="M15.6,10.3s1.6-.1,2.2,0,.7.5.6.6-.7,0-1-.2-1.4-.2-1.5-.2-.7,0-.4-.1h0Z"/>
      <path class="cls-1" d="M15.9,8.6h1.9c.4,0,1.1.4,1,.5s-.7-.2-1.2-.3-1.7.1-1.8,0,.2-.3.2-.3h-.1Z"/>
      <path class="cls-1" d="M18,9.6h1.7c.2,0,0-.4-.3-.6s-1.1-1-1.6-1.1-1.2-.3-1-.4,2.2.3,2.8.9,1,1.3,1,1.4.4.2.4.3-.2.2-.4.2-.4,0-.7-.1-2.3-.2-2.6-.3.6-.1.6-.1v-.2Z"/>
      <path class="cls-1" d="M20.8,8.7s1.1.6,1.2.8.3.7.1.5-1.6-1.3-1.4-1.3h0Z"/>
      <path class="cls-1" d="M23.8,11.9c0-.1-.2-1.7-.3-2.1s-.2-1,0-.8.6,1.7.6,1.8-.3,1.6-.4,1.1h0Z"/>
      <path class="cls-1" d="M24.9,11.6s.1-.3.3-.1.1.8,0,.9-.3-.7-.3-.7h0Z"/>
      <path class="cls-1" d="M22.9,12.9s1,.1,1.2.3.2.4.1.4-1.8-.6-1.4-.7h0Z"/>
      <path class="cls-1" d="M25.6,14.3s.6-.1.7,0,.9.6.6.6-.6.2-.7,0-.6-.6-.6-.6Z"/>
      <path class="cls-1" d="M26.3,17s1.2.7,1.6,1.1,1.3,1.9,1.1,2.1-.3,0-.5-.4-.7-1.3-1.3-1.7-1.3-.8-.9-1h0Z"/>
      <path class="cls-1" d="M27.9,22.3s1.6,1.8,1.8,2.2.5,1.8.3,1.6-.5-.8-.6-1-1.5-2.8-1.5-2.8Z"/>
      <path class="cls-1" d="M29.2,27.1s.2,2.6.5,3.3c.3.7.9,1.7.9,1.7,0,0-.4-.7-.5-1.3s-.4-1.7-.5-2.1-.4-1.7-.4-1.7h0Z"/>
      <path class="cls-1" d="M29.4,31.7s1,1.2.9,1.3-.3.2-.4,0-.4-1.3-.4-1.3h-.1Z"/>
      <path class="cls-1" d="M28.2,34.9s.5,2.5.5,2.9-.3.9-.3,1.1-.3,2.6,0,3.1,0,.9,0,1,.3,1.3,0,1-1.1-2.9-.9-2.9.6,1.6.6,1.1v-3.7c0-.2.2-.5.2-1s-.6-3,0-2.7h-.1Z"/>
      <path class="cls-1" d="M27.4,45.5s.2-2,.4-1.1-.2,2.9-.2,3,0,.7-.2,0,0-2.1,0-2.1h0Z"/>
      <path class="cls-1" d="M26.6,47.2s.2,1.6.1,2-.3,2.4-.5,2.2,0-.8,0-1.1,0-3.3.3-3.1h.1Z"/>
      <path class="cls-1" d="M27.3,49.3s-.2,2.5-.6,3.1-.9,1.6-.7,1.5,1.3-1.4,1.3-1.7.5-3.4,0-2.9Z"/>
      <path class="cls-1" d="M17.4,56.1s1,.7,2,.5,1.6-.4,1.7-.5.8,0,.4,0-.8.6-1.1.7-1.4,0-1.8,0-1.9-.5-1.2-.7Z"/>
      <path class="cls-1" d="M18.8,57.3h1.6c.3,0,.7,0,.5.2s-.8.3-1.1.2-1.7-.2-1-.4Z"/>
      <path class="cls-1" d="M20.2,59.3c.2,0,1-.6,1.6-1.2s1-1.6.8-.9-1.2,1.8-1.4,1.9-1.5.5-1,.2Z"/>
      <path class="cls-1" d="M22.9,58.7s.5-.6.7-1,.2-1.1.3-.7-.3,1.5-.5,1.6-.8.4-.5,0h0Z"/>
      <path class="cls-1" d="M16.3,58.4h1.3c.2,0,1-.6.7-.2s-.7.5-1.2.5-1.6-.3-.8-.4h0Z"/>
      <path class="cls-1" d="M12.8,17.9c0-.1,1.9-3,1.8-2.4s-.9,2-.9,2c0,0,1.9-1.6,3.8-2.1s2.8-1.2,2.8-1.1-1.1.9-.5.9,3.8,1.1,3.2,1.1-1.7-.3-1.5,0,1.8,1.4,2.5,3,2,4.8,2.3,5.4.8,3.7.9,4.1.6,4.3.3,4.2-.3-1.4-.4-.6,0,2.3.1,2.7,0,3.3-.3,3.9-.3,3.1-.6,2.6-.3-1.7-.3-.5-.6,1.5-.5,1.9-.6,1.2-.6,1.6,0,2.1-.2,3.3-.8,2.7-.8,1.8.5-2.8,0-2.1-1.5,1.6-1.5,1.2.8-1.1.3-.9-2.3.7-1.5.3,2.6-2.4,2.8-3.1.4-1.3.7-1.8.6-2,.3-1.6-1.7.7-1.7.7c0,0,.9-.9,1.3-1.2s-.2-.5,0-1,.6-.8.9-1.4.6-.6.6-1.1-.3-2.1-.1-1.1-.4,1-.5.5.4-2.2.4-2.6-.4,0-.5-.4c-.2-.8.9-2.9.8-3.2s-.9.9-.9.9c0,0-.3-.4,0-.9s.4-2.4.3-2.6-.6.9-.6.4v-3.6c0-.5.3-1.1-.7-3.2s-1.4-3.4-1.6-3.3.2,1.7.3,2-.4,1.7-.4,1.1-.6-2.9-.8-3.4-1.5-2.6-1.5-2,.4,1.1.3,1.1-.7-.6-1.3-.9-1.5-.9-2.3-.5-2.3,1.2-2.2,1.1,1.7-.7,2.1-.6.5.3-.3.5-2.2,1-2.5,1.2,1.8-.6,1.4-.1-1.3.6-2.1,1.2-1.3,1.6-1.7,1.9-1.7,2.1-1.4,1.2,1.7-2.6,1.7-2.6c0,0,0-1.3.4-2.1l.4.2Z"/>
      <path class="cls-1" d="M11.1,23.9s1.1-2.1,2.3-3.2,2.1-1.3,1.8-1-2.6,2.3-2.8,2.7-1.6,2.1-1.2,1.5h-.1Z"/>
      <path class="cls-1" d="M10.4,21.3c0-.2,1.4-2,1.4-1.7s-1.7,3.3-1.4,1.7Z"/>
      <path class="cls-1" d="M14,32.4c0-.4.4-3.1,1.5-4.2l1.1-1.1s-2.4,1.1-2.6,1.7-.9,1.8-.9,2-.7.4-.7,0,.3-1.1,0-.9,0,1.4,0,1.6-.4.5-.4.7.2.7.3.9-.2,1.1-.3.7-1.1-1.8-1-1.3,1,2.2,1.1,2.7.5,3.4.9,4,1,1.3,1.3,1.6,1.2.7,1.3,1.1,0,1.9.2,1,0-1.7-.7-2.3-1.6-2.8-1.6-3.1-.2-2.7.2-3.6,2.2-3.1,1.2-2.4l-1,.7v.2Z"/>
      <path class="cls-1" d="M16.3,34.3s.3-1.6.7-1.1.7,1.2.9.9-.2-1.3-.5-1.4-.7-.3-.7-.3c0,0,.2-.2.5-.3s.7-.6.2-.4-1.2.5-1.3.9-.1,1.3.3,1.7h-.1Z"/>
      <path class="cls-1" d="M17.6,35.6s-1.1-.6-1.4-.7-1.1-1.8-.9-1.2.7,1.6.7,1.6h-.7s0,.6.7.7c.7.1,1.6.4,1.7.4s-.6-.8,0-.8h-.1Z"/>
      <path class="cls-1" d="M16.9,36.8s.5.6,1,1,1.6.6,2,.4,1-1.3,1.2-1.4,0-1.8.3-1.6.6,1.5.6,1.1-.5-3.4-.3-3.8,0-1.5-.2-1.9-.4-1.3-.4-1.3c0,0,.9.9,1.2,1.5s1,1.2.5.6-1.1-2.1-1.4-2.6-.6-1-1.1-1.3-.8-.3-1.6-.5-1.7-.4-.8,0,1.1.1,2,1.5.8,2.4.8,2.4c0,0-1-1.6-1.1-1.4s1,1.4,1.1,1.9.4,1.5.4,1.5c0,0-1.1-1.5-.9-1.1s.3,1.3.5,1.6.2,1.9,0,2.4-.7,1.1-.8.9,0,.2-.5.4-.9.6-1.3.2-1.2-.6-1.2-.6h0Z"/>
      <path class="cls-1" d="M19.6,35.5s.3-1.2.3-1.4,0-.5.2-.4,0,.9,0,1.2-.2,1-.4,1-.1-.4-.1-.4Z"/>
      <path class="cls-1" d="M16.2,38.3s.1-.6.2-.6.9.3,1,.6,1.1.5,1.4.5,1.1-.2,1.3-.2.6-.5.7-.3-.6.6-.7.7-.9.3-1.1.3-.8-.2-1-.3-.4,0-.8-.5-.7-.9-.7-.5-.6.6-.4.3h.1Z"/>
      <path class="cls-1" d="M11.1,42s.2,5.6,1.4,7.3,2.2,2.6,2,2.6-1,0-.6.6,1.6,2.4,1.9,2.9.8.8.3.8-.6.6-.3.6,1.2.5.9.5-1.7,0-2.4-.7-1.2-1.6-1.3-2.7-.7-3.7-1-2.7,0,4.1-.4,2.7-.9-2.5-.6-4.3.6-2.8-.2-2.3-1-.2-.7-.7.4-5.1.7-5.1.4.4.4.4h0Z"/>
      <path class="cls-1" d="M19.4,50.5s-1.3-.4-1.5-1.2-.4-4.2-.7-3.7-.9,0-.6-.7,1-3.1.5-2.6-1.5,3.4-1.4,3.8-.6-1.7-1.1-2.1-.2,0,0,.7,0,1.2-.6.8-1.2,0-.2.8,1.4,2.1,2.4,3c1,.9,1.8,1.4,2.4,1.5s1.1-.2.6-.4h.2Z"/>
      <path class="cls-1" d="M22.3,50.2s-1.6,1.5-2.2,1.6-2.4-.5-2.1,0,2.7,1,3.1.7,2.1-2.4,1.8-2.1-.6-.2-.6-.2Z"/>
      <path class="cls-1" d="M22.3,56.1s1.8-1.9,2.2-2.4.8-4,1-3.4.2,2.6,0,2.9-.3.9-.5,1.2-.5.9-1.1,1.4-2.3,1-1.7.3h.1Z"/>
      <path class="cls-1" d="M9.8,24.7c0,.2-1.2,3.9-1.2,5.3s-.5,2.5-.5,2.7.1-.4.6.4-.2,1.8-.4,2.3-.7,2.8-.5,3.4,1-2.4,1-1.2v3.3c0,.2-.2,3.3,0,3.3s.9-4.5,1-4.7-.2-1.4-.4-1.1-.2-1.7-.2-2-.6,0-.6,0c0,0,.9-2.4.9-2.9s0-2-.2-2.4.5-2.6.3-2.8.2-3.7.2-3.7h0Z"/>
      <path class="cls-2" d="M32.8,11.9c1,.9,2.1,3.7,2.4,4.7.5,2,.7,1.5.7,1.5,0,0-1.4-5.8-1-5.6s1.6,3.9,1.6,3.9c0,0-.8-5.6,0-5.4s2.1,2.8,2.1,2.8c0,0-1.1-3.1-.6-2.7s.9,2.8,1.2,2-.8-4.4-.5-3.7c1.2,2.5,1.6,4.4,1.6,4.4,0,0-.7-.1-1.1.4s.2,2.3.2,3-1.2-3.1-2.3-4.3.5,4,.3,5.2c0,0,0,1.8-.2,2s-.7-3-.7-2.6-.4,1.9-.8,1.9-.3-1.4-.8-2.8-2.5-5.3-2-4.9v.2Z"/>
      <path class="cls-2" d="M79.4,37.5c0-.2-.4-7.4,0-6.8.4.6.6,7,.8,6s0-4,0-4c0,0,.7,1.7.8,2.8s.8.7.8.3.2-.7.3,0,.5,1.9.5,1.9c0,0,0-3.3.2-2.8s1.1,3.9,1.1,3.9c0,0-.2-6.2,0-5.4s1.1,3.4,1.1,3.4l.5.6s.6-4.1.8-2.8.4,1.4.4,1.6,1-6.7,1.2-5.4,1.3,3.5,1.4,3.6.4.7.4.7c0,0,0-3,.5-1.5s.6,3.5.6,3.2-.7-2.2-.7-1.7-.3,2.2-.4,1.1-1.7-4-1.8-3.4-.7,7.1-.8,6.9-.6-2.4-.6-2.3-.5,4.5-.6,3.4-1.5-5-1.5-4.4,0,4.3,0,4.3l-1.4-3.1-.5,2.3s-.8-3.2-1-3-.8-1.7-.8-.6-.3,7.5-.3,7.7-.3-6.9-.5-5.9-.4,7-.4,7c0,0-1.3-4.9-1.3-4.7s-.4-4.7-.3-4.3.5,2.3.7,2.5.6-.9.6-.9v-.2Z"/>
      <path class="cls-2" d="M56.3,42c0-.2.8-7.4,1.1-6.7s-.3,7,0,6.1.7-4,.7-4c0,0,.6,1.8.5,2.9s.9.8.9.4.4-.6.4,0,.4,2,.4,2c0,0,.6-3.3.7-2.7s.8,4.1.8,4.1c0,0,.8-6.1,1.1-5.3s.8,3.6.8,3.6l.6.7s1.5-3.9,1.5-2.6.2,1.5.3,1.7,2.3-6.4,2.4-5.1,1,3.7,1.2,3.8.4.8.4.8c0,0,.4-3,.9-1.3s.2,3.6.2,3.3-.5-2.3-.6-1.8-.8,2.1-.7,1-1.5-4.3-1.7-3.8-2.1,6.9-2.2,6.7-.3-2.5-.4-2.4-1.4,4.3-1.4,3.3-1.1-5.3-1.2-4.6-.6,4.3-.6,4.3l-1.3-3.4-1.1,2.1s-.5-3.4-.7-3.2-.7-1.8-.9-.8-1.6,7.4-1.6,7.6.8-6.9.3-5.9-1.7,6.8-1.7,6.8c0,0-.8-5.1-.9-4.9s.2-4.7.4-4.3.3,2.4.5,2.6,1-.7,1-.7v-.3Z"/>
      <g>
        <path class="cls-2" d="M45.6,30.9s.2,3,0,4-.6-5.4-1-6c-.5-.6,0,6.7,0,6.8,0,0-.6,1.1-.8.9-.2-.2-.7-2.1-.9-2.5,0-.2,0,1.3,0,2.6,0,0-.3.2-.4.4,0,.3-.2-1.5-.6-2.8-.4-1.3-.2,1.4-.3,1.9s-.3-2.3-.7-3.7,0,2.8,0,2.8c0,1.1-.9-1.2-1.1-1.4,0-.3,0,.9-.2,1,0,0-.4-1.2-.7-1.7s1,6.4,1.2,7c.2.5.3-1.4.5-2s.2,1.3.7,2,0-.9,0-1.4.4.9.6,1.6c.2.7.3.6.4.5s0-2,.3-1.8.3,2.7.4,2.4c0-.2.3-1.2.5-1,.2.3.9,2.9,1.2,2.6v-.6c0-1.5.3-5.6.5-6.4.3-1,.6,6.1.6,5.9s.3-6.7.3-7.7,0-.4.3-.3v-.4c0-1.1-.9-2.8-.9-2.8h0Z"/>
        <path class="cls-2" d="M46.6,34c0,0,0,.2.2.2,0,0,0-.2-.2-.2Z"/>
        <path class="cls-2" d="M58.2,31.7c-.8-1.5-.6,1.5-.6,1.5,0,0-.3-.6-.5-.7,0,0-1.4-2.3-1.7-3.6-.3-1.3-1.5,5.6-1.5,5.4s-.3-.3-.5-1.6-1,2.8-1,2.8l-.6-.6s-1-2.6-1.4-3.4c-.4-.8-.2,5.4-.2,5.4,0,0-1.1-3.4-1.4-3.9-.3-.5-.3,2.8-.3,2.8,0,0-.6-1.3-.7-1.9,0-.6-.5-.3-.4,0,0,.3-.3.5-.6.4.2.3.5.7.5.6.2-.2,1.2,3,1.2,3l.7-2.3,1.8,3.1s0-3.7,0-4.3,1.7,3.4,1.9,4.4c0,1,.8-3.3.8-3.4s.7,2.1.8,2.3c0,.2.9-6.4,1-6.9,0-.5,2.2,2.3,2.2,3.4s.5-.6.5-1.1.8,1.4.9,1.7c0,.3,0-1.6-.7-3.2h-.1Z"/>
      </g>
      <g>
        <path class="cls-2" d="M45.6,30.2s.2,3,0,4-.6-5.4-1-6c-.5-.6,0,6.7,0,6.8,0,0-.6,1.1-.8.9-.2-.2-.7-2.1-.9-2.5,0-.2,0,1.3,0,2.6,0,0-.3.2-.4.4,0,.3-.2-1.5-.6-2.8-.4-1.3-.2,1.4-.3,1.9s-.3-2.3-.7-3.7,0,2.8,0,2.8c0,1.1-.9-1.2-1.1-1.4,0-.3,0,.9-.2,1,0,0-.4-1.2-.7-1.7s1,6.4,1.2,7c.2.5.3-1.4.5-2s.2,1.3.7,2,0-.9,0-1.4.4.9.6,1.6c.2.7.3.6.4.5s0-2,.3-1.8.3,2.7.4,2.4c0-.2.3-1.2.5-1,.2.3.9,2.9,1.2,2.6v-.6c0-1.5.3-5.6.5-6.4.3-1,.6,6.1.6,5.9s.3-6.7.3-7.7,0-.4.3-.3v-.4c0-1.1-.9-2.8-.9-2.8h0Z"/>
        <path class="cls-2" d="M46.7,33.4c0,0,0,.2.2.2,0,0,0-.2-.2-.2Z"/>
        <path class="cls-2" d="M58.2,31.1c-.8-1.5-.6,1.5-.6,1.5,0,0-.3-.6-.5-.7,0,0-1.4-2.3-1.7-3.6-.3-1.3-1.5,5.6-1.5,5.4s-.3-.3-.5-1.6-1,2.8-1,2.8l-.6-.6s-1-2.6-1.4-3.4c-.4-.8-.2,5.4-.2,5.4,0,0-1.1-3.4-1.4-3.9-.3-.5-.3,2.8-.3,2.8,0,0-.6-1.3-.7-1.9,0-.6-.5-.3-.4,0,0,.3-.3.5-.6.4.2.3.5.7.5.6.2-.2,1.2,3,1.2,3l.7-2.3,1.8,3.1s0-3.7,0-4.3,1.7,3.4,1.9,4.4c0,1,.8-3.3.8-3.4s.7,2.1.8,2.3c0,.2.9-6.4,1-6.9,0-.5,2.2,2.3,2.2,3.4s.5-.6.5-1.1.8,1.4.9,1.7c0,.3,0-1.6-.7-3.2h-.1Z"/>
      </g>
      <g>
        <path class="cls-2" d="M66.6,22.1s.2,3,0,4-.6-5.4-1-6c-.5-.6,0,6.7,0,6.8,0,0-.6,1.1-.8.9-.2-.2-.7-2.1-.9-2.5,0-.2,0,1.3,0,2.6,0,0-.3.2-.4.4,0,.3-.2-1.5-.6-2.8-.4-1.3-.2,1.4-.3,1.9s-.3-2.3-.7-3.7,0,2.8,0,2.8c0,1.1-.9-1.2-1.1-1.4,0-.3,0,.9-.2,1,0,.1-.4-1.2-.7-1.7s1,6.4,1.2,7c.2.5.3-1.4.5-2s.2,1.3.7,2,0-.9,0-1.4.4.9.6,1.6c.2.7.3.6.4.5.1,0,0-2,.3-1.8s.3,2.7.4,2.4c0-.2.3-1.2.5-1,.2.3.9,2.9,1.2,2.6v-.6c0-1.5.3-5.6.5-6.4.3-1,.6,6.1.6,5.9s.3-6.7.3-7.7,0-.4.3-.3v-.4c0-1.1-.9-2.8-.9-2.8h0Z"/>
        <path class="cls-2" d="M67.7,25.2c0,.1,0,.2.2.2,0,0,0-.2-.2-.2Z"/>
        <path class="cls-2" d="M79.2,22.9c-.8-1.5-.6,1.5-.6,1.5,0,0-.3-.6-.5-.7,0-.1-1.4-2.3-1.7-3.6-.3-1.3-1.5,5.6-1.5,5.4s-.3-.3-.5-1.6c-.2-1.3-1,2.8-1,2.8l-.6-.6s-1-2.6-1.4-3.4-.2,5.4-.2,5.4c0,0-1.1-3.4-1.4-3.9s-.3,2.8-.3,2.8c0,0-.6-1.3-.7-1.9s-.5-.3-.4,0c0,.3-.3.5-.6.4.2.3.5.7.5.6.2-.2,1.2,3,1.2,3l.7-2.3,1.8,3.1s0-3.7,0-4.3,1.7,3.4,1.9,4.4c0,1,.8-3.3.8-3.4s.7,2.1.8,2.3c0,.2.9-6.4,1-6.9,0-.5,2.2,2.3,2.2,3.4s.5-.6.5-1.1.8,1.4.9,1.7c0,.3,0-1.6-.7-3.2h-.1Z"/>
      </g>
      <g>
        <path class="cls-2" d="M39.3,45.5s-.5,3-1,3.9.8-5.4.5-6.1c-.3-.7-1.7,6.5-1.7,6.6,0,0-.8.9-1,.6-.2-.3,0-2.2-.2-2.7,0-.2-.3,1.2-.5,2.5-.2,0-.4,0-.5.3-.2.3.2-1.5,0-2.8,0-1.3-.5,1.3-.8,1.8s.3-2.3.3-3.8-.7,2.7-.7,2.7c-.2,1.1-.6-1.4-.7-1.6,0-.3-.3.9-.4,1,0,0,0-1.3-.2-1.8s-.6,6.5-.6,7,.7-1.2,1-1.8c.4-.6,0,1.3.2,2.1s.2-.9.5-1.4,0,1,0,1.7.2.7.2.6.5-1.9.7-1.7-.4,2.7-.2,2.5c0-.2.6-1.1.7-.8,0,.3.2,3.1.5,2.8,0,0,0-.3.2-.5.4-1.4,1.7-5.4,2.1-6.1.5-.9-.9,6.1-.9,5.9s2-6.4,2.3-7.4c0-.4.2-.3.3-.2v-.4c.2-1.1-.2-2.9-.2-2.9h0Z"/>
        <path class="cls-2" d="M39.5,48.8c0,0,0,.2,0,.3,0,0,0-.2,0-.3Z"/>
        <path class="cls-2" d="M51.2,49.4c-.4-1.7-1,1.3-1,1.3,0,0-.2-.7-.3-.8,0-.2-.8-2.6-.8-3.9s-2.8,5.1-2.8,4.9-.2-.4,0-1.7c0-1.3-1.6,2.5-1.6,2.5l-.5-.7s-.3-2.8-.5-3.6c-.2-.9-1.5,5.1-1.5,5.1,0,0-.3-3.6-.4-4.1,0-.6-.9,2.7-.9,2.7,0,0-.2-1.4-.2-2s-.4-.4-.4,0-.5.4-.7.2c0,.4.3.8.4.7.2,0,.4,3.2.4,3.2l1.2-2,.9,3.5s.8-3.6.9-4.2.9,3.7.7,4.7c0,1,1.6-3,1.6-3.1s0,2.2.2,2.4c0,.2,2.5-6,2.7-6.5s1.5,2.8,1.3,3.9c-.2,1.1.6-.5.7-1s.4,1.6.4,1.9.4-1.6,0-3.3h.2Z"/>
      </g>
      <path class="cls-6" d="M43.1,11s1.6,1.8,1.9,2.2.3,1,.2.8-1.1-1.6-1.4-1.9-1.3-1.5-.7-1.2h0Z"/>
      <path class="cls-6" d="M56.4,9.7s-2.3-.8-2.7-1-.8-.7-.6-.6,1.8.9,2.1.9,1.9.6,1.2.7Z"/>
      <path class="cls-6" d="M55.5,10.6s-1.7-.6-2.2-.8-.8-.7-.6-.6,1.8.9,2.1.9,1.3.4.6.5h.1Z"/>
      <path class="cls-6" d="M43,12.3s1.2,1.4,1.5,1.7.4,1,.2.8-1.2-1.6-1.4-1.9-.9-1-.3-.7h0Z"/>
      <path class="cls-6" d="M42.3,13.6s1.2,1.4,1.5,1.7,0,.4-.3.3-.7-1.1-1-1.3-.9-1-.3-.7h0Z"/>
      <path class="cls-6" d="M55.6,11.5s-2.4-.3-2.9-.4-.9-.5-.7-.5,1.9.5,2.3.5,1.9.3,1.3.4Z"/>
      <path class="cls-6" d="M80.1,10.9s1.6,1.9,1.9,2.2.3,1,.2.8-1.1-1.7-1.4-1.9-1.3-1.5-.7-1.2h0Z"/>
      <path class="cls-6" d="M81.3,10.7s1.2,1.4,1.5,1.8.3,1,.2.8-1.1-1.7-1.4-1.9-.9-1-.3-.7Z"/>
      <path class="cls-6" d="M69.4,34s.5,2.4.6,2.9-.2,1-.3.8-.2-2-.3-2.3-.4-1.9,0-1.3h0Z"/>
      <path class="cls-6" d="M71,34.9s.4,1.8.4,2.2-.2,1-.3.8-.2-2-.3-2.3-.3-1.3,0-.7h.1Z"/>
      <path class="cls-6" d="M79,44.3v2.3c0,.5-.4,1-.4.7s.2-2,0-2.3,0-1.3.2-.7h.1Z"/>
      <path class="cls-6" d="M82,38.3s.5,2.4.6,2.9-.2,1-.3.8-.2-2-.3-2.3-.4-1.9,0-1.3h0Z"/>
      <path class="cls-6" d="M90.4,29.7s.5,2.4.6,2.9-.2,1-.3.8-.2-2-.3-2.3-.4-1.9,0-1.3h0Z"/>
      <path class="cls-6" d="M89.3,24.2s.5,2.4.6,2.9-.2,1-.3.8-.2-2-.3-2.3-.4-1.9,0-1.3h0Z"/>
      <path class="cls-6" d="M83.1,25.4s.5,2.4.6,2.9-.2,1-.3.8-.2-2-.3-2.3-.4-1.9,0-1.3h0Z"/>
      <path class="cls-6" d="M83.9,18.4s.5,2.4.6,2.9-.2,1-.3.8-.2-2-.3-2.3-.4-1.9,0-1.3h0Z"/>
      <path class="cls-6" d="M88.5,16.9s1.1,2.2,1.2,2.6,0,1,0,.8-.7-1.9-.8-2.2-.9-1.8-.3-1.3h0Z"/>
      <path class="cls-6" d="M83.5,39.2s.4,1.8.4,2.2-.2,1-.3.8-.2-2-.3-2.3-.3-1.3,0-.7h.1Z"/>
      <path class="cls-6" d="M91.2,28.2s.4,1.8.4,2.2-.2,1-.3.8-.2-2-.3-2.3-.3-1.3,0-.7h.1Z"/>
      <path class="cls-2" d="M75.8,38.6s.8,3.6.9,4.3-.3,1.5-.4,1.2-.3-3-.4-3.5-.6-2.9,0-2h0Z"/>
      <path class="cls-2" d="M77.1,40.1s.6,2.7.7,3.4-.3,1.5-.4,1.2-.3-3-.4-3.5-.4-2,.2-1.1h0Z"/>
      <path class="cls-2" d="M92,25.3s.8,3.6.9,4.3-.3,1.5-.4,1.2-.3-3-.4-3.5-.6-2.9,0-2h0Z"/>
      <path class="cls-2" d="M93.3,26.8s.6,2.7.7,3.4-.3,1.5-.4,1.2-.3-3-.4-3.5-.4-2,.2-1.1h0Z"/>
      <path class="cls-2" d="M82.1,44.7s.3,3.7.2,4.4-.5,1.5-.5,1.1.2-3,0-3.5-.2-2.9.3-2Z"/>
      <path class="cls-2" d="M83.2,46.4s.2,2.8.2,3.4-.5,1.5-.5,1.1.2-3,0-3.5,0-2,.3-1.1h0Z"/>
      <path class="cls-2" d="M53,44.5s.2,2.8.2,3.4-.5,1.5-.5,1.1.2-3,0-3.5,0-2,.3-1.1h0Z"/>
      <path class="cls-2" d="M86.1,17s1.2,3.5,1.3,4.2,0,1.6-.2,1.2-.6-2.9-.8-3.4-1-2.8-.3-2Z"/>
      <path class="cls-2" d="M87.6,18.3s.9,2.6,1,3.3,0,1.6-.2,1.2-.6-2.9-.8-3.4-.6-1.9,0-1.1Z"/>
      <path class="cls-2" d="M89.9,21.8s.5,1.6.7,2.2,0,1.6-.2,1.2-.3-1.9-.5-2.3-.6-1.9,0-1.1Z"/>
      <path class="cls-6" d="M76.3,12.2s-1.8-.1-2.3-.2-.9-.5-.7-.5,2,.4,2.3.4,1.3.1.7.3Z"/>
      <path class="cls-6" d="M73.1,10.6s-1.8-.1-2.3-.2-.9-.5-.7-.5,2,.4,2.3.4,1.3.1.7.3Z"/>
      <path class="cls-6" d="M81.7,9.8s2,1.5,2.3,1.8.5.9.3.8-1.4-1.4-1.7-1.6-1.6-1.2-.9-1Z"/>
      <path class="cls-6" d="M64.5,9.9s-2.4-.3-2.9-.4-.9-.5-.7-.5,1.9.5,2.3.5,1.9.3,1.3.4Z"/>
      <path class="cls-6" d="M85.3,20s1,2.3,1.1,2.7,0,1,0,.8-.5-1.9-.7-2.2-.8-1.8-.3-1.3Z"/>
      <path class="cls-6" d="M68.9,12.2s1.1,2.2,1.2,2.6,0,1,0,.8-.7-1.9-.8-2.2-.9-1.8-.3-1.3h0Z"/>
      <path class="cls-2" d="M66.5,12.3s1.2,3.5,1.3,4.2,0,1.6-.2,1.2-.6-2.9-.8-3.4-1-2.8-.3-2Z"/>
      <path class="cls-2" d="M68,13.6s.9,2.6,1,3.3,0,1.6-.2,1.2-.6-2.9-.8-3.4-.6-1.9,0-1.1Z"/>
      <path class="cls-6" d="M65.7,15.3s1,2.3,1.1,2.7,0,1,0,.8-.5-1.9-.7-2.2-.8-1.8-.3-1.3Z"/>
      <path class="cls-6" d="M31.3,11.5s1,2.3,1.1,2.7,0,1,0,.8-.5-1.9-.7-2.2-.8-1.8-.3-1.3Z"/>
      <path class="cls-6" d="M51.2,23.3s1.1,2.2,1.2,2.6,0,1,0,.8-.7-1.9-.8-2.2-.9-1.8-.3-1.3h-.1Z"/>
      <path class="cls-6" d="M33.2,15.3s1.1,2.2,1.2,2.6,0,1,0,.8-.7-1.9-.8-2.2-.9-1.8-.3-1.3h-.1Z"/>
      <path class="cls-2" d="M48.8,23.3s1.2,3.5,1.3,4.2,0,1.6-.2,1.2-.6-2.9-.8-3.4-1-2.8-.3-2Z"/>
      <path class="cls-2" d="M50.3,24.7s.9,2.6,1,3.3,0,1.6-.2,1.2-.6-2.9-.8-3.4-.6-1.9,0-1.1Z"/>
      <path class="cls-6" d="M48,26.3s1,2.3,1.1,2.7,0,1,0,.8-.5-1.9-.7-2.2-.8-1.8-.3-1.3Z"/>
      <path class="cls-6" d="M48.9,19.3s1,2.3,1.1,2.7,0,1,0,.8-.5-1.9-.7-2.2-.8-1.8-.3-1.3Z"/>
      <path class="cls-6" d="M34.7,9.9s1,2.3,1.1,2.7,0,1,0,.8-.5-1.9-.7-2.2-.8-1.8-.3-1.3Z"/>
      <g>
        <path class="cls-4" d="M31.1,17.8s1.4,2.2,1.7,3.1.6,3.1.7,3.1,0-2.2,0-2.6-.9-2.3-2.4-3.6Z"/>
        <path class="cls-4" d="M34.3,23.2s0,2.5.2,2.6h.3l-.6-2.6h0Z"/>
      </g>
      <g>
        <path class="cls-4" d="M51.3,18.5s1.4,2.2,1.7,3.1.6,3.1.7,3.1,0-2.2,0-2.6-.9-2.3-2.4-3.6Z"/>
        <path class="cls-4" d="M54.5,23.9s0,2.5.2,2.6h.3l-.6-2.6h0Z"/>
      </g>
      <g>
        <path class="cls-4" d="M78.5,17.4s1.4,2.2,1.7,3.1.6,3.1.7,3.1,0-2.2,0-2.6-.9-2.3-2.4-3.6Z"/>
        <path class="cls-4" d="M81.7,22.8s0,2.5.2,2.6h.3l-.6-2.6h0Z"/>
      </g>
      <g>
        <path class="cls-4" d="M69.2,10.3s1.4,2.2,1.7,3.1.6,3.1.7,3.1,0-2.2,0-2.6-.9-2.3-2.4-3.6Z"/>
        <path class="cls-4" d="M72.4,15.7s0,2.5.2,2.6h.3l-.6-2.6h0Z"/>
      </g>
      <g>
        <path class="cls-4" d="M39.9,10s1.4,2.2,1.7,3.1.6,3.1.7,3.1,0-2.2,0-2.6-.9-2.3-2.4-3.6Z"/>
        <path class="cls-4" d="M43.1,15.4s0,2.5.2,2.6h.3l-.6-2.6h0Z"/>
      </g>
    </g>
    <g>
      <path class="cls-7" d="M81.1,36.9v1.6s1.5,7.2,1.1,12.9c-.2,3,1.8,6.5,1.8,6.5,0,0,.6,2.9.5,4.6s1.5,2.6,1.2,3.9-3.5,2.8-14.4,2.5c-10.9-.2-8.5,0-8.5,0,0,0-2.2.6-3-3.6s-.8-7.8-.2-11.2,0-7.4,0-7.4c0,0-1.2-4.5-1.1-5s-.7-2.4-.7-2.4c0,0,1.5-1.1,2.6-1.3s1.8-.3,1.9-.5,1.3-.3,1.8-.1,2.7.2,3,0,.9-.2,1.6-.1,1.9.5,2.6.1,1.1-.7,1.9-.5,1.2.2,1.9.3,1.3-.3,1.8-.3,1.8-.2,2,0,1.9-.7,2.3-.1Z"/>
      <g>
        <path class="cls-3" d="M58.9,41c.4,0,1.4-1,1.8-.8s.6-.2,1.8-.2,1.6-.3,1.6-.3c0,0,.6.2,1.2,0s1.1-.4,1.7-.4h1.6c.5,0,1.1,0,2-.2s3,.4,4.2.2,2.3,0,2.9,0,2.7-.4,2.7-.4"/>
        <g>
          <path class="cls-12" d="M58.9,41c.4,0,1.4-1,1.8-.8.1,0,.2,0,.3,0"/>
          <path class="cls-12" d="M61.8,40.1c.2,0,.4,0,.7,0,1.2,0,1.6-.3,1.6-.3,0,0,.6.2,1.2,0,.4-.1.7-.2,1.1-.3"/>
          <path class="cls-11" d="M67.5,39.4h1.1c.5,0,1.1,0,2-.2s3,.4,4.2.2c1.1-.2,2.2,0,2.7,0"/>
          <path class="cls-12" d="M78.1,39.4c.8,0,2.3-.3,2.3-.3"/>
        </g>
      </g>
      <path class="cls-10" d="M60.7,40.1"/>
      <path class="cls-9" d="M81.7,50.5s-.5,2.7.5,4.8,1.5,2.6-.7,2-3.7-2-5.5-1.8c-1.8.2-4.5-.2-5.4-.9s-3.8-2.8-5.2-3.2,4.2-2.6,11.1-1.2c2.8.7,4.2.5,4.2.5,0,0,.9-.5.9-.2Z"/>
      <path class="cls-9" d="M63.7,68.2c-.2,0-1.8.4-2.3-.4s-1.6-3.2-1.8-5.7c-.5-6,.8-8,.5-10.1s.7-.4.9,1.8.2,6.9,1.6,8.8c2.5,3.9,3.8,5.5,1.1,5.5Z"/>
      <path class="cls-8" d="M67.5,61.4v.5c0,1.3,2.8,2.2,6.1,1.9,3.3-.3,5.9-1.5,5.8-2.8s-2.9-2.2-6.2-1.9-5.2,1.2-5.7,2.4h0Z"/>
    </g>
  </g>
</svg>