<?xml version="1.0" encoding="UTF-8"?>
<svg id="Livello_1" data-name="Livello 1" xmlns="http://www.w3.org/2000/svg" version="1.1" viewBox="0 0 290.4 150.5">
  <defs>
    <style>
      .cls-1 {
        fill: #ecd1c3;
      }

      .cls-1, .cls-2, .cls-3, .cls-4, .cls-5, .cls-6, .cls-7, .cls-8 {
        stroke-width: 0px;
      }

      .cls-9 {
        fill: none;
        stroke: #fff;
        stroke-linecap: round;
        stroke-linejoin: round;
        stroke-width: 6px;
      }

      .cls-2 {
        fill: #d6afa5;
      }

      .cls-3 {
        fill: #c19087;
      }

      .cls-4 {
        fill: #d9b5a3;
      }

      .cls-5 {
        fill: #404040;
      }

      .cls-6 {
        fill: #c9a99b;
      }

      .cls-7 {
        fill: #cc9a8f;
      }

      .cls-8 {
        fill: #efd9ce;
      }
    </style>
  </defs>
  <path class="cls-9" d="M276.1,108.8c1.7,0,3-.3,2.9-1-.5-2.9-6.4-4.3-8.5-5.7-2.2-1.4-4.6-3.9-6.8-7.5-2.2-3.6-2-9.1-3.5-12.2-1.5-3.1-3.3-2.8-3.3-2.8,0,0,2.5-7.4,3.1-9.9.6-2.5.5-14.2-6.6-24.4-7.1-10.2-27-21.3-41.9-25-10.6-2.7-26.3-6.5-49.4-6.5s-35.2,0-56.2,4c-22.7,4.4-27.6,9.6-55.9,21-1.3.5-2.5,1.1-3.6,1.6-.7-.3-1.6-.6-2.7-1-1.9-.6-5.3-2.5-6.8-3.6-1.4-1.1-5.2-4.5-5.8-3.4-.6,1.1-.9,5.1-1.5,6.6-.6,1.5-1.3,7.3-.7,8.5.3.7,4.6,3.4,8.1,5.4,0,.2-.1.4-.2.7,0,0,0,.2,0,.3h-2.8c0-.1-5.1-1.1-7.2-.1-2.1,1-4.5.7-6.5-.5-2-1.2-3.6-.3-2,2,1.6,2.2,6.8,5,8.4,7.3,1.3,1.8,5,5.6,6.5,7.1-.9,1.7-2.3,3.7-4.5,5.9-3.7,3.8-6.9,6.3-8.8,7.6-3.2-2.2-3.6.6-4.2,1.5-.4.6-.1,1.7.2,2.4,0,0,.2.7,1.7,2.4,1.3,1.4,4.7,5.7,6.4,6.3.3.4,1,.2,2.3.8.3.1.5,0,.6-.5,4.5-.4,9,2.2,14,2.7,6.8.7,10.1-.1,13.2-.7,3-.6,13.9-4.1,25.8-4.6,2.9-.1,5.9-.4,8.8-.6,2,1.7,6.2,5.5,7.8,7.3,2,2.3,7.1,9.6,7.9,11.4.8,1.9,1.7,3.1,2.2,2.5s8.8,9.5,10.3,5.8c1.2-3,1-9.1.9-11.1.7.9,1.2,1.5,1.4,1.8.8,1.1,4.1,4.7,5.6,5.8,1.4,1,17.6,10.6,18.5,10.3.9-.3-1.3-9.5-1.9-10.6-1.5-2.5-7.3-5-7.3-5,0,0,4.6.1,4.3-1.5-.2-1.2-3.2-1.9-5.4-2.6-1.9-.6-3-1.3-4.1-2-2.2-1.5-1.2-7-1.8-9.2-.2-.7-.6-2.5-1-4.6,7.7,4.1,21,9.6,38.7,11.2,26.4,2.4,46.1-7.4,52.8-11.4.4.4,2.2,1.7,3.6,1.8,1.7.1,11.4,6.4,12.8,7.1s9.7,4.4,12.3,6.1c2.6,1.6,6,6.7,7.9,9.8.9,1.4,3.9,1.5,4.3,1.9.5.5,1,1,1.4,1.5,2.2,2.8,5.3,6,6.8,7,1.6.9,2.7-3.9,2.6-5.8,0-.8-.6-2.8-1.4-5,.4.3.8.7,1.1,1.1,2.6,3.7,7,11.5,8.4,10.3,1.6-1.5,1.2-5.2,1.5-7,1.2-8.9-4.8-10.7-2.8-10.7Z"/>
  <g>
    <path class="cls-4" d="M118.3,86.4s17.1,13.2,46.3,15.8c29.2,2.6,50.2-9.6,54.5-12.5s18.7-9.8,18.7-9.8l-27-24.6-40.3,5.4-45.9-7.8-6.3,33.5Z"/>
    <path class="cls-6" d="M217.3,90.8s4.2-2.2,6.2-3.9,4.2-2.7,5.7-3.3,5.6-1.3,5.6-1.3l20.9,14.1,9.8,11.8s3.7,10,3.8,12-1,6.7-2.6,5.8-4.7-4.2-6.8-7-.9-1-1.4-1.5-3.5-.4-4.3-1.9c-1.9-3.1-5.4-8.2-7.9-9.8s-10.8-5.4-12.3-6.1-11.2-7-12.8-7.1-3.7-1.9-3.7-1.9Z"/>
    <path class="cls-3" d="M265.7,112.7s1.6,1.2,1.8,3.6,0,5.6-.1,7.1-.8,1.7-1.4,1.2c-.6-.5-6.3-7.1-6.4-7.5s0-1.4.4-3.5c.3-2.1,1-4.3,1-4.3l4.8,3.5Z"/>
    <path class="cls-6" d="M87.7,92s6.8,5.9,8.8,8.2,7.1,9.6,7.9,11.4,1.7,3.1,2.2,2.5,8.8,9.5,10.3,5.8.8-11.8.8-11.8l-12.7-12.6,3.1-1.2-2.2-10.5-18.2,8.2Z"/>
    <path class="cls-3" d="M106.8,109.6s2.4-1.6,3.6-2.2,3.8-.9,4.5-1.1,2.7,3.1,2.7,3.1c0,0-1.4,4.1-2,6.9s-1.8,2.7-1.8,2.7c0,0-4.5-3.4-6.4-5.6s-2.2-2.2-.5-3.8Z"/>
    <path class="cls-1" d="M18.4,84.5s4.8-2.9,10.5-8.8c6.7-6.9,6.2-11.7,6.2-11.7,0,0,1.2-8,1.9-10.3,1.6-5.5,1.3-10,13.2-14.8,28.3-11.4,33.2-16.7,55.9-21,20.9-4,33-4,56.2-4s38.8,3.8,49.4,6.5,34.8,14.8,41.9,25c7.1,10.2,7.3,21.9,6.6,24.4s-3.1,9.9-3.1,9.9c0,0,1.9-.3,3.3,2.8s1.3,8.7,3.5,12.2,4.6,6.1,6.8,7.5,8.1,2.9,8.5,5.7-1.2,1-2.9,1,3.9,1.8,2.8,10.7.2,5.5-1.5,7-5.7-6.6-8.4-10.3-1.7-1.6-2-1.8c-2.3-1.3-2.7-2.2-3.5-3.3s-3.3-4.6-6.3-8.6-5.9-7.9-8-9.4-6.6-4.4-8.5-5.5-5.5-3.3-7.1-4.4-8.6-2.7-14.4-7.4c-10.8-8.9-18.9-.5-18.9-.5,0,0-9.1,10.5-33.4,9.6-17.8-.6-25.6-10.2-30.1-13.3-7.2-5-11.1-17.1-11.1-17.1,0,0,3.9,11.7,1.6,17s-2.3,4.7-2.8,6.8c-.9,3.8,1.5,15.3,2.2,17.4s-.4,7.6,1.8,9.2,2.1,1.4,4.1,2,5.2,1.4,5.4,2.6-4.3,1.5-4.3,1.5c0,0,5.8,2.5,7.3,5s2.9,10.3,1.9,10.6-17-9.2-18.5-10.3-4.7-4.6-5.6-5.8-7.8-10-8.7-11.5-4.1-8.4-4.1-8.4c0,0-14.4,2.3-26.4,2.8-12,.5-22.8,4-25.8,4.6-3.1.6-6.4,1.4-13.2.7-5.1-.5-9.7-3.3-14.4-2.7s-3.8-2.7-3.8-2.7l-1-7.2-3.5-1.8Z"/>
    <path class="cls-7" d="M26.6,92.8s2.7-3,4.2-4.1,5.8-4.9,6.2-5.7,0-4.5,1.5-2.6c0,0-.5,4.1-1.5,4.4s-10.1,9.6-10.1,9.6l-.4-1.6Z"/>
    <path class="cls-2" d="M39.6,67s-.5-4,1.3-4.8,4.4-.2,5.8.5,2.9,3.1,1.7,2.9-2.6.8-3.6,1.4-4,2.8-3.9,2.2-1.3-2.2-1.3-2.2Z"/>
    <path class="cls-5" d="M40.9,67s.2-1.9,1.4-2.5,2.5-1,2.5-1.5,0-.5-.8,0-1.8.4-2.5,1.2-.7,2.8-.7,2.8Z"/>
    <path class="cls-6" d="M16,87.3s.2.7,1.7,2.4,5.8,7.1,7.1,6.3-.8-6.9-1.3-7.6-1.1-1.5-1.7-2c-4.1-3.6-5.8.9-5.8.9Z"/>
    <path class="cls-4" d="M15.8,84.8c.7-1.1,1.1-4.9,6.7.7s2.5,3.5,3,4.6c1.7,3.5,1.9,7,.9,6.6-2-.9-2.5,0-2.6-2-.2-3.9-1.8-6.7-3-7.9-2.5-2.3-4.2-1-4.3.8s-1.4-1.7-.7-2.8Z"/>
    <path class="cls-5" d="M17.7,87.7s1.6-.1,2.3,0,1.7.9,1.7.9c0,0-.9.1-2,.4s-2-1.3-2-1.3Z"/>
    <g>
      <path class="cls-3" d="M276.6,112.9s1.5,1.4,1.5,3.7-.4,5.6-.7,7.1-.9,1.6-1.5,1.1-5.7-7.7-5.8-8.1,0-2.1.6-4.1c.5-2,2.1-4.3,2.1-4.3l3.7,4.7Z"/>
      <path class="cls-3" d="M274.5,107.7s3.5.8,3.5.3-.3-1.5-2.2-2.4c-1.9-1-2.4-1.6-2.4-1s-.5,1.8,1.1,3.1Z"/>
    </g>
    <g>
      <path class="cls-3" d="M137.5,114.5s1.9.7,2.8,2.9,1.7,5.3,2,6.8-.3,1.8-.9,1.5-8.1-5-8.4-5.4-.7-2-1-4c-.3-2.1.4-4.8.4-4.8l5.2,3Z"/>
      <path class="cls-3" d="M133.6,110.4s3.5-.6,3.4-1-.9-1.2-3-1.4c-2.1-.2-2.8-.6-2.6,0s.2,1.9,2.2,2.4Z"/>
    </g>
    <path class="cls-1" d="M34,53.9s-5.1-1-7.2,0-4.5.7-6.5-.5-3.6-.3-2,2,6.8,5,8.4,7.3,7.2,7.8,7.2,7.8l3.7-8.8,1.9-7.6-5.6-.2Z"/>
    <path class="cls-4" d="M33.1,58.4s-1.8-2.1-3-2.1-3.1,1-7.4,0,3,2.7,5.2,4.5,6.6,6.1,6.6,6.1l1.2-7.3-2.6-1.3Z"/>
    <path class="cls-1" d="M48.9,41.6s-1.5-1-5.1-2.1-5.3-2.5-6.8-3.6-5.2-4.5-5.8-3.4-.9,5.1-1.5,6.6-1.3,7.3-.7,8.5,12.2,7.7,12.2,7.7l7.7,3.1,15.5.9,3.2-7.3-8.3-6.3-10.4-4.2Z"/>
    <path class="cls-4" d="M35.7,51.2s-7.1-1.4-5.8-6.8,1.3-11.1,2.8-10.1,4,4.3,6.6,4.9,20.5,11,21.3,13.2,1.2,4.7-1.6,4.7-9.1-3.3-9.1-3.3c0,0-.2,1.3-3.5,1.5s-10.7-4.2-10.7-4.2Z"/>
    <path class="cls-8" d="M246.2,46.3s-2.5-5.5-17.3-9.9c-8.9-2.6-15.7-1.7-15.7-1.7,0,0,14.9,4.8,26.5,16.8,7.7,8,6.1,23.7,7.8,22.4,2.8-2.1,9.7-14-1.2-27.6Z"/>
    <path class="cls-6" d="M39.3,43.8c1.5,0,14.3,5.8,13,7s-6.5-.4-7.5-.6-7.1-6.4-5.6-6.4Z"/>
    <path class="cls-8" d="M99.1,62.7s8,26.3,13.2,30.2,1-12.9-.5-19-1.5-22.7-5.8-21-6.9,9.8-6.9,9.8Z"/>
  </g>
</svg>