<?xml version="1.0" encoding="UTF-8"?>
<svg id="Where_is_found" data-name="Where is found" xmlns="http://www.w3.org/2000/svg" viewBox="0 0 32 32">
  <defs>
    <style>
      .cls-1 {
        fill: #fff;
      }

      .cls-2 {
        fill: #fbd7c9;
      }

      .cls-3 {
        fill: #d99998;
      }
    </style>
  </defs>
  <g id="ic_retained_placenta" data-name="ic_retained placenta">
    <path class="cls-1" d="m18.68,28.01c-1.8,1.63-3.96,2.47-6.2,2.22-2.52-.29-5.34-2.37-5.78-5.29-.32-2.17.19-4.48.82-6.34-2.65-4.55.38-12.12,4.54-13.83,0,0,.64-.5.51-.95-.13-.44-.08-1.77,1.68-1.81,3.37,0,6.37,4.03,6.37,4.03,2.3,1.89,4.25,4.41,4.91,8.08,1.24,6.77-1.84,13-6.84,13.9Z"/>
    <path class="cls-2" d="m18.12,26.66c-4.34.79-8.71-3.32-9.77-9.18-.97-5.29,1.11-10.2,4.71-11.68,0,0,.55-.43.44-.82-.11-.38.08-1.85,1.45-1.57,2.2.45,4.68,3.38,4.95,3.71.02.02.03.03.03.03,1.99,1.64,3.54,4.3,4.11,7.48,1.07,5.86-1.59,11.25-5.92,12.03Z"/>
    <path class="cls-3" d="m21.89,18.76c-.67,5.92-4.76,10.31-9.14,9.82-2.18-.25-4.34-2.19-4.72-4.71s.29-4.94,1.19-6.9c.52-1.14.34-4.74,1.74-7.18,1.01-1.75,2.25-2.63,4.21-2.64,4.15,0,7.38,5.69,6.71,11.61Z"/>
  </g>
</svg>