<?xml version="1.0" encoding="UTF-8"?>
<svg id="Livello_1" data-name="Livello 1" xmlns="http://www.w3.org/2000/svg" version="1.1" viewBox="0 0 150.6 114.6">
  <defs>
    <style>
      .cls-1 {
        fill: #d8d2cb;
      }

      .cls-1, .cls-2, .cls-3, .cls-4, .cls-5, .cls-6, .cls-7 {
        stroke-width: 0px;
      }

      .cls-2 {
        fill: #2a2a35;
      }

      .cls-3 {
        fill: #3f3f44;
      }

      .cls-8 {
        fill: none;
        stroke: #fff;
        stroke-linecap: round;
        stroke-linejoin: round;
        stroke-width: 2px;
      }

      .cls-4 {
        fill: #717171;
      }

      .cls-5 {
        fill: #090909;
      }

      .cls-6 {
        fill: #8e7066;
      }

      .cls-7 {
        fill: #fff;
      }
    </style>
  </defs>
  <path class="cls-8" d="M139.4,60.7v-.2c-3.2-1.9-6.7-.8-8.1-.3-.1-.2-.3-.3-.4-.5,1.3-.9,4.1-2.5,7.4-1.7v-.3c-3.4-.8-6.2.8-7.6,1.8-.7-.7-1.7-1.5-3-2.4-1-.7-1.9-1.6-2.6-2.7-.7-1.1-1.8-2-3-2.5,0,0,0,0,0,0l-4.3-1.4c1.5-2.1.8-4.3.1-5.5-.3-.5-.9-.5-1.2,0l-1.3,2h0s-1.1-1.7-1.1-1.7c-.7-1.1-2.3-2.1-3.5-2.2-2.1-.2-3.6,1.9-2.7,3.8l1.6,3.4c.1.3.2.6.2.8l-1.4,1.4c-1.8,1.1-7.1-.6-8.9-1.8-14.7-10.3-24.5-.4-25.2-.1,0,0-2.1,0-2.8,1-.7,1-3,.7-3,.7l1.2,1.3s0,0,0,0c-1.1-.4-3.2,1.6-3.2,1.6l1.1.4s0,0,0,0c-1.9-.3-3.9,1.6-3.9,1.6l2,.7s0,0,0,.1c-1.4.2-2.7,1.9-2.7,1.9h1.5c-.2.3-.3.5-.5.8-2.9,5.2-11.7,8.2-16.4,11.5h0s-.3.6-.7.9c-.2,0-.2.3-.3.4-8,3.2-34.7,13.6-34,.7,0-.2-.2-.3-.3-.1-2.4,4.9-3.8,14.8,34.9,2.6,0,0,0,.1,0,.2,0,.3.3.5.5.5,2.2,0,10.2-.2,11.7,0,.1,0,.2,0,.3,0,.2,0,.5,0,.7,0,.9.1,2.1.5,1.5,2-.5,1.3,1.3.7,2.9,0,0,.6-.4.9-.4.9-1,1.5.5,2.2.5,2.2,0,0,8.9.6,9.5.5.5-.1,4.1,2.5,5.4,3.6.2.1.3-.1.2-.3-.4-.9-1.2-2.2-1.8-3.1-.1-.2,0-.5.1-.4l3.9,3.2c.2.1.3-.1.2-.4-.6-1.2-2.1-3.2-2.7-4.1-.1-.2,0-.5,0-.4.9.2,2.6,1.3,3.7,2.1.2.1.3-.2.1-.4-.5-.6-1.2-1.3-1.9-2,.9,0,2.6-.9,3.6-1.4.4-.2.8,0,.8.5v.9s-.1,1.9,3.6-.8c.5-.4.8-.7,1-1,.2.3.3.7,0,1.3-.6,1.7,2.7.2,4.2-.6.4-.2.8,0,.8.5v.9s0,1.1,1.4.5c.1,0,.3,0,.4,0,.7.3,2.9-.8,4.1-1.4.4-.2.8,0,.8.5v.9s-.1,1.5,2.5,0c.2-.1.4,0,.6,0,.6.5,1.1.9,1.2,1.1,0,0,0,0,0,0,0,0,0,0,0,0h0s0,0,0,0c0,0,.1.3.4.6.5.8,1.6,2.1,2.9,1.9.2,0,0-.2-.1-.4h-.2c.8.2,1.3,0,1.5,0,0,0,0,0,0,0,0,0,0,0,0-.1,0-.2,0-.7-.7-1.4h.2c.2.2.4.3.4.1-.3-1.4-1.8-1.9-2.8-2.1,0,0,0,0,0,0-.7-.9-1.1-2-1.1-3.1.8.5,2.2,1.3,3.4.5.2-.1,0-.2-.3-.3h-.2c.9,0,1.3-.4,1.4-.5,0,0,0,0,0,0,0,0,0,0,0-.1,0-.2-.4-.6-1.2-1h.2c.2,0,.4,0,.4-.1-.8-1.2-2.5-1-3.4-.8,0,0-.1,0-.2,0,.5-2,1.5-4,2.5-5.5,0,0,0,0,0,0,1.4-1.7,3.5-3.3,6.5-4.1.8-.2,1.7-.2,2.5,0,1.2.4,3.2.8,5.1.1-.8,1.1-1.5,2.5-1.7,4.2h.3c.2-1.8,1-3.3,1.9-4.4.2,0,.4-.2.6-.3.4-.3.9-.5,1.4-.6-1,1.4-2.6,4-2,7.3h.3c-.6-3.4,1.1-6.1,2.1-7.4,0,0,.1,0,.2,0,.1,0,.2,0,.4,0,0,0,.1,0,.1,0,0,0,0,0,.2,0-.7,1.1-2,3.5-1.6,6.1h.3c-.4-2.8,1.1-5.3,1.7-6.2.8-.2,2.3-.7,2.7-1.9.2-.1.4-.4.6-.7,0,0,0,0,0,0,.2-.4.2-.9,0-1.6,1.3-.3,3.6-.4,5.6.6v-.2c-2-1.1-4.3-.9-5.7-.6,0-.2-.2-.4-.4-.6,1.3-.5,4.7-1.5,7.9.3ZM71.2,79.4s0,.1,0,.2c0,0-.2,0-.3,0,0,0,.2-.1.2-.2,0,0,0,0,0,0ZM80.1,79.9s0,0,.1-.1c.4-.4,1.1,0,.9.6,0,0,0,0,0,0,0,0,0,.1,0,.2-.3-.3-.6-.5-1-.7Z"/>
  <g>
    <path class="cls-6" d="M110.2,85.8c.2,0,0-.2-.1-.4h-.2c.8.2,1.3,0,1.5,0,0,0,0,0,0,0,0,0,0,0,0-.1,0-.2,0-.7-.7-1.4h.2c.2.2.4.3.4.1-.3-1.4-1.9-1.9-2.8-2.1-.4,0-.7,0-.7,0h0s0,0,0,0c-.3,0-.6.2-.8.5-.2.3-.2.6-.2.9h0s0,0,0,0c0,0,.1.3.4.6.5.8,1.6,2.1,2.9,1.9Z"/>
    <path class="cls-6" d="M110.9,79.3c.2-.1,0-.2-.3-.3h-.2c.9,0,1.3-.4,1.4-.5,0,0,0,0,0,0,0,0,0,0,0-.1,0-.2-.4-.6-1.2-1h.2c.2,0,.4,0,.4-.1-.8-1.2-2.5-1-3.4-.8-.4,0-.7.2-.7.2h0s0,0,0,0c-.3.2-.4.4-.5.7,0,.3,0,.6.2.9h0s0,0,0,0c0,0,.2.2.6.4.8.5,2.3,1.3,3.5.6Z"/>
    <path class="cls-6" d="M48.6,73c-2.6.8-36.9,16.1-36.1,1.5,0-.2-.2-.3-.3-.1-2.5,5-3.9,15.1,37.1,1.9,0,0,.1,0,0-.2l-.6-3c0,0,0-.1-.2-.1Z"/>
    <path class="cls-6" d="M66.9,77.9s.2,2.2,1.8,2c1.7-.2,8.5-1.6,11-.1,1.5.9,3,2.4,3.8,3.5.2.2,0,.5-.1.4-1.1-.7-2.8-1.8-3.7-2.1-.1,0-.2.3,0,.4.6.9,2.1,2.9,2.7,4.1.1.2,0,.5-.2.4l-3.9-3.2c-.2-.1-.3.1-.1.4.6.9,1.4,2.2,1.8,3.1.1.2,0,.5-.2.3-1.3-1.1-4.9-3.7-5.4-3.6-.6.2-9.5-.5-9.5-.5,0,0-1.5-.7-.5-2.2,0,0,.6-.7.3-1.7-.4-1.1,1.5-4.2,2.2-1.2Z"/>
    <path class="cls-2" d="M115.4,47.1l1.3-2c.3-.5,1-.4,1.2,0,.7,1.4,1.5,3.9-.6,6.1-3.1,3.3-1.4,0-1.4,0l-.2-1.7-.3-2.4Z"/>
    <g>
      <path class="cls-1" d="M130.1,60.3l-.2-.2s3.7-3.5,8.4-2.4v.3c-4.6-1.1-8.2,2.3-8.2,2.3Z"/>
      <path class="cls-1" d="M139.4,60.7c-4.1-2.3-8.5,0-8.5,0v-.2c0,0,4.4-2.3,8.6,0v.2Z"/>
      <path class="cls-1" d="M137.6,61.9c-3.2-1.6-6.8-.3-6.9-.3v-.2c0,0,3.7-1.4,7,.3v.2Z"/>
    </g>
    <path class="cls-3" d="M130.7,59.5c-.7-.7-1.8-1.5-3-2.4-1-.7-1.9-1.6-2.6-2.7-.7-1.1-1.8-2-3-2.5,0,0,0,0,0,0l-5.2-1.7c-.2,0-.3-.1-.5-.2.1-.7,0-1.5-.4-2.1l-1.7-2.7c-.7-1.1-2.3-2.1-3.5-2.2-2.1-.2-3.6,1.9-2.7,3.8l1.6,3.4c.1.3.2.6.2.8l-1.4,1.4c-1.8,1.1-7.1-.6-8.9-1.8-14.7-10.3-24.5-.4-25.2-.1,0,0-2.1,0-2.8,1s-3,.7-3,.7l1.2,1.3s0,0,0,0c-1.1-.4-3.2,1.6-3.2,1.6l1.1.4s0,0,0,0c-1.9-.3-3.9,1.6-3.9,1.6l2,.7s0,0,0,.1c-1.4.2-2.7,1.9-2.7,1.9h1.5c-.2.3-.3.5-.5.8-2.9,5.2-11.7,8.2-16.4,11.5h0s-.3.6-.7.9c-.2.2-.4.5-.3.7.1.2.1.5-.1.8-.2.2-.2.6,0,.8.2.2.3.5-.2,1,0,0,.9-.2,1,.5,0,.3.3.5.5.5,2.2,0,10.2-.2,11.7,0,.1,0,.2,0,.3,0,.2,0,.5,0,.7,0,.9.1,2.1.5,1.5,2-.6,1.7,2.7.2,4.2-.6.4-.2.8,0,.8.5v.9s-.1,1.9,3.6-.8c.3-.2.5-.4.6-.5,0,0,0,0,0,0,0,.2,0,.5-.1.8-.6,1.7,2.7.2,4.2-.6.4-.2.8,0,.8.5v.9s-.1,1.9,3.6-.8c.2-.1.4-.3.5-.4.4-.4,1.1,0,.9.6,0,0,0,0,0,0-.6,1.7,2.7.2,4.2-.6.4-.2.8,0,.8.5v.9s-.1,1.9,3.6-.8c.5-.4.8-.7,1-1,.2.3.3.7,0,1.3-.6,1.7,2.7.2,4.2-.6.4-.2.8,0,.8.5v.9s0,1.1,1.4.5c.1,0,.3,0,.4,0,.7.3,2.9-.8,4.1-1.4.4-.2.8,0,.8.5v.9s-.1,1.5,2.5,0c.2-.1.4,0,.6,0,.6.5,1.1.9,1.2,1.1,0,0,.1,0,.2.1,1.4.5,1.7-.4,1.7-.9,0-.1,0-.3-.1-.4-2.5-3.3-.3-8,1.6-10.9,0,0,0,0,0,0,1.4-1.7,3.5-3.3,6.5-4.1.8-.2,1.7-.2,2.5,0,1.4.4,4,1,6.2-.4.6-.4,1.3-.6,2-.7,1.1,0,2.8-.4,3.7-1.9,0,0,2.4-1.4-.5-4.3Z"/>
    <path class="cls-6" d="M110.8,45.5h0c1-.5,2.1,0,2.6.9l1.4,2.8c.4.7.3,1.6-.3,2.2l-1,1.2c.4.3,0,.8,0,.8-.8.7-1.8.3-2.5-.5v-.2c-.5-.4-.6-1-.5-1.5,0-.3,0-.7,0-1l-.8-2.3c-.4-1,0-2,1-2.5Z"/>
    <g>
      <path class="cls-5" d="M119.2,54.9s.2,1,1,1.4c.8.5,2,.3,2,.3,0,0,0-1.4-.9-1.9-.8-.5-2.1.2-2.1.2Z"/>
      <path class="cls-7" d="M120,55.1c0,.1,0,.2.2.3.1,0,.2,0,.3-.2,0-.1,0-.2-.2-.3-.1,0-.2,0-.3.2Z"/>
    </g>
    <path class="cls-4" d="M131.4,63.7s-.6-.8-1.2-.2c-.5.5-1.3.3-1.7.3-.1,0-.2,0-.3,0-.4,0-1.2.3-1.1,1.1.1,1,.9.9.9.9,0,0,2.7-.3,3.3-2Z"/>
    <g>
      <path class="cls-1" d="M123,71.2h-.3c.5-4.8,5-7.1,5.1-7.2v.2c0,0-4.3,2.3-4.8,6.9Z"/>
      <path class="cls-1" d="M124.9,73.2c-.8-4.7,2.8-8.2,2.8-8.3l.2.2s-3.6,3.5-2.8,8h-.3Z"/>
      <path class="cls-1" d="M126.6,71.8c-.5-3.7,2.1-6.7,2.1-6.8l.2.2s-2.5,3-2,6.6h-.3Z"/>
    </g>
    <path class="cls-2" d="M130.3,62.1c.8,0,1.3.3,1.7.6.1.1,0,.3-.1.4-.4.5-.8,1.4-1.7-.8,0-.1,0-.3.1-.3Z"/>
  </g>
</svg>