<?xml version="1.0" encoding="UTF-8"?>
<svg id="Symptoms" xmlns="http://www.w3.org/2000/svg" viewBox="0 0 32 32">
  <defs>
    <style>
      .cls-1 {
        fill: #fff;
      }

      .cls-2 {
        fill: #d99898;
      }

      .cls-3 {
        fill: #c98c8c;
      }

      .cls-4 {
        fill: #5b798c;
      }

      .cls-5 {
        fill: #77a8c7;
      }

      .cls-6 {
        fill: #82b7d9;
      }
    </style>
  </defs>
  <g id="ic_swelling_heart">
    <path class="cls-1" d="m8.3,19.09s-3.28-2.74-3.04-4.5.41-2.21-.91-3.41-1.01-2.19-.24-3.22c.51-.67.61-2.28,1.74-1.32.94.78,1.35,1.06,1.23.4s-1.24-1.64.74-2.42c2-.83,2.1-.89,2.68.42s1.26,1.41,1.16.41c-.13-1.31-1.02-1.97.54-2.47s3.14-.52,2.51,1.78.47.93.47.93c0,0,1.18-1.64,1.99-.48.4.57.05,1.08,1.65,1.34.38.06.9.3,1.37-.44s1.51-.65,2.44-.21c1.05.53,1.14,1.16,1.61,1.47.42.27.87-.05,1.78.77.91.92,1.14,2.13-.1,2.86-1.32,1-1.47,1.18-1.47,1.18,0,0,.25.78.46,1.26s.53.69,1.48,1.92,1.24,3.31,1.24,4.48c0,1.74-1.51,8.09-5.02,8.46-3.01.24-4.67.26-6.99-1.04-3.71-2.09-6.4-5.33-7.32-8.15Z"/>
    <path class="cls-4" d="m21.31,10.01c.59-.87,1.49-1.96,1.78-2.32.06-.07.1-.16.1-.26-.04-.88-1.29-1.29-2.07-1.14-.58.11-1.6,2-2.12,3.35,0,0,.94.08,1.41.17s.9.21.9.21Z"/>
    <path class="cls-4" d="m23.81,11.81c.92-.7,1.9-1.58,2.21-1.87.06-.06.1-.15.08-.24-.27-1.41-1.23-1.52-1.63-1.5-.11,0-.21.04-.31.09-1.1.59-1.71,1.34-2.05,1.96,0,0,.63.35.99.7s.72.86.72.86Z"/>
    <path class="cls-6" d="m8.12,17.42s-2.16-1.95-1.86-3.14c.3-1.19.72-1.59-1.63-4.05,0,0-.72-.71-.21-1.4s.51-1.26.81-1.49c.3-.23.6.63,1.85,1.29,1.25.66,1.51.04.89-1.59,0,0-1.1-1.28-.21-1.65.89-.37,1.61-1.25,2.2.08s2.03,2.18,2.36.73c.33-1.46-.72-2.3-.11-2.58.61-.28,2.58-.8,1.8.98-.56,1.28-.08,2.34.15,2.74.06.1.02.22-.08.28-1.65,1.05-2.18,1.95-2.34,2.61-.05.21-.14.77-.54,1.36-.32.47-.65.69-.95.94-.23.19-1.65,1.34-2.1,2.84-.12.41-.25,1.1-.04,2.06Z"/>
    <path class="cls-2" d="m17.26,9.76c-.23-.06-.47-.08-.73-.07h0c-.2-.51,1.86-2.06,1.86-2.06.79-.69-1.03-.55-1.36-.8-.33-.25-.3-1.04-.67-.91s-.96,1.59-2.22,2.5c-1.26.91-1.75,2.1-1.75,2.1-.17,1.32-1.32,2.38-1.62,2.54-.31.16-.93.74-1.69,2.2-.76,1.47.45,3.61.45,3.61,1.96,5.2,7.64,8.61,10.84,8.01,1.51-.29,4.83-4.11,5.85-5.4.09-.32.11-.4.11-.4.38-1.3-.04-4.07-.82-5.32s-1.12-1.33-1.31-1.9c-1.53-4.48-4.16-3.36-6.94-4.1Z"/>
    <path class="cls-3" d="m26.33,21.08s-1.11,4.37-2.57,5.43c-1.26,1.01-3.93.73-5.33.61-2.21-.36-4.53-2.14-6.16-3.96s-2.12-2.65-2.73-4.27c0,0-1.58-3.17.1-3.4s2.9,2.4,3.91,3.24c.93,1.12,2.27,2.15,4.4,2.06s3.12-.96,5.21-.84c1.45.03,3.17,1.14,3.17,1.14Z"/>
    <path class="cls-5" d="m11.74,10.23c-.05.21-.14.77-.54,1.36-.32.47-.65.69-.95.94-.23.19-1.65,1.34-2.1,2.84-.12.41-.25,1.1-.04,2.06,0,0-2.16-1.95-1.86-3.14.3-1.19.96-1.84,2.61-2.47.73-.28,1.25-.78,1.63-1.44s1.4-.81,1.25-.15Z"/>
  </g>
</svg>