<?xml version="1.0" encoding="UTF-8"?><svg id="Complications" xmlns="http://www.w3.org/2000/svg" viewBox="0 0 32 32"><defs><style>.cls-1{fill:#fff;}.cls-2{fill:#c46769;}.cls-3{fill:#bf5456;}.cls-4{fill:#b04e50;}</style></defs><g id="ic_sepsis"><g><g><path class="cls-2" d="M13.2,30.8c-1.52,0-3.14-.3-4.67-.88-2.43-.91-4.47-2.4-5.75-4.21-1.3-1.83-1.67-3.76-1.04-5.43,.85-2.28,3.45-3.69,6.78-3.69,1.52,0,3.14,.3,4.67,.88,2.43,.91,4.47,2.4,5.75,4.21,1.3,1.83,1.67,3.76,1.04,5.43-.85,2.28-3.45,3.69-6.78,3.69Z"/><path class="cls-1" d="M8.52,16.76c1.46,0,3.04,.28,4.61,.87,4.95,1.85,7.94,6.07,6.69,9.42-.86,2.29-3.47,3.58-6.62,3.58-1.46,0-3.04-.28-4.61-.87-4.95-1.85-7.94-6.07-6.69-9.42,.86-2.29,3.47-3.58,6.62-3.58m0-.35c-3.41,0-6.07,1.46-6.95,3.81-.65,1.73-.27,3.72,1.06,5.6,1.3,1.84,3.38,3.35,5.83,4.27,1.55,.58,3.19,.89,4.74,.89,3.41,0,6.07-1.46,6.95-3.81,.65-1.73,.27-3.72-1.06-5.6-1.3-1.84-3.38-3.35-5.83-4.27-1.55-.58-3.19-.89-4.74-.89h0Z"/></g><ellipse class="cls-3" cx="10.86" cy="23.69" rx="4.64" ry="6.86" transform="translate(-15.14 25.56) rotate(-69.47)"/><path class="cls-4" d="M17.28,26.1c.06-.95-1.34-3.8-3.23-5.06s-3.41-1.85-7.23-1.93c1.55-.57,3.62-.53,5.66,.23,3.55,1.33,5.69,4.35,4.79,6.75Z"/></g><g><g><path class="cls-2" d="M18.65,21.53c-2.98,0-5.32-1.21-6.24-3.24-1.52-3.34,1.22-7.86,6.11-10.09,1.76-.8,3.62-1.22,5.38-1.22,2.98,0,5.32,1.21,6.24,3.24,.74,1.63,.51,3.58-.66,5.49-1.16,1.89-3.09,3.52-5.45,4.6-1.76,.8-3.62,1.23-5.38,1.23Z"/><path class="cls-1" d="M23.9,7.14c2.81,0,5.15,1.1,6.08,3.14,1.48,3.26-1.22,7.67-6.02,9.86-1.8,.82-3.63,1.21-5.31,1.21-2.81,0-5.15-1.1-6.08-3.14-1.48-3.26,1.22-7.67,6.02-9.86,1.8-.82,3.63-1.21,5.31-1.21m0-.35h0c-1.78,0-3.67,.43-5.45,1.24-2.39,1.09-4.35,2.74-5.52,4.67-1.2,1.96-1.44,3.97-.67,5.66,.95,2.09,3.35,3.35,6.4,3.35,1.78,0,3.67-.43,5.45-1.24,4.98-2.27,7.76-6.9,6.2-10.32-.95-2.09-3.35-3.35-6.4-3.35h0Z"/></g><ellipse class="cls-3" cx="21.27" cy="14.25" rx="6.86" ry="4.64" transform="translate(-3.99 10.09) rotate(-24.47)"/><path class="cls-4" d="M27.51,11.41c-.63-.71-3.63-1.74-5.86-1.29-2.23,.45-3.71,1.1-6.48,3.74,.7-1.5,2.18-2.93,4.17-3.84,3.45-1.57,7.1-.95,8.17,1.38Z"/></g><g><g><path class="cls-2" d="M11.07,14.29c-1.99,0-4.17-.92-6-2.52-1.56-1.37-2.67-3.07-3.12-4.79-.46-1.75-.18-3.3,.77-4.39,.8-.91,1.98-1.39,3.41-1.39,1.99,0,4.17,.92,6,2.52,3.24,2.85,4.3,6.97,2.35,9.18-.8,.91-1.98,1.39-3.41,1.39Z"/><path class="cls-1" d="M6.13,1.37c1.86,0,4.03,.85,5.89,2.48,3.18,2.79,4.22,6.79,2.34,8.94-.78,.89-1.95,1.33-3.28,1.33-1.86,0-4.03-.85-5.89-2.48C2.01,8.85,.96,4.85,2.85,2.7c.78-.89,1.95-1.33,3.28-1.33m0-.35h0c-1.49,0-2.71,.5-3.54,1.45-.99,1.13-1.28,2.75-.81,4.55,.46,1.75,1.59,3.49,3.17,4.88,1.86,1.63,4.09,2.57,6.12,2.57,1.49,0,2.71-.5,3.54-1.45,.99-1.13,1.28-2.75,.81-4.55-.46-1.75-1.59-3.49-3.17-4.88-1.86-1.63-4.09-2.57-6.12-2.57h0Z"/></g><ellipse class="cls-3" cx="8.6" cy="7.74" rx="3.71" ry="5.48" transform="translate(-2.89 9.1) rotate(-48.74)"/><path class="cls-4" d="M4.48,4.13c1.35-1.54,4.29-1.17,6.57,.83,.54,.47,1,1,1.36,1.54,.78,1.17-1.26-1.67-4.08-2.37s-4.29,.51-3.85,0Z"/></g></g></svg>