<?xml version="1.0" encoding="UTF-8"?>
<svg id="Livello_1" data-name="Livello 1" xmlns="http://www.w3.org/2000/svg" version="1.1" viewBox="0 0 150.6 114.6">
  <defs>
    <style>
      .cls-1 {
        fill: #e2aa59;
      }

      .cls-1, .cls-2, .cls-3, .cls-4, .cls-5 {
        stroke-width: 0px;
      }

      .cls-2 {
        fill: #725948;
      }

      .cls-3 {
        fill: #5b4535;
      }

      .cls-4 {
        fill: #3d3d3b;
      }

      .cls-6 {
        fill: none;
        stroke: #fff;
        stroke-linecap: round;
        stroke-linejoin: round;
        stroke-width: 2px;
      }

      .cls-5 {
        fill: #fff;
      }
    </style>
  </defs>
  <path class="cls-6" d="M86.3,85.5s5-1.2,5.3-2.2c.3-1,3.3-.5,4.3.9,1.1,1.5,1-5.2-3.6-6.1,0,0-1.4-2.3-5.6-2.2-4.2,0-9-1.8-9-1.8-.4-.4-.9-.5-1.4-.5-3,.1-6-1.1-8-3.3-3.1-3.3-24.5-28.4-31-34.4-6.5-6-8.7-17.8-9-28.8,0,0-6.9,12.2-3.6,27.8,0,.3-1.8-2.4-2.3-.1-.8,3.7,0,11.6,5.2,19.3,0,0-2.6-2.6-2.9.2-.2,1.7,0,6,5.7,13.2,5.7,7.2,19.9,13.9,19.9,13.9,0,0-20.8-1.5-27.9-6.4-1.4-1-8.2,9.1-.9,20.3,7.3,11.2,18.4,13.8,26.8,11.4,8.4-2.3,8.8-9.1,8.8-9.1,0,0,5.1.4,6.8-.8,0,0,7.2,4.9,19.5,6.5,3,.4,5.5.6,7.7.7-.9.1-.4.4,3.3.7,6.6.6,12.9,0,17-.5-2,.4-3,.8,1.3.6,8.4-.3,16.8-3.6,27-8,0,0-33.7,5.8-53.7-11.4Z"/>
  <g id="Eagle">
    <path id="Tracciato_19-2" data-name="Tracciato 19-2" class="cls-3" d="M96,84.2c1.1,1.5,1-5.2-3.6-6.1,0,0-1.4-2.3-5.6-2.2-4.2,0-9-1.8-9-1.8-.4-.4-.9-.5-1.4-.5-3,.1-6-1.1-8-3.3-3.1-3.3-24.5-28.4-31-34.4-6.5-6-8.7-17.8-9-28.8,0,0-6.9,12.2-3.6,27.8,0,.3-1.8-2.4-2.3-.1-.8,3.7,0,11.6,5.2,19.3,0,0-2.6-2.6-2.9.2-.2,1.7,0,6,5.7,13.2,5.7,7.2,19.9,13.9,19.9,13.9,0,0-20.8-1.5-27.9-6.4-1.4-1-8.2,9.1-.9,20.3,7.3,11.2,18.4,13.8,26.8,11.4,8.4-2.3,8.8-9.1,8.8-9.1,0,0,5.1.4,6.8-.8,0,0,7.2,4.9,19.5,6.5,12.3,1.6,17.4.5,17.4.5,0,0-17.5-.1-6.4,1s21.7-1.3,21.7-1.3c0,0-11.7,1.7-3.3,1.4,8.4-.3,16.8-3.6,27-8,0,0-33.7,5.8-53.7-11.4,0,0,5-1.2,5.3-2.2s3.3-.5,4.3.9Z"/>
    <path id="Tracciato_25" data-name="Tracciato 25" class="cls-2" d="M85.2,86.7c-7.1,6.1-11.5,6.9-19.4,9.4,0,0,9.4,3.9,15.4,5.1,4.4.9,10,1.2,14.3,1.6.9,1.2,8.8.9,17.5,0,1.4-.1,1.8.6,3.7.3,10.7-1.8,14.6-4,13.4-4.1s-30.8,2.3-44.9-12.3Z"/>
    <path id="Tracciato_24" data-name="Tracciato 24" class="cls-2" d="M49.8,83.1s-20.2-1-26.5-5.3c-1.2-.9-5.5,7.4,1,16.3,6.6,8.9,13.9,10.5,18.8,10.8,4.9.3,12.9-2.9,12.7-7.6,0,0-5.5-1.5-7.4-5.8-1.9-4.3,1.4-8.4,1.4-8.4Z"/>
    <path id="Tracciato_20" data-name="Tracciato 20" class="cls-1" d="M95.9,83.3s0-3.7-3.6-4.6c0,0-1.5.4-1.6,1.8-.9.2-5,0-5.3.5,3.7.3,5.2,1.6,6,1.4,1.5-.7,3.2,0,4.5.8Z"/>
    <path id="Tracciato_21" data-name="Tracciato 21" class="cls-2" d="M91.9,78.5c-.7-1-2.4-2-5.6-2-3.1,0-6.1-.7-9-1.9-.3-.4-.9-.6-1.4-.5-1.6.2-15.6,9.1.3,16.4,1.5.4,7.6-4.1,9.6-5.7,1.9-.4,4.7-1.4,5.1-2-1.5-.5-1.3-.5-2.8-1s-3.2-.5-3.3-.8c.4-.7,2.4-.8,5.4-.9,0-1.1,1.6-1.7,1.6-1.7Z"/>
    <path id="Tracciato_22" data-name="Tracciato 22" class="cls-4" d="M89.2,78c.3,0,.6.4.6.6s-.5.4-.8.3-1-.4-.9-.7.9-.3,1.1-.2Z"/>
    <path id="Tracciato_23" data-name="Tracciato 23" class="cls-5" d="M89.4,78.3c0,0,.1.1.1.2s-.1.1-.2.1-.1-.1-.1-.2h0c0,0,.1-.1.2-.1Z"/>
  </g>
</svg>