<?xml version="1.0" encoding="UTF-8"?>
<svg id="Where_is_found" data-name="Where is found" xmlns="http://www.w3.org/2000/svg" version="1.1" viewBox="0 0 32 32">
  <defs>
    <style>
      .cls-1 {
        fill: #d7ad9b;
      }

      .cls-1, .cls-2, .cls-3, .cls-4, .cls-5, .cls-6, .cls-7, .cls-8 {
        stroke-width: 0px;
      }

      .cls-2 {
        fill: #d9dde3;
      }

      .cls-9 {
        stroke-width: .7px;
      }

      .cls-9, .cls-10, .cls-11 {
        fill: #fff;
        stroke: #fff;
        stroke-linecap: round;
        stroke-linejoin: round;
      }

      .cls-10 {
        stroke-width: .7px;
      }

      .cls-3 {
        fill: #ebbfac;
      }

      .cls-4 {
        fill: #fbd7c9;
      }

      .cls-5 {
        fill: #c5686a;
      }

      .cls-5, .cls-7, .cls-8 {
        isolation: isolate;
        opacity: .5;
      }

      .cls-6 {
        fill: #e9f0f4;
      }

      .cls-11 {
        stroke-width: .8px;
      }

      .cls-7 {
        fill: #b63a3e;
      }

      .cls-8 {
        fill: #bf5557;
      }
    </style>
  </defs>
  <path class="cls-11" d="M28.5,5.4c-1.8-3-3.6-3.8-4.9-4.1-1.3-.2-2.8-.6-3.6-.6-.1,0-.9,1.5-2.3,2.4-2.3,1.2-4.8.7-6.1-.6-.8-.7-1.1-1.6-1.2-1.7,0,0,0,0,0-.1l-2.9.4c-.3,0-.7.1-1,.3h0s0,0,0,0h0s0,0,0,0c-1.1.6-2.2,1.9-3.6,5-.6,1.3-1.8,4.3-1.7,4.5,0,.1,1.5.9,2.9,1.5,1.6.6,2.7,1.2,2.8.8,0-.2.3-.7.4-1,0,1.6.4,5.9.6,7.8,0,.8,0,1.7,0,2.7-.2-.3-.4-.6-.5-.8,0,0-.1,0-.2,0h0c-.1,0-.4.2-.7.6-.3.3-.6.8-.8,1.2-.1.3-.2.5-.1.7,0,.4.4,1,1,1.6.2.2.5.5.9.7,0,0,.1,0,.2.1,0,.6,0,1.2-.1,1.6,0,.2,0,.8.1.9.1.2.4.2,1,.3.5.1,1.4.3,2.6.5,0,0,.1.1.1.1,0,0,.2.3,1,.6.8.2,1.1.3,1.1.3,0,0,.1,0,.3,0,.1,0,.2,0,.3,0,.2,0,.3,0,.4,0,.1-.2.2-.4-.2-.7.8,0,1.7,0,2.6,0,7-.2,6.6-.2,8.2-.6.5-.1.9-.3,1-.3.2-.2,0-.9,0-1.9,0-.9-.1-1.8-.2-2.6.3-.4.5-.7.7-.8,1.2-.7,2-1.5,2.3-2.1.1-.2.2-.4.2-.6.1-.5-.4-1.4-1-2-.3-.3-.6-.6-.8-.6-.1,0-.2.1-.4.4-.1.2-.3.5-.5.8-.2.2-.4.4-.7.5-.2,0-.3.1-.5.2-.1-.7-.2-1.1-.2-1.3,0-.4.3-7.6.4-7.9.2-.3.9,1.1,1.2,1.4.2.1,1.5-.5,2.7-1.5,1.1-.9,2.2-2.2,2.2-2.3,0-.3-.7-1.1-2.5-4.1Z"/>
  <g>
    <path class="cls-6" d="M24.9,11.8c.2-.3.9,1.1,1.2,1.4s1.5-.5,2.7-1.5,2.2-2.2,2.2-2.3c0-.3-.7-1.1-2.5-4.1-1.8-3-3.6-3.8-4.9-4.1-1.3-.2-2.8-.6-3.6-.6-.1,0-.9,1.5-2.3,2.4-2.3,1.2-4.8.7-6.1-.6s-1.1-1.6-1.2-1.7c0,0,0,0,0-.1l-2.9.4c-1.4.2-2.9,1.1-4.7,5.3s-1.8,4.3-1.7,4.5,1.5.9,2.9,1.5,2.7,1.2,2.8.8.3-.7.4-1,0-.7,0-.6c0,.2.4,6.1.6,8.4s-.2,6.1-.4,8.3,0,.8.1.9.4.2,1,.3c1,.3,4.3,1,8.1.9,7-.2,6.6-.2,8.2-.6.5-.1.9-.3,1-.3.2-.2,0-.9,0-1.9-.3-4.6-1.1-7.7-1.1-8.1s.3-7.6.4-7.9Z"/>
    <path class="cls-2" d="M24.7,1.6s-.2.9,0,2.3c0,0-.6-1.8-.2-2.4h.2Z"/>
    <path class="cls-2" d="M6.5,1.5s-.3.7-.2,2.1c0,0-.4-1.4,0-2.1h0s.1,0,.1,0Z"/>
    <g>
      <g>
        <circle class="cls-5" cx="16.4" cy="24.8" r="5.3"/>
        <circle class="cls-8" cx="16.4" cy="24.8" r="3.9"/>
        <circle class="cls-7" cx="16.4" cy="24.8" r="2.4"/>
      </g>
      <path class="cls-9" d="M26.8,19.1c-.2,0-.5.6-.9,1.2s-1.4.9-1.8.7c-.4-.2-1.2-.3-1.4-.4s-.8-.2-1,0c-.2.2-1.4.6-1.4.6,0,0-.5,0-.7.3-.3.2-.5.4-.5.4,0,0-.9.2-.8.7s1.6.3,1.9.1c.2-.1.6-.2.9-.3,0,0,.2,0,.3.2,0,.1.1.4,0,.6,0,0,0,0,0,0,0,0,0,0,0,0-.2.2-.9.5-1.1.6-.2.1-.9.2-1.2.3-.3,0-1.5.4-1.6.4s-.6.3-.5.7c0,.1.2.2.3.2,0,0-.2,0-.2,0-.5.5-.2.8,0,.9.2,0,1.2,0,1.3,0s.9.2,1.3,0,1.6-.3,1.6-.3c0,0-.9.2-1.1.3-.2,0-1.5.4-1.7.4-.2,0-.5,0-.7.5-.2.5,1,.5,1,.5,0,0,1-.1,1.4-.1s1.5-.5,1.9-.7c.3-.2.4,0,.4,0,0,0-.5.3-1,.7-.4,0-1,.4-1.6.7,0,0-.1,0-.2.1h0s0,0,0,0c-.3.2-.2.4-.1.6.1.2,1,0,1,0,0,0,.3,0,1.1-.3s1-.6,1-.6c0,0,.7-.8,1-.8,0,0,.7-.3,1-.7.7-.8,1.3-1.7,1.5-1.9,1.6-.9,2.4-2.1,2.5-2.7.2-.8-1.4-2.5-1.7-2.6ZM19.6,25c-.5.1-1.1.3-1.2.3,0,0,.4-.1.6-.2.2,0,1.5-.2,1.6-.2,0,0,.1,0,.2,0-.3,0-.7,0-1.2.2Z"/>
      <g>
        <path class="cls-1" d="M20.9,22.2s.3,0,.4.2.2.7,0,.8.2,0,.2,0l.2-1h-.5c0,0-.3.1-.3.1Z"/>
        <path class="cls-4" d="M28.5,21.6c0,.6-.9,1.8-2.5,2.7-.2.2-.8,1.2-1.5,1.9-.3.4-.9.7-1,.7-.3,0-1,.8-1,.8,0,0-.2.4-1,.6s-1.1.3-1.1.3c0,0-.9.2-1,0s-.2-.5.3-.7,1.1-.6,1.6-.7c.4-.4,1-.7,1-.7,0,0-.1,0-.4,0s-1.4.7-1.9.7-1.4.1-1.4.1c0,0-1.2,0-1-.5s.5-.5.7-.5,1.6-.3,1.7-.4,1.1-.3,1.1-.3c0,0-1.2.2-1.6.3s-1.1,0-1.3,0-1.1.1-1.3,0-.5-.3,0-.9c.2-.2,1.2-.2,1.5-.2,0,0,.7-.2,1.2-.3.5-.1,1,0,1.3-.2,0,0,0,0-.3,0,0,0-1.3.2-1.6.2s-.5.2-.6.2-1.5.4-1.6,0,.5-.7.5-.7,1.3-.3,1.6-.4,1-.2,1.2-.3,1-.5,1.1-.6,0-.6.2-.8c0,0,0,0,0-.1s-1,.2-1.4.4-1.8.5-1.9-.1.8-.7.8-.7c0,0,.3-.1.5-.4s.7-.3.7-.3c0,0,1.2-.4,1.4-.6s.8,0,1,0,1,.2,1.4.4,1.3-.2,1.8-.7.7-1.2.9-1.2c.3,0,1.9,1.7,1.7,2.6h0Z"/>
        <path class="cls-3" d="M21.2,26h.6c.2,0,.8-.7.8-.7,0,0-.5.7-.8.7q0,0-.6,0Z"/>
        <path class="cls-3" d="M20.9,24.9s.6.2,1.2,0c.2,0,.4-.5.8-.9s.4-.3.4-.3c0,0-.5.3-.9.7s-.3.4-.7.5-.8,0-.8,0h0Z"/>
        <path class="cls-3" d="M21.4,22.1s.2,0,.4,0c.2-.1.4,0,.4,0l-.3.4-.6.7s0,0,.1-.3c0,0,0-.2,0-.3,0-.1.1-.4.1-.4,0,0-.1,0-.2,0Z"/>
        <path class="cls-1" d="M19.5,28.1s.6-.2.7-.2.9-.4,1-.4c0,0,.3-.2.5-.4,0,0,.3-.1.5-.2h0c0,0,0,0,0,0,0,0-.3.1-.6.3-.2.2-.5.4-.5.4,0,0-.2,0-.4,0l-1.2.5h0Z"/>
        <path class="cls-1" d="M18.4,26.7s1,0,1.2-.1,1.5-.6,1.5-.6c0,0,0,0-.2,0-.1,0-.4,0-.7.2s-.7.2-.8.2c-.5.1-1.2.3-1.2.3h.1Z"/>
      </g>
      <path class="cls-10" d="M5.4,24.5c0,.6.9,1.7,2.4,2.6.2.2.8,1.1,1.5,1.8.3.4.8.7.9.7.3,0,1,.8,1,.8,0,0,.2.3,1,.6s1.1.3,1.1.3c0,0,.9.1,1,0,0-.1.2-.4-.1-.6h0s0,0,0,0c0,0,0,0-.2-.1-.5-.2-1.1-.5-1.5-.6-.4-.4-.9-.7-.9-.7,0,0,.1,0,.4,0,.3.2,1.4.7,1.8.7s1.3.1,1.3.1c0,0,1.2,0,1-.4-.2-.4-.5-.5-.7-.5-.2,0-1.5-.3-1.7-.3-.2,0-1-.3-1-.3,0,0,1.1.2,1.5.3s1.1,0,1.2,0,1.1.1,1.3,0c.2,0,.5-.3,0-.8,0,0-.1,0-.2,0,.2,0,.3,0,.3-.2,0-.4-.4-.7-.5-.7s-1.2-.3-1.5-.4c-.3,0-1-.2-1.2-.3-.2-.1-.9-.4-1-.6,0,0,0,0,0,0,0,0,0,0,0,0,0-.2,0-.5,0-.6,0,0,.2-.1.3-.2.3,0,.7.2.8.3.3.2,1.8.4,1.8-.1s-.8-.7-.8-.7c0,0-.3-.1-.5-.3-.3-.2-.7-.3-.7-.3,0,0-1.2-.4-1.4-.6-.2-.2-.8,0-.9,0s-1,.2-1.3.4c-.3.2-1.3-.2-1.7-.7s-.7-1.1-.9-1.1c-.3,0-1.9,1.6-1.6,2.4ZM12.8,27.5s0,0,.2,0c0,0,1.3.2,1.5.2.2,0,.5.2.6.2,0,0-.6-.2-1.1-.3-.4,0-.8,0-1.1-.2Z"/>
      <g>
        <path class="cls-1" d="M12.4,24.9h-.5s.2,1,.2,1c0,0,.4.2.2,0s0-.6,0-.7.3-.2.3-.2c0,0-.4-.2-.3-.2Z"/>
        <path class="cls-4" d="M5.4,24.5c-.2-.8,1.3-2.4,1.6-2.4.2,0,.4.6.9,1.1s1.4.9,1.7.7,1.2-.3,1.3-.4.7-.2.9,0,1.4.6,1.4.6c0,0,.5,0,.7.3s.5.3.5.3c0,0,.9.1.8.7s-1.5.3-1.8.1-1.2-.4-1.3-.4,0,.1,0,.1c.2.3.1.7.2.8s.9.5,1,.6.9.2,1.2.3,1.4.4,1.5.4.6.3.5.7-1.4,0-1.5,0-.4-.1-.6-.2-1.4-.2-1.5-.2c-.2,0-.3,0-.3,0,.3.1.7,0,1.2.2.5.1,1,.3,1.1.3.2,0,1.2,0,1.4.2.5.5.2.8,0,.8s-1.1,0-1.3,0-.9.2-1.2,0-1.5-.3-1.5-.3c0,0,.9.2,1,.3s1.4.4,1.7.3.5,0,.7.5-1,.4-1,.4c0,0-.9-.1-1.3-.1s-1.5-.5-1.8-.7-.4,0-.4,0c0,0,.5.2.9.7.4,0,1,.4,1.5.6s.4.5.3.7-1,0-1,0c0,0-.3,0-1.1-.3s-1-.6-1-.6c0,0-.7-.7-1-.8,0,0-.7-.3-.9-.7-.7-.7-1.2-1.7-1.5-1.8-1.5-.9-2.3-2-2.4-2.6h0Z"/>
        <path class="cls-3" d="M11.9,28.7c-.3,0-.8-.7-.8-.7,0,0,.6.6.8.6h.5q-.5.1-.6,0Z"/>
        <path class="cls-3" d="M12.7,27.6s-.4,0-.8,0-.4,0-.7-.5-.8-.7-.8-.7c0,0,0,0,.4.3s.5.8.7.8c.5.2,1.2,0,1.2,0h0Z"/>
        <path class="cls-3" d="M12,25s0,.2,0,.3c0,0,0,.2,0,.3,0,.2.1.2.1.2l-.6-.7-.3-.4s.2,0,.4,0c.2.1.4,0,.4,0,0,0-.2.1-.2,0Z"/>
        <path class="cls-1" d="M14,30.7l-1.1-.5c-.2,0-.4,0-.4,0,0,0-.3-.2-.5-.4-.3-.2-.6-.3-.6-.3h0s0,0,0,0c.2,0,.4.1.5.2.2.2.5.4.5.4,0,0,.8.3,1,.4s.7.2.7.2h0Z"/>
        <path class="cls-1" d="M15.2,29.3s-.6-.2-1.1-.3c-.2,0-.6-.1-.8-.2s-.5-.1-.6-.2c0,0-.2,0-.2,0,0,0,1.2.5,1.4.5s1.2.1,1.2.1h.1Z"/>
      </g>
    </g>
    <path class="cls-2" d="M6.7,7.9s0,.7,0,1.6.4,2.2.4,2.2c0,0-1.4-1.2-1.2-1.3,0,0,.1-.2.3,0s.5.6.5.4-.4-1.2-.2-1,.2.5.2.3,0-2.2.1-2.4Z"/>
    <path class="cls-2" d="M25.4,8s0,.7,0,1.6-.4,2.2-.4,2.2c0,0,1.4-1.2,1.2-1.2,0,0-.1-.2-.3,0s-.5.6-.5.4.4-1.1.3-1-.2.5-.2.3.1-2.2,0-2.4Z"/>
    <path class="cls-2" d="M13.7,16.6s1.8-1,3-.9,3.7,0,3.3.4-3.1-.3-3.8,0-2.6.5-2.6.5Z"/>
  </g>
</svg>