<?xml version="1.0" encoding="UTF-8"?>
<svg id="Livello_1" data-name="Livello 1" xmlns="http://www.w3.org/2000/svg" version="1.1" viewBox="0 0 150.6 105.3">
  <defs>
    <style>
      .cls-1 {
        fill: #b97553;
      }

      .cls-1, .cls-2, .cls-3, .cls-4, .cls-5, .cls-6, .cls-7, .cls-8, .cls-9, .cls-10, .cls-11, .cls-12, .cls-13, .cls-14, .cls-15 {
        stroke-width: 0px;
      }

      .cls-2 {
        fill: #fcfcfa;
      }

      .cls-3 {
        fill: #24231f;
      }

      .cls-4 {
        fill: #e7e7e5;
      }

      .cls-5 {
        fill: #fdfef9;
      }

      .cls-6 {
        fill: #f3f4f2;
      }

      .cls-7 {
        fill: #eeefeb;
      }

      .cls-8 {
        fill: #1e2c38;
      }

      .cls-9 {
        fill: #c2c4c2;
      }

      .cls-10 {
        fill: #fdfdfb;
      }

      .cls-11 {
        fill: #4f5759;
      }

      .cls-12 {
        fill: #fefefe;
      }

      .cls-13 {
        fill: #cbd0cf;
      }

      .cls-14 {
        fill: #e5e6e0;
      }

      .cls-15 {
        fill: #a9aaa9;
      }
    </style>
  </defs>
  <path class="cls-15" d="M101.6,92.3l1.5-5.6,1.6-5.8s-1.2,9.4-.8,10.7,2,4.5,2.3,5.1,3,3.7,3,3.7l-2.2.5s-5.6-3.5-5.5-3.8,0-4.8,0-4.8Z"/>
  <path class="cls-15" d="M112.1,93.8l-1.2,1.7s1.2,3.3,1.2,3.7.5,1.7.7,1.7,4.3.5,5.1.7,2.5.3,2.5.3c0,0,2.7.6,3.4.4s.7-1.7.6-2-.5-1.8-1.6-2.1-3.3-.7-3.6-.7-4-3-4-3l-3.3-.4Z"/>
  <path class="cls-8" d="M120.1,100.6s.5-.2.8.3.5,1.2.5,1.2l-.9-.2-.4-1.2Z"/>
  <path class="cls-8" d="M115.8,101.2s-1.2-1.9-.8-1.6,1.6,1.2,1.6,1.4v.6s-.8-.4-.8-.4Z"/>
  <path class="cls-9" d="M139.2,6.7l4-3s3.1-2.7,4.5-2.8,1.4,3.7,1.4,3.7c0,0-.2,2.8-.4,3.4s-5.2,3.2-5.2,3.2l-5.2-2.3,1.1-2.2Z"/>
  <path class="cls-6" d="M148.7,8c-.2.4-1.3,2.5-1.3,3s.6,1,.6,1c0,0,.8.2,0,.7s-1,1.9-1,2.8.4,2.2.9,2.7.9,1,.9,2.1-.5,6.4-.7,6.7,0,1.9.4,2.7,0,.7-.8.4,0,2-.8,2.4-1.3,1.2-.7,1.6,3.3.8,1.9,1.2-2.2.1-2,.9.4.9-.7,1.1-1.3,0-1.2.7c0,0,.2.6.5.8s1.3.8-.5.8-3.3,0-3.2.2.7.5.5.6-2.5.2-2.7.6.6,2.4.5,2.6-2.1.3-2.1.6,1.3,1.4,1.1,1.7-2.4.4-2.5.6.2,1.2-.2,1.4-1.3.2-1.3.7.4,1,.2,1.2-.3.7-.8.7-1.4.1-2,.3-.5,1.8-.5,2.2,0,1.2-.2,1.2-.5-.3-.6.2.4,1.3,0,1.4-2.5.1-2.6.4-1.4,1.8-1.5,2.1-.3.4-.3.4c0,0-.4-.3-.6-.2s-.4,1-.5,1.2-.2.3-.4.3-.3.9-.7.8-.8-.7-1.4-.6-.7.8-.7,1.4,0,.9-.3.9-.7,0-1,.5-.2.8-.3.9-1-.3-1.3,0-1.2.9-1.8,3.7c-.6,2.7-1.6,7.9-1.6,7.9,0,0-.8,7.2-.9,8.1s0,3.9,0,4.3,0,2.9.8,4.4c.8,1.5,1.5,3.3,1.8,3.7s-2.3.5-2.3.5l-4-1.1s.4-1.3-.3-1.6l-.7-.3s.4-.7-.5-1.2-1.6-.7-1.6-.7c0,0,1.5-.8,1-3.6-.5-2.8-1.7-6.8-1.7-6.8l-1.9-5.9s-.6,5.3-.6,6.4-2.3,9.2-2.2,9.7.9,3.3,1,3.7,1.3,3.3,1.7,3.6,3,.2,3,.2c0,0,2.8,3.7,3,3.9s-.3,1.2-.6,1.5-1.5.4-1.9.3-.7-.3-2.1-.4-2.3-.1-2.8-.3-2.9-1.7-3.3-2.7-.7-2.3-.8-2.8-1.5-2.8-1.5-4.1.7-1.4-.2-1.8-2-.5-1.6-1,.8-1.2.8-1.2c0,0-1-.8-1.2-1.1s1.4-2.5,1.4-2.5c0,0,0-.9-.7-1.4s-1.3-.7-1-1,1.7-1.4,1.4-2-1.4,0-1.3-.8.7-2.8.4-3-.8-.3-.6-.7.6-1,.2-1.4-.8,0-.7-.8.9-2.7.8-3.5-.8-.4-.8-1.2.6-1.4.6-1.9,0-.9-.2-.8-.4.5-.4.5c0,0,0-3.6,0-4s.2-.4.4-.7-2.1.6-4.7-.4c-2.6-1-13.7-1.9-15.3-2.7s-8.4-3.8-9.1-2.9l-22.2-9.2,5.8-19,7.4-2.9,17.6-1.3,16.1-1.3,15.6,2.4,8.3-4.5,13.1-14.5h6.1c0,0,5.1,1.8,5.1,1.8l4,1.6,5.2-3.2Z"/>
  <path class="cls-13" d="M136.2,16.1s-.2-4.6.5-3.8,1.9,1.7,1.9,1.7c0,0,1.5-1.2,1.6-.9s1.4,2,1.4,2l.5-2s.1,1.9.8,1.9,1.8-1,1.8-1l.6-1.2s.2,5.1,1.3,5.3,2.1,1,2.1,2.2-1.6,6.1-1.6,6.1l-3.3,1.3s-3.5-5.4-4-6-1.9-3.7-1.9-3.7c0,0-.2,1.2-.5.9s-1.3-2.9-1.3-2.9Z"/>
  <path class="cls-4" d="M62.5,93.2l3,3.9h3.3c.8,0,2.8,2.2,3,2.6s0,1.1,0,1.3-7.4.6-7.4.6c0,0-1.7.3-1.8,0s-1.5-1.3-1.9-1.9-7.4-14.5-7.4-14.5l6.1-12.5,9.3-12.9s-6.5,14.9-6.9,16-3,11.8-3,11.8l2.5,3.6,1.4,2Z"/>
  <path class="cls-15" d="M75.8,65.8s-12.6,14.6-13.3,15.4-1.3,2.3-1.4,3.4,2.7,9.7,2.7,9.7l1.2,1.9s-1.8.3-2-.6-1.9-3.5-1.9-3.5l-2.3-.5s-1.2-2.9-.8-5.3,7.1-19.9,7.1-19.9l4.5-5.8,3.3,1.1,2.8,4Z"/>
  <path class="cls-5" d="M136.3,32.4s1.6,0,2.5-.2,1.2-.6,1.3-.7,1.1-1.5,1.1-1.5c0,0-.2-1.7,0-1.9s2.3-.2,2.3-.2l.2-.2-.6-1.6-4-3.5-3.5-1.3-4.9,4.4-.2,2.6s-.4,1.9-.2,2.2,3.2-.3,4.4.7,1.3,1.1,1.6,1.2Z"/>
  <path class="cls-9" d="M46.6,79.4l1.7-.5s-.1,3.1-.3,3.9-.5,4.5-.4,4.8.7,1.8.7,1.8c0,0,.3-3.7,1.2-4.8s2.7-5.1,2.7-5.1l1.4-9.5-.5-3.1-4.8,2-1.7,10.4Z"/>
  <path class="cls-9" d="M59.3,100.2s-1.3.3-1.4.6,0,.4-.4.6-2.3.7-2.9.2-2.5-8.1-2.6-8.4-.7-4.8-.6-5.3.2-2.6.6-3.2.8-2.5.8-2.5c0,0,.9-.9,1.1-.9s.4,0,.4,0c0,0-2.2,5.2-2.1,6.2s3.1,9.2,3.1,9.2l2.7,2.7,1.3.8Z"/>
  <path class="cls-9" d="M54.9,42.9s5.9-2.5,7.2-1.6,6.5-2.2,6.5-2.2l-4.6,3.9,6.3-1-2.3,1.7,6.7-1.2-7,3.4h3.6l-2.5,3,1.9,1-3.6,3.7,3.2-1.5-1.8,4.2h3.9l-.6,2.4,2.3-1,1,1s1.1-1.6,1.3-1.9-.8,3.2-.8,3.2l4.3-3.1-1.3,3.1,4.9-2.9-1.1,2.9,4.9-5.7-2.4,6.6,6.6-9.3-3.3,7,8.4-13.4s-3.9,9.6-4.4,10.6-3.2,4.1-3.2,4.1l3.9-2.3-3.2,4.2,5.1-3.5-2.2,5s6-2,6.5-2.3,1.6-3.5,1.6-3.5v3.3l2.5-3.4-3.2,6.5s5.3-1.9,5.6-3.5,0-5.5,0-5.5l1.4,2.6.5-3.5,1.5,6.3v-7.9l4.1,6s-3.1-8.1-3-9.4.7-1.6.7-1.6l.9,5.1.9-1.8.6,2.2,1-1.7s.5,3.2,1.3,3.6,1.3-1.2,1.3-1.2l-3-5.5,1.6,1.2-.3-2.8s2.4,4.2,3.4,4.6,1.5.4,1.5.4c0,0-4.3-6.7-4.5-8.4-.2-1.6-.5-6.4-.5-6.4,0,0,1.8,7.1,2.9,8.4s1.6,0,1.6,0c0,0,1.2.9,1.7,1.3s2.2,1.8,2.2,1.8c0,0,0-2.6-1.4-3.6s-3.8-5-3.8-5c0,0,4.8,4.4,6.3,5.3s-.5-2.6-1.7-3.8-2.3-3.7-2.3-3.7c0,0,5.1,3.7,6.5,4.9s1.9,1.2,1.9,1.2l-5.3-7.6s2.9,2.9,3.6,2.8-1.5-3.9-1.5-3.9c0,0,2.2,1.3,3.3,1.7s2.1,0,2.1,0v-1.2l-3.8-3.2s1.9-.8,2.5-.5,2.3,2.3,2.3,2.3c0,0,3.4-1.1,4.6-.6s2.4,1.2,4.2.7,3.8-2.5,3.8-2.5l1,2.5-2.5.3.6,1.4-2,.7,1.1,1.7-3.5-.8,1.2,2.2-2.9-1.8.7,3-3.2-2.8,2.2,4.2-2.6-.7.6,2.6-1.8-1.2.9,2.8-1.6-.8,1.1,3.3-1.8-2-.7,2.2-1.2-.5-.5,2.2-3-2.7,1.3,4.3-2.6-1.7,1.3,4.2-4-2.1,1.2,4.2-4.2-3,1.7,5-3.3-2,.5,4.6-2.3-3.1v4.8c0,0-1.6-.4-1.6-.4l.7,2.7-2.3-2.3-1.7,5.8-.7-6.5-1.3,6.6-1.2-4.6-.6,3.3s-2.6,2.3-2.6,3.4-1.4,14.1-1.4,14.1l-.9.8s.2-1.8.5-2.7.2-4.5.2-4.5l-1.4,3v-4.8l-1.3-1.4,2.7-7.6-1.7.2.3-1.3h-1.8v-.8l-2.1-1,.7-2-1.2.6-2.6,1.5-.4,2.9s-.3-3.2-1.3-2.8-2.9,1.7-3.5,1.6l-9.6-.4s-.2-1.7-1.5-1.4-3.2.9-3.2.9l-1.5-1.4.2,2.4-2.5-3.4-.4,1.3-1.8-4.1-3.8,6.8-9.1,13.5-2.5,5.4s-.4,3.8,0,4.9,3.6,8.1,3.6,8.1c0,0-1.7,1.8-2.3,0s-4.6-10.8-3.5-12.6,2.6-6.4,2.6-6.4v-3.2l7.7-13.7,3.3-7.7-9.6,9.9-5.2-3-2.4-8.5,6.3-11.4Z"/>
  <path class="cls-7" d="M44.5,34.4s11.8-5.6,12.2-5.6-4,4.1-4,4.1l9.8-2.7-7.1,5.2-4.4,4.2-2,3.1s6.4-3.7,6.1-2.9,1.7,1.4,1.7,1.4c0,0-.9,3.1-1.4,4s-.6,1.4-.6,1.4c0,0-2.6,5.6-3.5,5.8s1.1,6.5,1.1,6.5c0,0-.2,8.9-.4,9.2s-4.2,7.2-4.2,7.2l-6.8-10,.8-18.4,2.6-12.5Z"/>
  <path class="cls-9" d="M128.4,5.8s-2.8-3.3-3.4-3.7-2.3-1.5-3-1.2-2.2,2.5-2.3,4.8,1.5,8.5,1.5,8.5l.8,2.3,5.6-3.2h2.3c0,.1,1.3-3.8,2.7-4.6s1.7-.9,1.7-.9l-2.5-1.3-3.4-.9Z"/>
  <path class="cls-10" d="M4,94.9H0s4.3-6.6,7.9-8.3,9.3-4.7,9.3-4.7l-1.2-1.2s4.1-2.8,4.8-3.7.4-2.5.4-2.5c0,0,2.4-1.1,3.5-2.1s4.5-6.1,4.7-6.6,1.6-2.5,1.6-2.5l-1.6.5,3.6-5.2-2,.3,2.5-2.4h-1.6l3-3.9h-1.2l4.1-6.8-2.1,1.4,2.5-3.3-1.9.4s.9-2.2,1.9-2.8,1.8-1.7,1.8-1.7h-2l3.3-2.1-1.4-1.4s-.2-.4.8-.6,1.2-1.5,1.2-1.5c0,0,4.3-1.2,4.8-1.7s4.7-3.2,6-3.5l1.3-.3s-1.8,1.4-3,2.2-3.3,2.2-2.4,1.8,4.8-2.2,4.8-2.2c0,0-3.6,3.7-4,3.8s-1.4.9-.9,1.1,9.5-3.6,10.3-3.9,2.1-.4,2.1-.4c0,0-12.4,5.5-12.4,5.7s5.3-1.1,5.3-1.1c0,0-7.5,5.2-7.4,5.5s.4,1.2.4,1.2c0,0-2.7,1.6-2.7,1.8s1.8.4,2.7.4,1.4,0,1.4,0c0,0-4.7,2.2-4.8,2.9s4.6-1.8,4.6-1.8l4.8-2s-4.2,3.8-5.6,4.3-5.7,3.9-5.7,3.9l1.2,14.7-8.1,18.5-17.6,7.8-13.4,1.7Z"/>
  <path class="cls-15" d="M15.1,97.2s1.8-.2,1.7.6-.9,2-.9,2c0,0,4.8-.7,6.1-1.4s4-2.3,4-2.3c0,0-.4,1.4-.4,1.8s2.9-1.7,3.5-2.2,2.3-1.4,2.3-1.4v.9s4.1-5.3,4.7-4.8.3,2.2.3,2.2c0,0,3.2-5.6,3.5-4.6s.7,2.2.7,2.2c0,0,2.7-4.1,3-4.9s.7-3.1.7-3.1l.4-1.7.9,3.3s1.7-4.6,2-4,.4,2.5.4,2.5c0,0,2.7-4.2,2.9-5.2s0-4.3,0-4.3l-.8-1.7s-.7.9-.6,2.2-2,3.8-2,3.8l-1.8-7-4.3.4-1.4,7.4-2.5,5.6-5,3.5-4.9,2.7-4.7,3.1-7.7,4.3Z"/>
  <path class="cls-4" d="M7.9,96.2h-4l.7-.7H2s5.1-4.3,7.5-6.1,9.7-5.4,11.4-6.4,2-1.5,2-1.5h-1l5.3-6.8-2.7.6s1.8-2.2,3.1-3.3,4.2-5.6,4.6-6.1,3.5-4.8,3.5-4.8l-.9-.4.9-.7h-2s2.8-3.4,3.5-4.3.8-2.1.8-2.1l-1.5.3s1.6-2.2,2-2.8.4-1.2.4-1.2h-1.6s3.4-2.7,3.6-4.2,2.5-6.9,3.3-7.9,3.7-2.4,3.7-2.4l-4.3,5c0,.9,2.7-.8,2.7-.8l-2.1,2.7-.4,2.1.5,1.3-1.4,2.8-.7,1.4v2.2c-.1,0,2.5,6.3,2.5,6.3l-.7,5.9-3.3,5.7-3.2,13.6-6.4,5.9-6.3,1.4-4.3,4-4.9,1.4h-7.7Z"/>
  <path class="cls-9" d="M44.3,65.9s2.3-.4,2.4.1.2,3,.6,3.8.7,2.4.7,3.5-.6,4.3-.6,4.3l-1.4-4-.9,4.8-1.9-5.8v5.3l-2-4.5s.9,6.3,1,7.4-.4,3.6-1,4l-.7.4-1.1-1.4-2.2,4.5-1.7-2.9s-.8,4.3-1.5,5.1-1.2-1.4-1.2-1.4c0,0-.5,3.1-1.7,3.8s-2.6,1.5-2.6,1.5l-.4-3.6s-1.7,3-2.4,3.6-2,.7-2,.7l.8-3.3s-4,5-4.5,5.2-6.4,1.6-7.2,2-2.4.6-2.4.6l.9-1.7-4.4.5v-1.9s.9-2.4,3.5-4.2,5.9-3.6,5.9-3.6l-1.6,5.1s3-3.2,3.9-4,6.8-6.1,7.3-6.5,1.7-1.5,1.7-1.5c0,0-2.9,5.4-2.9,6.5s.9.2.9.2c0,0,6.6-9.2,6.6-10.1s.4-2.2.4-2.2c0,0,1.7,2.2,2,3s.5,1.4.5,1.4c0,0,.6-5.1.5-5.7s.4-4,.7-5.1,1.2-2.2,1.7-2.6,1.6-2.1,1.6-2.1l-1.2,3.6,3-4.6-1.4,4s2.6-3.3,3-4.2,1.2-3.7,1.2-3.7c-.7-.6-.9-1.8-1-2s-.7-1.1-.7-1.1l.3-1.2-1.1-.4.2-1.5-1.3-.3v-1c0,0-.7,0-.7,0l2-1.6.4,1.2,1.7.3s0,2-.1,2.5,1.8.5,1.8.5l-1.3,2.7s1.6-.4,1.7.1-.4,2.1-.4,2.1c0,0,1.4.3,1.7.7s-.3,1.3-.3,1.3l-2.9,3.3Z"/>
  <path class="cls-7" d="M148.2,0c-1.2-.2-5.1,3-5.9,3.2s-3.5,2.2-4.2,2.1.8-.9.8-.9c0,0-2.6,1-3.4,1.2s-1-1.1-1-1.1c0,0-.5,1.1-1.2,1.5s-1.5-1.6-1.5-1.6c0,0-.3.6-.5.7s-.7.4-1.2,0-5.8-4.5-6.9-4.8c-1.9-.6-2.1.6-2.1.6l-.8,1.8v1.4c-.1,0,1.2-3,2.3-2.9s3.6,2.1,4.3,3.4,1.5,2.4,1.6,3.3,0,2.3,0,2.3c0,0,.8-.7.8-1s-.5-4.3.2-2.6,1.1,3.8,1.1,3.8c0,0,1-3.2,1.7-2.9s1.6,1.7,2.2,2,2.4,1.2,3.1,1.5,2.1.5,2.8.5,1.3-.1,1.3-.1c0,0,2.7-4.6,1.7-3.9s-2.3,2-2.3,2l-1.3-1.4,1.3-1.4v1.7s3.6-5.5,4.3-6.1,1.9-1.4,2.4-1.3,1,.5,1.1.9l.3,2.4s.2-3.1,0-3.4-.9-.7-.9-.7Z"/>
  <path class="cls-14" d="M37.1,82.2s-.9-2.9-.7-4.6,1.4-4.8,1.4-4.8c0,0,0,5.1,0,6.2s-.8,3.2-.8,3.2Z"/>
  <path class="cls-14" d="M29.7,87.7s-.5-2.3,0-3,1.3-1.7,1.3-1.7c0,0,.1,2.2,0,2.8s-1.3,1.9-1.3,1.9Z"/>
  <path class="cls-14" d="M18.6,94.9s.7-4.8,1.6-5.4,3-1.7,3-1.7c0,0-.9,3.5-1.2,4s-3.5,3.2-3.5,3.2Z"/>
  <path class="cls-2" d="M14.4,87.7s3.2-1.4,4.2-2.3,3.5-1.6,3.5-1.6c0,0-2,2.3-2.6,2.7s-3.3.9-5.1,1.2Z"/>
  <path class="cls-12" d="M35,65.8s1.7-3,2.1-3.5,1.7-2.4,1.7-2.4c0,0,.6,2.2,0,3s-3.8,3-3.8,3Z"/>
  <path class="cls-15" d="M120.9,3.3s1.3-.9,1.4-.3,0,1.7,0,1.7c0,0,1.2-.6,1,0s-.6,1.3-.6,1.3h1.6s-1.6.5-1,1.3,1.5,1.5,1.5,1.5c0,0-1.2,0-1,.3s2.5,3.1,2.5,3.1l-1.8-.8-.2,1.6s-1.5-.6-1.3-.6,1-.6-.3-2.6-1.8-3.6-1.5-4.1-.4-2.5-.4-2.5Z"/>
  <path class="cls-7" d="M136,20.5s3.4,1.1,3.8,1.3,1.8,1.8,2,2.1,1.6,2.8,1.6,2.8c0,0-1.6-.3-2.3-.3s-2.2-.2-2.3-.2.9-.9.3-1.6-2.9-2.4-2.9-2.4c0,0-2.4,2.5-3.3,3.2s-1.9,2.8-1.9,2.8l-1.2.6-1.2-.9s.2-1.5-.6-2.2-2.2-1.1-2.2-1.1l1.6-1.6-2.5-.7,3.3-2.2h-5.1l1.4-2.4,4.5-3.4.4-1.6s1.5-.8,2.3-.6.7-1.1.7-1.1c0,0,.4,1.6,1.1,1.7s1.9-.3,1.9-.3c0,0,.2,2,.9,2s1-.4,1-.4c0,0-2.1,6.1-1.5,6.3Z"/>
  <path class="cls-15" d="M135.3,22.6c0-.5-.4-1-.6-1s-1.3-1.3-2-1.4-3.4.8-3.4.8c0,0-1.4.1-.9.3s2.5,1.7,2.7,1.7,2.2-.2,2.2-.2h2Z"/>
  <path class="cls-3" d="M129.3,21s1.1-.9,2.7-1,2.5,2.4,2.5,2.4c0,0-1.2-.1-1.7,0s-1.5.2-1.8,0-1.7-1.4-1.7-1.4Z"/>
  <path class="cls-1" d="M130.3,20.8s.7-.3.9-.2.4,1.4.4,1.4c0,0,.3.1.5-.3s.4-.9.6-1,.5.1.6.6-.3,1.1-.3,1.1c0,0-.9.3-1.2.1s-1.6-.5-1.4-1.7Z"/>
  <path class="cls-15" d="M141,21.6s1.2-1.8,2.6-1.7,2.2.5,2.2.9-1.9,2.1-2.6,2-2.7-.5-2.2-1.1Z"/>
  <path class="cls-3" d="M141.3,22s.6-1.2,1.2-1.5,1-.3,1.4-.2,1.5,1,1.5,1c0,0-.5.6-1,.9s-1,.5-1.2.5-1.9-.7-1.9-.7Z"/>
  <path class="cls-1" d="M142.7,20.5s-.3.5-.2.9.4.9.7.9.5-.1.6-.3.3-.4.3-.8-.7-1-.7-1l-.7.3Z"/>
  <path class="cls-3" d="M142.8,20.3s.5,1.2.5,1.2.3-.4.3-1l-.2-.2h-.6Z"/>
  <path class="cls-3" d="M140.2,29.4c0,0,.2-1.4,1-1.7s2.2-.1,2.6.1,1,1.2.9,2-.8.9-1.1,1-1,.6-1,.6c0,0-.1,0-.4-.2s-2-.7-2.1-1.7Z"/>
  <path class="cls-15" d="M141.4,28.4s.2-.2.6-.2,1-.2.8.1-.5.4-.7.6-.7-.5-.7-.5Z"/>
  <path class="cls-3" d="M140.4,32.5s.3-.1.8-.1,1,0,1.3,0,1,0,.8,0-.6.4-.9.5-.8,0-1.1,0-1-.5-1-.5Z"/>
  <path class="cls-3" d="M138.2,29.1s-5.8-1.2-11.9-.9-6.4.7-6.2.7,6.7-.3,7.8-.4,3.7,0,4.3.1,5,.6,5,.6c0,0,1,.1,1-.1Z"/>
  <path class="cls-3" d="M136.7,29.6s-6.1-1-9.6-.5-5.9,1.7-5.5,1.7,4.9-1.3,6-1.4,3.6,0,4.1,0,4.4.3,4.4.3c0,0,.6.1.5-.1Z"/>
  <path class="cls-3" d="M137.4,30.4s-5.8-.2-7.5.2-3.1.8-3,.9,3.6-.8,5.2-.9,4.1,0,4.1,0c0,0,1.4,0,1.1-.3Z"/>
  <path class="cls-3" d="M133.5,29.9s-4.8-.3-6.8.2-3,1-2.6,1.1,2.6-.8,3.7-.9,3.2-.2,3.2-.2c0,0,2.7.2,2.5-.2Z"/>
  <path class="cls-3" d="M144.9,27.8s.9-.4,2.3-.7,2.9-.3,3.1-.2c.4,0,.5.1.1.2s-1.5,0-2.9.2-2.5.7-2.5.7v-.3Z"/>
  <path class="cls-3" d="M145.3,28.7s1.2-.5,2.4-.5,1.5.2,1.8.2c.9.1.8.4.6.3s-1.2-.2-2.4-.2-2.5.4-2.5.4v-.2Z"/>
  <path class="cls-3" d="M145.3,29.5s2.5,1.4,2.6,1.7,0,.5-.2.3-2.5-1.6-2.5-1.6v-.4Z"/>
  <path class="cls-15" d="M147.1,5.4s.9-1.2.7-1.6.9,1,.5,2-.5,2.2-.5,2.6-1.1,2-1.2,2.4,0,1.1,0,1.4-.8.6-.6.8.8,1.1.8,1.1c0,0-1.9-1.2-2-1.3s1.2-1.1,1.2-1.1l-.9-1.3,1.2-1-1.2-.4,1.5-1.5s-1.1-.3-.3-1.2l.9-.8Z"/>
  <path class="cls-8" d="M107.3,102.8s.6.2,1,1.1,0,1.4,0,1.4l-1-.5v-2Z"/>
  <path class="cls-11" d="M67.9,100.2s.8,0,1,.2.4,1,.4,1h-.7c0,0-.7-1.2-.7-1.2Z"/>
  <path class="cls-11" d="M62.7,99.5s1.3,1.4,1.7,1.6.6.7.6.7h-1.3c0,.1-1.6-2.4-1-2.2Z"/>
  <path class="cls-14" d="M48.8,31.2l-3.7.8s12.2-6,16.1-6.6,12.3-.9,14.1-1,16.8-.6,19.6-.6,11.1-.5,11.1-.5l-.7-1.2s3.6-.6,5.3-2,6.4-5.1,7.1-6.2.5-5.6,1.4-7.9c.9-2.3,1.7-4.1,1.7-4.1,0,0,.1.9,0,1.7s-.2,4.6,0,5.6,1.5,3.2,1.7,4-1.2,2.5.8,2.3,3.4-1.8,3.4-1.8v-1.2s4,.6,4.3.9.9,1.2,1,1.4-1.4,1.2-1.4,1.2l.6.9h-3.2c0,0,1.5,1.1.9,1.4s-4,1.4-4,1.4l2.3.4s-4.1,1.4-5.2,2.7,1.7.8,1.7.8c0,0-2.7,1.3-2.7,1.8s1.9.9,1.9.9c0,0-2.6.5-2.5,2s.9,7.7.9,7.7c0,0-1.2-.4-1.3-1.5s-.7-5.4-.7-5.4l-1.4,6.9s-1.4-2.3-1.2-4,0-2.6,0-2.6l-2.6,5.3-1.2-3.3s-3.7,5.3-4.7,5.5-4.6-1.7-4.6-1.7c0,0-2,4.5-1.9,5.3s.8,4,.8,4l-1,3.1-1.2-1.4-2.5.4.5-1.7-.6-.6.6-1.9-1.7.7,2-4-6.1,3.8,2.7-5.9-4.8,2.4,4.5-5.9-6.6,2.1,5.8-5-8.6,2.5,5.3-3.3-3.3-1.6,5.2-2.7s-3.8.3-5.1.9-6.5,3.5-6.9,3.5-9.9.4-10.8.7-3.2,3.4-3.8,3.8-2.3,1.2-4,1.2-4.2.9-4.2.9l-2.1,2.3s3.5-1,5.3-.4-4.4,3-4.4,3c0,0,4.6.9,4.4,1.7s-5.6,2.5-5.8,2.4,6-1.1,5.8-.2-4.6,1.5-5.9,3.5-3.6,4.9-3.7,5.1,8.1-4.7,8.6-4.4-4.1,6.9-4.1,6.9c0,0,4.6-5.1,5.1-4.1s-6.3,9.7-6.3,9.7c0,0,5.1-5.7,6-6.1s2-1.1,2-1.1l-1.7,6.1,4.6-4.8-2.2,5.3c0,.9-.8,3.2-1.3,3.8s-7.4,11.6-7.4,12.2.2,2.2,0,3.2-2.3,6.1-2.1,7.9,2.7,10.6,3,11.1,1.4.6,1.4.6l.9-.6s2,.8,2.7,1.6,1.8,2.5,1.9,3-.4,1.4-.7,1.3-1.4.2-2.7,0-2.3-.1-3.5-.4-3.6-.3-4.4-3.3-2.4-8.9-1.9-10.4.3-5.6,0-5.9-.9,1.5-1.1,2.1.9-5.4,2.3-7.4,2.2-5.1,2.2-6,.4-6.3-.1-5-1.7,3.7-1.7,3.7c0,0-1.5-.3-1.5-.9s0-1,0-1c0,0-.8.6-1.2.4s1.4-4.3,1.4-4.3l-2.5.7,1.1-2-1.1-.2,1-1.7s2.7-7,2.2-6.9-2.7,1.6-2.7,1.6c0,0,3.2-4.1,2.5-4.8s-2.9.5-2.5,0c.9-1,7.2-6.9,7.2-6.9,0,0-4.4,2.4-4.4,1.1s4.6-4.5,4.5-4.8c0-1.3-.3-2.3-.9-1.9-1.3,1-5.1,1.7-5.1,1.7,0,0,6.5-5.8,7.7-6.8s7.6-6.2,7-6.6-8.1,2.2-8.5,2,2.7-2.1,2.3-2.3-.4-.2-.6-.3c-.8-.3-1.3-.6-1.3-.6l-6.7,3Z"/>
  <polygon class="cls-4" points="75.8 44.9 78.5 42.9 75.8 46.2 83 41.2 76.4 53.1 81.6 47.6 79.4 53.1 85.8 44.9 83.9 50.4 90.5 41.5 91.8 39.4 86.9 41.8 88.9 38.7 83.8 42.8 87.3 36.1 81.5 39 86.3 33.9 81.1 36 85.7 31.6 72.5 37.4 77.8 36.9 71.7 40.6 78.8 39.5 75.8 44.9"/>
  <path class="cls-3" d="M146.1,29.5s2-.1,2.8,0,1.3.5,1.3.5c0,0,0,.1-.5,0s-.7-.3-1-.2-2.1,0-2.1,0l-.5-.2Z"/>
  <path class="cls-15" d="M105.1,69.8l2.7-2.7,1.6.8s-1.7-3.3-.9-3.6,1.8,1.9,1.8,1.9c0,0,1.2-2.9,2-1.9s1.2,4.5.9,6.4-1.6,8.2-1.6,8.2c0,0-1.6-11.1-1.8-6.5s-.6,9.8-.6,9.8c0,0,1.3,1.8,1.5,2.9s-.3,4.6-.3,4.6c0,0,2.4.8,2.2,1.9s.6,6.3.6,6.3l-4.1-3.3s.4-6.2,0-8.5-1.6-4.7-1.6-5.5-2.5-10.7-2.5-10.7Z"/>
  <path class="cls-11" d="M61.1,103.6c.3,0,1.2,1.3,1.2,1.3,0,0,0,.4-.4.4s-.8-1.6-.8-1.6Z"/>
  <path class="cls-11" d="M56.9,103.6s.8.2.9.5.2,1.4,0,1.2-.6-.5-.6-.5l-.3-1.2Z"/>
  <path class="cls-6" d="M97.3,29.4s8.4-5.8,7.4-4-3.1,3.6-3.1,3.6l7-5.2s-3.3,3.7-3.4,4.3,4.1-1.2,4.1-1.2l-8.1,6.1c.5-1.1,0-2.2,0-2.2l-4.4,1.7s3.2-2.7,3.5-2.9-2.7-.1-2.7-.1Z"/>
  <path class="cls-6" d="M71.7,26.1l-6.7,2.1s5-1.5,4.6-.6-4.1,2.7-4.1,2.7c0,0,8.7-4.2,8.3-3s-.8,1.9-.8,1.9l8.3-3.1s-2.4.4-3.7.5-1.1-.9-1.1-.9l-4.7.5Z"/>
  <path class="cls-9" d="M116.5,17.2s-3.5,5.1-4.7,5.5-1.5,1.1-1.5,1.1c0,0,6.9-5.4,5.8-3.9s-3.5,5.5-3.5,5.5c0,0,4.8-3.5,4.7-2.9s-.4,4.6-.4,4.6c0,0,.8-5.5,1.5-4.4s1.2,1.2,1.2,1.2c0,0-.4-4.2,0-4.5s2.4-2.6,2.4-2.6c0,0-3,3.2-3.7,2.2s.8-3,.8-3l-2.6,1.3Z"/>
</svg>