<?xml version="1.0" encoding="UTF-8"?><svg id="Various" xmlns="http://www.w3.org/2000/svg" xmlns:xlink="http://www.w3.org/1999/xlink" viewBox="0 0 82.03 82.03"><defs><style>.cls-1{fill:#fff;}.cls-2{filter:url(#drop-shadow-2);}.cls-3{filter:url(#drop-shadow-3);}.cls-4{filter:url(#drop-shadow-1);}</style><filter id="drop-shadow-1" filterUnits="userSpaceOnUse"><feOffset dx="1" dy="1"/><feGaussianBlur result="blur" stdDeviation="3"/><feFlood flood-color="#000" flood-opacity=".15"/><feComposite in2="blur" operator="in"/><feComposite in="SourceGraphic"/></filter><filter id="drop-shadow-2" filterUnits="userSpaceOnUse"><feOffset dx="1" dy="1"/><feGaussianBlur result="blur-2" stdDeviation="3"/><feFlood flood-color="#000" flood-opacity=".15"/><feComposite in2="blur-2" operator="in"/><feComposite in="SourceGraphic"/></filter><filter id="drop-shadow-3" filterUnits="userSpaceOnUse"><feOffset dx="1" dy="1"/><feGaussianBlur result="blur-3" stdDeviation="3"/><feFlood flood-color="#000" flood-opacity=".15"/><feComposite in2="blur-3" operator="in"/><feComposite in="SourceGraphic"/></filter></defs><g id="ic_animals"><g class="cls-4"><path class="cls-1" d="M51.63,45.36c1.58-7.97,1.73-14.34,1.73-14.34-.54-6.02,0-8.24-.03-11.39-.89-8-3.15-12.61-3.23-12.72-.62-.8-2.57-1.62-2.67-2.03s-2.98-.35-2.98-.35c0,0-2.56,1.69-2.81,1.99s-.61,1.63-.61,1.63c0,0-1.13,.84-1.73,2.23s-.12,5.66-1.47,6.27-1.24,1.91-1.23,2.02,.06,1.07,.06,1.07c-1.26,.25-2.99-.6-6.25-.68-3.08-.12-6.57,2.04-8.38,6.63-2.41,6.12,4.31,17.07,4.1,19.58s1.74,10.7,1.74,10.7c0,0,.02,.35,.05,.89,0,0,.64-.38,.63-.84,0-.34,.12-.58,.19-.69,.02-.04,.07,0,.07,0,0,0,.17,.23,.23,.37s.12,.54,.2,.61,.29,.5,.29,.5c-.13-2.16-.52-9.11,.04-10.01,.67-1.08,2.2-4.71,2.2-4.71,2.77,2.3,7.78,1.84,7.78,1.84,0,0,.41,2.66,.97,4.92l3.11-1.9c.02-1.26,.02-1.94,.02-1.94,1.38-1.69,1.54-3.23,1.89-3.23,.16,0,.55,.07,.95,.08,.52,.01,1.04-.03,1.04-.03,0,0-.06,1.78-.08,4.04,0,0,.83-.35,1.75-.39l2.44-.13Z"/><path class="cls-1" d="M29.51,56.9c.03,.4,.04,.64,.04,.64,0,0,.41,2.71,.31,3.58-.01,.12,0,.29,.04,.44,0,0-.5,.02-1,.01s-1.14-.14-1.14-.14c.23-1.28,.19-3.33,.15-4.5,0,0,.5-.34,.6-.52,.06-.11,.11-.48,.16-.72,.04-.17,.1-.24,.1-.24,0,0,.11,.11,.19,.29,.09,.21,.15,.49,.18,.57,.02,.06,.1,.11,.16,.21,.11,.16,.21,.37,.21,.37Z"/><path class="cls-1" d="M29.97,61.77c.21,.53,.99,2.34-.58,2.38s-2.96,.62-1.77-2.22c.03-.1,.06-.2,.09-.31,0,0,.26,.1,1.15,.14s1.1,0,1.1,0Z"/><path class="cls-1" d="M33.36,55.53c-.1-.11-.19-.18-.23-.27-.09-.22-.17-.54-.2-.65s-.11-.12-.15-.06c-.11,.18-.31,.57-.31,.9,0,.44-.78,.89-.78,.89-.11-2.23-.22-5.71,0-8.05-.05-.31-.91-1.42-.92-2.9,.22-.36,1.1-2.64,1.1-2.64,0,0,1.24,1.14,4.07,1.34,0,0-.56,1.21-1.88,4.13-.43,.96-.14,3.33-.17,5.65,0,.12,0,.25,0,.37,0,.14-.53,1.29-.53,1.29Z"/><path class="cls-1" d="M31.9,59.6c-.02-.56-.08-1.01-.08-1.01,0,0-.06-.87-.13-2.16,0,0,.68-.38,.8-.66s.06-.4,.15-.71c.07-.26,.2-.39,.2-.39,0,0,.1,.44,.19,.64,.03,.07,.14,.15,.26,.27,.03,.03-.58,2.15-1.02,3.67-.32,.29-.36,.72-.37,.34"/><path class="cls-1" d="M48.32,13.21s.63,2.36-2.08,4.29c-.98,.26-1.84,.61-2.8,1.73,0,0,.17,.46-.53,1.41-.15,.3-.42,.54-.66,.86-.48,.64-1.05,1.37-1.68,1.49,0,0,.87-.19,1.75-.83,.65-.47,1.29-1.23,1.71-2.14,1-2.4,5.02-1.35,4.28-6.8Z"/><path class="cls-1" d="M37.66,16.97c.38-.1,1.43-1.91,3-.61,.89,.61,.68,1.5,1.57,2.8s.68,1.43,0,2.32-1.23,2.05-4.03,1.3c-1.64-.61-1.5-4.1-1.5-4.1,0,0-.07-1.43,.96-1.71Z"/><path class="cls-1" d="M26.29,20.23s-7.99,.55-6.42,12.36c.39,2.95,.65,8.68,.92,10.48,0,0,.7-1.18,.41-4.22,.16,2.1,.29,3-1.13,9.65,0,0,1.11-1.86,1.6-2.99s.8-2.26,.8-2.26c0,0-.24,1.21-.49,1.86s-.66,1.95-.66,1.95c0,0,2.26-2.41,3.39-5.4,1.13-2.99-2.51-7.47-3-10.44-.68-4.13,.89-8.52,4.57-10.99Z"/><path class="cls-1" d="M42.42,12.74c.4-.66,1.75-2.03,1.92-2.48s.47-1.23-.39-1.78c-.48-.31-2.19,.08-2.79,1.96s-1.18,4.53-1.14,4.65c.02,.06,.19,.05,.33,.09s.27,.12,.34,.1c.14-.04,1.4-2,1.73-2.54Z"/><path id="Tracciato_42" class="cls-1" d="M44.73,13.68c-.03-.22-.08-.92,.54-1.31,.52-.32,.89-.4,1.07-.41,.08,0,.12,.03,.12,.07,0,.24-.04,.98-.53,1.3-.33,.22-.71,.36-1.1,.41-.03,0-.08-.02-.09-.06Z"/><circle class="cls-1" cx="45.23" cy="13.21" r=".16"/><path class="cls-1" d="M38.77,10.27s-.03-1.6,1.69-2.66c.79-.48,1.5-2.01,2-2.32s2.06-1.47,4.6-.61c.43,.13,.3,.15,.45,.3,.59,.54,1.19,1.6,1.35,1.97,.19,.46,.61,1.23,.99,1.58s.56,1.23,.56,1.23c0,0-.38-.56-1.13-.93s-1.78-1.52-1.77-1.6,.51,1.18,.76,1.43,.94,2.47-.3,3.59c0,0,.25-1.73-.99-2.62s-1.05-2.29-1.05-2.29c0,0-.7,3.37-3.55,4.07,0,0,1.8-1.87,2.29-4.09,0,0-2.28,1.62-3.27,3.6s-2.63,2.18-3.15,2.16,.57,.27,1.16-2.27c.16-.79,.29-1.41,.56-1.81,0,0-.41,.18-1.2,1.29Z"/><path class="cls-1" d="M50.64,7.6c.81,1.55,1.61,3.38,1.59,4.35s.86,3.27,.87,4.38,.39,2.45,.84,2.87c0,0-.51-.1-.7-.52,0,0,.34,3.05,.1,5.29-.09,1.19,.33,2.93,.33,2.93,0,0,.39,2.15-.26,4.43-.65,2.28,.38,3.18,.38,3.18,0,0-2.39-2.78-2.13-7.62,0,0-.65,.5-.86,1.89s0-4.62,.77-6.69c0,0-1.28,2.88-2.09,3.64,0,0,.99-3.21,1.39-5.37,0,0-.65,1.83-1.59,2.96s-1.1,3.24-1.1,3.24c0,0-1.07-6.34,1.36-13.15,.54-.65,.58-2.68,.59-1.97s-.96,2.29-.96,2.29c.25-1.58-.29-2.45-.6-3.2-1.34-3.26-1.29-5.8-1.29-5.8,0,0,2.55,1.31,3.36,2.86Z"/><path class="cls-1" d="M39.43,43.7s-5.07,.29-7.56-1.87c0,0,1.95-3.21,1.87-8.74,0,0,1.19,4.79,.17,7.6,0,0,.76,.15,1.45,.46,.97,.46,2.01,1.12,3.1,1.16,.07-.22,.03-2.17,.43-2.86,0,0,.09,1.83,.2,2.65s.34,1.6,.34,1.6Z"/><path class="cls-1" d="M41.61,22.59s.6-.27,1.14-.78c0,0,.22,4.36,1.32,9.11s-2.61-6.8-2.46-8.33Z"/><path class="cls-1" d="M45.46,41.54s.61-4.71,.34-7.85c0,0,.86,2.2,.57,5.89,0,0,.31-.27,.6-.23,0,0-.1,.83,.47,2.22,0,0-.63,.25-1.97-.02Z"/><path class="cls-1" d="M41.61,6.03s-2.01-2.98,0-5.39c.22-.27,.51-.69,.71,.16s.07,.67,.53,1.49,.67,2.25,.67,2.25c0,0-.55,.17-1.08,.55-.32,.23-.64,.54-.83,.94Z"/><path class="cls-1" d="M47.29,4.81s-.16-1.3,.7-2.16c.47-.45,.53-1.48,.53-1.48,0,0,.1-.84,.68-.01s.94,2.57,.77,3.67-1.08,1.51-1.08,1.51c0,0-.44-.02-.8-.36s-.22-.64-.38-.82c-.22-.24-.41-.36-.41-.36Z"/><path class="cls-1" d="M47.54,4.71s.04-.77,.69-1.11,.79-1.72,.79-1.72c0,0,.49,1.08,.11,2.51,0,0,.25-.41,.24-.57s.09,1.9-.54,2.27c0,0-.72,.02-.83-.87-.03-.21-.45-.5-.45-.5Z"/><path class="cls-1" d="M41.86,5.62s-.32-.48-.13-1.07-.21-1.62-.21-1.62c0,0-.03-.96,.37-1.46,0,0-.19,.58,.13,1.17s1.14,1.01,1.2,1.62c.01,.16-.2,.49-.2,.49-.64,.3-1.15,.87-1.15,.87Z"/></g><g class="cls-2"><path class="cls-1" d="M74.35,69s-.21,.47,.06,.7c2.04,1.73,.68,4.06,.68,4.06l.14,5.11s-1.22,.66-1.22,.95-.16,.8-.35,1.11-2.12,.12-2.33,.1,.12-.29,.12-.29l-.82-.02s-.25-.08-.16-.49,2.06-1.75,2.37-2.18,0-2.8-.12-3.36-2-5.54-2-5.54l3.63-.14Z"/><path class="cls-1" d="M74.35,69.05s1.4,0,1.46-2.41-1.15-2.97,.33-6.49c.55-.99-.27-3.02-.27-3.02,0,0,.82,.44,1.48-.33s1.65-7.31-3.08-9.23c-4.73-1.92-8.52-1.68-16.16-2.12-7.64-.44-12.17,1.26-13.93,2.31s-5.99,3.38-8.27,4.45-2.77,7.5-3.38,7.77-.6,.93-1.26,3.41-1.1,4.18,1.7,3.96c0,0,.91,3.32,1.87,4.59s1.13,2.75,1.13,2.75c0,0,1.26,.82,2.06,0l.69-.05s.6-.27,.66-.71,.71-4.59,1.37-4.95c0,0,.34-.58,1.8-1.53,.96-.88,.97-1.57,1.68-1.57,0,0-.3,2.12,1.35,3.05l.08,.52,2.41,1.63s1.13,.35,2.12-.33l3.38-1.67s2.25-.95,3.46-4.08c0,0,3.42-.23,4.62,.08,0,0,.78,2.18,3.05,3.13,0,0-.19,1.57,.31,1.88l3.17-.06c0-.27,.78-.72,.87-.91,0,0,1.17,.08,1.67,.08l3.63-.14Z"/><path class="cls-1" d="M68.19,70.28c0,1.38-1.48,3.57-2,4.33s-.49,2.31-.45,2.95-.6,.6-1.01,.72-.27,1.26-.27,1.26c0,0-1.01,.8-2.08,.89s-.52-.27-.52-.27c-.76,.02-.82-.21-.82-.21,.33-1.71,2.35-2.76,2.35-2.76,0,0,2.01-6.19,1.66-6.81,0-.02,.02-.04,.02-.04l3.12-.06Z"/><path class="cls-1" d="M53.56,69.07c-.33,.82-.37,3.34-.18,3.87s.06,1.59-.23,2.35c-.29,.76-.12,2.18,.39,2.97,.52,.78-.43,.82-.63,.8s-.4,.12-.21,.29c.19,.16,.29,1.05,.14,1.36-.14,.31-2,.7-2.21,.64-.21-.06-.19-.49-.19-.49,0,0-1.26,.62-1.07-.16,.19-.78,1.09-1.57,1.55-2.35,.45-.78-.1-2.91-.1-2.91,0,0-.95-.99-.64-2.62s0-2.08,0-2.08l3.38-1.67Z"/><path class="cls-1" d="M48.08,71.5c.23,1.63-.21,2.51-.21,2.51,0,0-.64,1.22,.14,2.12s.45,.87,.29,1.09-.08,.52-.08,.52c.37-.04,.97,.23,1.22,.66s-.49,1.94-.64,2.18-.35-.08-.35-.08c0,.19-.78,.78-.78,.78-.8-.93-1.01-3.83-1.24-4.7s-1.15-1.88-1.34-3.45c-.13-1.07,.39-2.5,.58-3.27l2.41,1.63Z"/><path class="cls-1" d="M35.77,66.52h-1s-.3,.33-.72,.54-.86,.28-.86,.28c0,0,.56,2.82,1.48,4.02,.83,1.09,1.27,2.19,1.36,2.72,.03,.17,.11,.53,.11,.53,0,0,.62,.33,1.09,.25,.69-.12,.74-.34,.74-.34l.75-.05s.33-.15,.44-.48c.31-.84,.51-4.22,1.42-5.08,0,0-.76-.07-1.16-.23-.54,.27-1.2,1.95-1.2,1.95,0,0-.5,.3-.73,0s.27-1.22-1.07-1.91-.65-2.19-.65-2.19Z"/><path class="cls-1" d="M36.25,66.31c.37-.86,.46-2.64,1.17-2.59s2.09,2.35,2.09,2.35c0,0,.69,1.03-.27,2.28-.85,1.11-1.13,2-1.13,2,0,0-.18,.09-.23,.1-.25,.03-.21-.26-.22-.48-.02-.38,.16-.57-.55-1.15-.27-.22-.66-.38-.86-.6s-.66-.83,0-1.92Z"/><path class="cls-1" d="M68.97,68.78s-1.34-1.33-1.2-2.95c0,0,.16-1.24-.6-1.29-1.34-.09-3.59-.31-5.17,.43-.22,.11,1.09,2.35,2.98,3.07,0,0-.17,1.25,.17,1.82l2.84-.07s.06-.27,.21-.38,.3-.2,.77-.64Z"/><path class="cls-1" d="M57.1,64.53s-.72-3-2.2-3.57c0,0,2.83,.8,4.97,.69s1.94-1.54,4.3-.93c.12,1.93,1.29,2.38,3.24,3.63,0,0-3.23-.71-5.61,.38-1.04-.29-4.71-.19-4.71-.19Z"/><path class="cls-1" d="M44.49,65.76s.78-.02,.97-.12,.82-.33,1.11,.29,.84,1.77,1.46,2.27,.71,1.79,1.78,2.3c0,0-.89,.52-1.49,.27s-2.31-1.43-2.31-1.43l-.1-.51s-1.79-1.03-1.42-3.07Z"/><path class="cls-1" d="M35.41,68.49s.36,.61,.42,.72,.25,.66-.09,.88-.76,.1-.84-.02-.3-.45-.08-.78,.58-.8,.58-.8Z"/><path class="cls-1" d="M35.25,69.17s-.22,.26-.19,.43,.19,.27,.19,.27c0,0,.12-.31,.16-.35s-.16-.35-.16-.35Z"/><path class="cls-1" d="M41.29,56.44c.3,.04,3.5,4.28,3,6.57,0,0,.44-1-.15-2.94-.59-1.93-1.87-3.46-2.25-3.72s-.76-.15-.74-.12c.06,.06,.15,.21,.15,.21Z"/><path class="cls-1" d="M75.81,57.13c-.28-.12-2.32-5.02-1.25-7.11,0,0-.68,.86-.59,2.88,.09,2.02,.94,3.82,1.24,4.16s.69,.34,.68,.3c-.04-.08-.09-.24-.09-.24Z"/><path class="cls-1" d="M37.97,74.47l-.02-.84-.02-.86s.07,.43,.1,.85c.03,.35,.04,.7,.03,.82,0,.05-.09,.03-.09,.03Z"/></g><g class="cls-3"><path id="Tracciato_34-2" class="cls-1" d="M16.75,56.86s.95-.31,1-.73-.15-.88,.96-1.47c0,0-.08-1.82,.53-2.57,.41,.18,1.1,.61,1.39,2.21,0,0,.74-2.28,1.43-2.63,0,0,1.69,1.77,.74,3.88,0,0,2.29,1.73,2.13,5.94-.16,4.21-1.5,6.37-1.5,6.37,0,0-.53,1.3-.29,2.76,0,0,1.28-.14,1.56,1.32,0,0,.01,.48-2.17,.33-.96,.29-1.97,.34-2.95,.14,0,0-3.68,1.08-6.87-.39s-5.17-3.89-1.97-8.91c3.11-3.94,3.42-7.15,1.02-7.87s-2.92,1.01-3.35,1.94c0,0-.43,.92-1.43,.6s-.56-1.53-.56-1.53c.14-.31,1.28-3.7,5-3.13,3.71,.57,5.11,3.85,2.86,8.06s-4.1,5.74-2.54,7.73c0,0,.3-5.54,6.45-9.16,0,0-.15-.24,.25-.57,0,0-1.87-.65-1.66-2.34Z"/><path id="Tracciato_36" class="cls-1" d="M17.82,56.34c.01,.09,.01,.26-.08,.73-.05,.24-.15,.46,.02,.91s.92,.88,.78,1.09c0,0-.71-.24-1.19-.78s-.5-1.07-.47-1.33c.36-.11,.69-.33,.94-.62Z"/><path id="Tracciato_44" class="cls-1" d="M17.34,56.8c.03,.2-.1,.58-.4,.6-.03-.13-.04-.27-.03-.4,.15-.04,.3-.11,.43-.2Z"/><path id="Tracciato_37" class="cls-1" d="M18.33,59.74s-.04-.3,.3-.48c0,0,2.99,.77,3.93,1.78s2.02,3.34-.66,7.47c-.29,.43-.8,.36-1.1,.03s-1.51-1.53-1.25-3.94c.27-2.42,.34-3.16-1.23-4.85Z"/><path id="Tracciato_38" class="cls-1" d="M24.41,71.87c-.02,.08-1.11,.28-1.72,.08,0,0,.26-.77-.08-1.05,0,0,.78-.11,1.23,.13s.6,.76,.57,.84Z"/><path id="Tracciato_39" class="cls-1" d="M22.3,72c-.02,.08-1.45,.41-2.51,.12,0,0,1.12-.37,.53-1.42,0,0,.93-.44,1.69,0s.32,1.22,.29,1.3Z"/><path id="Tracciato_40" class="cls-1" d="M21.94,52.39c-.13-.06-.77,1.16-1.04,2.13,0,0,.52,.17,.73,.38,0,0,.65-1.73,.31-2.51Z"/><path id="Tracciato_41" class="cls-1" d="M19.31,52.57c-.11-.01-.34,1.15-.27,1.95,0,0,.57-.22,.88-.18,0,0-.14-1.27-.61-1.76Z"/><path id="Tracciato_42-2" class="cls-1" d="M19.94,55.35s-.16,.51-.65,.52c-.49,.01-.48-.09-.68-.03s.24-.6,.63-.62c.24-.01,.48,.03,.69,.13Z"/><path id="Tracciato_43" class="cls-1" d="M7.03,55.42c-.23,.3-.38,.65-.47,1.02-.13,.6,.04,.93,.45,1.09,.41,.18,.89,.02,1.11-.36,.22-.39,.22-.51,.33-.73,.08-.16,.16-.32,.26-.48-.27-.15-.55-.28-.84-.38-.27-.09-.55-.14-.84-.16Z"/><path id="Tracciato_55" class="cls-1" d="M18.75,55.5c.06,.04,.1,.1,.1,.17,0,.2,0,.17-.09,.16-.08,0-.12-.02-.13-.14,.02-.07,.06-.14,.12-.19Z"/></g></g></svg>