<?xml version="1.0" encoding="UTF-8"?>
<svg id="Livello_1" data-name="Livello 1" xmlns="http://www.w3.org/2000/svg" xmlns:xlink="http://www.w3.org/1999/xlink" version="1.1" viewBox="0 0 327.8 227">
  <defs>
    <style>
      .cls-1 {
        filter: url(#drop-shadow-4);
      }

      .cls-2 {
        filter: url(#drop-shadow-3);
      }

      .cls-3 {
        filter: url(#drop-shadow-5);
      }

      .cls-3, .cls-4, .cls-5, .cls-6 {
        fill: #fff;
        stroke-width: 0px;
      }

      .cls-4 {
        filter: url(#drop-shadow-2);
      }

      .cls-5 {
        filter: url(#drop-shadow-1);
      }
    </style>
    <filter id="drop-shadow-1" filterUnits="userSpaceOnUse">
      <feOffset dx=".7" dy=".7"/>
      <feGaussianBlur result="blur" stdDeviation="5.1"/>
      <feFlood flood-color="#8c8b8b" flood-opacity=".3"/>
      <feComposite in2="blur" operator="in"/>
      <feComposite in="SourceGraphic"/>
    </filter>
    <filter id="drop-shadow-2" filterUnits="userSpaceOnUse">
      <feOffset dx=".8" dy=".8"/>
      <feGaussianBlur result="blur-2" stdDeviation="5.8"/>
      <feFlood flood-color="#8c8b8b" flood-opacity=".3"/>
      <feComposite in2="blur-2" operator="in"/>
      <feComposite in="SourceGraphic"/>
    </filter>
    <filter id="drop-shadow-3" filterUnits="userSpaceOnUse">
      <feOffset dx=".4" dy=".4"/>
      <feGaussianBlur result="blur-3" stdDeviation="2.8"/>
      <feFlood flood-color="#8c8b8b" flood-opacity=".3"/>
      <feComposite in2="blur-3" operator="in"/>
      <feComposite in="SourceGraphic"/>
    </filter>
    <filter id="drop-shadow-4" filterUnits="userSpaceOnUse">
      <feOffset dx=".4" dy=".4"/>
      <feGaussianBlur result="blur-4" stdDeviation="3.2"/>
      <feFlood flood-color="#8c8b8b" flood-opacity=".3"/>
      <feComposite in2="blur-4" operator="in"/>
      <feComposite in="SourceGraphic"/>
    </filter>
    <filter id="drop-shadow-5" filterUnits="userSpaceOnUse">
      <feOffset dx=".6" dy=".6"/>
      <feGaussianBlur result="blur-5" stdDeviation="4.5"/>
      <feFlood flood-color="#8c8b8b" flood-opacity=".3"/>
      <feComposite in2="blur-5" operator="in"/>
      <feComposite in="SourceGraphic"/>
    </filter>
  </defs>
  <path class="cls-5" d="M181.9,121.7c.2,0,.4-.2.6-.2,0,0-31.2,5.2-55.2-7.4-3.4-1.8-6.7-4-9.7-6.6,0,0,0,0,0,0h0s6.1-1.4,6.4-2.6c.1-.4.7-.6,1.4-.6,1.3,0,2.9.7,3.7,1.7h.1c.2.2.3.3.4.2,1,.2.4-6.6-4.6-7.7,0,0-1.7-2.8-6.8-2.7-5.1,0-10.9-2.2-10.9-2.2-.5-.5-1.1-.6-1.7-.6-3.6.1-7.3-1.4-9.7-4.1-3.7-4-29.6-34.6-37.4-42s-10.4-21.7-10.7-35c0,0,0,0-.1.2,0,0,0-.1,0-.2,0,0-8.4,14.7-4.6,33.7-.3-.3-1.1-1.2-1.8-1.2-.4,0-.8.2-1,1.1-1,4.4,0,13.9,6,23.2-.4-.4-1.3-1.1-2.1-1.1-.6,0-1.2.3-1.3,1.6-.3,2.1,0,7.3,6.8,16.1,6.8,8.7,23.6,16.8,24,17-2-.2-25.5-2.2-33.7-7.9,0,0-.2,0-.3,0-2-.4-9.6,11.5-1.1,24.7,6.6,10.3,15.9,14.6,24.4,15,2.8.1,5.6-.2,8.2-.9,10.2-2.7,10.7-10.9,10.7-11,.3,0,1.1,0,2.1,0,2,0,4.8-.1,6.1-1,.6.4,9.2,6,23.6,8,1.9.3,3.7.5,5.3.6,1.4.1,2.7.2,3.9.3-.3,0-.4.1-.1.2,0,.2,1.3.4,4.5.7,7.1.7,14.1.3,19-.3-.6.2-.8.3-.4.4,0,.1,1.1.2,3.7.1,10.2-.3,20.4-4.3,32.8-9.5,0,0-.3,0-.8.1Z"/>
  <path class="cls-4" d="M320.4,101c0-.4-.3-.6-.6-.6-2-1.5-8.5-4.7-8.5-4.7,0,0-3.2-2.8-3.8-3.3-.6-.5-1.5-3.2-2.3-4.3-.5-.7-4.6-3.6-7.3-5.6v-3.8c-.1,0-.9-5.7-.9-5.7-.8-4.9-4.8,3.8-6.2,7,0,0,0,0,0,0v-.4s-3.7-8.3-3.7-8.3c0,0,0,0,0,0,.6,1,.4.6,0,0,0,0,0-.2-.5-1-1.3-2.1-2.8,1.3-2.8,1.3l-4.7,11.2s0,0,0,0c-.5.5-1,1.1-1.5,1.9-4.4,6.3-13.6,19.9-16.6,22.6-5.8,5.3-16.6,5.3-16.6,5.3l-20.1,2-23.6,2s-10.1,3-13.6,5.8c-1.5,1.2-2.5,2.3-3.3,3.5l-7.5,4.8-4.3,4.8-1,1.5-4.5,3-1.5,1.5-2.3,2s-8.3,7.8-8.5,8.5c-.3.8.5,1.3.5,1.3,0,0-3.3,3-4,3.8-.7.8-6,7.5-6,7.5l-6.3,8.8-3.1,7.9h0s-.7,1.7-.7,1.7l-1,11.8h0c0,.3,0,.9,0,1.5h0s0,.2.1.5c.1.3.4.6.8.7,0,0,0,0,.2,0,0,0,0,0,.1,0,.3,0,5.5-.8,6.2-1.3.8-.5,11.3-2.3,11.3-2.3l8.3-6.5s10.1-10.8,10.3-11.6c.3-.8,4.3-4.5,4.5-5.3.3-.8,2.8-2.3,2.8-3.3s.5-9,.5-9l2.1-7.5.7,2.5s3.2,8.3,3.5,12.1c.3,3-.4,5.5-.6,6.4v-.2c0,0-.1.5-.1.5,0,0-6,4.6-6,7.5s3.8,13.3,3.8,13.3l.5,9.5,1.8,1.5s3.4,3.5,4,3.5h6.3l2.5-.3s.9-3.2-.8-4.5l-.8-.7c-.4-.3-.7-.6-1-.8l-.5-.4c-.1-.1-.2-.2-.3-.2h-.1c0,0-3-1.1-3-1.1l-.4-3.4h0s-1.4-12.2-1.4-12.2l3-2.8,11.3-5.8s.8-.6,1.9-1.4c-.4,1.4-.9,2.6-1.4,2.9-1.4.8-3,1-4.3,2.3-1.3,1.2-1,3.5-1,3.5l4,7.3,2.8,5.3.3,2.5,1.3,1.5.5,3.5,4.3.3h6.5l.5-2s-1.3-2.7-2.5-3l-.7-.2c-.2,0-.3,0-.5-.1h-.4c-.2-.2-.4-.2-.6-.3l-.6-.2-1-1-3.3-7-.8-5,.5-1.8s0,0,0-.1l.2-.8,4.3-3.5,4.8-5.3s3-4.7,3-7.8-.2-6.6-.4-9.1l14,2,13.6.2,7.5-1.8,3.3,2.5.2,1.6h0s2.3,18,2.3,18l1.8,5.2.6,5.7.4,5.8,2.5,9.5,1.9.2h0s7.9.8,7.9.8l1.3-1-2.3-4.3-3.3-.8-1.8-5.8.5-3.3v-1.9c0,0,1.8,6.4,1.8,6.4l3.3,3.3,6.5.3.3-2.5-2.3-2.8-3.3-1.3-1.8-6.5.3-6.3,1-11.6.4-4.4h0s.7-8.4.7-8.4l3.7-4.6s2.5-2,5-6.5c2.5-4.5,8.4-30.4,9.1-31.7.8-1.4,3.1-3.2,4.6-3.9s4-.6,6.5-.6c2,0,6.6.8,7.3.8.7,0,3.7-1.9,4.4-2.9.5-.7.7-1.3.8-1.5,0,0,1.3-1.7,1-3.1ZM319.3,103.9h0s0,0,0,0h0Z"/>
  <g class="cls-2">
    <path class="cls-6" d="M226.6,204.8l2.4-.4c0,.1,0,.3,0,.4,0,0,0,0,0,0,0,0,0,.3.1.5.1.2.2.2.2.3,0,0,0,0,0,0,0,.2.1.3.2.4-.3.4-.6,1-.6,1.5l.7-1.5c0,.1.2.2.5.3-.2.7-.2,1.5-.1,2l.3-2c.1,0,.2,0,.4,0,0,0,0,.1,0,.2,0,.5,0,1,.2,1.5,0,.1,0,.3,0,.5h0c0,.2,0,.2,0,0,0,0,0,0,0-.1l-.2-2.1c.2,0,.3,0,.5,0,.2.5.3.9.5,1.4l-.5-1.4s.1,0,.1,0c0,0,0,0-.1,0,.2,0,.3,0,.5,0l.6,1.3c0-.4-.2-.8-.4-1.3,0,0,0,0,0,0,0,0,0,0,0,0h0s0,0,0,0c0,0,.1,0,.2,0h0c0,0,0,0-.1.1,0,0,0,0,.1,0h0s0,0,0,0c0,0,0,0,0,0h0c0,0,0,.1,0,.1,0,0,0,0,0,0l1.2,2.1c0-.5-.4-1.3-.8-1.9.1,0,.3,0,.4,0,0,0-.1,0-.2.1,0,0,.2,0,.3,0,0,0,0,0,0,0,0,0,.1,0,.2,0h.1c0,.1,0,.2,0,.2,0,0,0,0,0,0l.3.4c-.1,0-.2.1-.3.2.1,0,.2,0,.4,0h0s0,0,0,0c0,0,0,0,.1,0,0,0,.1,0,.2,0,0,0,0,0-.1,0-.2.1-.4.2-.6.3.2,0,.6-.2.9-.2,0,0,0,0,.1,0,0,0,0,0,0,0,0,0,0,0,.1,0,0,0,0,0,0,0,0,0,.1,0,.2,0-.2,0-.4.2-.6.3.3-.2.5-.1.8,0,0,0,0,.1,0,.2,0,0,.1,0,.2,0,0,0,.2.2.2.3,0,0-.1,0-.2,0,0,0,.1,0,.2,0,0,0,0,0,0,0,0,0,0,0,0,0,0,0,0,0,0,0,0,0,0,0,0,.1,0,0-.1,0-.2,0,0,0-.2,0-.3,0,0,0,0,0,.1,0,0,0-.2,0-.3,0,.2,0,.5.2.7.2,0,0-.1,0-.2.1,0,0,0,0,0,0h0s0,0,0,0h-.2c-.4.1-1.4.5-1.6.7-.2,0-.6.2-.6.3-.1.2.3-.2.5,0,0,0,0,.1,0,.2-.3,0-.5.2-.6.4,0,.2.3-.2.5-.2,0,0,0,0,0,.1-.1.1-.2.3-.2.4,0,.2.1-.2.3-.3,0,0,0,0,.2,0,.4,0,.7-.4.8-.4,0,0,0,.1,0,.2-.2-.1-.6.4-.6.6,0,.2.2-.3.4-.3,0,0,0,.1.2.1.5,0,.7-.5,1-.5,0,0,.1,0,.2,0,0,0,0,0,0,0,0,0,.3-.1.4-.2,0,0,.2-.2.3-.3,0,0,.1,0,.2,0,0,0,0,0,0,0,.1,0,0,.1,0,.1,0,0,.2,0,.3,0,0,0,0,0,0,.1,0,0,0,0,.1,0,0,0,0,0,.1,0,0,0,0,0,0,0,0,0,0,0,0,0,0,0,.2,0,.3.1,0,0,0,0,0,0,0,0,0,0,.1,0,0,0,0,0,0,0,0,0,0,.1,0,.2,0,0,.2,0,.3,0,0,0,0,0,0,0,0,0,.2,0,.2,0,0,0,0,0,0,.1.3,0,.4.2.7.2,0,0,0,0,0,0,.1,0,0,.1,0,.1,0,0,.2,0,.3,0,0,0,0,0,0,.1,0,0,.1,0,.2-.1,0,0,0,0,0,0,0,0,.1-.1.1-.2,0,0,0,0,0,0,0,0,.1-.2,0-.2,0,0,0,0,.2,0,0,0,0,.1,0,.2h0c0,0,0,0,0,.1,0,0,0,0,0,0,0,0,0,0,0,0,0,0,0,.1,0,.2,0,0,0-.1,0-.2,0,.1,0,.3,0,.4,0-.1.1-.2.2-.3,0,0,0,.2,0,.3,0,0,.1,0,.2-.1,0,0,.1,0,.2-.1,0,0,0,.1,0,.2.2,0,.4-.1.6-.2,0,0,0,0,0,.1,0,0,0,0,0,0,0,0,0,0-.1,0,0,0,0,0,.1,0,.1,0,.2,0,.3-.1,0,0,0,0,0,0,0,0-.1.1-.1.2.1,0,.3,0,.4,0,0,0,0,0,0,0,.1,0,.3,0,.4,0,0,0,0,0,0,0,0,0,0,0-.1,0,0,0,0,0,.1,0-.1.2-.3.5-.4.6.1-.1.3-.2.4-.4,0,.1-.2.3-.4.5,0,0-.1.1-.2.2,0,0,0,0,.1,0,0,0-.2,0-.2.1.2,0,.5-.1.7-.2,0,0,0,.1-.1.2,0,0,0,0,.1,0,0,0,0,0,0,0,0,0,0,0,0,0,0,0-.1,0-.2,0-.3,0-.8,0-1,0,0,0,0,0,0,0,0,0,0,0-.1,0,0,0,0,0,0,0,0,0,0,0,0,0-1.1,0-2.7,0-3,0-.3,0-.8,0-1.1.2-.2,0-.3,0-.5.2-.2.1,0,0,.2,0,0,0,0,0,0,.1,0,0,0,0,0,0-.1,0-.2.2-.2.3,0,.2,0,0,.2-.1,0,.1,0,.2.1.2,0,0,0,0,0,0,0,0,0,0,0,0,0,0,0,0,0,0,0,0,0,0,0,0,0,0,0,0,0,.1,0,.1,0,0,.2,0,0,0,.2,0,.3,0,0,0,.2,0,.3,0,0,0,0,0,0,0,.3,0,.6,0,.8,0,0,0,0,0,0,0,0,.1,0,0,.1,0,.3,0,.5,0,.7,0,.2,0,.5,0,.8,0,.1,0,.3,0,.5,0,0,0,0,0,0,0,0,0,0,0,0,0,.3,0,.7,0,1,0,.4,0,.7,0,.8,0,.1,0,.2,0,.4,0,0,0,.1,0,.1,0,.3-.1.6-.4.7-.4,0,0,.7-.5.7-.7,0,0,0-.2,0-.3,0,0,0,0,0,0,0,0,0,0,0,0,0,0,0,0,0,0,0,0,0,0,0,0,0,0,0,0,0,0,0,0,0,0,0,0,0,0,0,0,.1,0,0,0,0-.1,0-.2,0,0,0,0,0,0,0,0,0,0,0,0,0,0,.1,0,.2-.1,0,.1-.1.3-.2.4,0,0,.2-.2.2-.2,0,0,0,0,0,.1,0,0,0,0,0,0,0,0,0,0,0,0,0,0,0,.1,0,.2,0,0,0,0,0,0,0,0,0,0,0,0,0,0,0,0,0,0,0,0,0,.1,0,.2,0,0,0-.1,0-.2,0,0,0,0,0,0,0,0,0,0,0,0,0,0,0,0,0,0,0,0,0,0,0,0,0,0,0,0,.1.1,0,0,0-.1,0-.2,0,.1,0,.3,0,.4,0,0,0-.1.2-.2,0,0,0,.2,0,.3,0,0,0-.2,0-.3,0,0,0,0,.1,0,0,0,0,0,0,.1,0,0,.1,0,.2-.1,0,.1,0,.3,0,.4.1,0,.3-.2.4-.2,0,.1,0,.2-.1.3,0,0,.1-.1.2-.2,0,0,0,.2,0,.2,0-.1.2-.2.3-.3,0,0,0,0,0,.1,0,0,.1-.1.2-.2,0,.2,0,.3,0,.5,0-.2.1-.3.2-.4,0,.1,0,.2,0,.4,0,0-.1,0-.2.1,0,0,.1,0,.2-.1,0,0,0,0,0,0,0,0,0,0,0,0,0,0,0,0,0,0,0,.1,0,.2,0,.4,0-.1,0-.3,0-.4,0,0,0,0,0,0,0,0,0,0,0,0,0,0,0,0,0,0,0,0,0,0,0,0,0,0,0,0,0,0,0,0,0,0,0,0,0,0,0,0,0,0,0,0,0,0,0,0,0,0-.1.1-.2.2.2,0,.5-.2.6-.4,0,0,0,.1,0,.2,0,0,0,0,.1,0,0,0,0,0,0,0,0,.1,0,.3,0,.4,0,0,0,0,0,0,0,.1-.1.2-.3.3-.1,0-.3.2-.4.2-.4.2-.9.4-1.4.5-.5.1-1.3,0-1.5,0-.4,0-.9,0-1,.3-.1,0-.3,0-.4.2-.2.2.1,0,.4,0,0,0,0,0,0,0,0,0,0,.1,0,.2,0,0,0,0-.1.1,0,.1,0,0,.2,0,0,0,0,0,0,0,.2.2.5.2.8.2.4.1.8.3,1.4.3.5,0,1.3-.2,1.6-.3,0,0,0,0,0,0,0,0,0,0,0,0,0,0,0,0,0,0,.2,0,.3-.2.5-.3.1,0,.2-.1.3-.2,0,0,0,0,0,0,0,0,0,0,.1,0,.4-.3,1.3-.8,1.5-1,0,0,0,0,0,0,0,0,.1-.1.2-.2,0-.1,0-.2,0-.4,0,0,0-.1,0-.2,0,0,0,0,0-.1,0,0,0,0,0,0,0,0,0-.2,0-.2,0,0,0,0,0,0,0,0,.1,0,.1,0,0,0,0-.1,0-.2,0,0,0,0,0,0,0,0,0-.1,0-.2,0,0,0,0,0,0,0,0,0,0,0,0,0,0,0,0,0,0,0,0,0,0,0,0,.2,0,.3-.1.4-.2,0,0,0,0,0,0,0,0,0,0,0,0,0,0,0,0,0,0,0,0,.1,0,.2,0,0,0-.1,0-.2,0,.1,0,.3,0,.4.1,0,0-.2-.2-.3-.3,0,0,.2,0,.3.1,0-.1,0-.2-.1-.3,0,0,0,0,0,0,0,0,0,0,.1.1,0,0,0-.2,0-.3,0,0,0-.1,0-.2,0,0,0,0,0,0,0,0,0-.1,0-.2,0,0,0,0,0-.1,0,0,0,0,0,.1,0,0,0-.2,0-.3,0,0,0,0,0,0,0-.1.1-.3.2-.4,0,0,0,.1,0,.2,0-.2,0-.5,0-.8.1,0,.3,0,.5,0,.5,0,1.1-.1,1.3-.2,1.3-.2,2.4-.7,2.4-.7.2,0,.4-.1.7-.2.9-.2,1.7-.9,2.1-1.6.4-.8-.1-1.7-.6-2.3-.5-.6-2.3-1.5-2.7-2.2-.4-.7-.6-1.6-.5-2.2s.5-2.1.8-2.6-.5.1-.9.9-.8,2.4-.2,3.6,2,2.3,2.7,3,.8,1.2.6,1.7c-.2.5-1.5,1-3.5,1.3-.4,0-.7.1-1,.1,0,0,0,0,0,0,0,0,0,0-.2,0-.4,0-.7,0-1,0h-.2c0-.1,0-.2,0-.3,0,0,0,0,0,0,0-.1,0-.3,0-.4,0,0,0,0,.1.1,0-.3-.2-.6-.2-.9,0,0,0,0-.1-.1,0,0,0,0,0-.1,0,0,.1,0,.2,0,0-.2-.2-.4-.2-.7,0,0,.2,0,.3.1,0-.2-.2-.4-.3-.6,0,0,0,0,.1,0,0,0,0-.1,0-.2,0,0,0,0,.1.1,0,0,0-.2-.1-.3,0-.4-.3-.7-.5-1.1.2.1.5.3.7.3-.2-.6-.8-1.1-1.4-1.5.3.1.6.2.9.3-.4-.4-.8-.8-1.4-1,0,0,0,0,0,0,.3,0,.7.1,1,0-.4-.4-.9-.5-1.4-.7,0,0,0,0-.1-.1.4,0,.8,0,1.2,0-.4-.3-.9-.6-1.5-.7.2,0,.4,0,.6,0-.3-.1-.7-.1-1-.3.2,0,.4,0,.6,0-.4,0-.7-.2-1.1-.3,0,0,0,0,0,0,0,0,0,0,0,0,0,0,0,0-.1,0-.2-.2-.4-.3-.6-.4,0,0,0,0,0,0,0,0-.1,0-.2,0-1.4-.9-2.6-1-3.1-1.1-.5-.1-1.9.4-2.5.6,0,0,0,0,0,0,0,0,0,0,0,0,0,0-.1,0-.2,0,0,0-.2,0-.5,0,0,0,0,0,0,0,.2-.4,0-.7-.4-.8,0,0,0,0,0,0h0s0,0-.1,0c-.2,0-.9,0-1.5.3,0,0,0,0,0,0-.5-.1-1.1,0-1.5.1,0,0,0-.1,0-.2,0,0,0,0,0,.1,0-.2,0-.3,0-.5,0,0,0,0,0,.1,0-.1,0-.2,0-.3,0,0,0,0,0,0,0,0,0,0,.1,0,0-.1,0-.1,0-.3,0,0,0-.2,0-.2,0,0,0,0,0,0,0,0,0,0,0,0,0,0,0,0,0,0,0,0,0,0,0,0,0,0,0,0,0,0,0,0,0,0,0,0h0c0,0,0,0,0,0,0,0,0,0,0,0,0,0,0,0,0,0h0c0,0,0,0,0,0,0,0,0,.1,0,.2,0,0,0,0,0,0,0,0,0,0,0,.1,0,0,0,0,0,0,0,0,0,.1,0,.2,0,0,0,0-.1,0,0,.2,0,0,0,0,0,0,0,0,0,0,0,0,0,0,0-.1,0,0,0,0,0,0,0,.1,0,.3,0,.2,0,0,0,.2,0,.2,0,0,0,0,0,0,0,0,0,0,0,0,0,0,0,0,0,0,0,0,0,.2,0,.2h0c0,0-.1,0-.1,0,0,.1-.2.2-.2.2,0,.1,0,.3-.2.2.2.2,0,0,0,.3,0,0,0,0-.1,0,0,0,0,0,0,0-.2,0-.5,0-.6.1-.6.1-1.6.7-2.4,1.2-.2.1-.4.3-.6.5,0,0,0,0,0,0,0,0,0,0,0,0,0,0,0,0,0,0,0-.2,0-.3,0-.5,0,.2,0,.4-.1.5,0,0,0,0,0,0-.2,0-.6.4-.8.7-.6-1.2-2.1-2.3-3.3-2.7l3.3,2.8s0,0,0,0c0,0,0,0,0,0h0c0,0,0,.1,0,.1,0,0,0,0,0,0,0,0,0,0,0,0,0,0,0,0,0,0,0,0,0,0,0,0,0,0,0,0,0,0-.3-.4-1.2-.9-1.5-1.1l1.4,1.2s0,0,0,0c0,0,0,0,0,0h0s0,0,0,0c0,0,0,0,0,0h0c0,0-.1,0-.2.1,0,0,.2,0,.2,0h0c0,.1,0,.2-.1.2,0,0-.2-.1-.3-.2,0,0,.1,0,.2,0,0,0-.1,0-.2,0-.2-.1-.5-.3-.7-.3-.7-.3-1.4-.6-2.1-.6l3,1.2s0,0-.1.1c-.8-.5-2.2-.6-3.1-.5l3.1.6c0,0,0,.1-.1.2-.3,0-.9,0-1.1,0-.5,0-1.5,0-1.9.4l2.9-.3s0,0,0,0c-.8,0-1.7.2-2.4.5ZM244,213.5s0,0,0,0c0,0,0,0,.1,0,0,0,0,0,0,0,0,0,0,0,0,0ZM244.1,213.4s0,0,0,0c0,0,0,0,0,0,0,0,0,0,0,0ZM243.4,213s0,0,0,.1c0,0,0,0,0-.1,0,0,0,0,0,0ZM229.9,202.8c0,.1-.1.3-.3.4,0,0,0,0,0-.1.1,0,.2-.2.3-.3ZM249.3,211.7s0,0,0,0c0,0,0,0,0,0,0,0,0,0,0,0ZM245.5,214.5c0-.1,0-.3.2-.4,0,0,0,0,0,0,0,0,0,0,0,0,0,0,0,0,0,0,0,0,0,0,0,0,0,0-.1.2-.1.3,0,0,0,0,0,.1ZM245.4,214.6c0,0,0-.2,0-.3,0,0,0,.2,0,.2,0,0,0,0,0,0ZM243.7,213.7s0,0,0,0c0,0,0,0,0,0,0,0,0,0,0,0ZM236.5,210.5s0,0,0,0c0,0,.1,0,.2,0,0,0,0,0,0,0,0,0-.1,0-.2,0ZM233.9,207.9c0-.1-.1-.2-.2-.3,0,0,.1,0,.2,0,0,0,0,0,0,0,0,0,0,0,0,0,0,0,0,0,0,0,0,0,0,0,0,0,0,0,0,0,0,0,0,0,0,0,0,0,0,0-.1,0-.2.1ZM233.6,207.4s0,0,0,0c0,0,0,0,0,0,0,0,0,0,0,0ZM232.8,207.2s0,0,0,0c0,0,.1,0,.2,0,0,0,0,0,0,0,0,0,0,0,0,0h.1c0,0-.2,0-.2,0,0,0,0,0,0,0ZM232.7,207s0,0,0,0c0,0,0,0,0,0,0,0,0,0,0,0Z"/>
    <path class="cls-6" d="M235,209.3c.1,0,.2,0,.3,0,0,0,0,0,0,0-.1,0-.2,0-.3,0Z"/>
    <path class="cls-6" d="M235,209.4c-.1,0-.3,0-.4-.1.1,0,.3,0,.4.1Z"/>
    <path class="cls-6" d="M240.9,213.4c-.1,0-.3.1-.4.1.1,0,.3,0,.4-.1Z"/>
    <path class="cls-6" d="M241.1,213.2s0,0,0,0c0,0-.2.1-.3.2,0,0,.2-.1.3-.2Z"/>
    <path class="cls-6" d="M248.9,213.7c0,0,.1,0,.2,0,0,0-.1,0-.2,0Z"/>
    <path class="cls-6" d="M239.5,212.2c0,0,0,.1,0,.2,0,0,0-.1,0-.2Z"/>
    <path class="cls-6" d="M243.2,214c0,0,.2-.3.4-.4,0,.2-.2.3-.4.4Z"/>
    <path class="cls-6" d="M244.9,214.5c0,0,0,.1,0,.2,0,0,0-.1,0-.2Z"/>
    <path class="cls-6" d="M245.1,214.4c0,0,0,.2,0,.3,0,0,0-.2,0-.3Z"/>
    <path class="cls-6" d="M244.5,214.8c0,0,.2-.2.3-.3,0,.1-.1.2-.3.3Z"/>
    <path class="cls-6" d="M244.5,214.4c0,0,0,.1-.1.2,0,0,0-.1.1-.2Z"/>
  </g>
  <g class="cls-1">
    <path class="cls-6" d="M167.1,213.3s0,0,0,0l-1.6,2.4s0,0,0,0h0s.5-.6.6-.8c.1-.2,1-1.7,1-1.7h0Z"/>
    <path class="cls-6" d="M166.4,213.3s0,0,0,0l-2,2s0,0,0,0h0c.2-.2.4-.3.5-.4.2-.2,1.6-1.6,1.6-1.6h0Z"/>
    <path class="cls-6" d="M159.4,204.4s0,0,0,0c0,0,0,0,0,0,0,0,0,0,0,0,0,0,0,0,0,0,0,0,0,0,0,0,0,0,0,0,0,0,0,0,0,0,0,0,0,0,0,0,0,0,0,0,0,0,0,0,0,0,0,0,0,.1,0,0,0,0,0,0,0,0,0,0,0,0Z"/>
    <path class="cls-6" d="M164.4,215.3c-.3.2-.5.5-.5.5h0s0,0,0,0l.5-.5s0,0,0,0h0Z"/>
    <path class="cls-6" d="M169,212.4s0,0,0,0c0-.2,0-1.2,0-1.3,0-.2-.2-.7-.3-.9,0-.2-.7-1.4-.7-1.5,0-.2-.5-.6-.5-.6l-.2-.5s0,0,0,0h0s0,.3,0,.3c0,0,0,0,0,0-.1,0-.3-.7-.3-.7,0,0,0,0,0,0,0,0,0,0,0,0,0,0,0,.2,0,.2,0,0,0,0,0,0-.1,0-.6-.6-.6-.6v-.4c0,0,0,0,0,0h0s0,.2,0,.2c0,0,0,0,0,0-.1,0-.4-.6-.4-.6,0,0,0,0,0,0,0,0,0,0,0,0,0,0,0,.3-.2.3-.1,0-.6-.5-.6-.5,0,0,0,0,0,0,0,0,0,0,0,0,0,0,0,.2,0,.2-.1,0-.4-.2-.5-.3,0,0-.5-.2-.5-.2,0,0,0,0,0,0,0,0,0,0,0,0,0,0,.2.2,0,.2,0,0,0,0,0,0-.2,0-.8-.3-.8-.3,0,0,0,0,0,0,0,0,0,0,0,0,0,0,.1.1,0,.1,0,0,0,0,0,0,0,0,0,0-.3,0-.4,0-1.1,0-1.2,0s-.2-.1-.6-.3c-.3-.1-.4-.1-.5-.1,0,0,0,0,0,0s0,0,0,0c-.1,0-.5-.3-.6-.4,0,0-.1,0-.2-.2,0,0,0,0,0,0,0,0,0,0,0,0,0,0,0,0,0,0,0,0,0,0,0,0,0,0,0,0,0,0,0,0,0,0,0,0,0,0,0,0,0,0h0c-.2,0-.9-.7-.9-.7,0,0,0,0,0,0h0s0,0-.1,0c-.3,0-1-.5-1-.5,0,0-.6,0-.8-.2-.2-.1-.3-.2-.3-.2,0,0,0,0,0,0,0,0,0,0,0,0,0,0,0,.2,0,.2,0,0-.8-.2-1-.2,0,0,0,0,0,0,0,0,0,0,0,0-.1,0-.5-.1-.5-.1,0,0,0,0,0,0h0c0,0-.3,0-.6,0,0,0-.1,0-.2,0,0,0,0,0,0,0-.4,0-.9,0-.9,0h0s0,0,0,0c0,0,.2,0,.2.1s-1.4.1-1.4.2c0,0-.2.1-.2.1,0,0,0,0,0,0,0,0,0,0,0,0,0,0,.2-.1.3-.1,0,0,0,0,0,0,0,.2-.4.2-.4.2s-.9,0-.9,0h-.3c0,.1.5.1.4.2s-.6.2-.7.3-.9.2-.9.3,0,.2-.1.2-1.1.4-1.1.4c0,0,0,0,0,0h0s.1,0,.2,0c0,0,0,0,0,0,0,0,0,.2-.1.3s-.9.4-.9.4c0,0,0,0,0,0,0,0,0,0,0,0,0,0,.2,0,.4-.1,0,0,0,0,0,0,0,0-1,.8-1.1,1-.1.2-.3.5-.3.5,0,0,0,0,0,0,0,0,0,0,0,0,0,0,.2-.2.4-.1,0,0,0,0,0,0,0,0-.1.4-.2.5-.1.1-.5.6-.5.6,0,0,0,0,0,0h0s.4-.2.5-.2c0,0,0,0,0,0,0,0,0,.2,0,.3-.1,0-.5.8-.5.8,0,0,0,0,0,0,0,0,0,0,0,0,0,0,.2-.2.3-.2,0,0,0,0,0,0,0,.1,0,.5-.1.6,0,0-.4.6-.4.6,0,0,0,0,0,0,0,0,0,0,0,0,0,0,.4-.5.6-.5,0,0,0,0,0,0,.1.1,0,.3-.2.4s-.5.9-.6,1,0,.2,0,.2c0,0,0,0,0,0,0,0,0,0,0,0,0,0,.4-.4.4-.4,0,0,0,0,0,0,0,.2-.1.4-.2.5s-.4.9-.4.9c0,0,0,0,0,0,0,0,0,0,0,0,0,0,.2-.3.3-.3,0,0,0,0,0,0,0,.2-.3.8-.3.8h0s0,0,0,0c0,0,.3-.2.5-.2,0,0,0,0,0,0,0,0-.5,1-.5,1,0,0,0,0,0,0,0,0,0,0,0,0,0,0,.6-.9.7-.9,0,0,0,0,0,0,0,.4-.3.7-.3.8s-.3.4-.3.4c0,0,0,0,0,0,0,0,0,0,0,0,0,0,.1,0,.2,0,0,0,0,0,0,.2,0,0-1,0-1.8,0,0,0,0,0,0,0-.1,0-.2,0-.3,0-.2,0-.3,0-.4,0-.5,0-2.9-.4-3.9-1.4-1.3-1.2-1.8-1.7-.5-3,0,0,1-.8,2.2-1.2,1.1-.3,1.9-.6,1.8-.7,0-.1-.3-.4-.7-.4,0,0-.1,0-.2,0-.4,0-2.3.3-2.8.6-.6.4-1.9,1.7-2,2.3-.1.6-.2,1.3.3,2.1s1.7,2,2.6,2.3c.9.3,3,.7,3.4.7h2.2c0,0,0,0,0,0h0s0,0,.2,0h.2c0-.1,0-.1.1-.1,0,0,0,0,0,0,0,0,0,0,0,0,0,0,0,0,0,0,0,0,0,0,0,0,0,0,0,0,0,0,0,0,0,0,0,0,0,0,0,0,0,0,0,0,0,0,0,0,0,0,0,0,0,0,0,0,0,0,0,0,0,0,0,0,0,0,0,.2,0,.2-.1.2s0,0,0,0c0,0,.2,0,.5,0,0,0,.1,0,.2,0,.5,0,.5.1.5.1,0,0,0,0,0,0,0,0,0,0,0,0,0,0,.2-.1.3-.1,0,0,0,0,0,0,0,0-.1.3-.1.3,0,0,1,0,1,.2,0,.1.4.3.4.3s.8,0,1,0c0,0,0,0,.1,0,.3,0,1-.1,1-.1,0,0,.1,0,0,.1,0,0-.9.4-.9.4,0,0,0,0,0,0h0s1.3,0,1.7-.2c.2,0,.5-.2.6-.2,0,0,0,0,0,0,0,0,0,0,0,0,0,0,0,0,0,0-.2.2-.7.4-.7.4,0,0,0,0,0,0h0s.9-.1,1.2-.2c.2,0,.4-.2.5-.2,0,0,0,0,0,0,0,.1-.1.2-.1.2,0,0,0,0,0,0h0s.1,0,.4-.1c0,0,.1.2.2.3,0,0,0,0,0,0,0,0,0,0,0,0,0,0,0,0,0,0,0,0,0,0,0,0,0,0,0,0,0,0,0,0,0,0,0,0,0,0,0,0,0,0,0,0,0,0,0,0,.2,0,.5,0,.8,0,.2,0,.3,0,.5,0,.3,0,.7,0,1.2-.1,0,0,.7.1.9.2.1,0,.3,0,.4,0,0,0,0,0,.1,0,.1,0,.4,0,.6,0,0,0,.1,0,.1,0,.1,0,.2.1.2.1h0s0,0,0,0c0,0,0,0,0,0,0,0,.2,0,.2,0,0,0,0,0,0,0,0,0,0,0,0-.1,0,0-.3-.3-.3-.3h0s0,0,0,0h0s0-.3,0-.3c.2,0,.5.2.5.2,0,0,0,0,.1,0,0,0,0,0,.1,0,0,0-.1-.1-.1-.1-.1-.1-.2-.3-.2-.3v-.4s-.2-.5-.5-.5c0,0,0,0-.1,0-.3,0-.8,0-1.2,0-.2,0-.3,0-.4,0,0,0,0,0,0,0,0,0,0,0,0,0,0,0,0,0,0,0,0,0,0,0,0,0,0,0,0,0,0,0,0,0,0,0,0,0,0,0,0,0,0,0,0,0,0,0,0,0,0,0,0,0,0,0,0,0,0,0,0,0,0,0,0,0,0,0,0,0,.5-.4.6-.4,0,0,0,0,0,0,0,0,0,0,.1,0,0,0,.2,0,.2,0,0,0,0,0,.2,0,0,0,0,0,0,0,0,0,0,0,0,0,0,0,0,0,0,0,0,0,0,0,0,0,0,0,0,0,0,0,0,0,0,0,0,0,0,0,0,0,0,0,0,0,0,0,0,0,0,0,0,0,0,0,0,0-.1,0-.2,0,0,0,0,0,0,0,0,0,0,0,0,0,0,0,.2,0,.4-.1,0,0,0,0,0,0,0,0,0,0,0,0,0,0,0,0,0,0,0,0,0,0,0,0,0,0,0,0,0,0,0,0,0,0,0,0,0,0,0,0,0,0,0,0,0,0,0,0,0,0,0,0,0,0,0,0,0,0,0,0,0,0,0,0,0,0,0,0,0,0,0,0,0,0,0,0,0,0,0,0,0,0,0,0,0,0,0,0,0,0,0,0,0,0,0,0,0,0,0,0,0,0,0,.1.1.2.1.2h0s.7,0,.9,0c.1,0,.2,0,.3,0,0,0,.1,0,.1,0,0,.1-.1.3-.1.3,0,0,0,0,0,0,0,0,0,0,0,0,0,0,.8-.3.9-.4,0,0,0,0,0,0,0,0,.1.3.1.3h0s0,0,0,0c0,0,.5-.5.7-.5,0,0,0,0,0,0,0,0,0,0,0,0,0,0,0,0,0,0,0,0,0,0,0,0,0,0,0,0,0,0,0,0,.3.1.4.1,0,0,0,0,0,0,.1,0,.3,0,.5,0,.2,0,.6,0,.7,0,0,0,0,0,0,0,.2,0,.5,0,.6,0,.1,0,0-.2,0-.2,0,0,.1,0,.2-.1s-.2-.2-.2-.2v-.2c0,0,0,0,0-.2,0,0-.1-.1-.2-.2,0,0,0,0,0,0,0,0,0,0,0,0,0,0,0,0,0,0,0,0,0,0,0,0,0,0,0,0,0,0,0,0,0,0,0,0,0,0,0,0,0,0,0,0,0,0,0,0,0,0,0,0,0,0,0,0,0,0,0,0,0,0,0,0,0,0,0,0,0,0,0,0,0,0,0,0,0,0,0,0,0,0,0,0,0,0,0,0,0,0,0,0,0,0,0,0,0,0,0,0,0,0,0,0,0,0,0,0,0,0,0,0,0,0,0,0,0,0,0,0,0,0,0,0,0,0-.2,0-.3,0-.3,0,.2-.1.4-.3.5-.3,0,0,0,0,0,0,0,0,0,0,0,0,0,0,0,0,0,0,0,0,0,0,0,0,0,0,0,0,0,0,0,0,0,0,0,0,.1,0,.4-.1.4-.1,0,0,0,0,0,0,0,0,0,0,0,0,0,0,0,0,0,0,0,0,0,0,0,0,0,0,0,0,0,0,0,0,0,0,0,0h0c0,0,0,0,0,0h0s.4-.2.4-.2c0,0,.2-.1.3-.1,0,0,0,0,0,0,0,.1-.1.2-.1.2,0,0,0,0,0,0h0s0,0,0,0c0,0,0,0,0,0,0,0,0,0,0,0,0,0,0,0,0,0,0,0,0,0,0,0h0s0,0,0,0c0,0,0,0,0,0,0,0,0,0,0,0h0s0,0,0,0c0,0,0,0,0,0,0,0,0,0,0,0,0,0,0,0,0,0,0,0,0,0,0,0,0,0,0,0,0,0,0,0,0,0,0,0,0,0,0,0,0,0,0,0,0,0,0,0,0,0,.3,0,.5,0,.1,0,.2,0,.2,0,0,0,.6,0,.8,0h0s0,0,0,0c0,0,0,0,0,0,0,0,0,0,0,0s0,0,0,0c0,0,0,0,0,0,0,0,0,0,0,0,0,0,0,0,.1,0,0,0,0,0,0,0,0,0,0,0,0,0,0,0,0,0,0,0,0,0,0,0,.1,0,0,0,0,0,0,0l-1.1,2.1s0,0,0,0h0s.2-.4.6-1c0,0,0-.2.1-.2,0,0,0,0,0,0,.2-.3.3-.6.4-.8,0,0,0,0,0,0,0,0,0,0,0,0,0,0,0,0,0,0,0,0,.1-.1.2-.2v1.4s0,0,0,0h0s0-.5,0-.9c0,0,0,0,0,0,0,0,0,0,0-.1,0,0,0,0,0,0,0,0,0,0,0,0,0,0,0,0,0,0,0,0,0,0,0,0,0,0,0,0,0,0,0,0,0,0,0,0,0,0,0,0,0,0,0,0,0,0,0-.1l.4,1s0,0,0,0h0s0-.2,0-.4c0,0,0,0,0,0,0,0,0,0,0,0,0,0,0,0,0-.1,0,0,0,0,0,0,0-.2-.2-.4-.3-.4,0,0,0,0,0,0,0,0,0,0,0,0,0,0,0,0,0,0,0,0,0,0,0,0,0,0,0,0,0,0,0,0,0,0,0,0,0,0,0,0,0,0,0,0,0,0,.1,0,0,0,0,0,0,0,0,0,0,0,0,0,0,0,0,0,0,0,0,0,0,0,0,0,0,0,0,0,0,0,0,0,0,0,0,0,0,0,0,0,0,0,0,0,0,0,0,0,0,0,0,0,0,0,0,0,0,0,0,0,0,0,0,0,0,0,0,0,0,0,0,0,.1,0,0-.1.1-.2,0,0,0,0,0,0,0,0,0,0,0,0ZM159,216.7h0s0,0,0,0h0Z"/>
  </g>
  <path class="cls-3" d="M133.7,157.9l-.4-2-.9-1.2h0s-.1-.2-.1-.2l-1.9-1.1h0s-2.7-1.6-2.7-1.6c0,0-2.6-2.8-12.6-2.8s-8.4,3.1-9.7,4.1l-.8.2c-1.2-.6-9.5-5.3-15.5-5.3-11.8,0-16.9,2.2-23,9.8-3.3,4.1-4.3,9.8-4.3,9.8l-4.6,14.5-1.2,4.8-3.1,2.6s-4.4,1.7-7.8,2.2c-3.4.5-7.7.8-11.5.6-3.8-.2-7.5,0-11.6.4q-4.1.4-8.5,1.8c-.2,0-.4.1-.6.2,0-.1,0-.2,0-.2,0,0-3.1.9-2.3,2.3.8,1.4.4,1.3,4.2,3.9,3.8,2.7,9,3.4,12.1,3.6s7.4.4,13.9-.9c6.5-1.2,11.9-3.7,11.9-3.7l2.8-1.4,5.4.2,4.8.4h.2c0,.1,0,.4,0,.7.3,1.2,1.3,1.1,1.3,1.1,0,0,2.1.6,3.1.2,0,0,0,0,0,0l7.8.5,7.1.8h0s1.1.1,1.1.1h0s.2,0,.2,0l3.4-1.1s1.9-1.5,1.2-2.5c-.6-1-1.4-1.1-3.2-1.4-.6,0-1.3-.1-1.9-.2l6.4-1.1s2.4-.9,5-2.5c2.6-1.6,3.6-4.3,3.6-4.3l2.7.5c2.1.6,1.6-.2,1.6-.2l1.8,2.7,3.6,5.2s-.7.8-.5,1.8c.2,1,.9.7.9.7l2.6.2h0c0-.1,3.7,0,3.7,0l4-.5s0-1.6-1-2.2-3.6-.5-3.6-.5l-.5-2.1v-.8s0,0,0,0l-.3-6.2,1.3-2.8,4.7,1.2.9,2.5,2.7,2.5,2.1.4.4-1.4-1.6-2.9-1.2-4.1-2.5-1.2-3.6-1.7,1.3-5.2h0s0,0,0,0l1.1-5,4.6-2.9,4.1-1.6.6-1.6h0c0-.1,0-.1,0-.1h0s1.1-.8,1.1-.8l2.1-4.9h0s0,0,0,0Z"/>
</svg>