<?xml version="1.0" encoding="UTF-8"?><svg id="Various" xmlns="http://www.w3.org/2000/svg" xmlns:xlink="http://www.w3.org/1999/xlink" viewBox="0 0 127.97 82.03"><defs><style>.cls-1,.cls-2,.cls-3{fill:#fff;}.cls-4{fill:#e6c897;}.cls-5{filter:url(#drop-shadow-4);}.cls-6{filter:url(#drop-shadow-6);}.cls-7{filter:url(#drop-shadow-2);}.cls-2{filter:url(#drop-shadow-5);}.cls-3{filter:url(#drop-shadow-3);}</style><filter id="drop-shadow-2" filterUnits="userSpaceOnUse"><feOffset dx="1" dy="1"/><feGaussianBlur result="blur" stdDeviation="3"/><feFlood flood-color="#000" flood-opacity=".15"/><feComposite in2="blur" operator="in"/><feComposite in="SourceGraphic"/></filter><filter id="drop-shadow-3" filterUnits="userSpaceOnUse"><feOffset dx="1" dy="1"/><feGaussianBlur result="blur-2" stdDeviation="3"/><feFlood flood-color="#000" flood-opacity=".15"/><feComposite in2="blur-2" operator="in"/><feComposite in="SourceGraphic"/></filter><filter id="drop-shadow-4" filterUnits="userSpaceOnUse"><feOffset dx="1" dy="1"/><feGaussianBlur result="blur-3" stdDeviation="3"/><feFlood flood-color="#000" flood-opacity=".15"/><feComposite in2="blur-3" operator="in"/><feComposite in="SourceGraphic"/></filter><filter id="drop-shadow-5" filterUnits="userSpaceOnUse"><feOffset dx="1" dy="1"/><feGaussianBlur result="blur-4" stdDeviation="3"/><feFlood flood-color="#000" flood-opacity=".15"/><feComposite in2="blur-4" operator="in"/><feComposite in="SourceGraphic"/></filter><filter id="drop-shadow-6" filterUnits="userSpaceOnUse"><feOffset dx="1" dy="1"/><feGaussianBlur result="blur-5" stdDeviation="3"/><feFlood flood-color="#000" flood-opacity=".15"/><feComposite in2="blur-5" operator="in"/><feComposite in="SourceGraphic"/></filter></defs><g id="ic_animals_whois"><g class="cls-7"><path class="cls-4" d="M26.25,21.91c-3.68,2.48-5.25,6.86-4.56,10.99-.34-2.01-.33-3.94,.3-5.53,1.01-2.58,2.56-4.39,4.26-5.46Z"/><path class="cls-4" d="M39.26,12.05c.11-.26,.24-.5,.39-.72-.1,.32-.18,.71-.27,1.14-.13,.54-.27,.96-.43,1.27,.06-.69,.14-1.31,.31-1.69Z"/><path class="cls-4" d="M45.28,14.74c.08,.05,.11,.15,.06,.22-.04,.08-.14,.11-.22,.06-.07-.04-.1-.14-.06-.22,.05-.08,.15-.1,.22-.06Z"/><path class="cls-4" d="M47.39,6.55s.01,.03,.02,.05c-.09-.09-.15-.12-.15-.12v-.05s.03,.01,.06,.03c.02,.01,.03,.02,.04,.03,.01,.02,.03,.04,.03,.06Z"/><path class="cls-4" d="M50.1,13.12c0,.14-.03,.31-.09,.5,.07-.51,.08-.86,.09-.5Z"/><path class="cls-4" d="M53.31,33.31c-.02,.39-.05,.97-.1,1.69-.07-.43-.07-.99,.1-1.69Z"/><path class="cls-4" d="M21.69,32.9c-.34-2.01-.33-3.94,.3-5.53,1.01-2.58,2.56-4.39,4.26-5.46-3.68,2.48-5.25,6.86-4.56,10.99Z"/><path class="cls-4" d="M45.34,14.96c-.04,.08-.14,.11-.22,.06-.07-.04-.1-.14-.06-.22,.05-.08,.15-.1,.22-.06,.08,.05,.11,.15,.06,.22Z"/><path class="cls-4" d="M45.34,14.96c-.04,.08-.14,.11-.22,.06-.07-.04-.1-.14-.06-.22,.05-.08,.15-.1,.22-.06,.08,.05,.11,.15,.06,.22Z"/><path class="cls-4" d="M47.76,6.93s-.04-.03-.06-.05c-.14-.1-.25-.2-.29-.28-.09-.09-.15-.12-.15-.12v-.05s.03,.01,.06,.03c.02,.01,.03,.02,.04,.03,.04,.04,.05,.08,.12,.15,.01,0,.02,.02,.03,.04,.05,.04,.1,.1,.16,.16,.03,.02,.06,.06,.09,.09Z"/><path class="cls-4" d="M47.25,6.42h0Z"/><path class="cls-4" d="M47.67,6.84s.06,.06,.09,.09c-.02-.02-.04-.03-.06-.05-.14-.1-.25-.2-.29-.28-.09-.09-.15-.12-.15-.12v-.05s.03,.01,.06,.03c.02,.01,.03,.02,.04,.03,.04,.04,.05,.08,.12,.15,.01,0,.02,.02,.03,.04,.05,.04,.1,.1,.16,.16Z"/><path class="cls-4" d="M49,7.54c.08,.06,.16,.13,.25,.2-.03,.03-.06,.06-.09,.08-.08-.05-.16-.11-.25-.16,.03-.03,.06-.07,.09-.12Z"/><path class="cls-4" d="M50.1,13.12c0,.14-.03,.31-.09,.5,.07-.51,.08-.86,.09-.5Z"/><path class="cls-4" d="M53.21,35c.05,.33,.15,.59,.25,.78-.08-.12-.17-.26-.28-.43,.01-.12,.02-.24,.03-.35Z"/><path class="cls-4" d="M53.76,36.19s-.13-.11-.27-.35c.17,.23,.27,.35,.27,.35Z"/><path class="cls-4" d="M40.54,68.46c.41-1.68,.14-3.62,.14-3.62,0,0,.33-.3,.45-.95,.14-.68-.03-.99,.2-1.65,.22-.66,.45-1.31,.45-1.31,0,0,.32,.52,.48,.7,.15,.19,.19,.34,.27,.51,.09,.16,.36,2.81,.36,2.81,0,0,.2,3.02,.46,3.68,0,0-.41,.05-1.37,0-.95-.04-1.44-.17-1.44-.17Z"/><path class="cls-4" d="M33.79,58.02c-.11,1.79-.26,3.16-.26,3.16,0,0,.2,.57,.17,1.06,0,0-.41,.13-.98,.18-.58,.04-.92,.04-.92,.04,.18-.93-.01-2.2-.01-2.2,0,0-.06-.88-.13-2.16,0,0,.69-.38,.8-.66,.12-.28,.07-.4,.15-.71,.08-.26,.2-.39,.2-.39,0,0,.11,.45,.2,.65,.04,.09,.22,.2,.39,.41,.2,.26,.39,.62,.39,.62Z"/><path class="cls-4" d="M27.73,63.11c.24-1.28,.2-3.33,.15-4.5,0,0,.49-.33,.6-.52,.06-.1,.11-.48,.16-.72,.04-.17,.1-.24,.1-.24,0,0,.11,.11,.18,.29,.1,.21,.16,.49,.18,.57,.02,.06,.1,.12,.17,.21,.1,.17,.21,.38,.21,.38,.02,.4,.04,.63,.04,.63,0,0,.41,2.72,.31,3.59-.02,.12,0,.29,.04,.44,0,0-.5,.02-1,.01-.5,0-1.14-.14-1.14-.14Z"/><path class="cls-4" d="M48.23,67.45s-.13-1.23-.41-2.36c-.12-.47-.37-1.65-.25-3.19,0,0,1.05-1.67,1.1-2.13,.04-.46,.65-1.99,.65-1.99,0,0,.11,.04,.17,.16,.08,.14,.13,.39,.19,.49,.1,.19,.39,.48,.39,.48-.06,2.09,.03,2.14,.08,2.88,.05,.73-.13,1.7,.18,3.09,.25,1.16,.85,1.81,.74,2.24,0,0,.29,.15-.8,.32-1.09,.17-2.04,.01-2.04,.01Z"/><path class="cls-4" d="M31.85,44.43s1.24,1.14,4.07,1.34c0,0-.56,1.21-1.88,4.13-.43,.96-.14,3.33-.17,5.65-.01,.83-.04,1.65-.08,2.39,0,0-.11-.28-.28-.52-.16-.23-.34-.35-.4-.48-.09-.21-.17-.54-.2-.65-.03-.11-.11-.12-.15-.06-.11,.18-.31,.57-.31,.9,0,.44-.79,.89-.79,.89-.11-2.23-.22-5.71,.01-8.05-.05-.31-.91-1.42-.92-2.9,.22-.35,1.1-2.64,1.1-2.64Z"/><path class="cls-4" d="M43.35,68.81c.25,.67,1.23,2.92-.72,2.97-1.95,.05-3.69,.77-2.2-2.76,.04-.13,.07-.26,.11-.39,0,0,.32,.13,1.43,.18,1.11,.05,1.38,0,1.38,0Z"/><path class="cls-4" d="M41.59,7.71s-2.01-2.98,0-5.39c.22-.27,.51-.69,.71,.15,.2,.85,.07,.67,.53,1.5,.47,.82,.67,2.25,.67,2.25,0,0-.21,.06-.5,.19h-.01c-.06,.04-.12,.07-.18,.11-.07,.03-.13,.07-.19,.11-.17,.11-.33,.23-.45,.34-.23,.2-.44,.44-.58,.74Z"/><path class="cls-4" d="M53.32,25.65c.15-1.46,.06-3.26-.02-4.34,0-.04,0-.08-.01-.12-.04-.51-.07-.83-.07-.83,.18,.42,.69,.52,.69,.52-.45-.42-.83-1.77-.84-2.87,0-1.11-.89-3.41-.87-4.38,.02-.97-.78-2.8-1.59-4.35-.29-.57-.82-1.1-1.36-1.54-.03,.03-.06,.06-.09,.08-.08-.05-.16-.11-.25-.16,.03-.03,.06-.07,.09-.12,.08,.06,.16,.13,.25,.2,.27-.22,.59-.62,.68-1.23,.17-1.1-.2-2.85-.77-3.68-.57-.82-.68,.02-.68,.02,0,0-.05,1.02-.52,1.47-.76,.76-.72,1.86-.7,2.11,.01,0,.03,.01,.06,.03,.02,.01,.03,.02,.04,.03,.04,.04,.05,.08,.12,.15,.01,0,.02,.02,.03,.04,.05,.04,.1,.1,.16,.16,.03,.02,.06,.06,.09,.09-.02-.02-.04-.03-.06-.05-.14-.1-.25-.2-.29-.28-.09-.09-.15-.12-.15-.12v-.05s0,0,0,0h0s-.05-.03-.08-.04c-.04-.02-.09-.03-.14-.05-2.54-.85-4.09,.31-4.6,.62s-1.21,1.84-2,2.32c-1.66,1.02-1.69,2.55-1.69,2.65,.79-1.09,1.2-1.28,1.2-1.28-.12,.19-.22,.41-.29,.68-.1,.32-.18,.71-.27,1.14-.13,.54-.27,.96-.43,1.27-.57,1.16-1.14,.98-.73,1,.14,.01,.38-.01,.65-.07-.11,1.59-.26,3.29-1.08,3.66-1.36,.61-1.24,1.91-1.23,2.02,0,.1,.06,1.07,.06,1.07-1.26,.24-3-.6-6.26-.68-1.35-.05-2.77,.33-4.1,1.17h0c-3.68,2.48-5.25,6.86-4.56,10.99-.34-2.01-.33-3.94,.3-5.53,1.01-2.58,2.56-4.39,4.26-5.46-.34,.03-7.95,.81-6.41,12.36,.4,2.95,.65,8.68,.92,10.48,0,0,.7-1.18,.41-4.23,.17,2.1,.29,3-1.11,9.64,.13-.21,1.13-1.91,1.59-2.97,.44-1,.72-1.98,.79-2.21-.05,.24-.26,1.23-.48,1.81-.23,.61-.61,1.79-.65,1.94,.2-.21,2.3-2.54,3.38-5.39,.07-.18,.12-.36,.15-.55,.75,1.91,1.31,3.41,1.25,4.16-.2,2.51,1.74,10.7,1.74,10.7,0,0,.03,.35,.05,.89,0,0,.63-.38,.62-.84,0-.34,.12-.59,.19-.69,.02-.04,.07,.01,.07,.01,0,0,.17,.22,.24,.37,.06,.14,.11,.54,.19,.61,.09,.06,.29,.5,.29,.5-.14-2.16-.52-9.11,.04-10.01,.67-1.08,2.2-4.72,2.2-4.72,2.77,2.31,7.79,1.85,7.79,1.85,0,0,.41,2.66,.97,4.91,.4,1.63,.33,8.27,.26,11.86,0,0-.19,2.36-.07,2.22,.05-.06,.27-.38,.36-.91,.06-.34-.02-.84,.04-1.17,.08-.39,.23-.83,.26-.89,.26-.51,.27-1.06,.45-1.18,.06,.41,.33,.65,.59,1.01,.13,.18,.21,.32,.26,.61,.1,.49,.14,1.16,.17,1.27,.03,0,.04-.96,.04-.96,0-1.69,.05-3.93,.3-5.66,.46-3.17,.46-10.04,.46-10.04,1.38-1.69,1.54-3.22,1.9-3.22,.15,0,.55,.07,.95,.08,.52,.02,1.04-.03,1.04-.03,0,0-.25,7.12,.11,10.96,.2,2.22,.12,4.91-.06,7.03,0,0,.86-1.62,.96-2.35,.09-.73,.82-1.77,.82-1.77,0,0,.38,.35,.43,.58,.05,.23,.4,.54,.4,.54l.02-1.09c.06-2.11,.19-4.58,.45-6.02,1.67-6.58,2.32-12.7,2.56-16.05,.01-.12,.02-.24,.03-.35-.07-.43-.07-.99,.1-1.69h0c.02-.1,.04-.19,.07-.29,.65-2.28,.27-4.43,.27-4.43,0,0-.42-1.75-.33-2.94Zm-3.22-12.53c0,.14-.03,.31-.09,.5,.07-.51,.08-.86,.09-.5Zm-4.76,1.84c-.04,.08-.14,.11-.22,.06-.07-.04-.1-.14-.06-.22,.05-.08,.15-.1,.22-.06,.08,.05,.11,.15,.06,.22Z"/><path class="cls-4" d="M29.94,63.44c.2,.53,.99,2.34-.58,2.38-1.56,.04-2.95,.62-1.76-2.22l.09-.3s.25,.1,1.15,.14c.89,.04,1.1,0,1.1,0Z"/><path class="cls-4" d="M51.22,67.44c.9,.92,2.25,3.14,1.2,3.29-1.05,.16-3.34,.51-3.87-.36-.52-.87-.33-2.66-.33-2.66,0,0,.76,.13,1.6,.03,.84-.11,1.4-.3,1.4-.3Z"/><path class="cls-4" d="M33.74,62.37c.62,.58,1.63,2.08,.92,2.18-.72,.1-2.29,.33-2.65-.23-.35-.55-.22-1.69-.22-1.69,0,0,.47,0,1.04-.06,.57-.07,.91-.2,.91-.2Z"/><path class="cls-4" d="M47.48,6.64s.02,.02,.03,.04c-.03-.04-.07-.07-.1-.08-.09-.09-.15-.12-.15-.12v-.05s.03,.01,.06,.03c.02,.01,.03,.02,.04,.03,.04,.04,.05,.08,.12,.15Z"/><path class="cls-4" d="M47.67,6.84s.06,.06,.09,.09c-.02-.02-.04-.03-.06-.05,0-.02-.02-.03-.03-.04Z"/><path class="cls-4" d="M49.25,7.74s-.06,.06-.09,.08c-.08-.05-.16-.11-.25-.16,.03-.03,.06-.07,.09-.12,.08,.06,.16,.13,.25,.2Z"/></g><path id="Tracciato_19-2" class="cls-3" d="M93.14,27.87c.36,.45,.25-1.67-1.21-1.86,0,0-.47-.69-1.81-.63s-2.88-.45-2.88-.45c-.12-.11-.29-.16-.44-.12-.95,.08-1.9-.25-2.59-.92-1.03-.99-8.15-8.64-10.28-10.45-2.13-1.81-3.01-5.5-3.24-8.96,0,0-2,3.94-.73,8.83,.03,.09-.59-.75-.71,0-.19,1.19,.15,3.66,1.91,6.02,0,0-.85-.79-.92,.1-.05,.56,.08,1.9,1.99,4.09,1.91,2.19,6.49,4.11,6.49,4.11,0,0-6.6-.17-8.89-1.63-.45-.31-2.46,3,0,6.43s6.01,4.09,8.64,3.24,2.66-3.01,2.66-3.01c0,0,1.6,.05,2.13-.34,0,0,2.34,1.43,6.25,1.77,3.92,.33,5.5-.09,5.5-.09,0,0-5.53,.21-2,.4,3.53,.18,6.83-.72,6.83-.72,0,0-3.69,.72-1.02,.5s5.25-1.39,8.44-2.92c0,0-10.58,2.31-17.12-2.85,0,0,1.57-.45,1.64-.78s1.02-.21,1.38,.23Z"/><g class="cls-5"><path class="cls-1" d="M84.46,49.77c-.62,.72-1.38,.38-1.48,.34,.06,.18,.79,2.07,.27,3.01-1.49,3.52-.28,4.07-.33,6.49-.06,2.41-1.46,2.41-1.46,2.41h-.02c-.04,.12-.14,.46,.08,.65,2.04,1.72,.68,4.06,.68,4.06l.15,5.11s-1.22,.66-1.22,.95-.16,.8-.35,1.11c-.18,.31-2.12,.12-2.33,.1-.2-.02,.13-.29,.13-.29l-.83-.02s-.25-.08-.16-.49c.08-.41,2.06-1.75,2.37-2.19,.31-.43,0-2.8-.13-3.35-.11-.53-1.79-5-1.98-5.5h-.02c-.49,0-1.67-.08-1.67-.08-.08,.18-.86,.64-.86,.91-.03,1.38-1.49,3.53-2,4.28-.52,.77-.49,2.31-.45,2.95,.04,.64-.6,.6-1.01,.72-.42,.13-.27,1.26-.27,1.26,0,0-1.01,.8-2.08,.89-1.07,.08-.52-.27-.52-.27-.76,.02-.82-.21-.82-.21,.33-1.71,2.35-2.76,2.35-2.76,0,0,1.99-6.14,1.66-6.8h-.03c-.5-.31-.31-1.88-.31-1.88-2.27-.95-3.05-3.13-3.05-3.13-1.2-.31-4.62-.08-4.62-.08-1.22,3.13-3.46,4.08-3.46,4.08l-.04,.02c-.32,.84-.36,3.32-.17,3.85,.2,.54,.06,1.59-.23,2.35-.29,.77-.12,2.19,.39,2.97,.52,.78-.43,.83-.63,.8-.2-.02-.4,.13-.21,.29,.18,.17,.29,1.05,.14,1.36-.14,.31-2,.7-2.2,.64-.21-.06-.19-.49-.19-.49,0,0-1.26,.62-1.07-.17,.19-.78,1.09-1.56,1.55-2.35,.45-.78-.11-2.9-.11-2.9,0,0-.95-.99-.64-2.62,.28-1.49,.05-2,.01-2.07-.9,.61-1.92,.37-2.09,.32,.19,1.57-.22,2.42-.22,2.42,0,0-.64,1.21,.15,2.12,.78,.91,.45,.86,.28,1.09-.16,.23-.08,.52-.08,.52,.37-.05,.97,.22,1.22,.66,.25,.43-.5,1.93-.64,2.18s-.35-.08-.35-.08c0,.18-.78,.78-.78,.78-.81-.93-1.01-3.83-1.24-4.7-.23-.86-1.15-1.88-1.34-3.45-.13-1.04,.37-2.43,.56-3.21l-.07-.48c-1.65-.94-1.35-3.05-1.35-3.05-.71,0-.72,.69-1.68,1.57-1.46,.95-1.8,1.53-1.8,1.53-.66,.36-1.32,4.51-1.37,4.95-.06,.44-.66,.71-.66,.71l-.69,.06c-.8,.82-2.06,0-2.06,0,0,0-.17-1.49-1.13-2.75-.96-1.27-1.87-4.59-1.87-4.59-2.8,.22-2.36-1.49-1.7-3.96,.66-2.47,.66-3.13,1.26-3.41,.61-.27,1.1-6.7,3.38-7.77,2.28-1.07,6.51-3.41,8.27-4.45,1.76-1.05,6.29-2.75,13.93-2.31,7.64,.44,11.43,.19,16.16,2.12,4.73,1.92,3.74,8.46,3.08,9.23Z"/></g><path class="cls-2" d="M9.91,49.43s2.74-.37,3.22-1.26,1.7-3.11,3.52-3.15c1.22-.02,2.51-.05,3.16,.17s.7,.84,.92,1.32c.67,1.45,1.37,5.45,3.3,7.04s2.59,2.33,3.15,3.37,6.52,5.52,6.52,5.52c0,0,3.3,3.26,2.71,6.74s0,3.08,0,3.08c0,0,4.13,.66,1.95,2.92-3.34,2.78-7.26,2.21-11.67,1.7-1.87-.3-.22-.59-.22-.59,1.09,.3,8.72,.11,9.87-1.5,0,0-2.96,.11-7.1,.48s-7.16-.41-7.16-.41c0,0-.59-1.52-.41-1.67s.89-.89,1.82-.7,2,.41,2,.41c0,0-3.68-3.87-3.87-4.44-.08-.23-.16-.77-.04-1.55,.19-1.14,.57-2.72,.57-2.72,0,0-.74,2.33-.7,3.52s-.22,5.37-.22,5.37c0,0,.19,1.67-.3,1.7s-3,.07-3,.07c0,0-1.07-.56-.56-1.11s.59-.89,1.3-.82-.15-5.45-.15-5.45c0,0-2.48-5.08-3.45-6.41s.96-6.11,.96-6.11c0,0-.63-1.74-.59-2.04s-.82,.78-2.56,.52-3.04-3.26-2.96-4Z"/><g class="cls-6"><path class="cls-4" d="M115.71,51.26s-.13-.29-.28-1.75c-.15-1.46-.44-1.65-.81-1.61-.37,.05-.4,.46-.4,.46-1.81,.72-3.86-.31-3.86-.31,0,0-.64-.62-.97-.66-.34-.04-.9-.34-1.18-.79-.67-1.1-2.61-1.23-2.61-1.23-.65-1.03-2.01-1.18-2.01-.98,0,.21,.03,.3,0,.58-.02,.27-.14,.65-.14,.65-1.12-.43-1.43-.21-1.81-.31-.39-.11,.3,1.76,.3,1.76-1.81,1.51-5.52,3.79-7.28,3.83-1.77,.04-3.66,.74-5.43,1.04-1.77,.3-3.28-.09-3.28-.09,0,0-1.85-.69-3.15-.86-5.14-.69-8.02,2.63-8.02,2.63l-.62,.53s-.64,.31-1.14,.34-.96-.08-.96-.08l-.75-.28c.57,1.32,2.27,1.31,2.27,1.31-2.13,4.45-.18,6.04,.13,7.22,.31,1.18,.02,1.98,.02,1.98,0,0-.62,1.72-1.48,2.42-.86,.7-.5,1.43-.5,1.43l.75,4.06s.18,1.3-.02,1.62c-.2,.32,.02,.5,.02,.5,0,0-.11,.54,0,.7,.19,.47,.97,.92,.97,.92,.06,.34,.5,.86,.89,1.09,.39,.23,1.64,.26,2.34,.16,.7-.1,.23-.5,.23-.5l-.91-1.17c.37,.06-.02-.45-.02-.45,0,0-.16,.08-.65-2.26-.49-2.34,.41-3.34,.41-3.34,.01,.1,1.37-.84,2.19-1.96,.82-1.12,1.22-1.89,1.22-1.89,0,0,.74,.88,1.26,1.29,.52,.4,.73,.67,3.59,1.41,3.49,.92,6.62,.23,7.96-.55s2.35-.95,2.35-.95c0,0,1.46-.33,2.17-.87,.75,1.06,1.15,2.27,1.15,2.27,.67,2.84,2.42,4.79,2.42,4.79,.17,1.84,.98,2.47,1,2.3,.02-.17,.23-.5,.23-.5,0,0-.07,.8,1.27,1.4,1.34,.6,2.43-.15,2.49-.33s-.94-1.05-.94-1.05c.02-.27-.04-.36-.26-.55-1.23-1.04-1.7-2.63-1.75-3.36-.05-.73-.11-2.71-.11-2.71,0,0-.39-2.64,1.12-3.8,1.51-1.15,2.68-3.41,2.68-3.41,0,0,1.33-.31,1.98-1.49,.65-1.18,.97-1.22,2.27-1.95,1.3-.73,2.73-2.32,3.63-3.81,.91-1.49,1.75-2.42,1.75-2.42,.47,0,.29-.41,.29-.41Z"/><path class="cls-4" d="M89.82,77.17s-.02,.25-.08,.45-.23,.37-.23,.37"/><path class="cls-4" d="M107.87,47.9s.14,.71,.07,.95c0,0,.39-.01,.54,.18s-.26,.32-.31,.31-.34,.91-1.34,.44c-.16-.08,0-.3,0-.3,0,0,.73-.78,.8-1.31s.23-.28,.23-.28Z"/><path class="cls-4" d="M108.2,49.38s.27-.02,.34-.21c.01-.04,.3,.27,.3,.27,0,0-.18-.06-.3-.06s-.29,.13-.39,.1c-.04,0,.02-.11,.05-.11Z"/><path class="cls-4" d="M114.21,48.43s0-.48,.36-.51c.34-.08,.55,.14,.68,.57,.14,.47,.25,1.64,.25,1.64,0,0,.12,.91,.21,1.14s-.05,.32-.05,.32c0,0-.12,.08-.24,.08s-.22-.03-.23-.04-.18,.14-.61-1.26c-.26-.73-.36-1.94-.36-1.94Z"/><path class="cls-4" d="M102.18,46.88s-.16-.5-.3-.84c-.07-.17-.07-.17-.13-.37s.01-.13,.13-.13,.34-.1,1.55,.23c.4,.06,.86,0,1.27,.16,1.23,.5,1.4,1.94,1.03,2.91s-.58,1.16-.58,1.16c0,0,.24,.97-.32,1.08s-2.08-.05-2.41-1.77-.01-1.81-.24-2.43Z"/><path class="cls-4" d="M103.85,44.51c-.09,0-.01,.24-.03,.5-.01,.2-.03,.42-.08,.55,0,0,.81-.27,1.58-.23,0,0-.49-.68-1.46-.83Z"/><path class="cls-4" d="M107.91,48.47s-.17,.52,.03,.7c.05,.04,.21-.27,.19-.32s-.14-.16-.14-.25-.04-.2-.09-.13Z"/><path class="cls-4" d="M110.7,53.03s4.09-1.59,4.31-1.55c0,0,.03,.18,.41,.18,0,0-.21,.3-.47,.28-.08,0-.47-.03-.97,.14-1.09,.38-2.97,.92-3.28,.94Z"/><path class="cls-4" d="M97.47,68.9c.05,.31-.81,1.04-.85,1.93,0,0-.35,1.95,.18,3.2,.19,.47,.32,.84,.15,.95,0,0,.73,.8,.71,.95s-1.59,.69-2.33,.24-.76-1.35-.76-1.35l-.17,.45-.14,.37s-.4-.36-.66-1.71c0,0-.15-.9,.24-2.06,0,0-.02-4.25,.3-4.35,1.47-.23,2.31-.76,2.31-.76,0,0,.82,1.27,1.01,2.16Z"/><path class="cls-4" d="M80.5,67.59s-.08,.97-.34,1.74,.08,1.36,.08,1.36c0,0,1.53,2.17,2.24,2.64s.57,.89,.57,.89l1.75,1.3s.73,.45,.03,.65-2.24,.23-2.24,.23c0,0-.5,.13-1.04-.44s-.79-.86-.79-.86c0,0,.15,.52,.1,.63s-.6,.34-1.25-1.02-1.2-1.48-1.2-1.48c0,0-.81-.91-.97-1.28s-.92-.92-.92-.92c0,0-.58-.68-.63-1.07,0,0,.82-.32,1.82-1.4,.52-.58,1.57-2.12,1.57-2.12,0,0,.25,.37,.59,.63s.66,.51,.66,.51Z"/><path class="cls-4" d="M72.01,53.31s-.11-1.58,1.06-1.32,.56,1.42,.56,1.42c0,0-.82,1.26-2.46-.72-.58-.72-.69-.73-.93-.64s-.32,.58,.54,1.47,1.86,.97,2.89,.65,1.02-1.6,1.02-1.6c0,0-.04-1.66-1.75-1.43s-1.58,1.49-1.58,1.49l.65,.69Z"/><path class="cls-4" d="M79.28,65.71s.97-.23,1.32-.72,.36-.64,.99-1.48c0,0,2.34,3.03,6.01,3.31s6.72-.25,7.96-1.76c.99-1.49,1.02-1.76,1.02-1.76,0,0-.36,2.26-.17,2.7,.09,.21-.56,.52-1.31,.74-.84,.25-1.82,.43-2.3,.72-1.68,.88-5.01,2.62-11.15,.29-1.02-.35-2.38-2.03-2.38-2.03Z"/><path class="cls-4" d="M73.6,76.17s-.76-.43-.99-.9c-.08-.16-.03-.57-.03-.57,0,0,.77,.05,.92,0,0,0,.12,.56,.43,.68s.88,.39,1.92,.47l1,1.31s.15,.19-.5,.22-1.09,.1-1.71-.16c-.42-.18-.84-.56-1.05-1.06Z"/><path class="cls-4" d="M81.73,75.85s.34,.36,.92,.36,1.37-.13,1.74-.2,.39-.24,.26-.36-1.62-1.25-1.74-1.28-.61-.08-1.1,.05-1.04,.34-1.04,.34l.97,1.09Z"/><path class="cls-4" d="M80.56,74.77s.21,.86,.1,.86-.36-.08-.61-.54-.4-.59-.25-.58,.44-.13,.77,.26Z"/><path class="cls-4" d="M93.78,73.82s.17-.13,.2-.18,.1-.14,.16-.07,.12,.29,.38,.54c.05,.05,.22,.34-.03,.6-.15,.15-.26,.65-.26,.65,0,0-.55-1.02-.46-1.53Z"/><path class="cls-4" d="M94.74,74.38s0,.26,.03,.48c.03,.2,.11,.41,.14,.52,.07,.22,.27,.65,.88,.77s1.75-.21,1.65-.34c-.13-.21-.54-.64-.6-.79,0,0-.19,.15-.66,.14s-1.45-.79-1.45-.79Z"/><path class="cls-4" d="M100.34,73.67s.81,.75,.86,1.23c0,0-.24,.26-.24,.37s-.1-.05-.1-.05c0,0-.36-.68-.52-1.55Z"/><path class="cls-4" d="M103.9,75.21s-1.13,.32-2.12-.18c-.34-.16-.22,.14-.22,.14,0,0,.13,.73,.9,1.01s.85,.24,1.12,.24,.77-.06,.98-.27c.15-.12,0-.24,0-.24l-.68-.71Z"/></g></g></svg>