<?xml version="1.0" encoding="UTF-8"?>
<svg id="Where_is_found" data-name="Where is found" xmlns="http://www.w3.org/2000/svg" version="1.1" viewBox="0 0 48.9 32">
  <defs>
    <style>
      .cls-1 {
        fill: #bf5557;
      }

      .cls-1, .cls-2, .cls-3 {
        isolation: isolate;
        opacity: .5;
      }

      .cls-1, .cls-2, .cls-3, .cls-4 {
        stroke-width: 0px;
      }

      .cls-2 {
        fill: #b63a3e;
      }

      .cls-3 {
        fill: #c5686a;
      }

      .cls-4 {
        fill: #fff;
      }
    </style>
  </defs>
  <path class="cls-4" d="M45.9,9.1c-.3-.1-.6-.3-.9-.6-.4-.4-.8-.8-1.2-1.2-.2-.2-.4-.5-.5-.9-.1-.5-.3-.9-.7-1.2-.3-.4-.6-.7-1-1.1-.1-.1,0-.1,0-.2,0,0,.2-.1.3-.2.4-.5.6-1,.4-1.6,0,0,0,0,0-.2,0,.1,0,.2-.1.3-.2.5-.5.8-1,1.1-.1,0-.2,0-.4,0-.3-.1-.6-.1-.9,0,0,0,0,0-.2,0,.9-.7.8-1.7.4-2.1,0,0,0,.1,0,.2-.2.6-.6,1-1.1,1.3-.2.1-.4.3-.6.4-.3.3-.4.6-.3,1,0,0,0,0,0,.2,0,0,0,0-.1-.1-.2-.2-.4-.3-.6-.5-.5-.3-1.1-.4-1.6-.1-.3.2-.4.4-.2.7.1.2.3.4.5.5.2.1.4.3.6.4-.3,0-.5.2-.7.2-.7.2-1.4.2-2.1.3-.9,0-1.8,0-2.7-.3-.8-.3-1.7-.3-2.6,0-3.4.8-8.4-.2-9.5,0-1.5,0-1.8.1-3.3.2-.4,0-3.1-.2-4-.5-4.3-.7-5.8.3-6.4.6-.7.3-1.1.8-1.3,1.5-.2.8-.4,1.6-.5,2.4,0,.5-.1,1,0,1.5,0,.6.1,1.1.2,1.7,0,1.3,0,2.6,0,3.9,0,.5-.2,1-.6,1.3-.2.2-.4.5-.5.8-.2.5-.2,1.1,0,1.7,0,.5.2,1,.2,1.5,0,.1,0,.2,0,.4.3-.2.5-.5.6-.9v.3c.1-.2.2-.4.3-.6.3-.6.5-1.2.5-1.8,0-.3,0-.5,0-.8,0-.4,0-.9.1-1.3,0-.8.2-1.6.3-2.5,0-.7,0-1.4,0-2.1,0-.4,0-.8,0-1.1.1.6.2,1.2.3,1.8.2,1.1.4,2.2.4,3.3,0,.6,0,1.2-.3,1.8-.3.5-.5,1-.7,1.5-.2.6-.3,1.1-.2,1.7,0,.2,0,.4,0,.6,0,1.1,0,2.1,0,3.2,0,.6-.1,1.2-.2,1.9,0,.4,0,.7.3,1,.1.1.2.3.2.5,0,0,0,.2,0,.3,0,.5.3.8.7,1,.5.2,1,.2,1.5.1.1,0,.2,0,.2-.2.1.1.3,0,.4,0,.1,0,.1-.1.1-.2,0-.2-.1-.4-.2-.5-.2-.3-.5-.6-.7-.8-.3-.3-.5-.7-.5-1.2,0-.4,0-.7,0-1.1,0-.8,0-1.5,0-2.3.2-.9.4-1.7,1-2.4,0,0,0-.1.1-.2,0,0,0,0,0,0,0,0,0,0,0,0,.4.8.8,1.6,1,2.4.2.9.4,1.8.4,2.7,0,.2,0,.3,0,.5,0,.2.1.4.2.5.4.4.7.8,1,1.2,0,.1.2.2.4.2.6,0,1.1,0,1.7,0,.2,0,.2,0,.1-.2-.1-.5-.4-1-.9-1.3-.5-.4-.8-.8-1-1.4-.2-.8-.3-1.6-.4-2.5,0-.8,0-1.6,0-2.4,0,0,0,0,0-.1.1,0,.2,0,.3,0,.2,0,.2,0,.2.3,0,.2,0,.3,0,.5,0,.2.1.2.3.2.1,0,.2,0,.2-.2,0-.1,0-.3,0-.4,0-.3.3-.4.5-.3,0,0,.1,0,.2,0,.1,0,.2,0,.3.2,0,.1,0,.3.1.4,0,.2.2.2.3.2.2,0,.2-.1.2-.3,0-.1,0-.3,0-.4,0,0,0,0,0,0,1,1.8,2.6,3.6,5.2,3.9,5.2.5,7.7-1.4,8.8-3.2,0,0,0,.2,0,.3,0,.3,0,.6.1.9,0,.2.1.4.1.7.1.8,0,1.5,0,2.3,0,.5,0,.9-.2,1.4,0,.3-.2.6-.3.8,0,.3,0,.5.2.7.1.1.2.3.2.5,0,0,0,.2,0,.3,0,.6.5,1,1,1.1.6.1,1.2,0,1.7-.2,0,0,.1,0,0-.2-.2-.4-.3-.8-.7-1.1-.3-.2-.4-.6-.4-.9,0-.4,0-.7,0-1.1,0-.8,0-1.6.2-2.4,0-.1,0-.2.2-.3.2-.2.3-.3.4-.6.2-.5.3-1.1.4-1.6,0-.2,0-.5,0-.7,0,0,0,0,0,0,0,0,0,0,0,0,0,.6.2,1.1.3,1.7.2.8.3,1.7.3,2.5,0,.6,0,1.3,0,1.9,0,.2,0,.4.2.5.4.3.6.6.8,1,.1.3.4.4.7.5.5,0,.9,0,1.4,0,.1,0,.2,0,.2-.2,0-.4-.2-.7-.5-.9-.5-.4-.9-.9-.9-1.5-.1-1-.1-1.9,0-2.9,0-.1,0-.2.1-.3.1-.2.3-.4.3-.6.2-.5.3-1,.4-1.5,0-.2.2-.3.4-.4.3-.2.6-.4.9-.6.5-.4.9-1,1.2-1.6.3-.6.5-1.2,1-1.6.3-.3.5-.6.6-1,.1-.5.3-1,.4-1.4.1-.5.3-1,.7-1.4.2-.2.3-.4.5-.6.3-.3.6-.6.9-.7.2,0,.5-.2.7-.1.8,0,1.6,0,2.4-.2.4-.1.8-.1,1.2,0,.2,0,.5.1.7.2.7.1.9,0,1.2-.6,0,0,.1-.2.2-.2.3-.1.5-.3.5-.6,0-.2,0-.5.1-.7,0-.4-.2-.7-.6-.9Z"/>
  <g>
    <circle class="cls-3" cx="19.2" cy="18.9" r="5.3"/>
    <circle class="cls-1" cx="19.2" cy="18.9" r="3.9"/>
    <circle class="cls-2" cx="19.2" cy="18.9" r="2.4"/>
  </g>
</svg>