<?xml version="1.0" encoding="UTF-8"?>
<svg id="Livello_1" data-name="Livello 1" xmlns="http://www.w3.org/2000/svg" version="1.1" viewBox="0 0 150.6 69">
  <defs>
    <style>
      .cls-1 {
        fill: #51332d;
      }

      .cls-1, .cls-2, .cls-3, .cls-4, .cls-5, .cls-6, .cls-7, .cls-8, .cls-9, .cls-10, .cls-11 {
        stroke-width: 0px;
      }

      .cls-2 {
        fill: #7c4939;
      }

      .cls-3 {
        fill: #562d23;
      }

      .cls-4 {
        fill: #9b5d4c;
      }

      .cls-5 {
        fill: #6d574f;
      }

      .cls-6 {
        fill: #87736d;
      }

      .cls-7 {
        fill: #562b21;
      }

      .cls-8 {
        fill: #663729;
      }

      .cls-9 {
        fill: #7f4934;
      }

      .cls-10 {
        fill: #56423c;
      }

      .cls-11 {
        fill: #6d3c31;
      }
    </style>
  </defs>
  <g>
    <path class="cls-5" d="M51.8,50.6s-5.4,2.1-9.5,2.7-9.4,1-14.1.8-9.1,0-14.2.5-5.7.5-11,2.2.1,4.8.1,4.8l2.2,2.8,14.8,4.4,17-1.1,14.6-4.6,5.2-3.3-5.1-9.2Z"/>
    <path class="cls-10" d="M37.1,67.7c7.9-1.5,14.6-4.6,14.6-4.6l6.6-3.4-3-2.5-8.4,4.6-9.1,2.4s-7.4.9-9.8,1.2-9.9-.3-9.9-.3c0,0-7.2-.9-11.6-2.8-5.2-2.3-3.3-5.3-3.4-5.5,0,0-3.8,1.1-2.9,2.8s.5,1.5,5.1,4.8,11,4.2,14.8,4.4c3.8.2,9.1.4,17-1.1Z"/>
    <path class="cls-6" d="M7.3,57.7c-4,1-.4,1.7-.4,1.7,0,0,1.8,1.5,13.3,1.5s21.3-3.5,21.3-3.5c0,0,7.6-1.9,4.2-2.2s-15.2-.5-21.4.2-9.1.7-9.1.7c0,0-3.8.5-7.8,1.5Z"/>
    <polygon class="cls-3" points="130.4 38.3 136.7 41.3 139.8 42.9 141.3 47.9 143.2 51.3 142.8 53.1 140.2 52.7 136.9 49.6 135.8 46.6 128.2 44.6 130.4 38.3"/>
    <path class="cls-2" d="M148.9,8l-7.8-4.6-8.5-1.5-4.8-.7-2.2,1.3-7.2,3-3.5.9-7.6-3.3-9.8-.7-14,.8-13.1,7.5-7.7,12.9-5.7,17.7-1.5,5.9-4.3,3.7,1.5,7,2.2,3.3,6.7.2,5.9.4,4.8-.4,10.9-.2,16.8-2.8,6.1-3,4.4-5.2,3.3.7,2-.2,2.2,3.3,4.4,6.3-.7,2.2,1.1.9,7.7.3,4.8-.6s0-1.9-1.2-2.7-4.3-.7-4.3-.7l-.7-2.6-.4-8.5,3.3-7,2.2-8.7,1.3-6.1,5.7-3.5,5-2,.9-2.2,1.3-.9,2.6-6.1-.4-2.4-1.3-1.7Z"/>
    <path class="cls-8" d="M121.7,28.7v-1.7l-1.7.2-3,4.1-4.1,5.7-4.8,3.7-6.5,3-7.8,1.3-10.4-.4-2.6,3.7-7.2,2.6-6.7-2.2.4-11.5-2.2-5.4h-4.7c0,.1-3.1,9.8-3.1,9.8l-1.5,5.9s-2.5,2.3-4.3,3.7c-1.9,1.4,1.5,7,1.5,7l2.2,3.3,6.7.2,5.9.4,4.8-.4,10.9-.2,16.8-2.8,6.1-3,4.4-5.2,3.3.7,1.8-.2-.9-4.6,1.5-6.5,2.8-7,2.8-3.9Z"/>
    <path class="cls-3" d="M106.7,49l-9.4,4.6-10.4.2-17.2,2.8s-6,1.7-9.6,1.3-8.8-2.6-8.8-2.6c0,0,.4,1.2,1.4,2.8s2.2,3.3,2.2,3.3l6.7.2,5.9.4,4.8-.4,10.9-.2,16.8-2.8s2.9-1.1,6.1-3c3.1-2,4.4-5.2,4.4-5.2,0,0,.6-.1,3.3.7s2-.2,2-.2l.7,1,.2-1.6-5-5-4.8,3.9Z"/>
    <path class="cls-9" d="M64,37l-2,12.8,3.7,6.7,2.8,3-.9,3.3,1.5,1.3,13.3.9,10.2,1.1,4.1-1.3s2.3-1.8,1.5-3-1.6-1.4-3.9-1.7-5.7-.2-5.7-.2l-6.5-.7-7.5-.5,2.1-2.6,4.7-2.5,3.7-6.1v-6.7l-6.3-8.1-8.7-1.3-6.3,5.7Z"/>
    <path class="cls-8" d="M75.7,61.7c.7-1.1,1.2-1.6,1.9-1.7s1.9-1.2,2.9-1.1-1.6-.2-1.6-.2c0,0-3.4-.7-1.3-2.2l4.1-3,1.9-3.1-4.3,2.2s-1.9,1.4-3.4,1.9-2.6.7-4.4-.2-5.2-2-6.1-8.5c-.7-5.1.9-10.9.9-10.9,0,0-.8-.4-2.2,2-1.4,2.4-2,10.8-2,12.8s1.6,4,1.6,4c0,0,4.3,5.4,4.5,6.7s-.8.9-.4,2.3,1.5,1.3,1.5,1.3c0,0,2.5.7,3.8.2s1.9-1.6,2.6-2.7Z"/>
    <path class="cls-7" d="M92.6,66.1v-.9c0,0,0-1.1-.4-1.8s-1.5-1.4-1.9-1.7c-.8-.5-.5.3-.5.3,0,0,1.5,1.1,1.5,2v2h1.3Z"/>
    <path class="cls-7" d="M97,64.6l-.8-1.9s-.8-.9-2-1.5-.4.3-.4.3l1.5,1.2.9,2.4.8-.2v-.2Z"/>
    <path class="cls-8" d="M126.2,61.7l-1.5-1.5-2.4-2.3-3.4-5.5-2.8-4.9v2l-.6,1.2h.2s2.2,3.2,2.2,3.2l4.4,6.3s-.9,1-.7,2.2,1.1.9,1.1.9l3.2.3.4-1.9Z"/>
    <polygon class="cls-8" points="128.1 59.9 129.5 59.5 128.9 57 128.8 56.1 127.8 58 128.1 59.9"/>
    <path class="cls-4" d="M143.2,4.7s-3.1-3.4-15.4-3.4-11.4,6-12.8,5.2S103.4,0,96,0c-14.4,0-20.6,2.6-28,11.9-4,5-5.2,11.9-5.2,11.9l1.2-.8s5.4-15.5,26.3-18c13.3-1.6,22.5,4.2,22.5,4.2l4.9,2.1s1-2.9,1.5-3.1c.5-.2,3.5-5.7,11.9-5.3s12.1,1.6,12.1,1.6Z"/>
    <polygon class="cls-11" points="128.1 6.4 132.9 5.1 137.4 5.6 142.3 6.6 147.4 9 146.9 10.5 140.9 8.2 134.8 8.4 130.6 8.5 128.6 8.5 128.1 6.4"/>
    <polygon class="cls-4" points="150.6 12.2 150.2 9.8 148.9 8 146.5 6.7 145.1 10.2 143.3 12.6 143.3 16.5 143.3 20 142.5 22.6 145.9 21.3 146.7 19.1 148 18.3 150.6 12.2"/>
    <polygon class="cls-1" points="149.1 8.3 148.1 8 147.4 9 146.8 10 147.6 11 148.3 10.3 149.1 11.2 150.1 11.8 150.6 12.2 150.6 12.2 150.2 9.8 149.1 8.3"/>
    <polygon class="cls-1" points="139.8 6.4 139.7 7.5 140.5 8 138.3 8.7 137.5 9.3 137.3 8.6 138.4 6.7 139.8 6.4"/>
    <polygon class="cls-7" points="146.7 19.2 144.9 19.6 141.9 19.7 141.1 20.2 142.3 20.5 145.3 20 146.5 19.8 146.7 19.2"/>
    <polygon class="cls-8" points="134.1 24.4 128.9 20.2 126.7 19.4 128.7 25 131.5 31.3 133.9 32.8 135.2 26.8 138.4 24.8 134.1 24.4"/>
    <polygon class="cls-4" points="130.2 6.7 129.5 9.7 128.9 10.3 125.5 9.7 122.9 8.7 122.9 6.3 124.3 5.2 128.4 5.2 130.2 6.7"/>
    <polygon class="cls-8" points="124.3 5.2 122.9 6.3 122.9 8.7 125.5 9.7 128.9 10.3 129.5 9.7 129.6 9.5 124.6 8.2 124 7.3 125.2 6.3 127.8 6.1 130 7.5 130.2 6.7 128.4 5.2 124.3 5.2"/>
  </g>
  <path class="cls-8" d="M108.7,17.7s-11.4-.3-11.7,0,0,1.3,1.6,1.4,9.9.1,10.1-1.4Z"/>
  <path class="cls-8" d="M96.1,25.7s10.4-4.9,12.6-5.4,8.5-2.5,7.3-1.2c-1.1,1.3-4.7,3.6-4.7,3.6,0,0,4.9-.8,4.1-.5s-5.6,3.3-6,3.5-2.2,2.5-.7,1.8,4.3-2,3.6-.9-5.7,5.6-6.2,5.9-.4-1,0-2c.4-1-.7-2.5-1.7-2.2s-2.1-1.2-1.1-2.3-.8-1.4-2.9-.4-5.3.5-4.3.1Z"/>
  <path class="cls-8" d="M53.7,51.8s6.8-5.7,7.8-6.1,11.6-12.9,11.6-11.1-5.8,9.7-5.2,10,5.5-5.8,5.6-3.9-1.3,4.9-.8,5.5.9,1.4.1,2.1-3,1.9-3.1,2.8c-.1.9-1.8,1-2.3.8s-4.5.2-5.4.7-5.2,1.3-5.6,1.9-2.8,0-2.8,0v-2.6Z"/>
</svg>