<?xml version="1.0" encoding="utf-8"?>
<!-- Generator: Adobe Illustrator 27.9.0, SVG Export Plug-In . SVG Version: 6.00 Build 0)  -->
<svg version="1.1" id="Livello_2_00000023251601164211633380000006757087751696047792_"
	 xmlns="http://www.w3.org/2000/svg" xmlns:xlink="http://www.w3.org/1999/xlink" x="0px" y="0px" viewBox="0 0 12.6 26.4"
	 style="enable-background:new 0 0 12.6 26.4;" xml:space="preserve">
<style type="text/css">
	.st0{fill:#FFFFFF;}
	.st1{fill:#FFFFFF;stroke:#FFFFFF;stroke-width:0.7383;stroke-linecap:round;stroke-linejoin:round;stroke-miterlimit:10;}
	.st2{fill:#FFFFFF;stroke:#FFFFFF;stroke-width:9.844486e-02;stroke-miterlimit:10;}
	.st3{fill:#633E2A;}
	.st4{fill:#49311A;}
	.st5{fill:#796255;}
	.st6{fill:#968370;}
	.st7{fill:#855637;}
	.st8{fill:#613D2E;}
	.st9{fill:#724830;}
	.st10{fill:#4F2618;}
	.st11{fill:#371B14;}
	.st12{fill:#261711;}
	.st13{fill:#302018;}
	.st14{fill:#FCDBCD;}
	.st15{fill:#C56767;}
</style>
<path class="st0" d="M4.6,22.3l-0.6-2.5l0.4-2.2L4.6,16l-0.6-1.9c0,0,1.5-0.8,1.8-0.5c0.3,0.3,0.2,1.8,0.2,2
	c-0.1,0.2-0.5,3.9-0.4,4.2c0,0.3,0.1,1.6,0,1.8c-0.1,0.2-0.7,1.1-0.7,1.1L4.6,22.3z"/>
<g>
	<path class="st1" d="M10.9,23.3l0-0.1l0,0c0.2-0.8,0.1-1.1-0.3-2.1c-0.4-1-0.5-2.3-0.2-3.1c0.3-0.8,0.2-2.1-0.4-3.2
		c-0.4-0.7-0.5-1.1-0.8-1.9c0-0.1-0.1-0.2-0.1-0.4c0,0,0-0.1,0-0.1c0-0.1,0-0.2,0-0.3l0.1,0L8.9,12c0-0.1-0.1-0.1-0.1-0.2
		c0-0.1-0.1-0.1-0.2-0.2c-0.1-0.2-0.1-0.3-0.1-0.5c0-0.6,0.2-1.5,0.4-1.9c0-0.1,0-0.1,0-0.2C9,8.9,9,8.8,9.1,8.8h0c0,0,0-0.1,0-0.1
		c0,0,0-0.1,0-0.1l0,0l0,0l0,0c0-0.4,0-0.8-0.2-1.1c0.4-0.1,1.2-0.4,1.3-1.3c0.1-0.8,0.2-1.2,0.4-1.4l0.1-0.1l0-0.1
		c0-0.1-0.2-0.1-0.3-0.1c-0.1,0-0.2,0-0.4,0.1l0,0C9.8,4.6,9.4,4.7,9,5C8.7,5.1,8.6,5.2,8.5,5.3c-0.1-0.5-0.2-1-0.5-1.5
		C7.5,3.2,7.4,2.7,7.2,2.2C7,1.6,6.9,1.2,6.1,1c-0.3-0.1-0.7-0.2-1-0.2l0,0l-0.1,0c0,0,0,0,0,0l-0.3,0h0c-0.1,0-0.2,0-0.2,0
		C3.9,0.8,3.5,0.9,3.2,1c-0.1,0.1-1,0.5-1,1.1c0,0.4-0.1,1-0.4,1.4C1.5,3.8,1.3,4.7,1.3,5.6l0,0c0,0.1,0,0.1,0,0.2
		c0,0.4,0,0.7,0.1,1c0.2,0.8,0.1,1.3,0,1.8L1.3,8.9c-0.1,0.3,0,0.6,0.1,0.9c0.1,0.3,0.2,0.6,0.2,1c-0.1,1.3,0,2.2,0.3,2.6
		c0.3,0.5,0.6,1.2,0.3,2.2c-0.3,1-0.2,1.6,0,2.3l0,0.1c0.2,0.6,0.4,1.5,0.1,2.6c-0.1,0.4-0.2,0.7-0.2,0.9c-0.2,0.7-0.3,1.2-0.3,1.6
		c0,0.4,0,0.8-0.1,1.1l0,0.2c0,0,0,0.1,0,0.2c0,0.2,0,0.6-0.1,0.8c0,0.2,0,0.3,0.1,0.4c0.1,0.1,0.2,0.1,0.3,0.2l0,0l0.2,0
		c0,0,0,0,0,0c0,0,0.1,0,0.1,0l0,0c0.1,0,0.2,0,0.2-0.1c0,0,0,0,0.1,0c0,0,0.1,0,0.1,0c0.1,0,0.1,0,0.2,0c0.1,0,0.2-0.1,0.4-0.2
		l0.1-0.1c0.2-0.2,0.3-0.3,0.4-0.7c0,0,0-0.1,0-0.1c0.1,0,0.1,0,0.2,0c0.1,0,0.1,0,0.2,0h0c0.1,0,0.1,0,0.2-0.1
		c0.1-0.1,0.1-0.3,0.2-0.4l0,0l0-0.3l0,0v0l0,0c0-0.1,0-0.5,0-0.8c0-0.3-0.2-0.9-0.3-1.5c-0.1-0.3-0.2-0.6-0.2-0.9
		c-0.1-0.3,0-0.9,0-1.7c0-0.1,0.1-0.3,0.1-0.4l0-0.1c0.2-0.6,0.4-1.2,0.2-2.1c0-0.2,0-0.3,0.1-0.3C4.5,15.7,4.3,15,4,14.3
		c-0.3-0.5,0.1-1.2,0.2-1.3c0.2,0.3,0.4,0.6,0.5,0.9c0.1,0.4,0.3,0.4,0.4,0.4c0.2,0,0.4-0.1,0.6-0.3c0.2,0.1,0.3,0.7,0.1,1.1
		c0,0,0,0.1-0.1,0.2l0,0l-0.2,0.4c-0.3,0.7-0.6,1.4-0.3,2.4c0.4,1.3,0.5,2.3,0.3,3l0,0.1c-0.3,0.8-0.5,1.4-0.4,2
		c0,0.4-0.1,0.7-0.2,0.9c0,0,0,0,0,0l-0.2,0l0.1,0c0,0.1,0,0.1,0,0.2c0,0,0,0,0,0s0,0.3,0,0.6c0,0.2,0.1,0.4,0.3,0.4l0.4,0
		c0.2,0,0.3,0,0.5,0.1c0.1,0,0.2,0.1,0.3,0.1c0,0,0,0,0,0h0.1c0.1,0,0.1,0,0.2,0c0.4-0.1,0.4-0.4,0.3-0.6c0-0.1,0-0.2-0.1-0.2l0,0
		c0,0,0,0,0-0.1c0-0.2-0.1-0.5,0-0.8c0.2-0.7,0-1.7-0.1-2.4c-0.1-0.4-0.1-1,0-1.5l0,0c0.1-0.5,0.2-0.9,0.3-1.2
		c0.4-1,0.4-1.4,0.3-2.2c0-0.6,0-0.9,0.1-1.3c0-0.1,0.1-0.2,0.1-0.4c0-0.1,0-0.3,0.1-0.4c0-0.1,0.1-0.3,0.1-0.4c0,0,0,0,0,0
		c0.1,0.2,0.1,0.3,0.2,0.4c0,0.2,0.1,0.3,0.1,0.5c0,0.8,0.2,1.4,0.5,2.2c0.1,0.2,0.2,0.4,0.3,0.6c0.3,0.6,0.5,1.1,0.5,2.1
		c0,0.1,0,0.2,0,0.3l0,0.2c0,0.4-0.1,0.7-0.1,1c-0.1,0.5-0.1,0.8-0.1,1.3c0.1,0.4,0,0.7,0,1c0,0.1,0,0.2,0,0.3v0c0,0-0.1,0.6,0,1
		c0,0.3,0.3,0.5,0.6,0.5c0.1,0,0.2,0,0.4-0.1c0.1,0,0.1,0,0.2,0c0,0,0,0,0,0c0.1,0,0.1,0,0.2,0c0.1,0,0.1,0,0.2,0
		c0.1,0,0.2,0,0.4-0.1c0.4-0.2,0-1.1-0.1-1.4C10.8,23.7,10.8,23.5,10.9,23.3L10.9,23.3z"/>
	<path class="st2" d="M1.8,18.7c-0.2-0.1-0.3,0-0.3,0c-1,1-0.3,2.4-0.3,2.5c0,0,0.2,0.2,0.3,0.2c0.2-0.1,0.2-0.4,0.1-0.4
		c0,0-0.5-1.1,0.2-1.8C1.8,19.2,2,18.9,1.8,18.7z"/>
	<path class="st2" d="M1.4,18.3C1.2,18.1,1,18.2,1,18.2c-1.2,0.8-0.8,2.3-0.8,2.3c0,0.1,0.2,0.3,0.3,0.2c0.3-0.1,0.2-0.4,0.2-0.4
		c0-0.1-0.3-1.2,0.6-1.7C1.3,18.7,1.5,18.5,1.4,18.3z"/>
</g>
<g>
	<path class="st3" d="M10.7,23.3c0,0-0.5-0.2-0.4-0.5c0-0.3-0.6-0.7-0.6-1.2c0-0.4-0.4-1.2-0.4-1.2c0-0.2,0-0.4,0-0.6
		c0-1.5-0.4-2-0.7-2.8c-0.3-0.8-0.5-1.4-0.5-2.2s-0.4-1.4-0.4-1.4s-0.2,0.7-0.3,1.3c-0.1,0.5-0.3,0.9-0.2,1.7c0.1,0.8,0,1.2-0.3,2.2
		c-0.2,0.4-0.2,0.8-0.3,1.3c0-0.1-0.1-1.1-0.4-1.2c-0.4-0.1-0.9-0.6-0.4-0.4c0.4,0.2,0.4,0.3,0.8,0.1c0.4-0.2,0.2-1.3-0.3-1.5
		c-0.5-0.2-0.6-1-0.6-1s0.2-0.4,0.3-0.5c0.2-0.5,0.1-1.2-0.2-1.3c0,0,1-7.2,0.5-7.9C5.8,5.4,5.9,4.6,6.1,4.2C6.3,3.9,6,3.2,5.7,2.8
		C5.4,2.5,5.1,2.3,5.3,1.9c0.2-0.4-0.2-1-0.3-1C5.4,1,5.7,1,6.1,1.2c1.2,0.4,0.7,1.1,1.7,2.8s0.2,3,0.8,3.9c0.5,0.9-0.7,1.9-0.1,3.7
		c0.7,2,0.8,2.3,1.3,3.3c0.5,1,0.7,2.3,0.4,3.1c-0.3,0.8-0.2,2.2,0.2,3.2C10.8,22.2,10.9,22.5,10.7,23.3L10.7,23.3z"/>
	<path class="st4" d="M5.9,12.3l-0.1,0.9c0,0,0.6,0.2,0.8,0.5c0.2,0.3,0.8,0.6,0.8,0.5s0.2-0.8,0.2-0.8S8,14.2,8,14.5
		c0,0.3,0.4-0.5,0.6-0.8C8.8,13.3,9,13,9,13s-0.4-1.3-0.7-1.4S5.9,12.3,5.9,12.3L5.9,12.3z"/>
	<path class="st5" d="M4.2,24.6c-0.2,0-0.5,0-0.5,0c-0.2-0.1-0.2-0.4-0.2-0.6c0,0,0.1,0,0.1,0c0.5-0.3,0.8,0,0.8,0
		C4.5,24.2,4.4,24.6,4.2,24.6z"/>
	<path class="st6" d="M3.6,24.9c-0.1,0.4-0.1,0.4-0.4,0.7c-0.3,0.3-0.4,0.2-0.6,0.1c0,0-0.1-0.2,0-0.5c0.1-0.4,0.1-0.8,0.1-0.8
		s-0.1-0.5-0.4-0.1c0,0,0,0.4,0,0.6s-0.2,0.8-0.2,0.8c-0.3,0-0.5-0.2-0.4-0.4c0.1-0.3,0.1-0.9,0.1-0.9c0.1-0.7,1.8-0.5,1.8-0.5
		s0.1,0.2,0,0.6C3.7,24.6,3.6,24.9,3.6,24.9z"/>
	<path class="st5" d="M2.6,25.1c-0.1,0.4,0,0.5,0,0.5c-0.2-0.1-0.2,0-0.5,0.1c0,0,0.2-0.6,0.2-0.8c0-0.2,0-0.6,0-0.6
		c0.3-0.4,0.4,0.1,0.4,0.1L2.6,25.1z"/>
	<path class="st6" d="M10.2,25.2c-0.1,0-0.2,0-0.3,0c-0.4,0.1-0.8,0-0.8-0.3C9,24.5,9,24,9,24l0.6,0l-0.5,0.3c0,0,0,0.2,0.3,0.2
		c0.3,0,0.7-0.1,0.8,0.2C10.2,24.8,10.1,25.2,10.2,25.2L10.2,25.2z"/>
	<path class="st5" d="M10.8,25.1c-0.2,0.2-0.4,0.1-0.7,0c0,0,0.1-0.4,0-0.6c-0.1-0.2-0.5-0.2-0.8-0.2c-0.2,0-0.3-0.2-0.3-0.2
		l0.5-0.3l1.1-0.1C10.7,23.8,11.2,24.9,10.8,25.1L10.8,25.1z"/>
	<path class="st4" d="M4.4,23.9c0,0-0.3-0.2-0.8,0c0,0-0.1,0-0.1,0c-0.4-0.2-0.3-2.6-0.2-4.6c0.1-2.2-0.4-5.2-0.7-6.5
		c-0.4-1.3,0.7-2.7,0.5-2c-0.2,0.9,0,1.4,0.4,1.6C3.8,12.6,4,12.9,4,13c0,0-0.5,0.8-0.2,1.4C4.2,15,4.4,15.7,4.3,16
		c-0.1,0.3-0.6,3.8-0.4,4.6C4,21.4,4.4,22.5,4.4,23C4.4,23.5,4.4,23.9,4.4,23.9L4.4,23.9z"/>
	<path class="st6" d="M6.5,25.4c-0.1,0-0.2,0-0.3,0c0,0-0.3-0.1-0.4-0.2C5.8,25,5.4,25,5.3,24.8c0-0.2,0.2-0.6,0.2-0.6l-0.3-0.1
		c0.5-0.2,1.4,0.1,1.4,0.5C6.7,25,6.9,25.3,6.5,25.4L6.5,25.4z"/>
	<path class="st7" d="M4.7,13.9c-0.1-0.4-0.7-1.3-1.2-1.6S3.2,11,3.1,11.4c-0.1,0.4,0,0.8,0.2,1.5c0.1,0.6,0.1,1.9,0.7,3
		s0.3,1.9,0,2.6S3.6,20.2,3.6,21c0,0.9,0.3,1.3,0.2,1.9c-0.1,0.6-0.1,0.6-0.1,1.2c0,0.6-0.5,0.3-0.7,0.2c-0.3-0.1-0.2-0.3-0.6-0.1
		c-0.4,0.1-0.5,0.2-0.5,0s0.1-0.7,0.1-1.2c0-0.5,0.3-1.3,0.6-2.5c0.3-1.2,0-2.1-0.2-2.7c-0.2-0.6-0.3-1.3,0-2.3c0.3-1,0-1.7-0.4-2.3
		c-0.3-0.5-0.3-1.7-0.3-2.5S1.3,9.5,1.4,8.9c0.1-0.6,0.3-1.1,0.1-2.1c-0.2-1,0-2.7,0.4-3.1s0.4-0.9,0.5-1.5c0-0.5,1-1,1-1
		C3.6,1,4.2,0.9,5,0.9l0,0c0,0,0.4,0.6,0.3,1C5.1,2.3,5.4,2.5,5.7,2.8c0.3,0.3,0.6,1,0.4,1.4C5.9,4.6,5.8,5.4,6.2,6
		c0.5,0.6-0.5,7.9-0.5,7.9c-0.1,0-0.1,0-0.2,0C5.2,14.2,4.8,14.3,4.7,13.9L4.7,13.9z"/>
	<path class="st7" d="M10.6,24.3c-0.3,0-0.5-0.3-0.9-0.2c-0.4,0.1-0.4,0.2-0.6,0.1c-0.2-0.1,0.1-0.8,0-1.6c-0.1-0.7,0.1-1.2,0.2-2.2
		c0,0,0.4,0.8,0.4,1.2c0,0.5,0.6,1,0.6,1.2c0,0.3,0.4,0.5,0.4,0.5C10.5,24.1,10.9,24.3,10.6,24.3z"/>
	<path class="st8" d="M1.8,7.6c0,0-0.1,1.3,0.1,1.6s1.1,0,1.3,0.4c0.2,0.4,0.6,1.5,1,1.7c0.4,0.2-0.9,0.2-1.1-0.5S1.3,10.2,1.8,7.6
		L1.8,7.6z"/>
	<path class="st9" d="M8.8,12c-0.1,0-0.2,0-0.4,0c-0.2,0-0.5-0.1-0.8-0.1c-0.3,0-0.3,0.3-0.3,0.3c0,0.2,0.2,0.3,0.2,0.3
		c0.1,0,0.4,0.1,0.3,0.3c-0.1,0.1-0.3,0.3,0,0.4S8,13.7,8,13.7c-0.3,0.1-0.8,0.1-1-0.2c-0.1-0.2-0.3-0.4-0.5-0.6l0,0
		c-0.2-0.2-0.2-0.7-0.2-1.1c0-0.4,0.5-0.9,0.1-1.4c-0.4-0.6-1-0.3-1-0.6S4.9,9.1,5,8.5c0.2-0.6,0.1-0.8-0.1-1.1
		C4.8,7,5.2,6.5,5.3,6.4l0,0C5.9,6,6.5,6,7,6c0,0,0.6,0.3,0.7,0.9c0,0.7,0.2,1.5,0.4,1.7s0.1,1.1,0,1.3c-0.1,0.3,0.1,1.2,0.4,1.6
		l0,0C8.6,11.8,8.7,11.9,8.8,12L8.8,12z"/>
	<path class="st10" d="M2.4,7.1C2.4,7.1,2.4,7.1,2.4,7.1C2.3,7.1,2.3,7.1,2.4,7.1L2.4,7.1C2.3,7.1,2.2,7,2.2,7
		C1.9,6.7,1.7,6.4,1.6,6.1C1.4,5.8,1.3,5.7,1.5,5.6l0,0c0,0,1.5,0.1,1.9,0.8c0.4,0.7,0.4,0.8,0.7,1C4.3,7.6,2.8,7.5,2.4,7.1L2.4,7.1
		z"/>
	<path class="st11" d="M10.5,4.7c-0.2,0.2-0.4,0.5-0.5,1.5c-0.1,1-1.4,1.2-1.4,1.2C8.5,7.3,8.3,7.1,8.6,7c0,0,0.5-0.2,0.7-0.9
		C9.4,5.3,9.6,4.8,10,4.7l0,0C10.4,4.6,10.6,4.6,10.5,4.7L10.5,4.7z"/>
	<path class="st10" d="M5.2,8.7c0,0,0.2,0.2,0.5,0.3c0.3,0.1,0.2,0.4,0.2,0.5c0,0.1-0.4,0.1-0.5-0.1C5.3,9.1,5.4,9,5.4,9
		S5.3,8.9,5.2,8.7L5.2,8.7z"/>
	<path d="M5.6,9c0,0-0.2,0.2-0.1,0.4c0.1,0.2,0.3,0,0.3,0S6,9.1,5.6,9z"/>
	<path class="st12" d="M8.9,12.5c-0.1,0.5-0.4,0.7-0.7,1c-0.1,0.1-0.2,0.1-0.3,0.2l0,0c0,0,0-0.1-0.2-0.3c-0.2-0.2,0-0.3,0-0.4
		c0.1-0.1-0.3-0.2-0.3-0.3c-0.1,0-0.2-0.1-0.2-0.3c0,0,0-0.3,0.3-0.3c0.3,0,0.6,0.1,0.8,0.1c0.2,0,0.3-0.1,0.4,0
		C8.9,12.2,9,12.3,8.9,12.5L8.9,12.5z"/>
	<path class="st8" d="M6.4,6.2c0,0,0.3,0.6,0.1,0.9S5.7,7.4,5.9,7.7C6,7.9,6.4,8.2,6.4,8.6s0.1,0.6,0.5,0.8c0.4,0.1,0.5,0.8,0.6,0.7
		c0.1-0.1,0.1-0.3,0-0.8C7.4,8.8,7.3,8.6,7.3,7.8c0-0.8-0.1-1.5-0.3-1.6C6.8,6.1,6.3,5.9,6.4,6.2L6.4,6.2z"/>
	<path class="st8" d="M6.5,12.9c-0.1-0.1-0.3-0.2-0.4-0.2c-0.4-0.2-1.1-0.9-1.2-1.3c0-0.4-0.4-0.8-0.4-1.3c0.1-0.5-0.1-1.7-0.1-1.9
		c0-0.2-0.1-0.5-1-0.5c-0.4,0-0.8-0.2-1.1-0.5c0.5,0.4,2,0.4,1.7,0.2c-0.3-0.2-0.2-0.3-0.7-1C3,5.7,1.5,5.6,1.5,5.6
		c0.1,0,0.3,0,0.6,0c1,0,1.5,0.4,1.9,0.9S5,6.6,5,6.6c0.1-0.1,0.2-0.1,0.2-0.2c0,0.1-0.5,0.6-0.4,0.9C5.1,7.7,5.2,7.9,5,8.5
		C4.9,9.1,5.2,9.5,5.3,9.8c0,0.3,0.7,0,1,0.6c0.4,0.6-0.1,1.1-0.1,1.4C6.2,12.2,6.2,12.7,6.5,12.9L6.5,12.9z"/>
	<path class="st5" d="M6.3,25.4c-0.2,0-0.4-0.2-0.8-0.2C5,25.2,5,25.3,4.9,25s0-0.6,0-0.6c0-0.1,0.2-0.2,0.3-0.3l0.3,0.1
		c0,0-0.2,0.4-0.2,0.6s0.5,0.2,0.6,0.3C6,25.3,6.3,25.4,6.3,25.4L6.3,25.4z"/>
	<path class="st7" d="M6.2,18.6c0.3,0.2,0.3,1.1,0.3,1.2l0,0c-0.1,0.6-0.1,1.1,0,1.5C6.7,22,6.8,23,6.6,23.7c-0.2,0.7,0.2,1.1,0,1.1
		c-0.2,0.1-0.5-0.4-1-0.5c-0.5-0.1-0.8,0.3-0.8,0.1c0-0.2,0.3-0.6,0.2-1.2c-0.1-0.6,0.2-1.3,0.5-2.1c0.3-0.8,0.1-1.8-0.3-3.1
		c-0.3-1,0-1.7,0.2-2.3c0,0,0.1,0.7,0.6,1c0.5,0.2,0.7,1.4,0.3,1.6c-0.4,0.2-0.5,0-0.8-0.1c-0.4-0.2,0,0.2,0.4,0.3
		C6.1,18.5,6.2,18.6,6.2,18.6z"/>
	<path d="M7.4,12.3c0,0,0,0.3,0.3,0.4c0.3,0.2-0.3,0-0.4-0.1C7.2,12.4,7.3,12.1,7.4,12.3L7.4,12.3z"/>
	<path class="st8" d="M10,4.7C9.6,4.8,9.4,5.3,9.3,6.1C9.1,6.9,8.6,7,8.6,7C8.3,7.1,8.5,7.3,8.7,7.4C9,7.8,9,8.5,8.8,9.1
		c-0.2,0.6-0.4,1.5-0.4,2.1c0,0.2,0.1,0.3,0.1,0.4C8.2,11.2,8,10.3,8.1,10c0.1-0.3,0.2-1.1,0-1.3C7.9,8.5,7.8,7.6,7.7,7
		C7.7,6.3,7,6,7,6c0.2,0,0.5,0.1,0.7,0.1c0.8,0,0.3-0.4,1.3-1C9.4,4.9,9.8,4.8,10,4.7L10,4.7z"/>
	<path class="st13" d="M8.6,9c0,0,0.1,0,0.1,0.3c0,0.3-0.2,0.3-0.3,0.2c0.1,0.1,0.3-0.2,0.3-0.3C8.5,9.1,8.5,9,8.6,9
		c0.1-0.1,0.4-0.4,0.4-0.4C8.9,8.8,8.6,9,8.6,9L8.6,9z"/>
	<path d="M8.3,9.6C8.3,9.4,8.3,9.1,8.5,9c0,0,0.1,0.1,0.1,0.2C8.7,9.4,8.5,9.6,8.3,9.6z"/>
	<path d="M8.3,9.3c0,0,0-0.2,0.2-0.3c0.2-0.1,0.3-0.2,0.4-0.3c0,0-0.1,0.2-0.2,0.3L8.6,9c0,0,0.2,0,0.3-0.2c0,0,0,0.2-0.2,0.2
		c0,0-0.1,0-0.1,0.1c0,0,0-0.1-0.1-0.1C8.4,9.1,8.3,9.3,8.3,9.3L8.3,9.3z"/>
	<path d="M5.8,9.2c0,0,0-0.2-0.3-0.2C5.3,8.9,5.1,8.6,5.1,8.6s0,0.1,0.2,0.3L5.4,9c0,0-0.1,0-0.2-0.1c0,0,0,0.1,0.1,0.1
		C5.4,9,5.7,9,5.8,9.2L5.8,9.2z"/>
	<circle class="st14" cx="5.6" cy="9.1" r="0"/>
	<circle class="st14" cx="8.6" cy="9.1" r="0"/>
	<path class="st15" d="M1.2,21.2c0,0-0.7-1.3,0.3-2.3c0,0,0.1,0,0.2,0s0,0.1,0,0.2c-0.8,0.9-0.3,2-0.2,2c0,0.1,0,0.1,0,0.2
		C1.3,21.3,1.3,21.2,1.2,21.2z"/>
	<path class="st15" d="M0.3,20.5c0,0-0.4-1.4,0.7-2.2c0.1,0,0.1,0,0.2,0c0,0.1,0,0.1,0,0.2c-1,0.7-0.7,1.9-0.6,1.9
		c0,0,0,0.1-0.1,0.2C0.4,20.6,0.3,20.5,0.3,20.5z"/>
</g>
<path class="st2" d="M10.9,15.8c0.7,0.8,0.1,1.8,0.1,1.8c0,0.1-0.1,0.3,0.1,0.4c0.2,0.1,0.3-0.1,0.3-0.1c0-0.1,0.8-1.4-0.1-2.5
	c0,0-0.1-0.2-0.3-0.1C10.7,15.6,10.9,15.8,10.9,15.8z"/>
<path class="st2" d="M11.4,15.4c0.8,0.6,0.5,1.7,0.4,1.8c0,0-0.1,0.3,0.2,0.4c0.2,0.1,0.3-0.1,0.4-0.2c0,0,0.5-1.5-0.6-2.4
	c0,0-0.2-0.1-0.4,0C11.2,15.2,11.4,15.4,11.4,15.4z"/>
<path class="st15" d="M11.1,17.9c0,0-0.1-0.1,0-0.2c0,0,0.7-1.1-0.1-2c0,0,0-0.1,0-0.2c0,0,0.1,0,0.2,0c0.9,1,0.1,2.3,0.1,2.3
	C11.3,17.9,11.2,18,11.1,17.9z"/>
<path class="st15" d="M12.1,17.4c-0.1,0-0.1-0.1-0.1-0.2c0-0.1,0.4-1.2-0.5-2c0,0-0.1-0.1,0-0.2c0,0,0.1-0.1,0.2,0
	c1.1,0.8,0.6,2.2,0.6,2.2C12.3,17.3,12.2,17.4,12.1,17.4z"/>
</svg>
