<?xml version="1.0" encoding="UTF-8"?><svg id="Symptoms" xmlns="http://www.w3.org/2000/svg" viewBox="0 0 32.06 32"><defs><style>.cls-1{fill:#fff;}.cls-2{fill:#9fd4cb;}.cls-3{fill:#78c9db;}</style></defs><g id="ic_decrease"><path class="cls-1" d="M13.25,2.71s.15,3.57-1.22,6.31-1.19,6.07-1.19,6.07v14.29s0,.08,.02,.12c.13,.32,.78,1.78,5.72,1.84s5.73-1.48,5.92-1.83c.03-.05,.03-.1,.03-.15,0,0,.21-13.68,.21-14.24s-.14-3.67-1.45-6.21c-1.5-3.66-1.16-6.19-1.16-6.19,0,0,.11,.01,.26-.05s.14-.13,.14-.13V1c0-.19-.16-.34-.34-.34h-7.01c-.19,0-.34,.15-.34,.34l.02,1.52s-.02,.07,.12,.13,.27,.05,.27,.05Z"/><path class="cls-3" d="M20.32,2.51s-.98,.25-3.63,.25-3.63-.25-3.63-.25V1.05c0-.12,.09-.21,.21-.21h6.85c.12,0,.21,.09,.21,.21v1.46Z"/><path class="cls-2" d="M13.62,3s.91,.14,2.94,.16,3.12-.16,3.12-.16c0,0-.24,3.16,.93,5.78,1.07,2.16,1.46,3.53,1.46,8.92s-.06,11.57-.06,11.57c0,0-.78,1.5-5.33,1.5s-5.38-1.63-5.38-1.63l.06-14.57s0-3.03,1.41-5.58c.99-2.18,.85-5.99,.85-5.99Z"/><path class="cls-1" d="M11.75,28.92s.81,1.39,4.94,1.39,4.94-1.39,4.94-1.39v-6.63s-.89,1.08-3.85,1.05-3.91-2.01-6.03-2.03v7.61Z"/></g></svg>