<?xml version="1.0" encoding="UTF-8"?>
<svg id="Livello_1" data-name="Livello 1" xmlns="http://www.w3.org/2000/svg" version="1.1" viewBox="0 0 150.6 114.6">
  <defs>
    <style>
      .cls-1 {
        fill: #6c2c20;
      }

      .cls-1, .cls-2, .cls-3, .cls-4, .cls-5, .cls-6, .cls-7, .cls-8, .cls-9, .cls-10, .cls-11, .cls-12 {
        stroke-width: 0px;
      }

      .cls-2 {
        fill: #ea5762;
      }

      .cls-3 {
        fill: #1e1109;
      }

      .cls-4 {
        fill: #211f20;
      }

      .cls-13 {
        fill: none;
        stroke: #fff;
        stroke-linecap: round;
        stroke-linejoin: round;
        stroke-width: 2px;
      }

      .cls-5 {
        fill: #222221;
      }

      .cls-6 {
        fill: #fdcb9d;
      }

      .cls-7 {
        fill: #824f33;
      }

      .cls-8 {
        fill: #432121;
      }

      .cls-9 {
        fill: #19100b;
      }

      .cls-10 {
        fill: #97857b;
      }

      .cls-11 {
        fill: #a16239;
      }

      .cls-12 {
        fill: #cc8d57;
      }
    </style>
  </defs>
  <path class="cls-13" d="M130.6,90.1s0,0,0,0c0,0,0,0,0,0-.1-.2-2.5-2.5-2.9-3.1s.2-1.1.1-1.9c0-.8-2-2.7-2.4-3.2-.4-.5-1.7-.6-2.8-.9-1.8-.5-5.5,1.1-7.3,1.9h.1c0-.2-.4-.5-.5-.5l-53.2-29.6c0-.2,0-.4,0-.6-.1-1.3-.7-1.8-1.2-2.4-.5-.6-1.8-.9-2-1-.2,0-2.2-2.7-3.6-4.5-1.4-1.7-6.5-6.1-7-6.7-.5-.6-.9-1.4-1.4-2.5,0-.4,0-.8,0-1.1.1-.8.4-1.3,1-2,.6-.7.9-1.4.8-2.7,0-1.4-1.5-2.8-2.6-3.8-1-1-5.1-5.5-6.2-6,0,0-.2,0-.3-.1,0,0,0,0,0,0,0-.3.3-1.4.4-2.1.2-.7.4-1.6.9-2.1.5-.5,1.5,0,2-.1.7-.4.6-1,.5-1.2,0-.2.1-.5.2-.6s0-.4,0-.4c0,0,.3-.3.2-.5,0-.2.1-.5.2-.7.1-.2.7-.5.6-.8,0-.2-.6-.6-.8-1-.2-.3-.3-2.1-.4-3.2,0-1.1-1-1.8-1-1.8.4-.1.2-.2,0-.5-.2-.2-1.1-1.9-5.7-1.2-.8.1-2.7.5-3.6,1.5-1.5,1.4-2,5.3-2.2,6.9,0,.5-.3,1.6-.6,2.4-.6,1.4-1.4,2.6-1.9,3.5-.7,1.3.2,5.1-.2,6.2-.3,1.1-1.3,2.4-1.8,3.4-.5,1,.1,3.6-.2,4.8-.3,1.2-1.7.9-2.4.6-.7-.3-1-.2-1-.2-.2,1.2.6,3.2,2.8,3.4,2.2.2,2.6-1.1,3-1.5s.6-2,.9-3c.3-.8,1.2-1.3,2-2.3,0,0,0,.1,0,.2-.5.9-1.3,2.2-1.4,2.4-.2.3-2.2,4.9-2.4,5.3-.2.5.2,1.3.2,1.3,0,0,3.7,10.3,3.7,10.9s.5,1,.7,1.3c.1.2.8,1.4,1.2,2.2,0,.1-.1.2-.2.4-2,3.7-1.5,11.5-1.5,11.5,0,0-1.9,13.2-2.8,15.6s-3.4,4-5.5,6.5c-1.9,2.2-5.4,13.3-6,15.4l-1-.6s-3.4,6.2-3.4,7.3c0,2.5,5.5,4.1,5.8,4.4s2.4.3,4,.3,2.2-.6,1.9-1.1c-.3-.5-3-1.6-3-1.6-.4-.6-2-2.8-2-2.8,0,0,.8-1.5,1.3-2.1s.9-1.3.9-1.3l-1.2-.7c.4-.5,2.1-2.7,2.3-3,1-1.3,8-10,10.2-13.1,2.8-4.1,8-19.4,8-19.4,0,0,6.6,11.6,7.3,12.7.8,1.1,2.1,3.1,3.1,9.1,1,5.8,8.5,14.6,9,15.1-.3.2-.5.4-.5.4,0,0,.2.9.3,1.3s1.2,4.4,1.3,4.8c.1.4.4.3,1,.2.6-.1,4.9-1.6,5.8-1.9.9-.3,3.8-2,4.1-2.3.3-.2-.5-1-1-1.5s-1.6-.3-2.1-.3-2.3.3-3.3,0c-1-.3-2.6-2.6-2.8-2.8,0,0-.4.1-.8.4l-1.6-6.9s-3.2-12.8-4-16.6-3.2-12.3-4.3-16.3-4.6-15.8-4.6-15.8c.4,0,0-2.2,0-3.3,0-.1,0-.3,0-.6.6.5,1.4,1,2.3,1.7,2.5,1.7,5.7,3.7,6.1,4.4.2.3.3.7.3,1.1,0,.2-1.6,5.5-.7,7,.7,1.2,1.2.1,1.4-.4.4-1.2.5-2.1.7-3.1,0,0,0,0,0,0,.4.6.9,1.1,1,1.2.2,0,.3-.1.3-.3s0-.9.2-.9c.2,0,.3.9.5,1,.2,0,.5-.1.5-.1,0,0,0-1.5.2-1.5s.1,1.1.6,1.1c0,0,.1-.3.2-.7l52.2,28.7s0,0,0,0c0,0,0,0,0,0-3.6-.1-16.8-1.2-19.6-.8-2.9.4-6.2,3-8.1,2.7s-4.3,1.1-5.6,0c-1.4-1.1-2.9-3.5-3.1-4.6s-1.4-3.9-2.8-4.7c0,0-6.3-.7-4.2,2.9,2.1,3.5,3.8,11.4,8.6,11.4s5.6-1.7,5.6-1.7c0,0-.2.3-.4.9,0,0,0,0-.1.2-2.4,3.2.5,9.5.6,11,0,1.4-2.3,2.9-2.7,3.3-.4.3-.5.7-.6,2.8-.1,2.1-1.1,3.8-1.1,4.5s3.8.7,3.8.4-.9-.4-1.1-.7c-.3-.3,0-.9.2-1.9.3-1,1.1-2.3,1.6-3.1.5-.7.8-.9,4.4-3.5,0,0,0,0,.1,0,.6.9,1.1,1.6,1.3,2.1.6,1.6.3,2.8.3,2.8,0,0,3.2,4.6,4.6,4.6s1.9-.2,2.2-.2.7-.3.7-.6-.4-.2-1-.4c-.6-.2-2.5-1.8-2.8-2.7-.3-1-.3-2.5,0-3.7s.2-2.4.4-3.2c.3-1,1-1.7.9-2.6,0,0,2.2-.6,4.2-.6s3.4,2.9,6.7,2.5c0,0,0,.3.1.7,0,.3,0,.6,0,1,0,1.5.1,3.7,0,4.7s-.5,2-.3,2.4c.2.4.4.2.4,1,0,.8.2,1,.4,1.2.4.4,2.6.6,2.5.2s-.7-1.2-.7-2.3c0-1.1.7-3.9.7-4.9,0-.2,0-.6.2-1.2,2.3.9,5.5,2.1,6.5,3,1.5,1.2,1.5,4.2,3.2,4.6,1.6.3,4.8.2,4.1-.6s-2.4-2-3.3-3c-1-1.1-1-1-1.7-2.5s-1-.4-4.2-3.1c-3.2-2.7,1.8-.5,2.9-5.1.3-1.2.4-2.1.4-2.9,0,0,.1.2.2.2.5.2,1-.6,1-.6,0,0,0,0,0,0,1.3-.2,2.2-1.4,2.4-1.3.2.2,3.1,3.4,4.9,2.7.9-.3.9-.5.8-.6.2-.3,0-.8-.2-.9,0,0,0,0-.1-.1.8,0,1.6,0,2.1-.2.3,0,.6-.3.8-.5.4-.2.9-.8.7-1.3ZM35.3,48.6c-.3-.3-.6-.7-.7-.9-.2-.4-1.3-4.5-1.5-5.5-.3-1.1-.8-3.9-.7-4.7,0-.5.8-2.7,1.2-3.9.4,1.1,1.1,3.2,1.4,3.9.3.9,1.3,4.7,1.4,6.5,0,1.8-.1,2.5-.2,3.2,0,0-.3.5-.8,1.5ZM58,53.7c0-.2-.8,3.3-.9,3.5-.3.5-.6.1-.5-.8.1-1.4.6-4.4.6-4.4,0,.4.4,1,.9,1.6,0,0,0,0,0,0ZM56.9,50.7c0,0,0,.1,0,.2v-.2ZM115.2,82.8c-.1,0-.2.1-.3.2,0,0,0,0,0,0l.3-.2Z"/>
  <g>
    <path class="cls-6" d="M42.3,4.4s.9.7,1,1.8.2,2.9.4,3.2.8.7.8,1-.5.6-.6.8-.3.6-.2.7-.2.5-.2.5c0,0,0,.3,0,.4s-.2.4-.2.6.2.8-.5,1.2-1.5-.4-2,.1-.8,1.4-.9,2.1-.5,1.8-.4,2.1-2.5,0-2.5,0c0,0,1.6-1.9,1.9-3.3s.8-3.4.7-5,0-3.9.5-4.8,1-1.3,2.4-1.6Z"/>
    <path class="cls-6" d="M33.8,32.6s-1.4,4.1-1.5,4.9.5,3.6.7,4.7,1.3,5.1,1.5,5.5,1.3,1.6,1.3,1.6l-2,3.6s-1.4-2.7-1.6-3-.7-.7-.7-1.3-3.7-10.9-3.7-10.9c0,0-.4-.8-.2-1.3s2.3-5,2.4-5.3,1.8-3.2,1.8-3.2l1.8,4.8Z"/>
    <path class="cls-2" d="M35.8,19s2.9-.2,3.9.3,5.1,5.1,6.2,6,2.5,2.4,2.6,3.8-.2,2-.8,2.7-.9,1.2-1,2,0,2,0,2c0,0,1.6,7.1,1.7,8.2s.4,3.2,0,3.3-9.4,0-9.4,0c0,0-2.8.3-2.8-.3s.2-1.4.2-3.2-1.1-5.6-1.4-6.5-1.3-3.9-1.7-4.5-1.9-4.9-1.9-4.9c0,0,.4-5.8.4-5.9s3.2-3.2,3.2-3.2h.9Z"/>
    <polygon class="cls-5" points="60.1 51.7 115 82.2 114.2 82.6 61.1 53.4 60.1 51.7"/>
    <path class="cls-5" d="M48.2,47.3s3.5,11.8,4.6,15.8,3.4,12.5,4.3,16.3,4,16.6,4,16.6l1.6,6.9-2.1,1.7s-7.9-9.1-9-15.2-2.3-8-3.1-9.1-7.3-12.7-7.3-12.7c0,0-5.2,15.3-8,19.4s-9.2,11.8-10.2,13.1-2.4,3.1-2.4,3.1l-3.3-1.7s4-13.2,6.1-15.7,4.6-4.2,5.5-6.5,2.8-15.6,2.8-15.6c0,0-.4-7.7,1.5-11.5s2.8-5.3,2.8-5.3l12.1.2Z"/>
    <path class="cls-2" d="M60.1,105s3.1-2.7,3.3-2.5,1.9,2.5,2.8,2.8,2.8,0,3.3,0,1.5-.2,2.1.3,1.4,1.3,1,1.5-3.2,2-4.1,2.3-5.2,1.8-5.8,1.9-.8.2-1-.2-1.3-4.4-1.3-4.8-.3-1.3-.3-1.3Z"/>
    <path class="cls-2" d="M16.4,100.7l5.5,3.1s-.3.7-.9,1.3-1.3,2.1-1.3,2.1c0,0,1.6,2.2,2,2.8,0,0,2.8,1.1,3,1.6s-.3,1.1-1.9,1.1-3.6,0-4-.3-5.8-1.9-5.8-4.4,3.4-7.3,3.4-7.3Z"/>
    <path class="cls-4" d="M30.7,11.1c.2-1.6.8-5.5,2.2-6.9s2.8-1.4,3.6-1.5c4.6-.7,5.6,1,5.7,1.2s.4.4,0,.5c-.7.2-1.7,1.3-2.5,2.8s-.4,2.5-.4,3c0,1.8-.2,3.8-.7,5.6s-1.9,3.3-1.9,3.3c0,0-3.7.2-4,2.9s0,4.3-.9,5.7-2.2,1.9-2.5,2.9-.5,2.5-.9,3-.8,1.7-3,1.5-3-2.1-2.8-3.4c0,0,.2-.1,1,.2s2.1.6,2.4-.6-.3-3.7.2-4.8,1.4-2.3,1.8-3.4-.5-4.9.2-6.2,1.3-2.1,1.9-3.5.5-1.8.6-2.4Z"/>
    <g>
      <g>
        <path class="cls-11" d="M91.8,89.5c1.3,1.6,1.1,9.6-2.4,12.2-3.6,2.6-3.9,2.7-4.4,3.5-.5.7-1.4,2-1.6,3.1s-.5,1.7-.2,1.9c.3.3,1.2.4,1.1.7s-3.8.3-3.8-.4,1-2.4,1.1-4.5.2-2.5.6-2.8,2.7-1.8,2.7-3.3c0-1.4-2.9-7.8-.6-11,2.4-3.2,6.6-.6,7.5.5Z"/>
        <path class="cls-11" d="M107.5,110.5c.4.4,2.6.6,2.5.2s-.7-1.2-.7-2.3c0-1.1.7-3.9.7-4.9s1.2-5,1.1-5.9c-.1-.9-3.3-2.3-3.6-.9-.2,1.4-.5,3-.6,4.5,0,1.5.1,3.7,0,4.7-.1,1-.5,2-.3,2.4.2.4.4.2.4,1,0,.8.2,1,.4,1.2Z"/>
        <path class="cls-12" d="M114.2,82.6c-3.4,0-16.9-1.2-19.8-.9-2.9.4-6.2,3-8.1,2.7-1.9-.3-4.3,1.1-5.6,0-1.4-1.1-2.9-3.5-3.1-4.6-.2-1-1.4-3.9-2.8-4.7,0,0-6.3-.7-4.2,2.9s3.8,11.4,8.6,11.4,5.6-1.7,5.6-1.7c0,0-1.5,2.6-.3,6.6.4,1.6,5.7,7.6,6.3,9.2s.3,2.8.3,2.8c0,0,3.2,4.6,4.6,4.6s1.9-.2,2.2-.2.7-.3.7-.6-.4-.2-1-.4c-.6-.2-2.5-1.8-2.8-2.7-.3-1-.3-2.5,0-3.7.3-1.2.2-2.4.4-3.2.3-1,1-1.7.9-2.6,0,0,2.2-.6,4.2-.6s3.4,2.9,6.7,2.5c0,0,0,1.3,1.2,1.9,1.2.6,7.2,2.7,8.7,3.8,1.5,1.2,1.5,4.2,3.2,4.6,1.6.3,4.8.2,4.1-.6s-2.4-2-3.3-3c-1-1.1-1-1-1.7-2.5s-1-.4-4.2-3.1c-3.2-2.7,1.8-.5,2.9-5.1,1.1-4.6-.3-5.7-.7-6.5-.4-.7-1.9-2.4-2.3-4s0-2.4-.5-2.4Z"/>
      </g>
      <g>
        <path class="cls-1" d="M123.2,89.7c.2-.3,1.2.5,1.5.8.3.3,2.1,1.4,2.3,1.6.3.3.7,1.4-.8,1.1-1.8-.3-3.4-2.9-3-3.4Z"/>
        <path class="cls-12" d="M122.6,80.8c1.1.3,2.4.4,2.8.9.4.5,2.4,2.4,2.4,3.2s-.4,1.3-.1,1.9c.3.6,2.7,3,2.9,3.1.1.2-.2,1.6-1.4,1.9-1.2.3-3.6.4-4.9-1.2l-.7-.7c-.5,0,0,.8.2,1s1.2,1.7,3.2,2c0,0,1.1.1-.4.7s-4.7-2.5-4.9-2.7c-.2-.2-2.7,3.3-5-.3-2.3-3.5-3.1-7.1-1.4-8,1.8-.8,5.5-2.4,7.3-1.9Z"/>
        <path class="cls-8" d="M124.8,86.4c-.1-.2.6-.1.9-.3.3-.2.6,0,.7.2,0,.1.2.5,0,.6-.2.2-1.1.4-1.6-.5Z"/>
        <path class="cls-3" d="M125.3,86.4c0,0,.3-.1.4-.2,0,0,0,0,.1,0,.1,0,.3,0,.4,0,0,0,.2.3,0,.6-.1.2-.9,0-.9-.3,0,0,0,0,0,0Z"/>
        <path class="cls-9" d="M129.6,91.4c.3,0,1.2-.7,1-1.3,0,0,0-.2-.5-.1s-.7-.4-1,0,.2,1.3.5,1.4Z"/>
        <path class="cls-10" d="M126,86.3s0,0,0,0,0,0,0,0,0,0,0,0,0,0,0,0Z"/>
        <path class="cls-7" d="M122.7,83.2c.2-.1.3-.1.3,0,0,.2-.1.3-.2.4-.1.1-.2.3-.3.5,0,.2,0,.4-.2.6-.1.1-.3.1-.4,0,0-.1,0-.3,0-.5,0-.4.3-.6.6-.9h0Z"/>
        <path class="cls-11" d="M122.9,83c.2.3-.8.5-1,1.9-.2,1.3.4,3.1-1.1,4.5-.2.2-.6.2-.9,0-.9-.8-2.9-2.9-2.9-4.1,0-1.5.8-2.4,1.5-2.7.7-.3,3.4-1.3,4.4.3Z"/>
      </g>
      <path class="cls-5" d="M115.5,82.6c0,0-.4-.4-.5-.4,0,0-.7,0-.8,0,0,0-.2.4-.2.5,0,0,0,0,0,0,0,.1.2.4.5.5l1-.6Z"/>
      <path class="cls-5" d="M119.3,92.2s-.6.8-1,.6c-.2-.1-1.6-2.1-2.6-3.9-.9-1.6-1.6-4.1-1.5-5.4,0-.3.3-.5.6-.6.4,0-1.1,1.1,1.2,4.5,2.5,3.8,3.3,4.8,3.3,4.8Z"/>
    </g>
    <path class="cls-5" d="M56.9,50.6s-1.6,5.5-.7,7,1.2.1,1.4-.4c.4-1.2.5-2.1.7-3.1s-.3-.4-.3-.4c0-.2-.8,3.3-.9,3.5-.3.5-.6.1-.5-.8.1-1.4.6-4.4.6-4.4l-.2-1.5Z"/>
    <path class="cls-6" d="M35.2,22.7s.8-2.2,2.5-2.4,3.6,3.1,4.2,4.6,3.9,8.5,4.5,9.8,1.1,2.1,1.6,2.8,5.6,5,7,6.7,3.4,4.4,3.6,4.5,1.5.4,2,1,1.1,1.1,1.2,2.4,0,2.6-.1,2.6c-.4,0-.5-1.1-.6-1.1s-.2,1.5-.2,1.5c0,0-.3.2-.5.1s-.3-1-.5-1-.2.7-.2.9,0,.4-.3.3-1.9-2.4-2.1-3.2-.1-1.8-.5-2.6-3.6-2.7-6.1-4.4-3.5-2.6-4.7-3.7-1.9-1.2-3.2-3.2-4.6-6.7-4.6-6.7c0,0-2.1-3.5-2.6-5s-.6-2.4-.2-3.9Z"/>
  </g>
</svg>