<?xml version="1.0" encoding="UTF-8"?><svg id="how_to_prevent" xmlns="http://www.w3.org/2000/svg" viewBox="0 0 32 32"><defs><style>.cls-1{fill:#eae4d8;}.cls-2{fill:#6c412c;}.cls-3{fill:#7d4b33;}.cls-4{fill:#91573b;}.cls-5{fill:#1c1c1c;}</style></defs><g id="ic_facilities"><path class="cls-1" d="M21.34,9.12s.16-1.03,.45-1.74c.29-.71-.58-2.48-.58-2.48l-1.64-3.42,1.77,2.48s.39,.23,.81-.48,.74-2,.74-2c0,0,.26,1.87-.74,3.42-.23,.4,.1,1.61,.1,1.61,0,0,.1,.58,.48,.77s.94,.29,1.39-.16,1.04-1.01,1.43-2.21,.29-1.53,.29-1.53c0,0,.53,1.32-.24,3s.97,.32,.97,.32c0,0,.89-.7,1.03-1.4,0,0,.45,1.85-2.1,2.44s-3.2,.45-3.2,.45c0,0-.55,.53-.39,.86s-.56,.07-.56,.07Z"/><path class="cls-1" d="M21.08,8.19c-.25-.39-1.16-.86-1.69-1.2s-.67-.72-.67-.72c0,0,.52-.25,.9-.34s1.28-.7,1.28-.7c0,0-1.16,.41-1.57,.29s-.48-.39-.29-1.02,.39-.9,.39-.9c0,0-.3,.09-.59,.65-.38,.95-.48,1.7-.69,1.62s-1.24-.58-1.35-1.53c-.12-.95-.13-1.34,.12-1.65,.33-.45,.4-.61,.4-.61,0,0-.45,.08-.71,.46s-.36,.79-.36,.79V1.83s-.68,1.47,0,2.79c.68,1.32,2.46,2.44,2.46,2.44,0,0,1.21,.7,1.6,1.13s.49,.88,.49,.88l.63,.04s-.11-.53-.35-.92Z"/><path class="cls-2" d="M9.52,21.84s1.31-1.09,1.49-1.06,.77,.32,.93,.33-.63,1.74-1.55,2.67l.27,1.24s1.28,1.52,1.81,1.92,.91,1.16,1.03,1.43,.39,.86,.39,1-.04,.57-.79,.28c-.75-.29-.31-1.2-.31-1.2,0,0-.11-.25-.3-.19s-.26,.25-.4,0-.08-.7-.14-.82-1.98-1.93-1.98-1.93c0,0-1.71-.86-1.22-1.62,.18-.25,.57-.55,.57-.55l.21-1.51Z"/><path class="cls-2" d="M21.78,9.12s.89-.45,1.3-.5c0,0,.72-.35,.81-.26s-.34,1.02-.57,1.14-.28,.34-.79,.36"/><path class="cls-4" d="M19.83,10.06s-1.74-1.1-1.19-2.14c0,0,.33,.18,.73,.29s.87,.15,1.28,.64l.34,.21h.41l1.61,.46,.23,.22s.1,0,.19,.09,.09,.38,.09,.55,.29,.38,.51,.51,1.38,.54,1.34,.77,.15,.3,0,.54c0,0,.04,.16-.14,.21,0,0,0,.25-.72,.24s-1.77,.01-1.77,.01c0,0-.82,.13-.9,.12,0,0-.03,.26,.09,1.51s0,2.53-.29,3.22c-.28,.69-1.16,1.79-1.16,1.79,0,0-.04,1.27-.5,1.88v2.97l.66,3.81s.53,.68,.58,1c.05,.32,.61,.19,.9,.71s-.85,.53-.85,.53c0,0-.57-.77-.71-.82s-.24,.08-.24,.08c0,0-.27-.08-.35-.71s-.55-2.3-.55-2.3c0,0-.49-1.4-.7-2.22-.21-.82-.93-2-.93-2,0,0-1.1,1.59-1.15,2.09s-.85,2.06-.93,2.24-.47,1.8-.33,2.49c.14,.69,.49,.9,.49,.9,0,0,.26,.71-.52,.61s-.54-1.24-.54-1.24c0,0-.19,.03-.32,.19s.03-.42,.21-1.35,.37-3.09,.68-3.92c.3-.82,.3-2.88,.3-2.88,0,0-2.38,.21-4.55-.63,0,0,0-.45-1.53,.87-1.53,1.32-2.41,1.77-2.41,1.77,0,0-.53,1.08-1.11,1.61s-.77,3.36-.77,3.36c0,0,.21,.77,.32,.93s.69,.45,.61,.66,.69,.66,.03,.65-.98-.09-1.14-.8c-.16-.71-.4-.48-.4-.48,0,0-.21,.42-.26,.19s-.29-.48,.21-1.98,.58-2.73,.58-2.73c0,0-.4-1.59,.21-1.93,.61-.34,1.24-.93,1.24-.93,0,0,.61-1.52,.5-1.85-.1-.29-1-1.73-.95-3.02,0-.15,.02-.29,.06-.43,0,0-.66-.5,.77-1.24,1.43-.74,2.75-1.38,5.71-.37s5.03,.26,5.03,.26c0,0,1.71-1.4,1.87-2.56,.16-1.16,.26-1.43,.26-1.43,0,0-.5-1.05-.3-1.61l.18,.42Z"/><path class="cls-1" d="M21.44,10.18s.5-.16,.79,0,.42,.32,.42,.32c0,0-.32,.13-.7,.02-.17-.05-.32-.2-.51-.33Z"/><path class="cls-5" d="M21.87,10.3s.28-.09,.44,0,.23,.18,.23,.18c0,0-.18,.07-.39,.01-.09-.03-.18-.11-.29-.19Z"/><path class="cls-3" d="M20.45,19.28s-.91,1.17-1.92,1.59c0,0-.24,.92-.76,1.33,0,0,.9-.37,1.08-.84,.09-.01,1.4-1.31,1.59-2.08Z"/><path class="cls-3" d="M11.49,19.08s-.11,1.39-.48,1.53c0,0,1.39,.82,4.66,.71,0,0-.44-1.35,.33-1.94,0,0-.61,.33-1.07,1.36,0,0-2.47,.17-2.94-.39,0,0-.06-.88-.5-1.28Z"/></g></svg>