<?xml version="1.0" encoding="UTF-8"?>
<svg id="Symptoms" xmlns="http://www.w3.org/2000/svg" viewBox="0 0 32 32">
  <defs>
    <style>
      .cls-1 {
        fill: #fff;
      }

      .cls-2 {
        fill: #d99898;
      }

      .cls-3 {
        fill: #c46769;
      }

      .cls-4 {
        fill: #c98d8d;
      }
    </style>
  </defs>
  <g id="ic_epididymits">
    <path class="cls-1" d="m30.22,15.34c1.12,5.89-1.67,11.32-6.24,12.1-2.92.5-5.85-1-7.88-3.68-1.82,2.17-4.37,3.42-7.02,3.17-4.68-.47-7.91-5.52-7.22-11.27.08-.58.19-1.14.31-1.67v-.02c-.23-.45-1.68-3.6.75-5.82.65-.59,1.06-1.47,1.31-2.49.09-.37.8-2.23,2.19-2.59s-.13,2.52.69,2.05c.49-.28,1.05-.55,1.67-.75,2.62-.87,6.25-.19,6.73,2.04.12.61,1.35.73,1.53.05.45-2.3,3.97-3,6.53-2.11.87.29,1.61.73,2.21,1.16.04.03.14.04.14-.07,0-.26-.21-.83.35-.52.55.29,1.28,1.12,1.62,1.9s1.7,2.2,1.7,2.2c1.64,1.88.36,5.15.36,5.15.09.39.19.76.27,1.17Z"/>
    <ellipse class="cls-2" cx="10.24" cy="16.19" rx="9.13" ry="6.75" transform="translate(-6.98 24.58) rotate(-83.67)"/>
    <path class="cls-4" d="m15.92,10.75s-2.49,3.6-2.49,6.57.56,4.09,1.7,4.73c0,0,1.59-2.03,1.82-5.11.37-3.83-1.03-6.18-1.03-6.18Z"/>
    <ellipse class="cls-2" cx="21.94" cy="16.46" rx="6.87" ry="9.29" transform="translate(-2.59 4.18) rotate(-10.28)"/>
    <path class="cls-4" d="m26.33,5.65c.01.46.03.92.05,1.34s-.06.99-.33.71l1.84,1.43c-.62-.62-.97-1.64-1.14-2.77-.14-.18-.28-.42-.42-.7Z"/>
    <path class="cls-3" d="m27.89,9.13c2.09,2.09.58,5.11.58,5.11-.22-.83-.6-1.73-.6-1.73-3.51-1.21-3.68-2.9-4.82-3.6s-1.65,0-1.65,0c0,0-.59,1.03-1.91,1.06s-1.57-1.57-1.57-1.57c-.33-2.57,3.01-3.43,5.35-2.58,1.31.48,2.27,1.34,2.78,1.88l1.84,1.43Z"/>
    <path class="cls-4" d="m5.56,5.74c-.15,1.28-.5,2.47-1.19,3.16-2.09,2.09-.58,5.11-.58,5.11.22-.83.6-1.73.6-1.73,3.51-1.21,3.68-2.9,4.82-3.6s1.65,0,1.65,0c0,0,.59,1.03,1.91,1.06s1.57-1.57,1.57-1.57c.33-2.57-3.01-3.43-5.35-2.58-1.31.48-2.27,1.34-2.78,1.88-.27.28-.35-.28-.33-.71.03-.65.06-1.36.07-2.07-.12.42-.25.79-.39,1.04Z"/>
  </g>
</svg>