<?xml version="1.0" encoding="UTF-8"?>
<svg id="Livello_1" data-name="Livello 1" xmlns="http://www.w3.org/2000/svg" version="1.1" viewBox="0 0 137.4 115.7">
  <defs>
    <style>
      .cls-1 {
        stroke-width: 3px;
      }

      .cls-1, .cls-2, .cls-3 {
        fill: none;
      }

      .cls-1, .cls-3 {
        stroke: #fff;
        stroke-linecap: round;
        stroke-linejoin: round;
      }

      .cls-2, .cls-4, .cls-5, .cls-6, .cls-7, .cls-8, .cls-9, .cls-10 {
        stroke-width: 0px;
      }

      .cls-4 {
        fill: #6e4137;
      }

      .cls-5 {
        fill: #ffe5cc;
      }

      .cls-3 {
        stroke-width: 4px;
      }

      .cls-6 {
        fill: #ffc89d;
      }

      .cls-7 {
        fill: #c5686a;
      }

      .cls-8 {
        fill: #fff;
      }

      .cls-9 {
        fill: #864e3d;
      }

      .cls-10 {
        fill: #ffbb7e;
      }
    </style>
  </defs>
  <path class="cls-3" d="M134.2,17.9c-.3-.8-1.2-1.5-1.8-1.9,0,0-.1,0-.2-.1,0,0,0,0,0,0,0,0-.2,0-.3-.1-.2-.1-.4-.2-.4-.2h0c-.9-.4-2-.8-3.7-1.7-4-2.1-9.6-2.1-13.6-1.6-4,.5-17.8,6-23.4,7.4-.9.2-1.8.4-2.7.5-.3-.4-.8-.7-1.3-.9-2-.8-10.8-1.1-12.7-.8-1.9.3-2.3,1.7-2.3,1.7-1,0-2-.2-3.1-.4,0-.6,0-1.2-.2-1.8,0-.7-.2-1.3-.5-1.8.7-.9-1.2-2.3-2.8-2q-.8.1-1.6.3c-1.1.7-2.7,2-4.6,3.8-2.5-.4-4.9-.8-7.2-1.1-3.3-.4-6.9-.6-10.7-.3,2.2-.8,3.9-1.3,4.1-1.3,0,0-2,.2-4.3.4.7-1.5,1.2-2.7,1.6-3.7,0,0,0-.1,0-.1,0,0,0-.1,0-.2.3-.7.5-1.2.5-1.5.5-1.7,0-5.7-1.1-7.2-1.6.3-2.5-.4-3.3-.3-.8.1-1.6.3-2.3,1.2-1.5,2.1-3.8,8.6-5.5,13.8-2.2.6-5.1,1.6-7.6,3.3-4.3,2.8-9.1,8.2-11.4,12.9-.1.3-.3.6-.4,1-2.9,4-5,7.8-5.2,10.2-.7,6.3-.9,27,1.2,33.3,1.9,5.7,2.2,8.4,2,10.7,0,.2-1,5.9-2.1,8.9-.6,1.6.4,6.2.4,6.2h0c.2.6.7,1.5,2.4,2.5,3.1,1.9,3.9,1.7,10.6-.4.5-.1,1-.3,1.5-.5,0,0,0,0,.1,0,6.5-2,9.9-4.1,13.6-6.3,1-.6,2-1.1,3-1.7,0,0,0,0,0,0,5.2-2.9,13.9-10.2,16.8-14.3,0,0,0,0,0,0,.4-.5.8-1,1.2-1.4.5-.5,1.1-1.1,1.8-1.6,1.9,2.3,6.8,8.7,6.8,14.1s-2.4,16.7-2.4,16.7h5.3s2.7-20.9,1.6-27.9c-.9-5.6-.9-8.3-.8-9.5.4-.3.7-.5,1.1-.8,0,0,0,0,0,0,1.7-1.2,3.4-2.5,4.4-3.2.2-.1.3-.2.5-.4,0,0,0,0,0,0,0,0,0,0,0,0,.6-.4,1.1-.9,1.7-1.4,1.7-1.4,3.8-3.3,4.4-3.9.6-.3,1.1-.6,1.6-.8.2.3.4.5.7.5,1.2.4,1.3-.6,1.4-1.2,0,0,0-.2,0-.4.4-.2.6-.3.7-.4,1.2-.5,8.7-2.2,11.4-2.7,1.7-.3,4.3-1.5,6.9-3,0,0,0,0,0,0,0,0,4.5-2.2,7-5,1-1.2,1.8-2.5,2.5-3.9.2-.4.5-.8.7-1.2,0,0,0,0,0,0,.9-1.5,2.9-6.9,3.4-8.3.8-1.3,1.7-2.6,2.3-3.7,2.7-3.3,6-5.4,10.4-8.1,1.5-.9,2.4-1.8,3-2.7,1.7-1.9,1.6-4,.9-5.7ZM66.3,78.2c0,.2,0,.3,0,.5,0-.2,0-.3,0-.5ZM66,76.7c0,.4.2.8.2,1.3,0-.4-.2-.9-.2-1.3ZM66,15.7s0,0-.1,0c0,0,0,0,.1,0ZM37.5,5.4c-1.2,1.7-3.1,6.9-4.8,11.9,0,0-.2,0-.2,0,1.6-5.1,3.6-10.5,5-11.9ZM65.9,76.1c-1.6.8-3.4,1.9-5.2,3.1,0,0,0,0,0,0,0,0,0,0,0,0,1.8-1.2,3.6-2.3,5.2-3.1ZM61.8,80.1c0,0-.2-.1-.2-.2,0,0,.2.1.2.2ZM61.2,79.6s0,0-.1-.1c0,0,0,0,.1.1ZM62.4,80.7c-.1-.1-.2-.3-.4-.4.1.1.3.3.4.4,0,0,.1.1.2.2,0,0-.1-.2-.2-.2ZM62.8,81.2c.2.2.3.4.5.7-.2-.3-.3-.5-.5-.7ZM64,83c.2.3.3.5.5.8-.2-.3-.3-.5-.5-.8ZM64.9,84.3c.2.3.3.5.5.7-.1-.2-.3-.5-.5-.7ZM65.9,76.1c0,.2,0,.4.1.5,0-.2,0-.4-.1-.5ZM66.4,78.9c0,.4.1.8.2,1.2,0-.3-.1-.7-.2-1.2ZM66.7,83.6c0,.7,0,1.4,0,2,0-.6,0-1.3,0-2,0-1.1,0-2.1,0-2.6s0-.2,0-.4c0,.1,0,.3,0,.4,0,.5,0,1.5,0,2.6ZM66.6,80.2c0,.1,0,.2,0,.3,0-.1,0-.2,0-.3Z"/>
  <path class="cls-1" d="M66.2,86.5c-.6-1-2.9-4.8-3.8-5.8-.4-.5-1.1-1-1.7-1.5,1.8-1.2,3.6-2.3,5.2-3.1h0c.3,1.6.8,4.1.8,4.9,0,1.3.1,6.5-.5,5.5Z"/>
  <path class="cls-10" d="M57.9,79.7s7.6,8.2,7.6,15-2.4,16.7-2.4,16.7h5.3s2.7-20.9,1.6-27.9c-1.3-8.3-.6-10.2-.6-10.2l-3.7,1.4s1,5,1,6.3.1,6.5-.5,5.5-2.9-4.8-3.8-5.8-3.1-2.6-3.1-2.6l-1.3,1.6Z"/>
  <path class="cls-9" d="M7.5,99.9s1.6-7.3,2-9.9.1-5.2-2-11.5-1.9-27-1.2-33.3,13.6-22.2,22.1-25.5,16.7-3.5,23.5-2.6,15.7,2.9,21.1,3.2c5.4.3,12.2.8,17.8-.6s19.4-6.9,23.4-7.4,9.6-.5,13.6,1.6,5.2,1.7,5.9,4,1.6,5.1-3.6,7.9-8.4,5.9-11.4,10.3c-3,4.4-3.1,11.6-9.8,17s-14.4,6.8-16.9,7.2-10.6,3.1-13.3,6.3-5.1,4-8.4,6.8-9.9,4.9-12.3,7.7-10.1,12.6-24.2,19.8-15.7,7.7-21.6,6.4c-5.3-1.2-4.6-7.3-4.6-7.3Z"/>
  <path class="cls-9" d="M9.5,89.1s8.6-2.2,15.4-5,17.6-9.8,19.7-11.2,6.1-5.6,10.8-7,12.9-3.8,14.8-5.2,6.1-7.2,7.2-9.5,5.8-4.7,9.4-4.7,13.4-.5,16-1.6,8.5-8.1,9.4-10.3,4.4-7.3,8.2-9.1,8.5-1.2,10.6-3.3c2.1-2.1.3-6.8.3-6.8,0,0,2.2.9,2.8,2.3s.8,4.5-1.8,6.6-9.9,5.9-11.5,8.4-5.6,8.7-6.3,10.5-1.6,5.9-5.8,9.8-8.8,5.9-11.6,6.4-10.2,2.2-11.4,2.7-13.6,6.9-14.6,7.6-13.4,8.2-13.4,8.2l-15.2,12.9-12.9,8.9-16,4.5h-5.8s-1-4.6-.4-6.2c1.2-3.1,2.1-8.9,2.1-8.9Z"/>
  <path class="cls-9" d="M45.7,17.3c-.5,0-12.5,1.8-16,4.6-6.4,5.1-12.5,4.5-19,26.3s-2.2,1.8-2.2,1.8c0,0,1.2-11.3,3.4-16.1s7-10.1,11.4-12.9,9.7-3.7,10.8-4.2,11.6.5,11.6.5Z"/>
  <path class="cls-6" d="M71.7,20.1s.5-1.4,2.3-1.7,10.7,0,12.7.8,2.8,3.3,1.7,4.5-3.8,3.3-4.8,5.6-1.8,3.5-2.2,7.3c-.3,3.8.3,12.4.6,14.3s2.4,9.2,2.4,9.2c0,0,.6,2.3.5,2.9s-.2,1.6-1.4,1.2-2.4-4.1-3.6-8.7-1.8-12.7-1.7-14.2.2-9.1-.6-11.1c-.8-2-1.6-4.1-2.6-4.9s-4.3-2.3-3.4-5.2Z"/>
  <path class="cls-5" d="M78.1,25.9s-2.4-2.5-3.3-2.8-3.1-1.7-1.9-2.9,3.9-1,6.6-1.1,6,1,6.2,1.8-.1,1.8-.9,1.6-3.7-.7-4.7.4-.5,3.3-2.1,3Z"/>
  <path class="cls-4" d="M11.7,103.1s14.8-3.6,20.4-7.2c5.6-3.7,13.4-10.7,15.9-12.3s7-6.4,9.9-7.3,10.9-5.1,12.1-5.9,5.2-4.4,6.6-4.9,5-1.2,5-1.2c0,0-4.8,4.4-6.4,5.5s-6,4.6-9.3,6.3c-3.3,1.7-8.2,4.8-10.2,7.5-3,4.1-11.7,11.4-16.8,14.3-5.2,2.9-8.4,5.4-16.6,8-8.2,2.6-8.9,3-12.2.9s-2.3-3.5-2.3-3.5l3.8-.3Z"/>
  <path class="cls-4" d="M104.1,56.6s5.2-4.5,7.7-9.5,5.9-9.4,5.9-9.4c0,0-2.6,6.9-3.5,8.7s-1.8,3.6-3.2,5.1c-2.5,2.8-7,5-7,5Z"/>
  <path class="cls-2" d="M7.5,99.9s1.6-7.3,2-9.9.1-5.2-2-11.5-1.9-27-1.2-33.3,13.6-22.2,22.1-25.5,16.7-3.5,23.5-2.6,15.7,2.9,21.1,3.2c5.4.3,12.2.8,17.8-.6s19.4-6.9,23.4-7.4,9.6-.5,13.6,1.6,5.2,1.7,5.9,4,1.7,5.2-3.3,8.4-8.7,5.4-11.7,9.8c-3,4.4-3.1,11.6-9.8,17s-14.4,6.8-16.9,7.2-10.6,3.1-13.3,6.3-5.1,4-8.4,6.8-9.9,4.9-12.3,7.7-10.1,12.6-24.2,19.8-15.7,7.7-21.6,6.4c-2.5-.6-3.7-2.2-4.2-3.8s-.4-3.5-.4-3.5Z"/>
  <g id="Tracciato_28-2" data-name="Tracciato 28-2">
    <path class="cls-7" d="M37.8,63.6c-.1-.8-.3-1.6,1.1-3.5v-.8c-3.2,1.3-10.8,5-12.4,5.2h-.8c0,.1-.1-.7-.1-.7v-.8c-.1,0,.5-.9.5-.9,2.9-2.1,13.3-9.5,15.7-9.9h0c.8-.1,1.6-.3,2.5.4s.4,2.4.4,2.4h0c3.7-2.2,12.2-6,16.2-6.7s4.3,1,4.5,2.6-.3,3.3-1.9,3.6c-2.3,1.2-23.9,9.5-23.9,9.5l-1.7-.5h0Z"/>
    <path class="cls-8" d="M60.1,49.4h0c4-.6,4.6,3.4,2.4,4.5s-23.9,9.5-23.9,9.5h0s-.8.1.3-3.3c1.3-1.9,1.2-2.7.4-2.5h0s-11.4,5.9-13,6.2h0c2.9-2.1,12.5-9.4,15.7-9.9h0c2.4-.4,1.2,2.3,1.2,2.3l-.5,1.7s13.5-7.9,17.5-8.5M59.9,47.8c-3.2.5-10,4.1-14.6,6.4l-.3-1.6c-.1-.8-1.1-1.5-2.7-1.2-3.2.5-14.2,8.8-16.5,10-.7.9-1.3,1.9-.4,2.5v.8c.1,0,1.7-.3,1.7-.3,1.6-.3,6.1-2.6,10-4.1-.7.9-.4,2.5-.3,3.3l.9.7,1.6-.3s22.5-8.5,24.7-9.7c1.6-.3,2.8-2.9,1.8-4.4-.9-.7-2.8-2-6.1-2.3h0Z"/>
  </g>
  <g id="Tracciato_29-2" data-name="Tracciato 29-2">
    <path class="cls-7" d="M22.3,43.9h0l-.3-1.6c.3-3.3,2.4-16,4.5-18q.7-.9,1.5-1.1c.8-.1,1.9,1.3,2,2.1h0c1.6-5.2,5.5-17.3,7.5-20.1.7-.9,1.5-1.1,1.5-1.1.8-.1,1.6-.3,2.7,1.2s1.6,4.7,1,6.4c-1.3,1.9-11.1,23.1-11.1,23.1h-.8c-.8.3-1.9-1.2-2.1-2.8v-.8c-4.7,12.2-5.6,12.4-6.4,12.5h0Z"/>
    <path class="cls-8" d="M39,4.3c2.4-.4,3.2,4.4,2.6,6.1-.4,2.5-11,23.9-11,23.9h0s-.8.1-1.3-3.1-1.2-2.3-1.2-2.3h0s-4.5,13-5.3,13.2v-.8c.2-3.3,2.3-16,4.4-18-.7.9.1.8.1.8.8-.1,1.9,1.3,1.9,1.3l.3,1.6s5.2-18.9,8-21.8c.7-.9,1.5-1.1,1.5-1.1M38.8,2.7c-.8.1-1.6.3-2.3,1.2-2,2.8-5.3,13.2-6.9,18.3q-.9-.7-2.5-.4c-.8.1-1.6.3-2.3,1.2-2,2.8-4.1,15.4-4.4,18.8l.3,1.6.9.7h.8c.8-.3,1.6-.4,5.7-10.9.3,1.6,1.2,2.3,2.8,2h.8c0-.1.7-1.1.7-1.1,0,0,10.6-21.4,11-23.9.5-1.7,0-5.7-1.1-7.2-1.6.3-2.5-.4-3.3-.3h0Z"/>
  </g>
  <g id="Tracciato_30-2" data-name="Tracciato 30-2">
    <path class="cls-7" d="M26.4,53.9h0l-1.1-1.5.7-.9c1.9-3.6,11.2-17.4,14.3-18.7l1.6-.3c.8-.1,1.6-.3,1.7.5.9.7,1.2,2.3.4,2.4v.8c4.3-4.8,15.3-18,19.9-20.4l1.6-.3c.8-.1,2.5.4,2.7,1.2,1.2,2.3.3,7.3-1.9,8.5-2.1,2-24.5,21.1-24.5,21.1h-.8c-.1-.7-1.1-1.3-.8-4.7l-.3-1.6c-5.5,6.6-11.8,13.4-13.4,13.6h0Z"/>
    <path class="cls-8" d="M65.4,15.7c3.2-.5,2.7,7,.6,8.9-2.1,2-25.2,22.1-25.2,22.1h0s-.8.1-.6-4c.4-2.5.3-3.3-.5-3.2h-.8c0,.1-12,12.7-12.8,12.8v-.8c2.4-4.5,11.2-16.6,14.1-18.7l1.6-.3c1.6-.3,1.2,2.3,1.2,2.3l.5,3.2s15.9-18.9,20.4-21.3q.7-.9,1.5-1.1M65.2,14.1l-1.6.3c-3.7,2.2-13.6,12.8-18.4,18.5-.1-.8-.3-1.6-1.1-1.5-.9-.7-1.7-.5-2.5-.4l-1.6.3c-2.9,2.1-12.4,15.1-14.1,19.5,0,0-.5,1.7-.4,2.5v.8c.1,0,.9-.1.9-.1.8-.1,1.6-.3,11.4-10.8-.4,2.5-.3,3.3.6,4l.9.7h.8c0-.1.8-.3.8-.3,0,0,23.1-20.1,25.2-22.1s3-7,1.8-9.3c.7-.9-1.2-2.3-2.8-2h0Z"/>
  </g>
</svg>