<?xml version="1.0" encoding="utf-8"?>
<!-- Generator: Adobe Illustrator 27.9.0, SVG Export Plug-In . SVG Version: 6.00 Build 0)  -->
<svg version="1.1" id="Livello_1" xmlns="http://www.w3.org/2000/svg" xmlns:xlink="http://www.w3.org/1999/xlink" x="0px" y="0px"
	 viewBox="0 0 32 32" style="enable-background:new 0 0 32 32;" xml:space="preserve">
<style type="text/css">
	.st0{fill:#FFFFFF;stroke:#FFFFFF;stroke-width:1.8824;stroke-linecap:round;stroke-linejoin:round;stroke-miterlimit:10;}
	.st1{fill:#3F3F3F;}
	.st2{fill:#515151;}
	.st3{fill:#2D2D2D;}
	.st4{fill:#5C7A8C;}
	.st5{fill:#78A8C8;}
	.st6{fill:#BF5557;}
	.st7{fill:#F9BF8D;}
	.st8{fill:#E3A46F;}
</style>
<g>
	<path class="st0" d="M30.7,14.9L30.7,14.9L30.7,14.9c0-1-0.6-1.4-1.1-1.5c-0.5-0.2-1.5-0.3-2.6-1c-1.1-0.7-1-2-1-2.7
		C26,9,26.3,2,26.3,1.9c-0.1,0-0.1,0-0.2,0c0.1,0,0.2,0,0.2,0c-3.5-0.7-6.1,0-6.1,0c0.2,0,0.4,0.1,0.6,0.1c-0.4,0-0.6-0.1-0.6-0.1
		s0,0.6-0.1,1.4c-1.4,0.1-2.2,0.3-2.2,0.3c0.2,0,0.4,0.1,0.6,0.1c-0.4,0-0.6-0.1-0.6-0.1s-0.2,1.9,0,4c-0.7-0.7-1.9-1.3-4-1.2
		c0,0,0,0,0,0c0-0.1,0-0.2,0-0.2c0,0-0.1-0.2-0.7-0.1s-0.6,0.3-0.6,0.3s0,0.1,0,0.2c-2.1,0.4-3.2,1.4-3.4,2C9,8.9,8.5,9.8,8.4,11.7
		c-1.6,0.4-4.6,1.2-4.8,1.3c-0.3,0.1-0.5,0.4-0.3,0.8c0.1,0.3,0.3,0.6,0.5,1l-1.3,0.4c0,0-1.6,0.2-1.3,0.9c0.1,0.3,0.6,1.5,1.5,2.7
		c1,1.4,2.2,3,3,4.3c0,0,0,0,0,0l0.5,0.8c0,0,0,0,0,0c0.1,0.2,0.2,0.4,0.3,0.6c1,2,3,4.8,3,4.8c0,0,0,0,0,0c1.5,1,4.9-0.2,6.4-1.3
		c0,0,0.6-0.3,1.5-0.7c0,0,0,0,0,0c0,0,0,0,0,0c0,0,0,0,0.1,0c0,0,0,0,0,0c0,0,0,0,0,0c0,0,0,0,0,0c0,0,0,0,0,0c0,0,0,0.1,0.1,0
		c0.1,0,5.7-2.4,5.7-2.4s0.1-0.1,0.1-0.2c2.1-0.6,5.7-2.5,5.7-2.5v0c1.1-0.5,1.3-2.1,0.2-2.7l-3-1.3c1-0.1,1.7-0.5,1.8-0.7
		c0.1-0.2,0-0.8,0-0.8v0l0,0c0-0.1,0-0.1,0-0.2c1.2,0,2.3-0.5,2.3-0.7C30.8,15.5,30.7,14.9,30.7,14.9z"/>
	<polygon class="st0" points="26.3,1.9 26.3,1.9 26.3,1.9 	"/>
</g>
<g id="how_to_prevent">
	<g>
		<path class="st1" d="M30.7,14.9c0,0,0.1,0.5,0,0.8c-0.1,0.3-1.2,0.7-2.5,0.7c-1.3,0-2.8-0.3-4.8-1.6c-0.3-0.3-0.5-0.1-0.5-0.1
			s-0.1,0.3-0.6,0.2c-0.5,0-1.3-0.3-1.4-0.4c-0.1-0.1,0-1.2,0-1.2L30.7,14.9L30.7,14.9z"/>
		<path class="st2" d="M26.3,1.9c0,0-0.3,7.1-0.4,7.8c-0.1,0.7-0.1,2,1,2.7c1.1,0.7,2.1,0.9,2.6,1c0.5,0.2,1.1,0.6,1.1,1.5
			c-0.8,0.6-2.1,0.6-2.1,0.6s-2.3,0.2-3.7-0.8c-1.5-1-1.2-0.9-2.1-1c-1,0-1.7-0.3-1.8-0.5c-0.1-0.2,0.1-2.9-0.4-5.4s-0.3-6-0.3-6
			S23.2,2.4,26.3,1.9L26.3,1.9z"/>
		<path class="st3" d="M20.2,1.9c0,0,2.7-0.7,6.1,0C26.3,1.9,23.8,2.5,20.2,1.9z"/>
		<path class="st1" d="M28.4,16.6c0,0,0.1,0.6,0,0.8c-0.1,0.2-1.2,0.7-2.5,0.7s-2.8-0.3-4.8-1.6c-0.3-0.3-0.5-0.1-0.5-0.1
			s-0.1,0.3-0.6,0.2c-0.5,0-1.3-0.3-1.4-0.4c-0.1-0.1,0-1.2,0-1.2L28.4,16.6L28.4,16.6z"/>
		<path class="st1" d="M24,3.6c0,0,0.1,1.4-0.3,8.1c0,0-0.2,1.8,1.2,2.4c0.8,0.5,1.2,0.6,2,0.8c0.8,0.2,1,0.7,1,0.7l-0.4,0.1
			l-3.8-0.9l-0.6-2L24,3.6L24,3.6z"/>
		<path class="st2" d="M24,3.6c0,0-0.3,7.1-0.4,7.8s-0.1,2,1,2.7s2.1,0.9,2.6,1c0.5,0.2,1.1,0.6,1.1,1.5c-0.8,0.6-2.1,0.6-2.1,0.6
			s-2.3,0.2-3.7-0.8c-1.5-1-1.2-0.9-2.1-1c-1,0-1.7-0.3-1.8-0.5c-0.1-0.2,0.1-2.9-0.4-5.4s-0.3-6-0.3-6S20.9,4.1,24,3.6L24,3.6z"/>
		<path class="st3" d="M17.9,3.6c0,0,2.7-0.7,6.1,0C24,3.6,21.5,4.2,17.9,3.6z"/>
	</g>
</g>
<g id="Who_is_at_risk">
	<path class="st4" d="M9.7,29.2c0,0-2-2.8-3-4.8c-0.7-1.3-2.4-3.7-3.8-5.7c-0.9-1.2-1.4-2.4-1.5-2.7c-0.3-0.6,1.3-0.9,1.3-0.9
		L5,14.5l5.8,14.2L9.7,29.2L9.7,29.2z"/>
	<path class="st5" d="M29.4,22.1c0,0-3.7,2-5.8,2.5s-7.4,3.2-7.4,3.2c-1.5,1.1-4.9,2.3-6.4,1.3c1-0.7-0.7-1.7-1.5-3.1
		c-1.1-2-2.7-4.1-3.8-5.6c1.2-2.3-0.3-5.3-1-6.7c-0.2-0.4,0-0.7,0.3-0.8c0.2-0.1,4.3-1.2,5.5-1.4c0.2,0,0.4,0,0.5,0.1
		c0.8,0.5,4,2.3,7.4,2.5l1.5,0.6c0,0,1.2,0.2,1.3,0.1c0.2-0.1,0.4,0.7,0.4,0.7l9.2,4C30.6,20.1,30.5,21.6,29.4,22.1L29.4,22.1z"/>
	<path class="st5" d="M23.9,22c-0.4-0.5-4.3-4.5-4.3-4.5s-3.7,2.4-8.4,3.3c2,1.7,5.4,4.1,5.7,4.3c0.3,0.2,0.8,0.7,0.8,2
		c0,0,0,0.1,0.1,0c0.1,0,5.7-2.4,5.7-2.4s0.6-0.6,0.7-1.3S24.3,22.6,23.9,22L23.9,22z"/>
	<path class="st4" d="M19.6,17.4c-2.4,1.5-5.4,2.6-8.6,3.3l1.1,0.9c3.7-0.8,6.3-2,8.4-3.3L19.6,17.4L19.6,17.4z"/>
	<path class="st4" d="M14.7,23.3l-0.3,0.1c0,0-0.3,0.1-0.4,0.1c-0.4,0.1-0.8,0.3-2,0.5c-0.6,0.1-2.2,0.3-3.4,0.1
		C8,24,7.3,23.8,6.9,23.6c-0.3-0.1-0.3-0.1-0.3-0.1l-0.1-0.1c0,0,0.9,0.5,2.4,0.7c1.4,0.2,4.7-0.3,5.6-0.7c1.8-0.6,3.3-1,4.3-1.2
		c2.3-0.4,3.4-0.2,3.4-0.2V22c-1.3-0.1-2.9,0.1-3.9,0.3C16.9,22.7,16.6,22.9,14.7,23.3L14.7,23.3z"/>
	<path class="st5" d="M21.8,20.9c-1,0-2.9,0-4.7,0.6c-2.5,0.8-5.8,1.9-8,1.7c-1.7-0.1-3-0.7-3.1-0.6c-0.1,0.1-0.1,0.3-0.2,0.4
		l0.5,0.8c0-0.1,0.2-0.3,0.2-0.4c0,0,0,0,0.2,0c0.4,0.2,1.6,0.7,2.5,0.7c2.8,0.1,5.3-0.5,8.4-1.7c1.6-0.6,3.5-0.6,4.6-0.5"/>
	<path class="st4" d="M22.2,21.9c0.4,0,0.7,0.1,0.8,0.1c0,0,0,0,0,0l-0.5-1c0,0,0,0,0,0c-0.1,0-0.3,0-0.6,0"/>
	<path class="st4" d="M23,22C23,22,23,22.1,23,22c-0.1,0.1-0.6,0-0.8,0l0,0v-0.1C22.2,21.9,22.9,22,23,22z"/>
	<polyline class="st6" points="21.9,20.9 22.2,21.9 22.2,21.9 21.9,20.9 	"/>
	<polygon class="st4" points="9.6,12 4.2,13.5 4.3,13.5 9.7,12 	"/>
	<path class="st4" d="M20.1,15.5c0,0-2.4,0.7-4.1,0.8c0,0,2.1-0.2,3.6-0.9C19.7,15.4,20,15.3,20.1,15.5z"/>
	<path class="st5" d="M18.8,22.9c0.7-1.3,1.5-1.9,3.1-2.7c1.9-1,2.9-2.8,2.9-2.8s0.1,0,0.1,0c0,0-0.9-0.5-1-0.5c-0.1,0-0.1,0-0.1,0
		S23,18.5,21,19.5c-1.6,0.6-2.6,1.7-3.2,2.7c0,0-0.2,0.2-0.2,0.2c0,0.1,0,0.1,0,0.1c-0.1,0.1-0.1,0.2-0.2,0.3L18.8,22.9L18.8,22.9z"
		/>
	<path class="st4" d="M18.8,22.9c-0.1,0.2-0.1,0.3-0.3,0.5l-1.3-0.1c0,0,0-0.1,0.2-0.5L18.8,22.9L18.8,22.9z"/>
	<path class="st4" d="M18.8,22.9c-0.1,0.2-0.1,0.3-0.3,0.5l-1.3-0.1c0,0,0,0.1,0,0.1c0.9,0.1,1.3,0.1,1.3,0.1s0,0,0,0L18.8,22.9
		L18.8,22.9L18.8,22.9z"/>
	<path class="st4" d="M18.8,22.9c0.7-1.3,1.5-1.9,3.1-2.7c1.9-1,2.9-2.8,2.9-2.8s0.1,0,0.1,0c0,0,0,0,0,0s-1.1,1.9-3.1,2.9
		c-0.4,0.2-0.8,0.4-1.2,0.7c0,0-0.1,0-0.1,0c-0.5,0.3-0.9,0.7-1.2,1.1h0C19.2,22.3,19,22.7,18.8,22.9L18.8,22.9L18.8,22.9z"/>
	<path class="st4" d="M14.5,23.4c1.2,0.9,2.2,1.5,2.4,1.6c0.3,0.2,0.8,0.7,0.8,2c0,0-0.2,0-0.1,0s-0.1-1.8-1.2-2.3
		c-0.4-0.2-1.3-0.8-2-1.4"/>
	<path class="st4" d="M13.3,22.6c-0.7-0.6-1.2-1-1.2-1h0.1C12.6,21.9,13,22.3,13.3,22.6"/>
	<path class="st4" d="M21.4,19.3c-0.4-0.4-0.7-0.7-0.9-1l0,0C20.7,18.6,21.1,19,21.4,19.3L21.4,19.3z"/>
	<path class="st4" d="M22.2,20.1c0.8,0.9,1.6,1.7,1.8,1.9c0.4,0.5,0.4,0.7,0.3,1.4s-0.7,1.3-0.7,1.3c0.4-0.4,0.6-0.9,0.7-1.3
		c0,0,0.3-0.8-0.3-1.5C23.5,21.4,22.8,20.7,22.2,20.1C22.2,20.1,22.2,20.1,22.2,20.1z"/>
</g>
<g id="Symptoms">
	<g>
		<path class="st7" d="M10.4,14.1l2.3,2.2c0,0,1.5,1.2,3.1,0.1c1.6-1.1,3.1-2.9,6.1-0.8c0,0,0.1-0.1,0-0.2L19.7,13
			c0,0-0.8-3.8-1.2-4.7s-1.7-2.1-4.5-2S9.6,7.8,9.2,8.4s-1.1,1.9-0.7,5.3L8.6,14c0,0-0.1,0.3,0.5,0.3C9.7,14.2,10.4,14.1,10.4,14.1
			L10.4,14.1z"/>
		<path class="st8" d="M12.6,6.3c0,0,0.1-0.3,0.6-0.3c0.5,0,0.6,0.1,0.7,0.1c0,0,0,0.3,0,0.3s-0.1,0.2-0.6,0.3s-0.7-0.1-0.7-0.1
			S12.6,6.3,12.6,6.3z"/>
		<path class="st8" d="M10.4,14.1c0,0,2-1.9,5.1-1.9c1.7,0,2.4,0.3,2.4,0.3s-1.5-0.8-4-0.3S10.7,13.8,10.4,14.1L10.4,14.1z"/>
		<path class="st8" d="M13,6.7c0,0-1.7,0.3-2.3,1.8c-0.5,1.5-0.3,5.6-0.3,5.6s0-4.4,0.4-5.3S11.6,7.1,13,6.7z"/>
		<path class="st8" d="M13.5,6.7c0,0,0.8,0.6,1.2,1.7s0.4,3.6,0.4,3.6s0.3-2.5-0.2-3.7S13.5,6.7,13.5,6.7L13.5,6.7z"/>
	</g>
</g>
</svg>
