<?xml version="1.0" encoding="UTF-8"?>
<svg id="Livello_2" data-name="Livello 2" xmlns="http://www.w3.org/2000/svg" viewBox="0 0 25.22 28.11">
  <defs>
    <style>
      .cls-1 {
        fill: #7e5545;
      }

      .cls-2 {
        fill: #9a6854;
      }

      .cls-3 {
        fill: #906556;
      }

      .cls-4 {
        fill: #735145;
      }

      .cls-5 {
        fill: #161212;
      }

      .cls-6 {
        fill: #452c26;
      }

      .cls-7 {
        fill: #634237;
      }

      .cls-8 {
        fill: #5c5553;
      }

      .cls-9 {
        fill: #2a110c;
      }

      .cls-10 {
        fill: #343130;
      }

      .cls-11 {
        fill: #785144;
      }
    </style>
  </defs>
  <g id="Where_is_found" data-name="Where is found">
    <g id="ic_goat_c">
      <path class="cls-4" d="m18.58.99c-4.95-3.23-6.57,2.48-6.57,2.48,2.79-4.51,5.88-1.5,5.88-1.5.2-.37.42-.71.69-.99Z"/>
      <path class="cls-3" d="m17.66,3.16s-4.65-1.31-5.68,4.55c0,0-1.14-6.98,5.95-5.65-.18.33-.26.7-.26,1.1Z"/>
      <path class="cls-11" d="m17.07,18.82s1.9-.84,2.22-1.6c0,0-.12,1.89-.29,2.2,0,0,0,2.27-.15,2.6-.18,1.94-.04,2.1-.04,2.1,0,0,.23.85.83,1.48s.77,1.04.56,1.14-.91.35-1.53.19-.55-1-.55-1l-.33-.64s-.08-1.93.02-2.79-.73-1.85-.75-3.68Z"/>
      <path class="cls-11" d="m5.57,19.32s.98-.08,1.97.32c0,0-.5.77-.94,1.11,0,0,.02,1.62.07,1.75s.38,1.22.36,1.56,1.04,1.52,1.04,1.52c0,0,.8.75.58,1.07s-1.47.29-1.53.28-.4-.59-.28-.76c0,0-.6-.38-.76-.65s-.3-1.84-.23-2.11-1.15-1.91-1-2.55.34-1.25.7-1.54Z"/>
      <path class="cls-2" d="m17.92,2.06c.21-.39.44-.73.68-.98,0,0,.42-.61,1.06-.51,0,0-.34.09-.51.32,0,0,.46-.4,1.16-.31,0,0-.44.09-.57.25,0,0,.8-.51,1.21.09,0,0-.05-.05-.22-.02,0,0,.43.06.43.51s2.45.85,2.45.85c0,0,1.3.06,1.57,1.39-.14.62-.83.92-.83.92,0,0-1.63,1.81-.89,3.64,0,0-.58-.25-.67-1.06,0,0,.04.5.21.77,0,0-.74-.22-.64-.92,0,0-.08.35.05.65s-.74-.14-.6-1.38c.07-.68-.21.46-.04.85s-.65-.27-.57-1.75c0,0-.31-.09-.51.12,0,0-.65.88-.2,3.92s.67,5.11-1.25,7.52c-1.43,1.81-3.57,2.31-4.55,2.44-.3.04-.52.29-.51.59l.05,1.7s.14.64-.39,1.32c0,0-.35,2.07-.15,3.14.02.09.05.16.11.23.19.27.67.96.54,1.25-.15.36-1.16.17-1.16.17,0,0-.9-.1-.96-.61s.15-1.03.15-1.03c0,0,.36-3.93.3-4.36-.05-.35-.47-.99-.55-1.76-.03-.29-.26-.51-.55-.51-.97-.02-3.08-.09-4.98-.37-.35-.05-.75,0-1.09.07-.45.09-.65.78-.9,1.16-.33.52-.61.77-1.23,1.39-.3.3-.57.74-.92.98s-.61.49-.89,1.45c-.35,1.21-.44,1.49-.37,1.72.01.05.03.09.06.13l.52.87s.64,1.32-.61,1.16-1.32-1.24-1-2.48c.24-.94.15-.69.33-1.52.14-.64.12-.92.21-1.6.01-.08.25-.43.3-.49.27-.35,1.22-1.59,1.29-2.23.06-.45-.16-1.66-.35-2.56-.16-.77-.11-1.57.13-2.31,0,0,0-.02,0-.02.09-.28-.04-.58-.31-.7-.48-.22-1.15-.74-1.29-1.97,0,0,.5.46,1.5.42.63-.03,1.03-.1,1.24-.15.11-.03.2-.08.28-.17.42-.48,2.11-2.24,4.06-2.13,2.24.12,4.07.42,4.07.42,0,0,2.83.46,3.53-2.04s1.4-3.66,1.4-3.66c0,0,0-1.14,1.08-1.55v-.18c0-.4.08-.77.26-1.1"/>
      <path class="cls-1" d="m5.31,19.33c.12-.18.4-.43.66-.77,0,0,.53-.69.52-1.03,0,0,.14.64.6,1s2.63.53,2.63.53c.18.03.37.04.56.06.17,0,.34.01.51,0s.34-.01.49-.09c.03-.02.07-.04.1-.06.1-.07.21-.14.28-.24.08-.12.13-.25.18-.39.02-.07.03-.13.06-.2.03-.08.07-.17.12-.24s.1-.15.17-.2c0,0-.18.32-.25.62-.03.12-.04.23-.07.35s-.08.23-.09.35c-.01.13.02.26.06.38.04.11.08.22.16.3-.05-.06-.12-.11-.2-.14-.09-.04-.22-.04-.32-.04-.07,0-.16-.01-.25-.01-.05,0-.1,0-.14,0-.11,0-.19,0-.28,0-.12,0-.14,0-.26,0-.04,0-.1,0-.14,0-.07,0-.12,0-.18,0-.02,0-.09,0-.11,0-.11,0-.21-.02-.32-.02-.11,0-.2,0-.31-.01-.17,0-.3-.02-.47-.03-.1,0-.22-.02-.32-.02s-.25-.02-.35-.03-.24-.02-.34-.03c-.16-.01-.32-.03-.49-.05-.09,0-.14-.02-.24-.03-.07,0-.12-.01-.19-.02-.06,0-.08,0-.13-.02-.03,0-.12-.02-.14-.02-.04,0-.07-.01-.11-.01-.06,0-.1-.02-.19-.03-.05,0-.12,0-.18,0-.11,0-.37.02-.48.03-.06,0-.26,0-.42.08l-.14.08Z"/>
      <path class="cls-2" d="m24.36,4.58s-1.63,1.81-.89,3.64c0,0-.58-.25-.67-1.06,0,0,.04.5.21.77,0,0-.74-.22-.64-.92,0,0-.08.35.05.65s-.74-.14-.6-1.38c.07-.68-.21.46-.04.85s-.65-.27-.57-1.75c0,0-.31-.09-.51.12-.15.33-4.04.28-4.12-.61,0,0,0-1.14,1.08-1.55v-.18c0-.4.08-.77.26-1.1"/>
      <path class="cls-2" d="m17.92,2.06c.21-.39.44-.73.68-.98,0,0,.42-.61,1.06-.51,0,0-.34.09-.51.32,0,0,.46-.4,1.16-.31,0,0-.44.09-.57.25,0,0,.8-.51,1.21.09,0,0-.05-.05-.22-.02,0,0,.43.06.43.51s2.45.85,2.45.85"/>
      <path class="cls-2" d="m24.36,4.58s-1.63,1.81-.89,3.64c0,0-.58-.25-.67-1.06,0,0,.04.5.21.77,0,0-.74-.22-.64-.92,0,0-.08.35.05.65s-.74-.14-.6-1.38c.07-.68-.21.46-.04.85s-.65-.27-.57-1.75c0,0-.31-.09-.51.12-.15.33-4.04.28-4.12-.61,0,0,0-1.14,1.08-1.55,0,0,1.4,1.05,3.02,1.19.63.05,0,0,1.44.21.4.06.68.11,1.52-.05"/>
      <path class="cls-10" d="m20.67,2.2c-.35-.25-.28-.18-.41-.25v.02c0,.18-.21.33-.47.33-.25,0-.41-.16-.46-.33,0-.03.02-.09.03-.11.04-.04.07-.06.09-.08.04-.04.07-.05.09-.07.16-.11.32-.09.47-.02.05.03.11.05.14.09.08.05.08.07.17.14.11.08.3.2.34.29Z"/>
      <ellipse class="cls-6" cx="19.83" cy="1.97" rx=".29" ry=".22"/>
      <rect class="cls-5" x="19.63" y="1.92" width=".41" height=".11" rx=".04" ry=".04"/>
      <path class="cls-6" d="m23.89,4.32c.03.06.07.12.12.17.11.1.29.12.44.07s.27-.15.37-.26c.17-.17.31-.38.37-.61,0-.02.04-.13.02-.15-.01-.02-.07.05-.09.05-.33-.07-.67-.06-1-.08-.17-.01-.33-.04-.5-.07-.05-.01-.06-.01-.05.04,0,.04.02.08.03.12.02.08.04.16.07.23.06.17.13.34.22.51Z"/>
      <path class="cls-7" d="m24.53,2.59c-.2-.14-.36-.22-.42-.2-.08.02-.12.1-.16.17-.05.12-.12.23-.18.34-.06.12-.09.26-.17.37-.03.04-.04.1-.01.13.02.02.04.03.06.04.44.14.92.07,1.37.16.03,0,.07.01.1.01s.07-.02.08-.05c.02-.04-.01-.07-.02-.11-.02-.05-.03-.1-.05-.15-.04-.1-.09-.19-.16-.28-.13-.17-.29-.32-.46-.45Z"/>
      <path class="cls-8" d="m0,26.81s.02.28.23.29.53.06.53.06l.4.08s.23.07.33.08.12.02.22.02.12,0,.12,0c.01,0,.03,0,.04,0,.04,0,.05.05.06.08.03.1.05.22.02.31-.02.07-.06.13-.1.19-.06.08-.14.14-.23.17s-.2.05-.3.04c-.12,0-.4-.04-.51-.06s-.43-.06-.52-.1-.2-.1-.23-.18-.08-.02-.07-.46c0-.41,0-.5,0-.5Z"/>
      <path class="cls-8" d="m6.87,26.43s.04.11.23.06.5-.09.5-.09l.38-.05s.22-.01.31-.03.11-.02.2-.04.11-.03.11-.03c0,0,.05-.01.08.03s.04.05.06.09.02.12,0,.15c-.01.04-.02.07-.06.12s-.08.09-.13.11-.18.09-.29.11-.37.07-.47.09-.4.06-.5.06-.17-.02-.21-.07-.04,0-.14-.28-.08-.25-.08-.25Z"/>
      <path class="cls-8" d="m12.24,27.02s.03.16.26.17.59.04.59.04l.44.06s.25.05.37.05.14.01.25.01.13,0,.13,0c0,0,.06-.02.09.04s.03.05.04.1.01.07-.03.17c-.04.09-.06.1-.13.13s-.12.07-.19.08-.23.04-.37.03-.45-.03-.56-.04-.48-.04-.58-.08-.22-.07-.25-.13-.04-.02-.07-.33,0-.32,0-.32Z"/>
      <path class="cls-8" d="m18.23,26.49s.06.15.28.11.56-.07.56-.07l.43-.03s.25,0,.35-.02.13-.01.23-.04.12-.02.12-.02c0,0,.06-.03.09.02.03.04.06.07.07.13,0,.04,0,.09,0,.13-.01.07-.06.12-.11.17-.13.11-.31.17-.48.2-.13.02-.42.06-.54.07s-.45.05-.56.04-.22-.03-.26-.07-.04,0-.13-.29-.06-.3-.06-.3Z"/>
      <path class="cls-1" d="m17.67,2.87c-.05.5.25.97.65,1.26.44.32.95.46,1.44.71.28.15.77.47.86.75-.05.08-1.51-.65-2.12-1.06-.31-.21-.9-.81-.85-1.18"/>
      <path class="cls-9" d="m24.76,3.2s-.05-.03-.07-.05-.02-.05,0-.07c0-.01.3.14.32.16.07.1-.21-.02-.25-.04Z"/>
    </g>
  </g>
</svg>