<?xml version="1.0" encoding="UTF-8"?>
<svg id="Symptoms" xmlns="http://www.w3.org/2000/svg" viewBox="0 0 32.15 32">
  <defs>
    <style>
      .cls-1 {
        fill: #fff;
      }

      .cls-2 {
        fill: #bf5456;
      }

      .cls-3 {
        fill: #afafaf;
      }

      .cls-4 {
        fill: #87bcb3;
      }

      .cls-5 {
        fill: #585858;
      }
    </style>
  </defs>
  <g id="ic_loss">
    <path class="cls-1" d="m29.93,20.75c-.93,4.98-2.69,10.38-3.91,10.36-2.25.05-10.49,0-10.49,0,0,0-8.25.05-10.5,0-1.22.02-2.98-5.37-3.91-10.36-.7-3.72-1.59-7.98-.14-9.03,1.44-1.05,5.37-1.72,5.37-1.72,0,0,1.69-6.66,9.18-6.66s9.19,6.66,9.19,6.66c0,0,3.92.67,5.36,1.72,1.44,1.05.55,5.31-.14,9.03Z"/>
    <g>
      <path class="cls-1" d="m15.46,19.96c-4.14,0-7.51-3.23-7.51-7.2s3.37-7.2,7.51-7.2,7.51,3.23,7.51,7.2-3.37,7.2-7.51,7.2Z"/>
      <path class="cls-3" d="m15.46,5.92c3.93,0,7.13,3.06,7.13,6.83s-3.2,6.83-7.13,6.83-7.13-3.06-7.13-6.83,3.2-6.83,7.13-6.83m0-.75c-4.35,0-7.88,3.39-7.88,7.58s3.53,7.58,7.88,7.58,7.88-3.39,7.88-7.58-3.53-7.58-7.88-7.58h0Z"/>
    </g>
    <ellipse class="cls-2" cx="15.46" cy="12.75" rx=".87" ry=".83"/>
    <path class="cls-5" d="m28.95,20.67c-.87,4.51-2.52,9.39-3.66,9.37-2.11.05-9.83,0-9.83,0,0,0-7.73.05-9.84,0-1.14.02-2.79-4.86-3.66-9.37-.65-3.37-1.49-7.22-.13-8.17,1.35-.95,5.03-1.55,5.03-1.55,0,0-1.06,3.8,1.47,7.06,1.27,1.63,3.41,3.35,7.13,3.33s5.86-1.7,7.13-3.33c2.53-3.26,1.48-7.06,1.48-7.06,0,0,3.67.6,5.02,1.55,1.35.95.52,4.8-.13,8.17Z"/>
    <path class="cls-2" d="m16.36,12.27c-.2-.35-.5-.52-.9-.52l3.29-4.66-2.39,5.18Z"/>
    <path class="cls-4" d="m19.02,7.87s2.77,1.78,2.47,5.42c0,0,.48-.39.53-.71s.05.86-.65,1.45c0,0-.64-.42-.77-.99,0,0,.5.35.66.28,0,0,0-3.06-2.24-5.44Z"/>
  </g>
</svg>