<?xml version="1.0" encoding="UTF-8"?>
<svg id="Livello_1" data-name="Livello 1" xmlns="http://www.w3.org/2000/svg" version="1.1" viewBox="0 0 176.3 121">
  <defs>
    <style>
      .cls-1 {
        fill: #fff;
        stroke: #fff;
        stroke-linecap: round;
        stroke-linejoin: round;
        stroke-width: 6px;
      }

      .cls-2 {
        fill: #e0c99d;
      }

      .cls-2, .cls-3, .cls-4, .cls-5, .cls-6, .cls-7, .cls-8, .cls-9, .cls-10, .cls-11, .cls-12 {
        stroke-width: 0px;
      }

      .cls-3 {
        opacity: .5;
      }

      .cls-3, .cls-12 {
        fill: #d2bb92;
      }

      .cls-4 {
        fill: #b08574;
      }

      .cls-5 {
        fill: #a05559;
      }

      .cls-6 {
        fill: #d2a790;
      }

      .cls-7 {
        fill: #a6655f;
      }

      .cls-8 {
        fill: #8c4d53;
      }

      .cls-9 {
        fill: #a09b91;
      }

      .cls-10 {
        fill: #b26364;
      }

      .cls-11 {
        fill: #773f47;
      }
    </style>
  </defs>
  <path class="cls-1" d="M169.8,22.4s1.9.6-2.2-1.4c0,0,0,0,0,0-1.3-.7-2.9-1.5-4.5-2.2-2.8-1.3-5.4-2.5-6.9-2.7-.6-.1-1.2-.2-1.9-.3-1.9-.3-4.3-.8-7.6-2-4.4-1.5-7.2-2.6-11.8-1.8-3.6.7-3.5-1.4-9.4-.1s-7.9,1-11.3.9c-2.2,0-4.4,0-6.3.2-3.6-.3-8.9-1.1-11.1-1.3-2.6-.3-5-.4-7-1-1.5-.4-4.6-.8-6.8-1.3,0-.2.1-.4.2-.4.7-.3-1.5-1.8-2.3-1.1,0,0,0,0,0,0-.7,0-1.5-.1-1.8-.2-.1,0-.2.2-.2.6-1.1-.3-2.3-.7-3.9-1.4-.2-.1-.5-.2-.9-.3-3-.9-7.9-1-9.2-.8-1.5.2-3.8.7-6.8.7s-8.5,1.1-10.7,1.2c-2.2.1-6.7,1.4-14.1,5.2-.5.2-1.2.6-1.9,1.1-5.2,3-9.1,6.5-11,8.7-1.1,1.1-2,2-2.5,2.8-1,1.5-2.4,3.7-3.6,5.6-1.1,1.4-2.5,3.4-2.6,4.1-.1.9-.5,3.5-1.4,3.9s-2.4,7.4-2.7,8.9c-.2,1.5-.6,5.2-1.3,6.5s-.2,3-.2,3c0,0-1,1-1.5,2.6-.6,1.6.1,4.2,1,4.1,2.4-.1,2,5.3,2,6s-2.1,3.5-1.6,4.3,2.1,1.4,1.8,3.8c-.3,2.4-.5,3.6.6,5,1.2,1.4.9,5,1.7,6.3.8,1.3,1.1,1.7,1.3,2.3s-.4,1.5-1.2,2.4c-.7,1,1.6,3.4,1.6,3.4v2c0,1.4,2.4,2.6,2.4,3.4s.4,1.5,1.3,4.2c.9,2.7,5.1,7.3,6.2,7.5,1.1.2,2.3,0,2.3,0,0,0,3.6-1.5,5.1-2.3,1.5-.9,3.8-2.3,5.1-5.5,1.3-3.2,5.3-7.2,5.3-7.2l1.2-.6s-1-.9-1.6-1.8-.6-3.6.5-4c1.2-.4,1.6.2,3.1.5,1.5.3,6.4-1.6,7.8-1.4s3.9,3,5.6,2.4c1.7-.5,4.7-1.8,5.4-2.4.3-.3,1.1-1.3,2.2-2.5,2.2-.8,4.9-2.8,6.6-5.9,0,1.9,0,6.5,0,7.2,0,0-.1,0,0,.1,0,0,2.8,1.4,3.8,1.1,1-.3,1.7-2.1,2-3.1.2-.7.3-3.1.2-5.6.4.5.5,1,1.4,1.9,0,0,2.1,2.4,3.6,3.9.2.2.4.3.6.5,0,0,0,0,0,0,1.7,1.4,4,1.8,3.3,1.5,0,0,0,0,0,0,1.8.5,3.7.7,4.6.5,0,0,0,0,.2,0,1-.3,2-2.1,5.6-3.7,1-.4,2-.7,2.8-1,2.8-.9,5.9-1.5,6.2-1.8,1-.9,3,.5,6.2-.3,1.4-.4.5-2.5,2.3-4,2.3-2,7.2-3.5,7.2-3.5,0,0,1.5-.2,2.7-.4,1.1-.2,1.6-1.4,2.5-4.1,2.1-2.8,1.4-3.3,1.4-3.3.3-.7.9-1.8.9-1.8,0-.3.2-.7.4-1.1,0,0,0,0,0,0,0,0,.1-.2.2-.3,0,0,.1-.2.2-.3.1-.2.3-.3.5-.4,0,0,0,0,.1-.1,0,0,.1,0,.2-.1.1,0,.3-.1.4-.2,0,0,0,0,0,0,0,0,.2,0,.3,0,.3,0,.7-.1,1-.2,1.1-.1,2.6-.2,4.3-.5,0,0,0,0,.1,0,1.5.5,3.7.2,5-.6,0,0,1.6-.9,3.3-2.1,1.3-.6,2.3-1.3,3-2s.6-.7.9-1.1c.7-.7,1.1-1.3,1.2-1.9,1-1.9,2.1-4,3-5.1,1.6-1.9,6-4.5,7.4-6.6,1-1.5,2.6-4,4.5-6.2.1,0,.3-.2.4-.2,1.5-.8,1.7-.4,2.3-1.9.1-.2.2-.4.3-.6,2.7-2.3,4.6-5.5,5.3-7.2.7-1.8.5-4.5-2.3-6.7Z"/>
  <g>
    <path class="cls-9" d="M159.5,19.5s4.2,0,6.4,1.5,7.2,3.4,5.5,7.5c-1.7,4.1-1.9,4.5-2.8,5.6s-1.3,1.2-1.9,2.7-.8,1.1-2.3,1.9-3.6,3.3-4.4,4.2-5.5,4.2-7.3,5.9-5.2,9.1-5.5,9.8-4.3,2.8-4.3,2.8l-.7-1.3,12.5-35.2,4.8-5.5Z"/>
    <path class="cls-2" d="M164.5,33.1s-4,3.1-5.9,2.8-2-2-3.5-2.8-1.1,2.6-3.1,2.8-4.4,1.5-5.5-1.4-4.8-9.2-4.4-4.6-2.6,3.9-5,3.5-5,.6-7.2-4-13.2-9-11.2-11.6,6.2-.2,8.4.9,5.3,2.9,6.6,2.4.7-2.4,2.8-1.5,3.5,2,4,2.2.1-2.8.9-3.5,1.5.6,2.4.7-.6-1.6-.2-2.4,1.4-.1,4.8,0c3.4.1,12.1,4.9,14.3,9.7,2.2,4.8,1.7,6.9,1.7,6.9Z"/>
    <path class="cls-7" d="M39.5,99.9s-4,4-5.3,7.2-3.6,4.7-5.1,5.5-5.1,2.3-5.1,2.3c0,0-1.3.2-2.3,0s-5.3-4.8-6.2-7.5-1.3-3.3-1.3-4.2-2.4-2-2.4-3.4v-2s-2.3-2.4-1.6-3.4,1.4-1.8,1.2-2.4-.5-1.1-1.3-2.3-.5-4.9-1.7-6.3-.9-2.6-.6-5-1.3-3.1-1.8-3.8,1.6-3.5,1.6-4.3.4-6.2-2-6-1.5-2.6-1-4.1,1.5-2.6,1.5-2.6c0,0-.4-1.7.2-3s1.1-5,1.3-6.5,1.8-8.5,2.7-8.9,1.3-3.1,1.4-3.9,2.4-4,3.5-5.1,2.9-4.1,4.3-6.2,6.5-7.1,13.9-10.9,11.9-5.1,14.1-5.2,7.8-1.2,10.7-1.2,5.3-.5,6.8-.7,7.3-.1,10.1,1.1,4.3,1.5,6.3,2.1,6.6,1.2,8.6,1.7,4.5.6,7,1,9.6,1.3,12.9,1.5,23.1-.6,27.7-.6,9.4,1.9,11.4,2.7,5,.3,7.2.9,10.7,4,13.6,6.3c2.9,2.2,3.1,4.9,2.3,6.7s-2.9,5.3-5.8,7.7-5.5,6.4-6.9,8.5c-1.4,2.1-5.8,4.7-7.4,6.6s-3.3,6.4-5.1,8.2-6.3,3.7-11.5,4.7-5.6.2-6.8,1.4-2.2,3.9-3,6.1c-1.2,3.4-1.7,4.8-2.8,5s-2.7.4-2.7.4c0,0-4.9,1.5-7.2,3.5s-.9,3.6-2.3,4c-3.2.9-5.2-.5-6.2.3s-6.2,1.5-9.1,2.8-4.7,3.6-5.7,3.8c-1.8.3-7.2-.6-8.8-3s-3.2-3.3-3.6-4.1-1.2-1.9-1.2-1.9c0,0-5.6-1.1-8,1.5s-6,7.3-6.7,8-3.7,1.9-5.4,2.4-4.2-2.2-5.6-2.4-6.3,1.7-7.8,1.4-1.9-1-3.1-.5-1.2,3.1-.5,4,1.6,1.8,1.6,1.8l-1.2.6Z"/>
    <path class="cls-5" d="M105.1,15.5s7.7.1,5.8,9.3,11.1.8,5.1,17.8-5.2,7.8-5.6,8.9c-8.6,23.9.6,17.9,3.9,20.7s3.1-.5,4,1.2,3.9,3.6,5.8,1.3c3.5-4.1,2.6-4.8,2.6-4.8,0,0,1.3-11.6,2.8-14.4s5.5-5.9,1.9-12.8-1.5-13.4-1.5-13.4l-4.3-13.1-20.5-.7Z"/>
    <path class="cls-8" d="M99.1,12.7c3.9,2.5,6.4,14.2,8,8.3,1.7-6.2.7-3.9,5.4-3.7s-1.9,2.2,3.5,8.2,22.5-2.1,24.5-1.4,9-1.2,11.3-1.1,7.8-.1,7.8-.1l10.1-.5s1.9.6-2.2-1.4c-4.1-2-9.1-4.6-11.4-4.9s-5-.7-9.4-2.2-7.2-2.6-11.8-1.8-3.5-1.4-9.4-.1-7.9,1-11.3.9-7.1.2-9,.4c-1.9.2-9.5-2.7-6.3-.6Z"/>
    <path class="cls-8" d="M77.7,85.7s2.7,3.2,4.2,4.4,4,1.8,3.3,1.5c-1.4-.6-.6-3.3-.6-6.2s1.4-5.5,1.4-5.5c0,0-1.5,0-2.9-1.4s-.3-2,.5-3.4,1.3-4.9,1.2-5.9-5.2.7-4.4-1.6c1.7-5,.2-3.6,1.4-5.2s-1.9-4.4-2.5-5.7-1.5-2.7-2.2-3.4-.6-1.2-1.2-2.3-.5-2-.5-2l-4.9,4.2,2,26.8,2.6,4.4s0-1.7.9-1,.8,1.2,1.9,2.4Z"/>
    <path class="cls-5" d="M38.5,46s-1.1-4.6,1.4-3.9,1.6-2.4,2.1-3.8c1.6-4.8,8.2,1.6,9.5-1.3,1.3-2.9,3.2-8,5.3-6.4s5.9,8.8,6.6,7.9,1.4-2.2,1.8-2.7,5.5-3.3,6.3-3.3-2-4,.7-4.6,5.3-1.4,6.4-.7-.6,7.3-2.7,10.2-2.4,12.2-4.7,18-.3,14.8,0,15.4c4.4,13.1-7.3,21.3-10.9,19s-4.4.2-4.2-3.5,2.5-13.1,1.6-19.1-3.5-2.5-2.7-6.9-.2-3.1-.3-5.1c-.1-3-2.7-.6-3.3-1.9-.9-2.2-12.9-7.4-12.9-7.4Z"/>
    <path class="cls-8" d="M71.8,81.6s-1.9-4.8.2-7.9,4.3-6.8,3.5-8.5-1.1-.7-1-5.1-2-4.5-.5-6.7,1.4-2.6,1.4-2.6c0,0-1.8,1.1-3.1-.9s-1.6-.6-2-2.7-4.6-5.8-4.6-5.8c-3,0-.4,1.9-.8,5.8s2.7,5.3-.3,8.2.2,4.1-3.2,17.2,3.1-2.5,3.5,3-.8,6.4-.5,7.2,1.7-.5,2.1,1.6-1,3.4-.6,3.7c2,1,6-6.4,6-6.4Z"/>
    <path class="cls-3" d="M27.7,24.3s3.5-8,6-7.3,6,1.1,7.2.4,2,.6,3.4-2.3c1.3-2.9,4.2-5.9,6.3-4.3,2.1,1.6,3.3,1.8,4,.9s3.5-1.8,3.9-2.3,4.5,0,5.3,0,0-2.1,2.8-2.7,7.3-.5,8.4.2-4.7,4.4-6.8,7.4-6.5-.4-6.2,7.7-6.5.3-10,10.9c-1.4,4.2,4.5,10.7.9,8.4s0,1.8-4.6,1.7-3.7-.4-5.8-1.9-6.1-4.9-7-7.2-7.8-9.7-7.8-9.7Z"/>
    <path class="cls-6" d="M75.7,78.9s.4,2.6.3,3.5-.7,7.9-1.2,9-1.4.4-1.8.6-2.6-.6-2.6-.6c0,0,0-6.6,0-7.9s0-5.1-.2-6.7-.4-10.8-.4-11.7.7-8.7.6-10.1.4-3.8.4-5.4,1-5.8,1.3-6.5,1.4-6.2,3.6-10.6,1.2-11.8,2.6-14.5.3-10.4,1-10.1,3.8.2,2.9,1-.2,4.4-.4,5.6c-.7,5.2,0,6.1-.7,6.5s-1,3.3-1,4.6,0,3.4,0,4,1.2,1.5,1.2,1.9-1,1.7-1.5,2-1.7.7-1.7,1.4,0,1.5,0,1.5c0,0,1.1,1.5.9,1.8s-1.2,1-1.3,1.5-.4,1.1-.4,1.3-.2.5-.5.9-.8,2.5-.9,3,0,1.8.1,1.9-.7,1.2-.8,2.2-1.1,5.1-1.1,5.1l-.6,2.8s-1.1,3.6-.6,4.9.6,5.5.6,6.3.8,3,.8,3.7,1.1,6.3,1.3,7.2,0,0,0,0Z"/>
    <path class="cls-4" d="M72.7,48.2s.4,0,1.5,0,1.9-.5,2-1-1.9,3-2,3.7-1.2,5.2-.7,5.9-.3,5.5,0,6.1.6,4.3.6,5.7.5,6.3.9,7.3.9,4,.4,4-1-2.7-2.1-3.5-1.7-1-2-1.6-.3-3.1,0-3.8.8-1.6.5-2.3-1.3-1.1-.7-2,.7-1.7.5-3.2-.6-6,0-7.2,1.4-3.8,1.6-4.7-.4-3.4-.4-3.4Z"/>
    <path class="cls-11" d="M70.3,91.4s2.8,1.4,3.8,1.1,1.7-2.1,2-3.1.3-6.1,0-9,.1-3.4-.8-8.2-.8-11.5-1-12.9-.5-2.8,0-4.3.3-3.8.9-5.2,1.6-3.1,1.3-4.1.1-2.1.3-3,1.8-2.4,1.5-3.1,1.6-.9.9-2-.9-2.3-.4-3.1,2.7-1.4,3.1-2.6-.7-2.4,0-3-.8-.2-.3-2.8-1.7-.3,0-2,0-3.6,1.1-4.8-1.7-3.1-.4-4.1.4-6.1,1.1-6.3-1.5-1.8-2.3-1.1.6,12.2,0,12.9-.8.7-1.8,5.3,1.2,4.3,1.3,4.9-.1,1.9-.9,1.8-2.1.3-2.3,1.1-.5,1.8,0,2.1,1.9,1.4,1.1,2.2-1.8.9-1.5,1.6,0,1.3-.3,1.1-1.3-.9-1.3,0,.6,1.8.5,2.7-1.6.3-1.4,1.1,1,.5,1.1,1.2.4,1.7-.2,2.2-1.1,3-1.1,3.5-.9,3.8-1.3,4.3-.5,5.9-.4,6.4,1.1,4,.6,4.5-1.8,1.4-1.4,1.8,1.3.6,1.6,1.9-.3,2.9,0,3.7,1.4,2.2,1.4,2.8-.8,3.6-.6,5.1.4,2.6.6,3.6.3,1.7,0,1.9,0,1.2-.4,2.2-1.8,1.5-1.8,1.5c0,0-2.7-.2-2.2,0Z"/>
    <path class="cls-10" d="M168.4,32.4s-4,3.1-5.9,2.8-2-2-3.5-2.8-1.1,2.6-3.1,2.8-4.4,1.5-5.5-1.4-4.8-9.2-4.4-4.6-2.8,2.4-5,3.5c-7,3.4-23.4,6.6-14.5-7.1,2.8-4.3,2.3-8.7,4.5-7.6s5.3,2.9,6.6,2.4.7-2.4,2.8-1.5c2,.9,3.5,2,4,2.2s.1-2.8.9-3.5,1.5.6,2.4.7-.6-1.6-.2-2.4,1.4-.1,4.8,0,13.5,5.2,6.9,8.9,9.1,7.7,9.1,7.7Z"/>
    <path class="cls-5" d="M18.7,31.9c-.4-1.5-5.1,5-3.4,7.2s2.4,5.8,1.9,6.8-3.5,2.1-3.6,3.6,1.1,2.4,1.4,4.3-1.1,4.3-1.4,6.6,1.4,2.6,1.4,4.2-1.4,3.7-1.4,3.7c0,0,1.1,4.6,1.4,5.6s-.4,6.1-.4,6.1c0,0-3.8,4.3-1,4.4s3.8,8.6,1.4,7.7c-2.4-.9-4.3,3-2,5,2.3,2,5.4,2.6,5.4,4.8s1.2,6.5,2.1,7.1,2.1-3.4,3.7-4.3,1,.5,4.6,5.4c1.3,1.8,5.5-6.8,5.7-9.7s4.7.6,3.9-2.7-3.2-6-2.1-11.7c1.1-5.6,2.1-7.4,2.1-7.4,0,0,1.6-3-6.3-6s-2.9-2.7-4.4-7.4-1.2-4.3-1.2-7.6-.5-3.3-1.4-4.7-3-2.7-3-4.1c-.1-2,3.4-3.9,2.8-5.7s-.2-.5-.7-1.4c-4.9-8.2-5.1-8.4-5.4-9.9Z"/>
    <path class="cls-5" d="M104.9,85.3c-1.7-3-1.9-8.3-1.7-10s-1-4.4-.4-6.1-3.8-5.7-3.5-7.1,3.9-1.3,3.9-1.3c0,0,1.7-3.9,1.6-4.7s-.8-3.6-.8-3.6c0,0,4.9-3.1,2.6-3.7s1.4-4.4,3.2-3.3.9-.6.7-3c-.6-7.8-9.4-5.4-9.1-7.2s.5-6-2.2-9-4.7,8-6.6-.7-.9-13.9-4.1-10.1-1.9,5.8-2.6,8-2.4,8-2.3,10.7,1.5,5.4-.3,9.7-5,.8-5,.8c0,0-4.3,2.6-3.9,13,0,2.1,3.3,3.1,3.7,7s1.6,3,1,5.6.9,3.4,1.4,4.7,2.8,2.4,2.6,3.5c-.5,3.4.4,5.5-.7,7.8-2.3,4.5,2.9,5.3,7.5,5.8s2.7-2.6,5.7-3.8c6-2.3,9.4-3,9.4-3Z"/>
    <path class="cls-8" d="M38.4,22.7c-3.2-1.5-3.3-6.4-5.6-3.9s-.9,5.5-.6,6.7,4.1,3.7,1.8,6.1-10.2-6.1-10.8-.7-4.7-1.5-5.5-1.5-6.1,5.8-6.1,5.8c0,0,4.1-6.4,6.2-9.7s11.8-10.9,15.4-12.5,3.9-1,4.8-1.1c3.8-.7,3.7.4,6.9,1.6s12,1.2,13.6,2.6-1,1.8-7.2,1.8,2.5,6.3-4.4,4-4.4,2.7-8.7.7Z"/>
    <path class="cls-10" d="M20.7,36.9c-4.7-4.7.6-2,4.4-.6s5.6,5.7,5.3,7.6c-1.5,10.3,10.2,7.2,8.9,9.2-6.6,10.1,4.4,16.7,1.8,19.6s-12.1-6.6-9.4-2.9-1.7,4.2-3.6-.8-1-11.8-3-10c0,0,1.1-5.6-.8-6.4s-3.5-4.5-1.2-6.1,2.7-2.8.9-4.7-.9-2.5-3.3-4.9Z"/>
    <path class="cls-3" d="M118.5,51.5s5.6-11.9,7.7-10.4,1.7-4.7,3.2-4.9,1.7,1.3,4-1c2.3-2.2,4.1-3.3,5.5-1s4,6,5,5.4,2.1-1.6,2.7-1.9,2.2-4.2,5.1.6-4.5,3.1-5.4,7.1-2.2.8-1.9,8.6,2.9,1.9.8,4.2-1.8,3.9-3.5,4.7c-2.9,1.4-8,1.7-11.7,2.4s-2.2,1.9-2.2,2.6c0,0-.6,1.1-.9,1.8-.5,1.3-.8,2.4-1.7,1.1s-1.5-2.7-2.6-5.1,0-4.6,1.3-11.5-5.2-2.8-5.2-2.8Z"/>
    <path class="cls-5" d="M140.6,64.1s11.2-6.3,7.8-8.2-3.8-3-2.2-5,5.6-4.8,4-6.5-4,2.4-4.5-1-8.8,11.4-8.8,11.4c0,0,1.9,1.2-1.7,5.8s2.7,5.3,5.5,3.6Z"/>
    <path class="cls-8" d="M87.2,43.3s.5,3.6-2.4,6.9-5.9,7.2-4.4,8.8,1.9.6,2.5,5,4,4.3,1.9,6.6-1.8,2.7-1.8,2.7c0,0-.6,2,1.8,3.9s4.3,1.4,5.2,3.5,1.6,5.8,1.6,5.8c5-.4,6.1-7.8,6.1-11.8s-4.4-5.3,0-8.5,6.9-3.2,4.5-6.9.8-6.7-.7-12.1-.4-.8-1.5-2.6-1.8-.2-2.7-.5-2.4-2-2.4-2.4c-.2-2,.8-6.2-1.1-7.5-3.2-2.2-.7-5.9-3.1-7.3s-3.5,4.7-4,6c-1.5,4.1.5,10.3.5,10.3Z"/>
    <path class="cls-5" d="M45.1,55.4s6.8,3.3,7,9,2.4,13,1.1,14.8c-3.7,4.9-1.1,9-3.5,8.9s-2.5-10-3.9-8.1c-1.4,1.8.7-4.9,2.6-6.6,3-2.6-1.6-5.7-2.5-6.8s-.8-11.1-.8-11.1Z"/>
    <path class="cls-12" d="M123.5,75.7"/>
  </g>
</svg>