<?xml version="1.0" encoding="utf-8"?>
<!-- Generator: Adobe Illustrator 27.9.0, SVG Export Plug-In . SVG Version: 6.00 Build 0)  -->
<svg version="1.1" id="Livello_2_00000173133179640327491170000007348789942976030081_"
	 xmlns="http://www.w3.org/2000/svg" xmlns:xlink="http://www.w3.org/1999/xlink" x="0px" y="0px" viewBox="0 0 30.6 27.8"
	 style="enable-background:new 0 0 30.6 27.8;" xml:space="preserve">
<style type="text/css">
	.st0{fill:#FFFFFF;}
	.st1{fill:#AFAFAF;}
	.st2{fill:#BF5557;stroke:#BF5557;stroke-width:0.1;stroke-linecap:round;stroke-linejoin:round;stroke-miterlimit:10;}
	.st3{fill:#3F3E44;}
	.st4{fill:#BF5557;stroke:#BF5557;stroke-width:0.15;stroke-linecap:round;stroke-linejoin:round;stroke-miterlimit:10;}
	.st5{fill:#88BDB4;stroke:#88BDB4;stroke-width:0.25;stroke-linecap:round;stroke-linejoin:round;stroke-miterlimit:10;}
</style>
<g id="Symptoms">
	<g id="ic_loss">
		<path class="st0" d="M28.5,17.1c-0.8,4.5-2.5,9.5-3.6,9.4c-2.1,0-9.6,0-9.6,0s-7.5,0-9.6,0c-1.1,0-2.7-4.9-3.6-9.4
			c-0.6-3.4-1.4-7.3-0.1-8.2C3.4,7.9,7,7.3,7,7.3s1.5-6.1,8.4-6.1s8.4,6.1,8.4,6.1s3.6,0.6,4.9,1.6S29.1,13.7,28.5,17.1L28.5,17.1z"
			/>
		<g>
			<ellipse class="st0" cx="15.5" cy="9.8" rx="6.8" ry="6.6"/>
			<path class="st1" d="M15.5,3.6C19,3.6,22,6.4,22,9.8S19,16,15.5,16S9,13.3,9,9.8S11.9,3.6,15.5,3.6 M15.5,2.9
				c-4,0-7.2,3.1-7.2,6.9s3.2,6.9,7.2,6.9s7.2-3.1,7.2-6.9S19.4,2.9,15.5,2.9L15.5,2.9z"/>
		</g>
		<ellipse class="st2" cx="15.5" cy="10.2" rx="0.8" ry="0.8"/>
		<path class="st3" d="M27.8,17c-0.8,4.1-2.3,8.6-3.3,8.5c-1.9,0-9,0-9,0s-7,0-9,0c-1,0-2.5-4.4-3.3-8.5C2.6,14,1.8,10.5,3,9.6
			c1.2-0.9,4.6-1.4,4.6-1.4s-1,3.5,1.3,6.4c1.2,1.5,3.1,3.1,6.5,3c3.4,0,5.3-1.5,6.5-3c2.3-3,1.3-6.4,1.3-6.4s3.3,0.5,4.6,1.4
			S28.4,14,27.8,17L27.8,17z"/>
		<path class="st4" d="M14.5,9.6c0.2-0.3,0.5-0.5,0.8-0.5c0,0-2.8-4.2-2.9-4.1C12.3,5,14.5,9.6,14.5,9.6z"/>
		<path class="st5" d="M12.1,5.7c0,0-2.5,1.7-2,5c0,0-0.3-0.3-0.5-0.7c-0.1-0.1,0.1,0.9,0.7,1.3c0,0,0.6-0.4,0.7-0.9
			c0,0-0.4,0.3-0.6,0.3C10.2,10.7,10.1,7.9,12.1,5.7z"/>
	</g>
</g>
</svg>
