<?xml version="1.0" encoding="UTF-8"?>
<svg id="Livello_1" data-name="Livello 1" xmlns="http://www.w3.org/2000/svg" version="1.1" viewBox="0 0 136.6 39">
  <defs>
    <style>
      .cls-1 {
        fill: #f7e3cb;
      }

      .cls-1, .cls-2, .cls-3, .cls-4, .cls-5, .cls-6, .cls-7, .cls-8, .cls-9, .cls-10, .cls-11, .cls-12, .cls-13, .cls-14 {
        stroke-width: 0px;
      }

      .cls-15 {
        stroke-width: 1.5px;
      }

      .cls-15, .cls-2, .cls-16 {
        fill: none;
      }

      .cls-15, .cls-16 {
        stroke-linecap: round;
        stroke-linejoin: round;
      }

      .cls-15, .cls-16, .cls-17 {
        stroke: #fff;
      }

      .cls-3 {
        fill: #c98c8c;
      }

      .cls-16 {
        stroke-width: 2px;
      }

      .cls-4 {
        fill: #a05559;
      }

      .cls-5 {
        fill: #edb980;
      }

      .cls-6 {
        fill: #c46769;
      }

      .cls-7 {
        fill: #b37c7c;
      }

      .cls-17 {
        stroke-miterlimit: 10;
        stroke-width: .8px;
      }

      .cls-17, .cls-11 {
        fill: #d99898;
      }

      .cls-8 {
        fill: #d68e91;
      }

      .cls-9 {
        fill: #8c484f;
      }

      .cls-10 {
        fill: #f0c69d;
      }

      .cls-12 {
        fill: #fff;
      }

      .cls-13 {
        fill: #bf5456;
      }

      .cls-14 {
        fill: #b26364;
      }
    </style>
  </defs>
  <g>
    <g id="ic_pneumonia" data-name="ic pneumonia">
      <path class="cls-12" d="M50.5,6.5s-.3,1.7-.3,3.5c0,1.4.1,2.9.2,3.6.2,1.5.1,1.7-.4,2.1,0,0,.5,1.1.4,1.5,0,0,.4-.3.5-.4s.3-.4.8-.1l.5.3s0-.5.3-1.4c0,0-1.1-.4-1-3.7,0-2.5,0-4.4,0-5.2,0,0-.3,0-.6,0s-.5-.1-.5-.1Z"/>
      <g>
        <path class="cls-11" d="M39.6,33.6c-1.5,0-1.8-1-1.8-1h0s-1-1.5-1.4-5.8c-.4-4.3,1.9-9.9,2-10.1.2-.4,3.8-9.1,7.2-9.1s1.2.2,1.7.7c1.8,1.8,1.7,6.5,1.7,6.7,1.6,5,1.7,8.9.5,11.6,0,.7-.1,4.1-1.1,4.9-.9.5-2.8,1.1-4.4,1.1s-.7,0-1-.1c-1.1.6-1.7.9-2.5,1.1-.3,0-.6,0-.8,0h0Z"/>
        <path class="cls-12" d="M45.6,7.9c3.3,0,3.1,7.2,3.1,7.2,1.8,5.9,1.5,9.5.5,11.6,0,.2,0,4-1,4.7-.9.5-2.8,1-4.3,1s-.8,0-1.1-.1c-1.1.6-1.8.9-2.5,1.1-.3,0-.5,0-.8,0-1.4,0-1.6-.9-1.6-.9,0,0-1-1.4-1.4-5.7s2-10,2-10c0,0,3.8-8.9,7-8.9M45.6,7.4c-3.5,0-7.1,8.3-7.5,9.2,0,.2-2.4,5.9-2,10.2.4,3.9,1.2,5.6,1.5,5.9.1.3.6,1.1,2.1,1.1s.6,0,.8,0c.8-.2,1.4-.5,2.5-1,.3,0,.6,0,1,0,1.5,0,3.5-.5,4.5-1.1h0s0,0,0,0c1-.8,1.2-4,1.2-5,1.2-2.7,1.1-6.6-.5-11.7,0-.7,0-5-1.8-6.8-.5-.5-1.1-.8-1.8-.8h0Z"/>
      </g>
      <path class="cls-3" d="M48.7,15.1s.1-1.9-.4-3.9c-.4-1.7-1.1-2.6-1.5-2.9-.9-.6-.6,1.5-.6,1.5,0,0,.4,3.5,2.6,5.3Z"/>
      <g>
        <path class="cls-11" d="M44.1,32.5c-.5,0-.8,0-.8,0h-.3c0,0,.3-.2.3-.2,3.5-2,4.8-3.6,5.5-4.3.4-.5.4-.6.4-.6l.2-.6v.6c.2.6,0,2.2-.4,3.2-.3,1.1-.5,1.1-2.3,1.6h-.2c-1,.3-1.8.4-2.3.4h0Z"/>
        <path class="cls-12" d="M49.2,27.2c0,.6-.1,2.1-.5,3.2s-.4,1-2.4,1.6c-1,.3-1.8.4-2.3.4s-.8,0-.8,0c3.3-1.9,4.7-3.4,5.5-4.3.4-.5.5-.7.5-.7M49.3,25.8l-.3,1.4s0,.2-.4.6c-.6.7-2,2.3-5.4,4.3l-.6.3h.6c0,.1.3.2.9.2s1.3,0,2.4-.4h.2c1.8-.6,2-.6,2.4-1.8.3-1.1.6-2.6.5-3.3l-.2-1.4h0Z"/>
      </g>
      <g>
        <g>
          <path class="cls-11" d="M62.9,33.9c-.2,0-.5,0-.8,0-.7-.2-1.4-.5-2.5-1.1-.3,0-.6.1-1,.1-1.6,0-3.5-.5-4.4-1-1-.8-1.2-4.1-1.1-4.9-1.2-2.7-1-6.6.5-11.7,0-.1-.1-4.8,1.7-6.6.5-.5,1-.7,1.7-.7,3.4,0,7.1,8.7,7.2,9.1.1.2,2.4,5.8,2,10.1-.4,4.3-1.4,5.8-1.4,5.8h0s-.3,1-1.8,1h0Z"/>
          <path class="cls-12" d="M56.9,8.2c3.3,0,7,8.9,7,8.9,0,0,2.4,5.7,2,10-.4,4.3-1.4,5.7-1.4,5.7,0,0-.2.9-1.6.9s-.5,0-.8,0c-.7-.2-1.4-.5-2.5-1.1-.3,0-.7.1-1.1.1-1.5,0-3.4-.5-4.3-1-.9-.7-1.1-4.4-1-4.7-1-2.1-1.3-5.6.5-11.6,0,0-.2-7.2,3.1-7.2M56.9,7.7c-.7,0-1.3.3-1.8.8-1.7,1.8-1.8,6.1-1.8,6.8-1.6,5.1-1.7,9-.5,11.7,0,1,.2,4.2,1.2,5h0s0,0,0,0c1,.6,3.1,1.1,4.5,1.1s.7,0,1,0c1,.6,1.7.9,2.5,1,.3,0,.6,0,.9,0,1.5,0,1.9-.9,2.1-1.1.2-.3,1.1-1.9,1.5-5.9.4-4.4-1.9-10-2-10.2-.4-.9-4-9.2-7.5-9.2h0Z"/>
        </g>
        <g>
          <path class="cls-11" d="M59,32.9c-.5,0-1.6,0-2.9-.4h-.2c-1.8-.6-1.9-.6-2.3-1.7-.3-1-.8-3.1-.7-3.8,0,0,0-.1.1-.1h0s0,0,.1,0c0,0,.4.7.8,1.2.8.9,2.2,2.6,5.5,4.5,0,0,0,0,0,.1s0,0-.1.1c0,0-.2,0-.5,0h0Z"/>
          <path class="cls-12" d="M53,27s.4.7.9,1.2c.8.9,2.2,2.6,5.6,4.5,0,0-.2,0-.5,0-.6,0-1.6,0-2.9-.4-2-.6-2.1-.6-2.4-1.6s-.8-3.1-.7-3.7M53,26.8h0c-.1,0-.2.1-.2.2,0,.7.3,2.8.7,3.8.4,1.1.6,1.2,2.4,1.7h.2c1.3.4,2.3.5,3,.5s.5,0,.5,0c.1,0,.2,0,.2-.2,0-.1,0-.2-.1-.3-3.3-1.9-4.7-3.6-5.5-4.5-.4-.5-.8-1.1-.8-1.2,0,0-.1-.1-.2-.1h0Z"/>
        </g>
      </g>
      <path class="cls-3" d="M53.8,15.3s-.1-1.9.4-3.9c.4-1.7,1.1-2.6,1.5-2.9.9-.6.6,1.5.6,1.5,0,0-.4,3.5-2.6,5.3Z"/>
      <path class="cls-3" d="M45.3,30.6c1.3-.9,2.4-1.9,3.1-2.6,1-1.1,1.8-3.1,1.7-6.4,0-1.8-11.7-4.1-12-3.1-.4,1.3-1,3.2-1.3,5.2,0,0,1.4,2.6,3.7,4.4,2.9,2.3,4.8,2.5,4.8,2.5h0Z"/>
      <path class="cls-7" d="M36.7,23.7c-.1,1-.2,2.1-.1,3.1.4,4.3,1.4,5.7,1.4,5.7,0,0,.3,1.2,2.4.8,1.2-.2,3.1-1.4,4.9-2.7,0,0-2.3-.5-4.8-2.5-2.5-2-3.7-4.4-3.7-4.4h0Z"/>
    </g>
    <g>
      <path class="cls-6" d="M46.8,22c.3-.6.8-1,1.3-1,.9,0,1.6,1,1.6,2.3,0,.5,0,.9-.3,1.3-.3.6-.8,1-1.3,1-.4,0-.8-.2-1.1-.7-.3-.4-.5-1-.5-1.6,0-.5,0-.9.3-1.3h0Z"/>
      <path class="cls-13" d="M48.4,25.6c-.6,0-1.5-1.4-1.3-2.8s.9-1.8,1.4-1.7c0,0-1.4-.4-1.8,1.6s0,.5,0,1.1.2.9.5,1.4c.5.7,1.2.5,1.2.5Z"/>
      <path class="cls-8" d="M48.3,25.2c.2,0,.8-.9.8-1.5,0-.8,0-1.3-.3-2.1.3.3.7.8.7,1.9,0,.9-.5,1.6-1.1,1.6h0Z"/>
    </g>
    <g>
      <path class="cls-6" d="M46.6,19.7c0-.2-.1-.5,0-.8,0-.4.2-.7.4-.9.2-.2.4-.4.7-.3.3,0,.6.3.7.7s.1.5,0,.8c0,.7-.6,1.3-1.1,1.3-.3,0-.6-.3-.7-.7h0Z"/>
      <path class="cls-13" d="M47,18c-.2.3-.3.5-.4.8s0,.4,0,.6c.1,1.2,1,1,1,1-.3,0-.7-.6-.7-1.1,0-.8.6-1.6.9-1.6,0,0-.4-.2-.8.2Z"/>
      <path class="cls-8" d="M47.6,17.9c.4,0,.6.5.5,1,0,.7-.3.9-.5,1.1.2-.5.3-.8.3-1.2s-.3-.8-.4-.9h0Z"/>
    </g>
    <g>
      <path class="cls-6" d="M62.7,27.3c-.1-.3-.2-.7-.1-1.2,0-.5.3-1,.6-1.4.3-.4.7-.5,1-.5.5,0,.9.4,1.1,1s.2.7.1,1.2c-.1,1.1-.8,2-1.6,1.9-.5,0-.9-.4-1.1-1h0Z"/>
      <path class="cls-13" d="M63.2,24.7c-.3.4-.5.8-.6,1.2s0,.7,0,.9c.2,1.8,1.5,1.5,1.5,1.5-.5,0-1.1-.8-1.1-1.6,0-1.3.8-2.4,1.4-2.4,0,0-.6-.3-1.1.4Z"/>
      <path class="cls-8" d="M64.2,24.6c.5,0,.9.7.8,1.5,0,1-.5,1.4-.7,1.6.3-.7.5-1.1.5-1.8s-.4-1.3-.6-1.3h0Z"/>
    </g>
  </g>
  <g>
    <g>
      <path class="cls-12" d="M31.6,22.6c0-1.9-.8-3.6-2-4.5-.1-2.1-1.8-3.8-3.8-3.9-.9-1.6-2.7-2.7-4.6-2.7s-.9,0-1.3.2c-.7-.4-1.6-.6-2.4-.6-1.4,0-2.6.5-3.5,1.4-.4,0-.7-.1-1.1-.1-1.9,0-3.6,1.1-4.5,2.7-.1,0-.2,0-.4,0-1.2,0-2.1.9-2.3,2-1.6,1-2.7,2.7-2.7,4.6,0,2.9,3,5.5,6,5.8.9,1.5,2.3,2.6,4.1,2.9.7.3,1.6.4,2.6.4s1.3,0,1.9-.2c0,0,2.4-1.3,2.4-.5,0,.9.4,2.4,1,2.5.5.1,1,.2,1.6.2,3.1,0,5.7-1.2,6.2-3.9,1.4,0,2.6-.9,2.8-2.1,0-.5-.1-1.1-.5-1.5.3-.8.5-1.6.5-2.5h0Z"/>
      <path class="cls-17" d="M31.1,22.3c0-1.8-.8-3.4-1.9-4.2-.1-2-1.7-3.6-3.7-3.7-.9-1.5-2.6-2.6-4.5-2.6s-.8,0-1.2.2c-.7-.4-1.5-.6-2.4-.6-1.3,0-2.5.5-3.4,1.3-.3,0-.7-.1-1.1-.1-1.9,0-3.5,1-4.3,2.5-.1,0-.2,0-.4,0-1.1,0-2.1.8-2.3,1.9-1.5.9-2.6,2.5-2.6,4.4,0,2.7,2.9,5.2,5.8,5.5.8,1.5,2.3,2.5,4,2.8.7.2,1.6.4,2.6.4s1.3,0,1.9-.2c0,0,2.6,3.6,2.5,4.4,0,.8,1.7,1.4,1.3,0-.2-.7-.4-1.6-.6-2.5.5.1,1,.2,1.5.2,3,0,5.5-1.2,6-3.7,1.4,0,2.5-.9,2.7-2,0-.5-.1-1-.5-1.5.3-.7.5-1.5.5-2.4h0Z"/>
      <path class="cls-12" d="M8.6,14.7c.3.7.4,1.6.1,2.2,0,0,0,.1,0,.2.1.2.3.5.5.7-.5-.2-1-.4-1-1.1.2-.7.1-1.4.3-2.1h0Z"/>
      <path class="cls-12" d="M14.4,12.2c-.3.9-.7,1.7-.9,2.6,0,.9.1,1.8.2,2.7-.5-.9-.8-1.8-.7-2.8.3-1,.8-1.7,1.4-2.5h0Z"/>
      <path class="cls-12" d="M13.5,13.9c0,.9-1.3,1.7-1.9.8.8,0,1.2-.4,1.9-.8h0Z"/>
      <path class="cls-12" d="M18.4,16.6c-1.9-1.6.3-3.9,1.6-5.1l.3.4c-.2.2-.4.4-.5.6-.6.9.7,1.3,1.4,1.5-.6,0-1.3,0-1.8-.6-.4-.7.1-1.4.6-1.8l.3.4c-1.2,1.2-3.3,2.9-2,4.7h0Z"/>
      <path class="cls-12" d="M25.2,13.9c.9,1.1,0,2.3-1.2,2.7h-.3c-.3-.4-.9-.4-1.4-.4-.5,0-1.1,0-1.7.1,1-.3,2-.6,3-.4.2,0,.3,0,.5.3,0,0-.3-.1-.3-.1,1.2-.2,2-1.1,1.3-2.2h0Z"/>
      <path class="cls-12" d="M23.9,16.4c.7.4,1.4,1.7.7,2.3,0-.9-.5-1.5-.7-2.3h0Z"/>
      <path class="cls-12" d="M8.5,26.5c0-3.6,2.7-5.4,6.1-4.3.5.2.8.4,1.2.3.4,0,.9-.3,1.3-.5h-.1c.1-.4.3-.8.6-1.2.4-.6,1.2-1.1,2-.9l.7.2,1.4.4-1.4-.2c-.5,0-1-.2-1.4,0-.9.3-1.3,1.3-1.5,2.2-1,.5-1.9.9-3,.3-3.2-1.1-5.5.5-6,3.8h0Z"/>
      <path class="cls-12" d="M10.3,22.9c-.9-.2-1.5-1.1-2.3-1.2.9-.5,1.9.5,2.3,1.2h0Z"/>
      <path class="cls-12" d="M12.3,22.2c-.5-.7-.8-1.5-.8-2.3,0-.3,0-.6.3-.8,0,1,.6,2,.5,3.2h0Z"/>
      <path class="cls-12" d="M16.6,22.2c-.4-.6-.8-.9-1-1.5,0-.2,0-.5.1-.7,0,.2.1.4.2.5.4.4.9,1,.7,1.7h0Z"/>
      <path class="cls-12" d="M16.2,25.8c.3-.8,1.3-1.1,2.1-1.2,1.7-.2,3.5.3,5-.8.8-.7,1.7-1,2.8-.6h0c.2,0,.4-.2.6-.4.1-.2.2-.5.3-.7.1-.5,0-1.1,0-1.7.2.5.3,1.1.3,1.7,0,.6-.3,1.3-1.1,1.5-.5,0-.9-.1-1.3,0-.8.3-1.5,1.2-2.4,1.4-1.8.7-4.8-.8-6.1,1h0Z"/>
      <path class="cls-12" d="M25.6,26.1c1,0,1.8,0,2.5-.8.7-.6,2.1-1.3,2.7-.3-.9-.6-1.7.2-2.4.7-.8.7-1.9.8-2.8.4h0Z"/>
      <path class="cls-12" d="M22.2,24.6c.8,0,1.3.9.9,1.5-.4-.6-.5-1-.9-1.5h0Z"/>
      <path class="cls-12" d="M20.1,24.4c-.7-.5-1.5-2-.2-2.3-.1.2-.2.4-.2.5,0,.5.5,1.1.4,1.7h0Z"/>
      <path class="cls-12" d="M20.1,20c0-.4.2-1,.7-.9,0,0,0,0,0,0,0,0,0-.2.1-.4.2.2.4.6,0,.8-.5.1-.4.1-.9.5h0Z"/>
    </g>
    <g>
      <path class="cls-6" d="M11.3,26.4c-.7-.4-1.1-.9-1.1-1.5,0-1,1.2-1.7,2.6-1.6.5,0,1,.2,1.4.4.7.4,1.1.9,1.1,1.5,0,.5-.3.9-.8,1.2-.5.3-1.1.4-1.8.4-.5,0-1-.2-1.4-.4h0Z"/>
      <path class="cls-13" d="M15.3,25c0,.7-1.7,1.5-3.2,1.2s-1.9-1.1-1.8-1.7c0,0-.6,1.5,1.6,2.1s.5.1,1.2.1,1-.1,1.6-.5c.9-.5.7-1.3.7-1.3Z"/>
      <path class="cls-8" d="M15,25.1c0-.2-.9-.9-1.5-1-.9-.1-1.4,0-2.4.2.3-.3.9-.7,2.2-.6,1,0,1.8.6,1.7,1.3h0Z"/>
    </g>
    <g>
      <path class="cls-6" d="M17.5,27.6c-.4-.2-.6-.5-.6-.9,0-.6.7-1,1.5-.9.3,0,.6,0,.8.2.4.2.6.5.6.9,0,.3-.2.5-.5.7-.3.2-.7.3-1.1.2-.3,0-.6,0-.8-.2h0Z"/>
      <path class="cls-13" d="M19.9,26.7c0,.4-1,.9-1.9.7s-1.1-.6-1.1-1c0,0-.3.9.9,1.2s.3,0,.7,0,.6,0,.9-.3c.5-.3.4-.8.4-.8Z"/>
      <path class="cls-8" d="M19.6,26.8c0-.1-.6-.5-.9-.6-.5,0-.8,0-1.4.1.2-.2.5-.4,1.3-.3.6,0,1,.4,1,.8h0Z"/>
    </g>
    <g>
      <path class="cls-6" d="M13.9,29c-.5-.2-.7-.6-.7-1,0-.7.9-1.2,1.8-1.1.3,0,.7.1,1,.3.5.2.7.6.7,1,0,.3-.2.6-.6.8-.3.2-.8.3-1.3.3-.3,0-.7-.1-1-.3h0Z"/>
      <path class="cls-13" d="M16.6,28c0,.5-1.1,1-2.2.8s-1.3-.7-1.2-1.1c0,0-.4,1.1,1.1,1.5s.3,0,.8,0,.7,0,1.1-.3c.6-.4.5-.9.5-.9Z"/>
      <path class="cls-8" d="M16.4,28.1c0-.2-.6-.6-1.1-.7-.6,0-1,0-1.6.2.2-.2.6-.5,1.5-.4.7,0,1.2.4,1.2.9h0Z"/>
    </g>
  </g>
  <g>
    <path class="cls-16" d="M99.3,11.5c0-.2-.2-.2-.3-.2-.2-.1-.5-.2-1-.5-.8-.4-2-.4-2.8-.3s-3.6,1.2-4.8,1.5c-.2,0-.4,0-.6,0,0,0-.2-.1-.2-.2-.4-.2-2.2-.2-2.6-.2-.4,0-.5.3-.5.3-1.1-.1-2.8-.5-4.1-.6-.5,0-1,0-1.5,0,.4,0,.7,0,.7,0,0,0-2,0-2.3,0-.2,0-1.4,0-2.3.5,0,0-.1,0-.2.1-.3,0-.7,0-1,0-.4.1-.9.3-1.2.7-.9.8-1.3,1.8-1,2.6,0,0,0,0,0,0,0,0,0,.1.2.3-.2.4-.3.8-.4,1.1,0,.2-.1.4-.2.6-.1,1.3-.2,5.5.2,6.8.3,1,.4,1.5.4,2,0,0,0,.2,0,.2,0,0,0,.3,0,.7,0,.4-.2.8-.2,1.2,0,0,0,0,0,0-.2.4,0,1,0,1.1,0,0-.2.3.5.7.7.4.8.3,2.5-.2,0,0,0,0,0,0,0,0,0,0,0,0,1.6-.5,2.2-1,3.2-1.5,0,0,0,0,.1,0,0,0,0,0,0,0,.2-.1.4-.2.6-.4,1.3-.9,2.3-1.9,2.8-2.5,0,0,0,0,0,0,.2-.2.4-.4.6-.6.4.5,1.4,1.8,1.4,2.8s-.5,3.4-.5,3.4h1.1s.6-4.3.3-5.7c-.2-1.2-.2-1.7-.2-1.9,0,0,.1-.1.2-.2,0,0,0,0,0,0,.4-.3.8-.6,1-.7,0,0,.1-.1.2-.2,0,0,0,0,0,0,.4-.3,1-.8,1-.9,0,0,.2-.1.3-.1,0,0,0,.1.1.1.2,0,.3-.1.3-.2,0,0,0,0,0,0,.2-.1.5-.2.7-.3.1,0,.3,0,.4-.1.1,0,.2,0,.3,0,.5,0,1.9-.2,3.4-1.5,0,0,.1-.1.2-.2,0,0,0,0,.1,0,0,0,0,0,.1-.1,0,0,0,0,0,0,.1-.1.2-.3.3-.4,0,0,.1-.2.1-.2,0,0,0,0,0-.1,0,0,0-.1,0-.2,0,0,0,0,0,0,.1-.2.4-.9.6-1.4.3-.4.7-.9.9-1.2.2-.3,1-.9,1.6-1.3,0,0,.2-.1.3-.2.5-.3.7-.7.8-1,0-.3,0-.6,0-.9ZM85.5,25.6c-.1-.2-.6-1-.8-1.2,0,0-.2-.2-.3-.3.4-.3.7-.5,1-.7,0,.3.2.8.2,1,0,.3,0,1.3,0,1.1Z"/>
    <g>
      <path class="cls-5" d="M83.8,24.2s1.5,1.7,1.5,3.1-.5,3.4-.5,3.4h1.1s.6-4.3.3-5.7-.1-2.1-.1-2.1l-.8.3s.2,1,.2,1.3,0,1.3,0,1.1-.6-1-.8-1.2-.6-.5-.6-.5l-.3.3Z"/>
      <path class="cls-14" d="M73.5,28.3s.3-1.5.4-2,0-1.1-.4-2.3-.4-5.5-.2-6.8,2.8-4.5,4.5-5.2,3.4-.7,4.8-.5,3.2.6,4.3.6,2.5.2,3.6-.1,3.9-1.4,4.8-1.5,2,0,2.8.3,1.1.4,1.2.8.4,1.1-.7,1.7-1.8,1.1-2.4,2-.6,2.4-2,3.5-2.9,1.4-3.4,1.5-2.2.6-2.7,1.3-1,.8-1.7,1.4-2,1-2.5,1.6-2.1,2.6-4.9,4c-1.5.8-3.2,1.6-4.4,1.3s-.9-1.5-.9-1.5Z"/>
      <path class="cls-4" d="M73.9,26.1s.6-1.8,1.9-2.3c3.2-1.2,1.4,1.3,2.3,1s2.5-1.7,2.9-2,1.2-1.1,2.2-1.4,2.6-.8,3-1.1,1.2-1.5,1.5-1.9,1.2-1,1.9-1,2.7-.1,3.3-.3,1.8-1.6,1.9-2.1.9-1.5,1.7-1.8,1.7-.2,2.2-.7.1-1.3.1-1.3c0,0,.2-.2.4.2s.2,1.1-.3,1.5-1.9,1.3-2.2,1.8-1.3,1.7-1.4,2-.6,1.3-1.3,1.9-1.2,1-1.8,1.1-3,.8-3.2,1-2.3,1.3-2.5,1.5-2.7,1.7-2.7,1.7l-3.1,2.6-2.6,1.8-3.3.9-1.1-.2s-.2-.6,0-1.1.3-1.8.3-1.8Z"/>
      <path class="cls-9" d="M81.8,11.3c-.1,0-2.3.1-3.1.7s-.6.7-.5,1-.5,2.5-1.3,3-1.7.5-2.3.4c-1-.2-1.3.8-1.3.8,0,0,.6-2.2,1.2-3.1s1.7-1.8,2.7-2.2,2.1-.4,2.3-.5,2.3,0,2.3,0Z"/>
      <path class="cls-10" d="M86.6,12.1s0-.3.5-.3,2.2,0,2.6.2.6.7.4.9-.8.7-1,1.1-.4.7-.4,1.5,0,2.5.1,2.9.5,1.9.5,1.9c0,0,.1.5.1.6s0,.3-.3.2-.5-.8-.7-1.8-.4-2.6-.3-2.9,0-1.9-.1-2.3-.3-.8-.5-1-.9-.5-.7-1.1Z"/>
      <path class="cls-1" d="M87.9,13.3s-.5-.5-.7-.6-.6-.3-.4-.6.8-.2,1.3-.2,1.2.2,1.3.4,0,.4-.2.3-.8-.1-.9,0-.1.7-.4.6Z"/>
      <path class="cls-9" d="M74.4,29s3-.7,4.2-1.5,2.7-2.2,3.2-2.5,1.4-1.3,2-1.5,2.2-1,2.5-1.2,1.1-.9,1.3-1,1-.3,1-.3c0,0-1,.9-1.3,1.1s-1.2.9-1.9,1.3-1.6,1-2.1,1.5-2.4,2.3-3.4,2.9-1.7,1.1-3.4,1.6-1.8.6-2.5.2-.5-.7-.5-.7h.8Z"/>
      <path class="cls-9" d="M93.2,19.4s1.2-1.1,1.6-1.8,1.2-1.9,1.2-1.9c0,0-.5,1.4-.7,1.8s-.5.8-.8,1.1-1.3.9-1.3.9Z"/>
      <path class="cls-2" d="M73.5,28.3s.3-1.5.4-2,0-1.1-.4-2.3-.4-5.5-.2-6.8,2.8-4.5,4.5-5.2,3.4-.7,4.8-.5,3.2.6,4.3.6,2.5.2,3.6-.1,3.9-1.4,4.8-1.5,2,0,2.8.3,1.1.4,1.2.8.4,1.1-.7,1.7-1.8,1.1-2.4,2-.6,2.4-2,3.5-2.9,1.4-3.4,1.5-2.2.6-2.7,1.3-1,.8-1.7,1.4-2,1-2.5,1.6-2.1,2.6-4.9,4c-1.5.8-3.2,1.6-4.4,1.3s-.7-.5-.9-.8,0-.7,0-.7Z"/>
      <g>
        <path class="cls-6" d="M75.6,15.9c-.7.2-1.4,0-1.7-.4-.6-.7-.2-2,.8-2.9.4-.3.8-.5,1.2-.7.7-.2,1.4,0,1.7.4.3.4.4.8.2,1.4-.2.5-.5,1.1-1,1.5-.4.3-.8.5-1.2.7h0Z"/>
        <path class="cls-9" d="M77.5,12.2c.4.5-.2,2.2-1.5,3s-2.1.5-2.4,0c0,0,.5,1.6,2.5.5s.4-.2.9-.7.6-.8.8-1.4c.3-.9-.4-1.4-.4-1.4Z"/>
        <path class="cls-8" d="M77.3,12.5c-.2-.1-1.3,0-1.7.3-.7.5-1,.9-1.5,1.7,0-.4.2-1.1,1.2-1.8.7-.6,1.7-.7,2.1-.2h0Z"/>
      </g>
      <g>
        <path class="cls-6" d="M79.9,15.2c-.5.1-1,0-1.3-.3-.4-.5-.2-1.5.6-2.2.3-.2.6-.4.9-.5.5-.1,1,0,1.3.3.2.3.3.6.1,1-.1.4-.4.8-.8,1.1-.3.2-.6.4-.9.5h0Z"/>
        <path class="cls-9" d="M81.4,12.4c.3.4-.2,1.6-1.1,2.2s-1.6.4-1.8,0c0,0,.5,1.1,1.9.4s.3-.2.7-.5.5-.6.6-1c.2-.7-.3-1-.3-1Z"/>
        <path class="cls-8" d="M81.2,12.6c-.2-.1-.9,0-1.3.2-.5.4-.8.7-1.2,1.3,0-.3.2-.8.9-1.4.6-.5,1.3-.5,1.6-.1h0Z"/>
      </g>
      <g>
        <path class="cls-6" d="M76.1,26.3c-.5.1-.9,0-1.1-.2-.4-.5-.1-1.3.5-1.8.2-.2.5-.3.8-.4.5-.1.9,0,1.1.2.2.2.2.5.1.9-.1.3-.3.7-.6.9-.2.2-.5.3-.8.4h0Z"/>
        <path class="cls-9" d="M77.3,24c.3.3-.1,1.3-.9,1.9s-1.3.3-1.5,0c0,0,.4.9,1.6.3s.3-.1.6-.4.4-.5.5-.9c.2-.6-.2-.9-.2-.9Z"/>
        <path class="cls-8" d="M77.1,24.2c-.1,0-.8,0-1.1.2-.4.3-.6.6-1,1.1,0-.3.1-.7.7-1.2.5-.4,1.1-.4,1.3-.1h0Z"/>
      </g>
    </g>
  </g>
  <g>
    <g>
      <path class="cls-15" d="M113.9,21.6c-.6-.9-1.4-1.3-2.8-1.2-.7,0-1.3.2-1.7.3,0,0,.1-.2.2-.2.3-.4.6-.5.8-.9.3-.4.7-.8.9-1.2.5-1.4.6-2.1.3-2.6-.4-.9-.8-1.4-1.9-1.9,0,0,0,0,0,0,0,0,0,0,0,0,0,0-.1,0-.2,0-.3-.1-.7-.2-1-.2,0,0,0,0,0,0,0,0,0,0,0,0-.3,0-.6,0-.9,0-2.5.6-4.5,2.9-5,5.8,0,0,0,0,0,0-.5,1.7-.2,3.8,1,5.9,0,0,0,0,0,.1,0,.1.1.2.2.3,0,.1.1.2.2.3,1.2,1.9,3,3,4.6,3.5.1,0,.3,0,.4,0,.1,0,.3,0,.4,0,0,0,0,0,0,0,0,0,0,0,0,0,.8.1,1.2,0,1.5-.2h0s0,0,.1,0c.2-.1.4-.2.6-.4.5-.4,1.1-.9,1.4-1.6.5-1.4.2-2-.2-3-.5-1.2-2.2-1.6-2.9-2.2.6-.1,2.3-.4,2.9-.2.8.2,1.3.8,1.6,2s.2,3.4.2,3.4h.6s0-1.2,0-2.3c0-1.1-.5-2.6-1.1-3.6Z"/>
      <path class="cls-15" d="M127.9,25.4s0,0,0-.1c1.1-2.1,1.4-4.2,1-5.9,0,0,0,0,0,0-.3-1.6-1-3-2-4.1,0-.4-.2-.9-.6-1.2-.2-.2-.5-.4-.8-.4-.4-.1-.7,0-1,.1-.2,0-.4-.1-.6-.2-.3,0-.6-.1-.9,0,0,0,0,0,0,0,0,0,0,0,0,0-.4,0-.7.1-1,.2,0,0-.1,0-.2,0,0,0,0,0,0,0,0,0,0,0,0,0-1.1.6-1.6,1-1.9,1.9-.2.6-.2,1.3.3,2.6.2.5.5.8.9,1.2.2.3.4.5.8.9,0,0,.1.2.2.2-.4-.1-1-.2-1.7-.3-1.4-.1-2.2.3-2.8,1.2-.6.9-1,2.5-1.1,3.6,0,1.1,0,2.3,0,2.3h.6s0-2.2.2-3.4.9-1.8,1.6-2c.6-.2,2.3,0,2.9.2-.8.6-2.5,1.1-2.9,2.2-.4,1-.7,1.6-.2,3,.2.7.9,1.2,1.4,1.6.2.1.4.3.6.4,0,0,.1,0,.1,0h0c.2.1.7.3,1.5.2,0,0,0,0,0,0,0,0,0,0,0,0,.1,0,.2,0,.4,0,.1,0,.3,0,.4,0,1.6-.5,3.3-1.6,4.6-3.5,0-.1.2-.2.2-.3,0-.1.1-.2.2-.3Z"/>
    </g>
    <g>
      <path class="cls-5" d="M108.9,20.9s.9-.4,2.3-.5,2.2.3,2.8,1.2,1,2.5,1.1,3.6,0,2.3,0,2.3h-.6s0-2.2-.2-3.4-.9-1.8-1.6-2-3.2.2-3.2.2h-.5s-.2-1.1,0-1.4Z"/>
      <path class="cls-14" d="M109.5,22.5s-.7-1,0-1.9.9-.6,1.6-2.7-.9-5-3.8-4.3-5.8,4.6-5,9c.8,4.3,3.6,6.3,6,7s3.3-.7,3.7-1.2,1.1-1.2.8-2.5-1.1-2.2-1.8-2.5-1.6-.7-1.6-.7Z"/>
      <path class="cls-4" d="M107.3,19.6s-.4,1,0,1.6,2.1,1.2,2.9,2.5,1.5,1.8,1.5,3.7-1,2-1,2c0,0,1.7-.9,2.1-2.1s.2-2-.2-3c-.7-1.6-3.5-1.9-3.4-3s1.6-1.9,2.1-3.1.6-2.1.3-2.6c-.4-.9-.9-1.4-2-2s-1.3-.3-1.3-.3c0,0,1.7,0,2.1,1.7s.3,2.5-.2,3.2-2.9,1.2-2.9,1.2Z"/>
      <path class="cls-9" d="M102.4,19.4s-.3,2.7,1.1,5.2,3.6,3.6,4.8,4.1c1.9.9,2.6.7,2.6.7h0s-.4.5-1.7.3-4.1-1.5-5.6-4-1.7-4.5-1.2-6.3Z"/>
      <g>
        <path class="cls-6" d="M108.3,19.7c-.6.2-1.1,0-1.4-.3-.5-.6-.2-1.6.6-2.4.3-.3.7-.5,1-.6.6-.2,1.1,0,1.4.3.2.3.3.7.2,1.1-.1.4-.4.9-.8,1.2-.3.3-.7.5-1,.6h0Z"/>
        <path class="cls-9" d="M109.8,16.7c.3.4-.1,1.8-1.2,2.5s-1.7.5-1.9,0c0,0,.4,1.3,2.1.4s.4-.2.7-.6.5-.6.6-1.2c.2-.8-.3-1.1-.3-1.1Z"/>
        <path class="cls-8" d="M109.6,16.9c-.2-.1.2.2-.2.5-.6.4-1.5-.3-2.5,1.3,0-.3.1-.9.9-1.5.6-.5,1.4-.6,1.7-.2h0Z"/>
      </g>
      <path class="cls-5" d="M122.4,20.9s-.9-.4-2.3-.5-2.2.3-2.8,1.2-1,2.5-1.1,3.6,0,2.3,0,2.3h.6s0-2.2.2-3.4.9-1.8,1.6-2,3.2.2,3.2.2h.5s.2-1.1,0-1.4Z"/>
      <path class="cls-14" d="M121.7,22.5s.7-1,0-1.9-.9-.6-1.6-2.7.9-5,3.8-4.3,5.8,4.6,5,9-3.6,6.3-6,7-3.3-.7-3.7-1.2-1.1-1.2-.8-2.5,1.1-2.2,1.8-2.5,1.6-.7,1.6-.7Z"/>
      <path class="cls-4" d="M124,19.6s.4,1,0,1.6-2.1,1.2-2.9,2.5-1.5,1.8-1.5,3.7,1,2,1,2c0,0-1.7-.9-2.1-2.1s-.2-2,.2-3c.7-1.6,3.5-1.9,3.4-3s-1.6-1.9-2.1-3.1-.6-2.1-.3-2.6c.4-.9.9-1.4,2-2s1.3-.3,1.3-.3c0,0-1.7,0-2.1,1.7s-.3,2.5.2,3.2,2.9,1.2,2.9,1.2Z"/>
      <path class="cls-9" d="M128.9,19.4s.3,2.7-1.1,5.2-3.6,3.6-4.8,4.1c-1.9.9-2.6.7-2.6.7h0s.4.5,1.7.3,4.1-1.5,5.6-4,1.7-4.5,1.2-6.3Z"/>
      <g>
        <path class="cls-6" d="M120.7,27.5c0-.4.2-.7.4-1.1.3-.4.7-.8,1.1-.9.4-.2.8-.1,1.2,0,.4.3.5.8.4,1.4s-.2.7-.4,1.1c-.6.9-1.7,1.3-2.3.9-.4-.3-.5-.8-.4-1.4h0Z"/>
        <path class="cls-9" d="M122.4,25.4c-.5.2-.8.5-1.1.8s-.4.5-.5.8c-.7,1.7.6,2,.6,2-.4-.2-.5-1.2-.2-1.9.6-1.1,1.9-1.7,2.3-1.4,0,0-.4-.5-1.2-.2Z"/>
        <path class="cls-8" d="M123.3,25.8c.4.3.4,1.1,0,1.7-.6.8-1.1,1-1.4,1.1,1.4-1.1.6-2,1-2.6s.6,0,.5-.2h0Z"/>
      </g>
      <g>
        <path class="cls-6" d="M125.6,16.1c-.3,0-.5-.2-.8-.4-.3-.3-.5-.6-.6-1,0-.3,0-.7.2-.9.2-.3.7-.3,1.1-.2s.5.2.8.4c.6.6.9,1.4.5,1.8-.2.3-.7.3-1.1.2h0Z"/>
        <path class="cls-9" d="M124.2,14.6c0,.4.3.7.5.9s.4.3.6.5c1.3.7,1.6-.3,1.6-.3-.2.3-1,.3-1.5,0-.8-.5-1.1-1.6-.9-1.9,0,0-.4.3-.3.9Z"/>
        <path class="cls-8" d="M124.6,13.9c.3-.3.9-.2,1.3.2.6.5.7.9.7,1.2-.7-1.2-1.5-.7-1.9-1s0-.4-.1-.4h0Z"/>
      </g>
    </g>
  </g>
</svg>