<?xml version="1.0" encoding="UTF-8"?>
<svg id="Livello_1" data-name="Livello 1" xmlns="http://www.w3.org/2000/svg" version="1.1" viewBox="0 0 283.5 170.5">
  <defs>
    <style>
      .cls-1 {
        fill: #bf5557;
      }

      .cls-1, .cls-2, .cls-3 {
        isolation: isolate;
        opacity: .5;
      }

      .cls-1, .cls-2, .cls-3, .cls-4 {
        stroke-width: 0px;
      }

      .cls-2 {
        fill: #b63a3e;
      }

      .cls-3 {
        fill: #c5686a;
      }

      .cls-4 {
        fill: #fff;
      }
    </style>
  </defs>
  <g>
    <path class="cls-4" d="M283.3,54.4c-3-3-10.5-3.3-15.4-3.5-.8,0-1.6,0-2.3-.1-5.9-.4-8.8-.2-10.3,0-.4-.6-.8-1.2-1.2-1.7,8-4.4,21-5.2,28.4-4.6.2,0,.4-.1.4-.4,0-.2-.1-.4-.4-.4-7.5-.7-20.8.2-29,4.8-.3-.4-.6-.8-.9-1.2.7-.6,1.7-1.3,2.8-2,.5.1,1,.2,1.5.4-.4-.2-.9-.3-1.3-.5,2.1-1.2,4.5-2.2,5.8-2.8,5.8-2.6,12.6-5.4,19.3-5.9.2,0,.4-.2.4-.4,0-.2-.2-.4-.4-.4s0,0,0,0c-6.8.5-13.6,3.3-19.6,5.9-2.3,1-4.6,2.1-6.5,3.2-.6-.2-1.2-.4-1.8-.6.5.3,1,.5,1.6.7-.1,0-.2.1-.3.2-.6-.5-1.3-.8-2-1.2.2,0,.5.2.7.3-.4-.2-.7-.5-.9-.8,0,0,.1-.1.2-.2.6.4,1.2.7,1.8.9-.5-.4-1.1-.8-1.6-1.1,2.7-3.5,10.1-8,13.6-9.7.2,0,.3-.3.2-.5,0-.2-.3-.3-.5-.2-2.1,1-10.9,5.9-14,10,0,0,0,0-.1,0,0,0,0,0,0,.1,0,0,0,0,0,0-.2-.2-.4-.3-.6-.5.2-.4.3-.7.5-1.1.2.2.4.3.5.5-.1-.1-.3-.3-.5-.5,5.8-11.2,19.4-20.8,30.4-24.6.2,0,.3-.3.2-.5,0-.2-.3-.3-.5-.2-11.1,3.9-24.7,13.5-30.7,24.8-2-2.3-5.2-6.1-6.9-5.9-.3-.3-.5-.5-.8-.8-.4-1.6-.7-3.4-1.1-5,.3,1.5.4,3,.7,4.5,0,0-.2-.2-.2-.2,0-.2-.2-.5-.2-.7,0,.2,0,.4,0,.5-1.8-1.8-3.8-3.4-5.7-4.7-6.7-4.4-16.1-9.7-21.6-11-1.7-.4-3.8-.8-5.9-1.3,0,0,0,0,0,0-.3.1-.6-.5-1-.4-.4-2.4-1.9-.6-.4-2.4-1,1.2-1.1-.7-1.6-1.6,0,0-1.3-.9-1.5-2,0,0-.4-.4-1.1-.3,0-.2-.6-2-.7-1.9-.2.2-.4.5-.6.7,0,0-.1-.1-.2-.2,0-.2,0-.4,0-.4-.4.2-1.1-1.3-.8-1.8-.2.6-.6-.8-.3-1.9-.1,0-.2.2-.3.3-.3.5-.4.7-.7,1.2,0,0,.3-.8.3-.8,0,0-.8.8,0-.7-.3.5-.7.5-1.1.8,0-.9,0-1,.1-1.9-.3.4-.5.4-.8.7,0-.5,0-.7.2-1.1-.1,0-.4.5-.5.5,0-.3.3-1.1.4-1.5-.2.4-.5.8-.8,1v-1.1c-.1.1-.3.4-.4.4-.2,0,0-1.1-.1-.8-.4.6-.6-.7-.6-.7l-.3.5c0,.1-.3-.9-.4-.6,0,.2-.2.4-.4.7,0,0,0,0-.1,0,0-.2,0-.5-.2-.4-.1.2-.5.3-.8.3-.3,0-.4.5-.4.5-.2.4-.6,1.8-.8,2.1-.3,1.1-.4,1.2-.8,2.4.2-.4.6-.4.9-.6,0,.3,0,.6,0,.9-.3,1.1-.5,1.9-.5,2.9.3-.7,0-.4.6-.9,0,1.7-.4,3-.2,4.7.3-.4.2-.6.4-1,.1.6.2,1.2.3,1.9-4.1-1-9.7-2.3-14.1-1-.2,0-.5.1-.7.2-5.5-2.8-11.7-3-13.4-2.6-.3,0-.6,0-1,0h0s0,0,0,0c-3.2.3-5.3,3.1-3.6,7.1.1.3.2.5.3.8-2.1.5-3.7.7-4.2.5-.3-.1-.8-.3-1.5-.6,0,0,0,0,0,0,0,0-.1,0-.2,0-4.8-1.8-17.6-6.2-22.6-5.1-4.5,1-15.9,1.2-28.8,9.8-.6.2-1.2.4-1.7.5.3,0,.5,0,.8,0-1.7,1.2-3.4,2.5-5.1,4-.4.1-.8.3-1.2.4.2,0,.5,0,.7,0-.2.1-.3.2-.5.4-3.3,1-6.6,2.2-10,3.1,1.6,0,3.5.4,5.1.4-2.6,1.6-6.4,1.8-9.4,2.9,1.7,0,3.8.1,5.4,0-5.3,1.2-9.7,3.9-13.7,6.6,3.6,0,7.3-.3,10.9-.7-.3.4-.7.8-1,1.2-4.8,1.6-9.6,2.6-13.1,6.1,3,.2,6.2-.1,9.2-.8-.1.2-.3.4-.4.6-5.1,2.5-9.3,5.8-12.8,9.5,3-.5,6-1.3,8.5-2.5-5.5,3.5-11.1,8.8-13.1,13.8,2.1-.4,4.7-1.5,6.6-2.8-2.4,3-4.2,6.4-4.7,9.8-.7.9-1.2,1.8-1.4,2.5.3-.4.8-.8,1.2-1.2,0,.5,0,1,0,1.5.3-.2.6-.4,1-.6-1.1,1.7-2.6,3.3-2.9,5.3.7-.5,1.9-.7,2.5-1.1,0,2.2-1.6,3.9-1.7,6.2.5-.2,1.2-.3,1.7-.5,0,.3.1.7.2,1.1-.4.4-.7.7-1.1,1.1-.1,2.6-1.5,5.3-1.7,7.8.4-.3.8-.7,1.1-1.1-.3,1.3-.3,2.7.1,3.8,0,0,.1-.2.2-.2-.2.8-.3,1.8-.3,2.6l-1.6.3c-2.2.2-5,.3-8.4,0-1.6-.2-1.8-.2-1.8-.2,0,0,0,0,0,0-2.8-.2-5.9-.6-9.5-1.3-18.5-3.4-30.8-8.1-32.4-12.3-1.5-4.2-.5-8.6,5.4-15.2,5.9-6.6,19.5-16,24.5-27.3s1.9-26.4-2.3-33.2c-4.2-6.8-11.5-12.1-8.7-7.9,2.8,4.2,5.3,17.9,6.9,23.6,1.6,5.7-.6,14-4.1,20.3-3.6,6.3-20.4,14.2-24.8,20.1-4.4,5.9-9.4,14.4-5.5,21.5,3.9,7.1,11.6,13.4,19.5,15.1,2.2.5,4.1,1,5.9,1.7.1,0,10.1,4.1,22.1,6.2,2.4.4,7.9,1.1,12.1,1.6,1.6.2,3.1.4,4.5.6.5,2.3.3,5,.9,7.2.3-.4.5-.9.7-1.4.1,1.3.6,2.6,1.4,3.6,0-.1,0-.2.1-.3,0,1.1.5,2.3.8,3.1.3-.3.6-.6.8-.9,0,.3.1.6.2,1,0,.7,0,1.4.3,1.9,0,0,.1-.1.2-.2.2.6.4,1.1.6,1.7,0,1,0,2,0,3,.3-.4.7-.7,1.1-1,0,.1.2.3.2.4-.6,1.1-1.1,2.2-1.3,3.2.8-.6,1.9-.8,2.6-1.1-.8.9-1.7,1.7-2.6,2.5,1.2-.4,2.4-.9,3.6-1.2-.4.3-.9.6-1.4.9.5-.2,1.1-.5,1.6-.7,0,0-.1.1-.1.2.4-.2.8-.4,1.1-.6,1,.6,2.2,1.1,3.5,1.5,0,0,0,0,0,0,0,0,0,.2,0,.3,0,0,0-.2.1-.3,0,0,0,0,0,0-.1.5-.2,1,0,1.6.1-.1.2-.2.3-.3,0,.7.4,1.2.4,1.8.3-.2.9-.2,1.3-.4,0,0,0,.1.1.2-.1.3-.2.6-.3.9-.3.7-.5,1.3-.7,2-.2.8-.3,1.5-.4,2.1,0,.2-.1.5-.2.7-.3,1.5,0,2.6.5,3.5.4.9,1.1,1.6,1.9,2.2,0,0,0,0,0,0,1.3,1.2,9.5,6.5,13.3,9,.3.2.6.4,1,.6.1,0,.2.1.3.2.8.5,1.8,1.1,2.7,1.6,1.5.8,2.9,1.6,4.3,2.3.2,0,.5.2.7.3.2,0,.2.1.2.1,0,0,0,0,0,0,3.5,1.4,10.5,2.9,15,3.1,4.7.2,8.8-1.5,12.5-2.6,2.2-.7,4.7,0,7-2.2.1-.1.2-.2.3-.4,1.3.7,2.2,1.3,1.6.1-.2-.4-.5-.7-.8-1,.4-.5.7-1,.9-1.5.1,0,.2,0,.4,0,2.3.2,5.6,1.4,3.5-.4-1.3-1-2.6-1.7-4-1.9-1.3-1.8-5.7-2.4-9.4-2.4-2.5,0-9,.3-14-.7-5.1-1.1-9.7-2.9-13-4.4-.6-.3-2.4-1.2-4-2.1-1-.6-1.7-1.4-2.2-2.4,0-.2-.2-.5-.4-.9-.2-.7-.4-1.4-.4-2.2,0-.3,0-.7,0-1,.1,0,.7.6.8,2,0,.2.6-.5.7-.3,1.1,1.2,2.3,2.6,2.5,2.8-.2-.4-1-2.4-.8-2.9.1-.3.9,2.5,1.6,2.8-.5-.6.5-2.2-.1-2.7.2.1,1.8,2.6,2.1,3.7-.2-1.1-.1-2.2-.2-3.3.1,0,.1.5.3.6,0,0,.5,1.5.5,1.5,0,0-.3-1.3-.3-1.3.7.4,1.5,2.4,2,2.7-.6-.4-.9-1.5-1-2.6.6,1.3,1.9,1.9,2.3,3.4.1-1.5,0-1.4-.4-2.8.6.4.8,1.4,1.4,2.3-.1-.4,0-1.4,0-2.1,0,0,0,0,0,0,0,0,0-.2,0-.3,0,.5,0,1.2.3,1.7.1-.1.2-.3.3-.4,0,.7.6,1.2.7,1.9.3-.2.9-.3,1.2-.7.7.6,1.4,1.3,2.2,1.3.5,0,.5-.9,1.5-.6,0-.2.1-.6.2-.7,2.7,1,4.3,0,6.7,2,0-.3.3-.7.4-1,.2.3,1.4.8,1.5,1,0-.3,0-.7-.2-1,.8,0,1.4.6,1.9,1.4,0-.7.4-1.4.6-2.1.5.5,1,1,1.3,1.7-.3-.7-.3-1.5-.5-2.2,1,.7,2.2,1.2,3.3,1.8-.4-.6-.7-1.4-1-2,1.7,1.2,4.5,2.3,6.5,2.7-.5-.5-1.2-.9-1.8-1.3.2,0,.3.2.5.2-.6-.4-1.1-1-1.4-1.7-1.2-1.2-.3-.3-.9-1.6.9.7-.4-1.1.4-.5.6.6.6.4,1.1,1-.3-.3-.6-.8-1-1.3,1.1.8,2.4,1.6,3.6,2.3.3.2.7.4,1.2.5,1.2.4,2.2.4,3.4.6,1.2.2,4.3.1,7.6,0,3,0,6.1-.3,8.9-.5.1,0,.3,0,.3,0,.2,0,.4,0,.7,0,1.6-.1,3-.2,4.2-.3,2.7-.2,5.7-.4,7.3-.5,1.6,0,3.5,0,6.6,0,.9,1.1,1.4,2,1.3.8,0-.3,0-.5-.2-.8,2-.1,4.3-.3,7.4-.7,0,0,0,0,0,0,1.1-.1,2-.2,2.8-.3.8,0,1.8-.2,2.7-.5,1,1.1,1.6,2.1,1.5.8,0-.4-.2-.8-.4-1.3,0,0,0,0,0,0,0,0,0,0,0,0,0,0,0,0,0,0,0,0,0,0,0,0,.6-.4,1-1,1.2-1.7,0-.1,0-.2,0-.3,1.5,1.2,2.5,2.9,2.2,1.4-.2-1.1-1-2.3-2.2-3.2,0,0,0,0,0,0,0-.4-.2-.8-.4-1.2,1.6.4,3.2.9,1.8-.4-1.3-1.2-2.8-1.9-4.3-1.8-2.9-1.4-7.2-1.9-9.9-1.5-1.3.1-4.7.2-9,.1-.2-.1-.3-.2-.5-.3,1.7-.8,3.5-.6,5.2-1.4-.3-.2-.6-.6-1-.8.5-.4,1.4-1,2.3-1.5.3-.2,2.9,0,3.3-.1.4-.2-1.5-.8-1.1-1,.5-.2,2.5-.3,1.4-.5,0,0,0-.4,0-.7,0-.4,2-.2,1.6-.4-.8-.4-.9-1.9-1-2,3.5,1.6.8,0,1-.9.3-.3.6.3,1,0-.1-.3-.4-.3-.5-.6.2-.1,1.8-1.1,2-1.5.2-.4-1.1-.6-1.1-1,0-.4,1.8-.7,1.8-1.1,0,0-1.8-.1-1.8-.6,0-.7,2.3-1.5,1.8-1.5s-.8-1.4,0-1.5c3.2-.3,1.7-.7,0-2.4,1-.7,2.7,1.6,3.8.9-.6-.8-1.8-4.6-2.5-5.4h0c1.1-.3,1.9-.8,2.3-1.6,1.3,1,3.1,1.9,3.6,1.9.2,0,.2,0,.3,0,.7.2,1.3.4,1.9.5,3,.4,4.7,5,9.2,5,1.4,0,1.8-.5,1.7-1.2,2.6.4,4,5.4,4,3.1,0-2.2-3.1-7-5.3-6-.5-.9.6-.5,1.1-.7,1.5-.5,2.7,2.9,6.2,2.1.6-.1,1.1-.4,1.5-.6,1.9,1.3,3,4.6,3,2.7,0-1.1-.9-2.7-2-4,.1-.3.2-.6.2-1,2.6-.5,5.6,3.8,4.9,1.7-.6-1.7-2.9-3.4-5.3-3.8-.2-.5.3-1,.3-1.8,2.4-.5,5.8,2.8,4.8.9-.7-1.4-3.8-2.7-5.8-2.9-2.4-2-10.8-5.2-14.8-5.6l-2.2-.6c-.2,0-.3-.1-.5-.2l-.6-.4c.3,0,.6-.1.9-.2-.7-.3-1.3-.6-1.9-.9,2-.1,4.7-.9,6.5-1.8-.7,0-1.4,0-2.1,0,.2,0,.3,0,.5-.1-.7,0-1.4-.1-2-.5-.6,0-1.2-.2-1.8-.4.3-.3.5-.6.8-1,.3,0,.5,0,.8.2-.2,0-.4-.1-.7-.2.1-.2.3-.3.4-.5.6,0,1.3,0,1.9.1-.5-.1-1.1-.3-1.6-.5.7-.9,1.5-1.8,2.2-2.6.6-.1,1.3-.3,2-.3-.2-.4,0-1.1-.3-1.5,3.1-1,5.3-1.4,7.7.2-1.7-1-3.8-1.9-5.6-2.8.5-.2.9-.3,1.4-.4-.2,0-.4,0-.6,0,.3,0,.7,0,1,0-.1,0-.3,0-.4.1.4,0,.8,0,1.1,0,2.7.1,5.7.9,7.7,1.7-.9,2.2-1.4,4.3-1.3,6.1,0,.2.2.4.4.4s0,0,0,0c.2,0,.4-.2.4-.4-.3-4.7,4.1-11.8,7.4-17.1,0,0,0,0,0,0,0,0,0,0,0,0,.2-.3.4-.6.6-.9.4,0,.8,0,1.3,0-.3-.1-.6-.3-.9-.5.2-.3.3-.5.5-.8.8,0,1.7.3,2.5.3-.5-.3-1-.8-1.4-1.2.7-.2,1.3,0,1.9.2,0-.1,0-.3,0-.4.4,0,.8,0,1.3.1-.5-.2-1-.5-1.4-.8.9-.2,1.7-.4,2.6-.5,0,0,.1,0,.2,0-1.7,3.7-3.1,7.6-3.7,11.3,0,.2.1.4.3.5,0,0,0,0,0,0,.2,0,.4-.1.4-.3.5-3.9,2.1-7.8,3.9-11.7,1.8-.3,3.6-.6,5.3-.9-.2.7-.5,1.4-.7,2.1-1.1,3.4-2.2,6.7-3.2,9.8,0,.2,0,.4.3.5,0,0,0,0,.1,0,.2,0,.3-.1.4-.3,1-3.1,2.1-6.4,3.2-9.8.3-1,.7-2.1,1-3.1,1.8-.2,3.4-.5,4.9-.7,0,.6,0,1.3,0,1.9,0,4.1-.6,8.3-1.7,13.4-.1.5-.2,1.1-.4,1.6-.3,1.1-.5,2.2-.6,3.3,0,.3,0,.5-.1.6,0,.1-.1.5.2.6,0,0,.1,0,.2,0,.2,0,.4-.2.5-.5h0c0-.2,0-.4.1-.7.1-1,.4-2.1.6-3.2.1-.6.3-1.1.4-1.7,1.1-5.2,1.6-9.4,1.7-13.6,0-.7,0-1.4,0-2,1.4-.2,2.6-.4,3.6-.6.2,0,.3,0,.5-.1,1.4,6.5,1.8,13.5,1,18.6,0,.2.1.4.3.5,0,0,0,0,0,0,.2,0,.4-.1.4-.3.9-5.2.4-12.4-1-18.9,2.2-.6,3.3-1.3,4.2-2.4,2.9,4.1,5,9.4,5.7,13.8,0,.2.2.3.4.3s0,0,0,0c.2,0,.4-.2.3-.5-.7-4.6-3-10.1-6-14.4.6-.9,1-2,1.7-3.3.1-.1.3-.3.5-.6.5-.2,1.1-.7,2-2.4,1.4-2.4,1.1-4.6,1.1-4.9.1-.3.2-.5.2-.5.3-1.2.1-2.3-.4-3.5,7.6.4,15.3,2,21.5,4.4,0,0,0,0,.1,0,.2,0,.3,0,.4-.3,0-.2,0-.4-.2-.5-6.5-2.5-14.3-4.1-22.2-4.4,0-.2-.2-.3-.3-.5,1.5-.2,4.3-.3,9.8,0,.7,0,1.4,0,2.3.1,4.8.2,12,.5,14.8,3.3,0,0,.2.1.3.1s.2,0,.3-.1c.2-.2.2-.4,0-.6ZM187.4,113.1c0-1.1.3-2.4.3-2.4l.7-.5c.6.8,1.2,1.6,1.7,2-.9.3-1.8.6-2.7.9ZM213.4,80.5c0,0,0,.1-.1.2,0,0-.1-.1-.1-.2,0,0,.2,0,.3,0ZM210,83c.2-.1.3-.3.5-.4.2-.1.4-.2.7-.3,0-.1,0-.2,0-.3,0,0,0,0,.1-.1.4,0,.8,0,1.3,0-.6,1-1.1,2-1.6,3-.4-.3-.8-.5-1.2-.8.2-.1.5-.2.7-.3-.2-.1-.3-.5-.4-.7ZM214.6,90.1c-1.7-1.2-3.8-2-5.6-3-.3-.2-.7-.7-1.1-.9.5-.3,1.1-.4,1.6-.6.3,0,.6,0,1,0,0,.2-.2.3-.2.4,0,.2,0,.4.2.5,0,0,.1,0,.2,0,.2,0,.3,0,.4-.2.1-.2.2-.4.4-.7,1,.2,2,.5,3,.8-.7-.4-1.7-.9-2.6-1.5.6-1.1,1.2-2.3,1.9-3.4.5,0,1.1.1,1.6.1-.4-.2-.8-.4-1.2-.6.2-.3.4-.6.6-.9.9,0,1.9.2,2.8.2-.2-.1-.4-.4-.7-.5.8-.4,1.7-.4,2.6-.1-.8-.2-1.6-.6-2.1-1.1,1.2-.3,2.4,0,3.6.2-2.1,3.3-4.6,7.3-6.1,11.1ZM220.8,78.7c-.6-.3-1.2-.5-1.8-.7l1.2.3c.1,0,.2.1.4.2-.1-.1-.3-.2-.4-.3.3,0,.6,0,1,0-.1.2-.2.4-.3.5ZM221.8,77.2c0,0-.1-.1-.2-.2.1,0,.2,0,.3,0,0,0,0,.1-.1.2ZM228.6,74.6s0,0,0,0c0,0,0,0,0,0,0,0,0,0,0,0ZM235,73.3c-.3-.1-.5-.2-.8-.3.3,0,.6,0,.9-.1,0,.2,0,.3-.1.5ZM250.3,41.7c-.9-1.1-1.7-2.3-2.1-3.2.8.8,1.8,1.5,2.6,2.2-.2.3-.3.7-.5,1ZM251.2,45c0-.1,0-.3.1-.4,1,.3,2,.5,2.8.6-.8.5-1.4.9-1.9,1.4-.4-.6-.8-1.1-1-1.6Z"/>
    <path class="cls-4" d="M73.7,138.5c-.6.2-1.2.5-1.7.8.5-.2,1.1-.5,1.7-.8Z"/>
    <path class="cls-4" d="M134.2,149.8c0,0,0,.1,0,.2.8.8,1.6,1.3,2.4,1.6-.7-.7-1.6-1.4-2.5-1.8Z"/>
    <path class="cls-4" d="M135.7,151.7c1.2.9,2.9,1.3,4.2,1.8-1.4-.7-2.8-1.2-4.2-1.8Z"/>
  </g>
  <g>
    <circle class="cls-3" cx="136.7" cy="110.2" r="35.1" transform="translate(15.6 237.4) rotate(-85.3)"/>
    <circle class="cls-1" cx="136.7" cy="110.2" r="25.9"/>
    <circle class="cls-2" cx="136.7" cy="110.2" r="15.9"/>
  </g>
</svg>