<?xml version="1.0" encoding="UTF-8"?>
<svg id="Livello_1" data-name="Livello 1" xmlns="http://www.w3.org/2000/svg" version="1.1" viewBox="0 0 281.5 153.6">
  <defs>
    <style>
      .cls-1 {
        fill: #736250;
      }

      .cls-1, .cls-2, .cls-3, .cls-4, .cls-5, .cls-6, .cls-7, .cls-8, .cls-9, .cls-10, .cls-11, .cls-12, .cls-13, .cls-14, .cls-15, .cls-16, .cls-17, .cls-18, .cls-19, .cls-20, .cls-21, .cls-22, .cls-23 {
        stroke-width: 0px;
      }

      .cls-2 {
        fill: #684f48;
      }

      .cls-3 {
        fill: #be9e67;
      }

      .cls-4 {
        fill: #746753;
      }

      .cls-5 {
        fill: #dbc49f;
      }

      .cls-6 {
        fill: #2c271b;
      }

      .cls-7 {
        fill: #614226;
      }

      .cls-8 {
        fill: #211b16;
      }

      .cls-9 {
        fill: #776b5b;
      }

      .cls-10 {
        fill: #b79d67;
      }

      .cls-11 {
        fill: #716655;
      }

      .cls-12 {
        fill: #51493e;
      }

      .cls-13 {
        fill: #e2c9a6;
      }

      .cls-14 {
        fill: #7a6e63;
      }

      .cls-15 {
        fill: #917140;
      }

      .cls-16 {
        fill: #0f0000;
      }

      .cls-17 {
        fill: #372122;
      }

      .cls-18 {
        fill: #e1c394;
      }

      .cls-19 {
        fill: #695f4a;
      }

      .cls-20 {
        fill: #43352e;
      }

      .cls-21 {
        fill: #d8c296;
      }

      .cls-22 {
        fill: #3e3227;
      }

      .cls-23 {
        fill: #fff;
      }
    </style>
  </defs>
  <path class="cls-8" d="M80.9,144.6s3,.9,3.7.3.3-1.1,1.2-1,1,0,1.6-.6.1-1.6-.4-2-3.6-4.4-4.7-5.1-1.9-2-.7-5.9,4.7-10.1,5.4-11.5,5.9-4.6,7.8-5.6,5.2-4.4,5.2-4.4l-20.1,3.5-6.6,2.5-4.9,10.6,3.7,18.8,5.2,1.7,3.7-1.1Z"/>
  <path class="cls-12" d="M97.9,109.3l-15.2,3.5-15.3-5.3-13.4-5.6-4.4,1.1s-2.6,2.5,0,6.2,6.8,8.1,7.3,11.2-.7,6.8-.7,6.8c0,0,2.3-3.8,3.2-2s-.6,3.8-.8,4.4-1.3,1-.6,1.4,2.9.6,3.7,1.7,2.1,3.2,2.4,5.5,1.3,9.3,2.5,10.9c2.3,3,7.8,3.1,11,3.7s9.3,1.3,9.3,0,0-.8.9-1.8,1.3-3.4,0-3.7-4.3.3-6.3-.8-7.1-6.4-8.4-10.3-.6-11.2,0-12.7,5.5-8.9,5.5-8.9l19.2-5.3Z"/>
  <path class="cls-8" d="M83.6,149.2s5.1,0,4.2,1.8l-.9,1.8s0-3.1-3.2-3.7Z"/>
  <path class="cls-13" d="M174.3,38.1l3-3.8s3.3,1.8,6.5,1.9,11.8-.9,11.8-.9l4.7.9s8.3.2,10.8.2,6.3,1.2,7.9,2.6,6.7,7.1,6.9,8.5,1.2,7.3.8,7.4-.7-1.9-2-1.4-4.1-1.9-4.1-1.9l-15.3,1.1-12.4,2.5,3,14.4,4.6,7.3s-2.6,2.4-5.1,1.3c-2.5-1.1-12.5-7.4-12.5-7.4l-7.8-18s-.6-5.4,0-5.9-2,0-.8-1.6.8-2.6.8-2.6l-.8-4.6Z"/>
  <path class="cls-4" d="M182.9,70.8s1.4-2.2,1.9-1.2,2.7,2.9,3,3.3,1.1-.6,1.5,0,1.1,2.6,2.3,3.2,4.8.4,4.3,1.2,2.2,0,2.2,0l10.2,6.1,5.9,3.8s-8.8.6-9,.7-11.2-3-11.5-3.3-5.8-6-6.1-6.5-4.8-7.4-4.8-7.4Z"/>
  <path class="cls-3" d="M3.6,72.4c0-.4,3.4-9.3,7.2-13.6s10.5-10.5,11.6-12.2,4.5-13.9,16.1-24.1,15-13,30.5-16.4S97.9.6,114.7,0s35.9,2.6,35.9,2.6c0,0,22.1,2.8,32.4,2.8s14.1,0,18.3-.6,10.1-.1,13.2-.1,2.6-1.5,2.6-1.5c0,0-.6-.4,2.3.5s4.2,0,3.9-.4.9,1.1,2.4,1.4,2.6-1.4,2.6-1.4c0,0,.1,1.3.8,1.6s2.8-1.3,2.8-1.6.9,1.6,1.9,1.9,3-.3,3-.6,0,.8,1.1,1.3,5-.4,5-.4c0,0-3.8,2.3-2.4,2.4s4.9-.4,4.9-.4c0,0-.3.5,0,1.5s2.8,1.8,3.2,1.6-1,.4,0,1.5,3.3.3,3.3.3c0,0-1.4,2-.6,2.4s5.3.6,5.3.6c0,0-2.3,1.3-2,2s3,.8,3.7,1-1.3,1-.8,1.9,2.6.5,2.6.5c0,0-1,1.8-.6,2.1s1.5,1,1.5,1c0,0,2.6-1.9,3.4-1.9s2.8,3,3,5.3.1,7.4,0,8.8.1,3.1.1,3.1c0,0,2.1,4.9,2.6,6.2s2.9.3,2.9.3c0,0-2.1,2.3-1.8,3.7s4.5,2.6,4.5,2.6c0,0-4.3.8-3.8,1.6s6.7,2.4,6.7,2.4c0,0-5,.5-4,2.3s4,2.4,4,2.4c0,0-3,.4-2.6,1.6s2.6,3.3,2.6,3.3c0,0-3.5-1.6-3-.1s1.8,3.5,1.8,3.5c0,0-.8.3-1.3,1.3s.6,3.4.6,3.4c0,0-3.4.9-3.8,1.8s-.5,3.8-.5,3.8c0,0-1.6-1.1-2.5-.6s1.6,2.1,1.6,2.1c0,0-6.2.6-6.6,1.1s1.5,1.6,1.5,1.6c0,0-4.9.6-5.7,1s-2.1,2.1-2.1,2.1c0,0-2.3-.6-3.4,0s-6.1,2-6.1,2c0,0,1.1-2.6,2.9-4s7.2-5.2,8.1-7.2.9-2.6.9-2.6c0,0-3.7.3-2.8-1.3s5.2-3.7,5.2-3.7c0,0-1.6-1.9-3.7-3.7s-5-9.6-9.2-10.7-6.3-1.3-8.1-1.3,3.2,13.5,3.2,13.5l-2.7,18.5-12.3,4.5-20.3-4.4s-3.5.1-5.4,0-7.1-.4-7.8-1-5.6-4-6.9-5.6-6.9-6.8-6.9-6.8c0,0,1,7.2.8,10.4-.1,3.2-4.5,8.2-5.4,10.2s-2,3.5-2,3.5v-6.1s-5.5,3.2-6.1,6.1-4,10.3-4,10.3l-1.1-2.8s-10.3.7-12.8,1.3c-2.5.6-11.2,2.1-14.8,2.4-3.7.3-14.8,0-20.2,0-5.4,0-7.9-.9-10.7.1s-7.1,2.3-8.5,3.7-2.8,2.7-3.4,4.4l-1,3-1.1-3.4-1.8,1.7-.7-2.8,2.1-2.5s-1.8-1-5.4.7c-3.5,1.7-6.8,3.4-6.8,4s-.4-2.7-.4-2.7c0,0-1,3.7-1,4.1s.3-1.3-2.8-3.4c-3.1-2.1-7.6-3.4-12-4.7-4.4-1.3-7.3-2.7-7.8-3s-3.4-3.4-3.4-3.4c0,0-.4.7-2.3,1.3s-3.5,1.3-3.5,1.3c0,0,2-3.1,2.3-5.2s0-3.8,0-3.8l-5.5,3.2s.1-4,1.1-5.1,1.8-3.5,1.8-3.5h-2.3c-.7,0-.3-2.1-.3-2.1l-2.8,1.3,1.4-4.4-1.5.3s.4-3,1.1-3.9,1.8-3.7,1.8-3.7h-1.7c0,0,.2-3.2.6-5.2s.8-7.4.8-7.4c0,0-3.2,3.6-4.4,5.2s-5.9,7-6.5,9.6-2.7,7.9-3.2,9.2-1.8,4.5-1.8,4.5c0,0-.7-3.7-1.1-1.9s-2.3,4.3-2.3,4.3l-.7-1.1s-1.1,2-2.3,2.8-1.6-.6-1.6-.6c0,0-1.9,3.2-2,4s-1.3.6-1.3.6l-.6,2.7-1.3-.4s-1.5,1.3-2.1,1.8-1.5,1.7-1.5,1.7c0,0-1.1,3.8-1.1,4.8s-.8,1.5-.8,1.5v.9s-3-1.8-3.3-3.4-.4-2.4-.4-2.4l-.8,1.3s-1.2-3.6-1.2-4.4-1.9-2.2-1.9-2.2c0,0,0-2.8,0-3.8s-2-2.7-1.8-2.6,0-3.3.3-4.4,0-6.6,0-6.6c0,0,1.8-11.4,2-12.3s.7-3.5.7-3.5Z"/>
  <path class="cls-15" d="M160.7,16.4s-8.6,8.5-10.6,11.9-3.8,10.6-4.5,12.1c-2.7,6-2.8,7.7-2,6.3,0,0,2.1-2.8,1.5,0-.6,2.8-1.7,5.5-1.7,5.5,0,0,3.1-1.7,3.2-.8s1.7.8,1.7.8c0,0,.4-2.3-.3-2.3s-2.3-.3-2.3-.3c0,0,2.3-7.3,1.3-6.5s-1.7,1.4-1.7,1.4c0,0,2.5-8.2,3.1-9.3s3.2-5.1,3.2-5.1c0,0-.9.1-1.3.1s5.1-6.1,5.1-6.1l2.8-3.7,2.4-3v-1.3Z"/>
  <path class="cls-18" d="M173.3,20.6s-2.7-2.7-4.4-3.5-4.1-1.7-4.1-1.7c0,0,1.8-1.1,4.2,0s4.2,2.1,4.2,3.7v1.6Z"/>
  <path class="cls-18" d="M155.3,7.2s9.2,4.5,10.6,5.6,4.8,1.3,4.8,1.3l-3.5-3.5s2,0,3.5,1.2,4.5,2.3,2.5.1-2.5-2.3-4.9-2.7-9.9-2.1-9.9-2.1h-3.1Z"/>
  <path class="cls-18" d="M177.2,14.1s2.3-1.3,3.5.8,0,2.9,0,2.9c0,0-2-3.6-3.5-3.6Z"/>
  <path class="cls-18" d="M182.7,14.1s1.8,1,2.5,2.3,1.3,4,0,2.8-2.5-5.1-2.5-5.1Z"/>
  <path class="cls-15" d="M167.9,34.3s3.7-5.2,4.4-4.1-2,5.4-3.2,6.1-1.1-2-1.1-2Z"/>
  <path class="cls-1" d="M146.6,55.1c-1.7-.8,1.9-.8,2.3-.4s.6.8-.4,1-.2.3-2-.6Z"/>
  <path class="cls-1" d="M146.6,62.8c.2-.3,1.6-1.3,1.9-.7s-.8,1.6-1.5,1.9-1.7.2-.4-1.2Z"/>
  <path class="cls-15" d="M101.8,65.3s3.7-.6,4,0-1.5,1.2-2,1.3-3.2-1.1-2-1.3Z"/>
  <path class="cls-15" d="M102.1,69.1c.2,0,4.6.6,4.3.8s.4-.4-.3.2-3.1,1.1-3.5.8-.6-1.8-.6-1.8Z"/>
  <path class="cls-1" d="M103.6,81s5,1.5,5.3,2-.3.7-1.3.4-5.9-1.6-4-2.4Z"/>
  <path class="cls-1" d="M109,87.3s3.2.8,5,1.5,4.4.9,3.9,1.4-1,.4-2.9,0-8.4-1.9-6-2.9Z"/>
  <path class="cls-1" d="M108.4,94.3s7.2,1.3,8.1,1.1,2-2.3,2.4-1.1-4.2,1-4,2.3,1.9,2.5,4,2.7,10.1,1.4,10.7,1.3,6.1-1.5,4.8,0-2.8,1.5-6.2,1.4c-3.4-.1-9.9-.4-10.3-1s-4.7-3-4.7-3c0,0-.3-2-1.3-2s-3.4-1.7-3.4-1.7Z"/>
  <path class="cls-18" d="M98.2,96.9s11.6-.8,11.9,1.1-1.3,3.6-2.5,4-7.2,4.2-8.6,4.3.4-1.4,1.6-2.1,5.1-4.4,2.8-3.2c-2.3,1.1-9.3,1.8-7.6,1s7.9-2.9,6.5-3.2-6.8-.8-4-2Z"/>
  <path class="cls-18" d="M64.8,48.4s5.8-4.1,6.9-3.7-.8,2.1-1.7,2.7-8.3,4.1-5.2,1Z"/>
  <path class="cls-18" d="M64.7,42.4s6.4.4,4.7,1.3-7.9.1-4.7-1.3Z"/>
  <path class="cls-18" d="M68.1,37s5.4-1.6,4.9,0-3.4,1.6-3.4,1.6c0,0,2.1,1.1.9,1.3s-4.3-2.4-2.5-2.8Z"/>
  <path class="cls-18" d="M74.7,92.2s1.8-9.1,3.4-8.7,1.3,10.7.6,10.5-1.1-5.9-1.7-4.3-2.7,4.4-2.3,2.5Z"/>
  <path class="cls-18" d="M75.9,103.8s4-3,4.7-4.5,2.3-6.9,2.5-5.3-.1,3.4.6,2.7,2.4-1.6,2,0-4.8,5.5-5.5,6.2-7,3.1-4.2.8Z"/>
  <path class="cls-18" d="M58.5,63c.4-.1,7.8-2.8,9.6-1.1s.4,1.8,0,2.2-.1,2.1.9,2.5,0,2.2-.9,2.5-3.8,1.9-2.3,1.9,7.3,1.6,6.3,2.2,2.2,0,2.6,0,.9,1.3,0,2.3-1.5,4.4-2.6,3.8.9-3-.6-3-1.8,2.4-3.4,1.8-3.4.6-2.4-1.8,2.3-2.8-1.6-2.7-5.5-2.2-3.2-3.3,6.5-1.3,5.9-2.1-3.2-1.3-2.7-1.6,1.7-1.3.6-1.6-9.1-1.2-6.2-2Z"/>
  <path class="cls-18" d="M75.2,79.9s1.4-6.4,2.5-5.2-.8,2.4-.7,3.2.8,2.8,0,3-1.8-1.1-1.8-1.1Z"/>
  <path class="cls-1" d="M64.1,93s1.1-3.8,2.4-5.7,2.9-1.1,2.4,0-1.4.7-1.7,2.3-3.8,5.5-3.2,3.4Z"/>
  <path class="cls-1" d="M66.5,98s.7-4.5,1.6-3.1-2.1,5.3-1.6,3.1Z"/>
  <path class="cls-1" d="M69,102.6s1.3-1.9,1.5-.6-1,4-1.5,3.5,0-2.8,0-2.8Z"/>
  <path class="cls-1" d="M84.6,75.5s1.3-.6,2,.7,1.6,2.1,1.6,1.5-1-6.3-1-7.7-.4-3,1-1.6,1.6,7.5,1.6,8.6-2.3,5.8-1,5.1,2.4-2.7,2.3-1.3-1.8,3.2-2,4.2.4,7.1.3,8.9-.8,5.7-1.5,4,0-7.5-.5-10.7-.8-4.2-.7-6.4-2-5.4-2-5.4Z"/>
  <path class="cls-15" d="M80.4,111.8s4.6-4.2,6.7-8.3,3-11.2,3.8-9.6-2,8.1-1.3,8,1.1.5.4,1.6-5.6,5-4.3,4.6,4.9-4.1,4.6-2.6-2.5,3.2-2.6,3.5-3.6,1.6-4.2,2.1-5.6,3.1-3.2.7Z"/>
  <path class="cls-1" d="M21.8,73.4s-1.3-5.1,0-4.3,1.1,6.7,0,4.3Z"/>
  <path class="cls-15" d="M24.8,75.4s.3-2.8,1.1-1.4.7,4.2,0,3.8-1.1-2.4-1.1-2.4Z"/>
  <path class="cls-15" d="M3.7,86.2s2.5-8.5,3.2-10,.6-2.8,0-2.6-1.3,0-1.4-.9.2-2.9.2-2.9c0,0-2.3,3.5-2.6,4.8s-1.7,10.7-1.7,10.7l.5,3.7,1.7-2.7Z"/>
  <path class="cls-20" d="M20,66.6s3.5-13.9,4.1-15.5,4.7-12,3.2-10.4-4.9,5.9-4.9,5.9l-5.1,3.7s2.4-.7,1.3.4-5.9,4.4-5.9,4.4c0,0,3.2-1.2.7,1.2s-5.9,6.6-5.9,6.6c0,0,0,1-.6,2s-1.7,3.2-2.4,5.3-.2,1.5-1.2,4.3-1.2,7.3-1.2,7.3c0,0,3.2-12.4,5.7-12.8s1.7-3.1,2.4-4,1.6-2.6,2.7-3.2,1.5-.3,2-2.1,0-3.4,1.6-4.1,3.2-4.1,4-3.4,0,5.4,0,5.4c0,0,.4.6-.1,2.1s-1.4,4.4-1.4,4.4l1.1,2.5Z"/>
  <path class="cls-20" d="M35.3,36.3s1.1-4,1.6-2-.3,3.7-.8,4.4-.8-2.4-.8-2.4Z"/>
  <path class="cls-20" d="M33.1,36.3c0-.7,2.4-7.2,3.1-6.5s1.4.8,2-1.1,1.6-4.2,2.5-5.2,4-3.7,4.5-4.4,8.3-6.2,10-6.8,4.1-2,4.7-2.4,2.4-2.1,2.4-2.1c0,0-25.8,16.6-26.9,17.8s-3.7,5.5-3.7,6.2,1.3-1.3,1.4.1,0,4.4,0,4.4Z"/>
  <path class="cls-15" d="M47,24.2s2.8-3,3.1-2.1-.8,2.3-1.5,3-1.5-.8-1.5-.8Z"/>
  <path class="cls-15" d="M51.3,23.5s1-4,1.4-2.9-2.8,5.8-1.4,2.9Z"/>
  <path class="cls-15" d="M60.8,20.4c.3-.8,4-3.5,3.3-2.1s-5.3,4.7-3.1,1.3"/>
  <path class="cls-15" d="M58.5,28c0-.6,3.3-3.3,1.9-3.5s-4.3,2.7-4.3,3.5,2.4,0,2.4,0Z"/>
  <path class="cls-15" d="M72.1,8.5s4.9-1.4,3.9-2-5.9-.4-5.7,1,1.8,1,1.8,1Z"/>
  <path class="cls-18" d="M82.9,12s4.7-1.1,4.9,0-1.3,2.3-1.8,2.1-5.1.7-3.8,0-3.8-.2-1.6-1.2l2.3-1Z"/>
  <path class="cls-18" d="M88.8,7.8s3-.9,3.4.8,2.5,1.9.4,1.6-1.3-.1-2.5-1.3l-1.3-1.1Z"/>
  <path class="cls-15" d="M31.2,87.3s4.7-20.2,5.1-19.4-.1,3.6,2.1,2.4,2.5-3.1,3.7-3.7,2.8-6.1,3.7-4.7-1,3.6-1.1,5.3.6,11.8-.8,7.4-2-6.3-2.8-4.3-4.9,6.7-5.1,7.5-.7,5.3-1.3,5.3-1.1,1.4-1.4,3-1.1,2.7-1.1,2.7l-.8-1.6Z"/>
  <path class="cls-15" d="M43.2,79.8s2.6-1.7,2.8-2.7.8-5.4,1.3-4.2.8,4.5,0,5.8-4.2,1.1-4.2,1.1Z"/>
  <path class="cls-15" d="M43.5,87s3.1-6.9,3.4-4.7-4.8,5.6-3.4,6.7,3.2-.5,4.3-1.6,4.3-5.3,4.5-3.2-4.9,8-4.9,8c0,0,2.1.9,1.7,1.4s-3.2,4.6-2.1,4.4.4,1.1-1,1.9-1.6,2.1-1.5.9,3.9-5.5,2.3-7-4.7-2.4-4.7-2.4v-4.1c0,0,.7-1.6,0-2.3s1.5,2,1.5,2Z"/>
  <path class="cls-15" d="M50,97.6s2.8-7.8,3.2-5.2-3.8,13.9-3.8,12.4.6-7.2.6-7.2Z"/>
  <path class="cls-15" d="M92.1,113.6s4.8-4.9,7.5-6.2,9.9-3.1,11.3-4.1,3.2-3,3.5-2,3.2,3.1,4.7,3.5.6-.8,1.7-1.3,3.1,1.6,5.6,2,4.2,0,7.2,0,3.2-1.1,6.1-.8,4.8.5,6.9,0,4.7-.4,7.5-1.4,4.5-1.8,5.4-2.3,3.4-2.4,4.1-1.8,3.2,1.4,3.1,2.8,1.7,2.5-.6,2.6-6.1.3-5.5.9-1,.6-3,.8-2.5,1.1-3.4,1.4-.6-1.6-5.7-.9c-5.1.6-9,.9-10.1,1.5s-5.7-.8-8.8.1-8-.7-11.4-.1-5.4,1.1-8.2,1.4-6.2-.5-8.6.9-3.8,2.8-3.9,3-2.5,7.1-2.9,5.8l-1.1-3.4s-2.2,2-2.4.4.9-2.9.9-2.9Z"/>
  <path class="cls-15" d="M11.7,108s2.9-5.1,3.5-6.6,2.1-5.9,2.3-4.7-.6,4.7-.8,5.4-2.3,5-2.3,5l-2.6,1Z"/>
  <path class="cls-15" d="M19.2,100.6s3.5-10.6,3.5-9.1-1.9,4.9,0,5.1,2.8-4.8,2.9-3,.9,2.4.9,2.4c0,0-2,1.7-3.1,2.6s.5,1.5-1.1,1-.8-2.2-1.6-.6-1.6,1.6-1.6,1.6Z"/>
  <path class="cls-7" d="M2.6,84.8s3.7,6.2,4.5,7.8,1.8,3.7,1.2,4.1-1.5-1.9-1.8-2.1-3.4-1.5-3.6-2.3c-1.5-7-.4-7.5-.4-7.5Z"/>
  <path class="cls-22" d="M3.1,94s.4,5.7.9,4.7,1.2-.8,1.1.4-1,4.3,0,3.6,1.9-.5,2.1.9,1.2,1.9,1.3,1.7.4.3.9,1.1,2.4,1.6,2.4,1.6c0,0-.7,4.6-.8,5.5s1.5,3.3-.9,2.3-3.4-2.8-3.5-3.8,0,.7-1,.3-1-1.1-1.6-2.9-2.3-1.1-1.9-2.4.7-4.3.4-5.1-1.8.3-1.8-1.2.2-2.1.1-2.8-.5-.6-.1-1.8.5-1.8.5-2.7-.4-3.2,0-5.1.2-4.6.2-5,1-2.2,1-2.2l.9,13Z"/>
  <path class="cls-18" d="M8.9,71.5s2.1-3.3,2.8-2.8,1.5-1.7,2.3-1.8-3,7.2-2.3,8,2.9-2.2,3.1.4-2.3,9.9-2.4,7.9-1-1-1.5,1.7-2.3,8.5-1.6,5.1,1.3-12,.5-10.1-2.9,3.9-2.4,2.1,1.5-10.4,1.5-10.4Z"/>
  <path class="cls-9" d="M195.2,17.8s-.6-3.2-4.7-4.8-10.2-3.1-12.2-4.4-7.6-3.7-7.6-3.7c0,0,7.6.7,12.3.7s9-2.7,12.2-2.4,7,1.5,9.2,1.4,6.1-3.1,8.1-1.5,4.3,1.9,4.9,2.1l.6.2s-5.3,2.4-7,3.5-5.8,4.1-5.8,4.1c0,0-3.8-.4-5.1,1.5s-3,3.3-3,3.3h-1.9Z"/>
  <path class="cls-17" d="M188.3,6.2s5.6,1.6,7.5,2.3,3.4,3,3.4,3c.6-1.6-2.3-3.3-4.5-4.3s-6.4-1-6.4-1Z"/>
  <path class="cls-17" d="M196.6,4.6s5.6,1.6,7.5,2.3,3.4,3,3.4,3c.6-1.6-2.3-3.3-4.5-4.3s-6.4-1-6.4-1Z"/>
  <path class="cls-18" d="M158.6,55.1s5.6-3,6-4.8,1.7-7.6,3.3-6.6,1.6,7.3,1.1,10.2-5.1,11.2-5.1,11.2c0,0,3.5-5.4,4-3.7s-2.2,7.5-4,9.7-3.2,6.1-5.3,7.4-7.3,4.4-2.7,2.6c4.7-1.8,9.6-4.9,8.9-3.3s-9.6,6.5-5.1,5.8,8.9-4.1,6.6-1.6-9.6,12-11,11.9-2.8-.3-1.3-1.4,2.7-4.8.7-3.4-4.1,2.1-4.2,1.6,2.4-3.4.6-3.2-5.4,1.9-3.8,0,6.7-4.6,2.6-5.1-7.9-.5-6.7-1.3,6.4-3,8.8-5.2.6-2.1,1-3.8.6-2.9.6-2.9c0,0-7.1-.6-5-1.9s6.4-.7,8.6-2.2,6.2-8.1,6.2-8.1c0,0-3.8,1.7-4.7,1s-1.4-2.1-.1-2.8Z"/>
  <path class="cls-1" d="M164.9,45.4s.4-2.4.8-1.4,1.5,2.7.6,2.9-1.4-1.5-1.4-1.5Z"/>
  <path class="cls-15" d="M160.7,57.4s3.7-3.1,4.2-4,1.6-4.1,2-3.3,0,5.3-2,8.5-6.2,7.3-6.9,7.4-2.3-.4-.8-1,5.9-5.3,6.3-6.1,1.8-3.6.4-2.4-4,2.5-3.1.8Z"/>
  <path class="cls-15" d="M156.6,69.9s3.1-2,3.5-1.3-.9,1.7-1.7,2-3.1,0-1.7-.8Z"/>
  <path class="cls-15" d="M140.9,80.4l11-5.8s3.1-2.1,3-1-8,5.7-8.4,6.1-4.3,1.2-3.1,1.8,7.8,0,7.6,1-3.5,3.7-4.1,4.1-2.1.3-1.2-.5,3.8-2.4,1.6-2.5-6.8-.1-7-.9.7-2.3.7-2.3Z"/>
  <path class="cls-18" d="M158.1,95.2s8.4-14.1,9.1-11.7-2.8,14.1-3.5,13.8-3.5,1.1-3.5,1.1l-2-3.2Z"/>
  <path class="cls-15" d="M147.9,88.1s3.6-.9,3.2,0-2,1.6-1.6,2.4,3.6-.5,3.5.8-1.1,3.2,0,3.2,2.3-.8,2.5,0,.4,1.8,1.1,2,1.6-.8,2.1,0,5.5-5.2,4.6-3.6-1.7,3.5-2.2,4.5-.5.8-.9.9c-1.1.3-3.7.9-3.6,0s-1.4-1.3-2-1.2-.5-1.2-.4-1.6-3.2-.7-3.2-.7l.4-3s-3.2,0-3-.3.8-2.3.8-2.3c0,0-1,.4-2.3,0s-1.8-1.3-.7-1.7,1.7.4,1.7.4Z"/>
  <path class="cls-22" d="M162.7,97.4c.8.8,1.7,1.3,2.2,1s1.1-1,1.4-1.6,2.7-5.4,2.7-3.6-2.5,4.8-2.2,5.6.5,1.2.5,1.8.1,2.5-.4,2.5,0-2.1-1-2-3.7,3-3.1,1.1.2-3.3,0-3.1-2.5-.8-2.5-.8l2.6-1Z"/>
  <path class="cls-15" d="M175.4,84.4s2-2.5,2.9-5.3c.9-2.8,1.1-3.7,1.1-4.5s.5-5.1.4-6.1,1.8,3.9,2.6,4.8,2.3,1.5,2.5,4.1-1.1,7.8-1.6,8.7-4.7,7.3-5.1,6.8-1-.2.7-2.5c1.7-2.3,1.3-7.7.6-7.1s-5.5,3.2-4.1,1.2Z"/>
  <path class="cls-15" d="M180,65s-2.1-6-2.8-8.4-1.6-8.6-2.1-6.6,2,10.7,2.1,11.8,2.8,3.2,2.8,3.2Z"/>
  <path class="cls-15" d="M181.3,44.3s-3.7.2-4.7-.6-1.9-2.1-1.6-3.2.9-6.4,0-4.8-2,6.4-1.2,7.2,5.3,2.1,6.1,2.4,1.3-1,1.3-1Z"/>
  <path class="cls-15" d="M179.3,46.9s-6.8-1.1-5.3,0,5.3,1.7,5.3,1.7c0,0,1.5-.4,0-1.7Z"/>
  <path class="cls-19" d="M190.1,26.2s.3,2.1,2,3.1,4.1,1.8,2.3,2.1-5.6-.9-5.4.5,6.5,2.2,8.1,2.5,7.6,1.1,7.6,1.1c0,0,2,.5-.8,1s-4.5,1-5.6.7-4.7-1.5-6.2-1.2-1,.6-3,.5-9.8-.9-8.1-1.5,6.3-.5,4.5-2.1-2.9-2.3-1.8-2.8,6.5-3.9,6.5-3.9Z"/>
  <path class="cls-22" d="M182.7,29.7s5.3-3.7,6.5-4.7,11-9.2,11-9.2l-2,6.7-.4,4.3s-.4-5-2.1-4-6,5.2-6,5.2c0,0-9.4,4.8-7,1.8Z"/>
  <path class="cls-2" d="M203.4,33.2s-4.1-.9-5.2-4.6-2.1-16.5,7-15.7,12.8,12.6,12.8,12.6c0,0-1.6.8-2.9,0s-1.7,0-1.7,0c0,0,.6,2.7,1.3,3.3s1.1,1.1.8,1.2-3.9-.9-3.1,0,1.2,1.2.5,1.6-2.3.9-2.4,1.6-2.5,2.2-3,2.2-1.3,0-1.6,0-2.6-2.2-2.6-2.2Z"/>
  <path class="cls-5" d="M210.2,31.7s1.3-5.8.7-7.9-2.8-7.1-6.7-7-6,3.3-5.9,6.5c0,3.2,2,7.2,3,7.8s3.3,0,4.1.6-1.8,2.5-.7,2.6,5.6-2.6,5.6-2.6Z"/>
  <path class="cls-9" d="M201.5,26.2s.6,1.9,2.2,2.3,3.6,1.1,2.5,1.1-2.4.3-2.9,0-2-1.7-1.8-3.4Z"/>
  <path class="cls-22" d="M205.9,11.5s2.1,1,1.9-.3-2.5-1.3-2.5-1.3c0,0,5.6,0,5.7-1s-.5-2.1-.5-2.1c0,0,2.3.2,3.6,0s.4-2.1.4-2.1l2.9.5,4,.2,3,.4s-7.3.9-6.5,1.5,6,2.2,6.5,3.3.9,2.1,0,1.3-4.2-3-6.5-3.4-5.7-.3-5.2.8-1.1,1.2-1.8,1.6,2.5,1.1-.5,1.3-3.4,1.2-3.4,1.2l-2-.4.7-1.5Z"/>
  <path class="cls-15" d="M226.8,22.8s-1.6-5.5-4.7-7-9.1-1.3-7.9-.8,6.2,1.4,6.9,2.9-4,1.5-2.6,2.1,5.9-.2,5.6.8-4.3,2-3.2,2.2,6,0,6,0Z"/>
  <path class="cls-15" d="M236.4,16.3s1.6-5.3,2.4-6.1,1.8-2.3,1.8-2.3l-2.6-2s.4,1.9-.6,1.4-1.9-1.4-1.9-1.4c0,0,0,1.8,0,2.4s-.4,8.1-.4,8.1c0,0,.9,1.2,1.2,0Z"/>
  <path class="cls-15" d="M241,13.3s3.6-2.7,4.1-2.6,0,1.3,0,1.3c0,0-5.3,2.2-4.1,1.3Z"/>
  <path class="cls-15" d="M248.3,18.7c.4-.5,2.9-3.5,3.4-3s1.2,1.7.4,2-5.1,2.7-3.7,1Z"/>
  <path class="cls-15" d="M223.3,5.9s2.9,2,3.5,3.1,1.6,3.7,2.3,3.1-1.3-4.6-1.8-4.9-4-1.3-4-1.3Z"/>
  <path class="cls-15" d="M229.2,6.2c-.3.4,3.4,3.9,3.7,5.3s1.7,3.7,1.3,1.8-1.5-4.7-1.8-5.3-3.2-1.9-3.2-1.9Z"/>
  <path class="cls-15" d="M246.5,30.7s1.2-1.5,2-1,.6,1.9-.5,2-1.6-1-1.6-1Z"/>
  <path class="cls-15" d="M251.3,25s3-1.9,4.3-2.2,2.3-.3,1.9.4-4.1,1.6-5.1,2.3-1.1-.5-1.1-.5Z"/>
  <path class="cls-15" d="M220.9,25.8s3,1,3.1,2.1.2,1.2-.7.7-2.4-2.8-2.4-2.8Z"/>
  <path class="cls-15" d="M225.5,25.6s2,1.9,1.2,2.4-1,.2-1.7-.6.5-1.8.5-1.8Z"/>
  <path class="cls-15" d="M228.2,30.6s1.3.8,2.6,2.6,2-6.7,3.1-3.5,1.2,6.4,2.3,5.8,6.6-3.7,6.4-2.4-3.6,3.1-2.9,3.3,8.4-.5,8.3,0-3.7.9-4.1,1.5-3.6,3.6-4.5,4.2-4.5.4-1.2-1.6,4.1-3.1,2.7-2.9-4,2.3-3.9.9.4-3.7-.3-2-.9,4.5-1.5,2.2-.7,2.1-1.9,0-2.4-3.8-3.1-4.2,3.3,6.1,1.6,5.1-3.2-3.6-4.8-3.8-2.7.1-1,1.5,4.9,4.5,4.2,4.7-2.9-.6-4.2-2.4-9.7-6-6.6-6,4.4,1.9,5.5,1.4.5-1.5,1.9-1,2.4,1.8,2.4,1.8l-1-5Z"/>
  <path class="cls-13" d="M234.1,60.8c.7-.8,3.4-11.1,5.4-13.3s5.8-2.9,6.9-3,18.4,5.1,18.4,5.1l9.8,9.9s5.3,1.6,4.1,2.2-3.7,2-3.2,2.2,3.9.8,3.2,1.7-2.9,2.2-2.6,2.2.6,3.9-.5,4.3.2,2.5-1.2,2.9-2.5,1.2-2.8,2.2-3.4,1.2-3.4,1.2c0,0-.4,1.8-1.5,2.1s1,.5.8,1.4-1.9.7-3.9,1-5.6,1.8-5.6,1.8h-5.8c0,0-1.2-6.5-1.2-6.5l-17-17.4Z"/>
  <path class="cls-2" d="M250.2,32.9s11.5-9.6,12.9-10.2,2.7,1.5,2.7,1.5c0,0-5.9,4.3-6,7s-1.9,5.9-1.2,7.6,2.1,3.5,2.7,3.5,3.9-.8,4.5-1.4,1.2-2.8,1.2-2.8l2.5,1.1s-1.3,1.6-.9,2.4.9,2.1.9,2.1l.8,1.8.9.6s-.3,1.1,0,2.2,3.3,3.2,3.3,3.2c0,0-2.9-1.1-3.1.7s6.4,2.8,6.4,2.8l-3,3.3,4,2.4s-1.7-.5-1.7.4-9.6-8.2-9.8-8.5-8.1-6.3-8.1-6.3c0,0-5.7-7.2-5.5-8.5s-4.2-3.5-3.7-4.8Z"/>
  <path class="cls-12" d="M198.3,75s5.5-.3,6.7-1.7,2.4-2.3,3.2-1.3.9,2.3,2,1.3,1.8-2.9,1.7-3.7,2.1-6,2.1-6l7-1.3-.9,8.5-2.5,8.6-2.7,3.8-10.2.3-6.4-8.5Z"/>
  <path class="cls-12" d="M220.9,77.2c0-.2,8.6-1.5,8.6-1.5l4.1,2.7,3.6,2-4.9,8.6-9.1.5-5.2-4.1.9-5.6,2-2.7Z"/>
  <path class="cls-21" d="M224.9,64.1s1.4,6.4,3.3,5.5,3.6-1.3,3.6-1.3l2.5-2.4s2.5,2.3,3.7,4.8,2.9,2.9.1,6.6-6.1,5.9-6.1,5.9c0,0,.9-4.8-2.5-5.8s-7.3.3-7.7,1.2-.7,2.1-.8,2.6,0,2.6,0,2.6l1.6,1.7s-5.2-.9-7-5-2-8.8-.3-9.8,2.9-5.8,2.9-5.8l4.5-3.2,2.4,2.2Z"/>
  <path class="cls-14" d="M179.8,149s3,2.8,3.7,3.3,2-.3,2-.3c0,0,2.1,1,3.1,1.1s2-.4,2-.4c0,0,1.5.7,2.2.4l.7-.4s1.6-4.8,1.7-6.6-4.5-6-5.1-6.5-2.9-5.9-3-7.1-1.1-5.4-1.1-5.4l-9.8-5.9-4.2-3.8s.8,6.9.6,11.9c-.2,5,.8,10,1.2,11.1s5.9,8.4,5.9,8.4Z"/>
  <path class="cls-8" d="M181.9,144.2s3.2,2,3.6,3.1,0,4.7,0,4.7c0,0,.5.5.8,0s.5-3.8.5-3.8c0,0-.9-2.1,0-2.4s2.5,1,2.8,1.9,0,5.2.9,5.1,0-5.4,0-5.4c0,0,.4-1.8,1.1-1.5s1.7,1.2,1.8,2.1-.8,5.4,0,4.8,2.1-6,1.7-6.6-3.5-1.2-3.9-1.4-2.1-.1-2.4,0-1.6-.5-1.6-.5l-3.2-1.8-2.3,1.8Z"/>
  <path class="cls-12" d="M170.8,113.6s6.3,20.3,6.7,22.2.2,3.8,0,4.5-1.9,2.8.2,3.2,4.7.5,5.5.7,2,.8,3,.4,1.3-2.8,1.1-3.4-1.3-14.1-1.3-14.1l-3-10.4-3.9-9.4h-6.2l-2.1,6.2Z"/>
  <path class="cls-6" d="M234,61.9s.2-6,4.5-6.8,7.4-.5,12.7,1.8,9.4,11,10.9,11.3,1.6,1.7,1.6,1.7c0,0-6.5,2.4-5.2,3.7s2.8,1.3,2.8,1.3c0,0-1.1,3.7-3.8,5.8-2.6,2.1-8.1,8.1-8.1,8.1,0,0-8.1,3.6-12.2,4.5-4.1,1-14.2,4.6-16.8,4.8s-6.7,1.3-7.4,3.5-1.6,4-1.3,4.8,1,1.4,0,3-3.2,2.2-3.5,3-2,14.4-2,14.4c0,0,3.7,4.7,4.4,5.8s1.4,3.7,0,4-4.5,1.6-6.9.8c-2.4-.7-4.7-2.7-4.9-3.1s-4.2-3.7-4-5.5.6-6.3.6-9.2-1.4-11.2-3.7-9.2-5.1,3.2-5.1,7.6-1.7,12-3.2,12.1-8.6-10.2-8.8-12.8-.8-7.1-.8-7.1c0,0-1.1-.1-1.7.3s-2.7.6-2.7.6c0,0-3.2-1.1-2.6-2.4s-.6-4.1-.6-4.1l7.7-10.6,4.8-5.1,3.8-6.7v-4.9s-2.3-7.3-2.3-7.3c0,0-.9-6.4,0-5s4.6,7,5.6,8.3,7.8,9,9.9,10.6,9.9,2.5,9.9,2.5c0,0,5.9,1.3,5.4,0s-4.3-1.9-6-2.9-11.3-8.9-13.4-13.9c-2.1-5-.9-3.7-1.1-5.5s-2.4-4.9-1.3-5.4,2.3-.2,2.3-.7-3.5-2.9-3-3.9,3.6-.7,5.5-.7,8.4-.9,10.6-1.8,5.7-1.4,6.8-1.6,8.3.9,9.5,1.6,4.1,3.1,4.2,5.7-2.3,3.3-2.4,4.5,1.5,2.8.8,3.2-1.9-.6-2.4,0-2.5,2.2-2.3,2.8.9,2,0,1.9-2.1,0-3.5,1.2-2.1,5.6-1.1,7.3,3.3,6.1,4.6,6.9,3.8,3,6.2,3.2,3.4.4,4.5,0,3.7-2.7,4.8-5,3-4.6,4-5.8,1.6-3.2,1-4.1-2-5.3-2.8-4.7-1.8,1.8-1.7,1,.4-2.2-.3-3.6-.3-4.1-.3-4.1Z"/>
  <path class="cls-10" d="M235,85s2.4-1.6,3.1-3.1,1.6-2.2,2.7-1.8,1.9,2,0,4.9c-1.9,2.9-5.4,3.1-5.8,2.6s0-2.6,0-2.6Z"/>
  <path class="cls-10" d="M205.3,76.5s.3-.4,2.1,0,5.5,4.5,6.6,5.3,2,2,.8,2.7-6.5-1.9-7.4-2.7-3.4-3.6-2.1-5.3Z"/>
  <path class="cls-21" d="M212.4,51.6s6.2,0,8.1,1.2,2.9,4.4,2.7,5.7-1.5,3.4-2.3,3.8-4.3,2.2-5.5,2.2-2.3-.5-1.5-.8,3.3-1.8,3.8-1.8.2-.4-.5-.7-2.1-1.3-2.7-1.5-2.6-3.5-2.6-4.6.5-3.6.5-3.6Z"/>
  <path class="cls-16" d="M215.5,53.9s2.4.2,3.2,1.1,0,3.5,0,4.1-.8.8-1.4.5-2.3-1.6-2.3-2.4-.2-2.1.6-3.4Z"/>
  <circle class="cls-23" cx="216.5" cy="56.2" r=".7"/>
  <path class="cls-11" d="M239.5,65.3s6.2-.6,5.6,0-3.1,1.4-2.2,1.8.4,1.8,3,.6,5.4-1.6,6.4-1.8.4,1.2-1,1.5,3.4-.7,3.8,0-1.7,2-3,2.1-4.8.9-5.7,1.2-6.3-1-6.3-1l-4-4.7,3.4.3Z"/>
  <path class="cls-21" d="M236.8,64s1.1.5,2.8,0,2.7-.9,3.1-2.2.5-4.6,0-5-3.6-1-4.8-.3-3.6,3.1-3.7,4.2-1.1,5,.2,5.2,4.5,2.2,5.3,2.4,2.7-.3,1.4-.9-3.9-1.4-4.7-2.5.6-1,.6-1Z"/>
  <path class="cls-16" d="M236.2,61.6c0-.1.8-2.6,2-3.2s2.7-.2,2.7.4,0,1.9-1,2.8-4.1,1.1-3.7,0Z"/>
  <circle class="cls-23" cx="238.5" cy="59.7" r=".7"/>
  <path class="cls-15" d="M227.3,56.3s.7-1.6,1.1-.8.5,2.7,1.2,2.6,1.7-2.5,2.3-1.9.5,3.4.7,3.5.5,1.1,0,1.5-1.4,2.2-1.6,2.6-.4,3.7-1.6,3.3-1,0-1.4-1.7-.8-3.1-1.3-3.6-.9-.9-.4-1.6,1-3.9,1-3.9Z"/>
  <path class="cls-2" d="M210.2,37.7c0,0,5.7,0,8.7,2.7s6.2,8.3,6.3,9.2-.3,4.1-.6,3.8-2.1-2.3-2.3-2.8-1.2-2.6-.6-2.1,1.3,2.3,1.3,1-1.2-2.5-2.3-4.2-2.9-4-3.8-5-8.4-1.7-7-2.7Z"/>
  <path class="cls-15" d="M219.8,45.6s-7.2-3.3-10.2-4.3-16.8-1.6-18-2-7.6-.6-8.8-.8-2.6-1.2-2.9-1.3-3.5-2.6-3.2-1.5,2.7,3.2,6.5,4,11.1,2,15.6,1.9,8.4,0,11.3,1.4,8.2,3.7,9.2,4,.4-1.3.4-1.3Z"/>
  <path class="cls-2" d="M237.2,52.2s6.1-7.1,7.8-7.5,5.6-.7,7.6,0,7,2.4,6.6,2.7-5.6-1.2-9.1-1.4-3.6-.3-5.2.9-6.5,6.3-7.1,6.6-.6-1.2-.6-1.2Z"/>
  <path class="cls-15" d="M245.5,51.6s4.4-2.3,7.1-2,10,2.7,11.9,4.3,11.9,7.4,11.7,8.4-2,1-2.6,0-10.9-9.2-17.6-10.7-8.2.4-8.2.4c0,0-3.8.3-2.2-.4Z"/>
  <path class="cls-4" d="M271.7,65.3s4.4,1,4.6,1.3-2.1.7-1.6.9,4.1.2,2.9,1.4-6.2.7-6.3,0,.8-2,1.6-1.5.7-.1-.3-1.2l-.9-1Z"/>
  <path class="cls-4" d="M268.4,78.4s-4.6-.5-3.9,0,2.5,1,3.1,1,.8-1,.8-1Z"/>
  <path class="cls-4" d="M258.8,81.3c.3,0,5.4-.2,4.9.5s-2.2,1.1-2,1.3-3.9-1.9-2.9-1.9Z"/>
  <path class="cls-4" d="M254.2,83.2s4.5,1.2,3.9,1.5-2.4.4-3.2.9-2.2,1.3-3.1,1.4-2.2-1.5-1.3-1.4,3.7-2.3,3.7-2.3Z"/>
  <path class="cls-11" d="M222.6,79.9s1.2-1.8,3.5-1.7,4.1-.3,4.8,1.2.7,2.6,0,2.8-2.3.2-2.2,1,1.8,1.3,1.9,1.5-.6.9-1.6.9-5.7-.7-6.2-.9,0-1.1,1.3-1.5,2.1-.5,1.5-.9-4.4-1.1-3-2.3Z"/>
  <path class="cls-11" d="M222.5,85.6l7,1.4s.1.6-1.3.8.4.3-2.2,0-3.5-2.3-3.5-2.3Z"/>
  <path class="cls-11" d="M198.9,97c.2-.2,6.8-1.9,8.1-3.5s2-2.5,2.3-2.8.4-3.6,1-2.8,1,2.7,0,4.4-3.7,3.4-4.2,3.7-10.6,3.5-7.2.8Z"/>
  <path class="cls-11" d="M191,108.5s7.5-6.9,8.2-6.8-.1,1.6-1,2.4-4.8,4.6-3,4.4,7.5-6.7,7.7-5.8-3.7,6.7-1.7,5.2,3.5-6.8,3.7-4.7-1.4,5.1-2.2,5.4-1.7,1-2,.8-.3-.7-1.1-.9-.2-1.7-.2-1.7c0,0-1.6,2.3-2.7,2.6s-2.4,1-2.9,0-.6-2.2-1.1-1.3-3.3,1.9-1.7.5Z"/>
  <path class="cls-11" d="M208.4,107.4s2.4-7.9,3-5.6-1.9,7.4-2.3,7.6-1.5.2-.8-1.9Z"/>
  <path class="cls-12" d="M181.9,91.5s11.7-3.6,12.8-3.5,4.9,0,3,.9c-1.9.9-8.2,3.3-7.7,3.9s15.6-3.4,14.4-2.1-12.2,3.7-11.3,3.7,5.4.4,4.5,1.1-7,.3-9.8,0-4.7.3-6.1.4,2-4.6-.7-2.8-7.9,9.4-6.8,6.5"/>
  <path class="cls-11" d="M247.7,63s4-4.7,4.3-3.3-5.8,6.1-4.3,3.3Z"/>
  <path class="cls-11" d="M207.8,56.2s3.9,2.2,3.3,2.8-1.1.1-1.6,0-2.3-3.2-1.7-2.8Z"/>
  <path class="cls-11" d="M199.8,54.9s7.5,4,8,4.6.3,1.5-.8,1-7.2-4.2-7.2-4.2c0,0-1.1-1.3,0-1.3Z"/>
  <path class="cls-11" d="M196.9,56.9s7.9,3.8,9.6,4.3,8.3.9,8.3.9,2.6-.5,1.6.9-.6,1.6-1.6,2.2-1.8.7-2.9.8-3.5,0-4.3-1-4.7-.7-4-1.4,1.2-1.1.4-1.3-4.3,0-3.9-.5,4.2.6,2.5-.7-8.1-3.4-6.4-4.3"/>
  <path class="cls-12" d="M245.1,76.3s-.7,2.3-.9,3.7-3.3,3.1-3.3,3.1c0,0-1.8,7.1-1.7,7.6s1.6-2.2,2.9-2,3.5,0,3.5-.8,1.5-3.6,1.8-2.9,1.1-2.3,1.5-2.8,0-1.6,0-2.8.2-7.6-1-2.5-3.3,9.4-2.9,6c.4-3.4,0-6.6,0-6.6Z"/>
  <path class="cls-15" d="M244.8,48.9s3.2-1.4,3.3-.6-4.7,2.4-3.3.6Z"/>
</svg>