<?xml version="1.0" encoding="UTF-8"?>
<svg id="Livello_1" data-name="Livello 1" xmlns="http://www.w3.org/2000/svg" version="1.1" viewBox="0 0 150.6 67.8">
  <defs>
    <style>
      .cls-1 {
        fill: #0e0000;
      }

      .cls-1, .cls-2, .cls-3, .cls-4, .cls-5, .cls-6, .cls-7, .cls-8, .cls-9 {
        stroke-width: 0px;
      }

      .cls-2 {
        fill: #140100;
      }

      .cls-10 {
        stroke: #000;
      }

      .cls-10, .cls-11 {
        fill: none;
        stroke-linecap: round;
        stroke-linejoin: round;
        stroke-width: .6px;
      }

      .cls-3 {
        fill: #6c4c39;
      }

      .cls-4 {
        fill: #563b2f;
      }

      .cls-5 {
        fill: #7f5846;
      }

      .cls-6 {
        fill: #634536;
      }

      .cls-7 {
        fill: #281d05;
      }

      .cls-11 {
        stroke: #281d05;
      }

      .cls-8 {
        fill: #fff;
      }

      .cls-9 {
        fill: #4d3519;
      }
    </style>
  </defs>
  <path class="cls-10" d="M146.3,47.5s1.7,2.2,1.9,3.3,0,1.9,0,1.9"/>
  <path class="cls-10" d="M145.8,48.1s.5,1,.4,2.7-.2,4.3-.2,4.3"/>
  <path class="cls-10" d="M144.8,48.6s-1,3.1-2.8,6.2-2.8,4.9-2.8,4.9"/>
  <path class="cls-10" d="M142,49.8s-4.3,6.9-4.9,7.8-2.8,3.6-2.8,3.6"/>
  <path class="cls-7" d="M123,52.7s5.4-.5,5.9-.2.9.5,1,.8-.2.7-.2.7l.3,1.1s1.1.3.8.8-.9.5-.9.5c0,0,.6.9.1,1s-2.5.3-3,.2-2.2-.3-3.2-.4-2.1.5-2.6.4-2-.6-2.1-.7,1.3-2.6,1.3-2.6l2.7-1.7Z"/>
  <path class="cls-10" d="M138.7,49.8s-6.5,6.8-7.5,7.5c-1,.7-4.5,4.2-4.5,4.2"/>
  <g>
    <path class="cls-3" d="M96.5,56.6s-1.3,2.4-1.1,2.7,6.6,0,7.8,0,2.2,2.2,2.2,2.2v1.9s.1.8.8,1.5-1,0-1,0l-1.8-.3v1.3s-1.2.2-1.2.2l-11.5-1.1-4.7-3.6,3.4-3.4,7.1-1.4Z"/>
    <path class="cls-7" d="M106.2,64.8h-1s-.3-.4-.6-.7-1.5-1.2-2.4-1.6c-.7-.3-5.7-.1-7.5,0,0,0-.3,0-.7,0h0s0,0,0,0c-.8,0-2.2.2-2.9,0-1.1-.2-2.5-.2-1.9-.4.6-.2,4.4-.7,4.4-.7,0,0,8.4-.5,9,0,.6.5,2.3,1.6,2.3,1.6.9-1.4-.5-2.9-1.1-3.1-.6-.2-12.6,1.1-12.6,1.1,0,0-.4-1.1,0-1.5.4-.4,1-2,1-2h-4.2c0,0-10.7,6-10.7,6,0,0,.9,2.9,2.5,2.9s4.6.4,6.1,0c1.5-.4,3.5-.4,5.8-.6,0,0,3.5.5,4.2.8.8.3,1.9.3,2.8.3s3-.1,3.6,0,1.1.5,1.1.5c0,0,0-2.1-1.7-2.4s-3.2-.5-3.6-.5c-.2,0-3.1.2-4.9.3,0-.2-.1-.3-.1-.3,0,0,0-.3.2-.6,1.1,0,5.2-.3,5.8-.3s3.4.6,4.3.9c.9.3,2.3.9,2.3.9,0,0,.8.3,1.1,0,.3-.3-.7-.7-.7-.7Z"/>
    <path class="cls-2" d="M102.8,66.4l.6-.5s1.1,1.1,1.2,1.4.3.6-.2.4-1.6-.5-1.6-.5v-.8Z"/>
  </g>
  <path class="cls-6" d="M131.7,50.8s2.3-.6,2.7-1,3.1-.4,3.4-.4,3,.4,3.6.4,3.1,0,3.6-.4,1.7-2.2,2.3-2.3,1.5-.4,2.1-.5,1.1-.4,1.2-1,0-5.8-.4-6.5-1.1-3.2-1.6-4.3-3.1-6.4-3.4-7.1-2.2-2.8-2.2-2.8l-1.1-2.2s.6,1.8,0,1.4-1.6-3.2-1.6-3.2c0,0,.3,1-.3.7s-2.7-2.9-2.7-2.9l-.4-1.7s0,1.1-.5.9-2.1-2.9-2.1-2.9c0,0-.2,1.3-.8,1.2s-2.7-2.4-2.7-2.4c0,0,.2.7-.4.8s-2.1-1.1-2.4-1.4-2.5-1-2.5-1c0,0,.9.8.3,1s-4-1.4-4-1.4c0,0,.5.5,0,.7s-.1,0-1.8-.1-5.4-.2-5.6-.2-1-.6-2.8-1.3-2.5-.8-2.5-.5-2.5-1.5-2.8-1.7-1.2-1.3-1.2-1.3c0,0,1,.7,0,.6s-4.5-3.3-4.5-3.3c-.9.6-5.1-2.2-5.1-2.2,0,0-2.8-.3-3.7-.9-1-.6-1.3-.8-1.3-.8,0,0,.4.8,0,.8s-4.2-.8-4.6-.8-2.4-.5-2.4-.5c-1.1.7-7.7,0-7.7,0,0,0,1.1.3,1,.5s-6.6.5-6.8.7-.8.5-.8.5c0,0,1.8-1,1.9-.2.1.7-1.9,1.1-1.9,1.1s-4.4.2-4.4.2l-1.4.5s2.2,0,1.8.4-2.8,1-3.3,1.2-4.2,1.1-4.5,1.3,0,.7-.7.9-5.2,2.1-5.2,2.1c0,0,1.4-.2,1.2.1s-.3,1.1-.6,1.3-4.3,2.1-4.3,2.1c0,0,2.1-.8,2.2-.4s-4.6,3.7-5.3,4.6-1.6,2.2-1.6,2.2c0,0,1.5-1,1.9-.6s-.5,1.7-1,2.2-2.4,2.8-2.4,2.8c0,0,2.2-1.1,2.5-.7s.2,1-.4,1.4-2.5,3.8-2.5,3.8c0,0,1.5-1.4,1.7-.7s-.2,2.4-.5,2.7-1.7,2.7-1.7,2.7c0,0,2.7-2.9,3.1-2.3s-.2,1.6-.8,2.1-2.5,4.3-2.7,4.9,0,1,0,1c0,0,2.2-2.4,2.1-1.6s-.7,1.9-1,2.5-1.7,4.4-1.7,4.4c0,0,1.2-2.1,1.4-.9s-1.4,3.9-1.4,3.9c0,0,2.1-1.1,2.3-.9s-2.3,4.8-2.3,4.8c0,0,3.6-5.6,3.4-3.6-.2,1.9-1.4,3.5-1.6,3.9s-1.3,1.8-1.3,1.8c0,0,2-1,1.1.4-.9,1.4-1.6,2.8-1.6,2.8,0,0,2.9-2.1,2-.7s-2.8,3.6-2.8,3.6l.8.5s3.4-1.9,3.1-1c-.2.9-.4.8-.5,1s1.1,0,3.3,0,2.2.7,2.2.7c0,0,1-.9,1.4-.5s-.6,1.2-.6,1.2c0,0,4.6.4,4.9.9s2.1,1.3,1.7,1.4,3.6.1,4.8.4,5.1-.5,5.1-.5c0,0,.5.2,0,.6s-4.4,1.7-4.4,1.7c0,0,6.3-.4,7.9-.8s3.6-1.3,2.8-.5-3.3,1.9-3.3,1.9c0,0,4.2-.6,5.5-1.1s2.4-1,2.2-.5-.5,1-.5,1c0,0,8-3,8.3-3.2s1.9-3.4,1.6-2.1.1,1.3.1,1.3c0,0,3.4-3.6,3.4-3.4s-.2,1-.2,1c0,0,2.1-1.9,2.9-1.4s.3,1.4.3,1.4c0,0,3.3-3.4,3-1.7-.2,1.7.8.7.8.7,0,0,3.2-2.6,3-1.9s1.6.3,1.6.3c0,0,1.2-.7,1.1,0s-1.7,1.2-1.7,1.2c0,0,4-1.3,4-.6s.6.8.6.8c0,0,3.1,0,4.3-.2s1.9-.4,2.1.1-.7,1.3-.7,1.3c0,0,4.2-1.9,4.5-1.7s.5,1.4.5,1.4c0,0,2.9-3,3.4-2.4s1.2.2,1.2.2c0,0,1.1-2.4,1.7-2.9s3.8-2.8,3.6-2.3,2-.5,2-.5l.9.5,2.1-1.2s1.9-.9,1.9-.4-.7,1-.7,1Z"/>
  <ellipse class="cls-1" cx="139.5" cy="33.4" rx="1.7" ry="1.4"/>
  <circle class="cls-8" cx="139" cy="33.1" r=".6"/>
  <path class="cls-1" d="M147.5,46.7s.2-1.4.4-1.6.8-1.2,1-.8.2.9.6,1.1,1.3-.4,1.1,0-.1.9-.6,1.1-2.6.4-2.5,0Z"/>
  <path class="cls-7" d="M41.6,53.3s-10,.4-12.4,0-13.5-1.9-18.6-6.8c-6-5.8-8.6-8.2-2.2-14.2,0,0,4.9-3.8,10.3-5.5s8.8-2.9,8.4-3.5-2-2.2-4-2-10.7,1.2-13.4,2.9c-2.7,1.7-8.8,8.2-9.3,10.9s-.8,6.3,1.2,9.8c2.1,3.5,7.8,9.3,12.2,10.7,4.3,1.5,14,3.5,15.8,3.5h11.9l3.2-4-3.2-1.7Z"/>
  <path class="cls-9" d="M146.6,41.3s1.2,2,1.7,1.6.9-.3.8,0-1.4,1.3-1.8,1.2-.6-.2-.7-.5,0-2.4,0-2.4Z"/>
  <path class="cls-4" d="M111.9,27.3s3.9-2.3,4.5-2.1,5.7,2.6,6,3,2.2,2.8,2.7,3.4,1.9,2.8,3,3.6,3.9,2.9,4.5,3.7,3.4,2.7,4.1,3.7c.7,1,.6,3.1.3,3.6s-1.8,3-1.8,3l-2.6,1.4s1-1.3.7-1.6-2.6.4-2.6.4c0,0-1.4.7-1.6,1.2s-2.2.9-1.7.3.8-1.5.8-1.6-.4-.7-.4-1.1-.3-.8-.3-.8l-1.6-1.1-.7-1.3h-2.4c0,0-.8-1.4-1.3-1.1s-1.8,1.6-1.8,1.4,0-1.5.2-2.3.2-1.9-.2-2.1-.4-2.1-.7-2-2.3.8-2.6.7,1.2-.9,1.2-.9c0,0-.7-.3-1-.3s0-.8,0-.8c0,0,.8-.9-.1-.6s-1-.9-1-.9l1.5-2.2-2.1.8.4-1.5s-1.2,0-1.4,0,.6-1.4.6-1.4l-2.5.4,1.3-2-1.3-.4.9-.8-3.3-.2,2.4-1.3Z"/>
  <path class="cls-5" d="M119.9,26.4l-1.4-.7,1.4-.7-.7-.7.7-.5-.3-.5,1.4-1.1-.7-.7,1.2-1.3s1.2.1,1.7,0,1.6.3,1.6.3c0,0,.6.3.8.3s0-1.7-2.1-2.2-4.6.3-5.6,2.4c-1,2.1-.8,2.9-.8,3.8s-.5,1.3.3,1.7,1.4.6,1.4.6l1.1-.8Z"/>
  <path class="cls-4" d="M119.9,26.4l.8-2h-.8l1.4-.6.6-.9h-1l1.9-.7.9-.4.9-.6s-.2-1.2-1.3-.9-2.7.7-2.9,1.3-1.6,1.6-1.4,2.2,1,2.7,1,2.7Z"/>
  <path class="cls-7" d="M125.5,21.7s-.8-1.3-1.2-1.6-1.7-.3-2-.2-1.4.2-1.6.4-.3.7-.6.9-.9.4-.8.5-.5,1-.5,1l-.4,1s.4-.6.6,0,0,.8,0,1,.2,1.3.3,1.4.7,0,.8.4.6.4.6.4c0,0-1-2.3-.6-3s1.1-1.6,1.1-1.6c0,0,.9-.5,1.2-.6s-1.1-.5-.3-.6,1.9,0,1.9,0l.8.2.9.5Z"/>
  <path class="cls-5" d="M54.7,43.7s11.9-3.4,12.4-1.6c.5,1.8,2.4,3.5,2.4,3.5,0,0,3.7-5,3.1-3.6l.3,2.3s1.8-6.1,2.1-4.3,0,3.3,0,3.3c0,0,3.3-5.6,2.8-3.8s-.4,2.6-.4,2.6c0,0,5-5.6,4.4-3.9s-1.2,3.2-1.2,3.2c0,0,5.8-8,6-7,0,0,2.6-6.4,2.2-4-.4,2.4-1.1,5.1-1.1,5.1,0,0,3.9-5.4,3.2-3.5-.7,1.9-.8,2.9-.8,2.9l2-6.5.2,6s2.7-1.9,3.3-2.4-2.4,6.3-2.4,6.3c0,0,3.4-2.5,4.4-3.3s-4.3,8-4.3,8c0,0,3-2.3,4.3-3.3s-2.6,4.8-2.6,4.8l1.7-1.5-.5,2.8-1.2,3,3.4-1.6-1.6,4.6,4-1.8-.4,3.3,2.4-2v4l2-2.6,1.1,2.6,2.5-4.9-.5,4.9,1.5-1,2.7,1.4,1.9-4.3v4l2.8-2s-.9-.5-1.5-.7,3-2.2,3-2.2c0,0-2.3,0-2.1-.8s3.7-1.9,3.7-1.9c0,0-3.7.2-3-.6s2.8-1.8,2.8-1.8c0,0-1.9-.3-.8-1.4s3.9-2.2,3.9-2.2h-2.8l2.5-3.3s-4.5,2.8-4.2,2.1,2.3-2.6,2.3-2.6c0,0-3.1.8-4.1.5s4.7-2.7,4.7-2.7c0,0-3.6.6-3.6-.6s2.3-1.9,2.3-1.9l-3,.7,1.4-2.4s-2.8.5-2.3-.3.9-1.5.9-1.5l-3.7.6,2.1-2.4s-2.5,1.2-3.4-.4,3.5-1.3,3.5-1.3l-3.2.4,2.5-2.3h-1.2c0,0,1.1-1.1,1.1-1.1l1.2-1.1s-2.2-.5-2.5-.6,1-1.5,1-1.5l-4.9,1.5,2.1-2.8-3.1,1.3,1-2-2.1.7s-5.6-3.4-12.4-6.2-4.3-2-2.4-3.3-5.9.4-7.4,0c-3.3-.7-6.4-1-9-.4,0,0,1.9.6.4.9s-7.3.5-7.3.5c0,0,4.1.3,1.8.9s-7.6,2-7.6,2c0,0,4.7,0,3.1.5s-7.6,3.1-7.6,3.1c0,0,4.6-1,2.7,0s-7.1,3.4-7.1,3.4c0,0,3.8-2,2.7-.4-1.1,1.6-4.7,4.4-4.7,4.4,0,0,2.4-2.3,1.6,0s-5.4,4.7-5.4,4.7c0,0,4.5-1.1,3.9.2-.6,1.4-2.5,3.8-2.5,3.8,0,0,3.8-1.9,2.5-.6s-4.3,5.6-4.3,5.6c0,0,5.9-3.6,5.1-2.1-.9,1.5-3,6.1-3,6.1,0,0,3.7-4.3,3-2.1-.8,2.2-1.8,5.1-1.8,5.1,0,0,5.1-4.3,4.8-3.5-.3.7-1.6,2.6-1.6,2.6Z"/>
  <path class="cls-11" d="M56.2,44.2s-3.1,4.8-4,5.9-2.8,2.6-2.8,2.6"/>
  <path class="cls-11" d="M52.5,34.3s-3.7,5.2-4.3,5.9-4.3,4.4-4.3,4.4"/>
  <path class="cls-11" d="M59.7,43.7s-1.8,4.2-2.2,4.7-4.7,4.8-4.7,4.8"/>
  <path class="cls-11" d="M54.1,58s3.5-1.8,4-2.2,4.8-5.9,5.1-6.3.8-2.3.8-2.3"/>
  <path class="cls-11" d="M62.3,45.8s-1.4,3.3-2.6,4.4-5.7,5.2-5.7,5.2"/>
  <path class="cls-11" d="M61.6,43.2s-.8,3.3-1.1,4-1.4,2.2-1.4,2.2"/>
  <path class="cls-11" d="M78.2,49.2s-1.9,3.6-2.5,4.8-4,6-4,6"/>
  <path class="cls-11" d="M80.6,48.5s-2.3,5.8-2.8,6.5-2.8,3.7-2.8,3.7"/>
  <path class="cls-11" d="M82.8,49.2v4.4c0,.4-2.2,4-3.4,5.1"/>
  <path class="cls-11" d="M81.8,52.4s-.4,1.3-1.2,2.5c-.8,1.2-2.1,2.4-2.1,2.4"/>
  <path class="cls-11" d="M86.6,37.1s-.7,5.1-1.2,6.6-1.4,4.7-1.4,4.7"/>
  <path class="cls-11" d="M84.2,38.4s0,2.3-.3,3.1"/>
  <path class="cls-11" d="M71,45.8s-.4,1.6-.8,2.7"/>
  <path class="cls-11" d="M69,35.4s-1.5,2.2-2.1,3.3-3,4.1-3,4.1"/>
  <path class="cls-11" d="M58.8,11.5s4.1-2.1,6.4-2.6"/>
  <path class="cls-11" d="M75.8,4.4s-1,.6-2.4,1-5.3,2.1-5.3,2.1"/>
  <path class="cls-11" d="M74.6,6.4s3.7-1.9,5.5-2"/>
  <path class="cls-11" d="M77.8,7s3.4-.8,4.5-1.1,2.2-.5,2.2-.5"/>
  <path class="cls-11" d="M62,8s-3.7,1.1-4.4,1.7-2.2,2.5-2.2,2.5"/>
  <path class="cls-11" d="M52.8,15.7"/>
  <path class="cls-11" d="M53.2,14.6s-4.8,2.8-5.7,3.6c-.8.7-1.9,2.7-1.9,2.7"/>
  <path class="cls-11" d="M93.8,12.5s-3.3.4-4.1,1.1-5.4,3.5-6.2,4.2-2.8,2.7-2.8,2.7"/>
  <path class="cls-9" d="M149.4,38.2c0,0-.6-2.6-.7-2.6s-.6.6-.8.2-.8-1.7-.8-1.6-.2,1.3,0,1.6.4.7.5.7.5-.2.8.1,1.1,1.5,1.1,1.5Z"/>
  <path class="cls-11" d="M142,45.3s-2.1,1.4-2.4,1.8-2.6,1.8-2.6,1.8"/>
  <path class="cls-11" d="M139.8,45.3s-.4.4-2.2,1.2-4.2,2.4-4.2,2.4"/>
  <path class="cls-11" d="M125.7,44.2s-1.8,2-2.3,2.7-3.2,2.1-3.5,2.5"/>
  <path class="cls-11" d="M117.7,55.1s2.8-2.9,3.5-3.7,2.2-2.3,2.5-2.8"/>
  <path class="cls-11" d="M71.7,49.9s-.3,1.8-2.8,4.3c-2.5,2.6-6.1,5.2-6.6,5.7"/>
  <path class="cls-11" d="M58.2,58.6s4.4-2.5,6.1-4.7,2.2-3.7,2.2-3.7"/>
  <path class="cls-11" d="M69.2,39.2s3.4-2.1,3.9-2.5,4.4-6.2,4.6-6.6.6-2.3.6-2.3"/>
  <path class="cls-11" d="M76.6,26.4s-1.2,3.4-2.3,4.6-5.3,5.6-5.3,5.6"/>
  <path class="cls-11" d="M73.4,39.5s4.2-2.8,5.7-5.2c1.5-2.4,1.9-3.9,1.9-3.9"/>
  <path class="cls-11" d="M57.2,35.4s-2.3,5.4-3.1,7-3.1,6.3-3.6,6.8-4.8,4.7-4.8,4.7"/>
  <path class="cls-11" d="M64.4,17.1s-5.6,3.5-7.2,5.2c-1.5,1.8-3.5,2.7-4,3.7s-6.1,7.6-6.1,7.6"/>
  <path class="cls-11" d="M81.8,10.1s-4,.9-9.8,5.3c-5.9,4.4-9.2,7-9.7,7.6s-5.7,5.8-5.7,5.8"/>
  <path class="cls-11" d="M70.6,19.8l-4.1,6.7c-1.1,2.5-2,6.2-3.6,7.8s-2.3,2.2-2.6,2.8"/>
  <path class="cls-11" d="M77.8,2.5s-.2-.6-1.9-.3-7.3,1.8-9.4,2.9c-2.1,1-1.9,0-5.7,1.9"/>
  <path class="cls-11" d="M82.3.3"/>
  <g>
    <path class="cls-11" d="M108.9,23.9s-4.9,1-9.6,4-3.7,2.1-3.7,2.1"/>
    <path class="cls-11" d="M92.2,33.1s-1.3,2.4-1.8,3.2"/>
    <path class="cls-11" d="M104.2,32.3s-4.5,3.4-5.7,4.7c-1.3,1.3-6.3,5.8-6.3,5.8"/>
    <path class="cls-11" d="M107.6,33.1s-1.9,3.6-4.1,6.5c-2.2,2.8-4.2,5-4.2,5"/>
    <path class="cls-11" d="M102.9,35.4s-5.4,5.5-6.8,6.8-3.2,3-3.2,3"/>
    <path class="cls-11" d="M103.5,37s-4.7,3.7-4.8,4.1"/>
    <path class="cls-11" d="M108.9,37s-2.5,4.9-4.7,7.6-4.9,6-4.9,6"/>
    <path class="cls-11" d="M111.8,39.5s-5.4,8.2-6,9.3-3.5,4.7-3.5,4.7"/>
    <path class="cls-11" d="M113.7,42.8s-4,5.1-4.8,6.7-3.1,4.4-3.1,4.4"/>
    <path class="cls-11" d="M115.9,43.8s-1.1,2.3-2.1,3.3"/>
    <path class="cls-11" d="M115.9,48.1s-3.8,3.8-4.9,5.1"/>
    <path class="cls-11" d="M101.2,20s-5,2.6-6.2,4-3.3,4-3.3,4"/>
    <path class="cls-11" d="M104.5,14s-4.8,2.6-7.5,3.6-5.3,5.5-5.3,5.5"/>
    <path class="cls-11" d="M109.8,12.1s-3,0-5.7,1c-2.7,1.1-5.4,1.7-5.4,1.7"/>
    <path class="cls-11" d="M104.5,10.5s-2.8,1.2-5.2,2.1c-2.4.9-3.6,1.8-3.6,1.8"/>
    <path class="cls-11" d="M102.3,7s-6.4,0-9.5.1-4.8,1-4.8,1"/>
  </g>
</svg>