<?xml version="1.0" encoding="utf-8"?>
<!-- Generator: Adobe Illustrator 27.9.0, SVG Export Plug-In . SVG Version: 6.00 Build 0)  -->
<svg version="1.1" id="Symptoms" xmlns="http://www.w3.org/2000/svg" xmlns:xlink="http://www.w3.org/1999/xlink" x="0px" y="0px"
	 viewBox="0 0 32 32" style="enable-background:new 0 0 32 32;" xml:space="preserve">
<style type="text/css">
	.st0{fill:#FFFFFF;}
	.st1{fill:#D99898;}
	.st2{fill:#C98D8D;}
	.st3{fill:#C46769;}
	.st4{fill:#BF5456;}
	.st5{fill:#B53A3D;}
</style>
<path class="st0" d="M3.1,10c0,3.2,2.9,11.6,8.9,11.8c0,0,0,4.6,1.3,5.7c1.3,1.1,2.6-0.2,2.7-0.5c0.1-0.3,0-1,0-1s0.6,0.8,1.6,0.4
	c0.9-0.4,1-2.5,1-2.5v-1.5c0,0,0.4-0.3,0.5,0.5c0.1,0.8,0.2,5.1,2.1,5.3c1.9,0.2,1.5-1.7,1.5-1.7s0.6,1.3,1.3,0.9
	c0.7-0.4,1.2-1.7,1.2-2.5c0-0.8,0.2-3.4,0.2-3.4s1-1,2.4-1.5c1.3-0.4,5.2-3.2,3-11c-0.4-1.3-9.3-4.9-17.4-3.8
	C10.2,6.9,3.1,9.7,3.1,10L3.1,10z"/>
<path class="st1" d="M4.7,10.7c0,0,6.7-2.9,8.9-4.3c0,0,8.7-0.9,16,3.1c1.1,6.7-0.6,8.8-3.1,10c-0.6,0.3-2,1.6-2.6,1.7
	c-0.6,0.1-1.7-0.1-2-0.1c0,0,0.5,6-0.3,6.4c-0.8,0.4-1.7-1.7-1.7-3.2c0-1.6-0.1-3.1-0.1-3.1s-2.7,0.4-4.6,0.1c0,0,0.1,4.8,0,5.1
	c-0.1,0.3-0.9,1.1-1.7-0.1c-0.7-1.2-0.5-5.2-0.5-5.2C7.8,20.9,6,18.4,4.7,10.7L4.7,10.7z"/>
<path class="st1" d="M22.7,21c0,0,0.4,0.1,0.8,0.1c0.3,0,0.8-0.1,0.9-0.2c0.3-0.2-0.2,4.8-0.2,4.8s-1.2,1.8-1.6-1S22.7,21,22.7,21z"
	/>
<path class="st1" d="M15.8,21.1c0,0,0.2,3,0.2,3.4c0,0.4,1.2,1.8,1.6-1c0.1-1,0.2-2.4,0.2-2.4s-0.5,0-1,0.1S15.8,21.1,15.8,21.1
	L15.8,21.1z"/>
<path class="st2" d="M4.7,10.7c0,0,6.7-2.9,8.9-4.3c0,0,8.7-0.9,16,3.1c0.4,3.1-4.8,4.7-7.6,4.4s-4.8-2.7-7.3-3.3
	c-2.5-0.6-5.5,1.1-6.6,1.1S4.9,11.9,4.7,10.7L4.7,10.7z"/>
<g>
	<circle class="st3" cx="6.3" cy="15.1" r="6"/>
	<circle class="st4" cx="6.3" cy="15.1" r="4.4"/>
	<circle class="st5" cx="6.3" cy="15.1" r="2.7"/>
</g>
</svg>
