<?xml version="1.0" encoding="UTF-8"?>
<svg id="Livello_1" data-name="Livello 1" xmlns="http://www.w3.org/2000/svg" version="1.1" viewBox="0 0 150.6 76.2">
  <defs>
    <style>
      .cls-1 {
        fill: #604033;
      }

      .cls-1, .cls-2, .cls-3, .cls-4, .cls-5, .cls-6, .cls-7, .cls-8, .cls-9 {
        stroke-width: 0px;
      }

      .cls-2 {
        fill: #765140;
      }

      .cls-3 {
        fill: #5e4345;
      }

      .cls-4 {
        fill: #8c6954;
      }

      .cls-5 {
        fill: #99715f;
      }

      .cls-6 {
        fill: #7b5946;
      }

      .cls-7 {
        fill: #997a62;
      }

      .cls-8 {
        fill: #6d5053;
      }

      .cls-9 {
        fill: #272726;
      }
    </style>
  </defs>
  <g>
    <path class="cls-8" d="M83.8,72.9l2.9-1.2s3.9,1.2,7,1.2,6.5-.2,8.5.5,4.1,2.2,2.8,2.5-24.1,0-24.1,0l2.9-3.1Z"/>
    <path class="cls-3" d="M66.8,68.4s4.9,5.9,5.9,6.6,3.5,1.2,5.4,1.1,4.6.4,5,0-.3-1.2.7-1.5,3.4-1.6,3.4-1.6c0,0-.3-1.6-1.6-2.5s-1.2-4.6-1.2-4.6l-4-2.4-13.6,4.9Z"/>
    <path class="cls-3" d="M.1,75.1s.8-1.6,4.7-2.6,13.1-1.6,16.6-1.7,12.1.3,14-.5,6.5-1.8,6.5-1.8l3.4-3.5,10.1,2.4,3.7,4.7s-2.4,1.1-4.7,2.2c-2.4,1.1-8.2,1.7-9.7,1.7s-19.2.1-21.1,0-25.6.9-23.5-.8Z"/>
    <path class="cls-8" d="M9.1,73.5s6.6-1.3,13-1.1c6.4.3,13.3-1.3,15.9-2s3.1-.7,4.4-.9,9.1,1.4,7.4,2.2-10.3,2.1-14.2,2.2-28.7.6-26.6-.5Z"/>
    <path class="cls-3" d="M130.9,35.5s4,.3,4.9,1.1,2,1.5,2.4,3.2c.4,1.7.9,3.5,0,4.1s-1.3,1-1.7,0-2.6-2-2.6-1.3-.6,1.3-1,1.2-.8.6-.7,1.1.3,2.9-.5,2.3-2.6-3.1-3.3-3.4-2.6-.4-2.6-.4c0,0,1.8-2,2.7-2.7s2.3-5.1,2.3-5.1Z"/>
    <path class="cls-8" d="M130.4,39.3s4.2,1.2,4.8,1.5.6-1.3.7-1.5.9-.4.8-.7-1.4-2.4-1.8-2.5-3.9-.6-3.9-.6l-.5,3.8Z"/>
    <path class="cls-4" d="M133.3,1.8l5.7,2.1s4.6,2.3,6.7,3.8,3.3,2.7,3.3,3.3-.9,3.6-1,4.9-.3,2.4-.9,2.9-2.3,1.3-2.3,1.3c0,0-.2,2-.9,2s-1.5-.9-1.8,0-1.8,2.7-1.7,2.5.3-1.9-.2-1.2-2.2,3.6-2.2,3.6c0,0-.1-1.6-.6-1.5s-1.6,1.5-1.6,1.5c0,0,0-1.9-.5-1.6s-1,1.6-1,1.6c0,0,0-1.5-.8-1.2s-2.4,1.8-2.4,1.8l-1.2,3.3s-.4-2.8-.2-1.4c.2,1.4-.9,3.5-.9,3.5,0,0,1.7-.4,1.9,0s-.7.4-.8,1c0,.5,1.2.9,1.2.9l1.3,1.3s-.9,0-1.3.4.6,1.6.6,1.6l-1.1,2.8s0-4.1-.6-2.1c-.6,1.9-.5,3.2-.5,3.2,0,0-.9-2.1-1.2-1s-1.6,2.5-1.6,2.5c0,0,0,.5-.5,1.1s-3,1.8-3,1.8l-5.5.7-4.6,1.7-10,1.5h-5.5l-2.9,4.8-2.3,5.4s-2.6,2.8-3.5,3.9c-.9,1.1-3.8,3-4.2,3.6s-.7,1.3-.6,1.8.2.9-.5,1.2,0,1.6-.7.4,1.1-5.6-1.9-4.6c-3,1-4.3,3-4.3,3,0,0-.4-1.8-1.5-1.1s-4.4,2.1-4.8,2.6-.8,1.4-.8,1.4c0,0,1.9-1.2-.5-2s-10.3,1.6-10.3,1.6c0,0-2.6-.8-3.4-.9s-2,.4-2,.4l-.6-2h-2.6s.9-2.6,0-2.1-2.3,1-2.3,1c0,0-.4-2.1-.6-2.1s-4-.5-4-.5c0,0,6.1-11.5,7.1-12.8s3.2-15.9,3.2-15.9c0,0,3.4-23.6,17.3-26.8,14-3.1,23.4-3.9,24.6-3.5s13.9,1.9,15.4,1.9,8.6-5.6,8.6-5.6c0,0,5.1-2.9,7.3-2.6s6.4,1.3,6.4,1.3Z"/>
    <path class="cls-2" d="M49,65.9s1.3-2.9,2.1-4.3,3.1-7.7,3.2-8.6c.1-.9,0-7.2,0-7.2,0,0-2.1,5.6-2.6,5.9s-2.7,1.9-2.7,1.9c0,0-3.2,8.5-3.9,9.6s-1.5,2.5-1.5,2.5c0,0,.7,1.5,1.2,2s1,.6,1.9.5,2.3-2.5,2.3-2.5Z"/>
    <path class="cls-7" d="M43.6,65.9s4.8-8.2,4.7-9.2,3.2-11.6,3.7-18.7c.5-7.1,2.5-17.2,9.1-24.1,6.6-6.9,18.7-8.1,25.8-8.8s15.6,2.1,17.8,2.6,6,.7,7,0,5.2-3.8,6.2-4.6,2.4-2.3,5.8-3,7.9.6,11.1,1.6,4.7,2.4,4.7,2.4c-.9,0-5.7-1.2-7.4-1.7s-2.9-.7-4.6-.8-5.7.7-9.1,3.7c-3.4,2.9-3.6,3.8-6.1,4.2s-11.1.2-15.6,0-18.9.5-27.2,5.4c-8.2,4.9-10.3,8.2-11.8,12.2-1.5,4-1.7,12-2.1,14.4-.4,2.4-1.7,6.9-2.1,8.2s-2.4,7.4-2.9,6.8-.8-2.9-.8-2.9l-6.2,12.1Z"/>
    <path class="cls-1" d="M137,5.6s.8-.2,1.9.6.9,1.9.4,1.9-2-.8-2.3-1.3,0-1.2,0-1.2Z"/>
    <path class="cls-9" d="M148.1,10s2.2,1.1,2.3,2-.8,1.9-1.1,2.7-1.1,1.1-1.1,1.1c0,0-.2-1.9-.4-2.9s.4-2.9.4-2.9Z"/>
    <path class="cls-6" d="M124.1,25s1.7-2.3,1.1-1.1.8,1.2,1.5,1.4,2.2,0,2.2-.3c0-.8.2,1.8.9,1.6s1.6-1.8,1.9-1.6l-.4,2.5s-.2.5-.2,2.5c0,.5-.6-.6-.8,0s-.6,1.2-.8,1.8c-.2.9-.5,1.2-.5,1.2,0,0,.5-2.4-.6-2.9s-2.9,1.8-3,1.5c-.3-.7,2.2-2.1,1.5-2.5s-3.5,1.8-3.8,1.4c-.5-.6,2.6-1.7,1.9-2.1s-3.2,0-3.5-.1,3-1,2.3-1.3c-1.4-.4-3.7-.3-3.8-.7s2,0,2.6-.2c1.1-.3,1.1-1,1.4-1.1Z"/>
    <path class="cls-2" d="M100.1,27.1s-9.7-.3-10,0,0,1.1,1.4,1.2,8.5,0,8.6-1.2Z"/>
    <path class="cls-2" d="M89.3,34s8.9-4.2,10.8-4.6,7.2-2.1,6.3-1c-1,1.1-4.1,3.1-4.1,3.1,0,0,4.2-.7,3.5-.4s-4.8,2.8-5.1,3-1.9,2.1-.6,1.5,3.7-1.7,3.1-.8-4.9,4.8-5.3,5-.3-.8,0-1.7-.6-2.1-1.4-1.8-1.8-1.1-1-1.9-.7-1.2-2.5-.4-4.5.5-3.7.1Z"/>
    <path class="cls-2" d="M94.2,40.3s.4,8.4,0,10.1-2.8,6.9-3.3,7.5-1,3.7-1,3.7c0,0,3.2-5.2,3.2-3.9s-1,3.9-1,3.9c0,0,4.8-6.1,5.6-7.3s1-2.8,2.3-2.6.9,2.8.9,2.8c0,0,1-.9,1.4-1.6s.6-1.9,1.5-1.6,0,2.5.9,2,1.9-1.1,2.3-1.4.4-3,1.3-2.1c.9.9-1.1,2.7.5,2.5s1.9-1.9,2.3-1.4-1.1,1.7,0,1.7,2.1-.7,2.7-1.7,1.2-2.5,1.5-1.5.5,1.6,1.1,1,1.3-2.9,2.2-3.1,1.4,0,1.8.6,1.8.4,2-.6c.2-1,.7-1.5,1-1.1s1.2-1.4,1.2-1.4c0,0,1.7-1.9,1.1-1.8s-3.8,3.1-4.1,3.1,1.3-2.2,1.9-2.7,1.6-2.8.5-2-7.1,5.5-7.1,4.9,3.4-4.8,2.8-4.9-5.5,5.9-6.1,5.9-1-2.1-.5-2.6,2.3-5.3,1-3.9-2.5,3.9-3.3,4.9c-.8,1.1-.9,1.9-1.5,2.6s-1.7.1-1.6-1,4-9.6,2.5-8.5-3.2,4.7-3.9,4.7,1.5-2.8,1.5-3.4,2.3-6,.9-4c-1.4,2-3.1,2.7-4.1,4.7s-2.4,5.5-2.8,5.7-.5-3-.2-4.2,3.3-5.5,2.3-4.9-3.9,4.7-4.5,5.4-1.8,0-2.2-.6-3.1-1.9-3.1-1.9Z"/>
    <path class="cls-2" d="M55.7,71.1s5.8-4.9,6.7-5.2,9.9-11,9.9-9.5-4.9,8.3-4.4,8.6,4.7-4.9,4.8-3.4-1.1,4.2-.7,4.7.8,1.2,0,1.8-2.6,1.6-2.6,2.4-1.5.9-1.9.7-3.9.2-4.6.6-4.4,1.1-4.8,1.6-2.4,0-2.4,0v-2.2Z"/>
    <path class="cls-2" d="M52.2,67.1s6.3-7.3,6.4-6-1.2,2.6-1.9,3.4-2.9,2.7-3,3.4-.3,1.7-.7,1.6-.9-2.4-.9-2.4Z"/>
    <path class="cls-2" d="M77,69.5s.6-2.9,1.5-3.6,4.9-7.2,5.2-5.3c.4,1.9-.6,3.2-1.2,3.9s-1.6,1.5-1.2,2c.4.5,0,1.9,0,1.9,0,0-1.1-1.2-1.9,0s-2.5,1.1-2.5,1.1Z"/>
    <path class="cls-7" d="M129,5.2s-1.4-1.5-1.7-1.8-.6-.5-1-1-1.3-1-1.6-.9-1.5-.4-1.5-.4l.5,2.5,2.7,1.6,2.1.8.5-.8Z"/>
    <path class="cls-1" d="M128.5,6s-2.2-2.7-4.2-4.4-3.2.7-2.5,2.2.6,2.8.6,4-.7,2.3-.7,2.3c0,0,1.7-2.3,2.1-2.2s1.3,0,1.4,0c0,0-.4-.4,0-.6s1.5-.4,1.7-.6c.3-.4-.2-.5.3-.5,1.1,0,1.5-.1,1.5-.1Z"/>
  </g>
  <path class="cls-6" d="M111.3,15.1s3-.8,3.8-1.8c.7-1,2.3-2.5,2.3-2.5l-.9,3.1s1.2-.6,1.7-1,1.7-2.6,1.7-2.6c0,0-2.2,4-1.4,4.4s2.2-.6,2.2-.6c0,0-2.6,2.9-1.5,2.6s2.2-1,2.2-1c0,0-3.5,3.1-2.6,3s1.8.6,1.8.6c0,0-2.3-.9-3,0-.7.9-1.1,2.7-1.1,2.7,0,0,.5-3.1-.9-2.6s-5.7,1.4-5.7,1.4c0,0,6.2-3.7,5-3.6s-5.9-.2-5.9-.2c0,0,9-1.5,8-1.4-3.1.2-5.5-.6-5.5-.6Z"/>
  <path class="cls-5" d="M130.4,10.7s-1.6.9-2.4,2.4-1.4,2.9-1.4,2.9c0,0,1.8-1.4,1.9-1.3s-.9,2.6-.9,2.6c0,0,2.7-2.2,2.3-1.3s-1.3,2.9-1.3,2.9c0,0,.7,2,.7,1.1s.7-2.7,1.2-1.9,0,3.7,0,3.7l1.3-1.7.5,2.1s.5-2.6.7-3.2,1.8-1.6,1.6-.8,0,1.2,0,1.2c0,0,.4-3.3.7-3.5s1.7-.5.3-.2-3.3,1.1-3.4.8,1-2.4,1.2-2.3.4.1-.2,0-1-.4-.6-1,1.6-2.5.4-1.4-1.5,2.7-1.7,1.4,1-3.3,1-3.3l-1.8.8Z"/>
</svg>