<?xml version="1.0" encoding="UTF-8"?><svg id="Complications" xmlns="http://www.w3.org/2000/svg" viewBox="0 0 32 32"><defs><style>.cls-1{fill:#fff;}.cls-2{fill:#d99898;}.cls-3{fill:#b37c7c;}.cls-4{fill:#c98c8c;}</style></defs><g id="ic_pneumonia"><path class="cls-1" d="M15.27,2.53s-.27,1.68-.33,3.46c-.05,1.44,.11,2.95,.21,3.64,.23,1.53,.1,1.72-.37,2.08,0,0,.5,1.07,.45,1.53,0,0,.38-.34,.49-.43s.34-.35,.84-.1l.51,.26s0-.49,.34-1.43c0,0-1.09-.44-1.01-3.7,.07-2.53,.06-4.39,0-5.24,0,0-.33,.06-.59,.05s-.54-.12-.54-.12Z"/><g><path class="cls-2" d="M4.4,29.64c-1.53,0-1.84-1-1.85-1.05h0s-1-1.48-1.41-5.75c-.41-4.29,1.91-9.87,2-10.11,.16-.37,3.85-9.07,7.24-9.07,.63,0,1.19,.24,1.66,.72,1.78,1.82,1.69,6.5,1.69,6.7,1.56,5.01,1.73,8.93,.51,11.6,.04,.72-.13,4.11-1.09,4.85-.91,.52-2.84,1.06-4.43,1.06-.39,0-.74-.03-1.04-.1-1.06,.61-1.74,.9-2.47,1.06-.29,.06-.57,.08-.82,.08Z"/><path class="cls-1" d="M10.38,3.92c3.26,0,3.1,7.17,3.1,7.17,1.83,5.92,1.49,9.48,.5,11.56,.08,.25-.08,4-.99,4.7-.89,.51-2.8,1.01-4.28,1.01-.4,0-.77-.04-1.07-.12-1.1,.64-1.77,.93-2.49,1.08-.29,.05-.54,.08-.76,.08-1.36,0-1.61-.87-1.61-.87,0,0-.99-1.43-1.4-5.71-.41-4.28,1.99-9.99,1.99-9.99,0,0,3.75-8.92,7.01-8.92m0-.5c-3.49,0-7.07,8.28-7.47,9.22-.1,.24-2.44,5.87-2.02,10.23,.38,3.94,1.25,5.56,1.45,5.89,.12,.29,.59,1.14,2.06,1.14,.26,0,.55-.03,.85-.09,.75-.17,1.43-.45,2.47-1.04,.29,.06,.62,.09,.99,.09,1.46,0,3.49-.48,4.52-1.07l.03-.02,.03-.02c1.02-.79,1.23-4.03,1.19-5,1.22-2.71,1.05-6.65-.51-11.73,0-.68-.02-5.02-1.76-6.8-.52-.53-1.14-.8-1.84-.8h0Z"/></g><path class="cls-4" d="M13.49,11.09s.14-1.89-.42-3.91c-.38-1.72-1.07-2.58-1.53-2.88-.89-.62-.6,1.53-.6,1.53,0,0,.37,3.53,2.55,5.26Z"/><g><path class="cls-2" d="M8.82,28.49c-.54,0-.84-.07-.85-.07l-.31-.07,.27-.16c3.51-2.02,4.84-3.56,5.48-4.3,.39-.45,.44-.65,.44-.65l.16-.62,.08,.63c.08,.65-.14,2.16-.48,3.21-.34,1.07-.53,1.12-2.29,1.62l-.19,.05c-1.02,.29-1.83,.35-2.32,.35Z"/><path class="cls-1" d="M13.97,23.26c.08,.63-.14,2.12-.47,3.16-.33,1.04-.45,1.04-2.4,1.6-.97,.28-1.75,.35-2.29,.35s-.83-.07-.83-.07c3.35-1.92,4.7-3.39,5.51-4.33,.42-.49,.47-.7,.47-.7m.06-1.47l-.3,1.41s-.08,.21-.42,.6c-.64,.74-1.96,2.27-5.45,4.28l-.55,.31,.61,.15s.33,.08,.89,.08c.5,0,1.32-.06,2.36-.36l.2-.06c1.78-.51,2.01-.57,2.37-1.7,.34-1.07,.57-2.6,.48-3.27l-.19-1.44h0Z"/></g><g><g><path class="cls-2" d="M27.61,29.91c-.25,0-.52-.03-.81-.08-.74-.17-1.42-.45-2.47-1.06-.29,.07-.64,.1-1.03,.1-1.59,0-3.52-.54-4.39-1.04-.99-.76-1.16-4.15-1.12-4.87-1.23-2.67-1.05-6.6,.52-11.68-.02-.12-.1-4.81,1.68-6.62,.47-.48,1.03-.72,1.66-.72,3.38,0,7.07,8.7,7.22,9.07,.1,.24,2.41,5.81,2,10.11-.41,4.3-1.4,5.76-1.44,5.83h0s-.3,.97-1.81,.97Z"/><path class="cls-1" d="M21.64,4.18c3.26,0,6.99,8.92,6.99,8.92,0,0,2.39,5.71,1.98,9.99-.41,4.28-1.4,5.71-1.4,5.71,0,0-.24,.87-1.61,.87-.22,0-.47-.02-.76-.08-.71-.16-1.38-.45-2.48-1.08-.31,.08-.67,.12-1.07,.12-1.48,0-3.38-.5-4.27-1.01-.9-.7-1.06-4.45-.99-4.7-.98-2.08-1.33-5.64,.5-11.56,0,0-.16-7.17,3.09-7.17m0-.5c-.7,0-1.32,.27-1.84,.8-1.74,1.78-1.77,6.12-1.76,6.8-1.56,5.07-1.73,9.02-.51,11.73-.04,.96,.17,4.21,1.18,5l.03,.02,.03,.02c1.04,.59,3.06,1.07,4.52,1.07,.37,0,.7-.03,.99-.09,1.04,.59,1.71,.88,2.45,1.04,.32,.06,.6,.09,.87,.09,1.46,0,1.94-.86,2.06-1.14,.2-.32,1.07-1.94,1.45-5.88,.41-4.35-1.92-9.99-2.02-10.23-.4-.94-3.97-9.22-7.46-9.22h0Z"/></g><g><path class="cls-2" d="M23.73,28.9c-.53,0-1.61-.06-2.92-.43l-.2-.06c-1.76-.5-1.94-.55-2.28-1.62-.33-1.02-.76-3.09-.67-3.75,0-.05,.05-.1,.1-.11,0,0,.02,0,.03,0,.04,0,.08,.02,.11,.06,0,0,.43,.7,.84,1.18,.77,.9,2.21,2.56,5.54,4.48,.05,.03,.07,.08,.06,.13-.01,.05-.05,.09-.11,.1,0,0-.17,.02-.49,.02Z"/><path class="cls-1" d="M17.78,23.06s.43,.7,.86,1.19c.81,.94,2.23,2.59,5.57,4.51,0,0-.17,.02-.48,.02-.57,0-1.62-.06-2.89-.43-1.95-.56-2.06-.56-2.39-1.6-.33-1.04-.75-3.07-.67-3.7m0-.25s-.04,0-.05,0c-.1,.02-.18,.11-.2,.21-.09,.69,.34,2.75,.68,3.8,.36,1.13,.59,1.2,2.37,1.7l.2,.06c1.26,.36,2.3,.44,2.96,.44,.32,0,.5-.02,.5-.02,.11-.01,.2-.09,.22-.2,.02-.11-.03-.21-.12-.27-3.32-1.91-4.74-3.56-5.51-4.45-.4-.47-.83-1.15-.83-1.16-.05-.07-.13-.12-.21-.12h0Z"/></g></g><path class="cls-4" d="M18.57,11.34s-.14-1.89,.42-3.91c.38-1.72,1.07-2.58,1.53-2.88,.89-.62,.6,1.53,.6,1.53,0,0-.37,3.53-2.55,5.26Z"/><path class="cls-4" d="M10.05,26.64c1.27-.93,2.42-1.92,3.06-2.65,.99-1.13,1.83-3.09,1.66-6.38-.09-1.77-11.66-4.12-12.01-3.09-.44,1.31-1,3.24-1.26,5.2,0,0,1.39,2.6,3.72,4.4,2.93,2.28,4.84,2.52,4.84,2.52Z"/><path class="cls-3" d="M1.49,19.73c-.14,1.05-.19,2.11-.1,3.09,.41,4.28,1.4,5.71,1.4,5.71,0,0,.33,1.17,2.37,.79,1.18-.22,3.14-1.39,4.88-2.66,0,0-2.32-.5-4.83-2.53-2.51-2.03-3.72-4.39-3.72-4.39Z"/></g></svg>