<?xml version="1.0" encoding="utf-8"?>
<!-- Generator: Adobe Illustrator 27.9.0, SVG Export Plug-In . SVG Version: 6.00 Build 0)  -->
<svg version="1.1" id="Where_is_found" xmlns="http://www.w3.org/2000/svg" xmlns:xlink="http://www.w3.org/1999/xlink" x="0px"
	 y="0px" viewBox="0 0 32 32" style="enable-background:new 0 0 32 32;" xml:space="preserve">
<style type="text/css">
	.st0{fill:#FFFFFF;}
	.st1{fill:#A2A6AA;}
	.st2{fill:none;stroke:#FFFFFF;stroke-width:0.1825;stroke-miterlimit:10;}
	.st3{fill:#CF7E53;}
	.st4{fill:#96452C;}
</style>
<g id="ic_pets_2">
	<g id="Raggruppa_31">
		<g id="Raggruppa_30">
			<path id="Tracciato_235" class="st0" d="M10.1,18.5c0,0,6,2.1,8.6,1.7C18.7,20.1,15.8,17.5,10.1,18.5"/>
			<path id="Tracciato_236" class="st1" d="M20.8,20.5c0,0,0.4,6.8,0.6,6.9s1.9,0,1.9,0s0.4-0.9-0.6-1.2c0,0-0.2-2.5,0.1-4.4
				c0.3-1.9,1.1-4.1,0.5-4.3C22.8,17.3,20.8,20.5,20.8,20.5"/>
			<path id="Tracciato_237" class="st2" d="M20.8,20.5c0,0,0.4,6.8,0.6,6.9s1.9,0,1.9,0s0.4-0.9-0.6-1.2c0,0-0.2-2.5,0.1-4.4
				c0.3-1.9,1.1-4.1,0.5-4.3C22.8,17.3,20.8,20.5,20.8,20.5L20.8,20.5z"/>
			<path id="Tracciato_238" class="st1" d="M5.2,22l4.6-4.2l0.3,0.7h1.2c0,0-2.9,3.4-4,4.3c0,0-0.9,0.9-1,1.5s-0.1,2,0.2,2
				s0.8,0.7,0.5,1H5.3c-0.1,0-0.2-0.1-0.2-0.2C5,26.4,4.6,23.3,4.9,23c0.2-0.2,0.2-0.6,0.2-0.8C5.1,22.1,5.1,22,5.2,22"/>
			<path id="Tracciato_239" class="st2" d="M5.2,22l4.6-4.2l0.3,0.7h1.2c0,0-2.9,3.4-4,4.3c0,0-0.9,0.9-1,1.5s-0.1,2,0.2,2
				s0.8,0.7,0.5,1H5.3c-0.1,0-0.2-0.1-0.2-0.2C5,26.4,4.6,23.3,4.9,23c0.2-0.2,0.2-0.6,0.2-0.8C5.1,22.1,5.1,22,5.2,22L5.2,22z"/>
			<path id="Tracciato_240" class="st0" d="M23.7,17.8c0,0-0.6,1.1-1.5,1.7c-0.9,0.5-1.5,1.5-1.4,2.6c0,0-0.5,3.7-0.4,3.9v0.3
				c0,0,1,0.2,0.7,1.2H19c0,0-0.7-6.6-0.4-7.2h-0.2c0,0-6.8-0.7-7.7-1.4S9,18.9,8,20.1s-3.1,3-3.9,3.7c-0.8,0.6-0.4,2.5-0.4,2.5
				c0.8,0.3,0.5,1.2,0.5,1.2H2.1v-0.3c0,0-0.1-3.3,0-3.7c0-0.4,0.5-0.9,0.5-0.9c0.4-0.3,1.2-2,1.2-2l1.1-4.1c0-0.3,0.2-0.7,0.3-1
				c1.2-2.1,0.9-1.8,0.3-5.9S5.9,4,6.8,3.8c1.1-0.1,0.6,1.1,0.6,1.1S7.3,5.2,7.1,8.4c-0.2,3.2,1,3.5,1,3.5c2.7,0.6,7.2-0.1,9.5-0.6
				c1.1-0.3,2.1-1.2,2.8-2.1c0.7-0.9,1.1-1.4,1.1-1.4C21.9,7,22.3,6.2,23,5.9l0,0c0,0,0.1,0,0.2-0.1h0.1c0.7-0.1,2.2-0.3,3.2,0.5
				c0.1,0.2,0.3,0.3,0.4,0.5c0.2,0.3,0.4,0.4,0.7,0.5c0.6,0.1,1.2,0.2,1.9,0.3c0,0,0.7,0-0.3,2.2c-0.3,0.6-1.5,1-2.5,0.9
				C25.7,10.5,25,12,25,12l-0.8,3l0,0c0,0.1,0,0.3,0,0.4c0,0.5-0.1,1-0.3,1.5V17C23.9,17.2,23.8,17.5,23.7,17.8L23.7,17.8"/>
			<path id="Tracciato_241" class="st3" d="M26.8,7.4c0.2-0.8-0.4-1.5-2.4-1.5c-0.7,0-1.3,0.3-1.8,0.7l-0.1,0.1l-0.1,0.1
				c0,0.1-0.7,1-0.8,1.4c-0.1,0.2,0,0.5,0.1,0.6c0.7,0.6,2.5,2.1,3.6,1.6c1.2-0.6,1.1-0.4,1.1-1.7c0-0.2,0.2-0.6,0.4-0.9
				C26.7,7.8,26.8,7.4,26.8,7.4"/>
			<path id="Tracciato_242" class="st0" d="M6.5,4c0,0,1.1-0.6,0.9,0.5c-0.2,1-0.3,2.6-0.3,5C7,11.9,5.5,9.9,5.5,9.9S4.9,4.8,6.5,4"
				/>
			<path id="Tracciato_243" class="st3" d="M6,9.6l0.8-0.3c0.1,0-0.1,2,1.1,3c1.5,1.2,10.2-1,12.1-1.1c0.3,0,0.6,0.1,0.8,0.2
				c0.9,0.4,2.6,1.6,1.9,4.2c0,0,0.3,2.4-1.2,3.7c-0.2,0.2-0.4,0.5-0.6,0.8c-0.1,0.1-0.2,0.3-0.2,0.5c-0.1,1.3-1.7,1.3-1.8,0.5
				c-0.1-0.4-0.1-0.9-0.8-1.1c-1.6-0.4-3.3-1.8-5.3-1.8c-1.5,0-2.7-0.1-3.9,0.7c-0.4,0.3-1,1-1.3,0.9c-0.9-0.1-2.3-1-2.4-3
				c0,0,0-1.3,0.7-2.1c0.2-0.3,0.3-0.7,0.4-1.1c0-0.6,0-1.1-0.1-1.7c-0.2-1-0.3-1.6-0.4-2C5.8,9.8,5.9,9.6,6,9.6"/>
			<path id="Tracciato_244" d="M7.9,12.3c0,0.2,0,0.6,0.8,1.6c0.3,0.3,0.5,0.7,0.7,1c0.4,0.7,1.1,1.9,1.9,2.5
				c1.2,0.8,6.4,2.3,7.2,0.8c0.8-1.5,0-2.6,0.2-3.5c0.3-0.9,1.2-2,1.7-2.3s0.8-1.2-1.4-1.5c0,0-1.9,0.8-4.8,1.3
				C11.2,12.7,8.9,12.5,7.9,12.3C8,12.2,7.9,12.2,7.9,12.3L7.9,12.3"/>
			<path id="Tracciato_245" class="st4" d="M24.4,9.3c0.9,3.2-1.2,2.3-1.6,2.2c-0.8-0.1-1.2-1.4-1.2-2.2c0-1.2,1.4-3,2-2.6
				C24.6,7.3,24.2,8.6,24.4,9.3"/>
			<path id="Tracciato_246" d="M26.3,7.3c0,0.2-0.1,0.3-0.3,0.3c-0.1,0-0.3-0.1-0.3-0.3C25.7,7.2,25.8,7,26,7
				C26.2,7,26.3,7.1,26.3,7.3"/>
			<path id="Tracciato_247" class="st0" d="M19.8,23.7c0,0,0.7-0.1,0.6,0.5s-0.1,2,0.2,2s0.7,0.7,0.4,1.1h-1.9c0,0-0.5-4-0.2-4.4
				C19.2,22.6,19.8,23.7,19.8,23.7"/>
			<path id="Tracciato_248" class="st1" d="M22,23.7c0,0,0.5-0.1,0.4,0.5s-0.1,1.9,0.1,1.9c0,0,0.8,0.6,0.6,0.9l-1.6,0.1
				c0,0-0.4-3.9-0.2-4.2C21.5,22.7,22,23.7,22,23.7"/>
			<path id="Tracciato_249" d="M29.7,8c0,0.3-0.1,0.8-0.4,0.8S29,8.7,29,8.4s-0.3-0.7,0-0.7S29.7,7.7,29.7,8"/>
		</g>
	</g>
</g>
</svg>
