<?xml version="1.0" encoding="UTF-8"?>
<svg id="Livello_1" data-name="Livello 1" xmlns="http://www.w3.org/2000/svg" version="1.1" viewBox="0 0 261.2 283.5">
  <defs>
    <style>
      .cls-1 {
        fill: #1b1b19;
      }

      .cls-1, .cls-2, .cls-3, .cls-4, .cls-5, .cls-6, .cls-7, .cls-8, .cls-9, .cls-10, .cls-11, .cls-12, .cls-13, .cls-14, .cls-15, .cls-16, .cls-17, .cls-18, .cls-19 {
        stroke-width: 0px;
      }

      .cls-2 {
        fill: #d3d3d1;
      }

      .cls-3 {
        fill: #9e8774;
      }

      .cls-4 {
        fill: #d3c0ab;
      }

      .cls-5 {
        fill: #969695;
      }

      .cls-6 {
        fill: #1a1a1a;
      }

      .cls-7 {
        fill: #f2ebdf;
      }

      .cls-8 {
        fill: #c6ae92;
      }

      .cls-9 {
        fill: #000;
      }

      .cls-10 {
        fill: #faf9f7;
      }

      .cls-11 {
        fill: #3f3f3f;
      }

      .cls-12 {
        fill: #f9f9f7;
      }

      .cls-13 {
        fill: #e7d6c1;
      }

      .cls-14 {
        fill: #684913;
      }

      .cls-15 {
        fill: #af9882;
      }

      .cls-16 {
        fill: #303030;
      }

      .cls-17 {
        fill: #70706f;
      }

      .cls-18 {
        fill: #c9c8c7;
      }

      .cls-19 {
        fill: #fff;
      }
    </style>
  </defs>
  <path class="cls-7" d="M34.4,257.5s-2.7-.6-3.5-2.7-1.5-9.3-1.5-9.3c0,0-1.8-11.8-1.2-13.2.6-1.4,3-13.5,3-13.5l3.2-7.4,1.8-4.2,10.7-13.5,7.1-11.2,2.2-5.1h-.5c0-.1-1.6-4.9-1.6-4.9l-23.2,32.8-6.7,13.6s0,7.8-.8,8.7c-.8.9-4.7,6.7-4.9,7.7s-1.8,9.4-1.8,9.4v6.1c-.1,0-.5,9.5-.5,10.2s.7,8.3,1.1,8.8,4.9,2.6,6.2,2.9,5.4,1.2,6.6,1.3,5.8.2,6.9,0,3.5-1.7,3.8-2.6,1-5.9,0-7.2-4.6-5.9-6.4-6.6Z"/>
  <path class="cls-7" d="M70,137.4l11.1-5.1,11.3,3.6,8.2,6.1,2.4,7.7s-2.1,6.6-1.7,7.5c.4.9,1,1.4,0,2.3s-1.2,2.8-1.2,2.8l-.9.8s-1.3-3.8-2-4.9c-.8-1.1-.9-1-1.4.7-.4,1.7-1.1,5.7-1.6,6.2s-.4-1.5-.3-2.4.5-4.8.5-4.8c0,0-.6.6-2.2,3.2-1.6,2.6-3.9,6.6-3.9,6.6,0,0,.7-5.3.3-5.9s-1.9-.9-2-.2-1.1,4.6-1.1,4.6l-1.3-2.3-1.4,6.5-2.6-3.9-2.9.3-4.8,7.4-5.6,3.1-6.3,4.7-3.8,3-1-7.8-1.8-3.6,2.8-19,13.2-17.2Z"/>
  <path class="cls-8" d="M75,164.7s.6-7.2,1.6-6.7-.1-4.9,1-4.2c1.1.7,2.4,12.8,2.4,12.8l-2.5,4.2-2.5-6.1Z"/>
  <path class="cls-8" d="M70.8,166.9s-3.2-11.8-1.8-10.9,4.7,4.3,4.5,5.4,0,4.8,0,4.8l-2.7.7Z"/>
  <path class="cls-8" d="M85.5,169.4s-.1-5.9,1-7.6c1.2-1.8,2.1-2.2,2.1-1.6s-1.6,8.2-1.6,8.2c0,0-1.6,2.6-1.5,1Z"/>
  <path class="cls-13" d="M140.5,194.4s5.2-2.8,8.1-7.8,3.6-6.5,3.6-6.5l7.7-2.7,5.1,13.3.8,10.5s-1.1,4.6-3,5.3c-1.9.6-4.5,1.1-7.4,0-2.8-1.1-8.5-.6-9.3,0s-1.9.6-1.9.6c0,0,3.6-2.3,2.5-2.6s-5.3,1.4-5.3,1.4c0,0,5.8-4.8,8-5.5s4.5-1.6.9-1.7-11.4,1.5-11.4,1.5c0,0,2.3-2.7,4.1-3.1s5.6-2.5,5-2.7-4,1-4,1c0,0,8.5-8.4,6.6-7.6s-10.1,6.7-10.1,6.7Z"/>
  <path class="cls-4" d="M164.9,255.3s-.8,4.1-.9,4.6-1.2,2-1.2,2c0,0,1.4-6.4.6-6.6s-3.2,4-3.8,4.2,2.4-4.3,2.6-5.6c.3-1.3,1.3-9.3,1.3-9.3,0,0-1.5,2.8-3.5,4.7-1.9,1.8-3.3,2.5-3.3,2.5,0,0,2.8-2.8,3.6-3.9s1.8-3.7,1.5-3.3-1.4,1.3-1.6,1.9-.6,1.2-.6,1.2c0,0,.3-2.9.8-3.8.5-.9.9-2.5.9-2.5l3-5.6s1-.5,1,0c0,.5-.6,17.5-.6,17.5v2.1Z"/>
  <path class="cls-7" d="M161.9,217.5s4-5.6,5.5-5,9.3,5.9,9.8,8.1c.5,2.2,1.1,21.1,1.6,23.4.4,2.3,2.8,14.2,3.3,15.4.5,1.1,2.6,5.7,3.2,6.1s3.8,2,4.5,3.3,3,5.6,3.8,6.9c.8,1.3.9,5.1-.5,5.6-1.4.6-7.8.2-7.8.2h-7.3c0,.1-9.5,0-10.1-3.7-.3-1.8.5-2.8.5-2.8l-1-16.2v-5.3s-1.1,1.6-1.9,2.6c-.8,1-1.7,1.8-2.4,2s-2.1.9-.7.2,1.7-3.3,1.8-4.1.1-11.5.1-12.4.1-5.1.1-5.1c0,0-3,4.7-3.4,5s.5-.3.5-.3l-3.3,3.2,2.1-5.5-3.3,1.6-4.1-.6,4-3.1-.9-1.3s2.2-.9,2.7-1.7c.6-.8-.3-4.3-.3-4.3l4.5-6.3-.9-6Z"/>
  <path class="cls-8" d="M177.2,268.2s3.6-.7,4.5-1,3-.6,3-.6l.6-1.1,2.1,2.2s.6,1.4.8,2.1,3.3,7.7,3.3,7.7l-1,1.2s-.8-2-1.2-3.3-2.6-4.9-5.1-5.3-8.5-.8-6.8-1.8Z"/>
  <path class="cls-7" d="M146.6,209.6s7.5-1.6,8.9-1.9,17.8-6.4,17.8-5.8-9.3,14.1-9.2,16.1c0,2-1.4,6-2.7,8.6s-3.1,3.1-3.1,3.1c0,0-3.8-1.2-5.3-1.1s-4.1.2-4.1.2c0,0,3.1-1.8,5.5-2.2s5.4,0,5.5-.8c0-.7-2-2.1-3.2-2.2s-5.3,0-5.3,0c0,0,5.4-1.3,7-1.3s1.8.7,1.6,0-4.9-2.6-5.7-2.7c0,0,2.5.2,3.5.5s2.6,2.2,2.7,1.4-1.7-3.8-4.3-4.5c-2.6-.7-4.8-.9-4.8-.9,0,0,2.6-1.2,3.6-1.4s1.9-1,.6-1.2-3.5-.5-6.3,0-6.3,1.2-6.3,1.2c0,0,3.6-2.3,4.8-2.9s2.8-1.4,2.5-1.7-3.6-.5-3.6-.5Z"/>
  <path class="cls-8" d="M175.8,280.3s-5.4-1.1-6.1-4.6c-.7-3.5-1.3-19.3-1.3-19.3,0,0,0-4-.4-4s-2,2.8-2,2.8c0,0,.4,1.7.3,2.6,0,.9.9,11.2,1,12.3s.9,4.7,1,5.6c.1.8.7,2.9,1.2,3.4s2.1,1.5,2.9,1.7,3.3.4,3.3.4v-.9Z"/>
  <path class="cls-7" d="M241.5,78.1s.9,19.3,1.9,22.4c0,0,1.6,5,1.8,5.8.2.8-1.1-4.2-1.9-3.3-.7,1,.4,5.8,0,8s-.9-1.4-.9-2.3-2.5,8-2.2,8.7-1.1,2,0,5.1c1.1,3.2,1.2,6,1.2,6,0,0-1.1-6.9-2.3-7s-1.2,3.4-1.2,3.4c0,0,2,5.3,1.8,6s-1.1-1.7-2.5-2.5-3.3-.4-4.2,0c0,0,2.4,1.5,2.2,3.5,0,0-.8-2.7-3.4-3.2l.7,3.2s-3-3-5.5-2.6,1.7,7.3,1.7,7.3c0,0-2.8-5.2-3.1-4.1s.5,7.4.5,7.4c0,0-.9-4.8-1.1-3.4-.2,1.5,1.8,7.1,1.8,7.1,0,0-1.3-1.8-1.8-1.4s-2.1,8.1-2.1,8.1c0,0-.2-4.8-.9-2.8-.7,2-6.2,7.5-6.2,7.5l-3.7,10.9s.7-3.6-.9-4.2-2.2,7.4-2.2,7.4c0,0,1.1-1.7-.7-2.3s-2.9,1.1-2.9,1.1l-20.3.7-12.5-6.9,2.5-29.8,17.5-12.7-8.6-21.1.9-25.6,5.5-4.9,9.8-1.9,2.2,1.4s-.7,3.2.4,5.1,16.7,5.8,16.7,5.8l9.4-6.7,4.5-4.5,8.1,11.1Z"/>
  <path class="cls-8" d="M102.9,149.7s.7,14.1,2.2,18.1c1.5,4-1.1,7-1.1,7l8.2-7.7s4.6,5.4,2.7,7c-1.8,1.6,1.4,3.2,1.4,3.2l6.3-7.8-3,12s19.5-12.2,19.4-9.1-5.3,10.6-5.3,10.6c0,0,5.7-6.1,6.6-4.8.9,1.4-3.4,10.5-3.4,10.5,0,0,4.4-5.7,6.2-3.8s-2.1,6-2.1,6l16-13.6,1.8-13.7-7.3-7.7-22.1-5-26.3-1.3Z"/>
  <path class="cls-7" d="M190,226.2l7.5-14.4s1,16.7,1.1,17.9c.2,1.2,1.4,12.1,1.6,12.7s2.4,8.2,3.2,9.3,2.6,3.2,2.6,3.2c0,0-.8.7-.7,1s2.6,1.6,3.8,1.5,4.1-1.3,4.7-1,2-.5,3.1,0,4.4,2.7,5.8,5.5c1.4,2.8.4,9-1.1,8.6s-14.9,0-14.9,0c0,0-3.1-.5-4-1s-2.4-1.7-3.1-2.7-3.4-.5-5.4-2c-2-1.5-4.2-10.4-4.2-10.4l-1.4-18.7,1.4-9.4Z"/>
  <path class="cls-13" d="M181.1,193.4s.5,7.8,0,9.7c-.5,1.9-1.6,7.2-1.9,8.7s-.4,3-.4,3c0,0,1.6-4.1,2-3.2.4.9-1.3,8.3-1.3,8.3,0,0,1.2-2.9,1.8-2.3s-1.4,3.2-1.3,3.9,0,2.4,0,3.2-.4,3.2-.6,3.7c-.3.5,2.1-1.3,2.9-2s2.1-2.6,2-1.5c-.2,1.1-4.9,7.2-5.5,8.1s0,2.3,0,2.3c0,0,2.4-3.8,2.6-3.3s-.4,3.1-.7,3.7-.8,4.5-.8,4.5c0,0,3.9-4.9,4.4-4.4s-1.7,4-1.9,4.4,0,5.5.3,7c.2,1.5.5,2.1,1.2,1.3s2.6-5.6,2.6-5.6c0,0,.6,2.3,0,4.3s-.5,3.7-.5,3.7c0,0,.8-2.6,1.3-2.4s2.7,6,2.7,6l1.4-1.2s.5-8.9-.5-12.1c-1-3.2-2.2-6.7-1.1-8.1s4.9-7.7,5.7-9c.9-1.3.7-4.4,1.2-6.2s-1.1-19.9-1.1-19.9l-1.4-12.8-7.6,6.9-5.5,1.5Z"/>
  <path class="cls-8" d="M191.4,256.4s1.4,2.3,2.8,3.2,4.9,1.8,6.3,2.7,3.5,2.4,3.9,3.6c.4,1.3,1.1,2.5,0,3s-2.8,0-2.8,0l-1.4-2.1-3.5-.9s-1.4-.4-2.6-1.9c-1.1-1.4-2.8-7.6-2.8-7.6Z"/>
  <path class="cls-13" d="M209.3,263.5s-2.7-1.3-3-1.5-1.1-1.5.3-1.5,3.5.9,3.9,2,.5,2,.5,2l-1.6-1Z"/>
  <path class="cls-13" d="M106.1,150.3s4.3-4.8,5.5-3.6,7.3,3.1,7.3,3.1l-4.4,8.9s.7,9.3-3.5,13.8,4.4-21-3.8-18.6-1-3.5-1-3.5Z"/>
  <path class="cls-8" d="M116.8,153.7s2.3,17.5,1,19.5l-1.4,2s1.9-12.4,2.4-13.3c.5-.9,5.8-2.2,5.8-2.2,0,0,.6,10.1,0,12.6-.6,2.5,3.2-5.3,3.2-5.3l2.8-7.3-2.8-4.7-11-1.4Z"/>
  <path class="cls-8" d="M86.5,138.2s4.8,11.7,5.2,13.6,0,4.7,0,4.7c0,0,1.5-1,1.4-2.8s-1.3-6.4-1.3-6.4c0,0,1.9.9,2.2,2.3.2,1.5.6,4.9.6,4.9,0,0,1.4-1.3,1.1-3.1s.6-3.6.7-3.2,2-2.4,2-2.4l-1.9-5.8-3-2.8-6.9.9Z"/>
  <path class="cls-8" d="M202.8,169.4s-2.4-5.1-4.2-6.4c-1.8-1.4-4.9-2.3-5.9-2.5s1.5-.5,2.6,0c1,.5,4.4,2.1,4.8,2.8s3.2,4.1,3.5,3.6-.4-2.9-1.6-3.9-1.4-1.6-1-1.5c1.5.6,3.5,3.8,3.5,3.8l.9,3-2.6,1.2Z"/>
  <path class="cls-13" d="M181.6,164.6s3.4-2.6,6-2.6c2.6,0,5.7.2,8.4,1.3,2.7,1.1,4.4,2.8,4.4,2.8l2,2v5.9l-6.6,1.8-14.3-11.3Z"/>
  <path class="cls-8" d="M195,168.5s.7-.8,1.8-.9,1.7-.4,2.6.4,1.4,2.4,1.6,3.4c.2,1,0,4.4,0,4.4l-6-7.4Z"/>
  <path class="cls-13" d="M177,164s7-6.5,6.8-5.7-3.8,4.3-4,4.8,6.5-3.8,8.9-3.8.5.8,0,1c0,0-1.4-.2-2.7.8-1.4.9-7.6,3.4-7.6,3.4l-1.4-.6Z"/>
  <path class="cls-13" d="M204.9,166.9s.6-2.2,0-4-3.3-5.5-5.1-6.1-4.5-2.4-4.5-2.4c0,0,5.1,1.4,7.2,3,2.1,1.6,2.6,4.1,2.9,3.7s-1.8-4.2-3.8-6.4c-1.6-1.8-3.1-2.7-4.1-3.2s-1.8-.9-1.2-.9,4.6,1.7,5.6,2.5c3.4,2.7,3.9,6.3,4.5,6.1s0-1.4,0-1.7-1.6-2.8-2.2-3.4.3-.3,1.1.2,3.6,2.6,4,3.2,1.1,2.6,1.1,1.7-.4-2.7-1.1-3.4-2-3-3.6-4,0-.4.6,0,4,2.2,5.4,4.2c1.4,2,.9,5.3.8,5.8s-3,3.9-3,3.9l-2.6,2.5-2.1-1.4Z"/>
  <path class="cls-13" d="M205,127.5s1.3,5.6,3.5,9c2.3,3.4,4.1,5.6,6,6.6s4,1.3,3.4,1.6-3.3,1.8-9.4-.6-9.7-6.3-11.2-7.6c-1.5-1.3-2.6-3.7-2.6-4.3,0-.6,1.1-4.7,1.1-4.7,0,0,.5-2.4,2.7-2.6s6.4,2.6,6.4,2.6Z"/>
  <path class="cls-13" d="M198.6,141.9s-3.2-3.4-3.8-5.2-1.2-8.6-1.2-8.6c0,0-1.4,3.2-1.6,3.7s-.2,4.2-.2,4.2c0,0,1.3,2.1,2.6,3.2s2.8,2.4,4.2,2.7Z"/>
  <path class="cls-8" d="M206.8,115.7s1.6,0,2.2-1.3.5-3.4.7-3.2,1.3,3.9.5,5.7c-.8,1.9-1.6,3.4-2.8,3.9s-3.7.8-3.3,1.1,3,.3,3.5,0,.7-.3,1.1-.8,1.2-1.7,1.3-1.4c.2.5-1.2,2-1.2,2,0,0,4,0,5.6-.3,1.6-.4,5.1-1.6,6.9-4.3,1.7-2.6,2.3-6,2.4-5.5,0,.5.8,5.7,1.3,6.7.5,1,2.6,2.9,3.9,3.7s2.6,1.1,2.4.6-1.5-1.9-1.7-2.5-.9-3.4-.4-2.4,3.8,5.2,4.5,5.8,3.6,3.8,3.5,3.1-2-4.2-2.2-4.8-.7-2.6-.4-2.1,2.7,6.5,3.2,7.2c.5.7,1.5,1.4,1.6,1.8s0,.5-.3.3-2.7-2.7-4.7-3.8-3.4-1.4-5.1-1.3-3.6.1-3.2.4,4,1.1,5.5,1.5,3,1.8,2.9,2-1.9-.9-2.6-1.3c-.7-.4-3.6-1-4.2-1.1s-1.9-.4-1.6,0,2.9,2.8,3.1,3,.6,1.2,0,.8-3.2-2.9-4.9-4c-1.7-1-3.8-.9-4.6-.9s-2.1-.1-1.8.2,3.4,2.3,4.1,2.7,1.1.9.7.9-2-.9-3.7-1.1-5.5-.6-5.5-.2,3.9,3,6.1,4.7,3.2,3.1,2.9,3.1-2.7-2.8-5.8-4.3-7.1-2.6-8.3-3.4c-1.2-.8-4.7-1.9-5.7-3s-2.2-6.6-2.2-6.9,1.2-1.9,1.2-1.9l-.5-6.3-.9-4.6.2-.9s3.1,3.6,4.4,4.7c1.3,1.1,2.6,2.5,3,3.5s.5,2.1.2,2.8c-.4,1-1.2,1.6-1.2,1.6Z"/>
  <g>
    <path class="cls-9" d="M161.8,211.7c3.9-1.1,6.9-3,7.2-7.8-2.9,2-5.9,2.9-9.4,2.3,1.8-1.1,3.5-2.1,3.7-4.7-2.4.1-4.7.2-7.2.3.5-.4.8-.7,1.5-1.2-2.4.5-4.4.8-6.4,1.2,0,0,0-.1,0-.2,1.4-.5,2.8-.9,4.1-1.5,1.3-.6,2.6-1.5,3.7-2.5-1.4.4-2.8.7-4.3,1.1,2.4-1.9,4.4-3.8,5.5-7.1-4,1.7-8.1-1.3-11.8,1.2,4.5-3.8,8-8.2,10.7-13.1-1.6,1-3.4,2.1-5.2,3-2,1.1-4.1.6-6.3-.3,1.7-2.5,3.4-4.9,5.1-7.4-2.5,1.1-4.9,2.1-7.3,3.2,0-.1-.2-.3-.3-.4,3.3-2.1,5.8-5,7-9.2-1,.5-1.8.8-2.6,1.2,1.1-1.7,2.1-3.2,3.1-4.7-.2-.1-.3-.2-.5-.4-1.8,2.7-4.1,4.9-7.4,6.1.6-1,1.4-1.7,1.6-2.6.2-.9.2-2.2-.3-2.8-.4-.5-1.8-.7-2.6-.5-1.5.5-2.9,1.3-4.2,2.2-4.3,3.1-8.5,6.3-12.9,9.4,2.5-2.9,5.1-5.7,6.3-9.6-3.7,4.4-7.5,8.9-11.4,13.5.9-1.9,1.8-3.7,2.5-5.5.7-1.8,1.4-3.6,1.9-5.5.6-1.9,1-3.9,1.4-5.8h-.4c-1.4,1.9-2.9,3.9-4.3,5.9,0,0-.1-.1-.2-.2.7-2.4,1.4-4.9,2-7.3-.2,0-.4-.1-.5-.2-.3.5-.6.9-1.1,1.7,0-1,.1-1.7.2-2.5-1.3,3.5-2.6,6.9-3.8,10.2-.2,0-.3,0-.5-.1,1.5-5.1,1.8-10-1.5-14.6,1.5,6.2.4,12.1-2.2,17.7,1.9-8.2-.8-15.4-4.4-22.5-.1,7-1.1,13.7-3.8,20.2,1.4-5.4-1-9.8-3.2-14.4.1,1.2.2,2.4.3,3.5-1.7-3.7-3.4-7.4-5-11.1-.2,0-.3,0-.5,0,.1,2.2.3,4.3.4,6.6-.2-.4-.4-.7-.5-1.1-.1-.4-.3-.8-.4-1.1-.6-2.7-1.2-5.4-1.9-8-.2-.9-.8-1.7-1.5-2.3.2,1.5.4,3,.6,4.7-1.6-2.7-3.2-5.3-4.7-7.8-.1,0-.3.2-.4.2.4,1.5.9,3,1.3,4.5-.1,0-.3.1-.4.2-.7-1.2-1.5-2.4-2.2-3.6-1.1,1.4-.3,3.6-2,4.5-.5-2.1-1-4-1.5-6.4-.3,2.5-.6,4.6-.9,6.4-1.4-3-2.8-6-4.1-8.9-.1,0-.3.1-.4.2.4,2.3.9,4.7,1.3,7-.2,0-.3.1-.5.2-.3-.3-.6-.7-1-1.1.2,2,.3,3.8.5,5.7-.1,0-.3,0-.4.1-.9-3.7-2.1-7.2-4.8-9.8.5,2.7,1,5.5,1.5,8.3h-.5c-.5-1.3-.9-2.7-1.5-4.4-1.8,4.5-2.6,8.7-.9,13.2-.2,0-.3,0-.5,0-.8-2.4-1.6-4.8-2.4-7.3-1.8,2.3-4,6.1-4.9,11.2-.3-.9-.5-1.7-.8-2.6-.1,0-.3,0-.4,0v4.9c-.2,0-.4,0-.6.1-.7-1.8-1.5-3.6-2.4-5.7-.4,1.5-.7,2.7-.9,3.9-.9,4.4-2.6,8.4-5.1,12.1-8,12.3-15.9,24.7-23.7,37.1-2.5,3.9-4.1,8.3-5,12.9-.3,1.4-1,3.1-2.1,4-5.7,4.8-6.7,11.3-7.1,18.2,0,.6,0,1.1,0,1.7,0,.1,0,.2-.5.5-.3-.8-.8-1.5-.8-2.3-.2-3.8-.4-7.6-.4-11.3,0-5.1-.4-10.2-1.7-15.2-.7-2.7-.2-4.9,1.7-7.1,3.3-3.8,5.6-8.1,5.1-13.5-.3.8-.6,1.6-.9,2.4-.2-.7-.4-1.4-.6-2.1,0,0-.2,0-.3,0v5.7c-.3-.4-.4-.5-.5-.7,0,.2-.2.5-.2.6-1.6-2.2-3.3-4.5-5.2-7,1.1,4.2,2.1,8,3,11.7-.2,0-.4.1-.5.2-1.1-5-3.2-9.5-7-13.1,1.1,3.3,2.1,6.5,3.2,9.8-.2,0-.5.2-.7.3-.4-5.8-5.2-9.2-7.6-13.9-.2,0-.3.1-.5.2,1.4,3.7,2.7,7.3,3.9,10.6-2.6-2.5-5.2-11.1-4.7-17.2.5-6.3,2.4-12.3,5.1-18-.2,0-.4-.2-.7-.3-1.6,3.9-3.3,7.8-4.8,11.3.2-7.6,2.1-15.1,6.7-21.9-4.2,4.4-6.5,9.7-8,15.7-.6-4.9,2.3-12.9,8-22-1.4.7-3.7,3.2-5.3,6.3-1.3,2.5-2.3,5.2-3.4,7.8.3-8.2,2.4-15.8,6.1-23.2-.7,1.2-1.5,2.3-2.2,3.5,0,0-.2,0-.2,0,.8-1.9,1.6-3.9,2.4-5.8,0,0-.2-.1-.2-.2-.5.8-1.1,1.7-1.6,2.5,0-2.4,2-5.9,6.1-10.5-2.3.7-4.5,2.9-6.7,6.8,0-2,1.7-6.1,4.2-8.8,2.2-2.5,4.8-4.6,7.7-7.3-3.2,1.5-6,2.8-8.8,4.1,0,0-.1-.1-.2-.2,1.6-1.4,3.2-2.9,4.9-4.2,1.6-1.2,3.3-2.3,5-3.3,1.2-.7,1.7-1.4,1.8-2.8.8-7.2,2.5-14.1,6.2-20.4,3-5.2,7-9.3,12.1-12.5.5-.3.9-.6,1.8-1.2-1.6.2-2.7.4-4.3.7.6-.4.8-.6,1.1-.7,16.9-7.1,34.4-10.1,52.6-7.5,13.1,1.8,26.3,3.2,39.6,2.5,3.7-.2,7.3-.7,10.9-1.1.6,0,1.1-.2,1.7-.4,10.7-4.4,21.3-8.7,30.3-16.3,1.9-1.6,3-3.5,3.2-5.9-1.3,1.2-2.6,2.4-3.9,3.6-.1-.1-.3-.3-.4-.4,2.1-1.3,3.7-3,4-5.8-.7.5-1.2.9-1.4,1,.8-1.8,1.6-4,2.5-6.2-.2-.1-.3-.2-.5-.4-1.1,3.2-3,5.6-6.6,5.8,4.2-1.2,5.6-4.5,6.3-8.5-.4.5-.7,1-1.1,1.5-.1,0-.2-.1-.3-.2.4-1.1.9-2.1,1.3-3.2,0,0-.1-.1-.2-.2-.8.9-1.6,1.8-2.4,2.7,0,0-.1,0-.2,0,.5-1.5,1.1-3.1,1.6-4.7-.5.2-1,.5-1.9.9.7-.9,1.1-1.5,1.5-2.1,0,0-.1-.1-.2-.2-.6.6-1.2,1.2-1.8,1.8-.1,0-.3-.2-.4-.3,1.6-2.1,3.1-4.1,4.7-6.3-1.1-.4-2.3-.8-4.1-1.4,1.2-.2,1.8-.3,2.7-.5-1.1-.4-2.1-.8-3.1-1.1,0-.1,0-.2,0-.3.5,0,1,0,1.2,0-.7-1.2-1.4-2.5-2.3-3.9.5.1.9.2,1.8.5-.8-.7-1.3-1-2-1.6,1.4.3,2.5.6,3.6.8v-.2c-.9-.5-1.9-1.1-2.8-1.6,0,0,0-.1,0-.2.6,0,1.3.2,1.9.2-2-.7-3.9-2.1-6.1-.7-.6.4-1.4.6-2.1.5-.9,0-2.2-.3-2.5-.9-.4-.6,0-1.9.4-2.6.8-1.6,1.9-3,2.7-4.5.6-1.2.3-2.2-1.6-2.6,1-.3,1.5-.4,2.1-.6,0,0,0-.1,0-.2-1-.1-2.1-.3-3.4-.4,1.8-.5,3.2-.9,4.6-1.2,0-.1,0-.2,0-.3-.7,0-1.4,0-2.1-.1v-.3c4.3-1.7,8.6-3.4,12.9-5.1-.3,0-.7-.2-1.3-.3,1.9-.3,3.7-.6,5.4-.9,0,0,0-.2,0-.3-.6-.2-1.2-.4-1.8-.5,0-.1,0-.3,0-.4,1.8.3,3.6.7,5.4,1,0,0,0-.1.1-.2-1.3-.7-2.6-1.4-4.2-2.3,3.4.6,5.8,2.4,8.2,4.2-.6-.8-1.2-1.6-1.8-2.4,0,0,.1-.2.2-.2,1.5,1.2,2.9,2.5,4.4,3.7,0,0,.1,0,.2,0-.7-1.2-1.4-2.5-2.1-3.7,0,0,.2-.2.3-.3,1.6,1.8,3.2,3.6,5,5.6,0-.8-.1-1.6-.3-2.4-.1-.8-.4-1.5-.6-2.3.1,0,.3-.2.4-.3,1.4,2,2.8,4,4,5.8v-2.2c.1,0,.3,0,.4-.1.4,1.6.9,3.3,1.1,4.9.2,1.5,1.1,2,2.5,1.9,3.9-.3,7.9-.8,11.8-1,3-.2,5.9,0,9,0v-2.3c1.6-1,1-2.8,1.7-4,.3.5.5.9.9,1.7.6-1,1.1-1.7,1.6-2.6,0,1.5-.2,2.7-.3,4,1.3-3.2,3.7-5.2,6.9-6.5-1.2,1-2.2,2-3.3,3,.1.1.3.3.4.4,3.9-3,8.3-1.6,12.6-1.7,0,.1,0,.3,0,.4-.8.2-1.7.4-2.3.5,2.3.6,4.8,1.2,7.3,1.9,0,0,0,.2,0,.3-2.3-.3-4.7-.5-7-.8,0,.1,0,.2,0,.3,6.2,1.7,12.4,3.4,18.6,5,0,.1,0,.3,0,.4l-3-.6c1.5,1.1,3.7,1,4.6,3-1.2-.5-2.2-.9-3.3-1.4,0,0,0,.2,0,.3.8.8,1.6,1.6,2.5,2.6-.7,0-1.1,0-2,0,.3,3.3.5,6.5.9,9.6.2,1.8.7,3.6-1,4.9-1.2.9-3.4.2-5.1-1.3-.3-.3-.6-.7-.9-1.1-.8.6-1.5,1.1-2.2,1.6-.7.5-1.4,1-2.4,1.8,1.6.2,2.8.3,4.3.5-1.3.5-2.4,1-3.8,1.6.9.4,1.6.6,2.3.9,0,.1,0,.2,0,.3-1.3,0-2.5-.1-3.9-.2,1.5,2.3,3.8,3.4,6.1,4.7-1.7-.2-3.3-.4-4.9-.5.7,1.4,1.4,3,2.3,4.3,1,1.4,2.2,2.6,3.4,3.9-1.4-.5-2.8-1-4.3-1.5,0,.2-.2.3-.2.5,1.7.9,3.3,1.8,4.9,2.7h-2.3c0,.1,0,.3-.1.4,1.3.5,2.5,1.1,3.8,1.6-2.5.8-3.7.3-8.5-2.3,4.3,4.3,2.9,9,1.4,13.7.4-3.2.3-6.4-1.5-9.1.1,4.3,0,8.7.4,13,.2,2.8,1.2,5.5,1.7,7.8-.5-.8-1.3-2-1.9-3v14.8c-.1,0-.3,0-.4,0-.2-1.7-.3-3.4-.5-5.1-1.4,6.1-1.7,12.1-.5,18.3-.4-1.5-.9-2.9-1.3-4.4-.4-1.6-.8-3.1-1.1-4.7-.3-1.5-.5-3.1-.8-4.7h-.4c-.7,6.4-1.5,12.8-2.2,19.3-1.2-3.7-2.4-7.2-3.7-11.2-1.3,3.1-2,6-1.5,9,.5,2.8,1.4,5.6,2.1,8-3.5-2.6-5.4-7.7-4-12.1.3-1,.6-2,1.1-2.9,1.3-3.1,2.1-6.3,1.2-9.7,2.6,3.1,3,6.8,3,10.6.7-4.2.4-8.3-1.5-12.3.5.7,1,1.4,1.4,2.1.4.8.8,1.6,1.2,2.4-.2-3.6-1.9-6.5-4.5-9,.1-.2.3-.3.4-.5,1.4.9,2.8,1.9,4,2.6-.5-1.6-1.5-2.5-5-4.9.9.3,1.8.5,2.7.8,0,0,.2-.2.3-.3-1.4-1.3-2.9-2.7-4.3-4-1.4-1.2-3-1-4.6-.5-1.5.5-2.9.9-4.7,1.5.4-1.1.8-1.8,1-2.4-3.1.7-6.2,1.7-9.4,2.1-3.3.4-6.6,0-9.3-2.3,3.9.9,7.3.5,10-2.8,2.5,2,5.3,3.1,8.2,1.9,2.9-1.1,3.3-4.3,4.2-6.9-.2-.3-.6-.8-.7-1.3-1.5-4.8-3-9.6-4.5-14.4-.1-.4-.4-.8-.8-1.1-3.6-2.9-4.3-7.3-6.1-11.2-.5-1-.4-2.2-.4-3.4,0-3.6,0-7.1,0-10.7,0-1.6-.3-3.3-.7-4.9-.4-1.7-1.3-3-3.2-3.1-1.9-.1-3.7,1-4.4,2.7-1.1,2.5-.7,5,.9,7.2,2.1,3,3.4,6.4,3.8,10,.5,4.3-.1,8.4-3.6,11.2-4.3,3.5-5.2,8-5.3,13,0,1,0,2-.2,2.9,0,.5-.5.9-.7,1.3,0,0,.4,0,.6.1.6.5.7,5.8.3,6.4-.5.6-.9,1.3-1.5,1.9-.4.4-1,.5-1.5.8-.1-.5-.3-1-.4-1.6,0-.2,0-.3.1-.8-2.4,1.5-4.6,2.8-6.8,4.2,0,0,0,.2.1.3.1-.3.3-.5.4-.9-3.9,2.1-5.5,8-4.6,17.8.4-1.3.7-2.1,1-3.1.2,2.9.5,5.7.7,8.4.1,0,.2,0,.4,0,.1-2,.3-3.9.4-5.9.1,0,.3,0,.4,0,.3,6,3.2,11.1,5.5,16.3-.4-2.8-.9-5.8-1.3-8.8,0,0,.2,0,.3,0,2.3,3.6,4.7,7.2,6.9,10.9.7,1.3,1,2.9,1.1,4.4.2,2.5,0,5.1,0,7.4-.3-.4-1-1.1-1.6-1.8-1.2,2.1-.1,6.7,2.5,8.7,2.2,1.7,4.5,3.3,6.7,5.1-3.8-1.5-7.5-2.9-11.5-4.5-.7,2.7-.5,5.5,1.1,8.1,1.5,2.6,4,4,6.7,5.1,0,.2-.2.4-.3.6-2.7-1.2-5.4-2.1-8-3.5-2.7-1.4-4-4.1-4.8-7h-.6c-.5,2.5-1,4.9-1.6,7.4-1-1.5-2-3.2-3.3-5.1v6.2c-.6-1-1.1-1.9-1.5-2.6-2.5,2.9-5.4,5.9-7.8,9.2-1.4,1.9-2.3,4.2-3,6.5-.7,2.5.3,4.9,2.1,6.7.5.5,1.2.9,2,1.6-1,.7-1.6,1.1-2.3,1.6.4,0,.6,0,1,.2-.6.4-1.1.8-1.8,1.3,1.7-.2,3.3-.3,4.9-.4-.5.4-1,.7-1.7,1.2,2.1,1.1,3.6,2.8,6.3,2.6,5.7-.5,10.3,1.7,13.1,7.2,0-1.1.1-1.9.2-2.6,0,0,0,0,.3-.3.5.6,1,1.2,1.5,1.8h.4c-.7-2.6-1.4-5.1-2-7.5,1.1,1.2,2.3,2.6,3.8,4.3-.4-1.7-.8-3.1-1.2-4.7,1.5,1.4,2.9,2.7,4.4,4.1-1.2,1.1-2.3,1.9-3.2,2.9-.6.6-1.1,1.5-1.2,2.3-2.1,14.7-3.3,29.5-3.9,44.3-.2,5.6.2,11.2.3,16.8,0,.5,0,1-.3,1.6-.6-4.2-1.1-8.5-1.7-12.7-.3-1.8-.5-3.7-1.1-5.4-1.6-4.4-1.9-9-2-13.7,0-3.2-.4-6.4-.7-9.6,0-1-.5-1.9-.8-2.8-.2,0-.4,0-.7,0-.5,1.1-1.2,2.1-1.5,3.2-.9,3.7-1.5,7.4-2.5,11.1-1.1,4.1-2.3,8.2-3.8,12.3-.4-7.5-.9-14.9-3.7-22-.9,1.1-1.8,2.1-3,3.4,1.1-3.5,2.4-6.5,1-10.1-.7,1.1-1.3,1.9-2.2,3.1.5-1.9.9-3.3,1.1-4.7.2-1.4,0-2.8-1.2-3.8-.2,0-.4,0-.6,0,.6,15.4,1.2,30.9,1.8,46.3,0,0,0,0,0,0-.2-1.3-.4-2.5-.6-3.6-.3,1.3-.5,2.8-1,4.1-.4,1.2-1.3,2.3-2.6,2-.9-.2-2.1-1.1-2.5-2-.8-2-1.3-4.2-1.7-6.3-.8-4.8-2.6-9-6.9-11.8-.2-.2-.4-.4-.6-.6,0,0,0-.2-.2-.5ZM224.5,38.1c.7-.2,1.3-.4,1.9-.6,0-.2-.2-.5-.3-.7-.7.3-1.5.5-1.9.9-.3.3-.3,1.2,0,1.6.6,1,1.6,1.4,2.8.9,1.1-.5,2-1.3,1.7-2.8-1.9,1.6-2.6,1.7-4.3.6ZM201.4,38.2c0,.2,0,.4.1.5-.9.2-2,.7-2.8.5-.6-.2-1-1.3-1.5-2.1-1.1.8-.8,1.8,0,2.7.9,1,2.8,1,3.9,0,.4-.3.8-1.1.6-1.5-.1-.4-.9-.6-1.4-.9,0,0-.1.2-.3.5.5,0,.9.2,1.3.2ZM250.6,25.3c-.9.8-1.6,1.3-2.3,1.9,0,.1.1.2.2.3,1-.3,1.9-.6,3-.9-.3-.5-.6-.9-.9-1.4Z"/>
    <path class="cls-9" d="M64.9,167.8c2.6,1.4,3.5,3.9,3.9,7.1,1.5-4.9.6-9.3,0-13.8,1,1.3,1.9,2.6,3,4-.6-2-1.1-3.9-1.6-5.8.3-.1.5-.2.8-.4,1.3,1.8,2.7,3.7,4.1,5.7-.3-1.6-.5-3.1-.8-4.6,0,0,.1,0,.2-.1,1,1.6,2,3.1,3.2,5v-9c1.6,4.3,3.1,8.2,4.5,12,.2-2.7.5-5.4.7-8.1,0,0,.2,0,.3,0v2.9c0,0,.2,0,.2,0,.3-.8.5-1.6.8-2.5.2,0,.4,0,.6,0,.2,1.4.7,2.9.7,4.3,0,4.1-1.2,7.9-3.8,11-3.8,4.4-7.8,8.5-11.7,12.8-4.1,4.5-8.4,8.9-12.3,13.6-5.1,6.2-5.9,13.6-4.6,21.2.8,4.5,2.1,8.9,3.4,13.3.4,1.3,1.2,2.6,2.1,3.5.8.8,2.1,1,3.1,1.4.2,0,.6,0,.9,0,6.1-.6,9.3,3.1,10.9,8.4.2.8,0,1.8,0,2.6,0,.3-.1.7,0,.9.5,1.4-2.2,2.3-3.3,2.5-2.8.5-5.4.2-8.2.3-7.8,1.3-13.7-1.4-13.8-4.8,0-.3.1-.4,0-.5-3.7-4.6-3.8-10.5-5.4-15.8-2.3-7.1-4.4-14.3-6.4-21.6-.5-1.6,0-3.5,0-5.1-6.7,12-8.4,25-6.7,38.8-.2-.8-.4-1.7-.6-2.5-2.2-13.4-.6-26.1,7.2-37.5,2.7-4,5.6-7.8,8.3-11.8,2.9-4.4,5.6-8.9,8.4-13.4,1-1.6,1.9-3.2,2.9-4.8.2,0,.3,0,.5.1.3,1.9.6,3.9.8,5.8.9-5.5,1.7-7.2,7.8-15.3ZM61,253c0-.2-1.3-1.7-.3-1.6,2.9,3.2,6.7,2.9,9.8,2.4,0-.7-.3-2-.2-2.6.6.3,1.4,1.1,1.9,1.3-.2-5.3-4.4-9.6-9.6-9.4-3.5.1-5.4-1.4-6.7-4.5-2.2-5.3-3.3-10.8-4.1-16.5-.8-5.9-.4-11.7,2.7-17,0,0,0-.3,0-.4-.2-.1-.3-.2-.5-.3-3.1,4-6.2,7.9-9.2,11.9-.3.4-.6,1-.6,1.6-.3,3.7-.9,7.4-.6,11.1.7,8.6,2.9,16.8,7.9,24,.6.8,1.6,1.7,2.5,1.7,2.4.1,4.9-.2,7.3-.3.1,0,.3-.1.4-.2-.2-.4-.5-.8-.7-1.2Z"/>
    <path class="cls-9" d="M188.4,244.6c.7,1.6,1.6,3.2,2.1,4.9,1,3.8,1.6,7.7,2.6,11.6.9,3.6,2.1,4.5,5.8,4.7,1.5.1,2.5.6,3,2.2.2.7,1.4,1.5,2.1,1.5,4.7.2,9.5.2,14.3.2.8,0,1.6-.4,2.7-.6-.8-1.7-2.9-7.3-2-6.4s1.2,1.3,1.8,2.8c.4.9.7,1.8,1.1,2.8,2-1.2,1.2-3.1,1.4-4.8,2.3,2.8,1.4,6-1.7,7-.9.3-1.8.5-2.7.6-7.4.7-17.2,0-19.3-3.4-3.2-1.3-7.3-2.9-7.4-4.4-1.6-6.2-3.1-12.3-4.6-18.4.3,0,.6-.2.9-.3Z"/>
    <path class="cls-9" d="M215.6,54.3c.9,0,1.7-.1,2.6-.1,2.8,0,4.2,1.3,4.5,4.1.3,3.1-2.4,7.3-5.4,8.3-2.5.9-5.2.3-7-1.9-2-2.4-3.2-5.1-1.9-8.2.6-1.6,2-2.1,3.6-2.2,1.2,0,2.4,0,3.6,0,0,0,0,0,0,0ZM210.1,60.3c2-2.1,4.3-2.3,6.8-1.7-.1,3.5.3,4.2,2.6,4-1.7-.3-2.4-1.2-2.2-2.7.4-2.8,2.7-.5,4.1-1.7-.5-.6-.9-1.5-1.5-1.6-1.8-.4-3.7-.7-5.5-.8-1.7,0-3.3.4-4.4,1.9-.6.8-1,1.6,0,2.6Z"/>
    <path class="cls-9" d="M26.8,271.7c3,2,6.6,1.4,10,.7.9-1.8-2.1-3.5.5-5.1.5,1.5.9,2.9,1.4,4.3,2.1-1.3,1.6-3.6,2.3-5.4,1.7,2.5.8,6.1-1.9,7-2.1.7-4.5,1.1-6.7,1.1-5.1.2-10-1.1-14.8-2.7-1.4-.5-1.9-1.5-1.9-2.7,0-.9.5-1.8,1.1-2.8,1.3,3.6,3.8,5.3,7.3,5.7.8,0,1.6-.1,2.8-.2Z"/>
    <path class="cls-9" d="M190.6,280.9c-.2-1.6-.3-3.1-.4-4.5.2,0,1,1.1,1.2,1.1q.5,1.2,1,2.4c.1,0,.3,0,.4,0,.7-1,.8-2.1.8-4.2,2.1,2.7,1.2,5.4-1.9,6.2-3.5,1-6.8,1.4-10.5.8-2.1-.3-3-.3-2.7-1.5,1.9.2,5,.3,6.8.3,1.8,0,3.6-.4,5.3-.5Z"/>
    <path class="cls-9" d="M168.4,275c1.6,4.4,2.9,5.4,7.4,5.3.5,0,1-.5,1.9-.8.4.5,1,1.4,1.6,2.3,0,.2-.1.4-.2.6-3.8-.5-5.7-.5-10.5-2.2-1.4-1.2-1.7-3.4-.3-5.2Z"/>
    <path class="cls-3" d="M24.6,262.7c3-.2,4,2.1,3.4,7.1-1.1-2.2-2.2-4.6-3.4-7.1Z"/>
    <path class="cls-15" d="M180,279.6c-1-3-1.9-5.7-2.8-8.6,2.7.5,3.7,4,2.8,8.6Z"/>
    <path class="cls-9" d="M212,267.7c0,1.7-1.9-2.6-2.8-3.4-1.6-1.4-3.4-1.8-2.4-2.2s2.9.3,4,1.6c.9,1,1.1,2.4,1.2,4.1Z"/>
    <path class="cls-9" d="M205.4,162c2.2.3,3.4,1.7,4.8,2.9-.7.8-1.3,1.5-1.9,2.3-1-1.7-1.8-3.2-2.9-5.2Z"/>
    <path class="cls-9" d="M99.8,159.5c1.6,2.6,1.9,5.4.8,8.3-.3-2.8-.6-5.6-.8-8.3Z"/>
    <path class="cls-9" d="M200.9,70.4c.5-.7.8-1.4,1.2-2,.2-.4.5-.7.9-1.2-.2,3.2-.5,3.7-2.1,3.2Z"/>
    <path class="cls-19" d="M224.5,38.1c1.7,1.1,2.4,1,4.3-.6.2,1.5-.6,2.2-1.7,2.8-1.2.6-2.2,0-2.8-.9-.3-.4-.3-1.3,0-1.6.5-.5,1.3-.6,1.9-.9,0,.2.2.5.3.7-.6.2-1.2.3-1.9.6Z"/>
    <path class="cls-19" d="M201.4,38.2c-.4,0-.8-.1-1.3-.2.2-.2.3-.5.3-.5.5.3,1.3.5,1.4.9.1.4-.2,1.2-.6,1.5-1.1,1-3,.9-3.9,0-.9-.9-1.2-1.9,0-2.7.5.8.9,1.9,1.5,2.1.8.2,1.9-.3,2.8-.5,0-.2,0-.4-.1-.5Z"/>
    <path class="cls-19" d="M250.6,25.3c.3.5.5.9.9,1.4-1.1.3-2.1.6-3,.9,0-.1-.1-.2-.2-.3.7-.6,1.4-1.2,2.3-1.9Z"/>
    <path class="cls-7" d="M61,253c.2.4.4.8.7,1.2-.2,0-.3.2-.4.2-2.4.1-4.9.5-7.3.3-.9,0-2-.9-2.5-1.7-5-7.2-7.2-15.4-7.9-24-.3-3.7.3-7.4.6-11.1,0-.5.3-1.1.6-1.6,3.1-4,6.1-7.9,9.2-11.9.2.1.3.2.5.3,0,.1.1.3,0,.4-3.1,5.3-3.5,11-2.7,17,.7,5.6,1.9,11.2,4.1,16.5,1.2,3.1,3.2,4.6,6.7,4.5,5.2-.2,9.4,4.1,9.6,9.4-2.4-1.4-1.6.6-1.6,1.4-3.1.5-6.9.8-9.8-2.4-1.3-.4,0,1.4.3,1.6ZM68,252.5c-.9-4.3-2.7-6.6-5.1-6.4,1.7,2.1,3.2,4,5.1,6.4Z"/>
    <path class="cls-19" d="M210.1,60.3c-1.1-1-.7-1.8,0-2.6,1.1-1.5,2.7-2,4.4-1.9,1.9,0,3.7.3,5.5.8.6.1,1,1.1,1.5,1.6-1.4,1.2-3.7-1.1-4.1,1.7-.2,1.5.5,2.4,2.2,2.7-2.3.1-2.7-.5-2.6-4-2.5-.6-4.8-.4-6.8,1.7Z"/>
    <path class="cls-3" d="M68,252.5c-.7.5-1.7-2.9-4.7-5.6s-.1-.5-.4-.8c3.2-1.2,5.8,5.9,5.1,6.4Z"/>
  </g>
  <path class="cls-8" d="M27.6,259.1s3.9-.9,4.8-1.2c.9-.3.9-.7,2-.4s2.9.9,4.1,2.3c1.2,1.4,3.4,6.2,2.6,6.5s-1.6-2.9-3.2-4.4c-1.5-1.5-2.9-2.1-3.4-1.9s1.3,2.3,1.9,4.2c.6,1.9,1,3.2,1,3.2l-.5,4s-2-7-3.1-8.6-1.6-1.8-2.8-2.2-3.2-1.4-3.2-1.4Z"/>
  <path class="cls-8" d="M17.9,268.5s-1.1-9.3-.9-11.1,0-9.1,0-9.1c0,0-1.2,9.3-1.3,11.5s1.1,6.4,1.1,6.4l1.1,2.2Z"/>
  <path class="cls-13" d="M155.9,235.7s1.3-1,2.7-1.7c1.4-.7,2.4-1.4,1.9-1s-1.8,2.7-3.2,2.7h-1.4Z"/>
  <path class="cls-13" d="M152.8,240.1s5.1-3,7.3-5.1,4.3-6.1,4.3-5.3c0,.9-2.4,5.4-5.3,7.2-2.9,1.9-6.3,3.1-6.3,3.1Z"/>
  <path class="cls-3" d="M33.7,262.7s1.6,1.2,2.4,4.5.7,5.3.7,5.3l1.9-.8s-1.2-3.7-1.4-4.3-1.5-4.4-1.5-4.4c-1-.6-2.9-2.1-2.1-.3Z"/>
  <path class="cls-8" d="M204.7,255.2l1.3-.3s4.4.3,6.6,0c2.2-.3,6.3,1.5,7.8,3.4s2.8,5.3,2.8,5.3c0,0-1.9-4-4.5-5.8-2.7-1.8-2.3-.9-1.7-.1.6.7,1.7,3.4,2,4s.9,2.1.9,2.1l-1.5-1s-1.4-4.5-3-5.4c-1.6-.9-1.7-1.1-4-.5s-4.2.6-4.4.6-2.8-1.4-2.3-2.2Z"/>
  <path class="cls-9" d="M36.7,273.1s0-4.5.5-4,.8,2.5,1.6,2.7.4.8.4.8l-2.5.6Z"/>
  <path class="cls-13" d="M207.8,150.5s3.4,1.1,4.2,3.6c.8,2.4,1.5,4.2,1.5,5.3v3.6s.1,1.3.4.9,1.5-5,1.9-5.6.5-.8.5,0,.2,5.3.4,5.7.5,1.8.6,1.2,0-6.5.5-8.4c.5-1.9,2.6-5.1,2.9-5.5s.7-1.1.7-1.5,0-2.8-.4-2.7-2.3,1.4-5.9,1.5c-3.5,0-8.5-1.6-9.3-1.9s-3.1-1.7-3-1.4,4.5,3,7.4,3.5c2.9.5,7.1.2,7,.6s-2.1.7-2.7.9-6.7.4-6.7.4Z"/>
  <path class="cls-13" d="M218.3,146.3s3.1-1,3.7-1.1,1.5-.6,1.1,0-3.7,1.4-3.9,1.4-1.8,0-.9-.3Z"/>
  <path class="cls-13" d="M219.4,140.2s4.2-.3,4.6,0,.9,7.6.9,7.6c0,0,.3,3.6,0,3s-.5-5.7-1.7-7.3c-1.2-1.5-3.4-2.6-3.4-2.6,0,0-1.4-.6-.4-.7Z"/>
  <path class="cls-8" d="M203.1,71.4s1.5,3.1,8.9,3.9,9.5-1,9.5-1l1.3-1.5s5.6-4,6.9-4,6,3.3,6,3.3l.7,3.6s-2.9-3.1-7.4-.7c-4.5,2.4-4.2,2.6-5,5.5s-1.2,6.7-1.2,6.7c0,0-1.4-1.5-3-2.5-1.5-.9-4.5-2.6-4.4-1.9,0,.8,6.1,8.7,6.1,8.7,0,0-2.9-2.6-4.5-4.4-1.6-1.9-3.6-7.2-4.4-6.9s.4,5.2.9,6.3,3.9,5.1,4.4,5.6,1.4,1.6.9,1.4-3.8-2.7-4.4-3.8c-.7-1.1-2-4.5-2.3-4.9s-.2,7.3-.2,7.3c0,0-2.6-7.6-4.3-11.3-1.8-3.8-4.8-8.4-4.8-8.4,0,0-.4-1.8.4-.9Z"/>
  <path class="cls-13" d="M195.9,87.7s-.6-4.9,0-7.2c.6-2.2,1.6-2.7,1.5-2.2,0,.5-.8,3.5,0,6.7s2.2,5.4,3.6,6.9c1.4,1.5,3,2.1,2.8,1.7s-2.6-3.1-2.6-6.4.9-2,1-1.2.3,3.9,2.1,6.9c1.8,3,3.6,4.5,2.9,4.5s-9.9-4.2-11.3-9.6Z"/>
  <path class="cls-13" d="M218.7,100.2s2.9-5.5,2.6-8.6-.1-3.2.4-2.1,1.8,3.6.8,6.8c-1,3.1-3.8,5.9-3.8,5.9,0,0-.9,0,0-1.9Z"/>
  <path class="cls-13" d="M207.6,87.7s.6,2.4,3.6,5.2c3.1,2.8,5.7,4,5.2,4.4s-2.6-.7-3.3-1.2-2.7-1.6-4.2-3.6-2-5.4-1.4-4.8Z"/>
  <path class="cls-13" d="M210.4,96.6s.2-.4.8.3,6.7,6.2,6.7,6.2c0,0,1.9,1.6,1.3,1.5s-3.3-2.3-5.2-3.9c-1-.8-4.4-4.5-3.6-4.2Z"/>
  <path class="cls-13" d="M213,102.2s1.1-.2,3.5,1.7c2.4,1.9,4.7,5.1,4.1,4.9s-3.9-3.7-4.7-4.1c-.9-.4-3.3-1.9-2.9-2.5Z"/>
  <path class="cls-13" d="M234.7,101.8s0-2.3.6-1.2,2,6.4,2,6.4c0,0,1.1,2.2.4,1.9s-3.1-6-3-7.1Z"/>
  <path class="cls-13" d="M239.5,113.5s1.2-2.8,1.2-5,.2-5.8.6-5.4.5,5.1,0,6.8c-.5,1.7-1.1,4.5-1.7,4.9s0-1.3,0-1.3Z"/>
  <path class="cls-13" d="M219.8,137s3.3-.6,3.7,0,.7,1.4,0,1.4-6.5-1.7-4.5-1.6"/>
  <g>
    <path class="cls-17" d="M221.6,46s2.6,3.3,3.9,5.8c1.3,2.6,2.4,9.2,1.5,12.4s-1.5,2.6-1.5,2.6c0,0-.1-10.2-2.2-14.7-2-4.5-1.8-6.1-1.8-6.1Z"/>
    <path class="cls-7" d="M203.3,66.2s-.6,3.9-.2,5.2,4.2,4.2,11.1,4.4c6.9.2,8.1-2.3,8.1-2.3,0,0,1.8-2.5,1.9-2.9,0-.4.3-3.4.3-3.4l-21.1-1Z"/>
    <path class="cls-1" d="M203.7,69.1s.8,1.8,4.2,2.9,7.7.7,8.9.7,5.3-1.6,5.8-1.8,1.3-1.9,1.3-1.9l-8.1-2.5-2.6.9-9.5,1.7Z"/>
    <path class="cls-18" d="M203.2,68.6s2.3,2.9,6.4,2.2,5.3-2.9,5.3-2.9c0,0,1.6,1.8,2.8,2.1s4.8.2,4.8.2c0,0-1.6-1-2.4-1.8s-2.2-2.7-2.2-2.7l-5.7-.5-1.6.3s-.8,3.6-1.5,4-3.6-.4-3.6-.4l-2-2s-.9.6-.5,1.5Z"/>
    <path class="cls-7" d="M204.8,46.6c.3-1.1,1.8-1,2.2-2.1h-.5c.4-.4,1.2-.4,1.5-.7,0,0-.6-.2-.6-.3-.3.1-.5.2-.8.4,0,0,1-.9,1-1,.5-.4,1.1-.7,1.7-1.2-.6,0,.3-.7-.2-.6,0,0,.8-.4,1.3-1,1.1-1.3,1.2-4.6,1-7.6-.2-3.9-3.2-9.6-6.1-11.3h0c.4.1.8.4,1.2.6,0,0,0,0,0-.1-.4-.4-.9-.8-1.3-1.1-.4-.3-.9-.6-1.4-.9,0,0,0-.1,0-.2l2.3.9s0,0,0,0c-.5-.4-.9-.9-1.4-1.3,0,0,0,0,0,0,.5.2,1,.4,1.5.6,0,0,0,0,0,0-.6-.5-1.2-1-1.9-1.6,0,0,0,0,0,0,.4,0,.7.1,1.2.2-.5-.5-1-.9-1.4-1.2,0,0,0-.1,0-.2-.8-.3.3.1,2.2.9-.4-.3-1.4-1.8-1.7-2.1,0,0,0-.1,0-.2.5.1,1,.2,1.6.3-.5-.4-.9-.8-1.3-1.2,0,0,0,0,0,0,.7.2,1.3.4,2,.6,0,0,0,0,0,0-.3-.2-.5-.5-.8-.7v-.2c.7.2,2.2.6,2.3.6-.3-.2-.5-.4-.8-.6,0,0,0-.2.1-.2.7.3.5-.7,1.1-.4,0,0,.7-.1.7-.3,0,0,.8-.7,1.1-.2.3-.5,1.3,1,1.6.6,0,0,.1.7.1.7,0,.2.4-.4,1.2-.6-.2.3-.3.5-.5.8.7-.3,2,.6,2.6.4,0,0,0,0,0,.1-.1.2-.3.4-.5.7.6-.2,1.1-.4,1.6-.5,0,0,0,0,0,0-.2.3-.5.6-.7.8,0,0,0,0,0,.1.4,0,.8-.2,1.3-.2,0,0,0,0,0,.1-.3.3-.6.7-.9,1,0,0,0,0,0,0,.6-.3,1.3-.7,1.9-1,0,0,0,0,0,.1-.4.4-.8.9-1.2,1.4.4-.1.8-.2,1.1-.3,0,0,0,0,0,0-.7.6-1.4,1.2-2.1,1.8,0,0,0,0,0,.1.4-.2.7-.4,1.1-.6-.7,1.1-1.5,2.1-2.2,3.3-.6,1.2-.6,4.1-.6,3.7,0-.4-.4-1.1-.3-1.4-.5,1.2,0,2.3-.2,3.7-.2,2.1-.2,4.6.1,6.3.5,2.6,3.3,6.4,3.1,6.4-.1,0-.4.2-.6.2.8.5.5.6,1.3,1,0,0-.6,0-.6,0-.4,0,.4.4,1,.7,0,0,.5.4.5.5-.2,0-.4,0-.7,0,.5.4.9.7,1.3,1,0,0,0,0,0,.1-.3,0-.5,0-.9-.1.2.3.3.5.5.7.2.3,1.6,1.2,1.8,1.4.9,1.3.5,1.5,1.1,3.1,0,0,2.8,7.1,3.6,10.3.8,3.2.8,6.2-1.4,8.7s-3.8,1.7-3.8,1.7l-3.1-3.1-4.9-.7s-2.4-1.3-2.4-.5c0,.9,0,3.5-2.1,4.4s-4.9-1-5.2-1.9c-.3-.9-.3-.6-.3-.6,0,0-1.3,1.5-2,2.4s-2.3,4.4-2.3,4.4c0,0,1.5-4.3,2.2-5.4.7-1.1,1.7-2,1.7-2,0,0,.2-1.6,0-1.7s-2.4,1.5-2.8,2-3.5,4-3.6,4.2.3-1.2,1-2.1c.7-.9,3.7-3.7,4.3-4.1s1.1-.9,1.1-.9c0,0-.2-1.2-.6-1.2s-5.2,3.3-5.2,3.3c0,0,.3-.9,1.1-1.5s4.1-2.7,4.1-2.7c0,0,.3-1.1-.6-1s-6.4,2.2-8.4,3.2-3.7,1.7-3.4,1.4,6.4-3.8,9.1-4.4,3.4-.9,3.4-.9c0,0,.1-7.6.3-9.2.2-1.5,2.4-4.5,2.4-4.5Z"/>
    <g>
      <path class="cls-10" d="M227.1,58.1s2.4,0,4.5.7c2.1.7,5.1,3,5.1,3,0,0,.9.7.9,1s-.6-.6-2.4-1.6-3.3-1.7-4.4-2-3.6-.3-3.6-.3v-.8Z"/>
      <path class="cls-10" d="M227.1,60.2s2,.2,4.2,1.4,5.1,4.3,5.1,4.3c0,0,.5,1.6,0,1.2s-2.4-2.8-3.8-4.1c-1.4-1.3-4.9-1.9-4.9-1.9h-.9l.3-.8Z"/>
      <path class="cls-10" d="M227.1,62.2s2.7,1,4.2,2.2,4.7,5.6,4.7,5.6c0,0,1,2.1.7,2s-2.2-4-4-5.5c-1.8-1.5-3.1-2.7-4.3-3.1s-1.5-.4-1.5-.4l.3-.7Z"/>
      <path class="cls-10" d="M227.1,64.9s3.6,3,4.7,4.2.7,1.6.6,1.4-3.2-3.2-4-3.8c-.7-.6-1.3-1.1-1.3-1.1v-.8Z"/>
    </g>
    <path class="cls-10" d="M226.1,67.4s3.1,3,3.2,3.1-.2.4-.6,0-3.2-2.8-3.2-2.8l.6-.3Z"/>
    <path class="cls-16" d="M218.6,14.8s1.3-1.1,3.5-.7c2.2.4,7.3,1.2,10.2,6.2,4.6,7.7-3.4,9.7-3.4,9.7,0,0-1.3.5-1.7-1.7,0-.3,0,1.9-.2,1.7-.7-.5-.7-2.1-1.3-2.7s.1,1.7-.3,1.2-2.2-1.7-2.6-2-1.3-.6-1.3-.6c-.5-.1-.6,0-1.1.9-.4.9-1.4-1.5-1.6-1.3-.6.6-2.4,2.6-2.7,3.5-.3.9,0,2.9,0,2.9,0,0-.5-1.4-.6-1s0,2.6,0,2.6l-.9-1.7.4-6.9s1-9.5,3.5-10Z"/>
    <path class="cls-16" d="M194.8,25.2s.6-3.4,3.9-4.7,5.3-1.9,5.2-.9c0,1-2,6-2.3,6.6s-1.8,3.5-3.4,3.4-3.5-.3-3.4-4.3Z"/>
    <path class="cls-16" d="M191.7,35.1c0-.2,2.5-3.5,4.3-4s3.1.3,2.9,1.2-1.9-.5-3.2,1.7c-.7,1-3.5,4.4-3.9,3.6-.5-.8,0-2.5,0-2.5Z"/>
    <path class="cls-1" d="M207.6,58.1s1.3-3.5,3.6-3.5,5.9,0,6.5,0,3.3,0,4.2,1.5.5,4.8,0,6.1c-.5,1.3-3.2,4.2-4.8,4.6s-2.1.5-4.4,0c-2.3-.5-3.9-4.3-4.5-5s-.6-2.6-.6-3.6Z"/>
    <path class="cls-11" d="M209.8,58.1s.9-1.9,3.6-2.2,5,0,5.9.4,2,1,2,1.8-.5,1.3-.9,1.1-2.9-.3-2.9-.3l-.2,1.6s-.2,1.2.3,1.7,1.1.3,1.4.3,1.5-.1,1.5,0-1,.8-1.7.8-1.5-.6-2-1.1-.3-3.4-.3-3.4c0,0-2.3-.2-3.4-.1s-3,1.8-3,1.8c0,0-.6-.4-.8-.9s.3-1.5.3-1.5Z"/>
    <path class="cls-11" d="M210.4,62.9s-.1-.4.7-.4,1.3.5,1.6,0,.7-1.3.7-1.3c0,0,.3-1.4.7-1.1s-.1,1.7-.2,2,0,1-.9,1.1-2.6-.4-2.6-.4Z"/>
    <path class="cls-2" d="M196.2,38.9s-.3-.8.5-1.5.6-.6.6-.6c0,0,.4,0,.4.2s-.2,1.3,0,1.7.9.9,1.9.8,1.3-.6,1.3-.6l.4-.3.3-.4s.9,0,.8.8-1,1.8-2.8,2-3.1-.9-3.3-2Z"/>
    <path class="cls-14" d="M197.2,36.8h.6s0-.1,1.1.2,2.9.6,2.9,1.4-1.1,1.5-2.4,1.4-1.7-.4-2.2-1.3c-.4-.8,0-1.6,0-1.6Z"/>
    <path class="cls-6" d="M198.1,36.8l2.1.4.6.3s0,.5-.2.7-.1.4-1.1.4c-1.9,0-1.4-1.9-1.4-1.9Z"/>
    <path class="cls-12" d="M199.7,37.1s.6.1.9.4,0,.5-.4.6-.7-.1-.8-.4.1-.6.4-.6Z"/>
    <path class="cls-5" d="M196.2,38.2s.2,1.4,1.2,1.9c1,.5,3,.7,3,.7,0,0-1,.4-2.2.2s-2.1-1.1-1.9-2.9Z"/>
    <path class="cls-2" d="M229.3,38.7s.3-.8-.5-1.5-.6-.6-.6-.6c0,0-.4,0-.4.2,0,.2.2,1.3,0,1.7s-.9.9-1.9.8-1.3-.6-1.3-.6l-.4-.3-.3-.4s-.9,0-.8.8c0,.9,1,1.8,2.8,2s3.1-.9,3.3-2Z"/>
    <path class="cls-14" d="M228.3,36.6h-.6s0-.1-1.1.2-2.9.6-2.9,1.4c0,.8,1.1,1.5,2.4,1.4s1.7-.4,2.2-1.3c.4-.8,0-1.6,0-1.6Z"/>
    <path class="cls-6" d="M227.4,36.6l-2.1.4-.6.3s0,.5.2.7.1.4,1.1.4c1.9,0,1.4-1.9,1.4-1.9Z"/>
    <path class="cls-12" d="M227,36.6s-.6.1-.9.4,0,.5.4.6.7-.1.8-.4-.1-.6-.4-.6Z"/>
    <path class="cls-5" d="M229.3,38s-.2,1.4-1.2,1.9-3,.7-3,.7c0,0,1,.4,2.2.2s2.1-1.1,1.9-2.9Z"/>
    <path class="cls-16" d="M193,41.1s2.4,5.3,3.1,7c.8,1.7,1,3.1.9,3.6s.6.8,1,0c.5-.8,1.9-2,1.9-2h.8c0,0,.7.3,0,.9s.3,1,.3,1c0,0-1.4.3-2.2,1.5-1.3,1.9-5.4,1.2-7.8-1.4-1.9-2-2.4-5.9-2.4-5.9,0,0-.9-1.5,0-2.2.9-.7,2-3.2,2.2-3.3s2,.6,2,.6Z"/>
    <path class="cls-16" d="M229.4,45.5s1.2-4.8,2.3-5.1,4.3,2.2,4.8,3.9c.5,1.7,0,10.3,0,10.3v1.3c0,0-1.2-3.9-2.3-6.9s-5-3.6-5-3.6Z"/>
    <path class="cls-16" d="M226.1,32.1s1.8-1.5,4.3-.8,2.7,5.3,2.7,5.3c0,0-.6,1.4-.8,1s-1.7-2-2.9-2.7-3.3-2.8-3.3-2.8Z"/>
  </g>
  <g>
    <path class="cls-16" d="M163.8,14.3s.5.3,1,.5,1.4.3,1.4.3c0,0-1.2,1.8-2.4,2.3s-3.1,2-3,2.5,2.5.9,3.9,0,8.7-7.3,10.7-8.4c2-1.1,5.9-3.3,7.9-3.2s3.9,1.5,4.2,1.9.6,1.1.6,1.1c0,0-2.7-.9-5-.3s-6.2,2.7-6.4,3.4,2.5,4.5,3,5.1,1.5,1.4,1.2,1.9-1.2.6-1.4,0-3.4-4.7-4-5.3-.9-1.7-2-1c-1.1.6-5.4,4.2-6.2,4.6s-5.5,2.1-6.1,2.1-2.1-1.1-1.5-1.8c.6-.8,2.3-3.3,2.3-3.3l1.8-2.3Z"/>
    <path class="cls-16" d="M179.6,14.5l4.3,2.3s1.4,1.1,1.5.5-1-1.4-1.7-1.8-4.7-2.1-4.1-1Z"/>
    <path class="cls-16" d="M175.9,20.2s.3-2.3.6-1.9,1,2.8,1,2.8c0,0,.5,2.4,0,2s-1.6-3-1.6-3Z"/>
    <g>
      <path class="cls-16" d="M237.5,15.4s.8-.9,2.1-.8,2.9,1.1,2,1.1-1.4,0-2.4,0-1.7-.4-1.7-.4Z"/>
      <path class="cls-16" d="M240.1,24.8s4.2-1.1,4.8-1.6,2.7-.7,2.5-.4-2.6.5-2.4.9c.2.4,1.1.3,1.1.5s-1.4.7-2,.6-2.6.6-2.9.6-1.4-.2-1-.6Z"/>
      <path class="cls-16" d="M241.2,12.4s3.4,4,4.9,6.2c1.5,2.2,3,5.9,3.1,6.1s.7.7.7.2c0-.5-2.7-7.3-4.1-8.5-1.4-1.2-2.7-4.1-3.6-4.1h-.9Z"/>
      <path class="cls-16" d="M240.3,6.7s4.2.9,6,2.8c1.8,1.9,3.4,3.2,3.5,2.9s-1.8-2.9-2-3.1-.9-2.1-2.2-2.4-5.3-.2-5.3-.2Z"/>
    </g>
  </g>
  <g>
    <path class="cls-16" d="M19.7,132.9s2.5-12.5,3.2-14c.7-1.5,3.4-6.1,3.4-6.1l-2.6,1.3s3.2-8,4.8-10.5c1.6-2.5,6.3-9.6,7.4-11.2,1.1-1.6,4.8-5.1,4.6-4.7s-3.9,4.7-4.4,5.5c-.6.8,1.3-.5,1.4-.7s.4.3,0,.7-2.2,3-2.6,4.1,3.5-4.3,4.6-5.6c1.1-1.3,3-3,3-3,0,0-3.6,5.3-4.3,6.3s-3.2,6.4-3.5,7.4,0,2.2,0,2.2c0,0,2.3-6.7,3.9-8.4l-2.8,9.1s2.6-6.8,2.7-6c.2.7-2.8,7.5-3.2,9.6-.3,2.1-.3,4.4-.3,4.4,0,0,3.6-9.3,4.8-12.2,1.1-2.8,5.1-9.9,5.4-10.1s-.5,1.8-.8,2.2-1.6,4.7-1.9,5.2-.8,2.3,0,1.3c.8-1,3.2-7.2,3.4-6.9s-.6,2.2-.7,2.4-2.8,5.9-2.2,5.3,6.1-11.5,6.5-12.1,0,.3,0,.7-3.7,8.9-4.5,10.3c-.8,1.4-3,4.6-3,4.6,0,0,.1.2,1.6-.7,1.5-1,5-3.3,6.4-4.9s2.6-3.4,2.6-2.8-3.2,4.7-4.5,5.9c-1.3,1.3-6.5,5.9-6.5,5.9,0,0-3.2,2-2.6,1.9s4.3-1.5,7.2-3.1,5.9-4.2,5.6-3.6-4.9,4.6-5.5,4.9-5.7,2.6-5.7,2.6c0,0,1,.4,3-.2,1.9-.6,7.4-2.8,7.2-2.2s-1.9,1.7-2.5,2-6,2.5-5.2,2.6,5.2-1.1,5.2-1.1c0,0-.9,2.3-1.2,2.8s-3.1,4.9-4.2,5.9c-1.1,1-4,3.6-4.7,3.9s-2.2.9-2.2.9c0,0,3.4-.9,6.8-2.8,3.4-1.9,5.2-2.6,5.7-3s4.9-4,4.5-3.1-9.3,8.2-9.8,8.9-1.4,2.3-1.4,2.3c0,0,3.5-1.8,4.7-2.8s2.5-2,2.3-1.4-3.5,4.2-3.5,4.2c0,0-2.6,3.2-2.8,5.1-.2,1.9-.3,3.1.2,2.4s0-2.4,2.1-5,3.6-4.3,3.5-3.8-1,3.5-.9,4.9c0,1.5,1.6,4.8.3,7.7-1.4,3-4.4,7.5-5.6,8.9s-2.3,3.3-3.6,2.8-2.6-1.2-2.7-9.2c-.1-8-2.2-12.6-4.7-14.5-2.6-1.9-2.8-2.3-4.2-3.8s-.6-4.7-.6-4.7c0,0-2.8,5.9-3.6,7.6s-3,7.7-3,7.7Z"/>
    <path class="cls-16" d="M29.2,99.6c0-.2,1-3.5,3.8-6.7,2.8-3.2,5.3-5,5.1-4.7s-4.2,5.3-5.1,6.3-3.3,6.1-3.8,6.1,0-1.1,0-1.1Z"/>
    <path class="cls-16" d="M50.2,93.3s2.1-5,6.1-7.6c4-2.6,15.4-6,15.9-6.2s4.7-1.1,5.6-1.2,6.5-.4,5.8,0-6.3.3-6.7.5,3.8.2,3.8.2c0,0,7.5.3,7.8.3s-.4.4-.8.4-6.1-.2-10.2.1-4.9.9-4.6,1,3.2-.1,5.6,0,3.7.4,4.7.4c2.2,0,7.6.9,7.7,1.4s-1.8-.2-3.7-.3-8.1-.8-8.1-.5,8.4,1.2,8.4,1.2c0,0,.4.5,0,.4s-9.3-1.2-16.5-.6c-7.2.6-9.2,1.5-10.8,2.4-1.6.9-4.3,2-6.3,4.5-2,2.6-3.4,4.4-3.4,4.4,0,0-.2,0,0-.6Z"/>
    <path class="cls-16" d="M78.7,77.3s2.6-.2,4.5-.3,3.4.2,3.2.3-4.4.3-4.4.3c0,0-3.9,0-3.3-.3Z"/>
    <path class="cls-16" d="M64.8,103.4s-.5-3.2.2-5.6c.7-2.5,4.4-5.6,4.6-5.6s.8-.6.5,0-2.8,3.1-3.5,5.5c-.8,2.4-1.1,4.3-1.1,4.3,0,0-.2,2.6-.6,1.4Z"/>
    <path class="cls-16" d="M66.8,101.3c0-.1.5-3.8,2.3-6.6s5.4-5.5,7.8-6.4c2.3-.9,5.3-1.1,4.7-.6-.6.5-5,1.1-6.7,2.5s-4.3,3.5-5.2,5.1-.7,2-.2,1.1,2.5-2.9,3.2-3.1c0,0,.3,0-.7,1.6s-1.4,4.4-1.4,4.4c0,0,1.7-1.9,3.6-2.9s3.9-1.9,3.8-1.4-2.6.5-4.5,2.8-2.9,3.4-3.4,5.4c-.5,2-1,4.1-1,4.6s0,1.4-.3,1.1-.6-3.1-.6-4.4c0-1.3.2-3.9,0-3.6s-.5,1.9-.6,1.4c0-.6.4-2.8.7-3.3s.6-1.8.3-1.4-1.7,4.8-1.9,4.6,0-.9,0-.9Z"/>
    <path class="cls-16" d="M72.4,96.6s.9-2.2,3.6-4.1c2.7-1.9,3.8-2.6,4.6-2.5s-1,.8-1.4,1.1-2.7,1.3-4.3,3.1-2.6,3.5-2.8,3.3.3-.9.3-.9Z"/>
    <path class="cls-16" d="M102.8,78s5.9.9,13.7,1.4c7.8.5,17.3.6,17.3.6,0,0,8.1-1.6,7.5-.7s-7.5,2.7-9.6,3.2-6.5,1.1-7.8,1.1,3,1,6.7.9,7.3-.4,6.4,0c-.9.4-4.8,1.1-10.6,1.4s-13.4-1.8-12.3-1.9,5.1-.2,4.4-.7-4.5-1.6-6.2-2-10.6-3.5-9.6-3.4Z"/>
    <path class="cls-16" d="M86,92.7s1.3-4.3,7.2-7.1,14.8-3.4,14.8-3.1-3.6.9-6.8,2.6c-.7.4-3.6,2.4-3.7,2.5s3.4,0,4.6.2,1.4.3,1.4.3c0,0-.4.3-.8.6s-4.4,1.9-5.9,3.5c-1.5,1.5-1.6,2.2-1.6,2.2,0,0,0-.7,2.8-1.7s-1.5,2.6-1.5,2.6c0,0-1.5,3.1-1.6,3.6s.9-1.2,1.8-2.1c.9-.9,5-3.2,6-3.5s2.1-1.1,2.1-.6-6.1,3-7.5,5.6,0,.5.8-.2c.4-.4,2.6-2.1,5.1-3.2s5.9-3.1,7.8-3.7c1.9-.6,2.9-1,2.5-1s-3.5.4-6.7,1.1c-2.4.5-5,1.5-4.9,1.3.4-.4,2.8-2,5.6-2.8,5.3-1.4,6.5-1.6,9.7-1.7,4.1,0,4.2-.2,1.8,1.3s-4.9,2.8-7.1,6c-2.3,3.2-2.2,8.6-2.2,8.7s.7-2.8,1.2-3.5c.4-.7,2.4-4.1,3.6-4.8,1.2-.7.2.6,0,1.2s-1.3,4.7-1.5,6.5c-.3,1.8-.1,4.6,0,4.2,0-.4,1.2-4.5,2.2-5.8,1-1.3,3.5-4.4,3.4-3.5s-2.4,7.5-2.4,7.5c0,0-1.9,5.2-.9,3.9,1-1.3,3-3.7,3.3-4.1s2.1-4.2,2.3-3.1c.1,1.1.1,7.2-1,8.8-1.1,1.6-1.3,3.8-1.4,5.3,0,0-.3,2.7,0,4.2s1.1,3.2.6,3.2-2-3.6-2.2-6.1c-.2-2.5.7-6.8.7-6.8,0,0-1.5.9-2,1.6s-3.2,3.2-3.9,6.3c-.6,3.1-1.1,3.8-1.1,3.4s-.4-3.3.1-4.6,4.2-5.5,4.7-6.1,2.7-2.8,2.7-2.8c0,0,.4-1,0-.6-.5.4-3.9,3.9-5.4,5.6s-2.7,4.4-2.9,4.8-.4,2.9-.7,2.6-1.5-2-1.8-2.8-1.5-2.5-1-4.3,0-1.8-.1-1.6-1.3,2.9-.5,4.3c.8,1.5,2.1,3.5,1.8,3.6s-1.8-1.3-2.2-1.7-3.8-4.8-4.3-5.1-1.4-1-1.3-.6,4.1,5.2,4.1,5.2c0,0,.8,1,.4,1s-3.8-3.5-4.2-4.1-5.1-6.1-5.3-6.4-1-1.4-1-1.1,4.7,6.3,5.1,6.8,2.3,2.8,2.4,2.9-1.1-.6-1.3-.7-8.1-8.4-9.5-10.4c-1.4-2-6-8.8-4-14.1Z"/>
    <path class="cls-16" d="M123.6,106.5s-1.1-5,.6-9.7c1.7-4.7,7.6-9.1,7.8-9.1s-2.7,3.2-4.4,6.1c-.9,1.7-2,3-2.6,5.3s-.6,2.4-.7,4.4c0,.9,0,4.3-.6,3Z"/>
    <path class="cls-16" d="M126.4,104.6s3.8-7,5.5-9.2c1.7-2.2,2-1.7,1.4-.7-.6,1-4.5,9.6-6,13-1.5,3.5-2.2,5.7-2.6,7.2-.4,1.5-.3,3.8-.9,3.4s0-8.3,2.5-13.7Z"/>
    <path class="cls-16" d="M140,95.1s.5-5,1.9-8.1c1.5-3.1,2.6-4.5,2.6-4.5,0,0-1.4.8-2.3,1.8s1.1-2.3,2.3-3.6c1.1-1.4,3.6-3.3,3.6-3.3l-5.6,2.5s.3-1,2.2-2.2c1.8-1.2,8.5-3.9,10.5-5,1.9-1,7.5-4.5,6.6-3.2s-7.3,5.4-10.9,12.6c-3.6,7.3-2.7,13.5-2.7,13.5,0,0,1,9.6,1.8,15.6.8,6,3.8,23,3.2,22.3s-7.2-26.4-8.1-29.3c-.9-3-2-11.6-.6-15.7,1.5-4.1,4.2-8.6,5.1-9.6s4.2-3.4,4.2-3.4c0,0-4.8,1.5-7.7,6.9s-4.1,6.9-4.4,11.4c-.3,4.4-.5,9.5-.5,9.5,0,0-.7-2.6-1.3-8.2Z"/>
    <path class="cls-16" d="M158.6,124.1s-2.9-13.3-2.8-16c0-2.7,1-10,1.4-8.7s-.6,8.3,2.3,12.9c2.8,4.6,7.8,12.4,8.5,13.5.7,1.1,2.3,3.5,2.3,9.3s-2.4,15.1-2.6,15.9c-.3.9-1.5,2.9-1.4,2.5s.5-10.1,0-12c-.5-2-2.8,2.9-2.8,2.9,0,0,1.1-3.8-.3-7.2-1.4-3.4-4.1-11.6-4.4-13Z"/>
    <path class="cls-16" d="M170.3,150.5s1.2-14.1,1.6-14.3.7,4.2.7,5.5-.5,7.2-1.2,8.5-1.9,4.3-1.2.3Z"/>
    <path class="cls-16" d="M32.7,172.6s.5-4.6.8-5.9c.3-1.3,0-4.1.4-3.8s.8,5.1.6,7.1-2,5.9-2.1,5.3c0-.6.3-2.7.3-2.7Z"/>
    <path class="cls-16" d="M28.9,155.1s-.6-4,0-3.2,1.1,5.3,1.1,5.3c0,0-.4,2.8-.7,2.1s-.4-4.2-.4-4.2Z"/>
    <path class="cls-16" d="M167.4,104.6s2,4.4,3.8,6.1c1.8,1.7,3.9,3.9,3.9,3.9,0,0,1,.7.5.7s-5.5-2.7-7-4.4c-1.5-1.7-5.1-6.3-5.5-11.2-.5-4.9-.7-7.4,0-6.5s.2,1.8.5,2.7c.3,1.1.9,1.8,1.3,2.3.6,1,2.5,3.1,2.8,3.5s2.1,2.5,3.3,3.3c1.2.8,3.8,2.8,4.6,3.2.9.4,5.9,4.3,6.2,4.5s2.1,2.4,2.2,2.1-.7-2.5-.3-2,2.7,4.7,2.7,5.7c0,1,0,1.7,0,1.4s-2.8-4.9-4.3-6c-1.5-1.1-4.1-4-8.1-6-4-2-6-2.9-6.4-3.5Z"/>
    <path class="cls-16" d="M165.6,95.9s-.5-5.6,0-5.3.4,2.7,1.8,4.8c1.4,2.2,4.9,7,5.2,7.6.3.5,1.6,2,1.3,2s1.4,1.6,2.5,2.4,4,3.6,4.1,3.8-1.1-.5-1.6-1c-.6-.5-4.4-3.8-5.4-4.4-1-.6-2.1-1.5-3.2-2.4-1.1-1-4.1-3.8-4.6-7.5Z"/>
    <path class="cls-16" d="M168.8,95.1s-.8-4.3-.5-5.4.3.1.5.6,2.7,5.4,3.4,6.4c.7,1,3.9,5.9,4.2,6.5.3.7,1.9,3.2,1.3,2.9s-4-3-4.7-3.6-3.8-4.7-4.2-7.3Z"/>
    <path class="cls-16" d="M175.3,99.7s-2.4-5.9-1.9-5.3,5.8,8.1,6.3,8.9c.5.8,2.9,5.3,2.4,5.2s-5.6-5.8-6.8-8.7Z"/>
    <path class="cls-16" d="M174.1,92.2s.5.1,1.9,2.1c1.4,2,5.2,7.2,5.7,8.2.5,1,2.8,5.6,2.7,5.9s-.6.2-.9-.3-2.9-5.5-3.6-6.4-3.8-5.4-4.1-5.9-2.5-4.1-1.8-3.6Z"/>
    <path class="cls-16" d="M168.6,78.6s-.3-2.6.7-5c1-2.4,2.4-4.7,3.6-5.6,1.2-1,6-5.6,7.2-7s3.6-4.8,3.4-5.4-1.8,2.2-3.4,3.9c-1.6,1.6-7,6.4-8,7s-3.9,4.4-4.2,7c-.3,2.6-.3,5.6,0,6s.5-.8.5-.8Z"/>
    <path class="cls-16" d="M171.5,72.9s.8-3.1,3.1-5.5c2.3-2.4,7.2-5.7,7.1-5.2s-4.4,4.4-5.1,5.2-2.9,3.7-2.1,3.3,3.5-3.5,4.4-4c.9-.5,1.7-.6,1.3-.2s-3.6,4.3-4,5.1-.3,2.6-.2,1.3c.2-1.3,2.6-3.9,2.4-3.2s-1,2-1.5,3.2c-.4,1.2-.4,2.1-.5,2.6-.2.9-1,5.1-1,7,0,1.9-.1,3.3.3,4s-.1.2-1.3-1.7c-1.2-1.9-3.7-6.9-2.9-11.9Z"/>
    <path class="cls-16" d="M177.9,73.3s3.2-4.6,3.3-4.1-2.7,5.3-2.8,5.8-.8,3.3-.8,4.5.1,1.2.4.8,1.4-3.7,2.1-4.7c.7-1,2.7-3.8,2.6-3.1-.1.7-2.4,4.1-2.5,5.1s.8-.4,1-.7,1.7-2.2,1.5-1.1-2.1,3.5-2.1,6.4c0,2.8-.3,4.8,0,5.9s1.2,3.9,2.6,5.9,3.7,5,5.5,6.5c1.8,1.6,5.5,4.4,4.7,4.1s-3.6-2.5-4-2.8-5.7-5.9-6.5-6.8c-.7-1-3.9-8.2-4.3-8.8s-1.8-4.7-1.9-6.5c0-1.8.7-4.6,1.4-6.1Z"/>
    <path class="cls-16" d="M182.2,82s1.3-4.1,1.4-3.5-1,2.9-1.2,4.8c-.2,1.9.3,3.8-.3,3.3s0-4.6,0-4.6Z"/>
    <path class="cls-16" d="M184.5,81.9s.5-5.5.9-4.8,1.3,7.3,1.9,8.9,3.4,9.7,4.2,11.4c.7,1.7,4.2,6.7,4.5,7.1s.2,1.2,0,.9-6.8-5.6-9.1-10.9c-2.3-5.3-2.4-11.8-2.3-12.7Z"/>
    <path class="cls-16" d="M185.9,102.5s.1-.3.6,0,5.2,4.2,6.1,4.9c.9.7,4.2,3.6,4.5,5.9.3,2.3,0,4.6,0,6s-.4,2.4-.5,1.8-.2-7-1.3-8.6c-1.1-1.6-1.5-3.1-1.5-2.5s.9,2.7.3,2.4-.9-1.6-1.1-2.3-1.2-2-1.1-1.3c.1.7.3,2.3.3,2.9,0,.6-.3.7-.5-.2s-2.2-4.8-2.5-5-3.2-4.1-3.2-4.1Z"/>
    <path class="cls-16" d="M173.2,61.8s2.6-1.5,4-5.2c1.4-3.7,1.7-4.4,1.8-4s-1.1,5-2.9,7.3c-1.8,2.3-2.3,3.2-2.9,2.8s0-1,0-1Z"/>
    <path class="cls-16" d="M179.3,171.3s5.4-4.6,7-4.4,5.2-.3,7.8.9c2.6,1.2,4.1,6,4.4,7.2s0,2.4,0,2.4c0,0-1.8-3-3.2-3.3s-3.1-.4-2.7,0,.3,1.4-.6,1.1-2.6-.6-3-1-1.3-1.2-1.2-.7c0,.5,1,2.2,1.2,2.6s-.1.6-1,.4-2.7-1.5-2.6-1,.9,1.5,1.5,1.9,2.6.6,1,.8-4.3-.6-4.3-.6c0,0,.7.8,1.4,1.1s2.6.3,1.4.6c-1.2.3-4.7.2-4.5.5s2,.6,1.5.9-2.2.4-2.7.6-1.9,0-1.9,0c0,0,1.2-2.5,1.1-3.8s-.5-1.8.4-2.7c.9-.9,2.9-2,2.5-2.5s-3.4-.9-3.4-.9Z"/>
  </g>
</svg>