<?xml version="1.0" encoding="UTF-8"?>
<svg id="Livello_1" data-name="Livello 1" xmlns="http://www.w3.org/2000/svg" version="1.1" viewBox="0 0 137.4 115.7">
  <defs>
    <style>
      .cls-1 {
        fill: #6b453a;
      }

      .cls-1, .cls-2, .cls-3, .cls-4, .cls-5, .cls-6, .cls-7, .cls-8, .cls-9 {
        stroke-width: 0px;
      }

      .cls-2, .cls-10 {
        fill: none;
      }

      .cls-3 {
        fill: #eec49b;
      }

      .cls-4 {
        fill: #ebb780;
      }

      .cls-5 {
        fill: #774f40;
      }

      .cls-6 {
        fill: #8e6854;
      }

      .cls-10 {
        stroke: #fff;
        stroke-linecap: round;
        stroke-linejoin: round;
        stroke-width: 9.8px;
      }

      .cls-7 {
        fill: #64433a;
      }

      .cls-8 {
        fill: #f5e1c9;
      }

      .cls-9 {
        fill: #af7d6e;
      }
    </style>
  </defs>
  <path class="cls-10" d="M132.2,13.6c-.5-1-1-1.2-1.4-1.2-.9-.6-2.2-1-4.7-2.3-4-2.1-9.6-2.1-13.5-1.6s-17.7,6-23.3,7.4c-.9.2-1.8.3-2.8.5-.3-.3-.7-.6-1.2-.8-2-.8-10.8-1.1-12.6-.8-1.8.3-2.3,1.6-2.3,1.7-5.4-.5-13.5-2.3-19.8-3.1-2.3-.3-4.7-.4-7.3-.4,1.9-.2,3.3-.3,3.5-.3,0,0-9.9-.3-11.1,0-1.2.3-6.6.3-11.3,2.4-.3.1-.7.4-1,.6-1.5-.4-3.2-.3-5.1.2-2.1.6-4.2,1.7-6.1,3.2-4.5,3.7-6.4,8.9-5,12.5,0,0,0,0,0,0,0,0,.2.7.8,1.6-.7,2-1.4,4-1.8,5.5-.4,1.1-.7,2-.8,2.8-.7,6.3-.9,26.9,1.2,33.2,1.6,4.9,2.1,7.5,2.1,9.7-.2.4-.3.7-.3.7,0,0,0,1.5-.2,3.3-.3,1.8-.8,4-1.1,5.6,0,0,0,0,0,.1-1.1,2.2-.2,4.9,0,5.4-.1.2-.8,1.5,2.3,3.4,3.3,2.1,4,1.6,12.1-.9,0,0,0,0,0,0,0,0,0,0,0,0,7.7-2.4,11-4.8,15.7-7.6.2-.1.4-.2.6-.4,0,0,0,0,0,0,.9-.5,1.9-1.2,3-2,6.5-4.5,11-9.1,13.7-12.1,0,0,0,0,.1-.1.8-.9,1.9-1.8,3.1-2.8,2,2.4,6.6,8.6,6.6,13.9s-2.4,16.7-2.4,16.7h5.3s2.7-20.8,1.6-27.8c-.9-5.6-.9-8.3-.8-9.4.4-.3.7-.5,1-.8,0,0,.2-.1.3-.2,2-1.4,3.8-2.8,4.6-3.4.3-.2.7-.5,1.2-.9.2-.1.3-.3.5-.4,2-1.7,4.7-4.1,4.7-4.2.4-.3.9-.5,1.3-.7.2.3.5.6.7.6,1.2.4,1.3-.6,1.4-1.2,0,0,0-.3,0-.5,1.2-.5,2.3-.9,3.4-1.3.7-.2,1.4-.4,2.1-.6.6-.2,1.1-.3,1.4-.3,2.4-.3,9.1-1,16.8-7.1.4-.3.6-.6,1-.9.2-.2.4-.3.6-.5.2-.2.4-.5.7-.7,0,0,0,0,0,0,.5-.6,1-1.2,1.5-1.9.3-.4.5-.8.7-1.1.1-.2.3-.4.4-.6.2-.3.3-.5.5-.8,0,0,0,0,0,0,.7-1.2,2-4.6,2.8-6.8,1.6-2.2,3.4-4.6,4.3-6,1.1-1.7,4.7-4.3,7.6-6.5.4-.3.8-.5,1.3-.8,2.6-1.6,3.6-3.2,3.8-4.7.4-1.5.2-3.1-.3-4.2ZM64.8,82.5c-.6-1-2.9-4.7-3.8-5.8-.4-.4-1-.9-1.5-1.4,1.7-1.2,3.5-2.4,5.1-3.2.3,1.6.8,4.1.8,4.9,0,1.3.1,6.5-.5,5.4Z"/>
  <g>
    <path class="cls-4" d="M56.6,75.8s7.5,8.2,7.5,14.9-2.4,16.7-2.4,16.7h5.3s2.7-20.8,1.6-27.8c-1.3-8.2-.6-10.2-.6-10.2l-3.7,1.4s1,5,1,6.3.1,6.5-.5,5.4-2.9-4.7-3.8-5.8-3.1-2.5-3.1-2.5l-1.3,1.6Z"/>
    <path class="cls-6" d="M6.3,95.8s1.6-7.3,1.9-9.9c.3-2.6.1-5.2-1.9-11.5-2.1-6.3-1.9-26.9-1.2-33.2.7-6.3,13.5-22.1,22-25.4s16.6-3.5,23.4-2.6c6.8.9,15.6,2.9,21,3.2,5.4.3,12.2.8,17.7-.6,5.6-1.4,19.3-6.9,23.3-7.4s9.6-.5,13.5,1.6c4,2.1,5.2,1.7,5.9,4,.7,2.3,1.7,5.2-3.3,8.3-5,3.1-8.7,5.4-11.6,9.8-3,4.4-3.1,11.6-9.8,16.9-7.7,6.1-14.4,6.8-16.8,7.1s-10.6,3.1-13.2,6.3c-2.6,3.1-5.1,4-8.4,6.8-3.3,2.8-9.8,4.9-12.3,7.6-2.4,2.8-10.1,12.5-24.1,19.7-7.2,3.7-15.6,7.6-21.5,6.3-5.3-1.2-4.6-7.3-4.6-7.3Z"/>
    <path class="cls-5" d="M8.1,84.8s2.9-8.6,9.5-11.2c15.5-5.9,6.8,6.4,11.4,5.1,3-.8,12.1-8.2,14.2-9.6,2.1-1.4,6.1-5.6,10.8-6.9,4.7-1.4,12.9-3.8,14.8-5.2s6.1-7.2,7.1-9.4c1-2.2,5.7-4.6,9.4-4.6s13.4-.5,16-1.6c2.6-1,8.7-8,9.4-10.2s4.3-7.3,8.2-9,8.5-1.2,10.6-3.3c2.1-2.1.7-6.1.7-6.1,0,0,1.2-1,2.1.9s1,5.2-1.6,7.3c-2.6,2.1-9.3,6.5-10.9,8.9-1.6,2.4-6.2,8.1-6.9,9.8-.7,1.7-3.1,6.2-6.3,9.2-3.1,3-6.1,4.9-8.9,5.4-2.8.5-14.6,4.1-15.8,4.7s-11.3,6.4-12.3,7.1-13.4,8.2-13.4,8.2l-15.1,12.9-12.9,8.9-16,4.4-5.6-1s-1.2-3.1,0-5.6,1.4-9,1.4-9Z"/>
    <path class="cls-5" d="M46.7,12.6c-.5,0-11.4.6-15.2,3.2-2.7,1.8-2.8,3.4-2.3,5s-2.3,12-6.5,14.7-8.3,2.6-11,2c-4.9-1.2-6.5,3.8-6.5,3.8,0,0,3-10.9,5.9-15.3,3-4.3,8.5-8.9,13.2-10.9,4.7-2.1,10.1-2.1,11.3-2.4s11.1,0,11.1,0Z"/>
    <path class="cls-3" d="M70.3,16.4s.5-1.4,2.3-1.7,10.7,0,12.6.8c2,.8,2.8,3.3,1.7,4.5-1.1,1.2-3.8,3.2-4.8,5.6-1,2.3-1.8,3.5-2.1,7.3-.3,3.8.3,12.4.6,14.2.3,1.9,2.4,9.1,2.4,9.1,0,0,.6,2.3.5,2.9s-.2,1.6-1.4,1.2c-1.2-.4-2.4-4.1-3.6-8.7s-1.8-12.6-1.7-14.1.2-9.1-.6-11c-.8-2-1.6-4.1-2.6-4.9s-4.3-2.3-3.4-5.1Z"/>
    <path class="cls-8" d="M76.6,22.1s-2.4-2.5-3.2-2.8-3.1-1.7-1.9-2.8c1.2-1.1,3.9-1,6.5-1.1s6,1,6.2,1.8-.1,1.8-.9,1.6c-.8-.2-3.7-.7-4.6.4s-.5,3.2-2.1,3Z"/>
    <path class="cls-7" d="M10.5,99s14.8-3.6,20.3-7.2c5.6-3.6,13.4-10.7,15.8-12.2,2.4-1.5,6.9-6.4,9.9-7.3,3-.9,10.9-5,12-5.9,1.2-.9,5.2-4.3,6.5-4.9s5-1.2,5-1.2c0,0-4.8,4.4-6.4,5.5s-5.9,4.6-9.3,6.3c-3.3,1.7-7.8,5-10.1,7.5s-11.6,11.3-16.8,14.2c-5.2,2.9-8.3,5.4-16.5,8-8.2,2.6-8.8,3-12.1.9s-2.3-3.5-2.3-3.5l3.8-.3Z"/>
    <path class="cls-7" d="M102.5,52.1s5.7-5.3,7.6-8.9c2-3.6,5.9-9.3,5.9-9.3,0,0-2.5,6.9-3.5,8.7s-2.2,3.9-3.8,5.3c-1.5,1.4-6.2,4.3-6.2,4.3Z"/>
    <path class="cls-2" d="M6.3,95.8s1.6-7.3,1.9-9.9c.3-2.6.1-5.2-1.9-11.5-2.1-6.3-1.9-26.9-1.2-33.2.7-6.3,13.5-22.1,22-25.4s16.6-3.5,23.4-2.6c6.8.9,15.6,2.9,21,3.2,5.4.3,12.2.8,17.7-.6,5.6-1.4,19.3-6.9,23.3-7.4s9.6-.5,13.5,1.6c4,2.1,5.2,1.7,5.9,4,.7,2.3,1.7,5.2-3.3,8.3-5,3.1-8.7,5.4-11.6,9.8-3,4.4-3.1,11.6-9.8,16.9-7.7,6.1-14.4,6.8-16.8,7.1s-10.6,3.1-13.2,6.3c-2.6,3.1-5.1,4-8.4,6.8-3.3,2.8-9.8,4.9-12.3,7.6-2.4,2.8-10.1,12.5-24.1,19.7-7.2,3.7-15.6,7.6-21.5,6.3-2.5-.6-3.7-2.2-4.2-3.8s-.4-3.5-.4-3.5Z"/>
    <g>
      <path class="cls-6" d="M16.5,34.9c-3.6,1-6.8.2-8.5-1.9-2.9-3.5-1-9.8,4.1-14.1,1.9-1.5,4-2.6,6.1-3.2,3.6-1,6.8-.2,8.5,1.9,1.4,1.7,1.8,4.1,1,6.8-.8,2.6-2.6,5.2-5.1,7.3-1.9,1.5-4,2.6-6.1,3.2h0Z"/>
      <path class="cls-1" d="M25.9,16.9c2,2.5-1,10.5-7.3,14.5-4,2.5-10.3,2.5-11.6,0,0,0,2.4,7.7,12.3,2.4,1.5-.8,2.2-1.2,4.5-3.3,1.7-1.6,3.1-3.8,4-6.8,1.3-4.6-1.9-6.8-1.9-6.8Z"/>
      <path class="cls-9" d="M24.8,18.3c-1-.7-6.2,0-8.5,1.6-3.4,2.4-5.1,4.3-7.6,8.4.4-2,1-5.2,5.8-9,3.6-3,8.2-3.4,10.3-1h0Z"/>
    </g>
    <g>
      <path class="cls-6" d="M37.6,31.5c-2.7.7-5.1.2-6.4-1.4-2.2-2.6-.8-7.4,3.1-10.6,1.4-1.1,3-2,4.6-2.4,2.7-.7,5.1-.2,6.4,1.4,1.1,1.3,1.3,3.1.7,5.1-.6,2-1.9,3.9-3.8,5.5-1.4,1.1-3,2-4.6,2.4h0Z"/>
      <path class="cls-1" d="M44.7,18c1.5,1.8-.7,7.9-5.5,10.9-3,1.9-7.7,1.8-8.7,0,0,0,2.2,5.4,9.2,1.8,1.1-.6,1.6-.9,3.4-2.5,1.3-1.2,2.3-2.8,3-5.1,1-3.4-1.4-5.1-1.4-5.1Z"/>
      <path class="cls-9" d="M43.9,19.1c-.7-.5-4.6,0-6.3,1.2-2.5,1.8-3.8,3.2-5.7,6.3.3-1.5.7-3.9,4.3-6.7,2.7-2.2,6.2-2.6,7.7-.7h0Z"/>
    </g>
    <g>
      <path class="cls-6" d="M18.7,85.9c-2.2.6-4.2.2-5.3-1.2-1.8-2.2-.7-6.1,2.6-8.8,1.2-1,2.5-1.6,3.8-2,2.2-.6,4.2-.2,5.3,1.2.9,1.1,1.1,2.6.6,4.3-.5,1.6-1.6,3.3-3.2,4.5-1.2,1-2.5,1.6-3.8,2h0Z"/>
      <path class="cls-1" d="M24.6,74.7c1.3,1.5-.6,6.6-4.6,9-2.5,1.6-6.4,1.5-7.3,0,0,0,1.9,4.5,7.7,1.5.9-.5,1.4-.7,2.8-2.1,1.1-1,1.9-2.4,2.5-4.3.8-2.9-1.2-4.2-1.2-4.2Z"/>
      <path class="cls-9" d="M24,75.6c-.6-.4-3.8,0-5.3,1-2.1,1.5-3.2,2.7-4.7,5.2.2-1.3.6-3.3,3.6-5.6,2.3-1.9,5.1-2.1,6.4-.6h0Z"/>
    </g>
  </g>
</svg>