<?xml version="1.0" encoding="UTF-8"?>
<svg id="Livello_1" data-name="Livello 1" xmlns="http://www.w3.org/2000/svg" version="1.1" viewBox="0 0 137.4 115.7">
  <defs>
    <style>
      .cls-1 {
        fill: #515836;
      }

      .cls-1, .cls-2, .cls-3, .cls-4, .cls-5, .cls-6, .cls-7, .cls-8, .cls-9, .cls-10, .cls-11, .cls-12, .cls-13, .cls-14, .cls-15, .cls-16, .cls-17, .cls-18, .cls-19, .cls-20, .cls-21, .cls-22 {
        stroke-width: 0px;
      }

      .cls-2 {
        fill: #592f2c;
        opacity: .4;
      }

      .cls-3 {
        fill: #774337;
      }

      .cls-4 {
        fill: #bf8a66;
      }

      .cls-5 {
        fill: #6e4137;
      }

      .cls-6 {
        fill: #995f4d;
      }

      .cls-7 {
        opacity: .3;
      }

      .cls-7, .cls-12, .cls-21 {
        fill: #63221b;
      }

      .cls-23 {
        fill: none;
        stroke: #fff;
        stroke-linecap: round;
        stroke-linejoin: round;
        stroke-width: 3.5px;
      }

      .cls-8 {
        fill: #753e34;
      }

      .cls-9 {
        fill: #68352f;
      }

      .cls-10 {
        fill: #5b352f;
      }

      .cls-11 {
        fill: #935e47;
      }

      .cls-12 {
        opacity: .1;
      }

      .cls-13 {
        fill: #ffffcd;
      }

      .cls-14 {
        fill: #864534;
      }

      .cls-15 {
        opacity: .3;
      }

      .cls-15, .cls-22 {
        fill: #402219;
      }

      .cls-16 {
        fill: #cc9f81;
      }

      .cls-17 {
        fill: #c69b84;
      }

      .cls-18 {
        fill: #7b392e;
      }

      .cls-18, .cls-19 {
        opacity: .7;
      }

      .cls-19 {
        fill: #72413b;
      }

      .cls-20 {
        fill: #fefed3;
      }

      .cls-21 {
        opacity: .7;
      }

      .cls-22 {
        opacity: .5;
      }
    </style>
  </defs>
  <g>
    <path class="cls-23" d="M73.5,67.7s0,0,0,0c0,0,0,0,0,0Z"/>
    <path class="cls-23" d="M134.5,17.5c-.1-.9-2.1-2.1-2.1-2.1,0,0-1.8-1.2-2.5-1,0,0,0,0,0,0-.5-.2-1.1-.5-1.7-.8-4-2.1-9.6-2.1-13.6-1.6-.5,0-1.1.2-1.8.4,0,0-.2,0-.4,0-1.1,0-2.1.3-2.1.3l-1.2.8c-3.8,1.2-8.6,3-12.6,4.3-.3,0-.5-.1-.5-.1-1.5-1-3.6-.3-4.4.4-.4.4-.9,1-1.2,1.5-.7.2-1.5.3-2.2.4-1.1,0-4.8.3-7.8.3-2.4,0-4.8-.2-7-.3-4-.2-9.8-1.4-15.4-2.3-.4-.4-.9-.8-1.6-1.2,0,0-.1,0-.2-.1,0,0,0,0,0,0,0,0,0,0,0,0,0,0,0,0,0,0,0,0,0,0,0,0h0c0,0-.1,0-.2,0,0,0,0,0-.1,0-.4-.1-.7-.1-.7-.1h0c-.9-.1-2.2-.3-4,.6-1.6-.2-3.2-.3-4.8-.3-3-.2-8.2-.5-9-.3-1.2.3-6.6.3-11.3,2.4,0,0-.2,0-.3.1,0,0-.1-.1-.2-.2-1-.3-1.4-.6-2.3-.9-.7-.2-1.2,0-2.1,0-.9,0-2.2,1.9-2.2,1.9,0,0-1.3,1.8-1.1,2.4.1.5.7,1,1,1.2-1,.9-2,1.8-3,2.7,0,0-.2,0-.3,0-.4,0-2.2.3-3.5.5,0,0,0,0,0,0h0c-.4,0-.8.2-1,.3-.8.3-2.1,2.3-2.4,3.5-.4,1.3.1,3.5,0,4.1,0,.5,0,2.5.8,2.7-.7,1.9-1.3,3.7-1.7,5.1-.4,1-.7,2-.8,2.8-.3,3-.6,9.4-.5,15.9-1.1,1.3-2.4,3.5-2.4,3.5-1.6,1.4-1.5,4-.9,5.1.6,1,1.6,2.2,2.3,2.7.4.3.8.4,1.1.4.4,2,1.1,5.4,1.6,5.7,1.2,3.5,1.7,5.9,2,7.8-1.4,0-2.9.3-2.9.3-2,2.2-.9,6,.8,8.2.3.6.4,1.1,1,1.2-.4,2.2-.9,4-.9,4,0,0-.2,1.7.4,3.5h0s-1,1.4,2.3,3.5c3.1,1.9,3.9,1.7,10.6-.4.5-.1,1-.3,1.5-.5,0,0,0,0,.1,0,6.5-2,9.9-4.1,13.6-6.3,1-.6,2-1.1,3-1.7,0,0,0,0,0,0,.1,0,.3-.2.4-.2v.4c0,0,2,2.3,6.7,2.5,4.7.2,6.1-1.9,6.6-2.3.5-.5,4.6-5.3,5.6-6.7l1-1.4,2.1-5.9c3.1-1.4,4.7-4.3,8-6s2.5-7.6,4.1-8.7c.4,1.6,2.6,2.6,3.2,4.1.6,1.4,1,5.3,2.4,6.1,1.4.8,0,0,.8-2,.8-2-1-4.5-1.4-5.1-.4-.6-2.9-5.9-2.9-5.9,0,0,0-.5,0-1.4,2.4-1.2,5.9-2.3,9.1-3.2.2,0,.5,0,.8,0,1-.1,1.8-.4,2.5-.8,2-.5,3.5-.8,4.2-.9,2-.3,6.9-.8,12.8-4.4-.5.4-.7.7-.7.7,0,0,1.3-.6,2.9-1.7.7-.3,1.5-.9,2.2-1.6.7-.6,1.4-1.2,1.9-1.8,1-1.2,1.8-2.5,2.5-3.9.2-.4.5-.8.7-1.2,0,0,0,0,0,0,1-1.8,3.5-8.6,3.5-8.7,0,0,0,0,0,0,1-.3,1.4-2.1,1.4-2.1,1.3-.6,2-2.1,2.1-3.2,1.8-2.3,4-4.1,8.8-6.7,3.7-2,4.3-4,4.1-5.8,0,0,0-.1,0-.2.2-.7,0-1.2-.1-2.1ZM73.7,67.7c0,0-.2,0-.2,0,0,0,.1,0,.2,0,0,0,0,0,0,.1-.1,0-.2,0-.2,0-.5.2-.8.4-1.2.7.1-.5.4-1,.9-1.6.2-.2.4-.4.6-.6,0,.5-.1.9-.2,1.4Z"/>
  </g>
  <g>
    <path class="cls-1" d="M39.6,97.8s2.1,2.3,6.8,2.5,6.1-1.9,6.6-2.3,4.6-5.3,5.6-6.7l1-1.4,2.1-5.9s-4.4,1.8-5.5,2.5-7.3,3-7.3,3l-8.5,4.8-.8,3.6Z"/>
    <path class="cls-8" d="M8,99.6s1.6-7.3,2-9.9.1-5.2-2-11.5-1.9-27-1.2-33.3,13.6-22.2,22.1-25.5,16.7-3.5,23.5-2.6,15.7,2.9,21.1,3.2c5.4.3,12.2.8,17.8-.6s19.4-6.9,23.4-7.4,9.6-.5,13.6,1.6,5.2,1.7,5.9,4,1.6,5.1-3.6,7.9c-7.1,3.8-8.4,5.9-11.4,10.3-3,4.4-3.1,11.6-9.8,17-7.7,6.1-14.4,6.8-16.9,7.2s-16.5,3.7-19.2,6.8.8,3.5-2.5,6.3-9.9,4.9-12.3,7.7-10.1,12.6-24.2,19.8-15.7,7.7-21.6,6.4c-5.3-1.2-4.6-7.3-4.6-7.3Z"/>
    <path class="cls-9" d="M48.5,16.5c-.5,0-13.4.5-16.4,3.9s-3.5,6.6-3,8.2,1.4,9-2.8,11.8-8.9,3.2-11.7,2.9-4.4,0-5.4,0-2.4,1.5-2.4,1.5c0,0,3-11,5.9-15.4s8.5-8.9,13.3-11,10.1-2.1,11.3-2.4,11.2.4,11.2.4Z"/>
    <path class="cls-10" d="M12.2,102.8s14.8-3.6,20.4-7.2c5.6-3.7,13.4-10.7,15.9-12.3s7-6.4,9.9-7.3,10.9-5.1,12.1-5.9,1.6-1.9,3-2.4,0,0,0,0c0,0,1.8.4.3,1.5s-.7,7-4.1,8.7c-3.3,1.7-5,4.6-8,6-11,5.1-17.1,10.8-22.3,13.7-5.2,2.9-8.4,5.4-16.6,8-8.2,2.6-8.9,3-12.2.9s-2.3-3.5-2.3-3.5l3.8-.3Z"/>
    <path class="cls-5" d="M104.5,56.3s5.2-4.5,7.7-9.5,5.9-9.4,5.9-9.4c0,0-2.6,6.9-3.5,8.7s-1.8,3.6-3.2,5.1c-2.5,2.8-7,5-7,5Z"/>
    <g>
      <path class="cls-16" d="M34.5,22.4s-.3-1.8,1.9-3.4,3.9-1,4.7-1,2.2,1.3,2.2,3.2-.6,4.2-3.4,4.6-5.1.2-5.4-3.4Z"/>
      <path class="cls-10" d="M41.6,18.2s1.8,1,1.7,3-.6,3.6-2.2,4.2-4.1.4-4.6.2l-.5-.2s1.7,1.5,4.3.7,3.4-2.1,3.6-3.9,0-3-2.4-4.1Z"/>
      <path class="cls-3" d="M36.1,25.5s5.1-.7,5.9-2.2.4-2.9.4-2.9v-1.1c.1,0-.7-1-.7-1,0,0,1.7,1.1,1.7,2.4s.3,3.4-1.6,4.8-1.8.6-2.4.7c-1.6.4-3.3-.6-3.3-.6Z"/>
      <path class="cls-6" d="M34.8,24s1.6,1.3,4.9,0,1.2-.8,1.4-1.4.4-1.7.4-2.3-.8-2.1-.8-2.2c0,0,1.6,0,1.8,1.4,0,0,.6,2.7-.5,4.3s-1.3,1.3-2.3,1.7c-2.1.8-2.9.4-3.6.1s-1.3-1.5-1.3-1.5Z"/>
    </g>
    <path class="cls-21" d="M54.4,23.9s3.1-.6,4.2,0,1.5,2,1.5,2l.9,6.2-.6,6.3,3.4-1.1s6,2,6.5,2.2,1.6-.4,2.1-2.2-.3-4.1-1.3-4.7-3-1-3.8-1.4-1.8-1.2-1.8-1.2c0,0-.9-1.2-1-1.9s.3-2.2-1-3.1-3.1-2.1-3.1-2.1c0,0,0-1,.8-1.2s2.5-.3,1.7-1,.3-1.2-1.4-1.1-3.3.5-3.3.5l-3.8,2.5v1.4Z"/>
    <path class="cls-16" d="M54.4,27.6s1-2.2,3.4-2.7,3.7.5,3.9,1.3-.2,2.2-.2,2.2c0,0,2-.3,2.6,1.3s.5,3.4,0,3.8-1.8,1.1-2,1-1,.8-1.1,1.3,0,1.4.4,1,2.9-3.5,4.5-4,3.6,0,4.6,1.5-.2,3.4-1.5,3.6-6.3.8-6.3.8c0,0-4.1,3.4-5.1,3.2s-4.2-3-4.4-4.6-.3-4.2.8-4.8,3.7-.7,3.7-.7l1-.5s-3.9-.1-4.2-1.5,0-2.2,0-2.2Z"/>
    <path class="cls-11" d="M58.2,26s.7,0,1.2.5.6,1.4.5,1.9-1.9,1.5-1.7,1.9,1.8-.3,2.1-.8.9-1.6.7-2.5-1.4-1.6-1.8-1.6-1,.6-1,.6Z"/>
    <path class="cls-11" d="M55,36.6s1.4,1.8,1.8,2.4,1.2-.2,1.3-.5,1.6-1.7,1.4-2.2-.4-1.8,0-2.3.8-.8.8-.3-.2,2.9-.3,3.6-.5,1.2-1.5,1.9-1.4,1.2-1.9.9-1.5-1.3-1.7-1.8,0-1.7,0-1.7Z"/>
    <path class="cls-11" d="M69,34.5s1-.2,1,.3-.4,1.7-.8,2-2.6.7-3,.7-2.3-.7-1.7-.7,1.5,0,2.3-.3,2-2,2-2Z"/>
    <path class="cls-11" d="M62.6,29.8s1.3.2,1.2,1.5-.2,1.9-.6,2.2-1.3,1.6-1.8,1-.3-.4.4-.8,1.3-1.7,1.3-2-.5-1.9-.5-1.9Z"/>
    <path class="cls-13" d="M54.8,33.7s.7,0,.8.5-.1,1-.4,1-.6.3-.8-.2.4-1.3.4-1.3Z"/>
    <path class="cls-13" d="M55,28.6s1.4-.4,1.5,0-.6.8-.7.9-.7.6-.7-.2v-.7Z"/>
    <g>
      <path class="cls-16" d="M48,21.1s-.4-2,2.2-3.8,4.5-1.2,5.4-1.1,2.6,1.5,2.6,3.7-.7,4.9-3.9,5.2-5.9.2-6.2-3.9Z"/>
      <path class="cls-10" d="M56.2,16.3s2.1,1.1,2,3.5-.6,4.1-2.5,4.8-4.7.5-5.3.3l-.6-.3s1.9,1.7,4.9.8,3.9-2.4,4.1-4.4,0-3.4-2.7-4.7Z"/>
      <path class="cls-3" d="M49.8,24.6s5.8-.8,6.7-2.5.4-3.3.4-3.3v-1.3c.1,0-.8-1.1-.8-1.1,0,0,1.9,1.2,2,2.7s.3,3.9-1.8,5.4-2.1.6-2.8.8c-1.8.4-3.7-.6-3.7-.6Z"/>
      <path class="cls-11" d="M48.4,22.9s1.8,1.5,5.6-.1,1.4-.9,1.6-1.6.5-2,.5-2.6-.9-2.4-1-2.5c0,0,1.8,0,2.1,1.6,0,0,.7,3.1-.6,4.9s-1.5,1.5-2.6,1.9c-2.4.9-3.3.4-4.2.1s-1.5-1.7-1.5-1.7Z"/>
    </g>
    <g>
      <path class="cls-9" d="M68.3,20.3s2,.5,1.3.7c-3.8,1.3-2.7,4.4-2.7,4.4l4.1.5-1.1,3.5.2.9s1.1,1.1,4.3,1.6,2.1-.5,2.6-1.5.4-2.4-.2-2.9-1.6-1-2-1.3-.9-.9-.9-.9c0,0-.3-.8-.3-1.2s.5-1.2-.2-1.9-1.5-1.6-1.5-1.6c0,0,1.7,1.1,2.2,1.1s1.4-.3,1-.8-.4-.2-1.4-.3-4-.8-4-.8l-3.2-.6,1.8,1.2Z"/>
      <path class="cls-16" d="M67.7,22.7s.9-1.2,2.3-1.1,2.1.8,2.1,1.3-.4,1.2-.4,1.2c0,0,1.2,0,1.3,1.1s-.1,2-.5,2.2-1.2.4-1.3.3-.7.3-.8.6-.2.8.1.6,2.1-1.6,3.1-1.7,2.1.4,2.4,1.5-.5,1.9-1.3,1.9-3.7-.4-3.7-.4c0,0-2.8,1.4-3.3,1.2s-2-2.2-1.9-3.2.3-2.4,1.1-2.7,2.2,0,2.2,0h.6c0-.1-2.2-.7-2.2-1.5s.3-1.3.3-1.3Z"/>
      <path class="cls-11" d="M70.1,22.3s.4,0,.6.5.2.9,0,1.2-1.3.6-1.2.8,1.1,0,1.3-.2.7-.8.7-1.3-.6-1.1-.8-1.1-.6.2-.6.2Z"/>
      <path class="cls-11" d="M66.9,28s.6,1.2.7,1.6.7,0,.8,0,1.1-.8,1.1-1.1,0-1.1.3-1.3.6-.3.5,0-.5,1.6-.6,2-.4.6-1.1.9-1,.5-1.2.3-.7-.9-.8-1.3.2-.9.2-.9Z"/>
      <path class="cls-11" d="M75.2,28.6s.6,0,.6.3-.5.9-.7,1-1.6,0-1.8,0-1.2-.7-.9-.6.9.2,1.4.1,1.4-.9,1.4-.9Z"/>
      <path class="cls-11" d="M72.1,25.1s.7.3.5,1-.4,1.1-.6,1.2-.9.7-1.1.4,0-.3.3-.4,1-.8,1-1,0-1.2,0-1.2Z"/>
      <path class="cls-13" d="M67.2,26.3s.4,0,.4.4-.2.6-.3.5-.4,0-.4-.2.4-.7.4-.7Z"/>
      <path class="cls-13" d="M68,23.4s.8,0,.8.2-.5.3-.5.4-.5.2-.4-.2v-.4Z"/>
      <path class="cls-13" d="M67.9,27.5s.3.1.1.3-.3.2-.3,0,.2-.4.2-.4Z"/>
    </g>
    <path class="cls-17" d="M69.7,19.7s5.4.6,8.6.6,10.2-.4,10.2-.4c0,0-6.2,1.9-8.3,7.2s-3.4,8.5-3.6,13.2-1.2,8.1-1,9.5,1.4,1.2.8,6.7-.4,9.9-.4,9.9c0,0,2.5,5.3,2.9,5.9s2.2,3,1.4,5.1.6,2.8-.8,2-1.8-4.7-2.4-6.1-2.8-2.4-3.2-4.1.6-4.1,0-5.3-.4-2,0-3.4-1.6-9-1-10.9,1.3-6.3,1-8,.4-2,.9-3.4.9-6.3.9-8.5-.1-3-.9-4.6-5-5.4-5-5.4Z"/>
    <g>
      <path class="cls-16" d="M35,42s3.6-.6,4.6,0,1.1.7,1.5.4.4-1.3,1.7-1.6,2.7-.4,3,1.6.8,3.5-.8,3.9-3.2.3-3.4.8-.7,3.1-1.7,4.1-.2,1.7-2.6.4-4.9-6.7-2.3-9.5Z"/>
      <path class="cls-20" d="M41.8,43.4s1.2-.5.9,0-1.1,1.1-1.4,1.1.5-1.1.5-1.1Z"/>
      <path class="cls-20" d="M36.5,43.8s.9.3.4.7-1.1.7-1.3.4.9-1.1.9-1.1Z"/>
      <path class="cls-20" d="M38.5,44.1c.2.7-.4,1.4-.6.9s.6-.9.6-.9Z"/>
      <path class="cls-11" d="M40.4,42.5s.4,3.2.2,4-1.4,2.6-2,2.8-2,.3-2.2,0-1.2-.2-.8.5.9,1.6,1.7,1.8,2,1.3,2.6-.4,1.3-3.8,1.7-4.1,1.5-1,2-1,1.3,0,1.4-.3.8-1.2.7-1.6-.5,0-.8.5-1.8.7-2.4.5-1.4-2.8-1.4-2.8h-.8Z"/>
    </g>
    <g>
      <path class="cls-16" d="M67.6,51.3s-2.1-.9-2.4-1.6-.3-.7-.6-.7-.6.5-1.4.2-1.5-.7-1-1.8.8-2.1,1.7-1.7,1.8,1,2,.8,1.4-1.4,2.3-1.5.7-.8,1.5.7.2,5.1-2.1,5.7Z"/>
      <path class="cls-20" d="M64.6,48.3s-.8-.1-.5-.3,1-.2,1.1,0-.6.4-.6.4Z"/>
      <path class="cls-20" d="M67.5,49.9s-.4-.5,0-.5.8,0,.8.2-.8.2-.8.2Z"/>
      <path class="cls-20" d="M66.5,49c.1-.4.7-.6.6-.2s-.6.2-.6.2Z"/>
      <path class="cls-11" d="M65,49.3s.9-1.8,1.3-2.1,1.6-.9,2-.8,1.2.5,1.2.8.6.5.6,0,.1-1.1-.3-1.5-.6-1.4-1.5-.7-1.9,1.5-2.3,1.5-1.1,0-1.4-.2-.6-.5-.9-.3-.8.3-.9.6.3.1.6,0,1.1.3,1.4.6-.2,1.9-.2,1.9l.4.2Z"/>
    </g>
    <g>
      <path class="cls-14" d="M27.7,51.9s2.7-.5,3.7,0,1.4,1.8,1.4,1.8l.8,5.5-.5,5.6,3-1s5.3,1.7,5.8,1.9,1.4-.4,1.8-1.9-.2-3.6-1.2-4.2-2.7-.9-3.4-1.3-1.6-1.1-1.6-1.1c0,0-.8-1.1-.8-1.7s.3-2-.9-2.8-2.7-1.8-2.7-1.8c0,0,0-.9.7-1.1s2.2-.2,1.5-.9.3-1.1-1.2-1-3,.4-3,.4l-3.3,2.2v1.2Z"/>
      <path class="cls-16" d="M27.7,55.6s.9-2,3-2.4,3.3.4,3.5,1.2-.2,1.9-.2,1.9c0,0,1.7-.3,2.3,1.2s.5,3,0,3.4-1.6,1-1.8.9-.9.7-1,1.1,0,1.2.4.9,2.5-3.1,4-3.6,3.2,0,4.1,1.3-.1,3-1.3,3.2-5.6.7-5.6.7c0,0-3.6,3-4.5,2.8s-3.7-2.6-3.9-4.1-.3-3.7.7-4.3,3.3-.6,3.3-.6l.9-.4s-3.4,0-3.8-1.3,0-2,0-2Z"/>
      <path class="cls-11" d="M31,54.2s.6,0,1.1.5.6,1.3.4,1.7-1.7,1.4-1.5,1.7,1.6-.3,1.8-.7.8-1.4.6-2.2-1.2-1.4-1.6-1.4-.9.5-.9.5Z"/>
      <path class="cls-11" d="M28.2,63.6s1.3,1.6,1.6,2.1,1.1-.2,1.2-.4,1.4-1.5,1.2-2-.4-1.6,0-2,.7-.7.7-.2-.2,2.6-.3,3.2-.4,1.1-1.3,1.7-1.2,1.1-1.7.8-1.4-1.1-1.5-1.6,0-1.5,0-1.5Z"/>
      <path class="cls-11" d="M40.6,61.8s.9-.2.9.3-.4,1.5-.7,1.8-2.3.6-2.6.6-2-.6-1.5-.6,1.3,0,2.1-.3,1.8-1.8,1.8-1.8Z"/>
      <path class="cls-11" d="M34.9,57.6s1.2.2,1.1,1.3-.2,1.7-.6,1.9-1.2,1.4-1.6.9-.2-.4.3-.7,1.1-1.5,1.1-1.8-.5-1.7-.5-1.7Z"/>
      <path class="cls-13" d="M28.1,61.1s.6,0,.7.5,0,.9-.3.9-.5.2-.7-.2.3-1.2.3-1.2Z"/>
      <path class="cls-13" d="M28.2,56.5s1.2-.4,1.3,0-.6.7-.6.8-.6.5-.6-.1v-.6Z"/>
    </g>
    <g>
      <path class="cls-16" d="M23.4,73.5s-.3-1.8,1.9-3.4,3.9-1,4.7-1,2.2,1.3,2.2,3.2-.6,4.2-3.4,4.6-5.1.2-5.4-3.4Z"/>
      <path class="cls-10" d="M30.6,69.4s1.8,1,1.7,3-.6,3.6-2.2,4.2-4.1.4-4.6.2l-.5-.2s1.7,1.5,4.3.7,3.4-2.1,3.6-3.9,0-3-2.4-4.1Z"/>
      <path class="cls-3" d="M25.1,76.6s5.1-.7,5.9-2.2.4-2.9.4-2.9v-1.1c.1,0-.7-1-.7-1,0,0,1.7,1.1,1.7,2.4s.3,3.4-1.6,4.8-1.8.6-2.4.7c-1.6.4-3.3-.6-3.3-.6Z"/>
      <path class="cls-6" d="M23.8,75.1s1.6,1.3,4.9,0,1.2-.8,1.4-1.4.4-1.7.4-2.3-.8-2.1-.8-2.2c0,0,1.6,0,1.8,1.4,0,0,.6,2.7-.5,4.3s-1.3,1.3-2.3,1.7c-2.1.8-2.9.4-3.6.1s-1.3-1.5-1.3-1.5Z"/>
    </g>
    <path class="cls-13" d="M25.7,73.2s2.6-1.1,2.6-1.6,1.1-1.1.5-1.2-1.9-.1-2.4.4-1.9,1.5-1.3,2.4.6,0,.6,0Z"/>
    <g>
      <path class="cls-16" d="M20.1,79.2s-.2-.9,1-1.7,2-.5,2.4-.5,1.1.7,1.1,1.6-.3,2.2-1.8,2.3-2.6,0-2.8-1.8Z"/>
      <path class="cls-10" d="M23.7,77s.9.5.9,1.6-.3,1.8-1.1,2.2-2.1.2-2.3.1h-.3c0-.1.9.7,2.2.2s1.8-1.1,1.8-2,0-1.5-1.2-2.1Z"/>
      <path class="cls-3" d="M20.9,80.7s2.6-.3,3-1.1.2-1.5.2-1.5v-.6c0,0-.4-.5-.4-.5,0,0,.8.6.9,1.2s.1,1.7-.8,2.4-.9.3-1.2.4c-.8.2-1.7-.3-1.7-.3Z"/>
      <path class="cls-6" d="M20.3,80s.8.7,2.5,0,.6-.4.7-.7.2-.9.2-1.2-.4-1.1-.4-1.1c0,0,.8,0,.9.7,0,0,.3,1.4-.3,2.2s-.7.7-1.2.9c-1.1.4-1.5.2-1.9,0s-.6-.8-.6-.8Z"/>
    </g>
    <path class="cls-13" d="M21.2,79s1.3-.6,1.3-.8.6-.6.2-.6-1,0-1.2.2-1,.8-.6,1.2.3,0,.3,0Z"/>
    <g>
      <path class="cls-16" d="M46.1,56.2s-2.2-.6-2.4-2.8,1.2-2.6,1.9-2.3,1,.7,1,.7c0,0,.2-.7,1.9-3s4.8-1.3,5.5,2.6.4,4.8-.2,5.1l-1.6,1s1.1,2.1.9,3-2.1,2.7-2.9,2.7-2.5-2.7-2.6-4.1-1.4-3-1.4-3Z"/>
      <path class="cls-13" d="M48,52.8s.5-.6,1.1,0,.5,1.5,0,1.7-1-1.7-1-1.7Z"/>
      <path class="cls-13" d="M44.6,53.1s.4,0,.4-.5,0-.7-.3-.5-.7.5-.1,1Z"/>
      <path class="cls-13" d="M50.2,53.8s.8.2.3.5-.7,0-.7,0l.4-.6Z"/>
      <path class="cls-13" d="M50.2,58.5s.6-.6.8-.2.1,1.1-.2,1.2-.6-1-.6-1Z"/>
      <path class="cls-13" d="M52.1,59.7s.5,0,.3.5-.7.6-.8.5.5-.9.5-.9Z"/>
      <path class="cls-13" d="M49.8,48.5s.9,0,1.2.2.8-.1.6-.4-.7-.2-1.1-.3-.7.4-.7.4Z"/>
      <path class="cls-11" d="M49.1,50s1.6-.7,2.3.1,1.1,2.9.9,3.8-.7,1.8-1.1,2-1.9.2-2.2,0-1-1-1.4-.5-.3,1.2,0,1.2,2.8.8,4,.2,1.4-1.6,1.7-2.7,0-2.5-.3-3.2-.3-1.4-1.1-1.8-2.2-.4-2.9,0-1.4,1.7-1.5,2.2,1.5-1.4,1.5-1.4Z"/>
      <path class="cls-11" d="M45.1,54.5s.9,0,1.2-.5.8.4.6.6-.7.7-1.2.7-1.2-.6-1.3-.9-.4-1.6-.2-1.1.9,1.1.9,1.1Z"/>
      <path class="cls-11" d="M48,57.3s1,2.5,1.3,3,.4,1.1.8,1.4,1.3.4,1.3,0,0-.5-.7-.8-1.4-1.3-1.6-1.9-1.2-1.7-1.2-1.7Z"/>
    </g>
    <path class="cls-2" d="M21.1,49.6s2.7-.3,3.5-1.2,2.1-3.6,5.1-3.5,3.6.7,4.6,1,1.9-.3,3,0,3.8.4,6.5.4,4.4,1.5,5,2.5,4.6,2.9,4.9,5,1.1,8.2,1.5,9.9.2,5.5-.6,5.9-2.5,2.4-2.7,4-.7,3.6-2.1,4.1-5.4,1.8-6.3,2.1-2,1.6-3.7,2.4-1.8,2.1-5.9,1.5-2.6-1.9-5.5-1.3-5.3.6-6.3,0-4.6-.6-5.2-4.2.3-6.3-.7-7.5-3.4-4.6-2.4-6.8,4.6-4.7,4-6.2-.3-6.9,3.2-8.1Z"/>
    <path class="cls-16" d="M36.2,69.1s3.6-.6,4.6,0,1.1.7,1.5.4.4-1.3,1.7-1.6,2.7-.4,3,1.6.8,3.5-.8,3.9-3.2.3-3.4.8-.7,3.1-1.7,4.1-.2,1.7-2.6.4-4.9-6.7-2.3-9.5Z"/>
    <path class="cls-20" d="M43,70.5s1.2-.5.9,0-1.1,1.1-1.4,1.1.5-1.1.5-1.1Z"/>
    <path class="cls-20" d="M37.7,70.9s.9.3.4.7-1.1.7-1.3.4.9-1.1.9-1.1Z"/>
    <path class="cls-20" d="M39.7,71.2c.2.7-.4,1.4-.6.9s.6-.9.6-.9Z"/>
    <path class="cls-11" d="M41.6,69.5s.4,3.2.2,4-1.4,2.6-2,2.8-2,.3-2.2,0-1.2-.2-.8.5.9,1.6,1.7,1.8,2,1.3,2.6-.4,1.3-3.8,1.7-4.1,1.5-1,2-1,1.3,0,1.4-.3.8-1.2.7-1.6-.5,0-.8.5-1.8.7-2.4.5-1.4-2.8-1.4-2.8h-.8Z"/>
    <path class="cls-18" d="M29.3,47.4s3.2-1.4,4.2,1.3,1,4.4,1.7,5.6,2.5,1.8,4.6-.7,3.4-3.6,5.2-2.4,2.1,4.8,3.4,6.6,5.4,2.9,4.7,4.7-4.9,3.6-4.9,5.5-1,7.1-1.9,7.4-5.8,2.2-7.4,3.7-1.7,2.4-4.5,1.7-3.3-3.4-7.1-2.5-5.9,1.1-7.1.7-4-5.2-1.7-6.3,3.2-1.7,2.1-2.5-4.7-2.9-3.6-4.8,1.3-4.3,2.1-5,.2-5.2,2.2-5.8,2.5-2.5,4.6-4.8,3.6-2.6,3.6-2.6Z"/>
    <path class="cls-16" d="M10.2,36.5c1.6-1.7,3.1-4.6,4.1-5.8s2-2.6,2.1-3.4-.4-1.5-.9-1.5-3.7.5-4.5.8-2.1,2.3-2.4,3.5.1,3.5,0,4.1.1,4,1.7,2.3Z"/>
    <path class="cls-13" d="M9.8,30.9s0-1.1.5-1.6,1.1-1.1.3-1c-1.8.3-2.5,2.4-1.4,3.1s.6-.5.6-.5Z"/>
    <path class="cls-13" d="M11.9,27.5s0-.5.3-.2.5.3.2.5-.5-.3-.5-.3Z"/>
    <path class="cls-16" d="M14.2,38.9s2.3-2,4.4-2,3.3.2,4.2,2,.7,3.2.6,3.7-1.8,3.1-2.1,3.5-1.8,2.1-2.5,2.3-2.9-.4-3.6-.8-1.5-2-1.4-3.2-.6-4.2.3-5.5Z"/>
    <path class="cls-13" d="M15.1,39.3s1.4-.3,1.3.2-.2,1.6-.7,1.6-.9.2-.9-.3.3-1.5.3-1.5Z"/>
    <path class="cls-13" d="M15.8,41.6s.5.1.3.4-.3.5-.5.3.2-.7.2-.7Z"/>
    <path class="cls-11" d="M12,26.4s1.9,0,2,.5-.8,1.8-1.2,2.6-1,1.4-1.2,2.7-.4,2.1-.9,2.2-1.1-.1-1.3-.4-.6-1.3-.7-.5,0,1.7.6,1.8,2.3-.3,2.6-1.4.7-2.3,1.4-3.3,1.8-1.6,1.9-2.6-.5-1.8-.8-1.8-2.3.4-2.3.4Z"/>
    <path class="cls-16" d="M110.8,45.8c-2,1.1-4.4,3.3-5.8,4.1s-2.8,1.8-3.1,2.5-.2,1.5.4,1.7,3.6.8,4.5.7,2.7-1.4,3.5-2.5,1-3.3,1.4-3.8,1.2-3.8-.8-2.7Z"/>
    <path class="cls-13" d="M109.3,51.2s-.3,1-1,1.4-1.4.7-.6.8c1.8.3,3.2-1.4,2.4-2.5s-.8.2-.8.2Z"/>
    <path class="cls-13" d="M106.2,53.7s-.2.5-.4,0-.3-.4,0-.5.4.4.4.4Z"/>
    <path class="cls-11" d="M105.7,54.7s-1.8-.7-1.7-1.2,1.4-1.4,2-2,1.4-1,2-2.1,1.1-1.9,1.6-1.7,1,.5,1.1.8,0,1.4.5.7.5-1.6,0-1.9-2.2-.5-2.9.5-1.4,2-2.4,2.7-2.2.9-2.7,1.9-.1,1.9.1,2,2.3.4,2.3.4Z"/>
    <path class="cls-21" d="M22.9,22.4s3.1-.6,4.2,0,1.5,2,1.5,2l.9,6.2-.6,6.3,3.4-1.1s6,2,6.5,2.2,1.6-.4,2.1-2.2-.3-4.1-1.3-4.7-3-1-3.8-1.4-1.8-1.2-1.8-1.2c0,0-.9-1.2-1-1.9s.3-2.2-1-3.1-3.1-2.1-3.1-2.1c0,0,0-1,.8-1.2s2.5-.3,1.7-1,.3-1.2-1.4-1.1-3.3.5-3.3.5l-3.8,2.5v1.4Z"/>
    <path class="cls-16" d="M22.9,26.6s1-2.2,3.4-2.7,3.7.5,3.9,1.3-.2,2.2-.2,2.2c0,0,2-.3,2.6,1.3s.5,3.4,0,3.8-1.8,1.1-2,1-1,.8-1.1,1.3,0,1.4.4,1,2.9-3.5,4.5-4,3.6,0,4.6,1.5-.2,3.4-1.5,3.6-6.3.8-6.3.8c0,0-4.1,3.4-5.1,3.2s-4.2-3-4.4-4.6-.3-4.2.8-4.8,3.7-.7,3.7-.7l1-.5s-3.9-.1-4.2-1.5,0-2.2,0-2.2Z"/>
    <path class="cls-11" d="M26.7,25s.7,0,1.2.5.6,1.4.5,1.9-1.9,1.5-1.7,1.9,1.8-.3,2.1-.8.9-1.6.7-2.5-1.4-1.6-1.8-1.6-1,.6-1,.6Z"/>
    <path class="cls-11" d="M23.5,35.7s1.4,1.8,1.8,2.4,1.2-.2,1.3-.5,1.6-1.7,1.4-2.2-.4-1.8,0-2.3.8-.8.8-.3-.2,2.9-.3,3.6-.5,1.2-1.5,1.9-1.4,1.2-1.9.9-1.5-1.3-1.7-1.8,0-1.7,0-1.7Z"/>
    <path class="cls-11" d="M15.3,40.1s1.2-1.2,3.2-1.1,3,2.2,2.9,3-4.2,5-4.8,4.7-.8.5-.6.9,3.1-.6,4-1.1,2.8-4.4,2.8-5,0-3.6-2.2-3.8-3.8,0-4.9.9-.5,1.5-.5,1.5Z"/>
    <path class="cls-11" d="M37.5,33.6s1-.2,1,.3-.4,1.7-.8,2-2.6.7-3,.7-2.3-.7-1.7-.7,1.5,0,2.3-.3,2-2,2-2Z"/>
    <path class="cls-11" d="M31.1,28.8s1.3.2,1.2,1.5-.2,1.9-.6,2.2-1.3,1.6-1.8,1-.3-.4.4-.8,1.3-1.7,1.3-2-.5-1.9-.5-1.9Z"/>
    <path class="cls-13" d="M23.3,32.8s.7,0,.8.5-.1,1-.4,1-.6.3-.8-.2.4-1.3.4-1.3Z"/>
    <path class="cls-13" d="M23.5,27.6s1.4-.4,1.5,0-.6.8-.7.9-.7.6-.7-.2v-.7Z"/>
    <path class="cls-16" d="M18.8,23.3s3.2,0,3.2-1.3,1.6-2,1.9-2.2,2.5-1,1.5-1.3-1.4-.6-2.3-.9-1.2,0-2.1,0-2.2,1.9-2.2,1.9c0,0-1.3,1.8-1.1,2.4s1.1,1.3,1.1,1.3Z"/>
    <path class="cls-13" d="M19.5,20.4s2.6-1.1,2.6-1.6,1.1-1.1.5-1.2-2,.4-2.4.9-1.8,1-1.2,1.9.6,0,.6,0Z"/>
    <path class="cls-11" d="M23.3,18.2s-.3,1.1-.7,1.8-2,1.4-2.5,1.3-1.2.3-.9.6,1.1.4,1.6,0,1.8-1.8,2.5-2.5,0-1.2,0-1.2Z"/>
    <path class="cls-9" d="M8.9,61.4s1.6-.2,2.6-1.3.2-6.5.9-7.1,2.5-2.5,2.4-1.6-2.2,10.3-2.9,12.7c-2.7,9.4.7,8.3.3,9.3-1.1,2.7,4,7.6.8,7.9s-2.9-2-3.5-2.2-.9-.4-1.6-.9-1.8-7.1-1.8-7.1l-.4-3.4,1.5-6.1h1.6Z"/>
    <path class="cls-16" d="M4,64.3s2.2-3.7,3.2-4.3,1.4-.6,1.6.8-.8,6.7-.7,7.8-.3,3.1-.9,3.6-1.2.6-1.9,0-1.7-1.7-2.3-2.7-.7-3.7.9-5.1Z"/>
    <path class="cls-13" d="M3.7,65.4s.8,1.7.6,2.4-.8,1.3-1.1.7.6-3.1.6-3.1Z"/>
    <path class="cls-11" d="M5.7,63.4s1.4-.2,1.5.9-.5,4-.5,4.3-2.2.8-1.7,1.5,1.1,1.4,1.6.8,1.5-4.1,1.6-4.5.3-3.3,0-3.9-.1-2.1-.9-1.1-1.6,2-1.6,2Z"/>
    <path class="cls-22" d="M21.8,67.8s-.9-2.2,0-3.4-1.4-3.1,0-3.9,2.6-1.9,2.8-2.7.6-3.4,2-3.5,4.2,1.2,5.3,2.1,2.3,3.1,3.8,3,3.3-.7,4-1.2,3.7-3.6,5-1.5,0,3.8.9,4.4,1.7,2.2,1.3,2.7-3.6,2.4-3.6,4,.6,3.4,1,4.2-1.3,1.1-2.6,1.5-3.4,3.8-4.8,4.1-1.9-.7-3.9-1.9-4.1-.2-5.5-.8-2.5-1.3-2.9-1.3-2.2,1.8-3.3,1,1.9-.1,1.9-3-1.4-3.9-1.4-3.9Z"/>
    <path class="cls-12" d="M19.8,59.8s.6-3.5,2.4-3.9,2.2,0,2.8-1.6.9-5,3.5-4.7,3.3,1.9,3.8,3.6,2.7,4.8,4.6,4,4.5-2.8,6.6-2.9,3.6,4.5,4.4,5.5,3.5,1.7,2.6,3.1-3.7,2.3-4.1,4.8-.3,5.7-1.9,6.2-5.2,1.8-5.9,2.5-.8,3.4-2.8,2.6-2.9.1-4.5-1.3-3.1-2.4-4.2-1.2-6,2.6-6.7,1.7-3.4-2.2-1.4-3.3,4.6-2.6,3.2-4.4-5.2-2.9-3.9-4.4,1.5-6.2,1.5-6.2Z"/>
    <g>
      <path class="cls-16" d="M84.5,34.2s3.6-.6,4.6,0,1.1.7,1.5.4.4-1.3,1.7-1.6,2.7-.4,3,1.6.8,3.5-.8,3.9-3.2.3-3.4.8-.7,3.1-1.7,4.1-.2,1.7-2.6.4-4.9-6.7-2.3-9.5Z"/>
      <path class="cls-20" d="M91.3,35.6s1.2-.5.9,0-1.1,1.1-1.4,1.1.5-1.1.5-1.1Z"/>
      <path class="cls-20" d="M86,36s.9.3.4.7-1.1.7-1.3.4.9-1.1.9-1.1Z"/>
      <path class="cls-20" d="M88,36.3c.2.7-.4,1.4-.6.9s.6-.9.6-.9Z"/>
      <path class="cls-11" d="M89.9,34.7s.4,3.2.2,4-1.4,2.6-2,2.8-2,.3-2.2,0-1.2-.2-.8.5.9,1.6,1.7,1.8,2,1.3,2.6-.4,1.3-3.8,1.7-4.1,1.5-1,2-1,1.3,0,1.4-.3.8-1.2.7-1.6-.5,0-.8.5-1.8.7-2.4.5-1.4-2.8-1.4-2.8h-.8Z"/>
    </g>
    <g>
      <path class="cls-9" d="M100.8,31.4s2.3-.4,3.1,0,1.1,1.5,1.1,1.5l.6,4.6-.4,4.6,2.5-.8s4.4,1.4,4.8,1.6,1.2-.3,1.5-1.6-.2-3-1-3.5-2.2-.7-2.8-1.1-1.3-.9-1.3-.9c0,0-.6-.9-.7-1.4s.2-1.6-.7-2.3-2.3-1.5-2.3-1.5c0,0,0-.7.6-.9s1.8-.2,1.2-.8.3-.9-1-.8-2.5.4-2.5.4l-2.8,1.8v1Z"/>
      <path class="cls-16" d="M100.8,34.5s.7-1.6,2.5-2,2.7.3,2.9,1-.2,1.6-.2,1.6c0,0,1.4-.2,1.9,1s.4,2.5,0,2.8-1.3.8-1.5.8-.8.6-.8.9,0,1,.3.8,2.1-2.5,3.3-2.9,2.6,0,3.4,1.1-.1,2.5-1.1,2.6-4.6.6-4.6.6c0,0-3,2.5-3.7,2.3s-3.1-2.2-3.3-3.4-.3-3.1.6-3.5,2.7-.5,2.7-.5l.7-.3s-2.8,0-3.1-1.1,0-1.6,0-1.6Z"/>
      <path class="cls-11" d="M103.5,33.3s.5,0,.9.4.5,1.1.3,1.4-1.4,1.1-1.3,1.4,1.3-.2,1.5-.6.6-1.2.5-1.8-1-1.1-1.3-1.1-.7.4-.7.4Z"/>
      <path class="cls-11" d="M101.2,41.1s1,1.3,1.3,1.8.9-.2,1-.3,1.1-1.3,1-1.6-.3-1.3,0-1.7.6-.6.6-.2-.2,2.1-.2,2.6-.3.9-1.1,1.4-1,.9-1.4.7-1.1-.9-1.3-1.3,0-1.2,0-1.2Z"/>
      <path class="cls-11" d="M111.5,39.6s.7-.1.8.2-.3,1.3-.6,1.5-1.9.5-2.2.5-1.7-.5-1.2-.5,1.1,0,1.7-.2,1.5-1.5,1.5-1.5Z"/>
      <path class="cls-11" d="M106.8,36.1s1,.2.9,1.1-.2,1.4-.5,1.6-1,1.1-1.3.8-.2-.3.3-.6.9-1.3.9-1.5-.4-1.4-.4-1.4Z"/>
      <path class="cls-13" d="M101.1,39s.5,0,.6.4,0,.8-.3.7-.4.2-.6-.2.3-1,.3-1Z"/>
      <path class="cls-13" d="M101.2,35.2s1-.3,1.1,0-.5.6-.5.6-.5.4-.5-.1v-.5Z"/>
      <path class="cls-13" d="M102.2,40.3s.4,0,.3.3-.2.4-.4.2.1-.5.1-.5Z"/>
    </g>
    <path class="cls-2" d="M89.2,29s1.5-.2,1.9-.7,1.1-2,2.8-1.9,2,.4,2.6.6,1-.2,1.7,0,2.1.2,3.6.2,2.4.8,2.8,1.4,2.6,1.6,2.7,2.8.6,4.5.8,5.5,0,3-.3,3.3-1.4,1.3-1.5,2.2-.4,2-1.2,2.3-3,1-3.5,1.2-1.1.9-2.1,1.3-1,1.1-3.3.8-1.5-1.1-3.1-.7-2.9.4-3.5,0-2.6-.3-2.9-2.3.2-3.5-.4-4.2-1.9-2.6-1.3-3.8,2.6-2.6,2.2-3.4-.2-3.8,1.8-4.5Z"/>
    <path class="cls-19" d="M93.8,27.7s1.8-.8,2.3.7.6,2.5,1,3.1,1.4,1,2.6-.4,1.9-2,2.9-1.4,1.2,2.7,1.9,3.7,3,1.6,2.6,2.6-2.7,2-2.7,3.1-.6,3.9-1.1,4.1-3.2,1.2-4.1,2.1-.9,1.3-2.5,1-1.8-1.9-3.9-1.4-3.3.6-4,.4-2.2-2.9-1-3.5,1.8-.9,1.1-1.4-2.6-1.6-2-2.7.7-2.4,1.2-2.8.1-2.9,1.2-3.2,1.4-1.4,2.6-2.6,2-1.5,2-1.5Z"/>
    <path class="cls-15" d="M89.6,39.1s-.5-1.2,0-1.9-.8-1.7,0-2.1,1.4-1,1.5-1.5.3-1.9,1.1-1.9,2.3.7,2.9,1.1,1.3,1.7,2.1,1.7,1.8-.4,2.2-.7,2.1-2,2.8-.9,0,2.1.5,2.5.9,1.2.7,1.5-2,1.3-2,2.2.3,1.9.6,2.3-.7.6-1.4.9-1.9,2.1-2.7,2.3-1-.4-2.2-1-2.3-.1-3-.5-1.4-.7-1.6-.7-1.2,1-1.8.6,1.1,0,1.1-1.7-.8-2.2-.8-2.2Z"/>
    <path class="cls-7" d="M88.5,34.7s.3-1.9,1.3-2.2,1.2,0,1.5-.9.5-2.8,1.9-2.6,1.8,1,2.1,2,1.5,2.7,2.6,2.2,2.5-1.6,3.7-1.6,2,2.5,2.5,3,1.9.9,1.4,1.7-2.1,1.3-2.3,2.7-.2,3.2-1,3.4-2.9,1-3.3,1.4-.5,1.9-1.5,1.4-1.6,0-2.5-.7-1.7-1.3-2.3-.7-3.3,1.4-3.7.9-1.9-1.2-.8-1.8,2.6-1.4,1.8-2.5-2.9-1.6-2.2-2.5.8-3.5.8-3.5Z"/>
    <path class="cls-13" d="M36.7,22.1s2.6-1.1,2.6-1.6,1.1-1.1.5-1.2-1.9-.1-2.4.4-1.9,1.5-1.3,2.4.6,0,.6,0Z"/>
    <path class="cls-13" d="M50.7,17.9s1.9-.4,1.8.3-.2,2.2-.9,2.3-1.3.3-1.3-.5.3-2.1.3-2.1Z"/>
    <path class="cls-16" d="M20.9,91.1s1.8-4.3,7-4.4,4.6,3.2,3.9,5.5-4.8,5.4-5.9,5.9-2.9.3-4.3-.8-1.9-4.7-.8-6.1Z"/>
    <path class="cls-9" d="M9,94.5s-.5,3.3-.6,3.4.6.1,1.5.4.7,3,2.2.8,1.4-4.2,2.4-5.2,1.1-.7,2.1-1.5,1.7-.7,1.6-1.8-1.6-3-1.6-3l-7.5,6.8Z"/>
    <path class="cls-16" d="M7,86.2s3.6-.6,4.6,0,1.1.7,1.5.4.4-1.3,1.7-1.6,2.7-.4,3,1.6.8,3.5-.8,3.9-3.2.3-3.4.8-.7,3.1-1.7,4.1-.2,1.7-2.6.4-4.9-6.7-2.3-9.5Z"/>
    <path class="cls-20" d="M22.5,93.8s-1.1-1.3,0-2,1.5.1,1.5.6-.4,2-1.5,1.3Z"/>
    <path class="cls-20" d="M24.3,93.7s.4-.5.6,0,.7.8,0,.8-.6-.8-.6-.8Z"/>
    <path class="cls-11" d="M24.6,88c1.2-.3,5.1,1.3,5.1,2.7s-.3,3.7-1.1,4.3-2.1,1.7-5.2,1.7-2.9-1.5-2.9-1.5c0,0,.2,1.3,1.1,2s1.8.9,2.9,1,3.3-1.4,3.9-2,3.5-2.7,3.7-3.6.6-4.4-.2-5-2.6-1.8-4.9-1.3-2.1-.1-4.2,1.9.4,0,1.6-.3Z"/>
    <path class="cls-20" d="M28.8,88.6s1.5.4,1.7,1.2.5,1.9.9,1.8-.1-1.4,0-1.5.1-1.1-.6-1.5-2.7-.2-2,0Z"/>
    <path class="cls-20" d="M14.8,85.9s1.2-.5.9,0-1.1,1.1-1.4,1.1.5-1.1.5-1.1Z"/>
    <path class="cls-20" d="M8.6,88s.9.3.4.7-1.1.7-1.3.4.9-1.1.9-1.1Z"/>
    <path class="cls-20" d="M10.6,88.3c.2.7-.4,1.4-.6.9s.6-.9.6-.9Z"/>
    <path class="cls-11" d="M12.4,86.7s.4,3.2.2,4-1.4,2.6-2,2.8-2,.3-2.2,0-1.2-.2-.8.5.4,1.5,1.3,1.6,2.2,2.1,3.2.6c1.7-2.6,1.1-4.6,1.6-4.9s.9-.5,1.4-.5,1.2.2,2.1-.8.8-1.2.7-1.6-.5,0-.8.5-1.8.7-2.4.5-1.4-2.8-1.4-2.8h-.8Z"/>
    <path class="cls-13" d="M56.4,35.5s.5.1.3.4-.3.5-.5.3.2-.7.2-.7Z"/>
    <g>
      <path class="cls-9" d="M107.9,15.1s2-.4,2.7,0,1,1.3,1,1.3l.5,3.9-.4,4,2.2-.7s3.8,1.3,4.2,1.4,1-.3,1.3-1.4-.2-2.6-.9-3-1.9-.7-2.4-.9-1.2-.8-1.2-.8c0,0-.6-.8-.6-1.2s.2-1.4-.6-2-2-1.3-2-1.3c0,0,0-.6.5-.8s1.6-.2,1.1-.7.2-.8-.9-.7-2.1.3-2.1.3l-2.4,1.6v.9Z"/>
      <path class="cls-16" d="M107.9,17.8s.6-1.4,2.2-1.7,2.4.3,2.5.9-.1,1.4-.1,1.4c0,0,1.3-.2,1.7.8s.3,2.1,0,2.4-1.2.7-1.3.7-.7.5-.7.8,0,.9.3.7,1.8-2.2,2.8-2.6,2.3,0,2.9,1-.1,2.1-1,2.3-4,.5-4,.5c0,0-2.6,2.2-3.2,2s-2.7-1.9-2.8-2.9-.2-2.6.5-3.1,2.4-.4,2.4-.4l.6-.3s-2.5,0-2.7-.9,0-1.4,0-1.4Z"/>
      <path class="cls-11" d="M110.3,16.8s.5,0,.8.3.4.9.3,1.2-1.2,1-1.1,1.2,1.1-.2,1.3-.5.6-1,.4-1.6-.9-1-1.1-1-.6.4-.6.4Z"/>
      <path class="cls-11" d="M108.2,23.6s.9,1.2,1.2,1.5.8-.1.8-.3,1-1.1.9-1.4-.3-1.1,0-1.5.5-.5.5-.2-.1,1.8-.2,2.3-.3.8-.9,1.2-.9.8-1.2.6-1-.8-1.1-1.2,0-1.1,0-1.1Z"/>
      <path class="cls-11" d="M117.1,22.2s.6-.1.7.2-.3,1.1-.5,1.3-1.7.5-1.9.5-1.5-.5-1.1-.5,1,0,1.5-.2,1.3-1.3,1.3-1.3Z"/>
      <path class="cls-11" d="M113.1,19.2s.8.1.8.9-.1,1.2-.4,1.4-.8,1-1.1.7-.2-.3.2-.5.8-1.1.8-1.3-.3-1.2-.3-1.2Z"/>
      <path class="cls-13" d="M108.1,21.7s.4,0,.5.3,0,.7-.2.6-.4.2-.5-.1.2-.8.2-.8Z"/>
      <path class="cls-13" d="M108.2,18.4s.9-.3.9,0-.4.5-.5.6-.5.4-.5,0v-.5Z"/>
      <path class="cls-13" d="M109.1,22.9s.3,0,.2.3-.2.3-.3.2.1-.4.1-.4Z"/>
    </g>
    <g>
      <path class="cls-16" d="M49.6,86.2s-3.9,1.6-5.2,1.5-1.5-.4-.8-1.6,4.6-4.9,5.3-5.8,2.1-2.3,2.9-2.3,1.3.3,1.5,1.1.3,2.4.1,3.5-1.7,3.3-3.8,3.5Z"/>
      <path class="cls-13" d="M50.5,85.5s.5-1.8,1-2.2,1.5-.5,1.3.2-2.3,2.1-2.3,2.1Z"/>
      <path class="cls-11" d="M47.7,85.8s-1.3-.7-.7-1.7,2.8-2.9,3-3.2,2.2.7,2.3-.2,0-1.8-.8-1.6-3.7,2.4-4,2.6-2.3,2.4-2.4,3.1-1.1,1.7,0,1.4,2.5-.6,2.5-.6Z"/>
    </g>
    <g>
      <path class="cls-16" d="M96,17.6s3.5.9,4.3,1.6.8,1-.3,1.5-5.6.9-6.5,1.2-2.6.5-3.1,0-.7-.9-.4-1.5,1-1.8,1.7-2.5,2.8-1.4,4.4-.4Z"/>
      <path class="cls-13" d="M95,17.6s-1.2,1-1.8,1-1.3-.4-.8-.8,2.6-.2,2.6-.2Z"/>
      <path class="cls-11" d="M97.1,18.8s.5,1.1-.4,1.5-3.4.5-3.6.6-1.1-1.6-1.6-1-.9,1.2-.3,1.5,3.7.3,4,.3,2.8-.5,3.2-.9,1.7-.6.7-1-2-.9-2-.9Z"/>
    </g>
    <g>
      <path class="cls-16" d="M120.5,12.6s2.1.7,2.8,1.4.6,1.9-.2,2.3-1.7.9-2.4,1.1-3.7-.3-4.2-.7-.8-2.2-.6-2.9.6-.4,1.2-1.1,2.2-1.2,3.5-.1Z"/>
      <path class="cls-13" d="M120.4,13.5s-1.4.4-1.9.4-1.1-.5-.7-.8c2-1.3,2.6.4,2.6.4Z"/>
      <path class="cls-11" d="M121.6,13.4s1,1.3.3,1.6-2.7.4-3.7.1-.9-1.1-1.3-.6-.6,1.2-.1,1.4,2.5.8,2.7.8,2.3-.5,2.7-.6c.9-.3.9-.3.8-1.3-.1-1.6-1.4-1.4-1.4-1.4Z"/>
    </g>
    <g>
      <path class="cls-16" d="M47.1,27.2s2.1.7,2.8,1.4.6,1.9-.2,2.3-1.7.9-2.4,1.1-3.7-.3-4.2-.7-.8-2.2-.6-2.9.6-.4,1.2-1.1,2.2-1.2,3.5-.1Z"/>
      <path class="cls-13" d="M47,28.1s-1.4.4-1.9.4-1.1-.5-.7-.8c2-1.3,2.6.4,2.6.4Z"/>
      <path class="cls-11" d="M48.3,28.1s1,1.3.3,1.6-2.7.4-3.7.1-.9-1.1-1.3-.6-.6,1.2-.1,1.4,2.5.8,2.7.8,2.3-.5,2.7-.6c.9-.3.9-.3.8-1.3-.1-1.6-1.4-1.4-1.4-1.4Z"/>
    </g>
    <g>
      <path class="cls-16" d="M9.6,49.5s1.8-1.4,2.7-1.6,1.9.6,1.8,1.4-.2,1.9-.4,2.6-2.3,2.9-2.9,3.1-2.3-.5-2.8-1.1,0-.8-.2-1.6.2-2.5,1.8-3Z"/>
      <path class="cls-13" d="M10.3,50.1s-.5,1.4-.7,1.8-1,.6-1,.1c0-2.4,1.8-1.9,1.8-1.9Z"/>
      <path class="cls-11" d="M11,49s1.6,0,1.5.7-1.2,2.4-1.9,3.1-1.4.1-1.2.7.6,1.2,1.1.9,2-1.6,2.2-1.8.9-2.2,1-2.6c.2-.9.2-.9-.6-1.4-1.4-.8-2,.4-2,.4Z"/>
    </g>
    <g>
      <path class="cls-16" d="M10.7,74.2s1.2-1,1.9-1.1,1.3.4,1.2,1-.2,1.3-.3,1.8-1.6,2-2,2.1-1.6-.4-1.9-.7,0-.5-.2-1.1.2-1.7,1.2-2Z"/>
      <path class="cls-13" d="M11.2,74.6s-.3,1-.5,1.2-.7.4-.7,0c0-1.6,1.2-1.3,1.2-1.3Z"/>
      <path class="cls-11" d="M11.6,73.8s1.1,0,1,.5-.8,1.7-1.3,2.2-1,0-.8.5.4.8.8.6,1.4-1.1,1.5-1.3.6-1.5.7-1.8c.2-.6.2-.6-.4-1-1-.5-1.4.3-1.4.3Z"/>
    </g>
    <g>
      <path class="cls-16" d="M95.7,50.1s2.1.7,2.8,1.4.6,1.9-.2,2.3-1.7.9-2.4,1.1-3.7-.3-4.2-.7-.8-2.2-.6-2.9.6-.4,1.2-1.1,2.2-1.2,3.5-.1Z"/>
      <path class="cls-13" d="M95.6,51s-1.4.4-1.9.4-1.1-.5-.7-.8c2-1.3,2.6.4,2.6.4Z"/>
      <path class="cls-11" d="M96.8,51s1,1.3.3,1.6-2.7.4-3.7.1-.9-1.1-1.3-.6-.6,1.2-.1,1.4,2.5.8,2.7.8,2.3-.5,2.7-.6c.9-.3.9-.3.8-1.3-.1-1.6-1.4-1.4-1.4-1.4Z"/>
    </g>
    <g>
      <path class="cls-16" d="M86.2,23.5s1.4,0,2,.6-.1,3.7-.8,4-1.6,0-2.3.2-2.7-.6-3.2-1-.1-2.2,0-2.7.6-.4,1.1-1,2-1.1,3.2-.1Z"/>
      <path class="cls-13" d="M86.1,24.4s-1.3.4-1.7.3-1-.5-.6-.7c1.8-1.2,2.4.4,2.4.4Z"/>
      <path class="cls-11" d="M87.3,24.3s-.2,1.3-.9,1.5-1.3.3-2.3,0-.8-1-1.1-.5-.6,1.1-.1,1.3,2.3.7,2.5.7,1.3,0,1.7-.1c.8-.3,1-.8,1-1.7-.1-1.4-.8-1.2-.8-1.2Z"/>
    </g>
    <g>
      <path class="cls-16" d="M119.6,35.3s-.4,1.9-1.4,2.1-.7,0-1.8,0c-.7,0-2.6-2,0-5.6.5-.8,2.1-3.4,2.8-3.7s1.1-.1,1.5.5.9,1.8,1.1,2.8-.4,3.1-2.1,3.8Z"/>
      <path class="cls-13" d="M120.1,34.5s-.1-1.6.2-2.1,1-.8,1.1-.2-1.3,2.3-1.3,2.3Z"/>
      <path class="cls-11" d="M118.7,35.7s-1.2-.2-1-1.2,1.4-3.1,1.5-3.4,1.9,0,1.8-.8-.5-1.4-1.1-1-2.3,2.9-2.4,3.2-1.1,2.6-1,3.1-.4,1.7.4,1.1,1.8-1.2,1.8-1.2Z"/>
    </g>
    <g>
      <path class="cls-16" d="M62.9,62.9s-1.5-1.7-.6-3.6,2.4-1.5,2.8-1,.5,1.1.5,1.1c0,0,.5-.5,3.2-1.5s4.8,1.4,3.3,5.1-2.2,4.3-2.9,4.3h-1.9s-.2,2.4-.8,3-3.2,1.2-3.9.8-.7-3.6,0-4.8.4-3.3.4-3.3Z"/>
      <path class="cls-13" d="M66.3,61s.7-.2.9.6-.3,1.5-.9,1.4,0-2,0-2Z"/>
      <path class="cls-13" d="M63.3,59.5s.4.2.6-.2.4-.6,0-.6-.9,0-.6.8Z"/>
      <path class="cls-13" d="M67.6,63s.5.6,0,.6-.6-.3-.6-.3l.6-.3Z"/>
      <path class="cls-13" d="M65.2,67s.8-.2.8.2-.5,1-.8.9,0-1.1,0-1.1Z"/>
      <path class="cls-13" d="M66.2,69s.4.3,0,.5-.9.2-.9,0,.9-.5.9-.5Z"/>
      <path class="cls-13" d="M70.1,58.3s.7.5,1,.8.7.3.7,0-.5-.6-.8-.8-.8,0-.8,0Z"/>
      <path class="cls-11" d="M68.7,59.1s1.7.2,1.9,1.3-.6,3-1.2,3.7-1.6,1.2-2,1.2-1.7-.9-1.9-1.2-.4-1.4-.9-1.1-.9.8-.6,1,2,2.1,3.3,2.3,2.1-.6,2.8-1.4,1.2-2.2,1.4-2.9.5-1.3,0-2.1-1.7-1.5-2.5-1.4-2.1.8-2.4,1.1,2-.4,2-.4Z"/>
      <path class="cls-11" d="M62.9,61s.8.5,1.2.2.5.8.2.8-1,.2-1.4,0-.7-1.1-.6-1.4.5-1.6.4-1,.2,1.4.2,1.4Z"/>
      <path class="cls-11" d="M63.9,64.9s-.4,2.6-.5,3.3-.2,1.1,0,1.6.9,1.1,1.1.7.2-.5-.2-1.1-.5-1.9-.4-2.4,0-2.1,0-2.1Z"/>
    </g>
    <path class="cls-4" d="M85.8,55.5s-.4-1.8-.6-2.4-.6-1.3-1.2-1.4-1.6,0-1.6,0c0,0,2.3-1.3,2.5-2.6s.4-3.8-1.1-4.4-1.9-.7-2.8,0-2,2.7-2,3.5-.5,1.3.4,2.3,2.1,1.3,2.1,1.3c0,0-1.9,2-.9,3.1s1.7,1.2,1.8,1.7.1,3.1.4,4,.7,1.5,3.1,1.3,3.5-1.5,4.3-2.2.8-2.1.4-2.7-1.4-1.5-2.3-1.6-2.5.2-2.5.2Z"/>
    <path class="cls-11" d="M88.6,56.3s.7,0,1,.5.1,1.3,0,1.6-2.3,2.1-3.1,2.7-1.6.5-2,0-1.2-1.2-1.4-1.8,0-1.5,0-2-.5-.9,0-1.2.9-.4.8,0-.5,3.1.9,3.5,2.5-.2,3-.8.2-2.3.9-2.4Z"/>
    <path class="cls-16" d="M82.9,52.6s1.2.4,1.3,1.1-.8,1.1-1,1.2-1.3-.1-1.6-.4-.9-2.4,1.4-1.9Z"/>
    <path class="cls-16" d="M85.1,56.1s2.3.4,2.6.8.4,2.3,0,2.7-1.4.7-2.3.6-1.7-.8-1.9-1.1-.3-3.3,1.6-2.9Z"/>
    <path class="cls-16" d="M81.4,46.7s1.3,0,1.7.5-.2,1.7.1,2-.6,1.3-.9,1.5-1.1.2-1.4-.2-.8-3,.5-3.7Z"/>
    <path class="cls-13" d="M81.4,46.2s.5,0,.5.5,0,1-.5.9-1-.1-.9-.4.9-1,.9-1Z"/>
    <path class="cls-11" d="M83,45.6s.5-.3.8,0,.8,1.2.3,2.9-.8,1.9-1.1,2.1-1.4.4-1,.2,1.1-.5,1.3-1.7-.2-3.5-.2-3.5Z"/>
    <path class="cls-13" d="M81.2,48.2s.9,0,.7.2-.5.5-.7.3,0-.5,0-.5Z"/>
    <path class="cls-13" d="M84,56.8s.3-.4.6,0-.2.9-.3,1-.7.2-.8,0,.5-1,.5-1Z"/>
    <path class="cls-13" d="M86.1,56.5s.5,0,.5.3-.1.4-.5.5-.3-.6,0-.8Z"/>
    <path class="cls-13" d="M82.5,52.9s.3.5-.1.7-1-.1-1-.4,0-.9.6-.6l.5.3Z"/>
    <g>
      <path class="cls-16" d="M60.1,53.7s1.2-1,1.9-1.1,1.3.4,1.2,1-.2,1.3-.3,1.8-1.6,2-2,2.1-1.6-.4-1.9-.7,0-.5-.2-1.1.2-1.7,1.2-2Z"/>
      <path class="cls-13" d="M60.5,54.1s-.3,1-.5,1.2-.7.4-.7,0c0-1.6,1.2-1.3,1.2-1.3Z"/>
      <path class="cls-11" d="M61,53.4s1.1,0,1,.5-.8,1.7-1.3,2.2-1,0-.8.5.4.8.8.6,1.4-1.1,1.5-1.3.6-1.5.7-1.8c.2-.6.2-.6-.4-1-1-.5-1.4.3-1.4.3Z"/>
    </g>
    <g>
      <path class="cls-16" d="M54.6,67.4s1.3-.7,2.1-.7,1.5.5,1.5,1,0,1.1-.1,1.5-1.6,1.6-2.1,1.6-1.9-.5-2.3-.8,0-.4-.3-.9,0-1.4,1.2-1.6Z"/>
      <path class="cls-13" d="M55.2,67.8s-.3.8-.5,1-.8.3-.8,0c-.2-1.4,1.3-1,1.3-1Z"/>
      <path class="cls-11" d="M55.6,67.2s1.3,0,1.2.5-.7,1.3-1.3,1.7-1.1,0-.9.3.6.7,1,.6,1.5-.8,1.6-.9.5-1.2.6-1.4c.1-.5.1-.5-.6-.9-1.2-.6-1.6,0-1.6,0Z"/>
    </g>
    <g>
      <path class="cls-16" d="M122.6,19.7s1.3-.7,2.1-.7,1.5.5,1.5,1,0,1.1-.1,1.5-1.6,1.6-2.1,1.6-1.9-.5-2.3-.8,0-.4-.3-.9,0-1.4,1.2-1.6Z"/>
      <path class="cls-13" d="M123.2,20.1s-.3.8-.5,1-.8.3-.8,0c-.2-1.4,1.3-1,1.3-1Z"/>
      <path class="cls-11" d="M123.6,19.5s1.3,0,1.2.5-.7,1.3-1.3,1.7-1.1,0-.9.3.6.7,1,.6,1.5-.8,1.6-.9.5-1.2.6-1.4c.1-.5.1-.5-.6-.9-1.2-.6-1.6,0-1.6,0Z"/>
    </g>
    <g>
      <path class="cls-16" d="M128.7,15.6s.2,3.2,1.5,3.1,2.1,1.4,2.4,1.8,1.1,2.4,1.4,1.4.5-1.4.7-2.4,0-1.2-.1-2.1-2.1-2.1-2.1-2.1c0,0-1.8-1.2-2.5-1s-1.2,1.2-1.2,1.2Z"/>
      <path class="cls-13" d="M131.6,16.1s1.3,2.6,1.8,2.5,1.2,1.1,1.2.4-.5-2-1.1-2.4-1.2-1.7-2-1.1,0,.6,0,.6Z"/>
      <path class="cls-11" d="M134.1,19.7s-1.1-.2-1.9-.6-1.6-1.9-1.5-2.4-.4-1.2-.6-.8-.3,1.2.1,1.6,1.9,1.6,2.7,2.4,1.2,0,1.2,0Z"/>
    </g>
  </g>
</svg>