<?xml version="1.0" encoding="utf-8"?>
<!-- Generator: Adobe Illustrator 27.9.0, SVG Export Plug-In . SVG Version: 6.00 Build 0)  -->
<svg version="1.1" id="Who_is_at_risk" xmlns="http://www.w3.org/2000/svg" xmlns:xlink="http://www.w3.org/1999/xlink" x="0px"
	 y="0px" viewBox="0 0 32 32" style="enable-background:new 0 0 32 32;" xml:space="preserve">
<style type="text/css">
	.st0{fill:#725044;}
	.st1{fill:#8F6455;}
	.st2{fill:#775043;}
	.st3{fill:#996753;}
	.st4{fill:#7D5444;}
	.st5{fill:#33302F;}
	.st6{fill:#442B25;}
	.st7{fill:#161211;}
	.st8{fill:#634136;}
	.st9{fill:#5B5452;}
	.st10{fill:#2D0C00;}
	.st11{fill:#525252;}
	.st12{fill:#EAE4D8;}
	.st13{fill:#DCD0C2;}
	.st14{fill:#C7B9AB;}
</style>
<g>
	<path class="st0" d="M14.1,5.5c-3.7-2.4-4.9,1.8-4.9,1.8c2.1-3.3,4.4-1.1,4.4-1.1C13.8,5.9,13.9,5.7,14.1,5.5L14.1,5.5z"/>
	<path class="st1" d="M13.4,7.1c0,0-3.5-1-4.2,3.4c0,0-0.8-5.2,4.4-4.2C13.5,6.5,13.4,6.8,13.4,7.1L13.4,7.1z"/>
	<path class="st2" d="M13,18.7c0,0,1.4-0.6,1.7-1.2c0,0-0.1,1.4-0.2,1.6c0,0,0,1.7-0.1,1.9c-0.1,1.4,0,1.6,0,1.6s0.2,0.6,0.6,1.1
		c0.5,0.5,0.6,0.8,0.4,0.8c-0.2,0.1-0.7,0.3-1.1,0.1c-0.5-0.1-0.4-0.7-0.4-0.7l-0.2-0.5c0,0-0.1-1.4,0-2.1S13,20.1,13,18.7L13,18.7z
		"/>
	<path class="st2" d="M4.5,19.1c0,0,0.7-0.1,1.5,0.2c0,0-0.4,0.6-0.7,0.8c0,0,0,1.2,0.1,1.3s0.3,0.9,0.3,1.2c0,0.3,0.8,1.1,0.8,1.1
		s0.6,0.6,0.4,0.8s-1.1,0.2-1.1,0.2s-0.3-0.4-0.2-0.6c0,0-0.5-0.3-0.6-0.5S4.8,22.2,4.8,22c0.1-0.2-0.9-1.4-0.7-1.9
		S4.2,19.3,4.5,19.1z"/>
	<path class="st3" d="M13.6,6.3C13.8,6,14,5.7,14.1,5.5c0,0,0.3-0.5,0.8-0.4c0,0-0.3,0.1-0.4,0.2c0,0,0.3-0.3,0.9-0.2
		c0,0-0.3,0.1-0.4,0.2c0,0,0.6-0.4,0.9,0.1c0,0,0,0-0.2,0c0,0,0.3,0,0.3,0.4s1.8,0.6,1.8,0.6s1,0,1.2,1c-0.1,0.5-0.6,0.7-0.6,0.7
		s-1.2,1.4-0.7,2.7c0,0-0.4-0.2-0.5-0.8c0,0,0,0.4,0.2,0.6c0,0-0.5-0.2-0.5-0.7c0,0-0.1,0.3,0,0.5s-0.5-0.1-0.5-1
		c0.1-0.5-0.2,0.3,0,0.6S16,9.8,16.1,8.7c0,0-0.2-0.1-0.4,0.1c0,0-0.5,0.7-0.1,2.9s0.5,3.8-0.9,5.6c-1.1,1.3-2.7,1.7-3.4,1.8
		c-0.2,0-0.4,0.2-0.4,0.4v1.3c0,0,0.1,0.5-0.3,1c0,0-0.3,1.5-0.1,2.3c0,0.1,0,0.1,0.1,0.2c0.1,0.2,0.5,0.7,0.4,0.9
		c-0.1,0.3-0.9,0.1-0.9,0.1s-0.7-0.1-0.7-0.5S9.5,24,9.5,24s0.3-2.9,0.2-3.2c0-0.3-0.3-0.7-0.4-1.3c0-0.2-0.2-0.4-0.4-0.4
		c-0.7,0-2.3-0.1-3.7-0.3c-0.3,0-0.6,0-0.8,0.1c-0.3,0.1-0.5,0.6-0.7,0.9c-0.2,0.4-0.5,0.6-0.9,1c-0.2,0.2-0.4,0.5-0.7,0.7
		S1.7,22,1.5,22.7c-0.3,0.9-0.3,1.1-0.3,1.3v0.1l0.4,0.6c0,0,0.5,1-0.5,0.9c-0.9-0.1-1-0.9-0.7-1.8c0.2-0.7,0.1-0.5,0.2-1.1
		c0.1-0.5,0.1-0.7,0.2-1.2c0-0.1,0.2-0.3,0.2-0.4c0.2-0.3,0.9-1.2,1-1.7c0-0.3-0.1-1.2-0.3-1.9c-0.1-0.6-0.1-1.2,0.1-1.7l0,0
		c0.1-0.2,0-0.4-0.2-0.5c-0.4-0.2-0.9-0.5-1-1.5c0,0,0.4,0.3,1.1,0.3c0.5,0,0.8-0.1,0.9-0.1s0.2-0.1,0.2-0.1c0.3-0.4,1.6-1.7,3-1.6
		c1.7,0.1,3,0.3,3,0.3s2.1,0.3,2.6-1.5s1-2.7,1-2.7s0-0.8,0.8-1.2V7.1C13.5,6.8,13.5,6.5,13.6,6.3"/>
	<path class="st4" d="M4.3,19.1c0.1-0.1,0.3-0.3,0.5-0.6c0,0,0.4-0.5,0.4-0.8c0,0,0.1,0.5,0.4,0.7c0.3,0.3,2,0.4,2,0.4
		c0.1,0,0.3,0,0.4,0c0.1,0,0.3,0,0.4,0c0.1,0,0.3,0,0.4-0.1h0.1c0.1-0.1,0.2-0.1,0.2-0.2c0.1-0.1,0.1-0.2,0.1-0.3v-0.1
		c0-0.1,0.1-0.1,0.1-0.2s0.1-0.1,0.1-0.1S9.3,18,9.2,18.3c0,0.1,0,0.2-0.1,0.3S9,18.8,9,18.9c0,0.1,0,0.2,0,0.3
		c0,0.1,0.1,0.2,0.1,0.2L9,19.3c-0.1,0-0.2,0-0.2,0c-0.1,0-0.1,0-0.2,0H8.5c-0.1,0-0.1,0-0.2,0c-0.1,0-0.1,0-0.2,0H8H7.9H7.8
		c-0.1,0-0.2,0-0.2,0c-0.1,0-0.2,0-0.2,0c-0.1,0-0.2,0-0.3,0c-0.1,0-0.2,0-0.2,0c-0.1,0-0.2,0-0.3,0c-0.1,0-0.2,0-0.3,0
		c-0.1,0-0.2,0-0.4,0c-0.1,0-0.1,0-0.2,0s-0.1,0-0.1,0H5.5H5.4H5.3H5.2H5.1c-0.1,0-0.3,0-0.4,0c0,0-0.2,0-0.3,0.1L4.3,19.1L4.3,19.1
		z"/>
	<path class="st3" d="M18.4,8.1c0,0-1.2,1.4-0.7,2.7c0,0-0.4-0.2-0.5-0.8c0,0,0,0.4,0.2,0.6c0,0-0.5-0.2-0.5-0.7c0,0-0.1,0.3,0,0.5
		s-0.5-0.1-0.5-1c0.1-0.5-0.2,0.3,0,0.6c0.1,0.3-0.5-0.2-0.4-1.3c0,0-0.2-0.1-0.4,0.1c-0.1,0.2-3,0.2-3.1-0.5c0,0,0-0.8,0.8-1.2v0
		c0-0.3,0.1-0.6,0.2-0.8"/>
	<path class="st3" d="M13.6,6.3C13.8,6,14,5.7,14.1,5.5c0,0,0.3-0.5,0.8-0.4c0,0-0.3,0.1-0.4,0.2c0,0,0.3-0.3,0.9-0.2
		c0,0-0.3,0.1-0.4,0.2c0,0,0.6-0.4,0.9,0.1c0,0,0,0-0.2,0c0,0,0.3,0,0.3,0.4s1.8,0.6,1.8,0.6"/>
	<path class="st3" d="M18.4,8.1c0,0-1.2,1.4-0.7,2.7c0,0-0.4-0.2-0.5-0.8c0,0,0,0.4,0.2,0.6c0,0-0.5-0.2-0.5-0.7c0,0-0.1,0.3,0,0.5
		s-0.5-0.1-0.5-1c0.1-0.5-0.2,0.3,0,0.6c0.1,0.3-0.5-0.2-0.4-1.3c0,0-0.2-0.1-0.4,0.1c-0.1,0.2-3,0.2-3.1-0.5c0,0,0-0.8,0.8-1.2
		c0,0,1,0.8,2.3,0.9c0.5,0,0,0,1.1,0.2c0.3,0,0.5,0.1,1.1,0"/>
	<path class="st5" d="M15.7,6.4c-0.3-0.2-0.2-0.1-0.3-0.2l0,0c0,0.1-0.2,0.3-0.4,0.3s-0.3-0.1-0.3-0.2V6.2c0,0,0.1,0,0.1-0.1
		c0,0,0.1,0,0.1-0.1c0.1-0.1,0.2,0,0.3,0c0,0,0.1,0,0.1,0.1c0.1,0,0.1,0.1,0.1,0.1C15.5,6.2,15.6,6.3,15.7,6.4L15.7,6.4z"/>
	<ellipse class="st6" cx="15" cy="6.2" rx="0.2" ry="0.2"/>
	<path class="st7" d="M14.9,6.2h0.2l0,0l0,0l0,0H14.9L14.9,6.2L14.9,6.2L14.9,6.2z"/>
	<path class="st6" d="M18.1,7.9L18.2,8c0.1,0.1,0.2,0.1,0.3,0.1c0.1,0,0.2-0.1,0.3-0.2C18.9,7.8,19,7.7,19,7.5V7.4h-0.1
		c-0.2,0-0.5,0-0.7-0.1c-0.1,0-0.2,0-0.4-0.1l0,0v0.1c0,0.1,0,0.1,0.1,0.2C18,7.7,18,7.8,18.1,7.9z"/>
	<path class="st8" d="M18.5,6.7c-0.2-0.1-0.3-0.2-0.3-0.1c-0.1,0-0.1,0.1-0.1,0.1C18.1,6.8,18,6.9,18,7c0,0.1-0.1,0.2-0.1,0.3v0.1
		l0,0c0.3,0.1,0.7,0,1,0.1c0,0,0,0,0.1,0s0.1,0,0.1,0V7.4V7.3c0-0.1-0.1-0.1-0.1-0.2C18.8,6.9,18.7,6.8,18.5,6.7L18.5,6.7z"/>
	<path class="st9" d="M0.3,24.7c0,0,0,0.2,0.2,0.2s0.4,0,0.4,0L1.2,25l0.2,0.1c0.1,0,0.1,0,0.2,0s0.1,0,0.1,0l0,0c0,0,0,0,0,0.1
		s0,0.2,0,0.2c0,0.1,0,0.1-0.1,0.1c0,0.1-0.1,0.1-0.2,0.1s-0.1,0-0.2,0s-0.3,0-0.4,0s-0.3,0-0.4-0.1c-0.1,0-0.1-0.1-0.2-0.1
		s-0.1,0-0.1-0.3C0.3,24.7,0.3,24.6,0.3,24.7L0.3,24.7z"/>
	<path class="st9" d="M5.4,24.4c0,0,0,0.1,0.2,0s0.4,0,0.4,0h0.3h0.2c0.1,0,0.1,0,0.2,0s0.1,0,0.1,0s0,0,0.1,0c0,0,0,0,0,0.1v0.1
		v0.1l-0.1,0.1c0,0-0.1,0.1-0.2,0.1S6.3,25,6.2,25s-0.3,0-0.4,0s-0.1,0-0.2,0s0,0-0.1-0.2S5.4,24.4,5.4,24.4L5.4,24.4z"/>
	<path class="st9" d="M9.4,24.8c0,0,0,0.1,0.2,0.1s0.4,0,0.4,0h0.3c0,0,0.2,0,0.3,0s0.1,0,0.2,0c0.1,0,0.1,0,0.1,0s0,0,0.1,0
		c0,0,0,0,0,0.1v0.1c0,0.1,0,0.1-0.1,0.1c0,0-0.1,0-0.1,0.1c0,0-0.2,0-0.3,0s-0.3,0-0.4,0c-0.1,0-0.4,0-0.4-0.1
		c-0.1,0-0.2-0.1-0.2-0.1s0,0-0.1-0.2C9.4,24.8,9.4,24.8,9.4,24.8L9.4,24.8z"/>
	<path class="st9" d="M13.9,24.4c0,0,0,0.1,0.2,0.1s0.4-0.1,0.4-0.1h0.3c0,0,0.2,0,0.3,0s0.1,0,0.2,0c0.1,0,0.1,0,0.1,0s0,0,0.1,0
		s0,0.1,0.1,0.1v0.1c0,0,0,0.1-0.1,0.1c-0.1,0.1-0.2,0.1-0.4,0.1c-0.1,0-0.3,0-0.4,0.1c-0.1,0-0.3,0-0.4,0c-0.1,0-0.2,0-0.2-0.1
		c0,0,0,0-0.1-0.2C13.8,24.4,13.9,24.4,13.9,24.4L13.9,24.4z"/>
	<path class="st4" d="M13.5,6.9c0,0.4,0.2,0.7,0.5,0.9c0.3,0.2,0.7,0.3,1.1,0.5c0.2,0.1,0.6,0.4,0.6,0.6c0,0.1-1.1-0.5-1.6-0.8
		c-0.2-0.2-0.7-0.6-0.6-0.9"/>
	<path class="st10" d="M18.7,7.1L18.7,7.1C18.6,7.1,18.6,7,18.7,7.1c-0.1-0.1,0.2,0,0.2,0C19,7.2,18.8,7.1,18.7,7.1L18.7,7.1z"/>
</g>
<g>
	<path class="st11" d="M30.2,22.7c0,0-0.1,0.2,0,0.3c0.9,0.7,0.3,1.7,0.3,1.7l0.1,2.2c0,0-0.5,0.3-0.5,0.4S30,27.6,30,27.8
		c-0.1,0.1-0.9,0.1-1,0c-0.1,0,0.1-0.1,0.1-0.1h-0.4c0,0-0.1,0-0.1-0.2s0.9-0.7,1-0.9c0.1-0.2,0-1.2-0.1-1.4
		c-0.1-0.2-0.8-2.3-0.8-2.3L30.2,22.7L30.2,22.7z"/>
	<path class="st12" d="M30.2,22.8c0,0,0.6,0,0.6-1s-0.5-1.3,0.1-2.7c0.2-0.4-0.1-1.3-0.1-1.3s0.4,0.2,0.6-0.1
		c0.3-0.3,0.7-3.1-1.3-3.9s-3.6-0.7-6.8-0.9s-5.1,0.5-5.9,1c-0.7,0.4-2.5,1.4-3.5,1.9c-1,0.5-1.2,3.2-1.4,3.3
		c-0.3,0.1-0.3,0.4-0.5,1.4c-0.3,1-0.5,1.8,0.7,1.7c0,0,0.4,1.4,0.8,1.9c0.4,0.5,0.5,1.2,0.5,1.2s0.5,0.4,0.9,0h0.3
		c0,0,0.3-0.1,0.3-0.3s0.3-1.9,0.6-2.1c0,0,0.1-0.2,0.8-0.6c0.4-0.4,0.4-0.7,0.7-0.7c0,0-0.1,0.9,0.6,1.3v0.2l1,0.7
		c0,0,0.5,0.1,0.9-0.1l1.4-0.7c0,0,0.9-0.4,1.5-1.7c0,0,1.4-0.1,1.9,0c0,0,0.3,0.9,1.3,1.3c0,0-0.1,0.7,0.1,0.8h1.3
		c0-0.1,0.3-0.3,0.4-0.4c0,0,0.5,0,0.7,0L30.2,22.8L30.2,22.8z"/>
	<path class="st11" d="M27.6,23.3c0,0.6-0.6,1.5-0.8,1.8c-0.2,0.3-0.2,1-0.2,1.2c0,0.3-0.3,0.3-0.4,0.3S26,27.2,26,27.2
		s-0.4,0.3-0.9,0.4c-0.5,0-0.2-0.1-0.2-0.1c-0.3,0-0.4-0.1-0.4-0.1c0.1-0.7,1-1.2,1-1.2s0.8-2.6,0.7-2.9l0,0H27.6L27.6,23.3z"/>
	<path class="st11" d="M21.4,22.8c-0.1,0.4-0.2,1.4-0.1,1.6s0,0.7-0.1,1s-0.1,0.9,0.2,1.3c0.2,0.3-0.2,0.4-0.3,0.3
		C21,27,21,27,21,27.1c0.1,0.1,0.1,0.4,0.1,0.6C21,27.8,20.3,28,20.2,28c-0.1,0-0.1-0.2-0.1-0.2s-0.5,0.3-0.5-0.1s0.5-0.7,0.6-1
		s0-1.2,0-1.2s-0.4-0.4-0.3-1.1s0-0.9,0-0.9L21.4,22.8L21.4,22.8z"/>
	<path class="st11" d="M19.1,23.8c0.1,0.7-0.1,1.1-0.1,1.1s-0.3,0.5,0.1,0.9c0.3,0.4,0.2,0.4,0.1,0.5s0,0.2,0,0.2
		c0.2,0,0.4,0.1,0.5,0.3c0.1,0.2-0.2,0.8-0.3,0.9c-0.1,0.1-0.1,0-0.1,0c0,0.1-0.3,0.3-0.3,0.3c-0.3-0.4-0.4-1.6-0.5-2
		s-0.5-0.8-0.6-1.5c-0.1-0.5,0.2-1.1,0.2-1.4C18.1,23.1,19.1,23.8,19.1,23.8z"/>
	<path class="st11" d="M13.9,21.7h-0.4c0,0-0.1,0.1-0.3,0.2C13,22,12.8,22,12.8,22s0.2,1.2,0.6,1.7c0.4,0.5,0.5,0.9,0.6,1.1
		c0,0.1,0,0.2,0,0.2s0.3,0.1,0.5,0.1c0.3,0,0.3-0.1,0.3-0.1h0.3c0,0,0.1-0.1,0.2-0.2c0.1-0.4,0.2-1.8,0.6-2.1c0,0-0.3,0-0.5-0.1
		c-0.2,0.1-0.5,0.8-0.5,0.8s-0.2,0.1-0.3,0s0.1-0.5-0.5-0.8C13.6,22.3,13.9,21.7,13.9,21.7z"/>
	<path class="st13" d="M14.1,21.6c0.2-0.4,0.2-1.1,0.5-1.1s0.9,1,0.9,1s0.3,0.4-0.1,1c-0.4,0.5-0.5,0.8-0.5,0.8h-0.1
		c-0.1,0-0.1-0.1-0.1-0.2c0-0.2,0.1-0.2-0.2-0.5c-0.1-0.1-0.3-0.2-0.4-0.3S13.8,22.1,14.1,21.6z"/>
	<path class="st14" d="M27.9,22.6c0,0-0.6-0.6-0.5-1.2c0,0,0.1-0.5-0.3-0.5c-0.6,0-1.5-0.1-2.2,0.2c-0.1,0,0.5,1,1.3,1.3
		c0,0-0.1,0.5,0.1,0.8h1.2c0,0,0-0.1,0.1-0.2C27.7,22.9,27.7,22.8,27.9,22.6L27.9,22.6z"/>
	<path class="st13" d="M22.9,20.8c0,0-0.3-1.3-0.9-1.5c0,0,1.2,0.3,2.1,0.3s0.8-0.6,1.8-0.4c0.1,0.8,0.5,1,1.4,1.5
		c0,0-1.4-0.3-2.4,0.2C24.5,20.8,22.9,20.8,22.9,20.8L22.9,20.8z"/>
	<path class="st14" d="M17.6,21.4c0,0,0.3,0,0.4-0.1s0.4-0.1,0.5,0.1s0.4,0.7,0.6,1c0.3,0.2,0.3,0.8,0.8,1c0,0-0.4,0.2-0.6,0.1
		c-0.3-0.1-1-0.6-1-0.6v-0.2C18.2,22.7,17.4,22.2,17.6,21.4z"/>
	<path class="st12" d="M13.7,22.5l0.2,0.3c0,0.1,0.1,0.3,0,0.4s-0.3,0-0.4,0c0,0-0.1-0.2,0-0.3C13.6,22.7,13.7,22.5,13.7,22.5z"/>
	<path class="st11" d="M13.7,22.8c0,0-0.1,0.1-0.1,0.2s0.1,0.1,0.1,0.1l0.1-0.1C13.8,22.9,13.7,22.8,13.7,22.8z"/>
	<path class="st13" d="M16.2,17.4c0.1,0,1.5,1.8,1.3,2.8c0,0,0.2-0.4-0.1-1.2c-0.3-0.8-0.8-1.5-1-1.6S16.2,17.3,16.2,17.4L16.2,17.4
		L16.2,17.4z"/>
	<path class="st13" d="M30.8,17.7c-0.1,0-1-2.1-0.5-3c0,0-0.3,0.4-0.3,1.2c0,0.8,0.4,1.6,0.5,1.8C30.7,17.8,30.8,17.8,30.8,17.7
		C30.8,17.8,30.8,17.7,30.8,17.7z"/>
	<path d="M14.8,25v-0.4v-0.4c0,0,0,0.2,0,0.4C14.9,24.8,14.9,25,14.8,25C14.9,25,14.8,25,14.8,25z"/>
</g>
</svg>
