<?xml version="1.0" encoding="UTF-8"?>
<svg id="Livello_1" data-name="Livello 1" xmlns="http://www.w3.org/2000/svg" version="1.1" viewBox="0 0 150.6 90.3">
  <defs>
    <style>
      .cls-1 {
        fill: #895645;
      }

      .cls-1, .cls-2, .cls-3, .cls-4, .cls-5, .cls-6, .cls-7, .cls-8, .cls-9, .cls-10, .cls-11, .cls-12, .cls-13, .cls-14 {
        stroke-width: 0px;
      }

      .cls-15 {
        opacity: 0;
      }

      .cls-2 {
        fill: #665550;
      }

      .cls-16 {
        stroke: #330d04;
      }

      .cls-16, .cls-17 {
        fill: none;
        stroke-linecap: round;
        stroke-linejoin: round;
        stroke-width: .4px;
      }

      .cls-3 {
        fill: #ceb9b6;
      }

      .cls-4 {
        fill: #774b39;
      }

      .cls-5 {
        fill: #663f31;
      }

      .cls-6 {
        fill: #000;
      }

      .cls-7 {
        fill: #563b2f;
      }

      .cls-8 {
        fill: #51423f;
      }

      .cls-9 {
        fill: #cfb1a9;
      }

      .cls-10 {
        fill: #6d5b55;
      }

      .cls-11 {
        fill: #2b2b2a;
      }

      .cls-12 {
        fill: #b59e99;
      }

      .cls-17 {
        stroke: #230904;
      }

      .cls-13 {
        fill: #efefef;
      }

      .cls-14 {
        fill: #845444;
      }
    </style>
  </defs>
  <path class="cls-9" d="M98.6,50.4c2,.9,5.1,3.9,7.4,4.1,2.3.2,7.3,2.2,8.1,3.2.8,1,0,1.4.2,1.9.2.4.6,2.2-1.2,2.6-1.8.4-3.3-2-4.1-1.7-.8.3,2.3,3.1,0,3.1-2.4,0-3.3-2.4-4.9-2.6-1.6-.2-3.9-1.7-5.1-3.8-1.2-2.1-3-6.4-3-6.4l2.6-.3Z"/>
  <path class="cls-12" d="M106,54.5l-1.3-.3-2.2-1.2-4,3.3.4.8s1.1,1.8,1.8,2.4,1.8,1.2,2.1,1.2c.9,0-1.6-.3.2-2.8,1.8-2.5,2.9-3.3,2.9-3.3Z"/>
  <g>
    <path class="cls-16" d="M149.3,8.6c-6.2,2.2-13.9,7.8-16.6,14"/>
    <path class="cls-16" d="M140.9,17.5c-1.7.8-8.3,4.6-7.9,6.7"/>
    <path class="cls-16" d="M148.9,19.2c-3.5.3-7.1,1.7-10.3,3.1-1.4.6-4.6,2-5.2,3.2"/>
    <path class="cls-16" d="M149.8,23.4c-4.8-.4-12.4.3-16.3,3.2"/>
    <path class="cls-16" d="M150.1,29c-1.8-1.8-6.8-1.7-9.2-1.9-1.2,0-5.7-.3-6.2.3"/>
    <path class="cls-16" d="M147.5,30.1c-4-1.5-8.7-2.3-12.9-2.4"/>
  </g>
  <path class="cls-9" d="M77.5,63.5c-3.1,4.5-4.5,8.4-.8,9.1,3.7.7,17.4,1,19.6.8,2.2-.3,6.6.4,6.8,2.6.2,2.2-.7,2.5-4.3,2.8-3.6.4-7.9.3-9.6.4-1.7.2-14.7,1.5-16.3,0-1.7-1.4-6-3.5-6.6-5.5-.6-2,2.2-10.6,2.2-10.6l9.1.3Z"/>
  <path class="cls-12" d="M73.2,69.9s1.7,2.5,3.5,2.7,5,.5,5,.5c0,0-2.8-.3-5.2.5s-3.2,2-4.3,4.1c-.4.7.7,1.6,4.3,1.8,1.8,0,14.8-1.1,14.8-1.1,0,0,7.3-.7,8.7-.8s1.8-1.1,2-1.8-.2-.4,0-.6,1.2.7,1.2.7c0,0,.3,1.4-.7,2.1s-2.2.6-2.6.6c-5.4.8-7.4.5-9,.5s-5.5.4-6.5.5-7.6.5-9,.3-1.5,0-2.5-.6-3-2-3.2-2.2c-.4-.2-3.5-2.2-3.4-3.3,0-1.1.1-2.7.1-2.7l6.8-1.2Z"/>
  <path class="cls-9" d="M54.3,71.4c-2.4,3.3-3.1,7.3-.3,8.8s5,2.5,8.8,3.3,6.1.4,7.4.4c3.2,0,7.2.7,4,3.9-1.2,1.2-2.5.8-3.7,1.2-2,.6-4.1,1.4-6.6,1.4s-6.8-1-8.4-1.8c-2.6-1.3-5.4-3-8.3-5.2-3-2.3-5.3-2.2-4.1-6.6,1.2-4.5,4.9-6.8,4.9-6.8l6.4,1.5Z"/>
  <path class="cls-12" d="M52.4,75.4s-.5,2,0,2.9c.5.9.2,1.1,1.3,1.7s2.3,1.2,2.3,1.2c0,0-4.1-1.2-6-1.2s-2.2,1-1.8,1.9,5.3,4.8,5.6,5.1,2.2,1.7,2.2,1.7c0,0-2.7-1.3-4.2-2.3s-7-4.4-7.7-5.2-1.6-1.5-1.3-3,.6-2.8,1.2-3.7c.5-.8,8.5.9,8.5.9Z"/>
  <path class="cls-7" d="M73.7,85.4c1.2-.5,2.5-.1,3.7.8,1.1.9-.6.3-1.9.2-1.2-.1-1.8-1-1.8-1Z"/>
  <path class="cls-7" d="M71,86.4c1.5-.6,3.7.2,4.3,1.3.6,1.1-1.5-1-2.9-.4s-1.4-.9-1.4-.9Z"/>
  <path class="cls-7" d="M112.9,57.8c.3-.9,3.5.2,4.1,1.3.6,1.1-1.5-1-2.7-.4-1.3.6-1.7,0-1.4-.9Z"/>
  <path class="cls-7" d="M113.3,59.5c1.5-.3,3.4.8,3.8,2,.4,1.2-1.3-1.2-2.6-.9-1.4.3-1.2-1.1-1.2-1.1Z"/>
  <path class="cls-7" d="M112.5,60.2c.8-.6,3,1.9,3,3.1,0,1.2-.8-1.5-2.2-1.7-1.4-.1-1.6-.8-.8-1.4Z"/>
  <path class="cls-7" d="M109.1,61.5c1.2-.8,3,1.9,3,3.1,0,1.2-.8-1.5-2.2-1.7-1.4-.1-2-.6-.8-1.4Z"/>
  <path class="cls-7" d="M100.9,74.4c1-.4,2.1,0,3,.8.9.8-.5.2-1.5,0-1-.2-1.4-.9-1.4-.9Z"/>
  <path class="cls-7" d="M100.9,75.3c1.6-.1,3.2,1.3,3.4,2.5.2,1.2-1.1-1.3-2.4-1.2-1.4.1-1-1.3-1-1.3Z"/>
  <path class="cls-7" d="M91.9,76.9c1.6,0,3.1,1.6,3.1,2.8,0,1.2-.9-1.5-2.3-1.5-1.4,0-.9-1.3-.9-1.3Z"/>
  <path class="cls-7" d="M99.1,76c1.7,0,3.3,1.6,3.5,2.9.1,1.3-1-1.5-2.5-1.5-1.5,0-1-1.4-1-1.4Z"/>
  <path class="cls-7" d="M65,87.2c2.1-.2,3.9.9,3.9,1.6,0,.7-2.5-.5-3.7,0-1.2.6-1.2-1.6-.2-1.7Z"/>
  <path class="cls-9" d="M36.5,53.7s-4.2,1.8-14,0c-9.8-1.8-16.3-4.3-17.2-6.5-.8-2.2-.3-4.5,2.9-8.1,3.1-3.5,10.3-8.5,13-14.5,2.7-6,1-14-1.2-17.6-2.2-3.6-6.1-6.4-4.6-4.2,1.5,2.2,2.8,9.5,3.7,12.5s-.3,7.4-2.2,10.8c-1.9,3.4-10.8,7.5-13.2,10.7-2.4,3.1-5,7.6-2.9,11.4,2.1,3.8,6.1,7.1,10.4,8s6.3,2.6,14.5,3.9c8.1,1.4,14.5,2.1,14.5,2.1l-3.6-8.6Z"/>
  <path class="cls-12" d="M32.9,54.4s-2.6.3-3.9.1-1.5-.2-1.5-.2c0,0,1.4,1.6.5,2.8-.8,1.2-3.9.7-5.4.8s-8.3-.8-8.3-.8c0,0,5.3,2.2,11.7,3.3s9.6,1.2,9.6,1.2l.9-7.9-3.6.7Z"/>
  <path class="cls-8" d="M109.9,10.4c-.2-1.8,0-3.6-1-4.6-1.1-1-3.2-3-4.2-4.4-.9-1.4-1.6-1.8-2.2.8-.5,2.6,1.7,7.1,2,7.2.2,0,5.4,1,5.4,1Z"/>
  <path class="cls-7" d="M111.2,10.6c-.2-.8-.4-1.4-.3-2.1-.2,0-.3-.3-.5-.2-.2-1.3-1-.3-.2-1.3-.5.6-.6-.3-.8-.9,0,0-.7-.5-.8-1.1,0,0-.2-.2-.6-.1,0,0-.3-1.1-.4-1-.2.1-.3.4-.5.5,0-.1,0-.5,0-.4-.2.1-.6-.7-.4-1-.1.3-.3-.4-.2-1,0,0-.1.1-.2.2-.2.3-.2.4-.4.6,0,0,.1-.4.2-.4,0,0-.4.4,0-.4-.2.3-.4.3-.6.4,0-.5,0-.5,0-1-.2.2-.2.2-.4.3,0-.3,0-.3.1-.6,0,0-.2.3-.3.3,0-.2.1-.6.2-.8-.1.2-.3.4-.4.6v-.6s-.1.2-.2.2,0-.6,0-.4c-.2.3-.3-.4-.3-.4l-.2.3c0,0-.2-.5-.2-.3s0,.2-.2.4,0-.3-.2-.2-.2.2-.4.2-.2.3-.2.3c-.1.2-.3.9-.4,1.1-.2.6-.2.6-.4,1.3.1-.2.4-.2.6-.4-.2,1-.4,1.4-.4,2.1.1-.4,0-.2.3-.5,0,.9-.2,1.6-.1,2.5.1-.2,0-.3.2-.5.2.7.2,1.5,0,2.2.1-.1,0-.6.2-.7.3.5.1.5.1,1.1.1,0,.8,1.7.9,1.6,0,.4,0,1,.4,1.1,0,.1.2.8.3.9.1,0,.3-.8.5-.8.2.9.7,1,1.2.4.4.8,1.4,1.8,2.2,1.2.2.4.3.9.5,1.3.3-.2.8-.4,1.1-.6,0,.5.2.9.6,1.1,0-1,.6-3.7.9-4.7-.2.5,0,0-.5.2Z"/>
  <path class="cls-4" d="M133.1,23.5c-.3-1.4-4.1-6.2-7.6-8.5-3.6-2.3-8.5-5.1-11.4-5.8-2.9-.7-8-1.6-9-1.6-1.8,0-6.4-1.9-9.7-.9-3.3,1-10.9,3.7-12,3.2-1.1-.4-9.8-3.7-12.8-3.1-3,.6-11.8.7-20.7,9.7-8.9,9-11.4,15.6-12.9,21.2-1.5,5.6-4.1,13.6-1.4,20.3,2.7,6.7-.3,13.6,6.8,15.7,2.7.8,4.8,1.6,6.8,1.9-.2-.5,0-1.1.3-1.5v-.8c0-1.3,1.7-1.7,2.4-.6.3.4.5.7.6,1.1,2-1,4.1-1.9,6.2-2.8.4-.2.8-.2,1.2,0,.3-.2.6-.4.8-.5,0-.3.3-.6.6-.7,1-.6,2-1.2,3-1.8,0-.1.2-.3.4-.4.7-.5,1.5-.9,2.2-1.3.4-.3.8-.6,1.2-.9.3-.2.7-.3,1-.2.6-.2,1.1-.5,1.7-.7.3-.1.5-.3.8-.4.3-.2.6-.2.8-.1.2,0,.5-.2.7-.2.1,0,.3-.2.4-.2.4,0,.7-.2,1.1-.2,1.6-.4,3.2-.8,4.9-1,.3,0,.6,0,.8,0,1.5-.2,2.9-.5,4.4-.8,0,0,0,0,0,0,1.9-1,6.6-3,8.7-1.2,2.7-1.2,5.3-2.7,7.1-4.7,1.2-1.3,2.5-2.8,3.8-4.4-.4-.3-.6-.7-.5-1.3.7-2.4,3.5-4.4,5.8-5.5.7-.6,1.4-1.2,2-1.6.2-.2.5-.3.7-.5,0-.3.2-.6.6-.8,1.2-.6,2.4-1.1,3.6-1.4,1.9-.8,4-1.2,6.1-.9h0s0,0,0,0c2.9-.5,5.6-.7,7.3-1.1,3-.6,3.1-1.6,4.1-3.6.6-1.2,2-4.4,2-4.4.7-2.3-2.7-4.7-3.1-6.3Z"/>
  <path class="cls-5" d="M94.8,56.9c.3.2.5.5.7.9-.6-.5-1-1.3-1.1-2.1.6.3,1.5.5,2,.3-.2-.2-.2-.4-.3-.6.4,0,.9,0,1.3.2-.3-.8-2-2.2-2.9-2.3.5.8,2.6.3,3.5.4-1.3-1-2.3-1.9-4-2,.7.4,3,1,3.8,1-.6-.5-1.2-1.1-1.9-1.6.5.8,2,1.2,2.9,1.2-.6-.6-1.5-.8-2.1-1.4.7.7,1.7,1.2,2.7,1.3-.8-.6-1.5-1.2-2.1-2,.7.6,1.5,1.1,2.3,1.6-.5-.5-1-1.2-1.5-1.8.5.4.9.8,1.4,1.2-1-.8-1.7-1.8-2.5-2.7,1.6,1.4,3.3,2.7,2.5,2,.3-.3,1.1-1.3,1.9-.8,1.1.6,3,1.5,3.7,1.7-.8-.2-1.8-.2-2.6-.4,1,.7,3,1.3,4.2.9-.5,0-1.1,0-1.5,0,1,.7,2.3,0,3.4-.3-1.4.2-2.6.9-4,.8.8,0,1.8-.3,2.7-.2-.9.4-2.4.9-3.4.9.3.2.7.4,1,.5-.6.1-1.2.3-1.8.3.3.2.6.5.9.7-.3-.2-.7-.2-1.1-.3.2.3.2.7.4,1-.4-.2-.9-.2-1.2,0,.1.1.3.3.4.4-.1,0-.7.1-.9,0,0,.2,0,.3.2.5-1.6,0-1.9.9-3.3,1.3,0,0,.1.3.1.3-.5.2-.2.5-.4.7-.3.2-.8.2-1.3.2,0,.2-.3.5-.3.6-.3-.2-.6-.3-.9-.5,0,0,0,.2,0,.2-.4-.2-.7-.5-.7-.9,0,.1.1.3.2.4-.4-.4-.6-1-.3-1,0,0,.3-.3,0-1.1Z"/>
  <path class="cls-5" d="M99.5,20.1c0,.4-.4.9-.5,1.4.4.4-.1,1,0,1.5.3-.1.7-.3,1-.3-.2.5-.7,1-1,1.4.1,0,.2,0,.3,0-.1.2,0,.5-.2.8,1.6.8.6.9.8,2.4.1,0,.4,0,.6,0,.3.6.4,2.3,1.4,1.9-.2.4-.4,1-.2,1.4.1,0,.3,0,.4,0,0,.7.6,1,1,1.5.2.4.7,0,1.2.4s.7,1.5,1.3,1.2c0,.3-.9-1.8-.4-1.6s1.1,2.2,1.3,2c.3-.2-.2-1.8.2-1.6,0,0,.7,1.4.7,1.4,1.4,1.7.3-.8.7-.8s.7,1.4,1.3,2c.3.3.2-1.3.4-1.4,0,.3,1,2.6,1.3,2.7s-.5-2.1-.3-1.9c.7.9,1.5,2.5,1.8,2.5,1.8-.2,2.5-1.9,4-2.8-.5.3-1.6-3.6-2.1-3.6.2-.7-1.7,1-2.3.7-1.4-.6-1-.5-2.2-1.6-.7-.7-2.6.7-3-.2-.4-.9-1.2-.8-1.9-1.4-.5-.4-.3-.8-.6-1.2-.3-.4-1.3-.5-1.6-.9-.2-.3.2-.7,0-.9-.2-.3-.6-.4-.8-.7-.5-.6-.8-1.3-1.3-1.9-.6-.8-1.4-1.4-1.8-2.2l.5-.2Z"/>
  <path class="cls-5" d="M94.9,31.7c-.2.4-.8.7-1.1,1.1.2.5-.6.8-.7,1.3.4,0,.7,0,1.1.2-.4.4-1.1.6-1.6.8.1,0,.2,0,.3.1-.2.1-.3.4-.5.6,1,1.5,0,1.1-.4,2.5.2,0,.4.2.6.2,0,.7-.7,2.2.4,2.4-.4.3-.8.7-.9,1.2.1,0,.3.2.4.2-.3.6.1,1.1.2,1.7,0,.4.7.3.9.8s0,1.7.6,1.7c0,.3,0-2,.4-1.6s0,2.4.2,2.4c.4,0,.7-1.7.9-1.4,0,0,0,1.6,0,1.6.5,2.2.6-.6,1-.4s0,1.6.2,2.4.8-1.1,1-1.1c-.2.2-.3,2.7,0,3s.5-2.1.6-1.8c.2,1.1.2,2.9.5,3,1.7.6,3.1-.6,4.9-.6-.6,0,.2-4-.3-4.2.5-.6-1.9.1-2.4-.4-1-1.1-.7-.9-1.2-2.4-.3-1-2.6-.6-2.6-1.5,0-1-.7-1.3-1.1-2.1-.2-.6.1-.8,0-1.3-.1-.5-.9-1-1-1.5,0-.4.4-.5.4-.8,0-.4-.3-.6-.4-.9-.2-.8-.2-1.5-.3-2.3-.1-1-.6-1.9-.6-2.8h.6Z"/>
  <path class="cls-5" d="M101.3,20.9c-.3-.5-.4-1.9-.4-2.2-.1-7.1-1.4-7.6-2.8-9.4-3-3.9-8.9-4.2-10.2-3.9-1.3.3,8.8,16,10.1,15.6,1.2-.4,3.4,0,3.4,0Z"/>
  <path class="cls-1" d="M102,22.5c-.7-1.1-1.6-2.8-1.9-3.8,0,.8,0,1.7,0,2.5,0-.9-.2-1.8-.3-2.7,0,1.1.2,2.1.2,3.2,0-1-.6-2.3-1.1-3.2.4,1.4.9,2.6,1,4,.1,1.2,0,2.7.4,3.8,0-1.2.2-2.5.3-3.6.6,2,1.1,3.5,2.5,5.2,0-.9-.5-2.2-.2-2.9,0,1.3.5,4.9,2,5.3,0-.7,0-1.4,0-2.1.2.9.5,1.8,1.4,2.1,0-.6,0-1.3.5-1.7.2.7,0,1.9.8,2.4.3-.7.4-1.5.6-2.2.4.8.3,2.1,1.1,2.9,0-.4.4-.9.5-1.2,0,.8.1,1.7.6,2.3,0-.5.3-.8.5-1.2.2,1.4.6,3.1,1.4,4.2,0-1.1,0-2.2.2-3.3.2,1.6.7,3.1,2,4.2-.2-1.5-.9-3.1-1.2-4.7,1.2.2,2.1,4.3,3,5.5-.6-2-2.2-4.2-2-6.3.9.9,1.2,2.7,2.1,3.7,0-1.9-.8-3.9-1.7-5.6.2.6.2,1.3.1,2,0-1.4,0-3.1-.5-4.4,0,1.1-.1,2.4-.6,3.4-.8-.8-1-2.1-1.5-3.2.6.9.1,2,0,3-.7-.8-.8-2.5-1.3-3.6,0,.3,0,.6,0,.8-.3-.5-.6-1.3-.9-1.9.1,1.1-.3,2-.4,3.1-.2-.8-.1-1.6-.4-2.4-.3.7-.6,1.6-1.1,2.1-.4-.9-.6-1.9-1-2.9-.1.3-.8.6-.9.9-.4-.7-.7-1.4-1.1-2-.2.5-.6,1-1.1,1.3-.3-.6-.6-1.3-.9-1.8-.2.1-.6.2-.8.4-.6-.9-.6-2-1.1-2.9-.2,0-.4,0-.6.1l1.4,1.4Z"/>
  <path class="cls-7" d="M98.8,20.5c.5-2.8-1.9-9.7-5.3-11.8-3.4-2.2-3.8-3.2-5.7-3.3-2-.1-3.4,1.5-2.4,3.8,1,2.3,2,3.1,2.3,4.8.3,1.8,4.4,4.6,9.7,7.2.3.1,1.5-.6,1.5-.6Z"/>
  <path class="cls-7" d="M94.6,18.4c-.2-.8-.4-1.6-.4-2.3-.2,0-.5,0-.7,0-.3-1.2-.3-2.1.5-3-.6.6-1.1,1.4-1.6,2.1,0-.2,0-.4-.1-.6,0,0,0,.2,0,.2,0-.1,0-.3,0-.4,0,0,0,.1,0,.2,0-.1,0-.3,0-.4.2-1.1.8-2.3,1.3-3-.7.7-1.2,1.5-1.8,2.2-.1.1-.3.3-.5.4,0-.2-.1-.4-.2-.6,0-.6.4-1.3.7-1.8-.4.4-.9,1.2-1.5,1.7,0,0,0-.2,0-.3,0,0-.4.1-.4.2,0-.2-.2-.3-.2-.5,0,0-.1,0-.2,0,0-.5.2-1,.3-1.5-.2.3-.4.6-.7.7-.2-.6.1-1.1.2-1.6,0,0-.2.2-.3.2-.1-.3-.1-.7,0-1-.1.3-.4.6-.6.8-.1-.6.3-1.2.4-1.8,0,0-.1.1-.2.2-.2.3-.3.5-.5.8l.2-.5s0,0,.1-.1c0,0-.1.1-.2.1,0-.4.2-.8.2-1.2-.2.2-.4.5-.7.6,0-.5.2-1,.3-1.5-.2.2-.4.4-.6.5,0-.3,0-.5.2-.7,0,0-.1,0-.2,0,0-.1,0-.3.1-.5-.1.2-.3.4-.5.5l-.3-.7c0-.1.2-.3.3-.4h0c-.1.1-.3.3-.4.4,0,0,0,0,0,0-.1.2-.3.4-.4.6-.2.6-.4,1.2-.7,1.8.1-.2.3-.5.4-.7-.2.9-1,2.4-.9,3.1.2-.4.4-.7.7-1,0,.9-.6,1.7-.5,2.6.2-.2.5-.4.6-.6.2.7-.1,1.3,0,2,.1-.1.3-.2.5-.3.3.5.7,1.7.7,2.3.1,0,.4-.1.5-.2.1.4.4.8.8.9.1.1.1.3.2.4.1,0,.2-.1.3-.1.2.8.8.9,1.4.4.4.7,1.5,1.7,2.5,1.2.2.4.3.9.5,1.3.4-.2.9-.4,1.3-.6,0,.5.2.9.7,1,0-1-.3-2,0-2.9-.2.5-.5,1.1-1,1.3ZM87.3,8.3c0,0,0,.2-.1.3,0,0,0-.2,0-.3,0,0,0,0,0,0ZM87.5,8.7c-.2.2-.3.5-.4.7,0-.2,0-.3,0-.5.1-.1.3-.2.5-.3Z"/>
  <path class="cls-1" d="M97.9,17c0,.8.4,1.6.8,2.1,0-.5,0-.8-.3-1.4.1.3.2.7.3,1-2.1-.8-3.5-1.1-5.7-1.8.6.4,1.2.6,1.9.8-1-.5-2.1-1-3-1.5,0,0,.2.1.3.1-.6-.1-1-.3-1.5-.6.3,0,.6,0,.9,0-.1-.2-.3-.4-.4-.6.3,0,.5.1.7,0-.3-.5-.8-1-1.2-1.4,0,0,.2,0,.3,0-.4-.4-.7-.9-1-1.3.2,0,.2.1.4.1-.2-.4-.5-1.1-.7-1.5.2,0,.4,0,.6,0-.5-.9-.3-1.8-.8-2.8.2,0,.4,0,.5,0-.2-.6-.4-1.2-.7-1.7,0,0,.5,0,.6,0-.1-.2-.3-.4-.4-.6.9.3,1.8.8,2.7,1.1,0-.1,0-.2,0-.3.6.4,2,1,2.6,1.7-.3-.2-.5-.3-.8-.5.6.6,1.8,1.3,2.3,1.9.6.7.6,1.6,1.4,2.3-.3-.2-.5-.5-.8-.7.3,1.6,2,3,2.4,4.7,0,0-.1-.2-.2-.2.2.7.3,1.4.5,2-.2,0-.5.1-.8.1l-.7-1.2Z"/>
  <path class="cls-2" d="M99.2,20.7s.3.2-.9.4c-.6,0-1.4,0-2.1,0-.3,0-.6-.1-.9-.1-.2,0-.3,0-.3,0,0,0,.1,0,.4,0,.2,0,.5,0,.9,0,.7,0,1.5-.2,2-.3,1.2-.1.9.1.9.1Z"/>
  <path class="cls-5" d="M116.4,40.7c-4.1,1.3-8.4,6.8-12.2,11.4-2.1-1.4-3.3-4.2-2.7-6.6.5-2.4,2-4.5,4.1-5.8,2.8-1.8,5.1-1,8.1-1.1,2.7-.1,5.2-1.3,7.9-.8,1.2.2,2.2.7,3.3,1.1-2.7.4-5.7.9-8.4,1.8Z"/>
  <path class="cls-5" d="M104.2,50.2c1-.4,2.1-.8,3.2-.8-.1-.2,0-.6-.1-.8,1.7-.5,2.8-.7,4.1,0-.9-.5-2-1-2.9-1.5.3,0,.5-.2.7-.2-.1,0-.2,0-.3,0,.2,0,.4,0,.5,0,0,0-.1,0-.2,0,.2,0,.4,0,.6,0,1.5,0,3.2.5,4.2,1-.9-.7-2.1-1.1-3.1-1.7-.2-.1-.4-.3-.6-.5.3-.1.6-.2.9-.3.9,0,1.8.2,2.5.5-.6-.4-1.7-.9-2.4-1.4.1,0,.2-.1.4-.2-.1,0-.2-.4-.3-.5.2,0,.4-.3.7-.3,0,0,0-.1,0-.2.7-.2,1.4,0,2.1,0-.4-.2-.8-.4-1-.7.7-.3,1.5,0,2.2,0-.1,0-.2-.2-.4-.3.4-.2.9-.2,1.4,0-.4-.1-.9-.3-1.1-.6.8-.2,1.7.1,2.4.2,0,0-.2-.1-.3-.2-.4-.2-.7-.3-1.1-.4h.7c0,.2.1.2.2.2,0,0-.2-.1-.2-.2.6,0,1.1.1,1.7,0-.4-.2-.7-.4-.9-.6.7-.1,1.3,0,2,.1-.3-.2-.5-.4-.7-.6.3,0,.7,0,1,.1,0,0,0-.1,0-.2.2,0,.4,0,.7,0-.3-.1-.6-.3-.8-.4l1-.4c.2,0,.4.2.6.2h0c-.2-.2-.5-.3-.7-.4,0,0,0,0,0,0-.3-.1-.5-.2-.8-.4-.8-.1-1.6-.3-2.5-.5.3.1.6.2.9.4-1.3,0-3.3-.7-4.2-.6.5.1,1,.4,1.4.7-1.2.2-2.3-.4-3.5-.1.3.1.6.5.8.7-.9.3-1.8,0-2.7.4.2.1.3.3.4.5-.7.4-2.3,1.1-3.1,1.3.1.2.2.4.3.5-.6.2-1,.5-1.2,1-.2.2-.4.2-.6.3,0,.1.2.2.2.3-1.1.4-1.2,1.1-.4,1.6-1,.6-2.2,2.1-1.4,3-.6.3-1.2.5-1.7.8.3.4.6.9.9,1.4-.7.1-1.2.4-1.4.9,1.3-.2,2.7-.7,4-.4-.7-.1-1.6-.4-1.8-1ZM117.4,40.1c-.1,0-.2,0-.4,0,.1,0,.2,0,.4,0,0,0,0,0,0,0ZM116.8,40.4c-.3-.1-.7-.3-1.1-.4.2,0,.4,0,.6,0,.2.1.4.3.4.5Z"/>
  <path class="cls-1" d="M43.8,72.1c0,.4,0,.8-.1,1.1,0-.8.3-1.6.7-2.2.2.6.7,1.4,1.2,1.6,0-.3.2-.4.2-.7.3.3.5.7.7,1.1.4-.8.2-3-.4-3.7-.2.9,1.6,2.1,2.1,2.8-.2-1.6-.2-3-1.4-4.3.2.8,1.4,2.8,1.9,3.4,0-.8,0-1.7-.2-2.4-.2.9.6,2.3,1.2,2.9,0-.9-.4-1.6-.4-2.5,0,1,.3,2.1.9,2.9-.1-1-.2-1.9,0-2.9,0,1,.3,1.9.5,2.8,0-.8.1-1.5.3-2.3,0,.6,0,1.2.1,1.8-.1-1.2.1-2.5.2-3.7,0,2.1-.4,4.4,1.1,6.2-.4-.9-.7-1.9-.8-3,1.1,0,2.7,3.6,3.3,4.6-.4-.7-1.1-1.4-1.5-2.1.2,1.2,1.1,3.1,2.3,3.6-.3-.4-.7-.8-1.1-1.1.2,1.2,1.6,1.7,2.6,2.2-1.1-.8-2.5-1.3-3.4-2.4.6.6,1.4,1.1,2,1.8-.9-.4-2.3-1.1-3-1.8.1.3.2.7.3,1.1-.5-.4-1-.7-1.5-1.1,0,.4,0,.8,0,1.1,0-.4-.3-.7-.5-1-.1.3-.4.7-.4,1-.2-.4-.4-.8-.8-.8,0,.2,0,.4,0,.5,0,0-.6-.4-.7-.6,0,.2-.2.3-.2.5-1.1-1.2-1.9-.8-3.2-1.5,0,0-.1.3-.1.3-.5-.2-.5.2-.8.2-.4,0-.7-.5-1-.8-.2.1-.5.1-.7.2,0-.3-.2-.6-.2-1,0,0-.1.1-.2.2-.1-.4,0-.8.1-1.1,0,.1-.2.3-.2.4,0-.6.3-1.1.5-.9,0,0,.4,0,.8-.7Z"/>
  <path class="cls-5" d="M65.7,69.2c0,.3.2.7.1,1.1-.2-.7-.1-1.7.2-2.3.3.5,1,1.2,1.5,1.3,0-.3,0-.5,0-.7.4.2.7.5.9.9.2-.8-.5-2.9-1.2-3.5,0,.9,2,1.7,2.7,2.3-.5-1.5-.9-2.9-2.3-3.8.3.7,2,2.4,2.6,2.9-.2-.8-.5-1.6-.8-2.3,0,.9,1.1,2.1,1.8,2.6-.2-.8-.8-1.5-1-2.3.2,1,.8,2,1.6,2.6-.3-.9-.6-1.8-.7-2.8.3.9.7,1.8,1.1,2.6-.1-.7-.2-1.5-.2-2.3.2.6.4,1.2.6,1.7-.4-1.2-.4-2.4-.7-3.6.5,2,1.3,4,1,3.1.4,0,1.6-.5,2.1.3s1.7,2.9,2.2,3.4c-.6-.6-1.4-1.2-2-1.7.4,1.1,1.8,2.8,3,3-.4-.3-.9-.6-1.3-.8.5,1.1,1.9,1.3,3,1.6-1.3-.5-2.7-.7-3.8-1.5.7.5,1.6.7,2.3,1.3-1-.1-2.5-.6-3.4-1.1.2.3.4.7.6,1-.6-.2-1.2-.4-1.7-.7.1.3.2.7.3,1.1-.2-.3-.5-.6-.7-.8,0,.4-.2.7-.2,1.1-.3-.3-.6-.6-1-.6,0,.2,0,.3.1.5,0,0-.7-.3-.8-.4,0,.2-.1.3-.1.5-1.3-.9-2.1-.3-3.5-.7,0,0,0,.3,0,.4-.5-.1-.4.3-.7.4-.4,0-.8-.3-1.2-.6-.2.2-.5.3-.6.4-.1-.3-.4-.6-.4-.9,0,0,0,.1-.1.2-.2-.3-.3-.8-.2-1.1,0,.1,0,.3,0,.5-.2-.5,0-1.2.3-1,0,0,.4,0,.6-.9Z"/>
  <path class="cls-1" d="M122,21c0,.3.2.7.1,1.1-.2-.7-.1-1.7.2-2.3.3.5,1,1.2,1.5,1.3,0-.3,0-.5,0-.7.4.2.7.5.9.9.2-.8-.5-2.9-1.2-3.5,0,.9,2,1.7,2.7,2.3-.5-1.5-.9-2.9-2.3-3.8.3.7,2,2.4,2.6,2.9-.2-.8-.5-1.6-.8-2.3,0,.9,1.1,2.1,1.8,2.6-.2-.8-.8-1.5-1-2.3.2,1,.8,2,1.6,2.6-.3-.9-.6-1.8-.7-2.8.3.9.7,1.8,1.1,2.6-.1-.7-.2-1.5-.2-2.3.2.6.4,1.2.6,1.7-.4-1.2-.4-2.4-.7-3.6.5,2,.6,4.4,2.5,5.8-.6-.8-1.1-1.7-1.5-2.7,1.1-.2,3.4,2.9,4.2,3.7-.6-.6-1.4-1.2-2-1.7.4,1.1,1.8,2.8,3,3-.4-.3-.9-.6-1.3-.8.5,1.1,1.9,1.3,3,1.6-1.3-.5-2.7-.7-3.8-1.5.7.5,1.6.7,2.3,1.3-1-.1-2.5-.6-3.4-1.1.2.3.4.7.6,1-.6-.2-1.2-.4-1.7-.7.1.3.2.7.3,1.1-.2-.3-.5-.6-.7-.8,0,.4-.2.7-.2,1.1-.3-.3-.6-.6-1-.6,0,.2,0,.3.1.5,0,0-.7-.3-.8-.4,0,.2-.1.3-.1.5-1.3-.9-2.1-.3-3.5-.7,0,0,0,.3,0,.4-.5-.1-.4.3-.7.4-.4,0-.8-.3-1.2-.6-.2.2-.5.3-.6.4-.1-.3-.4-.6-.4-.9,0,0,0,.1-.1.2-.2-.3-.3-.8-.2-1.1,0,.1,0,.3,0,.5-.2-.5,0-1.2.3-1,0,0,.4,0,.6-.9Z"/>
  <path class="cls-5" d="M66,60.5c3.4-.9,6.5-2.3,9.9-3,3.9-.7,7.2-2.3,10.8-1,2.6,1,5.3,1.5,8,2.1.7.2,1.4.2,2.1.3-4.6,2.7-10.5,4.1-14.9,5.1-5.9,1.3-9,1.4-19.4,7.6-6.5,3.9-9.8,4.6-13.1,4.1,0,0,0,0,0-.1-4.9-6.2-1.5-16.7,6.8-16.9"/>
  <g>
    <path class="cls-17" d="M136.2,43.7c-.4-2.8-1.9-5.9-3.6-8.1"/>
    <path class="cls-17" d="M128.9,32.4c1.9,4.2,2.9,10.9,2.2,15.3"/>
    <path class="cls-17" d="M128,30.6c.3,2.7,0,5.8,0,8.6,0,2.4-.4,4.7-.9,7.1-.2.8-.4,1.7-.5,2.6,0,.4-.2.6,0,.3"/>
    <path class="cls-17" d="M125.7,31.7c-2.2,4.2-5.5,9.2-6.2,14"/>
    <path class="cls-17" d="M126.4,34c-1.2,3.7-2.5,7.8-3.7,11.3"/>
    <path class="cls-17" d="M126.3,29.4c-2.6,3.4-5.4,6.7-7.7,10.4-1.6,2.7-5.5,8-5.3,11.2"/>
    <path class="cls-17" d="M124.7,29.9c-4.9,4.5-10.1,9.8-13,15.9"/>
    <path class="cls-17" d="M124.9,28.6c-4.2,1.8-17.5,15.6-19.2,19.6"/>
    <path class="cls-17" d="M123.7,28.5c-2,.4-9.2,2.5-11,6.5"/>
  </g>
  <g class="cls-15">
    <path class="cls-6" d="M126.5,49.2v-.8c0,.2,0,.4,0,.5,0,.4-.2.6,0,.3Z"/>
    <path class="cls-6" d="M124.1,41c-.5,1.5-1,3-1.4,4.4l1.4-4.4Z"/>
  </g>
  <path class="cls-7" d="M44.7,58.5c0-1.4,0-2.8.6-4-.4,0-.8-.3-1.2-.3.2-2.1.5-3.5,2.4-4.6-1.2.7-2.5,1.7-3.7,2.6,0-.3,0-.6,0-1,0,.1-.1.2-.2.3,0-.2.2-.4.3-.6,0,0,0,.2,0,.3.1-.2.2-.5.3-.7.9-1.7,2.5-3.3,3.6-4.3-1.4.7-2.7,1.8-4,2.7-.3.1-.7.2-.9.4,0-.4,0-.8,0-1.1.5-1,1.3-1.9,2.1-2.6-.9.5-2.1,1.4-3.2,2,0-.2,0-.3,0-.5-.2,0-.6,0-.8,0,0-.3-.1-.6,0-.9-.1,0-.2,0-.3,0,.2-.9.8-1.6,1.2-2.3-.5.4-1,.7-1.6.8,0-1,.8-1.7,1.2-2.5-.2.1-.4.2-.6.3,0-.6.2-1.2.6-1.6-.4.4-.9.8-1.4,1,.1-1,1.1-1.8,1.6-2.6-.1,0-.3.1-.4.2-.4.3-.8.7-1.2,1l.5-.7c0,0,.2-.1.2-.2-.1,0-.2.1-.3.1.3-.6.8-1.2,1-1.9-.4.3-.9.6-1.4.7.2-.8.9-1.5,1.3-2.2-.4.2-.9.4-1.3.5,0-.4.4-.8.7-1.1-.1,0-.2,0-.3,0,.1-.2.2-.5.4-.7-.3.2-.7.5-1,.6v-1.3c.2-.2.4-.4.6-.6h0c-.3,0-.6.3-.9.5,0,0,0,0,0,0-.3.2-.6.5-.9.7-.6.8-1.3,1.7-2,2.6.3-.3.7-.6,1.1-.8-.8,1.4-2.8,3.4-3.1,4.5.4-.5,1.1-1,1.7-1.2-.4,1.4-1.8,2.4-2.1,3.9.4-.3,1-.4,1.3-.6,0,1.2-.9,2.1-.9,3.3.3-.1.6-.1.9-.3.2,1,.3,3.1,0,4.2.3,0,.6,0,.9,0,0,.8.2,1.5.8,1.9.1.3,0,.5.2.8.2,0,.4-.1.6,0-.1,1.5.8,1.9,2,1.4.3,1.4,1.6,3.6,3.4,3.2.1.8.1,1.6.2,2.4.7,0,1.6-.2,2.4-.3-.2.8,0,1.6.5,2,.4-1.6.5-3.4,1.6-4.8-.6.8-1.4,1.6-2.3,1.6ZM37.9,38.3c0,.1-.2.2-.3.4,0-.1.2-.2.3-.4,0,0,0,0,0,0ZM38.2,39.2c-.4.3-.8.6-1.1,1,0-.3.1-.5.2-.8.3-.2.6-.3.9-.2Z"/>
  <path class="cls-7" d="M77.6,46.7c-1.5,1.6-2.4,3.1-4.7,4.1,1-4.6,9.9-7.6,10.6-12.5-1.3,3.8-3.3,7.4-6.9,10.4.2-.8,1-1.5,1.3-2.3,0,1.8-1,4.5-3.6,5.2,0-1.2.1-2.4.2-3.5-.3,1.5-2.1,3.4-4.4,3.7,0-1,.6-1.9.7-2.8-.9,1.3-4.3,4-6.5,3.6.4-.7,1.1-1.5,1.9-1.8-.5,2.2-4.5,4.2-7.5,4.6,1-.7,2.2-1.3,3.2-2.1-.3,1.5-5,3.8-7.1,3.9,1.3-.8,2.7-1.6,3.4-2.7-3,.8-5,2.5-6,4.6.9-1.1,1.6-2.3,1.5-3.6-.7,1.5-.9,3-1.6,4.5-.2-.9-.4-2.4-1.5-3.2,0,.8,0,1.7.1,2.5-.2-1.2-1.2-3.2-3.1-3.5-.2.8,0,1.5.4,2.3-.5-1.6-1.5-3.4-3.3-4.5-.2.9,0,1.8.5,2.7-1.5-2.5-3.2-5-4.1-7.7.2,1.2.7,2.3.4,3.5-1.7-1.9-2.6-4.6-3.5-6.7,0,1.1.3,2.2.4,3.3-.6-2.2-1.2-4.5-1.7-6.7,0,1.4-.2,2.9-.2,4.3,0-2.2-.7-4.8,1-6.8-1.2.6-2.3,1.3-3.4,1.9-.3-3,1.8-6,4.1-8.4-.4,1.5-3,2.8-5,3.2,1.1-2.7,4-5.5,7-7.3-1.3.7-2.9,1.1-4.5,1.4,2.2-2.3,5.1-4.5,8.6-5.8-1.9.7-4.3,1-6.5.9,2.4-2.4,5.9-2.6,9.1-4-2.4.3-5,.6-7.4.6,2.1-1.4,4.4-2.9,7.3-3.5-.9,0-2,0-2.9,0,1.6-.6,3.6-.7,5-1.5-.9,0-1.9-.2-2.7-.2,2.1-.6,4.1-1.4,6.2-1.9-.3,0-.7,0-1,0,1.7-.6,3.6-1.3,5.1-2.2-.7,0-1.5-.2-2.2-.2,4.2-1.2,9.7-3.8,14.1-4.1-1,1.1-2.7,1.7-4.2,2.4,2-.2,4-1,5.9-1.6-1.9,1.4-4.3,2-5.7,3.7,1.5-.1,2.9-.6,4.2-1-1.6,1.4-5.5,1.9-6.5,3.7,1.7-.7,3.7-1.2,5.5-1.7-1,1.3-3,2.1-4.1,3.3.7-.3,1.7-.4,2.4-.8-1.3,1.5-3.7,2.2-5.5,3.4.4-.1,1.2-.2,1.7-.3-1.2,3.4-6.5,5.2-6.5,9.2.8-.7,1.5-1.6,1.7-2.5-.3,1.8-1.2,3.6-1.2,5.5,0-.8.1-1.5.7-2.1.1,2,.2,4.8-.6,6.6,0-.1,0-.9,0-.7-.2,1.8.3,3.5.3,5.3-.3-.8-.5-1.6-1-2.3-.3,1.5.8,3,1.5,4.4,0-.6.1-1.2,0-1.7-.2.9.2,2,.7,2.8,0-.3.1-.6.1-1-.2,1.3.3,2.6,1,3.8.3-.8.7-1.5,1.3-2.1,0,.5.4.9.5,1.4.9-.7,1.4-1.6,2.3-2.3,0,.4.5,1,.6,1.3.2-.5.7-1,.9-1.5,0,.4.2.6.3,1,1.3-.6,2.7-1.7,3.9-2.3,0,.1,0,.3,0,.4,1.5,0,2.3-1.2,3.6-1.6.2.8.5,1.6,1.1,2.2,1.2-.8,2.3-2,3.3-2.9.1.3.4.5.5.7.8-.5,1.5-1.1,2.2-1.7.9.8,1.7,2.1,2.1,3.2,2.1-2.9,3.9-2.7,7.8-4.3l-11.6,8.6Z"/>
  <path class="cls-5" d="M42.4,70.9c-.7.8-1.9,1.3-2.4,2.2,1.8-.8,3.2-2.6,3.4-4.5-.5.5-.9,1.2-1.5,1.6.8-.7,1.5-1.9,1.6-3-.5.6-1.1,1.2-1.8,1.5.2-.3.3-.6.5-.9-.1.2-.4.3-.6.5,0-.2.3-.4.1-.5-.2.1-.6.3-.8.4,0,0,0-.4.1-.3,0-.2,0-.9.2-1.3-.4.4-1,.8-1.6,1,.6-.7.8-1.7.8-2.6-.6.2-1.1.4-1.6.7,1.4-1.4,2.2-3.2,3.2-4.9-1.3.7-2.4,1.9-3.4,3,.4-.2.6-.6.9-1.1-.4.3-1.3,1.2-1.3,1.9.1-.7-.1-1.8-.3-2.6-.6.4-.9,1.2-1.1,1.8.3-1.6.8-3.9.3-5.5-.6,1-1.1,2.1-1.4,3.3.4-1,.8-2.5.8-3.6-.6.9-1.2,2.2-1.7,3.2.4,1.3.2,2.9.6,4.2.4-.5.5-1.2.4-1.8-.3.9,0,2.2.6,2.9.2-.4.3-.8.3-1.2-.5.7-.1,1.9.2,2.7.5-.5,1-1.2,1.2-1.8-.5.7-.9,2-.5,2.8.2-.2.4-.4.5-.6-.1,1-.2,2-.2,3,.4-.4.9-.7,1.2-1.2-.5.8-1,1.7-1.2,2.5.4-.3,1-.4,1.4-.6-.4.5-.9.9-1.4,1.3.6-.2,1.3-.5,1.9-.6-.5.3-1.1.7-1.6.9.8-.4,1.6-.7,2.4-1.1l1.7-1.8Z"/>
  <path class="cls-5" d="M38,59.1c-1,.5-2.2.5-3,1.3,2-.1,3.9-1.4,4.7-3.1-.7.3-1.3.8-2,1,1-.4,2.1-1.3,2.5-2.3-.7.4-1.4.7-2.2.8.3-.2.5-.5.8-.7-.2.1-.5.2-.7.3,0-.2.4-.3.3-.5-.2,0-.7,0-.9.1,0,0,0-.3.2-.3,0-.2.3-.8.6-1.2-.6.3-1.2.4-1.8.4.8-.5,1.4-1.3,1.6-2.2-.6,0-1.2,0-1.7.1,1.8-.9,3.1-2.3,4.7-3.5-1.4.3-2.9,1-4.2,1.7.4-.1.8-.4,1.2-.8-.4.1-1.6.7-1.9,1.4.4-.7.5-1.7.6-2.5-.7.2-1.2.8-1.6,1.4.8-1.4,2.1-3.4,2.2-5.1-.9.8-1.8,1.6-2.5,2.6.7-.8,1.6-2.1,2-3.1-.9.6-1.8,1.7-2.7,2.5,0,1.4-.8,2.8-.9,4.2.5-.4.9-.9,1-1.5-.6.8-.7,2.1-.4,3,.3-.3.5-.6.7-1-.7.5-.7,1.8-.7,2.6.6-.3,1.3-.8,1.7-1.3-.7.5-1.5,1.6-1.4,2.5.2-.1.5-.2.7-.4-.5.9-.9,1.8-1.2,2.7.5-.2,1.1-.4,1.5-.7-.7.5-1.5,1.3-2,2,.5-.1,1.1,0,1.5,0-.5.3-1.1.6-1.7.8.7,0,1.4,0,2,0-.6.2-1.3.3-1.8.3.9-.2,1.8-.1,2.7-.2l2.2-1.1Z"/>
  <path class="cls-7" d="M83.2,62.4c.6,1,.6,2.2,1.4,3-.2-2-1.6-3.8-3.3-4.6.4.6.8,1.2,1.1,1.9-.4-1-1.4-2-2.4-2.4.4.7.8,1.4.9,2.2-.2-.3-.5-.5-.7-.7.1.2.2.5.3.7-.2,0-.3-.4-.5-.3,0,.2.1.7.1.9,0,0-.3,0-.3-.2-.2,0-.8-.3-1.2-.5.3.5.5,1.2.5,1.8-.5-.7-1.4-1.3-2.3-1.5,0,.6,0,1.2.2,1.7-1-1.7-2.5-3-3.8-4.5.3,1.4,1.1,2.9,1.9,4.1-.1-.4-.4-.7-.8-1.2.2.4.7,1.6,1.5,1.8-.7-.3-1.7-.4-2.5-.5.3.7.9,1.2,1.5,1.6-1.5-.7-3.5-1.9-5.2-1.9.8.9,1.7,1.7,2.7,2.3-.8-.7-2.2-1.5-3.2-1.8.7.9,1.8,1.8,2.6,2.5,1.4,0,2.8.6,4.2.7-.4-.5-1-.8-1.6-.9.8.6,2.1.6,3,.2-.3-.3-.6-.5-1-.6.5.7,1.8.7,2.6.6-.3-.6-.8-1.3-1.3-1.6.6.7,1.7,1.4,2.5,1.3-.1-.2-.3-.5-.4-.7.9.4,1.9.8,2.8,1-.3-.5-.4-1-.8-1.5.6.7,1.4,1.4,2.1,1.9-.2-.5-.1-1.1-.1-1.5.3.5.6,1.1.9,1.7,0-.7,0-1.4,0-2,.2.6.4,1.3.4,1.8-.2-.9-.2-1.8-.4-2.7l-1.2-2.1Z"/>
  <path class="cls-7" d="M84.9,62.2c.3.3.5.6.7,1-.6-.5-1-1.5-1-2.3.6.3,1.5.7,2.1.4-.2-.2-.2-.4-.3-.7.4,0,.9.2,1.3.3-.2-.9-1.9-2.5-2.9-2.6.5.8,2.7.5,3.7.7-1.3-1.1-2.3-2.2-4.1-2.3.7.5,3,1.2,3.9,1.4-.6-.6-1.2-1.2-1.9-1.8.5.9,2.1,1.4,3,1.5-.6-.7-1.5-1-2.1-1.7.7.8,1.7,1.4,2.8,1.6-.8-.7-1.5-1.4-2-2.2.7.7,1.5,1.3,2.3,1.9-.5-.6-1-1.3-1.4-2,.5.4.9.9,1.4,1.3-1-.9-1.6-2-2.5-3,1.6,1.6,2.8,3.8,5.2,4.1-1-.4-1.9-1-2.7-1.8.9-.7,4.7.9,5.8,1.3-.9-.3-1.8-.4-2.7-.6,1,.8,3.1,1.6,4.3,1.2-.5-.1-1.1-.1-1.6,0,1,.8,2.5.2,3.6,0-1.5.2-2.8.8-4.3.6.9,0,1.9-.1,2.8,0-1,.4-2.6.8-3.7.7.3.2.7.4,1,.6-.7,0-1.3.2-2,.2.3.3.5.6.9.8-.3-.2-.7-.3-1.1-.4.2.3.2.8.4,1.1-.4-.2-.9-.3-1.2,0,.1.1.3.3.4.4-.1,0-.8,0-1,0,0,.2,0,.4.1.5-1.7-.2-2.1.8-3.6,1.1,0,0,0,.3.1.4-.5.2-.2.5-.5.7-.4.2-.9.1-1.4,0,0,.2-.3.5-.4.7-.3-.2-.6-.3-.9-.6,0,0,0,.2,0,.3-.4-.2-.7-.6-.7-1,0,.1.1.4.2.5-.4-.4-.6-1.1-.2-1.1,0,0,.3-.3.1-1.2Z"/>
  <path class="cls-7" d="M75.9,57.5c.2.3.3.7.3,1.1-.4-.7-.4-1.7-.2-2.5.5.5,1.2,1.1,1.8,1.1,0-.3,0-.5,0-.7.4.2.8.5,1.1.8,0-.9-2.8-3.9-1.8-3.5.2,1,2.4,1.4,3.2,1.9-.8-1.5-1.4-2.9-3.1-3.6.5.7,2.4,2.2,3.2,2.6-.3-.8-.7-1.6-1.2-2.3.1,1,1.5,2,2.3,2.4-.3-.8-1-1.4-1.4-2.3.4,1,1.1,1.9,2.1,2.4-.5-.9-.9-1.8-1.1-2.8.4.9,1,1.7,1.6,2.6-.3-.8-.5-1.6-.6-2.3.3.6.6,1.1.9,1.7-.6-1.2-.8-2.5-1.3-3.7.9,2,1.3,4.5,3.5,5.6-.8-.7-1.5-1.6-2-2.6,1.1-.4,4.1,2.5,5,3.2-.7-.6-1.6-1-2.4-1.5.6,1.1,2.3,2.6,3.7,2.7-.4-.3-1-.5-1.5-.6.7,1.1,2.2,1,3.4,1.2-1.4-.3-2.9-.2-4.2-1,.8.4,1.8.5,2.6,1-1.1,0-2.7-.2-3.7-.6.3.3.5.6.8.9-.6-.2-1.3-.3-1.9-.5.2.3.3.7.5,1.1-.2-.3-.6-.5-.9-.7,0,.4,0,.8,0,1.2-.3-.3-.7-.6-1.1-.5,0,.2.1.4.2.5-.1,0-.8-.2-.9-.3,0,.2,0,.4,0,.6-1.5-.7-2.2,0-3.7-.2,0,0,0,.3,0,.4-.6,0-.4.4-.7.5-.4,0-.8-.2-1.3-.4-.1.2-.4.3-.6.5-.2-.3-.5-.5-.6-.9,0,0,0,.2-.1.2-.3-.3-.4-.8-.3-1.1,0,.1,0,.4,0,.5-.3-.5-.2-1.2.2-1.1,0,0,.4-.2.5-1.1Z"/>
  <path class="cls-14" d="M68.5,58.1c.2.3.7.7.8,1.1-.4-.7-1-1.8-.8-2.6.5.5,1.8,1.3,2.4,1.2,0-.3-1.2-1.1-1.2-1.4.4.2,1.9,1.1,2.2,1.4,0-.9-3.4-4.5-1.8-3.5.2,1,2.4,1.4,3.2,1.9-.8-1.5-3.9-3.2-3.1-3.6.5.7,2.4,2.2,3.2,2.6-.3-.8-.7-1.6-1.2-2.3.1,1,1.5,2,2.3,2.4-.3-.8-1-1.4-1.4-2.3.4,1,1.1,1.9,2.1,2.4-.5-.9-.9-1.8-1.1-2.8.4.9,1,1.7,1.6,2.6-.3-.8-.5-1.6-.6-2.3.3.6.6,1.1.9,1.7-.6-1.2-.8-2.5-1.3-3.7.9,2,1.3,4.5,3.5,5.6-.8-.7-1.5-1.6-2-2.6,1.1-.4,4.1,2.5,5,3.2-.7-.6-1.6-1-2.4-1.5.6,1.1,2.3,2.6,3.7,2.7-.4-.3-1-.5-1.5-.6.7,1.1,2.2,1,3.4,1.2-1.4-.3-2.9-.2-4.2-1,.8.4,1.8.5,2.6,1-1.1,0-2.7-.2-3.7-.6.3.3.5.6.8.9-.6-.2-1.3-.3-1.9-.5.2.3.3.7.5,1.1-.2-.3-.6-.5-.9-.7,0,.4,0,.8,0,1.2-.3-.3-.7-.6-1.1-.5,0,.2.1.4.2.5-.1,0-.8-.2-.9-.3,0,.2,0,.4,0,.6-1.5-.7-2.2,0-3.7-.2,0,0,0,.3,0,.4-.6,0-.4.4-.7.5-.4,0-.8-.2-1.3-.4-.1.2-.4.3-.6.5-.2-.3-.5-.5-.6-.9,0,0,0,.2-.1.2-.3-.3-.4-.8-.3-1.1,0,.1-3.3-.9-3.3-.8-.3-.5,1.4,1.3,2.9.1,0,0,.5,0,.6-1Z"/>
  <path class="cls-14" d="M54,60.7c.2.3.3.7.3,1.1-.4-.7-.4-1.7-.2-2.5.5.5,1.2,1.1,1.8,1.1,0-.3,0-.5,0-.7.4.2.8.5,1.1.8,0-.9-1-3-1.8-3.5.2,1,2.4,1.4,3.2,1.9-.8-1.5-1.4-2.9-3.1-3.6.5.7,2.4,2.2,3.2,2.6-.3-.8-.7-1.6-1.2-2.3.1,1,1.5,2,2.3,2.4-.3-.8-1-1.4-1.4-2.3.4,1,1.1,1.9,2.1,2.4-.5-.9-.9-1.8-1.1-2.8.4.9,1,1.7,1.6,2.6-.3-.8-.5-1.6-.6-2.3.3.6.6,1.1.9,1.7-.6-1.2-.8-2.5-1.3-3.7.6,1.3,1.1,3.8,2.3,5.1s-.2-2,0-1.7c.5,1,2.3,2.1,2.8,2.4-.8-.7-1.8-1.7-2.3-2.7.4-.1,1,.3,1.8.6,1.3.4,2.9.7,3.5,1.1-.7-.6-3.3-.2-4.1-.7,2.3,2,5.9,1.7,4.5,1.9.7,1.1,0,1.8,1.2,2-1.4-.3-2.9-.2-4.2-1,.8.4,1.8.5,2.6,1-1.1,0-2.7-.2-3.7-.6.3.3.5.6.8.9-.6-.2-1.3-.3-1.9-.5.2.3.3.7.5,1.1-.2-.3-.6-.5-.9-.7,0,.4,0,.8,0,1.2-.3-.3-.7-.6-1.1-.5,0,.2.1.4.2.5-.1,0-.8-.2-.9-.3,0,.2,0,.4,0,.6-1.5-.7-2.2,0-3.7-.2,0,0,0,.3,0,.4-.6,0-.4.4-.7.5-.4,0-.8-.2-1.3-.4-.1.2-.4.3-.6.5-.2-.3-.5-.5-.6-.9,0,0,0,.2-.1.2-.3-.3-.4-.8-.3-1.1,0,.1,0,.4,0,.5-.3-.5-.2-1.2.2-1.1,0,0,.4-.2.5-1.1Z"/>
  <path class="cls-5" d="M46.5,66.9c.3.2.7.4,1,.7-.7-.3-1.4-1.1-1.7-1.8.7.1,1.7.1,2.1-.3-.2-.2-.3-.4-.5-.5.4-.1.9-.2,1.3,0-.5-.8-2.6-1.7-3.6-1.5.7.6,2.7-.4,3.7-.5-1.6-.7-2.9-1.3-4.6-.9.8.2,3.3.2,4.1,0-.8-.4-1.6-.8-2.4-1.1.7.7,2.4.6,3.3.4-.8-.4-1.7-.5-2.5-.9.9.5,2.1.8,3.1.6-.9-.4-1.9-.8-2.6-1.4.9.5,1.9.7,2.8,1-.7-.4-1.4-.9-2-1.4.6.3,1.2.5,1.8.8-1.2-.5-2.2-1.4-3.3-2,2,1,3.9,2.7,6.3,2.1-1.1,0-2.2-.3-3.2-.8.6-1,4.7-.6,5.9-.7-.9,0-1.9.3-2.8.3,1.2.4,3.4.5,4.5-.2-.5,0-1.1.2-1.6.5,1.2.4,2.4-.6,3.4-1.2-1.3.6-2.4,1.7-3.9,1.9.9-.2,1.7-.7,2.7-.9-.8.7-2.2,1.6-3.2,1.9.4,0,.8.2,1.2.2-.6.3-1.2.6-1.8.8.4.2.7.4,1.1.5-.4,0-.8,0-1.2,0,.3.3.4.7.7.9-.5,0-.9,0-1.2.4.2,0,.3.2.5.3-.1,0-.7.3-.9.3.1.1.2.3.3.5-1.7.4-1.7,1.4-3,2.2,0,0,.2.2.2.3-.4.3,0,.6-.2.8-.3.3-.8.4-1.2.5,0,.2-.1.5-.1.7-.3-.1-.7,0-1-.3,0,0,0,.2,0,.3-.4,0-.8-.3-1-.7,0,0,.2.3.3.4-.6-.2-.9-.9-.6-1,0,0,.2-.4-.3-1.1Z"/>
  <path class="cls-7" d="M68.4,69.6c-.1-.4-.2-.8-.2-1.2.3.7.2,1.7,0,2.5-.4-.6-1.1-1.2-1.7-1.3,0,.3,0,.5,0,.7-.4-.2-.8-.5-1-.9-.2.9.7,3.1,1.5,3.6,0-1-2.2-1.6-3-2.2.7,1.6,1.1,3,2.7,3.9-.4-.7-2.2-2.4-2.9-2.9.3.8.6,1.6,1,2.4,0-1-1.3-2.1-2.1-2.6.3.9.9,1.5,1.2,2.4-.3-1-.9-2-1.8-2.6.4.9.8,1.9.9,2.9-.3-1-.8-1.8-1.3-2.7.2.8.3,1.6.4,2.4-.2-.6-.5-1.2-.7-1.8.5,1.2.6,2.5,1,3.8-.7-2.1-.9-4.6-3-5.9.7.8,1.3,1.8,1.7,2.8-1.1.3-3.8-2.8-4.7-3.7.6.6,1.5,1.1,2.2,1.7-.5-1.1-2.1-2.8-3.4-3,.4.3,1,.6,1.5.7-.6-1.2-2.1-1.2-3.3-1.5,1.4.5,2.9.5,4.1,1.4-.8-.4-1.7-.7-2.5-1.2,1.1,0,2.6.4,3.6.9-.2-.3-.4-.7-.7-1,.6.2,1.3.4,1.9.7-.1-.4-.2-.8-.4-1.1.2.3.5.6.8.8,0-.4.2-.8.1-1.2.3.4.7.6,1.1.6,0-.2-.1-.4-.2-.5.1,0,.7.3.9.4,0-.2,0-.4.1-.6,1.4.9,2.2.2,3.7.5,0,0,0-.3,0-.4.5,0,.4-.4.7-.4.4,0,.8.3,1.3.5.1-.2.5-.3.6-.4.1.3.4.6.5.9,0,0,0-.1.1-.2.2.4.4.8.2,1.2,0-.1,0-.4,0-.5.2.6,0,1.2-.3,1.1,0,0-.4.1-.6,1Z"/>
  <path class="cls-5" d="M63.1,74.6c0-.3,0-.6,0-.9.2.6,0,1.4-.5,1.9-.3-.4-.9-1-1.4-1,0,.2-.1.4-.1.6-.3-.2-.6-.4-.9-.7-.3.7.2,2.4.9,2.9,0-.8-1.9-1.3-2.6-1.8.4,1.3.6,2.4,2,3.1-.3-.6-1.8-2-2.4-2.4.1.6.3,1.3.5,1.9.1-.8-.9-1.7-1.6-2.1.1.7.6,1.2.8,1.9-.1-.8-.6-1.6-1.4-2.1.2.7.4,1.5.4,2.3-.2-.8-.5-1.5-.8-2.2,0,.6,0,1.3,0,1.9-.1-.5-.3-1-.4-1.4.3,1,.2,2,.3,3-.3-1.7-.1-3.7-1.9-4.8.5.7,1,1.4,1.2,2.2-1.1.2-3.2-2.3-4-3,.5.5,1.3.9,1.9,1.4-.3-.9-1.6-2.3-2.8-2.4.4.3.8.5,1.3.6-.4-.9-1.9-1-2.9-1.2,1.3.4,2.7.5,3.8,1.2-.7-.4-1.6-.6-2.3-1,1,0,2.5.4,3.4.8-.2-.3-.3-.5-.5-.8.6.2,1.2.3,1.7.6,0-.3-.1-.6-.2-.9.1.3.4.5.7.7,0-.3.3-.6.3-.9.2.3.6.5,1,.5,0-.1,0-.3,0-.4,0,0,.7.2.8.3,0-.1.2-.3.2-.4,1.3.7,2.1.2,3.5.5,0,0,0-.2.1-.3.5,0,.5-.3.8-.3.4,0,.8.2,1.1.4.2-.2.5-.2.7-.3,0,.3.3.5.4.7,0,0,.1-.1.2-.2.2.3.2.7,0,.9,0,0,.1-.3.1-.4.1.4-.2,1-.4.9,0,0-.4,0-.7.8Z"/>
  <path class="cls-7" d="M56.9,42.5c.5-1.3,1.1-2.5,2-3.5-.3-.1-.7-.6-1-.7,1-1.9,1.8-3.1,3.9-3.4-1.4.2-3,.7-4.4,1,.1-.3.3-.6.5-.9-.1,0-.2.2-.4.2.1-.2.3-.3.5-.5,0,0,0,.2-.1.2.2-.2.4-.3.5-.6,1.5-1.2,3.5-2.2,5-2.6-1.6.1-3.1.7-4.7,1-.3,0-.7,0-1,0,0-.4.3-.7.4-1.1.8-.7,1.9-1.2,2.9-1.6-1,.1-2.5.6-3.8.6,0-.2,0-.3.2-.5-.2,0-.6-.2-.8-.2.2-.3.1-.6.3-.9,0,0-.2-.1-.3-.2.5-.7,1.4-1.1,2-1.7-.6.1-1.2.3-1.8.2.4-.9,1.3-1.3,2-1.9-.2,0-.4,0-.6,0,.2-.6.6-1,1.2-1.2-.5.2-1.2.4-1.7.4.5-.9,1.7-1.3,2.5-1.8-.1,0-.3,0-.4,0-.5.2-1,.3-1.5.5l.8-.4c0,0,.2,0,.3,0-.1,0-.3,0-.4,0,.5-.5,1.2-.8,1.6-1.4-.5.1-1.1.2-1.6.1.5-.7,1.4-1,2-1.5-.4,0-.9,0-1.4,0,.2-.4.6-.6,1.1-.7,0,0-.2-.1-.3-.2.2-.2.4-.4.7-.5-.4.1-.8.2-1.2.2l.4-1.3c.3,0,.5-.2.8-.3h0c-.4,0-.7,0-1.1.1,0,0,0,0,0,0-.4,0-.8.2-1.1.3-.9.5-1.8,1.1-2.8,1.7.4-.2.9-.3,1.3-.4-1.3,1-3.9,2-4.6,3,.6-.3,1.4-.5,2.1-.5-.9,1.1-2.6,1.6-3.4,2.8.4-.1,1.1,0,1.5,0-.5,1.1-1.6,1.6-2,2.7.3,0,.6.1.9,0-.2,1-.9,3-1.6,3.9.3,0,.6.2.8.3-.3.7-.4,1.4,0,2,0,.3-.2.5-.2.8.2,0,.4,0,.6.2-.7,1.3,0,2.1,1.4,2-.2,1.5.2,3.9,1.9,4.2-.2.8-.5,1.5-.8,2.3.7.2,1.6.4,2.3.6-.5.7-.7,1.4-.3,2.1,1-1.4,1.8-3,3.3-3.8-.8.5-1.9.9-2.7.6ZM58.2,21.2c-.1,0-.3.2-.4.2.1,0,.3-.2.4-.2,0,0,0,0,0,0ZM58.1,22c-.4.1-.9.3-1.4.5.1-.2.3-.4.5-.6.3,0,.6,0,.9.1Z"/>
  <path class="cls-14" d="M73.4,33.6s0,.6,0,.8,0,.5.1.9c0,.4-.3.6-.2,1.1v1.3c0,0-.3,0-.6.3s.4,2.3.5,2.9-.2-.3-.5-.5-.2.2-.5,1,0,1.2,0,1.2c0,0-.4-.9-.6-1s-.3.4-.5,1.2c-.2.8-.7.8-.7.8,0,0-.2-.2,0-.5.2-.3-.9-.3-.9-.3,0,.6,0,1.1,0,1.7-.1-.9-.8-2.2-2.1-2.5-.1.5,0,1.1.3,1.6-.3-1.1-1-2.4-2.2-3.2-.1.6,0,1.3.3,1.9-1-1.8-2.1-3.5-2.7-5.4,0,.8.5,1.6.2,2.4-1.1-1.3-1.8-3.2-2.3-4.7,0,.8.2,1.5.2,2.3-.4-1.6-.8-3.1-1.1-4.7,0,1-.2,2-.2,3,0-1.5-.4-3.3.8-4.7-.8.4-1.6.9-2.4,1.3-.1-2.1,1.3-4.1,3-5.8-.3,1-2.2,1.9-3.5,2.2.8-1.8,2.9-3.7,4.9-5-.9.4-2,.7-3.1.9,1.6-1.6,3.6-3,6.1-3.9-1.3.5-3,.6-4.5.5,1.7-1.6,4.1-1.7,6.4-2.7-1.7.1-3.4.3-5.1.3,1.5-.9,3.1-1.9,5.1-2.3-.6,0-1.4,0-2,0,1.1-.4,2.5-.4,3.5-1-.6,0-1.3-.2-1.9-.2.4-.1,1.1-.5,2-.9.5-.3,4-1.3,4.5-1.6s-1.6-.1-.9-.5,1.8-1,2.2-1.1c-.2,0-1.2-.8-1.4-.8,1.2-.4,2.1-.1,3.1-.7-.5,0-1.1-1.2-1.5-1.2,2.9-.8,4.4,1.6,7.4,1.5-.7.7-1.9,1.1-2.9,1.6,1.4-.1,2.8-.7,4.1-1-1.3.9-3,1.3-4,2.4,1,0,2-.3,2.9-.6-1.1.9-3.8,1.2-4.5,2.5,1.2-.4,2.6-.8,3.8-1.1-.7.9-2.1,1.4-2.9,2.2.5-.2,1.2-.3,1.7-.5-.9,1-2.6,1.4-3.9,2.2.3,0,.8,0,1.2-.2-.9,2.3-4.6,3.5-4.7,6.3.5-.5,1.1-1.1,1.2-1.7-.3,1.3-.9,2.5-.9,3.8,0-.5.1-1.1.5-1.5,0,1.4,0,3.3-.5,4.6,0,0,0-.6,0-.5-.2,1.2.2,2.4.1,3.7-.2-.6-.3-1.1-.7-1.6-.3,1,.5,2.1,1,3.1,0-.4,0-.8,0-1.2-.1.7.5,1.5.5,1.3l-1.2.2Z"/>
  <path class="cls-10" d="M86.6,41.8"/>
  <path class="cls-7" d="M66,64.7c-1.1.1-2.2.2-3.3,0,0,.2-.1.6,0,.8-1.7,0-2.9,0-3.9-1.2.7.8,1.7,1.5,2.4,2.2-.3,0-.5,0-.8,0,.1,0,.2,0,.3.1-.2,0-.3,0-.5-.1,0,0,.1,0,.2,0-.2,0-.4,0-.6-.1-1.4-.5-2.9-1.3-3.8-2,.7.9,1.7,1.6,2.6,2.4.1.2.3.4.4.6-.3,0-.6,0-.9,0-.9-.2-1.6-.7-2.3-1.2.5.5,1.4,1.3,1.9,2-.1,0-.3,0-.4,0,0,.1,0,.4.2.5-.3,0-.5.1-.7,0,0,0,0,.1,0,.2-.7,0-1.4-.4-2-.6.3.3.7.6.8,1-.8,0-1.4-.3-2.1-.6.1.1.2.3.3.4-.5,0-1,0-1.3-.3.4.2.7.5.9.8-.8,0-1.6-.6-2.3-.8,0,0,.1.2.2.2.3.2.6.5,1,.7l-.6-.3c0,0-.1,0-.2-.1,0,0,.1.1.2.2-.5-.2-1-.4-1.6-.5.3.3.6.5.7.9-.7,0-1.3-.4-1.9-.7.2.2.4.5.5.8-.4,0-.7-.2-.9-.4,0,0,0,.1,0,.2-.2,0-.4,0-.6-.2.2.2.5.4.6.6l-1.1.2c-.2-.1-.3-.3-.5-.4h0c.2.2.4.4.6.6,0,0,0,0,0,0,.2.2.4.4.7.6.7.3,1.5.7,2.3,1.1-.3-.2-.6-.4-.8-.6,1.2.4,3,1.6,3.9,1.7-.5-.2-.9-.6-1.2-1,1.2.2,2.2,1,3.4,1-.3-.2-.4-.6-.6-.8.9,0,1.8.4,2.7.3-.1-.2-.2-.4-.3-.6.8-.2,2.5-.5,3.3-.4,0-.2,0-.4-.1-.6.6,0,1.1-.2,1.4-.7.2,0,.4,0,.6-.2,0-.1-.1-.2-.1-.4,1.2,0,1.5-.7.9-1.5,1.1-.4,2.7-1.4,2.2-2.5.6-.1,1.3-.2,1.9-.3-.1-.5-.3-1.1-.5-1.6.7,0,1.3,0,1.6-.5-1.4-.1-2.8,0-4-.6.7.3,1.4.8,1.5,1.4ZM50.5,71c.1,0,.2.1.3.2-.1,0-.2,0-.3-.1,0,0,0,0,0,0ZM51.2,70.8c.3.2.6.4.9.6-.2,0-.4,0-.6,0-.2-.2-.3-.4-.3-.6Z"/>
  <path class="cls-7" d="M73.3,66.7c1.1-.1,2.2-.2,3.3,0,0-.2.1-.6,0-.8,1.7,0,2.9,0,4,1.1-.7-.8-1.7-1.5-2.5-2.2.3,0,.5,0,.8,0-.1,0-.2,0-.3-.1.2,0,.4,0,.5.1,0,0-.1,0-.2,0,.2,0,.4,0,.6.1,1.4.4,2.9,1.3,3.8,2-.7-.9-1.7-1.6-2.6-2.4-.1-.2-.3-.4-.4-.6.3,0,.6,0,.9-.1.9.2,1.6.7,2.3,1.1-.5-.5-1.4-1.2-2-2,.1,0,.3,0,.4,0,0-.1,0-.4-.2-.5.3,0,.5-.1.7-.1,0,0,0-.1,0-.2.7,0,1.4.4,2,.6-.3-.3-.7-.6-.8-1,.8-.1,1.4.3,2.1.5-.1,0-.2-.3-.3-.4.5,0,1,0,1.3.3-.4-.2-.8-.5-.9-.8.8,0,1.6.5,2.3.8,0,0-.1-.2-.2-.2-.3-.2-.6-.5-1-.7l.6.3c0,0,.1,0,.2.1,0,0-.1-.1-.2-.2.5.2,1,.4,1.6.5-.3-.2-.6-.5-.7-.9.7,0,1.3.4,1.9.6-.2-.2-.4-.5-.5-.8.4,0,.7.2.9.4,0,0,0-.1,0-.2.2,0,.4,0,.6.2-.2-.2-.5-.4-.6-.6l1.1-.2c.2.1.3.3.5.4h0c-.2-.2-.4-.4-.6-.6,0,0,0,0,0,0-.2-.2-.5-.4-.7-.5-.7-.3-1.5-.7-2.3-1.1.3.2.6.4.8.6-1.2-.4-3-1.5-4-1.6.5.2.9.6,1.2,1-1.2-.1-2.2-1-3.4-1,.3.2.4.6.6.8-.9,0-1.8-.4-2.7-.2.1.2.2.4.3.6-.8.2-2.5.6-3.3.4,0,.2,0,.4.1.6-.6,0-1.1.3-1.4.7-.2,0-.4,0-.6.2,0,.1.1.2.1.4-1.2,0-1.4.7-.8,1.5-1.1.4-2.7,1.5-2.1,2.6-.6.2-1.3.2-1.9.3.1.5.3,1.1.5,1.5-.7,0-1.3,0-1.5.6,1.4.1,2.8,0,4,.6-.7-.3-1.4-.8-1.5-1.4ZM88.6,60.1c-.1,0-.2-.1-.3-.2.1,0,.2,0,.3.1,0,0,0,0,0,0ZM87.9,60.3c-.3-.2-.6-.4-.9-.6.2,0,.4,0,.6,0,.2.2.3.4.3.6Z"/>
  <g>
    <path class="cls-11" d="M114.7,17.5s-.5-2-2.3-2.3-3.3.4-3.6,1.9.8,2.3,1.6,2.5c1.9.6,3.3.4,3.7,0s.6-2.1.6-2.1Z"/>
    <path class="cls-6" d="M112.8,20s1.7-.8,1.7-1.8c0-1.6-.7-2.2-.7-2.2,0,0,1.4,1.4,1.5,2.1,0,.9,0,1.5-1.4,1.8s-1.1,0-1.1,0Z"/>
    <circle class="cls-13" cx="112.8" cy="17" r=".8"/>
  </g>
  <path class="cls-10" d="M136,30.6s.2-.8-.3-.8-3.4.7-3.8,1.5c-.5.8-.4,2.1,0,2.5.4.4,1.2.7,1.5.6s.5,0,.8-.2c.5-.5,1.8-3.6,1.8-3.6Z"/>
  <path class="cls-11" d="M131.4,32.1c.1-1.1,2.3-1.7,4.3-2,.1,0,.3,0,.4,0,0,0,.2,1.2-.6,2.6-.8,1.4-1.1,1.3-1.5,1.3-2.1.1-2.7-.7-2.6-1.9Z"/>
  <path class="cls-3" d="M135,31s-2.1.4-2.4.9-.4,1.2,0,1.3.8,0,.6-.2,0-.8.2-1,1.6-1,1.6-1Z"/>
  <path class="cls-5" d="M93.3,19.2c-.4-1-2.2-.6-2.9-1.2.2.4,1.1.7,1.5.9-.3-.1-.7-.2-1-.2.4.6,1.5.6,2.2,1,0,0,0,0,0-.1.5.5,1.3.6,1.6,1.2-.1-.3-.2-.6-.5-.8.2.4.3.8.7,1,0,0-.1-.1-.2-.2.1.3.4,1.1.7,1,0-.1-.2-.3-.4-.3.1.4.5.9.9,1-.2-.1-.5-.3-.8-.4.2.7,1.6,1.7,2.3,2-.4,0-.7-.2-1-.4.2.5.6.8,1,1.2-.3-.1-.6-.2-.9-.2.3.5.8.9,1.3,1.2-.2-.2-.5-.2-.7-.2.3.5.8,1.1,1.3,1.4-.3-.5-.6-1.1-.8-1.7.2.1.4.3.7.4,0-.5-.5-1.2-.8-1.7.2.1.3,0,.5,0-.1-.3-.3-.5-.3-.9.1.1.3.3.6.3,0-.4-.3-.8-.4-1.1.2,0,.3,0,.4,0-.1-.4-.3-.9-.4-1.3.4.2.8.3.6-.4.2,0,.4,0,.6,0,0-.3-.4-.5-.7-.4,0,0,0,.2.1.3-.5-.1-1.2-.4-1.6-.4.1.2.2.5.3.7-.1,0-.3,0-.4-.1,0,0,0,.1,0,.2-.4-.1-.7-.6-1-.7.2.3.3.7.4,1-.3-.6-.9-1.4-1.6-1.6.1.4.4.7.6,1-.3-.7-1.8-1.4-2.6-1.4,0,.2.2.4.4.4-.5-.5-1.4-.7-1.8-1.3l2.4.9Z"/>
</svg>