<?xml version="1.0" encoding="UTF-8"?><svg id="Insieme_di_64_icone" xmlns="http://www.w3.org/2000/svg" xmlns:xlink="http://www.w3.org/1999/xlink" viewBox="0 0 32 32"><defs><style>.cls-1{fill:#dbdbdb;}.cls-2{fill:#fff;filter:url(#drop-shadow-1);}</style><filter id="drop-shadow-1" filterUnits="userSpaceOnUse"><feOffset dx="1" dy="1"/><feGaussianBlur result="blur" stdDeviation="1"/><feFlood flood-color="#000" flood-opacity=".15"/><feComposite in2="blur" operator="in"/><feComposite in="SourceGraphic"/></filter></defs><g id="Vomiting"><path class="cls-2" d="M5.78,2.96l-.64,6.29,.49,.14s.51,3.77,.51,4.8c0,2.58-1.15,13-1.15,13,0,0,14.67,1.43,18.1,1.17,.61-.05,4.41-2.43,4.41-2.43L24.18,2.82l-4.62,.14-4.03-.24-7.09,.28-2.65-.05Z"/><polygon class="cls-1" points="23.54 27.64 26.97 25.76 24.26 6.11 24.43 16.69 23.54 27.64"/><polygon class="cls-1" points="5.62 9.39 5.8 10.51 20.31 9.95 22.33 9.56 12.95 9.61 5.62 9.39"/></g></svg>