<?xml version="1.0" encoding="UTF-8"?>
<svg id="Livello_1" data-name="Livello 1" xmlns="http://www.w3.org/2000/svg" version="1.1" viewBox="0 0 185.2 118.3">
  <defs>
    <style>
      .cls-1 {
        stroke: #230904;
      }

      .cls-1, .cls-2, .cls-3, .cls-4 {
        fill: none;
        stroke-linecap: round;
        stroke-linejoin: round;
      }

      .cls-1, .cls-3 {
        stroke-width: .4px;
      }

      .cls-2 {
        stroke-width: 2.2px;
      }

      .cls-2, .cls-4 {
        stroke: #fff;
      }

      .cls-5 {
        fill: #895645;
      }

      .cls-5, .cls-6, .cls-7, .cls-8, .cls-9, .cls-10, .cls-11, .cls-12, .cls-13, .cls-14, .cls-15, .cls-16, .cls-17, .cls-18, .cls-19, .cls-20 {
        stroke-width: 0px;
      }

      .cls-21 {
        opacity: 0;
      }

      .cls-6 {
        fill: #86aebc;
      }

      .cls-3 {
        stroke: #330d04;
      }

      .cls-7 {
        fill: #665550;
      }

      .cls-8 {
        fill: #ceb9b6;
      }

      .cls-9 {
        fill: #774b39;
      }

      .cls-10 {
        fill: #663f31;
      }

      .cls-11 {
        fill: #000;
      }

      .cls-12 {
        fill: #563b2f;
      }

      .cls-13 {
        fill: #51423f;
      }

      .cls-14 {
        fill: #6d94a5;
      }

      .cls-15 {
        fill: #cfb1a9;
      }

      .cls-16 {
        fill: #6d5b55;
      }

      .cls-17 {
        fill: #2b2b2a;
      }

      .cls-18 {
        fill: #b59e99;
      }

      .cls-19 {
        fill: #efefef;
      }

      .cls-4 {
        stroke-width: 3.4px;
      }

      .cls-20 {
        fill: #845444;
      }
    </style>
  </defs>
  <g>
    <path class="cls-4" d="M136,71.9c-3.1-.2-25.6-1.3-31.3-1.7-3.9-.3-1.6-3.6-6.4-5.8,0-.1,0-.3-.1-.4.1,0,.2-.1.4-.2.2,0,.4.1.5.2-.1,0-.2-.2-.4-.3.4-.2.8-.4,1.2-.6,0,0,0,0,.1,0,0,0,0,0,0,0,.1,0,.3-.1.4-.2.2,0,.3.1.5.3,0-.2.2-.4.3-.6.4,0,.9,0,1.2-.1.2-.1,0-.4.4-.6,0,0,0,0,0,0,.3,0,.7-.2,1-.2.3.5.8,1.1,1.2,1.5.7.6,1.6,1.1,1.9,1.1,0,0,.1,0,.1,0,.3.1.6.2.9.2,1.4.2,2.3,2.4,4.4,2.4.7,0,.9-.2.8-.6,1.2.2,1.9,2.6,1.9,1.5,0-1.1-1.5-3.3-2.6-2.9-.2-.4-.4-.8-.2-.9.7-.3,2,1.9,3.7,1.5.3,0,.5-.2.7-.3.9.6,1.4,2.2,1.4,1.3,0-.5-.4-1.3-1-1.9,0-.2,0-.3,0-.5,1.2-.3,2.7,1.8,2.4.8-.3-.8-1.4-1.6-2.5-1.8,0-.2.1-.5.1-.9,1.2-.2,2.8,1.3,2.3.4-.4-.7-1.8-1.3-2.8-1.4-1.1-1-5.2-2.5-7.1-2.7l-1-.3c0,0-.1,0-.2,0l-.3-.2c.1,0,.3,0,.4,0-.3-.1-.6-.3-.9-.4.9,0,2.3-.5,3.1-.8-.3,0-.7,0-1,0,0,0,.2,0,.3,0-.3,0-.7,0-1-.2-.3,0-.6,0-.9-.2.1-.2.3-.3.4-.5.1,0,.3,0,.4,0,0,0-.2,0-.4-.1,0,0,.1-.1.2-.2.3,0,.6,0,.9,0-.3,0-.5-.1-.8-.2.3-.4.7-.8,1-1.3.3,0,.6-.1.9-.1-.1-.2,0-.5-.1-.7,1.5-.5,2.5-.7,3.7,0-.8-.5-1.8-.9-2.7-1.4.2,0,.5-.1.7-.2-.1,0-.2,0-.3,0,.2,0,.3,0,.5,0,0,0-.1,0-.2,0,.2,0,.4,0,.6,0,1.3,0,2.9.5,3.8.9-.8-.6-1.9-1-2.8-1.5-.1-.1-.3-.3-.5-.4.2-.1.5-.2.8-.3.2,0,.4,0,.7,0,0,0-.1.2-.1.3l.2-.3c.5,0,1.1.2,1.6.4-.3-.2-.8-.5-1.3-.7l1.3-1.6c.1,0,.3,0,.4,0,0,0-.2,0-.3-.1l.5-.6c.3,0,.6,0,.9,0-.1,0-.2-.2-.3-.3.4-.2.8-.2,1.2,0-.4,0-.8-.3-1-.5.6-.2,1.3,0,1.9.1-1.6,2.5-3.7,6-3.5,8.2l5.5-9.1s0,0,.1,0c0,0,0,0-.1,0l.2-.4s0,0,.1,0c0,0,0-.1,0-.2h0c.2,0,.4,0,.6,0-.2,0-.3-.2-.5-.3v-.2c.4,0,.7-.1,1-.2,0,0,.1,0,.2,0h0c0,0,0,0-.1,0,0,0,.2,0,.2,0-.9,1.8-1.6,3.7-1.8,5.5l2.5-5.7c.8-.1,1.6-.3,2.3-.4-.2,0-.4-.1-.5-.2.2,0,.4,0,.7,0l-.7,2.1c.2-.7.5-1.4.7-2.1.8-.1,1.5-.2,2.2-.3l-.7,9.2c0,.2,0,.3,0,.5,0,.3-.1.4,0,.4,0,0,0,0,0-.1v-.6h0s0,0,0,0c.1-.7.3-1.3.4-2,.4-2.2.8-4.2.8-6.5,0-.3,0-.6,0-.9.6,0,1.1-.2,1.6-.2l1.3,8.8c.4-2.5.2-5.9-.5-9,1.2-.3,1.8-.7,2.2-1.2l2.9,6.6c-.3-2.3-1.4-4.8-2.8-6.8.3-.5.6-1.1.9-1.8,0,0,.1-.2.2-.3.2,0,.5-.3,1-1.1.6-1.2.5-2.2.5-2.3,0-.1,0-.2,0-.2.2-.6,0-1.1-.2-1.7l10.4,1.9c-3.2-1.2-7-1.9-10.5-2.1,0,0,0-.1-.1-.2l12.9,1.3c-1.6-1.6-6.1-1.6-8.3-1.7-.9,0-3.5-.2-4.8,0-.2-.3-.4-.5-.5-.8l13.5-2.6c-4-.3-10.1.2-13.7,2.2-.2-.2-.3-.4-.5-.6l13.4-5.4c-3.2.2-6.4,1.6-9.3,2.8-.7.3-1.9.9-2.9,1.4-.4-.1-.8-.2-1.1-.4.3.2.7.3,1,.4-.5.3-.9.6-1.2.9-.2-.3-.4-.5-.5-.8l.3-.2c.4,0,.7.2,1.1.2-.2-.2-.5-.3-.8-.5h0s0,0,.1,0c0,0,0,0,0,0h.2c.1,0,.3,0,.4,0,0,0-.2-.1-.3-.2l6-5.1c-1.2.6-5.2,2.9-6.6,4.7,0,0-.2,0-.2-.1,0,0,0,0,0,0,0,0,0,0,.1.1,0,0,0,0,0,0,0,0,0-.1,0-.2-.1,0-.2-.2-.3-.3l.4-.4s0,0,.1.1c0,0,0,0-.1-.1l14.4-12.1c-5.4,1.9-11.9,6.5-14.6,11.8-.9-1-2.6-3.1-3.4-3-.1-.1-.3-.3-.4-.4-.2-.8-.3-1.6-.5-2.4.2.7.2,1.5.3,2.2,0,0,0,0-.1-.1,0-.1,0-.2-.1-.3,0,0,0,.2,0,.3-.9-.9-1.8-1.7-2.7-2.3-3.2-2.1-7.7-4.6-10.4-5.3-.8-.2-1.8-.4-2.8-.6,0,0,0,0,0,0-.2,0-.3-.2-.5-.2-.2-1.1-.9-.3-.2-1.1-.5.6-.6-.3-.8-.8,0,0-.6-.4-.7-1,0,0-.2-.2-.5-.1h0c0,0-.3-1-.3-.9-.1,0-.2.2-.3.3,0,0,0,0-.1-.1,0-.1,0-.2,0-.2-.2.1-.5-.6-.4-.9-.1.3-.3-.4-.1-.9,0,0,0,.1-.1.2-.1.2-.2.3-.3.6,0,0,.1-.4.2-.4,0,0-.4.4,0-.3-.1.2-.3.3-.5.4,0-.5,0-.5,0-.9-.2.2-.2.2-.4.3,0-.2,0-.3.1-.5,0,0-.2.3-.3.3,0-.1.1-.5.2-.7,0,.2-.2.4-.4.5v-.5s-.1.2-.2.2c-.1,0,0-.5,0-.4-.2.3-.3-.3-.3-.3l-.2.3c0,0-.2-.4-.2-.3,0,0,0,.2-.2.3,0,0,0,0,0,0,0,0,0-.3,0-.2,0,0-.2.2-.4.1-.1,0-.2.3-.2.3-.1.2-.3.8-.4,1-.2.5-.2.6-.4,1.1,0-.2.3-.2.4-.3,0,.1,0,.3,0,.4-.1.5-.3.9-.2,1.4.1-.3,0-.2.3-.4,0,.8-.2,1.4,0,2.3.1-.2,0-.3.2-.5,0,.3.1.6.1.9-2-.5-4.7-1.1-6.8-.5-.1,0-.2,0-.4.1-2.6-1.3-5.6-1.4-6.4-1.2-.2,0-.3,0-.5,0h0s0,0,0,0c-1.5.1-2.5,1.5-1.7,3.4,0,.1.1.2.2.4-1,.2-1.8.4-2,.2-.1,0-.4-.2-.7-.3,0,0,0,0,0,0,0,0,0,0,0,0-2.3-.9-8.5-3-10.8-2.5-2.2.5-7.6.6-13.8,4.7-.3,0-.6.2-.8.3.1,0,.3,0,.4,0-.8.6-1.6,1.2-2.5,1.9-.2,0-.4.1-.6.2.1,0,.2,0,.3,0,0,0-.1.1-.2.2-1.6.5-3.2,1-4.8,1.5.8,0,1.7.2,2.5.2-1.2.8-3.1.8-4.5,1.4.8,0,1.8,0,2.6,0-2.6.6-4.7,1.9-6.6,3.2,1.7,0,3.5-.2,5.2-.3-.2.2-.3.4-.5.6-2.3.8-4.6,1.2-6.3,2.9,1.4,0,3,0,4.4-.4,0,0-.1.2-.2.3-2.5,1.2-4.5,2.8-6.1,4.5,1.4-.2,2.9-.6,4.1-1.2-2.7,1.7-5.3,4.2-6.3,6.6,1-.2,2.2-.7,3.2-1.3-1.1,1.5-2,3.1-2.3,4.7-.3.4-.6.9-.7,1.2.2-.2.4-.4.6-.6,0,.2,0,.5,0,.7.2,0,.3-.2.5-.3-.5.8-1.2,1.6-1.4,2.5.3-.2.9-.3,1.2-.5,0,1.1-.8,1.9-.8,3,.3,0,.6-.1.8-.2,0,.1,0,.3,0,.5-.2.2-.3.4-.5.5,0,1.2-.7,2.5-.8,3.8.2-.1.4-.3.5-.5-.2.6-.1,1.3,0,1.8,0,0,0,0,0-.1-.1.4-.2.9-.2,1.2h-.8c-1.1.2-2.4.3-4,.2-.7,0-.9,0-.9,0,0,0,0,0,0,0-1.3-.1-2.8-.3-4.5-.6-8.9-1.6-14.8-3.9-15.5-5.9-.7-2-.2-4.1,2.6-7.3s9.3-7.7,11.8-13.1c2.4-5.4.9-12.7-1.1-15.9-2-3.2-5.5-5.8-4.2-3.8,1.3,2,2.6,8.6,3.3,11.3.8,2.7-.3,6.7-2,9.8-1.7,3-9.8,6.8-11.9,9.6-2.1,2.8-4.5,6.9-2.6,10.3,1.9,3.4,5.6,6.4,9.4,7.2,1,.2,1.9.5,2.9.8,0,0,4.8,2,10.6,3,.4,0,1.1.2,1.8.3-3.2.5-7.6.9-14.1.9s-29.2,6.4-6.9,12.9c10.9,3.2,10.7,7.5,13.7,9.3,4.3,2.6-1.4,6.1,10.8,6.1s17.6,5.6,26.3,6.7c4.3.5,24.7-1.8,26.5-5.5,1.8-3.7,20.1-4.4,29.2-4.8,9.1-.4,23.9,4.3,29.9-7.5,2.5-4.9-8.2-9.8-18.4-10.3ZM120.3,46.1c0,0-.1.2-.2.2,0,0-.2-.1-.2-.2.1,0,.3,0,.4,0ZM102.6,61.7c0,0,0-.1,0-.2.3,0,.6-.2.8-.4,0,.1.1.2.2.3-.3,0-.7.1-1,.2ZM115,50c-.3-.2-.5-.3-.7-.5.1,0,.2-.1.3-.1,0,0-.1-.2-.2-.3,0,0,.2-.1.2-.2.1,0,.2-.1.3-.1,0,0,0-.1,0-.2,0,0,0,0,0,0,.3,0,.6,0,.8,0-.3.5-.6,1-.8,1.5ZM115.8,47.8c.1,0,.3,0,.4,0,0,.1-.1.2-.2.3,0,0-.2-.1-.2-.2ZM119.7,47c-.3-.1-.7-.3-1-.4h.6c0,.2.1.2.2.2,0,0-.1,0-.2-.2.2,0,.5,0,.7,0,0,.1-.1.2-.2.3,0,0,0,0,0,0ZM134,28.8c0,.2-.2.3-.3.5-.5-.5-.9-1.2-1.2-1.7.4.4,1,.8,1.4,1.2Z"/>
    <path class="cls-4" d="M125.8,46.4h0c0,0-.1.3-.2.5-.1.3-.2.7-.3,1,0,0,0,0,0,0,0,0,0,0,0,0-.3.8-.5,1.5-.7,2.3,0,0,0,0,0,0h0s0,0,0,0l1.3-4s0,0,0,0c0,0,0,0,0,.1Z"/>
    <path class="cls-4" d="M111.4,56.2c.1,0,.3,0,.4-.1-.3,0-.7.1-1,.2-.3,0-.7.2-1,.3,0,0,0,0,0,0,0,0,0,0,0,0,.5,0,1.1-.2,1.6-.4Z"/>
    <path class="cls-4" d="M109.5,56.4s0,0,.1,0c.2,0,.4,0,.6-.1-.2,0-.5,0-.7,0-.2,0-.5,0-.7,0,0,0,0,0,0,0h0s0,0,0,0c.2,0,.4,0,.6,0Z"/>
  </g>
  <path class="cls-6" d="M85.8,62.6c20.8.3,13.2,7.2,18.9,7.6s28.2,1.5,31.3,1.7c10.2.5,20.9,5.4,18.4,10.3-6,11.8-20.8,7.1-29.9,7.5s-27.3,1.2-29.2,4.8c-1.8,3.7-22.2,6-26.5,5.5-8.7-1.1-20.1-6.7-26.3-6.7-12.2,0-6.5-3.5-10.8-6.1s-2.8-6.1-13.7-9.3c-22.3-6.5-.3-12.9,6.9-12.9,23.9,0,19.4-4.9,31.3-5.8,19.1-1.4,25.9,3.2,29.6,3.3Z"/>
  <path class="cls-2" d="M110.1,56.3c-.4,0-1,0-1.4,0,0,0,0,0,0,0,.5,0,1,0,1.3,0Z"/>
  <path class="cls-2" d="M111.8,56c-.7.1-1.3.4-2,.5.7,0,1.4-.3,2-.5Z"/>
  <path class="cls-2" d="M128.1,53c0,.2,0,.3,0,.5,0,.4-.2.5,0,.3v-.6s0,0,0,0h0Z"/>
  <path class="cls-2" d="M125.9,46.3c0,.2-.1.4-.2.6-.1.3-.2.7-.3,1-.3.8-.5,1.6-.8,2.3l1.3-4c0,0,0,.1,0,.2h0Z"/>
  <path class="cls-15" d="M102.8,54.8c1.8.8,4.6,3.6,6.7,3.7,2.1.2,6.6,2,7.3,2.9.7.9,0,1.3.2,1.7.2.4.6,2-1.1,2.3-1.7.3-3-1.8-3.7-1.5-.7.3,2.1,2.8,0,2.8-2.2,0-3-2.2-4.4-2.4-1.4-.2-3.5-1.6-4.6-3.5-1.1-1.9-2.7-5.8-2.7-5.8l2.4-.3Z"/>
  <path class="cls-18" d="M109.5,58.5l-1.1-.3-2-1.1-3.6,3,.4.8s1,1.6,1.6,2.2,1.6,1.1,1.9,1.1c.9,0-1.4-.3.2-2.6,1.6-2.3,2.6-3,2.6-3Z"/>
  <g>
    <path class="cls-3" d="M148.7,17c-5.7,2-12.6,7-15.1,12.7"/>
    <path class="cls-3" d="M141,25.1c-1.5.7-7.5,4.2-7.1,6.1"/>
    <path class="cls-3" d="M148.3,26.5c-3.2.2-6.4,1.6-9.3,2.8-1.3.6-4.2,1.9-4.7,2.9"/>
    <path class="cls-3" d="M149.1,30.4c-4.3-.4-11.2.3-14.7,2.9"/>
    <path class="cls-3" d="M149.4,35.4c-1.6-1.6-6.1-1.6-8.3-1.7-1.1,0-5.1-.3-5.6.3"/>
    <path class="cls-3" d="M147,36.5c-3.6-1.4-7.8-2.1-11.6-2.2"/>
  </g>
  <path class="cls-12" d="M115.7,61.5c.3-.8,3.2.2,3.7,1.1.5,1-1.3-.9-2.5-.4-1.2.5-1.5,0-1.2-.8Z"/>
  <path class="cls-12" d="M116.1,63.1c1.4-.3,3.1.7,3.4,1.8.3,1.1-1.1-1.1-2.4-.8-1.2.3-1.1-1-1.1-1Z"/>
  <path class="cls-12" d="M115.4,63.6c.7-.6,2.7,1.7,2.7,2.8,0,1.1-.7-1.4-2-1.5-1.3-.1-1.4-.7-.7-1.3Z"/>
  <path class="cls-12" d="M112.3,64.8c1.1-.7,2.7,1.7,2.7,2.8,0,1.1-.7-1.4-2-1.5-1.3-.1-1.8-.6-.7-1.3Z"/>
  <path class="cls-15" d="M46.6,57.8s-3.8,1.6-12.7,0c-8.9-1.6-14.8-3.9-15.5-5.9-.7-2-.2-4.1,2.6-7.3,2.8-3.2,9.3-7.7,11.8-13.1,2.4-5.4.9-12.7-1.1-15.9-2-3.2-5.5-5.8-4.2-3.8,1.3,2,2.6,8.6,3.3,11.3s-.3,6.7-2,9.8c-1.7,3-9.8,6.8-11.9,9.6s-4.5,6.9-2.6,10.3c1.9,3.4,5.6,6.4,9.4,7.2s5.7,2.3,13.1,3.5,13.1,1.9,13.1,1.9l-3.3-7.8Z"/>
  <path class="cls-18" d="M43.4,58.4s-2.3.2-3.5,0-1.4-.1-1.4-.1c0,0,1.2,1.5.5,2.5-.8,1-3.5.7-4.9.7s-7.5-.7-7.5-.7c0,0,4.8,2,10.6,3,2.1.4,8.7,1.1,8.7,1.1l.8-7.1-3.2.6Z"/>
  <path class="cls-13" d="M113,18.7c-.2-1.6,0-3.2-.9-4.1-1-.9-2.9-2.7-3.8-4-.8-1.3-1.5-1.6-2,.7-.5,2.4,1.6,6.5,1.8,6.5.2,0,4.9.9,4.9.9Z"/>
  <path class="cls-12" d="M114.2,18.8c-.2-.7-.3-1.2-.3-1.9-.2,0-.3-.2-.5-.2-.2-1.1-.9-.3-.2-1.1-.5.6-.6-.3-.8-.8,0,0-.6-.4-.7-1,0,0-.2-.2-.5-.1,0,0-.3-1-.3-.9-.1.1-.3.3-.4.4,0-.1,0-.4,0-.4-.2.1-.5-.6-.4-.9-.1.3-.3-.4-.1-.9,0,0,0,.1-.1.2-.1.2-.2.3-.3.6,0,0,.1-.4.2-.4,0,0-.4.4,0-.3-.1.2-.3.3-.5.4,0-.5,0-.5,0-.9-.2.2-.2.2-.4.3,0-.2,0-.3.1-.5,0,0-.2.3-.3.3,0-.1.1-.5.2-.7,0,.2-.2.4-.4.5v-.5s-.1.2-.2.2,0-.5,0-.4c-.2.3-.3-.3-.3-.3l-.2.3c0,0-.2-.4-.2-.3s0,.2-.2.3,0-.3-.1-.2-.2.2-.4.1-.2.3-.2.3c-.1.2-.3.8-.4,1-.2.5-.2.6-.4,1.1.1-.2.4-.2.5-.4-.2.9-.4,1.2-.3,1.9.1-.3,0-.2.3-.4,0,.8-.2,1.4,0,2.3.1-.2,0-.3.2-.5.2.6.2,1.4,0,2,.1-.1,0-.6.2-.7.2.5.1.5.1,1,.1,0,.7,1.5.8,1.5,0,.4,0,.9.4,1,0,.1.1.7.3.8.1,0,.3-.7.4-.7.1.8.6.9,1.1.4.4.7,1.3,1.6,2,1.1.2.4.3.8.4,1.2.3-.2.7-.4,1-.5,0,.5.2.8.5,1,0-.9.6-3.4.9-4.2-.2.5,0,0-.5.2Z"/>
  <path class="cls-9" d="M134,30.5c-.3-1.2-3.7-5.6-6.9-7.7-3.2-2.1-7.7-4.6-10.4-5.3-2.6-.6-7.3-1.4-8.2-1.5-1.6,0-5.8-1.7-8.8-.8-3,.9-9.9,3.3-10.8,2.9-1-.4-8.9-3.3-11.6-2.8-2.7.6-10.6.6-18.7,8.8-8.1,8.1-10.3,14.1-11.7,19.2-1.4,5.1-3.7,12.3-1.2,18.3,2.5,6.1-.2,12.3,6.2,14.2,2.5.7,4.3,1.4,6.2,1.7-.2-.5,0-1,.2-1.3v-.7c0-1.2,1.5-1.5,2.2-.6.2.3.4.7.6,1,1.8-.9,3.8-1.7,5.6-2.6.4-.2.8-.2,1.1,0,.3-.2.5-.3.8-.5,0-.3.2-.5.5-.7.9-.5,1.8-1.1,2.8-1.6,0-.1.2-.2.3-.3.7-.4,1.3-.8,2-1.2.4-.3.7-.5,1.1-.8.3-.2.6-.3.9-.2.5-.2,1-.4,1.5-.6.2-.1.5-.2.7-.4.3-.1.5-.2.8-.1.2,0,.4-.1.7-.2.1,0,.2-.1.4-.2.3,0,.7-.1,1-.2,1.4-.4,2.9-.7,4.4-.9.3,0,.5,0,.7,0,1.3-.2,2.6-.5,4-.7,0,0,0,0,0,0,1.7-.9,6-2.7,7.9-1.1,2.5-1.1,4.8-2.5,6.4-4.3,1.1-1.2,2.2-2.5,3.4-4-.4-.2-.6-.7-.4-1.2.6-2.2,3.1-4,5.3-5,.6-.6,1.2-1.1,1.8-1.5.2-.1.4-.3.6-.4,0-.3.2-.6.6-.7,1.1-.6,2.1-1,3.2-1.3,1.8-.7,3.6-1,5.5-.8h0s0,0,0,0c2.6-.4,5-.7,6.6-1,2.7-.5,2.8-1.5,3.7-3.2.5-1,1.8-4,1.8-4,.6-2.1-2.4-4.3-2.8-5.7Z"/>
  <path class="cls-10" d="M99.4,60.7c.2.2.5.5.6.8-.5-.4-.9-1.2-1-1.9.5.2,1.3.5,1.8.2-.2-.2-.2-.4-.3-.6.4,0,.8,0,1.1.2-.3-.7-1.8-2-2.6-2.1.5.7,2.3.3,3.2.4-1.2-.9-2.1-1.7-3.6-1.8.6.4,2.7.9,3.4.9-.5-.5-1.1-1-1.7-1.4.4.7,1.9,1.1,2.7,1.1-.6-.5-1.3-.8-1.9-1.3.7.6,1.6,1.1,2.5,1.2-.7-.5-1.4-1.1-1.9-1.8.7.6,1.4,1,2.1,1.5-.5-.5-.9-1.1-1.3-1.6.4.4.9.7,1.3,1-.9-.7-1.5-1.6-2.3-2.4,1.4,1.3,3,2.4,2.3,1.8.3-.3,1-1.2,1.7-.7,1,.6,2.7,1.4,3.3,1.5-.7-.2-1.6-.2-2.4-.3.9.6,2.7,1.2,3.8.8-.4,0-1,0-1.4,0,.9.6,2.1,0,3.1-.3-1.2.2-2.4.8-3.7.7.8,0,1.6-.2,2.4-.2-.8.4-2.2.8-3.1.8.3.1.6.3.9.4-.6,0-1.1.2-1.7.3.3.2.5.5.8.6-.3-.2-.6-.2-1-.3.2.3.2.7.4.9-.4-.1-.8-.2-1.1,0,.1,0,.2.2.4.3-.1,0-.7.1-.8,0,0,.1,0,.3.2.5-1.5,0-1.7.8-3,1.2,0,0,0,.2.1.3-.4.2-.2.5-.4.6-.3.2-.7.1-1.2.1,0,.2-.2.4-.3.6-.2-.2-.6-.2-.8-.5,0,0,0,.1,0,.2-.3-.2-.6-.5-.7-.8,0,0,.1.3.2.4-.4-.3-.6-.9-.3-.9,0,0,.2-.2,0-1Z"/>
  <path class="cls-10" d="M103.6,27.4c0,.4-.3.8-.4,1.3.3.4-.1.9,0,1.4.3-.1.6-.2.9-.3-.2.5-.6.9-.9,1.3.1,0,.2,0,.3,0-.1.2,0,.5-.2.7,1.4.7.5.8.7,2.2.1,0,.4,0,.5,0,.3.6.3,2.1,1.2,1.8-.2.4-.4.9-.2,1.3.1,0,.3,0,.4,0,0,.6.6.9.9,1.3.2.3.7,0,1,.3s.7,1.4,1.2,1.1c0,.3-.8-1.7-.4-1.4s1,2,1.2,1.8c.3-.2-.1-1.7.1-1.5,0,0,.7,1.3.7,1.3,1.3,1.6.3-.7.6-.7s.7,1.2,1.2,1.8.2-1.2.3-1.3c0,.3.9,2.3,1.2,2.5s-.4-1.9-.3-1.7c.6.8,1.3,2.3,1.6,2.3,1.6-.2,2.3-1.7,3.7-2.5-.4.3-1.4-3.3-1.9-3.2.2-.7-1.5.9-2.1.6-1.3-.5-.9-.4-1.9-1.5-.6-.7-2.4.6-2.7-.2-.4-.9-1.1-.7-1.7-1.3-.4-.4-.2-.7-.5-1-.3-.4-1.2-.4-1.4-.8-.2-.3.1-.6,0-.9-.2-.3-.5-.4-.7-.6-.5-.5-.7-1.2-1.1-1.7-.5-.7-1.2-1.3-1.7-2l.5-.2Z"/>
  <path class="cls-10" d="M99.5,37.9c-.2.3-.7.6-1,1,.1.5-.5.7-.7,1.2.3,0,.6,0,1,.2-.4.3-1,.5-1.4.7.1,0,.2,0,.3.1-.2.1-.3.4-.5.5.9,1.3,0,1-.3,2.3.1,0,.3.2.5.2,0,.6-.6,2,.3,2.1-.3.3-.8.6-.8,1.1.1,0,.2.1.4.2-.3.6.1,1,.2,1.6,0,.4.6.3.8.8s0,1.5.5,1.5c0,.3,0-1.8.3-1.4s0,2.2.2,2.1c.4,0,.6-1.5.8-1.3,0,0,0,1.4,0,1.4.5,2,.6-.5.9-.4s0,1.4.2,2.1.7-1,.9-1c-.2.2-.3,2.5,0,2.7s.5-1.9.5-1.6c.2,1,.2,2.6.4,2.7,1.5.6,2.8-.5,4.4-.6-.5,0,.2-3.6-.3-3.8.5-.5-1.8,0-2.2-.4-.9-1-.6-.8-1.1-2.2-.3-.9-2.4-.5-2.3-1.3,0-.9-.7-1.1-1-1.9-.2-.5,0-.7,0-1.2,0-.5-.9-.9-.9-1.4,0-.3.4-.5.4-.8,0-.3-.3-.6-.4-.9-.2-.7-.1-1.4-.2-2.1-.1-.9-.5-1.7-.6-2.6h.5Z"/>
  <path class="cls-10" d="M105.2,28.1c-.3-.4-.4-1.7-.4-2-.1-6.5-1.3-6.9-2.6-8.5-2.7-3.5-8.1-3.8-9.2-3.5-1.2.3,8,14.5,9.1,14.1,1.1-.4,3.1,0,3.1,0Z"/>
  <path class="cls-5" d="M105.9,29.5c-.6-1-1.5-2.5-1.7-3.4,0,.7,0,1.5,0,2.2,0-.8-.2-1.6-.3-2.5,0,1,.2,1.9.1,2.9,0-.9-.5-2.1-1-2.9.3,1.2.8,2.3.9,3.6.1,1.1,0,2.4.3,3.5,0-1.1.2-2.2.3-3.3.5,1.8,1,3.2,2.2,4.7,0-.8-.4-2-.2-2.6,0,1.2.4,4.4,1.8,4.8,0-.6,0-1.3,0-1.9.2.8.5,1.6,1.2,1.9,0-.6,0-1.2.4-1.6.2.6,0,1.7.7,2.2.2-.7.3-1.4.6-2,.3.7.2,1.9,1,2.6,0-.4.4-.8.4-1.1,0,.7.1,1.5.6,2.1,0-.5.3-.7.4-1.1.2,1.2.5,2.8,1.3,3.8,0-1,0-2,.2-3,.2,1.5.6,2.8,1.8,3.8-.2-1.4-.8-2.8-1.1-4.3,1,.2,1.9,3.9,2.7,5-.5-1.8-2-3.8-1.8-5.7.8.8,1.1,2.4,1.9,3.3,0-1.7-.7-3.5-1.5-5,.1.6.2,1.2.1,1.8,0-1.3,0-2.8-.4-4,0,1-.1,2.1-.6,3.1-.7-.8-.9-1.9-1.3-2.9.5.8.1,1.8,0,2.7-.6-.7-.7-2.3-1.2-3.2,0,.3,0,.5,0,.7-.3-.5-.5-1.1-.9-1.7.1,1-.2,1.8-.4,2.8-.2-.7-.1-1.5-.4-2.2-.3.6-.5,1.4-1,1.9-.4-.8-.6-1.7-.9-2.6-.1.2-.7.6-.8.8-.3-.6-.6-1.3-1-1.8-.2.5-.5.9-1,1.1-.3-.5-.5-1.1-.8-1.6-.2.1-.5.2-.7.3-.5-.8-.6-1.8-1-2.6-.2,0-.4,0-.6.1l1.3,1.3Z"/>
  <path class="cls-12" d="M103,27.8c.4-2.5-1.7-8.8-4.8-10.7-3.1-1.9-3.4-2.9-5.2-3-1.8-.1-3.1,1.3-2.2,3.4.9,2.1,1.8,2.8,2.1,4.4.3,1.6,3.9,4.2,8.8,6.5.2.1,1.3-.5,1.3-.5Z"/>
  <path class="cls-12" d="M99.2,25.9c-.2-.7-.4-1.4-.4-2.1-.2,0-.5,0-.7,0-.2-1.1-.3-1.9.5-2.7-.5.6-1,1.3-1.5,1.9,0-.2,0-.3-.1-.5,0,0,0,.1,0,.2,0-.1,0-.2,0-.4,0,0,0,0,0,.1,0-.1,0-.3,0-.4.2-1,.7-2.1,1.2-2.7-.6.6-1.1,1.3-1.6,2-.1,0-.3.2-.4.4,0-.2-.1-.4-.2-.6,0-.6.4-1.2.7-1.7-.4.4-.8,1.1-1.3,1.5,0,0,0-.2,0-.2,0,0-.3.1-.4.2,0-.2-.2-.3-.2-.5,0,0-.1,0-.2,0,0-.5.2-.9.2-1.4-.2.3-.4.5-.7.7-.2-.5.1-1,.2-1.5,0,0-.2.1-.3.2-.1-.3,0-.6,0-.9-.1.3-.3.6-.6.7,0-.5.3-1.1.4-1.6,0,0-.1.1-.2.2-.2.2-.3.5-.5.7l.2-.4s0,0,0-.1c0,0,0,0-.2.1,0-.4.2-.7.2-1.1-.2.2-.4.4-.6.6,0-.4.2-.9.3-1.3-.2.2-.4.3-.6.5,0-.2,0-.5.2-.7,0,0-.1,0-.2,0,0-.1,0-.3.1-.4-.1.2-.3.4-.4.5l-.2-.7c0-.1.2-.3.2-.4h0c-.1,0-.3.3-.4.4,0,0,0,0,0,0-.1.2-.2.3-.4.5-.2.5-.4,1.1-.6,1.6.1-.2.2-.4.4-.6-.2.8-.9,2.1-.9,2.8.1-.3.4-.7.7-.9,0,.8-.5,1.5-.4,2.3.1-.2.4-.3.6-.5.2.6-.1,1.2,0,1.8.1-.1.3-.2.4-.3.3.5.7,1.5.7,2.1.1,0,.3,0,.4-.2,0,.4.3.7.7.8,0,.1,0,.3.2.4.1,0,.2-.1.3-.1.2.8.7.8,1.2.4.4.7,1.4,1.6,2.2,1.1.2.4.3.8.5,1.2.3-.2.8-.3,1.2-.5,0,.5.2.8.6.9,0-.9-.3-1.8,0-2.7-.2.5-.5,1-.9,1.2ZM92.5,16.7c0,0,0,.2,0,.2,0,0,0-.2,0-.2,0,0,0,0,0,0ZM92.8,17.1c-.1.2-.3.4-.4.7,0-.1,0-.3,0-.4.1-.1.2-.2.4-.3Z"/>
  <path class="cls-5" d="M102.2,24.6c0,.7.3,1.5.7,1.9,0-.4,0-.7-.3-1.3.1.2.2.6.3.9-1.9-.8-3.2-1-5.1-1.6.5.3,1.1.5,1.8.7-.9-.4-1.9-.9-2.8-1.4,0,0,.2.1.3.1-.5-.1-.9-.3-1.4-.6.3,0,.6,0,.8,0,0-.2-.3-.4-.4-.5.2,0,.4.1.7,0-.3-.4-.7-.9-1.1-1.3,0,0,.1,0,.2,0-.4-.3-.6-.8-.9-1.2.2,0,.2.1.3.1-.2-.3-.4-1-.6-1.4.2,0,.3,0,.5,0-.4-.9-.3-1.6-.7-2.5.2,0,.3,0,.5,0-.1-.5-.4-1.1-.6-1.5,0,0,.4,0,.5,0-.1-.1-.3-.4-.4-.5.8.3,1.7.7,2.4,1,0-.1,0-.2,0-.3.6.3,1.8.9,2.4,1.5-.2-.2-.5-.3-.7-.5.6.5,1.6,1.1,2.1,1.7.5.6.6,1.5,1.3,2.1-.2-.2-.5-.4-.7-.7.3,1.4,1.8,2.7,2.2,4.3,0,0-.1-.2-.2-.2.2.6.3,1.3.5,1.8-.2,0-.5.1-.7.1l-.6-1.1Z"/>
  <path class="cls-7" d="M103.3,28s.2.2-.8.3c-.5,0-1.3,0-1.9,0-.3,0-.6,0-.8-.1-.2,0-.3,0-.3,0,0,0,.1,0,.3,0,.2,0,.5,0,.8,0,.6,0,1.3-.2,1.8-.3,1-.1.8.1.8.1Z"/>
  <path class="cls-10" d="M118.9,46c-3.7,1.2-7.6,6.1-11.1,10.4-1.9-1.3-3-3.8-2.5-6,.5-2.2,1.8-4.1,3.7-5.2,2.6-1.6,4.6-.9,7.4-1,2.4-.1,4.7-1.1,7.1-.7,1.1.2,2,.6,3,1-2.4.3-5.1.8-7.6,1.6Z"/>
  <path class="cls-10" d="M107.8,54.6c.9-.4,1.9-.7,2.9-.8-.1-.2,0-.5-.1-.7,1.5-.5,2.5-.7,3.7,0-.8-.5-1.8-.9-2.7-1.4.2,0,.5-.1.7-.2-.1,0-.2,0-.3,0,.2,0,.3,0,.5,0,0,0-.1,0-.2,0,.2,0,.4,0,.6,0,1.3,0,2.9.5,3.8.9-.8-.6-1.9-1-2.8-1.5-.1-.1-.3-.3-.5-.4.2-.1.5-.2.8-.3.8,0,1.6.2,2.3.5-.6-.4-1.5-.8-2.2-1.3.1,0,.2-.1.3-.1-.1,0-.2-.4-.3-.4.2,0,.4-.2.6-.3,0,0,0-.1,0-.2.6-.1,1.3,0,1.9,0-.4-.2-.8-.4-.9-.6.7-.3,1.3,0,2,0-.1,0-.2-.2-.3-.3.4-.2.8-.2,1.2,0-.4,0-.8-.3-1-.5.7-.2,1.5.1,2.2.2,0,0-.1-.1-.2-.2-.3-.1-.7-.3-1-.4h.6c0,.2.1.2.2.2,0,0-.1,0-.2-.2.5,0,1,.1,1.5,0-.3-.1-.6-.3-.8-.6.6-.1,1.2,0,1.8.1-.2-.2-.5-.4-.7-.6.3,0,.6,0,.9.1,0,0,0-.1,0-.2.2,0,.4,0,.6,0-.2,0-.5-.2-.7-.4l.9-.4c.2,0,.4.1.5.2h0c-.2-.2-.4-.3-.6-.4,0,0,0,0,0,0-.2-.1-.5-.2-.7-.3-.7-.1-1.5-.3-2.3-.4.3,0,.6.2.8.4-1.2,0-3-.7-3.8-.5.5.1.9.3,1.3.6-1.1.1-2.1-.4-3.2-.1.3.1.5.5.7.6-.8.3-1.6,0-2.4.4.1.1.3.3.4.4-.6.4-2,1-2.8,1.1.1.1.2.3.2.5-.5.2-.9.5-1.1.9-.2.1-.3.2-.5.3,0,.1.2.2.2.3-1,.3-1.1,1-.4,1.5-.9.6-2,1.9-1.3,2.7-.5.3-1,.5-1.6.7.2.4.5.9.8,1.2-.6,0-1.1.4-1.2.8,1.2-.2,2.4-.6,3.6-.4-.7-.1-1.4-.4-1.7-.9ZM119.8,45.5c-.1,0-.2,0-.3,0,.1,0,.2,0,.3,0,0,0,0,0,0,0ZM119.3,45.8c-.3-.1-.6-.3-1-.3.2,0,.4,0,.6,0,.2.1.3.2.4.4Z"/>
  <path class="cls-5" d="M53.2,74.4c0,.3,0,.7-.1,1,0-.7.2-1.5.7-2,.2.6.6,1.3,1.1,1.5,0-.2.1-.4.2-.6.3.3.5.6.6,1,.4-.7.2-2.7-.3-3.4-.2.8,1.4,1.9,1.9,2.6-.2-1.5-.2-2.7-1.3-3.9.1.7,1.2,2.5,1.7,3.1,0-.7,0-1.5-.2-2.2-.2.8.5,2.1,1.1,2.7,0-.8-.4-1.5-.4-2.3,0,.9.3,1.9.9,2.6,0-.9-.2-1.7,0-2.6,0,.9.2,1.7.4,2.5,0-.7.1-1.4.3-2.1,0,.5,0,1.1.1,1.6-.1-1.1.1-2.2.2-3.3,0,1.9-.4,4,1,5.6-.4-.8-.6-1.8-.7-2.7,1,0,2.4,3.3,3,4.2-.4-.7-1-1.3-1.4-1.9.2,1.1,1,2.8,2,3.3-.3-.4-.6-.7-1-1,.2,1.1,1.4,1.5,2.3,2-1-.7-2.2-1.1-3.1-2.1.5.6,1.3,1,1.8,1.6-.9-.3-2.1-1-2.8-1.6.1.3.2.7.3,1-.5-.3-.9-.6-1.4-1,0,.3,0,.7,0,1,0-.3-.3-.6-.5-.9-.1.3-.3.6-.4.9-.2-.4-.4-.7-.8-.7,0,.2,0,.3,0,.5,0,0-.5-.4-.6-.5,0,.2-.2.3-.2.4-1-1.1-1.8-.7-2.9-1.3,0,0,0,.2-.1.3-.4-.2-.5.2-.7.2-.4,0-.6-.4-.9-.7-.2.1-.5.1-.6.2,0-.3-.2-.6-.2-.9,0,0-.1.1-.2.2-.1-.4,0-.8,0-1,0,0-.1.3-.2.4,0-.5.3-1,.5-.8,0,0,.3,0,.7-.7Z"/>
  <path class="cls-10" d="M73,71.9c0,.3.2.7.1,1-.2-.6-.1-1.5.2-2.1.3.5.9,1.1,1.4,1.2,0-.2,0-.4,0-.6.3.2.6.5.8.8.2-.8-.4-2.6-1.1-3.2,0,.8,1.8,1.5,2.5,2-.5-1.4-.8-2.6-2.1-3.5.3.6,1.8,2.2,2.4,2.6-.2-.7-.4-1.4-.7-2.1,0,.8,1,1.9,1.6,2.4-.2-.7-.7-1.4-.9-2.1.2.9.7,1.8,1.4,2.3-.3-.8-.6-1.6-.6-2.5.2.8.6,1.6,1,2.4-.1-.7-.2-1.4-.2-2.1.2.5.3,1,.5,1.6-.4-1.1-.4-2.2-.6-3.3.5,1.9,1.2,3.7.9,2.8.4,0,1.5-.4,1.9.3s1.5,2.6,2,3.1c-.5-.6-1.2-1-1.8-1.6.4,1,1.6,2.5,2.7,2.7-.3-.3-.8-.6-1.2-.7.4,1,1.8,1.2,2.7,1.4-1.2-.5-2.4-.6-3.5-1.4.6.4,1.5.7,2.1,1.2-.9-.1-2.2-.5-3.1-1,.2.3.3.6.5.9-.5-.2-1.1-.4-1.6-.7.1.3.2.7.3,1-.2-.3-.4-.5-.7-.7,0,.3-.2.7-.2,1-.2-.3-.6-.6-.9-.5,0,.1,0,.3.1.5,0,0-.6-.3-.7-.4,0,.2-.1.3-.1.5-1.2-.8-1.9-.3-3.1-.6,0,0,0,.2,0,.3-.5,0-.4.3-.6.3-.4,0-.7-.3-1-.5-.1.2-.4.2-.5.3,0-.3-.3-.5-.4-.8,0,0,0,.1-.1.2-.2-.3-.3-.7-.1-1,0,0,0,.3,0,.4-.2-.5,0-1.1.3-.9,0,0,.3,0,.6-.8Z"/>
  <path class="cls-5" d="M123.9,28.2c0,.3.2.7.1,1-.2-.6-.1-1.5.2-2.1.3.5.9,1.1,1.4,1.2,0-.2,0-.4,0-.6.3.2.6.5.8.8.2-.8-.4-2.6-1.1-3.2,0,.8,1.8,1.5,2.5,2-.5-1.4-.8-2.6-2.1-3.5.3.6,1.8,2.2,2.4,2.6-.2-.7-.4-1.4-.7-2.1,0,.8,1,1.9,1.6,2.4-.2-.7-.7-1.4-.9-2.1.2.9.7,1.8,1.4,2.3-.3-.8-.6-1.6-.6-2.5.2.8.6,1.6,1,2.4-.1-.7-.2-1.4-.2-2.1.2.5.3,1,.5,1.6-.4-1.1-.4-2.2-.6-3.3.5,1.9.5,4,2.2,5.2-.6-.7-1-1.6-1.3-2.5,1-.2,3.1,2.6,3.8,3.4-.5-.6-1.2-1-1.8-1.6.4,1,1.6,2.5,2.7,2.7-.3-.3-.8-.6-1.2-.7.4,1,1.8,1.2,2.7,1.4-1.2-.5-2.4-.6-3.5-1.4.6.4,1.5.7,2.1,1.2-.9-.1-2.2-.5-3.1-1,.2.3.3.6.5.9-.5-.2-1.1-.4-1.6-.7.1.3.2.7.3,1-.2-.3-.4-.5-.7-.7,0,.3-.2.7-.2,1-.2-.3-.6-.6-.9-.5,0,.1,0,.3.1.5,0,0-.6-.3-.7-.4,0,.2-.1.3-.1.5-1.2-.8-1.9-.3-3.1-.6,0,0,0,.2,0,.3-.5,0-.4.3-.6.3-.4,0-.7-.3-1-.5-.1.2-.4.2-.5.3,0-.3-.3-.5-.4-.8,0,0,0,.1-.1.2-.2-.3-.3-.7-.1-1,0,0,0,.3,0,.4-.2-.5,0-1.1.3-.9,0,0,.3,0,.6-.8Z"/>
  <path class="cls-10" d="M73.3,63.9c3.1-.8,5.8-2.1,9-2.7,3.5-.6,6.5-2.1,9.8-.9,2.3.9,4.8,1.4,7.2,1.9.6.1,1.3.2,1.9.3-4.2,2.4-9.5,3.7-13.4,4.6-5.3,1.2-8.2,1.3-17.6,6.9-5.9,3.5-8.9,4.2-11.9,3.7,0,0,0,0,0,0-4.4-5.6-1.3-15.1,6.2-15.3"/>
  <g>
    <path class="cls-1" d="M136.8,48.8c-.4-2.5-1.7-5.4-3.2-7.4"/>
    <path class="cls-1" d="M130.2,38.5c1.7,3.8,2.7,9.8,2,13.8"/>
    <path class="cls-1" d="M129.4,36.9c.3,2.5,0,5.3,0,7.8,0,2.2-.4,4.3-.8,6.5-.2.8-.4,1.6-.5,2.3,0,.4-.2.5,0,.3"/>
    <path class="cls-1" d="M127.3,37.9c-2,3.8-5,8.3-5.6,12.6"/>
    <path class="cls-1" d="M127.9,40c-1.1,3.4-2.3,7-3.3,10.2"/>
    <path class="cls-1" d="M127.8,35.8c-2.4,3-4.9,6.1-6.9,9.4-1.5,2.4-5,7.2-4.8,10.2"/>
    <path class="cls-1" d="M126.4,36.3c-4.4,4.1-9.2,8.9-11.8,14.4"/>
    <path class="cls-1" d="M126.6,35.1c-3.8,1.7-15.9,14.1-17.3,17.7"/>
    <path class="cls-1" d="M125.5,35c-1.8.3-8.3,2.3-10,5.9"/>
  </g>
  <g class="cls-21">
    <path class="cls-11" d="M128.1,53.7v-.7c0,.2,0,.3,0,.5,0,.4-.2.5,0,.3Z"/>
    <path class="cls-11" d="M125.9,46.3c-.4,1.3-.9,2.7-1.3,3.9l1.3-3.9Z"/>
  </g>
  <path class="cls-12" d="M54,62.2c0-1.2,0-2.5.5-3.6-.3,0-.8-.2-1.1-.2.2-1.9.5-3.2,2.1-4.2-1.1.7-2.3,1.6-3.3,2.3,0-.3,0-.6,0-.9,0,.1-.1.2-.2.3,0-.2.2-.4.2-.6,0,0,0,.2,0,.2.1-.2.2-.4.2-.6.8-1.5,2.2-3,3.3-3.9-1.3.6-2.4,1.6-3.6,2.4-.2.1-.6.2-.8.4,0-.3,0-.7,0-1,.4-.9,1.2-1.7,1.9-2.3-.8.5-1.9,1.3-2.9,1.8,0-.2,0-.3,0-.4-.2,0-.6,0-.7,0,0-.3-.1-.6,0-.8,0,0-.2,0-.3,0,.2-.8.8-1.4,1.1-2.1-.4.3-.9.7-1.4.7,0-.9.7-1.5,1.1-2.3-.2.1-.4.1-.5.2,0-.5.2-1.1.6-1.4-.3.4-.8.7-1.3.9.1-.9,1-1.6,1.5-2.4-.1,0-.2.1-.3.2-.4.3-.7.6-1.1.9l.5-.6c0,0,.1-.1.2-.1-.1,0-.2.1-.3.1.3-.6.7-1.1.9-1.7-.4.3-.8.5-1.3.6.2-.7.8-1.3,1.2-2-.4.2-.8.3-1.1.4,0-.4.3-.7.6-1,0,0-.2,0-.3,0,.1-.2.2-.5.4-.7-.3.2-.6.4-.9.6v-1.2c.1-.2.3-.3.5-.5h0c-.3,0-.6.3-.8.5,0,0,0,0,0,0-.3.2-.6.4-.8.7-.5.7-1.2,1.5-1.8,2.4.3-.3.6-.6,1-.8-.7,1.3-2.6,3-2.8,4.1.4-.5,1-.9,1.6-1.1-.4,1.3-1.7,2.2-1.9,3.5.3-.2.9-.3,1.2-.5,0,1.1-.8,1.9-.8,3,.3,0,.6-.1.8-.2.2.9.3,2.8,0,3.8.3,0,.6,0,.8,0,0,.7.2,1.3.7,1.7,0,.3,0,.5.1.8.2,0,.3,0,.5,0-.1,1.3.7,1.7,1.8,1.2.3,1.3,1.5,3.2,3.1,2.9,0,.7.1,1.4.1,2.2.6,0,1.5-.2,2.1-.2-.2.8,0,1.4.5,1.8.4-1.5.5-3.1,1.4-4.3-.5.7-1.3,1.4-2.1,1.4ZM47.9,43.9c0,.1-.2.2-.3.3,0-.1.2-.2.2-.3,0,0,0,0,0,0ZM48.1,44.6c-.3.3-.7.6-1,.9,0-.2.1-.5.2-.7.3-.1.5-.2.8-.2Z"/>
  <path class="cls-12" d="M83.8,51.5c-1.3,1.4-2.2,2.8-4.2,3.7.9-4.2,8.9-6.9,9.6-11.3-1.2,3.5-3,6.7-6.2,9.4.2-.7.9-1.3,1.2-2.1,0,1.7-.9,4.1-3.3,4.7,0-1.1,0-2.1.2-3.2-.3,1.4-1.9,3.1-4,3.3,0-.9.5-1.7.7-2.6-.8,1.1-3.9,3.6-5.9,3.2.4-.6,1-1.3,1.7-1.6-.5,2-4.1,3.8-6.7,4.1.9-.6,2-1.2,2.9-1.9-.3,1.3-4.6,3.4-6.4,3.6,1.1-.7,2.4-1.4,3.1-2.4-2.7.7-4.5,2.2-5.4,4.2.8-1,1.4-2.1,1.3-3.3-.6,1.3-.8,2.7-1.4,4.1-.2-.8-.4-2.2-1.3-2.9,0,.8,0,1.5,0,2.3-.2-1.1-1.1-2.9-2.8-3.2-.1.7,0,1.4.4,2.1-.4-1.4-1.4-3.1-3-4.1-.1.8,0,1.6.4,2.4-1.3-2.3-2.9-4.5-3.7-6.9.2,1.1.7,2.1.3,3.2-1.5-1.7-2.4-4.1-3.1-6.1,0,1,.3,2,.4,3-.5-2-1.1-4.1-1.6-6.1,0,1.3-.1,2.6-.2,3.9,0-2-.6-4.3.9-6.1-1.1.5-2,1.2-3.1,1.8-.3-2.7,1.6-5.5,3.7-7.6-.4,1.3-2.8,2.6-4.5,2.9,1-2.4,3.6-5,6.3-6.6-1.2.6-2.6,1-4.1,1.2,2-2.1,4.6-4.1,7.8-5.3-1.7.6-3.9.9-5.9.8,2.2-2.1,5.4-2.3,8.2-3.7-2.2.2-4.5.5-6.7.5,1.9-1.3,4-2.6,6.6-3.2-.8,0-1.8,0-2.6,0,1.4-.5,3.3-.6,4.5-1.4-.8,0-1.7-.2-2.5-.2,1.9-.5,3.7-1.2,5.6-1.7-.3,0-.7,0-.9,0,1.5-.6,3.3-1.2,4.6-2-.6,0-1.4-.2-2-.2,3.8-1.1,8.8-3.4,12.8-3.7-.9,1-2.5,1.5-3.8,2.2,1.8-.2,3.6-.9,5.3-1.4-1.7,1.2-3.9,1.8-5.2,3.3,1.4-.1,2.6-.5,3.8-.9-1.4,1.3-5,1.7-5.9,3.4,1.6-.6,3.3-1.1,4.9-1.6-.9,1.2-2.7,1.9-3.7,3,.7-.3,1.5-.4,2.2-.8-1.2,1.3-3.4,2-5,3.1.3,0,1.1-.1,1.5-.2-1.1,3.1-5.9,4.7-5.9,8.4.7-.7,1.4-1.4,1.5-2.3-.3,1.7-1.1,3.3-1.1,4.9,0-.7.1-1.4.6-1.9.1,1.8.2,4.4-.5,6,0-.1,0-.8,0-.6-.2,1.6.3,3.2.3,4.8-.3-.7-.5-1.5-.9-2.1-.3,1.3.7,2.7,1.4,4,0-.5.1-1,0-1.6-.1.9.2,1.8.6,2.6,0-.3,0-.6.1-.9-.2,1.1.2,2.3.9,3.4.2-.7.6-1.4,1.1-1.9,0,.5.4.8.4,1.3.8-.6,1.3-1.4,2.1-2.1,0,.4.5.9.5,1.2.2-.4.7-.9.8-1.3,0,.4.2.6.3.9,1.1-.6,2.4-1.5,3.5-2,0,.1,0,.2,0,.3,1.4,0,2.1-1.1,3.3-1.5.2.7.5,1.5,1,2,1.1-.7,2.1-1.8,3-2.7.1.2.4.5.5.7.7-.5,1.4-1,2-1.5.8.7,1.6,1.9,1.9,2.9,1.9-2.6,3.5-2.5,7.1-3.9l-10.5,7.8Z"/>
  <path class="cls-10" d="M51.9,73.3c-.7.7-1.7,1.1-2.2,2,1.6-.7,2.9-2.4,3.1-4.1-.5.5-.8,1.1-1.4,1.5.8-.6,1.4-1.7,1.5-2.7-.5.5-1,1-1.7,1.4.2-.2.3-.6.4-.8-.1.1-.4.3-.5.5,0-.2.3-.3.1-.5-.2.1-.5.3-.7.4,0,0,0-.3,0-.3,0-.2,0-.8.2-1.2-.4.4-.9.7-1.4.9.5-.7.8-1.5.7-2.4-.5.2-1,.4-1.4.6,1.2-1.3,2-2.9,2.9-4.4-1.1.7-2.2,1.7-3.1,2.7.3-.2.5-.5.8-1-.3.2-1.2,1.1-1.2,1.8.1-.7,0-1.6-.2-2.3-.5.4-.8,1-1,1.7.2-1.5.7-3.6.3-5-.5.9-1,1.9-1.3,3,.4-.9.7-2.3.7-3.3-.6.8-1.1,2-1.5,2.9.4,1.2.2,2.6.5,3.8.3-.5.5-1.1.4-1.6-.3.8,0,2,.6,2.7.1-.4.3-.7.3-1.1-.5.6,0,1.7.1,2.4.4-.4.9-1.1,1.1-1.6-.4.7-.8,1.8-.4,2.5.1-.2.3-.4.5-.5-.1.9-.2,1.8-.2,2.7.3-.4.8-.7,1.1-1-.5.7-.9,1.6-1.1,2.3.4-.3.9-.4,1.2-.5-.4.4-.8.8-1.2,1.2.6-.2,1.2-.4,1.7-.6-.4.3-1,.6-1.5.8.7-.4,1.5-.6,2.2-1l1.5-1.6Z"/>
  <path class="cls-10" d="M48,62.6c-.9.5-2,.5-2.8,1.1,1.8-.1,3.5-1.3,4.3-2.8-.6.3-1.2.7-1.8.9.9-.3,1.9-1.2,2.3-2-.6.3-1.3.6-2,.7.2-.2.5-.4.7-.6-.2,0-.5.2-.7.3,0-.2.4-.2.3-.4-.2,0-.6,0-.8,0,0,0,0-.3.2-.3,0-.2.3-.7.5-1.1-.5.2-1.1.4-1.6.4.7-.4,1.2-1.2,1.5-2-.5,0-1.1,0-1.6.1,1.6-.8,2.8-2.1,4.2-3.2-1.3.2-2.6.9-3.8,1.5.4-.1.7-.3,1.1-.7-.4.1-1.4.6-1.7,1.2.3-.6.4-1.5.5-2.3-.6.2-1.1.7-1.5,1.2.7-1.3,1.9-3.1,2-4.6-.8.7-1.6,1.5-2.2,2.4.7-.7,1.4-1.9,1.8-2.8-.8.5-1.7,1.5-2.4,2.3,0,1.2-.7,2.5-.8,3.8.5-.3.8-.8.9-1.4-.6.7-.7,1.9-.4,2.7.3-.3.5-.6.6-.9-.6.4-.7,1.6-.7,2.3.6-.3,1.2-.7,1.5-1.1-.6.5-1.4,1.5-1.3,2.2.2-.1.4-.2.6-.4-.4.8-.8,1.6-1.1,2.5.4-.2,1-.4,1.4-.6-.7.5-1.4,1.2-1.8,1.8.5-.1,1,0,1.3,0-.5.3-1,.5-1.6.7.6,0,1.2,0,1.8,0-.5.2-1.1.3-1.7.3.8-.1,1.6,0,2.4-.2l2-1Z"/>
  <path class="cls-12" d="M88.9,65.7c.5.9.6,2,1.3,2.7-.2-1.8-1.4-3.4-3-4.1.3.6.8,1.1,1,1.8-.4-.9-1.3-1.8-2.2-2.2.4.6.7,1.3.8,2-.2-.2-.5-.5-.6-.7.1.2.2.5.3.6-.2,0-.3-.3-.4-.3,0,.2.1.6.1.8,0,0-.3,0-.3-.2-.2,0-.7-.3-1.1-.5.3.5.4,1.1.5,1.6-.5-.7-1.2-1.2-2.1-1.4,0,.5,0,1.1.2,1.6-.9-1.6-2.2-2.7-3.4-4,.3,1.3,1,2.6,1.7,3.7-.1-.4-.4-.7-.8-1.1.1.4.7,1.4,1.3,1.7-.6-.3-1.6-.4-2.3-.4.2.6.8,1,1.3,1.4-1.3-.7-3.2-1.7-4.7-1.7.7.8,1.6,1.5,2.5,2.1-.7-.6-2-1.3-2.9-1.6.6.8,1.6,1.6,2.4,2.3,1.2,0,2.6.6,3.8.6-.3-.5-.9-.8-1.4-.9.7.5,1.9.6,2.7.2-.3-.2-.6-.5-.9-.6.4.6,1.6.6,2.3.5-.3-.6-.8-1.2-1.2-1.5.5.6,1.5,1.3,2.3,1.1-.1-.2-.2-.4-.4-.6.8.4,1.7.7,2.5.9-.2-.4-.4-.9-.7-1.3.5.6,1.2,1.3,1.9,1.7-.1-.5,0-1-.1-1.3.3.5.6,1,.8,1.5,0-.6,0-1.2,0-1.8.2.5.3,1.1.3,1.6-.2-.8-.2-1.6-.3-2.4l-1.1-1.9Z"/>
  <path class="cls-12" d="M90.4,65.5c.2.2.5.5.6.9-.5-.5-.9-1.3-.9-2,.5.3,1.4.6,1.9.4-.2-.2-.2-.4-.3-.6.4,0,.8.1,1.2.3-.2-.8-1.7-2.2-2.6-2.4.5.8,2.4.5,3.3.6-1.2-1-2.1-2-3.7-2.1.6.4,2.8,1.1,3.5,1.2-.5-.6-1.1-1.1-1.7-1.6.4.8,1.9,1.3,2.7,1.3-.5-.6-1.3-.9-1.9-1.5.6.7,1.6,1.3,2.5,1.4-.7-.6-1.4-1.2-1.8-2,.7.7,1.4,1.2,2.1,1.7-.5-.6-.9-1.2-1.3-1.8.4.4.8.8,1.3,1.2-.9-.8-1.5-1.8-2.3-2.7,1.4,1.5,2.5,3.4,4.7,3.7-.9-.4-1.8-.9-2.5-1.6.8-.6,4.2.8,5.3,1.2-.8-.3-1.7-.3-2.5-.5.9.7,2.8,1.5,3.9,1.1-.5,0-1-.1-1.5,0,.9.7,2.2.2,3.2,0-1.3.1-2.6.7-3.9.5.8,0,1.7-.1,2.5,0-.9.4-2.3.7-3.3.7.3.2.6.4.9.5-.6,0-1.2.2-1.8.2.3.2.5.5.8.7-.3-.2-.6-.3-1-.3.1.3.2.7.4,1-.4-.2-.8-.3-1.1,0,.1.1.2.3.3.4-.1,0-.7,0-.9,0,0,.2,0,.3.1.5-1.5-.2-1.9.7-3.2,1,0,0,0,.3.1.3-.5.2-.2.5-.4.6-.3.2-.8,0-1.2,0,0,.2-.3.4-.3.6-.2-.2-.6-.3-.8-.5,0,0,0,.2,0,.2-.3-.2-.6-.5-.6-.9,0,.1,0,.3.1.4-.4-.4-.5-1-.2-1,0,0,.3-.2,0-1.1Z"/>
  <path class="cls-12" d="M82.3,61.3c.1.3.3.7.3,1-.3-.6-.4-1.5-.1-2.2.4.5,1.1,1,1.6,1,0-.2,0-.4,0-.7.4.2.7.4,1,.7,0-.8-2.6-3.5-1.7-3.1.2.9,2.1,1.3,2.9,1.7-.7-1.4-1.3-2.6-2.8-3.3.4.6,2.2,2,2.9,2.4-.3-.7-.7-1.4-1.1-2.1.1.9,1.3,1.8,2.1,2.2-.3-.8-.9-1.3-1.3-2.1.4.9,1,1.8,1.9,2.2-.4-.8-.8-1.6-1-2.5.4.8.9,1.6,1.4,2.3-.3-.7-.4-1.4-.6-2.1.3.5.5,1,.8,1.6-.6-1-.8-2.2-1.2-3.3.8,1.8,1.2,4.1,3.2,5.1-.7-.7-1.3-1.5-1.8-2.3,1-.3,3.7,2.2,4.5,2.9-.6-.5-1.5-.9-2.1-1.3.6,1,2.1,2.3,3.3,2.4-.4-.2-.9-.5-1.4-.5.6,1,2,.9,3.1,1-1.3-.3-2.6-.2-3.8-.9.7.3,1.6.5,2.4.9-1,0-2.4-.2-3.3-.5.2.3.4.6.7.8-.6-.1-1.2-.2-1.7-.4.2.3.3.7.5,1-.2-.3-.5-.5-.8-.7,0,.3,0,.7,0,1.1-.3-.3-.7-.5-1-.4,0,.1.1.3.2.5,0,0-.7-.2-.8-.3,0,.2,0,.3,0,.5-1.4-.7-2,0-3.4-.1,0,0,0,.3,0,.3-.5,0-.4.4-.6.4-.4,0-.8-.2-1.2-.3-.1.2-.4.3-.5.5-.2-.3-.4-.5-.6-.8,0,0,0,.1,0,.2-.3-.3-.4-.7-.3-1,0,.1,0,.3,0,.4-.3-.5-.1-1.1.2-1,0,0,.3-.1.5-1Z"/>
  <path class="cls-20" d="M75.5,61.7c.1.3.7.6.7,1-.3-.6-.9-1.7-.7-2.3.4.5,1.6,1.1,2.2,1.1,0-.2-1-1-1.1-1.2.4.2,1.8,1,2,1.3,0-.8-3.1-4.1-1.7-3.1.2.9,2.1,1.3,2.9,1.7-.7-1.4-3.5-2.9-2.8-3.3.4.6,2.2,2,2.9,2.4-.3-.7-.7-1.4-1.1-2.1.1.9,1.3,1.8,2.1,2.2-.3-.8-.9-1.3-1.3-2.1.4.9,1,1.8,1.9,2.2-.4-.8-.8-1.6-1-2.5.4.8.9,1.6,1.4,2.3-.3-.7-.4-1.4-.6-2.1.3.5.5,1,.8,1.6-.6-1-.8-2.2-1.2-3.3.8,1.8,1.2,4.1,3.2,5.1-.7-.7-1.3-1.5-1.8-2.3,1-.3,3.7,2.2,4.5,2.9-.6-.5-1.5-.9-2.1-1.3.6,1,2.1,2.3,3.3,2.4-.4-.2-.9-.5-1.4-.5.6,1,2,.9,3.1,1-1.3-.3-2.6-.2-3.8-.9.7.3,1.6.5,2.4.9-1,0-2.4-.2-3.3-.5.2.3.4.6.7.8-.6-.1-1.2-.2-1.7-.4.2.3.3.7.5,1-.2-.3-.5-.5-.8-.7,0,.3,0,.7,0,1.1-.3-.3-.7-.5-1-.4,0,.1.1.3.2.5,0,0-.7-.2-.8-.3,0,.2,0,.3,0,.5-1.4-.7-2,0-3.4-.1,0,0,0,.3,0,.3-.5,0-.4.4-.6.4-.4,0-.8-.2-1.2-.3-.1.2-.4.3-.5.5-.2-.3-.4-.5-.6-.8,0,0,0,.1,0,.2-.3-.3-.4-.7-.3-1,0,.1-3-.8-3-.7-.3-.5,1.3,1.2,2.6.1,0,0,.5,0,.6-.9Z"/>
  <path class="cls-20" d="M62.4,64.1c.1.3.3.7.3,1-.3-.6-.4-1.5-.1-2.2.4.5,1.1,1,1.6,1,0-.2,0-.4,0-.7.4.2.7.4,1,.7,0-.8-.9-2.7-1.7-3.1.2.9,2.1,1.3,2.9,1.7-.7-1.4-1.3-2.6-2.8-3.3.4.6,2.2,2,2.9,2.4-.3-.7-.7-1.4-1.1-2.1.1.9,1.3,1.8,2.1,2.2-.3-.8-.9-1.3-1.3-2.1.4.9,1,1.8,1.9,2.2-.4-.8-.8-1.6-1-2.5.4.8.9,1.6,1.4,2.3-.3-.7-.4-1.4-.6-2.1.3.5.5,1,.8,1.6-.6-1-.8-2.2-1.2-3.3.5,1.1,1,3.5,2.1,4.6s-.2-1.8,0-1.5c.4.9,2.1,1.9,2.5,2.2-.7-.7-1.6-1.5-2.1-2.4.4-.1.9.3,1.6.5,1.1.3,2.6.6,3.2,1-.6-.5-3-.1-3.7-.6,2.1,1.8,5.3,1.6,4.1,1.7.6,1,0,1.7,1,1.8-1.3-.3-2.6-.2-3.8-.9.7.3,1.6.5,2.4.9-1,0-2.4-.2-3.3-.5.2.3.4.6.7.8-.6-.1-1.2-.2-1.7-.4.2.3.3.7.5,1-.2-.3-.5-.5-.8-.7,0,.3,0,.7,0,1.1-.3-.3-.7-.5-1-.4,0,.1.1.3.2.5,0,0-.7-.2-.8-.3,0,.2,0,.3,0,.5-1.4-.7-2,0-3.4-.1,0,0,0,.3,0,.3-.5,0-.4.4-.6.4-.4,0-.8-.2-1.2-.3-.1.2-.4.3-.5.5-.2-.3-.4-.5-.6-.8,0,0,0,.1,0,.2-.3-.3-.4-.7-.3-1,0,.1,0,.3,0,.4-.3-.5-.1-1.1.2-1,0,0,.3-.1.5-1Z"/>
  <path class="cls-10" d="M55.7,69.7c.3.2.6.4.9.6-.7-.3-1.3-1-1.5-1.6.6.1,1.5.1,1.9-.3-.2-.1-.3-.3-.5-.5.4-.1.8-.1,1.2,0-.5-.7-2.4-1.5-3.3-1.4.7.6,2.5-.3,3.3-.5-1.4-.6-2.6-1.2-4.2-.8.7.2,3,.2,3.7,0-.7-.4-1.4-.7-2.1-1,.6.6,2.2.6,3,.4-.7-.4-1.6-.4-2.3-.8.8.5,1.9.7,2.8.5-.8-.4-1.7-.7-2.4-1.3.8.4,1.7.6,2.6.9-.6-.4-1.2-.8-1.8-1.3.5.2,1.1.5,1.6.7-1.1-.5-2-1.3-3-1.8,1.8.9,3.5,2.4,5.7,1.9-1,0-2-.3-2.9-.7.6-.9,4.3-.6,5.4-.6-.8,0-1.7.2-2.5.3,1.1.4,3.1.5,4.1-.2-.5,0-1,.2-1.4.4,1.1.4,2.2-.6,3-1.1-1.2.6-2.2,1.5-3.5,1.7.8-.2,1.6-.7,2.4-.8-.7.6-2,1.4-2.9,1.7.3,0,.7.2,1.1.2-.5.3-1.1.5-1.6.7.3.1.6.3,1,.4-.3,0-.7,0-1,0,.2.3.4.6.7.8-.4,0-.9,0-1.1.3.1,0,.3.2.4.2-.1,0-.6.3-.8.3.1.1.2.3.3.4-1.5.3-1.5,1.3-2.7,2,0,0,.2.2.2.3-.4.3,0,.5-.2.7-.2.3-.7.3-1.1.5,0,.2-.1.5-.1.7-.3-.1-.6,0-.9-.3,0,0,0,.2,0,.2-.4,0-.8-.3-.9-.6,0,0,.2.3.3.4-.5-.2-.8-.8-.5-.9,0,0,.2-.3-.3-1Z"/>
  <path class="cls-12" d="M75.5,72.2c-.1-.3-.2-.7-.2-1,.3.7.2,1.6,0,2.2-.4-.5-1-1.1-1.5-1.1,0,.3,0,.4,0,.7-.3-.2-.7-.5-.9-.8-.1.8.6,2.8,1.4,3.3,0-.9-2-1.5-2.7-2,.6,1.4,1,2.7,2.4,3.5-.4-.7-2-2.2-2.7-2.6.2.7.5,1.5.9,2.2,0-.9-1.2-1.9-1.9-2.4.2.8.8,1.4,1.1,2.2-.3-.9-.9-1.8-1.7-2.4.4.8.7,1.7.8,2.6-.3-.9-.7-1.6-1.2-2.4.2.7.3,1.5.4,2.2-.2-.5-.4-1.1-.6-1.6.5,1.1.5,2.3.9,3.4-.6-1.9-.8-4.2-2.7-5.4.6.7,1.2,1.6,1.5,2.5-1,.2-3.4-2.6-4.3-3.3.6.6,1.4,1,2,1.5-.5-1-1.9-2.5-3.1-2.7.4.3.9.6,1.3.7-.5-1-1.9-1.1-3-1.3,1.3.4,2.6.5,3.7,1.2-.7-.4-1.6-.6-2.3-1.1,1,0,2.4.4,3.3.8-.2-.3-.4-.6-.6-.9.6.2,1.1.4,1.7.6-.1-.3-.2-.7-.4-1,.2.3.5.5.7.7,0-.3.1-.7.1-1.1.3.3.6.6,1,.5,0-.2,0-.3-.2-.5,0,0,.7.2.8.4,0-.2,0-.3,0-.5,1.3.8,2,.2,3.3.5,0,0,0-.3,0-.3.5,0,.4-.4.7-.4.4,0,.7.2,1.1.5.1-.2.4-.3.5-.4.1.3.4.5.5.8,0,0,0-.1.1-.2.2.3.3.7.2,1.1,0-.1,0-.3,0-.4.2.5,0,1.1-.2,1,0,0-.4.1-.5.9Z"/>
  <path class="cls-10" d="M70.6,76.7c0-.3,0-.6,0-.8.2.5,0,1.2-.4,1.8-.3-.4-.8-.9-1.3-.9,0,.2,0,.3-.1.5-.3-.2-.6-.4-.8-.6-.3.6.1,2.2.8,2.6,0-.7-1.7-1.2-2.3-1.6.4,1.1.6,2.1,1.8,2.8-.2-.5-1.6-1.8-2.2-2.1.1.6.3,1.2.5,1.7,0-.7-.8-1.6-1.5-1.9.1.6.6,1.1.7,1.7-.1-.7-.5-1.5-1.2-1.9.2.7.4,1.4.3,2.1-.2-.7-.5-1.3-.8-2,0,.6,0,1.2,0,1.7-.1-.4-.2-.9-.4-1.3.3.9.2,1.8.3,2.7-.3-1.5-.1-3.3-1.7-4.3.5.6.9,1.3,1.1,2-1,.2-2.9-2.1-3.6-2.7.5.5,1.2.8,1.7,1.3-.3-.8-1.4-2-2.5-2.2.3.2.7.5,1.2.6-.3-.8-1.7-.9-2.7-1.1,1.1.4,2.5.4,3.4,1.1-.6-.3-1.4-.5-2.1-.9.9,0,2.3.4,3.1.7-.2-.2-.3-.5-.5-.7.5.2,1.1.3,1.5.5,0-.3,0-.6-.2-.8.1.2.4.4.6.6,0-.3.2-.6.3-.8.2.3.5.5.9.4,0-.1,0-.3,0-.4,0,0,.6.2.7.3,0-.1.1-.3.2-.4,1.1.7,1.9.2,3.2.4,0,0,0-.2,0-.3.5,0,.4-.3.7-.3.4,0,.7.2,1,.4.2-.1.5-.2.6-.3,0,.2.3.4.3.7,0,0,0-.1.1-.2.2.3.2.6,0,.8,0,0,.1-.3.1-.4.1.4-.1.9-.4.8,0,0-.4,0-.7.7Z"/>
  <path class="cls-12" d="M65,47.6c.5-1.2,1-2.3,1.8-3.2-.3-.1-.6-.5-.9-.6.9-1.7,1.7-2.8,3.6-3-1.3.2-2.7.6-4,.9.1-.3.3-.5.4-.8-.1,0-.2.2-.3.2.1-.1.3-.3.4-.4,0,0,0,.1-.1.2.2-.1.3-.3.5-.5,1.3-1.1,3.2-2,4.5-2.4-1.4.1-2.8.6-4.2.9-.3,0-.7,0-.9,0,0-.3.3-.6.4-1,.7-.7,1.7-1.1,2.7-1.5-.9.1-2.2.5-3.4.6,0-.1,0-.3.2-.4-.2,0-.5-.2-.7-.2.1-.2.1-.6.3-.8,0,0-.2,0-.2-.2.4-.7,1.2-1,1.8-1.5-.5.1-1.1.3-1.6.2.3-.8,1.2-1.1,1.8-1.7-.2,0-.4,0-.6,0,.2-.5.6-.9,1.1-1.1-.5.2-1,.4-1.5.3.5-.8,1.5-1.1,2.2-1.7-.1,0-.3,0-.4,0-.5.1-.9.3-1.4.5l.7-.4c0,0,.2,0,.3,0-.1,0-.2,0-.3,0,.5-.4,1.1-.7,1.4-1.2-.5.1-1,.2-1.4.1.4-.6,1.2-.9,1.8-1.4-.4,0-.8,0-1.2,0,.2-.3.6-.5,1-.7,0,0-.2,0-.2-.2.2-.1.3-.4.6-.5-.3.1-.7.2-1.1.2l.4-1.1c.2,0,.5-.2.7-.2h0c-.3,0-.7,0-1,.1,0,0,0,0,0,0-.3,0-.7.2-1,.3-.8.5-1.7,1-2.6,1.5.4-.2.8-.3,1.2-.3-1.2.9-3.5,1.8-4.1,2.7.5-.3,1.2-.5,1.9-.5-.8,1-2.4,1.4-3.1,2.6.4,0,1,0,1.3,0-.4,1-1.4,1.5-1.9,2.4.3,0,.6,0,.8,0-.2.9-.8,2.8-1.4,3.5.3,0,.5.2.7.3-.3.6-.4,1.3,0,1.8,0,.3-.2.4-.1.8.2,0,.3,0,.5.1-.6,1.2,0,1.9,1.2,1.8-.2,1.3.2,3.6,1.7,3.8-.2.7-.4,1.4-.7,2.1.6.2,1.4.4,2.1.6-.5.6-.6,1.3-.2,1.9.9-1.2,1.6-2.7,2.9-3.4-.8.4-1.7.8-2.5.5ZM66.3,28.4c-.1,0-.3.1-.4.2.1,0,.2-.2.3-.2,0,0,0,0,0,0ZM66.2,29.2c-.4.1-.8.3-1.3.5.1-.2.3-.4.4-.6.3,0,.6,0,.8.1Z"/>
  <path class="cls-20" d="M80,39.6s0,.6,0,.7,0,.5.1.8-.2.6-.2,1v1.2c0,0-.2,0-.5.3s.4,2.1.4,2.7-.2-.3-.5-.4-.2.2-.4.9,0,1.1,0,1.1c0,0-.4-.8-.6-.9s-.3.4-.4,1.1-.6.8-.6.8c0,0-.2-.2,0-.5s-.8-.3-.8-.3c0,.5,0,1,0,1.6,0-.8-.7-2-1.9-2.2-.1.5,0,1,.2,1.4-.3-1-.9-2.2-2-2.9-.1.6,0,1.1.2,1.7-.9-1.6-1.9-3.2-2.5-4.9,0,.7.4,1.5.2,2.2-1-1.2-1.6-2.9-2.1-4.3,0,.7.2,1.4.2,2.1-.3-1.4-.7-2.8-1-4.3,0,.9-.1,1.8-.2,2.7,0-1.4-.4-3,.7-4.2-.8.4-1.4.8-2.2,1.2-.1-1.9,1.2-3.8,2.7-5.2-.3.9-1.9,1.7-3.2,1.9.7-1.7,2.6-3.4,4.5-4.5-.8.4-1.8.6-2.8.8,1.4-1.4,3.2-2.7,5.5-3.5-1.2.4-2.7.6-4.1.5,1.5-1.4,3.7-1.5,5.8-2.4-1.5.1-3.1.3-4.7.2,1.3-.9,2.8-1.7,4.6-2.1-.5,0-1.2,0-1.8,0,1-.4,2.3-.4,3.1-.9-.5,0-1.2-.2-1.7-.2.4,0,1-.4,1.8-.8s3.6-1.2,4.1-1.4-1.4-.1-.8-.5,1.6-.9,2-1c-.2,0-1.1-.7-1.3-.7,1.1-.4,1.9-.1,2.8-.6-.4,0-1-1.1-1.4-1.1,2.6-.7,3.9,1.5,6.7,1.3-.6.7-1.7,1-2.6,1.5,1.3-.1,2.5-.6,3.7-.9-1.2.8-2.7,1.2-3.7,2.2.9,0,1.8-.3,2.6-.6-1,.8-3.5,1.1-4.1,2.2,1.1-.4,2.3-.7,3.4-1-.6.8-1.9,1.3-2.6,2,.5-.2,1.1-.2,1.5-.5-.8.9-2.4,1.3-3.5,2,.2,0,.8,0,1.1-.1-.8,2.1-4.2,3.2-4.2,5.7.5-.4,1-1,1.1-1.5-.2,1.1-.8,2.2-.9,3.4,0-.5.1-1,.4-1.3,0,1.3,0,3-.5,4.1,0,0,0-.6,0-.4-.1,1.1.2,2.2.1,3.3-.2-.5-.3-1-.6-1.5-.2.9.4,1.9.9,2.8,0-.4,0-.7,0-1.1-.1.6.4,1.4.5,1.2l-1.1.2Z"/>
  <path class="cls-16" d="M91.9,47.1"/>
  <path class="cls-12" d="M73.3,67.7c-1,.1-2,.2-3,0,0,.2-.1.5,0,.8-1.6,0-2.6,0-3.6-1.1.7.7,1.5,1.4,2.2,2-.2,0-.5,0-.7,0,0,0,.2,0,.3.1-.2,0-.3,0-.5-.1,0,0,.1,0,.2,0-.2,0-.4,0-.5-.1-1.3-.4-2.7-1.2-3.5-1.8.7.8,1.6,1.5,2.3,2.2.1.1.2.4.4.5-.3,0-.6,0-.8,0-.8-.2-1.5-.6-2.1-1.1.5.5,1.2,1.1,1.8,1.8-.1,0-.2,0-.4,0,0,.1,0,.4.1.5-.2,0-.4.1-.7,0,0,0,0,.1,0,.2-.6,0-1.2-.4-1.8-.5.3.3.6.5.7.9-.7,0-1.3-.3-1.9-.5,0,0,.2.2.2.3-.4,0-.9,0-1.2-.3.3.2.7.5.8.8-.7,0-1.4-.5-2.1-.8,0,0,.1.1.2.2.3.2.6.4.9.6l-.5-.3c0,0,0,0-.1-.1,0,0,.1.1.1.2-.5-.1-.9-.4-1.4-.4.3.2.5.5.7.8-.6,0-1.2-.4-1.7-.6.2.2.4.5.5.7-.3,0-.6-.1-.9-.3,0,0,0,.1,0,.2-.2,0-.4,0-.6-.2.2.2.4.4.6.6l-1,.2c-.1-.1-.3-.2-.5-.3h0c.2.2.4.4.5.5,0,0,0,0,0,0,.2.2.4.3.6.5.6.3,1.4.6,2.1,1-.3-.2-.5-.4-.7-.6,1.1.4,2.7,1.4,3.6,1.5-.4-.2-.8-.6-1.1-.9,1.1.1,1.9.9,3,.9-.2-.2-.4-.6-.6-.8.8,0,1.6.3,2.5.3-.1-.2-.2-.4-.3-.5.7-.2,2.2-.5,3-.4,0-.2,0-.4-.1-.5.5,0,1-.2,1.3-.6.2,0,.4,0,.6-.2,0-.1-.1-.2-.1-.3,1.1,0,1.3-.6.8-1.3,1-.3,2.4-1.3,2-2.3.6-.1,1.1-.2,1.7-.3-.1-.4-.3-1-.4-1.4.6,0,1.2,0,1.4-.5-1.2-.1-2.5,0-3.6-.6.6.3,1.3.7,1.4,1.3ZM59.3,73.4c0,0,.2.1.3.2-.1,0-.2,0-.3-.1,0,0,0,0,0,0ZM59.9,73.2c.2.2.5.4.8.6-.2,0-.4,0-.6,0-.1-.2-.2-.3-.3-.5Z"/>
  <path class="cls-12" d="M79.9,69.5c1-.1,2-.2,3,0,0-.2.1-.5,0-.8,1.6,0,2.6,0,3.6,1-.7-.7-1.5-1.4-2.2-2,.2,0,.5,0,.7,0,0,0-.2,0-.3-.1.2,0,.3,0,.5.1,0,0-.1,0-.2,0,.2,0,.4,0,.5,0,1.3.4,2.7,1.2,3.5,1.8-.7-.8-1.6-1.4-2.3-2.2-.1-.1-.2-.4-.4-.5.3,0,.6,0,.8,0,.8.2,1.5.6,2.1,1-.5-.5-1.3-1.1-1.8-1.8.1,0,.2,0,.4,0,0-.1,0-.4-.2-.5.2,0,.4-.1.7,0,0,0,0-.1,0-.2.6,0,1.2.4,1.8.5-.3-.3-.6-.5-.8-.9.7,0,1.3.3,1.9.5,0,0-.2-.2-.3-.3.4,0,.9,0,1.2.2-.3-.2-.7-.5-.9-.8.7,0,1.4.5,2.1.7,0,0-.1-.1-.2-.2-.3-.2-.6-.4-.9-.6l.5.3c0,0,0,0,.1.1,0,0-.1-.1-.1-.2.5.1.9.4,1.5.4-.3-.2-.5-.5-.7-.8.6,0,1.2.4,1.7.6-.2-.2-.4-.5-.5-.7.3,0,.6.1.9.3,0,0,0-.1,0-.2.2,0,.4,0,.6.2-.2-.2-.4-.4-.6-.6l1-.2c.2.1.3.2.5.3h0c-.2-.2-.4-.4-.5-.5,0,0,0,0,0,0-.2-.2-.4-.3-.6-.5-.7-.3-1.4-.6-2.1-1,.3.2.5.3.7.6-1.1-.4-2.7-1.4-3.6-1.5.4.2.8.6,1.1.9-1.1-.1-2-.9-3.1-.9.2.2.4.6.6.8-.8,0-1.6-.3-2.5-.2.1.2.2.4.3.5-.7.2-2.2.5-3,.4,0,.2,0,.4.1.5-.5,0-1,.2-1.3.6-.2,0-.4,0-.6.2,0,.1.1.2.1.3-1.1,0-1.3.7-.8,1.3-1,.3-2.4,1.3-1.9,2.3-.6.1-1.1.2-1.7.3.1.4.3,1,.4,1.4-.6,0-1.2,0-1.4.5,1.2,0,2.5,0,3.6.5-.6-.3-1.3-.7-1.4-1.2ZM93.8,63.6c0,0-.2,0-.3-.1.1,0,.2,0,.3.1,0,0,0,0,0,0ZM93.1,63.8c-.2-.2-.5-.4-.8-.6.2,0,.4,0,.6,0,.1.2.2.3.3.5Z"/>
  <g>
    <path class="cls-17" d="M117.3,25.1s-.4-1.8-2.1-2.1-3,.4-3.2,1.7.7,2,1.5,2.3c1.8.5,2.9.4,3.3,0s.5-1.9.5-1.9Z"/>
    <path class="cls-11" d="M115.6,27.3s1.5-.7,1.6-1.6c0-1.5-.6-2-.6-2,0,0,1.3,1.3,1.3,1.9,0,.8,0,1.4-1.3,1.6s-1,0-1,0Z"/>
    <circle class="cls-19" cx="115.6" cy="24.6" r=".7"/>
  </g>
  <path class="cls-16" d="M136.6,36.9s.2-.7-.2-.7-3,.7-3.5,1.3c-.4.7-.3,1.9,0,2.2.3.4,1.1.6,1.4.6s.4,0,.7-.2c.5-.4,1.6-3.3,1.6-3.3Z"/>
  <path class="cls-17" d="M132.5,38.3c.1-1,2-1.5,3.9-1.8.1,0,.2,0,.3,0,0,0,.2,1.1-.5,2.4-.7,1.2-1,1.2-1.4,1.2-1.9,0-2.5-.6-2.4-1.7Z"/>
  <path class="cls-8" d="M135.7,37.3s-1.9.4-2.2.8-.3,1.1,0,1.2.7,0,.6-.2,0-.8.2-.9,1.5-.9,1.5-.9Z"/>
  <path class="cls-10" d="M98,26.6c-.4-.9-2-.5-2.6-1.1.2.4,1,.6,1.3.8-.3-.1-.6-.2-.9-.2.4.5,1.4.6,2,.9,0,0,0,0,0-.1.4.4,1.2.5,1.5,1.1-.1-.2-.2-.5-.4-.7.2.3.3.7.6.9,0,0-.1-.1-.2-.2.1.3.3,1,.7.9,0-.1-.2-.3-.4-.3.1.4.5.8.8.9-.2-.1-.5-.3-.7-.3.2.7,1.4,1.5,2,1.8-.3,0-.6-.2-.9-.4.1.4.6.8.9,1.1-.2-.1-.5-.2-.8-.1.2.5.7.8,1.1,1.1-.2-.1-.4-.2-.7-.2.2.4.7,1,1.1,1.3-.3-.5-.6-1-.7-1.5.2.1.4.3.6.3,0-.5-.5-1.1-.7-1.5.2,0,.3,0,.4,0-.1-.3-.3-.5-.3-.8.1.1.3.2.5.2,0-.4-.3-.7-.4-1,.1,0,.3,0,.4,0-.1-.4-.3-.8-.4-1.2.4.2.7.2.5-.3.1,0,.3,0,.5,0,0-.3-.4-.4-.6-.4,0,0,0,.2,0,.2-.4-.1-1.1-.4-1.5-.4.1.2.2.5.3.7-.1,0-.3,0-.4-.1,0,0,0,0,0,.1-.4-.1-.6-.5-.9-.7.1.3.3.6.4.9-.3-.6-.8-1.2-1.4-1.5.1.3.3.6.6.9-.3-.6-1.7-1.3-2.3-1.3,0,.2.2.4.4.4-.5-.5-1.2-.6-1.6-1.2l2.1.8Z"/>
  <path class="cls-14" d="M30.4,73.1c2.7.3,6.6,2.5,10.7,2.7s10.6-1.4,11.3-.7c2.3,2.2,10.5,1.1,13.2.2,2.7-.9,2.9-1.3,7.8-.9s3.6,1.7,8.1,1.9c4.5.2,3.9.1,7.8,0s5.3,1.7,11.1,1.7c8,0,16-2.3,14.5-.9-2.7,2.4-23.4,5.3-29,4.6-11.2-1.5-18.8-.8-25.6-.5s-19.1-1.4-20.6-3.5-14.5-5.2-9.3-4.5Z"/>
  <path class="cls-14" d="M117.6,75s3.5.8.8,2.4c-2.7,1.7-8.8,3.6-10.5,3.7s-3.1,1.2-1.1,1.1,9.3-1.7,10.4-2.1,5.8-1.7,4.7-3.2-4.4-2-4.4-2Z"/>
  <path class="cls-14" d="M28.3,69s-5.9.9-4.2,2.9,9.7,5.2,8.7,5.5-4.4-.7-6.2-1.4-7.3-3.4-6.3-5.2,8-1.8,8-1.8Z"/>
</svg>