<?xml version="1.0" encoding="UTF-8"?>
<svg xmlns="http://www.w3.org/2000/svg" version="1.1" viewBox="0 0 272.1 114.6">
  <defs>
    <style>
      .cls-1 {
        mix-blend-mode: multiply;
      }

      .cls-1, .cls-2, .cls-3, .cls-4, .cls-5, .cls-6, .cls-7, .cls-8, .cls-9, .cls-10, .cls-11, .cls-12, .cls-13, .cls-14, .cls-15 {
        stroke-width: 0px;
      }

      .cls-1, .cls-14 {
        fill: #d6c9c3;
      }

      .cls-2 {
        fill: #cf9f5d;
      }

      .cls-3 {
        fill: #6d574f;
      }

      .cls-16 {
        stroke-width: 1.8px;
      }

      .cls-16, .cls-17 {
        fill: none;
        stroke: #fff;
        stroke-linecap: round;
        stroke-linejoin: round;
      }

      .cls-4 {
        fill: #d8b182;
      }

      .cls-5 {
        fill: #ac8f80;
      }

      .cls-17 {
        stroke-width: 2px;
      }

      .cls-6 {
        fill: #b78d5a;
      }

      .cls-7 {
        fill: #f2f2f2;
      }

      .cls-8 {
        fill: #44352e;
      }

      .cls-9 {
        fill: #866f62;
      }

      .cls-10 {
        fill: #95754a;
      }

      .cls-11 {
        fill: #67524a;
      }

      .cls-18 {
        isolation: isolate;
      }

      .cls-12 {
        fill: #fde9d0;
      }

      .cls-13 {
        fill: #cf847c;
      }

      .cls-15 {
        fill: #6c5a52;
      }
    </style>
  </defs>
  <g class="cls-18">
    <g id="Livello_1" data-name="Livello 1">
      <path class="cls-17" d="M4.8,72.7s0,0,0,0l.4-4.4,1.6-3.7h0l2.7-6.3s8-11.3,9.6-13.2c1.5-1.9,7.8-4.6,7.8-4.6h2.9c.2-.7.4-1.2.6-1.5.9-1.5,8.5-6.3,10.6-7.3s7.3-1.6,8.9-1.7c1,0,3.3.4,5.5.8l3.8.5c1.9,0,12,.4,15.4.3,3.3,0,11.9-1,11.9-1,0,0,3.9-2.1,5-2.3,1.1-.2,3.1.3,3.1.3,0,0,3.9.9,5.6.9,1.5,0,12.2-.6,13.5-.7h.6s2.9-.9,2.9-.9h0s.4-.1.4-.1l5.3-2.3h1.7c0-.1,1.1-3.1,1.1-3.1,0,0,2.3-3.7,3.1-4s.7.7.7.7l.5,4,.2.5,2.1-2.2s2.7-1.9,3.5-2.1c.9-.2.7,1.4.7,1.4l-1.2,2.9-.5,3,.6.3,3.5,4.8,1.3,4.3.2,2.8,1.8,3.3,4,4.8.3,1.8-.4.2h0s-2.4,1.4-2.4,1.4l-3.6.8-2.5-1-4.8-2.8-3.3,1.2-4.6,6.1-2,1.5h0s-.9.7-.9.7l-2.5-2.1-2,.7-2.3,2.8v.3s-3,3.8-3,3.8l-5.6,3.7-.2.6v-.5s-1.3,2.9-1.3,2.9l-2.6,17.8.2,5.6,2.8,6.6,3.6,2.5.7,2.3-.5.2h0s-.4.1-.4.1h0s-.8.2-.8.2h-1s-5.6,0-5.6,0l-1-.8-1.3-4.1-2.6-3.6v-1.5s.4-2.3.4-2.3h0s.1-.9.1-.9l-.8-6.1-1.7-9.3v-.5c-.1,0-1.7,5.8-1.7,5.8l-1.8,6.8-.7,5.1.8,3.8,3,.8,1.3,2v2h-.3c0,0,0,0,0,0h-.4c0,0,0,0,0,0l-1.6.3h0s-.6.1-.6.1h0s-.1,0-.1,0l-5-.3-.7-2.3-1.8-3.6.7-2.5.7-7.9.8-12.7.7-5.2-4-.2-15.2-1.3-10.5-1.5-1.8,7-4.5,7.3-3.8,5.1-.2,2.5,3.3,6.8,1.7,2.8,1,1,3.5,1.2,2.5,3.3-.7.7-5.8-.3-3.3-.8-.7-3.8-4.6-5.8-3.6-5-1.2-2.5.3-2.3,2.5-3.1v-5.8c0,0-4.3,4.1-4.3,4.1l-3.7,4h0s-.6.6-.6.6l-5.6,4,2.3,11.6,1.2,2,4.1.8,2.3,3.6-1.2,1h0s-.2.2-.2.2h-.3c0,0,0,0,0,0l-2.2-.4v.2c0,0,0,0,0,0l-.4.9h0s0,0,0,0l-1.6.2-3.8-1.3-1.2-3.3-1.3-1.5-2.6-10.1-.7-6.8,1.3-1.2,2.8-3.3,1.2-4.6-1.7-11.4,1.3-12.6s.2-.9.5-2.1l-1.2,1-3.8,8.1s-3.1,13.6-4.8,15.2l-8.8,8.8c-1.6,1.7-2.8,0-2.8,0,0,0-1.5-3-2-4.8-.5-1.7.2-2.6.2-2.6Z"/>
      <g>
        <path class="cls-3" d="M134.5,27.3l.6-3.7,1.2-2.9s.2-1.6-.7-1.4-3.5,2.1-3.5,2.1l-4.1,4.3,6.5,1.6Z"/>
        <polygon class="cls-9" points="94.7 72.8 92.6 80.9 90.8 87.6 90.1 92.8 90.9 96.6 93.9 97.4 95.2 99.4 95.2 101.3 92.1 102 87.1 101.7 86.5 99.4 84.7 95.7 85.3 93.3 86 85.3 86.8 72.6 87.8 64.7 94.1 65.8 94.7 72.8"/>
        <polygon class="cls-3" points="85.6 95.7 86.6 97.6 87.1 99.8 87.6 99.2 87.1 95.3 85.6 95.7"/>
        <polygon class="cls-5" points="86.8 72.6 87.8 64.7 94.1 65.8 94.7 72.8 92.6 80.9 91.2 86.2 90.7 81.3 89 75.3 86.7 74.7 86.8 72.6"/>
        <polygon class="cls-3" points="90 99.3 90 98.9 91 99.2 92.3 100.5 92.8 101.8 92.2 102 92.1 101.4 91.5 100.1 90 99.3"/>
        <polygon class="cls-3" points="94.5 100 94.9 101.4 94.5 101.5 94.3 100.6 93.7 99.5 92.8 98.5 93.6 98.7 94.5 100"/>
        <polygon class="cls-1" points="86 85.3 86.8 72.6 87.8 64.7 89.9 65.1 88.1 76.7 87 84.8 86.5 92 84.8 96 84.7 95.7 85.3 93.3 86 85.3"/>
        <polygon class="cls-5" points="32 40.2 26.8 40.4 19.1 45 9.5 58.2 5.2 68.3 4.5 75.2 6.5 80 9.3 80 18.1 71.3 22.9 56.1 26.7 48 29.7 45.5 32 40.2"/>
        <path class="cls-14" d="M7,73.6c1.9.3,3.7-2.4,3.7-2.4l4.1-3.8,3-5.8,4.6-9.3,3.5-6.7,4.4-1.4-.6,1.3-3,2.5-3.8,8.1s-3.1,13.6-4.8,15.2-7.1,7.1-8.8,8.8-2.8,0-2.8,0c0,0-1.5-3-2-4.8s.2-2.6.2-2.6c.3-.2.6-.3.6-.3,0,0-.3,1,1.6,1.2Z"/>
        <path class="cls-9" d="M6.8,64.6l2.7-6.3s8-11.3,9.6-13.2,7.8-4.6,7.8-4.6h.8s-5.7,3.9-5.7,3.9l-5.1,6.7-3.7,7.3s-2.7,4.1-4.1,5.4-2.3.8-2.3.8Z"/>
        <polygon class="cls-9" points="58.2 62.5 55.9 71.3 51.5 78.6 47.7 83.7 47.5 86.1 50.8 92.9 52.4 95.7 53.4 96.7 56.9 97.9 59.4 101.2 58.7 101.8 52.9 101.5 49.6 100.7 49 96.9 44.4 91.1 40.7 86.1 39.6 83.7 39.9 81.4 42.4 78.2 42.2 67.8 47.3 60.2 58.2 62.5"/>
        <polygon class="cls-5" points="42.4 78.2 42.2 67.8 47.3 60.2 58.2 62.5 55.9 71.3 52 77.6 49.7 75.4 45.6 74.6 43.8 78.4 40.8 82.8 41.8 87.6 40.7 86.1 39.6 83.7 39.9 81.4 42.4 78.2"/>
        <path class="cls-1" d="M40.7,86.1l-1.2-2.5.3-2.3,2.5-3.1-.2-10.4.7-1.1c1.1.9,2.2,1.8,2.2,1.8,0,.3-.4,8.7-.4,8.7l-1.7,5.1v4.3s3.1,4.9,3.1,4.9l3.1,4.5.7,2.5-.7.8-.4-2.4-4.6-5.8-3.6-5Z"/>
        <polygon class="cls-5" points="145.9 46.8 142 42 140.2 38.7 140 35.9 138.7 31.6 135.2 26.9 131.2 25 122.6 25.5 117.4 27.8 114.1 28.8 99.2 29.8 94.4 28.7 91.3 28.3 86.3 30.7 73.8 32 59.1 31.3 49.8 30 40.9 31.6 30.3 38.9 27.3 49.2 26 61.7 27.7 73.1 26.5 77.7 23.7 81 22.4 82.2 23 89 25.7 99 27 100.5 28.2 103.8 32 105.1 33.6 105 34.1 103.8 36.6 104.3 38.1 103.2 35.8 99.5 31.6 98.7 30.5 96.7 28.2 85.2 33.8 81.2 38.1 76.6 46.5 68.3 50.5 63.2 54.6 63.9 68.3 65.8 83.5 67.2 92.1 67.6 94.2 75.6 95.9 84.8 96.7 90.9 96.2 94.1 96.2 95.6 98.9 99.2 100.2 103.3 101.2 104.2 107.8 104.2 109.4 103.7 108.8 101.3 105.1 98.9 102.3 92.3 102.2 86.6 104.8 68.8 106.3 65.3 111.9 61.7 117.2 55.3 119.2 54.6 121.7 56.7 124.6 54.6 129.3 48.5 132.6 47.3 137.3 50.1 139.8 51.1 143.5 50.3 146.3 48.7 145.9 46.8"/>
        <path class="cls-14" d="M22.4,82.7l2.9-.2,2.5-2.1,3.5-4.1s2.8-4.9,4.5-6.9,6.1-4.4,5-3.5,8.4-8.8,8.4-8.8c0,0,1.1-3.9,2.3-5.5s3.1-.8,3.1-.8l3.8,3,4.8.8,9.6,1.5,7.4.2,7.8-1,5.1-.7,2,1.8-1.3,5.3-1.7,3.5-.2,2.5-8.4-.5-15.2-1.3-13.7-2-4.1-.7-4,5.1-8.4,8.3-4.3,4.6-5.6,4,2.3,11.6,1.2,2,4.1.8,2.3,3.6-1.5,1.2-2.5-.5-.5,1.2-1.7.2-3.8-1.3-1.2-3.3-1.3-1.5-2.6-10.1-.6-6.2Z"/>
        <polygon class="cls-14" points="106.3 65.8 106.1 66.4 106 62.4 107.8 58 107.3 52.6 109.4 47.5 111.4 46.5 112.4 49.2 115 54 114.9 58.3 111.9 62.1 106.3 65.8"/>
        <polygon class="cls-14" points="122.8 54.1 123.3 50.1 125.9 46.8 128.1 44.2 127.4 42.4 124.1 39.9 124.1 37.3 130.6 36.9 133 40.6 135.2 41.1 139 43 140.3 42.4 142.2 42.3 145.9 46.8 146.3 48.7 143.5 50.3 139.8 51.1 137.3 50.1 132.6 47.3 129.3 48.5 124.6 54.6 122.6 56.1 122.8 54.1"/>
        <path class="cls-9" d="M104.3,58.4l1.5-3.8s-.7-5.1-.7-5.6-.5-5-.5-5l-.2-7.3-2.8-4.1,1.3,5.9-1.5,7.8-1.3,5,1.3,3.6,2.8,3.5Z"/>
        <path class="cls-9" d="M136.8,36.1l1.6,2.2c-.4.1-2.1-1.6-2.1-1.6l.5-.6Z"/>
        <polygon class="cls-3" points="137.5 35.5 136.7 36.5 136.5 37.2 135.6 36.5 134.8 34.9 136.1 35.3 137.5 35.5"/>
        <polygon class="cls-5" points="136.5 35.7 136.2 36.2 136 36 136.1 35.6 136.5 35.7"/>
        <polygon class="cls-3" points="146.3 48.7 144.1 49.9 144.4 48.4 143.5 47.9 143.6 46.9 144.6 46.8 145 45.7 145.9 46.8 146.3 48.7"/>
        <polygon class="cls-3" points="136.2 47.7 139.4 49.8 141.8 50.7 141.1 50.8 139.1 49.9 137.4 48.9 134.9 47.4 133 46.8 132.8 46.3 133.8 46.2 136.2 47.7"/>
        <polygon class="cls-9" points="137.2 33.2 136.4 30.8 133 27.8 131 27.5 131.4 30.2 129.5 32.6 124.8 34 124.6 36 126.5 35.4 130.4 34.2 132 34.6 133.5 33.3 137.2 33.2"/>
        <polygon class="cls-9" points="125.9 43.4 124.7 45.8 123.2 45.6 124.8 43.5 125.2 42.4 125.9 43.4"/>
        <polygon class="cls-9" points="123.6 43.7 120.1 46 117.7 49.1 115.9 49.7 114.9 49.4 117.1 47.6 118.8 43.8 124 41.2 123.6 43.7"/>
        <polygon class="cls-9" points="122.3 49 121.7 52.2 119.3 52.1 117.6 52.7 117 52.1 119 50.8 120.2 47.6 122.2 46 123.6 46.5 122.3 49"/>
        <polygon class="cls-9" points="115.7 51.6 114.9 50.7 117.6 49.9 117.7 50.5 115.7 51.6"/>
        <path class="cls-9" d="M43.7,32.5c-2,.6-5.9,3.3-7.4,4.6s-2.5,4.2-2.5,5,0,5.9,0,6.7.8,1.7.4,3-4.7,5.9-4.7,5.9l-.2,2.7-.7,4.8-1.5,2.5-.9-6,1.3-12.6s2-8.7,3-10.2,8.5-6.3,10.6-7.3,7.3-1.6,8.9-1.7,7.4,1.2,9.3,1.3,12,.4,15.4.3,11.9-1,11.9-1c0,0,3.9-2.1,5-2.3s3.1.3,3.1.3c0,0,3.9.9,5.6.9s13.7-.7,13.7-.7l-.6.9s-3.8.9-4.2.7c-.4-.1-6.6.5-6.6.5l-5,2-5.9.9s-4-1.1-4.8-.6-.6,2.2-.6,2.2v2.1c-.1,0-1.9.7-1.9.7l-3.1-2.5s-2.5-1.3-4.3-1.5l-10.8-.9s-8-.3-6.3-.2-6.7-.9-6.7-.9c0,0-7.2-.5-9.2.1Z"/>
        <polygon class="cls-15" points="97.4 96 98.7 97.5 100.1 98.2 100.3 97.8 98.5 96.1 97.7 94.4 97.4 96"/>
        <path class="cls-15" d="M106.6,102.4l-2.4-1v-.5c.1,0,2.7,1,2.7,1l.7,2.3h-.8c0-.6-.2-1.8-.2-1.8Z"/>
        <polygon class="cls-15" points="107.2 101 108.6 102.1 108.9 103.8 108.5 103.9 108.3 102.4 107.1 101.2 107.2 101"/>
        <polygon class="cls-9" points="97.9 60.3 97.8 66.1 100.4 69.7 102.4 70.4 103.2 68.9 100.9 66.3 99.1 61.4 97.9 60.3"/>
        <polygon class="cls-14" points="90.6 62.7 92.7 62.7 93.7 68.3 95.7 76.9 97.4 85.5 97.5 90.2 96.6 91.8 96.7 90.9 95.9 84.8 94.2 75.6 92.1 67.6 89.2 67.5 88.9 65.8 90.6 62.7"/>
        <polygon class="cls-9" points="25.7 83.4 24.7 86.4 24.8 90 23.8 85.9 24.2 83.4 25.7 83.4"/>
        <polygon class="cls-9" points="23 89 22.4 82.7 23.7 82.6 23 83.8 23.7 88.7 24.9 93.3 26.6 97.6 28.3 100.3 28.8 104.1 28.2 103.8 27 100.5 25.7 99 23 89"/>
        <path class="cls-9" d="M34.5,100.4l2,2.3.3,1.4-.2.2h-.3c-.2-.7-.5-1.6-.5-1.6l-2.1-2.4-.8-.2v-.4c0,0,1.7.7,1.7.7Z"/>
        <path class="cls-9" d="M31.4,100.8l1.7,1.7.9,1.6-.4.9h0c-.2-.7-.5-1.8-.5-1.8l-1.7-1.8v-.6Z"/>
        <polygon class="cls-9" points="119.1 29.9 117 28 117.4 27.8 121.2 26.2 121.6 29.8 122.3 32.3 120.7 33.6 119.1 29.9"/>
        <path class="cls-1" d="M131.2,25l4,1.8,3.5,4.8,1.3,4.3.2,2.8,1.8,3.3,4,4.8.3,1.8-.4.2-.6-1.9-1.3-1.7-2.9-2.9-1.7-3.1v-2.4c0,0-1.1-3.9-1.1-4.1s-2.1-3.9-2.1-3.9l-2.2-2-2.3-1.3-2.1-.4h0c0-.1,1.8-.2,1.8-.2Z"/>
        <polygon class="cls-13" points="123.6 31.4 126.4 30.6 127.9 30.2 129.4 28.8 130.7 28.8 131.3 27.6 129.8 23.1 129.3 19.2 128.6 18.5 125.5 22.5 123.6 27.8 123.6 31.4"/>
        <polygon class="cls-1" points="127.6 23.2 128.8 25.9 129.6 28.8 129.4 28.8 127.9 30.2 126.4 30.6 126.4 30.6 125.5 29.2 125.4 26.1 127.2 21.7 127.6 23.2"/>
        <path class="cls-3" d="M128.6,18.5c.8-.3.7.7.7.7l.5,4,1.5,4.5-.6,1.2h0s-.3-2.1-.3-2.1l-.7-2.4-.5-3.8-.7.5-1.6,3.1-.4,3.1.7,2,.9,1.1h-.1c0,0-1.5.5-1.5.5l-2.8.8v-3.6c0,0,1.8-5.3,1.8-5.3,0,0,2.3-3.7,3.1-4Z"/>
        <polygon class="cls-1" points="54.6 63.9 50.5 63.2 46.5 68.3 38.1 76.6 34.4 80.6 36.8 76.1 44.2 67.2 48.2 61.2 52.6 59.4 62 62.2 82.5 63.5 90.6 63.2 93.7 63.4 93.1 66.3 92.8 70.2 92.1 67.6 83.5 67.2 68.3 65.8 54.6 63.9"/>
      </g>
      <path class="cls-16" d="M265,30.3c0-.3-.2-.4-.4-.4-1.3-1-5.4-3-5.4-3,0,0-2-1.8-2.4-2.1-.4-.3-1-2-1.4-2.7-.3-.5-2.9-2.3-4.7-3.6v-2.4c0,0-.6-3.6-.6-3.6-.5-3.1-3.1,2.5-3.9,4.5,0,0,0,0,0,0v-.3s-2.4-5.3-2.4-5.3c0,0,0,0,0,0,.4.7.2.4,0,0,0,0,0-.1-.3-.6-.9-1.3-1.8.8-1.8.8l-3,7.1s0,0,0,0c-.3.3-.6.7-1,1.2-2.8,4.1-8.7,12.7-10.6,14.5-3.7,3.4-8.6,3.7-13,5.3-4.4,1.6-11.8,3.1-11.8,3.1,0,0-12.3.5-15.9,1.4-2.7.9-5.4,2.2-6.2,2.6,0,0,0,0,0,0-.1,0-.2.1-.2.1,0,0,0,0,0,0-.5.3-1,.6-1.4.9-1,.8-1.6,1.5-2.1,2.2l-1.2.8s0,0,0,0c0,0-1.7.7-3.6,2.4h0s0,0,0,0c-.9.8-1.9,1.8-2.7,3-.8,1.2-1.9,1.6-2.6,2-1,.8-1.5,1.4-3.4,3.1,0,0-.5.5-1.2,1.2-2.5,2.4-4.7,4.4-4.5,4.7s.6.4.6.4c0,0-1.4,1.2-2.4,2.3,0,0-.1,0-.1.1,0,0-.2.3-.4.5,0,0,0,0,0,0,0,0,0,0,0,0-1,1.3-3.4,4.3-3.4,4.3l-.5.8s0,0,0,0c-.5.7-1.9,2.6-2.1,2.9h0s-1.4,2-1.4,2l-2,5h0s-.4,1.1-.4,1.1l-.6,7.5h0c0,.2,0,.6,0,1h0s0,.2,0,.3c0,.2.2.4.5.5,0,0,0,0,.1,0,0,0,0,0,0,0,0,0,.8-.1,1.7-.3.9-.2,1.9-.3,2.2-.5.3,0,.5-.2.6-.2,1.3-.3,4.4-.8,5.3-1.3,0,0,0,0,0,0,.5-.2.8-.3,1-.5,0,0,0,0,.1,0,1.3-.7,1.6-1.4,1.6-1.4,1.2-1,2.4-2.2,2.4-2.2,0,0,4.5-3.7,4.7-4.2.8-1.4,2-3.5,3.2-5.6.5-.8,1.2-2.1,1.8-3,.3-.4.3-.4.6-1,1.2-2.2,2.8-4.8,2.8-4.8l1.4-4.8.4,1.6s2,5.3,2.2,7.7c.2,1.9-.2,3.5-.4,4.1h0c0,0,0,.2,0,.2,0,0-2,1.9-3.1,3.6-.3.4-.5.8-.6,1.1-.5,1.7,2.3,13.5,2.3,13.5l.3,6.1,1.1,1s1,1,1.8,1.7c0,0,0,0,0,.1,0,.2.3.3.6.4,0,0,0,0,.1,0h2.8s0,0,0,0h.4s0,0,0,0h.8l1.6-.2s0-.2,0-.4c0-.1,0-.3,0-.5,0-.6,0-1.5-.6-1.9l-.3-.2c-.4-.5-.9-.8-1.4-1.1,0,0,0,0,0,0h0c0,0-.2-.1-.2-.1-.7-.3-1.3-.5-1.7-.6h0s-1.1-14.8-1.1-14.8l1.9-1.8,7.2-3.7s.5-.4,1.2-.9c-.3.9-.6,1.7-.9,1.8-.9.5-1.9.7-2.7,1.4-.8.8-.6,2.2-.6,2.2l2.6,4.7,1.8,8.2.2,1.6.8.9s0,0,0,0c-.3.2,0,1.9.3,2.2s2.7.2,3.6.2h3.4c.2-.2.3-.6.2-1v-.3c0,0-.8-1.7-1.5-1.9h-.4c-.1-.1-.2-.2-.3-.2h-.3c-.1-.1-.3-.1-.4-.2h-.4c0,0-.6-.7-.6-.7l-2.1-9.3-.5-3.2.5-1.8,2.7-2.2,3.1-3.4,1.9-5-.3-5.8,8.9,1.3s1.8,0,3.6,0c.6,0,1.2,0,1.8,0,1.5,0,3.7-.4,5.5-.7,1.1-.2,2.2-.3,2.6-.4.1,0,.2,0,.3,0,.4.1.9.6,1.3,1,.1.2.3.4.5.6h0s.1,1,.1,1h0s1.5,11.5,1.5,11.5l1.1,3.3.4,3.6.3,8.5,1.6,6.1h.5c.7.1,2.3.4,2.6.5.3,0,.6.1.9.1,0,0,0,0,0,0h.4c.4,0,1.2.2,1.7,0,0,0,0,0,0,0h0s0,0,0,0c.2,0,.4-.2.5-.4l.3-.2v-.2c-.1-.1-.1-.2-.1-.4,0-.8-.7-1.6-1.3-2h0c0-.1-.2-.2-.2-.2-.6-.3-1.5-.4-1.9-.4h0s-1.1-3.7-1.1-3.7l.3-6.4,1.1,7.2,1.3,1.3c.3.4.7.8.7.8,0,0,.9,0,2,.1,0,0,0,0,0,0h.4s0,0,0,0c.6,0,1.2,0,1.8,0s0,0,0,0h0s0,0,0,0c1.6,0,.5-2.3,0-3-.5-.7-3-1.1-3-1.1,0,0,0,0-.1,0h-.3c0-.1-1.1-9.1-1.1-9.1l.2-4,.6-7.4.2-2.8h0s.4-5.4.4-5.4l2.4-2.9s1.6-1.3,3.2-4.2,6.7-23.1,7.1-24c.5-.9,2-2.1,2.9-2.5.9-.4,2.3-.4,3.8-.4,1.8.2,3.7.4,4.3.4.3,0,.7.2,1.2,0,.7-.3,1.6-1,1.9-1.3,0,0,0,0,0,0,.2-.2.4-.3.5-.5.3-.5.5-.8.5-1,0,0,.9-1.1.7-2ZM264.2,32.2h0s0,0,0,0h0Z"/>
      <g>
        <g>
          <g>
            <path class="cls-10" d="M178.7,48.6l-7.1,4.5-2.7,3-.6,1-2.9,1.9-1,1-1.4,1.3s-5.3,5-5.5,5.5c-.2.5.3.8.3.8,0,0-2.1,1.9-2.6,2.4-.5.5-3.9,4.8-3.9,4.8l-4,5.6-2.4,6.1-.6,7.5.6,1.8s3.7-.5,4.2-.8c.5-.3,4.8-.9,5.8-1.5s5.2-4.1,5.2-4.1c0,0,4.5-3.7,4.7-4.2.2-.5,2.9-5,3.2-5.5.7-1.2,2.2-3.6,2.5-4.1,1.2-2.2,2.8-4.8,2.8-4.8l1.4-5.1s2.2-3.9,2.2-4.5,1.8-12.5,1.8-12.5Z"/>
            <path class="cls-11" d="M155.7,91.5s.6-1,.9-2.4-3.2.3-3.2.3c0,0-1.4-1.8-1.9-3.5s-2.6.2-2.6.2l-2.2,1.1-1.3-1.7-.4,1.1-.6,7.5c0,0-.3,1.5.6,1.8,0,0,3.7-.5,4.2-.8.5-.3,3.6-.7,5.5-1.4s3.1-2,3.1-2h-2Z"/>
            <path class="cls-1" d="M177.2,58.6l-3.2,1-2.7,10-4.3,6.1s-3.1,5.6-5,7.7-4.7,3.7-4.7,3.7l-3.9,2.2-3.7,2.2-5.3.5v2.9c-.1,0,0,.7.7.8s4.1-.7,4.6-1c.5-.3,5.4-1.1,6.3-1.8s4.1-3.6,4.1-3.6c0,0,4.4-3.8,4.7-4.2,1.2-2.1,3.4-5.9,5-8.6s.3-.4.6-1c1.1-2.2,2.8-4.8,2.8-4.8l1.4-5.1s2.2-3.9,2.2-4.5.1-1.1.3-2.5Z"/>
            <path class="cls-11" d="M245.8,17.7c.1-.4,3.6-8.9,4.2-5.2l.5,3.6v3.1c.1,0-4.7-1.6-4.7-1.6Z"/>
            <path class="cls-6" d="M199.9,68l.3,6.9-1.9,5-3.1,3.4-2.7,2.2-.5,1.8.5,3.2,2.1,9.3.6.6,1.8.5,1.6,1.9-.3,1.3h-4.2s-2.7-.2-2.7-.2l-.3-2.2-.8-1-.2-1.6-1.8-8.2-2.6-4.7s-.2-1.5.6-2.2,1.8-1,2.7-1.4,1.8-6.1,1.8-6.1l1.6-11.6,7.4,3.1Z"/>
            <path class="cls-1" d="M195.2,100.5l-.6-.6-2.1-9.3-.5-3.2.3-1.1s-.2-2-.9-.7-1.8,2.2-2.8,2.1-2.7-1.7-2.7-1.7v.5c-.1,0,2.4,4.7,2.4,4.7l1.8,8.2.2,1.6.8,1,.3,2.2,2.7.2h4.2s.3-1.3.3-1.3c0,0-.8-1.7-1.6-1.9l-1.8-.5Z"/>
            <polygon class="cls-6" points="236.7 66.7 235.9 76.7 235.2 84.1 235.1 88.1 236.2 97.1 238.3 97.9 239.7 99.6 239.5 101.3 235.4 101.1 233.3 99 231.4 86.8 231.4 68.3 236.7 66.7"/>
            <polygon class="cls-2" points="239.7 99.6 238.3 97.9 236.2 97.1 235.1 88.1 235.2 84.1 235.9 76.7 236.1 73.9 233.4 73.2 231.4 74.6 231.4 86.8 233.3 99 235.4 101.1 239.5 101.3 239.7 99.6"/>
            <path class="cls-2" d="M265,30.3c.2.7-1.3,2.7-1.3,2.7l-2.4,1.5h-5.1c0-.1-3.8.1-3.8.1l-3.1,2.4-4.7,14.3-2.4,9-3.2,5.3-3.7,4.5-2.1,1.4-.6,12-.3,7.7-.3,6.9,1.1,3.7,2.1.5,1.4,2.7-.8.6-6.3-.6-1.6-6.1-.3-8.5-.4-3.6-1.1-3.3-1.6-12.5s-1-1.7-2.1-1.6-4.9.9-6.9,1-6.6,0-6.6,0l-11.1-1.6-3.1,4.5-1.8,4.7-4.2,3.7-7.2,3.7-1.9,1.8,1.1,14.8,1.9.6,1.8,1.4.5,2.9-1.6.2h-4s-2.6-2.2-2.6-2.2l-1.1-1-.3-6.1s-2.8-11.8-2.3-13.5,3.7-4.6,3.7-4.6c0,0,.7-1.9.5-4.3s-2.2-7.7-2.2-7.7l-1.9-7.4s-.3-3.3,1.3-6.3,2-4.3,4.2-6.1,8.7-3.7,8.7-3.7l15.1-1.3,11.6-1.7,6.5-2.5h4.5c0,0,.4-1.6,2.6-3.5s5-6.6,5-6.6l5.1-8.5,5.6-3.1,5.8.5s5.8,4,6.3,4.7,1.1,2.4,1.4,2.7l2.4,2.1s5.6,2.7,5.8,3.4Z"/>
            <polygon class="cls-6" points="235.1 102.4 233 101.9 231.8 98.2 232.2 91.3 232.5 83.6 233 73.2 230.9 72.7 230.2 71.2 226.5 69.9 224.6 72.1 226.1 83.6 227.2 86.9 227.5 90.5 227.8 99 229.4 105.1 235.7 105.8 236.5 105.1 235.1 102.4"/>
            <path class="cls-1" d="M188.8,81.7l1-.9h-1.4s-7.4,1.3-7.4,1.3l-3.2-.6-.9-2.3v.3s-3.7,3.5-3.7,5.1,2.3,13,2.3,13l.3,6.1,1.1,1s2.2,2.2,2.6,2.2h4s1.6-.2,1.6-.2c0,0,.5-2-.5-2.9l-1.8-1.4-1.9-.6-1.1-14.8,1.9-1.8,7.2-3.7Z"/>
            <path class="cls-1" d="M224.6,68.1c-.3-.5-1.1-.3-2.1-1.4s-6.2.8-6.2.8l-6.5.4s-4.5.3-6.6,0-3.5-1.2-4.5-.5-.8,1.3-.8,1.3l11.1,1.6s2.9,0,5.4,0,7.1-1.1,8.1-1.1,1.3.7,2.1,1.6c0,0,.5-2.5.1-2.9Z"/>
            <path class="cls-4" d="M260.6,31.4l-3.7-1.8s-1.5-.9-2.9-1.3-4.3.6-4.3.6l-5.5,2.2s-2.4.8-3.5,1.1-.8,1.9-.8,1.9l1,4.3s-.6,8.9-.5,12.1c0,3.1-1,6.3-1.8,8-.8,1.6-2.7,5.5-2.7,5.5l-1.6,4.2s-.2,1.8-.2,2.6,1.2-.8,1.2-.8l3.7-4.5s1.6-1.3,3.2-4.2,6.7-23.1,7.1-24c.5-.9,2-2.1,2.9-2.5s2.6-.4,4.1-.4,4.2.5,4.7.5,2.4-1.2,2.8-1.9.5-1,.5-1l-3.7-.8Z"/>
            <path class="cls-1" d="M230.2,103.5l-1.1-5.3-.2-10.9-1.3-4.8v-13.5s.7-3.1,0-4.4-2.3-1.2-2.3-1.2l-10.8,2.2-11.2-.6s-6.3-2.3-8-3.1-2.1,1-2.1,1c0,0,1.3,1.9,1.1,3.7s-1.1,5.3-4.3,9-6.4,5.8-6.4,5.8l-5.3,5.5,1.1,12,1,.9-.9-12.6,1.9-1.8,7.2-3.7s3.2-2.2,4.2-3.7.6-2,1.8-4.7,3.1-4.5,3.1-4.5l11.1,1.6s6.1.1,7.6,0,5.1-.8,5.9-.9,2.1,1.6,2.1,1.6l1.6,12.5,1.1,3.3.4,3.6.3,8.5,1.6,6.1h1.2c0,.1-.4-1.6-.4-1.6Z"/>
            <path class="cls-10" d="M245.2,18.5s2.1-.4,2.9-.5,1.9,0,1-.6-5.8-.5-5.8-.5c0,0-2.8-1-5.6,3.1s-8.7,12.7-10.6,14.5c-3.7,3.4-8.6,3.7-13,5.3-4.4,1.6-11.8,3.1-11.8,3.1,0,0-12.3.5-15.9,1.4-3.3,1.1-6.4,2.7-6.4,2.7,0,0,4.5-1,6-1s8.3-1.3,12.4-1.5l12.7-.6s8.1-3,14-5.1c5.9-2.1,8.6-8,8.6-8l7-10.5,4.7-1.6Z"/>
            <polygon class="cls-11" points="253.2 24.3 255.8 25.6 257.5 26.6 256.4 25.5 254.2 24 253.2 24.3"/>
            <polygon class="cls-2" points="243.4 10.8 241.6 11.6 238.6 19.3 239.2 20.8 243 23.2 243.7 21.6 245 20.2 246.2 20.1 246.1 16.7 243.4 10.8"/>
            <path class="cls-10" d="M242.8,12.4s.2-2.1.9-1-.3-.6-.3-.6l-1.8.8-3,7.1s-.4,1.8-.2,4.6,4.6-.2,4.6-.2l.4-.8s0,.1-.4-2.3c-.4-2.5,0-4.7,0-4.7v-3Z"/>
            <path class="cls-10" d="M245.5,18.7s0-2-.4-3.1-.9-2.4-1.4-2.8-.2,2.1-.2,2.1v3.4c.1,0,.5,2.9.5,2.9l.9-1h.4s0-.2,0-.2v-1.2Z"/>
            <path class="cls-8" d="M243.4,10.8c-.9-1.3-1.8.8-1.8.8l-1.8,4.6s.9-.7,1.7-.7,1.3.5,1.3.5v-.6s0-1.6,0-3,.9-1,.9-1c0,0,.2.2-.3-.6Z"/>
            <path class="cls-12" d="M244.2,31.2s2.2,0,2.9.9.4,1.4.4,1.4c0,0,.2-.2.7,0s.5,1,.5,1c0,0,.3-.4,1-.4s.8.8.8.8c0,0,1.7-.6,3.7-.5s5.1.5,5.9.5.7.2,1.2,0,1.6-1,1.9-1.3c.5-.5,1-1.4,1-1.4l-4.3-1.2s-4.9-2.7-6-2.7-2.9-.2-6,1.3-3.8,1.5-3.8,1.5Z"/>
            <polygon class="cls-11" points="262.9 34 261.5 33.9 259.3 33.5 256 32.5 252.8 32.8 252.8 33.2 254.5 33.1 256.1 33 258.6 33.7 260.8 34.2 262.2 34.5 262.9 34"/>
            <path class="cls-11" d="M263.8,31.4l.5.9s.9-1.1.7-2-.7-.4-.7-.4l-1,.2v.7s.8.1.8.1v.5h-.3Z"/>
            <polygon class="cls-8" points="254.6 23.4 254.5 23.8 254.6 24.4 254.9 24.8 253.6 24.6 252.4 24.6 253.3 23.9 254.6 23.4"/>
          </g>
          <path class="cls-11" d="M175.3,50.7s-3.8,1.6-6.4,5.4-1.9,1.6-2.6,2c-1,.8-1.5,1.4-3.4,3.1-3,2.8-6,5.5-5.7,5.8s.6.4.6.4-2.1,1.8-3,2.9-3.4,4.3-4,5.1l-2.1,2.9c-.2.3,1.5-.5,1.9-.8s3.3-3.3,2.7-3.2-.1-.9.8-1.6,1.9-1.3,1.9-1.6.2-1.1,1.1-1.6,2.4-2.1,3.1-2.7,1.7-.9,2.3-1.8,2.6-4.1,3.5-4.8,2.4-2.1,2.7-2.4.5-.8,1.3-1.6,1.6-1.7,2.3-2.2.5-.5,1.8-1.5,1-1.7,1-1.7Z"/>
        </g>
        <path class="cls-7" d="M180.7,101.9s2.4.3,3.7,2.1.5,2.9.5,2.9c0,0-.2,0-.9,0s-1.4,0-1.9,0-1.2,0-2,0-1.4,0-1.5-.4-1.6-3.1-.6-3.1,2.7-1.7,2.7-1.7Z"/>
        <path class="cls-7" d="M194.1,100.6s2,0,2.8.3,1.6,1.9,1.6,1.9.2,1.3-.3,1.3-2.4,0-3.3,0-3.3.2-3.6-.2-.7-2.1-.3-2.2,2.6-1.1,3.2-1.1Z"/>
        <path class="cls-8" d="M196.6,102.4s.4.3.4.7,0,1,0,1h-.4s0-.5,0-.9-.3-1.2,0-.9Z"/>
        <path class="cls-8" d="M182.1,105.3s.4.3.4.7,0,1,0,1h-.4s0-.5,0-.9-.3-1.2,0-.9Z"/>
        <path class="cls-8" d="M184.2,105.1s.4.3.4.7,0,1,0,1h-.4s0-.5,0-.9-.3-1.2,0-.9Z"/>
        <path class="cls-7" d="M236.6,97.2s2.5.4,3,1.1,1.6,3-.2,3-4.2-.2-4.2-.2c0,0-.8-.7-.9-1.3s1-1.1,1-1.6c0-.8,1.2-1,1.2-1Z"/>
        <path class="cls-8" d="M237.3,99.5s.4.3.4.7,0,1,0,1h-.4s0-.5,0-.9-.3-1.2,0-.9Z"/>
        <path class="cls-8" d="M239.5,99.3s.4.3.4.7,0,1,0,1h-.4s0-.5,0-.9-.3-1.2,0-.9Z"/>
        <path class="cls-7" d="M232.9,101.9s1.4,0,2.1.5,1.5,1.2,1.4,2.1-.3,1-.8,1.2-1.3,0-1.7,0-.9,0-1.3-.2-2.5-.4-2.9-.5,0-.9.5-1.3,1.5-.6,1.6-.9.7-1.1,1-1.1Z"/>
        <path class="cls-8" d="M233.5,104s.4.3.4.7,0,1,0,1h-.4s0-.5,0-.9-.3-1.2,0-.9Z"/>
        <path class="cls-8" d="M235.6,103.8s.4.3.4.7,0,1,0,1h-.4s0-.5,0-.9-.3-1.2,0-.9Z"/>
      </g>
    </g>
  </g>
</svg>