<?xml version="1.0" encoding="UTF-8"?>
<svg id="Livello_1" data-name="Livello 1" xmlns="http://www.w3.org/2000/svg" version="1.1" viewBox="0 0 150.6 93.8">
  <defs>
    <style>
      .cls-1 {
        stroke: #230904;
      }

      .cls-1, .cls-2 {
        fill: none;
        stroke-linecap: round;
        stroke-linejoin: round;
        stroke-width: .3px;
      }

      .cls-2 {
        stroke: #330d04;
      }

      .cls-3 {
        fill: #895645;
      }

      .cls-3, .cls-4, .cls-5, .cls-6, .cls-7, .cls-8, .cls-9, .cls-10, .cls-11, .cls-12, .cls-13, .cls-14, .cls-15, .cls-16, .cls-17, .cls-18 {
        stroke-width: 0px;
      }

      .cls-4 {
        fill: #86aebc;
      }

      .cls-5 {
        fill: #665550;
      }

      .cls-6 {
        fill: #ceb9b6;
      }

      .cls-7 {
        fill: #774b39;
      }

      .cls-8 {
        fill: #663f31;
      }

      .cls-9 {
        fill: #000;
      }

      .cls-10 {
        fill: #563b2f;
      }

      .cls-11 {
        fill: #51423f;
      }

      .cls-12 {
        fill: #6d94a5;
      }

      .cls-13 {
        fill: #cfb1a9;
      }

      .cls-14 {
        fill: #6d5b55;
      }

      .cls-15 {
        fill: #2b2b2a;
      }

      .cls-16 {
        fill: #b59e99;
      }

      .cls-17 {
        fill: #efefef;
      }

      .cls-18 {
        fill: #845444;
      }
    </style>
  </defs>
  <path class="cls-4" d="M79.7,55.2c21.4.3,13.6,7.4,19.4,7.9s29,1.6,32.1,1.7c10.5.6,21.5,5.5,19,10.6-6.2,12.1-21.4,7.3-30.8,7.7-9.4.5-28.1,1.3-29.9,5-1.8,3.8-22.8,6.1-27.3,5.7-9-1-20.6-6.8-27.1-6.8-12.6,0-6.7-3.6-11.1-6.2s-2.9-6.4-14.1-9.6c-22.9-6.7-.3-13.3,7.2-13.3,24.6,0,20-5.1,32.1-5.9,19.7-1.5,26.6,3.4,30.4,3.4h0Z"/>
  <path class="cls-13" d="M97.3,47.1c1.8.8,4.7,3.7,6.9,3.8,2.1.2,6.8,2,7.5,3,.7.9,0,1.3.2,1.7s.6,2.1-1.2,2.4c-1.7.3-3-1.8-3.8-1.6-.7.2,2.2,2.9,0,2.9s-3.1-2.3-4.5-2.4c-1.5-.2-3.7-1.6-4.7-3.6-1.2-2-2.8-6-2.8-6l2.4-.2h-.1Z"/>
  <path class="cls-16" d="M104.1,50.9l-1.2-.3-2.1-1.2-3.7,3.1.5.8s1,1.6,1.6,2.2,1.7,1.2,2,1.2c.9,0-1.5-.2.2-2.7,1.6-2.3,2.7-3.1,2.7-3.1Z"/>
  <g>
    <path class="cls-2" d="M144.4,8.2c-5.8,2.1-12.9,7.3-15.5,13.1"/>
    <path class="cls-2" d="M136.6,16.6c-1.5.7-7.7,4.3-7.3,6.2"/>
    <path class="cls-2" d="M144,18.1c-3.2.2-6.6,1.6-9.6,2.9-1.3.6-4.3,1.8-4.9,2.9"/>
    <path class="cls-2" d="M144.9,22c-4.5-.3-11.6.3-15.1,2.9"/>
    <path class="cls-2" d="M145.1,27.2c-1.7-1.7-6.4-1.6-8.6-1.7-1.2,0-5.3-.3-5.8.3"/>
    <path class="cls-2" d="M142.7,28.2c-3.7-1.4-8.1-2.1-12-2.2"/>
  </g>
  <path class="cls-10" d="M110.5,54c.2-.8,3.2.2,3.8,1.2.6,1-1.4-.9-2.5-.3-1.2.5-1.5,0-1.3-.8Z"/>
  <path class="cls-10" d="M110.9,55.6c1.4-.3,3.2.8,3.6,1.8.3,1-1.2-1.2-2.4-.8s-1.2-1-1.2-1Z"/>
  <path class="cls-10" d="M110.1,56.2c.7-.6,2.8,1.7,2.8,2.9s-.8-1.4-2.1-1.5c-1.3-.1-1.5-.8-.7-1.3h0Z"/>
  <path class="cls-10" d="M107,57.5c1.2-.7,2.8,1.7,2.8,2.9s-.8-1.4-2.1-1.5c-1.3-.1-1.8-.6-.7-1.3h0Z"/>
  <path class="cls-13" d="M39.4,50.2s-3.9,1.7-13.1,0c-9.1-1.7-15.3-3.9-16-6-.7-2.1-.2-4.3,2.7-7.5s9.6-7.9,12.1-13.4.9-13.1-1.2-16.3c-2.1-3.4-5.7-6-4.3-3.9,1.4,2.1,2.7,8.8,3.5,11.7.8,2.9-.2,6.9-2.1,10.1-1.7,3.1-10.1,7.1-12.3,9.9s-4.6,7.2-2.7,10.6,5.7,6.6,9.6,7.4,5.9,2.4,13.4,3.7c7.6,1.3,13.4,2,13.4,2l-3.4-8v-.2Z"/>
  <path class="cls-16" d="M36.1,50.9s-2.4.2-3.6,0-1.4-.1-1.4-.1c0,0,1.3,1.5.5,2.7-.8,1-3.6.7-5.1.8s-7.6-.8-7.6-.8c0,0,5,2,10.9,3s8.9,1,8.9,1l.8-7.4-3.4.7h0Z"/>
  <path class="cls-11" d="M107.7,10c-.1-1.6,0-3.4-.9-4.3-1-.9-3-2.8-3.9-4.2-.8-1.3-1.5-1.6-2.1.8-.5,2.4,1.6,6.6,1.8,6.7.2,0,5,.9,5,.9h.1Z"/>
  <path class="cls-10" d="M109,10.1c-.2-.7-.3-1.3-.2-2-.1,0-.3-.2-.5-.2-.2-1.2-.9-.3-.2-1.2-.5.6-.6-.3-.8-.8,0,0-.7-.5-.8-1,0,0-.2-.2-.6-.1,0,0-.3-1-.3-.9-.1.1-.2.3-.5.5,0-.1,0-.5,0-.3-.2,0-.6-.6-.3-.9,0,.2-.2-.3-.1-.9h-.1c-.1.3-.2.5-.3.7,0,0,.1-.3.1-.5,0,0-.3.5,0-.3-.1.2-.3.2-.6.5v-.9c-.1.2-.2.2-.3.3,0-.2,0-.3.1-.6l-.2.2c0-.1.1-.6.2-.7,0,.2-.2.3-.3.5v-.6s-.1.2-.2.2,0-.6,0-.5c-.2.3-.3-.3-.3-.3v.2c-.2,0-.3-.5-.3-.3s0,.2-.2.3,0-.3-.1-.2-.2.1-.5.1-.2.2-.2.2c0,.2-.3.8-.5,1-.1.6-.2.6-.5,1.2,0-.2.3-.2.6-.3-.1.9-.3,1.3-.3,2,.1-.3,0-.2.3-.5,0,.8-.2,1.5,0,2.3.1-.2,0-.3.2-.5.1.6.2,1.4,0,2.1,0,0,0-.6.2-.7.2.5,0,.5,0,1,.1,0,.7,1.6.8,1.5,0,.5,0,.9.5,1,0,.1.1.7.2.8,0,0,.3-.7.5-.7.1.8.7.9,1.2.3.3.7,1.3,1.6,2.1,1.2.1.3.2.8.5,1.3.3-.1.7-.3,1-.6,0,.5.2.8.6.9,0-.9.6-3.5.9-4.4-.1.5,0,0-.5.2v.3Z"/>
  <path class="cls-7" d="M129.3,22.1c-.3-1.3-3.8-5.8-7.2-8-3.4-2.2-8-4.7-10.6-5.4-2.8-.7-7.5-1.5-8.4-1.5-1.7,0-6-1.7-9-.9-3,.9-10.2,3.4-11.1,3-.9-.5-9.1-3.5-11.9-2.9s-11,.7-19.3,9-10.6,14.5-12,19.8c-1.4,5.2-3.8,12.6-1.3,18.8,2.5,6.2-.2,12.6,6.4,14.6,2.5.8,4.4,1.5,6.4,1.7-.2-.5,0-1,.2-1.4v-.8c0-1.3,1.6-1.6,2.2-.6.2.3.5.7.6,1,1.8-.9,3.8-1.7,5.8-2.7.3-.2.8-.1,1,0,.2-.1.6-.3.8-.5,0-.2.2-.6.6-.7.9-.6,1.8-1.2,2.9-1.6,0-.1.2-.2.3-.3.7-.5,1.4-.8,2.1-1.2.3-.2.8-.6,1.2-.8s.6-.2.9-.2c.5-.2,1-.5,1.6-.6.2-.1.5-.2.7-.3.2-.1.6-.2.8-.1.2,0,.5-.1.7-.2,0,0,.2-.1.5-.2.3,0,.7-.1,1-.2,1.5-.3,3-.7,4.5-.9h.8c1.4-.2,2.7-.5,4-.7h0c1.7-.9,6.1-2.8,8.1-1.2,2.5-1.2,4.9-2.5,6.6-4.4,1.2-1.2,2.3-2.7,3.5-4-.3-.2-.6-.7-.5-1.3.6-2.2,3.2-4,5.4-5.2.6-.6,1.3-1,1.8-1.5.2-.1.5-.3.7-.5,0-.3.2-.6.6-.8,1-.6,2.2-1,3.4-1.4,1.8-.7,3.7-1,5.7-.8h0c2.8-.5,5.2-.7,6.8-1,2.8-.6,2.9-1.5,3.8-3.4.6-1,1.8-4.2,1.8-4.2.6-2.2-2.5-4.4-2.9-5.9v.3Z"/>
  <path class="cls-8" d="M93.7,53.2c.2.2.5.5.7.8-.6-.5-.9-1.3-1-2,.6.2,1.4.5,1.8.2-.1-.2-.2-.3-.3-.6.3,0,.8,0,1.2.2-.2-.8-1.8-2.1-2.8-2.2.5.7,2.4.3,3.2.3-1.2-.9-2.2-1.8-3.7-1.8.6.3,2.8.9,3.5.9-.6-.5-1.2-1-1.7-1.4.5.7,1.8,1,2.8,1.2-.6-.6-1.4-.8-2-1.4.7.7,1.6,1.2,2.5,1.3-.7-.6-1.4-1.2-2-1.8.7.6,1.4,1,2.2,1.5-.5-.5-.9-1-1.4-1.6.5.3.9.7,1.3,1-.9-.7-1.5-1.7-2.4-2.5,1.5,1.3,3.1,2.5,2.3,1.8.3-.2,1-1.2,1.7-.8,1,.6,2.8,1.4,3.5,1.5-.8-.2-1.6-.2-2.4-.3.9.7,2.8,1.3,3.9.8h-1.4c.9.7,2.2,0,3.1-.2-1.3.2-2.4.8-3.8.7.8,0,1.6-.2,2.4-.1-.8.3-2.2.8-3.2.9.3.1.6.3.9.5-.6,0-1.2.2-1.7.2.2.2.5.5.8.7-.3-.1-.7-.2-.9-.2.1.3.2.7.5.9-.3-.1-.8-.2-1,0,.1,0,.2.2.3.3h-.8c0,.1,0,.3.1.5-1.5,0-1.7.8-3.1,1.2,0,0,0,.2.1.3-.5.2-.1.5-.3.7-.3.2-.7.1-1.2.1,0,.2-.2.5-.2.6-.2-.2-.6-.2-.8-.5v.2c-.3-.1-.6-.5-.7-.8,0,0,0,.3.1.3-.5-.3-.6-.9-.2-.9,0,0,.2-.2,0-1l.2.5Z"/>
  <path class="cls-8" d="M98,18.9c0,.3-.3.8-.5,1.4.3.3-.1.9,0,1.4.3-.1.6-.2.9-.3-.2.5-.7.9-.9,1.4h.3c-.1.2,0,.5-.2.7,1.5.8.6.8.8,2.2h.6c.3.6.3,2.1,1.3,1.8-.2.5-.5.9-.2,1.3h.5c0,.7.6.9.9,1.4.2.3.7,0,1,.3s.7,1.4,1.2,1.2c0,.2-.8-1.7-.3-1.5s1,2,1.2,1.8c.3-.2-.1-1.7.1-1.5l.7,1.3c1.4,1.6.2-.7.7-.7s.7,1.3,1.2,1.8.1-1.3.3-1.4c0,.2.9,2.4,1.2,2.5s-.5-2-.2-1.7c.7.8,1.4,2.3,1.6,2.3,1.6-.1,2.3-1.7,3.8-2.5-.5.3-1.5-3.4-2-3.4.2-.7-1.6.9-2.2.7-1.3-.6-.9-.5-2-1.5-.7-.7-2.4.6-2.8-.1-.3-.9-1.2-.7-1.7-1.3-.5-.3-.2-.7-.6-1-.3-.3-1.2-.5-1.5-.8-.2-.2.1-.6,0-.9s-.5-.3-.7-.6c-.5-.6-.8-1.2-1.2-1.7-.6-.7-1.3-1.3-1.7-2.1h.5v-.5Z"/>
  <path class="cls-8" d="M93.8,29.7c-.2.3-.7.6-.9,1,.1.5-.6.8-.7,1.3.3,0,.7,0,1,.1-.5.3-1,.5-1.5.8.1,0,.2,0,.2.1-.2.1-.3.3-.5.6.9,1.4,0,1-.3,2.3.1,0,.3.2.5.2,0,.7-.7,2.1.3,2.2-.3.2-.8.6-.8,1,.1,0,.2.1.3.2-.2.6.1,1,.1,1.6s.6.3.8.8,0,1.6.6,1.5c0,.2,0-1.8.3-1.5s0,2.2.2,2.2c.3,0,.6-1.6.8-1.3v1.5c.5,2.1.6-.6.9-.3s0,1.5.2,2.2.7-1,.9-1c-.2.2-.2,2.5,0,2.8s.5-2,.6-1.7c.2,1,.1,2.8.5,2.8,1.5.6,2.9-.6,4.5-.6-.6,0,.2-3.7-.2-3.9.5-.6-1.8,0-2.2-.3-.9-1-.7-.8-1.2-2.2-.2-.9-2.4-.6-2.4-1.4s-.7-1.2-1-2c-.2-.6,0-.8,0-1.2s-.9-.9-.9-1.4.5-.5.5-.8-.2-.6-.3-.9c-.2-.7-.1-1.4-.2-2.1-.1-.9-.6-1.7-.6-2.7h.6-.1Z"/>
  <path class="cls-8" d="M99.7,19.7c-.2-.5-.3-1.7-.3-2.1,0-6.7-1.3-7.1-2.7-8.8-2.8-3.6-8.3-3.9-9.5-3.6s8.2,14.9,9.4,14.6c1.2-.3,3.2,0,3.2,0h-.1Z"/>
  <path class="cls-3" d="M100.4,21.2c-.6-1-1.5-2.5-1.7-3.5v2.3c0-.8-.1-1.7-.3-2.5,0,1,.2,2,.1,3,0-.9-.6-2.1-1-3,.3,1.3.8,2.4.9,3.7.1,1.2,0,2.5.3,3.6,0-1.2.1-2.3.3-3.4.5,1.8,1,3.4,2.3,4.9,0-.8-.5-2.1-.2-2.7,0,1.3.5,4.5,1.8,4.9v-2c.2.8.5,1.7,1.3,2,0-.6,0-1.2.5-1.6.2.7,0,1.7.7,2.3.2-.7.3-1.4.6-2.1.3.7.2,2,1,2.7,0-.5.3-.8.5-1.2,0,.8,0,1.5.6,2.2,0-.5.3-.7.5-1.2.2,1.3.6,2.9,1.3,3.9,0-1,0-2.1.2-3.1.2,1.5.7,2.9,1.8,3.9-.2-1.4-.8-2.9-1-4.4,1,.2,2,4,2.8,5.1-.5-1.8-2.1-3.9-1.8-5.9.8.8,1,2.5,2,3.5,0-1.7-.7-3.7-1.5-5.2.1.6.2,1.3.1,1.8,0-1.3,0-2.9-.5-4.2,0,1-.1,2.2-.6,3.1-.7-.8-.9-2-1.4-3,.6.8.1,1.8,0,2.8-.7-.7-.7-2.3-1.3-3.4v.7c-.3-.5-.6-1.2-.9-1.7,0,1-.2,1.8-.5,2.9-.2-.8-.1-1.5-.5-2.2-.2.7-.6,1.5-1,2-.3-.9-.6-1.8-.9-2.7-.1.2-.7.6-.8.8-.3-.6-.6-1.3-1-1.8-.2.5-.6.9-1,1.2-.2-.6-.5-1.2-.8-1.7-.1.1-.6.2-.7.3-.6-.8-.6-1.8-1-2.8-.2,0-.3,0-.6.1l1.3,1.3.3.2Z"/>
  <path class="cls-10" d="M97.4,19.3c.5-2.5-1.7-9-4.9-11s-3.5-3-5.3-3.1-3.2,1.4-2.3,3.6,1.8,2.9,2.2,4.5c.2,1.6,4,4.3,9,6.7.2.1,1.4-.6,1.4-.6h-.1Z"/>
  <path class="cls-10" d="M93.5,17.4c-.2-.7-.5-1.5-.3-2.2h-.7c-.2-1.2-.3-2,.5-2.8-.6.6-1,1.3-1.5,2v-.5.2-.3h0v-.3c.2-1,.7-2.2,1.2-2.8-.6.6-1,1.4-1.6,2.1-.1,0-.3.2-.5.3,0-.2,0-.5-.2-.6,0-.6.3-1.2.7-1.7-.3.5-.8,1-1.4,1.6v-.2s-.3.1-.5.2c0-.1-.1-.3-.1-.5h-.2c0-.5.2-.9.2-1.4-.2.2-.3.6-.7.7-.1-.5.1-1,.2-1.5,0,0-.2.1-.2.2v-.9c-.1.2-.3.6-.6.7,0-.6.2-1.2.5-1.6h-.1c-.1.3-.3.6-.5.8l.2-.5h0q0-.1-.1,0c0-.3.2-.7.2-1.2-.1.2-.3.5-.6.6,0-.5.2-.9.3-1.4-.2.1-.3.3-.6.5,0-.2,0-.5.2-.7h-.1v-.5c0,.2-.2.3-.5.5l-.2-.7c0-.1.1-.2.2-.3h0c-.1,0-.2.2-.3.5h0c-.1.1-.2.3-.3.6-.2.6-.3,1.2-.6,1.7,0-.2.2-.5.5-.6-.2.9-.9,2.2-.9,2.9.1-.3.5-.7.7-.9,0,.8-.6,1.6-.5,2.4.1-.2.5-.3.6-.6.1.6,0,1.3,0,1.8.1,0,.3-.2.5-.2.2.5.7,1.6.7,2.2.1,0,.3,0,.5-.1,0,.3.3.7.7.8,0,.1,0,.2.2.5,0,0,.2,0,.3-.1.1.8.7.9,1.3.3.5.7,1.4,1.6,2.3,1.2.2.3.3.8.5,1.3.3-.1.8-.3,1.2-.6,0,.5.2.8.6.9,0-.9-.2-1.8,0-2.8-.2.5-.5,1-.9,1.2v-.2ZM86.6,7.9v.2-.2h0ZM86.9,8.3c-.1.2-.3.5-.5.7v-.5c.1-.1.2-.2.5-.2Z"/>
  <path class="cls-3" d="M96.6,16.1c0,.7.3,1.5.7,2,0-.5,0-.7-.3-1.3.1.2.1.6.2.9-2-.8-3.2-1-5.3-1.6.6.3,1.2.6,1.8.7-.9-.5-2-.9-2.8-1.4,0,0,.1,0,.2.1-.6-.1-.9-.3-1.4-.6h.9c0-.2-.2-.5-.3-.6h.7c-.3-.5-.7-.9-1.2-1.3h.2c-.3-.3-.7-.9-.9-1.3h.3c-.2-.3-.5-1-.7-1.4h.6c-.5-.9-.2-1.7-.8-2.5h.5c-.1-.5-.3-1.2-.7-1.6h.6c-.1-.1-.3-.3-.3-.6.8.3,1.7.7,2.5,1v-.3c.6.3,1.8.9,2.4,1.5-.2-.1-.5-.3-.7-.5.6.6,1.7,1.2,2.2,1.7.6.7.6,1.5,1.3,2.2-.2-.2-.5-.5-.7-.7.2,1.5,1.8,2.8,2.3,4.4,0,0,0-.1-.2-.2.2.6.2,1.3.5,1.8h-.7l-.7-1.2-.2.6Z"/>
  <path class="cls-5" d="M97.7,19.6s.2.2-.8.3h-2c-.3,0-.6,0-.8-.1h-.3,1.2c.6,0,1.4-.2,1.8-.2,1-.1.9.1.9.1h0Z"/>
  <path class="cls-8" d="M113.7,38.1c-3.8,1.2-7.7,6.2-11.4,10.6-2-1.3-3-3.9-2.5-6.2.5-2.2,1.8-4.2,3.8-5.4,2.7-1.6,4.7-.9,7.6-1,2.5-.1,4.9-1.2,7.4-.7,1,.2,2.1.7,3.1,1-2.4.3-5.3.8-7.9,1.6h-.1Z"/>
  <path class="cls-8" d="M102.4,47c.9-.3,2-.7,2.9-.8,0-.2,0-.6-.1-.8,1.5-.5,2.7-.7,3.8,0-.8-.5-1.8-.9-2.8-1.4.2,0,.5-.1.7-.2h-.3.5-.2.6c1.4,0,3,.5,3.9.9-.9-.6-2-1-2.9-1.5-.1-.1-.3-.3-.6-.5.2-.1.6-.2.8-.3.8,0,1.6.2,2.3.5-.6-.3-1.5-.8-2.2-1.3,0,0,.2,0,.3-.1,0,0-.2-.3-.2-.5.2,0,.3-.2.7-.2v-.2c.7-.1,1.3,0,2,0-.3-.2-.8-.3-.9-.7.7-.2,1.4,0,2.1,0-.1,0-.2-.2-.3-.2.5-.2.8-.2,1.3,0-.3,0-.8-.3-1-.6.7-.2,1.5.1,2.2.2,0,0-.1,0-.2-.1-.3-.1-.7-.2-1-.5h.6c0,.1.1.2.2.2,0,0-.1,0-.2-.1.6,0,1,.1,1.5,0-.3-.1-.7-.3-.8-.6.6-.1,1.3,0,1.8.1-.2-.1-.5-.3-.7-.6h.9v-.2h.6c-.2,0-.5-.2-.7-.3l.9-.5c.2,0,.3.1.6.2h0l-.7-.3h0l-.7-.3c-.7-.1-1.5-.2-2.3-.5.3,0,.6.2.8.3-1.2,0-3.1-.7-3.9-.6.5,0,.9.3,1.3.7-1,.1-2.2-.3-3.2,0,.2.1.5.5.8.6-.8.3-1.7,0-2.5.3.1.1.2.3.5.5-.7.3-2.1,1-2.9,1.2.1.1.1.3.2.5-.6.2-.9.5-1.2.9-.2.1-.3.1-.6.3,0,.1.1.2.2.3-1,.3-1.2,1-.5,1.5-.9.6-2.1,2-1.4,2.8-.6.2-1,.5-1.6.8.2.3.6.9.8,1.3-.7,0-1.2.3-1.3.9,1.3-.2,2.5-.7,3.7-.5-.7-.1-1.4-.3-1.7-.9l.3.2ZM114.7,37.5h-.3.3ZM114.2,37.8c-.3-.1-.6-.2-.9-.3h.6c.2.1.3.2.3.5h0Z"/>
  <path class="cls-3" d="M46.2,67.3v1c0-.7.2-1.5.7-2.1.2.6.6,1.4,1.2,1.5,0-.2.1-.3.2-.6.2.2.5.7.7,1,.3-.7.2-2.8-.3-3.5-.1.8,1.5,2,2,2.7-.1-1.5-.2-2.8-1.3-3.9.1.7,1.3,2.7,1.7,3.2,0-.7,0-1.5-.2-2.3-.2.8.6,2.1,1,2.8,0-.8-.3-1.5-.3-2.3,0,.9.2,2,.9,2.7,0-.9-.1-1.7,0-2.7,0,.9.2,1.7.5,2.7,0-.7.1-1.4.2-2.1,0,.6,0,1.2.1,1.7-.1-1.2.1-2.3.1-3.5,0,2-.5,4.2,1,5.8-.3-.9-.7-1.8-.7-2.8,1,0,2.5,3.4,3,4.3-.3-.7-1-1.4-1.4-2,.1,1.2,1,2.9,2.1,3.4-.2-.3-.7-.8-1-1,.2,1.2,1.5,1.6,2.4,2.1-1-.8-2.3-1.2-3.1-2.2.6.6,1.3,1,1.8,1.6-.9-.3-2.1-1-2.9-1.7,0,.3.2.7.3,1-.5-.3-.9-.7-1.4-1v1c0-.3-.2-.6-.5-.9,0,.3-.3.6-.5.9-.1-.3-.5-.7-.8-.8v.5s-.6-.5-.7-.6c0,.1-.2.2-.2.5-1-1.2-1.8-.7-3-1.4,0,0,0,.2-.1.3-.5-.2-.5.2-.7.1-.3,0-.6-.5-.9-.7-.2.1-.5.1-.6.2,0-.3-.2-.6-.2-.9h-.1c-.1-.2,0-.7,0-.9v.3c-.1-.6.1-1,.3-.8,0,0,.3,0,.8-.7h-.2Z"/>
  <path class="cls-8" d="M66.5,64.6c0,.3.1.7.1,1-.2-.7,0-1.5.2-2.2.3.5.9,1.2,1.4,1.2v-.7c.3.2.6.5.8.8.2-.8-.5-2.8-1.2-3.2,0,.8,1.8,1.6,2.5,2.1-.5-1.4-.8-2.7-2.2-3.6.3.7,1.8,2.2,2.4,2.7-.2-.7-.5-1.5-.7-2.2,0,.8,1,2,1.7,2.4-.2-.8-.7-1.4-.9-2.2.2.9.7,1.8,1.5,2.4-.3-.8-.6-1.7-.6-2.5.2.9.6,1.6,1,2.4-.1-.7-.2-1.4-.2-2.1.1.6.3,1,.6,1.6-.3-1.2-.3-2.3-.6-3.4.5,1.8,1.3,3.8.9,2.9.5,0,1.5-.5,2,.3s1.6,2.7,2.1,3.1c-.6-.6-1.3-1-1.8-1.6.5,1,1.6,2.5,2.8,2.8-.3-.3-.8-.6-1.3-.7.5,1,1.8,1.2,2.8,1.5-1.2-.5-2.5-.6-3.6-1.4.7.5,1.5.7,2.2,1.2-.9-.1-2.3-.5-3.1-1,.2.3.3.6.6.9-.6-.2-1-.5-1.6-.7,0,.3.1.7.3,1-.1-.3-.5-.6-.7-.8,0,.3-.2.7-.2,1-.2-.3-.6-.6-.9-.6,0,.1,0,.3.1.5,0,0-.7-.2-.8-.3,0,.1,0,.3-.1.5-1.3-.8-2-.2-3.2-.7v.3c-.5,0-.5.3-.7.3-.3,0-.7-.2-1-.5-.1.1-.5.2-.6.3,0-.3-.3-.5-.5-.8,0,0,0,.1-.1.2-.2-.3-.2-.7-.1-1v.5c-.1-.5,0-1,.3-.9,0,0,.3,0,.6-.8h-.2Z"/>
  <path class="cls-3" d="M119,19.8c0,.3.1.7.1,1-.2-.7,0-1.5.2-2.2.3.5.9,1.2,1.4,1.2v-.7c.3.2.6.5.8.8.2-.8-.5-2.8-1.2-3.2,0,.8,1.8,1.6,2.5,2.1-.5-1.4-.8-2.7-2.2-3.6.3.7,1.8,2.2,2.4,2.7-.2-.7-.5-1.5-.7-2.2,0,.8,1,2,1.7,2.4-.2-.8-.7-1.4-.9-2.2.2.9.7,1.8,1.5,2.4-.3-.8-.6-1.7-.6-2.5.2.9.6,1.6,1,2.4-.1-.7-.2-1.4-.2-2.1.1.6.3,1,.6,1.6-.3-1.2-.3-2.3-.6-3.4.5,1.8.6,4.2,2.3,5.3-.6-.8-1-1.6-1.4-2.5,1-.1,3.2,2.7,3.9,3.5-.6-.6-1.3-1-1.8-1.6.5,1,1.6,2.5,2.8,2.8-.3-.3-.8-.6-1.3-.7.5,1,1.8,1.2,2.8,1.5-1.2-.5-2.5-.6-3.6-1.4.7.5,1.5.7,2.2,1.2-.9-.1-2.3-.5-3.1-1,.2.3.3.6.6.9-.6-.2-1-.5-1.6-.7,0,.3.1.7.3,1-.1-.3-.5-.6-.7-.8,0,.3-.2.7-.2,1-.2-.3-.6-.6-.9-.6,0,.1,0,.3.1.5,0,0-.7-.2-.8-.3,0,.1,0,.3-.1.5-1.3-.8-2-.2-3.2-.7v.3c-.5,0-.5.3-.7.3-.3,0-.7-.2-1-.5-.1.1-.5.2-.6.3,0-.3-.3-.5-.5-.8,0,0,0,.1-.1.2-.2-.3-.2-.7-.1-1v.5c-.1-.5,0-1,.3-.9,0,0,.3,0,.6-.8h-.1Z"/>
  <path class="cls-8" d="M66.9,56.5c3.1-.8,6-2.2,9.2-2.8,3.6-.7,6.7-2.2,10.1-.9,2.4.9,5,1.4,7.4,2,.7.1,1.3.2,2,.2-4.3,2.5-9.7,3.8-13.9,4.7-5.4,1.2-8.4,1.4-18,7.1-6,3.6-9.1,4.3-12.3,3.8h0c-4.5-5.8-1.4-15.5,6.4-15.7"/>
  <g>
    <path class="cls-1" d="M132.2,40.9c-.3-2.5-1.7-5.5-3.4-7.6"/>
    <path class="cls-1" d="M125.5,30.4c1.7,3.9,2.8,10.1,2.1,14.2"/>
    <path class="cls-1" d="M124.6,28.7c.3,2.5,0,5.4,0,8s-.3,4.4-.8,6.6c-.1.8-.3,1.6-.5,2.4,0,.3-.1.6,0,.2"/>
    <path class="cls-1" d="M122.4,29.7c-2.1,3.9-5.2,8.6-5.8,12.9"/>
    <path class="cls-1" d="M123.1,31.9c-1.2,3.5-2.3,7.2-3.5,10.5"/>
    <path class="cls-1" d="M122.9,27.6c-2.4,3.1-5.1,6.2-7.2,9.6-1.5,2.4-5.1,7.4-4.9,10.4"/>
    <path class="cls-1" d="M121.4,28c-4.5,4.2-9.5,9.1-12.1,14.8"/>
    <path class="cls-1" d="M121.7,26.8c-3.9,1.7-16.3,14.5-17.8,18.2"/>
    <path class="cls-1" d="M120.5,26.7c-1.8.3-8.6,2.4-10.3,6"/>
  </g>
  <path class="cls-10" d="M47,54.7c0-1.3,0-2.5.6-3.7-.3,0-.8-.2-1.2-.2.2-2,.5-3.2,2.2-4.3-1.2.7-2.3,1.6-3.5,2.4v-.9c0,.1-.1.2-.2.3,0-.2.1-.3.2-.6v.2c0-.2.2-.5.2-.7.8-1.5,2.3-3.1,3.4-4-1.4.7-2.4,1.6-3.7,2.4-.2,0-.7.2-.9.3v-1c.5-.9,1.2-1.7,2-2.4-.8.5-2,1.4-3,1.8v-.5h-.8v-.9h-.3c.1-.8.8-1.5,1.2-2.2-.5.3-.9.7-1.5.8,0-.9.7-1.5,1-2.3-.1,0-.3.1-.6.2,0-.6.1-1,.6-1.5-.3.3-.8.7-1.3.9.1-.9,1-1.7,1.5-2.4,0,0-.2,0-.3.2-.3.3-.8.6-1.2.9l.5-.6s.1,0,.2-.1c0,0-.2,0-.3.1.3-.6.7-1.2.9-1.7-.3.3-.8.6-1.3.7.1-.8.8-1.4,1.2-2.1-.3.2-.8.3-1.2.5,0-.5.3-.7.7-1h-.2c.1-.2.1-.5.5-.7-.2.2-.6.5-.9.6v-1.3l.6-.6h0c-.3,0-.6.2-.8.5h0c-.3.2-.6.5-.8.7-.6.8-1.2,1.6-1.8,2.4.3-.3.6-.6,1-.8-.8,1.3-2.7,3.1-2.9,4.2.3-.5,1-.9,1.6-1.2-.3,1.3-1.7,2.3-2,3.7.3-.2.9-.3,1.3-.6,0,1-.8,2-.8,3,.2,0,.6-.1.8-.2.2.9.3,2.9,0,3.9h.8c0,.7.1,1.4.7,1.7,0,.2,0,.5.1.8h.6c-.1,1.4.7,1.7,1.8,1.3.3,1.4,1.5,3.4,3.1,3,0,.7,0,1.5.1,2.2.7,0,1.5-.1,2.2-.2-.2.8,0,1.5.5,1.8.3-1.5.5-3.1,1.5-4.4-.6.7-1.3,1.5-2.2,1.5h.2ZM40.7,35.9s-.2.2-.2.3c0-.1.1-.2.2-.3h0ZM41,36.7c-.3.2-.7.6-1,.9,0-.2,0-.5.2-.7.2-.1.6-.2.8-.2Z"/>
  <path class="cls-10" d="M77.7,43.7c-1.4,1.5-2.2,2.9-4.4,3.8.9-4.3,9.1-7.1,9.8-11.7-1.3,3.6-3,6.9-6.4,9.7.2-.8.9-1.4,1.3-2.2,0,1.7-.9,4.2-3.4,4.9,0-1,0-2.2.1-3.2-.3,1.4-2,3.1-4,3.5,0-.9.6-1.7.7-2.7-.8,1.2-4,3.7-6,3.4.3-.7,1-1.4,1.7-1.6-.5,2-4.2,3.9-6.9,4.3.9-.7,2.1-1.3,2.9-2-.2,1.4-4.7,3.6-6.6,3.7,1.2-.7,2.4-1.5,3.1-2.4-2.8.8-4.6,2.3-5.5,4.3.8-1,1.5-2.1,1.4-3.4-.7,1.4-.8,2.8-1.5,4.2-.2-.8-.5-2.2-1.4-3v2.3c-.1-1.2-1.2-2.9-2.9-3.2-.1.7,0,1.4.5,2.1-.5-1.5-1.4-3.1-3.1-4.2-.1.8,0,1.7.5,2.5-1.4-2.3-3-4.6-3.8-7.2.1,1.2.7,2.2.3,3.2-1.6-1.7-2.4-4.3-3.2-6.2,0,1,.3,2.1.5,3.1-.6-2.1-1.2-4.2-1.6-6.2,0,1.4-.1,2.7-.2,4,0-2.1-.7-4.4.9-6.2-1.2.6-2.1,1.3-3.1,1.8-.2-2.8,1.7-5.7,3.8-7.9-.3,1.4-2.9,2.7-4.6,3,1-2.5,3.7-5.1,6.5-6.8-1.3.6-2.7,1-4.2,1.3,2.1-2.2,4.7-4.2,8.1-5.4-1.7.7-4,.9-6,.8,2.2-2.2,5.5-2.4,8.4-3.8-2.3.2-4.6.6-6.9.6,2-1.3,4.2-2.7,6.8-3.2h-2.7c1.5-.6,3.4-.7,4.6-1.4-.8,0-1.7-.2-2.5-.2,2-.5,3.8-1.3,5.8-1.7h-.9c1.6-.6,3.4-1.3,4.7-2-.6,0-1.4-.2-2.1-.2,3.9-1.2,9-3.5,13.2-3.8-.9,1-2.5,1.6-3.9,2.3,1.8-.2,3.7-.9,5.5-1.4-1.7,1.3-3.9,1.8-5.3,3.5,1.4-.1,2.7-.5,3.8-.9-1.5,1.3-5.1,1.7-6,3.5,1.6-.6,3.5-1.2,5.1-1.6-.9,1.2-2.8,2-3.8,3.1.7-.2,1.6-.3,2.2-.8-1.2,1.4-3.5,2-5.1,3.1.3,0,1.2-.1,1.5-.2-1.2,3.1-6.1,4.9-6,8.6.7-.7,1.4-1.5,1.6-2.3-.3,1.7-1.2,3.4-1.2,5.1,0-.7,0-1.4.6-2,0,1.8.2,4.5-.6,6.1,0-.1,0-.8,0-.7-.2,1.6.3,3.2.2,5-.2-.7-.5-1.5-.9-2.2-.3,1.4.7,2.8,1.4,4v-1.6c-.1.9.1,1.8.6,2.7,0-.2,0-.6.1-.9-.2,1.2.2,2.4.9,3.5.2-.7.6-1.4,1.2-2,0,.5.3.9.5,1.3.8-.7,1.4-1.5,2.2-2.1,0,.5.5.9.6,1.3.2-.5.7-.9.8-1.4,0,.3.2.6.2.9,1.2-.6,2.4-1.5,3.6-2.1v.3c1.4,0,2.1-1.2,3.4-1.5.2.7.5,1.5,1,2.1,1.2-.7,2.1-1.8,3-2.8,0,.2.3.5.5.7.7-.5,1.4-1,2.1-1.5.8.7,1.6,2,2,3,2-2.8,3.6-2.5,7.3-4l-10.8,8,.2-.5Z"/>
  <path class="cls-8" d="M44.8,66.1c-.7.8-1.8,1.2-2.3,2.1,1.7-.7,3-2.4,3.1-4.2-.5.5-.9,1-1.4,1.5.8-.7,1.4-1.7,1.5-2.8-.5.6-1,1-1.7,1.4.1-.2.3-.6.5-.8-.1.1-.3.3-.6.5,0-.2.2-.3.1-.5-.1,0-.6.3-.7.3v-.3c0-.2,0-.8.1-1.3-.5.5-.9.7-1.5.9.5-.7.8-1.5.7-2.4-.6.1-1,.3-1.5.7,1.3-1.3,2.1-3,3-4.5-1.2.7-2.2,1.7-3.1,2.8.3-.2.6-.6.8-1-.3.2-1.2,1-1.3,1.8.1-.7,0-1.6-.2-2.4-.6.5-.8,1-1,1.7.2-1.5.7-3.7.3-5.1-.6.9-1,2-1.4,3,.5-.9.7-2.3.7-3.4-.6.8-1,2.1-1.5,3,.3,1.2.2,2.7.5,3.9.3-.5.5-1,.5-1.6-.3.8,0,2.1.6,2.8.1-.3.2-.7.2-1-.5.6,0,1.7.1,2.4.5-.5.9-1,1-1.6-.5.7-.8,1.8-.5,2.5.1-.2.3-.3.5-.6-.1.9-.2,1.8-.1,2.8.3-.3.8-.7,1.2-1-.5.7-.9,1.6-1.2,2.3.5-.2.9-.3,1.3-.6-.3.5-.8.8-1.3,1.3.6-.2,1.2-.5,1.8-.6-.5.3-1,.7-1.5.8.7-.3,1.5-.7,2.3-1l1.5-1.7h.5Z"/>
  <path class="cls-8" d="M40.7,55.2c-.9.5-2.1.5-2.9,1.2,1.8-.1,3.6-1.3,4.4-2.9-.6.3-1.2.7-1.8.9.9-.3,2-1.2,2.4-2.1-.7.3-1.4.7-2.1.7.2-.2.5-.5.7-.6-.1,0-.5.1-.7.2,0-.1.3-.2.2-.5h-.8s0-.3.2-.2c0-.2.3-.7.6-1.2-.6.2-1.2.3-1.7.3.7-.5,1.3-1.2,1.5-2.1-.6,0-1.2,0-1.6.1,1.6-.8,2.9-2.2,4.4-3.2-1.3.2-2.7.9-3.9,1.5.3,0,.7-.3,1.2-.7-.3.1-1.5.6-1.7,1.3.3-.6.5-1.6.6-2.3-.7.2-1.2.7-1.5,1.3.7-1.4,2-3.2,2-4.7-.8.7-1.6,1.5-2.3,2.4.7-.7,1.5-2,1.8-2.9-.8.6-1.7,1.6-2.4,2.3,0,1.3-.7,2.5-.8,3.8.5-.3.8-.8.9-1.4-.6.7-.7,2-.3,2.8.2-.3.5-.6.6-.9-.7.5-.7,1.6-.7,2.4.6-.2,1.3-.7,1.6-1.2-.6.5-1.4,1.5-1.3,2.3.2-.1.5-.2.7-.3-.5.8-.8,1.7-1,2.5.5-.2.9-.3,1.4-.6-.7.5-1.4,1.2-1.8,1.8.5-.1,1,0,1.4,0-.5.2-1,.5-1.6.7h1.8c-.6.1-1.2.2-1.7.2.8-.1,1.6,0,2.5-.2l2.1-1h-.1Z"/>
  <path class="cls-10" d="M82.9,58.3c.6.9.6,2.1,1.3,2.8-.2-1.8-1.5-3.6-3.1-4.3.3.6.8,1.2,1,1.8-.5-.9-1.3-1.8-2.2-2.3.3.7.7,1.3.8,2.1l-.7-.7c0,.1.2.5.3.7-.1,0-.2-.3-.5-.2,0,.2.1.6.1.8,0,0-.3,0-.2-.2-.2,0-.8-.2-1.2-.5.2.5.5,1,.5,1.6-.5-.7-1.3-1.2-2.1-1.4,0,.6,0,1.2.2,1.6-.9-1.6-2.3-2.8-3.5-4.2.3,1.3,1,2.7,1.7,3.8-.1-.3-.3-.7-.8-1,.1.3.7,1.5,1.4,1.7-.6-.3-1.6-.3-2.3-.5.2.6.8,1,1.4,1.5-1.4-.7-3.4-1.7-4.9-1.7.8.8,1.6,1.6,2.5,2.2-.8-.7-2.1-1.4-3-1.7.6.8,1.6,1.6,2.4,2.3,1.3,0,2.7.6,3.9.6-.3-.5-.9-.8-1.5-.9.7.6,2,.6,2.8.2-.3-.2-.6-.5-.9-.6.5.7,1.7.6,2.4.6-.3-.6-.8-1.2-1.3-1.5.5.6,1.6,1.4,2.3,1.2-.1-.2-.2-.5-.3-.7.8.3,1.7.7,2.7.9-.2-.5-.5-.9-.7-1.4.6.7,1.3,1.4,2,1.7-.1-.5,0-1-.1-1.4.3.5.6,1,.8,1.6v-1.8c.2.5.3,1.2.3,1.7-.2-.8-.2-1.6-.3-2.4l-1.2-2h-.2Z"/>
  <path class="cls-10" d="M84.4,58.2c.2.2.5.6.7.9-.6-.5-.9-1.4-.9-2.1.6.3,1.4.6,2,.3-.1-.2-.1-.5-.3-.6.5,0,.8.1,1.3.3-.2-.8-1.7-2.3-2.7-2.4.5.8,2.5.5,3.5.7-1.2-1-2.2-2.1-3.8-2.2.6.5,2.9,1.2,3.6,1.3-.6-.6-1.2-1.2-1.7-1.6.5.8,2,1.3,2.8,1.4-.6-.6-1.4-.9-2-1.5.7.7,1.6,1.4,2.5,1.5-.7-.6-1.4-1.3-1.8-2.1.7.7,1.4,1.2,2.2,1.7-.5-.6-.9-1.3-1.3-1.8.5.5.9.8,1.3,1.3-.9-.8-1.5-1.8-2.3-2.8,1.4,1.5,2.7,3.5,4.9,3.8-.9-.5-1.8-.9-2.5-1.6.8-.7,4.3.9,5.4,1.2-.8-.2-1.7-.3-2.5-.6.9.7,2.9,1.5,4,1.2-.5,0-1-.1-1.5,0,.9.7,2.3.2,3.4,0-1.4.1-2.7.7-4,.5.8,0,1.7-.1,2.7,0-.9.3-2.4.7-3.5.7.3.2.6.3.9.6-.6,0-1.3.2-1.8.2.2.2.5.6.8.8-.3-.2-.7-.2-1-.3.1.3.2.7.3,1-.3-.2-.8-.2-1.2,0,.1,0,.2.2.3.3h-.9c0,.1,0,.3.1.5-1.6-.1-2,.7-3.4,1v.3c-.5.1-.2.5-.5.7-.3.2-.8,0-1.3,0,0,.2-.2.5-.3.6-.2-.2-.6-.3-.8-.6v.2c-.3-.2-.6-.6-.7-.9,0,0,0,.3.1.5-.5-.3-.6-1-.2-1,0,0,.2-.2,0-1l.3-.3Z"/>
  <path class="cls-10" d="M76.1,53.8c.1.3.2.7.3,1-.3-.7-.3-1.6-.1-2.3.5.5,1.2,1,1.6,1v-.7c.3.1.7.5,1,.7,0-.8-2.7-3.7-1.7-3.2.1.9,2.2,1.3,3,1.7-.8-1.4-1.3-2.7-2.9-3.4.5.7,2.3,2.1,3,2.4-.3-.7-.7-1.5-1-2.2.1.9,1.4,1.8,2.2,2.2-.3-.8-.9-1.4-1.3-2.1.3.9,1,1.8,2,2.3-.5-.8-.9-1.6-1-2.5.3.9.9,1.6,1.5,2.4-.2-.7-.5-1.5-.6-2.2.2.6.6,1,.8,1.6-.6-1-.8-2.3-1.3-3.5.8,1.8,1.3,4.2,3.2,5.2-.7-.7-1.4-1.5-1.8-2.4,1-.3,3.8,2.3,4.6,3-.7-.6-1.5-.9-2.2-1.4.6,1,2.2,2.4,3.4,2.4-.5-.2-.9-.5-1.4-.6.7,1,2.1.9,3.1,1-1.3-.3-2.8-.2-3.9-.9.8.3,1.7.5,2.4.9-1,0-2.4-.1-3.5-.5.2.2.5.6.7.8-.6-.1-1.2-.2-1.7-.5.1.3.2.7.5,1-.2-.3-.6-.5-.8-.7v1c-.3-.3-.7-.6-1-.5,0,.1.1.3.2.5,0,0-.7-.2-.8-.2v.6c-1.4-.7-2.1,0-3.5-.1v.3c-.5,0-.3.3-.6.5-.3,0-.8-.2-1.2-.3-.1.2-.5.3-.5.5-.1-.3-.5-.5-.6-.8v.2c-.2-.3-.3-.7-.3-1v.5c-.2-.5-.1-1.2.1-1,0,0,.3-.1.5-.9h-.5Z"/>
  <path class="cls-18" d="M69.2,54.2c.1.3.7.7.7,1-.3-.7-.9-1.7-.7-2.4.5.5,1.7,1.2,2.2,1.2,0-.2-1-1-1.2-1.3.3.1,1.8,1,2.1,1.3,0-.8-3.2-4.2-1.7-3.2.1.9,2.2,1.3,3,1.7-.8-1.4-3.6-3-2.9-3.4.5.7,2.3,2.1,3,2.4-.3-.7-.7-1.5-1-2.2.1.9,1.4,1.8,2.2,2.2-.3-.8-.9-1.4-1.3-2.1.3.9,1,1.8,2,2.3-.5-.8-.9-1.6-1-2.5.3.9.9,1.6,1.5,2.4-.2-.7-.5-1.5-.6-2.2.2.6.6,1,.8,1.6-.6-1-.8-2.3-1.3-3.5.8,1.8,1.3,4.2,3.2,5.2-.7-.7-1.4-1.5-1.8-2.4,1-.3,3.8,2.3,4.6,3-.7-.6-1.5-.9-2.2-1.4.6,1,2.2,2.4,3.4,2.4-.5-.2-.9-.5-1.4-.6.7,1,2.1.9,3.1,1-1.3-.3-2.8-.2-3.9-.9.8.3,1.7.5,2.4.9-1,0-2.4-.1-3.5-.5.2.2.5.6.7.8-.6-.1-1.2-.2-1.7-.5.1.3.2.7.5,1-.2-.3-.6-.5-.8-.7v1c-.3-.3-.7-.6-1-.5,0,.1.1.3.2.5,0,0-.7-.2-.8-.2v.6c-1.4-.7-2.1,0-3.5-.1v.3c-.5,0-.3.3-.6.5-.3,0-.8-.2-1.2-.3-.1.2-.5.3-.5.5-.1-.3-.5-.5-.6-.8v.2c-.2-.3-.3-.7-.3-1,0,0-3.1-.8-3.1-.7-.2-.5,1.3,1.3,2.7.1,0,0,.5,0,.6-.9h-.2Z"/>
  <path class="cls-18" d="M55.7,56.7c.1.3.2.7.3,1-.3-.7-.3-1.6-.1-2.3.5.5,1.2,1,1.6,1v-.7c.3.1.7.5,1,.7,0-.8-.9-2.8-1.7-3.2.1.9,2.2,1.3,3,1.7-.8-1.4-1.3-2.7-2.9-3.4.5.7,2.3,2.1,3,2.4-.3-.7-.7-1.5-1-2.2.1.9,1.4,1.8,2.2,2.2-.3-.8-.9-1.4-1.3-2.1.3.9,1,1.8,2,2.3-.5-.8-.9-1.6-1-2.5.3.9.9,1.6,1.5,2.4-.2-.7-.5-1.5-.6-2.2.2.6.6,1,.8,1.6-.6-1-.8-2.3-1.3-3.5.5,1.2,1,3.6,2.1,4.7s-.1-1.8,0-1.5c.5.9,2.2,2,2.7,2.2-.7-.7-1.6-1.6-2.1-2.4.3-.1.9.3,1.6.6,1.2.3,2.7.6,3.2,1-.7-.6-3.1-.1-3.8-.6,2.2,1.8,5.4,1.6,4.2,1.7.7,1,0,1.7,1,1.8-1.3-.3-2.8-.2-3.9-.9.8.3,1.7.5,2.4.9-1,0-2.4-.1-3.5-.5.2.2.5.6.7.8-.6-.1-1.2-.2-1.7-.5.1.3.2.7.5,1-.2-.3-.6-.5-.8-.7v1c-.3-.3-.7-.6-1-.5,0,.1.1.3.2.5,0,0-.7-.2-.8-.2v.6c-1.4-.7-2.1,0-3.5-.1v.3c-.5,0-.3.3-.6.5-.3,0-.8-.2-1.2-.3-.1.2-.5.3-.5.5-.1-.3-.5-.5-.6-.8v.2c-.2-.3-.3-.7-.3-1v.5c-.2-.5-.1-1.2.1-1,0,0,.3-.1.5-.9l-.5-.3Z"/>
  <path class="cls-8" d="M48.7,62.4c.3.1.7.3.9.6-.7-.2-1.3-1-1.5-1.7.6,0,1.5,0,2-.2-.2-.1-.3-.3-.5-.5.3,0,.8-.1,1.3,0-.5-.7-2.4-1.6-3.4-1.4.7.6,2.5-.3,3.5-.5-1.5-.6-2.7-1.3-4.3-.8.7.2,3,.1,3.8,0-.7-.3-1.5-.7-2.2-.9.7.6,2.2.6,3.1.3-.7-.3-1.6-.5-2.3-.8.9.5,2,.7,2.9.6-.9-.3-1.7-.8-2.4-1.4.8.5,1.7.7,2.7.9-.7-.3-1.3-.8-1.8-1.3.6.2,1,.5,1.6.7-1.2-.5-2.1-1.3-3.1-1.8,1.8.9,3.6,2.4,5.8,2-1,0-2-.3-2.9-.7.6-.9,4.4-.6,5.5-.6-.8,0-1.7.2-2.5.3,1.2.5,3.2.5,4.2-.2-.5,0-1,.2-1.5.5,1.2.3,2.2-.6,3.1-1.2-1.3.6-2.3,1.5-3.6,1.8.8-.2,1.6-.7,2.4-.8-.7.7-2.1,1.4-3,1.7.3,0,.7.1,1,.2-.6.2-1,.6-1.6.8.3.1.7.3,1,.5h-1c.2.2.5.6.7.8-.5,0-.9,0-1.2.3.1,0,.3.1.5.2,0,0-.7.3-.8.3,0,.1.2.3.3.5-1.5.3-1.6,1.3-2.8,2.1,0,0,.1.2.2.2-.5.3,0,.6-.2.8-.2.3-.7.3-1.2.5,0,.2-.1.5,0,.7-.3-.1-.7,0-.9-.2v.2c-.3,0-.8-.3-.9-.6,0,0,.2.2.2.3-.5-.2-.8-.8-.6-.9,0,0,.2-.3-.2-1l-.3-.5Z"/>
  <path class="cls-10" d="M69.1,65c-.1-.3-.2-.7-.2-1,.2.7.2,1.6,0,2.3-.3-.5-1-1.2-1.6-1.2v.7c-.3-.2-.7-.5-.9-.8-.1.8.6,2.9,1.4,3.4,0-.9-2.1-1.5-2.8-2.1.6,1.5,1,2.8,2.5,3.6-.3-.7-2.1-2.2-2.8-2.7.2.8.6,1.5.9,2.2,0-.9-1.2-2-2-2.4.2.8.8,1.4,1,2.2-.3-.9-.9-1.8-1.7-2.4.3.9.7,1.7.8,2.7-.3-.9-.8-1.7-1.3-2.5.2.7.3,1.5.3,2.2-.2-.6-.5-1.2-.7-1.6.5,1.2.6,2.3.9,3.6-.7-2-.8-4.3-2.8-5.5.7.8,1.3,1.6,1.6,2.5-1,.2-3.6-2.7-4.4-3.4.6.6,1.4,1,2.1,1.6-.5-1-2-2.5-3.1-2.8.3.3.9.6,1.4.7-.6-1-2-1.2-3-1.4,1.3.5,2.7.5,3.8,1.3-.7-.5-1.6-.6-2.3-1.2,1,0,2.4.3,3.4.8-.2-.3-.3-.6-.6-.9.6.2,1.2.3,1.7.6-.1-.3-.2-.7-.3-1,.2.3.5.6.8.7,0-.3.1-.7.1-1,.2.3.7.6,1,.6,0-.1,0-.3-.1-.5,0,0,.7.2.8.3v-.5c1.4.8,2.1.1,3.5.5v-.3c.5,0,.5-.3.7-.3.3,0,.8.2,1.2.5.1-.2.5-.2.6-.5.1.3.3.5.5.8,0,0,0-.1.1-.2.2.3.3.8.2,1v-.5c.2.6,0,1.2-.2,1,0,0-.3,0-.6.9h0Z"/>
  <path class="cls-8" d="M64.1,69.6v-.8c.1.6,0,1.3-.5,1.8-.2-.5-.8-.9-1.4-.9v.6c-.3-.1-.6-.5-.8-.7-.2.7.1,2.3.8,2.7,0-.7-1.7-1.3-2.4-1.7.3,1.2.6,2.2,1.8,2.9-.2-.6-1.6-1.8-2.2-2.2,0,.6.2,1.3.5,1.8,0-.7-.8-1.6-1.5-2,0,.7.6,1.2.7,1.7-.1-.8-.6-1.5-1.3-2,.2.7.5,1.4.3,2.2-.1-.7-.5-1.4-.8-2v1.7c-.1-.5-.2-.9-.3-1.4.3.9.1,1.8.3,2.8-.3-1.6-.1-3.5-1.8-4.4.5.6.9,1.3,1.2,2.1-1,.1-3-2.2-3.7-2.8.5.5,1.2.8,1.7,1.3-.3-.8-1.5-2.1-2.7-2.3.3.2.8.5,1.2.6-.3-.8-1.7-.9-2.8-1.2,1.2.3,2.5.5,3.6,1-.6-.3-1.5-.6-2.1-.9.9,0,2.3.3,3.1.7-.1-.2-.3-.5-.5-.7.6.1,1,.3,1.6.6,0-.2,0-.6-.2-.8.1.2.3.5.6.6,0-.2.2-.6.3-.8.2.2.6.5.9.5v-.3s.6.2.7.3c0-.1.1-.2.2-.5,1.2.7,2,.2,3.2.5v-.2c.5,0,.5-.2.7-.3.3,0,.7.2,1,.3.1-.1.5-.2.6-.3,0,.2.3.5.3.7h.1c.1.1.2.5,0,.7,0,0,0-.2.1-.3.1.5-.1.9-.5.8,0,0-.3,0-.7.7h.3Z"/>
  <path class="cls-10" d="M58.3,39.7c.5-1.2,1-2.3,1.8-3.2-.3-.1-.6-.6-.9-.7.9-1.7,1.7-2.9,3.7-3.1-1.4.2-2.8.6-4,.9.1-.2.2-.6.5-.8,0,0-.2.1-.3.2l.5-.5s0,.1-.1.2c.2-.1.3-.3.5-.6,1.4-1.2,3.2-2,4.6-2.4-1.5,0-2.9.6-4.4.9h-.9c0-.3.3-.7.5-.9.8-.7,1.7-1.2,2.8-1.5-.9.1-2.3.5-3.5.6,0-.1,0-.3.1-.5-.2,0-.6-.2-.7-.2.1-.2.1-.6.3-.8,0,0-.2,0-.2-.2.5-.7,1.3-1,1.8-1.6-.6.1-1.2.3-1.6.1.3-.8,1.3-1.2,1.8-1.7h-.6c.2-.5.6-.9,1.2-1.2-.5.2-1,.3-1.5.3.5-.8,1.6-1.2,2.3-1.7h-.3c-.5.1-.9.3-1.4.5l.7-.3h.2-.3c.5-.5,1-.7,1.5-1.3-.5.1-.9.2-1.5.1.5-.7,1.3-.9,1.8-1.4h-1.3c.2-.3.6-.6,1-.7,0,0-.1,0-.2-.1.2-.1.3-.3.7-.5-.3,0-.7.2-1.2.2l.5-1.2c.2,0,.5-.1.7-.2h-1c-.3,0-.7.2-1,.3-.8.5-1.7,1-2.7,1.5.3-.1.8-.3,1.2-.3-1.2.9-3.6,1.8-4.3,2.8.6-.2,1.3-.5,2-.5-.8,1-2.4,1.5-3.1,2.7h1.4c-.5,1-1.5,1.5-1.8,2.5h.8c-.1.9-.8,2.9-1.4,3.6.2,0,.6.2.8.2-.3.6-.3,1.3,0,1.8,0,.2-.1.5-.1.8.2,0,.3,0,.6.1-.6,1.2,0,2,1.3,1.8-.2,1.4.1,3.7,1.7,3.9-.2.7-.5,1.4-.7,2.1.7.2,1.5.5,2.1.6-.5.7-.6,1.4-.2,2,.9-1.3,1.6-2.8,3-3.6-.8.5-1.7.8-2.5.6l-.3.2ZM59.6,19.9c-.1,0-.2.1-.3.2,0,0,.2-.1.3-.2h0ZM59.5,20.7c-.5.1-.9.2-1.3.5.1-.2.2-.3.5-.6h.8,0Z"/>
  <path class="cls-14" d="M86,39.2"/>
  <path class="cls-10" d="M66.9,60.4c-1,.1-2.1.2-3,0v.8c-1.6,0-2.7,0-3.7-1,.7.7,1.5,1.4,2.3,2.1h-.7s.2,0,.2.1c-.1,0-.3,0-.5-.1h.2-.6c-1.3-.5-2.8-1.3-3.6-1.8.7.8,1.6,1.5,2.4,2.2,0,.1.2.3.5.6h-.8c-.8-.2-1.5-.7-2.2-1,.5.5,1.3,1.2,1.8,1.8h-.3s0,.3.1.5c-.2,0-.5.1-.7,0v.2c-.7,0-1.3-.3-1.8-.6.3.2.7.6.8.9-.7,0-1.3-.3-2-.6,0,0,.1.2.2.3-.5,0-.9,0-1.3-.2.3.2.7.5.9.8-.8,0-1.5-.6-2.1-.8,0,0,.1.1.2.2.3.2.6.5.9.7l-.6-.2h-.1c0-.1,0,0,.1.1-.5-.1-.9-.3-1.5-.5.2.2.6.5.7.8-.6,0-1.2-.5-1.7-.6.2.2.3.5.5.7-.3,0-.6-.1-.9-.3v.2c-.2,0-.5,0-.6-.2.2.1.5.3.6.6h-1c-.1,0-.3,0-.5-.2h0c.2.2.3.3.6.6h0c.2.2.5.3.7.5.7.3,1.4.7,2.1,1-.2-.1-.6-.3-.7-.6,1.2.3,2.8,1.5,3.7,1.5-.5-.2-.8-.6-1-.9,1,.1,2,.9,3.1.9-.2-.2-.3-.6-.6-.8.9,0,1.6.3,2.5.2,0-.1-.1-.3-.2-.6.7-.2,2.3-.5,3.1-.3,0-.1,0-.3-.1-.6.6,0,1-.2,1.3-.6.2,0,.3,0,.6-.1v-.3c1,0,1.4-.7.8-1.4,1-.3,2.5-1.3,2.1-2.3.6-.1,1.2-.2,1.7-.3-.1-.5-.3-1-.5-1.4.7,0,1.2,0,1.5-.5-1.3,0-2.5,0-3.7-.6.6.3,1.3.7,1.4,1.3h-.8ZM52.4,66.3s.2,0,.3.1c0,0-.2,0-.3-.1h0ZM53.1,66c.2.2.6.5.8.6h-.6c-.1-.1-.2-.3-.2-.6Z"/>
  <path class="cls-10" d="M73.6,62.2c1-.1,2.1-.2,3,0v-.8c1.6,0,2.7,0,3.7,1-.7-.7-1.6-1.4-2.3-2.1h.7s-.2,0-.2-.1h.5-.2.6c1.3.5,2.8,1.2,3.6,1.8-.7-.8-1.6-1.5-2.4-2.2,0-.1-.2-.3-.5-.6h.8c.8.2,1.5.6,2.2,1-.5-.5-1.3-1.2-1.8-1.8h.3s0-.3-.1-.5c.2,0,.5-.1.7,0v-.2c.7,0,1.3.3,1.8.5-.3-.2-.7-.6-.8-.9.7,0,1.3.3,2,.5,0,0-.1-.2-.2-.3.5,0,.9,0,1.3.2-.3-.2-.7-.5-.9-.8.8,0,1.5.5,2.1.7l-.2-.2c-.3-.2-.6-.5-.9-.7l.6.2h.1c0,.1-.1,0-.1-.1.5.1.9.3,1.5.5-.2-.2-.6-.5-.7-.8.6,0,1.2.3,1.7.6-.2-.2-.3-.5-.5-.7.3,0,.6.1.9.3v-.2c.2,0,.5,0,.6.2-.2-.1-.5-.3-.6-.6h1c.1,0,.3,0,.5.1h0l-.6-.6h0c-.2-.2-.5-.3-.7-.5-.7-.3-1.4-.7-2.2-.9.2.1.6.3.7.6-1.2-.3-2.8-1.4-3.7-1.5.5.2.8.6,1.2.9-1-.1-2-.9-3.1-.9.2.2.3.6.6.8-.9,0-1.6-.3-2.5-.2,0,.1.2.3.3.6-.7.2-2.3.5-3.1.5,0,.1,0,.3.1.6-.6,0-1,.2-1.3.7-.2,0-.3,0-.6.2,0,.1.1.2.1.3-1,0-1.4.7-.8,1.4-1,.3-2.4,1.4-2,2.4-.6.1-1.2.2-1.7.3.1.5.3,1,.5,1.4-.7,0-1.2,0-1.4.6,1.3,0,2.5,0,3.7.6-.6-.3-1.3-.7-1.4-1.3h.3ZM87.9,56.2s-.2,0-.3-.1c0,0,.2,0,.3.1h0ZM87.2,56.3c-.2-.2-.6-.5-.8-.6h.6c.1.1.2.3.2.6Z"/>
  <g>
    <path class="cls-15" d="M112.2,16.6s-.5-1.8-2.2-2.2-3.1.3-3.4,1.7.7,2.1,1.5,2.3c1.8.6,3,.5,3.4,0s.6-2,.6-2h.1Z"/>
    <path class="cls-9" d="M110.3,18.9s1.6-.8,1.6-1.6c0-1.5-.7-2.1-.7-2.1,0,0,1.3,1.3,1.4,2,0,.8,0,1.4-1.4,1.7s-1,0-1,0h.1Z"/>
    <circle class="cls-17" cx="110.3" cy="16" r=".7"/>
  </g>
  <path class="cls-14" d="M132,28.7s.2-.8-.2-.7-3.1.7-3.6,1.4-.3,2,0,2.3,1.2.6,1.4.6.5,0,.7-.2c.5-.5,1.6-3.4,1.6-3.4h.1Z"/>
  <path class="cls-15" d="M127.7,30.1c.1-1,2.1-1.5,4-1.8h.3s.2,1.2-.6,2.4c-.7,1.3-1,1.3-1.4,1.3-2,0-2.5-.6-2.4-1.7h0Z"/>
  <path class="cls-6" d="M131,29s-2,.3-2.2.8-.3,1.2,0,1.2.7,0,.6-.1,0-.8.1-.9,1.5-.9,1.5-.9Z"/>
  <path class="cls-8" d="M92.2,18.1c-.3-.9-2-.6-2.7-1.2.1.5.9.7,1.4.8-.2,0-.6-.2-.9-.2.5.6,1.4.6,2,.9h0c.5.3,1.3.5,1.5,1-.1-.2-.2-.5-.5-.7.1.3.3.7.6.9,0,0-.1-.1-.2-.2.1.2.3,1,.7.9,0-.1-.2-.2-.3-.3,0,.3.5.8.9.9-.2-.1-.5-.3-.7-.3.2.7,1.5,1.5,2.1,1.8-.3,0-.7-.2-.9-.5.1.5.6.8.9,1-.2-.1-.6-.2-.8-.1.2.5.7.8,1.2,1.2-.2-.1-.5-.2-.7-.2.2.5.7,1,1.2,1.3-.2-.5-.6-1-.7-1.6.2,0,.5.2.7.3,0-.5-.5-1.2-.7-1.6h.5c-.1-.2-.3-.5-.3-.8.1,0,.3.2.6.2,0-.3-.2-.7-.3-1h.5c0-.5-.3-.8-.5-1.3.3.2.7.2.6-.3h.5c0-.3-.3-.5-.7-.3v.2c-.5-.1-1.2-.3-1.5-.3,0,.2.2.5.2.7,0,0-.2,0-.5-.1h0c-.3,0-.6-.5-.9-.6.1.3.2.7.5.9-.3-.6-.8-1.3-1.5-1.5.1.3.3.7.6.9-.3-.6-1.7-1.3-2.4-1.3,0,.2.2.3.5.3-.5-.5-1.3-.7-1.7-1.3l2.2.8v.6Z"/>
  <path class="cls-12" d="M22.8,66c2.8.3,6.8,2.5,11,2.8s10.9-1.5,11.7-.7c2.3,2.3,10.8,1.2,13.6.2s2.9-1.4,8-.9c5.1.5,3.7,1.7,8.3,2s4,.1,8.1,0,5.4,1.7,11.4,1.7,16.5-2.4,14.9-.9c-2.8,2.5-24,5.4-29.8,4.7-11.4-1.6-19.3-.8-26.4-.6s-19.7-1.5-21.2-3.6-14.9-5.3-9.6-4.6h-.1Z"/>
  <path class="cls-12" d="M112.4,67.9s3.6.8.8,2.5c-2.8,1.7-9,3.7-10.8,3.8s-3.1,1.3-1,1.2,9.6-1.7,10.8-2.2,6-1.7,4.9-3.2-4.5-2.1-4.5-2.1h-.1Z"/>
  <path class="cls-12" d="M20.6,61.8s-6.1.9-4.4,3,10.1,5.3,8.9,5.7-4.5-.7-6.4-1.5-7.5-3.5-6.5-5.3,8.3-1.8,8.3-1.8Z"/>
</svg>