<?xml version="1.0" encoding="UTF-8"?>
<svg xmlns="http://www.w3.org/2000/svg" version="1.1" viewBox="0 0 291.6 96.7">
  <defs>
    <style>
      .cls-1 {
        fill: #cf9f5d;
      }

      .cls-1, .cls-2, .cls-3, .cls-4, .cls-5, .cls-6, .cls-7, .cls-8, .cls-9, .cls-10, .cls-11, .cls-12, .cls-13, .cls-14, .cls-15 {
        stroke-width: 0px;
      }

      .cls-2 {
        fill: #6d574f;
      }

      .cls-3 {
        mix-blend-mode: multiply;
      }

      .cls-3, .cls-16 {
        isolation: isolate;
      }

      .cls-3, .cls-14 {
        fill: #d6c9c3;
      }

      .cls-4 {
        fill: #d8b182;
      }

      .cls-5 {
        fill: #ac8f80;
      }

      .cls-6 {
        fill: #b78d5a;
      }

      .cls-7 {
        fill: #f2f2f2;
      }

      .cls-8 {
        fill: #44352e;
      }

      .cls-9 {
        fill: #866f62;
      }

      .cls-10 {
        fill: #95754a;
      }

      .cls-11 {
        fill: #67524a;
      }

      .cls-12 {
        fill: #fde9d0;
      }

      .cls-13 {
        fill: #cf847c;
      }

      .cls-15 {
        fill: #6c5a52;
      }
    </style>
  </defs>
  <g class="cls-16">
    <g id="Livello_1" data-name="Livello 1">
      <g>
        <path class="cls-2" d="M130.5,16.9l.6-3.7,1.2-2.9s.2-1.6-.7-1.4-3.5,2.1-3.5,2.1l-4.1,4.3s6.5,1.6,6.5,1.6Z"/>
        <polygon class="cls-9" points="90.7 62.4 88.6 70.5 86.8 77.2 86.1 82.4 86.9 86.2 89.9 87 91.2 89 91.2 90.9 88.1 91.6 83.1 91.3 82.5 89 80.7 85.3 81.3 82.9 82 74.9 82.8 62.2 83.8 54.3 90.1 55.4 90.7 62.4"/>
        <polygon class="cls-2" points="81.6 85.3 82.6 87.2 83.1 89.4 83.6 88.8 83.1 84.9 81.6 85.3"/>
        <polygon class="cls-5" points="82.8 62.2 83.8 54.3 90.1 55.4 90.7 62.4 88.6 70.5 87.2 75.8 86.7 70.9 85 64.9 82.7 64.3 82.8 62.2"/>
        <polygon class="cls-2" points="86 88.9 86 88.5 87 88.8 88.3 90.1 88.8 91.4 88.2 91.6 88.1 91 87.5 89.7 86 88.9"/>
        <polygon class="cls-2" points="90.5 89.6 90.9 91 90.5 91.1 90.3 90.2 89.7 89.1 88.8 88.1 89.6 88.3 90.5 89.6"/>
        <polygon class="cls-3" points="82 74.9 82.8 62.2 83.8 54.3 85.9 54.7 84.1 66.3 83 74.4 82.5 81.6 80.8 85.6 80.7 85.3 81.3 82.9 82 74.9"/>
        <polygon class="cls-5" points="28 29.8 22.8 30 15.1 34.6 5.5 47.8 1.2 57.9 .5 64.8 2.5 69.6 5.3 69.6 14.1 60.9 18.9 45.7 22.7 37.6 25.7 35.1 28 29.8"/>
        <path class="cls-14" d="M3,63.2c1.9.3,3.7-2.4,3.7-2.4l4.1-3.8,3-5.8,4.6-9.3,3.5-6.7,4.4-1.4-.6,1.3-3,2.5-3.8,8.1s-3.1,13.6-4.8,15.2-7.1,7.1-8.8,8.8-2.8,0-2.8,0c0,0-1.5-3-2-4.8s.2-2.6.2-2.6c.3-.2.6-.3.6-.3,0,0-.3,1,1.6,1.2h.1Z"/>
        <path class="cls-9" d="M2.8,54.2l2.7-6.3s8-11.3,9.6-13.2,7.8-4.6,7.8-4.6h.8l-5.7,3.9-5.1,6.7-3.7,7.3s-2.7,4.1-4.1,5.4-2.3.8-2.3.8Z"/>
        <polygon class="cls-9" points="54.2 52.1 51.9 60.9 47.5 68.2 43.7 73.3 43.5 75.7 46.8 82.5 48.4 85.3 49.4 86.3 52.9 87.5 55.4 90.8 54.7 91.4 48.9 91.1 45.6 90.3 45 86.5 40.4 80.7 36.7 75.7 35.6 73.3 35.9 71 38.4 67.8 38.2 57.4 43.3 49.8 54.2 52.1"/>
        <polygon class="cls-5" points="38.4 67.8 38.2 57.4 43.3 49.8 54.2 52.1 51.9 60.9 48 67.2 45.7 65 41.6 64.2 39.8 68 36.8 72.4 37.8 77.2 36.7 75.7 35.6 73.3 35.9 71 38.4 67.8"/>
        <path class="cls-3" d="M36.7,75.7l-1.2-2.5.3-2.3,2.5-3.1-.2-10.4.7-1.1c1.1.9,2.2,1.8,2.2,1.8,0,.3-.4,8.7-.4,8.7l-1.7,5.1v4.3l3.1,4.9,3.1,4.5.7,2.5-.7.8-.4-2.4-4.6-5.8-3.6-5h.2Z"/>
        <polygon class="cls-5" points="141.9 36.4 138 31.6 136.2 28.3 136 25.5 134.7 21.2 131.2 16.5 127.2 14.6 118.6 15.1 113.4 17.4 110.1 18.4 95.2 19.4 90.4 18.3 87.3 17.9 82.3 20.3 69.8 21.6 55.1 20.9 45.8 19.6 36.9 21.2 26.3 28.5 23.3 38.8 22 51.3 23.7 62.7 22.5 67.3 19.7 70.6 18.4 71.8 19 78.6 21.7 88.6 23 90.1 24.2 93.4 28 94.7 29.6 94.6 30.1 93.4 32.6 93.9 34.1 92.8 31.8 89.1 27.6 88.3 26.5 86.3 24.2 74.8 29.8 70.8 34.1 66.2 42.5 57.9 46.5 52.8 50.6 53.5 64.3 55.4 79.5 56.8 88.1 57.2 90.2 65.2 91.9 74.4 92.7 80.5 92.2 83.7 92.2 85.2 94.9 88.8 96.2 92.9 97.2 93.8 103.8 93.8 105.4 93.3 104.8 90.9 101.1 88.5 98.3 81.9 98.2 76.2 100.8 58.4 102.3 54.9 107.9 51.3 113.2 44.9 115.2 44.2 117.7 46.3 120.6 44.2 125.3 38.1 128.6 36.9 133.3 39.7 135.8 40.7 139.5 39.9 142.3 38.3 141.9 36.4"/>
        <path class="cls-14" d="M18.4,72.3l2.9-.2,2.5-2.1,3.5-4.1s2.8-4.9,4.5-6.9,6.1-4.4,5-3.5,8.4-8.8,8.4-8.8c0,0,1.1-3.9,2.3-5.5s3.1-.8,3.1-.8l3.8,3,4.8.8,9.6,1.5,7.4.2,7.8-1,5.1-.7,2,1.8-1.3,5.3-1.7,3.5-.2,2.5-8.4-.5-15.2-1.3-13.7-2-4.1-.7-4,5.1-8.4,8.3-4.3,4.6-5.6,4,2.3,11.6,1.2,2,4.1.8,2.3,3.6-1.5,1.2-2.5-.5-.5,1.2-1.7.2-3.8-1.3-1.2-3.3-1.3-1.5-2.6-10.1-.6-6.2v-.2Z"/>
        <polygon class="cls-14" points="102.3 55.4 102.1 56 102 52 103.8 47.6 103.3 42.2 105.4 37.1 107.4 36.1 108.4 38.8 111 43.6 110.9 47.9 107.9 51.7 102.3 55.4"/>
        <polygon class="cls-14" points="118.8 43.7 119.3 39.7 121.9 36.4 124.1 33.8 123.4 32 120.1 29.5 120.1 26.9 126.6 26.5 129 30.2 131.2 30.7 135 32.6 136.3 32 138.2 31.9 141.9 36.4 142.3 38.3 139.5 39.9 135.8 40.7 133.3 39.7 128.6 36.9 125.3 38.1 120.6 44.2 118.6 45.7 118.8 43.7"/>
        <path class="cls-9" d="M100.3,48l1.5-3.8s-.7-5.1-.7-5.6-.5-5-.5-5l-.2-7.3-2.8-4.1,1.3,5.9-1.5,7.8-1.3,5,1.3,3.6,2.8,3.5h0Z"/>
        <path class="cls-9" d="M132.8,25.7l1.6,2.2c-.4,0-2.1-1.6-2.1-1.6,0,0,.5-.6.5-.6Z"/>
        <polygon class="cls-2" points="133.5 25.1 132.7 26.1 132.5 26.8 131.6 26.1 130.8 24.5 132.1 24.9 133.5 25.1"/>
        <polygon class="cls-5" points="132.5 25.3 132.2 25.8 132 25.6 132.1 25.2 132.5 25.3"/>
        <polygon class="cls-2" points="142.3 38.3 140.1 39.5 140.4 38 139.5 37.5 139.6 36.5 140.6 36.4 141 35.3 141.9 36.4 142.3 38.3"/>
        <polygon class="cls-2" points="132.2 37.3 135.4 39.4 137.8 40.3 137.1 40.4 135.1 39.5 133.4 38.5 130.9 37 129 36.4 128.8 35.9 129.8 35.8 132.2 37.3"/>
        <polygon class="cls-9" points="133.2 22.8 132.4 20.4 129 17.4 127 17.1 127.4 19.8 125.5 22.2 120.8 23.6 120.6 25.6 122.5 25 126.4 23.8 128 24.2 129.5 22.9 133.2 22.8"/>
        <polygon class="cls-9" points="121.9 33 120.7 35.4 119.2 35.2 120.8 33.1 121.2 32 121.9 33"/>
        <polygon class="cls-9" points="119.6 33.3 116.1 35.6 113.7 38.7 111.9 39.3 110.9 39 113.1 37.2 114.8 33.4 120 30.8 119.6 33.3"/>
        <polygon class="cls-9" points="118.3 38.6 117.7 41.8 115.3 41.7 113.6 42.3 113 41.7 115 40.4 116.2 37.2 118.2 35.6 119.6 36.1 118.3 38.6"/>
        <polygon class="cls-9" points="111.7 41.2 110.9 40.3 113.6 39.5 113.7 40.1 111.7 41.2"/>
        <path class="cls-9" d="M39.7,22.1c-2,.6-5.9,3.3-7.4,4.6s-2.5,4.2-2.5,5v6.7c0,.8.8,1.7.4,3s-4.7,5.9-4.7,5.9l-.2,2.7-.7,4.8-1.5,2.5-.9-6,1.3-12.6s2-8.7,3-10.2,8.5-6.3,10.6-7.3,7.3-1.6,8.9-1.7,7.4,1.2,9.3,1.3,12,.4,15.4.3,11.9-1,11.9-1c0,0,3.9-2.1,5-2.3s3.1.3,3.1.3c0,0,3.9.9,5.6.9s13.7-.7,13.7-.7l-.6.9s-3.8.9-4.2.7c-.4-.1-6.6.5-6.6.5l-5,2-5.9.9s-4-1.1-4.8-.6-.6,2.2-.6,2.2v2.1c0,0-1.9.7-1.9.7l-3.1-2.5s-2.5-1.3-4.3-1.5l-10.8-.9s-8-.3-6.3-.2-6.7-.9-6.7-.9c0,0-7.2-.5-9.2,0l-.3.3Z"/>
        <polygon class="cls-15" points="93.4 85.6 94.7 87.1 96.1 87.8 96.3 87.4 94.5 85.7 93.7 84 93.4 85.6"/>
        <path class="cls-15" d="M102.6,92l-2.4-1v-.5c0,0,2.7,1,2.7,1l.7,2.3h-.8c0-.6-.2-1.8-.2-1.8Z"/>
        <polygon class="cls-15" points="103.2 90.6 104.6 91.7 104.9 93.4 104.5 93.5 104.3 92 103.1 90.8 103.2 90.6"/>
        <polygon class="cls-9" points="93.9 49.9 93.8 55.7 96.4 59.3 98.4 60 99.2 58.5 96.9 55.9 95.1 51 93.9 49.9"/>
        <polygon class="cls-14" points="86.6 52.3 88.7 52.3 89.7 57.9 91.7 66.5 93.4 75.1 93.5 79.8 92.6 81.4 92.7 80.5 91.9 74.4 90.2 65.2 88.1 57.2 85.2 57.1 84.9 55.4 86.6 52.3"/>
        <polygon class="cls-9" points="21.7 73 20.7 76 20.8 79.6 19.8 75.5 20.2 73 21.7 73"/>
        <polygon class="cls-9" points="19 78.6 18.4 72.3 19.7 72.2 19 73.4 19.7 78.3 20.9 82.9 22.6 87.2 24.3 89.9 24.8 93.7 24.2 93.4 23 90.1 21.7 88.6 19 78.6"/>
        <path class="cls-9" d="M30.5,90l2,2.3.3,1.4-.2.2h-.3c-.2-.7-.5-1.6-.5-1.6l-2.1-2.4-.8-.2v-.4l1.7.7h-.1Z"/>
        <path class="cls-9" d="M27.4,90.4l1.7,1.7.9,1.6-.4.9h0c-.2-.7-.5-1.8-.5-1.8l-1.7-1.8s0-.6,0-.6Z"/>
        <polygon class="cls-9" points="115.1 19.5 113 17.6 113.4 17.4 117.2 15.8 117.6 19.4 118.3 21.9 116.7 23.2 115.1 19.5"/>
        <path class="cls-3" d="M127.2,14.6l4,1.8,3.5,4.8,1.3,4.3.2,2.8,1.8,3.3,4,4.8.3,1.8-.4.2-.6-1.9-1.3-1.7-2.9-2.9-1.7-3.1v-2.4s-1.1-3.9-1.1-4.1-2.1-3.9-2.1-3.9l-2.2-2-2.3-1.3-2.1-.4h0c0-.1,1.8-.2,1.8-.2h-.2Z"/>
        <polygon class="cls-13" points="119.6 21 122.4 20.2 123.9 19.8 125.4 18.4 126.7 18.4 127.3 17.2 125.8 12.7 125.3 8.8 124.6 8.1 121.5 12.1 119.6 17.4 119.6 21"/>
        <polygon class="cls-3" points="123.6 12.8 124.8 15.5 125.6 18.4 125.4 18.4 123.9 19.8 122.4 20.2 122.4 20.2 121.5 18.8 121.4 15.7 123.2 11.3 123.6 12.8"/>
        <path class="cls-2" d="M124.6,8.1c.8-.3.7.7.7.7l.5,4,1.5,4.5-.6,1.2h0l-.3-2.1-.7-2.4-.5-3.8-.7.5-1.6,3.1-.4,3.1.7,2,.9,1.1h0l-1.5.5-2.8.8v-3.6l1.8-5.3s2.3-3.7,3.1-4v-.3Z"/>
        <polygon class="cls-3" points="50.6 53.5 46.5 52.8 42.5 57.9 34.1 66.2 30.4 70.2 32.8 65.7 40.2 56.8 44.2 50.8 48.6 49 58 51.8 78.5 53.1 86.6 52.8 89.7 53 89.1 55.9 88.8 59.8 88.1 57.2 79.5 56.8 64.3 55.4 50.6 53.5"/>
      </g>
      <g>
        <g>
          <g>
            <path class="cls-10" d="M205.4,38.2l-7.1,4.5-2.7,3-.6,1-2.9,1.9-1,1-1.4,1.3s-5.3,5-5.5,5.5.3.8.3.8c0,0-2.1,1.9-2.6,2.4s-3.9,4.8-3.9,4.8l-4,5.6-2.4,6.1-.6,7.5.6,1.8s3.7-.5,4.2-.8,4.8-.9,5.8-1.5,5.2-4.1,5.2-4.1c0,0,4.5-3.7,4.7-4.2s2.9-5,3.2-5.5c.7-1.2,2.2-3.6,2.5-4.1,1.2-2.2,2.8-4.8,2.8-4.8l1.4-5.1s2.2-3.9,2.2-4.5,1.8-12.5,1.8-12.5h0Z"/>
            <path class="cls-11" d="M182.4,81.1s.6-1,.9-2.4-3.2.3-3.2.3c0,0-1.4-1.8-1.9-3.5s-2.6.2-2.6.2l-2.2,1.1-1.3-1.7-.4,1.1-.6,7.5s-.3,1.5.6,1.8c0,0,3.7-.5,4.2-.8s3.6-.7,5.5-1.4,3.1-2,3.1-2h-2v-.2Z"/>
            <path class="cls-3" d="M203.9,48.2l-3.2,1-2.7,10-4.3,6.1s-3.1,5.6-5,7.7-4.7,3.7-4.7,3.7l-3.9,2.2-3.7,2.2-5.3.5v2.9c-.1,0,0,.7.7.8s4.1-.7,4.6-1,5.4-1.1,6.3-1.8,4.1-3.6,4.1-3.6c0,0,4.4-3.8,4.7-4.2,1.2-2.1,3.4-5.9,5-8.6s.3-.4.6-1c1.1-2.2,2.8-4.8,2.8-4.8l1.4-5.1s2.2-3.9,2.2-4.5.1-1.1.3-2.5h0Z"/>
            <path class="cls-11" d="M272.5,7.3c.1-.4,3.6-8.9,4.2-5.2l.5,3.6v3.1c.1,0-4.7-1.6-4.7-1.6h0Z"/>
            <path class="cls-6" d="M226.6,57.6l.3,6.9-1.9,5-3.1,3.4-2.7,2.2-.5,1.8.5,3.2,2.1,9.3.6.6,1.8.5,1.6,1.9-.3,1.3h-4.2l-2.7-.2-.3-2.2-.8-1-.2-1.6-1.8-8.2-2.6-4.7s-.2-1.5.6-2.2,1.8-1,2.7-1.4,1.8-6.1,1.8-6.1l1.6-11.6,7.4,3.1h0Z"/>
            <path class="cls-3" d="M221.9,90.1l-.6-.6-2.1-9.3-.5-3.2.3-1.1s-.2-2-.9-.7-1.8,2.2-2.8,2.1-2.7-1.7-2.7-1.7v.5c-.1,0,2.4,4.7,2.4,4.7l1.8,8.2.2,1.6.8,1,.3,2.2,2.7.2h4.2l.3-1.3s-.8-1.7-1.6-1.9l-1.8-.5v-.2Z"/>
            <polygon class="cls-6" points="263.4 56.3 262.6 66.3 261.9 73.7 261.8 77.7 262.9 86.7 265 87.5 266.4 89.2 266.2 90.9 262.1 90.7 260 88.6 258.1 76.4 258.1 57.9 263.4 56.3"/>
            <polygon class="cls-1" points="266.4 89.2 265 87.5 262.9 86.7 261.8 77.7 261.9 73.7 262.6 66.3 262.8 63.5 260.1 62.8 258.1 64.2 258.1 76.4 260 88.6 262.1 90.7 266.2 90.9 266.4 89.2"/>
            <path class="cls-1" d="M291.7,19.9c.2.7-1.3,2.7-1.3,2.7l-2.4,1.5h-5.1c0,0-3.8,0-3.8,0l-3.1,2.4-4.7,14.3-2.4,9-3.2,5.3-3.7,4.5-2.1,1.4-.6,12-.3,7.7-.3,6.9,1.1,3.7,2.1.5,1.4,2.7-.8.6-6.3-.6-1.6-6.1-.3-8.5-.4-3.6-1.1-3.3-1.6-12.5s-1-1.7-2.1-1.6-4.9.9-6.9,1-6.6,0-6.6,0l-11.1-1.6-3.1,4.5-1.8,4.7-4.2,3.7-7.2,3.7-1.9,1.8,1.1,14.8,1.9.6,1.8,1.4.5,2.9-1.6.2h-4l-2.6-2.2-1.1-1-.3-6.1s-2.8-11.8-2.3-13.5,3.7-4.6,3.7-4.6c0,0,.7-1.9.5-4.3s-2.2-7.7-2.2-7.7l-1.9-7.4s-.3-3.3,1.3-6.3,2-4.3,4.2-6.1,8.7-3.7,8.7-3.7l15.1-1.3,11.6-1.7,6.5-2.5h4.5s.4-1.6,2.6-3.5,5-6.6,5-6.6l5.1-8.5,5.6-3.1,5.8.5s5.8,4,6.3,4.7,1.1,2.4,1.4,2.7l2.4,2.1s5.6,2.7,5.8,3.4h0Z"/>
            <polygon class="cls-6" points="261.8 92 259.7 91.5 258.5 87.8 258.9 80.9 259.2 73.2 259.7 62.8 257.6 62.3 256.9 60.8 253.2 59.5 251.3 61.7 252.8 73.2 253.9 76.5 254.2 80.1 254.5 88.6 256.1 94.7 262.4 95.4 263.2 94.7 261.8 92"/>
            <path class="cls-3" d="M215.5,71.3l1-.9h-1.4l-7.4,1.3-3.2-.6-.9-2.3v.3s-3.7,3.5-3.7,5.1,2.3,13,2.3,13l.3,6.1,1.1,1s2.2,2.2,2.6,2.2h4l1.6-.2s.5-2-.5-2.9l-1.8-1.4-1.9-.6-1.1-14.8,1.9-1.8,7.2-3.7v.2Z"/>
            <path class="cls-3" d="M251.3,57.7c-.3-.5-1.1-.3-2.1-1.4s-6.2.8-6.2.8l-6.5.4s-4.5.3-6.6,0-3.5-1.2-4.5-.5-.8,1.3-.8,1.3l11.1,1.6h5.4c2.5,0,7.1-1.1,8.1-1.1s1.3.7,2.1,1.6c0,0,.5-2.5.1-2.9v.2Z"/>
            <path class="cls-4" d="M287.3,21l-3.7-1.8s-1.5-.9-2.9-1.3-4.3.6-4.3.6l-5.5,2.2s-2.4.8-3.5,1.1-.8,1.9-.8,1.9l1,4.3s-.6,8.9-.5,12.1c0,3.1-1,6.3-1.8,8-.8,1.6-2.7,5.5-2.7,5.5l-1.6,4.2s-.2,1.8-.2,2.6,1.2-.8,1.2-.8l3.7-4.5s1.6-1.3,3.2-4.2,6.7-23.1,7.1-24c.5-.9,2-2.1,2.9-2.5s2.6-.4,4.1-.4,4.2.5,4.7.5,2.4-1.2,2.8-1.9.5-1,.5-1l-3.7-.8v.2Z"/>
            <path class="cls-3" d="M256.9,93.1l-1.1-5.3-.2-10.9-1.3-4.8v-13.5s.7-3.1,0-4.4-2.3-1.2-2.3-1.2l-10.8,2.2-11.2-.6s-6.3-2.3-8-3.1-2.1,1-2.1,1c0,0,1.3,1.9,1.1,3.7s-1.1,5.3-4.3,9-6.4,5.8-6.4,5.8l-5.3,5.5,1.1,12,1,.9-.9-12.6,1.9-1.8,7.2-3.7s3.2-2.2,4.2-3.7.6-2,1.8-4.7,3.1-4.5,3.1-4.5l11.1,1.6s6.1,0,7.6,0,5.1-.8,5.9-.9,2.1,1.6,2.1,1.6l1.6,12.5,1.1,3.3.4,3.6.3,8.5,1.6,6.1h1.2c0,0-.4-1.6-.4-1.6h0Z"/>
            <path class="cls-10" d="M271.9,8.1s2.1-.4,2.9-.5,1.9,0,1-.6-5.8-.5-5.8-.5c0,0-2.8-1-5.6,3.1s-8.7,12.7-10.6,14.5c-3.7,3.4-8.6,3.7-13,5.3s-11.8,3.1-11.8,3.1c0,0-12.3.5-15.9,1.4-3.3,1.1-6.4,2.7-6.4,2.7,0,0,4.5-1,6-1s8.3-1.3,12.4-1.5l12.7-.6s8.1-3,14-5.1,8.6-8,8.6-8l7-10.5,4.7-1.6-.2-.2Z"/>
            <polygon class="cls-11" points="279.9 13.9 282.5 15.2 284.2 16.2 283.1 15.1 280.9 13.6 279.9 13.9"/>
            <polygon class="cls-1" points="270.1 .4 268.3 1.2 265.3 8.9 265.9 10.4 269.7 12.8 270.4 11.2 271.7 9.8 272.9 9.7 272.8 6.3 270.1 .4"/>
            <path class="cls-10" d="M269.5,2s.2-2.1.9-1-.3-.6-.3-.6l-1.8.8-3,7.1s-.4,1.8-.2,4.6,4.6-.2,4.6-.2l.4-.8s0,.1-.4-2.3c-.4-2.5,0-4.7,0-4.7V1.9h-.2Z"/>
            <path class="cls-10" d="M272.2,8.3s0-2-.4-3.1-.9-2.4-1.4-2.8-.2,2.1-.2,2.1v3.4c.1,0,.5,2.9.5,2.9l.9-1h.4v-1.4h.2Z"/>
            <path class="cls-8" d="M270.1.4c-.9-1.3-1.8.8-1.8.8l-1.8,4.6s.9-.7,1.7-.7,1.3.5,1.3.5v-3.6c0-1.4.9-1,.9-1,0,0,.2.2-.3-.6h0Z"/>
            <path class="cls-12" d="M270.9,20.8s2.2,0,2.9.9.4,1.4.4,1.4c0,0,.2-.2.7,0s.5,1,.5,1c0,0,.3-.4,1-.4s.8.8.8.8c0,0,1.7-.6,3.7-.5s5.1.5,5.9.5.7.2,1.2,0,1.6-1,1.9-1.3c.5-.5,1-1.4,1-1.4l-4.3-1.2s-4.9-2.7-6-2.7-2.9-.2-6,1.3-3.8,1.5-3.8,1.5h.1Z"/>
            <polygon class="cls-11" points="289.6 23.6 288.2 23.5 286 23.1 282.7 22.1 279.5 22.4 279.5 22.8 281.2 22.7 282.8 22.6 285.3 23.3 287.5 23.8 288.9 24.1 289.6 23.6"/>
            <path class="cls-11" d="M290.5,21l.5.9s.9-1.1.7-2-.7-.4-.7-.4l-1,.2v.7h.8v.6s-.3,0-.3,0Z"/>
            <polygon class="cls-8" points="281.3 13 281.2 13.4 281.3 14 281.6 14.4 280.3 14.2 279.1 14.2 280 13.5 281.3 13"/>
          </g>
          <path class="cls-11" d="M202,40.3s-3.8,1.6-6.4,5.4-1.9,1.6-2.6,2c-1,.8-1.5,1.4-3.4,3.1-3,2.8-6,5.5-5.7,5.8s.6.4.6.4c0,0-2.1,1.8-3,2.9s-3.4,4.3-4,5.1l-2.1,2.9c-.2.3,1.5-.5,1.9-.8s3.3-3.3,2.7-3.2-.1-.9.8-1.6,1.9-1.3,1.9-1.6.2-1.1,1.1-1.6,2.4-2.1,3.1-2.7,1.7-.9,2.3-1.8,2.6-4.1,3.5-4.8,2.4-2.1,2.7-2.4.5-.8,1.3-1.6,1.6-1.7,2.3-2.2.5-.5,1.8-1.5,1-1.7,1-1.7h.2Z"/>
        </g>
        <path class="cls-7" d="M207.4,91.5s2.4.3,3.7,2.1.5,2.9.5,2.9h-4.8c-.8,0-1.4,0-1.5-.4s-1.6-3.1-.6-3.1,2.7-1.7,2.7-1.7v.2Z"/>
        <path class="cls-7" d="M220.8,90.2s2,0,2.8.3,1.6,1.9,1.6,1.9c0,0,.2,1.3-.3,1.3h-3.3c-.9,0-3.3.2-3.6-.2s-.7-2.1-.3-2.2,2.6-1.1,3.2-1.1h0Z"/>
        <path class="cls-8" d="M223.3,92s.4.3.4.7v1h-.4v-.9c0-.4-.3-1.2,0-.9h0Z"/>
        <path class="cls-8" d="M208.8,94.9s.4.3.4.7v1h-.4v-.9c0-.4-.3-1.2,0-.9h0Z"/>
        <path class="cls-8" d="M210.9,94.7s.4.3.4.7v1h-.4v-.9c0-.4-.3-1.2,0-.9h0Z"/>
        <path class="cls-7" d="M263.3,86.8s2.5.4,3,1.1,1.6,3-.2,3-4.2-.2-4.2-.2c0,0-.8-.7-.9-1.3s1-1.1,1-1.6c0-.8,1.2-1,1.2-1h0Z"/>
        <path class="cls-8" d="M264,89.1s.4.3.4.7v1h-.4v-.9c0-.4-.3-1.2,0-.9h0Z"/>
        <path class="cls-8" d="M266.2,88.9s.4.3.4.7v1h-.4v-.9c0-.4-.3-1.2,0-.9h0Z"/>
        <path class="cls-7" d="M259.6,91.5s1.4,0,2.1.5,1.5,1.2,1.4,2.1-.3,1-.8,1.2-1.3,0-1.7,0-.9,0-1.3-.2-2.5-.4-2.9-.5,0-.9.5-1.3,1.5-.6,1.6-.9.7-1.1,1-1.1v.2Z"/>
        <path class="cls-8" d="M260.2,93.6s.4.3.4.7v1h-.4v-.9c0-.4-.3-1.2,0-.9h0Z"/>
        <path class="cls-8" d="M262.3,93.4s.4.3.4.7v1h-.4v-.9c0-.4-.3-1.2,0-.9h0Z"/>
      </g>
    </g>
  </g>
</svg>