<?xml version="1.0" encoding="UTF-8"?>
<svg id="how_to_prevent" data-name="how to prevent" xmlns="http://www.w3.org/2000/svg" viewBox="0 0 32 32">
  <defs>
    <style>
      .cls-1 {
        fill: #3c6277;
      }

      .cls-2 {
        fill: #70a0bf;
      }

      .cls-3 {
        fill: #77a8c7;
      }

      .cls-4 {
        fill: #82b7d9;
      }
    </style>
  </defs>
  <g id="ic_avoid_unpast_milk">
    <g>
      <polygon class="cls-1" points="6.88 6.32 4.95 8.8 25.43 24.71 27.36 22.22 6.88 6.32 6.88 6.32"/>
      <path class="cls-1" d="m16.02,4.71h0c5.73,0,10.6,4.3,11.31,10,.38,3.03-.44,6.02-2.31,8.43-1.87,2.41-4.57,3.95-7.6,4.33-.48.06-.96.09-1.44.09-5.73,0-10.6-4.3-11.31-10-.38-3.03.44-6.02,2.31-8.43,1.87-2.41,4.57-3.95,7.6-4.33.48-.06.96-.09,1.44-.09m0-4c-.64,0-1.29.04-1.94.12C5.63,1.89-.36,9.61.7,18.06c.98,7.8,7.62,13.5,15.28,13.5.64,0,1.29-.04,1.94-.12,8.45-1.06,14.44-8.77,13.38-17.23-.98-7.8-7.62-13.5-15.28-13.5h0Z"/>
    </g>
    <path class="cls-3" d="m18.69,2.9h8.18c.26,0,.47.21.47.47v2.62h-9.13v-2.62c0-.26.21-.47.47-.47Z"/>
    <path class="cls-4" d="m29.09,14.23v9.45s-.18,1.74-2.03,1.78c-1.86.04-6.69.07-8.56,0-1.86-.07-2.02-1.78-2.02-1.78v-9.45c0-4.57.54-4.2,1.6-5.51,1.05-1.32.89-2.06.89-2.06v-.66h7.64v.66s-.18.74.89,2.06c1.05,1.31,1.6.94,1.6,5.51Z"/>
    <path id="Tracciato_202" data-name="Tracciato 202" class="cls-3" d="m27.44,20.03s0-.02,0-.03c.04-.24.46-3.41-5.17-4.69s-16.54-.01-16.8,3.18c0,0,0,.01,0,.02v7.52s0,.03,0,.04c.08.33,1.21,3.94,13.5,3.58.11,0,.2-.09.2-.2v-3.18c0-.12.1-.21.22-.2l7.69.66c.2.02.36-.14.36-.33v-6.37Z"/>
    <path id="Tracciato_203" data-name="Tracciato 203" class="cls-4" d="m26.75,25.83v-5.17c.03-.26-.1-.4-.36-.44l-9.88-.95c-.15-.01-.22.18-.09.26l2.47,1.71c.15.11.25.28.25.47v3.42c0,.07.06.14.13.14l7.38.65c.06,0,.1,0,.1-.09Z"/>
    <path id="Tracciato_204" data-name="Tracciato 204" class="cls-2" d="m18.18,22.12v6.53c0,.08-.06.14-.14.14-1.2.01-9.73.01-11.85-3.03-.02-.02-.03-.05-.03-.08v-6.26c0-.11.12-.18.21-.12.92.52,4.86,2.5,11.67,2.69.08,0,.14.07.14.14Z"/>
  </g>
</svg>