<?xml version="1.0" encoding="UTF-8"?><svg id="how_to_prevent" xmlns="http://www.w3.org/2000/svg" viewBox="0 0 32 32"><defs><style>.cls-1{fill:#5b798c;}.cls-2{fill:#77a8c7;}.cls-3{fill:#82b7d9;}</style></defs><g id="ic_slaugh"><rect class="cls-2" x="12.35" y="4.1" width="17.83" height="26.52" rx=".92" ry=".92"/><rect class="cls-3" x="13.5" y="4.91" width="15.6" height="23.9"/><rect class="cls-2" x="17.27" y="4.46" width="8.06" height="1.08"/><rect class="cls-2" x="14.49" y="6.68" width="8.06" height=".93"/><rect class="cls-2" x="14.49" y="7.93" width="12.79" height=".46"/><rect class="cls-2" x="14.49" y="8.71" width="12.79" height=".46"/><rect class="cls-2" x="14.49" y="9.49" width="12.79" height=".46"/><rect class="cls-2" x="14.49" y="11.2" width="1.92" height="1.92"/><g><rect class="cls-2" x="16.93" y="11.18" width="10.35" height=".3"/><rect class="cls-2" x="16.93" y="11.66" width="10.35" height=".3"/><rect class="cls-2" x="16.93" y="12.13" width="10.35" height=".3"/><rect class="cls-2" x="16.93" y="12.61" width="6.63" height=".3"/></g><rect class="cls-2" x="14.49" y="14.4" width="1.92" height="1.92"/><path class="cls-1" d="M14.75,11.75s.56,.4,.62,.68,.5-.89,1.29-1.54c.19-.15-.47,.16-1.17,1.14,0,0-.43-.3-.74-.28Z"/><path class="cls-1" d="M14.75,14.95s.56,.4,.62,.68,.5-.89,1.29-1.54c.19-.15-.47,.16-1.17,1.14,0,0-.43-.3-.74-.28Z"/><g><rect class="cls-2" x="16.93" y="14.38" width="10.35" height=".3"/><rect class="cls-2" x="16.93" y="14.85" width="10.35" height=".3"/><rect class="cls-2" x="16.93" y="15.33" width="10.35" height=".3"/><rect class="cls-2" x="16.93" y="15.8" width="6.63" height=".3"/></g><rect class="cls-2" x="14.49" y="17.61" width="1.92" height="1.92"/><g><rect class="cls-2" x="16.93" y="17.59" width="10.35" height=".3"/><rect class="cls-2" x="16.93" y="18.06" width="10.35" height=".3"/><rect class="cls-2" x="16.93" y="18.54" width="10.35" height=".3"/><rect class="cls-2" x="16.93" y="19.01" width="6.63" height=".3"/></g><rect class="cls-1" x="18.73" y="4.7" width="5.15" height=".42"/></g></svg>